%TF.GenerationSoftware,KiCad,Pcbnew,9.0.1*%
%TF.CreationDate,2025-07-31T02:38:39-07:00*%
%TF.ProjectId,bottom,626f7474-6f6d-42e6-9b69-6361645f7063,A1*%
%TF.SameCoordinates,PX578c1c0PY3d09000*%
%TF.FileFunction,Soldermask,Bot*%
%TF.FilePolarity,Negative*%
%FSLAX46Y46*%
G04 Gerber Fmt 4.6, Leading zero omitted, Abs format (unit mm)*
G04 Created by KiCad (PCBNEW 9.0.1) date 2025-07-31 02:38:39*
%MOMM*%
%LPD*%
G01*
G04 APERTURE LIST*
G04 Aperture macros list*
%AMRoundRect*
0 Rectangle with rounded corners*
0 $1 Rounding radius*
0 $2 $3 $4 $5 $6 $7 $8 $9 X,Y pos of 4 corners*
0 Add a 4 corners polygon primitive as box body*
4,1,4,$2,$3,$4,$5,$6,$7,$8,$9,$2,$3,0*
0 Add four circle primitives for the rounded corners*
1,1,$1+$1,$2,$3*
1,1,$1+$1,$4,$5*
1,1,$1+$1,$6,$7*
1,1,$1+$1,$8,$9*
0 Add four rect primitives between the rounded corners*
20,1,$1+$1,$2,$3,$4,$5,0*
20,1,$1+$1,$4,$5,$6,$7,0*
20,1,$1+$1,$6,$7,$8,$9,0*
20,1,$1+$1,$8,$9,$2,$3,0*%
G04 Aperture macros list end*
%ADD10C,0.100000*%
%ADD11C,0.150000*%
%ADD12C,0.300000*%
%ADD13C,0.400000*%
%ADD14RoundRect,0.250000X-1.050000X-1.050000X1.050000X-1.050000X1.050000X1.050000X-1.050000X1.050000X0*%
%ADD15C,2.600000*%
%ADD16C,2.700000*%
%ADD17R,1.700000X1.700000*%
%ADD18C,1.700000*%
%ADD19RoundRect,0.250000X1.050000X1.050000X-1.050000X1.050000X-1.050000X-1.050000X1.050000X-1.050000X0*%
%ADD20C,4.500000*%
%ADD21C,5.300000*%
G04 APERTURE END LIST*
D10*
D11*
X4100000Y-171400000D02*
X112100000Y-171400000D01*
X112100000Y-203400000D01*
X4100000Y-203400000D01*
X4100000Y-171400000D01*
D10*
D11*
X-81800000Y54000000D02*
X114100000Y54000000D01*
X114100000Y-205400000D01*
X-81800000Y-205400000D01*
X-81800000Y54000000D01*
D10*
D11*
X-79800000Y52000000D02*
X112100000Y52000000D01*
X112100000Y-203400000D01*
X-79800000Y-203400000D01*
X-79800000Y52000000D01*
D10*
D11*
X-31800000Y52000000D02*
X-31800000Y54000000D01*
D10*
D11*
X18200000Y52000000D02*
X18200000Y54000000D01*
D10*
D11*
X68200000Y52000000D02*
X68200000Y54000000D01*
D10*
D11*
X-55710840Y52406396D02*
X-56453697Y52406396D01*
X-56082269Y52406396D02*
X-56082269Y53706396D01*
X-56082269Y53706396D02*
X-56206078Y53520681D01*
X-56206078Y53520681D02*
X-56329888Y53396872D01*
X-56329888Y53396872D02*
X-56453697Y53334967D01*
D10*
D11*
X-6453697Y53582586D02*
X-6391793Y53644491D01*
X-6391793Y53644491D02*
X-6267983Y53706396D01*
X-6267983Y53706396D02*
X-5958459Y53706396D01*
X-5958459Y53706396D02*
X-5834650Y53644491D01*
X-5834650Y53644491D02*
X-5772745Y53582586D01*
X-5772745Y53582586D02*
X-5710840Y53458777D01*
X-5710840Y53458777D02*
X-5710840Y53334967D01*
X-5710840Y53334967D02*
X-5772745Y53149253D01*
X-5772745Y53149253D02*
X-6515602Y52406396D01*
X-6515602Y52406396D02*
X-5710840Y52406396D01*
D10*
D11*
X43484398Y53706396D02*
X44289160Y53706396D01*
X44289160Y53706396D02*
X43855826Y53211158D01*
X43855826Y53211158D02*
X44041541Y53211158D01*
X44041541Y53211158D02*
X44165350Y53149253D01*
X44165350Y53149253D02*
X44227255Y53087348D01*
X44227255Y53087348D02*
X44289160Y52963539D01*
X44289160Y52963539D02*
X44289160Y52654015D01*
X44289160Y52654015D02*
X44227255Y52530205D01*
X44227255Y52530205D02*
X44165350Y52468300D01*
X44165350Y52468300D02*
X44041541Y52406396D01*
X44041541Y52406396D02*
X43670112Y52406396D01*
X43670112Y52406396D02*
X43546303Y52468300D01*
X43546303Y52468300D02*
X43484398Y52530205D01*
D10*
D11*
X94165350Y53273062D02*
X94165350Y52406396D01*
X93855826Y53768300D02*
X93546303Y52839729D01*
X93546303Y52839729D02*
X94351064Y52839729D01*
D10*
D11*
X-31800000Y-203400000D02*
X-31800000Y-205400000D01*
D10*
D11*
X18200000Y-203400000D02*
X18200000Y-205400000D01*
D10*
D11*
X68200000Y-203400000D02*
X68200000Y-205400000D01*
D10*
D11*
X-55710840Y-204993604D02*
X-56453697Y-204993604D01*
X-56082269Y-204993604D02*
X-56082269Y-203693604D01*
X-56082269Y-203693604D02*
X-56206078Y-203879319D01*
X-56206078Y-203879319D02*
X-56329888Y-204003128D01*
X-56329888Y-204003128D02*
X-56453697Y-204065033D01*
D10*
D11*
X-6453697Y-203817414D02*
X-6391793Y-203755509D01*
X-6391793Y-203755509D02*
X-6267983Y-203693604D01*
X-6267983Y-203693604D02*
X-5958459Y-203693604D01*
X-5958459Y-203693604D02*
X-5834650Y-203755509D01*
X-5834650Y-203755509D02*
X-5772745Y-203817414D01*
X-5772745Y-203817414D02*
X-5710840Y-203941223D01*
X-5710840Y-203941223D02*
X-5710840Y-204065033D01*
X-5710840Y-204065033D02*
X-5772745Y-204250747D01*
X-5772745Y-204250747D02*
X-6515602Y-204993604D01*
X-6515602Y-204993604D02*
X-5710840Y-204993604D01*
D10*
D11*
X43484398Y-203693604D02*
X44289160Y-203693604D01*
X44289160Y-203693604D02*
X43855826Y-204188842D01*
X43855826Y-204188842D02*
X44041541Y-204188842D01*
X44041541Y-204188842D02*
X44165350Y-204250747D01*
X44165350Y-204250747D02*
X44227255Y-204312652D01*
X44227255Y-204312652D02*
X44289160Y-204436461D01*
X44289160Y-204436461D02*
X44289160Y-204745985D01*
X44289160Y-204745985D02*
X44227255Y-204869795D01*
X44227255Y-204869795D02*
X44165350Y-204931700D01*
X44165350Y-204931700D02*
X44041541Y-204993604D01*
X44041541Y-204993604D02*
X43670112Y-204993604D01*
X43670112Y-204993604D02*
X43546303Y-204931700D01*
X43546303Y-204931700D02*
X43484398Y-204869795D01*
D10*
D11*
X94165350Y-204126938D02*
X94165350Y-204993604D01*
X93855826Y-203631700D02*
X93546303Y-204560271D01*
X93546303Y-204560271D02*
X94351064Y-204560271D01*
D10*
D11*
X-81800000Y4000000D02*
X-79800000Y4000000D01*
D10*
D11*
X-81800000Y-46000000D02*
X-79800000Y-46000000D01*
D10*
D11*
X-81800000Y-96000000D02*
X-79800000Y-96000000D01*
D10*
D11*
X-81800000Y-146000000D02*
X-79800000Y-146000000D01*
D10*
D11*
X-81800000Y-196000000D02*
X-79800000Y-196000000D01*
D10*
D11*
X-81109524Y28777824D02*
X-80490477Y28777824D01*
X-81233334Y28406396D02*
X-80800001Y29706396D01*
X-80800001Y29706396D02*
X-80366667Y28406396D01*
D10*
D11*
X-80707143Y-20912652D02*
X-80521429Y-20974557D01*
X-80521429Y-20974557D02*
X-80459524Y-21036461D01*
X-80459524Y-21036461D02*
X-80397620Y-21160271D01*
X-80397620Y-21160271D02*
X-80397620Y-21345985D01*
X-80397620Y-21345985D02*
X-80459524Y-21469795D01*
X-80459524Y-21469795D02*
X-80521429Y-21531700D01*
X-80521429Y-21531700D02*
X-80645239Y-21593604D01*
X-80645239Y-21593604D02*
X-81140477Y-21593604D01*
X-81140477Y-21593604D02*
X-81140477Y-20293604D01*
X-81140477Y-20293604D02*
X-80707143Y-20293604D01*
X-80707143Y-20293604D02*
X-80583334Y-20355509D01*
X-80583334Y-20355509D02*
X-80521429Y-20417414D01*
X-80521429Y-20417414D02*
X-80459524Y-20541223D01*
X-80459524Y-20541223D02*
X-80459524Y-20665033D01*
X-80459524Y-20665033D02*
X-80521429Y-20788842D01*
X-80521429Y-20788842D02*
X-80583334Y-20850747D01*
X-80583334Y-20850747D02*
X-80707143Y-20912652D01*
X-80707143Y-20912652D02*
X-81140477Y-20912652D01*
D10*
D11*
X-80397620Y-71469795D02*
X-80459524Y-71531700D01*
X-80459524Y-71531700D02*
X-80645239Y-71593604D01*
X-80645239Y-71593604D02*
X-80769048Y-71593604D01*
X-80769048Y-71593604D02*
X-80954762Y-71531700D01*
X-80954762Y-71531700D02*
X-81078572Y-71407890D01*
X-81078572Y-71407890D02*
X-81140477Y-71284080D01*
X-81140477Y-71284080D02*
X-81202381Y-71036461D01*
X-81202381Y-71036461D02*
X-81202381Y-70850747D01*
X-81202381Y-70850747D02*
X-81140477Y-70603128D01*
X-81140477Y-70603128D02*
X-81078572Y-70479319D01*
X-81078572Y-70479319D02*
X-80954762Y-70355509D01*
X-80954762Y-70355509D02*
X-80769048Y-70293604D01*
X-80769048Y-70293604D02*
X-80645239Y-70293604D01*
X-80645239Y-70293604D02*
X-80459524Y-70355509D01*
X-80459524Y-70355509D02*
X-80397620Y-70417414D01*
D10*
D11*
X-81140477Y-121593604D02*
X-81140477Y-120293604D01*
X-81140477Y-120293604D02*
X-80830953Y-120293604D01*
X-80830953Y-120293604D02*
X-80645239Y-120355509D01*
X-80645239Y-120355509D02*
X-80521429Y-120479319D01*
X-80521429Y-120479319D02*
X-80459524Y-120603128D01*
X-80459524Y-120603128D02*
X-80397620Y-120850747D01*
X-80397620Y-120850747D02*
X-80397620Y-121036461D01*
X-80397620Y-121036461D02*
X-80459524Y-121284080D01*
X-80459524Y-121284080D02*
X-80521429Y-121407890D01*
X-80521429Y-121407890D02*
X-80645239Y-121531700D01*
X-80645239Y-121531700D02*
X-80830953Y-121593604D01*
X-80830953Y-121593604D02*
X-81140477Y-121593604D01*
D10*
D11*
X-81078572Y-170912652D02*
X-80645238Y-170912652D01*
X-80459524Y-171593604D02*
X-81078572Y-171593604D01*
X-81078572Y-171593604D02*
X-81078572Y-170293604D01*
X-81078572Y-170293604D02*
X-80459524Y-170293604D01*
D10*
D11*
X114100000Y4000000D02*
X112100000Y4000000D01*
D10*
D11*
X114100000Y-46000000D02*
X112100000Y-46000000D01*
D10*
D11*
X114100000Y-96000000D02*
X112100000Y-96000000D01*
D10*
D11*
X114100000Y-146000000D02*
X112100000Y-146000000D01*
D10*
D11*
X114100000Y-196000000D02*
X112100000Y-196000000D01*
D10*
D11*
X112790476Y28777824D02*
X113409523Y28777824D01*
X112666666Y28406396D02*
X113099999Y29706396D01*
X113099999Y29706396D02*
X113533333Y28406396D01*
D10*
D11*
X113192857Y-20912652D02*
X113378571Y-20974557D01*
X113378571Y-20974557D02*
X113440476Y-21036461D01*
X113440476Y-21036461D02*
X113502380Y-21160271D01*
X113502380Y-21160271D02*
X113502380Y-21345985D01*
X113502380Y-21345985D02*
X113440476Y-21469795D01*
X113440476Y-21469795D02*
X113378571Y-21531700D01*
X113378571Y-21531700D02*
X113254761Y-21593604D01*
X113254761Y-21593604D02*
X112759523Y-21593604D01*
X112759523Y-21593604D02*
X112759523Y-20293604D01*
X112759523Y-20293604D02*
X113192857Y-20293604D01*
X113192857Y-20293604D02*
X113316666Y-20355509D01*
X113316666Y-20355509D02*
X113378571Y-20417414D01*
X113378571Y-20417414D02*
X113440476Y-20541223D01*
X113440476Y-20541223D02*
X113440476Y-20665033D01*
X113440476Y-20665033D02*
X113378571Y-20788842D01*
X113378571Y-20788842D02*
X113316666Y-20850747D01*
X113316666Y-20850747D02*
X113192857Y-20912652D01*
X113192857Y-20912652D02*
X112759523Y-20912652D01*
D10*
D11*
X113502380Y-71469795D02*
X113440476Y-71531700D01*
X113440476Y-71531700D02*
X113254761Y-71593604D01*
X113254761Y-71593604D02*
X113130952Y-71593604D01*
X113130952Y-71593604D02*
X112945238Y-71531700D01*
X112945238Y-71531700D02*
X112821428Y-71407890D01*
X112821428Y-71407890D02*
X112759523Y-71284080D01*
X112759523Y-71284080D02*
X112697619Y-71036461D01*
X112697619Y-71036461D02*
X112697619Y-70850747D01*
X112697619Y-70850747D02*
X112759523Y-70603128D01*
X112759523Y-70603128D02*
X112821428Y-70479319D01*
X112821428Y-70479319D02*
X112945238Y-70355509D01*
X112945238Y-70355509D02*
X113130952Y-70293604D01*
X113130952Y-70293604D02*
X113254761Y-70293604D01*
X113254761Y-70293604D02*
X113440476Y-70355509D01*
X113440476Y-70355509D02*
X113502380Y-70417414D01*
D10*
D11*
X112759523Y-121593604D02*
X112759523Y-120293604D01*
X112759523Y-120293604D02*
X113069047Y-120293604D01*
X113069047Y-120293604D02*
X113254761Y-120355509D01*
X113254761Y-120355509D02*
X113378571Y-120479319D01*
X113378571Y-120479319D02*
X113440476Y-120603128D01*
X113440476Y-120603128D02*
X113502380Y-120850747D01*
X113502380Y-120850747D02*
X113502380Y-121036461D01*
X113502380Y-121036461D02*
X113440476Y-121284080D01*
X113440476Y-121284080D02*
X113378571Y-121407890D01*
X113378571Y-121407890D02*
X113254761Y-121531700D01*
X113254761Y-121531700D02*
X113069047Y-121593604D01*
X113069047Y-121593604D02*
X112759523Y-121593604D01*
D10*
D11*
X112821428Y-170912652D02*
X113254762Y-170912652D01*
X113440476Y-171593604D02*
X112821428Y-171593604D01*
X112821428Y-171593604D02*
X112821428Y-170293604D01*
X112821428Y-170293604D02*
X113440476Y-170293604D01*
D10*
D11*
X27555826Y-199186128D02*
X27555826Y-197686128D01*
X27555826Y-197686128D02*
X27912969Y-197686128D01*
X27912969Y-197686128D02*
X28127255Y-197757557D01*
X28127255Y-197757557D02*
X28270112Y-197900414D01*
X28270112Y-197900414D02*
X28341541Y-198043271D01*
X28341541Y-198043271D02*
X28412969Y-198328985D01*
X28412969Y-198328985D02*
X28412969Y-198543271D01*
X28412969Y-198543271D02*
X28341541Y-198828985D01*
X28341541Y-198828985D02*
X28270112Y-198971842D01*
X28270112Y-198971842D02*
X28127255Y-199114700D01*
X28127255Y-199114700D02*
X27912969Y-199186128D01*
X27912969Y-199186128D02*
X27555826Y-199186128D01*
X29698684Y-199186128D02*
X29698684Y-198400414D01*
X29698684Y-198400414D02*
X29627255Y-198257557D01*
X29627255Y-198257557D02*
X29484398Y-198186128D01*
X29484398Y-198186128D02*
X29198684Y-198186128D01*
X29198684Y-198186128D02*
X29055826Y-198257557D01*
X29698684Y-199114700D02*
X29555826Y-199186128D01*
X29555826Y-199186128D02*
X29198684Y-199186128D01*
X29198684Y-199186128D02*
X29055826Y-199114700D01*
X29055826Y-199114700D02*
X28984398Y-198971842D01*
X28984398Y-198971842D02*
X28984398Y-198828985D01*
X28984398Y-198828985D02*
X29055826Y-198686128D01*
X29055826Y-198686128D02*
X29198684Y-198614700D01*
X29198684Y-198614700D02*
X29555826Y-198614700D01*
X29555826Y-198614700D02*
X29698684Y-198543271D01*
X30198684Y-198186128D02*
X30770112Y-198186128D01*
X30412969Y-197686128D02*
X30412969Y-198971842D01*
X30412969Y-198971842D02*
X30484398Y-199114700D01*
X30484398Y-199114700D02*
X30627255Y-199186128D01*
X30627255Y-199186128D02*
X30770112Y-199186128D01*
X31841541Y-199114700D02*
X31698684Y-199186128D01*
X31698684Y-199186128D02*
X31412970Y-199186128D01*
X31412970Y-199186128D02*
X31270112Y-199114700D01*
X31270112Y-199114700D02*
X31198684Y-198971842D01*
X31198684Y-198971842D02*
X31198684Y-198400414D01*
X31198684Y-198400414D02*
X31270112Y-198257557D01*
X31270112Y-198257557D02*
X31412970Y-198186128D01*
X31412970Y-198186128D02*
X31698684Y-198186128D01*
X31698684Y-198186128D02*
X31841541Y-198257557D01*
X31841541Y-198257557D02*
X31912970Y-198400414D01*
X31912970Y-198400414D02*
X31912970Y-198543271D01*
X31912970Y-198543271D02*
X31198684Y-198686128D01*
X32555826Y-199043271D02*
X32627255Y-199114700D01*
X32627255Y-199114700D02*
X32555826Y-199186128D01*
X32555826Y-199186128D02*
X32484398Y-199114700D01*
X32484398Y-199114700D02*
X32555826Y-199043271D01*
X32555826Y-199043271D02*
X32555826Y-199186128D01*
X32555826Y-198257557D02*
X32627255Y-198328985D01*
X32627255Y-198328985D02*
X32555826Y-198400414D01*
X32555826Y-198400414D02*
X32484398Y-198328985D01*
X32484398Y-198328985D02*
X32555826Y-198257557D01*
X32555826Y-198257557D02*
X32555826Y-198400414D01*
X34341541Y-197828985D02*
X34412969Y-197757557D01*
X34412969Y-197757557D02*
X34555827Y-197686128D01*
X34555827Y-197686128D02*
X34912969Y-197686128D01*
X34912969Y-197686128D02*
X35055827Y-197757557D01*
X35055827Y-197757557D02*
X35127255Y-197828985D01*
X35127255Y-197828985D02*
X35198684Y-197971842D01*
X35198684Y-197971842D02*
X35198684Y-198114700D01*
X35198684Y-198114700D02*
X35127255Y-198328985D01*
X35127255Y-198328985D02*
X34270112Y-199186128D01*
X34270112Y-199186128D02*
X35198684Y-199186128D01*
X36127255Y-197686128D02*
X36270112Y-197686128D01*
X36270112Y-197686128D02*
X36412969Y-197757557D01*
X36412969Y-197757557D02*
X36484398Y-197828985D01*
X36484398Y-197828985D02*
X36555826Y-197971842D01*
X36555826Y-197971842D02*
X36627255Y-198257557D01*
X36627255Y-198257557D02*
X36627255Y-198614700D01*
X36627255Y-198614700D02*
X36555826Y-198900414D01*
X36555826Y-198900414D02*
X36484398Y-199043271D01*
X36484398Y-199043271D02*
X36412969Y-199114700D01*
X36412969Y-199114700D02*
X36270112Y-199186128D01*
X36270112Y-199186128D02*
X36127255Y-199186128D01*
X36127255Y-199186128D02*
X35984398Y-199114700D01*
X35984398Y-199114700D02*
X35912969Y-199043271D01*
X35912969Y-199043271D02*
X35841540Y-198900414D01*
X35841540Y-198900414D02*
X35770112Y-198614700D01*
X35770112Y-198614700D02*
X35770112Y-198257557D01*
X35770112Y-198257557D02*
X35841540Y-197971842D01*
X35841540Y-197971842D02*
X35912969Y-197828985D01*
X35912969Y-197828985D02*
X35984398Y-197757557D01*
X35984398Y-197757557D02*
X36127255Y-197686128D01*
X37198683Y-197828985D02*
X37270111Y-197757557D01*
X37270111Y-197757557D02*
X37412969Y-197686128D01*
X37412969Y-197686128D02*
X37770111Y-197686128D01*
X37770111Y-197686128D02*
X37912969Y-197757557D01*
X37912969Y-197757557D02*
X37984397Y-197828985D01*
X37984397Y-197828985D02*
X38055826Y-197971842D01*
X38055826Y-197971842D02*
X38055826Y-198114700D01*
X38055826Y-198114700D02*
X37984397Y-198328985D01*
X37984397Y-198328985D02*
X37127254Y-199186128D01*
X37127254Y-199186128D02*
X38055826Y-199186128D01*
X39412968Y-197686128D02*
X38698682Y-197686128D01*
X38698682Y-197686128D02*
X38627254Y-198400414D01*
X38627254Y-198400414D02*
X38698682Y-198328985D01*
X38698682Y-198328985D02*
X38841540Y-198257557D01*
X38841540Y-198257557D02*
X39198682Y-198257557D01*
X39198682Y-198257557D02*
X39341540Y-198328985D01*
X39341540Y-198328985D02*
X39412968Y-198400414D01*
X39412968Y-198400414D02*
X39484397Y-198543271D01*
X39484397Y-198543271D02*
X39484397Y-198900414D01*
X39484397Y-198900414D02*
X39412968Y-199043271D01*
X39412968Y-199043271D02*
X39341540Y-199114700D01*
X39341540Y-199114700D02*
X39198682Y-199186128D01*
X39198682Y-199186128D02*
X38841540Y-199186128D01*
X38841540Y-199186128D02*
X38698682Y-199114700D01*
X38698682Y-199114700D02*
X38627254Y-199043271D01*
X40127253Y-198614700D02*
X41270111Y-198614700D01*
X42270111Y-197686128D02*
X42412968Y-197686128D01*
X42412968Y-197686128D02*
X42555825Y-197757557D01*
X42555825Y-197757557D02*
X42627254Y-197828985D01*
X42627254Y-197828985D02*
X42698682Y-197971842D01*
X42698682Y-197971842D02*
X42770111Y-198257557D01*
X42770111Y-198257557D02*
X42770111Y-198614700D01*
X42770111Y-198614700D02*
X42698682Y-198900414D01*
X42698682Y-198900414D02*
X42627254Y-199043271D01*
X42627254Y-199043271D02*
X42555825Y-199114700D01*
X42555825Y-199114700D02*
X42412968Y-199186128D01*
X42412968Y-199186128D02*
X42270111Y-199186128D01*
X42270111Y-199186128D02*
X42127254Y-199114700D01*
X42127254Y-199114700D02*
X42055825Y-199043271D01*
X42055825Y-199043271D02*
X41984396Y-198900414D01*
X41984396Y-198900414D02*
X41912968Y-198614700D01*
X41912968Y-198614700D02*
X41912968Y-198257557D01*
X41912968Y-198257557D02*
X41984396Y-197971842D01*
X41984396Y-197971842D02*
X42055825Y-197828985D01*
X42055825Y-197828985D02*
X42127254Y-197757557D01*
X42127254Y-197757557D02*
X42270111Y-197686128D01*
X43270110Y-197686128D02*
X44270110Y-197686128D01*
X44270110Y-197686128D02*
X43627253Y-199186128D01*
X44841538Y-198614700D02*
X45984396Y-198614700D01*
X46627253Y-197828985D02*
X46698681Y-197757557D01*
X46698681Y-197757557D02*
X46841539Y-197686128D01*
X46841539Y-197686128D02*
X47198681Y-197686128D01*
X47198681Y-197686128D02*
X47341539Y-197757557D01*
X47341539Y-197757557D02*
X47412967Y-197828985D01*
X47412967Y-197828985D02*
X47484396Y-197971842D01*
X47484396Y-197971842D02*
X47484396Y-198114700D01*
X47484396Y-198114700D02*
X47412967Y-198328985D01*
X47412967Y-198328985D02*
X46555824Y-199186128D01*
X46555824Y-199186128D02*
X47484396Y-199186128D01*
X48198681Y-199186128D02*
X48484395Y-199186128D01*
X48484395Y-199186128D02*
X48627252Y-199114700D01*
X48627252Y-199114700D02*
X48698681Y-199043271D01*
X48698681Y-199043271D02*
X48841538Y-198828985D01*
X48841538Y-198828985D02*
X48912967Y-198543271D01*
X48912967Y-198543271D02*
X48912967Y-197971842D01*
X48912967Y-197971842D02*
X48841538Y-197828985D01*
X48841538Y-197828985D02*
X48770110Y-197757557D01*
X48770110Y-197757557D02*
X48627252Y-197686128D01*
X48627252Y-197686128D02*
X48341538Y-197686128D01*
X48341538Y-197686128D02*
X48198681Y-197757557D01*
X48198681Y-197757557D02*
X48127252Y-197828985D01*
X48127252Y-197828985D02*
X48055824Y-197971842D01*
X48055824Y-197971842D02*
X48055824Y-198328985D01*
X48055824Y-198328985D02*
X48127252Y-198471842D01*
X48127252Y-198471842D02*
X48198681Y-198543271D01*
X48198681Y-198543271D02*
X48341538Y-198614700D01*
X48341538Y-198614700D02*
X48627252Y-198614700D01*
X48627252Y-198614700D02*
X48770110Y-198543271D01*
X48770110Y-198543271D02*
X48841538Y-198471842D01*
X48841538Y-198471842D02*
X48912967Y-198328985D01*
D10*
D11*
X4100000Y-199900000D02*
X112100000Y-199900000D01*
D10*
D11*
X5555826Y-201986128D02*
X5555826Y-200486128D01*
X6412969Y-201986128D02*
X5770112Y-201128985D01*
X6412969Y-200486128D02*
X5555826Y-201343271D01*
X7055826Y-201986128D02*
X7055826Y-200986128D01*
X7055826Y-200486128D02*
X6984398Y-200557557D01*
X6984398Y-200557557D02*
X7055826Y-200628985D01*
X7055826Y-200628985D02*
X7127255Y-200557557D01*
X7127255Y-200557557D02*
X7055826Y-200486128D01*
X7055826Y-200486128D02*
X7055826Y-200628985D01*
X8627255Y-201843271D02*
X8555827Y-201914700D01*
X8555827Y-201914700D02*
X8341541Y-201986128D01*
X8341541Y-201986128D02*
X8198684Y-201986128D01*
X8198684Y-201986128D02*
X7984398Y-201914700D01*
X7984398Y-201914700D02*
X7841541Y-201771842D01*
X7841541Y-201771842D02*
X7770112Y-201628985D01*
X7770112Y-201628985D02*
X7698684Y-201343271D01*
X7698684Y-201343271D02*
X7698684Y-201128985D01*
X7698684Y-201128985D02*
X7770112Y-200843271D01*
X7770112Y-200843271D02*
X7841541Y-200700414D01*
X7841541Y-200700414D02*
X7984398Y-200557557D01*
X7984398Y-200557557D02*
X8198684Y-200486128D01*
X8198684Y-200486128D02*
X8341541Y-200486128D01*
X8341541Y-200486128D02*
X8555827Y-200557557D01*
X8555827Y-200557557D02*
X8627255Y-200628985D01*
X9912970Y-201986128D02*
X9912970Y-201200414D01*
X9912970Y-201200414D02*
X9841541Y-201057557D01*
X9841541Y-201057557D02*
X9698684Y-200986128D01*
X9698684Y-200986128D02*
X9412970Y-200986128D01*
X9412970Y-200986128D02*
X9270112Y-201057557D01*
X9912970Y-201914700D02*
X9770112Y-201986128D01*
X9770112Y-201986128D02*
X9412970Y-201986128D01*
X9412970Y-201986128D02*
X9270112Y-201914700D01*
X9270112Y-201914700D02*
X9198684Y-201771842D01*
X9198684Y-201771842D02*
X9198684Y-201628985D01*
X9198684Y-201628985D02*
X9270112Y-201486128D01*
X9270112Y-201486128D02*
X9412970Y-201414700D01*
X9412970Y-201414700D02*
X9770112Y-201414700D01*
X9770112Y-201414700D02*
X9912970Y-201343271D01*
X11270113Y-201986128D02*
X11270113Y-200486128D01*
X11270113Y-201914700D02*
X11127255Y-201986128D01*
X11127255Y-201986128D02*
X10841541Y-201986128D01*
X10841541Y-201986128D02*
X10698684Y-201914700D01*
X10698684Y-201914700D02*
X10627255Y-201843271D01*
X10627255Y-201843271D02*
X10555827Y-201700414D01*
X10555827Y-201700414D02*
X10555827Y-201271842D01*
X10555827Y-201271842D02*
X10627255Y-201128985D01*
X10627255Y-201128985D02*
X10698684Y-201057557D01*
X10698684Y-201057557D02*
X10841541Y-200986128D01*
X10841541Y-200986128D02*
X11127255Y-200986128D01*
X11127255Y-200986128D02*
X11270113Y-201057557D01*
X13127255Y-201200414D02*
X13627255Y-201200414D01*
X13841541Y-201986128D02*
X13127255Y-201986128D01*
X13127255Y-201986128D02*
X13127255Y-200486128D01*
X13127255Y-200486128D02*
X13841541Y-200486128D01*
X14484398Y-201843271D02*
X14555827Y-201914700D01*
X14555827Y-201914700D02*
X14484398Y-201986128D01*
X14484398Y-201986128D02*
X14412970Y-201914700D01*
X14412970Y-201914700D02*
X14484398Y-201843271D01*
X14484398Y-201843271D02*
X14484398Y-201986128D01*
X15198684Y-201986128D02*
X15198684Y-200486128D01*
X15198684Y-200486128D02*
X15555827Y-200486128D01*
X15555827Y-200486128D02*
X15770113Y-200557557D01*
X15770113Y-200557557D02*
X15912970Y-200700414D01*
X15912970Y-200700414D02*
X15984399Y-200843271D01*
X15984399Y-200843271D02*
X16055827Y-201128985D01*
X16055827Y-201128985D02*
X16055827Y-201343271D01*
X16055827Y-201343271D02*
X15984399Y-201628985D01*
X15984399Y-201628985D02*
X15912970Y-201771842D01*
X15912970Y-201771842D02*
X15770113Y-201914700D01*
X15770113Y-201914700D02*
X15555827Y-201986128D01*
X15555827Y-201986128D02*
X15198684Y-201986128D01*
X16698684Y-201843271D02*
X16770113Y-201914700D01*
X16770113Y-201914700D02*
X16698684Y-201986128D01*
X16698684Y-201986128D02*
X16627256Y-201914700D01*
X16627256Y-201914700D02*
X16698684Y-201843271D01*
X16698684Y-201843271D02*
X16698684Y-201986128D01*
X17341542Y-201557557D02*
X18055828Y-201557557D01*
X17198685Y-201986128D02*
X17698685Y-200486128D01*
X17698685Y-200486128D02*
X18198685Y-201986128D01*
X18698684Y-201843271D02*
X18770113Y-201914700D01*
X18770113Y-201914700D02*
X18698684Y-201986128D01*
X18698684Y-201986128D02*
X18627256Y-201914700D01*
X18627256Y-201914700D02*
X18698684Y-201843271D01*
X18698684Y-201843271D02*
X18698684Y-201986128D01*
X20627256Y-201986128D02*
X20912970Y-201986128D01*
X20912970Y-201986128D02*
X21055827Y-201914700D01*
X21055827Y-201914700D02*
X21127256Y-201843271D01*
X21127256Y-201843271D02*
X21270113Y-201628985D01*
X21270113Y-201628985D02*
X21341542Y-201343271D01*
X21341542Y-201343271D02*
X21341542Y-200771842D01*
X21341542Y-200771842D02*
X21270113Y-200628985D01*
X21270113Y-200628985D02*
X21198685Y-200557557D01*
X21198685Y-200557557D02*
X21055827Y-200486128D01*
X21055827Y-200486128D02*
X20770113Y-200486128D01*
X20770113Y-200486128D02*
X20627256Y-200557557D01*
X20627256Y-200557557D02*
X20555827Y-200628985D01*
X20555827Y-200628985D02*
X20484399Y-200771842D01*
X20484399Y-200771842D02*
X20484399Y-201128985D01*
X20484399Y-201128985D02*
X20555827Y-201271842D01*
X20555827Y-201271842D02*
X20627256Y-201343271D01*
X20627256Y-201343271D02*
X20770113Y-201414700D01*
X20770113Y-201414700D02*
X21055827Y-201414700D01*
X21055827Y-201414700D02*
X21198685Y-201343271D01*
X21198685Y-201343271D02*
X21270113Y-201271842D01*
X21270113Y-201271842D02*
X21341542Y-201128985D01*
X21984398Y-201843271D02*
X22055827Y-201914700D01*
X22055827Y-201914700D02*
X21984398Y-201986128D01*
X21984398Y-201986128D02*
X21912970Y-201914700D01*
X21912970Y-201914700D02*
X21984398Y-201843271D01*
X21984398Y-201843271D02*
X21984398Y-201986128D01*
X22984399Y-200486128D02*
X23127256Y-200486128D01*
X23127256Y-200486128D02*
X23270113Y-200557557D01*
X23270113Y-200557557D02*
X23341542Y-200628985D01*
X23341542Y-200628985D02*
X23412970Y-200771842D01*
X23412970Y-200771842D02*
X23484399Y-201057557D01*
X23484399Y-201057557D02*
X23484399Y-201414700D01*
X23484399Y-201414700D02*
X23412970Y-201700414D01*
X23412970Y-201700414D02*
X23341542Y-201843271D01*
X23341542Y-201843271D02*
X23270113Y-201914700D01*
X23270113Y-201914700D02*
X23127256Y-201986128D01*
X23127256Y-201986128D02*
X22984399Y-201986128D01*
X22984399Y-201986128D02*
X22841542Y-201914700D01*
X22841542Y-201914700D02*
X22770113Y-201843271D01*
X22770113Y-201843271D02*
X22698684Y-201700414D01*
X22698684Y-201700414D02*
X22627256Y-201414700D01*
X22627256Y-201414700D02*
X22627256Y-201057557D01*
X22627256Y-201057557D02*
X22698684Y-200771842D01*
X22698684Y-200771842D02*
X22770113Y-200628985D01*
X22770113Y-200628985D02*
X22841542Y-200557557D01*
X22841542Y-200557557D02*
X22984399Y-200486128D01*
X24127255Y-201843271D02*
X24198684Y-201914700D01*
X24198684Y-201914700D02*
X24127255Y-201986128D01*
X24127255Y-201986128D02*
X24055827Y-201914700D01*
X24055827Y-201914700D02*
X24127255Y-201843271D01*
X24127255Y-201843271D02*
X24127255Y-201986128D01*
X25627256Y-201986128D02*
X24770113Y-201986128D01*
X25198684Y-201986128D02*
X25198684Y-200486128D01*
X25198684Y-200486128D02*
X25055827Y-200700414D01*
X25055827Y-200700414D02*
X24912970Y-200843271D01*
X24912970Y-200843271D02*
X24770113Y-200914700D01*
D10*
D11*
X4100000Y-196900000D02*
X112100000Y-196900000D01*
D10*
D12*
X91511653Y-199178328D02*
X91011653Y-198464042D01*
X90654510Y-199178328D02*
X90654510Y-197678328D01*
X90654510Y-197678328D02*
X91225939Y-197678328D01*
X91225939Y-197678328D02*
X91368796Y-197749757D01*
X91368796Y-197749757D02*
X91440225Y-197821185D01*
X91440225Y-197821185D02*
X91511653Y-197964042D01*
X91511653Y-197964042D02*
X91511653Y-198178328D01*
X91511653Y-198178328D02*
X91440225Y-198321185D01*
X91440225Y-198321185D02*
X91368796Y-198392614D01*
X91368796Y-198392614D02*
X91225939Y-198464042D01*
X91225939Y-198464042D02*
X90654510Y-198464042D01*
X92725939Y-199106900D02*
X92583082Y-199178328D01*
X92583082Y-199178328D02*
X92297368Y-199178328D01*
X92297368Y-199178328D02*
X92154510Y-199106900D01*
X92154510Y-199106900D02*
X92083082Y-198964042D01*
X92083082Y-198964042D02*
X92083082Y-198392614D01*
X92083082Y-198392614D02*
X92154510Y-198249757D01*
X92154510Y-198249757D02*
X92297368Y-198178328D01*
X92297368Y-198178328D02*
X92583082Y-198178328D01*
X92583082Y-198178328D02*
X92725939Y-198249757D01*
X92725939Y-198249757D02*
X92797368Y-198392614D01*
X92797368Y-198392614D02*
X92797368Y-198535471D01*
X92797368Y-198535471D02*
X92083082Y-198678328D01*
X93297367Y-198178328D02*
X93654510Y-199178328D01*
X93654510Y-199178328D02*
X94011653Y-198178328D01*
X94583081Y-199035471D02*
X94654510Y-199106900D01*
X94654510Y-199106900D02*
X94583081Y-199178328D01*
X94583081Y-199178328D02*
X94511653Y-199106900D01*
X94511653Y-199106900D02*
X94583081Y-199035471D01*
X94583081Y-199035471D02*
X94583081Y-199178328D01*
X94583081Y-198249757D02*
X94654510Y-198321185D01*
X94654510Y-198321185D02*
X94583081Y-198392614D01*
X94583081Y-198392614D02*
X94511653Y-198321185D01*
X94511653Y-198321185D02*
X94583081Y-198249757D01*
X94583081Y-198249757D02*
X94583081Y-198392614D01*
X96368796Y-198749757D02*
X97083082Y-198749757D01*
X96225939Y-199178328D02*
X96725939Y-197678328D01*
X96725939Y-197678328D02*
X97225939Y-199178328D01*
X98511653Y-199178328D02*
X97654510Y-199178328D01*
X98083081Y-199178328D02*
X98083081Y-197678328D01*
X98083081Y-197678328D02*
X97940224Y-197892614D01*
X97940224Y-197892614D02*
X97797367Y-198035471D01*
X97797367Y-198035471D02*
X97654510Y-198106900D01*
D10*
D11*
X5484398Y-199114700D02*
X5698684Y-199186128D01*
X5698684Y-199186128D02*
X6055826Y-199186128D01*
X6055826Y-199186128D02*
X6198684Y-199114700D01*
X6198684Y-199114700D02*
X6270112Y-199043271D01*
X6270112Y-199043271D02*
X6341541Y-198900414D01*
X6341541Y-198900414D02*
X6341541Y-198757557D01*
X6341541Y-198757557D02*
X6270112Y-198614700D01*
X6270112Y-198614700D02*
X6198684Y-198543271D01*
X6198684Y-198543271D02*
X6055826Y-198471842D01*
X6055826Y-198471842D02*
X5770112Y-198400414D01*
X5770112Y-198400414D02*
X5627255Y-198328985D01*
X5627255Y-198328985D02*
X5555826Y-198257557D01*
X5555826Y-198257557D02*
X5484398Y-198114700D01*
X5484398Y-198114700D02*
X5484398Y-197971842D01*
X5484398Y-197971842D02*
X5555826Y-197828985D01*
X5555826Y-197828985D02*
X5627255Y-197757557D01*
X5627255Y-197757557D02*
X5770112Y-197686128D01*
X5770112Y-197686128D02*
X6127255Y-197686128D01*
X6127255Y-197686128D02*
X6341541Y-197757557D01*
X6984397Y-199186128D02*
X6984397Y-198186128D01*
X6984397Y-197686128D02*
X6912969Y-197757557D01*
X6912969Y-197757557D02*
X6984397Y-197828985D01*
X6984397Y-197828985D02*
X7055826Y-197757557D01*
X7055826Y-197757557D02*
X6984397Y-197686128D01*
X6984397Y-197686128D02*
X6984397Y-197828985D01*
X7555826Y-198186128D02*
X8341541Y-198186128D01*
X8341541Y-198186128D02*
X7555826Y-199186128D01*
X7555826Y-199186128D02*
X8341541Y-199186128D01*
X9484398Y-199114700D02*
X9341541Y-199186128D01*
X9341541Y-199186128D02*
X9055827Y-199186128D01*
X9055827Y-199186128D02*
X8912969Y-199114700D01*
X8912969Y-199114700D02*
X8841541Y-198971842D01*
X8841541Y-198971842D02*
X8841541Y-198400414D01*
X8841541Y-198400414D02*
X8912969Y-198257557D01*
X8912969Y-198257557D02*
X9055827Y-198186128D01*
X9055827Y-198186128D02*
X9341541Y-198186128D01*
X9341541Y-198186128D02*
X9484398Y-198257557D01*
X9484398Y-198257557D02*
X9555827Y-198400414D01*
X9555827Y-198400414D02*
X9555827Y-198543271D01*
X9555827Y-198543271D02*
X8841541Y-198686128D01*
X10198683Y-199043271D02*
X10270112Y-199114700D01*
X10270112Y-199114700D02*
X10198683Y-199186128D01*
X10198683Y-199186128D02*
X10127255Y-199114700D01*
X10127255Y-199114700D02*
X10198683Y-199043271D01*
X10198683Y-199043271D02*
X10198683Y-199186128D01*
X10198683Y-198257557D02*
X10270112Y-198328985D01*
X10270112Y-198328985D02*
X10198683Y-198400414D01*
X10198683Y-198400414D02*
X10127255Y-198328985D01*
X10127255Y-198328985D02*
X10198683Y-198257557D01*
X10198683Y-198257557D02*
X10198683Y-198400414D01*
X11984398Y-198757557D02*
X12698684Y-198757557D01*
X11841541Y-199186128D02*
X12341541Y-197686128D01*
X12341541Y-197686128D02*
X12841541Y-199186128D01*
D10*
D11*
X90555826Y-201986128D02*
X90555826Y-200486128D01*
X91912970Y-201986128D02*
X91912970Y-200486128D01*
X91912970Y-201914700D02*
X91770112Y-201986128D01*
X91770112Y-201986128D02*
X91484398Y-201986128D01*
X91484398Y-201986128D02*
X91341541Y-201914700D01*
X91341541Y-201914700D02*
X91270112Y-201843271D01*
X91270112Y-201843271D02*
X91198684Y-201700414D01*
X91198684Y-201700414D02*
X91198684Y-201271842D01*
X91198684Y-201271842D02*
X91270112Y-201128985D01*
X91270112Y-201128985D02*
X91341541Y-201057557D01*
X91341541Y-201057557D02*
X91484398Y-200986128D01*
X91484398Y-200986128D02*
X91770112Y-200986128D01*
X91770112Y-200986128D02*
X91912970Y-201057557D01*
X92627255Y-201843271D02*
X92698684Y-201914700D01*
X92698684Y-201914700D02*
X92627255Y-201986128D01*
X92627255Y-201986128D02*
X92555827Y-201914700D01*
X92555827Y-201914700D02*
X92627255Y-201843271D01*
X92627255Y-201843271D02*
X92627255Y-201986128D01*
X92627255Y-201057557D02*
X92698684Y-201128985D01*
X92698684Y-201128985D02*
X92627255Y-201200414D01*
X92627255Y-201200414D02*
X92555827Y-201128985D01*
X92555827Y-201128985D02*
X92627255Y-201057557D01*
X92627255Y-201057557D02*
X92627255Y-201200414D01*
X94698684Y-201128985D02*
X94555827Y-201057557D01*
X94555827Y-201057557D02*
X94484398Y-200986128D01*
X94484398Y-200986128D02*
X94412970Y-200843271D01*
X94412970Y-200843271D02*
X94412970Y-200771842D01*
X94412970Y-200771842D02*
X94484398Y-200628985D01*
X94484398Y-200628985D02*
X94555827Y-200557557D01*
X94555827Y-200557557D02*
X94698684Y-200486128D01*
X94698684Y-200486128D02*
X94984398Y-200486128D01*
X94984398Y-200486128D02*
X95127256Y-200557557D01*
X95127256Y-200557557D02*
X95198684Y-200628985D01*
X95198684Y-200628985D02*
X95270113Y-200771842D01*
X95270113Y-200771842D02*
X95270113Y-200843271D01*
X95270113Y-200843271D02*
X95198684Y-200986128D01*
X95198684Y-200986128D02*
X95127256Y-201057557D01*
X95127256Y-201057557D02*
X94984398Y-201128985D01*
X94984398Y-201128985D02*
X94698684Y-201128985D01*
X94698684Y-201128985D02*
X94555827Y-201200414D01*
X94555827Y-201200414D02*
X94484398Y-201271842D01*
X94484398Y-201271842D02*
X94412970Y-201414700D01*
X94412970Y-201414700D02*
X94412970Y-201700414D01*
X94412970Y-201700414D02*
X94484398Y-201843271D01*
X94484398Y-201843271D02*
X94555827Y-201914700D01*
X94555827Y-201914700D02*
X94698684Y-201986128D01*
X94698684Y-201986128D02*
X94984398Y-201986128D01*
X94984398Y-201986128D02*
X95127256Y-201914700D01*
X95127256Y-201914700D02*
X95198684Y-201843271D01*
X95198684Y-201843271D02*
X95270113Y-201700414D01*
X95270113Y-201700414D02*
X95270113Y-201414700D01*
X95270113Y-201414700D02*
X95198684Y-201271842D01*
X95198684Y-201271842D02*
X95127256Y-201200414D01*
X95127256Y-201200414D02*
X94984398Y-201128985D01*
X96984398Y-200414700D02*
X95698684Y-202343271D01*
X97555827Y-201986128D02*
X97841541Y-201986128D01*
X97841541Y-201986128D02*
X97984398Y-201914700D01*
X97984398Y-201914700D02*
X98055827Y-201843271D01*
X98055827Y-201843271D02*
X98198684Y-201628985D01*
X98198684Y-201628985D02*
X98270113Y-201343271D01*
X98270113Y-201343271D02*
X98270113Y-200771842D01*
X98270113Y-200771842D02*
X98198684Y-200628985D01*
X98198684Y-200628985D02*
X98127256Y-200557557D01*
X98127256Y-200557557D02*
X97984398Y-200486128D01*
X97984398Y-200486128D02*
X97698684Y-200486128D01*
X97698684Y-200486128D02*
X97555827Y-200557557D01*
X97555827Y-200557557D02*
X97484398Y-200628985D01*
X97484398Y-200628985D02*
X97412970Y-200771842D01*
X97412970Y-200771842D02*
X97412970Y-201128985D01*
X97412970Y-201128985D02*
X97484398Y-201271842D01*
X97484398Y-201271842D02*
X97555827Y-201343271D01*
X97555827Y-201343271D02*
X97698684Y-201414700D01*
X97698684Y-201414700D02*
X97984398Y-201414700D01*
X97984398Y-201414700D02*
X98127256Y-201343271D01*
X98127256Y-201343271D02*
X98198684Y-201271842D01*
X98198684Y-201271842D02*
X98270113Y-201128985D01*
D10*
D11*
X4100000Y-192900000D02*
X112100000Y-192900000D01*
D10*
D13*
X5791728Y-193604438D02*
X6934585Y-193604438D01*
X6113157Y-195604438D02*
X6363157Y-193604438D01*
X7351252Y-195604438D02*
X7517919Y-194271104D01*
X7601252Y-193604438D02*
X7494109Y-193699676D01*
X7494109Y-193699676D02*
X7577443Y-193794914D01*
X7577443Y-193794914D02*
X7684586Y-193699676D01*
X7684586Y-193699676D02*
X7601252Y-193604438D01*
X7601252Y-193604438D02*
X7577443Y-193794914D01*
X8184586Y-194271104D02*
X8946490Y-194271104D01*
X8553633Y-193604438D02*
X8339348Y-195318723D01*
X8339348Y-195318723D02*
X8410776Y-195509200D01*
X8410776Y-195509200D02*
X8589348Y-195604438D01*
X8589348Y-195604438D02*
X8779824Y-195604438D01*
X9732205Y-195604438D02*
X9553633Y-195509200D01*
X9553633Y-195509200D02*
X9482205Y-195318723D01*
X9482205Y-195318723D02*
X9696490Y-193604438D01*
X11267919Y-195509200D02*
X11065538Y-195604438D01*
X11065538Y-195604438D02*
X10684585Y-195604438D01*
X10684585Y-195604438D02*
X10506014Y-195509200D01*
X10506014Y-195509200D02*
X10434585Y-195318723D01*
X10434585Y-195318723D02*
X10529824Y-194556819D01*
X10529824Y-194556819D02*
X10648871Y-194366342D01*
X10648871Y-194366342D02*
X10851252Y-194271104D01*
X10851252Y-194271104D02*
X11232204Y-194271104D01*
X11232204Y-194271104D02*
X11410776Y-194366342D01*
X11410776Y-194366342D02*
X11482204Y-194556819D01*
X11482204Y-194556819D02*
X11458395Y-194747295D01*
X11458395Y-194747295D02*
X10482204Y-194937771D01*
X12232205Y-195413961D02*
X12315538Y-195509200D01*
X12315538Y-195509200D02*
X12208395Y-195604438D01*
X12208395Y-195604438D02*
X12125062Y-195509200D01*
X12125062Y-195509200D02*
X12232205Y-195413961D01*
X12232205Y-195413961D02*
X12208395Y-195604438D01*
X12363157Y-194366342D02*
X12446490Y-194461580D01*
X12446490Y-194461580D02*
X12339348Y-194556819D01*
X12339348Y-194556819D02*
X12256014Y-194461580D01*
X12256014Y-194461580D02*
X12363157Y-194366342D01*
X12363157Y-194366342D02*
X12339348Y-194556819D01*
X14684586Y-195604438D02*
X14934586Y-193604438D01*
X14815539Y-194556819D02*
X15958396Y-194556819D01*
X15827443Y-195604438D02*
X16077443Y-193604438D01*
X16779824Y-195604438D02*
X17029824Y-193604438D01*
X17029824Y-193604438D02*
X17517919Y-195033009D01*
X17517919Y-195033009D02*
X18363158Y-193604438D01*
X18363158Y-193604438D02*
X18113158Y-195604438D01*
X19065538Y-195604438D02*
X19315538Y-193604438D01*
X22339348Y-194556819D02*
X22613158Y-194652057D01*
X22613158Y-194652057D02*
X22696491Y-194747295D01*
X22696491Y-194747295D02*
X22767920Y-194937771D01*
X22767920Y-194937771D02*
X22732205Y-195223485D01*
X22732205Y-195223485D02*
X22613158Y-195413961D01*
X22613158Y-195413961D02*
X22506015Y-195509200D01*
X22506015Y-195509200D02*
X22303634Y-195604438D01*
X22303634Y-195604438D02*
X21541729Y-195604438D01*
X21541729Y-195604438D02*
X21791729Y-193604438D01*
X21791729Y-193604438D02*
X22458396Y-193604438D01*
X22458396Y-193604438D02*
X22636967Y-193699676D01*
X22636967Y-193699676D02*
X22720301Y-193794914D01*
X22720301Y-193794914D02*
X22791729Y-193985390D01*
X22791729Y-193985390D02*
X22767920Y-194175866D01*
X22767920Y-194175866D02*
X22648872Y-194366342D01*
X22648872Y-194366342D02*
X22541729Y-194461580D01*
X22541729Y-194461580D02*
X22339348Y-194556819D01*
X22339348Y-194556819D02*
X21672682Y-194556819D01*
X23827444Y-195604438D02*
X23648872Y-195509200D01*
X23648872Y-195509200D02*
X23565539Y-195413961D01*
X23565539Y-195413961D02*
X23494110Y-195223485D01*
X23494110Y-195223485D02*
X23565539Y-194652057D01*
X23565539Y-194652057D02*
X23684586Y-194461580D01*
X23684586Y-194461580D02*
X23791729Y-194366342D01*
X23791729Y-194366342D02*
X23994110Y-194271104D01*
X23994110Y-194271104D02*
X24279824Y-194271104D01*
X24279824Y-194271104D02*
X24458396Y-194366342D01*
X24458396Y-194366342D02*
X24541729Y-194461580D01*
X24541729Y-194461580D02*
X24613158Y-194652057D01*
X24613158Y-194652057D02*
X24541729Y-195223485D01*
X24541729Y-195223485D02*
X24422682Y-195413961D01*
X24422682Y-195413961D02*
X24315539Y-195509200D01*
X24315539Y-195509200D02*
X24113158Y-195604438D01*
X24113158Y-195604438D02*
X23827444Y-195604438D01*
X25232206Y-194271104D02*
X25994110Y-194271104D01*
X25601253Y-193604438D02*
X25386968Y-195318723D01*
X25386968Y-195318723D02*
X25458396Y-195509200D01*
X25458396Y-195509200D02*
X25636968Y-195604438D01*
X25636968Y-195604438D02*
X25827444Y-195604438D01*
X26375063Y-194271104D02*
X27136967Y-194271104D01*
X26744110Y-193604438D02*
X26529825Y-195318723D01*
X26529825Y-195318723D02*
X26601253Y-195509200D01*
X26601253Y-195509200D02*
X26779825Y-195604438D01*
X26779825Y-195604438D02*
X26970301Y-195604438D01*
X27922682Y-195604438D02*
X27744110Y-195509200D01*
X27744110Y-195509200D02*
X27660777Y-195413961D01*
X27660777Y-195413961D02*
X27589348Y-195223485D01*
X27589348Y-195223485D02*
X27660777Y-194652057D01*
X27660777Y-194652057D02*
X27779824Y-194461580D01*
X27779824Y-194461580D02*
X27886967Y-194366342D01*
X27886967Y-194366342D02*
X28089348Y-194271104D01*
X28089348Y-194271104D02*
X28375062Y-194271104D01*
X28375062Y-194271104D02*
X28553634Y-194366342D01*
X28553634Y-194366342D02*
X28636967Y-194461580D01*
X28636967Y-194461580D02*
X28708396Y-194652057D01*
X28708396Y-194652057D02*
X28636967Y-195223485D01*
X28636967Y-195223485D02*
X28517920Y-195413961D01*
X28517920Y-195413961D02*
X28410777Y-195509200D01*
X28410777Y-195509200D02*
X28208396Y-195604438D01*
X28208396Y-195604438D02*
X27922682Y-195604438D01*
X29446491Y-195604438D02*
X29613158Y-194271104D01*
X29589348Y-194461580D02*
X29696491Y-194366342D01*
X29696491Y-194366342D02*
X29898872Y-194271104D01*
X29898872Y-194271104D02*
X30184586Y-194271104D01*
X30184586Y-194271104D02*
X30363158Y-194366342D01*
X30363158Y-194366342D02*
X30434586Y-194556819D01*
X30434586Y-194556819D02*
X30303634Y-195604438D01*
X30434586Y-194556819D02*
X30553634Y-194366342D01*
X30553634Y-194366342D02*
X30756015Y-194271104D01*
X30756015Y-194271104D02*
X31041729Y-194271104D01*
X31041729Y-194271104D02*
X31220301Y-194366342D01*
X31220301Y-194366342D02*
X31291729Y-194556819D01*
X31291729Y-194556819D02*
X31160777Y-195604438D01*
X33636968Y-195604438D02*
X33886968Y-193604438D01*
X33886968Y-193604438D02*
X34648873Y-193604438D01*
X34648873Y-193604438D02*
X34827444Y-193699676D01*
X34827444Y-193699676D02*
X34910778Y-193794914D01*
X34910778Y-193794914D02*
X34982206Y-193985390D01*
X34982206Y-193985390D02*
X34946492Y-194271104D01*
X34946492Y-194271104D02*
X34827444Y-194461580D01*
X34827444Y-194461580D02*
X34720302Y-194556819D01*
X34720302Y-194556819D02*
X34517921Y-194652057D01*
X34517921Y-194652057D02*
X33756016Y-194652057D01*
X36803635Y-195413961D02*
X36696492Y-195509200D01*
X36696492Y-195509200D02*
X36398873Y-195604438D01*
X36398873Y-195604438D02*
X36208397Y-195604438D01*
X36208397Y-195604438D02*
X35934587Y-195509200D01*
X35934587Y-195509200D02*
X35767921Y-195318723D01*
X35767921Y-195318723D02*
X35696492Y-195128247D01*
X35696492Y-195128247D02*
X35648873Y-194747295D01*
X35648873Y-194747295D02*
X35684587Y-194461580D01*
X35684587Y-194461580D02*
X35827444Y-194080628D01*
X35827444Y-194080628D02*
X35946492Y-193890152D01*
X35946492Y-193890152D02*
X36160778Y-193699676D01*
X36160778Y-193699676D02*
X36458397Y-193604438D01*
X36458397Y-193604438D02*
X36648873Y-193604438D01*
X36648873Y-193604438D02*
X36922683Y-193699676D01*
X36922683Y-193699676D02*
X37006016Y-193794914D01*
X38434587Y-194556819D02*
X38708397Y-194652057D01*
X38708397Y-194652057D02*
X38791730Y-194747295D01*
X38791730Y-194747295D02*
X38863159Y-194937771D01*
X38863159Y-194937771D02*
X38827444Y-195223485D01*
X38827444Y-195223485D02*
X38708397Y-195413961D01*
X38708397Y-195413961D02*
X38601254Y-195509200D01*
X38601254Y-195509200D02*
X38398873Y-195604438D01*
X38398873Y-195604438D02*
X37636968Y-195604438D01*
X37636968Y-195604438D02*
X37886968Y-193604438D01*
X37886968Y-193604438D02*
X38553635Y-193604438D01*
X38553635Y-193604438D02*
X38732206Y-193699676D01*
X38732206Y-193699676D02*
X38815540Y-193794914D01*
X38815540Y-193794914D02*
X38886968Y-193985390D01*
X38886968Y-193985390D02*
X38863159Y-194175866D01*
X38863159Y-194175866D02*
X38744111Y-194366342D01*
X38744111Y-194366342D02*
X38636968Y-194461580D01*
X38636968Y-194461580D02*
X38434587Y-194556819D01*
X38434587Y-194556819D02*
X37767921Y-194556819D01*
D10*
D11*
X6055826Y-191000414D02*
X5555826Y-191000414D01*
X5555826Y-191786128D02*
X5555826Y-190286128D01*
X5555826Y-190286128D02*
X6270112Y-190286128D01*
X6841540Y-191786128D02*
X6841540Y-190786128D01*
X6841540Y-190286128D02*
X6770112Y-190357557D01*
X6770112Y-190357557D02*
X6841540Y-190428985D01*
X6841540Y-190428985D02*
X6912969Y-190357557D01*
X6912969Y-190357557D02*
X6841540Y-190286128D01*
X6841540Y-190286128D02*
X6841540Y-190428985D01*
X7770112Y-191786128D02*
X7627255Y-191714700D01*
X7627255Y-191714700D02*
X7555826Y-191571842D01*
X7555826Y-191571842D02*
X7555826Y-190286128D01*
X8912969Y-191714700D02*
X8770112Y-191786128D01*
X8770112Y-191786128D02*
X8484398Y-191786128D01*
X8484398Y-191786128D02*
X8341540Y-191714700D01*
X8341540Y-191714700D02*
X8270112Y-191571842D01*
X8270112Y-191571842D02*
X8270112Y-191000414D01*
X8270112Y-191000414D02*
X8341540Y-190857557D01*
X8341540Y-190857557D02*
X8484398Y-190786128D01*
X8484398Y-190786128D02*
X8770112Y-190786128D01*
X8770112Y-190786128D02*
X8912969Y-190857557D01*
X8912969Y-190857557D02*
X8984398Y-191000414D01*
X8984398Y-191000414D02*
X8984398Y-191143271D01*
X8984398Y-191143271D02*
X8270112Y-191286128D01*
X9627254Y-191643271D02*
X9698683Y-191714700D01*
X9698683Y-191714700D02*
X9627254Y-191786128D01*
X9627254Y-191786128D02*
X9555826Y-191714700D01*
X9555826Y-191714700D02*
X9627254Y-191643271D01*
X9627254Y-191643271D02*
X9627254Y-191786128D01*
X9627254Y-190857557D02*
X9698683Y-190928985D01*
X9698683Y-190928985D02*
X9627254Y-191000414D01*
X9627254Y-191000414D02*
X9555826Y-190928985D01*
X9555826Y-190928985D02*
X9627254Y-190857557D01*
X9627254Y-190857557D02*
X9627254Y-191000414D01*
X11484397Y-191786128D02*
X11484397Y-190286128D01*
X11484397Y-190857557D02*
X11627255Y-190786128D01*
X11627255Y-190786128D02*
X11912969Y-190786128D01*
X11912969Y-190786128D02*
X12055826Y-190857557D01*
X12055826Y-190857557D02*
X12127255Y-190928985D01*
X12127255Y-190928985D02*
X12198683Y-191071842D01*
X12198683Y-191071842D02*
X12198683Y-191500414D01*
X12198683Y-191500414D02*
X12127255Y-191643271D01*
X12127255Y-191643271D02*
X12055826Y-191714700D01*
X12055826Y-191714700D02*
X11912969Y-191786128D01*
X11912969Y-191786128D02*
X11627255Y-191786128D01*
X11627255Y-191786128D02*
X11484397Y-191714700D01*
X13055826Y-191786128D02*
X12912969Y-191714700D01*
X12912969Y-191714700D02*
X12841540Y-191643271D01*
X12841540Y-191643271D02*
X12770112Y-191500414D01*
X12770112Y-191500414D02*
X12770112Y-191071842D01*
X12770112Y-191071842D02*
X12841540Y-190928985D01*
X12841540Y-190928985D02*
X12912969Y-190857557D01*
X12912969Y-190857557D02*
X13055826Y-190786128D01*
X13055826Y-190786128D02*
X13270112Y-190786128D01*
X13270112Y-190786128D02*
X13412969Y-190857557D01*
X13412969Y-190857557D02*
X13484398Y-190928985D01*
X13484398Y-190928985D02*
X13555826Y-191071842D01*
X13555826Y-191071842D02*
X13555826Y-191500414D01*
X13555826Y-191500414D02*
X13484398Y-191643271D01*
X13484398Y-191643271D02*
X13412969Y-191714700D01*
X13412969Y-191714700D02*
X13270112Y-191786128D01*
X13270112Y-191786128D02*
X13055826Y-191786128D01*
X13984398Y-190786128D02*
X14555826Y-190786128D01*
X14198683Y-190286128D02*
X14198683Y-191571842D01*
X14198683Y-191571842D02*
X14270112Y-191714700D01*
X14270112Y-191714700D02*
X14412969Y-191786128D01*
X14412969Y-191786128D02*
X14555826Y-191786128D01*
X14841541Y-190786128D02*
X15412969Y-190786128D01*
X15055826Y-190286128D02*
X15055826Y-191571842D01*
X15055826Y-191571842D02*
X15127255Y-191714700D01*
X15127255Y-191714700D02*
X15270112Y-191786128D01*
X15270112Y-191786128D02*
X15412969Y-191786128D01*
X16127255Y-191786128D02*
X15984398Y-191714700D01*
X15984398Y-191714700D02*
X15912969Y-191643271D01*
X15912969Y-191643271D02*
X15841541Y-191500414D01*
X15841541Y-191500414D02*
X15841541Y-191071842D01*
X15841541Y-191071842D02*
X15912969Y-190928985D01*
X15912969Y-190928985D02*
X15984398Y-190857557D01*
X15984398Y-190857557D02*
X16127255Y-190786128D01*
X16127255Y-190786128D02*
X16341541Y-190786128D01*
X16341541Y-190786128D02*
X16484398Y-190857557D01*
X16484398Y-190857557D02*
X16555827Y-190928985D01*
X16555827Y-190928985D02*
X16627255Y-191071842D01*
X16627255Y-191071842D02*
X16627255Y-191500414D01*
X16627255Y-191500414D02*
X16555827Y-191643271D01*
X16555827Y-191643271D02*
X16484398Y-191714700D01*
X16484398Y-191714700D02*
X16341541Y-191786128D01*
X16341541Y-191786128D02*
X16127255Y-191786128D01*
X17270112Y-191786128D02*
X17270112Y-190786128D01*
X17270112Y-190928985D02*
X17341541Y-190857557D01*
X17341541Y-190857557D02*
X17484398Y-190786128D01*
X17484398Y-190786128D02*
X17698684Y-190786128D01*
X17698684Y-190786128D02*
X17841541Y-190857557D01*
X17841541Y-190857557D02*
X17912970Y-191000414D01*
X17912970Y-191000414D02*
X17912970Y-191786128D01*
X17912970Y-191000414D02*
X17984398Y-190857557D01*
X17984398Y-190857557D02*
X18127255Y-190786128D01*
X18127255Y-190786128D02*
X18341541Y-190786128D01*
X18341541Y-190786128D02*
X18484398Y-190857557D01*
X18484398Y-190857557D02*
X18555827Y-191000414D01*
X18555827Y-191000414D02*
X18555827Y-191786128D01*
X19270112Y-191643271D02*
X19341541Y-191714700D01*
X19341541Y-191714700D02*
X19270112Y-191786128D01*
X19270112Y-191786128D02*
X19198684Y-191714700D01*
X19198684Y-191714700D02*
X19270112Y-191643271D01*
X19270112Y-191643271D02*
X19270112Y-191786128D01*
X19984398Y-191786128D02*
X19984398Y-190286128D01*
X20127256Y-191214700D02*
X20555827Y-191786128D01*
X20555827Y-190786128D02*
X19984398Y-191357557D01*
X21198684Y-191786128D02*
X21198684Y-190786128D01*
X21198684Y-190286128D02*
X21127256Y-190357557D01*
X21127256Y-190357557D02*
X21198684Y-190428985D01*
X21198684Y-190428985D02*
X21270113Y-190357557D01*
X21270113Y-190357557D02*
X21198684Y-190286128D01*
X21198684Y-190286128D02*
X21198684Y-190428985D01*
X22555828Y-191714700D02*
X22412970Y-191786128D01*
X22412970Y-191786128D02*
X22127256Y-191786128D01*
X22127256Y-191786128D02*
X21984399Y-191714700D01*
X21984399Y-191714700D02*
X21912970Y-191643271D01*
X21912970Y-191643271D02*
X21841542Y-191500414D01*
X21841542Y-191500414D02*
X21841542Y-191071842D01*
X21841542Y-191071842D02*
X21912970Y-190928985D01*
X21912970Y-190928985D02*
X21984399Y-190857557D01*
X21984399Y-190857557D02*
X22127256Y-190786128D01*
X22127256Y-190786128D02*
X22412970Y-190786128D01*
X22412970Y-190786128D02*
X22555828Y-190857557D01*
X23841542Y-191786128D02*
X23841542Y-191000414D01*
X23841542Y-191000414D02*
X23770113Y-190857557D01*
X23770113Y-190857557D02*
X23627256Y-190786128D01*
X23627256Y-190786128D02*
X23341542Y-190786128D01*
X23341542Y-190786128D02*
X23198684Y-190857557D01*
X23841542Y-191714700D02*
X23698684Y-191786128D01*
X23698684Y-191786128D02*
X23341542Y-191786128D01*
X23341542Y-191786128D02*
X23198684Y-191714700D01*
X23198684Y-191714700D02*
X23127256Y-191571842D01*
X23127256Y-191571842D02*
X23127256Y-191428985D01*
X23127256Y-191428985D02*
X23198684Y-191286128D01*
X23198684Y-191286128D02*
X23341542Y-191214700D01*
X23341542Y-191214700D02*
X23698684Y-191214700D01*
X23698684Y-191214700D02*
X23841542Y-191143271D01*
X25198685Y-191786128D02*
X25198685Y-190286128D01*
X25198685Y-191714700D02*
X25055827Y-191786128D01*
X25055827Y-191786128D02*
X24770113Y-191786128D01*
X24770113Y-191786128D02*
X24627256Y-191714700D01*
X24627256Y-191714700D02*
X24555827Y-191643271D01*
X24555827Y-191643271D02*
X24484399Y-191500414D01*
X24484399Y-191500414D02*
X24484399Y-191071842D01*
X24484399Y-191071842D02*
X24555827Y-190928985D01*
X24555827Y-190928985D02*
X24627256Y-190857557D01*
X24627256Y-190857557D02*
X24770113Y-190786128D01*
X24770113Y-190786128D02*
X25055827Y-190786128D01*
X25055827Y-190786128D02*
X25198685Y-190857557D01*
X25555828Y-191928985D02*
X26698685Y-191928985D01*
X27055827Y-190786128D02*
X27055827Y-192286128D01*
X27055827Y-190857557D02*
X27198685Y-190786128D01*
X27198685Y-190786128D02*
X27484399Y-190786128D01*
X27484399Y-190786128D02*
X27627256Y-190857557D01*
X27627256Y-190857557D02*
X27698685Y-190928985D01*
X27698685Y-190928985D02*
X27770113Y-191071842D01*
X27770113Y-191071842D02*
X27770113Y-191500414D01*
X27770113Y-191500414D02*
X27698685Y-191643271D01*
X27698685Y-191643271D02*
X27627256Y-191714700D01*
X27627256Y-191714700D02*
X27484399Y-191786128D01*
X27484399Y-191786128D02*
X27198685Y-191786128D01*
X27198685Y-191786128D02*
X27055827Y-191714700D01*
X29055828Y-191714700D02*
X28912970Y-191786128D01*
X28912970Y-191786128D02*
X28627256Y-191786128D01*
X28627256Y-191786128D02*
X28484399Y-191714700D01*
X28484399Y-191714700D02*
X28412970Y-191643271D01*
X28412970Y-191643271D02*
X28341542Y-191500414D01*
X28341542Y-191500414D02*
X28341542Y-191071842D01*
X28341542Y-191071842D02*
X28412970Y-190928985D01*
X28412970Y-190928985D02*
X28484399Y-190857557D01*
X28484399Y-190857557D02*
X28627256Y-190786128D01*
X28627256Y-190786128D02*
X28912970Y-190786128D01*
X28912970Y-190786128D02*
X29055828Y-190857557D01*
X29698684Y-191786128D02*
X29698684Y-190286128D01*
X29698684Y-190857557D02*
X29841542Y-190786128D01*
X29841542Y-190786128D02*
X30127256Y-190786128D01*
X30127256Y-190786128D02*
X30270113Y-190857557D01*
X30270113Y-190857557D02*
X30341542Y-190928985D01*
X30341542Y-190928985D02*
X30412970Y-191071842D01*
X30412970Y-191071842D02*
X30412970Y-191500414D01*
X30412970Y-191500414D02*
X30341542Y-191643271D01*
X30341542Y-191643271D02*
X30270113Y-191714700D01*
X30270113Y-191714700D02*
X30127256Y-191786128D01*
X30127256Y-191786128D02*
X29841542Y-191786128D01*
X29841542Y-191786128D02*
X29698684Y-191714700D01*
D10*
D11*
X4100000Y-186900000D02*
X112100000Y-186900000D01*
D10*
D11*
X5484398Y-189014700D02*
X5698684Y-189086128D01*
X5698684Y-189086128D02*
X6055826Y-189086128D01*
X6055826Y-189086128D02*
X6198684Y-189014700D01*
X6198684Y-189014700D02*
X6270112Y-188943271D01*
X6270112Y-188943271D02*
X6341541Y-188800414D01*
X6341541Y-188800414D02*
X6341541Y-188657557D01*
X6341541Y-188657557D02*
X6270112Y-188514700D01*
X6270112Y-188514700D02*
X6198684Y-188443271D01*
X6198684Y-188443271D02*
X6055826Y-188371842D01*
X6055826Y-188371842D02*
X5770112Y-188300414D01*
X5770112Y-188300414D02*
X5627255Y-188228985D01*
X5627255Y-188228985D02*
X5555826Y-188157557D01*
X5555826Y-188157557D02*
X5484398Y-188014700D01*
X5484398Y-188014700D02*
X5484398Y-187871842D01*
X5484398Y-187871842D02*
X5555826Y-187728985D01*
X5555826Y-187728985D02*
X5627255Y-187657557D01*
X5627255Y-187657557D02*
X5770112Y-187586128D01*
X5770112Y-187586128D02*
X6127255Y-187586128D01*
X6127255Y-187586128D02*
X6341541Y-187657557D01*
X6984397Y-189086128D02*
X6984397Y-187586128D01*
X7627255Y-189086128D02*
X7627255Y-188300414D01*
X7627255Y-188300414D02*
X7555826Y-188157557D01*
X7555826Y-188157557D02*
X7412969Y-188086128D01*
X7412969Y-188086128D02*
X7198683Y-188086128D01*
X7198683Y-188086128D02*
X7055826Y-188157557D01*
X7055826Y-188157557D02*
X6984397Y-188228985D01*
X8912969Y-189014700D02*
X8770112Y-189086128D01*
X8770112Y-189086128D02*
X8484398Y-189086128D01*
X8484398Y-189086128D02*
X8341540Y-189014700D01*
X8341540Y-189014700D02*
X8270112Y-188871842D01*
X8270112Y-188871842D02*
X8270112Y-188300414D01*
X8270112Y-188300414D02*
X8341540Y-188157557D01*
X8341540Y-188157557D02*
X8484398Y-188086128D01*
X8484398Y-188086128D02*
X8770112Y-188086128D01*
X8770112Y-188086128D02*
X8912969Y-188157557D01*
X8912969Y-188157557D02*
X8984398Y-188300414D01*
X8984398Y-188300414D02*
X8984398Y-188443271D01*
X8984398Y-188443271D02*
X8270112Y-188586128D01*
X10198683Y-189014700D02*
X10055826Y-189086128D01*
X10055826Y-189086128D02*
X9770112Y-189086128D01*
X9770112Y-189086128D02*
X9627254Y-189014700D01*
X9627254Y-189014700D02*
X9555826Y-188871842D01*
X9555826Y-188871842D02*
X9555826Y-188300414D01*
X9555826Y-188300414D02*
X9627254Y-188157557D01*
X9627254Y-188157557D02*
X9770112Y-188086128D01*
X9770112Y-188086128D02*
X10055826Y-188086128D01*
X10055826Y-188086128D02*
X10198683Y-188157557D01*
X10198683Y-188157557D02*
X10270112Y-188300414D01*
X10270112Y-188300414D02*
X10270112Y-188443271D01*
X10270112Y-188443271D02*
X9555826Y-188586128D01*
X10698683Y-188086128D02*
X11270111Y-188086128D01*
X10912968Y-187586128D02*
X10912968Y-188871842D01*
X10912968Y-188871842D02*
X10984397Y-189014700D01*
X10984397Y-189014700D02*
X11127254Y-189086128D01*
X11127254Y-189086128D02*
X11270111Y-189086128D01*
X11770111Y-188943271D02*
X11841540Y-189014700D01*
X11841540Y-189014700D02*
X11770111Y-189086128D01*
X11770111Y-189086128D02*
X11698683Y-189014700D01*
X11698683Y-189014700D02*
X11770111Y-188943271D01*
X11770111Y-188943271D02*
X11770111Y-189086128D01*
X11770111Y-188157557D02*
X11841540Y-188228985D01*
X11841540Y-188228985D02*
X11770111Y-188300414D01*
X11770111Y-188300414D02*
X11698683Y-188228985D01*
X11698683Y-188228985D02*
X11770111Y-188157557D01*
X11770111Y-188157557D02*
X11770111Y-188300414D01*
D10*
D12*
X5654510Y-186078328D02*
X5654510Y-184578328D01*
X5654510Y-184578328D02*
X6154510Y-185649757D01*
X6154510Y-185649757D02*
X6654510Y-184578328D01*
X6654510Y-184578328D02*
X6654510Y-186078328D01*
X7297368Y-185649757D02*
X8011654Y-185649757D01*
X7154511Y-186078328D02*
X7654511Y-184578328D01*
X7654511Y-184578328D02*
X8154511Y-186078328D01*
X9440225Y-184649757D02*
X9297368Y-184578328D01*
X9297368Y-184578328D02*
X9083082Y-184578328D01*
X9083082Y-184578328D02*
X8868796Y-184649757D01*
X8868796Y-184649757D02*
X8725939Y-184792614D01*
X8725939Y-184792614D02*
X8654510Y-184935471D01*
X8654510Y-184935471D02*
X8583082Y-185221185D01*
X8583082Y-185221185D02*
X8583082Y-185435471D01*
X8583082Y-185435471D02*
X8654510Y-185721185D01*
X8654510Y-185721185D02*
X8725939Y-185864042D01*
X8725939Y-185864042D02*
X8868796Y-186006900D01*
X8868796Y-186006900D02*
X9083082Y-186078328D01*
X9083082Y-186078328D02*
X9225939Y-186078328D01*
X9225939Y-186078328D02*
X9440225Y-186006900D01*
X9440225Y-186006900D02*
X9511653Y-185935471D01*
X9511653Y-185935471D02*
X9511653Y-185435471D01*
X9511653Y-185435471D02*
X9225939Y-185435471D01*
X12011653Y-186078328D02*
X11297367Y-186078328D01*
X11297367Y-186078328D02*
X11297367Y-184578328D01*
X13154511Y-186078328D02*
X13154511Y-185292614D01*
X13154511Y-185292614D02*
X13083082Y-185149757D01*
X13083082Y-185149757D02*
X12940225Y-185078328D01*
X12940225Y-185078328D02*
X12654511Y-185078328D01*
X12654511Y-185078328D02*
X12511653Y-185149757D01*
X13154511Y-186006900D02*
X13011653Y-186078328D01*
X13011653Y-186078328D02*
X12654511Y-186078328D01*
X12654511Y-186078328D02*
X12511653Y-186006900D01*
X12511653Y-186006900D02*
X12440225Y-185864042D01*
X12440225Y-185864042D02*
X12440225Y-185721185D01*
X12440225Y-185721185D02*
X12511653Y-185578328D01*
X12511653Y-185578328D02*
X12654511Y-185506900D01*
X12654511Y-185506900D02*
X13011653Y-185506900D01*
X13011653Y-185506900D02*
X13154511Y-185435471D01*
X13868796Y-186078328D02*
X13868796Y-184578328D01*
X13868796Y-185149757D02*
X14011654Y-185078328D01*
X14011654Y-185078328D02*
X14297368Y-185078328D01*
X14297368Y-185078328D02*
X14440225Y-185149757D01*
X14440225Y-185149757D02*
X14511654Y-185221185D01*
X14511654Y-185221185D02*
X14583082Y-185364042D01*
X14583082Y-185364042D02*
X14583082Y-185792614D01*
X14583082Y-185792614D02*
X14511654Y-185935471D01*
X14511654Y-185935471D02*
X14440225Y-186006900D01*
X14440225Y-186006900D02*
X14297368Y-186078328D01*
X14297368Y-186078328D02*
X14011654Y-186078328D01*
X14011654Y-186078328D02*
X13868796Y-186006900D01*
X15440225Y-186078328D02*
X15297368Y-186006900D01*
X15297368Y-186006900D02*
X15225939Y-185935471D01*
X15225939Y-185935471D02*
X15154511Y-185792614D01*
X15154511Y-185792614D02*
X15154511Y-185364042D01*
X15154511Y-185364042D02*
X15225939Y-185221185D01*
X15225939Y-185221185D02*
X15297368Y-185149757D01*
X15297368Y-185149757D02*
X15440225Y-185078328D01*
X15440225Y-185078328D02*
X15654511Y-185078328D01*
X15654511Y-185078328D02*
X15797368Y-185149757D01*
X15797368Y-185149757D02*
X15868797Y-185221185D01*
X15868797Y-185221185D02*
X15940225Y-185364042D01*
X15940225Y-185364042D02*
X15940225Y-185792614D01*
X15940225Y-185792614D02*
X15868797Y-185935471D01*
X15868797Y-185935471D02*
X15797368Y-186006900D01*
X15797368Y-186006900D02*
X15654511Y-186078328D01*
X15654511Y-186078328D02*
X15440225Y-186078328D01*
X16583082Y-186078328D02*
X16583082Y-185078328D01*
X16583082Y-185364042D02*
X16654511Y-185221185D01*
X16654511Y-185221185D02*
X16725940Y-185149757D01*
X16725940Y-185149757D02*
X16868797Y-185078328D01*
X16868797Y-185078328D02*
X17011654Y-185078328D01*
X18154511Y-186078328D02*
X18154511Y-185292614D01*
X18154511Y-185292614D02*
X18083082Y-185149757D01*
X18083082Y-185149757D02*
X17940225Y-185078328D01*
X17940225Y-185078328D02*
X17654511Y-185078328D01*
X17654511Y-185078328D02*
X17511653Y-185149757D01*
X18154511Y-186006900D02*
X18011653Y-186078328D01*
X18011653Y-186078328D02*
X17654511Y-186078328D01*
X17654511Y-186078328D02*
X17511653Y-186006900D01*
X17511653Y-186006900D02*
X17440225Y-185864042D01*
X17440225Y-185864042D02*
X17440225Y-185721185D01*
X17440225Y-185721185D02*
X17511653Y-185578328D01*
X17511653Y-185578328D02*
X17654511Y-185506900D01*
X17654511Y-185506900D02*
X18011653Y-185506900D01*
X18011653Y-185506900D02*
X18154511Y-185435471D01*
X18654511Y-185078328D02*
X19225939Y-185078328D01*
X18868796Y-184578328D02*
X18868796Y-185864042D01*
X18868796Y-185864042D02*
X18940225Y-186006900D01*
X18940225Y-186006900D02*
X19083082Y-186078328D01*
X19083082Y-186078328D02*
X19225939Y-186078328D01*
X19940225Y-186078328D02*
X19797368Y-186006900D01*
X19797368Y-186006900D02*
X19725939Y-185935471D01*
X19725939Y-185935471D02*
X19654511Y-185792614D01*
X19654511Y-185792614D02*
X19654511Y-185364042D01*
X19654511Y-185364042D02*
X19725939Y-185221185D01*
X19725939Y-185221185D02*
X19797368Y-185149757D01*
X19797368Y-185149757D02*
X19940225Y-185078328D01*
X19940225Y-185078328D02*
X20154511Y-185078328D01*
X20154511Y-185078328D02*
X20297368Y-185149757D01*
X20297368Y-185149757D02*
X20368797Y-185221185D01*
X20368797Y-185221185D02*
X20440225Y-185364042D01*
X20440225Y-185364042D02*
X20440225Y-185792614D01*
X20440225Y-185792614D02*
X20368797Y-185935471D01*
X20368797Y-185935471D02*
X20297368Y-186006900D01*
X20297368Y-186006900D02*
X20154511Y-186078328D01*
X20154511Y-186078328D02*
X19940225Y-186078328D01*
X21083082Y-186078328D02*
X21083082Y-185078328D01*
X21083082Y-185364042D02*
X21154511Y-185221185D01*
X21154511Y-185221185D02*
X21225940Y-185149757D01*
X21225940Y-185149757D02*
X21368797Y-185078328D01*
X21368797Y-185078328D02*
X21511654Y-185078328D01*
X21868796Y-185078328D02*
X22225939Y-186078328D01*
X22583082Y-185078328D02*
X22225939Y-186078328D01*
X22225939Y-186078328D02*
X22083082Y-186435471D01*
X22083082Y-186435471D02*
X22011653Y-186506900D01*
X22011653Y-186506900D02*
X21868796Y-186578328D01*
D10*
D11*
X24100000Y-196900000D02*
X24100000Y-199900000D01*
D10*
D11*
X88100000Y-196900000D02*
X88100000Y-203400000D01*
D14*
%TO.C,J4*%
X16100000Y-77920000D03*
D15*
X21180000Y-77920000D03*
X26260000Y-77920000D03*
%TD*%
D16*
%TO.C,H4*%
X27100000Y-67000000D03*
%TD*%
D17*
%TO.C,J5*%
X5940000Y-77920000D03*
D18*
X8480000Y-77920000D03*
%TD*%
D19*
%TO.C,J1*%
X11020000Y-5080000D03*
D15*
X5940000Y-5080000D03*
%TD*%
D19*
%TO.C,J2*%
X26260000Y-5080000D03*
D15*
X21180000Y-5080000D03*
X16100000Y-5080000D03*
%TD*%
D20*
%TO.C,H8*%
X3650000Y-59000000D03*
%TD*%
%TO.C,H9*%
X27650000Y-35500000D03*
%TD*%
D16*
%TO.C,H5*%
X5100000Y-16000000D03*
%TD*%
%TO.C,H3*%
X3650000Y-24000000D03*
%TD*%
D21*
%TO.C,H6*%
X5100000Y-67000000D03*
%TD*%
%TO.C,H7*%
X27100000Y-16000000D03*
%TD*%
D16*
%TO.C,H1*%
X25550000Y-24000000D03*
%TD*%
%TO.C,H2*%
X28550000Y-59000000D03*
%TD*%
D17*
%TO.C,J3*%
X4330000Y-37230000D03*
D18*
X6870000Y-37230000D03*
X4330000Y-39770000D03*
X6870000Y-39770000D03*
%TD*%
M02*
