%TF.GenerationSoftware,KiCad,Pcbnew,7.0.6*%
%TF.CreationDate,2023-10-26T22:09:33-07:00*%
%TF.ProjectId,power_distribution_board,706f7765-725f-4646-9973-747269627574,rev?*%
%TF.SameCoordinates,PX8a48640PY3938700*%
%TF.FileFunction,Copper,L2,Bot*%
%TF.FilePolarity,Positive*%
%FSLAX46Y46*%
G04 Gerber Fmt 4.6, Leading zero omitted, Abs format (unit mm)*
G04 Created by KiCad (PCBNEW 7.0.6) date 2023-10-26 22:09:33*
%MOMM*%
%LPD*%
G01*
G04 APERTURE LIST*
G04 Aperture macros list*
%AMRoundRect*
0 Rectangle with rounded corners*
0 $1 Rounding radius*
0 $2 $3 $4 $5 $6 $7 $8 $9 X,Y pos of 4 corners*
0 Add a 4 corners polygon primitive as box body*
4,1,4,$2,$3,$4,$5,$6,$7,$8,$9,$2,$3,0*
0 Add four circle primitives for the rounded corners*
1,1,$1+$1,$2,$3*
1,1,$1+$1,$4,$5*
1,1,$1+$1,$6,$7*
1,1,$1+$1,$8,$9*
0 Add four rect primitives between the rounded corners*
20,1,$1+$1,$2,$3,$4,$5,0*
20,1,$1+$1,$4,$5,$6,$7,0*
20,1,$1+$1,$6,$7,$8,$9,0*
20,1,$1+$1,$8,$9,$2,$3,0*%
G04 Aperture macros list end*
%TA.AperFunction,ComponentPad*%
%ADD10R,3.800000X3.800000*%
%TD*%
%TA.AperFunction,ComponentPad*%
%ADD11C,4.000000*%
%TD*%
%TA.AperFunction,ComponentPad*%
%ADD12RoundRect,0.381000X-0.381000X-0.381000X0.381000X-0.381000X0.381000X0.381000X-0.381000X0.381000X0*%
%TD*%
%TA.AperFunction,ComponentPad*%
%ADD13C,1.524000*%
%TD*%
%TA.AperFunction,ComponentPad*%
%ADD14RoundRect,0.250002X-1.699998X-1.699998X1.699998X-1.699998X1.699998X1.699998X-1.699998X1.699998X0*%
%TD*%
%TA.AperFunction,ComponentPad*%
%ADD15R,1.600000X1.600000*%
%TD*%
%TA.AperFunction,ComponentPad*%
%ADD16C,1.600000*%
%TD*%
%TA.AperFunction,SMDPad,CuDef*%
%ADD17RoundRect,0.250000X-0.325000X-0.650000X0.325000X-0.650000X0.325000X0.650000X-0.325000X0.650000X0*%
%TD*%
%TA.AperFunction,SMDPad,CuDef*%
%ADD18RoundRect,0.250000X0.650000X-0.325000X0.650000X0.325000X-0.650000X0.325000X-0.650000X-0.325000X0*%
%TD*%
%TA.AperFunction,Conductor*%
%ADD19C,1.500000*%
%TD*%
%TA.AperFunction,Conductor*%
%ADD20C,3.000000*%
%TD*%
%TA.AperFunction,Conductor*%
%ADD21C,2.000000*%
%TD*%
G04 APERTURE END LIST*
D10*
%TO.P,J1,1,Pin_1*%
%TO.N,GND*%
X63000000Y-6500000D03*
D11*
%TO.P,J1,2,Pin_2*%
%TO.N,Net-(J1-Pin_2)*%
X63000000Y-11500000D03*
%TD*%
D10*
%TO.P,J8,1,Pin_1*%
%TO.N,GND*%
X35000000Y-6500000D03*
D11*
%TO.P,J8,2,Pin_2*%
%TO.N,+12V*%
X35000000Y-11500000D03*
%TD*%
D10*
%TO.P,J5,1,Pin_1*%
%TO.N,GND*%
X19000000Y-6500000D03*
D11*
%TO.P,J5,2,Pin_2*%
%TO.N,+12V*%
X19000000Y-11500000D03*
%TD*%
D12*
%TO.P,U3,1,in-*%
%TO.N,GND*%
X13347500Y-19347500D03*
D13*
%TO.P,U3,2,in+*%
%TO.N,+12V*%
X13347500Y-28847500D03*
%TO.P,U3,3,out-*%
%TO.N,GND*%
X28847500Y-19347500D03*
%TO.P,U3,4,out+*%
%TO.N,Net-(J3-Pin_2)*%
X28847500Y-28847500D03*
%TD*%
D14*
%TO.P,J7,1,Pin_1*%
%TO.N,+12V*%
X11850000Y-12500000D03*
%TD*%
D12*
%TO.P,U4,1,in-*%
%TO.N,GND*%
X69347500Y-12330000D03*
D13*
%TO.P,U4,2,in+*%
%TO.N,+12V*%
X69347500Y-21830000D03*
%TO.P,U4,3,out-*%
%TO.N,GND*%
X84847500Y-12330000D03*
%TO.P,U4,4,out+*%
%TO.N,Net-(J9-Pin_2)*%
X84847500Y-21830000D03*
%TD*%
D14*
%TO.P,J6,1,Pin_1*%
%TO.N,GND*%
X11850000Y-5500000D03*
%TD*%
D12*
%TO.P,U1,1,in-*%
%TO.N,GND*%
X41347500Y-4347500D03*
D13*
%TO.P,U1,2,in+*%
%TO.N,+12V*%
X41347500Y-13847500D03*
%TO.P,U1,3,out-*%
%TO.N,GND*%
X56847500Y-4347500D03*
%TO.P,U1,4,out+*%
%TO.N,Net-(J1-Pin_2)*%
X56847500Y-13847500D03*
%TD*%
D15*
%TO.P,C1,1*%
%TO.N,+12V*%
X6000000Y-20000000D03*
D16*
%TO.P,C1,2*%
%TO.N,GND*%
X8500000Y-20000000D03*
%TD*%
D10*
%TO.P,J3,1,Pin_1*%
%TO.N,GND*%
X35000000Y-21500000D03*
D11*
%TO.P,J3,2,Pin_2*%
%TO.N,Net-(J3-Pin_2)*%
X35000000Y-26500000D03*
%TD*%
D10*
%TO.P,J2,1,Pin_1*%
%TO.N,GND*%
X63000000Y-21500000D03*
D11*
%TO.P,J2,2,Pin_2*%
%TO.N,Net-(J2-Pin_2)*%
X63000000Y-26500000D03*
%TD*%
D10*
%TO.P,J4,1,Pin_1*%
%TO.N,GND*%
X27000000Y-6500000D03*
D11*
%TO.P,J4,2,Pin_2*%
%TO.N,+12V*%
X27000000Y-11500000D03*
%TD*%
D10*
%TO.P,J9,1,Pin_1*%
%TO.N,GND*%
X91000000Y-14500000D03*
D11*
%TO.P,J9,2,Pin_2*%
%TO.N,Net-(J9-Pin_2)*%
X91000000Y-19500000D03*
%TD*%
D12*
%TO.P,U2,1,in-*%
%TO.N,GND*%
X41347500Y-19347500D03*
D13*
%TO.P,U2,2,in+*%
%TO.N,+12V*%
X41347500Y-28847500D03*
%TO.P,U2,3,out-*%
%TO.N,GND*%
X56847500Y-19347500D03*
%TO.P,U2,4,out+*%
%TO.N,Net-(J2-Pin_2)*%
X56847500Y-28847500D03*
%TD*%
D17*
%TO.P,C3,1*%
%TO.N,+12V*%
X6525000Y-17000000D03*
%TO.P,C3,2*%
%TO.N,GND*%
X9475000Y-17000000D03*
%TD*%
D18*
%TO.P,C2,1*%
%TO.N,+12V*%
X7000000Y-11975000D03*
%TO.P,C2,2*%
%TO.N,GND*%
X7000000Y-9025000D03*
%TD*%
D19*
%TO.N,Net-(J1-Pin_2)*%
X60652500Y-13847500D02*
X63000000Y-11500000D01*
X56847500Y-13847500D02*
X60652500Y-13847500D01*
%TO.N,Net-(J2-Pin_2)*%
X56847500Y-28847500D02*
X60652500Y-28847500D01*
X60652500Y-28847500D02*
X63000000Y-26500000D01*
%TO.N,Net-(J3-Pin_2)*%
X28847500Y-28847500D02*
X32652500Y-28847500D01*
X32652500Y-28847500D02*
X35000000Y-26500000D01*
D20*
%TO.N,GND*%
X62000000Y-2000000D02*
X76000000Y-2000000D01*
X76000000Y-2000000D02*
X78500000Y-2000000D01*
X41000000Y-2000000D02*
X56000000Y-2000000D01*
X19000000Y-6500000D02*
X19000000Y-2000000D01*
X13000000Y-2000000D02*
X19000000Y-2000000D01*
D19*
X69347500Y-15152500D02*
X69250000Y-15250000D01*
D20*
X41000000Y-21500000D02*
X63000000Y-21500000D01*
D19*
X63000000Y-3000000D02*
X62000000Y-2000000D01*
D20*
X35000000Y-21500000D02*
X16500000Y-21500000D01*
X86750000Y-10250000D02*
X91000000Y-14500000D01*
X35000000Y-2000000D02*
X41000000Y-2000000D01*
D19*
X56847500Y-4347500D02*
X56847500Y-2847500D01*
D20*
X19000000Y-2000000D02*
X27000000Y-2000000D01*
X69250000Y-15250000D02*
X63000000Y-21500000D01*
D19*
X84847500Y-12152500D02*
X86750000Y-10250000D01*
D21*
X41347500Y-2347500D02*
X41000000Y-2000000D01*
D19*
X13347500Y-19347500D02*
X15000000Y-21000000D01*
D20*
X27000000Y-2000000D02*
X35000000Y-2000000D01*
D19*
X41000000Y-19695000D02*
X41347500Y-19347500D01*
D20*
X78500000Y-2000000D02*
X86750000Y-10250000D01*
D21*
X41347500Y-4347500D02*
X41347500Y-2347500D01*
D20*
X76000000Y-2000000D02*
X76000000Y-8500000D01*
X35000000Y-21500000D02*
X41000000Y-21500000D01*
X27000000Y-6500000D02*
X27000000Y-2000000D01*
X35000000Y-2000000D02*
X35000000Y-6500000D01*
X16000000Y-21000000D02*
X16500000Y-21500000D01*
X11850000Y-5500000D02*
X11850000Y-3150000D01*
D19*
X15000000Y-21000000D02*
X16000000Y-21000000D01*
X63000000Y-6500000D02*
X63000000Y-3000000D01*
X41000000Y-21500000D02*
X41000000Y-19695000D01*
X84847500Y-12330000D02*
X84847500Y-12152500D01*
D20*
X56000000Y-2000000D02*
X62000000Y-2000000D01*
D19*
X69347500Y-12330000D02*
X69347500Y-15152500D01*
D20*
X76000000Y-8500000D02*
X69250000Y-15250000D01*
X11850000Y-3150000D02*
X13000000Y-2000000D01*
D19*
X56847500Y-2847500D02*
X56000000Y-2000000D01*
D20*
%TO.N,+12V*%
X19000000Y-11500000D02*
X12850000Y-11500000D01*
X19000000Y-11500000D02*
X27000000Y-11500000D01*
X12850000Y-11500000D02*
X11850000Y-12500000D01*
D19*
X35000000Y-11500000D02*
X39000000Y-11500000D01*
D20*
X11850000Y-12500000D02*
X5500000Y-12500000D01*
X14000000Y-32000000D02*
X41000000Y-32000000D01*
X4000000Y-14000000D02*
X4000000Y-22000000D01*
X4000000Y-22000000D02*
X14000000Y-32000000D01*
D19*
X69347500Y-31652500D02*
X69000000Y-32000000D01*
D20*
X5500000Y-12500000D02*
X4000000Y-14000000D01*
X41000000Y-32000000D02*
X69000000Y-32000000D01*
D19*
X39000000Y-11500000D02*
X41347500Y-13847500D01*
X69347500Y-21830000D02*
X69347500Y-31652500D01*
X41347500Y-31652500D02*
X41000000Y-32000000D01*
D20*
X27000000Y-11500000D02*
X35000000Y-11500000D01*
D19*
X41347500Y-28847500D02*
X41347500Y-31652500D01*
%TO.N,Net-(J9-Pin_2)*%
X84847500Y-21830000D02*
X88670000Y-21830000D01*
X88670000Y-21830000D02*
X91000000Y-19500000D01*
%TD*%
%TA.AperFunction,Conductor*%
%TO.N,Net-(J1-Pin_2)*%
G36*
X61942200Y-9019685D02*
G01*
X61987955Y-9072489D01*
X61997899Y-9141647D01*
X61968874Y-9205203D01*
X61934898Y-9232662D01*
X61657787Y-9385004D01*
X61657784Y-9385006D01*
X61619748Y-9412640D01*
X61619748Y-9412641D01*
X62466378Y-10259271D01*
X62322422Y-10326400D01*
X62128922Y-10461890D01*
X61961890Y-10628922D01*
X61826400Y-10822421D01*
X61759271Y-10966378D01*
X60914083Y-10121190D01*
X60804903Y-10293232D01*
X60804900Y-10293238D01*
X60670965Y-10577862D01*
X60670963Y-10577867D01*
X60573755Y-10877041D01*
X60514808Y-11186050D01*
X60514807Y-11186057D01*
X60495057Y-11499994D01*
X60495057Y-11500005D01*
X60514807Y-11813942D01*
X60514808Y-11813949D01*
X60573755Y-12122958D01*
X60670963Y-12422132D01*
X60670965Y-12422137D01*
X60804900Y-12706761D01*
X60804905Y-12706771D01*
X60914083Y-12878807D01*
X60914084Y-12878808D01*
X61759271Y-12033620D01*
X61826400Y-12177578D01*
X61961890Y-12371078D01*
X62128922Y-12538110D01*
X62322422Y-12673600D01*
X62466377Y-12740728D01*
X61619747Y-13587357D01*
X61619748Y-13587358D01*
X61657777Y-13614988D01*
X61657796Y-13615000D01*
X61933447Y-13766540D01*
X61933455Y-13766544D01*
X62225926Y-13882340D01*
X62530620Y-13960573D01*
X62530629Y-13960575D01*
X62842701Y-13999999D01*
X62842715Y-14000000D01*
X63157285Y-14000000D01*
X63157298Y-13999999D01*
X63469370Y-13960575D01*
X63469379Y-13960573D01*
X63774073Y-13882340D01*
X64066544Y-13766544D01*
X64066545Y-13766543D01*
X64342216Y-13614991D01*
X64342222Y-13614988D01*
X64380250Y-13587358D01*
X64380250Y-13587357D01*
X63533621Y-12740728D01*
X63677578Y-12673600D01*
X63871078Y-12538110D01*
X64038110Y-12371078D01*
X64173600Y-12177579D01*
X64240728Y-12033621D01*
X65085914Y-12878808D01*
X65085915Y-12878807D01*
X65195092Y-12706773D01*
X65195103Y-12706754D01*
X65329034Y-12422137D01*
X65329036Y-12422132D01*
X65426244Y-12122958D01*
X65485191Y-11813949D01*
X65485192Y-11813942D01*
X65504943Y-11500005D01*
X65504943Y-11499994D01*
X65485192Y-11186057D01*
X65485191Y-11186050D01*
X65426244Y-10877041D01*
X65329036Y-10577867D01*
X65329034Y-10577862D01*
X65195099Y-10293237D01*
X65195091Y-10293222D01*
X65085915Y-10121191D01*
X64240728Y-10966377D01*
X64173600Y-10822422D01*
X64038110Y-10628922D01*
X63871078Y-10461890D01*
X63677578Y-10326400D01*
X63533621Y-10259271D01*
X64380251Y-9412641D01*
X64380250Y-9412639D01*
X64342227Y-9385014D01*
X64342209Y-9385002D01*
X64065102Y-9232662D01*
X64015838Y-9183116D01*
X64001181Y-9114801D01*
X64025784Y-9049406D01*
X64081837Y-9007695D01*
X64124839Y-9000000D01*
X64948638Y-9000000D01*
X65015677Y-9019685D01*
X65036319Y-9036319D01*
X65963682Y-9963682D01*
X65997166Y-10025003D01*
X66000000Y-10051361D01*
X66000000Y-12948638D01*
X65980315Y-13015677D01*
X65963681Y-13036319D01*
X64036319Y-14963681D01*
X63974996Y-14997166D01*
X63948638Y-15000000D01*
X57292895Y-15000000D01*
X56844031Y-14551136D01*
X56830848Y-14559944D01*
X56827812Y-14570285D01*
X56811180Y-14590923D01*
X56402104Y-15000000D01*
X55124000Y-15000000D01*
X55056961Y-14980315D01*
X55011206Y-14927511D01*
X55000000Y-14876000D01*
X55000000Y-13847500D01*
X55580679Y-13847500D01*
X55599924Y-14067476D01*
X55599926Y-14067486D01*
X55657076Y-14280772D01*
X55657080Y-14280783D01*
X55672989Y-14314902D01*
X55672990Y-14314903D01*
X56108494Y-13879398D01*
X56462551Y-13879398D01*
X56493766Y-14002662D01*
X56563313Y-14109112D01*
X56663657Y-14187213D01*
X56783922Y-14228500D01*
X56879069Y-14228500D01*
X56972921Y-14212839D01*
X57084751Y-14152320D01*
X57170871Y-14058769D01*
X57221948Y-13942323D01*
X57230093Y-13844031D01*
X57551136Y-13844031D01*
X58022008Y-14314902D01*
X58022009Y-14314902D01*
X58037916Y-14280791D01*
X58037920Y-14280780D01*
X58095074Y-14067482D01*
X58095075Y-14067476D01*
X58114321Y-13847500D01*
X58114321Y-13847499D01*
X58095075Y-13627523D01*
X58095073Y-13627513D01*
X58037924Y-13414229D01*
X58037920Y-13414220D01*
X58022008Y-13380095D01*
X57590924Y-13811181D01*
X57562839Y-13826516D01*
X57551136Y-13844031D01*
X57230093Y-13844031D01*
X57232449Y-13815602D01*
X57201234Y-13692338D01*
X57131687Y-13585888D01*
X57031343Y-13507787D01*
X56911078Y-13466500D01*
X56815931Y-13466500D01*
X56722079Y-13482161D01*
X56610249Y-13542680D01*
X56524129Y-13636231D01*
X56473052Y-13752677D01*
X56462551Y-13879398D01*
X56108494Y-13879398D01*
X56140392Y-13847500D01*
X56140393Y-13847499D01*
X55672990Y-13380096D01*
X55657078Y-13414221D01*
X55657077Y-13414225D01*
X55599925Y-13627516D01*
X55599924Y-13627523D01*
X55580679Y-13847499D01*
X55580679Y-13847500D01*
X55000000Y-13847500D01*
X55000000Y-12672990D01*
X56380096Y-12672990D01*
X56847499Y-13140393D01*
X56847500Y-13140393D01*
X56847500Y-13140392D01*
X57314903Y-12672990D01*
X57314902Y-12672989D01*
X57280783Y-12657080D01*
X57280772Y-12657076D01*
X57067486Y-12599926D01*
X57067476Y-12599924D01*
X56847501Y-12580679D01*
X56847499Y-12580679D01*
X56627523Y-12599924D01*
X56627516Y-12599925D01*
X56414225Y-12657077D01*
X56414221Y-12657078D01*
X56380096Y-12672990D01*
X55000000Y-12672990D01*
X55000000Y-9124000D01*
X55019685Y-9056961D01*
X55072489Y-9011206D01*
X55124000Y-9000000D01*
X61875161Y-9000000D01*
X61942200Y-9019685D01*
G37*
%TD.AperFunction*%
%TD*%
%TA.AperFunction,Conductor*%
%TO.N,Net-(J3-Pin_2)*%
G36*
X33942200Y-24019685D02*
G01*
X33987955Y-24072489D01*
X33997899Y-24141647D01*
X33968874Y-24205203D01*
X33934898Y-24232662D01*
X33657787Y-24385004D01*
X33657784Y-24385006D01*
X33619748Y-24412640D01*
X33619748Y-24412641D01*
X34466378Y-25259271D01*
X34322422Y-25326400D01*
X34128922Y-25461890D01*
X33961890Y-25628922D01*
X33826400Y-25822421D01*
X33759271Y-25966378D01*
X32914083Y-25121190D01*
X32804903Y-25293232D01*
X32804900Y-25293238D01*
X32670965Y-25577862D01*
X32670963Y-25577867D01*
X32573755Y-25877041D01*
X32514808Y-26186050D01*
X32514807Y-26186057D01*
X32495057Y-26499994D01*
X32495057Y-26500005D01*
X32514807Y-26813942D01*
X32514808Y-26813949D01*
X32573755Y-27122958D01*
X32670963Y-27422132D01*
X32670965Y-27422137D01*
X32804900Y-27706761D01*
X32804905Y-27706771D01*
X32914083Y-27878807D01*
X32914084Y-27878808D01*
X33759271Y-27033621D01*
X33826400Y-27177578D01*
X33961890Y-27371078D01*
X34128922Y-27538110D01*
X34322422Y-27673600D01*
X34466377Y-27740728D01*
X33619747Y-28587357D01*
X33619748Y-28587358D01*
X33657777Y-28614988D01*
X33657796Y-28615000D01*
X33933447Y-28766540D01*
X33933455Y-28766544D01*
X34225926Y-28882340D01*
X34530620Y-28960573D01*
X34530629Y-28960575D01*
X34842701Y-28999999D01*
X34842715Y-29000000D01*
X35157285Y-29000000D01*
X35157298Y-28999999D01*
X35469370Y-28960575D01*
X35469379Y-28960573D01*
X35774073Y-28882340D01*
X36066544Y-28766544D01*
X36066545Y-28766543D01*
X36342216Y-28614991D01*
X36342222Y-28614988D01*
X36380250Y-28587358D01*
X36380250Y-28587357D01*
X35533621Y-27740728D01*
X35677578Y-27673600D01*
X35871078Y-27538110D01*
X36038110Y-27371078D01*
X36173600Y-27177579D01*
X36240728Y-27033620D01*
X37085915Y-27878807D01*
X37195092Y-27706773D01*
X37195103Y-27706754D01*
X37329034Y-27422137D01*
X37329036Y-27422132D01*
X37426244Y-27122958D01*
X37485191Y-26813949D01*
X37485192Y-26813942D01*
X37504943Y-26500005D01*
X37504943Y-26499994D01*
X37485192Y-26186057D01*
X37485191Y-26186050D01*
X37426244Y-25877041D01*
X37329036Y-25577867D01*
X37329034Y-25577862D01*
X37195099Y-25293237D01*
X37195091Y-25293222D01*
X37085915Y-25121191D01*
X37085915Y-25121190D01*
X36240728Y-25966377D01*
X36173600Y-25822422D01*
X36038110Y-25628922D01*
X35871078Y-25461890D01*
X35677578Y-25326400D01*
X35533621Y-25259271D01*
X36380251Y-24412641D01*
X36380250Y-24412639D01*
X36342227Y-24385014D01*
X36342209Y-24385002D01*
X36065102Y-24232662D01*
X36015838Y-24183116D01*
X36001181Y-24114801D01*
X36025784Y-24049406D01*
X36081837Y-24007695D01*
X36124839Y-24000000D01*
X37876000Y-24000000D01*
X37943039Y-24019685D01*
X37988794Y-24072489D01*
X38000000Y-24124000D01*
X38000000Y-28948637D01*
X37980315Y-29015676D01*
X37963681Y-29036318D01*
X37036819Y-29963181D01*
X36975496Y-29996666D01*
X36949138Y-29999500D01*
X29343756Y-29999500D01*
X29276717Y-29979815D01*
X29256075Y-29963181D01*
X28788922Y-29496027D01*
X28788912Y-29496019D01*
X28172291Y-28879398D01*
X28462551Y-28879398D01*
X28493766Y-29002662D01*
X28563313Y-29109112D01*
X28663657Y-29187213D01*
X28783922Y-29228500D01*
X28879069Y-29228500D01*
X28972921Y-29212839D01*
X29084751Y-29152320D01*
X29170871Y-29058769D01*
X29221948Y-28942323D01*
X29230093Y-28844031D01*
X29551136Y-28844031D01*
X30022008Y-29314902D01*
X30022009Y-29314902D01*
X30037916Y-29280791D01*
X30037920Y-29280780D01*
X30095074Y-29067482D01*
X30095075Y-29067476D01*
X30114321Y-28847500D01*
X30114321Y-28847499D01*
X30095075Y-28627523D01*
X30095073Y-28627513D01*
X30037924Y-28414229D01*
X30037920Y-28414220D01*
X30022008Y-28380095D01*
X29590924Y-28811181D01*
X29562839Y-28826516D01*
X29551136Y-28844031D01*
X29230093Y-28844031D01*
X29232449Y-28815602D01*
X29201234Y-28692338D01*
X29131687Y-28585888D01*
X29031343Y-28507787D01*
X28911078Y-28466500D01*
X28815931Y-28466500D01*
X28722079Y-28482161D01*
X28610249Y-28542680D01*
X28524129Y-28636231D01*
X28473052Y-28752677D01*
X28462551Y-28879398D01*
X28172291Y-28879398D01*
X28157834Y-28864941D01*
X28157832Y-28864938D01*
X27672990Y-28380096D01*
X27657078Y-28414221D01*
X27657077Y-28414225D01*
X27599925Y-28627516D01*
X27599924Y-28627523D01*
X27580679Y-28847499D01*
X27580679Y-28847500D01*
X27599924Y-29067476D01*
X27599926Y-29067486D01*
X27657075Y-29280770D01*
X27657080Y-29280784D01*
X27688664Y-29348516D01*
X27699156Y-29417593D01*
X27670636Y-29481377D01*
X27612159Y-29519616D01*
X27542292Y-29520170D01*
X27488601Y-29488601D01*
X27036319Y-29036319D01*
X27002834Y-28974996D01*
X27000000Y-28948638D01*
X27000000Y-27672990D01*
X28380096Y-27672990D01*
X28847499Y-28140393D01*
X28847500Y-28140393D01*
X28847500Y-28140392D01*
X29314903Y-27672990D01*
X29314902Y-27672989D01*
X29280783Y-27657080D01*
X29280772Y-27657076D01*
X29067486Y-27599926D01*
X29067476Y-27599924D01*
X28847501Y-27580679D01*
X28847499Y-27580679D01*
X28627523Y-27599924D01*
X28627516Y-27599925D01*
X28414225Y-27657077D01*
X28414221Y-27657078D01*
X28380096Y-27672990D01*
X27000000Y-27672990D01*
X27000000Y-24124000D01*
X27019685Y-24056961D01*
X27072489Y-24011206D01*
X27124000Y-24000000D01*
X33875161Y-24000000D01*
X33942200Y-24019685D01*
G37*
%TD.AperFunction*%
%TD*%
%TA.AperFunction,Conductor*%
%TO.N,Net-(J9-Pin_2)*%
G36*
X89942200Y-17019685D02*
G01*
X89987955Y-17072489D01*
X89997899Y-17141647D01*
X89968874Y-17205203D01*
X89934898Y-17232662D01*
X89657787Y-17385004D01*
X89657784Y-17385006D01*
X89619748Y-17412640D01*
X89619748Y-17412641D01*
X90466378Y-18259271D01*
X90322422Y-18326400D01*
X90128922Y-18461890D01*
X89961890Y-18628922D01*
X89826400Y-18822421D01*
X89759271Y-18966378D01*
X88914083Y-18121190D01*
X88804903Y-18293232D01*
X88804900Y-18293238D01*
X88670965Y-18577862D01*
X88670963Y-18577867D01*
X88573755Y-18877041D01*
X88514808Y-19186050D01*
X88514807Y-19186057D01*
X88495057Y-19499994D01*
X88495057Y-19500005D01*
X88514807Y-19813942D01*
X88514808Y-19813949D01*
X88573755Y-20122958D01*
X88670963Y-20422132D01*
X88670965Y-20422137D01*
X88804900Y-20706761D01*
X88804905Y-20706771D01*
X88914083Y-20878807D01*
X88914084Y-20878808D01*
X89759271Y-20033621D01*
X89826400Y-20177578D01*
X89961890Y-20371078D01*
X90128922Y-20538110D01*
X90322422Y-20673600D01*
X90466377Y-20740728D01*
X89619747Y-21587357D01*
X89619748Y-21587358D01*
X89657777Y-21614988D01*
X89657796Y-21615000D01*
X89933447Y-21766540D01*
X89933455Y-21766544D01*
X90225926Y-21882340D01*
X90530620Y-21960573D01*
X90530629Y-21960575D01*
X90842701Y-21999999D01*
X90842715Y-22000000D01*
X91157285Y-22000000D01*
X91157298Y-21999999D01*
X91469370Y-21960575D01*
X91469379Y-21960573D01*
X91774073Y-21882340D01*
X92066544Y-21766544D01*
X92066545Y-21766543D01*
X92342216Y-21614991D01*
X92342222Y-21614988D01*
X92380250Y-21587358D01*
X92380250Y-21587357D01*
X91533621Y-20740728D01*
X91677578Y-20673600D01*
X91871078Y-20538110D01*
X92038110Y-20371078D01*
X92173600Y-20177579D01*
X92240728Y-20033621D01*
X93085914Y-20878808D01*
X93085915Y-20878807D01*
X93195092Y-20706773D01*
X93195103Y-20706754D01*
X93329034Y-20422137D01*
X93329036Y-20422132D01*
X93426244Y-20122958D01*
X93485191Y-19813949D01*
X93485192Y-19813942D01*
X93504943Y-19500005D01*
X93504943Y-19499994D01*
X93485192Y-19186057D01*
X93485191Y-19186050D01*
X93426244Y-18877041D01*
X93329036Y-18577867D01*
X93329034Y-18577862D01*
X93195099Y-18293237D01*
X93195091Y-18293222D01*
X93085915Y-18121191D01*
X92240728Y-18966377D01*
X92173600Y-18822422D01*
X92038110Y-18628922D01*
X91871078Y-18461890D01*
X91677578Y-18326400D01*
X91533621Y-18259271D01*
X92380251Y-17412641D01*
X92380250Y-17412639D01*
X92342227Y-17385014D01*
X92342209Y-17385002D01*
X92065102Y-17232662D01*
X92015838Y-17183116D01*
X92001181Y-17114801D01*
X92025784Y-17049406D01*
X92081837Y-17007695D01*
X92124839Y-17000000D01*
X95875500Y-17000000D01*
X95942539Y-17019685D01*
X95988294Y-17072489D01*
X95999500Y-17124000D01*
X95999500Y-22876000D01*
X95979815Y-22943039D01*
X95927011Y-22988794D01*
X95875500Y-23000000D01*
X85310395Y-23000000D01*
X84788922Y-22478527D01*
X84788912Y-22478519D01*
X84172291Y-21861898D01*
X84462551Y-21861898D01*
X84493766Y-21985162D01*
X84563313Y-22091612D01*
X84663657Y-22169713D01*
X84783922Y-22211000D01*
X84879069Y-22211000D01*
X84972921Y-22195339D01*
X85084751Y-22134820D01*
X85170871Y-22041269D01*
X85221948Y-21924823D01*
X85230093Y-21826531D01*
X85551136Y-21826531D01*
X86022008Y-22297402D01*
X86022009Y-22297402D01*
X86037916Y-22263291D01*
X86037920Y-22263280D01*
X86095074Y-22049982D01*
X86095075Y-22049976D01*
X86114321Y-21830000D01*
X86114321Y-21829999D01*
X86095075Y-21610023D01*
X86095073Y-21610013D01*
X86037924Y-21396729D01*
X86037920Y-21396720D01*
X86022008Y-21362595D01*
X85590924Y-21793681D01*
X85562839Y-21809016D01*
X85551136Y-21826531D01*
X85230093Y-21826531D01*
X85232449Y-21798102D01*
X85201234Y-21674838D01*
X85131687Y-21568388D01*
X85031343Y-21490287D01*
X84911078Y-21449000D01*
X84815931Y-21449000D01*
X84722079Y-21464661D01*
X84610249Y-21525180D01*
X84524129Y-21618731D01*
X84473052Y-21735177D01*
X84462551Y-21861898D01*
X84172291Y-21861898D01*
X84157834Y-21847441D01*
X84157832Y-21847438D01*
X83672990Y-21362596D01*
X83657078Y-21396721D01*
X83657077Y-21396725D01*
X83599925Y-21610016D01*
X83599924Y-21610023D01*
X83580679Y-21829999D01*
X83580679Y-21830000D01*
X83599924Y-22049976D01*
X83599926Y-22049986D01*
X83657075Y-22263270D01*
X83657080Y-22263284D01*
X83703954Y-22363806D01*
X83714446Y-22432883D01*
X83685926Y-22496667D01*
X83627449Y-22534906D01*
X83557582Y-22535460D01*
X83503891Y-22503891D01*
X83036319Y-22036319D01*
X83002834Y-21974996D01*
X83000000Y-21948638D01*
X83000000Y-20655490D01*
X84380096Y-20655490D01*
X84847499Y-21122893D01*
X84847500Y-21122893D01*
X84847500Y-21122892D01*
X85314903Y-20655490D01*
X85314902Y-20655489D01*
X85280783Y-20639580D01*
X85280772Y-20639576D01*
X85067486Y-20582426D01*
X85067476Y-20582424D01*
X84847501Y-20563179D01*
X84847499Y-20563179D01*
X84627523Y-20582424D01*
X84627516Y-20582425D01*
X84414225Y-20639577D01*
X84414221Y-20639578D01*
X84380096Y-20655490D01*
X83000000Y-20655490D01*
X83000000Y-17124000D01*
X83019685Y-17056961D01*
X83072489Y-17011206D01*
X83124000Y-17000000D01*
X89875161Y-17000000D01*
X89942200Y-17019685D01*
G37*
%TD.AperFunction*%
%TD*%
%TA.AperFunction,Conductor*%
%TO.N,GND*%
G36*
X95507829Y-1030D02*
G01*
X95597227Y-12800D01*
X95613223Y-14906D01*
X95644491Y-23284D01*
X95734918Y-60740D01*
X95762952Y-76925D01*
X95840602Y-136509D01*
X95863491Y-159398D01*
X95923074Y-237048D01*
X95939259Y-265081D01*
X95976715Y-355508D01*
X95985093Y-386775D01*
X95998969Y-492166D01*
X95999500Y-500267D01*
X95999500Y-15499731D01*
X95998969Y-15507832D01*
X95985093Y-15613224D01*
X95976715Y-15644491D01*
X95939259Y-15734918D01*
X95923074Y-15762951D01*
X95863491Y-15840601D01*
X95840601Y-15863491D01*
X95762951Y-15923074D01*
X95734918Y-15939259D01*
X95644491Y-15976715D01*
X95613224Y-15985093D01*
X95524783Y-15996737D01*
X95504031Y-15999469D01*
X95495934Y-16000000D01*
X93524000Y-16000000D01*
X93456961Y-15980315D01*
X93411206Y-15927511D01*
X93400000Y-15876000D01*
X93400000Y-15000000D01*
X92256407Y-15000000D01*
X92273431Y-14963491D01*
X92334569Y-14735321D01*
X92355157Y-14500000D01*
X92334569Y-14264679D01*
X92273431Y-14036509D01*
X92256406Y-14000000D01*
X93400000Y-14000000D01*
X93400000Y-12552172D01*
X93399999Y-12552155D01*
X93393598Y-12492627D01*
X93393596Y-12492620D01*
X93343354Y-12357913D01*
X93343350Y-12357906D01*
X93257190Y-12242812D01*
X93257187Y-12242809D01*
X93142093Y-12156649D01*
X93142086Y-12156645D01*
X93007379Y-12106403D01*
X93007372Y-12106401D01*
X92947844Y-12100000D01*
X91500000Y-12100000D01*
X91500000Y-13243593D01*
X91463491Y-13226569D01*
X91235321Y-13165431D01*
X91058945Y-13150000D01*
X90941055Y-13150000D01*
X90764679Y-13165431D01*
X90536509Y-13226569D01*
X90499999Y-13243593D01*
X90500000Y-12100000D01*
X89052155Y-12100000D01*
X88992627Y-12106401D01*
X88992620Y-12106403D01*
X88857913Y-12156645D01*
X88857906Y-12156649D01*
X88742812Y-12242809D01*
X88742809Y-12242812D01*
X88656649Y-12357906D01*
X88656645Y-12357913D01*
X88606403Y-12492620D01*
X88606401Y-12492627D01*
X88600000Y-12552155D01*
X88600000Y-12552172D01*
X88599999Y-13999999D01*
X88600000Y-14000000D01*
X89743593Y-14000000D01*
X89726569Y-14036509D01*
X89665431Y-14264679D01*
X89644843Y-14500000D01*
X89665431Y-14735321D01*
X89726569Y-14963491D01*
X89743594Y-15000000D01*
X88600000Y-15000000D01*
X88600000Y-15876000D01*
X88580315Y-15943039D01*
X88527511Y-15988794D01*
X88476000Y-16000000D01*
X73000000Y-16000000D01*
X72853552Y-16146446D01*
X72853547Y-16146451D01*
X66149328Y-22850672D01*
X66143224Y-22856025D01*
X66055842Y-22923075D01*
X66027808Y-22939260D01*
X65937383Y-22976715D01*
X65906117Y-22985093D01*
X65817676Y-22996737D01*
X65796924Y-22999469D01*
X65788827Y-23000000D01*
X65524000Y-23000000D01*
X65456961Y-22980315D01*
X65411206Y-22927511D01*
X65400000Y-22876000D01*
X65400000Y-22000000D01*
X64256407Y-22000000D01*
X64273431Y-21963491D01*
X64334569Y-21735321D01*
X64355157Y-21500000D01*
X64334569Y-21264679D01*
X64273431Y-21036509D01*
X64256406Y-21000000D01*
X65400000Y-21000000D01*
X65400000Y-19552172D01*
X65399999Y-19552155D01*
X65393598Y-19492627D01*
X65393596Y-19492620D01*
X65343354Y-19357913D01*
X65343350Y-19357906D01*
X65257190Y-19242812D01*
X65257187Y-19242809D01*
X65142093Y-19156649D01*
X65142086Y-19156645D01*
X65007379Y-19106403D01*
X65007372Y-19106401D01*
X64947844Y-19100000D01*
X63500000Y-19100000D01*
X63500000Y-20243593D01*
X63463491Y-20226569D01*
X63235321Y-20165431D01*
X63058945Y-20150000D01*
X62941055Y-20150000D01*
X62764679Y-20165431D01*
X62536509Y-20226569D01*
X62500000Y-20243593D01*
X62500000Y-19100000D01*
X61052155Y-19100000D01*
X60992627Y-19106401D01*
X60992620Y-19106403D01*
X60857913Y-19156645D01*
X60857906Y-19156649D01*
X60742812Y-19242809D01*
X60742809Y-19242812D01*
X60656649Y-19357906D01*
X60656645Y-19357913D01*
X60606403Y-19492620D01*
X60606401Y-19492627D01*
X60600000Y-19552155D01*
X60600000Y-21000000D01*
X61743593Y-21000000D01*
X61726569Y-21036509D01*
X61665431Y-21264679D01*
X61644843Y-21500000D01*
X61665431Y-21735321D01*
X61726569Y-21963491D01*
X61743594Y-22000000D01*
X60600000Y-22000000D01*
X60600000Y-22876000D01*
X60580315Y-22943039D01*
X60527511Y-22988794D01*
X60476000Y-23000000D01*
X37524000Y-23000000D01*
X37456961Y-22980315D01*
X37411206Y-22927511D01*
X37400000Y-22876000D01*
X37400000Y-22000000D01*
X36256407Y-22000000D01*
X36273431Y-21963491D01*
X36334569Y-21735321D01*
X36355157Y-21500000D01*
X36334569Y-21264679D01*
X36273431Y-21036509D01*
X36256406Y-21000000D01*
X37399999Y-21000000D01*
X37400000Y-19847500D01*
X40088375Y-19847500D01*
X40088418Y-19848134D01*
X40134666Y-20034102D01*
X40219807Y-20205775D01*
X40339865Y-20355133D01*
X40339866Y-20355134D01*
X40489225Y-20475192D01*
X40489224Y-20475192D01*
X40660897Y-20560333D01*
X40846865Y-20606581D01*
X40847500Y-20606624D01*
X40847500Y-19847500D01*
X41847500Y-19847500D01*
X41847500Y-20606624D01*
X41848134Y-20606581D01*
X42034102Y-20560333D01*
X42111376Y-20522009D01*
X56380095Y-20522009D01*
X56414220Y-20537920D01*
X56414229Y-20537924D01*
X56627513Y-20595073D01*
X56627523Y-20595075D01*
X56847499Y-20614321D01*
X56847501Y-20614321D01*
X57067476Y-20595075D01*
X57067482Y-20595074D01*
X57280780Y-20537920D01*
X57280791Y-20537916D01*
X57314902Y-20522009D01*
X57314902Y-20522008D01*
X56844031Y-20051136D01*
X56830850Y-20059943D01*
X56827815Y-20070282D01*
X56811181Y-20090924D01*
X56380095Y-20522009D01*
X42111376Y-20522009D01*
X42205775Y-20475192D01*
X42355133Y-20355134D01*
X42355134Y-20355133D01*
X42475192Y-20205775D01*
X42560333Y-20034102D01*
X42606581Y-19848134D01*
X42606625Y-19847500D01*
X41847500Y-19847500D01*
X40847500Y-19847500D01*
X40088375Y-19847500D01*
X37400000Y-19847500D01*
X37400000Y-19552172D01*
X37399999Y-19552155D01*
X37393598Y-19492627D01*
X37393596Y-19492620D01*
X37351367Y-19379398D01*
X40962551Y-19379398D01*
X40993766Y-19502662D01*
X41063313Y-19609112D01*
X41163657Y-19687213D01*
X41283922Y-19728500D01*
X41379069Y-19728500D01*
X41472921Y-19712839D01*
X41584751Y-19652320D01*
X41670871Y-19558769D01*
X41721948Y-19442323D01*
X41729806Y-19347500D01*
X55580679Y-19347500D01*
X55599924Y-19567476D01*
X55599926Y-19567486D01*
X55657076Y-19780772D01*
X55657080Y-19780783D01*
X55672989Y-19814902D01*
X55672990Y-19814903D01*
X56108494Y-19379398D01*
X56462551Y-19379398D01*
X56493766Y-19502662D01*
X56563313Y-19609112D01*
X56663657Y-19687213D01*
X56783922Y-19728500D01*
X56879069Y-19728500D01*
X56972921Y-19712839D01*
X57084751Y-19652320D01*
X57170871Y-19558769D01*
X57221948Y-19442323D01*
X57230093Y-19344031D01*
X57551136Y-19344031D01*
X58022008Y-19814902D01*
X58022009Y-19814902D01*
X58037916Y-19780791D01*
X58037920Y-19780780D01*
X58095074Y-19567482D01*
X58095075Y-19567476D01*
X58114321Y-19347500D01*
X58114321Y-19347499D01*
X58095075Y-19127523D01*
X58095073Y-19127513D01*
X58037924Y-18914229D01*
X58037920Y-18914220D01*
X58022008Y-18880095D01*
X57590924Y-19311181D01*
X57562839Y-19326516D01*
X57551136Y-19344031D01*
X57230093Y-19344031D01*
X57232449Y-19315602D01*
X57201234Y-19192338D01*
X57131687Y-19085888D01*
X57031343Y-19007787D01*
X56911078Y-18966500D01*
X56815931Y-18966500D01*
X56722079Y-18982161D01*
X56610249Y-19042680D01*
X56524129Y-19136231D01*
X56473052Y-19252677D01*
X56462551Y-19379398D01*
X56108494Y-19379398D01*
X56140392Y-19347500D01*
X56140393Y-19347499D01*
X55672990Y-18880096D01*
X55657078Y-18914221D01*
X55657077Y-18914225D01*
X55599925Y-19127516D01*
X55599924Y-19127523D01*
X55580679Y-19347499D01*
X55580679Y-19347500D01*
X41729806Y-19347500D01*
X41732449Y-19315602D01*
X41701234Y-19192338D01*
X41631687Y-19085888D01*
X41531343Y-19007787D01*
X41411078Y-18966500D01*
X41315931Y-18966500D01*
X41222079Y-18982161D01*
X41110249Y-19042680D01*
X41024129Y-19136231D01*
X40973052Y-19252677D01*
X40962551Y-19379398D01*
X37351367Y-19379398D01*
X37343354Y-19357913D01*
X37343350Y-19357906D01*
X37257190Y-19242812D01*
X37257187Y-19242809D01*
X37142093Y-19156649D01*
X37142086Y-19156645D01*
X37007379Y-19106403D01*
X37007372Y-19106401D01*
X36947844Y-19100000D01*
X35500000Y-19100000D01*
X35500000Y-20243593D01*
X35463491Y-20226569D01*
X35235321Y-20165431D01*
X35058945Y-20150000D01*
X34941055Y-20150000D01*
X34764679Y-20165431D01*
X34536509Y-20226569D01*
X34500000Y-20243593D01*
X34500000Y-19100000D01*
X33052155Y-19100000D01*
X32992627Y-19106401D01*
X32992620Y-19106403D01*
X32857913Y-19156645D01*
X32857906Y-19156649D01*
X32742812Y-19242809D01*
X32742809Y-19242812D01*
X32656649Y-19357906D01*
X32656645Y-19357913D01*
X32606403Y-19492620D01*
X32606401Y-19492627D01*
X32600000Y-19552155D01*
X32600000Y-21000000D01*
X33743593Y-21000000D01*
X33726569Y-21036509D01*
X33665431Y-21264679D01*
X33644843Y-21500000D01*
X33665431Y-21735321D01*
X33726569Y-21963491D01*
X33743594Y-22000000D01*
X32600000Y-22000000D01*
X32600000Y-22876000D01*
X32580315Y-22943039D01*
X32527511Y-22988794D01*
X32476000Y-23000000D01*
X10211173Y-23000000D01*
X10203075Y-22999469D01*
X10179564Y-22996374D01*
X10093882Y-22985093D01*
X10062616Y-22976715D01*
X9972191Y-22939260D01*
X9944157Y-22923075D01*
X9856775Y-22856025D01*
X9850679Y-22850679D01*
X8508688Y-21508688D01*
X8475204Y-21447366D01*
X8480188Y-21377674D01*
X8522060Y-21321741D01*
X8585563Y-21297480D01*
X8726599Y-21285141D01*
X8726610Y-21285139D01*
X8946317Y-21226269D01*
X8946326Y-21226265D01*
X8995998Y-21203103D01*
X8441422Y-20648527D01*
X8441412Y-20648519D01*
X8000000Y-20207107D01*
X8000000Y-20000000D01*
X8095014Y-20000000D01*
X8114835Y-20125148D01*
X8172359Y-20238045D01*
X8261955Y-20327641D01*
X8374852Y-20385165D01*
X8468519Y-20400000D01*
X8531481Y-20400000D01*
X8625148Y-20385165D01*
X8738045Y-20327641D01*
X8827641Y-20238045D01*
X8885165Y-20125148D01*
X8904986Y-20000000D01*
X9207106Y-20000000D01*
X9703103Y-20495997D01*
X9726265Y-20446326D01*
X9726269Y-20446317D01*
X9785139Y-20226610D01*
X9785141Y-20226599D01*
X9804966Y-20000002D01*
X9804966Y-19999997D01*
X9791624Y-19847500D01*
X12088375Y-19847500D01*
X12088418Y-19848134D01*
X12134666Y-20034102D01*
X12219807Y-20205775D01*
X12339865Y-20355133D01*
X12339866Y-20355134D01*
X12489225Y-20475192D01*
X12489224Y-20475192D01*
X12660897Y-20560333D01*
X12846865Y-20606581D01*
X12847500Y-20606624D01*
X12847500Y-19847500D01*
X13847500Y-19847500D01*
X13847500Y-20606624D01*
X13848134Y-20606581D01*
X14034102Y-20560333D01*
X14111376Y-20522009D01*
X28380095Y-20522009D01*
X28414220Y-20537920D01*
X28414229Y-20537924D01*
X28627513Y-20595073D01*
X28627523Y-20595075D01*
X28847499Y-20614321D01*
X28847501Y-20614321D01*
X29067476Y-20595075D01*
X29067482Y-20595074D01*
X29280780Y-20537920D01*
X29280791Y-20537916D01*
X29314902Y-20522009D01*
X29314902Y-20522008D01*
X28844031Y-20051136D01*
X28830850Y-20059943D01*
X28827815Y-20070282D01*
X28811181Y-20090924D01*
X28380095Y-20522009D01*
X14111376Y-20522009D01*
X14205775Y-20475192D01*
X14355133Y-20355134D01*
X14355134Y-20355133D01*
X14475192Y-20205775D01*
X14560333Y-20034102D01*
X14606581Y-19848134D01*
X14606625Y-19847500D01*
X13847500Y-19847500D01*
X12847500Y-19847500D01*
X12088375Y-19847500D01*
X9791624Y-19847500D01*
X9785141Y-19773400D01*
X9785139Y-19773389D01*
X9726268Y-19553679D01*
X9703103Y-19504001D01*
X9207106Y-19999999D01*
X9207106Y-20000000D01*
X8904986Y-20000000D01*
X8885165Y-19874852D01*
X8827641Y-19761955D01*
X8738045Y-19672359D01*
X8625148Y-19614835D01*
X8531481Y-19600000D01*
X8468519Y-19600000D01*
X8374852Y-19614835D01*
X8261955Y-19672359D01*
X8172359Y-19761955D01*
X8114835Y-19874852D01*
X8095014Y-20000000D01*
X8000000Y-20000000D01*
X8000000Y-19792893D01*
X8413495Y-19379398D01*
X12962551Y-19379398D01*
X12993766Y-19502662D01*
X13063313Y-19609112D01*
X13163657Y-19687213D01*
X13283922Y-19728500D01*
X13379069Y-19728500D01*
X13472921Y-19712839D01*
X13584751Y-19652320D01*
X13670871Y-19558769D01*
X13721948Y-19442323D01*
X13729806Y-19347500D01*
X27580679Y-19347500D01*
X27599924Y-19567476D01*
X27599926Y-19567486D01*
X27657076Y-19780772D01*
X27657080Y-19780783D01*
X27672989Y-19814902D01*
X27672990Y-19814903D01*
X28108494Y-19379398D01*
X28462551Y-19379398D01*
X28493766Y-19502662D01*
X28563313Y-19609112D01*
X28663657Y-19687213D01*
X28783922Y-19728500D01*
X28879069Y-19728500D01*
X28972921Y-19712839D01*
X29084751Y-19652320D01*
X29170871Y-19558769D01*
X29221948Y-19442323D01*
X29230093Y-19344031D01*
X29551136Y-19344031D01*
X30022008Y-19814902D01*
X30022009Y-19814902D01*
X30037916Y-19780791D01*
X30037920Y-19780780D01*
X30095074Y-19567482D01*
X30095075Y-19567476D01*
X30114321Y-19347500D01*
X30114321Y-19347499D01*
X30095075Y-19127523D01*
X30095073Y-19127513D01*
X30037924Y-18914229D01*
X30037920Y-18914220D01*
X30022008Y-18880095D01*
X29590924Y-19311181D01*
X29562839Y-19326516D01*
X29551136Y-19344031D01*
X29230093Y-19344031D01*
X29232449Y-19315602D01*
X29201234Y-19192338D01*
X29131687Y-19085888D01*
X29031343Y-19007787D01*
X28911078Y-18966500D01*
X28815931Y-18966500D01*
X28722079Y-18982161D01*
X28610249Y-19042680D01*
X28524129Y-19136231D01*
X28473052Y-19252677D01*
X28462551Y-19379398D01*
X28108494Y-19379398D01*
X28140392Y-19347500D01*
X28140393Y-19347499D01*
X27672990Y-18880096D01*
X27657078Y-18914221D01*
X27657077Y-18914225D01*
X27599925Y-19127516D01*
X27599924Y-19127523D01*
X27580679Y-19347499D01*
X27580679Y-19347500D01*
X13729806Y-19347500D01*
X13732449Y-19315602D01*
X13701234Y-19192338D01*
X13631687Y-19085888D01*
X13531343Y-19007787D01*
X13411078Y-18966500D01*
X13315931Y-18966500D01*
X13222079Y-18982161D01*
X13110249Y-19042680D01*
X13024129Y-19136231D01*
X12973052Y-19252677D01*
X12962551Y-19379398D01*
X8413495Y-19379398D01*
X8500000Y-19292893D01*
X8945392Y-18847500D01*
X12088375Y-18847500D01*
X12847500Y-18847500D01*
X12847500Y-18088374D01*
X13847500Y-18088374D01*
X13847500Y-18847500D01*
X14606625Y-18847500D01*
X40088375Y-18847500D01*
X40847500Y-18847500D01*
X40847500Y-18088374D01*
X41847500Y-18088374D01*
X41847500Y-18847500D01*
X42606625Y-18847500D01*
X42606581Y-18846865D01*
X42560333Y-18660897D01*
X42475192Y-18489224D01*
X42355134Y-18339866D01*
X42355133Y-18339865D01*
X42205774Y-18219807D01*
X42205775Y-18219807D01*
X42111376Y-18172990D01*
X56380096Y-18172990D01*
X56847499Y-18640393D01*
X56847500Y-18640393D01*
X56847500Y-18640392D01*
X57314903Y-18172990D01*
X57314902Y-18172989D01*
X57280783Y-18157080D01*
X57280772Y-18157076D01*
X57067486Y-18099926D01*
X57067476Y-18099924D01*
X56847501Y-18080679D01*
X56847499Y-18080679D01*
X56627523Y-18099924D01*
X56627516Y-18099925D01*
X56414225Y-18157077D01*
X56414221Y-18157078D01*
X56380096Y-18172990D01*
X42111376Y-18172990D01*
X42034102Y-18134666D01*
X41848137Y-18088419D01*
X41848128Y-18088417D01*
X41847500Y-18088374D01*
X40847500Y-18088374D01*
X40846871Y-18088417D01*
X40846862Y-18088419D01*
X40660897Y-18134666D01*
X40489224Y-18219807D01*
X40339866Y-18339865D01*
X40339865Y-18339866D01*
X40219807Y-18489224D01*
X40134666Y-18660897D01*
X40088418Y-18846865D01*
X40088375Y-18847500D01*
X14606625Y-18847500D01*
X14606581Y-18846865D01*
X14560333Y-18660897D01*
X14475192Y-18489224D01*
X14355134Y-18339866D01*
X14355133Y-18339865D01*
X14205774Y-18219807D01*
X14205775Y-18219807D01*
X14111376Y-18172990D01*
X28380096Y-18172990D01*
X28847499Y-18640393D01*
X28847500Y-18640393D01*
X28847500Y-18640392D01*
X29314903Y-18172990D01*
X29314902Y-18172989D01*
X29280783Y-18157080D01*
X29280772Y-18157076D01*
X29067486Y-18099926D01*
X29067476Y-18099924D01*
X28847501Y-18080679D01*
X28847499Y-18080679D01*
X28627523Y-18099924D01*
X28627516Y-18099925D01*
X28414225Y-18157077D01*
X28414221Y-18157078D01*
X28380096Y-18172990D01*
X14111376Y-18172990D01*
X14034102Y-18134666D01*
X13848137Y-18088419D01*
X13848128Y-18088417D01*
X13847500Y-18088374D01*
X12847500Y-18088374D01*
X12846871Y-18088417D01*
X12846862Y-18088419D01*
X12660897Y-18134666D01*
X12489224Y-18219807D01*
X12339866Y-18339865D01*
X12339865Y-18339866D01*
X12219807Y-18489224D01*
X12134666Y-18660897D01*
X12088418Y-18846865D01*
X12088375Y-18847500D01*
X8945392Y-18847500D01*
X8995997Y-18796895D01*
X8946322Y-18773731D01*
X8726610Y-18714860D01*
X8726599Y-18714858D01*
X8500002Y-18695034D01*
X8499998Y-18695034D01*
X8273400Y-18714858D01*
X8273389Y-18714860D01*
X8156093Y-18746289D01*
X8086243Y-18744626D01*
X8028381Y-18705463D01*
X8000877Y-18641234D01*
X8000000Y-18626514D01*
X8000000Y-17500000D01*
X8400001Y-17500000D01*
X8400001Y-17699986D01*
X8410494Y-17802697D01*
X8465641Y-17969119D01*
X8465643Y-17969124D01*
X8557684Y-18118345D01*
X8681654Y-18242315D01*
X8830875Y-18334356D01*
X8830880Y-18334358D01*
X8975000Y-18382114D01*
X8975000Y-17500000D01*
X9975000Y-17500000D01*
X9975000Y-18382114D01*
X10119119Y-18334358D01*
X10119124Y-18334356D01*
X10268345Y-18242315D01*
X10392315Y-18118345D01*
X10484356Y-17969124D01*
X10484358Y-17969119D01*
X10539505Y-17802697D01*
X10539506Y-17802690D01*
X10549999Y-17699986D01*
X10550000Y-17699973D01*
X10550000Y-17500000D01*
X9975000Y-17500000D01*
X8975000Y-17500000D01*
X8400001Y-17500000D01*
X8000000Y-17500000D01*
X8000000Y-17211173D01*
X8000531Y-17203071D01*
X8014906Y-17093883D01*
X8023284Y-17062616D01*
X8060739Y-16972191D01*
X8076924Y-16944157D01*
X8084742Y-16933967D01*
X8143979Y-16856768D01*
X8149312Y-16850687D01*
X8500000Y-16500000D01*
X10549999Y-16500000D01*
X10549999Y-16300028D01*
X10549998Y-16300013D01*
X10539506Y-16197304D01*
X10528140Y-16163005D01*
X10525738Y-16093177D01*
X10561469Y-16033134D01*
X10623989Y-16001941D01*
X10645846Y-16000000D01*
X63792886Y-16000000D01*
X63792893Y-16000000D01*
X64000000Y-16000000D01*
X67000000Y-13000000D01*
X67000000Y-12830000D01*
X68088375Y-12830000D01*
X68088418Y-12830634D01*
X68134666Y-13016602D01*
X68219807Y-13188275D01*
X68339865Y-13337633D01*
X68339866Y-13337634D01*
X68489225Y-13457692D01*
X68489224Y-13457692D01*
X68660897Y-13542833D01*
X68846865Y-13589081D01*
X68847500Y-13589124D01*
X68847500Y-12830000D01*
X69847500Y-12830000D01*
X69847500Y-13589124D01*
X69848134Y-13589081D01*
X70034102Y-13542833D01*
X70111376Y-13504509D01*
X84380095Y-13504509D01*
X84414220Y-13520420D01*
X84414229Y-13520424D01*
X84627513Y-13577573D01*
X84627523Y-13577575D01*
X84847499Y-13596821D01*
X84847501Y-13596821D01*
X85067476Y-13577575D01*
X85067482Y-13577574D01*
X85280780Y-13520420D01*
X85280791Y-13520416D01*
X85314902Y-13504509D01*
X85314902Y-13504508D01*
X84844031Y-13033636D01*
X84830850Y-13042443D01*
X84827815Y-13052782D01*
X84811181Y-13073424D01*
X84380095Y-13504509D01*
X70111376Y-13504509D01*
X70205775Y-13457692D01*
X70355133Y-13337634D01*
X70355134Y-13337633D01*
X70475192Y-13188275D01*
X70560333Y-13016602D01*
X70606581Y-12830634D01*
X70606625Y-12830000D01*
X69847500Y-12830000D01*
X68847500Y-12830000D01*
X68088375Y-12830000D01*
X67000000Y-12830000D01*
X67000000Y-12361898D01*
X68962551Y-12361898D01*
X68993766Y-12485162D01*
X69063313Y-12591612D01*
X69163657Y-12669713D01*
X69283922Y-12711000D01*
X69379069Y-12711000D01*
X69472921Y-12695339D01*
X69584751Y-12634820D01*
X69670871Y-12541269D01*
X69721948Y-12424823D01*
X69729806Y-12330000D01*
X83580679Y-12330000D01*
X83599924Y-12549976D01*
X83599926Y-12549986D01*
X83657076Y-12763272D01*
X83657080Y-12763283D01*
X83672989Y-12797402D01*
X83672990Y-12797403D01*
X84108494Y-12361898D01*
X84462551Y-12361898D01*
X84493766Y-12485162D01*
X84563313Y-12591612D01*
X84663657Y-12669713D01*
X84783922Y-12711000D01*
X84879069Y-12711000D01*
X84972921Y-12695339D01*
X85084751Y-12634820D01*
X85170871Y-12541269D01*
X85221948Y-12424823D01*
X85230093Y-12326531D01*
X85551136Y-12326531D01*
X86022008Y-12797402D01*
X86022009Y-12797402D01*
X86037916Y-12763291D01*
X86037920Y-12763280D01*
X86095074Y-12549982D01*
X86095075Y-12549976D01*
X86114321Y-12330000D01*
X86114321Y-12329999D01*
X86095075Y-12110023D01*
X86095073Y-12110013D01*
X86037924Y-11896729D01*
X86037920Y-11896720D01*
X86022008Y-11862595D01*
X85590924Y-12293681D01*
X85562839Y-12309016D01*
X85551136Y-12326531D01*
X85230093Y-12326531D01*
X85232449Y-12298102D01*
X85201234Y-12174838D01*
X85131687Y-12068388D01*
X85031343Y-11990287D01*
X84911078Y-11949000D01*
X84815931Y-11949000D01*
X84722079Y-11964661D01*
X84610249Y-12025180D01*
X84524129Y-12118731D01*
X84473052Y-12235177D01*
X84462551Y-12361898D01*
X84108494Y-12361898D01*
X84140392Y-12330000D01*
X84140393Y-12329999D01*
X83672990Y-11862596D01*
X83657078Y-11896721D01*
X83657077Y-11896725D01*
X83599925Y-12110016D01*
X83599924Y-12110023D01*
X83580679Y-12329999D01*
X83580679Y-12330000D01*
X69729806Y-12330000D01*
X69732449Y-12298102D01*
X69701234Y-12174838D01*
X69631687Y-12068388D01*
X69531343Y-11990287D01*
X69411078Y-11949000D01*
X69315931Y-11949000D01*
X69222079Y-11964661D01*
X69110249Y-12025180D01*
X69024129Y-12118731D01*
X68973052Y-12235177D01*
X68962551Y-12361898D01*
X67000000Y-12361898D01*
X67000000Y-11830000D01*
X68088375Y-11830000D01*
X68847500Y-11830000D01*
X68847500Y-11070874D01*
X69847500Y-11070874D01*
X69847500Y-11830000D01*
X70606625Y-11830000D01*
X70606581Y-11829365D01*
X70560333Y-11643397D01*
X70475192Y-11471724D01*
X70355134Y-11322366D01*
X70355133Y-11322365D01*
X70205774Y-11202307D01*
X70205775Y-11202307D01*
X70111376Y-11155490D01*
X84380096Y-11155490D01*
X84847499Y-11622893D01*
X84847500Y-11622893D01*
X84847500Y-11622892D01*
X85314903Y-11155490D01*
X85314902Y-11155489D01*
X85280783Y-11139580D01*
X85280772Y-11139576D01*
X85067486Y-11082426D01*
X85067476Y-11082424D01*
X84847501Y-11063179D01*
X84847499Y-11063179D01*
X84627523Y-11082424D01*
X84627516Y-11082425D01*
X84414225Y-11139577D01*
X84414221Y-11139578D01*
X84380096Y-11155490D01*
X70111376Y-11155490D01*
X70034102Y-11117166D01*
X69848137Y-11070919D01*
X69848128Y-11070917D01*
X69847500Y-11070874D01*
X68847500Y-11070874D01*
X68846871Y-11070917D01*
X68846862Y-11070919D01*
X68660897Y-11117166D01*
X68489224Y-11202307D01*
X68339866Y-11322365D01*
X68339865Y-11322366D01*
X68219807Y-11471724D01*
X68134666Y-11643397D01*
X68088418Y-11829365D01*
X68088375Y-11830000D01*
X67000000Y-11830000D01*
X67000000Y-10000000D01*
X66853554Y-9853554D01*
X66853548Y-9853547D01*
X65436319Y-8436318D01*
X65402834Y-8374995D01*
X65400000Y-8348637D01*
X65400000Y-7000000D01*
X64256407Y-7000000D01*
X64273431Y-6963491D01*
X64334569Y-6735321D01*
X64355157Y-6500000D01*
X64334569Y-6264679D01*
X64273431Y-6036509D01*
X64256406Y-6000000D01*
X65400000Y-6000000D01*
X65400000Y-5000000D01*
X88994390Y-5000000D01*
X89002389Y-5111868D01*
X89002547Y-5116290D01*
X89002547Y-5142867D01*
X89006331Y-5169179D01*
X89006804Y-5173580D01*
X89014804Y-5285430D01*
X89014805Y-5285436D01*
X89038642Y-5395010D01*
X89039428Y-5399368D01*
X89043208Y-5425669D01*
X89050695Y-5451163D01*
X89051790Y-5455452D01*
X89075629Y-5565041D01*
X89114819Y-5670114D01*
X89116217Y-5674315D01*
X89123705Y-5699819D01*
X89134754Y-5724014D01*
X89136447Y-5728102D01*
X89175632Y-5833159D01*
X89175638Y-5833173D01*
X89229382Y-5931597D01*
X89231363Y-5935554D01*
X89242406Y-5959734D01*
X89256779Y-5982098D01*
X89259039Y-5985907D01*
X89312770Y-6084309D01*
X89312775Y-6084317D01*
X89379991Y-6174107D01*
X89382515Y-6177742D01*
X89396879Y-6200094D01*
X89414278Y-6220173D01*
X89417056Y-6223620D01*
X89484254Y-6313387D01*
X89484270Y-6313405D01*
X89563555Y-6392689D01*
X89566571Y-6395929D01*
X89583979Y-6416018D01*
X89604070Y-6433428D01*
X89607310Y-6436445D01*
X89686594Y-6515729D01*
X89686612Y-6515745D01*
X89776370Y-6582936D01*
X89779816Y-6585713D01*
X89799903Y-6603118D01*
X89822263Y-6617488D01*
X89825899Y-6620013D01*
X89908818Y-6682086D01*
X89915685Y-6687226D01*
X90014104Y-6740967D01*
X90017902Y-6743220D01*
X90040269Y-6757594D01*
X90064452Y-6768638D01*
X90068388Y-6770608D01*
X90166839Y-6824367D01*
X90271946Y-6863570D01*
X90275984Y-6865243D01*
X90300183Y-6876295D01*
X90325695Y-6883785D01*
X90329880Y-6885178D01*
X90434954Y-6924369D01*
X90434960Y-6924370D01*
X90434962Y-6924371D01*
X90482218Y-6934650D01*
X90544551Y-6948210D01*
X90548831Y-6949303D01*
X90574320Y-6956787D01*
X90600636Y-6960571D01*
X90604971Y-6961353D01*
X90714572Y-6985196D01*
X90826441Y-6993196D01*
X90830826Y-6993668D01*
X90857144Y-6997452D01*
X90883721Y-6997452D01*
X90888143Y-6997609D01*
X90921561Y-7000000D01*
X90999999Y-7005610D01*
X91000000Y-7005610D01*
X91000001Y-7005610D01*
X91040160Y-7002737D01*
X91111857Y-6997609D01*
X91116278Y-6997452D01*
X91142854Y-6997452D01*
X91169172Y-6993668D01*
X91173549Y-6993197D01*
X91285428Y-6985196D01*
X91395052Y-6961348D01*
X91399360Y-6960571D01*
X91425678Y-6956787D01*
X91451159Y-6949305D01*
X91455421Y-6948216D01*
X91565046Y-6924369D01*
X91670119Y-6885178D01*
X91674310Y-6883784D01*
X91699815Y-6876294D01*
X91724002Y-6865248D01*
X91728053Y-6863570D01*
X91833161Y-6824367D01*
X91931600Y-6770614D01*
X91935556Y-6768634D01*
X91959731Y-6757592D01*
X91982086Y-6743227D01*
X91985869Y-6740981D01*
X92084315Y-6687226D01*
X92174133Y-6619988D01*
X92177737Y-6617487D01*
X92200098Y-6603115D01*
X92220185Y-6585711D01*
X92223605Y-6582954D01*
X92313395Y-6515739D01*
X92392725Y-6436408D01*
X92395924Y-6433431D01*
X92416018Y-6416018D01*
X92433431Y-6395924D01*
X92436408Y-6392725D01*
X92515739Y-6313395D01*
X92582954Y-6223605D01*
X92585711Y-6220185D01*
X92603115Y-6200098D01*
X92617487Y-6177737D01*
X92619988Y-6174133D01*
X92687226Y-6084315D01*
X92740981Y-5985869D01*
X92743227Y-5982086D01*
X92757592Y-5959731D01*
X92768634Y-5935556D01*
X92770616Y-5931598D01*
X92794514Y-5887832D01*
X92824367Y-5833161D01*
X92863570Y-5728053D01*
X92865248Y-5724002D01*
X92876294Y-5699815D01*
X92883784Y-5674310D01*
X92885178Y-5670119D01*
X92924369Y-5565046D01*
X92948214Y-5455428D01*
X92949304Y-5451161D01*
X92956787Y-5425676D01*
X92960571Y-5399363D01*
X92961348Y-5395055D01*
X92985196Y-5285428D01*
X92993197Y-5173555D01*
X92993665Y-5169200D01*
X92997214Y-5144520D01*
X92996609Y-5140101D01*
X92998010Y-5111584D01*
X92998107Y-5106142D01*
X92998252Y-5102868D01*
X93005610Y-5000000D01*
X92998252Y-4897134D01*
X92998106Y-4893854D01*
X92998010Y-4888416D01*
X92996609Y-4859898D01*
X92997386Y-4856674D01*
X92993665Y-4830797D01*
X92993195Y-4826418D01*
X92985196Y-4714572D01*
X92961354Y-4604973D01*
X92960571Y-4600633D01*
X92956786Y-4574317D01*
X92949303Y-4548832D01*
X92948208Y-4544542D01*
X92924371Y-4434962D01*
X92924370Y-4434960D01*
X92924369Y-4434954D01*
X92885178Y-4329880D01*
X92883785Y-4325695D01*
X92876295Y-4300183D01*
X92865243Y-4275984D01*
X92863570Y-4271946D01*
X92824367Y-4166839D01*
X92770608Y-4068388D01*
X92768638Y-4064452D01*
X92757594Y-4040269D01*
X92743220Y-4017902D01*
X92740968Y-4014106D01*
X92687226Y-3915685D01*
X92686129Y-3914220D01*
X92620013Y-3825899D01*
X92617488Y-3822263D01*
X92603118Y-3799903D01*
X92585713Y-3779816D01*
X92582936Y-3776370D01*
X92515745Y-3686612D01*
X92515729Y-3686594D01*
X92436445Y-3607310D01*
X92433428Y-3604070D01*
X92416018Y-3583979D01*
X92395929Y-3566571D01*
X92392689Y-3563555D01*
X92313405Y-3484270D01*
X92313387Y-3484254D01*
X92223620Y-3417056D01*
X92220173Y-3414278D01*
X92200094Y-3396879D01*
X92177742Y-3382515D01*
X92174107Y-3379991D01*
X92084317Y-3312775D01*
X92084309Y-3312770D01*
X91985907Y-3259039D01*
X91982098Y-3256779D01*
X91959734Y-3242406D01*
X91935554Y-3231363D01*
X91931597Y-3229382D01*
X91833173Y-3175638D01*
X91833159Y-3175632D01*
X91728102Y-3136447D01*
X91724014Y-3134754D01*
X91699819Y-3123705D01*
X91674315Y-3116217D01*
X91670114Y-3114819D01*
X91565041Y-3075629D01*
X91455452Y-3051790D01*
X91451163Y-3050695D01*
X91425669Y-3043208D01*
X91399368Y-3039428D01*
X91395010Y-3038642D01*
X91285436Y-3014805D01*
X91285430Y-3014804D01*
X91173580Y-3006804D01*
X91169178Y-3006331D01*
X91142868Y-3002548D01*
X91116294Y-3002548D01*
X91111870Y-3002390D01*
X91000002Y-2994390D01*
X90999998Y-2994390D01*
X90888129Y-3002390D01*
X90883705Y-3002548D01*
X90857130Y-3002548D01*
X90830819Y-3006331D01*
X90826418Y-3006804D01*
X90714575Y-3014803D01*
X90714558Y-3014806D01*
X90604986Y-3038642D01*
X90600631Y-3039428D01*
X90574323Y-3043210D01*
X90548831Y-3050696D01*
X90544542Y-3051791D01*
X90434955Y-3075630D01*
X90329892Y-3114817D01*
X90325690Y-3116215D01*
X90300178Y-3123705D01*
X90275989Y-3134753D01*
X90271900Y-3136447D01*
X90216587Y-3157078D01*
X90166839Y-3175633D01*
X90166831Y-3175636D01*
X90068411Y-3229377D01*
X90064454Y-3231358D01*
X90040262Y-3242406D01*
X90017896Y-3256780D01*
X90014089Y-3259039D01*
X89929921Y-3305000D01*
X89915685Y-3312774D01*
X89915683Y-3312775D01*
X89915682Y-3312776D01*
X89825898Y-3379986D01*
X89822262Y-3382510D01*
X89799902Y-3396880D01*
X89779830Y-3414275D01*
X89776382Y-3417053D01*
X89686619Y-3484249D01*
X89686604Y-3484262D01*
X89607310Y-3563553D01*
X89604071Y-3566569D01*
X89583979Y-3583979D01*
X89566569Y-3604071D01*
X89563553Y-3607310D01*
X89484262Y-3686604D01*
X89484249Y-3686619D01*
X89417053Y-3776382D01*
X89414275Y-3779830D01*
X89396880Y-3799902D01*
X89382510Y-3822262D01*
X89379986Y-3825898D01*
X89312776Y-3915682D01*
X89259039Y-4014089D01*
X89256780Y-4017896D01*
X89242406Y-4040262D01*
X89231358Y-4064454D01*
X89229377Y-4068411D01*
X89175636Y-4166831D01*
X89175633Y-4166839D01*
X89144616Y-4250000D01*
X89136448Y-4271898D01*
X89134753Y-4275989D01*
X89123705Y-4300178D01*
X89116215Y-4325690D01*
X89114817Y-4329892D01*
X89075630Y-4434955D01*
X89051791Y-4544542D01*
X89050696Y-4548831D01*
X89043210Y-4574323D01*
X89039428Y-4600631D01*
X89038642Y-4604986D01*
X89014806Y-4714558D01*
X89014803Y-4714575D01*
X89006804Y-4826418D01*
X89006331Y-4830819D01*
X89002547Y-4857130D01*
X89002547Y-4883708D01*
X89002389Y-4888129D01*
X88994390Y-4999996D01*
X88994390Y-5000000D01*
X65400000Y-5000000D01*
X65400000Y-4552172D01*
X65399999Y-4552155D01*
X65393598Y-4492627D01*
X65393596Y-4492620D01*
X65343354Y-4357913D01*
X65343350Y-4357906D01*
X65257190Y-4242812D01*
X65257187Y-4242809D01*
X65142093Y-4156649D01*
X65142086Y-4156645D01*
X65007379Y-4106403D01*
X65007372Y-4106401D01*
X64947844Y-4100000D01*
X63500000Y-4100000D01*
X63500000Y-5243593D01*
X63463491Y-5226569D01*
X63235321Y-5165431D01*
X63058945Y-5150000D01*
X62941055Y-5150000D01*
X62764679Y-5165431D01*
X62536509Y-5226569D01*
X62500000Y-5243593D01*
X62500000Y-4100000D01*
X61052155Y-4100000D01*
X60992627Y-4106401D01*
X60992620Y-4106403D01*
X60857913Y-4156645D01*
X60857906Y-4156649D01*
X60742812Y-4242809D01*
X60742809Y-4242812D01*
X60656649Y-4357906D01*
X60656645Y-4357913D01*
X60606403Y-4492620D01*
X60606401Y-4492627D01*
X60600000Y-4552155D01*
X60600000Y-6000000D01*
X61743593Y-6000000D01*
X61726569Y-6036509D01*
X61665431Y-6264679D01*
X61644843Y-6500000D01*
X61665431Y-6735321D01*
X61726569Y-6963491D01*
X61743594Y-7000000D01*
X60600000Y-7000000D01*
X60600000Y-7876000D01*
X60580315Y-7943039D01*
X60527511Y-7988794D01*
X60476000Y-8000000D01*
X37524000Y-8000000D01*
X37456961Y-7980315D01*
X37411206Y-7927511D01*
X37400000Y-7876000D01*
X37400000Y-7000000D01*
X36256407Y-7000000D01*
X36273431Y-6963491D01*
X36334569Y-6735321D01*
X36355157Y-6500000D01*
X36334569Y-6264679D01*
X36273431Y-6036509D01*
X36256406Y-6000000D01*
X37399999Y-6000000D01*
X37400000Y-4847500D01*
X40088375Y-4847500D01*
X40088418Y-4848134D01*
X40134666Y-5034102D01*
X40219807Y-5205775D01*
X40339865Y-5355133D01*
X40339866Y-5355134D01*
X40489225Y-5475192D01*
X40489224Y-5475192D01*
X40660897Y-5560333D01*
X40846865Y-5606581D01*
X40847500Y-5606624D01*
X40847500Y-4847500D01*
X41847500Y-4847500D01*
X41847500Y-5606624D01*
X41848134Y-5606581D01*
X42034102Y-5560333D01*
X42111376Y-5522009D01*
X56380095Y-5522009D01*
X56414220Y-5537920D01*
X56414229Y-5537924D01*
X56627513Y-5595073D01*
X56627523Y-5595075D01*
X56847499Y-5614321D01*
X56847501Y-5614321D01*
X57067476Y-5595075D01*
X57067482Y-5595074D01*
X57280780Y-5537920D01*
X57280791Y-5537916D01*
X57314902Y-5522009D01*
X57314902Y-5522008D01*
X56844031Y-5051136D01*
X56830850Y-5059943D01*
X56827815Y-5070281D01*
X56811181Y-5090923D01*
X56380095Y-5522009D01*
X42111376Y-5522009D01*
X42205775Y-5475192D01*
X42355133Y-5355134D01*
X42355134Y-5355133D01*
X42475192Y-5205775D01*
X42560333Y-5034102D01*
X42606581Y-4848134D01*
X42606625Y-4847500D01*
X41847500Y-4847500D01*
X40847500Y-4847500D01*
X40088375Y-4847500D01*
X37400000Y-4847500D01*
X37400000Y-4552172D01*
X37399999Y-4552155D01*
X37393598Y-4492627D01*
X37393596Y-4492620D01*
X37351367Y-4379398D01*
X40962551Y-4379398D01*
X40993766Y-4502662D01*
X41063313Y-4609112D01*
X41163657Y-4687213D01*
X41283922Y-4728500D01*
X41379069Y-4728500D01*
X41472921Y-4712839D01*
X41584751Y-4652320D01*
X41670871Y-4558769D01*
X41721948Y-4442323D01*
X41729806Y-4347500D01*
X55580679Y-4347500D01*
X55599924Y-4567476D01*
X55599926Y-4567486D01*
X55657076Y-4780772D01*
X55657080Y-4780783D01*
X55672989Y-4814902D01*
X55672990Y-4814903D01*
X56108494Y-4379398D01*
X56462551Y-4379398D01*
X56493766Y-4502662D01*
X56563313Y-4609112D01*
X56663657Y-4687213D01*
X56783922Y-4728500D01*
X56879069Y-4728500D01*
X56972921Y-4712839D01*
X57084751Y-4652320D01*
X57170871Y-4558769D01*
X57221948Y-4442323D01*
X57230093Y-4344031D01*
X57551136Y-4344031D01*
X58022008Y-4814902D01*
X58022009Y-4814902D01*
X58037916Y-4780791D01*
X58037920Y-4780780D01*
X58095074Y-4567482D01*
X58095075Y-4567476D01*
X58114321Y-4347500D01*
X58114321Y-4347499D01*
X58095075Y-4127523D01*
X58095073Y-4127513D01*
X58037924Y-3914229D01*
X58037920Y-3914220D01*
X58022008Y-3880095D01*
X57590924Y-4311181D01*
X57562839Y-4326516D01*
X57551136Y-4344031D01*
X57230093Y-4344031D01*
X57232449Y-4315602D01*
X57201234Y-4192338D01*
X57131687Y-4085888D01*
X57031343Y-4007787D01*
X56911078Y-3966500D01*
X56815931Y-3966500D01*
X56722079Y-3982161D01*
X56610249Y-4042680D01*
X56524129Y-4136231D01*
X56473052Y-4252677D01*
X56462551Y-4379398D01*
X56108494Y-4379398D01*
X56140392Y-4347500D01*
X56140393Y-4347499D01*
X55672990Y-3880096D01*
X55657078Y-3914221D01*
X55657077Y-3914225D01*
X55599925Y-4127516D01*
X55599924Y-4127523D01*
X55580679Y-4347499D01*
X55580679Y-4347500D01*
X41729806Y-4347500D01*
X41732449Y-4315602D01*
X41701234Y-4192338D01*
X41631687Y-4085888D01*
X41531343Y-4007787D01*
X41411078Y-3966500D01*
X41315931Y-3966500D01*
X41222079Y-3982161D01*
X41110249Y-4042680D01*
X41024129Y-4136231D01*
X40973052Y-4252677D01*
X40962551Y-4379398D01*
X37351367Y-4379398D01*
X37343354Y-4357913D01*
X37343350Y-4357906D01*
X37257190Y-4242812D01*
X37257187Y-4242809D01*
X37142093Y-4156649D01*
X37142086Y-4156645D01*
X37007379Y-4106403D01*
X37007372Y-4106401D01*
X36947844Y-4100000D01*
X35500000Y-4100000D01*
X35500000Y-5243593D01*
X35463491Y-5226569D01*
X35235321Y-5165431D01*
X35058945Y-5150000D01*
X34941055Y-5150000D01*
X34764679Y-5165431D01*
X34536509Y-5226569D01*
X34500000Y-5243593D01*
X34500000Y-4100000D01*
X33052155Y-4100000D01*
X32992627Y-4106401D01*
X32992620Y-4106403D01*
X32857913Y-4156645D01*
X32857906Y-4156649D01*
X32742812Y-4242809D01*
X32742809Y-4242812D01*
X32656649Y-4357906D01*
X32656645Y-4357913D01*
X32606403Y-4492620D01*
X32606401Y-4492627D01*
X32600000Y-4552155D01*
X32600000Y-6000000D01*
X33743593Y-6000000D01*
X33726569Y-6036509D01*
X33665431Y-6264679D01*
X33644843Y-6500000D01*
X33665431Y-6735321D01*
X33726569Y-6963491D01*
X33743594Y-7000000D01*
X32600000Y-7000000D01*
X32600000Y-7876000D01*
X32580315Y-7943039D01*
X32527511Y-7988794D01*
X32476000Y-8000000D01*
X29524000Y-8000000D01*
X29456961Y-7980315D01*
X29411206Y-7927511D01*
X29400000Y-7876000D01*
X29400000Y-7000000D01*
X28256407Y-7000000D01*
X28273431Y-6963491D01*
X28334569Y-6735321D01*
X28355157Y-6500000D01*
X28334569Y-6264679D01*
X28273431Y-6036509D01*
X28256406Y-6000000D01*
X29400000Y-6000000D01*
X29400000Y-4552172D01*
X29399999Y-4552155D01*
X29393598Y-4492627D01*
X29393596Y-4492620D01*
X29343354Y-4357913D01*
X29343350Y-4357906D01*
X29257190Y-4242812D01*
X29257187Y-4242809D01*
X29142093Y-4156649D01*
X29142086Y-4156645D01*
X29007379Y-4106403D01*
X29007372Y-4106401D01*
X28947844Y-4100000D01*
X27500000Y-4100000D01*
X27500000Y-5243593D01*
X27463491Y-5226569D01*
X27235321Y-5165431D01*
X27058945Y-5150000D01*
X26941055Y-5150000D01*
X26764679Y-5165431D01*
X26536509Y-5226569D01*
X26500000Y-5243593D01*
X26500000Y-4100000D01*
X25052155Y-4100000D01*
X24992627Y-4106401D01*
X24992620Y-4106403D01*
X24857913Y-4156645D01*
X24857906Y-4156649D01*
X24742812Y-4242809D01*
X24742809Y-4242812D01*
X24656649Y-4357906D01*
X24656645Y-4357913D01*
X24606403Y-4492620D01*
X24606401Y-4492627D01*
X24600000Y-4552155D01*
X24600000Y-4552172D01*
X24599999Y-5999999D01*
X24600000Y-6000000D01*
X25743593Y-6000000D01*
X25726569Y-6036509D01*
X25665431Y-6264679D01*
X25644843Y-6500000D01*
X25665431Y-6735321D01*
X25726569Y-6963491D01*
X25743594Y-7000000D01*
X24600000Y-7000000D01*
X24600000Y-7876000D01*
X24580315Y-7943039D01*
X24527511Y-7988794D01*
X24476000Y-8000000D01*
X21524000Y-8000000D01*
X21456961Y-7980315D01*
X21411206Y-7927511D01*
X21400000Y-7876000D01*
X21400000Y-7000000D01*
X20256407Y-7000000D01*
X20273431Y-6963491D01*
X20334569Y-6735321D01*
X20355157Y-6500000D01*
X20334569Y-6264679D01*
X20273431Y-6036509D01*
X20256406Y-6000000D01*
X21400000Y-6000000D01*
X21400000Y-4552172D01*
X21399999Y-4552155D01*
X21393598Y-4492627D01*
X21393596Y-4492620D01*
X21343354Y-4357913D01*
X21343350Y-4357906D01*
X21257190Y-4242812D01*
X21257187Y-4242809D01*
X21142093Y-4156649D01*
X21142086Y-4156645D01*
X21007379Y-4106403D01*
X21007372Y-4106401D01*
X20947844Y-4100000D01*
X19500000Y-4100000D01*
X19500000Y-5243593D01*
X19463491Y-5226569D01*
X19235321Y-5165431D01*
X19058945Y-5150000D01*
X18941055Y-5150000D01*
X18764679Y-5165431D01*
X18536509Y-5226569D01*
X18500000Y-5243593D01*
X18500000Y-4100000D01*
X17052155Y-4100000D01*
X16992627Y-4106401D01*
X16992620Y-4106403D01*
X16857913Y-4156645D01*
X16857906Y-4156649D01*
X16742812Y-4242809D01*
X16742809Y-4242812D01*
X16656649Y-4357906D01*
X16656645Y-4357913D01*
X16606403Y-4492620D01*
X16606401Y-4492627D01*
X16600000Y-4552155D01*
X16600000Y-6000000D01*
X17743593Y-6000000D01*
X17726569Y-6036509D01*
X17665431Y-6264679D01*
X17644843Y-6500000D01*
X17665431Y-6735321D01*
X17726569Y-6963491D01*
X17743594Y-7000000D01*
X16600000Y-7000000D01*
X16600000Y-7876000D01*
X16580315Y-7943039D01*
X16527511Y-7988794D01*
X16476000Y-8000000D01*
X14110022Y-8000000D01*
X14042983Y-7980315D01*
X13997228Y-7927511D01*
X13987284Y-7858353D01*
X14016309Y-7794797D01*
X14022341Y-7788319D01*
X14142315Y-7668344D01*
X14234356Y-7519122D01*
X14234358Y-7519117D01*
X14289505Y-7352695D01*
X14289506Y-7352688D01*
X14299999Y-7249984D01*
X14300000Y-7249971D01*
X14300000Y-6000000D01*
X12995682Y-6000000D01*
X13043625Y-5887832D01*
X13093693Y-5668470D01*
X13103788Y-5443692D01*
X13073585Y-5220725D01*
X13004055Y-5006733D01*
X13000432Y-5000000D01*
X14299999Y-5000000D01*
X14299999Y-3847500D01*
X40088375Y-3847500D01*
X40847500Y-3847500D01*
X40847500Y-3088374D01*
X41847500Y-3088374D01*
X41847500Y-3847500D01*
X42606625Y-3847500D01*
X42606581Y-3846865D01*
X42560333Y-3660897D01*
X42475192Y-3489224D01*
X42355134Y-3339866D01*
X42355133Y-3339865D01*
X42205774Y-3219807D01*
X42205775Y-3219807D01*
X42111376Y-3172990D01*
X56380096Y-3172990D01*
X56847499Y-3640393D01*
X56847500Y-3640393D01*
X56847500Y-3640392D01*
X57314903Y-3172990D01*
X57314902Y-3172989D01*
X57280783Y-3157080D01*
X57280772Y-3157076D01*
X57067486Y-3099926D01*
X57067476Y-3099924D01*
X56847501Y-3080679D01*
X56847499Y-3080679D01*
X56627523Y-3099924D01*
X56627516Y-3099925D01*
X56414225Y-3157077D01*
X56414221Y-3157078D01*
X56380096Y-3172990D01*
X42111376Y-3172990D01*
X42034102Y-3134666D01*
X41848137Y-3088419D01*
X41848128Y-3088417D01*
X41847500Y-3088374D01*
X40847500Y-3088374D01*
X40846871Y-3088417D01*
X40846862Y-3088419D01*
X40660897Y-3134666D01*
X40489224Y-3219807D01*
X40339866Y-3339865D01*
X40339865Y-3339866D01*
X40219807Y-3489224D01*
X40134666Y-3660897D01*
X40088418Y-3846865D01*
X40088375Y-3847500D01*
X14299999Y-3847500D01*
X14299999Y-3750030D01*
X14299998Y-3750015D01*
X14289505Y-3647304D01*
X14234358Y-3480882D01*
X14234356Y-3480877D01*
X14142315Y-3331655D01*
X14018344Y-3207684D01*
X13869122Y-3115643D01*
X13869117Y-3115641D01*
X13702695Y-3060494D01*
X13702688Y-3060493D01*
X13599984Y-3050000D01*
X12350000Y-3050000D01*
X12350000Y-4352518D01*
X12183890Y-4290176D01*
X11962502Y-4250000D01*
X11793867Y-4250000D01*
X11625902Y-4265117D01*
X11409006Y-4324977D01*
X11350000Y-4353392D01*
X11350000Y-3050000D01*
X10100030Y-3050000D01*
X10100014Y-3050001D01*
X9997304Y-3060494D01*
X9830882Y-3115641D01*
X9830877Y-3115643D01*
X9681655Y-3207684D01*
X9557684Y-3331655D01*
X9465643Y-3480877D01*
X9465641Y-3480882D01*
X9410494Y-3647304D01*
X9410493Y-3647311D01*
X9400000Y-3750015D01*
X9400000Y-5000000D01*
X10704318Y-5000000D01*
X10656375Y-5112168D01*
X10606307Y-5331530D01*
X10596212Y-5556308D01*
X10626415Y-5779275D01*
X10695945Y-5993267D01*
X10699568Y-6000000D01*
X9400001Y-6000000D01*
X9400001Y-7249984D01*
X9410494Y-7352695D01*
X9465641Y-7519117D01*
X9465643Y-7519122D01*
X9557684Y-7668344D01*
X9686764Y-7797424D01*
X9685562Y-7798625D01*
X9720758Y-7848331D01*
X9723896Y-7918130D01*
X9688800Y-7978546D01*
X9646908Y-8000000D01*
X9500000Y-8000000D01*
X9353558Y-8146441D01*
X9353554Y-8146445D01*
X9353547Y-8146451D01*
X8611680Y-8888319D01*
X8550357Y-8921804D01*
X8480665Y-8916820D01*
X8424732Y-8874948D01*
X8400315Y-8809484D01*
X8399999Y-8800638D01*
X8399999Y-8650028D01*
X8399998Y-8650013D01*
X8389505Y-8547302D01*
X8334358Y-8380880D01*
X8334356Y-8380875D01*
X8242315Y-8231654D01*
X8118345Y-8107684D01*
X7969124Y-8015643D01*
X7969119Y-8015641D01*
X7802697Y-7960494D01*
X7802690Y-7960493D01*
X7699986Y-7950000D01*
X7500000Y-7950000D01*
X7500000Y-9401000D01*
X7480315Y-9468039D01*
X7443430Y-9500000D01*
X504066Y-9500000D01*
X495968Y-9499469D01*
X472457Y-9496374D01*
X386775Y-9485093D01*
X355508Y-9476715D01*
X265081Y-9439259D01*
X237048Y-9423074D01*
X159398Y-9363491D01*
X136508Y-9340601D01*
X76925Y-9262951D01*
X60740Y-9234918D01*
X23284Y-9144491D01*
X14906Y-9113223D01*
X1031Y-9007831D01*
X500Y-8999730D01*
X500Y-8525000D01*
X5617885Y-8525000D01*
X6500000Y-8525000D01*
X6500000Y-7950000D01*
X6300029Y-7950000D01*
X6300012Y-7950001D01*
X6197302Y-7960494D01*
X6030880Y-8015641D01*
X6030875Y-8015643D01*
X5881654Y-8107684D01*
X5757684Y-8231654D01*
X5665643Y-8380875D01*
X5665641Y-8380880D01*
X5617885Y-8525000D01*
X500Y-8525000D01*
X500Y-5000000D01*
X2994390Y-5000000D01*
X3002390Y-5111869D01*
X3002548Y-5116293D01*
X3002548Y-5142868D01*
X3006331Y-5169179D01*
X3006804Y-5173580D01*
X3014804Y-5285430D01*
X3014805Y-5285436D01*
X3038642Y-5395010D01*
X3039428Y-5399368D01*
X3043208Y-5425669D01*
X3050695Y-5451163D01*
X3051790Y-5455452D01*
X3075629Y-5565041D01*
X3114819Y-5670114D01*
X3116217Y-5674315D01*
X3123705Y-5699819D01*
X3134754Y-5724014D01*
X3136447Y-5728102D01*
X3175632Y-5833159D01*
X3175638Y-5833173D01*
X3229382Y-5931597D01*
X3231363Y-5935554D01*
X3242406Y-5959734D01*
X3256779Y-5982098D01*
X3259039Y-5985907D01*
X3312770Y-6084309D01*
X3312775Y-6084317D01*
X3379991Y-6174107D01*
X3382515Y-6177742D01*
X3396879Y-6200094D01*
X3414278Y-6220173D01*
X3417056Y-6223620D01*
X3484254Y-6313387D01*
X3484270Y-6313405D01*
X3563555Y-6392689D01*
X3566571Y-6395929D01*
X3583979Y-6416018D01*
X3604070Y-6433428D01*
X3607310Y-6436445D01*
X3686594Y-6515729D01*
X3686612Y-6515745D01*
X3776370Y-6582936D01*
X3779816Y-6585713D01*
X3799903Y-6603118D01*
X3822263Y-6617488D01*
X3825899Y-6620013D01*
X3908818Y-6682086D01*
X3915685Y-6687226D01*
X4014104Y-6740967D01*
X4017902Y-6743220D01*
X4040269Y-6757594D01*
X4064452Y-6768638D01*
X4068388Y-6770608D01*
X4166839Y-6824367D01*
X4271946Y-6863570D01*
X4275984Y-6865243D01*
X4300183Y-6876295D01*
X4325695Y-6883785D01*
X4329880Y-6885178D01*
X4434954Y-6924369D01*
X4434960Y-6924370D01*
X4434962Y-6924371D01*
X4482218Y-6934650D01*
X4544551Y-6948210D01*
X4548831Y-6949303D01*
X4574320Y-6956787D01*
X4600636Y-6960571D01*
X4604971Y-6961353D01*
X4714572Y-6985196D01*
X4826441Y-6993196D01*
X4830826Y-6993668D01*
X4857144Y-6997452D01*
X4883721Y-6997452D01*
X4888143Y-6997609D01*
X4921561Y-7000000D01*
X4999999Y-7005610D01*
X5000000Y-7005610D01*
X5000001Y-7005610D01*
X5040160Y-7002737D01*
X5111857Y-6997609D01*
X5116278Y-6997452D01*
X5142854Y-6997452D01*
X5169172Y-6993668D01*
X5173549Y-6993197D01*
X5285428Y-6985196D01*
X5395052Y-6961348D01*
X5399360Y-6960571D01*
X5425678Y-6956787D01*
X5451159Y-6949305D01*
X5455421Y-6948216D01*
X5565046Y-6924369D01*
X5670119Y-6885178D01*
X5674310Y-6883784D01*
X5699815Y-6876294D01*
X5724002Y-6865248D01*
X5728053Y-6863570D01*
X5833161Y-6824367D01*
X5931600Y-6770614D01*
X5935556Y-6768634D01*
X5959731Y-6757592D01*
X5982086Y-6743227D01*
X5985869Y-6740981D01*
X6084315Y-6687226D01*
X6174133Y-6619988D01*
X6177737Y-6617487D01*
X6200098Y-6603115D01*
X6220185Y-6585711D01*
X6223605Y-6582954D01*
X6313395Y-6515739D01*
X6392725Y-6436408D01*
X6395924Y-6433431D01*
X6416018Y-6416018D01*
X6433431Y-6395924D01*
X6436408Y-6392725D01*
X6515739Y-6313395D01*
X6582954Y-6223605D01*
X6585711Y-6220185D01*
X6603115Y-6200098D01*
X6617487Y-6177737D01*
X6619988Y-6174133D01*
X6687226Y-6084315D01*
X6740981Y-5985869D01*
X6743227Y-5982086D01*
X6757592Y-5959731D01*
X6768634Y-5935556D01*
X6770616Y-5931598D01*
X6794514Y-5887832D01*
X6824367Y-5833161D01*
X6863570Y-5728053D01*
X6865248Y-5724002D01*
X6876294Y-5699815D01*
X6883784Y-5674310D01*
X6885178Y-5670119D01*
X6924369Y-5565046D01*
X6948214Y-5455428D01*
X6949304Y-5451161D01*
X6956787Y-5425676D01*
X6960571Y-5399363D01*
X6961348Y-5395055D01*
X6985196Y-5285428D01*
X6993197Y-5173555D01*
X6993665Y-5169200D01*
X6997214Y-5144520D01*
X6996609Y-5140101D01*
X6998010Y-5111584D01*
X6998107Y-5106142D01*
X6998252Y-5102868D01*
X7005610Y-5000000D01*
X6998252Y-4897134D01*
X6998106Y-4893854D01*
X6998010Y-4888416D01*
X6996609Y-4859898D01*
X6997386Y-4856674D01*
X6993665Y-4830797D01*
X6993195Y-4826418D01*
X6985196Y-4714572D01*
X6961354Y-4604973D01*
X6960571Y-4600633D01*
X6956786Y-4574317D01*
X6949303Y-4548832D01*
X6948208Y-4544542D01*
X6924371Y-4434962D01*
X6924370Y-4434960D01*
X6924369Y-4434954D01*
X6885178Y-4329880D01*
X6883785Y-4325695D01*
X6876295Y-4300183D01*
X6865243Y-4275984D01*
X6863570Y-4271946D01*
X6824367Y-4166839D01*
X6770608Y-4068388D01*
X6768638Y-4064452D01*
X6757594Y-4040269D01*
X6743220Y-4017902D01*
X6740968Y-4014106D01*
X6687226Y-3915685D01*
X6686129Y-3914220D01*
X6620013Y-3825899D01*
X6617488Y-3822263D01*
X6603118Y-3799903D01*
X6585713Y-3779816D01*
X6582936Y-3776370D01*
X6515745Y-3686612D01*
X6515729Y-3686594D01*
X6436445Y-3607310D01*
X6433428Y-3604070D01*
X6416018Y-3583979D01*
X6395929Y-3566571D01*
X6392689Y-3563555D01*
X6313405Y-3484270D01*
X6313387Y-3484254D01*
X6223620Y-3417056D01*
X6220173Y-3414278D01*
X6200094Y-3396879D01*
X6177742Y-3382515D01*
X6174107Y-3379991D01*
X6084317Y-3312775D01*
X6084309Y-3312770D01*
X5985907Y-3259039D01*
X5982098Y-3256779D01*
X5959734Y-3242406D01*
X5935554Y-3231363D01*
X5931597Y-3229382D01*
X5833173Y-3175638D01*
X5833159Y-3175632D01*
X5728102Y-3136447D01*
X5724014Y-3134754D01*
X5699819Y-3123705D01*
X5674315Y-3116217D01*
X5670114Y-3114819D01*
X5565041Y-3075629D01*
X5455452Y-3051790D01*
X5451163Y-3050695D01*
X5425669Y-3043208D01*
X5399368Y-3039428D01*
X5395010Y-3038642D01*
X5285436Y-3014805D01*
X5285430Y-3014804D01*
X5173580Y-3006804D01*
X5169178Y-3006331D01*
X5142868Y-3002548D01*
X5116294Y-3002548D01*
X5111870Y-3002390D01*
X5000002Y-2994390D01*
X4999998Y-2994390D01*
X4888129Y-3002390D01*
X4883705Y-3002548D01*
X4857130Y-3002548D01*
X4830819Y-3006331D01*
X4826418Y-3006804D01*
X4714575Y-3014803D01*
X4714558Y-3014806D01*
X4604986Y-3038642D01*
X4600631Y-3039428D01*
X4574323Y-3043210D01*
X4548831Y-3050696D01*
X4544542Y-3051791D01*
X4434955Y-3075630D01*
X4329892Y-3114817D01*
X4325690Y-3116215D01*
X4300178Y-3123705D01*
X4275989Y-3134753D01*
X4271900Y-3136447D01*
X4216587Y-3157078D01*
X4166839Y-3175633D01*
X4166831Y-3175636D01*
X4068411Y-3229377D01*
X4064454Y-3231358D01*
X4040262Y-3242406D01*
X4017896Y-3256780D01*
X4014089Y-3259039D01*
X3929921Y-3305000D01*
X3915685Y-3312774D01*
X3915683Y-3312775D01*
X3915682Y-3312776D01*
X3825898Y-3379986D01*
X3822262Y-3382510D01*
X3799902Y-3396880D01*
X3779830Y-3414275D01*
X3776382Y-3417053D01*
X3686619Y-3484249D01*
X3686604Y-3484262D01*
X3607310Y-3563553D01*
X3604071Y-3566569D01*
X3583979Y-3583979D01*
X3566569Y-3604071D01*
X3563553Y-3607310D01*
X3484262Y-3686604D01*
X3484249Y-3686619D01*
X3417053Y-3776382D01*
X3414275Y-3779830D01*
X3396880Y-3799902D01*
X3382510Y-3822262D01*
X3379986Y-3825898D01*
X3312776Y-3915682D01*
X3259039Y-4014089D01*
X3256780Y-4017896D01*
X3242406Y-4040262D01*
X3231358Y-4064454D01*
X3229377Y-4068411D01*
X3175636Y-4166831D01*
X3175633Y-4166839D01*
X3144616Y-4250000D01*
X3136448Y-4271898D01*
X3134753Y-4275989D01*
X3123705Y-4300178D01*
X3116215Y-4325690D01*
X3114817Y-4329892D01*
X3075630Y-4434955D01*
X3051791Y-4544542D01*
X3050696Y-4548831D01*
X3043210Y-4574323D01*
X3039428Y-4600631D01*
X3038642Y-4604986D01*
X3014806Y-4714558D01*
X3014803Y-4714575D01*
X3006804Y-4826418D01*
X3006331Y-4830819D01*
X3002548Y-4857129D01*
X3002548Y-4883705D01*
X3002390Y-4888129D01*
X2994390Y-4999998D01*
X2994390Y-5000000D01*
X500Y-5000000D01*
X500Y-500268D01*
X1031Y-492166D01*
X14906Y-386776D01*
X23284Y-355508D01*
X60740Y-265081D01*
X76923Y-237050D01*
X136513Y-159392D01*
X159392Y-136513D01*
X237050Y-76923D01*
X265079Y-60740D01*
X355509Y-23283D01*
X386775Y-14906D01*
X492169Y-1030D01*
X500269Y-500D01*
X95499731Y-500D01*
X95507829Y-1030D01*
G37*
%TD.AperFunction*%
%TD*%
%TA.AperFunction,Conductor*%
%TO.N,+12V*%
G36*
X17942200Y-9019685D02*
G01*
X17987955Y-9072489D01*
X17997899Y-9141647D01*
X17968874Y-9205203D01*
X17934898Y-9232662D01*
X17657787Y-9385004D01*
X17657784Y-9385006D01*
X17619748Y-9412640D01*
X17619748Y-9412641D01*
X18466378Y-10259271D01*
X18322422Y-10326400D01*
X18128922Y-10461890D01*
X17961890Y-10628922D01*
X17826400Y-10822421D01*
X17759271Y-10966378D01*
X16914083Y-10121190D01*
X16804903Y-10293232D01*
X16804900Y-10293238D01*
X16670965Y-10577862D01*
X16670963Y-10577867D01*
X16573755Y-10877041D01*
X16514808Y-11186050D01*
X16514807Y-11186057D01*
X16495057Y-11499994D01*
X16495057Y-11500005D01*
X16514807Y-11813942D01*
X16514808Y-11813949D01*
X16573755Y-12122958D01*
X16670963Y-12422132D01*
X16670965Y-12422137D01*
X16804900Y-12706761D01*
X16804905Y-12706771D01*
X16914083Y-12878807D01*
X16914084Y-12878808D01*
X17759271Y-12033621D01*
X17826400Y-12177578D01*
X17961890Y-12371078D01*
X18128922Y-12538110D01*
X18322422Y-12673600D01*
X18466377Y-12740728D01*
X17619747Y-13587357D01*
X17619748Y-13587358D01*
X17657777Y-13614988D01*
X17657796Y-13615000D01*
X17933447Y-13766540D01*
X17933455Y-13766544D01*
X18225926Y-13882340D01*
X18530620Y-13960573D01*
X18530629Y-13960575D01*
X18842701Y-13999999D01*
X18842715Y-14000000D01*
X19157285Y-14000000D01*
X19157298Y-13999999D01*
X19469370Y-13960575D01*
X19469379Y-13960573D01*
X19774073Y-13882340D01*
X20066544Y-13766544D01*
X20066545Y-13766543D01*
X20342216Y-13614991D01*
X20342222Y-13614988D01*
X20380250Y-13587358D01*
X20380250Y-13587357D01*
X19533621Y-12740728D01*
X19677578Y-12673600D01*
X19871078Y-12538110D01*
X20038110Y-12371078D01*
X20173600Y-12177579D01*
X20240728Y-12033621D01*
X21085914Y-12878808D01*
X21085915Y-12878807D01*
X21195092Y-12706773D01*
X21195103Y-12706754D01*
X21329034Y-12422137D01*
X21329036Y-12422132D01*
X21426244Y-12122958D01*
X21485191Y-11813949D01*
X21485192Y-11813942D01*
X21504943Y-11500005D01*
X21504943Y-11499994D01*
X21485192Y-11186057D01*
X21485191Y-11186050D01*
X21426244Y-10877041D01*
X21329036Y-10577867D01*
X21329034Y-10577862D01*
X21195099Y-10293237D01*
X21195091Y-10293222D01*
X21085915Y-10121191D01*
X20240728Y-10966377D01*
X20173600Y-10822422D01*
X20038110Y-10628922D01*
X19871078Y-10461890D01*
X19677578Y-10326400D01*
X19533621Y-10259271D01*
X20380251Y-9412641D01*
X20380250Y-9412639D01*
X20342227Y-9385014D01*
X20342209Y-9385002D01*
X20065102Y-9232662D01*
X20015838Y-9183116D01*
X20001181Y-9114801D01*
X20025784Y-9049406D01*
X20081837Y-9007695D01*
X20124839Y-9000000D01*
X25875161Y-9000000D01*
X25942200Y-9019685D01*
X25987955Y-9072489D01*
X25997899Y-9141647D01*
X25968874Y-9205203D01*
X25934898Y-9232662D01*
X25657787Y-9385004D01*
X25657784Y-9385006D01*
X25619748Y-9412640D01*
X25619748Y-9412641D01*
X26466378Y-10259271D01*
X26322422Y-10326400D01*
X26128922Y-10461890D01*
X25961890Y-10628922D01*
X25826400Y-10822421D01*
X25759271Y-10966378D01*
X24914083Y-10121190D01*
X24804903Y-10293232D01*
X24804900Y-10293238D01*
X24670965Y-10577862D01*
X24670963Y-10577867D01*
X24573755Y-10877041D01*
X24514808Y-11186050D01*
X24514807Y-11186057D01*
X24495057Y-11499994D01*
X24495057Y-11500005D01*
X24514807Y-11813942D01*
X24514808Y-11813949D01*
X24573755Y-12122958D01*
X24670963Y-12422132D01*
X24670965Y-12422137D01*
X24804900Y-12706761D01*
X24804905Y-12706771D01*
X24914083Y-12878807D01*
X24914084Y-12878808D01*
X25759271Y-12033621D01*
X25826400Y-12177578D01*
X25961890Y-12371078D01*
X26128922Y-12538110D01*
X26322422Y-12673600D01*
X26466377Y-12740728D01*
X25619747Y-13587357D01*
X25619748Y-13587358D01*
X25657777Y-13614988D01*
X25657796Y-13615000D01*
X25933447Y-13766540D01*
X25933455Y-13766544D01*
X26225926Y-13882340D01*
X26530620Y-13960573D01*
X26530629Y-13960575D01*
X26842701Y-13999999D01*
X26842715Y-14000000D01*
X27157285Y-14000000D01*
X27157298Y-13999999D01*
X27469370Y-13960575D01*
X27469379Y-13960573D01*
X27774073Y-13882340D01*
X28066544Y-13766544D01*
X28066545Y-13766543D01*
X28342216Y-13614991D01*
X28342222Y-13614988D01*
X28380250Y-13587358D01*
X28380250Y-13587357D01*
X27533621Y-12740728D01*
X27677578Y-12673600D01*
X27871078Y-12538110D01*
X28038110Y-12371078D01*
X28173600Y-12177579D01*
X28240728Y-12033621D01*
X29085914Y-12878808D01*
X29085915Y-12878807D01*
X29195092Y-12706773D01*
X29195103Y-12706754D01*
X29329034Y-12422137D01*
X29329036Y-12422132D01*
X29426244Y-12122958D01*
X29485191Y-11813949D01*
X29485192Y-11813942D01*
X29504943Y-11500005D01*
X29504943Y-11499994D01*
X29485192Y-11186057D01*
X29485191Y-11186050D01*
X29426244Y-10877041D01*
X29329036Y-10577867D01*
X29329034Y-10577862D01*
X29195099Y-10293237D01*
X29195091Y-10293222D01*
X29085915Y-10121191D01*
X28240728Y-10966377D01*
X28173600Y-10822422D01*
X28038110Y-10628922D01*
X27871078Y-10461890D01*
X27677578Y-10326400D01*
X27533621Y-10259271D01*
X28380251Y-9412641D01*
X28380250Y-9412639D01*
X28342227Y-9385014D01*
X28342209Y-9385002D01*
X28065102Y-9232662D01*
X28015838Y-9183116D01*
X28001181Y-9114801D01*
X28025784Y-9049406D01*
X28081837Y-9007695D01*
X28124839Y-9000000D01*
X33875161Y-9000000D01*
X33942200Y-9019685D01*
X33987955Y-9072489D01*
X33997899Y-9141647D01*
X33968874Y-9205203D01*
X33934898Y-9232662D01*
X33657787Y-9385004D01*
X33657784Y-9385006D01*
X33619748Y-9412640D01*
X33619748Y-9412641D01*
X34466378Y-10259271D01*
X34322422Y-10326400D01*
X34128922Y-10461890D01*
X33961890Y-10628922D01*
X33826400Y-10822421D01*
X33759271Y-10966378D01*
X32914083Y-10121190D01*
X32804903Y-10293232D01*
X32804900Y-10293238D01*
X32670965Y-10577862D01*
X32670963Y-10577867D01*
X32573755Y-10877041D01*
X32514808Y-11186050D01*
X32514807Y-11186057D01*
X32495057Y-11499994D01*
X32495057Y-11500005D01*
X32514807Y-11813942D01*
X32514808Y-11813949D01*
X32573755Y-12122958D01*
X32670963Y-12422132D01*
X32670965Y-12422137D01*
X32804900Y-12706761D01*
X32804905Y-12706771D01*
X32914083Y-12878807D01*
X32914084Y-12878808D01*
X33759271Y-12033620D01*
X33826400Y-12177578D01*
X33961890Y-12371078D01*
X34128922Y-12538110D01*
X34322422Y-12673600D01*
X34466377Y-12740728D01*
X33619747Y-13587357D01*
X33619748Y-13587358D01*
X33657777Y-13614988D01*
X33657796Y-13615000D01*
X33933447Y-13766540D01*
X33933455Y-13766544D01*
X34225926Y-13882340D01*
X34530620Y-13960573D01*
X34530629Y-13960575D01*
X34842701Y-13999999D01*
X34842715Y-14000000D01*
X35157285Y-14000000D01*
X35157298Y-13999999D01*
X35469370Y-13960575D01*
X35469379Y-13960573D01*
X35774073Y-13882340D01*
X35862070Y-13847500D01*
X40080679Y-13847500D01*
X40099924Y-14067476D01*
X40099926Y-14067486D01*
X40157076Y-14280772D01*
X40157080Y-14280783D01*
X40172989Y-14314902D01*
X40172990Y-14314903D01*
X40608494Y-13879398D01*
X40962551Y-13879398D01*
X40993766Y-14002662D01*
X41063313Y-14109112D01*
X41163657Y-14187213D01*
X41283922Y-14228500D01*
X41379069Y-14228500D01*
X41472921Y-14212839D01*
X41584751Y-14152320D01*
X41670871Y-14058769D01*
X41721948Y-13942323D01*
X41730093Y-13844031D01*
X42051136Y-13844031D01*
X42522008Y-14314902D01*
X42522009Y-14314902D01*
X42537916Y-14280791D01*
X42537920Y-14280780D01*
X42595074Y-14067482D01*
X42595075Y-14067476D01*
X42614321Y-13847500D01*
X42614321Y-13847499D01*
X42595075Y-13627523D01*
X42595073Y-13627513D01*
X42537924Y-13414229D01*
X42537920Y-13414220D01*
X42522008Y-13380095D01*
X42090924Y-13811181D01*
X42062839Y-13826516D01*
X42051136Y-13844031D01*
X41730093Y-13844031D01*
X41732449Y-13815602D01*
X41701234Y-13692338D01*
X41631687Y-13585888D01*
X41531343Y-13507787D01*
X41411078Y-13466500D01*
X41315931Y-13466500D01*
X41222079Y-13482161D01*
X41110249Y-13542680D01*
X41024129Y-13636231D01*
X40973052Y-13752677D01*
X40962551Y-13879398D01*
X40608494Y-13879398D01*
X40640392Y-13847500D01*
X40640393Y-13847499D01*
X40172990Y-13380096D01*
X40157078Y-13414221D01*
X40157077Y-13414225D01*
X40099925Y-13627516D01*
X40099924Y-13627523D01*
X40080679Y-13847499D01*
X40080679Y-13847500D01*
X35862070Y-13847500D01*
X36066544Y-13766544D01*
X36066545Y-13766543D01*
X36342216Y-13614991D01*
X36342222Y-13614988D01*
X36380250Y-13587358D01*
X36380250Y-13587357D01*
X35533621Y-12740728D01*
X35677578Y-12673600D01*
X35871078Y-12538110D01*
X36038110Y-12371078D01*
X36173600Y-12177579D01*
X36240728Y-12033621D01*
X37085914Y-12878808D01*
X37085915Y-12878807D01*
X37195092Y-12706773D01*
X37195103Y-12706754D01*
X37210991Y-12672990D01*
X40880096Y-12672990D01*
X41347499Y-13140393D01*
X41347500Y-13140393D01*
X41347500Y-13140392D01*
X41814903Y-12672990D01*
X41814902Y-12672989D01*
X41780783Y-12657080D01*
X41780772Y-12657076D01*
X41567486Y-12599926D01*
X41567476Y-12599924D01*
X41347501Y-12580679D01*
X41347499Y-12580679D01*
X41127523Y-12599924D01*
X41127516Y-12599925D01*
X40914225Y-12657077D01*
X40914221Y-12657078D01*
X40880096Y-12672990D01*
X37210991Y-12672990D01*
X37329034Y-12422137D01*
X37329036Y-12422132D01*
X37426244Y-12122958D01*
X37485191Y-11813949D01*
X37485192Y-11813942D01*
X37504943Y-11500005D01*
X37504943Y-11499994D01*
X37485192Y-11186057D01*
X37485191Y-11186050D01*
X37426244Y-10877041D01*
X37329036Y-10577867D01*
X37329034Y-10577862D01*
X37195099Y-10293237D01*
X37195091Y-10293222D01*
X37085915Y-10121191D01*
X36240728Y-10966377D01*
X36173600Y-10822422D01*
X36038110Y-10628922D01*
X35871078Y-10461890D01*
X35677578Y-10326400D01*
X35533621Y-10259271D01*
X36380251Y-9412641D01*
X36380250Y-9412639D01*
X36342227Y-9385014D01*
X36342209Y-9385002D01*
X36065102Y-9232662D01*
X36015838Y-9183116D01*
X36001181Y-9114801D01*
X36025784Y-9049406D01*
X36081837Y-9007695D01*
X36124839Y-9000000D01*
X53495933Y-9000000D01*
X53504031Y-9000530D01*
X53595879Y-9012622D01*
X53613223Y-9014906D01*
X53644491Y-9023284D01*
X53734918Y-9060740D01*
X53762952Y-9076925D01*
X53840602Y-9136509D01*
X53863491Y-9159398D01*
X53923074Y-9237048D01*
X53939259Y-9265081D01*
X53976715Y-9355508D01*
X53985093Y-9386775D01*
X53999469Y-9495964D01*
X54000000Y-9504065D01*
X54000000Y-14495934D01*
X53999469Y-14504035D01*
X53985093Y-14613224D01*
X53976715Y-14644491D01*
X53939259Y-14734918D01*
X53923074Y-14762951D01*
X53863491Y-14840601D01*
X53840601Y-14863491D01*
X53762951Y-14923074D01*
X53734918Y-14939259D01*
X53644491Y-14976715D01*
X53613224Y-14985093D01*
X53524783Y-14996737D01*
X53504031Y-14999469D01*
X53495934Y-15000000D01*
X41792895Y-15000000D01*
X41344031Y-14551136D01*
X41330850Y-14559943D01*
X41327815Y-14570281D01*
X41311181Y-14590923D01*
X40902104Y-15000000D01*
X14110022Y-15000000D01*
X14042983Y-14980315D01*
X13997228Y-14927511D01*
X13987284Y-14858353D01*
X14016309Y-14794797D01*
X14022341Y-14788319D01*
X14142315Y-14668344D01*
X14234356Y-14519122D01*
X14234358Y-14519117D01*
X14289505Y-14352695D01*
X14289506Y-14352688D01*
X14299999Y-14249984D01*
X14300000Y-14249971D01*
X14300000Y-13000000D01*
X12995682Y-13000000D01*
X13043625Y-12887832D01*
X13093693Y-12668470D01*
X13103788Y-12443692D01*
X13073585Y-12220725D01*
X13004055Y-12006733D01*
X13000432Y-12000000D01*
X14299999Y-12000000D01*
X14299999Y-10750030D01*
X14299998Y-10750015D01*
X14289505Y-10647304D01*
X14234358Y-10480882D01*
X14234356Y-10480877D01*
X14142315Y-10331655D01*
X14018344Y-10207684D01*
X13869122Y-10115643D01*
X13869117Y-10115641D01*
X13702695Y-10060494D01*
X13702688Y-10060493D01*
X13599984Y-10050000D01*
X12350000Y-10050000D01*
X12350000Y-11352518D01*
X12183890Y-11290176D01*
X11962502Y-11250000D01*
X11793867Y-11250000D01*
X11625902Y-11265117D01*
X11409006Y-11324977D01*
X11350000Y-11353392D01*
X11350000Y-10050000D01*
X10100030Y-10050000D01*
X10100014Y-10050001D01*
X9997304Y-10060494D01*
X9830882Y-10115641D01*
X9830877Y-10115643D01*
X9681655Y-10207684D01*
X9557684Y-10331655D01*
X9465643Y-10480877D01*
X9465641Y-10480882D01*
X9410494Y-10647304D01*
X9410493Y-10647311D01*
X9400000Y-10750015D01*
X9400000Y-12000000D01*
X10704318Y-12000000D01*
X10656375Y-12112168D01*
X10606307Y-12331530D01*
X10596212Y-12556308D01*
X10626415Y-12779275D01*
X10695945Y-12993267D01*
X10699568Y-13000000D01*
X9400001Y-13000000D01*
X9400001Y-14249984D01*
X9410494Y-14352695D01*
X9465641Y-14519117D01*
X9465643Y-14519122D01*
X9557684Y-14668344D01*
X9677659Y-14788319D01*
X9711144Y-14849642D01*
X9706160Y-14919334D01*
X9664288Y-14975267D01*
X9598824Y-14999684D01*
X9589978Y-15000000D01*
X8000000Y-15000000D01*
X7853558Y-15146441D01*
X7853554Y-15146445D01*
X7853547Y-15146451D01*
X7340649Y-15659349D01*
X7279326Y-15692834D01*
X7209634Y-15687850D01*
X7187871Y-15677207D01*
X7169120Y-15665641D01*
X7025000Y-15617884D01*
X7025000Y-15974999D01*
X7000000Y-16000000D01*
X7000000Y-18437271D01*
X7000000Y-18437272D01*
X7000000Y-18578313D01*
X6980315Y-18645352D01*
X6927511Y-18691107D01*
X6862750Y-18701603D01*
X6847840Y-18700000D01*
X6500000Y-18700000D01*
X6500000Y-21300000D01*
X6847828Y-21300000D01*
X6847844Y-21299999D01*
X6907372Y-21293598D01*
X6907379Y-21293596D01*
X7042086Y-21243354D01*
X7042091Y-21243351D01*
X7071170Y-21221582D01*
X7136634Y-21197162D01*
X7204907Y-21212012D01*
X7233165Y-21233165D01*
X9853547Y-23853548D01*
X9853554Y-23853554D01*
X10000000Y-24000000D01*
X10207114Y-24000000D01*
X26370500Y-24000000D01*
X26437539Y-24019685D01*
X26483294Y-24072489D01*
X26494500Y-24124000D01*
X26494500Y-28962173D01*
X26495950Y-28989227D01*
X26495950Y-28989228D01*
X26500231Y-29029036D01*
X26508885Y-29082445D01*
X26508885Y-29082447D01*
X26541243Y-29169200D01*
X26559168Y-29217257D01*
X26592653Y-29278580D01*
X26678877Y-29393761D01*
X26678881Y-29393765D01*
X26678886Y-29393771D01*
X27131155Y-29846039D01*
X27131173Y-29846055D01*
X27232377Y-29924352D01*
X27232384Y-29924356D01*
X27232386Y-29924358D01*
X27286077Y-29955927D01*
X27403726Y-30006308D01*
X27546300Y-30025654D01*
X27616167Y-30025100D01*
X27758414Y-30003496D01*
X27888814Y-29942691D01*
X27947291Y-29904452D01*
X27947294Y-29904450D01*
X27966502Y-29887537D01*
X28029826Y-29858008D01*
X28099062Y-29867402D01*
X28119566Y-29879024D01*
X28213838Y-29945034D01*
X28414050Y-30038394D01*
X28627432Y-30095570D01*
X28633038Y-30096060D01*
X28698105Y-30121509D01*
X28709915Y-30131907D01*
X28908213Y-30330204D01*
X28908214Y-30330204D01*
X28928350Y-30348291D01*
X28928349Y-30348291D01*
X28959533Y-30373420D01*
X28959536Y-30373422D01*
X29003420Y-30405067D01*
X29134297Y-30464838D01*
X29177069Y-30477397D01*
X29201331Y-30484522D01*
X29201336Y-30484523D01*
X29201340Y-30484524D01*
X29343756Y-30505000D01*
X29343759Y-30505000D01*
X36962673Y-30505000D01*
X36962677Y-30505000D01*
X36989716Y-30503551D01*
X36989723Y-30503550D01*
X36989727Y-30503550D01*
X36989728Y-30503550D01*
X37029536Y-30499269D01*
X37082948Y-30490614D01*
X37217757Y-30440332D01*
X37279080Y-30406847D01*
X37394262Y-30320623D01*
X37692876Y-30022009D01*
X40880095Y-30022009D01*
X40914220Y-30037920D01*
X40914229Y-30037924D01*
X41127513Y-30095073D01*
X41127523Y-30095075D01*
X41347499Y-30114321D01*
X41347501Y-30114321D01*
X41567476Y-30095075D01*
X41567482Y-30095074D01*
X41780780Y-30037920D01*
X41780791Y-30037916D01*
X41814902Y-30022009D01*
X41814902Y-30022008D01*
X41344031Y-29551136D01*
X41330850Y-29559943D01*
X41327815Y-29570282D01*
X41311181Y-29590924D01*
X40880095Y-30022009D01*
X37692876Y-30022009D01*
X38330697Y-29384187D01*
X38330696Y-29384187D01*
X38330704Y-29384180D01*
X38330704Y-29384179D01*
X38348791Y-29364043D01*
X38348791Y-29364044D01*
X38373920Y-29332860D01*
X38378362Y-29326698D01*
X38405567Y-29288973D01*
X38465338Y-29158096D01*
X38485023Y-29091057D01*
X38485024Y-29091053D01*
X38505500Y-28948637D01*
X38505500Y-28847500D01*
X40080679Y-28847500D01*
X40099924Y-29067476D01*
X40099926Y-29067486D01*
X40157076Y-29280772D01*
X40157080Y-29280783D01*
X40172989Y-29314902D01*
X40172990Y-29314903D01*
X40608494Y-28879398D01*
X40962551Y-28879398D01*
X40993766Y-29002662D01*
X41063313Y-29109112D01*
X41163657Y-29187213D01*
X41283922Y-29228500D01*
X41379069Y-29228500D01*
X41472921Y-29212839D01*
X41584751Y-29152320D01*
X41670871Y-29058769D01*
X41721948Y-28942323D01*
X41730093Y-28844031D01*
X42051136Y-28844031D01*
X42522008Y-29314902D01*
X42522009Y-29314902D01*
X42537916Y-29280791D01*
X42537920Y-29280780D01*
X42595074Y-29067482D01*
X42595075Y-29067476D01*
X42614321Y-28847500D01*
X42614321Y-28847499D01*
X42595075Y-28627523D01*
X42595073Y-28627513D01*
X42537924Y-28414229D01*
X42537920Y-28414220D01*
X42522008Y-28380095D01*
X42090924Y-28811181D01*
X42062839Y-28826516D01*
X42051136Y-28844031D01*
X41730093Y-28844031D01*
X41732449Y-28815602D01*
X41701234Y-28692338D01*
X41631687Y-28585888D01*
X41531343Y-28507787D01*
X41411078Y-28466500D01*
X41315931Y-28466500D01*
X41222079Y-28482161D01*
X41110249Y-28542680D01*
X41024129Y-28636231D01*
X40973052Y-28752677D01*
X40962551Y-28879398D01*
X40608494Y-28879398D01*
X40640392Y-28847500D01*
X40640393Y-28847499D01*
X40172990Y-28380096D01*
X40157078Y-28414221D01*
X40157077Y-28414225D01*
X40099925Y-28627516D01*
X40099924Y-28627523D01*
X40080679Y-28847499D01*
X40080679Y-28847500D01*
X38505500Y-28847500D01*
X38505500Y-27672990D01*
X40880096Y-27672990D01*
X41347499Y-28140393D01*
X41347500Y-28140393D01*
X41347500Y-28140392D01*
X41814903Y-27672990D01*
X41814902Y-27672989D01*
X41780783Y-27657080D01*
X41780772Y-27657076D01*
X41567486Y-27599926D01*
X41567476Y-27599924D01*
X41347501Y-27580679D01*
X41347499Y-27580679D01*
X41127523Y-27599924D01*
X41127516Y-27599925D01*
X40914225Y-27657077D01*
X40914221Y-27657078D01*
X40880096Y-27672990D01*
X38505500Y-27672990D01*
X38505500Y-24124000D01*
X38525185Y-24056961D01*
X38577989Y-24011206D01*
X38629500Y-24000000D01*
X54370500Y-24000000D01*
X54437539Y-24019685D01*
X54483294Y-24072489D01*
X54494500Y-24124000D01*
X54494500Y-28962172D01*
X54495950Y-28989226D01*
X54495950Y-28989227D01*
X54500231Y-29029035D01*
X54508885Y-29082444D01*
X54508885Y-29082446D01*
X54559166Y-29217251D01*
X54559168Y-29217256D01*
X54559169Y-29217257D01*
X54592653Y-29278579D01*
X54592654Y-29278581D01*
X54678869Y-29393752D01*
X54678885Y-29393770D01*
X55131154Y-29846040D01*
X55131155Y-29846041D01*
X55232377Y-29924352D01*
X55232384Y-29924356D01*
X55232386Y-29924358D01*
X55286077Y-29955927D01*
X55403726Y-30006308D01*
X55546300Y-30025654D01*
X55616167Y-30025100D01*
X55758414Y-30003496D01*
X55888814Y-29942691D01*
X55947291Y-29904452D01*
X55947294Y-29904450D01*
X55966502Y-29887537D01*
X56029826Y-29858008D01*
X56099062Y-29867402D01*
X56119566Y-29879024D01*
X56213838Y-29945034D01*
X56414050Y-30038394D01*
X56627432Y-30095570D01*
X56633038Y-30096060D01*
X56698105Y-30121509D01*
X56709915Y-30131907D01*
X56908213Y-30330204D01*
X56908214Y-30330204D01*
X56928350Y-30348291D01*
X56928349Y-30348291D01*
X56959533Y-30373420D01*
X56959536Y-30373422D01*
X57003420Y-30405067D01*
X57134297Y-30464838D01*
X57177069Y-30477397D01*
X57201331Y-30484522D01*
X57201336Y-30484523D01*
X57201340Y-30484524D01*
X57343756Y-30505000D01*
X57343759Y-30505000D01*
X64962673Y-30505000D01*
X64962677Y-30505000D01*
X64989716Y-30503551D01*
X64989723Y-30503550D01*
X64989727Y-30503550D01*
X64989728Y-30503550D01*
X65029536Y-30499269D01*
X65082948Y-30490614D01*
X65217757Y-30440332D01*
X65279080Y-30406847D01*
X65394262Y-30320623D01*
X66330697Y-29384187D01*
X66330696Y-29384187D01*
X66330704Y-29384180D01*
X66330704Y-29384179D01*
X66348791Y-29364043D01*
X66348791Y-29364044D01*
X66373920Y-29332860D01*
X66378362Y-29326698D01*
X66405567Y-29288973D01*
X66465338Y-29158096D01*
X66485023Y-29091057D01*
X66485024Y-29091053D01*
X66498115Y-29000003D01*
X88994390Y-29000003D01*
X89002389Y-29111868D01*
X89002547Y-29116290D01*
X89002547Y-29142867D01*
X89006331Y-29169179D01*
X89006804Y-29173580D01*
X89014804Y-29285430D01*
X89014805Y-29285436D01*
X89038642Y-29395010D01*
X89039428Y-29399368D01*
X89043208Y-29425669D01*
X89050695Y-29451163D01*
X89051790Y-29455452D01*
X89075629Y-29565041D01*
X89114819Y-29670114D01*
X89116217Y-29674315D01*
X89123705Y-29699819D01*
X89134754Y-29724014D01*
X89136447Y-29728102D01*
X89175632Y-29833159D01*
X89175638Y-29833173D01*
X89229382Y-29931597D01*
X89231363Y-29935554D01*
X89242406Y-29959734D01*
X89256779Y-29982098D01*
X89259039Y-29985907D01*
X89312770Y-30084309D01*
X89312775Y-30084317D01*
X89379991Y-30174107D01*
X89382515Y-30177742D01*
X89396879Y-30200094D01*
X89414278Y-30220173D01*
X89417056Y-30223620D01*
X89484254Y-30313387D01*
X89484270Y-30313405D01*
X89563555Y-30392689D01*
X89566571Y-30395929D01*
X89583979Y-30416018D01*
X89604070Y-30433428D01*
X89607310Y-30436445D01*
X89686594Y-30515729D01*
X89686612Y-30515745D01*
X89776370Y-30582936D01*
X89779816Y-30585713D01*
X89799903Y-30603118D01*
X89822263Y-30617488D01*
X89825899Y-30620013D01*
X89908818Y-30682086D01*
X89915685Y-30687226D01*
X90014104Y-30740967D01*
X90017902Y-30743220D01*
X90040269Y-30757594D01*
X90064452Y-30768638D01*
X90068388Y-30770608D01*
X90166839Y-30824367D01*
X90271946Y-30863570D01*
X90275984Y-30865243D01*
X90300183Y-30876295D01*
X90325695Y-30883785D01*
X90329880Y-30885178D01*
X90434954Y-30924369D01*
X90434960Y-30924370D01*
X90434962Y-30924371D01*
X90482218Y-30934650D01*
X90544551Y-30948210D01*
X90548831Y-30949303D01*
X90574320Y-30956787D01*
X90600636Y-30960571D01*
X90604971Y-30961353D01*
X90714572Y-30985196D01*
X90826441Y-30993196D01*
X90830826Y-30993668D01*
X90857144Y-30997452D01*
X90883721Y-30997452D01*
X90888143Y-30997609D01*
X90937344Y-31001128D01*
X90999999Y-31005610D01*
X91000000Y-31005610D01*
X91000001Y-31005610D01*
X91040160Y-31002737D01*
X91111857Y-30997609D01*
X91116278Y-30997452D01*
X91142854Y-30997452D01*
X91169172Y-30993668D01*
X91173549Y-30993197D01*
X91285428Y-30985196D01*
X91395052Y-30961348D01*
X91399360Y-30960571D01*
X91425678Y-30956787D01*
X91451159Y-30949305D01*
X91455421Y-30948216D01*
X91565046Y-30924369D01*
X91670119Y-30885178D01*
X91674310Y-30883784D01*
X91699815Y-30876294D01*
X91724002Y-30865248D01*
X91728053Y-30863570D01*
X91833161Y-30824367D01*
X91931600Y-30770614D01*
X91935556Y-30768634D01*
X91959731Y-30757592D01*
X91982086Y-30743227D01*
X91985869Y-30740981D01*
X92084315Y-30687226D01*
X92174133Y-30619988D01*
X92177737Y-30617487D01*
X92200098Y-30603115D01*
X92220185Y-30585711D01*
X92223605Y-30582954D01*
X92313395Y-30515739D01*
X92392725Y-30436408D01*
X92395924Y-30433431D01*
X92416018Y-30416018D01*
X92433431Y-30395924D01*
X92436408Y-30392725D01*
X92515739Y-30313395D01*
X92582954Y-30223605D01*
X92585711Y-30220185D01*
X92603115Y-30200098D01*
X92617487Y-30177737D01*
X92619988Y-30174133D01*
X92687226Y-30084315D01*
X92740981Y-29985869D01*
X92743227Y-29982086D01*
X92757592Y-29959731D01*
X92768634Y-29935556D01*
X92770616Y-29931598D01*
X92774573Y-29924352D01*
X92824367Y-29833161D01*
X92863570Y-29728053D01*
X92865248Y-29724002D01*
X92876294Y-29699815D01*
X92883784Y-29674310D01*
X92885178Y-29670119D01*
X92924369Y-29565046D01*
X92948214Y-29455428D01*
X92949304Y-29451161D01*
X92956787Y-29425676D01*
X92960571Y-29399363D01*
X92961348Y-29395055D01*
X92985196Y-29285428D01*
X92993197Y-29173555D01*
X92993665Y-29169200D01*
X92997214Y-29144520D01*
X92996609Y-29140101D01*
X92998010Y-29111584D01*
X92998107Y-29106142D01*
X92998252Y-29102868D01*
X93005610Y-29000000D01*
X92998252Y-28897134D01*
X92998106Y-28893854D01*
X92998010Y-28888416D01*
X92996609Y-28859898D01*
X92997386Y-28856674D01*
X92993665Y-28830797D01*
X92993195Y-28826418D01*
X92985196Y-28714572D01*
X92961354Y-28604973D01*
X92960571Y-28600633D01*
X92956786Y-28574317D01*
X92949303Y-28548832D01*
X92948208Y-28544542D01*
X92924371Y-28434962D01*
X92924370Y-28434960D01*
X92924369Y-28434954D01*
X92885178Y-28329880D01*
X92883785Y-28325695D01*
X92876295Y-28300183D01*
X92865243Y-28275984D01*
X92863570Y-28271946D01*
X92824367Y-28166839D01*
X92770608Y-28068388D01*
X92768638Y-28064452D01*
X92757594Y-28040269D01*
X92743220Y-28017902D01*
X92740968Y-28014106D01*
X92687226Y-27915685D01*
X92620011Y-27825897D01*
X92617488Y-27822263D01*
X92603118Y-27799903D01*
X92585713Y-27779816D01*
X92582936Y-27776370D01*
X92515745Y-27686612D01*
X92515729Y-27686594D01*
X92436445Y-27607310D01*
X92433428Y-27604070D01*
X92416018Y-27583979D01*
X92395929Y-27566571D01*
X92392689Y-27563555D01*
X92313405Y-27484270D01*
X92313387Y-27484254D01*
X92223620Y-27417056D01*
X92220173Y-27414278D01*
X92200094Y-27396879D01*
X92177742Y-27382515D01*
X92174107Y-27379991D01*
X92084317Y-27312775D01*
X92084309Y-27312770D01*
X91985907Y-27259039D01*
X91982098Y-27256779D01*
X91959734Y-27242406D01*
X91935554Y-27231363D01*
X91931597Y-27229382D01*
X91833173Y-27175638D01*
X91833159Y-27175632D01*
X91728102Y-27136447D01*
X91724014Y-27134754D01*
X91699819Y-27123705D01*
X91674315Y-27116217D01*
X91670114Y-27114819D01*
X91565041Y-27075629D01*
X91455452Y-27051790D01*
X91451163Y-27050695D01*
X91425669Y-27043208D01*
X91399368Y-27039428D01*
X91395010Y-27038642D01*
X91285436Y-27014805D01*
X91285430Y-27014804D01*
X91173580Y-27006804D01*
X91169178Y-27006331D01*
X91142868Y-27002548D01*
X91116294Y-27002548D01*
X91111870Y-27002390D01*
X91000002Y-26994390D01*
X90999998Y-26994390D01*
X90888129Y-27002390D01*
X90883705Y-27002548D01*
X90857130Y-27002548D01*
X90830819Y-27006331D01*
X90826418Y-27006804D01*
X90714575Y-27014803D01*
X90714558Y-27014806D01*
X90604986Y-27038642D01*
X90600631Y-27039428D01*
X90574323Y-27043210D01*
X90548831Y-27050696D01*
X90544542Y-27051791D01*
X90434955Y-27075630D01*
X90329892Y-27114817D01*
X90325690Y-27116215D01*
X90300178Y-27123705D01*
X90275989Y-27134753D01*
X90271898Y-27136448D01*
X90166839Y-27175633D01*
X90166831Y-27175636D01*
X90068411Y-27229377D01*
X90064454Y-27231358D01*
X90040262Y-27242406D01*
X90017896Y-27256780D01*
X90014089Y-27259039D01*
X89929921Y-27305000D01*
X89915685Y-27312774D01*
X89915683Y-27312775D01*
X89915682Y-27312776D01*
X89825898Y-27379986D01*
X89822262Y-27382510D01*
X89799902Y-27396880D01*
X89779830Y-27414275D01*
X89776382Y-27417053D01*
X89686619Y-27484249D01*
X89686604Y-27484262D01*
X89607310Y-27563553D01*
X89604071Y-27566569D01*
X89583979Y-27583979D01*
X89566569Y-27604071D01*
X89563553Y-27607310D01*
X89484262Y-27686604D01*
X89484249Y-27686619D01*
X89417053Y-27776382D01*
X89414275Y-27779830D01*
X89396880Y-27799902D01*
X89382510Y-27822262D01*
X89379986Y-27825898D01*
X89312776Y-27915682D01*
X89259039Y-28014089D01*
X89256780Y-28017896D01*
X89242406Y-28040262D01*
X89231358Y-28064454D01*
X89229377Y-28068411D01*
X89175636Y-28166831D01*
X89175633Y-28166839D01*
X89136448Y-28271898D01*
X89134753Y-28275989D01*
X89123705Y-28300178D01*
X89116215Y-28325690D01*
X89114817Y-28329892D01*
X89075630Y-28434955D01*
X89051791Y-28544542D01*
X89050696Y-28548831D01*
X89043210Y-28574323D01*
X89039428Y-28600631D01*
X89038642Y-28604986D01*
X89014806Y-28714558D01*
X89014803Y-28714575D01*
X89006804Y-28826418D01*
X89006331Y-28830819D01*
X89002547Y-28857130D01*
X89002547Y-28883708D01*
X89002389Y-28888129D01*
X88994390Y-28999996D01*
X88994390Y-29000003D01*
X66498115Y-29000003D01*
X66505500Y-28948637D01*
X66505500Y-24124000D01*
X66493947Y-24016544D01*
X66482741Y-23965033D01*
X66473345Y-23936802D01*
X66448616Y-23862502D01*
X66448613Y-23862496D01*
X66380920Y-23757165D01*
X66361235Y-23690126D01*
X66380919Y-23623086D01*
X66397545Y-23602454D01*
X66995490Y-23004509D01*
X68880095Y-23004509D01*
X68914220Y-23020420D01*
X68914229Y-23020424D01*
X69127513Y-23077573D01*
X69127523Y-23077575D01*
X69347499Y-23096821D01*
X69347501Y-23096821D01*
X69567476Y-23077575D01*
X69567482Y-23077574D01*
X69780780Y-23020420D01*
X69780791Y-23020416D01*
X69814902Y-23004509D01*
X69814902Y-23004508D01*
X69344031Y-22533636D01*
X69330848Y-22542444D01*
X69327812Y-22552786D01*
X69311180Y-22573424D01*
X68880095Y-23004509D01*
X66995490Y-23004509D01*
X67916380Y-22083618D01*
X67977700Y-22050136D01*
X68047392Y-22055120D01*
X68103325Y-22096992D01*
X68123833Y-22139208D01*
X68157077Y-22263275D01*
X68157080Y-22263283D01*
X68172989Y-22297402D01*
X68172990Y-22297403D01*
X68608495Y-21861898D01*
X68962551Y-21861898D01*
X68993766Y-21985162D01*
X69063313Y-22091612D01*
X69163657Y-22169713D01*
X69283922Y-22211000D01*
X69379069Y-22211000D01*
X69472921Y-22195339D01*
X69584751Y-22134820D01*
X69670871Y-22041269D01*
X69721948Y-21924823D01*
X69730093Y-21826531D01*
X70051136Y-21826531D01*
X70522008Y-22297402D01*
X70522009Y-22297402D01*
X70537916Y-22263291D01*
X70537920Y-22263280D01*
X70595074Y-22049982D01*
X70595075Y-22049976D01*
X70614321Y-21830000D01*
X70614321Y-21829999D01*
X70595075Y-21610023D01*
X70595073Y-21610013D01*
X70537924Y-21396729D01*
X70537920Y-21396720D01*
X70522008Y-21362595D01*
X70090924Y-21793681D01*
X70062839Y-21809016D01*
X70051136Y-21826531D01*
X69730093Y-21826531D01*
X69732449Y-21798102D01*
X69701234Y-21674838D01*
X69631687Y-21568388D01*
X69531343Y-21490287D01*
X69411078Y-21449000D01*
X69315931Y-21449000D01*
X69222079Y-21464661D01*
X69110249Y-21525180D01*
X69024129Y-21618731D01*
X68973052Y-21735177D01*
X68962551Y-21861898D01*
X68608495Y-21861898D01*
X69814903Y-20655490D01*
X69814902Y-20655489D01*
X69780783Y-20639580D01*
X69780775Y-20639577D01*
X69656708Y-20606333D01*
X69597048Y-20569968D01*
X69566519Y-20507121D01*
X69574814Y-20437745D01*
X69601117Y-20398881D01*
X72850679Y-17149319D01*
X72856775Y-17143974D01*
X72944157Y-17076924D01*
X72972191Y-17060739D01*
X73062616Y-17023284D01*
X73093882Y-17014906D01*
X73203074Y-17000530D01*
X73211174Y-17000000D01*
X82370500Y-17000000D01*
X82437539Y-17019685D01*
X82483294Y-17072489D01*
X82494500Y-17124000D01*
X82494500Y-21962173D01*
X82495950Y-21989227D01*
X82495950Y-21989228D01*
X82500231Y-22029036D01*
X82508885Y-22082445D01*
X82508885Y-22082447D01*
X82550993Y-22195339D01*
X82559168Y-22217257D01*
X82581555Y-22258256D01*
X82584304Y-22263291D01*
X82592653Y-22278580D01*
X82678877Y-22393761D01*
X82678881Y-22393765D01*
X82678886Y-22393771D01*
X83146445Y-22861329D01*
X83146463Y-22861345D01*
X83247667Y-22939642D01*
X83247674Y-22939646D01*
X83247676Y-22939648D01*
X83301367Y-22971217D01*
X83419016Y-23021598D01*
X83561590Y-23040944D01*
X83631457Y-23040390D01*
X83773704Y-23018786D01*
X83904104Y-22957981D01*
X83962581Y-22919742D01*
X83962584Y-22919740D01*
X83995765Y-22890523D01*
X84059086Y-22860996D01*
X84128321Y-22870390D01*
X84148821Y-22882008D01*
X84213838Y-22927534D01*
X84414050Y-23020894D01*
X84627432Y-23078070D01*
X84633038Y-23078560D01*
X84698106Y-23104007D01*
X84709917Y-23114406D01*
X84952953Y-23357443D01*
X85037101Y-23425254D01*
X85037102Y-23425254D01*
X85037103Y-23425255D01*
X85167975Y-23485023D01*
X85167978Y-23485023D01*
X85167979Y-23485024D01*
X85310395Y-23505500D01*
X85310398Y-23505500D01*
X95875500Y-23505500D01*
X95942539Y-23525185D01*
X95988294Y-23577989D01*
X95999500Y-23629500D01*
X95999500Y-33499731D01*
X95998969Y-33507832D01*
X95985093Y-33613224D01*
X95976715Y-33644491D01*
X95939259Y-33734918D01*
X95923074Y-33762951D01*
X95863491Y-33840601D01*
X95840601Y-33863491D01*
X95762951Y-33923074D01*
X95734918Y-33939259D01*
X95644491Y-33976715D01*
X95613224Y-33985093D01*
X95528747Y-33996215D01*
X95507829Y-33998969D01*
X95499732Y-33999500D01*
X500268Y-33999500D01*
X492170Y-33998969D01*
X468503Y-33995853D01*
X386775Y-33985093D01*
X355508Y-33976715D01*
X265081Y-33939259D01*
X237048Y-33923074D01*
X159398Y-33863491D01*
X136508Y-33840601D01*
X76925Y-33762951D01*
X60740Y-33734918D01*
X23284Y-33644491D01*
X14906Y-33613223D01*
X1031Y-33507831D01*
X500Y-33499730D01*
X500Y-29000001D01*
X2994390Y-29000001D01*
X3002390Y-29111869D01*
X3002548Y-29116293D01*
X3002548Y-29142868D01*
X3006331Y-29169179D01*
X3006804Y-29173580D01*
X3014804Y-29285430D01*
X3014805Y-29285436D01*
X3038642Y-29395010D01*
X3039428Y-29399368D01*
X3043208Y-29425669D01*
X3050695Y-29451163D01*
X3051790Y-29455452D01*
X3075629Y-29565041D01*
X3114819Y-29670114D01*
X3116217Y-29674315D01*
X3123705Y-29699819D01*
X3134754Y-29724014D01*
X3136447Y-29728102D01*
X3175632Y-29833159D01*
X3175638Y-29833173D01*
X3229382Y-29931597D01*
X3231363Y-29935554D01*
X3242406Y-29959734D01*
X3256779Y-29982098D01*
X3259039Y-29985907D01*
X3312770Y-30084309D01*
X3312775Y-30084317D01*
X3379991Y-30174107D01*
X3382515Y-30177742D01*
X3396879Y-30200094D01*
X3414278Y-30220173D01*
X3417056Y-30223620D01*
X3484254Y-30313387D01*
X3484270Y-30313405D01*
X3563555Y-30392689D01*
X3566571Y-30395929D01*
X3583979Y-30416018D01*
X3604070Y-30433428D01*
X3607310Y-30436445D01*
X3686594Y-30515729D01*
X3686612Y-30515745D01*
X3776370Y-30582936D01*
X3779816Y-30585713D01*
X3799903Y-30603118D01*
X3822263Y-30617488D01*
X3825899Y-30620013D01*
X3908818Y-30682086D01*
X3915685Y-30687226D01*
X4014104Y-30740967D01*
X4017902Y-30743220D01*
X4040269Y-30757594D01*
X4064452Y-30768638D01*
X4068388Y-30770608D01*
X4166839Y-30824367D01*
X4271946Y-30863570D01*
X4275984Y-30865243D01*
X4300183Y-30876295D01*
X4325695Y-30883785D01*
X4329880Y-30885178D01*
X4434954Y-30924369D01*
X4434960Y-30924370D01*
X4434962Y-30924371D01*
X4482218Y-30934650D01*
X4544551Y-30948210D01*
X4548831Y-30949303D01*
X4574320Y-30956787D01*
X4600636Y-30960571D01*
X4604971Y-30961353D01*
X4714572Y-30985196D01*
X4826441Y-30993196D01*
X4830826Y-30993668D01*
X4857144Y-30997452D01*
X4883721Y-30997452D01*
X4888143Y-30997609D01*
X4937344Y-31001128D01*
X4999999Y-31005610D01*
X5000000Y-31005610D01*
X5000001Y-31005610D01*
X5040160Y-31002737D01*
X5111857Y-30997609D01*
X5116278Y-30997452D01*
X5142854Y-30997452D01*
X5169172Y-30993668D01*
X5173549Y-30993197D01*
X5285428Y-30985196D01*
X5395052Y-30961348D01*
X5399360Y-30960571D01*
X5425678Y-30956787D01*
X5451159Y-30949305D01*
X5455421Y-30948216D01*
X5565046Y-30924369D01*
X5670119Y-30885178D01*
X5674310Y-30883784D01*
X5699815Y-30876294D01*
X5724002Y-30865248D01*
X5728053Y-30863570D01*
X5833161Y-30824367D01*
X5931600Y-30770614D01*
X5935556Y-30768634D01*
X5959731Y-30757592D01*
X5982086Y-30743227D01*
X5985869Y-30740981D01*
X6084315Y-30687226D01*
X6174133Y-30619988D01*
X6177737Y-30617487D01*
X6200098Y-30603115D01*
X6220185Y-30585711D01*
X6223605Y-30582954D01*
X6313395Y-30515739D01*
X6392725Y-30436408D01*
X6395924Y-30433431D01*
X6416018Y-30416018D01*
X6433431Y-30395924D01*
X6436408Y-30392725D01*
X6515739Y-30313395D01*
X6582954Y-30223605D01*
X6585711Y-30220185D01*
X6603115Y-30200098D01*
X6617487Y-30177737D01*
X6619988Y-30174133D01*
X6687226Y-30084315D01*
X6721247Y-30022009D01*
X12880095Y-30022009D01*
X12914220Y-30037920D01*
X12914229Y-30037924D01*
X13127513Y-30095073D01*
X13127523Y-30095075D01*
X13347499Y-30114321D01*
X13347501Y-30114321D01*
X13567476Y-30095075D01*
X13567482Y-30095074D01*
X13780780Y-30037920D01*
X13780791Y-30037916D01*
X13814902Y-30022009D01*
X13814902Y-30022008D01*
X13344031Y-29551136D01*
X13330850Y-29559943D01*
X13327815Y-29570281D01*
X13311181Y-29590923D01*
X12880095Y-30022009D01*
X6721247Y-30022009D01*
X6740981Y-29985869D01*
X6743227Y-29982086D01*
X6757592Y-29959731D01*
X6768634Y-29935556D01*
X6770616Y-29931598D01*
X6774573Y-29924352D01*
X6824367Y-29833161D01*
X6863570Y-29728053D01*
X6865248Y-29724002D01*
X6876294Y-29699815D01*
X6883784Y-29674310D01*
X6885178Y-29670119D01*
X6924369Y-29565046D01*
X6948214Y-29455428D01*
X6949304Y-29451161D01*
X6956787Y-29425676D01*
X6960571Y-29399363D01*
X6961348Y-29395055D01*
X6985196Y-29285428D01*
X6993197Y-29173555D01*
X6993665Y-29169200D01*
X6997214Y-29144520D01*
X6996609Y-29140101D01*
X6998010Y-29111584D01*
X6998107Y-29106142D01*
X6998252Y-29102868D01*
X7005610Y-29000000D01*
X6998252Y-28897134D01*
X6998106Y-28893854D01*
X6998010Y-28888416D01*
X6996609Y-28859898D01*
X6997386Y-28856674D01*
X6996067Y-28847500D01*
X12080679Y-28847500D01*
X12099924Y-29067476D01*
X12099926Y-29067486D01*
X12157076Y-29280772D01*
X12157080Y-29280783D01*
X12172989Y-29314902D01*
X12172990Y-29314903D01*
X12608494Y-28879398D01*
X12962551Y-28879398D01*
X12993766Y-29002662D01*
X13063313Y-29109112D01*
X13163657Y-29187213D01*
X13283922Y-29228500D01*
X13379069Y-29228500D01*
X13472921Y-29212839D01*
X13584751Y-29152320D01*
X13670871Y-29058769D01*
X13721948Y-28942323D01*
X13730093Y-28844031D01*
X14051136Y-28844031D01*
X14522008Y-29314902D01*
X14522009Y-29314902D01*
X14537916Y-29280791D01*
X14537920Y-29280780D01*
X14595074Y-29067482D01*
X14595075Y-29067476D01*
X14614321Y-28847500D01*
X14614321Y-28847499D01*
X14595075Y-28627523D01*
X14595073Y-28627513D01*
X14537924Y-28414229D01*
X14537920Y-28414220D01*
X14522008Y-28380095D01*
X14090924Y-28811181D01*
X14062839Y-28826516D01*
X14051136Y-28844031D01*
X13730093Y-28844031D01*
X13732449Y-28815602D01*
X13701234Y-28692338D01*
X13631687Y-28585888D01*
X13531343Y-28507787D01*
X13411078Y-28466500D01*
X13315931Y-28466500D01*
X13222079Y-28482161D01*
X13110249Y-28542680D01*
X13024129Y-28636231D01*
X12973052Y-28752677D01*
X12962551Y-28879398D01*
X12608494Y-28879398D01*
X12640392Y-28847500D01*
X12640393Y-28847499D01*
X12172990Y-28380096D01*
X12157078Y-28414221D01*
X12157077Y-28414225D01*
X12099925Y-28627516D01*
X12099924Y-28627523D01*
X12080679Y-28847499D01*
X12080679Y-28847500D01*
X6996067Y-28847500D01*
X6993665Y-28830797D01*
X6993195Y-28826418D01*
X6985196Y-28714572D01*
X6961354Y-28604973D01*
X6960571Y-28600633D01*
X6956786Y-28574317D01*
X6949303Y-28548832D01*
X6948208Y-28544542D01*
X6924371Y-28434962D01*
X6924370Y-28434960D01*
X6924369Y-28434954D01*
X6885178Y-28329880D01*
X6883785Y-28325695D01*
X6876295Y-28300183D01*
X6865243Y-28275984D01*
X6863570Y-28271946D01*
X6824367Y-28166839D01*
X6770608Y-28068388D01*
X6768638Y-28064452D01*
X6757594Y-28040269D01*
X6743220Y-28017902D01*
X6740968Y-28014106D01*
X6687226Y-27915685D01*
X6620011Y-27825897D01*
X6617488Y-27822263D01*
X6603118Y-27799903D01*
X6585713Y-27779816D01*
X6582936Y-27776370D01*
X6515745Y-27686612D01*
X6515729Y-27686594D01*
X6502125Y-27672990D01*
X12880096Y-27672990D01*
X13347499Y-28140393D01*
X13347500Y-28140393D01*
X13347500Y-28140392D01*
X13814903Y-27672990D01*
X13814902Y-27672989D01*
X13780783Y-27657080D01*
X13780772Y-27657076D01*
X13567486Y-27599926D01*
X13567476Y-27599924D01*
X13347501Y-27580679D01*
X13347499Y-27580679D01*
X13127523Y-27599924D01*
X13127516Y-27599925D01*
X12914225Y-27657077D01*
X12914221Y-27657078D01*
X12880096Y-27672990D01*
X6502125Y-27672990D01*
X6436445Y-27607310D01*
X6433428Y-27604070D01*
X6416018Y-27583979D01*
X6395929Y-27566571D01*
X6392689Y-27563555D01*
X6313405Y-27484270D01*
X6313387Y-27484254D01*
X6223620Y-27417056D01*
X6220173Y-27414278D01*
X6200094Y-27396879D01*
X6177742Y-27382515D01*
X6174107Y-27379991D01*
X6084317Y-27312775D01*
X6084309Y-27312770D01*
X5985907Y-27259039D01*
X5982098Y-27256779D01*
X5959734Y-27242406D01*
X5935554Y-27231363D01*
X5931597Y-27229382D01*
X5833173Y-27175638D01*
X5833159Y-27175632D01*
X5728102Y-27136447D01*
X5724014Y-27134754D01*
X5699819Y-27123705D01*
X5674315Y-27116217D01*
X5670114Y-27114819D01*
X5565041Y-27075629D01*
X5455452Y-27051790D01*
X5451163Y-27050695D01*
X5425669Y-27043208D01*
X5399368Y-27039428D01*
X5395010Y-27038642D01*
X5285436Y-27014805D01*
X5285430Y-27014804D01*
X5173580Y-27006804D01*
X5169178Y-27006331D01*
X5142868Y-27002548D01*
X5116294Y-27002548D01*
X5111870Y-27002390D01*
X5000002Y-26994390D01*
X4999998Y-26994390D01*
X4888129Y-27002390D01*
X4883705Y-27002548D01*
X4857130Y-27002548D01*
X4830819Y-27006331D01*
X4826418Y-27006804D01*
X4714575Y-27014803D01*
X4714558Y-27014806D01*
X4604986Y-27038642D01*
X4600631Y-27039428D01*
X4574323Y-27043210D01*
X4548831Y-27050696D01*
X4544542Y-27051791D01*
X4434955Y-27075630D01*
X4329892Y-27114817D01*
X4325690Y-27116215D01*
X4300178Y-27123705D01*
X4275989Y-27134753D01*
X4271898Y-27136448D01*
X4166839Y-27175633D01*
X4166831Y-27175636D01*
X4068411Y-27229377D01*
X4064454Y-27231358D01*
X4040262Y-27242406D01*
X4017896Y-27256780D01*
X4014089Y-27259039D01*
X3929921Y-27305000D01*
X3915685Y-27312774D01*
X3915683Y-27312775D01*
X3915682Y-27312776D01*
X3825898Y-27379986D01*
X3822262Y-27382510D01*
X3799902Y-27396880D01*
X3779830Y-27414275D01*
X3776382Y-27417053D01*
X3686619Y-27484249D01*
X3686604Y-27484262D01*
X3607310Y-27563553D01*
X3604071Y-27566569D01*
X3583979Y-27583979D01*
X3566569Y-27604071D01*
X3563553Y-27607310D01*
X3484262Y-27686604D01*
X3484249Y-27686619D01*
X3417053Y-27776382D01*
X3414275Y-27779830D01*
X3396880Y-27799902D01*
X3382510Y-27822262D01*
X3379986Y-27825898D01*
X3312776Y-27915682D01*
X3259039Y-28014089D01*
X3256780Y-28017896D01*
X3242406Y-28040262D01*
X3231358Y-28064454D01*
X3229377Y-28068411D01*
X3175636Y-28166831D01*
X3175633Y-28166839D01*
X3136448Y-28271898D01*
X3134753Y-28275989D01*
X3123705Y-28300178D01*
X3116215Y-28325690D01*
X3114817Y-28329892D01*
X3075630Y-28434955D01*
X3051791Y-28544542D01*
X3050696Y-28548831D01*
X3043210Y-28574323D01*
X3039428Y-28600631D01*
X3038642Y-28604986D01*
X3014806Y-28714558D01*
X3014803Y-28714575D01*
X3006804Y-28826418D01*
X3006331Y-28830819D01*
X3002548Y-28857129D01*
X3002548Y-28883705D01*
X3002390Y-28888129D01*
X2994390Y-28999998D01*
X2994390Y-29000001D01*
X500Y-29000001D01*
X500Y-20500000D01*
X4700000Y-20500000D01*
X4700000Y-20847844D01*
X4706401Y-20907372D01*
X4706403Y-20907379D01*
X4756645Y-21042086D01*
X4756649Y-21042093D01*
X4842809Y-21157187D01*
X4842812Y-21157190D01*
X4957906Y-21243350D01*
X4957913Y-21243354D01*
X5092620Y-21293596D01*
X5092627Y-21293598D01*
X5152155Y-21299999D01*
X5152172Y-21300000D01*
X5500000Y-21300000D01*
X5500000Y-20500000D01*
X4700000Y-20500000D01*
X500Y-20500000D01*
X500Y-20000000D01*
X5595014Y-20000000D01*
X5614835Y-20125148D01*
X5672359Y-20238045D01*
X5761955Y-20327641D01*
X5874852Y-20385165D01*
X5968519Y-20400000D01*
X6031481Y-20400000D01*
X6125148Y-20385165D01*
X6238045Y-20327641D01*
X6327641Y-20238045D01*
X6385165Y-20125148D01*
X6404986Y-20000000D01*
X6385165Y-19874852D01*
X6327641Y-19761955D01*
X6238045Y-19672359D01*
X6125148Y-19614835D01*
X6031481Y-19600000D01*
X5968519Y-19600000D01*
X5874852Y-19614835D01*
X5761955Y-19672359D01*
X5672359Y-19761955D01*
X5614835Y-19874852D01*
X5595014Y-20000000D01*
X500Y-20000000D01*
X500Y-19500000D01*
X4700000Y-19500000D01*
X5500000Y-19500000D01*
X5500000Y-18700000D01*
X5152155Y-18700000D01*
X5092627Y-18706401D01*
X5092620Y-18706403D01*
X4957913Y-18756645D01*
X4957906Y-18756649D01*
X4842812Y-18842809D01*
X4842809Y-18842812D01*
X4756649Y-18957906D01*
X4756645Y-18957913D01*
X4706403Y-19092620D01*
X4706401Y-19092627D01*
X4700000Y-19152155D01*
X4700000Y-19500000D01*
X500Y-19500000D01*
X500Y-17500000D01*
X5450001Y-17500000D01*
X5450001Y-17699986D01*
X5460494Y-17802697D01*
X5515641Y-17969119D01*
X5515643Y-17969124D01*
X5607684Y-18118345D01*
X5731654Y-18242315D01*
X5880875Y-18334356D01*
X5880880Y-18334358D01*
X6025000Y-18382114D01*
X6025000Y-17500000D01*
X5450001Y-17500000D01*
X500Y-17500000D01*
X500Y-16500000D01*
X5450000Y-16500000D01*
X6025000Y-16500000D01*
X6025000Y-15617884D01*
X5880879Y-15665641D01*
X5731654Y-15757684D01*
X5607684Y-15881654D01*
X5515643Y-16030875D01*
X5515641Y-16030880D01*
X5460494Y-16197302D01*
X5460493Y-16197309D01*
X5450000Y-16300013D01*
X5450000Y-16500000D01*
X500Y-16500000D01*
X500Y-12475000D01*
X5617885Y-12475000D01*
X5665641Y-12619119D01*
X5665643Y-12619124D01*
X5757684Y-12768345D01*
X5881654Y-12892315D01*
X6030875Y-12984356D01*
X6030880Y-12984358D01*
X6197302Y-13039505D01*
X6197309Y-13039506D01*
X6300019Y-13049999D01*
X6499999Y-13049999D01*
X6500000Y-13049998D01*
X6500000Y-12475000D01*
X7500000Y-12475000D01*
X7500000Y-13049999D01*
X7699972Y-13049999D01*
X7699986Y-13049998D01*
X7802697Y-13039505D01*
X7969119Y-12984358D01*
X7969124Y-12984356D01*
X8118345Y-12892315D01*
X8242315Y-12768345D01*
X8334356Y-12619124D01*
X8334358Y-12619119D01*
X8382115Y-12475000D01*
X7500000Y-12475000D01*
X6500000Y-12475000D01*
X5617885Y-12475000D01*
X500Y-12475000D01*
X500Y-11475000D01*
X5617885Y-11475000D01*
X6500000Y-11475000D01*
X6500000Y-10900000D01*
X7500000Y-10900000D01*
X7500000Y-11475000D01*
X8382114Y-11475000D01*
X8334358Y-11330880D01*
X8334356Y-11330875D01*
X8242315Y-11181654D01*
X8118345Y-11057684D01*
X7969124Y-10965643D01*
X7969119Y-10965641D01*
X7802697Y-10910494D01*
X7802690Y-10910493D01*
X7699986Y-10900000D01*
X7500000Y-10900000D01*
X6500000Y-10900000D01*
X6300029Y-10900000D01*
X6300012Y-10900001D01*
X6197302Y-10910494D01*
X6030880Y-10965641D01*
X6030875Y-10965643D01*
X5881654Y-11057684D01*
X5757684Y-11181654D01*
X5665643Y-11330875D01*
X5665641Y-11330880D01*
X5617885Y-11475000D01*
X500Y-11475000D01*
X500Y-11000268D01*
X1031Y-10992166D01*
X11784Y-10910494D01*
X14906Y-10886775D01*
X23284Y-10855508D01*
X60740Y-10765081D01*
X76923Y-10737050D01*
X136513Y-10659392D01*
X159392Y-10636513D01*
X237050Y-10576923D01*
X265079Y-10560740D01*
X355509Y-10523283D01*
X386775Y-10514906D01*
X495967Y-10500530D01*
X504067Y-10500000D01*
X7792886Y-10500000D01*
X7792893Y-10500000D01*
X8000000Y-10500000D01*
X9350679Y-9149319D01*
X9356775Y-9143974D01*
X9444157Y-9076924D01*
X9472191Y-9060739D01*
X9562616Y-9023284D01*
X9593882Y-9014906D01*
X9703074Y-9000530D01*
X9711174Y-9000000D01*
X17875161Y-9000000D01*
X17942200Y-9019685D01*
G37*
%TD.AperFunction*%
%TD*%
%TA.AperFunction,Conductor*%
%TO.N,Net-(J2-Pin_2)*%
G36*
X61942200Y-24019685D02*
G01*
X61987955Y-24072489D01*
X61997899Y-24141647D01*
X61968874Y-24205203D01*
X61934898Y-24232662D01*
X61657787Y-24385004D01*
X61657784Y-24385006D01*
X61619748Y-24412640D01*
X61619748Y-24412641D01*
X62466378Y-25259271D01*
X62322422Y-25326400D01*
X62128922Y-25461890D01*
X61961890Y-25628922D01*
X61826400Y-25822421D01*
X61759271Y-25966378D01*
X60914083Y-25121190D01*
X60804903Y-25293232D01*
X60804900Y-25293238D01*
X60670965Y-25577862D01*
X60670963Y-25577867D01*
X60573755Y-25877041D01*
X60514808Y-26186050D01*
X60514807Y-26186057D01*
X60495057Y-26499994D01*
X60495057Y-26500005D01*
X60514807Y-26813942D01*
X60514808Y-26813949D01*
X60573755Y-27122958D01*
X60670963Y-27422132D01*
X60670965Y-27422137D01*
X60804900Y-27706761D01*
X60804905Y-27706771D01*
X60914083Y-27878807D01*
X60914084Y-27878808D01*
X61759271Y-27033621D01*
X61826400Y-27177578D01*
X61961890Y-27371078D01*
X62128922Y-27538110D01*
X62322422Y-27673600D01*
X62466377Y-27740728D01*
X61619747Y-28587357D01*
X61619748Y-28587358D01*
X61657777Y-28614988D01*
X61657796Y-28615000D01*
X61933447Y-28766540D01*
X61933455Y-28766544D01*
X62225926Y-28882340D01*
X62530620Y-28960573D01*
X62530629Y-28960575D01*
X62842701Y-28999999D01*
X62842715Y-29000000D01*
X63157285Y-29000000D01*
X63157298Y-28999999D01*
X63469370Y-28960575D01*
X63469379Y-28960573D01*
X63774073Y-28882340D01*
X64066544Y-28766544D01*
X64066545Y-28766543D01*
X64342216Y-28614991D01*
X64342222Y-28614988D01*
X64380250Y-28587358D01*
X64380250Y-28587357D01*
X63533621Y-27740728D01*
X63677578Y-27673600D01*
X63871078Y-27538110D01*
X64038110Y-27371078D01*
X64173600Y-27177579D01*
X64240728Y-27033620D01*
X65085915Y-27878807D01*
X65195092Y-27706773D01*
X65195103Y-27706754D01*
X65329034Y-27422137D01*
X65329036Y-27422132D01*
X65426244Y-27122958D01*
X65485191Y-26813949D01*
X65485192Y-26813942D01*
X65504943Y-26500005D01*
X65504943Y-26499994D01*
X65485192Y-26186057D01*
X65485191Y-26186050D01*
X65426244Y-25877041D01*
X65329036Y-25577867D01*
X65329034Y-25577862D01*
X65195099Y-25293237D01*
X65195091Y-25293222D01*
X65085915Y-25121191D01*
X64240728Y-25966377D01*
X64173600Y-25822422D01*
X64038110Y-25628922D01*
X63871078Y-25461890D01*
X63677578Y-25326400D01*
X63533621Y-25259271D01*
X64380251Y-24412641D01*
X64380250Y-24412639D01*
X64342227Y-24385014D01*
X64342209Y-24385002D01*
X64065102Y-24232662D01*
X64015838Y-24183116D01*
X64001181Y-24114801D01*
X64025784Y-24049406D01*
X64081837Y-24007695D01*
X64124839Y-24000000D01*
X65876000Y-24000000D01*
X65943039Y-24019685D01*
X65988794Y-24072489D01*
X66000000Y-24124000D01*
X66000000Y-28948637D01*
X65980315Y-29015676D01*
X65963681Y-29036318D01*
X65036819Y-29963181D01*
X64975496Y-29996666D01*
X64949138Y-29999500D01*
X57343756Y-29999500D01*
X57276717Y-29979815D01*
X57256075Y-29963181D01*
X56788922Y-29496027D01*
X56788912Y-29496019D01*
X56172291Y-28879398D01*
X56462551Y-28879398D01*
X56493766Y-29002662D01*
X56563313Y-29109112D01*
X56663657Y-29187213D01*
X56783922Y-29228500D01*
X56879069Y-29228500D01*
X56972921Y-29212839D01*
X57084751Y-29152320D01*
X57170871Y-29058769D01*
X57221948Y-28942323D01*
X57230093Y-28844031D01*
X57551136Y-28844031D01*
X58022008Y-29314902D01*
X58022009Y-29314902D01*
X58037916Y-29280791D01*
X58037920Y-29280780D01*
X58095074Y-29067482D01*
X58095075Y-29067476D01*
X58114321Y-28847500D01*
X58114321Y-28847499D01*
X58095075Y-28627523D01*
X58095073Y-28627513D01*
X58037924Y-28414229D01*
X58037920Y-28414220D01*
X58022008Y-28380095D01*
X57590924Y-28811181D01*
X57562839Y-28826516D01*
X57551136Y-28844031D01*
X57230093Y-28844031D01*
X57232449Y-28815602D01*
X57201234Y-28692338D01*
X57131687Y-28585888D01*
X57031343Y-28507787D01*
X56911078Y-28466500D01*
X56815931Y-28466500D01*
X56722079Y-28482161D01*
X56610249Y-28542680D01*
X56524129Y-28636231D01*
X56473052Y-28752677D01*
X56462551Y-28879398D01*
X56172291Y-28879398D01*
X56157834Y-28864941D01*
X56157832Y-28864938D01*
X55672990Y-28380096D01*
X55657078Y-28414221D01*
X55657077Y-28414225D01*
X55599925Y-28627516D01*
X55599924Y-28627523D01*
X55580679Y-28847499D01*
X55580679Y-28847500D01*
X55599924Y-29067476D01*
X55599926Y-29067486D01*
X55657075Y-29280770D01*
X55657080Y-29280784D01*
X55688664Y-29348516D01*
X55699156Y-29417593D01*
X55670636Y-29481377D01*
X55612159Y-29519616D01*
X55542292Y-29520170D01*
X55488601Y-29488601D01*
X55036319Y-29036318D01*
X55002834Y-28974995D01*
X55000000Y-28948637D01*
X55000000Y-27672990D01*
X56380096Y-27672990D01*
X56847499Y-28140393D01*
X56847500Y-28140393D01*
X56847500Y-28140392D01*
X57314903Y-27672990D01*
X57314902Y-27672989D01*
X57280783Y-27657080D01*
X57280772Y-27657076D01*
X57067486Y-27599926D01*
X57067476Y-27599924D01*
X56847501Y-27580679D01*
X56847499Y-27580679D01*
X56627523Y-27599924D01*
X56627516Y-27599925D01*
X56414225Y-27657077D01*
X56414221Y-27657078D01*
X56380096Y-27672990D01*
X55000000Y-27672990D01*
X55000000Y-24124000D01*
X55019685Y-24056961D01*
X55072489Y-24011206D01*
X55124000Y-24000000D01*
X61875161Y-24000000D01*
X61942200Y-24019685D01*
G37*
%TD.AperFunction*%
%TD*%
M02*
