<?xml version="1.0" standalone="no"?>
 <!DOCTYPE svg PUBLIC "-//W3C//DTD SVG 1.1//EN" 
 "http://www.w3.org/Graphics/SVG/1.1/DTD/svg11.dtd"> 
<svg
  xmlns:svg="http://www.w3.org/2000/svg"
  xmlns="http://www.w3.org/2000/svg"
  xmlns:xlink="http://www.w3.org/1999/xlink"
  version="1.1"
  width="297.0022mm" height="210.0072mm" viewBox="0.0000 0.0000 297.0022 210.0072">
<title>SVG Image created as power_distribution_board-NPTH-drl_map.svg date 2023/10/26 22:09:37 </title>
  <desc>Image generated by PCBNEW </desc>
<g style="fill:#000000; fill-opacity:1.0000;stroke:#000000; stroke-opacity:1.0000;
stroke-linecap:round; stroke-linejoin:round;"
 transform="translate(0 0) scale(1 1)">
</g>
<g style="fill:#000000; fill-opacity:0.0; 
stroke:#000000; stroke-width:0.0000; stroke-opacity:1; 
stroke-linecap:round; stroke-linejoin:round;">
</g>
<g style="fill:#000000; fill-opacity:0.0; 
stroke:#000000; stroke-width:0.2884; stroke-opacity:1; 
stroke-linecap:round; stroke-linejoin:round;">
<circle cx="272.5104" cy="28.3949" r="5.7679" /> 
<circle cx="272.5104" cy="97.6094" r="5.7679" /> 
<circle cx="24.4918" cy="97.6094" r="5.7679" /> 
<circle cx="24.4918" cy="28.3949" r="5.7679" /> 
</g>
<g style="fill:#000000; fill-opacity:0.0; 
stroke:#000000; stroke-width:0.1442; stroke-opacity:1; 
stroke-linecap:round; stroke-linejoin:round;">
<path style="fill:#000000; fill-opacity:0.0; 
stroke:#000000; stroke-width:0.1442; stroke-opacity:1; 
stroke-linecap:round; stroke-linejoin:round;fill:none"
d="M 10.0721,13.9752
286.9301,13.9752
286.9301,112.0291
10.0721,112.0291
Z" /> 
</g>
<g style="fill:#000000; fill-opacity:0.0; 
stroke:#000000; stroke-width:0.5768; stroke-opacity:1; 
stroke-linecap:round; stroke-linejoin:round;">
</g>
<g style="fill:#000000; fill-opacity:0.0; 
stroke:#000000; stroke-width:0.2000; stroke-opacity:1; 
stroke-linecap:round; stroke-linejoin:round;">
<text x="12.0000" y="115.3012"
textLength="14.8667" font-size="2.6667" lengthAdjust="spacingAndGlyphs"
text-anchor="start" opacity="0">Drill Map:</text>
<g class="stroked-text"><desc>Drill Map:</desc>
<path d="M12.6078 115.2160
L12.6078 113.2160
" />
<path d="M12.6078 113.2160
L13.0840 113.2160
" />
<path d="M13.0840 113.2160
L13.3697 113.3113
" />
<path d="M13.3697 113.3113
L13.5601 113.5017
" />
<path d="M13.5601 113.5017
L13.6554 113.6922
" />
<path d="M13.6554 113.6922
L13.7506 114.0732
" />
<path d="M13.7506 114.0732
L13.7506 114.3589
" />
<path d="M13.7506 114.3589
L13.6554 114.7398
" />
<path d="M13.6554 114.7398
L13.5601 114.9303
" />
<path d="M13.5601 114.9303
L13.3697 115.1208
" />
<path d="M13.3697 115.1208
L13.0840 115.2160
" />
<path d="M13.0840 115.2160
L12.6078 115.2160
" />
<path d="M14.6078 115.2160
L14.6078 113.8827
" />
<path d="M14.6078 114.2636
L14.7030 114.0732
" />
<path d="M14.7030 114.0732
L14.7982 113.9779
" />
<path d="M14.7982 113.9779
L14.9887 113.8827
" />
<path d="M14.9887 113.8827
L15.1792 113.8827
" />
<path d="M15.8459 115.2160
L15.8459 113.8827
" />
<path d="M15.8459 113.2160
L15.7506 113.3113
" />
<path d="M15.7506 113.3113
L15.8459 113.4065
" />
<path d="M15.8459 113.4065
L15.9411 113.3113
" />
<path d="M15.9411 113.3113
L15.8459 113.2160
" />
<path d="M15.8459 113.2160
L15.8459 113.4065
" />
<path d="M17.0840 115.2160
L16.8935 115.1208
" />
<path d="M16.8935 115.1208
L16.7982 114.9303
" />
<path d="M16.7982 114.9303
L16.7982 113.2160
" />
<path d="M18.1316 115.2160
L17.9411 115.1208
" />
<path d="M17.9411 115.1208
L17.8459 114.9303
" />
<path d="M17.8459 114.9303
L17.8459 113.2160
" />
<path d="M20.4173 115.2160
L20.4173 113.2160
" />
<path d="M20.4173 113.2160
L21.0840 114.6446
" />
<path d="M21.0840 114.6446
L21.7506 113.2160
" />
<path d="M21.7506 113.2160
L21.7506 115.2160
" />
<path d="M23.5601 115.2160
L23.5601 114.1684
" />
<path d="M23.5601 114.1684
L23.4649 113.9779
" />
<path d="M23.4649 113.9779
L23.2744 113.8827
" />
<path d="M23.2744 113.8827
L22.8935 113.8827
" />
<path d="M22.8935 113.8827
L22.7030 113.9779
" />
<path d="M23.5601 115.1208
L23.3697 115.2160
" />
<path d="M23.3697 115.2160
L22.8935 115.2160
" />
<path d="M22.8935 115.2160
L22.7030 115.1208
" />
<path d="M22.7030 115.1208
L22.6078 114.9303
" />
<path d="M22.6078 114.9303
L22.6078 114.7398
" />
<path d="M22.6078 114.7398
L22.7030 114.5494
" />
<path d="M22.7030 114.5494
L22.8935 114.4541
" />
<path d="M22.8935 114.4541
L23.3697 114.4541
" />
<path d="M23.3697 114.4541
L23.5601 114.3589
" />
<path d="M24.5125 113.8827
L24.5125 115.8827
" />
<path d="M24.5125 113.9779
L24.7030 113.8827
" />
<path d="M24.7030 113.8827
L25.0840 113.8827
" />
<path d="M25.0840 113.8827
L25.2744 113.9779
" />
<path d="M25.2744 113.9779
L25.3697 114.0732
" />
<path d="M25.3697 114.0732
L25.4649 114.2636
" />
<path d="M25.4649 114.2636
L25.4649 114.8351
" />
<path d="M25.4649 114.8351
L25.3697 115.0256
" />
<path d="M25.3697 115.0256
L25.2744 115.1208
" />
<path d="M25.2744 115.1208
L25.0840 115.2160
" />
<path d="M25.0840 115.2160
L24.7030 115.2160
" />
<path d="M24.7030 115.2160
L24.5125 115.1208
" />
<path d="M26.3220 115.0256
L26.4173 115.1208
" />
<path d="M26.4173 115.1208
L26.3220 115.2160
" />
<path d="M26.3220 115.2160
L26.2268 115.1208
" />
<path d="M26.2268 115.1208
L26.3220 115.0256
" />
<path d="M26.3220 115.0256
L26.3220 115.2160
" />
<path d="M26.3220 113.9779
L26.4173 114.0732
" />
<path d="M26.4173 114.0732
L26.3220 114.1684
" />
<path d="M26.3220 114.1684
L26.2268 114.0732
" />
<path d="M26.2268 114.0732
L26.3220 113.9779
" />
<path d="M26.3220 113.9779
L26.3220 114.1684
" />
</g></g> 
</svg>
