M48
; DRILL file {KiCad 7.0.6} date Thu Oct 26 22:09:36 2023
; FORMAT={-:-/ absolute / inch / decimal}
; #@! TF.CreationDate,2023-10-26T22:09:36-07:00
; #@! TF.GenerationSoftware,Kicad,Pcbnew,7.0.6
; #@! TF.FileFunction,Plated,1,2,PTH
FMAT,2
INCH
; #@! TA.AperFunction,Plated,PTH,ComponentDrill
T1C0.0300
; #@! TA.AperFunction,Plated,PTH,ComponentDrill
T2C0.0315
; #@! TA.AperFunction,Plated,PTH,ComponentDrill
T3C0.0984
; #@! TA.AperFunction,Plated,PTH,ComponentDrill
T4C0.1063
%
G90
G05
T1
X0.5255Y-0.7617
X0.5255Y-1.1357
X1.1357Y-0.7617
X1.1357Y-1.1357
X1.6279Y-0.1712
X1.6279Y-0.5452
X1.6279Y-0.7617
X1.6279Y-1.1357
X2.2381Y-0.1712
X2.2381Y-0.5452
X2.2381Y-0.7617
X2.2381Y-1.1357
X2.7302Y-0.4854
X2.7302Y-0.8594
X3.3405Y-0.4854
X3.3405Y-0.8594
T2
X0.2362Y-0.7874
X0.3346Y-0.7874
T3
X0.4665Y-0.2165
X0.4665Y-0.4921
T4
X0.748Y-0.2559
X0.748Y-0.4528
X1.063Y-0.2559
X1.063Y-0.4528
X1.378Y-0.2559
X1.378Y-0.4528
X1.378Y-0.8465
X1.378Y-1.0433
X2.4803Y-0.2559
X2.4803Y-0.4528
X2.4803Y-0.8465
X2.4803Y-1.0433
X3.5827Y-0.5709
X3.5827Y-0.7677
T0
M30
