%TF.GenerationSoftware,KiCad,Pcbnew,7.0.6*%
%TF.CreationDate,2023-10-26T22:09:33-07:00*%
%TF.ProjectId,power_distribution_board,706f7765-725f-4646-9973-747269627574,rev?*%
%TF.SameCoordinates,PX8a48640PY3938700*%
%TF.FileFunction,Legend,Top*%
%TF.FilePolarity,Positive*%
%FSLAX46Y46*%
G04 Gerber Fmt 4.6, Leading zero omitted, Abs format (unit mm)*
G04 Created by KiCad (PCBNEW 7.0.6) date 2023-10-26 22:09:33*
%MOMM*%
%LPD*%
G01*
G04 APERTURE LIST*
%ADD10C,0.150000*%
%ADD11C,0.120000*%
G04 APERTURE END LIST*
D10*
X66454819Y-9333333D02*
X67169104Y-9333333D01*
X67169104Y-9333333D02*
X67311961Y-9380952D01*
X67311961Y-9380952D02*
X67407200Y-9476190D01*
X67407200Y-9476190D02*
X67454819Y-9619047D01*
X67454819Y-9619047D02*
X67454819Y-9714285D01*
X67454819Y-8333333D02*
X67454819Y-8904761D01*
X67454819Y-8619047D02*
X66454819Y-8619047D01*
X66454819Y-8619047D02*
X66597676Y-8714285D01*
X66597676Y-8714285D02*
X66692914Y-8809523D01*
X66692914Y-8809523D02*
X66740533Y-8904761D01*
X63114700Y-3071428D02*
X63114700Y-1928571D01*
X63114700Y-16071428D02*
X63114700Y-14928571D01*
X63686128Y-15499999D02*
X62543271Y-15499999D01*
X38454819Y-9333333D02*
X39169104Y-9333333D01*
X39169104Y-9333333D02*
X39311961Y-9380952D01*
X39311961Y-9380952D02*
X39407200Y-9476190D01*
X39407200Y-9476190D02*
X39454819Y-9619047D01*
X39454819Y-9619047D02*
X39454819Y-9714285D01*
X38883390Y-8714285D02*
X38835771Y-8809523D01*
X38835771Y-8809523D02*
X38788152Y-8857142D01*
X38788152Y-8857142D02*
X38692914Y-8904761D01*
X38692914Y-8904761D02*
X38645295Y-8904761D01*
X38645295Y-8904761D02*
X38550057Y-8857142D01*
X38550057Y-8857142D02*
X38502438Y-8809523D01*
X38502438Y-8809523D02*
X38454819Y-8714285D01*
X38454819Y-8714285D02*
X38454819Y-8523809D01*
X38454819Y-8523809D02*
X38502438Y-8428571D01*
X38502438Y-8428571D02*
X38550057Y-8380952D01*
X38550057Y-8380952D02*
X38645295Y-8333333D01*
X38645295Y-8333333D02*
X38692914Y-8333333D01*
X38692914Y-8333333D02*
X38788152Y-8380952D01*
X38788152Y-8380952D02*
X38835771Y-8428571D01*
X38835771Y-8428571D02*
X38883390Y-8523809D01*
X38883390Y-8523809D02*
X38883390Y-8714285D01*
X38883390Y-8714285D02*
X38931009Y-8809523D01*
X38931009Y-8809523D02*
X38978628Y-8857142D01*
X38978628Y-8857142D02*
X39073866Y-8904761D01*
X39073866Y-8904761D02*
X39264342Y-8904761D01*
X39264342Y-8904761D02*
X39359580Y-8857142D01*
X39359580Y-8857142D02*
X39407200Y-8809523D01*
X39407200Y-8809523D02*
X39454819Y-8714285D01*
X39454819Y-8714285D02*
X39454819Y-8523809D01*
X39454819Y-8523809D02*
X39407200Y-8428571D01*
X39407200Y-8428571D02*
X39359580Y-8380952D01*
X39359580Y-8380952D02*
X39264342Y-8333333D01*
X39264342Y-8333333D02*
X39073866Y-8333333D01*
X39073866Y-8333333D02*
X38978628Y-8380952D01*
X38978628Y-8380952D02*
X38931009Y-8428571D01*
X38931009Y-8428571D02*
X38883390Y-8523809D01*
X35114700Y-16071428D02*
X35114700Y-14928571D01*
X35686128Y-15499999D02*
X34543271Y-15499999D01*
X35114700Y-3071428D02*
X35114700Y-1928571D01*
X22454819Y-9333333D02*
X23169104Y-9333333D01*
X23169104Y-9333333D02*
X23311961Y-9380952D01*
X23311961Y-9380952D02*
X23407200Y-9476190D01*
X23407200Y-9476190D02*
X23454819Y-9619047D01*
X23454819Y-9619047D02*
X23454819Y-9714285D01*
X22454819Y-8380952D02*
X22454819Y-8857142D01*
X22454819Y-8857142D02*
X22931009Y-8904761D01*
X22931009Y-8904761D02*
X22883390Y-8857142D01*
X22883390Y-8857142D02*
X22835771Y-8761904D01*
X22835771Y-8761904D02*
X22835771Y-8523809D01*
X22835771Y-8523809D02*
X22883390Y-8428571D01*
X22883390Y-8428571D02*
X22931009Y-8380952D01*
X22931009Y-8380952D02*
X23026247Y-8333333D01*
X23026247Y-8333333D02*
X23264342Y-8333333D01*
X23264342Y-8333333D02*
X23359580Y-8380952D01*
X23359580Y-8380952D02*
X23407200Y-8428571D01*
X23407200Y-8428571D02*
X23454819Y-8523809D01*
X23454819Y-8523809D02*
X23454819Y-8761904D01*
X23454819Y-8761904D02*
X23407200Y-8857142D01*
X23407200Y-8857142D02*
X23359580Y-8904761D01*
X19114700Y-16071428D02*
X19114700Y-14928571D01*
X19686128Y-15499999D02*
X18543271Y-15499999D01*
X19114700Y-3071428D02*
X19114700Y-1928571D01*
X20835595Y-16552319D02*
X20835595Y-17361842D01*
X20835595Y-17361842D02*
X20883214Y-17457080D01*
X20883214Y-17457080D02*
X20930833Y-17504700D01*
X20930833Y-17504700D02*
X21026071Y-17552319D01*
X21026071Y-17552319D02*
X21216547Y-17552319D01*
X21216547Y-17552319D02*
X21311785Y-17504700D01*
X21311785Y-17504700D02*
X21359404Y-17457080D01*
X21359404Y-17457080D02*
X21407023Y-17361842D01*
X21407023Y-17361842D02*
X21407023Y-16552319D01*
X21787976Y-16552319D02*
X22407023Y-16552319D01*
X22407023Y-16552319D02*
X22073690Y-16933271D01*
X22073690Y-16933271D02*
X22216547Y-16933271D01*
X22216547Y-16933271D02*
X22311785Y-16980890D01*
X22311785Y-16980890D02*
X22359404Y-17028509D01*
X22359404Y-17028509D02*
X22407023Y-17123747D01*
X22407023Y-17123747D02*
X22407023Y-17361842D01*
X22407023Y-17361842D02*
X22359404Y-17457080D01*
X22359404Y-17457080D02*
X22311785Y-17504700D01*
X22311785Y-17504700D02*
X22216547Y-17552319D01*
X22216547Y-17552319D02*
X21930833Y-17552319D01*
X21930833Y-17552319D02*
X21835595Y-17504700D01*
X21835595Y-17504700D02*
X21787976Y-17457080D01*
X11516666Y-8804819D02*
X11516666Y-9519104D01*
X11516666Y-9519104D02*
X11469047Y-9661961D01*
X11469047Y-9661961D02*
X11373809Y-9757200D01*
X11373809Y-9757200D02*
X11230952Y-9804819D01*
X11230952Y-9804819D02*
X11135714Y-9804819D01*
X11897619Y-8804819D02*
X12564285Y-8804819D01*
X12564285Y-8804819D02*
X12135714Y-9804819D01*
X76835595Y-9534819D02*
X76835595Y-10344342D01*
X76835595Y-10344342D02*
X76883214Y-10439580D01*
X76883214Y-10439580D02*
X76930833Y-10487200D01*
X76930833Y-10487200D02*
X77026071Y-10534819D01*
X77026071Y-10534819D02*
X77216547Y-10534819D01*
X77216547Y-10534819D02*
X77311785Y-10487200D01*
X77311785Y-10487200D02*
X77359404Y-10439580D01*
X77359404Y-10439580D02*
X77407023Y-10344342D01*
X77407023Y-10344342D02*
X77407023Y-9534819D01*
X78311785Y-9868152D02*
X78311785Y-10534819D01*
X78073690Y-9487200D02*
X77835595Y-10201485D01*
X77835595Y-10201485D02*
X78454642Y-10201485D01*
X11516666Y-1804819D02*
X11516666Y-2519104D01*
X11516666Y-2519104D02*
X11469047Y-2661961D01*
X11469047Y-2661961D02*
X11373809Y-2757200D01*
X11373809Y-2757200D02*
X11230952Y-2804819D01*
X11230952Y-2804819D02*
X11135714Y-2804819D01*
X12421428Y-1804819D02*
X12230952Y-1804819D01*
X12230952Y-1804819D02*
X12135714Y-1852438D01*
X12135714Y-1852438D02*
X12088095Y-1900057D01*
X12088095Y-1900057D02*
X11992857Y-2042914D01*
X11992857Y-2042914D02*
X11945238Y-2233390D01*
X11945238Y-2233390D02*
X11945238Y-2614342D01*
X11945238Y-2614342D02*
X11992857Y-2709580D01*
X11992857Y-2709580D02*
X12040476Y-2757200D01*
X12040476Y-2757200D02*
X12135714Y-2804819D01*
X12135714Y-2804819D02*
X12326190Y-2804819D01*
X12326190Y-2804819D02*
X12421428Y-2757200D01*
X12421428Y-2757200D02*
X12469047Y-2709580D01*
X12469047Y-2709580D02*
X12516666Y-2614342D01*
X12516666Y-2614342D02*
X12516666Y-2376247D01*
X12516666Y-2376247D02*
X12469047Y-2281009D01*
X12469047Y-2281009D02*
X12421428Y-2233390D01*
X12421428Y-2233390D02*
X12326190Y-2185771D01*
X12326190Y-2185771D02*
X12135714Y-2185771D01*
X12135714Y-2185771D02*
X12040476Y-2233390D01*
X12040476Y-2233390D02*
X11992857Y-2281009D01*
X11992857Y-2281009D02*
X11945238Y-2376247D01*
X48835595Y-1552319D02*
X48835595Y-2361842D01*
X48835595Y-2361842D02*
X48883214Y-2457080D01*
X48883214Y-2457080D02*
X48930833Y-2504700D01*
X48930833Y-2504700D02*
X49026071Y-2552319D01*
X49026071Y-2552319D02*
X49216547Y-2552319D01*
X49216547Y-2552319D02*
X49311785Y-2504700D01*
X49311785Y-2504700D02*
X49359404Y-2457080D01*
X49359404Y-2457080D02*
X49407023Y-2361842D01*
X49407023Y-2361842D02*
X49407023Y-1552319D01*
X50407023Y-2552319D02*
X49835595Y-2552319D01*
X50121309Y-2552319D02*
X50121309Y-1552319D01*
X50121309Y-1552319D02*
X50026071Y-1695176D01*
X50026071Y-1695176D02*
X49930833Y-1790414D01*
X49930833Y-1790414D02*
X49835595Y-1838033D01*
X7083333Y-15359580D02*
X7035714Y-15407200D01*
X7035714Y-15407200D02*
X6892857Y-15454819D01*
X6892857Y-15454819D02*
X6797619Y-15454819D01*
X6797619Y-15454819D02*
X6654762Y-15407200D01*
X6654762Y-15407200D02*
X6559524Y-15311961D01*
X6559524Y-15311961D02*
X6511905Y-15216723D01*
X6511905Y-15216723D02*
X6464286Y-15026247D01*
X6464286Y-15026247D02*
X6464286Y-14883390D01*
X6464286Y-14883390D02*
X6511905Y-14692914D01*
X6511905Y-14692914D02*
X6559524Y-14597676D01*
X6559524Y-14597676D02*
X6654762Y-14502438D01*
X6654762Y-14502438D02*
X6797619Y-14454819D01*
X6797619Y-14454819D02*
X6892857Y-14454819D01*
X6892857Y-14454819D02*
X7035714Y-14502438D01*
X7035714Y-14502438D02*
X7083333Y-14550057D01*
X8035714Y-15454819D02*
X7464286Y-15454819D01*
X7750000Y-15454819D02*
X7750000Y-14454819D01*
X7750000Y-14454819D02*
X7654762Y-14597676D01*
X7654762Y-14597676D02*
X7559524Y-14692914D01*
X7559524Y-14692914D02*
X7464286Y-14740533D01*
X38454819Y-24333333D02*
X39169104Y-24333333D01*
X39169104Y-24333333D02*
X39311961Y-24380952D01*
X39311961Y-24380952D02*
X39407200Y-24476190D01*
X39407200Y-24476190D02*
X39454819Y-24619047D01*
X39454819Y-24619047D02*
X39454819Y-24714285D01*
X38454819Y-23952380D02*
X38454819Y-23333333D01*
X38454819Y-23333333D02*
X38835771Y-23666666D01*
X38835771Y-23666666D02*
X38835771Y-23523809D01*
X38835771Y-23523809D02*
X38883390Y-23428571D01*
X38883390Y-23428571D02*
X38931009Y-23380952D01*
X38931009Y-23380952D02*
X39026247Y-23333333D01*
X39026247Y-23333333D02*
X39264342Y-23333333D01*
X39264342Y-23333333D02*
X39359580Y-23380952D01*
X39359580Y-23380952D02*
X39407200Y-23428571D01*
X39407200Y-23428571D02*
X39454819Y-23523809D01*
X39454819Y-23523809D02*
X39454819Y-23809523D01*
X39454819Y-23809523D02*
X39407200Y-23904761D01*
X39407200Y-23904761D02*
X39359580Y-23952380D01*
X35114700Y-18071428D02*
X35114700Y-16928571D01*
X35114700Y-31071428D02*
X35114700Y-29928571D01*
X35686128Y-30499999D02*
X34543271Y-30499999D01*
X66454819Y-24333333D02*
X67169104Y-24333333D01*
X67169104Y-24333333D02*
X67311961Y-24380952D01*
X67311961Y-24380952D02*
X67407200Y-24476190D01*
X67407200Y-24476190D02*
X67454819Y-24619047D01*
X67454819Y-24619047D02*
X67454819Y-24714285D01*
X66550057Y-23904761D02*
X66502438Y-23857142D01*
X66502438Y-23857142D02*
X66454819Y-23761904D01*
X66454819Y-23761904D02*
X66454819Y-23523809D01*
X66454819Y-23523809D02*
X66502438Y-23428571D01*
X66502438Y-23428571D02*
X66550057Y-23380952D01*
X66550057Y-23380952D02*
X66645295Y-23333333D01*
X66645295Y-23333333D02*
X66740533Y-23333333D01*
X66740533Y-23333333D02*
X66883390Y-23380952D01*
X66883390Y-23380952D02*
X67454819Y-23952380D01*
X67454819Y-23952380D02*
X67454819Y-23333333D01*
X63114700Y-18071428D02*
X63114700Y-16928571D01*
X63114700Y-31071428D02*
X63114700Y-29928571D01*
X63686128Y-30499999D02*
X62543271Y-30499999D01*
X30454819Y-9333333D02*
X31169104Y-9333333D01*
X31169104Y-9333333D02*
X31311961Y-9380952D01*
X31311961Y-9380952D02*
X31407200Y-9476190D01*
X31407200Y-9476190D02*
X31454819Y-9619047D01*
X31454819Y-9619047D02*
X31454819Y-9714285D01*
X30788152Y-8428571D02*
X31454819Y-8428571D01*
X30407200Y-8666666D02*
X31121485Y-8904761D01*
X31121485Y-8904761D02*
X31121485Y-8285714D01*
X27114700Y-3071428D02*
X27114700Y-1928571D01*
X27114700Y-16071428D02*
X27114700Y-14928571D01*
X27686128Y-15499999D02*
X26543271Y-15499999D01*
X94454819Y-17333333D02*
X95169104Y-17333333D01*
X95169104Y-17333333D02*
X95311961Y-17380952D01*
X95311961Y-17380952D02*
X95407200Y-17476190D01*
X95407200Y-17476190D02*
X95454819Y-17619047D01*
X95454819Y-17619047D02*
X95454819Y-17714285D01*
X95454819Y-16809523D02*
X95454819Y-16619047D01*
X95454819Y-16619047D02*
X95407200Y-16523809D01*
X95407200Y-16523809D02*
X95359580Y-16476190D01*
X95359580Y-16476190D02*
X95216723Y-16380952D01*
X95216723Y-16380952D02*
X95026247Y-16333333D01*
X95026247Y-16333333D02*
X94645295Y-16333333D01*
X94645295Y-16333333D02*
X94550057Y-16380952D01*
X94550057Y-16380952D02*
X94502438Y-16428571D01*
X94502438Y-16428571D02*
X94454819Y-16523809D01*
X94454819Y-16523809D02*
X94454819Y-16714285D01*
X94454819Y-16714285D02*
X94502438Y-16809523D01*
X94502438Y-16809523D02*
X94550057Y-16857142D01*
X94550057Y-16857142D02*
X94645295Y-16904761D01*
X94645295Y-16904761D02*
X94883390Y-16904761D01*
X94883390Y-16904761D02*
X94978628Y-16857142D01*
X94978628Y-16857142D02*
X95026247Y-16809523D01*
X95026247Y-16809523D02*
X95073866Y-16714285D01*
X95073866Y-16714285D02*
X95073866Y-16523809D01*
X95073866Y-16523809D02*
X95026247Y-16428571D01*
X95026247Y-16428571D02*
X94978628Y-16380952D01*
X94978628Y-16380952D02*
X94883390Y-16333333D01*
X91114700Y-11071428D02*
X91114700Y-9928571D01*
X91114700Y-24071428D02*
X91114700Y-22928571D01*
X91686128Y-23499999D02*
X90543271Y-23499999D01*
X48835595Y-16552319D02*
X48835595Y-17361842D01*
X48835595Y-17361842D02*
X48883214Y-17457080D01*
X48883214Y-17457080D02*
X48930833Y-17504700D01*
X48930833Y-17504700D02*
X49026071Y-17552319D01*
X49026071Y-17552319D02*
X49216547Y-17552319D01*
X49216547Y-17552319D02*
X49311785Y-17504700D01*
X49311785Y-17504700D02*
X49359404Y-17457080D01*
X49359404Y-17457080D02*
X49407023Y-17361842D01*
X49407023Y-17361842D02*
X49407023Y-16552319D01*
X49835595Y-16647557D02*
X49883214Y-16599938D01*
X49883214Y-16599938D02*
X49978452Y-16552319D01*
X49978452Y-16552319D02*
X50216547Y-16552319D01*
X50216547Y-16552319D02*
X50311785Y-16599938D01*
X50311785Y-16599938D02*
X50359404Y-16647557D01*
X50359404Y-16647557D02*
X50407023Y-16742795D01*
X50407023Y-16742795D02*
X50407023Y-16838033D01*
X50407023Y-16838033D02*
X50359404Y-16980890D01*
X50359404Y-16980890D02*
X49787976Y-17552319D01*
X49787976Y-17552319D02*
X50407023Y-17552319D01*
D11*
%TO.C,J1*%
X64410000Y-3790000D02*
X61590000Y-3790000D01*
X64410000Y-3790000D02*
X65710000Y-5490000D01*
X61590000Y-3790000D02*
X60290000Y-5490000D01*
X65710000Y-5490000D02*
X65710000Y-14210000D01*
X60290000Y-5490000D02*
X60290000Y-14210000D01*
X65710000Y-14210000D02*
X60290000Y-14210000D01*
%TO.C,J8*%
X36410000Y-3790000D02*
X33590000Y-3790000D01*
X36410000Y-3790000D02*
X37710000Y-5490000D01*
X33590000Y-3790000D02*
X32290000Y-5490000D01*
X37710000Y-5490000D02*
X37710000Y-14210000D01*
X32290000Y-5490000D02*
X32290000Y-14210000D01*
X37710000Y-14210000D02*
X32290000Y-14210000D01*
%TO.C,J5*%
X20410000Y-3790000D02*
X17590000Y-3790000D01*
X20410000Y-3790000D02*
X21710000Y-5490000D01*
X17590000Y-3790000D02*
X16290000Y-5490000D01*
X21710000Y-5490000D02*
X21710000Y-14210000D01*
X16290000Y-5490000D02*
X16290000Y-14210000D01*
X21710000Y-14210000D02*
X16290000Y-14210000D01*
%TO.C,U3*%
X11687500Y-17687500D02*
X12487500Y-17687500D01*
X11687500Y-18487500D02*
X11687500Y-17687500D01*
X11987500Y-17987500D02*
X30207500Y-17987500D01*
X30207500Y-17987500D02*
X30207500Y-30207500D01*
X30207500Y-30207500D02*
X11987500Y-30207500D01*
X11987500Y-30207500D02*
X11987500Y-17987500D01*
%TO.C,U4*%
X67687500Y-10670000D02*
X68487500Y-10670000D01*
X67687500Y-11470000D02*
X67687500Y-10670000D01*
X67987500Y-10970000D02*
X86207500Y-10970000D01*
X86207500Y-10970000D02*
X86207500Y-23190000D01*
X86207500Y-23190000D02*
X67987500Y-23190000D01*
X67987500Y-23190000D02*
X67987500Y-10970000D01*
%TO.C,U1*%
X39687500Y-2687500D02*
X40487500Y-2687500D01*
X39687500Y-3487500D02*
X39687500Y-2687500D01*
X39987500Y-2987500D02*
X58207500Y-2987500D01*
X58207500Y-2987500D02*
X58207500Y-15207500D01*
X58207500Y-15207500D02*
X39987500Y-15207500D01*
X39987500Y-15207500D02*
X39987500Y-2987500D01*
%TO.C,C1*%
X3107789Y-17825000D02*
X3857789Y-17825000D01*
X3482789Y-17450000D02*
X3482789Y-18200000D01*
X7250000Y-16170000D02*
X7250000Y-23830000D01*
X7290000Y-16170000D02*
X7290000Y-23830000D01*
X7330000Y-16170000D02*
X7330000Y-23830000D01*
X7370000Y-16171000D02*
X7370000Y-23829000D01*
X7410000Y-16173000D02*
X7410000Y-23827000D01*
X7450000Y-16175000D02*
X7450000Y-23825000D01*
X7490000Y-16177000D02*
X7490000Y-18960000D01*
X7490000Y-21040000D02*
X7490000Y-23823000D01*
X7530000Y-16180000D02*
X7530000Y-18960000D01*
X7530000Y-21040000D02*
X7530000Y-23820000D01*
X7570000Y-16183000D02*
X7570000Y-18960000D01*
X7570000Y-21040000D02*
X7570000Y-23817000D01*
X7610000Y-16186000D02*
X7610000Y-18960000D01*
X7610000Y-21040000D02*
X7610000Y-23814000D01*
X7650000Y-16190000D02*
X7650000Y-18960000D01*
X7650000Y-21040000D02*
X7650000Y-23810000D01*
X7690000Y-16195000D02*
X7690000Y-18960000D01*
X7690000Y-21040000D02*
X7690000Y-23805000D01*
X7730000Y-16199000D02*
X7730000Y-18960000D01*
X7730000Y-21040000D02*
X7730000Y-23801000D01*
X7770000Y-16205000D02*
X7770000Y-18960000D01*
X7770000Y-21040000D02*
X7770000Y-23795000D01*
X7810000Y-16210000D02*
X7810000Y-18960000D01*
X7810000Y-21040000D02*
X7810000Y-23790000D01*
X7850000Y-16216000D02*
X7850000Y-18960000D01*
X7850000Y-21040000D02*
X7850000Y-23784000D01*
X7890000Y-16223000D02*
X7890000Y-18960000D01*
X7890000Y-21040000D02*
X7890000Y-23777000D01*
X7930000Y-16230000D02*
X7930000Y-18960000D01*
X7930000Y-21040000D02*
X7930000Y-23770000D01*
X7971000Y-16237000D02*
X7971000Y-18960000D01*
X7971000Y-21040000D02*
X7971000Y-23763000D01*
X8011000Y-16245000D02*
X8011000Y-18960000D01*
X8011000Y-21040000D02*
X8011000Y-23755000D01*
X8051000Y-16253000D02*
X8051000Y-18960000D01*
X8051000Y-21040000D02*
X8051000Y-23747000D01*
X8091000Y-16262000D02*
X8091000Y-18960000D01*
X8091000Y-21040000D02*
X8091000Y-23738000D01*
X8131000Y-16271000D02*
X8131000Y-18960000D01*
X8131000Y-21040000D02*
X8131000Y-23729000D01*
X8171000Y-16280000D02*
X8171000Y-18960000D01*
X8171000Y-21040000D02*
X8171000Y-23720000D01*
X8211000Y-16290000D02*
X8211000Y-18960000D01*
X8211000Y-21040000D02*
X8211000Y-23710000D01*
X8251000Y-16301000D02*
X8251000Y-18960000D01*
X8251000Y-21040000D02*
X8251000Y-23699000D01*
X8291000Y-16312000D02*
X8291000Y-18960000D01*
X8291000Y-21040000D02*
X8291000Y-23688000D01*
X8331000Y-16323000D02*
X8331000Y-18960000D01*
X8331000Y-21040000D02*
X8331000Y-23677000D01*
X8371000Y-16335000D02*
X8371000Y-18960000D01*
X8371000Y-21040000D02*
X8371000Y-23665000D01*
X8411000Y-16347000D02*
X8411000Y-18960000D01*
X8411000Y-21040000D02*
X8411000Y-23653000D01*
X8451000Y-16360000D02*
X8451000Y-18960000D01*
X8451000Y-21040000D02*
X8451000Y-23640000D01*
X8491000Y-16374000D02*
X8491000Y-18960000D01*
X8491000Y-21040000D02*
X8491000Y-23626000D01*
X8531000Y-16387000D02*
X8531000Y-18960000D01*
X8531000Y-21040000D02*
X8531000Y-23613000D01*
X8571000Y-16402000D02*
X8571000Y-18960000D01*
X8571000Y-21040000D02*
X8571000Y-23598000D01*
X8611000Y-16416000D02*
X8611000Y-18960000D01*
X8611000Y-21040000D02*
X8611000Y-23584000D01*
X8651000Y-16432000D02*
X8651000Y-18960000D01*
X8651000Y-21040000D02*
X8651000Y-23568000D01*
X8691000Y-16447000D02*
X8691000Y-18960000D01*
X8691000Y-21040000D02*
X8691000Y-23553000D01*
X8731000Y-16464000D02*
X8731000Y-18960000D01*
X8731000Y-21040000D02*
X8731000Y-23536000D01*
X8771000Y-16480000D02*
X8771000Y-18960000D01*
X8771000Y-21040000D02*
X8771000Y-23520000D01*
X8811000Y-16498000D02*
X8811000Y-18960000D01*
X8811000Y-21040000D02*
X8811000Y-23502000D01*
X8851000Y-16516000D02*
X8851000Y-18960000D01*
X8851000Y-21040000D02*
X8851000Y-23484000D01*
X8891000Y-16534000D02*
X8891000Y-18960000D01*
X8891000Y-21040000D02*
X8891000Y-23466000D01*
X8931000Y-16553000D02*
X8931000Y-18960000D01*
X8931000Y-21040000D02*
X8931000Y-23447000D01*
X8971000Y-16573000D02*
X8971000Y-18960000D01*
X8971000Y-21040000D02*
X8971000Y-23427000D01*
X9011000Y-16593000D02*
X9011000Y-18960000D01*
X9011000Y-21040000D02*
X9011000Y-23407000D01*
X9051000Y-16614000D02*
X9051000Y-18960000D01*
X9051000Y-21040000D02*
X9051000Y-23386000D01*
X9091000Y-16635000D02*
X9091000Y-18960000D01*
X9091000Y-21040000D02*
X9091000Y-23365000D01*
X9131000Y-16657000D02*
X9131000Y-18960000D01*
X9131000Y-21040000D02*
X9131000Y-23343000D01*
X9171000Y-16679000D02*
X9171000Y-18960000D01*
X9171000Y-21040000D02*
X9171000Y-23321000D01*
X9211000Y-16703000D02*
X9211000Y-18960000D01*
X9211000Y-21040000D02*
X9211000Y-23297000D01*
X9251000Y-16726000D02*
X9251000Y-18960000D01*
X9251000Y-21040000D02*
X9251000Y-23274000D01*
X9291000Y-16751000D02*
X9291000Y-18960000D01*
X9291000Y-21040000D02*
X9291000Y-23249000D01*
X9331000Y-16776000D02*
X9331000Y-18960000D01*
X9331000Y-21040000D02*
X9331000Y-23224000D01*
X9371000Y-16802000D02*
X9371000Y-18960000D01*
X9371000Y-21040000D02*
X9371000Y-23198000D01*
X9411000Y-16828000D02*
X9411000Y-18960000D01*
X9411000Y-21040000D02*
X9411000Y-23172000D01*
X9451000Y-16856000D02*
X9451000Y-18960000D01*
X9451000Y-21040000D02*
X9451000Y-23144000D01*
X9491000Y-16884000D02*
X9491000Y-18960000D01*
X9491000Y-21040000D02*
X9491000Y-23116000D01*
X9531000Y-16912000D02*
X9531000Y-18960000D01*
X9531000Y-21040000D02*
X9531000Y-23088000D01*
X9571000Y-16942000D02*
X9571000Y-23058000D01*
X9611000Y-16972000D02*
X9611000Y-23028000D01*
X9651000Y-17004000D02*
X9651000Y-22996000D01*
X9691000Y-17036000D02*
X9691000Y-22964000D01*
X9731000Y-17069000D02*
X9731000Y-22931000D01*
X9771000Y-17102000D02*
X9771000Y-22898000D01*
X9811000Y-17137000D02*
X9811000Y-22863000D01*
X9851000Y-17173000D02*
X9851000Y-22827000D01*
X9891000Y-17210000D02*
X9891000Y-22790000D01*
X9931000Y-17248000D02*
X9931000Y-22752000D01*
X9971000Y-17287000D02*
X9971000Y-22713000D01*
X10011000Y-17327000D02*
X10011000Y-22673000D01*
X10051000Y-17368000D02*
X10051000Y-22632000D01*
X10091000Y-17411000D02*
X10091000Y-22589000D01*
X10131000Y-17454000D02*
X10131000Y-22546000D01*
X10171000Y-17500000D02*
X10171000Y-22500000D01*
X10211000Y-17546000D02*
X10211000Y-22454000D01*
X10251000Y-17595000D02*
X10251000Y-22405000D01*
X10291000Y-17645000D02*
X10291000Y-22355000D01*
X10331000Y-17696000D02*
X10331000Y-22304000D01*
X10371000Y-17750000D02*
X10371000Y-22250000D01*
X10411000Y-17805000D02*
X10411000Y-22195000D01*
X10451000Y-17863000D02*
X10451000Y-22137000D01*
X10491000Y-17923000D02*
X10491000Y-22077000D01*
X10531000Y-17986000D02*
X10531000Y-22014000D01*
X10571000Y-18051000D02*
X10571000Y-21949000D01*
X10611000Y-18119000D02*
X10611000Y-21881000D01*
X10651000Y-18191000D02*
X10651000Y-21809000D01*
X10691000Y-18267000D02*
X10691000Y-21733000D01*
X10731000Y-18346000D02*
X10731000Y-21654000D01*
X10771000Y-18431000D02*
X10771000Y-21569000D01*
X10811000Y-18522000D02*
X10811000Y-21478000D01*
X10851000Y-18619000D02*
X10851000Y-21381000D01*
X10891000Y-18725000D02*
X10891000Y-21275000D01*
X10931000Y-18842000D02*
X10931000Y-21158000D01*
X10971000Y-18972000D02*
X10971000Y-21028000D01*
X11011000Y-19123000D02*
X11011000Y-20877000D01*
X11051000Y-19307000D02*
X11051000Y-20693000D01*
X11091000Y-19559000D02*
X11091000Y-20441000D01*
X11120000Y-20000000D02*
G75*
G03*
X11120000Y-20000000I-3870000J0D01*
G01*
%TO.C,J3*%
X36410000Y-18790000D02*
X33590000Y-18790000D01*
X36410000Y-18790000D02*
X37710000Y-20490000D01*
X33590000Y-18790000D02*
X32290000Y-20490000D01*
X37710000Y-20490000D02*
X37710000Y-29210000D01*
X32290000Y-20490000D02*
X32290000Y-29210000D01*
X37710000Y-29210000D02*
X32290000Y-29210000D01*
%TO.C,J2*%
X64410000Y-18790000D02*
X61590000Y-18790000D01*
X64410000Y-18790000D02*
X65710000Y-20490000D01*
X61590000Y-18790000D02*
X60290000Y-20490000D01*
X65710000Y-20490000D02*
X65710000Y-29210000D01*
X60290000Y-20490000D02*
X60290000Y-29210000D01*
X65710000Y-29210000D02*
X60290000Y-29210000D01*
%TO.C,J4*%
X28410000Y-3790000D02*
X25590000Y-3790000D01*
X28410000Y-3790000D02*
X29710000Y-5490000D01*
X25590000Y-3790000D02*
X24290000Y-5490000D01*
X29710000Y-5490000D02*
X29710000Y-14210000D01*
X24290000Y-5490000D02*
X24290000Y-14210000D01*
X29710000Y-14210000D02*
X24290000Y-14210000D01*
%TO.C,J9*%
X92410000Y-11790000D02*
X89590000Y-11790000D01*
X92410000Y-11790000D02*
X93710000Y-13490000D01*
X89590000Y-11790000D02*
X88290000Y-13490000D01*
X93710000Y-13490000D02*
X93710000Y-22210000D01*
X88290000Y-13490000D02*
X88290000Y-22210000D01*
X93710000Y-22210000D02*
X88290000Y-22210000D01*
%TO.C,U2*%
X39687500Y-17687500D02*
X40487500Y-17687500D01*
X39687500Y-18487500D02*
X39687500Y-17687500D01*
X39987500Y-17987500D02*
X58207500Y-17987500D01*
X58207500Y-17987500D02*
X58207500Y-30207500D01*
X58207500Y-30207500D02*
X39987500Y-30207500D01*
X39987500Y-30207500D02*
X39987500Y-17987500D01*
%TD*%
M02*
