<?xml version="1.0" standalone="no"?>
 <!DOCTYPE svg PUBLIC "-//W3C//DTD SVG 1.1//EN" 
 "http://www.w3.org/Graphics/SVG/1.1/DTD/svg11.dtd"> 
<svg
  xmlns:svg="http://www.w3.org/2000/svg"
  xmlns="http://www.w3.org/2000/svg"
  xmlns:xlink="http://www.w3.org/1999/xlink"
  version="1.1"
  width="297.0022mm" height="210.0072mm" viewBox="0.0000 0.0000 297.0022 210.0072">
<title>SVG Image created as power_distribution_board-PTH-drl_map.svg date 2023/10/26 22:09:37 </title>
  <desc>Image generated by PCBNEW </desc>
<g style="fill:#000000; fill-opacity:1.0000;stroke:#000000; stroke-opacity:1.0000;
stroke-linecap:round; stroke-linejoin:round;"
 transform="translate(0 0) scale(1 1)">
</g>
<g style="fill:#000000; fill-opacity:0.0; 
stroke:#000000; stroke-width:0.0000; stroke-opacity:1; 
stroke-linecap:round; stroke-linejoin:round;">
</g>
<g style="fill:#000000; fill-opacity:0.0; 
stroke:#000000; stroke-width:0.2884; stroke-opacity:1; 
stroke-linecap:round; stroke-linejoin:round;">
<circle cx="272.5104" cy="28.3949" r="5.7679" /> 
<circle cx="272.5104" cy="97.6094" r="5.7679" /> 
<circle cx="24.4918" cy="97.6094" r="5.7679" /> 
<circle cx="24.4918" cy="28.3949" r="5.7679" /> 
</g>
<g style="fill:#000000; fill-opacity:0.0; 
stroke:#000000; stroke-width:0.1442; stroke-opacity:1; 
stroke-linecap:round; stroke-linejoin:round;">
<path style="fill:#000000; fill-opacity:0.0; 
stroke:#000000; stroke-width:0.1442; stroke-opacity:1; 
stroke-linecap:round; stroke-linejoin:round;fill:none"
d="M 10.0721,13.9752
286.9301,13.9752
286.9301,112.0291
10.0721,112.0291
Z" /> 
</g>
<g style="fill:#000000; fill-opacity:0.0; 
stroke:#000000; stroke-width:0.5768; stroke-opacity:1; 
stroke-linecap:round; stroke-linejoin:round;">
</g>
<g style="fill:#000000; fill-opacity:0.0; 
stroke:#000000; stroke-width:0.2198; stroke-opacity:1; 
stroke-linecap:round; stroke-linejoin:round;">
<path d="M47.4667 68.6734
L49.6642 70.8710
" />
<path d="M49.6642 68.6734
L47.4667 70.8710
" />
<path d="M47.4667 96.0708
L49.6642 98.2684
" />
<path d="M49.6642 96.0708
L47.4667 98.2684
" />
<path d="M92.1677 68.6734
L94.3653 70.8710
" />
<path d="M94.3653 68.6734
L92.1677 70.8710
" />
<path d="M92.1677 96.0708
L94.3653 98.2684
" />
<path d="M94.3653 96.0708
L92.1677 98.2684
" />
<path d="M128.2169 25.4144
L130.4145 27.6119
" />
<path d="M130.4145 25.4144
L128.2169 27.6119
" />
<path d="M128.2169 52.8118
L130.4145 55.0093
" />
<path d="M130.4145 52.8118
L128.2169 55.0093
" />
<path d="M128.2169 68.6734
L130.4145 70.8710
" />
<path d="M130.4145 68.6734
L128.2169 70.8710
" />
<path d="M128.2169 96.0708
L130.4145 98.2684
" />
<path d="M130.4145 96.0708
L128.2169 98.2684
" />
<path d="M172.9180 25.4144
L175.1155 27.6119
" />
<path d="M175.1155 25.4144
L172.9180 27.6119
" />
<path d="M172.9180 52.8118
L175.1155 55.0093
" />
<path d="M175.1155 52.8118
L172.9180 55.0093
" />
<path d="M172.9180 68.6734
L175.1155 70.8710
" />
<path d="M175.1155 68.6734
L172.9180 70.8710
" />
<path d="M172.9180 96.0708
L175.1155 98.2684
" />
<path d="M175.1155 96.0708
L172.9180 98.2684
" />
<path d="M208.9672 48.4354
L211.1647 50.6330
" />
<path d="M211.1647 48.4354
L208.9672 50.6330
" />
<path d="M208.9672 75.8328
L211.1647 78.0304
" />
<path d="M211.1647 75.8328
L208.9672 78.0304
" />
<path d="M253.6682 48.4354
L255.8658 50.6330
" />
<path d="M255.8658 48.4354
L253.6682 50.6330
" />
<path d="M253.6682 75.8328
L255.8658 78.0304
" />
<path d="M255.8658 75.8328
L253.6682 78.0304
" />
</g>
<g style="fill:#000000; fill-opacity:0.0; 
stroke:#000000; stroke-width:0.2307; stroke-opacity:1; 
stroke-linecap:round; stroke-linejoin:round;">
<circle cx="27.3757" cy="71.6540" r="1.1536" /> 
<circle cx="34.5856" cy="71.6540" r="1.1536" /> 
</g>
<g style="fill:#000000; fill-opacity:0.0; 
stroke:#000000; stroke-width:0.7210; stroke-opacity:1; 
stroke-linecap:round; stroke-linejoin:round;">
<path d="M44.2468 26.2320
L44.2468 33.4418
" />
<path d="M40.6418 29.8369
L47.8517 29.8369
" />
<path d="M44.2468 46.4195
L44.2468 53.6294
" />
<path d="M40.6418 50.0244
L47.8517 50.0244
" />
</g>
<g style="fill:#000000; fill-opacity:0.0; 
stroke:#000000; stroke-width:0.7787; stroke-opacity:1; 
stroke-linecap:round; stroke-linejoin:round;">
<path style="fill:#000000; fill-opacity:0.0; 
stroke:#000000; stroke-width:0.7787; stroke-opacity:1; 
stroke-linecap:round; stroke-linejoin:round;fill:none"
d="M 67.6199,35.4738
67.6199,29.9678
62.1139,29.9678
62.1139,35.4738
Z" /> 
<path style="fill:#000000; fill-opacity:0.0; 
stroke:#000000; stroke-width:0.7787; stroke-opacity:1; 
stroke-linecap:round; stroke-linejoin:round;fill:none"
d="M 67.6199,49.8935
67.6199,44.3875
62.1139,44.3875
62.1139,49.8935
Z" /> 
<path style="fill:#000000; fill-opacity:0.0; 
stroke:#000000; stroke-width:0.7787; stroke-opacity:1; 
stroke-linecap:round; stroke-linejoin:round;fill:none"
d="M 90.6914,35.4738
90.6914,29.9678
85.1854,29.9678
85.1854,35.4738
Z" /> 
<path style="fill:#000000; fill-opacity:0.0; 
stroke:#000000; stroke-width:0.7787; stroke-opacity:1; 
stroke-linecap:round; stroke-linejoin:round;fill:none"
d="M 90.6914,49.8935
90.6914,44.3875
85.1854,44.3875
85.1854,49.8935
Z" /> 
<path style="fill:#000000; fill-opacity:0.0; 
stroke:#000000; stroke-width:0.7787; stroke-opacity:1; 
stroke-linecap:round; stroke-linejoin:round;fill:none"
d="M 113.7629,35.4738
113.7629,29.9678
108.2569,29.9678
108.2569,35.4738
Z" /> 
<path style="fill:#000000; fill-opacity:0.0; 
stroke:#000000; stroke-width:0.7787; stroke-opacity:1; 
stroke-linecap:round; stroke-linejoin:round;fill:none"
d="M 113.7629,49.8935
113.7629,44.3875
108.2569,44.3875
108.2569,49.8935
Z" /> 
<path style="fill:#000000; fill-opacity:0.0; 
stroke:#000000; stroke-width:0.7787; stroke-opacity:1; 
stroke-linecap:round; stroke-linejoin:round;fill:none"
d="M 113.7629,78.7329
113.7629,73.2269
108.2569,73.2269
108.2569,78.7329
Z" /> 
<path style="fill:#000000; fill-opacity:0.0; 
stroke:#000000; stroke-width:0.7787; stroke-opacity:1; 
stroke-linecap:round; stroke-linejoin:round;fill:none"
d="M 113.7629,93.1526
113.7629,87.6466
108.2569,87.6466
108.2569,93.1526
Z" /> 
<path style="fill:#000000; fill-opacity:0.0; 
stroke:#000000; stroke-width:0.7787; stroke-opacity:1; 
stroke-linecap:round; stroke-linejoin:round;fill:none"
d="M 194.5132,35.4738
194.5132,29.9678
189.0071,29.9678
189.0071,35.4738
Z" /> 
<path style="fill:#000000; fill-opacity:0.0; 
stroke:#000000; stroke-width:0.7787; stroke-opacity:1; 
stroke-linecap:round; stroke-linejoin:round;fill:none"
d="M 194.5132,49.8935
194.5132,44.3875
189.0071,44.3875
189.0071,49.8935
Z" /> 
<path style="fill:#000000; fill-opacity:0.0; 
stroke:#000000; stroke-width:0.7787; stroke-opacity:1; 
stroke-linecap:round; stroke-linejoin:round;fill:none"
d="M 194.5132,78.7329
194.5132,73.2269
189.0071,73.2269
189.0071,78.7329
Z" /> 
<path style="fill:#000000; fill-opacity:0.0; 
stroke:#000000; stroke-width:0.7787; stroke-opacity:1; 
stroke-linecap:round; stroke-linejoin:round;fill:none"
d="M 194.5132,93.1526
194.5132,87.6466
189.0071,87.6466
189.0071,93.1526
Z" /> 
<path style="fill:#000000; fill-opacity:0.0; 
stroke:#000000; stroke-width:0.7787; stroke-opacity:1; 
stroke-linecap:round; stroke-linejoin:round;fill:none"
d="M 275.2634,58.5453
275.2634,53.0393
269.7574,53.0393
269.7574,58.5453
Z" /> 
<path style="fill:#000000; fill-opacity:0.0; 
stroke:#000000; stroke-width:0.7787; stroke-opacity:1; 
stroke-linecap:round; stroke-linejoin:round;fill:none"
d="M 275.2634,72.9650
275.2634,67.4590
269.7574,67.4590
269.7574,72.9650
Z" /> 
</g>
<g style="fill:#000000; fill-opacity:0.0; 
stroke:#000000; stroke-width:0.5768; stroke-opacity:1; 
stroke-linecap:round; stroke-linejoin:round;">
</g>
<g style="fill:#000000; fill-opacity:0.0; 
stroke:#000000; stroke-width:0.2000; stroke-opacity:1; 
stroke-linecap:round; stroke-linejoin:round;">
<text x="12.0000" y="115.3012"
textLength="14.8667" font-size="2.6667" lengthAdjust="spacingAndGlyphs"
text-anchor="start" opacity="0">Drill Map:</text>
<g class="stroked-text"><desc>Drill Map:</desc>
<path d="M12.6078 115.2160
L12.6078 113.2160
" />
<path d="M12.6078 113.2160
L13.0840 113.2160
" />
<path d="M13.0840 113.2160
L13.3697 113.3113
" />
<path d="M13.3697 113.3113
L13.5601 113.5017
" />
<path d="M13.5601 113.5017
L13.6554 113.6922
" />
<path d="M13.6554 113.6922
L13.7506 114.0732
" />
<path d="M13.7506 114.0732
L13.7506 114.3589
" />
<path d="M13.7506 114.3589
L13.6554 114.7398
" />
<path d="M13.6554 114.7398
L13.5601 114.9303
" />
<path d="M13.5601 114.9303
L13.3697 115.1208
" />
<path d="M13.3697 115.1208
L13.0840 115.2160
" />
<path d="M13.0840 115.2160
L12.6078 115.2160
" />
<path d="M14.6078 115.2160
L14.6078 113.8827
" />
<path d="M14.6078 114.2636
L14.7030 114.0732
" />
<path d="M14.7030 114.0732
L14.7982 113.9779
" />
<path d="M14.7982 113.9779
L14.9887 113.8827
" />
<path d="M14.9887 113.8827
L15.1792 113.8827
" />
<path d="M15.8459 115.2160
L15.8459 113.8827
" />
<path d="M15.8459 113.2160
L15.7506 113.3113
" />
<path d="M15.7506 113.3113
L15.8459 113.4065
" />
<path d="M15.8459 113.4065
L15.9411 113.3113
" />
<path d="M15.9411 113.3113
L15.8459 113.2160
" />
<path d="M15.8459 113.2160
L15.8459 113.4065
" />
<path d="M17.0840 115.2160
L16.8935 115.1208
" />
<path d="M16.8935 115.1208
L16.7982 114.9303
" />
<path d="M16.7982 114.9303
L16.7982 113.2160
" />
<path d="M18.1316 115.2160
L17.9411 115.1208
" />
<path d="M17.9411 115.1208
L17.8459 114.9303
" />
<path d="M17.8459 114.9303
L17.8459 113.2160
" />
<path d="M20.4173 115.2160
L20.4173 113.2160
" />
<path d="M20.4173 113.2160
L21.0840 114.6446
" />
<path d="M21.0840 114.6446
L21.7506 113.2160
" />
<path d="M21.7506 113.2160
L21.7506 115.2160
" />
<path d="M23.5601 115.2160
L23.5601 114.1684
" />
<path d="M23.5601 114.1684
L23.4649 113.9779
" />
<path d="M23.4649 113.9779
L23.2744 113.8827
" />
<path d="M23.2744 113.8827
L22.8935 113.8827
" />
<path d="M22.8935 113.8827
L22.7030 113.9779
" />
<path d="M23.5601 115.1208
L23.3697 115.2160
" />
<path d="M23.3697 115.2160
L22.8935 115.2160
" />
<path d="M22.8935 115.2160
L22.7030 115.1208
" />
<path d="M22.7030 115.1208
L22.6078 114.9303
" />
<path d="M22.6078 114.9303
L22.6078 114.7398
" />
<path d="M22.6078 114.7398
L22.7030 114.5494
" />
<path d="M22.7030 114.5494
L22.8935 114.4541
" />
<path d="M22.8935 114.4541
L23.3697 114.4541
" />
<path d="M23.3697 114.4541
L23.5601 114.3589
" />
<path d="M24.5125 113.8827
L24.5125 115.8827
" />
<path d="M24.5125 113.9779
L24.7030 113.8827
" />
<path d="M24.7030 113.8827
L25.0840 113.8827
" />
<path d="M25.0840 113.8827
L25.2744 113.9779
" />
<path d="M25.2744 113.9779
L25.3697 114.0732
" />
<path d="M25.3697 114.0732
L25.4649 114.2636
" />
<path d="M25.4649 114.2636
L25.4649 114.8351
" />
<path d="M25.4649 114.8351
L25.3697 115.0256
" />
<path d="M25.3697 115.0256
L25.2744 115.1208
" />
<path d="M25.2744 115.1208
L25.0840 115.2160
" />
<path d="M25.0840 115.2160
L24.7030 115.2160
" />
<path d="M24.7030 115.2160
L24.5125 115.1208
" />
<path d="M26.3220 115.0256
L26.4173 115.1208
" />
<path d="M26.4173 115.1208
L26.3220 115.2160
" />
<path d="M26.3220 115.2160
L26.2268 115.1208
" />
<path d="M26.2268 115.1208
L26.3220 115.0256
" />
<path d="M26.3220 115.0256
L26.3220 115.2160
" />
<path d="M26.3220 113.9779
L26.4173 114.0732
" />
<path d="M26.4173 114.0732
L26.3220 114.1684
" />
<path d="M26.3220 114.1684
L26.2268 114.0732
" />
<path d="M26.2268 114.0732
L26.3220 113.9779
" />
<path d="M26.3220 113.9779
L26.3220 114.1684
" />
</g></g>
<g style="fill:#000000; fill-opacity:0.0; 
stroke:#000000; stroke-width:0.2000; stroke-opacity:1; 
stroke-linecap:round; stroke-linejoin:round;">
<path d="M8.0000 117.5012
L10.0000 119.5012
" />
<path d="M10.0000 117.5012
L8.0000 119.5012
" />
</g>
<g style="fill:#000000; fill-opacity:0.0; 
stroke:#000000; stroke-width:0.5768; stroke-opacity:1; 
stroke-linecap:round; stroke-linejoin:round;">
</g>
<g style="fill:#000000; fill-opacity:0.0; 
stroke:#000000; stroke-width:0.2000; stroke-opacity:1; 
stroke-linecap:round; stroke-linejoin:round;">
<text x="12.0000" y="119.5012"
textLength="48.7714" font-size="2.6667" lengthAdjust="spacingAndGlyphs"
text-anchor="start" opacity="0">0.762mm / 0.0300" (16 holes)</text>
<g class="stroked-text"><desc>0.762mm / 0.0300" (16 holes)</desc>
<path d="M12.9887 117.4160
L13.1792 117.4160
" />
<path d="M13.1792 117.4160
L13.3697 117.5113
" />
<path d="M13.3697 117.5113
L13.4649 117.6065
" />
<path d="M13.4649 117.6065
L13.5601 117.7970
" />
<path d="M13.5601 117.7970
L13.6554 118.1779
" />
<path d="M13.6554 118.1779
L13.6554 118.6541
" />
<path d="M13.6554 118.6541
L13.5601 119.0351
" />
<path d="M13.5601 119.0351
L13.4649 119.2256
" />
<path d="M13.4649 119.2256
L13.3697 119.3208
" />
<path d="M13.3697 119.3208
L13.1792 119.4160
" />
<path d="M13.1792 119.4160
L12.9887 119.4160
" />
<path d="M12.9887 119.4160
L12.7982 119.3208
" />
<path d="M12.7982 119.3208
L12.7030 119.2256
" />
<path d="M12.7030 119.2256
L12.6078 119.0351
" />
<path d="M12.6078 119.0351
L12.5125 118.6541
" />
<path d="M12.5125 118.6541
L12.5125 118.1779
" />
<path d="M12.5125 118.1779
L12.6078 117.7970
" />
<path d="M12.6078 117.7970
L12.7030 117.6065
" />
<path d="M12.7030 117.6065
L12.7982 117.5113
" />
<path d="M12.7982 117.5113
L12.9887 117.4160
" />
<path d="M14.5125 119.2256
L14.6078 119.3208
" />
<path d="M14.6078 119.3208
L14.5125 119.4160
" />
<path d="M14.5125 119.4160
L14.4173 119.3208
" />
<path d="M14.4173 119.3208
L14.5125 119.2256
" />
<path d="M14.5125 119.2256
L14.5125 119.4160
" />
<path d="M15.2744 117.4160
L16.6078 117.4160
" />
<path d="M16.6078 117.4160
L15.7506 119.4160
" />
<path d="M18.2268 117.4160
L17.8459 117.4160
" />
<path d="M17.8459 117.4160
L17.6554 117.5113
" />
<path d="M17.6554 117.5113
L17.5601 117.6065
" />
<path d="M17.5601 117.6065
L17.3697 117.8922
" />
<path d="M17.3697 117.8922
L17.2744 118.2732
" />
<path d="M17.2744 118.2732
L17.2744 119.0351
" />
<path d="M17.2744 119.0351
L17.3697 119.2256
" />
<path d="M17.3697 119.2256
L17.4649 119.3208
" />
<path d="M17.4649 119.3208
L17.6554 119.4160
" />
<path d="M17.6554 119.4160
L18.0363 119.4160
" />
<path d="M18.0363 119.4160
L18.2268 119.3208
" />
<path d="M18.2268 119.3208
L18.3220 119.2256
" />
<path d="M18.3220 119.2256
L18.4173 119.0351
" />
<path d="M18.4173 119.0351
L18.4173 118.5589
" />
<path d="M18.4173 118.5589
L18.3220 118.3684
" />
<path d="M18.3220 118.3684
L18.2268 118.2732
" />
<path d="M18.2268 118.2732
L18.0363 118.1779
" />
<path d="M18.0363 118.1779
L17.6554 118.1779
" />
<path d="M17.6554 118.1779
L17.4649 118.2732
" />
<path d="M17.4649 118.2732
L17.3697 118.3684
" />
<path d="M17.3697 118.3684
L17.2744 118.5589
" />
<path d="M19.1792 117.6065
L19.2744 117.5113
" />
<path d="M19.2744 117.5113
L19.4649 117.4160
" />
<path d="M19.4649 117.4160
L19.9411 117.4160
" />
<path d="M19.9411 117.4160
L20.1316 117.5113
" />
<path d="M20.1316 117.5113
L20.2268 117.6065
" />
<path d="M20.2268 117.6065
L20.3220 117.7970
" />
<path d="M20.3220 117.7970
L20.3220 117.9875
" />
<path d="M20.3220 117.9875
L20.2268 118.2732
" />
<path d="M20.2268 118.2732
L19.0839 119.4160
" />
<path d="M19.0839 119.4160
L20.3220 119.4160
" />
<path d="M21.1792 119.4160
L21.1792 118.0827
" />
<path d="M21.1792 118.2732
L21.2744 118.1779
" />
<path d="M21.2744 118.1779
L21.4649 118.0827
" />
<path d="M21.4649 118.0827
L21.7506 118.0827
" />
<path d="M21.7506 118.0827
L21.9411 118.1779
" />
<path d="M21.9411 118.1779
L22.0363 118.3684
" />
<path d="M22.0363 118.3684
L22.0363 119.4160
" />
<path d="M22.0363 118.3684
L22.1316 118.1779
" />
<path d="M22.1316 118.1779
L22.3220 118.0827
" />
<path d="M22.3220 118.0827
L22.6078 118.0827
" />
<path d="M22.6078 118.0827
L22.7982 118.1779
" />
<path d="M22.7982 118.1779
L22.8935 118.3684
" />
<path d="M22.8935 118.3684
L22.8935 119.4160
" />
<path d="M23.8459 119.4160
L23.8459 118.0827
" />
<path d="M23.8459 118.2732
L23.9411 118.1779
" />
<path d="M23.9411 118.1779
L24.1316 118.0827
" />
<path d="M24.1316 118.0827
L24.4173 118.0827
" />
<path d="M24.4173 118.0827
L24.6078 118.1779
" />
<path d="M24.6078 118.1779
L24.7030 118.3684
" />
<path d="M24.7030 118.3684
L24.7030 119.4160
" />
<path d="M24.7030 118.3684
L24.7982 118.1779
" />
<path d="M24.7982 118.1779
L24.9887 118.0827
" />
<path d="M24.9887 118.0827
L25.2744 118.0827
" />
<path d="M25.2744 118.0827
L25.4649 118.1779
" />
<path d="M25.4649 118.1779
L25.5601 118.3684
" />
<path d="M25.5601 118.3684
L25.5601 119.4160
" />
<path d="M29.4649 117.3208
L27.7506 119.8922
" />
<path d="M32.0363 117.4160
L32.2268 117.4160
" />
<path d="M32.2268 117.4160
L32.4173 117.5113
" />
<path d="M32.4173 117.5113
L32.5125 117.6065
" />
<path d="M32.5125 117.6065
L32.6078 117.7970
" />
<path d="M32.6078 117.7970
L32.7030 118.1779
" />
<path d="M32.7030 118.1779
L32.7030 118.6541
" />
<path d="M32.7030 118.6541
L32.6078 119.0351
" />
<path d="M32.6078 119.0351
L32.5125 119.2256
" />
<path d="M32.5125 119.2256
L32.4173 119.3208
" />
<path d="M32.4173 119.3208
L32.2268 119.4160
" />
<path d="M32.2268 119.4160
L32.0363 119.4160
" />
<path d="M32.0363 119.4160
L31.8458 119.3208
" />
<path d="M31.8458 119.3208
L31.7506 119.2256
" />
<path d="M31.7506 119.2256
L31.6554 119.0351
" />
<path d="M31.6554 119.0351
L31.5601 118.6541
" />
<path d="M31.5601 118.6541
L31.5601 118.1779
" />
<path d="M31.5601 118.1779
L31.6554 117.7970
" />
<path d="M31.6554 117.7970
L31.7506 117.6065
" />
<path d="M31.7506 117.6065
L31.8458 117.5113
" />
<path d="M31.8458 117.5113
L32.0363 117.4160
" />
<path d="M33.5601 119.2256
L33.6554 119.3208
" />
<path d="M33.6554 119.3208
L33.5601 119.4160
" />
<path d="M33.5601 119.4160
L33.4649 119.3208
" />
<path d="M33.4649 119.3208
L33.5601 119.2256
" />
<path d="M33.5601 119.2256
L33.5601 119.4160
" />
<path d="M34.8935 117.4160
L35.0839 117.4160
" />
<path d="M35.0839 117.4160
L35.2744 117.5113
" />
<path d="M35.2744 117.5113
L35.3697 117.6065
" />
<path d="M35.3697 117.6065
L35.4649 117.7970
" />
<path d="M35.4649 117.7970
L35.5601 118.1779
" />
<path d="M35.5601 118.1779
L35.5601 118.6541
" />
<path d="M35.5601 118.6541
L35.4649 119.0351
" />
<path d="M35.4649 119.0351
L35.3697 119.2256
" />
<path d="M35.3697 119.2256
L35.2744 119.3208
" />
<path d="M35.2744 119.3208
L35.0839 119.4160
" />
<path d="M35.0839 119.4160
L34.8935 119.4160
" />
<path d="M34.8935 119.4160
L34.7030 119.3208
" />
<path d="M34.7030 119.3208
L34.6077 119.2256
" />
<path d="M34.6077 119.2256
L34.5125 119.0351
" />
<path d="M34.5125 119.0351
L34.4173 118.6541
" />
<path d="M34.4173 118.6541
L34.4173 118.1779
" />
<path d="M34.4173 118.1779
L34.5125 117.7970
" />
<path d="M34.5125 117.7970
L34.6077 117.6065
" />
<path d="M34.6077 117.6065
L34.7030 117.5113
" />
<path d="M34.7030 117.5113
L34.8935 117.4160
" />
<path d="M36.2268 117.4160
L37.4649 117.4160
" />
<path d="M37.4649 117.4160
L36.7982 118.1779
" />
<path d="M36.7982 118.1779
L37.0839 118.1779
" />
<path d="M37.0839 118.1779
L37.2744 118.2732
" />
<path d="M37.2744 118.2732
L37.3697 118.3684
" />
<path d="M37.3697 118.3684
L37.4649 118.5589
" />
<path d="M37.4649 118.5589
L37.4649 119.0351
" />
<path d="M37.4649 119.0351
L37.3697 119.2256
" />
<path d="M37.3697 119.2256
L37.2744 119.3208
" />
<path d="M37.2744 119.3208
L37.0839 119.4160
" />
<path d="M37.0839 119.4160
L36.5125 119.4160
" />
<path d="M36.5125 119.4160
L36.3220 119.3208
" />
<path d="M36.3220 119.3208
L36.2268 119.2256
" />
<path d="M38.7030 117.4160
L38.8935 117.4160
" />
<path d="M38.8935 117.4160
L39.0839 117.5113
" />
<path d="M39.0839 117.5113
L39.1792 117.6065
" />
<path d="M39.1792 117.6065
L39.2744 117.7970
" />
<path d="M39.2744 117.7970
L39.3696 118.1779
" />
<path d="M39.3696 118.1779
L39.3696 118.6541
" />
<path d="M39.3696 118.6541
L39.2744 119.0351
" />
<path d="M39.2744 119.0351
L39.1792 119.2256
" />
<path d="M39.1792 119.2256
L39.0839 119.3208
" />
<path d="M39.0839 119.3208
L38.8935 119.4160
" />
<path d="M38.8935 119.4160
L38.7030 119.4160
" />
<path d="M38.7030 119.4160
L38.5125 119.3208
" />
<path d="M38.5125 119.3208
L38.4173 119.2256
" />
<path d="M38.4173 119.2256
L38.3220 119.0351
" />
<path d="M38.3220 119.0351
L38.2268 118.6541
" />
<path d="M38.2268 118.6541
L38.2268 118.1779
" />
<path d="M38.2268 118.1779
L38.3220 117.7970
" />
<path d="M38.3220 117.7970
L38.4173 117.6065
" />
<path d="M38.4173 117.6065
L38.5125 117.5113
" />
<path d="M38.5125 117.5113
L38.7030 117.4160
" />
<path d="M40.6077 117.4160
L40.7982 117.4160
" />
<path d="M40.7982 117.4160
L40.9887 117.5113
" />
<path d="M40.9887 117.5113
L41.0839 117.6065
" />
<path d="M41.0839 117.6065
L41.1792 117.7970
" />
<path d="M41.1792 117.7970
L41.2744 118.1779
" />
<path d="M41.2744 118.1779
L41.2744 118.6541
" />
<path d="M41.2744 118.6541
L41.1792 119.0351
" />
<path d="M41.1792 119.0351
L41.0839 119.2256
" />
<path d="M41.0839 119.2256
L40.9887 119.3208
" />
<path d="M40.9887 119.3208
L40.7982 119.4160
" />
<path d="M40.7982 119.4160
L40.6077 119.4160
" />
<path d="M40.6077 119.4160
L40.4173 119.3208
" />
<path d="M40.4173 119.3208
L40.3220 119.2256
" />
<path d="M40.3220 119.2256
L40.2268 119.0351
" />
<path d="M40.2268 119.0351
L40.1316 118.6541
" />
<path d="M40.1316 118.6541
L40.1316 118.1779
" />
<path d="M40.1316 118.1779
L40.2268 117.7970
" />
<path d="M40.2268 117.7970
L40.3220 117.6065
" />
<path d="M40.3220 117.6065
L40.4173 117.5113
" />
<path d="M40.4173 117.5113
L40.6077 117.4160
" />
<path d="M42.0363 117.4160
L42.0363 117.7970
" />
<path d="M42.7982 117.4160
L42.7982 117.7970
" />
<path d="M45.7506 120.1779
L45.6554 120.0827
" />
<path d="M45.6554 120.0827
L45.4649 119.7970
" />
<path d="M45.4649 119.7970
L45.3696 119.6065
" />
<path d="M45.3696 119.6065
L45.2744 119.3208
" />
<path d="M45.2744 119.3208
L45.1792 118.8446
" />
<path d="M45.1792 118.8446
L45.1792 118.4636
" />
<path d="M45.1792 118.4636
L45.2744 117.9875
" />
<path d="M45.2744 117.9875
L45.3696 117.7017
" />
<path d="M45.3696 117.7017
L45.4649 117.5113
" />
<path d="M45.4649 117.5113
L45.6554 117.2256
" />
<path d="M45.6554 117.2256
L45.7506 117.1303
" />
<path d="M47.5601 119.4160
L46.4173 119.4160
" />
<path d="M46.9887 119.4160
L46.9887 117.4160
" />
<path d="M46.9887 117.4160
L46.7982 117.7017
" />
<path d="M46.7982 117.7017
L46.6077 117.8922
" />
<path d="M46.6077 117.8922
L46.4173 117.9875
" />
<path d="M49.2744 117.4160
L48.8935 117.4160
" />
<path d="M48.8935 117.4160
L48.7030 117.5113
" />
<path d="M48.7030 117.5113
L48.6077 117.6065
" />
<path d="M48.6077 117.6065
L48.4173 117.8922
" />
<path d="M48.4173 117.8922
L48.3220 118.2732
" />
<path d="M48.3220 118.2732
L48.3220 119.0351
" />
<path d="M48.3220 119.0351
L48.4173 119.2256
" />
<path d="M48.4173 119.2256
L48.5125 119.3208
" />
<path d="M48.5125 119.3208
L48.7030 119.4160
" />
<path d="M48.7030 119.4160
L49.0839 119.4160
" />
<path d="M49.0839 119.4160
L49.2744 119.3208
" />
<path d="M49.2744 119.3208
L49.3696 119.2256
" />
<path d="M49.3696 119.2256
L49.4649 119.0351
" />
<path d="M49.4649 119.0351
L49.4649 118.5589
" />
<path d="M49.4649 118.5589
L49.3696 118.3684
" />
<path d="M49.3696 118.3684
L49.2744 118.2732
" />
<path d="M49.2744 118.2732
L49.0839 118.1779
" />
<path d="M49.0839 118.1779
L48.7030 118.1779
" />
<path d="M48.7030 118.1779
L48.5125 118.2732
" />
<path d="M48.5125 118.2732
L48.4173 118.3684
" />
<path d="M48.4173 118.3684
L48.3220 118.5589
" />
<path d="M51.8458 119.4160
L51.8458 117.4160
" />
<path d="M52.7030 119.4160
L52.7030 118.3684
" />
<path d="M52.7030 118.3684
L52.6077 118.1779
" />
<path d="M52.6077 118.1779
L52.4173 118.0827
" />
<path d="M52.4173 118.0827
L52.1315 118.0827
" />
<path d="M52.1315 118.0827
L51.9411 118.1779
" />
<path d="M51.9411 118.1779
L51.8458 118.2732
" />
<path d="M53.9411 119.4160
L53.7506 119.3208
" />
<path d="M53.7506 119.3208
L53.6554 119.2256
" />
<path d="M53.6554 119.2256
L53.5601 119.0351
" />
<path d="M53.5601 119.0351
L53.5601 118.4636
" />
<path d="M53.5601 118.4636
L53.6554 118.2732
" />
<path d="M53.6554 118.2732
L53.7506 118.1779
" />
<path d="M53.7506 118.1779
L53.9411 118.0827
" />
<path d="M53.9411 118.0827
L54.2268 118.0827
" />
<path d="M54.2268 118.0827
L54.4173 118.1779
" />
<path d="M54.4173 118.1779
L54.5125 118.2732
" />
<path d="M54.5125 118.2732
L54.6077 118.4636
" />
<path d="M54.6077 118.4636
L54.6077 119.0351
" />
<path d="M54.6077 119.0351
L54.5125 119.2256
" />
<path d="M54.5125 119.2256
L54.4173 119.3208
" />
<path d="M54.4173 119.3208
L54.2268 119.4160
" />
<path d="M54.2268 119.4160
L53.9411 119.4160
" />
<path d="M55.7506 119.4160
L55.5601 119.3208
" />
<path d="M55.5601 119.3208
L55.4649 119.1303
" />
<path d="M55.4649 119.1303
L55.4649 117.4160
" />
<path d="M57.2744 119.3208
L57.0839 119.4160
" />
<path d="M57.0839 119.4160
L56.7030 119.4160
" />
<path d="M56.7030 119.4160
L56.5125 119.3208
" />
<path d="M56.5125 119.3208
L56.4173 119.1303
" />
<path d="M56.4173 119.1303
L56.4173 118.3684
" />
<path d="M56.4173 118.3684
L56.5125 118.1779
" />
<path d="M56.5125 118.1779
L56.7030 118.0827
" />
<path d="M56.7030 118.0827
L57.0839 118.0827
" />
<path d="M57.0839 118.0827
L57.2744 118.1779
" />
<path d="M57.2744 118.1779
L57.3696 118.3684
" />
<path d="M57.3696 118.3684
L57.3696 118.5589
" />
<path d="M57.3696 118.5589
L56.4173 118.7494
" />
<path d="M58.1315 119.3208
L58.3220 119.4160
" />
<path d="M58.3220 119.4160
L58.7030 119.4160
" />
<path d="M58.7030 119.4160
L58.8935 119.3208
" />
<path d="M58.8935 119.3208
L58.9887 119.1303
" />
<path d="M58.9887 119.1303
L58.9887 119.0351
" />
<path d="M58.9887 119.0351
L58.8935 118.8446
" />
<path d="M58.8935 118.8446
L58.7030 118.7494
" />
<path d="M58.7030 118.7494
L58.4173 118.7494
" />
<path d="M58.4173 118.7494
L58.2268 118.6541
" />
<path d="M58.2268 118.6541
L58.1315 118.4636
" />
<path d="M58.1315 118.4636
L58.1315 118.3684
" />
<path d="M58.1315 118.3684
L58.2268 118.1779
" />
<path d="M58.2268 118.1779
L58.4173 118.0827
" />
<path d="M58.4173 118.0827
L58.7030 118.0827
" />
<path d="M58.7030 118.0827
L58.8935 118.1779
" />
<path d="M59.6554 120.1779
L59.7506 120.0827
" />
<path d="M59.7506 120.0827
L59.9411 119.7970
" />
<path d="M59.9411 119.7970
L60.0363 119.6065
" />
<path d="M60.0363 119.6065
L60.1315 119.3208
" />
<path d="M60.1315 119.3208
L60.2268 118.8446
" />
<path d="M60.2268 118.8446
L60.2268 118.4636
" />
<path d="M60.2268 118.4636
L60.1315 117.9875
" />
<path d="M60.1315 117.9875
L60.0363 117.7017
" />
<path d="M60.0363 117.7017
L59.9411 117.5113
" />
<path d="M59.9411 117.5113
L59.7506 117.2256
" />
<path d="M59.7506 117.2256
L59.6554 117.1303
" />
</g></g>
<g style="fill:#000000; fill-opacity:0.0; 
stroke:#000000; stroke-width:0.2000; stroke-opacity:1; 
stroke-linecap:round; stroke-linejoin:round;">
<circle cx="9.0000" cy="121.7012" r="1.0000" /> 
</g>
<g style="fill:#000000; fill-opacity:0.0; 
stroke:#000000; stroke-width:0.5768; stroke-opacity:1; 
stroke-linecap:round; stroke-linejoin:round;">
</g>
<g style="fill:#000000; fill-opacity:0.0; 
stroke:#000000; stroke-width:0.2000; stroke-opacity:1; 
stroke-linecap:round; stroke-linejoin:round;">
<text x="12.0000" y="122.7012"
textLength="46.8666" font-size="2.6667" lengthAdjust="spacingAndGlyphs"
text-anchor="start" opacity="0">0.800mm / 0.0315" (2 holes)</text>
<g class="stroked-text"><desc>0.800mm / 0.0315" (2 holes)</desc>
<path d="M12.9887 120.6160
L13.1792 120.6160
" />
<path d="M13.1792 120.6160
L13.3697 120.7113
" />
<path d="M13.3697 120.7113
L13.4649 120.8065
" />
<path d="M13.4649 120.8065
L13.5601 120.9970
" />
<path d="M13.5601 120.9970
L13.6554 121.3779
" />
<path d="M13.6554 121.3779
L13.6554 121.8541
" />
<path d="M13.6554 121.8541
L13.5601 122.2351
" />
<path d="M13.5601 122.2351
L13.4649 122.4256
" />
<path d="M13.4649 122.4256
L13.3697 122.5208
" />
<path d="M13.3697 122.5208
L13.1792 122.6160
" />
<path d="M13.1792 122.6160
L12.9887 122.6160
" />
<path d="M12.9887 122.6160
L12.7982 122.5208
" />
<path d="M12.7982 122.5208
L12.7030 122.4256
" />
<path d="M12.7030 122.4256
L12.6078 122.2351
" />
<path d="M12.6078 122.2351
L12.5125 121.8541
" />
<path d="M12.5125 121.8541
L12.5125 121.3779
" />
<path d="M12.5125 121.3779
L12.6078 120.9970
" />
<path d="M12.6078 120.9970
L12.7030 120.8065
" />
<path d="M12.7030 120.8065
L12.7982 120.7113
" />
<path d="M12.7982 120.7113
L12.9887 120.6160
" />
<path d="M14.5125 122.4256
L14.6078 122.5208
" />
<path d="M14.6078 122.5208
L14.5125 122.6160
" />
<path d="M14.5125 122.6160
L14.4173 122.5208
" />
<path d="M14.4173 122.5208
L14.5125 122.4256
" />
<path d="M14.5125 122.4256
L14.5125 122.6160
" />
<path d="M15.7506 121.4732
L15.5601 121.3779
" />
<path d="M15.5601 121.3779
L15.4649 121.2827
" />
<path d="M15.4649 121.2827
L15.3697 121.0922
" />
<path d="M15.3697 121.0922
L15.3697 120.9970
" />
<path d="M15.3697 120.9970
L15.4649 120.8065
" />
<path d="M15.4649 120.8065
L15.5601 120.7113
" />
<path d="M15.5601 120.7113
L15.7506 120.6160
" />
<path d="M15.7506 120.6160
L16.1316 120.6160
" />
<path d="M16.1316 120.6160
L16.3220 120.7113
" />
<path d="M16.3220 120.7113
L16.4173 120.8065
" />
<path d="M16.4173 120.8065
L16.5125 120.9970
" />
<path d="M16.5125 120.9970
L16.5125 121.0922
" />
<path d="M16.5125 121.0922
L16.4173 121.2827
" />
<path d="M16.4173 121.2827
L16.3220 121.3779
" />
<path d="M16.3220 121.3779
L16.1316 121.4732
" />
<path d="M16.1316 121.4732
L15.7506 121.4732
" />
<path d="M15.7506 121.4732
L15.5601 121.5684
" />
<path d="M15.5601 121.5684
L15.4649 121.6636
" />
<path d="M15.4649 121.6636
L15.3697 121.8541
" />
<path d="M15.3697 121.8541
L15.3697 122.2351
" />
<path d="M15.3697 122.2351
L15.4649 122.4256
" />
<path d="M15.4649 122.4256
L15.5601 122.5208
" />
<path d="M15.5601 122.5208
L15.7506 122.6160
" />
<path d="M15.7506 122.6160
L16.1316 122.6160
" />
<path d="M16.1316 122.6160
L16.3220 122.5208
" />
<path d="M16.3220 122.5208
L16.4173 122.4256
" />
<path d="M16.4173 122.4256
L16.5125 122.2351
" />
<path d="M16.5125 122.2351
L16.5125 121.8541
" />
<path d="M16.5125 121.8541
L16.4173 121.6636
" />
<path d="M16.4173 121.6636
L16.3220 121.5684
" />
<path d="M16.3220 121.5684
L16.1316 121.4732
" />
<path d="M17.7506 120.6160
L17.9411 120.6160
" />
<path d="M17.9411 120.6160
L18.1316 120.7113
" />
<path d="M18.1316 120.7113
L18.2268 120.8065
" />
<path d="M18.2268 120.8065
L18.3220 120.9970
" />
<path d="M18.3220 120.9970
L18.4173 121.3779
" />
<path d="M18.4173 121.3779
L18.4173 121.8541
" />
<path d="M18.4173 121.8541
L18.3220 122.2351
" />
<path d="M18.3220 122.2351
L18.2268 122.4256
" />
<path d="M18.2268 122.4256
L18.1316 122.5208
" />
<path d="M18.1316 122.5208
L17.9411 122.6160
" />
<path d="M17.9411 122.6160
L17.7506 122.6160
" />
<path d="M17.7506 122.6160
L17.5601 122.5208
" />
<path d="M17.5601 122.5208
L17.4649 122.4256
" />
<path d="M17.4649 122.4256
L17.3697 122.2351
" />
<path d="M17.3697 122.2351
L17.2744 121.8541
" />
<path d="M17.2744 121.8541
L17.2744 121.3779
" />
<path d="M17.2744 121.3779
L17.3697 120.9970
" />
<path d="M17.3697 120.9970
L17.4649 120.8065
" />
<path d="M17.4649 120.8065
L17.5601 120.7113
" />
<path d="M17.5601 120.7113
L17.7506 120.6160
" />
<path d="M19.6554 120.6160
L19.8459 120.6160
" />
<path d="M19.8459 120.6160
L20.0363 120.7113
" />
<path d="M20.0363 120.7113
L20.1316 120.8065
" />
<path d="M20.1316 120.8065
L20.2268 120.9970
" />
<path d="M20.2268 120.9970
L20.3220 121.3779
" />
<path d="M20.3220 121.3779
L20.3220 121.8541
" />
<path d="M20.3220 121.8541
L20.2268 122.2351
" />
<path d="M20.2268 122.2351
L20.1316 122.4256
" />
<path d="M20.1316 122.4256
L20.0363 122.5208
" />
<path d="M20.0363 122.5208
L19.8459 122.6160
" />
<path d="M19.8459 122.6160
L19.6554 122.6160
" />
<path d="M19.6554 122.6160
L19.4649 122.5208
" />
<path d="M19.4649 122.5208
L19.3697 122.4256
" />
<path d="M19.3697 122.4256
L19.2744 122.2351
" />
<path d="M19.2744 122.2351
L19.1792 121.8541
" />
<path d="M19.1792 121.8541
L19.1792 121.3779
" />
<path d="M19.1792 121.3779
L19.2744 120.9970
" />
<path d="M19.2744 120.9970
L19.3697 120.8065
" />
<path d="M19.3697 120.8065
L19.4649 120.7113
" />
<path d="M19.4649 120.7113
L19.6554 120.6160
" />
<path d="M21.1792 122.6160
L21.1792 121.2827
" />
<path d="M21.1792 121.4732
L21.2744 121.3779
" />
<path d="M21.2744 121.3779
L21.4649 121.2827
" />
<path d="M21.4649 121.2827
L21.7506 121.2827
" />
<path d="M21.7506 121.2827
L21.9411 121.3779
" />
<path d="M21.9411 121.3779
L22.0363 121.5684
" />
<path d="M22.0363 121.5684
L22.0363 122.6160
" />
<path d="M22.0363 121.5684
L22.1316 121.3779
" />
<path d="M22.1316 121.3779
L22.3220 121.2827
" />
<path d="M22.3220 121.2827
L22.6078 121.2827
" />
<path d="M22.6078 121.2827
L22.7982 121.3779
" />
<path d="M22.7982 121.3779
L22.8935 121.5684
" />
<path d="M22.8935 121.5684
L22.8935 122.6160
" />
<path d="M23.8459 122.6160
L23.8459 121.2827
" />
<path d="M23.8459 121.4732
L23.9411 121.3779
" />
<path d="M23.9411 121.3779
L24.1316 121.2827
" />
<path d="M24.1316 121.2827
L24.4173 121.2827
" />
<path d="M24.4173 121.2827
L24.6078 121.3779
" />
<path d="M24.6078 121.3779
L24.7030 121.5684
" />
<path d="M24.7030 121.5684
L24.7030 122.6160
" />
<path d="M24.7030 121.5684
L24.7982 121.3779
" />
<path d="M24.7982 121.3779
L24.9887 121.2827
" />
<path d="M24.9887 121.2827
L25.2744 121.2827
" />
<path d="M25.2744 121.2827
L25.4649 121.3779
" />
<path d="M25.4649 121.3779
L25.5601 121.5684
" />
<path d="M25.5601 121.5684
L25.5601 122.6160
" />
<path d="M29.4649 120.5208
L27.7506 123.0922
" />
<path d="M32.0363 120.6160
L32.2268 120.6160
" />
<path d="M32.2268 120.6160
L32.4173 120.7113
" />
<path d="M32.4173 120.7113
L32.5125 120.8065
" />
<path d="M32.5125 120.8065
L32.6078 120.9970
" />
<path d="M32.6078 120.9970
L32.7030 121.3779
" />
<path d="M32.7030 121.3779
L32.7030 121.8541
" />
<path d="M32.7030 121.8541
L32.6078 122.2351
" />
<path d="M32.6078 122.2351
L32.5125 122.4256
" />
<path d="M32.5125 122.4256
L32.4173 122.5208
" />
<path d="M32.4173 122.5208
L32.2268 122.6160
" />
<path d="M32.2268 122.6160
L32.0363 122.6160
" />
<path d="M32.0363 122.6160
L31.8458 122.5208
" />
<path d="M31.8458 122.5208
L31.7506 122.4256
" />
<path d="M31.7506 122.4256
L31.6554 122.2351
" />
<path d="M31.6554 122.2351
L31.5601 121.8541
" />
<path d="M31.5601 121.8541
L31.5601 121.3779
" />
<path d="M31.5601 121.3779
L31.6554 120.9970
" />
<path d="M31.6554 120.9970
L31.7506 120.8065
" />
<path d="M31.7506 120.8065
L31.8458 120.7113
" />
<path d="M31.8458 120.7113
L32.0363 120.6160
" />
<path d="M33.5601 122.4256
L33.6554 122.5208
" />
<path d="M33.6554 122.5208
L33.5601 122.6160
" />
<path d="M33.5601 122.6160
L33.4649 122.5208
" />
<path d="M33.4649 122.5208
L33.5601 122.4256
" />
<path d="M33.5601 122.4256
L33.5601 122.6160
" />
<path d="M34.8935 120.6160
L35.0839 120.6160
" />
<path d="M35.0839 120.6160
L35.2744 120.7113
" />
<path d="M35.2744 120.7113
L35.3697 120.8065
" />
<path d="M35.3697 120.8065
L35.4649 120.9970
" />
<path d="M35.4649 120.9970
L35.5601 121.3779
" />
<path d="M35.5601 121.3779
L35.5601 121.8541
" />
<path d="M35.5601 121.8541
L35.4649 122.2351
" />
<path d="M35.4649 122.2351
L35.3697 122.4256
" />
<path d="M35.3697 122.4256
L35.2744 122.5208
" />
<path d="M35.2744 122.5208
L35.0839 122.6160
" />
<path d="M35.0839 122.6160
L34.8935 122.6160
" />
<path d="M34.8935 122.6160
L34.7030 122.5208
" />
<path d="M34.7030 122.5208
L34.6077 122.4256
" />
<path d="M34.6077 122.4256
L34.5125 122.2351
" />
<path d="M34.5125 122.2351
L34.4173 121.8541
" />
<path d="M34.4173 121.8541
L34.4173 121.3779
" />
<path d="M34.4173 121.3779
L34.5125 120.9970
" />
<path d="M34.5125 120.9970
L34.6077 120.8065
" />
<path d="M34.6077 120.8065
L34.7030 120.7113
" />
<path d="M34.7030 120.7113
L34.8935 120.6160
" />
<path d="M36.2268 120.6160
L37.4649 120.6160
" />
<path d="M37.4649 120.6160
L36.7982 121.3779
" />
<path d="M36.7982 121.3779
L37.0839 121.3779
" />
<path d="M37.0839 121.3779
L37.2744 121.4732
" />
<path d="M37.2744 121.4732
L37.3697 121.5684
" />
<path d="M37.3697 121.5684
L37.4649 121.7589
" />
<path d="M37.4649 121.7589
L37.4649 122.2351
" />
<path d="M37.4649 122.2351
L37.3697 122.4256
" />
<path d="M37.3697 122.4256
L37.2744 122.5208
" />
<path d="M37.2744 122.5208
L37.0839 122.6160
" />
<path d="M37.0839 122.6160
L36.5125 122.6160
" />
<path d="M36.5125 122.6160
L36.3220 122.5208
" />
<path d="M36.3220 122.5208
L36.2268 122.4256
" />
<path d="M39.3696 122.6160
L38.2268 122.6160
" />
<path d="M38.7982 122.6160
L38.7982 120.6160
" />
<path d="M38.7982 120.6160
L38.6077 120.9017
" />
<path d="M38.6077 120.9017
L38.4173 121.0922
" />
<path d="M38.4173 121.0922
L38.2268 121.1875
" />
<path d="M41.1792 120.6160
L40.2268 120.6160
" />
<path d="M40.2268 120.6160
L40.1316 121.5684
" />
<path d="M40.1316 121.5684
L40.2268 121.4732
" />
<path d="M40.2268 121.4732
L40.4173 121.3779
" />
<path d="M40.4173 121.3779
L40.8935 121.3779
" />
<path d="M40.8935 121.3779
L41.0839 121.4732
" />
<path d="M41.0839 121.4732
L41.1792 121.5684
" />
<path d="M41.1792 121.5684
L41.2744 121.7589
" />
<path d="M41.2744 121.7589
L41.2744 122.2351
" />
<path d="M41.2744 122.2351
L41.1792 122.4256
" />
<path d="M41.1792 122.4256
L41.0839 122.5208
" />
<path d="M41.0839 122.5208
L40.8935 122.6160
" />
<path d="M40.8935 122.6160
L40.4173 122.6160
" />
<path d="M40.4173 122.6160
L40.2268 122.5208
" />
<path d="M40.2268 122.5208
L40.1316 122.4256
" />
<path d="M42.0363 120.6160
L42.0363 120.9970
" />
<path d="M42.7982 120.6160
L42.7982 120.9970
" />
<path d="M45.7506 123.3779
L45.6554 123.2827
" />
<path d="M45.6554 123.2827
L45.4649 122.9970
" />
<path d="M45.4649 122.9970
L45.3696 122.8065
" />
<path d="M45.3696 122.8065
L45.2744 122.5208
" />
<path d="M45.2744 122.5208
L45.1792 122.0446
" />
<path d="M45.1792 122.0446
L45.1792 121.6636
" />
<path d="M45.1792 121.6636
L45.2744 121.1875
" />
<path d="M45.2744 121.1875
L45.3696 120.9017
" />
<path d="M45.3696 120.9017
L45.4649 120.7113
" />
<path d="M45.4649 120.7113
L45.6554 120.4256
" />
<path d="M45.6554 120.4256
L45.7506 120.3303
" />
<path d="M46.4173 120.8065
L46.5125 120.7113
" />
<path d="M46.5125 120.7113
L46.7030 120.6160
" />
<path d="M46.7030 120.6160
L47.1792 120.6160
" />
<path d="M47.1792 120.6160
L47.3696 120.7113
" />
<path d="M47.3696 120.7113
L47.4649 120.8065
" />
<path d="M47.4649 120.8065
L47.5601 120.9970
" />
<path d="M47.5601 120.9970
L47.5601 121.1875
" />
<path d="M47.5601 121.1875
L47.4649 121.4732
" />
<path d="M47.4649 121.4732
L46.3220 122.6160
" />
<path d="M46.3220 122.6160
L47.5601 122.6160
" />
<path d="M49.9411 122.6160
L49.9411 120.6160
" />
<path d="M50.7982 122.6160
L50.7982 121.5684
" />
<path d="M50.7982 121.5684
L50.7030 121.3779
" />
<path d="M50.7030 121.3779
L50.5125 121.2827
" />
<path d="M50.5125 121.2827
L50.2268 121.2827
" />
<path d="M50.2268 121.2827
L50.0363 121.3779
" />
<path d="M50.0363 121.3779
L49.9411 121.4732
" />
<path d="M52.0363 122.6160
L51.8458 122.5208
" />
<path d="M51.8458 122.5208
L51.7506 122.4256
" />
<path d="M51.7506 122.4256
L51.6554 122.2351
" />
<path d="M51.6554 122.2351
L51.6554 121.6636
" />
<path d="M51.6554 121.6636
L51.7506 121.4732
" />
<path d="M51.7506 121.4732
L51.8458 121.3779
" />
<path d="M51.8458 121.3779
L52.0363 121.2827
" />
<path d="M52.0363 121.2827
L52.3220 121.2827
" />
<path d="M52.3220 121.2827
L52.5125 121.3779
" />
<path d="M52.5125 121.3779
L52.6077 121.4732
" />
<path d="M52.6077 121.4732
L52.7030 121.6636
" />
<path d="M52.7030 121.6636
L52.7030 122.2351
" />
<path d="M52.7030 122.2351
L52.6077 122.4256
" />
<path d="M52.6077 122.4256
L52.5125 122.5208
" />
<path d="M52.5125 122.5208
L52.3220 122.6160
" />
<path d="M52.3220 122.6160
L52.0363 122.6160
" />
<path d="M53.8458 122.6160
L53.6554 122.5208
" />
<path d="M53.6554 122.5208
L53.5601 122.3303
" />
<path d="M53.5601 122.3303
L53.5601 120.6160
" />
<path d="M55.3696 122.5208
L55.1792 122.6160
" />
<path d="M55.1792 122.6160
L54.7982 122.6160
" />
<path d="M54.7982 122.6160
L54.6077 122.5208
" />
<path d="M54.6077 122.5208
L54.5125 122.3303
" />
<path d="M54.5125 122.3303
L54.5125 121.5684
" />
<path d="M54.5125 121.5684
L54.6077 121.3779
" />
<path d="M54.6077 121.3779
L54.7982 121.2827
" />
<path d="M54.7982 121.2827
L55.1792 121.2827
" />
<path d="M55.1792 121.2827
L55.3696 121.3779
" />
<path d="M55.3696 121.3779
L55.4649 121.5684
" />
<path d="M55.4649 121.5684
L55.4649 121.7589
" />
<path d="M55.4649 121.7589
L54.5125 121.9494
" />
<path d="M56.2268 122.5208
L56.4173 122.6160
" />
<path d="M56.4173 122.6160
L56.7982 122.6160
" />
<path d="M56.7982 122.6160
L56.9887 122.5208
" />
<path d="M56.9887 122.5208
L57.0839 122.3303
" />
<path d="M57.0839 122.3303
L57.0839 122.2351
" />
<path d="M57.0839 122.2351
L56.9887 122.0446
" />
<path d="M56.9887 122.0446
L56.7982 121.9494
" />
<path d="M56.7982 121.9494
L56.5125 121.9494
" />
<path d="M56.5125 121.9494
L56.3220 121.8541
" />
<path d="M56.3220 121.8541
L56.2268 121.6636
" />
<path d="M56.2268 121.6636
L56.2268 121.5684
" />
<path d="M56.2268 121.5684
L56.3220 121.3779
" />
<path d="M56.3220 121.3779
L56.5125 121.2827
" />
<path d="M56.5125 121.2827
L56.7982 121.2827
" />
<path d="M56.7982 121.2827
L56.9887 121.3779
" />
<path d="M57.7506 123.3779
L57.8458 123.2827
" />
<path d="M57.8458 123.2827
L58.0363 122.9970
" />
<path d="M58.0363 122.9970
L58.1315 122.8065
" />
<path d="M58.1315 122.8065
L58.2268 122.5208
" />
<path d="M58.2268 122.5208
L58.3220 122.0446
" />
<path d="M58.3220 122.0446
L58.3220 121.6636
" />
<path d="M58.3220 121.6636
L58.2268 121.1875
" />
<path d="M58.2268 121.1875
L58.1315 120.9017
" />
<path d="M58.1315 120.9017
L58.0363 120.7113
" />
<path d="M58.0363 120.7113
L57.8458 120.4256
" />
<path d="M57.8458 120.4256
L57.7506 120.3303
" />
</g></g>
<g style="fill:#000000; fill-opacity:0.0; 
stroke:#000000; stroke-width:0.2000; stroke-opacity:1; 
stroke-linecap:round; stroke-linejoin:round;">
<path d="M9.0000 123.9012
L9.0000 125.9012
" />
<path d="M8.0000 124.9012
L10.0000 124.9012
" />
</g>
<g style="fill:#000000; fill-opacity:0.0; 
stroke:#000000; stroke-width:0.5768; stroke-opacity:1; 
stroke-linecap:round; stroke-linejoin:round;">
</g>
<g style="fill:#000000; fill-opacity:0.0; 
stroke:#000000; stroke-width:0.2000; stroke-opacity:1; 
stroke-linecap:round; stroke-linejoin:round;">
<text x="12.0000" y="125.9012"
textLength="46.8666" font-size="2.6667" lengthAdjust="spacingAndGlyphs"
text-anchor="start" opacity="0">2.500mm / 0.0984" (2 holes)</text>
<g class="stroked-text"><desc>2.500mm / 0.0984" (2 holes)</desc>
<path d="M12.5125 124.0065
L12.6078 123.9113
" />
<path d="M12.6078 123.9113
L12.7982 123.8160
" />
<path d="M12.7982 123.8160
L13.2744 123.8160
" />
<path d="M13.2744 123.8160
L13.4649 123.9113
" />
<path d="M13.4649 123.9113
L13.5601 124.0065
" />
<path d="M13.5601 124.0065
L13.6554 124.1970
" />
<path d="M13.6554 124.1970
L13.6554 124.3875
" />
<path d="M13.6554 124.3875
L13.5601 124.6732
" />
<path d="M13.5601 124.6732
L12.4173 125.8160
" />
<path d="M12.4173 125.8160
L13.6554 125.8160
" />
<path d="M14.5125 125.6256
L14.6078 125.7208
" />
<path d="M14.6078 125.7208
L14.5125 125.8160
" />
<path d="M14.5125 125.8160
L14.4173 125.7208
" />
<path d="M14.4173 125.7208
L14.5125 125.6256
" />
<path d="M14.5125 125.6256
L14.5125 125.8160
" />
<path d="M16.4173 123.8160
L15.4649 123.8160
" />
<path d="M15.4649 123.8160
L15.3697 124.7684
" />
<path d="M15.3697 124.7684
L15.4649 124.6732
" />
<path d="M15.4649 124.6732
L15.6554 124.5779
" />
<path d="M15.6554 124.5779
L16.1316 124.5779
" />
<path d="M16.1316 124.5779
L16.3220 124.6732
" />
<path d="M16.3220 124.6732
L16.4173 124.7684
" />
<path d="M16.4173 124.7684
L16.5125 124.9589
" />
<path d="M16.5125 124.9589
L16.5125 125.4351
" />
<path d="M16.5125 125.4351
L16.4173 125.6256
" />
<path d="M16.4173 125.6256
L16.3220 125.7208
" />
<path d="M16.3220 125.7208
L16.1316 125.8160
" />
<path d="M16.1316 125.8160
L15.6554 125.8160
" />
<path d="M15.6554 125.8160
L15.4649 125.7208
" />
<path d="M15.4649 125.7208
L15.3697 125.6256
" />
<path d="M17.7506 123.8160
L17.9411 123.8160
" />
<path d="M17.9411 123.8160
L18.1316 123.9113
" />
<path d="M18.1316 123.9113
L18.2268 124.0065
" />
<path d="M18.2268 124.0065
L18.3220 124.1970
" />
<path d="M18.3220 124.1970
L18.4173 124.5779
" />
<path d="M18.4173 124.5779
L18.4173 125.0541
" />
<path d="M18.4173 125.0541
L18.3220 125.4351
" />
<path d="M18.3220 125.4351
L18.2268 125.6256
" />
<path d="M18.2268 125.6256
L18.1316 125.7208
" />
<path d="M18.1316 125.7208
L17.9411 125.8160
" />
<path d="M17.9411 125.8160
L17.7506 125.8160
" />
<path d="M17.7506 125.8160
L17.5601 125.7208
" />
<path d="M17.5601 125.7208
L17.4649 125.6256
" />
<path d="M17.4649 125.6256
L17.3697 125.4351
" />
<path d="M17.3697 125.4351
L17.2744 125.0541
" />
<path d="M17.2744 125.0541
L17.2744 124.5779
" />
<path d="M17.2744 124.5779
L17.3697 124.1970
" />
<path d="M17.3697 124.1970
L17.4649 124.0065
" />
<path d="M17.4649 124.0065
L17.5601 123.9113
" />
<path d="M17.5601 123.9113
L17.7506 123.8160
" />
<path d="M19.6554 123.8160
L19.8459 123.8160
" />
<path d="M19.8459 123.8160
L20.0363 123.9113
" />
<path d="M20.0363 123.9113
L20.1316 124.0065
" />
<path d="M20.1316 124.0065
L20.2268 124.1970
" />
<path d="M20.2268 124.1970
L20.3220 124.5779
" />
<path d="M20.3220 124.5779
L20.3220 125.0541
" />
<path d="M20.3220 125.0541
L20.2268 125.4351
" />
<path d="M20.2268 125.4351
L20.1316 125.6256
" />
<path d="M20.1316 125.6256
L20.0363 125.7208
" />
<path d="M20.0363 125.7208
L19.8459 125.8160
" />
<path d="M19.8459 125.8160
L19.6554 125.8160
" />
<path d="M19.6554 125.8160
L19.4649 125.7208
" />
<path d="M19.4649 125.7208
L19.3697 125.6256
" />
<path d="M19.3697 125.6256
L19.2744 125.4351
" />
<path d="M19.2744 125.4351
L19.1792 125.0541
" />
<path d="M19.1792 125.0541
L19.1792 124.5779
" />
<path d="M19.1792 124.5779
L19.2744 124.1970
" />
<path d="M19.2744 124.1970
L19.3697 124.0065
" />
<path d="M19.3697 124.0065
L19.4649 123.9113
" />
<path d="M19.4649 123.9113
L19.6554 123.8160
" />
<path d="M21.1792 125.8160
L21.1792 124.4827
" />
<path d="M21.1792 124.6732
L21.2744 124.5779
" />
<path d="M21.2744 124.5779
L21.4649 124.4827
" />
<path d="M21.4649 124.4827
L21.7506 124.4827
" />
<path d="M21.7506 124.4827
L21.9411 124.5779
" />
<path d="M21.9411 124.5779
L22.0363 124.7684
" />
<path d="M22.0363 124.7684
L22.0363 125.8160
" />
<path d="M22.0363 124.7684
L22.1316 124.5779
" />
<path d="M22.1316 124.5779
L22.3220 124.4827
" />
<path d="M22.3220 124.4827
L22.6078 124.4827
" />
<path d="M22.6078 124.4827
L22.7982 124.5779
" />
<path d="M22.7982 124.5779
L22.8935 124.7684
" />
<path d="M22.8935 124.7684
L22.8935 125.8160
" />
<path d="M23.8459 125.8160
L23.8459 124.4827
" />
<path d="M23.8459 124.6732
L23.9411 124.5779
" />
<path d="M23.9411 124.5779
L24.1316 124.4827
" />
<path d="M24.1316 124.4827
L24.4173 124.4827
" />
<path d="M24.4173 124.4827
L24.6078 124.5779
" />
<path d="M24.6078 124.5779
L24.7030 124.7684
" />
<path d="M24.7030 124.7684
L24.7030 125.8160
" />
<path d="M24.7030 124.7684
L24.7982 124.5779
" />
<path d="M24.7982 124.5779
L24.9887 124.4827
" />
<path d="M24.9887 124.4827
L25.2744 124.4827
" />
<path d="M25.2744 124.4827
L25.4649 124.5779
" />
<path d="M25.4649 124.5779
L25.5601 124.7684
" />
<path d="M25.5601 124.7684
L25.5601 125.8160
" />
<path d="M29.4649 123.7208
L27.7506 126.2922
" />
<path d="M32.0363 123.8160
L32.2268 123.8160
" />
<path d="M32.2268 123.8160
L32.4173 123.9113
" />
<path d="M32.4173 123.9113
L32.5125 124.0065
" />
<path d="M32.5125 124.0065
L32.6078 124.1970
" />
<path d="M32.6078 124.1970
L32.7030 124.5779
" />
<path d="M32.7030 124.5779
L32.7030 125.0541
" />
<path d="M32.7030 125.0541
L32.6078 125.4351
" />
<path d="M32.6078 125.4351
L32.5125 125.6256
" />
<path d="M32.5125 125.6256
L32.4173 125.7208
" />
<path d="M32.4173 125.7208
L32.2268 125.8160
" />
<path d="M32.2268 125.8160
L32.0363 125.8160
" />
<path d="M32.0363 125.8160
L31.8458 125.7208
" />
<path d="M31.8458 125.7208
L31.7506 125.6256
" />
<path d="M31.7506 125.6256
L31.6554 125.4351
" />
<path d="M31.6554 125.4351
L31.5601 125.0541
" />
<path d="M31.5601 125.0541
L31.5601 124.5779
" />
<path d="M31.5601 124.5779
L31.6554 124.1970
" />
<path d="M31.6554 124.1970
L31.7506 124.0065
" />
<path d="M31.7506 124.0065
L31.8458 123.9113
" />
<path d="M31.8458 123.9113
L32.0363 123.8160
" />
<path d="M33.5601 125.6256
L33.6554 125.7208
" />
<path d="M33.6554 125.7208
L33.5601 125.8160
" />
<path d="M33.5601 125.8160
L33.4649 125.7208
" />
<path d="M33.4649 125.7208
L33.5601 125.6256
" />
<path d="M33.5601 125.6256
L33.5601 125.8160
" />
<path d="M34.8935 123.8160
L35.0839 123.8160
" />
<path d="M35.0839 123.8160
L35.2744 123.9113
" />
<path d="M35.2744 123.9113
L35.3697 124.0065
" />
<path d="M35.3697 124.0065
L35.4649 124.1970
" />
<path d="M35.4649 124.1970
L35.5601 124.5779
" />
<path d="M35.5601 124.5779
L35.5601 125.0541
" />
<path d="M35.5601 125.0541
L35.4649 125.4351
" />
<path d="M35.4649 125.4351
L35.3697 125.6256
" />
<path d="M35.3697 125.6256
L35.2744 125.7208
" />
<path d="M35.2744 125.7208
L35.0839 125.8160
" />
<path d="M35.0839 125.8160
L34.8935 125.8160
" />
<path d="M34.8935 125.8160
L34.7030 125.7208
" />
<path d="M34.7030 125.7208
L34.6077 125.6256
" />
<path d="M34.6077 125.6256
L34.5125 125.4351
" />
<path d="M34.5125 125.4351
L34.4173 125.0541
" />
<path d="M34.4173 125.0541
L34.4173 124.5779
" />
<path d="M34.4173 124.5779
L34.5125 124.1970
" />
<path d="M34.5125 124.1970
L34.6077 124.0065
" />
<path d="M34.6077 124.0065
L34.7030 123.9113
" />
<path d="M34.7030 123.9113
L34.8935 123.8160
" />
<path d="M36.5125 125.8160
L36.8935 125.8160
" />
<path d="M36.8935 125.8160
L37.0839 125.7208
" />
<path d="M37.0839 125.7208
L37.1792 125.6256
" />
<path d="M37.1792 125.6256
L37.3697 125.3398
" />
<path d="M37.3697 125.3398
L37.4649 124.9589
" />
<path d="M37.4649 124.9589
L37.4649 124.1970
" />
<path d="M37.4649 124.1970
L37.3697 124.0065
" />
<path d="M37.3697 124.0065
L37.2744 123.9113
" />
<path d="M37.2744 123.9113
L37.0839 123.8160
" />
<path d="M37.0839 123.8160
L36.7030 123.8160
" />
<path d="M36.7030 123.8160
L36.5125 123.9113
" />
<path d="M36.5125 123.9113
L36.4173 124.0065
" />
<path d="M36.4173 124.0065
L36.3220 124.1970
" />
<path d="M36.3220 124.1970
L36.3220 124.6732
" />
<path d="M36.3220 124.6732
L36.4173 124.8636
" />
<path d="M36.4173 124.8636
L36.5125 124.9589
" />
<path d="M36.5125 124.9589
L36.7030 125.0541
" />
<path d="M36.7030 125.0541
L37.0839 125.0541
" />
<path d="M37.0839 125.0541
L37.2744 124.9589
" />
<path d="M37.2744 124.9589
L37.3697 124.8636
" />
<path d="M37.3697 124.8636
L37.4649 124.6732
" />
<path d="M38.6077 124.6732
L38.4173 124.5779
" />
<path d="M38.4173 124.5779
L38.3220 124.4827
" />
<path d="M38.3220 124.4827
L38.2268 124.2922
" />
<path d="M38.2268 124.2922
L38.2268 124.1970
" />
<path d="M38.2268 124.1970
L38.3220 124.0065
" />
<path d="M38.3220 124.0065
L38.4173 123.9113
" />
<path d="M38.4173 123.9113
L38.6077 123.8160
" />
<path d="M38.6077 123.8160
L38.9887 123.8160
" />
<path d="M38.9887 123.8160
L39.1792 123.9113
" />
<path d="M39.1792 123.9113
L39.2744 124.0065
" />
<path d="M39.2744 124.0065
L39.3696 124.1970
" />
<path d="M39.3696 124.1970
L39.3696 124.2922
" />
<path d="M39.3696 124.2922
L39.2744 124.4827
" />
<path d="M39.2744 124.4827
L39.1792 124.5779
" />
<path d="M39.1792 124.5779
L38.9887 124.6732
" />
<path d="M38.9887 124.6732
L38.6077 124.6732
" />
<path d="M38.6077 124.6732
L38.4173 124.7684
" />
<path d="M38.4173 124.7684
L38.3220 124.8636
" />
<path d="M38.3220 124.8636
L38.2268 125.0541
" />
<path d="M38.2268 125.0541
L38.2268 125.4351
" />
<path d="M38.2268 125.4351
L38.3220 125.6256
" />
<path d="M38.3220 125.6256
L38.4173 125.7208
" />
<path d="M38.4173 125.7208
L38.6077 125.8160
" />
<path d="M38.6077 125.8160
L38.9887 125.8160
" />
<path d="M38.9887 125.8160
L39.1792 125.7208
" />
<path d="M39.1792 125.7208
L39.2744 125.6256
" />
<path d="M39.2744 125.6256
L39.3696 125.4351
" />
<path d="M39.3696 125.4351
L39.3696 125.0541
" />
<path d="M39.3696 125.0541
L39.2744 124.8636
" />
<path d="M39.2744 124.8636
L39.1792 124.7684
" />
<path d="M39.1792 124.7684
L38.9887 124.6732
" />
<path d="M41.0839 124.4827
L41.0839 125.8160
" />
<path d="M40.6077 123.7208
L40.1316 125.1494
" />
<path d="M40.1316 125.1494
L41.3696 125.1494
" />
<path d="M42.0363 123.8160
L42.0363 124.1970
" />
<path d="M42.7982 123.8160
L42.7982 124.1970
" />
<path d="M45.7506 126.5779
L45.6554 126.4827
" />
<path d="M45.6554 126.4827
L45.4649 126.1970
" />
<path d="M45.4649 126.1970
L45.3696 126.0065
" />
<path d="M45.3696 126.0065
L45.2744 125.7208
" />
<path d="M45.2744 125.7208
L45.1792 125.2446
" />
<path d="M45.1792 125.2446
L45.1792 124.8636
" />
<path d="M45.1792 124.8636
L45.2744 124.3875
" />
<path d="M45.2744 124.3875
L45.3696 124.1017
" />
<path d="M45.3696 124.1017
L45.4649 123.9113
" />
<path d="M45.4649 123.9113
L45.6554 123.6256
" />
<path d="M45.6554 123.6256
L45.7506 123.5303
" />
<path d="M46.4173 124.0065
L46.5125 123.9113
" />
<path d="M46.5125 123.9113
L46.7030 123.8160
" />
<path d="M46.7030 123.8160
L47.1792 123.8160
" />
<path d="M47.1792 123.8160
L47.3696 123.9113
" />
<path d="M47.3696 123.9113
L47.4649 124.0065
" />
<path d="M47.4649 124.0065
L47.5601 124.1970
" />
<path d="M47.5601 124.1970
L47.5601 124.3875
" />
<path d="M47.5601 124.3875
L47.4649 124.6732
" />
<path d="M47.4649 124.6732
L46.3220 125.8160
" />
<path d="M46.3220 125.8160
L47.5601 125.8160
" />
<path d="M49.9411 125.8160
L49.9411 123.8160
" />
<path d="M50.7982 125.8160
L50.7982 124.7684
" />
<path d="M50.7982 124.7684
L50.7030 124.5779
" />
<path d="M50.7030 124.5779
L50.5125 124.4827
" />
<path d="M50.5125 124.4827
L50.2268 124.4827
" />
<path d="M50.2268 124.4827
L50.0363 124.5779
" />
<path d="M50.0363 124.5779
L49.9411 124.6732
" />
<path d="M52.0363 125.8160
L51.8458 125.7208
" />
<path d="M51.8458 125.7208
L51.7506 125.6256
" />
<path d="M51.7506 125.6256
L51.6554 125.4351
" />
<path d="M51.6554 125.4351
L51.6554 124.8636
" />
<path d="M51.6554 124.8636
L51.7506 124.6732
" />
<path d="M51.7506 124.6732
L51.8458 124.5779
" />
<path d="M51.8458 124.5779
L52.0363 124.4827
" />
<path d="M52.0363 124.4827
L52.3220 124.4827
" />
<path d="M52.3220 124.4827
L52.5125 124.5779
" />
<path d="M52.5125 124.5779
L52.6077 124.6732
" />
<path d="M52.6077 124.6732
L52.7030 124.8636
" />
<path d="M52.7030 124.8636
L52.7030 125.4351
" />
<path d="M52.7030 125.4351
L52.6077 125.6256
" />
<path d="M52.6077 125.6256
L52.5125 125.7208
" />
<path d="M52.5125 125.7208
L52.3220 125.8160
" />
<path d="M52.3220 125.8160
L52.0363 125.8160
" />
<path d="M53.8458 125.8160
L53.6554 125.7208
" />
<path d="M53.6554 125.7208
L53.5601 125.5303
" />
<path d="M53.5601 125.5303
L53.5601 123.8160
" />
<path d="M55.3696 125.7208
L55.1792 125.8160
" />
<path d="M55.1792 125.8160
L54.7982 125.8160
" />
<path d="M54.7982 125.8160
L54.6077 125.7208
" />
<path d="M54.6077 125.7208
L54.5125 125.5303
" />
<path d="M54.5125 125.5303
L54.5125 124.7684
" />
<path d="M54.5125 124.7684
L54.6077 124.5779
" />
<path d="M54.6077 124.5779
L54.7982 124.4827
" />
<path d="M54.7982 124.4827
L55.1792 124.4827
" />
<path d="M55.1792 124.4827
L55.3696 124.5779
" />
<path d="M55.3696 124.5779
L55.4649 124.7684
" />
<path d="M55.4649 124.7684
L55.4649 124.9589
" />
<path d="M55.4649 124.9589
L54.5125 125.1494
" />
<path d="M56.2268 125.7208
L56.4173 125.8160
" />
<path d="M56.4173 125.8160
L56.7982 125.8160
" />
<path d="M56.7982 125.8160
L56.9887 125.7208
" />
<path d="M56.9887 125.7208
L57.0839 125.5303
" />
<path d="M57.0839 125.5303
L57.0839 125.4351
" />
<path d="M57.0839 125.4351
L56.9887 125.2446
" />
<path d="M56.9887 125.2446
L56.7982 125.1494
" />
<path d="M56.7982 125.1494
L56.5125 125.1494
" />
<path d="M56.5125 125.1494
L56.3220 125.0541
" />
<path d="M56.3220 125.0541
L56.2268 124.8636
" />
<path d="M56.2268 124.8636
L56.2268 124.7684
" />
<path d="M56.2268 124.7684
L56.3220 124.5779
" />
<path d="M56.3220 124.5779
L56.5125 124.4827
" />
<path d="M56.5125 124.4827
L56.7982 124.4827
" />
<path d="M56.7982 124.4827
L56.9887 124.5779
" />
<path d="M57.7506 126.5779
L57.8458 126.4827
" />
<path d="M57.8458 126.4827
L58.0363 126.1970
" />
<path d="M58.0363 126.1970
L58.1315 126.0065
" />
<path d="M58.1315 126.0065
L58.2268 125.7208
" />
<path d="M58.2268 125.7208
L58.3220 125.2446
" />
<path d="M58.3220 125.2446
L58.3220 124.8636
" />
<path d="M58.3220 124.8636
L58.2268 124.3875
" />
<path d="M58.2268 124.3875
L58.1315 124.1017
" />
<path d="M58.1315 124.1017
L58.0363 123.9113
" />
<path d="M58.0363 123.9113
L57.8458 123.6256
" />
<path d="M57.8458 123.6256
L57.7506 123.5303
" />
</g></g>
<g style="fill:#000000; fill-opacity:0.0; 
stroke:#000000; stroke-width:0.2000; stroke-opacity:1; 
stroke-linecap:round; stroke-linejoin:round;">
<path style="fill:#000000; fill-opacity:0.0; 
stroke:#000000; stroke-width:0.2000; stroke-opacity:1; 
stroke-linecap:round; stroke-linejoin:round;fill:none"
d="M 9.7071,128.8083
9.7071,127.3941
8.2929,127.3941
8.2929,128.8083
Z" /> 
</g>
<g style="fill:#000000; fill-opacity:0.0; 
stroke:#000000; stroke-width:0.5768; stroke-opacity:1; 
stroke-linecap:round; stroke-linejoin:round;">
</g>
<g style="fill:#000000; fill-opacity:0.0; 
stroke:#000000; stroke-width:0.2000; stroke-opacity:1; 
stroke-linecap:round; stroke-linejoin:round;">
<text x="12.0000" y="129.1012"
textLength="48.7714" font-size="2.6667" lengthAdjust="spacingAndGlyphs"
text-anchor="start" opacity="0">2.700mm / 0.1063" (14 holes)</text>
<g class="stroked-text"><desc>2.700mm / 0.1063" (14 holes)</desc>
<path d="M12.5125 127.2065
L12.6078 127.1113
" />
<path d="M12.6078 127.1113
L12.7982 127.0160
" />
<path d="M12.7982 127.0160
L13.2744 127.0160
" />
<path d="M13.2744 127.0160
L13.4649 127.1113
" />
<path d="M13.4649 127.1113
L13.5601 127.2065
" />
<path d="M13.5601 127.2065
L13.6554 127.3970
" />
<path d="M13.6554 127.3970
L13.6554 127.5875
" />
<path d="M13.6554 127.5875
L13.5601 127.8732
" />
<path d="M13.5601 127.8732
L12.4173 129.0160
" />
<path d="M12.4173 129.0160
L13.6554 129.0160
" />
<path d="M14.5125 128.8256
L14.6078 128.9208
" />
<path d="M14.6078 128.9208
L14.5125 129.0160
" />
<path d="M14.5125 129.0160
L14.4173 128.9208
" />
<path d="M14.4173 128.9208
L14.5125 128.8256
" />
<path d="M14.5125 128.8256
L14.5125 129.0160
" />
<path d="M15.2744 127.0160
L16.6078 127.0160
" />
<path d="M16.6078 127.0160
L15.7506 129.0160
" />
<path d="M17.7506 127.0160
L17.9411 127.0160
" />
<path d="M17.9411 127.0160
L18.1316 127.1113
" />
<path d="M18.1316 127.1113
L18.2268 127.2065
" />
<path d="M18.2268 127.2065
L18.3220 127.3970
" />
<path d="M18.3220 127.3970
L18.4173 127.7779
" />
<path d="M18.4173 127.7779
L18.4173 128.2541
" />
<path d="M18.4173 128.2541
L18.3220 128.6351
" />
<path d="M18.3220 128.6351
L18.2268 128.8256
" />
<path d="M18.2268 128.8256
L18.1316 128.9208
" />
<path d="M18.1316 128.9208
L17.9411 129.0160
" />
<path d="M17.9411 129.0160
L17.7506 129.0160
" />
<path d="M17.7506 129.0160
L17.5601 128.9208
" />
<path d="M17.5601 128.9208
L17.4649 128.8256
" />
<path d="M17.4649 128.8256
L17.3697 128.6351
" />
<path d="M17.3697 128.6351
L17.2744 128.2541
" />
<path d="M17.2744 128.2541
L17.2744 127.7779
" />
<path d="M17.2744 127.7779
L17.3697 127.3970
" />
<path d="M17.3697 127.3970
L17.4649 127.2065
" />
<path d="M17.4649 127.2065
L17.5601 127.1113
" />
<path d="M17.5601 127.1113
L17.7506 127.0160
" />
<path d="M19.6554 127.0160
L19.8459 127.0160
" />
<path d="M19.8459 127.0160
L20.0363 127.1113
" />
<path d="M20.0363 127.1113
L20.1316 127.2065
" />
<path d="M20.1316 127.2065
L20.2268 127.3970
" />
<path d="M20.2268 127.3970
L20.3220 127.7779
" />
<path d="M20.3220 127.7779
L20.3220 128.2541
" />
<path d="M20.3220 128.2541
L20.2268 128.6351
" />
<path d="M20.2268 128.6351
L20.1316 128.8256
" />
<path d="M20.1316 128.8256
L20.0363 128.9208
" />
<path d="M20.0363 128.9208
L19.8459 129.0160
" />
<path d="M19.8459 129.0160
L19.6554 129.0160
" />
<path d="M19.6554 129.0160
L19.4649 128.9208
" />
<path d="M19.4649 128.9208
L19.3697 128.8256
" />
<path d="M19.3697 128.8256
L19.2744 128.6351
" />
<path d="M19.2744 128.6351
L19.1792 128.2541
" />
<path d="M19.1792 128.2541
L19.1792 127.7779
" />
<path d="M19.1792 127.7779
L19.2744 127.3970
" />
<path d="M19.2744 127.3970
L19.3697 127.2065
" />
<path d="M19.3697 127.2065
L19.4649 127.1113
" />
<path d="M19.4649 127.1113
L19.6554 127.0160
" />
<path d="M21.1792 129.0160
L21.1792 127.6827
" />
<path d="M21.1792 127.8732
L21.2744 127.7779
" />
<path d="M21.2744 127.7779
L21.4649 127.6827
" />
<path d="M21.4649 127.6827
L21.7506 127.6827
" />
<path d="M21.7506 127.6827
L21.9411 127.7779
" />
<path d="M21.9411 127.7779
L22.0363 127.9684
" />
<path d="M22.0363 127.9684
L22.0363 129.0160
" />
<path d="M22.0363 127.9684
L22.1316 127.7779
" />
<path d="M22.1316 127.7779
L22.3220 127.6827
" />
<path d="M22.3220 127.6827
L22.6078 127.6827
" />
<path d="M22.6078 127.6827
L22.7982 127.7779
" />
<path d="M22.7982 127.7779
L22.8935 127.9684
" />
<path d="M22.8935 127.9684
L22.8935 129.0160
" />
<path d="M23.8459 129.0160
L23.8459 127.6827
" />
<path d="M23.8459 127.8732
L23.9411 127.7779
" />
<path d="M23.9411 127.7779
L24.1316 127.6827
" />
<path d="M24.1316 127.6827
L24.4173 127.6827
" />
<path d="M24.4173 127.6827
L24.6078 127.7779
" />
<path d="M24.6078 127.7779
L24.7030 127.9684
" />
<path d="M24.7030 127.9684
L24.7030 129.0160
" />
<path d="M24.7030 127.9684
L24.7982 127.7779
" />
<path d="M24.7982 127.7779
L24.9887 127.6827
" />
<path d="M24.9887 127.6827
L25.2744 127.6827
" />
<path d="M25.2744 127.6827
L25.4649 127.7779
" />
<path d="M25.4649 127.7779
L25.5601 127.9684
" />
<path d="M25.5601 127.9684
L25.5601 129.0160
" />
<path d="M29.4649 126.9208
L27.7506 129.4922
" />
<path d="M32.0363 127.0160
L32.2268 127.0160
" />
<path d="M32.2268 127.0160
L32.4173 127.1113
" />
<path d="M32.4173 127.1113
L32.5125 127.2065
" />
<path d="M32.5125 127.2065
L32.6078 127.3970
" />
<path d="M32.6078 127.3970
L32.7030 127.7779
" />
<path d="M32.7030 127.7779
L32.7030 128.2541
" />
<path d="M32.7030 128.2541
L32.6078 128.6351
" />
<path d="M32.6078 128.6351
L32.5125 128.8256
" />
<path d="M32.5125 128.8256
L32.4173 128.9208
" />
<path d="M32.4173 128.9208
L32.2268 129.0160
" />
<path d="M32.2268 129.0160
L32.0363 129.0160
" />
<path d="M32.0363 129.0160
L31.8458 128.9208
" />
<path d="M31.8458 128.9208
L31.7506 128.8256
" />
<path d="M31.7506 128.8256
L31.6554 128.6351
" />
<path d="M31.6554 128.6351
L31.5601 128.2541
" />
<path d="M31.5601 128.2541
L31.5601 127.7779
" />
<path d="M31.5601 127.7779
L31.6554 127.3970
" />
<path d="M31.6554 127.3970
L31.7506 127.2065
" />
<path d="M31.7506 127.2065
L31.8458 127.1113
" />
<path d="M31.8458 127.1113
L32.0363 127.0160
" />
<path d="M33.5601 128.8256
L33.6554 128.9208
" />
<path d="M33.6554 128.9208
L33.5601 129.0160
" />
<path d="M33.5601 129.0160
L33.4649 128.9208
" />
<path d="M33.4649 128.9208
L33.5601 128.8256
" />
<path d="M33.5601 128.8256
L33.5601 129.0160
" />
<path d="M35.5601 129.0160
L34.4173 129.0160
" />
<path d="M34.9887 129.0160
L34.9887 127.0160
" />
<path d="M34.9887 127.0160
L34.7982 127.3017
" />
<path d="M34.7982 127.3017
L34.6077 127.4922
" />
<path d="M34.6077 127.4922
L34.4173 127.5875
" />
<path d="M36.7982 127.0160
L36.9887 127.0160
" />
<path d="M36.9887 127.0160
L37.1792 127.1113
" />
<path d="M37.1792 127.1113
L37.2744 127.2065
" />
<path d="M37.2744 127.2065
L37.3697 127.3970
" />
<path d="M37.3697 127.3970
L37.4649 127.7779
" />
<path d="M37.4649 127.7779
L37.4649 128.2541
" />
<path d="M37.4649 128.2541
L37.3697 128.6351
" />
<path d="M37.3697 128.6351
L37.2744 128.8256
" />
<path d="M37.2744 128.8256
L37.1792 128.9208
" />
<path d="M37.1792 128.9208
L36.9887 129.0160
" />
<path d="M36.9887 129.0160
L36.7982 129.0160
" />
<path d="M36.7982 129.0160
L36.6077 128.9208
" />
<path d="M36.6077 128.9208
L36.5125 128.8256
" />
<path d="M36.5125 128.8256
L36.4173 128.6351
" />
<path d="M36.4173 128.6351
L36.3220 128.2541
" />
<path d="M36.3220 128.2541
L36.3220 127.7779
" />
<path d="M36.3220 127.7779
L36.4173 127.3970
" />
<path d="M36.4173 127.3970
L36.5125 127.2065
" />
<path d="M36.5125 127.2065
L36.6077 127.1113
" />
<path d="M36.6077 127.1113
L36.7982 127.0160
" />
<path d="M39.1792 127.0160
L38.7982 127.0160
" />
<path d="M38.7982 127.0160
L38.6077 127.1113
" />
<path d="M38.6077 127.1113
L38.5125 127.2065
" />
<path d="M38.5125 127.2065
L38.3220 127.4922
" />
<path d="M38.3220 127.4922
L38.2268 127.8732
" />
<path d="M38.2268 127.8732
L38.2268 128.6351
" />
<path d="M38.2268 128.6351
L38.3220 128.8256
" />
<path d="M38.3220 128.8256
L38.4173 128.9208
" />
<path d="M38.4173 128.9208
L38.6077 129.0160
" />
<path d="M38.6077 129.0160
L38.9887 129.0160
" />
<path d="M38.9887 129.0160
L39.1792 128.9208
" />
<path d="M39.1792 128.9208
L39.2744 128.8256
" />
<path d="M39.2744 128.8256
L39.3696 128.6351
" />
<path d="M39.3696 128.6351
L39.3696 128.1589
" />
<path d="M39.3696 128.1589
L39.2744 127.9684
" />
<path d="M39.2744 127.9684
L39.1792 127.8732
" />
<path d="M39.1792 127.8732
L38.9887 127.7779
" />
<path d="M38.9887 127.7779
L38.6077 127.7779
" />
<path d="M38.6077 127.7779
L38.4173 127.8732
" />
<path d="M38.4173 127.8732
L38.3220 127.9684
" />
<path d="M38.3220 127.9684
L38.2268 128.1589
" />
<path d="M40.0363 127.0160
L41.2744 127.0160
" />
<path d="M41.2744 127.0160
L40.6077 127.7779
" />
<path d="M40.6077 127.7779
L40.8935 127.7779
" />
<path d="M40.8935 127.7779
L41.0839 127.8732
" />
<path d="M41.0839 127.8732
L41.1792 127.9684
" />
<path d="M41.1792 127.9684
L41.2744 128.1589
" />
<path d="M41.2744 128.1589
L41.2744 128.6351
" />
<path d="M41.2744 128.6351
L41.1792 128.8256
" />
<path d="M41.1792 128.8256
L41.0839 128.9208
" />
<path d="M41.0839 128.9208
L40.8935 129.0160
" />
<path d="M40.8935 129.0160
L40.3220 129.0160
" />
<path d="M40.3220 129.0160
L40.1316 128.9208
" />
<path d="M40.1316 128.9208
L40.0363 128.8256
" />
<path d="M42.0363 127.0160
L42.0363 127.3970
" />
<path d="M42.7982 127.0160
L42.7982 127.3970
" />
<path d="M45.7506 129.7779
L45.6554 129.6827
" />
<path d="M45.6554 129.6827
L45.4649 129.3970
" />
<path d="M45.4649 129.3970
L45.3696 129.2065
" />
<path d="M45.3696 129.2065
L45.2744 128.9208
" />
<path d="M45.2744 128.9208
L45.1792 128.4446
" />
<path d="M45.1792 128.4446
L45.1792 128.0636
" />
<path d="M45.1792 128.0636
L45.2744 127.5875
" />
<path d="M45.2744 127.5875
L45.3696 127.3017
" />
<path d="M45.3696 127.3017
L45.4649 127.1113
" />
<path d="M45.4649 127.1113
L45.6554 126.8256
" />
<path d="M45.6554 126.8256
L45.7506 126.7303
" />
<path d="M47.5601 129.0160
L46.4173 129.0160
" />
<path d="M46.9887 129.0160
L46.9887 127.0160
" />
<path d="M46.9887 127.0160
L46.7982 127.3017
" />
<path d="M46.7982 127.3017
L46.6077 127.4922
" />
<path d="M46.6077 127.4922
L46.4173 127.5875
" />
<path d="M49.2744 127.6827
L49.2744 129.0160
" />
<path d="M48.7982 126.9208
L48.3220 128.3494
" />
<path d="M48.3220 128.3494
L49.5601 128.3494
" />
<path d="M51.8458 129.0160
L51.8458 127.0160
" />
<path d="M52.7030 129.0160
L52.7030 127.9684
" />
<path d="M52.7030 127.9684
L52.6077 127.7779
" />
<path d="M52.6077 127.7779
L52.4173 127.6827
" />
<path d="M52.4173 127.6827
L52.1315 127.6827
" />
<path d="M52.1315 127.6827
L51.9411 127.7779
" />
<path d="M51.9411 127.7779
L51.8458 127.8732
" />
<path d="M53.9411 129.0160
L53.7506 128.9208
" />
<path d="M53.7506 128.9208
L53.6554 128.8256
" />
<path d="M53.6554 128.8256
L53.5601 128.6351
" />
<path d="M53.5601 128.6351
L53.5601 128.0636
" />
<path d="M53.5601 128.0636
L53.6554 127.8732
" />
<path d="M53.6554 127.8732
L53.7506 127.7779
" />
<path d="M53.7506 127.7779
L53.9411 127.6827
" />
<path d="M53.9411 127.6827
L54.2268 127.6827
" />
<path d="M54.2268 127.6827
L54.4173 127.7779
" />
<path d="M54.4173 127.7779
L54.5125 127.8732
" />
<path d="M54.5125 127.8732
L54.6077 128.0636
" />
<path d="M54.6077 128.0636
L54.6077 128.6351
" />
<path d="M54.6077 128.6351
L54.5125 128.8256
" />
<path d="M54.5125 128.8256
L54.4173 128.9208
" />
<path d="M54.4173 128.9208
L54.2268 129.0160
" />
<path d="M54.2268 129.0160
L53.9411 129.0160
" />
<path d="M55.7506 129.0160
L55.5601 128.9208
" />
<path d="M55.5601 128.9208
L55.4649 128.7303
" />
<path d="M55.4649 128.7303
L55.4649 127.0160
" />
<path d="M57.2744 128.9208
L57.0839 129.0160
" />
<path d="M57.0839 129.0160
L56.7030 129.0160
" />
<path d="M56.7030 129.0160
L56.5125 128.9208
" />
<path d="M56.5125 128.9208
L56.4173 128.7303
" />
<path d="M56.4173 128.7303
L56.4173 127.9684
" />
<path d="M56.4173 127.9684
L56.5125 127.7779
" />
<path d="M56.5125 127.7779
L56.7030 127.6827
" />
<path d="M56.7030 127.6827
L57.0839 127.6827
" />
<path d="M57.0839 127.6827
L57.2744 127.7779
" />
<path d="M57.2744 127.7779
L57.3696 127.9684
" />
<path d="M57.3696 127.9684
L57.3696 128.1589
" />
<path d="M57.3696 128.1589
L56.4173 128.3494
" />
<path d="M58.1315 128.9208
L58.3220 129.0160
" />
<path d="M58.3220 129.0160
L58.7030 129.0160
" />
<path d="M58.7030 129.0160
L58.8935 128.9208
" />
<path d="M58.8935 128.9208
L58.9887 128.7303
" />
<path d="M58.9887 128.7303
L58.9887 128.6351
" />
<path d="M58.9887 128.6351
L58.8935 128.4446
" />
<path d="M58.8935 128.4446
L58.7030 128.3494
" />
<path d="M58.7030 128.3494
L58.4173 128.3494
" />
<path d="M58.4173 128.3494
L58.2268 128.2541
" />
<path d="M58.2268 128.2541
L58.1315 128.0636
" />
<path d="M58.1315 128.0636
L58.1315 127.9684
" />
<path d="M58.1315 127.9684
L58.2268 127.7779
" />
<path d="M58.2268 127.7779
L58.4173 127.6827
" />
<path d="M58.4173 127.6827
L58.7030 127.6827
" />
<path d="M58.7030 127.6827
L58.8935 127.7779
" />
<path d="M59.6554 129.7779
L59.7506 129.6827
" />
<path d="M59.7506 129.6827
L59.9411 129.3970
" />
<path d="M59.9411 129.3970
L60.0363 129.2065
" />
<path d="M60.0363 129.2065
L60.1315 128.9208
" />
<path d="M60.1315 128.9208
L60.2268 128.4446
" />
<path d="M60.2268 128.4446
L60.2268 128.0636
" />
<path d="M60.2268 128.0636
L60.1315 127.5875
" />
<path d="M60.1315 127.5875
L60.0363 127.3017
" />
<path d="M60.0363 127.3017
L59.9411 127.1113
" />
<path d="M59.9411 127.1113
L59.7506 126.8256
" />
<path d="M59.7506 126.8256
L59.6554 126.7303
" />
</g></g> 
</svg>
