<?xml version="1.0" standalone="no"?>
 <!DOCTYPE svg PUBLIC "-//W3C//DTD SVG 1.1//EN" 
 "http://www.w3.org/Graphics/SVG/1.1/DTD/svg11.dtd"> 
<svg
  xmlns:svg="http://www.w3.org/2000/svg"
  xmlns="http://www.w3.org/2000/svg"
  xmlns:xlink="http://www.w3.org/1999/xlink"
  version="1.1"
  width="297.0022mm" height="210.0072mm" viewBox="0.0000 0.0000 297.0022 210.0072">
<title>SVG Image created as SAL-FP_Keyboard-LogicBoard-PTH-drl_map.svg date 2023/10/13 00:14:28 </title>
  <desc>Image generated by PCBNEW </desc>
<g style="fill:#000000; fill-opacity:1.0000;stroke:#000000; stroke-opacity:1.0000;
stroke-linecap:round; stroke-linejoin:round;"
 transform="translate(0 0) scale(1 1)">
</g>
<g style="fill:#000000; fill-opacity:0.0; 
stroke:#000000; stroke-width:0.0000; stroke-opacity:1; 
stroke-linecap:round; stroke-linejoin:round;">
</g>
<g style="fill:#000000; fill-opacity:0.0; 
stroke:#000000; stroke-width:0.3000; stroke-opacity:1; 
stroke-linecap:round; stroke-linejoin:round;">
<path style="fill:#000000; fill-opacity:0.0; 
stroke:#000000; stroke-width:0.3000; stroke-opacity:1; 
stroke-linecap:round; stroke-linejoin:round;fill:none"
d="M 215.1761,108.0022
81.8261,108.0022
81.8261,107.9602
81.8261,43.9522
81.8261,18.0022
215.1761,18.0022
Z" /> 
</g>
<g style="fill:#000000; fill-opacity:0.0; 
stroke:#000000; stroke-width:0.6000; stroke-opacity:1; 
stroke-linecap:round; stroke-linejoin:round;">
</g>
<g style="fill:#000000; fill-opacity:0.0; 
stroke:#000000; stroke-width:0.2250; stroke-opacity:1; 
stroke-linecap:round; stroke-linejoin:round;">
<path d="M90.2261 35.2072
L92.4761 37.4572
" />
<path d="M92.4761 35.2072
L90.2261 37.4572
" />
<path d="M94.0361 31.3972
L96.2861 33.6472
" />
<path d="M96.2861 31.3972
L94.0361 33.6472
" />
<path d="M94.0361 39.0172
L96.2861 41.2672
" />
<path d="M96.2861 39.0172
L94.0361 41.2672
" />
</g>
<g style="fill:#000000; fill-opacity:0.0; 
stroke:#000000; stroke-width:0.3000; stroke-opacity:1; 
stroke-linecap:round; stroke-linejoin:round;">
<circle cx="112.3061" cy="32.5222" r="1.5000" /> 
<circle cx="112.3061" cy="47.7622" r="1.5000" /> 
<circle cx="112.3061" cy="93.4822" r="1.5000" /> 
<circle cx="119.9261" cy="32.5222" r="1.5000" /> 
<circle cx="119.9261" cy="47.7622" r="1.5000" /> 
<circle cx="119.9261" cy="93.4822" r="1.5000" /> 
<circle cx="127.5461" cy="32.5222" r="1.5000" /> 
<circle cx="127.5461" cy="47.7622" r="1.5000" /> 
<circle cx="127.5461" cy="93.4822" r="1.5000" /> 
<circle cx="135.1661" cy="32.5222" r="1.5000" /> 
<circle cx="135.1661" cy="47.7622" r="1.5000" /> 
<circle cx="135.1661" cy="93.4822" r="1.5000" /> 
<circle cx="142.7861" cy="32.5222" r="1.5000" /> 
<circle cx="142.7861" cy="47.7622" r="1.5000" /> 
<circle cx="142.7861" cy="93.4822" r="1.5000" /> 
<circle cx="150.4061" cy="32.5222" r="1.5000" /> 
<circle cx="150.4061" cy="47.7622" r="1.5000" /> 
<circle cx="150.4061" cy="93.4822" r="1.5000" /> 
<circle cx="158.0261" cy="32.5222" r="1.5000" /> 
<circle cx="158.0261" cy="47.7622" r="1.5000" /> 
<circle cx="158.0261" cy="93.4822" r="1.5000" /> 
<circle cx="165.6461" cy="32.5222" r="1.5000" /> 
<circle cx="165.6461" cy="47.7622" r="1.5000" /> 
<circle cx="165.6461" cy="93.4822" r="1.5000" /> 
<circle cx="173.2661" cy="32.5222" r="1.5000" /> 
<circle cx="173.2661" cy="47.7622" r="1.5000" /> 
<circle cx="173.2661" cy="93.4822" r="1.5000" /> 
<circle cx="180.8861" cy="32.5222" r="1.5000" /> 
<circle cx="180.8861" cy="47.7622" r="1.5000" /> 
<circle cx="180.8861" cy="93.4822" r="1.5000" /> 
<circle cx="188.5061" cy="32.5222" r="1.5000" /> 
<circle cx="188.5061" cy="47.7622" r="1.5000" /> 
<circle cx="188.5061" cy="93.4822" r="1.5000" /> 
<circle cx="196.1261" cy="32.5222" r="1.5000" /> 
<circle cx="196.1261" cy="47.7622" r="1.5000" /> 
<circle cx="196.1261" cy="93.4822" r="1.5000" /> 
</g>
<g style="fill:#000000; fill-opacity:0.0; 
stroke:#000000; stroke-width:0.3300; stroke-opacity:1; 
stroke-linecap:round; stroke-linejoin:round;">
<path d="M86.5061 59.2222
L86.5061 62.5222
" />
<path d="M84.8561 60.8722
L88.1561 60.8722
" />
<path d="M86.5061 78.7222
L86.5061 82.0222
" />
<path d="M84.8561 80.3722
L88.1561 80.3722
" />
<path d="M100.0061 59.2222
L100.0061 62.5222
" />
<path d="M98.3561 60.8722
L101.6561 60.8722
" />
<path d="M100.0061 78.7222
L100.0061 82.0222
" />
<path d="M98.3561 80.3722
L101.6561 80.3722
" />
</g>
<g style="fill:#000000; fill-opacity:0.0; 
stroke:#000000; stroke-width:0.6000; stroke-opacity:1; 
stroke-linecap:round; stroke-linejoin:round;">
</g>
<g style="fill:#000000; fill-opacity:0.0; 
stroke:#000000; stroke-width:0.2000; stroke-opacity:1; 
stroke-linecap:round; stroke-linejoin:round;">
<text x="83.6761" y="111.3522"
textLength="14.8667" font-size="2.6667" lengthAdjust="spacingAndGlyphs"
text-anchor="start" opacity="0">Drill Map:</text>
<g class="stroked-text"><desc>Drill Map:</desc>
<path d="M84.2839 111.2670
L84.2839 109.2670
" />
<path d="M84.2839 109.2670
L84.7601 109.2670
" />
<path d="M84.7601 109.2670
L85.0458 109.3622
" />
<path d="M85.0458 109.3622
L85.2362 109.5527
" />
<path d="M85.2362 109.5527
L85.3315 109.7432
" />
<path d="M85.3315 109.7432
L85.4267 110.1241
" />
<path d="M85.4267 110.1241
L85.4267 110.4099
" />
<path d="M85.4267 110.4099
L85.3315 110.7908
" />
<path d="M85.3315 110.7908
L85.2362 110.9813
" />
<path d="M85.2362 110.9813
L85.0458 111.1718
" />
<path d="M85.0458 111.1718
L84.7601 111.2670
" />
<path d="M84.7601 111.2670
L84.2839 111.2670
" />
<path d="M86.2839 111.2670
L86.2839 109.9337
" />
<path d="M86.2839 110.3146
L86.3791 110.1241
" />
<path d="M86.3791 110.1241
L86.4743 110.0289
" />
<path d="M86.4743 110.0289
L86.6648 109.9337
" />
<path d="M86.6648 109.9337
L86.8553 109.9337
" />
<path d="M87.5220 111.2670
L87.5220 109.9337
" />
<path d="M87.5220 109.2670
L87.4267 109.3622
" />
<path d="M87.4267 109.3622
L87.5220 109.4575
" />
<path d="M87.5220 109.4575
L87.6172 109.3622
" />
<path d="M87.6172 109.3622
L87.5220 109.2670
" />
<path d="M87.5220 109.2670
L87.5220 109.4575
" />
<path d="M88.7601 111.2670
L88.5696 111.1718
" />
<path d="M88.5696 111.1718
L88.4743 110.9813
" />
<path d="M88.4743 110.9813
L88.4743 109.2670
" />
<path d="M89.8077 111.2670
L89.6172 111.1718
" />
<path d="M89.6172 111.1718
L89.5220 110.9813
" />
<path d="M89.5220 110.9813
L89.5220 109.2670
" />
<path d="M92.0934 111.2670
L92.0934 109.2670
" />
<path d="M92.0934 109.2670
L92.7601 110.6956
" />
<path d="M92.7601 110.6956
L93.4267 109.2670
" />
<path d="M93.4267 109.2670
L93.4267 111.2670
" />
<path d="M95.2363 111.2670
L95.2363 110.2194
" />
<path d="M95.2363 110.2194
L95.1410 110.0289
" />
<path d="M95.1410 110.0289
L94.9505 109.9337
" />
<path d="M94.9505 109.9337
L94.5696 109.9337
" />
<path d="M94.5696 109.9337
L94.3791 110.0289
" />
<path d="M95.2363 111.1718
L95.0458 111.2670
" />
<path d="M95.0458 111.2670
L94.5696 111.2670
" />
<path d="M94.5696 111.2670
L94.3791 111.1718
" />
<path d="M94.3791 111.1718
L94.2839 110.9813
" />
<path d="M94.2839 110.9813
L94.2839 110.7908
" />
<path d="M94.2839 110.7908
L94.3791 110.6003
" />
<path d="M94.3791 110.6003
L94.5696 110.5051
" />
<path d="M94.5696 110.5051
L95.0458 110.5051
" />
<path d="M95.0458 110.5051
L95.2363 110.4099
" />
<path d="M96.1886 109.9337
L96.1886 111.9337
" />
<path d="M96.1886 110.0289
L96.3791 109.9337
" />
<path d="M96.3791 109.9337
L96.7601 109.9337
" />
<path d="M96.7601 109.9337
L96.9505 110.0289
" />
<path d="M96.9505 110.0289
L97.0458 110.1241
" />
<path d="M97.0458 110.1241
L97.1410 110.3146
" />
<path d="M97.1410 110.3146
L97.1410 110.8860
" />
<path d="M97.1410 110.8860
L97.0458 111.0765
" />
<path d="M97.0458 111.0765
L96.9505 111.1718
" />
<path d="M96.9505 111.1718
L96.7601 111.2670
" />
<path d="M96.7601 111.2670
L96.3791 111.2670
" />
<path d="M96.3791 111.2670
L96.1886 111.1718
" />
<path d="M97.9982 111.0765
L98.0934 111.1718
" />
<path d="M98.0934 111.1718
L97.9982 111.2670
" />
<path d="M97.9982 111.2670
L97.9029 111.1718
" />
<path d="M97.9029 111.1718
L97.9982 111.0765
" />
<path d="M97.9982 111.0765
L97.9982 111.2670
" />
<path d="M97.9982 110.0289
L98.0934 110.1241
" />
<path d="M98.0934 110.1241
L97.9982 110.2194
" />
<path d="M97.9982 110.2194
L97.9029 110.1241
" />
<path d="M97.9029 110.1241
L97.9982 110.0289
" />
<path d="M97.9982 110.0289
L97.9982 110.2194
" />
</g></g>
<g style="fill:#000000; fill-opacity:0.0; 
stroke:#000000; stroke-width:0.2000; stroke-opacity:1; 
stroke-linecap:round; stroke-linejoin:round;">
<path d="M79.6761 113.5522
L81.6761 115.5522
" />
<path d="M81.6761 113.5522
L79.6761 115.5522
" />
</g>
<g style="fill:#000000; fill-opacity:0.0; 
stroke:#000000; stroke-width:0.6000; stroke-opacity:1; 
stroke-linecap:round; stroke-linejoin:round;">
</g>
<g style="fill:#000000; fill-opacity:0.0; 
stroke:#000000; stroke-width:0.2000; stroke-opacity:1; 
stroke-linecap:round; stroke-linejoin:round;">
<text x="83.6761" y="115.5522"
textLength="46.8667" font-size="2.6667" lengthAdjust="spacingAndGlyphs"
text-anchor="start" opacity="0">0.750mm / 0.0295" (3 holes)</text>
<g class="stroked-text"><desc>0.750mm / 0.0295" (3 holes)</desc>
<path d="M84.6648 113.4670
L84.8553 113.4670
" />
<path d="M84.8553 113.4670
L85.0458 113.5622
" />
<path d="M85.0458 113.5622
L85.1410 113.6575
" />
<path d="M85.1410 113.6575
L85.2362 113.8480
" />
<path d="M85.2362 113.8480
L85.3315 114.2289
" />
<path d="M85.3315 114.2289
L85.3315 114.7051
" />
<path d="M85.3315 114.7051
L85.2362 115.0860
" />
<path d="M85.2362 115.0860
L85.1410 115.2765
" />
<path d="M85.1410 115.2765
L85.0458 115.3718
" />
<path d="M85.0458 115.3718
L84.8553 115.4670
" />
<path d="M84.8553 115.4670
L84.6648 115.4670
" />
<path d="M84.6648 115.4670
L84.4743 115.3718
" />
<path d="M84.4743 115.3718
L84.3791 115.2765
" />
<path d="M84.3791 115.2765
L84.2839 115.0860
" />
<path d="M84.2839 115.0860
L84.1886 114.7051
" />
<path d="M84.1886 114.7051
L84.1886 114.2289
" />
<path d="M84.1886 114.2289
L84.2839 113.8480
" />
<path d="M84.2839 113.8480
L84.3791 113.6575
" />
<path d="M84.3791 113.6575
L84.4743 113.5622
" />
<path d="M84.4743 113.5622
L84.6648 113.4670
" />
<path d="M86.1886 115.2765
L86.2839 115.3718
" />
<path d="M86.2839 115.3718
L86.1886 115.4670
" />
<path d="M86.1886 115.4670
L86.0934 115.3718
" />
<path d="M86.0934 115.3718
L86.1886 115.2765
" />
<path d="M86.1886 115.2765
L86.1886 115.4670
" />
<path d="M86.9505 113.4670
L88.2839 113.4670
" />
<path d="M88.2839 113.4670
L87.4267 115.4670
" />
<path d="M89.9982 113.4670
L89.0458 113.4670
" />
<path d="M89.0458 113.4670
L88.9505 114.4194
" />
<path d="M88.9505 114.4194
L89.0458 114.3241
" />
<path d="M89.0458 114.3241
L89.2363 114.2289
" />
<path d="M89.2363 114.2289
L89.7124 114.2289
" />
<path d="M89.7124 114.2289
L89.9029 114.3241
" />
<path d="M89.9029 114.3241
L89.9982 114.4194
" />
<path d="M89.9982 114.4194
L90.0934 114.6099
" />
<path d="M90.0934 114.6099
L90.0934 115.0860
" />
<path d="M90.0934 115.0860
L89.9982 115.2765
" />
<path d="M89.9982 115.2765
L89.9029 115.3718
" />
<path d="M89.9029 115.3718
L89.7124 115.4670
" />
<path d="M89.7124 115.4670
L89.2363 115.4670
" />
<path d="M89.2363 115.4670
L89.0458 115.3718
" />
<path d="M89.0458 115.3718
L88.9505 115.2765
" />
<path d="M91.3315 113.4670
L91.5220 113.4670
" />
<path d="M91.5220 113.4670
L91.7124 113.5622
" />
<path d="M91.7124 113.5622
L91.8077 113.6575
" />
<path d="M91.8077 113.6575
L91.9029 113.8480
" />
<path d="M91.9029 113.8480
L91.9982 114.2289
" />
<path d="M91.9982 114.2289
L91.9982 114.7051
" />
<path d="M91.9982 114.7051
L91.9029 115.0860
" />
<path d="M91.9029 115.0860
L91.8077 115.2765
" />
<path d="M91.8077 115.2765
L91.7124 115.3718
" />
<path d="M91.7124 115.3718
L91.5220 115.4670
" />
<path d="M91.5220 115.4670
L91.3315 115.4670
" />
<path d="M91.3315 115.4670
L91.1410 115.3718
" />
<path d="M91.1410 115.3718
L91.0458 115.2765
" />
<path d="M91.0458 115.2765
L90.9505 115.0860
" />
<path d="M90.9505 115.0860
L90.8553 114.7051
" />
<path d="M90.8553 114.7051
L90.8553 114.2289
" />
<path d="M90.8553 114.2289
L90.9505 113.8480
" />
<path d="M90.9505 113.8480
L91.0458 113.6575
" />
<path d="M91.0458 113.6575
L91.1410 113.5622
" />
<path d="M91.1410 113.5622
L91.3315 113.4670
" />
<path d="M92.8553 115.4670
L92.8553 114.1337
" />
<path d="M92.8553 114.3241
L92.9505 114.2289
" />
<path d="M92.9505 114.2289
L93.1410 114.1337
" />
<path d="M93.1410 114.1337
L93.4267 114.1337
" />
<path d="M93.4267 114.1337
L93.6172 114.2289
" />
<path d="M93.6172 114.2289
L93.7124 114.4194
" />
<path d="M93.7124 114.4194
L93.7124 115.4670
" />
<path d="M93.7124 114.4194
L93.8077 114.2289
" />
<path d="M93.8077 114.2289
L93.9982 114.1337
" />
<path d="M93.9982 114.1337
L94.2839 114.1337
" />
<path d="M94.2839 114.1337
L94.4744 114.2289
" />
<path d="M94.4744 114.2289
L94.5696 114.4194
" />
<path d="M94.5696 114.4194
L94.5696 115.4670
" />
<path d="M95.5220 115.4670
L95.5220 114.1337
" />
<path d="M95.5220 114.3241
L95.6172 114.2289
" />
<path d="M95.6172 114.2289
L95.8077 114.1337
" />
<path d="M95.8077 114.1337
L96.0934 114.1337
" />
<path d="M96.0934 114.1337
L96.2839 114.2289
" />
<path d="M96.2839 114.2289
L96.3791 114.4194
" />
<path d="M96.3791 114.4194
L96.3791 115.4670
" />
<path d="M96.3791 114.4194
L96.4743 114.2289
" />
<path d="M96.4743 114.2289
L96.6648 114.1337
" />
<path d="M96.6648 114.1337
L96.9505 114.1337
" />
<path d="M96.9505 114.1337
L97.1410 114.2289
" />
<path d="M97.1410 114.2289
L97.2363 114.4194
" />
<path d="M97.2363 114.4194
L97.2363 115.4670
" />
<path d="M101.1410 113.3718
L99.4267 115.9432
" />
<path d="M103.7124 113.4670
L103.9029 113.4670
" />
<path d="M103.9029 113.4670
L104.0934 113.5622
" />
<path d="M104.0934 113.5622
L104.1886 113.6575
" />
<path d="M104.1886 113.6575
L104.2839 113.8480
" />
<path d="M104.2839 113.8480
L104.3791 114.2289
" />
<path d="M104.3791 114.2289
L104.3791 114.7051
" />
<path d="M104.3791 114.7051
L104.2839 115.0860
" />
<path d="M104.2839 115.0860
L104.1886 115.2765
" />
<path d="M104.1886 115.2765
L104.0934 115.3718
" />
<path d="M104.0934 115.3718
L103.9029 115.4670
" />
<path d="M103.9029 115.4670
L103.7124 115.4670
" />
<path d="M103.7124 115.4670
L103.5220 115.3718
" />
<path d="M103.5220 115.3718
L103.4267 115.2765
" />
<path d="M103.4267 115.2765
L103.3315 115.0860
" />
<path d="M103.3315 115.0860
L103.2363 114.7051
" />
<path d="M103.2363 114.7051
L103.2363 114.2289
" />
<path d="M103.2363 114.2289
L103.3315 113.8480
" />
<path d="M103.3315 113.8480
L103.4267 113.6575
" />
<path d="M103.4267 113.6575
L103.5220 113.5622
" />
<path d="M103.5220 113.5622
L103.7124 113.4670
" />
<path d="M105.2363 115.2765
L105.3315 115.3718
" />
<path d="M105.3315 115.3718
L105.2363 115.4670
" />
<path d="M105.2363 115.4670
L105.1410 115.3718
" />
<path d="M105.1410 115.3718
L105.2363 115.2765
" />
<path d="M105.2363 115.2765
L105.2363 115.4670
" />
<path d="M106.5696 113.4670
L106.7601 113.4670
" />
<path d="M106.7601 113.4670
L106.9505 113.5622
" />
<path d="M106.9505 113.5622
L107.0458 113.6575
" />
<path d="M107.0458 113.6575
L107.1410 113.8480
" />
<path d="M107.1410 113.8480
L107.2363 114.2289
" />
<path d="M107.2363 114.2289
L107.2363 114.7051
" />
<path d="M107.2363 114.7051
L107.1410 115.0860
" />
<path d="M107.1410 115.0860
L107.0458 115.2765
" />
<path d="M107.0458 115.2765
L106.9505 115.3718
" />
<path d="M106.9505 115.3718
L106.7601 115.4670
" />
<path d="M106.7601 115.4670
L106.5696 115.4670
" />
<path d="M106.5696 115.4670
L106.3791 115.3718
" />
<path d="M106.3791 115.3718
L106.2839 115.2765
" />
<path d="M106.2839 115.2765
L106.1886 115.0860
" />
<path d="M106.1886 115.0860
L106.0934 114.7051
" />
<path d="M106.0934 114.7051
L106.0934 114.2289
" />
<path d="M106.0934 114.2289
L106.1886 113.8480
" />
<path d="M106.1886 113.8480
L106.2839 113.6575
" />
<path d="M106.2839 113.6575
L106.3791 113.5622
" />
<path d="M106.3791 113.5622
L106.5696 113.4670
" />
<path d="M107.9982 113.6575
L108.0934 113.5622
" />
<path d="M108.0934 113.5622
L108.2839 113.4670
" />
<path d="M108.2839 113.4670
L108.7601 113.4670
" />
<path d="M108.7601 113.4670
L108.9505 113.5622
" />
<path d="M108.9505 113.5622
L109.0458 113.6575
" />
<path d="M109.0458 113.6575
L109.1410 113.8480
" />
<path d="M109.1410 113.8480
L109.1410 114.0384
" />
<path d="M109.1410 114.0384
L109.0458 114.3241
" />
<path d="M109.0458 114.3241
L107.9029 115.4670
" />
<path d="M107.9029 115.4670
L109.1410 115.4670
" />
<path d="M110.0934 115.4670
L110.4744 115.4670
" />
<path d="M110.4744 115.4670
L110.6648 115.3718
" />
<path d="M110.6648 115.3718
L110.7601 115.2765
" />
<path d="M110.7601 115.2765
L110.9505 114.9908
" />
<path d="M110.9505 114.9908
L111.0458 114.6099
" />
<path d="M111.0458 114.6099
L111.0458 113.8480
" />
<path d="M111.0458 113.8480
L110.9505 113.6575
" />
<path d="M110.9505 113.6575
L110.8553 113.5622
" />
<path d="M110.8553 113.5622
L110.6648 113.4670
" />
<path d="M110.6648 113.4670
L110.2839 113.4670
" />
<path d="M110.2839 113.4670
L110.0934 113.5622
" />
<path d="M110.0934 113.5622
L109.9982 113.6575
" />
<path d="M109.9982 113.6575
L109.9029 113.8480
" />
<path d="M109.9029 113.8480
L109.9029 114.3241
" />
<path d="M109.9029 114.3241
L109.9982 114.5146
" />
<path d="M109.9982 114.5146
L110.0934 114.6099
" />
<path d="M110.0934 114.6099
L110.2839 114.7051
" />
<path d="M110.2839 114.7051
L110.6648 114.7051
" />
<path d="M110.6648 114.7051
L110.8553 114.6099
" />
<path d="M110.8553 114.6099
L110.9505 114.5146
" />
<path d="M110.9505 114.5146
L111.0458 114.3241
" />
<path d="M112.8553 113.4670
L111.9029 113.4670
" />
<path d="M111.9029 113.4670
L111.8077 114.4194
" />
<path d="M111.8077 114.4194
L111.9029 114.3241
" />
<path d="M111.9029 114.3241
L112.0934 114.2289
" />
<path d="M112.0934 114.2289
L112.5696 114.2289
" />
<path d="M112.5696 114.2289
L112.7601 114.3241
" />
<path d="M112.7601 114.3241
L112.8553 114.4194
" />
<path d="M112.8553 114.4194
L112.9505 114.6099
" />
<path d="M112.9505 114.6099
L112.9505 115.0860
" />
<path d="M112.9505 115.0860
L112.8553 115.2765
" />
<path d="M112.8553 115.2765
L112.7601 115.3718
" />
<path d="M112.7601 115.3718
L112.5696 115.4670
" />
<path d="M112.5696 115.4670
L112.0934 115.4670
" />
<path d="M112.0934 115.4670
L111.9029 115.3718
" />
<path d="M111.9029 115.3718
L111.8077 115.2765
" />
<path d="M113.7125 113.4670
L113.7125 113.8480
" />
<path d="M114.4744 113.4670
L114.4744 113.8480
" />
<path d="M117.4267 116.2289
L117.3315 116.1337
" />
<path d="M117.3315 116.1337
L117.1410 115.8480
" />
<path d="M117.1410 115.8480
L117.0458 115.6575
" />
<path d="M117.0458 115.6575
L116.9506 115.3718
" />
<path d="M116.9506 115.3718
L116.8553 114.8956
" />
<path d="M116.8553 114.8956
L116.8553 114.5146
" />
<path d="M116.8553 114.5146
L116.9506 114.0384
" />
<path d="M116.9506 114.0384
L117.0458 113.7527
" />
<path d="M117.0458 113.7527
L117.1410 113.5622
" />
<path d="M117.1410 113.5622
L117.3315 113.2765
" />
<path d="M117.3315 113.2765
L117.4267 113.1813
" />
<path d="M117.9982 113.4670
L119.2363 113.4670
" />
<path d="M119.2363 113.4670
L118.5696 114.2289
" />
<path d="M118.5696 114.2289
L118.8553 114.2289
" />
<path d="M118.8553 114.2289
L119.0458 114.3241
" />
<path d="M119.0458 114.3241
L119.1410 114.4194
" />
<path d="M119.1410 114.4194
L119.2363 114.6099
" />
<path d="M119.2363 114.6099
L119.2363 115.0860
" />
<path d="M119.2363 115.0860
L119.1410 115.2765
" />
<path d="M119.1410 115.2765
L119.0458 115.3718
" />
<path d="M119.0458 115.3718
L118.8553 115.4670
" />
<path d="M118.8553 115.4670
L118.2839 115.4670
" />
<path d="M118.2839 115.4670
L118.0934 115.3718
" />
<path d="M118.0934 115.3718
L117.9982 115.2765
" />
<path d="M121.6172 115.4670
L121.6172 113.4670
" />
<path d="M122.4744 115.4670
L122.4744 114.4194
" />
<path d="M122.4744 114.4194
L122.3791 114.2289
" />
<path d="M122.3791 114.2289
L122.1886 114.1337
" />
<path d="M122.1886 114.1337
L121.9029 114.1337
" />
<path d="M121.9029 114.1337
L121.7125 114.2289
" />
<path d="M121.7125 114.2289
L121.6172 114.3241
" />
<path d="M123.7125 115.4670
L123.5220 115.3718
" />
<path d="M123.5220 115.3718
L123.4267 115.2765
" />
<path d="M123.4267 115.2765
L123.3315 115.0860
" />
<path d="M123.3315 115.0860
L123.3315 114.5146
" />
<path d="M123.3315 114.5146
L123.4267 114.3241
" />
<path d="M123.4267 114.3241
L123.5220 114.2289
" />
<path d="M123.5220 114.2289
L123.7125 114.1337
" />
<path d="M123.7125 114.1337
L123.9982 114.1337
" />
<path d="M123.9982 114.1337
L124.1887 114.2289
" />
<path d="M124.1887 114.2289
L124.2839 114.3241
" />
<path d="M124.2839 114.3241
L124.3791 114.5146
" />
<path d="M124.3791 114.5146
L124.3791 115.0860
" />
<path d="M124.3791 115.0860
L124.2839 115.2765
" />
<path d="M124.2839 115.2765
L124.1887 115.3718
" />
<path d="M124.1887 115.3718
L123.9982 115.4670
" />
<path d="M123.9982 115.4670
L123.7125 115.4670
" />
<path d="M125.5220 115.4670
L125.3315 115.3718
" />
<path d="M125.3315 115.3718
L125.2363 115.1813
" />
<path d="M125.2363 115.1813
L125.2363 113.4670
" />
<path d="M127.0458 115.3718
L126.8553 115.4670
" />
<path d="M126.8553 115.4670
L126.4744 115.4670
" />
<path d="M126.4744 115.4670
L126.2839 115.3718
" />
<path d="M126.2839 115.3718
L126.1887 115.1813
" />
<path d="M126.1887 115.1813
L126.1887 114.4194
" />
<path d="M126.1887 114.4194
L126.2839 114.2289
" />
<path d="M126.2839 114.2289
L126.4744 114.1337
" />
<path d="M126.4744 114.1337
L126.8553 114.1337
" />
<path d="M126.8553 114.1337
L127.0458 114.2289
" />
<path d="M127.0458 114.2289
L127.1410 114.4194
" />
<path d="M127.1410 114.4194
L127.1410 114.6099
" />
<path d="M127.1410 114.6099
L126.1887 114.8003
" />
<path d="M127.9029 115.3718
L128.0934 115.4670
" />
<path d="M128.0934 115.4670
L128.4744 115.4670
" />
<path d="M128.4744 115.4670
L128.6648 115.3718
" />
<path d="M128.6648 115.3718
L128.7601 115.1813
" />
<path d="M128.7601 115.1813
L128.7601 115.0860
" />
<path d="M128.7601 115.0860
L128.6648 114.8956
" />
<path d="M128.6648 114.8956
L128.4744 114.8003
" />
<path d="M128.4744 114.8003
L128.1887 114.8003
" />
<path d="M128.1887 114.8003
L127.9982 114.7051
" />
<path d="M127.9982 114.7051
L127.9029 114.5146
" />
<path d="M127.9029 114.5146
L127.9029 114.4194
" />
<path d="M127.9029 114.4194
L127.9982 114.2289
" />
<path d="M127.9982 114.2289
L128.1887 114.1337
" />
<path d="M128.1887 114.1337
L128.4744 114.1337
" />
<path d="M128.4744 114.1337
L128.6648 114.2289
" />
<path d="M129.4268 116.2289
L129.5220 116.1337
" />
<path d="M129.5220 116.1337
L129.7125 115.8480
" />
<path d="M129.7125 115.8480
L129.8077 115.6575
" />
<path d="M129.8077 115.6575
L129.9029 115.3718
" />
<path d="M129.9029 115.3718
L129.9982 114.8956
" />
<path d="M129.9982 114.8956
L129.9982 114.5146
" />
<path d="M129.9982 114.5146
L129.9029 114.0384
" />
<path d="M129.9029 114.0384
L129.8077 113.7527
" />
<path d="M129.8077 113.7527
L129.7125 113.5622
" />
<path d="M129.7125 113.5622
L129.5220 113.2765
" />
<path d="M129.5220 113.2765
L129.4268 113.1813
" />
</g></g>
<g style="fill:#000000; fill-opacity:0.0; 
stroke:#000000; stroke-width:0.2000; stroke-opacity:1; 
stroke-linecap:round; stroke-linejoin:round;">
<circle cx="80.6761" cy="117.7522" r="1.0000" /> 
</g>
<g style="fill:#000000; fill-opacity:0.0; 
stroke:#000000; stroke-width:0.6000; stroke-opacity:1; 
stroke-linecap:round; stroke-linejoin:round;">
</g>
<g style="fill:#000000; fill-opacity:0.0; 
stroke:#000000; stroke-width:0.2000; stroke-opacity:1; 
stroke-linecap:round; stroke-linejoin:round;">
<text x="83.6761" y="118.7522"
textLength="48.7715" font-size="2.6667" lengthAdjust="spacingAndGlyphs"
text-anchor="start" opacity="0">1.000mm / 0.0394" (36 holes)</text>
<g class="stroked-text"><desc>1.000mm / 0.0394" (36 holes)</desc>
<path d="M85.3315 118.6670
L84.1886 118.6670
" />
<path d="M84.7601 118.6670
L84.7601 116.6670
" />
<path d="M84.7601 116.6670
L84.5696 116.9527
" />
<path d="M84.5696 116.9527
L84.3791 117.1432
" />
<path d="M84.3791 117.1432
L84.1886 117.2384
" />
<path d="M86.1886 118.4765
L86.2839 118.5718
" />
<path d="M86.2839 118.5718
L86.1886 118.6670
" />
<path d="M86.1886 118.6670
L86.0934 118.5718
" />
<path d="M86.0934 118.5718
L86.1886 118.4765
" />
<path d="M86.1886 118.4765
L86.1886 118.6670
" />
<path d="M87.5220 116.6670
L87.7124 116.6670
" />
<path d="M87.7124 116.6670
L87.9029 116.7622
" />
<path d="M87.9029 116.7622
L87.9982 116.8575
" />
<path d="M87.9982 116.8575
L88.0934 117.0480
" />
<path d="M88.0934 117.0480
L88.1886 117.4289
" />
<path d="M88.1886 117.4289
L88.1886 117.9051
" />
<path d="M88.1886 117.9051
L88.0934 118.2860
" />
<path d="M88.0934 118.2860
L87.9982 118.4765
" />
<path d="M87.9982 118.4765
L87.9029 118.5718
" />
<path d="M87.9029 118.5718
L87.7124 118.6670
" />
<path d="M87.7124 118.6670
L87.5220 118.6670
" />
<path d="M87.5220 118.6670
L87.3315 118.5718
" />
<path d="M87.3315 118.5718
L87.2362 118.4765
" />
<path d="M87.2362 118.4765
L87.1410 118.2860
" />
<path d="M87.1410 118.2860
L87.0458 117.9051
" />
<path d="M87.0458 117.9051
L87.0458 117.4289
" />
<path d="M87.0458 117.4289
L87.1410 117.0480
" />
<path d="M87.1410 117.0480
L87.2362 116.8575
" />
<path d="M87.2362 116.8575
L87.3315 116.7622
" />
<path d="M87.3315 116.7622
L87.5220 116.6670
" />
<path d="M89.4267 116.6670
L89.6172 116.6670
" />
<path d="M89.6172 116.6670
L89.8077 116.7622
" />
<path d="M89.8077 116.7622
L89.9029 116.8575
" />
<path d="M89.9029 116.8575
L89.9982 117.0480
" />
<path d="M89.9982 117.0480
L90.0934 117.4289
" />
<path d="M90.0934 117.4289
L90.0934 117.9051
" />
<path d="M90.0934 117.9051
L89.9982 118.2860
" />
<path d="M89.9982 118.2860
L89.9029 118.4765
" />
<path d="M89.9029 118.4765
L89.8077 118.5718
" />
<path d="M89.8077 118.5718
L89.6172 118.6670
" />
<path d="M89.6172 118.6670
L89.4267 118.6670
" />
<path d="M89.4267 118.6670
L89.2363 118.5718
" />
<path d="M89.2363 118.5718
L89.1410 118.4765
" />
<path d="M89.1410 118.4765
L89.0458 118.2860
" />
<path d="M89.0458 118.2860
L88.9505 117.9051
" />
<path d="M88.9505 117.9051
L88.9505 117.4289
" />
<path d="M88.9505 117.4289
L89.0458 117.0480
" />
<path d="M89.0458 117.0480
L89.1410 116.8575
" />
<path d="M89.1410 116.8575
L89.2363 116.7622
" />
<path d="M89.2363 116.7622
L89.4267 116.6670
" />
<path d="M91.3315 116.6670
L91.5220 116.6670
" />
<path d="M91.5220 116.6670
L91.7124 116.7622
" />
<path d="M91.7124 116.7622
L91.8077 116.8575
" />
<path d="M91.8077 116.8575
L91.9029 117.0480
" />
<path d="M91.9029 117.0480
L91.9982 117.4289
" />
<path d="M91.9982 117.4289
L91.9982 117.9051
" />
<path d="M91.9982 117.9051
L91.9029 118.2860
" />
<path d="M91.9029 118.2860
L91.8077 118.4765
" />
<path d="M91.8077 118.4765
L91.7124 118.5718
" />
<path d="M91.7124 118.5718
L91.5220 118.6670
" />
<path d="M91.5220 118.6670
L91.3315 118.6670
" />
<path d="M91.3315 118.6670
L91.1410 118.5718
" />
<path d="M91.1410 118.5718
L91.0458 118.4765
" />
<path d="M91.0458 118.4765
L90.9505 118.2860
" />
<path d="M90.9505 118.2860
L90.8553 117.9051
" />
<path d="M90.8553 117.9051
L90.8553 117.4289
" />
<path d="M90.8553 117.4289
L90.9505 117.0480
" />
<path d="M90.9505 117.0480
L91.0458 116.8575
" />
<path d="M91.0458 116.8575
L91.1410 116.7622
" />
<path d="M91.1410 116.7622
L91.3315 116.6670
" />
<path d="M92.8553 118.6670
L92.8553 117.3337
" />
<path d="M92.8553 117.5241
L92.9505 117.4289
" />
<path d="M92.9505 117.4289
L93.1410 117.3337
" />
<path d="M93.1410 117.3337
L93.4267 117.3337
" />
<path d="M93.4267 117.3337
L93.6172 117.4289
" />
<path d="M93.6172 117.4289
L93.7124 117.6194
" />
<path d="M93.7124 117.6194
L93.7124 118.6670
" />
<path d="M93.7124 117.6194
L93.8077 117.4289
" />
<path d="M93.8077 117.4289
L93.9982 117.3337
" />
<path d="M93.9982 117.3337
L94.2839 117.3337
" />
<path d="M94.2839 117.3337
L94.4744 117.4289
" />
<path d="M94.4744 117.4289
L94.5696 117.6194
" />
<path d="M94.5696 117.6194
L94.5696 118.6670
" />
<path d="M95.5220 118.6670
L95.5220 117.3337
" />
<path d="M95.5220 117.5241
L95.6172 117.4289
" />
<path d="M95.6172 117.4289
L95.8077 117.3337
" />
<path d="M95.8077 117.3337
L96.0934 117.3337
" />
<path d="M96.0934 117.3337
L96.2839 117.4289
" />
<path d="M96.2839 117.4289
L96.3791 117.6194
" />
<path d="M96.3791 117.6194
L96.3791 118.6670
" />
<path d="M96.3791 117.6194
L96.4743 117.4289
" />
<path d="M96.4743 117.4289
L96.6648 117.3337
" />
<path d="M96.6648 117.3337
L96.9505 117.3337
" />
<path d="M96.9505 117.3337
L97.1410 117.4289
" />
<path d="M97.1410 117.4289
L97.2363 117.6194
" />
<path d="M97.2363 117.6194
L97.2363 118.6670
" />
<path d="M101.1410 116.5718
L99.4267 119.1432
" />
<path d="M103.7124 116.6670
L103.9029 116.6670
" />
<path d="M103.9029 116.6670
L104.0934 116.7622
" />
<path d="M104.0934 116.7622
L104.1886 116.8575
" />
<path d="M104.1886 116.8575
L104.2839 117.0480
" />
<path d="M104.2839 117.0480
L104.3791 117.4289
" />
<path d="M104.3791 117.4289
L104.3791 117.9051
" />
<path d="M104.3791 117.9051
L104.2839 118.2860
" />
<path d="M104.2839 118.2860
L104.1886 118.4765
" />
<path d="M104.1886 118.4765
L104.0934 118.5718
" />
<path d="M104.0934 118.5718
L103.9029 118.6670
" />
<path d="M103.9029 118.6670
L103.7124 118.6670
" />
<path d="M103.7124 118.6670
L103.5220 118.5718
" />
<path d="M103.5220 118.5718
L103.4267 118.4765
" />
<path d="M103.4267 118.4765
L103.3315 118.2860
" />
<path d="M103.3315 118.2860
L103.2363 117.9051
" />
<path d="M103.2363 117.9051
L103.2363 117.4289
" />
<path d="M103.2363 117.4289
L103.3315 117.0480
" />
<path d="M103.3315 117.0480
L103.4267 116.8575
" />
<path d="M103.4267 116.8575
L103.5220 116.7622
" />
<path d="M103.5220 116.7622
L103.7124 116.6670
" />
<path d="M105.2363 118.4765
L105.3315 118.5718
" />
<path d="M105.3315 118.5718
L105.2363 118.6670
" />
<path d="M105.2363 118.6670
L105.1410 118.5718
" />
<path d="M105.1410 118.5718
L105.2363 118.4765
" />
<path d="M105.2363 118.4765
L105.2363 118.6670
" />
<path d="M106.5696 116.6670
L106.7601 116.6670
" />
<path d="M106.7601 116.6670
L106.9505 116.7622
" />
<path d="M106.9505 116.7622
L107.0458 116.8575
" />
<path d="M107.0458 116.8575
L107.1410 117.0480
" />
<path d="M107.1410 117.0480
L107.2363 117.4289
" />
<path d="M107.2363 117.4289
L107.2363 117.9051
" />
<path d="M107.2363 117.9051
L107.1410 118.2860
" />
<path d="M107.1410 118.2860
L107.0458 118.4765
" />
<path d="M107.0458 118.4765
L106.9505 118.5718
" />
<path d="M106.9505 118.5718
L106.7601 118.6670
" />
<path d="M106.7601 118.6670
L106.5696 118.6670
" />
<path d="M106.5696 118.6670
L106.3791 118.5718
" />
<path d="M106.3791 118.5718
L106.2839 118.4765
" />
<path d="M106.2839 118.4765
L106.1886 118.2860
" />
<path d="M106.1886 118.2860
L106.0934 117.9051
" />
<path d="M106.0934 117.9051
L106.0934 117.4289
" />
<path d="M106.0934 117.4289
L106.1886 117.0480
" />
<path d="M106.1886 117.0480
L106.2839 116.8575
" />
<path d="M106.2839 116.8575
L106.3791 116.7622
" />
<path d="M106.3791 116.7622
L106.5696 116.6670
" />
<path d="M107.9029 116.6670
L109.1410 116.6670
" />
<path d="M109.1410 116.6670
L108.4744 117.4289
" />
<path d="M108.4744 117.4289
L108.7601 117.4289
" />
<path d="M108.7601 117.4289
L108.9505 117.5241
" />
<path d="M108.9505 117.5241
L109.0458 117.6194
" />
<path d="M109.0458 117.6194
L109.1410 117.8099
" />
<path d="M109.1410 117.8099
L109.1410 118.2860
" />
<path d="M109.1410 118.2860
L109.0458 118.4765
" />
<path d="M109.0458 118.4765
L108.9505 118.5718
" />
<path d="M108.9505 118.5718
L108.7601 118.6670
" />
<path d="M108.7601 118.6670
L108.1886 118.6670
" />
<path d="M108.1886 118.6670
L107.9982 118.5718
" />
<path d="M107.9982 118.5718
L107.9029 118.4765
" />
<path d="M110.0934 118.6670
L110.4744 118.6670
" />
<path d="M110.4744 118.6670
L110.6648 118.5718
" />
<path d="M110.6648 118.5718
L110.7601 118.4765
" />
<path d="M110.7601 118.4765
L110.9505 118.1908
" />
<path d="M110.9505 118.1908
L111.0458 117.8099
" />
<path d="M111.0458 117.8099
L111.0458 117.0480
" />
<path d="M111.0458 117.0480
L110.9505 116.8575
" />
<path d="M110.9505 116.8575
L110.8553 116.7622
" />
<path d="M110.8553 116.7622
L110.6648 116.6670
" />
<path d="M110.6648 116.6670
L110.2839 116.6670
" />
<path d="M110.2839 116.6670
L110.0934 116.7622
" />
<path d="M110.0934 116.7622
L109.9982 116.8575
" />
<path d="M109.9982 116.8575
L109.9029 117.0480
" />
<path d="M109.9029 117.0480
L109.9029 117.5241
" />
<path d="M109.9029 117.5241
L109.9982 117.7146
" />
<path d="M109.9982 117.7146
L110.0934 117.8099
" />
<path d="M110.0934 117.8099
L110.2839 117.9051
" />
<path d="M110.2839 117.9051
L110.6648 117.9051
" />
<path d="M110.6648 117.9051
L110.8553 117.8099
" />
<path d="M110.8553 117.8099
L110.9505 117.7146
" />
<path d="M110.9505 117.7146
L111.0458 117.5241
" />
<path d="M112.7601 117.3337
L112.7601 118.6670
" />
<path d="M112.2839 116.5718
L111.8077 118.0003
" />
<path d="M111.8077 118.0003
L113.0458 118.0003
" />
<path d="M113.7125 116.6670
L113.7125 117.0480
" />
<path d="M114.4744 116.6670
L114.4744 117.0480
" />
<path d="M117.4267 119.4289
L117.3315 119.3337
" />
<path d="M117.3315 119.3337
L117.1410 119.0480
" />
<path d="M117.1410 119.0480
L117.0458 118.8575
" />
<path d="M117.0458 118.8575
L116.9506 118.5718
" />
<path d="M116.9506 118.5718
L116.8553 118.0956
" />
<path d="M116.8553 118.0956
L116.8553 117.7146
" />
<path d="M116.8553 117.7146
L116.9506 117.2384
" />
<path d="M116.9506 117.2384
L117.0458 116.9527
" />
<path d="M117.0458 116.9527
L117.1410 116.7622
" />
<path d="M117.1410 116.7622
L117.3315 116.4765
" />
<path d="M117.3315 116.4765
L117.4267 116.3813
" />
<path d="M117.9982 116.6670
L119.2363 116.6670
" />
<path d="M119.2363 116.6670
L118.5696 117.4289
" />
<path d="M118.5696 117.4289
L118.8553 117.4289
" />
<path d="M118.8553 117.4289
L119.0458 117.5241
" />
<path d="M119.0458 117.5241
L119.1410 117.6194
" />
<path d="M119.1410 117.6194
L119.2363 117.8099
" />
<path d="M119.2363 117.8099
L119.2363 118.2860
" />
<path d="M119.2363 118.2860
L119.1410 118.4765
" />
<path d="M119.1410 118.4765
L119.0458 118.5718
" />
<path d="M119.0458 118.5718
L118.8553 118.6670
" />
<path d="M118.8553 118.6670
L118.2839 118.6670
" />
<path d="M118.2839 118.6670
L118.0934 118.5718
" />
<path d="M118.0934 118.5718
L117.9982 118.4765
" />
<path d="M120.9506 116.6670
L120.5696 116.6670
" />
<path d="M120.5696 116.6670
L120.3791 116.7622
" />
<path d="M120.3791 116.7622
L120.2839 116.8575
" />
<path d="M120.2839 116.8575
L120.0934 117.1432
" />
<path d="M120.0934 117.1432
L119.9982 117.5241
" />
<path d="M119.9982 117.5241
L119.9982 118.2860
" />
<path d="M119.9982 118.2860
L120.0934 118.4765
" />
<path d="M120.0934 118.4765
L120.1886 118.5718
" />
<path d="M120.1886 118.5718
L120.3791 118.6670
" />
<path d="M120.3791 118.6670
L120.7601 118.6670
" />
<path d="M120.7601 118.6670
L120.9506 118.5718
" />
<path d="M120.9506 118.5718
L121.0458 118.4765
" />
<path d="M121.0458 118.4765
L121.1410 118.2860
" />
<path d="M121.1410 118.2860
L121.1410 117.8099
" />
<path d="M121.1410 117.8099
L121.0458 117.6194
" />
<path d="M121.0458 117.6194
L120.9506 117.5241
" />
<path d="M120.9506 117.5241
L120.7601 117.4289
" />
<path d="M120.7601 117.4289
L120.3791 117.4289
" />
<path d="M120.3791 117.4289
L120.1886 117.5241
" />
<path d="M120.1886 117.5241
L120.0934 117.6194
" />
<path d="M120.0934 117.6194
L119.9982 117.8099
" />
<path d="M123.5220 118.6670
L123.5220 116.6670
" />
<path d="M124.3791 118.6670
L124.3791 117.6194
" />
<path d="M124.3791 117.6194
L124.2839 117.4289
" />
<path d="M124.2839 117.4289
L124.0934 117.3337
" />
<path d="M124.0934 117.3337
L123.8077 117.3337
" />
<path d="M123.8077 117.3337
L123.6172 117.4289
" />
<path d="M123.6172 117.4289
L123.5220 117.5241
" />
<path d="M125.6172 118.6670
L125.4267 118.5718
" />
<path d="M125.4267 118.5718
L125.3315 118.4765
" />
<path d="M125.3315 118.4765
L125.2363 118.2860
" />
<path d="M125.2363 118.2860
L125.2363 117.7146
" />
<path d="M125.2363 117.7146
L125.3315 117.5241
" />
<path d="M125.3315 117.5241
L125.4267 117.4289
" />
<path d="M125.4267 117.4289
L125.6172 117.3337
" />
<path d="M125.6172 117.3337
L125.9029 117.3337
" />
<path d="M125.9029 117.3337
L126.0934 117.4289
" />
<path d="M126.0934 117.4289
L126.1887 117.5241
" />
<path d="M126.1887 117.5241
L126.2839 117.7146
" />
<path d="M126.2839 117.7146
L126.2839 118.2860
" />
<path d="M126.2839 118.2860
L126.1887 118.4765
" />
<path d="M126.1887 118.4765
L126.0934 118.5718
" />
<path d="M126.0934 118.5718
L125.9029 118.6670
" />
<path d="M125.9029 118.6670
L125.6172 118.6670
" />
<path d="M127.4267 118.6670
L127.2363 118.5718
" />
<path d="M127.2363 118.5718
L127.1410 118.3813
" />
<path d="M127.1410 118.3813
L127.1410 116.6670
" />
<path d="M128.9506 118.5718
L128.7601 118.6670
" />
<path d="M128.7601 118.6670
L128.3791 118.6670
" />
<path d="M128.3791 118.6670
L128.1887 118.5718
" />
<path d="M128.1887 118.5718
L128.0934 118.3813
" />
<path d="M128.0934 118.3813
L128.0934 117.6194
" />
<path d="M128.0934 117.6194
L128.1887 117.4289
" />
<path d="M128.1887 117.4289
L128.3791 117.3337
" />
<path d="M128.3791 117.3337
L128.7601 117.3337
" />
<path d="M128.7601 117.3337
L128.9506 117.4289
" />
<path d="M128.9506 117.4289
L129.0458 117.6194
" />
<path d="M129.0458 117.6194
L129.0458 117.8099
" />
<path d="M129.0458 117.8099
L128.0934 118.0003
" />
<path d="M129.8077 118.5718
L129.9982 118.6670
" />
<path d="M129.9982 118.6670
L130.3791 118.6670
" />
<path d="M130.3791 118.6670
L130.5696 118.5718
" />
<path d="M130.5696 118.5718
L130.6648 118.3813
" />
<path d="M130.6648 118.3813
L130.6648 118.2860
" />
<path d="M130.6648 118.2860
L130.5696 118.0956
" />
<path d="M130.5696 118.0956
L130.3791 118.0003
" />
<path d="M130.3791 118.0003
L130.0934 118.0003
" />
<path d="M130.0934 118.0003
L129.9029 117.9051
" />
<path d="M129.9029 117.9051
L129.8077 117.7146
" />
<path d="M129.8077 117.7146
L129.8077 117.6194
" />
<path d="M129.8077 117.6194
L129.9029 117.4289
" />
<path d="M129.9029 117.4289
L130.0934 117.3337
" />
<path d="M130.0934 117.3337
L130.3791 117.3337
" />
<path d="M130.3791 117.3337
L130.5696 117.4289
" />
<path d="M131.3315 119.4289
L131.4268 119.3337
" />
<path d="M131.4268 119.3337
L131.6172 119.0480
" />
<path d="M131.6172 119.0480
L131.7125 118.8575
" />
<path d="M131.7125 118.8575
L131.8077 118.5718
" />
<path d="M131.8077 118.5718
L131.9029 118.0956
" />
<path d="M131.9029 118.0956
L131.9029 117.7146
" />
<path d="M131.9029 117.7146
L131.8077 117.2384
" />
<path d="M131.8077 117.2384
L131.7125 116.9527
" />
<path d="M131.7125 116.9527
L131.6172 116.7622
" />
<path d="M131.6172 116.7622
L131.4268 116.4765
" />
<path d="M131.4268 116.4765
L131.3315 116.3813
" />
</g></g>
<g style="fill:#000000; fill-opacity:0.0; 
stroke:#000000; stroke-width:0.2000; stroke-opacity:1; 
stroke-linecap:round; stroke-linejoin:round;">
<path d="M80.6761 119.9522
L80.6761 121.9522
" />
<path d="M79.6761 120.9522
L81.6761 120.9522
" />
</g>
<g style="fill:#000000; fill-opacity:0.0; 
stroke:#000000; stroke-width:0.6000; stroke-opacity:1; 
stroke-linecap:round; stroke-linejoin:round;">
</g>
<g style="fill:#000000; fill-opacity:0.0; 
stroke:#000000; stroke-width:0.2000; stroke-opacity:1; 
stroke-linecap:round; stroke-linejoin:round;">
<text x="83.6761" y="121.9522"
textLength="46.8667" font-size="2.6667" lengthAdjust="spacingAndGlyphs"
text-anchor="start" opacity="0">1.100mm / 0.0433" (4 holes)</text>
<g class="stroked-text"><desc>1.100mm / 0.0433" (4 holes)</desc>
<path d="M85.3315 121.8670
L84.1886 121.8670
" />
<path d="M84.7601 121.8670
L84.7601 119.8670
" />
<path d="M84.7601 119.8670
L84.5696 120.1527
" />
<path d="M84.5696 120.1527
L84.3791 120.3432
" />
<path d="M84.3791 120.3432
L84.1886 120.4384
" />
<path d="M86.1886 121.6765
L86.2839 121.7718
" />
<path d="M86.2839 121.7718
L86.1886 121.8670
" />
<path d="M86.1886 121.8670
L86.0934 121.7718
" />
<path d="M86.0934 121.7718
L86.1886 121.6765
" />
<path d="M86.1886 121.6765
L86.1886 121.8670
" />
<path d="M88.1886 121.8670
L87.0458 121.8670
" />
<path d="M87.6172 121.8670
L87.6172 119.8670
" />
<path d="M87.6172 119.8670
L87.4267 120.1527
" />
<path d="M87.4267 120.1527
L87.2362 120.3432
" />
<path d="M87.2362 120.3432
L87.0458 120.4384
" />
<path d="M89.4267 119.8670
L89.6172 119.8670
" />
<path d="M89.6172 119.8670
L89.8077 119.9622
" />
<path d="M89.8077 119.9622
L89.9029 120.0575
" />
<path d="M89.9029 120.0575
L89.9982 120.2480
" />
<path d="M89.9982 120.2480
L90.0934 120.6289
" />
<path d="M90.0934 120.6289
L90.0934 121.1051
" />
<path d="M90.0934 121.1051
L89.9982 121.4860
" />
<path d="M89.9982 121.4860
L89.9029 121.6765
" />
<path d="M89.9029 121.6765
L89.8077 121.7718
" />
<path d="M89.8077 121.7718
L89.6172 121.8670
" />
<path d="M89.6172 121.8670
L89.4267 121.8670
" />
<path d="M89.4267 121.8670
L89.2363 121.7718
" />
<path d="M89.2363 121.7718
L89.1410 121.6765
" />
<path d="M89.1410 121.6765
L89.0458 121.4860
" />
<path d="M89.0458 121.4860
L88.9505 121.1051
" />
<path d="M88.9505 121.1051
L88.9505 120.6289
" />
<path d="M88.9505 120.6289
L89.0458 120.2480
" />
<path d="M89.0458 120.2480
L89.1410 120.0575
" />
<path d="M89.1410 120.0575
L89.2363 119.9622
" />
<path d="M89.2363 119.9622
L89.4267 119.8670
" />
<path d="M91.3315 119.8670
L91.5220 119.8670
" />
<path d="M91.5220 119.8670
L91.7124 119.9622
" />
<path d="M91.7124 119.9622
L91.8077 120.0575
" />
<path d="M91.8077 120.0575
L91.9029 120.2480
" />
<path d="M91.9029 120.2480
L91.9982 120.6289
" />
<path d="M91.9982 120.6289
L91.9982 121.1051
" />
<path d="M91.9982 121.1051
L91.9029 121.4860
" />
<path d="M91.9029 121.4860
L91.8077 121.6765
" />
<path d="M91.8077 121.6765
L91.7124 121.7718
" />
<path d="M91.7124 121.7718
L91.5220 121.8670
" />
<path d="M91.5220 121.8670
L91.3315 121.8670
" />
<path d="M91.3315 121.8670
L91.1410 121.7718
" />
<path d="M91.1410 121.7718
L91.0458 121.6765
" />
<path d="M91.0458 121.6765
L90.9505 121.4860
" />
<path d="M90.9505 121.4860
L90.8553 121.1051
" />
<path d="M90.8553 121.1051
L90.8553 120.6289
" />
<path d="M90.8553 120.6289
L90.9505 120.2480
" />
<path d="M90.9505 120.2480
L91.0458 120.0575
" />
<path d="M91.0458 120.0575
L91.1410 119.9622
" />
<path d="M91.1410 119.9622
L91.3315 119.8670
" />
<path d="M92.8553 121.8670
L92.8553 120.5337
" />
<path d="M92.8553 120.7241
L92.9505 120.6289
" />
<path d="M92.9505 120.6289
L93.1410 120.5337
" />
<path d="M93.1410 120.5337
L93.4267 120.5337
" />
<path d="M93.4267 120.5337
L93.6172 120.6289
" />
<path d="M93.6172 120.6289
L93.7124 120.8194
" />
<path d="M93.7124 120.8194
L93.7124 121.8670
" />
<path d="M93.7124 120.8194
L93.8077 120.6289
" />
<path d="M93.8077 120.6289
L93.9982 120.5337
" />
<path d="M93.9982 120.5337
L94.2839 120.5337
" />
<path d="M94.2839 120.5337
L94.4744 120.6289
" />
<path d="M94.4744 120.6289
L94.5696 120.8194
" />
<path d="M94.5696 120.8194
L94.5696 121.8670
" />
<path d="M95.5220 121.8670
L95.5220 120.5337
" />
<path d="M95.5220 120.7241
L95.6172 120.6289
" />
<path d="M95.6172 120.6289
L95.8077 120.5337
" />
<path d="M95.8077 120.5337
L96.0934 120.5337
" />
<path d="M96.0934 120.5337
L96.2839 120.6289
" />
<path d="M96.2839 120.6289
L96.3791 120.8194
" />
<path d="M96.3791 120.8194
L96.3791 121.8670
" />
<path d="M96.3791 120.8194
L96.4743 120.6289
" />
<path d="M96.4743 120.6289
L96.6648 120.5337
" />
<path d="M96.6648 120.5337
L96.9505 120.5337
" />
<path d="M96.9505 120.5337
L97.1410 120.6289
" />
<path d="M97.1410 120.6289
L97.2363 120.8194
" />
<path d="M97.2363 120.8194
L97.2363 121.8670
" />
<path d="M101.1410 119.7718
L99.4267 122.3432
" />
<path d="M103.7124 119.8670
L103.9029 119.8670
" />
<path d="M103.9029 119.8670
L104.0934 119.9622
" />
<path d="M104.0934 119.9622
L104.1886 120.0575
" />
<path d="M104.1886 120.0575
L104.2839 120.2480
" />
<path d="M104.2839 120.2480
L104.3791 120.6289
" />
<path d="M104.3791 120.6289
L104.3791 121.1051
" />
<path d="M104.3791 121.1051
L104.2839 121.4860
" />
<path d="M104.2839 121.4860
L104.1886 121.6765
" />
<path d="M104.1886 121.6765
L104.0934 121.7718
" />
<path d="M104.0934 121.7718
L103.9029 121.8670
" />
<path d="M103.9029 121.8670
L103.7124 121.8670
" />
<path d="M103.7124 121.8670
L103.5220 121.7718
" />
<path d="M103.5220 121.7718
L103.4267 121.6765
" />
<path d="M103.4267 121.6765
L103.3315 121.4860
" />
<path d="M103.3315 121.4860
L103.2363 121.1051
" />
<path d="M103.2363 121.1051
L103.2363 120.6289
" />
<path d="M103.2363 120.6289
L103.3315 120.2480
" />
<path d="M103.3315 120.2480
L103.4267 120.0575
" />
<path d="M103.4267 120.0575
L103.5220 119.9622
" />
<path d="M103.5220 119.9622
L103.7124 119.8670
" />
<path d="M105.2363 121.6765
L105.3315 121.7718
" />
<path d="M105.3315 121.7718
L105.2363 121.8670
" />
<path d="M105.2363 121.8670
L105.1410 121.7718
" />
<path d="M105.1410 121.7718
L105.2363 121.6765
" />
<path d="M105.2363 121.6765
L105.2363 121.8670
" />
<path d="M106.5696 119.8670
L106.7601 119.8670
" />
<path d="M106.7601 119.8670
L106.9505 119.9622
" />
<path d="M106.9505 119.9622
L107.0458 120.0575
" />
<path d="M107.0458 120.0575
L107.1410 120.2480
" />
<path d="M107.1410 120.2480
L107.2363 120.6289
" />
<path d="M107.2363 120.6289
L107.2363 121.1051
" />
<path d="M107.2363 121.1051
L107.1410 121.4860
" />
<path d="M107.1410 121.4860
L107.0458 121.6765
" />
<path d="M107.0458 121.6765
L106.9505 121.7718
" />
<path d="M106.9505 121.7718
L106.7601 121.8670
" />
<path d="M106.7601 121.8670
L106.5696 121.8670
" />
<path d="M106.5696 121.8670
L106.3791 121.7718
" />
<path d="M106.3791 121.7718
L106.2839 121.6765
" />
<path d="M106.2839 121.6765
L106.1886 121.4860
" />
<path d="M106.1886 121.4860
L106.0934 121.1051
" />
<path d="M106.0934 121.1051
L106.0934 120.6289
" />
<path d="M106.0934 120.6289
L106.1886 120.2480
" />
<path d="M106.1886 120.2480
L106.2839 120.0575
" />
<path d="M106.2839 120.0575
L106.3791 119.9622
" />
<path d="M106.3791 119.9622
L106.5696 119.8670
" />
<path d="M108.9505 120.5337
L108.9505 121.8670
" />
<path d="M108.4744 119.7718
L107.9982 121.2003
" />
<path d="M107.9982 121.2003
L109.2363 121.2003
" />
<path d="M109.8077 119.8670
L111.0458 119.8670
" />
<path d="M111.0458 119.8670
L110.3791 120.6289
" />
<path d="M110.3791 120.6289
L110.6648 120.6289
" />
<path d="M110.6648 120.6289
L110.8553 120.7241
" />
<path d="M110.8553 120.7241
L110.9505 120.8194
" />
<path d="M110.9505 120.8194
L111.0458 121.0099
" />
<path d="M111.0458 121.0099
L111.0458 121.4860
" />
<path d="M111.0458 121.4860
L110.9505 121.6765
" />
<path d="M110.9505 121.6765
L110.8553 121.7718
" />
<path d="M110.8553 121.7718
L110.6648 121.8670
" />
<path d="M110.6648 121.8670
L110.0934 121.8670
" />
<path d="M110.0934 121.8670
L109.9029 121.7718
" />
<path d="M109.9029 121.7718
L109.8077 121.6765
" />
<path d="M111.7125 119.8670
L112.9505 119.8670
" />
<path d="M112.9505 119.8670
L112.2839 120.6289
" />
<path d="M112.2839 120.6289
L112.5696 120.6289
" />
<path d="M112.5696 120.6289
L112.7601 120.7241
" />
<path d="M112.7601 120.7241
L112.8553 120.8194
" />
<path d="M112.8553 120.8194
L112.9505 121.0099
" />
<path d="M112.9505 121.0099
L112.9505 121.4860
" />
<path d="M112.9505 121.4860
L112.8553 121.6765
" />
<path d="M112.8553 121.6765
L112.7601 121.7718
" />
<path d="M112.7601 121.7718
L112.5696 121.8670
" />
<path d="M112.5696 121.8670
L111.9982 121.8670
" />
<path d="M111.9982 121.8670
L111.8077 121.7718
" />
<path d="M111.8077 121.7718
L111.7125 121.6765
" />
<path d="M113.7125 119.8670
L113.7125 120.2480
" />
<path d="M114.4744 119.8670
L114.4744 120.2480
" />
<path d="M117.4267 122.6289
L117.3315 122.5337
" />
<path d="M117.3315 122.5337
L117.1410 122.2480
" />
<path d="M117.1410 122.2480
L117.0458 122.0575
" />
<path d="M117.0458 122.0575
L116.9506 121.7718
" />
<path d="M116.9506 121.7718
L116.8553 121.2956
" />
<path d="M116.8553 121.2956
L116.8553 120.9146
" />
<path d="M116.8553 120.9146
L116.9506 120.4384
" />
<path d="M116.9506 120.4384
L117.0458 120.1527
" />
<path d="M117.0458 120.1527
L117.1410 119.9622
" />
<path d="M117.1410 119.9622
L117.3315 119.6765
" />
<path d="M117.3315 119.6765
L117.4267 119.5813
" />
<path d="M119.0458 120.5337
L119.0458 121.8670
" />
<path d="M118.5696 119.7718
L118.0934 121.2003
" />
<path d="M118.0934 121.2003
L119.3315 121.2003
" />
<path d="M121.6172 121.8670
L121.6172 119.8670
" />
<path d="M122.4744 121.8670
L122.4744 120.8194
" />
<path d="M122.4744 120.8194
L122.3791 120.6289
" />
<path d="M122.3791 120.6289
L122.1886 120.5337
" />
<path d="M122.1886 120.5337
L121.9029 120.5337
" />
<path d="M121.9029 120.5337
L121.7125 120.6289
" />
<path d="M121.7125 120.6289
L121.6172 120.7241
" />
<path d="M123.7125 121.8670
L123.5220 121.7718
" />
<path d="M123.5220 121.7718
L123.4267 121.6765
" />
<path d="M123.4267 121.6765
L123.3315 121.4860
" />
<path d="M123.3315 121.4860
L123.3315 120.9146
" />
<path d="M123.3315 120.9146
L123.4267 120.7241
" />
<path d="M123.4267 120.7241
L123.5220 120.6289
" />
<path d="M123.5220 120.6289
L123.7125 120.5337
" />
<path d="M123.7125 120.5337
L123.9982 120.5337
" />
<path d="M123.9982 120.5337
L124.1887 120.6289
" />
<path d="M124.1887 120.6289
L124.2839 120.7241
" />
<path d="M124.2839 120.7241
L124.3791 120.9146
" />
<path d="M124.3791 120.9146
L124.3791 121.4860
" />
<path d="M124.3791 121.4860
L124.2839 121.6765
" />
<path d="M124.2839 121.6765
L124.1887 121.7718
" />
<path d="M124.1887 121.7718
L123.9982 121.8670
" />
<path d="M123.9982 121.8670
L123.7125 121.8670
" />
<path d="M125.5220 121.8670
L125.3315 121.7718
" />
<path d="M125.3315 121.7718
L125.2363 121.5813
" />
<path d="M125.2363 121.5813
L125.2363 119.8670
" />
<path d="M127.0458 121.7718
L126.8553 121.8670
" />
<path d="M126.8553 121.8670
L126.4744 121.8670
" />
<path d="M126.4744 121.8670
L126.2839 121.7718
" />
<path d="M126.2839 121.7718
L126.1887 121.5813
" />
<path d="M126.1887 121.5813
L126.1887 120.8194
" />
<path d="M126.1887 120.8194
L126.2839 120.6289
" />
<path d="M126.2839 120.6289
L126.4744 120.5337
" />
<path d="M126.4744 120.5337
L126.8553 120.5337
" />
<path d="M126.8553 120.5337
L127.0458 120.6289
" />
<path d="M127.0458 120.6289
L127.1410 120.8194
" />
<path d="M127.1410 120.8194
L127.1410 121.0099
" />
<path d="M127.1410 121.0099
L126.1887 121.2003
" />
<path d="M127.9029 121.7718
L128.0934 121.8670
" />
<path d="M128.0934 121.8670
L128.4744 121.8670
" />
<path d="M128.4744 121.8670
L128.6648 121.7718
" />
<path d="M128.6648 121.7718
L128.7601 121.5813
" />
<path d="M128.7601 121.5813
L128.7601 121.4860
" />
<path d="M128.7601 121.4860
L128.6648 121.2956
" />
<path d="M128.6648 121.2956
L128.4744 121.2003
" />
<path d="M128.4744 121.2003
L128.1887 121.2003
" />
<path d="M128.1887 121.2003
L127.9982 121.1051
" />
<path d="M127.9982 121.1051
L127.9029 120.9146
" />
<path d="M127.9029 120.9146
L127.9029 120.8194
" />
<path d="M127.9029 120.8194
L127.9982 120.6289
" />
<path d="M127.9982 120.6289
L128.1887 120.5337
" />
<path d="M128.1887 120.5337
L128.4744 120.5337
" />
<path d="M128.4744 120.5337
L128.6648 120.6289
" />
<path d="M129.4268 122.6289
L129.5220 122.5337
" />
<path d="M129.5220 122.5337
L129.7125 122.2480
" />
<path d="M129.7125 122.2480
L129.8077 122.0575
" />
<path d="M129.8077 122.0575
L129.9029 121.7718
" />
<path d="M129.9029 121.7718
L129.9982 121.2956
" />
<path d="M129.9982 121.2956
L129.9982 120.9146
" />
<path d="M129.9982 120.9146
L129.9029 120.4384
" />
<path d="M129.9029 120.4384
L129.8077 120.1527
" />
<path d="M129.8077 120.1527
L129.7125 119.9622
" />
<path d="M129.7125 119.9622
L129.5220 119.6765
" />
<path d="M129.5220 119.6765
L129.4268 119.5813
" />
</g></g> 
</svg>
