<?xml version="1.0" standalone="no"?>
 <!DOCTYPE svg PUBLIC "-//W3C//DTD SVG 1.1//EN" 
 "http://www.w3.org/Graphics/SVG/1.1/DTD/svg11.dtd"> 
<svg
  xmlns:svg="http://www.w3.org/2000/svg"
  xmlns="http://www.w3.org/2000/svg"
  xmlns:xlink="http://www.w3.org/1999/xlink"
  version="1.1"
  width="297.0022mm" height="210.0072mm" viewBox="0.0000 0.0000 297.0022 210.0072">
<title>SVG Image created as SAL-FP_Keyboard-LogicBoard-NPTH-drl_map.svg date 2023/10/13 00:14:28 </title>
  <desc>Image generated by PCBNEW </desc>
<g style="fill:#000000; fill-opacity:1.0000;stroke:#000000; stroke-opacity:1.0000;
stroke-linecap:round; stroke-linejoin:round;"
 transform="translate(0 0) scale(1 1)">
</g>
<g style="fill:#000000; fill-opacity:0.0; 
stroke:#000000; stroke-width:0.0000; stroke-opacity:1; 
stroke-linecap:round; stroke-linejoin:round;">
</g>
<g style="fill:#000000; fill-opacity:0.0; 
stroke:#000000; stroke-width:0.3000; stroke-opacity:1; 
stroke-linecap:round; stroke-linejoin:round;">
<path style="fill:#000000; fill-opacity:0.0; 
stroke:#000000; stroke-width:0.3000; stroke-opacity:1; 
stroke-linecap:round; stroke-linejoin:round;fill:none"
d="M 215.1761,108.0022
81.8261,108.0022
81.8261,107.9602
81.8261,43.9522
81.8261,18.0022
215.1761,18.0022
Z" /> 
</g>
<g style="fill:#000000; fill-opacity:0.0; 
stroke:#000000; stroke-width:0.6000; stroke-opacity:1; 
stroke-linecap:round; stroke-linejoin:round;">
</g>
<g style="fill:#000000; fill-opacity:0.0; 
stroke:#000000; stroke-width:0.2000; stroke-opacity:1; 
stroke-linecap:round; stroke-linejoin:round;">
<text x="83.6761" y="111.3522"
textLength="14.8667" font-size="2.6667" lengthAdjust="spacingAndGlyphs"
text-anchor="start" opacity="0">Drill Map:</text>
<g class="stroked-text"><desc>Drill Map:</desc>
<path d="M84.2839 111.2670
L84.2839 109.2670
" />
<path d="M84.2839 109.2670
L84.7601 109.2670
" />
<path d="M84.7601 109.2670
L85.0458 109.3622
" />
<path d="M85.0458 109.3622
L85.2362 109.5527
" />
<path d="M85.2362 109.5527
L85.3315 109.7432
" />
<path d="M85.3315 109.7432
L85.4267 110.1241
" />
<path d="M85.4267 110.1241
L85.4267 110.4099
" />
<path d="M85.4267 110.4099
L85.3315 110.7908
" />
<path d="M85.3315 110.7908
L85.2362 110.9813
" />
<path d="M85.2362 110.9813
L85.0458 111.1718
" />
<path d="M85.0458 111.1718
L84.7601 111.2670
" />
<path d="M84.7601 111.2670
L84.2839 111.2670
" />
<path d="M86.2839 111.2670
L86.2839 109.9337
" />
<path d="M86.2839 110.3146
L86.3791 110.1241
" />
<path d="M86.3791 110.1241
L86.4743 110.0289
" />
<path d="M86.4743 110.0289
L86.6648 109.9337
" />
<path d="M86.6648 109.9337
L86.8553 109.9337
" />
<path d="M87.5220 111.2670
L87.5220 109.9337
" />
<path d="M87.5220 109.2670
L87.4267 109.3622
" />
<path d="M87.4267 109.3622
L87.5220 109.4575
" />
<path d="M87.5220 109.4575
L87.6172 109.3622
" />
<path d="M87.6172 109.3622
L87.5220 109.2670
" />
<path d="M87.5220 109.2670
L87.5220 109.4575
" />
<path d="M88.7601 111.2670
L88.5696 111.1718
" />
<path d="M88.5696 111.1718
L88.4743 110.9813
" />
<path d="M88.4743 110.9813
L88.4743 109.2670
" />
<path d="M89.8077 111.2670
L89.6172 111.1718
" />
<path d="M89.6172 111.1718
L89.5220 110.9813
" />
<path d="M89.5220 110.9813
L89.5220 109.2670
" />
<path d="M92.0934 111.2670
L92.0934 109.2670
" />
<path d="M92.0934 109.2670
L92.7601 110.6956
" />
<path d="M92.7601 110.6956
L93.4267 109.2670
" />
<path d="M93.4267 109.2670
L93.4267 111.2670
" />
<path d="M95.2363 111.2670
L95.2363 110.2194
" />
<path d="M95.2363 110.2194
L95.1410 110.0289
" />
<path d="M95.1410 110.0289
L94.9505 109.9337
" />
<path d="M94.9505 109.9337
L94.5696 109.9337
" />
<path d="M94.5696 109.9337
L94.3791 110.0289
" />
<path d="M95.2363 111.1718
L95.0458 111.2670
" />
<path d="M95.0458 111.2670
L94.5696 111.2670
" />
<path d="M94.5696 111.2670
L94.3791 111.1718
" />
<path d="M94.3791 111.1718
L94.2839 110.9813
" />
<path d="M94.2839 110.9813
L94.2839 110.7908
" />
<path d="M94.2839 110.7908
L94.3791 110.6003
" />
<path d="M94.3791 110.6003
L94.5696 110.5051
" />
<path d="M94.5696 110.5051
L95.0458 110.5051
" />
<path d="M95.0458 110.5051
L95.2363 110.4099
" />
<path d="M96.1886 109.9337
L96.1886 111.9337
" />
<path d="M96.1886 110.0289
L96.3791 109.9337
" />
<path d="M96.3791 109.9337
L96.7601 109.9337
" />
<path d="M96.7601 109.9337
L96.9505 110.0289
" />
<path d="M96.9505 110.0289
L97.0458 110.1241
" />
<path d="M97.0458 110.1241
L97.1410 110.3146
" />
<path d="M97.1410 110.3146
L97.1410 110.8860
" />
<path d="M97.1410 110.8860
L97.0458 111.0765
" />
<path d="M97.0458 111.0765
L96.9505 111.1718
" />
<path d="M96.9505 111.1718
L96.7601 111.2670
" />
<path d="M96.7601 111.2670
L96.3791 111.2670
" />
<path d="M96.3791 111.2670
L96.1886 111.1718
" />
<path d="M97.9982 111.0765
L98.0934 111.1718
" />
<path d="M98.0934 111.1718
L97.9982 111.2670
" />
<path d="M97.9982 111.2670
L97.9029 111.1718
" />
<path d="M97.9029 111.1718
L97.9982 111.0765
" />
<path d="M97.9982 111.0765
L97.9982 111.2670
" />
<path d="M97.9982 110.0289
L98.0934 110.1241
" />
<path d="M98.0934 110.1241
L97.9982 110.2194
" />
<path d="M97.9982 110.2194
L97.9029 110.1241
" />
<path d="M97.9029 110.1241
L97.9982 110.0289
" />
<path d="M97.9982 110.0289
L97.9982 110.2194
" />
</g></g> 
</svg>
