M48
; DRILL file {KiCad 7.0.6} date Fri Oct 13 00:14:26 2023
; FORMAT={-:-/ absolute / inch / decimal}
; #@! TF.CreationDate,2023-10-13T00:14:26-07:00
; #@! TF.GenerationSoftware,Kicad,Pcbnew,7.0.6
; #@! TF.FileFunction,Plated,1,2,PTH
FMAT,2
INCH
; #@! TA.AperFunction,Plated,PTH,ComponentDrill
T1C0.0295
; #@! TA.AperFunction,Plated,PTH,ComponentDrill
T2C0.0394
; #@! TA.AperFunction,Plated,PTH,ComponentDrill
T3C0.0433
%
G90
G05
T1
X-1.625Y-0.24
X-1.575Y-0.19
X-1.575Y-0.29
T2
X-1.35Y-0.19
X-1.35Y-0.39
X-1.35Y-0.99
X-1.25Y-0.19
X-1.25Y-0.39
X-1.25Y-0.99
X-1.15Y-0.19
X-1.15Y-0.39
X-1.15Y-0.99
X-1.05Y-0.19
X-1.05Y-0.39
X-1.05Y-0.99
X-0.95Y-0.19
X-0.95Y-0.39
X-0.95Y-0.99
X-0.85Y-0.19
X-0.85Y-0.39
X-0.85Y-0.99
X-0.75Y-0.19
X-0.75Y-0.39
X-0.75Y-0.99
X-0.65Y-0.19
X-0.65Y-0.39
X-0.65Y-0.99
X-0.55Y-0.19
X-0.55Y-0.39
X-0.55Y-0.99
X-0.45Y-0.19
X-0.45Y-0.39
X-0.45Y-0.99
X-0.35Y-0.19
X-0.35Y-0.39
X-0.35Y-0.99
X-0.25Y-0.19
X-0.25Y-0.39
X-0.25Y-0.99
T3
X-1.6886Y-0.562
X-1.6886Y-0.818
X-1.5114Y-0.562
X-1.5114Y-0.818
T0
M30
