%TF.GenerationSoftware,KiCad,Pcbnew,7.0.6*%
%TF.CreationDate,2023-10-13T00:14:17-07:00*%
%TF.ProjectId,SAL-FP_Keyboard-LogicBoard,53414c2d-4650-45f4-9b65-79626f617264,rev?*%
%TF.SameCoordinates,PXaf9e7f0PY6122b30*%
%TF.FileFunction,Soldermask,Top*%
%TF.FilePolarity,Negative*%
%FSLAX46Y46*%
G04 Gerber Fmt 4.6, Leading zero omitted, Abs format (unit mm)*
G04 Created by KiCad (PCBNEW 7.0.6) date 2023-10-13 00:14:17*
%MOMM*%
%LPD*%
G01*
G04 APERTURE LIST*
G04 Aperture macros list*
%AMRoundRect*
0 Rectangle with rounded corners*
0 $1 Rounding radius*
0 $2 $3 $4 $5 $6 $7 $8 $9 X,Y pos of 4 corners*
0 Add a 4 corners polygon primitive as box body*
4,1,4,$2,$3,$4,$5,$6,$7,$8,$9,$2,$3,0*
0 Add four circle primitives for the rounded corners*
1,1,$1+$1,$2,$3*
1,1,$1+$1,$4,$5*
1,1,$1+$1,$6,$7*
1,1,$1+$1,$8,$9*
0 Add four rect primitives between the rounded corners*
20,1,$1+$1,$2,$3,$4,$5,0*
20,1,$1+$1,$4,$5,$6,$7,0*
20,1,$1+$1,$6,$7,$8,$9,0*
20,1,$1+$1,$8,$9,$2,$3,0*%
G04 Aperture macros list end*
%ADD10R,1.700000X1.700000*%
%ADD11O,1.700000X1.700000*%
%ADD12RoundRect,0.325000X0.325000X-0.325000X0.325000X0.325000X-0.325000X0.325000X-0.325000X-0.325000X0*%
%ADD13C,1.300000*%
%ADD14C,2.000000*%
G04 APERTURE END LIST*
D10*
%TO.C,J1*%
X-6350000Y-25146000D03*
D11*
X-8890000Y-25146000D03*
X-11430000Y-25146000D03*
X-13970000Y-25146000D03*
X-16510000Y-25146000D03*
X-19050000Y-25146000D03*
X-21590000Y-25146000D03*
X-24130000Y-25146000D03*
X-26670000Y-25146000D03*
X-29210000Y-25146000D03*
X-31750000Y-25146000D03*
X-34290000Y-25146000D03*
%TD*%
D12*
%TO.C,Q1*%
X-40005000Y-7366000D03*
D13*
X-41275000Y-6096000D03*
X-40005000Y-4826000D03*
%TD*%
D14*
%TO.C,SW1*%
X-38390000Y-14276000D03*
X-38390000Y-20776000D03*
X-42890000Y-14276000D03*
X-42890000Y-20776000D03*
%TD*%
D10*
%TO.C,J2*%
X-6350000Y-9906000D03*
D11*
X-8890000Y-9906000D03*
X-11430000Y-9906000D03*
X-13970000Y-9906000D03*
X-16510000Y-9906000D03*
X-19050000Y-9906000D03*
X-21590000Y-9906000D03*
X-24130000Y-9906000D03*
X-26670000Y-9906000D03*
X-29210000Y-9906000D03*
X-31750000Y-9906000D03*
X-34290000Y-9906000D03*
%TD*%
D10*
%TO.C,J3*%
X-6350000Y-4826000D03*
D11*
X-8890000Y-4826000D03*
X-11430000Y-4826000D03*
X-13970000Y-4826000D03*
X-16510000Y-4826000D03*
X-19050000Y-4826000D03*
X-21590000Y-4826000D03*
X-24130000Y-4826000D03*
X-26670000Y-4826000D03*
X-29210000Y-4826000D03*
X-31750000Y-4826000D03*
X-34290000Y-4826000D03*
%TD*%
M02*
