%TF.GenerationSoftware,KiCad,Pcbnew,7.0.6*%
%TF.CreationDate,2023-10-13T00:14:17-07:00*%
%TF.ProjectId,SAL-FP_Keyboard-LogicBoard,53414c2d-4650-45f4-9b65-79626f617264,rev?*%
%TF.SameCoordinates,PXaf9e7f0PY6122b30*%
%TF.FileFunction,Copper,L2,Bot*%
%TF.FilePolarity,Positive*%
%FSLAX46Y46*%
G04 Gerber Fmt 4.6, Leading zero omitted, Abs format (unit mm)*
G04 Created by KiCad (PCBNEW 7.0.6) date 2023-10-13 00:14:17*
%MOMM*%
%LPD*%
G01*
G04 APERTURE LIST*
G04 Aperture macros list*
%AMRoundRect*
0 Rectangle with rounded corners*
0 $1 Rounding radius*
0 $2 $3 $4 $5 $6 $7 $8 $9 X,Y pos of 4 corners*
0 Add a 4 corners polygon primitive as box body*
4,1,4,$2,$3,$4,$5,$6,$7,$8,$9,$2,$3,0*
0 Add four circle primitives for the rounded corners*
1,1,$1+$1,$2,$3*
1,1,$1+$1,$4,$5*
1,1,$1+$1,$6,$7*
1,1,$1+$1,$8,$9*
0 Add four rect primitives between the rounded corners*
20,1,$1+$1,$2,$3,$4,$5,0*
20,1,$1+$1,$4,$5,$6,$7,0*
20,1,$1+$1,$6,$7,$8,$9,0*
20,1,$1+$1,$8,$9,$2,$3,0*%
G04 Aperture macros list end*
%TA.AperFunction,ComponentPad*%
%ADD10R,1.700000X1.700000*%
%TD*%
%TA.AperFunction,ComponentPad*%
%ADD11O,1.700000X1.700000*%
%TD*%
%TA.AperFunction,ComponentPad*%
%ADD12RoundRect,0.325000X0.325000X-0.325000X0.325000X0.325000X-0.325000X0.325000X-0.325000X-0.325000X0*%
%TD*%
%TA.AperFunction,ComponentPad*%
%ADD13C,1.300000*%
%TD*%
%TA.AperFunction,ComponentPad*%
%ADD14C,2.000000*%
%TD*%
%TA.AperFunction,SMDPad,CuDef*%
%ADD15RoundRect,0.200000X0.275000X-0.200000X0.275000X0.200000X-0.275000X0.200000X-0.275000X-0.200000X0*%
%TD*%
%TA.AperFunction,SMDPad,CuDef*%
%ADD16RoundRect,0.200000X0.200000X0.275000X-0.200000X0.275000X-0.200000X-0.275000X0.200000X-0.275000X0*%
%TD*%
%TA.AperFunction,Conductor*%
%ADD17C,0.660000*%
%TD*%
%TA.AperFunction,Conductor*%
%ADD18C,0.340000*%
%TD*%
%TA.AperFunction,Conductor*%
%ADD19C,0.540000*%
%TD*%
G04 APERTURE END LIST*
D10*
%TO.P,J1,1,Pin_1*%
%TO.N,/RAW*%
X-6350000Y-25146000D03*
D11*
%TO.P,J1,2,Pin_2*%
%TO.N,GND*%
X-8890000Y-25146000D03*
%TO.P,J1,3,Pin_3*%
%TO.N,/RST*%
X-11430000Y-25146000D03*
%TO.P,J1,4,Pin_4*%
%TO.N,unconnected-(J1-Pin_4-Pad4)*%
X-13970000Y-25146000D03*
%TO.P,J1,5,Pin_5*%
%TO.N,/F4*%
X-16510000Y-25146000D03*
%TO.P,J1,6,Pin_6*%
%TO.N,/F5*%
X-19050000Y-25146000D03*
%TO.P,J1,7,Pin_7*%
%TO.N,/F6*%
X-21590000Y-25146000D03*
%TO.P,J1,8,Pin_8*%
%TO.N,/F7*%
X-24130000Y-25146000D03*
%TO.P,J1,9,Pin_9*%
%TO.N,/B1*%
X-26670000Y-25146000D03*
%TO.P,J1,10,Pin_10*%
%TO.N,/B3*%
X-29210000Y-25146000D03*
%TO.P,J1,11,Pin_11*%
%TO.N,/B2*%
X-31750000Y-25146000D03*
%TO.P,J1,12,Pin_12*%
%TO.N,/B6*%
X-34290000Y-25146000D03*
%TD*%
D12*
%TO.P,Q1,1,E*%
%TO.N,GND*%
X-40005000Y-7366000D03*
D13*
%TO.P,Q1,2,B*%
%TO.N,Net-(Q1-B)*%
X-41275000Y-6096000D03*
%TO.P,Q1,3,C*%
%TO.N,/LED1*%
X-40005000Y-4826000D03*
%TD*%
D14*
%TO.P,SW1,1,1*%
%TO.N,/RST*%
X-38390000Y-14276000D03*
X-38390000Y-20776000D03*
%TO.P,SW1,2,2*%
%TO.N,GND*%
X-42890000Y-14276000D03*
X-42890000Y-20776000D03*
%TD*%
D10*
%TO.P,J2,1,Pin_1*%
%TO.N,/D3*%
X-6350000Y-9906000D03*
D11*
%TO.P,J2,2,Pin_2*%
%TO.N,/D2*%
X-8890000Y-9906000D03*
%TO.P,J2,3,Pin_3*%
%TO.N,GND*%
X-11430000Y-9906000D03*
%TO.P,J2,4,Pin_4*%
X-13970000Y-9906000D03*
%TO.P,J2,5,Pin_5*%
%TO.N,/D1*%
X-16510000Y-9906000D03*
%TO.P,J2,6,Pin_6*%
%TO.N,/D0*%
X-19050000Y-9906000D03*
%TO.P,J2,7,Pin_7*%
%TO.N,/D4*%
X-21590000Y-9906000D03*
%TO.P,J2,8,Pin_8*%
%TO.N,/C6*%
X-24130000Y-9906000D03*
%TO.P,J2,9,Pin_9*%
%TO.N,/D7*%
X-26670000Y-9906000D03*
%TO.P,J2,10,Pin_10*%
%TO.N,/E6*%
X-29210000Y-9906000D03*
%TO.P,J2,11,Pin_11*%
%TO.N,/B4*%
X-31750000Y-9906000D03*
%TO.P,J2,12,Pin_12*%
%TO.N,/B5*%
X-34290000Y-9906000D03*
%TD*%
D10*
%TO.P,J3,1,Pin_1*%
%TO.N,/LED5*%
X-6350000Y-4826000D03*
D11*
%TO.P,J3,2,Pin_2*%
%TO.N,/LED6*%
X-8890000Y-4826000D03*
%TO.P,J3,3,Pin_3*%
%TO.N,/LED4*%
X-11430000Y-4826000D03*
%TO.P,J3,4,Pin_4*%
%TO.N,unconnected-(J3-Pin_4-Pad4)*%
X-13970000Y-4826000D03*
%TO.P,J3,5,Pin_5*%
%TO.N,unconnected-(J3-Pin_5-Pad5)*%
X-16510000Y-4826000D03*
%TO.P,J3,6,Pin_6*%
%TO.N,unconnected-(J3-Pin_6-Pad6)*%
X-19050000Y-4826000D03*
%TO.P,J3,7,Pin_7*%
%TO.N,unconnected-(J3-Pin_7-Pad7)*%
X-21590000Y-4826000D03*
%TO.P,J3,8,Pin_8*%
%TO.N,unconnected-(J3-Pin_8-Pad8)*%
X-24130000Y-4826000D03*
%TO.P,J3,9,Pin_9*%
%TO.N,unconnected-(J3-Pin_9-Pad9)*%
X-26670000Y-4826000D03*
%TO.P,J3,10,Pin_10*%
%TO.N,/LED3*%
X-29210000Y-4826000D03*
%TO.P,J3,11,Pin_11*%
%TO.N,/LED2*%
X-31750000Y-4826000D03*
%TO.P,J3,12,Pin_12*%
%TO.N,/LED1*%
X-34290000Y-4826000D03*
%TD*%
D15*
%TO.P,R1,1*%
%TO.N,/B5*%
X-36830000Y-8191000D03*
%TO.P,R1,2*%
%TO.N,Net-(Q1-B)*%
X-36830000Y-6541000D03*
%TD*%
D16*
%TO.P,R5,1*%
%TO.N,/D3*%
X-4890000Y-7366000D03*
%TO.P,R5,2*%
%TO.N,/LED5*%
X-6540000Y-7366000D03*
%TD*%
%TO.P,R6,1*%
%TO.N,/D2*%
X-8065000Y-7366000D03*
%TO.P,R6,2*%
%TO.N,/LED6*%
X-9715000Y-7366000D03*
%TD*%
%TO.P,R2,1*%
%TO.N,/B4*%
X-31560000Y-7366000D03*
%TO.P,R2,2*%
%TO.N,/LED2*%
X-33210000Y-7366000D03*
%TD*%
%TO.P,R3,1*%
%TO.N,/E6*%
X-28385000Y-7366000D03*
%TO.P,R3,2*%
%TO.N,/LED3*%
X-30035000Y-7366000D03*
%TD*%
%TO.P,R4,1*%
%TO.N,/LED4*%
X-13145000Y-7366000D03*
%TO.P,R4,2*%
%TO.N,/D1*%
X-14795000Y-7366000D03*
%TD*%
D17*
%TO.N,/RST*%
X-36560000Y-22606000D02*
X-38390000Y-20776000D01*
X-13970000Y-22606000D02*
X-36560000Y-22606000D01*
X-11430000Y-25146000D02*
X-13970000Y-22606000D01*
%TO.N,/B5*%
X-35115000Y-9906000D02*
X-36830000Y-8191000D01*
D18*
X-34290000Y-9906000D02*
X-35115000Y-9906000D01*
D17*
%TO.N,/D3*%
X-4890000Y-7366000D02*
X-4890000Y-8446000D01*
X-4890000Y-8446000D02*
X-6350000Y-9906000D01*
%TO.N,/E6*%
X-28385000Y-9081000D02*
X-29210000Y-9906000D01*
X-28385000Y-7366000D02*
X-28385000Y-9081000D01*
%TO.N,/B4*%
X-31560000Y-7366000D02*
X-31560000Y-9716000D01*
D18*
X-31560000Y-9716000D02*
X-31750000Y-9906000D01*
%TO.N,/LED5*%
X-6540000Y-5016000D02*
X-6350000Y-4826000D01*
D17*
X-6540000Y-7366000D02*
X-6540000Y-5016000D01*
%TO.N,/LED6*%
X-9715000Y-5651000D02*
X-8890000Y-4826000D01*
X-9715000Y-7366000D02*
X-9715000Y-5651000D01*
%TO.N,/LED4*%
X-11430000Y-4826000D02*
X-11430000Y-5651000D01*
X-11430000Y-5651000D02*
X-13145000Y-7366000D01*
%TO.N,/D2*%
X-8065000Y-9081000D02*
X-8890000Y-9906000D01*
X-8065000Y-7366000D02*
X-8065000Y-9081000D01*
%TO.N,/D1*%
X-16510000Y-9081000D02*
X-14795000Y-7366000D01*
X-16510000Y-9906000D02*
X-16510000Y-9081000D01*
%TO.N,/LED3*%
X-30035000Y-5651000D02*
X-29210000Y-4826000D01*
X-30035000Y-7366000D02*
X-30035000Y-5651000D01*
%TO.N,/LED2*%
X-33210000Y-7366000D02*
X-33210000Y-6286000D01*
X-33210000Y-6286000D02*
X-31750000Y-4826000D01*
%TO.N,/LED1*%
X-34290000Y-4826000D02*
X-39370000Y-4826000D01*
D19*
%TO.N,Net-(Q1-B)*%
X-37275000Y-6096000D02*
X-41275000Y-6096000D01*
X-36830000Y-6541000D02*
X-37275000Y-6096000D01*
%TD*%
%TA.AperFunction,Conductor*%
%TO.N,/D4*%
G36*
X-27871536Y-5480685D02*
G01*
X-27837000Y-5513877D01*
X-27748876Y-5639732D01*
X-27708495Y-5697401D01*
X-27541401Y-5864495D01*
X-27459901Y-5921562D01*
X-27347835Y-6000032D01*
X-27347833Y-6000033D01*
X-27347830Y-6000035D01*
X-27133663Y-6099903D01*
X-26905408Y-6161063D01*
X-26717082Y-6177539D01*
X-26670001Y-6181659D01*
X-26670000Y-6181659D01*
X-26669999Y-6181659D01*
X-26630766Y-6178226D01*
X-26434592Y-6161063D01*
X-26206337Y-6099903D01*
X-25992170Y-6000035D01*
X-25798599Y-5864495D01*
X-25631505Y-5697401D01*
X-25503000Y-5513876D01*
X-25448423Y-5470252D01*
X-25401425Y-5461000D01*
X-25398575Y-5461000D01*
X-25331536Y-5480685D01*
X-25297000Y-5513877D01*
X-25208876Y-5639732D01*
X-25168495Y-5697401D01*
X-25001401Y-5864495D01*
X-24919901Y-5921562D01*
X-24807835Y-6000032D01*
X-24807833Y-6000033D01*
X-24807830Y-6000035D01*
X-24593663Y-6099903D01*
X-24365408Y-6161063D01*
X-24177082Y-6177539D01*
X-24130001Y-6181659D01*
X-24130000Y-6181659D01*
X-24129999Y-6181659D01*
X-24090766Y-6178226D01*
X-23894592Y-6161063D01*
X-23666337Y-6099903D01*
X-23452170Y-6000035D01*
X-23258599Y-5864495D01*
X-23091505Y-5697401D01*
X-22963000Y-5513876D01*
X-22908423Y-5470252D01*
X-22861425Y-5461000D01*
X-22858575Y-5461000D01*
X-22791536Y-5480685D01*
X-22757000Y-5513877D01*
X-22668876Y-5639732D01*
X-22628495Y-5697401D01*
X-22461401Y-5864495D01*
X-22379901Y-5921562D01*
X-22267835Y-6000032D01*
X-22267833Y-6000033D01*
X-22267830Y-6000035D01*
X-22053663Y-6099903D01*
X-21825408Y-6161063D01*
X-21637082Y-6177539D01*
X-21590001Y-6181659D01*
X-21590000Y-6181659D01*
X-21589999Y-6181659D01*
X-21550766Y-6178226D01*
X-21354592Y-6161063D01*
X-21126337Y-6099903D01*
X-20912170Y-6000035D01*
X-20718599Y-5864495D01*
X-20551505Y-5697401D01*
X-20423000Y-5513876D01*
X-20368423Y-5470252D01*
X-20321425Y-5461000D01*
X-20318575Y-5461000D01*
X-20251536Y-5480685D01*
X-20217000Y-5513877D01*
X-20128876Y-5639732D01*
X-20088495Y-5697401D01*
X-19921401Y-5864495D01*
X-19839901Y-5921562D01*
X-19727835Y-6000032D01*
X-19727833Y-6000033D01*
X-19727830Y-6000035D01*
X-19513663Y-6099903D01*
X-19285408Y-6161063D01*
X-19097082Y-6177539D01*
X-19050001Y-6181659D01*
X-19050000Y-6181659D01*
X-19049999Y-6181659D01*
X-19010766Y-6178226D01*
X-18814592Y-6161063D01*
X-18586337Y-6099903D01*
X-18372170Y-6000035D01*
X-18178599Y-5864495D01*
X-18011505Y-5697401D01*
X-17883000Y-5513876D01*
X-17828423Y-5470252D01*
X-17781425Y-5461000D01*
X-17778575Y-5461000D01*
X-17711536Y-5480685D01*
X-17677000Y-5513877D01*
X-17588876Y-5639732D01*
X-17548495Y-5697401D01*
X-17381401Y-5864495D01*
X-17299901Y-5921562D01*
X-17187835Y-6000032D01*
X-17187833Y-6000033D01*
X-17187830Y-6000035D01*
X-16973663Y-6099903D01*
X-16745408Y-6161063D01*
X-16557082Y-6177539D01*
X-16510001Y-6181659D01*
X-16510000Y-6181659D01*
X-16509999Y-6181659D01*
X-16470766Y-6178226D01*
X-16274592Y-6161063D01*
X-16046337Y-6099903D01*
X-15832170Y-6000035D01*
X-15638599Y-5864495D01*
X-15471505Y-5697401D01*
X-15343000Y-5513876D01*
X-15288423Y-5470252D01*
X-15241425Y-5461000D01*
X-15238575Y-5461000D01*
X-15171536Y-5480685D01*
X-15137000Y-5513877D01*
X-15048876Y-5639732D01*
X-15008495Y-5697401D01*
X-14841401Y-5864495D01*
X-14759901Y-5921562D01*
X-14647835Y-6000032D01*
X-14647833Y-6000033D01*
X-14647830Y-6000035D01*
X-14433663Y-6099903D01*
X-14205408Y-6161063D01*
X-14017082Y-6177539D01*
X-13970001Y-6181659D01*
X-13970000Y-6181659D01*
X-13969999Y-6181659D01*
X-13930766Y-6178226D01*
X-13734592Y-6161063D01*
X-13506337Y-6099903D01*
X-13295015Y-6001361D01*
X-13225941Y-5990870D01*
X-13162157Y-6019389D01*
X-13123917Y-6077866D01*
X-13123362Y-6147733D01*
X-13154931Y-6201425D01*
X-13215620Y-6262115D01*
X-13307688Y-6354182D01*
X-13369008Y-6387666D01*
X-13395367Y-6390500D01*
X-13401616Y-6390500D01*
X-13420856Y-6392248D01*
X-13472193Y-6396913D01*
X-13634607Y-6447522D01*
X-13780189Y-6535530D01*
X-13780190Y-6535531D01*
X-13882319Y-6637661D01*
X-13943642Y-6671146D01*
X-14013334Y-6666162D01*
X-14057681Y-6637661D01*
X-14159812Y-6535530D01*
X-14163650Y-6533210D01*
X-14305394Y-6447522D01*
X-14467804Y-6396914D01*
X-14467806Y-6396913D01*
X-14467808Y-6396913D01*
X-14517222Y-6392423D01*
X-14538384Y-6390500D01*
X-15051616Y-6390500D01*
X-15070855Y-6392248D01*
X-15122193Y-6396913D01*
X-15284607Y-6447522D01*
X-15430189Y-6535530D01*
X-15550470Y-6655811D01*
X-15638478Y-6801393D01*
X-15689087Y-6963807D01*
X-15695500Y-7034386D01*
X-15695500Y-7040632D01*
X-15715185Y-7107671D01*
X-15731819Y-7128313D01*
X-17071606Y-8468099D01*
X-17075309Y-8471513D01*
X-17116494Y-8506496D01*
X-17116495Y-8506498D01*
X-17164334Y-8569429D01*
X-17213890Y-8631079D01*
X-17215431Y-8633489D01*
X-17224309Y-8647802D01*
X-17225820Y-8650313D01*
X-17246223Y-8694416D01*
X-17259019Y-8722074D01*
X-17264140Y-8732400D01*
X-17290356Y-8785257D01*
X-17330317Y-8831734D01*
X-17381403Y-8867506D01*
X-17548495Y-9034597D01*
X-17678425Y-9220158D01*
X-17733002Y-9263783D01*
X-17802500Y-9270977D01*
X-17864855Y-9239454D01*
X-17881575Y-9220158D01*
X-18011506Y-9034597D01*
X-18178598Y-8867506D01*
X-18178605Y-8867501D01*
X-18372166Y-8731967D01*
X-18372170Y-8731965D01*
X-18452694Y-8694416D01*
X-18586337Y-8632097D01*
X-18586341Y-8632096D01*
X-18586345Y-8632094D01*
X-18814587Y-8570938D01*
X-18814597Y-8570936D01*
X-19049999Y-8550341D01*
X-19050001Y-8550341D01*
X-19285404Y-8570936D01*
X-19285414Y-8570938D01*
X-19513656Y-8632094D01*
X-19513665Y-8632098D01*
X-19727829Y-8731964D01*
X-19727831Y-8731965D01*
X-19921403Y-8867505D01*
X-20088492Y-9034594D01*
X-20218731Y-9220595D01*
X-20273308Y-9264219D01*
X-20342807Y-9271412D01*
X-20405161Y-9239890D01*
X-20421881Y-9220594D01*
X-20551887Y-9034926D01*
X-20551892Y-9034920D01*
X-20718918Y-8867894D01*
X-20912422Y-8732399D01*
X-21126508Y-8632570D01*
X-21126514Y-8632567D01*
X-21340000Y-8575364D01*
X-21340000Y-9470498D01*
X-21447685Y-9421320D01*
X-21554237Y-9406000D01*
X-21625763Y-9406000D01*
X-21732315Y-9421320D01*
X-21840000Y-9470498D01*
X-21840000Y-8575364D01*
X-21840001Y-8575364D01*
X-22053487Y-8632567D01*
X-22053493Y-8632570D01*
X-22267578Y-8732399D01*
X-22267580Y-8732400D01*
X-22461074Y-8867886D01*
X-22461080Y-8867891D01*
X-22628109Y-9034920D01*
X-22628110Y-9034922D01*
X-22758120Y-9220595D01*
X-22812697Y-9264219D01*
X-22882196Y-9271412D01*
X-22944550Y-9239890D01*
X-22961270Y-9220594D01*
X-23091506Y-9034597D01*
X-23258598Y-8867506D01*
X-23258605Y-8867501D01*
X-23452166Y-8731967D01*
X-23452170Y-8731965D01*
X-23532694Y-8694416D01*
X-23666337Y-8632097D01*
X-23666341Y-8632096D01*
X-23666345Y-8632094D01*
X-23894587Y-8570938D01*
X-23894597Y-8570936D01*
X-24129999Y-8550341D01*
X-24130001Y-8550341D01*
X-24365404Y-8570936D01*
X-24365414Y-8570938D01*
X-24593656Y-8632094D01*
X-24593665Y-8632098D01*
X-24807829Y-8731964D01*
X-24807831Y-8731965D01*
X-25001403Y-8867505D01*
X-25168495Y-9034597D01*
X-25298425Y-9220158D01*
X-25353002Y-9263783D01*
X-25422500Y-9270977D01*
X-25484855Y-9239454D01*
X-25501575Y-9220158D01*
X-25631506Y-9034597D01*
X-25798598Y-8867506D01*
X-25798605Y-8867501D01*
X-25992166Y-8731967D01*
X-25992170Y-8731965D01*
X-26072694Y-8694416D01*
X-26206337Y-8632097D01*
X-26206341Y-8632096D01*
X-26206345Y-8632094D01*
X-26434587Y-8570938D01*
X-26434597Y-8570936D01*
X-26669999Y-8550341D01*
X-26670001Y-8550341D01*
X-26905404Y-8570936D01*
X-26905414Y-8570938D01*
X-27133656Y-8632094D01*
X-27133665Y-8632098D01*
X-27347829Y-8731964D01*
X-27347833Y-8731966D01*
X-27359380Y-8740052D01*
X-27425586Y-8762378D01*
X-27493353Y-8745365D01*
X-27541165Y-8694416D01*
X-27554500Y-8638475D01*
X-27554500Y-7986059D01*
X-27543574Y-7935165D01*
X-27541524Y-7930610D01*
X-27541524Y-7930608D01*
X-27541522Y-7930606D01*
X-27490914Y-7768196D01*
X-27484500Y-7697616D01*
X-27484500Y-7034384D01*
X-27490914Y-6963804D01*
X-27541522Y-6801394D01*
X-27629528Y-6655815D01*
X-27629530Y-6655813D01*
X-27629531Y-6655811D01*
X-27749812Y-6535530D01*
X-27753650Y-6533210D01*
X-27895394Y-6447522D01*
X-28057804Y-6396914D01*
X-28057806Y-6396913D01*
X-28057808Y-6396913D01*
X-28107222Y-6392423D01*
X-28128384Y-6390500D01*
X-28641616Y-6390500D01*
X-28660856Y-6392248D01*
X-28712193Y-6396913D01*
X-28874607Y-6447522D01*
X-28964419Y-6501815D01*
X-29016352Y-6533210D01*
X-29083905Y-6551046D01*
X-29150378Y-6529528D01*
X-29194666Y-6475488D01*
X-29204500Y-6427093D01*
X-29204500Y-6294801D01*
X-29184815Y-6227762D01*
X-29132011Y-6182007D01*
X-29091312Y-6171274D01*
X-28974592Y-6161063D01*
X-28746337Y-6099903D01*
X-28532170Y-6000035D01*
X-28338599Y-5864495D01*
X-28171505Y-5697401D01*
X-28043000Y-5513876D01*
X-27988423Y-5470252D01*
X-27941425Y-5461000D01*
X-27938575Y-5461000D01*
X-27871536Y-5480685D01*
G37*
%TD.AperFunction*%
%TD*%
%TA.AperFunction,Conductor*%
%TO.N,/B5*%
G36*
X-35353599Y-5676185D02*
G01*
X-35333037Y-5694285D01*
X-35332324Y-5693573D01*
X-35240368Y-5785528D01*
X-35161401Y-5864495D01*
X-35102390Y-5905815D01*
X-34967835Y-6000032D01*
X-34967833Y-6000033D01*
X-34967830Y-6000035D01*
X-34753663Y-6099903D01*
X-34525408Y-6161063D01*
X-34337082Y-6177539D01*
X-34290001Y-6181659D01*
X-34290001Y-6181658D01*
X-34290000Y-6181659D01*
X-34175906Y-6171676D01*
X-34107410Y-6185442D01*
X-34057226Y-6234057D01*
X-34041146Y-6298561D01*
X-34042643Y-6353805D01*
X-34042407Y-6356699D01*
X-34040500Y-6376751D01*
X-34040500Y-6745939D01*
X-34051421Y-6796822D01*
X-34053475Y-6801385D01*
X-34104087Y-6963807D01*
X-34109218Y-7020275D01*
X-34110500Y-7034384D01*
X-34110500Y-7697616D01*
X-34108577Y-7718778D01*
X-34104087Y-7768192D01*
X-34104087Y-7768194D01*
X-34104086Y-7768196D01*
X-34053478Y-7930606D01*
X-33972234Y-8065000D01*
X-33965470Y-8076188D01*
X-33845189Y-8196469D01*
X-33845187Y-8196470D01*
X-33845185Y-8196472D01*
X-33699606Y-8284478D01*
X-33537196Y-8335086D01*
X-33466616Y-8341500D01*
X-33466613Y-8341500D01*
X-32953387Y-8341500D01*
X-32953384Y-8341500D01*
X-32882804Y-8335086D01*
X-32720394Y-8284478D01*
X-32578649Y-8198789D01*
X-32511096Y-8180953D01*
X-32444622Y-8202470D01*
X-32400334Y-8256510D01*
X-32390500Y-8304906D01*
X-32390500Y-8641276D01*
X-32410185Y-8708315D01*
X-32443377Y-8742851D01*
X-32621403Y-8867505D01*
X-32788492Y-9034594D01*
X-32918731Y-9220595D01*
X-32973308Y-9264219D01*
X-33042807Y-9271412D01*
X-33105161Y-9239890D01*
X-33121881Y-9220594D01*
X-33251887Y-9034926D01*
X-33251892Y-9034920D01*
X-33418918Y-8867894D01*
X-33612422Y-8732399D01*
X-33826508Y-8632570D01*
X-33826514Y-8632567D01*
X-34040000Y-8575364D01*
X-34040000Y-9470498D01*
X-34147685Y-9421320D01*
X-34254237Y-9406000D01*
X-34325763Y-9406000D01*
X-34432315Y-9421320D01*
X-34540000Y-9470498D01*
X-34540000Y-8575364D01*
X-34540001Y-8575364D01*
X-34753487Y-8632567D01*
X-34753493Y-8632570D01*
X-34967578Y-8732399D01*
X-34967580Y-8732400D01*
X-35161074Y-8867886D01*
X-35161080Y-8867891D01*
X-35328109Y-9034920D01*
X-35328114Y-9034926D01*
X-35463600Y-9228420D01*
X-35463601Y-9228422D01*
X-35563430Y-9442507D01*
X-35563433Y-9442514D01*
X-35605066Y-9597891D01*
X-35641431Y-9657551D01*
X-35704278Y-9688080D01*
X-35773654Y-9679785D01*
X-35812522Y-9653478D01*
X-36257380Y-9208620D01*
X-36290865Y-9147297D01*
X-36285881Y-9077605D01*
X-36244009Y-9021672D01*
X-36233849Y-9014822D01*
X-36120123Y-8946072D01*
X-35999928Y-8825877D01*
X-35911981Y-8680395D01*
X-35861410Y-8518106D01*
X-35855000Y-8447572D01*
X-35855000Y-8441000D01*
X-36956000Y-8441000D01*
X-37023039Y-8421315D01*
X-37068794Y-8368511D01*
X-37080000Y-8317000D01*
X-37080000Y-8065000D01*
X-37060315Y-7997961D01*
X-37007511Y-7952206D01*
X-36956000Y-7941000D01*
X-35855001Y-7941000D01*
X-35855001Y-7934417D01*
X-35861409Y-7863897D01*
X-35861410Y-7863892D01*
X-35911982Y-7701603D01*
X-35999928Y-7556122D01*
X-36102016Y-7454034D01*
X-36135501Y-7392711D01*
X-36130517Y-7323019D01*
X-36102017Y-7278673D01*
X-35999528Y-7176185D01*
X-35911522Y-7030606D01*
X-35860914Y-6868196D01*
X-35854500Y-6797616D01*
X-35854500Y-6284384D01*
X-35860914Y-6213804D01*
X-35911522Y-6051394D01*
X-35999528Y-5905815D01*
X-35999530Y-5905813D01*
X-35999531Y-5905811D01*
X-36037161Y-5868181D01*
X-36070646Y-5806858D01*
X-36065662Y-5737166D01*
X-36023790Y-5681233D01*
X-35958326Y-5656816D01*
X-35949480Y-5656500D01*
X-35420638Y-5656500D01*
X-35353599Y-5676185D01*
G37*
%TD.AperFunction*%
%TD*%
%TA.AperFunction,Conductor*%
%TO.N,GND*%
G36*
X-11889493Y-9696156D02*
G01*
X-11930000Y-9834111D01*
X-11930000Y-9977889D01*
X-11889493Y-10115844D01*
X-11863686Y-10156000D01*
X-13536314Y-10156000D01*
X-13510507Y-10115844D01*
X-13470000Y-9977889D01*
X-13470000Y-9834111D01*
X-13510507Y-9696156D01*
X-13536314Y-9656000D01*
X-11863686Y-9656000D01*
X-11889493Y-9696156D01*
G37*
%TD.AperFunction*%
%TA.AperFunction,Conductor*%
G36*
X-10578850Y-6143804D02*
G01*
X-10547498Y-6206244D01*
X-10545500Y-6228413D01*
X-10545500Y-6745939D01*
X-10556421Y-6796822D01*
X-10558475Y-6801385D01*
X-10609087Y-6963807D01*
X-10612958Y-7006414D01*
X-10615500Y-7034384D01*
X-10615500Y-7697616D01*
X-10613577Y-7718778D01*
X-10609087Y-7768192D01*
X-10609087Y-7768194D01*
X-10609086Y-7768196D01*
X-10558478Y-7930606D01*
X-10524954Y-7986062D01*
X-10470470Y-8076188D01*
X-10350189Y-8196469D01*
X-10350187Y-8196470D01*
X-10350185Y-8196472D01*
X-10204606Y-8284478D01*
X-10042196Y-8335086D01*
X-9971616Y-8341500D01*
X-9971613Y-8341500D01*
X-9458387Y-8341500D01*
X-9458384Y-8341500D01*
X-9387804Y-8335086D01*
X-9225394Y-8284478D01*
X-9083649Y-8198789D01*
X-9016096Y-8180953D01*
X-8949622Y-8202470D01*
X-8905334Y-8256510D01*
X-8895500Y-8304906D01*
X-8895500Y-8437197D01*
X-8915185Y-8504236D01*
X-8967989Y-8549991D01*
X-9008692Y-8560725D01*
X-9125404Y-8570936D01*
X-9125414Y-8570938D01*
X-9353656Y-8632094D01*
X-9353665Y-8632098D01*
X-9567829Y-8731964D01*
X-9567831Y-8731965D01*
X-9761403Y-8867505D01*
X-9928492Y-9034594D01*
X-10058731Y-9220595D01*
X-10113308Y-9264219D01*
X-10182807Y-9271412D01*
X-10245161Y-9239890D01*
X-10261881Y-9220594D01*
X-10391887Y-9034926D01*
X-10391892Y-9034920D01*
X-10558918Y-8867894D01*
X-10752422Y-8732399D01*
X-10966508Y-8632570D01*
X-10966514Y-8632567D01*
X-11180000Y-8575364D01*
X-11180000Y-9470498D01*
X-11287685Y-9421320D01*
X-11394237Y-9406000D01*
X-11465763Y-9406000D01*
X-11572315Y-9421320D01*
X-11680000Y-9470498D01*
X-11680000Y-8575364D01*
X-11680001Y-8575364D01*
X-11893487Y-8632567D01*
X-11893493Y-8632570D01*
X-12107578Y-8732399D01*
X-12107580Y-8732400D01*
X-12301074Y-8867886D01*
X-12301080Y-8867891D01*
X-12468109Y-9034920D01*
X-12468110Y-9034922D01*
X-12598426Y-9221031D01*
X-12653004Y-9264656D01*
X-12722502Y-9271848D01*
X-12784857Y-9240326D01*
X-12801576Y-9221030D01*
X-12931887Y-9034926D01*
X-12931892Y-9034920D01*
X-13098918Y-8867894D01*
X-13292422Y-8732399D01*
X-13506508Y-8632570D01*
X-13506514Y-8632567D01*
X-13720000Y-8575364D01*
X-13720000Y-9470498D01*
X-13827685Y-9421320D01*
X-13934237Y-9406000D01*
X-14005763Y-9406000D01*
X-14112315Y-9421320D01*
X-14220000Y-9470498D01*
X-14220000Y-8575364D01*
X-14220001Y-8575364D01*
X-14433487Y-8632567D01*
X-14433498Y-8632571D01*
X-14646021Y-8731672D01*
X-14715098Y-8742164D01*
X-14778882Y-8713644D01*
X-14817121Y-8655167D01*
X-14817675Y-8585300D01*
X-14786110Y-8531614D01*
X-14632312Y-8377816D01*
X-14570990Y-8344334D01*
X-14544633Y-8341500D01*
X-14538387Y-8341500D01*
X-14538384Y-8341500D01*
X-14467804Y-8335086D01*
X-14305394Y-8284478D01*
X-14159815Y-8196472D01*
X-14144296Y-8180953D01*
X-14057681Y-8094339D01*
X-13996358Y-8060854D01*
X-13926666Y-8065838D01*
X-13882319Y-8094339D01*
X-13780189Y-8196469D01*
X-13780187Y-8196470D01*
X-13780185Y-8196472D01*
X-13634606Y-8284478D01*
X-13472196Y-8335086D01*
X-13401616Y-8341500D01*
X-13401613Y-8341500D01*
X-12888387Y-8341500D01*
X-12888384Y-8341500D01*
X-12817804Y-8335086D01*
X-12655394Y-8284478D01*
X-12509815Y-8196472D01*
X-12389528Y-8076185D01*
X-12301522Y-7930606D01*
X-12250914Y-7768196D01*
X-12244500Y-7697616D01*
X-12244500Y-7691366D01*
X-12224815Y-7624327D01*
X-12208181Y-7603685D01*
X-11877166Y-7272670D01*
X-10868373Y-6263876D01*
X-10864705Y-6260496D01*
X-10823506Y-6225502D01*
X-10775667Y-6162570D01*
X-10766147Y-6150725D01*
X-10708806Y-6110807D01*
X-10638984Y-6108227D01*
X-10578850Y-6143804D01*
G37*
%TD.AperFunction*%
%TA.AperFunction,Conductor*%
G36*
X-503968Y-530D02*
G01*
X-392704Y-15179D01*
X-361439Y-23556D01*
X-269085Y-61810D01*
X-241051Y-77996D01*
X-161742Y-138853D01*
X-138854Y-161741D01*
X-77997Y-241050D01*
X-61811Y-269085D01*
X-23558Y-361437D01*
X-15180Y-392703D01*
X-1031Y-500168D01*
X-500Y-508269D01*
X-500Y-29463730D01*
X-1031Y-29471831D01*
X-15180Y-29579296D01*
X-23558Y-29610562D01*
X-61811Y-29702914D01*
X-77997Y-29730949D01*
X-138854Y-29810258D01*
X-161742Y-29833146D01*
X-241051Y-29894003D01*
X-269086Y-29910189D01*
X-361438Y-29948442D01*
X-392704Y-29956820D01*
X-490590Y-29969707D01*
X-503968Y-29971469D01*
X-512067Y-29972000D01*
X-43686089Y-29972000D01*
X-43694169Y-29971472D01*
X-43805142Y-29956902D01*
X-43836328Y-29948569D01*
X-43928478Y-29910513D01*
X-43956458Y-29894412D01*
X-44035665Y-29833856D01*
X-44058540Y-29811077D01*
X-44119426Y-29732135D01*
X-44135648Y-29704221D01*
X-44174094Y-29612231D01*
X-44182559Y-29581078D01*
X-44197599Y-29470166D01*
X-44198161Y-29462112D01*
X-44230747Y-21771762D01*
X-44211347Y-21704643D01*
X-44158737Y-21658665D01*
X-44119739Y-21652185D01*
X-43415930Y-20948376D01*
X-43413116Y-20961915D01*
X-43343558Y-21096156D01*
X-43240362Y-21206652D01*
X-43111181Y-21285209D01*
X-43059998Y-21299549D01*
X-43760058Y-21999609D01*
X-43713232Y-22036055D01*
X-43713230Y-22036056D01*
X-43494615Y-22154364D01*
X-43494604Y-22154369D01*
X-43259494Y-22235083D01*
X-43014293Y-22276000D01*
X-42765707Y-22276000D01*
X-42520507Y-22235083D01*
X-42285397Y-22154369D01*
X-42285386Y-22154364D01*
X-42066772Y-22036057D01*
X-42066769Y-22036055D01*
X-42019944Y-21999609D01*
X-42718432Y-21301121D01*
X-42601542Y-21250349D01*
X-42484261Y-21154934D01*
X-42397072Y-21031415D01*
X-42366646Y-20945802D01*
X-41666566Y-21645882D01*
X-41566269Y-21492369D01*
X-41466413Y-21264717D01*
X-41405388Y-21023738D01*
X-41405386Y-21023729D01*
X-41384859Y-20776005D01*
X-39895643Y-20776005D01*
X-39875110Y-21023812D01*
X-39875108Y-21023824D01*
X-39814064Y-21264881D01*
X-39714174Y-21492606D01*
X-39578167Y-21700782D01*
X-39545755Y-21735991D01*
X-39409744Y-21883738D01*
X-39213509Y-22036474D01*
X-39202171Y-22042610D01*
X-38995668Y-22154364D01*
X-38994810Y-22154828D01*
X-38775859Y-22229994D01*
X-38761036Y-22235083D01*
X-38759614Y-22235571D01*
X-38514335Y-22276500D01*
X-38265666Y-22276500D01*
X-38265665Y-22276500D01*
X-38155798Y-22258166D01*
X-38086436Y-22266548D01*
X-38047710Y-22292794D01*
X-37172907Y-23167597D01*
X-37169501Y-23171290D01*
X-37134502Y-23212494D01*
X-37108925Y-23231937D01*
X-37071561Y-23260341D01*
X-37009923Y-23309887D01*
X-37009918Y-23309891D01*
X-37009913Y-23309893D01*
X-37007388Y-23311507D01*
X-36993283Y-23320256D01*
X-36990695Y-23321814D01*
X-36990692Y-23321816D01*
X-36918926Y-23355018D01*
X-36848084Y-23390153D01*
X-36848083Y-23390153D01*
X-36848077Y-23390156D01*
X-36845218Y-23391206D01*
X-36829654Y-23396686D01*
X-36826747Y-23397665D01*
X-36826744Y-23397667D01*
X-36749516Y-23414666D01*
X-36672778Y-23433750D01*
X-36672777Y-23433750D01*
X-36669777Y-23434158D01*
X-36653348Y-23436171D01*
X-36650326Y-23436500D01*
X-36571267Y-23436500D01*
X-36492200Y-23438642D01*
X-36492200Y-23438641D01*
X-36492195Y-23438642D01*
X-36489267Y-23438403D01*
X-36469249Y-23436500D01*
X-14365366Y-23436500D01*
X-14298327Y-23456185D01*
X-14277685Y-23472819D01*
X-14147615Y-23602889D01*
X-14114130Y-23664212D01*
X-14119114Y-23733904D01*
X-14160986Y-23789837D01*
X-14203202Y-23810345D01*
X-14433659Y-23872095D01*
X-14433665Y-23872098D01*
X-14647829Y-23971964D01*
X-14647831Y-23971965D01*
X-14841403Y-24107505D01*
X-15008495Y-24274597D01*
X-15138425Y-24460158D01*
X-15193002Y-24503783D01*
X-15262500Y-24510977D01*
X-15324855Y-24479454D01*
X-15341575Y-24460158D01*
X-15471506Y-24274597D01*
X-15638598Y-24107506D01*
X-15638605Y-24107501D01*
X-15832166Y-23971967D01*
X-15832170Y-23971965D01*
X-15832171Y-23971964D01*
X-16046337Y-23872097D01*
X-16046341Y-23872096D01*
X-16046345Y-23872094D01*
X-16274587Y-23810938D01*
X-16274597Y-23810936D01*
X-16509999Y-23790341D01*
X-16510001Y-23790341D01*
X-16745404Y-23810936D01*
X-16745414Y-23810938D01*
X-16973656Y-23872094D01*
X-16973665Y-23872098D01*
X-17187829Y-23971964D01*
X-17187831Y-23971965D01*
X-17381403Y-24107505D01*
X-17548495Y-24274597D01*
X-17678425Y-24460158D01*
X-17733002Y-24503783D01*
X-17802500Y-24510977D01*
X-17864855Y-24479454D01*
X-17881575Y-24460158D01*
X-18011506Y-24274597D01*
X-18178598Y-24107506D01*
X-18178605Y-24107501D01*
X-18372166Y-23971967D01*
X-18372170Y-23971965D01*
X-18372170Y-23971964D01*
X-18586337Y-23872097D01*
X-18586341Y-23872096D01*
X-18586345Y-23872094D01*
X-18814587Y-23810938D01*
X-18814597Y-23810936D01*
X-19049999Y-23790341D01*
X-19050001Y-23790341D01*
X-19285404Y-23810936D01*
X-19285414Y-23810938D01*
X-19513656Y-23872094D01*
X-19513665Y-23872098D01*
X-19727829Y-23971964D01*
X-19727831Y-23971965D01*
X-19921403Y-24107505D01*
X-20088495Y-24274597D01*
X-20218425Y-24460158D01*
X-20273002Y-24503783D01*
X-20342500Y-24510977D01*
X-20404855Y-24479454D01*
X-20421575Y-24460158D01*
X-20551506Y-24274597D01*
X-20718598Y-24107506D01*
X-20718605Y-24107501D01*
X-20912166Y-23971967D01*
X-20912170Y-23971965D01*
X-20912171Y-23971964D01*
X-21126337Y-23872097D01*
X-21126341Y-23872096D01*
X-21126345Y-23872094D01*
X-21354587Y-23810938D01*
X-21354597Y-23810936D01*
X-21589999Y-23790341D01*
X-21590001Y-23790341D01*
X-21825404Y-23810936D01*
X-21825414Y-23810938D01*
X-22053656Y-23872094D01*
X-22053665Y-23872098D01*
X-22267829Y-23971964D01*
X-22267831Y-23971965D01*
X-22461403Y-24107505D01*
X-22628495Y-24274597D01*
X-22758425Y-24460158D01*
X-22813002Y-24503783D01*
X-22882500Y-24510977D01*
X-22944855Y-24479454D01*
X-22961575Y-24460158D01*
X-23091506Y-24274597D01*
X-23258598Y-24107506D01*
X-23258605Y-24107501D01*
X-23452166Y-23971967D01*
X-23452170Y-23971965D01*
X-23452171Y-23971964D01*
X-23666337Y-23872097D01*
X-23666341Y-23872096D01*
X-23666345Y-23872094D01*
X-23894587Y-23810938D01*
X-23894597Y-23810936D01*
X-24129999Y-23790341D01*
X-24130001Y-23790341D01*
X-24365404Y-23810936D01*
X-24365414Y-23810938D01*
X-24593656Y-23872094D01*
X-24593665Y-23872098D01*
X-24807829Y-23971964D01*
X-24807831Y-23971965D01*
X-25001403Y-24107505D01*
X-25168492Y-24274594D01*
X-25298426Y-24460160D01*
X-25353003Y-24503784D01*
X-25422502Y-24510977D01*
X-25484856Y-24479455D01*
X-25501571Y-24460164D01*
X-25631505Y-24274599D01*
X-25631507Y-24274596D01*
X-25798598Y-24107506D01*
X-25798605Y-24107501D01*
X-25992166Y-23971967D01*
X-25992170Y-23971965D01*
X-25992171Y-23971964D01*
X-26206337Y-23872097D01*
X-26206341Y-23872096D01*
X-26206345Y-23872094D01*
X-26434587Y-23810938D01*
X-26434597Y-23810936D01*
X-26669999Y-23790341D01*
X-26670001Y-23790341D01*
X-26905404Y-23810936D01*
X-26905414Y-23810938D01*
X-27133656Y-23872094D01*
X-27133665Y-23872098D01*
X-27347829Y-23971964D01*
X-27347831Y-23971965D01*
X-27541403Y-24107505D01*
X-27708495Y-24274597D01*
X-27838425Y-24460158D01*
X-27893002Y-24503783D01*
X-27962500Y-24510977D01*
X-28024855Y-24479454D01*
X-28041575Y-24460158D01*
X-28171506Y-24274597D01*
X-28338598Y-24107506D01*
X-28338605Y-24107501D01*
X-28532166Y-23971967D01*
X-28532170Y-23971965D01*
X-28532171Y-23971964D01*
X-28746337Y-23872097D01*
X-28746341Y-23872096D01*
X-28746345Y-23872094D01*
X-28974587Y-23810938D01*
X-28974597Y-23810936D01*
X-29209999Y-23790341D01*
X-29210001Y-23790341D01*
X-29445404Y-23810936D01*
X-29445414Y-23810938D01*
X-29673656Y-23872094D01*
X-29673665Y-23872098D01*
X-29887829Y-23971964D01*
X-29887831Y-23971965D01*
X-30081403Y-24107505D01*
X-30248495Y-24274597D01*
X-30378425Y-24460158D01*
X-30433002Y-24503783D01*
X-30502500Y-24510977D01*
X-30564855Y-24479454D01*
X-30581575Y-24460158D01*
X-30711506Y-24274597D01*
X-30878598Y-24107506D01*
X-30878605Y-24107501D01*
X-31072166Y-23971967D01*
X-31072170Y-23971965D01*
X-31072172Y-23971964D01*
X-31286337Y-23872097D01*
X-31286341Y-23872096D01*
X-31286345Y-23872094D01*
X-31514587Y-23810938D01*
X-31514597Y-23810936D01*
X-31749999Y-23790341D01*
X-31750001Y-23790341D01*
X-31985404Y-23810936D01*
X-31985414Y-23810938D01*
X-32213656Y-23872094D01*
X-32213665Y-23872098D01*
X-32427829Y-23971964D01*
X-32427831Y-23971965D01*
X-32621403Y-24107505D01*
X-32788495Y-24274597D01*
X-32918425Y-24460158D01*
X-32973002Y-24503783D01*
X-33042500Y-24510977D01*
X-33104855Y-24479454D01*
X-33121575Y-24460158D01*
X-33251506Y-24274597D01*
X-33418598Y-24107506D01*
X-33418605Y-24107501D01*
X-33612166Y-23971967D01*
X-33612170Y-23971965D01*
X-33612171Y-23971964D01*
X-33826337Y-23872097D01*
X-33826341Y-23872096D01*
X-33826345Y-23872094D01*
X-34054587Y-23810938D01*
X-34054597Y-23810936D01*
X-34289999Y-23790341D01*
X-34290001Y-23790341D01*
X-34525404Y-23810936D01*
X-34525414Y-23810938D01*
X-34753656Y-23872094D01*
X-34753665Y-23872098D01*
X-34967829Y-23971964D01*
X-34967831Y-23971965D01*
X-35161403Y-24107505D01*
X-35328495Y-24274597D01*
X-35464035Y-24468169D01*
X-35464036Y-24468171D01*
X-35563902Y-24682335D01*
X-35563906Y-24682344D01*
X-35625062Y-24910586D01*
X-35625064Y-24910596D01*
X-35645659Y-25145999D01*
X-35645659Y-25146000D01*
X-35625064Y-25381403D01*
X-35625062Y-25381413D01*
X-35563906Y-25609655D01*
X-35563904Y-25609659D01*
X-35563903Y-25609663D01*
X-35483996Y-25781023D01*
X-35464035Y-25823830D01*
X-35464033Y-25823834D01*
X-35355719Y-25978521D01*
X-35328495Y-26017401D01*
X-35161401Y-26184495D01*
X-35064616Y-26252265D01*
X-34967835Y-26320032D01*
X-34967833Y-26320033D01*
X-34967830Y-26320035D01*
X-34753663Y-26419903D01*
X-34525408Y-26481063D01*
X-34348966Y-26496500D01*
X-34290001Y-26501659D01*
X-34290000Y-26501659D01*
X-34289999Y-26501659D01*
X-34231034Y-26496500D01*
X-34054592Y-26481063D01*
X-33826337Y-26419903D01*
X-33612170Y-26320035D01*
X-33418599Y-26184495D01*
X-33251505Y-26017401D01*
X-33121576Y-25831842D01*
X-33066998Y-25788217D01*
X-32997500Y-25781023D01*
X-32935145Y-25812546D01*
X-32918425Y-25831842D01*
X-32788500Y-26017395D01*
X-32788495Y-26017401D01*
X-32621401Y-26184495D01*
X-32524616Y-26252264D01*
X-32427835Y-26320032D01*
X-32427833Y-26320033D01*
X-32427830Y-26320035D01*
X-32213663Y-26419903D01*
X-31985408Y-26481063D01*
X-31808966Y-26496500D01*
X-31750001Y-26501659D01*
X-31750000Y-26501659D01*
X-31749999Y-26501659D01*
X-31691034Y-26496500D01*
X-31514592Y-26481063D01*
X-31286337Y-26419903D01*
X-31072170Y-26320035D01*
X-30878599Y-26184495D01*
X-30711505Y-26017401D01*
X-30581576Y-25831842D01*
X-30526998Y-25788217D01*
X-30457500Y-25781023D01*
X-30395145Y-25812546D01*
X-30378425Y-25831842D01*
X-30248500Y-26017395D01*
X-30248495Y-26017401D01*
X-30081401Y-26184495D01*
X-29984616Y-26252264D01*
X-29887835Y-26320032D01*
X-29887833Y-26320033D01*
X-29887830Y-26320035D01*
X-29673663Y-26419903D01*
X-29445408Y-26481063D01*
X-29268966Y-26496500D01*
X-29210001Y-26501659D01*
X-29210000Y-26501659D01*
X-29209999Y-26501659D01*
X-29151034Y-26496500D01*
X-28974592Y-26481063D01*
X-28746337Y-26419903D01*
X-28532170Y-26320035D01*
X-28338599Y-26184495D01*
X-28171505Y-26017401D01*
X-28041576Y-25831842D01*
X-27986998Y-25788217D01*
X-27917500Y-25781023D01*
X-27855145Y-25812546D01*
X-27838425Y-25831842D01*
X-27708500Y-26017395D01*
X-27708495Y-26017401D01*
X-27541401Y-26184495D01*
X-27444616Y-26252264D01*
X-27347835Y-26320032D01*
X-27347833Y-26320033D01*
X-27347830Y-26320035D01*
X-27133663Y-26419903D01*
X-26905408Y-26481063D01*
X-26728966Y-26496500D01*
X-26670001Y-26501659D01*
X-26670000Y-26501659D01*
X-26669999Y-26501659D01*
X-26611034Y-26496500D01*
X-26434592Y-26481063D01*
X-26206337Y-26419903D01*
X-25992170Y-26320035D01*
X-25798599Y-26184495D01*
X-25631505Y-26017401D01*
X-25501576Y-25831842D01*
X-25446998Y-25788217D01*
X-25377500Y-25781023D01*
X-25315145Y-25812546D01*
X-25298425Y-25831842D01*
X-25168500Y-26017395D01*
X-25168495Y-26017401D01*
X-25001401Y-26184495D01*
X-24904616Y-26252264D01*
X-24807835Y-26320032D01*
X-24807833Y-26320033D01*
X-24807830Y-26320035D01*
X-24593663Y-26419903D01*
X-24365408Y-26481063D01*
X-24188966Y-26496500D01*
X-24130001Y-26501659D01*
X-24130000Y-26501659D01*
X-24129999Y-26501659D01*
X-24071034Y-26496500D01*
X-23894592Y-26481063D01*
X-23666337Y-26419903D01*
X-23452170Y-26320035D01*
X-23258599Y-26184495D01*
X-23091505Y-26017401D01*
X-22961576Y-25831842D01*
X-22906998Y-25788217D01*
X-22837500Y-25781023D01*
X-22775145Y-25812546D01*
X-22758425Y-25831842D01*
X-22628500Y-26017395D01*
X-22628495Y-26017401D01*
X-22461401Y-26184495D01*
X-22364616Y-26252264D01*
X-22267835Y-26320032D01*
X-22267833Y-26320033D01*
X-22267830Y-26320035D01*
X-22053663Y-26419903D01*
X-21825408Y-26481063D01*
X-21648966Y-26496500D01*
X-21590001Y-26501659D01*
X-21590000Y-26501659D01*
X-21589999Y-26501659D01*
X-21531034Y-26496500D01*
X-21354592Y-26481063D01*
X-21126337Y-26419903D01*
X-20912170Y-26320035D01*
X-20718599Y-26184495D01*
X-20551505Y-26017401D01*
X-20421576Y-25831842D01*
X-20366998Y-25788217D01*
X-20297500Y-25781023D01*
X-20235145Y-25812546D01*
X-20218425Y-25831842D01*
X-20088500Y-26017395D01*
X-20088495Y-26017401D01*
X-19921401Y-26184495D01*
X-19824616Y-26252264D01*
X-19727835Y-26320032D01*
X-19727833Y-26320033D01*
X-19727830Y-26320035D01*
X-19513663Y-26419903D01*
X-19285408Y-26481063D01*
X-19108966Y-26496500D01*
X-19050001Y-26501659D01*
X-19050000Y-26501659D01*
X-19049999Y-26501659D01*
X-18991034Y-26496500D01*
X-18814592Y-26481063D01*
X-18586337Y-26419903D01*
X-18372170Y-26320035D01*
X-18178599Y-26184495D01*
X-18011505Y-26017401D01*
X-17881576Y-25831842D01*
X-17826998Y-25788217D01*
X-17757500Y-25781023D01*
X-17695145Y-25812546D01*
X-17678425Y-25831842D01*
X-17548500Y-26017395D01*
X-17548495Y-26017401D01*
X-17381401Y-26184495D01*
X-17284616Y-26252264D01*
X-17187835Y-26320032D01*
X-17187833Y-26320033D01*
X-17187830Y-26320035D01*
X-16973663Y-26419903D01*
X-16745408Y-26481063D01*
X-16568966Y-26496500D01*
X-16510001Y-26501659D01*
X-16510000Y-26501659D01*
X-16509999Y-26501659D01*
X-16451034Y-26496500D01*
X-16274592Y-26481063D01*
X-16046337Y-26419903D01*
X-15832170Y-26320035D01*
X-15638599Y-26184495D01*
X-15471505Y-26017401D01*
X-15341576Y-25831842D01*
X-15286998Y-25788217D01*
X-15217500Y-25781023D01*
X-15155145Y-25812546D01*
X-15138425Y-25831842D01*
X-15008500Y-26017395D01*
X-15008495Y-26017401D01*
X-14841401Y-26184495D01*
X-14744616Y-26252264D01*
X-14647835Y-26320032D01*
X-14647833Y-26320033D01*
X-14647830Y-26320035D01*
X-14433663Y-26419903D01*
X-14205408Y-26481063D01*
X-14028966Y-26496500D01*
X-13970001Y-26501659D01*
X-13970000Y-26501659D01*
X-13969999Y-26501659D01*
X-13911034Y-26496500D01*
X-13734592Y-26481063D01*
X-13506337Y-26419903D01*
X-13292170Y-26320035D01*
X-13098599Y-26184495D01*
X-12931505Y-26017401D01*
X-12801576Y-25831842D01*
X-12746998Y-25788217D01*
X-12677500Y-25781023D01*
X-12615145Y-25812546D01*
X-12598425Y-25831842D01*
X-12468500Y-26017395D01*
X-12468495Y-26017401D01*
X-12301401Y-26184495D01*
X-12204616Y-26252264D01*
X-12107835Y-26320032D01*
X-12107833Y-26320033D01*
X-12107830Y-26320035D01*
X-11893663Y-26419903D01*
X-11665408Y-26481063D01*
X-11488966Y-26496500D01*
X-11430001Y-26501659D01*
X-11430000Y-26501659D01*
X-11429999Y-26501659D01*
X-11371034Y-26496500D01*
X-11194592Y-26481063D01*
X-10966337Y-26419903D01*
X-10752170Y-26320035D01*
X-10558599Y-26184495D01*
X-10391505Y-26017401D01*
X-10261270Y-25831405D01*
X-10206693Y-25787781D01*
X-10137195Y-25780587D01*
X-10074840Y-25812110D01*
X-10058121Y-25831405D01*
X-9928110Y-26017078D01*
X-9761083Y-26184105D01*
X-9567579Y-26319600D01*
X-9353493Y-26419429D01*
X-9353484Y-26419433D01*
X-9140000Y-26476634D01*
X-9140000Y-25581501D01*
X-9032315Y-25630680D01*
X-8925763Y-25646000D01*
X-8854237Y-25646000D01*
X-8747685Y-25630680D01*
X-8640000Y-25581501D01*
X-8640000Y-26476633D01*
X-8426517Y-26419433D01*
X-8426508Y-26419429D01*
X-8212422Y-26319600D01*
X-8018922Y-26184108D01*
X-7896867Y-26062053D01*
X-7835544Y-26028568D01*
X-7765852Y-26033552D01*
X-7709918Y-26075423D01*
X-7693003Y-26106401D01*
X-7643798Y-26238328D01*
X-7643794Y-26238335D01*
X-7557548Y-26353544D01*
X-7557545Y-26353547D01*
X-7442336Y-26439793D01*
X-7442329Y-26439797D01*
X-7307483Y-26490091D01*
X-7307484Y-26490091D01*
X-7300556Y-26490835D01*
X-7247873Y-26496500D01*
X-5452128Y-26496499D01*
X-5392517Y-26490091D01*
X-5257669Y-26439796D01*
X-5142454Y-26353546D01*
X-5056204Y-26238331D01*
X-5005909Y-26103483D01*
X-4999500Y-26043873D01*
X-4999501Y-24248128D01*
X-5005909Y-24188517D01*
X-5006998Y-24185598D01*
X-5056203Y-24053671D01*
X-5056207Y-24053664D01*
X-5142453Y-23938455D01*
X-5142456Y-23938452D01*
X-5257665Y-23852206D01*
X-5257672Y-23852202D01*
X-5392518Y-23801908D01*
X-5392517Y-23801908D01*
X-5452117Y-23795501D01*
X-5452119Y-23795500D01*
X-5452127Y-23795500D01*
X-5452136Y-23795500D01*
X-7247871Y-23795500D01*
X-7247877Y-23795501D01*
X-7307484Y-23801908D01*
X-7442329Y-23852202D01*
X-7442336Y-23852206D01*
X-7557545Y-23938452D01*
X-7557548Y-23938455D01*
X-7643794Y-24053664D01*
X-7643798Y-24053671D01*
X-7693003Y-24185598D01*
X-7734874Y-24241532D01*
X-7800339Y-24265949D01*
X-7868612Y-24251097D01*
X-7896866Y-24229946D01*
X-8018918Y-24107894D01*
X-8212422Y-23972399D01*
X-8426508Y-23872570D01*
X-8426514Y-23872567D01*
X-8640000Y-23815364D01*
X-8640000Y-24710498D01*
X-8747685Y-24661320D01*
X-8854237Y-24646000D01*
X-8925763Y-24646000D01*
X-9032315Y-24661320D01*
X-9140000Y-24710498D01*
X-9140000Y-23815364D01*
X-9140001Y-23815364D01*
X-9353487Y-23872567D01*
X-9353493Y-23872570D01*
X-9567578Y-23972399D01*
X-9567580Y-23972400D01*
X-9761074Y-24107886D01*
X-9761080Y-24107891D01*
X-9928109Y-24274920D01*
X-9928110Y-24274922D01*
X-10058120Y-24460595D01*
X-10112697Y-24504219D01*
X-10182196Y-24511412D01*
X-10244550Y-24479890D01*
X-10261270Y-24460594D01*
X-10391506Y-24274597D01*
X-10558598Y-24107506D01*
X-10558605Y-24107501D01*
X-10752166Y-23971967D01*
X-10752170Y-23971965D01*
X-10752170Y-23971964D01*
X-10966337Y-23872097D01*
X-10966341Y-23872096D01*
X-10966345Y-23872094D01*
X-11194587Y-23810938D01*
X-11194597Y-23810936D01*
X-11429999Y-23790341D01*
X-11430002Y-23790341D01*
X-11538980Y-23799875D01*
X-11607480Y-23786108D01*
X-11637468Y-23764028D01*
X-12233899Y-23167597D01*
X-13357113Y-22044382D01*
X-13360516Y-22040690D01*
X-13395495Y-21999508D01*
X-13395497Y-21999506D01*
X-13422677Y-21978845D01*
X-13458430Y-21951666D01*
X-13520082Y-21902109D01*
X-13522525Y-21900547D01*
X-13536753Y-21891721D01*
X-13539311Y-21890182D01*
X-13580182Y-21871273D01*
X-13611075Y-21856981D01*
X-13681916Y-21821847D01*
X-13681920Y-21821846D01*
X-13684670Y-21820835D01*
X-13700450Y-21815278D01*
X-13703253Y-21814334D01*
X-13703255Y-21814333D01*
X-13703256Y-21814333D01*
X-13780480Y-21797334D01*
X-13857221Y-21778250D01*
X-13860152Y-21777851D01*
X-13876703Y-21775824D01*
X-13879675Y-21775500D01*
X-13879678Y-21775500D01*
X-13879682Y-21775500D01*
X-13958732Y-21775500D01*
X-13961211Y-21775432D01*
X-14037806Y-21773357D01*
X-14040734Y-21773596D01*
X-14060751Y-21775500D01*
X-36164633Y-21775500D01*
X-36231672Y-21755815D01*
X-36252314Y-21739181D01*
X-36869055Y-21122440D01*
X-36902540Y-21061117D01*
X-36904950Y-21024519D01*
X-36904884Y-21023729D01*
X-36899158Y-20954610D01*
X-36884357Y-20776005D01*
X-36884357Y-20775994D01*
X-36904891Y-20528187D01*
X-36904893Y-20528175D01*
X-36965937Y-20287118D01*
X-37065827Y-20059393D01*
X-37201834Y-19851217D01*
X-37223443Y-19827744D01*
X-37370256Y-19668262D01*
X-37566491Y-19515526D01*
X-37566493Y-19515525D01*
X-37566494Y-19515524D01*
X-37785189Y-19397172D01*
X-37785198Y-19397169D01*
X-38020384Y-19316429D01*
X-38265665Y-19275500D01*
X-38514335Y-19275500D01*
X-38759617Y-19316429D01*
X-38994803Y-19397169D01*
X-38994812Y-19397172D01*
X-39213507Y-19515524D01*
X-39409743Y-19668261D01*
X-39578167Y-19851217D01*
X-39714174Y-20059393D01*
X-39814064Y-20287118D01*
X-39875108Y-20528175D01*
X-39875110Y-20528187D01*
X-39895643Y-20775994D01*
X-39895643Y-20776005D01*
X-41384859Y-20776005D01*
X-41384859Y-20775994D01*
X-41405386Y-20528270D01*
X-41405388Y-20528261D01*
X-41466413Y-20287282D01*
X-41566269Y-20059630D01*
X-41666566Y-19906116D01*
X-42364071Y-20603622D01*
X-42366884Y-20590085D01*
X-42436442Y-20455844D01*
X-42539638Y-20345348D01*
X-42668819Y-20266791D01*
X-42720005Y-20252449D01*
X-42019944Y-19552389D01*
X-42066771Y-19515943D01*
X-42285386Y-19397635D01*
X-42285397Y-19397630D01*
X-42520507Y-19316916D01*
X-42765707Y-19276000D01*
X-43014293Y-19276000D01*
X-43259494Y-19316916D01*
X-43494604Y-19397630D01*
X-43494610Y-19397632D01*
X-43713239Y-19515949D01*
X-43760058Y-19552388D01*
X-43760059Y-19552389D01*
X-43061569Y-20250878D01*
X-43178458Y-20301651D01*
X-43295739Y-20397066D01*
X-43382928Y-20520585D01*
X-43413355Y-20606197D01*
X-44117337Y-19902215D01*
X-44171100Y-19892306D01*
X-44222057Y-19844503D01*
X-44239177Y-19782157D01*
X-44241148Y-19316916D01*
X-44258301Y-15268904D01*
X-44238902Y-15201786D01*
X-44186292Y-15155808D01*
X-44121511Y-15145045D01*
X-44113436Y-15145882D01*
X-43415930Y-14448375D01*
X-43413116Y-14461915D01*
X-43343558Y-14596156D01*
X-43240362Y-14706652D01*
X-43111181Y-14785209D01*
X-43059998Y-14799549D01*
X-43760058Y-15499609D01*
X-43713232Y-15536055D01*
X-43713230Y-15536056D01*
X-43494615Y-15654364D01*
X-43494604Y-15654369D01*
X-43259494Y-15735083D01*
X-43014293Y-15776000D01*
X-42765707Y-15776000D01*
X-42520507Y-15735083D01*
X-42285397Y-15654369D01*
X-42285386Y-15654364D01*
X-42066772Y-15536057D01*
X-42066769Y-15536055D01*
X-42019944Y-15499609D01*
X-42718432Y-14801121D01*
X-42601542Y-14750349D01*
X-42484261Y-14654934D01*
X-42397072Y-14531415D01*
X-42366646Y-14445802D01*
X-41666566Y-15145882D01*
X-41566269Y-14992369D01*
X-41466413Y-14764717D01*
X-41405388Y-14523738D01*
X-41405386Y-14523729D01*
X-41384859Y-14276005D01*
X-39895643Y-14276005D01*
X-39875110Y-14523812D01*
X-39875108Y-14523824D01*
X-39814064Y-14764881D01*
X-39714174Y-14992606D01*
X-39578167Y-15200782D01*
X-39578164Y-15200785D01*
X-39409744Y-15383738D01*
X-39213509Y-15536474D01*
X-39213507Y-15536475D01*
X-38995668Y-15654364D01*
X-38994810Y-15654828D01*
X-38775859Y-15729994D01*
X-38761036Y-15735083D01*
X-38759614Y-15735571D01*
X-38514335Y-15776500D01*
X-38265665Y-15776500D01*
X-38020386Y-15735571D01*
X-37785190Y-15654828D01*
X-37566491Y-15536474D01*
X-37370256Y-15383738D01*
X-37201836Y-15200785D01*
X-37065827Y-14992607D01*
X-36965937Y-14764881D01*
X-36904892Y-14523821D01*
X-36899762Y-14461915D01*
X-36884357Y-14276005D01*
X-36884357Y-14275994D01*
X-36904891Y-14028187D01*
X-36904893Y-14028175D01*
X-36965937Y-13787118D01*
X-37065827Y-13559393D01*
X-37201834Y-13351217D01*
X-37223443Y-13327744D01*
X-37370256Y-13168262D01*
X-37566491Y-13015526D01*
X-37566493Y-13015525D01*
X-37566494Y-13015524D01*
X-37785189Y-12897172D01*
X-37785198Y-12897169D01*
X-38020384Y-12816429D01*
X-38265665Y-12775500D01*
X-38514335Y-12775500D01*
X-38759617Y-12816429D01*
X-38994803Y-12897169D01*
X-38994812Y-12897172D01*
X-39213507Y-13015524D01*
X-39409743Y-13168261D01*
X-39578167Y-13351217D01*
X-39714174Y-13559393D01*
X-39814064Y-13787118D01*
X-39875108Y-14028175D01*
X-39875110Y-14028187D01*
X-39895643Y-14275994D01*
X-39895643Y-14276005D01*
X-41384859Y-14276005D01*
X-41384859Y-14275994D01*
X-41405386Y-14028270D01*
X-41405388Y-14028261D01*
X-41466413Y-13787282D01*
X-41566269Y-13559630D01*
X-41666566Y-13406116D01*
X-42364071Y-14103622D01*
X-42366884Y-14090085D01*
X-42436442Y-13955844D01*
X-42539638Y-13845348D01*
X-42668819Y-13766791D01*
X-42720003Y-13752450D01*
X-42019943Y-13052390D01*
X-42019944Y-13052389D01*
X-42066771Y-13015943D01*
X-42285386Y-12897635D01*
X-42285397Y-12897630D01*
X-42520507Y-12816916D01*
X-42765707Y-12776000D01*
X-43014293Y-12776000D01*
X-43259494Y-12816916D01*
X-43494604Y-12897630D01*
X-43494610Y-12897632D01*
X-43713239Y-13015949D01*
X-43760058Y-13052388D01*
X-43760058Y-13052390D01*
X-43061569Y-13750878D01*
X-43178458Y-13801651D01*
X-43295739Y-13897066D01*
X-43382928Y-14020585D01*
X-43413355Y-14106196D01*
X-44113437Y-13406116D01*
X-44129919Y-13407826D01*
X-44198631Y-13395161D01*
X-44249588Y-13347358D01*
X-44266708Y-13285014D01*
X-44297170Y-6096000D01*
X-42430429Y-6096000D01*
X-42410756Y-6308310D01*
X-42385546Y-6396914D01*
X-42352404Y-6513392D01*
X-42352404Y-6513394D01*
X-42257368Y-6704253D01*
X-42128873Y-6874406D01*
X-42128872Y-6874407D01*
X-41971302Y-7018052D01*
X-41790019Y-7130298D01*
X-41591198Y-7207321D01*
X-41381610Y-7246500D01*
X-41381608Y-7246500D01*
X-41168392Y-7246500D01*
X-41168390Y-7246500D01*
X-40958802Y-7207321D01*
X-40759981Y-7130298D01*
X-40759969Y-7130290D01*
X-40757373Y-7128999D01*
X-40755479Y-7128553D01*
X-40754636Y-7128227D01*
X-40754591Y-7128344D01*
X-40702102Y-7116000D01*
X-40284560Y-7116000D01*
X-40323278Y-7158059D01*
X-40373551Y-7272670D01*
X-40383886Y-7397395D01*
X-40353163Y-7518719D01*
X-40289606Y-7616000D01*
X-41155000Y-7616000D01*
X-41155000Y-7762745D01*
X-41152268Y-7803034D01*
X-41108959Y-7977180D01*
X-41029232Y-8137935D01*
X-41029230Y-8137938D01*
X-40916804Y-8277802D01*
X-40916803Y-8277803D01*
X-40776939Y-8390229D01*
X-40776936Y-8390231D01*
X-40616181Y-8469958D01*
X-40442035Y-8513267D01*
X-40401745Y-8516000D01*
X-40255000Y-8516000D01*
X-40255000Y-7646617D01*
X-40185948Y-7700363D01*
X-40067576Y-7741000D01*
X-39973927Y-7741000D01*
X-39881554Y-7725586D01*
X-39771486Y-7666019D01*
X-39755000Y-7648110D01*
X-39755000Y-8516000D01*
X-39608255Y-8516000D01*
X-39567966Y-8513267D01*
X-39393820Y-8469958D01*
X-39233065Y-8390231D01*
X-39233062Y-8390229D01*
X-39093198Y-8277803D01*
X-39093197Y-8277802D01*
X-38980771Y-8137938D01*
X-38980769Y-8137935D01*
X-38901042Y-7977180D01*
X-38857733Y-7803034D01*
X-38855000Y-7762745D01*
X-38855000Y-7616000D01*
X-39725440Y-7616000D01*
X-39686722Y-7573941D01*
X-39636449Y-7459330D01*
X-39626114Y-7334605D01*
X-39656837Y-7213281D01*
X-39720394Y-7116000D01*
X-38855000Y-7116000D01*
X-38855000Y-6990500D01*
X-38835315Y-6923461D01*
X-38782511Y-6877706D01*
X-38731000Y-6866500D01*
X-37890856Y-6866500D01*
X-37823817Y-6886185D01*
X-37778062Y-6938989D01*
X-37772473Y-6953603D01*
X-37748478Y-7030606D01*
X-37660472Y-7176185D01*
X-37558338Y-7278319D01*
X-37524854Y-7339640D01*
X-37529838Y-7409332D01*
X-37558338Y-7453680D01*
X-37660471Y-7555813D01*
X-37748478Y-7701393D01*
X-37799087Y-7863807D01*
X-37804218Y-7920275D01*
X-37805156Y-7930605D01*
X-37805500Y-7934386D01*
X-37805500Y-8447613D01*
X-37799087Y-8518192D01*
X-37799087Y-8518194D01*
X-37799086Y-8518196D01*
X-37782651Y-8570938D01*
X-37748478Y-8680606D01*
X-37660470Y-8826188D01*
X-37540189Y-8946469D01*
X-37540187Y-8946470D01*
X-37540185Y-8946472D01*
X-37394606Y-9034478D01*
X-37232196Y-9085086D01*
X-37161616Y-9091500D01*
X-37155366Y-9091500D01*
X-37088327Y-9111185D01*
X-37067686Y-9127818D01*
X-35670413Y-10525092D01*
X-35564918Y-10609891D01*
X-35488876Y-10647604D01*
X-35410743Y-10686355D01*
X-35364263Y-10726319D01*
X-35328495Y-10777401D01*
X-35161401Y-10944495D01*
X-35064616Y-11012264D01*
X-34967835Y-11080032D01*
X-34967833Y-11080033D01*
X-34967830Y-11080035D01*
X-34753663Y-11179903D01*
X-34525408Y-11241063D01*
X-34348966Y-11256500D01*
X-34290001Y-11261659D01*
X-34290000Y-11261659D01*
X-34289999Y-11261659D01*
X-34231034Y-11256500D01*
X-34054592Y-11241063D01*
X-33826337Y-11179903D01*
X-33612170Y-11080035D01*
X-33418599Y-10944495D01*
X-33251505Y-10777401D01*
X-33121576Y-10591842D01*
X-33066998Y-10548217D01*
X-32997500Y-10541023D01*
X-32935145Y-10572546D01*
X-32918425Y-10591842D01*
X-32788719Y-10777082D01*
X-32788495Y-10777401D01*
X-32621401Y-10944495D01*
X-32524616Y-11012264D01*
X-32427835Y-11080032D01*
X-32427833Y-11080033D01*
X-32427830Y-11080035D01*
X-32213663Y-11179903D01*
X-31985408Y-11241063D01*
X-31808966Y-11256500D01*
X-31750001Y-11261659D01*
X-31750000Y-11261659D01*
X-31749999Y-11261659D01*
X-31691034Y-11256500D01*
X-31514592Y-11241063D01*
X-31286337Y-11179903D01*
X-31072170Y-11080035D01*
X-30878599Y-10944495D01*
X-30711505Y-10777401D01*
X-30581576Y-10591842D01*
X-30526998Y-10548217D01*
X-30457500Y-10541023D01*
X-30395145Y-10572546D01*
X-30378425Y-10591842D01*
X-30248719Y-10777082D01*
X-30248495Y-10777401D01*
X-30081401Y-10944495D01*
X-29984616Y-11012265D01*
X-29887835Y-11080032D01*
X-29887833Y-11080033D01*
X-29887830Y-11080035D01*
X-29673663Y-11179903D01*
X-29445408Y-11241063D01*
X-29268966Y-11256500D01*
X-29210001Y-11261659D01*
X-29210000Y-11261659D01*
X-29209999Y-11261659D01*
X-29151034Y-11256500D01*
X-28974592Y-11241063D01*
X-28746337Y-11179903D01*
X-28532170Y-11080035D01*
X-28338599Y-10944495D01*
X-28171505Y-10777401D01*
X-28041576Y-10591842D01*
X-27986998Y-10548217D01*
X-27917500Y-10541023D01*
X-27855145Y-10572546D01*
X-27838425Y-10591842D01*
X-27708719Y-10777082D01*
X-27708495Y-10777401D01*
X-27541401Y-10944495D01*
X-27444616Y-11012265D01*
X-27347835Y-11080032D01*
X-27347833Y-11080033D01*
X-27347830Y-11080035D01*
X-27133663Y-11179903D01*
X-26905408Y-11241063D01*
X-26728966Y-11256500D01*
X-26670001Y-11261659D01*
X-26670000Y-11261659D01*
X-26669999Y-11261659D01*
X-26611034Y-11256500D01*
X-26434592Y-11241063D01*
X-26206337Y-11179903D01*
X-25992170Y-11080035D01*
X-25798599Y-10944495D01*
X-25631505Y-10777401D01*
X-25501576Y-10591842D01*
X-25446998Y-10548217D01*
X-25377500Y-10541023D01*
X-25315145Y-10572546D01*
X-25298425Y-10591842D01*
X-25168719Y-10777082D01*
X-25168495Y-10777401D01*
X-25001401Y-10944495D01*
X-24904616Y-11012265D01*
X-24807835Y-11080032D01*
X-24807833Y-11080033D01*
X-24807830Y-11080035D01*
X-24593663Y-11179903D01*
X-24365408Y-11241063D01*
X-24188966Y-11256500D01*
X-24130001Y-11261659D01*
X-24130000Y-11261659D01*
X-24129999Y-11261659D01*
X-24071034Y-11256500D01*
X-23894592Y-11241063D01*
X-23666337Y-11179903D01*
X-23452170Y-11080035D01*
X-23258599Y-10944495D01*
X-23091505Y-10777401D01*
X-22961576Y-10591842D01*
X-22906998Y-10548217D01*
X-22837500Y-10541023D01*
X-22775145Y-10572546D01*
X-22758425Y-10591842D01*
X-22628719Y-10777082D01*
X-22628495Y-10777401D01*
X-22461401Y-10944495D01*
X-22364616Y-11012265D01*
X-22267835Y-11080032D01*
X-22267833Y-11080033D01*
X-22267830Y-11080035D01*
X-22053663Y-11179903D01*
X-21825408Y-11241063D01*
X-21648966Y-11256500D01*
X-21590001Y-11261659D01*
X-21590000Y-11261659D01*
X-21589999Y-11261659D01*
X-21531034Y-11256500D01*
X-21354592Y-11241063D01*
X-21126337Y-11179903D01*
X-20912170Y-11080035D01*
X-20718599Y-10944495D01*
X-20551505Y-10777401D01*
X-20421576Y-10591842D01*
X-20366998Y-10548217D01*
X-20297500Y-10541023D01*
X-20235145Y-10572546D01*
X-20218425Y-10591842D01*
X-20088719Y-10777082D01*
X-20088495Y-10777401D01*
X-19921401Y-10944495D01*
X-19824616Y-11012265D01*
X-19727835Y-11080032D01*
X-19727833Y-11080033D01*
X-19727830Y-11080035D01*
X-19513663Y-11179903D01*
X-19285408Y-11241063D01*
X-19108966Y-11256500D01*
X-19050001Y-11261659D01*
X-19050000Y-11261659D01*
X-19049999Y-11261659D01*
X-18991034Y-11256500D01*
X-18814592Y-11241063D01*
X-18586337Y-11179903D01*
X-18372170Y-11080035D01*
X-18178599Y-10944495D01*
X-18011505Y-10777401D01*
X-17881576Y-10591842D01*
X-17826998Y-10548217D01*
X-17757500Y-10541023D01*
X-17695145Y-10572546D01*
X-17678425Y-10591842D01*
X-17548719Y-10777082D01*
X-17548495Y-10777401D01*
X-17381401Y-10944495D01*
X-17284616Y-11012265D01*
X-17187835Y-11080032D01*
X-17187833Y-11080033D01*
X-17187830Y-11080035D01*
X-16973663Y-11179903D01*
X-16745408Y-11241063D01*
X-16568966Y-11256500D01*
X-16510001Y-11261659D01*
X-16510000Y-11261659D01*
X-16509999Y-11261659D01*
X-16451034Y-11256500D01*
X-16274592Y-11241063D01*
X-16046337Y-11179903D01*
X-15832170Y-11080035D01*
X-15638599Y-10944495D01*
X-15471505Y-10777401D01*
X-15341270Y-10591405D01*
X-15286693Y-10547781D01*
X-15217195Y-10540587D01*
X-15154840Y-10572110D01*
X-15138121Y-10591405D01*
X-15008110Y-10777078D01*
X-14841083Y-10944105D01*
X-14647579Y-11079600D01*
X-14433493Y-11179429D01*
X-14433484Y-11179433D01*
X-14220000Y-11236634D01*
X-14220000Y-10341501D01*
X-14112315Y-10390680D01*
X-14005763Y-10406000D01*
X-13934237Y-10406000D01*
X-13827685Y-10390680D01*
X-13720000Y-10341501D01*
X-13720000Y-11236634D01*
X-13506517Y-11179433D01*
X-13506508Y-11179429D01*
X-13292422Y-11079600D01*
X-13098918Y-10944105D01*
X-12931895Y-10777082D01*
X-12801575Y-10590968D01*
X-12746998Y-10547344D01*
X-12677499Y-10540151D01*
X-12615145Y-10571673D01*
X-12598425Y-10590968D01*
X-12468106Y-10777082D01*
X-12301083Y-10944105D01*
X-12107579Y-11079600D01*
X-11893493Y-11179429D01*
X-11893484Y-11179433D01*
X-11680000Y-11236634D01*
X-11680000Y-10341501D01*
X-11572315Y-10390680D01*
X-11465763Y-10406000D01*
X-11394237Y-10406000D01*
X-11287685Y-10390680D01*
X-11180000Y-10341501D01*
X-11180000Y-11236633D01*
X-10966517Y-11179433D01*
X-10966508Y-11179429D01*
X-10752422Y-11079600D01*
X-10558918Y-10944105D01*
X-10391895Y-10777082D01*
X-10261881Y-10591405D01*
X-10207304Y-10547781D01*
X-10137805Y-10540588D01*
X-10075451Y-10572110D01*
X-10058731Y-10591405D01*
X-9928495Y-10777401D01*
X-9761401Y-10944495D01*
X-9664616Y-11012264D01*
X-9567835Y-11080032D01*
X-9567833Y-11080033D01*
X-9567830Y-11080035D01*
X-9353663Y-11179903D01*
X-9125408Y-11241063D01*
X-8948966Y-11256500D01*
X-8890001Y-11261659D01*
X-8890000Y-11261659D01*
X-8889999Y-11261659D01*
X-8831034Y-11256500D01*
X-8654592Y-11241063D01*
X-8426337Y-11179903D01*
X-8212170Y-11080035D01*
X-8018599Y-10944495D01*
X-7896671Y-10822566D01*
X-7835352Y-10789084D01*
X-7765660Y-10794068D01*
X-7709726Y-10835939D01*
X-7692811Y-10866917D01*
X-7643798Y-10998328D01*
X-7643794Y-10998335D01*
X-7557548Y-11113544D01*
X-7557545Y-11113547D01*
X-7442336Y-11199793D01*
X-7442329Y-11199797D01*
X-7307483Y-11250091D01*
X-7307484Y-11250091D01*
X-7300556Y-11250835D01*
X-7247873Y-11256500D01*
X-5452128Y-11256499D01*
X-5392517Y-11250091D01*
X-5257669Y-11199796D01*
X-5142454Y-11113546D01*
X-5056204Y-10998331D01*
X-5005909Y-10863483D01*
X-4999500Y-10803873D01*
X-4999501Y-9781364D01*
X-4979817Y-9714326D01*
X-4963187Y-9693689D01*
X-4328379Y-9058881D01*
X-4324712Y-9055501D01*
X-4283506Y-9020502D01*
X-4235659Y-8957559D01*
X-4186109Y-8895918D01*
X-4186109Y-8895916D01*
X-4186107Y-8895915D01*
X-4184464Y-8893343D01*
X-4175800Y-8879376D01*
X-4174188Y-8876697D01*
X-4174184Y-8876692D01*
X-4140982Y-8804925D01*
X-4105847Y-8734084D01*
X-4105846Y-8734077D01*
X-4104747Y-8731087D01*
X-4099330Y-8715701D01*
X-4098337Y-8712751D01*
X-4098333Y-8712744D01*
X-4081334Y-8635515D01*
X-4065274Y-8570937D01*
X-4062251Y-8558783D01*
X-4061845Y-8555796D01*
X-4059830Y-8539355D01*
X-4059500Y-8536324D01*
X-4059500Y-8457266D01*
X-4059239Y-8447616D01*
X-4057358Y-8378200D01*
X-4057359Y-8378199D01*
X-4057358Y-8378194D01*
X-4057597Y-8375264D01*
X-4059501Y-8355259D01*
X-4059501Y-7986061D01*
X-4048575Y-7935167D01*
X-4046522Y-7930605D01*
X-3995914Y-7768196D01*
X-3989500Y-7697616D01*
X-3989500Y-7034384D01*
X-3995914Y-6963804D01*
X-4046522Y-6801394D01*
X-4134528Y-6655815D01*
X-4134530Y-6655813D01*
X-4134531Y-6655811D01*
X-4254812Y-6535530D01*
X-4258650Y-6533210D01*
X-4400394Y-6447522D01*
X-4562804Y-6396914D01*
X-4562806Y-6396913D01*
X-4562808Y-6396913D01*
X-4612222Y-6392423D01*
X-4633384Y-6390500D01*
X-5146616Y-6390500D01*
X-5165855Y-6392248D01*
X-5217193Y-6396913D01*
X-5379607Y-6447522D01*
X-5469419Y-6501815D01*
X-5521352Y-6533210D01*
X-5588905Y-6551046D01*
X-5655378Y-6529528D01*
X-5699666Y-6475488D01*
X-5709500Y-6427093D01*
X-5709500Y-6300499D01*
X-5689815Y-6233460D01*
X-5637011Y-6187705D01*
X-5585500Y-6176499D01*
X-5452129Y-6176499D01*
X-5452128Y-6176499D01*
X-5392517Y-6170091D01*
X-5257669Y-6119796D01*
X-5142454Y-6033546D01*
X-5056204Y-5918331D01*
X-5005909Y-5783483D01*
X-4999500Y-5723873D01*
X-4999501Y-3928128D01*
X-5005909Y-3868517D01*
X-5007190Y-3865083D01*
X-5056203Y-3733671D01*
X-5056207Y-3733664D01*
X-5142453Y-3618455D01*
X-5142456Y-3618452D01*
X-5257665Y-3532206D01*
X-5257672Y-3532202D01*
X-5392518Y-3481908D01*
X-5392517Y-3481908D01*
X-5452117Y-3475501D01*
X-5452119Y-3475500D01*
X-5452127Y-3475500D01*
X-5452136Y-3475500D01*
X-7247871Y-3475500D01*
X-7247877Y-3475501D01*
X-7307484Y-3481908D01*
X-7442329Y-3532202D01*
X-7442336Y-3532206D01*
X-7557545Y-3618452D01*
X-7557548Y-3618455D01*
X-7643794Y-3733664D01*
X-7643797Y-3733669D01*
X-7692811Y-3865083D01*
X-7734683Y-3921016D01*
X-7800147Y-3945433D01*
X-7868420Y-3930581D01*
X-7896674Y-3909430D01*
X-8018598Y-3787506D01*
X-8018605Y-3787501D01*
X-8212166Y-3651967D01*
X-8212170Y-3651965D01*
X-8212170Y-3651964D01*
X-8426337Y-3552097D01*
X-8426341Y-3552096D01*
X-8426345Y-3552094D01*
X-8654587Y-3490938D01*
X-8654597Y-3490936D01*
X-8889999Y-3470341D01*
X-8890001Y-3470341D01*
X-9125404Y-3490936D01*
X-9125414Y-3490938D01*
X-9353656Y-3552094D01*
X-9353665Y-3552098D01*
X-9567829Y-3651964D01*
X-9567831Y-3651965D01*
X-9761403Y-3787505D01*
X-9928495Y-3954597D01*
X-10058425Y-4140158D01*
X-10113002Y-4183783D01*
X-10182500Y-4190977D01*
X-10244855Y-4159454D01*
X-10261575Y-4140158D01*
X-10391506Y-3954597D01*
X-10558598Y-3787506D01*
X-10558605Y-3787501D01*
X-10752166Y-3651967D01*
X-10752170Y-3651965D01*
X-10752171Y-3651964D01*
X-10966337Y-3552097D01*
X-10966341Y-3552096D01*
X-10966345Y-3552094D01*
X-11194587Y-3490938D01*
X-11194597Y-3490936D01*
X-11429999Y-3470341D01*
X-11430001Y-3470341D01*
X-11665404Y-3490936D01*
X-11665414Y-3490938D01*
X-11893656Y-3552094D01*
X-11893665Y-3552098D01*
X-12107829Y-3651964D01*
X-12107831Y-3651965D01*
X-12301403Y-3787505D01*
X-12468495Y-3954597D01*
X-12598425Y-4140158D01*
X-12653002Y-4183783D01*
X-12722500Y-4190977D01*
X-12784855Y-4159454D01*
X-12801575Y-4140158D01*
X-12931506Y-3954597D01*
X-13098598Y-3787506D01*
X-13098605Y-3787501D01*
X-13292166Y-3651967D01*
X-13292170Y-3651965D01*
X-13292171Y-3651964D01*
X-13506337Y-3552097D01*
X-13506341Y-3552096D01*
X-13506345Y-3552094D01*
X-13734587Y-3490938D01*
X-13734597Y-3490936D01*
X-13969999Y-3470341D01*
X-13970001Y-3470341D01*
X-14205404Y-3490936D01*
X-14205414Y-3490938D01*
X-14433656Y-3552094D01*
X-14433665Y-3552098D01*
X-14647829Y-3651964D01*
X-14647831Y-3651965D01*
X-14841403Y-3787505D01*
X-15008495Y-3954597D01*
X-15138425Y-4140158D01*
X-15193002Y-4183783D01*
X-15262500Y-4190977D01*
X-15324855Y-4159454D01*
X-15341575Y-4140158D01*
X-15471506Y-3954597D01*
X-15638598Y-3787506D01*
X-15638605Y-3787501D01*
X-15832166Y-3651967D01*
X-15832170Y-3651965D01*
X-15832171Y-3651964D01*
X-16046337Y-3552097D01*
X-16046341Y-3552096D01*
X-16046345Y-3552094D01*
X-16274587Y-3490938D01*
X-16274597Y-3490936D01*
X-16509999Y-3470341D01*
X-16510001Y-3470341D01*
X-16745404Y-3490936D01*
X-16745414Y-3490938D01*
X-16973656Y-3552094D01*
X-16973665Y-3552098D01*
X-17187829Y-3651964D01*
X-17187831Y-3651965D01*
X-17381403Y-3787505D01*
X-17548495Y-3954597D01*
X-17678425Y-4140158D01*
X-17733002Y-4183783D01*
X-17802500Y-4190977D01*
X-17864855Y-4159454D01*
X-17881575Y-4140158D01*
X-18011506Y-3954597D01*
X-18178598Y-3787506D01*
X-18178605Y-3787501D01*
X-18372166Y-3651967D01*
X-18372170Y-3651965D01*
X-18372170Y-3651964D01*
X-18586337Y-3552097D01*
X-18586341Y-3552096D01*
X-18586345Y-3552094D01*
X-18814587Y-3490938D01*
X-18814597Y-3490936D01*
X-19049999Y-3470341D01*
X-19050001Y-3470341D01*
X-19285404Y-3490936D01*
X-19285414Y-3490938D01*
X-19513656Y-3552094D01*
X-19513665Y-3552098D01*
X-19727829Y-3651964D01*
X-19727831Y-3651965D01*
X-19921403Y-3787505D01*
X-20088495Y-3954597D01*
X-20218425Y-4140158D01*
X-20273002Y-4183783D01*
X-20342500Y-4190977D01*
X-20404855Y-4159454D01*
X-20421575Y-4140158D01*
X-20551506Y-3954597D01*
X-20718598Y-3787506D01*
X-20718605Y-3787501D01*
X-20912166Y-3651967D01*
X-20912170Y-3651965D01*
X-20912171Y-3651964D01*
X-21126337Y-3552097D01*
X-21126341Y-3552096D01*
X-21126345Y-3552094D01*
X-21354587Y-3490938D01*
X-21354597Y-3490936D01*
X-21589999Y-3470341D01*
X-21590001Y-3470341D01*
X-21825404Y-3490936D01*
X-21825414Y-3490938D01*
X-22053656Y-3552094D01*
X-22053665Y-3552098D01*
X-22267829Y-3651964D01*
X-22267831Y-3651965D01*
X-22461403Y-3787505D01*
X-22628495Y-3954597D01*
X-22758425Y-4140158D01*
X-22813002Y-4183783D01*
X-22882500Y-4190977D01*
X-22944855Y-4159454D01*
X-22961575Y-4140158D01*
X-23091506Y-3954597D01*
X-23258598Y-3787506D01*
X-23258605Y-3787501D01*
X-23452166Y-3651967D01*
X-23452170Y-3651965D01*
X-23452170Y-3651964D01*
X-23666337Y-3552097D01*
X-23666341Y-3552096D01*
X-23666345Y-3552094D01*
X-23894587Y-3490938D01*
X-23894597Y-3490936D01*
X-24129999Y-3470341D01*
X-24130001Y-3470341D01*
X-24365404Y-3490936D01*
X-24365414Y-3490938D01*
X-24593656Y-3552094D01*
X-24593665Y-3552098D01*
X-24807829Y-3651964D01*
X-24807831Y-3651965D01*
X-25001403Y-3787505D01*
X-25168495Y-3954597D01*
X-25298425Y-4140158D01*
X-25353002Y-4183783D01*
X-25422500Y-4190977D01*
X-25484855Y-4159454D01*
X-25501575Y-4140158D01*
X-25631506Y-3954597D01*
X-25798598Y-3787506D01*
X-25798605Y-3787501D01*
X-25992166Y-3651967D01*
X-25992170Y-3651965D01*
X-25992170Y-3651964D01*
X-26206337Y-3552097D01*
X-26206341Y-3552096D01*
X-26206345Y-3552094D01*
X-26434587Y-3490938D01*
X-26434597Y-3490936D01*
X-26669999Y-3470341D01*
X-26670001Y-3470341D01*
X-26905404Y-3490936D01*
X-26905414Y-3490938D01*
X-27133656Y-3552094D01*
X-27133665Y-3552098D01*
X-27347829Y-3651964D01*
X-27347831Y-3651965D01*
X-27541403Y-3787505D01*
X-27708495Y-3954597D01*
X-27838425Y-4140158D01*
X-27893002Y-4183783D01*
X-27962500Y-4190977D01*
X-28024855Y-4159454D01*
X-28041575Y-4140158D01*
X-28171506Y-3954597D01*
X-28338598Y-3787506D01*
X-28338605Y-3787501D01*
X-28532166Y-3651967D01*
X-28532170Y-3651965D01*
X-28532171Y-3651964D01*
X-28746337Y-3552097D01*
X-28746341Y-3552096D01*
X-28746345Y-3552094D01*
X-28974587Y-3490938D01*
X-28974597Y-3490936D01*
X-29209999Y-3470341D01*
X-29210001Y-3470341D01*
X-29445404Y-3490936D01*
X-29445414Y-3490938D01*
X-29673656Y-3552094D01*
X-29673665Y-3552098D01*
X-29887829Y-3651964D01*
X-29887831Y-3651965D01*
X-30081403Y-3787505D01*
X-30248495Y-3954597D01*
X-30378425Y-4140158D01*
X-30433002Y-4183783D01*
X-30502500Y-4190977D01*
X-30564855Y-4159454D01*
X-30581575Y-4140158D01*
X-30711506Y-3954597D01*
X-30878598Y-3787506D01*
X-30878605Y-3787501D01*
X-31072166Y-3651967D01*
X-31072170Y-3651965D01*
X-31072170Y-3651964D01*
X-31286337Y-3552097D01*
X-31286341Y-3552096D01*
X-31286345Y-3552094D01*
X-31514587Y-3490938D01*
X-31514597Y-3490936D01*
X-31749999Y-3470341D01*
X-31750001Y-3470341D01*
X-31985404Y-3490936D01*
X-31985414Y-3490938D01*
X-32213656Y-3552094D01*
X-32213665Y-3552098D01*
X-32427829Y-3651964D01*
X-32427831Y-3651965D01*
X-32621403Y-3787505D01*
X-32788495Y-3954597D01*
X-32918425Y-4140158D01*
X-32973002Y-4183783D01*
X-33042500Y-4190977D01*
X-33104855Y-4159454D01*
X-33121575Y-4140158D01*
X-33251506Y-3954597D01*
X-33418598Y-3787506D01*
X-33418605Y-3787501D01*
X-33612166Y-3651967D01*
X-33612170Y-3651965D01*
X-33612171Y-3651964D01*
X-33826337Y-3552097D01*
X-33826341Y-3552096D01*
X-33826345Y-3552094D01*
X-34054587Y-3490938D01*
X-34054597Y-3490936D01*
X-34289999Y-3470341D01*
X-34290001Y-3470341D01*
X-34525404Y-3490936D01*
X-34525414Y-3490938D01*
X-34753656Y-3552094D01*
X-34753665Y-3552098D01*
X-34967829Y-3651964D01*
X-34967831Y-3651965D01*
X-35161403Y-3787505D01*
X-35332324Y-3958427D01*
X-35333989Y-3956762D01*
X-35383849Y-3989917D01*
X-35420638Y-3995500D01*
X-39160232Y-3995500D01*
X-39227271Y-3975815D01*
X-39243770Y-3963137D01*
X-39308697Y-3903949D01*
X-39308698Y-3903948D01*
X-39489981Y-3791702D01*
X-39489983Y-3791701D01*
X-39639796Y-3733664D01*
X-39688802Y-3714679D01*
X-39898390Y-3675500D01*
X-40111610Y-3675500D01*
X-40321198Y-3714679D01*
X-40321201Y-3714679D01*
X-40321201Y-3714680D01*
X-40520018Y-3791701D01*
X-40520020Y-3791702D01*
X-40701301Y-3903947D01*
X-40858873Y-4047593D01*
X-40987368Y-4217746D01*
X-41082404Y-4408605D01*
X-41082404Y-4408607D01*
X-41140756Y-4613689D01*
X-41160958Y-4831708D01*
X-41163362Y-4831485D01*
X-41180114Y-4888539D01*
X-41232918Y-4934294D01*
X-41284429Y-4945500D01*
X-41381610Y-4945500D01*
X-41591198Y-4984679D01*
X-41591201Y-4984679D01*
X-41591201Y-4984680D01*
X-41790018Y-5061701D01*
X-41790020Y-5061702D01*
X-41971301Y-5173947D01*
X-42128873Y-5317593D01*
X-42257368Y-5487746D01*
X-42352404Y-5678605D01*
X-42352404Y-5678607D01*
X-42410756Y-5883689D01*
X-42421536Y-6000032D01*
X-42430429Y-6096000D01*
X-44297170Y-6096000D01*
X-44320821Y-514225D01*
X-44320323Y-506119D01*
X-44306067Y-394484D01*
X-44297780Y-363113D01*
X-44259716Y-270385D01*
X-44243573Y-242239D01*
X-44182742Y-162557D01*
X-44159849Y-139567D01*
X-44080428Y-78401D01*
X-44052354Y-62140D01*
X-43959777Y-23679D01*
X-43928444Y-15261D01*
X-43816888Y-533D01*
X-43808766Y0D01*
X-512068Y0D01*
X-503968Y-530D01*
G37*
%TD.AperFunction*%
%TD*%
M02*
