%TF.GenerationSoftware,KiCad,Pcbnew,(6.0.4)*%
%TF.CreationDate,2022-03-28T20:41:10-07:00*%
%TF.ProjectId,als holder,616c7320-686f-46c6-9465-722e6b696361,rev?*%
%TF.SameCoordinates,PX8198450PY6350ce0*%
%TF.FileFunction,Copper,L1,Top*%
%TF.FilePolarity,Positive*%
%FSLAX46Y46*%
G04 Gerber Fmt 4.6, Leading zero omitted, Abs format (unit mm)*
G04 Created by KiCad (PCBNEW (6.0.4)) date 2022-03-28 20:41:10*
%MOMM*%
%LPD*%
G01*
G04 APERTURE LIST*
G04 Aperture macros list*
%AMFreePoly0*
4,1,15,0.512500,0.170617,0.551569,0.170583,0.621679,0.136766,0.670188,0.075890,0.687500,0.000000,0.687499,-0.000611,0.669923,-0.076440,0.621201,-0.137146,0.550973,-0.170719,0.512500,-0.170618,0.512500,-0.175000,-0.512500,-0.175000,-0.512500,0.175000,0.512500,0.175000,0.512500,0.170617,0.512500,0.170617,$1*%
%AMFreePoly1*
4,1,14,0.512500,-0.175000,-0.512500,-0.175000,-0.512500,-0.170618,-0.551866,-0.170515,-0.621917,-0.136575,-0.670321,-0.075615,-0.687500,0.000305,-0.670056,0.076165,-0.621440,0.136956,-0.551271,0.170651,-0.512500,0.170617,-0.512500,0.175000,0.512500,0.175000,0.512500,-0.175000,0.512500,-0.175000,$1*%
G04 Aperture macros list end*
%ADD10C,0.150000*%
%TA.AperFunction,NonConductor*%
%ADD11C,0.150000*%
%TD*%
%TA.AperFunction,SMDPad,CuDef*%
%ADD12R,1.200000X0.350000*%
%TD*%
%TA.AperFunction,SMDPad,CuDef*%
%ADD13FreePoly0,0.000000*%
%TD*%
%TA.AperFunction,SMDPad,CuDef*%
%ADD14FreePoly1,0.000000*%
%TD*%
%TA.AperFunction,ComponentPad*%
%ADD15R,1.700000X1.700000*%
%TD*%
%TA.AperFunction,Conductor*%
%ADD16C,0.250000*%
%TD*%
G04 APERTURE END LIST*
D10*
D11*
X6500952Y-1436666D02*
X6977142Y-1436666D01*
X6405714Y-1722380D02*
X6739047Y-722380D01*
X7072380Y-1722380D01*
X7881904Y-1722380D02*
X7405714Y-1722380D01*
X7405714Y-722380D01*
X8167619Y-1674761D02*
X8310476Y-1722380D01*
X8548571Y-1722380D01*
X8643809Y-1674761D01*
X8691428Y-1627142D01*
X8739047Y-1531904D01*
X8739047Y-1436666D01*
X8691428Y-1341428D01*
X8643809Y-1293809D01*
X8548571Y-1246190D01*
X8358095Y-1198571D01*
X8262857Y-1150952D01*
X8215238Y-1103333D01*
X8167619Y-1008095D01*
X8167619Y-912857D01*
X8215238Y-817619D01*
X8262857Y-770000D01*
X8358095Y-722380D01*
X8596190Y-722380D01*
X8739047Y-770000D01*
D12*
%TO.P,U1,1,VDD*%
%TO.N,VDD*%
X6870000Y-4430000D03*
D13*
%TO.P,U1,2,SCL*%
%TO.N,Net-(TP6-Pad1)*%
X6782500Y-5080000D03*
%TO.P,U1,3,GND*%
%TO.N,GND*%
X6782500Y-5730000D03*
D14*
%TO.P,U1,4,NC*%
%TO.N,unconnected-(U1-Pad4)*%
X8457500Y-5730000D03*
%TO.P,U1,5,INT*%
%TO.N,Net-(TP4-Pad1)*%
X8457500Y-5080000D03*
%TO.P,U1,6,SDA*%
%TO.N,Net-(TP5-Pad1)*%
X8457500Y-4430000D03*
%TD*%
D15*
%TO.P,TP5,1,1*%
%TO.N,Net-(TP5-Pad1)*%
X12700000Y-2540000D03*
%TD*%
%TO.P,TP1,1,1*%
%TO.N,VDD*%
X2540000Y-2540000D03*
%TD*%
%TO.P,TP2,1,1*%
%TO.N,unconnected-(TP2-Pad1)*%
X12700000Y-7620000D03*
%TD*%
%TO.P,TP4,1,1*%
%TO.N,Net-(TP4-Pad1)*%
X12700000Y-5080000D03*
%TD*%
%TO.P,TP6,1,1*%
%TO.N,Net-(TP6-Pad1)*%
X2540000Y-5080000D03*
%TD*%
%TO.P,TP3,1,1*%
%TO.N,GND*%
X2540000Y-7620000D03*
%TD*%
D16*
%TO.N,VDD*%
X6870000Y-4430000D02*
X5080000Y-4430000D01*
X5080000Y-4430000D02*
X3620000Y-2970000D01*
X3620000Y-2970000D02*
X2540000Y-2970000D01*
%TO.N,GND*%
X5440000Y-5730000D02*
X3550000Y-7620000D01*
X3550000Y-7620000D02*
X2540000Y-7620000D01*
X6782500Y-5730000D02*
X5440000Y-5730000D01*
%TO.N,Net-(TP4-Pad1)*%
X8457500Y-5080000D02*
X12700000Y-5080000D01*
%TO.N,Net-(TP5-Pad1)*%
X8457500Y-4430000D02*
X9740000Y-4430000D01*
X11630000Y-2540000D02*
X12700000Y-2540000D01*
X9740000Y-4430000D02*
X11630000Y-2540000D01*
%TO.N,Net-(TP6-Pad1)*%
X6782500Y-5080000D02*
X2540000Y-5080000D01*
%TO.N,unconnected-(U1-Pad4)*%
X8457500Y-5730000D02*
X10680000Y-5730000D01*
X10680000Y-5730000D02*
X10710000Y-5760000D01*
%TD*%
M02*
