%TF.GenerationSoftware,KiCad,Pcbnew,9.0.1*%
%TF.CreationDate,2025-08-02T01:33:37-07:00*%
%TF.ProjectId,bottom,626f7474-6f6d-42e6-9b69-6361645f7063,A1*%
%TF.SameCoordinates,PX578c1c0PY3d09000*%
%TF.FileFunction,Legend,Bot*%
%TF.FilePolarity,Positive*%
%FSLAX46Y46*%
G04 Gerber Fmt 4.6, Leading zero omitted, Abs format (unit mm)*
G04 Created by KiCad (PCBNEW 9.0.1) date 2025-08-02 01:33:37*
%MOMM*%
%LPD*%
G01*
G04 APERTURE LIST*
%ADD10C,0.100000*%
%ADD11C,0.200000*%
%ADD12C,0.150000*%
G04 APERTURE END LIST*
D10*
X7953925Y-40978419D02*
X8430115Y-40978419D01*
X8430115Y-40978419D02*
X8477734Y-41454609D01*
X8477734Y-41454609D02*
X8430115Y-41406990D01*
X8430115Y-41406990D02*
X8334877Y-41359371D01*
X8334877Y-41359371D02*
X8096782Y-41359371D01*
X8096782Y-41359371D02*
X8001544Y-41406990D01*
X8001544Y-41406990D02*
X7953925Y-41454609D01*
X7953925Y-41454609D02*
X7906306Y-41549847D01*
X7906306Y-41549847D02*
X7906306Y-41787942D01*
X7906306Y-41787942D02*
X7953925Y-41883180D01*
X7953925Y-41883180D02*
X8001544Y-41930800D01*
X8001544Y-41930800D02*
X8096782Y-41978419D01*
X8096782Y-41978419D02*
X8334877Y-41978419D01*
X8334877Y-41978419D02*
X8430115Y-41930800D01*
X8430115Y-41930800D02*
X8477734Y-41883180D01*
X7572972Y-41311752D02*
X7334877Y-41978419D01*
X7334877Y-41978419D02*
X7096782Y-41311752D01*
D11*
X19234802Y-15108742D02*
X19330041Y-15013504D01*
X19330041Y-15013504D02*
X19520517Y-14727790D01*
X19520517Y-14727790D02*
X19615755Y-14537314D01*
X19615755Y-14537314D02*
X19710993Y-14251600D01*
X19710993Y-14251600D02*
X19806231Y-13775409D01*
X19806231Y-13775409D02*
X19806231Y-13394457D01*
X19806231Y-13394457D02*
X19710993Y-12918266D01*
X19710993Y-12918266D02*
X19615755Y-12632552D01*
X19615755Y-12632552D02*
X19520517Y-12442076D01*
X19520517Y-12442076D02*
X19330041Y-12156361D01*
X19330041Y-12156361D02*
X19234802Y-12061123D01*
X17044327Y-12251600D02*
X18758612Y-14823028D01*
X15806231Y-13680171D02*
X15806231Y-14061123D01*
X16282422Y-13013504D02*
X16377660Y-13108742D01*
X16377660Y-13108742D02*
X16472898Y-13299219D01*
X16472898Y-13299219D02*
X16472898Y-14061123D01*
X16472898Y-14061123D02*
X16377660Y-14251600D01*
X16377660Y-14251600D02*
X16187184Y-14346838D01*
X16187184Y-14346838D02*
X16091946Y-14346838D01*
X16091946Y-14346838D02*
X15901470Y-14251600D01*
X15901470Y-14251600D02*
X15806231Y-14061123D01*
X15806231Y-14061123D02*
X15710993Y-14251600D01*
X15710993Y-14251600D02*
X15520517Y-14346838D01*
X15520517Y-14346838D02*
X15425279Y-14346838D01*
X15425279Y-14346838D02*
X15234803Y-14251600D01*
X15234803Y-14251600D02*
X15139565Y-14061123D01*
X15139565Y-14061123D02*
X15139565Y-13299219D01*
X15139565Y-13299219D02*
X15234803Y-13108742D01*
X15234803Y-13108742D02*
X15330041Y-13013504D01*
X14377660Y-12251600D02*
X13044327Y-14156361D01*
X12377660Y-15108742D02*
X12282422Y-15013504D01*
X12282422Y-15013504D02*
X12091946Y-14727790D01*
X12091946Y-14727790D02*
X11996708Y-14537314D01*
X11996708Y-14537314D02*
X11901470Y-14251600D01*
X11901470Y-14251600D02*
X11806232Y-13775409D01*
X11806232Y-13775409D02*
X11806232Y-13394457D01*
X11806232Y-13394457D02*
X11901470Y-12918266D01*
X11901470Y-12918266D02*
X11996708Y-12632552D01*
X11996708Y-12632552D02*
X12091946Y-12442076D01*
X12091946Y-12442076D02*
X12282422Y-12156361D01*
X12282422Y-12156361D02*
X12377660Y-12061123D01*
D10*
X8769830Y-35614800D02*
X8655544Y-35652895D01*
X8655544Y-35652895D02*
X8465068Y-35652895D01*
X8465068Y-35652895D02*
X8388877Y-35614800D01*
X8388877Y-35614800D02*
X8350782Y-35576704D01*
X8350782Y-35576704D02*
X8312687Y-35500514D01*
X8312687Y-35500514D02*
X8312687Y-35424323D01*
X8312687Y-35424323D02*
X8350782Y-35348133D01*
X8350782Y-35348133D02*
X8388877Y-35310038D01*
X8388877Y-35310038D02*
X8465068Y-35271942D01*
X8465068Y-35271942D02*
X8617449Y-35233847D01*
X8617449Y-35233847D02*
X8693639Y-35195752D01*
X8693639Y-35195752D02*
X8731734Y-35157657D01*
X8731734Y-35157657D02*
X8769830Y-35081466D01*
X8769830Y-35081466D02*
X8769830Y-35005276D01*
X8769830Y-35005276D02*
X8731734Y-34929085D01*
X8731734Y-34929085D02*
X8693639Y-34890990D01*
X8693639Y-34890990D02*
X8617449Y-34852895D01*
X8617449Y-34852895D02*
X8426972Y-34852895D01*
X8426972Y-34852895D02*
X8312687Y-34890990D01*
X7969829Y-35652895D02*
X7969829Y-34852895D01*
X7969829Y-34852895D02*
X7779353Y-34852895D01*
X7779353Y-34852895D02*
X7665067Y-34890990D01*
X7665067Y-34890990D02*
X7588877Y-34967180D01*
X7588877Y-34967180D02*
X7550782Y-35043371D01*
X7550782Y-35043371D02*
X7512686Y-35195752D01*
X7512686Y-35195752D02*
X7512686Y-35310038D01*
X7512686Y-35310038D02*
X7550782Y-35462419D01*
X7550782Y-35462419D02*
X7588877Y-35538609D01*
X7588877Y-35538609D02*
X7665067Y-35614800D01*
X7665067Y-35614800D02*
X7779353Y-35652895D01*
X7779353Y-35652895D02*
X7969829Y-35652895D01*
X7207925Y-35424323D02*
X6826972Y-35424323D01*
X7284115Y-35652895D02*
X7017448Y-34852895D01*
X7017448Y-34852895D02*
X6750782Y-35652895D01*
X4248687Y-34890990D02*
X4324877Y-34852895D01*
X4324877Y-34852895D02*
X4439163Y-34852895D01*
X4439163Y-34852895D02*
X4553449Y-34890990D01*
X4553449Y-34890990D02*
X4629639Y-34967180D01*
X4629639Y-34967180D02*
X4667734Y-35043371D01*
X4667734Y-35043371D02*
X4705830Y-35195752D01*
X4705830Y-35195752D02*
X4705830Y-35310038D01*
X4705830Y-35310038D02*
X4667734Y-35462419D01*
X4667734Y-35462419D02*
X4629639Y-35538609D01*
X4629639Y-35538609D02*
X4553449Y-35614800D01*
X4553449Y-35614800D02*
X4439163Y-35652895D01*
X4439163Y-35652895D02*
X4362972Y-35652895D01*
X4362972Y-35652895D02*
X4248687Y-35614800D01*
X4248687Y-35614800D02*
X4210591Y-35576704D01*
X4210591Y-35576704D02*
X4210591Y-35310038D01*
X4210591Y-35310038D02*
X4362972Y-35310038D01*
X3867734Y-35652895D02*
X3867734Y-34852895D01*
X3867734Y-34852895D02*
X3410591Y-35652895D01*
X3410591Y-35652895D02*
X3410591Y-34852895D01*
X3029639Y-35652895D02*
X3029639Y-34852895D01*
X3029639Y-34852895D02*
X2839163Y-34852895D01*
X2839163Y-34852895D02*
X2724877Y-34890990D01*
X2724877Y-34890990D02*
X2648687Y-34967180D01*
X2648687Y-34967180D02*
X2610592Y-35043371D01*
X2610592Y-35043371D02*
X2572496Y-35195752D01*
X2572496Y-35195752D02*
X2572496Y-35310038D01*
X2572496Y-35310038D02*
X2610592Y-35462419D01*
X2610592Y-35462419D02*
X2648687Y-35538609D01*
X2648687Y-35538609D02*
X2724877Y-35614800D01*
X2724877Y-35614800D02*
X2839163Y-35652895D01*
X2839163Y-35652895D02*
X3029639Y-35652895D01*
X4451830Y-41964800D02*
X4337544Y-42002895D01*
X4337544Y-42002895D02*
X4147068Y-42002895D01*
X4147068Y-42002895D02*
X4070877Y-41964800D01*
X4070877Y-41964800D02*
X4032782Y-41926704D01*
X4032782Y-41926704D02*
X3994687Y-41850514D01*
X3994687Y-41850514D02*
X3994687Y-41774323D01*
X3994687Y-41774323D02*
X4032782Y-41698133D01*
X4032782Y-41698133D02*
X4070877Y-41660038D01*
X4070877Y-41660038D02*
X4147068Y-41621942D01*
X4147068Y-41621942D02*
X4299449Y-41583847D01*
X4299449Y-41583847D02*
X4375639Y-41545752D01*
X4375639Y-41545752D02*
X4413734Y-41507657D01*
X4413734Y-41507657D02*
X4451830Y-41431466D01*
X4451830Y-41431466D02*
X4451830Y-41355276D01*
X4451830Y-41355276D02*
X4413734Y-41279085D01*
X4413734Y-41279085D02*
X4375639Y-41240990D01*
X4375639Y-41240990D02*
X4299449Y-41202895D01*
X4299449Y-41202895D02*
X4108972Y-41202895D01*
X4108972Y-41202895D02*
X3994687Y-41240990D01*
X3194686Y-41926704D02*
X3232782Y-41964800D01*
X3232782Y-41964800D02*
X3347067Y-42002895D01*
X3347067Y-42002895D02*
X3423258Y-42002895D01*
X3423258Y-42002895D02*
X3537544Y-41964800D01*
X3537544Y-41964800D02*
X3613734Y-41888609D01*
X3613734Y-41888609D02*
X3651829Y-41812419D01*
X3651829Y-41812419D02*
X3689925Y-41660038D01*
X3689925Y-41660038D02*
X3689925Y-41545752D01*
X3689925Y-41545752D02*
X3651829Y-41393371D01*
X3651829Y-41393371D02*
X3613734Y-41317180D01*
X3613734Y-41317180D02*
X3537544Y-41240990D01*
X3537544Y-41240990D02*
X3423258Y-41202895D01*
X3423258Y-41202895D02*
X3347067Y-41202895D01*
X3347067Y-41202895D02*
X3232782Y-41240990D01*
X3232782Y-41240990D02*
X3194686Y-41279085D01*
X2470877Y-42002895D02*
X2851829Y-42002895D01*
X2851829Y-42002895D02*
X2851829Y-41202895D01*
D12*
X17752238Y-70607057D02*
X17847476Y-70559438D01*
X17847476Y-70559438D02*
X17942714Y-70464200D01*
X17942714Y-70464200D02*
X18085571Y-70321342D01*
X18085571Y-70321342D02*
X18180809Y-70273723D01*
X18180809Y-70273723D02*
X18276047Y-70273723D01*
X18228428Y-70511819D02*
X18323666Y-70464200D01*
X18323666Y-70464200D02*
X18418904Y-70368961D01*
X18418904Y-70368961D02*
X18466523Y-70178485D01*
X18466523Y-70178485D02*
X18466523Y-69845152D01*
X18466523Y-69845152D02*
X18418904Y-69654676D01*
X18418904Y-69654676D02*
X18323666Y-69559438D01*
X18323666Y-69559438D02*
X18228428Y-69511819D01*
X18228428Y-69511819D02*
X18037952Y-69511819D01*
X18037952Y-69511819D02*
X17942714Y-69559438D01*
X17942714Y-69559438D02*
X17847476Y-69654676D01*
X17847476Y-69654676D02*
X17799857Y-69845152D01*
X17799857Y-69845152D02*
X17799857Y-70178485D01*
X17799857Y-70178485D02*
X17847476Y-70368961D01*
X17847476Y-70368961D02*
X17942714Y-70464200D01*
X17942714Y-70464200D02*
X18037952Y-70511819D01*
X18037952Y-70511819D02*
X18228428Y-70511819D01*
X16799857Y-70511819D02*
X17133190Y-70035628D01*
X17371285Y-70511819D02*
X17371285Y-69511819D01*
X17371285Y-69511819D02*
X16990333Y-69511819D01*
X16990333Y-69511819D02*
X16895095Y-69559438D01*
X16895095Y-69559438D02*
X16847476Y-69607057D01*
X16847476Y-69607057D02*
X16799857Y-69702295D01*
X16799857Y-69702295D02*
X16799857Y-69845152D01*
X16799857Y-69845152D02*
X16847476Y-69940390D01*
X16847476Y-69940390D02*
X16895095Y-69988009D01*
X16895095Y-69988009D02*
X16990333Y-70035628D01*
X16990333Y-70035628D02*
X17371285Y-70035628D01*
X15847476Y-70511819D02*
X16418904Y-70511819D01*
X16133190Y-70511819D02*
X16133190Y-69511819D01*
X16133190Y-69511819D02*
X16228428Y-69654676D01*
X16228428Y-69654676D02*
X16323666Y-69749914D01*
X16323666Y-69749914D02*
X16418904Y-69797533D01*
X22918904Y-55011819D02*
X22918904Y-54011819D01*
X22918904Y-54011819D02*
X22585571Y-54726104D01*
X22585571Y-54726104D02*
X22252238Y-54011819D01*
X22252238Y-54011819D02*
X22252238Y-55011819D01*
X21823666Y-54726104D02*
X21347476Y-54726104D01*
X21918904Y-55011819D02*
X21585571Y-54011819D01*
X21585571Y-54011819D02*
X21252238Y-55011819D01*
X20395095Y-54059438D02*
X20490333Y-54011819D01*
X20490333Y-54011819D02*
X20633190Y-54011819D01*
X20633190Y-54011819D02*
X20776047Y-54059438D01*
X20776047Y-54059438D02*
X20871285Y-54154676D01*
X20871285Y-54154676D02*
X20918904Y-54249914D01*
X20918904Y-54249914D02*
X20966523Y-54440390D01*
X20966523Y-54440390D02*
X20966523Y-54583247D01*
X20966523Y-54583247D02*
X20918904Y-54773723D01*
X20918904Y-54773723D02*
X20871285Y-54868961D01*
X20871285Y-54868961D02*
X20776047Y-54964200D01*
X20776047Y-54964200D02*
X20633190Y-55011819D01*
X20633190Y-55011819D02*
X20537952Y-55011819D01*
X20537952Y-55011819D02*
X20395095Y-54964200D01*
X20395095Y-54964200D02*
X20347476Y-54916580D01*
X20347476Y-54916580D02*
X20347476Y-54583247D01*
X20347476Y-54583247D02*
X20537952Y-54583247D01*
X19442714Y-55011819D02*
X19918904Y-55011819D01*
X19918904Y-55011819D02*
X19918904Y-54011819D01*
X18680809Y-55011819D02*
X18680809Y-54488009D01*
X18680809Y-54488009D02*
X18728428Y-54392771D01*
X18728428Y-54392771D02*
X18823666Y-54345152D01*
X18823666Y-54345152D02*
X19014142Y-54345152D01*
X19014142Y-54345152D02*
X19109380Y-54392771D01*
X18680809Y-54964200D02*
X18776047Y-55011819D01*
X18776047Y-55011819D02*
X19014142Y-55011819D01*
X19014142Y-55011819D02*
X19109380Y-54964200D01*
X19109380Y-54964200D02*
X19156999Y-54868961D01*
X19156999Y-54868961D02*
X19156999Y-54773723D01*
X19156999Y-54773723D02*
X19109380Y-54678485D01*
X19109380Y-54678485D02*
X19014142Y-54630866D01*
X19014142Y-54630866D02*
X18776047Y-54630866D01*
X18776047Y-54630866D02*
X18680809Y-54583247D01*
X18204618Y-55011819D02*
X18204618Y-54011819D01*
X18204618Y-54392771D02*
X18109380Y-54345152D01*
X18109380Y-54345152D02*
X17918904Y-54345152D01*
X17918904Y-54345152D02*
X17823666Y-54392771D01*
X17823666Y-54392771D02*
X17776047Y-54440390D01*
X17776047Y-54440390D02*
X17728428Y-54535628D01*
X17728428Y-54535628D02*
X17728428Y-54821342D01*
X17728428Y-54821342D02*
X17776047Y-54916580D01*
X17776047Y-54916580D02*
X17823666Y-54964200D01*
X17823666Y-54964200D02*
X17918904Y-55011819D01*
X17918904Y-55011819D02*
X18109380Y-55011819D01*
X18109380Y-55011819D02*
X18204618Y-54964200D01*
X16633189Y-54011819D02*
X16395094Y-55011819D01*
X16395094Y-55011819D02*
X16204618Y-54297533D01*
X16204618Y-54297533D02*
X16014142Y-55011819D01*
X16014142Y-55011819D02*
X15776047Y-54011819D01*
X15014142Y-54964200D02*
X15109380Y-55011819D01*
X15109380Y-55011819D02*
X15299856Y-55011819D01*
X15299856Y-55011819D02*
X15395094Y-54964200D01*
X15395094Y-54964200D02*
X15442713Y-54868961D01*
X15442713Y-54868961D02*
X15442713Y-54488009D01*
X15442713Y-54488009D02*
X15395094Y-54392771D01*
X15395094Y-54392771D02*
X15299856Y-54345152D01*
X15299856Y-54345152D02*
X15109380Y-54345152D01*
X15109380Y-54345152D02*
X15014142Y-54392771D01*
X15014142Y-54392771D02*
X14966523Y-54488009D01*
X14966523Y-54488009D02*
X14966523Y-54583247D01*
X14966523Y-54583247D02*
X15442713Y-54678485D01*
X14537951Y-55011819D02*
X14537951Y-54011819D01*
X14537951Y-54392771D02*
X14442713Y-54345152D01*
X14442713Y-54345152D02*
X14252237Y-54345152D01*
X14252237Y-54345152D02*
X14156999Y-54392771D01*
X14156999Y-54392771D02*
X14109380Y-54440390D01*
X14109380Y-54440390D02*
X14061761Y-54535628D01*
X14061761Y-54535628D02*
X14061761Y-54821342D01*
X14061761Y-54821342D02*
X14109380Y-54916580D01*
X14109380Y-54916580D02*
X14156999Y-54964200D01*
X14156999Y-54964200D02*
X14252237Y-55011819D01*
X14252237Y-55011819D02*
X14442713Y-55011819D01*
X14442713Y-55011819D02*
X14537951Y-54964200D01*
X13680808Y-54964200D02*
X13585570Y-55011819D01*
X13585570Y-55011819D02*
X13395094Y-55011819D01*
X13395094Y-55011819D02*
X13299856Y-54964200D01*
X13299856Y-54964200D02*
X13252237Y-54868961D01*
X13252237Y-54868961D02*
X13252237Y-54821342D01*
X13252237Y-54821342D02*
X13299856Y-54726104D01*
X13299856Y-54726104D02*
X13395094Y-54678485D01*
X13395094Y-54678485D02*
X13537951Y-54678485D01*
X13537951Y-54678485D02*
X13633189Y-54630866D01*
X13633189Y-54630866D02*
X13680808Y-54535628D01*
X13680808Y-54535628D02*
X13680808Y-54488009D01*
X13680808Y-54488009D02*
X13633189Y-54392771D01*
X13633189Y-54392771D02*
X13537951Y-54345152D01*
X13537951Y-54345152D02*
X13395094Y-54345152D01*
X13395094Y-54345152D02*
X13299856Y-54392771D01*
X12823665Y-55011819D02*
X12823665Y-54345152D01*
X12823665Y-54011819D02*
X12871284Y-54059438D01*
X12871284Y-54059438D02*
X12823665Y-54107057D01*
X12823665Y-54107057D02*
X12776046Y-54059438D01*
X12776046Y-54059438D02*
X12823665Y-54011819D01*
X12823665Y-54011819D02*
X12823665Y-54107057D01*
X12490332Y-54345152D02*
X12109380Y-54345152D01*
X12347475Y-54011819D02*
X12347475Y-54868961D01*
X12347475Y-54868961D02*
X12299856Y-54964200D01*
X12299856Y-54964200D02*
X12204618Y-55011819D01*
X12204618Y-55011819D02*
X12109380Y-55011819D01*
X11395094Y-54964200D02*
X11490332Y-55011819D01*
X11490332Y-55011819D02*
X11680808Y-55011819D01*
X11680808Y-55011819D02*
X11776046Y-54964200D01*
X11776046Y-54964200D02*
X11823665Y-54868961D01*
X11823665Y-54868961D02*
X11823665Y-54488009D01*
X11823665Y-54488009D02*
X11776046Y-54392771D01*
X11776046Y-54392771D02*
X11680808Y-54345152D01*
X11680808Y-54345152D02*
X11490332Y-54345152D01*
X11490332Y-54345152D02*
X11395094Y-54392771D01*
X11395094Y-54392771D02*
X11347475Y-54488009D01*
X11347475Y-54488009D02*
X11347475Y-54583247D01*
X11347475Y-54583247D02*
X11823665Y-54678485D01*
%TO.C,QR1*%
G36*
X11407000Y-56057000D02*
G01*
X10907000Y-56057000D01*
X10907000Y-56557000D01*
X11407000Y-56557000D01*
X11407000Y-56057000D01*
G37*
G36*
X11407000Y-56557000D02*
G01*
X10907000Y-56557000D01*
X10907000Y-57057000D01*
X11407000Y-57057000D01*
X11407000Y-56557000D01*
G37*
G36*
X11407000Y-57057000D02*
G01*
X10907000Y-57057000D01*
X10907000Y-57557000D01*
X11407000Y-57557000D01*
X11407000Y-57057000D01*
G37*
G36*
X11407000Y-57557000D02*
G01*
X10907000Y-57557000D01*
X10907000Y-58057000D01*
X11407000Y-58057000D01*
X11407000Y-57557000D01*
G37*
G36*
X11407000Y-58057000D02*
G01*
X10907000Y-58057000D01*
X10907000Y-58557000D01*
X11407000Y-58557000D01*
X11407000Y-58057000D01*
G37*
G36*
X11407000Y-58557000D02*
G01*
X10907000Y-58557000D01*
X10907000Y-59057000D01*
X11407000Y-59057000D01*
X11407000Y-58557000D01*
G37*
G36*
X11407000Y-59057000D02*
G01*
X10907000Y-59057000D01*
X10907000Y-59557000D01*
X11407000Y-59557000D01*
X11407000Y-59057000D01*
G37*
G36*
X11407000Y-61057000D02*
G01*
X10907000Y-61057000D01*
X10907000Y-61557000D01*
X11407000Y-61557000D01*
X11407000Y-61057000D01*
G37*
G36*
X11407000Y-61557000D02*
G01*
X10907000Y-61557000D01*
X10907000Y-62057000D01*
X11407000Y-62057000D01*
X11407000Y-61557000D01*
G37*
G36*
X11407000Y-62057000D02*
G01*
X10907000Y-62057000D01*
X10907000Y-62557000D01*
X11407000Y-62557000D01*
X11407000Y-62057000D01*
G37*
G36*
X11407000Y-63057000D02*
G01*
X10907000Y-63057000D01*
X10907000Y-63557000D01*
X11407000Y-63557000D01*
X11407000Y-63057000D01*
G37*
G36*
X11407000Y-63557000D02*
G01*
X10907000Y-63557000D01*
X10907000Y-64057000D01*
X11407000Y-64057000D01*
X11407000Y-63557000D01*
G37*
G36*
X11407000Y-65057000D02*
G01*
X10907000Y-65057000D01*
X10907000Y-65557000D01*
X11407000Y-65557000D01*
X11407000Y-65057000D01*
G37*
G36*
X11407000Y-65557000D02*
G01*
X10907000Y-65557000D01*
X10907000Y-66057000D01*
X11407000Y-66057000D01*
X11407000Y-65557000D01*
G37*
G36*
X11407000Y-66557000D02*
G01*
X10907000Y-66557000D01*
X10907000Y-67057000D01*
X11407000Y-67057000D01*
X11407000Y-66557000D01*
G37*
G36*
X11407000Y-67057000D02*
G01*
X10907000Y-67057000D01*
X10907000Y-67557000D01*
X11407000Y-67557000D01*
X11407000Y-67057000D01*
G37*
G36*
X11407000Y-67557000D02*
G01*
X10907000Y-67557000D01*
X10907000Y-68057000D01*
X11407000Y-68057000D01*
X11407000Y-67557000D01*
G37*
G36*
X11407000Y-68057000D02*
G01*
X10907000Y-68057000D01*
X10907000Y-68557000D01*
X11407000Y-68557000D01*
X11407000Y-68057000D01*
G37*
G36*
X11907000Y-56057000D02*
G01*
X11407000Y-56057000D01*
X11407000Y-56557000D01*
X11907000Y-56557000D01*
X11907000Y-56057000D01*
G37*
G36*
X11907000Y-59057000D02*
G01*
X11407000Y-59057000D01*
X11407000Y-59557000D01*
X11907000Y-59557000D01*
X11907000Y-59057000D01*
G37*
G36*
X11907000Y-60557000D02*
G01*
X11407000Y-60557000D01*
X11407000Y-61057000D01*
X11907000Y-61057000D01*
X11907000Y-60557000D01*
G37*
G36*
X11907000Y-61057000D02*
G01*
X11407000Y-61057000D01*
X11407000Y-61557000D01*
X11907000Y-61557000D01*
X11907000Y-61057000D01*
G37*
G36*
X11907000Y-62057000D02*
G01*
X11407000Y-62057000D01*
X11407000Y-62557000D01*
X11907000Y-62557000D01*
X11907000Y-62057000D01*
G37*
G36*
X11907000Y-62557000D02*
G01*
X11407000Y-62557000D01*
X11407000Y-63057000D01*
X11907000Y-63057000D01*
X11907000Y-62557000D01*
G37*
G36*
X11907000Y-63057000D02*
G01*
X11407000Y-63057000D01*
X11407000Y-63557000D01*
X11907000Y-63557000D01*
X11907000Y-63057000D01*
G37*
G36*
X11907000Y-65057000D02*
G01*
X11407000Y-65057000D01*
X11407000Y-65557000D01*
X11907000Y-65557000D01*
X11907000Y-65057000D01*
G37*
G36*
X11907000Y-65557000D02*
G01*
X11407000Y-65557000D01*
X11407000Y-66057000D01*
X11907000Y-66057000D01*
X11907000Y-65557000D01*
G37*
G36*
X11907000Y-66557000D02*
G01*
X11407000Y-66557000D01*
X11407000Y-67057000D01*
X11907000Y-67057000D01*
X11907000Y-66557000D01*
G37*
G36*
X11907000Y-68057000D02*
G01*
X11407000Y-68057000D01*
X11407000Y-68557000D01*
X11907000Y-68557000D01*
X11907000Y-68057000D01*
G37*
G36*
X12407000Y-56057000D02*
G01*
X11907000Y-56057000D01*
X11907000Y-56557000D01*
X12407000Y-56557000D01*
X12407000Y-56057000D01*
G37*
G36*
X12407000Y-57057000D02*
G01*
X11907000Y-57057000D01*
X11907000Y-57557000D01*
X12407000Y-57557000D01*
X12407000Y-57057000D01*
G37*
G36*
X12407000Y-57557000D02*
G01*
X11907000Y-57557000D01*
X11907000Y-58057000D01*
X12407000Y-58057000D01*
X12407000Y-57557000D01*
G37*
G36*
X12407000Y-58057000D02*
G01*
X11907000Y-58057000D01*
X11907000Y-58557000D01*
X12407000Y-58557000D01*
X12407000Y-58057000D01*
G37*
G36*
X12407000Y-59057000D02*
G01*
X11907000Y-59057000D01*
X11907000Y-59557000D01*
X12407000Y-59557000D01*
X12407000Y-59057000D01*
G37*
G36*
X12407000Y-60057000D02*
G01*
X11907000Y-60057000D01*
X11907000Y-60557000D01*
X12407000Y-60557000D01*
X12407000Y-60057000D01*
G37*
G36*
X12407000Y-62057000D02*
G01*
X11907000Y-62057000D01*
X11907000Y-62557000D01*
X12407000Y-62557000D01*
X12407000Y-62057000D01*
G37*
G36*
X12407000Y-64057000D02*
G01*
X11907000Y-64057000D01*
X11907000Y-64557000D01*
X12407000Y-64557000D01*
X12407000Y-64057000D01*
G37*
G36*
X12407000Y-65057000D02*
G01*
X11907000Y-65057000D01*
X11907000Y-65557000D01*
X12407000Y-65557000D01*
X12407000Y-65057000D01*
G37*
G36*
X12407000Y-66057000D02*
G01*
X11907000Y-66057000D01*
X11907000Y-66557000D01*
X12407000Y-66557000D01*
X12407000Y-66057000D01*
G37*
G36*
X12407000Y-66557000D02*
G01*
X11907000Y-66557000D01*
X11907000Y-67057000D01*
X12407000Y-67057000D01*
X12407000Y-66557000D01*
G37*
G36*
X12407000Y-67057000D02*
G01*
X11907000Y-67057000D01*
X11907000Y-67557000D01*
X12407000Y-67557000D01*
X12407000Y-67057000D01*
G37*
G36*
X12407000Y-68057000D02*
G01*
X11907000Y-68057000D01*
X11907000Y-68557000D01*
X12407000Y-68557000D01*
X12407000Y-68057000D01*
G37*
G36*
X12907000Y-56057000D02*
G01*
X12407000Y-56057000D01*
X12407000Y-56557000D01*
X12907000Y-56557000D01*
X12907000Y-56057000D01*
G37*
G36*
X12907000Y-57057000D02*
G01*
X12407000Y-57057000D01*
X12407000Y-57557000D01*
X12907000Y-57557000D01*
X12907000Y-57057000D01*
G37*
G36*
X12907000Y-57557000D02*
G01*
X12407000Y-57557000D01*
X12407000Y-58057000D01*
X12907000Y-58057000D01*
X12907000Y-57557000D01*
G37*
G36*
X12907000Y-58057000D02*
G01*
X12407000Y-58057000D01*
X12407000Y-58557000D01*
X12907000Y-58557000D01*
X12907000Y-58057000D01*
G37*
G36*
X12907000Y-59057000D02*
G01*
X12407000Y-59057000D01*
X12407000Y-59557000D01*
X12907000Y-59557000D01*
X12907000Y-59057000D01*
G37*
G36*
X12907000Y-60057000D02*
G01*
X12407000Y-60057000D01*
X12407000Y-60557000D01*
X12907000Y-60557000D01*
X12907000Y-60057000D01*
G37*
G36*
X12907000Y-61057000D02*
G01*
X12407000Y-61057000D01*
X12407000Y-61557000D01*
X12907000Y-61557000D01*
X12907000Y-61057000D01*
G37*
G36*
X12907000Y-62557000D02*
G01*
X12407000Y-62557000D01*
X12407000Y-63057000D01*
X12907000Y-63057000D01*
X12907000Y-62557000D01*
G37*
G36*
X12907000Y-63057000D02*
G01*
X12407000Y-63057000D01*
X12407000Y-63557000D01*
X12907000Y-63557000D01*
X12907000Y-63057000D01*
G37*
G36*
X12907000Y-64557000D02*
G01*
X12407000Y-64557000D01*
X12407000Y-65057000D01*
X12907000Y-65057000D01*
X12907000Y-64557000D01*
G37*
G36*
X12907000Y-65557000D02*
G01*
X12407000Y-65557000D01*
X12407000Y-66057000D01*
X12907000Y-66057000D01*
X12907000Y-65557000D01*
G37*
G36*
X12907000Y-66557000D02*
G01*
X12407000Y-66557000D01*
X12407000Y-67057000D01*
X12907000Y-67057000D01*
X12907000Y-66557000D01*
G37*
G36*
X12907000Y-67057000D02*
G01*
X12407000Y-67057000D01*
X12407000Y-67557000D01*
X12907000Y-67557000D01*
X12907000Y-67057000D01*
G37*
G36*
X12907000Y-67557000D02*
G01*
X12407000Y-67557000D01*
X12407000Y-68057000D01*
X12907000Y-68057000D01*
X12907000Y-67557000D01*
G37*
G36*
X12907000Y-68057000D02*
G01*
X12407000Y-68057000D01*
X12407000Y-68557000D01*
X12907000Y-68557000D01*
X12907000Y-68057000D01*
G37*
G36*
X13407000Y-56057000D02*
G01*
X12907000Y-56057000D01*
X12907000Y-56557000D01*
X13407000Y-56557000D01*
X13407000Y-56057000D01*
G37*
G36*
X13407000Y-57057000D02*
G01*
X12907000Y-57057000D01*
X12907000Y-57557000D01*
X13407000Y-57557000D01*
X13407000Y-57057000D01*
G37*
G36*
X13407000Y-57557000D02*
G01*
X12907000Y-57557000D01*
X12907000Y-58057000D01*
X13407000Y-58057000D01*
X13407000Y-57557000D01*
G37*
G36*
X13407000Y-58057000D02*
G01*
X12907000Y-58057000D01*
X12907000Y-58557000D01*
X13407000Y-58557000D01*
X13407000Y-58057000D01*
G37*
G36*
X13407000Y-59057000D02*
G01*
X12907000Y-59057000D01*
X12907000Y-59557000D01*
X13407000Y-59557000D01*
X13407000Y-59057000D01*
G37*
G36*
X13407000Y-60057000D02*
G01*
X12907000Y-60057000D01*
X12907000Y-60557000D01*
X13407000Y-60557000D01*
X13407000Y-60057000D01*
G37*
G36*
X13407000Y-61557000D02*
G01*
X12907000Y-61557000D01*
X12907000Y-62057000D01*
X13407000Y-62057000D01*
X13407000Y-61557000D01*
G37*
G36*
X13407000Y-62057000D02*
G01*
X12907000Y-62057000D01*
X12907000Y-62557000D01*
X13407000Y-62557000D01*
X13407000Y-62057000D01*
G37*
G36*
X13407000Y-63057000D02*
G01*
X12907000Y-63057000D01*
X12907000Y-63557000D01*
X13407000Y-63557000D01*
X13407000Y-63057000D01*
G37*
G36*
X13407000Y-63557000D02*
G01*
X12907000Y-63557000D01*
X12907000Y-64057000D01*
X13407000Y-64057000D01*
X13407000Y-63557000D01*
G37*
G36*
X13407000Y-64057000D02*
G01*
X12907000Y-64057000D01*
X12907000Y-64557000D01*
X13407000Y-64557000D01*
X13407000Y-64057000D01*
G37*
G36*
X13407000Y-64557000D02*
G01*
X12907000Y-64557000D01*
X12907000Y-65057000D01*
X13407000Y-65057000D01*
X13407000Y-64557000D01*
G37*
G36*
X13407000Y-65057000D02*
G01*
X12907000Y-65057000D01*
X12907000Y-65557000D01*
X13407000Y-65557000D01*
X13407000Y-65057000D01*
G37*
G36*
X13407000Y-65557000D02*
G01*
X12907000Y-65557000D01*
X12907000Y-66057000D01*
X13407000Y-66057000D01*
X13407000Y-65557000D01*
G37*
G36*
X13407000Y-66057000D02*
G01*
X12907000Y-66057000D01*
X12907000Y-66557000D01*
X13407000Y-66557000D01*
X13407000Y-66057000D01*
G37*
G36*
X13407000Y-66557000D02*
G01*
X12907000Y-66557000D01*
X12907000Y-67057000D01*
X13407000Y-67057000D01*
X13407000Y-66557000D01*
G37*
G36*
X13407000Y-67557000D02*
G01*
X12907000Y-67557000D01*
X12907000Y-68057000D01*
X13407000Y-68057000D01*
X13407000Y-67557000D01*
G37*
G36*
X13407000Y-68057000D02*
G01*
X12907000Y-68057000D01*
X12907000Y-68557000D01*
X13407000Y-68557000D01*
X13407000Y-68057000D01*
G37*
G36*
X13907000Y-56057000D02*
G01*
X13407000Y-56057000D01*
X13407000Y-56557000D01*
X13907000Y-56557000D01*
X13907000Y-56057000D01*
G37*
G36*
X13907000Y-59057000D02*
G01*
X13407000Y-59057000D01*
X13407000Y-59557000D01*
X13907000Y-59557000D01*
X13907000Y-59057000D01*
G37*
G36*
X13907000Y-60057000D02*
G01*
X13407000Y-60057000D01*
X13407000Y-60557000D01*
X13907000Y-60557000D01*
X13907000Y-60057000D01*
G37*
G36*
X13907000Y-60557000D02*
G01*
X13407000Y-60557000D01*
X13407000Y-61057000D01*
X13907000Y-61057000D01*
X13907000Y-60557000D01*
G37*
G36*
X13907000Y-61057000D02*
G01*
X13407000Y-61057000D01*
X13407000Y-61557000D01*
X13907000Y-61557000D01*
X13907000Y-61057000D01*
G37*
G36*
X13907000Y-61557000D02*
G01*
X13407000Y-61557000D01*
X13407000Y-62057000D01*
X13907000Y-62057000D01*
X13907000Y-61557000D01*
G37*
G36*
X13907000Y-62557000D02*
G01*
X13407000Y-62557000D01*
X13407000Y-63057000D01*
X13907000Y-63057000D01*
X13907000Y-62557000D01*
G37*
G36*
X13907000Y-63057000D02*
G01*
X13407000Y-63057000D01*
X13407000Y-63557000D01*
X13907000Y-63557000D01*
X13907000Y-63057000D01*
G37*
G36*
X13907000Y-63557000D02*
G01*
X13407000Y-63557000D01*
X13407000Y-64057000D01*
X13907000Y-64057000D01*
X13907000Y-63557000D01*
G37*
G36*
X13907000Y-64057000D02*
G01*
X13407000Y-64057000D01*
X13407000Y-64557000D01*
X13907000Y-64557000D01*
X13907000Y-64057000D01*
G37*
G36*
X13907000Y-66057000D02*
G01*
X13407000Y-66057000D01*
X13407000Y-66557000D01*
X13907000Y-66557000D01*
X13907000Y-66057000D01*
G37*
G36*
X13907000Y-67557000D02*
G01*
X13407000Y-67557000D01*
X13407000Y-68057000D01*
X13907000Y-68057000D01*
X13907000Y-67557000D01*
G37*
G36*
X13907000Y-68057000D02*
G01*
X13407000Y-68057000D01*
X13407000Y-68557000D01*
X13907000Y-68557000D01*
X13907000Y-68057000D01*
G37*
G36*
X14407000Y-56057000D02*
G01*
X13907000Y-56057000D01*
X13907000Y-56557000D01*
X14407000Y-56557000D01*
X14407000Y-56057000D01*
G37*
G36*
X14407000Y-56557000D02*
G01*
X13907000Y-56557000D01*
X13907000Y-57057000D01*
X14407000Y-57057000D01*
X14407000Y-56557000D01*
G37*
G36*
X14407000Y-57057000D02*
G01*
X13907000Y-57057000D01*
X13907000Y-57557000D01*
X14407000Y-57557000D01*
X14407000Y-57057000D01*
G37*
G36*
X14407000Y-57557000D02*
G01*
X13907000Y-57557000D01*
X13907000Y-58057000D01*
X14407000Y-58057000D01*
X14407000Y-57557000D01*
G37*
G36*
X14407000Y-58057000D02*
G01*
X13907000Y-58057000D01*
X13907000Y-58557000D01*
X14407000Y-58557000D01*
X14407000Y-58057000D01*
G37*
G36*
X14407000Y-58557000D02*
G01*
X13907000Y-58557000D01*
X13907000Y-59057000D01*
X14407000Y-59057000D01*
X14407000Y-58557000D01*
G37*
G36*
X14407000Y-59057000D02*
G01*
X13907000Y-59057000D01*
X13907000Y-59557000D01*
X14407000Y-59557000D01*
X14407000Y-59057000D01*
G37*
G36*
X14407000Y-60057000D02*
G01*
X13907000Y-60057000D01*
X13907000Y-60557000D01*
X14407000Y-60557000D01*
X14407000Y-60057000D01*
G37*
G36*
X14407000Y-61057000D02*
G01*
X13907000Y-61057000D01*
X13907000Y-61557000D01*
X14407000Y-61557000D01*
X14407000Y-61057000D01*
G37*
G36*
X14407000Y-61557000D02*
G01*
X13907000Y-61557000D01*
X13907000Y-62057000D01*
X14407000Y-62057000D01*
X14407000Y-61557000D01*
G37*
G36*
X14407000Y-62057000D02*
G01*
X13907000Y-62057000D01*
X13907000Y-62557000D01*
X14407000Y-62557000D01*
X14407000Y-62057000D01*
G37*
G36*
X14407000Y-63057000D02*
G01*
X13907000Y-63057000D01*
X13907000Y-63557000D01*
X14407000Y-63557000D01*
X14407000Y-63057000D01*
G37*
G36*
X14407000Y-64057000D02*
G01*
X13907000Y-64057000D01*
X13907000Y-64557000D01*
X14407000Y-64557000D01*
X14407000Y-64057000D01*
G37*
G36*
X14407000Y-65057000D02*
G01*
X13907000Y-65057000D01*
X13907000Y-65557000D01*
X14407000Y-65557000D01*
X14407000Y-65057000D01*
G37*
G36*
X14407000Y-66057000D02*
G01*
X13907000Y-66057000D01*
X13907000Y-66557000D01*
X14407000Y-66557000D01*
X14407000Y-66057000D01*
G37*
G36*
X14407000Y-66557000D02*
G01*
X13907000Y-66557000D01*
X13907000Y-67057000D01*
X14407000Y-67057000D01*
X14407000Y-66557000D01*
G37*
G36*
X14407000Y-68057000D02*
G01*
X13907000Y-68057000D01*
X13907000Y-68557000D01*
X14407000Y-68557000D01*
X14407000Y-68057000D01*
G37*
G36*
X14907000Y-61557000D02*
G01*
X14407000Y-61557000D01*
X14407000Y-62057000D01*
X14907000Y-62057000D01*
X14907000Y-61557000D01*
G37*
G36*
X14907000Y-62057000D02*
G01*
X14407000Y-62057000D01*
X14407000Y-62557000D01*
X14907000Y-62557000D01*
X14907000Y-62057000D01*
G37*
G36*
X14907000Y-63057000D02*
G01*
X14407000Y-63057000D01*
X14407000Y-63557000D01*
X14907000Y-63557000D01*
X14907000Y-63057000D01*
G37*
G36*
X14907000Y-63557000D02*
G01*
X14407000Y-63557000D01*
X14407000Y-64057000D01*
X14907000Y-64057000D01*
X14907000Y-63557000D01*
G37*
G36*
X14907000Y-64057000D02*
G01*
X14407000Y-64057000D01*
X14407000Y-64557000D01*
X14907000Y-64557000D01*
X14907000Y-64057000D01*
G37*
G36*
X14907000Y-66057000D02*
G01*
X14407000Y-66057000D01*
X14407000Y-66557000D01*
X14907000Y-66557000D01*
X14907000Y-66057000D01*
G37*
G36*
X14907000Y-66557000D02*
G01*
X14407000Y-66557000D01*
X14407000Y-67057000D01*
X14907000Y-67057000D01*
X14907000Y-66557000D01*
G37*
G36*
X14907000Y-67557000D02*
G01*
X14407000Y-67557000D01*
X14407000Y-68057000D01*
X14907000Y-68057000D01*
X14907000Y-67557000D01*
G37*
G36*
X15407000Y-56057000D02*
G01*
X14907000Y-56057000D01*
X14907000Y-56557000D01*
X15407000Y-56557000D01*
X15407000Y-56057000D01*
G37*
G36*
X15407000Y-56557000D02*
G01*
X14907000Y-56557000D01*
X14907000Y-57057000D01*
X15407000Y-57057000D01*
X15407000Y-56557000D01*
G37*
G36*
X15407000Y-58057000D02*
G01*
X14907000Y-58057000D01*
X14907000Y-58557000D01*
X15407000Y-58557000D01*
X15407000Y-58057000D01*
G37*
G36*
X15407000Y-59057000D02*
G01*
X14907000Y-59057000D01*
X14907000Y-59557000D01*
X15407000Y-59557000D01*
X15407000Y-59057000D01*
G37*
G36*
X15407000Y-60057000D02*
G01*
X14907000Y-60057000D01*
X14907000Y-60557000D01*
X15407000Y-60557000D01*
X15407000Y-60057000D01*
G37*
G36*
X15407000Y-60557000D02*
G01*
X14907000Y-60557000D01*
X14907000Y-61057000D01*
X15407000Y-61057000D01*
X15407000Y-60557000D01*
G37*
G36*
X15407000Y-61057000D02*
G01*
X14907000Y-61057000D01*
X14907000Y-61557000D01*
X15407000Y-61557000D01*
X15407000Y-61057000D01*
G37*
G36*
X15407000Y-61557000D02*
G01*
X14907000Y-61557000D01*
X14907000Y-62057000D01*
X15407000Y-62057000D01*
X15407000Y-61557000D01*
G37*
G36*
X15407000Y-62557000D02*
G01*
X14907000Y-62557000D01*
X14907000Y-63057000D01*
X15407000Y-63057000D01*
X15407000Y-62557000D01*
G37*
G36*
X15407000Y-64057000D02*
G01*
X14907000Y-64057000D01*
X14907000Y-64557000D01*
X15407000Y-64557000D01*
X15407000Y-64057000D01*
G37*
G36*
X15407000Y-64557000D02*
G01*
X14907000Y-64557000D01*
X14907000Y-65057000D01*
X15407000Y-65057000D01*
X15407000Y-64557000D01*
G37*
G36*
X15407000Y-65057000D02*
G01*
X14907000Y-65057000D01*
X14907000Y-65557000D01*
X15407000Y-65557000D01*
X15407000Y-65057000D01*
G37*
G36*
X15407000Y-65557000D02*
G01*
X14907000Y-65557000D01*
X14907000Y-66057000D01*
X15407000Y-66057000D01*
X15407000Y-65557000D01*
G37*
G36*
X15407000Y-66057000D02*
G01*
X14907000Y-66057000D01*
X14907000Y-66557000D01*
X15407000Y-66557000D01*
X15407000Y-66057000D01*
G37*
G36*
X15407000Y-67557000D02*
G01*
X14907000Y-67557000D01*
X14907000Y-68057000D01*
X15407000Y-68057000D01*
X15407000Y-67557000D01*
G37*
G36*
X15907000Y-56557000D02*
G01*
X15407000Y-56557000D01*
X15407000Y-57057000D01*
X15907000Y-57057000D01*
X15907000Y-56557000D01*
G37*
G36*
X15907000Y-57057000D02*
G01*
X15407000Y-57057000D01*
X15407000Y-57557000D01*
X15907000Y-57557000D01*
X15907000Y-57057000D01*
G37*
G36*
X15907000Y-57557000D02*
G01*
X15407000Y-57557000D01*
X15407000Y-58057000D01*
X15907000Y-58057000D01*
X15907000Y-57557000D01*
G37*
G36*
X15907000Y-58557000D02*
G01*
X15407000Y-58557000D01*
X15407000Y-59057000D01*
X15907000Y-59057000D01*
X15907000Y-58557000D01*
G37*
G36*
X15907000Y-60057000D02*
G01*
X15407000Y-60057000D01*
X15407000Y-60557000D01*
X15907000Y-60557000D01*
X15907000Y-60057000D01*
G37*
G36*
X15907000Y-61057000D02*
G01*
X15407000Y-61057000D01*
X15407000Y-61557000D01*
X15907000Y-61557000D01*
X15907000Y-61057000D01*
G37*
G36*
X15907000Y-63057000D02*
G01*
X15407000Y-63057000D01*
X15407000Y-63557000D01*
X15907000Y-63557000D01*
X15907000Y-63057000D01*
G37*
G36*
X15907000Y-64057000D02*
G01*
X15407000Y-64057000D01*
X15407000Y-64557000D01*
X15907000Y-64557000D01*
X15907000Y-64057000D01*
G37*
G36*
X15907000Y-64557000D02*
G01*
X15407000Y-64557000D01*
X15407000Y-65057000D01*
X15907000Y-65057000D01*
X15907000Y-64557000D01*
G37*
G36*
X15907000Y-66057000D02*
G01*
X15407000Y-66057000D01*
X15407000Y-66557000D01*
X15907000Y-66557000D01*
X15907000Y-66057000D01*
G37*
G36*
X15907000Y-67057000D02*
G01*
X15407000Y-67057000D01*
X15407000Y-67557000D01*
X15907000Y-67557000D01*
X15907000Y-67057000D01*
G37*
G36*
X15907000Y-67557000D02*
G01*
X15407000Y-67557000D01*
X15407000Y-68057000D01*
X15907000Y-68057000D01*
X15907000Y-67557000D01*
G37*
G36*
X16407000Y-56057000D02*
G01*
X15907000Y-56057000D01*
X15907000Y-56557000D01*
X16407000Y-56557000D01*
X16407000Y-56057000D01*
G37*
G36*
X16407000Y-56557000D02*
G01*
X15907000Y-56557000D01*
X15907000Y-57057000D01*
X16407000Y-57057000D01*
X16407000Y-56557000D01*
G37*
G36*
X16407000Y-57557000D02*
G01*
X15907000Y-57557000D01*
X15907000Y-58057000D01*
X16407000Y-58057000D01*
X16407000Y-57557000D01*
G37*
G36*
X16407000Y-58557000D02*
G01*
X15907000Y-58557000D01*
X15907000Y-59057000D01*
X16407000Y-59057000D01*
X16407000Y-58557000D01*
G37*
G36*
X16407000Y-59057000D02*
G01*
X15907000Y-59057000D01*
X15907000Y-59557000D01*
X16407000Y-59557000D01*
X16407000Y-59057000D01*
G37*
G36*
X16407000Y-59557000D02*
G01*
X15907000Y-59557000D01*
X15907000Y-60057000D01*
X16407000Y-60057000D01*
X16407000Y-59557000D01*
G37*
G36*
X16407000Y-60057000D02*
G01*
X15907000Y-60057000D01*
X15907000Y-60557000D01*
X16407000Y-60557000D01*
X16407000Y-60057000D01*
G37*
G36*
X16407000Y-60557000D02*
G01*
X15907000Y-60557000D01*
X15907000Y-61057000D01*
X16407000Y-61057000D01*
X16407000Y-60557000D01*
G37*
G36*
X16407000Y-62057000D02*
G01*
X15907000Y-62057000D01*
X15907000Y-62557000D01*
X16407000Y-62557000D01*
X16407000Y-62057000D01*
G37*
G36*
X16407000Y-62557000D02*
G01*
X15907000Y-62557000D01*
X15907000Y-63057000D01*
X16407000Y-63057000D01*
X16407000Y-62557000D01*
G37*
G36*
X16407000Y-63557000D02*
G01*
X15907000Y-63557000D01*
X15907000Y-64057000D01*
X16407000Y-64057000D01*
X16407000Y-63557000D01*
G37*
G36*
X16407000Y-65057000D02*
G01*
X15907000Y-65057000D01*
X15907000Y-65557000D01*
X16407000Y-65557000D01*
X16407000Y-65057000D01*
G37*
G36*
X16407000Y-66057000D02*
G01*
X15907000Y-66057000D01*
X15907000Y-66557000D01*
X16407000Y-66557000D01*
X16407000Y-66057000D01*
G37*
G36*
X16407000Y-67057000D02*
G01*
X15907000Y-67057000D01*
X15907000Y-67557000D01*
X16407000Y-67557000D01*
X16407000Y-67057000D01*
G37*
G36*
X16407000Y-67557000D02*
G01*
X15907000Y-67557000D01*
X15907000Y-68057000D01*
X16407000Y-68057000D01*
X16407000Y-67557000D01*
G37*
G36*
X16407000Y-68057000D02*
G01*
X15907000Y-68057000D01*
X15907000Y-68557000D01*
X16407000Y-68557000D01*
X16407000Y-68057000D01*
G37*
G36*
X16907000Y-57557000D02*
G01*
X16407000Y-57557000D01*
X16407000Y-58057000D01*
X16907000Y-58057000D01*
X16907000Y-57557000D01*
G37*
G36*
X16907000Y-58057000D02*
G01*
X16407000Y-58057000D01*
X16407000Y-58557000D01*
X16907000Y-58557000D01*
X16907000Y-58057000D01*
G37*
G36*
X16907000Y-58557000D02*
G01*
X16407000Y-58557000D01*
X16407000Y-59057000D01*
X16907000Y-59057000D01*
X16907000Y-58557000D01*
G37*
G36*
X16907000Y-60057000D02*
G01*
X16407000Y-60057000D01*
X16407000Y-60557000D01*
X16907000Y-60557000D01*
X16907000Y-60057000D01*
G37*
G36*
X16907000Y-61057000D02*
G01*
X16407000Y-61057000D01*
X16407000Y-61557000D01*
X16907000Y-61557000D01*
X16907000Y-61057000D01*
G37*
G36*
X16907000Y-62057000D02*
G01*
X16407000Y-62057000D01*
X16407000Y-62557000D01*
X16907000Y-62557000D01*
X16907000Y-62057000D01*
G37*
G36*
X16907000Y-62557000D02*
G01*
X16407000Y-62557000D01*
X16407000Y-63057000D01*
X16907000Y-63057000D01*
X16907000Y-62557000D01*
G37*
G36*
X16907000Y-64057000D02*
G01*
X16407000Y-64057000D01*
X16407000Y-64557000D01*
X16907000Y-64557000D01*
X16907000Y-64057000D01*
G37*
G36*
X16907000Y-64557000D02*
G01*
X16407000Y-64557000D01*
X16407000Y-65057000D01*
X16907000Y-65057000D01*
X16907000Y-64557000D01*
G37*
G36*
X16907000Y-65057000D02*
G01*
X16407000Y-65057000D01*
X16407000Y-65557000D01*
X16907000Y-65557000D01*
X16907000Y-65057000D01*
G37*
G36*
X16907000Y-66057000D02*
G01*
X16407000Y-66057000D01*
X16407000Y-66557000D01*
X16907000Y-66557000D01*
X16907000Y-66057000D01*
G37*
G36*
X16907000Y-66557000D02*
G01*
X16407000Y-66557000D01*
X16407000Y-67057000D01*
X16907000Y-67057000D01*
X16907000Y-66557000D01*
G37*
G36*
X16907000Y-67057000D02*
G01*
X16407000Y-67057000D01*
X16407000Y-67557000D01*
X16907000Y-67557000D01*
X16907000Y-67057000D01*
G37*
G36*
X16907000Y-68057000D02*
G01*
X16407000Y-68057000D01*
X16407000Y-68557000D01*
X16907000Y-68557000D01*
X16907000Y-68057000D01*
G37*
G36*
X17407000Y-57057000D02*
G01*
X16907000Y-57057000D01*
X16907000Y-57557000D01*
X17407000Y-57557000D01*
X17407000Y-57057000D01*
G37*
G36*
X17407000Y-59057000D02*
G01*
X16907000Y-59057000D01*
X16907000Y-59557000D01*
X17407000Y-59557000D01*
X17407000Y-59057000D01*
G37*
G36*
X17407000Y-60057000D02*
G01*
X16907000Y-60057000D01*
X16907000Y-60557000D01*
X17407000Y-60557000D01*
X17407000Y-60057000D01*
G37*
G36*
X17407000Y-60557000D02*
G01*
X16907000Y-60557000D01*
X16907000Y-61057000D01*
X17407000Y-61057000D01*
X17407000Y-60557000D01*
G37*
G36*
X17407000Y-61557000D02*
G01*
X16907000Y-61557000D01*
X16907000Y-62057000D01*
X17407000Y-62057000D01*
X17407000Y-61557000D01*
G37*
G36*
X17407000Y-62057000D02*
G01*
X16907000Y-62057000D01*
X16907000Y-62557000D01*
X17407000Y-62557000D01*
X17407000Y-62057000D01*
G37*
G36*
X17407000Y-63057000D02*
G01*
X16907000Y-63057000D01*
X16907000Y-63557000D01*
X17407000Y-63557000D01*
X17407000Y-63057000D01*
G37*
G36*
X17407000Y-64057000D02*
G01*
X16907000Y-64057000D01*
X16907000Y-64557000D01*
X17407000Y-64557000D01*
X17407000Y-64057000D01*
G37*
G36*
X17407000Y-64557000D02*
G01*
X16907000Y-64557000D01*
X16907000Y-65057000D01*
X17407000Y-65057000D01*
X17407000Y-64557000D01*
G37*
G36*
X17407000Y-66057000D02*
G01*
X16907000Y-66057000D01*
X16907000Y-66557000D01*
X17407000Y-66557000D01*
X17407000Y-66057000D01*
G37*
G36*
X17407000Y-67057000D02*
G01*
X16907000Y-67057000D01*
X16907000Y-67557000D01*
X17407000Y-67557000D01*
X17407000Y-67057000D01*
G37*
G36*
X17407000Y-67557000D02*
G01*
X16907000Y-67557000D01*
X16907000Y-68057000D01*
X17407000Y-68057000D01*
X17407000Y-67557000D01*
G37*
G36*
X17907000Y-56557000D02*
G01*
X17407000Y-56557000D01*
X17407000Y-57057000D01*
X17907000Y-57057000D01*
X17907000Y-56557000D01*
G37*
G36*
X17907000Y-57057000D02*
G01*
X17407000Y-57057000D01*
X17407000Y-57557000D01*
X17907000Y-57557000D01*
X17907000Y-57057000D01*
G37*
G36*
X17907000Y-60557000D02*
G01*
X17407000Y-60557000D01*
X17407000Y-61057000D01*
X17907000Y-61057000D01*
X17907000Y-60557000D01*
G37*
G36*
X17907000Y-61057000D02*
G01*
X17407000Y-61057000D01*
X17407000Y-61557000D01*
X17907000Y-61557000D01*
X17907000Y-61057000D01*
G37*
G36*
X17907000Y-63057000D02*
G01*
X17407000Y-63057000D01*
X17407000Y-63557000D01*
X17907000Y-63557000D01*
X17907000Y-63057000D01*
G37*
G36*
X17907000Y-63557000D02*
G01*
X17407000Y-63557000D01*
X17407000Y-64057000D01*
X17907000Y-64057000D01*
X17907000Y-63557000D01*
G37*
G36*
X17907000Y-64057000D02*
G01*
X17407000Y-64057000D01*
X17407000Y-64557000D01*
X17907000Y-64557000D01*
X17907000Y-64057000D01*
G37*
G36*
X17907000Y-65557000D02*
G01*
X17407000Y-65557000D01*
X17407000Y-66057000D01*
X17907000Y-66057000D01*
X17907000Y-65557000D01*
G37*
G36*
X17907000Y-66557000D02*
G01*
X17407000Y-66557000D01*
X17407000Y-67057000D01*
X17907000Y-67057000D01*
X17907000Y-66557000D01*
G37*
G36*
X17907000Y-67557000D02*
G01*
X17407000Y-67557000D01*
X17407000Y-68057000D01*
X17907000Y-68057000D01*
X17907000Y-67557000D01*
G37*
G36*
X18407000Y-56557000D02*
G01*
X17907000Y-56557000D01*
X17907000Y-57057000D01*
X18407000Y-57057000D01*
X18407000Y-56557000D01*
G37*
G36*
X18407000Y-57057000D02*
G01*
X17907000Y-57057000D01*
X17907000Y-57557000D01*
X18407000Y-57557000D01*
X18407000Y-57057000D01*
G37*
G36*
X18407000Y-57557000D02*
G01*
X17907000Y-57557000D01*
X17907000Y-58057000D01*
X18407000Y-58057000D01*
X18407000Y-57557000D01*
G37*
G36*
X18407000Y-58557000D02*
G01*
X17907000Y-58557000D01*
X17907000Y-59057000D01*
X18407000Y-59057000D01*
X18407000Y-58557000D01*
G37*
G36*
X18407000Y-59057000D02*
G01*
X17907000Y-59057000D01*
X17907000Y-59557000D01*
X18407000Y-59557000D01*
X18407000Y-59057000D01*
G37*
G36*
X18407000Y-60057000D02*
G01*
X17907000Y-60057000D01*
X17907000Y-60557000D01*
X18407000Y-60557000D01*
X18407000Y-60057000D01*
G37*
G36*
X18407000Y-61057000D02*
G01*
X17907000Y-61057000D01*
X17907000Y-61557000D01*
X18407000Y-61557000D01*
X18407000Y-61057000D01*
G37*
G36*
X18407000Y-62057000D02*
G01*
X17907000Y-62057000D01*
X17907000Y-62557000D01*
X18407000Y-62557000D01*
X18407000Y-62057000D01*
G37*
G36*
X18407000Y-63557000D02*
G01*
X17907000Y-63557000D01*
X17907000Y-64057000D01*
X18407000Y-64057000D01*
X18407000Y-63557000D01*
G37*
G36*
X18407000Y-65057000D02*
G01*
X17907000Y-65057000D01*
X17907000Y-65557000D01*
X18407000Y-65557000D01*
X18407000Y-65057000D01*
G37*
G36*
X18407000Y-65557000D02*
G01*
X17907000Y-65557000D01*
X17907000Y-66057000D01*
X18407000Y-66057000D01*
X18407000Y-65557000D01*
G37*
G36*
X18407000Y-66057000D02*
G01*
X17907000Y-66057000D01*
X17907000Y-66557000D01*
X18407000Y-66557000D01*
X18407000Y-66057000D01*
G37*
G36*
X18407000Y-66557000D02*
G01*
X17907000Y-66557000D01*
X17907000Y-67057000D01*
X18407000Y-67057000D01*
X18407000Y-66557000D01*
G37*
G36*
X18407000Y-67557000D02*
G01*
X17907000Y-67557000D01*
X17907000Y-68057000D01*
X18407000Y-68057000D01*
X18407000Y-67557000D01*
G37*
G36*
X18907000Y-56057000D02*
G01*
X18407000Y-56057000D01*
X18407000Y-56557000D01*
X18907000Y-56557000D01*
X18907000Y-56057000D01*
G37*
G36*
X18907000Y-56557000D02*
G01*
X18407000Y-56557000D01*
X18407000Y-57057000D01*
X18907000Y-57057000D01*
X18907000Y-56557000D01*
G37*
G36*
X18907000Y-57057000D02*
G01*
X18407000Y-57057000D01*
X18407000Y-57557000D01*
X18907000Y-57557000D01*
X18907000Y-57057000D01*
G37*
G36*
X18907000Y-58557000D02*
G01*
X18407000Y-58557000D01*
X18407000Y-59057000D01*
X18907000Y-59057000D01*
X18907000Y-58557000D01*
G37*
G36*
X18907000Y-60057000D02*
G01*
X18407000Y-60057000D01*
X18407000Y-60557000D01*
X18907000Y-60557000D01*
X18907000Y-60057000D01*
G37*
G36*
X18907000Y-60557000D02*
G01*
X18407000Y-60557000D01*
X18407000Y-61057000D01*
X18907000Y-61057000D01*
X18907000Y-60557000D01*
G37*
G36*
X18907000Y-61057000D02*
G01*
X18407000Y-61057000D01*
X18407000Y-61557000D01*
X18907000Y-61557000D01*
X18907000Y-61057000D01*
G37*
G36*
X18907000Y-63557000D02*
G01*
X18407000Y-63557000D01*
X18407000Y-64057000D01*
X18907000Y-64057000D01*
X18907000Y-63557000D01*
G37*
G36*
X18907000Y-64557000D02*
G01*
X18407000Y-64557000D01*
X18407000Y-65057000D01*
X18907000Y-65057000D01*
X18907000Y-64557000D01*
G37*
G36*
X18907000Y-65057000D02*
G01*
X18407000Y-65057000D01*
X18407000Y-65557000D01*
X18907000Y-65557000D01*
X18907000Y-65057000D01*
G37*
G36*
X18907000Y-66057000D02*
G01*
X18407000Y-66057000D01*
X18407000Y-66557000D01*
X18907000Y-66557000D01*
X18907000Y-66057000D01*
G37*
G36*
X18907000Y-67057000D02*
G01*
X18407000Y-67057000D01*
X18407000Y-67557000D01*
X18907000Y-67557000D01*
X18907000Y-67057000D01*
G37*
G36*
X19407000Y-57057000D02*
G01*
X18907000Y-57057000D01*
X18907000Y-57557000D01*
X19407000Y-57557000D01*
X19407000Y-57057000D01*
G37*
G36*
X19407000Y-57557000D02*
G01*
X18907000Y-57557000D01*
X18907000Y-58057000D01*
X19407000Y-58057000D01*
X19407000Y-57557000D01*
G37*
G36*
X19407000Y-58057000D02*
G01*
X18907000Y-58057000D01*
X18907000Y-58557000D01*
X19407000Y-58557000D01*
X19407000Y-58057000D01*
G37*
G36*
X19407000Y-58557000D02*
G01*
X18907000Y-58557000D01*
X18907000Y-59057000D01*
X19407000Y-59057000D01*
X19407000Y-58557000D01*
G37*
G36*
X19407000Y-59057000D02*
G01*
X18907000Y-59057000D01*
X18907000Y-59557000D01*
X19407000Y-59557000D01*
X19407000Y-59057000D01*
G37*
G36*
X19407000Y-59557000D02*
G01*
X18907000Y-59557000D01*
X18907000Y-60057000D01*
X19407000Y-60057000D01*
X19407000Y-59557000D01*
G37*
G36*
X19407000Y-60557000D02*
G01*
X18907000Y-60557000D01*
X18907000Y-61057000D01*
X19407000Y-61057000D01*
X19407000Y-60557000D01*
G37*
G36*
X19407000Y-62557000D02*
G01*
X18907000Y-62557000D01*
X18907000Y-63057000D01*
X19407000Y-63057000D01*
X19407000Y-62557000D01*
G37*
G36*
X19407000Y-63557000D02*
G01*
X18907000Y-63557000D01*
X18907000Y-64057000D01*
X19407000Y-64057000D01*
X19407000Y-63557000D01*
G37*
G36*
X19407000Y-64557000D02*
G01*
X18907000Y-64557000D01*
X18907000Y-65057000D01*
X19407000Y-65057000D01*
X19407000Y-64557000D01*
G37*
G36*
X19407000Y-65557000D02*
G01*
X18907000Y-65557000D01*
X18907000Y-66057000D01*
X19407000Y-66057000D01*
X19407000Y-65557000D01*
G37*
G36*
X19407000Y-66057000D02*
G01*
X18907000Y-66057000D01*
X18907000Y-66557000D01*
X19407000Y-66557000D01*
X19407000Y-66057000D01*
G37*
G36*
X19407000Y-66557000D02*
G01*
X18907000Y-66557000D01*
X18907000Y-67057000D01*
X19407000Y-67057000D01*
X19407000Y-66557000D01*
G37*
G36*
X19407000Y-67057000D02*
G01*
X18907000Y-67057000D01*
X18907000Y-67557000D01*
X19407000Y-67557000D01*
X19407000Y-67057000D01*
G37*
G36*
X19407000Y-68057000D02*
G01*
X18907000Y-68057000D01*
X18907000Y-68557000D01*
X19407000Y-68557000D01*
X19407000Y-68057000D01*
G37*
G36*
X19907000Y-61057000D02*
G01*
X19407000Y-61057000D01*
X19407000Y-61557000D01*
X19907000Y-61557000D01*
X19907000Y-61057000D01*
G37*
G36*
X19907000Y-63057000D02*
G01*
X19407000Y-63057000D01*
X19407000Y-63557000D01*
X19907000Y-63557000D01*
X19907000Y-63057000D01*
G37*
G36*
X20407000Y-56057000D02*
G01*
X19907000Y-56057000D01*
X19907000Y-56557000D01*
X20407000Y-56557000D01*
X20407000Y-56057000D01*
G37*
G36*
X20407000Y-56557000D02*
G01*
X19907000Y-56557000D01*
X19907000Y-57057000D01*
X20407000Y-57057000D01*
X20407000Y-56557000D01*
G37*
G36*
X20407000Y-57057000D02*
G01*
X19907000Y-57057000D01*
X19907000Y-57557000D01*
X20407000Y-57557000D01*
X20407000Y-57057000D01*
G37*
G36*
X20407000Y-57557000D02*
G01*
X19907000Y-57557000D01*
X19907000Y-58057000D01*
X20407000Y-58057000D01*
X20407000Y-57557000D01*
G37*
G36*
X20407000Y-58057000D02*
G01*
X19907000Y-58057000D01*
X19907000Y-58557000D01*
X20407000Y-58557000D01*
X20407000Y-58057000D01*
G37*
G36*
X20407000Y-58557000D02*
G01*
X19907000Y-58557000D01*
X19907000Y-59057000D01*
X20407000Y-59057000D01*
X20407000Y-58557000D01*
G37*
G36*
X20407000Y-59057000D02*
G01*
X19907000Y-59057000D01*
X19907000Y-59557000D01*
X20407000Y-59557000D01*
X20407000Y-59057000D01*
G37*
G36*
X20407000Y-60057000D02*
G01*
X19907000Y-60057000D01*
X19907000Y-60557000D01*
X20407000Y-60557000D01*
X20407000Y-60057000D01*
G37*
G36*
X20407000Y-61057000D02*
G01*
X19907000Y-61057000D01*
X19907000Y-61557000D01*
X20407000Y-61557000D01*
X20407000Y-61057000D01*
G37*
G36*
X20407000Y-62057000D02*
G01*
X19907000Y-62057000D01*
X19907000Y-62557000D01*
X20407000Y-62557000D01*
X20407000Y-62057000D01*
G37*
G36*
X20407000Y-63057000D02*
G01*
X19907000Y-63057000D01*
X19907000Y-63557000D01*
X20407000Y-63557000D01*
X20407000Y-63057000D01*
G37*
G36*
X20407000Y-64057000D02*
G01*
X19907000Y-64057000D01*
X19907000Y-64557000D01*
X20407000Y-64557000D01*
X20407000Y-64057000D01*
G37*
G36*
X20407000Y-65057000D02*
G01*
X19907000Y-65057000D01*
X19907000Y-65557000D01*
X20407000Y-65557000D01*
X20407000Y-65057000D01*
G37*
G36*
X20407000Y-65557000D02*
G01*
X19907000Y-65557000D01*
X19907000Y-66057000D01*
X20407000Y-66057000D01*
X20407000Y-65557000D01*
G37*
G36*
X20407000Y-66057000D02*
G01*
X19907000Y-66057000D01*
X19907000Y-66557000D01*
X20407000Y-66557000D01*
X20407000Y-66057000D01*
G37*
G36*
X20407000Y-66557000D02*
G01*
X19907000Y-66557000D01*
X19907000Y-67057000D01*
X20407000Y-67057000D01*
X20407000Y-66557000D01*
G37*
G36*
X20407000Y-67057000D02*
G01*
X19907000Y-67057000D01*
X19907000Y-67557000D01*
X20407000Y-67557000D01*
X20407000Y-67057000D01*
G37*
G36*
X20407000Y-67557000D02*
G01*
X19907000Y-67557000D01*
X19907000Y-68057000D01*
X20407000Y-68057000D01*
X20407000Y-67557000D01*
G37*
G36*
X20407000Y-68057000D02*
G01*
X19907000Y-68057000D01*
X19907000Y-68557000D01*
X20407000Y-68557000D01*
X20407000Y-68057000D01*
G37*
G36*
X20907000Y-56057000D02*
G01*
X20407000Y-56057000D01*
X20407000Y-56557000D01*
X20907000Y-56557000D01*
X20907000Y-56057000D01*
G37*
G36*
X20907000Y-59057000D02*
G01*
X20407000Y-59057000D01*
X20407000Y-59557000D01*
X20907000Y-59557000D01*
X20907000Y-59057000D01*
G37*
G36*
X20907000Y-60057000D02*
G01*
X20407000Y-60057000D01*
X20407000Y-60557000D01*
X20907000Y-60557000D01*
X20907000Y-60057000D01*
G37*
G36*
X20907000Y-61057000D02*
G01*
X20407000Y-61057000D01*
X20407000Y-61557000D01*
X20907000Y-61557000D01*
X20907000Y-61057000D01*
G37*
G36*
X20907000Y-63057000D02*
G01*
X20407000Y-63057000D01*
X20407000Y-63557000D01*
X20907000Y-63557000D01*
X20907000Y-63057000D01*
G37*
G36*
X20907000Y-63557000D02*
G01*
X20407000Y-63557000D01*
X20407000Y-64057000D01*
X20907000Y-64057000D01*
X20907000Y-63557000D01*
G37*
G36*
X20907000Y-65057000D02*
G01*
X20407000Y-65057000D01*
X20407000Y-65557000D01*
X20907000Y-65557000D01*
X20907000Y-65057000D01*
G37*
G36*
X20907000Y-68057000D02*
G01*
X20407000Y-68057000D01*
X20407000Y-68557000D01*
X20907000Y-68557000D01*
X20907000Y-68057000D01*
G37*
G36*
X21407000Y-56057000D02*
G01*
X20907000Y-56057000D01*
X20907000Y-56557000D01*
X21407000Y-56557000D01*
X21407000Y-56057000D01*
G37*
G36*
X21407000Y-57057000D02*
G01*
X20907000Y-57057000D01*
X20907000Y-57557000D01*
X21407000Y-57557000D01*
X21407000Y-57057000D01*
G37*
G36*
X21407000Y-57557000D02*
G01*
X20907000Y-57557000D01*
X20907000Y-58057000D01*
X21407000Y-58057000D01*
X21407000Y-57557000D01*
G37*
G36*
X21407000Y-58057000D02*
G01*
X20907000Y-58057000D01*
X20907000Y-58557000D01*
X21407000Y-58557000D01*
X21407000Y-58057000D01*
G37*
G36*
X21407000Y-59057000D02*
G01*
X20907000Y-59057000D01*
X20907000Y-59557000D01*
X21407000Y-59557000D01*
X21407000Y-59057000D01*
G37*
G36*
X21407000Y-60057000D02*
G01*
X20907000Y-60057000D01*
X20907000Y-60557000D01*
X21407000Y-60557000D01*
X21407000Y-60057000D01*
G37*
G36*
X21407000Y-60557000D02*
G01*
X20907000Y-60557000D01*
X20907000Y-61057000D01*
X21407000Y-61057000D01*
X21407000Y-60557000D01*
G37*
G36*
X21407000Y-62057000D02*
G01*
X20907000Y-62057000D01*
X20907000Y-62557000D01*
X21407000Y-62557000D01*
X21407000Y-62057000D01*
G37*
G36*
X21407000Y-62557000D02*
G01*
X20907000Y-62557000D01*
X20907000Y-63057000D01*
X21407000Y-63057000D01*
X21407000Y-62557000D01*
G37*
G36*
X21407000Y-63057000D02*
G01*
X20907000Y-63057000D01*
X20907000Y-63557000D01*
X21407000Y-63557000D01*
X21407000Y-63057000D01*
G37*
G36*
X21407000Y-63557000D02*
G01*
X20907000Y-63557000D01*
X20907000Y-64057000D01*
X21407000Y-64057000D01*
X21407000Y-63557000D01*
G37*
G36*
X21407000Y-65057000D02*
G01*
X20907000Y-65057000D01*
X20907000Y-65557000D01*
X21407000Y-65557000D01*
X21407000Y-65057000D01*
G37*
G36*
X21407000Y-66057000D02*
G01*
X20907000Y-66057000D01*
X20907000Y-66557000D01*
X21407000Y-66557000D01*
X21407000Y-66057000D01*
G37*
G36*
X21407000Y-66557000D02*
G01*
X20907000Y-66557000D01*
X20907000Y-67057000D01*
X21407000Y-67057000D01*
X21407000Y-66557000D01*
G37*
G36*
X21407000Y-67057000D02*
G01*
X20907000Y-67057000D01*
X20907000Y-67557000D01*
X21407000Y-67557000D01*
X21407000Y-67057000D01*
G37*
G36*
X21407000Y-68057000D02*
G01*
X20907000Y-68057000D01*
X20907000Y-68557000D01*
X21407000Y-68557000D01*
X21407000Y-68057000D01*
G37*
G36*
X21907000Y-56057000D02*
G01*
X21407000Y-56057000D01*
X21407000Y-56557000D01*
X21907000Y-56557000D01*
X21907000Y-56057000D01*
G37*
G36*
X21907000Y-57057000D02*
G01*
X21407000Y-57057000D01*
X21407000Y-57557000D01*
X21907000Y-57557000D01*
X21907000Y-57057000D01*
G37*
G36*
X21907000Y-57557000D02*
G01*
X21407000Y-57557000D01*
X21407000Y-58057000D01*
X21907000Y-58057000D01*
X21907000Y-57557000D01*
G37*
G36*
X21907000Y-58057000D02*
G01*
X21407000Y-58057000D01*
X21407000Y-58557000D01*
X21907000Y-58557000D01*
X21907000Y-58057000D01*
G37*
G36*
X21907000Y-59057000D02*
G01*
X21407000Y-59057000D01*
X21407000Y-59557000D01*
X21907000Y-59557000D01*
X21907000Y-59057000D01*
G37*
G36*
X21907000Y-60057000D02*
G01*
X21407000Y-60057000D01*
X21407000Y-60557000D01*
X21907000Y-60557000D01*
X21907000Y-60057000D01*
G37*
G36*
X21907000Y-60557000D02*
G01*
X21407000Y-60557000D01*
X21407000Y-61057000D01*
X21907000Y-61057000D01*
X21907000Y-60557000D01*
G37*
G36*
X21907000Y-61057000D02*
G01*
X21407000Y-61057000D01*
X21407000Y-61557000D01*
X21907000Y-61557000D01*
X21907000Y-61057000D01*
G37*
G36*
X21907000Y-61557000D02*
G01*
X21407000Y-61557000D01*
X21407000Y-62057000D01*
X21907000Y-62057000D01*
X21907000Y-61557000D01*
G37*
G36*
X21907000Y-64057000D02*
G01*
X21407000Y-64057000D01*
X21407000Y-64557000D01*
X21907000Y-64557000D01*
X21907000Y-64057000D01*
G37*
G36*
X21907000Y-65057000D02*
G01*
X21407000Y-65057000D01*
X21407000Y-65557000D01*
X21907000Y-65557000D01*
X21907000Y-65057000D01*
G37*
G36*
X21907000Y-66057000D02*
G01*
X21407000Y-66057000D01*
X21407000Y-66557000D01*
X21907000Y-66557000D01*
X21907000Y-66057000D01*
G37*
G36*
X21907000Y-66557000D02*
G01*
X21407000Y-66557000D01*
X21407000Y-67057000D01*
X21907000Y-67057000D01*
X21907000Y-66557000D01*
G37*
G36*
X21907000Y-67057000D02*
G01*
X21407000Y-67057000D01*
X21407000Y-67557000D01*
X21907000Y-67557000D01*
X21907000Y-67057000D01*
G37*
G36*
X21907000Y-68057000D02*
G01*
X21407000Y-68057000D01*
X21407000Y-68557000D01*
X21907000Y-68557000D01*
X21907000Y-68057000D01*
G37*
G36*
X22407000Y-56057000D02*
G01*
X21907000Y-56057000D01*
X21907000Y-56557000D01*
X22407000Y-56557000D01*
X22407000Y-56057000D01*
G37*
G36*
X22407000Y-57057000D02*
G01*
X21907000Y-57057000D01*
X21907000Y-57557000D01*
X22407000Y-57557000D01*
X22407000Y-57057000D01*
G37*
G36*
X22407000Y-57557000D02*
G01*
X21907000Y-57557000D01*
X21907000Y-58057000D01*
X22407000Y-58057000D01*
X22407000Y-57557000D01*
G37*
G36*
X22407000Y-58057000D02*
G01*
X21907000Y-58057000D01*
X21907000Y-58557000D01*
X22407000Y-58557000D01*
X22407000Y-58057000D01*
G37*
G36*
X22407000Y-59057000D02*
G01*
X21907000Y-59057000D01*
X21907000Y-59557000D01*
X22407000Y-59557000D01*
X22407000Y-59057000D01*
G37*
G36*
X22407000Y-60057000D02*
G01*
X21907000Y-60057000D01*
X21907000Y-60557000D01*
X22407000Y-60557000D01*
X22407000Y-60057000D01*
G37*
G36*
X22407000Y-61057000D02*
G01*
X21907000Y-61057000D01*
X21907000Y-61557000D01*
X22407000Y-61557000D01*
X22407000Y-61057000D01*
G37*
G36*
X22407000Y-61557000D02*
G01*
X21907000Y-61557000D01*
X21907000Y-62057000D01*
X22407000Y-62057000D01*
X22407000Y-61557000D01*
G37*
G36*
X22407000Y-62057000D02*
G01*
X21907000Y-62057000D01*
X21907000Y-62557000D01*
X22407000Y-62557000D01*
X22407000Y-62057000D01*
G37*
G36*
X22407000Y-63057000D02*
G01*
X21907000Y-63057000D01*
X21907000Y-63557000D01*
X22407000Y-63557000D01*
X22407000Y-63057000D01*
G37*
G36*
X22407000Y-64057000D02*
G01*
X21907000Y-64057000D01*
X21907000Y-64557000D01*
X22407000Y-64557000D01*
X22407000Y-64057000D01*
G37*
G36*
X22407000Y-65057000D02*
G01*
X21907000Y-65057000D01*
X21907000Y-65557000D01*
X22407000Y-65557000D01*
X22407000Y-65057000D01*
G37*
G36*
X22407000Y-66057000D02*
G01*
X21907000Y-66057000D01*
X21907000Y-66557000D01*
X22407000Y-66557000D01*
X22407000Y-66057000D01*
G37*
G36*
X22407000Y-66557000D02*
G01*
X21907000Y-66557000D01*
X21907000Y-67057000D01*
X22407000Y-67057000D01*
X22407000Y-66557000D01*
G37*
G36*
X22407000Y-67057000D02*
G01*
X21907000Y-67057000D01*
X21907000Y-67557000D01*
X22407000Y-67557000D01*
X22407000Y-67057000D01*
G37*
G36*
X22407000Y-68057000D02*
G01*
X21907000Y-68057000D01*
X21907000Y-68557000D01*
X22407000Y-68557000D01*
X22407000Y-68057000D01*
G37*
G36*
X22907000Y-56057000D02*
G01*
X22407000Y-56057000D01*
X22407000Y-56557000D01*
X22907000Y-56557000D01*
X22907000Y-56057000D01*
G37*
G36*
X22907000Y-59057000D02*
G01*
X22407000Y-59057000D01*
X22407000Y-59557000D01*
X22907000Y-59557000D01*
X22907000Y-59057000D01*
G37*
G36*
X22907000Y-61557000D02*
G01*
X22407000Y-61557000D01*
X22407000Y-62057000D01*
X22907000Y-62057000D01*
X22907000Y-61557000D01*
G37*
G36*
X22907000Y-62057000D02*
G01*
X22407000Y-62057000D01*
X22407000Y-62557000D01*
X22907000Y-62557000D01*
X22907000Y-62057000D01*
G37*
G36*
X22907000Y-65057000D02*
G01*
X22407000Y-65057000D01*
X22407000Y-65557000D01*
X22907000Y-65557000D01*
X22907000Y-65057000D01*
G37*
G36*
X22907000Y-68057000D02*
G01*
X22407000Y-68057000D01*
X22407000Y-68557000D01*
X22907000Y-68557000D01*
X22907000Y-68057000D01*
G37*
G36*
X23407000Y-56057000D02*
G01*
X22907000Y-56057000D01*
X22907000Y-56557000D01*
X23407000Y-56557000D01*
X23407000Y-56057000D01*
G37*
G36*
X23407000Y-56557000D02*
G01*
X22907000Y-56557000D01*
X22907000Y-57057000D01*
X23407000Y-57057000D01*
X23407000Y-56557000D01*
G37*
G36*
X23407000Y-57057000D02*
G01*
X22907000Y-57057000D01*
X22907000Y-57557000D01*
X23407000Y-57557000D01*
X23407000Y-57057000D01*
G37*
G36*
X23407000Y-57557000D02*
G01*
X22907000Y-57557000D01*
X22907000Y-58057000D01*
X23407000Y-58057000D01*
X23407000Y-57557000D01*
G37*
G36*
X23407000Y-58057000D02*
G01*
X22907000Y-58057000D01*
X22907000Y-58557000D01*
X23407000Y-58557000D01*
X23407000Y-58057000D01*
G37*
G36*
X23407000Y-58557000D02*
G01*
X22907000Y-58557000D01*
X22907000Y-59057000D01*
X23407000Y-59057000D01*
X23407000Y-58557000D01*
G37*
G36*
X23407000Y-59057000D02*
G01*
X22907000Y-59057000D01*
X22907000Y-59557000D01*
X23407000Y-59557000D01*
X23407000Y-59057000D01*
G37*
G36*
X23407000Y-60057000D02*
G01*
X22907000Y-60057000D01*
X22907000Y-60557000D01*
X23407000Y-60557000D01*
X23407000Y-60057000D01*
G37*
G36*
X23407000Y-60557000D02*
G01*
X22907000Y-60557000D01*
X22907000Y-61057000D01*
X23407000Y-61057000D01*
X23407000Y-60557000D01*
G37*
G36*
X23407000Y-61557000D02*
G01*
X22907000Y-61557000D01*
X22907000Y-62057000D01*
X23407000Y-62057000D01*
X23407000Y-61557000D01*
G37*
G36*
X23407000Y-62557000D02*
G01*
X22907000Y-62557000D01*
X22907000Y-63057000D01*
X23407000Y-63057000D01*
X23407000Y-62557000D01*
G37*
G36*
X23407000Y-63057000D02*
G01*
X22907000Y-63057000D01*
X22907000Y-63557000D01*
X23407000Y-63557000D01*
X23407000Y-63057000D01*
G37*
G36*
X23407000Y-63557000D02*
G01*
X22907000Y-63557000D01*
X22907000Y-64057000D01*
X23407000Y-64057000D01*
X23407000Y-63557000D01*
G37*
G36*
X23407000Y-64057000D02*
G01*
X22907000Y-64057000D01*
X22907000Y-64557000D01*
X23407000Y-64557000D01*
X23407000Y-64057000D01*
G37*
G36*
X23407000Y-65057000D02*
G01*
X22907000Y-65057000D01*
X22907000Y-65557000D01*
X23407000Y-65557000D01*
X23407000Y-65057000D01*
G37*
G36*
X23407000Y-65557000D02*
G01*
X22907000Y-65557000D01*
X22907000Y-66057000D01*
X23407000Y-66057000D01*
X23407000Y-65557000D01*
G37*
G36*
X23407000Y-66057000D02*
G01*
X22907000Y-66057000D01*
X22907000Y-66557000D01*
X23407000Y-66557000D01*
X23407000Y-66057000D01*
G37*
G36*
X23407000Y-66557000D02*
G01*
X22907000Y-66557000D01*
X22907000Y-67057000D01*
X23407000Y-67057000D01*
X23407000Y-66557000D01*
G37*
G36*
X23407000Y-67057000D02*
G01*
X22907000Y-67057000D01*
X22907000Y-67557000D01*
X23407000Y-67557000D01*
X23407000Y-67057000D01*
G37*
G36*
X23407000Y-67557000D02*
G01*
X22907000Y-67557000D01*
X22907000Y-68057000D01*
X23407000Y-68057000D01*
X23407000Y-67557000D01*
G37*
G36*
X23407000Y-68057000D02*
G01*
X22907000Y-68057000D01*
X22907000Y-68557000D01*
X23407000Y-68557000D01*
X23407000Y-68057000D01*
G37*
%TD*%
M02*
