%TF.GenerationSoftware,KiCad,Pcbnew,9.0.1*%
%TF.CreationDate,2025-08-02T01:33:37-07:00*%
%TF.ProjectId,bottom,626f7474-6f6d-42e6-9b69-6361645f7063,A1*%
%TF.SameCoordinates,PX578c1c0PY3d09000*%
%TF.FileFunction,Copper,L2,Bot*%
%TF.FilePolarity,Positive*%
%FSLAX46Y46*%
G04 Gerber Fmt 4.6, Leading zero omitted, Abs format (unit mm)*
G04 Created by KiCad (PCBNEW 9.0.1) date 2025-08-02 01:33:37*
%MOMM*%
%LPD*%
G01*
G04 APERTURE LIST*
G04 Aperture macros list*
%AMRoundRect*
0 Rectangle with rounded corners*
0 $1 Rounding radius*
0 $2 $3 $4 $5 $6 $7 $8 $9 X,Y pos of 4 corners*
0 Add a 4 corners polygon primitive as box body*
4,1,4,$2,$3,$4,$5,$6,$7,$8,$9,$2,$3,0*
0 Add four circle primitives for the rounded corners*
1,1,$1+$1,$2,$3*
1,1,$1+$1,$4,$5*
1,1,$1+$1,$6,$7*
1,1,$1+$1,$8,$9*
0 Add four rect primitives between the rounded corners*
20,1,$1+$1,$2,$3,$4,$5,0*
20,1,$1+$1,$4,$5,$6,$7,0*
20,1,$1+$1,$6,$7,$8,$9,0*
20,1,$1+$1,$8,$9,$2,$3,0*%
G04 Aperture macros list end*
%TA.AperFunction,ComponentPad*%
%ADD10RoundRect,0.250000X-1.050000X-1.050000X1.050000X-1.050000X1.050000X1.050000X-1.050000X1.050000X0*%
%TD*%
%TA.AperFunction,ComponentPad*%
%ADD11C,2.600000*%
%TD*%
%TA.AperFunction,ComponentPad*%
%ADD12R,1.700000X1.700000*%
%TD*%
%TA.AperFunction,ComponentPad*%
%ADD13C,1.700000*%
%TD*%
%TA.AperFunction,ComponentPad*%
%ADD14RoundRect,0.250000X1.050000X1.050000X-1.050000X1.050000X-1.050000X-1.050000X1.050000X-1.050000X0*%
%TD*%
%TA.AperFunction,ComponentPad*%
%ADD15C,4.500000*%
%TD*%
%TA.AperFunction,ViaPad*%
%ADD16C,0.800000*%
%TD*%
%TA.AperFunction,ViaPad*%
%ADD17C,0.600000*%
%TD*%
%TA.AperFunction,Conductor*%
%ADD18C,0.300000*%
%TD*%
%TA.AperFunction,Conductor*%
%ADD19C,0.200000*%
%TD*%
%TA.AperFunction,Conductor*%
%ADD20C,1.000000*%
%TD*%
%TA.AperFunction,Conductor*%
%ADD21C,0.500000*%
%TD*%
G04 APERTURE END LIST*
D10*
%TO.P,J4,1,Pin_1*%
%TO.N,Net-(J4-Pin_1)*%
X16100000Y-77920000D03*
D11*
%TO.P,J4,2,Pin_2*%
%TO.N,Net-(J4-Pin_2)*%
X21180000Y-77920000D03*
%TO.P,J4,3,Pin_3*%
%TO.N,Net-(J4-Pin_3)*%
X26260000Y-77920000D03*
%TD*%
D12*
%TO.P,J5,1,Pin_1*%
%TO.N,GND*%
X5940000Y-77920000D03*
D13*
%TO.P,J5,2,Pin_2*%
%TO.N,/SWIO*%
X8480000Y-77920000D03*
%TD*%
D14*
%TO.P,J1,1,Pin_1*%
%TO.N,GND*%
X11020000Y-5080000D03*
D11*
%TO.P,J1,2,Pin_2*%
%TO.N,+12V*%
X5940000Y-5080000D03*
%TD*%
D14*
%TO.P,J2,1,Pin_1*%
%TO.N,/RS485+*%
X26260000Y-5080000D03*
D11*
%TO.P,J2,2,Pin_2*%
%TO.N,/RS485-*%
X21180000Y-5080000D03*
%TO.P,J2,3,Pin_3*%
%TO.N,GND*%
X16100000Y-5080000D03*
%TD*%
D15*
%TO.P,H8,1,1*%
%TO.N,GND*%
X3650000Y-59000000D03*
%TD*%
%TO.P,H9,1,1*%
%TO.N,GND*%
X27650000Y-35500000D03*
%TD*%
D12*
%TO.P,J3,1,Pin_1*%
%TO.N,GND*%
X4330000Y-37230000D03*
D13*
%TO.P,J3,2,Pin_2*%
%TO.N,/SDA*%
X6870000Y-37230000D03*
%TO.P,J3,3,Pin_3*%
%TO.N,/SCL*%
X4330000Y-39770000D03*
%TO.P,J3,4,Pin_4*%
%TO.N,+5V*%
X6870000Y-39770000D03*
%TD*%
D16*
%TO.N,GND*%
X22618000Y-50242000D03*
D17*
X15592000Y-32454000D03*
D16*
X11950000Y-28525000D03*
D17*
X16522000Y-45543000D03*
X16351229Y-32708000D03*
D16*
X25285000Y-41352000D03*
D17*
X11442000Y-46686000D03*
X11442000Y-44146000D03*
D16*
X14830000Y-40328000D03*
%TO.N,+5V*%
X20152000Y-38246000D03*
X11452000Y-38246000D03*
X10652000Y-38246000D03*
X20952000Y-38246000D03*
D17*
%TO.N,/SWIO*%
X10730001Y-45535001D03*
%TD*%
D18*
%TO.N,GND*%
X27650000Y-35500000D02*
X18638000Y-35500000D01*
X18638000Y-35500000D02*
X15592000Y-32454000D01*
X11020000Y-30540000D02*
X11020000Y-5080000D01*
X4330000Y-37230000D02*
X11020000Y-30540000D01*
D19*
X4399000Y-37230000D02*
X5600000Y-38431000D01*
D18*
X9106000Y-32454000D02*
X15592000Y-32454000D01*
X4330000Y-37230000D02*
X9106000Y-32454000D01*
X4330000Y-37230000D02*
X4399000Y-37230000D01*
X2651000Y-38909000D02*
X2651000Y-58001000D01*
X4330000Y-37230000D02*
X2651000Y-38909000D01*
X2651000Y-58001000D02*
X3650000Y-59000000D01*
D20*
%TO.N,+5V*%
X20952000Y-38246000D02*
X10652000Y-38246000D01*
D21*
%TO.N,/SWIO*%
X8480000Y-65570260D02*
X8480000Y-47785002D01*
X8480000Y-77920000D02*
X8480000Y-68429740D01*
X8480000Y-47785002D02*
X10730001Y-45535001D01*
X8480000Y-68429740D02*
X8501000Y-68408740D01*
X8501000Y-65591260D02*
X8480000Y-65570260D01*
X8501000Y-68408740D02*
X8501000Y-65591260D01*
%TD*%
%TA.AperFunction,Conductor*%
%TO.N,GND*%
G36*
X5848030Y-38125030D02*
G01*
X5876285Y-38146181D01*
X5990213Y-38260109D01*
X6162182Y-38385050D01*
X6170946Y-38389516D01*
X6221742Y-38437491D01*
X6238536Y-38505312D01*
X6215998Y-38571447D01*
X6170946Y-38610484D01*
X6162182Y-38614949D01*
X5990213Y-38739890D01*
X5839890Y-38890213D01*
X5714949Y-39062182D01*
X5710484Y-39070946D01*
X5662509Y-39121742D01*
X5594688Y-39138536D01*
X5528553Y-39115998D01*
X5489516Y-39070946D01*
X5485050Y-39062182D01*
X5360109Y-38890213D01*
X5246181Y-38776285D01*
X5212696Y-38714962D01*
X5217680Y-38645270D01*
X5259552Y-38589337D01*
X5290529Y-38572422D01*
X5422086Y-38523354D01*
X5422093Y-38523350D01*
X5537187Y-38437190D01*
X5537190Y-38437187D01*
X5623350Y-38322093D01*
X5623354Y-38322086D01*
X5672422Y-38190529D01*
X5714293Y-38134595D01*
X5779757Y-38110178D01*
X5848030Y-38125030D01*
G37*
%TD.AperFunction*%
%TA.AperFunction,Conductor*%
G36*
X31642539Y-520185D02*
G01*
X31688294Y-572989D01*
X31699500Y-624500D01*
X31699500Y-34625500D01*
X31679815Y-34692539D01*
X31627011Y-34738294D01*
X31575500Y-34749500D01*
X30388867Y-34749500D01*
X30321828Y-34729815D01*
X30276073Y-34677011D01*
X30271825Y-34666454D01*
X30194671Y-34445960D01*
X30060658Y-34167679D01*
X29896324Y-33906144D01*
X29896323Y-33906142D01*
X29763706Y-33739845D01*
X28765270Y-34738281D01*
X28679722Y-34620534D01*
X28529466Y-34470278D01*
X28411716Y-34384728D01*
X29410152Y-33386293D01*
X29243845Y-33253669D01*
X28982320Y-33089341D01*
X28704039Y-32955328D01*
X28412498Y-32853314D01*
X28412500Y-32853314D01*
X28111367Y-32784583D01*
X28111355Y-32784581D01*
X27804441Y-32750000D01*
X27495558Y-32750000D01*
X27188644Y-32784581D01*
X27188632Y-32784583D01*
X26887500Y-32853314D01*
X26595960Y-32955328D01*
X26317679Y-33089341D01*
X26056144Y-33253675D01*
X26056140Y-33253678D01*
X25889845Y-33386292D01*
X26888282Y-34384729D01*
X26770534Y-34470278D01*
X26620278Y-34620534D01*
X26534729Y-34738282D01*
X25536292Y-33739845D01*
X25403678Y-33906140D01*
X25403675Y-33906144D01*
X25239341Y-34167679D01*
X25105328Y-34445960D01*
X25003314Y-34737500D01*
X24934583Y-35038632D01*
X24934581Y-35038644D01*
X24900000Y-35345558D01*
X24900000Y-35654441D01*
X24934581Y-35961355D01*
X24934583Y-35961367D01*
X25003314Y-36262499D01*
X25105328Y-36554039D01*
X25239341Y-36832320D01*
X25403669Y-37093845D01*
X25536293Y-37260152D01*
X26534728Y-36261716D01*
X26620278Y-36379466D01*
X26770534Y-36529722D01*
X26888281Y-36615270D01*
X25889845Y-37613706D01*
X26056142Y-37746323D01*
X26056144Y-37746324D01*
X26317679Y-37910658D01*
X26595960Y-38044671D01*
X26887501Y-38146685D01*
X26887499Y-38146685D01*
X27188632Y-38215416D01*
X27188644Y-38215418D01*
X27495558Y-38249999D01*
X27495560Y-38250000D01*
X27804440Y-38250000D01*
X27804441Y-38249999D01*
X28111355Y-38215418D01*
X28111367Y-38215416D01*
X28412499Y-38146685D01*
X28704039Y-38044671D01*
X28982320Y-37910658D01*
X29243851Y-37746326D01*
X29485339Y-37553747D01*
X29487819Y-37551268D01*
X29549142Y-37517783D01*
X29618834Y-37522767D01*
X29674767Y-37564639D01*
X29699184Y-37630103D01*
X29699500Y-37638949D01*
X29699500Y-47815891D01*
X29733608Y-47943187D01*
X29766554Y-48000250D01*
X29799500Y-48057314D01*
X29892686Y-48150500D01*
X30006814Y-48216392D01*
X30134108Y-48250500D01*
X31575500Y-48250500D01*
X31642539Y-48270185D01*
X31688294Y-48322989D01*
X31699500Y-48374500D01*
X31699500Y-82375500D01*
X31679815Y-82442539D01*
X31627011Y-82488294D01*
X31575500Y-82499500D01*
X624500Y-82499500D01*
X557461Y-82479815D01*
X511706Y-82427011D01*
X500500Y-82375500D01*
X500500Y-66823065D01*
X1949500Y-66823065D01*
X1949500Y-67176934D01*
X1989116Y-67528545D01*
X1989119Y-67528559D01*
X2067859Y-67873543D01*
X2067860Y-67873545D01*
X2184731Y-68207545D01*
X2338262Y-68526355D01*
X2338264Y-68526358D01*
X2526527Y-68825976D01*
X2657163Y-68989789D01*
X2735046Y-69087452D01*
X2747153Y-69102633D01*
X2997367Y-69352847D01*
X3274024Y-69573473D01*
X3573642Y-69761736D01*
X3892456Y-69915269D01*
X4226456Y-70032140D01*
X4571440Y-70110881D01*
X4571449Y-70110882D01*
X4571454Y-70110883D01*
X4805861Y-70137293D01*
X4923066Y-70150499D01*
X4923069Y-70150500D01*
X4923072Y-70150500D01*
X5276931Y-70150500D01*
X5276932Y-70150499D01*
X5456635Y-70130252D01*
X5628545Y-70110883D01*
X5628548Y-70110882D01*
X5628560Y-70110881D01*
X5973544Y-70032140D01*
X6307544Y-69915269D01*
X6626358Y-69761736D01*
X6925976Y-69573473D01*
X7202633Y-69352847D01*
X7452847Y-69102633D01*
X7508553Y-69032778D01*
X7565741Y-68992639D01*
X7635552Y-68989789D01*
X7695822Y-69025134D01*
X7727416Y-69087452D01*
X7729500Y-69110092D01*
X7729500Y-76106469D01*
X7721238Y-76150975D01*
X7462912Y-76822754D01*
X7420477Y-76878261D01*
X7354769Y-76902015D01*
X7286650Y-76886474D01*
X7237747Y-76836572D01*
X7236166Y-76833064D01*
X7233350Y-76827906D01*
X7147190Y-76712812D01*
X7147187Y-76712809D01*
X7032093Y-76626649D01*
X7032086Y-76626645D01*
X6897379Y-76576403D01*
X6897372Y-76576401D01*
X6837844Y-76570000D01*
X6190000Y-76570000D01*
X6190000Y-77486988D01*
X6132993Y-77454075D01*
X6005826Y-77420000D01*
X5874174Y-77420000D01*
X5747007Y-77454075D01*
X5690000Y-77486988D01*
X5690000Y-76570000D01*
X5042155Y-76570000D01*
X4982627Y-76576401D01*
X4982620Y-76576403D01*
X4847913Y-76626645D01*
X4847906Y-76626649D01*
X4732812Y-76712809D01*
X4732809Y-76712812D01*
X4646649Y-76827906D01*
X4646645Y-76827913D01*
X4596403Y-76962620D01*
X4596401Y-76962627D01*
X4590000Y-77022155D01*
X4590000Y-77670000D01*
X5506988Y-77670000D01*
X5474075Y-77727007D01*
X5440000Y-77854174D01*
X5440000Y-77985826D01*
X5474075Y-78112993D01*
X5506988Y-78170000D01*
X4590000Y-78170000D01*
X4590000Y-78817844D01*
X4596401Y-78877372D01*
X4596403Y-78877379D01*
X4646645Y-79012086D01*
X4646649Y-79012093D01*
X4732809Y-79127187D01*
X4732812Y-79127190D01*
X4847906Y-79213350D01*
X4847913Y-79213354D01*
X4982620Y-79263596D01*
X4982627Y-79263598D01*
X5042155Y-79269999D01*
X5042172Y-79270000D01*
X5690000Y-79270000D01*
X5690000Y-78353012D01*
X5747007Y-78385925D01*
X5874174Y-78420000D01*
X6005826Y-78420000D01*
X6132993Y-78385925D01*
X6190000Y-78353012D01*
X6190000Y-79270000D01*
X6837828Y-79270000D01*
X6837844Y-79269999D01*
X6897372Y-79263598D01*
X6897379Y-79263596D01*
X7032086Y-79213354D01*
X7032093Y-79213350D01*
X7147187Y-79127190D01*
X7147190Y-79127187D01*
X7233350Y-79012093D01*
X7233354Y-79012086D01*
X7282422Y-78880529D01*
X7324293Y-78824595D01*
X7389757Y-78800178D01*
X7458030Y-78815030D01*
X7486285Y-78836181D01*
X7600213Y-78950109D01*
X7772179Y-79075048D01*
X7772181Y-79075049D01*
X7772184Y-79075051D01*
X7961588Y-79171557D01*
X8163757Y-79237246D01*
X8373713Y-79270500D01*
X8373714Y-79270500D01*
X8586286Y-79270500D01*
X8586287Y-79270500D01*
X8796243Y-79237246D01*
X8998412Y-79171557D01*
X9187816Y-79075051D01*
X9263566Y-79020016D01*
X9359786Y-78950109D01*
X9359788Y-78950106D01*
X9359792Y-78950104D01*
X9510104Y-78799792D01*
X9510106Y-78799788D01*
X9510109Y-78799786D01*
X9635048Y-78627820D01*
X9635047Y-78627820D01*
X9635051Y-78627816D01*
X9731557Y-78438412D01*
X9797246Y-78236243D01*
X9830500Y-78026287D01*
X9830500Y-77813713D01*
X9812510Y-77700135D01*
X9812509Y-77700067D01*
X9812479Y-77699939D01*
X9797246Y-77603757D01*
X9731557Y-77401588D01*
X9686023Y-77312225D01*
X9680777Y-77300449D01*
X9550869Y-76962620D01*
X9496020Y-76819983D01*
X14299500Y-76819983D01*
X14299500Y-79020001D01*
X14299501Y-79020018D01*
X14310000Y-79122796D01*
X14310001Y-79122799D01*
X14347926Y-79237246D01*
X14365186Y-79289334D01*
X14457288Y-79438656D01*
X14581344Y-79562712D01*
X14730666Y-79654814D01*
X14897203Y-79709999D01*
X14999991Y-79720500D01*
X17200008Y-79720499D01*
X17302797Y-79709999D01*
X17469334Y-79654814D01*
X17618656Y-79562712D01*
X17742712Y-79438656D01*
X17834814Y-79289334D01*
X17889999Y-79122797D01*
X17900500Y-79020009D01*
X17900499Y-77801995D01*
X19379500Y-77801995D01*
X19379500Y-78038004D01*
X19379501Y-78038020D01*
X19405597Y-78236243D01*
X19410307Y-78272014D01*
X19449960Y-78420000D01*
X19471394Y-78499993D01*
X19561714Y-78718045D01*
X19561719Y-78718056D01*
X19623230Y-78824595D01*
X19679727Y-78922450D01*
X19679729Y-78922453D01*
X19679730Y-78922454D01*
X19823406Y-79109697D01*
X19823412Y-79109704D01*
X19990295Y-79276587D01*
X19990302Y-79276593D01*
X20006909Y-79289336D01*
X20177550Y-79420273D01*
X20308918Y-79496118D01*
X20381943Y-79538280D01*
X20381948Y-79538282D01*
X20381951Y-79538284D01*
X20600007Y-79628606D01*
X20827986Y-79689693D01*
X21061989Y-79720500D01*
X21061996Y-79720500D01*
X21298004Y-79720500D01*
X21298011Y-79720500D01*
X21532014Y-79689693D01*
X21759993Y-79628606D01*
X21978049Y-79538284D01*
X22182450Y-79420273D01*
X22369699Y-79276592D01*
X22536592Y-79109699D01*
X22680273Y-78922450D01*
X22798284Y-78718049D01*
X22888606Y-78499993D01*
X22949693Y-78272014D01*
X22980500Y-78038011D01*
X22980500Y-77801995D01*
X24459500Y-77801995D01*
X24459500Y-78038004D01*
X24459501Y-78038020D01*
X24485597Y-78236243D01*
X24490307Y-78272014D01*
X24529960Y-78420000D01*
X24551394Y-78499993D01*
X24641714Y-78718045D01*
X24641719Y-78718056D01*
X24703230Y-78824595D01*
X24759727Y-78922450D01*
X24759729Y-78922453D01*
X24759730Y-78922454D01*
X24903406Y-79109697D01*
X24903412Y-79109704D01*
X25070295Y-79276587D01*
X25070302Y-79276593D01*
X25086909Y-79289336D01*
X25257550Y-79420273D01*
X25388918Y-79496118D01*
X25461943Y-79538280D01*
X25461948Y-79538282D01*
X25461951Y-79538284D01*
X25680007Y-79628606D01*
X25907986Y-79689693D01*
X26141989Y-79720500D01*
X26141996Y-79720500D01*
X26378004Y-79720500D01*
X26378011Y-79720500D01*
X26612014Y-79689693D01*
X26839993Y-79628606D01*
X27058049Y-79538284D01*
X27262450Y-79420273D01*
X27449699Y-79276592D01*
X27616592Y-79109699D01*
X27760273Y-78922450D01*
X27878284Y-78718049D01*
X27968606Y-78499993D01*
X28029693Y-78272014D01*
X28060500Y-78038011D01*
X28060500Y-77801989D01*
X28029693Y-77567986D01*
X27968606Y-77340007D01*
X27878284Y-77121951D01*
X27878282Y-77121948D01*
X27878280Y-77121943D01*
X27820667Y-77022155D01*
X27760273Y-76917550D01*
X27616592Y-76730301D01*
X27616587Y-76730295D01*
X27449704Y-76563412D01*
X27449697Y-76563406D01*
X27262454Y-76419730D01*
X27262453Y-76419729D01*
X27262450Y-76419727D01*
X27180957Y-76372677D01*
X27058056Y-76301719D01*
X27058045Y-76301714D01*
X26839993Y-76211394D01*
X26612010Y-76150306D01*
X26378020Y-76119501D01*
X26378017Y-76119500D01*
X26378011Y-76119500D01*
X26141989Y-76119500D01*
X26141983Y-76119500D01*
X26141979Y-76119501D01*
X25907989Y-76150306D01*
X25680006Y-76211394D01*
X25461954Y-76301714D01*
X25461943Y-76301719D01*
X25257545Y-76419730D01*
X25070302Y-76563406D01*
X25070295Y-76563412D01*
X24903412Y-76730295D01*
X24903406Y-76730302D01*
X24759730Y-76917545D01*
X24641719Y-77121943D01*
X24641714Y-77121954D01*
X24551394Y-77340006D01*
X24490306Y-77567989D01*
X24459501Y-77801979D01*
X24459500Y-77801995D01*
X22980500Y-77801995D01*
X22980500Y-77801989D01*
X22949693Y-77567986D01*
X22888606Y-77340007D01*
X22798284Y-77121951D01*
X22798282Y-77121948D01*
X22798280Y-77121943D01*
X22740667Y-77022155D01*
X22680273Y-76917550D01*
X22536592Y-76730301D01*
X22536587Y-76730295D01*
X22369704Y-76563412D01*
X22369697Y-76563406D01*
X22182454Y-76419730D01*
X22182453Y-76419729D01*
X22182450Y-76419727D01*
X22100957Y-76372677D01*
X21978056Y-76301719D01*
X21978045Y-76301714D01*
X21759993Y-76211394D01*
X21532010Y-76150306D01*
X21298020Y-76119501D01*
X21298017Y-76119500D01*
X21298011Y-76119500D01*
X21061989Y-76119500D01*
X21061983Y-76119500D01*
X21061979Y-76119501D01*
X20827989Y-76150306D01*
X20600006Y-76211394D01*
X20381954Y-76301714D01*
X20381943Y-76301719D01*
X20177545Y-76419730D01*
X19990302Y-76563406D01*
X19990295Y-76563412D01*
X19823412Y-76730295D01*
X19823406Y-76730302D01*
X19679730Y-76917545D01*
X19561719Y-77121943D01*
X19561714Y-77121954D01*
X19471394Y-77340006D01*
X19410306Y-77567989D01*
X19379501Y-77801979D01*
X19379500Y-77801995D01*
X17900499Y-77801995D01*
X17900499Y-76819992D01*
X17889999Y-76717203D01*
X17834814Y-76550666D01*
X17742712Y-76401344D01*
X17618656Y-76277288D01*
X17469334Y-76185186D01*
X17302797Y-76130001D01*
X17302795Y-76130000D01*
X17200010Y-76119500D01*
X14999998Y-76119500D01*
X14999981Y-76119501D01*
X14897203Y-76130000D01*
X14897200Y-76130001D01*
X14730668Y-76185185D01*
X14730663Y-76185187D01*
X14581342Y-76277289D01*
X14457289Y-76401342D01*
X14365187Y-76550663D01*
X14365185Y-76550668D01*
X14340009Y-76626645D01*
X14310001Y-76717203D01*
X14310001Y-76717204D01*
X14310000Y-76717204D01*
X14299500Y-76819983D01*
X9496020Y-76819983D01*
X9335038Y-76401344D01*
X9238762Y-76150974D01*
X9230500Y-76106469D01*
X9230500Y-68600441D01*
X9232883Y-68576249D01*
X9251500Y-68482660D01*
X9251500Y-66878711D01*
X25249500Y-66878711D01*
X25249500Y-67121288D01*
X25281161Y-67361785D01*
X25343947Y-67596104D01*
X25436773Y-67820205D01*
X25436776Y-67820212D01*
X25558064Y-68030289D01*
X25558066Y-68030292D01*
X25558067Y-68030293D01*
X25705733Y-68222736D01*
X25705739Y-68222743D01*
X25877256Y-68394260D01*
X25877262Y-68394265D01*
X26069711Y-68541936D01*
X26279788Y-68663224D01*
X26503900Y-68756054D01*
X26738211Y-68818838D01*
X26918586Y-68842584D01*
X26978711Y-68850500D01*
X26978712Y-68850500D01*
X27221289Y-68850500D01*
X27269388Y-68844167D01*
X27461789Y-68818838D01*
X27696100Y-68756054D01*
X27920212Y-68663224D01*
X28130289Y-68541936D01*
X28322738Y-68394265D01*
X28494265Y-68222738D01*
X28641936Y-68030289D01*
X28763224Y-67820212D01*
X28856054Y-67596100D01*
X28918838Y-67361789D01*
X28950500Y-67121288D01*
X28950500Y-66878712D01*
X28918838Y-66638211D01*
X28856054Y-66403900D01*
X28763224Y-66179788D01*
X28641936Y-65969711D01*
X28494265Y-65777262D01*
X28494260Y-65777256D01*
X28322743Y-65605739D01*
X28322736Y-65605733D01*
X28130293Y-65458067D01*
X28130292Y-65458066D01*
X28130289Y-65458064D01*
X27920212Y-65336776D01*
X27920205Y-65336773D01*
X27696104Y-65243947D01*
X27461785Y-65181161D01*
X27221289Y-65149500D01*
X27221288Y-65149500D01*
X26978712Y-65149500D01*
X26978711Y-65149500D01*
X26738214Y-65181161D01*
X26503895Y-65243947D01*
X26279794Y-65336773D01*
X26279785Y-65336777D01*
X26069706Y-65458067D01*
X25877263Y-65605733D01*
X25877256Y-65605739D01*
X25705739Y-65777256D01*
X25705733Y-65777263D01*
X25558067Y-65969706D01*
X25436777Y-66179785D01*
X25436773Y-66179794D01*
X25343947Y-66403895D01*
X25281161Y-66638214D01*
X25249500Y-66878711D01*
X9251500Y-66878711D01*
X9251500Y-65517339D01*
X9232883Y-65423749D01*
X9230500Y-65399557D01*
X9230500Y-58878711D01*
X26699500Y-58878711D01*
X26699500Y-59121288D01*
X26731161Y-59361785D01*
X26793947Y-59596104D01*
X26886773Y-59820205D01*
X26886776Y-59820212D01*
X27008064Y-60030289D01*
X27008066Y-60030292D01*
X27008067Y-60030293D01*
X27155733Y-60222736D01*
X27155739Y-60222743D01*
X27327256Y-60394260D01*
X27327262Y-60394265D01*
X27519711Y-60541936D01*
X27729788Y-60663224D01*
X27953900Y-60756054D01*
X28188211Y-60818838D01*
X28368586Y-60842584D01*
X28428711Y-60850500D01*
X28428712Y-60850500D01*
X28671289Y-60850500D01*
X28719388Y-60844167D01*
X28911789Y-60818838D01*
X29146100Y-60756054D01*
X29370212Y-60663224D01*
X29580289Y-60541936D01*
X29772738Y-60394265D01*
X29944265Y-60222738D01*
X30091936Y-60030289D01*
X30213224Y-59820212D01*
X30306054Y-59596100D01*
X30368838Y-59361789D01*
X30400500Y-59121288D01*
X30400500Y-58878712D01*
X30368838Y-58638211D01*
X30306054Y-58403900D01*
X30213224Y-58179788D01*
X30091936Y-57969711D01*
X29944265Y-57777262D01*
X29944260Y-57777256D01*
X29772743Y-57605739D01*
X29772736Y-57605733D01*
X29580293Y-57458067D01*
X29580292Y-57458066D01*
X29580289Y-57458064D01*
X29370212Y-57336776D01*
X29370205Y-57336773D01*
X29146104Y-57243947D01*
X28911785Y-57181161D01*
X28671289Y-57149500D01*
X28671288Y-57149500D01*
X28428712Y-57149500D01*
X28428711Y-57149500D01*
X28188214Y-57181161D01*
X27953895Y-57243947D01*
X27729794Y-57336773D01*
X27729785Y-57336777D01*
X27519706Y-57458067D01*
X27327263Y-57605733D01*
X27327256Y-57605739D01*
X27155739Y-57777256D01*
X27155733Y-57777263D01*
X27008067Y-57969706D01*
X26886777Y-58179785D01*
X26886773Y-58179794D01*
X26793947Y-58403895D01*
X26731161Y-58638214D01*
X26699500Y-58878711D01*
X9230500Y-58878711D01*
X9230500Y-48147231D01*
X9250185Y-48080192D01*
X9266814Y-48059555D01*
X10795884Y-46530484D01*
X10817678Y-46513119D01*
X10819157Y-46512190D01*
X10821622Y-46510645D01*
X11215549Y-46176813D01*
X11224886Y-46168502D01*
X11238433Y-46158029D01*
X11240290Y-46156790D01*
X11351790Y-46045290D01*
X11439395Y-45914180D01*
X11499738Y-45768498D01*
X11530501Y-45613843D01*
X11530501Y-45456159D01*
X11530501Y-45456156D01*
X11530500Y-45456154D01*
X11499739Y-45301511D01*
X11499738Y-45301504D01*
X11499736Y-45301499D01*
X11439398Y-45155828D01*
X11439391Y-45155815D01*
X11351790Y-45024712D01*
X11351787Y-45024708D01*
X11240293Y-44913214D01*
X11240289Y-44913211D01*
X11109186Y-44825610D01*
X11109173Y-44825603D01*
X10963502Y-44765265D01*
X10963490Y-44765262D01*
X10808846Y-44734501D01*
X10808843Y-44734501D01*
X10651159Y-44734501D01*
X10651156Y-44734501D01*
X10496511Y-44765262D01*
X10496499Y-44765265D01*
X10350828Y-44825603D01*
X10350815Y-44825610D01*
X10219713Y-44913210D01*
X10108209Y-45024715D01*
X10108208Y-45024717D01*
X10105606Y-45028611D01*
X10091150Y-45046423D01*
X10088197Y-45049441D01*
X9754349Y-45443386D01*
X9736290Y-45466178D01*
X9726784Y-45476848D01*
X7897050Y-47306582D01*
X7897044Y-47306590D01*
X7847812Y-47380270D01*
X7847813Y-47380271D01*
X7814921Y-47429498D01*
X7814914Y-47429510D01*
X7758342Y-47566088D01*
X7758340Y-47566094D01*
X7729500Y-47711081D01*
X7729500Y-64889907D01*
X7709815Y-64956946D01*
X7657011Y-65002701D01*
X7587853Y-65012645D01*
X7524297Y-64983620D01*
X7508553Y-64967220D01*
X7452847Y-64897367D01*
X7202632Y-64647152D01*
X7132370Y-64591121D01*
X6925976Y-64426527D01*
X6626358Y-64238264D01*
X6626355Y-64238262D01*
X6307545Y-64084731D01*
X5973545Y-63967860D01*
X5973543Y-63967859D01*
X5707300Y-63907091D01*
X5628560Y-63889119D01*
X5628557Y-63889118D01*
X5628545Y-63889116D01*
X5276934Y-63849500D01*
X5276928Y-63849500D01*
X4923072Y-63849500D01*
X4923065Y-63849500D01*
X4571454Y-63889116D01*
X4571440Y-63889119D01*
X4226456Y-63967859D01*
X4226454Y-63967860D01*
X3892454Y-64084731D01*
X3573644Y-64238262D01*
X3274025Y-64426526D01*
X2997367Y-64647152D01*
X2747152Y-64897367D01*
X2526526Y-65174025D01*
X2338262Y-65473644D01*
X2184731Y-65792454D01*
X2067860Y-66126454D01*
X2067859Y-66126456D01*
X1989119Y-66471440D01*
X1989116Y-66471454D01*
X1949500Y-66823065D01*
X500500Y-66823065D01*
X500500Y-58845558D01*
X900000Y-58845558D01*
X900000Y-59154441D01*
X934581Y-59461355D01*
X934583Y-59461367D01*
X1003314Y-59762499D01*
X1105328Y-60054039D01*
X1239341Y-60332320D01*
X1403669Y-60593845D01*
X1536293Y-60760152D01*
X2534728Y-59761716D01*
X2620278Y-59879466D01*
X2770534Y-60029722D01*
X2888281Y-60115270D01*
X1889845Y-61113706D01*
X2056142Y-61246323D01*
X2056144Y-61246324D01*
X2317679Y-61410658D01*
X2595960Y-61544671D01*
X2887501Y-61646685D01*
X2887499Y-61646685D01*
X3188632Y-61715416D01*
X3188644Y-61715418D01*
X3495558Y-61749999D01*
X3495560Y-61750000D01*
X3804440Y-61750000D01*
X3804441Y-61749999D01*
X4111355Y-61715418D01*
X4111367Y-61715416D01*
X4412499Y-61646685D01*
X4704039Y-61544671D01*
X4982320Y-61410658D01*
X5243851Y-61246326D01*
X5410153Y-61113706D01*
X4411717Y-60115270D01*
X4529466Y-60029722D01*
X4679722Y-59879466D01*
X4765270Y-59761717D01*
X5763706Y-60760153D01*
X5896326Y-60593851D01*
X6060658Y-60332320D01*
X6194671Y-60054039D01*
X6296685Y-59762499D01*
X6365416Y-59461367D01*
X6365418Y-59461355D01*
X6399999Y-59154441D01*
X6400000Y-59154439D01*
X6400000Y-58845560D01*
X6399999Y-58845558D01*
X6365418Y-58538644D01*
X6365416Y-58538632D01*
X6296685Y-58237500D01*
X6194671Y-57945960D01*
X6060658Y-57667679D01*
X5896324Y-57406144D01*
X5896323Y-57406142D01*
X5763706Y-57239845D01*
X4765270Y-58238281D01*
X4679722Y-58120534D01*
X4529466Y-57970278D01*
X4411716Y-57884728D01*
X5410152Y-56886293D01*
X5243845Y-56753669D01*
X4982320Y-56589341D01*
X4704039Y-56455328D01*
X4412498Y-56353314D01*
X4412500Y-56353314D01*
X4111367Y-56284583D01*
X4111355Y-56284581D01*
X3804441Y-56250000D01*
X3495558Y-56250000D01*
X3188644Y-56284581D01*
X3188632Y-56284583D01*
X2887500Y-56353314D01*
X2595960Y-56455328D01*
X2317679Y-56589341D01*
X2056144Y-56753675D01*
X2056140Y-56753678D01*
X1889845Y-56886292D01*
X2888282Y-57884729D01*
X2770534Y-57970278D01*
X2620278Y-58120534D01*
X2534729Y-58238282D01*
X1536292Y-57239845D01*
X1403678Y-57406140D01*
X1403675Y-57406144D01*
X1239341Y-57667679D01*
X1105328Y-57945960D01*
X1003314Y-58237500D01*
X934583Y-58538632D01*
X934581Y-58538644D01*
X900000Y-58845558D01*
X500500Y-58845558D01*
X500500Y-48374500D01*
X520185Y-48307461D01*
X572989Y-48261706D01*
X624500Y-48250500D01*
X2065890Y-48250500D01*
X2065892Y-48250500D01*
X2193186Y-48216392D01*
X2307314Y-48150500D01*
X2400500Y-48057314D01*
X2466392Y-47943186D01*
X2500500Y-47815892D01*
X2500500Y-39663713D01*
X2979500Y-39663713D01*
X2979500Y-39876286D01*
X3012753Y-40086239D01*
X3078444Y-40288414D01*
X3174951Y-40477820D01*
X3299890Y-40649786D01*
X3450213Y-40800109D01*
X3622179Y-40925048D01*
X3622181Y-40925049D01*
X3622184Y-40925051D01*
X3811588Y-41021557D01*
X4013757Y-41087246D01*
X4223713Y-41120500D01*
X4223714Y-41120500D01*
X4436286Y-41120500D01*
X4436287Y-41120500D01*
X4646243Y-41087246D01*
X4848412Y-41021557D01*
X5037816Y-40925051D01*
X5059789Y-40909086D01*
X5209786Y-40800109D01*
X5209788Y-40800106D01*
X5209792Y-40800104D01*
X5360104Y-40649792D01*
X5360106Y-40649788D01*
X5360109Y-40649786D01*
X5485048Y-40477820D01*
X5485047Y-40477820D01*
X5485051Y-40477816D01*
X5489514Y-40469054D01*
X5537488Y-40418259D01*
X5605308Y-40401463D01*
X5671444Y-40423999D01*
X5710486Y-40469056D01*
X5714951Y-40477820D01*
X5839890Y-40649786D01*
X5990213Y-40800109D01*
X6162179Y-40925048D01*
X6162181Y-40925049D01*
X6162184Y-40925051D01*
X6351588Y-41021557D01*
X6553757Y-41087246D01*
X6763713Y-41120500D01*
X6763714Y-41120500D01*
X6976286Y-41120500D01*
X6976287Y-41120500D01*
X7186243Y-41087246D01*
X7388412Y-41021557D01*
X7577816Y-40925051D01*
X7599789Y-40909086D01*
X7749786Y-40800109D01*
X7749788Y-40800106D01*
X7749792Y-40800104D01*
X7900104Y-40649792D01*
X7900106Y-40649788D01*
X7900109Y-40649786D01*
X8025048Y-40477820D01*
X8025047Y-40477820D01*
X8025051Y-40477816D01*
X8121557Y-40288412D01*
X8187246Y-40086243D01*
X8220500Y-39876287D01*
X8220500Y-39663713D01*
X8187246Y-39453757D01*
X8121557Y-39251588D01*
X8025051Y-39062184D01*
X8025049Y-39062181D01*
X8025048Y-39062179D01*
X7900109Y-38890213D01*
X7749786Y-38739890D01*
X7577820Y-38614951D01*
X7577115Y-38614591D01*
X7569054Y-38610485D01*
X7518259Y-38562512D01*
X7501463Y-38494692D01*
X7523999Y-38428556D01*
X7569054Y-38389515D01*
X7577816Y-38385051D01*
X7633571Y-38344543D01*
X9651499Y-38344543D01*
X9689947Y-38537829D01*
X9689950Y-38537839D01*
X9765364Y-38719907D01*
X9765371Y-38719920D01*
X9874860Y-38883781D01*
X9874863Y-38883785D01*
X10014214Y-39023136D01*
X10014218Y-39023139D01*
X10178079Y-39132628D01*
X10178092Y-39132635D01*
X10360160Y-39208049D01*
X10360165Y-39208051D01*
X10360169Y-39208051D01*
X10360170Y-39208052D01*
X10553456Y-39246500D01*
X10553459Y-39246500D01*
X21050543Y-39246500D01*
X21180582Y-39220632D01*
X21243835Y-39208051D01*
X21384655Y-39149721D01*
X21425907Y-39132635D01*
X21425907Y-39132634D01*
X21425914Y-39132632D01*
X21589782Y-39023139D01*
X21729139Y-38883782D01*
X21838632Y-38719914D01*
X21914051Y-38537835D01*
X21952500Y-38344541D01*
X21952500Y-38147459D01*
X21952500Y-38147456D01*
X21914052Y-37954170D01*
X21914051Y-37954169D01*
X21914051Y-37954165D01*
X21896030Y-37910658D01*
X21838635Y-37772092D01*
X21838628Y-37772079D01*
X21729139Y-37608218D01*
X21729136Y-37608214D01*
X21589785Y-37468863D01*
X21589781Y-37468860D01*
X21425920Y-37359371D01*
X21425907Y-37359364D01*
X21243839Y-37283950D01*
X21243829Y-37283947D01*
X21050543Y-37245500D01*
X21050541Y-37245500D01*
X10553459Y-37245500D01*
X10553457Y-37245500D01*
X10360170Y-37283947D01*
X10360160Y-37283950D01*
X10178092Y-37359364D01*
X10178079Y-37359371D01*
X10014218Y-37468860D01*
X10014214Y-37468863D01*
X9874863Y-37608214D01*
X9874860Y-37608218D01*
X9765371Y-37772079D01*
X9765364Y-37772092D01*
X9689950Y-37954160D01*
X9689947Y-37954170D01*
X9651500Y-38147456D01*
X9651500Y-38147459D01*
X9651500Y-38344541D01*
X9651500Y-38344543D01*
X9651499Y-38344543D01*
X7633571Y-38344543D01*
X7664471Y-38322093D01*
X7749786Y-38260109D01*
X7749788Y-38260106D01*
X7749792Y-38260104D01*
X7900104Y-38109792D01*
X8025051Y-37937816D01*
X8121557Y-37748412D01*
X8187246Y-37546243D01*
X8220500Y-37336287D01*
X8220500Y-37123713D01*
X8187246Y-36913757D01*
X8121557Y-36711588D01*
X8025051Y-36522184D01*
X8025049Y-36522181D01*
X8025048Y-36522179D01*
X7900109Y-36350213D01*
X7749786Y-36199890D01*
X7577820Y-36074951D01*
X7388414Y-35978444D01*
X7388413Y-35978443D01*
X7388412Y-35978443D01*
X7186243Y-35912754D01*
X7186241Y-35912753D01*
X7186240Y-35912753D01*
X7024957Y-35887208D01*
X6976287Y-35879500D01*
X6763713Y-35879500D01*
X6715042Y-35887208D01*
X6553760Y-35912753D01*
X6351585Y-35978444D01*
X6162179Y-36074951D01*
X5990215Y-36199889D01*
X5876285Y-36313819D01*
X5814962Y-36347303D01*
X5745270Y-36342319D01*
X5689337Y-36300447D01*
X5672422Y-36269470D01*
X5623354Y-36137913D01*
X5623350Y-36137906D01*
X5537190Y-36022812D01*
X5537187Y-36022809D01*
X5422093Y-35936649D01*
X5422086Y-35936645D01*
X5287379Y-35886403D01*
X5287372Y-35886401D01*
X5227844Y-35880000D01*
X4580000Y-35880000D01*
X4580000Y-36796988D01*
X4522993Y-36764075D01*
X4395826Y-36730000D01*
X4264174Y-36730000D01*
X4137007Y-36764075D01*
X4080000Y-36796988D01*
X4080000Y-35880000D01*
X3432155Y-35880000D01*
X3372627Y-35886401D01*
X3372620Y-35886403D01*
X3237913Y-35936645D01*
X3237906Y-35936649D01*
X3122812Y-36022809D01*
X3122809Y-36022812D01*
X3036649Y-36137906D01*
X3036645Y-36137913D01*
X2986403Y-36272620D01*
X2986401Y-36272627D01*
X2980000Y-36332155D01*
X2980000Y-36980000D01*
X3896988Y-36980000D01*
X3864075Y-37037007D01*
X3830000Y-37164174D01*
X3830000Y-37295826D01*
X3864075Y-37422993D01*
X3896988Y-37480000D01*
X2980000Y-37480000D01*
X2980000Y-38127844D01*
X2986401Y-38187372D01*
X2986403Y-38187379D01*
X3036645Y-38322086D01*
X3036649Y-38322093D01*
X3122809Y-38437187D01*
X3122812Y-38437190D01*
X3237906Y-38523350D01*
X3237913Y-38523354D01*
X3369470Y-38572422D01*
X3425404Y-38614293D01*
X3449821Y-38679758D01*
X3434969Y-38748031D01*
X3413819Y-38776285D01*
X3299889Y-38890215D01*
X3174951Y-39062179D01*
X3078444Y-39251585D01*
X3012753Y-39453760D01*
X2979500Y-39663713D01*
X2500500Y-39663713D01*
X2500500Y-35184108D01*
X2466392Y-35056814D01*
X2400500Y-34942686D01*
X2307314Y-34849500D01*
X2250250Y-34816554D01*
X2193187Y-34783608D01*
X2129539Y-34766554D01*
X2065892Y-34749500D01*
X2065891Y-34749500D01*
X624500Y-34749500D01*
X557461Y-34729815D01*
X511706Y-34677011D01*
X500500Y-34625500D01*
X500500Y-23878711D01*
X1799500Y-23878711D01*
X1799500Y-24121288D01*
X1831161Y-24361785D01*
X1893947Y-24596104D01*
X1986773Y-24820205D01*
X1986776Y-24820212D01*
X2108064Y-25030289D01*
X2108066Y-25030292D01*
X2108067Y-25030293D01*
X2255733Y-25222736D01*
X2255739Y-25222743D01*
X2427256Y-25394260D01*
X2427262Y-25394265D01*
X2619711Y-25541936D01*
X2829788Y-25663224D01*
X3053900Y-25756054D01*
X3288211Y-25818838D01*
X3468586Y-25842584D01*
X3528711Y-25850500D01*
X3528712Y-25850500D01*
X3771289Y-25850500D01*
X3819388Y-25844167D01*
X4011789Y-25818838D01*
X4246100Y-25756054D01*
X4470212Y-25663224D01*
X4680289Y-25541936D01*
X4872738Y-25394265D01*
X5044265Y-25222738D01*
X5191936Y-25030289D01*
X5313224Y-24820212D01*
X5406054Y-24596100D01*
X5468838Y-24361789D01*
X5500500Y-24121288D01*
X5500500Y-23878712D01*
X5500500Y-23878711D01*
X23699500Y-23878711D01*
X23699500Y-24121288D01*
X23731161Y-24361785D01*
X23793947Y-24596104D01*
X23886773Y-24820205D01*
X23886776Y-24820212D01*
X24008064Y-25030289D01*
X24008066Y-25030292D01*
X24008067Y-25030293D01*
X24155733Y-25222736D01*
X24155739Y-25222743D01*
X24327256Y-25394260D01*
X24327262Y-25394265D01*
X24519711Y-25541936D01*
X24729788Y-25663224D01*
X24953900Y-25756054D01*
X25188211Y-25818838D01*
X25368586Y-25842584D01*
X25428711Y-25850500D01*
X25428712Y-25850500D01*
X25671289Y-25850500D01*
X25719388Y-25844167D01*
X25911789Y-25818838D01*
X26146100Y-25756054D01*
X26370212Y-25663224D01*
X26580289Y-25541936D01*
X26772738Y-25394265D01*
X26944265Y-25222738D01*
X27091936Y-25030289D01*
X27213224Y-24820212D01*
X27306054Y-24596100D01*
X27368838Y-24361789D01*
X27400500Y-24121288D01*
X27400500Y-23878712D01*
X27368838Y-23638211D01*
X27306054Y-23403900D01*
X27213224Y-23179788D01*
X27091936Y-22969711D01*
X26944265Y-22777262D01*
X26944260Y-22777256D01*
X26772743Y-22605739D01*
X26772736Y-22605733D01*
X26580293Y-22458067D01*
X26580292Y-22458066D01*
X26580289Y-22458064D01*
X26370212Y-22336776D01*
X26370205Y-22336773D01*
X26146104Y-22243947D01*
X25911785Y-22181161D01*
X25671289Y-22149500D01*
X25671288Y-22149500D01*
X25428712Y-22149500D01*
X25428711Y-22149500D01*
X25188214Y-22181161D01*
X24953895Y-22243947D01*
X24729794Y-22336773D01*
X24729785Y-22336777D01*
X24519706Y-22458067D01*
X24327263Y-22605733D01*
X24327256Y-22605739D01*
X24155739Y-22777256D01*
X24155733Y-22777263D01*
X24008067Y-22969706D01*
X23886777Y-23179785D01*
X23886773Y-23179794D01*
X23793947Y-23403895D01*
X23731161Y-23638214D01*
X23699500Y-23878711D01*
X5500500Y-23878711D01*
X5468838Y-23638211D01*
X5406054Y-23403900D01*
X5313224Y-23179788D01*
X5191936Y-22969711D01*
X5044265Y-22777262D01*
X5044260Y-22777256D01*
X4872743Y-22605739D01*
X4872736Y-22605733D01*
X4680293Y-22458067D01*
X4680292Y-22458066D01*
X4680289Y-22458064D01*
X4470212Y-22336776D01*
X4470205Y-22336773D01*
X4246104Y-22243947D01*
X4011785Y-22181161D01*
X3771289Y-22149500D01*
X3771288Y-22149500D01*
X3528712Y-22149500D01*
X3528711Y-22149500D01*
X3288214Y-22181161D01*
X3053895Y-22243947D01*
X2829794Y-22336773D01*
X2829785Y-22336777D01*
X2619706Y-22458067D01*
X2427263Y-22605733D01*
X2427256Y-22605739D01*
X2255739Y-22777256D01*
X2255733Y-22777263D01*
X2108067Y-22969706D01*
X1986777Y-23179785D01*
X1986773Y-23179794D01*
X1893947Y-23403895D01*
X1831161Y-23638214D01*
X1799500Y-23878711D01*
X500500Y-23878711D01*
X500500Y-15878711D01*
X3249500Y-15878711D01*
X3249500Y-16121288D01*
X3281161Y-16361785D01*
X3343947Y-16596104D01*
X3436773Y-16820205D01*
X3436776Y-16820212D01*
X3558064Y-17030289D01*
X3558066Y-17030292D01*
X3558067Y-17030293D01*
X3705733Y-17222736D01*
X3705739Y-17222743D01*
X3877256Y-17394260D01*
X3877262Y-17394265D01*
X4069711Y-17541936D01*
X4279788Y-17663224D01*
X4503900Y-17756054D01*
X4738211Y-17818838D01*
X4918586Y-17842584D01*
X4978711Y-17850500D01*
X4978712Y-17850500D01*
X5221289Y-17850500D01*
X5269388Y-17844167D01*
X5461789Y-17818838D01*
X5696100Y-17756054D01*
X5920212Y-17663224D01*
X6130289Y-17541936D01*
X6322738Y-17394265D01*
X6494265Y-17222738D01*
X6641936Y-17030289D01*
X6763224Y-16820212D01*
X6856054Y-16596100D01*
X6918838Y-16361789D01*
X6950500Y-16121288D01*
X6950500Y-15878712D01*
X6943174Y-15823065D01*
X23949500Y-15823065D01*
X23949500Y-16176934D01*
X23989116Y-16528545D01*
X23989119Y-16528559D01*
X24067859Y-16873543D01*
X24067860Y-16873545D01*
X24184731Y-17207545D01*
X24338262Y-17526355D01*
X24338264Y-17526358D01*
X24526527Y-17825976D01*
X24747153Y-18102633D01*
X24997367Y-18352847D01*
X25274024Y-18573473D01*
X25573642Y-18761736D01*
X25892456Y-18915269D01*
X26226456Y-19032140D01*
X26571440Y-19110881D01*
X26571449Y-19110882D01*
X26571454Y-19110883D01*
X26805861Y-19137293D01*
X26923066Y-19150499D01*
X26923069Y-19150500D01*
X26923072Y-19150500D01*
X27276931Y-19150500D01*
X27276932Y-19150499D01*
X27456635Y-19130252D01*
X27628545Y-19110883D01*
X27628548Y-19110882D01*
X27628560Y-19110881D01*
X27973544Y-19032140D01*
X28307544Y-18915269D01*
X28626358Y-18761736D01*
X28925976Y-18573473D01*
X29202633Y-18352847D01*
X29452847Y-18102633D01*
X29673473Y-17825976D01*
X29861736Y-17526358D01*
X30015269Y-17207544D01*
X30132140Y-16873544D01*
X30210881Y-16528560D01*
X30250500Y-16176928D01*
X30250500Y-15823072D01*
X30229672Y-15638214D01*
X30210883Y-15471454D01*
X30210882Y-15471449D01*
X30210881Y-15471440D01*
X30132140Y-15126456D01*
X30015269Y-14792456D01*
X29861736Y-14473642D01*
X29673473Y-14174024D01*
X29452847Y-13897367D01*
X29202633Y-13647153D01*
X28925976Y-13426527D01*
X28626358Y-13238264D01*
X28626355Y-13238262D01*
X28307545Y-13084731D01*
X27973545Y-12967860D01*
X27973543Y-12967859D01*
X27707300Y-12907091D01*
X27628560Y-12889119D01*
X27628557Y-12889118D01*
X27628545Y-12889116D01*
X27276934Y-12849500D01*
X27276928Y-12849500D01*
X26923072Y-12849500D01*
X26923065Y-12849500D01*
X26571454Y-12889116D01*
X26571440Y-12889119D01*
X26226456Y-12967859D01*
X26226454Y-12967860D01*
X25892454Y-13084731D01*
X25573644Y-13238262D01*
X25274025Y-13426526D01*
X24997367Y-13647152D01*
X24747152Y-13897367D01*
X24526526Y-14174025D01*
X24338262Y-14473644D01*
X24184731Y-14792454D01*
X24067860Y-15126454D01*
X24067859Y-15126456D01*
X23989119Y-15471440D01*
X23989116Y-15471454D01*
X23949500Y-15823065D01*
X6943174Y-15823065D01*
X6918838Y-15638211D01*
X6856054Y-15403900D01*
X6763224Y-15179788D01*
X6641936Y-14969711D01*
X6494265Y-14777262D01*
X6494260Y-14777256D01*
X6322743Y-14605739D01*
X6322736Y-14605733D01*
X6130293Y-14458067D01*
X6130292Y-14458066D01*
X6130289Y-14458064D01*
X5920212Y-14336776D01*
X5920205Y-14336773D01*
X5696104Y-14243947D01*
X5461785Y-14181161D01*
X5221289Y-14149500D01*
X5221288Y-14149500D01*
X4978712Y-14149500D01*
X4978711Y-14149500D01*
X4738214Y-14181161D01*
X4503895Y-14243947D01*
X4279794Y-14336773D01*
X4279785Y-14336777D01*
X4069706Y-14458067D01*
X3877263Y-14605733D01*
X3877256Y-14605739D01*
X3705739Y-14777256D01*
X3705733Y-14777263D01*
X3558067Y-14969706D01*
X3436777Y-15179785D01*
X3436773Y-15179794D01*
X3343947Y-15403895D01*
X3281161Y-15638214D01*
X3249500Y-15878711D01*
X500500Y-15878711D01*
X500500Y-4961995D01*
X4139500Y-4961995D01*
X4139500Y-5198004D01*
X4139501Y-5198020D01*
X4170306Y-5432010D01*
X4231394Y-5659993D01*
X4321714Y-5878045D01*
X4321719Y-5878056D01*
X4392677Y-6000957D01*
X4439727Y-6082450D01*
X4439729Y-6082453D01*
X4439730Y-6082454D01*
X4583406Y-6269697D01*
X4583412Y-6269704D01*
X4750295Y-6436587D01*
X4750302Y-6436593D01*
X4860306Y-6521001D01*
X4937550Y-6580273D01*
X5068918Y-6656118D01*
X5141943Y-6698280D01*
X5141948Y-6698282D01*
X5141951Y-6698284D01*
X5360007Y-6788606D01*
X5587986Y-6849693D01*
X5821989Y-6880500D01*
X5821996Y-6880500D01*
X6058004Y-6880500D01*
X6058011Y-6880500D01*
X6292014Y-6849693D01*
X6519993Y-6788606D01*
X6738049Y-6698284D01*
X6942450Y-6580273D01*
X7129699Y-6436592D01*
X7296592Y-6269699D01*
X7440273Y-6082450D01*
X7558284Y-5878049D01*
X7648606Y-5659993D01*
X7709693Y-5432014D01*
X7740500Y-5198011D01*
X7740500Y-4961989D01*
X7709693Y-4727986D01*
X7648606Y-4500007D01*
X7558284Y-4281951D01*
X7558282Y-4281948D01*
X7558280Y-4281943D01*
X7502510Y-4185348D01*
X7440273Y-4077550D01*
X7365442Y-3980028D01*
X7365430Y-3980013D01*
X9220000Y-3980013D01*
X9220000Y-4830000D01*
X10419999Y-4830000D01*
X10394979Y-4890402D01*
X10370000Y-5015981D01*
X10370000Y-5144019D01*
X10394979Y-5269598D01*
X10419999Y-5330000D01*
X9220001Y-5330000D01*
X9220001Y-6179986D01*
X9230494Y-6282697D01*
X9285641Y-6449119D01*
X9285643Y-6449124D01*
X9377684Y-6598345D01*
X9501654Y-6722315D01*
X9650875Y-6814356D01*
X9650880Y-6814358D01*
X9817302Y-6869505D01*
X9817309Y-6869506D01*
X9920019Y-6879999D01*
X10769999Y-6879999D01*
X10770000Y-6879998D01*
X10770000Y-5680001D01*
X10830402Y-5705021D01*
X10955981Y-5730000D01*
X11084019Y-5730000D01*
X11209598Y-5705021D01*
X11270000Y-5680001D01*
X11270000Y-6879999D01*
X12119972Y-6879999D01*
X12119986Y-6879998D01*
X12222697Y-6869505D01*
X12389119Y-6814358D01*
X12389124Y-6814356D01*
X12538345Y-6722315D01*
X12662315Y-6598345D01*
X12754356Y-6449124D01*
X12754359Y-6449115D01*
X12760589Y-6430319D01*
X12809505Y-6282697D01*
X12809506Y-6282690D01*
X12819999Y-6179986D01*
X12820000Y-6179973D01*
X12820000Y-5330000D01*
X11620001Y-5330000D01*
X11645021Y-5269598D01*
X11670000Y-5144019D01*
X11670000Y-5015981D01*
X11659265Y-4962014D01*
X14300000Y-4962014D01*
X14300000Y-5197985D01*
X14330799Y-5431914D01*
X14391870Y-5659837D01*
X14482160Y-5877819D01*
X14482165Y-5877828D01*
X14600144Y-6082171D01*
X14600145Y-6082172D01*
X14662721Y-6163723D01*
X15498958Y-5327487D01*
X15523978Y-5387890D01*
X15595112Y-5494351D01*
X15685649Y-5584888D01*
X15792110Y-5656022D01*
X15852511Y-5681041D01*
X15016275Y-6517277D01*
X15097827Y-6579854D01*
X15097828Y-6579855D01*
X15302171Y-6697834D01*
X15302180Y-6697839D01*
X15520163Y-6788129D01*
X15520161Y-6788129D01*
X15748085Y-6849200D01*
X15982014Y-6879999D01*
X15982029Y-6880000D01*
X16217971Y-6880000D01*
X16217985Y-6879999D01*
X16451914Y-6849200D01*
X16679837Y-6788129D01*
X16897819Y-6697839D01*
X16897828Y-6697834D01*
X17102181Y-6579850D01*
X17183723Y-6517279D01*
X17183723Y-6517276D01*
X16347487Y-5681041D01*
X16407890Y-5656022D01*
X16514351Y-5584888D01*
X16604888Y-5494351D01*
X16676022Y-5387890D01*
X16701041Y-5327487D01*
X17537276Y-6163723D01*
X17537279Y-6163723D01*
X17599850Y-6082181D01*
X17717834Y-5877828D01*
X17717839Y-5877819D01*
X17808129Y-5659837D01*
X17869200Y-5431914D01*
X17899999Y-5197985D01*
X17900000Y-5197971D01*
X17900000Y-4962021D01*
X17899997Y-4961995D01*
X19379500Y-4961995D01*
X19379500Y-5198004D01*
X19379501Y-5198020D01*
X19410306Y-5432010D01*
X19471394Y-5659993D01*
X19561714Y-5878045D01*
X19561719Y-5878056D01*
X19632677Y-6000957D01*
X19679727Y-6082450D01*
X19679729Y-6082453D01*
X19679730Y-6082454D01*
X19823406Y-6269697D01*
X19823412Y-6269704D01*
X19990295Y-6436587D01*
X19990302Y-6436593D01*
X20100306Y-6521001D01*
X20177550Y-6580273D01*
X20308918Y-6656118D01*
X20381943Y-6698280D01*
X20381948Y-6698282D01*
X20381951Y-6698284D01*
X20600007Y-6788606D01*
X20827986Y-6849693D01*
X21061989Y-6880500D01*
X21061996Y-6880500D01*
X21298004Y-6880500D01*
X21298011Y-6880500D01*
X21532014Y-6849693D01*
X21759993Y-6788606D01*
X21978049Y-6698284D01*
X22182450Y-6580273D01*
X22369699Y-6436592D01*
X22536592Y-6269699D01*
X22680273Y-6082450D01*
X22798284Y-5878049D01*
X22888606Y-5659993D01*
X22949693Y-5432014D01*
X22980500Y-5198011D01*
X22980500Y-4961989D01*
X22949693Y-4727986D01*
X22888606Y-4500007D01*
X22798284Y-4281951D01*
X22798282Y-4281948D01*
X22798280Y-4281943D01*
X22742510Y-4185348D01*
X22680273Y-4077550D01*
X22605442Y-3980028D01*
X22605407Y-3979983D01*
X24459500Y-3979983D01*
X24459500Y-6180001D01*
X24459501Y-6180018D01*
X24470000Y-6282796D01*
X24470001Y-6282799D01*
X24518885Y-6430319D01*
X24525186Y-6449334D01*
X24617288Y-6598656D01*
X24741344Y-6722712D01*
X24890666Y-6814814D01*
X25057203Y-6869999D01*
X25159991Y-6880500D01*
X27360008Y-6880499D01*
X27462797Y-6869999D01*
X27629334Y-6814814D01*
X27778656Y-6722712D01*
X27902712Y-6598656D01*
X27994814Y-6449334D01*
X28049999Y-6282797D01*
X28060500Y-6180009D01*
X28060499Y-3979992D01*
X28049999Y-3877203D01*
X27994814Y-3710666D01*
X27902712Y-3561344D01*
X27778656Y-3437288D01*
X27629334Y-3345186D01*
X27462797Y-3290001D01*
X27462795Y-3290000D01*
X27360010Y-3279500D01*
X25159998Y-3279500D01*
X25159981Y-3279501D01*
X25057203Y-3290000D01*
X25057200Y-3290001D01*
X24890668Y-3345185D01*
X24890663Y-3345187D01*
X24741342Y-3437289D01*
X24617289Y-3561342D01*
X24525187Y-3710663D01*
X24525185Y-3710668D01*
X24497349Y-3794670D01*
X24470001Y-3877203D01*
X24470001Y-3877204D01*
X24470000Y-3877204D01*
X24459500Y-3979983D01*
X22605407Y-3979983D01*
X22536593Y-3890302D01*
X22536587Y-3890295D01*
X22369704Y-3723412D01*
X22369697Y-3723406D01*
X22182454Y-3579730D01*
X22182453Y-3579729D01*
X22182450Y-3579727D01*
X22100957Y-3532677D01*
X21978056Y-3461719D01*
X21978045Y-3461714D01*
X21759993Y-3371394D01*
X21532010Y-3310306D01*
X21298020Y-3279501D01*
X21298017Y-3279500D01*
X21298011Y-3279500D01*
X21061989Y-3279500D01*
X21061983Y-3279500D01*
X21061979Y-3279501D01*
X20827989Y-3310306D01*
X20600006Y-3371394D01*
X20381954Y-3461714D01*
X20381943Y-3461719D01*
X20177545Y-3579730D01*
X19990302Y-3723406D01*
X19990295Y-3723412D01*
X19823412Y-3890295D01*
X19823406Y-3890302D01*
X19679730Y-4077545D01*
X19679727Y-4077549D01*
X19679727Y-4077550D01*
X19672014Y-4090909D01*
X19561719Y-4281943D01*
X19561714Y-4281954D01*
X19471394Y-4500006D01*
X19410306Y-4727989D01*
X19379501Y-4961979D01*
X19379500Y-4961995D01*
X17899997Y-4961995D01*
X17869200Y-4728085D01*
X17808129Y-4500162D01*
X17717839Y-4282180D01*
X17717834Y-4282171D01*
X17599855Y-4077828D01*
X17599854Y-4077827D01*
X17537277Y-3996275D01*
X16701041Y-4832511D01*
X16676022Y-4772110D01*
X16604888Y-4665649D01*
X16514351Y-4575112D01*
X16407890Y-4503978D01*
X16347488Y-4478958D01*
X17183723Y-3642721D01*
X17102172Y-3580145D01*
X17102171Y-3580144D01*
X16897828Y-3462165D01*
X16897819Y-3462160D01*
X16679836Y-3371870D01*
X16679838Y-3371870D01*
X16451914Y-3310799D01*
X16217985Y-3280000D01*
X15982014Y-3280000D01*
X15748085Y-3310799D01*
X15520162Y-3371870D01*
X15302180Y-3462160D01*
X15302171Y-3462165D01*
X15097828Y-3580144D01*
X15097818Y-3580150D01*
X15016275Y-3642720D01*
X15016275Y-3642721D01*
X15852512Y-4478958D01*
X15792110Y-4503978D01*
X15685649Y-4575112D01*
X15595112Y-4665649D01*
X15523978Y-4772110D01*
X15498958Y-4832511D01*
X14662721Y-3996275D01*
X14662720Y-3996275D01*
X14600150Y-4077818D01*
X14600144Y-4077828D01*
X14482165Y-4282171D01*
X14482160Y-4282180D01*
X14391870Y-4500162D01*
X14330799Y-4728085D01*
X14300000Y-4962014D01*
X11659265Y-4962014D01*
X11645021Y-4890402D01*
X11620001Y-4830000D01*
X12819999Y-4830000D01*
X12819999Y-3980028D01*
X12819998Y-3980013D01*
X12809506Y-3877304D01*
X12760587Y-3729679D01*
X12760586Y-3729676D01*
X12754359Y-3710882D01*
X12754356Y-3710875D01*
X12662315Y-3561654D01*
X12538345Y-3437684D01*
X12389124Y-3345643D01*
X12389119Y-3345641D01*
X12222697Y-3290494D01*
X12222690Y-3290493D01*
X12119986Y-3280000D01*
X11270000Y-3280000D01*
X11270000Y-4479998D01*
X11209598Y-4454979D01*
X11084019Y-4430000D01*
X10955981Y-4430000D01*
X10830402Y-4454979D01*
X10770000Y-4479998D01*
X10770000Y-3280000D01*
X9920028Y-3280000D01*
X9920012Y-3280001D01*
X9817302Y-3290494D01*
X9650880Y-3345641D01*
X9650875Y-3345643D01*
X9501654Y-3437684D01*
X9377684Y-3561654D01*
X9285643Y-3710875D01*
X9285641Y-3710880D01*
X9230494Y-3877302D01*
X9230493Y-3877309D01*
X9220000Y-3980013D01*
X7365430Y-3980013D01*
X7296593Y-3890302D01*
X7296587Y-3890295D01*
X7129704Y-3723412D01*
X7129697Y-3723406D01*
X6942454Y-3579730D01*
X6942453Y-3579729D01*
X6942450Y-3579727D01*
X6860957Y-3532677D01*
X6738056Y-3461719D01*
X6738045Y-3461714D01*
X6519993Y-3371394D01*
X6292010Y-3310306D01*
X6058020Y-3279501D01*
X6058017Y-3279500D01*
X6058011Y-3279500D01*
X5821989Y-3279500D01*
X5821983Y-3279500D01*
X5821979Y-3279501D01*
X5587989Y-3310306D01*
X5360006Y-3371394D01*
X5141954Y-3461714D01*
X5141943Y-3461719D01*
X4937545Y-3579730D01*
X4750302Y-3723406D01*
X4750295Y-3723412D01*
X4583412Y-3890295D01*
X4583406Y-3890302D01*
X4439730Y-4077545D01*
X4439727Y-4077549D01*
X4439727Y-4077550D01*
X4432014Y-4090909D01*
X4321719Y-4281943D01*
X4321714Y-4281954D01*
X4231394Y-4500006D01*
X4170306Y-4727989D01*
X4139501Y-4961979D01*
X4139500Y-4961995D01*
X500500Y-4961995D01*
X500500Y-624500D01*
X520185Y-557461D01*
X572989Y-511706D01*
X624500Y-500500D01*
X31575500Y-500500D01*
X31642539Y-520185D01*
G37*
%TD.AperFunction*%
%TD*%
%TA.AperFunction,Conductor*%
%TO.N,/SWIO*%
G36*
X8730237Y-76239760D02*
G01*
X8732884Y-76243834D01*
X9308687Y-77741223D01*
X9308458Y-77750175D01*
X9301966Y-77756342D01*
X9300063Y-77756895D01*
X8482296Y-77920540D01*
X8477704Y-77920540D01*
X7659936Y-77756895D01*
X7652496Y-77751911D01*
X7650759Y-77743126D01*
X7651309Y-77741231D01*
X8227116Y-76243834D01*
X8233283Y-76237342D01*
X8238036Y-76236333D01*
X8721964Y-76236333D01*
X8730237Y-76239760D01*
G37*
%TD.AperFunction*%
%TD*%
%TA.AperFunction,Conductor*%
%TO.N,GND*%
G36*
X16118254Y-32768122D02*
G01*
X15906122Y-32980254D01*
X15425329Y-32703441D01*
X15591293Y-32453293D01*
X15841441Y-32287329D01*
X16118254Y-32768122D01*
G37*
%TD.AperFunction*%
%TD*%
%TA.AperFunction,Conductor*%
%TO.N,GND*%
G36*
X15593000Y-32454000D02*
G01*
X15533473Y-32748236D01*
X14997764Y-32604000D01*
X14997764Y-32304000D01*
X15533473Y-32159764D01*
X15593000Y-32454000D01*
G37*
%TD.AperFunction*%
%TD*%
%TA.AperFunction,Conductor*%
%TO.N,/SWIO*%
G36*
X10489228Y-45374081D02*
G01*
X10728735Y-45532985D01*
X10732016Y-45536266D01*
X10890920Y-45775773D01*
X10892639Y-45784561D01*
X10888735Y-45791167D01*
X10494808Y-46124999D01*
X10486281Y-46127733D01*
X10478971Y-46124346D01*
X10140655Y-45786030D01*
X10137228Y-45777757D01*
X10140002Y-45770193D01*
X10339914Y-45534294D01*
X10473835Y-45376265D01*
X10481797Y-45372170D01*
X10489228Y-45374081D01*
G37*
%TD.AperFunction*%
%TD*%
M02*
