%TF.GenerationSoftware,KiCad,Pcbnew,9.0.1*%
%TF.CreationDate,2025-08-02T01:33:37-07:00*%
%TF.ProjectId,bottom,626f7474-6f6d-42e6-9b69-6361645f7063,A1*%
%TF.SameCoordinates,PX578c1c0PY3d09000*%
%TF.FileFunction,Paste,Top*%
%TF.FilePolarity,Positive*%
%FSLAX46Y46*%
G04 Gerber Fmt 4.6, Leading zero omitted, Abs format (unit mm)*
G04 Created by KiCad (PCBNEW 9.0.1) date 2025-08-02 01:33:37*
%MOMM*%
%LPD*%
G01*
G04 APERTURE LIST*
G04 Aperture macros list*
%AMRoundRect*
0 Rectangle with rounded corners*
0 $1 Rounding radius*
0 $2 $3 $4 $5 $6 $7 $8 $9 X,Y pos of 4 corners*
0 Add a 4 corners polygon primitive as box body*
4,1,4,$2,$3,$4,$5,$6,$7,$8,$9,$2,$3,0*
0 Add four circle primitives for the rounded corners*
1,1,$1+$1,$2,$3*
1,1,$1+$1,$4,$5*
1,1,$1+$1,$6,$7*
1,1,$1+$1,$8,$9*
0 Add four rect primitives between the rounded corners*
20,1,$1+$1,$2,$3,$4,$5,0*
20,1,$1+$1,$4,$5,$6,$7,0*
20,1,$1+$1,$6,$7,$8,$9,0*
20,1,$1+$1,$8,$9,$2,$3,0*%
G04 Aperture macros list end*
%ADD10RoundRect,0.250000X-0.250000X-0.475000X0.250000X-0.475000X0.250000X0.475000X-0.250000X0.475000X0*%
%ADD11RoundRect,0.200000X-0.200000X-0.275000X0.200000X-0.275000X0.200000X0.275000X-0.200000X0.275000X0*%
%ADD12RoundRect,0.200000X-0.275000X0.200000X-0.275000X-0.200000X0.275000X-0.200000X0.275000X0.200000X0*%
%ADD13R,0.800000X1.800000*%
%ADD14RoundRect,0.200000X0.200000X0.275000X-0.200000X0.275000X-0.200000X-0.275000X0.200000X-0.275000X0*%
%ADD15RoundRect,0.225000X-0.250000X0.225000X-0.250000X-0.225000X0.250000X-0.225000X0.250000X0.225000X0*%
%ADD16RoundRect,0.150000X0.825000X0.150000X-0.825000X0.150000X-0.825000X-0.150000X0.825000X-0.150000X0*%
%ADD17RoundRect,0.135000X0.185000X-0.135000X0.185000X0.135000X-0.185000X0.135000X-0.185000X-0.135000X0*%
%ADD18RoundRect,0.150000X-0.150000X0.587500X-0.150000X-0.587500X0.150000X-0.587500X0.150000X0.587500X0*%
%ADD19RoundRect,0.150000X0.675000X0.150000X-0.675000X0.150000X-0.675000X-0.150000X0.675000X-0.150000X0*%
%ADD20RoundRect,0.250000X0.325000X0.650000X-0.325000X0.650000X-0.325000X-0.650000X0.325000X-0.650000X0*%
%ADD21RoundRect,0.250000X-0.325000X-0.650000X0.325000X-0.650000X0.325000X0.650000X-0.325000X0.650000X0*%
%ADD22RoundRect,0.225000X0.250000X-0.225000X0.250000X0.225000X-0.250000X0.225000X-0.250000X-0.225000X0*%
%ADD23RoundRect,0.250000X1.100000X-0.500000X1.100000X0.500000X-1.100000X0.500000X-1.100000X-0.500000X0*%
G04 APERTURE END LIST*
D10*
%TO.C,C2*%
X9413000Y-24426000D03*
X11313000Y-24426000D03*
%TD*%
D11*
%TO.C,R6*%
X18237000Y-25096000D03*
X19887000Y-25096000D03*
%TD*%
D12*
%TO.C,R4*%
X11339000Y-40011000D03*
X11339000Y-41661000D03*
%TD*%
D13*
%TO.C,K1*%
X20865000Y-48025000D03*
X17665000Y-48025000D03*
X15465000Y-48025000D03*
X13265000Y-48025000D03*
X13265000Y-55025000D03*
X15465000Y-55025000D03*
X17665000Y-55025000D03*
X20865000Y-55025000D03*
%TD*%
D14*
%TO.C,R3*%
X17557229Y-34436000D03*
X15907229Y-34436000D03*
%TD*%
D15*
%TO.C,C7*%
X11061000Y-48832000D03*
X11061000Y-50382000D03*
%TD*%
D16*
%TO.C,U2*%
X21537000Y-31446000D03*
X21537000Y-30176000D03*
X21537000Y-28906000D03*
X21537000Y-27636000D03*
X16587000Y-27636000D03*
X16587000Y-28906000D03*
X16587000Y-30176000D03*
X16587000Y-31446000D03*
%TD*%
D17*
%TO.C,R8*%
X26809000Y-44658000D03*
X26809000Y-43638000D03*
%TD*%
D15*
%TO.C,C6*%
X21857000Y-42792000D03*
X21857000Y-44342000D03*
%TD*%
D12*
%TO.C,R5*%
X12839000Y-40900000D03*
X12839000Y-42550000D03*
%TD*%
D18*
%TO.C,U3*%
X11313000Y-26409500D03*
X9413000Y-26409500D03*
X10363000Y-28284500D03*
%TD*%
D14*
%TO.C,R2*%
X18192229Y-36341000D03*
X16542229Y-36341000D03*
%TD*%
D19*
%TO.C,U1*%
X19964000Y-45535000D03*
X19964000Y-44265000D03*
X19964000Y-42995000D03*
X19964000Y-41725000D03*
X14714000Y-41725000D03*
X14714000Y-42995000D03*
X14714000Y-44265000D03*
X14714000Y-45535000D03*
%TD*%
D20*
%TO.C,C3*%
X18427000Y-38246000D03*
X15477000Y-38246000D03*
%TD*%
D21*
%TO.C,C1*%
X9523000Y-22267000D03*
X12473000Y-22267000D03*
%TD*%
D22*
%TO.C,C5*%
X14617000Y-30316000D03*
X14617000Y-28766000D03*
%TD*%
D23*
%TO.C,D1*%
X24330000Y-48030000D03*
X24330000Y-43230000D03*
%TD*%
D10*
%TO.C,C4*%
X9413000Y-30268000D03*
X11313000Y-30268000D03*
%TD*%
D12*
%TO.C,R7*%
X26831000Y-45826000D03*
X26831000Y-47476000D03*
%TD*%
%TO.C,R1*%
X7883000Y-21656000D03*
X7883000Y-23306000D03*
%TD*%
D18*
%TO.C,Q1*%
X25600000Y-50230000D03*
X23700000Y-50230000D03*
X24650000Y-52105000D03*
%TD*%
M02*
