M48
; DRILL file {KiCad 9.0.1} date 2025-08-02T01:33:40-0700
; FORMAT={-:-/ absolute / metric / decimal}
; #@! TF.CreationDate,2025-08-02T01:33:40-07:00
; #@! TF.GenerationSoftware,Kicad,Pcbnew,9.0.1
; #@! TF.FileFunction,Plated,1,2,PTH
FMAT,2
METRIC
; #@! TA.AperFunction,Plated,PTH,ViaDrill
T1C0.300
; #@! TA.AperFunction,Plated,PTH,ViaDrill
T2C0.500
; #@! TA.AperFunction,Plated,PTH,ComponentDrill
T3C1.000
; #@! TA.AperFunction,Plated,PTH,ComponentDrill
T4C1.300
; #@! TA.AperFunction,Plated,PTH,ComponentDrill
T5C2.700
%
G90
G05
T1
X10.73Y-45.535
X11.442Y-44.146
X11.442Y-46.686
X15.592Y-32.454
X16.351Y-32.708
X16.522Y-45.543
T2
X10.652Y-38.246
X11.452Y-38.246
X11.95Y-28.525
X14.83Y-40.328
X20.152Y-38.246
X20.952Y-38.246
X22.618Y-50.242
X25.285Y-41.352
T3
X4.33Y-37.23
X4.33Y-39.77
X5.94Y-77.92
X6.87Y-37.23
X6.87Y-39.77
X8.48Y-77.92
T4
X5.94Y-5.08
X11.02Y-5.08
X16.1Y-5.08
X16.1Y-77.92
X21.18Y-5.08
X21.18Y-77.92
X26.26Y-5.08
X26.26Y-77.92
T5
X3.65Y-59.0
X27.65Y-35.5
M30
