%TF.GenerationSoftware,KiCad,Pcbnew,7.0.2*%
%TF.CreationDate,2023-05-19T03:37:00-07:00*%
%TF.ProjectId,pb_orangepi,70625f6f-7261-46e6-9765-70692e6b6963,rev?*%
%TF.SameCoordinates,PX90013c0PY280de80*%
%TF.FileFunction,Copper,L1,Top*%
%TF.FilePolarity,Positive*%
%FSLAX46Y46*%
G04 Gerber Fmt 4.6, Leading zero omitted, Abs format (unit mm)*
G04 Created by KiCad (PCBNEW 7.0.2) date 2023-05-19 03:37:00*
%MOMM*%
%LPD*%
G01*
G04 APERTURE LIST*
G04 Aperture macros list*
%AMRoundRect*
0 Rectangle with rounded corners*
0 $1 Rounding radius*
0 $2 $3 $4 $5 $6 $7 $8 $9 X,Y pos of 4 corners*
0 Add a 4 corners polygon primitive as box body*
4,1,4,$2,$3,$4,$5,$6,$7,$8,$9,$2,$3,0*
0 Add four circle primitives for the rounded corners*
1,1,$1+$1,$2,$3*
1,1,$1+$1,$4,$5*
1,1,$1+$1,$6,$7*
1,1,$1+$1,$8,$9*
0 Add four rect primitives between the rounded corners*
20,1,$1+$1,$2,$3,$4,$5,0*
20,1,$1+$1,$4,$5,$6,$7,0*
20,1,$1+$1,$6,$7,$8,$9,0*
20,1,$1+$1,$8,$9,$2,$3,0*%
G04 Aperture macros list end*
%TA.AperFunction,SMDPad,CuDef*%
%ADD10R,1.000000X2.510000*%
%TD*%
%TA.AperFunction,SMDPad,CuDef*%
%ADD11RoundRect,0.250000X-0.250000X-0.475000X0.250000X-0.475000X0.250000X0.475000X-0.250000X0.475000X0*%
%TD*%
%TA.AperFunction,ComponentPad*%
%ADD12C,1.600000*%
%TD*%
%TA.AperFunction,ComponentPad*%
%ADD13R,1.600000X1.600000*%
%TD*%
%TA.AperFunction,ComponentPad*%
%ADD14O,1.700000X1.700000*%
%TD*%
%TA.AperFunction,ComponentPad*%
%ADD15R,1.700000X1.700000*%
%TD*%
%TA.AperFunction,ViaPad*%
%ADD16C,1.800000*%
%TD*%
%TA.AperFunction,ViaPad*%
%ADD17C,5.000000*%
%TD*%
%TA.AperFunction,Conductor*%
%ADD18C,1.800000*%
%TD*%
%TA.AperFunction,Conductor*%
%ADD19C,1.000000*%
%TD*%
%TA.AperFunction,Conductor*%
%ADD20C,0.500000*%
%TD*%
G04 APERTURE END LIST*
D10*
%TO.P,J6,1,Pin_1*%
%TO.N,+5V*%
X61540000Y-4655000D03*
%TO.P,J6,2,Pin_2*%
%TO.N,Net-(J1-Pin_29)*%
X59000000Y-4655000D03*
%TO.P,J6,3,Pin_3*%
%TO.N,GND*%
X56460000Y-4655000D03*
%TD*%
%TO.P,J5,1,Pin_1*%
%TO.N,+5V*%
X49620000Y-4655000D03*
%TO.P,J5,2,Pin_2*%
%TO.N,Net-(J1-Pin_31)*%
X47080000Y-4655000D03*
%TO.P,J5,3,Pin_3*%
%TO.N,GND*%
X44540000Y-4655000D03*
%TD*%
%TO.P,J4,3,Pin_3*%
%TO.N,GND*%
X32620000Y-4655000D03*
%TO.P,J4,2,Pin_2*%
%TO.N,Net-(J1-Pin_33)*%
X35160000Y-4655000D03*
%TO.P,J4,1,Pin_1*%
%TO.N,+5V*%
X37700000Y-4655000D03*
%TD*%
%TO.P,J3,1,Pin_1*%
%TO.N,+5V*%
X25700000Y-4655000D03*
%TO.P,J3,2,Pin_2*%
%TO.N,Net-(J1-Pin_35)*%
X23160000Y-4655000D03*
%TO.P,J3,3,Pin_3*%
%TO.N,GND*%
X20620000Y-4655000D03*
%TD*%
%TO.P,J2,3,Pin_3*%
%TO.N,GND*%
X8660000Y-4655000D03*
%TO.P,J2,2,Pin_2*%
%TO.N,Net-(J1-Pin_37)*%
X11200000Y-4655000D03*
%TO.P,J2,1,Pin_1*%
%TO.N,+5V*%
X13740000Y-4655000D03*
%TD*%
D11*
%TO.P,C2,1*%
%TO.N,+5V*%
X6600000Y-40500000D03*
%TO.P,C2,2*%
%TO.N,GND*%
X8500000Y-40500000D03*
%TD*%
D12*
%TO.P,C1,2*%
%TO.N,GND*%
X9000000Y-33500000D03*
D13*
%TO.P,C1,1*%
%TO.N,+5V*%
X6500000Y-33500000D03*
%TD*%
D14*
%TO.P,J1,40,Pin_40*%
%TO.N,unconnected-(J1-Pin_40-Pad40)*%
X11580000Y-49340000D03*
%TO.P,J1,39,Pin_39*%
%TO.N,unconnected-(J1-Pin_39-Pad39)*%
X14120000Y-49340000D03*
%TO.P,J1,38,Pin_38*%
%TO.N,unconnected-(J1-Pin_38-Pad38)*%
X11580000Y-51880000D03*
%TO.P,J1,37,Pin_37*%
%TO.N,Net-(J1-Pin_37)*%
X14120000Y-51880000D03*
%TO.P,J1,36,Pin_36*%
%TO.N,unconnected-(J1-Pin_36-Pad36)*%
X11580000Y-54420000D03*
%TO.P,J1,35,Pin_35*%
%TO.N,Net-(J1-Pin_35)*%
X14120000Y-54420000D03*
%TO.P,J1,34,Pin_34*%
%TO.N,unconnected-(J1-Pin_34-Pad34)*%
X11580000Y-56960000D03*
%TO.P,J1,33,Pin_33*%
%TO.N,Net-(J1-Pin_33)*%
X14120000Y-56960000D03*
%TO.P,J1,32,Pin_32*%
%TO.N,unconnected-(J1-Pin_32-Pad32)*%
X11580000Y-59500000D03*
%TO.P,J1,31,Pin_31*%
%TO.N,Net-(J1-Pin_31)*%
X14120000Y-59500000D03*
%TO.P,J1,30,Pin_30*%
%TO.N,unconnected-(J1-Pin_30-Pad30)*%
X11580000Y-62040000D03*
%TO.P,J1,29,Pin_29*%
%TO.N,Net-(J1-Pin_29)*%
X14120000Y-62040000D03*
%TO.P,J1,28,Pin_28*%
%TO.N,unconnected-(J1-Pin_28-Pad28)*%
X11580000Y-64580000D03*
%TO.P,J1,27,Pin_27*%
%TO.N,unconnected-(J1-Pin_27-Pad27)*%
X14120000Y-64580000D03*
%TO.P,J1,26,Pin_26*%
%TO.N,unconnected-(J1-Pin_26-Pad26)*%
X11580000Y-67120000D03*
%TO.P,J1,25,Pin_25*%
%TO.N,unconnected-(J1-Pin_25-Pad25)*%
X14120000Y-67120000D03*
%TO.P,J1,24,Pin_24*%
%TO.N,unconnected-(J1-Pin_24-Pad24)*%
X11580000Y-69660000D03*
%TO.P,J1,23,Pin_23*%
%TO.N,unconnected-(J1-Pin_23-Pad23)*%
X14120000Y-69660000D03*
%TO.P,J1,22,Pin_22*%
%TO.N,unconnected-(J1-Pin_22-Pad22)*%
X11580000Y-72200000D03*
%TO.P,J1,21,Pin_21*%
%TO.N,unconnected-(J1-Pin_21-Pad21)*%
X14120000Y-72200000D03*
%TO.P,J1,20,Pin_20*%
%TO.N,unconnected-(J1-Pin_20-Pad20)*%
X11580000Y-74740000D03*
%TO.P,J1,19,Pin_19*%
%TO.N,unconnected-(J1-Pin_19-Pad19)*%
X14120000Y-74740000D03*
%TO.P,J1,18,Pin_18*%
%TO.N,unconnected-(J1-Pin_18-Pad18)*%
X11580000Y-77280000D03*
%TO.P,J1,17,Pin_17*%
%TO.N,unconnected-(J1-Pin_17-Pad17)*%
X14120000Y-77280000D03*
%TO.P,J1,16,Pin_16*%
%TO.N,unconnected-(J1-Pin_16-Pad16)*%
X11580000Y-79820000D03*
%TO.P,J1,15,Pin_15*%
%TO.N,unconnected-(J1-Pin_15-Pad15)*%
X14120000Y-79820000D03*
%TO.P,J1,14,Pin_14*%
%TO.N,unconnected-(J1-Pin_14-Pad14)*%
X11580000Y-82360000D03*
%TO.P,J1,13,Pin_13*%
%TO.N,unconnected-(J1-Pin_13-Pad13)*%
X14120000Y-82360000D03*
%TO.P,J1,12,Pin_12*%
%TO.N,unconnected-(J1-Pin_12-Pad12)*%
X11580000Y-84900000D03*
%TO.P,J1,11,Pin_11*%
%TO.N,unconnected-(J1-Pin_11-Pad11)*%
X14120000Y-84900000D03*
%TO.P,J1,10,Pin_10*%
%TO.N,unconnected-(J1-Pin_10-Pad10)*%
X11580000Y-87440000D03*
%TO.P,J1,9,Pin_9*%
%TO.N,unconnected-(J1-Pin_9-Pad9)*%
X14120000Y-87440000D03*
%TO.P,J1,8,Pin_8*%
%TO.N,unconnected-(J1-Pin_8-Pad8)*%
X11580000Y-89980000D03*
%TO.P,J1,7,Pin_7*%
%TO.N,unconnected-(J1-Pin_7-Pad7)*%
X14120000Y-89980000D03*
%TO.P,J1,6,Pin_6*%
%TO.N,GND*%
X11580000Y-92520000D03*
%TO.P,J1,5,Pin_5*%
%TO.N,unconnected-(J1-Pin_5-Pad5)*%
X14120000Y-92520000D03*
%TO.P,J1,4,Pin_4*%
%TO.N,+5V*%
X11580000Y-95060000D03*
%TO.P,J1,3,Pin_3*%
%TO.N,unconnected-(J1-Pin_3-Pad3)*%
X14120000Y-95060000D03*
%TO.P,J1,2,Pin_2*%
%TO.N,unconnected-(J1-Pin_2-Pad2)*%
X11580000Y-97600000D03*
D15*
%TO.P,J1,1,Pin_1*%
%TO.N,unconnected-(J1-Pin_1-Pad1)*%
X14120000Y-97600000D03*
%TD*%
D16*
%TO.N,+5V*%
X6500000Y-9500000D03*
X50000000Y-9500000D03*
X37000000Y-9500000D03*
X27000000Y-9500000D03*
X15500000Y-9500000D03*
X61500000Y-9500000D03*
X48500000Y-9500000D03*
X38500000Y-9500000D03*
X25500000Y-9500000D03*
X14000000Y-9500000D03*
%TO.N,GND*%
X56500000Y-7500000D03*
X42500000Y-7500000D03*
X44000000Y-7500000D03*
X30500000Y-7500000D03*
X29000000Y-7500000D03*
X19000000Y-7500000D03*
X20500000Y-7500000D03*
X20500000Y-7500000D03*
X8500000Y-7500000D03*
D17*
%TO.N,*%
X13760000Y-105056000D03*
X13760000Y-41940000D03*
%TD*%
D18*
%TO.N,+5V*%
X48500000Y-9500000D02*
X50000000Y-9500000D01*
%TO.N,GND*%
X42500000Y-7500000D02*
X44000000Y-7500000D01*
%TO.N,+5V*%
X37000000Y-9500000D02*
X38500000Y-9500000D01*
X14000000Y-9500000D02*
X15500000Y-9500000D01*
%TO.N,GND*%
X29000000Y-7500000D02*
X30500000Y-7500000D01*
%TO.N,+5V*%
X25500000Y-9500000D02*
X27000000Y-9500000D01*
%TO.N,GND*%
X19000000Y-7500000D02*
X20500000Y-7500000D01*
D19*
%TO.N,+5V*%
X61540000Y-4655000D02*
X61540000Y-9460000D01*
X61540000Y-9460000D02*
X61500000Y-9500000D01*
X49620000Y-4655000D02*
X49620000Y-9120000D01*
X49620000Y-9120000D02*
X50000000Y-9500000D01*
X37700000Y-4655000D02*
X37700000Y-8800000D01*
X37700000Y-8800000D02*
X37000000Y-9500000D01*
X25700000Y-4655000D02*
X25700000Y-9300000D01*
X25700000Y-9300000D02*
X25500000Y-9500000D01*
X13740000Y-4655000D02*
X13740000Y-9240000D01*
X13740000Y-9240000D02*
X14000000Y-9500000D01*
X6500000Y-33500000D02*
X6500000Y-9500000D01*
D20*
%TO.N,Net-(J1-Pin_31)*%
X14120000Y-59500000D02*
X20500000Y-53120000D01*
X20500000Y-53120000D02*
X20500000Y-23500000D01*
X42500000Y-11500000D02*
X47080000Y-6920000D01*
X20500000Y-23500000D02*
X32500000Y-11500000D01*
X32500000Y-11500000D02*
X42500000Y-11500000D01*
X47080000Y-6920000D02*
X47080000Y-4655000D01*
D19*
%TO.N,GND*%
X30500000Y-7500000D02*
X32620000Y-5380000D01*
X32620000Y-5380000D02*
X32620000Y-4655000D01*
X56500000Y-7500000D02*
X56500000Y-4695000D01*
X56500000Y-4695000D02*
X56460000Y-4655000D01*
X44000000Y-7500000D02*
X44540000Y-6960000D01*
X44540000Y-6960000D02*
X44540000Y-4655000D01*
X20500000Y-7500000D02*
X20500000Y-4775000D01*
X20500000Y-4775000D02*
X20620000Y-4655000D01*
X8500000Y-7500000D02*
X8500000Y-4815000D01*
X8500000Y-4815000D02*
X8660000Y-4655000D01*
X9000000Y-33500000D02*
X9000000Y-8000000D01*
X9000000Y-8000000D02*
X8500000Y-7500000D01*
%TO.N,+5V*%
X8060000Y-95060000D02*
X6600000Y-93600000D01*
X6600000Y-93600000D02*
X6600000Y-40500000D01*
%TO.N,GND*%
X8500000Y-40500000D02*
X8500000Y-34000000D01*
X8500000Y-34000000D02*
X9000000Y-33500000D01*
%TO.N,+5V*%
X6600000Y-40500000D02*
X6600000Y-33600000D01*
X6600000Y-33600000D02*
X6500000Y-33500000D01*
X11580000Y-95060000D02*
X8060000Y-95060000D01*
D20*
%TO.N,Net-(J1-Pin_35)*%
X14120000Y-54420000D02*
X18500000Y-50040000D01*
X18500000Y-50040000D02*
X18500000Y-15000000D01*
X18500000Y-15000000D02*
X23160000Y-10340000D01*
X23160000Y-10340000D02*
X23160000Y-4655000D01*
%TO.N,Net-(J1-Pin_37)*%
X14120000Y-51880000D02*
X17500000Y-48500000D01*
X17500000Y-48500000D02*
X17500000Y-18500000D01*
X11200000Y-12200000D02*
X11200000Y-4655000D01*
X17500000Y-18500000D02*
X11200000Y-12200000D01*
%TO.N,Net-(J1-Pin_33)*%
X14120000Y-56960000D02*
X19500000Y-51580000D01*
X35160000Y-5407500D02*
X35160000Y-4655000D01*
X19500000Y-51580000D02*
X19500000Y-20907500D01*
X19500000Y-20907500D02*
X35000000Y-5407500D01*
X35000000Y-5407500D02*
X35160000Y-5407500D01*
%TO.N,Net-(J1-Pin_29)*%
X14120000Y-62040000D02*
X21500000Y-54660000D01*
X54000000Y-14000000D02*
X59000000Y-9000000D01*
X21500000Y-54660000D02*
X21500000Y-26500000D01*
X21500000Y-26500000D02*
X34000000Y-14000000D01*
X34000000Y-14000000D02*
X54000000Y-14000000D01*
X59000000Y-9000000D02*
X59000000Y-4655000D01*
D19*
%TO.N,GND*%
X11580000Y-92520000D02*
X9520000Y-92520000D01*
X9520000Y-92520000D02*
X8500000Y-91500000D01*
X8500000Y-91500000D02*
X8500000Y-40500000D01*
%TD*%
M02*
