M48
; DRILL file {KiCad 7.0.2} date Fri May 19 03:37:17 2023
; FORMAT={-:-/ absolute / inch / decimal}
; #@! TF.CreationDate,2023-05-19T03:37:17-07:00
; #@! TF.GenerationSoftware,Kicad,Pcbnew,7.0.2
; #@! TF.FileFunction,Plated,1,2,PTH
FMAT,2
INCH
; #@! TA.AperFunction,Plated,PTH,ComponentDrill
T1C0.0315
; #@! TA.AperFunction,Plated,PTH,ViaDrill
T2C0.0394
; #@! TA.AperFunction,Plated,PTH,ComponentDrill
T3C0.0394
; #@! TA.AperFunction,Plated,PTH,ViaDrill
T4C0.1181
%
G90
G05
T1
X0.2559Y-1.3189
X0.3543Y-1.3189
T2
X0.2559Y-0.374
X0.3346Y-0.2953
X0.5512Y-0.374
X0.6102Y-0.374
X0.748Y-0.2953
X0.8071Y-0.2953
X0.8071Y-0.2953
X1.0039Y-0.374
X1.063Y-0.374
X1.1417Y-0.2953
X1.2008Y-0.2953
X1.4567Y-0.374
X1.5157Y-0.374
X1.6732Y-0.2953
X1.7323Y-0.2953
X1.9094Y-0.374
X1.9685Y-0.374
X2.2244Y-0.2953
X2.4213Y-0.374
T3
X0.4559Y-1.9425
X0.4559Y-2.0425
X0.4559Y-2.1425
X0.4559Y-2.2425
X0.4559Y-2.3425
X0.4559Y-2.4425
X0.4559Y-2.5425
X0.4559Y-2.6425
X0.4559Y-2.7425
X0.4559Y-2.8425
X0.4559Y-2.9425
X0.4559Y-3.0425
X0.4559Y-3.1425
X0.4559Y-3.2425
X0.4559Y-3.3425
X0.4559Y-3.4425
X0.4559Y-3.5425
X0.4559Y-3.6425
X0.4559Y-3.7425
X0.4559Y-3.8425
X0.5559Y-1.9425
X0.5559Y-2.0425
X0.5559Y-2.1425
X0.5559Y-2.2425
X0.5559Y-2.3425
X0.5559Y-2.4425
X0.5559Y-2.5425
X0.5559Y-2.6425
X0.5559Y-2.7425
X0.5559Y-2.8425
X0.5559Y-2.9425
X0.5559Y-3.0425
X0.5559Y-3.1425
X0.5559Y-3.2425
X0.5559Y-3.3425
X0.5559Y-3.4425
X0.5559Y-3.5425
X0.5559Y-3.6425
X0.5559Y-3.7425
X0.5559Y-3.8425
T4
X0.5417Y-1.6512
X0.5417Y-4.1361
T0
M30
