%TF.GenerationSoftware,KiCad,Pcbnew,(6.0.4)*%
%TF.CreationDate,2022-06-04T04:00:10-07:00*%
%TF.ProjectId,pb_orangepi - hori,70625f6f-7261-46e6-9765-7069202d2068,rev?*%
%TF.SameCoordinates,PX9896800PY4d3f640*%
%TF.FileFunction,Soldermask,Bot*%
%TF.FilePolarity,Negative*%
%FSLAX46Y46*%
G04 Gerber Fmt 4.6, Leading zero omitted, Abs format (unit mm)*
G04 Created by KiCad (PCBNEW (6.0.4)) date 2022-06-04 04:00:10*
%MOMM*%
%LPD*%
G01*
G04 APERTURE LIST*
%ADD10R,1.600000X1.600000*%
%ADD11C,1.600000*%
%ADD12R,1.700000X1.700000*%
%ADD13O,1.700000X1.700000*%
G04 APERTURE END LIST*
D10*
%TO.C,C1*%
X6000000Y-49000000D03*
D11*
X8500000Y-49000000D03*
%TD*%
D12*
%TO.C,J1*%
X14880000Y-10400000D03*
D13*
X17420000Y-10400000D03*
X14880000Y-12940000D03*
X17420000Y-12940000D03*
X14880000Y-15480000D03*
X17420000Y-15480000D03*
X14880000Y-18020000D03*
X17420000Y-18020000D03*
X14880000Y-20560000D03*
X17420000Y-20560000D03*
X14880000Y-23100000D03*
X17420000Y-23100000D03*
X14880000Y-25640000D03*
X17420000Y-25640000D03*
X14880000Y-28180000D03*
X17420000Y-28180000D03*
X14880000Y-30720000D03*
X17420000Y-30720000D03*
X14880000Y-33260000D03*
X17420000Y-33260000D03*
X14880000Y-35800000D03*
X17420000Y-35800000D03*
X14880000Y-38340000D03*
X17420000Y-38340000D03*
X14880000Y-40880000D03*
X17420000Y-40880000D03*
X14880000Y-43420000D03*
X17420000Y-43420000D03*
X14880000Y-45960000D03*
X17420000Y-45960000D03*
X14880000Y-48500000D03*
X17420000Y-48500000D03*
X14880000Y-51040000D03*
X17420000Y-51040000D03*
X14880000Y-53580000D03*
X17420000Y-53580000D03*
X14880000Y-56120000D03*
X17420000Y-56120000D03*
X14880000Y-58660000D03*
X17420000Y-58660000D03*
%TD*%
M02*
