%TF.GenerationSoftware,KiCad,Pcbnew,7.0.2*%
%TF.CreationDate,2023-05-19T03:37:00-07:00*%
%TF.ProjectId,pb_orangepi,70625f6f-7261-46e6-9765-70692e6b6963,rev?*%
%TF.SameCoordinates,PX90013c0PY280de80*%
%TF.FileFunction,Soldermask,Bot*%
%TF.FilePolarity,Negative*%
%FSLAX46Y46*%
G04 Gerber Fmt 4.6, Leading zero omitted, Abs format (unit mm)*
G04 Created by KiCad (PCBNEW 7.0.2) date 2023-05-19 03:37:00*
%MOMM*%
%LPD*%
G01*
G04 APERTURE LIST*
%ADD10C,1.600000*%
%ADD11R,1.600000X1.600000*%
%ADD12O,1.700000X1.700000*%
%ADD13R,1.700000X1.700000*%
G04 APERTURE END LIST*
D10*
%TO.C,C1*%
X9000000Y-33500000D03*
D11*
X6500000Y-33500000D03*
%TD*%
D12*
%TO.C,J1*%
X11580000Y-49340000D03*
X14120000Y-49340000D03*
X11580000Y-51880000D03*
X14120000Y-51880000D03*
X11580000Y-54420000D03*
X14120000Y-54420000D03*
X11580000Y-56960000D03*
X14120000Y-56960000D03*
X11580000Y-59500000D03*
X14120000Y-59500000D03*
X11580000Y-62040000D03*
X14120000Y-62040000D03*
X11580000Y-64580000D03*
X14120000Y-64580000D03*
X11580000Y-67120000D03*
X14120000Y-67120000D03*
X11580000Y-69660000D03*
X14120000Y-69660000D03*
X11580000Y-72200000D03*
X14120000Y-72200000D03*
X11580000Y-74740000D03*
X14120000Y-74740000D03*
X11580000Y-77280000D03*
X14120000Y-77280000D03*
X11580000Y-79820000D03*
X14120000Y-79820000D03*
X11580000Y-82360000D03*
X14120000Y-82360000D03*
X11580000Y-84900000D03*
X14120000Y-84900000D03*
X11580000Y-87440000D03*
X14120000Y-87440000D03*
X11580000Y-89980000D03*
X14120000Y-89980000D03*
X11580000Y-92520000D03*
X14120000Y-92520000D03*
X11580000Y-95060000D03*
X14120000Y-95060000D03*
X11580000Y-97600000D03*
D13*
X14120000Y-97600000D03*
%TD*%
M02*
