%TF.GenerationSoftware,KiCad,Pcbnew,7.0.11-2.fc39*%
%TF.CreationDate,2024-08-16T08:17:41-07:00*%
%TF.ProjectId,wall_clock_full,77616c6c-5f63-46c6-9f63-6b5f66756c6c,A0*%
%TF.SameCoordinates,PX6d01460PY3072580*%
%TF.FileFunction,Legend,Top*%
%TF.FilePolarity,Positive*%
%FSLAX46Y46*%
G04 Gerber Fmt 4.6, Leading zero omitted, Abs format (unit mm)*
G04 Created by KiCad (PCBNEW 7.0.11-2.fc39) date 2024-08-16 08:17:41*
%MOMM*%
%LPD*%
G01*
G04 APERTURE LIST*
%ADD10C,0.200000*%
%ADD11C,0.150000*%
%ADD12C,0.120000*%
G04 APERTURE END LIST*
D10*
X1036435Y-36205219D02*
X1274530Y-37205219D01*
X1274530Y-37205219D02*
X1465006Y-36490933D01*
X1465006Y-36490933D02*
X1655482Y-37205219D01*
X1655482Y-37205219D02*
X1893578Y-36205219D01*
X2703101Y-37205219D02*
X2703101Y-36681409D01*
X2703101Y-36681409D02*
X2655482Y-36586171D01*
X2655482Y-36586171D02*
X2560244Y-36538552D01*
X2560244Y-36538552D02*
X2369768Y-36538552D01*
X2369768Y-36538552D02*
X2274530Y-36586171D01*
X2703101Y-37157600D02*
X2607863Y-37205219D01*
X2607863Y-37205219D02*
X2369768Y-37205219D01*
X2369768Y-37205219D02*
X2274530Y-37157600D01*
X2274530Y-37157600D02*
X2226911Y-37062361D01*
X2226911Y-37062361D02*
X2226911Y-36967123D01*
X2226911Y-36967123D02*
X2274530Y-36871885D01*
X2274530Y-36871885D02*
X2369768Y-36824266D01*
X2369768Y-36824266D02*
X2607863Y-36824266D01*
X2607863Y-36824266D02*
X2703101Y-36776647D01*
X3322149Y-37205219D02*
X3226911Y-37157600D01*
X3226911Y-37157600D02*
X3179292Y-37062361D01*
X3179292Y-37062361D02*
X3179292Y-36205219D01*
X3845959Y-37205219D02*
X3750721Y-37157600D01*
X3750721Y-37157600D02*
X3703102Y-37062361D01*
X3703102Y-37062361D02*
X3703102Y-36205219D01*
X5560245Y-37109980D02*
X5512626Y-37157600D01*
X5512626Y-37157600D02*
X5369769Y-37205219D01*
X5369769Y-37205219D02*
X5274531Y-37205219D01*
X5274531Y-37205219D02*
X5131674Y-37157600D01*
X5131674Y-37157600D02*
X5036436Y-37062361D01*
X5036436Y-37062361D02*
X4988817Y-36967123D01*
X4988817Y-36967123D02*
X4941198Y-36776647D01*
X4941198Y-36776647D02*
X4941198Y-36633790D01*
X4941198Y-36633790D02*
X4988817Y-36443314D01*
X4988817Y-36443314D02*
X5036436Y-36348076D01*
X5036436Y-36348076D02*
X5131674Y-36252838D01*
X5131674Y-36252838D02*
X5274531Y-36205219D01*
X5274531Y-36205219D02*
X5369769Y-36205219D01*
X5369769Y-36205219D02*
X5512626Y-36252838D01*
X5512626Y-36252838D02*
X5560245Y-36300457D01*
X6131674Y-37205219D02*
X6036436Y-37157600D01*
X6036436Y-37157600D02*
X5988817Y-37062361D01*
X5988817Y-37062361D02*
X5988817Y-36205219D01*
X6655484Y-37205219D02*
X6560246Y-37157600D01*
X6560246Y-37157600D02*
X6512627Y-37109980D01*
X6512627Y-37109980D02*
X6465008Y-37014742D01*
X6465008Y-37014742D02*
X6465008Y-36729028D01*
X6465008Y-36729028D02*
X6512627Y-36633790D01*
X6512627Y-36633790D02*
X6560246Y-36586171D01*
X6560246Y-36586171D02*
X6655484Y-36538552D01*
X6655484Y-36538552D02*
X6798341Y-36538552D01*
X6798341Y-36538552D02*
X6893579Y-36586171D01*
X6893579Y-36586171D02*
X6941198Y-36633790D01*
X6941198Y-36633790D02*
X6988817Y-36729028D01*
X6988817Y-36729028D02*
X6988817Y-37014742D01*
X6988817Y-37014742D02*
X6941198Y-37109980D01*
X6941198Y-37109980D02*
X6893579Y-37157600D01*
X6893579Y-37157600D02*
X6798341Y-37205219D01*
X6798341Y-37205219D02*
X6655484Y-37205219D01*
X7845960Y-37157600D02*
X7750722Y-37205219D01*
X7750722Y-37205219D02*
X7560246Y-37205219D01*
X7560246Y-37205219D02*
X7465008Y-37157600D01*
X7465008Y-37157600D02*
X7417389Y-37109980D01*
X7417389Y-37109980D02*
X7369770Y-37014742D01*
X7369770Y-37014742D02*
X7369770Y-36729028D01*
X7369770Y-36729028D02*
X7417389Y-36633790D01*
X7417389Y-36633790D02*
X7465008Y-36586171D01*
X7465008Y-36586171D02*
X7560246Y-36538552D01*
X7560246Y-36538552D02*
X7750722Y-36538552D01*
X7750722Y-36538552D02*
X7845960Y-36586171D01*
X8274532Y-37205219D02*
X8274532Y-36205219D01*
X8369770Y-36824266D02*
X8655484Y-37205219D01*
X8655484Y-36538552D02*
X8274532Y-36919504D01*
X10417389Y-37109980D02*
X10369770Y-37157600D01*
X10369770Y-37157600D02*
X10226913Y-37205219D01*
X10226913Y-37205219D02*
X10131675Y-37205219D01*
X10131675Y-37205219D02*
X9988818Y-37157600D01*
X9988818Y-37157600D02*
X9893580Y-37062361D01*
X9893580Y-37062361D02*
X9845961Y-36967123D01*
X9845961Y-36967123D02*
X9798342Y-36776647D01*
X9798342Y-36776647D02*
X9798342Y-36633790D01*
X9798342Y-36633790D02*
X9845961Y-36443314D01*
X9845961Y-36443314D02*
X9893580Y-36348076D01*
X9893580Y-36348076D02*
X9988818Y-36252838D01*
X9988818Y-36252838D02*
X10131675Y-36205219D01*
X10131675Y-36205219D02*
X10226913Y-36205219D01*
X10226913Y-36205219D02*
X10369770Y-36252838D01*
X10369770Y-36252838D02*
X10417389Y-36300457D01*
X10988818Y-37205219D02*
X10893580Y-37157600D01*
X10893580Y-37157600D02*
X10845961Y-37109980D01*
X10845961Y-37109980D02*
X10798342Y-37014742D01*
X10798342Y-37014742D02*
X10798342Y-36729028D01*
X10798342Y-36729028D02*
X10845961Y-36633790D01*
X10845961Y-36633790D02*
X10893580Y-36586171D01*
X10893580Y-36586171D02*
X10988818Y-36538552D01*
X10988818Y-36538552D02*
X11131675Y-36538552D01*
X11131675Y-36538552D02*
X11226913Y-36586171D01*
X11226913Y-36586171D02*
X11274532Y-36633790D01*
X11274532Y-36633790D02*
X11322151Y-36729028D01*
X11322151Y-36729028D02*
X11322151Y-37014742D01*
X11322151Y-37014742D02*
X11274532Y-37109980D01*
X11274532Y-37109980D02*
X11226913Y-37157600D01*
X11226913Y-37157600D02*
X11131675Y-37205219D01*
X11131675Y-37205219D02*
X10988818Y-37205219D01*
X11750723Y-36538552D02*
X11750723Y-37205219D01*
X11750723Y-36633790D02*
X11798342Y-36586171D01*
X11798342Y-36586171D02*
X11893580Y-36538552D01*
X11893580Y-36538552D02*
X12036437Y-36538552D01*
X12036437Y-36538552D02*
X12131675Y-36586171D01*
X12131675Y-36586171D02*
X12179294Y-36681409D01*
X12179294Y-36681409D02*
X12179294Y-37205219D01*
X12512628Y-36538552D02*
X12893580Y-36538552D01*
X12655485Y-36205219D02*
X12655485Y-37062361D01*
X12655485Y-37062361D02*
X12703104Y-37157600D01*
X12703104Y-37157600D02*
X12798342Y-37205219D01*
X12798342Y-37205219D02*
X12893580Y-37205219D01*
X13226914Y-37205219D02*
X13226914Y-36538552D01*
X13226914Y-36729028D02*
X13274533Y-36633790D01*
X13274533Y-36633790D02*
X13322152Y-36586171D01*
X13322152Y-36586171D02*
X13417390Y-36538552D01*
X13417390Y-36538552D02*
X13512628Y-36538552D01*
X13988819Y-37205219D02*
X13893581Y-37157600D01*
X13893581Y-37157600D02*
X13845962Y-37109980D01*
X13845962Y-37109980D02*
X13798343Y-37014742D01*
X13798343Y-37014742D02*
X13798343Y-36729028D01*
X13798343Y-36729028D02*
X13845962Y-36633790D01*
X13845962Y-36633790D02*
X13893581Y-36586171D01*
X13893581Y-36586171D02*
X13988819Y-36538552D01*
X13988819Y-36538552D02*
X14131676Y-36538552D01*
X14131676Y-36538552D02*
X14226914Y-36586171D01*
X14226914Y-36586171D02*
X14274533Y-36633790D01*
X14274533Y-36633790D02*
X14322152Y-36729028D01*
X14322152Y-36729028D02*
X14322152Y-37014742D01*
X14322152Y-37014742D02*
X14274533Y-37109980D01*
X14274533Y-37109980D02*
X14226914Y-37157600D01*
X14226914Y-37157600D02*
X14131676Y-37205219D01*
X14131676Y-37205219D02*
X13988819Y-37205219D01*
X14893581Y-37205219D02*
X14798343Y-37157600D01*
X14798343Y-37157600D02*
X14750724Y-37062361D01*
X14750724Y-37062361D02*
X14750724Y-36205219D01*
X15417391Y-37205219D02*
X15322153Y-37157600D01*
X15322153Y-37157600D02*
X15274534Y-37062361D01*
X15274534Y-37062361D02*
X15274534Y-36205219D01*
X16179296Y-37157600D02*
X16084058Y-37205219D01*
X16084058Y-37205219D02*
X15893582Y-37205219D01*
X15893582Y-37205219D02*
X15798344Y-37157600D01*
X15798344Y-37157600D02*
X15750725Y-37062361D01*
X15750725Y-37062361D02*
X15750725Y-36681409D01*
X15750725Y-36681409D02*
X15798344Y-36586171D01*
X15798344Y-36586171D02*
X15893582Y-36538552D01*
X15893582Y-36538552D02*
X16084058Y-36538552D01*
X16084058Y-36538552D02*
X16179296Y-36586171D01*
X16179296Y-36586171D02*
X16226915Y-36681409D01*
X16226915Y-36681409D02*
X16226915Y-36776647D01*
X16226915Y-36776647D02*
X15750725Y-36871885D01*
X16655487Y-37205219D02*
X16655487Y-36538552D01*
X16655487Y-36729028D02*
X16703106Y-36633790D01*
X16703106Y-36633790D02*
X16750725Y-36586171D01*
X16750725Y-36586171D02*
X16845963Y-36538552D01*
X16845963Y-36538552D02*
X16941201Y-36538552D01*
X1899219Y-16330898D02*
X1423028Y-16664231D01*
X1899219Y-16902326D02*
X899219Y-16902326D01*
X899219Y-16902326D02*
X899219Y-16521374D01*
X899219Y-16521374D02*
X946838Y-16426136D01*
X946838Y-16426136D02*
X994457Y-16378517D01*
X994457Y-16378517D02*
X1089695Y-16330898D01*
X1089695Y-16330898D02*
X1232552Y-16330898D01*
X1232552Y-16330898D02*
X1327790Y-16378517D01*
X1327790Y-16378517D02*
X1375409Y-16426136D01*
X1375409Y-16426136D02*
X1423028Y-16521374D01*
X1423028Y-16521374D02*
X1423028Y-16902326D01*
X1851600Y-15521374D02*
X1899219Y-15616612D01*
X1899219Y-15616612D02*
X1899219Y-15807088D01*
X1899219Y-15807088D02*
X1851600Y-15902326D01*
X1851600Y-15902326D02*
X1756361Y-15949945D01*
X1756361Y-15949945D02*
X1375409Y-15949945D01*
X1375409Y-15949945D02*
X1280171Y-15902326D01*
X1280171Y-15902326D02*
X1232552Y-15807088D01*
X1232552Y-15807088D02*
X1232552Y-15616612D01*
X1232552Y-15616612D02*
X1280171Y-15521374D01*
X1280171Y-15521374D02*
X1375409Y-15473755D01*
X1375409Y-15473755D02*
X1470647Y-15473755D01*
X1470647Y-15473755D02*
X1565885Y-15949945D01*
X1232552Y-15140421D02*
X1899219Y-14902326D01*
X1899219Y-14902326D02*
X1232552Y-14664231D01*
X1803980Y-14283278D02*
X1851600Y-14235659D01*
X1851600Y-14235659D02*
X1899219Y-14283278D01*
X1899219Y-14283278D02*
X1851600Y-14330897D01*
X1851600Y-14330897D02*
X1803980Y-14283278D01*
X1803980Y-14283278D02*
X1899219Y-14283278D01*
X1613504Y-13092802D02*
X1613504Y-12616612D01*
X1899219Y-13188040D02*
X899219Y-12854707D01*
X899219Y-12854707D02*
X1899219Y-12521374D01*
X899219Y-11997564D02*
X899219Y-11902326D01*
X899219Y-11902326D02*
X946838Y-11807088D01*
X946838Y-11807088D02*
X994457Y-11759469D01*
X994457Y-11759469D02*
X1089695Y-11711850D01*
X1089695Y-11711850D02*
X1280171Y-11664231D01*
X1280171Y-11664231D02*
X1518266Y-11664231D01*
X1518266Y-11664231D02*
X1708742Y-11711850D01*
X1708742Y-11711850D02*
X1803980Y-11759469D01*
X1803980Y-11759469D02*
X1851600Y-11807088D01*
X1851600Y-11807088D02*
X1899219Y-11902326D01*
X1899219Y-11902326D02*
X1899219Y-11997564D01*
X1899219Y-11997564D02*
X1851600Y-12092802D01*
X1851600Y-12092802D02*
X1803980Y-12140421D01*
X1803980Y-12140421D02*
X1708742Y-12188040D01*
X1708742Y-12188040D02*
X1518266Y-12235659D01*
X1518266Y-12235659D02*
X1280171Y-12235659D01*
X1280171Y-12235659D02*
X1089695Y-12188040D01*
X1089695Y-12188040D02*
X994457Y-12140421D01*
X994457Y-12140421D02*
X946838Y-12092802D01*
X946838Y-12092802D02*
X899219Y-11997564D01*
D11*
X27632819Y-12453857D02*
X27156628Y-12787190D01*
X27632819Y-13025285D02*
X26632819Y-13025285D01*
X26632819Y-13025285D02*
X26632819Y-12644333D01*
X26632819Y-12644333D02*
X26680438Y-12549095D01*
X26680438Y-12549095D02*
X26728057Y-12501476D01*
X26728057Y-12501476D02*
X26823295Y-12453857D01*
X26823295Y-12453857D02*
X26966152Y-12453857D01*
X26966152Y-12453857D02*
X27061390Y-12501476D01*
X27061390Y-12501476D02*
X27109009Y-12549095D01*
X27109009Y-12549095D02*
X27156628Y-12644333D01*
X27156628Y-12644333D02*
X27156628Y-13025285D01*
X27632819Y-11501476D02*
X27632819Y-12072904D01*
X27632819Y-11787190D02*
X26632819Y-11787190D01*
X26632819Y-11787190D02*
X26775676Y-11882428D01*
X26775676Y-11882428D02*
X26870914Y-11977666D01*
X26870914Y-11977666D02*
X26918533Y-12072904D01*
X26632819Y-10882428D02*
X26632819Y-10787190D01*
X26632819Y-10787190D02*
X26680438Y-10691952D01*
X26680438Y-10691952D02*
X26728057Y-10644333D01*
X26728057Y-10644333D02*
X26823295Y-10596714D01*
X26823295Y-10596714D02*
X27013771Y-10549095D01*
X27013771Y-10549095D02*
X27251866Y-10549095D01*
X27251866Y-10549095D02*
X27442342Y-10596714D01*
X27442342Y-10596714D02*
X27537580Y-10644333D01*
X27537580Y-10644333D02*
X27585200Y-10691952D01*
X27585200Y-10691952D02*
X27632819Y-10787190D01*
X27632819Y-10787190D02*
X27632819Y-10882428D01*
X27632819Y-10882428D02*
X27585200Y-10977666D01*
X27585200Y-10977666D02*
X27537580Y-11025285D01*
X27537580Y-11025285D02*
X27442342Y-11072904D01*
X27442342Y-11072904D02*
X27251866Y-11120523D01*
X27251866Y-11120523D02*
X27013771Y-11120523D01*
X27013771Y-11120523D02*
X26823295Y-11072904D01*
X26823295Y-11072904D02*
X26728057Y-11025285D01*
X26728057Y-11025285D02*
X26680438Y-10977666D01*
X26680438Y-10977666D02*
X26632819Y-10882428D01*
X10228990Y-3444857D02*
X10228990Y-3111524D01*
X9705180Y-3111524D02*
X10705180Y-3111524D01*
X10705180Y-3111524D02*
X10705180Y-3587714D01*
X14785180Y-3040095D02*
X15785180Y-3040095D01*
X15785180Y-3040095D02*
X15785180Y-3278190D01*
X15785180Y-3278190D02*
X15737561Y-3421047D01*
X15737561Y-3421047D02*
X15642323Y-3516285D01*
X15642323Y-3516285D02*
X15547085Y-3563904D01*
X15547085Y-3563904D02*
X15356609Y-3611523D01*
X15356609Y-3611523D02*
X15213752Y-3611523D01*
X15213752Y-3611523D02*
X15023276Y-3563904D01*
X15023276Y-3563904D02*
X14928038Y-3516285D01*
X14928038Y-3516285D02*
X14832800Y-3421047D01*
X14832800Y-3421047D02*
X14785180Y-3278190D01*
X14785180Y-3278190D02*
X14785180Y-3040095D01*
X11422142Y-21944819D02*
X11088809Y-21468628D01*
X10850714Y-21944819D02*
X10850714Y-20944819D01*
X10850714Y-20944819D02*
X11231666Y-20944819D01*
X11231666Y-20944819D02*
X11326904Y-20992438D01*
X11326904Y-20992438D02*
X11374523Y-21040057D01*
X11374523Y-21040057D02*
X11422142Y-21135295D01*
X11422142Y-21135295D02*
X11422142Y-21278152D01*
X11422142Y-21278152D02*
X11374523Y-21373390D01*
X11374523Y-21373390D02*
X11326904Y-21421009D01*
X11326904Y-21421009D02*
X11231666Y-21468628D01*
X11231666Y-21468628D02*
X10850714Y-21468628D01*
X12374523Y-21944819D02*
X11803095Y-21944819D01*
X12088809Y-21944819D02*
X12088809Y-20944819D01*
X12088809Y-20944819D02*
X11993571Y-21087676D01*
X11993571Y-21087676D02*
X11898333Y-21182914D01*
X11898333Y-21182914D02*
X11803095Y-21230533D01*
X12755476Y-21040057D02*
X12803095Y-20992438D01*
X12803095Y-20992438D02*
X12898333Y-20944819D01*
X12898333Y-20944819D02*
X13136428Y-20944819D01*
X13136428Y-20944819D02*
X13231666Y-20992438D01*
X13231666Y-20992438D02*
X13279285Y-21040057D01*
X13279285Y-21040057D02*
X13326904Y-21135295D01*
X13326904Y-21135295D02*
X13326904Y-21230533D01*
X13326904Y-21230533D02*
X13279285Y-21373390D01*
X13279285Y-21373390D02*
X12707857Y-21944819D01*
X12707857Y-21944819D02*
X13326904Y-21944819D01*
X2460667Y-23584819D02*
X3079714Y-23584819D01*
X3079714Y-23584819D02*
X2746381Y-23965771D01*
X2746381Y-23965771D02*
X2889238Y-23965771D01*
X2889238Y-23965771D02*
X2984476Y-24013390D01*
X2984476Y-24013390D02*
X3032095Y-24061009D01*
X3032095Y-24061009D02*
X3079714Y-24156247D01*
X3079714Y-24156247D02*
X3079714Y-24394342D01*
X3079714Y-24394342D02*
X3032095Y-24489580D01*
X3032095Y-24489580D02*
X2984476Y-24537200D01*
X2984476Y-24537200D02*
X2889238Y-24584819D01*
X2889238Y-24584819D02*
X2603524Y-24584819D01*
X2603524Y-24584819D02*
X2508286Y-24537200D01*
X2508286Y-24537200D02*
X2460667Y-24489580D01*
X6889761Y-29985057D02*
X6794523Y-29937438D01*
X6794523Y-29937438D02*
X6699285Y-29842200D01*
X6699285Y-29842200D02*
X6556428Y-29699342D01*
X6556428Y-29699342D02*
X6461190Y-29651723D01*
X6461190Y-29651723D02*
X6365952Y-29651723D01*
X6413571Y-29889819D02*
X6318333Y-29842200D01*
X6318333Y-29842200D02*
X6223095Y-29746961D01*
X6223095Y-29746961D02*
X6175476Y-29556485D01*
X6175476Y-29556485D02*
X6175476Y-29223152D01*
X6175476Y-29223152D02*
X6223095Y-29032676D01*
X6223095Y-29032676D02*
X6318333Y-28937438D01*
X6318333Y-28937438D02*
X6413571Y-28889819D01*
X6413571Y-28889819D02*
X6604047Y-28889819D01*
X6604047Y-28889819D02*
X6699285Y-28937438D01*
X6699285Y-28937438D02*
X6794523Y-29032676D01*
X6794523Y-29032676D02*
X6842142Y-29223152D01*
X6842142Y-29223152D02*
X6842142Y-29556485D01*
X6842142Y-29556485D02*
X6794523Y-29746961D01*
X6794523Y-29746961D02*
X6699285Y-29842200D01*
X6699285Y-29842200D02*
X6604047Y-29889819D01*
X6604047Y-29889819D02*
X6413571Y-29889819D01*
X7223095Y-28985057D02*
X7270714Y-28937438D01*
X7270714Y-28937438D02*
X7365952Y-28889819D01*
X7365952Y-28889819D02*
X7604047Y-28889819D01*
X7604047Y-28889819D02*
X7699285Y-28937438D01*
X7699285Y-28937438D02*
X7746904Y-28985057D01*
X7746904Y-28985057D02*
X7794523Y-29080295D01*
X7794523Y-29080295D02*
X7794523Y-29175533D01*
X7794523Y-29175533D02*
X7746904Y-29318390D01*
X7746904Y-29318390D02*
X7175476Y-29889819D01*
X7175476Y-29889819D02*
X7794523Y-29889819D01*
X13239819Y-18541904D02*
X14049342Y-18541904D01*
X14049342Y-18541904D02*
X14144580Y-18494285D01*
X14144580Y-18494285D02*
X14192200Y-18446666D01*
X14192200Y-18446666D02*
X14239819Y-18351428D01*
X14239819Y-18351428D02*
X14239819Y-18160952D01*
X14239819Y-18160952D02*
X14192200Y-18065714D01*
X14192200Y-18065714D02*
X14144580Y-18018095D01*
X14144580Y-18018095D02*
X14049342Y-17970476D01*
X14049342Y-17970476D02*
X13239819Y-17970476D01*
X13239819Y-17589523D02*
X13239819Y-16970476D01*
X13239819Y-16970476D02*
X13620771Y-17303809D01*
X13620771Y-17303809D02*
X13620771Y-17160952D01*
X13620771Y-17160952D02*
X13668390Y-17065714D01*
X13668390Y-17065714D02*
X13716009Y-17018095D01*
X13716009Y-17018095D02*
X13811247Y-16970476D01*
X13811247Y-16970476D02*
X14049342Y-16970476D01*
X14049342Y-16970476D02*
X14144580Y-17018095D01*
X14144580Y-17018095D02*
X14192200Y-17065714D01*
X14192200Y-17065714D02*
X14239819Y-17160952D01*
X14239819Y-17160952D02*
X14239819Y-17446666D01*
X14239819Y-17446666D02*
X14192200Y-17541904D01*
X14192200Y-17541904D02*
X14144580Y-17589523D01*
X13281819Y-24391857D02*
X12805628Y-24725190D01*
X13281819Y-24963285D02*
X12281819Y-24963285D01*
X12281819Y-24963285D02*
X12281819Y-24582333D01*
X12281819Y-24582333D02*
X12329438Y-24487095D01*
X12329438Y-24487095D02*
X12377057Y-24439476D01*
X12377057Y-24439476D02*
X12472295Y-24391857D01*
X12472295Y-24391857D02*
X12615152Y-24391857D01*
X12615152Y-24391857D02*
X12710390Y-24439476D01*
X12710390Y-24439476D02*
X12758009Y-24487095D01*
X12758009Y-24487095D02*
X12805628Y-24582333D01*
X12805628Y-24582333D02*
X12805628Y-24963285D01*
X13281819Y-23439476D02*
X13281819Y-24010904D01*
X13281819Y-23725190D02*
X12281819Y-23725190D01*
X12281819Y-23725190D02*
X12424676Y-23820428D01*
X12424676Y-23820428D02*
X12519914Y-23915666D01*
X12519914Y-23915666D02*
X12567533Y-24010904D01*
X12281819Y-23106142D02*
X12281819Y-22487095D01*
X12281819Y-22487095D02*
X12662771Y-22820428D01*
X12662771Y-22820428D02*
X12662771Y-22677571D01*
X12662771Y-22677571D02*
X12710390Y-22582333D01*
X12710390Y-22582333D02*
X12758009Y-22534714D01*
X12758009Y-22534714D02*
X12853247Y-22487095D01*
X12853247Y-22487095D02*
X13091342Y-22487095D01*
X13091342Y-22487095D02*
X13186580Y-22534714D01*
X13186580Y-22534714D02*
X13234200Y-22582333D01*
X13234200Y-22582333D02*
X13281819Y-22677571D01*
X13281819Y-22677571D02*
X13281819Y-22963285D01*
X13281819Y-22963285D02*
X13234200Y-23058523D01*
X13234200Y-23058523D02*
X13186580Y-23106142D01*
X4625180Y-2286095D02*
X5625180Y-2286095D01*
X5625180Y-2286095D02*
X5625180Y-2524190D01*
X5625180Y-2524190D02*
X5577561Y-2667047D01*
X5577561Y-2667047D02*
X5482323Y-2762285D01*
X5482323Y-2762285D02*
X5387085Y-2809904D01*
X5387085Y-2809904D02*
X5196609Y-2857523D01*
X5196609Y-2857523D02*
X5053752Y-2857523D01*
X5053752Y-2857523D02*
X4863276Y-2809904D01*
X4863276Y-2809904D02*
X4768038Y-2762285D01*
X4768038Y-2762285D02*
X4672800Y-2667047D01*
X4672800Y-2667047D02*
X4625180Y-2524190D01*
X4625180Y-2524190D02*
X4625180Y-2286095D01*
X4625180Y-3286095D02*
X5625180Y-3286095D01*
X5625180Y-3286095D02*
X5625180Y-3667047D01*
X5625180Y-3667047D02*
X5577561Y-3762285D01*
X5577561Y-3762285D02*
X5529942Y-3809904D01*
X5529942Y-3809904D02*
X5434704Y-3857523D01*
X5434704Y-3857523D02*
X5291847Y-3857523D01*
X5291847Y-3857523D02*
X5196609Y-3809904D01*
X5196609Y-3809904D02*
X5148990Y-3762285D01*
X5148990Y-3762285D02*
X5101371Y-3667047D01*
X5101371Y-3667047D02*
X5101371Y-3286095D01*
X11422142Y-19404819D02*
X11088809Y-18928628D01*
X10850714Y-19404819D02*
X10850714Y-18404819D01*
X10850714Y-18404819D02*
X11231666Y-18404819D01*
X11231666Y-18404819D02*
X11326904Y-18452438D01*
X11326904Y-18452438D02*
X11374523Y-18500057D01*
X11374523Y-18500057D02*
X11422142Y-18595295D01*
X11422142Y-18595295D02*
X11422142Y-18738152D01*
X11422142Y-18738152D02*
X11374523Y-18833390D01*
X11374523Y-18833390D02*
X11326904Y-18881009D01*
X11326904Y-18881009D02*
X11231666Y-18928628D01*
X11231666Y-18928628D02*
X10850714Y-18928628D01*
X12374523Y-19404819D02*
X11803095Y-19404819D01*
X12088809Y-19404819D02*
X12088809Y-18404819D01*
X12088809Y-18404819D02*
X11993571Y-18547676D01*
X11993571Y-18547676D02*
X11898333Y-18642914D01*
X11898333Y-18642914D02*
X11803095Y-18690533D01*
X13326904Y-19404819D02*
X12755476Y-19404819D01*
X13041190Y-19404819D02*
X13041190Y-18404819D01*
X13041190Y-18404819D02*
X12945952Y-18547676D01*
X12945952Y-18547676D02*
X12850714Y-18642914D01*
X12850714Y-18642914D02*
X12755476Y-18690533D01*
X3294142Y-33792438D02*
X3198904Y-33744819D01*
X3198904Y-33744819D02*
X3056047Y-33744819D01*
X3056047Y-33744819D02*
X2913190Y-33792438D01*
X2913190Y-33792438D02*
X2817952Y-33887676D01*
X2817952Y-33887676D02*
X2770333Y-33982914D01*
X2770333Y-33982914D02*
X2722714Y-34173390D01*
X2722714Y-34173390D02*
X2722714Y-34316247D01*
X2722714Y-34316247D02*
X2770333Y-34506723D01*
X2770333Y-34506723D02*
X2817952Y-34601961D01*
X2817952Y-34601961D02*
X2913190Y-34697200D01*
X2913190Y-34697200D02*
X3056047Y-34744819D01*
X3056047Y-34744819D02*
X3151285Y-34744819D01*
X3151285Y-34744819D02*
X3294142Y-34697200D01*
X3294142Y-34697200D02*
X3341761Y-34649580D01*
X3341761Y-34649580D02*
X3341761Y-34316247D01*
X3341761Y-34316247D02*
X3151285Y-34316247D01*
X3770333Y-34078152D02*
X3770333Y-34744819D01*
X3770333Y-34173390D02*
X3817952Y-34125771D01*
X3817952Y-34125771D02*
X3913190Y-34078152D01*
X3913190Y-34078152D02*
X4056047Y-34078152D01*
X4056047Y-34078152D02*
X4151285Y-34125771D01*
X4151285Y-34125771D02*
X4198904Y-34221009D01*
X4198904Y-34221009D02*
X4198904Y-34744819D01*
X5103666Y-34744819D02*
X5103666Y-33744819D01*
X5103666Y-34697200D02*
X5008428Y-34744819D01*
X5008428Y-34744819D02*
X4817952Y-34744819D01*
X4817952Y-34744819D02*
X4722714Y-34697200D01*
X4722714Y-34697200D02*
X4675095Y-34649580D01*
X4675095Y-34649580D02*
X4627476Y-34554342D01*
X4627476Y-34554342D02*
X4627476Y-34268628D01*
X4627476Y-34268628D02*
X4675095Y-34173390D01*
X4675095Y-34173390D02*
X4722714Y-34125771D01*
X4722714Y-34125771D02*
X4817952Y-34078152D01*
X4817952Y-34078152D02*
X5008428Y-34078152D01*
X5008428Y-34078152D02*
X5103666Y-34125771D01*
X22690895Y-3063905D02*
X22690895Y-3540095D01*
X22405180Y-2968667D02*
X23405180Y-3302000D01*
X23405180Y-3302000D02*
X22405180Y-3635333D01*
X11154580Y-31916666D02*
X11202200Y-31964285D01*
X11202200Y-31964285D02*
X11249819Y-32107142D01*
X11249819Y-32107142D02*
X11249819Y-32202380D01*
X11249819Y-32202380D02*
X11202200Y-32345237D01*
X11202200Y-32345237D02*
X11106961Y-32440475D01*
X11106961Y-32440475D02*
X11011723Y-32488094D01*
X11011723Y-32488094D02*
X10821247Y-32535713D01*
X10821247Y-32535713D02*
X10678390Y-32535713D01*
X10678390Y-32535713D02*
X10487914Y-32488094D01*
X10487914Y-32488094D02*
X10392676Y-32440475D01*
X10392676Y-32440475D02*
X10297438Y-32345237D01*
X10297438Y-32345237D02*
X10249819Y-32202380D01*
X10249819Y-32202380D02*
X10249819Y-32107142D01*
X10249819Y-32107142D02*
X10297438Y-31964285D01*
X10297438Y-31964285D02*
X10345057Y-31916666D01*
X10583152Y-31059523D02*
X11249819Y-31059523D01*
X10202200Y-31297618D02*
X10916485Y-31535713D01*
X10916485Y-31535713D02*
X10916485Y-30916666D01*
X20388990Y-3373428D02*
X20341371Y-3516285D01*
X20341371Y-3516285D02*
X20293752Y-3563904D01*
X20293752Y-3563904D02*
X20198514Y-3611523D01*
X20198514Y-3611523D02*
X20055657Y-3611523D01*
X20055657Y-3611523D02*
X19960419Y-3563904D01*
X19960419Y-3563904D02*
X19912800Y-3516285D01*
X19912800Y-3516285D02*
X19865180Y-3421047D01*
X19865180Y-3421047D02*
X19865180Y-3040095D01*
X19865180Y-3040095D02*
X20865180Y-3040095D01*
X20865180Y-3040095D02*
X20865180Y-3373428D01*
X20865180Y-3373428D02*
X20817561Y-3468666D01*
X20817561Y-3468666D02*
X20769942Y-3516285D01*
X20769942Y-3516285D02*
X20674704Y-3563904D01*
X20674704Y-3563904D02*
X20579466Y-3563904D01*
X20579466Y-3563904D02*
X20484228Y-3516285D01*
X20484228Y-3516285D02*
X20436609Y-3468666D01*
X20436609Y-3468666D02*
X20388990Y-3373428D01*
X20388990Y-3373428D02*
X20388990Y-3040095D01*
X7947819Y-13019166D02*
X7471628Y-13352499D01*
X7947819Y-13590594D02*
X6947819Y-13590594D01*
X6947819Y-13590594D02*
X6947819Y-13209642D01*
X6947819Y-13209642D02*
X6995438Y-13114404D01*
X6995438Y-13114404D02*
X7043057Y-13066785D01*
X7043057Y-13066785D02*
X7138295Y-13019166D01*
X7138295Y-13019166D02*
X7281152Y-13019166D01*
X7281152Y-13019166D02*
X7376390Y-13066785D01*
X7376390Y-13066785D02*
X7424009Y-13114404D01*
X7424009Y-13114404D02*
X7471628Y-13209642D01*
X7471628Y-13209642D02*
X7471628Y-13590594D01*
X6947819Y-12685832D02*
X6947819Y-12019166D01*
X6947819Y-12019166D02*
X7947819Y-12447737D01*
X26108819Y-12485666D02*
X25632628Y-12818999D01*
X26108819Y-13057094D02*
X25108819Y-13057094D01*
X25108819Y-13057094D02*
X25108819Y-12676142D01*
X25108819Y-12676142D02*
X25156438Y-12580904D01*
X25156438Y-12580904D02*
X25204057Y-12533285D01*
X25204057Y-12533285D02*
X25299295Y-12485666D01*
X25299295Y-12485666D02*
X25442152Y-12485666D01*
X25442152Y-12485666D02*
X25537390Y-12533285D01*
X25537390Y-12533285D02*
X25585009Y-12580904D01*
X25585009Y-12580904D02*
X25632628Y-12676142D01*
X25632628Y-12676142D02*
X25632628Y-13057094D01*
X26108819Y-12009475D02*
X26108819Y-11818999D01*
X26108819Y-11818999D02*
X26061200Y-11723761D01*
X26061200Y-11723761D02*
X26013580Y-11676142D01*
X26013580Y-11676142D02*
X25870723Y-11580904D01*
X25870723Y-11580904D02*
X25680247Y-11533285D01*
X25680247Y-11533285D02*
X25299295Y-11533285D01*
X25299295Y-11533285D02*
X25204057Y-11580904D01*
X25204057Y-11580904D02*
X25156438Y-11628523D01*
X25156438Y-11628523D02*
X25108819Y-11723761D01*
X25108819Y-11723761D02*
X25108819Y-11914237D01*
X25108819Y-11914237D02*
X25156438Y-12009475D01*
X25156438Y-12009475D02*
X25204057Y-12057094D01*
X25204057Y-12057094D02*
X25299295Y-12104713D01*
X25299295Y-12104713D02*
X25537390Y-12104713D01*
X25537390Y-12104713D02*
X25632628Y-12057094D01*
X25632628Y-12057094D02*
X25680247Y-12009475D01*
X25680247Y-12009475D02*
X25727866Y-11914237D01*
X25727866Y-11914237D02*
X25727866Y-11723761D01*
X25727866Y-11723761D02*
X25680247Y-11628523D01*
X25680247Y-11628523D02*
X25632628Y-11580904D01*
X25632628Y-11580904D02*
X25537390Y-11533285D01*
X25781095Y-34887819D02*
X25781095Y-35697342D01*
X25781095Y-35697342D02*
X25828714Y-35792580D01*
X25828714Y-35792580D02*
X25876333Y-35840200D01*
X25876333Y-35840200D02*
X25971571Y-35887819D01*
X25971571Y-35887819D02*
X26162047Y-35887819D01*
X26162047Y-35887819D02*
X26257285Y-35840200D01*
X26257285Y-35840200D02*
X26304904Y-35792580D01*
X26304904Y-35792580D02*
X26352523Y-35697342D01*
X26352523Y-35697342D02*
X26352523Y-34887819D01*
X27257285Y-35221152D02*
X27257285Y-35887819D01*
X27019190Y-34840200D02*
X26781095Y-35554485D01*
X26781095Y-35554485D02*
X27400142Y-35554485D01*
X13390057Y-5810238D02*
X13342438Y-5905476D01*
X13342438Y-5905476D02*
X13247200Y-6000714D01*
X13247200Y-6000714D02*
X13104342Y-6143571D01*
X13104342Y-6143571D02*
X13056723Y-6238809D01*
X13056723Y-6238809D02*
X13056723Y-6334047D01*
X13294819Y-6286428D02*
X13247200Y-6381666D01*
X13247200Y-6381666D02*
X13151961Y-6476904D01*
X13151961Y-6476904D02*
X12961485Y-6524523D01*
X12961485Y-6524523D02*
X12628152Y-6524523D01*
X12628152Y-6524523D02*
X12437676Y-6476904D01*
X12437676Y-6476904D02*
X12342438Y-6381666D01*
X12342438Y-6381666D02*
X12294819Y-6286428D01*
X12294819Y-6286428D02*
X12294819Y-6095952D01*
X12294819Y-6095952D02*
X12342438Y-6000714D01*
X12342438Y-6000714D02*
X12437676Y-5905476D01*
X12437676Y-5905476D02*
X12628152Y-5857857D01*
X12628152Y-5857857D02*
X12961485Y-5857857D01*
X12961485Y-5857857D02*
X13151961Y-5905476D01*
X13151961Y-5905476D02*
X13247200Y-6000714D01*
X13247200Y-6000714D02*
X13294819Y-6095952D01*
X13294819Y-6095952D02*
X13294819Y-6286428D01*
X12294819Y-5000714D02*
X12294819Y-5191190D01*
X12294819Y-5191190D02*
X12342438Y-5286428D01*
X12342438Y-5286428D02*
X12390057Y-5334047D01*
X12390057Y-5334047D02*
X12532914Y-5429285D01*
X12532914Y-5429285D02*
X12723390Y-5476904D01*
X12723390Y-5476904D02*
X13104342Y-5476904D01*
X13104342Y-5476904D02*
X13199580Y-5429285D01*
X13199580Y-5429285D02*
X13247200Y-5381666D01*
X13247200Y-5381666D02*
X13294819Y-5286428D01*
X13294819Y-5286428D02*
X13294819Y-5095952D01*
X13294819Y-5095952D02*
X13247200Y-5000714D01*
X13247200Y-5000714D02*
X13199580Y-4953095D01*
X13199580Y-4953095D02*
X13104342Y-4905476D01*
X13104342Y-4905476D02*
X12866247Y-4905476D01*
X12866247Y-4905476D02*
X12771009Y-4953095D01*
X12771009Y-4953095D02*
X12723390Y-5000714D01*
X12723390Y-5000714D02*
X12675771Y-5095952D01*
X12675771Y-5095952D02*
X12675771Y-5286428D01*
X12675771Y-5286428D02*
X12723390Y-5381666D01*
X12723390Y-5381666D02*
X12771009Y-5429285D01*
X12771009Y-5429285D02*
X12866247Y-5476904D01*
X6889761Y-16933057D02*
X6794523Y-16885438D01*
X6794523Y-16885438D02*
X6699285Y-16790200D01*
X6699285Y-16790200D02*
X6556428Y-16647342D01*
X6556428Y-16647342D02*
X6461190Y-16599723D01*
X6461190Y-16599723D02*
X6365952Y-16599723D01*
X6413571Y-16837819D02*
X6318333Y-16790200D01*
X6318333Y-16790200D02*
X6223095Y-16694961D01*
X6223095Y-16694961D02*
X6175476Y-16504485D01*
X6175476Y-16504485D02*
X6175476Y-16171152D01*
X6175476Y-16171152D02*
X6223095Y-15980676D01*
X6223095Y-15980676D02*
X6318333Y-15885438D01*
X6318333Y-15885438D02*
X6413571Y-15837819D01*
X6413571Y-15837819D02*
X6604047Y-15837819D01*
X6604047Y-15837819D02*
X6699285Y-15885438D01*
X6699285Y-15885438D02*
X6794523Y-15980676D01*
X6794523Y-15980676D02*
X6842142Y-16171152D01*
X6842142Y-16171152D02*
X6842142Y-16504485D01*
X6842142Y-16504485D02*
X6794523Y-16694961D01*
X6794523Y-16694961D02*
X6699285Y-16790200D01*
X6699285Y-16790200D02*
X6604047Y-16837819D01*
X6604047Y-16837819D02*
X6413571Y-16837819D01*
X7794523Y-16837819D02*
X7223095Y-16837819D01*
X7508809Y-16837819D02*
X7508809Y-15837819D01*
X7508809Y-15837819D02*
X7413571Y-15980676D01*
X7413571Y-15980676D02*
X7318333Y-16075914D01*
X7318333Y-16075914D02*
X7223095Y-16123533D01*
X8117561Y-3563904D02*
X8165180Y-3468666D01*
X8165180Y-3468666D02*
X8165180Y-3325809D01*
X8165180Y-3325809D02*
X8117561Y-3182952D01*
X8117561Y-3182952D02*
X8022323Y-3087714D01*
X8022323Y-3087714D02*
X7927085Y-3040095D01*
X7927085Y-3040095D02*
X7736609Y-2992476D01*
X7736609Y-2992476D02*
X7593752Y-2992476D01*
X7593752Y-2992476D02*
X7403276Y-3040095D01*
X7403276Y-3040095D02*
X7308038Y-3087714D01*
X7308038Y-3087714D02*
X7212800Y-3182952D01*
X7212800Y-3182952D02*
X7165180Y-3325809D01*
X7165180Y-3325809D02*
X7165180Y-3421047D01*
X7165180Y-3421047D02*
X7212800Y-3563904D01*
X7212800Y-3563904D02*
X7260419Y-3611523D01*
X7260419Y-3611523D02*
X7593752Y-3611523D01*
X7593752Y-3611523D02*
X7593752Y-3421047D01*
X14524819Y-13019166D02*
X14048628Y-13352499D01*
X14524819Y-13590594D02*
X13524819Y-13590594D01*
X13524819Y-13590594D02*
X13524819Y-13209642D01*
X13524819Y-13209642D02*
X13572438Y-13114404D01*
X13572438Y-13114404D02*
X13620057Y-13066785D01*
X13620057Y-13066785D02*
X13715295Y-13019166D01*
X13715295Y-13019166D02*
X13858152Y-13019166D01*
X13858152Y-13019166D02*
X13953390Y-13066785D01*
X13953390Y-13066785D02*
X14001009Y-13114404D01*
X14001009Y-13114404D02*
X14048628Y-13209642D01*
X14048628Y-13209642D02*
X14048628Y-13590594D01*
X13858152Y-12162023D02*
X14524819Y-12162023D01*
X13477200Y-12400118D02*
X14191485Y-12638213D01*
X14191485Y-12638213D02*
X14191485Y-12019166D01*
X1087571Y-8122509D02*
X754238Y-8122509D01*
X754238Y-8646319D02*
X754238Y-7646319D01*
X754238Y-7646319D02*
X1230428Y-7646319D01*
X1611381Y-8646319D02*
X1611381Y-7646319D01*
X2087571Y-8646319D02*
X2087571Y-7646319D01*
X2087571Y-7646319D02*
X2325666Y-7646319D01*
X2325666Y-7646319D02*
X2468523Y-7693938D01*
X2468523Y-7693938D02*
X2563761Y-7789176D01*
X2563761Y-7789176D02*
X2611380Y-7884414D01*
X2611380Y-7884414D02*
X2658999Y-8074890D01*
X2658999Y-8074890D02*
X2658999Y-8217747D01*
X2658999Y-8217747D02*
X2611380Y-8408223D01*
X2611380Y-8408223D02*
X2563761Y-8503461D01*
X2563761Y-8503461D02*
X2468523Y-8598700D01*
X2468523Y-8598700D02*
X2325666Y-8646319D01*
X2325666Y-8646319D02*
X2087571Y-8646319D01*
X3611380Y-8646319D02*
X3039952Y-8646319D01*
X3325666Y-8646319D02*
X3325666Y-7646319D01*
X3325666Y-7646319D02*
X3230428Y-7789176D01*
X3230428Y-7789176D02*
X3135190Y-7884414D01*
X3135190Y-7884414D02*
X3039952Y-7932033D01*
X3079714Y-19504819D02*
X2508286Y-19504819D01*
X2794000Y-19504819D02*
X2794000Y-18504819D01*
X2794000Y-18504819D02*
X2698762Y-18647676D01*
X2698762Y-18647676D02*
X2603524Y-18742914D01*
X2603524Y-18742914D02*
X2508286Y-18790533D01*
X2508286Y-21140057D02*
X2555905Y-21092438D01*
X2555905Y-21092438D02*
X2651143Y-21044819D01*
X2651143Y-21044819D02*
X2889238Y-21044819D01*
X2889238Y-21044819D02*
X2984476Y-21092438D01*
X2984476Y-21092438D02*
X3032095Y-21140057D01*
X3032095Y-21140057D02*
X3079714Y-21235295D01*
X3079714Y-21235295D02*
X3079714Y-21330533D01*
X3079714Y-21330533D02*
X3032095Y-21473390D01*
X3032095Y-21473390D02*
X2460667Y-22044819D01*
X2460667Y-22044819D02*
X3079714Y-22044819D01*
X21010057Y-9952738D02*
X20962438Y-10047976D01*
X20962438Y-10047976D02*
X20867200Y-10143214D01*
X20867200Y-10143214D02*
X20724342Y-10286071D01*
X20724342Y-10286071D02*
X20676723Y-10381309D01*
X20676723Y-10381309D02*
X20676723Y-10476547D01*
X20914819Y-10428928D02*
X20867200Y-10524166D01*
X20867200Y-10524166D02*
X20771961Y-10619404D01*
X20771961Y-10619404D02*
X20581485Y-10667023D01*
X20581485Y-10667023D02*
X20248152Y-10667023D01*
X20248152Y-10667023D02*
X20057676Y-10619404D01*
X20057676Y-10619404D02*
X19962438Y-10524166D01*
X19962438Y-10524166D02*
X19914819Y-10428928D01*
X19914819Y-10428928D02*
X19914819Y-10238452D01*
X19914819Y-10238452D02*
X19962438Y-10143214D01*
X19962438Y-10143214D02*
X20057676Y-10047976D01*
X20057676Y-10047976D02*
X20248152Y-10000357D01*
X20248152Y-10000357D02*
X20581485Y-10000357D01*
X20581485Y-10000357D02*
X20771961Y-10047976D01*
X20771961Y-10047976D02*
X20867200Y-10143214D01*
X20867200Y-10143214D02*
X20914819Y-10238452D01*
X20914819Y-10238452D02*
X20914819Y-10428928D01*
X19914819Y-9667023D02*
X19914819Y-9047976D01*
X19914819Y-9047976D02*
X20295771Y-9381309D01*
X20295771Y-9381309D02*
X20295771Y-9238452D01*
X20295771Y-9238452D02*
X20343390Y-9143214D01*
X20343390Y-9143214D02*
X20391009Y-9095595D01*
X20391009Y-9095595D02*
X20486247Y-9047976D01*
X20486247Y-9047976D02*
X20724342Y-9047976D01*
X20724342Y-9047976D02*
X20819580Y-9095595D01*
X20819580Y-9095595D02*
X20867200Y-9143214D01*
X20867200Y-9143214D02*
X20914819Y-9238452D01*
X20914819Y-9238452D02*
X20914819Y-9524166D01*
X20914819Y-9524166D02*
X20867200Y-9619404D01*
X20867200Y-9619404D02*
X20819580Y-9667023D01*
X8310057Y-5810238D02*
X8262438Y-5905476D01*
X8262438Y-5905476D02*
X8167200Y-6000714D01*
X8167200Y-6000714D02*
X8024342Y-6143571D01*
X8024342Y-6143571D02*
X7976723Y-6238809D01*
X7976723Y-6238809D02*
X7976723Y-6334047D01*
X8214819Y-6286428D02*
X8167200Y-6381666D01*
X8167200Y-6381666D02*
X8071961Y-6476904D01*
X8071961Y-6476904D02*
X7881485Y-6524523D01*
X7881485Y-6524523D02*
X7548152Y-6524523D01*
X7548152Y-6524523D02*
X7357676Y-6476904D01*
X7357676Y-6476904D02*
X7262438Y-6381666D01*
X7262438Y-6381666D02*
X7214819Y-6286428D01*
X7214819Y-6286428D02*
X7214819Y-6095952D01*
X7214819Y-6095952D02*
X7262438Y-6000714D01*
X7262438Y-6000714D02*
X7357676Y-5905476D01*
X7357676Y-5905476D02*
X7548152Y-5857857D01*
X7548152Y-5857857D02*
X7881485Y-5857857D01*
X7881485Y-5857857D02*
X8071961Y-5905476D01*
X8071961Y-5905476D02*
X8167200Y-6000714D01*
X8167200Y-6000714D02*
X8214819Y-6095952D01*
X8214819Y-6095952D02*
X8214819Y-6286428D01*
X7643390Y-5286428D02*
X7595771Y-5381666D01*
X7595771Y-5381666D02*
X7548152Y-5429285D01*
X7548152Y-5429285D02*
X7452914Y-5476904D01*
X7452914Y-5476904D02*
X7405295Y-5476904D01*
X7405295Y-5476904D02*
X7310057Y-5429285D01*
X7310057Y-5429285D02*
X7262438Y-5381666D01*
X7262438Y-5381666D02*
X7214819Y-5286428D01*
X7214819Y-5286428D02*
X7214819Y-5095952D01*
X7214819Y-5095952D02*
X7262438Y-5000714D01*
X7262438Y-5000714D02*
X7310057Y-4953095D01*
X7310057Y-4953095D02*
X7405295Y-4905476D01*
X7405295Y-4905476D02*
X7452914Y-4905476D01*
X7452914Y-4905476D02*
X7548152Y-4953095D01*
X7548152Y-4953095D02*
X7595771Y-5000714D01*
X7595771Y-5000714D02*
X7643390Y-5095952D01*
X7643390Y-5095952D02*
X7643390Y-5286428D01*
X7643390Y-5286428D02*
X7691009Y-5381666D01*
X7691009Y-5381666D02*
X7738628Y-5429285D01*
X7738628Y-5429285D02*
X7833866Y-5476904D01*
X7833866Y-5476904D02*
X8024342Y-5476904D01*
X8024342Y-5476904D02*
X8119580Y-5429285D01*
X8119580Y-5429285D02*
X8167200Y-5381666D01*
X8167200Y-5381666D02*
X8214819Y-5286428D01*
X8214819Y-5286428D02*
X8214819Y-5095952D01*
X8214819Y-5095952D02*
X8167200Y-5000714D01*
X8167200Y-5000714D02*
X8119580Y-4953095D01*
X8119580Y-4953095D02*
X8024342Y-4905476D01*
X8024342Y-4905476D02*
X7833866Y-4905476D01*
X7833866Y-4905476D02*
X7738628Y-4953095D01*
X7738628Y-4953095D02*
X7691009Y-5000714D01*
X7691009Y-5000714D02*
X7643390Y-5095952D01*
X33424905Y-15948819D02*
X33424905Y-14948819D01*
X33424905Y-14948819D02*
X33663000Y-14948819D01*
X33663000Y-14948819D02*
X33805857Y-14996438D01*
X33805857Y-14996438D02*
X33901095Y-15091676D01*
X33901095Y-15091676D02*
X33948714Y-15186914D01*
X33948714Y-15186914D02*
X33996333Y-15377390D01*
X33996333Y-15377390D02*
X33996333Y-15520247D01*
X33996333Y-15520247D02*
X33948714Y-15710723D01*
X33948714Y-15710723D02*
X33901095Y-15805961D01*
X33901095Y-15805961D02*
X33805857Y-15901200D01*
X33805857Y-15901200D02*
X33663000Y-15948819D01*
X33663000Y-15948819D02*
X33424905Y-15948819D01*
X34377286Y-15044057D02*
X34424905Y-14996438D01*
X34424905Y-14996438D02*
X34520143Y-14948819D01*
X34520143Y-14948819D02*
X34758238Y-14948819D01*
X34758238Y-14948819D02*
X34853476Y-14996438D01*
X34853476Y-14996438D02*
X34901095Y-15044057D01*
X34901095Y-15044057D02*
X34948714Y-15139295D01*
X34948714Y-15139295D02*
X34948714Y-15234533D01*
X34948714Y-15234533D02*
X34901095Y-15377390D01*
X34901095Y-15377390D02*
X34329667Y-15948819D01*
X34329667Y-15948819D02*
X34948714Y-15948819D01*
X13027819Y-13019166D02*
X12551628Y-13352499D01*
X13027819Y-13590594D02*
X12027819Y-13590594D01*
X12027819Y-13590594D02*
X12027819Y-13209642D01*
X12027819Y-13209642D02*
X12075438Y-13114404D01*
X12075438Y-13114404D02*
X12123057Y-13066785D01*
X12123057Y-13066785D02*
X12218295Y-13019166D01*
X12218295Y-13019166D02*
X12361152Y-13019166D01*
X12361152Y-13019166D02*
X12456390Y-13066785D01*
X12456390Y-13066785D02*
X12504009Y-13114404D01*
X12504009Y-13114404D02*
X12551628Y-13209642D01*
X12551628Y-13209642D02*
X12551628Y-13590594D01*
X12027819Y-12114404D02*
X12027819Y-12590594D01*
X12027819Y-12590594D02*
X12504009Y-12638213D01*
X12504009Y-12638213D02*
X12456390Y-12590594D01*
X12456390Y-12590594D02*
X12408771Y-12495356D01*
X12408771Y-12495356D02*
X12408771Y-12257261D01*
X12408771Y-12257261D02*
X12456390Y-12162023D01*
X12456390Y-12162023D02*
X12504009Y-12114404D01*
X12504009Y-12114404D02*
X12599247Y-12066785D01*
X12599247Y-12066785D02*
X12837342Y-12066785D01*
X12837342Y-12066785D02*
X12932580Y-12114404D01*
X12932580Y-12114404D02*
X12980200Y-12162023D01*
X12980200Y-12162023D02*
X13027819Y-12257261D01*
X13027819Y-12257261D02*
X13027819Y-12495356D01*
X13027819Y-12495356D02*
X12980200Y-12590594D01*
X12980200Y-12590594D02*
X12932580Y-12638213D01*
X11646819Y-34924904D02*
X12456342Y-34924904D01*
X12456342Y-34924904D02*
X12551580Y-34877285D01*
X12551580Y-34877285D02*
X12599200Y-34829666D01*
X12599200Y-34829666D02*
X12646819Y-34734428D01*
X12646819Y-34734428D02*
X12646819Y-34543952D01*
X12646819Y-34543952D02*
X12599200Y-34448714D01*
X12599200Y-34448714D02*
X12551580Y-34401095D01*
X12551580Y-34401095D02*
X12456342Y-34353476D01*
X12456342Y-34353476D02*
X11646819Y-34353476D01*
X11742057Y-33924904D02*
X11694438Y-33877285D01*
X11694438Y-33877285D02*
X11646819Y-33782047D01*
X11646819Y-33782047D02*
X11646819Y-33543952D01*
X11646819Y-33543952D02*
X11694438Y-33448714D01*
X11694438Y-33448714D02*
X11742057Y-33401095D01*
X11742057Y-33401095D02*
X11837295Y-33353476D01*
X11837295Y-33353476D02*
X11932533Y-33353476D01*
X11932533Y-33353476D02*
X12075390Y-33401095D01*
X12075390Y-33401095D02*
X12646819Y-33972523D01*
X12646819Y-33972523D02*
X12646819Y-33353476D01*
X18107819Y-13019166D02*
X17631628Y-13352499D01*
X18107819Y-13590594D02*
X17107819Y-13590594D01*
X17107819Y-13590594D02*
X17107819Y-13209642D01*
X17107819Y-13209642D02*
X17155438Y-13114404D01*
X17155438Y-13114404D02*
X17203057Y-13066785D01*
X17203057Y-13066785D02*
X17298295Y-13019166D01*
X17298295Y-13019166D02*
X17441152Y-13019166D01*
X17441152Y-13019166D02*
X17536390Y-13066785D01*
X17536390Y-13066785D02*
X17584009Y-13114404D01*
X17584009Y-13114404D02*
X17631628Y-13209642D01*
X17631628Y-13209642D02*
X17631628Y-13590594D01*
X17107819Y-12685832D02*
X17107819Y-12066785D01*
X17107819Y-12066785D02*
X17488771Y-12400118D01*
X17488771Y-12400118D02*
X17488771Y-12257261D01*
X17488771Y-12257261D02*
X17536390Y-12162023D01*
X17536390Y-12162023D02*
X17584009Y-12114404D01*
X17584009Y-12114404D02*
X17679247Y-12066785D01*
X17679247Y-12066785D02*
X17917342Y-12066785D01*
X17917342Y-12066785D02*
X18012580Y-12114404D01*
X18012580Y-12114404D02*
X18060200Y-12162023D01*
X18060200Y-12162023D02*
X18107819Y-12257261D01*
X18107819Y-12257261D02*
X18107819Y-12542975D01*
X18107819Y-12542975D02*
X18060200Y-12638213D01*
X18060200Y-12638213D02*
X18012580Y-12685832D01*
X12768990Y-3087714D02*
X12768990Y-3421047D01*
X12245180Y-3563904D02*
X12245180Y-3087714D01*
X12245180Y-3087714D02*
X13245180Y-3087714D01*
X13245180Y-3087714D02*
X13245180Y-3563904D01*
X28194095Y-15202819D02*
X28194095Y-16012342D01*
X28194095Y-16012342D02*
X28241714Y-16107580D01*
X28241714Y-16107580D02*
X28289333Y-16155200D01*
X28289333Y-16155200D02*
X28384571Y-16202819D01*
X28384571Y-16202819D02*
X28575047Y-16202819D01*
X28575047Y-16202819D02*
X28670285Y-16155200D01*
X28670285Y-16155200D02*
X28717904Y-16107580D01*
X28717904Y-16107580D02*
X28765523Y-16012342D01*
X28765523Y-16012342D02*
X28765523Y-15202819D01*
X29765523Y-16202819D02*
X29194095Y-16202819D01*
X29479809Y-16202819D02*
X29479809Y-15202819D01*
X29479809Y-15202819D02*
X29384571Y-15345676D01*
X29384571Y-15345676D02*
X29289333Y-15440914D01*
X29289333Y-15440914D02*
X29194095Y-15488533D01*
X10850057Y-9952738D02*
X10802438Y-10047976D01*
X10802438Y-10047976D02*
X10707200Y-10143214D01*
X10707200Y-10143214D02*
X10564342Y-10286071D01*
X10564342Y-10286071D02*
X10516723Y-10381309D01*
X10516723Y-10381309D02*
X10516723Y-10476547D01*
X10754819Y-10428928D02*
X10707200Y-10524166D01*
X10707200Y-10524166D02*
X10611961Y-10619404D01*
X10611961Y-10619404D02*
X10421485Y-10667023D01*
X10421485Y-10667023D02*
X10088152Y-10667023D01*
X10088152Y-10667023D02*
X9897676Y-10619404D01*
X9897676Y-10619404D02*
X9802438Y-10524166D01*
X9802438Y-10524166D02*
X9754819Y-10428928D01*
X9754819Y-10428928D02*
X9754819Y-10238452D01*
X9754819Y-10238452D02*
X9802438Y-10143214D01*
X9802438Y-10143214D02*
X9897676Y-10047976D01*
X9897676Y-10047976D02*
X10088152Y-10000357D01*
X10088152Y-10000357D02*
X10421485Y-10000357D01*
X10421485Y-10000357D02*
X10611961Y-10047976D01*
X10611961Y-10047976D02*
X10707200Y-10143214D01*
X10707200Y-10143214D02*
X10754819Y-10238452D01*
X10754819Y-10238452D02*
X10754819Y-10428928D01*
X9754819Y-9667023D02*
X9754819Y-9000357D01*
X9754819Y-9000357D02*
X10754819Y-9428928D01*
X9444819Y-13019166D02*
X8968628Y-13352499D01*
X9444819Y-13590594D02*
X8444819Y-13590594D01*
X8444819Y-13590594D02*
X8444819Y-13209642D01*
X8444819Y-13209642D02*
X8492438Y-13114404D01*
X8492438Y-13114404D02*
X8540057Y-13066785D01*
X8540057Y-13066785D02*
X8635295Y-13019166D01*
X8635295Y-13019166D02*
X8778152Y-13019166D01*
X8778152Y-13019166D02*
X8873390Y-13066785D01*
X8873390Y-13066785D02*
X8921009Y-13114404D01*
X8921009Y-13114404D02*
X8968628Y-13209642D01*
X8968628Y-13209642D02*
X8968628Y-13590594D01*
X8444819Y-12162023D02*
X8444819Y-12352499D01*
X8444819Y-12352499D02*
X8492438Y-12447737D01*
X8492438Y-12447737D02*
X8540057Y-12495356D01*
X8540057Y-12495356D02*
X8682914Y-12590594D01*
X8682914Y-12590594D02*
X8873390Y-12638213D01*
X8873390Y-12638213D02*
X9254342Y-12638213D01*
X9254342Y-12638213D02*
X9349580Y-12590594D01*
X9349580Y-12590594D02*
X9397200Y-12542975D01*
X9397200Y-12542975D02*
X9444819Y-12447737D01*
X9444819Y-12447737D02*
X9444819Y-12257261D01*
X9444819Y-12257261D02*
X9397200Y-12162023D01*
X9397200Y-12162023D02*
X9349580Y-12114404D01*
X9349580Y-12114404D02*
X9254342Y-12066785D01*
X9254342Y-12066785D02*
X9016247Y-12066785D01*
X9016247Y-12066785D02*
X8921009Y-12114404D01*
X8921009Y-12114404D02*
X8873390Y-12162023D01*
X8873390Y-12162023D02*
X8825771Y-12257261D01*
X8825771Y-12257261D02*
X8825771Y-12447737D01*
X8825771Y-12447737D02*
X8873390Y-12542975D01*
X8873390Y-12542975D02*
X8921009Y-12590594D01*
X8921009Y-12590594D02*
X9016247Y-12638213D01*
X35964905Y-15948819D02*
X35964905Y-14948819D01*
X35964905Y-14948819D02*
X36203000Y-14948819D01*
X36203000Y-14948819D02*
X36345857Y-14996438D01*
X36345857Y-14996438D02*
X36441095Y-15091676D01*
X36441095Y-15091676D02*
X36488714Y-15186914D01*
X36488714Y-15186914D02*
X36536333Y-15377390D01*
X36536333Y-15377390D02*
X36536333Y-15520247D01*
X36536333Y-15520247D02*
X36488714Y-15710723D01*
X36488714Y-15710723D02*
X36441095Y-15805961D01*
X36441095Y-15805961D02*
X36345857Y-15901200D01*
X36345857Y-15901200D02*
X36203000Y-15948819D01*
X36203000Y-15948819D02*
X35964905Y-15948819D01*
X37488714Y-15948819D02*
X36917286Y-15948819D01*
X37203000Y-15948819D02*
X37203000Y-14948819D01*
X37203000Y-14948819D02*
X37107762Y-15091676D01*
X37107762Y-15091676D02*
X37012524Y-15186914D01*
X37012524Y-15186914D02*
X36917286Y-15234533D01*
X32091333Y-28299580D02*
X32043714Y-28347200D01*
X32043714Y-28347200D02*
X31900857Y-28394819D01*
X31900857Y-28394819D02*
X31805619Y-28394819D01*
X31805619Y-28394819D02*
X31662762Y-28347200D01*
X31662762Y-28347200D02*
X31567524Y-28251961D01*
X31567524Y-28251961D02*
X31519905Y-28156723D01*
X31519905Y-28156723D02*
X31472286Y-27966247D01*
X31472286Y-27966247D02*
X31472286Y-27823390D01*
X31472286Y-27823390D02*
X31519905Y-27632914D01*
X31519905Y-27632914D02*
X31567524Y-27537676D01*
X31567524Y-27537676D02*
X31662762Y-27442438D01*
X31662762Y-27442438D02*
X31805619Y-27394819D01*
X31805619Y-27394819D02*
X31900857Y-27394819D01*
X31900857Y-27394819D02*
X32043714Y-27442438D01*
X32043714Y-27442438D02*
X32091333Y-27490057D01*
X32948476Y-27394819D02*
X32758000Y-27394819D01*
X32758000Y-27394819D02*
X32662762Y-27442438D01*
X32662762Y-27442438D02*
X32615143Y-27490057D01*
X32615143Y-27490057D02*
X32519905Y-27632914D01*
X32519905Y-27632914D02*
X32472286Y-27823390D01*
X32472286Y-27823390D02*
X32472286Y-28204342D01*
X32472286Y-28204342D02*
X32519905Y-28299580D01*
X32519905Y-28299580D02*
X32567524Y-28347200D01*
X32567524Y-28347200D02*
X32662762Y-28394819D01*
X32662762Y-28394819D02*
X32853238Y-28394819D01*
X32853238Y-28394819D02*
X32948476Y-28347200D01*
X32948476Y-28347200D02*
X32996095Y-28299580D01*
X32996095Y-28299580D02*
X33043714Y-28204342D01*
X33043714Y-28204342D02*
X33043714Y-27966247D01*
X33043714Y-27966247D02*
X32996095Y-27871009D01*
X32996095Y-27871009D02*
X32948476Y-27823390D01*
X32948476Y-27823390D02*
X32853238Y-27775771D01*
X32853238Y-27775771D02*
X32662762Y-27775771D01*
X32662762Y-27775771D02*
X32567524Y-27823390D01*
X32567524Y-27823390D02*
X32519905Y-27871009D01*
X32519905Y-27871009D02*
X32472286Y-27966247D01*
X2992713Y-32204819D02*
X2421285Y-32204819D01*
X2706999Y-32204819D02*
X2706999Y-31204819D01*
X2706999Y-31204819D02*
X2611761Y-31347676D01*
X2611761Y-31347676D02*
X2516523Y-31442914D01*
X2516523Y-31442914D02*
X2421285Y-31490533D01*
X3373666Y-31300057D02*
X3421285Y-31252438D01*
X3421285Y-31252438D02*
X3516523Y-31204819D01*
X3516523Y-31204819D02*
X3754618Y-31204819D01*
X3754618Y-31204819D02*
X3849856Y-31252438D01*
X3849856Y-31252438D02*
X3897475Y-31300057D01*
X3897475Y-31300057D02*
X3945094Y-31395295D01*
X3945094Y-31395295D02*
X3945094Y-31490533D01*
X3945094Y-31490533D02*
X3897475Y-31633390D01*
X3897475Y-31633390D02*
X3326047Y-32204819D01*
X3326047Y-32204819D02*
X3945094Y-32204819D01*
X4278428Y-31538152D02*
X4516523Y-32204819D01*
X4516523Y-32204819D02*
X4754618Y-31538152D01*
X6087952Y-31204819D02*
X6278428Y-31204819D01*
X6278428Y-31204819D02*
X6373666Y-31252438D01*
X6373666Y-31252438D02*
X6468904Y-31347676D01*
X6468904Y-31347676D02*
X6516523Y-31538152D01*
X6516523Y-31538152D02*
X6516523Y-31871485D01*
X6516523Y-31871485D02*
X6468904Y-32061961D01*
X6468904Y-32061961D02*
X6373666Y-32157200D01*
X6373666Y-32157200D02*
X6278428Y-32204819D01*
X6278428Y-32204819D02*
X6087952Y-32204819D01*
X6087952Y-32204819D02*
X5992714Y-32157200D01*
X5992714Y-32157200D02*
X5897476Y-32061961D01*
X5897476Y-32061961D02*
X5849857Y-31871485D01*
X5849857Y-31871485D02*
X5849857Y-31538152D01*
X5849857Y-31538152D02*
X5897476Y-31347676D01*
X5897476Y-31347676D02*
X5992714Y-31252438D01*
X5992714Y-31252438D02*
X6087952Y-31204819D01*
X7373666Y-31538152D02*
X7373666Y-32204819D01*
X6945095Y-31538152D02*
X6945095Y-32061961D01*
X6945095Y-32061961D02*
X6992714Y-32157200D01*
X6992714Y-32157200D02*
X7087952Y-32204819D01*
X7087952Y-32204819D02*
X7230809Y-32204819D01*
X7230809Y-32204819D02*
X7326047Y-32157200D01*
X7326047Y-32157200D02*
X7373666Y-32109580D01*
X7707000Y-31538152D02*
X8087952Y-31538152D01*
X7849857Y-31204819D02*
X7849857Y-32061961D01*
X7849857Y-32061961D02*
X7897476Y-32157200D01*
X7897476Y-32157200D02*
X7992714Y-32204819D01*
X7992714Y-32204819D02*
X8087952Y-32204819D01*
X15930057Y-9952738D02*
X15882438Y-10047976D01*
X15882438Y-10047976D02*
X15787200Y-10143214D01*
X15787200Y-10143214D02*
X15644342Y-10286071D01*
X15644342Y-10286071D02*
X15596723Y-10381309D01*
X15596723Y-10381309D02*
X15596723Y-10476547D01*
X15834819Y-10428928D02*
X15787200Y-10524166D01*
X15787200Y-10524166D02*
X15691961Y-10619404D01*
X15691961Y-10619404D02*
X15501485Y-10667023D01*
X15501485Y-10667023D02*
X15168152Y-10667023D01*
X15168152Y-10667023D02*
X14977676Y-10619404D01*
X14977676Y-10619404D02*
X14882438Y-10524166D01*
X14882438Y-10524166D02*
X14834819Y-10428928D01*
X14834819Y-10428928D02*
X14834819Y-10238452D01*
X14834819Y-10238452D02*
X14882438Y-10143214D01*
X14882438Y-10143214D02*
X14977676Y-10047976D01*
X14977676Y-10047976D02*
X15168152Y-10000357D01*
X15168152Y-10000357D02*
X15501485Y-10000357D01*
X15501485Y-10000357D02*
X15691961Y-10047976D01*
X15691961Y-10047976D02*
X15787200Y-10143214D01*
X15787200Y-10143214D02*
X15834819Y-10238452D01*
X15834819Y-10238452D02*
X15834819Y-10428928D01*
X14834819Y-9095595D02*
X14834819Y-9571785D01*
X14834819Y-9571785D02*
X15311009Y-9619404D01*
X15311009Y-9619404D02*
X15263390Y-9571785D01*
X15263390Y-9571785D02*
X15215771Y-9476547D01*
X15215771Y-9476547D02*
X15215771Y-9238452D01*
X15215771Y-9238452D02*
X15263390Y-9143214D01*
X15263390Y-9143214D02*
X15311009Y-9095595D01*
X15311009Y-9095595D02*
X15406247Y-9047976D01*
X15406247Y-9047976D02*
X15644342Y-9047976D01*
X15644342Y-9047976D02*
X15739580Y-9095595D01*
X15739580Y-9095595D02*
X15787200Y-9143214D01*
X15787200Y-9143214D02*
X15834819Y-9238452D01*
X15834819Y-9238452D02*
X15834819Y-9476547D01*
X15834819Y-9476547D02*
X15787200Y-9571785D01*
X15787200Y-9571785D02*
X15739580Y-9619404D01*
X19123819Y-12993666D02*
X18647628Y-13326999D01*
X19123819Y-13565094D02*
X18123819Y-13565094D01*
X18123819Y-13565094D02*
X18123819Y-13184142D01*
X18123819Y-13184142D02*
X18171438Y-13088904D01*
X18171438Y-13088904D02*
X18219057Y-13041285D01*
X18219057Y-13041285D02*
X18314295Y-12993666D01*
X18314295Y-12993666D02*
X18457152Y-12993666D01*
X18457152Y-12993666D02*
X18552390Y-13041285D01*
X18552390Y-13041285D02*
X18600009Y-13088904D01*
X18600009Y-13088904D02*
X18647628Y-13184142D01*
X18647628Y-13184142D02*
X18647628Y-13565094D01*
X18219057Y-12612713D02*
X18171438Y-12565094D01*
X18171438Y-12565094D02*
X18123819Y-12469856D01*
X18123819Y-12469856D02*
X18123819Y-12231761D01*
X18123819Y-12231761D02*
X18171438Y-12136523D01*
X18171438Y-12136523D02*
X18219057Y-12088904D01*
X18219057Y-12088904D02*
X18314295Y-12041285D01*
X18314295Y-12041285D02*
X18409533Y-12041285D01*
X18409533Y-12041285D02*
X18552390Y-12088904D01*
X18552390Y-12088904D02*
X19123819Y-12660332D01*
X19123819Y-12660332D02*
X19123819Y-12041285D01*
X18470057Y-5810238D02*
X18422438Y-5905476D01*
X18422438Y-5905476D02*
X18327200Y-6000714D01*
X18327200Y-6000714D02*
X18184342Y-6143571D01*
X18184342Y-6143571D02*
X18136723Y-6238809D01*
X18136723Y-6238809D02*
X18136723Y-6334047D01*
X18374819Y-6286428D02*
X18327200Y-6381666D01*
X18327200Y-6381666D02*
X18231961Y-6476904D01*
X18231961Y-6476904D02*
X18041485Y-6524523D01*
X18041485Y-6524523D02*
X17708152Y-6524523D01*
X17708152Y-6524523D02*
X17517676Y-6476904D01*
X17517676Y-6476904D02*
X17422438Y-6381666D01*
X17422438Y-6381666D02*
X17374819Y-6286428D01*
X17374819Y-6286428D02*
X17374819Y-6095952D01*
X17374819Y-6095952D02*
X17422438Y-6000714D01*
X17422438Y-6000714D02*
X17517676Y-5905476D01*
X17517676Y-5905476D02*
X17708152Y-5857857D01*
X17708152Y-5857857D02*
X18041485Y-5857857D01*
X18041485Y-5857857D02*
X18231961Y-5905476D01*
X18231961Y-5905476D02*
X18327200Y-6000714D01*
X18327200Y-6000714D02*
X18374819Y-6095952D01*
X18374819Y-6095952D02*
X18374819Y-6286428D01*
X17708152Y-5000714D02*
X18374819Y-5000714D01*
X17327200Y-5238809D02*
X18041485Y-5476904D01*
X18041485Y-5476904D02*
X18041485Y-4857857D01*
X21804333Y-23854580D02*
X21756714Y-23902200D01*
X21756714Y-23902200D02*
X21613857Y-23949819D01*
X21613857Y-23949819D02*
X21518619Y-23949819D01*
X21518619Y-23949819D02*
X21375762Y-23902200D01*
X21375762Y-23902200D02*
X21280524Y-23806961D01*
X21280524Y-23806961D02*
X21232905Y-23711723D01*
X21232905Y-23711723D02*
X21185286Y-23521247D01*
X21185286Y-23521247D02*
X21185286Y-23378390D01*
X21185286Y-23378390D02*
X21232905Y-23187914D01*
X21232905Y-23187914D02*
X21280524Y-23092676D01*
X21280524Y-23092676D02*
X21375762Y-22997438D01*
X21375762Y-22997438D02*
X21518619Y-22949819D01*
X21518619Y-22949819D02*
X21613857Y-22949819D01*
X21613857Y-22949819D02*
X21756714Y-22997438D01*
X21756714Y-22997438D02*
X21804333Y-23045057D01*
X22756714Y-23949819D02*
X22185286Y-23949819D01*
X22471000Y-23949819D02*
X22471000Y-22949819D01*
X22471000Y-22949819D02*
X22375762Y-23092676D01*
X22375762Y-23092676D02*
X22280524Y-23187914D01*
X22280524Y-23187914D02*
X22185286Y-23235533D01*
X28146476Y-25870819D02*
X28813142Y-26870819D01*
X28813142Y-25870819D02*
X28146476Y-26870819D01*
X29717904Y-26870819D02*
X29146476Y-26870819D01*
X29432190Y-26870819D02*
X29432190Y-25870819D01*
X29432190Y-25870819D02*
X29336952Y-26013676D01*
X29336952Y-26013676D02*
X29241714Y-26108914D01*
X29241714Y-26108914D02*
X29146476Y-26156533D01*
X26674819Y-8423938D02*
X27389104Y-8423938D01*
X27389104Y-8423938D02*
X27531961Y-8471557D01*
X27531961Y-8471557D02*
X27627200Y-8566795D01*
X27627200Y-8566795D02*
X27674819Y-8709652D01*
X27674819Y-8709652D02*
X27674819Y-8804890D01*
X27674819Y-7423938D02*
X27674819Y-7995366D01*
X27674819Y-7709652D02*
X26674819Y-7709652D01*
X26674819Y-7709652D02*
X26817676Y-7804890D01*
X26817676Y-7804890D02*
X26912914Y-7900128D01*
X26912914Y-7900128D02*
X26960533Y-7995366D01*
X26674819Y-6804890D02*
X26674819Y-6709652D01*
X26674819Y-6709652D02*
X26722438Y-6614414D01*
X26722438Y-6614414D02*
X26770057Y-6566795D01*
X26770057Y-6566795D02*
X26865295Y-6519176D01*
X26865295Y-6519176D02*
X27055771Y-6471557D01*
X27055771Y-6471557D02*
X27293866Y-6471557D01*
X27293866Y-6471557D02*
X27484342Y-6519176D01*
X27484342Y-6519176D02*
X27579580Y-6566795D01*
X27579580Y-6566795D02*
X27627200Y-6614414D01*
X27627200Y-6614414D02*
X27674819Y-6709652D01*
X27674819Y-6709652D02*
X27674819Y-6804890D01*
X27674819Y-6804890D02*
X27627200Y-6900128D01*
X27627200Y-6900128D02*
X27579580Y-6947747D01*
X27579580Y-6947747D02*
X27484342Y-6995366D01*
X27484342Y-6995366D02*
X27293866Y-7042985D01*
X27293866Y-7042985D02*
X27055771Y-7042985D01*
X27055771Y-7042985D02*
X26865295Y-6995366D01*
X26865295Y-6995366D02*
X26770057Y-6947747D01*
X26770057Y-6947747D02*
X26722438Y-6900128D01*
X26722438Y-6900128D02*
X26674819Y-6804890D01*
X10914142Y-29410819D02*
X10580809Y-28934628D01*
X10342714Y-29410819D02*
X10342714Y-28410819D01*
X10342714Y-28410819D02*
X10723666Y-28410819D01*
X10723666Y-28410819D02*
X10818904Y-28458438D01*
X10818904Y-28458438D02*
X10866523Y-28506057D01*
X10866523Y-28506057D02*
X10914142Y-28601295D01*
X10914142Y-28601295D02*
X10914142Y-28744152D01*
X10914142Y-28744152D02*
X10866523Y-28839390D01*
X10866523Y-28839390D02*
X10818904Y-28887009D01*
X10818904Y-28887009D02*
X10723666Y-28934628D01*
X10723666Y-28934628D02*
X10342714Y-28934628D01*
X11866523Y-29410819D02*
X11295095Y-29410819D01*
X11580809Y-29410819D02*
X11580809Y-28410819D01*
X11580809Y-28410819D02*
X11485571Y-28553676D01*
X11485571Y-28553676D02*
X11390333Y-28648914D01*
X11390333Y-28648914D02*
X11295095Y-28696533D01*
X12723666Y-28744152D02*
X12723666Y-29410819D01*
X12485571Y-28363200D02*
X12247476Y-29077485D01*
X12247476Y-29077485D02*
X12866523Y-29077485D01*
X31728580Y-26709666D02*
X31776200Y-26757285D01*
X31776200Y-26757285D02*
X31823819Y-26900142D01*
X31823819Y-26900142D02*
X31823819Y-26995380D01*
X31823819Y-26995380D02*
X31776200Y-27138237D01*
X31776200Y-27138237D02*
X31680961Y-27233475D01*
X31680961Y-27233475D02*
X31585723Y-27281094D01*
X31585723Y-27281094D02*
X31395247Y-27328713D01*
X31395247Y-27328713D02*
X31252390Y-27328713D01*
X31252390Y-27328713D02*
X31061914Y-27281094D01*
X31061914Y-27281094D02*
X30966676Y-27233475D01*
X30966676Y-27233475D02*
X30871438Y-27138237D01*
X30871438Y-27138237D02*
X30823819Y-26995380D01*
X30823819Y-26995380D02*
X30823819Y-26900142D01*
X30823819Y-26900142D02*
X30871438Y-26757285D01*
X30871438Y-26757285D02*
X30919057Y-26709666D01*
X30823819Y-25804904D02*
X30823819Y-26281094D01*
X30823819Y-26281094D02*
X31300009Y-26328713D01*
X31300009Y-26328713D02*
X31252390Y-26281094D01*
X31252390Y-26281094D02*
X31204771Y-26185856D01*
X31204771Y-26185856D02*
X31204771Y-25947761D01*
X31204771Y-25947761D02*
X31252390Y-25852523D01*
X31252390Y-25852523D02*
X31300009Y-25804904D01*
X31300009Y-25804904D02*
X31395247Y-25757285D01*
X31395247Y-25757285D02*
X31633342Y-25757285D01*
X31633342Y-25757285D02*
X31728580Y-25804904D01*
X31728580Y-25804904D02*
X31776200Y-25852523D01*
X31776200Y-25852523D02*
X31823819Y-25947761D01*
X31823819Y-25947761D02*
X31823819Y-26185856D01*
X31823819Y-26185856D02*
X31776200Y-26281094D01*
X31776200Y-26281094D02*
X31728580Y-26328713D01*
X24968580Y-23788666D02*
X25016200Y-23836285D01*
X25016200Y-23836285D02*
X25063819Y-23979142D01*
X25063819Y-23979142D02*
X25063819Y-24074380D01*
X25063819Y-24074380D02*
X25016200Y-24217237D01*
X25016200Y-24217237D02*
X24920961Y-24312475D01*
X24920961Y-24312475D02*
X24825723Y-24360094D01*
X24825723Y-24360094D02*
X24635247Y-24407713D01*
X24635247Y-24407713D02*
X24492390Y-24407713D01*
X24492390Y-24407713D02*
X24301914Y-24360094D01*
X24301914Y-24360094D02*
X24206676Y-24312475D01*
X24206676Y-24312475D02*
X24111438Y-24217237D01*
X24111438Y-24217237D02*
X24063819Y-24074380D01*
X24063819Y-24074380D02*
X24063819Y-23979142D01*
X24063819Y-23979142D02*
X24111438Y-23836285D01*
X24111438Y-23836285D02*
X24159057Y-23788666D01*
X24159057Y-23407713D02*
X24111438Y-23360094D01*
X24111438Y-23360094D02*
X24063819Y-23264856D01*
X24063819Y-23264856D02*
X24063819Y-23026761D01*
X24063819Y-23026761D02*
X24111438Y-22931523D01*
X24111438Y-22931523D02*
X24159057Y-22883904D01*
X24159057Y-22883904D02*
X24254295Y-22836285D01*
X24254295Y-22836285D02*
X24349533Y-22836285D01*
X24349533Y-22836285D02*
X24492390Y-22883904D01*
X24492390Y-22883904D02*
X25063819Y-23455332D01*
X25063819Y-23455332D02*
X25063819Y-22836285D01*
X4364819Y-13019166D02*
X3888628Y-13352499D01*
X4364819Y-13590594D02*
X3364819Y-13590594D01*
X3364819Y-13590594D02*
X3364819Y-13209642D01*
X3364819Y-13209642D02*
X3412438Y-13114404D01*
X3412438Y-13114404D02*
X3460057Y-13066785D01*
X3460057Y-13066785D02*
X3555295Y-13019166D01*
X3555295Y-13019166D02*
X3698152Y-13019166D01*
X3698152Y-13019166D02*
X3793390Y-13066785D01*
X3793390Y-13066785D02*
X3841009Y-13114404D01*
X3841009Y-13114404D02*
X3888628Y-13209642D01*
X3888628Y-13209642D02*
X3888628Y-13590594D01*
X3793390Y-12447737D02*
X3745771Y-12542975D01*
X3745771Y-12542975D02*
X3698152Y-12590594D01*
X3698152Y-12590594D02*
X3602914Y-12638213D01*
X3602914Y-12638213D02*
X3555295Y-12638213D01*
X3555295Y-12638213D02*
X3460057Y-12590594D01*
X3460057Y-12590594D02*
X3412438Y-12542975D01*
X3412438Y-12542975D02*
X3364819Y-12447737D01*
X3364819Y-12447737D02*
X3364819Y-12257261D01*
X3364819Y-12257261D02*
X3412438Y-12162023D01*
X3412438Y-12162023D02*
X3460057Y-12114404D01*
X3460057Y-12114404D02*
X3555295Y-12066785D01*
X3555295Y-12066785D02*
X3602914Y-12066785D01*
X3602914Y-12066785D02*
X3698152Y-12114404D01*
X3698152Y-12114404D02*
X3745771Y-12162023D01*
X3745771Y-12162023D02*
X3793390Y-12257261D01*
X3793390Y-12257261D02*
X3793390Y-12447737D01*
X3793390Y-12447737D02*
X3841009Y-12542975D01*
X3841009Y-12542975D02*
X3888628Y-12590594D01*
X3888628Y-12590594D02*
X3983866Y-12638213D01*
X3983866Y-12638213D02*
X4174342Y-12638213D01*
X4174342Y-12638213D02*
X4269580Y-12590594D01*
X4269580Y-12590594D02*
X4317200Y-12542975D01*
X4317200Y-12542975D02*
X4364819Y-12447737D01*
X4364819Y-12447737D02*
X4364819Y-12257261D01*
X4364819Y-12257261D02*
X4317200Y-12162023D01*
X4317200Y-12162023D02*
X4269580Y-12114404D01*
X4269580Y-12114404D02*
X4174342Y-12066785D01*
X4174342Y-12066785D02*
X3983866Y-12066785D01*
X3983866Y-12066785D02*
X3888628Y-12114404D01*
X3888628Y-12114404D02*
X3841009Y-12162023D01*
X3841009Y-12162023D02*
X3793390Y-12257261D01*
X2984476Y-26458152D02*
X2984476Y-27124819D01*
X2746381Y-26077200D02*
X2508286Y-26791485D01*
X2508286Y-26791485D02*
X3127333Y-26791485D01*
X23187819Y-12866666D02*
X22711628Y-13199999D01*
X23187819Y-13438094D02*
X22187819Y-13438094D01*
X22187819Y-13438094D02*
X22187819Y-13057142D01*
X22187819Y-13057142D02*
X22235438Y-12961904D01*
X22235438Y-12961904D02*
X22283057Y-12914285D01*
X22283057Y-12914285D02*
X22378295Y-12866666D01*
X22378295Y-12866666D02*
X22521152Y-12866666D01*
X22521152Y-12866666D02*
X22616390Y-12914285D01*
X22616390Y-12914285D02*
X22664009Y-12961904D01*
X22664009Y-12961904D02*
X22711628Y-13057142D01*
X22711628Y-13057142D02*
X22711628Y-13438094D01*
X23187819Y-11914285D02*
X23187819Y-12485713D01*
X23187819Y-12199999D02*
X22187819Y-12199999D01*
X22187819Y-12199999D02*
X22330676Y-12295237D01*
X22330676Y-12295237D02*
X22425914Y-12390475D01*
X22425914Y-12390475D02*
X22473533Y-12485713D01*
X19518333Y-36300580D02*
X19470714Y-36348200D01*
X19470714Y-36348200D02*
X19327857Y-36395819D01*
X19327857Y-36395819D02*
X19232619Y-36395819D01*
X19232619Y-36395819D02*
X19089762Y-36348200D01*
X19089762Y-36348200D02*
X18994524Y-36252961D01*
X18994524Y-36252961D02*
X18946905Y-36157723D01*
X18946905Y-36157723D02*
X18899286Y-35967247D01*
X18899286Y-35967247D02*
X18899286Y-35824390D01*
X18899286Y-35824390D02*
X18946905Y-35633914D01*
X18946905Y-35633914D02*
X18994524Y-35538676D01*
X18994524Y-35538676D02*
X19089762Y-35443438D01*
X19089762Y-35443438D02*
X19232619Y-35395819D01*
X19232619Y-35395819D02*
X19327857Y-35395819D01*
X19327857Y-35395819D02*
X19470714Y-35443438D01*
X19470714Y-35443438D02*
X19518333Y-35491057D01*
X19851667Y-35395819D02*
X20470714Y-35395819D01*
X20470714Y-35395819D02*
X20137381Y-35776771D01*
X20137381Y-35776771D02*
X20280238Y-35776771D01*
X20280238Y-35776771D02*
X20375476Y-35824390D01*
X20375476Y-35824390D02*
X20423095Y-35872009D01*
X20423095Y-35872009D02*
X20470714Y-35967247D01*
X20470714Y-35967247D02*
X20470714Y-36205342D01*
X20470714Y-36205342D02*
X20423095Y-36300580D01*
X20423095Y-36300580D02*
X20375476Y-36348200D01*
X20375476Y-36348200D02*
X20280238Y-36395819D01*
X20280238Y-36395819D02*
X19994524Y-36395819D01*
X19994524Y-36395819D02*
X19899286Y-36348200D01*
X19899286Y-36348200D02*
X19851667Y-36300580D01*
X17420419Y-3611523D02*
X17372800Y-3563904D01*
X17372800Y-3563904D02*
X17325180Y-3421047D01*
X17325180Y-3421047D02*
X17325180Y-3325809D01*
X17325180Y-3325809D02*
X17372800Y-3182952D01*
X17372800Y-3182952D02*
X17468038Y-3087714D01*
X17468038Y-3087714D02*
X17563276Y-3040095D01*
X17563276Y-3040095D02*
X17753752Y-2992476D01*
X17753752Y-2992476D02*
X17896609Y-2992476D01*
X17896609Y-2992476D02*
X18087085Y-3040095D01*
X18087085Y-3040095D02*
X18182323Y-3087714D01*
X18182323Y-3087714D02*
X18277561Y-3182952D01*
X18277561Y-3182952D02*
X18325180Y-3325809D01*
X18325180Y-3325809D02*
X18325180Y-3421047D01*
X18325180Y-3421047D02*
X18277561Y-3563904D01*
X18277561Y-3563904D02*
X18229942Y-3611523D01*
X25487333Y-28143580D02*
X25439714Y-28191200D01*
X25439714Y-28191200D02*
X25296857Y-28238819D01*
X25296857Y-28238819D02*
X25201619Y-28238819D01*
X25201619Y-28238819D02*
X25058762Y-28191200D01*
X25058762Y-28191200D02*
X24963524Y-28095961D01*
X24963524Y-28095961D02*
X24915905Y-28000723D01*
X24915905Y-28000723D02*
X24868286Y-27810247D01*
X24868286Y-27810247D02*
X24868286Y-27667390D01*
X24868286Y-27667390D02*
X24915905Y-27476914D01*
X24915905Y-27476914D02*
X24963524Y-27381676D01*
X24963524Y-27381676D02*
X25058762Y-27286438D01*
X25058762Y-27286438D02*
X25201619Y-27238819D01*
X25201619Y-27238819D02*
X25296857Y-27238819D01*
X25296857Y-27238819D02*
X25439714Y-27286438D01*
X25439714Y-27286438D02*
X25487333Y-27334057D01*
X25820667Y-27238819D02*
X26487333Y-27238819D01*
X26487333Y-27238819D02*
X26058762Y-28238819D01*
X28622666Y-27775819D02*
X28622666Y-28490104D01*
X28622666Y-28490104D02*
X28575047Y-28632961D01*
X28575047Y-28632961D02*
X28479809Y-28728200D01*
X28479809Y-28728200D02*
X28336952Y-28775819D01*
X28336952Y-28775819D02*
X28241714Y-28775819D01*
X29622666Y-28775819D02*
X29051238Y-28775819D01*
X29336952Y-28775819D02*
X29336952Y-27775819D01*
X29336952Y-27775819D02*
X29241714Y-27918676D01*
X29241714Y-27918676D02*
X29146476Y-28013914D01*
X29146476Y-28013914D02*
X29051238Y-28061533D01*
X5770057Y-9952738D02*
X5722438Y-10047976D01*
X5722438Y-10047976D02*
X5627200Y-10143214D01*
X5627200Y-10143214D02*
X5484342Y-10286071D01*
X5484342Y-10286071D02*
X5436723Y-10381309D01*
X5436723Y-10381309D02*
X5436723Y-10476547D01*
X5674819Y-10428928D02*
X5627200Y-10524166D01*
X5627200Y-10524166D02*
X5531961Y-10619404D01*
X5531961Y-10619404D02*
X5341485Y-10667023D01*
X5341485Y-10667023D02*
X5008152Y-10667023D01*
X5008152Y-10667023D02*
X4817676Y-10619404D01*
X4817676Y-10619404D02*
X4722438Y-10524166D01*
X4722438Y-10524166D02*
X4674819Y-10428928D01*
X4674819Y-10428928D02*
X4674819Y-10238452D01*
X4674819Y-10238452D02*
X4722438Y-10143214D01*
X4722438Y-10143214D02*
X4817676Y-10047976D01*
X4817676Y-10047976D02*
X5008152Y-10000357D01*
X5008152Y-10000357D02*
X5341485Y-10000357D01*
X5341485Y-10000357D02*
X5531961Y-10047976D01*
X5531961Y-10047976D02*
X5627200Y-10143214D01*
X5627200Y-10143214D02*
X5674819Y-10238452D01*
X5674819Y-10238452D02*
X5674819Y-10428928D01*
X5674819Y-9524166D02*
X5674819Y-9333690D01*
X5674819Y-9333690D02*
X5627200Y-9238452D01*
X5627200Y-9238452D02*
X5579580Y-9190833D01*
X5579580Y-9190833D02*
X5436723Y-9095595D01*
X5436723Y-9095595D02*
X5246247Y-9047976D01*
X5246247Y-9047976D02*
X4865295Y-9047976D01*
X4865295Y-9047976D02*
X4770057Y-9095595D01*
X4770057Y-9095595D02*
X4722438Y-9143214D01*
X4722438Y-9143214D02*
X4674819Y-9238452D01*
X4674819Y-9238452D02*
X4674819Y-9428928D01*
X4674819Y-9428928D02*
X4722438Y-9524166D01*
X4722438Y-9524166D02*
X4770057Y-9571785D01*
X4770057Y-9571785D02*
X4865295Y-9619404D01*
X4865295Y-9619404D02*
X5103390Y-9619404D01*
X5103390Y-9619404D02*
X5198628Y-9571785D01*
X5198628Y-9571785D02*
X5246247Y-9524166D01*
X5246247Y-9524166D02*
X5293866Y-9428928D01*
X5293866Y-9428928D02*
X5293866Y-9238452D01*
X5293866Y-9238452D02*
X5246247Y-9143214D01*
X5246247Y-9143214D02*
X5198628Y-9095595D01*
X5198628Y-9095595D02*
X5103390Y-9047976D01*
X3217057Y-6032428D02*
X3169438Y-6127666D01*
X3169438Y-6127666D02*
X3074200Y-6222904D01*
X3074200Y-6222904D02*
X2931342Y-6365761D01*
X2931342Y-6365761D02*
X2883723Y-6460999D01*
X2883723Y-6460999D02*
X2883723Y-6556237D01*
X3121819Y-6508618D02*
X3074200Y-6603856D01*
X3074200Y-6603856D02*
X2978961Y-6699094D01*
X2978961Y-6699094D02*
X2788485Y-6746713D01*
X2788485Y-6746713D02*
X2455152Y-6746713D01*
X2455152Y-6746713D02*
X2264676Y-6699094D01*
X2264676Y-6699094D02*
X2169438Y-6603856D01*
X2169438Y-6603856D02*
X2121819Y-6508618D01*
X2121819Y-6508618D02*
X2121819Y-6318142D01*
X2121819Y-6318142D02*
X2169438Y-6222904D01*
X2169438Y-6222904D02*
X2264676Y-6127666D01*
X2264676Y-6127666D02*
X2455152Y-6080047D01*
X2455152Y-6080047D02*
X2788485Y-6080047D01*
X2788485Y-6080047D02*
X2978961Y-6127666D01*
X2978961Y-6127666D02*
X3074200Y-6222904D01*
X3074200Y-6222904D02*
X3121819Y-6318142D01*
X3121819Y-6318142D02*
X3121819Y-6508618D01*
X3121819Y-5127666D02*
X3121819Y-5699094D01*
X3121819Y-5413380D02*
X2121819Y-5413380D01*
X2121819Y-5413380D02*
X2264676Y-5508618D01*
X2264676Y-5508618D02*
X2359914Y-5603856D01*
X2359914Y-5603856D02*
X2407533Y-5699094D01*
X2121819Y-4508618D02*
X2121819Y-4413380D01*
X2121819Y-4413380D02*
X2169438Y-4318142D01*
X2169438Y-4318142D02*
X2217057Y-4270523D01*
X2217057Y-4270523D02*
X2312295Y-4222904D01*
X2312295Y-4222904D02*
X2502771Y-4175285D01*
X2502771Y-4175285D02*
X2740866Y-4175285D01*
X2740866Y-4175285D02*
X2931342Y-4222904D01*
X2931342Y-4222904D02*
X3026580Y-4270523D01*
X3026580Y-4270523D02*
X3074200Y-4318142D01*
X3074200Y-4318142D02*
X3121819Y-4413380D01*
X3121819Y-4413380D02*
X3121819Y-4508618D01*
X3121819Y-4508618D02*
X3074200Y-4603856D01*
X3074200Y-4603856D02*
X3026580Y-4651475D01*
X3026580Y-4651475D02*
X2931342Y-4699094D01*
X2931342Y-4699094D02*
X2740866Y-4746713D01*
X2740866Y-4746713D02*
X2502771Y-4746713D01*
X2502771Y-4746713D02*
X2312295Y-4699094D01*
X2312295Y-4699094D02*
X2217057Y-4651475D01*
X2217057Y-4651475D02*
X2169438Y-4603856D01*
X2169438Y-4603856D02*
X2121819Y-4508618D01*
D12*
%TO.C,R10*%
X27700500Y-14621742D02*
X27700500Y-15096258D01*
X26655500Y-14621742D02*
X26655500Y-15096258D01*
%TO.C,R12*%
X12218641Y-20700000D02*
X11911359Y-20700000D01*
X12218641Y-19940000D02*
X11911359Y-19940000D01*
%TO.C,Q2*%
X6985000Y-28595000D02*
X8935000Y-28595000D01*
X6985000Y-28595000D02*
X5035000Y-28595000D01*
X6985000Y-23475000D02*
X8935000Y-23475000D01*
X6985000Y-23475000D02*
X5035000Y-23475000D01*
X9925000Y-28830000D02*
X9445000Y-28830000D01*
X9685000Y-28500000D01*
X9925000Y-28830000D01*
G36*
X9925000Y-28830000D02*
G01*
X9445000Y-28830000D01*
X9685000Y-28500000D01*
X9925000Y-28830000D01*
G37*
%TO.C,U3*%
X14625000Y-17780000D02*
X14625000Y-19730000D01*
X14625000Y-17780000D02*
X14625000Y-15830000D01*
X24745000Y-17780000D02*
X24745000Y-19730000D01*
X24745000Y-17780000D02*
X24745000Y-15830000D01*
X14680000Y-20480000D02*
X14350000Y-20720000D01*
X14350000Y-20240000D01*
X14680000Y-20480000D01*
G36*
X14680000Y-20480000D02*
G01*
X14350000Y-20720000D01*
X14350000Y-20240000D01*
X14680000Y-20480000D01*
G37*
%TO.C,R13*%
X11050000Y-24918641D02*
X11050000Y-24611359D01*
X11810000Y-24918641D02*
X11810000Y-24611359D01*
%TO.C,R11*%
X12218641Y-18160000D02*
X11911359Y-18160000D01*
X12218641Y-17400000D02*
X11911359Y-17400000D01*
%TO.C,C4*%
X12575000Y-31609420D02*
X12575000Y-31890580D01*
X11555000Y-31609420D02*
X11555000Y-31890580D01*
%TO.C,R7*%
X5970000Y-13006141D02*
X5970000Y-12698859D01*
X6730000Y-13006141D02*
X6730000Y-12698859D01*
%TO.C,R9*%
X26176500Y-14621742D02*
X26176500Y-15096258D01*
X25131500Y-14621742D02*
X25131500Y-15096258D01*
%TO.C,U4*%
X27214000Y-32639000D02*
X27214000Y-31989000D01*
X27214000Y-32639000D02*
X27214000Y-33289000D01*
X24094000Y-32639000D02*
X24094000Y-31989000D01*
X24094000Y-32639000D02*
X24094000Y-33289000D01*
X27494000Y-31716500D02*
X27164000Y-31476500D01*
X27494000Y-31236500D01*
X27494000Y-31716500D01*
G36*
X27494000Y-31716500D02*
G01*
X27164000Y-31476500D01*
X27494000Y-31236500D01*
X27494000Y-31716500D01*
G37*
%TO.C,Q6*%
X13680000Y-5715000D02*
X13680000Y-6365000D01*
X13680000Y-5715000D02*
X13680000Y-5065000D01*
X16800000Y-5715000D02*
X16800000Y-6365000D01*
X16800000Y-5715000D02*
X16800000Y-5065000D01*
X13730000Y-6877500D02*
X13400000Y-7117500D01*
X13400000Y-6637500D01*
X13730000Y-6877500D01*
G36*
X13730000Y-6877500D02*
G01*
X13400000Y-7117500D01*
X13400000Y-6637500D01*
X13730000Y-6877500D01*
G37*
%TO.C,Q1*%
X6985000Y-22245000D02*
X8935000Y-22245000D01*
X6985000Y-22245000D02*
X5035000Y-22245000D01*
X6985000Y-17125000D02*
X8935000Y-17125000D01*
X6985000Y-17125000D02*
X5035000Y-17125000D01*
X9925000Y-22480000D02*
X9445000Y-22480000D01*
X9685000Y-22150000D01*
X9925000Y-22480000D01*
G36*
X9925000Y-22480000D02*
G01*
X9445000Y-22480000D01*
X9685000Y-22150000D01*
X9925000Y-22480000D01*
G37*
%TO.C,R4*%
X14860000Y-13006141D02*
X14860000Y-12698859D01*
X15620000Y-13006141D02*
X15620000Y-12698859D01*
%TO.C,Q3*%
X21300000Y-9857500D02*
X21300000Y-10507500D01*
X21300000Y-9857500D02*
X21300000Y-9207500D01*
X24420000Y-9857500D02*
X24420000Y-10507500D01*
X24420000Y-9857500D02*
X24420000Y-9207500D01*
X21350000Y-11020000D02*
X21020000Y-11260000D01*
X21020000Y-10780000D01*
X21350000Y-11020000D01*
G36*
X21350000Y-11020000D02*
G01*
X21020000Y-11260000D01*
X21020000Y-10780000D01*
X21350000Y-11020000D01*
G37*
%TO.C,Q8*%
X8600000Y-5715000D02*
X8600000Y-6365000D01*
X8600000Y-5715000D02*
X8600000Y-5065000D01*
X11720000Y-5715000D02*
X11720000Y-6365000D01*
X11720000Y-5715000D02*
X11720000Y-5065000D01*
X8650000Y-6877500D02*
X8320000Y-7117500D01*
X8320000Y-6637500D01*
X8650000Y-6877500D01*
G36*
X8650000Y-6877500D02*
G01*
X8320000Y-7117500D01*
X8320000Y-6637500D01*
X8650000Y-6877500D01*
G37*
%TO.C,D2*%
X34163000Y-17931000D02*
X34163000Y-18581000D01*
X35283000Y-18581000D02*
X33043000Y-18581000D01*
X33043000Y-18581000D02*
X33043000Y-22821000D01*
X35283000Y-19181000D02*
X33043000Y-19181000D01*
X35283000Y-19301000D02*
X33043000Y-19301000D01*
X35283000Y-19421000D02*
X33043000Y-19421000D01*
X35283000Y-22821000D02*
X35283000Y-18581000D01*
X33043000Y-22821000D02*
X35283000Y-22821000D01*
X34163000Y-23471000D02*
X34163000Y-22821000D01*
%TO.C,R5*%
X11050000Y-13006141D02*
X11050000Y-12698859D01*
X11810000Y-13006141D02*
X11810000Y-12698859D01*
%TO.C,U2*%
X13205000Y-33240000D02*
X13410000Y-33240000D01*
X23625000Y-33240000D02*
X23420000Y-33240000D01*
X13205000Y-30480000D02*
X13205000Y-33240000D01*
X13205000Y-30480000D02*
X13205000Y-27720000D01*
X23625000Y-30480000D02*
X23625000Y-33240000D01*
X23625000Y-30480000D02*
X23625000Y-27720000D01*
X13205000Y-27720000D02*
X13410000Y-27720000D01*
X23625000Y-27720000D02*
X23420000Y-27720000D01*
X13410000Y-34030000D02*
X13080000Y-34270000D01*
X13080000Y-33790000D01*
X13410000Y-34030000D01*
G36*
X13410000Y-34030000D02*
G01*
X13080000Y-34270000D01*
X13080000Y-33790000D01*
X13410000Y-34030000D01*
G37*
%TO.C,R3*%
X16130000Y-13006141D02*
X16130000Y-12698859D01*
X16890000Y-13006141D02*
X16890000Y-12698859D01*
%TO.C,U1*%
X28956000Y-21610000D02*
X30906000Y-21610000D01*
X28956000Y-21610000D02*
X27006000Y-21610000D01*
X28956000Y-16490000D02*
X30906000Y-16490000D01*
X28956000Y-16490000D02*
X27006000Y-16490000D01*
X31896000Y-21845000D02*
X31416000Y-21845000D01*
X31656000Y-21515000D01*
X31896000Y-21845000D01*
G36*
X31896000Y-21845000D02*
G01*
X31416000Y-21845000D01*
X31656000Y-21515000D01*
X31896000Y-21845000D01*
G37*
%TO.C,Q7*%
X11140000Y-9857500D02*
X11140000Y-10507500D01*
X11140000Y-9857500D02*
X11140000Y-9207500D01*
X14260000Y-9857500D02*
X14260000Y-10507500D01*
X14260000Y-9857500D02*
X14260000Y-9207500D01*
X11190000Y-11020000D02*
X10860000Y-11260000D01*
X10860000Y-10780000D01*
X11190000Y-11020000D01*
G36*
X11190000Y-11020000D02*
G01*
X10860000Y-11260000D01*
X10860000Y-10780000D01*
X11190000Y-11020000D01*
G37*
%TO.C,R6*%
X9780000Y-13006141D02*
X9780000Y-12698859D01*
X10540000Y-13006141D02*
X10540000Y-12698859D01*
%TO.C,D1*%
X36703000Y-17931000D02*
X36703000Y-18581000D01*
X37823000Y-18581000D02*
X35583000Y-18581000D01*
X35583000Y-18581000D02*
X35583000Y-22821000D01*
X37823000Y-19181000D02*
X35583000Y-19181000D01*
X37823000Y-19301000D02*
X35583000Y-19301000D01*
X37823000Y-19421000D02*
X35583000Y-19421000D01*
X37823000Y-22821000D02*
X37823000Y-18581000D01*
X35583000Y-22821000D02*
X37823000Y-22821000D01*
X36703000Y-23471000D02*
X36703000Y-22821000D01*
%TO.C,C6*%
X36144252Y-28209415D02*
X34721748Y-28209415D01*
X36144252Y-26389415D02*
X34721748Y-26389415D01*
%TO.C,Q5*%
X16220000Y-9857500D02*
X16220000Y-10507500D01*
X16220000Y-9857500D02*
X16220000Y-9207500D01*
X19340000Y-9857500D02*
X19340000Y-10507500D01*
X19340000Y-9857500D02*
X19340000Y-9207500D01*
X16270000Y-11020000D02*
X15940000Y-11260000D01*
X15940000Y-10780000D01*
X16270000Y-11020000D01*
G36*
X16270000Y-11020000D02*
G01*
X15940000Y-11260000D01*
X15940000Y-10780000D01*
X16270000Y-11020000D01*
G37*
%TO.C,R2*%
X19305000Y-13006141D02*
X19305000Y-12698859D01*
X20065000Y-13006141D02*
X20065000Y-12698859D01*
%TO.C,Q4*%
X18760000Y-5715000D02*
X18760000Y-6365000D01*
X18760000Y-5715000D02*
X18760000Y-5065000D01*
X21880000Y-5715000D02*
X21880000Y-6365000D01*
X21880000Y-5715000D02*
X21880000Y-5065000D01*
X18810000Y-6877500D02*
X18480000Y-7117500D01*
X18480000Y-6637500D01*
X18810000Y-6877500D01*
G36*
X18810000Y-6877500D02*
G01*
X18480000Y-7117500D01*
X18480000Y-6637500D01*
X18810000Y-6877500D01*
G37*
%TO.C,C1*%
X21830420Y-21715000D02*
X22111580Y-21715000D01*
X21830420Y-22735000D02*
X22111580Y-22735000D01*
%TO.C,X1*%
X30441000Y-25584000D02*
X27656000Y-25584000D01*
X30441000Y-25384000D02*
X30441000Y-25584000D01*
X27656000Y-21914000D02*
X30256000Y-21914000D01*
%TO.C,J10*%
X29710000Y-14674415D02*
X29710000Y-13654415D01*
X33960000Y-14674415D02*
X29710000Y-14674415D01*
X29710000Y-13654415D02*
X31310000Y-13654415D01*
X31310000Y-13654415D02*
X31310000Y-12374415D01*
X37530000Y-12954415D02*
X37530000Y-2274415D01*
X31310000Y-12374415D02*
X28420000Y-12374415D01*
X29710000Y-1574415D02*
X31310000Y-1574415D01*
X31310000Y-1574415D02*
X31310000Y-2854415D01*
X29710000Y-554415D02*
X29710000Y-1574415D01*
X33960000Y-554415D02*
X29710000Y-554415D01*
%TO.C,R14*%
X11050000Y-27458641D02*
X11050000Y-27151359D01*
X11810000Y-27458641D02*
X11810000Y-27151359D01*
%TO.C,C5*%
X30859000Y-24270580D02*
X30859000Y-23989420D01*
X31879000Y-24270580D02*
X31879000Y-23989420D01*
%TO.C,C2*%
X25554000Y-23883252D02*
X25554000Y-23360748D01*
X27024000Y-23883252D02*
X27024000Y-23360748D01*
%TO.C,R8*%
X4700000Y-13006141D02*
X4700000Y-12698859D01*
X5460000Y-13006141D02*
X5460000Y-12698859D01*
%TO.C,R1*%
X21210000Y-13006141D02*
X21210000Y-12698859D01*
X21970000Y-13006141D02*
X21970000Y-12698859D01*
%TO.C,C3*%
X21957420Y-35431000D02*
X22238580Y-35431000D01*
X21957420Y-36451000D02*
X22238580Y-36451000D01*
%TO.C,C7*%
X25392748Y-28729000D02*
X25915252Y-28729000D01*
X25392748Y-30199000D02*
X25915252Y-30199000D01*
%TO.C,J1*%
X27686000Y-29204415D02*
X27686000Y-36824415D01*
X27686000Y-36824415D02*
X37846000Y-36824415D01*
X37846000Y-29204415D02*
X27686000Y-29204415D01*
X37846000Y-35554415D02*
X27686000Y-35554415D01*
X37846000Y-36824415D02*
X37846000Y-29204415D01*
%TO.C,Q9*%
X6060000Y-9857500D02*
X6060000Y-10507500D01*
X6060000Y-9857500D02*
X6060000Y-9207500D01*
X9180000Y-9857500D02*
X9180000Y-10507500D01*
X9180000Y-9857500D02*
X9180000Y-9207500D01*
X6110000Y-11020000D02*
X5780000Y-11260000D01*
X5780000Y-10780000D01*
X6110000Y-11020000D01*
G36*
X6110000Y-11020000D02*
G01*
X5780000Y-11260000D01*
X5780000Y-10780000D01*
X6110000Y-11020000D01*
G37*
%TO.C,Q10*%
X3520000Y-5715000D02*
X3520000Y-6365000D01*
X3520000Y-5715000D02*
X3520000Y-5065000D01*
X6640000Y-5715000D02*
X6640000Y-6365000D01*
X6640000Y-5715000D02*
X6640000Y-5065000D01*
X3570000Y-6877500D02*
X3240000Y-7117500D01*
X3240000Y-6637500D01*
X3570000Y-6877500D01*
G36*
X3570000Y-6877500D02*
G01*
X3240000Y-7117500D01*
X3240000Y-6637500D01*
X3570000Y-6877500D01*
G37*
%TD*%
M02*
