%TF.GenerationSoftware,KiCad,Pcbnew,7.0.11-2.fc39*%
%TF.CreationDate,2024-08-16T08:17:41-07:00*%
%TF.ProjectId,wall_clock_full,77616c6c-5f63-46c6-9f63-6b5f66756c6c,A0*%
%TF.SameCoordinates,PX6d01460PY3072580*%
%TF.FileFunction,Paste,Top*%
%TF.FilePolarity,Positive*%
%FSLAX46Y46*%
G04 Gerber Fmt 4.6, Leading zero omitted, Abs format (unit mm)*
G04 Created by KiCad (PCBNEW 7.0.11-2.fc39) date 2024-08-16 08:17:41*
%MOMM*%
%LPD*%
G01*
G04 APERTURE LIST*
G04 Aperture macros list*
%AMRoundRect*
0 Rectangle with rounded corners*
0 $1 Rounding radius*
0 $2 $3 $4 $5 $6 $7 $8 $9 X,Y pos of 4 corners*
0 Add a 4 corners polygon primitive as box body*
4,1,4,$2,$3,$4,$5,$6,$7,$8,$9,$2,$3,0*
0 Add four circle primitives for the rounded corners*
1,1,$1+$1,$2,$3*
1,1,$1+$1,$4,$5*
1,1,$1+$1,$6,$7*
1,1,$1+$1,$8,$9*
0 Add four rect primitives between the rounded corners*
20,1,$1+$1,$2,$3,$4,$5,0*
20,1,$1+$1,$4,$5,$6,$7,0*
20,1,$1+$1,$6,$7,$8,$9,0*
20,1,$1+$1,$8,$9,$2,$3,0*%
G04 Aperture macros list end*
%ADD10RoundRect,0.200000X-0.275000X0.200000X-0.275000X-0.200000X0.275000X-0.200000X0.275000X0.200000X0*%
%ADD11RoundRect,0.135000X0.135000X0.185000X-0.135000X0.185000X-0.135000X-0.185000X0.135000X-0.185000X0*%
%ADD12RoundRect,0.150000X0.825000X0.150000X-0.825000X0.150000X-0.825000X-0.150000X0.825000X-0.150000X0*%
%ADD13RoundRect,0.150000X0.150000X-0.725000X0.150000X0.725000X-0.150000X0.725000X-0.150000X-0.725000X0*%
%ADD14RoundRect,0.135000X0.185000X-0.135000X0.185000X0.135000X-0.185000X0.135000X-0.185000X-0.135000X0*%
%ADD15RoundRect,0.225000X-0.250000X0.225000X-0.250000X-0.225000X0.250000X-0.225000X0.250000X0.225000X0*%
%ADD16RoundRect,0.150000X-0.150000X0.587500X-0.150000X-0.587500X0.150000X-0.587500X0.150000X0.587500X0*%
%ADD17RoundRect,0.150000X0.150000X-0.587500X0.150000X0.587500X-0.150000X0.587500X-0.150000X-0.587500X0*%
%ADD18RoundRect,0.150000X0.150000X-0.837500X0.150000X0.837500X-0.150000X0.837500X-0.150000X-0.837500X0*%
%ADD19RoundRect,0.150000X0.675000X0.150000X-0.675000X0.150000X-0.675000X-0.150000X0.675000X-0.150000X0*%
%ADD20RoundRect,0.250000X0.325000X0.650000X-0.325000X0.650000X-0.325000X-0.650000X0.325000X-0.650000X0*%
%ADD21RoundRect,0.225000X-0.225000X-0.250000X0.225000X-0.250000X0.225000X0.250000X-0.225000X0.250000X0*%
%ADD22R,0.900000X1.000000*%
%ADD23RoundRect,0.250000X1.500000X-0.250000X1.500000X0.250000X-1.500000X0.250000X-1.500000X-0.250000X0*%
%ADD24RoundRect,0.250001X1.449999X-0.499999X1.449999X0.499999X-1.449999X0.499999X-1.449999X-0.499999X0*%
%ADD25RoundRect,0.225000X0.250000X-0.225000X0.250000X0.225000X-0.250000X0.225000X-0.250000X-0.225000X0*%
%ADD26RoundRect,0.250000X0.475000X-0.250000X0.475000X0.250000X-0.475000X0.250000X-0.475000X-0.250000X0*%
%ADD27RoundRect,0.250000X-0.250000X-0.475000X0.250000X-0.475000X0.250000X0.475000X-0.250000X0.475000X0*%
G04 APERTURE END LIST*
D10*
%TO.C,R10*%
X27178000Y-14034000D03*
X27178000Y-15684000D03*
%TD*%
D11*
%TO.C,R12*%
X12575000Y-20320000D03*
X11555000Y-20320000D03*
%TD*%
D12*
%TO.C,Q2*%
X9460000Y-27940000D03*
X9460000Y-26670000D03*
X9460000Y-25400000D03*
X9460000Y-24130000D03*
X4510000Y-24130000D03*
X4510000Y-25400000D03*
X4510000Y-26670000D03*
X4510000Y-27940000D03*
%TD*%
D13*
%TO.C,U3*%
X15240000Y-20355000D03*
X16510000Y-20355000D03*
X17780000Y-20355000D03*
X19050000Y-20355000D03*
X20320000Y-20355000D03*
X21590000Y-20355000D03*
X22860000Y-20355000D03*
X24130000Y-20355000D03*
X24130000Y-15205000D03*
X22860000Y-15205000D03*
X21590000Y-15205000D03*
X20320000Y-15205000D03*
X19050000Y-15205000D03*
X17780000Y-15205000D03*
X16510000Y-15205000D03*
X15240000Y-15205000D03*
%TD*%
D14*
%TO.C,R13*%
X11430000Y-25275000D03*
X11430000Y-24255000D03*
%TD*%
D11*
%TO.C,R11*%
X12575000Y-17780000D03*
X11555000Y-17780000D03*
%TD*%
D15*
%TO.C,C4*%
X12065000Y-30975000D03*
X12065000Y-32525000D03*
%TD*%
D14*
%TO.C,R7*%
X6350000Y-13362500D03*
X6350000Y-12342500D03*
%TD*%
D10*
%TO.C,R9*%
X25654000Y-14034000D03*
X25654000Y-15684000D03*
%TD*%
D16*
%TO.C,U4*%
X26604000Y-31701500D03*
X24704000Y-31701500D03*
X25654000Y-33576500D03*
%TD*%
D17*
%TO.C,Q6*%
X14290000Y-6652500D03*
X16190000Y-6652500D03*
X15240000Y-4777500D03*
%TD*%
D12*
%TO.C,Q1*%
X9460000Y-21590000D03*
X9460000Y-20320000D03*
X9460000Y-19050000D03*
X9460000Y-17780000D03*
X4510000Y-17780000D03*
X4510000Y-19050000D03*
X4510000Y-20320000D03*
X4510000Y-21590000D03*
%TD*%
D14*
%TO.C,R4*%
X15240000Y-13362500D03*
X15240000Y-12342500D03*
%TD*%
D17*
%TO.C,Q3*%
X21910000Y-10795000D03*
X23810000Y-10795000D03*
X22860000Y-8920000D03*
%TD*%
%TO.C,Q8*%
X9210000Y-6652500D03*
X11110000Y-6652500D03*
X10160000Y-4777500D03*
%TD*%
D14*
%TO.C,R5*%
X11430000Y-13362500D03*
X11430000Y-12342500D03*
%TD*%
D18*
%TO.C,U2*%
X13970000Y-33942500D03*
X15240000Y-33942500D03*
X16510000Y-33942500D03*
X17780000Y-33942500D03*
X19050000Y-33942500D03*
X20320000Y-33942500D03*
X21590000Y-33942500D03*
X22860000Y-33942500D03*
X22860000Y-27017500D03*
X21590000Y-27017500D03*
X20320000Y-27017500D03*
X19050000Y-27017500D03*
X17780000Y-27017500D03*
X16510000Y-27017500D03*
X15240000Y-27017500D03*
X13970000Y-27017500D03*
%TD*%
D14*
%TO.C,R3*%
X16510000Y-13362500D03*
X16510000Y-12342500D03*
%TD*%
D19*
%TO.C,U1*%
X31581000Y-20955000D03*
X31581000Y-19685000D03*
X31581000Y-18415000D03*
X31581000Y-17145000D03*
X26331000Y-17145000D03*
X26331000Y-18415000D03*
X26331000Y-19685000D03*
X26331000Y-20955000D03*
%TD*%
D17*
%TO.C,Q7*%
X11750000Y-10795000D03*
X13650000Y-10795000D03*
X12700000Y-8920000D03*
%TD*%
D14*
%TO.C,R6*%
X10160000Y-13362500D03*
X10160000Y-12342500D03*
%TD*%
D20*
%TO.C,C6*%
X36908000Y-27299415D03*
X33958000Y-27299415D03*
%TD*%
D17*
%TO.C,Q5*%
X16830000Y-10795000D03*
X18730000Y-10795000D03*
X17780000Y-8920000D03*
%TD*%
D14*
%TO.C,R2*%
X19685000Y-13362500D03*
X19685000Y-12342500D03*
%TD*%
D17*
%TO.C,Q4*%
X19370000Y-6652500D03*
X21270000Y-6652500D03*
X20320000Y-4777500D03*
%TD*%
D21*
%TO.C,C1*%
X21196000Y-22225000D03*
X22746000Y-22225000D03*
%TD*%
D22*
%TO.C,X1*%
X29731000Y-24824000D03*
X29731000Y-22674000D03*
X28181000Y-22674000D03*
X28181000Y-24824000D03*
%TD*%
D23*
%TO.C,J10*%
X30170000Y-11614415D03*
X30170000Y-9614415D03*
X30170000Y-7614415D03*
X30170000Y-5614415D03*
X30170000Y-3614415D03*
D24*
X35920000Y-13964415D03*
X35920000Y-1264415D03*
%TD*%
D14*
%TO.C,R14*%
X11430000Y-27815000D03*
X11430000Y-26795000D03*
%TD*%
D25*
%TO.C,C5*%
X31369000Y-24905000D03*
X31369000Y-23355000D03*
%TD*%
D26*
%TO.C,C2*%
X26289000Y-24572000D03*
X26289000Y-22672000D03*
%TD*%
D14*
%TO.C,R8*%
X5080000Y-13362500D03*
X5080000Y-12342500D03*
%TD*%
%TO.C,R1*%
X21590000Y-13362500D03*
X21590000Y-12342500D03*
%TD*%
D21*
%TO.C,C3*%
X21323000Y-35941000D03*
X22873000Y-35941000D03*
%TD*%
D27*
%TO.C,C7*%
X24704000Y-29464000D03*
X26604000Y-29464000D03*
%TD*%
D17*
%TO.C,Q9*%
X6670000Y-10795000D03*
X8570000Y-10795000D03*
X7620000Y-8920000D03*
%TD*%
%TO.C,Q10*%
X4130000Y-6652500D03*
X6030000Y-6652500D03*
X5080000Y-4777500D03*
%TD*%
M02*
