M48
; DRILL file {KiCad 7.0.11-2.fc39} date Fri 16 Aug 2024 08:17:45 AM PDT
; FORMAT={-:-/ absolute / metric / decimal}
; #@! TF.CreationDate,2024-08-16T08:17:45-07:00
; #@! TF.GenerationSoftware,Kicad,Pcbnew,7.0.11-2.fc39
; #@! TF.FileFunction,MixedPlating,1,2
FMAT,2
METRIC
; #@! TA.AperFunction,Plated,PTH,ViaDrill
T1C0.300
; #@! TA.AperFunction,Plated,PTH,ViaDrill
T2C0.400
; #@! TA.AperFunction,Plated,PTH,ViaDrill
T3C0.500
; #@! TA.AperFunction,Plated,PTH,ComponentDrill
T4C0.762
; #@! TA.AperFunction,Plated,PTH,ComponentDrill
T5C0.800
; #@! TA.AperFunction,Plated,PTH,ComponentDrill
T6C1.520
%
G90
G05
T1
X17.78Y-28.448
X21.59Y-16.637
X24.13Y-21.717
T2
X6.096Y-5.461
X6.096Y-7.747
X8.636Y-9.652
X8.636Y-11.938
X11.176Y-5.461
X11.176Y-7.747
X13.716Y-9.652
X13.716Y-11.938
X16.256Y-5.461
X16.256Y-7.747
X18.796Y-9.652
X18.796Y-11.938
X21.336Y-5.461
X21.336Y-7.747
X23.876Y-9.652
X23.876Y-11.938
T3
X5.754Y-34.29
X6.604Y-34.29
X7.366Y-34.29
X8.128Y-34.29
X12.192Y-27.94
X12.446Y-25.4
X16.47Y-24.638
X16.51Y-31.242
X20.32Y-25.4
X20.32Y-32.004
X21.59Y-25.4
X22.86Y-13.843
X24.13Y-13.843
X25.273Y-34.798
X26.035Y-34.798
X27.635Y-20.98
X27.915Y-3.988
X31.877Y-22.225
X32.512Y-8.128
T4
X0.0Y-19.05
X0.0Y-21.59
X0.0Y-24.13
X0.0Y-26.67
X0.0Y-31.75
X0.0Y-34.29
X1.27Y-19.05
X1.27Y-21.59
X1.27Y-24.13
X1.27Y-26.67
X1.27Y-31.75
X1.27Y-34.29
X5.08Y0.0
X5.08Y-1.27
X7.62Y0.0
X7.62Y-1.27
X10.16Y0.0
X10.16Y-1.27
X12.7Y0.0
X12.7Y-1.27
X15.24Y0.0
X15.24Y-1.27
X17.78Y0.0
X17.78Y-1.27
X20.32Y0.0
X20.32Y-1.27
X22.86Y0.0
X22.86Y-1.27
T5
X34.163Y-16.891
X34.163Y-24.511
X36.449Y-16.891
X36.703Y-24.511
T6
X30.226Y-33.014
X35.306Y-33.014
M30
