%TF.GenerationSoftware,KiCad,Pcbnew,7.0.11-2.fc39*%
%TF.CreationDate,2024-08-16T08:17:41-07:00*%
%TF.ProjectId,wall_clock_full,77616c6c-5f63-46c6-9f63-6b5f66756c6c,A0*%
%TF.SameCoordinates,PX6d01460PY3072580*%
%TF.FileFunction,Copper,L2,Bot*%
%TF.FilePolarity,Positive*%
%FSLAX46Y46*%
G04 Gerber Fmt 4.6, Leading zero omitted, Abs format (unit mm)*
G04 Created by KiCad (PCBNEW 7.0.11-2.fc39) date 2024-08-16 08:17:41*
%MOMM*%
%LPD*%
G01*
G04 APERTURE LIST*
G04 Aperture macros list*
%AMFreePoly0*
4,1,31,0.635000,0.558106,0.687664,0.499617,0.776514,0.345726,0.831425,0.176725,0.850000,0.000000,0.831425,-0.176725,0.776514,-0.345726,0.687664,-0.499617,0.635000,-0.558106,0.635000,-0.850000,0.000000,-0.850000,0.000000,-0.845344,-0.088849,-0.845344,-0.262664,-0.808398,-0.425000,-0.736122,-0.568761,-0.631673,-0.687664,-0.499617,-0.776514,-0.345726,-0.831425,-0.176725,-0.850000,0.000000,
-0.831425,0.176725,-0.776514,0.345726,-0.687664,0.499617,-0.568761,0.631673,-0.425000,0.736122,-0.262664,0.808398,-0.088849,0.845344,0.000000,0.845344,0.000000,0.850000,0.635000,0.850000,0.635000,0.558106,0.635000,0.558106,$1*%
%AMFreePoly1*
4,1,31,0.000000,0.845344,0.088849,0.845344,0.262664,0.808398,0.425000,0.736122,0.568761,0.631673,0.687664,0.499617,0.776514,0.345726,0.831425,0.176725,0.850000,0.000000,0.831425,-0.176725,0.776514,-0.345726,0.687664,-0.499617,0.568761,-0.631673,0.425000,-0.736122,0.262664,-0.808398,0.088849,-0.845344,0.000000,-0.845344,0.000000,-0.850000,-0.635000,-0.850000,-0.635000,-0.558106,
-0.687664,-0.499617,-0.776514,-0.345726,-0.831425,-0.176725,-0.850000,0.000000,-0.831425,0.176725,-0.776514,0.345726,-0.687664,0.499617,-0.635000,0.558106,-0.635000,0.850000,0.000000,0.850000,0.000000,0.845344,0.000000,0.845344,$1*%
G04 Aperture macros list end*
%TA.AperFunction,CastellatedPad*%
%ADD10FreePoly0,270.000000*%
%TD*%
%TA.AperFunction,CastellatedPad*%
%ADD11FreePoly1,270.000000*%
%TD*%
%TA.AperFunction,CastellatedPad*%
%ADD12FreePoly0,0.000000*%
%TD*%
%TA.AperFunction,CastellatedPad*%
%ADD13FreePoly1,0.000000*%
%TD*%
%TA.AperFunction,ComponentPad*%
%ADD14R,1.600000X1.600000*%
%TD*%
%TA.AperFunction,ComponentPad*%
%ADD15O,1.600000X1.600000*%
%TD*%
%TA.AperFunction,ComponentPad*%
%ADD16R,1.300000X1.600000*%
%TD*%
%TA.AperFunction,ComponentPad*%
%ADD17R,3.000000X3.000000*%
%TD*%
%TA.AperFunction,ComponentPad*%
%ADD18C,3.000000*%
%TD*%
%TA.AperFunction,SMDPad,CuDef*%
%ADD19C,0.500000*%
%TD*%
%TA.AperFunction,ViaPad*%
%ADD20C,0.600000*%
%TD*%
%TA.AperFunction,ViaPad*%
%ADD21C,0.700000*%
%TD*%
%TA.AperFunction,Conductor*%
%ADD22C,0.250000*%
%TD*%
%TA.AperFunction,Conductor*%
%ADD23C,0.500000*%
%TD*%
%TA.AperFunction,Conductor*%
%ADD24C,0.200000*%
%TD*%
%TA.AperFunction,Conductor*%
%ADD25C,3.000000*%
%TD*%
%TA.AperFunction,Conductor*%
%ADD26C,1.000000*%
%TD*%
G04 APERTURE END LIST*
D10*
%TO.P,J7,1,Pin_1*%
%TO.N,Net-(J7-Pin_1)*%
X10160000Y0D03*
D11*
X10160000Y-1270000D03*
%TD*%
D10*
%TO.P,J5,1,Pin_1*%
%TO.N,Net-(J5-Pin_1)*%
X15240000Y0D03*
D11*
X15240000Y-1270000D03*
%TD*%
D12*
%TO.P,J13,1,Pin_1*%
%TO.N,Net-(J13-Pin_1)*%
X0Y-24130000D03*
D13*
X1270000Y-24130000D03*
%TD*%
D10*
%TO.P,J9,1,Pin_1*%
%TO.N,Net-(J9-Pin_1)*%
X5080000Y0D03*
D11*
X5080000Y-1270000D03*
%TD*%
D12*
%TO.P,J16,1,Pin_1*%
%TO.N,GND*%
X0Y-34290000D03*
D13*
X1270000Y-34290000D03*
%TD*%
D10*
%TO.P,J2,1,Pin_1*%
%TO.N,Net-(J2-Pin_1)*%
X22860000Y0D03*
D11*
X22860000Y-1270000D03*
%TD*%
D10*
%TO.P,J3,1,Pin_1*%
%TO.N,Net-(J3-Pin_1)*%
X20320000Y0D03*
D11*
X20320000Y-1270000D03*
%TD*%
D10*
%TO.P,J8,1,Pin_1*%
%TO.N,Net-(J8-Pin_1)*%
X7620000Y0D03*
D11*
X7620000Y-1270000D03*
%TD*%
D12*
%TO.P,J11,1,Pin_1*%
%TO.N,Net-(J11-Pin_1)*%
X0Y-19050000D03*
D13*
X1270000Y-19050000D03*
%TD*%
D12*
%TO.P,J12,1,Pin_1*%
%TO.N,Net-(J12-Pin_1)*%
X0Y-21590000D03*
D13*
X1270000Y-21590000D03*
%TD*%
D14*
%TO.P,D2,1,K*%
%TO.N,/BTN_S*%
X34163000Y-16891000D03*
D15*
%TO.P,D2,2,A*%
%TO.N,/BTN_M*%
X34163000Y-24511000D03*
%TD*%
D10*
%TO.P,J6,1,Pin_1*%
%TO.N,Net-(J6-Pin_1)*%
X12700000Y0D03*
D11*
X12700000Y-1270000D03*
%TD*%
D16*
%TO.P,D1,1,K*%
%TO.N,/BTN_S*%
X36449000Y-16891000D03*
D15*
%TO.P,D1,2,A*%
%TO.N,/BTN_H*%
X36703000Y-24511000D03*
%TD*%
D12*
%TO.P,J15,1,Pin_1*%
%TO.N,+12V*%
X0Y-31750000D03*
D13*
X1270000Y-31750000D03*
%TD*%
D12*
%TO.P,J14,1,Pin_1*%
%TO.N,Net-(J14-Pin_1)*%
X0Y-26670000D03*
D13*
X1270000Y-26670000D03*
%TD*%
D10*
%TO.P,J4,1,Pin_1*%
%TO.N,Net-(J4-Pin_1)*%
X17780000Y0D03*
D11*
X17780000Y-1270000D03*
%TD*%
D17*
%TO.P,J1,1,Pin_1*%
%TO.N,GND*%
X30226000Y-33014415D03*
D18*
%TO.P,J1,2,Pin_2*%
%TO.N,+12V*%
X35306000Y-33014415D03*
%TD*%
D19*
%TO.P,FID4,*%
%TO.N,*%
X36068000Y-29083000D03*
%TD*%
%TO.P,FID3,*%
%TO.N,*%
X2032000Y-2921000D03*
%TD*%
D20*
%TO.N,GND*%
X16256000Y-7747000D03*
D21*
X8128000Y-34290000D03*
D20*
X6096000Y-5461000D03*
X16256000Y-5461000D03*
D21*
X5753997Y-34290000D03*
D20*
X13716000Y-9652000D03*
X21336000Y-7747000D03*
D21*
X6604000Y-34290000D03*
D20*
X18796000Y-11938000D03*
X8636000Y-9652000D03*
X8636000Y-11938000D03*
X11176000Y-7747000D03*
X11176000Y-5461000D03*
X23876000Y-11938000D03*
D21*
X7366000Y-34290000D03*
D20*
X18796000Y-9652000D03*
X23876000Y-9652000D03*
X21336000Y-5461000D03*
X6096000Y-7747000D03*
X13716000Y-11938000D03*
D21*
%TO.N,+12V*%
X25272992Y-34798000D03*
X26035000Y-34798000D03*
%TO.N,/BTN_M*%
X31877000Y-22225000D03*
X32512000Y-8128000D03*
%TO.N,/SWIO*%
X27914600Y-3987800D03*
X27635200Y-20980400D03*
%TO.N,/DIG_VT_2*%
X12446000Y-25400000D03*
X20320000Y-25400000D03*
D20*
%TO.N,/DIG_VT_3*%
X17780000Y-28448000D03*
D21*
X12192000Y-27940000D03*
%TO.N,/DIG_0*%
X16510000Y-31242000D03*
D20*
X24130000Y-21717000D03*
D21*
%TO.N,/DIG_1*%
X20320000Y-32004000D03*
X24130000Y-13843000D03*
%TO.N,/DIG_2*%
X21590000Y-25400000D03*
X22860000Y-13843000D03*
D20*
%TO.N,/DIG_3*%
X21590000Y-16637000D03*
D21*
X16470000Y-24637994D03*
%TD*%
D22*
%TO.N,GND*%
X15621000Y-25146000D02*
X15787994Y-25312994D01*
X15787994Y-25312994D02*
X17105006Y-25312994D01*
D23*
X6604000Y-34290000D02*
X6604000Y-32512000D01*
X30226000Y-33014415D02*
X32176000Y-31064415D01*
D24*
X5753997Y-34290000D02*
X6604000Y-33439997D01*
D22*
X17105006Y-25312994D02*
X17272000Y-25146000D01*
D24*
X6604000Y-34290000D02*
X5753997Y-34290000D01*
D23*
X7366000Y-33274000D02*
X6604000Y-32512000D01*
X7366000Y-34290000D02*
X7366000Y-33274000D01*
X8128000Y-34290000D02*
X8128000Y-34036000D01*
X33867132Y-37211000D02*
X4191000Y-37211000D01*
X5753997Y-34290000D02*
X5753997Y-33362003D01*
D25*
X6604000Y-32512000D02*
X6604000Y-11430000D01*
D23*
X32176000Y-31064415D02*
X36113717Y-31064415D01*
X8128000Y-34290000D02*
X5753997Y-34290000D01*
X37256000Y-33822132D02*
X33867132Y-37211000D01*
X8128000Y-34036000D02*
X6604000Y-32512000D01*
X5753997Y-33362003D02*
X6604000Y-32512000D01*
X4191000Y-37211000D02*
X1270000Y-34290000D01*
X36113717Y-31064415D02*
X37256000Y-32206698D01*
X37256000Y-32206698D02*
X37256000Y-33822132D01*
D24*
X6604000Y-33439997D02*
X6604000Y-32512000D01*
D26*
%TO.N,+12V*%
X35306000Y-33014415D02*
X33380415Y-34940000D01*
X4460000Y-34940000D02*
X1270000Y-31750000D01*
X26924000Y-35687000D02*
X26035000Y-34798000D01*
X33380415Y-34945585D02*
X32639000Y-35687000D01*
X32639000Y-35687000D02*
X26924000Y-35687000D01*
X25893000Y-34940000D02*
X25273000Y-35560000D01*
D24*
X33380415Y-34940000D02*
X33380415Y-34945585D01*
D26*
X25273000Y-35560000D02*
X5080000Y-35560000D01*
X5080000Y-35560000D02*
X4460000Y-34940000D01*
D24*
X26035000Y-34798000D02*
X25893000Y-34940000D01*
D23*
%TO.N,/BTN_M*%
X32512000Y-21590000D02*
X32512000Y-8128000D01*
X31877000Y-22225000D02*
X32512000Y-21590000D01*
%TO.N,/SWIO*%
X27914600Y-3987800D02*
X27432000Y-4470400D01*
X27432000Y-4470400D02*
X27432000Y-20777200D01*
X27432000Y-20777200D02*
X27635200Y-20980400D01*
%TO.N,/DIG_VT_2*%
X13081000Y-26035000D02*
X12446000Y-25400000D01*
X19685000Y-26035000D02*
X13081000Y-26035000D01*
X20320000Y-25400000D02*
X19685000Y-26035000D01*
%TO.N,/DIG_VT_3*%
X12700000Y-28448000D02*
X12192000Y-27940000D01*
X17780000Y-28448000D02*
X12700000Y-28448000D01*
%TO.N,/DIG_0*%
X16510000Y-31242000D02*
X19812000Y-31242000D01*
X19812000Y-31242000D02*
X24130000Y-26924000D01*
X24130000Y-26924000D02*
X24130000Y-21717000D01*
%TO.N,/DIG_1*%
X24892000Y-27432000D02*
X24892000Y-14605000D01*
X20320000Y-32004000D02*
X24780000Y-27544000D01*
D24*
X24780000Y-27544000D02*
X24892000Y-27432000D01*
D23*
X24892000Y-14605000D02*
X24130000Y-13843000D01*
%TO.N,/DIG_2*%
X22860000Y-24638000D02*
X22860000Y-13843000D01*
X22098000Y-25400000D02*
X22860000Y-24638000D01*
X21590000Y-25400000D02*
X22098000Y-25400000D01*
%TO.N,/DIG_3*%
X16470000Y-21757000D02*
X21590000Y-16637000D01*
X16470000Y-24637994D02*
X16470000Y-21757000D01*
%TD*%
%TA.AperFunction,Conductor*%
%TO.N,GND*%
G36*
X6103997Y-34290000D02*
G01*
X5753997Y-34291000D01*
X5403997Y-34290000D01*
X5503997Y-33590000D01*
X6003997Y-33590000D01*
X6103997Y-34290000D01*
G37*
%TD.AperFunction*%
%TD*%
%TA.AperFunction,Conductor*%
%TO.N,GND*%
G36*
X8375487Y-34042513D02*
G01*
X8128707Y-34290707D01*
X7804642Y-34423939D01*
X7623663Y-33885217D01*
X7977217Y-33531663D01*
X8375487Y-34042513D01*
G37*
%TD.AperFunction*%
%TD*%
%TA.AperFunction,Conductor*%
%TO.N,/SWIO*%
G36*
X27683420Y-20356748D02*
G01*
X27685352Y-20359298D01*
X27952130Y-20835000D01*
X27953188Y-20843892D01*
X27947648Y-20850928D01*
X27946431Y-20851521D01*
X27637377Y-20980491D01*
X27632838Y-20981393D01*
X27295103Y-20980428D01*
X27286839Y-20976977D01*
X27283592Y-20970630D01*
X27184238Y-20366920D01*
X27186276Y-20358201D01*
X27193883Y-20353476D01*
X27195783Y-20353321D01*
X27675147Y-20353321D01*
X27683420Y-20356748D01*
G37*
%TD.AperFunction*%
%TD*%
%TA.AperFunction,Conductor*%
%TO.N,GND*%
G36*
X6954000Y-34290000D02*
G01*
X6604000Y-34291000D01*
X6254000Y-34290000D01*
X6354000Y-33590000D01*
X6854000Y-33590000D01*
X6954000Y-34290000D01*
G37*
%TD.AperFunction*%
%TD*%
%TA.AperFunction,Conductor*%
%TO.N,GND*%
G36*
X3667392Y-520185D02*
G01*
X3713147Y-572989D01*
X3724353Y-624500D01*
X3724353Y-635000D01*
X3724353Y-1359339D01*
X3735403Y-1464469D01*
X3735404Y-1464473D01*
X3772550Y-1639236D01*
X3772552Y-1639243D01*
X3805213Y-1739765D01*
X3805214Y-1739768D01*
X3877893Y-1903007D01*
X3877896Y-1903013D01*
X3930743Y-1994547D01*
X3930746Y-1994552D01*
X4035763Y-2139097D01*
X4035770Y-2139106D01*
X4059762Y-2165751D01*
X4106505Y-2217665D01*
X4231848Y-2330523D01*
X4239286Y-2337220D01*
X4239295Y-2337228D01*
X4324805Y-2399354D01*
X4324810Y-2399357D01*
X4479539Y-2488690D01*
X4479546Y-2488694D01*
X4576117Y-2531690D01*
X4746049Y-2586904D01*
X4746052Y-2586904D01*
X4746053Y-2586905D01*
X4760298Y-2589932D01*
X4849447Y-2608882D01*
X5027145Y-2627559D01*
X5027150Y-2627559D01*
X5132850Y-2627559D01*
X5132855Y-2627559D01*
X5310553Y-2608882D01*
X5413951Y-2586904D01*
X5583883Y-2531690D01*
X5680454Y-2488694D01*
X5835193Y-2399355D01*
X5920711Y-2337223D01*
X6053495Y-2217665D01*
X6124231Y-2139104D01*
X6229254Y-1994551D01*
X6242612Y-1971413D01*
X6293179Y-1923198D01*
X6361786Y-1909974D01*
X6426651Y-1935942D01*
X6457388Y-1971414D01*
X6470747Y-1994553D01*
X6575763Y-2139097D01*
X6575770Y-2139106D01*
X6599762Y-2165751D01*
X6646505Y-2217665D01*
X6771848Y-2330523D01*
X6779286Y-2337220D01*
X6779295Y-2337228D01*
X6864805Y-2399354D01*
X6864810Y-2399357D01*
X7019539Y-2488690D01*
X7019546Y-2488694D01*
X7116117Y-2531690D01*
X7286049Y-2586904D01*
X7286052Y-2586904D01*
X7286053Y-2586905D01*
X7300298Y-2589932D01*
X7389447Y-2608882D01*
X7567145Y-2627559D01*
X7567150Y-2627559D01*
X7672850Y-2627559D01*
X7672855Y-2627559D01*
X7850553Y-2608882D01*
X7953951Y-2586904D01*
X8123883Y-2531690D01*
X8220454Y-2488694D01*
X8375193Y-2399355D01*
X8460711Y-2337223D01*
X8593495Y-2217665D01*
X8664231Y-2139104D01*
X8769254Y-1994551D01*
X8782612Y-1971413D01*
X8833179Y-1923198D01*
X8901786Y-1909974D01*
X8966651Y-1935942D01*
X8997388Y-1971414D01*
X9010747Y-1994553D01*
X9115763Y-2139097D01*
X9115770Y-2139106D01*
X9139762Y-2165751D01*
X9186505Y-2217665D01*
X9311848Y-2330523D01*
X9319286Y-2337220D01*
X9319295Y-2337228D01*
X9404805Y-2399354D01*
X9404810Y-2399357D01*
X9559539Y-2488690D01*
X9559546Y-2488694D01*
X9656117Y-2531690D01*
X9826049Y-2586904D01*
X9826052Y-2586904D01*
X9826053Y-2586905D01*
X9840298Y-2589932D01*
X9929447Y-2608882D01*
X10107145Y-2627559D01*
X10107150Y-2627559D01*
X10212850Y-2627559D01*
X10212855Y-2627559D01*
X10390553Y-2608882D01*
X10493951Y-2586904D01*
X10663883Y-2531690D01*
X10760454Y-2488694D01*
X10915193Y-2399355D01*
X11000711Y-2337223D01*
X11133495Y-2217665D01*
X11204231Y-2139104D01*
X11309254Y-1994551D01*
X11322612Y-1971413D01*
X11373179Y-1923198D01*
X11441786Y-1909974D01*
X11506651Y-1935942D01*
X11537388Y-1971414D01*
X11550747Y-1994553D01*
X11655763Y-2139097D01*
X11655770Y-2139106D01*
X11679762Y-2165751D01*
X11726505Y-2217665D01*
X11851848Y-2330523D01*
X11859286Y-2337220D01*
X11859295Y-2337228D01*
X11944805Y-2399354D01*
X11944810Y-2399357D01*
X12099539Y-2488690D01*
X12099546Y-2488694D01*
X12196117Y-2531690D01*
X12366049Y-2586904D01*
X12366052Y-2586904D01*
X12366053Y-2586905D01*
X12380298Y-2589932D01*
X12469447Y-2608882D01*
X12647145Y-2627559D01*
X12647150Y-2627559D01*
X12752850Y-2627559D01*
X12752855Y-2627559D01*
X12930553Y-2608882D01*
X13033951Y-2586904D01*
X13203883Y-2531690D01*
X13300454Y-2488694D01*
X13455193Y-2399355D01*
X13540711Y-2337223D01*
X13673495Y-2217665D01*
X13744231Y-2139104D01*
X13849254Y-1994551D01*
X13862612Y-1971413D01*
X13913179Y-1923198D01*
X13981786Y-1909974D01*
X14046651Y-1935942D01*
X14077388Y-1971414D01*
X14090747Y-1994553D01*
X14195763Y-2139097D01*
X14195770Y-2139106D01*
X14219762Y-2165751D01*
X14266505Y-2217665D01*
X14391848Y-2330523D01*
X14399286Y-2337220D01*
X14399295Y-2337228D01*
X14484805Y-2399354D01*
X14484810Y-2399357D01*
X14639539Y-2488690D01*
X14639546Y-2488694D01*
X14736117Y-2531690D01*
X14906049Y-2586904D01*
X14906052Y-2586904D01*
X14906053Y-2586905D01*
X14920298Y-2589932D01*
X15009447Y-2608882D01*
X15187145Y-2627559D01*
X15187150Y-2627559D01*
X15292850Y-2627559D01*
X15292855Y-2627559D01*
X15470553Y-2608882D01*
X15573951Y-2586904D01*
X15743883Y-2531690D01*
X15840454Y-2488694D01*
X15995193Y-2399355D01*
X16080711Y-2337223D01*
X16213495Y-2217665D01*
X16284231Y-2139104D01*
X16389254Y-1994551D01*
X16402612Y-1971413D01*
X16453179Y-1923198D01*
X16521786Y-1909974D01*
X16586651Y-1935942D01*
X16617388Y-1971414D01*
X16630747Y-1994553D01*
X16735763Y-2139097D01*
X16735770Y-2139106D01*
X16759762Y-2165751D01*
X16806505Y-2217665D01*
X16931848Y-2330523D01*
X16939286Y-2337220D01*
X16939295Y-2337228D01*
X17024805Y-2399354D01*
X17024810Y-2399357D01*
X17179539Y-2488690D01*
X17179546Y-2488694D01*
X17276117Y-2531690D01*
X17446049Y-2586904D01*
X17446052Y-2586904D01*
X17446053Y-2586905D01*
X17460298Y-2589932D01*
X17549447Y-2608882D01*
X17727145Y-2627559D01*
X17727150Y-2627559D01*
X17832850Y-2627559D01*
X17832855Y-2627559D01*
X18010553Y-2608882D01*
X18113951Y-2586904D01*
X18283883Y-2531690D01*
X18380454Y-2488694D01*
X18535193Y-2399355D01*
X18620711Y-2337223D01*
X18753495Y-2217665D01*
X18824231Y-2139104D01*
X18929254Y-1994551D01*
X18942612Y-1971413D01*
X18993179Y-1923198D01*
X19061786Y-1909974D01*
X19126651Y-1935942D01*
X19157388Y-1971414D01*
X19170747Y-1994553D01*
X19275763Y-2139097D01*
X19275770Y-2139106D01*
X19299762Y-2165751D01*
X19346505Y-2217665D01*
X19471848Y-2330523D01*
X19479286Y-2337220D01*
X19479295Y-2337228D01*
X19564805Y-2399354D01*
X19564810Y-2399357D01*
X19719539Y-2488690D01*
X19719546Y-2488694D01*
X19816117Y-2531690D01*
X19986049Y-2586904D01*
X19986052Y-2586904D01*
X19986053Y-2586905D01*
X20000298Y-2589932D01*
X20089447Y-2608882D01*
X20267145Y-2627559D01*
X20267150Y-2627559D01*
X20372850Y-2627559D01*
X20372855Y-2627559D01*
X20550553Y-2608882D01*
X20653951Y-2586904D01*
X20823883Y-2531690D01*
X20920454Y-2488694D01*
X21075193Y-2399355D01*
X21160711Y-2337223D01*
X21293495Y-2217665D01*
X21364231Y-2139104D01*
X21469254Y-1994551D01*
X21482612Y-1971413D01*
X21533179Y-1923198D01*
X21601786Y-1909974D01*
X21666651Y-1935942D01*
X21697388Y-1971414D01*
X21710747Y-1994553D01*
X21815763Y-2139097D01*
X21815770Y-2139106D01*
X21839762Y-2165751D01*
X21886505Y-2217665D01*
X22011848Y-2330523D01*
X22019286Y-2337220D01*
X22019295Y-2337228D01*
X22104805Y-2399354D01*
X22104810Y-2399357D01*
X22259539Y-2488690D01*
X22259546Y-2488694D01*
X22356117Y-2531690D01*
X22526049Y-2586904D01*
X22526052Y-2586904D01*
X22526053Y-2586905D01*
X22540298Y-2589932D01*
X22629447Y-2608882D01*
X22807145Y-2627559D01*
X22807150Y-2627559D01*
X22912850Y-2627559D01*
X22912855Y-2627559D01*
X23090553Y-2608882D01*
X23193951Y-2586904D01*
X23363883Y-2531690D01*
X23460454Y-2488694D01*
X23615193Y-2399355D01*
X23700711Y-2337223D01*
X23833495Y-2217665D01*
X23904231Y-2139104D01*
X24009254Y-1994551D01*
X24062107Y-1903007D01*
X24134782Y-1739777D01*
X24167448Y-1639241D01*
X24204597Y-1464469D01*
X24215647Y-1359339D01*
X24215647Y-635000D01*
X24215647Y-624500D01*
X24235332Y-557461D01*
X24288136Y-511706D01*
X24339647Y-500500D01*
X24641000Y-500500D01*
X24708039Y-520185D01*
X24753794Y-572989D01*
X24765000Y-624500D01*
X24765000Y-12576000D01*
X24745315Y-12643039D01*
X24692511Y-12688794D01*
X24641000Y-12700000D01*
X624500Y-12700000D01*
X557461Y-12680315D01*
X511706Y-12627511D01*
X500500Y-12576000D01*
X500500Y-2921002D01*
X1276751Y-2921002D01*
X1295685Y-3089056D01*
X1351545Y-3248694D01*
X1351547Y-3248697D01*
X1441518Y-3391884D01*
X1441523Y-3391890D01*
X1561109Y-3511476D01*
X1561115Y-3511481D01*
X1704302Y-3601452D01*
X1704305Y-3601454D01*
X1704309Y-3601455D01*
X1704310Y-3601456D01*
X1776913Y-3626860D01*
X1863943Y-3657314D01*
X2031997Y-3676249D01*
X2032000Y-3676249D01*
X2032003Y-3676249D01*
X2200056Y-3657314D01*
X2200059Y-3657313D01*
X2359690Y-3601456D01*
X2359692Y-3601454D01*
X2359694Y-3601454D01*
X2359697Y-3601452D01*
X2502884Y-3511481D01*
X2502885Y-3511480D01*
X2502890Y-3511477D01*
X2622477Y-3391890D01*
X2712452Y-3248697D01*
X2712454Y-3248694D01*
X2712454Y-3248692D01*
X2712456Y-3248690D01*
X2768313Y-3089059D01*
X2768313Y-3089058D01*
X2768314Y-3089056D01*
X2787249Y-2921002D01*
X2787249Y-2920997D01*
X2768314Y-2752943D01*
X2712454Y-2593305D01*
X2712452Y-2593302D01*
X2622481Y-2450115D01*
X2622476Y-2450109D01*
X2502890Y-2330523D01*
X2502884Y-2330518D01*
X2359697Y-2240547D01*
X2359694Y-2240545D01*
X2200056Y-2184685D01*
X2032003Y-2165751D01*
X2031997Y-2165751D01*
X1863943Y-2184685D01*
X1704305Y-2240545D01*
X1704302Y-2240547D01*
X1561115Y-2330518D01*
X1561109Y-2330523D01*
X1441523Y-2450109D01*
X1441518Y-2450115D01*
X1351547Y-2593302D01*
X1351545Y-2593305D01*
X1295685Y-2752943D01*
X1276751Y-2920997D01*
X1276751Y-2921002D01*
X500500Y-2921002D01*
X500500Y-624500D01*
X520185Y-557461D01*
X572989Y-511706D01*
X624500Y-500500D01*
X3600353Y-500500D01*
X3667392Y-520185D01*
G37*
%TD.AperFunction*%
%TD*%
%TA.AperFunction,Conductor*%
%TO.N,/DIG_1*%
G36*
X20645372Y-31339424D02*
G01*
X20984575Y-31678627D01*
X20988002Y-31686900D01*
X20985662Y-31693920D01*
X20575557Y-32240726D01*
X20567852Y-32245288D01*
X20559177Y-32243066D01*
X20557953Y-32242007D01*
X20319293Y-32004707D01*
X20081995Y-31766049D01*
X20078593Y-31757769D01*
X20082044Y-31749505D01*
X20083264Y-31748449D01*
X20630080Y-31338336D01*
X20638754Y-31336115D01*
X20645372Y-31339424D01*
G37*
%TD.AperFunction*%
%TD*%
%TA.AperFunction,Conductor*%
%TO.N,GND*%
G36*
X33039604Y-31314415D02*
G01*
X31726000Y-33799323D01*
X30225000Y-33014415D01*
X29756152Y-31514415D01*
X33039604Y-30814415D01*
X33039604Y-31314415D01*
G37*
%TD.AperFunction*%
%TD*%
%TA.AperFunction,Conductor*%
%TO.N,+12V*%
G36*
X35306707Y-33013708D02*
G01*
X35712343Y-34264655D01*
X35766341Y-34431182D01*
X35765633Y-34440109D01*
X35760181Y-34445383D01*
X35329567Y-34647431D01*
X35329566Y-34647432D01*
X33551290Y-35481815D01*
X32844185Y-34774710D01*
X33879415Y-32550890D01*
X35306707Y-33013708D01*
G37*
%TD.AperFunction*%
%TD*%
%TA.AperFunction,Conductor*%
%TO.N,GND*%
G36*
X7716000Y-34290000D02*
G01*
X7366000Y-34291000D01*
X7016000Y-34290000D01*
X7116000Y-33590000D01*
X7616000Y-33590000D01*
X7716000Y-34290000D01*
G37*
%TD.AperFunction*%
%TD*%
%TA.AperFunction,Conductor*%
%TO.N,/DIG_VT_3*%
G36*
X12446494Y-27702043D02*
G01*
X12447557Y-27703273D01*
X12857662Y-28250079D01*
X12859884Y-28258754D01*
X12856575Y-28265372D01*
X12517372Y-28604575D01*
X12509099Y-28608002D01*
X12502079Y-28605662D01*
X11955273Y-28195557D01*
X11950711Y-28187852D01*
X11952933Y-28179177D01*
X11953978Y-28177967D01*
X12191293Y-27939293D01*
X12429951Y-27701994D01*
X12438230Y-27698593D01*
X12446494Y-27702043D01*
G37*
%TD.AperFunction*%
%TD*%
%TA.AperFunction,Conductor*%
%TO.N,/DIG_2*%
G36*
X21602598Y-25051010D02*
G01*
X22052696Y-25087114D01*
X22060033Y-25090504D01*
X22398124Y-25428595D01*
X22401551Y-25436868D01*
X22398124Y-25445141D01*
X22394301Y-25447689D01*
X21734704Y-25718931D01*
X21725749Y-25718908D01*
X21719456Y-25712616D01*
X21608899Y-25447689D01*
X21590198Y-25402877D01*
X21589297Y-25398352D01*
X21589974Y-25062648D01*
X21593418Y-25054384D01*
X21601698Y-25050974D01*
X21602598Y-25051010D01*
G37*
%TD.AperFunction*%
%TD*%
%TA.AperFunction,Conductor*%
%TO.N,/DIG_VT_2*%
G36*
X12700494Y-25162043D02*
G01*
X12701557Y-25163273D01*
X13111662Y-25710079D01*
X13113884Y-25718754D01*
X13110575Y-25725372D01*
X12771372Y-26064575D01*
X12763099Y-26068002D01*
X12756079Y-26065662D01*
X12209273Y-25655557D01*
X12204711Y-25647852D01*
X12206933Y-25639177D01*
X12207978Y-25637967D01*
X12445293Y-25399293D01*
X12683951Y-25161994D01*
X12692230Y-25158593D01*
X12700494Y-25162043D01*
G37*
%TD.AperFunction*%
%TD*%
%TA.AperFunction,Conductor*%
%TO.N,GND*%
G36*
X6834970Y-32607671D02*
G01*
X6704000Y-33012000D01*
X6504000Y-33012000D01*
X6373030Y-32607671D01*
X6604000Y-32511000D01*
X6834970Y-32607671D01*
G37*
%TD.AperFunction*%
%TD*%
%TA.AperFunction,Conductor*%
%TO.N,GND*%
G36*
X8129000Y-34290000D02*
G01*
X8128000Y-34640000D01*
X7428000Y-34540000D01*
X7428000Y-34040000D01*
X8128000Y-33940000D01*
X8129000Y-34290000D01*
G37*
%TD.AperFunction*%
%TD*%
%TA.AperFunction,Conductor*%
%TO.N,/BTN_M*%
G36*
X32202372Y-21560424D02*
G01*
X32541575Y-21899627D01*
X32545002Y-21907900D01*
X32542662Y-21914920D01*
X32132557Y-22461726D01*
X32124852Y-22466288D01*
X32116177Y-22464066D01*
X32114953Y-22463007D01*
X31876293Y-22225707D01*
X31638995Y-21987049D01*
X31635593Y-21978769D01*
X31639044Y-21970505D01*
X31640264Y-21969449D01*
X32187080Y-21559336D01*
X32195754Y-21557115D01*
X32202372Y-21560424D01*
G37*
%TD.AperFunction*%
%TD*%
%TA.AperFunction,Conductor*%
%TO.N,/DIG_1*%
G36*
X24384494Y-13605043D02*
G01*
X24385557Y-13606273D01*
X24795662Y-14153079D01*
X24797884Y-14161754D01*
X24794575Y-14168372D01*
X24455372Y-14507575D01*
X24447099Y-14511002D01*
X24440079Y-14508662D01*
X23893273Y-14098557D01*
X23888711Y-14090852D01*
X23890933Y-14082177D01*
X23891978Y-14080967D01*
X24129293Y-13842293D01*
X24367951Y-13604994D01*
X24376230Y-13601593D01*
X24384494Y-13605043D01*
G37*
%TD.AperFunction*%
%TD*%
%TA.AperFunction,Conductor*%
%TO.N,+12V*%
G36*
X33238488Y-33158024D02*
G01*
X33294421Y-33199896D01*
X33318838Y-33265357D01*
X33321300Y-33299778D01*
X33382109Y-33579310D01*
X33482091Y-33847373D01*
X33619191Y-34098453D01*
X33619196Y-34098461D01*
X33725882Y-34240976D01*
X33725883Y-34240977D01*
X34621195Y-33345664D01*
X34643340Y-33397002D01*
X34749433Y-33539509D01*
X34885530Y-33653709D01*
X34975215Y-33698750D01*
X34079436Y-34594530D01*
X34221960Y-34701222D01*
X34221961Y-34701223D01*
X34473042Y-34838323D01*
X34473041Y-34838323D01*
X34741106Y-34938305D01*
X34763623Y-34943204D01*
X34824947Y-34976688D01*
X34858432Y-35038011D01*
X34853448Y-35107703D01*
X34824947Y-35152051D01*
X34072319Y-35904681D01*
X34010996Y-35938166D01*
X33984638Y-35941000D01*
X31239000Y-35941000D01*
X31171961Y-35921315D01*
X31126206Y-35868511D01*
X31115000Y-35817000D01*
X31115000Y-35230362D01*
X31134685Y-35163323D01*
X31151319Y-35142681D01*
X31242767Y-35051233D01*
X31304090Y-35017748D01*
X31330446Y-35014914D01*
X31773872Y-35014914D01*
X31833483Y-35008506D01*
X31968331Y-34958211D01*
X32083546Y-34871961D01*
X32169796Y-34756746D01*
X32220091Y-34621898D01*
X32226500Y-34562288D01*
X32226499Y-34118859D01*
X32246183Y-34051822D01*
X32262809Y-34031190D01*
X33107477Y-33186522D01*
X33168796Y-33153040D01*
X33238488Y-33158024D01*
G37*
%TD.AperFunction*%
%TD*%
%TA.AperFunction,Conductor*%
%TO.N,/DIG_0*%
G36*
X16523311Y-30893901D02*
G01*
X17199955Y-30990565D01*
X17207660Y-30995127D01*
X17210000Y-31002147D01*
X17210000Y-31481853D01*
X17206573Y-31490126D01*
X17199955Y-31493435D01*
X16523316Y-31590097D01*
X16514641Y-31587875D01*
X16510079Y-31580170D01*
X16509961Y-31578556D01*
X16509000Y-31242000D01*
X16509961Y-30905449D01*
X16513412Y-30897187D01*
X16521694Y-30893784D01*
X16523311Y-30893901D01*
G37*
%TD.AperFunction*%
%TD*%
%TA.AperFunction,Conductor*%
%TO.N,GND*%
G36*
X6605000Y-34290000D02*
G01*
X6470061Y-34613358D01*
X5904000Y-34390000D01*
X5904000Y-34190000D01*
X6470061Y-33966642D01*
X6605000Y-34290000D01*
G37*
%TD.AperFunction*%
%TD*%
%TA.AperFunction,Conductor*%
%TO.N,/BTN_M*%
G36*
X32848549Y-8127961D02*
G01*
X32856812Y-8131412D01*
X32860215Y-8139694D01*
X32860097Y-8141316D01*
X32763435Y-8817955D01*
X32758873Y-8825660D01*
X32751853Y-8828000D01*
X32272147Y-8828000D01*
X32263874Y-8824573D01*
X32260565Y-8817955D01*
X32163902Y-8141316D01*
X32166124Y-8132641D01*
X32173829Y-8128079D01*
X32175442Y-8127961D01*
X32512000Y-8127000D01*
X32848549Y-8127961D01*
G37*
%TD.AperFunction*%
%TD*%
%TA.AperFunction,Conductor*%
%TO.N,GND*%
G36*
X6834970Y-32607671D02*
G01*
X6704000Y-33012000D01*
X6504000Y-33012000D01*
X6373030Y-32607671D01*
X6604000Y-32511000D01*
X6834970Y-32607671D01*
G37*
%TD.AperFunction*%
%TD*%
%TA.AperFunction,Conductor*%
%TO.N,GND*%
G36*
X7485678Y-33725525D02*
G01*
X6854000Y-34290000D01*
X6354000Y-34290000D01*
X5722322Y-33725525D01*
X6604000Y-32511000D01*
X7485678Y-33725525D01*
G37*
%TD.AperFunction*%
%TD*%
%TA.AperFunction,Conductor*%
%TO.N,GND*%
G36*
X6834970Y-32607671D02*
G01*
X6704000Y-33012000D01*
X6504000Y-33012000D01*
X6373030Y-32607671D01*
X6604000Y-32511000D01*
X6834970Y-32607671D01*
G37*
%TD.AperFunction*%
%TD*%
%TA.AperFunction,Conductor*%
%TO.N,GND*%
G36*
X6453997Y-34040000D02*
G01*
X6453997Y-34540000D01*
X5753997Y-34640000D01*
X5752997Y-34290000D01*
X5753997Y-33940000D01*
X6453997Y-34040000D01*
G37*
%TD.AperFunction*%
%TD*%
%TA.AperFunction,Conductor*%
%TO.N,+12V*%
G36*
X27756039Y-34309685D02*
G01*
X27801794Y-34362489D01*
X27813000Y-34414000D01*
X27813000Y-35944000D01*
X27793315Y-36011039D01*
X27740511Y-36056794D01*
X27689000Y-36068000D01*
X8300362Y-36068000D01*
X8233323Y-36048315D01*
X8187568Y-35995511D01*
X8177624Y-35926353D01*
X8206649Y-35862797D01*
X8212681Y-35856319D01*
X9742681Y-34326319D01*
X9804004Y-34292834D01*
X9830362Y-34290000D01*
X27689000Y-34290000D01*
X27756039Y-34309685D01*
G37*
%TD.AperFunction*%
%TD*%
%TA.AperFunction,Conductor*%
%TO.N,GND*%
G36*
X37586163Y-25653138D02*
G01*
X37599500Y-25709082D01*
X37599500Y-37475500D01*
X37579815Y-37542539D01*
X37527011Y-37588294D01*
X37475500Y-37599500D01*
X624500Y-37599500D01*
X557461Y-37579815D01*
X511706Y-37527011D01*
X500500Y-37475500D01*
X500500Y-35769142D01*
X520185Y-35702103D01*
X572989Y-35656348D01*
X624500Y-35645142D01*
X1020000Y-35645142D01*
X1020000Y-34578220D01*
X1086157Y-34629713D01*
X1206422Y-34671000D01*
X1301569Y-34671000D01*
X1395421Y-34655339D01*
X1507251Y-34594820D01*
X1520000Y-34580970D01*
X1520000Y-35622277D01*
X1639128Y-35596955D01*
X1639153Y-35596949D01*
X1739560Y-35564325D01*
X1739563Y-35564324D01*
X1902802Y-35491645D01*
X1902808Y-35491642D01*
X1994250Y-35438848D01*
X1994255Y-35438845D01*
X2138800Y-35333828D01*
X2138809Y-35333821D01*
X2217289Y-35263156D01*
X2336844Y-35130375D01*
X2336845Y-35130375D01*
X2398917Y-35044940D01*
X2398918Y-35044939D01*
X2488252Y-34890208D01*
X2488255Y-34890202D01*
X2531211Y-34793722D01*
X2558827Y-34708726D01*
X2598264Y-34651050D01*
X2662622Y-34623850D01*
X2731469Y-34635764D01*
X2764440Y-34659361D01*
X4362450Y-36257371D01*
X4364643Y-36259620D01*
X4424939Y-36323051D01*
X4424945Y-36323056D01*
X4473361Y-36356755D01*
X4480874Y-36362419D01*
X4526592Y-36399697D01*
X4526595Y-36399698D01*
X4526597Y-36399700D01*
X4553556Y-36413782D01*
X4566981Y-36421915D01*
X4591951Y-36439295D01*
X4646165Y-36462560D01*
X4654654Y-36466591D01*
X4706951Y-36493909D01*
X4728998Y-36500216D01*
X4736184Y-36502273D01*
X4750976Y-36507539D01*
X4778939Y-36519539D01*
X4778942Y-36519540D01*
X4836727Y-36531414D01*
X4845869Y-36533657D01*
X4902582Y-36549886D01*
X4932918Y-36552196D01*
X4948457Y-36554376D01*
X4978255Y-36560500D01*
X4978259Y-36560500D01*
X5037244Y-36560500D01*
X5046659Y-36560857D01*
X5105476Y-36565337D01*
X5135651Y-36561493D01*
X5151318Y-36560500D01*
X8201075Y-36560500D01*
X8218721Y-36561761D01*
X8300362Y-36573500D01*
X26427258Y-36573500D01*
X26476154Y-36583547D01*
X26490170Y-36589562D01*
X26498671Y-36593600D01*
X26550946Y-36620907D01*
X26550948Y-36620907D01*
X26550951Y-36620909D01*
X26580199Y-36629277D01*
X26594975Y-36634538D01*
X26622942Y-36646540D01*
X26622945Y-36646540D01*
X26622946Y-36646541D01*
X26680713Y-36658412D01*
X26689866Y-36660658D01*
X26746582Y-36676887D01*
X26776914Y-36679196D01*
X26792463Y-36681377D01*
X26822255Y-36687500D01*
X26822259Y-36687500D01*
X26881241Y-36687500D01*
X26890655Y-36687857D01*
X26899009Y-36688494D01*
X26949475Y-36692337D01*
X26949475Y-36692336D01*
X26949476Y-36692337D01*
X26979651Y-36688493D01*
X26995318Y-36687500D01*
X32624721Y-36687500D01*
X32627863Y-36687540D01*
X32715358Y-36689757D01*
X32715358Y-36689756D01*
X32715363Y-36689757D01*
X32773425Y-36679349D01*
X32782754Y-36678041D01*
X32841438Y-36672074D01*
X32870471Y-36662964D01*
X32885700Y-36659226D01*
X32915653Y-36653858D01*
X32915657Y-36653856D01*
X32915659Y-36653856D01*
X32970423Y-36631980D01*
X32979292Y-36628821D01*
X33035588Y-36611159D01*
X33062200Y-36596387D01*
X33076362Y-36589662D01*
X33104617Y-36578377D01*
X33153879Y-36545909D01*
X33161910Y-36541043D01*
X33213502Y-36512409D01*
X33236592Y-36492585D01*
X33249106Y-36483149D01*
X33273674Y-36466958D01*
X33340483Y-36446508D01*
X33341903Y-36446500D01*
X33984640Y-36446500D01*
X33994786Y-36445955D01*
X34038678Y-36443603D01*
X34038686Y-36443602D01*
X34038688Y-36443602D01*
X34038689Y-36443602D01*
X34045682Y-36442849D01*
X34065036Y-36440769D01*
X34065046Y-36440767D01*
X34065049Y-36440767D01*
X34074648Y-36439211D01*
X34118448Y-36432114D01*
X34253257Y-36381832D01*
X34314580Y-36348347D01*
X34429762Y-36262123D01*
X35182390Y-35509493D01*
X35250199Y-35425347D01*
X35278700Y-35380999D01*
X35327077Y-35284354D01*
X35332797Y-35258054D01*
X35366281Y-35196733D01*
X35401289Y-35172156D01*
X35974905Y-34903012D01*
X35993109Y-34893969D01*
X36004917Y-34888851D01*
X36139161Y-34838782D01*
X36390315Y-34701641D01*
X36619395Y-34530154D01*
X36821739Y-34327810D01*
X36993226Y-34098730D01*
X37130367Y-33847576D01*
X37230369Y-33579461D01*
X37291196Y-33299843D01*
X37311610Y-33014415D01*
X37291196Y-32728987D01*
X37290001Y-32723495D01*
X37230371Y-32449377D01*
X37230370Y-32449375D01*
X37230369Y-32449369D01*
X37130367Y-32181254D01*
X37081903Y-32092500D01*
X36993229Y-31930105D01*
X36993224Y-31930097D01*
X36821745Y-31701027D01*
X36821729Y-31701009D01*
X36619405Y-31498685D01*
X36619387Y-31498669D01*
X36390317Y-31327190D01*
X36390309Y-31327185D01*
X36139166Y-31190050D01*
X36139167Y-31190050D01*
X36030571Y-31149546D01*
X35871046Y-31090046D01*
X35871043Y-31090045D01*
X35871037Y-31090043D01*
X35591433Y-31029219D01*
X35306001Y-31008805D01*
X35305999Y-31008805D01*
X35020566Y-31029219D01*
X34740962Y-31090043D01*
X34472833Y-31190050D01*
X34221690Y-31327185D01*
X34221682Y-31327190D01*
X33992612Y-31498669D01*
X33992594Y-31498685D01*
X33790270Y-31701009D01*
X33790254Y-31701027D01*
X33618775Y-31930097D01*
X33618770Y-31930105D01*
X33481633Y-32181253D01*
X33481629Y-32181262D01*
X33431079Y-32316789D01*
X33423016Y-32333533D01*
X33423287Y-32333684D01*
X33421138Y-32337552D01*
X33309483Y-32577400D01*
X33263344Y-32629869D01*
X33205913Y-32648752D01*
X33104525Y-32656003D01*
X33061349Y-32659091D01*
X33061346Y-32659091D01*
X33061346Y-32659092D01*
X32926538Y-32709371D01*
X32926532Y-32709374D01*
X32867175Y-32741785D01*
X32865701Y-32742555D01*
X32865218Y-32742853D01*
X32750036Y-32829078D01*
X32750024Y-32829089D01*
X32351019Y-33228096D01*
X32289696Y-33261581D01*
X32263338Y-33264415D01*
X30944483Y-33264415D01*
X30979549Y-33147286D01*
X30989879Y-32969924D01*
X30959029Y-32794961D01*
X30945853Y-32764415D01*
X32226000Y-32764415D01*
X32226000Y-31466587D01*
X32225999Y-31466570D01*
X32219598Y-31407042D01*
X32219596Y-31407035D01*
X32169354Y-31272328D01*
X32169350Y-31272321D01*
X32083190Y-31157227D01*
X32083187Y-31157224D01*
X31968093Y-31071064D01*
X31968086Y-31071060D01*
X31833379Y-31020818D01*
X31833372Y-31020816D01*
X31797368Y-31016944D01*
X33873512Y-29083002D01*
X35312751Y-29083002D01*
X35331685Y-29251056D01*
X35387545Y-29410694D01*
X35387547Y-29410697D01*
X35477518Y-29553884D01*
X35477523Y-29553890D01*
X35597109Y-29673476D01*
X35597115Y-29673481D01*
X35740302Y-29763452D01*
X35740305Y-29763454D01*
X35740309Y-29763455D01*
X35740310Y-29763456D01*
X35812913Y-29788860D01*
X35899943Y-29819314D01*
X36067997Y-29838249D01*
X36068000Y-29838249D01*
X36068003Y-29838249D01*
X36236056Y-29819314D01*
X36236059Y-29819313D01*
X36395690Y-29763456D01*
X36395692Y-29763454D01*
X36395694Y-29763454D01*
X36395697Y-29763452D01*
X36538884Y-29673481D01*
X36538885Y-29673480D01*
X36538890Y-29673477D01*
X36658477Y-29553890D01*
X36748452Y-29410697D01*
X36748454Y-29410694D01*
X36748454Y-29410692D01*
X36748456Y-29410690D01*
X36804313Y-29251059D01*
X36804313Y-29251058D01*
X36804314Y-29251056D01*
X36823249Y-29083002D01*
X36823249Y-29082997D01*
X36804314Y-28914943D01*
X36773860Y-28827913D01*
X36748456Y-28755310D01*
X36748455Y-28755309D01*
X36748454Y-28755305D01*
X36748452Y-28755302D01*
X36658481Y-28612115D01*
X36658476Y-28612109D01*
X36538890Y-28492523D01*
X36538884Y-28492518D01*
X36395697Y-28402547D01*
X36395694Y-28402545D01*
X36236056Y-28346685D01*
X36068003Y-28327751D01*
X36067997Y-28327751D01*
X35899943Y-28346685D01*
X35740305Y-28402545D01*
X35740302Y-28402547D01*
X35597115Y-28492518D01*
X35597109Y-28492523D01*
X35477523Y-28612109D01*
X35477518Y-28612115D01*
X35387547Y-28755302D01*
X35387545Y-28755305D01*
X35331685Y-28914943D01*
X35312751Y-29082997D01*
X35312751Y-29083002D01*
X33873512Y-29083002D01*
X37571894Y-25637934D01*
X37586163Y-25653138D01*
G37*
%TD.AperFunction*%
%TA.AperFunction,Conductor*%
G36*
X946629Y-34078731D02*
G01*
X895552Y-34195177D01*
X885051Y-34321898D01*
X916266Y-34445162D01*
X978227Y-34540000D01*
X624500Y-34540000D01*
X557461Y-34520315D01*
X511706Y-34467511D01*
X500500Y-34416000D01*
X500500Y-34164000D01*
X520185Y-34096961D01*
X572989Y-34051206D01*
X624500Y-34040000D01*
X982283Y-34040000D01*
X946629Y-34078731D01*
G37*
%TD.AperFunction*%
%TA.AperFunction,Conductor*%
G36*
X29492971Y-33233869D02*
G01*
X29506147Y-33264415D01*
X29384643Y-33264415D01*
X29482314Y-33173432D01*
X29492971Y-33233869D01*
G37*
%TD.AperFunction*%
%TA.AperFunction,Conductor*%
G36*
X30476000Y-32292612D02*
G01*
X30437657Y-32283524D01*
X30476000Y-32247808D01*
X30476000Y-32292612D01*
G37*
%TD.AperFunction*%
%TD*%
%TA.AperFunction,Conductor*%
%TO.N,GND*%
G36*
X37542539Y-520185D02*
G01*
X37588294Y-572989D01*
X37599500Y-624500D01*
X37599500Y-15592747D01*
X37579815Y-15659786D01*
X37527011Y-15705541D01*
X37457853Y-15715485D01*
X37401189Y-15692013D01*
X37341335Y-15647206D01*
X37341328Y-15647202D01*
X37206482Y-15596908D01*
X37206483Y-15596908D01*
X37146883Y-15590501D01*
X37146881Y-15590500D01*
X37146873Y-15590500D01*
X37146864Y-15590500D01*
X35751129Y-15590500D01*
X35751123Y-15590501D01*
X35691516Y-15596908D01*
X35556671Y-15647202D01*
X35556669Y-15647203D01*
X35496812Y-15692013D01*
X35465458Y-15715485D01*
X35455311Y-15723081D01*
X35389847Y-15747498D01*
X35321574Y-15732647D01*
X35306689Y-15723081D01*
X35296542Y-15715485D01*
X35247258Y-15678591D01*
X35205330Y-15647203D01*
X35205328Y-15647202D01*
X35070482Y-15596908D01*
X35070483Y-15596908D01*
X35010883Y-15590501D01*
X35010881Y-15590500D01*
X35010873Y-15590500D01*
X35010865Y-15590500D01*
X33386500Y-15590500D01*
X33319461Y-15570815D01*
X33273706Y-15518011D01*
X33262500Y-15466500D01*
X33262500Y-8907736D01*
X33263746Y-8890200D01*
X33263853Y-8889448D01*
X33263855Y-8889443D01*
X33344724Y-8323346D01*
X33347313Y-8312202D01*
X33347144Y-8312166D01*
X33348496Y-8305805D01*
X33348497Y-8305803D01*
X33351780Y-8274559D01*
X33352345Y-8270005D01*
X33360517Y-8212804D01*
X33364265Y-8177994D01*
X33364383Y-8176372D01*
X33364202Y-8164985D01*
X33364866Y-8150058D01*
X33367185Y-8128000D01*
X33363559Y-8093510D01*
X33363342Y-8089897D01*
X33362970Y-8087093D01*
X33362970Y-8087086D01*
X33362968Y-8087078D01*
X33362782Y-8085676D01*
X33362382Y-8082313D01*
X33348497Y-7950198D01*
X33293252Y-7780170D01*
X33293249Y-7780164D01*
X33203859Y-7625335D01*
X33157003Y-7573296D01*
X33084235Y-7492478D01*
X33084232Y-7492476D01*
X33084231Y-7492475D01*
X33084230Y-7492474D01*
X32939593Y-7387388D01*
X32776267Y-7314671D01*
X32776265Y-7314670D01*
X32648594Y-7287533D01*
X32601391Y-7277500D01*
X32422609Y-7277500D01*
X32391954Y-7284015D01*
X32247733Y-7314670D01*
X32247728Y-7314672D01*
X32084408Y-7387387D01*
X31939768Y-7492475D01*
X31820140Y-7625336D01*
X31730750Y-7780164D01*
X31730747Y-7780170D01*
X31675504Y-7950192D01*
X31675503Y-7950194D01*
X31656815Y-8128001D01*
X31662816Y-8185107D01*
X31663495Y-8198170D01*
X31663482Y-8212799D01*
X31663483Y-8212807D01*
X31671655Y-8270015D01*
X31672221Y-8274586D01*
X31675502Y-8305805D01*
X31676854Y-8312163D01*
X31676686Y-8312198D01*
X31679274Y-8323348D01*
X31760146Y-8889444D01*
X31760153Y-8889490D01*
X31760254Y-8890194D01*
X31761500Y-8907731D01*
X31761500Y-21184646D01*
X31741815Y-21251685D01*
X31711900Y-21283846D01*
X31336958Y-21565053D01*
X31326386Y-21573575D01*
X31321457Y-21577349D01*
X31304771Y-21589472D01*
X31289548Y-21606378D01*
X31275627Y-21621837D01*
X31272587Y-21625093D01*
X31246357Y-21652184D01*
X31241998Y-21657874D01*
X31241745Y-21657680D01*
X31234420Y-21667604D01*
X31185140Y-21722336D01*
X31095750Y-21877164D01*
X31095747Y-21877170D01*
X31040504Y-22047192D01*
X31040503Y-22047194D01*
X31021815Y-22225000D01*
X31040503Y-22402805D01*
X31040504Y-22402807D01*
X31095747Y-22572829D01*
X31095750Y-22572835D01*
X31185141Y-22727665D01*
X31208375Y-22753469D01*
X31304764Y-22860521D01*
X31304767Y-22860523D01*
X31304770Y-22860526D01*
X31449407Y-22965612D01*
X31612733Y-23038329D01*
X31787609Y-23075500D01*
X31787610Y-23075500D01*
X31966389Y-23075500D01*
X31966391Y-23075500D01*
X32141267Y-23038329D01*
X32304593Y-22965612D01*
X32449230Y-22860526D01*
X32517601Y-22784591D01*
X32522085Y-22779869D01*
X32536957Y-22765026D01*
X32542298Y-22757903D01*
X32549326Y-22749356D01*
X32568859Y-22727665D01*
X32578119Y-22711623D01*
X32586298Y-22699235D01*
X32947062Y-22218220D01*
X32947074Y-22218202D01*
X32947525Y-22217602D01*
X32959037Y-22204328D01*
X32997641Y-22165724D01*
X33011260Y-22153954D01*
X33030530Y-22139610D01*
X33062372Y-22101661D01*
X33069671Y-22093694D01*
X33073591Y-22089776D01*
X33092853Y-22065413D01*
X33095076Y-22062686D01*
X33108076Y-22047194D01*
X33143302Y-22005214D01*
X33143304Y-22005209D01*
X33147274Y-21999175D01*
X33147325Y-21999208D01*
X33151369Y-21992860D01*
X33151317Y-21992828D01*
X33155106Y-21986682D01*
X33155111Y-21986677D01*
X33186832Y-21918647D01*
X33188358Y-21915496D01*
X33222040Y-21848433D01*
X33222041Y-21848428D01*
X33224508Y-21841650D01*
X33224566Y-21841671D01*
X33227043Y-21834544D01*
X33226986Y-21834526D01*
X33229256Y-21827676D01*
X33241219Y-21769735D01*
X33244439Y-21754139D01*
X33245187Y-21750762D01*
X33262500Y-21677721D01*
X33262500Y-21677717D01*
X33262501Y-21677713D01*
X33263339Y-21670548D01*
X33263398Y-21670554D01*
X33264164Y-21663054D01*
X33264105Y-21663049D01*
X33264734Y-21655859D01*
X33264355Y-21642850D01*
X33262552Y-21580869D01*
X33262500Y-21577262D01*
X33262500Y-18315499D01*
X33282185Y-18248460D01*
X33334989Y-18202705D01*
X33386495Y-18191499D01*
X35010872Y-18191499D01*
X35070483Y-18185091D01*
X35205331Y-18134796D01*
X35306689Y-18058918D01*
X35372153Y-18034502D01*
X35440426Y-18049353D01*
X35455307Y-18058916D01*
X35484031Y-18080419D01*
X35556669Y-18134796D01*
X35556671Y-18134797D01*
X35691517Y-18185091D01*
X35691516Y-18185091D01*
X35698444Y-18185835D01*
X35751127Y-18191500D01*
X37146872Y-18191499D01*
X37206483Y-18185091D01*
X37341331Y-18134796D01*
X37401190Y-18089984D01*
X37466652Y-18065568D01*
X37534925Y-18080419D01*
X37584331Y-18129823D01*
X37599500Y-18189252D01*
X37599500Y-23312917D01*
X37579815Y-23379956D01*
X37527011Y-23425711D01*
X37457853Y-23435655D01*
X37404377Y-23414492D01*
X37355734Y-23380432D01*
X37355732Y-23380431D01*
X37149497Y-23284261D01*
X37149488Y-23284258D01*
X36929697Y-23225366D01*
X36929693Y-23225365D01*
X36929692Y-23225365D01*
X36929691Y-23225364D01*
X36929686Y-23225364D01*
X36703002Y-23205532D01*
X36702998Y-23205532D01*
X36476313Y-23225364D01*
X36476302Y-23225366D01*
X36256511Y-23284258D01*
X36256502Y-23284261D01*
X36050267Y-23380431D01*
X36050265Y-23380432D01*
X35863858Y-23510954D01*
X35702954Y-23671858D01*
X35572435Y-23858262D01*
X35572431Y-23858267D01*
X35545382Y-23916275D01*
X35499209Y-23968714D01*
X35432016Y-23987866D01*
X35365135Y-23967650D01*
X35320618Y-23916275D01*
X35302094Y-23876550D01*
X35293568Y-23858266D01*
X35163047Y-23671861D01*
X35163045Y-23671858D01*
X35002141Y-23510954D01*
X34815734Y-23380432D01*
X34815732Y-23380431D01*
X34609497Y-23284261D01*
X34609488Y-23284258D01*
X34389697Y-23225366D01*
X34389693Y-23225365D01*
X34389692Y-23225365D01*
X34389691Y-23225364D01*
X34389686Y-23225364D01*
X34163002Y-23205532D01*
X34162998Y-23205532D01*
X33936313Y-23225364D01*
X33936302Y-23225366D01*
X33716511Y-23284258D01*
X33716502Y-23284261D01*
X33510267Y-23380431D01*
X33510265Y-23380432D01*
X33323858Y-23510954D01*
X33162954Y-23671858D01*
X33032435Y-23858262D01*
X33032431Y-23858267D01*
X32936261Y-24064502D01*
X32936258Y-24064511D01*
X32877366Y-24284302D01*
X32877364Y-24284313D01*
X32857532Y-24510998D01*
X32857532Y-24511001D01*
X32877364Y-24737686D01*
X32877366Y-24737697D01*
X32936258Y-24957488D01*
X32936261Y-24957497D01*
X33032431Y-25163732D01*
X33032432Y-25163734D01*
X33162954Y-25350141D01*
X33323858Y-25511045D01*
X33323861Y-25511047D01*
X33510266Y-25641568D01*
X33716504Y-25737739D01*
X33716509Y-25737740D01*
X33716511Y-25737741D01*
X33754183Y-25747835D01*
X33936308Y-25796635D01*
X34098230Y-25810801D01*
X34162998Y-25816468D01*
X34163000Y-25816468D01*
X34163002Y-25816468D01*
X34219673Y-25811509D01*
X34389692Y-25796635D01*
X34609496Y-25737739D01*
X34815734Y-25641568D01*
X35002139Y-25511047D01*
X35163047Y-25350139D01*
X35293568Y-25163734D01*
X35320618Y-25105724D01*
X35366790Y-25053285D01*
X35433983Y-25034133D01*
X35500865Y-25054348D01*
X35545382Y-25105725D01*
X35572429Y-25163728D01*
X35572432Y-25163734D01*
X35702954Y-25350141D01*
X35863858Y-25511045D01*
X35863861Y-25511047D01*
X36050266Y-25641568D01*
X36256504Y-25737739D01*
X36256509Y-25737740D01*
X36256511Y-25737741D01*
X36294183Y-25747835D01*
X36476308Y-25796635D01*
X36638230Y-25810801D01*
X36702998Y-25816468D01*
X36703000Y-25816468D01*
X36703002Y-25816468D01*
X36759673Y-25811509D01*
X36929692Y-25796635D01*
X37149496Y-25737739D01*
X37355734Y-25641568D01*
X37404380Y-25607505D01*
X37470582Y-25585180D01*
X37538349Y-25602190D01*
X37571894Y-25637934D01*
X31797368Y-31016944D01*
X31773844Y-31014415D01*
X30476000Y-31014415D01*
X30476000Y-32247808D01*
X30437656Y-32283525D01*
X30314831Y-32254415D01*
X30181733Y-32254415D01*
X30049539Y-32269866D01*
X29976000Y-32296632D01*
X29976000Y-31014415D01*
X28678155Y-31014415D01*
X28618627Y-31020816D01*
X28618620Y-31020818D01*
X28483913Y-31071060D01*
X28483906Y-31071064D01*
X28368812Y-31157224D01*
X28368809Y-31157227D01*
X28282649Y-31272321D01*
X28282645Y-31272328D01*
X28232403Y-31407035D01*
X28232401Y-31407042D01*
X28226000Y-31466570D01*
X28226000Y-32764415D01*
X29507517Y-32764415D01*
X29472451Y-32881544D01*
X29462121Y-33058906D01*
X29482314Y-33173432D01*
X29384643Y-33264415D01*
X28226000Y-33264415D01*
X28226000Y-33658000D01*
X28206315Y-33725039D01*
X28153511Y-33770794D01*
X28102000Y-33782000D01*
X9524999Y-33782000D01*
X8783819Y-34523181D01*
X8722496Y-34556666D01*
X8696138Y-34559500D01*
X5545782Y-34559500D01*
X5478743Y-34539815D01*
X5458101Y-34523181D01*
X5246472Y-34311552D01*
X5246470Y-34311549D01*
X3993827Y-33058906D01*
X2658078Y-31723158D01*
X2624594Y-31661836D01*
X2622439Y-31648439D01*
X2608882Y-31519447D01*
X2586904Y-31416049D01*
X2531690Y-31246117D01*
X2488694Y-31149546D01*
X2414373Y-31020818D01*
X2399357Y-30994810D01*
X2399354Y-30994805D01*
X2337228Y-30909295D01*
X2337220Y-30909286D01*
X2323605Y-30894165D01*
X2217665Y-30776505D01*
X2176085Y-30739066D01*
X2139106Y-30705770D01*
X2139097Y-30705763D01*
X1994552Y-30600746D01*
X1994547Y-30600743D01*
X1903013Y-30547896D01*
X1903007Y-30547893D01*
X1739768Y-30475214D01*
X1739765Y-30475213D01*
X1639243Y-30442552D01*
X1639236Y-30442550D01*
X1488552Y-30410522D01*
X1464469Y-30405403D01*
X1411904Y-30399878D01*
X1359334Y-30394352D01*
X1356228Y-30394190D01*
X1290312Y-30371022D01*
X1275041Y-30358041D01*
X1270000Y-30353000D01*
X624500Y-30353000D01*
X557461Y-30333315D01*
X511706Y-30280511D01*
X500500Y-30229000D01*
X500500Y-28149647D01*
X520185Y-28082608D01*
X572989Y-28036853D01*
X624500Y-28025647D01*
X1359335Y-28025647D01*
X1359339Y-28025647D01*
X1464469Y-28014597D01*
X1639241Y-27977448D01*
X1739777Y-27944782D01*
X1750518Y-27940000D01*
X11336815Y-27940000D01*
X11355503Y-28117805D01*
X11355504Y-28117807D01*
X11410747Y-28287829D01*
X11410750Y-28287835D01*
X11500141Y-28442665D01*
X11619770Y-28575526D01*
X11640334Y-28590467D01*
X11648733Y-28597143D01*
X11651965Y-28599949D01*
X11651973Y-28599957D01*
X11651981Y-28599963D01*
X12198799Y-29010077D01*
X12217641Y-29023683D01*
X12217551Y-29023806D01*
X12222904Y-29027523D01*
X12224541Y-29028818D01*
X12227315Y-29031078D01*
X12283015Y-29077816D01*
X12284786Y-29079302D01*
X12284788Y-29079303D01*
X12290823Y-29083272D01*
X12290789Y-29083322D01*
X12297144Y-29087370D01*
X12297177Y-29087318D01*
X12303315Y-29091104D01*
X12303323Y-29091110D01*
X12371291Y-29122804D01*
X12374452Y-29124333D01*
X12441567Y-29158040D01*
X12441572Y-29158041D01*
X12448355Y-29160510D01*
X12448334Y-29160567D01*
X12455451Y-29163040D01*
X12455470Y-29162984D01*
X12462324Y-29165255D01*
X12462325Y-29165255D01*
X12462327Y-29165256D01*
X12535848Y-29180436D01*
X12539209Y-29181181D01*
X12612279Y-29198500D01*
X12612285Y-29198500D01*
X12619452Y-29199338D01*
X12619445Y-29199397D01*
X12626946Y-29200163D01*
X12626952Y-29200104D01*
X12634141Y-29200733D01*
X12634143Y-29200732D01*
X12634144Y-29200733D01*
X12709111Y-29198552D01*
X12712717Y-29198500D01*
X17116637Y-29198500D01*
X17144409Y-29201650D01*
X17148749Y-29202648D01*
X17725391Y-29250701D01*
X17745718Y-29251983D01*
X17746651Y-29252023D01*
X17746652Y-29252022D01*
X17746653Y-29252023D01*
X17747297Y-29252003D01*
X17753264Y-29251821D01*
X17770927Y-29252542D01*
X17780000Y-29253565D01*
X17806085Y-29250625D01*
X17816164Y-29249906D01*
X17820640Y-29249770D01*
X17820648Y-29249767D01*
X17824758Y-29249195D01*
X17834572Y-29247415D01*
X17894614Y-29240650D01*
X17959249Y-29233369D01*
X17959252Y-29233368D01*
X17959255Y-29233368D01*
X18129522Y-29173789D01*
X18282262Y-29077816D01*
X18409816Y-28950262D01*
X18505789Y-28797522D01*
X18565368Y-28627255D01*
X18565369Y-28627249D01*
X18585565Y-28448003D01*
X18585565Y-28447996D01*
X18565369Y-28268750D01*
X18565368Y-28268745D01*
X18523694Y-28149647D01*
X18505789Y-28098478D01*
X18409816Y-27945738D01*
X18282262Y-27818184D01*
X18129523Y-27722211D01*
X17959254Y-27662631D01*
X17959249Y-27662630D01*
X17780004Y-27642435D01*
X17780002Y-27642435D01*
X17780000Y-27642435D01*
X17765285Y-27644092D01*
X17755080Y-27645242D01*
X17733817Y-27645800D01*
X17731190Y-27645644D01*
X17725393Y-27645298D01*
X17725392Y-27645298D01*
X17725391Y-27645298D01*
X17620545Y-27654035D01*
X17148727Y-27693353D01*
X17120283Y-27696667D01*
X17105937Y-27697500D01*
X13137103Y-27697500D01*
X13070064Y-27677815D01*
X13037903Y-27647900D01*
X12901300Y-27465763D01*
X12893113Y-27453363D01*
X12890800Y-27449358D01*
X12883859Y-27437335D01*
X12864340Y-27415657D01*
X12857291Y-27407086D01*
X12851950Y-27399964D01*
X12830028Y-27372750D01*
X12830025Y-27372747D01*
X12830019Y-27372739D01*
X12828956Y-27371509D01*
X12797769Y-27341293D01*
X12791917Y-27335222D01*
X12764232Y-27304476D01*
X12764231Y-27304475D01*
X12764230Y-27304474D01*
X12619593Y-27199388D01*
X12456267Y-27126671D01*
X12456265Y-27126670D01*
X12328594Y-27099533D01*
X12281391Y-27089500D01*
X12102609Y-27089500D01*
X12071954Y-27096015D01*
X11927733Y-27126670D01*
X11927728Y-27126672D01*
X11764408Y-27199387D01*
X11619768Y-27304475D01*
X11500140Y-27437336D01*
X11410750Y-27592164D01*
X11410747Y-27592170D01*
X11355504Y-27762192D01*
X11355503Y-27762194D01*
X11336815Y-27940000D01*
X1750518Y-27940000D01*
X1903007Y-27872107D01*
X1994551Y-27819254D01*
X2139104Y-27714231D01*
X2217665Y-27643495D01*
X2337223Y-27510711D01*
X2399355Y-27425193D01*
X2488694Y-27270454D01*
X2531690Y-27173883D01*
X2586904Y-27003951D01*
X2608882Y-26900553D01*
X2627559Y-26722855D01*
X2627559Y-26617145D01*
X2608882Y-26439447D01*
X2586904Y-26336049D01*
X2531690Y-26166117D01*
X2488694Y-26069546D01*
X2477097Y-26049459D01*
X2399357Y-25914810D01*
X2399354Y-25914805D01*
X2337228Y-25829295D01*
X2337220Y-25829286D01*
X2325679Y-25816468D01*
X2217665Y-25696505D01*
X2152615Y-25637934D01*
X2139106Y-25625770D01*
X2139097Y-25625763D01*
X1994553Y-25520747D01*
X1971414Y-25507388D01*
X1923198Y-25456821D01*
X1909974Y-25388214D01*
X1935942Y-25323349D01*
X1971414Y-25292612D01*
X1994551Y-25279254D01*
X2139104Y-25174231D01*
X2217665Y-25103495D01*
X2337223Y-24970711D01*
X2399355Y-24885193D01*
X2488694Y-24730454D01*
X2531690Y-24633883D01*
X2586904Y-24463951D01*
X2608882Y-24360553D01*
X2627559Y-24182855D01*
X2627559Y-24077145D01*
X2608882Y-23899447D01*
X2586904Y-23796049D01*
X2531690Y-23626117D01*
X2488694Y-23529546D01*
X2399355Y-23374807D01*
X2354390Y-23312917D01*
X2337228Y-23289295D01*
X2337220Y-23289286D01*
X2217665Y-23156505D01*
X2176085Y-23119066D01*
X2139106Y-23085770D01*
X2139097Y-23085763D01*
X1994553Y-22980747D01*
X1971414Y-22967388D01*
X1923198Y-22916821D01*
X1909974Y-22848214D01*
X1935942Y-22783349D01*
X1971414Y-22752612D01*
X1977097Y-22749331D01*
X1994551Y-22739254D01*
X2139104Y-22634231D01*
X2217665Y-22563495D01*
X2337223Y-22430711D01*
X2399355Y-22345193D01*
X2488694Y-22190454D01*
X2531690Y-22093883D01*
X2586904Y-21923951D01*
X2608882Y-21820553D01*
X2627559Y-21642855D01*
X2627559Y-21537145D01*
X2608882Y-21359447D01*
X2586904Y-21256049D01*
X2531690Y-21086117D01*
X2488694Y-20989546D01*
X2460369Y-20940486D01*
X2399357Y-20834810D01*
X2399354Y-20834805D01*
X2337228Y-20749295D01*
X2337220Y-20749286D01*
X2217665Y-20616505D01*
X2176085Y-20579066D01*
X2139106Y-20545770D01*
X2139097Y-20545763D01*
X1994553Y-20440747D01*
X1971414Y-20427388D01*
X1923198Y-20376821D01*
X1909974Y-20308214D01*
X1935942Y-20243349D01*
X1971414Y-20212612D01*
X1994551Y-20199254D01*
X2139104Y-20094231D01*
X2217665Y-20023495D01*
X2337223Y-19890711D01*
X2399355Y-19805193D01*
X2488694Y-19650454D01*
X2531690Y-19553883D01*
X2586904Y-19383951D01*
X2608882Y-19280553D01*
X2627559Y-19102855D01*
X2627559Y-18997145D01*
X2608882Y-18819447D01*
X2586904Y-18716049D01*
X2531690Y-18546117D01*
X2488694Y-18449546D01*
X2399355Y-18294807D01*
X2399354Y-18294805D01*
X2337228Y-18209295D01*
X2337220Y-18209286D01*
X2217665Y-18076505D01*
X2171016Y-18034502D01*
X2139106Y-18005770D01*
X2139097Y-18005763D01*
X1994552Y-17900746D01*
X1994547Y-17900743D01*
X1903013Y-17847896D01*
X1903007Y-17847893D01*
X1739768Y-17775214D01*
X1739765Y-17775213D01*
X1639243Y-17742552D01*
X1639236Y-17742550D01*
X1488552Y-17710522D01*
X1464469Y-17705403D01*
X1359339Y-17694353D01*
X1359335Y-17694353D01*
X624500Y-17694353D01*
X557461Y-17674668D01*
X511706Y-17621864D01*
X500500Y-17570353D01*
X500500Y-13459000D01*
X520185Y-13391961D01*
X572989Y-13346206D01*
X624500Y-13335000D01*
X21960119Y-13335000D01*
X22027158Y-13354685D01*
X22072913Y-13407489D01*
X22082857Y-13476647D01*
X22078050Y-13497318D01*
X22023504Y-13665192D01*
X22023503Y-13665194D01*
X22004815Y-13843001D01*
X22010816Y-13900107D01*
X22011495Y-13913170D01*
X22011482Y-13927799D01*
X22011483Y-13927807D01*
X22019655Y-13985015D01*
X22020221Y-13989586D01*
X22023502Y-14020805D01*
X22024854Y-14027163D01*
X22024686Y-14027198D01*
X22027274Y-14038348D01*
X22108146Y-14604444D01*
X22108153Y-14604490D01*
X22108254Y-14605194D01*
X22109500Y-14622731D01*
X22109500Y-15795926D01*
X22089815Y-15862965D01*
X22037011Y-15908720D01*
X21967853Y-15918664D01*
X21944546Y-15912968D01*
X21769257Y-15851632D01*
X21769249Y-15851630D01*
X21590004Y-15831435D01*
X21589996Y-15831435D01*
X21410750Y-15851630D01*
X21410745Y-15851631D01*
X21240476Y-15911211D01*
X21087734Y-16007186D01*
X21087733Y-16007186D01*
X21014033Y-16080886D01*
X21008655Y-16085953D01*
X20983793Y-16108014D01*
X20983779Y-16108028D01*
X20969981Y-16124334D01*
X20963019Y-16131902D01*
X20960182Y-16134739D01*
X20956625Y-16139200D01*
X20951647Y-16146001D01*
X20610016Y-16549749D01*
X20592242Y-16572211D01*
X20582686Y-16582945D01*
X15984358Y-21181272D01*
X15970729Y-21193051D01*
X15951469Y-21207390D01*
X15919632Y-21245331D01*
X15912346Y-21253284D01*
X15908407Y-21257224D01*
X15889176Y-21281545D01*
X15886902Y-21284337D01*
X15838694Y-21341790D01*
X15834729Y-21347819D01*
X15834682Y-21347788D01*
X15830630Y-21354147D01*
X15830679Y-21354177D01*
X15826889Y-21360321D01*
X15795192Y-21428294D01*
X15793623Y-21431536D01*
X15759957Y-21498572D01*
X15757488Y-21505357D01*
X15757432Y-21505336D01*
X15754960Y-21512450D01*
X15755015Y-21512469D01*
X15752743Y-21519325D01*
X15737573Y-21592788D01*
X15736793Y-21596304D01*
X15719499Y-21669279D01*
X15718661Y-21676454D01*
X15718601Y-21676447D01*
X15717835Y-21683945D01*
X15717895Y-21683951D01*
X15717265Y-21691140D01*
X15719448Y-21766128D01*
X15719500Y-21769735D01*
X15719500Y-23858262D01*
X15718254Y-23875799D01*
X15718147Y-23876545D01*
X15718146Y-23876550D01*
X15689489Y-24077149D01*
X15637274Y-24442644D01*
X15634689Y-24453791D01*
X15634855Y-24453827D01*
X15633503Y-24460189D01*
X15630219Y-24491424D01*
X15629653Y-24495991D01*
X15621483Y-24553186D01*
X15617734Y-24587997D01*
X15617616Y-24589621D01*
X15617796Y-24601030D01*
X15617132Y-24615941D01*
X15614815Y-24637992D01*
X15614815Y-24637996D01*
X15618441Y-24672505D01*
X15618661Y-24676122D01*
X15619230Y-24680430D01*
X15619618Y-24683702D01*
X15633503Y-24815799D01*
X15633504Y-24815801D01*
X15688747Y-24985823D01*
X15688749Y-24985826D01*
X15688750Y-24985829D01*
X15745568Y-25084241D01*
X15753801Y-25098501D01*
X15770273Y-25166401D01*
X15747420Y-25232428D01*
X15692498Y-25275618D01*
X15646413Y-25284500D01*
X13486353Y-25284500D01*
X13419314Y-25264815D01*
X13387153Y-25234900D01*
X13155300Y-24925763D01*
X13147113Y-24913363D01*
X13137860Y-24897337D01*
X13137859Y-24897335D01*
X13118340Y-24875657D01*
X13111291Y-24867086D01*
X13105950Y-24859964D01*
X13084028Y-24832750D01*
X13084025Y-24832747D01*
X13084019Y-24832739D01*
X13082956Y-24831509D01*
X13051769Y-24801293D01*
X13045917Y-24795222D01*
X13018232Y-24764476D01*
X13018231Y-24764475D01*
X13018230Y-24764474D01*
X12873593Y-24659388D01*
X12710267Y-24586671D01*
X12710265Y-24586670D01*
X12552746Y-24553189D01*
X12535391Y-24549500D01*
X12356609Y-24549500D01*
X12339254Y-24553189D01*
X12181733Y-24586670D01*
X12181728Y-24586672D01*
X12018408Y-24659387D01*
X11873768Y-24764475D01*
X11754140Y-24897336D01*
X11664750Y-25052164D01*
X11664747Y-25052170D01*
X11609504Y-25222192D01*
X11609503Y-25222194D01*
X11590815Y-25400000D01*
X11609503Y-25577805D01*
X11609504Y-25577807D01*
X11664747Y-25747829D01*
X11664750Y-25747835D01*
X11754141Y-25902665D01*
X11873770Y-26035526D01*
X11894334Y-26050467D01*
X11902733Y-26057143D01*
X11905965Y-26059949D01*
X11905973Y-26059957D01*
X11905981Y-26059963D01*
X12453396Y-26470525D01*
X12466677Y-26482044D01*
X12505268Y-26520635D01*
X12517049Y-26534267D01*
X12531390Y-26553530D01*
X12569343Y-26585376D01*
X12577319Y-26592686D01*
X12581220Y-26596588D01*
X12605543Y-26615820D01*
X12608304Y-26618069D01*
X12621104Y-26628809D01*
X12665789Y-26666305D01*
X12671818Y-26670270D01*
X12671785Y-26670319D01*
X12678143Y-26674369D01*
X12678175Y-26674319D01*
X12684317Y-26678107D01*
X12684319Y-26678108D01*
X12684323Y-26678111D01*
X12752315Y-26709816D01*
X12755560Y-26711388D01*
X12772338Y-26719814D01*
X12822567Y-26745040D01*
X12822569Y-26745040D01*
X12829361Y-26747513D01*
X12829340Y-26747570D01*
X12836455Y-26750043D01*
X12836475Y-26749986D01*
X12843323Y-26752254D01*
X12843328Y-26752257D01*
X12916852Y-26767437D01*
X12920286Y-26768199D01*
X12942814Y-26773539D01*
X12993274Y-26785499D01*
X12993275Y-26785499D01*
X12993279Y-26785500D01*
X12993283Y-26785500D01*
X13000452Y-26786338D01*
X13000444Y-26786397D01*
X13007945Y-26787164D01*
X13007951Y-26787105D01*
X13015140Y-26787734D01*
X13015144Y-26787733D01*
X13015145Y-26787734D01*
X13090131Y-26785552D01*
X13093738Y-26785500D01*
X19621295Y-26785500D01*
X19639265Y-26786809D01*
X19663023Y-26790289D01*
X19712369Y-26785971D01*
X19723176Y-26785500D01*
X19728704Y-26785500D01*
X19728709Y-26785500D01*
X19759556Y-26781893D01*
X19763030Y-26781539D01*
X19837797Y-26774999D01*
X19837805Y-26774996D01*
X19844866Y-26773539D01*
X19844878Y-26773598D01*
X19852243Y-26771965D01*
X19852229Y-26771906D01*
X19859249Y-26770241D01*
X19859255Y-26770241D01*
X19929779Y-26744572D01*
X19933117Y-26743412D01*
X20004334Y-26719814D01*
X20004342Y-26719808D01*
X20010882Y-26716760D01*
X20010908Y-26716816D01*
X20017690Y-26713532D01*
X20017663Y-26713478D01*
X20024113Y-26710238D01*
X20024117Y-26710237D01*
X20086837Y-26668984D01*
X20089732Y-26667140D01*
X20153656Y-26627712D01*
X20153662Y-26627705D01*
X20159325Y-26623229D01*
X20159362Y-26623277D01*
X20165204Y-26618518D01*
X20165164Y-26618471D01*
X20170686Y-26613835D01*
X20170696Y-26613830D01*
X20222187Y-26559251D01*
X20224598Y-26556768D01*
X20299336Y-26482030D01*
X20312610Y-26470519D01*
X20313217Y-26470063D01*
X20313220Y-26470062D01*
X20860026Y-26059957D01*
X20870646Y-26051397D01*
X20875565Y-26047633D01*
X20882115Y-26042875D01*
X20882117Y-26042872D01*
X20947924Y-26019395D01*
X21015977Y-26035222D01*
X21027882Y-26042873D01*
X21162407Y-26140612D01*
X21325733Y-26213329D01*
X21500609Y-26250500D01*
X21500610Y-26250500D01*
X21679389Y-26250500D01*
X21679391Y-26250500D01*
X21854267Y-26213329D01*
X21888790Y-26197957D01*
X21908863Y-26191013D01*
X21926957Y-26186445D01*
X21990507Y-26160311D01*
X22055634Y-26152302D01*
X22076023Y-26155289D01*
X22125369Y-26150971D01*
X22136176Y-26150500D01*
X22141704Y-26150500D01*
X22141709Y-26150500D01*
X22172556Y-26146893D01*
X22176030Y-26146539D01*
X22250797Y-26139999D01*
X22250805Y-26139996D01*
X22257866Y-26138539D01*
X22257878Y-26138598D01*
X22265243Y-26136965D01*
X22265229Y-26136906D01*
X22272249Y-26135241D01*
X22272255Y-26135241D01*
X22342779Y-26109572D01*
X22346117Y-26108412D01*
X22417334Y-26084814D01*
X22417342Y-26084808D01*
X22423882Y-26081760D01*
X22423908Y-26081816D01*
X22430690Y-26078532D01*
X22430663Y-26078478D01*
X22437113Y-26075238D01*
X22437117Y-26075237D01*
X22499837Y-26033984D01*
X22502732Y-26032140D01*
X22566656Y-25992712D01*
X22566662Y-25992705D01*
X22572325Y-25988229D01*
X22572363Y-25988277D01*
X22578200Y-25983522D01*
X22578161Y-25983475D01*
X22583691Y-25978833D01*
X22583696Y-25978830D01*
X22635184Y-25924254D01*
X22637631Y-25921735D01*
X23167819Y-25391548D01*
X23229142Y-25358063D01*
X23298834Y-25363047D01*
X23354767Y-25404919D01*
X23379184Y-25470383D01*
X23379500Y-25479229D01*
X23379500Y-26561770D01*
X23359815Y-26628809D01*
X23343181Y-26649451D01*
X19537451Y-30455181D01*
X19476128Y-30488666D01*
X19449770Y-30491500D01*
X17289731Y-30491500D01*
X17272194Y-30490254D01*
X17271449Y-30490147D01*
X17271444Y-30490146D01*
X16929759Y-30441333D01*
X16641386Y-30400136D01*
X16633145Y-30398673D01*
X16599394Y-30391500D01*
X16599391Y-30391500D01*
X16583008Y-30391500D01*
X16569756Y-30390790D01*
X16568765Y-30390683D01*
X16559780Y-30389717D01*
X16558184Y-30389602D01*
X16558168Y-30389601D01*
X16463035Y-30391126D01*
X16457360Y-30391500D01*
X16420609Y-30391500D01*
X16407187Y-30394353D01*
X16245733Y-30428670D01*
X16245728Y-30428672D01*
X16082408Y-30501387D01*
X15937768Y-30606475D01*
X15818140Y-30739336D01*
X15728750Y-30894164D01*
X15728747Y-30894170D01*
X15673504Y-31064192D01*
X15673503Y-31064194D01*
X15654815Y-31242000D01*
X15673503Y-31419805D01*
X15673504Y-31419807D01*
X15728747Y-31589829D01*
X15728750Y-31589835D01*
X15818141Y-31744665D01*
X15859812Y-31790946D01*
X15937764Y-31877521D01*
X15937767Y-31877523D01*
X15937770Y-31877526D01*
X16082407Y-31982612D01*
X16245733Y-32055329D01*
X16420609Y-32092500D01*
X16420610Y-32092500D01*
X16599388Y-32092500D01*
X16599391Y-32092500D01*
X16633167Y-32085320D01*
X16641367Y-32083864D01*
X17271443Y-31993855D01*
X17271473Y-31993850D01*
X17272202Y-31993746D01*
X17289738Y-31992500D01*
X19351957Y-31992500D01*
X19418996Y-32012185D01*
X19464751Y-32064989D01*
X19475276Y-32103533D01*
X19482679Y-32173967D01*
X19483503Y-32181804D01*
X19483504Y-32181807D01*
X19538747Y-32351829D01*
X19538750Y-32351835D01*
X19628141Y-32506665D01*
X19651375Y-32532469D01*
X19747764Y-32639521D01*
X19747767Y-32639523D01*
X19747770Y-32639526D01*
X19892407Y-32744612D01*
X20055733Y-32817329D01*
X20230609Y-32854500D01*
X20230610Y-32854500D01*
X20409389Y-32854500D01*
X20409391Y-32854500D01*
X20584267Y-32817329D01*
X20747593Y-32744612D01*
X20892230Y-32639526D01*
X20960601Y-32563591D01*
X20965085Y-32558869D01*
X20979957Y-32544026D01*
X20985298Y-32536903D01*
X20992326Y-32528356D01*
X21011859Y-32506665D01*
X21021119Y-32490623D01*
X21029298Y-32478235D01*
X21390062Y-31997220D01*
X21390081Y-31997193D01*
X21390521Y-31996607D01*
X21402033Y-31983333D01*
X25341590Y-28043777D01*
X25352306Y-28030222D01*
X25375528Y-28007667D01*
X25410530Y-27981610D01*
X25523302Y-27847214D01*
X25602040Y-27690433D01*
X25642500Y-27519721D01*
X25642500Y-20755225D01*
X26676710Y-20755225D01*
X26681028Y-20804568D01*
X26681500Y-20815376D01*
X26681500Y-20820911D01*
X26685098Y-20851695D01*
X26685464Y-20855283D01*
X26692000Y-20929991D01*
X26693461Y-20937067D01*
X26693403Y-20937078D01*
X26695034Y-20944437D01*
X26695092Y-20944424D01*
X26696757Y-20951449D01*
X26696758Y-20951454D01*
X26696759Y-20951455D01*
X26711228Y-20991211D01*
X26722400Y-21021905D01*
X26723582Y-21025307D01*
X26747182Y-21096526D01*
X26750236Y-21103074D01*
X26750182Y-21103098D01*
X26753470Y-21109888D01*
X26753521Y-21109863D01*
X26756761Y-21116313D01*
X26756762Y-21116314D01*
X26756763Y-21116317D01*
X26784313Y-21158205D01*
X26797976Y-21178979D01*
X26799916Y-21182024D01*
X26805909Y-21191741D01*
X26818299Y-21218515D01*
X26853948Y-21328231D01*
X26853950Y-21328235D01*
X26943341Y-21483065D01*
X26969817Y-21512469D01*
X27062964Y-21615921D01*
X27062967Y-21615923D01*
X27062970Y-21615926D01*
X27207607Y-21721012D01*
X27370933Y-21793729D01*
X27545809Y-21830900D01*
X27545810Y-21830900D01*
X27724589Y-21830900D01*
X27724591Y-21830900D01*
X27899467Y-21793729D01*
X28062793Y-21721012D01*
X28207430Y-21615926D01*
X28327059Y-21483065D01*
X28416450Y-21328235D01*
X28471697Y-21158203D01*
X28490385Y-20980400D01*
X28471697Y-20802597D01*
X28416450Y-20632565D01*
X28402811Y-20608941D01*
X28394513Y-20591582D01*
X28393030Y-20587740D01*
X28393027Y-20587733D01*
X28198347Y-20240591D01*
X28182500Y-20179938D01*
X28182500Y-4885631D01*
X28202185Y-4818592D01*
X28252646Y-4773936D01*
X28258149Y-4771283D01*
X28293114Y-4752701D01*
X28293118Y-4752697D01*
X28296406Y-4750546D01*
X28313880Y-4741017D01*
X28342193Y-4728412D01*
X28486830Y-4623326D01*
X28606459Y-4490465D01*
X28695850Y-4335635D01*
X28751097Y-4165603D01*
X28769785Y-3987800D01*
X28751097Y-3809997D01*
X28723473Y-3724981D01*
X28695852Y-3639970D01*
X28695849Y-3639964D01*
X28606459Y-3485135D01*
X28522501Y-3391890D01*
X28486835Y-3352278D01*
X28486832Y-3352276D01*
X28486831Y-3352275D01*
X28486830Y-3352274D01*
X28342193Y-3247188D01*
X28178867Y-3174471D01*
X28178865Y-3174470D01*
X28051194Y-3147333D01*
X28003991Y-3137300D01*
X27825209Y-3137300D01*
X27794554Y-3143815D01*
X27650333Y-3174470D01*
X27650328Y-3174472D01*
X27487008Y-3247187D01*
X27342368Y-3352275D01*
X27222739Y-3485136D01*
X27173643Y-3570174D01*
X27163656Y-3584172D01*
X27163912Y-3584364D01*
X27161253Y-3587901D01*
X27001150Y-3835947D01*
X26984648Y-3856382D01*
X26946358Y-3894672D01*
X26932729Y-3906451D01*
X26913469Y-3920790D01*
X26881632Y-3958731D01*
X26874346Y-3966684D01*
X26870407Y-3970624D01*
X26851176Y-3994945D01*
X26848902Y-3997737D01*
X26800694Y-4055190D01*
X26796729Y-4061219D01*
X26796682Y-4061188D01*
X26792630Y-4067547D01*
X26792679Y-4067577D01*
X26788889Y-4073721D01*
X26757192Y-4141694D01*
X26755623Y-4144936D01*
X26721957Y-4211972D01*
X26719488Y-4218757D01*
X26719432Y-4218736D01*
X26716960Y-4225850D01*
X26717015Y-4225869D01*
X26714743Y-4232725D01*
X26699573Y-4306188D01*
X26698793Y-4309704D01*
X26681499Y-4382679D01*
X26680661Y-4389854D01*
X26680601Y-4389847D01*
X26679835Y-4397345D01*
X26679895Y-4397351D01*
X26679265Y-4404540D01*
X26681448Y-4479528D01*
X26681500Y-4483135D01*
X26681500Y-20713494D01*
X26680191Y-20731463D01*
X26676710Y-20755225D01*
X25642500Y-20755225D01*
X25642500Y-14668705D01*
X25643809Y-14650735D01*
X25644852Y-14643614D01*
X25647289Y-14626977D01*
X25645383Y-14605194D01*
X25642972Y-14577630D01*
X25642500Y-14566822D01*
X25642500Y-14561296D01*
X25642500Y-14561291D01*
X25638901Y-14530509D01*
X25638536Y-14526929D01*
X25631999Y-14452201D01*
X25630539Y-14445129D01*
X25630597Y-14445116D01*
X25628965Y-14437757D01*
X25628906Y-14437772D01*
X25627241Y-14430751D01*
X25627241Y-14430745D01*
X25601569Y-14360212D01*
X25600421Y-14356909D01*
X25576814Y-14285666D01*
X25576810Y-14285659D01*
X25573760Y-14279118D01*
X25573815Y-14279091D01*
X25570533Y-14272313D01*
X25570480Y-14272340D01*
X25567235Y-14265880D01*
X25526025Y-14203223D01*
X25524086Y-14200181D01*
X25484710Y-14136342D01*
X25480234Y-14130682D01*
X25480281Y-14130644D01*
X25475519Y-14124799D01*
X25475474Y-14124838D01*
X25470831Y-14119305D01*
X25416273Y-14067832D01*
X25413686Y-14065319D01*
X25212038Y-13863670D01*
X25200519Y-13850389D01*
X25200063Y-13849781D01*
X25200062Y-13849779D01*
X24962776Y-13533398D01*
X24938301Y-13467958D01*
X24953091Y-13399671D01*
X25002452Y-13350222D01*
X25061977Y-13335000D01*
X25781000Y-13335000D01*
X25781000Y-624500D01*
X25800685Y-557461D01*
X25853489Y-511706D01*
X25905000Y-500500D01*
X37475500Y-500500D01*
X37542539Y-520185D01*
G37*
%TD.AperFunction*%
%TA.AperFunction,Conductor*%
G36*
X22038332Y-17406406D02*
G01*
X22090595Y-17452778D01*
X22109500Y-17518588D01*
X22109500Y-24275769D01*
X22089815Y-24342808D01*
X22073181Y-24363451D01*
X21911701Y-24524930D01*
X21850378Y-24558414D01*
X21814105Y-24560851D01*
X21691520Y-24551018D01*
X21685515Y-24550143D01*
X21679391Y-24549500D01*
X21677552Y-24549500D01*
X21667639Y-24549103D01*
X21662163Y-24548663D01*
X21643016Y-24547128D01*
X21632691Y-24546507D01*
X21622777Y-24545912D01*
X21621905Y-24545877D01*
X21548687Y-24548261D01*
X21548528Y-24548284D01*
X21531203Y-24549500D01*
X21500609Y-24549500D01*
X21483254Y-24553189D01*
X21325733Y-24586670D01*
X21325728Y-24586672D01*
X21162408Y-24659388D01*
X21162403Y-24659390D01*
X21027885Y-24757124D01*
X20962079Y-24780604D01*
X20894025Y-24764778D01*
X20882114Y-24757124D01*
X20781058Y-24683702D01*
X20747593Y-24659388D01*
X20584267Y-24586671D01*
X20584265Y-24586670D01*
X20426746Y-24553189D01*
X20409391Y-24549500D01*
X20230609Y-24549500D01*
X20213254Y-24553189D01*
X20055733Y-24586670D01*
X20055728Y-24586672D01*
X19892408Y-24659387D01*
X19747770Y-24764474D01*
X19679456Y-24840343D01*
X19674915Y-24845123D01*
X19660048Y-24859965D01*
X19660037Y-24859977D01*
X19654687Y-24867110D01*
X19647647Y-24875670D01*
X19628143Y-24897332D01*
X19628139Y-24897337D01*
X19618889Y-24913359D01*
X19610704Y-24925755D01*
X19378846Y-25234900D01*
X19322875Y-25276721D01*
X19279646Y-25284500D01*
X17293587Y-25284500D01*
X17226548Y-25264815D01*
X17180793Y-25212011D01*
X17170849Y-25142853D01*
X17186199Y-25098501D01*
X17189952Y-25091999D01*
X17251250Y-24985829D01*
X17306497Y-24815797D01*
X17325185Y-24637994D01*
X17319181Y-24580885D01*
X17318503Y-24567808D01*
X17318505Y-24565431D01*
X17318517Y-24553189D01*
X17310338Y-24495943D01*
X17309786Y-24491497D01*
X17306497Y-24460191D01*
X17306496Y-24460189D01*
X17306496Y-24460185D01*
X17305146Y-24453836D01*
X17305313Y-24453800D01*
X17302723Y-24442636D01*
X17250511Y-24077149D01*
X17221855Y-23876551D01*
X17221850Y-23876520D01*
X17221746Y-23875792D01*
X17220500Y-23858256D01*
X17220500Y-22119228D01*
X17240185Y-22052189D01*
X17256814Y-22031552D01*
X21651614Y-17636751D01*
X21673492Y-17619334D01*
X21677255Y-17616978D01*
X21905405Y-17423927D01*
X21969295Y-17395651D01*
X22038332Y-17406406D01*
G37*
%TD.AperFunction*%
%TD*%
%TA.AperFunction,Conductor*%
%TO.N,GND*%
G36*
X6834970Y-32607671D02*
G01*
X6704000Y-33012000D01*
X6504000Y-33012000D01*
X6373030Y-32607671D01*
X6604000Y-32511000D01*
X6834970Y-32607671D01*
G37*
%TD.AperFunction*%
%TD*%
%TA.AperFunction,Conductor*%
%TO.N,/DIG_0*%
G36*
X24417327Y-21716957D02*
G01*
X24425588Y-21720411D01*
X24428987Y-21728696D01*
X24428947Y-21729629D01*
X24380894Y-22306272D01*
X24376792Y-22314232D01*
X24369234Y-22317000D01*
X23890766Y-22317000D01*
X23882493Y-22313573D01*
X23879106Y-22306272D01*
X23831052Y-21729629D01*
X23833780Y-21721099D01*
X23841740Y-21716997D01*
X23842653Y-21716957D01*
X24130000Y-21716000D01*
X24417327Y-21716957D01*
G37*
%TD.AperFunction*%
%TD*%
%TA.AperFunction,Conductor*%
%TO.N,/DIG_VT_3*%
G36*
X17775900Y-28151780D02*
G01*
X17780002Y-28159740D01*
X17780042Y-28160673D01*
X17781000Y-28448000D01*
X17781000Y-28448078D01*
X17780042Y-28735326D01*
X17776588Y-28743588D01*
X17768303Y-28746987D01*
X17767370Y-28746947D01*
X17190728Y-28698894D01*
X17182768Y-28694792D01*
X17180000Y-28687234D01*
X17180000Y-28208766D01*
X17183427Y-28200493D01*
X17190728Y-28197106D01*
X17767371Y-28149052D01*
X17775900Y-28151780D01*
G37*
%TD.AperFunction*%
%TD*%
%TA.AperFunction,Conductor*%
%TO.N,/DIG_3*%
G36*
X21386171Y-16433168D02*
G01*
X21386859Y-16433799D01*
X21590707Y-16636293D01*
X21590762Y-16636348D01*
X21793200Y-16840140D01*
X21796599Y-16848425D01*
X21793145Y-16856687D01*
X21792457Y-16857318D01*
X21350731Y-17231086D01*
X21342201Y-17233814D01*
X21334900Y-17230427D01*
X20996572Y-16892099D01*
X20993145Y-16883826D01*
X20995911Y-16876271D01*
X21369683Y-16434540D01*
X21377641Y-16430440D01*
X21386171Y-16433168D01*
G37*
%TD.AperFunction*%
%TD*%
%TA.AperFunction,Conductor*%
%TO.N,/SWIO*%
G36*
X27600241Y-3857560D02*
G01*
X27910094Y-3984947D01*
X27916443Y-3991262D01*
X27916459Y-3991302D01*
X28044323Y-4300949D01*
X28044313Y-4309904D01*
X28038591Y-4315954D01*
X27684408Y-4486740D01*
X27679326Y-4487901D01*
X27203477Y-4487901D01*
X27195204Y-4484474D01*
X27191777Y-4476201D01*
X27193647Y-4469856D01*
X27302668Y-4300949D01*
X27585965Y-3862036D01*
X27593330Y-3856945D01*
X27600241Y-3857560D01*
G37*
%TD.AperFunction*%
%TD*%
%TA.AperFunction,Conductor*%
%TO.N,GND*%
G36*
X6319682Y-33865737D02*
G01*
X6077355Y-34423939D01*
X5753290Y-34290707D01*
X5620058Y-33966642D01*
X6178260Y-33724315D01*
X6319682Y-33865737D01*
G37*
%TD.AperFunction*%
%TD*%
%TA.AperFunction,Conductor*%
%TO.N,/DIG_3*%
G36*
X16718126Y-23941421D02*
G01*
X16721435Y-23948039D01*
X16818097Y-24624677D01*
X16815875Y-24633352D01*
X16808170Y-24637914D01*
X16806548Y-24638032D01*
X16470033Y-24638993D01*
X16469967Y-24638993D01*
X16133451Y-24638032D01*
X16125187Y-24634581D01*
X16121784Y-24626299D01*
X16121902Y-24624677D01*
X16218565Y-23948039D01*
X16223127Y-23940334D01*
X16230147Y-23937994D01*
X16709853Y-23937994D01*
X16718126Y-23941421D01*
G37*
%TD.AperFunction*%
%TD*%
%TA.AperFunction,Conductor*%
%TO.N,/DIG_2*%
G36*
X23196549Y-13842961D02*
G01*
X23204812Y-13846412D01*
X23208215Y-13854694D01*
X23208097Y-13856316D01*
X23111435Y-14532955D01*
X23106873Y-14540660D01*
X23099853Y-14543000D01*
X22620147Y-14543000D01*
X22611874Y-14539573D01*
X22608565Y-14532955D01*
X22511902Y-13856316D01*
X22514124Y-13847641D01*
X22521829Y-13843079D01*
X22523442Y-13842961D01*
X22860000Y-13842000D01*
X23196549Y-13842961D01*
G37*
%TD.AperFunction*%
%TD*%
%TA.AperFunction,Conductor*%
%TO.N,GND*%
G36*
X8104000Y-32512000D02*
G01*
X8304776Y-33859222D01*
X7951222Y-34212776D01*
X6604000Y-34012000D01*
X6603293Y-32511293D01*
X8104000Y-32512000D01*
G37*
%TD.AperFunction*%
%TD*%
%TA.AperFunction,Conductor*%
%TO.N,GND*%
G36*
X6453997Y-34190000D02*
G01*
X6453997Y-34390000D01*
X5887936Y-34613358D01*
X5752997Y-34290000D01*
X5887936Y-33966642D01*
X6453997Y-34190000D01*
G37*
%TD.AperFunction*%
%TD*%
%TA.AperFunction,Conductor*%
%TO.N,/DIG_VT_2*%
G36*
X20080822Y-25160933D02*
G01*
X20082045Y-25161991D01*
X20320707Y-25399293D01*
X20558003Y-25637949D01*
X20561406Y-25646230D01*
X20557955Y-25654494D01*
X20556726Y-25655557D01*
X20009920Y-26065662D01*
X20001245Y-26067884D01*
X19994627Y-26064575D01*
X19655424Y-25725372D01*
X19651997Y-25717099D01*
X19654336Y-25710080D01*
X20064443Y-25163271D01*
X20072147Y-25158711D01*
X20080822Y-25160933D01*
G37*
%TD.AperFunction*%
%TD*%
M02*
