0
SECTION
2
HEADER
9
$INSUNITS
70
4
9
$ACADVER
1
AC1014
9
$HANDSEED
5
FFFF
0
ENDSEC
0
SECTION
2
TABLES
0
TABLE
2
VPORT
5
8
100
AcDbSymbolTable
0
ENDTAB
0
TABLE
2
LTYPE
5
5
100
AcDbSymbolTable
0
LTYPE
5
14
100
AcDbSymbolTableRecord
100
AcDbLinetypeTableRecord
2
BYBLOCK
70
0
0
LTYPE
5
15
100
AcDbSymbolTableRecord
100
AcDbLinetypeTableRecord
2
BYLAYER
70
0
0
LTYPE
5
16
100
AcDbSymbolTableRecord
100
AcDbLinetypeTableRecord
2
DASHED
70
0
3
Dashed __ __ __ __ __ __ __ __ __ __ __ __ __ _
72
65
73
2
40
0.75
49
0.5
74
0
49
-0.25
74
0
0
ENDTAB
0
TABLE
2
LAYER
5
2
100
AcDbSymbolTable
70
2
0
LAYER
5
50
100
AcDbSymbolTableRecord
100
AcDbLayerTableRecord
2
0
70
0
62
7
6
CONTINUOUS
0
ENDTAB
0
TABLE
2
STYLE
5
3
100
AcDbSymbolTable
70
1
0
STYLE
5
11
100
AcDbSymbolTableRecord
100
AcDbTextStyleTableRecord
2
STANDARD
70
0
0
ENDTAB
0
TABLE
2
VIEW
5
6
100
AcDbSymbolTable
70
0
0
ENDTAB
0
TABLE
2
UCS
5
7
100
AcDbSymbolTable
70
0
0
ENDTAB
0
TABLE
2
APPID
5
9
100
AcDbSymbolTable
70
2
0
APPID
5
12
100
AcDbSymbolTableRecord
100
AcDbRegAppTableRecord
2
ACAD
70
0
0
ENDTAB
0
TABLE
2
DIMSTYLE
5
A
100
AcDbSymbolTable
70
1
0
ENDTAB
0
TABLE
2
BLOCK_RECORD
5
1
100
AcDbSymbolTable
70
1
0
BLOCK_RECORD
5
1F
100
AcDbSymbolTableRecord
100
AcDbBlockTableRecord
2
*MODEL_SPACE
0
BLOCK_RECORD
5
1B
100
AcDbSymbolTableRecord
100
AcDbBlockTableRecord
2
*PAPER_SPACE
0
ENDTAB
0
ENDSEC
0
SECTION
2
BLOCKS
0
BLOCK
5
20
100
AcDbEntity
100
AcDbBlockBegin
2
*MODEL_SPACE
0
ENDBLK
5
21
100
AcDbEntity
100
AcDbBlockEnd
0
BLOCK
5
1C
100
AcDbEntity
100
AcDbBlockBegin
2
*PAPER_SPACE
0
ENDBLK
5
1D
100
AcDbEntity
100
AcDbBlockEnd
0
ENDSEC
0
SECTION
2
ENTITIES
0
POINT
5
100
100
AcDbEntity
8
0
100
AcDbPoint
10
0
20
0
30
0
0
POINT
5
101
100
AcDbEntity
8
0
100
AcDbPoint
10
0
20
0
30
0
0
LINE
5
102
100
AcDbEntity
8
0
100
AcDbLine
10
-21.133471552788134
20
-15.733471552788128
30
0
11
21.133471552788127
21
-15.73347155278813
31
0
6
DASHED
0
LINE
5
103
100
AcDbEntity
8
0
100
AcDbLine
10
21.133471552788127
20
-15.73347155278813
30
0
11
21.133471552788134
21
15.73347155278813
31
0
6
DASHED
0
LINE
5
104
100
AcDbEntity
8
0
100
AcDbLine
10
21.133471552788134
20
15.73347155278813
30
0
11
-21.133471552788134
21
15.733471552788135
31
0
6
DASHED
0
LINE
5
105
100
AcDbEntity
8
0
100
AcDbLine
10
-21.133471552788134
20
15.733471552788135
30
0
11
-21.133471552788134
21
-15.733471552788128
31
0
6
DASHED
0
LWPOLYLINE
5
106
100
AcDbEntity
8
0
100
AcDbPolyline
90
4
70
1
43
0.0
10
21.5
20
16.25
10
-21.5
20
16.25
10
-21.5
20
-16.25
10
21.5
20
-16.25
0
LINE
5
107
100
AcDbEntity
8
0
100
AcDbLine
10
21.5
20
16.25
30
0
11
-21.5
21
-16.25
31
0
6
DASHED
0
LINE
5
108
100
AcDbEntity
8
0
100
AcDbLine
10
-21.5
20
16.25
30
0
11
21.5
21
-16.25
31
0
6
DASHED
0
LINE
5
109
100
AcDbEntity
8
0
100
AcDbLine
10
-20.5
20
-15.25
30
0
11
20.5
21
-15.25
31
0
6
DASHED
0
LINE
5
110
100
AcDbEntity
8
0
100
AcDbLine
10
20.5
20
-15.25
30
0
11
20.5
21
15.25
31
0
6
DASHED
0
LINE
5
111
100
AcDbEntity
8
0
100
AcDbLine
10
20.5
20
15.25
30
0
11
-20.5
21
15.25
31
0
6
DASHED
0
LINE
5
112
100
AcDbEntity
8
0
100
AcDbLine
10
-20.5
20
15.25
30
0
11
-20.5
21
-15.25
31
0
6
DASHED
0
LWPOLYLINE
5
113
100
AcDbEntity
8
0
100
AcDbPolyline
90
4
70
1
43
0.0
10
19.100000000000001
20
15.120000000000001
10
9.100000000000005
20
15.120000000000001
10
9.100000000000005
20
-15.120000000000001
10
19.100000000000005
20
-15.120000000000001
0
LINE
5
114
100
AcDbEntity
8
0
100
AcDbLine
10
19.100000000000001
20
15.120000000000001
30
0
11
9.100000000000005
21
-15.120000000000001
31
0
6
DASHED
0
LINE
5
115
100
AcDbEntity
8
0
100
AcDbLine
10
19.100000000000005
20
-15.120000000000001
30
0
11
9.100000000000005
21
15.120000000000001
31
0
6
DASHED
0
LINE
5
116
100
AcDbEntity
8
0
100
AcDbLine
10
0
20
0
30
0
11
14.100000000000001
21
0
31
0
6
DASHED
0
LWPOLYLINE
5
117
100
AcDbEntity
8
0
100
AcDbPolyline
90
4
70
1
43
0.0
10
7.0000000000000018
20
5.3000000000000016
10
-0.99999999999999956
20
5.3000000000000016
10
-1.0000000000000027
20
-2.6999999999999993
10
7.0000000000000018
20
-2.6999999999999993
0
LINE
5
118
100
AcDbEntity
8
0
100
AcDbLine
10
-10.199999999999999
20
-2.7000000000000037
30
0
11
-2.2000000000000015
21
5.3000000000000034
31
0
6
DASHED
0
LINE
5
119
100
AcDbEntity
8
0
100
AcDbLine
10
-2.2000000000000011
20
-2.6999999999999984
30
0
11
-10.199999999999999
21
5.3000000000000034
31
0
6
DASHED
0
LWPOLYLINE
5
120
100
AcDbEntity
8
0
100
AcDbPolyline
90
4
70
1
43
0.0
10
-19.875000000000004
20
-15.25
10
-11.874999999999998
20
-15.25
10
-11.874999999999998
20
-7.249999999999984
10
-19.875000000000004
20
-7.2499999999999973
0
CIRCLE
5
121
100
AcDbEntity
8
0
100
AcDbCircle
10
-18
20
-5
30
0
40
2.0999999999999992
210
0
220
0
230
1
0
LINE
5
122
100
AcDbEntity
8
0
100
AcDbLine
10
-6.2000000000000011
20
1.3
30
0
11
-6.2000000000000011
21
0
31
0
6
DASHED
0
LINE
5
123
100
AcDbEntity
8
0
100
AcDbLine
10
-6.2000000000000011
20
0
30
0
11
0
21
0
31
0
6
DASHED
0
LINE
5
124
100
AcDbEntity
8
0
100
AcDbLine
10
-18
20
-5
30
0
11
-18
21
-1.2438005749933563e-31
31
0
6
DASHED
0
LINE
5
125
100
AcDbEntity
8
0
100
AcDbLine
10
-18
20
-1.2438005749933563e-31
30
0
11
-6.2000000000000011
21
0
31
0
6
DASHED
0
LINE
5
126
100
AcDbEntity
8
0
100
AcDbLine
10
-19.875000000000004
20
-7.2499999999999973
30
0
11
-11.874999999999998
21
-15.25
31
0
6
DASHED
0
LINE
5
127
100
AcDbEntity
8
0
100
AcDbLine
10
-11.874999999999998
20
-7.249999999999984
30
0
11
-19.875000000000004
21
-15.25
31
0
6
DASHED
0
LINE
5
128
100
AcDbEntity
8
0
100
AcDbLine
10
-15.875000000000002
20
-11.25
30
0
11
-15.875000000000002
21
1.1040535131537535e-15
31
0
6
DASHED
0
LWPOLYLINE
5
129
100
AcDbEntity
8
0
100
AcDbPolyline
90
4
70
1
43
0.0
10
-2.2000000000000015
20
5.3000000000000034
10
-10.199999999999999
20
5.3000000000000034
10
-10.199999999999999
20
-2.7000000000000037
10
-2.2000000000000011
20
-2.6999999999999984
0
LINE
5
130
100
AcDbEntity
8
0
100
AcDbLine
10
-2.2000000000000015
20
1.3000000000000023
30
0
11
-1.0000000000000011
21
1.3000000000000016
31
0
6
DASHED
0
LWPOLYLINE
5
131
100
AcDbEntity
8
0
100
AcDbPolyline
90
4
70
1
43
0.0
10
-11.399999999999999
20
5.299999999999998
10
-19.399999999999999
20
5.299999999999998
10
-19.399999999999999
20
-2.7000000000000024
10
-11.399999999999999
20
-2.7000000000000024
0
LINE
5
132
100
AcDbEntity
8
0
100
AcDbLine
10
-11.399999999999999
20
1.2999999999999976
30
0
11
-10.199999999999999
21
1.2999999999999998
31
0
6
DASHED
0
LWPOLYLINE
5
133
100
AcDbEntity
8
0
100
AcDbPolyline
90
4
70
1
43
0.0
10
-10.200000000000003
20
6.5000000000000036
10
-2.2000000000000028
20
6.5000000000000036
10
-2.2000000000000028
20
14.500000000000004
10
-10.200000000000003
20
14.500000000000004
0
LWPOLYLINE
5
134
100
AcDbEntity
8
0
100
AcDbPolyline
90
4
70
1
43
0.0
10
-10.199999999999999
20
-3.9000000000000004
10
-2.2000000000000002
20
-3.9000000000000004
10
-2.2000000000000002
20
-11.900000000000002
10
-10.199999999999999
20
-11.900000000000002
0
LINE
5
135
100
AcDbEntity
8
0
100
AcDbLine
10
-6.2000000000000028
20
6.5000000000000036
30
0
11
-6.2000000000000011
21
5.3000000000000034
31
0
6
DASHED
0
LINE
5
136
100
AcDbEntity
8
0
100
AcDbLine
10
-6.2000000000000002
20
-2.7000000000000006
30
0
11
-6.2000000000000002
21
-3.9000000000000004
31
0
6
DASHED
0
ENDSEC
0
SECTION
2
OBJECTS
0
DICTIONARY
5
C
100
AcDbDictionary
3
ACAD_GROUP
350
D
3
ACAD_MLINESTYLE
350
17
0
DICTIONARY
5
D
100
AcDbDictionary
0
DICTIONARY
5
1A
330
C
100
AcDbDictionary
0
DICTIONARY
5
17
100
AcDbDictionary
0
ENDSEC
0
EOF
