0
SECTION
2
HEADER
9
$INSUNITS
70
4
9
$ACADVER
1
AC1014
9
$HANDSEED
5
FFFF
0
ENDSEC
0
SECTION
2
TABLES
0
TABLE
2
VPORT
5
8
100
AcDbSymbolTable
0
ENDTAB
0
TABLE
2
LTYPE
5
5
100
AcDbSymbolTable
0
LTYPE
5
14
100
AcDbSymbolTableRecord
100
AcDbLinetypeTableRecord
2
BYBLOCK
70
0
0
LTYPE
5
15
100
AcDbSymbolTableRecord
100
AcDbLinetypeTableRecord
2
BYLAYER
70
0
0
LTYPE
5
16
100
AcDbSymbolTableRecord
100
AcDbLinetypeTableRecord
2
DASHED
70
0
3
Dashed __ __ __ __ __ __ __ __ __ __ __ __ __ _
72
65
73
2
40
0.75
49
0.5
74
0
49
-0.25
74
0
0
ENDTAB
0
TABLE
2
LAYER
5
2
100
AcDbSymbolTable
70
2
0
LAYER
5
50
100
AcDbSymbolTableRecord
100
AcDbLayerTableRecord
2
0
70
0
62
7
6
CONTINUOUS
0
ENDTAB
0
TABLE
2
STYLE
5
3
100
AcDbSymbolTable
70
1
0
STYLE
5
11
100
AcDbSymbolTableRecord
100
AcDbTextStyleTableRecord
2
STANDARD
70
0
0
ENDTAB
0
TABLE
2
VIEW
5
6
100
AcDbSymbolTable
70
0
0
ENDTAB
0
TABLE
2
UCS
5
7
100
AcDbSymbolTable
70
0
0
ENDTAB
0
TABLE
2
APPID
5
9
100
AcDbSymbolTable
70
2
0
APPID
5
12
100
AcDbSymbolTableRecord
100
AcDbRegAppTableRecord
2
ACAD
70
0
0
ENDTAB
0
TABLE
2
DIMSTYLE
5
A
100
AcDbSymbolTable
70
1
0
ENDTAB
0
TABLE
2
BLOCK_RECORD
5
1
100
AcDbSymbolTable
70
1
0
BLOCK_RECORD
5
1F
100
AcDbSymbolTableRecord
100
AcDbBlockTableRecord
2
*MODEL_SPACE
0
BLOCK_RECORD
5
1B
100
AcDbSymbolTableRecord
100
AcDbBlockTableRecord
2
*PAPER_SPACE
0
ENDTAB
0
ENDSEC
0
SECTION
2
BLOCKS
0
BLOCK
5
20
100
AcDbEntity
100
AcDbBlockBegin
2
*MODEL_SPACE
0
ENDBLK
5
21
100
AcDbEntity
100
AcDbBlockEnd
0
BLOCK
5
1C
100
AcDbEntity
100
AcDbBlockBegin
2
*PAPER_SPACE
0
ENDBLK
5
1D
100
AcDbEntity
100
AcDbBlockEnd
0
ENDSEC
0
SECTION
2
ENTITIES
0
POINT
5
100
100
AcDbEntity
8
0
100
AcDbPoint
10
-15.875000000000002
20
-11.25
30
0
0
POINT
5
101
100
AcDbEntity
8
0
100
AcDbPoint
10
-18
20
-5
30
0
0
POINT
5
102
100
AcDbEntity
8
0
100
AcDbPoint
10
5.9999999999999973
20
-11.549999999999997
30
0
0
POINT
5
103
100
AcDbEntity
8
0
100
AcDbPoint
10
-6.2000000000000011
20
1.3
30
0
0
POINT
5
104
100
AcDbEntity
8
0
100
AcDbPoint
10
-17.499999999999996
20
12.449999999999999
30
0
0
POINT
5
105
100
AcDbEntity
8
0
100
AcDbPoint
10
14.500000000000002
20
11.549999999999997
30
0
0
POINT
5
106
100
AcDbEntity
8
0
100
AcDbPoint
10
14.100000000000001
20
0
30
0
0
POINT
5
107
100
AcDbEntity
8
0
100
AcDbPoint
10
-6.2000000000000002
20
-7.9000000000000004
30
0
0
POINT
5
108
100
AcDbEntity
8
0
100
AcDbPoint
10
-15.4
20
1.2999999999999978
30
0
0
POINT
5
109
100
AcDbEntity
8
0
100
AcDbPoint
10
-6.2000000000000028
20
10.500000000000004
30
0
0
POINT
5
110
100
AcDbEntity
8
0
100
AcDbPoint
10
3.0000000000000009
20
1.3000000000000012
30
0
0
POINT
5
111
100
AcDbEntity
8
0
100
AcDbPoint
10
3.0000000000000004
20
10.500000000000004
30
0
0
LWPOLYLINE
5
112
100
AcDbEntity
8
0
100
AcDbPolyline
90
4
70
1
43
0.0
10
-20.5
20
15.25
10
-20.5
20
-15.25
10
20.5
20
-15.25
10
20.5
20
15.25
0
LINE
5
113
100
AcDbEntity
8
0
100
AcDbLine
10
20.5
20
15.25
30
0
11
14.100000000000001
21
15.25
31
0
6
DASHED
0
LINE
5
114
100
AcDbEntity
8
0
100
AcDbLine
10
14.100000000000001
20
15.25
30
0
11
14.100000000000001
21
0
31
0
6
DASHED
0
LINE
5
115
100
AcDbEntity
8
0
100
AcDbLine
10
14.100000000000001
20
0
30
0
11
20.5
21
0
31
0
6
DASHED
0
LINE
5
116
100
AcDbEntity
8
0
100
AcDbLine
10
20.5
20
0
30
0
11
20.5
21
15.25
31
0
6
DASHED
0
LINE
5
117
100
AcDbEntity
8
0
100
AcDbLine
10
20.5
20
15.25
30
0
11
5.9999999999999964
21
15.25
31
0
6
DASHED
0
LINE
5
118
100
AcDbEntity
8
0
100
AcDbLine
10
14.500000000000002
20
11.549999999999997
30
0
11
20.5
21
11.549999999999997
31
0
6
DASHED
0
LINE
5
119
100
AcDbEntity
8
0
100
AcDbLine
10
20.5
20
11.549999999999997
30
0
11
20.5
21
15.25
31
0
6
DASHED
0
LINE
5
120
100
AcDbEntity
8
0
100
AcDbLine
10
20.5
20
15.25
30
0
11
3.0000000000000004
21
15.25
31
0
6
DASHED
0
LINE
5
121
100
AcDbEntity
8
0
100
AcDbLine
10
3.0000000000000004
20
15.25
30
0
11
3.0000000000000009
21
1.3000000000000012
31
0
6
DASHED
0
LINE
5
122
100
AcDbEntity
8
0
100
AcDbLine
10
3.0000000000000009
20
1.3000000000000012
30
0
11
20.5
21
1.3000000000000012
31
0
6
DASHED
0
LINE
5
123
100
AcDbEntity
8
0
100
AcDbLine
10
20.5
20
1.3000000000000012
30
0
11
20.5
21
15.25
31
0
6
DASHED
0
LINE
5
124
100
AcDbEntity
8
0
100
AcDbLine
10
20.5
20
15.25
30
0
11
5.9999999999999964
21
15.25
31
0
6
DASHED
0
LINE
5
125
100
AcDbEntity
8
0
100
AcDbLine
10
5.9999999999999964
20
15.25
30
0
11
5.9999999999999973
21
-11.549999999999997
31
0
6
DASHED
0
LINE
5
126
100
AcDbEntity
8
0
100
AcDbLine
10
5.9999999999999973
20
-11.549999999999997
30
0
11
20.5
21
-11.549999999999997
31
0
6
DASHED
0
LINE
5
127
100
AcDbEntity
8
0
100
AcDbLine
10
20.5
20
-11.549999999999997
30
0
11
20.5
21
15.25
31
0
6
DASHED
0
LINE
5
128
100
AcDbEntity
8
0
100
AcDbLine
10
20.5
20
15.25
30
0
11
-6.2000000000000011
21
15.25
31
0
6
DASHED
0
LINE
5
129
100
AcDbEntity
8
0
100
AcDbLine
10
-6.2000000000000011
20
15.25
30
0
11
-6.2000000000000002
21
-7.9000000000000004
31
0
6
DASHED
0
LINE
5
130
100
AcDbEntity
8
0
100
AcDbLine
10
-6.2000000000000002
20
-7.9000000000000004
30
0
11
20.5
21
-7.9000000000000004
31
0
6
DASHED
0
LINE
5
131
100
AcDbEntity
8
0
100
AcDbLine
10
20.5
20
-7.9000000000000004
30
0
11
20.5
21
15.25
31
0
6
DASHED
0
LINE
5
132
100
AcDbEntity
8
0
100
AcDbLine
10
-6.2000000000000011
20
1.3
30
0
11
3.0000000000000009
21
1.3000000000000012
31
0
6
DASHED
0
LINE
5
133
100
AcDbEntity
8
0
100
AcDbLine
10
-6.2000000000000028
20
10.500000000000004
30
0
11
20.5
21
10.500000000000004
31
0
6
DASHED
0
LINE
5
134
100
AcDbEntity
8
0
100
AcDbLine
10
-17.499999999999996
20
12.449999999999999
30
0
11
20.5
21
12.449999999999999
31
0
6
DASHED
0
LINE
5
135
100
AcDbEntity
8
0
100
AcDbLine
10
20.5
20
12.449999999999999
30
0
11
20.5
21
15.25
31
0
6
DASHED
0
LINE
5
136
100
AcDbEntity
8
0
100
AcDbLine
10
20.5
20
15.25
30
0
11
-17.499999999999996
21
15.25
31
0
6
DASHED
0
LINE
5
137
100
AcDbEntity
8
0
100
AcDbLine
10
-17.499999999999996
20
15.25
30
0
11
-17.499999999999996
21
12.449999999999999
31
0
6
DASHED
0
LINE
5
138
100
AcDbEntity
8
0
100
AcDbLine
10
-15.4
20
1.2999999999999978
30
0
11
-6.2000000000000011
21
1.3
31
0
6
DASHED
0
LINE
5
139
100
AcDbEntity
8
0
100
AcDbLine
10
-15.4
20
1.2999999999999978
30
0
11
-15.4
21
15.25
31
0
6
DASHED
0
LINE
5
140
100
AcDbEntity
8
0
100
AcDbLine
10
-18
20
-5
30
0
11
20.5
21
-5
31
0
6
DASHED
0
LINE
5
141
100
AcDbEntity
8
0
100
AcDbLine
10
20.5
20
-5
30
0
11
20.5
21
15.25
31
0
6
DASHED
0
LINE
5
142
100
AcDbEntity
8
0
100
AcDbLine
10
20.5
20
15.25
30
0
11
-18
21
15.25
31
0
6
DASHED
0
LINE
5
143
100
AcDbEntity
8
0
100
AcDbLine
10
-18
20
15.25
30
0
11
-18
21
-5
31
0
6
DASHED
0
LINE
5
144
100
AcDbEntity
8
0
100
AcDbLine
10
-15.875000000000002
20
-11.25
30
0
11
20.5
21
-11.25
31
0
6
DASHED
0
LINE
5
145
100
AcDbEntity
8
0
100
AcDbLine
10
20.5
20
-11.25
30
0
11
20.5
21
15.25
31
0
6
DASHED
0
LINE
5
146
100
AcDbEntity
8
0
100
AcDbLine
10
20.5
20
15.25
30
0
11
-15.875000000000002
21
15.25
31
0
6
DASHED
0
LINE
5
147
100
AcDbEntity
8
0
100
AcDbLine
10
-15.875000000000002
20
15.25
30
0
11
-15.875000000000002
21
-11.25
31
0
6
DASHED
0
ENDSEC
0
SECTION
2
OBJECTS
0
DICTIONARY
5
C
100
AcDbDictionary
3
ACAD_GROUP
350
D
3
ACAD_MLINESTYLE
350
17
0
DICTIONARY
5
D
100
AcDbDictionary
0
DICTIONARY
5
1A
330
C
100
AcDbDictionary
0
DICTIONARY
5
17
100
AcDbDictionary
0
ENDSEC
0
EOF
