<?xml version="1.0" standalone="no"?>
 <!DOCTYPE svg PUBLIC "-//W3C//DTD SVG 1.1//EN" 
 "http://www.w3.org/Graphics/SVG/1.1/DTD/svg11.dtd"> 
<svg
  xmlns:svg="http://www.w3.org/2000/svg"
  xmlns="http://www.w3.org/2000/svg"
  xmlns:xlink="http://www.w3.org/1999/xlink"
  version="1.1"
  width="297.0022mm" height="210.0072mm" viewBox="0.0000 0.0000 297.0022 210.0072">
<title>SVG Image created as driver_board-NPTH-drl_map.svg date 2023/12/26 16:59:58 </title>
  <desc>Image generated by PCBNEW </desc>
<g style="fill:#000000; fill-opacity:1.0000;stroke:#000000; stroke-opacity:1.0000;
stroke-linecap:round; stroke-linejoin:round;"
 transform="translate(0 0) scale(1 1)">
</g>
<g style="fill:#000000; fill-opacity:0.0; 
stroke:#000000; stroke-width:0.0000; stroke-opacity:1; 
stroke-linecap:round; stroke-linejoin:round;">
</g>
<g style="fill:#000000; fill-opacity:0.0; 
stroke:#000000; stroke-width:0.3000; stroke-opacity:1; 
stroke-linecap:round; stroke-linejoin:round;">
<path d="M57.0011 15.0022
L57.0011 111.0022
" />
<path d="M240.0011 15.0022
L57.0011 15.0022
" />
<path d="M240.0011 111.0022
L240.0011 15.0022
" />
<path d="M57.0011 111.0022
L240.0011 111.0022
" />
</g>
<g style="fill:#000000; fill-opacity:0.0; 
stroke:#000000; stroke-width:0.6000; stroke-opacity:1; 
stroke-linecap:round; stroke-linejoin:round;">
</g>
<g style="fill:#000000; fill-opacity:0.0; 
stroke:#000000; stroke-width:0.2000; stroke-opacity:1; 
stroke-linecap:round; stroke-linejoin:round;">
<text x="58.8511" y="114.3522"
textLength="14.8667" font-size="2.6667" lengthAdjust="spacingAndGlyphs"
text-anchor="start" opacity="0">Drill Map:</text>
<g class="stroked-text"><desc>Drill Map:</desc>
<path d="M59.4589 114.2670
L59.4589 112.2670
" />
<path d="M59.4589 112.2670
L59.9351 112.2670
" />
<path d="M59.9351 112.2670
L60.2208 112.3622
" />
<path d="M60.2208 112.3622
L60.4112 112.5527
" />
<path d="M60.4112 112.5527
L60.5065 112.7432
" />
<path d="M60.5065 112.7432
L60.6017 113.1241
" />
<path d="M60.6017 113.1241
L60.6017 113.4099
" />
<path d="M60.6017 113.4099
L60.5065 113.7908
" />
<path d="M60.5065 113.7908
L60.4112 113.9813
" />
<path d="M60.4112 113.9813
L60.2208 114.1718
" />
<path d="M60.2208 114.1718
L59.9351 114.2670
" />
<path d="M59.9351 114.2670
L59.4589 114.2670
" />
<path d="M61.4589 114.2670
L61.4589 112.9337
" />
<path d="M61.4589 113.3146
L61.5541 113.1241
" />
<path d="M61.5541 113.1241
L61.6493 113.0289
" />
<path d="M61.6493 113.0289
L61.8398 112.9337
" />
<path d="M61.8398 112.9337
L62.0303 112.9337
" />
<path d="M62.6970 114.2670
L62.6970 112.9337
" />
<path d="M62.6970 112.2670
L62.6017 112.3622
" />
<path d="M62.6017 112.3622
L62.6970 112.4575
" />
<path d="M62.6970 112.4575
L62.7922 112.3622
" />
<path d="M62.7922 112.3622
L62.6970 112.2670
" />
<path d="M62.6970 112.2670
L62.6970 112.4575
" />
<path d="M63.9351 114.2670
L63.7446 114.1718
" />
<path d="M63.7446 114.1718
L63.6493 113.9813
" />
<path d="M63.6493 113.9813
L63.6493 112.2670
" />
<path d="M64.9827 114.2670
L64.7922 114.1718
" />
<path d="M64.7922 114.1718
L64.6970 113.9813
" />
<path d="M64.6970 113.9813
L64.6970 112.2670
" />
<path d="M67.2684 114.2670
L67.2684 112.2670
" />
<path d="M67.2684 112.2670
L67.9351 113.6956
" />
<path d="M67.9351 113.6956
L68.6017 112.2670
" />
<path d="M68.6017 112.2670
L68.6017 114.2670
" />
<path d="M70.4113 114.2670
L70.4113 113.2194
" />
<path d="M70.4113 113.2194
L70.3160 113.0289
" />
<path d="M70.3160 113.0289
L70.1255 112.9337
" />
<path d="M70.1255 112.9337
L69.7446 112.9337
" />
<path d="M69.7446 112.9337
L69.5541 113.0289
" />
<path d="M70.4113 114.1718
L70.2208 114.2670
" />
<path d="M70.2208 114.2670
L69.7446 114.2670
" />
<path d="M69.7446 114.2670
L69.5541 114.1718
" />
<path d="M69.5541 114.1718
L69.4589 113.9813
" />
<path d="M69.4589 113.9813
L69.4589 113.7908
" />
<path d="M69.4589 113.7908
L69.5541 113.6003
" />
<path d="M69.5541 113.6003
L69.7446 113.5051
" />
<path d="M69.7446 113.5051
L70.2208 113.5051
" />
<path d="M70.2208 113.5051
L70.4113 113.4099
" />
<path d="M71.3636 112.9337
L71.3636 114.9337
" />
<path d="M71.3636 113.0289
L71.5541 112.9337
" />
<path d="M71.5541 112.9337
L71.9351 112.9337
" />
<path d="M71.9351 112.9337
L72.1255 113.0289
" />
<path d="M72.1255 113.0289
L72.2208 113.1241
" />
<path d="M72.2208 113.1241
L72.3160 113.3146
" />
<path d="M72.3160 113.3146
L72.3160 113.8860
" />
<path d="M72.3160 113.8860
L72.2208 114.0765
" />
<path d="M72.2208 114.0765
L72.1255 114.1718
" />
<path d="M72.1255 114.1718
L71.9351 114.2670
" />
<path d="M71.9351 114.2670
L71.5541 114.2670
" />
<path d="M71.5541 114.2670
L71.3636 114.1718
" />
<path d="M73.1732 114.0765
L73.2684 114.1718
" />
<path d="M73.2684 114.1718
L73.1732 114.2670
" />
<path d="M73.1732 114.2670
L73.0779 114.1718
" />
<path d="M73.0779 114.1718
L73.1732 114.0765
" />
<path d="M73.1732 114.0765
L73.1732 114.2670
" />
<path d="M73.1732 113.0289
L73.2684 113.1241
" />
<path d="M73.2684 113.1241
L73.1732 113.2194
" />
<path d="M73.1732 113.2194
L73.0779 113.1241
" />
<path d="M73.0779 113.1241
L73.1732 113.0289
" />
<path d="M73.1732 113.0289
L73.1732 113.2194
" />
</g></g> 
</svg>
