M48
; DRILL file {KiCad 7.0.9-rc2} date Tue 26 Dec 2023 04:59:57 PM PST
; FORMAT={-:-/ absolute / inch / decimal}
; #@! TF.CreationDate,2023-12-26T16:59:57-08:00
; #@! TF.GenerationSoftware,Kicad,Pcbnew,7.0.9-rc2
; #@! TF.FileFunction,Plated,1,2,PTH
FMAT,2
INCH
; #@! TA.AperFunction,Plated,PTH,ViaDrill
T1C0.0157
; #@! TA.AperFunction,Plated,PTH,ComponentDrill
T2C0.0315
; #@! TA.AperFunction,Plated,PTH,ComponentDrill
T3C0.0394
; #@! TA.AperFunction,Plated,PTH,ComponentDrill
T4C0.0598
%
G90
G05
T1
X0.2165Y-1.1811
X0.315Y-1.1811
X0.4724Y-0.9646
X0.6693Y-1.1811
X0.7677Y-1.1811
X0.8858Y-1.0236
X0.9764Y-1.1024
X1.0039Y-0.1575
X1.0039Y-0.315
X1.0039Y-0.4724
X1.0039Y-0.6299
X1.0079Y-1.1024
X1.0236Y-0.9449
X1.063Y-1.2205
X1.2205Y-0.9843
X1.2205Y-0.8268
X1.2795Y-0.1969
X1.2795Y-0.3543
X1.2795Y-0.5118
X1.2795Y-0.6693
X1.2795Y-0.7874
X1.2795Y-1.0472
X1.3189Y-0.7874
X1.3189Y-1.0472
X1.6142Y-1.126
X1.6142Y-1.1575
X1.6732Y-0.4331
X1.6732Y-0.6693
X1.7126Y-0.4331
X1.7126Y-0.6693
X1.7621Y-1.0141
X1.7913Y-1.0433
X1.8297Y-1.0128
X1.8504Y-0.2559
X1.8504Y-0.315
X1.8558Y-0.9808
X1.8701Y-0.1969
X1.9291Y-0.1969
X2.0276Y-1.063
X2.0472Y-1.0433
X2.0669Y-1.0236
X2.126Y-0.315
X2.1654Y-0.315
T2
X0.1181Y-0.1181
X0.1181Y-0.1969
X0.1181Y-0.2756
X0.1181Y-0.3543
X0.1181Y-0.4331
X0.1181Y-0.5118
X0.1181Y-0.5906
X0.1181Y-0.6693
X0.1969Y-0.1181
X0.1969Y-0.1969
X0.1969Y-0.2756
X0.1969Y-0.3543
X0.1969Y-0.4331
X0.1969Y-0.5118
X0.1969Y-0.5906
X0.1969Y-0.6693
X0.3543Y-0.1181
X0.3543Y-0.1969
X0.3543Y-0.2756
X0.3543Y-0.3543
X0.3543Y-0.4331
X0.3543Y-0.5118
X0.3543Y-0.5906
X0.3543Y-0.6693
X0.4331Y-0.1181
X0.4331Y-0.1969
X0.4331Y-0.2756
X0.4331Y-0.3543
X0.4331Y-0.4331
X0.4331Y-0.5118
X0.4331Y-0.5906
X0.4331Y-0.6693
X0.5906Y-0.1181
X0.5906Y-0.1969
X0.5906Y-0.2756
X0.5906Y-0.3543
X0.5906Y-0.4331
X0.5906Y-0.5118
X0.5906Y-0.5906
X0.5906Y-0.6693
X0.6693Y-0.1181
X0.6693Y-0.1969
X0.6693Y-0.2756
X0.6693Y-0.3543
X0.6693Y-0.4331
X0.6693Y-0.5118
X0.6693Y-0.5906
X0.6693Y-0.6693
X0.8268Y-0.1181
X0.8268Y-0.1969
X0.8268Y-0.2756
X0.8268Y-0.3543
X0.8268Y-0.4331
X0.8268Y-0.5118
X0.8268Y-0.5906
X0.8268Y-0.6693
X0.9055Y-0.1181
X0.9055Y-0.1969
X0.9055Y-0.2756
X0.9055Y-0.3543
X0.9055Y-0.4331
X0.9055Y-0.5118
X0.9055Y-0.5906
X0.9055Y-0.6693
X1.811Y-0.8071
X1.811Y-0.9055
T3
X2.2638Y-0.2037
X2.2638Y-0.3037
X2.2638Y-0.4037
X2.2638Y-0.5037
T4
X2.2441Y-0.763
X2.2441Y-0.963
T0
M30
