<?xml version="1.0" standalone="no"?>
 <!DOCTYPE svg PUBLIC "-//W3C//DTD SVG 1.1//EN" 
 "http://www.w3.org/Graphics/SVG/1.1/DTD/svg11.dtd"> 
<svg
  xmlns:svg="http://www.w3.org/2000/svg"
  xmlns="http://www.w3.org/2000/svg"
  xmlns:xlink="http://www.w3.org/1999/xlink"
  version="1.1"
  width="297.0022mm" height="210.0072mm" viewBox="0.0000 0.0000 297.0022 210.0072">
<title>SVG Image created as driver_board-PTH-drl_map.svg date 2023/12/26 16:59:58 </title>
  <desc>Image generated by PCBNEW </desc>
<g style="fill:#000000; fill-opacity:1.0000;stroke:#000000; stroke-opacity:1.0000;
stroke-linecap:round; stroke-linejoin:round;"
 transform="translate(0 0) scale(1 1)">
</g>
<g style="fill:#000000; fill-opacity:0.0; 
stroke:#000000; stroke-width:0.0000; stroke-opacity:1; 
stroke-linecap:round; stroke-linejoin:round;">
</g>
<g style="fill:#000000; fill-opacity:0.0; 
stroke:#000000; stroke-width:0.3000; stroke-opacity:1; 
stroke-linecap:round; stroke-linejoin:round;">
<path d="M57.0011 15.0022
L57.0011 111.0022
" />
<path d="M240.0011 15.0022
L57.0011 15.0022
" />
<path d="M240.0011 111.0022
L240.0011 15.0022
" />
<path d="M57.0011 111.0022
L240.0011 111.0022
" />
</g>
<g style="fill:#000000; fill-opacity:0.0; 
stroke:#000000; stroke-width:0.6000; stroke-opacity:1; 
stroke-linecap:round; stroke-linejoin:round;">
</g>
<g style="fill:#000000; fill-opacity:0.0; 
stroke:#000000; stroke-width:0.3000; stroke-opacity:1; 
stroke-linecap:round; stroke-linejoin:round;">
<path d="M72.9011 104.4022
L74.1011 105.6022
" />
<path d="M74.1011 104.4022
L72.9011 105.6022
" />
<path d="M80.4011 104.4022
L81.6011 105.6022
" />
<path d="M81.6011 104.4022
L80.4011 105.6022
" />
<path d="M92.4011 87.9022
L93.6011 89.1022
" />
<path d="M93.6011 87.9022
L92.4011 89.1022
" />
<path d="M107.4011 104.4022
L108.6011 105.6022
" />
<path d="M108.6011 104.4022
L107.4011 105.6022
" />
<path d="M114.9011 104.4022
L116.1011 105.6022
" />
<path d="M116.1011 104.4022
L114.9011 105.6022
" />
<path d="M123.9011 92.4022
L125.1011 93.6022
" />
<path d="M125.1011 92.4022
L123.9011 93.6022
" />
<path d="M130.8011 98.4022
L132.0011 99.6022
" />
<path d="M132.0011 98.4022
L130.8011 99.6022
" />
<path d="M132.9011 26.4022
L134.1011 27.6022
" />
<path d="M134.1011 26.4022
L132.9011 27.6022
" />
<path d="M132.9011 38.4022
L134.1011 39.6022
" />
<path d="M134.1011 38.4022
L132.9011 39.6022
" />
<path d="M132.9011 50.4022
L134.1011 51.6022
" />
<path d="M134.1011 50.4022
L132.9011 51.6022
" />
<path d="M132.9011 62.4022
L134.1011 63.6022
" />
<path d="M134.1011 62.4022
L132.9011 63.6022
" />
<path d="M133.2011 98.4022
L134.4011 99.6022
" />
<path d="M134.4011 98.4022
L133.2011 99.6022
" />
<path d="M134.4011 86.4022
L135.6011 87.6022
" />
<path d="M135.6011 86.4022
L134.4011 87.6022
" />
<path d="M137.4011 107.4022
L138.6011 108.6022
" />
<path d="M138.6011 107.4022
L137.4011 108.6022
" />
<path d="M149.4011 89.4021
L150.6011 90.6021
" />
<path d="M150.6011 89.4021
L149.4011 90.6021
" />
<path d="M149.4011 77.4022
L150.6011 78.6022
" />
<path d="M150.6011 77.4022
L149.4011 78.6022
" />
<path d="M153.9011 29.4022
L155.1011 30.6022
" />
<path d="M155.1011 29.4022
L153.9011 30.6022
" />
<path d="M153.9011 41.4022
L155.1011 42.6022
" />
<path d="M155.1011 41.4022
L153.9011 42.6022
" />
<path d="M153.9011 53.4022
L155.1011 54.6022
" />
<path d="M155.1011 53.4022
L153.9011 54.6022
" />
<path d="M153.9011 65.4022
L155.1011 66.6022
" />
<path d="M155.1011 65.4022
L153.9011 66.6022
" />
<path d="M153.9011 74.4022
L155.1011 75.6022
" />
<path d="M155.1011 74.4022
L153.9011 75.6022
" />
<path d="M153.9012 94.2022
L155.1012 95.4022
" />
<path d="M155.1012 94.2022
L153.9012 95.4022
" />
<path d="M156.9011 74.4022
L158.1011 75.6022
" />
<path d="M158.1011 74.4022
L156.9011 75.6022
" />
<path d="M156.9011 94.2022
L158.1011 95.4022
" />
<path d="M158.1011 94.2022
L156.9011 95.4022
" />
<path d="M179.4011 100.2022
L180.6011 101.4022
" />
<path d="M180.6011 100.2022
L179.4011 101.4022
" />
<path d="M179.4011 102.6022
L180.6011 103.8022
" />
<path d="M180.6011 102.6022
L179.4011 103.8022
" />
<path d="M183.9011 47.4022
L185.1011 48.6022
" />
<path d="M185.1011 47.4022
L183.9011 48.6022
" />
<path d="M183.9011 65.4022
L185.1011 66.6022
" />
<path d="M185.1011 65.4022
L183.9011 66.6022
" />
<path d="M186.9011 47.4022
L188.1011 48.6022
" />
<path d="M188.1011 47.4022
L186.9011 48.6022
" />
<path d="M186.9011 65.4022
L188.1011 66.6022
" />
<path d="M188.1011 65.4022
L186.9011 66.6022
" />
<path d="M190.6737 91.6748
L191.8737 92.8748
" />
<path d="M191.8737 91.6748
L190.6737 92.8748
" />
<path d="M192.9011 93.9022
L194.1011 95.1022
" />
<path d="M194.1011 93.9022
L192.9011 95.1022
" />
<path d="M195.8225 91.5772
L197.0225 92.7772
" />
<path d="M197.0225 91.5772
L195.8225 92.7772
" />
<path d="M197.4011 33.9022
L198.6011 35.1022
" />
<path d="M198.6011 33.9022
L197.4011 35.1022
" />
<path d="M197.4011 38.4022
L198.6011 39.6022
" />
<path d="M198.6011 38.4022
L197.4011 39.6022
" />
<path d="M197.8168 89.1389
L199.0168 90.3389
" />
<path d="M199.0168 89.1389
L197.8168 90.3389
" />
<path d="M198.9011 29.4022
L200.1011 30.6022
" />
<path d="M200.1011 29.4022
L198.9011 30.6022
" />
<path d="M203.4011 29.4022
L204.6011 30.6022
" />
<path d="M204.6011 29.4022
L203.4011 30.6022
" />
<path d="M210.9011 95.4022
L212.1011 96.6022
" />
<path d="M212.1011 95.4022
L210.9011 96.6022
" />
<path d="M212.4011 93.9022
L213.6011 95.1022
" />
<path d="M213.6011 93.9022
L212.4011 95.1022
" />
<path d="M213.9011 92.4022
L215.1011 93.6022
" />
<path d="M215.1011 92.4022
L213.9011 93.6022
" />
<path d="M218.4011 38.4022
L219.6011 39.6022
" />
<path d="M219.6011 38.4022
L218.4011 39.6022
" />
<path d="M221.4011 38.4022
L222.6011 39.6022
" />
<path d="M222.6011 38.4022
L221.4011 39.6022
" />
<circle cx="66.0011" cy="24.0022" r="1.2000" /> 
<circle cx="66.0011" cy="30.0022" r="1.2000" /> 
<circle cx="66.0011" cy="36.0022" r="1.2000" /> 
<circle cx="66.0011" cy="42.0022" r="1.2000" /> 
<circle cx="66.0011" cy="48.0022" r="1.2000" /> 
<circle cx="66.0011" cy="54.0022" r="1.2000" /> 
<circle cx="66.0011" cy="60.0022" r="1.2000" /> 
<circle cx="66.0011" cy="66.0022" r="1.2000" /> 
<circle cx="72.0011" cy="24.0022" r="1.2000" /> 
<circle cx="72.0011" cy="30.0022" r="1.2000" /> 
<circle cx="72.0011" cy="36.0022" r="1.2000" /> 
<circle cx="72.0011" cy="42.0022" r="1.2000" /> 
<circle cx="72.0011" cy="48.0022" r="1.2000" /> 
<circle cx="72.0011" cy="54.0022" r="1.2000" /> 
<circle cx="72.0011" cy="60.0022" r="1.2000" /> 
<circle cx="72.0011" cy="66.0022" r="1.2000" /> 
<circle cx="84.0011" cy="24.0022" r="1.2000" /> 
<circle cx="84.0011" cy="30.0022" r="1.2000" /> 
<circle cx="84.0011" cy="36.0022" r="1.2000" /> 
<circle cx="84.0011" cy="42.0022" r="1.2000" /> 
<circle cx="84.0011" cy="48.0022" r="1.2000" /> 
<circle cx="84.0011" cy="54.0022" r="1.2000" /> 
<circle cx="84.0011" cy="60.0022" r="1.2000" /> 
<circle cx="84.0011" cy="66.0022" r="1.2000" /> 
<circle cx="90.0011" cy="24.0022" r="1.2000" /> 
<circle cx="90.0011" cy="30.0022" r="1.2000" /> 
<circle cx="90.0011" cy="36.0022" r="1.2000" /> 
<circle cx="90.0011" cy="42.0022" r="1.2000" /> 
<circle cx="90.0011" cy="48.0022" r="1.2000" /> 
<circle cx="90.0011" cy="54.0022" r="1.2000" /> 
<circle cx="90.0011" cy="60.0022" r="1.2000" /> 
<circle cx="90.0011" cy="66.0022" r="1.2000" /> 
<circle cx="102.0011" cy="24.0022" r="1.2000" /> 
<circle cx="102.0011" cy="30.0022" r="1.2000" /> 
<circle cx="102.0011" cy="36.0022" r="1.2000" /> 
<circle cx="102.0011" cy="42.0022" r="1.2000" /> 
<circle cx="102.0011" cy="48.0022" r="1.2000" /> 
<circle cx="102.0011" cy="54.0022" r="1.2000" /> 
<circle cx="102.0011" cy="60.0022" r="1.2000" /> 
<circle cx="102.0011" cy="66.0022" r="1.2000" /> 
<circle cx="108.0011" cy="24.0022" r="1.2000" /> 
<circle cx="108.0011" cy="30.0022" r="1.2000" /> 
<circle cx="108.0011" cy="36.0022" r="1.2000" /> 
<circle cx="108.0011" cy="42.0022" r="1.2000" /> 
<circle cx="108.0011" cy="48.0022" r="1.2000" /> 
<circle cx="108.0011" cy="54.0022" r="1.2000" /> 
<circle cx="108.0011" cy="60.0022" r="1.2000" /> 
<circle cx="108.0011" cy="66.0022" r="1.2000" /> 
<circle cx="120.0011" cy="24.0022" r="1.2000" /> 
<circle cx="120.0011" cy="30.0022" r="1.2000" /> 
<circle cx="120.0011" cy="36.0022" r="1.2000" /> 
<circle cx="120.0011" cy="42.0022" r="1.2000" /> 
<circle cx="120.0011" cy="48.0022" r="1.2000" /> 
<circle cx="120.0011" cy="54.0022" r="1.2000" /> 
<circle cx="120.0011" cy="60.0022" r="1.2000" /> 
<circle cx="120.0011" cy="66.0022" r="1.2000" /> 
<circle cx="126.0011" cy="24.0022" r="1.2000" /> 
<circle cx="126.0011" cy="30.0022" r="1.2000" /> 
<circle cx="126.0011" cy="36.0022" r="1.2000" /> 
<circle cx="126.0011" cy="42.0022" r="1.2000" /> 
<circle cx="126.0011" cy="48.0022" r="1.2000" /> 
<circle cx="126.0011" cy="54.0022" r="1.2000" /> 
<circle cx="126.0011" cy="60.0022" r="1.2000" /> 
<circle cx="126.0011" cy="66.0022" r="1.2000" /> 
<circle cx="195.0011" cy="76.5022" r="1.2000" /> 
<circle cx="195.0011" cy="84.0022" r="1.2000" /> 
<path d="M229.5011 29.0272
L229.5011 32.0272
" />
<path d="M228.0011 30.5272
L231.0011 30.5272
" />
<path d="M229.5011 36.6472
L229.5011 39.6472
" />
<path d="M228.0011 38.1472
L231.0011 38.1472
" />
<path d="M229.5011 44.2672
L229.5011 47.2672
" />
<path d="M228.0011 45.7672
L231.0011 45.7672
" />
<path d="M229.5011 51.8872
L229.5011 54.8872
" />
<path d="M228.0011 53.3872
L231.0011 53.3872
" />
</g>
<g style="fill:#000000; fill-opacity:0.0; 
stroke:#000000; stroke-width:0.4560; stroke-opacity:1; 
stroke-linecap:round; stroke-linejoin:round;">
<path style="fill:#000000; fill-opacity:0.0; 
stroke:#000000; stroke-width:0.4560; stroke-opacity:1; 
stroke-linecap:round; stroke-linejoin:round;fill:none"
d="M 229.6133,74.7544
229.6133,71.5299
226.3889,71.5299
226.3889,74.7544
Z" /> 
<path style="fill:#000000; fill-opacity:0.0; 
stroke:#000000; stroke-width:0.4560; stroke-opacity:1; 
stroke-linecap:round; stroke-linejoin:round;fill:none"
d="M 229.6133,89.9944
229.6133,86.7699
226.3889,86.7699
226.3889,89.9944
Z" /> 
</g>
<g style="fill:#000000; fill-opacity:0.0; 
stroke:#000000; stroke-width:0.6000; stroke-opacity:1; 
stroke-linecap:round; stroke-linejoin:round;">
</g>
<g style="fill:#000000; fill-opacity:0.0; 
stroke:#000000; stroke-width:0.2000; stroke-opacity:1; 
stroke-linecap:round; stroke-linejoin:round;">
<text x="58.8511" y="114.3522"
textLength="14.8667" font-size="2.6667" lengthAdjust="spacingAndGlyphs"
text-anchor="start" opacity="0">Drill Map:</text>
<g class="stroked-text"><desc>Drill Map:</desc>
<path d="M59.4589 114.2670
L59.4589 112.2670
" />
<path d="M59.4589 112.2670
L59.9351 112.2670
" />
<path d="M59.9351 112.2670
L60.2208 112.3622
" />
<path d="M60.2208 112.3622
L60.4112 112.5527
" />
<path d="M60.4112 112.5527
L60.5065 112.7432
" />
<path d="M60.5065 112.7432
L60.6017 113.1241
" />
<path d="M60.6017 113.1241
L60.6017 113.4099
" />
<path d="M60.6017 113.4099
L60.5065 113.7908
" />
<path d="M60.5065 113.7908
L60.4112 113.9813
" />
<path d="M60.4112 113.9813
L60.2208 114.1718
" />
<path d="M60.2208 114.1718
L59.9351 114.2670
" />
<path d="M59.9351 114.2670
L59.4589 114.2670
" />
<path d="M61.4589 114.2670
L61.4589 112.9337
" />
<path d="M61.4589 113.3146
L61.5541 113.1241
" />
<path d="M61.5541 113.1241
L61.6493 113.0289
" />
<path d="M61.6493 113.0289
L61.8398 112.9337
" />
<path d="M61.8398 112.9337
L62.0303 112.9337
" />
<path d="M62.6970 114.2670
L62.6970 112.9337
" />
<path d="M62.6970 112.2670
L62.6017 112.3622
" />
<path d="M62.6017 112.3622
L62.6970 112.4575
" />
<path d="M62.6970 112.4575
L62.7922 112.3622
" />
<path d="M62.7922 112.3622
L62.6970 112.2670
" />
<path d="M62.6970 112.2670
L62.6970 112.4575
" />
<path d="M63.9351 114.2670
L63.7446 114.1718
" />
<path d="M63.7446 114.1718
L63.6493 113.9813
" />
<path d="M63.6493 113.9813
L63.6493 112.2670
" />
<path d="M64.9827 114.2670
L64.7922 114.1718
" />
<path d="M64.7922 114.1718
L64.6970 113.9813
" />
<path d="M64.6970 113.9813
L64.6970 112.2670
" />
<path d="M67.2684 114.2670
L67.2684 112.2670
" />
<path d="M67.2684 112.2670
L67.9351 113.6956
" />
<path d="M67.9351 113.6956
L68.6017 112.2670
" />
<path d="M68.6017 112.2670
L68.6017 114.2670
" />
<path d="M70.4113 114.2670
L70.4113 113.2194
" />
<path d="M70.4113 113.2194
L70.3160 113.0289
" />
<path d="M70.3160 113.0289
L70.1255 112.9337
" />
<path d="M70.1255 112.9337
L69.7446 112.9337
" />
<path d="M69.7446 112.9337
L69.5541 113.0289
" />
<path d="M70.4113 114.1718
L70.2208 114.2670
" />
<path d="M70.2208 114.2670
L69.7446 114.2670
" />
<path d="M69.7446 114.2670
L69.5541 114.1718
" />
<path d="M69.5541 114.1718
L69.4589 113.9813
" />
<path d="M69.4589 113.9813
L69.4589 113.7908
" />
<path d="M69.4589 113.7908
L69.5541 113.6003
" />
<path d="M69.5541 113.6003
L69.7446 113.5051
" />
<path d="M69.7446 113.5051
L70.2208 113.5051
" />
<path d="M70.2208 113.5051
L70.4113 113.4099
" />
<path d="M71.3636 112.9337
L71.3636 114.9337
" />
<path d="M71.3636 113.0289
L71.5541 112.9337
" />
<path d="M71.5541 112.9337
L71.9351 112.9337
" />
<path d="M71.9351 112.9337
L72.1255 113.0289
" />
<path d="M72.1255 113.0289
L72.2208 113.1241
" />
<path d="M72.2208 113.1241
L72.3160 113.3146
" />
<path d="M72.3160 113.3146
L72.3160 113.8860
" />
<path d="M72.3160 113.8860
L72.2208 114.0765
" />
<path d="M72.2208 114.0765
L72.1255 114.1718
" />
<path d="M72.1255 114.1718
L71.9351 114.2670
" />
<path d="M71.9351 114.2670
L71.5541 114.2670
" />
<path d="M71.5541 114.2670
L71.3636 114.1718
" />
<path d="M73.1732 114.0765
L73.2684 114.1718
" />
<path d="M73.2684 114.1718
L73.1732 114.2670
" />
<path d="M73.1732 114.2670
L73.0779 114.1718
" />
<path d="M73.0779 114.1718
L73.1732 114.0765
" />
<path d="M73.1732 114.0765
L73.1732 114.2670
" />
<path d="M73.1732 113.0289
L73.2684 113.1241
" />
<path d="M73.2684 113.1241
L73.1732 113.2194
" />
<path d="M73.1732 113.2194
L73.0779 113.1241
" />
<path d="M73.0779 113.1241
L73.1732 113.0289
" />
<path d="M73.1732 113.0289
L73.1732 113.2194
" />
</g></g>
<g style="fill:#000000; fill-opacity:0.0; 
stroke:#000000; stroke-width:0.3000; stroke-opacity:1; 
stroke-linecap:round; stroke-linejoin:round;">
<path d="M55.6511 116.9522
L56.8511 118.1522
" />
<path d="M56.8511 116.9522
L55.6511 118.1522
" />
</g>
<g style="fill:#000000; fill-opacity:0.0; 
stroke:#000000; stroke-width:0.6000; stroke-opacity:1; 
stroke-linecap:round; stroke-linejoin:round;">
</g>
<g style="fill:#000000; fill-opacity:0.0; 
stroke:#000000; stroke-width:0.2000; stroke-opacity:1; 
stroke-linecap:round; stroke-linejoin:round;">
<text x="58.8511" y="118.5522"
textLength="48.7715" font-size="2.6667" lengthAdjust="spacingAndGlyphs"
text-anchor="start" opacity="0">0.400mm / 0.0157" (43 holes)</text>
<g class="stroked-text"><desc>0.400mm / 0.0157" (43 holes)</desc>
<path d="M59.8398 116.4670
L60.0303 116.4670
" />
<path d="M60.0303 116.4670
L60.2208 116.5622
" />
<path d="M60.2208 116.5622
L60.3160 116.6575
" />
<path d="M60.3160 116.6575
L60.4112 116.8480
" />
<path d="M60.4112 116.8480
L60.5065 117.2289
" />
<path d="M60.5065 117.2289
L60.5065 117.7051
" />
<path d="M60.5065 117.7051
L60.4112 118.0860
" />
<path d="M60.4112 118.0860
L60.3160 118.2765
" />
<path d="M60.3160 118.2765
L60.2208 118.3718
" />
<path d="M60.2208 118.3718
L60.0303 118.4670
" />
<path d="M60.0303 118.4670
L59.8398 118.4670
" />
<path d="M59.8398 118.4670
L59.6493 118.3718
" />
<path d="M59.6493 118.3718
L59.5541 118.2765
" />
<path d="M59.5541 118.2765
L59.4589 118.0860
" />
<path d="M59.4589 118.0860
L59.3636 117.7051
" />
<path d="M59.3636 117.7051
L59.3636 117.2289
" />
<path d="M59.3636 117.2289
L59.4589 116.8480
" />
<path d="M59.4589 116.8480
L59.5541 116.6575
" />
<path d="M59.5541 116.6575
L59.6493 116.5622
" />
<path d="M59.6493 116.5622
L59.8398 116.4670
" />
<path d="M61.3636 118.2765
L61.4589 118.3718
" />
<path d="M61.4589 118.3718
L61.3636 118.4670
" />
<path d="M61.3636 118.4670
L61.2684 118.3718
" />
<path d="M61.2684 118.3718
L61.3636 118.2765
" />
<path d="M61.3636 118.2765
L61.3636 118.4670
" />
<path d="M63.1732 117.1337
L63.1732 118.4670
" />
<path d="M62.6970 116.3718
L62.2208 117.8003
" />
<path d="M62.2208 117.8003
L63.4589 117.8003
" />
<path d="M64.6017 116.4670
L64.7922 116.4670
" />
<path d="M64.7922 116.4670
L64.9827 116.5622
" />
<path d="M64.9827 116.5622
L65.0779 116.6575
" />
<path d="M65.0779 116.6575
L65.1732 116.8480
" />
<path d="M65.1732 116.8480
L65.2684 117.2289
" />
<path d="M65.2684 117.2289
L65.2684 117.7051
" />
<path d="M65.2684 117.7051
L65.1732 118.0860
" />
<path d="M65.1732 118.0860
L65.0779 118.2765
" />
<path d="M65.0779 118.2765
L64.9827 118.3718
" />
<path d="M64.9827 118.3718
L64.7922 118.4670
" />
<path d="M64.7922 118.4670
L64.6017 118.4670
" />
<path d="M64.6017 118.4670
L64.4113 118.3718
" />
<path d="M64.4113 118.3718
L64.3160 118.2765
" />
<path d="M64.3160 118.2765
L64.2208 118.0860
" />
<path d="M64.2208 118.0860
L64.1255 117.7051
" />
<path d="M64.1255 117.7051
L64.1255 117.2289
" />
<path d="M64.1255 117.2289
L64.2208 116.8480
" />
<path d="M64.2208 116.8480
L64.3160 116.6575
" />
<path d="M64.3160 116.6575
L64.4113 116.5622
" />
<path d="M64.4113 116.5622
L64.6017 116.4670
" />
<path d="M66.5065 116.4670
L66.6970 116.4670
" />
<path d="M66.6970 116.4670
L66.8874 116.5622
" />
<path d="M66.8874 116.5622
L66.9827 116.6575
" />
<path d="M66.9827 116.6575
L67.0779 116.8480
" />
<path d="M67.0779 116.8480
L67.1732 117.2289
" />
<path d="M67.1732 117.2289
L67.1732 117.7051
" />
<path d="M67.1732 117.7051
L67.0779 118.0860
" />
<path d="M67.0779 118.0860
L66.9827 118.2765
" />
<path d="M66.9827 118.2765
L66.8874 118.3718
" />
<path d="M66.8874 118.3718
L66.6970 118.4670
" />
<path d="M66.6970 118.4670
L66.5065 118.4670
" />
<path d="M66.5065 118.4670
L66.3160 118.3718
" />
<path d="M66.3160 118.3718
L66.2208 118.2765
" />
<path d="M66.2208 118.2765
L66.1255 118.0860
" />
<path d="M66.1255 118.0860
L66.0303 117.7051
" />
<path d="M66.0303 117.7051
L66.0303 117.2289
" />
<path d="M66.0303 117.2289
L66.1255 116.8480
" />
<path d="M66.1255 116.8480
L66.2208 116.6575
" />
<path d="M66.2208 116.6575
L66.3160 116.5622
" />
<path d="M66.3160 116.5622
L66.5065 116.4670
" />
<path d="M68.0303 118.4670
L68.0303 117.1337
" />
<path d="M68.0303 117.3241
L68.1255 117.2289
" />
<path d="M68.1255 117.2289
L68.3160 117.1337
" />
<path d="M68.3160 117.1337
L68.6017 117.1337
" />
<path d="M68.6017 117.1337
L68.7922 117.2289
" />
<path d="M68.7922 117.2289
L68.8874 117.4194
" />
<path d="M68.8874 117.4194
L68.8874 118.4670
" />
<path d="M68.8874 117.4194
L68.9827 117.2289
" />
<path d="M68.9827 117.2289
L69.1732 117.1337
" />
<path d="M69.1732 117.1337
L69.4589 117.1337
" />
<path d="M69.4589 117.1337
L69.6493 117.2289
" />
<path d="M69.6493 117.2289
L69.7446 117.4194
" />
<path d="M69.7446 117.4194
L69.7446 118.4670
" />
<path d="M70.6970 118.4670
L70.6970 117.1337
" />
<path d="M70.6970 117.3241
L70.7922 117.2289
" />
<path d="M70.7922 117.2289
L70.9827 117.1337
" />
<path d="M70.9827 117.1337
L71.2684 117.1337
" />
<path d="M71.2684 117.1337
L71.4589 117.2289
" />
<path d="M71.4589 117.2289
L71.5541 117.4194
" />
<path d="M71.5541 117.4194
L71.5541 118.4670
" />
<path d="M71.5541 117.4194
L71.6493 117.2289
" />
<path d="M71.6493 117.2289
L71.8398 117.1337
" />
<path d="M71.8398 117.1337
L72.1255 117.1337
" />
<path d="M72.1255 117.1337
L72.3160 117.2289
" />
<path d="M72.3160 117.2289
L72.4113 117.4194
" />
<path d="M72.4113 117.4194
L72.4113 118.4670
" />
<path d="M76.3160 116.3718
L74.6017 118.9432
" />
<path d="M78.8874 116.4670
L79.0779 116.4670
" />
<path d="M79.0779 116.4670
L79.2684 116.5622
" />
<path d="M79.2684 116.5622
L79.3636 116.6575
" />
<path d="M79.3636 116.6575
L79.4589 116.8480
" />
<path d="M79.4589 116.8480
L79.5541 117.2289
" />
<path d="M79.5541 117.2289
L79.5541 117.7051
" />
<path d="M79.5541 117.7051
L79.4589 118.0860
" />
<path d="M79.4589 118.0860
L79.3636 118.2765
" />
<path d="M79.3636 118.2765
L79.2684 118.3718
" />
<path d="M79.2684 118.3718
L79.0779 118.4670
" />
<path d="M79.0779 118.4670
L78.8874 118.4670
" />
<path d="M78.8874 118.4670
L78.6970 118.3718
" />
<path d="M78.6970 118.3718
L78.6017 118.2765
" />
<path d="M78.6017 118.2765
L78.5065 118.0860
" />
<path d="M78.5065 118.0860
L78.4113 117.7051
" />
<path d="M78.4113 117.7051
L78.4113 117.2289
" />
<path d="M78.4113 117.2289
L78.5065 116.8480
" />
<path d="M78.5065 116.8480
L78.6017 116.6575
" />
<path d="M78.6017 116.6575
L78.6970 116.5622
" />
<path d="M78.6970 116.5622
L78.8874 116.4670
" />
<path d="M80.4113 118.2765
L80.5065 118.3718
" />
<path d="M80.5065 118.3718
L80.4113 118.4670
" />
<path d="M80.4113 118.4670
L80.3160 118.3718
" />
<path d="M80.3160 118.3718
L80.4113 118.2765
" />
<path d="M80.4113 118.2765
L80.4113 118.4670
" />
<path d="M81.7446 116.4670
L81.9351 116.4670
" />
<path d="M81.9351 116.4670
L82.1255 116.5622
" />
<path d="M82.1255 116.5622
L82.2208 116.6575
" />
<path d="M82.2208 116.6575
L82.3160 116.8480
" />
<path d="M82.3160 116.8480
L82.4113 117.2289
" />
<path d="M82.4113 117.2289
L82.4113 117.7051
" />
<path d="M82.4113 117.7051
L82.3160 118.0860
" />
<path d="M82.3160 118.0860
L82.2208 118.2765
" />
<path d="M82.2208 118.2765
L82.1255 118.3718
" />
<path d="M82.1255 118.3718
L81.9351 118.4670
" />
<path d="M81.9351 118.4670
L81.7446 118.4670
" />
<path d="M81.7446 118.4670
L81.5541 118.3718
" />
<path d="M81.5541 118.3718
L81.4589 118.2765
" />
<path d="M81.4589 118.2765
L81.3636 118.0860
" />
<path d="M81.3636 118.0860
L81.2684 117.7051
" />
<path d="M81.2684 117.7051
L81.2684 117.2289
" />
<path d="M81.2684 117.2289
L81.3636 116.8480
" />
<path d="M81.3636 116.8480
L81.4589 116.6575
" />
<path d="M81.4589 116.6575
L81.5541 116.5622
" />
<path d="M81.5541 116.5622
L81.7446 116.4670
" />
<path d="M84.3160 118.4670
L83.1732 118.4670
" />
<path d="M83.7446 118.4670
L83.7446 116.4670
" />
<path d="M83.7446 116.4670
L83.5541 116.7527
" />
<path d="M83.5541 116.7527
L83.3636 116.9432
" />
<path d="M83.3636 116.9432
L83.1732 117.0384
" />
<path d="M86.1255 116.4670
L85.1732 116.4670
" />
<path d="M85.1732 116.4670
L85.0779 117.4194
" />
<path d="M85.0779 117.4194
L85.1732 117.3241
" />
<path d="M85.1732 117.3241
L85.3636 117.2289
" />
<path d="M85.3636 117.2289
L85.8398 117.2289
" />
<path d="M85.8398 117.2289
L86.0303 117.3241
" />
<path d="M86.0303 117.3241
L86.1255 117.4194
" />
<path d="M86.1255 117.4194
L86.2208 117.6099
" />
<path d="M86.2208 117.6099
L86.2208 118.0860
" />
<path d="M86.2208 118.0860
L86.1255 118.2765
" />
<path d="M86.1255 118.2765
L86.0303 118.3718
" />
<path d="M86.0303 118.3718
L85.8398 118.4670
" />
<path d="M85.8398 118.4670
L85.3636 118.4670
" />
<path d="M85.3636 118.4670
L85.1732 118.3718
" />
<path d="M85.1732 118.3718
L85.0779 118.2765
" />
<path d="M86.8875 116.4670
L88.2208 116.4670
" />
<path d="M88.2208 116.4670
L87.3636 118.4670
" />
<path d="M88.8875 116.4670
L88.8875 116.8480
" />
<path d="M89.6494 116.4670
L89.6494 116.8480
" />
<path d="M92.6017 119.2289
L92.5065 119.1337
" />
<path d="M92.5065 119.1337
L92.3160 118.8480
" />
<path d="M92.3160 118.8480
L92.2208 118.6575
" />
<path d="M92.2208 118.6575
L92.1256 118.3718
" />
<path d="M92.1256 118.3718
L92.0303 117.8956
" />
<path d="M92.0303 117.8956
L92.0303 117.5146
" />
<path d="M92.0303 117.5146
L92.1256 117.0384
" />
<path d="M92.1256 117.0384
L92.2208 116.7527
" />
<path d="M92.2208 116.7527
L92.3160 116.5622
" />
<path d="M92.3160 116.5622
L92.5065 116.2765
" />
<path d="M92.5065 116.2765
L92.6017 116.1813
" />
<path d="M94.2208 117.1337
L94.2208 118.4670
" />
<path d="M93.7446 116.3718
L93.2684 117.8003
" />
<path d="M93.2684 117.8003
L94.5065 117.8003
" />
<path d="M95.0779 116.4670
L96.3160 116.4670
" />
<path d="M96.3160 116.4670
L95.6494 117.2289
" />
<path d="M95.6494 117.2289
L95.9351 117.2289
" />
<path d="M95.9351 117.2289
L96.1256 117.3241
" />
<path d="M96.1256 117.3241
L96.2208 117.4194
" />
<path d="M96.2208 117.4194
L96.3160 117.6099
" />
<path d="M96.3160 117.6099
L96.3160 118.0860
" />
<path d="M96.3160 118.0860
L96.2208 118.2765
" />
<path d="M96.2208 118.2765
L96.1256 118.3718
" />
<path d="M96.1256 118.3718
L95.9351 118.4670
" />
<path d="M95.9351 118.4670
L95.3636 118.4670
" />
<path d="M95.3636 118.4670
L95.1732 118.3718
" />
<path d="M95.1732 118.3718
L95.0779 118.2765
" />
<path d="M98.6970 118.4670
L98.6970 116.4670
" />
<path d="M99.5541 118.4670
L99.5541 117.4194
" />
<path d="M99.5541 117.4194
L99.4589 117.2289
" />
<path d="M99.4589 117.2289
L99.2684 117.1337
" />
<path d="M99.2684 117.1337
L98.9827 117.1337
" />
<path d="M98.9827 117.1337
L98.7922 117.2289
" />
<path d="M98.7922 117.2289
L98.6970 117.3241
" />
<path d="M100.7922 118.4670
L100.6017 118.3718
" />
<path d="M100.6017 118.3718
L100.5065 118.2765
" />
<path d="M100.5065 118.2765
L100.4113 118.0860
" />
<path d="M100.4113 118.0860
L100.4113 117.5146
" />
<path d="M100.4113 117.5146
L100.5065 117.3241
" />
<path d="M100.5065 117.3241
L100.6017 117.2289
" />
<path d="M100.6017 117.2289
L100.7922 117.1337
" />
<path d="M100.7922 117.1337
L101.0779 117.1337
" />
<path d="M101.0779 117.1337
L101.2684 117.2289
" />
<path d="M101.2684 117.2289
L101.3637 117.3241
" />
<path d="M101.3637 117.3241
L101.4589 117.5146
" />
<path d="M101.4589 117.5146
L101.4589 118.0860
" />
<path d="M101.4589 118.0860
L101.3637 118.2765
" />
<path d="M101.3637 118.2765
L101.2684 118.3718
" />
<path d="M101.2684 118.3718
L101.0779 118.4670
" />
<path d="M101.0779 118.4670
L100.7922 118.4670
" />
<path d="M102.6017 118.4670
L102.4113 118.3718
" />
<path d="M102.4113 118.3718
L102.3160 118.1813
" />
<path d="M102.3160 118.1813
L102.3160 116.4670
" />
<path d="M104.1256 118.3718
L103.9351 118.4670
" />
<path d="M103.9351 118.4670
L103.5541 118.4670
" />
<path d="M103.5541 118.4670
L103.3637 118.3718
" />
<path d="M103.3637 118.3718
L103.2684 118.1813
" />
<path d="M103.2684 118.1813
L103.2684 117.4194
" />
<path d="M103.2684 117.4194
L103.3637 117.2289
" />
<path d="M103.3637 117.2289
L103.5541 117.1337
" />
<path d="M103.5541 117.1337
L103.9351 117.1337
" />
<path d="M103.9351 117.1337
L104.1256 117.2289
" />
<path d="M104.1256 117.2289
L104.2208 117.4194
" />
<path d="M104.2208 117.4194
L104.2208 117.6099
" />
<path d="M104.2208 117.6099
L103.2684 117.8003
" />
<path d="M104.9827 118.3718
L105.1732 118.4670
" />
<path d="M105.1732 118.4670
L105.5541 118.4670
" />
<path d="M105.5541 118.4670
L105.7446 118.3718
" />
<path d="M105.7446 118.3718
L105.8398 118.1813
" />
<path d="M105.8398 118.1813
L105.8398 118.0860
" />
<path d="M105.8398 118.0860
L105.7446 117.8956
" />
<path d="M105.7446 117.8956
L105.5541 117.8003
" />
<path d="M105.5541 117.8003
L105.2684 117.8003
" />
<path d="M105.2684 117.8003
L105.0779 117.7051
" />
<path d="M105.0779 117.7051
L104.9827 117.5146
" />
<path d="M104.9827 117.5146
L104.9827 117.4194
" />
<path d="M104.9827 117.4194
L105.0779 117.2289
" />
<path d="M105.0779 117.2289
L105.2684 117.1337
" />
<path d="M105.2684 117.1337
L105.5541 117.1337
" />
<path d="M105.5541 117.1337
L105.7446 117.2289
" />
<path d="M106.5065 119.2289
L106.6018 119.1337
" />
<path d="M106.6018 119.1337
L106.7922 118.8480
" />
<path d="M106.7922 118.8480
L106.8875 118.6575
" />
<path d="M106.8875 118.6575
L106.9827 118.3718
" />
<path d="M106.9827 118.3718
L107.0779 117.8956
" />
<path d="M107.0779 117.8956
L107.0779 117.5146
" />
<path d="M107.0779 117.5146
L106.9827 117.0384
" />
<path d="M106.9827 117.0384
L106.8875 116.7527
" />
<path d="M106.8875 116.7527
L106.7922 116.5622
" />
<path d="M106.7922 116.5622
L106.6018 116.2765
" />
<path d="M106.6018 116.2765
L106.5065 116.1813
" />
</g></g>
<g style="fill:#000000; fill-opacity:0.0; 
stroke:#000000; stroke-width:0.3000; stroke-opacity:1; 
stroke-linecap:round; stroke-linejoin:round;">
<circle cx="55.8511" cy="120.1922" r="1.0000" /> 
</g>
<g style="fill:#000000; fill-opacity:0.0; 
stroke:#000000; stroke-width:0.6000; stroke-opacity:1; 
stroke-linecap:round; stroke-linejoin:round;">
</g>
<g style="fill:#000000; fill-opacity:0.0; 
stroke:#000000; stroke-width:0.2000; stroke-opacity:1; 
stroke-linecap:round; stroke-linejoin:round;">
<text x="58.8511" y="121.1922"
textLength="48.7715" font-size="2.6667" lengthAdjust="spacingAndGlyphs"
text-anchor="start" opacity="0">0.800mm / 0.0315" (66 holes)</text>
<g class="stroked-text"><desc>0.800mm / 0.0315" (66 holes)</desc>
<path d="M59.8398 119.1070
L60.0303 119.1070
" />
<path d="M60.0303 119.1070
L60.2208 119.2022
" />
<path d="M60.2208 119.2022
L60.3160 119.2975
" />
<path d="M60.3160 119.2975
L60.4112 119.4880
" />
<path d="M60.4112 119.4880
L60.5065 119.8689
" />
<path d="M60.5065 119.8689
L60.5065 120.3451
" />
<path d="M60.5065 120.3451
L60.4112 120.7260
" />
<path d="M60.4112 120.7260
L60.3160 120.9165
" />
<path d="M60.3160 120.9165
L60.2208 121.0118
" />
<path d="M60.2208 121.0118
L60.0303 121.1070
" />
<path d="M60.0303 121.1070
L59.8398 121.1070
" />
<path d="M59.8398 121.1070
L59.6493 121.0118
" />
<path d="M59.6493 121.0118
L59.5541 120.9165
" />
<path d="M59.5541 120.9165
L59.4589 120.7260
" />
<path d="M59.4589 120.7260
L59.3636 120.3451
" />
<path d="M59.3636 120.3451
L59.3636 119.8689
" />
<path d="M59.3636 119.8689
L59.4589 119.4880
" />
<path d="M59.4589 119.4880
L59.5541 119.2975
" />
<path d="M59.5541 119.2975
L59.6493 119.2022
" />
<path d="M59.6493 119.2022
L59.8398 119.1070
" />
<path d="M61.3636 120.9165
L61.4589 121.0118
" />
<path d="M61.4589 121.0118
L61.3636 121.1070
" />
<path d="M61.3636 121.1070
L61.2684 121.0118
" />
<path d="M61.2684 121.0118
L61.3636 120.9165
" />
<path d="M61.3636 120.9165
L61.3636 121.1070
" />
<path d="M62.6017 119.9641
L62.4112 119.8689
" />
<path d="M62.4112 119.8689
L62.3160 119.7737
" />
<path d="M62.3160 119.7737
L62.2208 119.5832
" />
<path d="M62.2208 119.5832
L62.2208 119.4880
" />
<path d="M62.2208 119.4880
L62.3160 119.2975
" />
<path d="M62.3160 119.2975
L62.4112 119.2022
" />
<path d="M62.4112 119.2022
L62.6017 119.1070
" />
<path d="M62.6017 119.1070
L62.9827 119.1070
" />
<path d="M62.9827 119.1070
L63.1732 119.2022
" />
<path d="M63.1732 119.2022
L63.2684 119.2975
" />
<path d="M63.2684 119.2975
L63.3636 119.4880
" />
<path d="M63.3636 119.4880
L63.3636 119.5832
" />
<path d="M63.3636 119.5832
L63.2684 119.7737
" />
<path d="M63.2684 119.7737
L63.1732 119.8689
" />
<path d="M63.1732 119.8689
L62.9827 119.9641
" />
<path d="M62.9827 119.9641
L62.6017 119.9641
" />
<path d="M62.6017 119.9641
L62.4112 120.0594
" />
<path d="M62.4112 120.0594
L62.3160 120.1546
" />
<path d="M62.3160 120.1546
L62.2208 120.3451
" />
<path d="M62.2208 120.3451
L62.2208 120.7260
" />
<path d="M62.2208 120.7260
L62.3160 120.9165
" />
<path d="M62.3160 120.9165
L62.4112 121.0118
" />
<path d="M62.4112 121.0118
L62.6017 121.1070
" />
<path d="M62.6017 121.1070
L62.9827 121.1070
" />
<path d="M62.9827 121.1070
L63.1732 121.0118
" />
<path d="M63.1732 121.0118
L63.2684 120.9165
" />
<path d="M63.2684 120.9165
L63.3636 120.7260
" />
<path d="M63.3636 120.7260
L63.3636 120.3451
" />
<path d="M63.3636 120.3451
L63.2684 120.1546
" />
<path d="M63.2684 120.1546
L63.1732 120.0594
" />
<path d="M63.1732 120.0594
L62.9827 119.9641
" />
<path d="M64.6017 119.1070
L64.7922 119.1070
" />
<path d="M64.7922 119.1070
L64.9827 119.2022
" />
<path d="M64.9827 119.2022
L65.0779 119.2975
" />
<path d="M65.0779 119.2975
L65.1732 119.4880
" />
<path d="M65.1732 119.4880
L65.2684 119.8689
" />
<path d="M65.2684 119.8689
L65.2684 120.3451
" />
<path d="M65.2684 120.3451
L65.1732 120.7260
" />
<path d="M65.1732 120.7260
L65.0779 120.9165
" />
<path d="M65.0779 120.9165
L64.9827 121.0118
" />
<path d="M64.9827 121.0118
L64.7922 121.1070
" />
<path d="M64.7922 121.1070
L64.6017 121.1070
" />
<path d="M64.6017 121.1070
L64.4113 121.0118
" />
<path d="M64.4113 121.0118
L64.3160 120.9165
" />
<path d="M64.3160 120.9165
L64.2208 120.7260
" />
<path d="M64.2208 120.7260
L64.1255 120.3451
" />
<path d="M64.1255 120.3451
L64.1255 119.8689
" />
<path d="M64.1255 119.8689
L64.2208 119.4880
" />
<path d="M64.2208 119.4880
L64.3160 119.2975
" />
<path d="M64.3160 119.2975
L64.4113 119.2022
" />
<path d="M64.4113 119.2022
L64.6017 119.1070
" />
<path d="M66.5065 119.1070
L66.6970 119.1070
" />
<path d="M66.6970 119.1070
L66.8874 119.2022
" />
<path d="M66.8874 119.2022
L66.9827 119.2975
" />
<path d="M66.9827 119.2975
L67.0779 119.4880
" />
<path d="M67.0779 119.4880
L67.1732 119.8689
" />
<path d="M67.1732 119.8689
L67.1732 120.3451
" />
<path d="M67.1732 120.3451
L67.0779 120.7260
" />
<path d="M67.0779 120.7260
L66.9827 120.9165
" />
<path d="M66.9827 120.9165
L66.8874 121.0118
" />
<path d="M66.8874 121.0118
L66.6970 121.1070
" />
<path d="M66.6970 121.1070
L66.5065 121.1070
" />
<path d="M66.5065 121.1070
L66.3160 121.0118
" />
<path d="M66.3160 121.0118
L66.2208 120.9165
" />
<path d="M66.2208 120.9165
L66.1255 120.7260
" />
<path d="M66.1255 120.7260
L66.0303 120.3451
" />
<path d="M66.0303 120.3451
L66.0303 119.8689
" />
<path d="M66.0303 119.8689
L66.1255 119.4880
" />
<path d="M66.1255 119.4880
L66.2208 119.2975
" />
<path d="M66.2208 119.2975
L66.3160 119.2022
" />
<path d="M66.3160 119.2022
L66.5065 119.1070
" />
<path d="M68.0303 121.1070
L68.0303 119.7737
" />
<path d="M68.0303 119.9641
L68.1255 119.8689
" />
<path d="M68.1255 119.8689
L68.3160 119.7737
" />
<path d="M68.3160 119.7737
L68.6017 119.7737
" />
<path d="M68.6017 119.7737
L68.7922 119.8689
" />
<path d="M68.7922 119.8689
L68.8874 120.0594
" />
<path d="M68.8874 120.0594
L68.8874 121.1070
" />
<path d="M68.8874 120.0594
L68.9827 119.8689
" />
<path d="M68.9827 119.8689
L69.1732 119.7737
" />
<path d="M69.1732 119.7737
L69.4589 119.7737
" />
<path d="M69.4589 119.7737
L69.6493 119.8689
" />
<path d="M69.6493 119.8689
L69.7446 120.0594
" />
<path d="M69.7446 120.0594
L69.7446 121.1070
" />
<path d="M70.6970 121.1070
L70.6970 119.7737
" />
<path d="M70.6970 119.9641
L70.7922 119.8689
" />
<path d="M70.7922 119.8689
L70.9827 119.7737
" />
<path d="M70.9827 119.7737
L71.2684 119.7737
" />
<path d="M71.2684 119.7737
L71.4589 119.8689
" />
<path d="M71.4589 119.8689
L71.5541 120.0594
" />
<path d="M71.5541 120.0594
L71.5541 121.1070
" />
<path d="M71.5541 120.0594
L71.6493 119.8689
" />
<path d="M71.6493 119.8689
L71.8398 119.7737
" />
<path d="M71.8398 119.7737
L72.1255 119.7737
" />
<path d="M72.1255 119.7737
L72.3160 119.8689
" />
<path d="M72.3160 119.8689
L72.4113 120.0594
" />
<path d="M72.4113 120.0594
L72.4113 121.1070
" />
<path d="M76.3160 119.0118
L74.6017 121.5832
" />
<path d="M78.8874 119.1070
L79.0779 119.1070
" />
<path d="M79.0779 119.1070
L79.2684 119.2022
" />
<path d="M79.2684 119.2022
L79.3636 119.2975
" />
<path d="M79.3636 119.2975
L79.4589 119.4880
" />
<path d="M79.4589 119.4880
L79.5541 119.8689
" />
<path d="M79.5541 119.8689
L79.5541 120.3451
" />
<path d="M79.5541 120.3451
L79.4589 120.7260
" />
<path d="M79.4589 120.7260
L79.3636 120.9165
" />
<path d="M79.3636 120.9165
L79.2684 121.0118
" />
<path d="M79.2684 121.0118
L79.0779 121.1070
" />
<path d="M79.0779 121.1070
L78.8874 121.1070
" />
<path d="M78.8874 121.1070
L78.6970 121.0118
" />
<path d="M78.6970 121.0118
L78.6017 120.9165
" />
<path d="M78.6017 120.9165
L78.5065 120.7260
" />
<path d="M78.5065 120.7260
L78.4113 120.3451
" />
<path d="M78.4113 120.3451
L78.4113 119.8689
" />
<path d="M78.4113 119.8689
L78.5065 119.4880
" />
<path d="M78.5065 119.4880
L78.6017 119.2975
" />
<path d="M78.6017 119.2975
L78.6970 119.2022
" />
<path d="M78.6970 119.2022
L78.8874 119.1070
" />
<path d="M80.4113 120.9165
L80.5065 121.0118
" />
<path d="M80.5065 121.0118
L80.4113 121.1070
" />
<path d="M80.4113 121.1070
L80.3160 121.0118
" />
<path d="M80.3160 121.0118
L80.4113 120.9165
" />
<path d="M80.4113 120.9165
L80.4113 121.1070
" />
<path d="M81.7446 119.1070
L81.9351 119.1070
" />
<path d="M81.9351 119.1070
L82.1255 119.2022
" />
<path d="M82.1255 119.2022
L82.2208 119.2975
" />
<path d="M82.2208 119.2975
L82.3160 119.4880
" />
<path d="M82.3160 119.4880
L82.4113 119.8689
" />
<path d="M82.4113 119.8689
L82.4113 120.3451
" />
<path d="M82.4113 120.3451
L82.3160 120.7260
" />
<path d="M82.3160 120.7260
L82.2208 120.9165
" />
<path d="M82.2208 120.9165
L82.1255 121.0118
" />
<path d="M82.1255 121.0118
L81.9351 121.1070
" />
<path d="M81.9351 121.1070
L81.7446 121.1070
" />
<path d="M81.7446 121.1070
L81.5541 121.0118
" />
<path d="M81.5541 121.0118
L81.4589 120.9165
" />
<path d="M81.4589 120.9165
L81.3636 120.7260
" />
<path d="M81.3636 120.7260
L81.2684 120.3451
" />
<path d="M81.2684 120.3451
L81.2684 119.8689
" />
<path d="M81.2684 119.8689
L81.3636 119.4880
" />
<path d="M81.3636 119.4880
L81.4589 119.2975
" />
<path d="M81.4589 119.2975
L81.5541 119.2022
" />
<path d="M81.5541 119.2022
L81.7446 119.1070
" />
<path d="M83.0779 119.1070
L84.3160 119.1070
" />
<path d="M84.3160 119.1070
L83.6494 119.8689
" />
<path d="M83.6494 119.8689
L83.9351 119.8689
" />
<path d="M83.9351 119.8689
L84.1255 119.9641
" />
<path d="M84.1255 119.9641
L84.2208 120.0594
" />
<path d="M84.2208 120.0594
L84.3160 120.2499
" />
<path d="M84.3160 120.2499
L84.3160 120.7260
" />
<path d="M84.3160 120.7260
L84.2208 120.9165
" />
<path d="M84.2208 120.9165
L84.1255 121.0118
" />
<path d="M84.1255 121.0118
L83.9351 121.1070
" />
<path d="M83.9351 121.1070
L83.3636 121.1070
" />
<path d="M83.3636 121.1070
L83.1732 121.0118
" />
<path d="M83.1732 121.0118
L83.0779 120.9165
" />
<path d="M86.2208 121.1070
L85.0779 121.1070
" />
<path d="M85.6494 121.1070
L85.6494 119.1070
" />
<path d="M85.6494 119.1070
L85.4589 119.3927
" />
<path d="M85.4589 119.3927
L85.2684 119.5832
" />
<path d="M85.2684 119.5832
L85.0779 119.6784
" />
<path d="M88.0303 119.1070
L87.0779 119.1070
" />
<path d="M87.0779 119.1070
L86.9827 120.0594
" />
<path d="M86.9827 120.0594
L87.0779 119.9641
" />
<path d="M87.0779 119.9641
L87.2684 119.8689
" />
<path d="M87.2684 119.8689
L87.7446 119.8689
" />
<path d="M87.7446 119.8689
L87.9351 119.9641
" />
<path d="M87.9351 119.9641
L88.0303 120.0594
" />
<path d="M88.0303 120.0594
L88.1255 120.2499
" />
<path d="M88.1255 120.2499
L88.1255 120.7260
" />
<path d="M88.1255 120.7260
L88.0303 120.9165
" />
<path d="M88.0303 120.9165
L87.9351 121.0118
" />
<path d="M87.9351 121.0118
L87.7446 121.1070
" />
<path d="M87.7446 121.1070
L87.2684 121.1070
" />
<path d="M87.2684 121.1070
L87.0779 121.0118
" />
<path d="M87.0779 121.0118
L86.9827 120.9165
" />
<path d="M88.8875 119.1070
L88.8875 119.4880
" />
<path d="M89.6494 119.1070
L89.6494 119.4880
" />
<path d="M92.6017 121.8689
L92.5065 121.7737
" />
<path d="M92.5065 121.7737
L92.3160 121.4880
" />
<path d="M92.3160 121.4880
L92.2208 121.2975
" />
<path d="M92.2208 121.2975
L92.1256 121.0118
" />
<path d="M92.1256 121.0118
L92.0303 120.5356
" />
<path d="M92.0303 120.5356
L92.0303 120.1546
" />
<path d="M92.0303 120.1546
L92.1256 119.6784
" />
<path d="M92.1256 119.6784
L92.2208 119.3927
" />
<path d="M92.2208 119.3927
L92.3160 119.2022
" />
<path d="M92.3160 119.2022
L92.5065 118.9165
" />
<path d="M92.5065 118.9165
L92.6017 118.8213
" />
<path d="M94.2208 119.1070
L93.8398 119.1070
" />
<path d="M93.8398 119.1070
L93.6494 119.2022
" />
<path d="M93.6494 119.2022
L93.5541 119.2975
" />
<path d="M93.5541 119.2975
L93.3636 119.5832
" />
<path d="M93.3636 119.5832
L93.2684 119.9641
" />
<path d="M93.2684 119.9641
L93.2684 120.7260
" />
<path d="M93.2684 120.7260
L93.3636 120.9165
" />
<path d="M93.3636 120.9165
L93.4589 121.0118
" />
<path d="M93.4589 121.0118
L93.6494 121.1070
" />
<path d="M93.6494 121.1070
L94.0303 121.1070
" />
<path d="M94.0303 121.1070
L94.2208 121.0118
" />
<path d="M94.2208 121.0118
L94.3160 120.9165
" />
<path d="M94.3160 120.9165
L94.4113 120.7260
" />
<path d="M94.4113 120.7260
L94.4113 120.2499
" />
<path d="M94.4113 120.2499
L94.3160 120.0594
" />
<path d="M94.3160 120.0594
L94.2208 119.9641
" />
<path d="M94.2208 119.9641
L94.0303 119.8689
" />
<path d="M94.0303 119.8689
L93.6494 119.8689
" />
<path d="M93.6494 119.8689
L93.4589 119.9641
" />
<path d="M93.4589 119.9641
L93.3636 120.0594
" />
<path d="M93.3636 120.0594
L93.2684 120.2499
" />
<path d="M96.1256 119.1070
L95.7446 119.1070
" />
<path d="M95.7446 119.1070
L95.5541 119.2022
" />
<path d="M95.5541 119.2022
L95.4589 119.2975
" />
<path d="M95.4589 119.2975
L95.2684 119.5832
" />
<path d="M95.2684 119.5832
L95.1732 119.9641
" />
<path d="M95.1732 119.9641
L95.1732 120.7260
" />
<path d="M95.1732 120.7260
L95.2684 120.9165
" />
<path d="M95.2684 120.9165
L95.3636 121.0118
" />
<path d="M95.3636 121.0118
L95.5541 121.1070
" />
<path d="M95.5541 121.1070
L95.9351 121.1070
" />
<path d="M95.9351 121.1070
L96.1256 121.0118
" />
<path d="M96.1256 121.0118
L96.2208 120.9165
" />
<path d="M96.2208 120.9165
L96.3160 120.7260
" />
<path d="M96.3160 120.7260
L96.3160 120.2499
" />
<path d="M96.3160 120.2499
L96.2208 120.0594
" />
<path d="M96.2208 120.0594
L96.1256 119.9641
" />
<path d="M96.1256 119.9641
L95.9351 119.8689
" />
<path d="M95.9351 119.8689
L95.5541 119.8689
" />
<path d="M95.5541 119.8689
L95.3636 119.9641
" />
<path d="M95.3636 119.9641
L95.2684 120.0594
" />
<path d="M95.2684 120.0594
L95.1732 120.2499
" />
<path d="M98.6970 121.1070
L98.6970 119.1070
" />
<path d="M99.5541 121.1070
L99.5541 120.0594
" />
<path d="M99.5541 120.0594
L99.4589 119.8689
" />
<path d="M99.4589 119.8689
L99.2684 119.7737
" />
<path d="M99.2684 119.7737
L98.9827 119.7737
" />
<path d="M98.9827 119.7737
L98.7922 119.8689
" />
<path d="M98.7922 119.8689
L98.6970 119.9641
" />
<path d="M100.7922 121.1070
L100.6017 121.0118
" />
<path d="M100.6017 121.0118
L100.5065 120.9165
" />
<path d="M100.5065 120.9165
L100.4113 120.7260
" />
<path d="M100.4113 120.7260
L100.4113 120.1546
" />
<path d="M100.4113 120.1546
L100.5065 119.9641
" />
<path d="M100.5065 119.9641
L100.6017 119.8689
" />
<path d="M100.6017 119.8689
L100.7922 119.7737
" />
<path d="M100.7922 119.7737
L101.0779 119.7737
" />
<path d="M101.0779 119.7737
L101.2684 119.8689
" />
<path d="M101.2684 119.8689
L101.3637 119.9641
" />
<path d="M101.3637 119.9641
L101.4589 120.1546
" />
<path d="M101.4589 120.1546
L101.4589 120.7260
" />
<path d="M101.4589 120.7260
L101.3637 120.9165
" />
<path d="M101.3637 120.9165
L101.2684 121.0118
" />
<path d="M101.2684 121.0118
L101.0779 121.1070
" />
<path d="M101.0779 121.1070
L100.7922 121.1070
" />
<path d="M102.6017 121.1070
L102.4113 121.0118
" />
<path d="M102.4113 121.0118
L102.3160 120.8213
" />
<path d="M102.3160 120.8213
L102.3160 119.1070
" />
<path d="M104.1256 121.0118
L103.9351 121.1070
" />
<path d="M103.9351 121.1070
L103.5541 121.1070
" />
<path d="M103.5541 121.1070
L103.3637 121.0118
" />
<path d="M103.3637 121.0118
L103.2684 120.8213
" />
<path d="M103.2684 120.8213
L103.2684 120.0594
" />
<path d="M103.2684 120.0594
L103.3637 119.8689
" />
<path d="M103.3637 119.8689
L103.5541 119.7737
" />
<path d="M103.5541 119.7737
L103.9351 119.7737
" />
<path d="M103.9351 119.7737
L104.1256 119.8689
" />
<path d="M104.1256 119.8689
L104.2208 120.0594
" />
<path d="M104.2208 120.0594
L104.2208 120.2499
" />
<path d="M104.2208 120.2499
L103.2684 120.4403
" />
<path d="M104.9827 121.0118
L105.1732 121.1070
" />
<path d="M105.1732 121.1070
L105.5541 121.1070
" />
<path d="M105.5541 121.1070
L105.7446 121.0118
" />
<path d="M105.7446 121.0118
L105.8398 120.8213
" />
<path d="M105.8398 120.8213
L105.8398 120.7260
" />
<path d="M105.8398 120.7260
L105.7446 120.5356
" />
<path d="M105.7446 120.5356
L105.5541 120.4403
" />
<path d="M105.5541 120.4403
L105.2684 120.4403
" />
<path d="M105.2684 120.4403
L105.0779 120.3451
" />
<path d="M105.0779 120.3451
L104.9827 120.1546
" />
<path d="M104.9827 120.1546
L104.9827 120.0594
" />
<path d="M104.9827 120.0594
L105.0779 119.8689
" />
<path d="M105.0779 119.8689
L105.2684 119.7737
" />
<path d="M105.2684 119.7737
L105.5541 119.7737
" />
<path d="M105.5541 119.7737
L105.7446 119.8689
" />
<path d="M106.5065 121.8689
L106.6018 121.7737
" />
<path d="M106.6018 121.7737
L106.7922 121.4880
" />
<path d="M106.7922 121.4880
L106.8875 121.2975
" />
<path d="M106.8875 121.2975
L106.9827 121.0118
" />
<path d="M106.9827 121.0118
L107.0779 120.5356
" />
<path d="M107.0779 120.5356
L107.0779 120.1546
" />
<path d="M107.0779 120.1546
L106.9827 119.6784
" />
<path d="M106.9827 119.6784
L106.8875 119.3927
" />
<path d="M106.8875 119.3927
L106.7922 119.2022
" />
<path d="M106.7922 119.2022
L106.6018 118.9165
" />
<path d="M106.6018 118.9165
L106.5065 118.8213
" />
</g></g>
<g style="fill:#000000; fill-opacity:0.0; 
stroke:#000000; stroke-width:0.3000; stroke-opacity:1; 
stroke-linecap:round; stroke-linejoin:round;">
<path d="M55.8511 122.3922
L55.8511 124.3922
" />
<path d="M54.8511 123.3922
L56.8511 123.3922
" />
</g>
<g style="fill:#000000; fill-opacity:0.0; 
stroke:#000000; stroke-width:0.6000; stroke-opacity:1; 
stroke-linecap:round; stroke-linejoin:round;">
</g>
<g style="fill:#000000; fill-opacity:0.0; 
stroke:#000000; stroke-width:0.2000; stroke-opacity:1; 
stroke-linecap:round; stroke-linejoin:round;">
<text x="58.8511" y="124.3922"
textLength="46.8667" font-size="2.6667" lengthAdjust="spacingAndGlyphs"
text-anchor="start" opacity="0">1.000mm / 0.0394" (4 holes)</text>
<g class="stroked-text"><desc>1.000mm / 0.0394" (4 holes)</desc>
<path d="M60.5065 124.3070
L59.3636 124.3070
" />
<path d="M59.9351 124.3070
L59.9351 122.3070
" />
<path d="M59.9351 122.3070
L59.7446 122.5927
" />
<path d="M59.7446 122.5927
L59.5541 122.7832
" />
<path d="M59.5541 122.7832
L59.3636 122.8784
" />
<path d="M61.3636 124.1165
L61.4589 124.2118
" />
<path d="M61.4589 124.2118
L61.3636 124.3070
" />
<path d="M61.3636 124.3070
L61.2684 124.2118
" />
<path d="M61.2684 124.2118
L61.3636 124.1165
" />
<path d="M61.3636 124.1165
L61.3636 124.3070
" />
<path d="M62.6970 122.3070
L62.8874 122.3070
" />
<path d="M62.8874 122.3070
L63.0779 122.4022
" />
<path d="M63.0779 122.4022
L63.1732 122.4975
" />
<path d="M63.1732 122.4975
L63.2684 122.6880
" />
<path d="M63.2684 122.6880
L63.3636 123.0689
" />
<path d="M63.3636 123.0689
L63.3636 123.5451
" />
<path d="M63.3636 123.5451
L63.2684 123.9260
" />
<path d="M63.2684 123.9260
L63.1732 124.1165
" />
<path d="M63.1732 124.1165
L63.0779 124.2118
" />
<path d="M63.0779 124.2118
L62.8874 124.3070
" />
<path d="M62.8874 124.3070
L62.6970 124.3070
" />
<path d="M62.6970 124.3070
L62.5065 124.2118
" />
<path d="M62.5065 124.2118
L62.4112 124.1165
" />
<path d="M62.4112 124.1165
L62.3160 123.9260
" />
<path d="M62.3160 123.9260
L62.2208 123.5451
" />
<path d="M62.2208 123.5451
L62.2208 123.0689
" />
<path d="M62.2208 123.0689
L62.3160 122.6880
" />
<path d="M62.3160 122.6880
L62.4112 122.4975
" />
<path d="M62.4112 122.4975
L62.5065 122.4022
" />
<path d="M62.5065 122.4022
L62.6970 122.3070
" />
<path d="M64.6017 122.3070
L64.7922 122.3070
" />
<path d="M64.7922 122.3070
L64.9827 122.4022
" />
<path d="M64.9827 122.4022
L65.0779 122.4975
" />
<path d="M65.0779 122.4975
L65.1732 122.6880
" />
<path d="M65.1732 122.6880
L65.2684 123.0689
" />
<path d="M65.2684 123.0689
L65.2684 123.5451
" />
<path d="M65.2684 123.5451
L65.1732 123.9260
" />
<path d="M65.1732 123.9260
L65.0779 124.1165
" />
<path d="M65.0779 124.1165
L64.9827 124.2118
" />
<path d="M64.9827 124.2118
L64.7922 124.3070
" />
<path d="M64.7922 124.3070
L64.6017 124.3070
" />
<path d="M64.6017 124.3070
L64.4113 124.2118
" />
<path d="M64.4113 124.2118
L64.3160 124.1165
" />
<path d="M64.3160 124.1165
L64.2208 123.9260
" />
<path d="M64.2208 123.9260
L64.1255 123.5451
" />
<path d="M64.1255 123.5451
L64.1255 123.0689
" />
<path d="M64.1255 123.0689
L64.2208 122.6880
" />
<path d="M64.2208 122.6880
L64.3160 122.4975
" />
<path d="M64.3160 122.4975
L64.4113 122.4022
" />
<path d="M64.4113 122.4022
L64.6017 122.3070
" />
<path d="M66.5065 122.3070
L66.6970 122.3070
" />
<path d="M66.6970 122.3070
L66.8874 122.4022
" />
<path d="M66.8874 122.4022
L66.9827 122.4975
" />
<path d="M66.9827 122.4975
L67.0779 122.6880
" />
<path d="M67.0779 122.6880
L67.1732 123.0689
" />
<path d="M67.1732 123.0689
L67.1732 123.5451
" />
<path d="M67.1732 123.5451
L67.0779 123.9260
" />
<path d="M67.0779 123.9260
L66.9827 124.1165
" />
<path d="M66.9827 124.1165
L66.8874 124.2118
" />
<path d="M66.8874 124.2118
L66.6970 124.3070
" />
<path d="M66.6970 124.3070
L66.5065 124.3070
" />
<path d="M66.5065 124.3070
L66.3160 124.2118
" />
<path d="M66.3160 124.2118
L66.2208 124.1165
" />
<path d="M66.2208 124.1165
L66.1255 123.9260
" />
<path d="M66.1255 123.9260
L66.0303 123.5451
" />
<path d="M66.0303 123.5451
L66.0303 123.0689
" />
<path d="M66.0303 123.0689
L66.1255 122.6880
" />
<path d="M66.1255 122.6880
L66.2208 122.4975
" />
<path d="M66.2208 122.4975
L66.3160 122.4022
" />
<path d="M66.3160 122.4022
L66.5065 122.3070
" />
<path d="M68.0303 124.3070
L68.0303 122.9737
" />
<path d="M68.0303 123.1641
L68.1255 123.0689
" />
<path d="M68.1255 123.0689
L68.3160 122.9737
" />
<path d="M68.3160 122.9737
L68.6017 122.9737
" />
<path d="M68.6017 122.9737
L68.7922 123.0689
" />
<path d="M68.7922 123.0689
L68.8874 123.2594
" />
<path d="M68.8874 123.2594
L68.8874 124.3070
" />
<path d="M68.8874 123.2594
L68.9827 123.0689
" />
<path d="M68.9827 123.0689
L69.1732 122.9737
" />
<path d="M69.1732 122.9737
L69.4589 122.9737
" />
<path d="M69.4589 122.9737
L69.6493 123.0689
" />
<path d="M69.6493 123.0689
L69.7446 123.2594
" />
<path d="M69.7446 123.2594
L69.7446 124.3070
" />
<path d="M70.6970 124.3070
L70.6970 122.9737
" />
<path d="M70.6970 123.1641
L70.7922 123.0689
" />
<path d="M70.7922 123.0689
L70.9827 122.9737
" />
<path d="M70.9827 122.9737
L71.2684 122.9737
" />
<path d="M71.2684 122.9737
L71.4589 123.0689
" />
<path d="M71.4589 123.0689
L71.5541 123.2594
" />
<path d="M71.5541 123.2594
L71.5541 124.3070
" />
<path d="M71.5541 123.2594
L71.6493 123.0689
" />
<path d="M71.6493 123.0689
L71.8398 122.9737
" />
<path d="M71.8398 122.9737
L72.1255 122.9737
" />
<path d="M72.1255 122.9737
L72.3160 123.0689
" />
<path d="M72.3160 123.0689
L72.4113 123.2594
" />
<path d="M72.4113 123.2594
L72.4113 124.3070
" />
<path d="M76.3160 122.2118
L74.6017 124.7832
" />
<path d="M78.8874 122.3070
L79.0779 122.3070
" />
<path d="M79.0779 122.3070
L79.2684 122.4022
" />
<path d="M79.2684 122.4022
L79.3636 122.4975
" />
<path d="M79.3636 122.4975
L79.4589 122.6880
" />
<path d="M79.4589 122.6880
L79.5541 123.0689
" />
<path d="M79.5541 123.0689
L79.5541 123.5451
" />
<path d="M79.5541 123.5451
L79.4589 123.9260
" />
<path d="M79.4589 123.9260
L79.3636 124.1165
" />
<path d="M79.3636 124.1165
L79.2684 124.2118
" />
<path d="M79.2684 124.2118
L79.0779 124.3070
" />
<path d="M79.0779 124.3070
L78.8874 124.3070
" />
<path d="M78.8874 124.3070
L78.6970 124.2118
" />
<path d="M78.6970 124.2118
L78.6017 124.1165
" />
<path d="M78.6017 124.1165
L78.5065 123.9260
" />
<path d="M78.5065 123.9260
L78.4113 123.5451
" />
<path d="M78.4113 123.5451
L78.4113 123.0689
" />
<path d="M78.4113 123.0689
L78.5065 122.6880
" />
<path d="M78.5065 122.6880
L78.6017 122.4975
" />
<path d="M78.6017 122.4975
L78.6970 122.4022
" />
<path d="M78.6970 122.4022
L78.8874 122.3070
" />
<path d="M80.4113 124.1165
L80.5065 124.2118
" />
<path d="M80.5065 124.2118
L80.4113 124.3070
" />
<path d="M80.4113 124.3070
L80.3160 124.2118
" />
<path d="M80.3160 124.2118
L80.4113 124.1165
" />
<path d="M80.4113 124.1165
L80.4113 124.3070
" />
<path d="M81.7446 122.3070
L81.9351 122.3070
" />
<path d="M81.9351 122.3070
L82.1255 122.4022
" />
<path d="M82.1255 122.4022
L82.2208 122.4975
" />
<path d="M82.2208 122.4975
L82.3160 122.6880
" />
<path d="M82.3160 122.6880
L82.4113 123.0689
" />
<path d="M82.4113 123.0689
L82.4113 123.5451
" />
<path d="M82.4113 123.5451
L82.3160 123.9260
" />
<path d="M82.3160 123.9260
L82.2208 124.1165
" />
<path d="M82.2208 124.1165
L82.1255 124.2118
" />
<path d="M82.1255 124.2118
L81.9351 124.3070
" />
<path d="M81.9351 124.3070
L81.7446 124.3070
" />
<path d="M81.7446 124.3070
L81.5541 124.2118
" />
<path d="M81.5541 124.2118
L81.4589 124.1165
" />
<path d="M81.4589 124.1165
L81.3636 123.9260
" />
<path d="M81.3636 123.9260
L81.2684 123.5451
" />
<path d="M81.2684 123.5451
L81.2684 123.0689
" />
<path d="M81.2684 123.0689
L81.3636 122.6880
" />
<path d="M81.3636 122.6880
L81.4589 122.4975
" />
<path d="M81.4589 122.4975
L81.5541 122.4022
" />
<path d="M81.5541 122.4022
L81.7446 122.3070
" />
<path d="M83.0779 122.3070
L84.3160 122.3070
" />
<path d="M84.3160 122.3070
L83.6494 123.0689
" />
<path d="M83.6494 123.0689
L83.9351 123.0689
" />
<path d="M83.9351 123.0689
L84.1255 123.1641
" />
<path d="M84.1255 123.1641
L84.2208 123.2594
" />
<path d="M84.2208 123.2594
L84.3160 123.4499
" />
<path d="M84.3160 123.4499
L84.3160 123.9260
" />
<path d="M84.3160 123.9260
L84.2208 124.1165
" />
<path d="M84.2208 124.1165
L84.1255 124.2118
" />
<path d="M84.1255 124.2118
L83.9351 124.3070
" />
<path d="M83.9351 124.3070
L83.3636 124.3070
" />
<path d="M83.3636 124.3070
L83.1732 124.2118
" />
<path d="M83.1732 124.2118
L83.0779 124.1165
" />
<path d="M85.2684 124.3070
L85.6494 124.3070
" />
<path d="M85.6494 124.3070
L85.8398 124.2118
" />
<path d="M85.8398 124.2118
L85.9351 124.1165
" />
<path d="M85.9351 124.1165
L86.1255 123.8308
" />
<path d="M86.1255 123.8308
L86.2208 123.4499
" />
<path d="M86.2208 123.4499
L86.2208 122.6880
" />
<path d="M86.2208 122.6880
L86.1255 122.4975
" />
<path d="M86.1255 122.4975
L86.0303 122.4022
" />
<path d="M86.0303 122.4022
L85.8398 122.3070
" />
<path d="M85.8398 122.3070
L85.4589 122.3070
" />
<path d="M85.4589 122.3070
L85.2684 122.4022
" />
<path d="M85.2684 122.4022
L85.1732 122.4975
" />
<path d="M85.1732 122.4975
L85.0779 122.6880
" />
<path d="M85.0779 122.6880
L85.0779 123.1641
" />
<path d="M85.0779 123.1641
L85.1732 123.3546
" />
<path d="M85.1732 123.3546
L85.2684 123.4499
" />
<path d="M85.2684 123.4499
L85.4589 123.5451
" />
<path d="M85.4589 123.5451
L85.8398 123.5451
" />
<path d="M85.8398 123.5451
L86.0303 123.4499
" />
<path d="M86.0303 123.4499
L86.1255 123.3546
" />
<path d="M86.1255 123.3546
L86.2208 123.1641
" />
<path d="M87.9351 122.9737
L87.9351 124.3070
" />
<path d="M87.4589 122.2118
L86.9827 123.6403
" />
<path d="M86.9827 123.6403
L88.2208 123.6403
" />
<path d="M88.8875 122.3070
L88.8875 122.6880
" />
<path d="M89.6494 122.3070
L89.6494 122.6880
" />
<path d="M92.6017 125.0689
L92.5065 124.9737
" />
<path d="M92.5065 124.9737
L92.3160 124.6880
" />
<path d="M92.3160 124.6880
L92.2208 124.4975
" />
<path d="M92.2208 124.4975
L92.1256 124.2118
" />
<path d="M92.1256 124.2118
L92.0303 123.7356
" />
<path d="M92.0303 123.7356
L92.0303 123.3546
" />
<path d="M92.0303 123.3546
L92.1256 122.8784
" />
<path d="M92.1256 122.8784
L92.2208 122.5927
" />
<path d="M92.2208 122.5927
L92.3160 122.4022
" />
<path d="M92.3160 122.4022
L92.5065 122.1165
" />
<path d="M92.5065 122.1165
L92.6017 122.0213
" />
<path d="M94.2208 122.9737
L94.2208 124.3070
" />
<path d="M93.7446 122.2118
L93.2684 123.6403
" />
<path d="M93.2684 123.6403
L94.5065 123.6403
" />
<path d="M96.7922 124.3070
L96.7922 122.3070
" />
<path d="M97.6494 124.3070
L97.6494 123.2594
" />
<path d="M97.6494 123.2594
L97.5541 123.0689
" />
<path d="M97.5541 123.0689
L97.3636 122.9737
" />
<path d="M97.3636 122.9737
L97.0779 122.9737
" />
<path d="M97.0779 122.9737
L96.8875 123.0689
" />
<path d="M96.8875 123.0689
L96.7922 123.1641
" />
<path d="M98.8875 124.3070
L98.6970 124.2118
" />
<path d="M98.6970 124.2118
L98.6017 124.1165
" />
<path d="M98.6017 124.1165
L98.5065 123.9260
" />
<path d="M98.5065 123.9260
L98.5065 123.3546
" />
<path d="M98.5065 123.3546
L98.6017 123.1641
" />
<path d="M98.6017 123.1641
L98.6970 123.0689
" />
<path d="M98.6970 123.0689
L98.8875 122.9737
" />
<path d="M98.8875 122.9737
L99.1732 122.9737
" />
<path d="M99.1732 122.9737
L99.3637 123.0689
" />
<path d="M99.3637 123.0689
L99.4589 123.1641
" />
<path d="M99.4589 123.1641
L99.5541 123.3546
" />
<path d="M99.5541 123.3546
L99.5541 123.9260
" />
<path d="M99.5541 123.9260
L99.4589 124.1165
" />
<path d="M99.4589 124.1165
L99.3637 124.2118
" />
<path d="M99.3637 124.2118
L99.1732 124.3070
" />
<path d="M99.1732 124.3070
L98.8875 124.3070
" />
<path d="M100.6970 124.3070
L100.5065 124.2118
" />
<path d="M100.5065 124.2118
L100.4113 124.0213
" />
<path d="M100.4113 124.0213
L100.4113 122.3070
" />
<path d="M102.2208 124.2118
L102.0303 124.3070
" />
<path d="M102.0303 124.3070
L101.6494 124.3070
" />
<path d="M101.6494 124.3070
L101.4589 124.2118
" />
<path d="M101.4589 124.2118
L101.3637 124.0213
" />
<path d="M101.3637 124.0213
L101.3637 123.2594
" />
<path d="M101.3637 123.2594
L101.4589 123.0689
" />
<path d="M101.4589 123.0689
L101.6494 122.9737
" />
<path d="M101.6494 122.9737
L102.0303 122.9737
" />
<path d="M102.0303 122.9737
L102.2208 123.0689
" />
<path d="M102.2208 123.0689
L102.3160 123.2594
" />
<path d="M102.3160 123.2594
L102.3160 123.4499
" />
<path d="M102.3160 123.4499
L101.3637 123.6403
" />
<path d="M103.0779 124.2118
L103.2684 124.3070
" />
<path d="M103.2684 124.3070
L103.6494 124.3070
" />
<path d="M103.6494 124.3070
L103.8398 124.2118
" />
<path d="M103.8398 124.2118
L103.9351 124.0213
" />
<path d="M103.9351 124.0213
L103.9351 123.9260
" />
<path d="M103.9351 123.9260
L103.8398 123.7356
" />
<path d="M103.8398 123.7356
L103.6494 123.6403
" />
<path d="M103.6494 123.6403
L103.3637 123.6403
" />
<path d="M103.3637 123.6403
L103.1732 123.5451
" />
<path d="M103.1732 123.5451
L103.0779 123.3546
" />
<path d="M103.0779 123.3546
L103.0779 123.2594
" />
<path d="M103.0779 123.2594
L103.1732 123.0689
" />
<path d="M103.1732 123.0689
L103.3637 122.9737
" />
<path d="M103.3637 122.9737
L103.6494 122.9737
" />
<path d="M103.6494 122.9737
L103.8398 123.0689
" />
<path d="M104.6018 125.0689
L104.6970 124.9737
" />
<path d="M104.6970 124.9737
L104.8875 124.6880
" />
<path d="M104.8875 124.6880
L104.9827 124.4975
" />
<path d="M104.9827 124.4975
L105.0779 124.2118
" />
<path d="M105.0779 124.2118
L105.1732 123.7356
" />
<path d="M105.1732 123.7356
L105.1732 123.3546
" />
<path d="M105.1732 123.3546
L105.0779 122.8784
" />
<path d="M105.0779 122.8784
L104.9827 122.5927
" />
<path d="M104.9827 122.5927
L104.8875 122.4022
" />
<path d="M104.8875 122.4022
L104.6970 122.1165
" />
<path d="M104.6970 122.1165
L104.6018 122.0213
" />
</g></g>
<g style="fill:#000000; fill-opacity:0.0; 
stroke:#000000; stroke-width:0.3000; stroke-opacity:1; 
stroke-linecap:round; stroke-linejoin:round;">
<path style="fill:#000000; fill-opacity:0.0; 
stroke:#000000; stroke-width:0.3000; stroke-opacity:1; 
stroke-linecap:round; stroke-linejoin:round;fill:none"
d="M 56.5582,127.2993
56.5582,125.8851
55.1440,125.8851
55.1440,127.2993
Z" /> 
</g>
<g style="fill:#000000; fill-opacity:0.0; 
stroke:#000000; stroke-width:0.6000; stroke-opacity:1; 
stroke-linecap:round; stroke-linejoin:round;">
</g>
<g style="fill:#000000; fill-opacity:0.0; 
stroke:#000000; stroke-width:0.2000; stroke-opacity:1; 
stroke-linecap:round; stroke-linejoin:round;">
<text x="58.8511" y="127.5922"
textLength="46.8667" font-size="2.6667" lengthAdjust="spacingAndGlyphs"
text-anchor="start" opacity="0">1.520mm / 0.0598" (2 holes)</text>
<g class="stroked-text"><desc>1.520mm / 0.0598" (2 holes)</desc>
<path d="M60.5065 127.5070
L59.3636 127.5070
" />
<path d="M59.9351 127.5070
L59.9351 125.5070
" />
<path d="M59.9351 125.5070
L59.7446 125.7927
" />
<path d="M59.7446 125.7927
L59.5541 125.9832
" />
<path d="M59.5541 125.9832
L59.3636 126.0784
" />
<path d="M61.3636 127.3165
L61.4589 127.4118
" />
<path d="M61.4589 127.4118
L61.3636 127.5070
" />
<path d="M61.3636 127.5070
L61.2684 127.4118
" />
<path d="M61.2684 127.4118
L61.3636 127.3165
" />
<path d="M61.3636 127.3165
L61.3636 127.5070
" />
<path d="M63.2684 125.5070
L62.3160 125.5070
" />
<path d="M62.3160 125.5070
L62.2208 126.4594
" />
<path d="M62.2208 126.4594
L62.3160 126.3641
" />
<path d="M62.3160 126.3641
L62.5065 126.2689
" />
<path d="M62.5065 126.2689
L62.9827 126.2689
" />
<path d="M62.9827 126.2689
L63.1732 126.3641
" />
<path d="M63.1732 126.3641
L63.2684 126.4594
" />
<path d="M63.2684 126.4594
L63.3636 126.6499
" />
<path d="M63.3636 126.6499
L63.3636 127.1260
" />
<path d="M63.3636 127.1260
L63.2684 127.3165
" />
<path d="M63.2684 127.3165
L63.1732 127.4118
" />
<path d="M63.1732 127.4118
L62.9827 127.5070
" />
<path d="M62.9827 127.5070
L62.5065 127.5070
" />
<path d="M62.5065 127.5070
L62.3160 127.4118
" />
<path d="M62.3160 127.4118
L62.2208 127.3165
" />
<path d="M64.1255 125.6975
L64.2208 125.6022
" />
<path d="M64.2208 125.6022
L64.4113 125.5070
" />
<path d="M64.4113 125.5070
L64.8874 125.5070
" />
<path d="M64.8874 125.5070
L65.0779 125.6022
" />
<path d="M65.0779 125.6022
L65.1732 125.6975
" />
<path d="M65.1732 125.6975
L65.2684 125.8880
" />
<path d="M65.2684 125.8880
L65.2684 126.0784
" />
<path d="M65.2684 126.0784
L65.1732 126.3641
" />
<path d="M65.1732 126.3641
L64.0303 127.5070
" />
<path d="M64.0303 127.5070
L65.2684 127.5070
" />
<path d="M66.5065 125.5070
L66.6970 125.5070
" />
<path d="M66.6970 125.5070
L66.8874 125.6022
" />
<path d="M66.8874 125.6022
L66.9827 125.6975
" />
<path d="M66.9827 125.6975
L67.0779 125.8880
" />
<path d="M67.0779 125.8880
L67.1732 126.2689
" />
<path d="M67.1732 126.2689
L67.1732 126.7451
" />
<path d="M67.1732 126.7451
L67.0779 127.1260
" />
<path d="M67.0779 127.1260
L66.9827 127.3165
" />
<path d="M66.9827 127.3165
L66.8874 127.4118
" />
<path d="M66.8874 127.4118
L66.6970 127.5070
" />
<path d="M66.6970 127.5070
L66.5065 127.5070
" />
<path d="M66.5065 127.5070
L66.3160 127.4118
" />
<path d="M66.3160 127.4118
L66.2208 127.3165
" />
<path d="M66.2208 127.3165
L66.1255 127.1260
" />
<path d="M66.1255 127.1260
L66.0303 126.7451
" />
<path d="M66.0303 126.7451
L66.0303 126.2689
" />
<path d="M66.0303 126.2689
L66.1255 125.8880
" />
<path d="M66.1255 125.8880
L66.2208 125.6975
" />
<path d="M66.2208 125.6975
L66.3160 125.6022
" />
<path d="M66.3160 125.6022
L66.5065 125.5070
" />
<path d="M68.0303 127.5070
L68.0303 126.1737
" />
<path d="M68.0303 126.3641
L68.1255 126.2689
" />
<path d="M68.1255 126.2689
L68.3160 126.1737
" />
<path d="M68.3160 126.1737
L68.6017 126.1737
" />
<path d="M68.6017 126.1737
L68.7922 126.2689
" />
<path d="M68.7922 126.2689
L68.8874 126.4594
" />
<path d="M68.8874 126.4594
L68.8874 127.5070
" />
<path d="M68.8874 126.4594
L68.9827 126.2689
" />
<path d="M68.9827 126.2689
L69.1732 126.1737
" />
<path d="M69.1732 126.1737
L69.4589 126.1737
" />
<path d="M69.4589 126.1737
L69.6493 126.2689
" />
<path d="M69.6493 126.2689
L69.7446 126.4594
" />
<path d="M69.7446 126.4594
L69.7446 127.5070
" />
<path d="M70.6970 127.5070
L70.6970 126.1737
" />
<path d="M70.6970 126.3641
L70.7922 126.2689
" />
<path d="M70.7922 126.2689
L70.9827 126.1737
" />
<path d="M70.9827 126.1737
L71.2684 126.1737
" />
<path d="M71.2684 126.1737
L71.4589 126.2689
" />
<path d="M71.4589 126.2689
L71.5541 126.4594
" />
<path d="M71.5541 126.4594
L71.5541 127.5070
" />
<path d="M71.5541 126.4594
L71.6493 126.2689
" />
<path d="M71.6493 126.2689
L71.8398 126.1737
" />
<path d="M71.8398 126.1737
L72.1255 126.1737
" />
<path d="M72.1255 126.1737
L72.3160 126.2689
" />
<path d="M72.3160 126.2689
L72.4113 126.4594
" />
<path d="M72.4113 126.4594
L72.4113 127.5070
" />
<path d="M76.3160 125.4118
L74.6017 127.9832
" />
<path d="M78.8874 125.5070
L79.0779 125.5070
" />
<path d="M79.0779 125.5070
L79.2684 125.6022
" />
<path d="M79.2684 125.6022
L79.3636 125.6975
" />
<path d="M79.3636 125.6975
L79.4589 125.8880
" />
<path d="M79.4589 125.8880
L79.5541 126.2689
" />
<path d="M79.5541 126.2689
L79.5541 126.7451
" />
<path d="M79.5541 126.7451
L79.4589 127.1260
" />
<path d="M79.4589 127.1260
L79.3636 127.3165
" />
<path d="M79.3636 127.3165
L79.2684 127.4118
" />
<path d="M79.2684 127.4118
L79.0779 127.5070
" />
<path d="M79.0779 127.5070
L78.8874 127.5070
" />
<path d="M78.8874 127.5070
L78.6970 127.4118
" />
<path d="M78.6970 127.4118
L78.6017 127.3165
" />
<path d="M78.6017 127.3165
L78.5065 127.1260
" />
<path d="M78.5065 127.1260
L78.4113 126.7451
" />
<path d="M78.4113 126.7451
L78.4113 126.2689
" />
<path d="M78.4113 126.2689
L78.5065 125.8880
" />
<path d="M78.5065 125.8880
L78.6017 125.6975
" />
<path d="M78.6017 125.6975
L78.6970 125.6022
" />
<path d="M78.6970 125.6022
L78.8874 125.5070
" />
<path d="M80.4113 127.3165
L80.5065 127.4118
" />
<path d="M80.5065 127.4118
L80.4113 127.5070
" />
<path d="M80.4113 127.5070
L80.3160 127.4118
" />
<path d="M80.3160 127.4118
L80.4113 127.3165
" />
<path d="M80.4113 127.3165
L80.4113 127.5070
" />
<path d="M81.7446 125.5070
L81.9351 125.5070
" />
<path d="M81.9351 125.5070
L82.1255 125.6022
" />
<path d="M82.1255 125.6022
L82.2208 125.6975
" />
<path d="M82.2208 125.6975
L82.3160 125.8880
" />
<path d="M82.3160 125.8880
L82.4113 126.2689
" />
<path d="M82.4113 126.2689
L82.4113 126.7451
" />
<path d="M82.4113 126.7451
L82.3160 127.1260
" />
<path d="M82.3160 127.1260
L82.2208 127.3165
" />
<path d="M82.2208 127.3165
L82.1255 127.4118
" />
<path d="M82.1255 127.4118
L81.9351 127.5070
" />
<path d="M81.9351 127.5070
L81.7446 127.5070
" />
<path d="M81.7446 127.5070
L81.5541 127.4118
" />
<path d="M81.5541 127.4118
L81.4589 127.3165
" />
<path d="M81.4589 127.3165
L81.3636 127.1260
" />
<path d="M81.3636 127.1260
L81.2684 126.7451
" />
<path d="M81.2684 126.7451
L81.2684 126.2689
" />
<path d="M81.2684 126.2689
L81.3636 125.8880
" />
<path d="M81.3636 125.8880
L81.4589 125.6975
" />
<path d="M81.4589 125.6975
L81.5541 125.6022
" />
<path d="M81.5541 125.6022
L81.7446 125.5070
" />
<path d="M84.2208 125.5070
L83.2684 125.5070
" />
<path d="M83.2684 125.5070
L83.1732 126.4594
" />
<path d="M83.1732 126.4594
L83.2684 126.3641
" />
<path d="M83.2684 126.3641
L83.4589 126.2689
" />
<path d="M83.4589 126.2689
L83.9351 126.2689
" />
<path d="M83.9351 126.2689
L84.1255 126.3641
" />
<path d="M84.1255 126.3641
L84.2208 126.4594
" />
<path d="M84.2208 126.4594
L84.3160 126.6499
" />
<path d="M84.3160 126.6499
L84.3160 127.1260
" />
<path d="M84.3160 127.1260
L84.2208 127.3165
" />
<path d="M84.2208 127.3165
L84.1255 127.4118
" />
<path d="M84.1255 127.4118
L83.9351 127.5070
" />
<path d="M83.9351 127.5070
L83.4589 127.5070
" />
<path d="M83.4589 127.5070
L83.2684 127.4118
" />
<path d="M83.2684 127.4118
L83.1732 127.3165
" />
<path d="M85.2684 127.5070
L85.6494 127.5070
" />
<path d="M85.6494 127.5070
L85.8398 127.4118
" />
<path d="M85.8398 127.4118
L85.9351 127.3165
" />
<path d="M85.9351 127.3165
L86.1255 127.0308
" />
<path d="M86.1255 127.0308
L86.2208 126.6499
" />
<path d="M86.2208 126.6499
L86.2208 125.8880
" />
<path d="M86.2208 125.8880
L86.1255 125.6975
" />
<path d="M86.1255 125.6975
L86.0303 125.6022
" />
<path d="M86.0303 125.6022
L85.8398 125.5070
" />
<path d="M85.8398 125.5070
L85.4589 125.5070
" />
<path d="M85.4589 125.5070
L85.2684 125.6022
" />
<path d="M85.2684 125.6022
L85.1732 125.6975
" />
<path d="M85.1732 125.6975
L85.0779 125.8880
" />
<path d="M85.0779 125.8880
L85.0779 126.3641
" />
<path d="M85.0779 126.3641
L85.1732 126.5546
" />
<path d="M85.1732 126.5546
L85.2684 126.6499
" />
<path d="M85.2684 126.6499
L85.4589 126.7451
" />
<path d="M85.4589 126.7451
L85.8398 126.7451
" />
<path d="M85.8398 126.7451
L86.0303 126.6499
" />
<path d="M86.0303 126.6499
L86.1255 126.5546
" />
<path d="M86.1255 126.5546
L86.2208 126.3641
" />
<path d="M87.3636 126.3641
L87.1732 126.2689
" />
<path d="M87.1732 126.2689
L87.0779 126.1737
" />
<path d="M87.0779 126.1737
L86.9827 125.9832
" />
<path d="M86.9827 125.9832
L86.9827 125.8880
" />
<path d="M86.9827 125.8880
L87.0779 125.6975
" />
<path d="M87.0779 125.6975
L87.1732 125.6022
" />
<path d="M87.1732 125.6022
L87.3636 125.5070
" />
<path d="M87.3636 125.5070
L87.7446 125.5070
" />
<path d="M87.7446 125.5070
L87.9351 125.6022
" />
<path d="M87.9351 125.6022
L88.0303 125.6975
" />
<path d="M88.0303 125.6975
L88.1255 125.8880
" />
<path d="M88.1255 125.8880
L88.1255 125.9832
" />
<path d="M88.1255 125.9832
L88.0303 126.1737
" />
<path d="M88.0303 126.1737
L87.9351 126.2689
" />
<path d="M87.9351 126.2689
L87.7446 126.3641
" />
<path d="M87.7446 126.3641
L87.3636 126.3641
" />
<path d="M87.3636 126.3641
L87.1732 126.4594
" />
<path d="M87.1732 126.4594
L87.0779 126.5546
" />
<path d="M87.0779 126.5546
L86.9827 126.7451
" />
<path d="M86.9827 126.7451
L86.9827 127.1260
" />
<path d="M86.9827 127.1260
L87.0779 127.3165
" />
<path d="M87.0779 127.3165
L87.1732 127.4118
" />
<path d="M87.1732 127.4118
L87.3636 127.5070
" />
<path d="M87.3636 127.5070
L87.7446 127.5070
" />
<path d="M87.7446 127.5070
L87.9351 127.4118
" />
<path d="M87.9351 127.4118
L88.0303 127.3165
" />
<path d="M88.0303 127.3165
L88.1255 127.1260
" />
<path d="M88.1255 127.1260
L88.1255 126.7451
" />
<path d="M88.1255 126.7451
L88.0303 126.5546
" />
<path d="M88.0303 126.5546
L87.9351 126.4594
" />
<path d="M87.9351 126.4594
L87.7446 126.3641
" />
<path d="M88.8875 125.5070
L88.8875 125.8880
" />
<path d="M89.6494 125.5070
L89.6494 125.8880
" />
<path d="M92.6017 128.2689
L92.5065 128.1737
" />
<path d="M92.5065 128.1737
L92.3160 127.8880
" />
<path d="M92.3160 127.8880
L92.2208 127.6975
" />
<path d="M92.2208 127.6975
L92.1256 127.4118
" />
<path d="M92.1256 127.4118
L92.0303 126.9356
" />
<path d="M92.0303 126.9356
L92.0303 126.5546
" />
<path d="M92.0303 126.5546
L92.1256 126.0784
" />
<path d="M92.1256 126.0784
L92.2208 125.7927
" />
<path d="M92.2208 125.7927
L92.3160 125.6022
" />
<path d="M92.3160 125.6022
L92.5065 125.3165
" />
<path d="M92.5065 125.3165
L92.6017 125.2213
" />
<path d="M93.2684 125.6975
L93.3636 125.6022
" />
<path d="M93.3636 125.6022
L93.5541 125.5070
" />
<path d="M93.5541 125.5070
L94.0303 125.5070
" />
<path d="M94.0303 125.5070
L94.2208 125.6022
" />
<path d="M94.2208 125.6022
L94.3160 125.6975
" />
<path d="M94.3160 125.6975
L94.4113 125.8880
" />
<path d="M94.4113 125.8880
L94.4113 126.0784
" />
<path d="M94.4113 126.0784
L94.3160 126.3641
" />
<path d="M94.3160 126.3641
L93.1732 127.5070
" />
<path d="M93.1732 127.5070
L94.4113 127.5070
" />
<path d="M96.7922 127.5070
L96.7922 125.5070
" />
<path d="M97.6494 127.5070
L97.6494 126.4594
" />
<path d="M97.6494 126.4594
L97.5541 126.2689
" />
<path d="M97.5541 126.2689
L97.3636 126.1737
" />
<path d="M97.3636 126.1737
L97.0779 126.1737
" />
<path d="M97.0779 126.1737
L96.8875 126.2689
" />
<path d="M96.8875 126.2689
L96.7922 126.3641
" />
<path d="M98.8875 127.5070
L98.6970 127.4118
" />
<path d="M98.6970 127.4118
L98.6017 127.3165
" />
<path d="M98.6017 127.3165
L98.5065 127.1260
" />
<path d="M98.5065 127.1260
L98.5065 126.5546
" />
<path d="M98.5065 126.5546
L98.6017 126.3641
" />
<path d="M98.6017 126.3641
L98.6970 126.2689
" />
<path d="M98.6970 126.2689
L98.8875 126.1737
" />
<path d="M98.8875 126.1737
L99.1732 126.1737
" />
<path d="M99.1732 126.1737
L99.3637 126.2689
" />
<path d="M99.3637 126.2689
L99.4589 126.3641
" />
<path d="M99.4589 126.3641
L99.5541 126.5546
" />
<path d="M99.5541 126.5546
L99.5541 127.1260
" />
<path d="M99.5541 127.1260
L99.4589 127.3165
" />
<path d="M99.4589 127.3165
L99.3637 127.4118
" />
<path d="M99.3637 127.4118
L99.1732 127.5070
" />
<path d="M99.1732 127.5070
L98.8875 127.5070
" />
<path d="M100.6970 127.5070
L100.5065 127.4118
" />
<path d="M100.5065 127.4118
L100.4113 127.2213
" />
<path d="M100.4113 127.2213
L100.4113 125.5070
" />
<path d="M102.2208 127.4118
L102.0303 127.5070
" />
<path d="M102.0303 127.5070
L101.6494 127.5070
" />
<path d="M101.6494 127.5070
L101.4589 127.4118
" />
<path d="M101.4589 127.4118
L101.3637 127.2213
" />
<path d="M101.3637 127.2213
L101.3637 126.4594
" />
<path d="M101.3637 126.4594
L101.4589 126.2689
" />
<path d="M101.4589 126.2689
L101.6494 126.1737
" />
<path d="M101.6494 126.1737
L102.0303 126.1737
" />
<path d="M102.0303 126.1737
L102.2208 126.2689
" />
<path d="M102.2208 126.2689
L102.3160 126.4594
" />
<path d="M102.3160 126.4594
L102.3160 126.6499
" />
<path d="M102.3160 126.6499
L101.3637 126.8403
" />
<path d="M103.0779 127.4118
L103.2684 127.5070
" />
<path d="M103.2684 127.5070
L103.6494 127.5070
" />
<path d="M103.6494 127.5070
L103.8398 127.4118
" />
<path d="M103.8398 127.4118
L103.9351 127.2213
" />
<path d="M103.9351 127.2213
L103.9351 127.1260
" />
<path d="M103.9351 127.1260
L103.8398 126.9356
" />
<path d="M103.8398 126.9356
L103.6494 126.8403
" />
<path d="M103.6494 126.8403
L103.3637 126.8403
" />
<path d="M103.3637 126.8403
L103.1732 126.7451
" />
<path d="M103.1732 126.7451
L103.0779 126.5546
" />
<path d="M103.0779 126.5546
L103.0779 126.4594
" />
<path d="M103.0779 126.4594
L103.1732 126.2689
" />
<path d="M103.1732 126.2689
L103.3637 126.1737
" />
<path d="M103.3637 126.1737
L103.6494 126.1737
" />
<path d="M103.6494 126.1737
L103.8398 126.2689
" />
<path d="M104.6018 128.2689
L104.6970 128.1737
" />
<path d="M104.6970 128.1737
L104.8875 127.8880
" />
<path d="M104.8875 127.8880
L104.9827 127.6975
" />
<path d="M104.9827 127.6975
L105.0779 127.4118
" />
<path d="M105.0779 127.4118
L105.1732 126.9356
" />
<path d="M105.1732 126.9356
L105.1732 126.5546
" />
<path d="M105.1732 126.5546
L105.0779 126.0784
" />
<path d="M105.0779 126.0784
L104.9827 125.7927
" />
<path d="M104.9827 125.7927
L104.8875 125.6022
" />
<path d="M104.8875 125.6022
L104.6970 125.3165
" />
<path d="M104.6970 125.3165
L104.6018 125.2213
" />
</g></g> 
</svg>
