%TF.GenerationSoftware,KiCad,Pcbnew,7.0.9-rc2*%
%TF.CreationDate,2023-12-26T16:59:53-08:00*%
%TF.ProjectId,driver_board,64726976-6572-45f6-926f-6172642e6b69,rev?*%
%TF.SameCoordinates,PX5f5e100PY5f5e100*%
%TF.FileFunction,Copper,L1,Top*%
%TF.FilePolarity,Positive*%
%FSLAX46Y46*%
G04 Gerber Fmt 4.6, Leading zero omitted, Abs format (unit mm)*
G04 Created by KiCad (PCBNEW 7.0.9-rc2) date 2023-12-26 16:59:53*
%MOMM*%
%LPD*%
G01*
G04 APERTURE LIST*
G04 Aperture macros list*
%AMRoundRect*
0 Rectangle with rounded corners*
0 $1 Rounding radius*
0 $2 $3 $4 $5 $6 $7 $8 $9 X,Y pos of 4 corners*
0 Add a 4 corners polygon primitive as box body*
4,1,4,$2,$3,$4,$5,$6,$7,$8,$9,$2,$3,0*
0 Add four circle primitives for the rounded corners*
1,1,$1+$1,$2,$3*
1,1,$1+$1,$4,$5*
1,1,$1+$1,$6,$7*
1,1,$1+$1,$8,$9*
0 Add four rect primitives between the rounded corners*
20,1,$1+$1,$2,$3,$4,$5,0*
20,1,$1+$1,$4,$5,$6,$7,0*
20,1,$1+$1,$6,$7,$8,$9,0*
20,1,$1+$1,$8,$9,$2,$3,0*%
G04 Aperture macros list end*
%TA.AperFunction,SMDPad,CuDef*%
%ADD10RoundRect,0.225000X0.225000X0.250000X-0.225000X0.250000X-0.225000X-0.250000X0.225000X-0.250000X0*%
%TD*%
%TA.AperFunction,SMDPad,CuDef*%
%ADD11RoundRect,0.150000X0.600000X0.150000X-0.600000X0.150000X-0.600000X-0.150000X0.600000X-0.150000X0*%
%TD*%
%TA.AperFunction,SMDPad,CuDef*%
%ADD12RoundRect,0.225000X-0.225000X-0.250000X0.225000X-0.250000X0.225000X0.250000X-0.225000X0.250000X0*%
%TD*%
%TA.AperFunction,ComponentPad*%
%ADD13C,1.600000*%
%TD*%
%TA.AperFunction,ComponentPad*%
%ADD14R,1.600000X1.600000*%
%TD*%
%TA.AperFunction,SMDPad,CuDef*%
%ADD15RoundRect,0.150000X-0.587500X-0.150000X0.587500X-0.150000X0.587500X0.150000X-0.587500X0.150000X0*%
%TD*%
%TA.AperFunction,SMDPad,CuDef*%
%ADD16RoundRect,0.200000X0.275000X-0.200000X0.275000X0.200000X-0.275000X0.200000X-0.275000X-0.200000X0*%
%TD*%
%TA.AperFunction,SMDPad,CuDef*%
%ADD17RoundRect,0.135000X0.185000X-0.135000X0.185000X0.135000X-0.185000X0.135000X-0.185000X-0.135000X0*%
%TD*%
%TA.AperFunction,SMDPad,CuDef*%
%ADD18RoundRect,0.135000X0.135000X0.185000X-0.135000X0.185000X-0.135000X-0.185000X0.135000X-0.185000X0*%
%TD*%
%TA.AperFunction,SMDPad,CuDef*%
%ADD19RoundRect,0.150000X0.150000X-0.825000X0.150000X0.825000X-0.150000X0.825000X-0.150000X-0.825000X0*%
%TD*%
%TA.AperFunction,ComponentPad*%
%ADD20R,3.000000X3.000000*%
%TD*%
%TA.AperFunction,ComponentPad*%
%ADD21C,3.000000*%
%TD*%
%TA.AperFunction,SMDPad,CuDef*%
%ADD22RoundRect,0.150000X0.725000X0.150000X-0.725000X0.150000X-0.725000X-0.150000X0.725000X-0.150000X0*%
%TD*%
%TA.AperFunction,ComponentPad*%
%ADD23R,1.700000X1.700000*%
%TD*%
%TA.AperFunction,ComponentPad*%
%ADD24O,1.700000X1.700000*%
%TD*%
%TA.AperFunction,ComponentPad*%
%ADD25R,1.350000X1.350000*%
%TD*%
%TA.AperFunction,ComponentPad*%
%ADD26O,1.350000X1.350000*%
%TD*%
%TA.AperFunction,SMDPad,CuDef*%
%ADD27RoundRect,0.250000X0.650000X-0.325000X0.650000X0.325000X-0.650000X0.325000X-0.650000X-0.325000X0*%
%TD*%
%TA.AperFunction,SMDPad,CuDef*%
%ADD28RoundRect,0.250000X0.475000X-0.250000X0.475000X0.250000X-0.475000X0.250000X-0.475000X-0.250000X0*%
%TD*%
%TA.AperFunction,SMDPad,CuDef*%
%ADD29RoundRect,0.225000X0.250000X-0.225000X0.250000X0.225000X-0.250000X0.225000X-0.250000X-0.225000X0*%
%TD*%
%TA.AperFunction,ViaPad*%
%ADD30C,0.800000*%
%TD*%
%TA.AperFunction,Conductor*%
%ADD31C,0.250000*%
%TD*%
%TA.AperFunction,Conductor*%
%ADD32C,0.500000*%
%TD*%
%TA.AperFunction,Conductor*%
%ADD33C,0.400000*%
%TD*%
%TA.AperFunction,Conductor*%
%ADD34C,1.000000*%
%TD*%
G04 APERTURE END LIST*
D10*
%TO.P,C7,1*%
%TO.N,+12V*%
X26875000Y-29000000D03*
%TO.P,C7,2*%
%TO.N,GND*%
X25325000Y-29000000D03*
%TD*%
D11*
%TO.P,U3,1,Pin_1*%
%TO.N,+5V*%
X36100000Y-29000000D03*
%TO.P,U3,2,Pin_2*%
X36100000Y-27730000D03*
%TO.P,U3,3,Pin_3*%
%TO.N,/DIG_0*%
X36100000Y-26460000D03*
%TO.P,U3,4,Pin_4*%
%TO.N,/DIG_VT_0*%
X36100000Y-25190000D03*
%TO.P,U3,5,Pin_5*%
%TO.N,/DIG_VT_1*%
X36100000Y-23920000D03*
%TO.P,U3,6,Pin_6*%
%TO.N,/DIG_1*%
X36100000Y-22650000D03*
%TO.P,U3,7,Pin_7*%
%TO.N,+5V*%
X36100000Y-21380000D03*
%TO.P,U3,8,Pin_8*%
%TO.N,GND*%
X36100000Y-20110000D03*
%TO.P,U3,9,Pin_9*%
%TO.N,+5V*%
X29000000Y-20110000D03*
%TO.P,U3,10,Pin_10*%
%TO.N,/DIG_2*%
X29000000Y-21380000D03*
%TO.P,U3,11,Pin_11*%
%TO.N,/DIG_VT_2*%
X29000000Y-22650000D03*
%TO.P,U3,12,Pin_12*%
%TO.N,unconnected-(U3-Pin_12-Pad12)*%
X29000000Y-23920000D03*
%TO.P,U3,13,Pin_13*%
%TO.N,/DIG_VT_3*%
X29000000Y-25190000D03*
%TO.P,U3,14,Pin_14*%
%TO.N,/DIG_3*%
X29000000Y-26460000D03*
%TO.P,U3,15,Pin_15*%
%TO.N,+5V*%
X29000000Y-27730000D03*
%TO.P,U3,16,Pin_16*%
%TO.N,+12V*%
X29000000Y-29000000D03*
%TD*%
D12*
%TO.P,C6,2*%
%TO.N,GND*%
X39775000Y-29000000D03*
%TO.P,C6,1*%
%TO.N,+5V*%
X38225000Y-29000000D03*
%TD*%
D13*
%TO.P,C5,2*%
%TO.N,GND*%
X46000000Y-20500000D03*
D14*
%TO.P,C5,1*%
%TO.N,+12V*%
X46000000Y-23000000D03*
%TD*%
D15*
%TO.P,U1,3,VI*%
%TO.N,+12V*%
X44000000Y-22500000D03*
%TO.P,U1,2,VO*%
%TO.N,+5V*%
X42125000Y-23450000D03*
%TO.P,U1,1,GND*%
%TO.N,GND*%
X42125000Y-21550000D03*
%TD*%
D16*
%TO.P,R14,1*%
%TO.N,+5V*%
X53000000Y-11125000D03*
%TO.P,R14,2*%
%TO.N,/SCL*%
X53000000Y-9475000D03*
%TD*%
%TO.P,R13,1*%
%TO.N,+5V*%
X54500000Y-12475000D03*
%TO.P,R13,2*%
%TO.N,/SDA*%
X54500000Y-10825000D03*
%TD*%
D17*
%TO.P,R12,1*%
%TO.N,/DIG_VT_3*%
X21000000Y-29000000D03*
%TO.P,R12,2*%
%TO.N,Net-(Q10B-G-Pad4)*%
X21000000Y-27980000D03*
%TD*%
%TO.P,R11,2*%
%TO.N,Net-(Q10A-G-Pad2)*%
X18250000Y-27990000D03*
%TO.P,R11,1*%
%TO.N,/DIG_VT_2*%
X18250000Y-29010000D03*
%TD*%
%TO.P,R10,1*%
%TO.N,/DIG_VT_1*%
X9000000Y-29020000D03*
%TO.P,R10,2*%
%TO.N,Net-(Q9B-G-Pad4)*%
X9000000Y-28000000D03*
%TD*%
%TO.P,R9,1*%
%TO.N,/DIG_VT_0*%
X6250000Y-29020000D03*
%TO.P,R9,2*%
%TO.N,Net-(Q9A-G-Pad2)*%
X6250000Y-28000000D03*
%TD*%
D18*
%TO.P,R8,1*%
%TO.N,/SEG_DP*%
X39020000Y-15000000D03*
%TO.P,R8,2*%
%TO.N,Net-(Q8-G)*%
X38000000Y-15000000D03*
%TD*%
%TO.P,R7,1*%
%TO.N,/SEG_G*%
X32020000Y-14000000D03*
%TO.P,R7,2*%
%TO.N,Net-(Q7-G)*%
X31000000Y-14000000D03*
%TD*%
%TO.P,R6,1*%
%TO.N,/SEG_F*%
X39020000Y-11000000D03*
%TO.P,R6,2*%
%TO.N,Net-(Q6-G)*%
X38000000Y-11000000D03*
%TD*%
%TO.P,R5,1*%
%TO.N,/SEG_E*%
X32020000Y-10000000D03*
%TO.P,R5,2*%
%TO.N,Net-(Q5-G)*%
X31000000Y-10000000D03*
%TD*%
%TO.P,R4,1*%
%TO.N,/SEG_D*%
X39000000Y-7000000D03*
%TO.P,R4,2*%
%TO.N,Net-(Q4-G)*%
X37980000Y-7000000D03*
%TD*%
%TO.P,R3,2*%
%TO.N,Net-(Q3-G)*%
X31000000Y-6000000D03*
%TO.P,R3,1*%
%TO.N,/SEG_C*%
X32020000Y-6000000D03*
%TD*%
%TO.P,R2,2*%
%TO.N,Net-(Q2-G)*%
X38000000Y-3000000D03*
%TO.P,R2,1*%
%TO.N,/SEG_B*%
X39020000Y-3000000D03*
%TD*%
%TO.P,R1,2*%
%TO.N,Net-(Q1-G)*%
X31000000Y-2000000D03*
%TO.P,R1,1*%
%TO.N,/SEG_A*%
X32020000Y-2000000D03*
%TD*%
D19*
%TO.P,Q10,1,S*%
%TO.N,+12V*%
X17190000Y-25475000D03*
%TO.P,Q10,2,G*%
%TO.N,Net-(Q10A-G-Pad2)*%
X18460000Y-25475000D03*
%TO.P,Q10,3,S*%
%TO.N,+12V*%
X19730000Y-25475000D03*
%TO.P,Q10,4,G*%
%TO.N,Net-(Q10B-G-Pad4)*%
X21000000Y-25475000D03*
%TO.P,Q10,5,D*%
%TO.N,Net-(J4-Pin_10)*%
X21000000Y-20525000D03*
%TO.P,Q10,6,G*%
X19730000Y-20525000D03*
%TO.P,Q10,7,D*%
%TO.N,Net-(J3-Pin_10)*%
X18460000Y-20525000D03*
%TO.P,Q10,8,G*%
X17190000Y-20525000D03*
%TD*%
%TO.P,Q9,8,G*%
%TO.N,Net-(J1-Pin_10)*%
X5095000Y-20525000D03*
%TO.P,Q9,7,D*%
X6365000Y-20525000D03*
%TO.P,Q9,6,G*%
%TO.N,Net-(J2-Pin_10)*%
X7635000Y-20525000D03*
%TO.P,Q9,5,D*%
X8905000Y-20525000D03*
%TO.P,Q9,4,G*%
%TO.N,Net-(Q9B-G-Pad4)*%
X8905000Y-25475000D03*
%TO.P,Q9,3,S*%
%TO.N,+12V*%
X7635000Y-25475000D03*
%TO.P,Q9,2,G*%
%TO.N,Net-(Q9A-G-Pad2)*%
X6365000Y-25475000D03*
%TO.P,Q9,1,S*%
%TO.N,+12V*%
X5095000Y-25475000D03*
%TD*%
D15*
%TO.P,Q8,1,G*%
%TO.N,Net-(Q8-G)*%
X34105000Y-15050000D03*
%TO.P,Q8,2,S*%
%TO.N,GND*%
X34105000Y-16950000D03*
%TO.P,Q8,3,D*%
%TO.N,/SEG_PD_DP*%
X35980000Y-16000000D03*
%TD*%
%TO.P,Q7,1,G*%
%TO.N,Net-(Q7-G)*%
X27125000Y-14050000D03*
%TO.P,Q7,2,S*%
%TO.N,GND*%
X27125000Y-15950000D03*
%TO.P,Q7,3,D*%
%TO.N,/SEG_PD_G*%
X29000000Y-15000000D03*
%TD*%
%TO.P,Q6,1,G*%
%TO.N,Net-(Q6-G)*%
X34105000Y-11050000D03*
%TO.P,Q6,2,S*%
%TO.N,GND*%
X34105000Y-12950000D03*
%TO.P,Q6,3,D*%
%TO.N,/SEG_PD_F*%
X35980000Y-12000000D03*
%TD*%
%TO.P,Q5,1,G*%
%TO.N,Net-(Q5-G)*%
X27125000Y-10050000D03*
%TO.P,Q5,2,S*%
%TO.N,GND*%
X27125000Y-11950000D03*
%TO.P,Q5,3,D*%
%TO.N,/SEG_PD_E*%
X29000000Y-11000000D03*
%TD*%
%TO.P,Q4,1,G*%
%TO.N,Net-(Q4-G)*%
X34105000Y-7050000D03*
%TO.P,Q4,2,S*%
%TO.N,GND*%
X34105000Y-8950000D03*
%TO.P,Q4,3,D*%
%TO.N,/SEG_PD_D*%
X35980000Y-8000000D03*
%TD*%
%TO.P,Q3,1,G*%
%TO.N,Net-(Q3-G)*%
X27000000Y-6100000D03*
%TO.P,Q3,2,S*%
%TO.N,GND*%
X27000000Y-8000000D03*
%TO.P,Q3,3,D*%
%TO.N,/SEG_PD_C*%
X28875000Y-7050000D03*
%TD*%
%TO.P,Q2,3,D*%
%TO.N,/SEG_PD_B*%
X35980000Y-4000000D03*
%TO.P,Q2,2,S*%
%TO.N,GND*%
X34105000Y-4950000D03*
%TO.P,Q2,1,G*%
%TO.N,Net-(Q2-G)*%
X34105000Y-3050000D03*
%TD*%
%TO.P,Q1,3,D*%
%TO.N,/SEG_PD_A*%
X29000000Y-3000000D03*
%TO.P,Q1,2,S*%
%TO.N,GND*%
X27125000Y-3950000D03*
%TO.P,Q1,1,G*%
%TO.N,Net-(Q1-G)*%
X27125000Y-2050000D03*
%TD*%
D20*
%TO.P,J7,1,Pin_1*%
%TO.N,+12V*%
X57000000Y-24460000D03*
D21*
%TO.P,J7,2,Pin_2*%
%TO.N,GND*%
X57000000Y-19380000D03*
%TD*%
D22*
%TO.P,U2,1,Pin_1*%
%TO.N,/SEG_E*%
X50575000Y-13945000D03*
%TO.P,U2,2,Pin_2*%
%TO.N,/SEG_F*%
X50575000Y-12675000D03*
%TO.P,U2,3,Pin_3*%
%TO.N,/SEG_G*%
X50575000Y-11405000D03*
%TO.P,U2,4,Pin_4*%
%TO.N,/SEG_DP*%
X50575000Y-10135000D03*
%TO.P,U2,5,Pin_5*%
%TO.N,/SCL*%
X50575000Y-8865000D03*
%TO.P,U2,6,Pin_6*%
%TO.N,/SDA*%
X50575000Y-7595000D03*
%TO.P,U2,7,Pin_7*%
%TO.N,GND*%
X50575000Y-6325000D03*
%TO.P,U2,8,Pin_8*%
%TO.N,/DIG_0*%
X50575000Y-5055000D03*
%TO.P,U2,9,Pin_9*%
%TO.N,/DIG_1*%
X45425000Y-5055000D03*
%TO.P,U2,10,Pin_10*%
%TO.N,/DIG_2*%
X45425000Y-6325000D03*
%TO.P,U2,11,Pin_11*%
%TO.N,/DIG_3*%
X45425000Y-7595000D03*
%TO.P,U2,12,Pin_12*%
%TO.N,/SEG_A*%
X45425000Y-8865000D03*
%TO.P,U2,13,Pin_13*%
%TO.N,/SEG_B*%
X45425000Y-10135000D03*
%TO.P,U2,14,Pin_14*%
%TO.N,+5V*%
X45425000Y-11405000D03*
%TO.P,U2,15,Pin_15*%
%TO.N,/SEG_C*%
X45425000Y-12675000D03*
%TO.P,U2,16,Pin_16*%
%TO.N,/SEG_D*%
X45425000Y-13945000D03*
%TD*%
D23*
%TO.P,J5,1,Pin_1*%
%TO.N,GND*%
X57500000Y-5175000D03*
D24*
%TO.P,J5,2,Pin_2*%
%TO.N,/SCL*%
X57500000Y-7715000D03*
%TO.P,J5,3,Pin_3*%
%TO.N,/SDA*%
X57500000Y-10255000D03*
%TO.P,J5,4,Pin_4*%
%TO.N,+5V*%
X57500000Y-12795000D03*
%TD*%
D25*
%TO.P,J4,1,Pin_1*%
%TO.N,/SEG_PD_A*%
X21000000Y-3000000D03*
D26*
%TO.P,J4,2,Pin_2*%
%TO.N,Net-(J4-Pin_10)*%
X23000000Y-3000000D03*
%TO.P,J4,3,Pin_3*%
%TO.N,/SEG_PD_B*%
X21000000Y-5000000D03*
%TO.P,J4,4,Pin_4*%
%TO.N,Net-(J4-Pin_10)*%
X23000000Y-5000000D03*
%TO.P,J4,5,Pin_5*%
%TO.N,/SEG_PD_C*%
X21000000Y-7000000D03*
%TO.P,J4,6,Pin_6*%
%TO.N,Net-(J4-Pin_10)*%
X23000000Y-7000000D03*
%TO.P,J4,7,Pin_7*%
%TO.N,/SEG_PD_D*%
X21000000Y-9000000D03*
%TO.P,J4,8,Pin_8*%
%TO.N,Net-(J4-Pin_10)*%
X23000000Y-9000000D03*
%TO.P,J4,9,Pin_9*%
%TO.N,/SEG_PD_E*%
X21000000Y-11000000D03*
%TO.P,J4,10,Pin_10*%
%TO.N,Net-(J4-Pin_10)*%
X23000000Y-11000000D03*
%TO.P,J4,11,Pin_11*%
%TO.N,/SEG_PD_F*%
X21000000Y-13000000D03*
%TO.P,J4,12,Pin_12*%
%TO.N,Net-(J4-Pin_10)*%
X23000000Y-13000000D03*
%TO.P,J4,13,Pin_13*%
%TO.N,/SEG_PD_G*%
X21000000Y-15000000D03*
%TO.P,J4,14,Pin_14*%
%TO.N,Net-(J4-Pin_10)*%
X23000000Y-15000000D03*
%TO.P,J4,15,Pin_15*%
%TO.N,/SEG_PD_DP*%
X21000000Y-17000000D03*
%TO.P,J4,16,Pin_16*%
%TO.N,Net-(J4-Pin_10)*%
X23000000Y-17000000D03*
%TD*%
D25*
%TO.P,J3,1,Pin_1*%
%TO.N,/SEG_PD_A*%
X15000000Y-3000000D03*
D26*
%TO.P,J3,2,Pin_2*%
%TO.N,Net-(J3-Pin_10)*%
X17000000Y-3000000D03*
%TO.P,J3,3,Pin_3*%
%TO.N,/SEG_PD_B*%
X15000000Y-5000000D03*
%TO.P,J3,4,Pin_4*%
%TO.N,Net-(J3-Pin_10)*%
X17000000Y-5000000D03*
%TO.P,J3,5,Pin_5*%
%TO.N,/SEG_PD_C*%
X15000000Y-7000000D03*
%TO.P,J3,6,Pin_6*%
%TO.N,Net-(J3-Pin_10)*%
X17000000Y-7000000D03*
%TO.P,J3,7,Pin_7*%
%TO.N,/SEG_PD_D*%
X15000000Y-9000000D03*
%TO.P,J3,8,Pin_8*%
%TO.N,Net-(J3-Pin_10)*%
X17000000Y-9000000D03*
%TO.P,J3,9,Pin_9*%
%TO.N,/SEG_PD_E*%
X15000000Y-11000000D03*
%TO.P,J3,10,Pin_10*%
%TO.N,Net-(J3-Pin_10)*%
X17000000Y-11000000D03*
%TO.P,J3,11,Pin_11*%
%TO.N,/SEG_PD_F*%
X15000000Y-13000000D03*
%TO.P,J3,12,Pin_12*%
%TO.N,Net-(J3-Pin_10)*%
X17000000Y-13000000D03*
%TO.P,J3,13,Pin_13*%
%TO.N,/SEG_PD_G*%
X15000000Y-15000000D03*
%TO.P,J3,14,Pin_14*%
%TO.N,Net-(J3-Pin_10)*%
X17000000Y-15000000D03*
%TO.P,J3,15,Pin_15*%
%TO.N,/SEG_PD_DP*%
X15000000Y-17000000D03*
%TO.P,J3,16,Pin_16*%
%TO.N,Net-(J3-Pin_10)*%
X17000000Y-17000000D03*
%TD*%
D25*
%TO.P,J2,1,Pin_1*%
%TO.N,/SEG_PD_A*%
X9000000Y-3000000D03*
D26*
%TO.P,J2,2,Pin_2*%
%TO.N,Net-(J2-Pin_10)*%
X11000000Y-3000000D03*
%TO.P,J2,3,Pin_3*%
%TO.N,/SEG_PD_B*%
X9000000Y-5000000D03*
%TO.P,J2,4,Pin_4*%
%TO.N,Net-(J2-Pin_10)*%
X11000000Y-5000000D03*
%TO.P,J2,5,Pin_5*%
%TO.N,/SEG_PD_C*%
X9000000Y-7000000D03*
%TO.P,J2,6,Pin_6*%
%TO.N,Net-(J2-Pin_10)*%
X11000000Y-7000000D03*
%TO.P,J2,7,Pin_7*%
%TO.N,/SEG_PD_D*%
X9000000Y-9000000D03*
%TO.P,J2,8,Pin_8*%
%TO.N,Net-(J2-Pin_10)*%
X11000000Y-9000000D03*
%TO.P,J2,9,Pin_9*%
%TO.N,/SEG_PD_E*%
X9000000Y-11000000D03*
%TO.P,J2,10,Pin_10*%
%TO.N,Net-(J2-Pin_10)*%
X11000000Y-11000000D03*
%TO.P,J2,11,Pin_11*%
%TO.N,/SEG_PD_F*%
X9000000Y-13000000D03*
%TO.P,J2,12,Pin_12*%
%TO.N,Net-(J2-Pin_10)*%
X11000000Y-13000000D03*
%TO.P,J2,13,Pin_13*%
%TO.N,/SEG_PD_G*%
X9000000Y-15000000D03*
%TO.P,J2,14,Pin_14*%
%TO.N,Net-(J2-Pin_10)*%
X11000000Y-15000000D03*
%TO.P,J2,15,Pin_15*%
%TO.N,/SEG_PD_DP*%
X9000000Y-17000000D03*
%TO.P,J2,16,Pin_16*%
%TO.N,Net-(J2-Pin_10)*%
X11000000Y-17000000D03*
%TD*%
D25*
%TO.P,J1,1,Pin_1*%
%TO.N,/SEG_PD_A*%
X3000000Y-3000000D03*
D26*
%TO.P,J1,2,Pin_2*%
%TO.N,Net-(J1-Pin_10)*%
X5000000Y-3000000D03*
%TO.P,J1,3,Pin_3*%
%TO.N,/SEG_PD_B*%
X3000000Y-5000000D03*
%TO.P,J1,4,Pin_4*%
%TO.N,Net-(J1-Pin_10)*%
X5000000Y-5000000D03*
%TO.P,J1,5,Pin_5*%
%TO.N,/SEG_PD_C*%
X3000000Y-7000000D03*
%TO.P,J1,6,Pin_6*%
%TO.N,Net-(J1-Pin_10)*%
X5000000Y-7000000D03*
%TO.P,J1,7,Pin_7*%
%TO.N,/SEG_PD_D*%
X3000000Y-9000000D03*
%TO.P,J1,8,Pin_8*%
%TO.N,Net-(J1-Pin_10)*%
X5000000Y-9000000D03*
%TO.P,J1,9,Pin_9*%
%TO.N,/SEG_PD_E*%
X3000000Y-11000000D03*
%TO.P,J1,10,Pin_10*%
%TO.N,Net-(J1-Pin_10)*%
X5000000Y-11000000D03*
%TO.P,J1,11,Pin_11*%
%TO.N,/SEG_PD_F*%
X3000000Y-13000000D03*
%TO.P,J1,12,Pin_12*%
%TO.N,Net-(J1-Pin_10)*%
X5000000Y-13000000D03*
%TO.P,J1,13,Pin_13*%
%TO.N,/SEG_PD_G*%
X3000000Y-15000000D03*
%TO.P,J1,14,Pin_14*%
%TO.N,Net-(J1-Pin_10)*%
X5000000Y-15000000D03*
%TO.P,J1,15,Pin_15*%
%TO.N,/SEG_PD_DP*%
X3000000Y-17000000D03*
%TO.P,J1,16,Pin_16*%
%TO.N,Net-(J1-Pin_10)*%
X5000000Y-17000000D03*
%TD*%
D27*
%TO.P,C4,1*%
%TO.N,+12V*%
X51500000Y-22975000D03*
%TO.P,C4,2*%
%TO.N,GND*%
X51500000Y-20025000D03*
%TD*%
D28*
%TO.P,C3,2*%
%TO.N,GND*%
X40000000Y-21550000D03*
%TO.P,C3,1*%
%TO.N,+5V*%
X40000000Y-23450000D03*
%TD*%
%TO.P,C2,1*%
%TO.N,+5V*%
X54500000Y-6900000D03*
%TO.P,C2,2*%
%TO.N,GND*%
X54500000Y-5000000D03*
%TD*%
D29*
%TO.P,C1,2*%
%TO.N,GND*%
X43000000Y-8500000D03*
%TO.P,C1,1*%
%TO.N,+5V*%
X43000000Y-10050000D03*
%TD*%
D30*
%TO.N,GND*%
X26000000Y-24000000D03*
%TO.N,+12V*%
X5500000Y-30000000D03*
X8000000Y-30000000D03*
X17000000Y-30000000D03*
X19500000Y-30000000D03*
X27000000Y-31000000D03*
X51500000Y-27000000D03*
X52000000Y-26500000D03*
X52500000Y-26000000D03*
X12000000Y-24500000D03*
X22500000Y-26000000D03*
%TO.N,GND*%
X32500000Y-17000000D03*
X32500000Y-13000000D03*
X32500000Y-9000000D03*
X32500000Y-5000000D03*
X25500000Y-4000000D03*
X25500000Y-8000000D03*
X25500000Y-12000000D03*
X25500000Y-16000000D03*
%TO.N,/DIG_VT_0*%
X31000000Y-21000000D03*
X30999999Y-24999993D03*
%TO.N,+5V*%
X55000000Y-8000000D03*
X54000000Y-8000000D03*
X33500010Y-26600000D03*
X32500017Y-26600000D03*
X33500002Y-20000002D03*
X32500004Y-20000004D03*
X43500000Y-17000000D03*
X42500000Y-17000000D03*
X43500000Y-11000000D03*
X42500000Y-11000000D03*
%TO.N,GND*%
X25600000Y-28000000D03*
X24800000Y-28000000D03*
X41000000Y-28600000D03*
X41000000Y-29400000D03*
%TO.N,/DIG_3*%
X47000000Y-8000000D03*
X44757536Y-25757536D03*
%TO.N,/DIG_2*%
X47138571Y-24912248D03*
X47000000Y-6500000D03*
%TO.N,/DIG_1*%
X46473786Y-25725000D03*
X47500000Y-5000000D03*
%TO.N,/DIG_0*%
X49000000Y-5000000D03*
X45500000Y-26500010D03*
%TD*%
D31*
%TO.N,/DIG_VT_1*%
X36100000Y-23920000D02*
X31932954Y-23920000D01*
X31932954Y-23920000D02*
X30037954Y-22025000D01*
X30037954Y-22025000D02*
X24846396Y-22025000D01*
X24846396Y-22025000D02*
X23821396Y-23050000D01*
X23821396Y-23050000D02*
X19500000Y-23050000D01*
%TO.N,/DIG_2*%
X29000000Y-21380000D02*
X30130000Y-21380000D01*
X30130000Y-21380000D02*
X30765000Y-22015000D01*
X30765000Y-22015000D02*
X36905050Y-22015000D01*
X36905050Y-22015000D02*
X39390050Y-24500000D01*
X39390050Y-24500000D02*
X46726323Y-24500000D01*
X46726323Y-24500000D02*
X47138571Y-24912248D01*
D32*
%TO.N,/DIG_VT_0*%
X8250000Y-22250000D02*
X23750000Y-22250001D01*
D31*
X30735000Y-20735000D02*
X25265001Y-20735000D01*
X25265001Y-20735000D02*
X23750000Y-22250001D01*
D32*
X7000000Y-23500000D02*
X8250000Y-22250000D01*
D31*
X31000000Y-21000000D02*
X30735000Y-20735000D01*
X6250000Y-29020000D02*
X6990000Y-28280000D01*
X6990000Y-23510000D02*
X7000000Y-23500000D01*
X6990000Y-28280000D02*
X6990000Y-23510000D01*
D32*
%TO.N,/DIG_VT_1*%
X19500000Y-23050000D02*
X15289999Y-23050000D01*
X15289999Y-23050000D02*
X14919999Y-23419999D01*
X14919999Y-23419999D02*
X9319999Y-29020000D01*
%TO.N,/DIG_VT_0*%
X36100000Y-25190000D02*
X35910000Y-25000000D01*
X35910000Y-25000000D02*
X31000006Y-25000000D01*
X31000006Y-25000000D02*
X30999999Y-24999993D01*
D31*
%TO.N,/SEG_E*%
X50575000Y-13945000D02*
X49950000Y-14570000D01*
X39197140Y-10000000D02*
X32020000Y-10000000D01*
X49950000Y-14570000D02*
X42805720Y-14570000D01*
X39800000Y-11564280D02*
X39800000Y-10602860D01*
X42805720Y-14570000D02*
X39800000Y-11564280D01*
X39800000Y-10602860D02*
X39197140Y-10000000D01*
%TO.N,/SEG_D*%
X45425000Y-13945000D02*
X42945000Y-13945000D01*
X42945000Y-13945000D02*
X40400000Y-11400000D01*
X40400000Y-10000000D02*
X39000000Y-8600000D01*
X40400000Y-11400000D02*
X40400000Y-10000000D01*
X39000000Y-8600000D02*
X39000000Y-7000000D01*
%TO.N,/SEG_C*%
X45425000Y-12675000D02*
X42311396Y-12675000D01*
X42311396Y-12675000D02*
X41000000Y-11363604D01*
X41000000Y-11363604D02*
X41000000Y-9800000D01*
X41000000Y-9800000D02*
X39595000Y-8395000D01*
X39595000Y-8395000D02*
X39595000Y-6595000D01*
X39595000Y-6595000D02*
X39000000Y-6000000D01*
X39000000Y-6000000D02*
X32020000Y-6000000D01*
%TO.N,/SEG_B*%
X41600000Y-11163604D02*
X41600000Y-10800000D01*
D32*
X41600000Y-10800000D02*
X41600000Y-9448266D01*
X41600000Y-9448266D02*
X40175867Y-8024133D01*
D31*
X40175867Y-8024133D02*
X40045000Y-7893266D01*
X45425000Y-10135000D02*
X46299999Y-10135000D01*
X46299999Y-10135000D02*
X46625000Y-10460001D01*
X40045000Y-7893266D02*
X40045000Y-4025000D01*
X46625000Y-10460001D02*
X46625000Y-11875000D01*
X40045000Y-4025000D02*
X39020000Y-3000000D01*
X46625000Y-11875000D02*
X46450000Y-12050000D01*
X46450000Y-12050000D02*
X42486396Y-12050000D01*
X42486396Y-12050000D02*
X41600000Y-11163604D01*
D32*
%TO.N,+5V*%
X34630010Y-27730000D02*
X33500010Y-26600000D01*
X36100000Y-27730000D02*
X34630010Y-27730000D01*
X32500017Y-26600000D02*
X33500010Y-26600000D01*
X31370017Y-27730000D02*
X32500017Y-26600000D01*
X29000000Y-27730000D02*
X31370017Y-27730000D01*
D31*
%TO.N,/DIG_3*%
X29000000Y-26460000D02*
X29040000Y-26500000D01*
X44690072Y-25825000D02*
X44757536Y-25757536D01*
X29040000Y-26500000D02*
X30200000Y-26500000D01*
X30200000Y-26500000D02*
X30875000Y-25825000D01*
X30875000Y-25825000D02*
X44690072Y-25825000D01*
%TO.N,GND*%
X43000000Y-8500000D02*
X43900000Y-7600000D01*
X43900000Y-7600000D02*
X43900000Y-7400000D01*
X43000000Y-8500000D02*
X41900000Y-7400000D01*
%TO.N,/SDA*%
X50575000Y-7595000D02*
X49700001Y-7595000D01*
X49700001Y-7595000D02*
X49375000Y-7920001D01*
X49375000Y-7920001D02*
X49375000Y-9375000D01*
X49375000Y-9375000D02*
X49510000Y-9510000D01*
X49510000Y-9510000D02*
X51600000Y-9510000D01*
D33*
X54500000Y-10825000D02*
X53950000Y-10275000D01*
X53950000Y-10275000D02*
X52415908Y-10275000D01*
X52415908Y-10275000D02*
X51650908Y-9510000D01*
X51650908Y-9510000D02*
X51600000Y-9510000D01*
D31*
%TO.N,/SEG_DP*%
X40020000Y-16000000D02*
X39020000Y-15000000D01*
X51383446Y-10135000D02*
X52000000Y-10751554D01*
X51343700Y-16000000D02*
X40020000Y-16000000D01*
X52000000Y-10751554D02*
X52000000Y-11500000D01*
X50575000Y-10135000D02*
X51383446Y-10135000D01*
X52000000Y-11500000D02*
X52675000Y-12175000D01*
X52675000Y-12175000D02*
X52675000Y-14668700D01*
X52675000Y-14668700D02*
X51343700Y-16000000D01*
%TO.N,/DIG_1*%
X36849999Y-22650000D02*
X39182535Y-24982536D01*
%TO.N,/DIG_0*%
X36140010Y-26500010D02*
X45500000Y-26500010D01*
X36100000Y-26460000D02*
X36140010Y-26500010D01*
%TO.N,/DIG_1*%
X36100000Y-22650000D02*
X36849999Y-22650000D01*
X39182535Y-24982536D02*
X45731322Y-24982536D01*
X45731322Y-24982536D02*
X46473786Y-25725000D01*
D32*
%TO.N,+12V*%
X5095000Y-25475000D02*
X5095000Y-29405000D01*
X5095000Y-29405000D02*
X5000000Y-29500000D01*
X5000000Y-29500000D02*
X5500000Y-30000000D01*
X5500000Y-30000000D02*
X5095000Y-30295000D01*
X7635000Y-30365000D02*
X7635000Y-30965000D01*
X8000000Y-30000000D02*
X7635000Y-30365000D01*
X7635000Y-29635000D02*
X8000000Y-30000000D01*
X17190000Y-30190000D02*
X17190000Y-30790000D01*
X17000000Y-30000000D02*
X17190000Y-30190000D01*
X17190000Y-29810000D02*
X17000000Y-30000000D01*
X19730000Y-30230000D02*
X19730000Y-30930000D01*
X19500000Y-30000000D02*
X19730000Y-30230000D01*
X19730000Y-29770000D02*
X19500000Y-30000000D01*
%TO.N,+5V*%
X57500000Y-12795000D02*
X52795000Y-17500000D01*
X52795000Y-17500000D02*
X43000000Y-17500000D01*
X43500000Y-11000000D02*
X42500000Y-11000000D01*
X45425000Y-11405000D02*
X43905000Y-11405000D01*
X43905000Y-11405000D02*
X43500000Y-11000000D01*
%TO.N,GND*%
X25325000Y-29000000D02*
X25325000Y-28275000D01*
X25325000Y-28275000D02*
X25600000Y-28000000D01*
X24800000Y-28000000D02*
X24800000Y-28475000D01*
X24800000Y-28475000D02*
X25325000Y-29000000D01*
X25600000Y-28000000D02*
X24800000Y-28000000D01*
D31*
X34105000Y-16950000D02*
X32550000Y-16950000D01*
X32550000Y-16950000D02*
X32500000Y-17000000D01*
X34105000Y-12950000D02*
X32550000Y-12950000D01*
X32550000Y-12950000D02*
X32500000Y-13000000D01*
X34105000Y-8950000D02*
X32550000Y-8950000D01*
X32550000Y-8950000D02*
X32500000Y-9000000D01*
X34105000Y-4950000D02*
X32550000Y-4950000D01*
X32550000Y-4950000D02*
X32500000Y-5000000D01*
X27125000Y-3950000D02*
X25550000Y-3950000D01*
X25550000Y-3950000D02*
X25500000Y-4000000D01*
X27000000Y-8000000D02*
X25500000Y-8000000D01*
X27125000Y-11950000D02*
X25550000Y-11950000D01*
X25550000Y-11950000D02*
X25500000Y-12000000D01*
X27125000Y-15950000D02*
X25550000Y-15950000D01*
X25550000Y-15950000D02*
X25500000Y-16000000D01*
D32*
%TO.N,/DIG_VT_3*%
X29000000Y-25190000D02*
X25810000Y-25190000D01*
X25810000Y-25190000D02*
X22000000Y-29000000D01*
X22000000Y-29000000D02*
X21000000Y-29000000D01*
D31*
%TO.N,/DIG_VT_2*%
X19095000Y-28165000D02*
X18250000Y-29010000D01*
X24857792Y-22650000D02*
X24007792Y-23500000D01*
X29000000Y-22650000D02*
X24857792Y-22650000D01*
D32*
%TO.N,/DIG_VT_1*%
X9319999Y-29020000D02*
X9000000Y-29020000D01*
D31*
%TO.N,/DIG_VT_2*%
X24007792Y-23500000D02*
X20039950Y-23500000D01*
X20039950Y-23500000D02*
X19095000Y-24444950D01*
X19095000Y-24444950D02*
X19095000Y-28165000D01*
D32*
%TO.N,+5V*%
X29000000Y-20110000D02*
X32390008Y-20110000D01*
X32510000Y-20490000D02*
X32500004Y-20480004D01*
X32390008Y-20110000D02*
X32500004Y-20000004D01*
X32500004Y-20480004D02*
X32500004Y-20000004D01*
D34*
X33500002Y-19499998D02*
X33500002Y-20000002D01*
X36000000Y-17000000D02*
X33500002Y-19499998D01*
X42500000Y-17000000D02*
X36000000Y-17000000D01*
X32999998Y-20000002D02*
X33500002Y-20000002D01*
X32510000Y-20490000D02*
X32999998Y-20000002D01*
D32*
%TO.N,/SCL*%
X53000000Y-9475000D02*
X55740000Y-9475000D01*
X55740000Y-9475000D02*
X57500000Y-7715000D01*
D31*
%TO.N,+5V*%
X54500000Y-12475000D02*
X54350000Y-12475000D01*
D33*
X54350000Y-12475000D02*
X53000000Y-11125000D01*
D31*
X54500000Y-12475000D02*
X57180000Y-12475000D01*
X57180000Y-12475000D02*
X57500000Y-12795000D01*
D33*
%TO.N,/SCL*%
X53000000Y-9475000D02*
X52390000Y-8865000D01*
X52390000Y-8865000D02*
X50575000Y-8865000D01*
D32*
%TO.N,/SDA*%
X54500000Y-10825000D02*
X56930000Y-10825000D01*
X56930000Y-10825000D02*
X57500000Y-10255000D01*
%TO.N,+5V*%
X54000000Y-8000000D02*
X55000000Y-8000000D01*
X54000000Y-8000000D02*
X54000000Y-7400000D01*
X54000000Y-7400000D02*
X54500000Y-6900000D01*
X55000000Y-8000000D02*
X55000000Y-7400000D01*
X55000000Y-7400000D02*
X54500000Y-6900000D01*
%TO.N,GND*%
X54500000Y-5000000D02*
X53500000Y-5000000D01*
X53500000Y-5000000D02*
X52175000Y-6325000D01*
X52175000Y-6325000D02*
X50575000Y-6325000D01*
X57500000Y-5175000D02*
X54675000Y-5175000D01*
X54675000Y-5175000D02*
X54500000Y-5000000D01*
X57000000Y-19420000D02*
X60000000Y-16420000D01*
X60000000Y-16420000D02*
X60000000Y-6000000D01*
X60000000Y-6000000D02*
X59175000Y-5175000D01*
X59175000Y-5175000D02*
X57500000Y-5175000D01*
%TO.N,+5V*%
X43000000Y-10050000D02*
X43000000Y-10500000D01*
X43000000Y-10500000D02*
X42500000Y-11000000D01*
X43000000Y-10500000D02*
X43500000Y-11000000D01*
D31*
%TO.N,/SEG_G*%
X38994280Y-14000000D02*
X32020000Y-14000000D01*
X51268604Y-11405000D02*
X52225000Y-12361396D01*
X52225000Y-12361396D02*
X52225000Y-14482304D01*
%TO.N,/SEG_F*%
X51050908Y-15020000D02*
X42520000Y-15020000D01*
%TO.N,/SEG_G*%
X52225000Y-14482304D02*
X51237304Y-15470000D01*
%TO.N,/SEG_F*%
X50575000Y-12675000D02*
X51449999Y-12675000D01*
%TO.N,/SEG_G*%
X40464280Y-15470000D02*
X38994280Y-14000000D01*
%TO.N,/SEG_F*%
X51775000Y-13000001D02*
X51775000Y-14295908D01*
X51775000Y-14295908D02*
X51050908Y-15020000D01*
X39020000Y-11520000D02*
X39020000Y-11000000D01*
%TO.N,/SEG_G*%
X51237304Y-15470000D02*
X40464280Y-15470000D01*
%TO.N,/SEG_F*%
X42520000Y-15020000D02*
X39020000Y-11520000D01*
X51449999Y-12675000D02*
X51775000Y-13000001D01*
%TO.N,/SEG_G*%
X50575000Y-11405000D02*
X51268604Y-11405000D01*
%TO.N,/SEG_A*%
X42515948Y-9275000D02*
X40495000Y-7254052D01*
X45015000Y-9275000D02*
X42515948Y-9275000D01*
X45425000Y-8865000D02*
X45015000Y-9275000D01*
X40495000Y-7254052D02*
X40495000Y-2995000D01*
X40495000Y-2995000D02*
X39500000Y-2000000D01*
X39500000Y-2000000D02*
X32020000Y-2000000D01*
D34*
%TO.N,+5V*%
X43500000Y-17000000D02*
X43000000Y-17500000D01*
X42500000Y-17000000D02*
X43500000Y-17000000D01*
X42500000Y-18000000D02*
X42500000Y-18000000D01*
D32*
X33400000Y-21380000D02*
X32510000Y-20490000D01*
%TO.N,+12V*%
X5095000Y-30295000D02*
X5800000Y-31000000D01*
X5800000Y-31000000D02*
X6500000Y-31000000D01*
D34*
X17400000Y-31000000D02*
X7600000Y-31000000D01*
X7600000Y-31000000D02*
X6500000Y-31000000D01*
D32*
X7635000Y-25475000D02*
X7635000Y-29635000D01*
X7635000Y-30965000D02*
X7600000Y-31000000D01*
D34*
X19800000Y-31000000D02*
X17400000Y-31000000D01*
D32*
X17190000Y-25475000D02*
X17190000Y-29810000D01*
X17190000Y-30790000D02*
X17400000Y-31000000D01*
D34*
X27000000Y-31000000D02*
X19800000Y-31000000D01*
D32*
X19730000Y-25475000D02*
X19730000Y-29770000D01*
X19730000Y-30930000D02*
X19800000Y-31000000D01*
%TO.N,+5V*%
X36100000Y-21380000D02*
X33400000Y-21380000D01*
%TO.N,GND*%
X40000000Y-21550000D02*
X38560000Y-20110000D01*
X38560000Y-20110000D02*
X36100000Y-20110000D01*
%TO.N,+5V*%
X40000000Y-23450000D02*
X37930000Y-21380000D01*
X37930000Y-21380000D02*
X36100000Y-21380000D01*
%TO.N,GND*%
X41000000Y-29400000D02*
X41000000Y-28600000D01*
X39775000Y-29000000D02*
X41000000Y-29000000D01*
%TO.N,+5V*%
X36100000Y-29000000D02*
X38225000Y-29000000D01*
D31*
%TO.N,/DIG_3*%
X47000000Y-8000000D02*
X46595000Y-7595000D01*
X46595000Y-7595000D02*
X45425000Y-7595000D01*
%TO.N,/DIG_2*%
X45600000Y-6500000D02*
X45425000Y-6325000D01*
X47000000Y-6500000D02*
X45600000Y-6500000D01*
D32*
%TO.N,GND*%
X42125000Y-21550000D02*
X40000000Y-21550000D01*
%TO.N,+5V*%
X42125000Y-23450000D02*
X40000000Y-23450000D01*
%TO.N,+12V*%
X44000000Y-22500000D02*
X45500000Y-22500000D01*
X45500000Y-22500000D02*
X46000000Y-23000000D01*
%TO.N,GND*%
X42125000Y-21550000D02*
X44950000Y-21550000D01*
X44950000Y-21550000D02*
X46000000Y-20500000D01*
D31*
%TO.N,/DIG_1*%
X45480000Y-5000000D02*
X45425000Y-5055000D01*
X47500000Y-5000000D02*
X45480000Y-5000000D01*
%TO.N,/DIG_0*%
X49000000Y-5000000D02*
X50520000Y-5000000D01*
X50520000Y-5000000D02*
X50575000Y-5055000D01*
D34*
%TO.N,+12V*%
X50500000Y-31000000D02*
X27000000Y-31000000D01*
D32*
X26875000Y-29000000D02*
X26875000Y-30875000D01*
X26875000Y-30875000D02*
X27000000Y-31000000D01*
D34*
X57000000Y-24500000D02*
X50500000Y-31000000D01*
D31*
%TO.N,/SEG_PD_A*%
X21000000Y-3000000D02*
X22000000Y-2000000D01*
X22000000Y-2000000D02*
X23500000Y-2000000D01*
X23500000Y-2000000D02*
X24500000Y-3000000D01*
X24500000Y-3000000D02*
X29000000Y-3000000D01*
%TO.N,/SEG_PD_B*%
X21000000Y-5000000D02*
X22000000Y-4000000D01*
X22000000Y-4000000D02*
X23500000Y-4000000D01*
X24500000Y-5000000D02*
X30500000Y-5000000D01*
X23500000Y-4000000D02*
X24500000Y-5000000D01*
X30500000Y-5000000D02*
X31500000Y-4000000D01*
X31500000Y-4000000D02*
X35980000Y-4000000D01*
%TO.N,/SEG_PD_D*%
X35980000Y-8000000D02*
X31500000Y-8000000D01*
X22000000Y-8000000D02*
X21000000Y-9000000D01*
X31500000Y-8000000D02*
X30500000Y-9000000D01*
X30500000Y-9000000D02*
X24500000Y-9000000D01*
X24500000Y-9000000D02*
X23500000Y-8000000D01*
X23500000Y-8000000D02*
X22000000Y-8000000D01*
D32*
%TO.N,Net-(Q9A-G-Pad2)*%
X6365000Y-25475000D02*
X6365000Y-27885000D01*
X6365000Y-27885000D02*
X6250000Y-28000000D01*
%TO.N,Net-(Q10A-G-Pad2)*%
X18460000Y-25475000D02*
X18460000Y-27780000D01*
X18460000Y-27780000D02*
X18250000Y-27990000D01*
%TO.N,Net-(Q10B-G-Pad4)*%
X21000000Y-25475000D02*
X21000000Y-27980000D01*
%TO.N,Net-(Q9B-G-Pad4)*%
X8905000Y-25475000D02*
X8905000Y-27905000D01*
X8905000Y-27905000D02*
X9000000Y-28000000D01*
%TO.N,+12V*%
X29000000Y-29000000D02*
X26875000Y-29000000D01*
%TO.N,+5V*%
X36100000Y-29000000D02*
X36100000Y-27730000D01*
D31*
%TO.N,Net-(J4-Pin_10)*%
X21000000Y-20525000D02*
X21000000Y-19000000D01*
X21000000Y-19000000D02*
X23000000Y-17000000D01*
X19730000Y-20525000D02*
X23000000Y-17255000D01*
X23000000Y-17255000D02*
X23000000Y-17000000D01*
%TO.N,Net-(J3-Pin_10)*%
X18460000Y-20525000D02*
X18460000Y-18460000D01*
X18460000Y-18460000D02*
X17000000Y-17000000D01*
X17190000Y-20525000D02*
X17190000Y-17190000D01*
X17190000Y-17190000D02*
X17000000Y-17000000D01*
%TO.N,Net-(J2-Pin_10)*%
X8905000Y-20525000D02*
X8905000Y-19095000D01*
X8905000Y-19095000D02*
X11000000Y-17000000D01*
X7635000Y-20525000D02*
X11000000Y-17160000D01*
X11000000Y-17160000D02*
X11000000Y-17000000D01*
%TO.N,Net-(J1-Pin_10)*%
X5095000Y-20525000D02*
X5095000Y-17095000D01*
X5095000Y-17095000D02*
X5000000Y-17000000D01*
X6365000Y-20525000D02*
X6365000Y-18365000D01*
X6365000Y-18365000D02*
X5000000Y-17000000D01*
%TO.N,Net-(Q8-G)*%
X34105000Y-15050000D02*
X37950000Y-15050000D01*
X37950000Y-15050000D02*
X38000000Y-15000000D01*
%TO.N,Net-(Q6-G)*%
X34105000Y-11050000D02*
X37950000Y-11050000D01*
X37950000Y-11050000D02*
X38000000Y-11000000D01*
%TO.N,Net-(Q4-G)*%
X34105000Y-7050000D02*
X37930000Y-7050000D01*
X37930000Y-7050000D02*
X37980000Y-7000000D01*
%TO.N,Net-(Q2-G)*%
X34105000Y-3050000D02*
X37950000Y-3050000D01*
X37950000Y-3050000D02*
X38000000Y-3000000D01*
%TO.N,Net-(Q1-G)*%
X27125000Y-2050000D02*
X30950000Y-2050000D01*
X30950000Y-2050000D02*
X31000000Y-2000000D01*
%TO.N,Net-(Q3-G)*%
X27000000Y-6100000D02*
X30900000Y-6100000D01*
X30900000Y-6100000D02*
X31000000Y-6000000D01*
%TO.N,Net-(Q5-G)*%
X27125000Y-10050000D02*
X30950000Y-10050000D01*
X30950000Y-10050000D02*
X31000000Y-10000000D01*
%TO.N,Net-(Q7-G)*%
X27125000Y-14050000D02*
X30950000Y-14050000D01*
X30950000Y-14050000D02*
X31000000Y-14000000D01*
%TO.N,/SEG_PD_F*%
X35980000Y-12000000D02*
X31500000Y-12000000D01*
X31500000Y-12000000D02*
X30500000Y-13000000D01*
X30500000Y-13000000D02*
X24500000Y-13000000D01*
X24500000Y-13000000D02*
X23500000Y-12000000D01*
X23500000Y-12000000D02*
X22000000Y-12000000D01*
X22000000Y-12000000D02*
X21000000Y-13000000D01*
%TO.N,/SEG_PD_DP*%
X35980000Y-16000000D02*
X31500000Y-16000000D01*
X31500000Y-16000000D02*
X30500000Y-17000000D01*
X30500000Y-17000000D02*
X24500000Y-17000000D01*
X24500000Y-17000000D02*
X23500000Y-16000000D01*
X23500000Y-16000000D02*
X22000000Y-16000000D01*
X22000000Y-16000000D02*
X21000000Y-17000000D01*
%TO.N,/SEG_PD_G*%
X29000000Y-15000000D02*
X24500000Y-15000000D01*
X24500000Y-15000000D02*
X23500000Y-14000000D01*
X23500000Y-14000000D02*
X22000000Y-14000000D01*
X22000000Y-14000000D02*
X21000000Y-15000000D01*
%TO.N,/SEG_PD_C*%
X28875000Y-7050000D02*
X24550000Y-7050000D01*
X24550000Y-7050000D02*
X23500000Y-6000000D01*
X23500000Y-6000000D02*
X22000000Y-6000000D01*
X22000000Y-6000000D02*
X21000000Y-7000000D01*
%TO.N,/SEG_PD_E*%
X29000000Y-11000000D02*
X24500000Y-11000000D01*
X24500000Y-11000000D02*
X23500000Y-10000000D01*
X23500000Y-10000000D02*
X22000000Y-10000000D01*
X22000000Y-10000000D02*
X21000000Y-11000000D01*
%TO.N,/SEG_PD_DP*%
X9000000Y-17000000D02*
X8000000Y-16000000D01*
X8000000Y-16000000D02*
X4000000Y-16000000D01*
X4000000Y-16000000D02*
X3000000Y-17000000D01*
X15000000Y-17000000D02*
X14000000Y-16000000D01*
X14000000Y-16000000D02*
X10000000Y-16000000D01*
X10000000Y-16000000D02*
X9000000Y-17000000D01*
X21000000Y-17000000D02*
X20000000Y-16000000D01*
X20000000Y-16000000D02*
X16000000Y-16000000D01*
X16000000Y-16000000D02*
X15000000Y-17000000D01*
%TO.N,/SEG_PD_G*%
X9000000Y-15000000D02*
X8000000Y-14000000D01*
X8000000Y-14000000D02*
X4000000Y-14000000D01*
X4000000Y-14000000D02*
X3000000Y-15000000D01*
X15000000Y-15000000D02*
X14000000Y-14000000D01*
X14000000Y-14000000D02*
X10000000Y-14000000D01*
X10000000Y-14000000D02*
X9000000Y-15000000D01*
X21000000Y-15000000D02*
X20000000Y-14000000D01*
X20000000Y-14000000D02*
X16000000Y-14000000D01*
X16000000Y-14000000D02*
X15000000Y-15000000D01*
%TO.N,/SEG_PD_F*%
X9000000Y-13000000D02*
X8000000Y-12000000D01*
X4000000Y-12000000D02*
X3000000Y-13000000D01*
X8000000Y-12000000D02*
X4000000Y-12000000D01*
X15000000Y-13000000D02*
X14000000Y-12000000D01*
X14000000Y-12000000D02*
X10000000Y-12000000D01*
X10000000Y-12000000D02*
X9000000Y-13000000D01*
X21000000Y-13000000D02*
X20000000Y-12000000D01*
X20000000Y-12000000D02*
X16000000Y-12000000D01*
X16000000Y-12000000D02*
X15000000Y-13000000D01*
%TO.N,/SEG_PD_E*%
X9000000Y-11000000D02*
X8000000Y-10000000D01*
X8000000Y-10000000D02*
X4000000Y-10000000D01*
X4000000Y-10000000D02*
X3000000Y-11000000D01*
X15000000Y-11000000D02*
X14000000Y-10000000D01*
X14000000Y-10000000D02*
X10000000Y-10000000D01*
X10000000Y-10000000D02*
X9000000Y-11000000D01*
X21000000Y-11000000D02*
X20000000Y-10000000D01*
X20000000Y-10000000D02*
X16000000Y-10000000D01*
X16000000Y-10000000D02*
X15000000Y-11000000D01*
%TO.N,/SEG_PD_D*%
X9000000Y-9000000D02*
X8000000Y-8000000D01*
X8000000Y-8000000D02*
X4000000Y-8000000D01*
X4000000Y-8000000D02*
X3000000Y-9000000D01*
X15000000Y-9000000D02*
X14000000Y-8000000D01*
X14000000Y-8000000D02*
X10000000Y-8000000D01*
X10000000Y-8000000D02*
X9000000Y-9000000D01*
X21000000Y-9000000D02*
X20000000Y-8000000D01*
X20000000Y-8000000D02*
X16000000Y-8000000D01*
X16000000Y-8000000D02*
X15000000Y-9000000D01*
%TO.N,/SEG_PD_C*%
X9000000Y-7000000D02*
X8000000Y-6000000D01*
X8000000Y-6000000D02*
X4000000Y-6000000D01*
X4000000Y-6000000D02*
X3000000Y-7000000D01*
X15000000Y-7000000D02*
X14000000Y-6000000D01*
X14000000Y-6000000D02*
X10000000Y-6000000D01*
X10000000Y-6000000D02*
X9000000Y-7000000D01*
X21000000Y-7000000D02*
X20000000Y-6000000D01*
X20000000Y-6000000D02*
X16000000Y-6000000D01*
X16000000Y-6000000D02*
X15000000Y-7000000D01*
%TO.N,/SEG_PD_B*%
X9000000Y-5000000D02*
X8000000Y-4000000D01*
X8000000Y-4000000D02*
X4000000Y-4000000D01*
X4000000Y-4000000D02*
X3000000Y-5000000D01*
X15000000Y-5000000D02*
X14000000Y-4000000D01*
X14000000Y-4000000D02*
X10000000Y-4000000D01*
X10000000Y-4000000D02*
X9000000Y-5000000D01*
X21000000Y-5000000D02*
X20000000Y-4000000D01*
X20000000Y-4000000D02*
X16000000Y-4000000D01*
X16000000Y-4000000D02*
X15000000Y-5000000D01*
%TO.N,/SEG_PD_A*%
X15000000Y-3000000D02*
X16000000Y-2000000D01*
X16000000Y-2000000D02*
X20000000Y-2000000D01*
X20000000Y-2000000D02*
X21000000Y-3000000D01*
X9000000Y-3000000D02*
X10000000Y-2000000D01*
X10000000Y-2000000D02*
X14000000Y-2000000D01*
X14000000Y-2000000D02*
X15000000Y-3000000D01*
X3000000Y-3000000D02*
X4000000Y-2000000D01*
X4000000Y-2000000D02*
X8000000Y-2000000D01*
X8000000Y-2000000D02*
X9000000Y-3000000D01*
%TD*%
%TA.AperFunction,Conductor*%
%TO.N,/SEG_PD_DP*%
G36*
X8101046Y-16019685D02*
G01*
X8146801Y-16072489D01*
X8156745Y-16141647D01*
X8130280Y-16199596D01*
X8131399Y-16200441D01*
X7996715Y-16378791D01*
X7899651Y-16573719D01*
X7849494Y-16749999D01*
X7849495Y-16750000D01*
X8684314Y-16750000D01*
X8672359Y-16761955D01*
X8614835Y-16874852D01*
X8595014Y-17000000D01*
X8614835Y-17125148D01*
X8672359Y-17238045D01*
X8684314Y-17250000D01*
X7849495Y-17250000D01*
X7899651Y-17426280D01*
X7996715Y-17621208D01*
X8128540Y-17795773D01*
X8153232Y-17861135D01*
X8138667Y-17929469D01*
X8089469Y-17979082D01*
X8029586Y-17994500D01*
X7624000Y-17994500D01*
X7623991Y-17994500D01*
X7623990Y-17994501D01*
X7576155Y-17999644D01*
X7569523Y-18000000D01*
X6936154Y-18000000D01*
X6869115Y-17980315D01*
X6835837Y-17948888D01*
X6831788Y-17943315D01*
X6824594Y-17933413D01*
X6824591Y-17933411D01*
X6824591Y-17933410D01*
X6788693Y-17903713D01*
X6784381Y-17899790D01*
X6196599Y-17312008D01*
X6163114Y-17250685D01*
X6160809Y-17212886D01*
X6173494Y-17076000D01*
X6180536Y-17000000D01*
X6160435Y-16783077D01*
X6100817Y-16573541D01*
X6003712Y-16378528D01*
X5872427Y-16204678D01*
X5872426Y-16204677D01*
X5868972Y-16200103D01*
X5870751Y-16198759D01*
X5844415Y-16144715D01*
X5852623Y-16075329D01*
X5897041Y-16021396D01*
X5963567Y-16000039D01*
X5966672Y-16000000D01*
X8034007Y-16000000D01*
X8101046Y-16019685D01*
G37*
%TD.AperFunction*%
%TA.AperFunction,Conductor*%
G36*
X14101046Y-16019685D02*
G01*
X14146801Y-16072489D01*
X14156745Y-16141647D01*
X14130280Y-16199596D01*
X14131399Y-16200441D01*
X13996715Y-16378791D01*
X13899651Y-16573719D01*
X13849494Y-16749999D01*
X13849495Y-16750000D01*
X14684314Y-16750000D01*
X14672359Y-16761955D01*
X14614835Y-16874852D01*
X14595014Y-17000000D01*
X14614835Y-17125148D01*
X14672359Y-17238045D01*
X14684314Y-17250000D01*
X13849495Y-17250000D01*
X13899651Y-17426280D01*
X13996715Y-17621208D01*
X14128540Y-17795773D01*
X14153232Y-17861135D01*
X14138667Y-17929469D01*
X14089469Y-17979082D01*
X14029586Y-17994500D01*
X13624000Y-17994500D01*
X13623991Y-17994500D01*
X13623990Y-17994501D01*
X13576155Y-17999644D01*
X13569523Y-18000000D01*
X12923123Y-18000000D01*
X12905477Y-17998738D01*
X12876001Y-17994500D01*
X12876000Y-17994500D01*
X12618721Y-17994500D01*
X12551682Y-17974815D01*
X12505927Y-17922011D01*
X12496467Y-17891234D01*
X12483836Y-17816764D01*
X12481241Y-17801461D01*
X12459873Y-17734939D01*
X12455798Y-17726581D01*
X12430230Y-17674133D01*
X12396826Y-17605613D01*
X12299895Y-17499284D01*
X12257471Y-17464355D01*
X12245956Y-17454874D01*
X12212577Y-17434593D01*
X12196042Y-17424546D01*
X12148972Y-17372912D01*
X12137289Y-17304026D01*
X12141164Y-17284649D01*
X12160435Y-17216923D01*
X12180536Y-17000000D01*
X12160435Y-16783077D01*
X12100817Y-16573541D01*
X12003712Y-16378528D01*
X11872427Y-16204678D01*
X11872426Y-16204677D01*
X11868972Y-16200103D01*
X11870751Y-16198759D01*
X11844415Y-16144715D01*
X11852623Y-16075329D01*
X11897041Y-16021396D01*
X11963567Y-16000039D01*
X11966672Y-16000000D01*
X14034007Y-16000000D01*
X14101046Y-16019685D01*
G37*
%TD.AperFunction*%
%TA.AperFunction,Conductor*%
G36*
X20101046Y-16019685D02*
G01*
X20146801Y-16072489D01*
X20156745Y-16141647D01*
X20130280Y-16199596D01*
X20131399Y-16200441D01*
X19996715Y-16378791D01*
X19899651Y-16573719D01*
X19849494Y-16749999D01*
X19849495Y-16750000D01*
X20684314Y-16750000D01*
X20672359Y-16761955D01*
X20614835Y-16874852D01*
X20595014Y-17000000D01*
X20614835Y-17125148D01*
X20672359Y-17238045D01*
X20684314Y-17250000D01*
X19849495Y-17250000D01*
X19899651Y-17426280D01*
X19996715Y-17621208D01*
X20128540Y-17795773D01*
X20153232Y-17861135D01*
X20138667Y-17929469D01*
X20089469Y-17979082D01*
X20029586Y-17994500D01*
X19629500Y-17994500D01*
X19629491Y-17994500D01*
X19629490Y-17994501D01*
X19581655Y-17999644D01*
X19575023Y-18000000D01*
X18935952Y-18000000D01*
X18868913Y-17980315D01*
X18848271Y-17963681D01*
X18196599Y-17312009D01*
X18163114Y-17250686D01*
X18160809Y-17212887D01*
X18180536Y-17000000D01*
X18180536Y-16999999D01*
X18167519Y-16859523D01*
X18160435Y-16783077D01*
X18100817Y-16573541D01*
X18003712Y-16378528D01*
X17872427Y-16204678D01*
X17872426Y-16204677D01*
X17868972Y-16200103D01*
X17870751Y-16198759D01*
X17844415Y-16144715D01*
X17852623Y-16075329D01*
X17897041Y-16021396D01*
X17963567Y-16000039D01*
X17966672Y-16000000D01*
X20034007Y-16000000D01*
X20101046Y-16019685D01*
G37*
%TD.AperFunction*%
%TA.AperFunction,Conductor*%
G36*
X1821898Y-16525185D02*
G01*
X1867653Y-16577989D01*
X1877597Y-16647147D01*
X1874125Y-16663435D01*
X1849494Y-16749999D01*
X1849495Y-16750000D01*
X2684314Y-16750000D01*
X2672359Y-16761955D01*
X2614835Y-16874852D01*
X2595014Y-17000000D01*
X2614835Y-17125148D01*
X2672359Y-17238045D01*
X2684314Y-17250000D01*
X1849495Y-17250000D01*
X1899651Y-17426280D01*
X1996715Y-17621208D01*
X2128540Y-17795773D01*
X2153232Y-17861135D01*
X2138667Y-17929469D01*
X2089469Y-17979082D01*
X2029586Y-17994500D01*
X124500Y-17994500D01*
X57461Y-17974815D01*
X11706Y-17922011D01*
X500Y-17870500D01*
X500Y-16629500D01*
X20185Y-16562461D01*
X72989Y-16516706D01*
X124500Y-16505500D01*
X1754859Y-16505500D01*
X1821898Y-16525185D01*
G37*
%TD.AperFunction*%
%TD*%
%TA.AperFunction,Conductor*%
%TO.N,/SEG_PD_G*%
G36*
X2101046Y-14019685D02*
G01*
X2146801Y-14072489D01*
X2156745Y-14141647D01*
X2130280Y-14199596D01*
X2131399Y-14200441D01*
X1996715Y-14378791D01*
X1899651Y-14573719D01*
X1849494Y-14749999D01*
X1849495Y-14750000D01*
X2684314Y-14750000D01*
X2672359Y-14761955D01*
X2614835Y-14874852D01*
X2595014Y-15000000D01*
X2614835Y-15125148D01*
X2672359Y-15238045D01*
X2684314Y-15250000D01*
X1849495Y-15250000D01*
X1899651Y-15426280D01*
X1996715Y-15621208D01*
X2131399Y-15799559D01*
X2129725Y-15800823D01*
X2156265Y-15855286D01*
X2148055Y-15924672D01*
X2103637Y-15978605D01*
X2037111Y-15999961D01*
X2034007Y-16000000D01*
X124500Y-16000000D01*
X57461Y-15980315D01*
X11706Y-15927511D01*
X500Y-15876000D01*
X500Y-14124000D01*
X20185Y-14056961D01*
X72989Y-14011206D01*
X124500Y-14000000D01*
X2034007Y-14000000D01*
X2101046Y-14019685D01*
G37*
%TD.AperFunction*%
%TA.AperFunction,Conductor*%
G36*
X8101046Y-14019685D02*
G01*
X8146801Y-14072489D01*
X8156745Y-14141647D01*
X8130280Y-14199596D01*
X8131399Y-14200441D01*
X7996715Y-14378791D01*
X7899651Y-14573719D01*
X7849494Y-14749999D01*
X7849495Y-14750000D01*
X8684314Y-14750000D01*
X8672359Y-14761955D01*
X8614835Y-14874852D01*
X8595014Y-15000000D01*
X8614835Y-15125148D01*
X8672359Y-15238045D01*
X8684314Y-15250000D01*
X7849495Y-15250000D01*
X7839590Y-15263115D01*
X7839394Y-15286434D01*
X7801127Y-15344892D01*
X7737329Y-15373382D01*
X7720715Y-15374500D01*
X6279803Y-15374500D01*
X6212764Y-15354815D01*
X6167009Y-15302011D01*
X6157065Y-15232853D01*
X6160254Y-15217887D01*
X6160435Y-15216922D01*
X6180536Y-15000000D01*
X6180536Y-14999999D01*
X6160435Y-14783081D01*
X6160435Y-14783077D01*
X6100817Y-14573541D01*
X6003712Y-14378528D01*
X5872427Y-14204678D01*
X5872426Y-14204677D01*
X5868972Y-14200103D01*
X5870751Y-14198759D01*
X5844415Y-14144715D01*
X5852623Y-14075329D01*
X5897041Y-14021396D01*
X5963567Y-14000039D01*
X5966672Y-14000000D01*
X8034007Y-14000000D01*
X8101046Y-14019685D01*
G37*
%TD.AperFunction*%
%TA.AperFunction,Conductor*%
G36*
X14101046Y-14019685D02*
G01*
X14146801Y-14072489D01*
X14156745Y-14141647D01*
X14130280Y-14199596D01*
X14131399Y-14200441D01*
X13996715Y-14378791D01*
X13899651Y-14573719D01*
X13849494Y-14749999D01*
X13849495Y-14750000D01*
X14684314Y-14750000D01*
X14672359Y-14761955D01*
X14614835Y-14874852D01*
X14595014Y-15000000D01*
X14614835Y-15125148D01*
X14672359Y-15238045D01*
X14684314Y-15250000D01*
X13849495Y-15250000D01*
X13839590Y-15263115D01*
X13839394Y-15286434D01*
X13801127Y-15344892D01*
X13737329Y-15373382D01*
X13720715Y-15374500D01*
X12279803Y-15374500D01*
X12212764Y-15354815D01*
X12167009Y-15302011D01*
X12157065Y-15232853D01*
X12160254Y-15217887D01*
X12160435Y-15216922D01*
X12180536Y-15000000D01*
X12180536Y-14999999D01*
X12160435Y-14783081D01*
X12160435Y-14783077D01*
X12100817Y-14573541D01*
X12003712Y-14378528D01*
X11872427Y-14204678D01*
X11872426Y-14204677D01*
X11868972Y-14200103D01*
X11870751Y-14198759D01*
X11844415Y-14144715D01*
X11852623Y-14075329D01*
X11897041Y-14021396D01*
X11963567Y-14000039D01*
X11966672Y-14000000D01*
X14034007Y-14000000D01*
X14101046Y-14019685D01*
G37*
%TD.AperFunction*%
%TA.AperFunction,Conductor*%
G36*
X20101046Y-14019685D02*
G01*
X20146801Y-14072489D01*
X20156745Y-14141647D01*
X20130280Y-14199596D01*
X20131399Y-14200441D01*
X19996715Y-14378791D01*
X19899651Y-14573719D01*
X19849494Y-14749999D01*
X19849495Y-14750000D01*
X20684314Y-14750000D01*
X20672359Y-14761955D01*
X20614835Y-14874852D01*
X20595014Y-15000000D01*
X20614835Y-15125148D01*
X20672359Y-15238045D01*
X20684314Y-15250000D01*
X19849495Y-15250000D01*
X19839590Y-15263115D01*
X19839394Y-15286434D01*
X19801127Y-15344892D01*
X19737329Y-15373382D01*
X19720715Y-15374500D01*
X18279803Y-15374500D01*
X18212764Y-15354815D01*
X18167009Y-15302011D01*
X18157065Y-15232853D01*
X18160254Y-15217887D01*
X18160435Y-15216922D01*
X18180536Y-15000000D01*
X18180536Y-14999999D01*
X18160435Y-14783081D01*
X18160435Y-14783077D01*
X18100817Y-14573541D01*
X18003712Y-14378528D01*
X17872427Y-14204678D01*
X17872426Y-14204677D01*
X17868972Y-14200103D01*
X17870751Y-14198759D01*
X17844415Y-14144715D01*
X17852623Y-14075329D01*
X17897041Y-14021396D01*
X17963567Y-14000039D01*
X17966672Y-14000000D01*
X20034007Y-14000000D01*
X20101046Y-14019685D01*
G37*
%TD.AperFunction*%
%TD*%
%TA.AperFunction,Conductor*%
%TO.N,/SEG_PD_F*%
G36*
X1821898Y-12525185D02*
G01*
X1867653Y-12577989D01*
X1877597Y-12647147D01*
X1874125Y-12663435D01*
X1849494Y-12749999D01*
X1849495Y-12750000D01*
X2684314Y-12750000D01*
X2672359Y-12761955D01*
X2614835Y-12874852D01*
X2595014Y-13000000D01*
X2614835Y-13125148D01*
X2672359Y-13238045D01*
X2684314Y-13250000D01*
X1849495Y-13250000D01*
X1874125Y-13336565D01*
X1873539Y-13406432D01*
X1835272Y-13464891D01*
X1771475Y-13493382D01*
X1754859Y-13494500D01*
X124500Y-13494500D01*
X57461Y-13474815D01*
X11706Y-13422011D01*
X500Y-13370500D01*
X500Y-12629500D01*
X20185Y-12562461D01*
X72989Y-12516706D01*
X124500Y-12505500D01*
X1754859Y-12505500D01*
X1821898Y-12525185D01*
G37*
%TD.AperFunction*%
%TA.AperFunction,Conductor*%
G36*
X8101046Y-12019685D02*
G01*
X8146801Y-12072489D01*
X8156745Y-12141647D01*
X8130280Y-12199596D01*
X8131399Y-12200441D01*
X7996715Y-12378791D01*
X7899651Y-12573719D01*
X7849494Y-12749999D01*
X7849495Y-12750000D01*
X8684314Y-12750000D01*
X8672359Y-12761955D01*
X8614835Y-12874852D01*
X8595014Y-13000000D01*
X8614835Y-13125148D01*
X8672359Y-13238045D01*
X8684314Y-13250000D01*
X7849495Y-13250000D01*
X7839590Y-13263115D01*
X7839394Y-13286434D01*
X7801127Y-13344892D01*
X7737329Y-13373382D01*
X7720715Y-13374500D01*
X6279803Y-13374500D01*
X6212764Y-13354815D01*
X6167009Y-13302011D01*
X6157065Y-13232853D01*
X6160254Y-13217887D01*
X6160435Y-13216922D01*
X6180536Y-13000000D01*
X6180536Y-12999999D01*
X6176515Y-12956615D01*
X6160435Y-12783077D01*
X6100817Y-12573541D01*
X6003712Y-12378528D01*
X5872427Y-12204678D01*
X5872426Y-12204677D01*
X5868972Y-12200103D01*
X5870751Y-12198759D01*
X5844415Y-12144715D01*
X5852623Y-12075329D01*
X5897041Y-12021396D01*
X5963567Y-12000039D01*
X5966672Y-12000000D01*
X8034007Y-12000000D01*
X8101046Y-12019685D01*
G37*
%TD.AperFunction*%
%TA.AperFunction,Conductor*%
G36*
X14101046Y-12019685D02*
G01*
X14146801Y-12072489D01*
X14156745Y-12141647D01*
X14130280Y-12199596D01*
X14131399Y-12200441D01*
X13996715Y-12378791D01*
X13899651Y-12573719D01*
X13849494Y-12749999D01*
X13849495Y-12750000D01*
X14684314Y-12750000D01*
X14672359Y-12761955D01*
X14614835Y-12874852D01*
X14595014Y-13000000D01*
X14614835Y-13125148D01*
X14672359Y-13238045D01*
X14684314Y-13250000D01*
X13849495Y-13250000D01*
X13839590Y-13263115D01*
X13839394Y-13286434D01*
X13801127Y-13344892D01*
X13737329Y-13373382D01*
X13720715Y-13374500D01*
X12279803Y-13374500D01*
X12212764Y-13354815D01*
X12167009Y-13302011D01*
X12157065Y-13232853D01*
X12160254Y-13217887D01*
X12160435Y-13216922D01*
X12180536Y-13000000D01*
X12180536Y-12999999D01*
X12176515Y-12956615D01*
X12160435Y-12783077D01*
X12100817Y-12573541D01*
X12003712Y-12378528D01*
X11872427Y-12204678D01*
X11872426Y-12204677D01*
X11868972Y-12200103D01*
X11870751Y-12198759D01*
X11844415Y-12144715D01*
X11852623Y-12075329D01*
X11897041Y-12021396D01*
X11963567Y-12000039D01*
X11966672Y-12000000D01*
X14034007Y-12000000D01*
X14101046Y-12019685D01*
G37*
%TD.AperFunction*%
%TA.AperFunction,Conductor*%
G36*
X20101046Y-12019685D02*
G01*
X20146801Y-12072489D01*
X20156745Y-12141647D01*
X20130280Y-12199596D01*
X20131399Y-12200441D01*
X19996715Y-12378791D01*
X19899651Y-12573719D01*
X19849494Y-12749999D01*
X19849495Y-12750000D01*
X20684314Y-12750000D01*
X20672359Y-12761955D01*
X20614835Y-12874852D01*
X20595014Y-13000000D01*
X20614835Y-13125148D01*
X20672359Y-13238045D01*
X20684314Y-13250000D01*
X19849495Y-13250000D01*
X19839590Y-13263115D01*
X19839394Y-13286434D01*
X19801127Y-13344892D01*
X19737329Y-13373382D01*
X19720715Y-13374500D01*
X18279803Y-13374500D01*
X18212764Y-13354815D01*
X18167009Y-13302011D01*
X18157065Y-13232853D01*
X18160254Y-13217887D01*
X18160435Y-13216922D01*
X18180536Y-13000000D01*
X18180536Y-12999999D01*
X18176515Y-12956615D01*
X18160435Y-12783077D01*
X18100817Y-12573541D01*
X18003712Y-12378528D01*
X17872427Y-12204678D01*
X17872426Y-12204677D01*
X17868972Y-12200103D01*
X17870751Y-12198759D01*
X17844415Y-12144715D01*
X17852623Y-12075329D01*
X17897041Y-12021396D01*
X17963567Y-12000039D01*
X17966672Y-12000000D01*
X20034007Y-12000000D01*
X20101046Y-12019685D01*
G37*
%TD.AperFunction*%
%TD*%
%TA.AperFunction,Conductor*%
%TO.N,/SEG_PD_E*%
G36*
X2101046Y-10019685D02*
G01*
X2146801Y-10072489D01*
X2156745Y-10141647D01*
X2130280Y-10199596D01*
X2131399Y-10200441D01*
X1996715Y-10378791D01*
X1899651Y-10573719D01*
X1849494Y-10749999D01*
X1849495Y-10750000D01*
X2684314Y-10750000D01*
X2672359Y-10761955D01*
X2614835Y-10874852D01*
X2595014Y-11000000D01*
X2614835Y-11125148D01*
X2672359Y-11238045D01*
X2684314Y-11250000D01*
X1849495Y-11250000D01*
X1899651Y-11426280D01*
X1996715Y-11621208D01*
X2131399Y-11799559D01*
X2129725Y-11800823D01*
X2156265Y-11855286D01*
X2148055Y-11924672D01*
X2103637Y-11978605D01*
X2037111Y-11999961D01*
X2034007Y-12000000D01*
X124500Y-12000000D01*
X57461Y-11980315D01*
X11706Y-11927511D01*
X500Y-11876000D01*
X500Y-10124000D01*
X20185Y-10056961D01*
X72989Y-10011206D01*
X124500Y-10000000D01*
X2034007Y-10000000D01*
X2101046Y-10019685D01*
G37*
%TD.AperFunction*%
%TA.AperFunction,Conductor*%
G36*
X8101046Y-10019685D02*
G01*
X8146801Y-10072489D01*
X8156745Y-10141647D01*
X8130280Y-10199596D01*
X8131399Y-10200441D01*
X7996715Y-10378791D01*
X7899651Y-10573719D01*
X7849494Y-10749999D01*
X7849495Y-10750000D01*
X8684314Y-10750000D01*
X8672359Y-10761955D01*
X8614835Y-10874852D01*
X8595014Y-11000000D01*
X8614835Y-11125148D01*
X8672359Y-11238045D01*
X8684314Y-11250000D01*
X7849495Y-11250000D01*
X7839590Y-11263115D01*
X7839394Y-11286434D01*
X7801127Y-11344892D01*
X7737329Y-11373382D01*
X7720715Y-11374500D01*
X6279803Y-11374500D01*
X6212764Y-11354815D01*
X6167009Y-11302011D01*
X6157065Y-11232853D01*
X6160254Y-11217887D01*
X6160435Y-11216922D01*
X6180536Y-11000000D01*
X6180536Y-10999999D01*
X6160435Y-10783081D01*
X6160435Y-10783077D01*
X6100817Y-10573541D01*
X6003712Y-10378528D01*
X5872427Y-10204678D01*
X5872426Y-10204677D01*
X5868972Y-10200103D01*
X5870751Y-10198759D01*
X5844415Y-10144715D01*
X5852623Y-10075329D01*
X5897041Y-10021396D01*
X5963567Y-10000039D01*
X5966672Y-10000000D01*
X8034007Y-10000000D01*
X8101046Y-10019685D01*
G37*
%TD.AperFunction*%
%TA.AperFunction,Conductor*%
G36*
X14101046Y-10019685D02*
G01*
X14146801Y-10072489D01*
X14156745Y-10141647D01*
X14130280Y-10199596D01*
X14131399Y-10200441D01*
X13996715Y-10378791D01*
X13899651Y-10573719D01*
X13849494Y-10749999D01*
X13849495Y-10750000D01*
X14684314Y-10750000D01*
X14672359Y-10761955D01*
X14614835Y-10874852D01*
X14595014Y-11000000D01*
X14614835Y-11125148D01*
X14672359Y-11238045D01*
X14684314Y-11250000D01*
X13849495Y-11250000D01*
X13839590Y-11263115D01*
X13839394Y-11286434D01*
X13801127Y-11344892D01*
X13737329Y-11373382D01*
X13720715Y-11374500D01*
X12279803Y-11374500D01*
X12212764Y-11354815D01*
X12167009Y-11302011D01*
X12157065Y-11232853D01*
X12160254Y-11217887D01*
X12160435Y-11216922D01*
X12180536Y-11000000D01*
X12180536Y-10999999D01*
X12160435Y-10783081D01*
X12160435Y-10783077D01*
X12100817Y-10573541D01*
X12003712Y-10378528D01*
X11872427Y-10204678D01*
X11872426Y-10204677D01*
X11868972Y-10200103D01*
X11870751Y-10198759D01*
X11844415Y-10144715D01*
X11852623Y-10075329D01*
X11897041Y-10021396D01*
X11963567Y-10000039D01*
X11966672Y-10000000D01*
X14034007Y-10000000D01*
X14101046Y-10019685D01*
G37*
%TD.AperFunction*%
%TA.AperFunction,Conductor*%
G36*
X20101046Y-10019685D02*
G01*
X20146801Y-10072489D01*
X20156745Y-10141647D01*
X20130280Y-10199596D01*
X20131399Y-10200441D01*
X19996715Y-10378791D01*
X19899651Y-10573719D01*
X19849494Y-10749999D01*
X19849495Y-10750000D01*
X20684314Y-10750000D01*
X20672359Y-10761955D01*
X20614835Y-10874852D01*
X20595014Y-11000000D01*
X20614835Y-11125148D01*
X20672359Y-11238045D01*
X20684314Y-11250000D01*
X19849495Y-11250000D01*
X19839590Y-11263115D01*
X19839394Y-11286434D01*
X19801127Y-11344892D01*
X19737329Y-11373382D01*
X19720715Y-11374500D01*
X18279803Y-11374500D01*
X18212764Y-11354815D01*
X18167009Y-11302011D01*
X18157065Y-11232853D01*
X18160254Y-11217887D01*
X18160435Y-11216922D01*
X18180536Y-11000000D01*
X18180536Y-10999999D01*
X18160435Y-10783081D01*
X18160435Y-10783077D01*
X18100817Y-10573541D01*
X18003712Y-10378528D01*
X17872427Y-10204678D01*
X17872426Y-10204677D01*
X17868972Y-10200103D01*
X17870751Y-10198759D01*
X17844415Y-10144715D01*
X17852623Y-10075329D01*
X17897041Y-10021396D01*
X17963567Y-10000039D01*
X17966672Y-10000000D01*
X20034007Y-10000000D01*
X20101046Y-10019685D01*
G37*
%TD.AperFunction*%
%TD*%
%TA.AperFunction,Conductor*%
%TO.N,/SEG_PD_D*%
G36*
X1821898Y-8525185D02*
G01*
X1867653Y-8577989D01*
X1877597Y-8647147D01*
X1874125Y-8663435D01*
X1849494Y-8749999D01*
X1849495Y-8750000D01*
X2684314Y-8750000D01*
X2672359Y-8761955D01*
X2614835Y-8874852D01*
X2595014Y-9000000D01*
X2614835Y-9125148D01*
X2672359Y-9238045D01*
X2684314Y-9250000D01*
X1849495Y-9250000D01*
X1874125Y-9336565D01*
X1873539Y-9406432D01*
X1835272Y-9464891D01*
X1771475Y-9493382D01*
X1754859Y-9494500D01*
X124500Y-9494500D01*
X57461Y-9474815D01*
X11706Y-9422011D01*
X500Y-9370500D01*
X500Y-8629500D01*
X20185Y-8562461D01*
X72989Y-8516706D01*
X124500Y-8505500D01*
X1754859Y-8505500D01*
X1821898Y-8525185D01*
G37*
%TD.AperFunction*%
%TA.AperFunction,Conductor*%
G36*
X8101046Y-8019685D02*
G01*
X8146801Y-8072489D01*
X8156745Y-8141647D01*
X8130280Y-8199596D01*
X8131399Y-8200441D01*
X7996715Y-8378791D01*
X7899651Y-8573719D01*
X7849494Y-8749999D01*
X7849495Y-8750000D01*
X8684314Y-8750000D01*
X8672359Y-8761955D01*
X8614835Y-8874852D01*
X8595014Y-9000000D01*
X8614835Y-9125148D01*
X8672359Y-9238045D01*
X8684314Y-9250000D01*
X7849495Y-9250000D01*
X7839590Y-9263115D01*
X7839394Y-9286434D01*
X7801127Y-9344892D01*
X7737329Y-9373382D01*
X7720715Y-9374500D01*
X6279803Y-9374500D01*
X6212764Y-9354815D01*
X6167009Y-9302011D01*
X6157065Y-9232853D01*
X6160254Y-9217887D01*
X6160435Y-9216922D01*
X6180536Y-9000000D01*
X6180536Y-8999999D01*
X6160435Y-8783081D01*
X6160435Y-8783077D01*
X6100817Y-8573541D01*
X6003712Y-8378528D01*
X5872427Y-8204678D01*
X5872426Y-8204677D01*
X5868972Y-8200103D01*
X5870751Y-8198759D01*
X5844415Y-8144715D01*
X5852623Y-8075329D01*
X5897041Y-8021396D01*
X5963567Y-8000039D01*
X5966672Y-8000000D01*
X8034007Y-8000000D01*
X8101046Y-8019685D01*
G37*
%TD.AperFunction*%
%TA.AperFunction,Conductor*%
G36*
X14101046Y-8019685D02*
G01*
X14146801Y-8072489D01*
X14156745Y-8141647D01*
X14130280Y-8199596D01*
X14131399Y-8200441D01*
X13996715Y-8378791D01*
X13899651Y-8573719D01*
X13849494Y-8749999D01*
X13849495Y-8750000D01*
X14684314Y-8750000D01*
X14672359Y-8761955D01*
X14614835Y-8874852D01*
X14595014Y-9000000D01*
X14614835Y-9125148D01*
X14672359Y-9238045D01*
X14684314Y-9250000D01*
X13849495Y-9250000D01*
X13839590Y-9263115D01*
X13839394Y-9286434D01*
X13801127Y-9344892D01*
X13737329Y-9373382D01*
X13720715Y-9374500D01*
X12279803Y-9374500D01*
X12212764Y-9354815D01*
X12167009Y-9302011D01*
X12157065Y-9232853D01*
X12160254Y-9217887D01*
X12160435Y-9216922D01*
X12180536Y-9000000D01*
X12180536Y-8999999D01*
X12160435Y-8783081D01*
X12160435Y-8783077D01*
X12100817Y-8573541D01*
X12003712Y-8378528D01*
X11872427Y-8204678D01*
X11872426Y-8204677D01*
X11868972Y-8200103D01*
X11870751Y-8198759D01*
X11844415Y-8144715D01*
X11852623Y-8075329D01*
X11897041Y-8021396D01*
X11963567Y-8000039D01*
X11966672Y-8000000D01*
X14034007Y-8000000D01*
X14101046Y-8019685D01*
G37*
%TD.AperFunction*%
%TA.AperFunction,Conductor*%
G36*
X20101046Y-8019685D02*
G01*
X20146801Y-8072489D01*
X20156745Y-8141647D01*
X20130280Y-8199596D01*
X20131399Y-8200441D01*
X19996715Y-8378791D01*
X19899651Y-8573719D01*
X19849494Y-8749999D01*
X19849495Y-8750000D01*
X20684314Y-8750000D01*
X20672359Y-8761955D01*
X20614835Y-8874852D01*
X20595014Y-9000000D01*
X20614835Y-9125148D01*
X20672359Y-9238045D01*
X20684314Y-9250000D01*
X19849495Y-9250000D01*
X19839590Y-9263115D01*
X19839394Y-9286434D01*
X19801127Y-9344892D01*
X19737329Y-9373382D01*
X19720715Y-9374500D01*
X18279803Y-9374500D01*
X18212764Y-9354815D01*
X18167009Y-9302011D01*
X18157065Y-9232853D01*
X18160254Y-9217887D01*
X18160435Y-9216922D01*
X18180536Y-9000000D01*
X18180536Y-8999999D01*
X18160435Y-8783081D01*
X18160435Y-8783077D01*
X18100817Y-8573541D01*
X18003712Y-8378528D01*
X17872427Y-8204678D01*
X17872426Y-8204677D01*
X17868972Y-8200103D01*
X17870751Y-8198759D01*
X17844415Y-8144715D01*
X17852623Y-8075329D01*
X17897041Y-8021396D01*
X17963567Y-8000039D01*
X17966672Y-8000000D01*
X20034007Y-8000000D01*
X20101046Y-8019685D01*
G37*
%TD.AperFunction*%
%TD*%
%TA.AperFunction,Conductor*%
%TO.N,/SEG_PD_C*%
G36*
X2101046Y-6019685D02*
G01*
X2146801Y-6072489D01*
X2156745Y-6141647D01*
X2130280Y-6199596D01*
X2131399Y-6200441D01*
X1996715Y-6378791D01*
X1899651Y-6573719D01*
X1849494Y-6749999D01*
X1849495Y-6750000D01*
X2684314Y-6750000D01*
X2672359Y-6761955D01*
X2614835Y-6874852D01*
X2595014Y-7000000D01*
X2614835Y-7125148D01*
X2672359Y-7238045D01*
X2684314Y-7250000D01*
X1849495Y-7250000D01*
X1899651Y-7426280D01*
X1996715Y-7621208D01*
X2131399Y-7799559D01*
X2129725Y-7800823D01*
X2156265Y-7855286D01*
X2148055Y-7924672D01*
X2103637Y-7978605D01*
X2037111Y-7999961D01*
X2034007Y-8000000D01*
X124500Y-8000000D01*
X57461Y-7980315D01*
X11706Y-7927511D01*
X500Y-7876000D01*
X500Y-6124000D01*
X20185Y-6056961D01*
X72989Y-6011206D01*
X124500Y-6000000D01*
X2034007Y-6000000D01*
X2101046Y-6019685D01*
G37*
%TD.AperFunction*%
%TA.AperFunction,Conductor*%
G36*
X8101046Y-6019685D02*
G01*
X8146801Y-6072489D01*
X8156745Y-6141647D01*
X8130280Y-6199596D01*
X8131399Y-6200441D01*
X7996715Y-6378791D01*
X7899651Y-6573719D01*
X7849494Y-6749999D01*
X7849495Y-6750000D01*
X8684314Y-6750000D01*
X8672359Y-6761955D01*
X8614835Y-6874852D01*
X8595014Y-7000000D01*
X8614835Y-7125148D01*
X8672359Y-7238045D01*
X8684314Y-7250000D01*
X7849495Y-7250000D01*
X7839590Y-7263115D01*
X7839394Y-7286434D01*
X7801127Y-7344892D01*
X7737329Y-7373382D01*
X7720715Y-7374500D01*
X6279803Y-7374500D01*
X6212764Y-7354815D01*
X6167009Y-7302011D01*
X6157065Y-7232853D01*
X6160254Y-7217887D01*
X6160435Y-7216922D01*
X6180536Y-7000000D01*
X6180536Y-6999999D01*
X6160435Y-6783081D01*
X6160435Y-6783077D01*
X6100817Y-6573541D01*
X6003712Y-6378528D01*
X5872427Y-6204678D01*
X5872426Y-6204677D01*
X5868972Y-6200103D01*
X5870751Y-6198759D01*
X5844415Y-6144715D01*
X5852623Y-6075329D01*
X5897041Y-6021396D01*
X5963567Y-6000039D01*
X5966672Y-6000000D01*
X8034007Y-6000000D01*
X8101046Y-6019685D01*
G37*
%TD.AperFunction*%
%TA.AperFunction,Conductor*%
G36*
X14101046Y-6019685D02*
G01*
X14146801Y-6072489D01*
X14156745Y-6141647D01*
X14130280Y-6199596D01*
X14131399Y-6200441D01*
X13996715Y-6378791D01*
X13899651Y-6573719D01*
X13849494Y-6749999D01*
X13849495Y-6750000D01*
X14684314Y-6750000D01*
X14672359Y-6761955D01*
X14614835Y-6874852D01*
X14595014Y-7000000D01*
X14614835Y-7125148D01*
X14672359Y-7238045D01*
X14684314Y-7250000D01*
X13849495Y-7250000D01*
X13839590Y-7263115D01*
X13839394Y-7286434D01*
X13801127Y-7344892D01*
X13737329Y-7373382D01*
X13720715Y-7374500D01*
X12279803Y-7374500D01*
X12212764Y-7354815D01*
X12167009Y-7302011D01*
X12157065Y-7232853D01*
X12160254Y-7217887D01*
X12160435Y-7216922D01*
X12180536Y-7000000D01*
X12180536Y-6999999D01*
X12160435Y-6783081D01*
X12160435Y-6783077D01*
X12100817Y-6573541D01*
X12003712Y-6378528D01*
X11872427Y-6204678D01*
X11872426Y-6204677D01*
X11868972Y-6200103D01*
X11870751Y-6198759D01*
X11844415Y-6144715D01*
X11852623Y-6075329D01*
X11897041Y-6021396D01*
X11963567Y-6000039D01*
X11966672Y-6000000D01*
X14034007Y-6000000D01*
X14101046Y-6019685D01*
G37*
%TD.AperFunction*%
%TA.AperFunction,Conductor*%
G36*
X20101046Y-6019685D02*
G01*
X20146801Y-6072489D01*
X20156745Y-6141647D01*
X20130280Y-6199596D01*
X20131399Y-6200441D01*
X19996715Y-6378791D01*
X19899651Y-6573719D01*
X19849494Y-6749999D01*
X19849495Y-6750000D01*
X20684314Y-6750000D01*
X20672359Y-6761955D01*
X20614835Y-6874852D01*
X20595014Y-7000000D01*
X20614835Y-7125148D01*
X20672359Y-7238045D01*
X20684314Y-7250000D01*
X19849495Y-7250000D01*
X19839590Y-7263115D01*
X19839394Y-7286434D01*
X19801127Y-7344892D01*
X19737329Y-7373382D01*
X19720715Y-7374500D01*
X18279803Y-7374500D01*
X18212764Y-7354815D01*
X18167009Y-7302011D01*
X18157065Y-7232853D01*
X18160254Y-7217887D01*
X18160435Y-7216922D01*
X18180536Y-7000000D01*
X18180536Y-6999999D01*
X18160435Y-6783081D01*
X18160435Y-6783077D01*
X18100817Y-6573541D01*
X18003712Y-6378528D01*
X17872427Y-6204678D01*
X17872426Y-6204677D01*
X17868972Y-6200103D01*
X17870751Y-6198759D01*
X17844415Y-6144715D01*
X17852623Y-6075329D01*
X17897041Y-6021396D01*
X17963567Y-6000039D01*
X17966672Y-6000000D01*
X20034007Y-6000000D01*
X20101046Y-6019685D01*
G37*
%TD.AperFunction*%
%TD*%
%TA.AperFunction,Conductor*%
%TO.N,/SEG_PD_B*%
G36*
X1816275Y-4521524D02*
G01*
X1864794Y-4571801D01*
X1878428Y-4640327D01*
X1874187Y-4663216D01*
X1849494Y-4749999D01*
X1849495Y-4750000D01*
X2684314Y-4750000D01*
X2672359Y-4761955D01*
X2614835Y-4874852D01*
X2595014Y-5000000D01*
X2614835Y-5125148D01*
X2672359Y-5238045D01*
X2684314Y-5250000D01*
X1849495Y-5250000D01*
X1874125Y-5336565D01*
X1873539Y-5406432D01*
X1835272Y-5464891D01*
X1771475Y-5493382D01*
X1754859Y-5494500D01*
X124500Y-5494500D01*
X57461Y-5474815D01*
X11706Y-5422011D01*
X500Y-5370500D01*
X500Y-4629500D01*
X20185Y-4562461D01*
X72989Y-4516706D01*
X124500Y-4505500D01*
X1747514Y-4505500D01*
X1747517Y-4505500D01*
X1748278Y-4505459D01*
X1816275Y-4521524D01*
G37*
%TD.AperFunction*%
%TA.AperFunction,Conductor*%
G36*
X7950585Y-4019685D02*
G01*
X7960202Y-4027435D01*
X7960355Y-4027232D01*
X8053504Y-4096964D01*
X8095375Y-4152898D01*
X8100359Y-4222589D01*
X8078148Y-4270956D01*
X7996714Y-4378792D01*
X7899651Y-4573719D01*
X7849494Y-4749999D01*
X7849495Y-4750000D01*
X8684314Y-4750000D01*
X8672359Y-4761955D01*
X8614835Y-4874852D01*
X8595014Y-5000000D01*
X8614835Y-5125148D01*
X8672359Y-5238045D01*
X8684314Y-5250000D01*
X7849495Y-5250000D01*
X7839590Y-5263115D01*
X7839394Y-5286434D01*
X7801127Y-5344892D01*
X7737329Y-5373382D01*
X7720715Y-5374500D01*
X6279803Y-5374500D01*
X6212764Y-5354815D01*
X6167009Y-5302011D01*
X6157065Y-5232853D01*
X6160254Y-5217887D01*
X6160435Y-5216922D01*
X6180536Y-5000000D01*
X6180536Y-4999999D01*
X6160435Y-4783081D01*
X6160435Y-4783077D01*
X6100817Y-4573541D01*
X6003712Y-4378528D01*
X5872427Y-4204678D01*
X5872426Y-4204677D01*
X5868972Y-4200103D01*
X5870751Y-4198759D01*
X5844415Y-4144715D01*
X5852623Y-4075329D01*
X5897041Y-4021396D01*
X5963567Y-4000039D01*
X5966672Y-4000000D01*
X7883546Y-4000000D01*
X7950585Y-4019685D01*
G37*
%TD.AperFunction*%
%TA.AperFunction,Conductor*%
G36*
X13950585Y-4019685D02*
G01*
X13960202Y-4027435D01*
X13960355Y-4027232D01*
X14053504Y-4096964D01*
X14095375Y-4152898D01*
X14100359Y-4222589D01*
X14078148Y-4270956D01*
X13996714Y-4378792D01*
X13899651Y-4573719D01*
X13849494Y-4749999D01*
X13849495Y-4750000D01*
X14684314Y-4750000D01*
X14672359Y-4761955D01*
X14614835Y-4874852D01*
X14595014Y-5000000D01*
X14614835Y-5125148D01*
X14672359Y-5238045D01*
X14684314Y-5250000D01*
X13849495Y-5250000D01*
X13839590Y-5263115D01*
X13839394Y-5286434D01*
X13801127Y-5344892D01*
X13737329Y-5373382D01*
X13720715Y-5374500D01*
X12279803Y-5374500D01*
X12212764Y-5354815D01*
X12167009Y-5302011D01*
X12157065Y-5232853D01*
X12160254Y-5217887D01*
X12160435Y-5216922D01*
X12180536Y-5000000D01*
X12180536Y-4999999D01*
X12160435Y-4783081D01*
X12160435Y-4783077D01*
X12100817Y-4573541D01*
X12003712Y-4378528D01*
X11872427Y-4204678D01*
X11872426Y-4204677D01*
X11868972Y-4200103D01*
X11870751Y-4198759D01*
X11844415Y-4144715D01*
X11852623Y-4075329D01*
X11897041Y-4021396D01*
X11963567Y-4000039D01*
X11966672Y-4000000D01*
X13883546Y-4000000D01*
X13950585Y-4019685D01*
G37*
%TD.AperFunction*%
%TA.AperFunction,Conductor*%
G36*
X19950585Y-4019685D02*
G01*
X19960202Y-4027435D01*
X19960355Y-4027232D01*
X20053504Y-4096964D01*
X20095375Y-4152898D01*
X20100359Y-4222589D01*
X20078148Y-4270956D01*
X19996714Y-4378792D01*
X19899651Y-4573719D01*
X19849494Y-4749999D01*
X19849495Y-4750000D01*
X20684314Y-4750000D01*
X20672359Y-4761955D01*
X20614835Y-4874852D01*
X20595014Y-5000000D01*
X20614835Y-5125148D01*
X20672359Y-5238045D01*
X20684314Y-5250000D01*
X19849495Y-5250000D01*
X19839590Y-5263115D01*
X19839394Y-5286434D01*
X19801127Y-5344892D01*
X19737329Y-5373382D01*
X19720715Y-5374500D01*
X18279803Y-5374500D01*
X18212764Y-5354815D01*
X18167009Y-5302011D01*
X18157065Y-5232853D01*
X18160254Y-5217887D01*
X18160435Y-5216922D01*
X18180536Y-5000000D01*
X18180536Y-4999999D01*
X18160435Y-4783081D01*
X18160435Y-4783077D01*
X18100817Y-4573541D01*
X18003712Y-4378528D01*
X17872427Y-4204678D01*
X17872426Y-4204677D01*
X17868972Y-4200103D01*
X17870751Y-4198759D01*
X17844415Y-4144715D01*
X17852623Y-4075329D01*
X17897041Y-4021396D01*
X17963567Y-4000039D01*
X17966672Y-4000000D01*
X19883546Y-4000000D01*
X19950585Y-4019685D01*
G37*
%TD.AperFunction*%
%TD*%
%TA.AperFunction,Conductor*%
%TO.N,/SEG_PD_A*%
G36*
X24443039Y-20185D02*
G01*
X24488794Y-72989D01*
X24500000Y-124500D01*
X24500000Y-2948637D01*
X24480315Y-3015676D01*
X24463681Y-3036318D01*
X24390749Y-3109250D01*
X24329426Y-3142735D01*
X24259734Y-3137751D01*
X24203801Y-3095879D01*
X24179384Y-3030415D01*
X24179596Y-3010134D01*
X24180536Y-3000000D01*
X24160435Y-2783077D01*
X24100817Y-2573541D01*
X24003712Y-2378528D01*
X23872427Y-2204678D01*
X23711432Y-2057912D01*
X23711428Y-2057909D01*
X23711423Y-2057906D01*
X23526213Y-1943229D01*
X23526207Y-1943226D01*
X23441113Y-1910260D01*
X23323069Y-1864530D01*
X23108926Y-1824500D01*
X22891074Y-1824500D01*
X22676931Y-1864530D01*
X22632753Y-1881645D01*
X22473792Y-1943226D01*
X22473786Y-1943229D01*
X22288565Y-2057913D01*
X22277214Y-2068261D01*
X22214408Y-2098875D01*
X22145021Y-2090674D01*
X22094414Y-2050932D01*
X22032187Y-1967809D01*
X21917093Y-1881649D01*
X21917086Y-1881645D01*
X21782379Y-1831403D01*
X21782372Y-1831401D01*
X21722844Y-1825000D01*
X21250000Y-1825000D01*
X21250000Y-2684314D01*
X21238045Y-2672359D01*
X21125148Y-2614835D01*
X21031481Y-2600000D01*
X20968519Y-2600000D01*
X20874852Y-2614835D01*
X20761955Y-2672359D01*
X20750000Y-2684314D01*
X20750000Y-1825000D01*
X20277155Y-1825000D01*
X20217627Y-1831401D01*
X20217620Y-1831403D01*
X20082913Y-1881645D01*
X20082906Y-1881649D01*
X19967812Y-1967809D01*
X19967809Y-1967812D01*
X19881649Y-2082906D01*
X19881645Y-2082913D01*
X19831403Y-2217620D01*
X19831401Y-2217627D01*
X19825000Y-2277155D01*
X19825000Y-2750000D01*
X20684314Y-2750000D01*
X20672359Y-2761955D01*
X20614835Y-2874852D01*
X20595014Y-3000000D01*
X20614835Y-3125148D01*
X20672359Y-3238045D01*
X20684314Y-3250000D01*
X19825000Y-3250000D01*
X19825000Y-3250500D01*
X19805315Y-3317539D01*
X19752511Y-3363294D01*
X19701000Y-3374500D01*
X18279803Y-3374500D01*
X18212764Y-3354815D01*
X18167009Y-3302011D01*
X18157065Y-3232853D01*
X18160254Y-3217887D01*
X18160435Y-3216922D01*
X18180536Y-3000000D01*
X18180536Y-2999999D01*
X18160435Y-2783081D01*
X18160435Y-2783077D01*
X18100817Y-2573541D01*
X18003712Y-2378528D01*
X17872427Y-2204678D01*
X17711432Y-2057912D01*
X17711428Y-2057909D01*
X17711423Y-2057906D01*
X17526213Y-1943229D01*
X17526207Y-1943226D01*
X17441113Y-1910260D01*
X17323069Y-1864530D01*
X17108926Y-1824500D01*
X16891074Y-1824500D01*
X16676931Y-1864530D01*
X16632753Y-1881645D01*
X16473792Y-1943226D01*
X16473786Y-1943229D01*
X16288565Y-2057913D01*
X16277214Y-2068261D01*
X16214408Y-2098875D01*
X16145021Y-2090674D01*
X16094414Y-2050932D01*
X16032187Y-1967809D01*
X15917093Y-1881649D01*
X15917086Y-1881645D01*
X15782379Y-1831403D01*
X15782372Y-1831401D01*
X15722844Y-1825000D01*
X15250000Y-1825000D01*
X15250000Y-2684314D01*
X15238045Y-2672359D01*
X15125148Y-2614835D01*
X15031481Y-2600000D01*
X14968519Y-2600000D01*
X14874852Y-2614835D01*
X14761955Y-2672359D01*
X14750000Y-2684314D01*
X14750000Y-1825000D01*
X14277155Y-1825000D01*
X14217627Y-1831401D01*
X14217620Y-1831403D01*
X14082913Y-1881645D01*
X14082906Y-1881649D01*
X13967812Y-1967809D01*
X13967809Y-1967812D01*
X13881649Y-2082906D01*
X13881645Y-2082913D01*
X13831403Y-2217620D01*
X13831401Y-2217627D01*
X13825000Y-2277155D01*
X13825000Y-2750000D01*
X14684314Y-2750000D01*
X14672359Y-2761955D01*
X14614835Y-2874852D01*
X14595014Y-3000000D01*
X14614835Y-3125148D01*
X14672359Y-3238045D01*
X14684314Y-3250000D01*
X13825000Y-3250000D01*
X13825000Y-3250500D01*
X13805315Y-3317539D01*
X13752511Y-3363294D01*
X13701000Y-3374500D01*
X12279803Y-3374500D01*
X12212764Y-3354815D01*
X12167009Y-3302011D01*
X12157065Y-3232853D01*
X12160254Y-3217887D01*
X12160435Y-3216922D01*
X12180536Y-3000000D01*
X12180536Y-2999999D01*
X12160435Y-2783081D01*
X12160435Y-2783077D01*
X12100817Y-2573541D01*
X12003712Y-2378528D01*
X11872427Y-2204678D01*
X11711432Y-2057912D01*
X11711428Y-2057909D01*
X11711423Y-2057906D01*
X11526213Y-1943229D01*
X11526207Y-1943226D01*
X11441113Y-1910260D01*
X11323069Y-1864530D01*
X11108926Y-1824500D01*
X10891074Y-1824500D01*
X10676931Y-1864530D01*
X10632753Y-1881645D01*
X10473792Y-1943226D01*
X10473786Y-1943229D01*
X10288565Y-2057913D01*
X10277214Y-2068261D01*
X10214408Y-2098875D01*
X10145021Y-2090674D01*
X10094414Y-2050932D01*
X10032187Y-1967809D01*
X9917093Y-1881649D01*
X9917086Y-1881645D01*
X9782379Y-1831403D01*
X9782372Y-1831401D01*
X9722844Y-1825000D01*
X9250000Y-1825000D01*
X9250000Y-2684314D01*
X9238045Y-2672359D01*
X9125148Y-2614835D01*
X9031481Y-2600000D01*
X8968519Y-2600000D01*
X8874852Y-2614835D01*
X8761955Y-2672359D01*
X8750000Y-2684314D01*
X8750000Y-1825000D01*
X8277155Y-1825000D01*
X8217627Y-1831401D01*
X8217620Y-1831403D01*
X8082913Y-1881645D01*
X8082906Y-1881649D01*
X7967812Y-1967809D01*
X7967809Y-1967812D01*
X7881649Y-2082906D01*
X7881645Y-2082913D01*
X7831403Y-2217620D01*
X7831401Y-2217627D01*
X7825000Y-2277155D01*
X7825000Y-2750000D01*
X8684314Y-2750000D01*
X8672359Y-2761955D01*
X8614835Y-2874852D01*
X8595014Y-3000000D01*
X8614835Y-3125148D01*
X8672359Y-3238045D01*
X8684314Y-3250000D01*
X7825000Y-3250000D01*
X7825000Y-3250500D01*
X7805315Y-3317539D01*
X7752511Y-3363294D01*
X7701000Y-3374500D01*
X6279803Y-3374500D01*
X6212764Y-3354815D01*
X6167009Y-3302011D01*
X6157065Y-3232853D01*
X6160254Y-3217887D01*
X6160435Y-3216922D01*
X6180536Y-3000000D01*
X6180536Y-2999999D01*
X6160435Y-2783081D01*
X6160435Y-2783077D01*
X6100817Y-2573541D01*
X6003712Y-2378528D01*
X5872427Y-2204678D01*
X5711432Y-2057912D01*
X5711428Y-2057909D01*
X5711423Y-2057906D01*
X5526213Y-1943229D01*
X5526207Y-1943226D01*
X5441113Y-1910260D01*
X5323069Y-1864530D01*
X5108926Y-1824500D01*
X4891074Y-1824500D01*
X4676931Y-1864530D01*
X4632753Y-1881645D01*
X4473792Y-1943226D01*
X4473786Y-1943229D01*
X4288565Y-2057913D01*
X4277214Y-2068261D01*
X4214408Y-2098875D01*
X4145021Y-2090674D01*
X4094414Y-2050932D01*
X4032187Y-1967809D01*
X3917093Y-1881649D01*
X3917086Y-1881645D01*
X3782379Y-1831403D01*
X3782372Y-1831401D01*
X3722844Y-1825000D01*
X3250000Y-1825000D01*
X3250000Y-2684314D01*
X3238045Y-2672359D01*
X3125148Y-2614835D01*
X3031481Y-2600000D01*
X2968519Y-2600000D01*
X2874852Y-2614835D01*
X2761955Y-2672359D01*
X2750000Y-2684314D01*
X2750000Y-1825000D01*
X2277155Y-1825000D01*
X2217627Y-1831401D01*
X2217620Y-1831403D01*
X2082913Y-1881645D01*
X2082906Y-1881649D01*
X1967812Y-1967809D01*
X1967809Y-1967812D01*
X1881649Y-2082906D01*
X1881645Y-2082913D01*
X1831403Y-2217620D01*
X1831401Y-2217627D01*
X1825000Y-2277155D01*
X1825000Y-2750000D01*
X2684314Y-2750000D01*
X2672359Y-2761955D01*
X2614835Y-2874852D01*
X2595014Y-3000000D01*
X2614835Y-3125148D01*
X2672359Y-3238045D01*
X2684314Y-3250000D01*
X1825000Y-3250000D01*
X1825000Y-3722844D01*
X1831401Y-3782372D01*
X1831403Y-3782379D01*
X1850159Y-3832667D01*
X1855143Y-3902359D01*
X1821658Y-3963682D01*
X1760334Y-3997166D01*
X1733977Y-4000000D01*
X124500Y-4000000D01*
X57461Y-3980315D01*
X11706Y-3927511D01*
X500Y-3876000D01*
X500Y-124500D01*
X20185Y-57461D01*
X72989Y-11706D01*
X124500Y-500D01*
X24376000Y-500D01*
X24443039Y-20185D01*
G37*
%TD.AperFunction*%
%TD*%
%TA.AperFunction,Conductor*%
%TO.N,+12V*%
G36*
X50214594Y-22019685D02*
G01*
X50260349Y-22072489D01*
X50270293Y-22141647D01*
X50253094Y-22189097D01*
X50165643Y-22330875D01*
X50165641Y-22330880D01*
X50110494Y-22497302D01*
X50110493Y-22497309D01*
X50100000Y-22600013D01*
X50100000Y-22725000D01*
X52899999Y-22725000D01*
X52899999Y-22624000D01*
X52919684Y-22556961D01*
X52972488Y-22511206D01*
X53023999Y-22500000D01*
X54972053Y-22500000D01*
X55039092Y-22519685D01*
X55084847Y-22572489D01*
X55094791Y-22641647D01*
X55071319Y-22698312D01*
X55056647Y-22717910D01*
X55056645Y-22717913D01*
X55006403Y-22852620D01*
X55006401Y-22852627D01*
X55000000Y-22912155D01*
X55000000Y-24210000D01*
X56281517Y-24210000D01*
X56246451Y-24327129D01*
X56236121Y-24504491D01*
X56266971Y-24679454D01*
X56280147Y-24710000D01*
X55000000Y-24710000D01*
X55000000Y-26007844D01*
X55006401Y-26067372D01*
X55006403Y-26067379D01*
X55056645Y-26202086D01*
X55056649Y-26202093D01*
X55142809Y-26317187D01*
X55142812Y-26317190D01*
X55257906Y-26403350D01*
X55257913Y-26403354D01*
X55392620Y-26453596D01*
X55392627Y-26453598D01*
X55452155Y-26459999D01*
X55452172Y-26460000D01*
X56750000Y-26460000D01*
X56750000Y-25181802D01*
X56911169Y-25220000D01*
X57044267Y-25220000D01*
X57176461Y-25204549D01*
X57250000Y-25177782D01*
X57250000Y-26460000D01*
X58547828Y-26460000D01*
X58547844Y-26459999D01*
X58607372Y-26453598D01*
X58607379Y-26453596D01*
X58742086Y-26403354D01*
X58742093Y-26403350D01*
X58857187Y-26317190D01*
X58857190Y-26317187D01*
X58943350Y-26202093D01*
X58943354Y-26202086D01*
X58993596Y-26067379D01*
X58993598Y-26067372D01*
X58999999Y-26007844D01*
X59000000Y-26007827D01*
X59000000Y-24710000D01*
X57718483Y-24710000D01*
X57753549Y-24592871D01*
X57763879Y-24415509D01*
X57733029Y-24240546D01*
X57719853Y-24210000D01*
X59000000Y-24210000D01*
X59000000Y-22912172D01*
X58999999Y-22912155D01*
X58993598Y-22852627D01*
X58993596Y-22852620D01*
X58943354Y-22717913D01*
X58943352Y-22717910D01*
X58928681Y-22698312D01*
X58904263Y-22632848D01*
X58919114Y-22564575D01*
X58968518Y-22515169D01*
X59027947Y-22500000D01*
X60875500Y-22500000D01*
X60942539Y-22519685D01*
X60988294Y-22572489D01*
X60999500Y-22624000D01*
X60999500Y-31875500D01*
X60979815Y-31942539D01*
X60927011Y-31988294D01*
X60875500Y-31999500D01*
X124500Y-31999500D01*
X57461Y-31979815D01*
X11706Y-31927011D01*
X500Y-31875500D01*
X500Y-25725000D01*
X4295000Y-25725000D01*
X4295000Y-26365644D01*
X4297899Y-26402489D01*
X4297900Y-26402495D01*
X4343716Y-26560193D01*
X4343717Y-26560196D01*
X4427314Y-26701552D01*
X4427321Y-26701561D01*
X4543438Y-26817678D01*
X4543447Y-26817685D01*
X4684801Y-26901281D01*
X4842514Y-26947100D01*
X4842511Y-26947100D01*
X4844998Y-26947295D01*
X4845000Y-26947295D01*
X4845000Y-25725000D01*
X4295000Y-25725000D01*
X500Y-25725000D01*
X500Y-25225000D01*
X4295000Y-25225000D01*
X4845000Y-25225000D01*
X4845000Y-24002703D01*
X4842503Y-24002900D01*
X4684806Y-24048716D01*
X4684803Y-24048717D01*
X4543447Y-24132314D01*
X4543438Y-24132321D01*
X4427321Y-24248438D01*
X4427314Y-24248447D01*
X4343717Y-24389803D01*
X4343716Y-24389806D01*
X4297900Y-24547504D01*
X4297899Y-24547510D01*
X4295000Y-24584356D01*
X4295000Y-25225000D01*
X500Y-25225000D01*
X500Y-23629500D01*
X20185Y-23562461D01*
X72989Y-23516706D01*
X124500Y-23505500D01*
X6129974Y-23505500D01*
X6197013Y-23525185D01*
X6242768Y-23577989D01*
X6250046Y-23602658D01*
X6250500Y-23602537D01*
X6297776Y-23778975D01*
X6318090Y-23816650D01*
X6332580Y-23885001D01*
X6307817Y-23950335D01*
X6251663Y-23991910D01*
X6208945Y-23999500D01*
X6149304Y-23999500D01*
X6112432Y-24002401D01*
X6112426Y-24002402D01*
X5954606Y-24048254D01*
X5954603Y-24048255D01*
X5813140Y-24131915D01*
X5806974Y-24136699D01*
X5805174Y-24134379D01*
X5755913Y-24161230D01*
X5686225Y-24156193D01*
X5653992Y-24135461D01*
X5652722Y-24137100D01*
X5646552Y-24132314D01*
X5505196Y-24048717D01*
X5505193Y-24048716D01*
X5347494Y-24002900D01*
X5347497Y-24002900D01*
X5345000Y-24002703D01*
X5345000Y-26947295D01*
X5345001Y-26947295D01*
X5347488Y-26947100D01*
X5347494Y-26947099D01*
X5455905Y-26915603D01*
X5525775Y-26915802D01*
X5584445Y-26953744D01*
X5613288Y-27017383D01*
X5614500Y-27034679D01*
X5614500Y-27365404D01*
X5594815Y-27432443D01*
X5578181Y-27453085D01*
X5558869Y-27472396D01*
X5558863Y-27472404D01*
X5477131Y-27610606D01*
X5477129Y-27610611D01*
X5432335Y-27764791D01*
X5432334Y-27764797D01*
X5429500Y-27800817D01*
X5429501Y-28199181D01*
X5432335Y-28235205D01*
X5477129Y-28389388D01*
X5477132Y-28389395D01*
X5511128Y-28446881D01*
X5528309Y-28514605D01*
X5511128Y-28573119D01*
X5477132Y-28630604D01*
X5477129Y-28630611D01*
X5432335Y-28784791D01*
X5432334Y-28784797D01*
X5429500Y-28820817D01*
X5429501Y-29219181D01*
X5432335Y-29255205D01*
X5477129Y-29409388D01*
X5477131Y-29409393D01*
X5558863Y-29547595D01*
X5558869Y-29547603D01*
X5672396Y-29661130D01*
X5672400Y-29661133D01*
X5672402Y-29661135D01*
X5810607Y-29742869D01*
X5839565Y-29751282D01*
X5964791Y-29787664D01*
X5964794Y-29787664D01*
X5964796Y-29787665D01*
X5976803Y-29788610D01*
X6000817Y-29790500D01*
X6000818Y-29790499D01*
X6000819Y-29790500D01*
X6333059Y-29790499D01*
X6499181Y-29790499D01*
X6502015Y-29790275D01*
X6535204Y-29787665D01*
X6689393Y-29742869D01*
X6827598Y-29661135D01*
X6941135Y-29547598D01*
X7022869Y-29409393D01*
X7067665Y-29255204D01*
X7070500Y-29219181D01*
X7070499Y-29135450D01*
X7090183Y-29068413D01*
X7106813Y-29047775D01*
X7373787Y-28780802D01*
X7386042Y-28770986D01*
X7385859Y-28770764D01*
X7391866Y-28765792D01*
X7391877Y-28765786D01*
X7422775Y-28732882D01*
X7439227Y-28715364D01*
X7449671Y-28704918D01*
X7460120Y-28694471D01*
X7464379Y-28688978D01*
X7468152Y-28684561D01*
X7500062Y-28650582D01*
X7509715Y-28633020D01*
X7520389Y-28616770D01*
X7532673Y-28600936D01*
X7551180Y-28558167D01*
X7553749Y-28552924D01*
X7563283Y-28535582D01*
X7576197Y-28512092D01*
X7581177Y-28492691D01*
X7587478Y-28474288D01*
X7595438Y-28455896D01*
X7602730Y-28409849D01*
X7603911Y-28404152D01*
X7605724Y-28397092D01*
X7615500Y-28359019D01*
X7615500Y-28338983D01*
X7617027Y-28319582D01*
X7620160Y-28299804D01*
X7615775Y-28253415D01*
X7615500Y-28247577D01*
X7615500Y-27074000D01*
X7635185Y-27006961D01*
X7687989Y-26961206D01*
X7739500Y-26950000D01*
X7850644Y-26950000D01*
X7887489Y-26947100D01*
X7887495Y-26947099D01*
X7995905Y-26915603D01*
X8065774Y-26915802D01*
X8124444Y-26953744D01*
X8153288Y-27017382D01*
X8154500Y-27034679D01*
X8154500Y-27841294D01*
X8153191Y-27859263D01*
X8149710Y-27883025D01*
X8154264Y-27935064D01*
X8154500Y-27940470D01*
X8154500Y-27948709D01*
X8158306Y-27981274D01*
X8165000Y-28057791D01*
X8166461Y-28064867D01*
X8166403Y-28064878D01*
X8168036Y-28072243D01*
X8168093Y-28072230D01*
X8169757Y-28079252D01*
X8172023Y-28085477D01*
X8179500Y-28127882D01*
X8179501Y-28199180D01*
X8179501Y-28199181D01*
X8182335Y-28235205D01*
X8227129Y-28389388D01*
X8227132Y-28389395D01*
X8261128Y-28446881D01*
X8278309Y-28514605D01*
X8261128Y-28573119D01*
X8227132Y-28630604D01*
X8227129Y-28630611D01*
X8182335Y-28784791D01*
X8182334Y-28784797D01*
X8179500Y-28820817D01*
X8179501Y-29219181D01*
X8182335Y-29255205D01*
X8227129Y-29409388D01*
X8227131Y-29409393D01*
X8308863Y-29547595D01*
X8308869Y-29547603D01*
X8422396Y-29661130D01*
X8422400Y-29661133D01*
X8422402Y-29661135D01*
X8560607Y-29742869D01*
X8589565Y-29751282D01*
X8714791Y-29787664D01*
X8714794Y-29787664D01*
X8714796Y-29787665D01*
X8726803Y-29788610D01*
X8750817Y-29790500D01*
X8750818Y-29790499D01*
X8750819Y-29790500D01*
X9083059Y-29790499D01*
X9249181Y-29790499D01*
X9252015Y-29790275D01*
X9285204Y-29787665D01*
X9313348Y-29779487D01*
X9327338Y-29775424D01*
X9360103Y-29770760D01*
X9360101Y-29770710D01*
X9360704Y-29770674D01*
X9361933Y-29770500D01*
X9363703Y-29770500D01*
X9363708Y-29770500D01*
X9375326Y-29769141D01*
X9396275Y-29766693D01*
X9409027Y-29765577D01*
X9472796Y-29759999D01*
X9472804Y-29759996D01*
X9479865Y-29758539D01*
X9479877Y-29758598D01*
X9487242Y-29756965D01*
X9487228Y-29756906D01*
X9494245Y-29755241D01*
X9494254Y-29755241D01*
X9566422Y-29728974D01*
X9639333Y-29704814D01*
X9639342Y-29704807D01*
X9645881Y-29701760D01*
X9645907Y-29701816D01*
X9652689Y-29698532D01*
X9652662Y-29698478D01*
X9659105Y-29695240D01*
X9659116Y-29695237D01*
X9723282Y-29653034D01*
X9788655Y-29612712D01*
X9788661Y-29612705D01*
X9794324Y-29608229D01*
X9794361Y-29608277D01*
X9800203Y-29603518D01*
X9800163Y-29603471D01*
X9805690Y-29598832D01*
X9805695Y-29598830D01*
X9815697Y-29588229D01*
X9858385Y-29542981D01*
X13676365Y-25725000D01*
X16390000Y-25725000D01*
X16390000Y-26365644D01*
X16392899Y-26402489D01*
X16392900Y-26402495D01*
X16438716Y-26560193D01*
X16438717Y-26560196D01*
X16522314Y-26701552D01*
X16522321Y-26701561D01*
X16638438Y-26817678D01*
X16638447Y-26817685D01*
X16779801Y-26901281D01*
X16937514Y-26947100D01*
X16937511Y-26947100D01*
X16939998Y-26947295D01*
X16940000Y-26947295D01*
X16940000Y-25725000D01*
X16390000Y-25725000D01*
X13676365Y-25725000D01*
X15481590Y-23919775D01*
X15540967Y-23860398D01*
X15564548Y-23836817D01*
X15625871Y-23803334D01*
X15652228Y-23800500D01*
X16762904Y-23800500D01*
X16829943Y-23820185D01*
X16875698Y-23872989D01*
X16885642Y-23942147D01*
X16856617Y-24005703D01*
X16797839Y-24043477D01*
X16797499Y-24043577D01*
X16779801Y-24048718D01*
X16638447Y-24132314D01*
X16638438Y-24132321D01*
X16522321Y-24248438D01*
X16522314Y-24248447D01*
X16438717Y-24389803D01*
X16438716Y-24389806D01*
X16392900Y-24547504D01*
X16392899Y-24547510D01*
X16390000Y-24584356D01*
X16390000Y-25225000D01*
X17316000Y-25225000D01*
X17383039Y-25244685D01*
X17428794Y-25297489D01*
X17440000Y-25349000D01*
X17440000Y-26947295D01*
X17440001Y-26947295D01*
X17442488Y-26947100D01*
X17442494Y-26947099D01*
X17550905Y-26915603D01*
X17620775Y-26915802D01*
X17679445Y-26953744D01*
X17708288Y-27017383D01*
X17709500Y-27034679D01*
X17709500Y-27260404D01*
X17689815Y-27327443D01*
X17673181Y-27348085D01*
X17558869Y-27462396D01*
X17558863Y-27462404D01*
X17477131Y-27600606D01*
X17477129Y-27600611D01*
X17432335Y-27754791D01*
X17432334Y-27754797D01*
X17429500Y-27790817D01*
X17429501Y-28189181D01*
X17432335Y-28225205D01*
X17477129Y-28379388D01*
X17477132Y-28379395D01*
X17511128Y-28436881D01*
X17528309Y-28504605D01*
X17511128Y-28563119D01*
X17477132Y-28620604D01*
X17477129Y-28620611D01*
X17432335Y-28774791D01*
X17432334Y-28774797D01*
X17429500Y-28810817D01*
X17429501Y-29209181D01*
X17432335Y-29245205D01*
X17477129Y-29399388D01*
X17477131Y-29399393D01*
X17558863Y-29537595D01*
X17558869Y-29537603D01*
X17672396Y-29651130D01*
X17672400Y-29651133D01*
X17672402Y-29651135D01*
X17810607Y-29732869D01*
X17835149Y-29739999D01*
X17964791Y-29777664D01*
X17964794Y-29777664D01*
X17964796Y-29777665D01*
X17976803Y-29778610D01*
X18000817Y-29780500D01*
X18000818Y-29780499D01*
X18000819Y-29780500D01*
X18333059Y-29780499D01*
X18499181Y-29780499D01*
X18502015Y-29780275D01*
X18535204Y-29777665D01*
X18689393Y-29732869D01*
X18827598Y-29651135D01*
X18941135Y-29537598D01*
X19022869Y-29399393D01*
X19064759Y-29255208D01*
X19067664Y-29245208D01*
X19067664Y-29245206D01*
X19067665Y-29245204D01*
X19069713Y-29219180D01*
X19070500Y-29209184D01*
X19070500Y-29170635D01*
X19070499Y-29125450D01*
X19090183Y-29058413D01*
X19106813Y-29037775D01*
X19478787Y-28665802D01*
X19491042Y-28655986D01*
X19490859Y-28655764D01*
X19496866Y-28650792D01*
X19496877Y-28650786D01*
X19534604Y-28610611D01*
X19544227Y-28600364D01*
X19554671Y-28589918D01*
X19565120Y-28579471D01*
X19569379Y-28573978D01*
X19573152Y-28569561D01*
X19605062Y-28535582D01*
X19614713Y-28518024D01*
X19625396Y-28501761D01*
X19637673Y-28485936D01*
X19656185Y-28443153D01*
X19658738Y-28437941D01*
X19681197Y-28397092D01*
X19686180Y-28377680D01*
X19692481Y-28359280D01*
X19700437Y-28340896D01*
X19707729Y-28294852D01*
X19708906Y-28289171D01*
X19720500Y-28244019D01*
X19720500Y-28223983D01*
X19722027Y-28204582D01*
X19725160Y-28184804D01*
X19720775Y-28138415D01*
X19720500Y-28132577D01*
X19720500Y-27074000D01*
X19740185Y-27006961D01*
X19792989Y-26961206D01*
X19844500Y-26950000D01*
X19945644Y-26950000D01*
X19982489Y-26947100D01*
X19982495Y-26947099D01*
X20090905Y-26915603D01*
X20160774Y-26915802D01*
X20219444Y-26953744D01*
X20248288Y-27017382D01*
X20249500Y-27034679D01*
X20249500Y-27518859D01*
X20232235Y-27581976D01*
X20227132Y-27590605D01*
X20227129Y-27590611D01*
X20182335Y-27744791D01*
X20182334Y-27744797D01*
X20179500Y-27780817D01*
X20179501Y-28179181D01*
X20182335Y-28215205D01*
X20227129Y-28369388D01*
X20227132Y-28369395D01*
X20261128Y-28426881D01*
X20278309Y-28494605D01*
X20261128Y-28553119D01*
X20227132Y-28610604D01*
X20227129Y-28610611D01*
X20182335Y-28764791D01*
X20182334Y-28764797D01*
X20179500Y-28800817D01*
X20179501Y-29199181D01*
X20182335Y-29235205D01*
X20227129Y-29389388D01*
X20227131Y-29389393D01*
X20308863Y-29527595D01*
X20308869Y-29527603D01*
X20422396Y-29641130D01*
X20422400Y-29641133D01*
X20422402Y-29641135D01*
X20560607Y-29722869D01*
X20581621Y-29728974D01*
X20714791Y-29767664D01*
X20714794Y-29767664D01*
X20714796Y-29767665D01*
X20726803Y-29768610D01*
X20750817Y-29770500D01*
X20750818Y-29770499D01*
X20750819Y-29770500D01*
X21083059Y-29770499D01*
X21249181Y-29770499D01*
X21252015Y-29770275D01*
X21285204Y-29767665D01*
X21321053Y-29757249D01*
X21327338Y-29755424D01*
X21361933Y-29750500D01*
X21936295Y-29750500D01*
X21954265Y-29751809D01*
X21978023Y-29755289D01*
X22030068Y-29750735D01*
X22035470Y-29750500D01*
X22043704Y-29750500D01*
X22043709Y-29750500D01*
X22055327Y-29749141D01*
X22076276Y-29746693D01*
X22089028Y-29745577D01*
X22152797Y-29739999D01*
X22152805Y-29739996D01*
X22159866Y-29738539D01*
X22159878Y-29738598D01*
X22167243Y-29736965D01*
X22167229Y-29736906D01*
X22174246Y-29735241D01*
X22174255Y-29735241D01*
X22246423Y-29708974D01*
X22319334Y-29684814D01*
X22319343Y-29684807D01*
X22325882Y-29681760D01*
X22325908Y-29681816D01*
X22332690Y-29678532D01*
X22332663Y-29678478D01*
X22339106Y-29675240D01*
X22339117Y-29675237D01*
X22403283Y-29633034D01*
X22468656Y-29592712D01*
X22468662Y-29592705D01*
X22474325Y-29588229D01*
X22474362Y-29588277D01*
X22480204Y-29583518D01*
X22480164Y-29583471D01*
X22485686Y-29578836D01*
X22485696Y-29578830D01*
X22515157Y-29547603D01*
X22538386Y-29522982D01*
X23288319Y-28773048D01*
X23349642Y-28739563D01*
X23419333Y-28744547D01*
X23475267Y-28786419D01*
X23499684Y-28851883D01*
X23500000Y-28860729D01*
X23500000Y-29000000D01*
X24212270Y-29000000D01*
X24279309Y-29019685D01*
X24299951Y-29036319D01*
X24338181Y-29074549D01*
X24371666Y-29135872D01*
X24374500Y-29162229D01*
X24374500Y-29298336D01*
X24374501Y-29298355D01*
X24384650Y-29397707D01*
X24384651Y-29397710D01*
X24437996Y-29558694D01*
X24438001Y-29558705D01*
X24527029Y-29703040D01*
X24527032Y-29703044D01*
X24646955Y-29822967D01*
X24646959Y-29822970D01*
X24791294Y-29911998D01*
X24791297Y-29911999D01*
X24791303Y-29912003D01*
X24952292Y-29965349D01*
X25051655Y-29975500D01*
X25598344Y-29975499D01*
X25598352Y-29975498D01*
X25598355Y-29975498D01*
X25652760Y-29969940D01*
X25697708Y-29965349D01*
X25858697Y-29912003D01*
X26003044Y-29822968D01*
X26012668Y-29813343D01*
X26073987Y-29779856D01*
X26143679Y-29784835D01*
X26188034Y-29813339D01*
X26197267Y-29822572D01*
X26197271Y-29822575D01*
X26341507Y-29911542D01*
X26341518Y-29911547D01*
X26502393Y-29964855D01*
X26601683Y-29974999D01*
X26625000Y-29974998D01*
X26625000Y-29250000D01*
X27125000Y-29250000D01*
X27125000Y-29974999D01*
X27148308Y-29974999D01*
X27148322Y-29974998D01*
X27247607Y-29964855D01*
X27408481Y-29911547D01*
X27408492Y-29911542D01*
X27552728Y-29822575D01*
X27552732Y-29822572D01*
X27672573Y-29702731D01*
X27727933Y-29612978D01*
X27779880Y-29566253D01*
X27848843Y-29555030D01*
X27912925Y-29582873D01*
X27921153Y-29590393D01*
X27998438Y-29667678D01*
X27998447Y-29667685D01*
X28139803Y-29751282D01*
X28139806Y-29751283D01*
X28297504Y-29797099D01*
X28297510Y-29797100D01*
X28334356Y-29800000D01*
X28750000Y-29800000D01*
X28750000Y-29250000D01*
X27125000Y-29250000D01*
X26625000Y-29250000D01*
X26625000Y-29000000D01*
X29250000Y-29000000D01*
X29250000Y-29800000D01*
X29376000Y-29800000D01*
X29443039Y-29819685D01*
X29488794Y-29872489D01*
X29500000Y-29924000D01*
X29500000Y-30000000D01*
X30293742Y-30000000D01*
X30311388Y-30001262D01*
X30314515Y-30001711D01*
X30340865Y-30005500D01*
X30340868Y-30005500D01*
X34768496Y-30005500D01*
X34768497Y-30005500D01*
X34786170Y-30004882D01*
X34793345Y-30004379D01*
X34812288Y-30003051D01*
X34829271Y-30001262D01*
X34838015Y-30000340D01*
X34844513Y-30000000D01*
X40273292Y-30000000D01*
X40340331Y-30019685D01*
X40365442Y-30041028D01*
X40394129Y-30072888D01*
X40394135Y-30072893D01*
X40547265Y-30184148D01*
X40547270Y-30184151D01*
X40720192Y-30261142D01*
X40720197Y-30261144D01*
X40905354Y-30300500D01*
X40905355Y-30300500D01*
X41094644Y-30300500D01*
X41094646Y-30300500D01*
X41279803Y-30261144D01*
X41452730Y-30184151D01*
X41605871Y-30072888D01*
X41634558Y-30041028D01*
X41694045Y-30004379D01*
X41726708Y-30000000D01*
X44500000Y-30000000D01*
X44500000Y-27249510D01*
X44519685Y-27182471D01*
X44572489Y-27136716D01*
X44624000Y-27125510D01*
X44796252Y-27125510D01*
X44863291Y-27145195D01*
X44888400Y-27166536D01*
X44894126Y-27172895D01*
X44894130Y-27172899D01*
X45047265Y-27284158D01*
X45047270Y-27284161D01*
X45220192Y-27361152D01*
X45220197Y-27361154D01*
X45405354Y-27400510D01*
X45405355Y-27400510D01*
X45594644Y-27400510D01*
X45594646Y-27400510D01*
X45779803Y-27361154D01*
X45952730Y-27284161D01*
X46105871Y-27172898D01*
X46232533Y-27032226D01*
X46327179Y-26868294D01*
X46378228Y-26711181D01*
X46417665Y-26653506D01*
X46482024Y-26626308D01*
X46496159Y-26625500D01*
X46568430Y-26625500D01*
X46568432Y-26625500D01*
X46753589Y-26586144D01*
X46926516Y-26509151D01*
X47079657Y-26397888D01*
X47206319Y-26257216D01*
X47300965Y-26093284D01*
X47359460Y-25913256D01*
X47364506Y-25865244D01*
X47391090Y-25800629D01*
X47437391Y-25764925D01*
X47443111Y-25762378D01*
X47591301Y-25696399D01*
X47744442Y-25585136D01*
X47871104Y-25444464D01*
X47965750Y-25280532D01*
X48024245Y-25100504D01*
X48044031Y-24912248D01*
X48024245Y-24723992D01*
X47965750Y-24543964D01*
X47871104Y-24380032D01*
X47744442Y-24239360D01*
X47744441Y-24239359D01*
X47591305Y-24128099D01*
X47591300Y-24128096D01*
X47418378Y-24051105D01*
X47418373Y-24051103D01*
X47390750Y-24045232D01*
X47329268Y-24012039D01*
X47295492Y-23950876D01*
X47293242Y-23910685D01*
X47299999Y-23847841D01*
X47300000Y-23847827D01*
X47300000Y-23250000D01*
X46315686Y-23250000D01*
X46327641Y-23238045D01*
X46334288Y-23225000D01*
X50100001Y-23225000D01*
X50100001Y-23349986D01*
X50110494Y-23452697D01*
X50165641Y-23619119D01*
X50165643Y-23619124D01*
X50257684Y-23768345D01*
X50381654Y-23892315D01*
X50530875Y-23984356D01*
X50530880Y-23984358D01*
X50697302Y-24039505D01*
X50697309Y-24039506D01*
X50800019Y-24049999D01*
X51249999Y-24049999D01*
X51250000Y-24049998D01*
X51250000Y-23225000D01*
X51750000Y-23225000D01*
X51750000Y-24049999D01*
X52199972Y-24049999D01*
X52199986Y-24049998D01*
X52302697Y-24039505D01*
X52469119Y-23984358D01*
X52469124Y-23984356D01*
X52618345Y-23892315D01*
X52742315Y-23768345D01*
X52834356Y-23619124D01*
X52834358Y-23619119D01*
X52889505Y-23452697D01*
X52889506Y-23452690D01*
X52899999Y-23349986D01*
X52900000Y-23349973D01*
X52900000Y-23225000D01*
X51750000Y-23225000D01*
X51250000Y-23225000D01*
X50100001Y-23225000D01*
X46334288Y-23225000D01*
X46385165Y-23125148D01*
X46404986Y-23000000D01*
X46385165Y-22874852D01*
X46327641Y-22761955D01*
X46315686Y-22750000D01*
X47300000Y-22750000D01*
X47300000Y-22152172D01*
X47299999Y-22152158D01*
X47298397Y-22137257D01*
X47310801Y-22068497D01*
X47358411Y-22017359D01*
X47421686Y-22000000D01*
X50147555Y-22000000D01*
X50214594Y-22019685D01*
G37*
%TD.AperFunction*%
%TA.AperFunction,Conductor*%
G36*
X23443039Y-24145185D02*
G01*
X23488794Y-24197989D01*
X23500000Y-24249500D01*
X23500000Y-26387269D01*
X23480315Y-26454308D01*
X23463681Y-26474950D01*
X22032180Y-27906451D01*
X21970857Y-27939936D01*
X21901165Y-27934952D01*
X21845232Y-27893080D01*
X21820815Y-27827616D01*
X21820499Y-27818770D01*
X21820499Y-27780820D01*
X21819238Y-27764791D01*
X21817665Y-27744796D01*
X21772869Y-27590607D01*
X21767765Y-27581976D01*
X21750500Y-27518859D01*
X21750500Y-26582328D01*
X21755424Y-26547733D01*
X21797597Y-26402573D01*
X21797598Y-26402567D01*
X21800500Y-26365696D01*
X21800500Y-24584304D01*
X21797598Y-24547432D01*
X21797597Y-24547426D01*
X21751745Y-24389606D01*
X21751744Y-24389603D01*
X21751744Y-24389602D01*
X21739137Y-24368284D01*
X21706218Y-24312620D01*
X21689035Y-24244896D01*
X21711195Y-24178634D01*
X21765662Y-24134871D01*
X21812950Y-24125500D01*
X23376000Y-24125500D01*
X23443039Y-24145185D01*
G37*
%TD.AperFunction*%
%TA.AperFunction,Conductor*%
G36*
X13546307Y-23519685D02*
G01*
X13592062Y-23572489D01*
X13602006Y-23641647D01*
X13572981Y-23705203D01*
X13566949Y-23711681D01*
X9867181Y-27411449D01*
X9805858Y-27444934D01*
X9736166Y-27439950D01*
X9680233Y-27398078D01*
X9655816Y-27332614D01*
X9655500Y-27323768D01*
X9655500Y-26582328D01*
X9660424Y-26547733D01*
X9702597Y-26402573D01*
X9702598Y-26402567D01*
X9705500Y-26365696D01*
X9705500Y-24584304D01*
X9702598Y-24547432D01*
X9702597Y-24547426D01*
X9656745Y-24389606D01*
X9656744Y-24389603D01*
X9656744Y-24389602D01*
X9573081Y-24248135D01*
X9573079Y-24248133D01*
X9573076Y-24248129D01*
X9456870Y-24131923D01*
X9456862Y-24131917D01*
X9378681Y-24085681D01*
X9315398Y-24048256D01*
X9315397Y-24048255D01*
X9315396Y-24048255D01*
X9315393Y-24048254D01*
X9157573Y-24002402D01*
X9157567Y-24002401D01*
X9120696Y-23999500D01*
X9120694Y-23999500D01*
X8689306Y-23999500D01*
X8689304Y-23999500D01*
X8652432Y-24002401D01*
X8652426Y-24002402D01*
X8494606Y-24048254D01*
X8494603Y-24048255D01*
X8353140Y-24131915D01*
X8346974Y-24136699D01*
X8345174Y-24134379D01*
X8295913Y-24161230D01*
X8226225Y-24156193D01*
X8193992Y-24135461D01*
X8192722Y-24137100D01*
X8186552Y-24132314D01*
X8045196Y-24048717D01*
X8045193Y-24048716D01*
X7887495Y-24002900D01*
X7887489Y-24002899D01*
X7850620Y-23999998D01*
X7785331Y-23975114D01*
X7743861Y-23918883D01*
X7739374Y-23849157D01*
X7772666Y-23788700D01*
X8025049Y-23536319D01*
X8086372Y-23502834D01*
X8112730Y-23500000D01*
X13479268Y-23500000D01*
X13546307Y-23519685D01*
G37*
%TD.AperFunction*%
%TD*%
%TA.AperFunction,Conductor*%
%TO.N,GND*%
G36*
X60942539Y-20185D02*
G01*
X60988294Y-72989D01*
X60999500Y-124500D01*
X60999500Y-21876000D01*
X60979815Y-21943039D01*
X60927011Y-21988794D01*
X60875500Y-22000000D01*
X53624000Y-22000000D01*
X53556961Y-21980315D01*
X53511206Y-21927511D01*
X53500000Y-21876000D01*
X53500000Y-21500000D01*
X47125001Y-21500000D01*
X47057962Y-21480315D01*
X47012207Y-21427511D01*
X47002263Y-21358353D01*
X47023426Y-21304876D01*
X47130134Y-21152482D01*
X47226265Y-20946326D01*
X47226269Y-20946317D01*
X47285139Y-20726610D01*
X47285141Y-20726599D01*
X47304966Y-20500000D01*
X47304966Y-20499997D01*
X47285281Y-20275000D01*
X50100001Y-20275000D01*
X50100001Y-20399986D01*
X50110494Y-20502697D01*
X50165641Y-20669119D01*
X50165643Y-20669124D01*
X50257684Y-20818345D01*
X50381654Y-20942315D01*
X50530875Y-21034356D01*
X50530880Y-21034358D01*
X50697302Y-21089505D01*
X50697309Y-21089506D01*
X50800019Y-21099999D01*
X51249999Y-21099999D01*
X51250000Y-21099998D01*
X51250000Y-20275000D01*
X51750000Y-20275000D01*
X51750000Y-21099999D01*
X52199972Y-21099999D01*
X52199986Y-21099998D01*
X52302697Y-21089505D01*
X52469119Y-21034358D01*
X52469124Y-21034356D01*
X52618345Y-20942315D01*
X52742315Y-20818345D01*
X52834356Y-20669124D01*
X52834358Y-20669119D01*
X52889505Y-20502697D01*
X52889506Y-20502690D01*
X52899999Y-20399986D01*
X52900000Y-20399973D01*
X52900000Y-20275000D01*
X51750000Y-20275000D01*
X51250000Y-20275000D01*
X50100001Y-20275000D01*
X47285281Y-20275000D01*
X47285141Y-20273400D01*
X47285139Y-20273389D01*
X47226269Y-20053682D01*
X47226265Y-20053673D01*
X47130133Y-19847516D01*
X47130131Y-19847512D01*
X47079025Y-19774526D01*
X46397953Y-20455598D01*
X46385165Y-20374852D01*
X46327641Y-20261955D01*
X46238045Y-20172359D01*
X46125148Y-20114835D01*
X46044400Y-20102046D01*
X46725472Y-19420974D01*
X46725471Y-19420973D01*
X46652483Y-19369866D01*
X46652481Y-19369865D01*
X46446326Y-19273734D01*
X46446317Y-19273730D01*
X46355047Y-19249275D01*
X46295386Y-19212910D01*
X46264857Y-19150063D01*
X46273152Y-19080688D01*
X46317637Y-19026810D01*
X46384189Y-19005535D01*
X46387140Y-19005500D01*
X50184477Y-19005500D01*
X50251516Y-19025185D01*
X50297271Y-19077989D01*
X50307215Y-19147147D01*
X50278190Y-19210703D01*
X50272158Y-19217181D01*
X50257684Y-19231654D01*
X50165643Y-19380875D01*
X50165641Y-19380880D01*
X50110494Y-19547302D01*
X50110493Y-19547309D01*
X50100000Y-19650013D01*
X50100000Y-19775000D01*
X52899999Y-19775000D01*
X52899999Y-19650028D01*
X52899998Y-19650013D01*
X52889505Y-19547302D01*
X52834358Y-19380880D01*
X52834356Y-19380875D01*
X52742315Y-19231654D01*
X52727842Y-19217181D01*
X52694357Y-19155858D01*
X52699341Y-19086166D01*
X52741213Y-19030233D01*
X52806677Y-19005816D01*
X52815523Y-19005500D01*
X53462173Y-19005500D01*
X53462177Y-19005500D01*
X53489216Y-19004051D01*
X53489223Y-19004050D01*
X53489227Y-19004050D01*
X53489228Y-19004050D01*
X53529036Y-18999769D01*
X53543575Y-18997413D01*
X53582448Y-18991114D01*
X53717257Y-18940832D01*
X53778580Y-18907347D01*
X53893762Y-18821123D01*
X55173065Y-17541818D01*
X55234388Y-17508334D01*
X55260746Y-17505500D01*
X55794127Y-17505500D01*
X55861166Y-17525185D01*
X55906921Y-17577989D01*
X55916865Y-17647147D01*
X55887840Y-17710703D01*
X55868437Y-17728767D01*
X55773437Y-17799882D01*
X55773436Y-17799883D01*
X56666252Y-18692699D01*
X56656591Y-18696216D01*
X56508156Y-18793843D01*
X56386236Y-18923070D01*
X56314231Y-19047784D01*
X55419883Y-18153436D01*
X55419882Y-18153437D01*
X55313196Y-18295953D01*
X55313191Y-18295961D01*
X55176091Y-18547041D01*
X55076109Y-18815104D01*
X55015300Y-19094637D01*
X54994891Y-19379998D01*
X54994891Y-19380001D01*
X55015300Y-19665362D01*
X55076109Y-19944895D01*
X55176091Y-20212958D01*
X55313191Y-20464038D01*
X55313196Y-20464046D01*
X55419882Y-20606561D01*
X55419883Y-20606562D01*
X56315195Y-19711250D01*
X56337340Y-19762587D01*
X56443433Y-19905094D01*
X56579530Y-20019294D01*
X56669216Y-20064335D01*
X55773436Y-20960115D01*
X55915960Y-21066807D01*
X55915961Y-21066808D01*
X56167042Y-21203908D01*
X56167041Y-21203908D01*
X56435104Y-21303890D01*
X56714637Y-21364699D01*
X56999999Y-21385109D01*
X57000001Y-21385109D01*
X57285362Y-21364699D01*
X57564895Y-21303890D01*
X57832958Y-21203908D01*
X58084047Y-21066803D01*
X58226561Y-20960116D01*
X58226562Y-20960115D01*
X57333748Y-20067300D01*
X57343409Y-20063784D01*
X57491844Y-19966157D01*
X57613764Y-19836930D01*
X57685768Y-19712215D01*
X58580115Y-20606562D01*
X58580116Y-20606561D01*
X58686803Y-20464047D01*
X58823908Y-20212958D01*
X58923890Y-19944895D01*
X58984699Y-19665362D01*
X59005109Y-19380001D01*
X59005109Y-19379998D01*
X58984699Y-19094637D01*
X58923890Y-18815104D01*
X58823908Y-18547041D01*
X58686808Y-18295961D01*
X58686807Y-18295960D01*
X58580115Y-18153436D01*
X57684803Y-19048747D01*
X57662660Y-18997413D01*
X57556567Y-18854906D01*
X57420470Y-18740706D01*
X57330782Y-18695663D01*
X58226562Y-17799883D01*
X58085130Y-17694008D01*
X58043259Y-17638074D01*
X58038275Y-17568383D01*
X58071760Y-17507060D01*
X58116104Y-17478560D01*
X58217257Y-17440832D01*
X58278580Y-17407347D01*
X58393761Y-17321123D01*
X59330697Y-16384188D01*
X59330697Y-16384187D01*
X59330704Y-16384181D01*
X59330704Y-16384180D01*
X59348791Y-16364044D01*
X59348791Y-16364045D01*
X59373920Y-16332861D01*
X59378362Y-16326699D01*
X59405567Y-16288974D01*
X59465338Y-16158097D01*
X59480340Y-16107004D01*
X59485021Y-16091066D01*
X59485021Y-16091063D01*
X59485023Y-16091058D01*
X59485024Y-16091054D01*
X59494896Y-16022384D01*
X59500000Y-16003788D01*
X59500000Y-15995760D01*
X59501262Y-15978113D01*
X59501736Y-15974815D01*
X59505500Y-15948638D01*
X59505500Y-13331939D01*
X59503066Y-13308869D01*
X59500342Y-13283051D01*
X59500000Y-13276541D01*
X59500000Y-12305182D01*
X59501262Y-12287535D01*
X59502104Y-12281680D01*
X59505500Y-12258060D01*
X59505500Y-11624000D01*
X59500355Y-11576145D01*
X59500000Y-11569513D01*
X59500000Y-11000000D01*
X58923123Y-11000000D01*
X58905477Y-10998738D01*
X58876001Y-10994500D01*
X58876000Y-10994500D01*
X58839919Y-10994500D01*
X58772880Y-10974815D01*
X58727125Y-10922011D01*
X58717181Y-10852853D01*
X58727537Y-10818095D01*
X58737172Y-10797432D01*
X58773903Y-10718663D01*
X58835063Y-10490408D01*
X58855659Y-10255000D01*
X58835063Y-10019592D01*
X58773903Y-9791337D01*
X58674035Y-9577171D01*
X58672599Y-9575119D01*
X58538494Y-9383597D01*
X58371402Y-9216506D01*
X58371396Y-9216501D01*
X58185842Y-9086575D01*
X58142217Y-9031998D01*
X58135023Y-8962500D01*
X58166546Y-8900145D01*
X58185842Y-8883425D01*
X58233021Y-8850390D01*
X58371401Y-8753495D01*
X58538495Y-8586401D01*
X58674035Y-8392830D01*
X58773903Y-8178663D01*
X58835063Y-7950408D01*
X58855659Y-7715000D01*
X58835063Y-7479592D01*
X58778899Y-7269981D01*
X58773905Y-7251344D01*
X58773904Y-7251343D01*
X58773903Y-7251337D01*
X58674035Y-7037171D01*
X58670565Y-7032216D01*
X58538496Y-6843600D01*
X58477357Y-6782461D01*
X58416179Y-6721283D01*
X58382696Y-6659963D01*
X58387680Y-6590271D01*
X58429551Y-6534337D01*
X58460529Y-6517422D01*
X58592086Y-6468354D01*
X58592093Y-6468350D01*
X58707187Y-6382190D01*
X58707190Y-6382187D01*
X58793350Y-6267093D01*
X58793354Y-6267086D01*
X58843596Y-6132379D01*
X58843598Y-6132372D01*
X58849999Y-6072844D01*
X58850000Y-6072827D01*
X58850000Y-5425000D01*
X57933686Y-5425000D01*
X57959493Y-5384844D01*
X58000000Y-5246889D01*
X58000000Y-5103111D01*
X57959493Y-4965156D01*
X57933686Y-4925000D01*
X58850000Y-4925000D01*
X58850000Y-4277172D01*
X58849999Y-4277155D01*
X58843598Y-4217627D01*
X58843596Y-4217620D01*
X58793354Y-4082913D01*
X58793350Y-4082906D01*
X58707190Y-3967812D01*
X58707187Y-3967809D01*
X58592093Y-3881649D01*
X58592086Y-3881645D01*
X58457379Y-3831403D01*
X58457372Y-3831401D01*
X58397844Y-3825000D01*
X57750000Y-3825000D01*
X57750000Y-4739498D01*
X57642315Y-4690320D01*
X57535763Y-4675000D01*
X57464237Y-4675000D01*
X57357685Y-4690320D01*
X57250000Y-4739498D01*
X57250000Y-3825000D01*
X56602155Y-3825000D01*
X56542627Y-3831401D01*
X56542620Y-3831403D01*
X56407913Y-3881645D01*
X56407906Y-3881649D01*
X56292812Y-3967809D01*
X56292809Y-3967812D01*
X56206649Y-4082906D01*
X56206645Y-4082913D01*
X56156403Y-4217620D01*
X56156401Y-4217627D01*
X56150000Y-4277155D01*
X56150000Y-4925000D01*
X57066314Y-4925000D01*
X57040507Y-4965156D01*
X57000000Y-5103111D01*
X57000000Y-5246889D01*
X57040507Y-5384844D01*
X57066314Y-5425000D01*
X56150000Y-5425000D01*
X56150000Y-5870500D01*
X56130315Y-5937539D01*
X56077511Y-5983294D01*
X56026000Y-5994500D01*
X55848999Y-5994500D01*
X55848990Y-5994500D01*
X55848989Y-5994501D01*
X55801154Y-5999644D01*
X55794522Y-6000000D01*
X55585023Y-6000000D01*
X55517984Y-5980315D01*
X55472229Y-5927511D01*
X55462285Y-5858353D01*
X55491310Y-5794797D01*
X55497342Y-5788319D01*
X55567315Y-5718345D01*
X55659356Y-5569124D01*
X55659358Y-5569119D01*
X55714505Y-5402697D01*
X55714506Y-5402690D01*
X55724999Y-5299986D01*
X55725000Y-5299973D01*
X55725000Y-5250000D01*
X53275001Y-5250000D01*
X53275001Y-5299986D01*
X53285494Y-5402697D01*
X53340641Y-5569119D01*
X53340643Y-5569124D01*
X53432684Y-5718345D01*
X53520336Y-5805997D01*
X53553821Y-5867320D01*
X53548837Y-5937012D01*
X53515896Y-5981014D01*
X53517441Y-5982559D01*
X53129123Y-6370875D01*
X53067800Y-6404360D01*
X53050289Y-6406878D01*
X53017195Y-6409245D01*
X52882384Y-6459525D01*
X52882383Y-6459526D01*
X52824347Y-6491214D01*
X52823797Y-6491473D01*
X52821064Y-6493007D01*
X52705881Y-6579233D01*
X52705869Y-6579243D01*
X52326934Y-6958181D01*
X52265611Y-6991666D01*
X52239253Y-6994500D01*
X52124000Y-6994500D01*
X52123991Y-6994500D01*
X52123990Y-6994501D01*
X52076155Y-6999644D01*
X52069523Y-7000000D01*
X51962074Y-7000000D01*
X51895035Y-6980315D01*
X51849280Y-6927511D01*
X51839336Y-6858353D01*
X51855342Y-6812879D01*
X51901281Y-6735198D01*
X51947100Y-6577486D01*
X51947295Y-6575001D01*
X51947295Y-6575000D01*
X49202705Y-6575000D01*
X49202704Y-6575001D01*
X49202899Y-6577486D01*
X49248718Y-6735198D01*
X49332314Y-6876552D01*
X49337100Y-6882722D01*
X49334640Y-6884629D01*
X49361210Y-6933288D01*
X49356226Y-7002980D01*
X49335159Y-7035771D01*
X49336702Y-7036968D01*
X49331920Y-7043132D01*
X49297151Y-7101922D01*
X49272803Y-7128693D01*
X49274096Y-7130070D01*
X49268412Y-7135407D01*
X49238707Y-7171312D01*
X49234775Y-7175633D01*
X48991211Y-7419198D01*
X48978948Y-7429023D01*
X48979131Y-7429245D01*
X48973120Y-7434216D01*
X48925771Y-7484638D01*
X48904889Y-7505520D01*
X48904877Y-7505533D01*
X48900621Y-7511018D01*
X48896837Y-7515448D01*
X48864937Y-7549419D01*
X48864936Y-7549421D01*
X48855284Y-7566977D01*
X48844610Y-7583227D01*
X48832329Y-7599062D01*
X48832324Y-7599069D01*
X48813815Y-7641839D01*
X48811245Y-7647085D01*
X48788803Y-7687907D01*
X48783822Y-7707308D01*
X48777521Y-7725711D01*
X48769562Y-7744103D01*
X48769561Y-7744106D01*
X48762271Y-7790128D01*
X48761087Y-7795847D01*
X48749501Y-7840973D01*
X48749500Y-7840983D01*
X48749500Y-7861017D01*
X48747973Y-7880416D01*
X48746652Y-7888759D01*
X48744840Y-7900197D01*
X48746639Y-7919232D01*
X48749225Y-7946584D01*
X48749500Y-7952422D01*
X48749500Y-9292255D01*
X48747775Y-9307872D01*
X48748061Y-9307899D01*
X48747326Y-9315665D01*
X48749500Y-9384814D01*
X48749500Y-9414343D01*
X48749501Y-9414360D01*
X48750368Y-9421231D01*
X48750826Y-9427050D01*
X48752290Y-9473624D01*
X48752291Y-9473627D01*
X48757880Y-9492867D01*
X48761824Y-9511911D01*
X48764336Y-9531792D01*
X48770161Y-9546504D01*
X48781490Y-9575119D01*
X48783382Y-9580647D01*
X48792835Y-9613184D01*
X48796382Y-9625390D01*
X48800293Y-9632004D01*
X48806580Y-9642634D01*
X48815138Y-9660103D01*
X48822514Y-9678732D01*
X48849898Y-9716423D01*
X48853106Y-9721307D01*
X48876827Y-9761416D01*
X48876833Y-9761424D01*
X48890990Y-9775580D01*
X48903628Y-9790376D01*
X48915406Y-9806587D01*
X48915409Y-9806590D01*
X48951307Y-9836287D01*
X48955618Y-9840209D01*
X48992330Y-9876921D01*
X49009198Y-9893789D01*
X49019022Y-9906050D01*
X49019243Y-9905868D01*
X49024213Y-9911876D01*
X49074637Y-9959228D01*
X49095523Y-9980115D01*
X49095527Y-9980118D01*
X49095529Y-9980120D01*
X49101011Y-9984373D01*
X49105443Y-9988157D01*
X49139418Y-10020062D01*
X49139422Y-10020064D01*
X49145730Y-10024647D01*
X49144187Y-10026769D01*
X49184491Y-10067290D01*
X49199500Y-10126425D01*
X49199500Y-10350696D01*
X49202401Y-10387567D01*
X49202402Y-10387573D01*
X49248254Y-10545393D01*
X49248255Y-10545396D01*
X49331917Y-10686862D01*
X49336702Y-10693031D01*
X49334256Y-10694927D01*
X49360857Y-10743642D01*
X49355873Y-10813334D01*
X49335069Y-10845703D01*
X49336702Y-10846969D01*
X49331917Y-10853137D01*
X49248255Y-10994603D01*
X49248254Y-10994606D01*
X49202402Y-11152426D01*
X49202401Y-11152432D01*
X49199500Y-11189304D01*
X49199500Y-11620696D01*
X49202401Y-11657567D01*
X49202402Y-11657573D01*
X49248254Y-11815393D01*
X49248255Y-11815396D01*
X49331917Y-11956862D01*
X49336702Y-11963031D01*
X49334256Y-11964927D01*
X49360857Y-12013642D01*
X49355873Y-12083334D01*
X49335069Y-12115703D01*
X49336702Y-12116969D01*
X49331917Y-12123137D01*
X49248255Y-12264603D01*
X49248254Y-12264606D01*
X49202402Y-12422426D01*
X49202401Y-12422432D01*
X49199500Y-12459304D01*
X49199500Y-12890696D01*
X49202401Y-12927567D01*
X49202402Y-12927573D01*
X49248254Y-13085393D01*
X49248255Y-13085396D01*
X49248256Y-13085398D01*
X49285681Y-13148681D01*
X49331917Y-13226862D01*
X49336702Y-13233031D01*
X49334256Y-13234927D01*
X49360857Y-13283642D01*
X49355873Y-13353334D01*
X49335069Y-13385703D01*
X49336702Y-13386969D01*
X49331917Y-13393137D01*
X49248255Y-13534603D01*
X49248254Y-13534606D01*
X49202402Y-13692426D01*
X49202401Y-13692432D01*
X49199500Y-13729304D01*
X49199500Y-13820500D01*
X49179815Y-13887539D01*
X49127011Y-13933294D01*
X49075500Y-13944500D01*
X46924500Y-13944500D01*
X46857461Y-13924815D01*
X46811706Y-13872011D01*
X46800500Y-13820500D01*
X46800500Y-13729304D01*
X46797598Y-13692432D01*
X46797597Y-13692426D01*
X46751745Y-13534606D01*
X46751744Y-13534603D01*
X46751744Y-13534602D01*
X46668081Y-13393135D01*
X46668078Y-13393132D01*
X46663298Y-13386969D01*
X46665750Y-13385066D01*
X46639155Y-13336421D01*
X46644104Y-13266726D01*
X46664940Y-13234304D01*
X46663298Y-13233031D01*
X46668075Y-13226870D01*
X46668081Y-13226865D01*
X46751744Y-13085398D01*
X46797598Y-12927569D01*
X46800500Y-12890694D01*
X46800500Y-12635451D01*
X46820185Y-12568412D01*
X46836811Y-12547778D01*
X46850586Y-12534003D01*
X46865373Y-12521373D01*
X46881587Y-12509594D01*
X46911285Y-12473693D01*
X46915217Y-12469372D01*
X46962163Y-12422426D01*
X47008791Y-12375798D01*
X47021050Y-12365979D01*
X47020867Y-12365758D01*
X47026876Y-12360787D01*
X47074227Y-12310363D01*
X47095115Y-12289476D01*
X47095115Y-12289475D01*
X47095120Y-12289471D01*
X47099379Y-12283978D01*
X47103152Y-12279561D01*
X47135062Y-12245582D01*
X47144713Y-12228024D01*
X47155396Y-12211761D01*
X47167673Y-12195936D01*
X47186185Y-12153153D01*
X47188738Y-12147941D01*
X47211197Y-12107092D01*
X47216180Y-12087680D01*
X47222481Y-12069280D01*
X47230437Y-12050896D01*
X47237729Y-12004852D01*
X47238906Y-11999171D01*
X47250500Y-11954019D01*
X47250500Y-11933983D01*
X47252027Y-11914582D01*
X47255160Y-11894804D01*
X47250775Y-11848415D01*
X47250500Y-11842577D01*
X47250500Y-10542743D01*
X47252224Y-10527123D01*
X47251939Y-10527097D01*
X47252671Y-10519341D01*
X47252673Y-10519334D01*
X47250500Y-10450186D01*
X47250500Y-10420651D01*
X47249631Y-10413773D01*
X47249172Y-10407944D01*
X47247709Y-10361373D01*
X47242122Y-10342145D01*
X47238174Y-10323085D01*
X47235664Y-10303209D01*
X47235663Y-10303207D01*
X47235663Y-10303205D01*
X47218512Y-10259888D01*
X47216619Y-10254359D01*
X47203618Y-10209610D01*
X47203616Y-10209607D01*
X47193423Y-10192372D01*
X47184861Y-10174895D01*
X47177487Y-10156271D01*
X47177486Y-10156269D01*
X47150079Y-10118546D01*
X47146888Y-10113687D01*
X47123172Y-10073584D01*
X47123166Y-10073576D01*
X47109007Y-10059418D01*
X47096370Y-10044623D01*
X47084594Y-10028414D01*
X47048690Y-9998711D01*
X47044368Y-9994778D01*
X46800805Y-9751216D01*
X46790980Y-9738952D01*
X46790759Y-9739136D01*
X46785784Y-9733121D01*
X46750550Y-9700035D01*
X46735362Y-9685772D01*
X46730330Y-9680740D01*
X46711280Y-9656182D01*
X46668081Y-9583135D01*
X46663298Y-9576969D01*
X46665750Y-9575066D01*
X46639155Y-9526421D01*
X46644104Y-9456726D01*
X46664940Y-9424304D01*
X46663298Y-9423031D01*
X46668075Y-9416870D01*
X46668081Y-9416865D01*
X46751744Y-9275398D01*
X46790341Y-9142548D01*
X46797597Y-9117573D01*
X46797598Y-9117567D01*
X46800500Y-9080696D01*
X46800500Y-9024500D01*
X46820185Y-8957461D01*
X46872989Y-8911706D01*
X46924500Y-8900500D01*
X47094644Y-8900500D01*
X47094646Y-8900500D01*
X47279803Y-8861144D01*
X47452730Y-8784151D01*
X47605871Y-8672888D01*
X47732533Y-8532216D01*
X47827179Y-8368284D01*
X47885674Y-8188256D01*
X47905460Y-8000000D01*
X47885674Y-7811744D01*
X47827179Y-7631716D01*
X47732533Y-7467784D01*
X47611146Y-7332971D01*
X47580917Y-7269981D01*
X47589542Y-7200646D01*
X47611147Y-7167028D01*
X47732533Y-7032216D01*
X47827179Y-6868284D01*
X47885674Y-6688256D01*
X47905460Y-6500000D01*
X47885674Y-6311744D01*
X47827179Y-6131716D01*
X47762077Y-6018957D01*
X47745605Y-5951058D01*
X47768458Y-5885031D01*
X47819028Y-5843679D01*
X47952730Y-5784151D01*
X48105871Y-5672888D01*
X48157851Y-5615158D01*
X48217336Y-5578510D01*
X48287193Y-5579840D01*
X48342148Y-5615158D01*
X48385804Y-5663642D01*
X48394129Y-5672888D01*
X48547265Y-5784148D01*
X48547270Y-5784151D01*
X48720192Y-5861142D01*
X48720197Y-5861144D01*
X48905354Y-5900500D01*
X48905355Y-5900500D01*
X49087721Y-5900500D01*
X49154760Y-5920185D01*
X49200515Y-5972989D01*
X49210459Y-6042147D01*
X49206797Y-6059095D01*
X49202900Y-6072505D01*
X49202899Y-6072511D01*
X49202704Y-6074998D01*
X49202705Y-6075000D01*
X51947295Y-6075000D01*
X51947295Y-6074998D01*
X51947100Y-6072513D01*
X51901281Y-5914801D01*
X51817685Y-5773447D01*
X51812900Y-5767278D01*
X51815366Y-5765364D01*
X51788802Y-5716776D01*
X51793749Y-5647082D01*
X51814856Y-5614232D01*
X51813301Y-5613026D01*
X51818077Y-5606868D01*
X51818081Y-5606865D01*
X51901744Y-5465398D01*
X51947220Y-5308869D01*
X51947597Y-5307573D01*
X51947598Y-5307567D01*
X51950500Y-5270696D01*
X51950500Y-4839304D01*
X51947598Y-4802432D01*
X51947597Y-4802426D01*
X51932366Y-4750000D01*
X53275000Y-4750000D01*
X54250000Y-4750000D01*
X54250000Y-4000000D01*
X54750000Y-4000000D01*
X54750000Y-4750000D01*
X55724999Y-4750000D01*
X55724999Y-4700028D01*
X55724998Y-4700013D01*
X55714505Y-4597302D01*
X55659358Y-4430880D01*
X55659356Y-4430875D01*
X55567315Y-4281654D01*
X55443345Y-4157684D01*
X55294124Y-4065643D01*
X55294119Y-4065641D01*
X55127697Y-4010494D01*
X55127690Y-4010493D01*
X55024986Y-4000000D01*
X54750000Y-4000000D01*
X54250000Y-4000000D01*
X53975029Y-4000000D01*
X53975012Y-4000001D01*
X53872302Y-4010494D01*
X53705880Y-4065641D01*
X53705875Y-4065643D01*
X53556654Y-4157684D01*
X53432684Y-4281654D01*
X53340643Y-4430875D01*
X53340641Y-4430880D01*
X53285494Y-4597302D01*
X53285493Y-4597309D01*
X53275000Y-4700013D01*
X53275000Y-4750000D01*
X51932366Y-4750000D01*
X51911465Y-4678060D01*
X51901744Y-4644602D01*
X51818081Y-4503135D01*
X51818079Y-4503133D01*
X51818076Y-4503129D01*
X51701870Y-4386923D01*
X51701862Y-4386917D01*
X51596736Y-4324746D01*
X51560398Y-4303256D01*
X51560397Y-4303255D01*
X51560396Y-4303255D01*
X51560393Y-4303254D01*
X51402573Y-4257402D01*
X51402567Y-4257401D01*
X51365696Y-4254500D01*
X51365694Y-4254500D01*
X49784306Y-4254500D01*
X49784304Y-4254500D01*
X49747432Y-4257401D01*
X49636101Y-4289746D01*
X49566232Y-4289546D01*
X49528622Y-4270987D01*
X49452734Y-4215851D01*
X49452729Y-4215848D01*
X49279807Y-4138857D01*
X49279802Y-4138855D01*
X49134001Y-4107865D01*
X49094646Y-4099500D01*
X48905354Y-4099500D01*
X48872897Y-4106398D01*
X48720197Y-4138855D01*
X48720192Y-4138857D01*
X48547270Y-4215848D01*
X48547265Y-4215851D01*
X48394132Y-4327109D01*
X48394129Y-4327111D01*
X48394129Y-4327112D01*
X48342148Y-4384841D01*
X48282663Y-4421489D01*
X48212806Y-4420158D01*
X48157851Y-4384841D01*
X48105871Y-4327112D01*
X48105867Y-4327109D01*
X47952734Y-4215851D01*
X47952729Y-4215848D01*
X47779807Y-4138857D01*
X47779802Y-4138855D01*
X47634001Y-4107865D01*
X47594646Y-4099500D01*
X47405354Y-4099500D01*
X47372897Y-4106398D01*
X47220197Y-4138855D01*
X47220192Y-4138857D01*
X47047270Y-4215848D01*
X47047265Y-4215851D01*
X46894130Y-4327110D01*
X46894126Y-4327114D01*
X46888400Y-4333474D01*
X46828913Y-4370121D01*
X46796252Y-4374500D01*
X46564788Y-4374500D01*
X46501667Y-4357232D01*
X46497580Y-4354815D01*
X46410398Y-4303256D01*
X46410397Y-4303255D01*
X46410396Y-4303255D01*
X46410393Y-4303254D01*
X46252573Y-4257402D01*
X46252567Y-4257401D01*
X46215696Y-4254500D01*
X46215694Y-4254500D01*
X44634306Y-4254500D01*
X44634304Y-4254500D01*
X44597432Y-4257401D01*
X44597426Y-4257402D01*
X44439606Y-4303254D01*
X44439603Y-4303255D01*
X44298137Y-4386917D01*
X44298129Y-4386923D01*
X44181923Y-4503129D01*
X44181917Y-4503137D01*
X44098255Y-4644603D01*
X44098254Y-4644606D01*
X44052402Y-4802426D01*
X44052401Y-4802432D01*
X44049500Y-4839304D01*
X44049500Y-5270696D01*
X44052401Y-5307567D01*
X44052402Y-5307573D01*
X44098254Y-5465393D01*
X44098255Y-5465396D01*
X44181917Y-5606862D01*
X44186702Y-5613031D01*
X44184256Y-5614927D01*
X44210857Y-5663642D01*
X44205873Y-5733334D01*
X44185069Y-5765703D01*
X44186702Y-5766969D01*
X44181917Y-5773137D01*
X44098255Y-5914603D01*
X44098254Y-5914606D01*
X44052402Y-6072426D01*
X44052401Y-6072432D01*
X44049500Y-6109304D01*
X44049500Y-6540696D01*
X44052401Y-6577567D01*
X44052402Y-6577573D01*
X44098254Y-6735393D01*
X44098255Y-6735396D01*
X44181917Y-6876862D01*
X44186702Y-6883031D01*
X44184256Y-6884927D01*
X44210857Y-6933642D01*
X44205873Y-7003334D01*
X44185069Y-7035703D01*
X44186702Y-7036969D01*
X44181917Y-7043137D01*
X44098255Y-7184603D01*
X44098254Y-7184606D01*
X44052402Y-7342426D01*
X44052401Y-7342432D01*
X44049500Y-7379304D01*
X44049500Y-7752937D01*
X44029815Y-7819976D01*
X43977011Y-7865731D01*
X43907853Y-7875675D01*
X43844297Y-7846650D01*
X43827847Y-7827307D01*
X43827054Y-7827935D01*
X43822572Y-7822267D01*
X43702732Y-7702427D01*
X43702728Y-7702424D01*
X43558492Y-7613457D01*
X43558481Y-7613452D01*
X43397606Y-7560144D01*
X43298322Y-7550000D01*
X43250000Y-7550000D01*
X43250000Y-8525500D01*
X43230315Y-8592539D01*
X43177511Y-8638294D01*
X43126000Y-8649500D01*
X42874000Y-8649500D01*
X42806961Y-8629815D01*
X42761206Y-8577011D01*
X42750000Y-8525500D01*
X42750000Y-7550000D01*
X42749999Y-7549999D01*
X42701693Y-7550000D01*
X42701675Y-7550001D01*
X42602392Y-7560144D01*
X42441518Y-7613452D01*
X42441507Y-7613457D01*
X42297271Y-7702424D01*
X42177424Y-7822270D01*
X42172151Y-7830819D01*
X42120200Y-7877541D01*
X42051236Y-7888759D01*
X41987156Y-7860911D01*
X41978935Y-7853397D01*
X41946038Y-7820500D01*
X41156819Y-7031280D01*
X41123334Y-6969957D01*
X41120500Y-6943599D01*
X41120500Y-3077737D01*
X41122224Y-3062123D01*
X41121938Y-3062096D01*
X41122672Y-3054333D01*
X41120500Y-2985202D01*
X41120500Y-2955651D01*
X41120500Y-2955650D01*
X41119629Y-2948759D01*
X41119172Y-2942945D01*
X41117709Y-2896374D01*
X41117709Y-2896372D01*
X41112120Y-2877137D01*
X41108174Y-2858084D01*
X41105664Y-2838208D01*
X41088501Y-2794859D01*
X41086614Y-2789346D01*
X41085088Y-2784095D01*
X41073617Y-2744610D01*
X41063421Y-2727369D01*
X41054860Y-2709893D01*
X41053308Y-2705975D01*
X41047486Y-2691268D01*
X41047486Y-2691267D01*
X41036030Y-2675500D01*
X41020083Y-2653550D01*
X41016900Y-2648705D01*
X40993170Y-2608579D01*
X40993165Y-2608573D01*
X40979005Y-2594413D01*
X40966370Y-2579620D01*
X40954593Y-2563412D01*
X40918693Y-2533713D01*
X40914381Y-2529790D01*
X40000803Y-1616212D01*
X39990980Y-1603950D01*
X39990759Y-1604134D01*
X39985786Y-1598123D01*
X39935364Y-1550773D01*
X39924919Y-1540328D01*
X39914475Y-1529883D01*
X39908986Y-1525625D01*
X39904561Y-1521847D01*
X39870582Y-1489938D01*
X39870580Y-1489936D01*
X39870577Y-1489935D01*
X39853029Y-1480288D01*
X39836763Y-1469604D01*
X39820933Y-1457325D01*
X39778168Y-1438818D01*
X39772922Y-1436248D01*
X39732093Y-1413803D01*
X39732092Y-1413802D01*
X39712693Y-1408822D01*
X39694281Y-1402518D01*
X39675898Y-1394562D01*
X39675892Y-1394560D01*
X39629874Y-1387272D01*
X39624152Y-1386087D01*
X39579021Y-1374500D01*
X39579019Y-1374500D01*
X39558984Y-1374500D01*
X39539586Y-1372973D01*
X39532162Y-1371797D01*
X39519805Y-1369840D01*
X39519804Y-1369840D01*
X39473416Y-1374225D01*
X39467578Y-1374500D01*
X32664596Y-1374500D01*
X32597557Y-1354815D01*
X32576915Y-1338181D01*
X32547603Y-1308869D01*
X32547595Y-1308863D01*
X32409393Y-1227131D01*
X32409388Y-1227129D01*
X32255208Y-1182335D01*
X32255202Y-1182334D01*
X32219183Y-1179500D01*
X32219181Y-1179500D01*
X31953607Y-1179500D01*
X31820819Y-1179501D01*
X31784794Y-1182335D01*
X31630611Y-1227129D01*
X31630604Y-1227132D01*
X31573119Y-1261128D01*
X31505395Y-1278309D01*
X31446881Y-1261128D01*
X31389395Y-1227132D01*
X31389388Y-1227129D01*
X31235208Y-1182335D01*
X31235202Y-1182334D01*
X31199183Y-1179500D01*
X31199181Y-1179500D01*
X30933607Y-1179500D01*
X30800819Y-1179501D01*
X30764794Y-1182335D01*
X30610611Y-1227129D01*
X30610606Y-1227131D01*
X30472404Y-1308863D01*
X30472396Y-1308869D01*
X30393085Y-1388181D01*
X30331762Y-1421666D01*
X30305404Y-1424500D01*
X28208309Y-1424500D01*
X28141270Y-1404815D01*
X28120628Y-1388181D01*
X28114370Y-1381923D01*
X28114362Y-1381917D01*
X28036181Y-1335681D01*
X27972898Y-1298256D01*
X27972897Y-1298255D01*
X27972896Y-1298255D01*
X27972893Y-1298254D01*
X27815073Y-1252402D01*
X27815067Y-1252401D01*
X27778196Y-1249500D01*
X27778194Y-1249500D01*
X26471806Y-1249500D01*
X26471804Y-1249500D01*
X26434932Y-1252401D01*
X26434926Y-1252402D01*
X26277106Y-1298254D01*
X26277103Y-1298255D01*
X26135637Y-1381917D01*
X26135629Y-1381923D01*
X26019423Y-1498129D01*
X26019417Y-1498137D01*
X25935755Y-1639603D01*
X25935754Y-1639606D01*
X25889902Y-1797426D01*
X25889901Y-1797432D01*
X25887000Y-1834304D01*
X25887000Y-2250500D01*
X25867315Y-2317539D01*
X25814511Y-2363294D01*
X25763000Y-2374500D01*
X25129500Y-2374500D01*
X25062461Y-2354815D01*
X25016706Y-2302011D01*
X25005500Y-2250500D01*
X25005500Y-124500D01*
X25025185Y-57461D01*
X25077989Y-11706D01*
X25129500Y-500D01*
X60875500Y-500D01*
X60942539Y-20185D01*
G37*
%TD.AperFunction*%
%TA.AperFunction,Conductor*%
G36*
X45679899Y-19025185D02*
G01*
X45725654Y-19077989D01*
X45735598Y-19147147D01*
X45706573Y-19210703D01*
X45647795Y-19248477D01*
X45644953Y-19249275D01*
X45553682Y-19273730D01*
X45553673Y-19273734D01*
X45347513Y-19369868D01*
X45274527Y-19420972D01*
X45274526Y-19420973D01*
X45955600Y-20102046D01*
X45874852Y-20114835D01*
X45761955Y-20172359D01*
X45672359Y-20261955D01*
X45614835Y-20374852D01*
X45602046Y-20455600D01*
X44920973Y-19774527D01*
X44869868Y-19847513D01*
X44773734Y-20053673D01*
X44773730Y-20053682D01*
X44714860Y-20273389D01*
X44714858Y-20273400D01*
X44695034Y-20499997D01*
X44695034Y-20500000D01*
X44714858Y-20726599D01*
X44714860Y-20726610D01*
X44773730Y-20946317D01*
X44773734Y-20946326D01*
X44869865Y-21152482D01*
X44976574Y-21304876D01*
X44998901Y-21371082D01*
X44981891Y-21438850D01*
X44930943Y-21486663D01*
X44874999Y-21500000D01*
X43486500Y-21500000D01*
X43419461Y-21480315D01*
X43373706Y-21427511D01*
X43362500Y-21376000D01*
X43362500Y-21334356D01*
X43359600Y-21297510D01*
X43359599Y-21297504D01*
X43313783Y-21139806D01*
X43313782Y-21139803D01*
X43230185Y-20998447D01*
X43230178Y-20998438D01*
X43114061Y-20882321D01*
X43114052Y-20882314D01*
X42972696Y-20798717D01*
X42972693Y-20798716D01*
X42814995Y-20752900D01*
X42814989Y-20752899D01*
X42778144Y-20750000D01*
X42375000Y-20750000D01*
X42375000Y-21676000D01*
X42355315Y-21743039D01*
X42302511Y-21788794D01*
X42251000Y-21800000D01*
X39874000Y-21800000D01*
X39806961Y-21780315D01*
X39761206Y-21727511D01*
X39750000Y-21676000D01*
X39750000Y-20550000D01*
X40250000Y-20550000D01*
X40250000Y-21300000D01*
X41875000Y-21300000D01*
X41875000Y-20750000D01*
X41471856Y-20750000D01*
X41435010Y-20752899D01*
X41435004Y-20752900D01*
X41277306Y-20798716D01*
X41277301Y-20798718D01*
X41207441Y-20840032D01*
X41139717Y-20857213D01*
X41073455Y-20835053D01*
X41056641Y-20820980D01*
X40943345Y-20707684D01*
X40794124Y-20615643D01*
X40794119Y-20615641D01*
X40627697Y-20560494D01*
X40627690Y-20560493D01*
X40524986Y-20550000D01*
X40250000Y-20550000D01*
X39750000Y-20550000D01*
X39475029Y-20550000D01*
X39475012Y-20550001D01*
X39372302Y-20560494D01*
X39205880Y-20615641D01*
X39205875Y-20615643D01*
X39056654Y-20707684D01*
X38932683Y-20831655D01*
X38932680Y-20831659D01*
X38867698Y-20937011D01*
X38815750Y-20983736D01*
X38746787Y-20994957D01*
X38682705Y-20967114D01*
X38674485Y-20959601D01*
X38384188Y-20669303D01*
X38384187Y-20669302D01*
X38384181Y-20669296D01*
X38384180Y-20669296D01*
X38364044Y-20651209D01*
X38364045Y-20651209D01*
X38332861Y-20626080D01*
X38288974Y-20594433D01*
X38158100Y-20534663D01*
X38091063Y-20514978D01*
X38091058Y-20514976D01*
X38022382Y-20505102D01*
X38003785Y-20500000D01*
X38000000Y-20500000D01*
X37995761Y-20500000D01*
X37978115Y-20498738D01*
X37948639Y-20494500D01*
X37948638Y-20494500D01*
X37471207Y-20494500D01*
X37470853Y-20494500D01*
X37403814Y-20474815D01*
X37358059Y-20422011D01*
X37347235Y-20360774D01*
X37347295Y-20360000D01*
X35974000Y-20360000D01*
X35906961Y-20340315D01*
X35861206Y-20287511D01*
X35850000Y-20236000D01*
X35850000Y-19984000D01*
X35869685Y-19916961D01*
X35922489Y-19871206D01*
X35974000Y-19860000D01*
X37347295Y-19860000D01*
X37347295Y-19859998D01*
X37347100Y-19857513D01*
X37301281Y-19699801D01*
X37217685Y-19558447D01*
X37217678Y-19558438D01*
X37101561Y-19442321D01*
X37101552Y-19442314D01*
X36960196Y-19358717D01*
X36960193Y-19358716D01*
X36802495Y-19312900D01*
X36802489Y-19312899D01*
X36765644Y-19310000D01*
X36204246Y-19310000D01*
X36137207Y-19290315D01*
X36091452Y-19237511D01*
X36081508Y-19168353D01*
X36110533Y-19104797D01*
X36116565Y-19098319D01*
X36173065Y-19041819D01*
X36234388Y-19008334D01*
X36260746Y-19005500D01*
X45612860Y-19005500D01*
X45679899Y-19025185D01*
G37*
%TD.AperFunction*%
%TA.AperFunction,Conductor*%
G36*
X32814137Y-16645185D02*
G01*
X32838153Y-16665328D01*
X32870204Y-16700000D01*
X34231000Y-16700000D01*
X34298039Y-16719685D01*
X34343794Y-16772489D01*
X34355000Y-16824000D01*
X34355000Y-17076000D01*
X34335315Y-17143039D01*
X34282511Y-17188794D01*
X34231000Y-17200000D01*
X32870205Y-17200000D01*
X32870204Y-17200001D01*
X32870399Y-17202486D01*
X32916218Y-17360198D01*
X32999814Y-17501552D01*
X32999821Y-17501561D01*
X33115938Y-17617678D01*
X33115947Y-17617685D01*
X33257303Y-17701282D01*
X33257306Y-17701283D01*
X33415004Y-17747099D01*
X33421245Y-17748239D01*
X33420890Y-17750179D01*
X33477526Y-17771766D01*
X33518997Y-17827997D01*
X33523484Y-17897723D01*
X33489562Y-17958805D01*
X33428001Y-17991851D01*
X33402509Y-17994500D01*
X28124000Y-17994500D01*
X28123991Y-17994500D01*
X28123990Y-17994501D01*
X28076155Y-17999644D01*
X28069523Y-18000000D01*
X27423123Y-18000000D01*
X27405477Y-17998738D01*
X27376001Y-17994500D01*
X27376000Y-17994500D01*
X25129500Y-17994500D01*
X25062461Y-17974815D01*
X25016706Y-17922011D01*
X25005500Y-17870500D01*
X25005500Y-17749500D01*
X25025185Y-17682461D01*
X25077989Y-17636706D01*
X25129500Y-17625500D01*
X30417257Y-17625500D01*
X30432877Y-17627224D01*
X30432904Y-17626939D01*
X30440660Y-17627671D01*
X30440667Y-17627673D01*
X30509814Y-17625500D01*
X30539350Y-17625500D01*
X30546228Y-17624630D01*
X30552041Y-17624172D01*
X30598627Y-17622709D01*
X30617869Y-17617117D01*
X30636912Y-17613174D01*
X30656792Y-17610664D01*
X30700122Y-17593507D01*
X30705646Y-17591617D01*
X30709396Y-17590527D01*
X30750390Y-17578618D01*
X30767629Y-17568422D01*
X30785103Y-17559862D01*
X30803727Y-17552488D01*
X30803727Y-17552487D01*
X30803732Y-17552486D01*
X30841449Y-17525082D01*
X30846305Y-17521892D01*
X30886420Y-17498170D01*
X30900589Y-17483999D01*
X30915379Y-17471368D01*
X30931587Y-17459594D01*
X30961299Y-17423676D01*
X30965212Y-17419376D01*
X31722771Y-16661819D01*
X31784094Y-16628334D01*
X31810452Y-16625500D01*
X32747098Y-16625500D01*
X32814137Y-16645185D01*
G37*
%TD.AperFunction*%
%TA.AperFunction,Conductor*%
G36*
X32821739Y-14645185D02*
G01*
X32867494Y-14697989D01*
X32877438Y-14767147D01*
X32873776Y-14784095D01*
X32869902Y-14797426D01*
X32869901Y-14797432D01*
X32867000Y-14834304D01*
X32867000Y-15250500D01*
X32847315Y-15317539D01*
X32794511Y-15363294D01*
X32743000Y-15374500D01*
X31582743Y-15374500D01*
X31567122Y-15372775D01*
X31567095Y-15373061D01*
X31559333Y-15372326D01*
X31490172Y-15374500D01*
X31460649Y-15374500D01*
X31453778Y-15375367D01*
X31447959Y-15375825D01*
X31401374Y-15377289D01*
X31401368Y-15377290D01*
X31382126Y-15382880D01*
X31363087Y-15386823D01*
X31343217Y-15389334D01*
X31343203Y-15389337D01*
X31299883Y-15406488D01*
X31294358Y-15408380D01*
X31249613Y-15421380D01*
X31249610Y-15421381D01*
X31232366Y-15431579D01*
X31214905Y-15440133D01*
X31196274Y-15447510D01*
X31196262Y-15447517D01*
X31158570Y-15474902D01*
X31153687Y-15478109D01*
X31113580Y-15501829D01*
X31099414Y-15515995D01*
X31084624Y-15528627D01*
X31068414Y-15540404D01*
X31068411Y-15540407D01*
X31038710Y-15576309D01*
X31034777Y-15580631D01*
X30277228Y-16338181D01*
X30215905Y-16371666D01*
X30189547Y-16374500D01*
X28474779Y-16374500D01*
X28407740Y-16354815D01*
X28361985Y-16302011D01*
X28352041Y-16232853D01*
X28355703Y-16215905D01*
X28359599Y-16202494D01*
X28359600Y-16202488D01*
X28359795Y-16200001D01*
X28359795Y-16200000D01*
X25890205Y-16200000D01*
X25890204Y-16200001D01*
X25890399Y-16202488D01*
X25890400Y-16202494D01*
X25894297Y-16215905D01*
X25894098Y-16285774D01*
X25856156Y-16344444D01*
X25792518Y-16373288D01*
X25775221Y-16374500D01*
X25124000Y-16374500D01*
X25056961Y-16354815D01*
X25011206Y-16302011D01*
X25000000Y-16250500D01*
X25000000Y-15749500D01*
X25019685Y-15682461D01*
X25072489Y-15636706D01*
X25124000Y-15625500D01*
X25767098Y-15625500D01*
X25834137Y-15645185D01*
X25858153Y-15665328D01*
X25890204Y-15700000D01*
X28030685Y-15700000D01*
X28093806Y-15717268D01*
X28152102Y-15751744D01*
X28193488Y-15763768D01*
X28309926Y-15797597D01*
X28309929Y-15797597D01*
X28309931Y-15797598D01*
X28322222Y-15798565D01*
X28346804Y-15800500D01*
X28346806Y-15800500D01*
X29653196Y-15800500D01*
X29671631Y-15799049D01*
X29690069Y-15797598D01*
X29690071Y-15797597D01*
X29690073Y-15797597D01*
X29735820Y-15784306D01*
X29847898Y-15751744D01*
X29989365Y-15668081D01*
X30105581Y-15551865D01*
X30189244Y-15410398D01*
X30235098Y-15252569D01*
X30238000Y-15215694D01*
X30238000Y-14799500D01*
X30257685Y-14732461D01*
X30310489Y-14686706D01*
X30362000Y-14675500D01*
X30412042Y-14675500D01*
X30475163Y-14692768D01*
X30489999Y-14701542D01*
X30610607Y-14772869D01*
X30610614Y-14772871D01*
X30764791Y-14817664D01*
X30764794Y-14817664D01*
X30764796Y-14817665D01*
X30776803Y-14818610D01*
X30800817Y-14820500D01*
X30800818Y-14820499D01*
X30800819Y-14820500D01*
X31066393Y-14820499D01*
X31199181Y-14820499D01*
X31206384Y-14819932D01*
X31235204Y-14817665D01*
X31389393Y-14772869D01*
X31446882Y-14738869D01*
X31514602Y-14721688D01*
X31573117Y-14738869D01*
X31630607Y-14772869D01*
X31630610Y-14772869D01*
X31630612Y-14772871D01*
X31784791Y-14817664D01*
X31784794Y-14817664D01*
X31784796Y-14817665D01*
X31796803Y-14818610D01*
X31820817Y-14820500D01*
X31820818Y-14820499D01*
X31820819Y-14820500D01*
X32086393Y-14820499D01*
X32219181Y-14820499D01*
X32222015Y-14820275D01*
X32255204Y-14817665D01*
X32409393Y-14772869D01*
X32547598Y-14691135D01*
X32552027Y-14686706D01*
X32576915Y-14661819D01*
X32638238Y-14628334D01*
X32664596Y-14625500D01*
X32754700Y-14625500D01*
X32821739Y-14645185D01*
G37*
%TD.AperFunction*%
%TA.AperFunction,Conductor*%
G36*
X37475163Y-11692768D02*
G01*
X37610607Y-11772869D01*
X37635383Y-11780067D01*
X37764791Y-11817664D01*
X37764794Y-11817664D01*
X37764796Y-11817665D01*
X37776803Y-11818610D01*
X37800817Y-11820500D01*
X37800818Y-11820499D01*
X37800819Y-11820500D01*
X38066393Y-11820499D01*
X38199181Y-11820499D01*
X38202015Y-11820275D01*
X38235204Y-11817665D01*
X38339697Y-11787307D01*
X38409565Y-11787506D01*
X38468235Y-11825448D01*
X38474609Y-11833498D01*
X38494898Y-11861423D01*
X38498106Y-11866306D01*
X38521828Y-11906417D01*
X38521833Y-11906424D01*
X38535990Y-11920580D01*
X38548627Y-11935375D01*
X38560406Y-11951587D01*
X38576531Y-11964927D01*
X38596309Y-11981288D01*
X38600620Y-11985210D01*
X40714036Y-14098627D01*
X41248228Y-14632819D01*
X41281713Y-14694142D01*
X41276729Y-14763834D01*
X41234857Y-14819767D01*
X41169393Y-14844184D01*
X41160547Y-14844500D01*
X40774732Y-14844500D01*
X40707693Y-14824815D01*
X40687051Y-14808181D01*
X39495083Y-13616212D01*
X39485260Y-13603950D01*
X39485039Y-13604134D01*
X39480066Y-13598123D01*
X39467366Y-13586197D01*
X39429644Y-13550773D01*
X39419199Y-13540328D01*
X39408755Y-13529883D01*
X39405689Y-13527505D01*
X39403264Y-13525624D01*
X39398841Y-13521847D01*
X39364862Y-13489938D01*
X39364860Y-13489936D01*
X39364857Y-13489935D01*
X39347309Y-13480288D01*
X39331043Y-13469604D01*
X39315213Y-13457325D01*
X39272448Y-13438818D01*
X39267202Y-13436248D01*
X39226373Y-13413803D01*
X39226372Y-13413802D01*
X39206973Y-13408822D01*
X39188561Y-13402518D01*
X39170178Y-13394562D01*
X39170172Y-13394560D01*
X39124154Y-13387272D01*
X39118432Y-13386087D01*
X39073301Y-13374500D01*
X39073299Y-13374500D01*
X39053264Y-13374500D01*
X39033866Y-13372973D01*
X39026442Y-13371797D01*
X39014085Y-13369840D01*
X39014084Y-13369840D01*
X38967696Y-13374225D01*
X38961858Y-13374500D01*
X35454779Y-13374500D01*
X35387740Y-13354815D01*
X35341985Y-13302011D01*
X35332041Y-13232853D01*
X35335703Y-13215905D01*
X35339599Y-13202494D01*
X35339600Y-13202488D01*
X35339795Y-13200001D01*
X35339795Y-13200000D01*
X32870205Y-13200000D01*
X32870204Y-13200001D01*
X32870399Y-13202488D01*
X32870400Y-13202494D01*
X32874297Y-13215905D01*
X32874098Y-13285774D01*
X32836156Y-13344444D01*
X32772518Y-13373288D01*
X32755221Y-13374500D01*
X32664596Y-13374500D01*
X32597557Y-13354815D01*
X32576915Y-13338181D01*
X32547603Y-13308869D01*
X32547595Y-13308863D01*
X32409393Y-13227131D01*
X32409388Y-13227129D01*
X32255208Y-13182335D01*
X32255202Y-13182334D01*
X32219183Y-13179500D01*
X32219181Y-13179500D01*
X31953607Y-13179500D01*
X31820819Y-13179501D01*
X31784794Y-13182335D01*
X31630611Y-13227129D01*
X31630604Y-13227132D01*
X31573119Y-13261128D01*
X31505395Y-13278309D01*
X31446881Y-13261128D01*
X31382680Y-13223161D01*
X31384199Y-13220590D01*
X31341242Y-13184831D01*
X31320234Y-13118194D01*
X31338588Y-13050778D01*
X31356524Y-13028065D01*
X31722771Y-12661819D01*
X31784094Y-12628334D01*
X31810452Y-12625500D01*
X32747098Y-12625500D01*
X32814137Y-12645185D01*
X32838153Y-12665328D01*
X32870204Y-12700000D01*
X35010685Y-12700000D01*
X35073806Y-12717268D01*
X35132102Y-12751744D01*
X35173724Y-12763836D01*
X35289926Y-12797597D01*
X35289929Y-12797597D01*
X35289931Y-12797598D01*
X35302222Y-12798565D01*
X35326804Y-12800500D01*
X35326806Y-12800500D01*
X36633196Y-12800500D01*
X36651631Y-12799049D01*
X36670069Y-12797598D01*
X36670071Y-12797597D01*
X36670073Y-12797597D01*
X36711691Y-12785505D01*
X36827898Y-12751744D01*
X36969365Y-12668081D01*
X37085581Y-12551865D01*
X37169244Y-12410398D01*
X37211602Y-12264602D01*
X37215097Y-12252573D01*
X37215098Y-12252567D01*
X37218000Y-12215696D01*
X37218000Y-11799500D01*
X37237685Y-11732461D01*
X37290489Y-11686706D01*
X37342000Y-11675500D01*
X37412042Y-11675500D01*
X37475163Y-11692768D01*
G37*
%TD.AperFunction*%
%TA.AperFunction,Conductor*%
G36*
X32821739Y-10645185D02*
G01*
X32867494Y-10697989D01*
X32877438Y-10767147D01*
X32873776Y-10784095D01*
X32869902Y-10797426D01*
X32869901Y-10797432D01*
X32867000Y-10834304D01*
X32867000Y-11250500D01*
X32847315Y-11317539D01*
X32794511Y-11363294D01*
X32743000Y-11374500D01*
X31582743Y-11374500D01*
X31567122Y-11372775D01*
X31567095Y-11373061D01*
X31559333Y-11372326D01*
X31490172Y-11374500D01*
X31460649Y-11374500D01*
X31453778Y-11375367D01*
X31447959Y-11375825D01*
X31401374Y-11377289D01*
X31401368Y-11377290D01*
X31382126Y-11382880D01*
X31363087Y-11386823D01*
X31343217Y-11389334D01*
X31343203Y-11389337D01*
X31299883Y-11406488D01*
X31294358Y-11408380D01*
X31249613Y-11421380D01*
X31249610Y-11421381D01*
X31232366Y-11431579D01*
X31214905Y-11440133D01*
X31196274Y-11447510D01*
X31196262Y-11447517D01*
X31158570Y-11474902D01*
X31153687Y-11478109D01*
X31113580Y-11501829D01*
X31099414Y-11515995D01*
X31084624Y-11528627D01*
X31068414Y-11540404D01*
X31068411Y-11540407D01*
X31038710Y-11576309D01*
X31034777Y-11580631D01*
X30277228Y-12338181D01*
X30215905Y-12371666D01*
X30189547Y-12374500D01*
X28474779Y-12374500D01*
X28407740Y-12354815D01*
X28361985Y-12302011D01*
X28352041Y-12232853D01*
X28355703Y-12215905D01*
X28359599Y-12202494D01*
X28359600Y-12202488D01*
X28359795Y-12200001D01*
X28359795Y-12200000D01*
X25890205Y-12200000D01*
X25890204Y-12200001D01*
X25890399Y-12202488D01*
X25890400Y-12202494D01*
X25894297Y-12215905D01*
X25894098Y-12285774D01*
X25856156Y-12344444D01*
X25792518Y-12373288D01*
X25775221Y-12374500D01*
X25124000Y-12374500D01*
X25056961Y-12354815D01*
X25011206Y-12302011D01*
X25000000Y-12250500D01*
X25000000Y-11749500D01*
X25019685Y-11682461D01*
X25072489Y-11636706D01*
X25124000Y-11625500D01*
X25767098Y-11625500D01*
X25834137Y-11645185D01*
X25858153Y-11665328D01*
X25890204Y-11700000D01*
X28030685Y-11700000D01*
X28093806Y-11717268D01*
X28152102Y-11751744D01*
X28160597Y-11754212D01*
X28309926Y-11797597D01*
X28309929Y-11797597D01*
X28309931Y-11797598D01*
X28322222Y-11798565D01*
X28346804Y-11800500D01*
X28346806Y-11800500D01*
X29653196Y-11800500D01*
X29671631Y-11799049D01*
X29690069Y-11797598D01*
X29690071Y-11797597D01*
X29690073Y-11797597D01*
X29735820Y-11784306D01*
X29847898Y-11751744D01*
X29989365Y-11668081D01*
X30105581Y-11551865D01*
X30189244Y-11410398D01*
X30235098Y-11252569D01*
X30238000Y-11215694D01*
X30238000Y-10799500D01*
X30257685Y-10732461D01*
X30310489Y-10686706D01*
X30362000Y-10675500D01*
X30412042Y-10675500D01*
X30475163Y-10692768D01*
X30489999Y-10701542D01*
X30610607Y-10772869D01*
X30610614Y-10772871D01*
X30764791Y-10817664D01*
X30764794Y-10817664D01*
X30764796Y-10817665D01*
X30770260Y-10818095D01*
X30800817Y-10820500D01*
X30800818Y-10820499D01*
X30800819Y-10820500D01*
X31066393Y-10820499D01*
X31199181Y-10820499D01*
X31206384Y-10819932D01*
X31235204Y-10817665D01*
X31389393Y-10772869D01*
X31446882Y-10738869D01*
X31514602Y-10721688D01*
X31573117Y-10738869D01*
X31630607Y-10772869D01*
X31630610Y-10772869D01*
X31630612Y-10772871D01*
X31784791Y-10817664D01*
X31784794Y-10817664D01*
X31784796Y-10817665D01*
X31790260Y-10818095D01*
X31820817Y-10820500D01*
X31820818Y-10820499D01*
X31820819Y-10820500D01*
X32086393Y-10820499D01*
X32219181Y-10820499D01*
X32222015Y-10820275D01*
X32255204Y-10817665D01*
X32409393Y-10772869D01*
X32547598Y-10691135D01*
X32560673Y-10678060D01*
X32576915Y-10661819D01*
X32638238Y-10628334D01*
X32664596Y-10625500D01*
X32754700Y-10625500D01*
X32821739Y-10645185D01*
G37*
%TD.AperFunction*%
%TA.AperFunction,Conductor*%
G36*
X37455163Y-7692768D02*
G01*
X37590607Y-7772869D01*
X37629973Y-7784306D01*
X37744791Y-7817664D01*
X37744794Y-7817664D01*
X37744796Y-7817665D01*
X37756803Y-7818610D01*
X37780817Y-7820500D01*
X37780818Y-7820499D01*
X37780819Y-7820500D01*
X38046393Y-7820499D01*
X38179181Y-7820499D01*
X38188186Y-7819790D01*
X38215204Y-7817665D01*
X38215899Y-7817463D01*
X38216305Y-7817464D01*
X38221437Y-7816527D01*
X38221610Y-7817478D01*
X38285767Y-7817658D01*
X38344439Y-7855596D01*
X38373287Y-7919232D01*
X38374500Y-7936537D01*
X38374500Y-8517255D01*
X38372775Y-8532872D01*
X38373061Y-8532899D01*
X38372326Y-8540665D01*
X38374500Y-8609814D01*
X38374500Y-8639343D01*
X38374501Y-8639360D01*
X38375368Y-8646231D01*
X38375826Y-8652050D01*
X38377290Y-8698624D01*
X38377291Y-8698627D01*
X38382880Y-8717867D01*
X38386824Y-8736911D01*
X38389336Y-8756792D01*
X38405492Y-8797598D01*
X38406490Y-8800119D01*
X38408382Y-8805647D01*
X38421382Y-8850390D01*
X38427740Y-8861142D01*
X38431580Y-8867634D01*
X38440138Y-8885103D01*
X38447514Y-8903732D01*
X38474898Y-8941423D01*
X38478106Y-8946307D01*
X38501827Y-8986416D01*
X38501833Y-8986424D01*
X38515990Y-9000580D01*
X38528628Y-9015376D01*
X38540405Y-9031586D01*
X38540406Y-9031587D01*
X38576309Y-9061288D01*
X38580620Y-9065210D01*
X38632977Y-9117567D01*
X38678229Y-9162819D01*
X38711714Y-9224142D01*
X38706730Y-9293834D01*
X38664858Y-9349767D01*
X38599394Y-9374184D01*
X38590548Y-9374500D01*
X35454779Y-9374500D01*
X35387740Y-9354815D01*
X35341985Y-9302011D01*
X35332041Y-9232853D01*
X35335703Y-9215905D01*
X35339599Y-9202494D01*
X35339600Y-9202488D01*
X35339795Y-9200001D01*
X35339795Y-9200000D01*
X32870205Y-9200000D01*
X32870204Y-9200001D01*
X32870399Y-9202488D01*
X32870400Y-9202494D01*
X32874297Y-9215905D01*
X32874098Y-9285774D01*
X32836156Y-9344444D01*
X32772518Y-9373288D01*
X32755221Y-9374500D01*
X32664596Y-9374500D01*
X32597557Y-9354815D01*
X32576915Y-9338181D01*
X32547603Y-9308869D01*
X32547595Y-9308863D01*
X32409393Y-9227131D01*
X32409388Y-9227129D01*
X32255208Y-9182335D01*
X32255202Y-9182334D01*
X32219183Y-9179500D01*
X32219181Y-9179500D01*
X31953607Y-9179500D01*
X31820819Y-9179501D01*
X31784794Y-9182335D01*
X31630611Y-9227129D01*
X31630604Y-9227132D01*
X31573119Y-9261128D01*
X31505395Y-9278309D01*
X31446881Y-9261128D01*
X31382680Y-9223161D01*
X31384199Y-9220590D01*
X31341242Y-9184831D01*
X31320234Y-9118194D01*
X31338588Y-9050778D01*
X31356524Y-9028065D01*
X31722771Y-8661819D01*
X31784094Y-8628334D01*
X31810452Y-8625500D01*
X32747098Y-8625500D01*
X32814137Y-8645185D01*
X32838153Y-8665328D01*
X32870204Y-8700000D01*
X35010685Y-8700000D01*
X35073806Y-8717268D01*
X35132102Y-8751744D01*
X35149474Y-8756791D01*
X35289926Y-8797597D01*
X35289929Y-8797597D01*
X35289931Y-8797598D01*
X35302222Y-8798565D01*
X35326804Y-8800500D01*
X35326806Y-8800500D01*
X36633196Y-8800500D01*
X36651631Y-8799049D01*
X36670069Y-8797598D01*
X36670071Y-8797597D01*
X36670073Y-8797597D01*
X36716364Y-8784148D01*
X36827898Y-8751744D01*
X36969365Y-8668081D01*
X37085581Y-8551865D01*
X37169244Y-8410398D01*
X37204466Y-8289164D01*
X37215097Y-8252573D01*
X37215098Y-8252567D01*
X37218000Y-8215696D01*
X37218000Y-7799500D01*
X37237685Y-7732461D01*
X37290489Y-7686706D01*
X37342000Y-7675500D01*
X37392042Y-7675500D01*
X37455163Y-7692768D01*
G37*
%TD.AperFunction*%
%TA.AperFunction,Conductor*%
G36*
X32821739Y-6645185D02*
G01*
X32867494Y-6697989D01*
X32877438Y-6767147D01*
X32873776Y-6784095D01*
X32869902Y-6797426D01*
X32869901Y-6797432D01*
X32867000Y-6834304D01*
X32867000Y-7250500D01*
X32847315Y-7317539D01*
X32794511Y-7363294D01*
X32743000Y-7374500D01*
X31582743Y-7374500D01*
X31567122Y-7372775D01*
X31567095Y-7373061D01*
X31559333Y-7372326D01*
X31490172Y-7374500D01*
X31460649Y-7374500D01*
X31453778Y-7375367D01*
X31447959Y-7375825D01*
X31401374Y-7377289D01*
X31401368Y-7377290D01*
X31382126Y-7382880D01*
X31363087Y-7386823D01*
X31343217Y-7389334D01*
X31343203Y-7389337D01*
X31299883Y-7406488D01*
X31294358Y-7408380D01*
X31249613Y-7421380D01*
X31249610Y-7421381D01*
X31232366Y-7431579D01*
X31214905Y-7440133D01*
X31196274Y-7447510D01*
X31196262Y-7447517D01*
X31158570Y-7474902D01*
X31153687Y-7478109D01*
X31113580Y-7501829D01*
X31099414Y-7515995D01*
X31084624Y-7528627D01*
X31068414Y-7540404D01*
X31068411Y-7540407D01*
X31038710Y-7576309D01*
X31034777Y-7580631D01*
X30277228Y-8338181D01*
X30215905Y-8371666D01*
X30189547Y-8374500D01*
X28359140Y-8374500D01*
X28292101Y-8354815D01*
X28246346Y-8302011D01*
X28237709Y-8253153D01*
X28234795Y-8250000D01*
X25765205Y-8250000D01*
X25761755Y-8253731D01*
X25750112Y-8309151D01*
X25701059Y-8358907D01*
X25640860Y-8374500D01*
X25124000Y-8374500D01*
X25056961Y-8354815D01*
X25011206Y-8302011D01*
X25000000Y-8250500D01*
X25000000Y-7799500D01*
X25019685Y-7732461D01*
X25072489Y-7686706D01*
X25124000Y-7675500D01*
X25642098Y-7675500D01*
X25709137Y-7695185D01*
X25733153Y-7715328D01*
X25765204Y-7750000D01*
X27905685Y-7750000D01*
X27968806Y-7767268D01*
X28027102Y-7801744D01*
X28057908Y-7810694D01*
X28184926Y-7847597D01*
X28184929Y-7847597D01*
X28184931Y-7847598D01*
X28197222Y-7848565D01*
X28221804Y-7850500D01*
X28221806Y-7850500D01*
X29528196Y-7850500D01*
X29546631Y-7849049D01*
X29565069Y-7847598D01*
X29565071Y-7847597D01*
X29565073Y-7847597D01*
X29622822Y-7830819D01*
X29722898Y-7801744D01*
X29864365Y-7718081D01*
X29980581Y-7601865D01*
X30064244Y-7460398D01*
X30110098Y-7302569D01*
X30113000Y-7265694D01*
X30113000Y-6849500D01*
X30132685Y-6782461D01*
X30185489Y-6736706D01*
X30237000Y-6725500D01*
X30496588Y-6725500D01*
X30559708Y-6742767D01*
X30610607Y-6772869D01*
X30610614Y-6772871D01*
X30764791Y-6817664D01*
X30764794Y-6817664D01*
X30764796Y-6817665D01*
X30776803Y-6818610D01*
X30800817Y-6820500D01*
X30800818Y-6820499D01*
X30800819Y-6820500D01*
X31066393Y-6820499D01*
X31199181Y-6820499D01*
X31206384Y-6819932D01*
X31235204Y-6817665D01*
X31389393Y-6772869D01*
X31446882Y-6738869D01*
X31514602Y-6721688D01*
X31573117Y-6738869D01*
X31630607Y-6772869D01*
X31630610Y-6772869D01*
X31630612Y-6772871D01*
X31784791Y-6817664D01*
X31784794Y-6817664D01*
X31784796Y-6817665D01*
X31796803Y-6818610D01*
X31820817Y-6820500D01*
X31820818Y-6820499D01*
X31820819Y-6820500D01*
X32086393Y-6820499D01*
X32219181Y-6820499D01*
X32222015Y-6820275D01*
X32255204Y-6817665D01*
X32409393Y-6772869D01*
X32547598Y-6691135D01*
X32562228Y-6676505D01*
X32576915Y-6661819D01*
X32638238Y-6628334D01*
X32664596Y-6625500D01*
X32754700Y-6625500D01*
X32821739Y-6645185D01*
G37*
%TD.AperFunction*%
%TA.AperFunction,Conductor*%
G36*
X37475163Y-3692768D02*
G01*
X37610607Y-3772869D01*
X37610614Y-3772871D01*
X37764791Y-3817664D01*
X37764794Y-3817664D01*
X37764796Y-3817665D01*
X37776803Y-3818610D01*
X37800817Y-3820500D01*
X37800818Y-3820499D01*
X37800819Y-3820500D01*
X38066393Y-3820499D01*
X38199181Y-3820499D01*
X38206384Y-3819932D01*
X38235204Y-3817665D01*
X38389393Y-3772869D01*
X38446882Y-3738869D01*
X38514602Y-3721688D01*
X38573117Y-3738869D01*
X38630607Y-3772869D01*
X38630610Y-3772869D01*
X38630612Y-3772871D01*
X38784791Y-3817664D01*
X38784794Y-3817664D01*
X38784796Y-3817665D01*
X38793801Y-3818373D01*
X38820816Y-3820500D01*
X38820818Y-3820499D01*
X38820819Y-3820500D01*
X38904547Y-3820499D01*
X38971585Y-3840183D01*
X38992228Y-3856818D01*
X39383181Y-4247771D01*
X39416666Y-4309094D01*
X39419500Y-4335452D01*
X39419500Y-5307158D01*
X39399815Y-5374197D01*
X39347011Y-5419952D01*
X39277853Y-5429896D01*
X39235769Y-5415824D01*
X39232091Y-5413802D01*
X39232092Y-5413802D01*
X39212693Y-5408822D01*
X39194281Y-5402518D01*
X39175898Y-5394562D01*
X39175892Y-5394560D01*
X39129874Y-5387272D01*
X39124152Y-5386087D01*
X39079021Y-5374500D01*
X39079019Y-5374500D01*
X39058984Y-5374500D01*
X39039586Y-5372973D01*
X39032162Y-5371797D01*
X39019805Y-5369840D01*
X39019804Y-5369840D01*
X38973416Y-5374225D01*
X38967578Y-5374500D01*
X35454779Y-5374500D01*
X35387740Y-5354815D01*
X35341985Y-5302011D01*
X35332041Y-5232853D01*
X35335703Y-5215905D01*
X35339599Y-5202494D01*
X35339600Y-5202488D01*
X35339795Y-5200001D01*
X35339795Y-5200000D01*
X32870205Y-5200000D01*
X32870204Y-5200001D01*
X32870399Y-5202488D01*
X32870400Y-5202494D01*
X32874297Y-5215905D01*
X32874098Y-5285774D01*
X32836156Y-5344444D01*
X32772518Y-5373288D01*
X32755221Y-5374500D01*
X32664596Y-5374500D01*
X32597557Y-5354815D01*
X32576915Y-5338181D01*
X32547603Y-5308869D01*
X32547595Y-5308863D01*
X32409393Y-5227131D01*
X32409388Y-5227129D01*
X32255208Y-5182335D01*
X32255202Y-5182334D01*
X32219183Y-5179500D01*
X32219181Y-5179500D01*
X31953607Y-5179500D01*
X31820819Y-5179501D01*
X31784794Y-5182335D01*
X31630611Y-5227129D01*
X31630604Y-5227132D01*
X31573119Y-5261128D01*
X31505395Y-5278309D01*
X31446881Y-5261128D01*
X31382680Y-5223161D01*
X31384199Y-5220590D01*
X31341242Y-5184831D01*
X31320234Y-5118194D01*
X31338588Y-5050778D01*
X31356524Y-5028065D01*
X31722771Y-4661819D01*
X31784094Y-4628334D01*
X31810452Y-4625500D01*
X32747098Y-4625500D01*
X32814137Y-4645185D01*
X32838153Y-4665328D01*
X32870204Y-4700000D01*
X35010685Y-4700000D01*
X35073806Y-4717268D01*
X35132102Y-4751744D01*
X35149956Y-4756931D01*
X35289926Y-4797597D01*
X35289929Y-4797597D01*
X35289931Y-4797598D01*
X35302222Y-4798565D01*
X35326804Y-4800500D01*
X35326806Y-4800500D01*
X36633196Y-4800500D01*
X36651631Y-4799049D01*
X36670069Y-4797598D01*
X36670071Y-4797597D01*
X36670073Y-4797597D01*
X36711691Y-4785505D01*
X36827898Y-4751744D01*
X36969365Y-4668081D01*
X37085581Y-4551865D01*
X37169244Y-4410398D01*
X37209747Y-4270987D01*
X37215097Y-4252573D01*
X37215098Y-4252567D01*
X37215476Y-4247771D01*
X37217848Y-4217627D01*
X37218000Y-4215696D01*
X37218000Y-3799500D01*
X37237685Y-3732461D01*
X37290489Y-3686706D01*
X37342000Y-3675500D01*
X37412042Y-3675500D01*
X37475163Y-3692768D01*
G37*
%TD.AperFunction*%
%TA.AperFunction,Conductor*%
G36*
X32821739Y-2645185D02*
G01*
X32867494Y-2697989D01*
X32877438Y-2767147D01*
X32873776Y-2784095D01*
X32869902Y-2797426D01*
X32869901Y-2797432D01*
X32867000Y-2834304D01*
X32867000Y-3250500D01*
X32847315Y-3317539D01*
X32794511Y-3363294D01*
X32743000Y-3374500D01*
X31582743Y-3374500D01*
X31567122Y-3372775D01*
X31567095Y-3373061D01*
X31559333Y-3372326D01*
X31490172Y-3374500D01*
X31460649Y-3374500D01*
X31453778Y-3375367D01*
X31447959Y-3375825D01*
X31401374Y-3377289D01*
X31401368Y-3377290D01*
X31382126Y-3382880D01*
X31363087Y-3386823D01*
X31343217Y-3389334D01*
X31343203Y-3389337D01*
X31299883Y-3406488D01*
X31294358Y-3408380D01*
X31249613Y-3421380D01*
X31249610Y-3421381D01*
X31232366Y-3431579D01*
X31214905Y-3440133D01*
X31196274Y-3447510D01*
X31196262Y-3447517D01*
X31158570Y-3474902D01*
X31153687Y-3478109D01*
X31113580Y-3501829D01*
X31099414Y-3515995D01*
X31084624Y-3528627D01*
X31068414Y-3540404D01*
X31068411Y-3540407D01*
X31038710Y-3576309D01*
X31034777Y-3580631D01*
X30277228Y-4338181D01*
X30215905Y-4371666D01*
X30189547Y-4374500D01*
X28474779Y-4374500D01*
X28407740Y-4354815D01*
X28361985Y-4302011D01*
X28352041Y-4232853D01*
X28355703Y-4215905D01*
X28359599Y-4202494D01*
X28359600Y-4202488D01*
X28359795Y-4200001D01*
X28359795Y-4200000D01*
X25890205Y-4200000D01*
X25890204Y-4200001D01*
X25890399Y-4202488D01*
X25890400Y-4202494D01*
X25894297Y-4215905D01*
X25894098Y-4285774D01*
X25856156Y-4344444D01*
X25792518Y-4373288D01*
X25775221Y-4374500D01*
X25124000Y-4374500D01*
X25056961Y-4354815D01*
X25011206Y-4302011D01*
X25000000Y-4250500D01*
X25000000Y-3749500D01*
X25019685Y-3682461D01*
X25072489Y-3636706D01*
X25124000Y-3625500D01*
X25767098Y-3625500D01*
X25834137Y-3645185D01*
X25858153Y-3665328D01*
X25890204Y-3700000D01*
X28030685Y-3700000D01*
X28093806Y-3717268D01*
X28152102Y-3751744D01*
X28159757Y-3753968D01*
X28309926Y-3797597D01*
X28309929Y-3797597D01*
X28309931Y-3797598D01*
X28322222Y-3798565D01*
X28346804Y-3800500D01*
X28346806Y-3800500D01*
X29653196Y-3800500D01*
X29671631Y-3799049D01*
X29690069Y-3797598D01*
X29690071Y-3797597D01*
X29690073Y-3797597D01*
X29735820Y-3784306D01*
X29847898Y-3751744D01*
X29989365Y-3668081D01*
X30105581Y-3551865D01*
X30189244Y-3410398D01*
X30235098Y-3252569D01*
X30238000Y-3215694D01*
X30238000Y-2799500D01*
X30257685Y-2732461D01*
X30310489Y-2686706D01*
X30362000Y-2675500D01*
X30412042Y-2675500D01*
X30475163Y-2692768D01*
X30489999Y-2701542D01*
X30610607Y-2772869D01*
X30610614Y-2772871D01*
X30764791Y-2817664D01*
X30764794Y-2817664D01*
X30764796Y-2817665D01*
X30776803Y-2818610D01*
X30800817Y-2820500D01*
X30800818Y-2820499D01*
X30800819Y-2820500D01*
X31066393Y-2820499D01*
X31199181Y-2820499D01*
X31206384Y-2819932D01*
X31235204Y-2817665D01*
X31389393Y-2772869D01*
X31446882Y-2738869D01*
X31514602Y-2721688D01*
X31573117Y-2738869D01*
X31630607Y-2772869D01*
X31630610Y-2772869D01*
X31630612Y-2772871D01*
X31784791Y-2817664D01*
X31784794Y-2817664D01*
X31784796Y-2817665D01*
X31796803Y-2818610D01*
X31820817Y-2820500D01*
X31820818Y-2820499D01*
X31820819Y-2820500D01*
X32086393Y-2820499D01*
X32219181Y-2820499D01*
X32222015Y-2820275D01*
X32255204Y-2817665D01*
X32409393Y-2772869D01*
X32547598Y-2691135D01*
X32554419Y-2684314D01*
X32576915Y-2661819D01*
X32638238Y-2628334D01*
X32664596Y-2625500D01*
X32754700Y-2625500D01*
X32821739Y-2645185D01*
G37*
%TD.AperFunction*%
%TD*%
%TA.AperFunction,Conductor*%
%TO.N,+5V*%
G36*
X42318039Y-23219685D02*
G01*
X42363794Y-23272489D01*
X42375000Y-23324000D01*
X42375000Y-23576000D01*
X42355315Y-23643039D01*
X42302511Y-23688794D01*
X42251000Y-23700000D01*
X39874000Y-23700000D01*
X39806961Y-23680315D01*
X39761206Y-23627511D01*
X39750000Y-23576000D01*
X39750000Y-23324000D01*
X39769685Y-23256961D01*
X39822489Y-23211206D01*
X39874000Y-23200000D01*
X42251000Y-23200000D01*
X42318039Y-23219685D01*
G37*
%TD.AperFunction*%
%TA.AperFunction,Conductor*%
G36*
X38015677Y-21019685D02*
G01*
X38036319Y-21036319D01*
X38738181Y-21738181D01*
X38771666Y-21799504D01*
X38774500Y-21825857D01*
X38774500Y-21849998D01*
X38774501Y-21850019D01*
X38785000Y-21952796D01*
X38785001Y-21952799D01*
X38819626Y-22057288D01*
X38840186Y-22119334D01*
X38932288Y-22268656D01*
X39056344Y-22392712D01*
X39059628Y-22394737D01*
X39059653Y-22394753D01*
X39061445Y-22396746D01*
X39062011Y-22397193D01*
X39061934Y-22397289D01*
X39106379Y-22446699D01*
X39117603Y-22515661D01*
X39089761Y-22579744D01*
X39059665Y-22605826D01*
X39056660Y-22607679D01*
X38932681Y-22731657D01*
X38930339Y-22734620D01*
X38928214Y-22736124D01*
X38927576Y-22736763D01*
X38927466Y-22736653D01*
X38873318Y-22774997D01*
X38803519Y-22778137D01*
X38745391Y-22745391D01*
X37500000Y-21500000D01*
X37267045Y-21500000D01*
X37264669Y-21498911D01*
X37264406Y-21498766D01*
X37258079Y-21495288D01*
X37241813Y-21484604D01*
X37225983Y-21472325D01*
X37183218Y-21453818D01*
X37177972Y-21451248D01*
X37137143Y-21428803D01*
X37137142Y-21428802D01*
X37117743Y-21423822D01*
X37099331Y-21417518D01*
X37080948Y-21409562D01*
X37080942Y-21409560D01*
X37034924Y-21402272D01*
X37029202Y-21401087D01*
X36984071Y-21389500D01*
X36984069Y-21389500D01*
X36964034Y-21389500D01*
X36944636Y-21387973D01*
X36937212Y-21386797D01*
X36924855Y-21384840D01*
X36924854Y-21384840D01*
X36878466Y-21389225D01*
X36872628Y-21389500D01*
X35974000Y-21389500D01*
X35906961Y-21369815D01*
X35861206Y-21317011D01*
X35850000Y-21265500D01*
X35850000Y-21254000D01*
X35869685Y-21186961D01*
X35922489Y-21141206D01*
X35974000Y-21130000D01*
X37347295Y-21130000D01*
X37348688Y-21128492D01*
X37361955Y-21065349D01*
X37411007Y-21015594D01*
X37471207Y-21000000D01*
X37948638Y-21000000D01*
X38015677Y-21019685D01*
G37*
%TD.AperFunction*%
%TA.AperFunction,Conductor*%
G36*
X56577989Y-11595185D02*
G01*
X56623744Y-11647989D01*
X56633688Y-11717147D01*
X56604663Y-11780703D01*
X56598631Y-11787181D01*
X56461891Y-11923920D01*
X56461886Y-11923926D01*
X56326400Y-12117420D01*
X56326399Y-12117422D01*
X56226570Y-12331507D01*
X56226567Y-12331513D01*
X56169364Y-12544999D01*
X56169364Y-12545000D01*
X57066314Y-12545000D01*
X57040507Y-12585156D01*
X57000000Y-12723111D01*
X57000000Y-12866889D01*
X57040507Y-13004844D01*
X57066314Y-13045000D01*
X56169364Y-13045000D01*
X56226567Y-13258486D01*
X56226570Y-13258492D01*
X56326399Y-13472578D01*
X56461894Y-13666082D01*
X56628917Y-13833105D01*
X56822421Y-13968600D01*
X57036507Y-14068429D01*
X57036516Y-14068433D01*
X57250000Y-14125634D01*
X57250000Y-13230501D01*
X57357685Y-13279680D01*
X57464237Y-13295000D01*
X57535763Y-13295000D01*
X57642315Y-13279680D01*
X57750000Y-13230501D01*
X57750000Y-14125633D01*
X57963483Y-14068433D01*
X57963492Y-14068429D01*
X58177578Y-13968600D01*
X58371082Y-13833105D01*
X58538105Y-13666082D01*
X58673600Y-13472578D01*
X58763618Y-13279534D01*
X58809790Y-13227095D01*
X58876984Y-13207943D01*
X58943865Y-13228159D01*
X58989199Y-13281324D01*
X59000000Y-13331939D01*
X59000000Y-15948638D01*
X58980315Y-16015677D01*
X58963681Y-16036319D01*
X58036319Y-16963681D01*
X57974996Y-16997166D01*
X57948638Y-17000000D01*
X54999999Y-17000000D01*
X53536319Y-18463681D01*
X53474996Y-18497166D01*
X53448638Y-18500000D01*
X35999999Y-18500000D01*
X33499999Y-20999999D01*
X33500000Y-21000000D01*
X34728792Y-21000000D01*
X34795831Y-21019685D01*
X34841586Y-21072489D01*
X34852410Y-21133727D01*
X34850000Y-21164355D01*
X34850000Y-21265500D01*
X34830315Y-21332539D01*
X34777511Y-21378294D01*
X34726000Y-21389500D01*
X32440862Y-21389500D01*
X32373823Y-21369815D01*
X32353181Y-21353181D01*
X31925406Y-20925406D01*
X31891921Y-20864083D01*
X31889767Y-20850692D01*
X31885674Y-20811744D01*
X31827179Y-20631716D01*
X31732533Y-20467784D01*
X31605871Y-20327112D01*
X31605870Y-20327111D01*
X31452734Y-20215851D01*
X31452729Y-20215848D01*
X31279807Y-20138857D01*
X31279802Y-20138855D01*
X31119769Y-20104840D01*
X31094646Y-20099500D01*
X30905354Y-20099500D01*
X30884952Y-20103836D01*
X30862308Y-20108649D01*
X30820991Y-20110381D01*
X30814021Y-20109500D01*
X30814019Y-20109500D01*
X30814016Y-20109500D01*
X30793984Y-20109500D01*
X30774586Y-20107973D01*
X30767162Y-20106797D01*
X30754805Y-20104840D01*
X30754804Y-20104840D01*
X30708416Y-20109225D01*
X30702578Y-20109500D01*
X30374000Y-20109500D01*
X30306961Y-20089815D01*
X30261206Y-20037011D01*
X30250000Y-19985500D01*
X30250000Y-19894356D01*
X30247100Y-19857510D01*
X30247099Y-19857504D01*
X30201283Y-19699806D01*
X30201282Y-19699803D01*
X30117685Y-19558447D01*
X30117678Y-19558438D01*
X30001561Y-19442321D01*
X30001552Y-19442314D01*
X29860196Y-19358717D01*
X29860193Y-19358716D01*
X29702495Y-19312900D01*
X29702489Y-19312899D01*
X29665644Y-19310000D01*
X29250000Y-19310000D01*
X29250000Y-19985500D01*
X29230315Y-20052539D01*
X29177511Y-20098294D01*
X29126000Y-20109500D01*
X28874000Y-20109500D01*
X28806961Y-20089815D01*
X28761206Y-20037011D01*
X28750000Y-19985500D01*
X28750000Y-19310000D01*
X28334356Y-19310000D01*
X28297510Y-19312899D01*
X28158594Y-19353258D01*
X28088725Y-19353058D01*
X28030055Y-19315115D01*
X28001212Y-19251477D01*
X28000000Y-19234181D01*
X28000000Y-18624000D01*
X28019685Y-18556961D01*
X28072489Y-18511206D01*
X28124000Y-18500000D01*
X34000000Y-18500000D01*
X34716411Y-17783588D01*
X34777732Y-17750105D01*
X34794366Y-17747653D01*
X34795069Y-17747598D01*
X34795072Y-17747597D01*
X34795073Y-17747597D01*
X34836691Y-17735505D01*
X34952898Y-17701744D01*
X35094365Y-17618081D01*
X35210581Y-17501865D01*
X35294244Y-17360398D01*
X35340098Y-17202569D01*
X35340152Y-17201872D01*
X35340291Y-17201508D01*
X35341237Y-17196333D01*
X35342196Y-17196508D01*
X35365028Y-17136584D01*
X35376083Y-17123916D01*
X35663181Y-16836819D01*
X35724504Y-16803334D01*
X35750862Y-16800500D01*
X36633196Y-16800500D01*
X36651631Y-16799049D01*
X36670069Y-16797598D01*
X36670071Y-16797597D01*
X36670073Y-16797597D01*
X36711691Y-16785505D01*
X36827898Y-16751744D01*
X36969365Y-16668081D01*
X37085581Y-16551865D01*
X37085583Y-16551860D01*
X37088579Y-16548000D01*
X37145222Y-16507093D01*
X37186559Y-16500000D01*
X39599278Y-16500000D01*
X39659017Y-16515339D01*
X39666973Y-16519713D01*
X39683231Y-16530392D01*
X39699064Y-16542674D01*
X39720304Y-16551865D01*
X39741837Y-16561183D01*
X39747081Y-16563752D01*
X39787908Y-16586197D01*
X39807312Y-16591179D01*
X39825710Y-16597478D01*
X39844105Y-16605438D01*
X39890129Y-16612726D01*
X39895832Y-16613907D01*
X39940981Y-16625500D01*
X39961016Y-16625500D01*
X39980413Y-16627026D01*
X40000196Y-16630160D01*
X40046584Y-16625775D01*
X40052422Y-16625500D01*
X51260957Y-16625500D01*
X51276577Y-16627224D01*
X51276604Y-16626939D01*
X51284360Y-16627671D01*
X51284367Y-16627673D01*
X51353514Y-16625500D01*
X51383050Y-16625500D01*
X51389928Y-16624630D01*
X51395741Y-16624172D01*
X51442327Y-16622709D01*
X51461569Y-16617117D01*
X51480612Y-16613174D01*
X51500492Y-16610664D01*
X51543822Y-16593507D01*
X51549346Y-16591617D01*
X51553096Y-16590527D01*
X51594090Y-16578618D01*
X51611329Y-16568422D01*
X51628803Y-16559862D01*
X51647427Y-16552488D01*
X51647427Y-16552487D01*
X51647432Y-16552486D01*
X51685149Y-16525082D01*
X51690005Y-16521892D01*
X51730120Y-16498170D01*
X51744289Y-16483999D01*
X51759079Y-16471368D01*
X51775287Y-16459594D01*
X51804999Y-16423676D01*
X51808912Y-16419376D01*
X53058786Y-15169502D01*
X53071048Y-15159680D01*
X53070865Y-15159459D01*
X53076867Y-15154492D01*
X53076877Y-15154486D01*
X53124241Y-15104048D01*
X53145120Y-15083170D01*
X53149373Y-15077686D01*
X53153150Y-15073263D01*
X53185062Y-15039282D01*
X53194714Y-15021723D01*
X53205389Y-15005472D01*
X53217674Y-14989636D01*
X53236186Y-14946852D01*
X53238742Y-14941635D01*
X53261197Y-14900792D01*
X53266180Y-14881380D01*
X53272477Y-14862991D01*
X53280438Y-14844595D01*
X53287729Y-14798553D01*
X53288908Y-14792862D01*
X53300500Y-14747719D01*
X53300500Y-14727683D01*
X53302027Y-14708282D01*
X53305160Y-14688504D01*
X53300775Y-14642115D01*
X53300500Y-14636277D01*
X53300500Y-12875825D01*
X53320185Y-12808786D01*
X53372989Y-12763031D01*
X53442147Y-12753087D01*
X53505703Y-12782112D01*
X53542885Y-12838934D01*
X53581981Y-12964396D01*
X53669927Y-13109877D01*
X53790122Y-13230072D01*
X53935604Y-13318019D01*
X53935603Y-13318019D01*
X54097894Y-13368590D01*
X54097892Y-13368590D01*
X54168418Y-13374999D01*
X54249999Y-13374998D01*
X54250000Y-13374998D01*
X54250000Y-12725000D01*
X54750000Y-12725000D01*
X54750000Y-13374999D01*
X54831581Y-13374999D01*
X54902102Y-13368591D01*
X54902107Y-13368590D01*
X55064396Y-13318018D01*
X55209877Y-13230072D01*
X55330072Y-13109877D01*
X55418019Y-12964395D01*
X55468590Y-12802106D01*
X55475000Y-12731572D01*
X55475000Y-12725000D01*
X54750000Y-12725000D01*
X54250000Y-12725000D01*
X54250000Y-12349000D01*
X54269685Y-12281961D01*
X54322489Y-12236206D01*
X54374000Y-12225000D01*
X55474999Y-12225000D01*
X55474999Y-12218417D01*
X55468591Y-12147897D01*
X55468590Y-12147892D01*
X55418018Y-11985603D01*
X55330072Y-11840122D01*
X55277131Y-11787181D01*
X55243646Y-11725858D01*
X55248630Y-11656166D01*
X55290502Y-11600233D01*
X55355966Y-11575816D01*
X55364812Y-11575500D01*
X56510950Y-11575500D01*
X56577989Y-11595185D01*
G37*
%TD.AperFunction*%
%TD*%
%TA.AperFunction,Conductor*%
%TO.N,Net-(J4-Pin_10)*%
G36*
X23250000Y-18148619D02*
G01*
X23322939Y-18134984D01*
X23525976Y-18056327D01*
X23525987Y-18056322D01*
X23711130Y-17941685D01*
X23711131Y-17941685D01*
X23872055Y-17794984D01*
X23872057Y-17794982D01*
X24003279Y-17621215D01*
X24003287Y-17621203D01*
X24014231Y-17599223D01*
X24061732Y-17547985D01*
X24129394Y-17530561D01*
X24174478Y-17540689D01*
X24179062Y-17542672D01*
X24179064Y-17542674D01*
X24191338Y-17547985D01*
X24221838Y-17561183D01*
X24227081Y-17563752D01*
X24267908Y-17586197D01*
X24287312Y-17591179D01*
X24305710Y-17597478D01*
X24324105Y-17605438D01*
X24370149Y-17612729D01*
X24375836Y-17613908D01*
X24406842Y-17621869D01*
X24466877Y-17657607D01*
X24498061Y-17720132D01*
X24500000Y-17741972D01*
X24500000Y-18500000D01*
X27376000Y-18500000D01*
X27443039Y-18519685D01*
X27488794Y-18572489D01*
X27500000Y-18624000D01*
X27500000Y-19985500D01*
X27480315Y-20052539D01*
X27427511Y-20098294D01*
X27376000Y-20109500D01*
X25347744Y-20109500D01*
X25332123Y-20107775D01*
X25332097Y-20108061D01*
X25324335Y-20107327D01*
X25324334Y-20107327D01*
X25255187Y-20109500D01*
X25225650Y-20109500D01*
X25218767Y-20110369D01*
X25212950Y-20110826D01*
X25166374Y-20112290D01*
X25147130Y-20117881D01*
X25128080Y-20121825D01*
X25108212Y-20124334D01*
X25064885Y-20141488D01*
X25059359Y-20143379D01*
X25014615Y-20156379D01*
X25014611Y-20156381D01*
X24997367Y-20166579D01*
X24979906Y-20175133D01*
X24961275Y-20182510D01*
X24961263Y-20182517D01*
X24923571Y-20209902D01*
X24918688Y-20213109D01*
X24878581Y-20236829D01*
X24864415Y-20250995D01*
X24849625Y-20263627D01*
X24833415Y-20275404D01*
X24833412Y-20275407D01*
X24803711Y-20311309D01*
X24799778Y-20315631D01*
X23652228Y-21463181D01*
X23590905Y-21496666D01*
X23564547Y-21499500D01*
X21924000Y-21499500D01*
X21856961Y-21479815D01*
X21811206Y-21427011D01*
X21800000Y-21375500D01*
X21800000Y-20775000D01*
X19604000Y-20775000D01*
X19536961Y-20755315D01*
X19500000Y-20712659D01*
X19500000Y-20275000D01*
X19980000Y-20275000D01*
X20750000Y-20275000D01*
X20750000Y-19052703D01*
X21250000Y-19052703D01*
X21250000Y-20275000D01*
X21800000Y-20275000D01*
X21800000Y-19634356D01*
X21797100Y-19597510D01*
X21797099Y-19597504D01*
X21751283Y-19439806D01*
X21751282Y-19439803D01*
X21667685Y-19298447D01*
X21667678Y-19298438D01*
X21551561Y-19182321D01*
X21551552Y-19182314D01*
X21410196Y-19098717D01*
X21410193Y-19098716D01*
X21252494Y-19052900D01*
X21252497Y-19052900D01*
X21250000Y-19052703D01*
X20750000Y-19052703D01*
X20747503Y-19052900D01*
X20589806Y-19098716D01*
X20589803Y-19098717D01*
X20448447Y-19182314D01*
X20442278Y-19187100D01*
X20440457Y-19184753D01*
X20391358Y-19211564D01*
X20321666Y-19206580D01*
X20288930Y-19185541D01*
X20287722Y-19187100D01*
X20281552Y-19182314D01*
X20140196Y-19098717D01*
X20140193Y-19098716D01*
X19982494Y-19052900D01*
X19982497Y-19052900D01*
X19980000Y-19052703D01*
X19980000Y-20275000D01*
X19500000Y-20275000D01*
X19500000Y-19500000D01*
X19500000Y-19018398D01*
X19501262Y-19000751D01*
X19505500Y-18971276D01*
X19505500Y-18624000D01*
X19525185Y-18556961D01*
X19577989Y-18511206D01*
X19629500Y-18500000D01*
X21500000Y-18500000D01*
X22000000Y-18000000D01*
X22000000Y-17959180D01*
X22019685Y-17892141D01*
X22072489Y-17846386D01*
X22141647Y-17836442D01*
X22205203Y-17865467D01*
X22207538Y-17867543D01*
X22288868Y-17941685D01*
X22474012Y-18056322D01*
X22474023Y-18056327D01*
X22677060Y-18134984D01*
X22750000Y-18148619D01*
X22750000Y-17315686D01*
X22761955Y-17327641D01*
X22874852Y-17385165D01*
X22968519Y-17400000D01*
X23031481Y-17400000D01*
X23125148Y-17385165D01*
X23238045Y-17327641D01*
X23250000Y-17315686D01*
X23250000Y-18148619D01*
G37*
%TD.AperFunction*%
%TA.AperFunction,Conductor*%
G36*
X23193039Y-16645185D02*
G01*
X23199620Y-16652780D01*
X23173389Y-16639415D01*
X23193039Y-16645185D01*
G37*
%TD.AperFunction*%
%TA.AperFunction,Conductor*%
G36*
X22809016Y-16648379D02*
G01*
X22822489Y-16636706D01*
X22838960Y-16633122D01*
X22809016Y-16648379D01*
G37*
%TD.AperFunction*%
%TD*%
%TA.AperFunction,Conductor*%
%TO.N,Net-(J3-Pin_10)*%
G36*
X17250000Y-18148619D02*
G01*
X17322939Y-18134984D01*
X17525976Y-18056327D01*
X17525987Y-18056322D01*
X17711130Y-17941685D01*
X17711131Y-17941685D01*
X17792462Y-17867543D01*
X17855266Y-17836926D01*
X17924653Y-17845124D01*
X17978593Y-17889534D01*
X17999961Y-17956056D01*
X18000000Y-17959180D01*
X18000000Y-18000000D01*
X18500000Y-18500000D01*
X18876000Y-18500000D01*
X18943039Y-18519685D01*
X18988794Y-18572489D01*
X19000000Y-18624000D01*
X19000000Y-18971276D01*
X18980315Y-19038315D01*
X18927511Y-19084070D01*
X18858353Y-19094014D01*
X18841405Y-19090352D01*
X18712494Y-19052900D01*
X18712497Y-19052900D01*
X18710000Y-19052703D01*
X18710000Y-20651000D01*
X18690315Y-20718039D01*
X18637511Y-20763794D01*
X18586000Y-20775000D01*
X16390000Y-20775000D01*
X16390000Y-21375500D01*
X16370315Y-21442539D01*
X16317511Y-21488294D01*
X16266000Y-21499500D01*
X13624000Y-21499500D01*
X13556961Y-21479815D01*
X13511206Y-21427011D01*
X13500000Y-21375500D01*
X13500000Y-20275000D01*
X16390000Y-20275000D01*
X16940000Y-20275000D01*
X17440000Y-20275000D01*
X18210000Y-20275000D01*
X18210000Y-19052703D01*
X18207503Y-19052900D01*
X18049806Y-19098716D01*
X18049803Y-19098717D01*
X17908447Y-19182314D01*
X17902278Y-19187100D01*
X17900457Y-19184753D01*
X17851358Y-19211564D01*
X17781666Y-19206580D01*
X17748930Y-19185541D01*
X17747722Y-19187100D01*
X17741552Y-19182314D01*
X17600196Y-19098717D01*
X17600193Y-19098716D01*
X17442494Y-19052900D01*
X17442497Y-19052900D01*
X17440000Y-19052703D01*
X17440000Y-20275000D01*
X16940000Y-20275000D01*
X16940000Y-19052703D01*
X16937503Y-19052900D01*
X16779806Y-19098716D01*
X16779803Y-19098717D01*
X16638447Y-19182314D01*
X16638438Y-19182321D01*
X16522321Y-19298438D01*
X16522314Y-19298447D01*
X16438717Y-19439803D01*
X16438716Y-19439806D01*
X16392900Y-19597504D01*
X16392899Y-19597510D01*
X16390000Y-19634356D01*
X16390000Y-20275000D01*
X13500000Y-20275000D01*
X13500000Y-18624000D01*
X13519685Y-18556961D01*
X13572489Y-18511206D01*
X13624000Y-18500000D01*
X16000000Y-18500000D01*
X16000000Y-17959180D01*
X16019685Y-17892141D01*
X16072489Y-17846386D01*
X16141647Y-17836442D01*
X16205203Y-17865467D01*
X16207538Y-17867543D01*
X16288868Y-17941685D01*
X16474012Y-18056322D01*
X16474023Y-18056327D01*
X16677060Y-18134984D01*
X16750000Y-18148619D01*
X16750000Y-17315686D01*
X16761955Y-17327641D01*
X16874852Y-17385165D01*
X16968519Y-17400000D01*
X17031481Y-17400000D01*
X17125148Y-17385165D01*
X17238045Y-17327641D01*
X17250000Y-17315686D01*
X17250000Y-18148619D01*
G37*
%TD.AperFunction*%
%TA.AperFunction,Conductor*%
G36*
X17193039Y-16645185D02*
G01*
X17199620Y-16652780D01*
X17173389Y-16639415D01*
X17193039Y-16645185D01*
G37*
%TD.AperFunction*%
%TA.AperFunction,Conductor*%
G36*
X16809016Y-16648379D02*
G01*
X16822489Y-16636706D01*
X16838960Y-16633122D01*
X16809016Y-16648379D01*
G37*
%TD.AperFunction*%
%TD*%
%TA.AperFunction,Conductor*%
%TO.N,Net-(J2-Pin_10)*%
G36*
X11250000Y-18148619D02*
G01*
X11322939Y-18134984D01*
X11525976Y-18056327D01*
X11525987Y-18056322D01*
X11711130Y-17941685D01*
X11711131Y-17941685D01*
X11792462Y-17867543D01*
X11855266Y-17836926D01*
X11924653Y-17845124D01*
X11978593Y-17889534D01*
X11999961Y-17956056D01*
X12000000Y-17959180D01*
X12000000Y-18500000D01*
X12876000Y-18500000D01*
X12943039Y-18519685D01*
X12988794Y-18572489D01*
X13000000Y-18624000D01*
X13000000Y-21375500D01*
X12980315Y-21442539D01*
X12927511Y-21488294D01*
X12876000Y-21499500D01*
X9829000Y-21499500D01*
X9761961Y-21479815D01*
X9716206Y-21427011D01*
X9705000Y-21375500D01*
X9705000Y-20775000D01*
X7509000Y-20775000D01*
X7500000Y-20772357D01*
X7500000Y-20275000D01*
X7885000Y-20275000D01*
X8655000Y-20275000D01*
X8655000Y-19052703D01*
X9155000Y-19052703D01*
X9155000Y-20275000D01*
X9705000Y-20275000D01*
X9705000Y-19634356D01*
X9702100Y-19597510D01*
X9702099Y-19597504D01*
X9656283Y-19439806D01*
X9656282Y-19439803D01*
X9572685Y-19298447D01*
X9572678Y-19298438D01*
X9456561Y-19182321D01*
X9456552Y-19182314D01*
X9315196Y-19098717D01*
X9315193Y-19098716D01*
X9157494Y-19052900D01*
X9157497Y-19052900D01*
X9155000Y-19052703D01*
X8655000Y-19052703D01*
X8652503Y-19052900D01*
X8494806Y-19098716D01*
X8494803Y-19098717D01*
X8353447Y-19182314D01*
X8347278Y-19187100D01*
X8345457Y-19184753D01*
X8296358Y-19211564D01*
X8226666Y-19206580D01*
X8193930Y-19185541D01*
X8192722Y-19187100D01*
X8186552Y-19182314D01*
X8045196Y-19098717D01*
X8045193Y-19098716D01*
X7887494Y-19052900D01*
X7887497Y-19052900D01*
X7885000Y-19052703D01*
X7885000Y-20275000D01*
X7500000Y-20275000D01*
X7500000Y-18624000D01*
X7519685Y-18556961D01*
X7572489Y-18511206D01*
X7624000Y-18500000D01*
X9500000Y-18500000D01*
X10000000Y-18000000D01*
X10000000Y-17959180D01*
X10019685Y-17892141D01*
X10072489Y-17846386D01*
X10141647Y-17836442D01*
X10205203Y-17865467D01*
X10207538Y-17867543D01*
X10288868Y-17941685D01*
X10474012Y-18056322D01*
X10474023Y-18056327D01*
X10677060Y-18134984D01*
X10750000Y-18148619D01*
X10750000Y-17315686D01*
X10761955Y-17327641D01*
X10874852Y-17385165D01*
X10968519Y-17400000D01*
X11031481Y-17400000D01*
X11125148Y-17385165D01*
X11238045Y-17327641D01*
X11250000Y-17315686D01*
X11250000Y-18148619D01*
G37*
%TD.AperFunction*%
%TA.AperFunction,Conductor*%
G36*
X11193039Y-16645185D02*
G01*
X11199620Y-16652780D01*
X11173389Y-16639415D01*
X11193039Y-16645185D01*
G37*
%TD.AperFunction*%
%TA.AperFunction,Conductor*%
G36*
X10809016Y-16648379D02*
G01*
X10822489Y-16636706D01*
X10838960Y-16633122D01*
X10809016Y-16648379D01*
G37*
%TD.AperFunction*%
%TD*%
%TA.AperFunction,Conductor*%
%TO.N,Net-(J1-Pin_10)*%
G36*
X5250000Y-18148619D02*
G01*
X5322939Y-18134984D01*
X5525976Y-18056327D01*
X5525987Y-18056322D01*
X5711130Y-17941685D01*
X5711131Y-17941685D01*
X5792462Y-17867543D01*
X5855266Y-17836926D01*
X5924653Y-17845124D01*
X5978593Y-17889534D01*
X5999961Y-17956056D01*
X6000000Y-17959180D01*
X6000000Y-18000000D01*
X6500000Y-18500000D01*
X6876000Y-18500000D01*
X6943039Y-18519685D01*
X6988794Y-18572489D01*
X7000000Y-18624000D01*
X7000000Y-19014270D01*
X6980315Y-19081309D01*
X6927511Y-19127064D01*
X6858353Y-19137008D01*
X6812880Y-19121003D01*
X6775194Y-19098716D01*
X6617494Y-19052900D01*
X6617497Y-19052900D01*
X6615000Y-19052703D01*
X6615000Y-21997295D01*
X6615001Y-21997295D01*
X6617486Y-21997100D01*
X6775196Y-21951282D01*
X6812878Y-21928997D01*
X6880602Y-21911814D01*
X6946865Y-21933974D01*
X6990628Y-21988439D01*
X7000000Y-22035729D01*
X7000000Y-22387270D01*
X6980315Y-22454309D01*
X6963681Y-22474951D01*
X6474951Y-22963681D01*
X6413628Y-22997166D01*
X6387270Y-23000000D01*
X124500Y-23000000D01*
X57461Y-22980315D01*
X11706Y-22927511D01*
X500Y-22876000D01*
X500Y-20775000D01*
X4295000Y-20775000D01*
X4295000Y-21415644D01*
X4297899Y-21452489D01*
X4297900Y-21452495D01*
X4343716Y-21610193D01*
X4343717Y-21610196D01*
X4427314Y-21751552D01*
X4427321Y-21751561D01*
X4543438Y-21867678D01*
X4543447Y-21867685D01*
X4684801Y-21951281D01*
X4842514Y-21997100D01*
X4842511Y-21997100D01*
X4844998Y-21997295D01*
X4845000Y-21997295D01*
X4845000Y-20775000D01*
X5345000Y-20775000D01*
X5345000Y-21997295D01*
X5345001Y-21997295D01*
X5347486Y-21997100D01*
X5505198Y-21951281D01*
X5646552Y-21867685D01*
X5652722Y-21862900D01*
X5654546Y-21865252D01*
X5703595Y-21838445D01*
X5773288Y-21843402D01*
X5806063Y-21864465D01*
X5807278Y-21862900D01*
X5813447Y-21867685D01*
X5954801Y-21951281D01*
X6112514Y-21997100D01*
X6112511Y-21997100D01*
X6114998Y-21997295D01*
X6115000Y-21997295D01*
X6115000Y-20775000D01*
X5345000Y-20775000D01*
X4845000Y-20775000D01*
X4295000Y-20775000D01*
X500Y-20775000D01*
X500Y-20275000D01*
X4295000Y-20275000D01*
X4845000Y-20275000D01*
X5345000Y-20275000D01*
X6115000Y-20275000D01*
X6115000Y-19052703D01*
X6112503Y-19052900D01*
X5954806Y-19098716D01*
X5954803Y-19098717D01*
X5813447Y-19182314D01*
X5807278Y-19187100D01*
X5805457Y-19184753D01*
X5756358Y-19211564D01*
X5686666Y-19206580D01*
X5653930Y-19185541D01*
X5652722Y-19187100D01*
X5646552Y-19182314D01*
X5505196Y-19098717D01*
X5505193Y-19098716D01*
X5347494Y-19052900D01*
X5347497Y-19052900D01*
X5345000Y-19052703D01*
X5345000Y-20275000D01*
X4845000Y-20275000D01*
X4845000Y-19052703D01*
X4842503Y-19052900D01*
X4684806Y-19098716D01*
X4684803Y-19098717D01*
X4543447Y-19182314D01*
X4543438Y-19182321D01*
X4427321Y-19298438D01*
X4427314Y-19298447D01*
X4343717Y-19439803D01*
X4343716Y-19439806D01*
X4297900Y-19597504D01*
X4297899Y-19597510D01*
X4295000Y-19634356D01*
X4295000Y-20275000D01*
X500Y-20275000D01*
X500Y-18624000D01*
X20185Y-18556961D01*
X72989Y-18511206D01*
X124500Y-18500000D01*
X4000000Y-18500000D01*
X4000000Y-17959180D01*
X4019685Y-17892141D01*
X4072489Y-17846386D01*
X4141647Y-17836442D01*
X4205203Y-17865467D01*
X4207538Y-17867543D01*
X4288868Y-17941685D01*
X4474012Y-18056322D01*
X4474023Y-18056327D01*
X4677060Y-18134984D01*
X4750000Y-18148619D01*
X4750000Y-17315686D01*
X4761955Y-17327641D01*
X4874852Y-17385165D01*
X4968519Y-17400000D01*
X5031481Y-17400000D01*
X5125148Y-17385165D01*
X5238045Y-17327641D01*
X5250000Y-17315686D01*
X5250000Y-18148619D01*
G37*
%TD.AperFunction*%
%TA.AperFunction,Conductor*%
G36*
X5193039Y-16645185D02*
G01*
X5199620Y-16652780D01*
X5173389Y-16639415D01*
X5193039Y-16645185D01*
G37*
%TD.AperFunction*%
%TA.AperFunction,Conductor*%
G36*
X4809016Y-16648379D02*
G01*
X4822489Y-16636706D01*
X4838960Y-16633122D01*
X4809016Y-16648379D01*
G37*
%TD.AperFunction*%
%TD*%
%TA.AperFunction,Conductor*%
%TO.N,+5V*%
G36*
X34792539Y-26470185D02*
G01*
X34838294Y-26522989D01*
X34849500Y-26574500D01*
X34849500Y-26675696D01*
X34852401Y-26712567D01*
X34852402Y-26712573D01*
X34898254Y-26870393D01*
X34898255Y-26870396D01*
X34981917Y-27011862D01*
X34986702Y-27018031D01*
X34984369Y-27019840D01*
X35011210Y-27068995D01*
X35006226Y-27138687D01*
X34985470Y-27171021D01*
X34987097Y-27172283D01*
X34982313Y-27178449D01*
X34898718Y-27319801D01*
X34852899Y-27477513D01*
X34852704Y-27479998D01*
X34852705Y-27480000D01*
X37347295Y-27480000D01*
X37347295Y-27479998D01*
X37347100Y-27477513D01*
X37301281Y-27319802D01*
X37297040Y-27312630D01*
X37279858Y-27244906D01*
X37302019Y-27178644D01*
X37356485Y-27134881D01*
X37403773Y-27125510D01*
X38876000Y-27125510D01*
X38943039Y-27145195D01*
X38988794Y-27197999D01*
X39000000Y-27249510D01*
X39000000Y-28015247D01*
X38980315Y-28082286D01*
X38927511Y-28128041D01*
X38858353Y-28137985D01*
X38810903Y-28120786D01*
X38758486Y-28088454D01*
X38758481Y-28088452D01*
X38597606Y-28035144D01*
X38498322Y-28025000D01*
X38475000Y-28025000D01*
X38475000Y-29126000D01*
X38455315Y-29193039D01*
X38402511Y-29238794D01*
X38351000Y-29250000D01*
X34852705Y-29250000D01*
X34852704Y-29250001D01*
X34852899Y-29252488D01*
X34878732Y-29341406D01*
X34878532Y-29411275D01*
X34840589Y-29469945D01*
X34776951Y-29498788D01*
X34759655Y-29500000D01*
X30340865Y-29500000D01*
X30273826Y-29480315D01*
X30228071Y-29427511D01*
X30218127Y-29358353D01*
X30221789Y-29341405D01*
X30247597Y-29252573D01*
X30247598Y-29252567D01*
X30250500Y-29215696D01*
X30250500Y-28784304D01*
X30247800Y-28749998D01*
X34852704Y-28749998D01*
X34852705Y-28750000D01*
X35850000Y-28750000D01*
X35850000Y-27980000D01*
X36350000Y-27980000D01*
X36350000Y-28750000D01*
X37975000Y-28750000D01*
X37975000Y-28024999D01*
X37951693Y-28025000D01*
X37951674Y-28025001D01*
X37852392Y-28035144D01*
X37691518Y-28088452D01*
X37691507Y-28088457D01*
X37547271Y-28177424D01*
X37526800Y-28197895D01*
X37465476Y-28231379D01*
X37395784Y-28226393D01*
X37339851Y-28184520D01*
X37315436Y-28119056D01*
X37320044Y-28075617D01*
X37347099Y-27982494D01*
X37347100Y-27982488D01*
X37347295Y-27980001D01*
X37347295Y-27980000D01*
X36350000Y-27980000D01*
X35850000Y-27980000D01*
X34852705Y-27980000D01*
X34852704Y-27980001D01*
X34852899Y-27982486D01*
X34898718Y-28140198D01*
X34982314Y-28281552D01*
X34987100Y-28287722D01*
X34984753Y-28289542D01*
X35011564Y-28338642D01*
X35006580Y-28408334D01*
X34985541Y-28441069D01*
X34987100Y-28442278D01*
X34982314Y-28448447D01*
X34898718Y-28589801D01*
X34852899Y-28747513D01*
X34852704Y-28749998D01*
X30247800Y-28749998D01*
X30247598Y-28747432D01*
X30247597Y-28747426D01*
X30201745Y-28589606D01*
X30201744Y-28589603D01*
X30201744Y-28589602D01*
X30118081Y-28448135D01*
X30118078Y-28448132D01*
X30113298Y-28441969D01*
X30115635Y-28440155D01*
X30088798Y-28391050D01*
X30093756Y-28321356D01*
X30114554Y-28288998D01*
X30112903Y-28287717D01*
X30117686Y-28281550D01*
X30201281Y-28140198D01*
X30247100Y-27982486D01*
X30247295Y-27980001D01*
X30247295Y-27980000D01*
X28874000Y-27980000D01*
X28806961Y-27960315D01*
X28761206Y-27907511D01*
X28750000Y-27856000D01*
X28750000Y-27604000D01*
X28769685Y-27536961D01*
X28822489Y-27491206D01*
X28874000Y-27480000D01*
X30247295Y-27480000D01*
X30247295Y-27479998D01*
X30247100Y-27477513D01*
X30201281Y-27319801D01*
X30195356Y-27309782D01*
X30178173Y-27242058D01*
X30200333Y-27175795D01*
X30254799Y-27132032D01*
X30290970Y-27124273D01*
X30290916Y-27123931D01*
X30297235Y-27122929D01*
X30298202Y-27122722D01*
X30298627Y-27122709D01*
X30317869Y-27117117D01*
X30336912Y-27113174D01*
X30356792Y-27110664D01*
X30400122Y-27093507D01*
X30405646Y-27091617D01*
X30409396Y-27090527D01*
X30450390Y-27078618D01*
X30467629Y-27068422D01*
X30485103Y-27059862D01*
X30503727Y-27052488D01*
X30503727Y-27052487D01*
X30503732Y-27052486D01*
X30541449Y-27025082D01*
X30546305Y-27021892D01*
X30586420Y-26998170D01*
X30600589Y-26983999D01*
X30615379Y-26971368D01*
X30631587Y-26959594D01*
X30661299Y-26923676D01*
X30665212Y-26919376D01*
X31097773Y-26486816D01*
X31159095Y-26453334D01*
X31185453Y-26450500D01*
X34725500Y-26450500D01*
X34792539Y-26470185D01*
G37*
%TD.AperFunction*%
%TD*%
%TA.AperFunction,Conductor*%
%TO.N,GND*%
G36*
X43943039Y-27145195D02*
G01*
X43988794Y-27197999D01*
X44000000Y-27249510D01*
X44000000Y-29376000D01*
X43980315Y-29443039D01*
X43927511Y-29488794D01*
X43876000Y-29500000D01*
X40841709Y-29500000D01*
X40774670Y-29480315D01*
X40728915Y-29427511D01*
X40718351Y-29363397D01*
X40724999Y-29298322D01*
X40725000Y-29298309D01*
X40725000Y-29250000D01*
X39649000Y-29250000D01*
X39581961Y-29230315D01*
X39536206Y-29177511D01*
X39525000Y-29126000D01*
X39525000Y-28025000D01*
X40025000Y-28025000D01*
X40025000Y-28750000D01*
X40724999Y-28750000D01*
X40724999Y-28701692D01*
X40724998Y-28701677D01*
X40714855Y-28602392D01*
X40661547Y-28441518D01*
X40661542Y-28441507D01*
X40572575Y-28297271D01*
X40572572Y-28297267D01*
X40452732Y-28177427D01*
X40452728Y-28177424D01*
X40308492Y-28088457D01*
X40308481Y-28088452D01*
X40147606Y-28035144D01*
X40048322Y-28025000D01*
X40025000Y-28025000D01*
X39525000Y-28025000D01*
X39525000Y-28011017D01*
X39508334Y-27980496D01*
X39505500Y-27954138D01*
X39505500Y-27249510D01*
X39525185Y-27182471D01*
X39577989Y-27136716D01*
X39629500Y-27125510D01*
X43876000Y-27125510D01*
X43943039Y-27145195D01*
G37*
%TD.AperFunction*%
%TA.AperFunction,Conductor*%
G36*
X27731839Y-25960185D02*
G01*
X27777594Y-26012989D01*
X27787538Y-26082147D01*
X27783876Y-26099095D01*
X27752402Y-26207426D01*
X27752401Y-26207432D01*
X27749500Y-26244304D01*
X27749500Y-26675696D01*
X27752401Y-26712567D01*
X27752402Y-26712573D01*
X27798254Y-26870393D01*
X27798255Y-26870396D01*
X27881917Y-27011862D01*
X27886702Y-27018031D01*
X27884256Y-27019927D01*
X27910857Y-27068642D01*
X27905873Y-27138334D01*
X27885069Y-27170703D01*
X27886702Y-27171969D01*
X27881917Y-27178137D01*
X27798255Y-27319603D01*
X27798254Y-27319606D01*
X27752402Y-27477426D01*
X27752401Y-27477432D01*
X27749500Y-27514304D01*
X27749500Y-27945696D01*
X27752401Y-27982567D01*
X27752402Y-27982573D01*
X27778932Y-28073887D01*
X27778733Y-28143756D01*
X27740791Y-28202426D01*
X27677153Y-28231270D01*
X27608023Y-28221129D01*
X27572175Y-28196163D01*
X27553044Y-28177032D01*
X27553040Y-28177029D01*
X27408705Y-28088001D01*
X27408699Y-28087998D01*
X27408697Y-28087997D01*
X27408694Y-28087996D01*
X27247709Y-28034651D01*
X27148346Y-28024500D01*
X26601662Y-28024500D01*
X26601644Y-28024501D01*
X26502292Y-28034650D01*
X26502289Y-28034651D01*
X26341305Y-28087996D01*
X26341294Y-28088001D01*
X26196959Y-28177029D01*
X26196953Y-28177033D01*
X26187324Y-28186663D01*
X26126000Y-28220146D01*
X26056308Y-28215159D01*
X26011965Y-28186660D01*
X26002732Y-28177427D01*
X26002728Y-28177424D01*
X25858492Y-28088457D01*
X25858481Y-28088452D01*
X25697606Y-28035144D01*
X25598322Y-28025000D01*
X25575000Y-28025000D01*
X25575000Y-28500000D01*
X25075000Y-28500000D01*
X25075000Y-28024999D01*
X25051693Y-28025000D01*
X25051674Y-28025001D01*
X24952392Y-28035144D01*
X24791518Y-28088452D01*
X24791507Y-28088457D01*
X24647271Y-28177424D01*
X24647267Y-28177427D01*
X24527427Y-28297267D01*
X24527424Y-28297271D01*
X24438711Y-28441097D01*
X24386763Y-28487822D01*
X24333173Y-28500000D01*
X24124000Y-28500000D01*
X24056961Y-28480315D01*
X24011206Y-28427511D01*
X24000000Y-28376000D01*
X24000000Y-28112729D01*
X24019685Y-28045690D01*
X24036316Y-28025050D01*
X26084548Y-25976818D01*
X26145871Y-25943334D01*
X26172229Y-25940500D01*
X27664800Y-25940500D01*
X27731839Y-25960185D01*
G37*
%TD.AperFunction*%
%TA.AperFunction,Conductor*%
G36*
X27786347Y-23295185D02*
G01*
X27832102Y-23347989D01*
X27842046Y-23417147D01*
X27826041Y-23462620D01*
X27798254Y-23509605D01*
X27798254Y-23509606D01*
X27752402Y-23667426D01*
X27752401Y-23667432D01*
X27749500Y-23704304D01*
X27749500Y-24135696D01*
X27752401Y-24172567D01*
X27752402Y-24172573D01*
X27783876Y-24280905D01*
X27783677Y-24350775D01*
X27745735Y-24409445D01*
X27682096Y-24438288D01*
X27664800Y-24439500D01*
X25873705Y-24439500D01*
X25855735Y-24438191D01*
X25831972Y-24434710D01*
X25786533Y-24438686D01*
X25779931Y-24439264D01*
X25774530Y-24439500D01*
X25766289Y-24439500D01*
X25744579Y-24442037D01*
X25733724Y-24443306D01*
X25718419Y-24444645D01*
X25657199Y-24450001D01*
X25650132Y-24451460D01*
X25650120Y-24451404D01*
X25642763Y-24453035D01*
X25642777Y-24453092D01*
X25635743Y-24454759D01*
X25563575Y-24481025D01*
X25490675Y-24505181D01*
X25484126Y-24508236D01*
X25484101Y-24508183D01*
X25477308Y-24511471D01*
X25477334Y-24511523D01*
X25470880Y-24514764D01*
X25406708Y-24556971D01*
X25341347Y-24597285D01*
X25335683Y-24601765D01*
X25335647Y-24601719D01*
X25329798Y-24606484D01*
X25329835Y-24606528D01*
X25324310Y-24611164D01*
X25324304Y-24611169D01*
X25324304Y-24611170D01*
X25271597Y-24667035D01*
X24211681Y-25726951D01*
X24150358Y-25760436D01*
X24080666Y-25755452D01*
X24024733Y-25713580D01*
X24000316Y-25648116D01*
X24000000Y-25639270D01*
X24000000Y-24245470D01*
X24019685Y-24178431D01*
X24072489Y-24132676D01*
X24104597Y-24122997D01*
X24106407Y-24122709D01*
X24106419Y-24122709D01*
X24125661Y-24117117D01*
X24144704Y-24113174D01*
X24164584Y-24110664D01*
X24207914Y-24093507D01*
X24213438Y-24091617D01*
X24217188Y-24090527D01*
X24258182Y-24078618D01*
X24275421Y-24068422D01*
X24292895Y-24059862D01*
X24311519Y-24052488D01*
X24311519Y-24052487D01*
X24311524Y-24052486D01*
X24349241Y-24025082D01*
X24354097Y-24021892D01*
X24394212Y-23998170D01*
X24408381Y-23983999D01*
X24423171Y-23971368D01*
X24439379Y-23959594D01*
X24469091Y-23923676D01*
X24473004Y-23919376D01*
X25080563Y-23311819D01*
X25141886Y-23278334D01*
X25168244Y-23275500D01*
X27719308Y-23275500D01*
X27786347Y-23295185D01*
G37*
%TD.AperFunction*%
%TD*%
%TA.AperFunction,Conductor*%
%TO.N,+5V*%
G36*
X56512293Y-6507819D02*
G01*
X56539082Y-6517811D01*
X56595016Y-6559682D01*
X56619432Y-6625147D01*
X56604580Y-6693420D01*
X56583430Y-6721673D01*
X56461503Y-6843600D01*
X56325965Y-7037169D01*
X56325964Y-7037171D01*
X56226098Y-7251335D01*
X56226094Y-7251344D01*
X56164938Y-7479586D01*
X56164936Y-7479596D01*
X56144341Y-7714999D01*
X56144341Y-7715001D01*
X56162977Y-7928013D01*
X56149210Y-7996513D01*
X56127130Y-8026501D01*
X55465451Y-8688181D01*
X55404128Y-8721666D01*
X55377770Y-8724500D01*
X53752977Y-8724500D01*
X53688828Y-8706617D01*
X53564606Y-8631522D01*
X53402196Y-8580914D01*
X53402194Y-8580913D01*
X53402192Y-8580913D01*
X53352778Y-8576423D01*
X53331616Y-8574500D01*
X53331613Y-8574500D01*
X53141519Y-8574500D01*
X53074480Y-8554815D01*
X53053838Y-8538181D01*
X52979805Y-8464148D01*
X52901598Y-8385941D01*
X52899064Y-8383250D01*
X52857929Y-8336817D01*
X52857928Y-8336816D01*
X52857924Y-8336812D01*
X52806896Y-8301591D01*
X52803887Y-8299377D01*
X52755060Y-8261124D01*
X52755055Y-8261120D01*
X52745813Y-8256961D01*
X52726266Y-8245936D01*
X52717931Y-8240183D01*
X52717932Y-8240183D01*
X52717930Y-8240182D01*
X52659941Y-8218189D01*
X52656490Y-8216759D01*
X52599930Y-8191304D01*
X52589946Y-8189474D01*
X52568343Y-8183451D01*
X52558874Y-8179860D01*
X52558870Y-8179859D01*
X52497313Y-8172384D01*
X52493612Y-8171821D01*
X52432608Y-8160642D01*
X52432603Y-8160642D01*
X52370697Y-8164387D01*
X52366952Y-8164500D01*
X52124000Y-8164500D01*
X52056961Y-8144815D01*
X52011206Y-8092011D01*
X52000000Y-8040500D01*
X52000000Y-7624000D01*
X52019685Y-7556961D01*
X52072489Y-7511206D01*
X52124000Y-7500000D01*
X52500000Y-7500000D01*
X53063323Y-6936676D01*
X53124642Y-6903194D01*
X53194333Y-6908178D01*
X53250267Y-6950049D01*
X53274684Y-7015514D01*
X53275000Y-7024359D01*
X53275000Y-7199970D01*
X53275001Y-7199987D01*
X53285494Y-7302697D01*
X53340641Y-7469119D01*
X53340643Y-7469124D01*
X53432684Y-7618345D01*
X53556654Y-7742315D01*
X53705875Y-7834356D01*
X53705880Y-7834358D01*
X53872302Y-7889505D01*
X53872309Y-7889506D01*
X53975019Y-7899999D01*
X54249999Y-7899999D01*
X54250000Y-7899998D01*
X54250000Y-7150000D01*
X54750000Y-7150000D01*
X54750000Y-7899999D01*
X55024972Y-7899999D01*
X55024986Y-7899998D01*
X55127697Y-7889505D01*
X55294119Y-7834358D01*
X55294124Y-7834356D01*
X55443345Y-7742315D01*
X55567315Y-7618345D01*
X55659356Y-7469124D01*
X55659358Y-7469119D01*
X55714505Y-7302697D01*
X55714506Y-7302690D01*
X55724999Y-7199986D01*
X55725000Y-7199973D01*
X55725000Y-7150000D01*
X54750000Y-7150000D01*
X54250000Y-7150000D01*
X54250000Y-6774000D01*
X54269685Y-6706961D01*
X54322489Y-6661206D01*
X54374000Y-6650000D01*
X55724999Y-6650000D01*
X55724999Y-6624000D01*
X55744684Y-6556961D01*
X55797488Y-6511206D01*
X55848999Y-6500000D01*
X56468959Y-6500000D01*
X56512293Y-6507819D01*
G37*
%TD.AperFunction*%
%TD*%
M02*
