%TF.GenerationSoftware,KiCad,Pcbnew,7.0.9-rc2*%
%TF.CreationDate,2023-12-26T16:59:53-08:00*%
%TF.ProjectId,driver_board,64726976-6572-45f6-926f-6172642e6b69,rev?*%
%TF.SameCoordinates,PX5f5e100PY5f5e100*%
%TF.FileFunction,Copper,L2,Bot*%
%TF.FilePolarity,Positive*%
%FSLAX46Y46*%
G04 Gerber Fmt 4.6, Leading zero omitted, Abs format (unit mm)*
G04 Created by KiCad (PCBNEW 7.0.9-rc2) date 2023-12-26 16:59:53*
%MOMM*%
%LPD*%
G01*
G04 APERTURE LIST*
%TA.AperFunction,ComponentPad*%
%ADD10C,1.600000*%
%TD*%
%TA.AperFunction,ComponentPad*%
%ADD11R,1.600000X1.600000*%
%TD*%
%TA.AperFunction,ComponentPad*%
%ADD12R,3.000000X3.000000*%
%TD*%
%TA.AperFunction,ComponentPad*%
%ADD13C,3.000000*%
%TD*%
%TA.AperFunction,ComponentPad*%
%ADD14R,1.700000X1.700000*%
%TD*%
%TA.AperFunction,ComponentPad*%
%ADD15O,1.700000X1.700000*%
%TD*%
%TA.AperFunction,ComponentPad*%
%ADD16R,1.350000X1.350000*%
%TD*%
%TA.AperFunction,ComponentPad*%
%ADD17O,1.350000X1.350000*%
%TD*%
%TA.AperFunction,ViaPad*%
%ADD18C,0.800000*%
%TD*%
%TA.AperFunction,Conductor*%
%ADD19C,0.750000*%
%TD*%
%TA.AperFunction,Conductor*%
%ADD20C,1.000000*%
%TD*%
%TA.AperFunction,Conductor*%
%ADD21C,0.250000*%
%TD*%
%TA.AperFunction,Conductor*%
%ADD22C,0.500000*%
%TD*%
G04 APERTURE END LIST*
D10*
%TO.P,C5,2*%
%TO.N,GND*%
X46000000Y-20500000D03*
D11*
%TO.P,C5,1*%
%TO.N,+12V*%
X46000000Y-23000000D03*
%TD*%
D12*
%TO.P,J7,1,Pin_1*%
%TO.N,+12V*%
X57000000Y-24460000D03*
D13*
%TO.P,J7,2,Pin_2*%
%TO.N,GND*%
X57000000Y-19380000D03*
%TD*%
D14*
%TO.P,J5,1,Pin_1*%
%TO.N,GND*%
X57500000Y-5175000D03*
D15*
%TO.P,J5,2,Pin_2*%
%TO.N,/SCL*%
X57500000Y-7715000D03*
%TO.P,J5,3,Pin_3*%
%TO.N,/SDA*%
X57500000Y-10255000D03*
%TO.P,J5,4,Pin_4*%
%TO.N,+5V*%
X57500000Y-12795000D03*
%TD*%
D16*
%TO.P,J4,1,Pin_1*%
%TO.N,/SEG_PD_A*%
X21000000Y-3000000D03*
D17*
%TO.P,J4,2,Pin_2*%
%TO.N,Net-(J4-Pin_10)*%
X23000000Y-3000000D03*
%TO.P,J4,3,Pin_3*%
%TO.N,/SEG_PD_B*%
X21000000Y-5000000D03*
%TO.P,J4,4,Pin_4*%
%TO.N,Net-(J4-Pin_10)*%
X23000000Y-5000000D03*
%TO.P,J4,5,Pin_5*%
%TO.N,/SEG_PD_C*%
X21000000Y-7000000D03*
%TO.P,J4,6,Pin_6*%
%TO.N,Net-(J4-Pin_10)*%
X23000000Y-7000000D03*
%TO.P,J4,7,Pin_7*%
%TO.N,/SEG_PD_D*%
X21000000Y-9000000D03*
%TO.P,J4,8,Pin_8*%
%TO.N,Net-(J4-Pin_10)*%
X23000000Y-9000000D03*
%TO.P,J4,9,Pin_9*%
%TO.N,/SEG_PD_E*%
X21000000Y-11000000D03*
%TO.P,J4,10,Pin_10*%
%TO.N,Net-(J4-Pin_10)*%
X23000000Y-11000000D03*
%TO.P,J4,11,Pin_11*%
%TO.N,/SEG_PD_F*%
X21000000Y-13000000D03*
%TO.P,J4,12,Pin_12*%
%TO.N,Net-(J4-Pin_10)*%
X23000000Y-13000000D03*
%TO.P,J4,13,Pin_13*%
%TO.N,/SEG_PD_G*%
X21000000Y-15000000D03*
%TO.P,J4,14,Pin_14*%
%TO.N,Net-(J4-Pin_10)*%
X23000000Y-15000000D03*
%TO.P,J4,15,Pin_15*%
%TO.N,/SEG_PD_DP*%
X21000000Y-17000000D03*
%TO.P,J4,16,Pin_16*%
%TO.N,Net-(J4-Pin_10)*%
X23000000Y-17000000D03*
%TD*%
D16*
%TO.P,J3,1,Pin_1*%
%TO.N,/SEG_PD_A*%
X15000000Y-3000000D03*
D17*
%TO.P,J3,2,Pin_2*%
%TO.N,Net-(J3-Pin_10)*%
X17000000Y-3000000D03*
%TO.P,J3,3,Pin_3*%
%TO.N,/SEG_PD_B*%
X15000000Y-5000000D03*
%TO.P,J3,4,Pin_4*%
%TO.N,Net-(J3-Pin_10)*%
X17000000Y-5000000D03*
%TO.P,J3,5,Pin_5*%
%TO.N,/SEG_PD_C*%
X15000000Y-7000000D03*
%TO.P,J3,6,Pin_6*%
%TO.N,Net-(J3-Pin_10)*%
X17000000Y-7000000D03*
%TO.P,J3,7,Pin_7*%
%TO.N,/SEG_PD_D*%
X15000000Y-9000000D03*
%TO.P,J3,8,Pin_8*%
%TO.N,Net-(J3-Pin_10)*%
X17000000Y-9000000D03*
%TO.P,J3,9,Pin_9*%
%TO.N,/SEG_PD_E*%
X15000000Y-11000000D03*
%TO.P,J3,10,Pin_10*%
%TO.N,Net-(J3-Pin_10)*%
X17000000Y-11000000D03*
%TO.P,J3,11,Pin_11*%
%TO.N,/SEG_PD_F*%
X15000000Y-13000000D03*
%TO.P,J3,12,Pin_12*%
%TO.N,Net-(J3-Pin_10)*%
X17000000Y-13000000D03*
%TO.P,J3,13,Pin_13*%
%TO.N,/SEG_PD_G*%
X15000000Y-15000000D03*
%TO.P,J3,14,Pin_14*%
%TO.N,Net-(J3-Pin_10)*%
X17000000Y-15000000D03*
%TO.P,J3,15,Pin_15*%
%TO.N,/SEG_PD_DP*%
X15000000Y-17000000D03*
%TO.P,J3,16,Pin_16*%
%TO.N,Net-(J3-Pin_10)*%
X17000000Y-17000000D03*
%TD*%
D16*
%TO.P,J2,1,Pin_1*%
%TO.N,/SEG_PD_A*%
X9000000Y-3000000D03*
D17*
%TO.P,J2,2,Pin_2*%
%TO.N,Net-(J2-Pin_10)*%
X11000000Y-3000000D03*
%TO.P,J2,3,Pin_3*%
%TO.N,/SEG_PD_B*%
X9000000Y-5000000D03*
%TO.P,J2,4,Pin_4*%
%TO.N,Net-(J2-Pin_10)*%
X11000000Y-5000000D03*
%TO.P,J2,5,Pin_5*%
%TO.N,/SEG_PD_C*%
X9000000Y-7000000D03*
%TO.P,J2,6,Pin_6*%
%TO.N,Net-(J2-Pin_10)*%
X11000000Y-7000000D03*
%TO.P,J2,7,Pin_7*%
%TO.N,/SEG_PD_D*%
X9000000Y-9000000D03*
%TO.P,J2,8,Pin_8*%
%TO.N,Net-(J2-Pin_10)*%
X11000000Y-9000000D03*
%TO.P,J2,9,Pin_9*%
%TO.N,/SEG_PD_E*%
X9000000Y-11000000D03*
%TO.P,J2,10,Pin_10*%
%TO.N,Net-(J2-Pin_10)*%
X11000000Y-11000000D03*
%TO.P,J2,11,Pin_11*%
%TO.N,/SEG_PD_F*%
X9000000Y-13000000D03*
%TO.P,J2,12,Pin_12*%
%TO.N,Net-(J2-Pin_10)*%
X11000000Y-13000000D03*
%TO.P,J2,13,Pin_13*%
%TO.N,/SEG_PD_G*%
X9000000Y-15000000D03*
%TO.P,J2,14,Pin_14*%
%TO.N,Net-(J2-Pin_10)*%
X11000000Y-15000000D03*
%TO.P,J2,15,Pin_15*%
%TO.N,/SEG_PD_DP*%
X9000000Y-17000000D03*
%TO.P,J2,16,Pin_16*%
%TO.N,Net-(J2-Pin_10)*%
X11000000Y-17000000D03*
%TD*%
D16*
%TO.P,J1,1,Pin_1*%
%TO.N,/SEG_PD_A*%
X3000000Y-3000000D03*
D17*
%TO.P,J1,2,Pin_2*%
%TO.N,Net-(J1-Pin_10)*%
X5000000Y-3000000D03*
%TO.P,J1,3,Pin_3*%
%TO.N,/SEG_PD_B*%
X3000000Y-5000000D03*
%TO.P,J1,4,Pin_4*%
%TO.N,Net-(J1-Pin_10)*%
X5000000Y-5000000D03*
%TO.P,J1,5,Pin_5*%
%TO.N,/SEG_PD_C*%
X3000000Y-7000000D03*
%TO.P,J1,6,Pin_6*%
%TO.N,Net-(J1-Pin_10)*%
X5000000Y-7000000D03*
%TO.P,J1,7,Pin_7*%
%TO.N,/SEG_PD_D*%
X3000000Y-9000000D03*
%TO.P,J1,8,Pin_8*%
%TO.N,Net-(J1-Pin_10)*%
X5000000Y-9000000D03*
%TO.P,J1,9,Pin_9*%
%TO.N,/SEG_PD_E*%
X3000000Y-11000000D03*
%TO.P,J1,10,Pin_10*%
%TO.N,Net-(J1-Pin_10)*%
X5000000Y-11000000D03*
%TO.P,J1,11,Pin_11*%
%TO.N,/SEG_PD_F*%
X3000000Y-13000000D03*
%TO.P,J1,12,Pin_12*%
%TO.N,Net-(J1-Pin_10)*%
X5000000Y-13000000D03*
%TO.P,J1,13,Pin_13*%
%TO.N,/SEG_PD_G*%
X3000000Y-15000000D03*
%TO.P,J1,14,Pin_14*%
%TO.N,Net-(J1-Pin_10)*%
X5000000Y-15000000D03*
%TO.P,J1,15,Pin_15*%
%TO.N,/SEG_PD_DP*%
X3000000Y-17000000D03*
%TO.P,J1,16,Pin_16*%
%TO.N,Net-(J1-Pin_10)*%
X5000000Y-17000000D03*
%TD*%
D18*
%TO.N,GND*%
X26000000Y-24000000D03*
%TO.N,+12V*%
X5500000Y-30000000D03*
X8000000Y-30000000D03*
X17000000Y-30000000D03*
X19500000Y-30000000D03*
X27000000Y-31000000D03*
X51500000Y-27000000D03*
X52000000Y-26500000D03*
X52500000Y-26000000D03*
X12000000Y-24500000D03*
X22500000Y-26000000D03*
%TO.N,GND*%
X32500000Y-17000000D03*
X32500000Y-13000000D03*
X32500000Y-9000000D03*
X32500000Y-5000000D03*
X25500000Y-4000000D03*
X25500000Y-8000000D03*
X25500000Y-12000000D03*
X25500000Y-16000000D03*
%TO.N,/DIG_VT_0*%
X31000000Y-21000000D03*
X30999999Y-24999993D03*
%TO.N,+5V*%
X55000000Y-8000000D03*
X54000000Y-8000000D03*
X33500010Y-26600000D03*
X32500017Y-26600000D03*
X33500002Y-20000002D03*
X32500004Y-20000004D03*
X43500000Y-17000000D03*
X42500000Y-17000000D03*
X43500000Y-11000000D03*
X42500000Y-11000000D03*
%TO.N,GND*%
X25600000Y-28000000D03*
X24800000Y-28000000D03*
X41000000Y-28600000D03*
X41000000Y-29400000D03*
%TO.N,/DIG_3*%
X47000000Y-8000000D03*
X44757536Y-25757536D03*
%TO.N,/DIG_2*%
X47138571Y-24912248D03*
X47000000Y-6500000D03*
%TO.N,/DIG_1*%
X46473786Y-25725000D03*
X47500000Y-5000000D03*
%TO.N,/DIG_0*%
X49000000Y-5000000D03*
X45500000Y-26500010D03*
%TD*%
D19*
%TO.N,/DIG_VT_0*%
X31000000Y-24999994D02*
X30999999Y-24999993D01*
D20*
%TO.N,+5V*%
X33500010Y-26600000D02*
X33500000Y-26599990D01*
X33500000Y-26599990D02*
X33500000Y-20000000D01*
X32500000Y-20000000D02*
X32500000Y-26599983D01*
X32500000Y-26599983D02*
X32500017Y-26600000D01*
D21*
%TO.N,/DIG_0*%
X49000000Y-5000000D02*
X49000000Y-25000000D01*
X49000000Y-25000000D02*
X47499990Y-26500010D01*
X47499990Y-26500010D02*
X45500000Y-26500010D01*
%TO.N,/DIG_3*%
X46380072Y-24135000D02*
X44757536Y-25757536D01*
%TO.N,/DIG_1*%
X48420000Y-24772032D02*
X47467032Y-25725000D01*
%TO.N,/DIG_3*%
X47500000Y-23770000D02*
X47135000Y-24135000D01*
%TO.N,/DIG_1*%
X47500000Y-5000000D02*
X48420000Y-5920000D01*
%TO.N,/DIG_3*%
X47000000Y-8000000D02*
X47500000Y-8500000D01*
%TO.N,/DIG_1*%
X48420000Y-5920000D02*
X48420000Y-24772032D01*
%TO.N,/DIG_3*%
X47500000Y-8500000D02*
X47500000Y-23770000D01*
%TO.N,/DIG_2*%
X47000000Y-6500000D02*
X47960000Y-7460000D01*
X47960000Y-7460000D02*
X47960000Y-24090819D01*
X47960000Y-24090819D02*
X47138571Y-24912248D01*
%TO.N,/DIG_1*%
X47467032Y-25725000D02*
X46473786Y-25725000D01*
%TO.N,/DIG_3*%
X47135000Y-24135000D02*
X46380072Y-24135000D01*
D22*
%TO.N,GND*%
X25500000Y-8000000D02*
X25500000Y-4000000D01*
X32500000Y-9000000D02*
X32500000Y-5000000D01*
X32500000Y-13000000D02*
X32500000Y-9000000D01*
X32500000Y-17000000D02*
X32500000Y-13000000D01*
X25500000Y-12000000D02*
X25500000Y-8000000D01*
X25500000Y-16000000D02*
X25500000Y-12000000D01*
X32500000Y-17000000D02*
X26500000Y-17000000D01*
X26500000Y-17000000D02*
X25500000Y-16000000D01*
X46000000Y-20500000D02*
X42000000Y-20500000D01*
X38500000Y-17000000D02*
X32500000Y-17000000D01*
X42000000Y-20500000D02*
X38500000Y-17000000D01*
D19*
%TO.N,/DIG_VT_0*%
X31000000Y-24999994D02*
X31000000Y-21000000D01*
D22*
%TO.N,+5V*%
X54500000Y-8000000D02*
X55000000Y-8000000D01*
X57500000Y-12795000D02*
X54500000Y-9795000D01*
X54500000Y-9795000D02*
X54500000Y-8000000D01*
X54500000Y-8000000D02*
X54000000Y-8000000D01*
D20*
X43500000Y-17000000D02*
X43500000Y-11000000D01*
X42500000Y-11000000D02*
X42500000Y-17000000D01*
D22*
%TO.N,GND*%
X41000000Y-28600000D02*
X41000000Y-25500000D01*
X41000000Y-25500000D02*
X46000000Y-20500000D01*
D21*
%TO.N,Net-(J3-Pin_10)*%
X17000000Y-9000000D02*
X17000000Y-11000000D01*
X17000000Y-7000000D02*
X17000000Y-9000000D01*
X17000000Y-5000000D02*
X17000000Y-7000000D01*
X17000000Y-3000000D02*
X17000000Y-5000000D01*
%TO.N,Net-(J2-Pin_10)*%
X11000000Y-7000000D02*
X11000000Y-9000000D01*
X11000000Y-5000000D02*
X11000000Y-7000000D01*
X11000000Y-3000000D02*
X11000000Y-5000000D01*
%TO.N,Net-(J1-Pin_10)*%
X5000000Y-7000000D02*
X5000000Y-9000000D01*
X5000000Y-5000000D02*
X5000000Y-7000000D01*
X5000000Y-3000000D02*
X5000000Y-5000000D01*
X5000000Y-15000000D02*
X5000000Y-17000000D01*
X5000000Y-13000000D02*
X5000000Y-15000000D01*
X5000000Y-11000000D02*
X5000000Y-13000000D01*
X5000000Y-9000000D02*
X5000000Y-11000000D01*
%TO.N,Net-(J2-Pin_10)*%
X11000000Y-11000000D02*
X11000000Y-9000000D01*
X11000000Y-13000000D02*
X11000000Y-11000000D01*
X11000000Y-15000000D02*
X11000000Y-13000000D01*
X11000000Y-17000000D02*
X11000000Y-15000000D01*
%TO.N,Net-(J3-Pin_10)*%
X17000000Y-13000000D02*
X17000000Y-11000000D01*
X17000000Y-15000000D02*
X17000000Y-13000000D01*
X17000000Y-17000000D02*
X17000000Y-15000000D01*
%TO.N,Net-(J4-Pin_10)*%
X23000000Y-15000000D02*
X23000000Y-17000000D01*
X23000000Y-13000000D02*
X23000000Y-15000000D01*
X23000000Y-11000000D02*
X23000000Y-13000000D01*
X23000000Y-9000000D02*
X23000000Y-11000000D01*
X23000000Y-7000000D02*
X23000000Y-9000000D01*
X23000000Y-5000000D02*
X23000000Y-7000000D01*
X23000000Y-3000000D02*
X23000000Y-5000000D01*
%TD*%
%TA.AperFunction,Conductor*%
%TO.N,Net-(J4-Pin_10)*%
G36*
X24443039Y-20185D02*
G01*
X24488794Y-72989D01*
X24500000Y-124500D01*
X24500000Y-18376000D01*
X24480315Y-18443039D01*
X24427511Y-18488794D01*
X24376000Y-18500000D01*
X23500000Y-18500000D01*
X23500000Y-22876000D01*
X23480315Y-22943039D01*
X23427511Y-22988794D01*
X23376000Y-23000000D01*
X19624000Y-23000000D01*
X19556961Y-22980315D01*
X19511206Y-22927511D01*
X19500000Y-22876000D01*
X19500000Y-18624000D01*
X19519685Y-18556961D01*
X19572489Y-18511206D01*
X19624000Y-18500000D01*
X20000000Y-18500000D01*
X20000000Y-17959856D01*
X20019685Y-17892817D01*
X20072489Y-17847062D01*
X20141647Y-17837118D01*
X20205203Y-17866143D01*
X20207513Y-17868196D01*
X20288568Y-17942088D01*
X20288575Y-17942092D01*
X20288576Y-17942093D01*
X20473786Y-18056770D01*
X20473792Y-18056773D01*
X20496664Y-18065633D01*
X20676931Y-18135470D01*
X20891074Y-18175500D01*
X20891076Y-18175500D01*
X21108924Y-18175500D01*
X21108926Y-18175500D01*
X21323069Y-18135470D01*
X21526210Y-18056772D01*
X21711432Y-17942088D01*
X21872427Y-17795322D01*
X21901359Y-17757009D01*
X21957465Y-17715373D01*
X22027177Y-17710680D01*
X22088360Y-17744421D01*
X22099267Y-17757009D01*
X22127942Y-17794981D01*
X22127949Y-17794989D01*
X22288868Y-17941685D01*
X22474012Y-18056322D01*
X22474023Y-18056327D01*
X22677060Y-18134984D01*
X22750000Y-18148619D01*
X22750000Y-17315686D01*
X22761955Y-17327641D01*
X22874852Y-17385165D01*
X22968519Y-17400000D01*
X23031481Y-17400000D01*
X23125148Y-17385165D01*
X23238045Y-17327641D01*
X23250000Y-17315686D01*
X23250000Y-18148619D01*
X23322939Y-18134984D01*
X23525976Y-18056327D01*
X23525987Y-18056322D01*
X23711130Y-17941685D01*
X23711131Y-17941685D01*
X23872054Y-17794985D01*
X24003284Y-17621208D01*
X24100348Y-17426280D01*
X24150505Y-17250000D01*
X23315686Y-17250000D01*
X23327641Y-17238045D01*
X23385165Y-17125148D01*
X23404986Y-17000000D01*
X23385165Y-16874852D01*
X23327641Y-16761955D01*
X23315686Y-16750000D01*
X24150505Y-16750000D01*
X24150505Y-16749999D01*
X24100348Y-16573719D01*
X24003284Y-16378791D01*
X23872056Y-16205017D01*
X23747684Y-16091638D01*
X23711403Y-16031927D01*
X23713163Y-15962079D01*
X23747684Y-15908362D01*
X23872056Y-15794982D01*
X24003284Y-15621208D01*
X24100348Y-15426280D01*
X24150505Y-15250000D01*
X23315686Y-15250000D01*
X23327641Y-15238045D01*
X23385165Y-15125148D01*
X23404986Y-15000000D01*
X23385165Y-14874852D01*
X23327641Y-14761955D01*
X23315686Y-14750000D01*
X24150505Y-14750000D01*
X24150505Y-14749999D01*
X24100348Y-14573719D01*
X24003284Y-14378791D01*
X23872056Y-14205017D01*
X23747684Y-14091638D01*
X23711403Y-14031927D01*
X23713163Y-13962079D01*
X23747684Y-13908362D01*
X23872056Y-13794982D01*
X24003284Y-13621208D01*
X24100348Y-13426280D01*
X24150505Y-13250000D01*
X23315686Y-13250000D01*
X23327641Y-13238045D01*
X23385165Y-13125148D01*
X23404986Y-13000000D01*
X23385165Y-12874852D01*
X23327641Y-12761955D01*
X23315686Y-12750000D01*
X24150505Y-12750000D01*
X24150505Y-12749999D01*
X24100348Y-12573719D01*
X24003284Y-12378791D01*
X23872056Y-12205017D01*
X23747684Y-12091638D01*
X23711403Y-12031927D01*
X23713163Y-11962079D01*
X23747684Y-11908362D01*
X23872056Y-11794982D01*
X24003284Y-11621208D01*
X24100348Y-11426280D01*
X24150505Y-11250000D01*
X23315686Y-11250000D01*
X23327641Y-11238045D01*
X23385165Y-11125148D01*
X23404986Y-11000000D01*
X23385165Y-10874852D01*
X23327641Y-10761955D01*
X23315686Y-10750000D01*
X24150505Y-10750000D01*
X24150505Y-10749999D01*
X24100348Y-10573719D01*
X24003284Y-10378791D01*
X23872056Y-10205017D01*
X23747684Y-10091638D01*
X23711403Y-10031927D01*
X23713163Y-9962079D01*
X23747684Y-9908362D01*
X23872056Y-9794982D01*
X24003284Y-9621208D01*
X24100348Y-9426280D01*
X24150505Y-9250000D01*
X23315686Y-9250000D01*
X23327641Y-9238045D01*
X23385165Y-9125148D01*
X23404986Y-9000000D01*
X23385165Y-8874852D01*
X23327641Y-8761955D01*
X23315686Y-8750000D01*
X24150505Y-8750000D01*
X24150505Y-8749999D01*
X24100348Y-8573719D01*
X24003284Y-8378791D01*
X23872056Y-8205017D01*
X23747684Y-8091638D01*
X23711403Y-8031927D01*
X23713163Y-7962079D01*
X23747684Y-7908362D01*
X23872056Y-7794982D01*
X24003284Y-7621208D01*
X24100348Y-7426280D01*
X24150505Y-7250000D01*
X23315686Y-7250000D01*
X23327641Y-7238045D01*
X23385165Y-7125148D01*
X23404986Y-7000000D01*
X23385165Y-6874852D01*
X23327641Y-6761955D01*
X23315686Y-6750000D01*
X24150505Y-6750000D01*
X24150505Y-6749999D01*
X24100348Y-6573719D01*
X24003284Y-6378791D01*
X23872056Y-6205017D01*
X23747684Y-6091638D01*
X23711403Y-6031927D01*
X23713163Y-5962079D01*
X23747684Y-5908362D01*
X23872056Y-5794982D01*
X24003284Y-5621208D01*
X24100348Y-5426280D01*
X24150505Y-5250000D01*
X23315686Y-5250000D01*
X23327641Y-5238045D01*
X23385165Y-5125148D01*
X23404986Y-5000000D01*
X23385165Y-4874852D01*
X23327641Y-4761955D01*
X23315686Y-4750000D01*
X24150505Y-4750000D01*
X24150505Y-4749999D01*
X24100348Y-4573719D01*
X24003284Y-4378791D01*
X23872056Y-4205017D01*
X23747684Y-4091638D01*
X23711403Y-4031927D01*
X23713163Y-3962079D01*
X23747684Y-3908362D01*
X23872056Y-3794982D01*
X24003284Y-3621208D01*
X24100348Y-3426280D01*
X24150505Y-3250000D01*
X23315686Y-3250000D01*
X23327641Y-3238045D01*
X23385165Y-3125148D01*
X23404986Y-3000000D01*
X23385165Y-2874852D01*
X23327641Y-2761955D01*
X23315686Y-2750000D01*
X24150505Y-2750000D01*
X24150505Y-2749999D01*
X24100348Y-2573719D01*
X24003284Y-2378791D01*
X23872054Y-2205014D01*
X23711131Y-2058314D01*
X23525987Y-1943677D01*
X23525985Y-1943676D01*
X23322931Y-1865013D01*
X23322921Y-1865010D01*
X23250001Y-1851378D01*
X23250000Y-1851379D01*
X23250000Y-2684314D01*
X23238045Y-2672359D01*
X23125148Y-2614835D01*
X23031481Y-2600000D01*
X22968519Y-2600000D01*
X22874852Y-2614835D01*
X22761955Y-2672359D01*
X22750000Y-2684314D01*
X22750000Y-1851379D01*
X22749998Y-1851378D01*
X22677078Y-1865010D01*
X22677068Y-1865013D01*
X22474014Y-1943676D01*
X22474012Y-1943677D01*
X22288869Y-2058314D01*
X22288868Y-2058314D01*
X22277887Y-2068325D01*
X22215082Y-2098940D01*
X22145695Y-2090740D01*
X22095086Y-2050997D01*
X22032546Y-1967454D01*
X22000783Y-1943676D01*
X21917335Y-1881206D01*
X21917328Y-1881202D01*
X21782482Y-1830908D01*
X21782483Y-1830908D01*
X21722883Y-1824501D01*
X21722881Y-1824500D01*
X21722873Y-1824500D01*
X21722864Y-1824500D01*
X20277129Y-1824500D01*
X20277123Y-1824501D01*
X20217516Y-1830908D01*
X20167333Y-1849626D01*
X20097641Y-1854610D01*
X20036318Y-1821125D01*
X20002834Y-1759801D01*
X20000000Y-1733444D01*
X20000000Y-124500D01*
X20019685Y-57461D01*
X20072489Y-11706D01*
X20124000Y-500D01*
X24376000Y-500D01*
X24443039Y-20185D01*
G37*
%TD.AperFunction*%
%TA.AperFunction,Conductor*%
G36*
X23250000Y-16684314D02*
G01*
X23238045Y-16672359D01*
X23125148Y-16614835D01*
X23031481Y-16600000D01*
X22968519Y-16600000D01*
X22874852Y-16614835D01*
X22761955Y-16672359D01*
X22750000Y-16684314D01*
X22750000Y-15315686D01*
X22761955Y-15327641D01*
X22874852Y-15385165D01*
X22968519Y-15400000D01*
X23031481Y-15400000D01*
X23125148Y-15385165D01*
X23238045Y-15327641D01*
X23250000Y-15315686D01*
X23250000Y-16684314D01*
G37*
%TD.AperFunction*%
%TA.AperFunction,Conductor*%
G36*
X23250000Y-14684314D02*
G01*
X23238045Y-14672359D01*
X23125148Y-14614835D01*
X23031481Y-14600000D01*
X22968519Y-14600000D01*
X22874852Y-14614835D01*
X22761955Y-14672359D01*
X22750000Y-14684314D01*
X22750000Y-13315686D01*
X22761955Y-13327641D01*
X22874852Y-13385165D01*
X22968519Y-13400000D01*
X23031481Y-13400000D01*
X23125148Y-13385165D01*
X23238045Y-13327641D01*
X23250000Y-13315686D01*
X23250000Y-14684314D01*
G37*
%TD.AperFunction*%
%TA.AperFunction,Conductor*%
G36*
X23250000Y-12684314D02*
G01*
X23238045Y-12672359D01*
X23125148Y-12614835D01*
X23031481Y-12600000D01*
X22968519Y-12600000D01*
X22874852Y-12614835D01*
X22761955Y-12672359D01*
X22750000Y-12684314D01*
X22750000Y-11315686D01*
X22761955Y-11327641D01*
X22874852Y-11385165D01*
X22968519Y-11400000D01*
X23031481Y-11400000D01*
X23125148Y-11385165D01*
X23238045Y-11327641D01*
X23250000Y-11315686D01*
X23250000Y-12684314D01*
G37*
%TD.AperFunction*%
%TA.AperFunction,Conductor*%
G36*
X23250000Y-10684314D02*
G01*
X23238045Y-10672359D01*
X23125148Y-10614835D01*
X23031481Y-10600000D01*
X22968519Y-10600000D01*
X22874852Y-10614835D01*
X22761955Y-10672359D01*
X22750000Y-10684314D01*
X22750000Y-9315686D01*
X22761955Y-9327641D01*
X22874852Y-9385165D01*
X22968519Y-9400000D01*
X23031481Y-9400000D01*
X23125148Y-9385165D01*
X23238045Y-9327641D01*
X23250000Y-9315686D01*
X23250000Y-10684314D01*
G37*
%TD.AperFunction*%
%TA.AperFunction,Conductor*%
G36*
X23250000Y-8684314D02*
G01*
X23238045Y-8672359D01*
X23125148Y-8614835D01*
X23031481Y-8600000D01*
X22968519Y-8600000D01*
X22874852Y-8614835D01*
X22761955Y-8672359D01*
X22750000Y-8684314D01*
X22750000Y-7315686D01*
X22761955Y-7327641D01*
X22874852Y-7385165D01*
X22968519Y-7400000D01*
X23031481Y-7400000D01*
X23125148Y-7385165D01*
X23238045Y-7327641D01*
X23250000Y-7315686D01*
X23250000Y-8684314D01*
G37*
%TD.AperFunction*%
%TA.AperFunction,Conductor*%
G36*
X23250000Y-6684314D02*
G01*
X23238045Y-6672359D01*
X23125148Y-6614835D01*
X23031481Y-6600000D01*
X22968519Y-6600000D01*
X22874852Y-6614835D01*
X22761955Y-6672359D01*
X22750000Y-6684314D01*
X22750000Y-5315686D01*
X22761955Y-5327641D01*
X22874852Y-5385165D01*
X22968519Y-5400000D01*
X23031481Y-5400000D01*
X23125148Y-5385165D01*
X23238045Y-5327641D01*
X23250000Y-5315686D01*
X23250000Y-6684314D01*
G37*
%TD.AperFunction*%
%TA.AperFunction,Conductor*%
G36*
X23250000Y-4684314D02*
G01*
X23238045Y-4672359D01*
X23125148Y-4614835D01*
X23031481Y-4600000D01*
X22968519Y-4600000D01*
X22874852Y-4614835D01*
X22761955Y-4672359D01*
X22750000Y-4684314D01*
X22750000Y-3315686D01*
X22761955Y-3327641D01*
X22874852Y-3385165D01*
X22968519Y-3400000D01*
X23031481Y-3400000D01*
X23125148Y-3385165D01*
X23238045Y-3327641D01*
X23250000Y-3315686D01*
X23250000Y-4684314D01*
G37*
%TD.AperFunction*%
%TD*%
%TA.AperFunction,Conductor*%
%TO.N,Net-(J3-Pin_10)*%
G36*
X19437539Y-20185D02*
G01*
X19483294Y-72989D01*
X19494500Y-124500D01*
X19494500Y-1746984D01*
X19495950Y-1774024D01*
X19495951Y-1774030D01*
X19500231Y-1813846D01*
X19500232Y-1813847D01*
X19508883Y-1867241D01*
X19508884Y-1867246D01*
X19559161Y-2002049D01*
X19559162Y-2002052D01*
X19559163Y-2002053D01*
X19592647Y-2063377D01*
X19592653Y-2063388D01*
X19678874Y-2178566D01*
X19774810Y-2250383D01*
X19816682Y-2306316D01*
X19824500Y-2349650D01*
X19824500Y-3722870D01*
X19824501Y-3722876D01*
X19830908Y-3782483D01*
X19881202Y-3917328D01*
X19881203Y-3917329D01*
X19881204Y-3917331D01*
X19965646Y-4030131D01*
X19972769Y-4039646D01*
X19970529Y-4041322D01*
X19997161Y-4090072D01*
X20000000Y-4116454D01*
X20000000Y-4341907D01*
X19987000Y-4397178D01*
X19899185Y-4573534D01*
X19899184Y-4573535D01*
X19839564Y-4783081D01*
X19819464Y-4999999D01*
X19819464Y-5000000D01*
X19839564Y-5216918D01*
X19839564Y-5216920D01*
X19839565Y-5216923D01*
X19865888Y-5309438D01*
X19899184Y-5426462D01*
X19987000Y-5602819D01*
X20000000Y-5658091D01*
X20000000Y-6341907D01*
X19987000Y-6397178D01*
X19899185Y-6573534D01*
X19899184Y-6573535D01*
X19839564Y-6783081D01*
X19819464Y-6999999D01*
X19819464Y-7000000D01*
X19839564Y-7216918D01*
X19839564Y-7216920D01*
X19839565Y-7216923D01*
X19865888Y-7309438D01*
X19899184Y-7426462D01*
X19987000Y-7602819D01*
X20000000Y-7658091D01*
X20000000Y-8341907D01*
X19987000Y-8397178D01*
X19899185Y-8573534D01*
X19899184Y-8573535D01*
X19839564Y-8783081D01*
X19819464Y-8999999D01*
X19819464Y-9000000D01*
X19839564Y-9216918D01*
X19839564Y-9216920D01*
X19839565Y-9216923D01*
X19865888Y-9309438D01*
X19899184Y-9426462D01*
X19987000Y-9602819D01*
X20000000Y-9658091D01*
X20000000Y-10341907D01*
X19987000Y-10397178D01*
X19899185Y-10573534D01*
X19899184Y-10573535D01*
X19839564Y-10783081D01*
X19819464Y-10999999D01*
X19819464Y-11000000D01*
X19839564Y-11216918D01*
X19839564Y-11216920D01*
X19839565Y-11216923D01*
X19865888Y-11309438D01*
X19899184Y-11426462D01*
X19987000Y-11602819D01*
X20000000Y-11658091D01*
X20000000Y-12341907D01*
X19987000Y-12397178D01*
X19899185Y-12573534D01*
X19899184Y-12573535D01*
X19839564Y-12783081D01*
X19819464Y-12999999D01*
X19819464Y-13000000D01*
X19839564Y-13216918D01*
X19839564Y-13216920D01*
X19839565Y-13216923D01*
X19865888Y-13309438D01*
X19899184Y-13426462D01*
X19987000Y-13602819D01*
X20000000Y-13658091D01*
X20000000Y-14341907D01*
X19987000Y-14397178D01*
X19899185Y-14573534D01*
X19899184Y-14573535D01*
X19839564Y-14783081D01*
X19819464Y-14999999D01*
X19819464Y-15000000D01*
X19839564Y-15216918D01*
X19839564Y-15216920D01*
X19839565Y-15216923D01*
X19865888Y-15309438D01*
X19899184Y-15426462D01*
X19987000Y-15602819D01*
X20000000Y-15658091D01*
X20000000Y-16341907D01*
X19987000Y-16397178D01*
X19899185Y-16573534D01*
X19899184Y-16573535D01*
X19839564Y-16783081D01*
X19819464Y-16999999D01*
X19819464Y-17000000D01*
X19839564Y-17216918D01*
X19839564Y-17216920D01*
X19839565Y-17216923D01*
X19858897Y-17284872D01*
X19858310Y-17354738D01*
X19820043Y-17413196D01*
X19806671Y-17423119D01*
X19741462Y-17465026D01*
X19741451Y-17465035D01*
X19688659Y-17510779D01*
X19594433Y-17619520D01*
X19594430Y-17619524D01*
X19534664Y-17750390D01*
X19514978Y-17817431D01*
X19514976Y-17817436D01*
X19504019Y-17893647D01*
X19474994Y-17957203D01*
X19416216Y-17994977D01*
X19381281Y-18000000D01*
X19000000Y-18000000D01*
X19000000Y-18576877D01*
X18998738Y-18594523D01*
X18994500Y-18623998D01*
X18994500Y-22876000D01*
X18974815Y-22943039D01*
X18922011Y-22988794D01*
X18870500Y-23000000D01*
X14629500Y-23000000D01*
X14562461Y-22980315D01*
X14516706Y-22927511D01*
X14505500Y-22876000D01*
X14505500Y-18250074D01*
X14525185Y-18183035D01*
X14577989Y-18137280D01*
X14647147Y-18127336D01*
X14674295Y-18134449D01*
X14676931Y-18135470D01*
X14891074Y-18175500D01*
X14891076Y-18175500D01*
X15108924Y-18175500D01*
X15108926Y-18175500D01*
X15323069Y-18135470D01*
X15526210Y-18056772D01*
X15711432Y-17942088D01*
X15872427Y-17795322D01*
X15901359Y-17757009D01*
X15957465Y-17715373D01*
X16027177Y-17710680D01*
X16088360Y-17744421D01*
X16099267Y-17757009D01*
X16127942Y-17794981D01*
X16127949Y-17794989D01*
X16288868Y-17941685D01*
X16474012Y-18056322D01*
X16474023Y-18056327D01*
X16677060Y-18134984D01*
X16750000Y-18148619D01*
X16750000Y-17315686D01*
X16761955Y-17327641D01*
X16874852Y-17385165D01*
X16968519Y-17400000D01*
X17031481Y-17400000D01*
X17125148Y-17385165D01*
X17238045Y-17327641D01*
X17250000Y-17315686D01*
X17250000Y-18148619D01*
X17322939Y-18134984D01*
X17525976Y-18056327D01*
X17525987Y-18056322D01*
X17711130Y-17941685D01*
X17711131Y-17941685D01*
X17872054Y-17794985D01*
X18003284Y-17621208D01*
X18100348Y-17426280D01*
X18150505Y-17250000D01*
X17315686Y-17250000D01*
X17327641Y-17238045D01*
X17385165Y-17125148D01*
X17404986Y-17000000D01*
X17385165Y-16874852D01*
X17327641Y-16761955D01*
X17315686Y-16750000D01*
X18150505Y-16750000D01*
X18150505Y-16749999D01*
X18100348Y-16573719D01*
X18003284Y-16378791D01*
X17872056Y-16205017D01*
X17747684Y-16091638D01*
X17711403Y-16031927D01*
X17713163Y-15962079D01*
X17747684Y-15908362D01*
X17872056Y-15794982D01*
X18003284Y-15621208D01*
X18100348Y-15426280D01*
X18150505Y-15250000D01*
X17315686Y-15250000D01*
X17327641Y-15238045D01*
X17385165Y-15125148D01*
X17404986Y-15000000D01*
X17385165Y-14874852D01*
X17327641Y-14761955D01*
X17315686Y-14750000D01*
X18150505Y-14750000D01*
X18150505Y-14749999D01*
X18100348Y-14573719D01*
X18003284Y-14378791D01*
X17872056Y-14205017D01*
X17747684Y-14091638D01*
X17711403Y-14031927D01*
X17713163Y-13962079D01*
X17747684Y-13908362D01*
X17872056Y-13794982D01*
X18003284Y-13621208D01*
X18100348Y-13426280D01*
X18150505Y-13250000D01*
X17315686Y-13250000D01*
X17327641Y-13238045D01*
X17385165Y-13125148D01*
X17404986Y-13000000D01*
X17385165Y-12874852D01*
X17327641Y-12761955D01*
X17315686Y-12750000D01*
X18150505Y-12750000D01*
X18150505Y-12749999D01*
X18100348Y-12573719D01*
X18003284Y-12378791D01*
X17872056Y-12205017D01*
X17747684Y-12091638D01*
X17711403Y-12031927D01*
X17713163Y-11962079D01*
X17747684Y-11908362D01*
X17872056Y-11794982D01*
X18003284Y-11621208D01*
X18100348Y-11426280D01*
X18150505Y-11250000D01*
X17315686Y-11250000D01*
X17327641Y-11238045D01*
X17385165Y-11125148D01*
X17404986Y-11000000D01*
X17385165Y-10874852D01*
X17327641Y-10761955D01*
X17315686Y-10750000D01*
X18150505Y-10750000D01*
X18150505Y-10749999D01*
X18100348Y-10573719D01*
X18003284Y-10378791D01*
X17872056Y-10205017D01*
X17747684Y-10091638D01*
X17711403Y-10031927D01*
X17713163Y-9962079D01*
X17747684Y-9908362D01*
X17872056Y-9794982D01*
X18003284Y-9621208D01*
X18100348Y-9426280D01*
X18150505Y-9250000D01*
X17315686Y-9250000D01*
X17327641Y-9238045D01*
X17385165Y-9125148D01*
X17404986Y-9000000D01*
X17385165Y-8874852D01*
X17327641Y-8761955D01*
X17315686Y-8750000D01*
X18150505Y-8750000D01*
X18150505Y-8749999D01*
X18100348Y-8573719D01*
X18003284Y-8378791D01*
X17872056Y-8205017D01*
X17747684Y-8091638D01*
X17711403Y-8031927D01*
X17713163Y-7962079D01*
X17747684Y-7908362D01*
X17872056Y-7794982D01*
X18003284Y-7621208D01*
X18100348Y-7426280D01*
X18150505Y-7250000D01*
X17315686Y-7250000D01*
X17327641Y-7238045D01*
X17385165Y-7125148D01*
X17404986Y-7000000D01*
X17385165Y-6874852D01*
X17327641Y-6761955D01*
X17315686Y-6750000D01*
X18150505Y-6750000D01*
X18150505Y-6749999D01*
X18100348Y-6573719D01*
X18003284Y-6378791D01*
X17872056Y-6205017D01*
X17747684Y-6091638D01*
X17711403Y-6031927D01*
X17713163Y-5962079D01*
X17747684Y-5908362D01*
X17872056Y-5794982D01*
X18003284Y-5621208D01*
X18100348Y-5426280D01*
X18150505Y-5250000D01*
X17315686Y-5250000D01*
X17327641Y-5238045D01*
X17385165Y-5125148D01*
X17404986Y-5000000D01*
X17385165Y-4874852D01*
X17327641Y-4761955D01*
X17315686Y-4750000D01*
X18150505Y-4750000D01*
X18150505Y-4749999D01*
X18100348Y-4573719D01*
X18003284Y-4378791D01*
X17872056Y-4205017D01*
X17747684Y-4091638D01*
X17711403Y-4031927D01*
X17713163Y-3962079D01*
X17747684Y-3908362D01*
X17872056Y-3794982D01*
X18003284Y-3621208D01*
X18100348Y-3426280D01*
X18150505Y-3250000D01*
X17315686Y-3250000D01*
X17327641Y-3238045D01*
X17385165Y-3125148D01*
X17404986Y-3000000D01*
X17385165Y-2874852D01*
X17327641Y-2761955D01*
X17315686Y-2750000D01*
X18150505Y-2750000D01*
X18150505Y-2749999D01*
X18100348Y-2573719D01*
X18003284Y-2378791D01*
X17872054Y-2205014D01*
X17711131Y-2058314D01*
X17525987Y-1943677D01*
X17525985Y-1943676D01*
X17322931Y-1865013D01*
X17322921Y-1865010D01*
X17250001Y-1851378D01*
X17250000Y-1851379D01*
X17250000Y-2684314D01*
X17238045Y-2672359D01*
X17125148Y-2614835D01*
X17031481Y-2600000D01*
X16968519Y-2600000D01*
X16874852Y-2614835D01*
X16761955Y-2672359D01*
X16750000Y-2684314D01*
X16750000Y-1851379D01*
X16749998Y-1851378D01*
X16677078Y-1865010D01*
X16677068Y-1865013D01*
X16474014Y-1943676D01*
X16474012Y-1943677D01*
X16288869Y-2058314D01*
X16288868Y-2058314D01*
X16277887Y-2068325D01*
X16215082Y-2098940D01*
X16145695Y-2090740D01*
X16095086Y-2050997D01*
X16032546Y-1967454D01*
X16000783Y-1943676D01*
X15917335Y-1881206D01*
X15917328Y-1881202D01*
X15782482Y-1830908D01*
X15782483Y-1830908D01*
X15722883Y-1824501D01*
X15722881Y-1824500D01*
X15722873Y-1824500D01*
X15722865Y-1824500D01*
X14629500Y-1824500D01*
X14562461Y-1804815D01*
X14516706Y-1752011D01*
X14505500Y-1700500D01*
X14505500Y-124500D01*
X14525185Y-57461D01*
X14577989Y-11706D01*
X14629500Y-500D01*
X19370500Y-500D01*
X19437539Y-20185D01*
G37*
%TD.AperFunction*%
%TA.AperFunction,Conductor*%
G36*
X17250000Y-16684314D02*
G01*
X17238045Y-16672359D01*
X17125148Y-16614835D01*
X17031481Y-16600000D01*
X16968519Y-16600000D01*
X16874852Y-16614835D01*
X16761955Y-16672359D01*
X16750000Y-16684314D01*
X16750000Y-15315686D01*
X16761955Y-15327641D01*
X16874852Y-15385165D01*
X16968519Y-15400000D01*
X17031481Y-15400000D01*
X17125148Y-15385165D01*
X17238045Y-15327641D01*
X17250000Y-15315686D01*
X17250000Y-16684314D01*
G37*
%TD.AperFunction*%
%TA.AperFunction,Conductor*%
G36*
X17250000Y-14684314D02*
G01*
X17238045Y-14672359D01*
X17125148Y-14614835D01*
X17031481Y-14600000D01*
X16968519Y-14600000D01*
X16874852Y-14614835D01*
X16761955Y-14672359D01*
X16750000Y-14684314D01*
X16750000Y-13315686D01*
X16761955Y-13327641D01*
X16874852Y-13385165D01*
X16968519Y-13400000D01*
X17031481Y-13400000D01*
X17125148Y-13385165D01*
X17238045Y-13327641D01*
X17250000Y-13315686D01*
X17250000Y-14684314D01*
G37*
%TD.AperFunction*%
%TA.AperFunction,Conductor*%
G36*
X17250000Y-12684314D02*
G01*
X17238045Y-12672359D01*
X17125148Y-12614835D01*
X17031481Y-12600000D01*
X16968519Y-12600000D01*
X16874852Y-12614835D01*
X16761955Y-12672359D01*
X16750000Y-12684314D01*
X16750000Y-11315686D01*
X16761955Y-11327641D01*
X16874852Y-11385165D01*
X16968519Y-11400000D01*
X17031481Y-11400000D01*
X17125148Y-11385165D01*
X17238045Y-11327641D01*
X17250000Y-11315686D01*
X17250000Y-12684314D01*
G37*
%TD.AperFunction*%
%TA.AperFunction,Conductor*%
G36*
X17250000Y-10684314D02*
G01*
X17238045Y-10672359D01*
X17125148Y-10614835D01*
X17031481Y-10600000D01*
X16968519Y-10600000D01*
X16874852Y-10614835D01*
X16761955Y-10672359D01*
X16750000Y-10684314D01*
X16750000Y-9315686D01*
X16761955Y-9327641D01*
X16874852Y-9385165D01*
X16968519Y-9400000D01*
X17031481Y-9400000D01*
X17125148Y-9385165D01*
X17238045Y-9327641D01*
X17250000Y-9315686D01*
X17250000Y-10684314D01*
G37*
%TD.AperFunction*%
%TA.AperFunction,Conductor*%
G36*
X17250000Y-8684314D02*
G01*
X17238045Y-8672359D01*
X17125148Y-8614835D01*
X17031481Y-8600000D01*
X16968519Y-8600000D01*
X16874852Y-8614835D01*
X16761955Y-8672359D01*
X16750000Y-8684314D01*
X16750000Y-7315686D01*
X16761955Y-7327641D01*
X16874852Y-7385165D01*
X16968519Y-7400000D01*
X17031481Y-7400000D01*
X17125148Y-7385165D01*
X17238045Y-7327641D01*
X17250000Y-7315686D01*
X17250000Y-8684314D01*
G37*
%TD.AperFunction*%
%TA.AperFunction,Conductor*%
G36*
X17250000Y-6684314D02*
G01*
X17238045Y-6672359D01*
X17125148Y-6614835D01*
X17031481Y-6600000D01*
X16968519Y-6600000D01*
X16874852Y-6614835D01*
X16761955Y-6672359D01*
X16750000Y-6684314D01*
X16750000Y-5315686D01*
X16761955Y-5327641D01*
X16874852Y-5385165D01*
X16968519Y-5400000D01*
X17031481Y-5400000D01*
X17125148Y-5385165D01*
X17238045Y-5327641D01*
X17250000Y-5315686D01*
X17250000Y-6684314D01*
G37*
%TD.AperFunction*%
%TA.AperFunction,Conductor*%
G36*
X17250000Y-4684314D02*
G01*
X17238045Y-4672359D01*
X17125148Y-4614835D01*
X17031481Y-4600000D01*
X16968519Y-4600000D01*
X16874852Y-4614835D01*
X16761955Y-4672359D01*
X16750000Y-4684314D01*
X16750000Y-3315686D01*
X16761955Y-3327641D01*
X16874852Y-3385165D01*
X16968519Y-3400000D01*
X17031481Y-3400000D01*
X17125148Y-3385165D01*
X17238045Y-3327641D01*
X17250000Y-3315686D01*
X17250000Y-4684314D01*
G37*
%TD.AperFunction*%
%TD*%
%TA.AperFunction,Conductor*%
%TO.N,Net-(J2-Pin_10)*%
G36*
X13943039Y-20185D02*
G01*
X13988794Y-72989D01*
X14000000Y-124500D01*
X14000000Y-1883546D01*
X13980315Y-1950585D01*
X13972564Y-1960202D01*
X13972768Y-1960355D01*
X13881206Y-2082664D01*
X13881202Y-2082671D01*
X13830908Y-2217517D01*
X13824501Y-2277116D01*
X13824500Y-2277135D01*
X13824500Y-3722870D01*
X13824501Y-3722876D01*
X13830908Y-3782483D01*
X13881202Y-3917328D01*
X13881203Y-3917329D01*
X13881204Y-3917331D01*
X13965646Y-4030131D01*
X13972769Y-4039646D01*
X13970529Y-4041322D01*
X13997161Y-4090072D01*
X14000000Y-4116454D01*
X14000000Y-4341907D01*
X13987000Y-4397178D01*
X13899185Y-4573534D01*
X13899184Y-4573535D01*
X13839564Y-4783081D01*
X13819464Y-4999999D01*
X13819464Y-5000000D01*
X13839564Y-5216918D01*
X13839564Y-5216920D01*
X13839565Y-5216923D01*
X13871067Y-5327641D01*
X13899184Y-5426462D01*
X13987000Y-5602819D01*
X14000000Y-5658091D01*
X14000000Y-6341907D01*
X13987000Y-6397178D01*
X13899185Y-6573534D01*
X13899184Y-6573535D01*
X13839564Y-6783081D01*
X13819464Y-6999999D01*
X13819464Y-7000000D01*
X13839564Y-7216918D01*
X13839564Y-7216920D01*
X13839565Y-7216923D01*
X13871067Y-7327641D01*
X13899184Y-7426462D01*
X13987000Y-7602819D01*
X14000000Y-7658091D01*
X14000000Y-8341907D01*
X13987000Y-8397178D01*
X13899185Y-8573534D01*
X13899184Y-8573535D01*
X13839564Y-8783081D01*
X13819464Y-8999999D01*
X13819464Y-9000000D01*
X13839564Y-9216918D01*
X13839564Y-9216920D01*
X13839565Y-9216923D01*
X13871067Y-9327641D01*
X13899184Y-9426462D01*
X13987000Y-9602819D01*
X14000000Y-9658091D01*
X14000000Y-10341907D01*
X13987000Y-10397178D01*
X13899185Y-10573534D01*
X13899184Y-10573535D01*
X13839564Y-10783081D01*
X13819464Y-10999999D01*
X13819464Y-11000000D01*
X13839564Y-11216918D01*
X13839564Y-11216920D01*
X13839565Y-11216923D01*
X13871067Y-11327641D01*
X13899184Y-11426462D01*
X13987000Y-11602819D01*
X14000000Y-11658091D01*
X14000000Y-12341907D01*
X13987000Y-12397178D01*
X13899185Y-12573534D01*
X13899184Y-12573535D01*
X13839564Y-12783081D01*
X13819464Y-12999999D01*
X13819464Y-13000000D01*
X13839564Y-13216918D01*
X13839564Y-13216920D01*
X13839565Y-13216923D01*
X13871067Y-13327641D01*
X13899184Y-13426462D01*
X13987000Y-13602819D01*
X14000000Y-13658091D01*
X14000000Y-14341907D01*
X13987000Y-14397178D01*
X13899185Y-14573534D01*
X13899184Y-14573535D01*
X13839564Y-14783081D01*
X13819464Y-14999999D01*
X13819464Y-15000000D01*
X13839564Y-15216918D01*
X13839564Y-15216920D01*
X13839565Y-15216923D01*
X13871067Y-15327641D01*
X13899184Y-15426462D01*
X13987000Y-15602819D01*
X14000000Y-15658091D01*
X14000000Y-16341907D01*
X13987000Y-16397178D01*
X13899185Y-16573534D01*
X13899184Y-16573535D01*
X13839564Y-16783081D01*
X13819464Y-16999999D01*
X13819464Y-17000000D01*
X13839564Y-17216918D01*
X13839564Y-17216920D01*
X13839565Y-17216923D01*
X13871067Y-17327641D01*
X13899184Y-17426462D01*
X13987000Y-17602819D01*
X14000000Y-17658091D01*
X14000000Y-22876000D01*
X13980315Y-22943039D01*
X13927511Y-22988794D01*
X13876000Y-23000000D01*
X7624000Y-23000000D01*
X7556961Y-22980315D01*
X7511206Y-22927511D01*
X7500000Y-22876000D01*
X7500000Y-18624000D01*
X7519685Y-18556961D01*
X7572489Y-18511206D01*
X7624000Y-18500000D01*
X8000000Y-18500000D01*
X8000000Y-17959856D01*
X8019685Y-17892817D01*
X8072489Y-17847062D01*
X8141647Y-17837118D01*
X8205203Y-17866143D01*
X8207513Y-17868196D01*
X8288568Y-17942088D01*
X8288575Y-17942092D01*
X8288576Y-17942093D01*
X8473786Y-18056770D01*
X8473792Y-18056773D01*
X8496664Y-18065633D01*
X8676931Y-18135470D01*
X8891074Y-18175500D01*
X8891076Y-18175500D01*
X9108924Y-18175500D01*
X9108926Y-18175500D01*
X9323069Y-18135470D01*
X9526210Y-18056772D01*
X9711432Y-17942088D01*
X9872427Y-17795322D01*
X9901359Y-17757009D01*
X9957465Y-17715373D01*
X10027177Y-17710680D01*
X10088360Y-17744421D01*
X10099267Y-17757009D01*
X10127942Y-17794981D01*
X10127949Y-17794989D01*
X10288868Y-17941685D01*
X10474012Y-18056322D01*
X10474023Y-18056327D01*
X10677060Y-18134984D01*
X10750000Y-18148619D01*
X10750000Y-17315686D01*
X10761955Y-17327641D01*
X10874852Y-17385165D01*
X10968519Y-17400000D01*
X11031481Y-17400000D01*
X11125148Y-17385165D01*
X11238045Y-17327641D01*
X11250000Y-17315686D01*
X11250000Y-18148619D01*
X11322939Y-18134984D01*
X11525976Y-18056327D01*
X11525987Y-18056322D01*
X11711130Y-17941685D01*
X11711131Y-17941685D01*
X11872054Y-17794985D01*
X12003284Y-17621208D01*
X12100348Y-17426280D01*
X12150505Y-17250000D01*
X11315686Y-17250000D01*
X11327641Y-17238045D01*
X11385165Y-17125148D01*
X11404986Y-17000000D01*
X11385165Y-16874852D01*
X11327641Y-16761955D01*
X11315686Y-16750000D01*
X12150505Y-16750000D01*
X12150505Y-16749999D01*
X12100348Y-16573719D01*
X12003284Y-16378791D01*
X11872056Y-16205017D01*
X11747684Y-16091638D01*
X11711403Y-16031927D01*
X11713163Y-15962079D01*
X11747684Y-15908362D01*
X11872056Y-15794982D01*
X12003284Y-15621208D01*
X12100348Y-15426280D01*
X12150505Y-15250000D01*
X11315686Y-15250000D01*
X11327641Y-15238045D01*
X11385165Y-15125148D01*
X11404986Y-15000000D01*
X11385165Y-14874852D01*
X11327641Y-14761955D01*
X11315686Y-14750000D01*
X12150505Y-14750000D01*
X12150505Y-14749999D01*
X12100348Y-14573719D01*
X12003284Y-14378791D01*
X11872056Y-14205017D01*
X11747684Y-14091638D01*
X11711403Y-14031927D01*
X11713163Y-13962079D01*
X11747684Y-13908362D01*
X11872056Y-13794982D01*
X12003284Y-13621208D01*
X12100348Y-13426280D01*
X12150505Y-13250000D01*
X11315686Y-13250000D01*
X11327641Y-13238045D01*
X11385165Y-13125148D01*
X11404986Y-13000000D01*
X11385165Y-12874852D01*
X11327641Y-12761955D01*
X11315686Y-12750000D01*
X12150505Y-12750000D01*
X12150505Y-12749999D01*
X12100348Y-12573719D01*
X12003284Y-12378791D01*
X11872056Y-12205017D01*
X11747684Y-12091638D01*
X11711403Y-12031927D01*
X11713163Y-11962079D01*
X11747684Y-11908362D01*
X11872056Y-11794982D01*
X12003284Y-11621208D01*
X12100348Y-11426280D01*
X12150505Y-11250000D01*
X11315686Y-11250000D01*
X11327641Y-11238045D01*
X11385165Y-11125148D01*
X11404986Y-11000000D01*
X11385165Y-10874852D01*
X11327641Y-10761955D01*
X11315686Y-10750000D01*
X12150505Y-10750000D01*
X12150505Y-10749999D01*
X12100348Y-10573719D01*
X12003284Y-10378791D01*
X11872056Y-10205017D01*
X11747684Y-10091638D01*
X11711403Y-10031927D01*
X11713163Y-9962079D01*
X11747684Y-9908362D01*
X11872056Y-9794982D01*
X12003284Y-9621208D01*
X12100348Y-9426280D01*
X12150505Y-9250000D01*
X11315686Y-9250000D01*
X11327641Y-9238045D01*
X11385165Y-9125148D01*
X11404986Y-9000000D01*
X11385165Y-8874852D01*
X11327641Y-8761955D01*
X11315686Y-8750000D01*
X12150505Y-8750000D01*
X12150505Y-8749999D01*
X12100348Y-8573719D01*
X12003284Y-8378791D01*
X11872056Y-8205017D01*
X11747684Y-8091638D01*
X11711403Y-8031927D01*
X11713163Y-7962079D01*
X11747684Y-7908362D01*
X11872056Y-7794982D01*
X12003284Y-7621208D01*
X12100348Y-7426280D01*
X12150505Y-7250000D01*
X11315686Y-7250000D01*
X11327641Y-7238045D01*
X11385165Y-7125148D01*
X11404986Y-7000000D01*
X11385165Y-6874852D01*
X11327641Y-6761955D01*
X11315686Y-6750000D01*
X12150505Y-6750000D01*
X12150505Y-6749999D01*
X12100348Y-6573719D01*
X12003284Y-6378791D01*
X11872056Y-6205017D01*
X11747684Y-6091638D01*
X11711403Y-6031927D01*
X11713163Y-5962079D01*
X11747684Y-5908362D01*
X11872056Y-5794982D01*
X12003284Y-5621208D01*
X12100348Y-5426280D01*
X12150505Y-5250000D01*
X11315686Y-5250000D01*
X11327641Y-5238045D01*
X11385165Y-5125148D01*
X11404986Y-5000000D01*
X11385165Y-4874852D01*
X11327641Y-4761955D01*
X11315686Y-4750000D01*
X12150505Y-4750000D01*
X12150505Y-4749999D01*
X12100348Y-4573719D01*
X12003284Y-4378791D01*
X11872056Y-4205017D01*
X11747684Y-4091638D01*
X11711403Y-4031927D01*
X11713163Y-3962079D01*
X11747684Y-3908362D01*
X11872056Y-3794982D01*
X12003284Y-3621208D01*
X12100348Y-3426280D01*
X12150505Y-3250000D01*
X11315686Y-3250000D01*
X11327641Y-3238045D01*
X11385165Y-3125148D01*
X11404986Y-3000000D01*
X11385165Y-2874852D01*
X11327641Y-2761955D01*
X11315686Y-2750000D01*
X12150505Y-2750000D01*
X12150505Y-2749999D01*
X12100348Y-2573719D01*
X12003284Y-2378791D01*
X11872054Y-2205014D01*
X11711131Y-2058314D01*
X11525987Y-1943677D01*
X11525985Y-1943676D01*
X11322931Y-1865013D01*
X11322921Y-1865010D01*
X11250001Y-1851378D01*
X11250000Y-1851379D01*
X11250000Y-2684314D01*
X11238045Y-2672359D01*
X11125148Y-2614835D01*
X11031481Y-2600000D01*
X10968519Y-2600000D01*
X10874852Y-2614835D01*
X10761955Y-2672359D01*
X10750000Y-2684314D01*
X10750000Y-1851379D01*
X10749998Y-1851378D01*
X10677078Y-1865010D01*
X10677068Y-1865013D01*
X10474014Y-1943676D01*
X10474012Y-1943677D01*
X10288869Y-2058314D01*
X10288868Y-2058314D01*
X10277887Y-2068325D01*
X10215082Y-2098940D01*
X10145695Y-2090740D01*
X10095086Y-2050997D01*
X10032546Y-1967454D01*
X10000783Y-1943676D01*
X9917335Y-1881206D01*
X9917328Y-1881202D01*
X9782482Y-1830908D01*
X9782483Y-1830908D01*
X9722883Y-1824501D01*
X9722881Y-1824500D01*
X9722873Y-1824500D01*
X9722864Y-1824500D01*
X8277129Y-1824500D01*
X8277123Y-1824501D01*
X8217516Y-1830908D01*
X8167333Y-1849626D01*
X8097641Y-1854610D01*
X8036318Y-1821125D01*
X8002834Y-1759801D01*
X8000000Y-1733444D01*
X8000000Y-124500D01*
X8019685Y-57461D01*
X8072489Y-11706D01*
X8124000Y-500D01*
X13876000Y-500D01*
X13943039Y-20185D01*
G37*
%TD.AperFunction*%
%TA.AperFunction,Conductor*%
G36*
X11250000Y-16684314D02*
G01*
X11238045Y-16672359D01*
X11125148Y-16614835D01*
X11031481Y-16600000D01*
X10968519Y-16600000D01*
X10874852Y-16614835D01*
X10761955Y-16672359D01*
X10750000Y-16684314D01*
X10750000Y-15315686D01*
X10761955Y-15327641D01*
X10874852Y-15385165D01*
X10968519Y-15400000D01*
X11031481Y-15400000D01*
X11125148Y-15385165D01*
X11238045Y-15327641D01*
X11250000Y-15315686D01*
X11250000Y-16684314D01*
G37*
%TD.AperFunction*%
%TA.AperFunction,Conductor*%
G36*
X11250000Y-14684314D02*
G01*
X11238045Y-14672359D01*
X11125148Y-14614835D01*
X11031481Y-14600000D01*
X10968519Y-14600000D01*
X10874852Y-14614835D01*
X10761955Y-14672359D01*
X10750000Y-14684314D01*
X10750000Y-13315686D01*
X10761955Y-13327641D01*
X10874852Y-13385165D01*
X10968519Y-13400000D01*
X11031481Y-13400000D01*
X11125148Y-13385165D01*
X11238045Y-13327641D01*
X11250000Y-13315686D01*
X11250000Y-14684314D01*
G37*
%TD.AperFunction*%
%TA.AperFunction,Conductor*%
G36*
X11250000Y-12684314D02*
G01*
X11238045Y-12672359D01*
X11125148Y-12614835D01*
X11031481Y-12600000D01*
X10968519Y-12600000D01*
X10874852Y-12614835D01*
X10761955Y-12672359D01*
X10750000Y-12684314D01*
X10750000Y-11315686D01*
X10761955Y-11327641D01*
X10874852Y-11385165D01*
X10968519Y-11400000D01*
X11031481Y-11400000D01*
X11125148Y-11385165D01*
X11238045Y-11327641D01*
X11250000Y-11315686D01*
X11250000Y-12684314D01*
G37*
%TD.AperFunction*%
%TA.AperFunction,Conductor*%
G36*
X11250000Y-10684314D02*
G01*
X11238045Y-10672359D01*
X11125148Y-10614835D01*
X11031481Y-10600000D01*
X10968519Y-10600000D01*
X10874852Y-10614835D01*
X10761955Y-10672359D01*
X10750000Y-10684314D01*
X10750000Y-9315686D01*
X10761955Y-9327641D01*
X10874852Y-9385165D01*
X10968519Y-9400000D01*
X11031481Y-9400000D01*
X11125148Y-9385165D01*
X11238045Y-9327641D01*
X11250000Y-9315686D01*
X11250000Y-10684314D01*
G37*
%TD.AperFunction*%
%TA.AperFunction,Conductor*%
G36*
X11250000Y-8684314D02*
G01*
X11238045Y-8672359D01*
X11125148Y-8614835D01*
X11031481Y-8600000D01*
X10968519Y-8600000D01*
X10874852Y-8614835D01*
X10761955Y-8672359D01*
X10750000Y-8684314D01*
X10750000Y-7315686D01*
X10761955Y-7327641D01*
X10874852Y-7385165D01*
X10968519Y-7400000D01*
X11031481Y-7400000D01*
X11125148Y-7385165D01*
X11238045Y-7327641D01*
X11250000Y-7315686D01*
X11250000Y-8684314D01*
G37*
%TD.AperFunction*%
%TA.AperFunction,Conductor*%
G36*
X11250000Y-6684314D02*
G01*
X11238045Y-6672359D01*
X11125148Y-6614835D01*
X11031481Y-6600000D01*
X10968519Y-6600000D01*
X10874852Y-6614835D01*
X10761955Y-6672359D01*
X10750000Y-6684314D01*
X10750000Y-5315686D01*
X10761955Y-5327641D01*
X10874852Y-5385165D01*
X10968519Y-5400000D01*
X11031481Y-5400000D01*
X11125148Y-5385165D01*
X11238045Y-5327641D01*
X11250000Y-5315686D01*
X11250000Y-6684314D01*
G37*
%TD.AperFunction*%
%TA.AperFunction,Conductor*%
G36*
X11250000Y-4684314D02*
G01*
X11238045Y-4672359D01*
X11125148Y-4614835D01*
X11031481Y-4600000D01*
X10968519Y-4600000D01*
X10874852Y-4614835D01*
X10761955Y-4672359D01*
X10750000Y-4684314D01*
X10750000Y-3315686D01*
X10761955Y-3327641D01*
X10874852Y-3385165D01*
X10968519Y-3400000D01*
X11031481Y-3400000D01*
X11125148Y-3385165D01*
X11238045Y-3327641D01*
X11250000Y-3315686D01*
X11250000Y-4684314D01*
G37*
%TD.AperFunction*%
%TD*%
%TA.AperFunction,Conductor*%
%TO.N,Net-(J1-Pin_10)*%
G36*
X5250000Y-16684314D02*
G01*
X5238045Y-16672359D01*
X5125148Y-16614835D01*
X5031481Y-16600000D01*
X4968519Y-16600000D01*
X4874852Y-16614835D01*
X4761955Y-16672359D01*
X4750000Y-16684314D01*
X4750000Y-15315686D01*
X4761955Y-15327641D01*
X4874852Y-15385165D01*
X4968519Y-15400000D01*
X5031481Y-15400000D01*
X5125148Y-15385165D01*
X5238045Y-15327641D01*
X5250000Y-15315686D01*
X5250000Y-16684314D01*
G37*
%TD.AperFunction*%
%TA.AperFunction,Conductor*%
G36*
X5250000Y-14684314D02*
G01*
X5238045Y-14672359D01*
X5125148Y-14614835D01*
X5031481Y-14600000D01*
X4968519Y-14600000D01*
X4874852Y-14614835D01*
X4761955Y-14672359D01*
X4750000Y-14684314D01*
X4750000Y-13315686D01*
X4761955Y-13327641D01*
X4874852Y-13385165D01*
X4968519Y-13400000D01*
X5031481Y-13400000D01*
X5125148Y-13385165D01*
X5238045Y-13327641D01*
X5250000Y-13315686D01*
X5250000Y-14684314D01*
G37*
%TD.AperFunction*%
%TA.AperFunction,Conductor*%
G36*
X5250000Y-12684314D02*
G01*
X5238045Y-12672359D01*
X5125148Y-12614835D01*
X5031481Y-12600000D01*
X4968519Y-12600000D01*
X4874852Y-12614835D01*
X4761955Y-12672359D01*
X4750000Y-12684314D01*
X4750000Y-11315686D01*
X4761955Y-11327641D01*
X4874852Y-11385165D01*
X4968519Y-11400000D01*
X5031481Y-11400000D01*
X5125148Y-11385165D01*
X5238045Y-11327641D01*
X5250000Y-11315686D01*
X5250000Y-12684314D01*
G37*
%TD.AperFunction*%
%TA.AperFunction,Conductor*%
G36*
X5250000Y-10684314D02*
G01*
X5238045Y-10672359D01*
X5125148Y-10614835D01*
X5031481Y-10600000D01*
X4968519Y-10600000D01*
X4874852Y-10614835D01*
X4761955Y-10672359D01*
X4750000Y-10684314D01*
X4750000Y-9315686D01*
X4761955Y-9327641D01*
X4874852Y-9385165D01*
X4968519Y-9400000D01*
X5031481Y-9400000D01*
X5125148Y-9385165D01*
X5238045Y-9327641D01*
X5250000Y-9315686D01*
X5250000Y-10684314D01*
G37*
%TD.AperFunction*%
%TA.AperFunction,Conductor*%
G36*
X5250000Y-8684314D02*
G01*
X5238045Y-8672359D01*
X5125148Y-8614835D01*
X5031481Y-8600000D01*
X4968519Y-8600000D01*
X4874852Y-8614835D01*
X4761955Y-8672359D01*
X4750000Y-8684314D01*
X4750000Y-7315686D01*
X4761955Y-7327641D01*
X4874852Y-7385165D01*
X4968519Y-7400000D01*
X5031481Y-7400000D01*
X5125148Y-7385165D01*
X5238045Y-7327641D01*
X5250000Y-7315686D01*
X5250000Y-8684314D01*
G37*
%TD.AperFunction*%
%TA.AperFunction,Conductor*%
G36*
X5250000Y-6684314D02*
G01*
X5238045Y-6672359D01*
X5125148Y-6614835D01*
X5031481Y-6600000D01*
X4968519Y-6600000D01*
X4874852Y-6614835D01*
X4761955Y-6672359D01*
X4750000Y-6684314D01*
X4750000Y-5315686D01*
X4761955Y-5327641D01*
X4874852Y-5385165D01*
X4968519Y-5400000D01*
X5031481Y-5400000D01*
X5125148Y-5385165D01*
X5238045Y-5327641D01*
X5250000Y-5315686D01*
X5250000Y-6684314D01*
G37*
%TD.AperFunction*%
%TA.AperFunction,Conductor*%
G36*
X5250000Y-4684314D02*
G01*
X5238045Y-4672359D01*
X5125148Y-4614835D01*
X5031481Y-4600000D01*
X4968519Y-4600000D01*
X4874852Y-4614835D01*
X4761955Y-4672359D01*
X4750000Y-4684314D01*
X4750000Y-3315686D01*
X4761955Y-3327641D01*
X4874852Y-3385165D01*
X4968519Y-3400000D01*
X5031481Y-3400000D01*
X5125148Y-3385165D01*
X5238045Y-3327641D01*
X5250000Y-3315686D01*
X5250000Y-4684314D01*
G37*
%TD.AperFunction*%
%TA.AperFunction,Conductor*%
G36*
X7437539Y-20185D02*
G01*
X7483294Y-72989D01*
X7494500Y-124500D01*
X7494500Y-1746984D01*
X7495950Y-1774024D01*
X7495951Y-1774030D01*
X7500231Y-1813846D01*
X7500232Y-1813847D01*
X7508883Y-1867241D01*
X7508884Y-1867246D01*
X7559161Y-2002049D01*
X7559162Y-2002052D01*
X7559163Y-2002053D01*
X7592647Y-2063377D01*
X7592653Y-2063388D01*
X7613128Y-2090740D01*
X7678875Y-2178567D01*
X7711535Y-2203016D01*
X7774810Y-2250383D01*
X7816682Y-2306316D01*
X7824500Y-2349650D01*
X7824500Y-3722870D01*
X7824501Y-3722876D01*
X7830908Y-3782483D01*
X7881202Y-3917328D01*
X7881203Y-3917329D01*
X7881204Y-3917331D01*
X7930007Y-3982523D01*
X7972769Y-4039646D01*
X7970529Y-4041322D01*
X7997161Y-4090072D01*
X8000000Y-4116454D01*
X8000000Y-4341907D01*
X7987000Y-4397178D01*
X7899185Y-4573534D01*
X7899184Y-4573535D01*
X7839564Y-4783081D01*
X7819464Y-4999999D01*
X7819464Y-5000000D01*
X7839564Y-5216918D01*
X7839564Y-5216920D01*
X7839565Y-5216923D01*
X7871067Y-5327641D01*
X7899184Y-5426462D01*
X7987000Y-5602819D01*
X8000000Y-5658091D01*
X8000000Y-6341907D01*
X7987000Y-6397178D01*
X7899185Y-6573534D01*
X7899184Y-6573535D01*
X7839564Y-6783081D01*
X7819464Y-6999999D01*
X7819464Y-7000000D01*
X7839564Y-7216918D01*
X7839564Y-7216920D01*
X7839565Y-7216923D01*
X7871067Y-7327641D01*
X7899184Y-7426462D01*
X7987000Y-7602819D01*
X8000000Y-7658091D01*
X8000000Y-8341907D01*
X7987000Y-8397178D01*
X7899185Y-8573534D01*
X7899184Y-8573535D01*
X7839564Y-8783081D01*
X7819464Y-8999999D01*
X7819464Y-9000000D01*
X7839564Y-9216918D01*
X7839564Y-9216920D01*
X7839565Y-9216923D01*
X7871067Y-9327641D01*
X7899184Y-9426462D01*
X7987000Y-9602819D01*
X8000000Y-9658091D01*
X8000000Y-10341907D01*
X7987000Y-10397178D01*
X7899185Y-10573534D01*
X7899184Y-10573535D01*
X7839564Y-10783081D01*
X7819464Y-10999999D01*
X7819464Y-11000000D01*
X7839564Y-11216918D01*
X7839564Y-11216920D01*
X7839565Y-11216923D01*
X7871067Y-11327641D01*
X7899184Y-11426462D01*
X7987000Y-11602819D01*
X8000000Y-11658091D01*
X8000000Y-12341907D01*
X7987000Y-12397178D01*
X7899185Y-12573534D01*
X7899184Y-12573535D01*
X7839564Y-12783081D01*
X7819464Y-12999999D01*
X7819464Y-13000000D01*
X7839564Y-13216918D01*
X7839564Y-13216920D01*
X7839565Y-13216923D01*
X7871067Y-13327641D01*
X7899184Y-13426462D01*
X7987000Y-13602819D01*
X8000000Y-13658091D01*
X8000000Y-14341907D01*
X7987000Y-14397178D01*
X7899185Y-14573534D01*
X7899184Y-14573535D01*
X7839564Y-14783081D01*
X7819464Y-14999999D01*
X7819464Y-15000000D01*
X7839564Y-15216918D01*
X7839564Y-15216920D01*
X7839565Y-15216923D01*
X7871067Y-15327641D01*
X7899184Y-15426462D01*
X7987000Y-15602819D01*
X8000000Y-15658091D01*
X8000000Y-16341907D01*
X7987000Y-16397178D01*
X7899185Y-16573534D01*
X7899184Y-16573535D01*
X7839564Y-16783081D01*
X7819464Y-16999999D01*
X7819464Y-17000000D01*
X7839564Y-17216918D01*
X7839564Y-17216920D01*
X7839565Y-17216923D01*
X7858897Y-17284872D01*
X7858310Y-17354738D01*
X7820043Y-17413196D01*
X7806671Y-17423119D01*
X7741462Y-17465026D01*
X7741451Y-17465035D01*
X7688659Y-17510779D01*
X7594433Y-17619520D01*
X7594430Y-17619524D01*
X7534664Y-17750390D01*
X7514978Y-17817431D01*
X7514976Y-17817436D01*
X7504019Y-17893647D01*
X7474994Y-17957203D01*
X7416216Y-17994977D01*
X7381281Y-18000000D01*
X7000000Y-18000000D01*
X7000000Y-18576877D01*
X6998738Y-18594523D01*
X6994500Y-18623998D01*
X6994500Y-22876000D01*
X6974815Y-22943039D01*
X6922011Y-22988794D01*
X6870500Y-23000000D01*
X124500Y-23000000D01*
X57461Y-22980315D01*
X11706Y-22927511D01*
X500Y-22876000D01*
X500Y-17000000D01*
X1819464Y-17000000D01*
X1839564Y-17216918D01*
X1839564Y-17216920D01*
X1839565Y-17216923D01*
X1898233Y-17423119D01*
X1899184Y-17426462D01*
X1929370Y-17487083D01*
X1996288Y-17621472D01*
X2127573Y-17795322D01*
X2288568Y-17942088D01*
X2288575Y-17942092D01*
X2288576Y-17942093D01*
X2473786Y-18056770D01*
X2473792Y-18056773D01*
X2496664Y-18065633D01*
X2676931Y-18135470D01*
X2891074Y-18175500D01*
X2891076Y-18175500D01*
X3108924Y-18175500D01*
X3108926Y-18175500D01*
X3323069Y-18135470D01*
X3526210Y-18056772D01*
X3711432Y-17942088D01*
X3872427Y-17795322D01*
X3901359Y-17757009D01*
X3957465Y-17715373D01*
X4027177Y-17710680D01*
X4088360Y-17744421D01*
X4099267Y-17757009D01*
X4127942Y-17794981D01*
X4127949Y-17794989D01*
X4288868Y-17941685D01*
X4474012Y-18056322D01*
X4474023Y-18056327D01*
X4677060Y-18134984D01*
X4750000Y-18148619D01*
X4750000Y-17315686D01*
X4761955Y-17327641D01*
X4874852Y-17385165D01*
X4968519Y-17400000D01*
X5031481Y-17400000D01*
X5125148Y-17385165D01*
X5238045Y-17327641D01*
X5250000Y-17315686D01*
X5250000Y-18148619D01*
X5322939Y-18134984D01*
X5525976Y-18056327D01*
X5525987Y-18056322D01*
X5711130Y-17941685D01*
X5711131Y-17941685D01*
X5872054Y-17794985D01*
X6003284Y-17621208D01*
X6100348Y-17426280D01*
X6150505Y-17250000D01*
X5315686Y-17250000D01*
X5327641Y-17238045D01*
X5385165Y-17125148D01*
X5404986Y-17000000D01*
X5385165Y-16874852D01*
X5327641Y-16761955D01*
X5315686Y-16750000D01*
X6150505Y-16750000D01*
X6150505Y-16749999D01*
X6100348Y-16573719D01*
X6003284Y-16378791D01*
X5872056Y-16205017D01*
X5747684Y-16091638D01*
X5711403Y-16031927D01*
X5713163Y-15962079D01*
X5747684Y-15908362D01*
X5872056Y-15794982D01*
X6003284Y-15621208D01*
X6100348Y-15426280D01*
X6150505Y-15250000D01*
X5315686Y-15250000D01*
X5327641Y-15238045D01*
X5385165Y-15125148D01*
X5404986Y-15000000D01*
X5385165Y-14874852D01*
X5327641Y-14761955D01*
X5315686Y-14750000D01*
X6150505Y-14750000D01*
X6150505Y-14749999D01*
X6100348Y-14573719D01*
X6003284Y-14378791D01*
X5872056Y-14205017D01*
X5747684Y-14091638D01*
X5711403Y-14031927D01*
X5713163Y-13962079D01*
X5747684Y-13908362D01*
X5872056Y-13794982D01*
X6003284Y-13621208D01*
X6100348Y-13426280D01*
X6150505Y-13250000D01*
X5315686Y-13250000D01*
X5327641Y-13238045D01*
X5385165Y-13125148D01*
X5404986Y-13000000D01*
X5385165Y-12874852D01*
X5327641Y-12761955D01*
X5315686Y-12750000D01*
X6150505Y-12750000D01*
X6150505Y-12749999D01*
X6100348Y-12573719D01*
X6003284Y-12378791D01*
X5872056Y-12205017D01*
X5747684Y-12091638D01*
X5711403Y-12031927D01*
X5713163Y-11962079D01*
X5747684Y-11908362D01*
X5872056Y-11794982D01*
X6003284Y-11621208D01*
X6100348Y-11426280D01*
X6150505Y-11250000D01*
X5315686Y-11250000D01*
X5327641Y-11238045D01*
X5385165Y-11125148D01*
X5404986Y-11000000D01*
X5385165Y-10874852D01*
X5327641Y-10761955D01*
X5315686Y-10750000D01*
X6150505Y-10750000D01*
X6150505Y-10749999D01*
X6100348Y-10573719D01*
X6003284Y-10378791D01*
X5872056Y-10205017D01*
X5747684Y-10091638D01*
X5711403Y-10031927D01*
X5713163Y-9962079D01*
X5747684Y-9908362D01*
X5872056Y-9794982D01*
X6003284Y-9621208D01*
X6100348Y-9426280D01*
X6150505Y-9250000D01*
X5315686Y-9250000D01*
X5327641Y-9238045D01*
X5385165Y-9125148D01*
X5404986Y-9000000D01*
X5385165Y-8874852D01*
X5327641Y-8761955D01*
X5315686Y-8750000D01*
X6150505Y-8750000D01*
X6150505Y-8749999D01*
X6100348Y-8573719D01*
X6003284Y-8378791D01*
X5872056Y-8205017D01*
X5747684Y-8091638D01*
X5711403Y-8031927D01*
X5713163Y-7962079D01*
X5747684Y-7908362D01*
X5872056Y-7794982D01*
X6003284Y-7621208D01*
X6100348Y-7426280D01*
X6150505Y-7250000D01*
X5315686Y-7250000D01*
X5327641Y-7238045D01*
X5385165Y-7125148D01*
X5404986Y-7000000D01*
X5385165Y-6874852D01*
X5327641Y-6761955D01*
X5315686Y-6750000D01*
X6150505Y-6750000D01*
X6150505Y-6749999D01*
X6100348Y-6573719D01*
X6003284Y-6378791D01*
X5872056Y-6205017D01*
X5747684Y-6091638D01*
X5711403Y-6031927D01*
X5713163Y-5962079D01*
X5747684Y-5908362D01*
X5872056Y-5794982D01*
X6003284Y-5621208D01*
X6100348Y-5426280D01*
X6150505Y-5250000D01*
X5315686Y-5250000D01*
X5327641Y-5238045D01*
X5385165Y-5125148D01*
X5404986Y-5000000D01*
X5385165Y-4874852D01*
X5327641Y-4761955D01*
X5315686Y-4750000D01*
X6150505Y-4750000D01*
X6150505Y-4749999D01*
X6100348Y-4573719D01*
X6003284Y-4378791D01*
X5872056Y-4205017D01*
X5747684Y-4091638D01*
X5711403Y-4031927D01*
X5713163Y-3962079D01*
X5747684Y-3908362D01*
X5872056Y-3794982D01*
X6003284Y-3621208D01*
X6100348Y-3426280D01*
X6150505Y-3250000D01*
X5315686Y-3250000D01*
X5327641Y-3238045D01*
X5385165Y-3125148D01*
X5404986Y-3000000D01*
X5385165Y-2874852D01*
X5327641Y-2761955D01*
X5315686Y-2750000D01*
X6150505Y-2750000D01*
X6150505Y-2749999D01*
X6100348Y-2573719D01*
X6003284Y-2378791D01*
X5872054Y-2205014D01*
X5711131Y-2058314D01*
X5525987Y-1943677D01*
X5525985Y-1943676D01*
X5322931Y-1865013D01*
X5322921Y-1865010D01*
X5250001Y-1851378D01*
X5250000Y-1851379D01*
X5250000Y-2684314D01*
X5238045Y-2672359D01*
X5125148Y-2614835D01*
X5031481Y-2600000D01*
X4968519Y-2600000D01*
X4874852Y-2614835D01*
X4761955Y-2672359D01*
X4750000Y-2684314D01*
X4750000Y-1851379D01*
X4749998Y-1851378D01*
X4677078Y-1865010D01*
X4677068Y-1865013D01*
X4474014Y-1943676D01*
X4474012Y-1943677D01*
X4288869Y-2058314D01*
X4288868Y-2058314D01*
X4277887Y-2068325D01*
X4215082Y-2098940D01*
X4145695Y-2090740D01*
X4095086Y-2050997D01*
X4032546Y-1967454D01*
X4000783Y-1943676D01*
X3917335Y-1881206D01*
X3917328Y-1881202D01*
X3782482Y-1830908D01*
X3782483Y-1830908D01*
X3722883Y-1824501D01*
X3722881Y-1824500D01*
X3722873Y-1824500D01*
X3722864Y-1824500D01*
X2277129Y-1824500D01*
X2277123Y-1824501D01*
X2217516Y-1830908D01*
X2082671Y-1881202D01*
X2082664Y-1881206D01*
X1967455Y-1967452D01*
X1967452Y-1967455D01*
X1881206Y-2082664D01*
X1881202Y-2082671D01*
X1830908Y-2217517D01*
X1824501Y-2277116D01*
X1824500Y-2277135D01*
X1824500Y-3722870D01*
X1824501Y-3722876D01*
X1830908Y-3782483D01*
X1881202Y-3917328D01*
X1881206Y-3917335D01*
X1950358Y-4009709D01*
X1967454Y-4032546D01*
X2053105Y-4096664D01*
X2094975Y-4152597D01*
X2099959Y-4222289D01*
X2077748Y-4270656D01*
X1996288Y-4378528D01*
X1899184Y-4573537D01*
X1899183Y-4573541D01*
X1848977Y-4749999D01*
X1839564Y-4783081D01*
X1819464Y-4999999D01*
X1819464Y-5000000D01*
X1839564Y-5216918D01*
X1839564Y-5216920D01*
X1839565Y-5216923D01*
X1871067Y-5327641D01*
X1899184Y-5426462D01*
X1996288Y-5621472D01*
X2127574Y-5795324D01*
X2251572Y-5908363D01*
X2287854Y-5968074D01*
X2286093Y-6037922D01*
X2251572Y-6091637D01*
X2127574Y-6204675D01*
X1996288Y-6378527D01*
X1899184Y-6573537D01*
X1899183Y-6573541D01*
X1848977Y-6749999D01*
X1839564Y-6783081D01*
X1819464Y-6999999D01*
X1819464Y-7000000D01*
X1839564Y-7216918D01*
X1839564Y-7216920D01*
X1839565Y-7216923D01*
X1871067Y-7327641D01*
X1899184Y-7426462D01*
X1996288Y-7621472D01*
X2127574Y-7795324D01*
X2251572Y-7908363D01*
X2287854Y-7968074D01*
X2286093Y-8037922D01*
X2251572Y-8091637D01*
X2127574Y-8204675D01*
X1996288Y-8378527D01*
X1899184Y-8573537D01*
X1899183Y-8573541D01*
X1848977Y-8749999D01*
X1839564Y-8783081D01*
X1819464Y-8999999D01*
X1819464Y-9000000D01*
X1839564Y-9216918D01*
X1839564Y-9216920D01*
X1839565Y-9216923D01*
X1871067Y-9327641D01*
X1899184Y-9426462D01*
X1996288Y-9621472D01*
X2127574Y-9795324D01*
X2251572Y-9908363D01*
X2287854Y-9968074D01*
X2286093Y-10037922D01*
X2251572Y-10091637D01*
X2127574Y-10204675D01*
X1996288Y-10378527D01*
X1899184Y-10573537D01*
X1899183Y-10573541D01*
X1848977Y-10749999D01*
X1839564Y-10783081D01*
X1819464Y-10999999D01*
X1819464Y-11000000D01*
X1839564Y-11216918D01*
X1839564Y-11216920D01*
X1839565Y-11216923D01*
X1871067Y-11327641D01*
X1899184Y-11426462D01*
X1996288Y-11621472D01*
X2127574Y-11795324D01*
X2251572Y-11908363D01*
X2287854Y-11968074D01*
X2286093Y-12037922D01*
X2251572Y-12091637D01*
X2127574Y-12204675D01*
X1996288Y-12378527D01*
X1899184Y-12573537D01*
X1899183Y-12573541D01*
X1848977Y-12749999D01*
X1839564Y-12783081D01*
X1819464Y-12999999D01*
X1819464Y-13000000D01*
X1839564Y-13216918D01*
X1839564Y-13216920D01*
X1839565Y-13216923D01*
X1871067Y-13327641D01*
X1899184Y-13426462D01*
X1996288Y-13621472D01*
X2127574Y-13795324D01*
X2251572Y-13908363D01*
X2287854Y-13968074D01*
X2286093Y-14037922D01*
X2251572Y-14091637D01*
X2127574Y-14204675D01*
X1996288Y-14378527D01*
X1899184Y-14573537D01*
X1899183Y-14573541D01*
X1848977Y-14749999D01*
X1839564Y-14783081D01*
X1819464Y-14999999D01*
X1819464Y-15000000D01*
X1839564Y-15216918D01*
X1839564Y-15216920D01*
X1839565Y-15216923D01*
X1871067Y-15327641D01*
X1899184Y-15426462D01*
X1996288Y-15621472D01*
X2127574Y-15795324D01*
X2251572Y-15908363D01*
X2287854Y-15968074D01*
X2286093Y-16037922D01*
X2251572Y-16091637D01*
X2127574Y-16204675D01*
X1996288Y-16378527D01*
X1899184Y-16573537D01*
X1899183Y-16573541D01*
X1848977Y-16749999D01*
X1839564Y-16783081D01*
X1819464Y-16999999D01*
X1819464Y-17000000D01*
X500Y-17000000D01*
X500Y-124500D01*
X20185Y-57461D01*
X72989Y-11706D01*
X124500Y-500D01*
X7370500Y-500D01*
X7437539Y-20185D01*
G37*
%TD.AperFunction*%
%TD*%
%TA.AperFunction,Conductor*%
%TO.N,GND*%
G36*
X60942539Y-20185D02*
G01*
X60988294Y-72989D01*
X60999500Y-124500D01*
X60999500Y-21370500D01*
X60979815Y-21437539D01*
X60927011Y-21483294D01*
X60875500Y-21494500D01*
X57741138Y-21494500D01*
X57674099Y-21474815D01*
X57628344Y-21422011D01*
X57618400Y-21352853D01*
X57647425Y-21289297D01*
X57697805Y-21254318D01*
X57832953Y-21203910D01*
X57832957Y-21203908D01*
X58084047Y-21066803D01*
X58226561Y-20960116D01*
X58226562Y-20960115D01*
X57333748Y-20067300D01*
X57343409Y-20063784D01*
X57491844Y-19966157D01*
X57613764Y-19836930D01*
X57685768Y-19712215D01*
X58580115Y-20606562D01*
X58580116Y-20606561D01*
X58686803Y-20464047D01*
X58823908Y-20212958D01*
X58923890Y-19944895D01*
X58984699Y-19665362D01*
X59005109Y-19380001D01*
X59005109Y-19379998D01*
X58984699Y-19094637D01*
X58923890Y-18815104D01*
X58823908Y-18547041D01*
X58686808Y-18295961D01*
X58686807Y-18295960D01*
X58580115Y-18153436D01*
X57684803Y-19048747D01*
X57662660Y-18997413D01*
X57556567Y-18854906D01*
X57420470Y-18740706D01*
X57330782Y-18695663D01*
X58226562Y-17799883D01*
X58226561Y-17799882D01*
X58084046Y-17693196D01*
X58084038Y-17693191D01*
X57832957Y-17556091D01*
X57832958Y-17556091D01*
X57564895Y-17456109D01*
X57285362Y-17395300D01*
X57000001Y-17374891D01*
X56999999Y-17374891D01*
X56714637Y-17395300D01*
X56435104Y-17456109D01*
X56167041Y-17556091D01*
X55915961Y-17693191D01*
X55915953Y-17693196D01*
X55773437Y-17799882D01*
X55773436Y-17799883D01*
X56666252Y-18692699D01*
X56656591Y-18696216D01*
X56508156Y-18793843D01*
X56386236Y-18923070D01*
X56314231Y-19047784D01*
X55419883Y-18153436D01*
X55419882Y-18153437D01*
X55313196Y-18295953D01*
X55313191Y-18295961D01*
X55176091Y-18547041D01*
X55076109Y-18815104D01*
X55015300Y-19094637D01*
X54994891Y-19379998D01*
X54994891Y-19380001D01*
X55015300Y-19665362D01*
X55076109Y-19944895D01*
X55176091Y-20212958D01*
X55313191Y-20464038D01*
X55313196Y-20464046D01*
X55419882Y-20606561D01*
X55419883Y-20606562D01*
X56315195Y-19711250D01*
X56337340Y-19762587D01*
X56443433Y-19905094D01*
X56579530Y-20019294D01*
X56669216Y-20064335D01*
X55773436Y-20960115D01*
X55915960Y-21066807D01*
X55915961Y-21066808D01*
X56167042Y-21203908D01*
X56167046Y-21203910D01*
X56302195Y-21254318D01*
X56358129Y-21296190D01*
X56382546Y-21361654D01*
X56367694Y-21429927D01*
X56318289Y-21479332D01*
X56258862Y-21494500D01*
X56037823Y-21494500D01*
X56010784Y-21495949D01*
X56010776Y-21495949D01*
X56010773Y-21495950D01*
X56010772Y-21495950D01*
X55970964Y-21500231D01*
X55917554Y-21508885D01*
X55917552Y-21508885D01*
X55782747Y-21559166D01*
X55721422Y-21592651D01*
X55606240Y-21678876D01*
X55606228Y-21678886D01*
X55387870Y-21897244D01*
X55377375Y-21908515D01*
X55375698Y-21910317D01*
X55363617Y-21923765D01*
X55363616Y-21923767D01*
X55285830Y-22044804D01*
X55285821Y-22044822D01*
X55256849Y-22108264D01*
X55256805Y-22108356D01*
X55216268Y-22246421D01*
X55215875Y-22249154D01*
X55214729Y-22251662D01*
X55213771Y-22254926D01*
X55213301Y-22254788D01*
X55186845Y-22312707D01*
X55180819Y-22319179D01*
X54854121Y-22645877D01*
X54792798Y-22679362D01*
X54775290Y-22681880D01*
X54742190Y-22684248D01*
X54742188Y-22684248D01*
X54607385Y-22734528D01*
X54546060Y-22768013D01*
X54430878Y-22854238D01*
X54430866Y-22854248D01*
X52810217Y-24474899D01*
X52103170Y-25181944D01*
X52065928Y-25207541D01*
X52047268Y-25215849D01*
X51894129Y-25327111D01*
X51767467Y-25467783D01*
X51707512Y-25571628D01*
X51687806Y-25597308D01*
X51603170Y-25681944D01*
X51565928Y-25707541D01*
X51547268Y-25715849D01*
X51394129Y-25827111D01*
X51267467Y-25967783D01*
X51207512Y-26071628D01*
X51187806Y-26097308D01*
X51103170Y-26181944D01*
X51065928Y-26207541D01*
X51047268Y-26215849D01*
X50894129Y-26327111D01*
X50767467Y-26467783D01*
X50707512Y-26571628D01*
X50687806Y-26597308D01*
X47326935Y-29958181D01*
X47265612Y-29991666D01*
X47239254Y-29994500D01*
X30129500Y-29994500D01*
X30062461Y-29974815D01*
X30016706Y-29922011D01*
X30005500Y-29870500D01*
X30005500Y-29124010D01*
X30005500Y-29124000D01*
X30000355Y-29076145D01*
X30000000Y-29069513D01*
X30000000Y-28500000D01*
X29423123Y-28500000D01*
X29405477Y-28498738D01*
X29376001Y-28494500D01*
X29376000Y-28494500D01*
X24129500Y-28494500D01*
X24062461Y-28474815D01*
X24016706Y-28422011D01*
X24005500Y-28370500D01*
X24005500Y-23624010D01*
X24005500Y-23624000D01*
X24000355Y-23576145D01*
X24000000Y-23569513D01*
X24000000Y-22923122D01*
X24001262Y-22905475D01*
X24005500Y-22876000D01*
X24005500Y-19129500D01*
X24025185Y-19062461D01*
X24077989Y-19016706D01*
X24129500Y-19005500D01*
X24375990Y-19005500D01*
X24376000Y-19005500D01*
X24423845Y-19000355D01*
X24430477Y-19000000D01*
X31370500Y-19000000D01*
X31437539Y-19019685D01*
X31483294Y-19072489D01*
X31494500Y-19124000D01*
X31494500Y-20043502D01*
X31474815Y-20110541D01*
X31422011Y-20156296D01*
X31352853Y-20166240D01*
X31320064Y-20156781D01*
X31279807Y-20138857D01*
X31279802Y-20138855D01*
X31134001Y-20107865D01*
X31094646Y-20099500D01*
X30905354Y-20099500D01*
X30872897Y-20106398D01*
X30720197Y-20138855D01*
X30720192Y-20138857D01*
X30547270Y-20215848D01*
X30547265Y-20215851D01*
X30394129Y-20327111D01*
X30267466Y-20467785D01*
X30172821Y-20631715D01*
X30172818Y-20631722D01*
X30138272Y-20738045D01*
X30114326Y-20811744D01*
X30094540Y-21000000D01*
X30114326Y-21188256D01*
X30114326Y-21188258D01*
X30114327Y-21188260D01*
X30118430Y-21200887D01*
X30124500Y-21239207D01*
X30124500Y-24760782D01*
X30118432Y-24799098D01*
X30114325Y-24811735D01*
X30114325Y-24811736D01*
X30097946Y-24967577D01*
X30094539Y-24999993D01*
X30114325Y-25188249D01*
X30114326Y-25188252D01*
X30172817Y-25368270D01*
X30172820Y-25368277D01*
X30267466Y-25532209D01*
X30326082Y-25597308D01*
X30394128Y-25672881D01*
X30547264Y-25784141D01*
X30547269Y-25784144D01*
X30720191Y-25861135D01*
X30720196Y-25861137D01*
X30905353Y-25900493D01*
X30905354Y-25900493D01*
X31094643Y-25900493D01*
X31094645Y-25900493D01*
X31279802Y-25861137D01*
X31320064Y-25843210D01*
X31389313Y-25833925D01*
X31452590Y-25863553D01*
X31489804Y-25922687D01*
X31494500Y-25956490D01*
X31494500Y-26976000D01*
X31494501Y-26976009D01*
X31506052Y-27083450D01*
X31506054Y-27083462D01*
X31517260Y-27134972D01*
X31551383Y-27237497D01*
X31551386Y-27237503D01*
X31629171Y-27358537D01*
X31629179Y-27358548D01*
X31674923Y-27411340D01*
X31674926Y-27411343D01*
X31674930Y-27411347D01*
X31783664Y-27505567D01*
X31783667Y-27505568D01*
X31783668Y-27505569D01*
X31877925Y-27548616D01*
X31914541Y-27565338D01*
X31959357Y-27578497D01*
X31981575Y-27585022D01*
X31981580Y-27585023D01*
X31981584Y-27585024D01*
X32124000Y-27605500D01*
X32124003Y-27605500D01*
X33875990Y-27605500D01*
X33876000Y-27605500D01*
X33983456Y-27593947D01*
X34034967Y-27582741D01*
X34069197Y-27571347D01*
X34137497Y-27548616D01*
X34137501Y-27548613D01*
X34137504Y-27548613D01*
X34258543Y-27470825D01*
X34311347Y-27425070D01*
X34405567Y-27316336D01*
X34465338Y-27185459D01*
X34482303Y-27127683D01*
X34485022Y-27118425D01*
X34485023Y-27118419D01*
X34485024Y-27118416D01*
X34505500Y-26976000D01*
X34505500Y-19124000D01*
X34525185Y-19056961D01*
X34577989Y-19011206D01*
X34629500Y-19000000D01*
X34948638Y-19000000D01*
X35015677Y-19019685D01*
X35036319Y-19036319D01*
X40500000Y-24500000D01*
X44831119Y-24500000D01*
X44898158Y-24519685D01*
X44943913Y-24572489D01*
X44953857Y-24641647D01*
X44924832Y-24705203D01*
X44918800Y-24711681D01*
X44809764Y-24820717D01*
X44748441Y-24854202D01*
X44722083Y-24857036D01*
X44662890Y-24857036D01*
X44630433Y-24863934D01*
X44477733Y-24896391D01*
X44477728Y-24896393D01*
X44304806Y-24973384D01*
X44304801Y-24973387D01*
X44151665Y-25084647D01*
X44025002Y-25225321D01*
X43930357Y-25389251D01*
X43930354Y-25389258D01*
X43883907Y-25532209D01*
X43871862Y-25569280D01*
X43852076Y-25757536D01*
X43871862Y-25945792D01*
X43871863Y-25945795D01*
X43930354Y-26125813D01*
X43930357Y-26125820D01*
X44025003Y-26289752D01*
X44151665Y-26430424D01*
X44304801Y-26541684D01*
X44304806Y-26541687D01*
X44477727Y-26618678D01*
X44477730Y-26618678D01*
X44477733Y-26618680D01*
X44508303Y-26625177D01*
X44530143Y-26629820D01*
X44591625Y-26663012D01*
X44622294Y-26712791D01*
X44672819Y-26868290D01*
X44672821Y-26868294D01*
X44767467Y-27032226D01*
X44859976Y-27134967D01*
X44894129Y-27172898D01*
X45047265Y-27284158D01*
X45047270Y-27284161D01*
X45220192Y-27361152D01*
X45220197Y-27361154D01*
X45405354Y-27400510D01*
X45405355Y-27400510D01*
X45594644Y-27400510D01*
X45594646Y-27400510D01*
X45779803Y-27361154D01*
X45952730Y-27284161D01*
X46105871Y-27172898D01*
X46108788Y-27169657D01*
X46111600Y-27166536D01*
X46171087Y-27129889D01*
X46203748Y-27125510D01*
X47417247Y-27125510D01*
X47432867Y-27127234D01*
X47432894Y-27126949D01*
X47440650Y-27127681D01*
X47440657Y-27127683D01*
X47509804Y-27125510D01*
X47539340Y-27125510D01*
X47546218Y-27124640D01*
X47552031Y-27124182D01*
X47598617Y-27122719D01*
X47617859Y-27117127D01*
X47636902Y-27113184D01*
X47656782Y-27110674D01*
X47700112Y-27093517D01*
X47705636Y-27091627D01*
X47709386Y-27090537D01*
X47750380Y-27078628D01*
X47767619Y-27068432D01*
X47785093Y-27059872D01*
X47803717Y-27052498D01*
X47803717Y-27052497D01*
X47803722Y-27052496D01*
X47841439Y-27025092D01*
X47846295Y-27021902D01*
X47886410Y-26998180D01*
X47900579Y-26984009D01*
X47915369Y-26971378D01*
X47931577Y-26959604D01*
X47961289Y-26923686D01*
X47965202Y-26919386D01*
X49383787Y-25500802D01*
X49396042Y-25490986D01*
X49395859Y-25490764D01*
X49401866Y-25485792D01*
X49401877Y-25485786D01*
X49432775Y-25452882D01*
X49449227Y-25435364D01*
X49459671Y-25424918D01*
X49470120Y-25414471D01*
X49474379Y-25408978D01*
X49478152Y-25404561D01*
X49510062Y-25370582D01*
X49519713Y-25353024D01*
X49530396Y-25336761D01*
X49542673Y-25320936D01*
X49561185Y-25278153D01*
X49563738Y-25272941D01*
X49586197Y-25232092D01*
X49591180Y-25212680D01*
X49597481Y-25194280D01*
X49605437Y-25175896D01*
X49612729Y-25129852D01*
X49613906Y-25124171D01*
X49625500Y-25079019D01*
X49625500Y-25058983D01*
X49627027Y-25039582D01*
X49630160Y-25019804D01*
X49625775Y-24973415D01*
X49625500Y-24967577D01*
X49625500Y-8000000D01*
X53094540Y-8000000D01*
X53114326Y-8188256D01*
X53114327Y-8188259D01*
X53172818Y-8368277D01*
X53172821Y-8368284D01*
X53267467Y-8532216D01*
X53316442Y-8586608D01*
X53394129Y-8672888D01*
X53545791Y-8783077D01*
X53547270Y-8784151D01*
X53675939Y-8841439D01*
X53729173Y-8886687D01*
X53749494Y-8953536D01*
X53749500Y-8954716D01*
X53749500Y-9731294D01*
X53748191Y-9749263D01*
X53744710Y-9773025D01*
X53749264Y-9825064D01*
X53749500Y-9830470D01*
X53749500Y-9838709D01*
X53753215Y-9870500D01*
X53753306Y-9871274D01*
X53760000Y-9947791D01*
X53761461Y-9954867D01*
X53761403Y-9954878D01*
X53763034Y-9962237D01*
X53763092Y-9962224D01*
X53764757Y-9969250D01*
X53791025Y-10041424D01*
X53815185Y-10114331D01*
X53818236Y-10120874D01*
X53818182Y-10120898D01*
X53821470Y-10127688D01*
X53821521Y-10127663D01*
X53824761Y-10134113D01*
X53824762Y-10134114D01*
X53824763Y-10134117D01*
X53843149Y-10162072D01*
X53866965Y-10198283D01*
X53907287Y-10263655D01*
X53911766Y-10269319D01*
X53911719Y-10269356D01*
X53916482Y-10275202D01*
X53916528Y-10275164D01*
X53921173Y-10280700D01*
X53977018Y-10333386D01*
X55072667Y-11429035D01*
X56127130Y-12483497D01*
X56160615Y-12544820D01*
X56162977Y-12581985D01*
X56144341Y-12794997D01*
X56144341Y-12795000D01*
X56164936Y-13030403D01*
X56164938Y-13030413D01*
X56226094Y-13258655D01*
X56226096Y-13258659D01*
X56226097Y-13258663D01*
X56249774Y-13309438D01*
X56325965Y-13472830D01*
X56325967Y-13472834D01*
X56434281Y-13627521D01*
X56461505Y-13666401D01*
X56628599Y-13833495D01*
X56725384Y-13901265D01*
X56822165Y-13969032D01*
X56822167Y-13969033D01*
X56822170Y-13969035D01*
X57036337Y-14068903D01*
X57264592Y-14130063D01*
X57452918Y-14146539D01*
X57499999Y-14150659D01*
X57500000Y-14150659D01*
X57500001Y-14150659D01*
X57539234Y-14147226D01*
X57735408Y-14130063D01*
X57963663Y-14068903D01*
X58177830Y-13969035D01*
X58371401Y-13833495D01*
X58538495Y-13666401D01*
X58674035Y-13472830D01*
X58773903Y-13258663D01*
X58835063Y-13030408D01*
X58855659Y-12795000D01*
X58835063Y-12559592D01*
X58788626Y-12386285D01*
X58773905Y-12331344D01*
X58773904Y-12331343D01*
X58773903Y-12331337D01*
X58674035Y-12117171D01*
X58556524Y-11949346D01*
X58538494Y-11923597D01*
X58371402Y-11756506D01*
X58371396Y-11756501D01*
X58185842Y-11626575D01*
X58142217Y-11571998D01*
X58135023Y-11502500D01*
X58166546Y-11440145D01*
X58185842Y-11423425D01*
X58208026Y-11407891D01*
X58371401Y-11293495D01*
X58538495Y-11126401D01*
X58674035Y-10932830D01*
X58773903Y-10718663D01*
X58835063Y-10490408D01*
X58855659Y-10255000D01*
X58835063Y-10019592D01*
X58784389Y-9830470D01*
X58773905Y-9791344D01*
X58773904Y-9791343D01*
X58773903Y-9791337D01*
X58674035Y-9577171D01*
X58644363Y-9534794D01*
X58538494Y-9383597D01*
X58371402Y-9216506D01*
X58371396Y-9216501D01*
X58185842Y-9086575D01*
X58142217Y-9031998D01*
X58135023Y-8962500D01*
X58166546Y-8900145D01*
X58185842Y-8883425D01*
X58245808Y-8841436D01*
X58371401Y-8753495D01*
X58538495Y-8586401D01*
X58674035Y-8392830D01*
X58773903Y-8178663D01*
X58835063Y-7950408D01*
X58855659Y-7715000D01*
X58835063Y-7479592D01*
X58773903Y-7251337D01*
X58674035Y-7037171D01*
X58670565Y-7032216D01*
X58538496Y-6843600D01*
X58477973Y-6783077D01*
X58416179Y-6721283D01*
X58382696Y-6659963D01*
X58387680Y-6590271D01*
X58429551Y-6534337D01*
X58460529Y-6517422D01*
X58592086Y-6468354D01*
X58592093Y-6468350D01*
X58707187Y-6382190D01*
X58707190Y-6382187D01*
X58793350Y-6267093D01*
X58793354Y-6267086D01*
X58843596Y-6132379D01*
X58843598Y-6132372D01*
X58849999Y-6072844D01*
X58850000Y-6072827D01*
X58850000Y-5425000D01*
X57933686Y-5425000D01*
X57959493Y-5384844D01*
X58000000Y-5246889D01*
X58000000Y-5103111D01*
X57959493Y-4965156D01*
X57933686Y-4925000D01*
X58850000Y-4925000D01*
X58850000Y-4277172D01*
X58849999Y-4277155D01*
X58843598Y-4217627D01*
X58843596Y-4217620D01*
X58793354Y-4082913D01*
X58793350Y-4082906D01*
X58707190Y-3967812D01*
X58707187Y-3967809D01*
X58592093Y-3881649D01*
X58592086Y-3881645D01*
X58457379Y-3831403D01*
X58457372Y-3831401D01*
X58397844Y-3825000D01*
X57750000Y-3825000D01*
X57750000Y-4739498D01*
X57642315Y-4690320D01*
X57535763Y-4675000D01*
X57464237Y-4675000D01*
X57357685Y-4690320D01*
X57250000Y-4739498D01*
X57250000Y-3825000D01*
X56602155Y-3825000D01*
X56542627Y-3831401D01*
X56542620Y-3831403D01*
X56407913Y-3881645D01*
X56407906Y-3881649D01*
X56292812Y-3967809D01*
X56292809Y-3967812D01*
X56206649Y-4082906D01*
X56206645Y-4082913D01*
X56156403Y-4217620D01*
X56156401Y-4217627D01*
X56150000Y-4277155D01*
X56150000Y-4925000D01*
X57066314Y-4925000D01*
X57040507Y-4965156D01*
X57000000Y-5103111D01*
X57000000Y-5246889D01*
X57040507Y-5384844D01*
X57066314Y-5425000D01*
X56150000Y-5425000D01*
X56150000Y-6072844D01*
X56156401Y-6132372D01*
X56156403Y-6132379D01*
X56206645Y-6267086D01*
X56206649Y-6267093D01*
X56292809Y-6382187D01*
X56292812Y-6382190D01*
X56407906Y-6468350D01*
X56407913Y-6468354D01*
X56539470Y-6517421D01*
X56595403Y-6559292D01*
X56619821Y-6624756D01*
X56604970Y-6693029D01*
X56583819Y-6721284D01*
X56461503Y-6843600D01*
X56325965Y-7037169D01*
X56325964Y-7037171D01*
X56242145Y-7216923D01*
X56226721Y-7250000D01*
X56226098Y-7251335D01*
X56226094Y-7251344D01*
X56164938Y-7479586D01*
X56164936Y-7479596D01*
X56144341Y-7714999D01*
X56144341Y-7715000D01*
X56164936Y-7950403D01*
X56164938Y-7950413D01*
X56226094Y-8178655D01*
X56226096Y-8178659D01*
X56226097Y-8178663D01*
X56314516Y-8368277D01*
X56325965Y-8392830D01*
X56325967Y-8392834D01*
X56461501Y-8586395D01*
X56461506Y-8586402D01*
X56628597Y-8753493D01*
X56628603Y-8753498D01*
X56814158Y-8883425D01*
X56857783Y-8938002D01*
X56864977Y-9007500D01*
X56833454Y-9069855D01*
X56814158Y-9086575D01*
X56628597Y-9216505D01*
X56461505Y-9383597D01*
X56325965Y-9577169D01*
X56325964Y-9577171D01*
X56226098Y-9791335D01*
X56226094Y-9791344D01*
X56164938Y-10019586D01*
X56164936Y-10019596D01*
X56157624Y-10103174D01*
X56132171Y-10168243D01*
X56075580Y-10209221D01*
X56005818Y-10213099D01*
X55946415Y-10180047D01*
X55286819Y-9520451D01*
X55253334Y-9459128D01*
X55250500Y-9432770D01*
X55250500Y-8954716D01*
X55270185Y-8887677D01*
X55322989Y-8841922D01*
X55323846Y-8841534D01*
X55452730Y-8784151D01*
X55605871Y-8672888D01*
X55732533Y-8532216D01*
X55827179Y-8368284D01*
X55885674Y-8188256D01*
X55905460Y-8000000D01*
X55885674Y-7811744D01*
X55827179Y-7631716D01*
X55732533Y-7467784D01*
X55605871Y-7327112D01*
X55567667Y-7299355D01*
X55452734Y-7215851D01*
X55452729Y-7215848D01*
X55279807Y-7138857D01*
X55279802Y-7138855D01*
X55134001Y-7107865D01*
X55094646Y-7099500D01*
X54905354Y-7099500D01*
X54872897Y-7106398D01*
X54720197Y-7138855D01*
X54720192Y-7138857D01*
X54550436Y-7214439D01*
X54481186Y-7223724D01*
X54449564Y-7214439D01*
X54279807Y-7138857D01*
X54279802Y-7138855D01*
X54134001Y-7107865D01*
X54094646Y-7099500D01*
X53905354Y-7099500D01*
X53872897Y-7106398D01*
X53720197Y-7138855D01*
X53720192Y-7138857D01*
X53547270Y-7215848D01*
X53547265Y-7215851D01*
X53394129Y-7327111D01*
X53267466Y-7467785D01*
X53172821Y-7631715D01*
X53172818Y-7631722D01*
X53145760Y-7715000D01*
X53114326Y-7811744D01*
X53094540Y-8000000D01*
X49625500Y-8000000D01*
X49625500Y-5698687D01*
X49645185Y-5631648D01*
X49657350Y-5615715D01*
X49675891Y-5595122D01*
X49732533Y-5532216D01*
X49827179Y-5368284D01*
X49885674Y-5188256D01*
X49905460Y-5000000D01*
X49885674Y-4811744D01*
X49827179Y-4631716D01*
X49732533Y-4467784D01*
X49605871Y-4327112D01*
X49605867Y-4327109D01*
X49452734Y-4215851D01*
X49452729Y-4215848D01*
X49279807Y-4138857D01*
X49279802Y-4138855D01*
X49134001Y-4107865D01*
X49094646Y-4099500D01*
X48905354Y-4099500D01*
X48872897Y-4106398D01*
X48720197Y-4138855D01*
X48720192Y-4138857D01*
X48547270Y-4215848D01*
X48547265Y-4215851D01*
X48394132Y-4327109D01*
X48394129Y-4327111D01*
X48394129Y-4327112D01*
X48342148Y-4384841D01*
X48282663Y-4421489D01*
X48212806Y-4420158D01*
X48157851Y-4384841D01*
X48105871Y-4327112D01*
X48105867Y-4327109D01*
X47952734Y-4215851D01*
X47952729Y-4215848D01*
X47779807Y-4138857D01*
X47779802Y-4138855D01*
X47634001Y-4107865D01*
X47594646Y-4099500D01*
X47405354Y-4099500D01*
X47372897Y-4106398D01*
X47220197Y-4138855D01*
X47220192Y-4138857D01*
X47047270Y-4215848D01*
X47047265Y-4215851D01*
X46894129Y-4327111D01*
X46767466Y-4467785D01*
X46672821Y-4631715D01*
X46672818Y-4631722D01*
X46614327Y-4811740D01*
X46614326Y-4811744D01*
X46594540Y-5000000D01*
X46614326Y-5188256D01*
X46614327Y-5188259D01*
X46672818Y-5368277D01*
X46672821Y-5368284D01*
X46737921Y-5481041D01*
X46754394Y-5548942D01*
X46731541Y-5614968D01*
X46680971Y-5656320D01*
X46547267Y-5715850D01*
X46547265Y-5715851D01*
X46394129Y-5827111D01*
X46267466Y-5967785D01*
X46172821Y-6131715D01*
X46172818Y-6131722D01*
X46114327Y-6311740D01*
X46114326Y-6311744D01*
X46094540Y-6500000D01*
X46114326Y-6688256D01*
X46114327Y-6688259D01*
X46172818Y-6868277D01*
X46172821Y-6868284D01*
X46267466Y-7032215D01*
X46388851Y-7167028D01*
X46419081Y-7230020D01*
X46410455Y-7299355D01*
X46388851Y-7332972D01*
X46267466Y-7467784D01*
X46172821Y-7631715D01*
X46172818Y-7631722D01*
X46145760Y-7715000D01*
X46114326Y-7811744D01*
X46094540Y-8000000D01*
X46114326Y-8188256D01*
X46114327Y-8188259D01*
X46172818Y-8368277D01*
X46172821Y-8368284D01*
X46267467Y-8532216D01*
X46316442Y-8586608D01*
X46394129Y-8672888D01*
X46547265Y-8784148D01*
X46547270Y-8784151D01*
X46720191Y-8861142D01*
X46720193Y-8861142D01*
X46720197Y-8861144D01*
X46776282Y-8873064D01*
X46837761Y-8906255D01*
X46871539Y-8967418D01*
X46874500Y-8994354D01*
X46874500Y-9870500D01*
X46854815Y-9937539D01*
X46802011Y-9983294D01*
X46750500Y-9994500D01*
X42124000Y-9994500D01*
X42123991Y-9994500D01*
X42123990Y-9994501D01*
X42076155Y-9999644D01*
X42069523Y-10000000D01*
X41124000Y-10000000D01*
X41056961Y-9980315D01*
X41011206Y-9927511D01*
X41000000Y-9876000D01*
X41000000Y-124500D01*
X41019685Y-57461D01*
X41072489Y-11706D01*
X41124000Y-500D01*
X60875500Y-500D01*
X60942539Y-20185D01*
G37*
%TD.AperFunction*%
%TD*%
%TA.AperFunction,Conductor*%
%TO.N,+12V*%
G36*
X60942539Y-22019685D02*
G01*
X60988294Y-22072489D01*
X60999500Y-22124000D01*
X60999500Y-31875500D01*
X60979815Y-31942539D01*
X60927011Y-31988294D01*
X60875500Y-31999500D01*
X124500Y-31999500D01*
X57461Y-31979815D01*
X11706Y-31927011D01*
X500Y-31875500D01*
X500Y-23624000D01*
X20185Y-23556961D01*
X72989Y-23511206D01*
X124500Y-23500000D01*
X23376000Y-23500000D01*
X23443039Y-23519685D01*
X23488794Y-23572489D01*
X23500000Y-23624000D01*
X23500000Y-29000000D01*
X29376000Y-29000000D01*
X29443039Y-29019685D01*
X29488794Y-29072489D01*
X29500000Y-29124000D01*
X29500000Y-30500000D01*
X47500000Y-30500000D01*
X54788319Y-23211681D01*
X54849642Y-23178196D01*
X54919334Y-23183180D01*
X54975267Y-23225052D01*
X54999684Y-23290516D01*
X55000000Y-23299362D01*
X55000000Y-24210000D01*
X56281517Y-24210000D01*
X56246451Y-24327129D01*
X56236121Y-24504491D01*
X56266971Y-24679454D01*
X56280147Y-24710000D01*
X55000000Y-24710000D01*
X55000000Y-26007844D01*
X55006401Y-26067372D01*
X55006403Y-26067379D01*
X55056645Y-26202086D01*
X55056649Y-26202093D01*
X55142809Y-26317187D01*
X55142812Y-26317190D01*
X55257906Y-26403350D01*
X55257913Y-26403354D01*
X55392620Y-26453596D01*
X55392627Y-26453598D01*
X55452155Y-26459999D01*
X55452172Y-26460000D01*
X56750000Y-26460000D01*
X56750000Y-25181802D01*
X56911169Y-25220000D01*
X57044267Y-25220000D01*
X57176461Y-25204549D01*
X57250000Y-25177782D01*
X57250000Y-26460000D01*
X58547828Y-26460000D01*
X58547844Y-26459999D01*
X58607372Y-26453598D01*
X58607379Y-26453596D01*
X58742086Y-26403354D01*
X58742093Y-26403350D01*
X58857187Y-26317190D01*
X58857190Y-26317187D01*
X58943350Y-26202093D01*
X58943354Y-26202086D01*
X58993596Y-26067379D01*
X58993598Y-26067372D01*
X58999999Y-26007844D01*
X59000000Y-26007827D01*
X59000000Y-24710000D01*
X57718483Y-24710000D01*
X57753549Y-24592871D01*
X57763879Y-24415509D01*
X57733029Y-24240546D01*
X57719853Y-24210000D01*
X59000000Y-24210000D01*
X59000000Y-22912172D01*
X58999999Y-22912155D01*
X58993598Y-22852627D01*
X58993596Y-22852620D01*
X58943354Y-22717913D01*
X58943350Y-22717906D01*
X58857190Y-22602812D01*
X58857187Y-22602809D01*
X58742093Y-22516649D01*
X58742086Y-22516645D01*
X58607379Y-22466403D01*
X58607372Y-22466401D01*
X58547844Y-22460000D01*
X57250000Y-22460000D01*
X57250000Y-23738197D01*
X57088831Y-23700000D01*
X56955733Y-23700000D01*
X56823539Y-23715451D01*
X56750000Y-23742217D01*
X56750000Y-22460000D01*
X55839362Y-22460000D01*
X55772323Y-22440315D01*
X55726568Y-22387511D01*
X55716624Y-22318353D01*
X55745649Y-22254797D01*
X55751681Y-22248319D01*
X55963681Y-22036319D01*
X56025004Y-22002834D01*
X56051362Y-22000000D01*
X60875500Y-22000000D01*
X60942539Y-22019685D01*
G37*
%TD.AperFunction*%
%TD*%
%TA.AperFunction,Conductor*%
%TO.N,+5V*%
G36*
X33943039Y-19019685D02*
G01*
X33988794Y-19072489D01*
X34000000Y-19124000D01*
X34000000Y-26976000D01*
X33980315Y-27043039D01*
X33927511Y-27088794D01*
X33876000Y-27100000D01*
X32124000Y-27100000D01*
X32056961Y-27080315D01*
X32011206Y-27027511D01*
X32000000Y-26976000D01*
X32000000Y-19124000D01*
X32019685Y-19056961D01*
X32072489Y-19011206D01*
X32124000Y-19000000D01*
X33876000Y-19000000D01*
X33943039Y-19019685D01*
G37*
%TD.AperFunction*%
%TD*%
%TA.AperFunction,Conductor*%
%TO.N,+5V*%
G36*
X46817539Y-10519685D02*
G01*
X46863294Y-10572489D01*
X46874500Y-10624000D01*
X46874500Y-17376000D01*
X46854815Y-17443039D01*
X46802011Y-17488794D01*
X46750500Y-17500000D01*
X42124000Y-17500000D01*
X42056961Y-17480315D01*
X42011206Y-17427511D01*
X42000000Y-17376000D01*
X42000000Y-10624000D01*
X42019685Y-10556961D01*
X42072489Y-10511206D01*
X42124000Y-10500000D01*
X46750500Y-10500000D01*
X46817539Y-10519685D01*
G37*
%TD.AperFunction*%
%TD*%
%TA.AperFunction,Conductor*%
%TO.N,GND*%
G36*
X40443039Y-20185D02*
G01*
X40488794Y-72989D01*
X40500000Y-124500D01*
X40500000Y-10500000D01*
X41376000Y-10500000D01*
X41443039Y-10519685D01*
X41488794Y-10572489D01*
X41500000Y-10624000D01*
X41500000Y-10890192D01*
X41499682Y-10896463D01*
X41499500Y-10898255D01*
X41499500Y-17050748D01*
X41499681Y-17052528D01*
X41500000Y-17058807D01*
X41500000Y-18000000D01*
X42463212Y-18000000D01*
X42466352Y-18000080D01*
X42496679Y-18001617D01*
X42550936Y-18004369D01*
X42570121Y-18001430D01*
X42588897Y-18000000D01*
X43463212Y-18000000D01*
X43466352Y-18000080D01*
X43496679Y-18001617D01*
X43550936Y-18004369D01*
X43570121Y-18001430D01*
X43588897Y-18000000D01*
X46750500Y-18000000D01*
X46817539Y-18019685D01*
X46863294Y-18072489D01*
X46874500Y-18124000D01*
X46874500Y-19287122D01*
X46854815Y-19354161D01*
X46802011Y-19399916D01*
X46732853Y-19409860D01*
X46679377Y-19388697D01*
X46652487Y-19369868D01*
X46652483Y-19369866D01*
X46446326Y-19273734D01*
X46446317Y-19273730D01*
X46226610Y-19214860D01*
X46226599Y-19214858D01*
X46000002Y-19195034D01*
X45999998Y-19195034D01*
X45773400Y-19214858D01*
X45773389Y-19214860D01*
X45553682Y-19273730D01*
X45553673Y-19273734D01*
X45347513Y-19369868D01*
X45274526Y-19420973D01*
X45955599Y-20102046D01*
X45874852Y-20114835D01*
X45761955Y-20172359D01*
X45672359Y-20261955D01*
X45614835Y-20374852D01*
X45602046Y-20455599D01*
X44920973Y-19774526D01*
X44920972Y-19774527D01*
X44869868Y-19847513D01*
X44773734Y-20053673D01*
X44773730Y-20053682D01*
X44714860Y-20273389D01*
X44714858Y-20273400D01*
X44695034Y-20499997D01*
X44695034Y-20500002D01*
X44714858Y-20726599D01*
X44714860Y-20726610D01*
X44773730Y-20946317D01*
X44773734Y-20946326D01*
X44869865Y-21152481D01*
X44869866Y-21152483D01*
X44920973Y-21225471D01*
X44920974Y-21225472D01*
X45602046Y-20544399D01*
X45614835Y-20625148D01*
X45672359Y-20738045D01*
X45761955Y-20827641D01*
X45874852Y-20885165D01*
X45955597Y-20897953D01*
X45269351Y-21584200D01*
X45259505Y-21633194D01*
X45210889Y-21683376D01*
X45155367Y-21698048D01*
X45155423Y-21699099D01*
X45155429Y-21699146D01*
X45155426Y-21699146D01*
X45155436Y-21699324D01*
X45152123Y-21699501D01*
X45092516Y-21705908D01*
X44957671Y-21756202D01*
X44957664Y-21756206D01*
X44842455Y-21842452D01*
X44842452Y-21842455D01*
X44756206Y-21957664D01*
X44756202Y-21957671D01*
X44705908Y-22092517D01*
X44699501Y-22152116D01*
X44699500Y-22152135D01*
X44699500Y-23847870D01*
X44699501Y-23847874D01*
X44701100Y-23862746D01*
X44688694Y-23931505D01*
X44641083Y-23982642D01*
X44577810Y-24000000D01*
X40551362Y-24000000D01*
X40484323Y-23980315D01*
X40463681Y-23963681D01*
X35000000Y-18500000D01*
X25124000Y-18500000D01*
X25056961Y-18480315D01*
X25011206Y-18427511D01*
X25000000Y-18376000D01*
X25000000Y-124500D01*
X25019685Y-57461D01*
X25072489Y-11706D01*
X25124000Y-500D01*
X40376000Y-500D01*
X40443039Y-20185D01*
G37*
%TD.AperFunction*%
%TD*%
M02*
