%TF.GenerationSoftware,KiCad,Pcbnew,7.0.9-rc2*%
%TF.CreationDate,2023-12-26T16:59:54-08:00*%
%TF.ProjectId,driver_board,64726976-6572-45f6-926f-6172642e6b69,rev?*%
%TF.SameCoordinates,PX5f5e100PY5f5e100*%
%TF.FileFunction,Legend,Bot*%
%TF.FilePolarity,Positive*%
%FSLAX46Y46*%
G04 Gerber Fmt 4.6, Leading zero omitted, Abs format (unit mm)*
G04 Created by KiCad (PCBNEW 7.0.9-rc2) date 2023-12-26 16:59:54*
%MOMM*%
%LPD*%
G01*
G04 APERTURE LIST*
%ADD10C,0.150000*%
%ADD11C,0.120000*%
G04 APERTURE END LIST*
D10*
X51359580Y-21583333D02*
X51407200Y-21535714D01*
X51407200Y-21535714D02*
X51454819Y-21392857D01*
X51454819Y-21392857D02*
X51454819Y-21297619D01*
X51454819Y-21297619D02*
X51407200Y-21154762D01*
X51407200Y-21154762D02*
X51311961Y-21059524D01*
X51311961Y-21059524D02*
X51216723Y-21011905D01*
X51216723Y-21011905D02*
X51026247Y-20964286D01*
X51026247Y-20964286D02*
X50883390Y-20964286D01*
X50883390Y-20964286D02*
X50692914Y-21011905D01*
X50692914Y-21011905D02*
X50597676Y-21059524D01*
X50597676Y-21059524D02*
X50502438Y-21154762D01*
X50502438Y-21154762D02*
X50454819Y-21297619D01*
X50454819Y-21297619D02*
X50454819Y-21392857D01*
X50454819Y-21392857D02*
X50502438Y-21535714D01*
X50502438Y-21535714D02*
X50550057Y-21583333D01*
X50454819Y-22488095D02*
X50454819Y-22011905D01*
X50454819Y-22011905D02*
X50931009Y-21964286D01*
X50931009Y-21964286D02*
X50883390Y-22011905D01*
X50883390Y-22011905D02*
X50835771Y-22107143D01*
X50835771Y-22107143D02*
X50835771Y-22345238D01*
X50835771Y-22345238D02*
X50883390Y-22440476D01*
X50883390Y-22440476D02*
X50931009Y-22488095D01*
X50931009Y-22488095D02*
X51026247Y-22535714D01*
X51026247Y-22535714D02*
X51264342Y-22535714D01*
X51264342Y-22535714D02*
X51359580Y-22488095D01*
X51359580Y-22488095D02*
X51407200Y-22440476D01*
X51407200Y-22440476D02*
X51454819Y-22345238D01*
X51454819Y-22345238D02*
X51454819Y-22107143D01*
X51454819Y-22107143D02*
X51407200Y-22011905D01*
X51407200Y-22011905D02*
X51359580Y-21964286D01*
X22333333Y-454819D02*
X22333333Y-1169104D01*
X22333333Y-1169104D02*
X22380952Y-1311961D01*
X22380952Y-1311961D02*
X22476190Y-1407200D01*
X22476190Y-1407200D02*
X22619047Y-1454819D01*
X22619047Y-1454819D02*
X22714285Y-1454819D01*
X21428571Y-788152D02*
X21428571Y-1454819D01*
X21666666Y-407200D02*
X21904761Y-1121485D01*
X21904761Y-1121485D02*
X21285714Y-1121485D01*
X16333333Y-454819D02*
X16333333Y-1169104D01*
X16333333Y-1169104D02*
X16380952Y-1311961D01*
X16380952Y-1311961D02*
X16476190Y-1407200D01*
X16476190Y-1407200D02*
X16619047Y-1454819D01*
X16619047Y-1454819D02*
X16714285Y-1454819D01*
X15952380Y-454819D02*
X15333333Y-454819D01*
X15333333Y-454819D02*
X15666666Y-835771D01*
X15666666Y-835771D02*
X15523809Y-835771D01*
X15523809Y-835771D02*
X15428571Y-883390D01*
X15428571Y-883390D02*
X15380952Y-931009D01*
X15380952Y-931009D02*
X15333333Y-1026247D01*
X15333333Y-1026247D02*
X15333333Y-1264342D01*
X15333333Y-1264342D02*
X15380952Y-1359580D01*
X15380952Y-1359580D02*
X15428571Y-1407200D01*
X15428571Y-1407200D02*
X15523809Y-1454819D01*
X15523809Y-1454819D02*
X15809523Y-1454819D01*
X15809523Y-1454819D02*
X15904761Y-1407200D01*
X15904761Y-1407200D02*
X15952380Y-1359580D01*
X10333333Y-454819D02*
X10333333Y-1169104D01*
X10333333Y-1169104D02*
X10380952Y-1311961D01*
X10380952Y-1311961D02*
X10476190Y-1407200D01*
X10476190Y-1407200D02*
X10619047Y-1454819D01*
X10619047Y-1454819D02*
X10714285Y-1454819D01*
X9904761Y-550057D02*
X9857142Y-502438D01*
X9857142Y-502438D02*
X9761904Y-454819D01*
X9761904Y-454819D02*
X9523809Y-454819D01*
X9523809Y-454819D02*
X9428571Y-502438D01*
X9428571Y-502438D02*
X9380952Y-550057D01*
X9380952Y-550057D02*
X9333333Y-645295D01*
X9333333Y-645295D02*
X9333333Y-740533D01*
X9333333Y-740533D02*
X9380952Y-883390D01*
X9380952Y-883390D02*
X9952380Y-1454819D01*
X9952380Y-1454819D02*
X9333333Y-1454819D01*
X4333333Y-454819D02*
X4333333Y-1169104D01*
X4333333Y-1169104D02*
X4380952Y-1311961D01*
X4380952Y-1311961D02*
X4476190Y-1407200D01*
X4476190Y-1407200D02*
X4619047Y-1454819D01*
X4619047Y-1454819D02*
X4714285Y-1454819D01*
X3333333Y-1454819D02*
X3904761Y-1454819D01*
X3619047Y-1454819D02*
X3619047Y-454819D01*
X3619047Y-454819D02*
X3714285Y-597676D01*
X3714285Y-597676D02*
X3809523Y-692914D01*
X3809523Y-692914D02*
X3904761Y-740533D01*
D11*
%TO.C,C5*%
X49870000Y-21750000D02*
G75*
G03*
X49870000Y-21750000I-3870000J0D01*
G01*
X44960000Y-19989000D02*
X42593000Y-19989000D01*
X46693000Y-17949000D02*
X45307000Y-17949000D01*
X48632000Y-18949000D02*
X43368000Y-18949000D01*
X48195000Y-18589000D02*
X43805000Y-18589000D01*
X48790000Y-19109000D02*
X43210000Y-19109000D01*
X44960000Y-21390000D02*
X42186000Y-21390000D01*
X49699000Y-20749000D02*
X47040000Y-20749000D01*
X47275000Y-18109000D02*
X44725000Y-18109000D01*
X47881000Y-18389000D02*
X44119000Y-18389000D01*
X44960000Y-20789000D02*
X42290000Y-20789000D01*
X44960000Y-20429000D02*
X42402000Y-20429000D01*
X48250000Y-18629000D02*
X43750000Y-18629000D01*
X49088000Y-19469000D02*
X47040000Y-19469000D01*
X49738000Y-20909000D02*
X47040000Y-20909000D01*
X44960000Y-21029000D02*
X42237000Y-21029000D01*
X44960000Y-21430000D02*
X42183000Y-21430000D01*
X48752000Y-19069000D02*
X43248000Y-19069000D01*
X47028000Y-18029000D02*
X44972000Y-18029000D01*
X44960000Y-20189000D02*
X42498000Y-20189000D01*
X49825000Y-21550000D02*
X42175000Y-21550000D01*
X49817000Y-21430000D02*
X47040000Y-21430000D01*
X49784000Y-21150000D02*
X47040000Y-21150000D01*
X47949000Y-18429000D02*
X44051000Y-18429000D01*
X44960000Y-20909000D02*
X42262000Y-20909000D01*
X48827000Y-19149000D02*
X43173000Y-19149000D01*
X44960000Y-21110000D02*
X42223000Y-21110000D01*
X44960000Y-20669000D02*
X42323000Y-20669000D01*
X49427000Y-20029000D02*
X47040000Y-20029000D01*
X49747000Y-20949000D02*
X47040000Y-20949000D01*
X44960000Y-20869000D02*
X42271000Y-20869000D01*
X44960000Y-19749000D02*
X42726000Y-19749000D01*
X44960000Y-20469000D02*
X42387000Y-20469000D01*
X44960000Y-20629000D02*
X42335000Y-20629000D01*
X44960000Y-19709000D02*
X42751000Y-19709000D01*
X48137000Y-18549000D02*
X43863000Y-18549000D01*
X46441000Y-17909000D02*
X45559000Y-17909000D01*
X49116000Y-19509000D02*
X47040000Y-19509000D01*
X49830000Y-21710000D02*
X42170000Y-21710000D01*
X49795000Y-21230000D02*
X47040000Y-21230000D01*
X47654000Y-18269000D02*
X44346000Y-18269000D01*
X47381000Y-18149000D02*
X44619000Y-18149000D01*
X49058000Y-19429000D02*
X42942000Y-19429000D01*
X44960000Y-21150000D02*
X42216000Y-21150000D01*
X49830000Y-21670000D02*
X42170000Y-21670000D01*
X46877000Y-17989000D02*
X45123000Y-17989000D01*
X49224000Y-19669000D02*
X47040000Y-19669000D01*
X44960000Y-20309000D02*
X42447000Y-20309000D01*
X44960000Y-21190000D02*
X42210000Y-21190000D01*
X48304000Y-18669000D02*
X43696000Y-18669000D01*
X49172000Y-19589000D02*
X47040000Y-19589000D01*
X49502000Y-20189000D02*
X47040000Y-20189000D01*
X48175000Y-25892211D02*
X48175000Y-25142211D01*
X44960000Y-21230000D02*
X42205000Y-21230000D01*
X48713000Y-19029000D02*
X43287000Y-19029000D01*
X49626000Y-20509000D02*
X47040000Y-20509000D01*
X49720000Y-20829000D02*
X47040000Y-20829000D01*
X44960000Y-21070000D02*
X42230000Y-21070000D01*
X49770000Y-21070000D02*
X47040000Y-21070000D01*
X48931000Y-19269000D02*
X43069000Y-19269000D01*
X44960000Y-20229000D02*
X42480000Y-20229000D01*
X49653000Y-20589000D02*
X47040000Y-20589000D01*
X49823000Y-21510000D02*
X47040000Y-21510000D01*
X49553000Y-20309000D02*
X47040000Y-20309000D01*
X44960000Y-20749000D02*
X42301000Y-20749000D01*
X44960000Y-19669000D02*
X42776000Y-19669000D01*
X44960000Y-20589000D02*
X42347000Y-20589000D01*
X49729000Y-20869000D02*
X47040000Y-20869000D01*
X44960000Y-20829000D02*
X42280000Y-20829000D01*
X48546000Y-18869000D02*
X43454000Y-18869000D01*
X44960000Y-20269000D02*
X42464000Y-20269000D01*
X49274000Y-19749000D02*
X47040000Y-19749000D01*
X49688000Y-20709000D02*
X47040000Y-20709000D01*
X48964000Y-19309000D02*
X43036000Y-19309000D01*
X44960000Y-21350000D02*
X42190000Y-21350000D01*
X49028000Y-19389000D02*
X42972000Y-19389000D01*
X44960000Y-21270000D02*
X42199000Y-21270000D01*
X44960000Y-19629000D02*
X42802000Y-19629000D01*
X44960000Y-20069000D02*
X42553000Y-20069000D01*
X47569000Y-18229000D02*
X44431000Y-18229000D01*
X47809000Y-18349000D02*
X44191000Y-18349000D01*
X44960000Y-19549000D02*
X42856000Y-19549000D01*
X44960000Y-20989000D02*
X42245000Y-20989000D01*
X44960000Y-21470000D02*
X42180000Y-21470000D01*
X49763000Y-21029000D02*
X47040000Y-21029000D01*
X44960000Y-19949000D02*
X42614000Y-19949000D01*
X49710000Y-20789000D02*
X47040000Y-20789000D01*
X47733000Y-18309000D02*
X44267000Y-18309000D01*
X44960000Y-19789000D02*
X42703000Y-19789000D01*
X49827000Y-21590000D02*
X42173000Y-21590000D01*
X49297000Y-19789000D02*
X47040000Y-19789000D01*
X49820000Y-21470000D02*
X47040000Y-21470000D01*
X49755000Y-20989000D02*
X47040000Y-20989000D01*
X49484000Y-20149000D02*
X47040000Y-20149000D01*
X48405000Y-18749000D02*
X43595000Y-18749000D01*
X48454000Y-18789000D02*
X43546000Y-18789000D01*
X44960000Y-19509000D02*
X42884000Y-19509000D01*
X44960000Y-20109000D02*
X42534000Y-20109000D01*
X44960000Y-20389000D02*
X42416000Y-20389000D01*
X44960000Y-20149000D02*
X42516000Y-20149000D01*
X44960000Y-19469000D02*
X42912000Y-19469000D01*
X44960000Y-19909000D02*
X42635000Y-19909000D01*
X49677000Y-20669000D02*
X47040000Y-20669000D01*
X49829000Y-21630000D02*
X42171000Y-21630000D01*
X49598000Y-20429000D02*
X47040000Y-20429000D01*
X48673000Y-18989000D02*
X43327000Y-18989000D01*
X44960000Y-21510000D02*
X42177000Y-21510000D01*
X48077000Y-18509000D02*
X43923000Y-18509000D01*
X44960000Y-20949000D02*
X42253000Y-20949000D01*
X49814000Y-21390000D02*
X47040000Y-21390000D01*
X49790000Y-21190000D02*
X47040000Y-21190000D01*
X49568000Y-20349000D02*
X47040000Y-20349000D01*
X48863000Y-19189000D02*
X43137000Y-19189000D01*
X49830000Y-21750000D02*
X42170000Y-21750000D01*
X49249000Y-19709000D02*
X47040000Y-19709000D01*
X44960000Y-19589000D02*
X42828000Y-19589000D01*
X48014000Y-18469000D02*
X43986000Y-18469000D01*
X49613000Y-20469000D02*
X47040000Y-20469000D01*
X44960000Y-20029000D02*
X42573000Y-20029000D01*
X44960000Y-20549000D02*
X42360000Y-20549000D01*
X49365000Y-19909000D02*
X47040000Y-19909000D01*
X44960000Y-20509000D02*
X42374000Y-20509000D01*
X49144000Y-19549000D02*
X47040000Y-19549000D01*
X48355000Y-18709000D02*
X43645000Y-18709000D01*
X49777000Y-21110000D02*
X47040000Y-21110000D01*
X49801000Y-21270000D02*
X47040000Y-21270000D01*
X44960000Y-20709000D02*
X42312000Y-20709000D01*
X44960000Y-19829000D02*
X42679000Y-19829000D01*
X49810000Y-21350000D02*
X47040000Y-21350000D01*
X48589000Y-18909000D02*
X43411000Y-18909000D01*
X49321000Y-19829000D02*
X47040000Y-19829000D01*
X47158000Y-18069000D02*
X44842000Y-18069000D01*
X49386000Y-19949000D02*
X47040000Y-19949000D01*
X49805000Y-21310000D02*
X47040000Y-21310000D01*
X48898000Y-19229000D02*
X43102000Y-19229000D01*
X48550000Y-25517211D02*
X47800000Y-25517211D01*
X49198000Y-19629000D02*
X47040000Y-19629000D01*
X49407000Y-19989000D02*
X47040000Y-19989000D01*
X49536000Y-20269000D02*
X47040000Y-20269000D01*
X49466000Y-20109000D02*
X47040000Y-20109000D01*
X48500000Y-18829000D02*
X43500000Y-18829000D01*
X44960000Y-21310000D02*
X42195000Y-21310000D01*
X49343000Y-19869000D02*
X47040000Y-19869000D01*
X49520000Y-20229000D02*
X47040000Y-20229000D01*
X49584000Y-20389000D02*
X47040000Y-20389000D01*
X48996000Y-19349000D02*
X43004000Y-19349000D01*
X44960000Y-19869000D02*
X42657000Y-19869000D01*
X44960000Y-20349000D02*
X42432000Y-20349000D01*
X47478000Y-18189000D02*
X44522000Y-18189000D01*
X49640000Y-20549000D02*
X47040000Y-20549000D01*
X49665000Y-20629000D02*
X47040000Y-20629000D01*
X49447000Y-20069000D02*
X47040000Y-20069000D01*
%TO.C,J4*%
X24060000Y-1940000D02*
X24060000Y-18060000D01*
X22000000Y-1940000D02*
X22000000Y-4000000D01*
X19940000Y-4000000D02*
X19940000Y-18060000D01*
X19940000Y-1940000D02*
X19940000Y-3000000D01*
X22000000Y-4000000D02*
X19940000Y-4000000D01*
X24060000Y-18060000D02*
X19940000Y-18060000D01*
X24060000Y-1940000D02*
X22000000Y-1940000D01*
X21000000Y-1940000D02*
X19940000Y-1940000D01*
%TO.C,J3*%
X18060000Y-1940000D02*
X18060000Y-18060000D01*
X16000000Y-1940000D02*
X16000000Y-4000000D01*
X13940000Y-4000000D02*
X13940000Y-18060000D01*
X13940000Y-1940000D02*
X13940000Y-3000000D01*
X16000000Y-4000000D02*
X13940000Y-4000000D01*
X18060000Y-18060000D02*
X13940000Y-18060000D01*
X18060000Y-1940000D02*
X16000000Y-1940000D01*
X15000000Y-1940000D02*
X13940000Y-1940000D01*
%TO.C,J2*%
X12060000Y-1940000D02*
X12060000Y-18060000D01*
X10000000Y-1940000D02*
X10000000Y-4000000D01*
X7940000Y-4000000D02*
X7940000Y-18060000D01*
X7940000Y-1940000D02*
X7940000Y-3000000D01*
X10000000Y-4000000D02*
X7940000Y-4000000D01*
X12060000Y-18060000D02*
X7940000Y-18060000D01*
X12060000Y-1940000D02*
X10000000Y-1940000D01*
X9000000Y-1940000D02*
X7940000Y-1940000D01*
%TO.C,J1*%
X6060000Y-1940000D02*
X6060000Y-18060000D01*
X4000000Y-1940000D02*
X4000000Y-4000000D01*
X1940000Y-4000000D02*
X1940000Y-18060000D01*
X1940000Y-1940000D02*
X1940000Y-3000000D01*
X4000000Y-4000000D02*
X1940000Y-4000000D01*
X6060000Y-18060000D02*
X1940000Y-18060000D01*
X6060000Y-1940000D02*
X4000000Y-1940000D01*
X3000000Y-1940000D02*
X1940000Y-1940000D01*
%TD*%
M02*
