%TF.GenerationSoftware,KiCad,Pcbnew,9.0.7-1.fc43*%
%TF.CreationDate,2026-03-30T00:08:03-07:00*%
%TF.ProjectId,inverter_board,696e7665-7274-4657-925f-626f6172642e,B0*%
%TF.SameCoordinates,PX81390e0PY9540020*%
%TF.FileFunction,Legend,Top*%
%TF.FilePolarity,Positive*%
%FSLAX46Y46*%
G04 Gerber Fmt 4.6, Leading zero omitted, Abs format (unit mm)*
G04 Created by KiCad (PCBNEW 9.0.7-1.fc43) date 2026-03-30 00:08:03*
%MOMM*%
%LPD*%
G01*
G04 APERTURE LIST*
%ADD10C,0.120000*%
%ADD11C,0.200000*%
%ADD12C,0.150000*%
G04 APERTURE END LIST*
D10*
X-13307843Y32293274D02*
X-13227031Y32751210D01*
X-13631092Y32616523D02*
X-13065407Y33182209D01*
X-13065407Y33182209D02*
X-12849908Y32966709D01*
X-12849908Y32966709D02*
X-12822970Y32885897D01*
X-12822970Y32885897D02*
X-12822970Y32832022D01*
X-12822970Y32832022D02*
X-12849908Y32751210D01*
X-12849908Y32751210D02*
X-12930720Y32670398D01*
X-12930720Y32670398D02*
X-13011532Y32643461D01*
X-13011532Y32643461D02*
X-13065407Y32643461D01*
X-13065407Y32643461D02*
X-13146219Y32670398D01*
X-13146219Y32670398D02*
X-13361718Y32885897D01*
X-12822970Y31862276D02*
X-12903782Y31889213D01*
X-12903782Y31889213D02*
X-13011532Y31996963D01*
X-13011532Y31996963D02*
X-13038469Y32077775D01*
X-13038469Y32077775D02*
X-13011532Y32158587D01*
X-13011532Y32158587D02*
X-12796033Y32374087D01*
X-12796033Y32374087D02*
X-12715221Y32401024D01*
X-12715221Y32401024D02*
X-12634408Y32374087D01*
X-12634408Y32374087D02*
X-12526659Y32266337D01*
X-12526659Y32266337D02*
X-12499721Y32185525D01*
X-12499721Y32185525D02*
X-12526659Y32104713D01*
X-12526659Y32104713D02*
X-12580534Y32050838D01*
X-12580534Y32050838D02*
X-12903782Y32266337D01*
X-12257285Y31996963D02*
X-12499722Y31485153D01*
X-12499722Y31485153D02*
X-11987911Y31727589D01*
X-11233663Y30811717D02*
X-11179789Y30703968D01*
X-11179789Y30703968D02*
X-11179789Y30650093D01*
X-11179789Y30650093D02*
X-11206726Y30569281D01*
X-11206726Y30569281D02*
X-11287538Y30488468D01*
X-11287538Y30488468D02*
X-11368350Y30461531D01*
X-11368350Y30461531D02*
X-11422225Y30461531D01*
X-11422225Y30461531D02*
X-11503037Y30488468D01*
X-11503037Y30488468D02*
X-11718537Y30703968D01*
X-11718537Y30703968D02*
X-11152851Y31269653D01*
X-11152851Y31269653D02*
X-10964289Y31081091D01*
X-10964289Y31081091D02*
X-10937352Y31000279D01*
X-10937352Y31000279D02*
X-10937352Y30946404D01*
X-10937352Y30946404D02*
X-10964289Y30865592D01*
X-10964289Y30865592D02*
X-11018164Y30811717D01*
X-11018164Y30811717D02*
X-11098976Y30784780D01*
X-11098976Y30784780D02*
X-11152851Y30784780D01*
X-11152851Y30784780D02*
X-11233663Y30811717D01*
X-11233663Y30811717D02*
X-11422225Y31000279D01*
X-10479416Y30596218D02*
X-10425541Y30542343D01*
X-10425541Y30542343D02*
X-10398604Y30461531D01*
X-10398604Y30461531D02*
X-10398604Y30407656D01*
X-10398604Y30407656D02*
X-10425541Y30326844D01*
X-10425541Y30326844D02*
X-10506354Y30192157D01*
X-10506354Y30192157D02*
X-10641041Y30057470D01*
X-10641041Y30057470D02*
X-10775728Y29976658D01*
X-10775728Y29976658D02*
X-10856540Y29949720D01*
X-10856540Y29949720D02*
X-10910415Y29949720D01*
X-10910415Y29949720D02*
X-10991227Y29976658D01*
X-10991227Y29976658D02*
X-11045102Y30030533D01*
X-11045102Y30030533D02*
X-11072039Y30111345D01*
X-11072039Y30111345D02*
X-11072039Y30165220D01*
X-11072039Y30165220D02*
X-11045102Y30246032D01*
X-11045102Y30246032D02*
X-10964289Y30380719D01*
X-10964289Y30380719D02*
X-10829602Y30515406D01*
X-10829602Y30515406D02*
X-10694915Y30596218D01*
X-10694915Y30596218D02*
X-10614103Y30623155D01*
X-10614103Y30623155D02*
X-10560228Y30623155D01*
X-10560228Y30623155D02*
X-10479416Y30596218D01*
D11*
X-14847012Y36207478D02*
X-14139905Y36914585D01*
X-14038890Y36342165D02*
X-14510295Y35870761D01*
X-14106234Y36274822D02*
X-14038890Y36274822D01*
X-14038890Y36274822D02*
X-13937875Y36241150D01*
X-13937875Y36241150D02*
X-13836860Y36140135D01*
X-13836860Y36140135D02*
X-13803188Y36039119D01*
X-13803188Y36039119D02*
X-13836860Y35938104D01*
X-13836860Y35938104D02*
X-14207249Y35567715D01*
X-13466471Y35769745D02*
X-13769516Y35129982D01*
X-13769516Y35129982D02*
X-13129753Y35433028D01*
X-13028738Y34456547D02*
X-13129753Y34490219D01*
X-13129753Y34490219D02*
X-13264440Y34624906D01*
X-13264440Y34624906D02*
X-13298112Y34725921D01*
X-13298112Y34725921D02*
X-13264440Y34826936D01*
X-13264440Y34826936D02*
X-12995066Y35096310D01*
X-12995066Y35096310D02*
X-12894051Y35129982D01*
X-12894051Y35129982D02*
X-12793035Y35096310D01*
X-12793035Y35096310D02*
X-12658348Y34961623D01*
X-12658348Y34961623D02*
X-12624677Y34860608D01*
X-12624677Y34860608D02*
X-12658348Y34759593D01*
X-12658348Y34759593D02*
X-12725692Y34692249D01*
X-12725692Y34692249D02*
X-13129753Y34961623D01*
X-12725692Y34086157D02*
X-12254287Y34557562D01*
X-12388974Y34422875D02*
X-12287959Y34456547D01*
X-12287959Y34456547D02*
X-12220615Y34456547D01*
X-12220615Y34456547D02*
X-12119600Y34422875D01*
X-12119600Y34422875D02*
X-12052257Y34355531D01*
X-11917569Y34220844D02*
X-11648195Y33951470D01*
X-11580852Y34355531D02*
X-12186943Y33749440D01*
X-12186943Y33749440D02*
X-12220615Y33648424D01*
X-12220615Y33648424D02*
X-12186943Y33547409D01*
X-12186943Y33547409D02*
X-12119600Y33480066D01*
X-11580852Y33008661D02*
X-11681867Y33042333D01*
X-11681867Y33042333D02*
X-11816554Y33177020D01*
X-11816554Y33177020D02*
X-11850226Y33278035D01*
X-11850226Y33278035D02*
X-11816554Y33379050D01*
X-11816554Y33379050D02*
X-11547180Y33648424D01*
X-11547180Y33648424D02*
X-11446165Y33682096D01*
X-11446165Y33682096D02*
X-11345149Y33648424D01*
X-11345149Y33648424D02*
X-11210462Y33513737D01*
X-11210462Y33513737D02*
X-11176791Y33412722D01*
X-11176791Y33412722D02*
X-11210462Y33311707D01*
X-11210462Y33311707D02*
X-11277806Y33244363D01*
X-11277806Y33244363D02*
X-11681867Y33513737D01*
X-11277806Y32638271D02*
X-10806401Y33109676D01*
X-10941088Y32974989D02*
X-10840073Y33008661D01*
X-10840073Y33008661D02*
X-10772729Y33008661D01*
X-10772729Y33008661D02*
X-10671714Y32974989D01*
X-10671714Y32974989D02*
X-10604371Y32907645D01*
X-10301324Y31661790D02*
X-9594218Y32368897D01*
X-9594218Y32368897D02*
X-9425859Y32200538D01*
X-9425859Y32200538D02*
X-9358515Y32065851D01*
X-9358515Y32065851D02*
X-9358515Y31931164D01*
X-9358515Y31931164D02*
X-9392187Y31830149D01*
X-9392187Y31830149D02*
X-9493202Y31661790D01*
X-9493202Y31661790D02*
X-9594218Y31560775D01*
X-9594218Y31560775D02*
X-9762576Y31459760D01*
X-9762576Y31459760D02*
X-9863592Y31426088D01*
X-9863592Y31426088D02*
X-9998279Y31426088D01*
X-9998279Y31426088D02*
X-10132966Y31493431D01*
X-10132966Y31493431D02*
X-10301324Y31661790D01*
X-9291172Y30718981D02*
X-9392187Y30752653D01*
X-9392187Y30752653D02*
X-9526874Y30887340D01*
X-9526874Y30887340D02*
X-9560546Y30988355D01*
X-9560546Y30988355D02*
X-9526874Y31089370D01*
X-9526874Y31089370D02*
X-9257500Y31358744D01*
X-9257500Y31358744D02*
X-9156485Y31392416D01*
X-9156485Y31392416D02*
X-9055470Y31358744D01*
X-9055470Y31358744D02*
X-8920783Y31224057D01*
X-8920783Y31224057D02*
X-8887111Y31123042D01*
X-8887111Y31123042D02*
X-8920783Y31022027D01*
X-8920783Y31022027D02*
X-8988126Y30954683D01*
X-8988126Y30954683D02*
X-9392187Y31224057D01*
X-8651409Y30079218D02*
X-8752424Y30112890D01*
X-8752424Y30112890D02*
X-8887111Y30247577D01*
X-8887111Y30247577D02*
X-8920783Y30348592D01*
X-8920783Y30348592D02*
X-8920783Y30415935D01*
X-8920783Y30415935D02*
X-8887111Y30516951D01*
X-8887111Y30516951D02*
X-8685080Y30718981D01*
X-8685080Y30718981D02*
X-8584065Y30752653D01*
X-8584065Y30752653D02*
X-8516722Y30752653D01*
X-8516722Y30752653D02*
X-8415706Y30718981D01*
X-8415706Y30718981D02*
X-8281019Y30584294D01*
X-8281019Y30584294D02*
X-8247348Y30483279D01*
X-8281019Y29641485D02*
X-8314691Y29742500D01*
X-8314691Y29742500D02*
X-8314691Y29809844D01*
X-8314691Y29809844D02*
X-8281019Y29910859D01*
X-8281019Y29910859D02*
X-8078989Y30112889D01*
X-8078989Y30112889D02*
X-7977973Y30146561D01*
X-7977973Y30146561D02*
X-7910630Y30146561D01*
X-7910630Y30146561D02*
X-7809615Y30112889D01*
X-7809615Y30112889D02*
X-7708599Y30011874D01*
X-7708599Y30011874D02*
X-7674928Y29910859D01*
X-7674928Y29910859D02*
X-7674928Y29843515D01*
X-7674928Y29843515D02*
X-7708599Y29742500D01*
X-7708599Y29742500D02*
X-7910630Y29540470D01*
X-7910630Y29540470D02*
X-8011645Y29506798D01*
X-8011645Y29506798D02*
X-8078989Y29506798D01*
X-8078989Y29506798D02*
X-8180004Y29540470D01*
X-8180004Y29540470D02*
X-8281019Y29641485D01*
X-7439225Y28799691D02*
X-6732119Y29506798D01*
X-7405554Y28833363D02*
X-7506569Y28867035D01*
X-7506569Y28867035D02*
X-7641256Y29001722D01*
X-7641256Y29001722D02*
X-7674928Y29102737D01*
X-7674928Y29102737D02*
X-7674928Y29170080D01*
X-7674928Y29170080D02*
X-7641256Y29271096D01*
X-7641256Y29271096D02*
X-7439225Y29473126D01*
X-7439225Y29473126D02*
X-7338210Y29506798D01*
X-7338210Y29506798D02*
X-7270867Y29506798D01*
X-7270867Y29506798D02*
X-7169851Y29473126D01*
X-7169851Y29473126D02*
X-7035164Y29338439D01*
X-7035164Y29338439D02*
X-7001493Y29237424D01*
X-6799462Y28227271D02*
X-6900477Y28260943D01*
X-6900477Y28260943D02*
X-7035164Y28395630D01*
X-7035164Y28395630D02*
X-7068836Y28496645D01*
X-7068836Y28496645D02*
X-7035164Y28597660D01*
X-7035164Y28597660D02*
X-6765790Y28867034D01*
X-6765790Y28867034D02*
X-6664775Y28900706D01*
X-6664775Y28900706D02*
X-6563760Y28867034D01*
X-6563760Y28867034D02*
X-6429073Y28732347D01*
X-6429073Y28732347D02*
X-6395401Y28631332D01*
X-6395401Y28631332D02*
X-6429073Y28530317D01*
X-6429073Y28530317D02*
X-6496416Y28462973D01*
X-6496416Y28462973D02*
X-6900477Y28732347D01*
X-6496416Y27856882D02*
X-6025012Y28328286D01*
X-6159699Y28193599D02*
X-6058683Y28227271D01*
X-6058683Y28227271D02*
X-5991340Y28227271D01*
X-5991340Y28227271D02*
X-5890325Y28193599D01*
X-5890325Y28193599D02*
X-5822981Y28126256D01*
X-4913843Y27015088D02*
X-4846500Y26880401D01*
X-4846500Y26880401D02*
X-4846500Y26813057D01*
X-4846500Y26813057D02*
X-4880172Y26712042D01*
X-4880172Y26712042D02*
X-4981187Y26611027D01*
X-4981187Y26611027D02*
X-5082202Y26577355D01*
X-5082202Y26577355D02*
X-5149546Y26577355D01*
X-5149546Y26577355D02*
X-5250561Y26611027D01*
X-5250561Y26611027D02*
X-5519935Y26880401D01*
X-5519935Y26880401D02*
X-4812828Y27587507D01*
X-4812828Y27587507D02*
X-4577126Y27351805D01*
X-4577126Y27351805D02*
X-4543454Y27250790D01*
X-4543454Y27250790D02*
X-4543454Y27183446D01*
X-4543454Y27183446D02*
X-4577126Y27082431D01*
X-4577126Y27082431D02*
X-4644469Y27015088D01*
X-4644469Y27015088D02*
X-4745485Y26981416D01*
X-4745485Y26981416D02*
X-4812828Y26981416D01*
X-4812828Y26981416D02*
X-4913843Y27015088D01*
X-4913843Y27015088D02*
X-5149546Y27250790D01*
X-4711813Y26072279D02*
X-4745485Y26173294D01*
X-4745485Y26173294D02*
X-4745485Y26240637D01*
X-4745485Y26240637D02*
X-4711813Y26341653D01*
X-4711813Y26341653D02*
X-4509782Y26543683D01*
X-4509782Y26543683D02*
X-4408767Y26577355D01*
X-4408767Y26577355D02*
X-4341424Y26577355D01*
X-4341424Y26577355D02*
X-4240408Y26543683D01*
X-4240408Y26543683D02*
X-4139393Y26442668D01*
X-4139393Y26442668D02*
X-4105721Y26341653D01*
X-4105721Y26341653D02*
X-4105721Y26274309D01*
X-4105721Y26274309D02*
X-4139393Y26173294D01*
X-4139393Y26173294D02*
X-4341424Y25971263D01*
X-4341424Y25971263D02*
X-4442439Y25937592D01*
X-4442439Y25937592D02*
X-4509782Y25937592D01*
X-4509782Y25937592D02*
X-4610798Y25971263D01*
X-4610798Y25971263D02*
X-4711813Y26072279D01*
X-3870019Y25230485D02*
X-3499630Y25600874D01*
X-3499630Y25600874D02*
X-3465958Y25701889D01*
X-3465958Y25701889D02*
X-3499630Y25802904D01*
X-3499630Y25802904D02*
X-3634317Y25937591D01*
X-3634317Y25937591D02*
X-3735332Y25971263D01*
X-3836347Y25264156D02*
X-3937363Y25297828D01*
X-3937363Y25297828D02*
X-4105721Y25466187D01*
X-4105721Y25466187D02*
X-4139393Y25567202D01*
X-4139393Y25567202D02*
X-4105721Y25668217D01*
X-4105721Y25668217D02*
X-4038378Y25735561D01*
X-4038378Y25735561D02*
X-3937363Y25769233D01*
X-3937363Y25769233D02*
X-3836347Y25735561D01*
X-3836347Y25735561D02*
X-3667988Y25567202D01*
X-3667988Y25567202D02*
X-3566973Y25533530D01*
X-3533301Y24893767D02*
X-3061897Y25365172D01*
X-3196584Y25230485D02*
X-3095569Y25264156D01*
X-3095569Y25264156D02*
X-3028225Y25264156D01*
X-3028225Y25264156D02*
X-2927210Y25230485D01*
X-2927210Y25230485D02*
X-2859866Y25163141D01*
X-2792523Y24152988D02*
X-2085416Y24860095D01*
X-2758851Y24186660D02*
X-2859866Y24220332D01*
X-2859866Y24220332D02*
X-2994553Y24355019D01*
X-2994553Y24355019D02*
X-3028225Y24456034D01*
X-3028225Y24456034D02*
X-3028225Y24523378D01*
X-3028225Y24523378D02*
X-2994553Y24624393D01*
X-2994553Y24624393D02*
X-2792523Y24826423D01*
X-2792523Y24826423D02*
X-2691507Y24860095D01*
X-2691507Y24860095D02*
X-2624164Y24860095D01*
X-2624164Y24860095D02*
X-2523149Y24826423D01*
X-2523149Y24826423D02*
X-2388462Y24691736D01*
X-2388462Y24691736D02*
X-2354790Y24590721D01*
D12*
X-28857143Y36742443D02*
X-28142857Y36742443D01*
X-29000000Y36313872D02*
X-28500000Y37813872D01*
X-28500000Y37813872D02*
X-28000000Y36313872D01*
X-27500001Y36885300D02*
X-26357143Y36885300D01*
X-24000001Y37099586D02*
X-23785715Y37028158D01*
X-23785715Y37028158D02*
X-23714286Y36956729D01*
X-23714286Y36956729D02*
X-23642858Y36813872D01*
X-23642858Y36813872D02*
X-23642858Y36599586D01*
X-23642858Y36599586D02*
X-23714286Y36456729D01*
X-23714286Y36456729D02*
X-23785715Y36385300D01*
X-23785715Y36385300D02*
X-23928572Y36313872D01*
X-23928572Y36313872D02*
X-24500001Y36313872D01*
X-24500001Y36313872D02*
X-24500001Y37813872D01*
X-24500001Y37813872D02*
X-24000001Y37813872D01*
X-24000001Y37813872D02*
X-23857143Y37742443D01*
X-23857143Y37742443D02*
X-23785715Y37671015D01*
X-23785715Y37671015D02*
X-23714286Y37528158D01*
X-23714286Y37528158D02*
X-23714286Y37385300D01*
X-23714286Y37385300D02*
X-23785715Y37242443D01*
X-23785715Y37242443D02*
X-23857143Y37171015D01*
X-23857143Y37171015D02*
X-24000001Y37099586D01*
X-24000001Y37099586D02*
X-24500001Y37099586D01*
X-23000001Y36885300D02*
X-21857143Y36885300D01*
X-22428572Y36313872D02*
X-22428572Y37456729D01*
X-19142858Y36456729D02*
X-19214286Y36385300D01*
X-19214286Y36385300D02*
X-19428572Y36313872D01*
X-19428572Y36313872D02*
X-19571429Y36313872D01*
X-19571429Y36313872D02*
X-19785715Y36385300D01*
X-19785715Y36385300D02*
X-19928572Y36528158D01*
X-19928572Y36528158D02*
X-20000001Y36671015D01*
X-20000001Y36671015D02*
X-20071429Y36956729D01*
X-20071429Y36956729D02*
X-20071429Y37171015D01*
X-20071429Y37171015D02*
X-20000001Y37456729D01*
X-20000001Y37456729D02*
X-19928572Y37599586D01*
X-19928572Y37599586D02*
X-19785715Y37742443D01*
X-19785715Y37742443D02*
X-19571429Y37813872D01*
X-19571429Y37813872D02*
X-19428572Y37813872D01*
X-19428572Y37813872D02*
X-19214286Y37742443D01*
X-19214286Y37742443D02*
X-19142858Y37671015D01*
X-39566667Y30840420D02*
X-39614286Y30792800D01*
X-39614286Y30792800D02*
X-39757143Y30745181D01*
X-39757143Y30745181D02*
X-39852381Y30745181D01*
X-39852381Y30745181D02*
X-39995238Y30792800D01*
X-39995238Y30792800D02*
X-40090476Y30888039D01*
X-40090476Y30888039D02*
X-40138095Y30983277D01*
X-40138095Y30983277D02*
X-40185714Y31173753D01*
X-40185714Y31173753D02*
X-40185714Y31316610D01*
X-40185714Y31316610D02*
X-40138095Y31507086D01*
X-40138095Y31507086D02*
X-40090476Y31602324D01*
X-40090476Y31602324D02*
X-39995238Y31697562D01*
X-39995238Y31697562D02*
X-39852381Y31745181D01*
X-39852381Y31745181D02*
X-39757143Y31745181D01*
X-39757143Y31745181D02*
X-39614286Y31697562D01*
X-39614286Y31697562D02*
X-39566667Y31649943D01*
X-39185714Y31649943D02*
X-39138095Y31697562D01*
X-39138095Y31697562D02*
X-39042857Y31745181D01*
X-39042857Y31745181D02*
X-38804762Y31745181D01*
X-38804762Y31745181D02*
X-38709524Y31697562D01*
X-38709524Y31697562D02*
X-38661905Y31649943D01*
X-38661905Y31649943D02*
X-38614286Y31554705D01*
X-38614286Y31554705D02*
X-38614286Y31459467D01*
X-38614286Y31459467D02*
X-38661905Y31316610D01*
X-38661905Y31316610D02*
X-39233333Y30745181D01*
X-39233333Y30745181D02*
X-38614286Y30745181D01*
X-34046181Y32267906D02*
X-35046181Y32267906D01*
X-35046181Y32267906D02*
X-35046181Y32506001D01*
X-35046181Y32506001D02*
X-34998562Y32648858D01*
X-34998562Y32648858D02*
X-34903324Y32744096D01*
X-34903324Y32744096D02*
X-34808086Y32791715D01*
X-34808086Y32791715D02*
X-34617610Y32839334D01*
X-34617610Y32839334D02*
X-34474753Y32839334D01*
X-34474753Y32839334D02*
X-34284277Y32791715D01*
X-34284277Y32791715D02*
X-34189039Y32744096D01*
X-34189039Y32744096D02*
X-34093800Y32648858D01*
X-34093800Y32648858D02*
X-34046181Y32506001D01*
X-34046181Y32506001D02*
X-34046181Y32267906D01*
X-34950943Y33220287D02*
X-34998562Y33267906D01*
X-34998562Y33267906D02*
X-35046181Y33363144D01*
X-35046181Y33363144D02*
X-35046181Y33601239D01*
X-35046181Y33601239D02*
X-34998562Y33696477D01*
X-34998562Y33696477D02*
X-34950943Y33744096D01*
X-34950943Y33744096D02*
X-34855705Y33791715D01*
X-34855705Y33791715D02*
X-34760467Y33791715D01*
X-34760467Y33791715D02*
X-34617610Y33744096D01*
X-34617610Y33744096D02*
X-34046181Y33172668D01*
X-34046181Y33172668D02*
X-34046181Y33791715D01*
D10*
X-9112336Y1466668D02*
X-9074240Y1428572D01*
X-9074240Y1428572D02*
X-9036145Y1314287D01*
X-9036145Y1314287D02*
X-9036145Y1238096D01*
X-9036145Y1238096D02*
X-9074240Y1123810D01*
X-9074240Y1123810D02*
X-9150431Y1047620D01*
X-9150431Y1047620D02*
X-9226621Y1009525D01*
X-9226621Y1009525D02*
X-9379002Y971429D01*
X-9379002Y971429D02*
X-9493288Y971429D01*
X-9493288Y971429D02*
X-9645669Y1009525D01*
X-9645669Y1009525D02*
X-9721860Y1047620D01*
X-9721860Y1047620D02*
X-9798050Y1123810D01*
X-9798050Y1123810D02*
X-9836145Y1238096D01*
X-9836145Y1238096D02*
X-9836145Y1314287D01*
X-9836145Y1314287D02*
X-9798050Y1428572D01*
X-9798050Y1428572D02*
X-9759955Y1466668D01*
X-9036145Y1847620D02*
X-9036145Y2000001D01*
X-9036145Y2000001D02*
X-9074240Y2076191D01*
X-9074240Y2076191D02*
X-9112336Y2114287D01*
X-9112336Y2114287D02*
X-9226621Y2190477D01*
X-9226621Y2190477D02*
X-9379002Y2228572D01*
X-9379002Y2228572D02*
X-9683764Y2228572D01*
X-9683764Y2228572D02*
X-9759955Y2190477D01*
X-9759955Y2190477D02*
X-9798050Y2152382D01*
X-9798050Y2152382D02*
X-9836145Y2076191D01*
X-9836145Y2076191D02*
X-9836145Y1923810D01*
X-9836145Y1923810D02*
X-9798050Y1847620D01*
X-9798050Y1847620D02*
X-9759955Y1809525D01*
X-9759955Y1809525D02*
X-9683764Y1771429D01*
X-9683764Y1771429D02*
X-9493288Y1771429D01*
X-9493288Y1771429D02*
X-9417098Y1809525D01*
X-9417098Y1809525D02*
X-9379002Y1847620D01*
X-9379002Y1847620D02*
X-9340907Y1923810D01*
X-9340907Y1923810D02*
X-9340907Y2076191D01*
X-9340907Y2076191D02*
X-9379002Y2152382D01*
X-9379002Y2152382D02*
X-9417098Y2190477D01*
X-9417098Y2190477D02*
X-9493288Y2228572D01*
X-27666667Y8636145D02*
X-27666667Y8064717D01*
X-27666667Y8064717D02*
X-27704762Y7950431D01*
X-27704762Y7950431D02*
X-27780953Y7874240D01*
X-27780953Y7874240D02*
X-27895238Y7836145D01*
X-27895238Y7836145D02*
X-27971429Y7836145D01*
X-26942857Y8369479D02*
X-26942857Y7836145D01*
X-27133333Y8674240D02*
X-27323810Y8102812D01*
X-27323810Y8102812D02*
X-26828571Y8102812D01*
D12*
X-23361905Y6345181D02*
X-23361905Y5535658D01*
X-23361905Y5535658D02*
X-23314286Y5440420D01*
X-23314286Y5440420D02*
X-23266667Y5392800D01*
X-23266667Y5392800D02*
X-23171429Y5345181D01*
X-23171429Y5345181D02*
X-22980953Y5345181D01*
X-22980953Y5345181D02*
X-22885715Y5392800D01*
X-22885715Y5392800D02*
X-22838096Y5440420D01*
X-22838096Y5440420D02*
X-22790477Y5535658D01*
X-22790477Y5535658D02*
X-22790477Y6345181D01*
X-22409524Y6345181D02*
X-21742858Y6345181D01*
X-21742858Y6345181D02*
X-22171429Y5345181D01*
D10*
X-24133333Y15036145D02*
X-24400000Y15417098D01*
X-24590476Y15036145D02*
X-24590476Y15836145D01*
X-24590476Y15836145D02*
X-24285714Y15836145D01*
X-24285714Y15836145D02*
X-24209524Y15798050D01*
X-24209524Y15798050D02*
X-24171429Y15759955D01*
X-24171429Y15759955D02*
X-24133333Y15683764D01*
X-24133333Y15683764D02*
X-24133333Y15569479D01*
X-24133333Y15569479D02*
X-24171429Y15493288D01*
X-24171429Y15493288D02*
X-24209524Y15455193D01*
X-24209524Y15455193D02*
X-24285714Y15417098D01*
X-24285714Y15417098D02*
X-24590476Y15417098D01*
X-23409524Y15836145D02*
X-23790476Y15836145D01*
X-23790476Y15836145D02*
X-23828572Y15455193D01*
X-23828572Y15455193D02*
X-23790476Y15493288D01*
X-23790476Y15493288D02*
X-23714286Y15531383D01*
X-23714286Y15531383D02*
X-23523810Y15531383D01*
X-23523810Y15531383D02*
X-23447619Y15493288D01*
X-23447619Y15493288D02*
X-23409524Y15455193D01*
X-23409524Y15455193D02*
X-23371429Y15379002D01*
X-23371429Y15379002D02*
X-23371429Y15188526D01*
X-23371429Y15188526D02*
X-23409524Y15112336D01*
X-23409524Y15112336D02*
X-23447619Y15074240D01*
X-23447619Y15074240D02*
X-23523810Y15036145D01*
X-23523810Y15036145D02*
X-23714286Y15036145D01*
X-23714286Y15036145D02*
X-23790476Y15074240D01*
X-23790476Y15074240D02*
X-23828572Y15112336D01*
X-35913336Y19272668D02*
X-35875240Y19234572D01*
X-35875240Y19234572D02*
X-35837145Y19120287D01*
X-35837145Y19120287D02*
X-35837145Y19044096D01*
X-35837145Y19044096D02*
X-35875240Y18929810D01*
X-35875240Y18929810D02*
X-35951431Y18853620D01*
X-35951431Y18853620D02*
X-36027621Y18815525D01*
X-36027621Y18815525D02*
X-36180002Y18777429D01*
X-36180002Y18777429D02*
X-36294288Y18777429D01*
X-36294288Y18777429D02*
X-36446669Y18815525D01*
X-36446669Y18815525D02*
X-36522860Y18853620D01*
X-36522860Y18853620D02*
X-36599050Y18929810D01*
X-36599050Y18929810D02*
X-36637145Y19044096D01*
X-36637145Y19044096D02*
X-36637145Y19120287D01*
X-36637145Y19120287D02*
X-36599050Y19234572D01*
X-36599050Y19234572D02*
X-36560955Y19272668D01*
X-35837145Y20034572D02*
X-35837145Y19577429D01*
X-35837145Y19806001D02*
X-36637145Y19806001D01*
X-36637145Y19806001D02*
X-36522860Y19729810D01*
X-36522860Y19729810D02*
X-36446669Y19653620D01*
X-36446669Y19653620D02*
X-36408574Y19577429D01*
X-23913336Y26872668D02*
X-23875240Y26834572D01*
X-23875240Y26834572D02*
X-23837145Y26720287D01*
X-23837145Y26720287D02*
X-23837145Y26644096D01*
X-23837145Y26644096D02*
X-23875240Y26529810D01*
X-23875240Y26529810D02*
X-23951431Y26453620D01*
X-23951431Y26453620D02*
X-24027621Y26415525D01*
X-24027621Y26415525D02*
X-24180002Y26377429D01*
X-24180002Y26377429D02*
X-24294288Y26377429D01*
X-24294288Y26377429D02*
X-24446669Y26415525D01*
X-24446669Y26415525D02*
X-24522860Y26453620D01*
X-24522860Y26453620D02*
X-24599050Y26529810D01*
X-24599050Y26529810D02*
X-24637145Y26644096D01*
X-24637145Y26644096D02*
X-24637145Y26720287D01*
X-24637145Y26720287D02*
X-24599050Y26834572D01*
X-24599050Y26834572D02*
X-24560955Y26872668D01*
X-24637145Y27139334D02*
X-24637145Y27672668D01*
X-24637145Y27672668D02*
X-23837145Y27329810D01*
X-41113336Y26366668D02*
X-41075240Y26328572D01*
X-41075240Y26328572D02*
X-41037145Y26214287D01*
X-41037145Y26214287D02*
X-41037145Y26138096D01*
X-41037145Y26138096D02*
X-41075240Y26023810D01*
X-41075240Y26023810D02*
X-41151431Y25947620D01*
X-41151431Y25947620D02*
X-41227621Y25909525D01*
X-41227621Y25909525D02*
X-41380002Y25871429D01*
X-41380002Y25871429D02*
X-41494288Y25871429D01*
X-41494288Y25871429D02*
X-41646669Y25909525D01*
X-41646669Y25909525D02*
X-41722860Y25947620D01*
X-41722860Y25947620D02*
X-41799050Y26023810D01*
X-41799050Y26023810D02*
X-41837145Y26138096D01*
X-41837145Y26138096D02*
X-41837145Y26214287D01*
X-41837145Y26214287D02*
X-41799050Y26328572D01*
X-41799050Y26328572D02*
X-41760955Y26366668D01*
X-41837145Y26633334D02*
X-41837145Y27128572D01*
X-41837145Y27128572D02*
X-41532383Y26861906D01*
X-41532383Y26861906D02*
X-41532383Y26976191D01*
X-41532383Y26976191D02*
X-41494288Y27052382D01*
X-41494288Y27052382D02*
X-41456193Y27090477D01*
X-41456193Y27090477D02*
X-41380002Y27128572D01*
X-41380002Y27128572D02*
X-41189526Y27128572D01*
X-41189526Y27128572D02*
X-41113336Y27090477D01*
X-41113336Y27090477D02*
X-41075240Y27052382D01*
X-41075240Y27052382D02*
X-41037145Y26976191D01*
X-41037145Y26976191D02*
X-41037145Y26747620D01*
X-41037145Y26747620D02*
X-41075240Y26671429D01*
X-41075240Y26671429D02*
X-41113336Y26633334D01*
X-20434333Y13242145D02*
X-20701000Y13623098D01*
X-20891476Y13242145D02*
X-20891476Y14042145D01*
X-20891476Y14042145D02*
X-20586714Y14042145D01*
X-20586714Y14042145D02*
X-20510524Y14004050D01*
X-20510524Y14004050D02*
X-20472429Y13965955D01*
X-20472429Y13965955D02*
X-20434333Y13889764D01*
X-20434333Y13889764D02*
X-20434333Y13775479D01*
X-20434333Y13775479D02*
X-20472429Y13699288D01*
X-20472429Y13699288D02*
X-20510524Y13661193D01*
X-20510524Y13661193D02*
X-20586714Y13623098D01*
X-20586714Y13623098D02*
X-20891476Y13623098D01*
X-19748619Y14042145D02*
X-19901000Y14042145D01*
X-19901000Y14042145D02*
X-19977191Y14004050D01*
X-19977191Y14004050D02*
X-20015286Y13965955D01*
X-20015286Y13965955D02*
X-20091476Y13851669D01*
X-20091476Y13851669D02*
X-20129572Y13699288D01*
X-20129572Y13699288D02*
X-20129572Y13394526D01*
X-20129572Y13394526D02*
X-20091476Y13318336D01*
X-20091476Y13318336D02*
X-20053381Y13280240D01*
X-20053381Y13280240D02*
X-19977191Y13242145D01*
X-19977191Y13242145D02*
X-19824810Y13242145D01*
X-19824810Y13242145D02*
X-19748619Y13280240D01*
X-19748619Y13280240D02*
X-19710524Y13318336D01*
X-19710524Y13318336D02*
X-19672429Y13394526D01*
X-19672429Y13394526D02*
X-19672429Y13585002D01*
X-19672429Y13585002D02*
X-19710524Y13661193D01*
X-19710524Y13661193D02*
X-19748619Y13699288D01*
X-19748619Y13699288D02*
X-19824810Y13737383D01*
X-19824810Y13737383D02*
X-19977191Y13737383D01*
X-19977191Y13737383D02*
X-20053381Y13699288D01*
X-20053381Y13699288D02*
X-20091476Y13661193D01*
X-20091476Y13661193D02*
X-20129572Y13585002D01*
D12*
X-32642858Y1960420D02*
X-32690477Y1912800D01*
X-32690477Y1912800D02*
X-32833334Y1865181D01*
X-32833334Y1865181D02*
X-32928572Y1865181D01*
X-32928572Y1865181D02*
X-33071429Y1912800D01*
X-33071429Y1912800D02*
X-33166667Y2008039D01*
X-33166667Y2008039D02*
X-33214286Y2103277D01*
X-33214286Y2103277D02*
X-33261905Y2293753D01*
X-33261905Y2293753D02*
X-33261905Y2436610D01*
X-33261905Y2436610D02*
X-33214286Y2627086D01*
X-33214286Y2627086D02*
X-33166667Y2722324D01*
X-33166667Y2722324D02*
X-33071429Y2817562D01*
X-33071429Y2817562D02*
X-32928572Y2865181D01*
X-32928572Y2865181D02*
X-32833334Y2865181D01*
X-32833334Y2865181D02*
X-32690477Y2817562D01*
X-32690477Y2817562D02*
X-32642858Y2769943D01*
X-31690477Y1865181D02*
X-32261905Y1865181D01*
X-31976191Y1865181D02*
X-31976191Y2865181D01*
X-31976191Y2865181D02*
X-32071429Y2722324D01*
X-32071429Y2722324D02*
X-32166667Y2627086D01*
X-32166667Y2627086D02*
X-32261905Y2579467D01*
X-30833334Y2531848D02*
X-30833334Y1865181D01*
X-31071429Y2912800D02*
X-31309524Y2198515D01*
X-31309524Y2198515D02*
X-30690477Y2198515D01*
D10*
X-23134333Y25842145D02*
X-23401000Y26223098D01*
X-23591476Y25842145D02*
X-23591476Y26642145D01*
X-23591476Y26642145D02*
X-23286714Y26642145D01*
X-23286714Y26642145D02*
X-23210524Y26604050D01*
X-23210524Y26604050D02*
X-23172429Y26565955D01*
X-23172429Y26565955D02*
X-23134333Y26489764D01*
X-23134333Y26489764D02*
X-23134333Y26375479D01*
X-23134333Y26375479D02*
X-23172429Y26299288D01*
X-23172429Y26299288D02*
X-23210524Y26261193D01*
X-23210524Y26261193D02*
X-23286714Y26223098D01*
X-23286714Y26223098D02*
X-23591476Y26223098D01*
X-22448619Y26375479D02*
X-22448619Y25842145D01*
X-22639095Y26680240D02*
X-22829572Y26108812D01*
X-22829572Y26108812D02*
X-22334333Y26108812D01*
D12*
X-26767667Y34750181D02*
X-27101000Y35226372D01*
X-27339095Y34750181D02*
X-27339095Y35750181D01*
X-27339095Y35750181D02*
X-26958143Y35750181D01*
X-26958143Y35750181D02*
X-26862905Y35702562D01*
X-26862905Y35702562D02*
X-26815286Y35654943D01*
X-26815286Y35654943D02*
X-26767667Y35559705D01*
X-26767667Y35559705D02*
X-26767667Y35416848D01*
X-26767667Y35416848D02*
X-26815286Y35321610D01*
X-26815286Y35321610D02*
X-26862905Y35273991D01*
X-26862905Y35273991D02*
X-26958143Y35226372D01*
X-26958143Y35226372D02*
X-27339095Y35226372D01*
X-26196238Y35321610D02*
X-26291476Y35369229D01*
X-26291476Y35369229D02*
X-26339095Y35416848D01*
X-26339095Y35416848D02*
X-26386714Y35512086D01*
X-26386714Y35512086D02*
X-26386714Y35559705D01*
X-26386714Y35559705D02*
X-26339095Y35654943D01*
X-26339095Y35654943D02*
X-26291476Y35702562D01*
X-26291476Y35702562D02*
X-26196238Y35750181D01*
X-26196238Y35750181D02*
X-26005762Y35750181D01*
X-26005762Y35750181D02*
X-25910524Y35702562D01*
X-25910524Y35702562D02*
X-25862905Y35654943D01*
X-25862905Y35654943D02*
X-25815286Y35559705D01*
X-25815286Y35559705D02*
X-25815286Y35512086D01*
X-25815286Y35512086D02*
X-25862905Y35416848D01*
X-25862905Y35416848D02*
X-25910524Y35369229D01*
X-25910524Y35369229D02*
X-26005762Y35321610D01*
X-26005762Y35321610D02*
X-26196238Y35321610D01*
X-26196238Y35321610D02*
X-26291476Y35273991D01*
X-26291476Y35273991D02*
X-26339095Y35226372D01*
X-26339095Y35226372D02*
X-26386714Y35131134D01*
X-26386714Y35131134D02*
X-26386714Y34940658D01*
X-26386714Y34940658D02*
X-26339095Y34845420D01*
X-26339095Y34845420D02*
X-26291476Y34797800D01*
X-26291476Y34797800D02*
X-26196238Y34750181D01*
X-26196238Y34750181D02*
X-26005762Y34750181D01*
X-26005762Y34750181D02*
X-25910524Y34797800D01*
X-25910524Y34797800D02*
X-25862905Y34845420D01*
X-25862905Y34845420D02*
X-25815286Y34940658D01*
X-25815286Y34940658D02*
X-25815286Y35131134D01*
X-25815286Y35131134D02*
X-25862905Y35226372D01*
X-25862905Y35226372D02*
X-25910524Y35273991D01*
X-25910524Y35273991D02*
X-26005762Y35321610D01*
X-28242858Y11345181D02*
X-28576191Y11821372D01*
X-28814286Y11345181D02*
X-28814286Y12345181D01*
X-28814286Y12345181D02*
X-28433334Y12345181D01*
X-28433334Y12345181D02*
X-28338096Y12297562D01*
X-28338096Y12297562D02*
X-28290477Y12249943D01*
X-28290477Y12249943D02*
X-28242858Y12154705D01*
X-28242858Y12154705D02*
X-28242858Y12011848D01*
X-28242858Y12011848D02*
X-28290477Y11916610D01*
X-28290477Y11916610D02*
X-28338096Y11868991D01*
X-28338096Y11868991D02*
X-28433334Y11821372D01*
X-28433334Y11821372D02*
X-28814286Y11821372D01*
X-27290477Y11345181D02*
X-27861905Y11345181D01*
X-27576191Y11345181D02*
X-27576191Y12345181D01*
X-27576191Y12345181D02*
X-27671429Y12202324D01*
X-27671429Y12202324D02*
X-27766667Y12107086D01*
X-27766667Y12107086D02*
X-27861905Y12059467D01*
X-26338096Y11345181D02*
X-26909524Y11345181D01*
X-26623810Y11345181D02*
X-26623810Y12345181D01*
X-26623810Y12345181D02*
X-26719048Y12202324D01*
X-26719048Y12202324D02*
X-26814286Y12107086D01*
X-26814286Y12107086D02*
X-26909524Y12059467D01*
X-30767667Y34750181D02*
X-31101000Y35226372D01*
X-31339095Y34750181D02*
X-31339095Y35750181D01*
X-31339095Y35750181D02*
X-30958143Y35750181D01*
X-30958143Y35750181D02*
X-30862905Y35702562D01*
X-30862905Y35702562D02*
X-30815286Y35654943D01*
X-30815286Y35654943D02*
X-30767667Y35559705D01*
X-30767667Y35559705D02*
X-30767667Y35416848D01*
X-30767667Y35416848D02*
X-30815286Y35321610D01*
X-30815286Y35321610D02*
X-30862905Y35273991D01*
X-30862905Y35273991D02*
X-30958143Y35226372D01*
X-30958143Y35226372D02*
X-31339095Y35226372D01*
X-30434333Y35750181D02*
X-29767667Y35750181D01*
X-29767667Y35750181D02*
X-30196238Y34750181D01*
D10*
X-15115286Y6818336D02*
X-15153382Y6780240D01*
X-15153382Y6780240D02*
X-15267667Y6742145D01*
X-15267667Y6742145D02*
X-15343858Y6742145D01*
X-15343858Y6742145D02*
X-15458144Y6780240D01*
X-15458144Y6780240D02*
X-15534334Y6856431D01*
X-15534334Y6856431D02*
X-15572429Y6932621D01*
X-15572429Y6932621D02*
X-15610525Y7085002D01*
X-15610525Y7085002D02*
X-15610525Y7199288D01*
X-15610525Y7199288D02*
X-15572429Y7351669D01*
X-15572429Y7351669D02*
X-15534334Y7427860D01*
X-15534334Y7427860D02*
X-15458144Y7504050D01*
X-15458144Y7504050D02*
X-15343858Y7542145D01*
X-15343858Y7542145D02*
X-15267667Y7542145D01*
X-15267667Y7542145D02*
X-15153382Y7504050D01*
X-15153382Y7504050D02*
X-15115286Y7465955D01*
X-14353382Y6742145D02*
X-14810525Y6742145D01*
X-14581953Y6742145D02*
X-14581953Y7542145D01*
X-14581953Y7542145D02*
X-14658144Y7427860D01*
X-14658144Y7427860D02*
X-14734334Y7351669D01*
X-14734334Y7351669D02*
X-14810525Y7313574D01*
X-14086715Y7542145D02*
X-13591477Y7542145D01*
X-13591477Y7542145D02*
X-13858143Y7237383D01*
X-13858143Y7237383D02*
X-13743858Y7237383D01*
X-13743858Y7237383D02*
X-13667667Y7199288D01*
X-13667667Y7199288D02*
X-13629572Y7161193D01*
X-13629572Y7161193D02*
X-13591477Y7085002D01*
X-13591477Y7085002D02*
X-13591477Y6894526D01*
X-13591477Y6894526D02*
X-13629572Y6818336D01*
X-13629572Y6818336D02*
X-13667667Y6780240D01*
X-13667667Y6780240D02*
X-13743858Y6742145D01*
X-13743858Y6742145D02*
X-13972429Y6742145D01*
X-13972429Y6742145D02*
X-14048620Y6780240D01*
X-14048620Y6780240D02*
X-14086715Y6818336D01*
D12*
X-20521181Y19618096D02*
X-19711658Y19618096D01*
X-19711658Y19618096D02*
X-19616420Y19665715D01*
X-19616420Y19665715D02*
X-19568800Y19713334D01*
X-19568800Y19713334D02*
X-19521181Y19808572D01*
X-19521181Y19808572D02*
X-19521181Y19999048D01*
X-19521181Y19999048D02*
X-19568800Y20094286D01*
X-19568800Y20094286D02*
X-19616420Y20141905D01*
X-19616420Y20141905D02*
X-19711658Y20189524D01*
X-19711658Y20189524D02*
X-20521181Y20189524D01*
X-20521181Y20570477D02*
X-20521181Y21189524D01*
X-20521181Y21189524D02*
X-20140229Y20856191D01*
X-20140229Y20856191D02*
X-20140229Y20999048D01*
X-20140229Y20999048D02*
X-20092610Y21094286D01*
X-20092610Y21094286D02*
X-20044991Y21141905D01*
X-20044991Y21141905D02*
X-19949753Y21189524D01*
X-19949753Y21189524D02*
X-19711658Y21189524D01*
X-19711658Y21189524D02*
X-19616420Y21141905D01*
X-19616420Y21141905D02*
X-19568800Y21094286D01*
X-19568800Y21094286D02*
X-19521181Y20999048D01*
X-19521181Y20999048D02*
X-19521181Y20713334D01*
X-19521181Y20713334D02*
X-19568800Y20618096D01*
X-19568800Y20618096D02*
X-19616420Y20570477D01*
D10*
X-20013336Y25172668D02*
X-19975240Y25134572D01*
X-19975240Y25134572D02*
X-19937145Y25020287D01*
X-19937145Y25020287D02*
X-19937145Y24944096D01*
X-19937145Y24944096D02*
X-19975240Y24829810D01*
X-19975240Y24829810D02*
X-20051431Y24753620D01*
X-20051431Y24753620D02*
X-20127621Y24715525D01*
X-20127621Y24715525D02*
X-20280002Y24677429D01*
X-20280002Y24677429D02*
X-20394288Y24677429D01*
X-20394288Y24677429D02*
X-20546669Y24715525D01*
X-20546669Y24715525D02*
X-20622860Y24753620D01*
X-20622860Y24753620D02*
X-20699050Y24829810D01*
X-20699050Y24829810D02*
X-20737145Y24944096D01*
X-20737145Y24944096D02*
X-20737145Y25020287D01*
X-20737145Y25020287D02*
X-20699050Y25134572D01*
X-20699050Y25134572D02*
X-20660955Y25172668D01*
X-20737145Y25896477D02*
X-20737145Y25515525D01*
X-20737145Y25515525D02*
X-20356193Y25477429D01*
X-20356193Y25477429D02*
X-20394288Y25515525D01*
X-20394288Y25515525D02*
X-20432383Y25591715D01*
X-20432383Y25591715D02*
X-20432383Y25782191D01*
X-20432383Y25782191D02*
X-20394288Y25858382D01*
X-20394288Y25858382D02*
X-20356193Y25896477D01*
X-20356193Y25896477D02*
X-20280002Y25934572D01*
X-20280002Y25934572D02*
X-20089526Y25934572D01*
X-20089526Y25934572D02*
X-20013336Y25896477D01*
X-20013336Y25896477D02*
X-19975240Y25858382D01*
X-19975240Y25858382D02*
X-19937145Y25782191D01*
X-19937145Y25782191D02*
X-19937145Y25591715D01*
X-19937145Y25591715D02*
X-19975240Y25515525D01*
X-19975240Y25515525D02*
X-20013336Y25477429D01*
X-17134333Y25742145D02*
X-17401000Y26123098D01*
X-17591476Y25742145D02*
X-17591476Y26542145D01*
X-17591476Y26542145D02*
X-17286714Y26542145D01*
X-17286714Y26542145D02*
X-17210524Y26504050D01*
X-17210524Y26504050D02*
X-17172429Y26465955D01*
X-17172429Y26465955D02*
X-17134333Y26389764D01*
X-17134333Y26389764D02*
X-17134333Y26275479D01*
X-17134333Y26275479D02*
X-17172429Y26199288D01*
X-17172429Y26199288D02*
X-17210524Y26161193D01*
X-17210524Y26161193D02*
X-17286714Y26123098D01*
X-17286714Y26123098D02*
X-17591476Y26123098D01*
X-16829572Y26465955D02*
X-16791476Y26504050D01*
X-16791476Y26504050D02*
X-16715286Y26542145D01*
X-16715286Y26542145D02*
X-16524810Y26542145D01*
X-16524810Y26542145D02*
X-16448619Y26504050D01*
X-16448619Y26504050D02*
X-16410524Y26465955D01*
X-16410524Y26465955D02*
X-16372429Y26389764D01*
X-16372429Y26389764D02*
X-16372429Y26313574D01*
X-16372429Y26313574D02*
X-16410524Y26199288D01*
X-16410524Y26199288D02*
X-16867667Y25742145D01*
X-16867667Y25742145D02*
X-16372429Y25742145D01*
D12*
X-5421181Y19618096D02*
X-4611658Y19618096D01*
X-4611658Y19618096D02*
X-4516420Y19665715D01*
X-4516420Y19665715D02*
X-4468800Y19713334D01*
X-4468800Y19713334D02*
X-4421181Y19808572D01*
X-4421181Y19808572D02*
X-4421181Y19999048D01*
X-4421181Y19999048D02*
X-4468800Y20094286D01*
X-4468800Y20094286D02*
X-4516420Y20141905D01*
X-4516420Y20141905D02*
X-4611658Y20189524D01*
X-4611658Y20189524D02*
X-5421181Y20189524D01*
X-5087848Y21094286D02*
X-4421181Y21094286D01*
X-5468800Y20856191D02*
X-4754515Y20618096D01*
X-4754515Y20618096D02*
X-4754515Y21237143D01*
X-28945181Y6758143D02*
X-29421372Y6424810D01*
X-28945181Y6186715D02*
X-29945181Y6186715D01*
X-29945181Y6186715D02*
X-29945181Y6567667D01*
X-29945181Y6567667D02*
X-29897562Y6662905D01*
X-29897562Y6662905D02*
X-29849943Y6710524D01*
X-29849943Y6710524D02*
X-29754705Y6758143D01*
X-29754705Y6758143D02*
X-29611848Y6758143D01*
X-29611848Y6758143D02*
X-29516610Y6710524D01*
X-29516610Y6710524D02*
X-29468991Y6662905D01*
X-29468991Y6662905D02*
X-29421372Y6567667D01*
X-29421372Y6567667D02*
X-29421372Y6186715D01*
X-28945181Y7710524D02*
X-28945181Y7139096D01*
X-28945181Y7424810D02*
X-29945181Y7424810D01*
X-29945181Y7424810D02*
X-29802324Y7329572D01*
X-29802324Y7329572D02*
X-29707086Y7234334D01*
X-29707086Y7234334D02*
X-29659467Y7139096D01*
X-29945181Y8329572D02*
X-29945181Y8424810D01*
X-29945181Y8424810D02*
X-29897562Y8520048D01*
X-29897562Y8520048D02*
X-29849943Y8567667D01*
X-29849943Y8567667D02*
X-29754705Y8615286D01*
X-29754705Y8615286D02*
X-29564229Y8662905D01*
X-29564229Y8662905D02*
X-29326134Y8662905D01*
X-29326134Y8662905D02*
X-29135658Y8615286D01*
X-29135658Y8615286D02*
X-29040420Y8567667D01*
X-29040420Y8567667D02*
X-28992800Y8520048D01*
X-28992800Y8520048D02*
X-28945181Y8424810D01*
X-28945181Y8424810D02*
X-28945181Y8329572D01*
X-28945181Y8329572D02*
X-28992800Y8234334D01*
X-28992800Y8234334D02*
X-29040420Y8186715D01*
X-29040420Y8186715D02*
X-29135658Y8139096D01*
X-29135658Y8139096D02*
X-29326134Y8091477D01*
X-29326134Y8091477D02*
X-29564229Y8091477D01*
X-29564229Y8091477D02*
X-29754705Y8139096D01*
X-29754705Y8139096D02*
X-29849943Y8186715D01*
X-29849943Y8186715D02*
X-29897562Y8234334D01*
X-29897562Y8234334D02*
X-29945181Y8329572D01*
D10*
X-11514286Y2236145D02*
X-11780953Y2617098D01*
X-11971429Y2236145D02*
X-11971429Y3036145D01*
X-11971429Y3036145D02*
X-11666667Y3036145D01*
X-11666667Y3036145D02*
X-11590477Y2998050D01*
X-11590477Y2998050D02*
X-11552382Y2959955D01*
X-11552382Y2959955D02*
X-11514286Y2883764D01*
X-11514286Y2883764D02*
X-11514286Y2769479D01*
X-11514286Y2769479D02*
X-11552382Y2693288D01*
X-11552382Y2693288D02*
X-11590477Y2655193D01*
X-11590477Y2655193D02*
X-11666667Y2617098D01*
X-11666667Y2617098D02*
X-11971429Y2617098D01*
X-10752382Y2236145D02*
X-11209525Y2236145D01*
X-10980953Y2236145D02*
X-10980953Y3036145D01*
X-10980953Y3036145D02*
X-11057144Y2921860D01*
X-11057144Y2921860D02*
X-11133334Y2845669D01*
X-11133334Y2845669D02*
X-11209525Y2807574D01*
X-10447620Y2959955D02*
X-10409524Y2998050D01*
X-10409524Y2998050D02*
X-10333334Y3036145D01*
X-10333334Y3036145D02*
X-10142858Y3036145D01*
X-10142858Y3036145D02*
X-10066667Y2998050D01*
X-10066667Y2998050D02*
X-10028572Y2959955D01*
X-10028572Y2959955D02*
X-9990477Y2883764D01*
X-9990477Y2883764D02*
X-9990477Y2807574D01*
X-9990477Y2807574D02*
X-10028572Y2693288D01*
X-10028572Y2693288D02*
X-10485715Y2236145D01*
X-10485715Y2236145D02*
X-9990477Y2236145D01*
X-32513336Y20472668D02*
X-32475240Y20434572D01*
X-32475240Y20434572D02*
X-32437145Y20320287D01*
X-32437145Y20320287D02*
X-32437145Y20244096D01*
X-32437145Y20244096D02*
X-32475240Y20129810D01*
X-32475240Y20129810D02*
X-32551431Y20053620D01*
X-32551431Y20053620D02*
X-32627621Y20015525D01*
X-32627621Y20015525D02*
X-32780002Y19977429D01*
X-32780002Y19977429D02*
X-32894288Y19977429D01*
X-32894288Y19977429D02*
X-33046669Y20015525D01*
X-33046669Y20015525D02*
X-33122860Y20053620D01*
X-33122860Y20053620D02*
X-33199050Y20129810D01*
X-33199050Y20129810D02*
X-33237145Y20244096D01*
X-33237145Y20244096D02*
X-33237145Y20320287D01*
X-33237145Y20320287D02*
X-33199050Y20434572D01*
X-33199050Y20434572D02*
X-33160955Y20472668D01*
X-32894288Y20929810D02*
X-32932383Y20853620D01*
X-32932383Y20853620D02*
X-32970479Y20815525D01*
X-32970479Y20815525D02*
X-33046669Y20777429D01*
X-33046669Y20777429D02*
X-33084764Y20777429D01*
X-33084764Y20777429D02*
X-33160955Y20815525D01*
X-33160955Y20815525D02*
X-33199050Y20853620D01*
X-33199050Y20853620D02*
X-33237145Y20929810D01*
X-33237145Y20929810D02*
X-33237145Y21082191D01*
X-33237145Y21082191D02*
X-33199050Y21158382D01*
X-33199050Y21158382D02*
X-33160955Y21196477D01*
X-33160955Y21196477D02*
X-33084764Y21234572D01*
X-33084764Y21234572D02*
X-33046669Y21234572D01*
X-33046669Y21234572D02*
X-32970479Y21196477D01*
X-32970479Y21196477D02*
X-32932383Y21158382D01*
X-32932383Y21158382D02*
X-32894288Y21082191D01*
X-32894288Y21082191D02*
X-32894288Y20929810D01*
X-32894288Y20929810D02*
X-32856193Y20853620D01*
X-32856193Y20853620D02*
X-32818098Y20815525D01*
X-32818098Y20815525D02*
X-32741907Y20777429D01*
X-32741907Y20777429D02*
X-32589526Y20777429D01*
X-32589526Y20777429D02*
X-32513336Y20815525D01*
X-32513336Y20815525D02*
X-32475240Y20853620D01*
X-32475240Y20853620D02*
X-32437145Y20929810D01*
X-32437145Y20929810D02*
X-32437145Y21082191D01*
X-32437145Y21082191D02*
X-32475240Y21158382D01*
X-32475240Y21158382D02*
X-32513336Y21196477D01*
X-32513336Y21196477D02*
X-32589526Y21234572D01*
X-32589526Y21234572D02*
X-32741907Y21234572D01*
X-32741907Y21234572D02*
X-32818098Y21196477D01*
X-32818098Y21196477D02*
X-32856193Y21158382D01*
X-32856193Y21158382D02*
X-32894288Y21082191D01*
X-11714286Y3436145D02*
X-11980953Y3817098D01*
X-12171429Y3436145D02*
X-12171429Y4236145D01*
X-12171429Y4236145D02*
X-11866667Y4236145D01*
X-11866667Y4236145D02*
X-11790477Y4198050D01*
X-11790477Y4198050D02*
X-11752382Y4159955D01*
X-11752382Y4159955D02*
X-11714286Y4083764D01*
X-11714286Y4083764D02*
X-11714286Y3969479D01*
X-11714286Y3969479D02*
X-11752382Y3893288D01*
X-11752382Y3893288D02*
X-11790477Y3855193D01*
X-11790477Y3855193D02*
X-11866667Y3817098D01*
X-11866667Y3817098D02*
X-12171429Y3817098D01*
X-10952382Y3436145D02*
X-11409525Y3436145D01*
X-11180953Y3436145D02*
X-11180953Y4236145D01*
X-11180953Y4236145D02*
X-11257144Y4121860D01*
X-11257144Y4121860D02*
X-11333334Y4045669D01*
X-11333334Y4045669D02*
X-11409525Y4007574D01*
X-10685715Y4236145D02*
X-10190477Y4236145D01*
X-10190477Y4236145D02*
X-10457143Y3931383D01*
X-10457143Y3931383D02*
X-10342858Y3931383D01*
X-10342858Y3931383D02*
X-10266667Y3893288D01*
X-10266667Y3893288D02*
X-10228572Y3855193D01*
X-10228572Y3855193D02*
X-10190477Y3779002D01*
X-10190477Y3779002D02*
X-10190477Y3588526D01*
X-10190477Y3588526D02*
X-10228572Y3512336D01*
X-10228572Y3512336D02*
X-10266667Y3474240D01*
X-10266667Y3474240D02*
X-10342858Y3436145D01*
X-10342858Y3436145D02*
X-10571429Y3436145D01*
X-10571429Y3436145D02*
X-10647620Y3474240D01*
X-10647620Y3474240D02*
X-10685715Y3512336D01*
X-3413336Y17972668D02*
X-3375240Y17934572D01*
X-3375240Y17934572D02*
X-3337145Y17820287D01*
X-3337145Y17820287D02*
X-3337145Y17744096D01*
X-3337145Y17744096D02*
X-3375240Y17629810D01*
X-3375240Y17629810D02*
X-3451431Y17553620D01*
X-3451431Y17553620D02*
X-3527621Y17515525D01*
X-3527621Y17515525D02*
X-3680002Y17477429D01*
X-3680002Y17477429D02*
X-3794288Y17477429D01*
X-3794288Y17477429D02*
X-3946669Y17515525D01*
X-3946669Y17515525D02*
X-4022860Y17553620D01*
X-4022860Y17553620D02*
X-4099050Y17629810D01*
X-4099050Y17629810D02*
X-4137145Y17744096D01*
X-4137145Y17744096D02*
X-4137145Y17820287D01*
X-4137145Y17820287D02*
X-4099050Y17934572D01*
X-4099050Y17934572D02*
X-4060955Y17972668D01*
X-3870479Y18658382D02*
X-3337145Y18658382D01*
X-4175240Y18467906D02*
X-3603812Y18277429D01*
X-3603812Y18277429D02*
X-3603812Y18772668D01*
X-16133333Y15036145D02*
X-16400000Y15417098D01*
X-16590476Y15036145D02*
X-16590476Y15836145D01*
X-16590476Y15836145D02*
X-16285714Y15836145D01*
X-16285714Y15836145D02*
X-16209524Y15798050D01*
X-16209524Y15798050D02*
X-16171429Y15759955D01*
X-16171429Y15759955D02*
X-16133333Y15683764D01*
X-16133333Y15683764D02*
X-16133333Y15569479D01*
X-16133333Y15569479D02*
X-16171429Y15493288D01*
X-16171429Y15493288D02*
X-16209524Y15455193D01*
X-16209524Y15455193D02*
X-16285714Y15417098D01*
X-16285714Y15417098D02*
X-16590476Y15417098D01*
X-15866667Y15836145D02*
X-15371429Y15836145D01*
X-15371429Y15836145D02*
X-15638095Y15531383D01*
X-15638095Y15531383D02*
X-15523810Y15531383D01*
X-15523810Y15531383D02*
X-15447619Y15493288D01*
X-15447619Y15493288D02*
X-15409524Y15455193D01*
X-15409524Y15455193D02*
X-15371429Y15379002D01*
X-15371429Y15379002D02*
X-15371429Y15188526D01*
X-15371429Y15188526D02*
X-15409524Y15112336D01*
X-15409524Y15112336D02*
X-15447619Y15074240D01*
X-15447619Y15074240D02*
X-15523810Y15036145D01*
X-15523810Y15036145D02*
X-15752381Y15036145D01*
X-15752381Y15036145D02*
X-15828572Y15074240D01*
X-15828572Y15074240D02*
X-15866667Y15112336D01*
D12*
X-21767667Y34750181D02*
X-22101000Y35226372D01*
X-22339095Y34750181D02*
X-22339095Y35750181D01*
X-22339095Y35750181D02*
X-21958143Y35750181D01*
X-21958143Y35750181D02*
X-21862905Y35702562D01*
X-21862905Y35702562D02*
X-21815286Y35654943D01*
X-21815286Y35654943D02*
X-21767667Y35559705D01*
X-21767667Y35559705D02*
X-21767667Y35416848D01*
X-21767667Y35416848D02*
X-21815286Y35321610D01*
X-21815286Y35321610D02*
X-21862905Y35273991D01*
X-21862905Y35273991D02*
X-21958143Y35226372D01*
X-21958143Y35226372D02*
X-22339095Y35226372D01*
X-21291476Y34750181D02*
X-21101000Y34750181D01*
X-21101000Y34750181D02*
X-21005762Y34797800D01*
X-21005762Y34797800D02*
X-20958143Y34845420D01*
X-20958143Y34845420D02*
X-20862905Y34988277D01*
X-20862905Y34988277D02*
X-20815286Y35178753D01*
X-20815286Y35178753D02*
X-20815286Y35559705D01*
X-20815286Y35559705D02*
X-20862905Y35654943D01*
X-20862905Y35654943D02*
X-20910524Y35702562D01*
X-20910524Y35702562D02*
X-21005762Y35750181D01*
X-21005762Y35750181D02*
X-21196238Y35750181D01*
X-21196238Y35750181D02*
X-21291476Y35702562D01*
X-21291476Y35702562D02*
X-21339095Y35654943D01*
X-21339095Y35654943D02*
X-21386714Y35559705D01*
X-21386714Y35559705D02*
X-21386714Y35321610D01*
X-21386714Y35321610D02*
X-21339095Y35226372D01*
X-21339095Y35226372D02*
X-21291476Y35178753D01*
X-21291476Y35178753D02*
X-21196238Y35131134D01*
X-21196238Y35131134D02*
X-21005762Y35131134D01*
X-21005762Y35131134D02*
X-20910524Y35178753D01*
X-20910524Y35178753D02*
X-20862905Y35226372D01*
X-20862905Y35226372D02*
X-20815286Y35321610D01*
X-31162905Y22551181D02*
X-31162905Y21741658D01*
X-31162905Y21741658D02*
X-31115286Y21646420D01*
X-31115286Y21646420D02*
X-31067667Y21598800D01*
X-31067667Y21598800D02*
X-30972429Y21551181D01*
X-30972429Y21551181D02*
X-30781953Y21551181D01*
X-30781953Y21551181D02*
X-30686715Y21598800D01*
X-30686715Y21598800D02*
X-30639096Y21646420D01*
X-30639096Y21646420D02*
X-30591477Y21741658D01*
X-30591477Y21741658D02*
X-30591477Y22551181D01*
X-29639096Y22551181D02*
X-30115286Y22551181D01*
X-30115286Y22551181D02*
X-30162905Y22074991D01*
X-30162905Y22074991D02*
X-30115286Y22122610D01*
X-30115286Y22122610D02*
X-30020048Y22170229D01*
X-30020048Y22170229D02*
X-29781953Y22170229D01*
X-29781953Y22170229D02*
X-29686715Y22122610D01*
X-29686715Y22122610D02*
X-29639096Y22074991D01*
X-29639096Y22074991D02*
X-29591477Y21979753D01*
X-29591477Y21979753D02*
X-29591477Y21741658D01*
X-29591477Y21741658D02*
X-29639096Y21646420D01*
X-29639096Y21646420D02*
X-29686715Y21598800D01*
X-29686715Y21598800D02*
X-29781953Y21551181D01*
X-29781953Y21551181D02*
X-30020048Y21551181D01*
X-30020048Y21551181D02*
X-30115286Y21598800D01*
X-30115286Y21598800D02*
X-30162905Y21646420D01*
X-19662905Y7251181D02*
X-19662905Y6441658D01*
X-19662905Y6441658D02*
X-19615286Y6346420D01*
X-19615286Y6346420D02*
X-19567667Y6298800D01*
X-19567667Y6298800D02*
X-19472429Y6251181D01*
X-19472429Y6251181D02*
X-19281953Y6251181D01*
X-19281953Y6251181D02*
X-19186715Y6298800D01*
X-19186715Y6298800D02*
X-19139096Y6346420D01*
X-19139096Y6346420D02*
X-19091477Y6441658D01*
X-19091477Y6441658D02*
X-19091477Y7251181D01*
X-18091477Y6251181D02*
X-18662905Y6251181D01*
X-18377191Y6251181D02*
X-18377191Y7251181D01*
X-18377191Y7251181D02*
X-18472429Y7108324D01*
X-18472429Y7108324D02*
X-18567667Y7013086D01*
X-18567667Y7013086D02*
X-18662905Y6965467D01*
X-27676181Y19618096D02*
X-26866658Y19618096D01*
X-26866658Y19618096D02*
X-26771420Y19665715D01*
X-26771420Y19665715D02*
X-26723800Y19713334D01*
X-26723800Y19713334D02*
X-26676181Y19808572D01*
X-26676181Y19808572D02*
X-26676181Y19999048D01*
X-26676181Y19999048D02*
X-26723800Y20094286D01*
X-26723800Y20094286D02*
X-26771420Y20141905D01*
X-26771420Y20141905D02*
X-26866658Y20189524D01*
X-26866658Y20189524D02*
X-27676181Y20189524D01*
X-27580943Y20618096D02*
X-27628562Y20665715D01*
X-27628562Y20665715D02*
X-27676181Y20760953D01*
X-27676181Y20760953D02*
X-27676181Y20999048D01*
X-27676181Y20999048D02*
X-27628562Y21094286D01*
X-27628562Y21094286D02*
X-27580943Y21141905D01*
X-27580943Y21141905D02*
X-27485705Y21189524D01*
X-27485705Y21189524D02*
X-27390467Y21189524D01*
X-27390467Y21189524D02*
X-27247610Y21141905D01*
X-27247610Y21141905D02*
X-26676181Y20570477D01*
X-26676181Y20570477D02*
X-26676181Y21189524D01*
D10*
X-12513336Y24872668D02*
X-12475240Y24834572D01*
X-12475240Y24834572D02*
X-12437145Y24720287D01*
X-12437145Y24720287D02*
X-12437145Y24644096D01*
X-12437145Y24644096D02*
X-12475240Y24529810D01*
X-12475240Y24529810D02*
X-12551431Y24453620D01*
X-12551431Y24453620D02*
X-12627621Y24415525D01*
X-12627621Y24415525D02*
X-12780002Y24377429D01*
X-12780002Y24377429D02*
X-12894288Y24377429D01*
X-12894288Y24377429D02*
X-13046669Y24415525D01*
X-13046669Y24415525D02*
X-13122860Y24453620D01*
X-13122860Y24453620D02*
X-13199050Y24529810D01*
X-13199050Y24529810D02*
X-13237145Y24644096D01*
X-13237145Y24644096D02*
X-13237145Y24720287D01*
X-13237145Y24720287D02*
X-13199050Y24834572D01*
X-13199050Y24834572D02*
X-13160955Y24872668D01*
X-13237145Y25558382D02*
X-13237145Y25406001D01*
X-13237145Y25406001D02*
X-13199050Y25329810D01*
X-13199050Y25329810D02*
X-13160955Y25291715D01*
X-13160955Y25291715D02*
X-13046669Y25215525D01*
X-13046669Y25215525D02*
X-12894288Y25177429D01*
X-12894288Y25177429D02*
X-12589526Y25177429D01*
X-12589526Y25177429D02*
X-12513336Y25215525D01*
X-12513336Y25215525D02*
X-12475240Y25253620D01*
X-12475240Y25253620D02*
X-12437145Y25329810D01*
X-12437145Y25329810D02*
X-12437145Y25482191D01*
X-12437145Y25482191D02*
X-12475240Y25558382D01*
X-12475240Y25558382D02*
X-12513336Y25596477D01*
X-12513336Y25596477D02*
X-12589526Y25634572D01*
X-12589526Y25634572D02*
X-12780002Y25634572D01*
X-12780002Y25634572D02*
X-12856193Y25596477D01*
X-12856193Y25596477D02*
X-12894288Y25558382D01*
X-12894288Y25558382D02*
X-12932383Y25482191D01*
X-12932383Y25482191D02*
X-12932383Y25329810D01*
X-12932383Y25329810D02*
X-12894288Y25253620D01*
X-12894288Y25253620D02*
X-12856193Y25215525D01*
X-12856193Y25215525D02*
X-12780002Y25177429D01*
X-26415286Y5923336D02*
X-26453382Y5885240D01*
X-26453382Y5885240D02*
X-26567667Y5847145D01*
X-26567667Y5847145D02*
X-26643858Y5847145D01*
X-26643858Y5847145D02*
X-26758144Y5885240D01*
X-26758144Y5885240D02*
X-26834334Y5961431D01*
X-26834334Y5961431D02*
X-26872429Y6037621D01*
X-26872429Y6037621D02*
X-26910525Y6190002D01*
X-26910525Y6190002D02*
X-26910525Y6304288D01*
X-26910525Y6304288D02*
X-26872429Y6456669D01*
X-26872429Y6456669D02*
X-26834334Y6532860D01*
X-26834334Y6532860D02*
X-26758144Y6609050D01*
X-26758144Y6609050D02*
X-26643858Y6647145D01*
X-26643858Y6647145D02*
X-26567667Y6647145D01*
X-26567667Y6647145D02*
X-26453382Y6609050D01*
X-26453382Y6609050D02*
X-26415286Y6570955D01*
X-25653382Y5847145D02*
X-26110525Y5847145D01*
X-25881953Y5847145D02*
X-25881953Y6647145D01*
X-25881953Y6647145D02*
X-25958144Y6532860D01*
X-25958144Y6532860D02*
X-26034334Y6456669D01*
X-26034334Y6456669D02*
X-26110525Y6418574D01*
X-25348620Y6570955D02*
X-25310524Y6609050D01*
X-25310524Y6609050D02*
X-25234334Y6647145D01*
X-25234334Y6647145D02*
X-25043858Y6647145D01*
X-25043858Y6647145D02*
X-24967667Y6609050D01*
X-24967667Y6609050D02*
X-24929572Y6570955D01*
X-24929572Y6570955D02*
X-24891477Y6494764D01*
X-24891477Y6494764D02*
X-24891477Y6418574D01*
X-24891477Y6418574D02*
X-24929572Y6304288D01*
X-24929572Y6304288D02*
X-25386715Y5847145D01*
X-25386715Y5847145D02*
X-24891477Y5847145D01*
D12*
X-28642858Y10240420D02*
X-28690477Y10192800D01*
X-28690477Y10192800D02*
X-28833334Y10145181D01*
X-28833334Y10145181D02*
X-28928572Y10145181D01*
X-28928572Y10145181D02*
X-29071429Y10192800D01*
X-29071429Y10192800D02*
X-29166667Y10288039D01*
X-29166667Y10288039D02*
X-29214286Y10383277D01*
X-29214286Y10383277D02*
X-29261905Y10573753D01*
X-29261905Y10573753D02*
X-29261905Y10716610D01*
X-29261905Y10716610D02*
X-29214286Y10907086D01*
X-29214286Y10907086D02*
X-29166667Y11002324D01*
X-29166667Y11002324D02*
X-29071429Y11097562D01*
X-29071429Y11097562D02*
X-28928572Y11145181D01*
X-28928572Y11145181D02*
X-28833334Y11145181D01*
X-28833334Y11145181D02*
X-28690477Y11097562D01*
X-28690477Y11097562D02*
X-28642858Y11049943D01*
X-27690477Y10145181D02*
X-28261905Y10145181D01*
X-27976191Y10145181D02*
X-27976191Y11145181D01*
X-27976191Y11145181D02*
X-28071429Y11002324D01*
X-28071429Y11002324D02*
X-28166667Y10907086D01*
X-28166667Y10907086D02*
X-28261905Y10859467D01*
X-26785715Y11145181D02*
X-27261905Y11145181D01*
X-27261905Y11145181D02*
X-27309524Y10668991D01*
X-27309524Y10668991D02*
X-27261905Y10716610D01*
X-27261905Y10716610D02*
X-27166667Y10764229D01*
X-27166667Y10764229D02*
X-26928572Y10764229D01*
X-26928572Y10764229D02*
X-26833334Y10716610D01*
X-26833334Y10716610D02*
X-26785715Y10668991D01*
X-26785715Y10668991D02*
X-26738096Y10573753D01*
X-26738096Y10573753D02*
X-26738096Y10335658D01*
X-26738096Y10335658D02*
X-26785715Y10240420D01*
X-26785715Y10240420D02*
X-26833334Y10192800D01*
X-26833334Y10192800D02*
X-26928572Y10145181D01*
X-26928572Y10145181D02*
X-27166667Y10145181D01*
X-27166667Y10145181D02*
X-27261905Y10192800D01*
X-27261905Y10192800D02*
X-27309524Y10240420D01*
D10*
X-11514286Y1112336D02*
X-11552382Y1074240D01*
X-11552382Y1074240D02*
X-11666667Y1036145D01*
X-11666667Y1036145D02*
X-11742858Y1036145D01*
X-11742858Y1036145D02*
X-11857144Y1074240D01*
X-11857144Y1074240D02*
X-11933334Y1150431D01*
X-11933334Y1150431D02*
X-11971429Y1226621D01*
X-11971429Y1226621D02*
X-12009525Y1379002D01*
X-12009525Y1379002D02*
X-12009525Y1493288D01*
X-12009525Y1493288D02*
X-11971429Y1645669D01*
X-11971429Y1645669D02*
X-11933334Y1721860D01*
X-11933334Y1721860D02*
X-11857144Y1798050D01*
X-11857144Y1798050D02*
X-11742858Y1836145D01*
X-11742858Y1836145D02*
X-11666667Y1836145D01*
X-11666667Y1836145D02*
X-11552382Y1798050D01*
X-11552382Y1798050D02*
X-11514286Y1759955D01*
X-10752382Y1036145D02*
X-11209525Y1036145D01*
X-10980953Y1036145D02*
X-10980953Y1836145D01*
X-10980953Y1836145D02*
X-11057144Y1721860D01*
X-11057144Y1721860D02*
X-11133334Y1645669D01*
X-11133334Y1645669D02*
X-11209525Y1607574D01*
X-10485715Y1836145D02*
X-9952381Y1836145D01*
X-9952381Y1836145D02*
X-10295239Y1036145D01*
X-8112336Y885715D02*
X-8074240Y847619D01*
X-8074240Y847619D02*
X-8036145Y733334D01*
X-8036145Y733334D02*
X-8036145Y657143D01*
X-8036145Y657143D02*
X-8074240Y542857D01*
X-8074240Y542857D02*
X-8150431Y466667D01*
X-8150431Y466667D02*
X-8226621Y428572D01*
X-8226621Y428572D02*
X-8379002Y390476D01*
X-8379002Y390476D02*
X-8493288Y390476D01*
X-8493288Y390476D02*
X-8645669Y428572D01*
X-8645669Y428572D02*
X-8721860Y466667D01*
X-8721860Y466667D02*
X-8798050Y542857D01*
X-8798050Y542857D02*
X-8836145Y657143D01*
X-8836145Y657143D02*
X-8836145Y733334D01*
X-8836145Y733334D02*
X-8798050Y847619D01*
X-8798050Y847619D02*
X-8759955Y885715D01*
X-8036145Y1647619D02*
X-8036145Y1190476D01*
X-8036145Y1419048D02*
X-8836145Y1419048D01*
X-8836145Y1419048D02*
X-8721860Y1342857D01*
X-8721860Y1342857D02*
X-8645669Y1266667D01*
X-8645669Y1266667D02*
X-8607574Y1190476D01*
X-8836145Y2142858D02*
X-8836145Y2219048D01*
X-8836145Y2219048D02*
X-8798050Y2295239D01*
X-8798050Y2295239D02*
X-8759955Y2333334D01*
X-8759955Y2333334D02*
X-8683764Y2371429D01*
X-8683764Y2371429D02*
X-8531383Y2409524D01*
X-8531383Y2409524D02*
X-8340907Y2409524D01*
X-8340907Y2409524D02*
X-8188526Y2371429D01*
X-8188526Y2371429D02*
X-8112336Y2333334D01*
X-8112336Y2333334D02*
X-8074240Y2295239D01*
X-8074240Y2295239D02*
X-8036145Y2219048D01*
X-8036145Y2219048D02*
X-8036145Y2142858D01*
X-8036145Y2142858D02*
X-8074240Y2066667D01*
X-8074240Y2066667D02*
X-8112336Y2028572D01*
X-8112336Y2028572D02*
X-8188526Y1990477D01*
X-8188526Y1990477D02*
X-8340907Y1952381D01*
X-8340907Y1952381D02*
X-8531383Y1952381D01*
X-8531383Y1952381D02*
X-8683764Y1990477D01*
X-8683764Y1990477D02*
X-8759955Y2028572D01*
X-8759955Y2028572D02*
X-8798050Y2066667D01*
X-8798050Y2066667D02*
X-8836145Y2142858D01*
D12*
X-27241420Y4763143D02*
X-27193800Y4715524D01*
X-27193800Y4715524D02*
X-27146181Y4572667D01*
X-27146181Y4572667D02*
X-27146181Y4477429D01*
X-27146181Y4477429D02*
X-27193800Y4334572D01*
X-27193800Y4334572D02*
X-27289039Y4239334D01*
X-27289039Y4239334D02*
X-27384277Y4191715D01*
X-27384277Y4191715D02*
X-27574753Y4144096D01*
X-27574753Y4144096D02*
X-27717610Y4144096D01*
X-27717610Y4144096D02*
X-27908086Y4191715D01*
X-27908086Y4191715D02*
X-28003324Y4239334D01*
X-28003324Y4239334D02*
X-28098562Y4334572D01*
X-28098562Y4334572D02*
X-28146181Y4477429D01*
X-28146181Y4477429D02*
X-28146181Y4572667D01*
X-28146181Y4572667D02*
X-28098562Y4715524D01*
X-28098562Y4715524D02*
X-28050943Y4763143D01*
X-27146181Y5715524D02*
X-27146181Y5144096D01*
X-27146181Y5429810D02*
X-28146181Y5429810D01*
X-28146181Y5429810D02*
X-28003324Y5334572D01*
X-28003324Y5334572D02*
X-27908086Y5239334D01*
X-27908086Y5239334D02*
X-27860467Y5144096D01*
X-27146181Y6667905D02*
X-27146181Y6096477D01*
X-27146181Y6382191D02*
X-28146181Y6382191D01*
X-28146181Y6382191D02*
X-28003324Y6286953D01*
X-28003324Y6286953D02*
X-27908086Y6191715D01*
X-27908086Y6191715D02*
X-27860467Y6096477D01*
X-8767667Y25975181D02*
X-9101000Y26451372D01*
X-9339095Y25975181D02*
X-9339095Y26975181D01*
X-9339095Y26975181D02*
X-8958143Y26975181D01*
X-8958143Y26975181D02*
X-8862905Y26927562D01*
X-8862905Y26927562D02*
X-8815286Y26879943D01*
X-8815286Y26879943D02*
X-8767667Y26784705D01*
X-8767667Y26784705D02*
X-8767667Y26641848D01*
X-8767667Y26641848D02*
X-8815286Y26546610D01*
X-8815286Y26546610D02*
X-8862905Y26498991D01*
X-8862905Y26498991D02*
X-8958143Y26451372D01*
X-8958143Y26451372D02*
X-9339095Y26451372D01*
X-7815286Y25975181D02*
X-8386714Y25975181D01*
X-8101000Y25975181D02*
X-8101000Y26975181D01*
X-8101000Y26975181D02*
X-8196238Y26832324D01*
X-8196238Y26832324D02*
X-8291476Y26737086D01*
X-8291476Y26737086D02*
X-8386714Y26689467D01*
D10*
%TO.C,C2*%
X-38889748Y30410000D02*
X-40312252Y30410000D01*
X-38889748Y28590000D02*
X-40312252Y28590000D01*
%TO.C,D2*%
X-36751000Y31766000D02*
X-36751000Y25956000D01*
X-32451000Y31766000D02*
X-36751000Y31766000D01*
X-32451000Y31766000D02*
X-32451000Y25956000D01*
%TO.C,C9*%
X-16910000Y1883748D02*
X-16910000Y3306252D01*
X-15090000Y1883748D02*
X-15090000Y3306252D01*
%TO.C,J4*%
X-25227064Y8985000D02*
X-24772936Y8985000D01*
X-25227064Y7515000D02*
X-24772936Y7515000D01*
%TO.C,U7*%
X-23560000Y3860000D02*
X-23510000Y3860000D01*
X-23560000Y2040000D02*
X-23560000Y3860000D01*
X-23510000Y2040000D02*
X-23560000Y2040000D01*
X-20490000Y3860000D02*
X-20440000Y3860000D01*
X-20440000Y3860000D02*
X-20440000Y2040000D01*
X-20440000Y2040000D02*
X-20490000Y2040000D01*
X-20160000Y4160000D02*
X-20490000Y4400000D01*
X-20160000Y4640000D01*
X-20160000Y4160000D01*
G36*
X-20160000Y4160000D02*
G01*
X-20490000Y4400000D01*
X-20160000Y4640000D01*
X-20160000Y4160000D01*
G37*
%TO.C,R5*%
X-21562742Y16022500D02*
X-22037258Y16022500D01*
X-21562742Y14977500D02*
X-22037258Y14977500D01*
%TO.C,C1*%
X-36698500Y21640580D02*
X-36698500Y21359420D01*
X-35678500Y21640580D02*
X-35678500Y21359420D01*
%TO.C,C7*%
X-26111000Y26859420D02*
X-26111000Y27140580D01*
X-25091000Y26859420D02*
X-25091000Y27140580D01*
%TO.C,C3*%
X-40836000Y26761252D02*
X-40836000Y26238748D01*
X-39366000Y26761252D02*
X-39366000Y26238748D01*
%TO.C,R6*%
X-17762742Y14117500D02*
X-18237258Y14117500D01*
X-17762742Y13072500D02*
X-18237258Y13072500D01*
%TO.C,C14*%
X-31738748Y4735000D02*
X-32261252Y4735000D01*
X-31738748Y3265000D02*
X-32261252Y3265000D01*
%TO.C,R4*%
X-23338258Y25522500D02*
X-22863742Y25522500D01*
X-23338258Y24477500D02*
X-22863742Y24477500D01*
%TO.C,R8*%
X-26838258Y34297500D02*
X-26363742Y34297500D01*
X-26838258Y33252500D02*
X-26363742Y33252500D01*
%TO.C,R11*%
X-25237258Y12522500D02*
X-24762742Y12522500D01*
X-25237258Y11477500D02*
X-24762742Y11477500D01*
%TO.C,R7*%
X-30838258Y34297500D02*
X-30363742Y34297500D01*
X-30838258Y33252500D02*
X-30363742Y33252500D01*
%TO.C,C13*%
X-15859420Y6605000D02*
X-16140580Y6605000D01*
X-15859420Y5585000D02*
X-16140580Y5585000D01*
%TO.C,U3*%
X-19136000Y22440000D02*
X-19041000Y22440000D01*
X-19136000Y18320000D02*
X-19136000Y22440000D01*
X-19041000Y18320000D02*
X-19136000Y18320000D01*
X-14111000Y22440000D02*
X-14016000Y22440000D01*
X-14016000Y22440000D02*
X-14016000Y18320000D01*
X-14016000Y18320000D02*
X-14111000Y18320000D01*
X-19046000Y17780000D02*
X-19376000Y17540000D01*
X-19376000Y18020000D01*
X-19046000Y17780000D01*
G36*
X-19046000Y17780000D02*
G01*
X-19376000Y17540000D01*
X-19376000Y18020000D01*
X-19046000Y17780000D01*
G37*
%TO.C,C5*%
X-20786000Y22859420D02*
X-20786000Y23140580D01*
X-19766000Y22859420D02*
X-19766000Y23140580D01*
%TO.C,R2*%
X-17013258Y25522500D02*
X-16538742Y25522500D01*
X-17013258Y24477500D02*
X-16538742Y24477500D01*
%TO.C,U4*%
X-10836000Y22440000D02*
X-10741000Y22440000D01*
X-10836000Y18320000D02*
X-10836000Y22440000D01*
X-10741000Y18320000D02*
X-10836000Y18320000D01*
X-5811000Y22440000D02*
X-5716000Y22440000D01*
X-5716000Y22440000D02*
X-5716000Y18320000D01*
X-5716000Y18320000D02*
X-5811000Y18320000D01*
X-5476000Y22740000D02*
X-5806000Y22980000D01*
X-5476000Y23220000D01*
X-5476000Y22740000D01*
G36*
X-5476000Y22740000D02*
G01*
X-5806000Y22980000D01*
X-5476000Y23220000D01*
X-5476000Y22740000D01*
G37*
%TO.C,R10*%
X-30022500Y4737258D02*
X-30022500Y4262742D01*
X-28977500Y4737258D02*
X-28977500Y4262742D01*
%TO.C,R12*%
X-18512742Y3272500D02*
X-18987258Y3272500D01*
X-18512742Y2227500D02*
X-18987258Y2227500D01*
%TO.C,C8*%
X-34923500Y21261252D02*
X-34923500Y20738748D01*
X-33453500Y21261252D02*
X-33453500Y20738748D01*
%TO.C,R13*%
X-18987258Y4772500D02*
X-18512742Y4772500D01*
X-18987258Y3727500D02*
X-18512742Y3727500D01*
%TO.C,C4*%
X-5286000Y17858420D02*
X-5286000Y18139580D01*
X-4266000Y17858420D02*
X-4266000Y18139580D01*
%TO.C,R3*%
X-18513258Y16022500D02*
X-18038742Y16022500D01*
X-18513258Y14977500D02*
X-18038742Y14977500D01*
%TO.C,R9*%
X-21838258Y34297500D02*
X-21363742Y34297500D01*
X-21838258Y33252500D02*
X-21363742Y33252500D01*
%TO.C,U5*%
X-31661000Y28560000D02*
X-31566000Y28560000D01*
X-31661000Y24440000D02*
X-31661000Y28560000D01*
X-31566000Y24440000D02*
X-31661000Y24440000D01*
X-26636000Y28560000D02*
X-26541000Y28560000D01*
X-26541000Y28560000D02*
X-26541000Y24440000D01*
X-26541000Y24440000D02*
X-26636000Y24440000D01*
X-31571000Y23900000D02*
X-31901000Y23660000D01*
X-31901000Y24140000D01*
X-31571000Y23900000D01*
G36*
X-31571000Y23900000D02*
G01*
X-31901000Y23660000D01*
X-31901000Y24140000D01*
X-31571000Y23900000D01*
G37*
%TO.C,U1*%
X-21560000Y12655000D02*
X-17440000Y12655000D01*
X-21560000Y12535000D02*
X-21560000Y12655000D01*
X-21560000Y7535000D02*
X-21560000Y7655000D01*
X-17440000Y12655000D02*
X-17440000Y12535000D01*
X-17440000Y7655000D02*
X-17440000Y7535000D01*
X-17440000Y7535000D02*
X-21560000Y7535000D01*
X-16600000Y7315000D02*
X-17080000Y7315000D01*
X-16840000Y7645000D01*
X-16600000Y7315000D01*
G36*
X-16600000Y7315000D02*
G01*
X-17080000Y7315000D01*
X-16840000Y7645000D01*
X-16600000Y7315000D01*
G37*
%TO.C,U2*%
X-26291000Y22440000D02*
X-26196000Y22440000D01*
X-26291000Y18320000D02*
X-26291000Y22440000D01*
X-26196000Y18320000D02*
X-26291000Y18320000D01*
X-21266000Y22440000D02*
X-21171000Y22440000D01*
X-21171000Y22440000D02*
X-21171000Y18320000D01*
X-21171000Y18320000D02*
X-21266000Y18320000D01*
X-26201000Y17780000D02*
X-26531000Y17540000D01*
X-26531000Y18020000D01*
X-26201000Y17780000D01*
G36*
X-26201000Y17780000D02*
G01*
X-26531000Y17540000D01*
X-26531000Y18020000D01*
X-26201000Y17780000D01*
G37*
%TO.C,C6*%
X-13286000Y22859420D02*
X-13286000Y23140580D01*
X-12266000Y22859420D02*
X-12266000Y23140580D01*
%TO.C,C12*%
X-25910000Y2288748D02*
X-25910000Y3711252D01*
X-24090000Y2288748D02*
X-24090000Y3711252D01*
%TO.C,C15*%
X-24859420Y11010000D02*
X-25140580Y11010000D01*
X-24859420Y9990000D02*
X-25140580Y9990000D01*
%TO.C,C17*%
X-18609420Y1655000D02*
X-18890580Y1655000D01*
X-18609420Y635000D02*
X-18890580Y635000D01*
%TO.C,C10*%
X-14235000Y2333748D02*
X-14235000Y2856252D01*
X-12765000Y2333748D02*
X-12765000Y2856252D01*
%TO.C,C11*%
X-28235000Y2333748D02*
X-28235000Y2856252D01*
X-26765000Y2333748D02*
X-26765000Y2856252D01*
%TO.C,R1*%
X-8838258Y25522500D02*
X-8363742Y25522500D01*
X-8838258Y24477500D02*
X-8363742Y24477500D01*
%TD*%
M02*
