%TF.GenerationSoftware,KiCad,Pcbnew,9.0.7-1.fc43*%
%TF.CreationDate,2026-03-30T00:08:02-07:00*%
%TF.ProjectId,inverter_board,696e7665-7274-4657-925f-626f6172642e,B0*%
%TF.SameCoordinates,PX81390e0PY9540020*%
%TF.FileFunction,Copper,L2,Bot*%
%TF.FilePolarity,Positive*%
%FSLAX46Y46*%
G04 Gerber Fmt 4.6, Leading zero omitted, Abs format (unit mm)*
G04 Created by KiCad (PCBNEW 9.0.7-1.fc43) date 2026-03-30 00:08:02*
%MOMM*%
%LPD*%
G01*
G04 APERTURE LIST*
G04 Aperture macros list*
%AMRoundRect*
0 Rectangle with rounded corners*
0 $1 Rounding radius*
0 $2 $3 $4 $5 $6 $7 $8 $9 X,Y pos of 4 corners*
0 Add a 4 corners polygon primitive as box body*
4,1,4,$2,$3,$4,$5,$6,$7,$8,$9,$2,$3,0*
0 Add four circle primitives for the rounded corners*
1,1,$1+$1,$2,$3*
1,1,$1+$1,$4,$5*
1,1,$1+$1,$6,$7*
1,1,$1+$1,$8,$9*
0 Add four rect primitives between the rounded corners*
20,1,$1+$1,$2,$3,$4,$5,0*
20,1,$1+$1,$4,$5,$6,$7,0*
20,1,$1+$1,$6,$7,$8,$9,0*
20,1,$1+$1,$8,$9,$2,$3,0*%
G04 Aperture macros list end*
%TA.AperFunction,ComponentPad*%
%ADD10RoundRect,0.250000X1.050000X1.050000X-1.050000X1.050000X-1.050000X-1.050000X1.050000X-1.050000X0*%
%TD*%
%TA.AperFunction,ComponentPad*%
%ADD11C,2.600000*%
%TD*%
%TA.AperFunction,ComponentPad*%
%ADD12R,1.520000X1.520000*%
%TD*%
%TA.AperFunction,ComponentPad*%
%ADD13C,1.520000*%
%TD*%
%TA.AperFunction,SMDPad,CuDef*%
%ADD14RoundRect,0.250000X0.650000X-1.000000X0.650000X1.000000X-0.650000X1.000000X-0.650000X-1.000000X0*%
%TD*%
%TA.AperFunction,ComponentPad*%
%ADD15RoundRect,0.240000X-0.560000X-0.560000X0.560000X-0.560000X0.560000X0.560000X-0.560000X0.560000X0*%
%TD*%
%TA.AperFunction,ComponentPad*%
%ADD16C,1.600000*%
%TD*%
%TA.AperFunction,SMDPad,CuDef*%
%ADD17RoundRect,0.225000X-0.250000X0.225000X-0.250000X-0.225000X0.250000X-0.225000X0.250000X0.225000X0*%
%TD*%
%TA.AperFunction,SMDPad,CuDef*%
%ADD18RoundRect,0.250001X-0.999999X0.499999X-0.999999X-0.499999X0.999999X-0.499999X0.999999X0.499999X0*%
%TD*%
%TA.AperFunction,ViaPad*%
%ADD19C,0.600000*%
%TD*%
%TA.AperFunction,Conductor*%
%ADD20C,0.500000*%
%TD*%
%TA.AperFunction,Conductor*%
%ADD21C,0.200000*%
%TD*%
%TA.AperFunction,Conductor*%
%ADD22C,1.000000*%
%TD*%
%TA.AperFunction,Conductor*%
%ADD23C,0.800000*%
%TD*%
%TA.AperFunction,Conductor*%
%ADD24C,0.400000*%
%TD*%
%TA.AperFunction,Conductor*%
%ADD25C,0.600000*%
%TD*%
G04 APERTURE END LIST*
D10*
%TO.P,J3,1,Pin_1*%
%TO.N,GND*%
X-19021000Y31775000D03*
D11*
%TO.P,J3,2,Pin_2*%
%TO.N,Net-(J3-Pin_2)*%
X-24101000Y31775000D03*
%TO.P,J3,3,Pin_3*%
%TO.N,Net-(J3-Pin_3)*%
X-29181000Y31775000D03*
%TD*%
D12*
%TO.P,J2,1*%
%TO.N,unconnected-(J2-Pad1)*%
X-11720000Y6500000D03*
D13*
%TO.P,J2,2*%
%TO.N,GNDPWR*%
X-9180000Y7520000D03*
%TO.P,J2,3*%
%TO.N,/INV_DATA*%
X-11720000Y8540000D03*
%TO.P,J2,4*%
%TO.N,Net-(J1-Pad4)*%
X-9180000Y9560000D03*
%TO.P,J2,5*%
%TO.N,+12V*%
X-11720000Y10580000D03*
%TO.P,J2,6*%
%TO.N,unconnected-(J2-Pad6)*%
X-9180000Y11600000D03*
%TD*%
D14*
%TO.P,D1,1,K*%
%TO.N,Net-(D1-K)*%
X-23000000Y3250000D03*
%TO.P,D1,2,A*%
%TO.N,GNDPWR*%
X-23000000Y7250000D03*
%TD*%
D15*
%TO.P,B1,1,-Vin*%
%TO.N,GNDPWR*%
X-38139000Y20200000D03*
D16*
%TO.P,B1,2,+Vin*%
%TO.N,+5VP*%
X-38139000Y22740000D03*
%TO.P,B1,3,-Vout*%
%TO.N,GND*%
X-38139000Y25280000D03*
%TO.P,B1,4,+Vout*%
%TO.N,+5V*%
X-38139000Y27820000D03*
%TD*%
D17*
%TO.P,C16,1*%
%TO.N,Net-(U7-BST)*%
X-20500000Y4400000D03*
%TO.P,C16,2*%
%TO.N,Net-(D1-K)*%
X-20500000Y2850000D03*
%TD*%
D12*
%TO.P,J1,1*%
%TO.N,unconnected-(J1-Pad1)*%
X-30960000Y11550000D03*
D13*
%TO.P,J1,2*%
%TO.N,GNDPWR*%
X-33500000Y10530000D03*
%TO.P,J1,3*%
%TO.N,/INV_DATA*%
X-30960000Y9510000D03*
%TO.P,J1,4*%
%TO.N,Net-(J1-Pad4)*%
X-33500000Y8490000D03*
%TO.P,J1,5*%
%TO.N,+12V*%
X-30960000Y7470000D03*
%TO.P,J1,6*%
%TO.N,unconnected-(J1-Pad6)*%
X-33500000Y6450000D03*
%TD*%
D18*
%TO.P,L1,1,1*%
%TO.N,Net-(D1-K)*%
X-17200000Y5350000D03*
%TO.P,L1,2,2*%
%TO.N,+5VP*%
X-17200000Y1650000D03*
%TD*%
D19*
%TO.N,+5VP*%
X-12400000Y1400000D03*
X-10992000Y3950000D03*
X-11525000Y3620000D03*
X-2200000Y9400000D03*
X-15641000Y14305000D03*
X-15600000Y2200000D03*
X-27500000Y18000000D03*
X-16800000Y2800000D03*
X-14133000Y14247000D03*
X-27500000Y16000000D03*
X-1101000Y18606000D03*
X-27459000Y16641000D03*
X-14500000Y6100000D03*
X-15600000Y2800000D03*
X-15641000Y13705000D03*
X-1101000Y1106000D03*
X-11700000Y1400000D03*
X-13901000Y6106000D03*
X-16200000Y2800000D03*
%TO.N,+5V*%
X-32553000Y29650000D03*
X-31895000Y29650000D03*
X-26001000Y24506000D03*
X-11301000Y23506000D03*
X-11301000Y24306000D03*
X-17801000Y24206000D03*
X-26053000Y25165000D03*
%TO.N,GNDPWR*%
X-24601000Y6106000D03*
X-26200000Y7000000D03*
X-25400000Y6200000D03*
X-28601000Y6106000D03*
X-20400000Y6400000D03*
X-21200000Y6000000D03*
X-26200000Y6000000D03*
X-25000000Y7000000D03*
X-41101000Y1106000D03*
X-41601000Y20606000D03*
X-39600000Y10200000D03*
X-21200000Y6800000D03*
%TO.N,GND*%
X-38600000Y33000000D03*
X-9800000Y29400000D03*
X-25600000Y37200000D03*
X-1101000Y23606000D03*
X-32400000Y24800000D03*
X-39400000Y32200000D03*
X-17101000Y37106000D03*
X-32400000Y26200000D03*
X-33601000Y37606000D03*
%TO.N,/INV_DATA*%
X-27000000Y11723000D03*
%TO.N,/DIR*%
X-16101000Y26000000D03*
X-29101000Y22500000D03*
X-24782851Y24472178D03*
%TO.N,Net-(U2-VO)*%
X-21101000Y25000000D03*
X-27101000Y22000000D03*
%TO.N,Net-(D1-K)*%
X-21200000Y800000D03*
X-20600000Y800000D03*
%TO.N,Net-(U7-BST)*%
X-20400000Y5200000D03*
%TD*%
D20*
%TO.N,+5VP*%
X-15600000Y2800000D02*
X-16800000Y2800000D01*
X-15600000Y2200000D02*
X-16650000Y2200000D01*
D21*
X-16650000Y2200000D02*
X-17200000Y1650000D01*
D22*
X-27059000Y16159000D02*
X-27059000Y16241000D01*
D21*
X-15641000Y14259000D02*
X-15900000Y14000000D01*
D22*
X-14200000Y5000000D02*
X-13100000Y3900000D01*
X-15900000Y14000000D02*
X-24900000Y14000000D01*
D20*
X-15600000Y2200000D02*
X-15600000Y2800000D01*
D21*
X-16000000Y2400000D02*
X-16000000Y2200000D01*
D22*
X-13100000Y3900000D02*
X-13090937Y3909063D01*
D20*
X-15600000Y2800000D02*
X-16000000Y2400000D01*
D22*
X-24900000Y14000000D02*
X-27059000Y16159000D01*
D23*
X-14200000Y6071000D02*
X-14200000Y5000000D01*
D21*
X-16050000Y2800000D02*
X-17200000Y1650000D01*
X-13988000Y6107000D02*
X-13901000Y6106000D01*
X-16200000Y2800000D02*
X-16200000Y2650000D01*
D20*
X-16800000Y2800000D02*
X-16800000Y2050000D01*
D21*
X-16800000Y2050000D02*
X-17200000Y1650000D01*
X-15600000Y2800000D02*
X-16050000Y2800000D01*
X-11525000Y3620000D02*
X-11235938Y3909063D01*
D22*
X-13090937Y3909063D02*
X-11235938Y3909063D01*
D21*
X-27459000Y16641000D02*
X-27059000Y16241000D01*
D20*
X-16200000Y2650000D02*
X-17200000Y1650000D01*
D21*
%TO.N,+5V*%
X-31910000Y29665000D02*
X-31895000Y29650000D01*
X-32216500Y29415000D02*
X-32216500Y29665000D01*
X-32216500Y29665000D02*
X-31910000Y29665000D01*
D22*
X-27856500Y24915000D02*
X-32216500Y29275000D01*
X-26303000Y24915000D02*
X-27856500Y24915000D01*
D21*
X-26053000Y25165000D02*
X-26303000Y24915000D01*
D22*
X-32216500Y29275000D02*
X-32216500Y29415000D01*
D20*
%TO.N,GNDPWR*%
X-9180000Y7520000D02*
X-9180000Y6320000D01*
D21*
X-16000000Y7000000D02*
X-25000000Y7000000D01*
X-25000000Y7000000D02*
X-26200000Y7000000D01*
X-29400000Y7000000D02*
X-31300000Y5100000D01*
D20*
X-13100000Y6600000D02*
X-13500000Y7000000D01*
D21*
X-26200000Y7000000D02*
X-29400000Y7000000D01*
X-34900000Y9130000D02*
X-33500000Y10530000D01*
D20*
X-13100000Y5400000D02*
X-13100000Y6600000D01*
D21*
X-34900000Y5900000D02*
X-34900000Y9130000D01*
D24*
X-13500000Y7000000D02*
X-16000000Y7000000D01*
D20*
X-9180000Y6320000D02*
X-10500000Y5000000D01*
D21*
X-34100000Y5100000D02*
X-34900000Y5900000D01*
X-31300000Y5100000D02*
X-34100000Y5100000D01*
D20*
X-12700000Y5000000D02*
X-13100000Y5400000D01*
X-10500000Y5000000D02*
X-12700000Y5000000D01*
D22*
%TO.N,+12V*%
X-30450000Y7470000D02*
X-30960000Y7470000D01*
X-27340000Y10580000D02*
X-30450000Y7470000D01*
X-11720000Y10580000D02*
X-27340000Y10580000D01*
D20*
%TO.N,Net-(J1-Pad4)*%
X-32230000Y12800000D02*
X-32221000Y12800000D01*
X-32221000Y12811000D02*
X-29699000Y12811000D01*
X-8596676Y12800000D02*
X-8475000Y12800000D01*
X-8475000Y12800000D02*
X-7910000Y12235000D01*
X-10000000Y12800000D02*
X-9763324Y12800000D01*
D25*
X-7910000Y10330000D02*
X-8680000Y9560000D01*
D20*
X-32221000Y12800000D02*
X-32221000Y12811000D01*
X-33500000Y8490000D02*
X-32230000Y9760000D01*
X-8657676Y12861000D02*
X-8596676Y12800000D01*
X-7910000Y12235000D02*
X-7910000Y10330000D01*
X-32230000Y9760000D02*
X-32230000Y12800000D01*
D25*
X-29699000Y12800000D02*
X-10000000Y12800000D01*
D21*
X-8680000Y9560000D02*
X-9180000Y9560000D01*
D25*
X-29699000Y12811000D02*
X-29699000Y12800000D01*
D20*
X-9763324Y12800000D02*
X-9702324Y12861000D01*
X-9702324Y12861000D02*
X-8657676Y12861000D01*
D25*
%TO.N,/INV_DATA*%
X-24582000Y11723000D02*
X-27000000Y11723000D01*
D20*
X-12599000Y11834000D02*
X-11319000Y11834000D01*
X-28169500Y11723000D02*
X-30382500Y9510000D01*
X-10450000Y11002500D02*
X-10450000Y9810000D01*
D21*
X-30382500Y9510000D02*
X-30960000Y9510000D01*
D25*
X-24418000Y11723000D02*
X-12710000Y11723000D01*
D20*
X-10450000Y11199000D02*
X-11042000Y11791000D01*
X-10450000Y11072000D02*
X-10450000Y11199000D01*
X-12710000Y11723000D02*
X-12599000Y11834000D01*
X-10450000Y9810000D02*
X-11720000Y8540000D01*
D21*
X-24500000Y11641000D02*
X-24418000Y11723000D01*
D20*
X-11042000Y11791000D02*
X-11085000Y11834000D01*
D25*
X-27000000Y11723000D02*
X-28169500Y11723000D01*
D20*
X-11085000Y11834000D02*
X-11339000Y11834000D01*
D21*
X-24500000Y11641000D02*
X-24582000Y11723000D01*
D20*
%TO.N,/DIR*%
X-16101000Y26000000D02*
X-23255029Y26000000D01*
X-24782851Y24472178D02*
X-26377515Y22877515D01*
X-27422485Y22877515D02*
X-27800000Y22500000D01*
X-23255029Y26000000D02*
X-24782851Y24472178D01*
X-26377515Y22877515D02*
X-27422485Y22877515D01*
X-27800000Y22500000D02*
X-29101000Y22500000D01*
%TO.N,Net-(U2-VO)*%
X-24101000Y22000000D02*
X-27101000Y22000000D01*
X-21101000Y25000000D02*
X-24101000Y22000000D01*
%TO.N,Net-(D1-K)*%
X-20500000Y2850000D02*
X-21050000Y2850000D01*
X-21450000Y3250000D02*
X-23000000Y3250000D01*
D21*
X-20600000Y800000D02*
X-21200000Y800000D01*
X-21200000Y800000D02*
X-21500000Y1100000D01*
D20*
X-21050000Y2850000D02*
X-21450000Y3250000D01*
D21*
X-21500000Y1100000D02*
X-21500000Y3250000D01*
D24*
%TO.N,Net-(U7-BST)*%
X-20400000Y4500000D02*
X-20500000Y4400000D01*
X-20400000Y5200000D02*
X-20400000Y4500000D01*
%TD*%
%TA.AperFunction,Conductor*%
%TO.N,GNDPWR*%
G36*
X-35774294Y21280315D02*
G01*
X-35766938Y21275204D01*
X-35000000Y20700000D01*
X-31851362Y20700000D01*
X-31784323Y20680315D01*
X-31763681Y20663681D01*
X-30520542Y19420542D01*
X-30487057Y19359219D01*
X-30485485Y19315215D01*
X-30505500Y19176002D01*
X-30505500Y18551360D01*
X-30502603Y18497312D01*
X-30502603Y18497311D01*
X-30499771Y18470978D01*
X-30499768Y18470951D01*
X-30491115Y18417555D01*
X-30491115Y18417553D01*
X-30440834Y18282748D01*
X-30440832Y18282743D01*
X-30407347Y18221420D01*
X-30321123Y18106239D01*
X-30321119Y18106235D01*
X-30321114Y18106229D01*
X-28336819Y16121935D01*
X-28303334Y16060612D01*
X-28300500Y16034254D01*
X-28300500Y15921154D01*
X-28269739Y15766511D01*
X-28269736Y15766499D01*
X-28209398Y15620828D01*
X-28209391Y15620815D01*
X-28121790Y15489712D01*
X-28121787Y15489708D01*
X-28010293Y15378214D01*
X-28010289Y15378211D01*
X-27879186Y15290610D01*
X-27879173Y15290603D01*
X-27733502Y15230265D01*
X-27733497Y15230263D01*
X-27578847Y15199501D01*
X-27578844Y15199500D01*
X-27578842Y15199500D01*
X-27565782Y15199500D01*
X-27498743Y15179815D01*
X-27478101Y15163181D01*
X-26127101Y13812181D01*
X-26093616Y13750858D01*
X-26098600Y13681166D01*
X-26140472Y13625233D01*
X-26205936Y13600816D01*
X-26214782Y13600500D01*
X-29552646Y13600500D01*
X-29576838Y13602883D01*
X-29598597Y13607211D01*
X-29620157Y13611500D01*
X-29620158Y13611500D01*
X-29777842Y13611500D01*
X-29777845Y13611500D01*
X-29932489Y13580740D01*
X-29932494Y13580738D01*
X-29932496Y13580738D01*
X-29932497Y13580737D01*
X-29956156Y13570938D01*
X-30003604Y13561500D01*
X-32294920Y13561500D01*
X-32439908Y13532660D01*
X-32439918Y13532657D01*
X-32576489Y13476088D01*
X-32576502Y13476081D01*
X-32699416Y13393952D01*
X-32699420Y13393949D01*
X-32803947Y13289422D01*
X-32807809Y13284715D01*
X-32808179Y13285019D01*
X-32809474Y13283441D01*
X-32809088Y13283124D01*
X-32812952Y13278416D01*
X-32895081Y13155502D01*
X-32895088Y13155489D01*
X-32951657Y13018918D01*
X-32951660Y13018908D01*
X-32980500Y12873921D01*
X-32980500Y11856718D01*
X-33000185Y11789679D01*
X-33052989Y11743924D01*
X-33122147Y11733980D01*
X-33142818Y11738787D01*
X-33204948Y11758974D01*
X-33400837Y11790000D01*
X-33599163Y11790000D01*
X-33795053Y11758974D01*
X-33983670Y11697690D01*
X-33983678Y11697687D01*
X-34160385Y11607648D01*
X-34197285Y11580840D01*
X-34197285Y11580839D01*
X-33588585Y10972139D01*
X-33673694Y10949333D01*
X-33776306Y10890090D01*
X-33860090Y10806306D01*
X-33919333Y10703694D01*
X-33942139Y10618585D01*
X-34550839Y11227285D01*
X-34550840Y11227285D01*
X-34577648Y11190385D01*
X-34667687Y11013678D01*
X-34667690Y11013670D01*
X-34728974Y10825053D01*
X-34760000Y10629164D01*
X-34760000Y10430837D01*
X-34728974Y10234948D01*
X-34667690Y10046331D01*
X-34667689Y10046328D01*
X-34577650Y9869620D01*
X-34550839Y9832717D01*
X-33942139Y10441416D01*
X-33919333Y10356306D01*
X-33860090Y10253694D01*
X-33776306Y10169910D01*
X-33673694Y10110667D01*
X-33588587Y10087863D01*
X-34040177Y9636272D01*
X-34071562Y9613469D01*
X-34160644Y9568079D01*
X-34240904Y9509767D01*
X-34321161Y9451456D01*
X-34321163Y9451454D01*
X-34321164Y9451454D01*
X-34461454Y9311164D01*
X-34461454Y9311163D01*
X-34461456Y9311161D01*
X-34487863Y9274815D01*
X-34578074Y9150651D01*
X-34578076Y9150648D01*
X-34668150Y8973869D01*
X-34680988Y8934357D01*
X-34729463Y8785168D01*
X-34729464Y8785165D01*
X-34729464Y8785163D01*
X-34760500Y8589210D01*
X-34760500Y8390791D01*
X-34744720Y8291163D01*
X-34729463Y8194832D01*
X-34696985Y8094877D01*
X-34668150Y8006132D01*
X-34634114Y7939333D01*
X-34578077Y7829354D01*
X-34461456Y7668839D01*
X-34461454Y7668837D01*
X-34350298Y7557681D01*
X-34316813Y7496358D01*
X-34321797Y7426666D01*
X-34350298Y7382319D01*
X-34461454Y7271164D01*
X-34461454Y7271163D01*
X-34461456Y7271161D01*
X-34502875Y7214152D01*
X-34578074Y7110651D01*
X-34578076Y7110648D01*
X-34668150Y6933869D01*
X-34698807Y6839516D01*
X-34729463Y6745168D01*
X-34729464Y6745165D01*
X-34729464Y6745163D01*
X-34760500Y6549210D01*
X-34760500Y6350791D01*
X-34730886Y6163817D01*
X-34729463Y6154832D01*
X-34682860Y6011404D01*
X-34668150Y5966132D01*
X-34620443Y5872503D01*
X-34578077Y5789354D01*
X-34461456Y5628839D01*
X-34321161Y5488544D01*
X-34160646Y5371923D01*
X-34047200Y5314120D01*
X-33983869Y5281851D01*
X-33983867Y5281851D01*
X-33983864Y5281849D01*
X-33795168Y5220537D01*
X-33697186Y5205019D01*
X-33599209Y5189500D01*
X-33599204Y5189500D01*
X-33400791Y5189500D01*
X-33311722Y5203608D01*
X-33204832Y5220537D01*
X-33016136Y5281849D01*
X-32839354Y5371923D01*
X-32678839Y5488544D01*
X-32538544Y5628839D01*
X-32421923Y5789354D01*
X-32331849Y5966136D01*
X-32270537Y6154832D01*
X-32263381Y6200014D01*
X-24399999Y6200014D01*
X-24389506Y6097303D01*
X-24334359Y5930881D01*
X-24334357Y5930876D01*
X-24242316Y5781655D01*
X-24118346Y5657685D01*
X-23969125Y5565644D01*
X-23969120Y5565642D01*
X-23802698Y5510495D01*
X-23802691Y5510494D01*
X-23699981Y5500001D01*
X-23250001Y5500001D01*
X-23250000Y5500002D01*
X-23250000Y7000000D01*
X-24399999Y7000000D01*
X-24399999Y6200014D01*
X-32263381Y6200014D01*
X-32248199Y6295869D01*
X-32239500Y6350791D01*
X-32239500Y6549210D01*
X-32267750Y6727569D01*
X-32258796Y6796862D01*
X-32213800Y6850314D01*
X-32147048Y6870954D01*
X-32079734Y6852229D01*
X-32041022Y6813238D01*
X-32040941Y6813296D01*
X-32040565Y6812778D01*
X-32039549Y6811755D01*
X-32038082Y6809361D01*
X-32038078Y6809355D01*
X-32038077Y6809354D01*
X-31921456Y6648839D01*
X-31781161Y6508544D01*
X-31620646Y6391923D01*
X-31539919Y6350791D01*
X-31443869Y6301851D01*
X-31443867Y6301851D01*
X-31443864Y6301849D01*
X-31255168Y6240537D01*
X-31157186Y6225019D01*
X-31059209Y6209500D01*
X-31059204Y6209500D01*
X-30860791Y6209500D01*
X-30771722Y6223608D01*
X-30664832Y6240537D01*
X-30476136Y6301849D01*
X-30299354Y6391923D01*
X-30138839Y6508544D01*
X-30138829Y6508555D01*
X-30136941Y6510166D01*
X-30103849Y6530448D01*
X-30072057Y6543616D01*
X-29976086Y6583368D01*
X-29812218Y6692861D01*
X-29672861Y6832218D01*
X-29672860Y6832221D01*
X-29665794Y6839286D01*
X-29665791Y6839290D01*
X-29067969Y7437113D01*
X-29006648Y7470596D01*
X-28981023Y7473428D01*
X-26248148Y7489503D01*
X-26248132Y7489504D01*
X-26248126Y7489504D01*
X-26231526Y7490480D01*
X-26194866Y7492634D01*
X-26168880Y7495544D01*
X-26116226Y7504276D01*
X-25981566Y7554955D01*
X-25920342Y7588621D01*
X-25805417Y7675183D01*
X-25676903Y7804457D01*
X-25184287Y8299987D01*
X-24400000Y8299987D01*
X-24400000Y7500000D01*
X-23250000Y7500000D01*
X-22750000Y7500000D01*
X-21600001Y7500000D01*
X-21600001Y8299972D01*
X-21600002Y8299987D01*
X-21610495Y8402698D01*
X-21665642Y8569120D01*
X-21665644Y8569125D01*
X-21757685Y8718346D01*
X-21881655Y8842316D01*
X-22030876Y8934357D01*
X-22030881Y8934359D01*
X-22197303Y8989506D01*
X-22197310Y8989507D01*
X-22300014Y9000000D01*
X-22750000Y9000000D01*
X-22750000Y7500000D01*
X-23250000Y7500000D01*
X-23250000Y9000000D01*
X-23699972Y9000000D01*
X-23699988Y8999999D01*
X-23802698Y8989506D01*
X-23969120Y8934359D01*
X-23969125Y8934357D01*
X-24118346Y8842316D01*
X-24242316Y8718346D01*
X-24334357Y8569125D01*
X-24334359Y8569120D01*
X-24389506Y8402698D01*
X-24389507Y8402691D01*
X-24400000Y8299987D01*
X-25184287Y8299987D01*
X-25094265Y8390542D01*
X-25094250Y8390557D01*
X-25092101Y8392720D01*
X-25077566Y8407340D01*
X-25041989Y8447124D01*
X-25025613Y8467507D01*
X-24994433Y8510813D01*
X-24934662Y8641690D01*
X-24914977Y8708729D01*
X-24914976Y8708733D01*
X-24894500Y8851149D01*
X-24894500Y9170500D01*
X-24874815Y9237539D01*
X-24822011Y9283294D01*
X-24770500Y9294500D01*
X-21229500Y9294500D01*
X-21162461Y9274815D01*
X-21116706Y9222011D01*
X-21105500Y9170500D01*
X-21105500Y8651360D01*
X-21102603Y8597312D01*
X-21102603Y8597311D01*
X-21099771Y8570978D01*
X-21099768Y8570951D01*
X-21091115Y8517555D01*
X-21091115Y8517553D01*
X-21048134Y8402319D01*
X-21040832Y8382743D01*
X-21007347Y8321420D01*
X-20921123Y8206239D01*
X-20921119Y8206235D01*
X-20921114Y8206229D01*
X-20457535Y7742651D01*
X-19994261Y7279377D01*
X-19994245Y7279363D01*
X-19994238Y7279356D01*
X-19954020Y7243229D01*
X-19954008Y7243219D01*
X-19954000Y7243212D01*
X-19933358Y7226578D01*
X-19889474Y7194933D01*
X-19758597Y7135162D01*
X-19691558Y7115477D01*
X-19691554Y7115476D01*
X-19549138Y7095000D01*
X-19549135Y7095000D01*
X-16399851Y7095000D01*
X-16399770Y7095000D01*
X-16395191Y7095021D01*
X-16393914Y7095033D01*
X-16393054Y7095040D01*
X-16388559Y7095100D01*
X-16246530Y7118110D01*
X-16186845Y7136796D01*
X-16186846Y7136797D01*
X-16178852Y7139299D01*
X-16152293Y7147615D01*
X-16147356Y7150032D01*
X-16138367Y7153756D01*
X-16138366Y7153755D01*
X-16068160Y7182836D01*
X-16044904Y7189890D01*
X-16034110Y7192037D01*
X-16031179Y7192619D01*
X-16006995Y7195000D01*
X-14424074Y7195000D01*
X-14357035Y7175315D01*
X-14311280Y7122511D01*
X-14301336Y7053353D01*
X-14330361Y6989797D01*
X-14389139Y6952023D01*
X-14399882Y6949383D01*
X-14462660Y6936896D01*
X-14462668Y6936894D01*
X-14527742Y6909939D01*
X-14575194Y6900500D01*
X-14578845Y6900500D01*
X-14733490Y6869739D01*
X-14733502Y6869736D01*
X-14867001Y6814439D01*
X-14914453Y6805000D01*
X-15386609Y6805000D01*
X-15431305Y6803020D01*
X-15453171Y6801078D01*
X-15497558Y6795144D01*
X-15634135Y6749886D01*
X-15696656Y6718693D01*
X-15814944Y6636794D01*
X-15814946Y6636792D01*
X-15839867Y6605950D01*
X-15897312Y6566178D01*
X-15967141Y6563778D01*
X-15975317Y6566179D01*
X-16047199Y6589998D01*
X-16047202Y6589999D01*
X-16047203Y6589999D01*
X-16047207Y6590000D01*
X-16047210Y6590000D01*
X-16149985Y6600500D01*
X-16149992Y6600500D01*
X-18250008Y6600500D01*
X-18250016Y6600500D01*
X-18352796Y6590000D01*
X-18352797Y6589999D01*
X-18519336Y6534814D01*
X-18519338Y6534813D01*
X-18668652Y6442714D01*
X-18668656Y6442711D01*
X-18775301Y6336067D01*
X-18836624Y6302583D01*
X-18882740Y6301333D01*
X-19028309Y6324830D01*
X-19098165Y6326034D01*
X-19098166Y6326034D01*
X-19230596Y6309318D01*
X-19240921Y6308014D01*
X-19719288Y6176463D01*
X-19719294Y6176461D01*
X-19847209Y6121389D01*
X-19905075Y6086330D01*
X-20013108Y5998447D01*
X-20016223Y5995085D01*
X-20076231Y5959297D01*
X-20146062Y5961634D01*
X-20154607Y5964810D01*
X-20166503Y5969737D01*
X-20166507Y5969738D01*
X-20166512Y5969740D01*
X-20321155Y6000500D01*
X-20321158Y6000500D01*
X-20478842Y6000500D01*
X-20478845Y6000500D01*
X-20633490Y5969739D01*
X-20633502Y5969736D01*
X-20779173Y5909398D01*
X-20779186Y5909391D01*
X-20910289Y5821790D01*
X-20910293Y5821787D01*
X-21021787Y5710293D01*
X-21021790Y5710289D01*
X-21068786Y5639954D01*
X-21122398Y5595149D01*
X-21191723Y5586442D01*
X-21225335Y5596955D01*
X-21272388Y5619431D01*
X-21307314Y5636115D01*
X-21307320Y5636116D01*
X-21449356Y5659043D01*
X-21449346Y5659043D01*
X-21519209Y5660247D01*
X-21519210Y5660247D01*
X-21601908Y5649809D01*
X-21670884Y5660942D01*
X-21722892Y5707601D01*
X-21741418Y5774970D01*
X-21722974Y5837930D01*
X-21665645Y5930874D01*
X-21665642Y5930881D01*
X-21610495Y6097303D01*
X-21610494Y6097310D01*
X-21600001Y6200014D01*
X-21600000Y6200027D01*
X-21600000Y7000000D01*
X-22750000Y7000000D01*
X-22750000Y5500001D01*
X-22428688Y5500001D01*
X-22424692Y5498828D01*
X-22420626Y5499739D01*
X-22391447Y5489066D01*
X-22361649Y5480316D01*
X-22358922Y5477169D01*
X-22355008Y5475737D01*
X-22336229Y5450980D01*
X-22315894Y5427512D01*
X-22315302Y5423390D01*
X-22312783Y5420070D01*
X-22310371Y5389097D01*
X-22305950Y5358354D01*
X-22307589Y5353380D01*
X-22307357Y5350411D01*
X-22314215Y5333259D01*
X-22319481Y5317265D01*
X-22321219Y5314035D01*
X-22374239Y5228085D01*
X-22402086Y5164004D01*
X-22402088Y5164000D01*
X-22402269Y5163342D01*
X-22402270Y5163338D01*
X-22421856Y5091768D01*
X-22458538Y5032303D01*
X-22521547Y5002109D01*
X-22541458Y5000500D01*
X-23700002Y5000500D01*
X-23700019Y5000499D01*
X-23802797Y4990000D01*
X-23802800Y4989999D01*
X-23969332Y4934815D01*
X-23969337Y4934813D01*
X-24118663Y4842708D01*
X-24153772Y4807599D01*
X-24215096Y4774115D01*
X-24284787Y4779101D01*
X-24294897Y4783391D01*
X-24336269Y4803153D01*
X-24478307Y4826080D01*
X-24478298Y4826080D01*
X-24548165Y4827284D01*
X-24548166Y4827284D01*
X-24619044Y4818337D01*
X-24690913Y4809265D01*
X-24862656Y4762036D01*
X-25042923Y4712463D01*
X-25042927Y4712462D01*
X-25042937Y4712459D01*
X-25081484Y4700180D01*
X-25100088Y4693421D01*
X-25100093Y4693420D01*
X-25100104Y4693415D01*
X-25134608Y4679297D01*
X-25137509Y4678109D01*
X-25258538Y4600328D01*
X-25258549Y4600319D01*
X-25311341Y4554575D01*
X-25405567Y4445834D01*
X-25405570Y4445830D01*
X-25465336Y4314964D01*
X-25485024Y4247916D01*
X-25505500Y4105497D01*
X-25505500Y624500D01*
X-25525185Y557461D01*
X-25577989Y511706D01*
X-25629500Y500500D01*
X-41875500Y500500D01*
X-41942539Y520185D01*
X-41988294Y572989D01*
X-41999500Y624500D01*
X-41999500Y3110222D01*
X-37200500Y3110222D01*
X-37200500Y2889779D01*
X-37166015Y2672048D01*
X-37097897Y2462397D01*
X-37097896Y2462394D01*
X-36997813Y2265975D01*
X-36868248Y2087642D01*
X-36868244Y2087637D01*
X-36712364Y1931757D01*
X-36712359Y1931753D01*
X-36556808Y1818740D01*
X-36534022Y1802185D01*
X-36405625Y1736763D01*
X-36337607Y1702105D01*
X-36337604Y1702104D01*
X-36232779Y1668045D01*
X-36127951Y1633985D01*
X-35910222Y1599500D01*
X-35910221Y1599500D01*
X-35689779Y1599500D01*
X-35689778Y1599500D01*
X-35472049Y1633985D01*
X-35262394Y1702105D01*
X-35065978Y1802185D01*
X-34887635Y1931758D01*
X-34731758Y2087635D01*
X-34602185Y2265978D01*
X-34502105Y2462394D01*
X-34433985Y2672049D01*
X-34399500Y2889778D01*
X-34399500Y3110222D01*
X-34433985Y3327951D01*
X-34502105Y3537606D01*
X-34502105Y3537607D01*
X-34536763Y3605625D01*
X-34602185Y3734022D01*
X-34618740Y3756808D01*
X-34731753Y3912359D01*
X-34731757Y3912364D01*
X-34887637Y4068244D01*
X-34887642Y4068248D01*
X-35065975Y4197813D01*
X-35065976Y4197814D01*
X-35065978Y4197815D01*
X-35128904Y4229878D01*
X-35262394Y4297896D01*
X-35262397Y4297897D01*
X-35472048Y4366015D01*
X-35580914Y4383258D01*
X-35689778Y4400500D01*
X-35910222Y4400500D01*
X-35982799Y4389005D01*
X-36127953Y4366015D01*
X-36337604Y4297897D01*
X-36337607Y4297896D01*
X-36534026Y4197813D01*
X-36712359Y4068248D01*
X-36712364Y4068244D01*
X-36868244Y3912364D01*
X-36868248Y3912359D01*
X-36997813Y3734026D01*
X-37097896Y3537607D01*
X-37097897Y3537604D01*
X-37166015Y3327953D01*
X-37200500Y3110222D01*
X-41999500Y3110222D01*
X-41999500Y15110222D01*
X-37200500Y15110222D01*
X-37200500Y14889779D01*
X-37166015Y14672048D01*
X-37097897Y14462397D01*
X-37097896Y14462394D01*
X-36997813Y14265975D01*
X-36868248Y14087642D01*
X-36868244Y14087637D01*
X-36712364Y13931757D01*
X-36712359Y13931753D01*
X-36556808Y13818740D01*
X-36534022Y13802185D01*
X-36433288Y13750858D01*
X-36337607Y13702105D01*
X-36337604Y13702104D01*
X-36232779Y13668045D01*
X-36127951Y13633985D01*
X-35910222Y13599500D01*
X-35910221Y13599500D01*
X-35689779Y13599500D01*
X-35689778Y13599500D01*
X-35472049Y13633985D01*
X-35262394Y13702105D01*
X-35065978Y13802185D01*
X-34887635Y13931758D01*
X-34731758Y14087635D01*
X-34602185Y14265978D01*
X-34502105Y14462394D01*
X-34433985Y14672049D01*
X-34399500Y14889778D01*
X-34399500Y15110222D01*
X-34433985Y15327951D01*
X-34486543Y15489711D01*
X-34502104Y15537604D01*
X-34502105Y15537607D01*
X-34544509Y15620828D01*
X-34602185Y15734022D01*
X-34625789Y15766511D01*
X-34731753Y15912359D01*
X-34731757Y15912364D01*
X-34887637Y16068244D01*
X-34887642Y16068248D01*
X-35065975Y16197813D01*
X-35065976Y16197814D01*
X-35065978Y16197815D01*
X-35128904Y16229878D01*
X-35262394Y16297896D01*
X-35262397Y16297897D01*
X-35472048Y16366015D01*
X-35580914Y16383258D01*
X-35689778Y16400500D01*
X-35910222Y16400500D01*
X-35982799Y16389005D01*
X-36127953Y16366015D01*
X-36337604Y16297897D01*
X-36337607Y16297896D01*
X-36534026Y16197813D01*
X-36712359Y16068248D01*
X-36712364Y16068244D01*
X-36868244Y15912364D01*
X-36868248Y15912359D01*
X-36997813Y15734026D01*
X-37097896Y15537607D01*
X-37097897Y15537604D01*
X-37166015Y15327953D01*
X-37200500Y15110222D01*
X-41999500Y15110222D01*
X-41999500Y21076000D01*
X-41979815Y21143039D01*
X-41927011Y21188794D01*
X-41875500Y21200000D01*
X-39504489Y21200000D01*
X-39437450Y21180315D01*
X-39391695Y21127511D01*
X-39381751Y21058353D01*
X-39386783Y21036996D01*
X-39428646Y20910662D01*
X-39439000Y20809321D01*
X-39439000Y20450000D01*
X-38572012Y20450000D01*
X-38604925Y20392993D01*
X-38639000Y20265826D01*
X-38639000Y20134174D01*
X-38604925Y20007007D01*
X-38572012Y19950000D01*
X-39438999Y19950000D01*
X-39438999Y19590680D01*
X-39428646Y19489339D01*
X-39374233Y19325130D01*
X-39283420Y19177902D01*
X-39161099Y19055581D01*
X-39013871Y18964768D01*
X-38849662Y18910355D01*
X-38748315Y18900001D01*
X-38389001Y18900001D01*
X-38389000Y18900002D01*
X-38389000Y19766988D01*
X-38331993Y19734075D01*
X-38204826Y19700000D01*
X-38073174Y19700000D01*
X-37946007Y19734075D01*
X-37889000Y19766988D01*
X-37889000Y18900001D01*
X-37529694Y18900001D01*
X-37529680Y18900002D01*
X-37428339Y18910355D01*
X-37264130Y18964768D01*
X-37116902Y19055581D01*
X-36994581Y19177902D01*
X-36903768Y19325130D01*
X-36849355Y19489339D01*
X-36839001Y19590680D01*
X-36839000Y19590693D01*
X-36839000Y19950000D01*
X-37705988Y19950000D01*
X-37673075Y20007007D01*
X-37639000Y20134174D01*
X-37639000Y20265826D01*
X-37673075Y20392993D01*
X-37705988Y20450000D01*
X-36839001Y20450000D01*
X-36839001Y20809306D01*
X-36839002Y20809321D01*
X-36849355Y20910662D01*
X-36891217Y21036996D01*
X-36893619Y21106825D01*
X-36857887Y21166866D01*
X-36823896Y21189302D01*
X-36799839Y21200000D01*
X-36700000Y21200000D01*
X-36620048Y21279953D01*
X-36599023Y21289302D01*
X-36586280Y21291005D01*
X-36574996Y21297166D01*
X-36548638Y21300000D01*
X-35841333Y21300000D01*
X-35774294Y21280315D01*
G37*
%TD.AperFunction*%
%TA.AperFunction,Conductor*%
G36*
X-9491523Y6296378D02*
G01*
X-9475054Y6291027D01*
X-9279163Y6260000D01*
X-9192879Y6260000D01*
X-9125840Y6240315D01*
X-9080085Y6187511D01*
X-9070141Y6118353D01*
X-9099166Y6054797D01*
X-9105198Y6048319D01*
X-10335181Y4818337D01*
X-10353972Y4802915D01*
X-10373798Y4789668D01*
X-10395235Y4778210D01*
X-10417250Y4769091D01*
X-10440507Y4762036D01*
X-10463889Y4757384D01*
X-10488085Y4755000D01*
X-10663504Y4755000D01*
X-10730543Y4774685D01*
X-10732395Y4775898D01*
X-10762018Y4795692D01*
X-10762031Y4795699D01*
X-10944099Y4871113D01*
X-10944109Y4871116D01*
X-11137395Y4909563D01*
X-11137397Y4909563D01*
X-12643281Y4909563D01*
X-12710320Y4929248D01*
X-12730962Y4945882D01*
X-13247940Y5462860D01*
X-13281425Y5524183D01*
X-13276441Y5593875D01*
X-13263362Y5619431D01*
X-13257077Y5628837D01*
X-13202833Y5710019D01*
X-13149223Y5754823D01*
X-13079898Y5763530D01*
X-13016870Y5733376D01*
X-12980150Y5673933D01*
X-12976443Y5654383D01*
X-12974093Y5632520D01*
X-12923798Y5497672D01*
X-12923794Y5497665D01*
X-12899296Y5464940D01*
X-12899293Y5464937D01*
X-12837546Y5382454D01*
X-12722335Y5296207D01*
X-12722332Y5296205D01*
X-12722329Y5296203D01*
X-12587483Y5245909D01*
X-12587484Y5245909D01*
X-12580556Y5245165D01*
X-12527873Y5239500D01*
X-10912128Y5239501D01*
X-10852517Y5245909D01*
X-10717669Y5296204D01*
X-10602454Y5382454D01*
X-10516204Y5497669D01*
X-10465909Y5632517D01*
X-10463057Y5659043D01*
X-10462392Y5665227D01*
X-10435654Y5729778D01*
X-10378262Y5769626D01*
X-10347949Y5775656D01*
X-10345206Y5775853D01*
X-10345202Y5775852D01*
X-10201691Y5786116D01*
X-10066882Y5836398D01*
X-10005559Y5869883D01*
X-9890378Y5956107D01*
X-9732232Y6114253D01*
X-9732224Y6114264D01*
X-9732219Y6114268D01*
X-9682100Y6176461D01*
X-9664424Y6198395D01*
X-9635923Y6242742D01*
X-9635920Y6242750D01*
X-9634160Y6245487D01*
X-9581356Y6291242D01*
X-9512197Y6301186D01*
X-9491523Y6296378D01*
G37*
%TD.AperFunction*%
%TA.AperFunction,Conductor*%
G36*
X-13463896Y7242618D02*
G01*
X-13446786Y7239215D01*
X-13440520Y7237969D01*
X-13417260Y7230914D01*
X-13395228Y7221788D01*
X-13373800Y7210335D01*
X-13359205Y7200583D01*
X-13355389Y7198059D01*
X-13355306Y7198004D01*
X-13355299Y7198000D01*
X-13353659Y7196925D01*
X-13353560Y7196861D01*
X-13353539Y7196847D01*
X-13349820Y7194433D01*
X-13349817Y7194432D01*
X-13349816Y7194431D01*
X-13220043Y7135164D01*
X-13218943Y7134662D01*
X-13151904Y7114977D01*
X-13151900Y7114976D01*
X-13086853Y7105624D01*
X-13023298Y7076599D01*
X-12985523Y7017821D01*
X-12980500Y6982886D01*
X-12980500Y6578011D01*
X-13000185Y6510972D01*
X-13052989Y6465217D01*
X-13122147Y6455273D01*
X-13185703Y6484298D01*
X-13207602Y6509120D01*
X-13279211Y6616289D01*
X-13279214Y6616293D01*
X-13390708Y6727787D01*
X-13390712Y6727790D01*
X-13521815Y6815391D01*
X-13521828Y6815398D01*
X-13667499Y6875736D01*
X-13667511Y6875739D01*
X-13822155Y6906500D01*
X-13822158Y6906500D01*
X-13839291Y6906500D01*
X-13839504Y6906531D01*
X-13839609Y6906500D01*
X-13840446Y6906668D01*
X-13874530Y6911613D01*
X-13880754Y6913458D01*
X-13937334Y6936894D01*
X-14005699Y6950493D01*
X-14011165Y6952113D01*
X-14035915Y6968108D01*
X-14062028Y6981768D01*
X-14064927Y6986858D01*
X-14069847Y6990038D01*
X-14082022Y7016879D01*
X-14096603Y7042484D01*
X-14096290Y7048333D01*
X-14098709Y7053667D01*
X-14094441Y7082823D01*
X-14092863Y7112253D01*
X-14089437Y7117005D01*
X-14088588Y7122800D01*
X-14069233Y7145022D01*
X-14051996Y7168925D01*
X-14046546Y7171070D01*
X-14042698Y7175487D01*
X-14014396Y7183719D01*
X-13986978Y7194506D01*
X-13975926Y7195000D01*
X-13794659Y7195000D01*
X-13794657Y7195000D01*
X-13696037Y7204713D01*
X-13648585Y7214152D01*
X-13596082Y7230081D01*
X-13584282Y7233037D01*
X-13565097Y7236853D01*
X-13536104Y7242618D01*
X-13511917Y7245000D01*
X-13488084Y7245000D01*
X-13463896Y7242618D01*
G37*
%TD.AperFunction*%
%TD*%
%TA.AperFunction,Conductor*%
%TO.N,GND*%
G36*
X-14691637Y37979815D02*
G01*
X-14670995Y37963181D01*
X-536819Y23829005D01*
X-503334Y23767682D01*
X-500500Y23741324D01*
X-500500Y21302000D01*
X-520185Y21234961D01*
X-572989Y21189206D01*
X-624500Y21178000D01*
X-7971500Y21178000D01*
X-8038539Y21197685D01*
X-8084294Y21250489D01*
X-8095500Y21302000D01*
X-8095500Y26042183D01*
X-8095500Y26042187D01*
X-8104567Y26137497D01*
X-8113383Y26183416D01*
X-8140252Y26275295D01*
X-8212010Y26400004D01*
X-8254330Y26453981D01*
X-8254998Y26454852D01*
X-8255122Y26454991D01*
X-8359109Y26554431D01*
X-8359949Y26555031D01*
X-11774852Y28994248D01*
X-11785108Y29001384D01*
X-11790139Y29004793D01*
X-11800402Y29011567D01*
X-11882840Y29049217D01*
X-11931276Y29071337D01*
X-11998321Y29091024D01*
X-12045794Y29097850D01*
X-12140738Y29111500D01*
X-12140740Y29111500D01*
X-30586718Y29111500D01*
X-30653757Y29131185D01*
X-30674399Y29147819D01*
X-31058181Y29531601D01*
X-31091666Y29592924D01*
X-31094500Y29619282D01*
X-31094500Y29728845D01*
X-31094501Y29728847D01*
X-31125262Y29883490D01*
X-31125263Y29883497D01*
X-31167511Y29985494D01*
X-31185603Y30029173D01*
X-31185610Y30029186D01*
X-31273211Y30160289D01*
X-31273214Y30160293D01*
X-31384708Y30271787D01*
X-31384712Y30271790D01*
X-31515815Y30359391D01*
X-31515828Y30359398D01*
X-31661499Y30419736D01*
X-31661511Y30419739D01*
X-31816155Y30450500D01*
X-31816158Y30450500D01*
X-31973842Y30450500D01*
X-31973845Y30450500D01*
X-32134472Y30418549D01*
X-32134617Y30419274D01*
X-32160858Y30415500D01*
X-32287142Y30415500D01*
X-32313361Y30419391D01*
X-32313528Y30418549D01*
X-32474155Y30450500D01*
X-32474158Y30450500D01*
X-32631842Y30450500D01*
X-32631845Y30450500D01*
X-32786490Y30419739D01*
X-32786502Y30419736D01*
X-32932173Y30359398D01*
X-32932186Y30359391D01*
X-33063289Y30271790D01*
X-33063293Y30271787D01*
X-33174787Y30160293D01*
X-33174790Y30160289D01*
X-33262391Y30029186D01*
X-33262398Y30029173D01*
X-33322736Y29883502D01*
X-33322739Y29883490D01*
X-33353500Y29728847D01*
X-33353500Y29571154D01*
X-33322739Y29416511D01*
X-33322736Y29416499D01*
X-33262397Y29270826D01*
X-33237309Y29233279D01*
X-33219053Y29182263D01*
X-33218189Y29182434D01*
X-33217032Y29176616D01*
X-33217010Y29176555D01*
X-33217001Y29176460D01*
X-33178553Y28983171D01*
X-33178550Y28983161D01*
X-33103136Y28801093D01*
X-33103129Y28801080D01*
X-32993640Y28637219D01*
X-32993637Y28637215D01*
X-32849963Y28493541D01*
X-32849941Y28493521D01*
X-28636765Y24280345D01*
X-28636736Y24280314D01*
X-28494286Y24137864D01*
X-28494282Y24137861D01*
X-28330421Y24028372D01*
X-28330408Y24028365D01*
X-28201667Y23975039D01*
X-28148341Y23952951D01*
X-28148336Y23952949D01*
X-28053611Y23934107D01*
X-28020755Y23927572D01*
X-27955043Y23914500D01*
X-27955041Y23914500D01*
X-27955040Y23914500D01*
X-27757960Y23914500D01*
X-27175746Y23914500D01*
X-27146306Y23905856D01*
X-27116319Y23899332D01*
X-27111304Y23895578D01*
X-27108707Y23894815D01*
X-27088065Y23878181D01*
X-27049580Y23839696D01*
X-27016095Y23778373D01*
X-27021079Y23708681D01*
X-27062951Y23652748D01*
X-27128415Y23628331D01*
X-27137261Y23628015D01*
X-27496405Y23628015D01*
X-27641393Y23599175D01*
X-27641399Y23599173D01*
X-27777977Y23542601D01*
X-27777989Y23542594D01*
X-27827216Y23509702D01*
X-27900897Y23460471D01*
X-27900905Y23460465D01*
X-28074549Y23286819D01*
X-28135872Y23253334D01*
X-28162230Y23250500D01*
X-28796396Y23250500D01*
X-28843845Y23259938D01*
X-28867503Y23269737D01*
X-28867507Y23269738D01*
X-28867512Y23269740D01*
X-29022155Y23300500D01*
X-29022158Y23300500D01*
X-29179842Y23300500D01*
X-29179845Y23300500D01*
X-29334490Y23269739D01*
X-29334502Y23269736D01*
X-29480173Y23209398D01*
X-29480186Y23209391D01*
X-29611289Y23121790D01*
X-29611293Y23121787D01*
X-29722787Y23010293D01*
X-29722790Y23010289D01*
X-29810391Y22879186D01*
X-29810398Y22879173D01*
X-29870736Y22733502D01*
X-29870739Y22733490D01*
X-29901500Y22578847D01*
X-29901500Y22421154D01*
X-29870739Y22266511D01*
X-29870736Y22266499D01*
X-29810398Y22120828D01*
X-29810391Y22120815D01*
X-29722790Y21989712D01*
X-29722787Y21989708D01*
X-29611293Y21878214D01*
X-29611289Y21878211D01*
X-29480186Y21790610D01*
X-29480173Y21790603D01*
X-29358154Y21740062D01*
X-29334497Y21730263D01*
X-29179847Y21699501D01*
X-29179844Y21699500D01*
X-29179842Y21699500D01*
X-29022156Y21699500D01*
X-29022155Y21699501D01*
X-28945848Y21714680D01*
X-28867512Y21730261D01*
X-28867511Y21730262D01*
X-28867503Y21730263D01*
X-28843845Y21740063D01*
X-28796396Y21749500D01*
X-27946548Y21749500D01*
X-27879509Y21729815D01*
X-27833754Y21677011D01*
X-27831987Y21672952D01*
X-27810394Y21620821D01*
X-27810393Y21620818D01*
X-27722790Y21489712D01*
X-27722787Y21489708D01*
X-27622760Y21389681D01*
X-27589275Y21328358D01*
X-27594259Y21258666D01*
X-27636131Y21202733D01*
X-27701595Y21178316D01*
X-27710441Y21178000D01*
X-29230608Y21178000D01*
X-29297647Y21197685D01*
X-29314600Y21210778D01*
X-33430000Y25000000D01*
X-33430002Y25000000D01*
X-36721958Y25000000D01*
X-36788997Y25019685D01*
X-36834752Y25072489D01*
X-36844696Y25141647D01*
X-36844431Y25143397D01*
X-36839000Y25177688D01*
X-36839000Y25382318D01*
X-36871010Y25584418D01*
X-36934245Y25779032D01*
X-37027141Y25961350D01*
X-37059526Y26005923D01*
X-37059526Y26005924D01*
X-37656038Y25409411D01*
X-37673075Y25472993D01*
X-37738901Y25587007D01*
X-37831993Y25680099D01*
X-37946007Y25745925D01*
X-38009592Y25762963D01*
X-37413078Y26359476D01*
X-37413079Y26359477D01*
X-37457641Y26391853D01*
X-37457650Y26391859D01*
X-37550631Y26439235D01*
X-37601427Y26487210D01*
X-37618222Y26555031D01*
X-37595685Y26621165D01*
X-37550630Y26660205D01*
X-37457390Y26707713D01*
X-37407856Y26743702D01*
X-37291787Y26828029D01*
X-37291785Y26828032D01*
X-37291781Y26828034D01*
X-37147034Y26972781D01*
X-37147032Y26972785D01*
X-37147029Y26972787D01*
X-37094268Y27045410D01*
X-37026713Y27138390D01*
X-36933780Y27320781D01*
X-36870523Y27515466D01*
X-36838500Y27717648D01*
X-36838500Y27922352D01*
X-36870523Y28124534D01*
X-36933780Y28319219D01*
X-36933782Y28319222D01*
X-36933782Y28319224D01*
X-36967497Y28385393D01*
X-37026713Y28501610D01*
X-37034444Y28512251D01*
X-37147029Y28667214D01*
X-37291787Y28811972D01*
X-37457387Y28932285D01*
X-37457388Y28932286D01*
X-37457390Y28932287D01*
X-37514347Y28961309D01*
X-37639777Y29025219D01*
X-37834466Y29088478D01*
X-38009005Y29116122D01*
X-38036648Y29120500D01*
X-38241352Y29120500D01*
X-38265671Y29116649D01*
X-38443535Y29088478D01*
X-38638224Y29025219D01*
X-38820614Y28932285D01*
X-38986214Y28811972D01*
X-39130972Y28667214D01*
X-39251285Y28501614D01*
X-39344219Y28319224D01*
X-39407478Y28124535D01*
X-39439500Y27922352D01*
X-39439500Y27717649D01*
X-39407478Y27515466D01*
X-39344219Y27320777D01*
X-39251285Y27138387D01*
X-39130972Y26972787D01*
X-38986214Y26828029D01*
X-38820615Y26707716D01*
X-38820613Y26707715D01*
X-38820610Y26707713D01*
X-38727370Y26660205D01*
X-38676574Y26612230D01*
X-38659779Y26544409D01*
X-38682316Y26478275D01*
X-38727370Y26439235D01*
X-38820356Y26391857D01*
X-38864923Y26359477D01*
X-38864923Y26359476D01*
X-38268409Y25762963D01*
X-38331993Y25745925D01*
X-38446007Y25680099D01*
X-38539099Y25587007D01*
X-38604925Y25472993D01*
X-38621963Y25409410D01*
X-39218476Y26005923D01*
X-39218477Y26005923D01*
X-39250857Y25961356D01*
X-39343756Y25779032D01*
X-39406991Y25584418D01*
X-39439000Y25382318D01*
X-39439000Y25177688D01*
X-39439001Y25177688D01*
X-39433569Y25143397D01*
X-39442524Y25074104D01*
X-39487520Y25020652D01*
X-39554272Y25000013D01*
X-39556042Y25000000D01*
X-41875500Y25000000D01*
X-41942539Y25019685D01*
X-41988294Y25072489D01*
X-41999500Y25124000D01*
X-41999500Y30241324D01*
X-41979815Y30308363D01*
X-41963181Y30329005D01*
X-40399181Y31893005D01*
X-30981500Y31893005D01*
X-30981500Y31656996D01*
X-30981499Y31656980D01*
X-30950694Y31422990D01*
X-30889606Y31195007D01*
X-30799286Y30976955D01*
X-30799281Y30976944D01*
X-30755145Y30900500D01*
X-30681273Y30772550D01*
X-30681271Y30772547D01*
X-30681270Y30772546D01*
X-30537594Y30585303D01*
X-30537588Y30585296D01*
X-30370705Y30418413D01*
X-30370698Y30418407D01*
X-30260694Y30333999D01*
X-30183450Y30274727D01*
X-30052082Y30198882D01*
X-29979057Y30156720D01*
X-29979052Y30156718D01*
X-29979049Y30156716D01*
X-29760993Y30066394D01*
X-29533014Y30005307D01*
X-29299011Y29974500D01*
X-29299004Y29974500D01*
X-29062996Y29974500D01*
X-29062989Y29974500D01*
X-28828986Y30005307D01*
X-28601007Y30066394D01*
X-28382951Y30156716D01*
X-28178550Y30274727D01*
X-27991301Y30418408D01*
X-27824408Y30585301D01*
X-27680727Y30772550D01*
X-27562716Y30976951D01*
X-27472394Y31195007D01*
X-27411307Y31422986D01*
X-27380500Y31656989D01*
X-27380500Y31893005D01*
X-25901500Y31893005D01*
X-25901500Y31656996D01*
X-25901499Y31656980D01*
X-25870694Y31422990D01*
X-25809606Y31195007D01*
X-25719286Y30976955D01*
X-25719281Y30976944D01*
X-25675145Y30900500D01*
X-25601273Y30772550D01*
X-25601271Y30772547D01*
X-25601270Y30772546D01*
X-25457594Y30585303D01*
X-25457588Y30585296D01*
X-25290705Y30418413D01*
X-25290698Y30418407D01*
X-25180694Y30333999D01*
X-25103450Y30274727D01*
X-24972082Y30198882D01*
X-24899057Y30156720D01*
X-24899052Y30156718D01*
X-24899049Y30156716D01*
X-24680993Y30066394D01*
X-24453014Y30005307D01*
X-24219011Y29974500D01*
X-24219004Y29974500D01*
X-23982996Y29974500D01*
X-23982989Y29974500D01*
X-23748986Y30005307D01*
X-23521007Y30066394D01*
X-23302951Y30156716D01*
X-23098550Y30274727D01*
X-22911301Y30418408D01*
X-22744408Y30585301D01*
X-22600727Y30772550D01*
X-22482716Y30976951D01*
X-22392394Y31195007D01*
X-22331307Y31422986D01*
X-22300500Y31656989D01*
X-22300500Y31893011D01*
X-22331307Y32127014D01*
X-22392394Y32354993D01*
X-22482716Y32573049D01*
X-22482718Y32573052D01*
X-22482720Y32573057D01*
X-22538490Y32669652D01*
X-22600727Y32777450D01*
X-22675558Y32874972D01*
X-22675570Y32874987D01*
X-20821000Y32874987D01*
X-20821000Y32025000D01*
X-19621001Y32025000D01*
X-19646021Y31964598D01*
X-19671000Y31839019D01*
X-19671000Y31710981D01*
X-19646021Y31585402D01*
X-19621001Y31525000D01*
X-20820999Y31525000D01*
X-20820999Y30675014D01*
X-20810506Y30572303D01*
X-20755359Y30405881D01*
X-20755357Y30405876D01*
X-20663316Y30256655D01*
X-20539346Y30132685D01*
X-20390125Y30040644D01*
X-20390120Y30040642D01*
X-20223698Y29985495D01*
X-20223691Y29985494D01*
X-20120981Y29975001D01*
X-19271001Y29975001D01*
X-19271000Y29975002D01*
X-19271000Y31174999D01*
X-19210598Y31149979D01*
X-19085019Y31125000D01*
X-18956981Y31125000D01*
X-18831402Y31149979D01*
X-18771000Y31174999D01*
X-18771000Y29975001D01*
X-17921028Y29975001D01*
X-17921014Y29975002D01*
X-17818303Y29985495D01*
X-17651881Y30040642D01*
X-17651876Y30040644D01*
X-17502655Y30132685D01*
X-17378685Y30256655D01*
X-17286644Y30405876D01*
X-17286642Y30405881D01*
X-17231495Y30572303D01*
X-17231494Y30572310D01*
X-17221001Y30675014D01*
X-17221000Y30675027D01*
X-17221000Y31525000D01*
X-18420999Y31525000D01*
X-18395979Y31585402D01*
X-18371000Y31710981D01*
X-18371000Y31839019D01*
X-18395979Y31964598D01*
X-18420999Y32025000D01*
X-17221001Y32025000D01*
X-17221001Y32874972D01*
X-17221002Y32874987D01*
X-17231495Y32977698D01*
X-17286642Y33144120D01*
X-17286644Y33144125D01*
X-17378685Y33293346D01*
X-17502655Y33417316D01*
X-17651876Y33509357D01*
X-17651881Y33509359D01*
X-17818303Y33564506D01*
X-17818310Y33564507D01*
X-17921014Y33575000D01*
X-18771000Y33575000D01*
X-18771000Y32375002D01*
X-18831402Y32400021D01*
X-18956981Y32425000D01*
X-19085019Y32425000D01*
X-19210598Y32400021D01*
X-19271000Y32375002D01*
X-19271000Y33575000D01*
X-20120972Y33575000D01*
X-20120988Y33574999D01*
X-20223698Y33564506D01*
X-20390120Y33509359D01*
X-20390125Y33509357D01*
X-20539346Y33417316D01*
X-20663316Y33293346D01*
X-20755357Y33144125D01*
X-20755359Y33144120D01*
X-20810506Y32977698D01*
X-20810507Y32977691D01*
X-20821000Y32874987D01*
X-22675570Y32874987D01*
X-22744407Y32964698D01*
X-22744413Y32964705D01*
X-22911296Y33131588D01*
X-22911303Y33131594D01*
X-23098546Y33275270D01*
X-23098547Y33275271D01*
X-23098550Y33275273D01*
X-23180043Y33322323D01*
X-23302944Y33393281D01*
X-23302955Y33393286D01*
X-23521007Y33483606D01*
X-23748990Y33544694D01*
X-23982980Y33575499D01*
X-23982983Y33575500D01*
X-23982989Y33575500D01*
X-24219011Y33575500D01*
X-24219017Y33575500D01*
X-24219021Y33575499D01*
X-24453011Y33544694D01*
X-24680994Y33483606D01*
X-24899046Y33393286D01*
X-24899057Y33393281D01*
X-25103455Y33275270D01*
X-25290698Y33131594D01*
X-25290705Y33131588D01*
X-25457588Y32964705D01*
X-25457594Y32964698D01*
X-25601270Y32777455D01*
X-25719281Y32573057D01*
X-25719286Y32573046D01*
X-25809606Y32354994D01*
X-25870694Y32127011D01*
X-25901499Y31893021D01*
X-25901500Y31893005D01*
X-27380500Y31893005D01*
X-27380500Y31893011D01*
X-27411307Y32127014D01*
X-27472394Y32354993D01*
X-27562716Y32573049D01*
X-27562718Y32573052D01*
X-27562720Y32573057D01*
X-27604882Y32646082D01*
X-27680727Y32777450D01*
X-27824408Y32964699D01*
X-27824413Y32964705D01*
X-27991296Y33131588D01*
X-27991303Y33131594D01*
X-28178546Y33275270D01*
X-28178547Y33275271D01*
X-28178550Y33275273D01*
X-28260043Y33322323D01*
X-28382944Y33393281D01*
X-28382955Y33393286D01*
X-28601007Y33483606D01*
X-28828990Y33544694D01*
X-29062980Y33575499D01*
X-29062983Y33575500D01*
X-29062989Y33575500D01*
X-29299011Y33575500D01*
X-29299017Y33575500D01*
X-29299021Y33575499D01*
X-29533011Y33544694D01*
X-29760994Y33483606D01*
X-29979046Y33393286D01*
X-29979057Y33393281D01*
X-30183455Y33275270D01*
X-30370698Y33131594D01*
X-30370705Y33131588D01*
X-30537588Y32964705D01*
X-30537594Y32964698D01*
X-30681270Y32777455D01*
X-30799281Y32573057D01*
X-30799286Y32573046D01*
X-30889606Y32354994D01*
X-30950694Y32127011D01*
X-30981499Y31893021D01*
X-30981500Y31893005D01*
X-40399181Y31893005D01*
X-34329005Y37963181D01*
X-34267682Y37996666D01*
X-34241324Y37999500D01*
X-14758676Y37999500D01*
X-14691637Y37979815D01*
G37*
%TD.AperFunction*%
%TD*%
%TA.AperFunction,Conductor*%
%TO.N,+5VP*%
G36*
X-557461Y19280315D02*
G01*
X-511706Y19227511D01*
X-500500Y19176000D01*
X-500500Y624500D01*
X-520185Y557461D01*
X-572989Y511706D01*
X-624500Y500500D01*
X-15497247Y500500D01*
X-15564286Y520185D01*
X-15610041Y572989D01*
X-15619985Y642147D01*
X-15602786Y689597D01*
X-15515644Y830877D01*
X-15515642Y830882D01*
X-15460495Y997304D01*
X-15460494Y997311D01*
X-15450001Y1100015D01*
X-15450000Y1100028D01*
X-15450000Y1400000D01*
X-17000000Y1400000D01*
X-17000000Y1900000D01*
X-15450000Y1900000D01*
X-15450000Y2199973D01*
X-15450001Y2199986D01*
X-15460494Y2302690D01*
X-15460495Y2302697D01*
X-15515642Y2469119D01*
X-15515644Y2469124D01*
X-15607685Y2618345D01*
X-15731656Y2742316D01*
X-15880877Y2834357D01*
X-15880882Y2834359D01*
X-16047304Y2889506D01*
X-16047311Y2889507D01*
X-16146291Y2899619D01*
X-16167776Y2908386D01*
X-16190555Y2912786D01*
X-16199514Y2921336D01*
X-16210983Y2926015D01*
X-16224319Y2945007D01*
X-16241102Y2961023D01*
X-16244017Y2973060D01*
X-16251134Y2983196D01*
X-16252085Y3006381D01*
X-16257545Y3028930D01*
X-16253490Y3040632D01*
X-16253997Y3053007D01*
X-16242263Y3073025D01*
X-16234665Y3094947D01*
X-16221048Y3109216D01*
X-16218663Y3113284D01*
X-16210298Y3120480D01*
X-16180153Y3144166D01*
X-16159718Y3160222D01*
X-8280500Y3160222D01*
X-8280500Y2939779D01*
X-8246015Y2722048D01*
X-8177897Y2512397D01*
X-8177896Y2512394D01*
X-8077813Y2315975D01*
X-7948248Y2137642D01*
X-7948244Y2137637D01*
X-7792364Y1981757D01*
X-7792359Y1981753D01*
X-7679834Y1900000D01*
X-7614022Y1852185D01*
X-7485625Y1786763D01*
X-7417607Y1752105D01*
X-7417604Y1752104D01*
X-7312779Y1718045D01*
X-7207951Y1683985D01*
X-6990222Y1649500D01*
X-6990221Y1649500D01*
X-6769779Y1649500D01*
X-6769778Y1649500D01*
X-6552049Y1683985D01*
X-6342394Y1752105D01*
X-6145978Y1852185D01*
X-5967635Y1981758D01*
X-5811758Y2137635D01*
X-5682185Y2315978D01*
X-5582105Y2512394D01*
X-5513985Y2722049D01*
X-5479500Y2939778D01*
X-5479500Y3160222D01*
X-5513985Y3377951D01*
X-5564662Y3533921D01*
X-5582104Y3587604D01*
X-5582105Y3587607D01*
X-5664015Y3748361D01*
X-5682185Y3784022D01*
X-5756579Y3886417D01*
X-5811753Y3962359D01*
X-5811757Y3962364D01*
X-5967637Y4118244D01*
X-5967642Y4118248D01*
X-6145975Y4247813D01*
X-6145976Y4247814D01*
X-6145978Y4247815D01*
X-6208904Y4279878D01*
X-6342394Y4347896D01*
X-6342397Y4347897D01*
X-6552048Y4416015D01*
X-6660914Y4433258D01*
X-6769778Y4450500D01*
X-6990222Y4450500D01*
X-7062799Y4439005D01*
X-7207953Y4416015D01*
X-7417604Y4347897D01*
X-7417607Y4347896D01*
X-7614026Y4247813D01*
X-7792359Y4118248D01*
X-7792364Y4118244D01*
X-7948244Y3962364D01*
X-7948248Y3962359D01*
X-8077813Y3784026D01*
X-8177896Y3587607D01*
X-8177897Y3587604D01*
X-8246015Y3377953D01*
X-8280500Y3160222D01*
X-16159718Y3160222D01*
X-15600000Y3600000D01*
X-15572163Y4407285D01*
X-15553779Y4468099D01*
X-15515186Y4530666D01*
X-15460001Y4697203D01*
X-15449500Y4799992D01*
X-15449500Y5900008D01*
X-15460001Y6002797D01*
X-15504306Y6136498D01*
X-15506707Y6206324D01*
X-15470975Y6266366D01*
X-15408455Y6297559D01*
X-15386599Y6299500D01*
X-13974500Y6299500D01*
X-13907461Y6279815D01*
X-13861706Y6227011D01*
X-13850500Y6175500D01*
X-13850500Y5326082D01*
X-13850500Y5326080D01*
X-13850501Y5326080D01*
X-13821660Y5181093D01*
X-13821657Y5181083D01*
X-13765087Y5044510D01*
X-13742144Y5010173D01*
X-13682955Y4921586D01*
X-13682951Y4921582D01*
X-13380848Y4619481D01*
X-13282952Y4521585D01*
X-13282951Y4521584D01*
X-13229473Y4468106D01*
X-13178415Y4417048D01*
X-13055502Y4334920D01*
X-13055489Y4334913D01*
X-13007310Y4314957D01*
X-12918913Y4278342D01*
X-12918909Y4278342D01*
X-12918908Y4278341D01*
X-12773921Y4249500D01*
X-12773918Y4249500D01*
X-10426080Y4249500D01*
X-10328538Y4268904D01*
X-10281087Y4278342D01*
X-10144505Y4334916D01*
X-10075019Y4381345D01*
X-10021584Y4417048D01*
X-8597048Y5841584D01*
X-8547155Y5916256D01*
X-8514916Y5964505D01*
X-8458342Y6101087D01*
X-8438082Y6202937D01*
X-8429500Y6246080D01*
X-8429500Y6444025D01*
X-8409815Y6511064D01*
X-8378382Y6544345D01*
X-8358846Y6558539D01*
X-8358848Y6558539D01*
X-8358839Y6558544D01*
X-8218544Y6698839D01*
X-8101923Y6859354D01*
X-8011849Y7036136D01*
X-7950537Y7224832D01*
X-7933608Y7331722D01*
X-7919500Y7420791D01*
X-7919500Y7619210D01*
X-7943342Y7769737D01*
X-7950537Y7815168D01*
X-8011849Y8003864D01*
X-8011851Y8003867D01*
X-8011851Y8003869D01*
X-8070996Y8119947D01*
X-8101923Y8180646D01*
X-8218544Y8341161D01*
X-8329702Y8452319D01*
X-8363187Y8513642D01*
X-8358203Y8583334D01*
X-8329702Y8627681D01*
X-8294316Y8663067D01*
X-8218544Y8738839D01*
X-8101923Y8899354D01*
X-8011849Y9076136D01*
X-8011456Y9077347D01*
X-8011122Y9077893D01*
X-8009983Y9080640D01*
X-8009549Y9080460D01*
X-7981204Y9126720D01*
X-7288212Y9819710D01*
X-7200607Y9950821D01*
X-7140263Y10096502D01*
X-7109500Y10251157D01*
X-7109500Y10408842D01*
X-7109500Y10408845D01*
X-7109501Y10408847D01*
X-7140262Y10563490D01*
X-7140263Y10563497D01*
X-7150062Y10587154D01*
X-7159500Y10634605D01*
X-7159500Y12308919D01*
X-7159501Y12308920D01*
X-7176090Y12392322D01*
X-7188341Y12453912D01*
X-7230486Y12555658D01*
X-7232255Y12559929D01*
X-7244913Y12590489D01*
X-7244920Y12590502D01*
X-7327048Y12713415D01*
X-7350715Y12737082D01*
X-7431584Y12817951D01*
X-7498551Y12884918D01*
X-7996579Y13382948D01*
X-7996586Y13382954D01*
X-8071172Y13432790D01*
X-8071173Y13432790D01*
X-8119499Y13465081D01*
X-8119512Y13465088D01*
X-8256083Y13521657D01*
X-8256093Y13521660D01*
X-8312233Y13532827D01*
X-8335493Y13539883D01*
X-8438759Y13582657D01*
X-8438769Y13582660D01*
X-8583756Y13611500D01*
X-8583758Y13611500D01*
X-9776242Y13611500D01*
X-9776247Y13611500D01*
X-9852159Y13596400D01*
X-9900540Y13596399D01*
X-9921158Y13600500D01*
X-25049138Y13600500D01*
X-25116177Y13620185D01*
X-25136819Y13636819D01*
X-26660222Y15160222D01*
X-8280500Y15160222D01*
X-8280500Y14939779D01*
X-8246015Y14722048D01*
X-8177897Y14512397D01*
X-8177896Y14512394D01*
X-8077813Y14315975D01*
X-7948248Y14137642D01*
X-7948244Y14137637D01*
X-7792364Y13981757D01*
X-7792359Y13981753D01*
X-7636808Y13868740D01*
X-7614022Y13852185D01*
X-7485625Y13786763D01*
X-7417607Y13752105D01*
X-7417604Y13752104D01*
X-7312779Y13718045D01*
X-7207951Y13683985D01*
X-6990222Y13649500D01*
X-6990221Y13649500D01*
X-6769779Y13649500D01*
X-6769778Y13649500D01*
X-6552049Y13683985D01*
X-6342394Y13752105D01*
X-6145978Y13852185D01*
X-5967635Y13981758D01*
X-5811758Y14137635D01*
X-5682185Y14315978D01*
X-5582105Y14512394D01*
X-5513985Y14722049D01*
X-5479500Y14939778D01*
X-5479500Y15160222D01*
X-5513985Y15377951D01*
X-5582105Y15587606D01*
X-5582105Y15587607D01*
X-5616763Y15655625D01*
X-5682185Y15784022D01*
X-5698740Y15806808D01*
X-5811753Y15962359D01*
X-5811757Y15962364D01*
X-5967637Y16118244D01*
X-5967642Y16118248D01*
X-6145975Y16247813D01*
X-6145976Y16247814D01*
X-6145978Y16247815D01*
X-6208904Y16279878D01*
X-6342394Y16347896D01*
X-6342397Y16347897D01*
X-6552048Y16416015D01*
X-6660914Y16433258D01*
X-6769778Y16450500D01*
X-6990222Y16450500D01*
X-7062799Y16439005D01*
X-7207953Y16416015D01*
X-7417604Y16347897D01*
X-7417607Y16347896D01*
X-7614026Y16247813D01*
X-7792359Y16118248D01*
X-7792364Y16118244D01*
X-7948244Y15962364D01*
X-7948248Y15962359D01*
X-8077813Y15784026D01*
X-8177896Y15587607D01*
X-8177897Y15587604D01*
X-8246015Y15377953D01*
X-8280500Y15160222D01*
X-26660222Y15160222D01*
X-29963681Y18463681D01*
X-29997166Y18525004D01*
X-30000000Y18551362D01*
X-30000000Y19176000D01*
X-29980315Y19243039D01*
X-29927511Y19288794D01*
X-29876000Y19300000D01*
X-624500Y19300000D01*
X-557461Y19280315D01*
G37*
%TD.AperFunction*%
%TD*%
%TA.AperFunction,Conductor*%
%TO.N,+12V*%
G36*
X-12629870Y10922500D02*
G01*
X-12625066Y10922500D01*
X-12625066Y10921590D01*
X-12561666Y10909571D01*
X-12510951Y10861511D01*
X-12494202Y10802828D01*
X-12459635Y9627556D01*
X-12477340Y9559966D01*
X-12510692Y9523594D01*
X-12530183Y9509433D01*
X-12541161Y9501456D01*
X-12541163Y9501454D01*
X-12541164Y9501454D01*
X-12681454Y9361164D01*
X-12681454Y9361163D01*
X-12681456Y9361161D01*
X-12702945Y9331584D01*
X-12798074Y9200651D01*
X-12798076Y9200648D01*
X-12888150Y9023869D01*
X-12895743Y9000500D01*
X-12949463Y8835168D01*
X-12949464Y8835165D01*
X-12949464Y8835163D01*
X-12980500Y8639210D01*
X-12980500Y8440791D01*
X-12979095Y8431923D01*
X-12949463Y8244832D01*
X-12924266Y8167286D01*
X-12888150Y8056132D01*
X-12845450Y7972329D01*
X-12803162Y7889333D01*
X-12798076Y7879353D01*
X-12798070Y7879344D01*
X-12760629Y7827810D01*
X-12757887Y7820125D01*
X-12752116Y7814354D01*
X-12746317Y7787699D01*
X-12737149Y7762004D01*
X-12738998Y7754055D01*
X-12737263Y7746082D01*
X-12746796Y7720522D01*
X-12752975Y7693950D01*
X-12759455Y7686580D01*
X-12761678Y7680617D01*
X-12786634Y7655660D01*
X-12827943Y7624735D01*
X-12893407Y7600316D01*
X-12902256Y7600000D01*
X-13009484Y7600000D01*
X-13076523Y7619685D01*
X-13078373Y7620897D01*
X-13144498Y7665079D01*
X-13144503Y7665082D01*
X-13144506Y7665084D01*
X-13144508Y7665085D01*
X-13144510Y7665086D01*
X-13281088Y7721658D01*
X-13281094Y7721660D01*
X-13426081Y7750500D01*
X-13426083Y7750500D01*
X-13573917Y7750500D01*
X-13573919Y7750500D01*
X-13718907Y7721660D01*
X-13718917Y7721657D01*
X-13747205Y7709939D01*
X-13794657Y7700500D01*
X-16068995Y7700500D01*
X-16204323Y7673582D01*
X-16204333Y7673579D01*
X-16331810Y7620777D01*
X-16337181Y7617905D01*
X-16337877Y7619206D01*
X-16397562Y7600520D01*
X-16399770Y7600500D01*
X-19549138Y7600500D01*
X-19616177Y7620185D01*
X-19636819Y7636819D01*
X-20563681Y8563681D01*
X-20597166Y8625004D01*
X-20600000Y8651362D01*
X-20600000Y9800000D01*
X-25400000Y9800000D01*
X-25400000Y8851149D01*
X-25419685Y8784110D01*
X-25436061Y8763727D01*
X-26163912Y8031570D01*
X-26225136Y7997904D01*
X-26251122Y7994994D01*
X-29726234Y7974552D01*
X-29793388Y7993842D01*
X-29837448Y8042255D01*
X-29882355Y8130388D01*
X-29909162Y8167285D01*
X-29909163Y8167286D01*
X-30104121Y7972329D01*
X-30500000Y7970000D01*
X-27613125Y10885745D01*
X-27551970Y10919534D01*
X-27525009Y10922500D01*
X-12631165Y10922500D01*
X-12631158Y10922500D01*
X-12631152Y10922502D01*
X-12630313Y10922584D01*
X-12629870Y10922500D01*
G37*
%TD.AperFunction*%
%TD*%
%TA.AperFunction,Conductor*%
%TO.N,+5V*%
G36*
X-12073699Y28586315D02*
G01*
X-12068668Y28582906D01*
X-9573300Y26800500D01*
X-8652926Y26143090D01*
X-8609816Y26088106D01*
X-8601000Y26042187D01*
X-8601000Y21230000D01*
X-8620685Y21162961D01*
X-8673489Y21117206D01*
X-8725000Y21106000D01*
X-23549638Y21106000D01*
X-23579079Y21114645D01*
X-23609065Y21121168D01*
X-23614081Y21124923D01*
X-23616677Y21125685D01*
X-23637319Y21142319D01*
X-23689266Y21194266D01*
X-23722751Y21255589D01*
X-23717767Y21325281D01*
X-23675895Y21381214D01*
X-23670483Y21385044D01*
X-23622584Y21417048D01*
X-20785705Y24253930D01*
X-20745481Y24280807D01*
X-20721821Y24290606D01*
X-20590711Y24378211D01*
X-20479211Y24489711D01*
X-20391606Y24620821D01*
X-20331263Y24766503D01*
X-20300500Y24921158D01*
X-20300500Y25078842D01*
X-20303508Y25093965D01*
X-20304969Y25101310D01*
X-20298740Y25170901D01*
X-20255877Y25226078D01*
X-20189987Y25249322D01*
X-20183351Y25249500D01*
X-16405604Y25249500D01*
X-16358156Y25240063D01*
X-16334497Y25230263D01*
X-16334492Y25230262D01*
X-16334489Y25230261D01*
X-16179847Y25199501D01*
X-16179844Y25199500D01*
X-16179842Y25199500D01*
X-16022156Y25199500D01*
X-16022155Y25199501D01*
X-15867503Y25230263D01*
X-15721821Y25290606D01*
X-15590711Y25378211D01*
X-15479211Y25489711D01*
X-15391606Y25620821D01*
X-15331263Y25766503D01*
X-15300500Y25921158D01*
X-15300500Y26078842D01*
X-15300500Y26078845D01*
X-15300501Y26078847D01*
X-15331262Y26233490D01*
X-15331263Y26233497D01*
X-15331265Y26233502D01*
X-15391603Y26379173D01*
X-15391610Y26379186D01*
X-15479211Y26510289D01*
X-15479214Y26510293D01*
X-15590708Y26621787D01*
X-15590712Y26621790D01*
X-15721815Y26709391D01*
X-15721828Y26709398D01*
X-15867499Y26769736D01*
X-15867511Y26769739D01*
X-16022155Y26800500D01*
X-16022158Y26800500D01*
X-16179842Y26800500D01*
X-16179845Y26800500D01*
X-16334489Y26769740D01*
X-16334494Y26769738D01*
X-16334496Y26769738D01*
X-16334497Y26769737D01*
X-16358156Y26759938D01*
X-16405604Y26750500D01*
X-23328953Y26750500D01*
X-23357787Y26744766D01*
X-23357786Y26744765D01*
X-23473936Y26721661D01*
X-23473946Y26721658D01*
X-23553948Y26688521D01*
X-23553947Y26688520D01*
X-23610524Y26665085D01*
X-23672194Y26623879D01*
X-23675323Y26621787D01*
X-23692657Y26610205D01*
X-23733444Y26582953D01*
X-23733448Y26582950D01*
X-25098148Y25218251D01*
X-25138371Y25191373D01*
X-25162032Y25181572D01*
X-25162033Y25181571D01*
X-25293136Y25093971D01*
X-25293144Y25093965D01*
X-25404638Y24982471D01*
X-25404644Y24982463D01*
X-25492244Y24851360D01*
X-25492246Y24851356D01*
X-25502046Y24827698D01*
X-25528924Y24787474D01*
X-26318018Y23998380D01*
X-26379341Y23964895D01*
X-26449033Y23969879D01*
X-26493380Y23998380D01*
X-30889319Y28394319D01*
X-30922804Y28455642D01*
X-30917820Y28525334D01*
X-30875948Y28581267D01*
X-30810484Y28605684D01*
X-30801638Y28606000D01*
X-12140738Y28606000D01*
X-12073699Y28586315D01*
G37*
%TD.AperFunction*%
%TD*%
%TA.AperFunction,Conductor*%
%TO.N,Net-(D1-K)*%
G36*
X-19037020Y5819405D02*
G01*
X-18978902Y5780624D01*
X-18950976Y5716577D01*
X-18950000Y5701048D01*
X-18950000Y5600000D01*
X-17324000Y5600000D01*
X-17256961Y5580315D01*
X-17211206Y5527511D01*
X-17200000Y5476000D01*
X-17200000Y5350000D01*
X-17074000Y5350000D01*
X-17006961Y5330315D01*
X-16961206Y5277511D01*
X-16950000Y5226000D01*
X-16950000Y4100000D01*
X-16342494Y4100000D01*
X-16275455Y4080315D01*
X-16229700Y4027511D01*
X-16219756Y3958353D01*
X-16248781Y3894797D01*
X-16263111Y3880741D01*
X-16565511Y3628741D01*
X-16588697Y3618688D01*
X-16609959Y3605023D01*
X-16625295Y3602819D01*
X-16629614Y3600945D01*
X-16644894Y3600000D01*
X-16709990Y3600000D01*
X-16720168Y3600500D01*
X-16721158Y3600500D01*
X-16878842Y3600500D01*
X-16879832Y3600500D01*
X-16890010Y3600000D01*
X-18400001Y3600000D01*
X-19000000Y3000001D01*
X-19000000Y624500D01*
X-19019685Y557461D01*
X-19072489Y511706D01*
X-19124000Y500500D01*
X-24876000Y500500D01*
X-24943039Y520185D01*
X-24988794Y572989D01*
X-25000000Y624500D01*
X-25000000Y2200014D01*
X-24399999Y2200014D01*
X-24389506Y2097303D01*
X-24334359Y1930881D01*
X-24334357Y1930876D01*
X-24242316Y1781655D01*
X-24118346Y1657685D01*
X-23969125Y1565644D01*
X-23969120Y1565642D01*
X-23802698Y1510495D01*
X-23802691Y1510494D01*
X-23699981Y1500001D01*
X-23250001Y1500001D01*
X-23250000Y1500002D01*
X-23250000Y3000000D01*
X-24399999Y3000000D01*
X-24399999Y2200014D01*
X-25000000Y2200014D01*
X-25000000Y4105498D01*
X-24980315Y4172537D01*
X-24927511Y4218292D01*
X-24908888Y4225057D01*
X-24556877Y4321859D01*
X-24487020Y4320655D01*
X-24428902Y4281874D01*
X-24400976Y4217827D01*
X-24400000Y4202298D01*
X-24400000Y3500000D01*
X-23124000Y3500000D01*
X-23056961Y3480315D01*
X-23011206Y3427511D01*
X-23000000Y3376000D01*
X-23000000Y3250000D01*
X-22874000Y3250000D01*
X-22806961Y3230315D01*
X-22761206Y3177511D01*
X-22750000Y3126000D01*
X-22750000Y1500001D01*
X-22300028Y1500001D01*
X-22300014Y1500002D01*
X-22197303Y1510495D01*
X-22030881Y1565642D01*
X-22030876Y1565644D01*
X-21881655Y1657685D01*
X-21757685Y1781655D01*
X-21665644Y1930876D01*
X-21665642Y1930881D01*
X-21610495Y2097303D01*
X-21610494Y2097311D01*
X-21600138Y2198676D01*
X-21573742Y2263368D01*
X-21516562Y2303519D01*
X-21446751Y2306383D01*
X-21386474Y2271049D01*
X-21371242Y2251171D01*
X-21322576Y2172272D01*
X-21322573Y2172268D01*
X-21202733Y2052428D01*
X-21202729Y2052425D01*
X-21058493Y1963458D01*
X-21058482Y1963453D01*
X-20897607Y1910145D01*
X-20798317Y1900001D01*
X-20250000Y1900001D01*
X-20201692Y1900001D01*
X-20201678Y1900002D01*
X-20102393Y1910145D01*
X-19941519Y1963453D01*
X-19941508Y1963458D01*
X-19797272Y2052425D01*
X-19797268Y2052428D01*
X-19677428Y2172268D01*
X-19677425Y2172272D01*
X-19588458Y2316508D01*
X-19588453Y2316519D01*
X-19535145Y2477394D01*
X-19525001Y2576678D01*
X-19525000Y2576691D01*
X-19525000Y2600000D01*
X-20250000Y2600000D01*
X-20250000Y1900001D01*
X-20798317Y1900001D01*
X-20750001Y1900002D01*
X-20750000Y1900002D01*
X-20750000Y2726000D01*
X-20730315Y2793039D01*
X-20677511Y2838794D01*
X-20626000Y2850000D01*
X-20500000Y2850000D01*
X-20500000Y2976000D01*
X-20480315Y3043039D01*
X-20427511Y3088794D01*
X-20376000Y3100000D01*
X-19525001Y3100000D01*
X-19525001Y3123308D01*
X-19525002Y3123323D01*
X-19535145Y3222608D01*
X-19588453Y3383482D01*
X-19588458Y3383493D01*
X-19677425Y3527729D01*
X-19677428Y3527733D01*
X-19686661Y3536966D01*
X-19720146Y3598289D01*
X-19715162Y3667981D01*
X-19686657Y3712332D01*
X-19677032Y3721956D01*
X-19587997Y3866303D01*
X-19534651Y4027292D01*
X-19524500Y4126655D01*
X-19524501Y4673344D01*
X-19526949Y4697304D01*
X-19534651Y4772708D01*
X-19534652Y4772711D01*
X-19543700Y4800015D01*
X-18950000Y4800015D01*
X-18939507Y4697311D01*
X-18939506Y4697304D01*
X-18884359Y4530882D01*
X-18884357Y4530877D01*
X-18792316Y4381656D01*
X-18668345Y4257685D01*
X-18519124Y4165644D01*
X-18519119Y4165642D01*
X-18352697Y4110495D01*
X-18352690Y4110494D01*
X-18249986Y4100001D01*
X-18249973Y4100000D01*
X-17450000Y4100000D01*
X-17450000Y5100000D01*
X-18950000Y5100000D01*
X-18950000Y4800015D01*
X-19543700Y4800015D01*
X-19559622Y4848065D01*
X-19587997Y4933697D01*
X-19599304Y4952028D01*
X-19605866Y4976011D01*
X-19616366Y4998549D01*
X-19616030Y5013155D01*
X-19617744Y5019418D01*
X-19616633Y5033842D01*
X-19616124Y5037590D01*
X-19599500Y5121158D01*
X-19599500Y5278842D01*
X-19599500Y5278845D01*
X-19599501Y5278847D01*
X-19630262Y5433490D01*
X-19630263Y5433497D01*
X-19657602Y5499500D01*
X-19666939Y5522042D01*
X-19674408Y5591511D01*
X-19643133Y5653990D01*
X-19585260Y5689054D01*
X-19106877Y5820609D01*
X-19037020Y5819405D01*
G37*
%TD.AperFunction*%
%TD*%
M02*
