M48
; DRILL file {KiCad 9.0.7-1.fc43} date 2026-03-30T00:07:59-0700
; FORMAT={-:-/ absolute / metric / decimal}
; #@! TF.CreationDate,2026-03-30T00:07:59-07:00
; #@! TF.GenerationSoftware,Kicad,Pcbnew,9.0.7-1.fc43
; #@! TF.FileFunction,Plated,1,2,PTH
FMAT,2
METRIC
; #@! TA.AperFunction,Plated,PTH,ViaDrill
T1C0.300
; #@! TA.AperFunction,Plated,PTH,ComponentDrill
T2C0.900
; #@! TA.AperFunction,Plated,PTH,ComponentDrill
T3C1.000
; #@! TA.AperFunction,Plated,PTH,ComponentDrill
T4C1.300
%
G90
G05
T1
X-41.601Y20.606
X-41.101Y1.106
X-39.6Y10.2
X-39.4Y32.2
X-38.6Y33.0
X-33.601Y37.606
X-32.553Y29.65
X-32.4Y26.2
X-32.4Y24.8
X-31.895Y29.65
X-29.101Y22.5
X-28.601Y6.106
X-27.5Y18.0
X-27.5Y16.0
X-27.459Y16.641
X-27.101Y22.0
X-27.0Y11.723
X-26.2Y7.0
X-26.2Y6.0
X-26.053Y25.165
X-26.001Y24.506
X-25.6Y37.2
X-25.4Y6.2
X-25.0Y7.0
X-24.783Y24.472
X-24.601Y6.106
X-21.2Y6.8
X-21.2Y6.0
X-21.2Y0.8
X-21.101Y25.0
X-20.6Y0.8
X-20.4Y6.4
X-20.4Y5.2
X-17.801Y24.206
X-17.101Y37.106
X-16.8Y2.8
X-16.2Y2.8
X-16.101Y26.0
X-15.641Y14.305
X-15.641Y13.705
X-15.6Y2.8
X-15.6Y2.2
X-14.5Y6.1
X-14.133Y14.247
X-13.901Y6.106
X-12.4Y1.4
X-11.7Y1.4
X-11.525Y3.62
X-11.301Y24.306
X-11.301Y23.506
X-10.992Y3.95
X-9.8Y29.4
X-2.2Y9.4
X-1.101Y23.606
X-1.101Y18.606
X-1.101Y1.106
T2
X-33.5Y10.53
X-33.5Y8.49
X-33.5Y6.45
X-30.96Y11.55
X-30.96Y9.51
X-30.96Y7.47
X-11.72Y10.58
X-11.72Y8.54
X-11.72Y6.5
X-9.18Y11.6
X-9.18Y9.56
X-9.18Y7.52
T3
X-38.139Y27.82
X-38.139Y25.28
X-38.139Y22.74
X-38.139Y20.2
T4
X-29.181Y31.775
X-24.101Y31.775
X-19.021Y31.775
M30
