%TF.GenerationSoftware,KiCad,Pcbnew,9.0.1*%
%TF.CreationDate,2025-06-02T23:11:01-07:00*%
%TF.ProjectId,vmon,766d6f6e-2e6b-4696-9361-645f70636258,rev?*%
%TF.SameCoordinates,PXe4e1c0PY121eac0*%
%TF.FileFunction,Copper,L1,Top*%
%TF.FilePolarity,Positive*%
%FSLAX46Y46*%
G04 Gerber Fmt 4.6, Leading zero omitted, Abs format (unit mm)*
G04 Created by KiCad (PCBNEW 9.0.1) date 2025-06-02 23:11:01*
%MOMM*%
%LPD*%
G01*
G04 APERTURE LIST*
G04 Aperture macros list*
%AMRoundRect*
0 Rectangle with rounded corners*
0 $1 Rounding radius*
0 $2 $3 $4 $5 $6 $7 $8 $9 X,Y pos of 4 corners*
0 Add a 4 corners polygon primitive as box body*
4,1,4,$2,$3,$4,$5,$6,$7,$8,$9,$2,$3,0*
0 Add four circle primitives for the rounded corners*
1,1,$1+$1,$2,$3*
1,1,$1+$1,$4,$5*
1,1,$1+$1,$6,$7*
1,1,$1+$1,$8,$9*
0 Add four rect primitives between the rounded corners*
20,1,$1+$1,$2,$3,$4,$5,0*
20,1,$1+$1,$4,$5,$6,$7,0*
20,1,$1+$1,$6,$7,$8,$9,0*
20,1,$1+$1,$8,$9,$2,$3,0*%
G04 Aperture macros list end*
%ADD10C,0.300000*%
%ADD11C,0.180000*%
%TA.AperFunction,SMDPad,CuDef*%
%ADD12RoundRect,0.200000X-0.200000X-0.275000X0.200000X-0.275000X0.200000X0.275000X-0.200000X0.275000X0*%
%TD*%
%TA.AperFunction,SMDPad,CuDef*%
%ADD13RoundRect,0.250000X0.325000X0.650000X-0.325000X0.650000X-0.325000X-0.650000X0.325000X-0.650000X0*%
%TD*%
%TA.AperFunction,SMDPad,CuDef*%
%ADD14RoundRect,0.200000X0.200000X0.275000X-0.200000X0.275000X-0.200000X-0.275000X0.200000X-0.275000X0*%
%TD*%
%TA.AperFunction,SMDPad,CuDef*%
%ADD15RoundRect,0.250000X-0.500000X-1.100000X0.500000X-1.100000X0.500000X1.100000X-0.500000X1.100000X0*%
%TD*%
%TA.AperFunction,SMDPad,CuDef*%
%ADD16RoundRect,0.150000X0.150000X-0.587500X0.150000X0.587500X-0.150000X0.587500X-0.150000X-0.587500X0*%
%TD*%
%TA.AperFunction,SMDPad,CuDef*%
%ADD17RoundRect,0.150000X-0.675000X-0.150000X0.675000X-0.150000X0.675000X0.150000X-0.675000X0.150000X0*%
%TD*%
%TA.AperFunction,SMDPad,CuDef*%
%ADD18RoundRect,0.200000X0.275000X-0.200000X0.275000X0.200000X-0.275000X0.200000X-0.275000X-0.200000X0*%
%TD*%
%TA.AperFunction,SMDPad,CuDef*%
%ADD19RoundRect,0.250000X0.475000X-0.250000X0.475000X0.250000X-0.475000X0.250000X-0.475000X-0.250000X0*%
%TD*%
%TA.AperFunction,SMDPad,CuDef*%
%ADD20R,1.000000X1.500000*%
%TD*%
%TA.AperFunction,SMDPad,CuDef*%
%ADD21RoundRect,0.225000X-0.225000X-0.250000X0.225000X-0.250000X0.225000X0.250000X-0.225000X0.250000X0*%
%TD*%
%TA.AperFunction,SMDPad,CuDef*%
%ADD22R,1.500000X1.500000*%
%TD*%
%TA.AperFunction,SMDPad,CuDef*%
%ADD23RoundRect,0.150000X-0.587500X-0.150000X0.587500X-0.150000X0.587500X0.150000X-0.587500X0.150000X0*%
%TD*%
%TA.AperFunction,SMDPad,CuDef*%
%ADD24RoundRect,0.250000X0.250000X0.475000X-0.250000X0.475000X-0.250000X-0.475000X0.250000X-0.475000X0*%
%TD*%
%TA.AperFunction,SMDPad,CuDef*%
%ADD25RoundRect,0.250000X-0.650000X0.325000X-0.650000X-0.325000X0.650000X-0.325000X0.650000X0.325000X0*%
%TD*%
%TA.AperFunction,SMDPad,CuDef*%
%ADD26RoundRect,0.200000X-0.275000X0.200000X-0.275000X-0.200000X0.275000X-0.200000X0.275000X0.200000X0*%
%TD*%
%TA.AperFunction,Conductor*%
%ADD27C,0.500000*%
%TD*%
%TA.AperFunction,Conductor*%
%ADD28C,0.400000*%
%TD*%
%TA.AperFunction,Conductor*%
%ADD29C,0.300000*%
%TD*%
%TA.AperFunction,Conductor*%
%ADD30C,0.200000*%
%TD*%
%TA.AperFunction,Conductor*%
%ADD31C,0.600000*%
%TD*%
G04 APERTURE END LIST*
D10*
G36*
X4825378Y-14113552D02*
G01*
X4923523Y-14137319D01*
X4991166Y-14171671D01*
X5035910Y-14214795D01*
X5062429Y-14267473D01*
X5071709Y-14332942D01*
X5065285Y-14388752D01*
X5046898Y-14435629D01*
X5016587Y-14475595D01*
X4972699Y-14509713D01*
X4903943Y-14541037D01*
X4813622Y-14561878D01*
X4696186Y-14569613D01*
X4573157Y-14561626D01*
X4480643Y-14540328D01*
X4412070Y-14508705D01*
X4368395Y-14474145D01*
X4338212Y-14433839D01*
X4319908Y-14386729D01*
X4313518Y-14330835D01*
X4319643Y-14275080D01*
X4336969Y-14229281D01*
X4365132Y-14191243D01*
X4405384Y-14159743D01*
X4469386Y-14131492D01*
X4560483Y-14111920D01*
X4686935Y-14104422D01*
X4825378Y-14113552D01*
G37*
G36*
X4859894Y-12987917D02*
G01*
X4927453Y-13011741D01*
X4986552Y-13049994D01*
X5030402Y-13099393D01*
X5058269Y-13158075D01*
X5067588Y-13222858D01*
X5057573Y-13278099D01*
X5028845Y-13319670D01*
X5000698Y-13338794D01*
X4962297Y-13351348D01*
X4910417Y-13356031D01*
X4852209Y-13350003D01*
X4811133Y-13334050D01*
X4778853Y-13307203D01*
X4755812Y-13269936D01*
X4742351Y-13220417D01*
X4733555Y-13127512D01*
X4731540Y-12979959D01*
X4788326Y-12979959D01*
X4859894Y-12987917D01*
G37*
G36*
X4825378Y-10382498D02*
G01*
X4923523Y-10406265D01*
X4991166Y-10440617D01*
X5035910Y-10483742D01*
X5062429Y-10536419D01*
X5071709Y-10601888D01*
X5065285Y-10657698D01*
X5046898Y-10704575D01*
X5016587Y-10744541D01*
X4972699Y-10778659D01*
X4903943Y-10809983D01*
X4813622Y-10830824D01*
X4696186Y-10838559D01*
X4573157Y-10830572D01*
X4480643Y-10809274D01*
X4412070Y-10777651D01*
X4368395Y-10743091D01*
X4338212Y-10702785D01*
X4319908Y-10655676D01*
X4313518Y-10599781D01*
X4319643Y-10544026D01*
X4336969Y-10498227D01*
X4365132Y-10460190D01*
X4405384Y-10428689D01*
X4469386Y-10400438D01*
X4560483Y-10380867D01*
X4686935Y-10373368D01*
X4825378Y-10382498D01*
G37*
G36*
X2186232Y-8265309D02*
G01*
X2308260Y-8279596D01*
X2381890Y-8297454D01*
X2434638Y-8319350D01*
X2471201Y-8344168D01*
X2498831Y-8377040D01*
X2515918Y-8418375D01*
X2522034Y-8470747D01*
X2516127Y-8523984D01*
X2499801Y-8565243D01*
X2473765Y-8597326D01*
X2438859Y-8621425D01*
X2387286Y-8642963D01*
X2313939Y-8660799D01*
X2191529Y-8675042D01*
X2003995Y-8680765D01*
X1814854Y-8675308D01*
X1693135Y-8661806D01*
X1620533Y-8644522D01*
X1569037Y-8622973D01*
X1533766Y-8598333D01*
X1507562Y-8565505D01*
X1490986Y-8522636D01*
X1484948Y-8466625D01*
X1490852Y-8414092D01*
X1507192Y-8373339D01*
X1533308Y-8341604D01*
X1568118Y-8317793D01*
X1619515Y-8296586D01*
X1692585Y-8279139D01*
X1814777Y-8265239D01*
X2003995Y-8259630D01*
X2186232Y-8265309D01*
G37*
G36*
X4825472Y-7933761D02*
G01*
X4923397Y-7957653D01*
X4990992Y-7992227D01*
X5035790Y-8035702D01*
X5062389Y-8088907D01*
X5071709Y-8155124D01*
X5065432Y-8208856D01*
X5047347Y-8254649D01*
X5017325Y-8294337D01*
X4973615Y-8328872D01*
X4905336Y-8360649D01*
X4814687Y-8381873D01*
X4695728Y-8389781D01*
X4576036Y-8381909D01*
X4484084Y-8360711D01*
X4414177Y-8328872D01*
X4369301Y-8294181D01*
X4338509Y-8254128D01*
X4319962Y-8207741D01*
X4313518Y-8153109D01*
X4322682Y-8087166D01*
X4348778Y-8034317D01*
X4392585Y-7991272D01*
X4458460Y-7957145D01*
X4553633Y-7933612D01*
X4687485Y-7924590D01*
X4825472Y-7933761D01*
G37*
G36*
X2186232Y-7098805D02*
G01*
X2308260Y-7113093D01*
X2381890Y-7130950D01*
X2434638Y-7152846D01*
X2471201Y-7177664D01*
X2498831Y-7210536D01*
X2515918Y-7251871D01*
X2522034Y-7304243D01*
X2516127Y-7357480D01*
X2499801Y-7398739D01*
X2473765Y-7430822D01*
X2438859Y-7454921D01*
X2387286Y-7476459D01*
X2313939Y-7494295D01*
X2191529Y-7508539D01*
X2003995Y-7514262D01*
X1814854Y-7508805D01*
X1693135Y-7495302D01*
X1620533Y-7478018D01*
X1569037Y-7456469D01*
X1533766Y-7431830D01*
X1507562Y-7399001D01*
X1490986Y-7356132D01*
X1484948Y-7300122D01*
X1490852Y-7247588D01*
X1507192Y-7206835D01*
X1533308Y-7175100D01*
X1568118Y-7151289D01*
X1619515Y-7130083D01*
X1692585Y-7112635D01*
X1814777Y-7098735D01*
X2003995Y-7093126D01*
X2186232Y-7098805D01*
G37*
G36*
X4823355Y-2761352D02*
G01*
X4919467Y-2787449D01*
X4987310Y-2825898D01*
X5033520Y-2875457D01*
X5061678Y-2937715D01*
X5071709Y-3016774D01*
X5065331Y-3074950D01*
X5047101Y-3123986D01*
X5017200Y-3165885D01*
X4974256Y-3201788D01*
X4906005Y-3235049D01*
X4813541Y-3257416D01*
X4690049Y-3265810D01*
X4557709Y-3255991D01*
X4462330Y-3230157D01*
X4395041Y-3192116D01*
X4349238Y-3143109D01*
X4321344Y-3081584D01*
X4311412Y-3003493D01*
X4321940Y-2926144D01*
X4351714Y-2864963D01*
X4401171Y-2816006D01*
X4464796Y-2783102D01*
X4557813Y-2760253D01*
X4690049Y-2751434D01*
X4823355Y-2761352D01*
G37*
G36*
X5845442Y-15084692D02*
G01*
X1040119Y-15084692D01*
X1040119Y-14387255D01*
X1593667Y-14387255D01*
X1604299Y-14512838D01*
X1634242Y-14617689D01*
X1681897Y-14705710D01*
X1747540Y-14779723D01*
X1827756Y-14837760D01*
X1923871Y-14880806D01*
X2039029Y-14908228D01*
X2177193Y-14918025D01*
X2312186Y-14908325D01*
X2424825Y-14881148D01*
X2518975Y-14838430D01*
X2597688Y-14780730D01*
X2661917Y-14707428D01*
X2708624Y-14620154D01*
X2724058Y-14565491D01*
X3726786Y-14565491D01*
X3726786Y-14853454D01*
X4992300Y-14853454D01*
X5245000Y-14861697D01*
X5245000Y-14581886D01*
X5166414Y-14572178D01*
X5069603Y-14567506D01*
X5069603Y-14565491D01*
X5129573Y-14529787D01*
X5178374Y-14485916D01*
X5217247Y-14433326D01*
X5245134Y-14373976D01*
X5262415Y-14306569D01*
X5268447Y-14229444D01*
X5258291Y-14130052D01*
X5229380Y-14046396D01*
X5182371Y-13975183D01*
X5115673Y-13914371D01*
X5037771Y-13869012D01*
X4942695Y-13834555D01*
X4827074Y-13812235D01*
X4686935Y-13804187D01*
X4547491Y-13811922D01*
X4433033Y-13833309D01*
X4339498Y-13866186D01*
X4263418Y-13909241D01*
X4197887Y-13967476D01*
X4151844Y-14035668D01*
X4123585Y-14115756D01*
X4113667Y-14210942D01*
X4123037Y-14311771D01*
X4129089Y-14330835D01*
X4149341Y-14394633D01*
X4191291Y-14463156D01*
X4249582Y-14519782D01*
X4326799Y-14565491D01*
X4326799Y-14569613D01*
X4147830Y-14565491D01*
X3726786Y-14565491D01*
X2724058Y-14565491D01*
X2738006Y-14516092D01*
X2748447Y-14391377D01*
X2742772Y-14302926D01*
X2726325Y-14222722D01*
X2699629Y-14149576D01*
X2661993Y-14081685D01*
X2615959Y-14024162D01*
X2561143Y-13975920D01*
X2498908Y-13937582D01*
X2431317Y-13910471D01*
X2357353Y-13894404D01*
X2343981Y-14183374D01*
X2410548Y-14197998D01*
X2461304Y-14221191D01*
X2499502Y-14252067D01*
X2528333Y-14291590D01*
X2545697Y-14336793D01*
X2551709Y-14389362D01*
X2542466Y-14454031D01*
X2516016Y-14506152D01*
X2471290Y-14548912D01*
X2403527Y-14583041D01*
X2305034Y-14606685D01*
X2165928Y-14615775D01*
X2031171Y-14606890D01*
X1935641Y-14583759D01*
X1869803Y-14550328D01*
X1826253Y-14508361D01*
X1800444Y-14457099D01*
X1791412Y-14393392D01*
X1797688Y-14335390D01*
X1815099Y-14289874D01*
X1842886Y-14253990D01*
X1879729Y-14226062D01*
X1925017Y-14205446D01*
X1980547Y-14192533D01*
X1966076Y-13902555D01*
X1881646Y-13925638D01*
X1809014Y-13960120D01*
X1746444Y-14005846D01*
X1692768Y-14063481D01*
X1650504Y-14129615D01*
X1619656Y-14204537D01*
X1600405Y-14289784D01*
X1593667Y-14387255D01*
X1040119Y-14387255D01*
X1040119Y-13398988D01*
X1206786Y-13398988D01*
X1206786Y-13686950D01*
X2725000Y-13686950D01*
X2725000Y-13398988D01*
X2130390Y-13398988D01*
X2038478Y-13391216D01*
X1962631Y-13369444D01*
X1899764Y-13334965D01*
X1849118Y-13286837D01*
X1819877Y-13231551D01*
X1809913Y-13166438D01*
X1814693Y-13129527D01*
X4113667Y-13129527D01*
X4119692Y-13234986D01*
X4136502Y-13323171D01*
X4162620Y-13396768D01*
X4197198Y-13458064D01*
X4243237Y-13511860D01*
X4298497Y-13554143D01*
X4364273Y-13585633D01*
X4442570Y-13606075D01*
X4456950Y-13305840D01*
X4380965Y-13288027D01*
X4336508Y-13259220D01*
X4317457Y-13231957D01*
X4304873Y-13194014D01*
X4300146Y-13141892D01*
X4306770Y-13087138D01*
X4324772Y-13047049D01*
X4353360Y-13017877D01*
X4390873Y-12998321D01*
X4443482Y-12985013D01*
X4515843Y-12979959D01*
X4572629Y-12979959D01*
X4576751Y-13218736D01*
X4584350Y-13326858D01*
X4603348Y-13414936D01*
X4631991Y-13486391D01*
X4669350Y-13544068D01*
X4718506Y-13592179D01*
X4777349Y-13626846D01*
X4847845Y-13648555D01*
X4932857Y-13656267D01*
X5012138Y-13649982D01*
X5078342Y-13632318D01*
X5133843Y-13604350D01*
X5180428Y-13566141D01*
X5217675Y-13518655D01*
X5245015Y-13462238D01*
X5262299Y-13395122D01*
X5268447Y-13314999D01*
X5259384Y-13220704D01*
X5233368Y-13139204D01*
X5190892Y-13067923D01*
X5130757Y-13005147D01*
X5050185Y-12950191D01*
X5050185Y-12944055D01*
X5117220Y-12931578D01*
X5168383Y-12910557D01*
X5206989Y-12882048D01*
X5235084Y-12844088D01*
X5253388Y-12792137D01*
X5260204Y-12721672D01*
X5258097Y-12667999D01*
X5252968Y-12624402D01*
X5244816Y-12583461D01*
X5233551Y-12537299D01*
X5077846Y-12537299D01*
X5083982Y-12600863D01*
X5074663Y-12643839D01*
X5048445Y-12671022D01*
X5005222Y-12685550D01*
X4919210Y-12691996D01*
X4513370Y-12691996D01*
X4418501Y-12699889D01*
X4339439Y-12722086D01*
X4273230Y-12757336D01*
X4217714Y-12805752D01*
X4174219Y-12865115D01*
X4141830Y-12937052D01*
X4121102Y-13024118D01*
X4113667Y-13129527D01*
X1814693Y-13129527D01*
X1817489Y-13107932D01*
X1838822Y-13061681D01*
X1874004Y-13024677D01*
X1925934Y-12995828D01*
X1999826Y-12976176D01*
X2102638Y-12968693D01*
X2725000Y-12968693D01*
X2725000Y-12681738D01*
X2020756Y-12681738D01*
X1914788Y-12688635D01*
X1828644Y-12707687D01*
X1758825Y-12737085D01*
X1702477Y-12775985D01*
X1656023Y-12826632D01*
X1622347Y-12887138D01*
X1601188Y-12959507D01*
X1593667Y-13046545D01*
X1600407Y-13126108D01*
X1619744Y-13195497D01*
X1651094Y-13256564D01*
X1694622Y-13309606D01*
X1754977Y-13358475D01*
X1835559Y-13403109D01*
X1835559Y-13407231D01*
X1618854Y-13398988D01*
X1206786Y-13398988D01*
X1040119Y-13398988D01*
X1040119Y-11978410D01*
X1259542Y-11978410D01*
X1266807Y-12084909D01*
X1287401Y-12176472D01*
X1320120Y-12255464D01*
X1364597Y-12323800D01*
X1421527Y-12382499D01*
X1487885Y-12427531D01*
X1565103Y-12459644D01*
X1655307Y-12478497D01*
X1675732Y-12190535D01*
X1618692Y-12179224D01*
X1573517Y-12158087D01*
X1537796Y-12127520D01*
X1511344Y-12088389D01*
X1494906Y-12041124D01*
X1489070Y-11983539D01*
X1495378Y-11921982D01*
X1512662Y-11874762D01*
X1539811Y-11838551D01*
X1576428Y-11811668D01*
X1622122Y-11794851D01*
X1679487Y-11788817D01*
X1739290Y-11796263D01*
X1786599Y-11817177D01*
X1824385Y-11851373D01*
X1850880Y-11895924D01*
X1868459Y-11956479D01*
X1875034Y-12037853D01*
X1875034Y-12132100D01*
X2107676Y-12132100D01*
X2107676Y-12031716D01*
X2114394Y-11941152D01*
X2132277Y-11873929D01*
X2158967Y-11824720D01*
X2197696Y-11786330D01*
X2245896Y-11763196D01*
X2306612Y-11755020D01*
X2374615Y-11762226D01*
X2425532Y-11781809D01*
X2463507Y-11812447D01*
X2490931Y-11853561D01*
X2508435Y-11906099D01*
X2514798Y-11973281D01*
X2505740Y-12053001D01*
X2480968Y-12112962D01*
X2441714Y-12158009D01*
X2385954Y-12190541D01*
X2308810Y-12210044D01*
X2334272Y-12503044D01*
X2432335Y-12483130D01*
X2514664Y-12449468D01*
X2583893Y-12402689D01*
X2641835Y-12342210D01*
X2686497Y-12271515D01*
X2719748Y-12187966D01*
X2738528Y-12100318D01*
X3879193Y-12100318D01*
X3879193Y-12280661D01*
X4137114Y-12370878D01*
X4137114Y-12525575D01*
X4331837Y-12525575D01*
X4331837Y-12385258D01*
X4984423Y-12385258D01*
X5075296Y-12376530D01*
X5143167Y-12352969D01*
X5193525Y-12316656D01*
X5230639Y-12266741D01*
X5254088Y-12202867D01*
X5262585Y-12120926D01*
X5253447Y-11989051D01*
X5227780Y-11878026D01*
X5049453Y-11878026D01*
X5063832Y-11974289D01*
X5059086Y-12015572D01*
X5046113Y-12046504D01*
X5025547Y-12069635D01*
X4980472Y-12091596D01*
X4906387Y-12100318D01*
X4331837Y-12100318D01*
X4331837Y-11890300D01*
X4137114Y-11890300D01*
X4137114Y-12100318D01*
X3879193Y-12100318D01*
X2738528Y-12100318D01*
X2740914Y-12089182D01*
X2748447Y-11972274D01*
X2740427Y-11848075D01*
X2718159Y-11745883D01*
X2683615Y-11661943D01*
X2637713Y-11593178D01*
X2577837Y-11535817D01*
X2507195Y-11494639D01*
X2423631Y-11468982D01*
X2324014Y-11459913D01*
X2234803Y-11470320D01*
X2159506Y-11500185D01*
X2094945Y-11549581D01*
X2044841Y-11614544D01*
X2008027Y-11698226D01*
X1985768Y-11805211D01*
X1981646Y-11805211D01*
X1954500Y-11709283D01*
X1915678Y-11634237D01*
X1865967Y-11576234D01*
X1803813Y-11532767D01*
X1730721Y-11506158D01*
X1643675Y-11496824D01*
X1555804Y-11505325D01*
X1481098Y-11529568D01*
X1416905Y-11568915D01*
X1361483Y-11624411D01*
X1319051Y-11690124D01*
X1287247Y-11769203D01*
X1266851Y-11864248D01*
X1259542Y-11978410D01*
X1040119Y-11978410D01*
X1040119Y-10807785D01*
X1259542Y-10807785D01*
X1266966Y-10916171D01*
X1287826Y-11007476D01*
X1320664Y-11084527D01*
X1364964Y-11149603D01*
X1421592Y-11204444D01*
X1490049Y-11247788D01*
X1572309Y-11279798D01*
X1671061Y-11299629D01*
X1687456Y-11009651D01*
X1623129Y-10995074D01*
X1574637Y-10973751D01*
X1538712Y-10946637D01*
X1512102Y-10911190D01*
X1495216Y-10865280D01*
X1489070Y-10805770D01*
X1497539Y-10733928D01*
X1520216Y-10682983D01*
X1555708Y-10647360D01*
X1606354Y-10624648D01*
X1677656Y-10616176D01*
X1727045Y-10622395D01*
X1778856Y-10641941D01*
X1834460Y-10677176D01*
X1916656Y-10751949D01*
X2037334Y-10889759D01*
X2167083Y-11038564D01*
X2283347Y-11151618D01*
X2404851Y-11245164D01*
X2525148Y-11311994D01*
X2725000Y-11311994D01*
X2725000Y-10834438D01*
X3726786Y-10834438D01*
X3726786Y-11122400D01*
X4992300Y-11122400D01*
X5245000Y-11130643D01*
X5245000Y-10850833D01*
X5166414Y-10841124D01*
X5069603Y-10836453D01*
X5069603Y-10834438D01*
X5129573Y-10798733D01*
X5178374Y-10754862D01*
X5217247Y-10702272D01*
X5245134Y-10642922D01*
X5262415Y-10575515D01*
X5268447Y-10498390D01*
X5258291Y-10398998D01*
X5229380Y-10315343D01*
X5182371Y-10244129D01*
X5115673Y-10183317D01*
X5037771Y-10137958D01*
X4942695Y-10103502D01*
X4827074Y-10081182D01*
X4686935Y-10073133D01*
X4547491Y-10080868D01*
X4433033Y-10102255D01*
X4339498Y-10135133D01*
X4263418Y-10178188D01*
X4197887Y-10236423D01*
X4151844Y-10304615D01*
X4123585Y-10384703D01*
X4113667Y-10479889D01*
X4123037Y-10580718D01*
X4129088Y-10599781D01*
X4149341Y-10663579D01*
X4191291Y-10732102D01*
X4249582Y-10788729D01*
X4326799Y-10834438D01*
X4326799Y-10838559D01*
X4147830Y-10834438D01*
X3726786Y-10834438D01*
X2725000Y-10834438D01*
X2725000Y-10301653D01*
X2488328Y-10301653D01*
X2488328Y-10971733D01*
X2424824Y-10936238D01*
X2363306Y-10884172D01*
X2247535Y-10753471D01*
X2129658Y-10605460D01*
X2066685Y-10532182D01*
X2000056Y-10466608D01*
X1927427Y-10409638D01*
X1848839Y-10364209D01*
X1763193Y-10334455D01*
X1665382Y-10324184D01*
X1570716Y-10332690D01*
X1491075Y-10356772D01*
X1423562Y-10395421D01*
X1366154Y-10449206D01*
X1321962Y-10513909D01*
X1288714Y-10593139D01*
X1267272Y-10689878D01*
X1259542Y-10807785D01*
X1040119Y-10807785D01*
X1040119Y-9361562D01*
X1617114Y-9361562D01*
X2344988Y-9597226D01*
X2492358Y-9639266D01*
X2236453Y-9711989D01*
X1617114Y-9905704D01*
X1617114Y-10209970D01*
X2725000Y-9813472D01*
X2725000Y-9552163D01*
X3726786Y-9552163D01*
X3726786Y-9840125D01*
X5245000Y-9840125D01*
X5245000Y-9552163D01*
X4829268Y-9552163D01*
X4743264Y-9428240D01*
X5245000Y-9132126D01*
X5245000Y-8817511D01*
X4569241Y-9236632D01*
X4137114Y-8847186D01*
X4137114Y-9156673D01*
X4595802Y-9552163D01*
X3726786Y-9552163D01*
X2725000Y-9552163D01*
X2725000Y-9469181D01*
X1617114Y-9060319D01*
X1617114Y-9361562D01*
X1040119Y-9361562D01*
X1040119Y-8464610D01*
X1259542Y-8464610D01*
X1259708Y-8466625D01*
X1269158Y-8581165D01*
X1295824Y-8675313D01*
X1337578Y-8751474D01*
X1396335Y-8815415D01*
X1475669Y-8869846D01*
X1579928Y-8914414D01*
X1690884Y-8942851D01*
X1830424Y-8961782D01*
X2003995Y-8968728D01*
X2187981Y-8960043D01*
X2336140Y-8936276D01*
X2454299Y-8900310D01*
X2547567Y-8854199D01*
X2620199Y-8799029D01*
X2675393Y-8734824D01*
X2715081Y-8660531D01*
X2739761Y-8574119D01*
X2748447Y-8472762D01*
X2740245Y-8373603D01*
X2716899Y-8288564D01*
X2679386Y-8215106D01*
X2627422Y-8151351D01*
X2559494Y-8096231D01*
X2464239Y-8045557D01*
X2419998Y-8031110D01*
X4113667Y-8031110D01*
X4122752Y-8132571D01*
X4129036Y-8153109D01*
X4148184Y-8215697D01*
X4188544Y-8284133D01*
X4244260Y-8340408D01*
X4317548Y-8385659D01*
X4317548Y-8389781D01*
X4209929Y-8393353D01*
X4137114Y-8402054D01*
X4137114Y-8681864D01*
X4391829Y-8673621D01*
X5678775Y-8673621D01*
X5678775Y-8385659D01*
X5256815Y-8385659D01*
X5071709Y-8391887D01*
X5071709Y-8385659D01*
X5130908Y-8349971D01*
X5179179Y-8305964D01*
X5217705Y-8253035D01*
X5245384Y-8193375D01*
X5262492Y-8126088D01*
X5268447Y-8049611D01*
X5258419Y-7951263D01*
X5229814Y-7868044D01*
X5183218Y-7796794D01*
X5117047Y-7735546D01*
X5039822Y-7689865D01*
X4944952Y-7655094D01*
X4828901Y-7632515D01*
X4687485Y-7624354D01*
X4547355Y-7632213D01*
X4432578Y-7653926D01*
X4338992Y-7687285D01*
X4263052Y-7730966D01*
X4197480Y-7789917D01*
X4151554Y-7858179D01*
X4123482Y-7937572D01*
X4113667Y-8031110D01*
X2419998Y-8031110D01*
X2343643Y-8006176D01*
X2192307Y-7980172D01*
X2003995Y-7970660D01*
X1811523Y-7979812D01*
X1658670Y-8004679D01*
X1538606Y-8042011D01*
X1445381Y-8089545D01*
X1379144Y-8141938D01*
X1328161Y-8203969D01*
X1291067Y-8276877D01*
X1267784Y-8362803D01*
X1259542Y-8464610D01*
X1040119Y-8464610D01*
X1040119Y-7298107D01*
X1259542Y-7298107D01*
X1259708Y-7300122D01*
X1269158Y-7414661D01*
X1295824Y-7508809D01*
X1337578Y-7584970D01*
X1396335Y-7648911D01*
X1475669Y-7703343D01*
X1579928Y-7747910D01*
X1690884Y-7776348D01*
X1830424Y-7795278D01*
X2003995Y-7802224D01*
X2187981Y-7793539D01*
X2336140Y-7769772D01*
X2454299Y-7733806D01*
X2547567Y-7687695D01*
X2620199Y-7632525D01*
X2675393Y-7568320D01*
X2715081Y-7494027D01*
X2739761Y-7407615D01*
X2748447Y-7306258D01*
X2740245Y-7207099D01*
X2716899Y-7122060D01*
X2679386Y-7048602D01*
X2627422Y-6984848D01*
X2559494Y-6929727D01*
X2464239Y-6879053D01*
X2343643Y-6839672D01*
X2192307Y-6813668D01*
X2003995Y-6804156D01*
X1811523Y-6813308D01*
X1658670Y-6838175D01*
X1538606Y-6875507D01*
X1445381Y-6923041D01*
X1379144Y-6975434D01*
X1328161Y-7037465D01*
X1291067Y-7110373D01*
X1267784Y-7196299D01*
X1259542Y-7298107D01*
X1040119Y-7298107D01*
X1040119Y-6145891D01*
X1259542Y-6145891D01*
X1266807Y-6252390D01*
X1287401Y-6343953D01*
X1320120Y-6422944D01*
X1364597Y-6491281D01*
X1421527Y-6549979D01*
X1487885Y-6595011D01*
X1565103Y-6627125D01*
X1655307Y-6645978D01*
X1675732Y-6358016D01*
X1618692Y-6346705D01*
X1573517Y-6325568D01*
X1537796Y-6295001D01*
X1511344Y-6255870D01*
X1494906Y-6208605D01*
X1489070Y-6151020D01*
X1495378Y-6089463D01*
X1512662Y-6042243D01*
X1539811Y-6006031D01*
X1576428Y-5979149D01*
X1622122Y-5962332D01*
X1679487Y-5956297D01*
X1739290Y-5963744D01*
X1786599Y-5984658D01*
X1824385Y-6018854D01*
X1850880Y-6063405D01*
X1868459Y-6123960D01*
X1875034Y-6205334D01*
X1875034Y-6299581D01*
X2107676Y-6299581D01*
X2107676Y-6199197D01*
X2114394Y-6108633D01*
X2132277Y-6041410D01*
X2158967Y-5992201D01*
X2197696Y-5953811D01*
X2245896Y-5930676D01*
X2306612Y-5922500D01*
X2374615Y-5929707D01*
X2425532Y-5949290D01*
X2463507Y-5979928D01*
X2490931Y-6021041D01*
X2508435Y-6073580D01*
X2514798Y-6140762D01*
X2505740Y-6220482D01*
X2480968Y-6280443D01*
X2441714Y-6325490D01*
X2385954Y-6358021D01*
X2308810Y-6377525D01*
X2334272Y-6670525D01*
X2432335Y-6650611D01*
X2514664Y-6616948D01*
X2583893Y-6570170D01*
X2641835Y-6509691D01*
X2686497Y-6438995D01*
X2714971Y-6367450D01*
X4113667Y-6367450D01*
X4120196Y-6481570D01*
X4138261Y-6575270D01*
X4166077Y-6651901D01*
X4202602Y-6714305D01*
X4251685Y-6768060D01*
X4308300Y-6805719D01*
X4373928Y-6828727D01*
X4450997Y-6836762D01*
X4514085Y-6831460D01*
X4567827Y-6816404D01*
X4613937Y-6792249D01*
X4672940Y-6738918D01*
X4721923Y-6662648D01*
X4759917Y-6556947D01*
X4811957Y-6333744D01*
X4838390Y-6235891D01*
X4864897Y-6182619D01*
X4888556Y-6157598D01*
X4916346Y-6143024D01*
X4949710Y-6138014D01*
X4990570Y-6144391D01*
X5022195Y-6162518D01*
X5046888Y-6193335D01*
X5068716Y-6257585D01*
X5077846Y-6369556D01*
X5073183Y-6457647D01*
X5061453Y-6516286D01*
X5045331Y-6553471D01*
X5019825Y-6583991D01*
X4983693Y-6608807D01*
X4934323Y-6627752D01*
X4972150Y-6880818D01*
X5045257Y-6854835D01*
X5105903Y-6819372D01*
X5155926Y-6774493D01*
X5196456Y-6719434D01*
X5233771Y-6635096D01*
X5258981Y-6521154D01*
X5268447Y-6369556D01*
X5261754Y-6251440D01*
X5243149Y-6153401D01*
X5214359Y-6072257D01*
X5176398Y-6005299D01*
X5125272Y-5946986D01*
X5067089Y-5906556D01*
X5000457Y-5882084D01*
X4922965Y-5873591D01*
X4832982Y-5883386D01*
X4766161Y-5909952D01*
X4710625Y-5952371D01*
X4665961Y-6007314D01*
X4631209Y-6074360D01*
X4598550Y-6169247D01*
X4543504Y-6400239D01*
X4520474Y-6485917D01*
X4496792Y-6533046D01*
X4463461Y-6562592D01*
X4420130Y-6572431D01*
X4381842Y-6566445D01*
X4353154Y-6549627D01*
X4331653Y-6521231D01*
X4312917Y-6462965D01*
X4305275Y-6367541D01*
X4309879Y-6298154D01*
X4321853Y-6248910D01*
X4339164Y-6214859D01*
X4364919Y-6187311D01*
X4398551Y-6167159D01*
X4441929Y-6154409D01*
X4415093Y-5899236D01*
X4344952Y-5920231D01*
X4285206Y-5952026D01*
X4234252Y-5994724D01*
X4191153Y-6049354D01*
X4149939Y-6133089D01*
X4123322Y-6237489D01*
X4113667Y-6367450D01*
X2714971Y-6367450D01*
X2719748Y-6355447D01*
X2740914Y-6256663D01*
X2748447Y-6139754D01*
X2740427Y-6015556D01*
X2718159Y-5913364D01*
X2683615Y-5829424D01*
X2637713Y-5760659D01*
X2577837Y-5703297D01*
X2507195Y-5662120D01*
X2423631Y-5636463D01*
X2324014Y-5627394D01*
X2234803Y-5637801D01*
X2159506Y-5667666D01*
X2094945Y-5717062D01*
X2044841Y-5782025D01*
X2008027Y-5865706D01*
X1985768Y-5972692D01*
X1981646Y-5972692D01*
X1954500Y-5876764D01*
X1915678Y-5801718D01*
X1865967Y-5743715D01*
X1803813Y-5700248D01*
X1730721Y-5673639D01*
X1643675Y-5664305D01*
X1555804Y-5672806D01*
X1481098Y-5697049D01*
X1416905Y-5736395D01*
X1361483Y-5791892D01*
X1319051Y-5857604D01*
X1287247Y-5936684D01*
X1266851Y-6031729D01*
X1259542Y-6145891D01*
X1040119Y-6145891D01*
X1040119Y-4418117D01*
X4137114Y-4418117D01*
X4848593Y-4578035D01*
X4983690Y-4606703D01*
X4788143Y-4648743D01*
X4137114Y-4818828D01*
X4137114Y-5127215D01*
X4788143Y-5301421D01*
X4907944Y-5326975D01*
X4983690Y-5341355D01*
X4137114Y-5523804D01*
X4137114Y-5794273D01*
X5245000Y-5507410D01*
X5245000Y-5203053D01*
X4571439Y-5024816D01*
X4342095Y-4971510D01*
X4569332Y-4923333D01*
X5245000Y-4747021D01*
X5245000Y-4442755D01*
X4137114Y-4151770D01*
X4137114Y-4418117D01*
X1040119Y-4418117D01*
X1040119Y-4090862D01*
X4934323Y-4090862D01*
X5245000Y-4090862D01*
X5245000Y-3794748D01*
X4934323Y-3794748D01*
X4934323Y-4090862D01*
X1040119Y-4090862D01*
X1040119Y-3007523D01*
X4113667Y-3007523D01*
X4124334Y-3139126D01*
X4154377Y-3249393D01*
X4202097Y-3342219D01*
X4267540Y-3420507D01*
X4348416Y-3483085D01*
X4443766Y-3528916D01*
X4556417Y-3557811D01*
X4690049Y-3568060D01*
X4824219Y-3557804D01*
X4937300Y-3528898D01*
X5032985Y-3483062D01*
X5114116Y-3420507D01*
X5180042Y-3342146D01*
X5227878Y-3250169D01*
X5257848Y-3141889D01*
X5268447Y-3013660D01*
X5257827Y-2882696D01*
X5227852Y-2772397D01*
X5180132Y-2679016D01*
X5114574Y-2599760D01*
X5033580Y-2536288D01*
X4937899Y-2489812D01*
X4824646Y-2460503D01*
X4690049Y-2450100D01*
X4550335Y-2460302D01*
X4435275Y-2488730D01*
X4340452Y-2533197D01*
X4262411Y-2593073D01*
X4199778Y-2668767D01*
X4153598Y-2760655D01*
X4124200Y-2872098D01*
X4113980Y-3003493D01*
X4113667Y-3007523D01*
X1040119Y-3007523D01*
X1040119Y-2283433D01*
X5845442Y-2283433D01*
X5845442Y-15084692D01*
G37*
D11*
G36*
X2570386Y-1416292D02*
G01*
X2595087Y-1465695D01*
X2595087Y-1465904D01*
X2298897Y-1525142D01*
X2298897Y-1465694D01*
X2323597Y-1416292D01*
X2373001Y-1391592D01*
X2520985Y-1391592D01*
X2570386Y-1416292D01*
G37*
G36*
X5541231Y-1570730D02*
G01*
X5563501Y-1593000D01*
X5595087Y-1656171D01*
X5595087Y-1756535D01*
X5563501Y-1819707D01*
X5536536Y-1846673D01*
X5473366Y-1878259D01*
X5203659Y-1878259D01*
X5203659Y-1534449D01*
X5432389Y-1534449D01*
X5541231Y-1570730D01*
G37*
G36*
X5488916Y-1089844D02*
G01*
X5515882Y-1116810D01*
X5547468Y-1179981D01*
X5547468Y-1232726D01*
X5515882Y-1295897D01*
X5488916Y-1322863D01*
X5425747Y-1354449D01*
X5203659Y-1354449D01*
X5203659Y-1058259D01*
X5425747Y-1058259D01*
X5488916Y-1089844D01*
G37*
G36*
X1679392Y-1089844D02*
G01*
X1706358Y-1116810D01*
X1737944Y-1179981D01*
X1737944Y-1280345D01*
X1706358Y-1343516D01*
X1679392Y-1370482D01*
X1616223Y-1402068D01*
X1346516Y-1402068D01*
X1346516Y-1058259D01*
X1616223Y-1058259D01*
X1679392Y-1089844D01*
G37*
G36*
X6836850Y-2169370D02*
G01*
X1055405Y-2169370D01*
X1055405Y-968259D01*
X1166516Y-968259D01*
X1166516Y-1968259D01*
X1168245Y-1985817D01*
X1181684Y-2018260D01*
X1206515Y-2043091D01*
X1238958Y-2056530D01*
X1274074Y-2056530D01*
X1306517Y-2043091D01*
X1331348Y-2018260D01*
X1344787Y-1985817D01*
X1346516Y-1968259D01*
X1346516Y-1582068D01*
X1447752Y-1582068D01*
X1754213Y-2019871D01*
X1765698Y-2033263D01*
X1795313Y-2052135D01*
X1829895Y-2058238D01*
X1864180Y-2050642D01*
X1892948Y-2030505D01*
X1911820Y-2000890D01*
X1917923Y-1966308D01*
X1910327Y-1932023D01*
X1901675Y-1916648D01*
X1664389Y-1577666D01*
X1677717Y-1572566D01*
X1772955Y-1524948D01*
X1780513Y-1520189D01*
X1782708Y-1519281D01*
X1785179Y-1517252D01*
X1787886Y-1515549D01*
X1789442Y-1513754D01*
X1796346Y-1508089D01*
X1843964Y-1460470D01*
X1849628Y-1453567D01*
X1851425Y-1452010D01*
X1853128Y-1449303D01*
X1855157Y-1446832D01*
X1856066Y-1444635D01*
X1856183Y-1444449D01*
X2118897Y-1444449D01*
X2118897Y-1825401D01*
X2120626Y-1842959D01*
X2121863Y-1845947D01*
X2122093Y-1849172D01*
X2128398Y-1865650D01*
X2176017Y-1960889D01*
X2177866Y-1963827D01*
X2178328Y-1965211D01*
X2179822Y-1966933D01*
X2185416Y-1975820D01*
X2193941Y-1983214D01*
X2201336Y-1991740D01*
X2210219Y-1997331D01*
X2211945Y-1998828D01*
X2213331Y-1999290D01*
X2216267Y-2001138D01*
X2311504Y-2048757D01*
X2327982Y-2055063D01*
X2331207Y-2055292D01*
X2334196Y-2056530D01*
X2351754Y-2058259D01*
X2542230Y-2058259D01*
X2559788Y-2056530D01*
X2562776Y-2055292D01*
X2566002Y-2055063D01*
X2582479Y-2048757D01*
X2677717Y-2001139D01*
X2692648Y-1991740D01*
X2715656Y-1965211D01*
X2726761Y-1931897D01*
X2724272Y-1896869D01*
X2708568Y-1865460D01*
X2682038Y-1842452D01*
X2648724Y-1831347D01*
X2613696Y-1833836D01*
X2597218Y-1840142D01*
X2520985Y-1878259D01*
X2373001Y-1878259D01*
X2323598Y-1853558D01*
X2298897Y-1804154D01*
X2298897Y-1708707D01*
X2702642Y-1627958D01*
X2702645Y-1627958D01*
X2702647Y-1627956D01*
X2702737Y-1627939D01*
X2719615Y-1622801D01*
X2726943Y-1617892D01*
X2735088Y-1614519D01*
X2741388Y-1608218D01*
X2748792Y-1603260D01*
X2753681Y-1595925D01*
X2759919Y-1589688D01*
X2763330Y-1581451D01*
X2768271Y-1574041D01*
X2769981Y-1565396D01*
X2773358Y-1557245D01*
X2775087Y-1539687D01*
X2775087Y-1444449D01*
X2773358Y-1426891D01*
X2772120Y-1423902D01*
X2771891Y-1420677D01*
X2765585Y-1404199D01*
X2720858Y-1314746D01*
X2929387Y-1314746D01*
X2933664Y-1331862D01*
X3171759Y-1998529D01*
X3179293Y-2014483D01*
X3182325Y-2017832D01*
X3184259Y-2021914D01*
X3194025Y-2030755D01*
X3202861Y-2040515D01*
X3206939Y-2042446D01*
X3210292Y-2045482D01*
X3222708Y-2049916D01*
X3234597Y-2055548D01*
X3239103Y-2055772D01*
X3243362Y-2057293D01*
X3256519Y-2056638D01*
X3269670Y-2057293D01*
X3273925Y-2055773D01*
X3278435Y-2055549D01*
X3290331Y-2049913D01*
X3302740Y-2045482D01*
X3306090Y-2042449D01*
X3310171Y-2040516D01*
X3319009Y-2030752D01*
X3328773Y-2021914D01*
X3330705Y-2017833D01*
X3333739Y-2014483D01*
X3341273Y-1998529D01*
X3375361Y-1903083D01*
X3739675Y-1903083D01*
X3739675Y-1938199D01*
X3751318Y-1966308D01*
X3753113Y-1970642D01*
X3764305Y-1984280D01*
X3811924Y-2031898D01*
X3825562Y-2043091D01*
X3831335Y-2045482D01*
X3858006Y-2056530D01*
X3893122Y-2056530D01*
X3919793Y-2045482D01*
X3925566Y-2043091D01*
X3939204Y-2031899D01*
X3986822Y-1984280D01*
X3998015Y-1970642D01*
X3999810Y-1966308D01*
X4011453Y-1938199D01*
X4011453Y-1903083D01*
X4008879Y-1896869D01*
X4007454Y-1893427D01*
X3998016Y-1870639D01*
X3986823Y-1857001D01*
X3939204Y-1809381D01*
X3925566Y-1798188D01*
X3925565Y-1798187D01*
X3912125Y-1792621D01*
X3912127Y-1792621D01*
X3893122Y-1784749D01*
X3858006Y-1784749D01*
X3844566Y-1790315D01*
X3825561Y-1798188D01*
X3811924Y-1809381D01*
X3764305Y-1857001D01*
X3753112Y-1870639D01*
X3749956Y-1878259D01*
X3742249Y-1896869D01*
X3739675Y-1903083D01*
X3375361Y-1903083D01*
X3579368Y-1331862D01*
X3583645Y-1314746D01*
X3581900Y-1279673D01*
X3566868Y-1247937D01*
X3540835Y-1224369D01*
X3507765Y-1212558D01*
X3472692Y-1214303D01*
X3440956Y-1229336D01*
X3417388Y-1255368D01*
X3409854Y-1271322D01*
X3256516Y-1700669D01*
X3103178Y-1271322D01*
X3095644Y-1255368D01*
X3072076Y-1229335D01*
X3040340Y-1214302D01*
X3005267Y-1212558D01*
X2972197Y-1224369D01*
X2946164Y-1247937D01*
X2931131Y-1279673D01*
X2929387Y-1314746D01*
X2720858Y-1314746D01*
X2717966Y-1308962D01*
X2716118Y-1306026D01*
X2715656Y-1304640D01*
X2714159Y-1302914D01*
X2708568Y-1294031D01*
X2700042Y-1286636D01*
X2692648Y-1278111D01*
X2683761Y-1272517D01*
X2682039Y-1271023D01*
X2680655Y-1270561D01*
X2677717Y-1268712D01*
X2582479Y-1221094D01*
X2566002Y-1214788D01*
X2562776Y-1214558D01*
X2559788Y-1213321D01*
X2542230Y-1211592D01*
X2351754Y-1211592D01*
X2334196Y-1213321D01*
X2331207Y-1214558D01*
X2327982Y-1214788D01*
X2311504Y-1221094D01*
X2216267Y-1268713D01*
X2213331Y-1270560D01*
X2211945Y-1271023D01*
X2210219Y-1272519D01*
X2201336Y-1278111D01*
X2193941Y-1286636D01*
X2185416Y-1294031D01*
X2179822Y-1302917D01*
X2178328Y-1304640D01*
X2177866Y-1306023D01*
X2176017Y-1308962D01*
X2128399Y-1404200D01*
X2122093Y-1420677D01*
X2121863Y-1423902D01*
X2120626Y-1426891D01*
X2118897Y-1444449D01*
X1856183Y-1444449D01*
X1860823Y-1437079D01*
X1908442Y-1341842D01*
X1914748Y-1325364D01*
X1914977Y-1322138D01*
X1916215Y-1319150D01*
X1917944Y-1301592D01*
X1917944Y-1158735D01*
X1916215Y-1141177D01*
X1914977Y-1138188D01*
X1914748Y-1134963D01*
X1908442Y-1118485D01*
X1860823Y-1023248D01*
X1856066Y-1015691D01*
X1855157Y-1013495D01*
X1853128Y-1011023D01*
X1851425Y-1008317D01*
X1849628Y-1006759D01*
X1843964Y-999857D01*
X1812367Y-968259D01*
X5023659Y-968259D01*
X5023659Y-1968259D01*
X5025388Y-1985817D01*
X5038827Y-2018260D01*
X5063658Y-2043091D01*
X5096101Y-2056530D01*
X5113659Y-2058259D01*
X5494611Y-2058259D01*
X5512169Y-2056530D01*
X5515157Y-2055292D01*
X5518383Y-2055063D01*
X5534860Y-2048757D01*
X5630098Y-2001139D01*
X5637656Y-1996380D01*
X5639851Y-1995472D01*
X5642321Y-1993444D01*
X5645029Y-1991740D01*
X5646586Y-1989943D01*
X5653489Y-1984279D01*
X5701108Y-1936659D01*
X5706772Y-1929757D01*
X5708568Y-1928200D01*
X5710270Y-1925494D01*
X5712301Y-1923021D01*
X5713211Y-1920822D01*
X5717966Y-1913269D01*
X5765585Y-1818032D01*
X5771891Y-1801554D01*
X5772120Y-1798328D01*
X5773358Y-1795340D01*
X5775087Y-1777782D01*
X5775087Y-1634925D01*
X5773358Y-1617367D01*
X5772120Y-1614378D01*
X5771891Y-1611153D01*
X5765585Y-1594675D01*
X5717966Y-1499438D01*
X5713209Y-1491881D01*
X5712300Y-1489685D01*
X5710271Y-1487213D01*
X5708568Y-1484507D01*
X5706771Y-1482949D01*
X5701107Y-1476047D01*
X5653489Y-1428428D01*
X5644932Y-1421406D01*
X5653488Y-1412851D01*
X5659152Y-1405948D01*
X5660949Y-1404391D01*
X5662652Y-1401684D01*
X5664681Y-1399213D01*
X5665590Y-1397016D01*
X5670347Y-1389460D01*
X5717966Y-1294223D01*
X5724272Y-1277745D01*
X5724501Y-1274519D01*
X5725739Y-1271531D01*
X5727468Y-1253973D01*
X5727468Y-1242717D01*
X5976747Y-1242717D01*
X5979236Y-1277745D01*
X5994940Y-1309153D01*
X6021469Y-1332161D01*
X6054784Y-1343266D01*
X6089812Y-1340777D01*
X6106289Y-1334471D01*
X6201527Y-1286853D01*
X6209085Y-1282094D01*
X6211280Y-1281186D01*
X6213751Y-1279157D01*
X6216458Y-1277454D01*
X6218014Y-1275659D01*
X6224918Y-1269994D01*
X6261754Y-1233158D01*
X6261754Y-1878259D01*
X6066040Y-1878259D01*
X6048482Y-1879988D01*
X6016039Y-1893427D01*
X5991208Y-1918258D01*
X5977769Y-1950701D01*
X5977769Y-1985817D01*
X5991208Y-2018260D01*
X6016039Y-2043091D01*
X6048482Y-2056530D01*
X6066040Y-2058259D01*
X6637468Y-2058259D01*
X6655026Y-2056530D01*
X6687469Y-2043091D01*
X6712300Y-2018260D01*
X6725739Y-1985817D01*
X6725739Y-1950701D01*
X6712300Y-1918258D01*
X6687469Y-1893427D01*
X6655026Y-1879988D01*
X6637468Y-1878259D01*
X6441754Y-1878259D01*
X6441754Y-968259D01*
X6441747Y-968196D01*
X6441754Y-968165D01*
X6441735Y-968073D01*
X6440025Y-950701D01*
X6436614Y-942467D01*
X6434867Y-933730D01*
X6429959Y-926401D01*
X6426586Y-918258D01*
X6420288Y-911960D01*
X6415327Y-904552D01*
X6407985Y-899657D01*
X6401755Y-893427D01*
X6393528Y-890019D01*
X6386109Y-885073D01*
X6377455Y-883361D01*
X6369312Y-879988D01*
X6360401Y-879988D01*
X6351660Y-878259D01*
X6343015Y-879988D01*
X6334196Y-879988D01*
X6325962Y-883398D01*
X6317226Y-885146D01*
X6309899Y-890052D01*
X6301753Y-893427D01*
X6295452Y-899727D01*
X6288048Y-904686D01*
X6276987Y-918192D01*
X6276922Y-918258D01*
X6276909Y-918287D01*
X6276870Y-918336D01*
X6186575Y-1053776D01*
X6107963Y-1132388D01*
X6025791Y-1173475D01*
X6010860Y-1182873D01*
X5987852Y-1209402D01*
X5976747Y-1242717D01*
X5727468Y-1242717D01*
X5727468Y-1158735D01*
X5725739Y-1141177D01*
X5724501Y-1138188D01*
X5724272Y-1134963D01*
X5717966Y-1118485D01*
X5670347Y-1023248D01*
X5665590Y-1015691D01*
X5664681Y-1013495D01*
X5662652Y-1011023D01*
X5660949Y-1008317D01*
X5659152Y-1006759D01*
X5653488Y-999857D01*
X5605870Y-952238D01*
X5598966Y-946572D01*
X5597410Y-944778D01*
X5594703Y-943074D01*
X5592232Y-941046D01*
X5590037Y-940137D01*
X5582479Y-935379D01*
X5487241Y-887761D01*
X5470764Y-881455D01*
X5467538Y-881225D01*
X5464550Y-879988D01*
X5446992Y-878259D01*
X5113659Y-878259D01*
X5096101Y-879988D01*
X5063658Y-893427D01*
X5038827Y-918258D01*
X5025388Y-950701D01*
X5023659Y-968259D01*
X1812367Y-968259D01*
X1796346Y-952238D01*
X1789442Y-946572D01*
X1787886Y-944778D01*
X1785179Y-943074D01*
X1782708Y-941046D01*
X1780513Y-940137D01*
X1772955Y-935379D01*
X1677717Y-887761D01*
X1661240Y-881455D01*
X1658014Y-881225D01*
X1655026Y-879988D01*
X1637468Y-878259D01*
X1256516Y-878259D01*
X1238958Y-879988D01*
X1206515Y-893427D01*
X1181684Y-918258D01*
X1168245Y-950701D01*
X1166516Y-968259D01*
X1055405Y-968259D01*
X1055405Y-767148D01*
X6836850Y-767148D01*
X6836850Y-2169370D01*
G37*
D12*
%TO.P,R1,1*%
%TO.N,+12V*%
X9675000Y-8050000D03*
%TO.P,R1,2*%
%TO.N,Net-(U1-PA2)*%
X11325000Y-8050000D03*
%TD*%
D13*
%TO.P,C5,1*%
%TO.N,+5V*%
X18225000Y-14750000D03*
%TO.P,C5,2*%
%TO.N,GND*%
X15275000Y-14750000D03*
%TD*%
D14*
%TO.P,R5,1*%
%TO.N,Net-(U1-PD6{slash}PA1)*%
X17650000Y-2400000D03*
%TO.P,R5,2*%
%TO.N,GND*%
X16000000Y-2400000D03*
%TD*%
D15*
%TO.P,D1,1,K*%
%TO.N,Net-(D1-K)*%
X24100000Y-9500000D03*
%TO.P,D1,2,A*%
%TO.N,GND*%
X28900000Y-9500000D03*
%TD*%
D16*
%TO.P,U2,1,GND*%
%TO.N,GND*%
X15550000Y-10437500D03*
%TO.P,U2,2,VO*%
%TO.N,+5V*%
X17450000Y-10437500D03*
%TO.P,U2,3,VI*%
%TO.N,Net-(U2-VI)*%
X16500000Y-8562500D03*
%TD*%
D17*
%TO.P,U1,1,PD6/PA1*%
%TO.N,Net-(U1-PD6{slash}PA1)*%
X19375000Y-2645000D03*
%TO.P,U1,2,VSS*%
%TO.N,GND*%
X19375000Y-3915000D03*
%TO.P,U1,3,A0*%
%TO.N,Net-(U1-PA2)*%
X19375000Y-5185000D03*
%TO.P,U1,4,VDD*%
%TO.N,+5V*%
X19375000Y-6455000D03*
%TO.P,U1,5,PC1*%
%TO.N,unconnected-(U1-PC1-Pad5)*%
X24625000Y-6455000D03*
%TO.P,U1,6,PC2*%
%TO.N,unconnected-(U1-PC2-Pad6)*%
X24625000Y-5185000D03*
%TO.P,U1,7,PC4*%
%TO.N,unconnected-(U1-PC4-Pad7)*%
X24625000Y-3915000D03*
%TO.P,U1,8,SWIO*%
%TO.N,Net-(U1-PD1{slash}PD4{slash}PD5)*%
X24625000Y-2645000D03*
%TD*%
D18*
%TO.P,R2,1*%
%TO.N,Net-(U1-PA2)*%
X13500000Y-5825000D03*
%TO.P,R2,2*%
%TO.N,GND*%
X13500000Y-4175000D03*
%TD*%
D12*
%TO.P,R4,1*%
%TO.N,+12V*%
X9675000Y-10500000D03*
%TO.P,R4,2*%
%TO.N,Net-(U2-VI)*%
X11325000Y-10500000D03*
%TD*%
D19*
%TO.P,C1,1*%
%TO.N,Net-(U1-PA2)*%
X15500000Y-5787500D03*
%TO.P,C1,2*%
%TO.N,GND*%
X15500000Y-3887500D03*
%TD*%
D20*
%TO.P,TP1,1,1*%
%TO.N,GND*%
X28150000Y-3000000D03*
%TO.P,TP1,2,2*%
%TO.N,Net-(U1-PD1{slash}PD4{slash}PD5)*%
X26850000Y-3000000D03*
%TD*%
D21*
%TO.P,C4,1*%
%TO.N,+5V*%
X18950000Y-8000000D03*
%TO.P,C4,2*%
%TO.N,GND*%
X20500000Y-8000000D03*
%TD*%
D22*
%TO.P,TP4,1,1*%
%TO.N,+12V*%
X9250000Y-12500000D03*
%TD*%
%TO.P,TP2,1,1*%
%TO.N,Net-(D1-K)*%
X20250000Y-12000000D03*
%TD*%
%TO.P,TP3,1,1*%
%TO.N,GND*%
X28000000Y-13500000D03*
%TD*%
D23*
%TO.P,Q1,1,G*%
%TO.N,Net-(Q1-G)*%
X22562500Y-12550000D03*
%TO.P,Q1,2,S*%
%TO.N,GND*%
X22562500Y-14450000D03*
%TO.P,Q1,3,D*%
%TO.N,Net-(D1-K)*%
X24437500Y-13500000D03*
%TD*%
D24*
%TO.P,C3,1*%
%TO.N,+5V*%
X17700000Y-12500000D03*
%TO.P,C3,2*%
%TO.N,GND*%
X15800000Y-12500000D03*
%TD*%
D25*
%TO.P,C2,1*%
%TO.N,Net-(U2-VI)*%
X13250000Y-11000000D03*
%TO.P,C2,2*%
%TO.N,GND*%
X13250000Y-13950000D03*
%TD*%
D26*
%TO.P,R3,1*%
%TO.N,Net-(U1-PD6{slash}PA1)*%
X22000000Y-8375000D03*
%TO.P,R3,2*%
%TO.N,Net-(Q1-G)*%
X22000000Y-10025000D03*
%TD*%
D27*
%TO.N,GND*%
X16000000Y-3200000D02*
X16000000Y-3387500D01*
D28*
X14250000Y-4150000D02*
X14250000Y-4175000D01*
D29*
X19375000Y-3915000D02*
X20415000Y-3915000D01*
X20415000Y-3915000D02*
X20750000Y-4250000D01*
D27*
X14475000Y-13950000D02*
X13250000Y-13950000D01*
D28*
X20750000Y-7250000D02*
X20750000Y-7000000D01*
D27*
X14775000Y-15250000D02*
X14000000Y-15250000D01*
X15275000Y-14500000D02*
X15000000Y-14500000D01*
X14737500Y-3887500D02*
X14512500Y-3887500D01*
X20750000Y-7000000D02*
X20750000Y-4250000D01*
D30*
X28150000Y-3000000D02*
X28150000Y-2448000D01*
D27*
X15275000Y-13975000D02*
X15800000Y-13450000D01*
X16000000Y-3387500D02*
X15500000Y-3887500D01*
X15262500Y-3887500D02*
X15500000Y-3650000D01*
D28*
X20750000Y-4250000D02*
X20500000Y-4000000D01*
D27*
X14737500Y-3887500D02*
X15262500Y-3887500D01*
X15800000Y-13450000D02*
X15800000Y-12500000D01*
X15275000Y-14750000D02*
X14475000Y-13950000D01*
D30*
X15275000Y-14750000D02*
X15275000Y-13975000D01*
D28*
X20500000Y-7500000D02*
X20750000Y-7250000D01*
X14250000Y-4175000D02*
X13500000Y-4175000D01*
X14512500Y-3887500D02*
X14250000Y-4150000D01*
X16000000Y-2400000D02*
X16000000Y-3200000D01*
D30*
X15275000Y-14750000D02*
X14775000Y-15250000D01*
X15550000Y-12250000D02*
X15800000Y-12500000D01*
X22562500Y-14450000D02*
X22612500Y-14500000D01*
D28*
X15550000Y-10437500D02*
X15550000Y-12250000D01*
X20500000Y-8000000D02*
X20500000Y-7500000D01*
%TO.N,Net-(U1-PA2)*%
X11325000Y-7762500D02*
X11793750Y-7293750D01*
D27*
X11793750Y-7293750D02*
X12753125Y-6334375D01*
X15500000Y-5787500D02*
X14300000Y-5787500D01*
D28*
X14300000Y-5787500D02*
X14262500Y-5825000D01*
D27*
X16962500Y-5787500D02*
X17565000Y-5185000D01*
D28*
X19375000Y-5185000D02*
X18000000Y-5185000D01*
X12753125Y-6334375D02*
X13262500Y-5825000D01*
D27*
X17565000Y-5185000D02*
X18000000Y-5185000D01*
D28*
X14262500Y-5825000D02*
X13500000Y-5825000D01*
D27*
X15500000Y-5787500D02*
X16962500Y-5787500D01*
D28*
X13262500Y-5825000D02*
X13500000Y-5825000D01*
X11325000Y-8050000D02*
X11325000Y-7762500D01*
%TO.N,+12V*%
X9675000Y-9000000D02*
X9675000Y-8050000D01*
X9250000Y-11250000D02*
X9250000Y-10925000D01*
X9250000Y-10925000D02*
X9675000Y-10500000D01*
D31*
X9675000Y-9500000D02*
X9675000Y-9000000D01*
D27*
X9250000Y-12500000D02*
X9250000Y-11250000D01*
D28*
X9675000Y-10500000D02*
X9675000Y-9500000D01*
D27*
%TO.N,+5V*%
X18225000Y-14750000D02*
X18225000Y-13775000D01*
D30*
X19330000Y-6500000D02*
X19375000Y-6455000D01*
D28*
X18225000Y-13775000D02*
X17700000Y-13250000D01*
D30*
X17450000Y-12250000D02*
X17700000Y-12500000D01*
D29*
X17450000Y-10437500D02*
X17450000Y-12250000D01*
D28*
X17700000Y-13250000D02*
X17700000Y-12500000D01*
D27*
%TO.N,Net-(D1-K)*%
X21500000Y-13500000D02*
X20250000Y-12250000D01*
X20000000Y-12000000D02*
X19750000Y-12000000D01*
X23250000Y-13500000D02*
X21500000Y-13500000D01*
D29*
X24437500Y-12500000D02*
X24437500Y-13500000D01*
X23250000Y-13500000D02*
X24437500Y-13500000D01*
D30*
X20250000Y-12250000D02*
X20250000Y-12000000D01*
D27*
%TO.N,Net-(Q1-G)*%
X22000000Y-11500000D02*
X22000000Y-10025000D01*
D28*
X22562500Y-12550000D02*
X22000000Y-11987500D01*
X22000000Y-11987500D02*
X22000000Y-11500000D01*
D30*
%TO.N,Net-(U1-PD1{slash}PD4{slash}PD5)*%
X26495000Y-2645000D02*
X26850000Y-3000000D01*
D28*
X24625000Y-2645000D02*
X26495000Y-2645000D01*
%TO.N,Net-(U1-PD6{slash}PA1)*%
X22000000Y-8375000D02*
X22000000Y-8000000D01*
D29*
X20199999Y-2645000D02*
X20527500Y-2972500D01*
X19375000Y-2645000D02*
X20199999Y-2645000D01*
D28*
X19375000Y-2645000D02*
X18445000Y-2645000D01*
X18445000Y-2645000D02*
X18200000Y-2400000D01*
X18200000Y-2400000D02*
X17650000Y-2400000D01*
X22000000Y-8000000D02*
X21500000Y-7500000D01*
D27*
X21500000Y-7500000D02*
X21500000Y-3945001D01*
X21500000Y-3945001D02*
X20527500Y-2972500D01*
%TO.N,Net-(U2-VI)*%
X11500000Y-10500000D02*
X12000000Y-11000000D01*
X12000000Y-11000000D02*
X13250000Y-11000000D01*
D29*
X11325000Y-10500000D02*
X11500000Y-10500000D01*
%TD*%
%TA.AperFunction,Conductor*%
%TO.N,GND*%
G36*
X14843071Y-10584840D02*
G01*
X14888810Y-10637657D01*
X14900000Y-10689135D01*
X14900000Y-11072844D01*
X14906401Y-11132372D01*
X14906403Y-11132379D01*
X14956645Y-11267086D01*
X14956649Y-11267093D01*
X15042809Y-11382187D01*
X15042812Y-11382190D01*
X15157906Y-11468350D01*
X15157913Y-11468354D01*
X15242760Y-11500000D01*
X14632642Y-11500000D01*
X14639999Y-11477797D01*
X14650500Y-11375009D01*
X14650499Y-10690098D01*
X14653054Y-10681395D01*
X14651766Y-10672415D01*
X14662743Y-10648395D01*
X14670183Y-10623060D01*
X14677806Y-10615438D01*
X14680810Y-10608868D01*
X14707491Y-10585764D01*
X14708992Y-10584800D01*
X14776037Y-10565135D01*
X14843071Y-10584840D01*
G37*
%TD.AperFunction*%
%TA.AperFunction,Conductor*%
G36*
X16500000Y-11500000D02*
G01*
X15857240Y-11500000D01*
X15942086Y-11468354D01*
X15942093Y-11468350D01*
X16057187Y-11382190D01*
X16057190Y-11382187D01*
X16143350Y-11267093D01*
X16143354Y-11267086D01*
X16193596Y-11132379D01*
X16193598Y-11132372D01*
X16199999Y-11072844D01*
X16200000Y-11072827D01*
X16200000Y-10637500D01*
X15674000Y-10637500D01*
X15665314Y-10634949D01*
X15656353Y-10636238D01*
X15632312Y-10625259D01*
X15606961Y-10617815D01*
X15601033Y-10610974D01*
X15592797Y-10607213D01*
X15578507Y-10584978D01*
X15561206Y-10565011D01*
X15558918Y-10554496D01*
X15555023Y-10548435D01*
X15550000Y-10513500D01*
X15550000Y-10361500D01*
X15569685Y-10294461D01*
X15622489Y-10248706D01*
X15674000Y-10237500D01*
X16200000Y-10237500D01*
X16200000Y-9924500D01*
X16219685Y-9857461D01*
X16272489Y-9811706D01*
X16324000Y-9800500D01*
X16500000Y-9800500D01*
X16500000Y-11500000D01*
G37*
%TD.AperFunction*%
%TD*%
%TA.AperFunction,Conductor*%
%TO.N,Net-(U2-VI)*%
G36*
X14479809Y-6557685D02*
G01*
X14500451Y-6574319D01*
X14556344Y-6630212D01*
X14705666Y-6722314D01*
X14872203Y-6777499D01*
X14974991Y-6788000D01*
X16025008Y-6787999D01*
X16025016Y-6787998D01*
X16025019Y-6787998D01*
X16097352Y-6780609D01*
X16127797Y-6777499D01*
X16294334Y-6722314D01*
X16443656Y-6630212D01*
X16499549Y-6574319D01*
X16560872Y-6540834D01*
X16587230Y-6538000D01*
X16876000Y-6538000D01*
X16943039Y-6557685D01*
X16988794Y-6610489D01*
X17000000Y-6662000D01*
X17000000Y-7339608D01*
X16980315Y-7406647D01*
X16927511Y-7452402D01*
X16858353Y-7462346D01*
X16830511Y-7454963D01*
X16781446Y-7435614D01*
X16781442Y-7435613D01*
X16700000Y-7425832D01*
X16700000Y-8438500D01*
X16680315Y-8505539D01*
X16627511Y-8551294D01*
X16576000Y-8562500D01*
X16500000Y-8562500D01*
X16500000Y-8638500D01*
X16480315Y-8705539D01*
X16427511Y-8751294D01*
X16376000Y-8762500D01*
X15800000Y-8762500D01*
X15800000Y-9075500D01*
X15780315Y-9142539D01*
X15727511Y-9188294D01*
X15676000Y-9199500D01*
X15334298Y-9199500D01*
X15297432Y-9202401D01*
X15297426Y-9202402D01*
X15150545Y-9245076D01*
X15115950Y-9250000D01*
X15082838Y-9250000D01*
X15006308Y-9265222D01*
X15006304Y-9265224D01*
X14941425Y-9308575D01*
X14941417Y-9308581D01*
X14558581Y-9691417D01*
X14558575Y-9691425D01*
X14515224Y-9756304D01*
X14515222Y-9756308D01*
X14500000Y-9832838D01*
X14500000Y-10058130D01*
X14480315Y-10125169D01*
X14427511Y-10170924D01*
X14358353Y-10180868D01*
X14309059Y-10159954D01*
X14308271Y-10161288D01*
X14250000Y-10126826D01*
X14250000Y-9750000D01*
X12250000Y-9750000D01*
X12250000Y-10116818D01*
X12211912Y-10126482D01*
X12145650Y-10104322D01*
X12101955Y-10050019D01*
X12049100Y-9922413D01*
X11952924Y-9797075D01*
X11827586Y-9700899D01*
X11681634Y-9640445D01*
X11681630Y-9640444D01*
X11564330Y-9625000D01*
X11525000Y-9625000D01*
X11525000Y-10376000D01*
X11522449Y-10384685D01*
X11523738Y-10393647D01*
X11512759Y-10417687D01*
X11505315Y-10443039D01*
X11498474Y-10448966D01*
X11494713Y-10457203D01*
X11472478Y-10471492D01*
X11452511Y-10488794D01*
X11441996Y-10491081D01*
X11435935Y-10494977D01*
X11401000Y-10500000D01*
X11249000Y-10500000D01*
X11181961Y-10480315D01*
X11136206Y-10427511D01*
X11125000Y-10376000D01*
X11125000Y-9625000D01*
X11085675Y-9625000D01*
X10968371Y-9640442D01*
X10968369Y-9640443D01*
X10921451Y-9659877D01*
X10888827Y-9663383D01*
X10856353Y-9668053D01*
X10854263Y-9667098D01*
X10851982Y-9667344D01*
X10822651Y-9652661D01*
X10792797Y-9639028D01*
X10791555Y-9637096D01*
X10789503Y-9636069D01*
X10772761Y-9607851D01*
X10755023Y-9580250D01*
X10754587Y-9577220D01*
X10753851Y-9575979D01*
X10750000Y-9545315D01*
X10750000Y-9345053D01*
X10752381Y-9320871D01*
X10760413Y-9280492D01*
X10778924Y-9235802D01*
X10801799Y-9201567D01*
X10817204Y-9182795D01*
X10941259Y-9058740D01*
X11002576Y-9025259D01*
X11040152Y-9022934D01*
X11068384Y-9025500D01*
X11068391Y-9025500D01*
X11581613Y-9025500D01*
X11581616Y-9025500D01*
X11652196Y-9019086D01*
X11814606Y-8968478D01*
X11960185Y-8880472D01*
X12080472Y-8760185D01*
X12168478Y-8614606D01*
X12219086Y-8452196D01*
X12225500Y-8381616D01*
X12225500Y-7973647D01*
X12234342Y-7943533D01*
X12237006Y-7931946D01*
X15800000Y-7931946D01*
X15800000Y-8362500D01*
X16300000Y-8362500D01*
X16300000Y-7425832D01*
X16218557Y-7435613D01*
X16218556Y-7435613D01*
X16077904Y-7491079D01*
X15957435Y-7582435D01*
X15866079Y-7702904D01*
X15810613Y-7843556D01*
X15800000Y-7931946D01*
X12237006Y-7931946D01*
X12241376Y-7912942D01*
X12244376Y-7909362D01*
X12245185Y-7906608D01*
X12262858Y-7884939D01*
X12269397Y-7878551D01*
X12272166Y-7876702D01*
X13336076Y-6812791D01*
X13357579Y-6780609D01*
X13411191Y-6735804D01*
X13460681Y-6725500D01*
X13831613Y-6725500D01*
X13831616Y-6725500D01*
X13902196Y-6719086D01*
X14064606Y-6668478D01*
X14210185Y-6580472D01*
X14210189Y-6580468D01*
X14216339Y-6574319D01*
X14243266Y-6559615D01*
X14269085Y-6543023D01*
X14275285Y-6542131D01*
X14277662Y-6540834D01*
X14304020Y-6538000D01*
X14412770Y-6538000D01*
X14479809Y-6557685D01*
G37*
%TD.AperFunction*%
%TD*%
%TA.AperFunction,Conductor*%
%TO.N,GND*%
G36*
X16763887Y-3012063D02*
G01*
X16790215Y-3010495D01*
X16798154Y-3014953D01*
X16807231Y-3015719D01*
X16828144Y-3031794D01*
X16851136Y-3044706D01*
X16860232Y-3056460D01*
X16862626Y-3058300D01*
X16863462Y-3060633D01*
X16868535Y-3067188D01*
X16894528Y-3110185D01*
X16894531Y-3110189D01*
X17014811Y-3230469D01*
X17014813Y-3230470D01*
X17014815Y-3230472D01*
X17160394Y-3318478D01*
X17322804Y-3369086D01*
X17393384Y-3375500D01*
X17393387Y-3375500D01*
X17906613Y-3375500D01*
X17906616Y-3375500D01*
X17977196Y-3369086D01*
X18057964Y-3343917D01*
X18127823Y-3342766D01*
X18187215Y-3379567D01*
X18217283Y-3442636D01*
X18210208Y-3507792D01*
X18160614Y-3633553D01*
X18160613Y-3633557D01*
X18150832Y-3715000D01*
X19251000Y-3715000D01*
X19259685Y-3717550D01*
X19268647Y-3716262D01*
X19292687Y-3727240D01*
X19318039Y-3734685D01*
X19323966Y-3741525D01*
X19332203Y-3745287D01*
X19346492Y-3767521D01*
X19363794Y-3787489D01*
X19366081Y-3798003D01*
X19369977Y-3804065D01*
X19375000Y-3839000D01*
X19375000Y-3991000D01*
X19355315Y-4058039D01*
X19302511Y-4103794D01*
X19251000Y-4115000D01*
X18150833Y-4115000D01*
X18160613Y-4196442D01*
X18160613Y-4196443D01*
X18187653Y-4265010D01*
X18193934Y-4334597D01*
X18161597Y-4396533D01*
X18100908Y-4431154D01*
X18072298Y-4434500D01*
X17491076Y-4434500D01*
X17462242Y-4440234D01*
X17462243Y-4440235D01*
X17346093Y-4463339D01*
X17346083Y-4463342D01*
X17266081Y-4496479D01*
X17266082Y-4496480D01*
X17266080Y-4496481D01*
X17209505Y-4519916D01*
X17197477Y-4527953D01*
X17143192Y-4564225D01*
X17086586Y-4602047D01*
X17086582Y-4602050D01*
X16938632Y-4750000D01*
X16250000Y-4750000D01*
X16250000Y-4730027D01*
X16376552Y-4655185D01*
X16376561Y-4655178D01*
X16492678Y-4539061D01*
X16492685Y-4539052D01*
X16576282Y-4397696D01*
X16576283Y-4397693D01*
X16622099Y-4239995D01*
X16622100Y-4239989D01*
X16624999Y-4203149D01*
X16625000Y-4203134D01*
X16625000Y-4087500D01*
X16250000Y-4087500D01*
X16250000Y-3687500D01*
X16625000Y-3687500D01*
X16625000Y-3571865D01*
X16624999Y-3571850D01*
X16622100Y-3535010D01*
X16622099Y-3535004D01*
X16576283Y-3377306D01*
X16576282Y-3377303D01*
X16536729Y-3310422D01*
X16529540Y-3282088D01*
X16519674Y-3254569D01*
X16521048Y-3248618D01*
X16519546Y-3242698D01*
X16528817Y-3214976D01*
X16535395Y-3186491D01*
X16540193Y-3180957D01*
X16541706Y-3176436D01*
X16556905Y-3158509D01*
X16675863Y-3042547D01*
X16699166Y-3030205D01*
X16720469Y-3014650D01*
X16729561Y-3014108D01*
X16737608Y-3009847D01*
X16763887Y-3012063D01*
G37*
%TD.AperFunction*%
%TD*%
%TA.AperFunction,Conductor*%
%TO.N,Net-(D1-K)*%
G36*
X23217177Y-13370185D02*
G01*
X23262932Y-13422989D01*
X23272876Y-13492147D01*
X23243851Y-13555703D01*
X23237819Y-13562181D01*
X23186819Y-13613181D01*
X23125496Y-13646666D01*
X23099138Y-13649500D01*
X21924000Y-13649500D01*
X21915314Y-13646949D01*
X21906353Y-13648238D01*
X21882312Y-13637259D01*
X21856961Y-13629815D01*
X21851033Y-13622974D01*
X21842797Y-13619213D01*
X21828507Y-13596978D01*
X21811206Y-13577011D01*
X21808918Y-13566496D01*
X21805023Y-13560435D01*
X21800000Y-13525500D01*
X21800000Y-13474500D01*
X21819685Y-13407461D01*
X21872489Y-13361706D01*
X21924000Y-13350500D01*
X23150138Y-13350500D01*
X23217177Y-13370185D01*
G37*
%TD.AperFunction*%
%TA.AperFunction,Conductor*%
G36*
X24293039Y-9519685D02*
G01*
X24338794Y-9572489D01*
X24350000Y-9624000D01*
X24350000Y-11349999D01*
X24649972Y-11349999D01*
X24649984Y-11349998D01*
X24663397Y-11348628D01*
X24732090Y-11361397D01*
X24782975Y-11409277D01*
X24800000Y-11471986D01*
X24800000Y-12676000D01*
X24780315Y-12743039D01*
X24727511Y-12788794D01*
X24676000Y-12800000D01*
X24000000Y-12800000D01*
X23999999Y-12800000D01*
X23977213Y-12809439D01*
X23976359Y-12807378D01*
X23950858Y-12821304D01*
X23881166Y-12816320D01*
X23825233Y-12774448D01*
X23800816Y-12708984D01*
X23800500Y-12700138D01*
X23800500Y-12334313D01*
X23800499Y-12334298D01*
X23797598Y-12297432D01*
X23797597Y-12297426D01*
X23751745Y-12139606D01*
X23751744Y-12139603D01*
X23751744Y-12139602D01*
X23668081Y-11998135D01*
X23668079Y-11998133D01*
X23668076Y-11998129D01*
X23551870Y-11881923D01*
X23551862Y-11881917D01*
X23410396Y-11798255D01*
X23410393Y-11798254D01*
X23252573Y-11752402D01*
X23252567Y-11752401D01*
X23215701Y-11749500D01*
X23215694Y-11749500D01*
X22866669Y-11749500D01*
X22799630Y-11729815D01*
X22753875Y-11677011D01*
X22743931Y-11607853D01*
X22745052Y-11601308D01*
X22750500Y-11573920D01*
X22750500Y-11088622D01*
X22770185Y-11021583D01*
X22822989Y-10975828D01*
X22892147Y-10965884D01*
X22955703Y-10994909D01*
X22980039Y-11023525D01*
X23007684Y-11068345D01*
X23131654Y-11192315D01*
X23280875Y-11284356D01*
X23280880Y-11284358D01*
X23447302Y-11339505D01*
X23447309Y-11339506D01*
X23550019Y-11349999D01*
X23849999Y-11349999D01*
X23850000Y-11349998D01*
X23850000Y-9624000D01*
X23869685Y-9556961D01*
X23922489Y-9511206D01*
X23974000Y-9500000D01*
X24226000Y-9500000D01*
X24293039Y-9519685D01*
G37*
%TD.AperFunction*%
%TD*%
%TA.AperFunction,Conductor*%
%TO.N,Net-(U2-VI)*%
G36*
X14250000Y-10009687D02*
G01*
X14219128Y-9990645D01*
X14219119Y-9990641D01*
X14052697Y-9935494D01*
X14052690Y-9935493D01*
X13949986Y-9925000D01*
X13500000Y-9925000D01*
X13500000Y-10876000D01*
X13480315Y-10943039D01*
X13427511Y-10988794D01*
X13376000Y-11000000D01*
X13124000Y-11000000D01*
X13056961Y-10980315D01*
X13011206Y-10927511D01*
X13000000Y-10876000D01*
X13000000Y-9925000D01*
X12550028Y-9925000D01*
X12550012Y-9925001D01*
X12447302Y-9935494D01*
X12280880Y-9990641D01*
X12280871Y-9990645D01*
X12250000Y-10009686D01*
X12250000Y-9750000D01*
X14250000Y-9750000D01*
X14250000Y-10009687D01*
G37*
%TD.AperFunction*%
%TD*%
%TA.AperFunction,Conductor*%
%TO.N,Net-(D1-K)*%
G36*
X20393039Y-12019685D02*
G01*
X20438794Y-12072489D01*
X20450000Y-12124000D01*
X20450000Y-13149999D01*
X20626000Y-13149999D01*
X20693039Y-13169684D01*
X20738794Y-13222488D01*
X20750000Y-13273999D01*
X20750000Y-15375500D01*
X20730315Y-15442539D01*
X20677511Y-15488294D01*
X20626000Y-15499500D01*
X20024000Y-15499500D01*
X19956961Y-15479815D01*
X19911206Y-15427011D01*
X19900000Y-15375500D01*
X19900000Y-13273999D01*
X19919685Y-13206960D01*
X19972489Y-13161205D01*
X20024000Y-13149999D01*
X20050000Y-13149999D01*
X20050000Y-12124000D01*
X20052550Y-12115314D01*
X20051262Y-12106353D01*
X20062240Y-12082312D01*
X20069685Y-12056961D01*
X20076525Y-12051033D01*
X20080287Y-12042797D01*
X20102521Y-12028507D01*
X20122489Y-12011206D01*
X20133003Y-12008918D01*
X20139065Y-12005023D01*
X20174000Y-12000000D01*
X20326000Y-12000000D01*
X20393039Y-12019685D01*
G37*
%TD.AperFunction*%
%TD*%
%TA.AperFunction,Conductor*%
%TO.N,GND*%
G36*
X21293150Y-14123587D02*
G01*
X21297147Y-14123013D01*
X21301969Y-14124084D01*
X21304029Y-14124201D01*
X21310051Y-14125416D01*
X21310256Y-14125501D01*
X21325303Y-14128494D01*
X21325461Y-14128526D01*
X21356368Y-14144802D01*
X21387035Y-14160845D01*
X21387122Y-14160999D01*
X21387282Y-14161083D01*
X21404429Y-14191391D01*
X21421609Y-14221561D01*
X21421599Y-14221740D01*
X21421687Y-14221895D01*
X21423059Y-14246874D01*
X21425833Y-14250000D01*
X23699166Y-14250000D01*
X23706294Y-14241965D01*
X23765507Y-14204877D01*
X23803192Y-14200827D01*
X23803192Y-14200500D01*
X23806236Y-14200500D01*
X23806478Y-14200474D01*
X23806884Y-14200498D01*
X23806898Y-14200500D01*
X23806912Y-14200500D01*
X24000000Y-14200500D01*
X24000000Y-15499500D01*
X21279500Y-15499500D01*
X21212461Y-15479815D01*
X21166706Y-15427011D01*
X21155500Y-15375500D01*
X21155500Y-14650000D01*
X21425833Y-14650000D01*
X21435613Y-14731442D01*
X21435613Y-14731443D01*
X21491079Y-14872095D01*
X21582435Y-14992564D01*
X21702904Y-15083920D01*
X21843556Y-15139386D01*
X21931946Y-15150000D01*
X22362500Y-15150000D01*
X22762500Y-15150000D01*
X23193054Y-15150000D01*
X23281443Y-15139386D01*
X23422095Y-15083920D01*
X23542564Y-14992564D01*
X23633920Y-14872095D01*
X23689386Y-14731443D01*
X23689386Y-14731442D01*
X23699167Y-14650000D01*
X22762500Y-14650000D01*
X22762500Y-15150000D01*
X22362500Y-15150000D01*
X22362500Y-14650000D01*
X21425833Y-14650000D01*
X21155500Y-14650000D01*
X21155500Y-14245751D01*
X21161482Y-14225376D01*
X21162678Y-14204173D01*
X21171130Y-14192519D01*
X21175185Y-14178712D01*
X21191231Y-14164807D01*
X21203702Y-14147615D01*
X21217112Y-14142381D01*
X21227989Y-14132957D01*
X21249006Y-14129934D01*
X21268791Y-14122214D01*
X21293150Y-14123587D01*
G37*
%TD.AperFunction*%
%TD*%
%TA.AperFunction,Conductor*%
%TO.N,+5V*%
G36*
X18141786Y-6018907D02*
G01*
X18177750Y-6068407D01*
X18177750Y-6129593D01*
X18175693Y-6135319D01*
X18160614Y-6173556D01*
X18150833Y-6255000D01*
X19276000Y-6255000D01*
X19334191Y-6273907D01*
X19370155Y-6323407D01*
X19375000Y-6354000D01*
X19375000Y-6556000D01*
X19356093Y-6614191D01*
X19306593Y-6650155D01*
X19276000Y-6655000D01*
X18150833Y-6655000D01*
X18160614Y-6736443D01*
X18216080Y-6877095D01*
X18307435Y-6997564D01*
X18307438Y-6997567D01*
X18392445Y-7062030D01*
X18427388Y-7112257D01*
X18426134Y-7173429D01*
X18389164Y-7222182D01*
X18383022Y-7226127D01*
X18338891Y-7252226D01*
X18227227Y-7363890D01*
X18146845Y-7499810D01*
X18102790Y-7651447D01*
X18102788Y-7651453D01*
X18100000Y-7686894D01*
X18100000Y-7799999D01*
X18100001Y-7800000D01*
X18851000Y-7800000D01*
X18909191Y-7818907D01*
X18945155Y-7868407D01*
X18950000Y-7899000D01*
X18950000Y-7999999D01*
X18950001Y-8000000D01*
X19051000Y-8000000D01*
X19109191Y-8018907D01*
X19145155Y-8068407D01*
X19150000Y-8099000D01*
X19150000Y-8874999D01*
X19150001Y-8875000D01*
X19238106Y-8875000D01*
X19273546Y-8872211D01*
X19273552Y-8872209D01*
X19425189Y-8828154D01*
X19561112Y-8747770D01*
X19654642Y-8654240D01*
X19709158Y-8626462D01*
X19769591Y-8636033D01*
X19794646Y-8654236D01*
X19888580Y-8748170D01*
X20024610Y-8828618D01*
X20176373Y-8872709D01*
X20176376Y-8872709D01*
X20178620Y-8873361D01*
X20229225Y-8907752D01*
X20249951Y-8965320D01*
X20250000Y-8968430D01*
X20250000Y-10651000D01*
X20231093Y-10709191D01*
X20181593Y-10745155D01*
X20151000Y-10750000D01*
X19000000Y-10750000D01*
X19000000Y-12000000D01*
X19000000Y-13250000D01*
X19395500Y-13250000D01*
X19453691Y-13268907D01*
X19489655Y-13318407D01*
X19494500Y-13349000D01*
X19494500Y-15375502D01*
X19496050Y-15389920D01*
X19491772Y-15410282D01*
X19491772Y-15431093D01*
X19485621Y-15439558D01*
X19483470Y-15449798D01*
X19468039Y-15463757D01*
X19455808Y-15480593D01*
X19445856Y-15483826D01*
X19438097Y-15490846D01*
X19397617Y-15499500D01*
X19299000Y-15499500D01*
X19240809Y-15480593D01*
X19204845Y-15431093D01*
X19200000Y-15400500D01*
X19200000Y-14950001D01*
X19199999Y-14950000D01*
X18324000Y-14950000D01*
X18265809Y-14931093D01*
X18229845Y-14881593D01*
X18225000Y-14851000D01*
X18225000Y-14649000D01*
X18243907Y-14590809D01*
X18293407Y-14554845D01*
X18324000Y-14550000D01*
X19199999Y-14550000D01*
X19200000Y-14549999D01*
X19200000Y-14034363D01*
X19197100Y-13997510D01*
X19151280Y-13839799D01*
X19151280Y-13839798D01*
X19067685Y-13698447D01*
X18951552Y-13582314D01*
X18810200Y-13498719D01*
X18652489Y-13452899D01*
X18615637Y-13450000D01*
X18597814Y-13450000D01*
X18539623Y-13431093D01*
X18503659Y-13381593D01*
X18503659Y-13320407D01*
X18512600Y-13300605D01*
X18551281Y-13235197D01*
X18597100Y-13077489D01*
X18600000Y-13040636D01*
X18600000Y-12700001D01*
X18599999Y-12700000D01*
X17799000Y-12700000D01*
X17740809Y-12681093D01*
X17704845Y-12631593D01*
X17700000Y-12601000D01*
X17700000Y-12399000D01*
X17718907Y-12340809D01*
X17768407Y-12304845D01*
X17799000Y-12300000D01*
X18599999Y-12300000D01*
X18600000Y-12299999D01*
X18600000Y-11959363D01*
X18597100Y-11922510D01*
X18551280Y-11764799D01*
X18551280Y-11764798D01*
X18467685Y-11623447D01*
X18351552Y-11507314D01*
X18339185Y-11500000D01*
X18750000Y-11500000D01*
X18750000Y-8500000D01*
X18750000Y-8200001D01*
X18749999Y-8200000D01*
X18100001Y-8200000D01*
X18100000Y-8200001D01*
X18100000Y-8313105D01*
X18102788Y-8348546D01*
X18102790Y-8348552D01*
X18146790Y-8500000D01*
X17250000Y-8500000D01*
X17250000Y-7887047D01*
X17268907Y-7828856D01*
X17284169Y-7812228D01*
X17287441Y-7809391D01*
X17311347Y-7788678D01*
X17405567Y-7679944D01*
X17465338Y-7549067D01*
X17485023Y-7482028D01*
X17485024Y-7482024D01*
X17502009Y-7363890D01*
X17505500Y-7339613D01*
X17505500Y-6662003D01*
X17504226Y-6650155D01*
X17493947Y-6554544D01*
X17482741Y-6503033D01*
X17448613Y-6400496D01*
X17421649Y-6358540D01*
X17406095Y-6299367D01*
X17428293Y-6242350D01*
X17434931Y-6235014D01*
X17640950Y-6028996D01*
X17695466Y-6001219D01*
X17710953Y-6000000D01*
X18083595Y-6000000D01*
X18141786Y-6018907D01*
G37*
%TD.AperFunction*%
%TD*%
%TA.AperFunction,Conductor*%
%TO.N,+5V*%
G36*
X18146843Y-8500185D02*
G01*
X18146844Y-8500188D01*
X18227226Y-8636108D01*
X18227232Y-8636116D01*
X18338883Y-8747767D01*
X18338891Y-8747773D01*
X18474811Y-8828155D01*
X18474814Y-8828156D01*
X18626446Y-8872210D01*
X18626452Y-8872211D01*
X18661881Y-8874999D01*
X18661894Y-8875000D01*
X18750000Y-8875000D01*
X18750000Y-11500000D01*
X17883857Y-11500000D01*
X17992564Y-11417564D01*
X18083920Y-11297095D01*
X18139386Y-11156443D01*
X18150000Y-11068053D01*
X18150000Y-10637500D01*
X17574000Y-10637500D01*
X17506961Y-10617815D01*
X17461206Y-10565011D01*
X17450000Y-10513500D01*
X17450000Y-10437500D01*
X17374000Y-10437500D01*
X17306961Y-10417815D01*
X17261206Y-10365011D01*
X17250000Y-10313500D01*
X17250000Y-10237500D01*
X17650000Y-10237500D01*
X18150000Y-10237500D01*
X18150000Y-9806946D01*
X18139386Y-9718556D01*
X18083920Y-9577904D01*
X17992564Y-9457435D01*
X17872095Y-9366079D01*
X17731443Y-9310613D01*
X17650000Y-9300832D01*
X17650000Y-10237500D01*
X17250000Y-10237500D01*
X17250000Y-9434050D01*
X17253903Y-9403183D01*
X17254384Y-9401308D01*
X17297598Y-9252569D01*
X17300500Y-9215694D01*
X17300500Y-8500000D01*
X18146789Y-8500000D01*
X18146843Y-8500185D01*
G37*
%TD.AperFunction*%
%TD*%
%TA.AperFunction,Conductor*%
%TO.N,GND*%
G36*
X29442539Y-520185D02*
G01*
X29488294Y-572989D01*
X29499500Y-624500D01*
X29499500Y-7526000D01*
X29479815Y-7593039D01*
X29427011Y-7638794D01*
X29375500Y-7650000D01*
X29150000Y-7650000D01*
X29150000Y-11349999D01*
X29375500Y-11349999D01*
X29442539Y-11369684D01*
X29488294Y-11422488D01*
X29499500Y-11473999D01*
X29499500Y-15375500D01*
X29479815Y-15442539D01*
X29427011Y-15488294D01*
X29375500Y-15499500D01*
X24000000Y-15499500D01*
X24000000Y-14300500D01*
X25090686Y-14300500D01*
X25090694Y-14300500D01*
X25124443Y-14297844D01*
X26750000Y-14297844D01*
X26756401Y-14357372D01*
X26756403Y-14357379D01*
X26806645Y-14492086D01*
X26806649Y-14492093D01*
X26892809Y-14607187D01*
X26892812Y-14607190D01*
X27007906Y-14693350D01*
X27007913Y-14693354D01*
X27142620Y-14743596D01*
X27142627Y-14743598D01*
X27202155Y-14749999D01*
X27202172Y-14750000D01*
X27750000Y-14750000D01*
X28250000Y-14750000D01*
X28797828Y-14750000D01*
X28797844Y-14749999D01*
X28857372Y-14743598D01*
X28857379Y-14743596D01*
X28992086Y-14693354D01*
X28992093Y-14693350D01*
X29107187Y-14607190D01*
X29107190Y-14607187D01*
X29193350Y-14492093D01*
X29193354Y-14492086D01*
X29243596Y-14357379D01*
X29243598Y-14357372D01*
X29249999Y-14297844D01*
X29250000Y-14297827D01*
X29250000Y-13750000D01*
X28250000Y-13750000D01*
X28250000Y-14750000D01*
X27750000Y-14750000D01*
X27750000Y-13750000D01*
X26750000Y-13750000D01*
X26750000Y-14297844D01*
X25124443Y-14297844D01*
X25127569Y-14297598D01*
X25127571Y-14297597D01*
X25127573Y-14297597D01*
X25169191Y-14285505D01*
X25285398Y-14251744D01*
X25426865Y-14168081D01*
X25543081Y-14051865D01*
X25626744Y-13910398D01*
X25672598Y-13752569D01*
X25675500Y-13715694D01*
X25675500Y-13284306D01*
X25672598Y-13247431D01*
X25668396Y-13232969D01*
X25626745Y-13089606D01*
X25626744Y-13089603D01*
X25626744Y-13089602D01*
X25543081Y-12948135D01*
X25543079Y-12948133D01*
X25543076Y-12948129D01*
X25426870Y-12831923D01*
X25426861Y-12831916D01*
X25382334Y-12805583D01*
X25382332Y-12805582D01*
X25365760Y-12795781D01*
X25318078Y-12744711D01*
X25309582Y-12702155D01*
X26750000Y-12702155D01*
X26750000Y-13250000D01*
X27750000Y-13250000D01*
X28250000Y-13250000D01*
X29250000Y-13250000D01*
X29250000Y-12702172D01*
X29249999Y-12702155D01*
X29243598Y-12642627D01*
X29243596Y-12642620D01*
X29193354Y-12507913D01*
X29193350Y-12507906D01*
X29107190Y-12392812D01*
X29107187Y-12392809D01*
X28992093Y-12306649D01*
X28992086Y-12306645D01*
X28857379Y-12256403D01*
X28857372Y-12256401D01*
X28797844Y-12250000D01*
X28250000Y-12250000D01*
X28250000Y-13250000D01*
X27750000Y-13250000D01*
X27750000Y-12250000D01*
X27202155Y-12250000D01*
X27142627Y-12256401D01*
X27142620Y-12256403D01*
X27007913Y-12306645D01*
X27007906Y-12306649D01*
X26892812Y-12392809D01*
X26892809Y-12392812D01*
X26806649Y-12507906D01*
X26806645Y-12507913D01*
X26756403Y-12642620D01*
X26756401Y-12642627D01*
X26750000Y-12702155D01*
X25309582Y-12702155D01*
X25305199Y-12680198D01*
X25305498Y-12676007D01*
X25305500Y-12676000D01*
X25305500Y-11471986D01*
X25305500Y-11471980D01*
X25287841Y-11339543D01*
X25287841Y-11339541D01*
X25270816Y-11276832D01*
X25219069Y-11153636D01*
X25219068Y-11153635D01*
X25218714Y-11153038D01*
X25218553Y-11152407D01*
X25215758Y-11145753D01*
X25216749Y-11145336D01*
X25201449Y-11085335D01*
X25219829Y-11024691D01*
X25284814Y-10919334D01*
X25339999Y-10752797D01*
X25350500Y-10650009D01*
X25350500Y-10649986D01*
X27650001Y-10649986D01*
X27660494Y-10752697D01*
X27715641Y-10919119D01*
X27715643Y-10919124D01*
X27807684Y-11068345D01*
X27931654Y-11192315D01*
X28080875Y-11284356D01*
X28080880Y-11284358D01*
X28247302Y-11339505D01*
X28247309Y-11339506D01*
X28350019Y-11349999D01*
X28649999Y-11349999D01*
X28650000Y-11349998D01*
X28650000Y-9750000D01*
X27650001Y-9750000D01*
X27650001Y-10649986D01*
X25350500Y-10649986D01*
X25350499Y-9421291D01*
X25350499Y-8350013D01*
X27650000Y-8350013D01*
X27650000Y-9250000D01*
X28650000Y-9250000D01*
X28650000Y-7650000D01*
X28350028Y-7650000D01*
X28350012Y-7650001D01*
X28247302Y-7660494D01*
X28080880Y-7715641D01*
X28080875Y-7715643D01*
X27931654Y-7807684D01*
X27807684Y-7931654D01*
X27715643Y-8080875D01*
X27715641Y-8080880D01*
X27660494Y-8247302D01*
X27660493Y-8247309D01*
X27650000Y-8350013D01*
X25350499Y-8350013D01*
X25350499Y-8349998D01*
X25350498Y-8349981D01*
X25339999Y-8247203D01*
X25339998Y-8247200D01*
X25308711Y-8152783D01*
X25284814Y-8080666D01*
X25192712Y-7931344D01*
X25068656Y-7807288D01*
X24959258Y-7739811D01*
X24919336Y-7715187D01*
X24919331Y-7715185D01*
X24878503Y-7701656D01*
X24752797Y-7660001D01*
X24752795Y-7660000D01*
X24650010Y-7649500D01*
X23549998Y-7649500D01*
X23549980Y-7649501D01*
X23447203Y-7660000D01*
X23447200Y-7660001D01*
X23280668Y-7715185D01*
X23280663Y-7715187D01*
X23131342Y-7807289D01*
X23081165Y-7857466D01*
X23019842Y-7890950D01*
X22950150Y-7885965D01*
X22894217Y-7844094D01*
X22887379Y-7833951D01*
X22830472Y-7739815D01*
X22830470Y-7739813D01*
X22830469Y-7739811D01*
X22710188Y-7619530D01*
X22564604Y-7531521D01*
X22532150Y-7521408D01*
X22481361Y-7490704D01*
X22286819Y-7296162D01*
X22253334Y-7234839D01*
X22250500Y-7208481D01*
X22250500Y-3871080D01*
X22221659Y-3726093D01*
X22221658Y-3726092D01*
X22221658Y-3726088D01*
X22204889Y-3685604D01*
X22165086Y-3589510D01*
X22165085Y-3589508D01*
X22132186Y-3540271D01*
X22132185Y-3540269D01*
X22082956Y-3466590D01*
X22082952Y-3466585D01*
X21130920Y-2514552D01*
X21045666Y-2429298D01*
X23299500Y-2429298D01*
X23299500Y-2860701D01*
X23302401Y-2897567D01*
X23302402Y-2897573D01*
X23348254Y-3055393D01*
X23348255Y-3055396D01*
X23431917Y-3196862D01*
X23436702Y-3203031D01*
X23434256Y-3204927D01*
X23460857Y-3253642D01*
X23455873Y-3323334D01*
X23435069Y-3355703D01*
X23436702Y-3356969D01*
X23431917Y-3363137D01*
X23348255Y-3504603D01*
X23348254Y-3504606D01*
X23302402Y-3662426D01*
X23302401Y-3662432D01*
X23299500Y-3699298D01*
X23299500Y-4130701D01*
X23302401Y-4167567D01*
X23302402Y-4167573D01*
X23348254Y-4325393D01*
X23348255Y-4325396D01*
X23431917Y-4466862D01*
X23436702Y-4473031D01*
X23434256Y-4474927D01*
X23460857Y-4523642D01*
X23455873Y-4593334D01*
X23435069Y-4625703D01*
X23436702Y-4626969D01*
X23431917Y-4633137D01*
X23348255Y-4774603D01*
X23348254Y-4774606D01*
X23302402Y-4932426D01*
X23302401Y-4932432D01*
X23299500Y-4969298D01*
X23299500Y-5400701D01*
X23302401Y-5437567D01*
X23302402Y-5437573D01*
X23348254Y-5595393D01*
X23348255Y-5595396D01*
X23431917Y-5736862D01*
X23436702Y-5743031D01*
X23434256Y-5744927D01*
X23460857Y-5793642D01*
X23455873Y-5863334D01*
X23435069Y-5895703D01*
X23436702Y-5896969D01*
X23431917Y-5903137D01*
X23348255Y-6044603D01*
X23348254Y-6044606D01*
X23302402Y-6202426D01*
X23302401Y-6202432D01*
X23299500Y-6239298D01*
X23299500Y-6670701D01*
X23302401Y-6707567D01*
X23302402Y-6707573D01*
X23348254Y-6865393D01*
X23348255Y-6865396D01*
X23431917Y-7006862D01*
X23431923Y-7006870D01*
X23548129Y-7123076D01*
X23548133Y-7123079D01*
X23548135Y-7123081D01*
X23689602Y-7206744D01*
X23695581Y-7208481D01*
X23847426Y-7252597D01*
X23847429Y-7252597D01*
X23847431Y-7252598D01*
X23884306Y-7255500D01*
X23884314Y-7255500D01*
X25365686Y-7255500D01*
X25365694Y-7255500D01*
X25402569Y-7252598D01*
X25402571Y-7252597D01*
X25402573Y-7252597D01*
X25463695Y-7234839D01*
X25560398Y-7206744D01*
X25701865Y-7123081D01*
X25818081Y-7006865D01*
X25901744Y-6865398D01*
X25947598Y-6707569D01*
X25950500Y-6670694D01*
X25950500Y-6239306D01*
X25947598Y-6202431D01*
X25901744Y-6044602D01*
X25818081Y-5903135D01*
X25818078Y-5903132D01*
X25813298Y-5896969D01*
X25815750Y-5895066D01*
X25789155Y-5846421D01*
X25794104Y-5776726D01*
X25814940Y-5744304D01*
X25813298Y-5743031D01*
X25818075Y-5736870D01*
X25818081Y-5736865D01*
X25901744Y-5595398D01*
X25947598Y-5437569D01*
X25950500Y-5400694D01*
X25950500Y-4969306D01*
X25947598Y-4932431D01*
X25947157Y-4930914D01*
X25901745Y-4774606D01*
X25901744Y-4774603D01*
X25901744Y-4774602D01*
X25818081Y-4633135D01*
X25818078Y-4633132D01*
X25813298Y-4626969D01*
X25815750Y-4625066D01*
X25789155Y-4576421D01*
X25794104Y-4506726D01*
X25814940Y-4474304D01*
X25813298Y-4473031D01*
X25818075Y-4466870D01*
X25818081Y-4466865D01*
X25901744Y-4325398D01*
X25919955Y-4262713D01*
X25957560Y-4203830D01*
X26021032Y-4174623D01*
X26090219Y-4184368D01*
X26099663Y-4189953D01*
X26099886Y-4189546D01*
X26107671Y-4193797D01*
X26242517Y-4244091D01*
X26242516Y-4244091D01*
X26249444Y-4244835D01*
X26302127Y-4250500D01*
X27397872Y-4250499D01*
X27457483Y-4244091D01*
X27457489Y-4244088D01*
X27465025Y-4242308D01*
X27465321Y-4243561D01*
X27527063Y-4239142D01*
X27540655Y-4243132D01*
X27542627Y-4243598D01*
X27602155Y-4249999D01*
X27602172Y-4250000D01*
X27900000Y-4250000D01*
X28400000Y-4250000D01*
X28697828Y-4250000D01*
X28697844Y-4249999D01*
X28757372Y-4243598D01*
X28757379Y-4243596D01*
X28892086Y-4193354D01*
X28892093Y-4193350D01*
X29007187Y-4107190D01*
X29007190Y-4107187D01*
X29093350Y-3992093D01*
X29093354Y-3992086D01*
X29143596Y-3857379D01*
X29143598Y-3857372D01*
X29149999Y-3797844D01*
X29150000Y-3797827D01*
X29150000Y-3250000D01*
X28400000Y-3250000D01*
X28400000Y-4250000D01*
X27900000Y-4250000D01*
X27900000Y-2750000D01*
X28400000Y-2750000D01*
X29150000Y-2750000D01*
X29150000Y-2202172D01*
X29149999Y-2202155D01*
X29143598Y-2142627D01*
X29143596Y-2142620D01*
X29093354Y-2007913D01*
X29093350Y-2007906D01*
X29007190Y-1892812D01*
X29007187Y-1892809D01*
X28892093Y-1806649D01*
X28892086Y-1806645D01*
X28757379Y-1756403D01*
X28757372Y-1756401D01*
X28697844Y-1750000D01*
X28400000Y-1750000D01*
X28400000Y-2750000D01*
X27900000Y-2750000D01*
X27900000Y-1750000D01*
X27602155Y-1750000D01*
X27542624Y-1756401D01*
X27535073Y-1758186D01*
X27534684Y-1756542D01*
X27474348Y-1760853D01*
X27457614Y-1755939D01*
X27457483Y-1755908D01*
X27397883Y-1749501D01*
X27397881Y-1749500D01*
X27397873Y-1749500D01*
X27397864Y-1749500D01*
X26302129Y-1749500D01*
X26302123Y-1749501D01*
X26242516Y-1755908D01*
X26107671Y-1806202D01*
X26107664Y-1806206D01*
X25992457Y-1892451D01*
X25992452Y-1892455D01*
X25990692Y-1894808D01*
X25988337Y-1896570D01*
X25986759Y-1898148D01*
X25985136Y-1901703D01*
X25959325Y-1918290D01*
X25934760Y-1936681D01*
X25929127Y-1937697D01*
X25926358Y-1939477D01*
X25891423Y-1944500D01*
X25680969Y-1944500D01*
X25617848Y-1927232D01*
X25566001Y-1896570D01*
X25560398Y-1893256D01*
X25560397Y-1893255D01*
X25560396Y-1893255D01*
X25560393Y-1893254D01*
X25402573Y-1847402D01*
X25402567Y-1847401D01*
X25365701Y-1844500D01*
X25365694Y-1844500D01*
X23884306Y-1844500D01*
X23884298Y-1844500D01*
X23847432Y-1847401D01*
X23847426Y-1847402D01*
X23689606Y-1893254D01*
X23689603Y-1893255D01*
X23548137Y-1976917D01*
X23548129Y-1976923D01*
X23431923Y-2093129D01*
X23431917Y-2093137D01*
X23348255Y-2234603D01*
X23348254Y-2234606D01*
X23302402Y-2392426D01*
X23302401Y-2392432D01*
X23299500Y-2429298D01*
X21045666Y-2429298D01*
X21005919Y-2389551D01*
X21005915Y-2389548D01*
X20883001Y-2307419D01*
X20882988Y-2307412D01*
X20740786Y-2248511D01*
X20741107Y-2247734D01*
X20735423Y-2244438D01*
X20726273Y-2242724D01*
X20701732Y-2224902D01*
X20697418Y-2222400D01*
X20696121Y-2221176D01*
X20614668Y-2139723D01*
X20598017Y-2128597D01*
X20590454Y-2121460D01*
X20584019Y-2110447D01*
X20573211Y-2099026D01*
X20572861Y-2099298D01*
X20570103Y-2095743D01*
X20568824Y-2094391D01*
X20568083Y-2093138D01*
X20568076Y-2093129D01*
X20451870Y-1976923D01*
X20451862Y-1976917D01*
X20373681Y-1930681D01*
X20310398Y-1893256D01*
X20310397Y-1893255D01*
X20310396Y-1893255D01*
X20310393Y-1893254D01*
X20152573Y-1847402D01*
X20152567Y-1847401D01*
X20115701Y-1844500D01*
X20115694Y-1844500D01*
X18667117Y-1844500D01*
X18652648Y-1840802D01*
X18640689Y-1841651D01*
X18617654Y-1831860D01*
X18607628Y-1829298D01*
X18602798Y-1826657D01*
X18531811Y-1779225D01*
X18466809Y-1752300D01*
X18460944Y-1749093D01*
X18440788Y-1728914D01*
X18418577Y-1711015D01*
X18414315Y-1704443D01*
X18405474Y-1689818D01*
X18405473Y-1689817D01*
X18405472Y-1689815D01*
X18285185Y-1569528D01*
X18139606Y-1481522D01*
X17977196Y-1430914D01*
X17977194Y-1430913D01*
X17977192Y-1430913D01*
X17927778Y-1426423D01*
X17906616Y-1424500D01*
X17393384Y-1424500D01*
X17374145Y-1426248D01*
X17322807Y-1430913D01*
X17160393Y-1481522D01*
X17014811Y-1569530D01*
X17014810Y-1569531D01*
X16912327Y-1672015D01*
X16851004Y-1705500D01*
X16781312Y-1700516D01*
X16736965Y-1672015D01*
X16634877Y-1569927D01*
X16489395Y-1481980D01*
X16489396Y-1481980D01*
X16327105Y-1431409D01*
X16327106Y-1431409D01*
X16256572Y-1425000D01*
X16250000Y-1425000D01*
X16250000Y-2276000D01*
X16230315Y-2343039D01*
X16177511Y-2388794D01*
X16126000Y-2400000D01*
X16000000Y-2400000D01*
X16000000Y-2526000D01*
X15980315Y-2593039D01*
X15927511Y-2638794D01*
X15876000Y-2650000D01*
X15100001Y-2650000D01*
X15100001Y-2731575D01*
X15101882Y-2752283D01*
X15088342Y-2820828D01*
X15039894Y-2871172D01*
X14978409Y-2887500D01*
X14975038Y-2887500D01*
X14975012Y-2887501D01*
X14872302Y-2897994D01*
X14705880Y-2953141D01*
X14705875Y-2953143D01*
X14556654Y-3045184D01*
X14432684Y-3169154D01*
X14340643Y-3318375D01*
X14340640Y-3318382D01*
X14339661Y-3321339D01*
X14338439Y-3323102D01*
X14337592Y-3324921D01*
X14337281Y-3324776D01*
X14299887Y-3378783D01*
X14235370Y-3405604D01*
X14166595Y-3393288D01*
X14157806Y-3388449D01*
X14064395Y-3331980D01*
X14064396Y-3331980D01*
X13902105Y-3281409D01*
X13902106Y-3281409D01*
X13831572Y-3275000D01*
X13750000Y-3275000D01*
X13750000Y-4051000D01*
X13730315Y-4118039D01*
X13677511Y-4163794D01*
X13626000Y-4175000D01*
X13500000Y-4175000D01*
X13500000Y-4301000D01*
X13480315Y-4368039D01*
X13427511Y-4413794D01*
X13376000Y-4425000D01*
X12525001Y-4425000D01*
X12525001Y-4431582D01*
X12531408Y-4502102D01*
X12531409Y-4502107D01*
X12581981Y-4664396D01*
X12669927Y-4809877D01*
X12772015Y-4911965D01*
X12805500Y-4973288D01*
X12800516Y-5042980D01*
X12772015Y-5087327D01*
X12669531Y-5189810D01*
X12669530Y-5189811D01*
X12581522Y-5335393D01*
X12581522Y-5335394D01*
X12530914Y-5497804D01*
X12530914Y-5497806D01*
X12528167Y-5528028D01*
X12518879Y-5551534D01*
X12513508Y-5576229D01*
X12504224Y-5588630D01*
X12502494Y-5593010D01*
X12492357Y-5604483D01*
X12466147Y-5630693D01*
X12425922Y-5657572D01*
X12397629Y-5669292D01*
X12397624Y-5669294D01*
X12274706Y-5751425D01*
X12274703Y-5751428D01*
X11210802Y-6815328D01*
X11210802Y-6815329D01*
X11210799Y-6815332D01*
X11210798Y-6815334D01*
X11177347Y-6865398D01*
X11128666Y-6938255D01*
X11116946Y-6966549D01*
X11112314Y-6973480D01*
X11111218Y-6978520D01*
X11090067Y-7006774D01*
X11045743Y-7051098D01*
X10994953Y-7081802D01*
X10916890Y-7106127D01*
X10835393Y-7131522D01*
X10689811Y-7219530D01*
X10689810Y-7219531D01*
X10587681Y-7321661D01*
X10526358Y-7355146D01*
X10456666Y-7350162D01*
X10412319Y-7321661D01*
X10310188Y-7219530D01*
X10164606Y-7131522D01*
X10002196Y-7080914D01*
X10002194Y-7080913D01*
X10002192Y-7080913D01*
X9952778Y-7076423D01*
X9931616Y-7074500D01*
X9418384Y-7074500D01*
X9399145Y-7076248D01*
X9347807Y-7080913D01*
X9185393Y-7131522D01*
X9039811Y-7219530D01*
X8919530Y-7339811D01*
X8831522Y-7485393D01*
X8780913Y-7647807D01*
X8776020Y-7701656D01*
X8774500Y-7718384D01*
X8774500Y-8381616D01*
X8776423Y-8402778D01*
X8780913Y-8452192D01*
X8780913Y-8452194D01*
X8780914Y-8452196D01*
X8831522Y-8614606D01*
X8841805Y-8631616D01*
X8884856Y-8702832D01*
X8902691Y-8770387D01*
X8900355Y-8791172D01*
X8874500Y-8921153D01*
X8874500Y-9578846D01*
X8905263Y-9733500D01*
X8905368Y-9733846D01*
X8905369Y-9734035D01*
X8906451Y-9739472D01*
X8905419Y-9739677D01*
X8905990Y-9803713D01*
X8892824Y-9833988D01*
X8831522Y-9935393D01*
X8780913Y-10097807D01*
X8774500Y-10168386D01*
X8774500Y-10358480D01*
X8754815Y-10425519D01*
X8738181Y-10446161D01*
X8705888Y-10478453D01*
X8705887Y-10478454D01*
X8629222Y-10593192D01*
X8576421Y-10720667D01*
X8576418Y-10720679D01*
X8556250Y-10822067D01*
X8556249Y-10822076D01*
X8554471Y-10831018D01*
X8549500Y-10856007D01*
X8549500Y-10958403D01*
X8549348Y-10961474D01*
X8546858Y-10968624D01*
X8540062Y-11002793D01*
X8528341Y-11031090D01*
X8528340Y-11031093D01*
X8503386Y-11156541D01*
X8471000Y-11218452D01*
X8410284Y-11253026D01*
X8395029Y-11255638D01*
X8392519Y-11255907D01*
X8257671Y-11306202D01*
X8257664Y-11306206D01*
X8142455Y-11392452D01*
X8142452Y-11392455D01*
X8056206Y-11507664D01*
X8056202Y-11507671D01*
X8005908Y-11642517D01*
X7999501Y-11702116D01*
X7999501Y-11702123D01*
X7999500Y-11702135D01*
X7999500Y-13297870D01*
X7999501Y-13297876D01*
X8005908Y-13357483D01*
X8056202Y-13492328D01*
X8056206Y-13492335D01*
X8142452Y-13607544D01*
X8142455Y-13607547D01*
X8257664Y-13693793D01*
X8257671Y-13693797D01*
X8392517Y-13744091D01*
X8392516Y-13744091D01*
X8399444Y-13744835D01*
X8452127Y-13750500D01*
X10047872Y-13750499D01*
X10107483Y-13744091D01*
X10242331Y-13693796D01*
X10357546Y-13607546D01*
X10381900Y-13575013D01*
X11850000Y-13575013D01*
X11850000Y-13700000D01*
X13000000Y-13700000D01*
X13000000Y-12875000D01*
X12550028Y-12875000D01*
X12550012Y-12875001D01*
X12447302Y-12885494D01*
X12280880Y-12940641D01*
X12280875Y-12940643D01*
X12131654Y-13032684D01*
X12007684Y-13156654D01*
X11915643Y-13305875D01*
X11915641Y-13305880D01*
X11860494Y-13472302D01*
X11860493Y-13472309D01*
X11850000Y-13575013D01*
X10381900Y-13575013D01*
X10443796Y-13492331D01*
X10494091Y-13357483D01*
X10500500Y-13297873D01*
X10500499Y-11702128D01*
X10494091Y-11642517D01*
X10443796Y-11507669D01*
X10375122Y-11415932D01*
X10362850Y-11383028D01*
X10350708Y-11350475D01*
X10350708Y-11350471D01*
X10361263Y-11301953D01*
X10365559Y-11282202D01*
X10365560Y-11282199D01*
X10365561Y-11282198D01*
X10386709Y-11253947D01*
X10412320Y-11228337D01*
X10473644Y-11194853D01*
X10543336Y-11199839D01*
X10587681Y-11228339D01*
X10689811Y-11330469D01*
X10689813Y-11330470D01*
X10689815Y-11330472D01*
X10835394Y-11418478D01*
X10997804Y-11469086D01*
X11068384Y-11475500D01*
X11362770Y-11475500D01*
X11387259Y-11482691D01*
X11412578Y-11485943D01*
X11423313Y-11493277D01*
X11429809Y-11495185D01*
X11442553Y-11504576D01*
X11446659Y-11508027D01*
X11521584Y-11582952D01*
X11585263Y-11625500D01*
X11644505Y-11665084D01*
X11644506Y-11665084D01*
X11644507Y-11665085D01*
X11733954Y-11702135D01*
X11781087Y-11721658D01*
X11781091Y-11721658D01*
X11781092Y-11721659D01*
X11932057Y-11751689D01*
X11931753Y-11753213D01*
X11989480Y-11776515D01*
X12001847Y-11788882D01*
X12002181Y-11788549D01*
X12007288Y-11793656D01*
X12131344Y-11917712D01*
X12280666Y-12009814D01*
X12447203Y-12064999D01*
X12549991Y-12075500D01*
X13950008Y-12075499D01*
X14052797Y-12064999D01*
X14219334Y-12009814D01*
X14368656Y-11917712D01*
X14492712Y-11793656D01*
X14584814Y-11644334D01*
X14632642Y-11500000D01*
X14934639Y-11500000D01*
X14942719Y-11514797D01*
X14942261Y-11521201D01*
X14944756Y-11527118D01*
X14939799Y-11555626D01*
X14937735Y-11584489D01*
X14933150Y-11593862D01*
X14932787Y-11595955D01*
X14931378Y-11597487D01*
X14927092Y-11606252D01*
X14865643Y-11705875D01*
X14865641Y-11705880D01*
X14810494Y-11872302D01*
X14810493Y-11872309D01*
X14800000Y-11975013D01*
X14800000Y-12250000D01*
X15676000Y-12250000D01*
X15743039Y-12269685D01*
X15788794Y-12322489D01*
X15800000Y-12374000D01*
X15800000Y-12626000D01*
X15780315Y-12693039D01*
X15727511Y-12738794D01*
X15676000Y-12750000D01*
X14800001Y-12750000D01*
X14800001Y-13024986D01*
X14810494Y-13127697D01*
X14839694Y-13215816D01*
X14840005Y-13224865D01*
X14844048Y-13232969D01*
X14841187Y-13259235D01*
X14842096Y-13285644D01*
X14837464Y-13293427D01*
X14836484Y-13302428D01*
X14819878Y-13322976D01*
X14806364Y-13345686D01*
X14797098Y-13351166D01*
X14792569Y-13356772D01*
X14760987Y-13372528D01*
X14739434Y-13379669D01*
X14669606Y-13382067D01*
X14609565Y-13346333D01*
X14589056Y-13311652D01*
X14587408Y-13312421D01*
X14584356Y-13305875D01*
X14492315Y-13156654D01*
X14368345Y-13032684D01*
X14219124Y-12940643D01*
X14219119Y-12940641D01*
X14052697Y-12885494D01*
X14052690Y-12885493D01*
X13949986Y-12875000D01*
X13500000Y-12875000D01*
X13500000Y-15024999D01*
X13949972Y-15024999D01*
X13949986Y-15024998D01*
X14059431Y-15013818D01*
X14059633Y-15015795D01*
X14119696Y-15020280D01*
X14175499Y-15062326D01*
X14199711Y-15127866D01*
X14200000Y-15136325D01*
X14200001Y-15375499D01*
X14180317Y-15442539D01*
X14127513Y-15488294D01*
X14076001Y-15499500D01*
X624500Y-15499500D01*
X557461Y-15479815D01*
X511706Y-15427011D01*
X500500Y-15375500D01*
X500500Y-14923012D01*
X1201786Y-14923012D01*
X5683775Y-14923012D01*
X5683775Y-14324986D01*
X11850001Y-14324986D01*
X11860494Y-14427697D01*
X11915641Y-14594119D01*
X11915643Y-14594124D01*
X12007684Y-14743345D01*
X12131654Y-14867315D01*
X12280875Y-14959356D01*
X12280880Y-14959358D01*
X12447302Y-15014505D01*
X12447309Y-15014506D01*
X12550019Y-15024999D01*
X12999999Y-15024999D01*
X13000000Y-15024998D01*
X13000000Y-14200000D01*
X11850001Y-14200000D01*
X11850001Y-14324986D01*
X5683775Y-14324986D01*
X5683775Y-3918427D01*
X12525000Y-3918427D01*
X12525000Y-3925000D01*
X13250000Y-3925000D01*
X13250000Y-3275000D01*
X13249999Y-3274999D01*
X13168417Y-3275000D01*
X13097897Y-3281408D01*
X13097892Y-3281409D01*
X12935603Y-3331981D01*
X12790122Y-3419927D01*
X12669927Y-3540122D01*
X12581980Y-3685604D01*
X12531409Y-3847893D01*
X12525000Y-3918427D01*
X5683775Y-3918427D01*
X5683775Y-2445113D01*
X1201786Y-2445113D01*
X1201786Y-14923012D01*
X500500Y-14923012D01*
X500500Y-2068427D01*
X15100000Y-2068427D01*
X15100000Y-2150000D01*
X15750000Y-2150000D01*
X15750000Y-1425000D01*
X15749999Y-1424999D01*
X15743436Y-1425000D01*
X15743417Y-1425001D01*
X15672897Y-1431408D01*
X15672892Y-1431409D01*
X15510603Y-1481981D01*
X15365122Y-1569927D01*
X15244927Y-1690122D01*
X15156980Y-1835604D01*
X15106409Y-1997893D01*
X15100000Y-2068427D01*
X500500Y-2068427D01*
X500500Y-2064925D01*
X1161516Y-2064925D01*
X6732468Y-2064925D01*
X6732468Y-871591D01*
X1161516Y-871591D01*
X1161516Y-2064925D01*
X500500Y-2064925D01*
X500500Y-624500D01*
X520185Y-557461D01*
X572989Y-511706D01*
X624500Y-500500D01*
X29375500Y-500500D01*
X29442539Y-520185D01*
G37*
%TD.AperFunction*%
%TA.AperFunction,Conductor*%
G36*
X16829156Y-13410236D02*
G01*
X16855243Y-13440341D01*
X16857288Y-13443656D01*
X16981344Y-13567712D01*
X17108826Y-13646343D01*
X17111628Y-13648792D01*
X17113569Y-13649420D01*
X17121469Y-13657394D01*
X17139607Y-13673247D01*
X17143455Y-13677940D01*
X17155886Y-13696543D01*
X17171603Y-13712260D01*
X17175479Y-13716986D01*
X17186836Y-13743751D01*
X17200766Y-13769262D01*
X17200421Y-13775768D01*
X17202771Y-13781305D01*
X17198949Y-13803582D01*
X17197306Y-13834624D01*
X17160001Y-13947203D01*
X17160000Y-13947204D01*
X17149500Y-14049983D01*
X17149500Y-14049991D01*
X17149500Y-14749999D01*
X17149501Y-15375500D01*
X17129816Y-15442539D01*
X17077013Y-15488294D01*
X17025501Y-15499500D01*
X16474000Y-15499500D01*
X16406961Y-15479815D01*
X16361206Y-15427011D01*
X16350000Y-15375500D01*
X16350000Y-15000000D01*
X15399000Y-15000000D01*
X15331961Y-14980315D01*
X15286206Y-14927511D01*
X15275000Y-14876000D01*
X15275000Y-14624000D01*
X15294685Y-14556961D01*
X15347489Y-14511206D01*
X15399000Y-14500000D01*
X16349999Y-14500000D01*
X16349999Y-14050028D01*
X16349998Y-14050013D01*
X16339506Y-13947304D01*
X16295464Y-13814397D01*
X16293062Y-13744568D01*
X16328793Y-13684526D01*
X16363355Y-13664093D01*
X16362572Y-13662413D01*
X16369115Y-13659361D01*
X16518345Y-13567315D01*
X16642318Y-13443342D01*
X16644165Y-13440348D01*
X16645969Y-13438724D01*
X16646798Y-13437677D01*
X16646976Y-13437818D01*
X16696110Y-13393621D01*
X16765073Y-13382396D01*
X16829156Y-13410236D01*
G37*
%TD.AperFunction*%
%TA.AperFunction,Conductor*%
G36*
X16592539Y-9820185D02*
G01*
X16638294Y-9872989D01*
X16649500Y-9924500D01*
X16649500Y-11090701D01*
X16652401Y-11127567D01*
X16652402Y-11127573D01*
X16699856Y-11290908D01*
X16699784Y-11316052D01*
X16703824Y-11340875D01*
X16699686Y-11350397D01*
X16699657Y-11360777D01*
X16686001Y-11381892D01*
X16675980Y-11404957D01*
X16667352Y-11410730D01*
X16661715Y-11419447D01*
X16638810Y-11429828D01*
X16617911Y-11443813D01*
X16607532Y-11444005D01*
X16598076Y-11448291D01*
X16573192Y-11444640D01*
X16548054Y-11445106D01*
X16533621Y-11438835D01*
X16528947Y-11438150D01*
X16515683Y-11431042D01*
X16500000Y-11421368D01*
X16500000Y-9800500D01*
X16525500Y-9800500D01*
X16592539Y-9820185D01*
G37*
%TD.AperFunction*%
%TA.AperFunction,Conductor*%
G36*
X16687951Y-5000681D02*
G01*
X16661023Y-5015384D01*
X16635205Y-5031977D01*
X16629004Y-5032868D01*
X16626628Y-5034166D01*
X16600270Y-5037000D01*
X16587230Y-5037000D01*
X16520191Y-5017315D01*
X16499549Y-5000681D01*
X16443657Y-4944789D01*
X16443656Y-4944788D01*
X16440342Y-4942743D01*
X16438546Y-4940748D01*
X16437989Y-4940307D01*
X16438064Y-4940211D01*
X16393618Y-4890797D01*
X16382397Y-4821834D01*
X16410240Y-4757752D01*
X16419187Y-4750000D01*
X16938632Y-4750000D01*
X16687951Y-5000681D01*
G37*
%TD.AperFunction*%
%TA.AperFunction,Conductor*%
G36*
X16250000Y-4137500D02*
G01*
X15624000Y-4137500D01*
X15556961Y-4117815D01*
X15511206Y-4065011D01*
X15500000Y-4013500D01*
X15500000Y-3761500D01*
X15519685Y-3694461D01*
X15572489Y-3648706D01*
X15624000Y-3637500D01*
X16250000Y-3637500D01*
X16250000Y-4137500D01*
G37*
%TD.AperFunction*%
%TD*%
M02*
