%TF.GenerationSoftware,KiCad,Pcbnew,9.0.1*%
%TF.CreationDate,2025-06-02T23:11:02-07:00*%
%TF.ProjectId,vmon,766d6f6e-2e6b-4696-9361-645f70636258,rev?*%
%TF.SameCoordinates,PXe4e1c0PY121eac0*%
%TF.FileFunction,Legend,Top*%
%TF.FilePolarity,Positive*%
%FSLAX46Y46*%
G04 Gerber Fmt 4.6, Leading zero omitted, Abs format (unit mm)*
G04 Created by KiCad (PCBNEW 9.0.1) date 2025-06-02 23:11:02*
%MOMM*%
%LPD*%
G01*
G04 APERTURE LIST*
%ADD10C,0.150000*%
%ADD11C,0.120000*%
G04 APERTURE END LIST*
D10*
X8033333Y-8554819D02*
X7700000Y-8078628D01*
X7461905Y-8554819D02*
X7461905Y-7554819D01*
X7461905Y-7554819D02*
X7842857Y-7554819D01*
X7842857Y-7554819D02*
X7938095Y-7602438D01*
X7938095Y-7602438D02*
X7985714Y-7650057D01*
X7985714Y-7650057D02*
X8033333Y-7745295D01*
X8033333Y-7745295D02*
X8033333Y-7888152D01*
X8033333Y-7888152D02*
X7985714Y-7983390D01*
X7985714Y-7983390D02*
X7938095Y-8031009D01*
X7938095Y-8031009D02*
X7842857Y-8078628D01*
X7842857Y-8078628D02*
X7461905Y-8078628D01*
X8985714Y-8554819D02*
X8414286Y-8554819D01*
X8700000Y-8554819D02*
X8700000Y-7554819D01*
X8700000Y-7554819D02*
X8604762Y-7697676D01*
X8604762Y-7697676D02*
X8509524Y-7792914D01*
X8509524Y-7792914D02*
X8414286Y-7840533D01*
X20059580Y-15116666D02*
X20107200Y-15164285D01*
X20107200Y-15164285D02*
X20154819Y-15307142D01*
X20154819Y-15307142D02*
X20154819Y-15402380D01*
X20154819Y-15402380D02*
X20107200Y-15545237D01*
X20107200Y-15545237D02*
X20011961Y-15640475D01*
X20011961Y-15640475D02*
X19916723Y-15688094D01*
X19916723Y-15688094D02*
X19726247Y-15735713D01*
X19726247Y-15735713D02*
X19583390Y-15735713D01*
X19583390Y-15735713D02*
X19392914Y-15688094D01*
X19392914Y-15688094D02*
X19297676Y-15640475D01*
X19297676Y-15640475D02*
X19202438Y-15545237D01*
X19202438Y-15545237D02*
X19154819Y-15402380D01*
X19154819Y-15402380D02*
X19154819Y-15307142D01*
X19154819Y-15307142D02*
X19202438Y-15164285D01*
X19202438Y-15164285D02*
X19250057Y-15116666D01*
X19154819Y-14211904D02*
X19154819Y-14688094D01*
X19154819Y-14688094D02*
X19631009Y-14735713D01*
X19631009Y-14735713D02*
X19583390Y-14688094D01*
X19583390Y-14688094D02*
X19535771Y-14592856D01*
X19535771Y-14592856D02*
X19535771Y-14354761D01*
X19535771Y-14354761D02*
X19583390Y-14259523D01*
X19583390Y-14259523D02*
X19631009Y-14211904D01*
X19631009Y-14211904D02*
X19726247Y-14164285D01*
X19726247Y-14164285D02*
X19964342Y-14164285D01*
X19964342Y-14164285D02*
X20059580Y-14211904D01*
X20059580Y-14211904D02*
X20107200Y-14259523D01*
X20107200Y-14259523D02*
X20154819Y-14354761D01*
X20154819Y-14354761D02*
X20154819Y-14592856D01*
X20154819Y-14592856D02*
X20107200Y-14688094D01*
X20107200Y-14688094D02*
X20059580Y-14735713D01*
X17133333Y-4254819D02*
X16800000Y-3778628D01*
X16561905Y-4254819D02*
X16561905Y-3254819D01*
X16561905Y-3254819D02*
X16942857Y-3254819D01*
X16942857Y-3254819D02*
X17038095Y-3302438D01*
X17038095Y-3302438D02*
X17085714Y-3350057D01*
X17085714Y-3350057D02*
X17133333Y-3445295D01*
X17133333Y-3445295D02*
X17133333Y-3588152D01*
X17133333Y-3588152D02*
X17085714Y-3683390D01*
X17085714Y-3683390D02*
X17038095Y-3731009D01*
X17038095Y-3731009D02*
X16942857Y-3778628D01*
X16942857Y-3778628D02*
X16561905Y-3778628D01*
X18038095Y-3254819D02*
X17561905Y-3254819D01*
X17561905Y-3254819D02*
X17514286Y-3731009D01*
X17514286Y-3731009D02*
X17561905Y-3683390D01*
X17561905Y-3683390D02*
X17657143Y-3635771D01*
X17657143Y-3635771D02*
X17895238Y-3635771D01*
X17895238Y-3635771D02*
X17990476Y-3683390D01*
X17990476Y-3683390D02*
X18038095Y-3731009D01*
X18038095Y-3731009D02*
X18085714Y-3826247D01*
X18085714Y-3826247D02*
X18085714Y-4064342D01*
X18085714Y-4064342D02*
X18038095Y-4159580D01*
X18038095Y-4159580D02*
X17990476Y-4207200D01*
X17990476Y-4207200D02*
X17895238Y-4254819D01*
X17895238Y-4254819D02*
X17657143Y-4254819D01*
X17657143Y-4254819D02*
X17561905Y-4207200D01*
X17561905Y-4207200D02*
X17514286Y-4159580D01*
X27261905Y-7654819D02*
X27261905Y-6654819D01*
X27261905Y-6654819D02*
X27500000Y-6654819D01*
X27500000Y-6654819D02*
X27642857Y-6702438D01*
X27642857Y-6702438D02*
X27738095Y-6797676D01*
X27738095Y-6797676D02*
X27785714Y-6892914D01*
X27785714Y-6892914D02*
X27833333Y-7083390D01*
X27833333Y-7083390D02*
X27833333Y-7226247D01*
X27833333Y-7226247D02*
X27785714Y-7416723D01*
X27785714Y-7416723D02*
X27738095Y-7511961D01*
X27738095Y-7511961D02*
X27642857Y-7607200D01*
X27642857Y-7607200D02*
X27500000Y-7654819D01*
X27500000Y-7654819D02*
X27261905Y-7654819D01*
X28785714Y-7654819D02*
X28214286Y-7654819D01*
X28500000Y-7654819D02*
X28500000Y-6654819D01*
X28500000Y-6654819D02*
X28404762Y-6797676D01*
X28404762Y-6797676D02*
X28309524Y-6892914D01*
X28309524Y-6892914D02*
X28214286Y-6940533D01*
X14338095Y-7304819D02*
X14338095Y-8114342D01*
X14338095Y-8114342D02*
X14385714Y-8209580D01*
X14385714Y-8209580D02*
X14433333Y-8257200D01*
X14433333Y-8257200D02*
X14528571Y-8304819D01*
X14528571Y-8304819D02*
X14719047Y-8304819D01*
X14719047Y-8304819D02*
X14814285Y-8257200D01*
X14814285Y-8257200D02*
X14861904Y-8209580D01*
X14861904Y-8209580D02*
X14909523Y-8114342D01*
X14909523Y-8114342D02*
X14909523Y-7304819D01*
X15338095Y-7400057D02*
X15385714Y-7352438D01*
X15385714Y-7352438D02*
X15480952Y-7304819D01*
X15480952Y-7304819D02*
X15719047Y-7304819D01*
X15719047Y-7304819D02*
X15814285Y-7352438D01*
X15814285Y-7352438D02*
X15861904Y-7400057D01*
X15861904Y-7400057D02*
X15909523Y-7495295D01*
X15909523Y-7495295D02*
X15909523Y-7590533D01*
X15909523Y-7590533D02*
X15861904Y-7733390D01*
X15861904Y-7733390D02*
X15290476Y-8304819D01*
X15290476Y-8304819D02*
X15909523Y-8304819D01*
X21238095Y-604819D02*
X21238095Y-1414342D01*
X21238095Y-1414342D02*
X21285714Y-1509580D01*
X21285714Y-1509580D02*
X21333333Y-1557200D01*
X21333333Y-1557200D02*
X21428571Y-1604819D01*
X21428571Y-1604819D02*
X21619047Y-1604819D01*
X21619047Y-1604819D02*
X21714285Y-1557200D01*
X21714285Y-1557200D02*
X21761904Y-1509580D01*
X21761904Y-1509580D02*
X21809523Y-1414342D01*
X21809523Y-1414342D02*
X21809523Y-604819D01*
X22809523Y-1604819D02*
X22238095Y-1604819D01*
X22523809Y-1604819D02*
X22523809Y-604819D01*
X22523809Y-604819D02*
X22428571Y-747676D01*
X22428571Y-747676D02*
X22333333Y-842914D01*
X22333333Y-842914D02*
X22238095Y-890533D01*
X13954819Y-7366666D02*
X13478628Y-7699999D01*
X13954819Y-7938094D02*
X12954819Y-7938094D01*
X12954819Y-7938094D02*
X12954819Y-7557142D01*
X12954819Y-7557142D02*
X13002438Y-7461904D01*
X13002438Y-7461904D02*
X13050057Y-7414285D01*
X13050057Y-7414285D02*
X13145295Y-7366666D01*
X13145295Y-7366666D02*
X13288152Y-7366666D01*
X13288152Y-7366666D02*
X13383390Y-7414285D01*
X13383390Y-7414285D02*
X13431009Y-7461904D01*
X13431009Y-7461904D02*
X13478628Y-7557142D01*
X13478628Y-7557142D02*
X13478628Y-7938094D01*
X13050057Y-6985713D02*
X13002438Y-6938094D01*
X13002438Y-6938094D02*
X12954819Y-6842856D01*
X12954819Y-6842856D02*
X12954819Y-6604761D01*
X12954819Y-6604761D02*
X13002438Y-6509523D01*
X13002438Y-6509523D02*
X13050057Y-6461904D01*
X13050057Y-6461904D02*
X13145295Y-6414285D01*
X13145295Y-6414285D02*
X13240533Y-6414285D01*
X13240533Y-6414285D02*
X13383390Y-6461904D01*
X13383390Y-6461904D02*
X13954819Y-7033332D01*
X13954819Y-7033332D02*
X13954819Y-6414285D01*
X7933333Y-10854819D02*
X7600000Y-10378628D01*
X7361905Y-10854819D02*
X7361905Y-9854819D01*
X7361905Y-9854819D02*
X7742857Y-9854819D01*
X7742857Y-9854819D02*
X7838095Y-9902438D01*
X7838095Y-9902438D02*
X7885714Y-9950057D01*
X7885714Y-9950057D02*
X7933333Y-10045295D01*
X7933333Y-10045295D02*
X7933333Y-10188152D01*
X7933333Y-10188152D02*
X7885714Y-10283390D01*
X7885714Y-10283390D02*
X7838095Y-10331009D01*
X7838095Y-10331009D02*
X7742857Y-10378628D01*
X7742857Y-10378628D02*
X7361905Y-10378628D01*
X8790476Y-10188152D02*
X8790476Y-10854819D01*
X8552381Y-9807200D02*
X8314286Y-10521485D01*
X8314286Y-10521485D02*
X8933333Y-10521485D01*
X15859580Y-7366666D02*
X15907200Y-7414285D01*
X15907200Y-7414285D02*
X15954819Y-7557142D01*
X15954819Y-7557142D02*
X15954819Y-7652380D01*
X15954819Y-7652380D02*
X15907200Y-7795237D01*
X15907200Y-7795237D02*
X15811961Y-7890475D01*
X15811961Y-7890475D02*
X15716723Y-7938094D01*
X15716723Y-7938094D02*
X15526247Y-7985713D01*
X15526247Y-7985713D02*
X15383390Y-7985713D01*
X15383390Y-7985713D02*
X15192914Y-7938094D01*
X15192914Y-7938094D02*
X15097676Y-7890475D01*
X15097676Y-7890475D02*
X15002438Y-7795237D01*
X15002438Y-7795237D02*
X14954819Y-7652380D01*
X14954819Y-7652380D02*
X14954819Y-7557142D01*
X14954819Y-7557142D02*
X15002438Y-7414285D01*
X15002438Y-7414285D02*
X15050057Y-7366666D01*
X15954819Y-6414285D02*
X15954819Y-6985713D01*
X15954819Y-6699999D02*
X14954819Y-6699999D01*
X14954819Y-6699999D02*
X15097676Y-6795237D01*
X15097676Y-6795237D02*
X15192914Y-6890475D01*
X15192914Y-6890475D02*
X15240533Y-6985713D01*
X26238095Y-4254819D02*
X26809523Y-4254819D01*
X26523809Y-5254819D02*
X26523809Y-4254819D01*
X27142857Y-5254819D02*
X27142857Y-4254819D01*
X27142857Y-4254819D02*
X27523809Y-4254819D01*
X27523809Y-4254819D02*
X27619047Y-4302438D01*
X27619047Y-4302438D02*
X27666666Y-4350057D01*
X27666666Y-4350057D02*
X27714285Y-4445295D01*
X27714285Y-4445295D02*
X27714285Y-4588152D01*
X27714285Y-4588152D02*
X27666666Y-4683390D01*
X27666666Y-4683390D02*
X27619047Y-4731009D01*
X27619047Y-4731009D02*
X27523809Y-4778628D01*
X27523809Y-4778628D02*
X27142857Y-4778628D01*
X28666666Y-5254819D02*
X28095238Y-5254819D01*
X28380952Y-5254819D02*
X28380952Y-4254819D01*
X28380952Y-4254819D02*
X28285714Y-4397676D01*
X28285714Y-4397676D02*
X28190476Y-4492914D01*
X28190476Y-4492914D02*
X28095238Y-4540533D01*
X18184580Y-8166666D02*
X18232200Y-8214285D01*
X18232200Y-8214285D02*
X18279819Y-8357142D01*
X18279819Y-8357142D02*
X18279819Y-8452380D01*
X18279819Y-8452380D02*
X18232200Y-8595237D01*
X18232200Y-8595237D02*
X18136961Y-8690475D01*
X18136961Y-8690475D02*
X18041723Y-8738094D01*
X18041723Y-8738094D02*
X17851247Y-8785713D01*
X17851247Y-8785713D02*
X17708390Y-8785713D01*
X17708390Y-8785713D02*
X17517914Y-8738094D01*
X17517914Y-8738094D02*
X17422676Y-8690475D01*
X17422676Y-8690475D02*
X17327438Y-8595237D01*
X17327438Y-8595237D02*
X17279819Y-8452380D01*
X17279819Y-8452380D02*
X17279819Y-8357142D01*
X17279819Y-8357142D02*
X17327438Y-8214285D01*
X17327438Y-8214285D02*
X17375057Y-8166666D01*
X17613152Y-7309523D02*
X18279819Y-7309523D01*
X17232200Y-7547618D02*
X17946485Y-7785713D01*
X17946485Y-7785713D02*
X17946485Y-7166666D01*
X6704819Y-13761904D02*
X6704819Y-13190476D01*
X7704819Y-13476190D02*
X6704819Y-13476190D01*
X7704819Y-12857142D02*
X6704819Y-12857142D01*
X6704819Y-12857142D02*
X6704819Y-12476190D01*
X6704819Y-12476190D02*
X6752438Y-12380952D01*
X6752438Y-12380952D02*
X6800057Y-12333333D01*
X6800057Y-12333333D02*
X6895295Y-12285714D01*
X6895295Y-12285714D02*
X7038152Y-12285714D01*
X7038152Y-12285714D02*
X7133390Y-12333333D01*
X7133390Y-12333333D02*
X7181009Y-12380952D01*
X7181009Y-12380952D02*
X7228628Y-12476190D01*
X7228628Y-12476190D02*
X7228628Y-12857142D01*
X7038152Y-11428571D02*
X7704819Y-11428571D01*
X6657200Y-11666666D02*
X7371485Y-11904761D01*
X7371485Y-11904761D02*
X7371485Y-11285714D01*
X21054819Y-15661904D02*
X21054819Y-15090476D01*
X22054819Y-15376190D02*
X21054819Y-15376190D01*
X22054819Y-14757142D02*
X21054819Y-14757142D01*
X21054819Y-14757142D02*
X21054819Y-14376190D01*
X21054819Y-14376190D02*
X21102438Y-14280952D01*
X21102438Y-14280952D02*
X21150057Y-14233333D01*
X21150057Y-14233333D02*
X21245295Y-14185714D01*
X21245295Y-14185714D02*
X21388152Y-14185714D01*
X21388152Y-14185714D02*
X21483390Y-14233333D01*
X21483390Y-14233333D02*
X21531009Y-14280952D01*
X21531009Y-14280952D02*
X21578628Y-14376190D01*
X21578628Y-14376190D02*
X21578628Y-14757142D01*
X21150057Y-13804761D02*
X21102438Y-13757142D01*
X21102438Y-13757142D02*
X21054819Y-13661904D01*
X21054819Y-13661904D02*
X21054819Y-13423809D01*
X21054819Y-13423809D02*
X21102438Y-13328571D01*
X21102438Y-13328571D02*
X21150057Y-13280952D01*
X21150057Y-13280952D02*
X21245295Y-13233333D01*
X21245295Y-13233333D02*
X21340533Y-13233333D01*
X21340533Y-13233333D02*
X21483390Y-13280952D01*
X21483390Y-13280952D02*
X22054819Y-13852380D01*
X22054819Y-13852380D02*
X22054819Y-13233333D01*
X26738095Y-11306819D02*
X27309523Y-11306819D01*
X27023809Y-12306819D02*
X27023809Y-11306819D01*
X27642857Y-12306819D02*
X27642857Y-11306819D01*
X27642857Y-11306819D02*
X28023809Y-11306819D01*
X28023809Y-11306819D02*
X28119047Y-11354438D01*
X28119047Y-11354438D02*
X28166666Y-11402057D01*
X28166666Y-11402057D02*
X28214285Y-11497295D01*
X28214285Y-11497295D02*
X28214285Y-11640152D01*
X28214285Y-11640152D02*
X28166666Y-11735390D01*
X28166666Y-11735390D02*
X28119047Y-11783009D01*
X28119047Y-11783009D02*
X28023809Y-11830628D01*
X28023809Y-11830628D02*
X27642857Y-11830628D01*
X28547619Y-11306819D02*
X29166666Y-11306819D01*
X29166666Y-11306819D02*
X28833333Y-11687771D01*
X28833333Y-11687771D02*
X28976190Y-11687771D01*
X28976190Y-11687771D02*
X29071428Y-11735390D01*
X29071428Y-11735390D02*
X29119047Y-11783009D01*
X29119047Y-11783009D02*
X29166666Y-11878247D01*
X29166666Y-11878247D02*
X29166666Y-12116342D01*
X29166666Y-12116342D02*
X29119047Y-12211580D01*
X29119047Y-12211580D02*
X29071428Y-12259200D01*
X29071428Y-12259200D02*
X28976190Y-12306819D01*
X28976190Y-12306819D02*
X28690476Y-12306819D01*
X28690476Y-12306819D02*
X28595238Y-12259200D01*
X28595238Y-12259200D02*
X28547619Y-12211580D01*
X26550057Y-13595238D02*
X26502438Y-13690476D01*
X26502438Y-13690476D02*
X26407200Y-13785714D01*
X26407200Y-13785714D02*
X26264342Y-13928571D01*
X26264342Y-13928571D02*
X26216723Y-14023809D01*
X26216723Y-14023809D02*
X26216723Y-14119047D01*
X26454819Y-14071428D02*
X26407200Y-14166666D01*
X26407200Y-14166666D02*
X26311961Y-14261904D01*
X26311961Y-14261904D02*
X26121485Y-14309523D01*
X26121485Y-14309523D02*
X25788152Y-14309523D01*
X25788152Y-14309523D02*
X25597676Y-14261904D01*
X25597676Y-14261904D02*
X25502438Y-14166666D01*
X25502438Y-14166666D02*
X25454819Y-14071428D01*
X25454819Y-14071428D02*
X25454819Y-13880952D01*
X25454819Y-13880952D02*
X25502438Y-13785714D01*
X25502438Y-13785714D02*
X25597676Y-13690476D01*
X25597676Y-13690476D02*
X25788152Y-13642857D01*
X25788152Y-13642857D02*
X26121485Y-13642857D01*
X26121485Y-13642857D02*
X26311961Y-13690476D01*
X26311961Y-13690476D02*
X26407200Y-13785714D01*
X26407200Y-13785714D02*
X26454819Y-13880952D01*
X26454819Y-13880952D02*
X26454819Y-14071428D01*
X26454819Y-12690476D02*
X26454819Y-13261904D01*
X26454819Y-12976190D02*
X25454819Y-12976190D01*
X25454819Y-12976190D02*
X25597676Y-13071428D01*
X25597676Y-13071428D02*
X25692914Y-13166666D01*
X25692914Y-13166666D02*
X25740533Y-13261904D01*
X16583333Y-14539580D02*
X16535714Y-14587200D01*
X16535714Y-14587200D02*
X16392857Y-14634819D01*
X16392857Y-14634819D02*
X16297619Y-14634819D01*
X16297619Y-14634819D02*
X16154762Y-14587200D01*
X16154762Y-14587200D02*
X16059524Y-14491961D01*
X16059524Y-14491961D02*
X16011905Y-14396723D01*
X16011905Y-14396723D02*
X15964286Y-14206247D01*
X15964286Y-14206247D02*
X15964286Y-14063390D01*
X15964286Y-14063390D02*
X16011905Y-13872914D01*
X16011905Y-13872914D02*
X16059524Y-13777676D01*
X16059524Y-13777676D02*
X16154762Y-13682438D01*
X16154762Y-13682438D02*
X16297619Y-13634819D01*
X16297619Y-13634819D02*
X16392857Y-13634819D01*
X16392857Y-13634819D02*
X16535714Y-13682438D01*
X16535714Y-13682438D02*
X16583333Y-13730057D01*
X16916667Y-13634819D02*
X17535714Y-13634819D01*
X17535714Y-13634819D02*
X17202381Y-14015771D01*
X17202381Y-14015771D02*
X17345238Y-14015771D01*
X17345238Y-14015771D02*
X17440476Y-14063390D01*
X17440476Y-14063390D02*
X17488095Y-14111009D01*
X17488095Y-14111009D02*
X17535714Y-14206247D01*
X17535714Y-14206247D02*
X17535714Y-14444342D01*
X17535714Y-14444342D02*
X17488095Y-14539580D01*
X17488095Y-14539580D02*
X17440476Y-14587200D01*
X17440476Y-14587200D02*
X17345238Y-14634819D01*
X17345238Y-14634819D02*
X17059524Y-14634819D01*
X17059524Y-14634819D02*
X16964286Y-14587200D01*
X16964286Y-14587200D02*
X16916667Y-14539580D01*
X11959580Y-12579166D02*
X12007200Y-12626785D01*
X12007200Y-12626785D02*
X12054819Y-12769642D01*
X12054819Y-12769642D02*
X12054819Y-12864880D01*
X12054819Y-12864880D02*
X12007200Y-13007737D01*
X12007200Y-13007737D02*
X11911961Y-13102975D01*
X11911961Y-13102975D02*
X11816723Y-13150594D01*
X11816723Y-13150594D02*
X11626247Y-13198213D01*
X11626247Y-13198213D02*
X11483390Y-13198213D01*
X11483390Y-13198213D02*
X11292914Y-13150594D01*
X11292914Y-13150594D02*
X11197676Y-13102975D01*
X11197676Y-13102975D02*
X11102438Y-13007737D01*
X11102438Y-13007737D02*
X11054819Y-12864880D01*
X11054819Y-12864880D02*
X11054819Y-12769642D01*
X11054819Y-12769642D02*
X11102438Y-12626785D01*
X11102438Y-12626785D02*
X11150057Y-12579166D01*
X11150057Y-12198213D02*
X11102438Y-12150594D01*
X11102438Y-12150594D02*
X11054819Y-12055356D01*
X11054819Y-12055356D02*
X11054819Y-11817261D01*
X11054819Y-11817261D02*
X11102438Y-11722023D01*
X11102438Y-11722023D02*
X11150057Y-11674404D01*
X11150057Y-11674404D02*
X11245295Y-11626785D01*
X11245295Y-11626785D02*
X11340533Y-11626785D01*
X11340533Y-11626785D02*
X11483390Y-11674404D01*
X11483390Y-11674404D02*
X12054819Y-12245832D01*
X12054819Y-12245832D02*
X12054819Y-11626785D01*
X21054819Y-9866666D02*
X20578628Y-10199999D01*
X21054819Y-10438094D02*
X20054819Y-10438094D01*
X20054819Y-10438094D02*
X20054819Y-10057142D01*
X20054819Y-10057142D02*
X20102438Y-9961904D01*
X20102438Y-9961904D02*
X20150057Y-9914285D01*
X20150057Y-9914285D02*
X20245295Y-9866666D01*
X20245295Y-9866666D02*
X20388152Y-9866666D01*
X20388152Y-9866666D02*
X20483390Y-9914285D01*
X20483390Y-9914285D02*
X20531009Y-9961904D01*
X20531009Y-9961904D02*
X20578628Y-10057142D01*
X20578628Y-10057142D02*
X20578628Y-10438094D01*
X20054819Y-9533332D02*
X20054819Y-8914285D01*
X20054819Y-8914285D02*
X20435771Y-9247618D01*
X20435771Y-9247618D02*
X20435771Y-9104761D01*
X20435771Y-9104761D02*
X20483390Y-9009523D01*
X20483390Y-9009523D02*
X20531009Y-8961904D01*
X20531009Y-8961904D02*
X20626247Y-8914285D01*
X20626247Y-8914285D02*
X20864342Y-8914285D01*
X20864342Y-8914285D02*
X20959580Y-8961904D01*
X20959580Y-8961904D02*
X21007200Y-9009523D01*
X21007200Y-9009523D02*
X21054819Y-9104761D01*
X21054819Y-9104761D02*
X21054819Y-9390475D01*
X21054819Y-9390475D02*
X21007200Y-9485713D01*
X21007200Y-9485713D02*
X20959580Y-9533332D01*
D11*
%TO.C,R1*%
X10262742Y-7527500D02*
X10737258Y-7527500D01*
X10262742Y-8572500D02*
X10737258Y-8572500D01*
%TO.C,C5*%
X17461252Y-13840000D02*
X16038748Y-13840000D01*
X17461252Y-15660000D02*
X16038748Y-15660000D01*
%TO.C,R5*%
X17062258Y-1877500D02*
X16587742Y-1877500D01*
X17062258Y-2922500D02*
X16587742Y-2922500D01*
%TO.C,D1*%
X23090000Y-7890000D02*
X23090000Y-11110000D01*
X23090000Y-11110000D02*
X28900000Y-11110000D01*
X28900000Y-7890000D02*
X23090000Y-7890000D01*
%TO.C,U2*%
X14940000Y-9500000D02*
X14940000Y-8850000D01*
X14940000Y-9500000D02*
X14940000Y-10150000D01*
X18060000Y-9500000D02*
X18060000Y-8850000D01*
X18060000Y-9500000D02*
X18060000Y-10150000D01*
X14990000Y-10662500D02*
X14660000Y-10902500D01*
X14660000Y-10422500D01*
X14990000Y-10662500D01*
G36*
X14990000Y-10662500D02*
G01*
X14660000Y-10902500D01*
X14660000Y-10422500D01*
X14990000Y-10662500D01*
G37*
%TO.C,U1*%
X22000000Y-1990000D02*
X20050000Y-1990000D01*
X22000000Y-1990000D02*
X23950000Y-1990000D01*
X22000000Y-7110000D02*
X20050000Y-7110000D01*
X22000000Y-7110000D02*
X23950000Y-7110000D01*
X19300000Y-2085000D02*
X19060000Y-1755000D01*
X19540000Y-1755000D01*
X19300000Y-2085000D01*
G36*
X19300000Y-2085000D02*
G01*
X19060000Y-1755000D01*
X19540000Y-1755000D01*
X19300000Y-2085000D01*
G37*
%TO.C,R2*%
X12977500Y-5237258D02*
X12977500Y-4762742D01*
X14022500Y-5237258D02*
X14022500Y-4762742D01*
%TO.C,R4*%
X10262742Y-9977500D02*
X10737258Y-9977500D01*
X10262742Y-11022500D02*
X10737258Y-11022500D01*
%TO.C,C1*%
X14765000Y-5098752D02*
X14765000Y-4576248D01*
X16235000Y-5098752D02*
X16235000Y-4576248D01*
%TO.C,TP1*%
X26100000Y-2000000D02*
X28900000Y-2000000D01*
X26100000Y-4000000D02*
X26100000Y-2000000D01*
X28900000Y-2000000D02*
X28900000Y-4000000D01*
X28900000Y-4000000D02*
X26100000Y-4000000D01*
%TO.C,C4*%
X19584420Y-7490000D02*
X19865580Y-7490000D01*
X19584420Y-8510000D02*
X19865580Y-8510000D01*
%TO.C,TP4*%
X8300000Y-11550000D02*
X10200000Y-11550000D01*
X8300000Y-13450000D02*
X8300000Y-11550000D01*
X10200000Y-11550000D02*
X10200000Y-13450000D01*
X10200000Y-13450000D02*
X8300000Y-13450000D01*
%TO.C,TP2*%
X19300000Y-11050000D02*
X21200000Y-11050000D01*
X19300000Y-12950000D02*
X19300000Y-11050000D01*
X21200000Y-11050000D02*
X21200000Y-12950000D01*
X21200000Y-12950000D02*
X19300000Y-12950000D01*
%TO.C,TP3*%
X27050000Y-12550000D02*
X28950000Y-12550000D01*
X27050000Y-14450000D02*
X27050000Y-12550000D01*
X28950000Y-12550000D02*
X28950000Y-14450000D01*
X28950000Y-14450000D02*
X27050000Y-14450000D01*
%TO.C,Q1*%
X23500000Y-11940000D02*
X22850000Y-11940000D01*
X23500000Y-11940000D02*
X24150000Y-11940000D01*
X23500000Y-15060000D02*
X22850000Y-15060000D01*
X23500000Y-15060000D02*
X24150000Y-15060000D01*
X22337500Y-11990000D02*
X22097500Y-11660000D01*
X22577500Y-11660000D01*
X22337500Y-11990000D01*
G36*
X22337500Y-11990000D02*
G01*
X22097500Y-11660000D01*
X22577500Y-11660000D01*
X22337500Y-11990000D01*
G37*
%TO.C,C3*%
X17011252Y-11765000D02*
X16488748Y-11765000D01*
X17011252Y-13235000D02*
X16488748Y-13235000D01*
%TO.C,C2*%
X12340000Y-11763748D02*
X12340000Y-13186252D01*
X14160000Y-11763748D02*
X14160000Y-13186252D01*
%TO.C,R3*%
X21477500Y-8962742D02*
X21477500Y-9437258D01*
X22522500Y-8962742D02*
X22522500Y-9437258D01*
%TD*%
M02*
