%TF.GenerationSoftware,KiCad,Pcbnew,9.0.7-1.fc43*%
%TF.CreationDate,2026-02-06T20:38:46-08:00*%
%TF.ProjectId,autodir_sch,6175746f-6469-4725-9f73-63682e6b6963,A1*%
%TF.SameCoordinates,PX11a49a0PYbd83a0*%
%TF.FileFunction,Legend,Bot*%
%TF.FilePolarity,Positive*%
%FSLAX46Y46*%
G04 Gerber Fmt 4.6, Leading zero omitted, Abs format (unit mm)*
G04 Created by KiCad (PCBNEW 9.0.7-1.fc43) date 2026-02-06 20:38:46*
%MOMM*%
%LPD*%
G01*
G04 APERTURE LIST*
G04 Aperture macros list*
%AMRoundRect*
0 Rectangle with rounded corners*
0 $1 Rounding radius*
0 $2 $3 $4 $5 $6 $7 $8 $9 X,Y pos of 4 corners*
0 Add a 4 corners polygon primitive as box body*
4,1,4,$2,$3,$4,$5,$6,$7,$8,$9,$2,$3,0*
0 Add four circle primitives for the rounded corners*
1,1,$1+$1,$2,$3*
1,1,$1+$1,$4,$5*
1,1,$1+$1,$6,$7*
1,1,$1+$1,$8,$9*
0 Add four rect primitives between the rounded corners*
20,1,$1+$1,$2,$3,$4,$5,0*
20,1,$1+$1,$4,$5,$6,$7,0*
20,1,$1+$1,$6,$7,$8,$9,0*
20,1,$1+$1,$8,$9,$2,$3,0*%
G04 Aperture macros list end*
%ADD10C,0.150000*%
%ADD11C,0.200000*%
%ADD12C,0.000000*%
%ADD13C,0.120000*%
%ADD14R,1.700000X1.700000*%
%ADD15C,1.700000*%
%ADD16RoundRect,0.250000X1.050000X-1.050000X1.050000X1.050000X-1.050000X1.050000X-1.050000X-1.050000X0*%
%ADD17C,2.600000*%
G04 APERTURE END LIST*
D10*
X6045180Y-6746666D02*
X6521371Y-7079999D01*
X6045180Y-7318094D02*
X7045180Y-7318094D01*
X7045180Y-7318094D02*
X7045180Y-6937142D01*
X7045180Y-6937142D02*
X6997561Y-6841904D01*
X6997561Y-6841904D02*
X6949942Y-6794285D01*
X6949942Y-6794285D02*
X6854704Y-6746666D01*
X6854704Y-6746666D02*
X6711847Y-6746666D01*
X6711847Y-6746666D02*
X6616609Y-6794285D01*
X6616609Y-6794285D02*
X6568990Y-6841904D01*
X6568990Y-6841904D02*
X6521371Y-6937142D01*
X6521371Y-6937142D02*
X6521371Y-7318094D01*
X7045180Y-6413332D02*
X6045180Y-5746666D01*
X7045180Y-5746666D02*
X6045180Y-6413332D01*
X6426133Y-12650475D02*
X6426133Y-12040952D01*
X6045180Y-12345713D02*
X6807085Y-12345713D01*
X7045180Y-11279047D02*
X7045180Y-11659999D01*
X7045180Y-11659999D02*
X6568990Y-11698095D01*
X6568990Y-11698095D02*
X6616609Y-11659999D01*
X6616609Y-11659999D02*
X6664228Y-11583809D01*
X6664228Y-11583809D02*
X6664228Y-11393333D01*
X6664228Y-11393333D02*
X6616609Y-11317142D01*
X6616609Y-11317142D02*
X6568990Y-11279047D01*
X6568990Y-11279047D02*
X6473752Y-11240952D01*
X6473752Y-11240952D02*
X6235657Y-11240952D01*
X6235657Y-11240952D02*
X6140419Y-11279047D01*
X6140419Y-11279047D02*
X6092800Y-11317142D01*
X6092800Y-11317142D02*
X6045180Y-11393333D01*
X6045180Y-11393333D02*
X6045180Y-11583809D01*
X6045180Y-11583809D02*
X6092800Y-11659999D01*
X6092800Y-11659999D02*
X6140419Y-11698095D01*
X6711847Y-10974285D02*
X6045180Y-10783809D01*
X6045180Y-10783809D02*
X6711847Y-10593332D01*
D11*
X7603780Y-9053142D02*
X8603780Y-9053142D01*
X8603780Y-9053142D02*
X8603780Y-8767428D01*
X8603780Y-8767428D02*
X8556161Y-8595999D01*
X8556161Y-8595999D02*
X8460923Y-8481714D01*
X8460923Y-8481714D02*
X8365685Y-8424571D01*
X8365685Y-8424571D02*
X8175209Y-8367428D01*
X8175209Y-8367428D02*
X8032352Y-8367428D01*
X8032352Y-8367428D02*
X7841876Y-8424571D01*
X7841876Y-8424571D02*
X7746638Y-8481714D01*
X7746638Y-8481714D02*
X7651400Y-8595999D01*
X7651400Y-8595999D02*
X7603780Y-8767428D01*
X7603780Y-8767428D02*
X7603780Y-9053142D01*
X7699019Y-7167428D02*
X7651400Y-7224571D01*
X7651400Y-7224571D02*
X7603780Y-7395999D01*
X7603780Y-7395999D02*
X7603780Y-7510285D01*
X7603780Y-7510285D02*
X7651400Y-7681714D01*
X7651400Y-7681714D02*
X7746638Y-7795999D01*
X7746638Y-7795999D02*
X7841876Y-7853142D01*
X7841876Y-7853142D02*
X8032352Y-7910285D01*
X8032352Y-7910285D02*
X8175209Y-7910285D01*
X8175209Y-7910285D02*
X8365685Y-7853142D01*
X8365685Y-7853142D02*
X8460923Y-7795999D01*
X8460923Y-7795999D02*
X8556161Y-7681714D01*
X8556161Y-7681714D02*
X8603780Y-7510285D01*
X8603780Y-7510285D02*
X8603780Y-7395999D01*
X8603780Y-7395999D02*
X8556161Y-7224571D01*
X8556161Y-7224571D02*
X8508542Y-7167428D01*
X8127590Y-6653142D02*
X8127590Y-6253142D01*
X7603780Y-6081714D02*
X7603780Y-6653142D01*
X7603780Y-6653142D02*
X8603780Y-6653142D01*
X8603780Y-6653142D02*
X8603780Y-6081714D01*
D10*
X7045180Y-9881904D02*
X7045180Y-9310476D01*
X6045180Y-9596190D02*
X7045180Y-9596190D01*
X7045180Y-9072380D02*
X6045180Y-8405714D01*
X7045180Y-8405714D02*
X6045180Y-9072380D01*
D11*
X22297814Y-2571428D02*
X22369242Y-2828571D01*
X22369242Y-2828571D02*
X22440671Y-2914285D01*
X22440671Y-2914285D02*
X22583528Y-2999999D01*
X22583528Y-2999999D02*
X22797814Y-2999999D01*
X22797814Y-2999999D02*
X22940671Y-2914285D01*
X22940671Y-2914285D02*
X23012100Y-2828571D01*
X23012100Y-2828571D02*
X23083528Y-2657142D01*
X23083528Y-2657142D02*
X23083528Y-1971428D01*
X23083528Y-1971428D02*
X21583528Y-1971428D01*
X21583528Y-1971428D02*
X21583528Y-2571428D01*
X21583528Y-2571428D02*
X21654957Y-2742857D01*
X21654957Y-2742857D02*
X21726385Y-2828571D01*
X21726385Y-2828571D02*
X21869242Y-2914285D01*
X21869242Y-2914285D02*
X22012100Y-2914285D01*
X22012100Y-2914285D02*
X22154957Y-2828571D01*
X22154957Y-2828571D02*
X22226385Y-2742857D01*
X22226385Y-2742857D02*
X22297814Y-2571428D01*
X22297814Y-2571428D02*
X22297814Y-1971428D01*
X22512100Y-3771428D02*
X22512100Y-5142857D01*
X23083528Y-4457142D02*
X21940671Y-4457142D01*
X22654957Y-7285714D02*
X22654957Y-8142857D01*
X23083528Y-7114285D02*
X21583528Y-7714285D01*
X21583528Y-7714285D02*
X23083528Y-8314285D01*
X22512100Y-8914285D02*
X22512100Y-10285714D01*
X22940671Y-13542856D02*
X23012100Y-13457142D01*
X23012100Y-13457142D02*
X23083528Y-13199999D01*
X23083528Y-13199999D02*
X23083528Y-13028571D01*
X23083528Y-13028571D02*
X23012100Y-12771428D01*
X23012100Y-12771428D02*
X22869242Y-12599999D01*
X22869242Y-12599999D02*
X22726385Y-12514285D01*
X22726385Y-12514285D02*
X22440671Y-12428571D01*
X22440671Y-12428571D02*
X22226385Y-12428571D01*
X22226385Y-12428571D02*
X21940671Y-12514285D01*
X21940671Y-12514285D02*
X21797814Y-12599999D01*
X21797814Y-12599999D02*
X21654957Y-12771428D01*
X21654957Y-12771428D02*
X21583528Y-13028571D01*
X21583528Y-13028571D02*
X21583528Y-13199999D01*
X21583528Y-13199999D02*
X21654957Y-13457142D01*
X21654957Y-13457142D02*
X21726385Y-13542856D01*
D10*
X7029561Y-4649523D02*
X7077180Y-4725713D01*
X7077180Y-4725713D02*
X7077180Y-4839999D01*
X7077180Y-4839999D02*
X7029561Y-4954285D01*
X7029561Y-4954285D02*
X6934323Y-5030475D01*
X6934323Y-5030475D02*
X6839085Y-5068570D01*
X6839085Y-5068570D02*
X6648609Y-5106666D01*
X6648609Y-5106666D02*
X6505752Y-5106666D01*
X6505752Y-5106666D02*
X6315276Y-5068570D01*
X6315276Y-5068570D02*
X6220038Y-5030475D01*
X6220038Y-5030475D02*
X6124800Y-4954285D01*
X6124800Y-4954285D02*
X6077180Y-4839999D01*
X6077180Y-4839999D02*
X6077180Y-4763808D01*
X6077180Y-4763808D02*
X6124800Y-4649523D01*
X6124800Y-4649523D02*
X6172419Y-4611427D01*
X6172419Y-4611427D02*
X6505752Y-4611427D01*
X6505752Y-4611427D02*
X6505752Y-4763808D01*
X6077180Y-4268570D02*
X7077180Y-4268570D01*
X7077180Y-4268570D02*
X6077180Y-3811427D01*
X6077180Y-3811427D02*
X7077180Y-3811427D01*
X6077180Y-3430475D02*
X7077180Y-3430475D01*
X7077180Y-3430475D02*
X7077180Y-3239999D01*
X7077180Y-3239999D02*
X7029561Y-3125713D01*
X7029561Y-3125713D02*
X6934323Y-3049523D01*
X6934323Y-3049523D02*
X6839085Y-3011428D01*
X6839085Y-3011428D02*
X6648609Y-2973332D01*
X6648609Y-2973332D02*
X6505752Y-2973332D01*
X6505752Y-2973332D02*
X6315276Y-3011428D01*
X6315276Y-3011428D02*
X6220038Y-3049523D01*
X6220038Y-3049523D02*
X6124800Y-3125713D01*
X6124800Y-3125713D02*
X6077180Y-3239999D01*
X6077180Y-3239999D02*
X6077180Y-3430475D01*
X448333Y-1224819D02*
X448333Y-1939104D01*
X448333Y-1939104D02*
X495952Y-2081961D01*
X495952Y-2081961D02*
X591190Y-2177200D01*
X591190Y-2177200D02*
X734047Y-2224819D01*
X734047Y-2224819D02*
X829285Y-2224819D01*
X-551667Y-2224819D02*
X19761Y-2224819D01*
X-265953Y-2224819D02*
X-265953Y-1224819D01*
X-265953Y-1224819D02*
X-170715Y-1367676D01*
X-170715Y-1367676D02*
X-75477Y-1462914D01*
X-75477Y-1462914D02*
X19761Y-1510533D01*
X22454819Y-14666666D02*
X23169104Y-14666666D01*
X23169104Y-14666666D02*
X23311961Y-14619047D01*
X23311961Y-14619047D02*
X23407200Y-14523809D01*
X23407200Y-14523809D02*
X23454819Y-14380952D01*
X23454819Y-14380952D02*
X23454819Y-14285714D01*
X22550057Y-15095238D02*
X22502438Y-15142857D01*
X22502438Y-15142857D02*
X22454819Y-15238095D01*
X22454819Y-15238095D02*
X22454819Y-15476190D01*
X22454819Y-15476190D02*
X22502438Y-15571428D01*
X22502438Y-15571428D02*
X22550057Y-15619047D01*
X22550057Y-15619047D02*
X22645295Y-15666666D01*
X22645295Y-15666666D02*
X22740533Y-15666666D01*
X22740533Y-15666666D02*
X22883390Y-15619047D01*
X22883390Y-15619047D02*
X23454819Y-15047619D01*
X23454819Y-15047619D02*
X23454819Y-15666666D01*
D12*
%TO.C,G\u002A\u002A\u002A*%
G36*
X9028369Y-11358832D02*
G01*
X9007558Y-11358832D01*
X9007558Y-11338020D01*
X9028369Y-11338020D01*
X9028369Y-11358832D01*
G37*
G36*
X9111616Y-10567987D02*
G01*
X9090804Y-10567987D01*
X9090804Y-10547175D01*
X9111616Y-10547175D01*
X9111616Y-10567987D01*
G37*
G36*
X9257298Y-12503477D02*
G01*
X9236487Y-12503477D01*
X9236487Y-12482665D01*
X9257298Y-12482665D01*
X9257298Y-12503477D01*
G37*
G36*
X9382168Y-10796916D02*
G01*
X9361357Y-10796916D01*
X9361357Y-10776105D01*
X9382168Y-10776105D01*
X9382168Y-10796916D01*
G37*
G36*
X9631908Y-9090355D02*
G01*
X9611097Y-9090355D01*
X9611097Y-9069543D01*
X9631908Y-9069543D01*
X9631908Y-9090355D01*
G37*
G36*
X9902462Y-4823953D02*
G01*
X9881649Y-4823953D01*
X9881650Y-4803141D01*
X9902462Y-4803141D01*
X9902462Y-4823953D01*
G37*
G36*
X10048143Y-4553400D02*
G01*
X10027332Y-4553400D01*
X10027332Y-4532589D01*
X10048143Y-4532589D01*
X10048143Y-4553400D01*
G37*
G36*
X10755742Y-8715744D02*
G01*
X10734930Y-8715744D01*
X10734930Y-8694932D01*
X10755742Y-8694932D01*
X10755742Y-8715744D01*
G37*
G36*
X12066880Y-3554439D02*
G01*
X12066880Y-3575250D01*
X12046069Y-3575250D01*
X12046068Y-3554438D01*
X12066880Y-3554439D01*
G37*
G36*
X12358244Y-8341134D02*
G01*
X12358244Y-8361945D01*
X12337433Y-8361945D01*
X12337432Y-8341133D01*
X12358244Y-8341134D01*
G37*
G36*
X15979483Y-4615836D02*
G01*
X15958671Y-4615836D01*
X15958671Y-4595024D01*
X15979483Y-4595024D01*
X15979483Y-4615836D01*
G37*
G36*
X16041918Y-4969635D02*
G01*
X16021106Y-4969635D01*
X16021106Y-4948823D01*
X16041918Y-4948823D01*
X16041918Y-4969635D01*
G37*
G36*
X9316264Y-12677775D02*
G01*
X9313025Y-12689262D01*
X9278018Y-12719308D01*
X9260894Y-12721449D01*
X9278018Y-12694160D01*
X9300599Y-12674523D01*
X9316264Y-12677775D01*
G37*
G36*
X9857369Y-8684527D02*
G01*
X9856809Y-8690067D01*
X9829620Y-8712276D01*
X9820104Y-8709272D01*
X9829620Y-8684527D01*
X9842140Y-8675010D01*
X9857369Y-8684527D01*
G37*
G36*
X9898993Y-11470696D02*
G01*
X9895754Y-11482182D01*
X9860747Y-11512227D01*
X9843622Y-11514369D01*
X9860747Y-11487079D01*
X9883327Y-11467442D01*
X9898993Y-11470696D01*
G37*
G36*
X10202405Y-11419442D02*
G01*
X10195734Y-11431611D01*
X10150376Y-11471471D01*
X10139620Y-11467775D01*
X10165894Y-11434959D01*
X10197424Y-11409231D01*
X10202405Y-11419442D01*
G37*
G36*
X10252792Y-5125723D02*
G01*
X10252232Y-5131264D01*
X10225043Y-5153472D01*
X10215528Y-5150468D01*
X10225043Y-5125722D01*
X10237562Y-5116207D01*
X10252792Y-5125723D01*
G37*
G36*
X10460909Y-5042476D02*
G01*
X10460350Y-5048017D01*
X10433160Y-5070224D01*
X10423645Y-5067221D01*
X10433160Y-5042476D01*
X10445680Y-5032960D01*
X10460909Y-5042476D01*
G37*
G36*
X11000618Y-7783245D02*
G01*
X11022825Y-7810434D01*
X11019822Y-7819950D01*
X10995077Y-7810434D01*
X10985560Y-7797914D01*
X10995076Y-7782685D01*
X11000618Y-7783245D01*
G37*
G36*
X11085260Y-3916042D02*
G01*
X11082022Y-3927529D01*
X11047014Y-3957574D01*
X11029890Y-3959716D01*
X11047014Y-3932427D01*
X11069594Y-3912790D01*
X11085260Y-3916042D01*
G37*
G36*
X11108021Y-8264594D02*
G01*
X11138066Y-8299601D01*
X11140208Y-8316726D01*
X11112919Y-8299601D01*
X11093282Y-8277021D01*
X11096534Y-8261355D01*
X11108021Y-8264594D01*
G37*
G36*
X11168507Y-3960266D02*
G01*
X11167948Y-3965808D01*
X11140758Y-3988015D01*
X11131243Y-3985012D01*
X11140758Y-3960267D01*
X11153278Y-3950751D01*
X11168507Y-3960266D01*
G37*
G36*
X11189320Y-3814585D02*
G01*
X11188760Y-3820125D01*
X11161571Y-3842334D01*
X11152054Y-3839330D01*
X11161570Y-3814585D01*
X11174090Y-3805068D01*
X11189320Y-3814585D01*
G37*
G36*
X11263803Y-9900186D02*
G01*
X11257131Y-9912355D01*
X11211774Y-9952216D01*
X11201017Y-9948520D01*
X11227291Y-9915704D01*
X11258822Y-9889976D01*
X11263803Y-9900186D01*
G37*
G36*
X11293377Y-10203782D02*
G01*
X11292818Y-10209322D01*
X11265629Y-10231531D01*
X11256113Y-10228527D01*
X11265628Y-10203782D01*
X11278149Y-10194267D01*
X11293377Y-10203782D01*
G37*
G36*
X11355813Y-4105949D02*
G01*
X11355253Y-4111490D01*
X11328064Y-4133698D01*
X11318548Y-4130693D01*
X11328065Y-4105949D01*
X11340584Y-4096433D01*
X11355813Y-4105949D01*
G37*
G36*
X11480683Y-3981079D02*
G01*
X11480124Y-3986619D01*
X11452934Y-4008828D01*
X11443418Y-4005823D01*
X11452935Y-3981079D01*
X11465454Y-3971563D01*
X11480683Y-3981079D01*
G37*
G36*
X12500458Y-8205857D02*
G01*
X12499897Y-8211398D01*
X12472709Y-8233606D01*
X12463192Y-8230602D01*
X12472708Y-8205857D01*
X12485228Y-8196341D01*
X12500458Y-8205857D01*
G37*
G36*
X12521269Y-8309916D02*
G01*
X12520710Y-8315456D01*
X12493521Y-8337665D01*
X12484005Y-8334661D01*
X12493520Y-8309916D01*
X12506039Y-8300400D01*
X12521269Y-8309916D01*
G37*
G36*
X12977731Y-4599052D02*
G01*
X12999939Y-4626241D01*
X12996935Y-4635758D01*
X12972190Y-4626242D01*
X12962673Y-4613722D01*
X12972190Y-4598492D01*
X12977731Y-4599052D01*
G37*
G36*
X13395361Y-4022702D02*
G01*
X13394802Y-4028243D01*
X13367612Y-4050451D01*
X13358096Y-4047447D01*
X13367612Y-4022702D01*
X13380132Y-4013186D01*
X13395361Y-4022702D01*
G37*
G36*
X14517798Y-3766584D02*
G01*
X14540006Y-3793773D01*
X14537001Y-3803289D01*
X14512256Y-3793773D01*
X14502741Y-3781253D01*
X14512257Y-3766024D01*
X14517798Y-3766584D01*
G37*
G36*
X15198981Y-4364186D02*
G01*
X15238841Y-4409544D01*
X15235145Y-4420301D01*
X15202330Y-4394027D01*
X15176601Y-4362496D01*
X15186812Y-4357515D01*
X15198981Y-4364186D01*
G37*
G36*
X16974977Y-4353088D02*
G01*
X16971738Y-4364575D01*
X16936730Y-4394620D01*
X16919606Y-4396762D01*
X16936730Y-4369472D01*
X16959310Y-4349835D01*
X16974977Y-4353088D01*
G37*
G36*
X17287153Y-2253706D02*
G01*
X17286593Y-2259247D01*
X17259404Y-2281455D01*
X17249887Y-2278451D01*
X17259403Y-2253706D01*
X17271924Y-2244190D01*
X17287153Y-2253706D01*
G37*
G36*
X9968001Y-4625090D02*
G01*
X9980175Y-4653180D01*
X9945776Y-4677871D01*
X9931250Y-4678548D01*
X9901219Y-4652199D01*
X9901359Y-4633752D01*
X9937683Y-4617917D01*
X9968001Y-4625090D01*
G37*
G36*
X11138358Y-8137142D02*
G01*
X11151294Y-8174090D01*
X11142443Y-8187064D01*
X11110769Y-8175867D01*
X11100668Y-8164953D01*
X11089481Y-8134104D01*
X11128025Y-8132466D01*
X11138358Y-8137142D01*
G37*
G36*
X11557734Y-9930466D02*
G01*
X11534797Y-9950496D01*
X11511616Y-9959262D01*
X11481925Y-9962220D01*
X11479941Y-9948699D01*
X11506690Y-9927740D01*
X11546201Y-9922732D01*
X11557734Y-9930466D01*
G37*
G36*
X11740958Y-7099496D02*
G01*
X11743735Y-7135472D01*
X11725686Y-7198688D01*
X11692944Y-7280410D01*
X11700114Y-7189317D01*
X11708106Y-7117391D01*
X11720304Y-7089032D01*
X11740958Y-7099496D01*
G37*
G36*
X11983792Y-7387323D02*
G01*
X11982404Y-7430620D01*
X11975838Y-7447315D01*
X11964049Y-7430620D01*
X11961229Y-7414951D01*
X11964050Y-7382566D01*
X11967162Y-7379859D01*
X11983792Y-7387323D01*
G37*
G36*
X14253703Y-4288161D02*
G01*
X14250882Y-4329674D01*
X14244315Y-4346368D01*
X14232527Y-4329674D01*
X14231055Y-4322673D01*
X14232451Y-4282942D01*
X14250882Y-4281619D01*
X14253703Y-4288161D01*
G37*
G36*
X14564445Y-4473683D02*
G01*
X14563058Y-4516980D01*
X14556491Y-4533675D01*
X14544703Y-4516981D01*
X14541882Y-4501310D01*
X14544703Y-4468926D01*
X14547815Y-4466218D01*
X14564445Y-4473683D01*
G37*
G36*
X15358232Y-3649641D02*
G01*
X15380138Y-3666446D01*
X15392298Y-3700307D01*
X15368307Y-3717463D01*
X15356255Y-3713064D01*
X15333253Y-3674789D01*
X15331104Y-3645438D01*
X15358232Y-3649641D01*
G37*
G36*
X16043511Y-3289199D02*
G01*
X16040689Y-3330712D01*
X16034123Y-3347406D01*
X16022334Y-3330712D01*
X16020863Y-3323711D01*
X16022259Y-3283981D01*
X16040689Y-3282657D01*
X16043511Y-3289199D01*
G37*
G36*
X16773258Y-4285177D02*
G01*
X16783798Y-4307119D01*
X16741407Y-4338017D01*
X16715338Y-4343488D01*
X16686752Y-4323074D01*
X16688854Y-4300588D01*
X16733016Y-4282447D01*
X16773258Y-4285177D01*
G37*
G36*
X17332794Y-3364806D02*
G01*
X17328117Y-3375138D01*
X17291170Y-3388075D01*
X17278197Y-3379224D01*
X17289393Y-3347549D01*
X17300308Y-3337449D01*
X17331156Y-3326262D01*
X17332794Y-3364806D01*
G37*
G36*
X8969212Y-12237237D02*
G01*
X8978295Y-12265948D01*
X8968316Y-12315105D01*
X8944142Y-12356814D01*
X8932524Y-12352351D01*
X8932750Y-12306837D01*
X8944370Y-12261528D01*
X8965159Y-12236393D01*
X8969212Y-12237237D01*
G37*
G36*
X9059587Y-12076837D02*
G01*
X9064444Y-12083388D01*
X9058359Y-12119688D01*
X9049197Y-12125582D01*
X9028369Y-12108054D01*
X9026413Y-12097554D01*
X9029598Y-12065203D01*
X9032215Y-12063667D01*
X9059587Y-12076837D01*
G37*
G36*
X9457283Y-10243764D02*
G01*
X9445832Y-10275395D01*
X9427779Y-10288353D01*
X9392574Y-10287029D01*
X9388197Y-10281530D01*
X9391346Y-10246634D01*
X9397979Y-10241588D01*
X9444604Y-10234999D01*
X9457283Y-10243764D01*
G37*
G36*
X9621503Y-11223556D02*
G01*
X9625873Y-11229135D01*
X9621503Y-11265179D01*
X9615924Y-11269549D01*
X9579880Y-11265179D01*
X9575510Y-11259600D01*
X9579880Y-11223556D01*
X9585459Y-11219186D01*
X9621503Y-11223556D01*
G37*
G36*
X9735968Y-9693895D02*
G01*
X9748657Y-9703250D01*
X9735968Y-9735518D01*
X9716918Y-9748207D01*
X9694344Y-9735518D01*
X9692314Y-9724956D01*
X9694345Y-9693895D01*
X9698334Y-9691864D01*
X9735968Y-9693895D01*
G37*
G36*
X10419241Y-10044354D02*
G01*
X10386015Y-10083796D01*
X10341241Y-10117587D01*
X10308290Y-10120535D01*
X10300856Y-10097967D01*
X10329126Y-10062796D01*
X10391536Y-10037288D01*
X10407378Y-10034688D01*
X10419241Y-10044354D01*
G37*
G36*
X10443566Y-8174640D02*
G01*
X10455579Y-8191348D01*
X10453972Y-8226669D01*
X10440875Y-8232721D01*
X10401943Y-8216263D01*
X10389929Y-8199554D01*
X10391537Y-8164234D01*
X10404633Y-8158181D01*
X10443566Y-8174640D01*
G37*
G36*
X10451616Y-10740512D02*
G01*
X10464508Y-10775555D01*
X10444805Y-10806070D01*
X10406605Y-10817909D01*
X10380581Y-10794589D01*
X10379383Y-10787007D01*
X10391537Y-10744887D01*
X10412655Y-10732871D01*
X10451616Y-10740512D01*
G37*
G36*
X10725294Y-9647659D02*
G01*
X10693307Y-9693895D01*
X10653921Y-9722947D01*
X10620466Y-9725113D01*
X10619695Y-9698507D01*
X10651683Y-9652271D01*
X10691070Y-9623219D01*
X10724524Y-9621054D01*
X10725294Y-9647659D01*
G37*
G36*
X11255243Y-7493356D02*
G01*
X11306120Y-7550935D01*
X11313639Y-7563897D01*
X11302824Y-7562482D01*
X11260472Y-7524228D01*
X11238693Y-7501912D01*
X11211963Y-7468869D01*
X11222453Y-7468108D01*
X11255243Y-7493356D01*
G37*
G36*
X11348875Y-8164233D02*
G01*
X11353245Y-8169812D01*
X11348876Y-8205857D01*
X11343296Y-8210226D01*
X11307252Y-8205857D01*
X11302882Y-8200277D01*
X11307252Y-8164233D01*
X11312832Y-8159864D01*
X11348875Y-8164233D01*
G37*
G36*
X11692269Y-4407718D02*
G01*
X11693693Y-4417662D01*
X11680635Y-4460976D01*
X11675393Y-4465027D01*
X11640240Y-4459748D01*
X11634264Y-4445831D01*
X11651874Y-4406490D01*
X11669734Y-4394619D01*
X11692269Y-4407718D01*
G37*
G36*
X11711852Y-7528248D02*
G01*
X11722930Y-7542650D01*
X11733892Y-7591911D01*
X11719880Y-7603499D01*
X11683092Y-7582733D01*
X11661789Y-7553299D01*
X11661052Y-7519070D01*
X11673318Y-7512986D01*
X11711852Y-7528248D01*
G37*
G36*
X11754705Y-9007108D02*
G01*
X11766018Y-9011918D01*
X11766339Y-9037097D01*
X11759497Y-9042339D01*
X11723486Y-9038326D01*
X11719015Y-9033377D01*
X11711852Y-9008337D01*
X11716149Y-9005955D01*
X11754705Y-9007108D01*
G37*
G36*
X12265820Y-9122801D02*
G01*
X12271304Y-9135311D01*
X12254185Y-9173602D01*
X12245287Y-9181292D01*
X12205832Y-9186387D01*
X12188281Y-9143516D01*
X12191673Y-9129578D01*
X12224873Y-9109395D01*
X12265820Y-9122801D01*
G37*
G36*
X13161445Y-4536236D02*
G01*
X13207149Y-4557776D01*
X13234925Y-4580099D01*
X13240793Y-4607379D01*
X13222044Y-4610541D01*
X13180307Y-4584618D01*
X13157681Y-4559024D01*
X13146662Y-4535016D01*
X13161445Y-4536236D01*
G37*
G36*
X13669382Y-3762556D02*
G01*
X13680696Y-3767365D01*
X13681016Y-3792545D01*
X13674176Y-3797786D01*
X13638165Y-3793773D01*
X13633693Y-3788825D01*
X13626531Y-3763784D01*
X13630826Y-3761403D01*
X13669382Y-3762556D01*
G37*
G36*
X13829705Y-3989932D02*
G01*
X13836031Y-4052251D01*
X13824391Y-4090060D01*
X13782651Y-4117066D01*
X13730589Y-4094315D01*
X13721811Y-4064014D01*
X13752628Y-4012296D01*
X13796972Y-3979828D01*
X13829705Y-3989932D01*
G37*
G36*
X13927264Y-4126686D02*
G01*
X13937853Y-4169078D01*
X13934645Y-4194005D01*
X13916348Y-4196827D01*
X13913160Y-4193332D01*
X13894842Y-4147572D01*
X13895248Y-4142211D01*
X13916348Y-4119823D01*
X13927264Y-4126686D01*
G37*
G36*
X13958665Y-4522184D02*
G01*
X13951296Y-4558069D01*
X13908717Y-4572131D01*
X13898852Y-4571827D01*
X13879834Y-4559459D01*
X13908717Y-4522183D01*
X13918886Y-4512318D01*
X13950271Y-4493300D01*
X13958665Y-4522184D01*
G37*
G36*
X14056673Y-4562165D02*
G01*
X14045221Y-4593796D01*
X14027168Y-4606755D01*
X13991964Y-4605430D01*
X13987587Y-4599932D01*
X13990736Y-4565035D01*
X13997368Y-4559990D01*
X14043993Y-4553401D01*
X14056673Y-4562165D01*
G37*
G36*
X14051085Y-4127088D02*
G01*
X14079373Y-4168383D01*
X14087843Y-4195272D01*
X14080189Y-4216944D01*
X14066037Y-4209680D01*
X14037749Y-4168384D01*
X14029280Y-4141496D01*
X14036934Y-4119823D01*
X14051085Y-4127088D01*
G37*
G36*
X14190827Y-4098610D02*
G01*
X14189675Y-4137166D01*
X14184865Y-4148480D01*
X14159686Y-4148800D01*
X14154445Y-4141959D01*
X14158457Y-4105949D01*
X14163406Y-4101477D01*
X14188447Y-4094315D01*
X14190827Y-4098610D01*
G37*
G36*
X14314546Y-4823953D02*
G01*
X14325859Y-4828762D01*
X14326180Y-4853942D01*
X14319339Y-4859184D01*
X14283328Y-4855171D01*
X14278857Y-4850222D01*
X14271694Y-4825181D01*
X14275990Y-4822801D01*
X14314546Y-4823953D01*
G37*
G36*
X14397792Y-3367132D02*
G01*
X14399216Y-3377076D01*
X14386159Y-3420390D01*
X14380916Y-3424441D01*
X14345763Y-3419161D01*
X14339788Y-3405245D01*
X14357397Y-3365904D01*
X14375258Y-3354034D01*
X14397792Y-3367132D01*
G37*
G36*
X14379919Y-4606266D02*
G01*
X14398655Y-4619352D01*
X14429290Y-4671359D01*
X14431036Y-4680858D01*
X14422068Y-4694720D01*
X14382502Y-4662343D01*
X14343376Y-4618567D01*
X14338534Y-4595329D01*
X14379919Y-4606266D01*
G37*
G36*
X14482267Y-4554629D02*
G01*
X14493344Y-4569995D01*
X14491445Y-4605430D01*
X14470753Y-4609379D01*
X14427782Y-4583390D01*
X14408595Y-4555342D01*
X14418604Y-4532589D01*
X14434151Y-4531879D01*
X14482267Y-4554629D01*
G37*
G36*
X15008419Y-3692398D02*
G01*
X15031165Y-3716475D01*
X15031360Y-3776887D01*
X15008968Y-3827321D01*
X14977507Y-3835628D01*
X14939967Y-3785433D01*
X14928376Y-3727519D01*
X14954694Y-3689852D01*
X15008419Y-3692398D01*
G37*
G36*
X15126202Y-3242263D02*
G01*
X15138215Y-3258971D01*
X15136608Y-3294292D01*
X15123513Y-3300343D01*
X15084579Y-3283886D01*
X15072566Y-3267176D01*
X15074173Y-3231856D01*
X15087269Y-3225804D01*
X15126202Y-3242263D01*
G37*
G36*
X15563248Y-3325509D02*
G01*
X15564672Y-3335453D01*
X15551614Y-3378766D01*
X15546372Y-3382817D01*
X15511219Y-3377538D01*
X15505244Y-3363622D01*
X15522853Y-3324281D01*
X15540713Y-3312410D01*
X15563248Y-3325509D01*
G37*
G36*
X15772156Y-2859652D02*
G01*
X15745032Y-2893347D01*
X15711459Y-2918175D01*
X15677713Y-2919681D01*
X15671387Y-2912067D01*
X15677715Y-2880948D01*
X15740149Y-2857245D01*
X15752438Y-2854887D01*
X15772156Y-2859652D01*
G37*
G36*
X15863790Y-4396084D02*
G01*
X15875156Y-4420007D01*
X15870118Y-4464724D01*
X15844206Y-4487497D01*
X15835925Y-4485230D01*
X15813518Y-4451582D01*
X15812556Y-4423700D01*
X15832374Y-4390857D01*
X15863790Y-4396084D01*
G37*
G36*
X16125165Y-5052882D02*
G01*
X16126589Y-5062825D01*
X16113531Y-5106139D01*
X16108289Y-5110190D01*
X16073136Y-5104911D01*
X16067161Y-5090994D01*
X16084770Y-5051654D01*
X16102630Y-5039783D01*
X16125165Y-5052882D01*
G37*
G36*
X16251187Y-2246367D02*
G01*
X16250035Y-2284923D01*
X16245225Y-2296237D01*
X16220046Y-2296557D01*
X16214805Y-2289717D01*
X16218817Y-2253706D01*
X16223766Y-2249235D01*
X16248807Y-2242072D01*
X16251187Y-2246367D01*
G37*
G36*
X16358322Y-2563204D02*
G01*
X16372597Y-2601804D01*
X16373414Y-2656271D01*
X16358726Y-2696526D01*
X16342621Y-2688869D01*
X16333270Y-2638479D01*
X16335984Y-2584251D01*
X16349364Y-2558945D01*
X16358322Y-2563204D01*
G37*
G36*
X16529094Y-2481584D02*
G01*
X16544868Y-2523127D01*
X16536868Y-2544798D01*
X16504114Y-2556046D01*
X16478415Y-2532337D01*
X16477257Y-2524839D01*
X16490598Y-2481407D01*
X16497154Y-2476297D01*
X16529094Y-2481584D01*
G37*
G36*
X16716737Y-3489650D02*
G01*
X16703454Y-3510568D01*
X16655073Y-3552855D01*
X16650465Y-3555404D01*
X16641050Y-3552151D01*
X16670327Y-3516872D01*
X16675227Y-3511915D01*
X16710597Y-3482125D01*
X16716737Y-3489650D01*
G37*
G36*
X16776440Y-4567462D02*
G01*
X16755702Y-4583432D01*
X16707893Y-4595024D01*
X16688263Y-4583996D01*
X16703407Y-4562741D01*
X16759922Y-4542995D01*
X16766848Y-4541544D01*
X16796363Y-4540804D01*
X16776440Y-4567462D01*
G37*
G36*
X17862944Y-3231856D02*
G01*
X17867321Y-3237355D01*
X17864171Y-3272252D01*
X17857539Y-3277297D01*
X17810914Y-3283886D01*
X17798234Y-3275122D01*
X17809685Y-3243490D01*
X17827738Y-3230531D01*
X17862944Y-3231856D01*
G37*
G36*
X19413416Y-2055994D02*
G01*
X19412880Y-2076307D01*
X19385855Y-2124542D01*
X19381051Y-2129204D01*
X19358047Y-2143689D01*
X19361387Y-2108023D01*
X19374950Y-2063802D01*
X19396711Y-2035931D01*
X19413416Y-2055994D01*
G37*
G36*
X11506758Y-8247516D02*
G01*
X11549195Y-8289716D01*
X11588211Y-8361945D01*
X11596633Y-8390551D01*
X11581321Y-8388575D01*
X11532441Y-8344873D01*
X11518374Y-8330647D01*
X11479079Y-8278871D01*
X11473746Y-8247481D01*
X11506758Y-8247516D01*
G37*
G36*
X11867619Y-3208825D02*
G01*
X11908752Y-3238182D01*
X11909864Y-3241099D01*
X11891173Y-3255940D01*
X11834163Y-3251735D01*
X11827161Y-3250207D01*
X11773712Y-3231895D01*
X11762082Y-3214073D01*
X11805910Y-3199536D01*
X11867619Y-3208825D01*
G37*
G36*
X14637127Y-3918644D02*
G01*
X14647947Y-3921294D01*
X14700436Y-3944911D01*
X14725608Y-3972806D01*
X14709968Y-3991484D01*
X14681230Y-3987237D01*
X14631015Y-3953517D01*
X14620762Y-3942850D01*
X14605200Y-3917285D01*
X14637127Y-3918644D01*
G37*
G36*
X15847325Y-3618354D02*
G01*
X15854607Y-3679149D01*
X15851953Y-3740168D01*
X15839009Y-3776913D01*
X15823217Y-3765077D01*
X15813001Y-3700364D01*
X15815749Y-3642191D01*
X15830248Y-3599614D01*
X15833400Y-3597590D01*
X15847325Y-3618354D01*
G37*
G36*
X17663463Y-2375781D02*
G01*
X17683783Y-2422648D01*
X17665885Y-2471576D01*
X17635117Y-2482470D01*
X17581985Y-2451417D01*
X17551892Y-2415475D01*
X17552583Y-2380493D01*
X17609250Y-2358153D01*
X17617863Y-2356886D01*
X17663463Y-2375781D01*
G37*
G36*
X9688920Y-10087271D02*
G01*
X9741774Y-10097163D01*
X9739035Y-10122243D01*
X9680853Y-10159024D01*
X9674916Y-10161808D01*
X9617198Y-10179021D01*
X9589512Y-10169284D01*
X9588753Y-10149303D01*
X9619767Y-10105443D01*
X9683938Y-10087236D01*
X9688920Y-10087271D01*
G37*
G36*
X10537219Y-8601280D02*
G01*
X10541696Y-8606209D01*
X10549327Y-8630795D01*
X10542405Y-8641017D01*
X10520190Y-8685378D01*
X10501136Y-8710327D01*
X10479092Y-8684853D01*
X10475420Y-8674276D01*
X10478906Y-8626759D01*
X10504404Y-8595384D01*
X10537219Y-8601280D01*
G37*
G36*
X11183289Y-10301623D02*
G01*
X11189310Y-10322718D01*
X11184422Y-10328667D01*
X11152972Y-10373814D01*
X11108700Y-10442276D01*
X11044432Y-10544502D01*
X11053277Y-10455083D01*
X11075516Y-10370150D01*
X11118823Y-10311598D01*
X11171976Y-10297434D01*
X11183289Y-10301623D01*
G37*
G36*
X11399564Y-7542126D02*
G01*
X11458150Y-7570841D01*
X11495323Y-7610289D01*
X11494558Y-7643941D01*
X11492783Y-7645326D01*
X11457838Y-7637446D01*
X11406427Y-7596796D01*
X11381916Y-7570848D01*
X11364516Y-7541536D01*
X11390499Y-7539882D01*
X11399564Y-7542126D01*
G37*
G36*
X11618622Y-7612809D02*
G01*
X11676426Y-7662241D01*
X11714925Y-7704496D01*
X11723746Y-7724906D01*
X11692269Y-7716782D01*
X11651121Y-7695875D01*
X11583242Y-7646453D01*
X11558830Y-7614103D01*
X11567399Y-7591912D01*
X11573002Y-7591579D01*
X11618622Y-7612809D01*
G37*
G36*
X16235350Y-4174136D02*
G01*
X16211714Y-4210587D01*
X16144195Y-4281067D01*
X16139020Y-4286136D01*
X16072129Y-4347861D01*
X16040717Y-4366978D01*
X16041918Y-4345284D01*
X16076297Y-4282647D01*
X16145222Y-4207885D01*
X16218817Y-4168384D01*
X16235350Y-4174136D01*
G37*
G36*
X17499422Y-3887601D02*
G01*
X17505141Y-3911177D01*
X17469977Y-3957810D01*
X17416820Y-3999097D01*
X17373868Y-4012296D01*
X17373183Y-4012121D01*
X17367465Y-3988545D01*
X17402629Y-3941911D01*
X17455787Y-3900625D01*
X17498738Y-3887426D01*
X17499422Y-3887601D01*
G37*
G36*
X18705818Y-3263074D02*
G01*
X18691789Y-3293238D01*
X18648651Y-3356577D01*
X18603416Y-3396434D01*
X18570541Y-3398350D01*
X18568248Y-3389758D01*
X18589109Y-3348014D01*
X18639642Y-3290551D01*
X18689099Y-3245405D01*
X18712057Y-3234387D01*
X18705818Y-3263074D01*
G37*
G36*
X10893596Y-8867691D02*
G01*
X10955610Y-8877990D01*
X10981202Y-8895095D01*
X10970513Y-8902401D01*
X10916199Y-8911349D01*
X10831357Y-8914843D01*
X10776073Y-8912952D01*
X10718841Y-8902492D01*
X10711575Y-8884781D01*
X10748851Y-8870895D01*
X10817296Y-8865043D01*
X10893596Y-8867691D01*
G37*
G36*
X12550103Y-4799757D02*
G01*
X12575537Y-4851108D01*
X12584581Y-4898161D01*
X12578583Y-4936601D01*
X12537015Y-4951450D01*
X12477280Y-4937196D01*
X12435590Y-4897565D01*
X12429302Y-4879148D01*
X12442331Y-4825775D01*
X12508950Y-4793461D01*
X12510428Y-4793140D01*
X12550103Y-4799757D01*
G37*
G36*
X9946512Y-9009535D02*
G01*
X9959553Y-9042598D01*
X9920781Y-9077457D01*
X9870061Y-9112214D01*
X9802662Y-9169912D01*
X9758894Y-9201771D01*
X9735967Y-9194413D01*
X9737289Y-9181797D01*
X9765934Y-9131444D01*
X9820442Y-9068315D01*
X9868094Y-9024156D01*
X9914507Y-8997863D01*
X9946512Y-9009535D01*
G37*
G36*
X17950858Y-2797869D02*
G01*
X17934823Y-2840911D01*
X17900711Y-2903806D01*
X17852675Y-2975848D01*
X17847801Y-2982430D01*
X17798003Y-3040207D01*
X17775693Y-3048931D01*
X17783784Y-3012812D01*
X17825184Y-2936064D01*
X17873947Y-2863460D01*
X17917736Y-2807979D01*
X17944670Y-2785388D01*
X17950858Y-2797869D01*
G37*
G36*
X11546869Y-9077987D02*
G01*
X11531445Y-9108905D01*
X11488368Y-9157944D01*
X11429722Y-9213213D01*
X11367590Y-9262819D01*
X11314055Y-9294869D01*
X11307208Y-9297550D01*
X11288671Y-9292504D01*
X11308201Y-9247392D01*
X11346964Y-9199058D01*
X11414448Y-9139782D01*
X11485747Y-9092391D01*
X11539478Y-9073012D01*
X11546869Y-9077987D01*
G37*
G36*
X11330412Y-7774235D02*
G01*
X11366619Y-7789364D01*
X11482978Y-7831690D01*
X11587851Y-7862378D01*
X11673469Y-7886517D01*
X11707435Y-7904630D01*
X11691019Y-7913793D01*
X11628425Y-7911774D01*
X11523860Y-7896342D01*
X11475071Y-7886371D01*
X11349185Y-7845533D01*
X11266422Y-7788469D01*
X11194735Y-7714834D01*
X11330412Y-7774235D01*
G37*
G36*
X14326462Y-4440447D02*
G01*
X14331817Y-4452822D01*
X14314546Y-4490965D01*
X14296736Y-4502165D01*
X14254649Y-4493503D01*
X14215198Y-4478019D01*
X14146479Y-4478987D01*
X14096937Y-4481869D01*
X14089104Y-4468849D01*
X14091608Y-4466447D01*
X14139837Y-4446200D01*
X14213175Y-4432950D01*
X14284444Y-4429948D01*
X14326462Y-4440447D01*
G37*
G36*
X14719615Y-4176433D02*
G01*
X14745123Y-4228959D01*
X14763295Y-4304700D01*
X14769230Y-4377722D01*
X14758032Y-4422090D01*
X14744971Y-4428660D01*
X14729480Y-4398612D01*
X14729088Y-4396002D01*
X14717450Y-4334285D01*
X14699644Y-4252400D01*
X14696239Y-4235915D01*
X14693653Y-4181447D01*
X14710130Y-4168465D01*
X14719615Y-4176433D01*
G37*
G36*
X16142236Y-2575736D02*
G01*
X16138674Y-2601162D01*
X16100746Y-2647621D01*
X16048859Y-2708325D01*
X16014054Y-2766947D01*
X15993363Y-2799444D01*
X15960897Y-2786631D01*
X15949195Y-2765520D01*
X15963536Y-2724576D01*
X16019878Y-2660762D01*
X16046326Y-2635635D01*
X16104165Y-2589963D01*
X16140014Y-2574880D01*
X16142236Y-2575736D01*
G37*
G36*
X16057964Y-3444809D02*
G01*
X16062730Y-3492003D01*
X16061875Y-3510909D01*
X16041538Y-3574199D01*
X16004298Y-3633261D01*
X15962758Y-3671163D01*
X15929521Y-3670970D01*
X15926972Y-3665440D01*
X15935880Y-3620764D01*
X15968092Y-3553454D01*
X15970508Y-3549293D01*
X16018693Y-3469013D01*
X16045566Y-3435666D01*
X16057964Y-3444809D01*
G37*
G36*
X18416085Y-2509929D02*
G01*
X18396119Y-2563504D01*
X18382097Y-2592996D01*
X18336403Y-2643216D01*
X18254521Y-2682739D01*
X18144640Y-2724077D01*
X18177462Y-2620956D01*
X18210632Y-2541150D01*
X18246875Y-2511935D01*
X18289364Y-2534445D01*
X18319117Y-2543748D01*
X18372870Y-2524298D01*
X18407881Y-2501501D01*
X18416085Y-2509929D01*
G37*
G36*
X19189652Y-2842651D02*
G01*
X19149673Y-2894793D01*
X19085834Y-2959055D01*
X19010177Y-3023395D01*
X18934747Y-3075768D01*
X18911650Y-3087675D01*
X18906585Y-3079935D01*
X18940444Y-3037882D01*
X19015253Y-2958563D01*
X19023262Y-2950349D01*
X19105101Y-2871954D01*
X19165085Y-2824837D01*
X19194893Y-2815622D01*
X19189652Y-2842651D01*
G37*
G36*
X10259037Y-10698621D02*
G01*
X10221027Y-10748903D01*
X10195794Y-10771124D01*
X10126639Y-10818223D01*
X10050093Y-10859030D01*
X9984641Y-10884314D01*
X9948769Y-10884847D01*
X9950339Y-10864219D01*
X9989811Y-10832237D01*
X10002394Y-10825125D01*
X10072022Y-10780047D01*
X10150571Y-10723275D01*
X10210987Y-10685471D01*
X10252678Y-10676382D01*
X10259037Y-10698621D01*
G37*
G36*
X10848872Y-8968897D02*
G01*
X10855321Y-8987117D01*
X10827263Y-9020631D01*
X10777906Y-9058775D01*
X10720453Y-9090887D01*
X10668108Y-9106304D01*
X10613090Y-9106814D01*
X10576651Y-9098570D01*
X10575728Y-9096570D01*
X10597613Y-9074602D01*
X10653077Y-9041736D01*
X10723966Y-9006995D01*
X10792128Y-8979403D01*
X10839406Y-8967982D01*
X10848872Y-8968897D01*
G37*
G36*
X10910787Y-7626489D02*
G01*
X10977223Y-7667679D01*
X11056487Y-7728773D01*
X11067411Y-7737983D01*
X11133605Y-7794372D01*
X11156419Y-7816337D01*
X11137462Y-7806826D01*
X11078346Y-7768788D01*
X11050841Y-7750908D01*
X10965820Y-7696305D01*
X10900519Y-7655252D01*
X10899123Y-7654392D01*
X10861937Y-7624967D01*
X10878659Y-7615237D01*
X10910787Y-7626489D01*
G37*
G36*
X12088417Y-3625376D02*
G01*
X12128000Y-3677252D01*
X12191664Y-3741100D01*
X12306714Y-3793934D01*
X12328406Y-3801186D01*
X12406541Y-3833182D01*
X12434301Y-3855708D01*
X12410134Y-3864959D01*
X12332486Y-3857126D01*
X12258355Y-3834410D01*
X12152415Y-3764465D01*
X12081215Y-3668378D01*
X12074583Y-3652452D01*
X12068088Y-3616630D01*
X12088417Y-3625376D01*
G37*
G36*
X16916010Y-3741743D02*
G01*
X16916754Y-3748989D01*
X16929304Y-3781475D01*
X16962681Y-3762294D01*
X16971897Y-3755946D01*
X16968827Y-3773029D01*
X16937021Y-3825189D01*
X16887834Y-3893529D01*
X16858188Y-3919329D01*
X16852323Y-3892593D01*
X16868035Y-3812928D01*
X16881764Y-3758200D01*
X16898876Y-3703563D01*
X16909274Y-3699587D01*
X16916010Y-3741743D01*
G37*
G36*
X17436492Y-1968962D02*
G01*
X17432864Y-2017121D01*
X17421965Y-2036147D01*
X17395357Y-2015049D01*
X17365121Y-1996342D01*
X17353469Y-2030735D01*
X17342675Y-2066790D01*
X17307457Y-2065101D01*
X17289261Y-2054412D01*
X17266341Y-2021909D01*
X17270411Y-2003302D01*
X17302973Y-1967951D01*
X17378108Y-1920984D01*
X17440635Y-1885885D01*
X17436492Y-1968962D01*
G37*
G36*
X11325837Y-7308727D02*
G01*
X11377724Y-7344766D01*
X11429242Y-7349697D01*
X11451896Y-7343157D01*
X11493458Y-7351477D01*
X11490800Y-7372673D01*
X11437571Y-7401257D01*
X11381185Y-7411546D01*
X11342782Y-7389864D01*
X11321161Y-7363307D01*
X11263315Y-7331064D01*
X11258295Y-7329509D01*
X11220494Y-7308858D01*
X11233679Y-7280468D01*
X11268108Y-7270302D01*
X11325837Y-7308727D01*
G37*
G36*
X11010094Y-9919427D02*
G01*
X10987410Y-9935766D01*
X10915669Y-9981514D01*
X10871049Y-10000816D01*
X10860865Y-9991650D01*
X10892434Y-9951989D01*
X10905725Y-9938089D01*
X10921466Y-9911784D01*
X10891018Y-9912417D01*
X10884113Y-9913864D01*
X10854604Y-9914590D01*
X10874567Y-9887883D01*
X10878602Y-9884278D01*
X10935394Y-9858962D01*
X11016270Y-9844279D01*
X11123031Y-9836252D01*
X11010094Y-9919427D01*
G37*
G36*
X14350991Y-3736515D02*
G01*
X14357742Y-3752058D01*
X14389644Y-3821832D01*
X14430055Y-3907192D01*
X14446699Y-3942762D01*
X14473161Y-4005648D01*
X14480345Y-4033801D01*
X14477364Y-4035302D01*
X14447887Y-4017025D01*
X14403542Y-3967155D01*
X14356360Y-3902016D01*
X14318370Y-3837935D01*
X14301603Y-3791237D01*
X14301080Y-3781263D01*
X14306835Y-3720141D01*
X14325757Y-3702693D01*
X14350991Y-3736515D01*
G37*
G36*
X14695922Y-3416347D02*
G01*
X14676625Y-3455697D01*
X14617543Y-3521992D01*
X14603486Y-3535924D01*
X14542805Y-3589642D01*
X14504301Y-3605519D01*
X14474795Y-3589818D01*
X14457099Y-3566158D01*
X14437335Y-3502409D01*
X14440593Y-3465130D01*
X14468252Y-3431932D01*
X14533068Y-3439974D01*
X14577625Y-3445681D01*
X14626225Y-3430064D01*
X14639718Y-3419646D01*
X14689156Y-3408756D01*
X14695922Y-3416347D01*
G37*
G36*
X10994850Y-10443909D02*
G01*
X11005543Y-10530214D01*
X11004911Y-10572918D01*
X10996630Y-10642535D01*
X10981661Y-10672756D01*
X10973255Y-10676929D01*
X10963729Y-10713119D01*
X10965075Y-10740420D01*
X10942928Y-10771080D01*
X10905317Y-10759186D01*
X10902125Y-10755266D01*
X10886794Y-10701649D01*
X10882613Y-10619289D01*
X10889429Y-10533498D01*
X10907086Y-10469590D01*
X10932833Y-10429176D01*
X10969159Y-10409335D01*
X10994850Y-10443909D01*
G37*
G36*
X18450140Y-2739106D02*
G01*
X18456077Y-2784404D01*
X18446961Y-2797095D01*
X18414950Y-2784901D01*
X18411178Y-2781253D01*
X18383553Y-2771625D01*
X18363060Y-2813521D01*
X18351679Y-2842811D01*
X18314448Y-2902085D01*
X18272708Y-2941530D01*
X18241716Y-2944654D01*
X18233752Y-2930564D01*
X18225067Y-2878057D01*
X18230672Y-2838691D01*
X18269144Y-2789038D01*
X18354380Y-2747101D01*
X18401156Y-2733191D01*
X18450140Y-2739106D01*
G37*
G36*
X10114087Y-4265545D02*
G01*
X10112519Y-4268789D01*
X10087113Y-4327472D01*
X10055906Y-4406151D01*
X10052969Y-4413543D01*
X10010589Y-4487542D01*
X9962296Y-4533937D01*
X9934822Y-4547313D01*
X9912585Y-4544832D01*
X9915437Y-4496408D01*
X9923652Y-4451381D01*
X9945358Y-4411834D01*
X9982750Y-4416646D01*
X10011728Y-4414443D01*
X10035146Y-4364250D01*
X10055217Y-4316526D01*
X10095245Y-4259845D01*
X10121565Y-4240549D01*
X10114087Y-4265545D01*
G37*
G36*
X11010402Y-7434384D02*
G01*
X11065956Y-7496186D01*
X11095306Y-7532780D01*
X11133206Y-7567028D01*
X11149954Y-7555414D01*
X11161397Y-7538252D01*
X11195722Y-7553222D01*
X11214394Y-7581682D01*
X11182705Y-7589830D01*
X11137185Y-7580433D01*
X11055910Y-7552161D01*
X10964534Y-7514073D01*
X10885104Y-7475446D01*
X10839667Y-7445550D01*
X10841689Y-7433867D01*
X10883568Y-7432867D01*
X10925659Y-7433822D01*
X10969376Y-7419901D01*
X10974069Y-7417128D01*
X11010402Y-7434384D01*
G37*
G36*
X14995457Y-2878885D02*
G01*
X15004245Y-2896864D01*
X15040866Y-2963618D01*
X15089016Y-3045473D01*
X15137781Y-3128728D01*
X15158606Y-3176706D01*
X15150254Y-3194116D01*
X15114381Y-3190443D01*
X15068829Y-3174705D01*
X15030628Y-3138010D01*
X15042955Y-3096580D01*
X15056907Y-3079340D01*
X15052433Y-3046809D01*
X14992136Y-3023481D01*
X14959523Y-3005731D01*
X14938448Y-2941892D01*
X14938059Y-2926915D01*
X14947109Y-2867168D01*
X14968960Y-2848152D01*
X14995457Y-2878885D01*
G37*
G36*
X15953267Y-3000212D02*
G01*
X15973955Y-3033879D01*
X15941948Y-3091014D01*
X15925326Y-3113456D01*
X15898633Y-3169674D01*
X15891618Y-3185301D01*
X15855162Y-3200769D01*
X15814397Y-3212279D01*
X15759732Y-3253896D01*
X15710493Y-3290960D01*
X15677713Y-3294292D01*
X15673217Y-3289535D01*
X15661791Y-3267963D01*
X15664404Y-3263635D01*
X15685546Y-3222429D01*
X15719469Y-3153281D01*
X15764619Y-3075606D01*
X15837070Y-3008588D01*
X15922084Y-2992989D01*
X15953267Y-3000212D01*
G37*
G36*
X10835630Y-10609075D02*
G01*
X10849934Y-10717174D01*
X10850518Y-10723074D01*
X10857511Y-10816241D01*
X10849904Y-10872403D01*
X10819970Y-10912052D01*
X10759979Y-10955681D01*
X10734115Y-10973373D01*
X10665906Y-11022095D01*
X10624841Y-11054500D01*
X10610795Y-11062896D01*
X10579895Y-11048761D01*
X10584982Y-11013642D01*
X10616659Y-10944187D01*
X10668313Y-10857805D01*
X10716880Y-10778777D01*
X10763768Y-10689002D01*
X10787469Y-10625579D01*
X10803409Y-10567040D01*
X10820051Y-10558926D01*
X10835630Y-10609075D01*
G37*
G36*
X14570122Y-4733241D02*
G01*
X14602636Y-4750532D01*
X14638574Y-4749665D01*
X14647517Y-4744388D01*
X14683791Y-4756477D01*
X14686721Y-4760172D01*
X14692452Y-4805892D01*
X14677770Y-4867898D01*
X14651165Y-4921209D01*
X14621125Y-4940850D01*
X14599486Y-4941297D01*
X14542609Y-4958364D01*
X14510935Y-4965323D01*
X14458624Y-4947220D01*
X14454971Y-4943376D01*
X14446503Y-4910408D01*
X14489127Y-4874398D01*
X14534923Y-4831171D01*
X14537394Y-4766577D01*
X14521033Y-4697453D01*
X14570122Y-4733241D01*
G37*
G36*
X15177437Y-4477834D02*
G01*
X15231139Y-4507640D01*
X15248818Y-4518226D01*
X15325395Y-4556802D01*
X15381850Y-4574761D01*
X15393710Y-4576636D01*
X15414402Y-4599311D01*
X15397317Y-4656206D01*
X15390927Y-4669994D01*
X15325288Y-4768046D01*
X15246305Y-4812761D01*
X15219462Y-4811113D01*
X15195427Y-4778030D01*
X15174040Y-4698873D01*
X15168237Y-4667025D01*
X15163084Y-4591184D01*
X15173287Y-4548455D01*
X15181669Y-4528815D01*
X15164714Y-4483672D01*
X15159125Y-4475302D01*
X15177437Y-4477834D01*
G37*
G36*
X14855767Y-3851732D02*
G01*
X14897274Y-3908237D01*
X14912920Y-3931393D01*
X14948135Y-3964065D01*
X14978867Y-3951514D01*
X15002038Y-3939676D01*
X15047840Y-3955382D01*
X15050868Y-3958488D01*
X15067743Y-3983592D01*
X15033934Y-3980861D01*
X15027759Y-3979522D01*
X14996269Y-3981354D01*
X15006011Y-4019189D01*
X15014902Y-4048491D01*
X15009511Y-4087363D01*
X14987456Y-4089670D01*
X14943906Y-4057676D01*
X14896915Y-3998518D01*
X14859970Y-3926688D01*
X14849608Y-3897313D01*
X14839246Y-3848404D01*
X14855767Y-3851732D01*
G37*
G36*
X17600716Y-2586693D02*
G01*
X17610353Y-2642214D01*
X17642761Y-2648862D01*
X17700611Y-2603342D01*
X17702012Y-2601947D01*
X17749357Y-2562898D01*
X17766567Y-2566662D01*
X17755413Y-2606754D01*
X17717666Y-2676691D01*
X17655098Y-2769986D01*
X17597826Y-2844675D01*
X17544081Y-2905752D01*
X17511422Y-2932006D01*
X17510695Y-2932129D01*
X17502451Y-2908236D01*
X17509843Y-2842337D01*
X17531385Y-2748135D01*
X17543040Y-2705420D01*
X17571663Y-2605595D01*
X17589310Y-2556040D01*
X17598241Y-2551493D01*
X17600716Y-2586693D01*
G37*
G36*
X9877979Y-9366663D02*
G01*
X9896655Y-9386091D01*
X9863640Y-9412161D01*
X9837388Y-9429464D01*
X9858475Y-9443597D01*
X9866559Y-9445699D01*
X9877683Y-9456959D01*
X9835576Y-9473569D01*
X9786635Y-9495462D01*
X9717752Y-9545616D01*
X9675565Y-9576822D01*
X9627248Y-9588736D01*
X9617428Y-9584611D01*
X9623429Y-9561792D01*
X9678993Y-9518066D01*
X9720593Y-9487458D01*
X9748793Y-9452698D01*
X9736910Y-9424285D01*
X9717020Y-9396242D01*
X9733789Y-9371474D01*
X9805192Y-9360569D01*
X9814781Y-9360205D01*
X9877979Y-9366663D01*
G37*
G36*
X10702627Y-7584915D02*
G01*
X10759502Y-7616483D01*
X10788481Y-7650177D01*
X10779901Y-7671880D01*
X10722382Y-7693828D01*
X10652270Y-7728435D01*
X10623254Y-7780009D01*
X10617693Y-7800678D01*
X10592327Y-7835400D01*
X10562138Y-7815982D01*
X10533552Y-7744940D01*
X10529787Y-7730193D01*
X10523543Y-7690803D01*
X10533994Y-7699195D01*
X10552053Y-7722016D01*
X10581443Y-7724586D01*
X10588528Y-7701799D01*
X10572812Y-7649971D01*
X10556996Y-7616978D01*
X10553616Y-7585920D01*
X10567233Y-7577277D01*
X10628790Y-7570400D01*
X10702627Y-7584915D01*
G37*
G36*
X16151070Y-3715838D02*
G01*
X16172624Y-3773762D01*
X16142698Y-3828269D01*
X16113777Y-3870174D01*
X16072580Y-3955257D01*
X16033948Y-4058061D01*
X15999911Y-4158051D01*
X15953152Y-4273928D01*
X15916334Y-4333568D01*
X15888935Y-4337982D01*
X15864138Y-4305097D01*
X15841968Y-4247311D01*
X15847575Y-4206639D01*
X15858106Y-4190241D01*
X15886487Y-4129643D01*
X15920502Y-4044684D01*
X15936896Y-4001751D01*
X15980848Y-3892497D01*
X16019682Y-3802755D01*
X16056874Y-3726869D01*
X16090196Y-3680418D01*
X16118707Y-3678652D01*
X16151070Y-3715838D01*
G37*
G36*
X10198779Y-9590361D02*
G01*
X10246498Y-9606397D01*
X10238371Y-9634795D01*
X10175128Y-9672134D01*
X10155720Y-9681336D01*
X10081235Y-9727677D01*
X10037492Y-9773246D01*
X10036141Y-9806762D01*
X10042285Y-9810772D01*
X10093718Y-9825243D01*
X10172934Y-9836101D01*
X10290513Y-9846226D01*
X10207961Y-9902347D01*
X10163757Y-9931765D01*
X10113370Y-9954500D01*
X10071757Y-9942643D01*
X10013881Y-9895286D01*
X9960068Y-9833309D01*
X9949206Y-9762742D01*
X9991801Y-9679176D01*
X9998590Y-9670170D01*
X10082924Y-9603666D01*
X10192666Y-9589729D01*
X10198779Y-9590361D01*
G37*
G36*
X18954348Y-2008853D02*
G01*
X18955690Y-2054583D01*
X18940420Y-2090158D01*
X18895866Y-2155462D01*
X18830324Y-2238420D01*
X18752066Y-2329960D01*
X18669362Y-2421011D01*
X18590483Y-2502498D01*
X18523701Y-2565348D01*
X18477287Y-2600491D01*
X18459512Y-2598850D01*
X18462701Y-2584924D01*
X18492393Y-2526196D01*
X18546651Y-2440291D01*
X18617370Y-2340474D01*
X18618899Y-2338421D01*
X18709375Y-2223157D01*
X18774158Y-2154006D01*
X18811115Y-2133247D01*
X18831847Y-2128863D01*
X18851044Y-2081703D01*
X18859346Y-2049548D01*
X18908877Y-2008862D01*
X18925646Y-2004497D01*
X18954348Y-2008853D01*
G37*
G36*
X10691507Y-6891288D02*
G01*
X10700698Y-6913318D01*
X10656777Y-6951841D01*
X10624928Y-6977133D01*
X10618662Y-7009567D01*
X10658176Y-7057300D01*
X10701159Y-7119716D01*
X10721552Y-7193516D01*
X10720626Y-7231994D01*
X10709343Y-7252902D01*
X10674192Y-7233444D01*
X10644012Y-7216236D01*
X10588268Y-7199549D01*
X10556134Y-7195075D01*
X10532537Y-7174084D01*
X10560241Y-7147637D01*
X10573080Y-7139358D01*
X10583730Y-7105117D01*
X10565837Y-7041848D01*
X10517343Y-6939577D01*
X10516064Y-6937088D01*
X10503835Y-6903057D01*
X10524202Y-6888772D01*
X10590302Y-6884280D01*
X10627279Y-6883795D01*
X10691507Y-6891288D01*
G37*
G36*
X13201841Y-3292511D02*
G01*
X13258419Y-3333772D01*
X13317729Y-3392851D01*
X13362928Y-3452532D01*
X13377168Y-3495604D01*
X13375632Y-3500662D01*
X13356142Y-3503313D01*
X13317614Y-3453555D01*
X13314125Y-3448165D01*
X13277194Y-3399206D01*
X13255991Y-3385101D01*
X13246348Y-3400397D01*
X13225538Y-3464821D01*
X13208356Y-3551696D01*
X13199138Y-3636162D01*
X13202221Y-3693357D01*
X13208056Y-3750654D01*
X13188591Y-3780496D01*
X13152108Y-3765574D01*
X13149877Y-3762616D01*
X13137716Y-3713724D01*
X13130640Y-3625450D01*
X13130120Y-3514593D01*
X13130855Y-3493553D01*
X13139232Y-3389814D01*
X13153128Y-3314917D01*
X13169953Y-3283874D01*
X13201841Y-3292511D01*
G37*
G36*
X17609735Y-3237725D02*
G01*
X17624992Y-3261771D01*
X17606037Y-3300820D01*
X17546707Y-3365591D01*
X17527691Y-3386298D01*
X17465353Y-3475499D01*
X17409091Y-3583687D01*
X17365815Y-3694052D01*
X17342436Y-3789786D01*
X17345864Y-3854080D01*
X17350178Y-3880916D01*
X17326946Y-3932850D01*
X17308043Y-3946287D01*
X17296599Y-3929212D01*
X17299764Y-3862718D01*
X17301229Y-3844753D01*
X17291460Y-3762082D01*
X17243937Y-3702833D01*
X17213401Y-3675097D01*
X17197826Y-3632317D01*
X17225695Y-3572758D01*
X17267223Y-3518359D01*
X17339003Y-3438170D01*
X17422527Y-3353798D01*
X17460701Y-3317863D01*
X17532273Y-3257297D01*
X17578714Y-3232592D01*
X17609735Y-3237725D01*
G37*
G36*
X13675366Y-4150794D02*
G01*
X13732719Y-4193034D01*
X13783080Y-4255316D01*
X13806469Y-4291098D01*
X13831802Y-4304502D01*
X13858799Y-4270281D01*
X13885866Y-4237849D01*
X13921071Y-4243173D01*
X13928986Y-4273434D01*
X13898311Y-4324472D01*
X13857499Y-4352915D01*
X13811839Y-4342058D01*
X13794292Y-4326470D01*
X13779175Y-4331818D01*
X13773514Y-4385430D01*
X13771923Y-4401136D01*
X13745514Y-4462828D01*
X13700142Y-4490965D01*
X13652110Y-4473692D01*
X13643233Y-4447674D01*
X13680410Y-4405809D01*
X13686044Y-4401772D01*
X13727776Y-4340159D01*
X13720095Y-4268511D01*
X13664431Y-4204792D01*
X13627217Y-4172394D01*
X13618836Y-4146088D01*
X13628830Y-4140442D01*
X13675366Y-4150794D01*
G37*
G36*
X18115267Y-3434334D02*
G01*
X18085281Y-3499457D01*
X18030753Y-3579119D01*
X17960990Y-3659839D01*
X17885297Y-3728131D01*
X17851925Y-3752964D01*
X17746681Y-3819314D01*
X17672065Y-3842443D01*
X17622876Y-3824259D01*
X17605719Y-3813699D01*
X17562402Y-3823762D01*
X17547999Y-3834840D01*
X17498739Y-3845802D01*
X17493496Y-3844314D01*
X17479520Y-3823280D01*
X17506117Y-3792014D01*
X17560026Y-3758898D01*
X17627986Y-3732313D01*
X17696739Y-3720642D01*
X17813772Y-3718074D01*
X17738079Y-3684034D01*
X17662387Y-3649993D01*
X17788100Y-3580824D01*
X17819411Y-3563151D01*
X17919986Y-3502012D01*
X18003785Y-3445540D01*
X18020528Y-3433793D01*
X18079449Y-3401778D01*
X18112825Y-3398491D01*
X18115267Y-3434334D01*
G37*
G36*
X16704424Y-2753278D02*
G01*
X16716528Y-2770710D01*
X16765778Y-2785577D01*
X16809152Y-2797197D01*
X16874844Y-2829998D01*
X16938201Y-2872334D01*
X16982283Y-2912601D01*
X16990144Y-2939200D01*
X16988696Y-2940724D01*
X16959631Y-2978277D01*
X16916407Y-3039744D01*
X16859571Y-3123388D01*
X16855062Y-3019960D01*
X16849363Y-2969605D01*
X16820087Y-2903622D01*
X16774111Y-2889136D01*
X16719751Y-2926345D01*
X16665321Y-3015447D01*
X16634023Y-3069211D01*
X16604942Y-3093054D01*
X16595263Y-3089007D01*
X16585329Y-3049736D01*
X16593129Y-2985595D01*
X16614816Y-2917550D01*
X16646535Y-2866574D01*
X16674646Y-2829619D01*
X16687081Y-2784404D01*
X16685321Y-2774086D01*
X16691778Y-2738085D01*
X16694970Y-2735796D01*
X16704424Y-2753278D01*
G37*
G36*
X16180412Y-2743574D02*
G01*
X16187568Y-2804163D01*
X16187785Y-2811514D01*
X16190861Y-2866977D01*
X16205170Y-2887301D01*
X16244647Y-2875685D01*
X16323227Y-2835334D01*
X16346295Y-2826399D01*
X16367114Y-2840824D01*
X16383268Y-2900163D01*
X16384948Y-2908610D01*
X16389392Y-2981700D01*
X16370027Y-3010864D01*
X16330559Y-2989799D01*
X16318556Y-2981807D01*
X16278334Y-2993760D01*
X16224605Y-3056513D01*
X16154916Y-3172621D01*
X16125947Y-3207118D01*
X16074686Y-3207572D01*
X16071643Y-3206166D01*
X16027259Y-3159805D01*
X16031051Y-3097194D01*
X16082323Y-3034155D01*
X16095484Y-3023079D01*
X16135913Y-2960113D01*
X16145901Y-2864145D01*
X16145815Y-2839506D01*
X16151458Y-2764973D01*
X16163904Y-2724854D01*
X16166805Y-2722962D01*
X16180412Y-2743574D01*
G37*
G36*
X10076809Y-11507306D02*
G01*
X10060085Y-11544836D01*
X10002140Y-11616869D01*
X9903020Y-11721463D01*
X9837724Y-11789094D01*
X9694552Y-11955994D01*
X9592992Y-12105038D01*
X9496872Y-12273748D01*
X9323243Y-12273748D01*
X9244224Y-12273748D01*
X9320012Y-12197959D01*
X9399031Y-12197959D01*
X9423791Y-12212113D01*
X9434228Y-12213998D01*
X9467872Y-12209657D01*
X9469363Y-12205454D01*
X9444603Y-12191301D01*
X9434167Y-12189416D01*
X9400523Y-12193758D01*
X9399031Y-12197959D01*
X9320012Y-12197959D01*
X9342679Y-12175292D01*
X9373373Y-12143383D01*
X9421970Y-12086072D01*
X9441135Y-12052556D01*
X9446293Y-12040486D01*
X9484886Y-11992169D01*
X9552536Y-11920406D01*
X9638856Y-11835287D01*
X9733465Y-11746905D01*
X9825978Y-11665355D01*
X9906010Y-11600727D01*
X9986402Y-11543514D01*
X10052264Y-11506218D01*
X10076809Y-11507306D01*
G37*
G36*
X10859971Y-10174392D02*
G01*
X10870048Y-10208237D01*
X10906736Y-10228503D01*
X10985719Y-10235022D01*
X10998858Y-10235447D01*
X11077236Y-10247213D01*
X11103558Y-10267444D01*
X11076527Y-10287223D01*
X10994843Y-10297635D01*
X10888374Y-10313486D01*
X10748203Y-10361495D01*
X10617442Y-10430677D01*
X10520815Y-10509959D01*
X10483776Y-10548620D01*
X10443278Y-10571886D01*
X10410545Y-10555777D01*
X10403715Y-10547820D01*
X10394201Y-10490728D01*
X10432279Y-10423091D01*
X10512419Y-10355764D01*
X10555820Y-10326106D01*
X10568949Y-10306246D01*
X10537783Y-10298454D01*
X10506392Y-10290809D01*
X10481721Y-10265856D01*
X10497533Y-10221683D01*
X10531299Y-10201586D01*
X10560146Y-10219996D01*
X10563947Y-10226646D01*
X10603475Y-10238036D01*
X10679167Y-10208195D01*
X10693589Y-10200559D01*
X10767540Y-10161552D01*
X10817145Y-10135627D01*
X10817968Y-10135206D01*
X10848478Y-10131635D01*
X10859971Y-10174392D01*
G37*
G36*
X18320150Y-3636722D02*
G01*
X18278160Y-3681528D01*
X18204224Y-3758268D01*
X18087409Y-3874436D01*
X17943155Y-4009163D01*
X17784361Y-4150544D01*
X17616874Y-4293992D01*
X17446535Y-4434919D01*
X17279192Y-4568742D01*
X17120688Y-4690874D01*
X16976869Y-4796730D01*
X16853579Y-4881723D01*
X16756664Y-4941267D01*
X16691967Y-4970778D01*
X16665333Y-4965670D01*
X16666876Y-4955855D01*
X16699335Y-4914674D01*
X16761134Y-4864275D01*
X16803414Y-4832350D01*
X16894317Y-4754139D01*
X16981123Y-4669772D01*
X17014018Y-4635830D01*
X17069987Y-4584903D01*
X17103816Y-4570403D01*
X17126359Y-4586077D01*
X17130802Y-4590967D01*
X17151333Y-4596749D01*
X17185205Y-4586373D01*
X17236181Y-4556888D01*
X17308019Y-4505348D01*
X17404479Y-4428807D01*
X17529324Y-4324315D01*
X17686313Y-4188925D01*
X17879206Y-4019691D01*
X18111763Y-3813663D01*
X18121232Y-3805249D01*
X18230734Y-3708114D01*
X18298807Y-3648594D01*
X18327823Y-3625271D01*
X18320150Y-3636722D01*
G37*
G36*
X10362692Y-11735815D02*
G01*
X10117916Y-12029941D01*
X9906512Y-12306493D01*
X9732356Y-12563081D01*
X9590497Y-12807574D01*
X9475986Y-13047842D01*
X9383870Y-13291755D01*
X9366736Y-13341660D01*
X9327785Y-13443795D01*
X9294669Y-13516048D01*
X9273144Y-13545234D01*
X9250943Y-13543706D01*
X9198362Y-13504693D01*
X9145184Y-13427978D01*
X9101496Y-13326420D01*
X9089224Y-13286672D01*
X9071400Y-13198101D01*
X9082797Y-13144233D01*
X9124834Y-13112007D01*
X9149359Y-13104036D01*
X9168269Y-13119512D01*
X9174944Y-13180051D01*
X9175148Y-13184027D01*
X9184658Y-13255381D01*
X9202678Y-13334440D01*
X9224242Y-13404840D01*
X9244384Y-13450213D01*
X9258137Y-13454192D01*
X9268796Y-13424593D01*
X9293574Y-13352549D01*
X9325492Y-13257941D01*
X9383363Y-13108781D01*
X9492306Y-12883448D01*
X9633001Y-12634842D01*
X9799590Y-12373151D01*
X9986217Y-12108562D01*
X10031509Y-12052722D01*
X10114266Y-11959421D01*
X10216153Y-11850366D01*
X10324567Y-11739315D01*
X10574318Y-11489585D01*
X10362692Y-11735815D01*
G37*
G36*
X19287304Y-2111879D02*
G01*
X19280302Y-2162118D01*
X19242147Y-2227263D01*
X19236678Y-2232854D01*
X19211681Y-2273889D01*
X19236963Y-2299690D01*
X19248402Y-2305462D01*
X19259251Y-2323272D01*
X19234249Y-2351905D01*
X19166348Y-2401522D01*
X19093450Y-2457485D01*
X18994021Y-2543119D01*
X18898309Y-2633537D01*
X18888107Y-2643689D01*
X18815135Y-2713280D01*
X18760958Y-2759803D01*
X18736657Y-2773655D01*
X18713991Y-2785357D01*
X18669612Y-2826255D01*
X18619967Y-2880106D01*
X18581337Y-2930476D01*
X18572335Y-2942255D01*
X18529252Y-2982450D01*
X18523468Y-2986219D01*
X18516806Y-2977229D01*
X18536841Y-2934015D01*
X18577078Y-2867507D01*
X18631021Y-2788634D01*
X18692174Y-2708326D01*
X18724810Y-2666821D01*
X18768301Y-2606497D01*
X18785416Y-2574917D01*
X18785532Y-2574137D01*
X18808923Y-2544924D01*
X18865078Y-2489765D01*
X18942587Y-2419911D01*
X19035077Y-2339194D01*
X19125000Y-2259464D01*
X19184133Y-2204252D01*
X19220387Y-2165646D01*
X19241676Y-2135735D01*
X19255910Y-2106606D01*
X19265369Y-2085302D01*
X19279700Y-2069958D01*
X19287304Y-2111879D01*
G37*
G36*
X15479857Y-3594502D02*
G01*
X15498411Y-3640129D01*
X15563152Y-3700058D01*
X15593130Y-3721218D01*
X15628783Y-3770560D01*
X15629898Y-3845366D01*
X15628933Y-3858287D01*
X15641407Y-3951381D01*
X15677837Y-4043728D01*
X15686234Y-4058980D01*
X15734576Y-4193162D01*
X15746568Y-4330770D01*
X15719848Y-4449011D01*
X15672292Y-4547124D01*
X15609316Y-4661258D01*
X15559246Y-4732230D01*
X15524737Y-4757343D01*
X15508446Y-4733896D01*
X15513028Y-4659192D01*
X15513964Y-4652743D01*
X15514255Y-4577216D01*
X15496642Y-4528417D01*
X15489859Y-4516752D01*
X15476627Y-4456307D01*
X15468970Y-4368126D01*
X15467512Y-4273722D01*
X15472880Y-4194603D01*
X15485698Y-4152281D01*
X15488381Y-4145986D01*
X15485424Y-4097325D01*
X15467478Y-4021949D01*
X15461396Y-3999519D01*
X15448919Y-3918273D01*
X15450800Y-3850536D01*
X15465356Y-3811182D01*
X15490903Y-3815081D01*
X15500403Y-3821275D01*
X15521625Y-3804178D01*
X15517010Y-3774598D01*
X15482936Y-3723866D01*
X15456006Y-3687707D01*
X15436297Y-3627280D01*
X15436673Y-3615127D01*
X15448319Y-3568258D01*
X15466944Y-3558200D01*
X15479857Y-3594502D01*
G37*
G36*
X13853883Y-3401155D02*
G01*
X13915012Y-3430278D01*
X13991305Y-3449488D01*
X14035290Y-3461249D01*
X14077613Y-3498456D01*
X14081332Y-3509316D01*
X14075437Y-3557806D01*
X14044543Y-3588791D01*
X14006026Y-3581999D01*
X13997155Y-3574336D01*
X13936846Y-3528798D01*
X13876452Y-3490654D01*
X13838945Y-3474660D01*
X13832227Y-3484784D01*
X13824939Y-3538297D01*
X13823940Y-3622413D01*
X13824703Y-3675254D01*
X13822446Y-3748273D01*
X13816462Y-3781970D01*
X13811714Y-3782497D01*
X13776184Y-3760057D01*
X13721412Y-3710526D01*
X13683129Y-3673184D01*
X13641266Y-3643111D01*
X13618485Y-3656875D01*
X13601460Y-3714971D01*
X13588201Y-3751259D01*
X13547366Y-3785157D01*
X13499131Y-3769307D01*
X13457786Y-3704728D01*
X13450617Y-3684884D01*
X13436810Y-3630469D01*
X13449975Y-3627481D01*
X13489001Y-3676909D01*
X13512779Y-3709421D01*
X13535112Y-3718041D01*
X13553050Y-3675071D01*
X13563598Y-3628051D01*
X13565281Y-3575068D01*
X13567774Y-3532340D01*
X13606338Y-3527785D01*
X13678877Y-3566533D01*
X13765846Y-3626026D01*
X13755884Y-3510338D01*
X13752589Y-3450648D01*
X13761556Y-3388108D01*
X13793616Y-3373509D01*
X13853883Y-3401155D01*
G37*
G36*
X16493958Y-3011266D02*
G01*
X16499776Y-3075769D01*
X16499898Y-3081620D01*
X16490915Y-3160077D01*
X16467324Y-3212279D01*
X16447734Y-3261058D01*
X16449734Y-3334352D01*
X16454551Y-3355206D01*
X16482638Y-3413158D01*
X16538818Y-3442979D01*
X16583752Y-3457974D01*
X16583013Y-3465604D01*
X16526456Y-3470097D01*
X16487218Y-3473584D01*
X16454613Y-3488540D01*
X16437596Y-3529794D01*
X16424769Y-3613407D01*
X16404697Y-3735976D01*
X16370862Y-3860444D01*
X16330903Y-3931428D01*
X16319058Y-3942272D01*
X16295321Y-3948591D01*
X16278806Y-3914317D01*
X16273423Y-3884850D01*
X16266289Y-3845803D01*
X16312470Y-3845803D01*
X16333282Y-3845802D01*
X16333282Y-3824990D01*
X16312471Y-3824990D01*
X16312470Y-3845803D01*
X16266289Y-3845803D01*
X16263478Y-3830414D01*
X16262415Y-3747848D01*
X16294634Y-3698579D01*
X16318312Y-3680347D01*
X16333606Y-3639055D01*
X16339282Y-3606443D01*
X16374906Y-3554439D01*
X16411512Y-3497683D01*
X16406843Y-3450820D01*
X16360873Y-3431649D01*
X16318471Y-3426172D01*
X16300729Y-3400924D01*
X16315639Y-3346173D01*
X16363332Y-3252269D01*
X16396153Y-3188485D01*
X16427635Y-3114859D01*
X16436819Y-3073560D01*
X16437147Y-3055527D01*
X16463008Y-3008477D01*
X16479014Y-2996531D01*
X16493958Y-3011266D01*
G37*
G36*
X9987686Y-10006637D02*
G01*
X9961504Y-10065790D01*
X9935085Y-10127135D01*
X9942054Y-10170534D01*
X9987080Y-10187327D01*
X10063858Y-10188781D01*
X10142921Y-10175206D01*
X10196632Y-10148946D01*
X10210279Y-10139059D01*
X10245855Y-10141347D01*
X10255635Y-10152892D01*
X10254080Y-10171230D01*
X10218584Y-10193364D01*
X10138586Y-10227804D01*
X10126205Y-10233070D01*
X10043954Y-10276027D01*
X9984900Y-10319053D01*
X9948004Y-10344797D01*
X9902453Y-10349472D01*
X9894394Y-10347391D01*
X9844233Y-10367988D01*
X9772641Y-10431246D01*
X9757115Y-10447260D01*
X9702299Y-10496894D01*
X9666741Y-10508530D01*
X9635543Y-10488374D01*
X9595124Y-10462167D01*
X9521060Y-10442778D01*
X9496189Y-10440850D01*
X9464925Y-10429863D01*
X9489964Y-10409847D01*
X9572074Y-10379854D01*
X9582033Y-10376876D01*
X9644330Y-10368286D01*
X9673871Y-10382116D01*
X9689337Y-10401748D01*
X9708149Y-10380508D01*
X9717237Y-10331450D01*
X9723347Y-10304825D01*
X9755284Y-10269221D01*
X9795087Y-10257870D01*
X9820386Y-10281588D01*
X9827503Y-10299068D01*
X9839327Y-10279586D01*
X9841224Y-10261088D01*
X9826082Y-10238468D01*
X9819843Y-10236010D01*
X9817248Y-10201785D01*
X9835067Y-10142374D01*
X9866216Y-10077211D01*
X9903612Y-10025732D01*
X9927489Y-10004450D01*
X9972974Y-9983856D01*
X9987686Y-10006637D01*
G37*
G36*
X17448750Y-2289073D02*
G01*
X17455713Y-2335551D01*
X17469205Y-2394699D01*
X17507896Y-2460575D01*
X17533098Y-2492279D01*
X17525791Y-2522915D01*
X17473305Y-2564237D01*
X17467233Y-2568477D01*
X17413342Y-2615363D01*
X17391211Y-2652105D01*
X17390953Y-2658790D01*
X17378601Y-2698954D01*
X17374320Y-2705838D01*
X17351532Y-2754628D01*
X17320561Y-2829834D01*
X17309099Y-2858659D01*
X17281875Y-2923738D01*
X17267268Y-2953440D01*
X17266642Y-2954033D01*
X17242865Y-2946990D01*
X17219421Y-2902792D01*
X17207109Y-2841526D01*
X17206187Y-2830265D01*
X17178443Y-2766268D01*
X17125036Y-2749217D01*
X17061117Y-2784980D01*
X17030103Y-2810454D01*
X17003601Y-2811931D01*
X17005889Y-2775493D01*
X17039721Y-2710701D01*
X17072619Y-2639667D01*
X17092680Y-2548308D01*
X17094157Y-2532237D01*
X17112700Y-2456073D01*
X17142803Y-2414952D01*
X17176671Y-2420714D01*
X17181600Y-2457495D01*
X17162949Y-2520092D01*
X17140407Y-2574184D01*
X17122354Y-2647240D01*
X17140166Y-2678810D01*
X17194693Y-2672973D01*
X17251924Y-2643608D01*
X17314645Y-2584152D01*
X17349885Y-2545723D01*
X17381848Y-2542643D01*
X17389888Y-2548760D01*
X17425244Y-2545723D01*
X17430221Y-2534628D01*
X17407335Y-2508611D01*
X17389562Y-2480771D01*
X17398060Y-2407365D01*
X17439133Y-2287754D01*
X17448750Y-2289073D01*
G37*
G36*
X10076668Y-11096954D02*
G01*
X10099829Y-11148195D01*
X10099071Y-11206382D01*
X10087116Y-11235139D01*
X10039416Y-11295332D01*
X9953721Y-11362725D01*
X9821647Y-11444512D01*
X9791542Y-11464252D01*
X9709222Y-11528534D01*
X9609200Y-11615592D01*
X9506797Y-11712390D01*
X9393768Y-11818861D01*
X9289150Y-11903239D01*
X9216655Y-11942499D01*
X9135863Y-11965725D01*
X9178918Y-11893816D01*
X9214919Y-11848962D01*
X9278605Y-11816644D01*
X9318441Y-11807165D01*
X9308805Y-11784950D01*
X9303666Y-11771253D01*
X9321057Y-11738035D01*
X9373753Y-11683395D01*
X9467690Y-11600441D01*
X9489298Y-11582102D01*
X9583566Y-11504098D01*
X9664606Y-11439980D01*
X9716842Y-11402142D01*
X9748852Y-11381106D01*
X9757573Y-11366819D01*
X9714406Y-11368488D01*
X9662035Y-11369535D01*
X9633318Y-11351900D01*
X9658501Y-11311428D01*
X9682258Y-11262097D01*
X9689690Y-11186586D01*
X9683882Y-11098742D01*
X9734843Y-11136935D01*
X9778930Y-11155332D01*
X9815690Y-11124073D01*
X9820538Y-11116160D01*
X9851411Y-11086320D01*
X9869064Y-11101698D01*
X9869592Y-11150821D01*
X9849091Y-11222215D01*
X9842544Y-11239674D01*
X9828223Y-11311994D01*
X9838964Y-11357770D01*
X9875973Y-11374200D01*
X9908142Y-11343581D01*
X9923620Y-11268634D01*
X9924347Y-11257748D01*
X9943519Y-11201998D01*
X10001401Y-11168238D01*
X10028754Y-11157367D01*
X10054944Y-11138696D01*
X10033610Y-11121822D01*
X10015655Y-11109274D01*
X10014699Y-11080101D01*
X10041871Y-11071042D01*
X10076668Y-11096954D01*
G37*
G36*
X10471748Y-8780617D02*
G01*
X10422754Y-8840614D01*
X10413375Y-8850353D01*
X10375264Y-8902216D01*
X10370725Y-8934267D01*
X10378971Y-8939774D01*
X10415818Y-8930798D01*
X10425115Y-8923377D01*
X10440097Y-8930995D01*
X10438146Y-8935855D01*
X10400200Y-8955734D01*
X10329102Y-8972107D01*
X10273427Y-8984454D01*
X10225436Y-9011046D01*
X10228354Y-9040167D01*
X10285561Y-9064640D01*
X10329189Y-9081397D01*
X10360642Y-9112536D01*
X10373770Y-9123542D01*
X10409891Y-9103217D01*
X10420091Y-9093736D01*
X10467089Y-9069026D01*
X10492345Y-9082183D01*
X10480640Y-9127898D01*
X10459489Y-9156181D01*
X10435528Y-9165564D01*
X10426999Y-9164085D01*
X10379595Y-9179597D01*
X10308813Y-9215748D01*
X10283292Y-9230306D01*
X10201854Y-9274810D01*
X10142832Y-9304350D01*
X10120713Y-9315085D01*
X10112426Y-9331336D01*
X10157763Y-9349035D01*
X10203073Y-9370803D01*
X10203653Y-9393908D01*
X10159021Y-9410448D01*
X10076266Y-9414711D01*
X9974745Y-9410853D01*
X10006756Y-9339568D01*
X10027069Y-9276746D01*
X10007002Y-9246192D01*
X9937295Y-9235698D01*
X9916743Y-9234095D01*
X9881316Y-9223560D01*
X9891052Y-9209570D01*
X9936172Y-9197925D01*
X10006895Y-9194425D01*
X10082045Y-9186171D01*
X10133990Y-9147771D01*
X10153110Y-9123128D01*
X10183245Y-9121398D01*
X10193928Y-9127909D01*
X10215179Y-9108871D01*
X10214907Y-9091424D01*
X10184174Y-9055311D01*
X10161266Y-9023615D01*
X10158274Y-8960552D01*
X10168455Y-8915338D01*
X10194943Y-8864972D01*
X10247638Y-8824991D01*
X10341346Y-8780860D01*
X10423198Y-8751767D01*
X10471215Y-8750501D01*
X10471748Y-8780617D01*
G37*
G36*
X11897567Y-9207639D02*
G01*
X11950599Y-9219927D01*
X12004425Y-9222317D01*
X12010230Y-9238007D01*
X11990866Y-9291633D01*
X11949313Y-9371148D01*
X11912096Y-9436520D01*
X11845855Y-9556727D01*
X11790771Y-9660976D01*
X11753477Y-9726978D01*
X11716098Y-9777975D01*
X11693203Y-9794238D01*
X11691619Y-9771560D01*
X11718170Y-9705734D01*
X11721746Y-9698153D01*
X11744433Y-9635401D01*
X11744922Y-9600866D01*
X11743057Y-9595561D01*
X11757281Y-9554172D01*
X11796471Y-9491327D01*
X11806395Y-9476877D01*
X11845551Y-9399994D01*
X11852299Y-9367370D01*
X11858508Y-9337357D01*
X11851544Y-9303465D01*
X11832882Y-9308592D01*
X11792427Y-9359523D01*
X11744589Y-9421625D01*
X11672600Y-9510880D01*
X11593715Y-9605746D01*
X11537320Y-9671459D01*
X11481326Y-9727844D01*
X11441801Y-9745359D01*
X11406555Y-9727904D01*
X11400948Y-9721600D01*
X11363396Y-9679374D01*
X11357837Y-9675197D01*
X11422607Y-9675197D01*
X11432122Y-9690426D01*
X11437663Y-9689866D01*
X11459871Y-9662677D01*
X11456868Y-9653161D01*
X11432123Y-9662677D01*
X11422607Y-9675197D01*
X11357837Y-9675197D01*
X11340882Y-9662458D01*
X11300703Y-9669226D01*
X11271605Y-9685308D01*
X11206950Y-9692555D01*
X11188167Y-9690448D01*
X11162834Y-9683929D01*
X11190327Y-9674219D01*
X11205635Y-9668249D01*
X11269156Y-9631348D01*
X11359865Y-9570248D01*
X11464912Y-9494377D01*
X11571452Y-9413167D01*
X11666639Y-9336048D01*
X11737198Y-9272834D01*
X11906422Y-9272834D01*
X11910792Y-9308878D01*
X11916371Y-9313248D01*
X11952415Y-9308878D01*
X11956785Y-9303299D01*
X11952415Y-9267255D01*
X11946836Y-9262885D01*
X11910792Y-9267255D01*
X11906422Y-9272834D01*
X11737198Y-9272834D01*
X11737625Y-9272451D01*
X11780790Y-9233490D01*
X11839122Y-9202600D01*
X11897567Y-9207639D01*
G37*
G36*
X14899853Y-3057649D02*
G01*
X14911656Y-3095477D01*
X14922911Y-3164570D01*
X14941786Y-3234039D01*
X14987217Y-3287356D01*
X15020146Y-3318442D01*
X15037151Y-3398997D01*
X15039302Y-3462957D01*
X15058824Y-3500409D01*
X15100119Y-3485134D01*
X15166233Y-3417569D01*
X15208801Y-3363038D01*
X15238507Y-3300345D01*
X15232996Y-3245533D01*
X15220166Y-3182916D01*
X15238417Y-3162090D01*
X15282291Y-3190233D01*
X15302580Y-3218329D01*
X15303102Y-3252669D01*
X15297037Y-3265544D01*
X15313180Y-3304370D01*
X15321309Y-3316771D01*
X15339452Y-3379425D01*
X15349006Y-3466255D01*
X15353943Y-3597250D01*
X15284637Y-3500063D01*
X15264142Y-3471551D01*
X15230245Y-3430254D01*
X15215514Y-3432820D01*
X15209674Y-3475941D01*
X15198902Y-3526014D01*
X15173339Y-3563217D01*
X15167438Y-3569085D01*
X15162106Y-3616243D01*
X15176526Y-3690332D01*
X15180358Y-3703469D01*
X15197052Y-3783657D01*
X15192023Y-3817222D01*
X15169519Y-3800311D01*
X15133788Y-3729076D01*
X15107090Y-3665616D01*
X15083198Y-3620248D01*
X15066952Y-3616088D01*
X15050482Y-3645211D01*
X15047528Y-3650839D01*
X15017051Y-3665251D01*
X14986953Y-3643158D01*
X14979774Y-3599222D01*
X14974440Y-3576126D01*
X14935239Y-3538423D01*
X14902131Y-3497376D01*
X14913061Y-3429090D01*
X14926170Y-3367622D01*
X14916447Y-3323871D01*
X14899705Y-3303277D01*
X14865887Y-3245835D01*
X14852587Y-3223701D01*
X14842163Y-3235522D01*
X14836596Y-3299790D01*
X14833259Y-3337496D01*
X14818380Y-3381000D01*
X14798589Y-3367728D01*
X14780395Y-3297897D01*
X14782321Y-3254067D01*
X14815283Y-3210957D01*
X14838655Y-3191662D01*
X14855440Y-3135940D01*
X14856899Y-3097008D01*
X14873928Y-3057243D01*
X14899194Y-3056877D01*
X14899853Y-3057649D01*
G37*
G36*
X9076398Y-11719037D02*
G01*
X9080573Y-11727740D01*
X9073851Y-11782027D01*
X9042630Y-11869039D01*
X8992045Y-11976006D01*
X8927228Y-12090160D01*
X8885735Y-12164373D01*
X8858631Y-12230372D01*
X8858428Y-12262696D01*
X8863278Y-12270517D01*
X8858303Y-12318809D01*
X8829988Y-12390342D01*
X8819717Y-12411862D01*
X8796125Y-12481044D01*
X8796788Y-12519379D01*
X8818560Y-12518161D01*
X8858296Y-12468680D01*
X8870743Y-12449288D01*
X8892215Y-12424873D01*
X8892142Y-12450497D01*
X8875215Y-12493397D01*
X8830501Y-12555350D01*
X8800926Y-12604243D01*
X8807821Y-12686730D01*
X8827809Y-12735291D01*
X8846763Y-12740641D01*
X8876457Y-12692931D01*
X8938117Y-12604642D01*
X9034533Y-12511874D01*
X9174649Y-12407918D01*
X9256363Y-12356042D01*
X9320376Y-12324632D01*
X9347442Y-12323598D01*
X9332957Y-12352751D01*
X9272318Y-12411905D01*
X9224809Y-12456445D01*
X9171238Y-12525596D01*
X9137362Y-12608160D01*
X9117778Y-12719252D01*
X9107079Y-12873991D01*
X9103203Y-12940013D01*
X9091680Y-13036697D01*
X9077836Y-13075991D01*
X9064351Y-13058670D01*
X9053906Y-12985507D01*
X9049181Y-12857276D01*
X9048854Y-12832598D01*
X9043390Y-12730540D01*
X9032825Y-12658868D01*
X9019062Y-12631816D01*
X8997407Y-12647670D01*
X8954598Y-12703038D01*
X8904192Y-12784435D01*
X8863946Y-12852485D01*
X8823194Y-12913531D01*
X8800693Y-12937054D01*
X8796850Y-12935568D01*
X8778319Y-12897643D01*
X8758955Y-12820187D01*
X8741186Y-12718855D01*
X8727440Y-12609302D01*
X8720147Y-12507180D01*
X8721735Y-12428146D01*
X8724229Y-12411243D01*
X8750890Y-12313604D01*
X8797186Y-12192626D01*
X8854834Y-12070567D01*
X8894055Y-11993688D01*
X8934776Y-11900911D01*
X8947711Y-11843545D01*
X8935577Y-11812925D01*
X8918894Y-11793476D01*
X8917585Y-11760980D01*
X8926603Y-11753572D01*
X8979108Y-11729001D01*
X9039058Y-11714843D01*
X9076398Y-11719037D01*
G37*
G36*
X10086298Y-8409847D02*
G01*
X10077234Y-8427109D01*
X10031642Y-8444791D01*
X10018016Y-8447079D01*
X9985675Y-8472824D01*
X9995371Y-8507359D01*
X10043795Y-8528035D01*
X10068881Y-8534179D01*
X10093236Y-8560017D01*
X10103440Y-8567116D01*
X10138327Y-8542313D01*
X10172017Y-8520307D01*
X10218201Y-8532003D01*
X10253228Y-8553602D01*
X10322987Y-8570276D01*
X10369121Y-8580440D01*
X10401279Y-8608875D01*
X10403023Y-8618677D01*
X10397449Y-8637124D01*
X10369432Y-8654991D01*
X10307661Y-8678116D01*
X10200823Y-8712336D01*
X10182572Y-8718414D01*
X10128085Y-8742997D01*
X10114590Y-8761408D01*
X10113486Y-8786031D01*
X10082347Y-8833225D01*
X10039956Y-8866718D01*
X10008803Y-8861798D01*
X10004042Y-8821135D01*
X10033165Y-8756422D01*
X10077798Y-8704627D01*
X10151870Y-8674137D01*
X10207416Y-8667055D01*
X10232152Y-8649342D01*
X10201494Y-8625034D01*
X10186313Y-8621322D01*
X10118710Y-8623627D01*
X10031820Y-8641361D01*
X9996412Y-8649608D01*
X9917645Y-8655625D01*
X9872025Y-8642121D01*
X9869805Y-8641464D01*
X9821231Y-8619920D01*
X9754480Y-8622253D01*
X9696323Y-8645374D01*
X9671451Y-8683989D01*
X9675106Y-8704001D01*
X9711138Y-8745645D01*
X9729325Y-8766062D01*
X9704750Y-8809397D01*
X9669442Y-8833474D01*
X9640496Y-8814660D01*
X9626737Y-8797403D01*
X9580941Y-8792275D01*
X9560231Y-8798224D01*
X9518097Y-8789238D01*
X9515179Y-8780815D01*
X9535779Y-8738933D01*
X9589107Y-8677432D01*
X9664139Y-8606992D01*
X9715127Y-8566126D01*
X9907589Y-8566126D01*
X9912867Y-8601280D01*
X9926784Y-8607255D01*
X9966125Y-8589646D01*
X9977996Y-8571785D01*
X9964896Y-8549250D01*
X9954953Y-8547826D01*
X9911638Y-8560885D01*
X9907589Y-8566126D01*
X9715127Y-8566126D01*
X9749854Y-8538293D01*
X9835224Y-8482014D01*
X9906022Y-8444234D01*
X10000232Y-8404388D01*
X10063296Y-8392071D01*
X10086298Y-8409847D01*
G37*
G36*
X11689806Y-8245004D02*
G01*
X11774539Y-8250422D01*
X11860780Y-8259361D01*
X11930452Y-8270356D01*
X11965475Y-8281939D01*
X11966578Y-8283055D01*
X11974719Y-8327650D01*
X11938843Y-8384194D01*
X11868793Y-8441959D01*
X11774408Y-8490216D01*
X11725471Y-8509532D01*
X11672624Y-8534567D01*
X11660934Y-8552550D01*
X11681079Y-8571612D01*
X11734230Y-8583270D01*
X11807965Y-8570785D01*
X11873327Y-8555815D01*
X11912581Y-8561445D01*
X11914646Y-8563686D01*
X11920177Y-8607744D01*
X11886453Y-8658221D01*
X11825804Y-8695999D01*
X11751853Y-8725044D01*
X11666147Y-8762014D01*
X11662668Y-8763537D01*
X11585780Y-8783421D01*
X11484947Y-8793875D01*
X11380643Y-8794681D01*
X11293346Y-8785624D01*
X11243529Y-8766485D01*
X11235642Y-8760847D01*
X11214341Y-8775039D01*
X11201562Y-8781013D01*
X11173466Y-8748062D01*
X11172459Y-8746376D01*
X11137169Y-8713724D01*
X11074189Y-8700419D01*
X10968638Y-8703203D01*
X10886095Y-8706660D01*
X10833169Y-8699546D01*
X10833842Y-8679380D01*
X10852666Y-8651250D01*
X10836965Y-8612766D01*
X10764047Y-8579832D01*
X10724566Y-8555386D01*
X10730856Y-8531200D01*
X10780149Y-8529288D01*
X10802302Y-8529483D01*
X10807601Y-8496502D01*
X10807229Y-8476899D01*
X10835482Y-8446019D01*
X10861460Y-8450768D01*
X10873179Y-8499876D01*
X10878672Y-8542926D01*
X10911053Y-8598668D01*
X10961310Y-8612287D01*
X10973637Y-8600669D01*
X10963025Y-8561000D01*
X10958958Y-8553611D01*
X10967992Y-8535259D01*
X11020915Y-8531773D01*
X11124450Y-8542376D01*
X11219946Y-8551627D01*
X11300706Y-8552501D01*
X11341453Y-8543896D01*
X11357264Y-8534708D01*
X11412318Y-8531514D01*
X11425500Y-8533604D01*
X11490855Y-8531100D01*
X11575573Y-8517707D01*
X11660186Y-8497775D01*
X11725229Y-8475661D01*
X11751235Y-8455717D01*
X11750315Y-8450605D01*
X11725438Y-8407140D01*
X11677218Y-8346744D01*
X11664790Y-8332732D01*
X11618903Y-8279525D01*
X11597377Y-8252063D01*
X11597181Y-8250606D01*
X11624661Y-8244576D01*
X11689806Y-8245004D01*
G37*
G36*
X16501956Y-2088630D02*
G01*
X16492250Y-2131716D01*
X16485757Y-2148123D01*
X16486360Y-2186019D01*
X16525086Y-2183096D01*
X16598285Y-2139098D01*
X16612685Y-2129210D01*
X16689766Y-2090044D01*
X16752767Y-2077108D01*
X16781320Y-2082275D01*
X16804182Y-2108187D01*
X16801353Y-2171834D01*
X16788881Y-2260886D01*
X16869291Y-2224777D01*
X16885937Y-2217338D01*
X17028095Y-2157046D01*
X17144064Y-2113656D01*
X17224976Y-2090216D01*
X17261966Y-2089775D01*
X17267586Y-2101024D01*
X17251221Y-2138983D01*
X17205446Y-2179558D01*
X17148393Y-2209031D01*
X17098194Y-2213682D01*
X17041714Y-2215730D01*
X16986675Y-2267035D01*
X16941536Y-2309338D01*
X16861176Y-2347289D01*
X16779224Y-2358108D01*
X16718570Y-2335916D01*
X16717227Y-2334527D01*
X16701426Y-2284476D01*
X16706072Y-2210261D01*
X16707101Y-2205322D01*
X16714432Y-2163690D01*
X16709682Y-2148729D01*
X16686111Y-2164786D01*
X16636981Y-2216207D01*
X16555552Y-2307340D01*
X16552541Y-2310728D01*
X16459859Y-2409415D01*
X16398553Y-2460272D01*
X16366182Y-2463594D01*
X16360305Y-2419678D01*
X16378484Y-2328819D01*
X16385004Y-2298659D01*
X16382168Y-2221138D01*
X16341285Y-2187181D01*
X16264250Y-2198940D01*
X16227968Y-2214500D01*
X16196378Y-2248705D01*
X16197508Y-2312584D01*
X16198883Y-2345673D01*
X16176474Y-2411626D01*
X16128179Y-2443568D01*
X16067818Y-2429086D01*
X16044600Y-2403260D01*
X16035566Y-2345283D01*
X16037920Y-2336345D01*
X16036979Y-2284753D01*
X15997426Y-2274795D01*
X15917048Y-2305735D01*
X15901205Y-2313574D01*
X15841048Y-2340281D01*
X15813077Y-2347446D01*
X15803655Y-2341316D01*
X15760435Y-2320069D01*
X15738172Y-2308000D01*
X15724974Y-2289692D01*
X15726733Y-2288046D01*
X15777583Y-2260355D01*
X15857835Y-2231046D01*
X15940866Y-2208638D01*
X16000051Y-2201654D01*
X16003387Y-2201842D01*
X16064329Y-2192785D01*
X16158978Y-2167091D01*
X16268325Y-2129848D01*
X16301668Y-2117550D01*
X16412293Y-2081593D01*
X16477181Y-2071938D01*
X16501956Y-2088630D01*
G37*
G36*
X15684905Y-2367416D02*
G01*
X15708440Y-2399066D01*
X15722952Y-2464277D01*
X15723464Y-2470423D01*
X15721883Y-2523564D01*
X15708961Y-2534634D01*
X15680859Y-2520718D01*
X15617695Y-2505622D01*
X15573834Y-2502810D01*
X15547157Y-2522554D01*
X15530387Y-2583483D01*
X15529479Y-2655658D01*
X15553975Y-2712697D01*
X15573377Y-2744703D01*
X15572491Y-2804053D01*
X15553635Y-2852726D01*
X15532973Y-2945868D01*
X15530100Y-3029241D01*
X15547079Y-3080412D01*
X15561849Y-3093853D01*
X15577938Y-3091537D01*
X15583721Y-3040935D01*
X15591937Y-2989793D01*
X15614520Y-2941250D01*
X15618728Y-2938183D01*
X15630954Y-2955587D01*
X15629766Y-3013995D01*
X15628318Y-3024854D01*
X15612427Y-3088102D01*
X15592183Y-3113923D01*
X15575137Y-3129597D01*
X15563111Y-3182586D01*
X15562763Y-3188273D01*
X15548178Y-3238553D01*
X15521959Y-3240748D01*
X15493703Y-3200957D01*
X15473002Y-3125283D01*
X15470588Y-3107486D01*
X15466486Y-3036445D01*
X15473509Y-2999014D01*
X15477615Y-2987022D01*
X15457962Y-2949670D01*
X15446091Y-2931810D01*
X15459190Y-2909275D01*
X15470503Y-2904465D01*
X15470824Y-2879285D01*
X15466150Y-2857852D01*
X15491635Y-2814394D01*
X15511035Y-2790060D01*
X15508384Y-2767260D01*
X15470961Y-2770220D01*
X15411172Y-2801006D01*
X15374294Y-2833744D01*
X15328984Y-2901432D01*
X15307514Y-2970032D01*
X15318873Y-3018374D01*
X15327266Y-3034038D01*
X15313508Y-3075769D01*
X15305962Y-3081735D01*
X15265831Y-3078676D01*
X15205005Y-3028184D01*
X15161686Y-2975508D01*
X15140565Y-2910221D01*
X15145921Y-2816715D01*
X15159464Y-2740625D01*
X15182147Y-2670885D01*
X15204606Y-2649389D01*
X15222191Y-2679099D01*
X15230252Y-2762979D01*
X15235007Y-2844188D01*
X15250444Y-2896708D01*
X15276316Y-2891377D01*
X15312559Y-2828142D01*
X15348753Y-2764745D01*
X15408515Y-2689397D01*
X15445467Y-2640294D01*
X15448784Y-2607505D01*
X15449292Y-2590610D01*
X15479271Y-2543935D01*
X15531730Y-2484077D01*
X15592732Y-2425231D01*
X15648338Y-2381587D01*
X15684611Y-2367342D01*
X15684905Y-2367416D01*
G37*
G36*
X11641676Y-8891101D02*
G01*
X11625691Y-8962648D01*
X11608289Y-9005542D01*
X11593333Y-9015938D01*
X11577736Y-8975662D01*
X11571816Y-8957643D01*
X11550643Y-8930778D01*
X11515508Y-8954940D01*
X11483996Y-8976317D01*
X11407128Y-9012553D01*
X11308424Y-9050823D01*
X11206730Y-9084502D01*
X11120889Y-9106968D01*
X11069746Y-9111599D01*
X11051126Y-9115355D01*
X11004729Y-9145767D01*
X10954277Y-9191951D01*
X10917084Y-9237239D01*
X10910461Y-9264962D01*
X10910864Y-9265303D01*
X10947673Y-9276823D01*
X11015888Y-9288066D01*
X11017533Y-9288269D01*
X11087228Y-9301169D01*
X11126340Y-9316198D01*
X11127523Y-9317399D01*
X11123497Y-9345794D01*
X11075796Y-9378464D01*
X10998056Y-9409846D01*
X10903914Y-9434375D01*
X10807005Y-9446489D01*
X10714437Y-9451928D01*
X10662123Y-9462207D01*
X10643237Y-9482977D01*
X10644741Y-9520156D01*
X10644229Y-9562046D01*
X10624124Y-9586368D01*
X10602036Y-9564990D01*
X10589260Y-9506832D01*
X10586362Y-9467276D01*
X10576006Y-9443585D01*
X10550850Y-9461740D01*
X10529781Y-9475580D01*
X10490370Y-9470146D01*
X10475735Y-9464326D01*
X10415886Y-9467890D01*
X10333395Y-9489880D01*
X10295473Y-9501313D01*
X10210604Y-9513780D01*
X10154781Y-9503371D01*
X10149833Y-9499969D01*
X10127366Y-9475849D01*
X10159563Y-9466216D01*
X10159841Y-9466190D01*
X10220858Y-9449447D01*
X10313371Y-9412738D01*
X10417786Y-9365015D01*
X10514503Y-9315231D01*
X10583927Y-9272339D01*
X10643717Y-9228071D01*
X10614620Y-9313439D01*
X10614416Y-9314038D01*
X10599059Y-9378982D01*
X10602598Y-9415881D01*
X10634041Y-9415570D01*
X10690577Y-9389395D01*
X10748583Y-9359350D01*
X10806811Y-9340420D01*
X10841520Y-9316665D01*
X10863530Y-9239658D01*
X10868117Y-9184160D01*
X10858634Y-9159383D01*
X10826426Y-9170052D01*
X10816069Y-9174133D01*
X10827994Y-9158345D01*
X10876525Y-9117175D01*
X10945849Y-9072855D01*
X11048566Y-9021985D01*
X11165371Y-8973159D01*
X11279731Y-8932736D01*
X11375105Y-8907071D01*
X11434956Y-8902523D01*
X11478830Y-8901694D01*
X11548905Y-8881196D01*
X11555444Y-8878328D01*
X11618645Y-8863403D01*
X11641676Y-8891101D01*
G37*
G36*
X9464280Y-8841509D02*
G01*
X9482917Y-8906360D01*
X9485542Y-8917055D01*
X9496054Y-8985746D01*
X9490917Y-9023229D01*
X9483887Y-9027343D01*
X9465506Y-9007493D01*
X9457773Y-8995960D01*
X9437743Y-9018898D01*
X9432622Y-9036326D01*
X9439949Y-9080658D01*
X9466453Y-9104937D01*
X9496633Y-9090355D01*
X9528103Y-9082419D01*
X9581262Y-9109784D01*
X9615895Y-9141694D01*
X9620727Y-9176606D01*
X9580034Y-9225477D01*
X9575506Y-9229930D01*
X9530681Y-9264929D01*
X9508874Y-9265420D01*
X9505387Y-9261790D01*
X9472674Y-9275006D01*
X9418528Y-9318300D01*
X9364985Y-9378878D01*
X9361660Y-9417534D01*
X9411525Y-9433858D01*
X9515710Y-9429142D01*
X9557068Y-9425570D01*
X9623173Y-9425963D01*
X9649252Y-9435943D01*
X9626966Y-9462106D01*
X9568127Y-9510126D01*
X9485533Y-9569498D01*
X9392310Y-9639602D01*
X9333409Y-9698656D01*
X9317219Y-9737585D01*
X9345537Y-9751791D01*
X9420164Y-9736673D01*
X9455600Y-9726287D01*
X9519680Y-9719406D01*
X9540534Y-9747487D01*
X9524063Y-9814978D01*
X9510614Y-9871822D01*
X9517245Y-9912217D01*
X9519930Y-9916548D01*
X9502586Y-9951846D01*
X9438177Y-10006563D01*
X9433459Y-10009988D01*
X9375786Y-10055812D01*
X9361261Y-10082098D01*
X9383444Y-10099819D01*
X9406599Y-10118107D01*
X9401327Y-10162812D01*
X9385147Y-10184043D01*
X9333437Y-10232005D01*
X9280524Y-10263962D01*
X9246883Y-10266208D01*
X9249503Y-10234155D01*
X9272168Y-10164251D01*
X9308947Y-10071948D01*
X9353740Y-9972539D01*
X9400444Y-9881313D01*
X9436688Y-9816148D01*
X9338861Y-9831517D01*
X9275269Y-9832286D01*
X9237044Y-9801781D01*
X9245492Y-9738194D01*
X9301033Y-9643609D01*
X9370951Y-9547073D01*
X9286041Y-9558965D01*
X9201128Y-9570857D01*
X9238966Y-9462486D01*
X9259122Y-9404755D01*
X9287144Y-9331111D01*
X9321059Y-9256849D01*
X9423791Y-9256849D01*
X9423791Y-9277660D01*
X9444603Y-9277660D01*
X9444604Y-9256848D01*
X9423791Y-9256849D01*
X9321059Y-9256849D01*
X9325013Y-9248190D01*
X9354846Y-9200925D01*
X9370310Y-9175131D01*
X9361051Y-9131673D01*
X9356384Y-9125293D01*
X9346384Y-9069789D01*
X9355925Y-8991272D01*
X9359467Y-8977557D01*
X9388239Y-8897350D01*
X9419843Y-8844719D01*
X9423835Y-8840738D01*
X9448245Y-8823210D01*
X9464280Y-8841509D01*
G37*
G36*
X19598022Y-1574902D02*
G01*
X19706919Y-1590734D01*
X19795525Y-1611239D01*
X19844556Y-1633853D01*
X19847315Y-1649680D01*
X19813969Y-1676108D01*
X19766905Y-1701362D01*
X19699839Y-1747460D01*
X19635894Y-1798890D01*
X19590445Y-1843128D01*
X19578868Y-1867647D01*
X19585615Y-1870300D01*
X19638210Y-1876499D01*
X19729649Y-1880809D01*
X19845386Y-1882425D01*
X19995854Y-1889254D01*
X20154147Y-1911687D01*
X20290439Y-1946722D01*
X20395515Y-1991236D01*
X20460158Y-2042098D01*
X20475153Y-2096181D01*
X20453032Y-2115944D01*
X20387565Y-2146112D01*
X20295251Y-2176425D01*
X20251199Y-2190874D01*
X20142257Y-2235840D01*
X20012607Y-2297191D01*
X19877228Y-2367055D01*
X19751100Y-2437555D01*
X19649205Y-2500818D01*
X19586520Y-2548970D01*
X19580109Y-2554919D01*
X19529988Y-2589379D01*
X19469100Y-2620442D01*
X19417707Y-2638900D01*
X19396073Y-2635541D01*
X19414355Y-2612289D01*
X19475630Y-2565192D01*
X19570192Y-2502223D01*
X19687824Y-2429374D01*
X19818307Y-2352632D01*
X19951425Y-2277988D01*
X20076958Y-2211431D01*
X20184689Y-2158952D01*
X20264400Y-2126540D01*
X20279747Y-2121347D01*
X20345708Y-2090231D01*
X20354815Y-2062090D01*
X20306399Y-2035715D01*
X20199791Y-2009900D01*
X20166226Y-2002709D01*
X20087108Y-1979148D01*
X20041522Y-1955691D01*
X20032420Y-1949715D01*
X19971176Y-1936737D01*
X19875322Y-1933196D01*
X19762728Y-1938458D01*
X19651259Y-1951886D01*
X19558784Y-1972847D01*
X19492802Y-1990215D01*
X19462953Y-1982029D01*
X19456526Y-1942601D01*
X19466880Y-1890061D01*
X19526126Y-1807759D01*
X19640662Y-1722140D01*
X19650041Y-1716327D01*
X19699959Y-1682504D01*
X19702880Y-1667190D01*
X19662275Y-1660490D01*
X19590073Y-1666000D01*
X19504702Y-1689407D01*
X19489705Y-1695051D01*
X19446405Y-1704823D01*
X19450652Y-1687401D01*
X19453231Y-1684584D01*
X19469345Y-1644205D01*
X19452777Y-1621182D01*
X19417044Y-1636132D01*
X19414850Y-1638068D01*
X19364881Y-1655253D01*
X19288546Y-1660572D01*
X19216445Y-1668617D01*
X19123511Y-1721316D01*
X19113637Y-1730865D01*
X19014023Y-1807718D01*
X18901381Y-1869825D01*
X18801740Y-1902527D01*
X18783063Y-1904991D01*
X18740692Y-1897336D01*
X18727013Y-1851998D01*
X18729085Y-1796179D01*
X18754029Y-1769511D01*
X18799471Y-1795848D01*
X18828969Y-1814882D01*
X18868806Y-1809759D01*
X18892100Y-1790945D01*
X18969548Y-1743743D01*
X19074490Y-1689451D01*
X19188642Y-1636755D01*
X19293721Y-1594346D01*
X19371442Y-1570909D01*
X19396499Y-1567527D01*
X19488121Y-1566312D01*
X19598022Y-1574902D01*
G37*
G36*
X15374520Y-2421277D02*
G01*
X15381554Y-2453227D01*
X15336707Y-2511465D01*
X15321729Y-2525950D01*
X15271997Y-2560630D01*
X15246108Y-2547941D01*
X15232768Y-2536788D01*
X15178770Y-2535575D01*
X15103162Y-2555522D01*
X15024910Y-2590768D01*
X14962981Y-2635451D01*
X14933201Y-2677027D01*
X14905792Y-2753750D01*
X14886406Y-2825677D01*
X14850441Y-2858624D01*
X14803621Y-2836434D01*
X14793934Y-2827399D01*
X14755504Y-2812013D01*
X14722859Y-2844221D01*
X14689367Y-2929423D01*
X14663306Y-2986355D01*
X14582294Y-3072434D01*
X14547397Y-3097899D01*
X14522002Y-3135662D01*
X14536999Y-3180617D01*
X14551325Y-3220207D01*
X14542749Y-3263799D01*
X14529100Y-3279923D01*
X14495374Y-3336440D01*
X14477223Y-3359816D01*
X14440989Y-3347895D01*
X14427135Y-3326971D01*
X14425320Y-3272419D01*
X14429131Y-3250407D01*
X14402935Y-3212863D01*
X14385189Y-3198601D01*
X14394385Y-3162422D01*
X14404490Y-3145474D01*
X14413611Y-3081396D01*
X14405127Y-3007416D01*
X14381058Y-2954976D01*
X14375507Y-2954362D01*
X14356191Y-2986485D01*
X14335357Y-3054957D01*
X14312329Y-3123113D01*
X14286237Y-3147970D01*
X14267643Y-3118164D01*
X14264110Y-3035739D01*
X14265682Y-2997110D01*
X14260774Y-2972796D01*
X14243463Y-2997685D01*
X14226879Y-3026441D01*
X14191134Y-3074310D01*
X14185660Y-3086407D01*
X14188503Y-3143635D01*
X14211181Y-3223286D01*
X14221614Y-3254000D01*
X14240408Y-3342489D01*
X14238932Y-3407508D01*
X14234257Y-3453608D01*
X14266372Y-3469110D01*
X14282900Y-3470983D01*
X14333314Y-3494234D01*
X14368986Y-3530224D01*
X14370091Y-3561327D01*
X14369934Y-3561480D01*
X14332375Y-3565083D01*
X14267015Y-3549940D01*
X14199378Y-3527329D01*
X14153007Y-3511833D01*
X14144291Y-3506794D01*
X14160964Y-3493868D01*
X14171960Y-3487383D01*
X14186782Y-3442385D01*
X14182614Y-3376040D01*
X14162757Y-3312139D01*
X14130513Y-3274465D01*
X14101521Y-3267432D01*
X14096204Y-3295063D01*
X14097498Y-3314724D01*
X14072216Y-3327259D01*
X14057548Y-3320180D01*
X14044733Y-3273028D01*
X14069945Y-3188523D01*
X14132109Y-3071252D01*
X14197382Y-2968616D01*
X14258020Y-2890196D01*
X14316118Y-2839921D01*
X14384104Y-2804644D01*
X14415958Y-2792257D01*
X14447647Y-2788385D01*
X14439014Y-2815221D01*
X14427836Y-2842430D01*
X14434100Y-2883147D01*
X14450140Y-2916893D01*
X14461674Y-2983563D01*
X14464311Y-3014167D01*
X14473121Y-3032079D01*
X14495511Y-3020393D01*
X14539606Y-2973980D01*
X14613537Y-2887708D01*
X14693730Y-2798737D01*
X14757362Y-2739987D01*
X14793782Y-2722103D01*
X14823538Y-2711230D01*
X14883250Y-2667742D01*
X14956077Y-2601416D01*
X15003333Y-2556719D01*
X15106232Y-2481158D01*
X15213377Y-2437768D01*
X15316719Y-2416281D01*
X15374520Y-2421277D01*
G37*
G36*
X18921025Y-1537636D02*
G01*
X18886172Y-1584276D01*
X18834912Y-1620842D01*
X18778550Y-1625144D01*
X18751523Y-1620211D01*
X18712751Y-1648619D01*
X18697331Y-1668401D01*
X18653060Y-1674815D01*
X18609120Y-1670140D01*
X18537467Y-1691502D01*
X18433711Y-1743197D01*
X18290749Y-1828231D01*
X18206101Y-1880646D01*
X18117585Y-1934824D01*
X18058290Y-1970383D01*
X18034820Y-1984677D01*
X18015639Y-2004457D01*
X18046377Y-2010499D01*
X18047809Y-2010552D01*
X18100634Y-2020986D01*
X18123308Y-2039809D01*
X18102278Y-2055994D01*
X18090969Y-2060861D01*
X18091091Y-2086430D01*
X18125891Y-2094200D01*
X18188734Y-2080809D01*
X18200120Y-2076780D01*
X18259298Y-2072289D01*
X18300497Y-2113837D01*
X18322511Y-2144834D01*
X18353064Y-2151095D01*
X18400305Y-2111767D01*
X18460352Y-2068627D01*
X18525945Y-2048562D01*
X18566359Y-2042812D01*
X18622312Y-2014629D01*
X18641657Y-2001841D01*
X18664321Y-2014909D01*
X18664586Y-2020559D01*
X18640310Y-2062949D01*
X18584228Y-2114171D01*
X18510443Y-2168960D01*
X18398782Y-2254716D01*
X18326831Y-2316112D01*
X18288757Y-2359109D01*
X18278721Y-2389665D01*
X18290890Y-2413739D01*
X18303303Y-2427787D01*
X18304939Y-2440878D01*
X18260287Y-2424840D01*
X18212734Y-2398053D01*
X18184112Y-2345924D01*
X18204190Y-2268112D01*
X18220081Y-2228794D01*
X18209611Y-2217125D01*
X18156196Y-2234783D01*
X18112675Y-2255794D01*
X18028616Y-2306759D01*
X17937825Y-2370211D01*
X17872801Y-2417021D01*
X17835323Y-2439644D01*
X17836241Y-2431166D01*
X17861661Y-2382968D01*
X17873349Y-2305735D01*
X17883608Y-2242685D01*
X17939010Y-2156827D01*
X17939956Y-2155880D01*
X17984407Y-2096155D01*
X17977408Y-2055994D01*
X17961336Y-2043544D01*
X17933046Y-2042850D01*
X17930033Y-2046904D01*
X17877949Y-2089487D01*
X17831725Y-2076806D01*
X17821388Y-2047852D01*
X17845692Y-1997119D01*
X17868710Y-1966133D01*
X17847907Y-1968117D01*
X17804659Y-1987757D01*
X17733468Y-2020172D01*
X17662000Y-2052762D01*
X17700908Y-1956855D01*
X17704556Y-1947598D01*
X17719729Y-1876415D01*
X17695094Y-1841030D01*
X17671334Y-1833165D01*
X17635765Y-1835720D01*
X17610546Y-1847155D01*
X17550204Y-1860170D01*
X17513695Y-1862780D01*
X17492491Y-1853011D01*
X17511706Y-1830806D01*
X17562468Y-1801951D01*
X17635903Y-1772233D01*
X17723134Y-1747435D01*
X17826332Y-1728585D01*
X17889818Y-1730669D01*
X17909426Y-1758188D01*
X17890905Y-1813404D01*
X17871929Y-1854402D01*
X17882783Y-1863646D01*
X17937012Y-1843191D01*
X18004920Y-1824230D01*
X18098142Y-1817016D01*
X18099860Y-1817117D01*
X18169871Y-1804885D01*
X18270709Y-1768115D01*
X18384073Y-1713438D01*
X18496603Y-1656122D01*
X18632400Y-1595260D01*
X18755815Y-1548142D01*
X18853797Y-1519668D01*
X18913294Y-1514738D01*
X18921025Y-1537636D01*
G37*
G36*
X16687592Y-4076896D02*
G01*
X16688691Y-4086439D01*
X16670604Y-4133551D01*
X16667877Y-4137045D01*
X16653376Y-4187406D01*
X16648935Y-4264570D01*
X16649258Y-4282780D01*
X16644771Y-4336171D01*
X16623965Y-4380879D01*
X16577036Y-4432152D01*
X16494180Y-4505238D01*
X16408065Y-4575994D01*
X16330511Y-4634473D01*
X16279991Y-4666603D01*
X16258434Y-4677105D01*
X16244780Y-4690941D01*
X16287688Y-4695111D01*
X16300387Y-4694631D01*
X16375205Y-4677251D01*
X16460746Y-4642426D01*
X16484908Y-4631195D01*
X16559393Y-4607377D01*
X16608398Y-4607499D01*
X16626478Y-4627296D01*
X16592523Y-4650874D01*
X16549577Y-4672179D01*
X16478099Y-4715062D01*
X16402883Y-4756835D01*
X16325921Y-4778780D01*
X16276956Y-4767627D01*
X16268458Y-4760930D01*
X16207118Y-4742879D01*
X16132733Y-4744314D01*
X16079473Y-4765586D01*
X16077769Y-4767166D01*
X16027633Y-4791101D01*
X15951362Y-4809299D01*
X15889605Y-4825573D01*
X15810647Y-4860837D01*
X15741698Y-4903977D01*
X15697740Y-4945341D01*
X15693757Y-4975274D01*
X15699331Y-4978701D01*
X15749666Y-4983024D01*
X15826203Y-4972444D01*
X15851767Y-4967403D01*
X15903730Y-4962939D01*
X15912723Y-4973259D01*
X15904349Y-4980059D01*
X15853579Y-4990203D01*
X15850067Y-4989814D01*
X15810100Y-5012456D01*
X15759030Y-5069159D01*
X15709958Y-5143146D01*
X15675981Y-5217644D01*
X15663541Y-5242090D01*
X15635373Y-5249175D01*
X15611425Y-5217042D01*
X15604872Y-5156941D01*
X15605836Y-5141126D01*
X15591494Y-5085562D01*
X15540596Y-5068281D01*
X15446975Y-5086534D01*
X15395406Y-5098024D01*
X15280348Y-5110215D01*
X15161942Y-5110317D01*
X15082523Y-5101709D01*
X14984519Y-5081782D01*
X14981671Y-5081203D01*
X14899657Y-5054597D01*
X14849661Y-5026428D01*
X14844867Y-5001230D01*
X14848283Y-4985656D01*
X14839810Y-4926369D01*
X14839080Y-4923771D01*
X14835925Y-4912540D01*
X14956108Y-4912540D01*
X14967796Y-4933711D01*
X15015939Y-4960501D01*
X15055338Y-4979391D01*
X15049524Y-5005956D01*
X15046265Y-5020036D01*
X15083478Y-5017440D01*
X15131551Y-4994755D01*
X15138901Y-4966670D01*
X15095490Y-4949323D01*
X15067210Y-4943254D01*
X15025739Y-4924416D01*
X15001704Y-4913499D01*
X14988138Y-4907200D01*
X15042955Y-4907200D01*
X15063768Y-4907200D01*
X15063768Y-4886388D01*
X15042956Y-4886388D01*
X15042955Y-4907200D01*
X14988138Y-4907200D01*
X14975171Y-4901179D01*
X14956108Y-4912540D01*
X14835925Y-4912540D01*
X14822725Y-4865560D01*
X14858934Y-4865560D01*
X14876462Y-4886388D01*
X14886962Y-4888345D01*
X14919314Y-4885160D01*
X14920849Y-4882542D01*
X14907680Y-4855171D01*
X14901128Y-4850314D01*
X14864828Y-4856399D01*
X14858934Y-4865560D01*
X14822725Y-4865560D01*
X14816256Y-4842535D01*
X14800770Y-4791693D01*
X14785205Y-4720319D01*
X14786498Y-4684988D01*
X14790856Y-4683176D01*
X14827553Y-4699643D01*
X14881983Y-4745590D01*
X14892239Y-4755628D01*
X14968122Y-4818550D01*
X15014786Y-4834489D01*
X15029670Y-4803814D01*
X15010218Y-4726902D01*
X15008120Y-4721054D01*
X14986305Y-4629008D01*
X14969888Y-4505402D01*
X14962282Y-4375277D01*
X14961968Y-4297884D01*
X14967514Y-4203845D01*
X14982387Y-4153243D01*
X15008439Y-4136506D01*
X15010513Y-4136337D01*
X15064254Y-4146950D01*
X15099471Y-4176198D01*
X15096719Y-4208273D01*
X15086984Y-4214230D01*
X15041593Y-4211370D01*
X15036673Y-4209992D01*
X15028712Y-4230421D01*
X15046983Y-4285402D01*
X15066888Y-4359113D01*
X15051764Y-4436638D01*
X15039339Y-4466984D01*
X15036063Y-4564949D01*
X15067162Y-4690265D01*
X15130162Y-4830522D01*
X15166020Y-4888275D01*
X15244130Y-4962299D01*
X15334530Y-4980784D01*
X15443061Y-4945881D01*
X15462822Y-4936386D01*
X15539586Y-4909052D01*
X15593241Y-4903906D01*
X15605007Y-4904746D01*
X15665747Y-4876698D01*
X15751588Y-4802107D01*
X15800830Y-4755171D01*
X15857976Y-4715545D01*
X15899129Y-4717270D01*
X15936849Y-4757305D01*
X15957701Y-4755708D01*
X15993658Y-4717071D01*
X16027575Y-4681056D01*
X16074525Y-4672646D01*
X16096852Y-4667649D01*
X16154636Y-4629200D01*
X16234696Y-4562528D01*
X16327391Y-4476975D01*
X16423082Y-4381882D01*
X16512128Y-4286588D01*
X16584889Y-4200434D01*
X16631726Y-4132762D01*
X16636640Y-4124051D01*
X16670773Y-4075633D01*
X16687592Y-4076896D01*
G37*
G36*
X9216565Y-10297225D02*
G01*
X9229947Y-10308237D01*
X9290294Y-10337280D01*
X9311722Y-10346906D01*
X9305244Y-10373205D01*
X9246533Y-10407896D01*
X9222036Y-10414810D01*
X9195355Y-10403577D01*
X9185971Y-10397155D01*
X9150912Y-10417461D01*
X9102608Y-10464488D01*
X9053950Y-10525007D01*
X9017829Y-10585787D01*
X9005784Y-10625050D01*
X9015742Y-10685960D01*
X9059818Y-10714646D01*
X9125592Y-10698152D01*
X9141566Y-10689438D01*
X9193617Y-10678214D01*
X9208103Y-10703411D01*
X9175279Y-10754065D01*
X9145005Y-10793742D01*
X9132428Y-10838539D01*
X9152873Y-10847045D01*
X9196183Y-10816408D01*
X9219847Y-10794101D01*
X9247368Y-10782705D01*
X9257298Y-10817727D01*
X9255729Y-10852367D01*
X9233938Y-10903523D01*
X9224215Y-10920439D01*
X9236487Y-10963409D01*
X9245231Y-10970020D01*
X9285994Y-10965360D01*
X9348402Y-10913928D01*
X9354620Y-10907863D01*
X9425800Y-10855870D01*
X9486730Y-10838586D01*
X9521554Y-10837088D01*
X9563931Y-10817039D01*
X9594175Y-10789621D01*
X9653644Y-10750839D01*
X9710195Y-10710069D01*
X9775143Y-10643409D01*
X9826503Y-10575275D01*
X9724677Y-10619131D01*
X9708606Y-10626241D01*
X9643748Y-10659337D01*
X9611771Y-10683125D01*
X9610659Y-10684997D01*
X9586056Y-10690179D01*
X9558140Y-10658466D01*
X9538225Y-10608690D01*
X9537620Y-10559682D01*
X9552012Y-10517882D01*
X9574480Y-10483391D01*
X9590357Y-10505853D01*
X9591446Y-10509737D01*
X9626072Y-10551788D01*
X9680182Y-10575146D01*
X9724939Y-10566761D01*
X9730712Y-10562178D01*
X9781181Y-10537337D01*
X9858889Y-10509519D01*
X9947308Y-10483297D01*
X10029908Y-10463237D01*
X10090159Y-10453913D01*
X10111532Y-10459891D01*
X10100564Y-10475025D01*
X10051285Y-10522208D01*
X9972031Y-10589865D01*
X9873238Y-10668844D01*
X9867009Y-10673689D01*
X9708960Y-10802008D01*
X9575755Y-10920563D01*
X9473299Y-11023439D01*
X9407496Y-11104725D01*
X9384249Y-11158509D01*
X9384729Y-11167952D01*
X9402449Y-11187178D01*
X9453104Y-11165235D01*
X9486717Y-11149726D01*
X9536810Y-11146385D01*
X9558173Y-11169527D01*
X9536199Y-11211093D01*
X9417220Y-11332892D01*
X9337357Y-11424490D01*
X9300390Y-11482564D01*
X9304899Y-11508942D01*
X9306096Y-11509511D01*
X9314255Y-11540992D01*
X9271549Y-11601768D01*
X9261998Y-11611973D01*
X9213025Y-11652712D01*
X9182978Y-11659123D01*
X9179207Y-11640874D01*
X9204040Y-11599395D01*
X9207746Y-11595552D01*
X9234846Y-11548208D01*
X9229199Y-11514296D01*
X9193210Y-11513008D01*
X9190443Y-11514060D01*
X9185765Y-11503771D01*
X9217033Y-11464250D01*
X9265385Y-11406918D01*
X9313772Y-11337176D01*
X9350002Y-11274465D01*
X9182220Y-11297964D01*
X9233528Y-11217774D01*
X9235163Y-11215199D01*
X9268209Y-11151432D01*
X9277959Y-11108452D01*
X9253691Y-11095739D01*
X9197671Y-11105864D01*
X9129555Y-11133254D01*
X9068634Y-11170011D01*
X9034202Y-11208239D01*
X9015604Y-11246066D01*
X8972231Y-11313632D01*
X8971426Y-11314694D01*
X8933297Y-11381074D01*
X8898644Y-11464963D01*
X8897426Y-11468550D01*
X8861871Y-11548768D01*
X8822576Y-11606886D01*
X8816109Y-11613564D01*
X8798382Y-11640582D01*
X8828461Y-11639765D01*
X8843604Y-11637368D01*
X8858662Y-11650263D01*
X8835402Y-11699266D01*
X8810781Y-11758083D01*
X8806568Y-11817365D01*
X8799917Y-11863216D01*
X8742076Y-11929241D01*
X8664164Y-11993589D01*
X8682523Y-11855715D01*
X8693303Y-11805942D01*
X8728868Y-11697217D01*
X8781108Y-11566941D01*
X8843034Y-11433498D01*
X8888175Y-11339990D01*
X8894091Y-11326617D01*
X8936816Y-11230034D01*
X8968792Y-11146046D01*
X8978759Y-11101104D01*
X8978163Y-11092003D01*
X8983688Y-11042554D01*
X9141226Y-11042554D01*
X9142834Y-11077874D01*
X9155929Y-11083927D01*
X9194863Y-11067468D01*
X9206876Y-11050760D01*
X9205269Y-11015439D01*
X9192172Y-11009387D01*
X9153240Y-11025845D01*
X9141226Y-11042554D01*
X8983688Y-11042554D01*
X8985593Y-11025500D01*
X9005838Y-10940878D01*
X9039345Y-10828704D01*
X8976494Y-10878034D01*
X8941521Y-10898776D01*
X8904507Y-10893297D01*
X8889264Y-10848683D01*
X8894735Y-10774038D01*
X8919863Y-10678466D01*
X8963594Y-10571069D01*
X9024870Y-10460953D01*
X9088786Y-10366577D01*
X9142780Y-10303489D01*
X9183130Y-10282287D01*
X9216565Y-10297225D01*
G37*
G36*
X11762957Y-7334708D02*
G01*
X11775684Y-7401160D01*
X11779231Y-7419683D01*
X11811557Y-7488598D01*
X11865773Y-7564090D01*
X11893519Y-7595782D01*
X11937955Y-7637479D01*
X11969813Y-7641580D01*
X12005749Y-7614028D01*
X12046007Y-7587120D01*
X12081155Y-7598343D01*
X12097441Y-7653392D01*
X12081854Y-7732868D01*
X12031533Y-7793349D01*
X12029395Y-7794708D01*
X11986889Y-7837287D01*
X11999173Y-7879710D01*
X12067760Y-7927586D01*
X12107455Y-7948016D01*
X12125042Y-7950761D01*
X12101511Y-7921485D01*
X12077923Y-7886798D01*
X12076766Y-7852579D01*
X12089727Y-7848740D01*
X12125415Y-7876608D01*
X12167917Y-7940596D01*
X12209317Y-8027643D01*
X12241700Y-8124690D01*
X12273391Y-8284230D01*
X12276434Y-8443566D01*
X12241630Y-8581095D01*
X12196165Y-8691821D01*
X12288952Y-8694718D01*
X12297123Y-8695053D01*
X12374839Y-8708374D01*
X12416818Y-8734463D01*
X12411501Y-8766545D01*
X12402662Y-8772653D01*
X12354649Y-8777330D01*
X12332489Y-8776161D01*
X12326190Y-8805850D01*
X12312531Y-8833464D01*
X12244756Y-8846361D01*
X12244593Y-8846366D01*
X12181837Y-8851592D01*
X12159640Y-8872268D01*
X12159749Y-8925354D01*
X12155213Y-8984671D01*
X12127292Y-9067520D01*
X12113889Y-9089477D01*
X12099222Y-9099413D01*
X12094500Y-9065258D01*
X12097232Y-8979730D01*
X12102322Y-8920658D01*
X12116271Y-8849381D01*
X12133927Y-8818714D01*
X12146934Y-8811975D01*
X12172693Y-8769528D01*
X12172988Y-8760437D01*
X12147226Y-8759163D01*
X12085078Y-8796378D01*
X12035243Y-8835946D01*
X11991863Y-8896869D01*
X11970905Y-8986011D01*
X11963426Y-9025897D01*
X11931341Y-9102349D01*
X11886652Y-9132181D01*
X11836056Y-9109271D01*
X11832573Y-9105723D01*
X11819735Y-9079709D01*
X11858763Y-9069543D01*
X11864267Y-9068997D01*
X11898733Y-9058026D01*
X11882122Y-9030468D01*
X11880212Y-9027283D01*
X11869436Y-9009326D01*
X11874762Y-8986296D01*
X11900385Y-8986296D01*
X11900386Y-9007109D01*
X11921198Y-9007109D01*
X11921198Y-8986296D01*
X11900385Y-8986296D01*
X11874762Y-8986296D01*
X11879574Y-8965485D01*
X11891457Y-8948604D01*
X11888706Y-8912180D01*
X11885730Y-8907310D01*
X11903862Y-8870596D01*
X11971952Y-8812231D01*
X11982663Y-8804263D01*
X12041406Y-8754943D01*
X12060496Y-8718818D01*
X12049163Y-8680093D01*
X12042105Y-8625142D01*
X12073564Y-8547028D01*
X12087840Y-8524493D01*
X12128676Y-8420868D01*
X12114632Y-8334789D01*
X12063936Y-8281642D01*
X12045291Y-8262095D01*
X11952709Y-8208878D01*
X11944055Y-8205498D01*
X11908132Y-8191465D01*
X12117585Y-8191465D01*
X12118910Y-8226669D01*
X12124408Y-8231046D01*
X12159305Y-8227897D01*
X12164349Y-8221264D01*
X12170939Y-8174640D01*
X12162174Y-8161959D01*
X12130543Y-8173411D01*
X12117585Y-8191465D01*
X11908132Y-8191465D01*
X11834907Y-8162860D01*
X11753511Y-8144186D01*
X12005367Y-8144186D01*
X12041033Y-8152637D01*
X12082014Y-8150170D01*
X12106422Y-8119692D01*
X12104000Y-8104135D01*
X12070675Y-8062072D01*
X12046569Y-8055342D01*
X12044602Y-8085181D01*
X12044811Y-8104282D01*
X12014960Y-8136001D01*
X12005367Y-8144186D01*
X11753511Y-8144186D01*
X11720367Y-8136582D01*
X11624870Y-8133492D01*
X11564194Y-8157033D01*
X11550431Y-8163179D01*
X11490677Y-8161976D01*
X11408224Y-8142420D01*
X11363467Y-8129395D01*
X11290506Y-8121926D01*
X11252568Y-8146514D01*
X11241169Y-8162013D01*
X11217540Y-8166566D01*
X11178923Y-8138160D01*
X11114035Y-8070612D01*
X11067211Y-8019311D01*
X11018379Y-7965088D01*
X10997489Y-7940843D01*
X10997371Y-7938284D01*
X11023364Y-7925591D01*
X11032284Y-7925671D01*
X11083667Y-7945887D01*
X11152586Y-7988345D01*
X11186201Y-8009664D01*
X11260351Y-8038790D01*
X11358856Y-8053389D01*
X11498710Y-8056819D01*
X11537628Y-8056889D01*
X11650461Y-8060785D01*
X11736834Y-8069190D01*
X11780560Y-8080731D01*
X11782014Y-8081788D01*
X11840781Y-8105402D01*
X11909009Y-8112346D01*
X11954964Y-8099250D01*
X11956668Y-8091298D01*
X11935252Y-8050132D01*
X11885470Y-7991844D01*
X11797712Y-7902702D01*
X11887775Y-7910903D01*
X11977838Y-7919105D01*
X11913097Y-7854363D01*
X11884859Y-7815555D01*
X11871758Y-7797552D01*
X11881228Y-7756752D01*
X11891811Y-7742927D01*
X11890754Y-7737593D01*
X11962821Y-7737593D01*
X11983633Y-7737594D01*
X11983632Y-7716782D01*
X11962821Y-7716782D01*
X11962821Y-7737593D01*
X11890754Y-7737593D01*
X11885668Y-7711939D01*
X11833139Y-7669564D01*
X11804029Y-7649236D01*
X11780631Y-7625909D01*
X11805152Y-7624710D01*
X11838714Y-7624395D01*
X11830279Y-7599842D01*
X11774140Y-7546586D01*
X11749954Y-7513959D01*
X11746475Y-7461093D01*
X11752106Y-7435776D01*
X11734546Y-7384447D01*
X11722031Y-7367024D01*
X11723486Y-7331765D01*
X11736498Y-7322034D01*
X11762957Y-7334708D01*
G37*
G36*
X10420004Y-7178007D02*
G01*
X10446541Y-7183065D01*
X10416558Y-7200698D01*
X10402497Y-7208749D01*
X10389608Y-7240912D01*
X10419150Y-7274929D01*
X10479722Y-7301880D01*
X10559922Y-7312845D01*
X10610954Y-7313234D01*
X10662818Y-7321417D01*
X10682665Y-7350865D01*
X10687534Y-7415252D01*
X10684945Y-7449131D01*
X10661411Y-7486843D01*
X10629759Y-7478720D01*
X10609819Y-7422829D01*
X10601493Y-7391176D01*
X10573827Y-7366991D01*
X10556927Y-7389387D01*
X10558615Y-7446805D01*
X10565578Y-7492574D01*
X10552723Y-7521981D01*
X10500431Y-7529754D01*
X10461374Y-7532766D01*
X10444227Y-7545650D01*
X10474106Y-7580828D01*
X10483421Y-7590444D01*
X10501049Y-7621717D01*
X10469205Y-7633086D01*
X10440639Y-7641637D01*
X10396042Y-7684794D01*
X10371020Y-7710941D01*
X10330675Y-7687138D01*
X10282126Y-7659732D01*
X10225525Y-7674297D01*
X10187212Y-7736445D01*
X10168336Y-7773368D01*
X10101407Y-7809256D01*
X10051244Y-7824118D01*
X9968712Y-7859141D01*
X9954307Y-7867302D01*
X9925933Y-7896373D01*
X9948129Y-7927417D01*
X9967859Y-7943841D01*
X9997868Y-7979403D01*
X9979309Y-8002227D01*
X9907436Y-8023527D01*
X9874054Y-8032279D01*
X9788440Y-8068909D01*
X9733359Y-8129163D01*
X9690509Y-8230504D01*
X9672057Y-8291671D01*
X9667576Y-8344937D01*
X9694916Y-8352881D01*
X9757387Y-8319932D01*
X9764683Y-8315517D01*
X9850968Y-8280622D01*
X9948762Y-8260952D01*
X9989241Y-8255108D01*
X10061532Y-8225821D01*
X10090098Y-8181850D01*
X10067382Y-8131443D01*
X10044072Y-8117474D01*
X10014046Y-8140542D01*
X10001756Y-8159998D01*
X9976876Y-8165807D01*
X9968208Y-8126694D01*
X10000606Y-8075754D01*
X10062799Y-8025253D01*
X10141661Y-7985718D01*
X10224068Y-7967665D01*
X10290104Y-7952516D01*
X10330868Y-7919873D01*
X10371923Y-7892566D01*
X10455581Y-7893952D01*
X10497707Y-7902502D01*
X10540870Y-7920723D01*
X10525587Y-7936908D01*
X10452082Y-7947601D01*
X10407405Y-7951295D01*
X10393088Y-7959114D01*
X10426130Y-7976957D01*
X10456474Y-7992683D01*
X10498526Y-8021482D01*
X10506370Y-8026637D01*
X10526464Y-8009626D01*
X10529141Y-8003837D01*
X10566545Y-7990946D01*
X10626480Y-7997504D01*
X10683904Y-8018341D01*
X10713768Y-8048288D01*
X10717387Y-8059446D01*
X10735821Y-8068116D01*
X10754585Y-8037555D01*
X10763175Y-7981883D01*
X10768182Y-7946179D01*
X10788941Y-7921430D01*
X10809679Y-7923908D01*
X10833545Y-7951169D01*
X10807771Y-7997740D01*
X10788954Y-8027486D01*
X10795053Y-8068268D01*
X10815921Y-8077604D01*
X10857488Y-8057862D01*
X10866844Y-8048772D01*
X10907641Y-8043546D01*
X10969535Y-8083420D01*
X11048050Y-8148289D01*
X10911686Y-8149827D01*
X10841499Y-8155126D01*
X10795530Y-8172501D01*
X10802889Y-8197492D01*
X10866334Y-8225497D01*
X10908499Y-8243049D01*
X10966821Y-8283405D01*
X10974546Y-8293313D01*
X10960912Y-8304027D01*
X10894783Y-8288845D01*
X10867841Y-8281218D01*
X10811406Y-8274596D01*
X10803645Y-8296735D01*
X10804842Y-8315079D01*
X10773647Y-8293317D01*
X10738250Y-8270832D01*
X10707890Y-8289071D01*
X10696101Y-8306127D01*
X10653979Y-8320863D01*
X10644321Y-8318880D01*
X10603233Y-8323892D01*
X10606275Y-8350542D01*
X10653553Y-8383596D01*
X10694891Y-8403886D01*
X10738041Y-8436319D01*
X10728010Y-8454855D01*
X10667926Y-8457510D01*
X10560919Y-8442303D01*
X10506455Y-8432136D01*
X10430348Y-8419022D01*
X10391595Y-8413916D01*
X10368968Y-8405722D01*
X10319884Y-8372765D01*
X10297717Y-8348075D01*
X10301369Y-8318347D01*
X10343850Y-8307414D01*
X10413096Y-8321864D01*
X10449927Y-8329811D01*
X10506411Y-8313815D01*
X10580218Y-8257942D01*
X10607885Y-8233182D01*
X10651093Y-8188003D01*
X10655808Y-8160802D01*
X10627398Y-8137920D01*
X10590873Y-8124645D01*
X10547424Y-8133217D01*
X10512119Y-8147546D01*
X10464213Y-8130532D01*
X10441485Y-8086290D01*
X10438463Y-8076886D01*
X10394549Y-8052513D01*
X10307452Y-8038352D01*
X10252913Y-8034832D01*
X10199094Y-8037344D01*
X10180488Y-8056760D01*
X10182396Y-8100371D01*
X10195842Y-8164242D01*
X10217705Y-8190537D01*
X10242975Y-8161354D01*
X10264250Y-8139279D01*
X10304835Y-8160778D01*
X10336625Y-8206858D01*
X10329633Y-8246599D01*
X10276330Y-8257817D01*
X10222294Y-8233921D01*
X10155416Y-8163881D01*
X10141274Y-8144327D01*
X10107909Y-8101961D01*
X10098573Y-8105791D01*
X10105463Y-8154324D01*
X10136315Y-8231182D01*
X10190950Y-8304959D01*
X10199951Y-8314225D01*
X10239665Y-8371972D01*
X10230679Y-8403399D01*
X10178006Y-8405187D01*
X10086660Y-8374015D01*
X10071798Y-8367649D01*
X9941680Y-8338768D01*
X9812318Y-8362589D01*
X9674015Y-8440679D01*
X9668938Y-8444328D01*
X9598645Y-8484796D01*
X9561295Y-8480021D01*
X9554924Y-8427658D01*
X9577572Y-8325362D01*
X9599101Y-8265179D01*
X9633374Y-8201934D01*
X9687277Y-8126662D01*
X9767992Y-8029350D01*
X9882702Y-7899987D01*
X10151572Y-7601790D01*
X10060436Y-7577118D01*
X10054323Y-7575526D01*
X10021146Y-7571207D01*
X9992124Y-7567430D01*
X9963123Y-7578610D01*
X9955512Y-7587358D01*
X9924501Y-7572327D01*
X9917659Y-7558202D01*
X9931697Y-7516031D01*
X10076322Y-7516031D01*
X10115965Y-7531828D01*
X10196424Y-7539865D01*
X10293113Y-7537787D01*
X10383864Y-7526208D01*
X10446512Y-7505745D01*
X10488048Y-7474098D01*
X10502918Y-7429085D01*
X10460909Y-7384828D01*
X10361068Y-7339467D01*
X10360768Y-7339360D01*
X10271472Y-7313068D01*
X10213986Y-7315327D01*
X10168276Y-7346908D01*
X10111723Y-7403461D01*
X10190374Y-7389605D01*
X10262001Y-7384014D01*
X10286493Y-7397664D01*
X10260053Y-7424246D01*
X10183420Y-7456635D01*
X10145451Y-7470165D01*
X10089865Y-7497040D01*
X10076322Y-7516031D01*
X9931697Y-7516031D01*
X9934018Y-7509058D01*
X9986448Y-7443766D01*
X10064210Y-7370977D01*
X10156566Y-7299348D01*
X10252780Y-7237531D01*
X10342112Y-7194180D01*
X10413829Y-7177951D01*
X10420004Y-7178007D01*
G37*
G36*
X11460446Y-3280039D02*
G01*
X11466903Y-3295611D01*
X11426785Y-3320172D01*
X11400230Y-3331305D01*
X11344177Y-3359171D01*
X11318898Y-3389869D01*
X11324458Y-3435199D01*
X11360915Y-3506957D01*
X11428332Y-3616945D01*
X11487073Y-3710320D01*
X11585587Y-3863733D01*
X11684524Y-4014493D01*
X11777531Y-4153163D01*
X11858250Y-4270311D01*
X11920329Y-4356503D01*
X11957411Y-4402308D01*
X11958047Y-4402936D01*
X12019193Y-4439148D01*
X12112996Y-4472238D01*
X12213869Y-4494854D01*
X12296222Y-4499646D01*
X12321479Y-4498963D01*
X12337227Y-4516333D01*
X12318530Y-4569961D01*
X12300871Y-4617880D01*
X12302132Y-4659475D01*
X12335806Y-4655020D01*
X12396871Y-4602434D01*
X12421491Y-4573401D01*
X12439130Y-4552600D01*
X12450527Y-4513200D01*
X12424229Y-4477009D01*
X12404959Y-4449342D01*
X12524737Y-4449342D01*
X12524738Y-4470154D01*
X12545550Y-4470154D01*
X12545550Y-4449342D01*
X12524737Y-4449342D01*
X12404959Y-4449342D01*
X12396941Y-4437830D01*
X12412137Y-4400258D01*
X12479106Y-4366615D01*
X12601379Y-4334049D01*
X12609959Y-4332135D01*
X12739299Y-4289516D01*
X12816521Y-4233370D01*
X12816961Y-4232815D01*
X12843348Y-4193989D01*
X12843480Y-4190099D01*
X12924408Y-4190099D01*
X12951378Y-4230819D01*
X12979215Y-4251344D01*
X13012520Y-4252924D01*
X13015424Y-4234189D01*
X12987279Y-4194918D01*
X12958323Y-4175681D01*
X12926137Y-4172813D01*
X12924408Y-4190099D01*
X12843480Y-4190099D01*
X12844472Y-4160740D01*
X12814585Y-4117634D01*
X12747940Y-4049241D01*
X12696347Y-3996994D01*
X12649278Y-3946314D01*
X12633311Y-3924534D01*
X12638006Y-3924405D01*
X12681142Y-3935816D01*
X12753257Y-3960119D01*
X12769184Y-3965413D01*
X12848087Y-3979106D01*
X12908653Y-3971752D01*
X12937609Y-3947315D01*
X12921687Y-3909763D01*
X12903129Y-3896716D01*
X12866903Y-3899059D01*
X12857741Y-3904953D01*
X12836913Y-3887426D01*
X12834372Y-3860185D01*
X12859834Y-3825149D01*
X12922015Y-3826071D01*
X13013345Y-3863956D01*
X13057577Y-3886283D01*
X13113212Y-3904781D01*
X13129668Y-3893316D01*
X13127916Y-3859686D01*
X13150652Y-3830021D01*
X13190713Y-3845803D01*
X13202205Y-3863218D01*
X13196200Y-3903319D01*
X13174358Y-3930368D01*
X13136192Y-3988993D01*
X13107458Y-4024447D01*
X13073473Y-4019926D01*
X13043169Y-4013049D01*
X12993001Y-4043514D01*
X12988361Y-4048260D01*
X12961791Y-4096273D01*
X12987798Y-4142369D01*
X13022782Y-4165477D01*
X13065842Y-4157978D01*
X13090717Y-4147358D01*
X13136982Y-4166681D01*
X13176688Y-4200568D01*
X13245772Y-4231824D01*
X13296998Y-4218186D01*
X13310973Y-4207648D01*
X13344199Y-4207406D01*
X13368835Y-4206629D01*
X13414059Y-4173967D01*
X13440395Y-4137136D01*
X13431876Y-4114329D01*
X13420080Y-4108080D01*
X13434856Y-4087935D01*
X13448347Y-4081951D01*
X13495505Y-4081535D01*
X13509378Y-4123149D01*
X13486437Y-4199180D01*
X13478738Y-4216188D01*
X13456242Y-4277820D01*
X13454596Y-4307386D01*
X13455639Y-4308144D01*
X13481419Y-4340318D01*
X13520584Y-4399853D01*
X13526798Y-4409950D01*
X13553868Y-4462603D01*
X13540997Y-4489594D01*
X13480600Y-4512247D01*
X13464076Y-4516911D01*
X13391664Y-4526440D01*
X13324328Y-4522325D01*
X13275515Y-4508017D01*
X13258671Y-4486967D01*
X13287245Y-4462627D01*
X13307566Y-4446848D01*
X13298032Y-4410980D01*
X13283697Y-4387670D01*
X13280070Y-4327402D01*
X13280750Y-4324927D01*
X13280693Y-4292821D01*
X13248954Y-4275659D01*
X13171942Y-4265681D01*
X13163734Y-4265028D01*
X13070552Y-4270394D01*
X13023708Y-4304646D01*
X13000704Y-4331043D01*
X12940618Y-4352048D01*
X12932926Y-4351952D01*
X12901338Y-4362576D01*
X12887364Y-4402774D01*
X12885033Y-4487055D01*
X12887142Y-4526935D01*
X12902301Y-4611912D01*
X12926816Y-4664115D01*
X12970003Y-4684834D01*
X13050688Y-4705902D01*
X13149529Y-4723904D01*
X13247721Y-4735985D01*
X13326464Y-4739287D01*
X13366955Y-4730957D01*
X13389845Y-4728013D01*
X13441494Y-4748253D01*
X13478791Y-4762944D01*
X13499420Y-4751947D01*
X13514315Y-4747519D01*
X13570466Y-4757825D01*
X13654210Y-4781579D01*
X13750396Y-4813654D01*
X13843870Y-4848920D01*
X13919476Y-4882249D01*
X13962060Y-4908513D01*
X13982606Y-4922152D01*
X14043068Y-4937493D01*
X14069036Y-4939187D01*
X14172590Y-4953369D01*
X14282686Y-4976009D01*
X14366698Y-5000730D01*
X14370037Y-5002052D01*
X14420933Y-5026044D01*
X14472449Y-5061750D01*
X14545596Y-5123601D01*
X14580938Y-5146494D01*
X14615243Y-5147607D01*
X14621346Y-5143572D01*
X14671625Y-5131056D01*
X14744822Y-5123932D01*
X14813989Y-5123900D01*
X14852180Y-5132659D01*
X14850604Y-5143737D01*
X14815047Y-5168367D01*
X14792987Y-5179426D01*
X14788288Y-5191760D01*
X14836512Y-5200237D01*
X14936660Y-5218465D01*
X15023336Y-5244336D01*
X15073891Y-5271122D01*
X15079931Y-5278073D01*
X15080961Y-5307004D01*
X15043955Y-5319222D01*
X14985863Y-5307685D01*
X14977846Y-5304632D01*
X14898416Y-5284247D01*
X14804379Y-5270646D01*
X14689363Y-5260793D01*
X14743685Y-5315321D01*
X14802707Y-5354536D01*
X14886401Y-5380722D01*
X14960374Y-5396013D01*
X15036292Y-5423750D01*
X15088905Y-5436252D01*
X15156034Y-5402490D01*
X15160883Y-5398089D01*
X15192742Y-5374886D01*
X15187169Y-5395317D01*
X15174498Y-5428365D01*
X15189666Y-5447235D01*
X15232055Y-5434288D01*
X15289040Y-5390163D01*
X15315742Y-5364992D01*
X15343938Y-5348993D01*
X15345440Y-5376178D01*
X15342633Y-5394637D01*
X15354164Y-5419827D01*
X15406331Y-5418707D01*
X15455853Y-5407365D01*
X15502564Y-5384118D01*
X15516087Y-5375443D01*
X15566178Y-5376296D01*
X15591286Y-5378882D01*
X15667761Y-5366509D01*
X15776819Y-5337377D01*
X15905290Y-5295862D01*
X16040003Y-5246339D01*
X16167788Y-5193178D01*
X16275475Y-5140756D01*
X16318749Y-5116334D01*
X16430469Y-5040175D01*
X16492654Y-4973118D01*
X16494286Y-4970314D01*
X16539243Y-4915684D01*
X16574287Y-4917501D01*
X16595724Y-4975675D01*
X16596287Y-4979477D01*
X16596050Y-5009086D01*
X16579780Y-5035693D01*
X16538179Y-5066333D01*
X16461950Y-5108045D01*
X16341795Y-5167864D01*
X16137826Y-5259999D01*
X15902782Y-5350493D01*
X15669415Y-5425969D01*
X15453923Y-5481227D01*
X15272507Y-5511067D01*
X15264102Y-5511891D01*
X15161005Y-5523674D01*
X15084546Y-5535378D01*
X15050734Y-5544585D01*
X15032915Y-5546530D01*
X14984896Y-5527176D01*
X14949808Y-5513794D01*
X14908399Y-5520425D01*
X14901915Y-5533297D01*
X14925113Y-5555741D01*
X14946150Y-5564406D01*
X14918379Y-5569081D01*
X14880548Y-5553072D01*
X14807099Y-5504344D01*
X14708524Y-5429684D01*
X14594380Y-5335968D01*
X14593381Y-5335119D01*
X14481582Y-5242677D01*
X14381149Y-5164309D01*
X14303042Y-5108265D01*
X14258217Y-5082798D01*
X14238008Y-5078871D01*
X14203526Y-5085629D01*
X14158389Y-5114678D01*
X14092779Y-5172952D01*
X13996884Y-5267383D01*
X13795150Y-5470014D01*
X13785119Y-5915295D01*
X13982003Y-6155074D01*
X14178884Y-6394853D01*
X14089577Y-6513663D01*
X14021096Y-6603881D01*
X13873222Y-6790089D01*
X13739095Y-6943298D01*
X13606858Y-7075737D01*
X13464653Y-7199631D01*
X13300622Y-7327210D01*
X13270586Y-7349460D01*
X13150762Y-7434982D01*
X13046591Y-7504420D01*
X12968374Y-7551133D01*
X12926417Y-7568474D01*
X12907137Y-7566032D01*
X12868707Y-7543193D01*
X12817958Y-7488826D01*
X12761624Y-7415029D01*
X12745395Y-7393770D01*
X12663183Y-7288295D01*
X12598487Y-7223295D01*
X12542289Y-7190066D01*
X12522182Y-7183018D01*
X12422370Y-7157851D01*
X12320418Y-7144201D01*
X12235849Y-7143812D01*
X12188187Y-7158429D01*
X12187518Y-7159120D01*
X12176188Y-7210694D01*
X12194962Y-7298010D01*
X12238803Y-7409933D01*
X12302675Y-7535331D01*
X12381538Y-7663072D01*
X12470357Y-7782022D01*
X12508545Y-7828410D01*
X12579528Y-7920572D01*
X12622588Y-7991778D01*
X12646254Y-8057990D01*
X12659056Y-8135166D01*
X12664918Y-8355406D01*
X12622700Y-8640573D01*
X12527028Y-8948450D01*
X12378146Y-9278515D01*
X12176294Y-9630246D01*
X11921714Y-10003118D01*
X11614646Y-10396611D01*
X11481958Y-10554740D01*
X11340646Y-10718480D01*
X11204211Y-10872367D01*
X11083312Y-11004386D01*
X10988605Y-11102519D01*
X10960711Y-11129983D01*
X10861487Y-11224965D01*
X10799441Y-11279466D01*
X10772693Y-11296078D01*
X10779362Y-11277389D01*
X10817568Y-11225989D01*
X10885431Y-11144467D01*
X10981071Y-11035413D01*
X11102606Y-10901418D01*
X11248157Y-10745070D01*
X11354862Y-10631390D01*
X11495074Y-10480008D01*
X11600316Y-10362634D01*
X11674414Y-10274303D01*
X11721194Y-10210050D01*
X11744480Y-10164910D01*
X11748100Y-10133919D01*
X11735876Y-10112113D01*
X11728718Y-10101786D01*
X11732054Y-10055182D01*
X11767814Y-10008817D01*
X11821124Y-9984888D01*
X11822477Y-9984733D01*
X11871688Y-9954327D01*
X11928698Y-9882929D01*
X11933711Y-9875275D01*
X11997588Y-9791068D01*
X12063231Y-9721463D01*
X12092271Y-9693565D01*
X12114113Y-9652875D01*
X12093346Y-9616302D01*
X12073100Y-9589029D01*
X12083058Y-9558756D01*
X12137450Y-9516236D01*
X12152248Y-9505193D01*
X12231168Y-9421356D01*
X12308624Y-9302393D01*
X12315528Y-9289594D01*
X12362839Y-9190531D01*
X12412099Y-9071822D01*
X12458101Y-8948140D01*
X12495641Y-8834156D01*
X12519513Y-8744542D01*
X12524510Y-8693969D01*
X12523873Y-8685032D01*
X12533641Y-8628111D01*
X12557396Y-8548923D01*
X12562923Y-8533091D01*
X12581037Y-8472597D01*
X12575194Y-8456268D01*
X12543753Y-8475230D01*
X12540502Y-8477635D01*
X12496927Y-8498109D01*
X12484236Y-8480928D01*
X12501804Y-8437516D01*
X12549005Y-8379302D01*
X12577594Y-8348804D01*
X12599730Y-8308881D01*
X12579646Y-8286224D01*
X12560742Y-8272392D01*
X12562925Y-8240510D01*
X12568341Y-8227714D01*
X12566169Y-8168665D01*
X12548618Y-8083083D01*
X12520989Y-7990051D01*
X12488580Y-7908654D01*
X12456692Y-7857973D01*
X12438692Y-7848384D01*
X12428110Y-7876397D01*
X12431085Y-7956117D01*
X12435314Y-7994597D01*
X12450317Y-8073313D01*
X12468066Y-8116847D01*
X12476269Y-8132936D01*
X12461906Y-8175036D01*
X12429550Y-8178953D01*
X12390027Y-8142391D01*
X12356031Y-8078872D01*
X12338589Y-8003711D01*
X12337189Y-7988663D01*
X12324054Y-7936164D01*
X12307159Y-7928765D01*
X12295056Y-7972585D01*
X12291444Y-8003015D01*
X12283485Y-8010883D01*
X12267119Y-7963994D01*
X12260246Y-7910444D01*
X12275730Y-7861731D01*
X12286421Y-7842159D01*
X12272770Y-7797802D01*
X12259368Y-7775246D01*
X12282523Y-7745119D01*
X12288337Y-7742211D01*
X12305488Y-7713606D01*
X12279648Y-7685660D01*
X12222968Y-7673077D01*
X12189657Y-7668725D01*
X12197993Y-7648103D01*
X12205941Y-7631516D01*
X12189693Y-7589854D01*
X12163064Y-7553076D01*
X12122486Y-7459043D01*
X12091555Y-7342450D01*
X12077221Y-7225795D01*
X12073134Y-7105781D01*
X12066377Y-7104530D01*
X12634701Y-7104530D01*
X12660256Y-7135041D01*
X12683815Y-7156622D01*
X12705127Y-7216681D01*
X12707893Y-7234342D01*
X12741773Y-7298003D01*
X12804480Y-7372173D01*
X12837643Y-7404602D01*
X12890737Y-7446354D01*
X12933817Y-7453959D01*
X12986803Y-7434193D01*
X13039662Y-7401746D01*
X13067923Y-7352982D01*
X13084744Y-7323613D01*
X13152333Y-7310953D01*
X13177121Y-7308324D01*
X13261616Y-7279297D01*
X13348593Y-7228273D01*
X13402589Y-7183754D01*
X13482380Y-7107765D01*
X13564017Y-7021819D01*
X13636253Y-6938418D01*
X13687841Y-6870064D01*
X13707537Y-6829259D01*
X13706717Y-6821982D01*
X13706087Y-6816387D01*
X13678171Y-6800395D01*
X13615790Y-6829670D01*
X13520350Y-6903354D01*
X13393258Y-7020590D01*
X13320004Y-7090505D01*
X13239271Y-7163679D01*
X13181770Y-7211098D01*
X13156694Y-7224826D01*
X13161204Y-7205068D01*
X13192721Y-7149760D01*
X13245104Y-7073981D01*
X13346800Y-6936342D01*
X13227942Y-6805359D01*
X13195989Y-6771502D01*
X13111292Y-6697278D01*
X13048175Y-6667215D01*
X13027427Y-6668162D01*
X12955070Y-6697921D01*
X12873827Y-6755960D01*
X12801944Y-6827740D01*
X12757667Y-6898718D01*
X12750569Y-6951626D01*
X12771796Y-7011329D01*
X12780603Y-7021344D01*
X12794839Y-7042919D01*
X12765335Y-7028732D01*
X12726859Y-7021290D01*
X12666467Y-7054760D01*
X12659344Y-7062091D01*
X12634701Y-7104530D01*
X12066377Y-7104530D01*
X11906819Y-7074987D01*
X11841515Y-7064071D01*
X11764355Y-7060804D01*
X11706529Y-7080241D01*
X11644587Y-7127037D01*
X11627044Y-7142933D01*
X11571252Y-7207668D01*
X11550691Y-7258277D01*
X11557323Y-7285711D01*
X11576318Y-7257437D01*
X11585026Y-7241037D01*
X11608269Y-7223239D01*
X11625960Y-7259535D01*
X11639677Y-7352284D01*
X11641823Y-7379333D01*
X11635800Y-7444835D01*
X11606404Y-7464960D01*
X11576868Y-7455431D01*
X11567249Y-7406220D01*
X11567962Y-7391151D01*
X11549951Y-7330998D01*
X11490486Y-7281465D01*
X11440943Y-7260281D01*
X11380977Y-7234641D01*
X11354118Y-7224159D01*
X11259314Y-7179586D01*
X11141871Y-7117313D01*
X11021130Y-7047403D01*
X10963694Y-7012186D01*
X10863263Y-6946457D01*
X10793332Y-6890664D01*
X10739187Y-6832101D01*
X10686118Y-6758062D01*
X10666199Y-6727090D01*
X10611490Y-6613452D01*
X10604795Y-6524448D01*
X10645255Y-6453695D01*
X10658439Y-6441896D01*
X10693976Y-6430292D01*
X10703855Y-6459646D01*
X10681278Y-6517852D01*
X10679626Y-6520667D01*
X10662997Y-6571423D01*
X10674651Y-6627189D01*
X10719392Y-6695404D01*
X10802024Y-6783509D01*
X10927350Y-6898943D01*
X11026758Y-6981588D01*
X11174218Y-7082329D01*
X11304822Y-7144524D01*
X11412260Y-7165443D01*
X11490220Y-7142357D01*
X11530739Y-7102282D01*
X11577219Y-7035858D01*
X11612967Y-6965738D01*
X11622474Y-6933292D01*
X11758173Y-6933292D01*
X11760325Y-6940900D01*
X11801524Y-6968465D01*
X11885498Y-6993281D01*
X11999615Y-7012324D01*
X12131245Y-7022574D01*
X12317037Y-7029183D01*
X12337273Y-6998285D01*
X12347387Y-6982843D01*
X12352715Y-6982843D01*
X12454310Y-6987069D01*
X12455475Y-6987117D01*
X12521391Y-6992529D01*
X12541200Y-7006967D01*
X12527500Y-7039448D01*
X12523308Y-7050370D01*
X12542808Y-7042146D01*
X12591330Y-7000198D01*
X12630504Y-6959434D01*
X12684163Y-6885289D01*
X12710641Y-6822559D01*
X12708795Y-6780781D01*
X12677480Y-6769491D01*
X12615553Y-6798229D01*
X12606992Y-6803985D01*
X12532169Y-6855477D01*
X12513967Y-6868302D01*
X12449844Y-6913478D01*
X12352715Y-6982843D01*
X12347387Y-6982843D01*
X12439965Y-6841489D01*
X12473264Y-6790153D01*
X12519668Y-6714834D01*
X12667434Y-6714834D01*
X12771251Y-6682203D01*
X12815725Y-6664666D01*
X12864199Y-6633898D01*
X12880664Y-6607574D01*
X12854690Y-6596418D01*
X12852306Y-6596699D01*
X12812367Y-6615779D01*
X12750874Y-6655626D01*
X12667434Y-6714834D01*
X12519668Y-6714834D01*
X12533170Y-6692918D01*
X12558565Y-6641592D01*
X12549843Y-6635190D01*
X12507395Y-6672727D01*
X12500112Y-6679672D01*
X12451729Y-6708319D01*
X12423773Y-6699073D01*
X12431001Y-6655300D01*
X12427682Y-6629378D01*
X12389633Y-6613844D01*
X12336422Y-6616432D01*
X12290712Y-6639669D01*
X12288975Y-6641387D01*
X12264215Y-6653350D01*
X12254227Y-6614211D01*
X12254176Y-6613670D01*
X12240694Y-6572687D01*
X12202010Y-6578446D01*
X12174960Y-6585397D01*
X12134247Y-6572874D01*
X12120436Y-6557023D01*
X12074549Y-6512439D01*
X12067403Y-6506905D01*
X12025171Y-6502880D01*
X11968703Y-6546802D01*
X11961083Y-6555106D01*
X11914544Y-6619003D01*
X11861043Y-6707019D01*
X11810520Y-6800906D01*
X11772917Y-6882413D01*
X11758173Y-6933292D01*
X11622474Y-6933292D01*
X11629663Y-6908758D01*
X11618989Y-6881752D01*
X11618464Y-6881626D01*
X11558099Y-6853278D01*
X11466502Y-6793857D01*
X11355792Y-6711831D01*
X11238087Y-6615666D01*
X11166537Y-6558884D01*
X11091774Y-6509395D01*
X11042692Y-6488480D01*
X11007886Y-6479695D01*
X11017503Y-6456058D01*
X11029366Y-6436464D01*
X10998060Y-6428536D01*
X10963159Y-6419081D01*
X10937103Y-6368002D01*
X10926663Y-6340970D01*
X10879550Y-6302931D01*
X10819971Y-6306439D01*
X10770527Y-6353464D01*
X10767347Y-6359451D01*
X10748112Y-6390710D01*
X10739938Y-6378206D01*
X10738878Y-6360071D01*
X10736210Y-6314406D01*
X10735740Y-6307663D01*
X10717949Y-6229366D01*
X10680401Y-6122891D01*
X10630379Y-6009240D01*
X10624804Y-5997824D01*
X10569244Y-5883936D01*
X10518981Y-5780747D01*
X10484290Y-5709350D01*
X10479759Y-5699706D01*
X10457314Y-5636174D01*
X10457464Y-5600900D01*
X10466725Y-5594472D01*
X10495155Y-5606093D01*
X10509061Y-5655443D01*
X10510293Y-5663959D01*
X10533048Y-5722797D01*
X10577370Y-5810225D01*
X10633964Y-5910313D01*
X10693532Y-6007132D01*
X10746778Y-6084750D01*
X10784406Y-6127239D01*
X10810822Y-6140455D01*
X10846345Y-6134518D01*
X10898280Y-6099218D01*
X10979046Y-6028239D01*
X11047431Y-5960769D01*
X11115057Y-5872250D01*
X11133263Y-5807022D01*
X11100910Y-5767515D01*
X11088820Y-5759833D01*
X11065837Y-5714601D01*
X11061524Y-5698524D01*
X11028410Y-5642617D01*
X10973327Y-5573315D01*
X10944309Y-5538139D01*
X10907427Y-5479983D01*
X10902549Y-5447385D01*
X10906075Y-5440224D01*
X10901666Y-5390433D01*
X10876327Y-5317312D01*
X10866607Y-5295319D01*
X10836842Y-5226907D01*
X10821418Y-5189748D01*
X10802533Y-5177706D01*
X10747194Y-5170319D01*
X10696082Y-5182567D01*
X10635888Y-5218011D01*
X10586121Y-5263914D01*
X10560490Y-5307319D01*
X10572703Y-5335269D01*
X10591476Y-5353774D01*
X10562096Y-5382643D01*
X10553600Y-5387396D01*
X10505065Y-5399723D01*
X10488872Y-5372061D01*
X10503481Y-5311521D01*
X10547351Y-5225214D01*
X10618942Y-5120252D01*
X10694978Y-5020060D01*
X10530529Y-4980896D01*
X10460495Y-4966836D01*
X10367688Y-4956272D01*
X10307335Y-4959518D01*
X10303410Y-4960848D01*
X10248148Y-4994227D01*
X10175703Y-5054250D01*
X10098653Y-5128169D01*
X10029576Y-5203236D01*
X9981051Y-5266703D01*
X9965652Y-5305824D01*
X9966333Y-5308029D01*
X10001935Y-5337272D01*
X10069905Y-5357660D01*
X10210432Y-5384777D01*
X10333814Y-5421050D01*
X10413322Y-5460668D01*
X10441484Y-5500756D01*
X10435655Y-5532650D01*
X10409788Y-5518585D01*
X10401742Y-5512916D01*
X10344402Y-5489689D01*
X10250129Y-5461565D01*
X10134654Y-5433412D01*
X9891217Y-5379938D01*
X9861075Y-5179332D01*
X9860725Y-5176988D01*
X9848644Y-5074086D01*
X9845441Y-4995416D01*
X9851821Y-4957840D01*
X9873176Y-4958763D01*
X9891574Y-5000180D01*
X9900928Y-5066091D01*
X9896807Y-5138691D01*
X9893948Y-5191200D01*
X9907012Y-5215907D01*
X9942174Y-5198047D01*
X10008650Y-5143600D01*
X10095440Y-5060922D01*
X10193104Y-4958509D01*
X10222152Y-4924441D01*
X10260537Y-4863789D01*
X10262174Y-4833052D01*
X10229885Y-4839468D01*
X10166492Y-4890271D01*
X10164511Y-4892184D01*
X10116561Y-4935865D01*
X10102340Y-4938429D01*
X10115147Y-4901316D01*
X10141281Y-4857207D01*
X10186332Y-4816413D01*
X10205006Y-4802788D01*
X10204231Y-4771924D01*
X10197423Y-4756037D01*
X10222163Y-4727420D01*
X10232982Y-4721350D01*
X10244095Y-4686029D01*
X10201493Y-4639386D01*
X10197243Y-4626527D01*
X10218197Y-4588178D01*
X10232924Y-4567494D01*
X10216463Y-4565632D01*
X10201299Y-4569874D01*
X10158646Y-4559845D01*
X10155803Y-4550406D01*
X10301187Y-4550406D01*
X10308557Y-4677829D01*
X10328489Y-4781484D01*
X10359827Y-4844272D01*
X10401157Y-4869230D01*
X10485596Y-4901302D01*
X10589680Y-4929509D01*
X10680693Y-4952089D01*
X10761405Y-4977260D01*
X10802727Y-4996874D01*
X10817461Y-5019561D01*
X10847839Y-5087365D01*
X10880764Y-5178218D01*
X10892054Y-5209916D01*
X10938771Y-5320704D01*
X11001347Y-5451837D01*
X11069462Y-5581271D01*
X11104057Y-5645144D01*
X11155544Y-5747967D01*
X11189457Y-5826450D01*
X11199756Y-5867339D01*
X11199066Y-5869788D01*
X11171723Y-5911818D01*
X11114409Y-5979678D01*
X11038400Y-6059912D01*
X10884651Y-6214299D01*
X11132516Y-6434697D01*
X11209675Y-6501836D01*
X11331582Y-6603103D01*
X11444432Y-6691738D01*
X11531153Y-6754065D01*
X11681923Y-6853035D01*
X11747451Y-6773062D01*
X11750984Y-6768708D01*
X11799626Y-6700422D01*
X11828204Y-6645757D01*
X11829759Y-6641312D01*
X11859268Y-6582369D01*
X11904927Y-6509890D01*
X11966423Y-6421352D01*
X12224692Y-6489792D01*
X12339921Y-6514979D01*
X12488259Y-6535640D01*
X12634571Y-6545571D01*
X12764961Y-6544417D01*
X12865540Y-6531828D01*
X12922411Y-6507451D01*
X12947179Y-6498422D01*
X12993001Y-6520107D01*
X13013159Y-6548350D01*
X13013081Y-6583275D01*
X13008507Y-6599147D01*
X13046714Y-6622482D01*
X13087043Y-6643446D01*
X13160796Y-6694079D01*
X13244978Y-6760495D01*
X13314847Y-6817697D01*
X13374676Y-6863345D01*
X13403443Y-6880844D01*
X13405029Y-6880595D01*
X13442097Y-6860569D01*
X13513792Y-6814081D01*
X13564503Y-6779437D01*
X13749263Y-6779437D01*
X13761772Y-6778992D01*
X13785066Y-6762171D01*
X13834613Y-6706151D01*
X13838572Y-6698300D01*
X13828707Y-6697360D01*
X13788675Y-6733053D01*
X13774756Y-6747376D01*
X13749263Y-6779437D01*
X13564503Y-6779437D01*
X13608981Y-6749051D01*
X13716528Y-6673393D01*
X13825302Y-6595023D01*
X13924167Y-6521860D01*
X14001988Y-6461818D01*
X14047633Y-6422815D01*
X14116834Y-6353614D01*
X13913999Y-6150621D01*
X13711164Y-5947627D01*
X13736627Y-5749460D01*
X13742440Y-5678572D01*
X13738236Y-5508363D01*
X13725440Y-5424380D01*
X13713491Y-5345955D01*
X13711116Y-5335822D01*
X13690044Y-5234782D01*
X13682615Y-5184603D01*
X13775330Y-5184603D01*
X13794640Y-5241049D01*
X13805847Y-5264955D01*
X13837239Y-5312580D01*
X13858062Y-5302810D01*
X13871124Y-5235435D01*
X13874099Y-5190503D01*
X13861964Y-5159232D01*
X13819606Y-5156518D01*
X13791523Y-5161455D01*
X13775330Y-5184603D01*
X13682615Y-5184603D01*
X13678891Y-5159453D01*
X13680028Y-5125483D01*
X13711912Y-5115324D01*
X13786671Y-5101868D01*
X13886957Y-5088588D01*
X14078752Y-5066828D01*
X14016824Y-5004901D01*
X13970920Y-4977198D01*
X13876363Y-4941609D01*
X13751228Y-4905270D01*
X13610378Y-4871680D01*
X13468674Y-4844340D01*
X13340978Y-4826752D01*
X13242151Y-4822415D01*
X13203246Y-4825962D01*
X13148230Y-4844141D01*
X13091476Y-4887039D01*
X13015788Y-4965532D01*
X12889564Y-5104291D01*
X12930163Y-5244365D01*
X12949658Y-5336900D01*
X12944390Y-5488755D01*
X12888891Y-5614492D01*
X12786058Y-5708910D01*
X12638789Y-5766817D01*
X12519097Y-5781858D01*
X12493175Y-5780930D01*
X12382246Y-5776955D01*
X12259811Y-5752266D01*
X12173094Y-5710374D01*
X12145777Y-5693313D01*
X12132405Y-5684961D01*
X12110522Y-5679517D01*
X12083171Y-5672713D01*
X12048776Y-5657236D01*
X12152070Y-5657236D01*
X12155992Y-5683098D01*
X12201098Y-5703865D01*
X12278247Y-5714128D01*
X12356210Y-5710147D01*
X12406262Y-5691013D01*
X12424337Y-5665643D01*
X12406404Y-5665863D01*
X12395275Y-5665999D01*
X12350644Y-5667095D01*
X12313451Y-5659592D01*
X12301905Y-5657262D01*
X12277570Y-5652353D01*
X12247817Y-5644856D01*
X12188655Y-5642977D01*
X12152070Y-5657236D01*
X12048776Y-5657236D01*
X12046431Y-5656181D01*
X11995813Y-5616266D01*
X12471731Y-5616266D01*
X12505619Y-5658114D01*
X12560805Y-5713300D01*
X12687180Y-5558718D01*
X12751591Y-5477908D01*
X12808640Y-5402292D01*
X12840676Y-5354796D01*
X12853503Y-5327566D01*
X12842929Y-5313015D01*
X12787312Y-5319637D01*
X12785936Y-5319881D01*
X12728955Y-5338331D01*
X12723310Y-5366780D01*
X12724924Y-5375386D01*
X12705622Y-5422677D01*
X12656911Y-5482624D01*
X12644502Y-5494597D01*
X12573362Y-5551395D01*
X12512232Y-5584217D01*
X12485576Y-5593861D01*
X12471731Y-5616266D01*
X11995813Y-5616266D01*
X11983666Y-5606687D01*
X11983516Y-5606544D01*
X12183495Y-5606544D01*
X12243612Y-5554477D01*
X12379945Y-5554477D01*
X12389462Y-5569706D01*
X12395002Y-5569146D01*
X12417211Y-5541957D01*
X12414207Y-5532441D01*
X12389462Y-5541957D01*
X12379945Y-5554477D01*
X12243612Y-5554477D01*
X12320445Y-5487932D01*
X12454425Y-5487932D01*
X12462303Y-5510740D01*
X12476634Y-5511642D01*
X12524738Y-5489928D01*
X12534710Y-5477052D01*
X12536446Y-5469116D01*
X12587173Y-5469116D01*
X12591828Y-5480439D01*
X12615934Y-5481978D01*
X12621261Y-5475097D01*
X12628796Y-5427493D01*
X12624141Y-5416170D01*
X12600035Y-5414631D01*
X12594708Y-5421512D01*
X12587173Y-5469116D01*
X12536446Y-5469116D01*
X12545550Y-5427493D01*
X12525755Y-5418610D01*
X12483114Y-5448304D01*
X12454425Y-5487932D01*
X12320445Y-5487932D01*
X12435629Y-5388172D01*
X12525570Y-5308362D01*
X12609667Y-5229399D01*
X12666736Y-5170627D01*
X12687763Y-5140890D01*
X12670911Y-5124730D01*
X12618048Y-5122835D01*
X12617881Y-5122829D01*
X12590128Y-5127733D01*
X12536020Y-5147735D01*
X12521269Y-5181570D01*
X12517508Y-5190504D01*
X12485357Y-5237510D01*
X12427440Y-5312686D01*
X12352382Y-5404637D01*
X12183495Y-5606544D01*
X11983516Y-5606544D01*
X11908707Y-5535001D01*
X11830883Y-5446161D01*
X11803218Y-5403118D01*
X11767779Y-5347980D01*
X11815858Y-5347980D01*
X11818803Y-5387532D01*
X11851119Y-5397847D01*
X11920720Y-5372027D01*
X12015002Y-5302774D01*
X12055656Y-5281125D01*
X12109138Y-5300440D01*
X12132540Y-5321331D01*
X12143584Y-5320363D01*
X12128701Y-5272019D01*
X12117237Y-5222952D01*
X12122090Y-5184977D01*
X12143456Y-5184104D01*
X12187209Y-5213511D01*
X12225083Y-5240839D01*
X12301050Y-5268803D01*
X12340326Y-5271617D01*
X12349078Y-5255004D01*
X12319984Y-5203821D01*
X12280257Y-5149096D01*
X12247767Y-5117310D01*
X12241743Y-5113086D01*
X12243779Y-5084099D01*
X12244043Y-5083845D01*
X12277160Y-5087913D01*
X12327026Y-5125723D01*
X12346016Y-5143699D01*
X12395777Y-5176290D01*
X12415843Y-5165854D01*
X12403467Y-5119959D01*
X12355902Y-5046172D01*
X12335578Y-5020644D01*
X12326403Y-5009122D01*
X12279282Y-4954721D01*
X12254264Y-4932764D01*
X12225336Y-4943592D01*
X12169562Y-4988144D01*
X12109158Y-5052248D01*
X12060872Y-5119715D01*
X12053652Y-5131983D01*
X12014773Y-5181945D01*
X11986840Y-5181596D01*
X11974199Y-5176671D01*
X11973227Y-5208970D01*
X11975506Y-5234605D01*
X11962062Y-5238790D01*
X11958553Y-5236590D01*
X11920092Y-5246602D01*
X11864947Y-5287996D01*
X11815858Y-5347980D01*
X11767779Y-5347980D01*
X11723682Y-5279370D01*
X11716072Y-5267530D01*
X11682556Y-5176117D01*
X11826935Y-5176117D01*
X11859666Y-5157844D01*
X11892037Y-5134988D01*
X11979605Y-5063399D01*
X12071011Y-4978385D01*
X12153832Y-4892526D01*
X12169380Y-4873882D01*
X12347202Y-4873882D01*
X12348167Y-4876993D01*
X12394814Y-4961409D01*
X12464682Y-5021185D01*
X12543136Y-5050713D01*
X12615536Y-5044378D01*
X12667246Y-4996572D01*
X12676155Y-4973673D01*
X12675096Y-4896795D01*
X12793209Y-4896795D01*
X12798580Y-4942303D01*
X12825761Y-4964151D01*
X12875069Y-4931480D01*
X12913440Y-4884081D01*
X12915878Y-4844869D01*
X12866148Y-4831386D01*
X12827123Y-4832571D01*
X12798104Y-4847950D01*
X12793209Y-4896795D01*
X12675096Y-4896795D01*
X12674984Y-4888648D01*
X12636205Y-4803768D01*
X12571742Y-4738538D01*
X12493520Y-4712462D01*
X12474999Y-4713667D01*
X12463952Y-4718245D01*
X12400624Y-4744489D01*
X12352687Y-4803782D01*
X12347202Y-4873882D01*
X12169380Y-4873882D01*
X12215642Y-4818407D01*
X12244017Y-4768609D01*
X12234725Y-4764284D01*
X12190354Y-4796826D01*
X12113277Y-4867231D01*
X12007157Y-4972347D01*
X11944383Y-5036610D01*
X11867023Y-5118355D01*
X11828632Y-5163906D01*
X11826935Y-5176117D01*
X11682556Y-5176117D01*
X11653030Y-5095589D01*
X11649298Y-5085411D01*
X11637659Y-4943777D01*
X11744125Y-4943777D01*
X11756438Y-4992181D01*
X11772371Y-5000201D01*
X11815772Y-4983459D01*
X11884459Y-4922490D01*
X11886148Y-4920787D01*
X11959403Y-4837521D01*
X11993547Y-4777669D01*
X11986959Y-4746471D01*
X11938021Y-4749169D01*
X11900923Y-4764059D01*
X11827318Y-4815060D01*
X11771401Y-4879851D01*
X11744125Y-4943777D01*
X11637659Y-4943777D01*
X11634851Y-4909602D01*
X11636458Y-4853796D01*
X11627620Y-4768501D01*
X11610154Y-4725722D01*
X11606978Y-4717946D01*
X11600787Y-4712881D01*
X11548210Y-4680647D01*
X11455433Y-4629854D01*
X11332624Y-4565586D01*
X11189947Y-4492926D01*
X11149213Y-4472617D01*
X11037569Y-4416956D01*
X10885655Y-4342760D01*
X10744373Y-4275421D01*
X10623888Y-4220021D01*
X10534366Y-4181643D01*
X10480728Y-4162006D01*
X10410409Y-4142828D01*
X10375539Y-4142758D01*
X10366437Y-4160612D01*
X10346215Y-4223763D01*
X10323923Y-4312739D01*
X10307533Y-4416313D01*
X10301187Y-4550406D01*
X10155803Y-4550406D01*
X10154298Y-4545407D01*
X10182626Y-4518374D01*
X10215016Y-4491189D01*
X10248758Y-4429347D01*
X10259535Y-4390698D01*
X10253871Y-4370884D01*
X10212367Y-4385566D01*
X10186551Y-4396579D01*
X10169496Y-4398099D01*
X10198265Y-4364581D01*
X10220052Y-4329784D01*
X10223158Y-4277556D01*
X10220194Y-4240359D01*
X10243827Y-4179307D01*
X10256159Y-4161135D01*
X10298869Y-4102147D01*
X10337637Y-4067956D01*
X10383932Y-4058555D01*
X10449224Y-4073936D01*
X10544981Y-4114094D01*
X10682673Y-4179018D01*
X10684075Y-4179684D01*
X10807919Y-4236303D01*
X10911393Y-4279352D01*
X10983709Y-4304634D01*
X11014081Y-4307953D01*
X11012745Y-4287541D01*
X10988679Y-4227923D01*
X10945139Y-4147967D01*
X10915724Y-4098965D01*
X10855881Y-3998599D01*
X10808342Y-3918072D01*
X10764150Y-3842483D01*
X10900889Y-3842483D01*
X10906775Y-3886567D01*
X10936815Y-3955952D01*
X10994365Y-4063046D01*
X11011267Y-4092823D01*
X11071007Y-4189568D01*
X11122917Y-4261739D01*
X11157313Y-4295520D01*
X11177947Y-4308451D01*
X11184330Y-4332929D01*
X11185798Y-4357532D01*
X11219058Y-4402772D01*
X11273557Y-4434465D01*
X11338189Y-4415035D01*
X11405035Y-4375013D01*
X11374126Y-4445769D01*
X11361798Y-4491431D01*
X11378999Y-4500277D01*
X11420848Y-4506063D01*
X11475480Y-4544729D01*
X11524934Y-4580612D01*
X11559541Y-4582070D01*
X11576281Y-4576045D01*
X11588210Y-4615836D01*
X11594558Y-4639994D01*
X11614573Y-4640328D01*
X11645702Y-4616084D01*
X11695960Y-4616084D01*
X11705052Y-4630823D01*
X11764069Y-4629709D01*
X11799826Y-4624723D01*
X11847550Y-4607204D01*
X11848372Y-4587589D01*
X11797248Y-4574298D01*
X11761271Y-4576756D01*
X11731372Y-4591211D01*
X11706022Y-4603468D01*
X11695960Y-4616084D01*
X11645702Y-4616084D01*
X11656793Y-4607446D01*
X11730116Y-4536365D01*
X11743370Y-4521966D01*
X11800618Y-4521966D01*
X11837531Y-4532550D01*
X11872434Y-4529133D01*
X11903265Y-4500132D01*
X11888752Y-4458519D01*
X11867963Y-4455701D01*
X11824997Y-4483108D01*
X11815367Y-4493062D01*
X11800618Y-4521966D01*
X11743370Y-4521966D01*
X11806300Y-4453597D01*
X11849956Y-4384535D01*
X11845794Y-4342364D01*
X11794660Y-4324317D01*
X11757440Y-4315817D01*
X11763790Y-4294574D01*
X11764009Y-4294354D01*
X11778115Y-4268013D01*
X11753040Y-4264399D01*
X11702748Y-4281105D01*
X11641199Y-4315722D01*
X11639926Y-4316589D01*
X11575960Y-4349337D01*
X11548729Y-4341574D01*
X11560614Y-4300505D01*
X11613990Y-4233331D01*
X11651063Y-4192720D01*
X11661101Y-4171416D01*
X11630556Y-4179512D01*
X11596376Y-4192015D01*
X11583757Y-4181944D01*
X11602121Y-4130265D01*
X11607844Y-4116234D01*
X11619046Y-4081063D01*
X11603241Y-4086595D01*
X11553109Y-4133282D01*
X11538720Y-4146620D01*
X11479685Y-4185970D01*
X11445380Y-4181863D01*
X11443220Y-4134232D01*
X11452602Y-4117192D01*
X11498184Y-4097624D01*
X11539338Y-4085460D01*
X11596943Y-4043921D01*
X11619950Y-4019356D01*
X11628255Y-3999591D01*
X11590798Y-4005694D01*
X11554487Y-4011934D01*
X11537317Y-3993322D01*
X11537659Y-3931744D01*
X11539753Y-3880372D01*
X11533967Y-3865530D01*
X11514913Y-3897375D01*
X11497434Y-3927888D01*
X11489426Y-3920830D01*
X11489830Y-3861886D01*
X11489888Y-3860117D01*
X11483192Y-3776720D01*
X11457113Y-3746564D01*
X11413013Y-3771259D01*
X11365522Y-3811432D01*
X11308054Y-3839584D01*
X11272436Y-3835871D01*
X11269385Y-3803110D01*
X11309620Y-3744112D01*
X11335616Y-3714895D01*
X11346995Y-3695588D01*
X11317140Y-3712553D01*
X11273388Y-3732546D01*
X11218892Y-3733223D01*
X11202712Y-3731820D01*
X11185853Y-3730358D01*
X11129830Y-3756081D01*
X11120860Y-3758448D01*
X11143807Y-3724206D01*
X11177671Y-3681443D01*
X11218771Y-3681443D01*
X11234411Y-3700120D01*
X11263149Y-3695873D01*
X11313365Y-3662153D01*
X11323618Y-3651486D01*
X11339178Y-3625921D01*
X11307252Y-3627279D01*
X11296432Y-3629931D01*
X11243943Y-3653547D01*
X11218771Y-3681443D01*
X11177671Y-3681443D01*
X11194492Y-3660201D01*
X11307252Y-3523221D01*
X11165405Y-3571415D01*
X11151131Y-3576337D01*
X11036197Y-3624796D01*
X11026380Y-3632382D01*
X10975206Y-3671930D01*
X10963859Y-3720932D01*
X10958697Y-3751482D01*
X10923899Y-3802515D01*
X10915801Y-3811287D01*
X10900889Y-3842483D01*
X10764150Y-3842483D01*
X10754594Y-3826138D01*
X10986839Y-3580580D01*
X11024779Y-3540708D01*
X11052115Y-3513095D01*
X11145668Y-3513095D01*
X11160780Y-3511232D01*
X11185245Y-3493458D01*
X11222444Y-3448025D01*
X11223470Y-3445340D01*
X11213826Y-3441956D01*
X11176033Y-3475248D01*
X11169707Y-3481848D01*
X11145668Y-3513095D01*
X11052115Y-3513095D01*
X11127251Y-3437196D01*
X11205143Y-3367611D01*
X11268651Y-3323451D01*
X11327974Y-3296215D01*
X11355708Y-3287475D01*
X11419390Y-3276360D01*
X11460446Y-3280039D01*
G37*
D13*
%TO.C,J1*%
X-5650000Y-6150000D02*
X-5650000Y-7010000D01*
X-5650000Y-7010000D02*
X350000Y-7010000D01*
X-5650000Y-8690000D02*
X-5650000Y-9550000D01*
X-5650000Y-9550000D02*
X350000Y-9550000D01*
X-5650000Y-11230000D02*
X-5650000Y-12090000D01*
X-5650000Y-12090000D02*
X350000Y-12090000D01*
X350000Y-6150000D02*
X-5650000Y-6150000D01*
X350000Y-8690000D02*
X-5650000Y-8690000D01*
X350000Y-11230000D02*
X-5650000Y-11230000D01*
X3110000Y-5310000D02*
X350000Y-5310000D01*
X3110000Y-7850000D02*
X350000Y-7850000D01*
X3110000Y-10390000D02*
X350000Y-10390000D01*
X3340000Y-3610000D02*
X3110000Y-3610000D01*
X3340000Y-4470000D02*
X3110000Y-4470000D01*
X3422642Y-6150000D02*
X3110000Y-6150000D01*
X3422642Y-7010000D02*
X3110000Y-7010000D01*
X3422642Y-8690000D02*
X3110000Y-8690000D01*
X3422642Y-9550000D02*
X3110000Y-9550000D01*
X3422642Y-11230000D02*
X3110000Y-11230000D01*
X3422642Y-12090000D02*
X3110000Y-12090000D01*
X5770000Y-2770000D02*
X4500000Y-2770000D01*
X5770000Y-4040000D02*
X5770000Y-2770000D01*
X350000Y-3610000D02*
X-5650000Y-3610000D01*
X-5650000Y-4470000D01*
X350000Y-4470000D01*
X350000Y-3610000D01*
G36*
X350000Y-3610000D02*
G01*
X-5650000Y-3610000D01*
X-5650000Y-4470000D01*
X350000Y-4470000D01*
X350000Y-3610000D01*
G37*
X3110000Y-2660000D02*
X350000Y-2660000D01*
X350000Y-13040000D01*
X3110000Y-13040000D01*
X3110000Y-2660000D01*
%TO.C,J2*%
X24280000Y-260000D02*
X24280000Y-12780000D01*
X24280000Y-13380000D02*
X24280000Y-15740000D01*
X24280000Y-15740000D02*
X34320000Y-15740000D01*
X24900000Y-15740000D02*
X24900000Y-260000D01*
X26400000Y-15740000D02*
X26400000Y-260000D01*
X31300000Y-15740000D02*
X31300000Y-260000D01*
X34320000Y-260000D02*
X24280000Y-260000D01*
X34320000Y-15740000D02*
X34320000Y-260000D01*
X24280000Y-13080000D02*
X23670000Y-13520000D01*
X23670000Y-12640000D01*
X24280000Y-13080000D01*
G36*
X24280000Y-13080000D02*
G01*
X23670000Y-13520000D01*
X23670000Y-12640000D01*
X24280000Y-13080000D01*
G37*
%TD*%
%LPC*%
D14*
%TO.C,J1*%
X4500000Y-4040000D03*
D15*
X4500000Y-6580000D03*
X4500000Y-9120000D03*
X4500000Y-11660000D03*
%TD*%
D16*
%TO.C,J2*%
X29000000Y-13080000D03*
D17*
X29000000Y-8000000D03*
X29000000Y-2920000D03*
%TD*%
%LPD*%
M02*
