%TF.GenerationSoftware,KiCad,Pcbnew,9.0.5*%
%TF.CreationDate,2026-02-01T07:55:34-08:00*%
%TF.ProjectId,autodir_sch,6175746f-6469-4725-9f73-63682e6b6963,A1*%
%TF.SameCoordinates,PX11a49a0PYbd83a0*%
%TF.FileFunction,Copper,L1,Top*%
%TF.FilePolarity,Positive*%
%FSLAX46Y46*%
G04 Gerber Fmt 4.6, Leading zero omitted, Abs format (unit mm)*
G04 Created by KiCad (PCBNEW 9.0.5) date 2026-02-01 07:55:34*
%MOMM*%
%LPD*%
G01*
G04 APERTURE LIST*
G04 Aperture macros list*
%AMRoundRect*
0 Rectangle with rounded corners*
0 $1 Rounding radius*
0 $2 $3 $4 $5 $6 $7 $8 $9 X,Y pos of 4 corners*
0 Add a 4 corners polygon primitive as box body*
4,1,4,$2,$3,$4,$5,$6,$7,$8,$9,$2,$3,0*
0 Add four circle primitives for the rounded corners*
1,1,$1+$1,$2,$3*
1,1,$1+$1,$4,$5*
1,1,$1+$1,$6,$7*
1,1,$1+$1,$8,$9*
0 Add four rect primitives between the rounded corners*
20,1,$1+$1,$2,$3,$4,$5,0*
20,1,$1+$1,$4,$5,$6,$7,0*
20,1,$1+$1,$6,$7,$8,$9,0*
20,1,$1+$1,$8,$9,$2,$3,0*%
G04 Aperture macros list end*
%TA.AperFunction,SMDPad,CuDef*%
%ADD10RoundRect,0.150000X-0.825000X-0.150000X0.825000X-0.150000X0.825000X0.150000X-0.825000X0.150000X0*%
%TD*%
%TA.AperFunction,SMDPad,CuDef*%
%ADD11RoundRect,0.250000X-0.262500X-0.450000X0.262500X-0.450000X0.262500X0.450000X-0.262500X0.450000X0*%
%TD*%
%TA.AperFunction,SMDPad,CuDef*%
%ADD12RoundRect,0.137500X-0.612500X-0.137500X0.612500X-0.137500X0.612500X0.137500X-0.612500X0.137500X0*%
%TD*%
%TA.AperFunction,SMDPad,CuDef*%
%ADD13RoundRect,0.225000X-0.225000X-0.250000X0.225000X-0.250000X0.225000X0.250000X-0.225000X0.250000X0*%
%TD*%
%TA.AperFunction,SMDPad,CuDef*%
%ADD14RoundRect,0.200000X0.275000X-0.200000X0.275000X0.200000X-0.275000X0.200000X-0.275000X-0.200000X0*%
%TD*%
%TA.AperFunction,SMDPad,CuDef*%
%ADD15RoundRect,0.225000X0.225000X0.250000X-0.225000X0.250000X-0.225000X-0.250000X0.225000X-0.250000X0*%
%TD*%
%TA.AperFunction,SMDPad,CuDef*%
%ADD16RoundRect,0.200000X-0.275000X0.200000X-0.275000X-0.200000X0.275000X-0.200000X0.275000X0.200000X0*%
%TD*%
%TA.AperFunction,ComponentPad*%
%ADD17R,1.700000X1.700000*%
%TD*%
%TA.AperFunction,ComponentPad*%
%ADD18C,1.700000*%
%TD*%
%TA.AperFunction,ComponentPad*%
%ADD19RoundRect,0.250000X1.050000X-1.050000X1.050000X1.050000X-1.050000X1.050000X-1.050000X-1.050000X0*%
%TD*%
%TA.AperFunction,ComponentPad*%
%ADD20C,2.600000*%
%TD*%
%TA.AperFunction,Conductor*%
%ADD21C,0.400000*%
%TD*%
%TA.AperFunction,Conductor*%
%ADD22C,0.200000*%
%TD*%
%TA.AperFunction,Conductor*%
%ADD23C,0.300000*%
%TD*%
%TA.AperFunction,Conductor*%
%ADD24C,0.250000*%
%TD*%
%TA.AperFunction,Conductor*%
%ADD25C,0.500000*%
%TD*%
%TA.AperFunction,Conductor*%
%ADD26C,0.390000*%
%TD*%
G04 APERTURE END LIST*
D10*
%TO.P,U2,1,RO*%
%TO.N,/RO*%
X18525000Y-6095000D03*
%TO.P,U2,2,~{RE}*%
%TO.N,/DIR*%
X18525000Y-7365000D03*
%TO.P,U2,3,DE*%
X18525000Y-8635000D03*
%TO.P,U2,4,DI*%
%TO.N,/DI*%
X18525000Y-9905000D03*
%TO.P,U2,5,GND*%
%TO.N,GND*%
X23475000Y-9905000D03*
%TO.P,U2,6,A*%
%TO.N,/A*%
X23475000Y-8635000D03*
%TO.P,U2,7,B*%
%TO.N,/B*%
X23475000Y-7365000D03*
%TO.P,U2,8,VCC*%
%TO.N,+5V*%
X23475000Y-6095000D03*
%TD*%
D11*
%TO.P,J3,1,Pin_1*%
%TO.N,GND*%
X12587500Y-4000000D03*
%TO.P,J3,2,Pin_2*%
%TO.N,/SWIO*%
X14412500Y-4000000D03*
%TD*%
D12*
%TO.P,U1,1,T1CH2*%
%TO.N,/DI*%
X9850000Y-6095000D03*
%TO.P,U1,2,VSS*%
%TO.N,GND*%
X9850000Y-7365000D03*
%TO.P,U1,3,PA2*%
%TO.N,unconnected-(U1-PA2-Pad3)*%
X9850000Y-8635000D03*
%TO.P,U1,4,VDD*%
%TO.N,+5V*%
X9850000Y-9905000D03*
%TO.P,U1,5,PC1*%
%TO.N,unconnected-(U1-PC1-Pad5)*%
X15150000Y-9905000D03*
%TO.P,U1,6,PC2*%
%TO.N,unconnected-(U1-PC2-Pad6)*%
X15150000Y-8635000D03*
%TO.P,U1,7,T1CH4*%
%TO.N,/DIR*%
X15150000Y-7365000D03*
%TO.P,U1,8,SWIO*%
%TO.N,/SWIO*%
X15150000Y-6095000D03*
%TD*%
D13*
%TO.P,C1,1*%
%TO.N,+5V*%
X22222251Y-11594049D03*
%TO.P,C1,2*%
%TO.N,GND*%
X23772251Y-11594049D03*
%TD*%
D14*
%TO.P,R1,1*%
%TO.N,/A*%
X27000000Y-7324000D03*
%TO.P,R1,2*%
%TO.N,/B*%
X27000000Y-5674000D03*
%TD*%
%TO.P,R3,1*%
%TO.N,/B*%
X26344000Y-4357000D03*
%TO.P,R3,2*%
%TO.N,GND*%
X26344000Y-2707000D03*
%TD*%
D15*
%TO.P,C3,1*%
%TO.N,+5V*%
X21775000Y-4499000D03*
%TO.P,C3,2*%
%TO.N,GND*%
X20225000Y-4499000D03*
%TD*%
D16*
%TO.P,R2,1*%
%TO.N,+5V*%
X25500000Y-5674000D03*
%TO.P,R2,2*%
%TO.N,/A*%
X25500000Y-7324000D03*
%TD*%
D15*
%TO.P,C2,1*%
%TO.N,+5V*%
X20773628Y-11594049D03*
%TO.P,C2,2*%
%TO.N,GND*%
X19223628Y-11594049D03*
%TD*%
D17*
%TO.P,J1,1,Pin_1*%
%TO.N,GND*%
X4500000Y-4040000D03*
D18*
%TO.P,J1,2,Pin_2*%
%TO.N,/RO*%
X4500000Y-6580000D03*
%TO.P,J1,3,Pin_3*%
%TO.N,/DI*%
X4500000Y-9120000D03*
%TO.P,J1,4,Pin_4*%
%TO.N,+5V*%
X4500000Y-11660000D03*
%TD*%
D19*
%TO.P,J2,1,Pin_1*%
%TO.N,GND*%
X29000000Y-13080000D03*
D20*
%TO.P,J2,2,Pin_2*%
%TO.N,/A*%
X29000000Y-8000000D03*
%TO.P,J2,3,Pin_3*%
%TO.N,/B*%
X29000000Y-2920000D03*
%TD*%
D21*
%TO.N,GND*%
X23772251Y-11594049D02*
X25194049Y-11594049D01*
X25194049Y-11594049D02*
X25500000Y-11900000D01*
X25500000Y-11900000D02*
X25500000Y-13080000D01*
X23475000Y-9905000D02*
X23772252Y-10202252D01*
X23772252Y-10202252D02*
X23772252Y-11594051D01*
D22*
X23772252Y-11352252D02*
X23772252Y-11594051D01*
X23475000Y-11296799D02*
X23772252Y-11594051D01*
D21*
%TO.N,+5V*%
X22222251Y-11594049D02*
X22222251Y-12177749D01*
X22222251Y-12177749D02*
X21724000Y-12676000D01*
X21724000Y-12676000D02*
X13510000Y-12676000D01*
X21520000Y-7075001D02*
X21520000Y-10200000D01*
X21520000Y-10200000D02*
X21800000Y-10200000D01*
D23*
X21800000Y-10200000D02*
X22222251Y-10622251D01*
X22222251Y-10622251D02*
X22222251Y-11594049D01*
%TO.N,GND*%
X4983500Y-7850000D02*
X2150000Y-7850000D01*
D24*
X17482101Y-9270000D02*
X19629000Y-9270000D01*
D22*
X20010000Y-5838516D02*
X16670484Y-2499000D01*
X9850000Y-7365000D02*
X10485000Y-7365000D01*
X25500000Y-13080000D02*
X22280000Y-13080000D01*
D23*
X7373500Y-5460000D02*
X4983500Y-7850000D01*
X11120000Y-8000000D02*
X16212101Y-8000000D01*
D22*
X3500000Y-13080000D02*
X2000000Y-11580000D01*
X2000000Y-8000000D02*
X2000000Y-4999000D01*
D23*
X2150000Y-7850000D02*
X2127000Y-7873000D01*
D22*
X2959000Y-4040000D02*
X4500000Y-4040000D01*
X11970000Y-13438000D02*
X11612000Y-13080000D01*
X25500000Y-13080000D02*
X29000000Y-13080000D01*
D23*
X11120000Y-5841000D02*
X10739000Y-5460000D01*
D22*
X4500000Y-4040000D02*
X12547500Y-4040000D01*
X2000000Y-4999000D02*
X2959000Y-4040000D01*
X2127000Y-7873000D02*
X2000000Y-8000000D01*
D23*
X20010000Y-8889000D02*
X20040000Y-8919000D01*
D22*
X11612000Y-13080000D02*
X3500000Y-13080000D01*
X12547500Y-4040000D02*
X12587500Y-4000000D01*
X12750000Y-2499000D02*
X12587500Y-2661500D01*
D23*
X11120000Y-6730000D02*
X11120000Y-5841000D01*
X20040000Y-8919000D02*
X20040000Y-10777677D01*
D22*
X12587500Y-2661500D02*
X12587500Y-4000000D01*
D23*
X10485000Y-7365000D02*
X11120000Y-6730000D01*
D24*
X16841051Y-8628949D02*
X17482101Y-9270000D01*
D23*
X20040000Y-10777677D02*
X19223628Y-11594049D01*
X20010000Y-8889000D02*
X20010000Y-5838516D01*
X19629000Y-9270000D02*
X20010000Y-8889000D01*
D22*
X2000000Y-11580000D02*
X2000000Y-8000000D01*
X21922000Y-13438000D02*
X11970000Y-13438000D01*
D23*
X10739000Y-5460000D02*
X7373500Y-5460000D01*
X16212101Y-8000000D02*
X16841051Y-8628949D01*
D22*
X22280000Y-13080000D02*
X21922000Y-13438000D01*
X16670484Y-2499000D02*
X12750000Y-2499000D01*
X10485000Y-7365000D02*
X11120000Y-8000000D01*
%TO.N,+5V*%
X23475000Y-6095000D02*
X22500001Y-6095000D01*
D21*
X24760800Y-5674000D02*
X25500000Y-5674000D01*
D22*
X13510000Y-12676000D02*
X13510000Y-12310000D01*
X6940000Y-11660000D02*
X4500000Y-11660000D01*
D25*
X22500000Y-6095001D02*
X21775000Y-5370001D01*
D21*
X24339800Y-6095000D02*
X24760800Y-5674000D01*
D22*
X11105000Y-9905000D02*
X9850000Y-9905000D01*
D21*
X23475000Y-6095000D02*
X24339800Y-6095000D01*
D22*
X8695000Y-9905000D02*
X6940000Y-11660000D01*
X21520000Y-11500000D02*
X22040000Y-11500000D01*
X13510000Y-12310000D02*
X11105000Y-9905000D01*
X22500001Y-6095000D02*
X22500000Y-6095001D01*
X22040000Y-11500000D02*
X21518000Y-11500000D01*
D25*
X21775000Y-5370001D02*
X21775000Y-4499000D01*
D22*
X9850000Y-9905000D02*
X8695000Y-9905000D01*
X22500000Y-6095001D02*
X21520000Y-7075001D01*
%TO.N,/DI*%
X4650000Y-9270000D02*
X4500000Y-9120000D01*
D23*
X5008000Y-9120000D02*
X8033000Y-6095000D01*
X8033000Y-6095000D02*
X9850000Y-6095000D01*
X16557500Y-9270000D02*
X4650000Y-9270000D01*
X4500000Y-9120000D02*
X5008000Y-9120000D01*
X18525000Y-9905000D02*
X17192500Y-9905000D01*
X17192500Y-9905000D02*
X16557500Y-9270000D01*
%TO.N,/RO*%
X4500000Y-6580000D02*
X6255000Y-4825000D01*
X13025000Y-6730000D02*
X17045000Y-6730000D01*
X17045000Y-6730000D02*
X17680000Y-6095000D01*
X6255000Y-4825000D02*
X11120000Y-4825000D01*
X11120000Y-4825000D02*
X13025000Y-6730000D01*
D22*
X17680000Y-6095000D02*
X18525000Y-6095000D01*
X4591000Y-6671000D02*
X4500000Y-6580000D01*
D21*
%TO.N,/A*%
X25500000Y-7324000D02*
X27000000Y-7324000D01*
D25*
X23475000Y-8635000D02*
X24690000Y-8635000D01*
D22*
X28324000Y-7324000D02*
X29000000Y-8000000D01*
D25*
X25500000Y-7825000D02*
X25500000Y-7324000D01*
D21*
X27000000Y-7324000D02*
X28324000Y-7324000D01*
D25*
X24690000Y-8635000D02*
X25500000Y-7825000D01*
%TO.N,/B*%
X26907000Y-4920000D02*
X26344000Y-4357000D01*
X27000000Y-4920000D02*
X29000000Y-2920000D01*
D21*
X26175000Y-6499000D02*
X27000000Y-5674000D01*
D26*
X24901000Y-6499000D02*
X26175000Y-6499000D01*
X23951968Y-7365000D02*
X24035000Y-7365000D01*
D25*
X27000000Y-4920000D02*
X26907000Y-4920000D01*
D26*
X24035000Y-7365000D02*
X24901000Y-6499000D01*
D25*
X27000000Y-5674000D02*
X27000000Y-4920000D01*
D22*
X23475000Y-7365000D02*
X24310000Y-7365000D01*
X23475000Y-7365000D02*
X23951968Y-7365000D01*
D25*
%TO.N,/SWIO*%
X14412500Y-5357500D02*
X14412500Y-4000000D01*
X15150000Y-6095000D02*
X14412500Y-5357500D01*
D23*
%TO.N,/DIR*%
X18525000Y-7365000D02*
X15150000Y-7365000D01*
D25*
X18525000Y-7365000D02*
X18525000Y-8635000D01*
%TD*%
%TA.AperFunction,Conductor*%
%TO.N,/DI*%
G36*
X8743039Y-6130185D02*
G01*
X8788794Y-6182989D01*
X8800000Y-6234500D01*
X8800000Y-6711368D01*
X8780315Y-6778407D01*
X8763681Y-6799049D01*
X8729378Y-6833351D01*
X8729369Y-6833363D01*
X8647320Y-6972103D01*
X8647317Y-6972110D01*
X8602346Y-7126897D01*
X8602345Y-7126903D01*
X8599500Y-7163057D01*
X8599500Y-7566922D01*
X8599501Y-7566947D01*
X8602346Y-7603098D01*
X8647317Y-7757889D01*
X8647320Y-7757896D01*
X8729369Y-7896636D01*
X8729378Y-7896648D01*
X8745049Y-7912319D01*
X8778534Y-7973642D01*
X8773550Y-8043334D01*
X8745049Y-8087681D01*
X8729378Y-8103351D01*
X8729369Y-8103363D01*
X8647320Y-8242103D01*
X8647317Y-8242110D01*
X8602346Y-8396897D01*
X8602345Y-8396903D01*
X8599500Y-8433057D01*
X8599500Y-8836922D01*
X8599501Y-8836947D01*
X8602346Y-8873098D01*
X8647317Y-9027889D01*
X8648931Y-9031619D01*
X8649322Y-9034793D01*
X8649495Y-9035386D01*
X8649399Y-9035413D01*
X8657491Y-9100962D01*
X8627202Y-9163925D01*
X8567681Y-9200518D01*
X8537419Y-9204846D01*
X5976289Y-9252124D01*
X5908897Y-9233680D01*
X5862176Y-9181729D01*
X5850000Y-9128145D01*
X5850000Y-9013753D01*
X5816757Y-8803872D01*
X5816757Y-8803869D01*
X5751094Y-8601783D01*
X5716089Y-8533081D01*
X5703193Y-8464412D01*
X5729469Y-8399671D01*
X5738876Y-8389123D01*
X7981181Y-6146819D01*
X8042504Y-6113334D01*
X8068862Y-6110500D01*
X8676000Y-6110500D01*
X8743039Y-6130185D01*
G37*
%TD.AperFunction*%
%TD*%
%TA.AperFunction,Conductor*%
%TO.N,+5V*%
G36*
X21158738Y-5120491D02*
G01*
X21158950Y-5120458D01*
X21160627Y-5121194D01*
X21211903Y-5140269D01*
X22444784Y-5962189D01*
X22489644Y-6015753D01*
X22500000Y-6065362D01*
X22500000Y-6488080D01*
X22480315Y-6555119D01*
X22427511Y-6600874D01*
X22410596Y-6607156D01*
X22389605Y-6613254D01*
X22389603Y-6613255D01*
X22248137Y-6696917D01*
X22248129Y-6696923D01*
X22131923Y-6813129D01*
X22131916Y-6813138D01*
X22056698Y-6940326D01*
X22032918Y-6969373D01*
X22000000Y-6998999D01*
X21999999Y-6999000D01*
X22000964Y-7124825D01*
X22000586Y-7135499D01*
X21999500Y-7149304D01*
X21999500Y-7580701D01*
X22002402Y-7617571D01*
X22002913Y-7620369D01*
X22004927Y-7641697D01*
X22010256Y-8336781D01*
X22005340Y-8372316D01*
X22002403Y-8382427D01*
X22002401Y-8382438D01*
X21999500Y-8419298D01*
X21999500Y-8850701D01*
X21999753Y-8853913D01*
X22002402Y-8887569D01*
X22002403Y-8887571D01*
X22010020Y-8913793D01*
X22014938Y-8947432D01*
X22019744Y-9574126D01*
X22014825Y-9609671D01*
X22002402Y-9652430D01*
X22002401Y-9652436D01*
X21999500Y-9689298D01*
X21999500Y-10120701D01*
X22002401Y-10157567D01*
X22002402Y-10157573D01*
X22048254Y-10315393D01*
X22048255Y-10315396D01*
X22117171Y-10431928D01*
X22134354Y-10499652D01*
X22112194Y-10565915D01*
X22057727Y-10609678D01*
X22010441Y-10619049D01*
X21948944Y-10619049D01*
X21948927Y-10619050D01*
X21849643Y-10629193D01*
X21688769Y-10682501D01*
X21688764Y-10682503D01*
X21563036Y-10760054D01*
X21495643Y-10778494D01*
X21432842Y-10760053D01*
X21307120Y-10682506D01*
X21307109Y-10682501D01*
X21146234Y-10629193D01*
X21046950Y-10619049D01*
X21023628Y-10619049D01*
X21023628Y-11344049D01*
X22098251Y-11344049D01*
X22165290Y-11363734D01*
X22211045Y-11416538D01*
X22222251Y-11468049D01*
X22222251Y-11720049D01*
X22202566Y-11787088D01*
X22149762Y-11832843D01*
X22098251Y-11844049D01*
X21023628Y-11844049D01*
X21023628Y-12569048D01*
X21046936Y-12569048D01*
X21046950Y-12569047D01*
X21146235Y-12558904D01*
X21307109Y-12505596D01*
X21307116Y-12505593D01*
X21432841Y-12428044D01*
X21443983Y-12424995D01*
X21453142Y-12417957D01*
X21477068Y-12415941D01*
X21500234Y-12409603D01*
X21513041Y-12412911D01*
X21522765Y-12412093D01*
X21546954Y-12421674D01*
X21555987Y-12424008D01*
X21754633Y-12529242D01*
X21772508Y-12546671D01*
X21793033Y-12560881D01*
X21797090Y-12570640D01*
X21804658Y-12578019D01*
X21810272Y-12602344D01*
X21819857Y-12625397D01*
X21817994Y-12635801D01*
X21820371Y-12646099D01*
X21811943Y-12669597D01*
X21807543Y-12694173D01*
X21798748Y-12706385D01*
X21796783Y-12711867D01*
X21792347Y-12715275D01*
X21784267Y-12726497D01*
X21709584Y-12801181D01*
X21648261Y-12834666D01*
X21621902Y-12837500D01*
X12270097Y-12837500D01*
X12203058Y-12817815D01*
X12182416Y-12801181D01*
X12099590Y-12718355D01*
X12099588Y-12718352D01*
X11980717Y-12599481D01*
X11980716Y-12599480D01*
X11893904Y-12549360D01*
X11893904Y-12549359D01*
X11893900Y-12549358D01*
X11843785Y-12520423D01*
X11691057Y-12479499D01*
X11532943Y-12479499D01*
X11525347Y-12479499D01*
X11525331Y-12479500D01*
X5799934Y-12479500D01*
X5732895Y-12459815D01*
X5687140Y-12407011D01*
X5677196Y-12337853D01*
X5689449Y-12299205D01*
X5751095Y-12178217D01*
X5816757Y-11976130D01*
X5816757Y-11976127D01*
X5850000Y-11766246D01*
X5850000Y-11553753D01*
X5816757Y-11343872D01*
X5816757Y-11343869D01*
X5751095Y-11141782D01*
X5654624Y-10952449D01*
X5615270Y-10898282D01*
X5615269Y-10898282D01*
X4982962Y-11530589D01*
X4965925Y-11467007D01*
X4900099Y-11352993D01*
X4807007Y-11259901D01*
X4692993Y-11194075D01*
X4629407Y-11177036D01*
X5261716Y-10544728D01*
X5207547Y-10505373D01*
X5207547Y-10505372D01*
X5198500Y-10500763D01*
X5147706Y-10452788D01*
X5130912Y-10384966D01*
X5153451Y-10318832D01*
X5198508Y-10279793D01*
X5207816Y-10275051D01*
X5354069Y-10168793D01*
X5379786Y-10150109D01*
X5379788Y-10150106D01*
X5379792Y-10150104D01*
X5530104Y-9999792D01*
X5550577Y-9971613D01*
X5605906Y-9928949D01*
X5650894Y-9920500D01*
X8476001Y-9920500D01*
X8543040Y-9940185D01*
X8588795Y-9992989D01*
X8600001Y-10044500D01*
X8600001Y-10106893D01*
X8602844Y-10143021D01*
X8647779Y-10297689D01*
X8647780Y-10297692D01*
X8729770Y-10436331D01*
X8729776Y-10436339D01*
X8843660Y-10550223D01*
X8843668Y-10550229D01*
X8982307Y-10632219D01*
X8982310Y-10632220D01*
X9136975Y-10677155D01*
X9136981Y-10677156D01*
X9173116Y-10679999D01*
X9599999Y-10679999D01*
X9600000Y-10679998D01*
X9600000Y-10044500D01*
X9619685Y-9977461D01*
X9672489Y-9931706D01*
X9724000Y-9920500D01*
X9976000Y-9920500D01*
X10043039Y-9940185D01*
X10088794Y-9992989D01*
X10100000Y-10044500D01*
X10100000Y-10679999D01*
X10526872Y-10679999D01*
X10526893Y-10679998D01*
X10563021Y-10677155D01*
X10717689Y-10632220D01*
X10717692Y-10632219D01*
X10856331Y-10550229D01*
X10856339Y-10550223D01*
X10970223Y-10436339D01*
X10970229Y-10436331D01*
X11052219Y-10297692D01*
X11052220Y-10297689D01*
X11097155Y-10143024D01*
X11097156Y-10143018D01*
X11099999Y-10106890D01*
X11100000Y-10106875D01*
X11100000Y-10044500D01*
X11119685Y-9977461D01*
X11172489Y-9931706D01*
X11224000Y-9920500D01*
X13775501Y-9920500D01*
X13842540Y-9940185D01*
X13888295Y-9992989D01*
X13899501Y-10044500D01*
X13899501Y-10106947D01*
X13902346Y-10143098D01*
X13947317Y-10297889D01*
X13947320Y-10297896D01*
X14029369Y-10436636D01*
X14029378Y-10436648D01*
X14143351Y-10550621D01*
X14143355Y-10550624D01*
X14143357Y-10550626D01*
X14143360Y-10550627D01*
X14143363Y-10550630D01*
X14235856Y-10605329D01*
X14282106Y-10632681D01*
X14322928Y-10644541D01*
X14436897Y-10677653D01*
X14436900Y-10677653D01*
X14436902Y-10677654D01*
X14473065Y-10680500D01*
X15826934Y-10680499D01*
X15863098Y-10677654D01*
X16017894Y-10632681D01*
X16156643Y-10550626D01*
X16270626Y-10436643D01*
X16352681Y-10297894D01*
X16364595Y-10256884D01*
X16402199Y-10198001D01*
X16465672Y-10168793D01*
X16534858Y-10178538D01*
X16571352Y-10203799D01*
X16777825Y-10410272D01*
X16777832Y-10410278D01*
X16867962Y-10470500D01*
X16884374Y-10481466D01*
X16953721Y-10510189D01*
X17002756Y-10530501D01*
X17002759Y-10530501D01*
X17002760Y-10530502D01*
X17128428Y-10555500D01*
X17128431Y-10555500D01*
X17234484Y-10555500D01*
X17297605Y-10572768D01*
X17358167Y-10608583D01*
X17439602Y-10656744D01*
X17481224Y-10668836D01*
X17597426Y-10702597D01*
X17597429Y-10702597D01*
X17597431Y-10702598D01*
X17634306Y-10705500D01*
X18317906Y-10705500D01*
X18384945Y-10725185D01*
X18430700Y-10777989D01*
X18440644Y-10847147D01*
X18423444Y-10894597D01*
X18336629Y-11035343D01*
X18336624Y-11035354D01*
X18283279Y-11196339D01*
X18273128Y-11295696D01*
X18273128Y-11892386D01*
X18273129Y-11892404D01*
X18283278Y-11991756D01*
X18283279Y-11991759D01*
X18336624Y-12152743D01*
X18336629Y-12152754D01*
X18425657Y-12297089D01*
X18425660Y-12297093D01*
X18545583Y-12417016D01*
X18545587Y-12417019D01*
X18689922Y-12506047D01*
X18689925Y-12506048D01*
X18689931Y-12506052D01*
X18850920Y-12559398D01*
X18950283Y-12569549D01*
X19496972Y-12569548D01*
X19496980Y-12569547D01*
X19496983Y-12569547D01*
X19551388Y-12563989D01*
X19596336Y-12559398D01*
X19757325Y-12506052D01*
X19901672Y-12417017D01*
X19911296Y-12407392D01*
X19972615Y-12373905D01*
X20042307Y-12378884D01*
X20086662Y-12407388D01*
X20095895Y-12416621D01*
X20095899Y-12416624D01*
X20240135Y-12505591D01*
X20240146Y-12505596D01*
X20401021Y-12558904D01*
X20500311Y-12569048D01*
X20523628Y-12569047D01*
X20523628Y-11262360D01*
X20543313Y-11195321D01*
X20544526Y-11193470D01*
X20616464Y-11085806D01*
X20637362Y-11035354D01*
X20665501Y-10967421D01*
X20673326Y-10928083D01*
X20679987Y-10894597D01*
X20690500Y-10841748D01*
X20690500Y-9623000D01*
X20710185Y-9555961D01*
X20762989Y-9510206D01*
X20814500Y-9499000D01*
X21000000Y-9499000D01*
X21000000Y-5274192D01*
X21004762Y-5257517D01*
X21004518Y-5241023D01*
X21015837Y-5218738D01*
X21018703Y-5208705D01*
X21022644Y-5202367D01*
X21022968Y-5202044D01*
X21037723Y-5178121D01*
X21037826Y-5177957D01*
X21063733Y-5154827D01*
X21089532Y-5131623D01*
X21089767Y-5131584D01*
X21089946Y-5131425D01*
X21124394Y-5125950D01*
X21158495Y-5120401D01*
X21158738Y-5120491D01*
G37*
%TD.AperFunction*%
%TD*%
%TA.AperFunction,Conductor*%
%TO.N,/RO*%
G36*
X12271830Y-5200410D02*
G01*
X12271834Y-5200339D01*
X12274966Y-5200497D01*
X12274991Y-5200500D01*
X12900008Y-5200499D01*
X12900014Y-5200498D01*
X12903163Y-5200338D01*
X12903166Y-5200409D01*
X12911211Y-5200000D01*
X13538000Y-5200000D01*
X13605039Y-5219685D01*
X13650794Y-5272489D01*
X13662000Y-5324000D01*
X13662000Y-5431418D01*
X13662000Y-5431420D01*
X13661999Y-5431420D01*
X13690840Y-5576407D01*
X13690843Y-5576417D01*
X13747414Y-5712992D01*
X13747415Y-5712994D01*
X13747416Y-5712995D01*
X13765130Y-5739506D01*
X13829548Y-5835916D01*
X13869066Y-5875434D01*
X13874110Y-5882049D01*
X13883751Y-5907220D01*
X13896666Y-5930872D01*
X13898170Y-5944867D01*
X13899101Y-5947296D01*
X13898659Y-5949414D01*
X13899500Y-5957230D01*
X13899500Y-6296922D01*
X13899501Y-6296947D01*
X13902346Y-6333098D01*
X13947317Y-6487889D01*
X13947318Y-6487892D01*
X13982732Y-6547774D01*
X13987082Y-6563675D01*
X13994977Y-6575960D01*
X14000000Y-6610895D01*
X14000000Y-6666777D01*
X13980315Y-6733816D01*
X13927511Y-6779571D01*
X13867120Y-6790459D01*
X13069002Y-6733159D01*
X13003545Y-6708724D01*
X12992879Y-6699757D01*
X12898499Y-6610895D01*
X11627585Y-5414280D01*
X11592270Y-5353993D01*
X11595155Y-5284183D01*
X11635324Y-5227014D01*
X11700023Y-5200638D01*
X11712588Y-5200000D01*
X12263777Y-5200000D01*
X12271830Y-5200410D01*
G37*
%TD.AperFunction*%
%TD*%
%TA.AperFunction,Conductor*%
%TO.N,GND*%
G36*
X20138668Y-10277587D02*
G01*
X20178598Y-10334922D01*
X20185000Y-10374250D01*
X20185000Y-10646721D01*
X20183594Y-10651509D01*
X20184622Y-10656391D01*
X20173847Y-10684700D01*
X20165315Y-10713760D01*
X20161281Y-10717719D01*
X20159770Y-10721691D01*
X20134647Y-10746481D01*
X20130484Y-10749553D01*
X20095584Y-10771081D01*
X20079393Y-10787271D01*
X20071921Y-10792788D01*
X20006296Y-10816768D01*
X19938123Y-10801462D01*
X19910593Y-10780709D01*
X19901359Y-10771475D01*
X19819664Y-10721084D01*
X19772940Y-10669135D01*
X19761719Y-10600173D01*
X19789563Y-10536091D01*
X19797070Y-10527875D01*
X19868081Y-10456865D01*
X19951744Y-10315398D01*
X19951744Y-10315397D01*
X19954268Y-10311130D01*
X20005336Y-10263446D01*
X20074078Y-10250942D01*
X20138668Y-10277587D01*
G37*
%TD.AperFunction*%
%TA.AperFunction,Conductor*%
G36*
X17071563Y-8035185D02*
G01*
X17117318Y-8087989D01*
X17127262Y-8157147D01*
X17111257Y-8202617D01*
X17098734Y-8223792D01*
X17098253Y-8224607D01*
X17052402Y-8382426D01*
X17052401Y-8382432D01*
X17049500Y-8419298D01*
X17049500Y-8584935D01*
X17029815Y-8651974D01*
X16977011Y-8697729D01*
X16907853Y-8707673D01*
X16871325Y-8695696D01*
X16871255Y-8695866D01*
X16869031Y-8694944D01*
X16867052Y-8694296D01*
X16865630Y-8693536D01*
X16747244Y-8644499D01*
X16747238Y-8644497D01*
X16621571Y-8619500D01*
X16621569Y-8619500D01*
X16524499Y-8619500D01*
X16457460Y-8599815D01*
X16411705Y-8547011D01*
X16400499Y-8495500D01*
X16400499Y-8433077D01*
X16400498Y-8433052D01*
X16399417Y-8419313D01*
X16397654Y-8396902D01*
X16352681Y-8242106D01*
X16329328Y-8202619D01*
X16312148Y-8134896D01*
X16334308Y-8068634D01*
X16388774Y-8024871D01*
X16436062Y-8015500D01*
X17004524Y-8015500D01*
X17071563Y-8035185D01*
G37*
%TD.AperFunction*%
%TA.AperFunction,Conductor*%
G36*
X11305701Y-5931094D02*
G01*
X11312180Y-5937126D01*
X12610325Y-7235272D01*
X12610332Y-7235278D01*
X12699207Y-7294662D01*
X12699208Y-7294662D01*
X12716873Y-7306465D01*
X12835256Y-7355501D01*
X12835260Y-7355501D01*
X12835261Y-7355502D01*
X12960928Y-7380500D01*
X12960931Y-7380500D01*
X13775501Y-7380500D01*
X13842540Y-7400185D01*
X13888295Y-7452989D01*
X13899501Y-7504500D01*
X13899501Y-7566947D01*
X13902346Y-7603098D01*
X13947317Y-7757889D01*
X13947320Y-7757896D01*
X14029369Y-7896636D01*
X14029378Y-7896648D01*
X14045049Y-7912319D01*
X14078534Y-7973642D01*
X14073550Y-8043334D01*
X14045049Y-8087681D01*
X14029378Y-8103351D01*
X14029369Y-8103363D01*
X13947320Y-8242103D01*
X13947317Y-8242110D01*
X13902346Y-8396897D01*
X13902345Y-8396903D01*
X13899500Y-8433057D01*
X13899500Y-8495500D01*
X13879815Y-8562539D01*
X13827011Y-8608294D01*
X13775500Y-8619500D01*
X11224499Y-8619500D01*
X11157460Y-8599815D01*
X11111705Y-8547011D01*
X11100499Y-8495500D01*
X11100499Y-8433077D01*
X11100498Y-8433052D01*
X11099417Y-8419313D01*
X11097654Y-8396902D01*
X11052681Y-8242106D01*
X11008547Y-8167478D01*
X10970630Y-8103363D01*
X10970628Y-8103361D01*
X10970626Y-8103357D01*
X10954598Y-8087329D01*
X10921111Y-8026007D01*
X10926094Y-7956315D01*
X10954598Y-7911963D01*
X10970225Y-7896336D01*
X10970231Y-7896329D01*
X11052218Y-7757695D01*
X11052218Y-7757694D01*
X11093674Y-7615000D01*
X9974000Y-7615000D01*
X9906961Y-7595315D01*
X9861206Y-7542511D01*
X9850000Y-7491000D01*
X9850000Y-7239000D01*
X9869685Y-7171961D01*
X9922489Y-7126206D01*
X9974000Y-7115000D01*
X11093674Y-7115000D01*
X11052218Y-6972305D01*
X11052218Y-6972304D01*
X10970229Y-6833668D01*
X10970223Y-6833661D01*
X10954598Y-6818036D01*
X10921111Y-6756714D01*
X10926094Y-6687022D01*
X10954596Y-6642672D01*
X10970626Y-6626643D01*
X11052681Y-6487894D01*
X11093450Y-6347567D01*
X11097653Y-6333102D01*
X11097654Y-6333096D01*
X11100500Y-6296935D01*
X11100499Y-6024805D01*
X11120183Y-5957768D01*
X11172987Y-5912013D01*
X11242146Y-5902069D01*
X11305701Y-5931094D01*
G37*
%TD.AperFunction*%
%TA.AperFunction,Conductor*%
G36*
X7500230Y-5495185D02*
G01*
X7545985Y-5547989D01*
X7555929Y-5617147D01*
X7526904Y-5680703D01*
X7520872Y-5687181D01*
X5933162Y-7274890D01*
X5871839Y-7308375D01*
X5802147Y-7303391D01*
X5746214Y-7261519D01*
X5721797Y-7196055D01*
X5734997Y-7130913D01*
X5751555Y-7098416D01*
X5751556Y-7098414D01*
X5751557Y-7098412D01*
X5817246Y-6896243D01*
X5850500Y-6686287D01*
X5850500Y-6473713D01*
X5842256Y-6421661D01*
X5816484Y-6258945D01*
X5818126Y-6258684D01*
X5821254Y-6196137D01*
X5850657Y-6149288D01*
X6488127Y-5511819D01*
X6549450Y-5478334D01*
X6575808Y-5475500D01*
X7433191Y-5475500D01*
X7500230Y-5495185D01*
G37*
%TD.AperFunction*%
%TA.AperFunction,Conductor*%
G36*
X33942539Y-520185D02*
G01*
X33988294Y-572989D01*
X33999500Y-624500D01*
X33999500Y-15375500D01*
X33979815Y-15442539D01*
X33927011Y-15488294D01*
X33875500Y-15499500D01*
X624500Y-15499500D01*
X557461Y-15479815D01*
X511706Y-15427011D01*
X500500Y-15375500D01*
X500500Y-6473713D01*
X3149500Y-6473713D01*
X3149500Y-6686287D01*
X3156424Y-6730000D01*
X3178676Y-6870499D01*
X3182754Y-6896243D01*
X3247525Y-7095588D01*
X3248444Y-7098414D01*
X3344951Y-7287820D01*
X3469890Y-7459786D01*
X3620213Y-7610109D01*
X3792182Y-7735050D01*
X3800946Y-7739516D01*
X3851742Y-7787491D01*
X3868536Y-7855312D01*
X3845998Y-7921447D01*
X3800946Y-7960484D01*
X3792182Y-7964949D01*
X3620213Y-8089890D01*
X3469890Y-8240213D01*
X3344951Y-8412179D01*
X3248444Y-8601585D01*
X3182753Y-8803760D01*
X3149500Y-9013713D01*
X3149500Y-9226286D01*
X3182176Y-9432598D01*
X3182754Y-9436243D01*
X3243435Y-9623000D01*
X3248444Y-9638414D01*
X3344951Y-9827820D01*
X3469890Y-9999786D01*
X3620213Y-10150109D01*
X3792182Y-10275050D01*
X3800946Y-10279516D01*
X3851742Y-10327491D01*
X3868536Y-10395312D01*
X3845998Y-10461447D01*
X3800946Y-10500484D01*
X3792182Y-10504949D01*
X3620213Y-10629890D01*
X3469890Y-10780213D01*
X3344951Y-10952179D01*
X3248444Y-11141585D01*
X3182753Y-11343760D01*
X3149500Y-11553713D01*
X3149500Y-11766286D01*
X3176642Y-11937658D01*
X3182754Y-11976243D01*
X3240033Y-12152530D01*
X3248444Y-12178414D01*
X3344951Y-12367820D01*
X3469890Y-12539786D01*
X3620213Y-12690109D01*
X3792179Y-12815048D01*
X3792181Y-12815049D01*
X3792184Y-12815051D01*
X3981588Y-12911557D01*
X4183757Y-12977246D01*
X4393713Y-13010500D01*
X4393714Y-13010500D01*
X4606286Y-13010500D01*
X4606287Y-13010500D01*
X4816243Y-12977246D01*
X5018412Y-12911557D01*
X5207816Y-12815051D01*
X5221149Y-12805363D01*
X5286951Y-12781883D01*
X5355006Y-12797705D01*
X5375232Y-12811962D01*
X5459598Y-12885067D01*
X5459602Y-12885069D01*
X5517601Y-12911557D01*
X5590475Y-12944838D01*
X5657514Y-12964523D01*
X5657518Y-12964524D01*
X5799934Y-12985000D01*
X5799937Y-12985000D01*
X11527237Y-12985000D01*
X11527300Y-12984999D01*
X11599987Y-12984999D01*
X11667026Y-13004684D01*
X11687668Y-13021318D01*
X11810369Y-13144019D01*
X11824973Y-13158623D01*
X11865235Y-13194788D01*
X11885877Y-13211422D01*
X11885882Y-13211426D01*
X11911586Y-13229961D01*
X11929761Y-13243067D01*
X12060638Y-13302838D01*
X12127677Y-13322523D01*
X12127681Y-13322524D01*
X12270097Y-13343000D01*
X13265585Y-13343000D01*
X13301575Y-13348338D01*
X13305669Y-13349579D01*
X13305670Y-13349579D01*
X13305672Y-13349580D01*
X13360244Y-13360435D01*
X13441004Y-13376500D01*
X13441007Y-13376500D01*
X21792996Y-13376500D01*
X21884040Y-13358389D01*
X21928328Y-13349580D01*
X22041174Y-13302838D01*
X22055807Y-13296777D01*
X22055808Y-13296776D01*
X22055811Y-13296775D01*
X22170543Y-13220114D01*
X22179235Y-13211422D01*
X22199701Y-13190957D01*
X22648735Y-12741921D01*
X22766364Y-12624292D01*
X22767016Y-12623316D01*
X22843026Y-12509560D01*
X22863187Y-12460885D01*
X22867709Y-12453265D01*
X22881345Y-12440569D01*
X22895242Y-12422184D01*
X22895185Y-12422127D01*
X22895595Y-12421716D01*
X22897447Y-12419267D01*
X22900277Y-12417027D01*
X22900295Y-12417017D01*
X22909922Y-12407389D01*
X22971242Y-12373904D01*
X23040934Y-12378886D01*
X23085285Y-12407388D01*
X23094518Y-12416621D01*
X23094522Y-12416624D01*
X23238758Y-12505591D01*
X23238769Y-12505596D01*
X23399644Y-12558904D01*
X23498934Y-12569048D01*
X24022251Y-12569048D01*
X24045559Y-12569048D01*
X24045573Y-12569047D01*
X24144858Y-12558904D01*
X24305732Y-12505596D01*
X24305743Y-12505591D01*
X24449979Y-12416624D01*
X24449983Y-12416621D01*
X24569823Y-12296781D01*
X24569826Y-12296777D01*
X24658793Y-12152541D01*
X24658798Y-12152530D01*
X24712106Y-11991656D01*
X24713296Y-11980013D01*
X27200000Y-11980013D01*
X27200000Y-12830000D01*
X28399999Y-12830000D01*
X28374979Y-12890402D01*
X28350000Y-13015981D01*
X28350000Y-13144019D01*
X28374979Y-13269598D01*
X28399999Y-13330000D01*
X27200001Y-13330000D01*
X27200001Y-14179986D01*
X27210494Y-14282697D01*
X27265641Y-14449119D01*
X27265643Y-14449124D01*
X27357684Y-14598345D01*
X27481654Y-14722315D01*
X27630875Y-14814356D01*
X27630880Y-14814358D01*
X27797302Y-14869505D01*
X27797309Y-14869506D01*
X27900019Y-14879999D01*
X28749999Y-14879999D01*
X28750000Y-14879998D01*
X28750000Y-13680001D01*
X28810402Y-13705021D01*
X28935981Y-13730000D01*
X29064019Y-13730000D01*
X29189598Y-13705021D01*
X29250000Y-13680001D01*
X29250000Y-14879999D01*
X30099972Y-14879999D01*
X30099986Y-14879998D01*
X30202697Y-14869505D01*
X30369119Y-14814358D01*
X30369124Y-14814356D01*
X30518345Y-14722315D01*
X30642315Y-14598345D01*
X30734356Y-14449124D01*
X30734358Y-14449119D01*
X30789505Y-14282697D01*
X30789506Y-14282690D01*
X30799999Y-14179986D01*
X30800000Y-14179973D01*
X30800000Y-13330000D01*
X29600001Y-13330000D01*
X29625021Y-13269598D01*
X29650000Y-13144019D01*
X29650000Y-13015981D01*
X29625021Y-12890402D01*
X29600001Y-12830000D01*
X30799999Y-12830000D01*
X30799999Y-11980028D01*
X30799998Y-11980013D01*
X30789505Y-11877302D01*
X30734358Y-11710880D01*
X30734356Y-11710875D01*
X30642315Y-11561654D01*
X30518345Y-11437684D01*
X30369124Y-11345643D01*
X30369119Y-11345641D01*
X30202697Y-11290494D01*
X30202690Y-11290493D01*
X30099986Y-11280000D01*
X29250000Y-11280000D01*
X29250000Y-12479998D01*
X29189598Y-12454979D01*
X29064019Y-12430000D01*
X28935981Y-12430000D01*
X28810402Y-12454979D01*
X28750000Y-12479998D01*
X28750000Y-11280000D01*
X27900028Y-11280000D01*
X27900012Y-11280001D01*
X27797302Y-11290494D01*
X27630880Y-11345641D01*
X27630875Y-11345643D01*
X27481654Y-11437684D01*
X27357684Y-11561654D01*
X27265643Y-11710875D01*
X27265641Y-11710880D01*
X27210494Y-11877302D01*
X27210493Y-11877309D01*
X27200000Y-11980013D01*
X24713296Y-11980013D01*
X24714906Y-11964260D01*
X24714906Y-11964259D01*
X24722250Y-11892373D01*
X24722251Y-11892358D01*
X24722251Y-11844049D01*
X24022251Y-11844049D01*
X24022251Y-12569048D01*
X23498934Y-12569048D01*
X23522251Y-12569047D01*
X23522251Y-11718049D01*
X23541936Y-11651010D01*
X23594740Y-11605255D01*
X23646251Y-11594049D01*
X23772251Y-11594049D01*
X23772251Y-11468049D01*
X23791936Y-11401010D01*
X23844740Y-11355255D01*
X23896251Y-11344049D01*
X24722250Y-11344049D01*
X24722250Y-11295741D01*
X24722249Y-11295726D01*
X24712106Y-11196441D01*
X24658798Y-11035567D01*
X24658793Y-11035556D01*
X24569826Y-10891320D01*
X24569823Y-10891316D01*
X24531593Y-10853086D01*
X24498108Y-10791763D01*
X24503092Y-10722071D01*
X24544964Y-10666138D01*
X24556154Y-10658673D01*
X24701549Y-10572687D01*
X24701561Y-10572678D01*
X24817678Y-10456561D01*
X24817685Y-10456552D01*
X24901281Y-10315198D01*
X24947100Y-10157486D01*
X24947295Y-10155001D01*
X24947295Y-10155000D01*
X23599000Y-10155000D01*
X23531961Y-10135315D01*
X23486206Y-10082511D01*
X23475000Y-10031000D01*
X23475000Y-9779000D01*
X23494685Y-9711961D01*
X23547489Y-9666206D01*
X23599000Y-9655000D01*
X24947295Y-9655000D01*
X24947295Y-9654998D01*
X24947100Y-9652511D01*
X24947099Y-9652505D01*
X24899819Y-9489766D01*
X24898773Y-9488325D01*
X24897013Y-9457373D01*
X24893213Y-9426606D01*
X24895047Y-9422792D01*
X24894807Y-9418568D01*
X24910059Y-9391579D01*
X24923497Y-9363641D01*
X24927693Y-9360376D01*
X24929184Y-9357740D01*
X24941484Y-9349650D01*
X24957744Y-9337004D01*
X24962808Y-9334333D01*
X25045495Y-9300084D01*
X25106422Y-9259374D01*
X25168416Y-9217952D01*
X26082952Y-8303416D01*
X26123915Y-8242109D01*
X26138699Y-8219984D01*
X26150301Y-8202620D01*
X26165084Y-8180495D01*
X26168305Y-8172717D01*
X26212145Y-8118313D01*
X26278438Y-8096247D01*
X26346138Y-8113525D01*
X26346914Y-8113989D01*
X26435394Y-8167478D01*
X26597804Y-8218086D01*
X26668384Y-8224500D01*
X27104775Y-8224500D01*
X27171814Y-8244185D01*
X27217569Y-8296989D01*
X27227713Y-8332314D01*
X27230307Y-8352014D01*
X27252025Y-8433065D01*
X27291393Y-8579991D01*
X27381714Y-8798045D01*
X27381719Y-8798056D01*
X27452677Y-8920957D01*
X27499727Y-9002450D01*
X27499729Y-9002453D01*
X27499730Y-9002454D01*
X27643406Y-9189697D01*
X27643412Y-9189704D01*
X27810295Y-9356587D01*
X27810302Y-9356593D01*
X27849596Y-9386744D01*
X27997550Y-9500273D01*
X28117659Y-9569618D01*
X28201943Y-9618280D01*
X28201948Y-9618282D01*
X28201951Y-9618284D01*
X28420007Y-9708606D01*
X28647986Y-9769693D01*
X28881989Y-9800500D01*
X28881996Y-9800500D01*
X29118004Y-9800500D01*
X29118011Y-9800500D01*
X29352014Y-9769693D01*
X29579993Y-9708606D01*
X29798049Y-9618284D01*
X30002450Y-9500273D01*
X30189699Y-9356592D01*
X30356592Y-9189699D01*
X30500273Y-9002450D01*
X30618284Y-8798049D01*
X30708606Y-8579993D01*
X30769693Y-8352014D01*
X30800500Y-8118011D01*
X30800500Y-7881989D01*
X30769693Y-7647986D01*
X30708606Y-7420007D01*
X30618284Y-7201951D01*
X30618282Y-7201948D01*
X30618280Y-7201943D01*
X30566600Y-7112432D01*
X30500273Y-6997550D01*
X30422538Y-6896243D01*
X30356593Y-6810302D01*
X30356587Y-6810295D01*
X30189704Y-6643412D01*
X30189697Y-6643406D01*
X30002454Y-6499730D01*
X30002453Y-6499729D01*
X30002450Y-6499727D01*
X29880765Y-6429472D01*
X29798056Y-6381719D01*
X29798045Y-6381714D01*
X29579993Y-6291394D01*
X29352010Y-6230306D01*
X29118020Y-6199501D01*
X29118017Y-6199500D01*
X29118011Y-6199500D01*
X28881989Y-6199500D01*
X28881983Y-6199500D01*
X28881979Y-6199501D01*
X28647989Y-6230306D01*
X28420006Y-6291394D01*
X28201954Y-6381714D01*
X28201943Y-6381719D01*
X27997557Y-6499722D01*
X27997542Y-6499732D01*
X27961468Y-6527413D01*
X27896299Y-6552606D01*
X27827854Y-6538567D01*
X27777865Y-6489752D01*
X27762203Y-6421661D01*
X27785839Y-6355911D01*
X27798303Y-6341354D01*
X27830469Y-6309188D01*
X27830472Y-6309185D01*
X27918478Y-6163606D01*
X27969086Y-6001196D01*
X27975500Y-5930616D01*
X27975500Y-5417384D01*
X27969086Y-5346804D01*
X27918478Y-5184394D01*
X27918477Y-5184392D01*
X27918476Y-5184389D01*
X27915894Y-5178653D01*
X27906328Y-5109441D01*
X27935700Y-5046045D01*
X27941270Y-5040095D01*
X28316349Y-4665016D01*
X28377671Y-4631533D01*
X28436121Y-4632923D01*
X28647986Y-4689693D01*
X28881989Y-4720500D01*
X28881996Y-4720500D01*
X29118004Y-4720500D01*
X29118011Y-4720500D01*
X29352014Y-4689693D01*
X29579993Y-4628606D01*
X29798049Y-4538284D01*
X30002450Y-4420273D01*
X30189699Y-4276592D01*
X30356592Y-4109699D01*
X30500273Y-3922450D01*
X30618284Y-3718049D01*
X30708606Y-3499993D01*
X30769693Y-3272014D01*
X30800500Y-3038011D01*
X30800500Y-2801989D01*
X30769693Y-2567986D01*
X30708606Y-2340007D01*
X30618284Y-2121951D01*
X30618282Y-2121948D01*
X30618280Y-2121943D01*
X30576118Y-2048918D01*
X30500273Y-1917550D01*
X30356592Y-1730301D01*
X30356587Y-1730295D01*
X30189704Y-1563412D01*
X30189697Y-1563406D01*
X30002454Y-1419730D01*
X30002453Y-1419729D01*
X30002450Y-1419727D01*
X29920957Y-1372677D01*
X29798056Y-1301719D01*
X29798045Y-1301714D01*
X29579993Y-1211394D01*
X29352010Y-1150306D01*
X29118020Y-1119501D01*
X29118017Y-1119500D01*
X29118011Y-1119500D01*
X28881989Y-1119500D01*
X28881983Y-1119500D01*
X28881979Y-1119501D01*
X28647989Y-1150306D01*
X28420006Y-1211394D01*
X28201954Y-1301714D01*
X28201943Y-1301719D01*
X27997545Y-1419730D01*
X27810302Y-1563406D01*
X27810295Y-1563412D01*
X27643412Y-1730295D01*
X27643406Y-1730302D01*
X27499732Y-1917542D01*
X27499728Y-1917547D01*
X27499727Y-1917550D01*
X27457445Y-1990783D01*
X27399928Y-2090406D01*
X27349360Y-2138621D01*
X27280753Y-2151843D01*
X27215889Y-2125875D01*
X27186424Y-2092554D01*
X27174074Y-2072125D01*
X27174071Y-2072121D01*
X27053877Y-1951927D01*
X26908395Y-1863980D01*
X26908396Y-1863980D01*
X26746105Y-1813409D01*
X26746106Y-1813409D01*
X26675572Y-1807000D01*
X26594000Y-1807000D01*
X26594000Y-2583000D01*
X26574315Y-2650039D01*
X26521511Y-2695794D01*
X26470000Y-2707000D01*
X26344000Y-2707000D01*
X26344000Y-2833000D01*
X26324315Y-2900039D01*
X26271511Y-2945794D01*
X26220000Y-2957000D01*
X25369001Y-2957000D01*
X25369001Y-2963582D01*
X25375408Y-3034102D01*
X25375409Y-3034107D01*
X25425981Y-3196396D01*
X25513927Y-3341877D01*
X25616015Y-3443965D01*
X25649500Y-3505288D01*
X25644516Y-3574980D01*
X25616015Y-3619327D01*
X25513531Y-3721810D01*
X25513530Y-3721811D01*
X25425522Y-3867393D01*
X25374913Y-4029807D01*
X25368500Y-4100386D01*
X25368500Y-4613615D01*
X25370741Y-4638280D01*
X25357204Y-4706825D01*
X25308757Y-4757171D01*
X25247250Y-4773500D01*
X25168384Y-4773500D01*
X25149145Y-4775248D01*
X25097807Y-4779913D01*
X24935393Y-4830522D01*
X24789811Y-4918530D01*
X24770915Y-4937426D01*
X24709592Y-4970910D01*
X24695401Y-4973145D01*
X24691807Y-4973499D01*
X24556477Y-5000418D01*
X24556467Y-5000421D01*
X24428992Y-5053222D01*
X24314256Y-5129886D01*
X24271349Y-5172794D01*
X24185960Y-5258182D01*
X24124640Y-5291666D01*
X24098281Y-5294500D01*
X22812229Y-5294500D01*
X22782788Y-5285855D01*
X22752802Y-5279332D01*
X22747786Y-5275577D01*
X22745190Y-5274815D01*
X22724548Y-5258181D01*
X22678709Y-5212342D01*
X22645224Y-5151019D01*
X22650208Y-5081327D01*
X22660855Y-5059559D01*
X22662001Y-5057700D01*
X22662000Y-5057700D01*
X22662003Y-5057697D01*
X22715349Y-4896708D01*
X22725500Y-4797345D01*
X22725499Y-4200656D01*
X22725179Y-4197528D01*
X22715349Y-4101292D01*
X22715348Y-4101289D01*
X22678071Y-3988794D01*
X22662003Y-3940303D01*
X22661999Y-3940297D01*
X22661998Y-3940294D01*
X22572970Y-3795959D01*
X22572967Y-3795955D01*
X22453044Y-3676032D01*
X22453040Y-3676029D01*
X22308705Y-3587001D01*
X22308699Y-3586998D01*
X22308697Y-3586997D01*
X22189629Y-3547542D01*
X22147709Y-3533651D01*
X22048346Y-3523500D01*
X21501662Y-3523500D01*
X21501644Y-3523501D01*
X21402292Y-3533650D01*
X21402289Y-3533651D01*
X21241305Y-3586996D01*
X21241294Y-3587001D01*
X21096959Y-3676029D01*
X21096953Y-3676033D01*
X21087324Y-3685663D01*
X21026000Y-3719146D01*
X20956308Y-3714159D01*
X20911965Y-3685660D01*
X20902732Y-3676427D01*
X20902728Y-3676424D01*
X20758492Y-3587457D01*
X20758481Y-3587452D01*
X20597606Y-3534144D01*
X20498322Y-3524000D01*
X20475000Y-3524000D01*
X20475000Y-5487981D01*
X20491666Y-5518503D01*
X20494500Y-5544861D01*
X20494500Y-9020272D01*
X20474815Y-9087311D01*
X20437543Y-9124585D01*
X20431962Y-9128171D01*
X20431944Y-9128184D01*
X20379159Y-9173923D01*
X20284933Y-9282664D01*
X20284930Y-9282668D01*
X20225164Y-9413534D01*
X20205475Y-9480585D01*
X20205474Y-9480588D01*
X20201811Y-9506067D01*
X20172785Y-9569622D01*
X20114006Y-9607395D01*
X20044137Y-9607393D01*
X19985359Y-9569618D01*
X19970137Y-9547652D01*
X19963737Y-9535882D01*
X19951744Y-9494602D01*
X19868081Y-9353135D01*
X19859940Y-9344994D01*
X19851371Y-9329235D01*
X19847641Y-9311943D01*
X19839155Y-9296421D01*
X19840427Y-9278497D01*
X19836640Y-9260936D01*
X19842850Y-9244373D01*
X19844104Y-9226726D01*
X19856982Y-9206686D01*
X19861172Y-9195515D01*
X19863888Y-9193488D01*
X19863298Y-9193031D01*
X19868075Y-9186870D01*
X19868081Y-9186865D01*
X19951744Y-9045398D01*
X19997598Y-8887569D01*
X20000500Y-8850694D01*
X20000500Y-8419306D01*
X19997598Y-8382431D01*
X19988757Y-8352002D01*
X19957433Y-8244185D01*
X19951744Y-8224602D01*
X19868081Y-8083135D01*
X19868078Y-8083132D01*
X19863298Y-8076969D01*
X19865750Y-8075066D01*
X19839155Y-8026421D01*
X19844104Y-7956726D01*
X19864940Y-7924304D01*
X19863298Y-7923031D01*
X19868075Y-7916870D01*
X19868081Y-7916865D01*
X19951744Y-7775398D01*
X19997598Y-7617569D01*
X20000500Y-7580694D01*
X20000500Y-7149306D01*
X19997598Y-7112431D01*
X19993526Y-7098416D01*
X19951745Y-6954606D01*
X19951744Y-6954603D01*
X19951744Y-6954602D01*
X19868081Y-6813135D01*
X19868078Y-6813132D01*
X19863298Y-6806969D01*
X19865750Y-6805066D01*
X19839155Y-6756421D01*
X19844104Y-6686726D01*
X19864940Y-6654304D01*
X19863298Y-6653031D01*
X19868075Y-6646870D01*
X19868081Y-6646865D01*
X19951744Y-6505398D01*
X19987678Y-6381714D01*
X19997597Y-6347573D01*
X19997598Y-6347567D01*
X19998087Y-6341354D01*
X20000500Y-6310694D01*
X20000500Y-5879306D01*
X19997598Y-5842431D01*
X19987849Y-5808874D01*
X19951746Y-5684607D01*
X19951744Y-5684603D01*
X19951744Y-5684602D01*
X19931082Y-5649664D01*
X19913900Y-5581944D01*
X19936060Y-5515681D01*
X19950133Y-5498865D01*
X19975000Y-5473997D01*
X19975000Y-4749000D01*
X19275001Y-4749000D01*
X19275001Y-4797322D01*
X19285144Y-4896607D01*
X19338452Y-5057481D01*
X19338455Y-5057488D01*
X19368010Y-5105402D01*
X19386451Y-5172794D01*
X19365529Y-5239458D01*
X19311888Y-5284228D01*
X19262472Y-5294500D01*
X17634298Y-5294500D01*
X17597432Y-5297401D01*
X17597426Y-5297402D01*
X17439606Y-5343254D01*
X17439603Y-5343255D01*
X17298137Y-5426917D01*
X17298129Y-5426923D01*
X17181923Y-5543129D01*
X17181917Y-5543137D01*
X17098255Y-5684603D01*
X17098254Y-5684605D01*
X17077573Y-5755789D01*
X17046178Y-5808874D01*
X16811871Y-6043182D01*
X16784940Y-6057888D01*
X16759127Y-6074477D01*
X16752927Y-6075368D01*
X16750551Y-6076666D01*
X16724192Y-6079500D01*
X16524499Y-6079500D01*
X16457460Y-6059815D01*
X16411705Y-6007011D01*
X16400499Y-5955500D01*
X16400499Y-5893077D01*
X16400498Y-5893052D01*
X16399417Y-5879313D01*
X16397654Y-5856902D01*
X16352681Y-5702106D01*
X16286219Y-5589723D01*
X16270630Y-5563363D01*
X16270621Y-5563351D01*
X16156648Y-5449378D01*
X16156636Y-5449369D01*
X16017896Y-5367320D01*
X16017889Y-5367317D01*
X15863102Y-5322346D01*
X15863096Y-5322345D01*
X15826942Y-5319500D01*
X15826935Y-5319500D01*
X15487229Y-5319500D01*
X15457788Y-5310855D01*
X15427802Y-5304332D01*
X15422786Y-5300577D01*
X15420190Y-5299815D01*
X15399548Y-5283181D01*
X15300756Y-5184389D01*
X15239047Y-5122679D01*
X15205563Y-5061358D01*
X15210547Y-4991666D01*
X15239045Y-4947322D01*
X15267712Y-4918656D01*
X15359814Y-4769334D01*
X15414999Y-4602797D01*
X15425500Y-4500009D01*
X15425499Y-4200677D01*
X19275000Y-4200677D01*
X19275000Y-4249000D01*
X19975000Y-4249000D01*
X19975000Y-3523999D01*
X19951693Y-3524000D01*
X19951674Y-3524001D01*
X19852392Y-3534144D01*
X19691518Y-3587452D01*
X19691507Y-3587457D01*
X19547271Y-3676424D01*
X19547267Y-3676427D01*
X19427427Y-3796267D01*
X19427424Y-3796271D01*
X19338457Y-3940507D01*
X19338452Y-3940518D01*
X19285144Y-4101393D01*
X19275000Y-4200677D01*
X15425499Y-4200677D01*
X15425499Y-4000000D01*
X15425499Y-3499998D01*
X15425498Y-3499980D01*
X15414999Y-3397203D01*
X15414998Y-3397200D01*
X15373514Y-3272010D01*
X15359814Y-3230666D01*
X15267712Y-3081344D01*
X15143656Y-2957288D01*
X14994334Y-2865186D01*
X14827797Y-2810001D01*
X14827795Y-2810000D01*
X14725010Y-2799500D01*
X14099998Y-2799500D01*
X14099980Y-2799501D01*
X13997203Y-2810000D01*
X13997200Y-2810001D01*
X13830668Y-2865185D01*
X13830663Y-2865187D01*
X13681345Y-2957287D01*
X13587327Y-3051305D01*
X13526003Y-3084789D01*
X13456312Y-3079805D01*
X13411965Y-3051304D01*
X13318345Y-2957684D01*
X13169124Y-2865643D01*
X13169119Y-2865641D01*
X13002697Y-2810494D01*
X13002690Y-2810493D01*
X12899986Y-2800000D01*
X12837500Y-2800000D01*
X12837500Y-3876000D01*
X12817815Y-3943039D01*
X12765011Y-3988794D01*
X12713500Y-4000000D01*
X12587500Y-4000000D01*
X12587500Y-4126000D01*
X12567815Y-4193039D01*
X12515011Y-4238794D01*
X12463500Y-4250000D01*
X11563354Y-4250000D01*
X11527679Y-4269478D01*
X11457987Y-4264491D01*
X11432439Y-4251416D01*
X11428126Y-4248534D01*
X11309744Y-4199499D01*
X11309738Y-4199497D01*
X11184071Y-4174500D01*
X11184069Y-4174500D01*
X6190931Y-4174500D01*
X6190929Y-4174500D01*
X6065261Y-4199497D01*
X6065255Y-4199499D01*
X5946871Y-4248535D01*
X5916089Y-4269103D01*
X5849411Y-4289980D01*
X5847200Y-4290000D01*
X4933012Y-4290000D01*
X4965925Y-4232993D01*
X5000000Y-4105826D01*
X5000000Y-3974174D01*
X4965925Y-3847007D01*
X4933012Y-3790000D01*
X5850000Y-3790000D01*
X5850000Y-3500013D01*
X11575000Y-3500013D01*
X11575000Y-3750000D01*
X12337500Y-3750000D01*
X12337500Y-2800000D01*
X12337499Y-2799999D01*
X12275028Y-2800000D01*
X12275011Y-2800001D01*
X12172302Y-2810494D01*
X12005880Y-2865641D01*
X12005875Y-2865643D01*
X11856654Y-2957684D01*
X11732684Y-3081654D01*
X11640643Y-3230875D01*
X11640641Y-3230880D01*
X11585494Y-3397302D01*
X11585493Y-3397309D01*
X11575000Y-3500013D01*
X5850000Y-3500013D01*
X5850000Y-3142172D01*
X5849999Y-3142155D01*
X5843598Y-3082627D01*
X5843596Y-3082620D01*
X5793354Y-2947913D01*
X5793350Y-2947906D01*
X5707190Y-2832812D01*
X5707187Y-2832809D01*
X5592093Y-2746649D01*
X5592086Y-2746645D01*
X5457379Y-2696403D01*
X5457372Y-2696401D01*
X5397844Y-2690000D01*
X4750000Y-2690000D01*
X4750000Y-3606988D01*
X4692993Y-3574075D01*
X4565826Y-3540000D01*
X4434174Y-3540000D01*
X4307007Y-3574075D01*
X4250000Y-3606988D01*
X4250000Y-2690000D01*
X3602155Y-2690000D01*
X3542627Y-2696401D01*
X3542620Y-2696403D01*
X3407913Y-2746645D01*
X3407906Y-2746649D01*
X3292812Y-2832809D01*
X3292809Y-2832812D01*
X3206649Y-2947906D01*
X3206645Y-2947913D01*
X3156403Y-3082620D01*
X3156401Y-3082627D01*
X3150000Y-3142155D01*
X3150000Y-3790000D01*
X4066988Y-3790000D01*
X4034075Y-3847007D01*
X4000000Y-3974174D01*
X4000000Y-4105826D01*
X4034075Y-4232993D01*
X4066988Y-4290000D01*
X3150000Y-4290000D01*
X3150000Y-4937844D01*
X3156401Y-4997372D01*
X3156403Y-4997379D01*
X3206645Y-5132086D01*
X3206649Y-5132093D01*
X3292809Y-5247187D01*
X3292812Y-5247190D01*
X3407906Y-5333350D01*
X3407913Y-5333354D01*
X3539470Y-5382422D01*
X3595404Y-5424293D01*
X3619821Y-5489758D01*
X3604969Y-5558031D01*
X3583819Y-5586285D01*
X3469889Y-5700215D01*
X3344951Y-5872179D01*
X3248444Y-6061585D01*
X3182753Y-6263760D01*
X3157744Y-6421661D01*
X3149500Y-6473713D01*
X500500Y-6473713D01*
X500500Y-2450427D01*
X25369000Y-2450427D01*
X25369000Y-2457000D01*
X26094000Y-2457000D01*
X26094000Y-1807000D01*
X26093999Y-1806999D01*
X26012417Y-1807000D01*
X25941897Y-1813408D01*
X25941892Y-1813409D01*
X25779603Y-1863981D01*
X25634122Y-1951927D01*
X25513927Y-2072122D01*
X25425980Y-2217604D01*
X25375409Y-2379893D01*
X25369000Y-2450427D01*
X500500Y-2450427D01*
X500500Y-624500D01*
X520185Y-557461D01*
X572989Y-511706D01*
X624500Y-500500D01*
X33875500Y-500500D01*
X33942539Y-520185D01*
G37*
%TD.AperFunction*%
%TD*%
M02*
