%TF.GenerationSoftware,KiCad,Pcbnew,7.0.11-2.fc39*%
%TF.CreationDate,2024-07-01T00:46:26-07:00*%
%TF.ProjectId,george_orangepi,67656f72-6765-45f6-9f72-616e67657069,rev?*%
%TF.SameCoordinates,PX93d1cc0PY4d3f640*%
%TF.FileFunction,Copper,L2,Bot*%
%TF.FilePolarity,Positive*%
%FSLAX46Y46*%
G04 Gerber Fmt 4.6, Leading zero omitted, Abs format (unit mm)*
G04 Created by KiCad (PCBNEW 7.0.11-2.fc39) date 2024-07-01 00:46:26*
%MOMM*%
%LPD*%
G01*
G04 APERTURE LIST*
%TA.AperFunction,ComponentPad*%
%ADD10C,2.000000*%
%TD*%
%TA.AperFunction,ComponentPad*%
%ADD11R,1.700000X1.700000*%
%TD*%
%TA.AperFunction,ComponentPad*%
%ADD12O,1.700000X1.700000*%
%TD*%
%TA.AperFunction,SMDPad,CuDef*%
%ADD13R,1.350000X4.200000*%
%TD*%
%TA.AperFunction,ComponentPad*%
%ADD14C,1.600000*%
%TD*%
%TA.AperFunction,ComponentPad*%
%ADD15R,1.600000X1.600000*%
%TD*%
%TA.AperFunction,ViaPad*%
%ADD16C,5.000000*%
%TD*%
G04 APERTURE END LIST*
D10*
%TO.P,TP1,1,1*%
%TO.N,Net-(J2-In)*%
X3000000Y-62500000D03*
%TD*%
D11*
%TO.P,J4,1,Pin_1*%
%TO.N,GND*%
X4640000Y-5320000D03*
D12*
%TO.P,J4,2,Pin_2*%
%TO.N,/U_RX*%
X7180000Y-5320000D03*
%TO.P,J4,3,Pin_3*%
%TO.N,/U_TX*%
X9720000Y-5320000D03*
%TO.P,J4,4,Pin_4*%
%TO.N,/PPS_IN*%
X12260000Y-5320000D03*
%TO.P,J4,5,Pin_5*%
%TO.N,+5V*%
X14800000Y-5320000D03*
%TD*%
D13*
%TO.P,J2,2,Ext*%
%TO.N,GND*%
X7825000Y-66887500D03*
X2175000Y-66887500D03*
%TD*%
D14*
%TO.P,C1,2*%
%TO.N,GND*%
X10548000Y-33528000D03*
D15*
%TO.P,C1,1*%
%TO.N,+3V3*%
X8048000Y-33528000D03*
%TD*%
D12*
%TO.P,J1,40,Pin_40*%
%TO.N,unconnected-(J1-Pin_40-Pad40)*%
X22420000Y-58660000D03*
%TO.P,J1,39,Pin_39*%
%TO.N,GND*%
X19880000Y-58660000D03*
%TO.P,J1,38,Pin_38*%
%TO.N,unconnected-(J1-Pin_38-Pad38)*%
X22420000Y-56120000D03*
%TO.P,J1,37,Pin_37*%
%TO.N,unconnected-(J1-Pin_37-Pad37)*%
X19880000Y-56120000D03*
%TO.P,J1,36,Pin_36*%
%TO.N,unconnected-(J1-Pin_36-Pad36)*%
X22420000Y-53580000D03*
%TO.P,J1,35,Pin_35*%
%TO.N,unconnected-(J1-Pin_35-Pad35)*%
X19880000Y-53580000D03*
%TO.P,J1,34,Pin_34*%
%TO.N,GND*%
X22420000Y-51040000D03*
%TO.P,J1,33,Pin_33*%
%TO.N,unconnected-(J1-Pin_33-Pad33)*%
X19880000Y-51040000D03*
%TO.P,J1,32,Pin_32*%
%TO.N,unconnected-(J1-Pin_32-Pad32)*%
X22420000Y-48500000D03*
%TO.P,J1,31,Pin_31*%
%TO.N,unconnected-(J1-Pin_31-Pad31)*%
X19880000Y-48500000D03*
%TO.P,J1,30,Pin_30*%
%TO.N,GND*%
X22420000Y-45960000D03*
%TO.P,J1,29,Pin_29*%
%TO.N,unconnected-(J1-Pin_29-Pad29)*%
X19880000Y-45960000D03*
%TO.P,J1,28,Pin_28*%
%TO.N,unconnected-(J1-Pin_28-Pad28)*%
X22420000Y-43420000D03*
%TO.P,J1,27,Pin_27*%
%TO.N,unconnected-(J1-Pin_27-Pad27)*%
X19880000Y-43420000D03*
%TO.P,J1,26,Pin_26*%
%TO.N,/IRQ*%
X22420000Y-40880000D03*
%TO.P,J1,25,Pin_25*%
%TO.N,unconnected-(J1-Pin_25-Pad25)*%
X19880000Y-40880000D03*
%TO.P,J1,24,Pin_24*%
%TO.N,/SPI0_CS0*%
X22420000Y-38340000D03*
%TO.P,J1,23,Pin_23*%
%TO.N,/SPI0_CLK*%
X19880000Y-38340000D03*
%TO.P,J1,22,Pin_22*%
%TO.N,/RESET*%
X22420000Y-35800000D03*
%TO.P,J1,21,Pin_21*%
%TO.N,/SPI0_MISO*%
X19880000Y-35800000D03*
%TO.P,J1,20,Pin_20*%
%TO.N,GND*%
X22420000Y-33260000D03*
%TO.P,J1,19,Pin_19*%
%TO.N,/SPI0_MOSI*%
X19880000Y-33260000D03*
%TO.P,J1,18,Pin_18*%
%TO.N,unconnected-(J1-Pin_18-Pad18)*%
X22420000Y-30720000D03*
%TO.P,J1,17,Pin_17*%
%TO.N,+3V3*%
X19880000Y-30720000D03*
%TO.P,J1,16,Pin_16*%
%TO.N,unconnected-(J1-Pin_16-Pad16)*%
X22420000Y-28180000D03*
%TO.P,J1,15,Pin_15*%
%TO.N,unconnected-(J1-Pin_15-Pad15)*%
X19880000Y-28180000D03*
%TO.P,J1,14,Pin_14*%
%TO.N,GND*%
X22420000Y-25640000D03*
%TO.P,J1,13,Pin_13*%
%TO.N,unconnected-(J1-Pin_13-Pad13)*%
X19880000Y-25640000D03*
%TO.P,J1,12,Pin_12*%
%TO.N,unconnected-(J1-Pin_12-Pad12)*%
X22420000Y-23100000D03*
%TO.P,J1,11,Pin_11*%
%TO.N,unconnected-(J1-Pin_11-Pad11)*%
X19880000Y-23100000D03*
%TO.P,J1,10,Pin_10*%
%TO.N,/U_RX*%
X22420000Y-20560000D03*
%TO.P,J1,9,Pin_9*%
%TO.N,GND*%
X19880000Y-20560000D03*
%TO.P,J1,8,Pin_8*%
%TO.N,/U_TX*%
X22420000Y-18020000D03*
%TO.P,J1,7,Pin_7*%
%TO.N,/PPS_IN*%
X19880000Y-18020000D03*
%TO.P,J1,6,Pin_6*%
%TO.N,GND*%
X22420000Y-15480000D03*
%TO.P,J1,5,Pin_5*%
%TO.N,unconnected-(J1-Pin_5-Pad5)*%
X19880000Y-15480000D03*
%TO.P,J1,4,Pin_4*%
%TO.N,+5V*%
X22420000Y-12940000D03*
%TO.P,J1,3,Pin_3*%
%TO.N,unconnected-(J1-Pin_3-Pad3)*%
X19880000Y-12940000D03*
%TO.P,J1,2,Pin_2*%
%TO.N,+5V*%
X22420000Y-10400000D03*
D11*
%TO.P,J1,1,Pin_1*%
%TO.N,unconnected-(J1-Pin_1-Pad1)*%
X19880000Y-10400000D03*
%TD*%
D16*
%TO.N,*%
X20240000Y-2944000D03*
X20240000Y-66060000D03*
%TD*%
M02*
