%TF.GenerationSoftware,KiCad,Pcbnew,7.0.11-2.fc39*%
%TF.CreationDate,2024-07-01T00:46:26-07:00*%
%TF.ProjectId,george_orangepi,67656f72-6765-45f6-9f72-616e67657069,rev?*%
%TF.SameCoordinates,PX93d1cc0PY4d3f640*%
%TF.FileFunction,Copper,L1,Top*%
%TF.FilePolarity,Positive*%
%FSLAX46Y46*%
G04 Gerber Fmt 4.6, Leading zero omitted, Abs format (unit mm)*
G04 Created by KiCad (PCBNEW 7.0.11-2.fc39) date 2024-07-01 00:46:26*
%MOMM*%
%LPD*%
G01*
G04 APERTURE LIST*
G04 Aperture macros list*
%AMRoundRect*
0 Rectangle with rounded corners*
0 $1 Rounding radius*
0 $2 $3 $4 $5 $6 $7 $8 $9 X,Y pos of 4 corners*
0 Add a 4 corners polygon primitive as box body*
4,1,4,$2,$3,$4,$5,$6,$7,$8,$9,$2,$3,0*
0 Add four circle primitives for the rounded corners*
1,1,$1+$1,$2,$3*
1,1,$1+$1,$4,$5*
1,1,$1+$1,$6,$7*
1,1,$1+$1,$8,$9*
0 Add four rect primitives between the rounded corners*
20,1,$1+$1,$2,$3,$4,$5,0*
20,1,$1+$1,$4,$5,$6,$7,0*
20,1,$1+$1,$6,$7,$8,$9,0*
20,1,$1+$1,$8,$9,$2,$3,0*%
G04 Aperture macros list end*
%TA.AperFunction,ComponentPad*%
%ADD10C,2.000000*%
%TD*%
%TA.AperFunction,SMDPad,CuDef*%
%ADD11RoundRect,0.250000X-0.325000X-0.650000X0.325000X-0.650000X0.325000X0.650000X-0.325000X0.650000X0*%
%TD*%
%TA.AperFunction,SMDPad,CuDef*%
%ADD12RoundRect,0.200000X-0.275000X0.200000X-0.275000X-0.200000X0.275000X-0.200000X0.275000X0.200000X0*%
%TD*%
%TA.AperFunction,SMDPad,CuDef*%
%ADD13RoundRect,0.317500X-0.317500X1.157500X-0.317500X-1.157500X0.317500X-1.157500X0.317500X1.157500X0*%
%TD*%
%TA.AperFunction,ComponentPad*%
%ADD14R,1.700000X1.700000*%
%TD*%
%TA.AperFunction,ComponentPad*%
%ADD15O,1.700000X1.700000*%
%TD*%
%TA.AperFunction,SMDPad,CuDef*%
%ADD16R,1.270000X3.600000*%
%TD*%
%TA.AperFunction,SMDPad,CuDef*%
%ADD17R,1.350000X4.200000*%
%TD*%
%TA.AperFunction,SMDPad,CuDef*%
%ADD18RoundRect,0.250000X-0.650000X0.325000X-0.650000X-0.325000X0.650000X-0.325000X0.650000X0.325000X0*%
%TD*%
%TA.AperFunction,ComponentPad*%
%ADD19C,1.600000*%
%TD*%
%TA.AperFunction,ComponentPad*%
%ADD20R,1.600000X1.600000*%
%TD*%
%TA.AperFunction,ViaPad*%
%ADD21C,5.000000*%
%TD*%
%TA.AperFunction,Conductor*%
%ADD22C,0.500000*%
%TD*%
%TA.AperFunction,Conductor*%
%ADD23C,0.300000*%
%TD*%
G04 APERTURE END LIST*
D10*
%TO.P,TP1,1,1*%
%TO.N,Net-(J2-In)*%
X3000000Y-62500000D03*
%TD*%
D11*
%TO.P,C2,1*%
%TO.N,+3V3*%
X10150000Y-61835000D03*
%TO.P,C2,2*%
%TO.N,GND*%
X13100000Y-61835000D03*
%TD*%
D12*
%TO.P,R2,1*%
%TO.N,+3V3*%
X16705000Y-31165000D03*
%TO.P,R2,2*%
%TO.N,/SPI0_CS0*%
X16705000Y-32815000D03*
%TD*%
%TO.P,R1,1*%
%TO.N,+3V3*%
X14800000Y-31165000D03*
%TO.P,R1,2*%
%TO.N,/RESET*%
X14800000Y-32815000D03*
%TD*%
D13*
%TO.P,U2,16,DIO2*%
%TO.N,unconnected-(U2-DIO2-Pad16)*%
X16260000Y-58470000D03*
%TO.P,U2,15,DIO1*%
%TO.N,unconnected-(U2-DIO1-Pad15)*%
X14260000Y-58470000D03*
%TO.P,U2,14,DIO0*%
%TO.N,/IRQ*%
X12260000Y-58470000D03*
%TO.P,U2,13,3.3V*%
%TO.N,+3V3*%
X10260000Y-58470000D03*
%TO.P,U2,12,DIO4*%
%TO.N,unconnected-(U2-DIO4-Pad12)*%
X8260000Y-58470000D03*
%TO.P,U2,11,DIO3*%
%TO.N,unconnected-(U2-DIO3-Pad11)*%
X6260000Y-58470000D03*
%TO.P,U2,10,GND*%
%TO.N,GND*%
X4260000Y-58470000D03*
%TO.P,U2,9,ANT*%
%TO.N,Net-(J2-In)*%
X2260000Y-58470000D03*
%TO.P,U2,8,GND*%
%TO.N,GND*%
X2260000Y-43420000D03*
%TO.P,U2,7,DIO5*%
%TO.N,unconnected-(U2-DIO5-Pad7)*%
X4260000Y-43420000D03*
%TO.P,U2,6,RESET*%
%TO.N,/RESET*%
X6260000Y-43420000D03*
%TO.P,U2,5,NSS*%
%TO.N,/SPI0_CS0*%
X8260000Y-43420000D03*
%TO.P,U2,4,SCK*%
%TO.N,/SPI0_CLK*%
X10260000Y-43420000D03*
%TO.P,U2,3,MOSI*%
%TO.N,/SPI0_MOSI*%
X12260000Y-43420000D03*
%TO.P,U2,2,MISO*%
%TO.N,/SPI0_MISO*%
X14260000Y-43420000D03*
%TO.P,U2,1,GND*%
%TO.N,GND*%
X16260000Y-43420000D03*
%TD*%
D14*
%TO.P,J4,1,Pin_1*%
%TO.N,GND*%
X4640000Y-5320000D03*
D15*
%TO.P,J4,2,Pin_2*%
%TO.N,/U_RX*%
X7180000Y-5320000D03*
%TO.P,J4,3,Pin_3*%
%TO.N,/U_TX*%
X9720000Y-5320000D03*
%TO.P,J4,4,Pin_4*%
%TO.N,/PPS_IN*%
X12260000Y-5320000D03*
%TO.P,J4,5,Pin_5*%
%TO.N,+5V*%
X14800000Y-5320000D03*
%TD*%
D16*
%TO.P,J2,1,In*%
%TO.N,Net-(J2-In)*%
X5000000Y-67087500D03*
D17*
%TO.P,J2,2,Ext*%
%TO.N,GND*%
X7825000Y-66887500D03*
X2175000Y-66887500D03*
%TD*%
D18*
%TO.P,C3,2*%
%TO.N,GND*%
X15668000Y-11635000D03*
%TO.P,C3,1*%
%TO.N,+5V*%
X15668000Y-8685000D03*
%TD*%
D19*
%TO.P,C1,2*%
%TO.N,GND*%
X10548000Y-33528000D03*
D20*
%TO.P,C1,1*%
%TO.N,+3V3*%
X8048000Y-33528000D03*
%TD*%
D15*
%TO.P,J1,40,Pin_40*%
%TO.N,unconnected-(J1-Pin_40-Pad40)*%
X22420000Y-58660000D03*
%TO.P,J1,39,Pin_39*%
%TO.N,GND*%
X19880000Y-58660000D03*
%TO.P,J1,38,Pin_38*%
%TO.N,unconnected-(J1-Pin_38-Pad38)*%
X22420000Y-56120000D03*
%TO.P,J1,37,Pin_37*%
%TO.N,unconnected-(J1-Pin_37-Pad37)*%
X19880000Y-56120000D03*
%TO.P,J1,36,Pin_36*%
%TO.N,unconnected-(J1-Pin_36-Pad36)*%
X22420000Y-53580000D03*
%TO.P,J1,35,Pin_35*%
%TO.N,unconnected-(J1-Pin_35-Pad35)*%
X19880000Y-53580000D03*
%TO.P,J1,34,Pin_34*%
%TO.N,GND*%
X22420000Y-51040000D03*
%TO.P,J1,33,Pin_33*%
%TO.N,unconnected-(J1-Pin_33-Pad33)*%
X19880000Y-51040000D03*
%TO.P,J1,32,Pin_32*%
%TO.N,unconnected-(J1-Pin_32-Pad32)*%
X22420000Y-48500000D03*
%TO.P,J1,31,Pin_31*%
%TO.N,unconnected-(J1-Pin_31-Pad31)*%
X19880000Y-48500000D03*
%TO.P,J1,30,Pin_30*%
%TO.N,GND*%
X22420000Y-45960000D03*
%TO.P,J1,29,Pin_29*%
%TO.N,unconnected-(J1-Pin_29-Pad29)*%
X19880000Y-45960000D03*
%TO.P,J1,28,Pin_28*%
%TO.N,unconnected-(J1-Pin_28-Pad28)*%
X22420000Y-43420000D03*
%TO.P,J1,27,Pin_27*%
%TO.N,unconnected-(J1-Pin_27-Pad27)*%
X19880000Y-43420000D03*
%TO.P,J1,26,Pin_26*%
%TO.N,/IRQ*%
X22420000Y-40880000D03*
%TO.P,J1,25,Pin_25*%
%TO.N,unconnected-(J1-Pin_25-Pad25)*%
X19880000Y-40880000D03*
%TO.P,J1,24,Pin_24*%
%TO.N,/SPI0_CS0*%
X22420000Y-38340000D03*
%TO.P,J1,23,Pin_23*%
%TO.N,/SPI0_CLK*%
X19880000Y-38340000D03*
%TO.P,J1,22,Pin_22*%
%TO.N,/RESET*%
X22420000Y-35800000D03*
%TO.P,J1,21,Pin_21*%
%TO.N,/SPI0_MISO*%
X19880000Y-35800000D03*
%TO.P,J1,20,Pin_20*%
%TO.N,GND*%
X22420000Y-33260000D03*
%TO.P,J1,19,Pin_19*%
%TO.N,/SPI0_MOSI*%
X19880000Y-33260000D03*
%TO.P,J1,18,Pin_18*%
%TO.N,unconnected-(J1-Pin_18-Pad18)*%
X22420000Y-30720000D03*
%TO.P,J1,17,Pin_17*%
%TO.N,+3V3*%
X19880000Y-30720000D03*
%TO.P,J1,16,Pin_16*%
%TO.N,unconnected-(J1-Pin_16-Pad16)*%
X22420000Y-28180000D03*
%TO.P,J1,15,Pin_15*%
%TO.N,unconnected-(J1-Pin_15-Pad15)*%
X19880000Y-28180000D03*
%TO.P,J1,14,Pin_14*%
%TO.N,GND*%
X22420000Y-25640000D03*
%TO.P,J1,13,Pin_13*%
%TO.N,unconnected-(J1-Pin_13-Pad13)*%
X19880000Y-25640000D03*
%TO.P,J1,12,Pin_12*%
%TO.N,unconnected-(J1-Pin_12-Pad12)*%
X22420000Y-23100000D03*
%TO.P,J1,11,Pin_11*%
%TO.N,unconnected-(J1-Pin_11-Pad11)*%
X19880000Y-23100000D03*
%TO.P,J1,10,Pin_10*%
%TO.N,/U_RX*%
X22420000Y-20560000D03*
%TO.P,J1,9,Pin_9*%
%TO.N,GND*%
X19880000Y-20560000D03*
%TO.P,J1,8,Pin_8*%
%TO.N,/U_TX*%
X22420000Y-18020000D03*
%TO.P,J1,7,Pin_7*%
%TO.N,/PPS_IN*%
X19880000Y-18020000D03*
%TO.P,J1,6,Pin_6*%
%TO.N,GND*%
X22420000Y-15480000D03*
%TO.P,J1,5,Pin_5*%
%TO.N,unconnected-(J1-Pin_5-Pad5)*%
X19880000Y-15480000D03*
%TO.P,J1,4,Pin_4*%
%TO.N,+5V*%
X22420000Y-12940000D03*
%TO.P,J1,3,Pin_3*%
%TO.N,unconnected-(J1-Pin_3-Pad3)*%
X19880000Y-12940000D03*
%TO.P,J1,2,Pin_2*%
%TO.N,+5V*%
X22420000Y-10400000D03*
D14*
%TO.P,J1,1,Pin_1*%
%TO.N,unconnected-(J1-Pin_1-Pad1)*%
X19880000Y-10400000D03*
%TD*%
D21*
%TO.N,*%
X20240000Y-2944000D03*
X20240000Y-66060000D03*
%TD*%
D22*
%TO.N,/U_RX*%
X18294117Y-20741883D02*
X7180000Y-9627767D01*
X7180000Y-9627767D02*
X7180000Y-5320000D01*
D23*
X19396233Y-21844000D02*
X18294117Y-20741883D01*
X21136000Y-21844000D02*
X19396233Y-21844000D01*
D22*
%TO.N,GND*%
X19280299Y-20560000D02*
X8470000Y-9749701D01*
D23*
X8470000Y-9749701D02*
X8470000Y-4802233D01*
X8470000Y-4802233D02*
X7717767Y-4050000D01*
X7717767Y-4050000D02*
X5910000Y-4050000D01*
X5910000Y-4050000D02*
X4640000Y-5320000D01*
X22420000Y-15480000D02*
X21150000Y-14210000D01*
X21150000Y-14210000D02*
X18609000Y-14210000D01*
X13529000Y-6590000D02*
X13529000Y-3415000D01*
X2260000Y-43420000D02*
X2260000Y-44895000D01*
X2260000Y-44895000D02*
X6865000Y-49500000D01*
X6865000Y-49500000D02*
X10000000Y-49500000D01*
D22*
%TO.N,+3V3*%
X10150000Y-61835000D02*
X10150000Y-58580000D01*
D23*
X10150000Y-58580000D02*
X10260000Y-58470000D01*
D22*
%TO.N,/IRQ*%
X12260000Y-58470000D02*
X12260000Y-51812234D01*
D23*
X16822233Y-47250000D02*
X16536117Y-47536117D01*
X21170000Y-42902233D02*
X21170000Y-46477767D01*
X22420000Y-41652233D02*
X21170000Y-42902233D01*
D22*
X12260000Y-51812234D02*
X16536117Y-47536117D01*
D23*
X22420000Y-40880000D02*
X22420000Y-41652233D01*
X21170000Y-46477767D02*
X20397767Y-47250000D01*
X20397767Y-47250000D02*
X16822233Y-47250000D01*
D22*
%TO.N,+3V3*%
X1125000Y-45400000D02*
X1225000Y-45500000D01*
X1125000Y-40451000D02*
X1125000Y-45400000D01*
X8048000Y-33528000D02*
X1125000Y-40451000D01*
X10260000Y-58470000D02*
X10260000Y-54535000D01*
X10260000Y-54535000D02*
X1225000Y-45500000D01*
D23*
%TO.N,/RESET*%
X23690000Y-38877767D02*
X23690000Y-37070000D01*
X19350000Y-42150000D02*
X20850000Y-42150000D01*
X22957767Y-39610000D02*
X23690000Y-38877767D01*
X18600000Y-42900000D02*
X19350000Y-42150000D01*
X21170000Y-40293617D02*
X21853617Y-39610000D01*
X20850000Y-42150000D02*
X21170000Y-41830000D01*
X23690000Y-37070000D02*
X22420000Y-35800000D01*
X18600000Y-45125333D02*
X18600000Y-42900000D01*
X17125333Y-46600000D02*
X18600000Y-45125333D01*
X7895000Y-46600000D02*
X17125333Y-46600000D01*
X21853617Y-39610000D02*
X22957767Y-39610000D01*
X6260000Y-44965000D02*
X7895000Y-46600000D01*
X21170000Y-41830000D02*
X21170000Y-40293617D01*
X6260000Y-43420000D02*
X6260000Y-44965000D01*
D22*
%TO.N,/SPI0_CS0*%
X16705000Y-32815000D02*
X8260000Y-41260000D01*
X8260000Y-41260000D02*
X8260000Y-43420000D01*
%TO.N,/RESET*%
X14800000Y-32815000D02*
X6260000Y-41355000D01*
X6260000Y-41355000D02*
X6260000Y-43420000D01*
D23*
%TO.N,GND*%
X22420000Y-33260000D02*
X21150000Y-31990000D01*
X21150000Y-31990000D02*
X12086000Y-31990000D01*
X12086000Y-31990000D02*
X10548000Y-33528000D01*
%TO.N,/SPI0_CS0*%
X22420000Y-38340000D02*
X21785000Y-38340000D01*
X21785000Y-38340000D02*
X20535000Y-39590000D01*
X20535000Y-39590000D02*
X19265000Y-39590000D01*
X19265000Y-39590000D02*
X17975000Y-40880000D01*
X17975000Y-40880000D02*
X17975000Y-44972515D01*
X17975000Y-44972515D02*
X16897515Y-46050000D01*
X16897515Y-46050000D02*
X9415000Y-46050000D01*
X9415000Y-46050000D02*
X8260000Y-44895000D01*
X8260000Y-44895000D02*
X8260000Y-43420000D01*
%TO.N,/SPI0_CLK*%
X19880000Y-38340000D02*
X18890051Y-38340000D01*
X18890051Y-38340000D02*
X17340000Y-39890051D01*
X10500000Y-45500000D02*
X10260000Y-45260000D01*
X10260000Y-45260000D02*
X10260000Y-43420000D01*
X17340000Y-39890051D02*
X17340000Y-44829698D01*
X17340000Y-44829698D02*
X16669698Y-45500000D01*
X16669698Y-45500000D02*
X10500000Y-45500000D01*
%TO.N,GND*%
X22420000Y-33260000D02*
X21150000Y-34530000D01*
X21150000Y-34530000D02*
X21150000Y-36337767D01*
X21150000Y-36337767D02*
X20417767Y-37070000D01*
X16260000Y-40055000D02*
X16260000Y-43420000D01*
X20417767Y-37070000D02*
X19245000Y-37070000D01*
X19245000Y-37070000D02*
X16260000Y-40055000D01*
X10548000Y-33528000D02*
X2260000Y-41816000D01*
X2260000Y-41816000D02*
X2260000Y-43420000D01*
D22*
%TO.N,+3V3*%
X19880000Y-30720000D02*
X10856000Y-30720000D01*
X10856000Y-30720000D02*
X8048000Y-33528000D01*
%TO.N,/SPI0_MISO*%
X19880000Y-35800000D02*
X18677919Y-35800000D01*
X18677919Y-35800000D02*
X14260000Y-40217919D01*
X14260000Y-40217919D02*
X14260000Y-43420000D01*
%TO.N,/SPI0_MOSI*%
X19880000Y-33260000D02*
X12260000Y-40880000D01*
X12260000Y-40880000D02*
X12260000Y-43420000D01*
D23*
%TO.N,GND*%
X19880000Y-20560000D02*
X19280299Y-20560000D01*
D22*
%TO.N,/U_TX*%
X22420000Y-18020000D02*
X21136000Y-19304000D01*
D23*
X21136000Y-19304000D02*
X19175208Y-19304000D01*
D22*
X19175208Y-19304000D02*
X9720000Y-9848792D01*
X9720000Y-9848792D02*
X9720000Y-5320000D01*
D23*
%TO.N,/PPS_IN*%
X19880000Y-18020000D02*
X18956000Y-18020000D01*
D22*
X18956000Y-18020000D02*
X12260000Y-11324000D01*
X12260000Y-11324000D02*
X12260000Y-5320000D01*
%TO.N,+5V*%
X20607000Y-8636000D02*
X15668000Y-8636000D01*
%TO.N,Net-(J2-In)*%
X5000000Y-67087500D02*
X5000000Y-64457250D01*
X5000000Y-64457250D02*
X2260000Y-61717250D01*
X2260000Y-61717250D02*
X2260000Y-58470000D01*
%TO.N,+5V*%
X22420000Y-10400000D02*
X20656000Y-8636000D01*
D23*
X15209000Y-8636000D02*
X15160000Y-8685000D01*
D22*
X15160000Y-8685000D02*
X15160000Y-5680000D01*
D23*
X15160000Y-5680000D02*
X14800000Y-5320000D01*
D22*
X22420000Y-12940000D02*
X22420000Y-10400000D01*
%TO.N,/U_RX*%
X22420000Y-20560000D02*
X21136000Y-21844000D01*
%TD*%
%TA.AperFunction,Conductor*%
%TO.N,GND*%
G36*
X3349889Y-45160449D02*
G01*
X3350154Y-45160185D01*
X3351182Y-45161213D01*
X3351752Y-45161550D01*
X3353274Y-45163305D01*
X3354981Y-45165012D01*
X3495017Y-45277576D01*
X3495019Y-45277577D01*
X3655977Y-45357405D01*
X3830332Y-45400765D01*
X3840415Y-45401448D01*
X3870657Y-45403500D01*
X3870666Y-45403500D01*
X4649343Y-45403500D01*
X4675263Y-45401741D01*
X4689668Y-45400765D01*
X4864023Y-45357405D01*
X5024981Y-45277577D01*
X5165015Y-45165015D01*
X5165016Y-45165013D01*
X5165018Y-45165012D01*
X5169846Y-45160185D01*
X5171754Y-45162093D01*
X5220038Y-45128467D01*
X5290986Y-45125831D01*
X5349753Y-45160585D01*
X5350154Y-45160185D01*
X5351714Y-45161745D01*
X5352096Y-45161971D01*
X5353107Y-45163138D01*
X5354981Y-45165012D01*
X5495017Y-45277576D01*
X5495019Y-45277577D01*
X5655977Y-45357405D01*
X5703179Y-45369143D01*
X5764457Y-45404992D01*
X5774707Y-45417358D01*
X5776159Y-45419357D01*
X5811751Y-45448801D01*
X5820531Y-45456791D01*
X6141351Y-45777611D01*
X6149886Y-45787055D01*
X6158606Y-45797743D01*
X6159642Y-45798929D01*
X6203073Y-45840670D01*
X6229394Y-45865966D01*
X6229362Y-45865999D01*
X6232341Y-45868601D01*
X7368125Y-47004385D01*
X7378338Y-47017131D01*
X7378531Y-47016972D01*
X7383583Y-47023079D01*
X7383584Y-47023080D01*
X7435257Y-47071604D01*
X7438099Y-47074359D01*
X7458667Y-47094927D01*
X7461958Y-47097480D01*
X7462171Y-47097645D01*
X7471198Y-47105355D01*
X7504867Y-47136972D01*
X7523669Y-47147308D01*
X7540175Y-47158151D01*
X7557132Y-47171304D01*
X7557133Y-47171304D01*
X7557134Y-47171305D01*
X7599533Y-47189653D01*
X7610181Y-47194869D01*
X7650663Y-47217124D01*
X7664950Y-47220792D01*
X7671429Y-47222456D01*
X7690132Y-47228859D01*
X7694886Y-47230916D01*
X7709823Y-47237380D01*
X7755455Y-47244607D01*
X7767072Y-47247013D01*
X7811811Y-47258500D01*
X7811812Y-47258500D01*
X7833258Y-47258500D01*
X7852967Y-47260051D01*
X7857507Y-47260769D01*
X7874152Y-47263406D01*
X7920140Y-47259058D01*
X7931996Y-47258500D01*
X15436863Y-47258500D01*
X15504984Y-47278502D01*
X15551477Y-47332158D01*
X15561581Y-47402432D01*
X15532087Y-47467012D01*
X15525958Y-47473595D01*
X11769225Y-51230326D01*
X11755376Y-51242296D01*
X11735943Y-51256763D01*
X11703771Y-51295104D01*
X11696360Y-51303192D01*
X11692420Y-51307132D01*
X11692414Y-51307139D01*
X11672997Y-51331694D01*
X11670689Y-51334528D01*
X11621964Y-51392598D01*
X11617935Y-51398725D01*
X11617880Y-51398689D01*
X11613825Y-51405054D01*
X11613882Y-51405089D01*
X11610030Y-51411332D01*
X11577996Y-51480028D01*
X11576401Y-51483321D01*
X11542394Y-51551039D01*
X11539882Y-51557941D01*
X11539820Y-51557918D01*
X11537343Y-51565044D01*
X11537404Y-51565065D01*
X11535096Y-51572029D01*
X11519759Y-51646298D01*
X11518967Y-51649871D01*
X11501500Y-51723574D01*
X11500648Y-51730868D01*
X11500581Y-51730860D01*
X11499814Y-51738360D01*
X11499881Y-51738366D01*
X11499241Y-51745676D01*
X11501447Y-51821492D01*
X11501500Y-51825156D01*
X11501500Y-56239608D01*
X11494802Y-56280144D01*
X11455406Y-56396091D01*
X11453839Y-56400438D01*
X11391027Y-56565202D01*
X11388866Y-56570505D01*
X11375573Y-56601118D01*
X11330094Y-56655635D01*
X11262360Y-56676910D01*
X11193876Y-56658188D01*
X11146386Y-56605413D01*
X11144426Y-56601119D01*
X11131135Y-56570512D01*
X11128985Y-56565240D01*
X11066145Y-56400404D01*
X11064592Y-56396091D01*
X11025198Y-56280145D01*
X11018500Y-56239611D01*
X11018500Y-54599441D01*
X11019830Y-54581182D01*
X11020940Y-54573600D01*
X11023341Y-54557211D01*
X11018979Y-54507352D01*
X11018500Y-54496372D01*
X11018500Y-54490813D01*
X11014866Y-54459734D01*
X11014496Y-54456122D01*
X11007887Y-54380574D01*
X11007885Y-54380570D01*
X11006403Y-54373388D01*
X11006469Y-54373374D01*
X11004837Y-54366012D01*
X11004772Y-54366028D01*
X11003081Y-54358893D01*
X11003079Y-54358887D01*
X10977139Y-54287620D01*
X10975952Y-54284203D01*
X10966497Y-54255669D01*
X10952114Y-54212262D01*
X10952109Y-54212255D01*
X10949012Y-54205611D01*
X10949074Y-54205581D01*
X10945788Y-54198795D01*
X10945728Y-54198826D01*
X10942433Y-54192265D01*
X10900782Y-54128939D01*
X10898812Y-54125846D01*
X10859032Y-54061351D01*
X10854478Y-54055592D01*
X10854531Y-54055549D01*
X10849766Y-54049700D01*
X10849715Y-54049744D01*
X10844998Y-54044122D01*
X10789826Y-53992070D01*
X10787197Y-53989516D01*
X2415776Y-45618095D01*
X2381750Y-45555783D01*
X2386815Y-45484968D01*
X2429362Y-45428132D01*
X2495882Y-45403321D01*
X2504871Y-45403000D01*
X2649293Y-45403000D01*
X2689594Y-45400266D01*
X2689601Y-45400265D01*
X2863848Y-45356932D01*
X3024704Y-45277156D01*
X3024713Y-45277150D01*
X3164662Y-45164656D01*
X3169490Y-45159829D01*
X3171391Y-45161730D01*
X3219687Y-45128078D01*
X3290634Y-45125425D01*
X3349889Y-45160449D01*
G37*
%TD.AperFunction*%
%TA.AperFunction,Conductor*%
G36*
X13793674Y-31498502D02*
G01*
X13840167Y-31552158D01*
X13845848Y-31567015D01*
X13874170Y-31657908D01*
X13874172Y-31657911D01*
X13874173Y-31657913D01*
X13946998Y-31778380D01*
X13963184Y-31805155D01*
X13963188Y-31805160D01*
X14058933Y-31900905D01*
X14092959Y-31963217D01*
X14087894Y-32034032D01*
X14058933Y-32079095D01*
X13963188Y-32174839D01*
X13963184Y-32174844D01*
X13874172Y-32322088D01*
X13874170Y-32322093D01*
X13822986Y-32486353D01*
X13816498Y-32557754D01*
X13816486Y-32558028D01*
X13816468Y-32558089D01*
X13816242Y-32560577D01*
X13815750Y-32560532D01*
X13799579Y-32615561D01*
X13743913Y-32711427D01*
X13741718Y-32715065D01*
X13682643Y-32809331D01*
X13680041Y-32813313D01*
X13623278Y-32896719D01*
X13620175Y-32901077D01*
X13564245Y-32976193D01*
X13552278Y-32990039D01*
X5769225Y-40773092D01*
X5755376Y-40785062D01*
X5735943Y-40799529D01*
X5703771Y-40837870D01*
X5696360Y-40845958D01*
X5692420Y-40849898D01*
X5692414Y-40849905D01*
X5672997Y-40874460D01*
X5670689Y-40877294D01*
X5621964Y-40935364D01*
X5617935Y-40941491D01*
X5617880Y-40941455D01*
X5613825Y-40947820D01*
X5613882Y-40947855D01*
X5610030Y-40954098D01*
X5577996Y-41022794D01*
X5576401Y-41026087D01*
X5542394Y-41093805D01*
X5539882Y-41100707D01*
X5539820Y-41100684D01*
X5537343Y-41107810D01*
X5537404Y-41107831D01*
X5535096Y-41114795D01*
X5519759Y-41189064D01*
X5518967Y-41192637D01*
X5501500Y-41266340D01*
X5500648Y-41273634D01*
X5500580Y-41273626D01*
X5499814Y-41281126D01*
X5499881Y-41281132D01*
X5498602Y-41295751D01*
X5496441Y-41295561D01*
X5489268Y-41333647D01*
X5460235Y-41402829D01*
X5458154Y-41407518D01*
X5377187Y-41580374D01*
X5374416Y-41585928D01*
X5350175Y-41631670D01*
X5300604Y-41682494D01*
X5231423Y-41698450D01*
X5164599Y-41674472D01*
X5159903Y-41670875D01*
X5024982Y-41562423D01*
X5024980Y-41562422D01*
X4864023Y-41482595D01*
X4689664Y-41439234D01*
X4649343Y-41436500D01*
X4649334Y-41436500D01*
X3870666Y-41436500D01*
X3870657Y-41436500D01*
X3830336Y-41439234D01*
X3830333Y-41439234D01*
X3655976Y-41482595D01*
X3495019Y-41562422D01*
X3495017Y-41562423D01*
X3354981Y-41674987D01*
X3350154Y-41679815D01*
X3348361Y-41678022D01*
X3299547Y-41711962D01*
X3228597Y-41714542D01*
X3169895Y-41679765D01*
X3169490Y-41680171D01*
X3167905Y-41678586D01*
X3167515Y-41678355D01*
X3166488Y-41677169D01*
X3164662Y-41675343D01*
X3024713Y-41562849D01*
X3024704Y-41562843D01*
X2863848Y-41483067D01*
X2689601Y-41439734D01*
X2689594Y-41439733D01*
X2649293Y-41437000D01*
X2514000Y-41437000D01*
X2514000Y-43548000D01*
X2493998Y-43616121D01*
X2440342Y-43662614D01*
X2388000Y-43674000D01*
X2132000Y-43674000D01*
X2063879Y-43653998D01*
X2017386Y-43600342D01*
X2006000Y-43548000D01*
X2006000Y-41436999D01*
X2004546Y-41435545D01*
X1941379Y-41416998D01*
X1894886Y-41363342D01*
X1883500Y-41311000D01*
X1883500Y-40817370D01*
X1903502Y-40749249D01*
X1920400Y-40728280D01*
X7159422Y-35489257D01*
X7175872Y-35475404D01*
X7439255Y-35289603D01*
X7447237Y-35284416D01*
X7707390Y-35129128D01*
X7716632Y-35124126D01*
X7970357Y-35000213D01*
X7980881Y-34995656D01*
X8228336Y-34901662D01*
X8240047Y-34897860D01*
X8390712Y-34856984D01*
X8450014Y-34840896D01*
X8483005Y-34836500D01*
X8896632Y-34836500D01*
X8896638Y-34836500D01*
X8896645Y-34836499D01*
X8896649Y-34836499D01*
X8957196Y-34829990D01*
X8957199Y-34829989D01*
X8957201Y-34829989D01*
X9094204Y-34778889D01*
X9117018Y-34761811D01*
X9211261Y-34691261D01*
X9298887Y-34574207D01*
X9298887Y-34574206D01*
X9298889Y-34574204D01*
X9349989Y-34437201D01*
X9351957Y-34418902D01*
X9356861Y-34373283D01*
X9357908Y-34373395D01*
X9380056Y-34310567D01*
X9436113Y-34267000D01*
X9452106Y-34264682D01*
X10149272Y-33567516D01*
X10162835Y-33653148D01*
X10220359Y-33766045D01*
X10309955Y-33855641D01*
X10422852Y-33913165D01*
X10508482Y-33926727D01*
X9820110Y-34615098D01*
X9820110Y-34615100D01*
X9891498Y-34665086D01*
X10098926Y-34761811D01*
X10098931Y-34761813D01*
X10319999Y-34821048D01*
X10319995Y-34821048D01*
X10548000Y-34840995D01*
X10776002Y-34821048D01*
X10997068Y-34761813D01*
X10997073Y-34761811D01*
X11204497Y-34665088D01*
X11275888Y-34615099D01*
X11275888Y-34615097D01*
X10587518Y-33926727D01*
X10673148Y-33913165D01*
X10786045Y-33855641D01*
X10875641Y-33766045D01*
X10933165Y-33653148D01*
X10946727Y-33567518D01*
X11635097Y-34255888D01*
X11635099Y-34255888D01*
X11685088Y-34184497D01*
X11781811Y-33977073D01*
X11781813Y-33977068D01*
X11841048Y-33756002D01*
X11860995Y-33528000D01*
X11841048Y-33299997D01*
X11781813Y-33078931D01*
X11781811Y-33078926D01*
X11685086Y-32871498D01*
X11635100Y-32800110D01*
X11635098Y-32800110D01*
X10946727Y-33488481D01*
X10933165Y-33402852D01*
X10875641Y-33289955D01*
X10786045Y-33200359D01*
X10673148Y-33142835D01*
X10587516Y-33129272D01*
X11275888Y-32440899D01*
X11275888Y-32440898D01*
X11204501Y-32390913D01*
X10997073Y-32294188D01*
X10997068Y-32294186D01*
X10776000Y-32234951D01*
X10776004Y-32234951D01*
X10712053Y-32229357D01*
X10645934Y-32203494D01*
X10604295Y-32145990D01*
X10600354Y-32075103D01*
X10633937Y-32014743D01*
X11133277Y-31515404D01*
X11195589Y-31481379D01*
X11222372Y-31478500D01*
X13725553Y-31478500D01*
X13793674Y-31498502D01*
G37*
%TD.AperFunction*%
%TA.AperFunction,Conductor*%
G36*
X18895647Y-36759116D02*
G01*
X18941568Y-36788942D01*
X18965528Y-36813370D01*
X19015878Y-36858361D01*
X19015899Y-36858380D01*
X19017558Y-36859676D01*
X19018307Y-36860261D01*
X19074046Y-36898209D01*
X19088177Y-36906527D01*
X19101646Y-36915677D01*
X19127828Y-36936055D01*
X19134424Y-36941189D01*
X19167680Y-36959186D01*
X19218071Y-37009200D01*
X19233423Y-37078516D01*
X19208862Y-37145129D01*
X19167680Y-37180813D01*
X19134426Y-37198810D01*
X19134416Y-37198816D01*
X18956766Y-37337088D01*
X18956757Y-37337096D01*
X18934355Y-37361430D01*
X18917175Y-37376950D01*
X18907600Y-37384118D01*
X18907593Y-37384124D01*
X18287696Y-38004022D01*
X18250944Y-38044940D01*
X18248563Y-38048181D01*
X18236124Y-38062665D01*
X16935611Y-39363178D01*
X16922865Y-39373391D01*
X16923025Y-39373584D01*
X16916920Y-39378634D01*
X16868395Y-39430307D01*
X16865643Y-39433147D01*
X16845074Y-39453716D01*
X16845073Y-39453718D01*
X16842344Y-39457235D01*
X16834650Y-39466242D01*
X16803029Y-39499916D01*
X16803027Y-39499918D01*
X16792691Y-39518718D01*
X16781843Y-39535231D01*
X16768699Y-39552177D01*
X16768694Y-39552186D01*
X16750350Y-39594575D01*
X16745131Y-39605229D01*
X16722877Y-39645712D01*
X16722873Y-39645721D01*
X16717541Y-39666487D01*
X16711139Y-39685187D01*
X16702620Y-39704871D01*
X16702620Y-39704874D01*
X16695393Y-39750503D01*
X16692986Y-39762123D01*
X16681500Y-39806861D01*
X16681500Y-39828309D01*
X16679949Y-39848018D01*
X16676612Y-39869092D01*
X16676594Y-39869203D01*
X16679082Y-39895529D01*
X16680941Y-39915189D01*
X16681500Y-39927047D01*
X16681500Y-41311000D01*
X16661498Y-41379121D01*
X16607842Y-41425614D01*
X16555500Y-41437000D01*
X16514000Y-41437000D01*
X16514000Y-43548000D01*
X16493998Y-43616121D01*
X16440342Y-43662614D01*
X16388000Y-43674000D01*
X16132000Y-43674000D01*
X16063879Y-43653998D01*
X16017386Y-43600342D01*
X16006000Y-43548000D01*
X16006000Y-41437000D01*
X15870707Y-41437000D01*
X15830405Y-41439733D01*
X15830398Y-41439734D01*
X15656151Y-41483067D01*
X15495295Y-41562843D01*
X15495292Y-41562845D01*
X15367710Y-41665398D01*
X15302084Y-41692486D01*
X15232231Y-41679794D01*
X15180329Y-41631351D01*
X15173196Y-41617377D01*
X15134730Y-41528793D01*
X15131129Y-41520501D01*
X15128985Y-41515240D01*
X15066145Y-41350404D01*
X15064592Y-41346091D01*
X15025198Y-41230145D01*
X15018500Y-41189611D01*
X15018500Y-40584288D01*
X15038502Y-40516167D01*
X15055400Y-40495198D01*
X18762522Y-36788075D01*
X18824832Y-36754051D01*
X18895647Y-36759116D01*
G37*
%TD.AperFunction*%
%TA.AperFunction,Conductor*%
G36*
X18627763Y-31479968D02*
G01*
X18697630Y-31490732D01*
X18761910Y-31520873D01*
X18772924Y-31531899D01*
X18808620Y-31572355D01*
X18817242Y-31581883D01*
X18817653Y-31582326D01*
X18827390Y-31592531D01*
X18965528Y-31733370D01*
X19015878Y-31778361D01*
X19015899Y-31778380D01*
X19017558Y-31779676D01*
X19018307Y-31780261D01*
X19074046Y-31818209D01*
X19088177Y-31826527D01*
X19101646Y-31835677D01*
X19134416Y-31861183D01*
X19134424Y-31861189D01*
X19167680Y-31879186D01*
X19218071Y-31929200D01*
X19233423Y-31998516D01*
X19208862Y-32065129D01*
X19167680Y-32100813D01*
X19134426Y-32118810D01*
X19134424Y-32118811D01*
X18956762Y-32257091D01*
X18804279Y-32422729D01*
X18804275Y-32422734D01*
X18681141Y-32611206D01*
X18590703Y-32817385D01*
X18535436Y-33035627D01*
X18535435Y-33035632D01*
X18534838Y-33042841D01*
X18533058Y-33055928D01*
X18520961Y-33119648D01*
X18520590Y-33122684D01*
X18516808Y-33190068D01*
X18517361Y-33247250D01*
X18516938Y-33258854D01*
X18516844Y-33259990D01*
X18516844Y-33260010D01*
X18517190Y-33264190D01*
X18517614Y-33273364D01*
X18517949Y-33307906D01*
X18518718Y-33387275D01*
X18519005Y-33400160D01*
X18519006Y-33400197D01*
X18519024Y-33400736D01*
X18519711Y-33414848D01*
X18523077Y-33468721D01*
X18507361Y-33537957D01*
X18498946Y-33551067D01*
X18457147Y-33608093D01*
X18444618Y-33622699D01*
X11769225Y-40298092D01*
X11755376Y-40310062D01*
X11735943Y-40324529D01*
X11703771Y-40362870D01*
X11696360Y-40370958D01*
X11692420Y-40374898D01*
X11692414Y-40374905D01*
X11672997Y-40399460D01*
X11670689Y-40402294D01*
X11621964Y-40460364D01*
X11617935Y-40466491D01*
X11617880Y-40466455D01*
X11613825Y-40472820D01*
X11613882Y-40472855D01*
X11610030Y-40479098D01*
X11577996Y-40547794D01*
X11576401Y-40551087D01*
X11542394Y-40618805D01*
X11539882Y-40625707D01*
X11539820Y-40625684D01*
X11537343Y-40632810D01*
X11537404Y-40632831D01*
X11535096Y-40639795D01*
X11519759Y-40714064D01*
X11518967Y-40717637D01*
X11501500Y-40791340D01*
X11500648Y-40798634D01*
X11500581Y-40798626D01*
X11499814Y-40806126D01*
X11499881Y-40806132D01*
X11499241Y-40813442D01*
X11501447Y-40889258D01*
X11501500Y-40892922D01*
X11501500Y-41189608D01*
X11494802Y-41230144D01*
X11455406Y-41346091D01*
X11453839Y-41350438D01*
X11391027Y-41515202D01*
X11388867Y-41520504D01*
X11347010Y-41616900D01*
X11301531Y-41671417D01*
X11233797Y-41692693D01*
X11165313Y-41673971D01*
X11152495Y-41664921D01*
X11024982Y-41562423D01*
X11024980Y-41562422D01*
X10864023Y-41482595D01*
X10689664Y-41439234D01*
X10649343Y-41436500D01*
X10649334Y-41436500D01*
X9870666Y-41436500D01*
X9870657Y-41436500D01*
X9830336Y-41439234D01*
X9830333Y-41439234D01*
X9655976Y-41482595D01*
X9495019Y-41562422D01*
X9495018Y-41562423D01*
X9367502Y-41664922D01*
X9301877Y-41692010D01*
X9232024Y-41679317D01*
X9180122Y-41630875D01*
X9172988Y-41616899D01*
X9147433Y-41558045D01*
X9138649Y-41487594D01*
X9169348Y-41423577D01*
X9173894Y-41418785D01*
X16536259Y-34056420D01*
X16555499Y-34041440D01*
X16555207Y-34041022D01*
X16558888Y-34038451D01*
X16558900Y-34038444D01*
X16668510Y-33949643D01*
X16672803Y-33946317D01*
X16778270Y-33868255D01*
X16783014Y-33864912D01*
X16886084Y-33795835D01*
X16891272Y-33792542D01*
X16976461Y-33741409D01*
X17034437Y-33723922D01*
X17034422Y-33723757D01*
X17035230Y-33723683D01*
X17035594Y-33723574D01*
X17037231Y-33723499D01*
X17037264Y-33723499D01*
X17108649Y-33717013D01*
X17272913Y-33665827D01*
X17420155Y-33576816D01*
X17541816Y-33455155D01*
X17630827Y-33307913D01*
X17682013Y-33143649D01*
X17688500Y-33072265D01*
X17688499Y-32557736D01*
X17682013Y-32486351D01*
X17630827Y-32322087D01*
X17541816Y-32174845D01*
X17541815Y-32174844D01*
X17541811Y-32174839D01*
X17446067Y-32079095D01*
X17412041Y-32016783D01*
X17417106Y-31945968D01*
X17446067Y-31900905D01*
X17541811Y-31805160D01*
X17541816Y-31805155D01*
X17630827Y-31657913D01*
X17630829Y-31657908D01*
X17659152Y-31567015D01*
X17698514Y-31507929D01*
X17763572Y-31479504D01*
X17779447Y-31478500D01*
X18608579Y-31478500D01*
X18627763Y-31479968D01*
G37*
%TD.AperFunction*%
%TA.AperFunction,Conductor*%
G36*
X21233225Y-36475669D02*
G01*
X21255480Y-36501353D01*
X21288607Y-36552058D01*
X21344275Y-36637265D01*
X21344279Y-36637270D01*
X21496762Y-36802908D01*
X21510196Y-36813364D01*
X21674424Y-36941189D01*
X21707680Y-36959186D01*
X21758071Y-37009200D01*
X21773423Y-37078516D01*
X21748862Y-37145129D01*
X21707680Y-37180813D01*
X21674426Y-37198810D01*
X21674424Y-37198811D01*
X21496762Y-37337091D01*
X21344279Y-37502729D01*
X21255483Y-37638643D01*
X21201479Y-37684731D01*
X21131131Y-37694306D01*
X21066774Y-37664329D01*
X21044517Y-37638643D01*
X20955720Y-37502729D01*
X20803237Y-37337091D01*
X20721382Y-37273381D01*
X20625576Y-37198811D01*
X20592319Y-37180813D01*
X20541929Y-37130802D01*
X20526576Y-37061485D01*
X20551136Y-36994872D01*
X20592320Y-36959186D01*
X20625576Y-36941189D01*
X20803240Y-36802906D01*
X20955722Y-36637268D01*
X21044518Y-36501354D01*
X21098520Y-36455268D01*
X21168868Y-36445692D01*
X21233225Y-36475669D01*
G37*
%TD.AperFunction*%
%TA.AperFunction,Conductor*%
G36*
X21233524Y-33935212D02*
G01*
X21255782Y-33960898D01*
X21344674Y-34096958D01*
X21497097Y-34262534D01*
X21674698Y-34400767D01*
X21674704Y-34400771D01*
X21708207Y-34418902D01*
X21758597Y-34468915D01*
X21773949Y-34538232D01*
X21749388Y-34604845D01*
X21708207Y-34640528D01*
X21674430Y-34658807D01*
X21674424Y-34658811D01*
X21496762Y-34797091D01*
X21344279Y-34962729D01*
X21255483Y-35098643D01*
X21201479Y-35144731D01*
X21131131Y-35154306D01*
X21066774Y-35124329D01*
X21044517Y-35098643D01*
X20955720Y-34962729D01*
X20803237Y-34797091D01*
X20667267Y-34691261D01*
X20625576Y-34658811D01*
X20592319Y-34640813D01*
X20541929Y-34590802D01*
X20526576Y-34521485D01*
X20551136Y-34454872D01*
X20592320Y-34419186D01*
X20592847Y-34418901D01*
X20625576Y-34401189D01*
X20803240Y-34262906D01*
X20955722Y-34097268D01*
X21044816Y-33960898D01*
X21098819Y-33914810D01*
X21169167Y-33905235D01*
X21233524Y-33935212D01*
G37*
%TD.AperFunction*%
%TA.AperFunction,Conductor*%
G36*
X21233225Y-31395669D02*
G01*
X21255480Y-31421353D01*
X21288607Y-31472058D01*
X21344275Y-31557265D01*
X21344279Y-31557270D01*
X21496762Y-31722908D01*
X21551331Y-31765381D01*
X21674424Y-31861189D01*
X21708205Y-31879470D01*
X21758596Y-31929482D01*
X21773949Y-31998799D01*
X21749389Y-32065412D01*
X21708209Y-32101096D01*
X21674704Y-32119228D01*
X21674698Y-32119232D01*
X21497097Y-32257465D01*
X21344670Y-32423045D01*
X21255780Y-32559101D01*
X21201776Y-32605189D01*
X21131428Y-32614764D01*
X21067071Y-32584786D01*
X21044816Y-32559101D01*
X20994311Y-32481797D01*
X20955724Y-32422734D01*
X20955720Y-32422729D01*
X20821666Y-32277110D01*
X20803240Y-32257094D01*
X20803239Y-32257093D01*
X20803237Y-32257091D01*
X20714266Y-32187842D01*
X20625576Y-32118811D01*
X20592319Y-32100813D01*
X20541929Y-32050802D01*
X20526576Y-31981485D01*
X20551136Y-31914872D01*
X20592320Y-31879186D01*
X20625576Y-31861189D01*
X20803240Y-31722906D01*
X20955722Y-31557268D01*
X21044518Y-31421354D01*
X21098520Y-31375268D01*
X21168868Y-31365692D01*
X21233225Y-31395669D01*
G37*
%TD.AperFunction*%
%TA.AperFunction,Conductor*%
G36*
X15832367Y-31759890D02*
G01*
X15860326Y-31792157D01*
X15868184Y-31805155D01*
X15868186Y-31805157D01*
X15868188Y-31805160D01*
X15963933Y-31900905D01*
X15997959Y-31963217D01*
X15992894Y-32034032D01*
X15963933Y-32079095D01*
X15868188Y-32174839D01*
X15868184Y-32174844D01*
X15860327Y-32187842D01*
X15807967Y-32235789D01*
X15737997Y-32247818D01*
X15672631Y-32220107D01*
X15644673Y-32187842D01*
X15636815Y-32174844D01*
X15636811Y-32174839D01*
X15541067Y-32079095D01*
X15507041Y-32016783D01*
X15512106Y-31945968D01*
X15541067Y-31900905D01*
X15636811Y-31805160D01*
X15636816Y-31805155D01*
X15644672Y-31792158D01*
X15697030Y-31744211D01*
X15767000Y-31732181D01*
X15832367Y-31759890D01*
G37*
%TD.AperFunction*%
%TA.AperFunction,Conductor*%
G36*
X13613227Y-5995670D02*
G01*
X13635480Y-6021353D01*
X13681700Y-6092098D01*
X13703806Y-6125934D01*
X13724278Y-6157268D01*
X13780736Y-6218597D01*
X13810330Y-6250744D01*
X13814277Y-6255497D01*
X13818163Y-6259751D01*
X13823234Y-6264763D01*
X13876759Y-6322905D01*
X13876760Y-6322906D01*
X14054424Y-6461189D01*
X14252426Y-6568342D01*
X14281357Y-6578274D01*
X14316411Y-6590308D01*
X14374347Y-6631344D01*
X14400899Y-6697189D01*
X14401500Y-6709481D01*
X14401500Y-7466330D01*
X14398420Y-7492035D01*
X14398584Y-7492063D01*
X14398006Y-7495483D01*
X14397934Y-7496093D01*
X14397836Y-7496492D01*
X14397834Y-7496505D01*
X14382627Y-7654882D01*
X14382472Y-7656397D01*
X14366808Y-7801120D01*
X14366582Y-7803066D01*
X14351413Y-7925405D01*
X14351065Y-7927998D01*
X14341825Y-7991664D01*
X14327870Y-8030097D01*
X14328984Y-8030617D01*
X14325884Y-8037264D01*
X14270113Y-8205572D01*
X14270112Y-8205579D01*
X14259500Y-8309446D01*
X14259500Y-9060544D01*
X14270112Y-9164425D01*
X14325885Y-9332738D01*
X14418970Y-9483652D01*
X14418975Y-9483658D01*
X14544341Y-9609024D01*
X14544347Y-9609029D01*
X14544348Y-9609030D01*
X14695262Y-9702115D01*
X14863574Y-9757887D01*
X14967455Y-9768500D01*
X16368544Y-9768499D01*
X16472426Y-9757887D01*
X16640738Y-9702115D01*
X16791652Y-9609030D01*
X16823377Y-9577303D01*
X16836531Y-9565858D01*
X16852360Y-9553906D01*
X16861879Y-9547382D01*
X16952886Y-9490974D01*
X16964297Y-9484695D01*
X17045429Y-9445382D01*
X17058812Y-9439824D01*
X17130335Y-9414842D01*
X17145491Y-9410592D01*
X17207661Y-9397288D01*
X17234019Y-9394500D01*
X18395500Y-9394500D01*
X18463621Y-9414502D01*
X18510114Y-9468158D01*
X18521500Y-9520500D01*
X18521500Y-11298649D01*
X18528009Y-11359196D01*
X18528011Y-11359204D01*
X18579110Y-11496202D01*
X18579112Y-11496207D01*
X18666738Y-11613261D01*
X18783791Y-11700886D01*
X18783792Y-11700886D01*
X18783796Y-11700889D01*
X18898810Y-11743787D01*
X18955642Y-11786332D01*
X18980453Y-11852852D01*
X18965362Y-11922226D01*
X18947475Y-11947179D01*
X18804280Y-12102729D01*
X18804275Y-12102734D01*
X18681141Y-12291206D01*
X18590703Y-12497386D01*
X18590702Y-12497387D01*
X18535437Y-12715624D01*
X18535436Y-12715630D01*
X18535436Y-12715632D01*
X18528448Y-12799968D01*
X18516844Y-12940000D01*
X18535437Y-13164375D01*
X18590702Y-13382612D01*
X18590703Y-13382613D01*
X18681141Y-13588793D01*
X18804275Y-13777265D01*
X18804279Y-13777270D01*
X18956762Y-13942908D01*
X19011331Y-13985381D01*
X19134424Y-14081189D01*
X19167680Y-14099186D01*
X19218071Y-14149200D01*
X19233423Y-14218516D01*
X19208862Y-14285129D01*
X19167680Y-14320813D01*
X19134426Y-14338810D01*
X19134424Y-14338811D01*
X18956762Y-14477091D01*
X18804279Y-14642729D01*
X18804275Y-14642734D01*
X18681141Y-14831206D01*
X18590703Y-15037386D01*
X18590702Y-15037387D01*
X18535437Y-15255624D01*
X18535436Y-15255630D01*
X18535436Y-15255632D01*
X18516844Y-15480000D01*
X18534232Y-15689844D01*
X18535437Y-15704375D01*
X18590702Y-15922612D01*
X18590703Y-15922613D01*
X18590704Y-15922616D01*
X18681140Y-16128791D01*
X18681141Y-16128793D01*
X18804275Y-16317265D01*
X18804279Y-16317270D01*
X18956762Y-16482908D01*
X19011331Y-16525381D01*
X19134424Y-16621189D01*
X19167153Y-16638901D01*
X19167680Y-16639186D01*
X19218071Y-16689200D01*
X19233423Y-16758516D01*
X19208862Y-16825129D01*
X19167680Y-16860814D01*
X19134424Y-16878810D01*
X19134424Y-16878811D01*
X19083373Y-16918545D01*
X19017330Y-16944600D01*
X18947685Y-16930814D01*
X18916888Y-16908207D01*
X14941776Y-12933095D01*
X14907750Y-12870783D01*
X14912815Y-12799968D01*
X14955362Y-12743132D01*
X15021882Y-12718321D01*
X15030871Y-12718000D01*
X15414000Y-12718000D01*
X15414000Y-11889000D01*
X15922000Y-11889000D01*
X15922000Y-12718000D01*
X16368517Y-12718000D01*
X16368516Y-12717999D01*
X16472318Y-12707394D01*
X16472321Y-12707393D01*
X16640525Y-12651657D01*
X16791339Y-12558634D01*
X16791345Y-12558629D01*
X16916629Y-12433345D01*
X16916634Y-12433339D01*
X17009657Y-12282525D01*
X17065393Y-12114321D01*
X17065394Y-12114318D01*
X17075999Y-12010516D01*
X17076000Y-12010516D01*
X17076000Y-11889000D01*
X15922000Y-11889000D01*
X15414000Y-11889000D01*
X14260000Y-11889000D01*
X14260000Y-11947129D01*
X14239998Y-12015250D01*
X14186342Y-12061743D01*
X14116068Y-12071847D01*
X14051488Y-12042353D01*
X14044905Y-12036224D01*
X13389681Y-11381000D01*
X14260000Y-11381000D01*
X15414000Y-11381000D01*
X15414000Y-10552000D01*
X15922000Y-10552000D01*
X15922000Y-11381000D01*
X17076000Y-11381000D01*
X17076000Y-11259483D01*
X17065394Y-11155681D01*
X17065393Y-11155678D01*
X17009657Y-10987474D01*
X16916634Y-10836660D01*
X16916629Y-10836654D01*
X16791345Y-10711370D01*
X16791339Y-10711365D01*
X16640525Y-10618342D01*
X16472321Y-10562606D01*
X16472318Y-10562605D01*
X16368516Y-10552000D01*
X15922000Y-10552000D01*
X15414000Y-10552000D01*
X14967483Y-10552000D01*
X14863681Y-10562605D01*
X14863678Y-10562606D01*
X14695474Y-10618342D01*
X14544660Y-10711365D01*
X14544654Y-10711370D01*
X14419370Y-10836654D01*
X14419365Y-10836660D01*
X14326342Y-10987474D01*
X14270606Y-11155678D01*
X14270605Y-11155681D01*
X14260000Y-11259483D01*
X14260000Y-11381000D01*
X13389681Y-11381000D01*
X13055405Y-11046724D01*
X13021379Y-10984412D01*
X13018500Y-10957629D01*
X13018500Y-6591431D01*
X13019969Y-6572249D01*
X13026030Y-6532904D01*
X13030733Y-6502367D01*
X13060872Y-6438087D01*
X13071898Y-6427074D01*
X13112312Y-6391416D01*
X13122110Y-6382544D01*
X13122562Y-6382124D01*
X13132592Y-6372548D01*
X13181207Y-6324862D01*
X13184158Y-6322062D01*
X13185934Y-6320227D01*
X13204096Y-6302414D01*
X13273366Y-6234472D01*
X13318371Y-6184108D01*
X13320261Y-6181690D01*
X13358208Y-6125953D01*
X13375182Y-6097116D01*
X13378267Y-6092146D01*
X13378299Y-6092098D01*
X13424518Y-6021355D01*
X13478522Y-5975267D01*
X13548870Y-5965692D01*
X13613227Y-5995670D01*
G37*
%TD.AperFunction*%
%TA.AperFunction,Conductor*%
G36*
X21233225Y-13615669D02*
G01*
X21255480Y-13641353D01*
X21288607Y-13692058D01*
X21344275Y-13777265D01*
X21344279Y-13777270D01*
X21496762Y-13942908D01*
X21551331Y-13985381D01*
X21674424Y-14081189D01*
X21708205Y-14099470D01*
X21758596Y-14149482D01*
X21773949Y-14218799D01*
X21749389Y-14285412D01*
X21708209Y-14321096D01*
X21674704Y-14339228D01*
X21674698Y-14339232D01*
X21497097Y-14477465D01*
X21344670Y-14643045D01*
X21255780Y-14779101D01*
X21201776Y-14825189D01*
X21131428Y-14834764D01*
X21067071Y-14804786D01*
X21044816Y-14779101D01*
X21005884Y-14719511D01*
X20955724Y-14642734D01*
X20955720Y-14642729D01*
X20839570Y-14516559D01*
X20803240Y-14477094D01*
X20803239Y-14477093D01*
X20803237Y-14477091D01*
X20721382Y-14413381D01*
X20625576Y-14338811D01*
X20592319Y-14320813D01*
X20541929Y-14270802D01*
X20526576Y-14201485D01*
X20551136Y-14134872D01*
X20592320Y-14099186D01*
X20625576Y-14081189D01*
X20803240Y-13942906D01*
X20955722Y-13777268D01*
X21044518Y-13641354D01*
X21098520Y-13595268D01*
X21168868Y-13585692D01*
X21233225Y-13615669D01*
G37*
%TD.AperFunction*%
%TA.AperFunction,Conductor*%
G36*
X8533225Y-5995671D02*
G01*
X8555482Y-6021357D01*
X8601699Y-6092098D01*
X8604797Y-6097090D01*
X8621777Y-6125934D01*
X8621780Y-6125938D01*
X8621787Y-6125950D01*
X8659736Y-6181690D01*
X8659739Y-6181694D01*
X8661616Y-6184097D01*
X8661635Y-6184118D01*
X8706626Y-6234468D01*
X8706630Y-6234472D01*
X8706633Y-6234475D01*
X8733047Y-6260383D01*
X8794196Y-6320359D01*
X8795956Y-6322175D01*
X8798781Y-6324856D01*
X8847424Y-6372566D01*
X8857614Y-6382289D01*
X8857889Y-6382544D01*
X8858074Y-6382716D01*
X8867630Y-6391366D01*
X8908098Y-6427074D01*
X8945943Y-6487143D01*
X8949263Y-6502364D01*
X8960030Y-6572239D01*
X8961500Y-6591428D01*
X8961500Y-9784351D01*
X8960170Y-9802611D01*
X8956659Y-9826578D01*
X8956659Y-9826587D01*
X8961020Y-9876425D01*
X8961500Y-9887408D01*
X8961500Y-9892977D01*
X8965135Y-9924081D01*
X8965507Y-9927724D01*
X8972111Y-10003210D01*
X8973596Y-10010398D01*
X8973531Y-10010411D01*
X8975169Y-10017799D01*
X8975233Y-10017784D01*
X8976069Y-10021313D01*
X8976045Y-10021750D01*
X8977115Y-10026574D01*
X8977771Y-10032177D01*
X8975478Y-10032445D01*
X8972308Y-10092210D01*
X8930815Y-10149819D01*
X8864762Y-10175850D01*
X8795122Y-10162038D01*
X8764370Y-10139455D01*
X7975403Y-9350489D01*
X7941379Y-9288178D01*
X7938500Y-9261395D01*
X7938500Y-6591431D01*
X7939969Y-6572249D01*
X7946030Y-6532904D01*
X7950733Y-6502367D01*
X7980872Y-6438087D01*
X7991898Y-6427074D01*
X8032312Y-6391416D01*
X8042110Y-6382544D01*
X8042562Y-6382124D01*
X8052592Y-6372548D01*
X8101207Y-6324862D01*
X8104158Y-6322062D01*
X8105934Y-6320227D01*
X8124096Y-6302414D01*
X8193366Y-6234472D01*
X8238371Y-6184108D01*
X8240261Y-6181690D01*
X8278208Y-6125953D01*
X8295182Y-6097116D01*
X8298238Y-6092190D01*
X8344518Y-6021353D01*
X8398520Y-5975268D01*
X8468868Y-5965693D01*
X8533225Y-5995671D01*
G37*
%TD.AperFunction*%
%TA.AperFunction,Conductor*%
G36*
X18934031Y-20502D02*
G01*
X18980524Y-74158D01*
X18990628Y-144432D01*
X18961134Y-209012D01*
X18922460Y-239096D01*
X18734843Y-333321D01*
X18733198Y-334148D01*
X18440396Y-526726D01*
X18171954Y-751977D01*
X18171948Y-751983D01*
X17931450Y-1006894D01*
X17722178Y-1287995D01*
X17722168Y-1288011D01*
X17546953Y-1591493D01*
X17546944Y-1591511D01*
X17408146Y-1913280D01*
X17408144Y-1913286D01*
X17307633Y-2249015D01*
X17246777Y-2594147D01*
X17246777Y-2594153D01*
X17226401Y-2944000D01*
X17246777Y-3293846D01*
X17246777Y-3293852D01*
X17246778Y-3293857D01*
X17307633Y-3638984D01*
X17408143Y-3974712D01*
X17408145Y-3974718D01*
X17408146Y-3974719D01*
X17515690Y-4224034D01*
X17546950Y-4296501D01*
X17722175Y-4600000D01*
X17931449Y-4881104D01*
X18171943Y-5136012D01*
X18171948Y-5136016D01*
X18171954Y-5136022D01*
X18440396Y-5361273D01*
X18440400Y-5361276D01*
X18440403Y-5361278D01*
X18733200Y-5553853D01*
X19046374Y-5711135D01*
X19139286Y-5744952D01*
X19375681Y-5830993D01*
X19375682Y-5830993D01*
X19375690Y-5830996D01*
X19716694Y-5911816D01*
X19915597Y-5935064D01*
X20064772Y-5952500D01*
X20064775Y-5952500D01*
X20415228Y-5952500D01*
X20545755Y-5937243D01*
X20763306Y-5911816D01*
X21104310Y-5830996D01*
X21433626Y-5711135D01*
X21746800Y-5553853D01*
X22039597Y-5361278D01*
X22308057Y-5136012D01*
X22548551Y-4881104D01*
X22757825Y-4600000D01*
X22933050Y-4296501D01*
X23071857Y-3974712D01*
X23172367Y-3638984D01*
X23233222Y-3293857D01*
X23253599Y-2944000D01*
X23233222Y-2594143D01*
X23172367Y-2249016D01*
X23071857Y-1913288D01*
X22933050Y-1591499D01*
X22757825Y-1288000D01*
X22548551Y-1006896D01*
X22308057Y-751988D01*
X22308050Y-751982D01*
X22308045Y-751977D01*
X22039603Y-526726D01*
X22039597Y-526722D01*
X21746800Y-334147D01*
X21557539Y-239096D01*
X21505643Y-190651D01*
X21488176Y-121836D01*
X21510686Y-54502D01*
X21566026Y-10027D01*
X21614090Y-500D01*
X24873500Y-500D01*
X24941621Y-20502D01*
X24988114Y-74158D01*
X24999500Y-126500D01*
X24999500Y-68873500D01*
X24979498Y-68941621D01*
X24925842Y-68988114D01*
X24873500Y-68999500D01*
X21622054Y-68999500D01*
X21553933Y-68979498D01*
X21507440Y-68925842D01*
X21497336Y-68855568D01*
X21526830Y-68790988D01*
X21565501Y-68760904D01*
X21746800Y-68669853D01*
X22039597Y-68477278D01*
X22308057Y-68252012D01*
X22548551Y-67997104D01*
X22757825Y-67716000D01*
X22933050Y-67412501D01*
X23071857Y-67090712D01*
X23172367Y-66754984D01*
X23233222Y-66409857D01*
X23253599Y-66060000D01*
X23233222Y-65710143D01*
X23172367Y-65365016D01*
X23071857Y-65029288D01*
X22933050Y-64707499D01*
X22757825Y-64404000D01*
X22548551Y-64122896D01*
X22308057Y-63867988D01*
X22308050Y-63867982D01*
X22308045Y-63867977D01*
X22039603Y-63642726D01*
X21928981Y-63569969D01*
X21746800Y-63450147D01*
X21433626Y-63292865D01*
X21433621Y-63292863D01*
X21433616Y-63292861D01*
X21104318Y-63173006D01*
X21104313Y-63173005D01*
X21104312Y-63173004D01*
X21104310Y-63173004D01*
X20916961Y-63128601D01*
X20763307Y-63092184D01*
X20763301Y-63092183D01*
X20415228Y-63051500D01*
X20415225Y-63051500D01*
X20064775Y-63051500D01*
X20064772Y-63051500D01*
X19716698Y-63092183D01*
X19716692Y-63092184D01*
X19375686Y-63173005D01*
X19375681Y-63173006D01*
X19046383Y-63292861D01*
X19046378Y-63292863D01*
X18733198Y-63450148D01*
X18440396Y-63642726D01*
X18171954Y-63867977D01*
X18171948Y-63867983D01*
X18171944Y-63867986D01*
X18171943Y-63867988D01*
X18129395Y-63913086D01*
X17931450Y-64122894D01*
X17722178Y-64403995D01*
X17722168Y-64404011D01*
X17546953Y-64707493D01*
X17546944Y-64707511D01*
X17408146Y-65029280D01*
X17408143Y-65029288D01*
X17374249Y-65142502D01*
X17307633Y-65365015D01*
X17246777Y-65710147D01*
X17246777Y-65710153D01*
X17226401Y-66060000D01*
X17246777Y-66409846D01*
X17246777Y-66409852D01*
X17246778Y-66409857D01*
X17307633Y-66754984D01*
X17408143Y-67090712D01*
X17546950Y-67412501D01*
X17722175Y-67716000D01*
X17931449Y-67997104D01*
X18171943Y-68252012D01*
X18171948Y-68252016D01*
X18171954Y-68252022D01*
X18440396Y-68477273D01*
X18440400Y-68477276D01*
X18440403Y-68477278D01*
X18733200Y-68669853D01*
X18914496Y-68760903D01*
X18966393Y-68809349D01*
X18983860Y-68878164D01*
X18961350Y-68945497D01*
X18906010Y-68989972D01*
X18857946Y-68999500D01*
X9134000Y-68999500D01*
X9065879Y-68979498D01*
X9019386Y-68925842D01*
X9008000Y-68873500D01*
X9008000Y-67141500D01*
X6642000Y-67141500D01*
X6642000Y-68873500D01*
X6621998Y-68941621D01*
X6568342Y-68988114D01*
X6516000Y-68999500D01*
X6269500Y-68999500D01*
X6201379Y-68979498D01*
X6154886Y-68925842D01*
X6143500Y-68873500D01*
X6143500Y-66633500D01*
X6642000Y-66633500D01*
X7571000Y-66633500D01*
X7571000Y-64279500D01*
X8079000Y-64279500D01*
X8079000Y-66633500D01*
X9008000Y-66633500D01*
X9008000Y-64738914D01*
X9007999Y-64738902D01*
X9001494Y-64678406D01*
X8950444Y-64541535D01*
X8950444Y-64541534D01*
X8862904Y-64424595D01*
X8745965Y-64337055D01*
X8609093Y-64286005D01*
X8548597Y-64279500D01*
X8079000Y-64279500D01*
X7571000Y-64279500D01*
X7101402Y-64279500D01*
X7040906Y-64286005D01*
X6904035Y-64337055D01*
X6904034Y-64337055D01*
X6787095Y-64424595D01*
X6699555Y-64541534D01*
X6699555Y-64541535D01*
X6648505Y-64678406D01*
X6642000Y-64738902D01*
X6642000Y-66633500D01*
X6143500Y-66633500D01*
X6143500Y-65290870D01*
X6143703Y-65283715D01*
X6145434Y-65253282D01*
X6145068Y-65248698D01*
X6144191Y-65242181D01*
X6143861Y-65242217D01*
X6136990Y-65178304D01*
X6136988Y-65178297D01*
X6120741Y-65134735D01*
X6115718Y-65117678D01*
X6115717Y-65117675D01*
X6114149Y-65110518D01*
X6111007Y-65102133D01*
X6095853Y-65067468D01*
X6093260Y-65061061D01*
X6085889Y-65041296D01*
X6085888Y-65041294D01*
X6085887Y-65041292D01*
X6026857Y-64962439D01*
X6024354Y-64958975D01*
X6005438Y-64931821D01*
X5958901Y-64881993D01*
X5949472Y-64870630D01*
X5911563Y-64819072D01*
X5905333Y-64809757D01*
X5854510Y-64725933D01*
X5850273Y-64718370D01*
X5844672Y-64707511D01*
X5791331Y-64604103D01*
X5788362Y-64597940D01*
X5771453Y-64560265D01*
X5761737Y-64490408D01*
X5763341Y-64479461D01*
X5758979Y-64429601D01*
X5758500Y-64418621D01*
X5758500Y-64413075D01*
X5758500Y-64413070D01*
X5754863Y-64381962D01*
X5754492Y-64378330D01*
X5747887Y-64302823D01*
X5747886Y-64302819D01*
X5746403Y-64295637D01*
X5746469Y-64295623D01*
X5744839Y-64288269D01*
X5744773Y-64288285D01*
X5743079Y-64281140D01*
X5743079Y-64281137D01*
X5717122Y-64209822D01*
X5715973Y-64206514D01*
X5692114Y-64134512D01*
X5692113Y-64134510D01*
X5689014Y-64127864D01*
X5689075Y-64127835D01*
X5685788Y-64121045D01*
X5685728Y-64121076D01*
X5682433Y-64114515D01*
X5640782Y-64051189D01*
X5638812Y-64048096D01*
X5599032Y-63983601D01*
X5594478Y-63977842D01*
X5594531Y-63977799D01*
X5589766Y-63971950D01*
X5589715Y-63971994D01*
X5584998Y-63966372D01*
X5529826Y-63914320D01*
X5527197Y-63911766D01*
X4516863Y-62901432D01*
X4482837Y-62839120D01*
X4483439Y-62782923D01*
X4494535Y-62736711D01*
X4513165Y-62500000D01*
X4494535Y-62263289D01*
X4439105Y-62032406D01*
X4348240Y-61813037D01*
X4224176Y-61610584D01*
X4198909Y-61581000D01*
X4069969Y-61430030D01*
X3889419Y-61275826D01*
X3889417Y-61275825D01*
X3889416Y-61275824D01*
X3686963Y-61151760D01*
X3645253Y-61134483D01*
X3467592Y-61060894D01*
X3341743Y-61030681D01*
X3236711Y-61005465D01*
X3236706Y-61005464D01*
X3236704Y-61005464D01*
X3134613Y-60997428D01*
X3068271Y-60972143D01*
X3026132Y-60915004D01*
X3018500Y-60871817D01*
X3018500Y-60700389D01*
X3025198Y-60659855D01*
X3046407Y-60597432D01*
X3064599Y-60543886D01*
X3066141Y-60539608D01*
X3128984Y-60374763D01*
X3131140Y-60369474D01*
X3173194Y-60272623D01*
X3218673Y-60218105D01*
X3286407Y-60196829D01*
X3354890Y-60215550D01*
X3367709Y-60224601D01*
X3495286Y-60327150D01*
X3495295Y-60327156D01*
X3656151Y-60406932D01*
X3830398Y-60450265D01*
X3830405Y-60450266D01*
X3870707Y-60453000D01*
X4006000Y-60453000D01*
X4006000Y-56487000D01*
X3870707Y-56487000D01*
X3830405Y-56489733D01*
X3830398Y-56489734D01*
X3656151Y-56533067D01*
X3495295Y-56612843D01*
X3495286Y-56612849D01*
X3355337Y-56725343D01*
X3350510Y-56730171D01*
X3348621Y-56728282D01*
X3300216Y-56761953D01*
X3229267Y-56764549D01*
X3170129Y-56729531D01*
X3169846Y-56729815D01*
X3168738Y-56728707D01*
X3168177Y-56728375D01*
X3166691Y-56726660D01*
X3165018Y-56724987D01*
X3024982Y-56612423D01*
X3024980Y-56612422D01*
X2864023Y-56532595D01*
X2689664Y-56489234D01*
X2649343Y-56486500D01*
X2649334Y-56486500D01*
X1870666Y-56486500D01*
X1870657Y-56486500D01*
X1830336Y-56489234D01*
X1830333Y-56489234D01*
X1655976Y-56532595D01*
X1495019Y-56612422D01*
X1495017Y-56612423D01*
X1354984Y-56724984D01*
X1242423Y-56865017D01*
X1242422Y-56865019D01*
X1162595Y-57025976D01*
X1119234Y-57200333D01*
X1119234Y-57200336D01*
X1116500Y-57240656D01*
X1116500Y-59699343D01*
X1119234Y-59739663D01*
X1119234Y-59739666D01*
X1140915Y-59826845D01*
X1162595Y-59914023D01*
X1162596Y-59914025D01*
X1197556Y-59984516D01*
X1200794Y-59991585D01*
X1212131Y-60018500D01*
X1212357Y-60019035D01*
X1222953Y-60036654D01*
X1227854Y-60045606D01*
X1242423Y-60074981D01*
X1242425Y-60074985D01*
X1251276Y-60085995D01*
X1261041Y-60099988D01*
X1269030Y-60113271D01*
X1273544Y-60121452D01*
X1326727Y-60226910D01*
X1329799Y-60233461D01*
X1370666Y-60327578D01*
X1388867Y-60369493D01*
X1391024Y-60374788D01*
X1430612Y-60478632D01*
X1453836Y-60539551D01*
X1455398Y-60543884D01*
X1494802Y-60659855D01*
X1501500Y-60700390D01*
X1501500Y-61652809D01*
X1500170Y-61671069D01*
X1496659Y-61695036D01*
X1496659Y-61695045D01*
X1501020Y-61744883D01*
X1501500Y-61755866D01*
X1501500Y-61761435D01*
X1505135Y-61792539D01*
X1505507Y-61796182D01*
X1512111Y-61871668D01*
X1513596Y-61878856D01*
X1513531Y-61878869D01*
X1515165Y-61886239D01*
X1515229Y-61886225D01*
X1516921Y-61893366D01*
X1542846Y-61964592D01*
X1544040Y-61968026D01*
X1551474Y-61990460D01*
X1554388Y-62059505D01*
X1505465Y-62263289D01*
X1486835Y-62500000D01*
X1505465Y-62736711D01*
X1516559Y-62782921D01*
X1560894Y-62967592D01*
X1612502Y-63092184D01*
X1651760Y-63186963D01*
X1686405Y-63243499D01*
X1775825Y-63389417D01*
X1775826Y-63389419D01*
X1930030Y-63569969D01*
X2015218Y-63642726D01*
X2110584Y-63724176D01*
X2313037Y-63848240D01*
X2532406Y-63939105D01*
X2763289Y-63994535D01*
X3000000Y-64013165D01*
X3236711Y-63994535D01*
X3351872Y-63966887D01*
X3422779Y-63970434D01*
X3470380Y-64000311D01*
X4094658Y-64624589D01*
X4128684Y-64686901D01*
X4123619Y-64757716D01*
X4113307Y-64779008D01*
X4094668Y-64809751D01*
X4088437Y-64819067D01*
X4050525Y-64870629D01*
X4041099Y-64881989D01*
X3994564Y-64931816D01*
X3945630Y-64992957D01*
X3943636Y-64995881D01*
X3943625Y-64995899D01*
X3939216Y-65004600D01*
X3927697Y-65023145D01*
X3914112Y-65041292D01*
X3914110Y-65041297D01*
X3898408Y-65083393D01*
X3892752Y-65096302D01*
X3883622Y-65114322D01*
X3883621Y-65114323D01*
X3881876Y-65123088D01*
X3876361Y-65142502D01*
X3863010Y-65178299D01*
X3856500Y-65238850D01*
X3856320Y-65242228D01*
X3856266Y-65242225D01*
X3855515Y-65254213D01*
X3855081Y-65257658D01*
X3854599Y-65266611D01*
X3854590Y-65321585D01*
X3855196Y-65327751D01*
X3854942Y-65327775D01*
X3856500Y-65343596D01*
X3856500Y-68873500D01*
X3836498Y-68941621D01*
X3782842Y-68988114D01*
X3730500Y-68999500D01*
X3484000Y-68999500D01*
X3415879Y-68979498D01*
X3369386Y-68925842D01*
X3358000Y-68873500D01*
X3358000Y-67141500D01*
X992000Y-67141500D01*
X992000Y-68873500D01*
X971998Y-68941621D01*
X918342Y-68988114D01*
X866000Y-68999500D01*
X126500Y-68999500D01*
X58379Y-68979498D01*
X11886Y-68925842D01*
X500Y-68873500D01*
X500Y-66633500D01*
X992000Y-66633500D01*
X1921000Y-66633500D01*
X1921000Y-64279500D01*
X2429000Y-64279500D01*
X2429000Y-66633500D01*
X3358000Y-66633500D01*
X3358000Y-64738914D01*
X3357999Y-64738902D01*
X3351494Y-64678406D01*
X3300444Y-64541535D01*
X3300444Y-64541534D01*
X3212904Y-64424595D01*
X3095965Y-64337055D01*
X2959093Y-64286005D01*
X2898597Y-64279500D01*
X2429000Y-64279500D01*
X1921000Y-64279500D01*
X1451402Y-64279500D01*
X1390906Y-64286005D01*
X1254035Y-64337055D01*
X1254034Y-64337055D01*
X1137095Y-64424595D01*
X1049555Y-64541534D01*
X1049555Y-64541535D01*
X998505Y-64678406D01*
X992000Y-64738902D01*
X992000Y-66633500D01*
X500Y-66633500D01*
X500Y-45377795D01*
X361659Y-45377795D01*
X366020Y-45427633D01*
X366500Y-45438616D01*
X366500Y-45444185D01*
X370135Y-45475289D01*
X370507Y-45478932D01*
X377111Y-45554418D01*
X378596Y-45561606D01*
X378531Y-45561619D01*
X380165Y-45568989D01*
X380229Y-45568975D01*
X381921Y-45576116D01*
X407846Y-45647342D01*
X409049Y-45650804D01*
X432884Y-45722735D01*
X435987Y-45729388D01*
X435926Y-45729416D01*
X439211Y-45736202D01*
X439270Y-45736173D01*
X442563Y-45742730D01*
X484232Y-45806084D01*
X486171Y-45809127D01*
X522855Y-45868601D01*
X525972Y-45873654D01*
X530522Y-45879408D01*
X530468Y-45879450D01*
X535228Y-45885292D01*
X535279Y-45885250D01*
X539997Y-45890872D01*
X595155Y-45942911D01*
X597784Y-45945465D01*
X9464595Y-54812276D01*
X9498621Y-54874588D01*
X9501500Y-54901371D01*
X9501500Y-56239608D01*
X9494802Y-56280144D01*
X9455406Y-56396091D01*
X9453839Y-56400438D01*
X9391027Y-56565202D01*
X9388867Y-56570504D01*
X9347010Y-56666900D01*
X9301531Y-56721417D01*
X9233797Y-56742693D01*
X9165313Y-56723971D01*
X9152495Y-56714921D01*
X9024982Y-56612423D01*
X9024980Y-56612422D01*
X8864023Y-56532595D01*
X8689664Y-56489234D01*
X8649343Y-56486500D01*
X8649334Y-56486500D01*
X7870666Y-56486500D01*
X7870657Y-56486500D01*
X7830336Y-56489234D01*
X7830333Y-56489234D01*
X7655976Y-56532595D01*
X7495019Y-56612422D01*
X7495017Y-56612423D01*
X7354981Y-56724987D01*
X7350154Y-56729815D01*
X7348251Y-56727912D01*
X7299918Y-56761547D01*
X7228969Y-56764156D01*
X7170256Y-56729404D01*
X7169846Y-56729815D01*
X7168245Y-56728214D01*
X7167873Y-56727994D01*
X7166885Y-56726854D01*
X7165018Y-56724987D01*
X7024982Y-56612423D01*
X7024980Y-56612422D01*
X6864023Y-56532595D01*
X6689664Y-56489234D01*
X6649343Y-56486500D01*
X6649334Y-56486500D01*
X5870666Y-56486500D01*
X5870657Y-56486500D01*
X5830336Y-56489234D01*
X5830333Y-56489234D01*
X5655976Y-56532595D01*
X5495019Y-56612422D01*
X5495017Y-56612423D01*
X5354981Y-56724987D01*
X5350154Y-56729815D01*
X5348361Y-56728022D01*
X5299547Y-56761962D01*
X5228597Y-56764542D01*
X5169895Y-56729765D01*
X5169490Y-56730171D01*
X5167905Y-56728586D01*
X5167515Y-56728355D01*
X5166488Y-56727169D01*
X5164662Y-56725343D01*
X5024713Y-56612849D01*
X5024704Y-56612843D01*
X4863848Y-56533067D01*
X4689601Y-56489734D01*
X4689594Y-56489733D01*
X4649293Y-56487000D01*
X4514000Y-56487000D01*
X4514000Y-60453000D01*
X4649293Y-60453000D01*
X4689594Y-60450266D01*
X4689601Y-60450265D01*
X4863848Y-60406932D01*
X5024704Y-60327156D01*
X5024713Y-60327150D01*
X5164662Y-60214656D01*
X5169490Y-60209829D01*
X5171391Y-60211730D01*
X5219687Y-60178078D01*
X5290634Y-60175425D01*
X5349889Y-60210449D01*
X5350154Y-60210185D01*
X5351182Y-60211213D01*
X5351752Y-60211550D01*
X5353274Y-60213305D01*
X5354981Y-60215012D01*
X5495017Y-60327576D01*
X5495019Y-60327577D01*
X5655977Y-60407405D01*
X5830332Y-60450765D01*
X5840415Y-60451448D01*
X5870657Y-60453500D01*
X5870666Y-60453500D01*
X6649343Y-60453500D01*
X6675263Y-60451741D01*
X6689668Y-60450765D01*
X6864023Y-60407405D01*
X7024981Y-60327577D01*
X7165015Y-60215015D01*
X7165016Y-60215013D01*
X7165018Y-60215012D01*
X7169846Y-60210185D01*
X7171754Y-60212093D01*
X7220038Y-60178467D01*
X7290986Y-60175831D01*
X7349753Y-60210585D01*
X7350154Y-60210185D01*
X7351714Y-60211745D01*
X7352096Y-60211971D01*
X7353107Y-60213138D01*
X7354981Y-60215012D01*
X7495017Y-60327576D01*
X7495019Y-60327577D01*
X7655977Y-60407405D01*
X7830332Y-60450765D01*
X7840415Y-60451448D01*
X7870657Y-60453500D01*
X7870666Y-60453500D01*
X8649343Y-60453500D01*
X8675263Y-60451741D01*
X8689668Y-60450765D01*
X8864023Y-60407405D01*
X9024981Y-60327577D01*
X9107219Y-60261471D01*
X9172843Y-60234385D01*
X9242696Y-60247076D01*
X9294599Y-60295518D01*
X9307954Y-60327402D01*
X9324351Y-60389276D01*
X9322466Y-60460248D01*
X9320724Y-60465280D01*
X9300779Y-60519180D01*
X9298799Y-60524198D01*
X9249546Y-60641597D01*
X9246760Y-60647768D01*
X9202695Y-60738764D01*
X9198635Y-60746459D01*
X9152227Y-60827503D01*
X9152219Y-60827518D01*
X9149661Y-60833151D01*
X9142190Y-60847173D01*
X9132886Y-60862258D01*
X9125398Y-60884855D01*
X9120518Y-60897318D01*
X9112474Y-60915029D01*
X9111065Y-60919108D01*
X9109612Y-60923376D01*
X9109607Y-60923396D01*
X9107455Y-60935147D01*
X9103122Y-60952080D01*
X9077113Y-61030572D01*
X9077112Y-61030573D01*
X9066500Y-61134446D01*
X9066500Y-62535544D01*
X9077112Y-62639425D01*
X9132885Y-62807738D01*
X9225970Y-62958652D01*
X9225975Y-62958658D01*
X9351341Y-63084024D01*
X9351347Y-63084029D01*
X9351348Y-63084030D01*
X9502262Y-63177115D01*
X9670574Y-63232887D01*
X9774455Y-63243500D01*
X10525544Y-63243499D01*
X10629426Y-63232887D01*
X10797738Y-63177115D01*
X10948652Y-63084030D01*
X11074030Y-62958652D01*
X11167115Y-62807738D01*
X11222887Y-62639426D01*
X11233500Y-62535545D01*
X11233500Y-62089000D01*
X12017000Y-62089000D01*
X12017000Y-62535516D01*
X12027605Y-62639318D01*
X12027606Y-62639321D01*
X12083342Y-62807525D01*
X12176365Y-62958339D01*
X12176370Y-62958345D01*
X12301654Y-63083629D01*
X12301660Y-63083634D01*
X12452474Y-63176657D01*
X12620678Y-63232393D01*
X12620681Y-63232394D01*
X12724483Y-63242999D01*
X12724483Y-63243000D01*
X12846000Y-63243000D01*
X12846000Y-62089000D01*
X13354000Y-62089000D01*
X13354000Y-63243000D01*
X13475517Y-63243000D01*
X13475516Y-63242999D01*
X13579318Y-63232394D01*
X13579321Y-63232393D01*
X13747525Y-63176657D01*
X13898339Y-63083634D01*
X13898345Y-63083629D01*
X14023629Y-62958345D01*
X14023634Y-62958339D01*
X14116657Y-62807525D01*
X14172393Y-62639321D01*
X14172394Y-62639318D01*
X14182999Y-62535516D01*
X14183000Y-62535516D01*
X14183000Y-62089000D01*
X13354000Y-62089000D01*
X12846000Y-62089000D01*
X12017000Y-62089000D01*
X11233500Y-62089000D01*
X11233499Y-61134456D01*
X11222887Y-61030574D01*
X11205589Y-60978370D01*
X11202952Y-60968063D01*
X11201612Y-60963389D01*
X11201611Y-60963383D01*
X11196903Y-60951502D01*
X11194437Y-60944718D01*
X11187372Y-60923396D01*
X11167115Y-60862262D01*
X11157349Y-60846430D01*
X11149859Y-60831495D01*
X11149724Y-60831561D01*
X11147773Y-60827510D01*
X11147771Y-60827504D01*
X11101385Y-60746500D01*
X11097323Y-60738803D01*
X11078721Y-60700390D01*
X11053225Y-60647738D01*
X11050440Y-60641570D01*
X11016333Y-60560272D01*
X11008424Y-60489717D01*
X11019117Y-60456615D01*
X11024383Y-60445740D01*
X11027696Y-60439376D01*
X11092588Y-60322996D01*
X11097292Y-60315237D01*
X11152454Y-60231274D01*
X11161055Y-60220719D01*
X11160675Y-60220414D01*
X11161746Y-60219080D01*
X11163241Y-60218037D01*
X11168737Y-60211294D01*
X11169909Y-60210124D01*
X11171831Y-60212050D01*
X11219990Y-60178483D01*
X11290937Y-60175819D01*
X11349762Y-60210576D01*
X11350154Y-60210185D01*
X11351677Y-60211708D01*
X11352061Y-60211935D01*
X11353087Y-60213118D01*
X11354981Y-60215012D01*
X11495017Y-60327576D01*
X11495019Y-60327577D01*
X11655977Y-60407405D01*
X11830332Y-60450765D01*
X11840415Y-60451448D01*
X11870657Y-60453500D01*
X12130335Y-60453500D01*
X12198456Y-60473502D01*
X12244949Y-60527158D01*
X12255053Y-60597432D01*
X12225559Y-60662012D01*
X12219430Y-60668595D01*
X12176370Y-60711654D01*
X12176365Y-60711660D01*
X12083342Y-60862474D01*
X12027606Y-61030678D01*
X12027605Y-61030681D01*
X12017000Y-61134483D01*
X12017000Y-61581000D01*
X14183000Y-61581000D01*
X14183000Y-61134483D01*
X14172394Y-61030681D01*
X14172393Y-61030678D01*
X14116657Y-60862474D01*
X14023634Y-60711660D01*
X14023629Y-60711654D01*
X13980570Y-60668595D01*
X13946544Y-60606283D01*
X13951609Y-60535468D01*
X13994156Y-60478632D01*
X14060676Y-60453821D01*
X14069665Y-60453500D01*
X14649343Y-60453500D01*
X14675263Y-60451741D01*
X14689668Y-60450765D01*
X14864023Y-60407405D01*
X15024981Y-60327577D01*
X15165015Y-60215015D01*
X15165016Y-60215013D01*
X15165018Y-60215012D01*
X15169846Y-60210185D01*
X15171754Y-60212093D01*
X15220038Y-60178467D01*
X15290986Y-60175831D01*
X15349753Y-60210585D01*
X15350154Y-60210185D01*
X15351714Y-60211745D01*
X15352096Y-60211971D01*
X15353107Y-60213138D01*
X15354981Y-60215012D01*
X15495017Y-60327576D01*
X15495019Y-60327577D01*
X15655977Y-60407405D01*
X15830332Y-60450765D01*
X15840415Y-60451448D01*
X15870657Y-60453500D01*
X15870666Y-60453500D01*
X16649343Y-60453500D01*
X16675263Y-60451741D01*
X16689668Y-60450765D01*
X16864023Y-60407405D01*
X17024981Y-60327577D01*
X17165015Y-60215015D01*
X17277577Y-60074981D01*
X17357405Y-59914023D01*
X17400765Y-59739668D01*
X17401741Y-59725263D01*
X17403500Y-59699343D01*
X17403500Y-57240656D01*
X17400765Y-57200336D01*
X17400765Y-57200333D01*
X17400765Y-57200332D01*
X17357405Y-57025977D01*
X17277577Y-56865019D01*
X17277576Y-56865017D01*
X17165015Y-56724984D01*
X17024982Y-56612423D01*
X17024980Y-56612422D01*
X16864023Y-56532595D01*
X16689664Y-56489234D01*
X16649343Y-56486500D01*
X16649334Y-56486500D01*
X15870666Y-56486500D01*
X15870657Y-56486500D01*
X15830336Y-56489234D01*
X15830333Y-56489234D01*
X15655976Y-56532595D01*
X15495019Y-56612422D01*
X15495017Y-56612423D01*
X15354981Y-56724987D01*
X15350154Y-56729815D01*
X15348251Y-56727912D01*
X15299918Y-56761547D01*
X15228969Y-56764156D01*
X15170256Y-56729404D01*
X15169846Y-56729815D01*
X15168245Y-56728214D01*
X15167873Y-56727994D01*
X15166885Y-56726854D01*
X15165018Y-56724987D01*
X15024982Y-56612423D01*
X15024980Y-56612422D01*
X14864023Y-56532595D01*
X14689664Y-56489234D01*
X14649343Y-56486500D01*
X14649334Y-56486500D01*
X13870666Y-56486500D01*
X13870657Y-56486500D01*
X13830336Y-56489234D01*
X13830333Y-56489234D01*
X13655976Y-56532595D01*
X13495019Y-56612422D01*
X13495018Y-56612423D01*
X13367502Y-56714922D01*
X13301877Y-56742010D01*
X13232024Y-56729317D01*
X13180122Y-56680875D01*
X13172989Y-56666900D01*
X13131134Y-56570510D01*
X13128985Y-56565240D01*
X13066145Y-56400404D01*
X13064592Y-56396091D01*
X13025198Y-56280145D01*
X13018500Y-56239611D01*
X13018500Y-52178605D01*
X13038502Y-52110484D01*
X13055405Y-52089510D01*
X17103694Y-48041221D01*
X17103698Y-48041217D01*
X17170801Y-47956351D01*
X17228742Y-47915321D01*
X17269638Y-47908500D01*
X18466522Y-47908500D01*
X18534643Y-47928502D01*
X18581136Y-47982158D01*
X18591240Y-48052432D01*
X18588666Y-48065431D01*
X18535437Y-48275624D01*
X18516844Y-48500000D01*
X18535437Y-48724375D01*
X18590702Y-48942612D01*
X18590703Y-48942613D01*
X18681141Y-49148793D01*
X18804275Y-49337265D01*
X18804279Y-49337270D01*
X18956762Y-49502908D01*
X19011331Y-49545381D01*
X19134424Y-49641189D01*
X19167680Y-49659186D01*
X19218071Y-49709200D01*
X19233423Y-49778516D01*
X19208862Y-49845129D01*
X19167680Y-49880813D01*
X19134426Y-49898810D01*
X19134424Y-49898811D01*
X18956762Y-50037091D01*
X18804279Y-50202729D01*
X18804275Y-50202734D01*
X18681141Y-50391206D01*
X18590703Y-50597386D01*
X18590702Y-50597387D01*
X18535437Y-50815624D01*
X18535436Y-50815630D01*
X18535436Y-50815632D01*
X18516844Y-51040000D01*
X18534232Y-51249844D01*
X18535437Y-51264375D01*
X18590702Y-51482612D01*
X18590703Y-51482613D01*
X18590704Y-51482616D01*
X18681140Y-51688791D01*
X18681141Y-51688793D01*
X18804275Y-51877265D01*
X18804279Y-51877270D01*
X18956762Y-52042908D01*
X19011331Y-52085381D01*
X19134424Y-52181189D01*
X19167153Y-52198901D01*
X19167680Y-52199186D01*
X19218071Y-52249200D01*
X19233423Y-52318516D01*
X19208862Y-52385129D01*
X19167680Y-52420813D01*
X19134426Y-52438810D01*
X19134424Y-52438811D01*
X18956762Y-52577091D01*
X18804279Y-52742729D01*
X18804275Y-52742734D01*
X18681141Y-52931206D01*
X18590703Y-53137386D01*
X18590702Y-53137387D01*
X18535437Y-53355624D01*
X18516844Y-53580000D01*
X18535437Y-53804375D01*
X18590702Y-54022612D01*
X18590703Y-54022613D01*
X18590704Y-54022616D01*
X18673890Y-54212262D01*
X18681141Y-54228793D01*
X18804275Y-54417265D01*
X18804279Y-54417270D01*
X18956762Y-54582908D01*
X18966208Y-54590260D01*
X19134424Y-54721189D01*
X19167680Y-54739186D01*
X19218071Y-54789200D01*
X19233423Y-54858516D01*
X19208862Y-54925129D01*
X19167680Y-54960813D01*
X19134426Y-54978810D01*
X19134424Y-54978811D01*
X18956762Y-55117091D01*
X18804279Y-55282729D01*
X18804275Y-55282734D01*
X18681141Y-55471206D01*
X18590703Y-55677386D01*
X18590702Y-55677387D01*
X18535437Y-55895624D01*
X18535436Y-55895630D01*
X18535436Y-55895632D01*
X18516844Y-56120000D01*
X18530114Y-56280145D01*
X18535437Y-56344375D01*
X18590702Y-56562612D01*
X18590703Y-56562613D01*
X18590704Y-56562616D01*
X18677963Y-56761547D01*
X18681141Y-56768793D01*
X18804275Y-56957265D01*
X18804279Y-56957270D01*
X18956762Y-57122908D01*
X19011331Y-57165381D01*
X19134424Y-57261189D01*
X19168205Y-57279470D01*
X19218596Y-57329482D01*
X19233949Y-57398799D01*
X19209389Y-57465412D01*
X19168209Y-57501096D01*
X19134704Y-57519228D01*
X19134698Y-57519232D01*
X18957097Y-57657465D01*
X18804674Y-57823041D01*
X18681580Y-58011451D01*
X18591179Y-58217543D01*
X18591176Y-58217550D01*
X18543455Y-58405999D01*
X18543456Y-58406000D01*
X19448884Y-58406000D01*
X19420507Y-58450156D01*
X19380000Y-58588111D01*
X19380000Y-58731889D01*
X19420507Y-58869844D01*
X19448884Y-58914000D01*
X18543455Y-58914000D01*
X18591176Y-59102449D01*
X18591179Y-59102456D01*
X18681580Y-59308548D01*
X18804674Y-59496958D01*
X18957097Y-59662534D01*
X19134698Y-59800767D01*
X19134699Y-59800768D01*
X19332628Y-59907882D01*
X19332630Y-59907883D01*
X19545483Y-59980955D01*
X19545492Y-59980957D01*
X19626000Y-59994391D01*
X19626000Y-59093674D01*
X19737685Y-59144680D01*
X19844237Y-59160000D01*
X19915763Y-59160000D01*
X20022315Y-59144680D01*
X20134000Y-59093674D01*
X20134000Y-59994390D01*
X20214507Y-59980957D01*
X20214516Y-59980955D01*
X20427369Y-59907883D01*
X20427371Y-59907882D01*
X20625300Y-59800768D01*
X20625301Y-59800767D01*
X20802902Y-59662534D01*
X20955327Y-59496955D01*
X21044217Y-59360899D01*
X21098220Y-59314810D01*
X21168568Y-59305235D01*
X21232925Y-59335212D01*
X21255183Y-59360898D01*
X21344279Y-59497270D01*
X21496762Y-59662908D01*
X21543562Y-59699334D01*
X21674424Y-59801189D01*
X21872426Y-59908342D01*
X21872427Y-59908342D01*
X21872428Y-59908343D01*
X21975438Y-59943706D01*
X22085365Y-59981444D01*
X22307431Y-60018500D01*
X22307435Y-60018500D01*
X22532565Y-60018500D01*
X22532569Y-60018500D01*
X22754635Y-59981444D01*
X22967574Y-59908342D01*
X23165576Y-59801189D01*
X23343240Y-59662906D01*
X23495722Y-59497268D01*
X23495927Y-59496955D01*
X23584816Y-59360899D01*
X23618860Y-59308791D01*
X23709296Y-59102616D01*
X23764564Y-58884368D01*
X23783156Y-58660000D01*
X23764564Y-58435632D01*
X23709338Y-58217550D01*
X23709297Y-58217387D01*
X23709296Y-58217386D01*
X23709296Y-58217384D01*
X23618860Y-58011209D01*
X23584816Y-57959100D01*
X23495724Y-57822734D01*
X23495720Y-57822729D01*
X23379570Y-57696559D01*
X23343240Y-57657094D01*
X23343239Y-57657093D01*
X23343237Y-57657091D01*
X23261382Y-57593381D01*
X23165576Y-57518811D01*
X23132319Y-57500813D01*
X23081929Y-57450802D01*
X23066576Y-57381485D01*
X23091136Y-57314872D01*
X23132320Y-57279186D01*
X23165576Y-57261189D01*
X23343240Y-57122906D01*
X23495722Y-56957268D01*
X23618860Y-56768791D01*
X23709296Y-56562616D01*
X23764564Y-56344368D01*
X23783156Y-56120000D01*
X23764564Y-55895632D01*
X23709296Y-55677384D01*
X23618860Y-55471209D01*
X23612140Y-55460924D01*
X23495724Y-55282734D01*
X23495720Y-55282729D01*
X23343237Y-55117091D01*
X23261382Y-55053381D01*
X23165576Y-54978811D01*
X23132319Y-54960813D01*
X23081929Y-54910802D01*
X23066576Y-54841485D01*
X23091136Y-54774872D01*
X23132320Y-54739186D01*
X23165576Y-54721189D01*
X23343240Y-54582906D01*
X23495722Y-54417268D01*
X23618860Y-54228791D01*
X23709296Y-54022616D01*
X23764564Y-53804368D01*
X23783156Y-53580000D01*
X23764564Y-53355632D01*
X23709296Y-53137384D01*
X23618860Y-52931209D01*
X23612140Y-52920924D01*
X23495724Y-52742734D01*
X23495720Y-52742729D01*
X23343237Y-52577091D01*
X23261382Y-52513381D01*
X23165576Y-52438811D01*
X23131792Y-52420528D01*
X23081402Y-52370516D01*
X23066050Y-52301199D01*
X23090610Y-52234586D01*
X23131793Y-52198901D01*
X23165300Y-52180767D01*
X23165301Y-52180767D01*
X23342902Y-52042534D01*
X23495325Y-51876958D01*
X23618419Y-51688548D01*
X23708820Y-51482456D01*
X23708823Y-51482449D01*
X23756544Y-51294000D01*
X22851116Y-51294000D01*
X22879493Y-51249844D01*
X22920000Y-51111889D01*
X22920000Y-50968111D01*
X22879493Y-50830156D01*
X22851116Y-50786000D01*
X23756544Y-50786000D01*
X23756544Y-50785999D01*
X23708823Y-50597550D01*
X23708820Y-50597543D01*
X23618419Y-50391451D01*
X23495325Y-50203041D01*
X23342902Y-50037465D01*
X23165301Y-49899232D01*
X23165300Y-49899231D01*
X23131791Y-49881097D01*
X23081401Y-49831083D01*
X23066050Y-49761766D01*
X23090612Y-49695153D01*
X23131790Y-49659472D01*
X23165576Y-49641189D01*
X23343240Y-49502906D01*
X23495722Y-49337268D01*
X23618860Y-49148791D01*
X23709296Y-48942616D01*
X23764564Y-48724368D01*
X23783156Y-48500000D01*
X23764564Y-48275632D01*
X23709296Y-48057384D01*
X23618860Y-47851209D01*
X23584516Y-47798642D01*
X23495724Y-47662734D01*
X23495720Y-47662729D01*
X23343237Y-47497091D01*
X23261382Y-47433381D01*
X23165576Y-47358811D01*
X23131792Y-47340528D01*
X23081402Y-47290516D01*
X23066050Y-47221199D01*
X23090610Y-47154586D01*
X23131793Y-47118901D01*
X23165300Y-47100767D01*
X23165301Y-47100767D01*
X23342902Y-46962534D01*
X23495325Y-46796958D01*
X23618419Y-46608548D01*
X23708820Y-46402456D01*
X23708823Y-46402449D01*
X23756544Y-46214000D01*
X22851116Y-46214000D01*
X22879493Y-46169844D01*
X22920000Y-46031889D01*
X22920000Y-45888111D01*
X22879493Y-45750156D01*
X22851116Y-45706000D01*
X23756544Y-45706000D01*
X23756544Y-45705999D01*
X23708823Y-45517550D01*
X23708820Y-45517543D01*
X23618419Y-45311451D01*
X23495325Y-45123041D01*
X23342902Y-44957465D01*
X23165301Y-44819232D01*
X23165300Y-44819231D01*
X23131791Y-44801097D01*
X23081401Y-44751083D01*
X23066050Y-44681766D01*
X23090612Y-44615153D01*
X23131790Y-44579472D01*
X23165576Y-44561189D01*
X23343240Y-44422906D01*
X23495722Y-44257268D01*
X23618860Y-44068791D01*
X23709296Y-43862616D01*
X23764564Y-43644368D01*
X23783156Y-43420000D01*
X23764564Y-43195632D01*
X23709296Y-42977384D01*
X23618860Y-42771209D01*
X23612140Y-42760924D01*
X23495724Y-42582734D01*
X23495720Y-42582729D01*
X23343237Y-42417091D01*
X23261382Y-42353381D01*
X23165576Y-42278811D01*
X23165569Y-42278807D01*
X23151596Y-42271245D01*
X23101206Y-42221232D01*
X23085854Y-42151915D01*
X23110415Y-42085302D01*
X23139975Y-42056746D01*
X23143995Y-42053971D01*
X23145435Y-42052893D01*
X23176269Y-42027894D01*
X23325921Y-41896655D01*
X23331550Y-41892003D01*
X23343240Y-41882906D01*
X23346224Y-41879663D01*
X23354296Y-41871653D01*
X23362613Y-41864118D01*
X23363162Y-41863604D01*
X23411646Y-41811448D01*
X23411651Y-41811438D01*
X23415662Y-41806086D01*
X23415959Y-41806308D01*
X23425321Y-41793741D01*
X23495722Y-41717268D01*
X23618860Y-41528791D01*
X23709296Y-41322616D01*
X23764564Y-41104368D01*
X23783156Y-40880000D01*
X23764564Y-40655632D01*
X23723935Y-40495193D01*
X23709297Y-40437387D01*
X23709296Y-40437386D01*
X23709296Y-40437384D01*
X23618860Y-40231209D01*
X23591814Y-40189812D01*
X23536105Y-40104542D01*
X23515592Y-40036574D01*
X23535081Y-39968305D01*
X23552489Y-39946536D01*
X24094386Y-39404639D01*
X24107129Y-39394432D01*
X24106969Y-39394238D01*
X24113075Y-39389185D01*
X24113080Y-39389183D01*
X24161638Y-39337472D01*
X24164298Y-39334727D01*
X24184927Y-39314100D01*
X24187642Y-39310598D01*
X24195346Y-39301576D01*
X24226972Y-39267900D01*
X24237310Y-39249094D01*
X24248152Y-39232590D01*
X24261304Y-39215635D01*
X24279653Y-39173233D01*
X24284877Y-39162570D01*
X24307123Y-39122106D01*
X24307124Y-39122104D01*
X24312457Y-39101329D01*
X24318856Y-39082636D01*
X24327380Y-39062943D01*
X24334609Y-39017288D01*
X24337009Y-39005703D01*
X24348500Y-38960955D01*
X24348500Y-38939508D01*
X24350051Y-38919797D01*
X24353406Y-38898615D01*
X24349059Y-38852626D01*
X24348500Y-38840769D01*
X24348500Y-37156611D01*
X24350292Y-37140382D01*
X24350042Y-37140359D01*
X24350788Y-37132465D01*
X24348562Y-37061629D01*
X24348500Y-37057671D01*
X24348500Y-37028576D01*
X24348500Y-37028568D01*
X24347942Y-37024157D01*
X24347012Y-37012333D01*
X24346914Y-37009200D01*
X24345562Y-36966169D01*
X24339579Y-36945576D01*
X24335571Y-36926218D01*
X24332882Y-36904939D01*
X24332882Y-36904936D01*
X24315869Y-36861966D01*
X24312030Y-36850751D01*
X24299145Y-36806400D01*
X24288226Y-36787939D01*
X24279528Y-36770182D01*
X24273142Y-36754051D01*
X24271635Y-36750244D01*
X24244477Y-36712864D01*
X24237965Y-36702951D01*
X24214452Y-36663193D01*
X24214451Y-36663192D01*
X24214450Y-36663190D01*
X24199291Y-36648031D01*
X24186450Y-36632998D01*
X24173841Y-36615643D01*
X24138231Y-36586184D01*
X24129461Y-36578202D01*
X23788139Y-36236880D01*
X23754113Y-36174568D01*
X23753114Y-36126103D01*
X23760705Y-36082650D01*
X23764314Y-36058660D01*
X23764454Y-36057552D01*
X23766965Y-36032919D01*
X23780982Y-35852332D01*
X23782130Y-35832660D01*
X23782165Y-35831765D01*
X23781937Y-35824996D01*
X23782296Y-35810368D01*
X23783156Y-35800000D01*
X23779948Y-35761299D01*
X23779676Y-35756604D01*
X23779237Y-35752717D01*
X23764564Y-35575632D01*
X23742692Y-35489263D01*
X23709297Y-35357387D01*
X23709296Y-35357386D01*
X23709296Y-35357384D01*
X23618860Y-35151209D01*
X23602677Y-35126439D01*
X23495724Y-34962734D01*
X23495720Y-34962729D01*
X23343237Y-34797091D01*
X23207267Y-34691261D01*
X23165576Y-34658811D01*
X23131792Y-34640528D01*
X23081402Y-34590516D01*
X23066050Y-34521199D01*
X23090610Y-34454586D01*
X23131793Y-34418901D01*
X23165300Y-34400767D01*
X23165301Y-34400767D01*
X23342902Y-34262534D01*
X23495325Y-34096958D01*
X23618419Y-33908548D01*
X23708820Y-33702456D01*
X23708823Y-33702449D01*
X23756544Y-33514000D01*
X22851116Y-33514000D01*
X22879493Y-33469844D01*
X22920000Y-33331889D01*
X22920000Y-33188111D01*
X22879493Y-33050156D01*
X22851116Y-33006000D01*
X23756544Y-33006000D01*
X23756544Y-33005999D01*
X23708823Y-32817550D01*
X23708820Y-32817543D01*
X23618419Y-32611451D01*
X23495325Y-32423041D01*
X23342902Y-32257465D01*
X23165301Y-32119232D01*
X23165300Y-32119231D01*
X23131791Y-32101097D01*
X23081401Y-32051083D01*
X23066050Y-31981766D01*
X23090612Y-31915153D01*
X23131790Y-31879472D01*
X23165576Y-31861189D01*
X23343240Y-31722906D01*
X23495722Y-31557268D01*
X23618860Y-31368791D01*
X23709296Y-31162616D01*
X23764564Y-30944368D01*
X23783156Y-30720000D01*
X23764564Y-30495632D01*
X23709296Y-30277384D01*
X23618860Y-30071209D01*
X23612140Y-30060924D01*
X23495724Y-29882734D01*
X23495720Y-29882729D01*
X23343237Y-29717091D01*
X23261382Y-29653381D01*
X23165576Y-29578811D01*
X23132319Y-29560813D01*
X23081929Y-29510802D01*
X23066576Y-29441485D01*
X23091136Y-29374872D01*
X23132320Y-29339186D01*
X23132322Y-29339185D01*
X23165576Y-29321189D01*
X23343240Y-29182906D01*
X23495722Y-29017268D01*
X23618860Y-28828791D01*
X23709296Y-28622616D01*
X23764564Y-28404368D01*
X23783156Y-28180000D01*
X23764564Y-27955632D01*
X23709296Y-27737384D01*
X23618860Y-27531209D01*
X23612140Y-27520924D01*
X23495724Y-27342734D01*
X23495720Y-27342729D01*
X23343237Y-27177091D01*
X23261382Y-27113381D01*
X23165576Y-27038811D01*
X23131792Y-27020528D01*
X23081402Y-26970516D01*
X23066050Y-26901199D01*
X23090610Y-26834586D01*
X23131793Y-26798901D01*
X23165300Y-26780767D01*
X23165301Y-26780767D01*
X23342902Y-26642534D01*
X23495325Y-26476958D01*
X23618419Y-26288548D01*
X23708820Y-26082456D01*
X23708823Y-26082449D01*
X23756544Y-25894000D01*
X22851116Y-25894000D01*
X22879493Y-25849844D01*
X22920000Y-25711889D01*
X22920000Y-25568111D01*
X22879493Y-25430156D01*
X22851116Y-25386000D01*
X23756544Y-25386000D01*
X23756544Y-25385999D01*
X23708823Y-25197550D01*
X23708820Y-25197543D01*
X23618419Y-24991451D01*
X23495325Y-24803041D01*
X23342902Y-24637465D01*
X23165301Y-24499232D01*
X23165300Y-24499231D01*
X23131791Y-24481097D01*
X23081401Y-24431083D01*
X23066050Y-24361766D01*
X23090612Y-24295153D01*
X23131790Y-24259472D01*
X23165576Y-24241189D01*
X23343240Y-24102906D01*
X23495722Y-23937268D01*
X23618860Y-23748791D01*
X23709296Y-23542616D01*
X23764564Y-23324368D01*
X23783156Y-23100000D01*
X23764564Y-22875632D01*
X23709296Y-22657384D01*
X23618860Y-22451209D01*
X23612140Y-22440924D01*
X23495724Y-22262734D01*
X23495720Y-22262729D01*
X23343237Y-22097091D01*
X23261382Y-22033381D01*
X23165576Y-21958811D01*
X23132319Y-21940813D01*
X23081929Y-21890802D01*
X23066576Y-21821485D01*
X23091136Y-21754872D01*
X23132320Y-21719186D01*
X23165576Y-21701189D01*
X23343240Y-21562906D01*
X23495722Y-21397268D01*
X23618860Y-21208791D01*
X23709296Y-21002616D01*
X23764564Y-20784368D01*
X23783156Y-20560000D01*
X23764564Y-20335632D01*
X23709296Y-20117384D01*
X23618860Y-19911209D01*
X23592969Y-19871580D01*
X23495724Y-19722734D01*
X23495720Y-19722729D01*
X23343237Y-19557091D01*
X23261382Y-19493381D01*
X23165576Y-19418811D01*
X23132319Y-19400813D01*
X23081929Y-19350802D01*
X23066576Y-19281485D01*
X23091136Y-19214872D01*
X23132320Y-19179186D01*
X23165576Y-19161189D01*
X23343240Y-19022906D01*
X23495722Y-18857268D01*
X23618860Y-18668791D01*
X23709296Y-18462616D01*
X23764564Y-18244368D01*
X23783156Y-18020000D01*
X23764564Y-17795632D01*
X23709296Y-17577384D01*
X23618860Y-17371209D01*
X23612140Y-17360924D01*
X23495724Y-17182734D01*
X23495720Y-17182729D01*
X23343237Y-17017091D01*
X23250101Y-16944600D01*
X23165576Y-16878811D01*
X23131792Y-16860528D01*
X23081402Y-16810516D01*
X23066050Y-16741199D01*
X23090610Y-16674586D01*
X23131793Y-16638901D01*
X23165300Y-16620767D01*
X23165301Y-16620767D01*
X23342902Y-16482534D01*
X23495325Y-16316958D01*
X23618419Y-16128548D01*
X23708820Y-15922456D01*
X23708823Y-15922449D01*
X23756544Y-15734000D01*
X22851116Y-15734000D01*
X22879493Y-15689844D01*
X22920000Y-15551889D01*
X22920000Y-15408111D01*
X22879493Y-15270156D01*
X22851116Y-15226000D01*
X23756544Y-15226000D01*
X23756544Y-15225999D01*
X23708823Y-15037550D01*
X23708820Y-15037543D01*
X23618419Y-14831451D01*
X23495325Y-14643041D01*
X23342902Y-14477465D01*
X23165301Y-14339232D01*
X23165300Y-14339231D01*
X23131791Y-14321097D01*
X23081401Y-14271083D01*
X23066050Y-14201766D01*
X23090612Y-14135153D01*
X23131790Y-14099472D01*
X23165576Y-14081189D01*
X23343240Y-13942906D01*
X23495722Y-13777268D01*
X23618860Y-13588791D01*
X23709296Y-13382616D01*
X23764564Y-13164368D01*
X23783156Y-12940000D01*
X23764564Y-12715632D01*
X23724807Y-12558634D01*
X23709297Y-12497387D01*
X23709296Y-12497386D01*
X23709296Y-12497384D01*
X23618860Y-12291209D01*
X23538264Y-12167849D01*
X23535177Y-12162872D01*
X23518214Y-12134053D01*
X23480263Y-12078310D01*
X23480261Y-12078307D01*
X23479676Y-12077558D01*
X23478380Y-12075899D01*
X23478361Y-12075878D01*
X23433368Y-12025526D01*
X23433358Y-12025515D01*
X23345889Y-11939725D01*
X23344191Y-11937971D01*
X23344071Y-11937860D01*
X23341306Y-11935229D01*
X23292596Y-11887453D01*
X23288467Y-11883514D01*
X23282314Y-11877643D01*
X23282292Y-11877622D01*
X23281883Y-11877242D01*
X23272355Y-11868620D01*
X23231899Y-11832924D01*
X23194053Y-11772855D01*
X23190733Y-11757637D01*
X23180188Y-11689185D01*
X23180188Y-11650823D01*
X23190734Y-11582364D01*
X23220873Y-11518086D01*
X23231898Y-11507074D01*
X23272312Y-11471416D01*
X23282110Y-11462544D01*
X23282562Y-11462124D01*
X23292592Y-11452548D01*
X23341207Y-11404862D01*
X23344158Y-11402062D01*
X23345934Y-11400227D01*
X23387768Y-11359196D01*
X23421651Y-11325962D01*
X23433359Y-11314479D01*
X23433363Y-11314475D01*
X23433366Y-11314472D01*
X23478371Y-11264108D01*
X23480261Y-11261690D01*
X23518208Y-11205953D01*
X23535182Y-11177116D01*
X23538267Y-11172146D01*
X23549025Y-11155681D01*
X23618860Y-11048791D01*
X23641058Y-10998181D01*
X23645720Y-10988665D01*
X23648030Y-10984412D01*
X23657894Y-10966253D01*
X23658616Y-10964807D01*
X23683141Y-10902473D01*
X23684989Y-10898029D01*
X23709296Y-10842616D01*
X23764564Y-10624368D01*
X23783156Y-10400000D01*
X23764564Y-10175632D01*
X23763525Y-10171530D01*
X23709297Y-9957387D01*
X23709296Y-9957386D01*
X23709296Y-9957384D01*
X23618860Y-9751209D01*
X23567076Y-9671947D01*
X23495724Y-9562734D01*
X23495720Y-9562729D01*
X23355661Y-9410587D01*
X23343240Y-9397094D01*
X23343239Y-9397093D01*
X23343237Y-9397091D01*
X23203306Y-9288178D01*
X23165576Y-9258811D01*
X22967574Y-9151658D01*
X22967572Y-9151657D01*
X22967571Y-9151656D01*
X22876079Y-9120248D01*
X22868375Y-9117317D01*
X22865680Y-9116190D01*
X22860990Y-9114228D01*
X22860983Y-9114226D01*
X22855742Y-9112869D01*
X22846424Y-9110067D01*
X22754639Y-9078557D01*
X22754620Y-9078552D01*
X22671768Y-9064727D01*
X22660927Y-9062424D01*
X22626664Y-9053553D01*
X22626641Y-9053548D01*
X22597756Y-9048061D01*
X22560466Y-9040978D01*
X22560448Y-9040975D01*
X22560437Y-9040974D01*
X22557451Y-9040607D01*
X22557443Y-9040606D01*
X22489933Y-9036808D01*
X22489928Y-9036808D01*
X22477170Y-9036931D01*
X22292751Y-9038717D01*
X22279681Y-9039009D01*
X22279168Y-9039027D01*
X22265163Y-9039710D01*
X22244940Y-9040974D01*
X22211276Y-9043077D01*
X22142041Y-9027363D01*
X22128929Y-9018946D01*
X22071906Y-8977148D01*
X22057307Y-8964626D01*
X21161101Y-8068420D01*
X21056906Y-7986033D01*
X20896206Y-7911097D01*
X20896204Y-7911096D01*
X20722559Y-7875241D01*
X20722558Y-7875241D01*
X20672683Y-7876692D01*
X20646741Y-7877447D01*
X20643077Y-7877500D01*
X17207727Y-7877500D01*
X17179297Y-7874251D01*
X17178547Y-7874077D01*
X17175772Y-7873434D01*
X17175764Y-7873433D01*
X17082246Y-7865486D01*
X17066001Y-7863031D01*
X16999582Y-7848508D01*
X16984627Y-7844256D01*
X16910355Y-7818088D01*
X16897148Y-7812573D01*
X16857031Y-7793076D01*
X16813466Y-7771902D01*
X16802180Y-7765684D01*
X16690930Y-7696742D01*
X16690926Y-7696740D01*
X16680519Y-7691680D01*
X16669468Y-7685605D01*
X16640740Y-7667885D01*
X16640737Y-7667884D01*
X16619870Y-7660969D01*
X16604424Y-7654688D01*
X16596610Y-7650889D01*
X16592186Y-7649274D01*
X16592169Y-7649268D01*
X16592147Y-7649260D01*
X16585973Y-7647096D01*
X16579408Y-7644795D01*
X16579403Y-7644794D01*
X16569350Y-7642953D01*
X16552422Y-7638620D01*
X16472423Y-7612112D01*
X16472424Y-7612112D01*
X16368553Y-7601500D01*
X16368545Y-7601500D01*
X16237436Y-7601500D01*
X16169315Y-7581498D01*
X16161521Y-7576062D01*
X16122109Y-7546299D01*
X16113281Y-7538977D01*
X16066574Y-7496503D01*
X16026897Y-7460421D01*
X16019886Y-7453526D01*
X15952701Y-7382069D01*
X15920613Y-7318739D01*
X15918500Y-7295761D01*
X15918500Y-6461655D01*
X15920128Y-6441463D01*
X15920676Y-6438087D01*
X15923624Y-6419930D01*
X15926538Y-6259357D01*
X15927148Y-6249053D01*
X15934082Y-6180222D01*
X15937214Y-6162282D01*
X15946778Y-6124079D01*
X15951196Y-6109998D01*
X15957987Y-6092098D01*
X15984939Y-6021059D01*
X15986458Y-6017247D01*
X15995466Y-5995671D01*
X16054651Y-5853909D01*
X16073344Y-5801242D01*
X16073344Y-5801239D01*
X16075424Y-5795380D01*
X16075787Y-5795509D01*
X16078962Y-5786174D01*
X16089296Y-5762616D01*
X16144564Y-5544368D01*
X16163156Y-5320000D01*
X16144564Y-5095632D01*
X16093769Y-4895048D01*
X16089297Y-4877387D01*
X16089296Y-4877386D01*
X16089296Y-4877384D01*
X15998860Y-4671209D01*
X15992140Y-4660924D01*
X15875724Y-4482734D01*
X15875720Y-4482729D01*
X15723237Y-4317091D01*
X15603679Y-4224035D01*
X15545576Y-4178811D01*
X15347574Y-4071658D01*
X15347572Y-4071657D01*
X15347571Y-4071656D01*
X15134639Y-3998557D01*
X15134630Y-3998555D01*
X15090476Y-3991187D01*
X14912569Y-3961500D01*
X14687431Y-3961500D01*
X14539211Y-3986233D01*
X14465369Y-3998555D01*
X14465360Y-3998557D01*
X14252428Y-4071656D01*
X14252426Y-4071658D01*
X14054426Y-4178810D01*
X14054424Y-4178811D01*
X13876762Y-4317091D01*
X13724279Y-4482729D01*
X13635483Y-4618643D01*
X13581479Y-4664731D01*
X13511131Y-4674306D01*
X13446774Y-4644329D01*
X13424517Y-4618643D01*
X13335720Y-4482729D01*
X13183237Y-4317091D01*
X13063679Y-4224035D01*
X13005576Y-4178811D01*
X12807574Y-4071658D01*
X12807572Y-4071657D01*
X12807571Y-4071656D01*
X12594639Y-3998557D01*
X12594630Y-3998555D01*
X12550476Y-3991187D01*
X12372569Y-3961500D01*
X12147431Y-3961500D01*
X11999211Y-3986233D01*
X11925369Y-3998555D01*
X11925360Y-3998557D01*
X11712428Y-4071656D01*
X11712426Y-4071658D01*
X11514426Y-4178810D01*
X11514424Y-4178811D01*
X11336762Y-4317091D01*
X11184279Y-4482729D01*
X11095483Y-4618643D01*
X11041479Y-4664731D01*
X10971131Y-4674306D01*
X10906774Y-4644329D01*
X10884517Y-4618643D01*
X10795720Y-4482729D01*
X10643237Y-4317091D01*
X10523679Y-4224035D01*
X10465576Y-4178811D01*
X10267574Y-4071658D01*
X10267572Y-4071657D01*
X10267571Y-4071656D01*
X10054639Y-3998557D01*
X10054630Y-3998555D01*
X10010476Y-3991187D01*
X9832569Y-3961500D01*
X9607431Y-3961500D01*
X9459211Y-3986233D01*
X9385369Y-3998555D01*
X9385360Y-3998557D01*
X9172428Y-4071656D01*
X9172426Y-4071658D01*
X8974426Y-4178810D01*
X8974424Y-4178811D01*
X8796762Y-4317091D01*
X8644279Y-4482729D01*
X8555483Y-4618643D01*
X8501479Y-4664731D01*
X8431131Y-4674306D01*
X8366774Y-4644329D01*
X8344517Y-4618643D01*
X8255720Y-4482729D01*
X8103237Y-4317091D01*
X7983679Y-4224035D01*
X7925576Y-4178811D01*
X7727574Y-4071658D01*
X7727572Y-4071657D01*
X7727571Y-4071656D01*
X7514639Y-3998557D01*
X7514630Y-3998555D01*
X7470476Y-3991187D01*
X7292569Y-3961500D01*
X7067431Y-3961500D01*
X6919211Y-3986233D01*
X6845369Y-3998555D01*
X6845360Y-3998557D01*
X6632428Y-4071656D01*
X6632426Y-4071658D01*
X6434426Y-4178810D01*
X6434424Y-4178811D01*
X6256759Y-4317094D01*
X6195374Y-4383775D01*
X6134521Y-4420346D01*
X6063557Y-4418211D01*
X6005012Y-4378049D01*
X5984618Y-4342470D01*
X5940443Y-4224033D01*
X5852904Y-4107095D01*
X5735965Y-4019555D01*
X5599093Y-3968505D01*
X5538597Y-3962000D01*
X4894000Y-3962000D01*
X4894000Y-4886325D01*
X4782315Y-4835320D01*
X4675763Y-4820000D01*
X4604237Y-4820000D01*
X4497685Y-4835320D01*
X4386000Y-4886325D01*
X4386000Y-3962000D01*
X3741402Y-3962000D01*
X3680906Y-3968505D01*
X3544035Y-4019555D01*
X3544034Y-4019555D01*
X3427095Y-4107095D01*
X3339555Y-4224034D01*
X3339555Y-4224035D01*
X3288505Y-4360906D01*
X3282000Y-4421402D01*
X3282000Y-5066000D01*
X4208884Y-5066000D01*
X4180507Y-5110156D01*
X4140000Y-5248111D01*
X4140000Y-5391889D01*
X4180507Y-5529844D01*
X4208884Y-5574000D01*
X3282000Y-5574000D01*
X3282000Y-6218597D01*
X3288505Y-6279093D01*
X3339555Y-6415964D01*
X3339555Y-6415965D01*
X3427095Y-6532904D01*
X3544034Y-6620444D01*
X3680906Y-6671494D01*
X3741402Y-6677999D01*
X3741415Y-6678000D01*
X4386000Y-6678000D01*
X4386000Y-5753674D01*
X4497685Y-5804680D01*
X4604237Y-5820000D01*
X4675763Y-5820000D01*
X4782315Y-5804680D01*
X4894000Y-5753674D01*
X4894000Y-6678000D01*
X5538585Y-6678000D01*
X5538597Y-6677999D01*
X5599093Y-6671494D01*
X5735964Y-6620444D01*
X5735965Y-6620444D01*
X5852904Y-6532904D01*
X5940444Y-6415965D01*
X5982796Y-6302414D01*
X6025343Y-6245578D01*
X6091863Y-6220767D01*
X6161237Y-6235858D01*
X6189081Y-6256493D01*
X6254196Y-6320360D01*
X6255949Y-6322168D01*
X6258781Y-6324856D01*
X6307424Y-6372566D01*
X6317614Y-6382289D01*
X6317889Y-6382544D01*
X6318074Y-6382716D01*
X6327630Y-6391366D01*
X6368098Y-6427074D01*
X6405943Y-6487143D01*
X6409263Y-6502364D01*
X6420030Y-6572239D01*
X6421500Y-6591428D01*
X6421500Y-9563326D01*
X6420170Y-9581586D01*
X6416659Y-9605553D01*
X6416659Y-9605562D01*
X6421020Y-9655400D01*
X6421500Y-9666383D01*
X6421500Y-9671952D01*
X6425135Y-9703056D01*
X6425507Y-9706699D01*
X6432111Y-9782185D01*
X6433596Y-9789373D01*
X6433531Y-9789386D01*
X6435165Y-9796756D01*
X6435229Y-9796742D01*
X6436921Y-9803883D01*
X6462846Y-9875109D01*
X6464049Y-9878571D01*
X6487884Y-9950502D01*
X6490987Y-9957155D01*
X6490926Y-9957183D01*
X6494211Y-9963969D01*
X6494270Y-9963940D01*
X6497563Y-9970497D01*
X6539232Y-10033851D01*
X6541171Y-10036894D01*
X6575291Y-10092210D01*
X6580972Y-10101421D01*
X6585522Y-10107175D01*
X6585468Y-10107217D01*
X6590228Y-10113059D01*
X6590279Y-10113017D01*
X6594997Y-10118639D01*
X6594998Y-10118640D01*
X6594999Y-10118641D01*
X6628046Y-10149819D01*
X6650155Y-10170678D01*
X6652784Y-10173232D01*
X17789009Y-21309457D01*
X17789012Y-21309459D01*
X17789016Y-21309463D01*
X17893211Y-21391850D01*
X17970864Y-21428061D01*
X17982676Y-21434353D01*
X17996099Y-21442446D01*
X18009208Y-21450352D01*
X18075096Y-21478197D01*
X18076836Y-21478933D01*
X18083262Y-21481863D01*
X18086655Y-21483528D01*
X18114121Y-21501810D01*
X18116098Y-21503539D01*
X18121495Y-21508545D01*
X18173229Y-21559436D01*
X18212779Y-21594523D01*
X18212784Y-21594526D01*
X18214721Y-21595934D01*
X18229735Y-21608761D01*
X18763313Y-22142339D01*
X18797339Y-22204651D01*
X18792274Y-22275466D01*
X18779701Y-22300349D01*
X18681141Y-22451206D01*
X18590703Y-22657386D01*
X18590702Y-22657387D01*
X18535437Y-22875624D01*
X18516844Y-23100000D01*
X18535437Y-23324375D01*
X18590702Y-23542612D01*
X18590703Y-23542613D01*
X18681141Y-23748793D01*
X18804275Y-23937265D01*
X18804279Y-23937270D01*
X18956762Y-24102908D01*
X19011331Y-24145381D01*
X19134424Y-24241189D01*
X19167680Y-24259186D01*
X19218071Y-24309200D01*
X19233423Y-24378516D01*
X19208862Y-24445129D01*
X19167680Y-24480813D01*
X19134426Y-24498810D01*
X19134424Y-24498811D01*
X18956762Y-24637091D01*
X18804279Y-24802729D01*
X18804275Y-24802734D01*
X18681141Y-24991206D01*
X18590703Y-25197386D01*
X18590702Y-25197387D01*
X18535437Y-25415624D01*
X18535436Y-25415630D01*
X18535436Y-25415632D01*
X18516844Y-25640000D01*
X18534232Y-25849844D01*
X18535437Y-25864375D01*
X18590702Y-26082612D01*
X18590703Y-26082613D01*
X18590704Y-26082616D01*
X18681140Y-26288791D01*
X18681141Y-26288793D01*
X18804275Y-26477265D01*
X18804279Y-26477270D01*
X18956762Y-26642908D01*
X19011331Y-26685381D01*
X19134424Y-26781189D01*
X19167153Y-26798901D01*
X19167680Y-26799186D01*
X19218071Y-26849200D01*
X19233423Y-26918516D01*
X19208862Y-26985129D01*
X19167680Y-27020813D01*
X19134426Y-27038810D01*
X19134424Y-27038811D01*
X18956762Y-27177091D01*
X18804279Y-27342729D01*
X18804275Y-27342734D01*
X18681141Y-27531206D01*
X18590703Y-27737386D01*
X18590702Y-27737387D01*
X18535437Y-27955624D01*
X18516844Y-28180000D01*
X18535437Y-28404375D01*
X18590702Y-28622612D01*
X18590703Y-28622613D01*
X18681141Y-28828793D01*
X18804275Y-29017265D01*
X18804279Y-29017270D01*
X18956762Y-29182908D01*
X19011331Y-29225381D01*
X19134424Y-29321189D01*
X19134430Y-29321192D01*
X19167678Y-29339185D01*
X19218069Y-29389197D01*
X19233422Y-29458514D01*
X19208862Y-29525127D01*
X19167682Y-29560811D01*
X19134430Y-29578806D01*
X19134420Y-29578813D01*
X19101663Y-29604308D01*
X19088202Y-29613453D01*
X19074059Y-29621779D01*
X19074032Y-29621796D01*
X19018407Y-29659656D01*
X19016003Y-29661534D01*
X18965513Y-29706640D01*
X18827416Y-29847438D01*
X18817738Y-29857579D01*
X18817414Y-29857928D01*
X18808617Y-29867645D01*
X18772920Y-29908100D01*
X18712851Y-29945944D01*
X18697632Y-29949263D01*
X18627758Y-29960030D01*
X18608569Y-29961500D01*
X10920441Y-29961500D01*
X10902182Y-29960170D01*
X10878212Y-29956659D01*
X10878211Y-29956659D01*
X10839681Y-29960030D01*
X10828354Y-29961021D01*
X10817373Y-29961500D01*
X10811816Y-29961500D01*
X10780713Y-29965135D01*
X10777070Y-29965507D01*
X10701575Y-29972112D01*
X10694389Y-29973596D01*
X10694376Y-29973533D01*
X10687003Y-29975168D01*
X10687018Y-29975231D01*
X10679881Y-29976922D01*
X10608633Y-30002853D01*
X10605176Y-30004055D01*
X10561155Y-30018643D01*
X10533262Y-30027886D01*
X10533260Y-30027886D01*
X10533260Y-30027887D01*
X10526612Y-30030987D01*
X10526583Y-30030926D01*
X10519792Y-30034214D01*
X10519822Y-30034273D01*
X10513269Y-30037563D01*
X10449920Y-30079229D01*
X10446830Y-30081197D01*
X10382351Y-30120968D01*
X10376588Y-30125525D01*
X10376547Y-30125473D01*
X10370704Y-30130233D01*
X10370746Y-30130283D01*
X10365128Y-30134996D01*
X10313087Y-30190156D01*
X10310534Y-30192783D01*
X8936586Y-31566731D01*
X8920122Y-31580596D01*
X8656773Y-31766372D01*
X8648722Y-31771604D01*
X8388631Y-31926853D01*
X8379345Y-31931880D01*
X8125644Y-32055782D01*
X8115091Y-32060352D01*
X7867687Y-32154325D01*
X7855939Y-32158140D01*
X7794368Y-32174845D01*
X7645978Y-32215104D01*
X7612988Y-32219500D01*
X7199350Y-32219500D01*
X7138803Y-32226009D01*
X7138795Y-32226011D01*
X7001797Y-32277110D01*
X7001792Y-32277112D01*
X6884738Y-32364738D01*
X6797112Y-32481792D01*
X6797110Y-32481797D01*
X6746011Y-32618795D01*
X6746009Y-32618803D01*
X6739500Y-32679350D01*
X6739500Y-33060646D01*
X6730437Y-33107570D01*
X6626913Y-33365559D01*
X6625282Y-33369434D01*
X6486166Y-33685207D01*
X6484079Y-33689702D01*
X6347686Y-33968981D01*
X6344971Y-33974225D01*
X6212370Y-34216273D01*
X6208773Y-34222421D01*
X6096817Y-34401903D01*
X6079005Y-34424312D01*
X634225Y-39869092D01*
X620376Y-39881062D01*
X600943Y-39895529D01*
X568771Y-39933870D01*
X561360Y-39941958D01*
X557420Y-39945898D01*
X557414Y-39945905D01*
X537997Y-39970460D01*
X535689Y-39973294D01*
X486964Y-40031364D01*
X482935Y-40037491D01*
X482880Y-40037455D01*
X478825Y-40043820D01*
X478882Y-40043855D01*
X475030Y-40050098D01*
X442996Y-40118794D01*
X441401Y-40122087D01*
X407394Y-40189805D01*
X404882Y-40196707D01*
X404820Y-40196684D01*
X402343Y-40203810D01*
X402404Y-40203831D01*
X400096Y-40210795D01*
X384759Y-40285064D01*
X383967Y-40288637D01*
X366500Y-40362340D01*
X365648Y-40369634D01*
X365581Y-40369626D01*
X364814Y-40377126D01*
X364881Y-40377132D01*
X364241Y-40384442D01*
X366447Y-40460258D01*
X366500Y-40463922D01*
X366500Y-45335559D01*
X365170Y-45353819D01*
X361659Y-45377786D01*
X361659Y-45377795D01*
X500Y-45377795D01*
X500Y-126500D01*
X20502Y-58379D01*
X74158Y-11886D01*
X126500Y-500D01*
X18865910Y-500D01*
X18934031Y-20502D01*
G37*
%TD.AperFunction*%
%TD*%
%TA.AperFunction,Conductor*%
%TO.N,GND*%
G36*
X6166031Y-4200000D02*
G01*
X6030824Y-4419558D01*
X5895618Y-4681117D01*
X5760412Y-4984675D01*
X5625206Y-5330234D01*
X5490000Y-5717793D01*
X4639000Y-5320000D01*
X4331727Y-4470000D01*
X4698587Y-4440000D01*
X5065448Y-4368000D01*
X5432309Y-4254000D01*
X5799170Y-4098000D01*
X6166031Y-3900000D01*
X6166031Y-4200000D01*
G37*
%TD.AperFunction*%
%TD*%
%TA.AperFunction,Conductor*%
%TO.N,GND*%
G36*
X21826195Y-14643333D02*
G01*
X21949946Y-14680108D01*
X22076442Y-14671207D01*
X22226266Y-14645036D01*
X22420000Y-14630000D01*
X22420707Y-15480707D01*
X21570000Y-15480000D01*
X21585036Y-15286266D01*
X21611207Y-15136442D01*
X21620108Y-15009946D01*
X21583333Y-14886195D01*
X21472477Y-14744609D01*
X21684609Y-14532477D01*
X21826195Y-14643333D01*
G37*
%TD.AperFunction*%
%TD*%
%TA.AperFunction,Conductor*%
%TO.N,GND*%
G36*
X2895000Y-44577500D02*
G01*
X2879015Y-44669673D01*
X2863031Y-44781804D01*
X2847046Y-44913893D01*
X2831062Y-45065940D01*
X2815078Y-45237946D01*
X2602946Y-45450078D01*
X2472755Y-45287733D01*
X2342565Y-45151053D01*
X2212375Y-45040038D01*
X2082185Y-44954686D01*
X1951995Y-44895000D01*
X2259293Y-43419293D01*
X2895000Y-44577500D01*
G37*
%TD.AperFunction*%
%TD*%
%TA.AperFunction,Conductor*%
%TO.N,+3V3*%
G36*
X10399822Y-60363427D02*
G01*
X10402656Y-60368023D01*
X10461192Y-60544859D01*
X10522388Y-60710233D01*
X10583575Y-60856081D01*
X10583600Y-60856135D01*
X10644768Y-60982447D01*
X10644790Y-60982490D01*
X10702160Y-61082676D01*
X10703298Y-61091558D01*
X10701391Y-61095478D01*
X10159384Y-61823397D01*
X10151695Y-61827986D01*
X10143012Y-61825793D01*
X10140616Y-61823397D01*
X10008176Y-61645529D01*
X9598607Y-61095476D01*
X9596415Y-61086795D01*
X9597837Y-61082678D01*
X9655224Y-60982463D01*
X9716418Y-60856097D01*
X9777612Y-60710231D01*
X9838806Y-60544865D01*
X9897344Y-60368022D01*
X9903197Y-60361246D01*
X9908451Y-60360000D01*
X10391549Y-60360000D01*
X10399822Y-60363427D01*
G37*
%TD.AperFunction*%
%TD*%
%TA.AperFunction,Conductor*%
%TO.N,+3V3*%
G36*
X10264354Y-58487040D02*
G01*
X10270103Y-58493071D01*
X10822949Y-59810229D01*
X10822991Y-59819184D01*
X10821299Y-59822063D01*
X10740505Y-59923115D01*
X10655392Y-60052664D01*
X10655392Y-60052665D01*
X10570250Y-60205361D01*
X10485127Y-60381126D01*
X10485126Y-60381130D01*
X10403037Y-60572904D01*
X10396631Y-60579161D01*
X10392281Y-60580000D01*
X9909259Y-60580000D01*
X9900986Y-60576573D01*
X9897872Y-60570989D01*
X9887669Y-60527794D01*
X9849833Y-60367600D01*
X9799667Y-60178300D01*
X9749500Y-60012101D01*
X9699334Y-59869001D01*
X9651185Y-59753829D01*
X9651157Y-59744875D01*
X9651422Y-59744278D01*
X10248757Y-58492558D01*
X10255412Y-58486569D01*
X10264354Y-58487040D01*
G37*
%TD.AperFunction*%
%TD*%
%TA.AperFunction,Conductor*%
%TO.N,/IRQ*%
G36*
X12509891Y-56363427D02*
G01*
X12512696Y-56367936D01*
X12582166Y-56572399D01*
X12654332Y-56761699D01*
X12654337Y-56761711D01*
X12654338Y-56761713D01*
X12726495Y-56927890D01*
X12798660Y-57070989D01*
X12867590Y-57185607D01*
X12868917Y-57194463D01*
X12868122Y-57196676D01*
X12270559Y-58448873D01*
X12263903Y-58454864D01*
X12254961Y-58454393D01*
X12249441Y-58448873D01*
X12068364Y-58069426D01*
X11651876Y-57196674D01*
X11651406Y-57187734D01*
X11652405Y-57185615D01*
X11721334Y-57070998D01*
X11793500Y-56927898D01*
X11865667Y-56761699D01*
X11937833Y-56572399D01*
X12007304Y-56367936D01*
X12013210Y-56361205D01*
X12018382Y-56360000D01*
X12501618Y-56360000D01*
X12509891Y-56363427D01*
G37*
%TD.AperFunction*%
%TD*%
%TA.AperFunction,Conductor*%
%TO.N,/IRQ*%
G36*
X22426237Y-40884836D02*
G01*
X22919811Y-41379573D01*
X23012228Y-41472207D01*
X23015645Y-41480484D01*
X23012208Y-41488753D01*
X23011659Y-41489267D01*
X22837701Y-41641819D01*
X22836261Y-41642897D01*
X22689361Y-41736230D01*
X22688537Y-41736708D01*
X22552866Y-41808132D01*
X22552865Y-41808133D01*
X22404807Y-41902200D01*
X22404795Y-41902209D01*
X22229023Y-42056355D01*
X22220544Y-42059233D01*
X22213036Y-42055831D01*
X22014927Y-41857722D01*
X22011500Y-41849449D01*
X22013001Y-41843716D01*
X22084833Y-41715995D01*
X22048770Y-41642897D01*
X22032190Y-41609290D01*
X22032189Y-41609289D01*
X21941389Y-41535876D01*
X21904123Y-41505746D01*
X21904028Y-41505669D01*
X21755012Y-41380602D01*
X21752878Y-41378244D01*
X21642824Y-41217169D01*
X21640987Y-41208407D01*
X21645885Y-41200911D01*
X21647998Y-41199766D01*
X22413473Y-40882292D01*
X22422428Y-40882289D01*
X22426237Y-40884836D01*
G37*
%TD.AperFunction*%
%TD*%
%TA.AperFunction,Conductor*%
%TO.N,+3V3*%
G36*
X7258879Y-33201123D02*
G01*
X8044214Y-33525437D01*
X8050553Y-33531762D01*
X8050562Y-33531785D01*
X8374298Y-34315720D01*
X8374289Y-34324675D01*
X8367950Y-34331000D01*
X8366548Y-34331478D01*
X8075320Y-34410490D01*
X8075316Y-34410491D01*
X8075314Y-34410492D01*
X7980966Y-34446328D01*
X7771259Y-34525983D01*
X7467216Y-34674469D01*
X7467205Y-34674475D01*
X7163156Y-34855963D01*
X7163145Y-34855970D01*
X6867142Y-35064783D01*
X6858407Y-35066751D01*
X6852125Y-35063495D01*
X6512113Y-34723483D01*
X6508686Y-34715210D01*
X6510458Y-34709019D01*
X6654030Y-34478852D01*
X6802522Y-34207796D01*
X6951015Y-33903741D01*
X7099507Y-33566685D01*
X7243600Y-33207594D01*
X7249859Y-33201195D01*
X7258813Y-33201096D01*
X7258879Y-33201123D01*
G37*
%TD.AperFunction*%
%TD*%
%TA.AperFunction,Conductor*%
%TO.N,+3V3*%
G36*
X10509891Y-56363427D02*
G01*
X10512696Y-56367936D01*
X10582166Y-56572399D01*
X10654332Y-56761699D01*
X10654337Y-56761711D01*
X10654338Y-56761713D01*
X10726495Y-56927890D01*
X10798660Y-57070989D01*
X10867590Y-57185607D01*
X10868917Y-57194463D01*
X10868122Y-57196676D01*
X10270559Y-58448873D01*
X10263903Y-58454864D01*
X10254961Y-58454393D01*
X10249441Y-58448873D01*
X10068364Y-58069426D01*
X9651876Y-57196674D01*
X9651406Y-57187734D01*
X9652405Y-57185615D01*
X9721334Y-57070998D01*
X9793500Y-56927898D01*
X9865667Y-56761699D01*
X9937833Y-56572399D01*
X10007304Y-56367936D01*
X10013210Y-56361205D01*
X10018382Y-56360000D01*
X10501618Y-56360000D01*
X10509891Y-56363427D01*
G37*
%TD.AperFunction*%
%TD*%
%TA.AperFunction,Conductor*%
%TO.N,/RESET*%
G36*
X23257368Y-35799989D02*
G01*
X23265637Y-35803423D01*
X23269057Y-35811699D01*
X23269022Y-35812594D01*
X23255005Y-35993181D01*
X23254865Y-35994289D01*
X23228792Y-36143552D01*
X23228791Y-36143555D01*
X23219890Y-36270050D01*
X23219891Y-36270051D01*
X23256664Y-36393800D01*
X23256666Y-36393803D01*
X23361134Y-36527232D01*
X23363536Y-36535859D01*
X23360195Y-36542718D01*
X23162718Y-36740195D01*
X23154445Y-36743622D01*
X23147232Y-36741134D01*
X23013803Y-36636666D01*
X23013800Y-36636664D01*
X22916212Y-36607665D01*
X22890052Y-36599891D01*
X22890051Y-36599891D01*
X22890050Y-36599890D01*
X22763555Y-36608791D01*
X22763552Y-36608792D01*
X22614289Y-36634865D01*
X22613181Y-36635005D01*
X22432594Y-36649022D01*
X22424081Y-36646246D01*
X22420024Y-36638262D01*
X22419989Y-36637380D01*
X22419302Y-35811010D01*
X22422722Y-35802736D01*
X22430990Y-35799302D01*
X23257368Y-35799989D01*
G37*
%TD.AperFunction*%
%TD*%
%TA.AperFunction,Conductor*%
%TO.N,/RESET*%
G36*
X6273649Y-43445483D02*
G01*
X6273958Y-43446011D01*
X6892722Y-44573349D01*
X6893750Y-44582067D01*
X6869120Y-44672083D01*
X6869107Y-44672134D01*
X6843232Y-44787494D01*
X6817347Y-44923688D01*
X6791466Y-45080654D01*
X6766140Y-45254607D01*
X6762835Y-45261194D01*
X6562919Y-45461110D01*
X6554646Y-45464537D01*
X6546373Y-45461110D01*
X6545337Y-45459924D01*
X6425445Y-45302431D01*
X6425436Y-45302421D01*
X6297439Y-45160217D01*
X6297436Y-45160214D01*
X6169440Y-45043949D01*
X6169437Y-45043947D01*
X6169433Y-45043943D01*
X6159041Y-45036609D01*
X6041436Y-44953615D01*
X6041421Y-44953606D01*
X5921667Y-44893363D01*
X5915816Y-44886584D01*
X5915536Y-44880235D01*
X6252312Y-43448960D01*
X6257543Y-43441693D01*
X6266381Y-43440252D01*
X6273649Y-43445483D01*
G37*
%TD.AperFunction*%
%TD*%
%TA.AperFunction,Conductor*%
%TO.N,/SPI0_CS0*%
G36*
X16699476Y-32813114D02*
G01*
X16706969Y-32818019D01*
X16708120Y-32820155D01*
X16820138Y-33092228D01*
X16866644Y-33205182D01*
X16866625Y-33214136D01*
X16861306Y-33219973D01*
X16742049Y-33283212D01*
X16613401Y-33360430D01*
X16484744Y-33446656D01*
X16356113Y-33541864D01*
X16235659Y-33639448D01*
X16227073Y-33641993D01*
X16220021Y-33638630D01*
X15881069Y-33299678D01*
X15877642Y-33291405D01*
X15879958Y-33284417D01*
X15945135Y-33196885D01*
X16016351Y-33092242D01*
X16087567Y-32978600D01*
X16158783Y-32855957D01*
X16225933Y-32731831D01*
X16232884Y-32726186D01*
X16238396Y-32725903D01*
X16699476Y-32813114D01*
G37*
%TD.AperFunction*%
%TD*%
%TA.AperFunction,Conductor*%
%TO.N,/SPI0_CS0*%
G36*
X8509891Y-41313427D02*
G01*
X8512696Y-41317936D01*
X8582166Y-41522399D01*
X8654332Y-41711699D01*
X8654337Y-41711711D01*
X8654338Y-41711713D01*
X8726495Y-41877890D01*
X8798660Y-42020989D01*
X8867590Y-42135607D01*
X8868917Y-42144463D01*
X8868122Y-42146676D01*
X8270559Y-43398873D01*
X8263903Y-43404864D01*
X8254961Y-43404393D01*
X8249441Y-43398873D01*
X8068364Y-43019426D01*
X7651876Y-42146674D01*
X7651406Y-42137734D01*
X7652405Y-42135615D01*
X7721334Y-42020998D01*
X7793500Y-41877898D01*
X7865667Y-41711699D01*
X7937833Y-41522399D01*
X8007304Y-41317936D01*
X8013210Y-41311205D01*
X8018382Y-41310000D01*
X8501618Y-41310000D01*
X8509891Y-41313427D01*
G37*
%TD.AperFunction*%
%TD*%
%TA.AperFunction,Conductor*%
%TO.N,/RESET*%
G36*
X14794476Y-32813114D02*
G01*
X14801969Y-32818019D01*
X14803120Y-32820155D01*
X14915138Y-33092228D01*
X14961644Y-33205182D01*
X14961625Y-33214136D01*
X14956306Y-33219973D01*
X14837049Y-33283212D01*
X14708401Y-33360430D01*
X14579744Y-33446656D01*
X14451113Y-33541864D01*
X14330659Y-33639448D01*
X14322073Y-33641993D01*
X14315021Y-33638630D01*
X13976069Y-33299678D01*
X13972642Y-33291405D01*
X13974958Y-33284417D01*
X14040135Y-33196885D01*
X14111351Y-33092242D01*
X14182567Y-32978600D01*
X14253783Y-32855957D01*
X14320933Y-32731831D01*
X14327884Y-32726186D01*
X14333396Y-32725903D01*
X14794476Y-32813114D01*
G37*
%TD.AperFunction*%
%TD*%
%TA.AperFunction,Conductor*%
%TO.N,/RESET*%
G36*
X6127829Y-41159189D02*
G01*
X6467125Y-41498485D01*
X6469468Y-41501839D01*
X6518735Y-41608163D01*
X6549043Y-41673571D01*
X6623081Y-41812460D01*
X6629491Y-41824484D01*
X6709938Y-41952692D01*
X6790380Y-42058192D01*
X6790384Y-42058196D01*
X6865153Y-42135153D01*
X6868460Y-42143474D01*
X6867318Y-42148350D01*
X6269861Y-43398590D01*
X6263201Y-43404577D01*
X6254259Y-43404102D01*
X6248744Y-43398581D01*
X5890278Y-42646715D01*
X5651895Y-42146717D01*
X5651428Y-42137775D01*
X5652465Y-42135593D01*
X5742343Y-41988279D01*
X5835518Y-41812460D01*
X5928693Y-41613541D01*
X6021868Y-41391522D01*
X6108619Y-41163304D01*
X6114762Y-41156789D01*
X6123713Y-41156525D01*
X6127829Y-41159189D01*
G37*
%TD.AperFunction*%
%TD*%
%TA.AperFunction,Conductor*%
%TO.N,GND*%
G36*
X21826195Y-32423333D02*
G01*
X21949946Y-32460108D01*
X22076442Y-32451207D01*
X22226266Y-32425036D01*
X22420000Y-32410000D01*
X22420707Y-33260707D01*
X21570000Y-33260000D01*
X21585036Y-33066266D01*
X21611207Y-32916442D01*
X21620108Y-32789946D01*
X21583333Y-32666195D01*
X21472477Y-32524609D01*
X21684609Y-32312477D01*
X21826195Y-32423333D01*
G37*
%TD.AperFunction*%
%TD*%
%TA.AperFunction,Conductor*%
%TO.N,GND*%
G36*
X11446025Y-32842107D02*
G01*
X11341764Y-32974248D01*
X11305695Y-33089593D01*
X11311955Y-33207456D01*
X11334678Y-33347154D01*
X11348000Y-33528000D01*
X10547293Y-33528707D01*
X10548000Y-32728000D01*
X10728845Y-32741321D01*
X10868542Y-32764044D01*
X10986406Y-32770303D01*
X11101751Y-32734235D01*
X11233893Y-32629975D01*
X11446025Y-32842107D01*
G37*
%TD.AperFunction*%
%TD*%
%TA.AperFunction,Conductor*%
%TO.N,/SPI0_CS0*%
G36*
X21645640Y-38019235D02*
G01*
X22409876Y-38334820D01*
X22416215Y-38341145D01*
X22416224Y-38350100D01*
X22416217Y-38350116D01*
X22099975Y-39112624D01*
X22093641Y-39118953D01*
X22084686Y-39118949D01*
X22083035Y-39118106D01*
X21934037Y-39026401D01*
X21932154Y-39024959D01*
X21809286Y-38909385D01*
X21704059Y-38816808D01*
X21704054Y-38816805D01*
X21597882Y-38788718D01*
X21479175Y-38861025D01*
X21470327Y-38862402D01*
X21464816Y-38859306D01*
X21267207Y-38661697D01*
X21263780Y-38653424D01*
X21266952Y-38645414D01*
X21385243Y-38519478D01*
X21385248Y-38519473D01*
X21463725Y-38414167D01*
X21516724Y-38312067D01*
X21566348Y-38187481D01*
X21630333Y-38025760D01*
X21636563Y-38019328D01*
X21645516Y-38019186D01*
X21645640Y-38019235D01*
G37*
%TD.AperFunction*%
%TD*%
%TA.AperFunction,Conductor*%
%TO.N,/SPI0_CS0*%
G36*
X8274071Y-43446293D02*
G01*
X8274542Y-43447076D01*
X8893028Y-44573908D01*
X8894299Y-44581537D01*
X8879015Y-44669671D01*
X8863029Y-44781816D01*
X8847048Y-44913873D01*
X8831063Y-45065928D01*
X8815468Y-45233742D01*
X8812091Y-45240932D01*
X8612178Y-45440845D01*
X8603905Y-45444272D01*
X8595632Y-45440845D01*
X8594777Y-45439892D01*
X8472754Y-45287732D01*
X8342567Y-45151055D01*
X8342565Y-45151053D01*
X8212375Y-45040038D01*
X8082185Y-44954686D01*
X7960474Y-44898887D01*
X7954382Y-44892324D01*
X7953896Y-44885869D01*
X8252832Y-43450319D01*
X8257872Y-43442920D01*
X8266670Y-43441252D01*
X8274071Y-43446293D01*
G37*
%TD.AperFunction*%
%TD*%
%TA.AperFunction,Conductor*%
%TO.N,/SPI0_CLK*%
G36*
X19287231Y-37747212D02*
G01*
X19758682Y-38217555D01*
X19872414Y-38331019D01*
X19875851Y-38339288D01*
X19872434Y-38347565D01*
X19288381Y-38931618D01*
X19280108Y-38935045D01*
X19271835Y-38931618D01*
X19270840Y-38930485D01*
X19179074Y-38811172D01*
X19178208Y-38809873D01*
X19101488Y-38676016D01*
X19032129Y-38571375D01*
X18955020Y-38530564D01*
X18955019Y-38530565D01*
X18862408Y-38583125D01*
X18853521Y-38584229D01*
X18848360Y-38581223D01*
X18650800Y-38383663D01*
X18647373Y-38375390D01*
X18650798Y-38367120D01*
X18800362Y-38217555D01*
X18912374Y-38105543D01*
X19009111Y-38008805D01*
X19121123Y-37896793D01*
X19270696Y-37747221D01*
X19278968Y-37743795D01*
X19287231Y-37747212D01*
G37*
%TD.AperFunction*%
%TD*%
%TA.AperFunction,Conductor*%
%TO.N,/SPI0_CLK*%
G36*
X10271385Y-43444597D02*
G01*
X10867822Y-44692704D01*
X10868297Y-44701646D01*
X10866719Y-44704642D01*
X10808065Y-44785082D01*
X10745289Y-44892721D01*
X10745283Y-44892732D01*
X10682524Y-45021883D01*
X10619752Y-45172597D01*
X10557870Y-45342418D01*
X10555150Y-45346685D01*
X10355584Y-45546251D01*
X10347311Y-45549678D01*
X10339038Y-45546251D01*
X10337205Y-45543873D01*
X10226713Y-45354438D01*
X10108582Y-45180095D01*
X10102522Y-45172598D01*
X9990444Y-45033931D01*
X9978379Y-45021883D01*
X9872311Y-44915962D01*
X9761005Y-44831372D01*
X9756491Y-44823638D01*
X9757071Y-44818106D01*
X10249816Y-43445687D01*
X10255837Y-43439060D01*
X10264782Y-43438630D01*
X10271385Y-43444597D01*
G37*
%TD.AperFunction*%
%TD*%
%TA.AperFunction,Conductor*%
%TO.N,GND*%
G36*
X22420000Y-34110000D02*
G01*
X22226266Y-34094963D01*
X22076442Y-34068792D01*
X21949946Y-34059891D01*
X21826195Y-34096666D01*
X21684609Y-34207523D01*
X21472477Y-33995391D01*
X21583333Y-33853803D01*
X21620108Y-33730052D01*
X21611207Y-33603556D01*
X21585036Y-33453733D01*
X21570000Y-33260000D01*
X22420707Y-33259293D01*
X22420000Y-34110000D01*
G37*
%TD.AperFunction*%
%TD*%
%TA.AperFunction,Conductor*%
%TO.N,GND*%
G36*
X16502166Y-41533212D02*
G01*
X16594332Y-41727918D01*
X16686499Y-41894118D01*
X16778665Y-42031811D01*
X16870832Y-42140998D01*
X16260000Y-43421000D01*
X15649168Y-42140998D01*
X15741334Y-42031811D01*
X15833500Y-41894118D01*
X15925667Y-41727918D01*
X16017833Y-41533212D01*
X16110000Y-41310000D01*
X16410000Y-41310000D01*
X16502166Y-41533212D01*
G37*
%TD.AperFunction*%
%TD*%
%TA.AperFunction,Conductor*%
%TO.N,GND*%
G36*
X10548000Y-34328000D02*
G01*
X10367154Y-34314678D01*
X10227456Y-34291955D01*
X10109593Y-34285695D01*
X9994248Y-34321764D01*
X9862107Y-34426025D01*
X9649975Y-34213893D01*
X9754235Y-34081751D01*
X9790303Y-33966406D01*
X9784044Y-33848542D01*
X9761321Y-33708845D01*
X9748000Y-33528000D01*
X10548707Y-33527293D01*
X10548000Y-34328000D01*
G37*
%TD.AperFunction*%
%TD*%
%TA.AperFunction,Conductor*%
%TO.N,GND*%
G36*
X2723862Y-41564270D02*
G01*
X2753256Y-41715324D01*
X2782649Y-41848524D01*
X2812044Y-41963870D01*
X2841438Y-42061361D01*
X2870832Y-42140998D01*
X2259293Y-43420707D01*
X1881131Y-41957206D01*
X2007250Y-41888628D01*
X2133370Y-41793832D01*
X2259490Y-41672818D01*
X2385610Y-41525587D01*
X2511730Y-41352138D01*
X2723862Y-41564270D01*
G37*
%TD.AperFunction*%
%TD*%
%TA.AperFunction,Conductor*%
%TO.N,+3V3*%
G36*
X19559154Y-29945668D02*
G01*
X19559876Y-29947114D01*
X19879134Y-30715511D01*
X19879143Y-30724466D01*
X19879134Y-30724489D01*
X19559876Y-31492885D01*
X19553537Y-31499210D01*
X19544582Y-31499201D01*
X19543136Y-31498479D01*
X19334538Y-31375687D01*
X19332120Y-31373797D01*
X19266137Y-31306524D01*
X19194029Y-31233006D01*
X19193642Y-31232589D01*
X19078752Y-31102381D01*
X18930093Y-31006989D01*
X18699917Y-30971527D01*
X18692264Y-30966881D01*
X18690000Y-30959964D01*
X18690000Y-30480035D01*
X18693427Y-30471762D01*
X18699915Y-30468472D01*
X18930093Y-30433009D01*
X19078752Y-30337617D01*
X19193659Y-30207389D01*
X19194011Y-30207010D01*
X19332120Y-30066199D01*
X19334538Y-30064310D01*
X19533633Y-29947114D01*
X19543136Y-29941519D01*
X19552004Y-29940277D01*
X19559154Y-29945668D01*
G37*
%TD.AperFunction*%
%TD*%
%TA.AperFunction,Conductor*%
%TO.N,+3V3*%
G36*
X9243874Y-31992504D02*
G01*
X9583886Y-32332516D01*
X9587313Y-32340789D01*
X9585540Y-32346981D01*
X9441982Y-32577124D01*
X9441958Y-32577165D01*
X9293488Y-32848181D01*
X9293461Y-32848233D01*
X9144988Y-33152248D01*
X8996486Y-33489326D01*
X8852401Y-33848402D01*
X8846140Y-33854804D01*
X8837186Y-33854903D01*
X8837077Y-33854859D01*
X8051785Y-33530562D01*
X8045447Y-33524238D01*
X7766282Y-32848233D01*
X7721701Y-32740279D01*
X7721710Y-32731324D01*
X7728049Y-32724999D01*
X7729443Y-32724523D01*
X8020685Y-32645507D01*
X8324741Y-32530015D01*
X8628796Y-32381522D01*
X8932852Y-32200030D01*
X9228860Y-31991215D01*
X9237592Y-31989248D01*
X9243874Y-31992504D01*
G37*
%TD.AperFunction*%
%TD*%
%TA.AperFunction,Conductor*%
%TO.N,/SPI0_MISO*%
G36*
X19559154Y-35025668D02*
G01*
X19559876Y-35027114D01*
X19879134Y-35795511D01*
X19879143Y-35804466D01*
X19879134Y-35804489D01*
X19559876Y-36572885D01*
X19553537Y-36579210D01*
X19544582Y-36579201D01*
X19543136Y-36578479D01*
X19334538Y-36455687D01*
X19332120Y-36453797D01*
X19266137Y-36386524D01*
X19194029Y-36313006D01*
X19193642Y-36312589D01*
X19078752Y-36182381D01*
X18930093Y-36086989D01*
X18699917Y-36051527D01*
X18692264Y-36046881D01*
X18690000Y-36039964D01*
X18690000Y-35560035D01*
X18693427Y-35551762D01*
X18699915Y-35548472D01*
X18930093Y-35513009D01*
X19078752Y-35417617D01*
X19193659Y-35287389D01*
X19194011Y-35287010D01*
X19332120Y-35146199D01*
X19334538Y-35144310D01*
X19533633Y-35027114D01*
X19543136Y-35021519D01*
X19552004Y-35020277D01*
X19559154Y-35025668D01*
G37*
%TD.AperFunction*%
%TD*%
%TA.AperFunction,Conductor*%
%TO.N,/SPI0_MISO*%
G36*
X14509891Y-41313427D02*
G01*
X14512696Y-41317936D01*
X14582166Y-41522399D01*
X14654332Y-41711699D01*
X14654337Y-41711711D01*
X14654338Y-41711713D01*
X14726495Y-41877890D01*
X14798660Y-42020989D01*
X14867590Y-42135607D01*
X14868917Y-42144463D01*
X14868122Y-42146676D01*
X14270559Y-43398873D01*
X14263903Y-43404864D01*
X14254961Y-43404393D01*
X14249441Y-43398873D01*
X14068364Y-43019426D01*
X13651876Y-42146674D01*
X13651406Y-42137734D01*
X13652405Y-42135615D01*
X13721334Y-42020998D01*
X13793500Y-41877898D01*
X13865667Y-41711699D01*
X13937833Y-41522399D01*
X14007304Y-41317936D01*
X14013210Y-41311205D01*
X14018382Y-41310000D01*
X14501618Y-41310000D01*
X14509891Y-41313427D01*
G37*
%TD.AperFunction*%
%TD*%
%TA.AperFunction,Conductor*%
%TO.N,/SPI0_MOSI*%
G36*
X19107112Y-32939843D02*
G01*
X19876215Y-33257438D01*
X19882552Y-33263761D01*
X19882562Y-33263785D01*
X20200150Y-34032874D01*
X20200141Y-34041829D01*
X20193802Y-34048154D01*
X20192269Y-34048666D01*
X19957940Y-34109341D01*
X19954894Y-34109714D01*
X19757731Y-34107804D01*
X19757114Y-34107782D01*
X19583819Y-34096951D01*
X19583817Y-34096952D01*
X19583816Y-34096952D01*
X19534109Y-34107801D01*
X19411245Y-34134617D01*
X19223413Y-34272300D01*
X19214714Y-34274428D01*
X19208223Y-34271137D01*
X18868861Y-33931775D01*
X18865434Y-33923502D01*
X18867696Y-33916589D01*
X19005382Y-33728751D01*
X19043047Y-33556182D01*
X19032213Y-33382848D01*
X19032194Y-33382302D01*
X19030284Y-33185095D01*
X19030655Y-33182065D01*
X19091333Y-32947728D01*
X19096724Y-32940579D01*
X19105592Y-32939336D01*
X19107112Y-32939843D01*
G37*
%TD.AperFunction*%
%TD*%
%TA.AperFunction,Conductor*%
%TO.N,/SPI0_MOSI*%
G36*
X12509891Y-41313427D02*
G01*
X12512696Y-41317936D01*
X12582166Y-41522399D01*
X12654332Y-41711699D01*
X12654337Y-41711711D01*
X12654338Y-41711713D01*
X12726495Y-41877890D01*
X12798660Y-42020989D01*
X12867590Y-42135607D01*
X12868917Y-42144463D01*
X12868122Y-42146676D01*
X12270559Y-43398873D01*
X12263903Y-43404864D01*
X12254961Y-43404393D01*
X12249441Y-43398873D01*
X12068364Y-43019426D01*
X11651876Y-42146674D01*
X11651406Y-42137734D01*
X11652405Y-42135615D01*
X11721334Y-42020998D01*
X11793500Y-41877898D01*
X11865667Y-41711699D01*
X11937833Y-41522399D01*
X12007304Y-41317936D01*
X12013210Y-41311205D01*
X12018382Y-41310000D01*
X12501618Y-41310000D01*
X12509891Y-41313427D01*
G37*
%TD.AperFunction*%
%TD*%
%TA.AperFunction,Conductor*%
%TO.N,GND*%
G36*
X19880707Y-20560707D02*
G01*
X19279313Y-21160687D01*
X19274190Y-21155564D01*
X19104658Y-20960862D01*
X19004420Y-20798915D01*
X18928871Y-20649713D01*
X18828634Y-20487767D01*
X18654334Y-20287589D01*
X19007888Y-19934035D01*
X19116827Y-20005253D01*
X19211590Y-19996329D01*
X19306567Y-19935862D01*
X19416146Y-19852453D01*
X19554719Y-19774702D01*
X19880707Y-20560707D01*
G37*
%TD.AperFunction*%
%TD*%
%TA.AperFunction,Conductor*%
%TO.N,/U_TX*%
G36*
X21647112Y-17699843D02*
G01*
X22416215Y-18017438D01*
X22422552Y-18023761D01*
X22422562Y-18023785D01*
X22740150Y-18792874D01*
X22740141Y-18801829D01*
X22733802Y-18808154D01*
X22732269Y-18808666D01*
X22497940Y-18869341D01*
X22494894Y-18869714D01*
X22297731Y-18867804D01*
X22297114Y-18867782D01*
X22123819Y-18856951D01*
X22123817Y-18856952D01*
X22123816Y-18856952D01*
X22074109Y-18867801D01*
X21951245Y-18894617D01*
X21763413Y-19032300D01*
X21754714Y-19034428D01*
X21748223Y-19031137D01*
X21408861Y-18691775D01*
X21405434Y-18683502D01*
X21407696Y-18676589D01*
X21545382Y-18488751D01*
X21583047Y-18316182D01*
X21572213Y-18142848D01*
X21572194Y-18142302D01*
X21570284Y-17945095D01*
X21570655Y-17942065D01*
X21631333Y-17707728D01*
X21636724Y-17700579D01*
X21645592Y-17699336D01*
X21647112Y-17699843D01*
G37*
%TD.AperFunction*%
%TD*%
%TA.AperFunction,Conductor*%
%TO.N,/U_TX*%
G36*
X9724484Y-5320863D02*
G01*
X10492885Y-5640123D01*
X10499210Y-5646462D01*
X10499201Y-5655417D01*
X10498479Y-5656863D01*
X10375687Y-5865459D01*
X10373797Y-5867877D01*
X10233023Y-6005953D01*
X10232571Y-6006373D01*
X10102383Y-6121244D01*
X10006989Y-6269904D01*
X9971528Y-6500082D01*
X9966881Y-6507736D01*
X9959964Y-6510000D01*
X9480036Y-6510000D01*
X9471763Y-6506573D01*
X9468472Y-6500082D01*
X9466559Y-6487668D01*
X9433009Y-6269905D01*
X9337617Y-6121247D01*
X9207410Y-6006357D01*
X9206991Y-6005968D01*
X9135088Y-5935444D01*
X9066200Y-5867877D01*
X9064310Y-5865459D01*
X8941520Y-5656863D01*
X8940277Y-5647995D01*
X8945668Y-5640845D01*
X8947102Y-5640128D01*
X9715511Y-5320864D01*
X9724466Y-5320856D01*
X9724484Y-5320863D01*
G37*
%TD.AperFunction*%
%TD*%
%TA.AperFunction,Conductor*%
%TO.N,/PPS_IN*%
G36*
X19287237Y-17427324D02*
G01*
X19288129Y-17428129D01*
X19872424Y-18012424D01*
X19875851Y-18020697D01*
X19872424Y-18028970D01*
X19872414Y-18028980D01*
X19287033Y-18612985D01*
X19278756Y-18616402D01*
X19270700Y-18613174D01*
X19237545Y-18581594D01*
X19113654Y-18463585D01*
X18989958Y-18358606D01*
X18989956Y-18358604D01*
X18880275Y-18271234D01*
X18879994Y-18271003D01*
X18756684Y-18166352D01*
X18756212Y-18165928D01*
X18612438Y-18028980D01*
X18599813Y-18016954D01*
X18596186Y-18008766D01*
X18599411Y-18000412D01*
X18599560Y-18000259D01*
X18938290Y-17661529D01*
X18946562Y-17658103D01*
X18952486Y-17659713D01*
X19021125Y-17700028D01*
X19083187Y-17676186D01*
X19140457Y-17606279D01*
X19202220Y-17513427D01*
X19202863Y-17512555D01*
X19270778Y-17429020D01*
X19278656Y-17424764D01*
X19287237Y-17427324D01*
G37*
%TD.AperFunction*%
%TD*%
%TA.AperFunction,Conductor*%
%TO.N,/PPS_IN*%
G36*
X12264484Y-5320863D02*
G01*
X13032885Y-5640123D01*
X13039210Y-5646462D01*
X13039201Y-5655417D01*
X13038479Y-5656863D01*
X12915687Y-5865459D01*
X12913797Y-5867877D01*
X12773023Y-6005953D01*
X12772571Y-6006373D01*
X12642383Y-6121244D01*
X12546989Y-6269904D01*
X12511528Y-6500082D01*
X12506881Y-6507736D01*
X12499964Y-6510000D01*
X12020036Y-6510000D01*
X12011763Y-6506573D01*
X12008472Y-6500082D01*
X12006559Y-6487668D01*
X11973009Y-6269905D01*
X11877617Y-6121247D01*
X11747410Y-6006357D01*
X11746991Y-6005968D01*
X11675088Y-5935444D01*
X11606200Y-5867877D01*
X11604310Y-5865459D01*
X11481520Y-5656863D01*
X11480277Y-5647995D01*
X11485668Y-5640845D01*
X11487102Y-5640128D01*
X12255511Y-5320864D01*
X12264466Y-5320856D01*
X12264484Y-5320863D01*
G37*
%TD.AperFunction*%
%TD*%
%TA.AperFunction,Conductor*%
%TO.N,+5V*%
G36*
X16420437Y-8133223D02*
G01*
X16559537Y-8219425D01*
X16705406Y-8290320D01*
X16705409Y-8290320D01*
X16851268Y-8341711D01*
X16997134Y-8373605D01*
X17132291Y-8385090D01*
X17140244Y-8389205D01*
X17143000Y-8396748D01*
X17143000Y-8876538D01*
X17139573Y-8884811D01*
X17133748Y-8887979D01*
X16998852Y-8916847D01*
X16998850Y-8916847D01*
X16998848Y-8916848D01*
X16957877Y-8931158D01*
X16854696Y-8967196D01*
X16854693Y-8967197D01*
X16710553Y-9037039D01*
X16710550Y-9037041D01*
X16710545Y-9037043D01*
X16710543Y-9037045D01*
X16638467Y-9081719D01*
X16566384Y-9126398D01*
X16566381Y-9126400D01*
X16429165Y-9230013D01*
X16420498Y-9232264D01*
X16415225Y-9230132D01*
X15679838Y-8694353D01*
X15675170Y-8686712D01*
X15677272Y-8678007D01*
X15679736Y-8675516D01*
X16407286Y-8133783D01*
X16415969Y-8131591D01*
X16420437Y-8133223D01*
G37*
%TD.AperFunction*%
%TD*%
%TA.AperFunction,Conductor*%
%TO.N,Net-(J2-In)*%
G36*
X5250700Y-64655927D02*
G01*
X5253101Y-64659409D01*
X5326996Y-64824050D01*
X5326999Y-64824055D01*
X5403999Y-64973333D01*
X5481000Y-65100333D01*
X5525764Y-65161214D01*
X5557998Y-65205053D01*
X5630157Y-65282315D01*
X5633299Y-65290700D01*
X5632640Y-65294191D01*
X5011034Y-67057205D01*
X5005051Y-67063868D01*
X4996110Y-67064349D01*
X4989447Y-67058366D01*
X4988966Y-67057205D01*
X4367359Y-65294191D01*
X4367840Y-65285250D01*
X4369842Y-65282315D01*
X4441999Y-65205055D01*
X4518999Y-65100333D01*
X4596000Y-64973333D01*
X4673000Y-64824055D01*
X4746899Y-64659409D01*
X4753413Y-64653265D01*
X4757573Y-64652500D01*
X5242427Y-64652500D01*
X5250700Y-64655927D01*
G37*
%TD.AperFunction*%
%TD*%
%TA.AperFunction,Conductor*%
%TO.N,Net-(J2-In)*%
G36*
X2265039Y-58485606D02*
G01*
X2270559Y-58491126D01*
X2868122Y-59743324D01*
X2868593Y-59752266D01*
X2867589Y-59754393D01*
X2798665Y-59868998D01*
X2726495Y-60012108D01*
X2654338Y-60178285D01*
X2582161Y-60367614D01*
X2512696Y-60572064D01*
X2506790Y-60578795D01*
X2501618Y-60580000D01*
X2018382Y-60580000D01*
X2010109Y-60576573D01*
X2007304Y-60572064D01*
X1982924Y-60500312D01*
X1937833Y-60367600D01*
X1865667Y-60178300D01*
X1793500Y-60012101D01*
X1721334Y-59869001D01*
X1652408Y-59754390D01*
X1651082Y-59745536D01*
X1651873Y-59743332D01*
X2249441Y-58491125D01*
X2256097Y-58485135D01*
X2265039Y-58485606D01*
G37*
%TD.AperFunction*%
%TD*%
%TA.AperFunction,Conductor*%
%TO.N,+5V*%
G36*
X21763411Y-9387697D02*
G01*
X21890048Y-9480523D01*
X21951245Y-9525381D01*
X21951247Y-9525382D01*
X22123816Y-9563047D01*
X22123818Y-9563046D01*
X22123819Y-9563047D01*
X22151186Y-9561336D01*
X22297151Y-9552213D01*
X22297693Y-9552194D01*
X22494901Y-9550284D01*
X22497933Y-9550656D01*
X22732270Y-9611333D01*
X22739420Y-9616724D01*
X22740663Y-9625592D01*
X22740151Y-9627125D01*
X22422562Y-10396214D01*
X22416237Y-10402553D01*
X22416214Y-10402562D01*
X21647125Y-10720151D01*
X21638170Y-10720142D01*
X21631845Y-10713803D01*
X21631333Y-10712270D01*
X21570656Y-10477933D01*
X21570284Y-10474901D01*
X21572194Y-10277693D01*
X21572213Y-10277151D01*
X21583047Y-10103816D01*
X21545382Y-9931247D01*
X21407697Y-9743412D01*
X21405570Y-9734716D01*
X21408859Y-9728226D01*
X21748225Y-9388860D01*
X21756497Y-9385434D01*
X21763411Y-9387697D01*
G37*
%TD.AperFunction*%
%TD*%
%TA.AperFunction,Conductor*%
%TO.N,+5V*%
G36*
X14807232Y-5322004D02*
G01*
X15574475Y-5640784D01*
X15580799Y-5647122D01*
X15580790Y-5656077D01*
X15580782Y-5656095D01*
X15508551Y-5829109D01*
X15457769Y-5962953D01*
X15457767Y-5962961D01*
X15427819Y-6082594D01*
X15413602Y-6223722D01*
X15413601Y-6223740D01*
X15410209Y-6410611D01*
X15406633Y-6418821D01*
X15398511Y-6422099D01*
X14919275Y-6422099D01*
X14911002Y-6418672D01*
X14907884Y-6413068D01*
X14865575Y-6232501D01*
X14865573Y-6232499D01*
X14816285Y-6196322D01*
X14748284Y-6146409D01*
X14748282Y-6146408D01*
X14582310Y-6105063D01*
X14581874Y-6104945D01*
X14392739Y-6049997D01*
X14389498Y-6048487D01*
X14210792Y-5928956D01*
X14205821Y-5921508D01*
X14207572Y-5912726D01*
X14209011Y-5910972D01*
X14794466Y-5324543D01*
X14802734Y-5321110D01*
X14807232Y-5322004D01*
G37*
%TD.AperFunction*%
%TD*%
%TA.AperFunction,Conductor*%
%TO.N,+5V*%
G36*
X15412741Y-7538427D02*
G01*
X15413510Y-7539275D01*
X15536448Y-7688989D01*
X15536455Y-7688997D01*
X15536458Y-7689000D01*
X15662917Y-7823500D01*
X15789375Y-7938499D01*
X15915834Y-8033999D01*
X16031906Y-8103757D01*
X16037232Y-8110956D01*
X16035907Y-8119812D01*
X16035690Y-8120160D01*
X15674026Y-8676726D01*
X15666644Y-8681796D01*
X15658402Y-8680505D01*
X14834113Y-8208608D01*
X14828636Y-8201523D01*
X14828401Y-8196438D01*
X14843588Y-8109622D01*
X14860191Y-7995216D01*
X14876794Y-7861311D01*
X14893397Y-7707905D01*
X14893405Y-7707835D01*
X14908984Y-7545582D01*
X14913185Y-7537674D01*
X14920630Y-7535000D01*
X15404468Y-7535000D01*
X15412741Y-7538427D01*
G37*
%TD.AperFunction*%
%TD*%
%TA.AperFunction,Conductor*%
%TO.N,+5V*%
G36*
X22668237Y-11753427D02*
G01*
X22671527Y-11759917D01*
X22706989Y-11990093D01*
X22802381Y-12138752D01*
X22932589Y-12253642D01*
X22933006Y-12254029D01*
X23006524Y-12326137D01*
X23073797Y-12392120D01*
X23075687Y-12394538D01*
X23198479Y-12603136D01*
X23199722Y-12612004D01*
X23194331Y-12619154D01*
X23192885Y-12619876D01*
X22424489Y-12939134D01*
X22415534Y-12939143D01*
X22415511Y-12939134D01*
X21647114Y-12619876D01*
X21640789Y-12613537D01*
X21640798Y-12604582D01*
X21641520Y-12603136D01*
X21764310Y-12394538D01*
X21766200Y-12392120D01*
X21907010Y-12254011D01*
X21907389Y-12253659D01*
X22037617Y-12138752D01*
X22133009Y-11990093D01*
X22168472Y-11759918D01*
X22173119Y-11752264D01*
X22180036Y-11750000D01*
X22659964Y-11750000D01*
X22668237Y-11753427D01*
G37*
%TD.AperFunction*%
%TD*%
%TA.AperFunction,Conductor*%
%TO.N,+5V*%
G36*
X22424484Y-10400863D02*
G01*
X23192885Y-10720123D01*
X23199210Y-10726462D01*
X23199201Y-10735417D01*
X23198479Y-10736863D01*
X23075687Y-10945459D01*
X23073797Y-10947877D01*
X22933023Y-11085953D01*
X22932571Y-11086373D01*
X22802383Y-11201244D01*
X22706989Y-11349904D01*
X22671528Y-11580082D01*
X22666881Y-11587736D01*
X22659964Y-11590000D01*
X22180036Y-11590000D01*
X22171763Y-11586573D01*
X22168472Y-11580082D01*
X22166559Y-11567668D01*
X22133009Y-11349905D01*
X22037617Y-11201247D01*
X21907410Y-11086357D01*
X21906991Y-11085968D01*
X21835088Y-11015444D01*
X21766200Y-10947877D01*
X21764310Y-10945459D01*
X21641520Y-10736863D01*
X21640277Y-10727995D01*
X21645668Y-10720845D01*
X21647102Y-10720128D01*
X22415511Y-10400864D01*
X22424466Y-10400856D01*
X22424484Y-10400863D01*
G37*
%TD.AperFunction*%
%TD*%
%TA.AperFunction,Conductor*%
%TO.N,/U_RX*%
G36*
X21647112Y-20239843D02*
G01*
X22416215Y-20557438D01*
X22422552Y-20563761D01*
X22422562Y-20563785D01*
X22740150Y-21332874D01*
X22740141Y-21341829D01*
X22733802Y-21348154D01*
X22732269Y-21348666D01*
X22497940Y-21409341D01*
X22494894Y-21409714D01*
X22297731Y-21407804D01*
X22297114Y-21407782D01*
X22123819Y-21396951D01*
X22123817Y-21396952D01*
X22123816Y-21396952D01*
X22074109Y-21407801D01*
X21951245Y-21434617D01*
X21763413Y-21572300D01*
X21754714Y-21574428D01*
X21748223Y-21571137D01*
X21408861Y-21231775D01*
X21405434Y-21223502D01*
X21407696Y-21216589D01*
X21545382Y-21028751D01*
X21583047Y-20856182D01*
X21572213Y-20682848D01*
X21572194Y-20682302D01*
X21570284Y-20485095D01*
X21570655Y-20482065D01*
X21631333Y-20247728D01*
X21636724Y-20240579D01*
X21645592Y-20239336D01*
X21647112Y-20239843D01*
G37*
%TD.AperFunction*%
%TD*%
%TA.AperFunction,Conductor*%
%TO.N,/U_RX*%
G36*
X7184484Y-5320863D02*
G01*
X7952885Y-5640123D01*
X7959210Y-5646462D01*
X7959201Y-5655417D01*
X7958479Y-5656863D01*
X7835687Y-5865459D01*
X7833797Y-5867877D01*
X7693023Y-6005953D01*
X7692571Y-6006373D01*
X7562383Y-6121244D01*
X7466989Y-6269904D01*
X7431528Y-6500082D01*
X7426881Y-6507736D01*
X7419964Y-6510000D01*
X6940036Y-6510000D01*
X6931763Y-6506573D01*
X6928472Y-6500082D01*
X6926559Y-6487668D01*
X6893009Y-6269905D01*
X6797617Y-6121247D01*
X6667410Y-6006357D01*
X6666991Y-6005968D01*
X6595088Y-5935444D01*
X6526200Y-5867877D01*
X6524310Y-5865459D01*
X6401520Y-5656863D01*
X6400277Y-5647995D01*
X6405668Y-5640845D01*
X6407102Y-5640128D01*
X7175511Y-5320864D01*
X7184466Y-5320856D01*
X7184484Y-5320863D01*
G37*
%TD.AperFunction*%
%TD*%
%TA.AperFunction,Conductor*%
%TO.N,GND*%
G36*
X8620846Y-9352637D02*
G01*
X8625777Y-9426234D01*
X8638382Y-9488796D01*
X8662250Y-9558627D01*
X8700970Y-9654030D01*
X8470000Y-9750701D01*
X8239030Y-9654030D01*
X8277748Y-9558627D01*
X8301616Y-9488796D01*
X8314222Y-9426234D01*
X8319153Y-9352637D01*
X8320000Y-9249701D01*
X8620000Y-9249701D01*
X8620846Y-9352637D01*
G37*
%TD.AperFunction*%
%TD*%
%TA.AperFunction,Conductor*%
%TO.N,/IRQ*%
G36*
X16724176Y-47151945D02*
G01*
X16804089Y-47231857D01*
X16873084Y-47300852D01*
X16920287Y-47348054D01*
X16923714Y-47356327D01*
X16920549Y-47364329D01*
X16874046Y-47413928D01*
X16874030Y-47413947D01*
X16840375Y-47459401D01*
X16840368Y-47459413D01*
X16817712Y-47503514D01*
X16804562Y-47536824D01*
X16796479Y-47557297D01*
X16796479Y-47557298D01*
X16796478Y-47557297D01*
X16771438Y-47620759D01*
X16765214Y-47627197D01*
X16756261Y-47627348D01*
X16756118Y-47627291D01*
X16539941Y-47538681D01*
X16533585Y-47532372D01*
X16533552Y-47532292D01*
X16521757Y-47503517D01*
X16444942Y-47316115D01*
X16444975Y-47307161D01*
X16451331Y-47300852D01*
X16451373Y-47300835D01*
X16476888Y-47290767D01*
X16514934Y-47275755D01*
X16514934Y-47275754D01*
X16514935Y-47275754D01*
X16568714Y-47254521D01*
X16612821Y-47231863D01*
X16658292Y-47198196D01*
X16707903Y-47151681D01*
X16716280Y-47148524D01*
X16724176Y-47151945D01*
G37*
%TD.AperFunction*%
%TD*%
%TA.AperFunction,Conductor*%
%TO.N,/RESET*%
G36*
X6480293Y-43511202D02*
G01*
X6486602Y-43517558D01*
X6486617Y-43526395D01*
X6452255Y-43611059D01*
X6452244Y-43611087D01*
X6428385Y-43680890D01*
X6428383Y-43680899D01*
X6415777Y-43743467D01*
X6410846Y-43817056D01*
X6410846Y-43817064D01*
X6410095Y-43908396D01*
X6406600Y-43916641D01*
X6398395Y-43920000D01*
X6121604Y-43920000D01*
X6113331Y-43916573D01*
X6109904Y-43908397D01*
X6109153Y-43817063D01*
X6104222Y-43743466D01*
X6091616Y-43680904D01*
X6091614Y-43680898D01*
X6091612Y-43680890D01*
X6067753Y-43611087D01*
X6067751Y-43611082D01*
X6067748Y-43611073D01*
X6033382Y-43526394D01*
X6033446Y-43517440D01*
X6039704Y-43511203D01*
X6255484Y-43420889D01*
X6264437Y-43420857D01*
X6480293Y-43511202D01*
G37*
%TD.AperFunction*%
%TD*%
%TA.AperFunction,Conductor*%
%TO.N,/SPI0_CS0*%
G36*
X8480293Y-43511202D02*
G01*
X8486602Y-43517558D01*
X8486617Y-43526395D01*
X8452255Y-43611059D01*
X8452244Y-43611087D01*
X8428385Y-43680890D01*
X8428383Y-43680899D01*
X8415777Y-43743467D01*
X8410846Y-43817056D01*
X8410846Y-43817064D01*
X8410095Y-43908396D01*
X8406600Y-43916641D01*
X8398395Y-43920000D01*
X8121604Y-43920000D01*
X8113331Y-43916573D01*
X8109904Y-43908397D01*
X8109153Y-43817063D01*
X8104222Y-43743466D01*
X8091616Y-43680904D01*
X8091614Y-43680898D01*
X8091612Y-43680890D01*
X8067753Y-43611087D01*
X8067751Y-43611082D01*
X8067748Y-43611073D01*
X8033382Y-43526394D01*
X8033446Y-43517440D01*
X8039704Y-43511203D01*
X8255484Y-43420889D01*
X8264437Y-43420857D01*
X8480293Y-43511202D01*
G37*
%TD.AperFunction*%
%TD*%
%TA.AperFunction,Conductor*%
%TO.N,/U_RX*%
G36*
X18523332Y-20650634D02*
G01*
X18529592Y-20656872D01*
X18565171Y-20741058D01*
X18567452Y-20745707D01*
X18597669Y-20807304D01*
X18632993Y-20860456D01*
X18681547Y-20915984D01*
X18741920Y-20977358D01*
X18745598Y-20981097D01*
X18748957Y-20989398D01*
X18745530Y-20997575D01*
X18549809Y-21193296D01*
X18541536Y-21196723D01*
X18533331Y-21193364D01*
X18533262Y-21193296D01*
X18468218Y-21129313D01*
X18412690Y-21080759D01*
X18412687Y-21080757D01*
X18412686Y-21080756D01*
X18359543Y-21045438D01*
X18359536Y-21045434D01*
X18293292Y-21012937D01*
X18209106Y-20977358D01*
X18202820Y-20970981D01*
X18202834Y-20962145D01*
X18291553Y-20745705D01*
X18297860Y-20739351D01*
X18514379Y-20650601D01*
X18523332Y-20650634D01*
G37*
%TD.AperFunction*%
%TD*%
%TA.AperFunction,Conductor*%
%TO.N,/U_RX*%
G36*
X21038559Y-21617446D02*
G01*
X21044797Y-21623706D01*
X21135109Y-21839483D01*
X21135142Y-21848437D01*
X21135109Y-21848517D01*
X21044797Y-22064293D01*
X21038441Y-22070602D01*
X21029604Y-22070617D01*
X20944939Y-22036255D01*
X20944911Y-22036244D01*
X20875108Y-22012385D01*
X20875099Y-22012383D01*
X20875096Y-22012382D01*
X20875095Y-22012382D01*
X20812533Y-21999777D01*
X20775734Y-21997311D01*
X20738938Y-21994846D01*
X20647604Y-21994095D01*
X20639359Y-21990600D01*
X20636000Y-21982395D01*
X20636000Y-21705604D01*
X20639427Y-21697331D01*
X20647602Y-21693904D01*
X20738936Y-21693153D01*
X20812533Y-21688222D01*
X20875095Y-21675616D01*
X20875103Y-21675613D01*
X20875108Y-21675612D01*
X20944903Y-21651756D01*
X20944905Y-21651754D01*
X20944926Y-21651748D01*
X21029605Y-21617382D01*
X21038559Y-21617446D01*
G37*
%TD.AperFunction*%
%TD*%
%TA.AperFunction,Conductor*%
%TO.N,/U_TX*%
G36*
X21038559Y-19077446D02*
G01*
X21044797Y-19083706D01*
X21135109Y-19299483D01*
X21135142Y-19308437D01*
X21135109Y-19308517D01*
X21044797Y-19524293D01*
X21038441Y-19530602D01*
X21029604Y-19530617D01*
X20944939Y-19496255D01*
X20944911Y-19496244D01*
X20875108Y-19472385D01*
X20875099Y-19472383D01*
X20875096Y-19472382D01*
X20875095Y-19472382D01*
X20812533Y-19459777D01*
X20775734Y-19457311D01*
X20738938Y-19454846D01*
X20647604Y-19454095D01*
X20639359Y-19450600D01*
X20636000Y-19442395D01*
X20636000Y-19165604D01*
X20639427Y-19157331D01*
X20647602Y-19153904D01*
X20738936Y-19153153D01*
X20812533Y-19148222D01*
X20875095Y-19135616D01*
X20875103Y-19135613D01*
X20875108Y-19135612D01*
X20944903Y-19111756D01*
X20944905Y-19111754D01*
X20944926Y-19111748D01*
X21029605Y-19077382D01*
X21038559Y-19077446D01*
G37*
%TD.AperFunction*%
%TD*%
%TA.AperFunction,Conductor*%
%TO.N,/U_TX*%
G36*
X19366281Y-19111748D02*
G01*
X19366290Y-19111751D01*
X19366295Y-19111753D01*
X19436098Y-19135612D01*
X19436106Y-19135614D01*
X19436112Y-19135616D01*
X19436122Y-19135618D01*
X19498658Y-19148219D01*
X19498661Y-19148219D01*
X19498674Y-19148222D01*
X19572271Y-19153153D01*
X19663605Y-19153904D01*
X19671849Y-19157399D01*
X19675208Y-19165604D01*
X19675208Y-19442395D01*
X19671781Y-19450668D01*
X19663604Y-19454095D01*
X19574262Y-19454829D01*
X19572271Y-19454846D01*
X19572264Y-19454846D01*
X19507873Y-19459160D01*
X19498674Y-19459777D01*
X19438323Y-19471936D01*
X19436107Y-19472383D01*
X19436098Y-19472385D01*
X19366295Y-19496244D01*
X19366267Y-19496255D01*
X19281603Y-19530617D01*
X19272648Y-19530553D01*
X19266410Y-19524293D01*
X19244684Y-19472385D01*
X19176097Y-19308515D01*
X19176065Y-19299563D01*
X19266411Y-19083704D01*
X19272766Y-19077397D01*
X19281602Y-19077382D01*
X19366281Y-19111748D01*
G37*
%TD.AperFunction*%
%TD*%
%TA.AperFunction,Conductor*%
%TO.N,/PPS_IN*%
G36*
X19147073Y-17827748D02*
G01*
X19147082Y-17827751D01*
X19147087Y-17827753D01*
X19216890Y-17851612D01*
X19216898Y-17851614D01*
X19216904Y-17851616D01*
X19216914Y-17851618D01*
X19279450Y-17864219D01*
X19279453Y-17864219D01*
X19279466Y-17864222D01*
X19353063Y-17869153D01*
X19444397Y-17869904D01*
X19452641Y-17873399D01*
X19456000Y-17881604D01*
X19456000Y-18158395D01*
X19452573Y-18166668D01*
X19444396Y-18170095D01*
X19355054Y-18170829D01*
X19353063Y-18170846D01*
X19353056Y-18170846D01*
X19288665Y-18175160D01*
X19279466Y-18175777D01*
X19219115Y-18187936D01*
X19216899Y-18188383D01*
X19216890Y-18188385D01*
X19147087Y-18212244D01*
X19147059Y-18212255D01*
X19062395Y-18246617D01*
X19053440Y-18246553D01*
X19047202Y-18240293D01*
X19025476Y-18188385D01*
X18956889Y-18024515D01*
X18956857Y-18015563D01*
X19047203Y-17799704D01*
X19053558Y-17793397D01*
X19062394Y-17793382D01*
X19147073Y-17827748D01*
G37*
%TD.AperFunction*%
%TD*%
M02*
