%TF.GenerationSoftware,KiCad,Pcbnew,7.0.11-2.fc39*%
%TF.CreationDate,2024-07-01T00:46:26-07:00*%
%TF.ProjectId,george_orangepi,67656f72-6765-45f6-9f72-616e67657069,rev?*%
%TF.SameCoordinates,PX93d1cc0PY4d3f640*%
%TF.FileFunction,Soldermask,Top*%
%TF.FilePolarity,Negative*%
%FSLAX46Y46*%
G04 Gerber Fmt 4.6, Leading zero omitted, Abs format (unit mm)*
G04 Created by KiCad (PCBNEW 7.0.11-2.fc39) date 2024-07-01 00:46:26*
%MOMM*%
%LPD*%
G01*
G04 APERTURE LIST*
G04 Aperture macros list*
%AMRoundRect*
0 Rectangle with rounded corners*
0 $1 Rounding radius*
0 $2 $3 $4 $5 $6 $7 $8 $9 X,Y pos of 4 corners*
0 Add a 4 corners polygon primitive as box body*
4,1,4,$2,$3,$4,$5,$6,$7,$8,$9,$2,$3,0*
0 Add four circle primitives for the rounded corners*
1,1,$1+$1,$2,$3*
1,1,$1+$1,$4,$5*
1,1,$1+$1,$6,$7*
1,1,$1+$1,$8,$9*
0 Add four rect primitives between the rounded corners*
20,1,$1+$1,$2,$3,$4,$5,0*
20,1,$1+$1,$4,$5,$6,$7,0*
20,1,$1+$1,$6,$7,$8,$9,0*
20,1,$1+$1,$8,$9,$2,$3,0*%
G04 Aperture macros list end*
%ADD10C,2.000000*%
%ADD11RoundRect,0.250000X-0.325000X-0.650000X0.325000X-0.650000X0.325000X0.650000X-0.325000X0.650000X0*%
%ADD12RoundRect,0.200000X-0.275000X0.200000X-0.275000X-0.200000X0.275000X-0.200000X0.275000X0.200000X0*%
%ADD13RoundRect,0.317500X-0.317500X1.157500X-0.317500X-1.157500X0.317500X-1.157500X0.317500X1.157500X0*%
%ADD14R,1.700000X1.700000*%
%ADD15O,1.700000X1.700000*%
%ADD16R,1.270000X3.600000*%
%ADD17R,1.350000X4.200000*%
%ADD18RoundRect,0.250000X-0.650000X0.325000X-0.650000X-0.325000X0.650000X-0.325000X0.650000X0.325000X0*%
%ADD19C,1.600000*%
%ADD20R,1.600000X1.600000*%
G04 APERTURE END LIST*
D10*
%TO.C,TP1*%
X3000000Y-62500000D03*
%TD*%
D11*
%TO.C,C2*%
X10150000Y-61835000D03*
X13100000Y-61835000D03*
%TD*%
D12*
%TO.C,R2*%
X16705000Y-31165000D03*
X16705000Y-32815000D03*
%TD*%
%TO.C,R1*%
X14800000Y-31165000D03*
X14800000Y-32815000D03*
%TD*%
D13*
%TO.C,U2*%
X16260000Y-58470000D03*
X14260000Y-58470000D03*
X12260000Y-58470000D03*
X10260000Y-58470000D03*
X8260000Y-58470000D03*
X6260000Y-58470000D03*
X4260000Y-58470000D03*
X2260000Y-58470000D03*
X2260000Y-43420000D03*
X4260000Y-43420000D03*
X6260000Y-43420000D03*
X8260000Y-43420000D03*
X10260000Y-43420000D03*
X12260000Y-43420000D03*
X14260000Y-43420000D03*
X16260000Y-43420000D03*
%TD*%
D14*
%TO.C,J4*%
X4640000Y-5320000D03*
D15*
X7180000Y-5320000D03*
X9720000Y-5320000D03*
X12260000Y-5320000D03*
X14800000Y-5320000D03*
%TD*%
D16*
%TO.C,J2*%
X5000000Y-67087500D03*
D17*
X7825000Y-66887500D03*
X2175000Y-66887500D03*
%TD*%
D18*
%TO.C,C3*%
X15668000Y-11635000D03*
X15668000Y-8685000D03*
%TD*%
D19*
%TO.C,C1*%
X10548000Y-33528000D03*
D20*
X8048000Y-33528000D03*
%TD*%
D15*
%TO.C,J1*%
X22420000Y-58660000D03*
X19880000Y-58660000D03*
X22420000Y-56120000D03*
X19880000Y-56120000D03*
X22420000Y-53580000D03*
X19880000Y-53580000D03*
X22420000Y-51040000D03*
X19880000Y-51040000D03*
X22420000Y-48500000D03*
X19880000Y-48500000D03*
X22420000Y-45960000D03*
X19880000Y-45960000D03*
X22420000Y-43420000D03*
X19880000Y-43420000D03*
X22420000Y-40880000D03*
X19880000Y-40880000D03*
X22420000Y-38340000D03*
X19880000Y-38340000D03*
X22420000Y-35800000D03*
X19880000Y-35800000D03*
X22420000Y-33260000D03*
X19880000Y-33260000D03*
X22420000Y-30720000D03*
X19880000Y-30720000D03*
X22420000Y-28180000D03*
X19880000Y-28180000D03*
X22420000Y-25640000D03*
X19880000Y-25640000D03*
X22420000Y-23100000D03*
X19880000Y-23100000D03*
X22420000Y-20560000D03*
X19880000Y-20560000D03*
X22420000Y-18020000D03*
X19880000Y-18020000D03*
X22420000Y-15480000D03*
X19880000Y-15480000D03*
X22420000Y-12940000D03*
X19880000Y-12940000D03*
X22420000Y-10400000D03*
D14*
X19880000Y-10400000D03*
%TD*%
M02*
