M48
; DRILL file {KiCad 7.0.11-2.fc39} date Mon 01 Jul 2024 12:28:44 AM PDT
; FORMAT={-:-/ absolute / metric / decimal}
; #@! TF.CreationDate,2024-07-01T00:28:44-07:00
; #@! TF.GenerationSoftware,Kicad,Pcbnew,7.0.11-2.fc39
; #@! TF.FileFunction,MixedPlating,1,2
FMAT,2
METRIC
; #@! TA.AperFunction,Plated,PTH,ComponentDrill
T1C0.800
; #@! TA.AperFunction,Plated,PTH,ComponentDrill
T2C1.000
; #@! TA.AperFunction,Plated,PTH,ViaDrill
T3C3.000
%
G90
G05
T1
X8.048Y-33.528
X10.548Y-33.528
T2
X3.0Y-62.5
X4.64Y-5.32
X7.18Y-5.32
X9.72Y-5.32
X12.26Y-5.32
X14.8Y-5.32
X19.88Y-10.4
X19.88Y-12.94
X19.88Y-15.48
X19.88Y-18.02
X19.88Y-20.56
X19.88Y-23.1
X19.88Y-25.64
X19.88Y-28.18
X19.88Y-30.72
X19.88Y-33.26
X19.88Y-35.8
X19.88Y-38.34
X19.88Y-40.88
X19.88Y-43.42
X19.88Y-45.96
X19.88Y-48.5
X19.88Y-51.04
X19.88Y-53.58
X19.88Y-56.12
X19.88Y-58.66
X22.42Y-10.4
X22.42Y-12.94
X22.42Y-15.48
X22.42Y-18.02
X22.42Y-20.56
X22.42Y-23.1
X22.42Y-25.64
X22.42Y-28.18
X22.42Y-30.72
X22.42Y-33.26
X22.42Y-35.8
X22.42Y-38.34
X22.42Y-40.88
X22.42Y-43.42
X22.42Y-45.96
X22.42Y-48.5
X22.42Y-51.04
X22.42Y-53.58
X22.42Y-56.12
X22.42Y-58.66
T3
X20.24Y-2.944
X20.24Y-66.06
M30
