%TF.GenerationSoftware,KiCad,Pcbnew,7.0.11-2.fc39*%
%TF.CreationDate,2024-07-01T00:46:26-07:00*%
%TF.ProjectId,george_orangepi,67656f72-6765-45f6-9f72-616e67657069,rev?*%
%TF.SameCoordinates,PX93d1cc0PY4d3f640*%
%TF.FileFunction,Legend,Top*%
%TF.FilePolarity,Positive*%
%FSLAX46Y46*%
G04 Gerber Fmt 4.6, Leading zero omitted, Abs format (unit mm)*
G04 Created by KiCad (PCBNEW 7.0.11-2.fc39) date 2024-07-01 00:46:26*
%MOMM*%
%LPD*%
G01*
G04 APERTURE LIST*
%ADD10C,0.150000*%
%ADD11C,0.120000*%
G04 APERTURE END LIST*
D10*
X1738095Y-59956819D02*
X2309523Y-59956819D01*
X2023809Y-60956819D02*
X2023809Y-59956819D01*
X2642857Y-60956819D02*
X2642857Y-59956819D01*
X2642857Y-59956819D02*
X3023809Y-59956819D01*
X3023809Y-59956819D02*
X3119047Y-60004438D01*
X3119047Y-60004438D02*
X3166666Y-60052057D01*
X3166666Y-60052057D02*
X3214285Y-60147295D01*
X3214285Y-60147295D02*
X3214285Y-60290152D01*
X3214285Y-60290152D02*
X3166666Y-60385390D01*
X3166666Y-60385390D02*
X3119047Y-60433009D01*
X3119047Y-60433009D02*
X3023809Y-60480628D01*
X3023809Y-60480628D02*
X2642857Y-60480628D01*
X4166666Y-60956819D02*
X3595238Y-60956819D01*
X3880952Y-60956819D02*
X3880952Y-59956819D01*
X3880952Y-59956819D02*
X3785714Y-60099676D01*
X3785714Y-60099676D02*
X3690476Y-60194914D01*
X3690476Y-60194914D02*
X3595238Y-60242533D01*
X11458333Y-60344580D02*
X11410714Y-60392200D01*
X11410714Y-60392200D02*
X11267857Y-60439819D01*
X11267857Y-60439819D02*
X11172619Y-60439819D01*
X11172619Y-60439819D02*
X11029762Y-60392200D01*
X11029762Y-60392200D02*
X10934524Y-60296961D01*
X10934524Y-60296961D02*
X10886905Y-60201723D01*
X10886905Y-60201723D02*
X10839286Y-60011247D01*
X10839286Y-60011247D02*
X10839286Y-59868390D01*
X10839286Y-59868390D02*
X10886905Y-59677914D01*
X10886905Y-59677914D02*
X10934524Y-59582676D01*
X10934524Y-59582676D02*
X11029762Y-59487438D01*
X11029762Y-59487438D02*
X11172619Y-59439819D01*
X11172619Y-59439819D02*
X11267857Y-59439819D01*
X11267857Y-59439819D02*
X11410714Y-59487438D01*
X11410714Y-59487438D02*
X11458333Y-59535057D01*
X11839286Y-59535057D02*
X11886905Y-59487438D01*
X11886905Y-59487438D02*
X11982143Y-59439819D01*
X11982143Y-59439819D02*
X12220238Y-59439819D01*
X12220238Y-59439819D02*
X12315476Y-59487438D01*
X12315476Y-59487438D02*
X12363095Y-59535057D01*
X12363095Y-59535057D02*
X12410714Y-59630295D01*
X12410714Y-59630295D02*
X12410714Y-59725533D01*
X12410714Y-59725533D02*
X12363095Y-59868390D01*
X12363095Y-59868390D02*
X11791667Y-60439819D01*
X11791667Y-60439819D02*
X12410714Y-60439819D01*
X18589819Y-32156666D02*
X18113628Y-32489999D01*
X18589819Y-32728094D02*
X17589819Y-32728094D01*
X17589819Y-32728094D02*
X17589819Y-32347142D01*
X17589819Y-32347142D02*
X17637438Y-32251904D01*
X17637438Y-32251904D02*
X17685057Y-32204285D01*
X17685057Y-32204285D02*
X17780295Y-32156666D01*
X17780295Y-32156666D02*
X17923152Y-32156666D01*
X17923152Y-32156666D02*
X18018390Y-32204285D01*
X18018390Y-32204285D02*
X18066009Y-32251904D01*
X18066009Y-32251904D02*
X18113628Y-32347142D01*
X18113628Y-32347142D02*
X18113628Y-32728094D01*
X17685057Y-31775713D02*
X17637438Y-31728094D01*
X17637438Y-31728094D02*
X17589819Y-31632856D01*
X17589819Y-31632856D02*
X17589819Y-31394761D01*
X17589819Y-31394761D02*
X17637438Y-31299523D01*
X17637438Y-31299523D02*
X17685057Y-31251904D01*
X17685057Y-31251904D02*
X17780295Y-31204285D01*
X17780295Y-31204285D02*
X17875533Y-31204285D01*
X17875533Y-31204285D02*
X18018390Y-31251904D01*
X18018390Y-31251904D02*
X18589819Y-31823332D01*
X18589819Y-31823332D02*
X18589819Y-31204285D01*
X16684819Y-32156666D02*
X16208628Y-32489999D01*
X16684819Y-32728094D02*
X15684819Y-32728094D01*
X15684819Y-32728094D02*
X15684819Y-32347142D01*
X15684819Y-32347142D02*
X15732438Y-32251904D01*
X15732438Y-32251904D02*
X15780057Y-32204285D01*
X15780057Y-32204285D02*
X15875295Y-32156666D01*
X15875295Y-32156666D02*
X16018152Y-32156666D01*
X16018152Y-32156666D02*
X16113390Y-32204285D01*
X16113390Y-32204285D02*
X16161009Y-32251904D01*
X16161009Y-32251904D02*
X16208628Y-32347142D01*
X16208628Y-32347142D02*
X16208628Y-32728094D01*
X16684819Y-31204285D02*
X16684819Y-31775713D01*
X16684819Y-31489999D02*
X15684819Y-31489999D01*
X15684819Y-31489999D02*
X15827676Y-31585237D01*
X15827676Y-31585237D02*
X15922914Y-31680475D01*
X15922914Y-31680475D02*
X15970533Y-31775713D01*
X17914819Y-51706904D02*
X18724342Y-51706904D01*
X18724342Y-51706904D02*
X18819580Y-51659285D01*
X18819580Y-51659285D02*
X18867200Y-51611666D01*
X18867200Y-51611666D02*
X18914819Y-51516428D01*
X18914819Y-51516428D02*
X18914819Y-51325952D01*
X18914819Y-51325952D02*
X18867200Y-51230714D01*
X18867200Y-51230714D02*
X18819580Y-51183095D01*
X18819580Y-51183095D02*
X18724342Y-51135476D01*
X18724342Y-51135476D02*
X17914819Y-51135476D01*
X18010057Y-50706904D02*
X17962438Y-50659285D01*
X17962438Y-50659285D02*
X17914819Y-50564047D01*
X17914819Y-50564047D02*
X17914819Y-50325952D01*
X17914819Y-50325952D02*
X17962438Y-50230714D01*
X17962438Y-50230714D02*
X18010057Y-50183095D01*
X18010057Y-50183095D02*
X18105295Y-50135476D01*
X18105295Y-50135476D02*
X18200533Y-50135476D01*
X18200533Y-50135476D02*
X18343390Y-50183095D01*
X18343390Y-50183095D02*
X18914819Y-50754523D01*
X18914819Y-50754523D02*
X18914819Y-50135476D01*
X1824819Y-1268333D02*
X2539104Y-1268333D01*
X2539104Y-1268333D02*
X2681961Y-1315952D01*
X2681961Y-1315952D02*
X2777200Y-1411190D01*
X2777200Y-1411190D02*
X2824819Y-1554047D01*
X2824819Y-1554047D02*
X2824819Y-1649285D01*
X2158152Y-363571D02*
X2824819Y-363571D01*
X1777200Y-601666D02*
X2491485Y-839761D01*
X2491485Y-839761D02*
X2491485Y-220714D01*
X4666666Y-62842319D02*
X4666666Y-63556604D01*
X4666666Y-63556604D02*
X4619047Y-63699461D01*
X4619047Y-63699461D02*
X4523809Y-63794700D01*
X4523809Y-63794700D02*
X4380952Y-63842319D01*
X4380952Y-63842319D02*
X4285714Y-63842319D01*
X5095238Y-62937557D02*
X5142857Y-62889938D01*
X5142857Y-62889938D02*
X5238095Y-62842319D01*
X5238095Y-62842319D02*
X5476190Y-62842319D01*
X5476190Y-62842319D02*
X5571428Y-62889938D01*
X5571428Y-62889938D02*
X5619047Y-62937557D01*
X5619047Y-62937557D02*
X5666666Y-63032795D01*
X5666666Y-63032795D02*
X5666666Y-63128033D01*
X5666666Y-63128033D02*
X5619047Y-63270890D01*
X5619047Y-63270890D02*
X5047619Y-63842319D01*
X5047619Y-63842319D02*
X5666666Y-63842319D01*
X17877580Y-10326666D02*
X17925200Y-10374285D01*
X17925200Y-10374285D02*
X17972819Y-10517142D01*
X17972819Y-10517142D02*
X17972819Y-10612380D01*
X17972819Y-10612380D02*
X17925200Y-10755237D01*
X17925200Y-10755237D02*
X17829961Y-10850475D01*
X17829961Y-10850475D02*
X17734723Y-10898094D01*
X17734723Y-10898094D02*
X17544247Y-10945713D01*
X17544247Y-10945713D02*
X17401390Y-10945713D01*
X17401390Y-10945713D02*
X17210914Y-10898094D01*
X17210914Y-10898094D02*
X17115676Y-10850475D01*
X17115676Y-10850475D02*
X17020438Y-10755237D01*
X17020438Y-10755237D02*
X16972819Y-10612380D01*
X16972819Y-10612380D02*
X16972819Y-10517142D01*
X16972819Y-10517142D02*
X17020438Y-10374285D01*
X17020438Y-10374285D02*
X17068057Y-10326666D01*
X16972819Y-9993332D02*
X16972819Y-9374285D01*
X16972819Y-9374285D02*
X17353771Y-9707618D01*
X17353771Y-9707618D02*
X17353771Y-9564761D01*
X17353771Y-9564761D02*
X17401390Y-9469523D01*
X17401390Y-9469523D02*
X17449009Y-9421904D01*
X17449009Y-9421904D02*
X17544247Y-9374285D01*
X17544247Y-9374285D02*
X17782342Y-9374285D01*
X17782342Y-9374285D02*
X17877580Y-9421904D01*
X17877580Y-9421904D02*
X17925200Y-9469523D01*
X17925200Y-9469523D02*
X17972819Y-9564761D01*
X17972819Y-9564761D02*
X17972819Y-9850475D01*
X17972819Y-9850475D02*
X17925200Y-9945713D01*
X17925200Y-9945713D02*
X17877580Y-9993332D01*
X9131333Y-28887580D02*
X9083714Y-28935200D01*
X9083714Y-28935200D02*
X8940857Y-28982819D01*
X8940857Y-28982819D02*
X8845619Y-28982819D01*
X8845619Y-28982819D02*
X8702762Y-28935200D01*
X8702762Y-28935200D02*
X8607524Y-28839961D01*
X8607524Y-28839961D02*
X8559905Y-28744723D01*
X8559905Y-28744723D02*
X8512286Y-28554247D01*
X8512286Y-28554247D02*
X8512286Y-28411390D01*
X8512286Y-28411390D02*
X8559905Y-28220914D01*
X8559905Y-28220914D02*
X8607524Y-28125676D01*
X8607524Y-28125676D02*
X8702762Y-28030438D01*
X8702762Y-28030438D02*
X8845619Y-27982819D01*
X8845619Y-27982819D02*
X8940857Y-27982819D01*
X8940857Y-27982819D02*
X9083714Y-28030438D01*
X9083714Y-28030438D02*
X9131333Y-28078057D01*
X10083714Y-28982819D02*
X9512286Y-28982819D01*
X9798000Y-28982819D02*
X9798000Y-27982819D01*
X9798000Y-27982819D02*
X9702762Y-28125676D01*
X9702762Y-28125676D02*
X9607524Y-28220914D01*
X9607524Y-28220914D02*
X9512286Y-28268533D01*
D11*
%TO.C,TP1*%
X1800000Y-63700000D02*
X1800000Y-61300000D01*
X4200000Y-63700000D02*
X1800000Y-63700000D01*
X4200000Y-61300000D02*
X4200000Y-63700000D01*
X1800000Y-61300000D02*
X4200000Y-61300000D01*
%TO.C,C2*%
X10913748Y-60925000D02*
X12336252Y-60925000D01*
X10913748Y-62745000D02*
X12336252Y-62745000D01*
%TO.C,R2*%
X16182500Y-31752742D02*
X16182500Y-32227258D01*
X17227500Y-31752742D02*
X17227500Y-32227258D01*
%TO.C,R1*%
X14277500Y-31752742D02*
X14277500Y-32227258D01*
X15322500Y-31752742D02*
X15322500Y-32227258D01*
%TO.C,U2*%
X17496000Y-42585000D02*
X17160000Y-42345000D01*
X17496000Y-42105000D01*
X17496000Y-42585000D01*
G36*
X17496000Y-42585000D02*
G01*
X17160000Y-42345000D01*
X17496000Y-42105000D01*
X17496000Y-42585000D01*
G37*
X1160000Y-59045000D02*
X1560000Y-59045000D01*
X17360000Y-59045000D02*
X16960000Y-59045000D01*
X1160000Y-42845000D02*
X1160000Y-59045000D01*
X1560000Y-42845000D02*
X1160000Y-42845000D01*
X17360000Y-42845000D02*
X17360000Y-59045000D01*
%TO.C,J4*%
X12640000Y-4277071D02*
X12640000Y-3880000D01*
X12640000Y4780000D02*
X12640000Y-1220000D01*
X16130000Y-1220000D02*
X3310000Y-1220000D01*
X3310000Y-1220000D02*
X3310000Y-3880000D01*
X8450000Y-3880000D02*
X8450000Y-1220000D01*
X10100000Y-4277071D02*
X10100000Y-3880000D01*
X13530000Y-3880000D02*
X13530000Y-1220000D01*
X9340000Y-4277071D02*
X9340000Y-3880000D01*
X3370000Y-6590000D02*
X3370000Y-5320000D01*
X7560000Y4780000D02*
X7560000Y-1220000D01*
X5910000Y-3880000D02*
X5910000Y-1220000D01*
X10990000Y-3880000D02*
X10990000Y-1220000D01*
X5020000Y-4210000D02*
X5020000Y-3880000D01*
X3310000Y-3880000D02*
X16130000Y-3880000D01*
X15180000Y-4277071D02*
X15180000Y-3880000D01*
X9340000Y4780000D02*
X10100000Y4780000D01*
X6800000Y-1220000D02*
X6800000Y4780000D01*
X14420000Y-4277071D02*
X14420000Y-3880000D01*
X9340000Y-1220000D02*
X9340000Y4780000D01*
X10100000Y4780000D02*
X10100000Y-1220000D01*
X16130000Y-3880000D02*
X16130000Y-1220000D01*
X4680000Y-1220000D02*
X4680000Y4780000D01*
X5020000Y4780000D02*
X5020000Y-1220000D01*
X4320000Y-1220000D02*
X4320000Y4780000D01*
X6800000Y-4277071D02*
X6800000Y-3880000D01*
X4440000Y-1220000D02*
X4440000Y4780000D01*
X6800000Y4780000D02*
X7560000Y4780000D01*
X4560000Y-1220000D02*
X4560000Y4780000D01*
X4260000Y-4210000D02*
X4260000Y-3880000D01*
X4920000Y-1220000D02*
X4920000Y4780000D01*
X7560000Y-4277071D02*
X7560000Y-3880000D01*
X4800000Y-1220000D02*
X4800000Y4780000D01*
X11880000Y-1220000D02*
X11880000Y4780000D01*
X11880000Y4780000D02*
X12640000Y4780000D01*
X4260000Y4780000D02*
X5020000Y4780000D01*
X4260000Y-1220000D02*
X4260000Y4780000D01*
X14420000Y-1220000D02*
X14420000Y4780000D01*
X4640000Y-6590000D02*
X3370000Y-6590000D01*
X15180000Y4780000D02*
X15180000Y-1220000D01*
X11880000Y-4277071D02*
X11880000Y-3880000D01*
X14420000Y4780000D02*
X15180000Y4780000D01*
%TO.C,J2*%
X3050000Y-65177500D02*
X4160000Y-65177500D01*
X5250000Y-64127500D02*
X4750000Y-64127500D01*
X5840000Y-68887500D02*
X6950000Y-68887500D01*
X5000000Y-64627500D02*
X5250000Y-64127500D01*
X4750000Y-64127500D02*
X5000000Y-64627500D01*
X3050000Y-68887500D02*
X4160000Y-68887500D01*
X5840000Y-65177500D02*
X6950000Y-65177500D01*
%TO.C,C3*%
X14758000Y-9448748D02*
X14758000Y-10871252D01*
X16578000Y-9448748D02*
X16578000Y-10871252D01*
%TO.C,C1*%
X13168000Y-33528000D02*
G75*
G03*
X5428000Y-33528000I-3870000J0D01*
G01*
X5428000Y-33528000D02*
G75*
G03*
X13168000Y-33528000I3870000J0D01*
G01*
X11299000Y-34568000D02*
X11299000Y-36802000D01*
X10859000Y-30026000D02*
X10859000Y-32488000D01*
X11459000Y-34568000D02*
X11459000Y-36700000D01*
X10179000Y-29799000D02*
X10179000Y-32488000D01*
X10299000Y-34568000D02*
X10299000Y-37227000D01*
X12899000Y-32147000D02*
X12899000Y-34909000D01*
X11979000Y-30776000D02*
X11979000Y-36280000D01*
X10059000Y-29773000D02*
X10059000Y-32488000D01*
X11739000Y-30564000D02*
X11739000Y-36492000D01*
X9618000Y-34568000D02*
X9618000Y-37345000D01*
X10419000Y-29863000D02*
X10419000Y-32488000D01*
X11179000Y-34568000D02*
X11179000Y-36871000D01*
X9538000Y-29705000D02*
X9538000Y-32488000D01*
X5530789Y-30978000D02*
X5530789Y-31728000D01*
X9778000Y-29727000D02*
X9778000Y-32488000D01*
X12059000Y-30855000D02*
X12059000Y-36201000D01*
X9778000Y-34568000D02*
X9778000Y-37329000D01*
X13099000Y-32835000D02*
X13099000Y-34221000D01*
X12459000Y-31333000D02*
X12459000Y-35723000D01*
X12939000Y-32253000D02*
X12939000Y-34803000D01*
X12099000Y-30896000D02*
X12099000Y-36160000D01*
X11659000Y-30500000D02*
X11659000Y-36556000D01*
X12539000Y-31451000D02*
X12539000Y-35605000D01*
X11579000Y-30440000D02*
X11579000Y-32488000D01*
X10699000Y-34568000D02*
X10699000Y-37096000D01*
X10659000Y-34568000D02*
X10659000Y-37112000D01*
X10979000Y-34568000D02*
X10979000Y-36975000D01*
X9578000Y-29708000D02*
X9578000Y-32488000D01*
X10499000Y-29888000D02*
X10499000Y-32488000D01*
X11379000Y-34568000D02*
X11379000Y-36752000D01*
X12619000Y-31579000D02*
X12619000Y-35477000D01*
X9818000Y-34568000D02*
X9818000Y-37323000D01*
X10179000Y-34568000D02*
X10179000Y-37257000D01*
X10899000Y-34568000D02*
X10899000Y-37012000D01*
X9338000Y-29698000D02*
X9338000Y-37358000D01*
X10259000Y-34568000D02*
X10259000Y-37238000D01*
X9498000Y-29703000D02*
X9498000Y-37353000D01*
X11939000Y-30738000D02*
X11939000Y-36318000D01*
X12179000Y-30982000D02*
X12179000Y-36074000D01*
X11539000Y-30412000D02*
X11539000Y-32488000D01*
X9458000Y-29701000D02*
X9458000Y-37355000D01*
X11779000Y-30597000D02*
X11779000Y-36459000D01*
X12579000Y-31514000D02*
X12579000Y-35542000D01*
X11499000Y-34568000D02*
X11499000Y-36672000D01*
X12819000Y-31959000D02*
X12819000Y-35097000D01*
X10219000Y-34568000D02*
X10219000Y-37248000D01*
X12859000Y-32050000D02*
X12859000Y-35006000D01*
X11299000Y-30254000D02*
X11299000Y-32488000D01*
X11859000Y-30665000D02*
X11859000Y-36391000D01*
X10339000Y-29840000D02*
X10339000Y-32488000D01*
X9978000Y-29758000D02*
X9978000Y-32488000D01*
X11259000Y-34568000D02*
X11259000Y-36825000D01*
X10299000Y-29829000D02*
X10299000Y-32488000D01*
X10779000Y-29992000D02*
X10779000Y-32488000D01*
X9898000Y-34568000D02*
X9898000Y-37312000D01*
X11539000Y-34568000D02*
X11539000Y-36644000D01*
X9538000Y-34568000D02*
X9538000Y-37351000D01*
X11139000Y-34568000D02*
X11139000Y-36893000D01*
X10099000Y-34568000D02*
X10099000Y-37275000D01*
X9978000Y-34568000D02*
X9978000Y-37298000D01*
X9858000Y-29738000D02*
X9858000Y-32488000D01*
X11219000Y-30207000D02*
X11219000Y-32488000D01*
X10739000Y-29975000D02*
X10739000Y-32488000D01*
X10219000Y-29808000D02*
X10219000Y-32488000D01*
X9658000Y-29714000D02*
X9658000Y-32488000D01*
X12339000Y-31173000D02*
X12339000Y-35883000D01*
X9818000Y-29733000D02*
X9818000Y-32488000D01*
X11339000Y-34568000D02*
X11339000Y-36777000D01*
X9298000Y-29698000D02*
X9298000Y-37358000D01*
X11419000Y-34568000D02*
X11419000Y-36726000D01*
X10619000Y-29930000D02*
X10619000Y-32488000D01*
X10139000Y-34568000D02*
X10139000Y-37266000D01*
X11379000Y-30304000D02*
X11379000Y-32488000D01*
X10859000Y-34568000D02*
X10859000Y-37030000D01*
X12379000Y-31224000D02*
X12379000Y-35832000D01*
X11819000Y-30630000D02*
X11819000Y-36426000D01*
X10419000Y-34568000D02*
X10419000Y-37193000D01*
X11419000Y-30330000D02*
X11419000Y-32488000D01*
X10059000Y-34568000D02*
X10059000Y-37283000D01*
X10339000Y-34568000D02*
X10339000Y-37216000D01*
X10539000Y-29902000D02*
X10539000Y-32488000D01*
X11699000Y-30532000D02*
X11699000Y-36524000D01*
X11059000Y-34568000D02*
X11059000Y-36935000D01*
X9658000Y-34568000D02*
X9658000Y-37342000D01*
X10619000Y-34568000D02*
X10619000Y-37126000D01*
X10019000Y-34568000D02*
X10019000Y-37291000D01*
X9578000Y-34568000D02*
X9578000Y-37348000D01*
X11259000Y-30231000D02*
X11259000Y-32488000D01*
X10939000Y-30062000D02*
X10939000Y-32488000D01*
X10819000Y-30008000D02*
X10819000Y-32488000D01*
X10739000Y-34568000D02*
X10739000Y-37081000D01*
X10499000Y-34568000D02*
X10499000Y-37168000D01*
X10819000Y-34568000D02*
X10819000Y-37048000D01*
X12699000Y-31719000D02*
X12699000Y-35337000D01*
X10539000Y-34568000D02*
X10539000Y-37154000D01*
X9938000Y-29751000D02*
X9938000Y-32488000D01*
X10379000Y-29851000D02*
X10379000Y-32488000D01*
X11059000Y-30121000D02*
X11059000Y-32488000D01*
X13019000Y-32500000D02*
X13019000Y-34556000D01*
X12259000Y-31074000D02*
X12259000Y-35982000D01*
X11339000Y-30279000D02*
X11339000Y-32488000D01*
X12739000Y-31795000D02*
X12739000Y-35261000D01*
X11619000Y-30470000D02*
X11619000Y-36586000D01*
X11139000Y-30163000D02*
X11139000Y-32488000D01*
X9738000Y-34568000D02*
X9738000Y-37333000D01*
X12659000Y-31647000D02*
X12659000Y-35409000D01*
X12299000Y-31123000D02*
X12299000Y-35933000D01*
X9378000Y-29698000D02*
X9378000Y-37358000D01*
X13059000Y-32651000D02*
X13059000Y-34405000D01*
X12419000Y-31278000D02*
X12419000Y-35778000D01*
X11099000Y-34568000D02*
X11099000Y-36914000D01*
X11499000Y-30384000D02*
X11499000Y-32488000D01*
X11579000Y-34568000D02*
X11579000Y-36616000D01*
X10979000Y-30081000D02*
X10979000Y-32488000D01*
X11179000Y-30185000D02*
X11179000Y-32488000D01*
X10579000Y-34568000D02*
X10579000Y-37141000D01*
X10259000Y-29818000D02*
X10259000Y-32488000D01*
X12779000Y-31874000D02*
X12779000Y-35182000D01*
X9738000Y-29723000D02*
X9738000Y-32488000D01*
X11019000Y-34568000D02*
X11019000Y-36955000D01*
X11019000Y-30101000D02*
X11019000Y-32488000D01*
X10099000Y-29781000D02*
X10099000Y-32488000D01*
X10459000Y-34568000D02*
X10459000Y-37181000D01*
X11099000Y-30142000D02*
X11099000Y-32488000D01*
X9858000Y-34568000D02*
X9858000Y-37318000D01*
X12219000Y-31028000D02*
X12219000Y-36028000D01*
X10459000Y-29875000D02*
X10459000Y-32488000D01*
X9898000Y-29744000D02*
X9898000Y-32488000D01*
X11459000Y-30356000D02*
X11459000Y-32488000D01*
X9618000Y-29711000D02*
X9618000Y-32488000D01*
X13139000Y-33087000D02*
X13139000Y-33969000D01*
X12019000Y-30815000D02*
X12019000Y-36241000D01*
X10139000Y-29790000D02*
X10139000Y-32488000D01*
X10019000Y-29765000D02*
X10019000Y-32488000D01*
X9698000Y-29718000D02*
X9698000Y-32488000D01*
X11899000Y-30701000D02*
X11899000Y-36355000D01*
X10579000Y-29915000D02*
X10579000Y-32488000D01*
X10939000Y-34568000D02*
X10939000Y-36994000D01*
X9938000Y-34568000D02*
X9938000Y-37305000D01*
X12499000Y-31391000D02*
X12499000Y-35665000D01*
X12979000Y-32370000D02*
X12979000Y-34686000D01*
X12139000Y-30939000D02*
X12139000Y-36117000D01*
X11219000Y-34568000D02*
X11219000Y-36849000D01*
X10379000Y-34568000D02*
X10379000Y-37205000D01*
X10899000Y-30044000D02*
X10899000Y-32488000D01*
X5155789Y-31353000D02*
X5905789Y-31353000D01*
X9418000Y-29699000D02*
X9418000Y-37357000D01*
X9698000Y-34568000D02*
X9698000Y-37338000D01*
X10699000Y-29960000D02*
X10699000Y-32488000D01*
X10779000Y-34568000D02*
X10779000Y-37064000D01*
X10659000Y-29944000D02*
X10659000Y-32488000D01*
%TD*%
M02*
