%TF.GenerationSoftware,KiCad,Pcbnew,7.0.11-2.fc39*%
%TF.CreationDate,2024-03-15T18:09:56-07:00*%
%TF.ProjectId,ch552_usbc,63683535-325f-4757-9362-632e6b696361,rev?*%
%TF.SameCoordinates,PX791ddc0PY5563218*%
%TF.FileFunction,Copper,L2,Bot*%
%TF.FilePolarity,Positive*%
%FSLAX46Y46*%
G04 Gerber Fmt 4.6, Leading zero omitted, Abs format (unit mm)*
G04 Created by KiCad (PCBNEW 7.0.11-2.fc39) date 2024-03-15 18:09:56*
%MOMM*%
%LPD*%
G01*
G04 APERTURE LIST*
G04 Aperture macros list*
%AMRoundRect*
0 Rectangle with rounded corners*
0 $1 Rounding radius*
0 $2 $3 $4 $5 $6 $7 $8 $9 X,Y pos of 4 corners*
0 Add a 4 corners polygon primitive as box body*
4,1,4,$2,$3,$4,$5,$6,$7,$8,$9,$2,$3,0*
0 Add four circle primitives for the rounded corners*
1,1,$1+$1,$2,$3*
1,1,$1+$1,$4,$5*
1,1,$1+$1,$6,$7*
1,1,$1+$1,$8,$9*
0 Add four rect primitives between the rounded corners*
20,1,$1+$1,$2,$3,$4,$5,0*
20,1,$1+$1,$4,$5,$6,$7,0*
20,1,$1+$1,$6,$7,$8,$9,0*
20,1,$1+$1,$8,$9,$2,$3,0*%
G04 Aperture macros list end*
%TA.AperFunction,SMDPad,CuDef*%
%ADD10RoundRect,0.200000X-0.275000X0.200000X-0.275000X-0.200000X0.275000X-0.200000X0.275000X0.200000X0*%
%TD*%
%TA.AperFunction,SMDPad,CuDef*%
%ADD11RoundRect,0.200000X0.275000X-0.200000X0.275000X0.200000X-0.275000X0.200000X-0.275000X-0.200000X0*%
%TD*%
%TA.AperFunction,SMDPad,CuDef*%
%ADD12R,1.150000X0.300000*%
%TD*%
%TA.AperFunction,ComponentPad*%
%ADD13O,1.600000X1.000000*%
%TD*%
%TA.AperFunction,ComponentPad*%
%ADD14O,2.100000X1.000000*%
%TD*%
%TA.AperFunction,ComponentPad*%
%ADD15R,1.700000X1.700000*%
%TD*%
%TA.AperFunction,ComponentPad*%
%ADD16O,1.700000X1.700000*%
%TD*%
%TA.AperFunction,ComponentPad*%
%ADD17C,2.000000*%
%TD*%
%TA.AperFunction,SMDPad,CuDef*%
%ADD18RoundRect,0.200000X0.200000X0.275000X-0.200000X0.275000X-0.200000X-0.275000X0.200000X-0.275000X0*%
%TD*%
%TA.AperFunction,SMDPad,CuDef*%
%ADD19RoundRect,0.225000X-0.225000X-0.250000X0.225000X-0.250000X0.225000X0.250000X-0.225000X0.250000X0*%
%TD*%
%TA.AperFunction,SMDPad,CuDef*%
%ADD20RoundRect,0.150000X-0.150000X0.825000X-0.150000X-0.825000X0.150000X-0.825000X0.150000X0.825000X0*%
%TD*%
%TA.AperFunction,SMDPad,CuDef*%
%ADD21RoundRect,0.225000X0.225000X0.250000X-0.225000X0.250000X-0.225000X-0.250000X0.225000X-0.250000X0*%
%TD*%
%TA.AperFunction,SMDPad,CuDef*%
%ADD22RoundRect,0.250000X-0.475000X0.250000X-0.475000X-0.250000X0.475000X-0.250000X0.475000X0.250000X0*%
%TD*%
%TA.AperFunction,Conductor*%
%ADD23C,0.500000*%
%TD*%
%TA.AperFunction,Conductor*%
%ADD24C,0.400000*%
%TD*%
%TA.AperFunction,Conductor*%
%ADD25C,0.250000*%
%TD*%
%TA.AperFunction,Conductor*%
%ADD26C,0.450000*%
%TD*%
%TA.AperFunction,Conductor*%
%ADD27C,0.750000*%
%TD*%
G04 APERTURE END LIST*
D10*
%TO.P,NT1,2,2*%
%TO.N,GND*%
X9436000Y-15290000D03*
%TO.P,NT1,1,1*%
%TO.N,GNDD*%
X9436000Y-13640000D03*
%TD*%
%TO.P,R3,2*%
%TO.N,GND*%
X7836000Y-15290000D03*
%TO.P,R3,1*%
%TO.N,Net-(J1-CC1)*%
X7836000Y-13640000D03*
%TD*%
D11*
%TO.P,R4,2*%
%TO.N,GND*%
X9586000Y-8590000D03*
%TO.P,R4,1*%
%TO.N,Net-(J1-CC2)*%
X9586000Y-10240000D03*
%TD*%
D12*
%TO.P,J1,A1,GND*%
%TO.N,GND*%
X5956000Y-15415000D03*
%TO.P,J1,A4,VBUS*%
%TO.N,+5V*%
X5956000Y-14615000D03*
%TO.P,J1,A5,CC1*%
%TO.N,Net-(J1-CC1)*%
X5956000Y-13315000D03*
%TO.P,J1,A6,D+*%
%TO.N,/USB_DP*%
X5956000Y-12315000D03*
%TO.P,J1,A7,D-*%
%TO.N,/USB_DN*%
X5956000Y-11815000D03*
%TO.P,J1,A8,SBU1*%
%TO.N,unconnected-(J1-SBU1-PadA8)*%
X5956000Y-10815000D03*
%TO.P,J1,A9,VBUS*%
%TO.N,+5V*%
X5956000Y-9515000D03*
%TO.P,J1,A12,GND*%
%TO.N,GND*%
X5956000Y-8715000D03*
%TO.P,J1,B1,GND*%
X5956000Y-9015000D03*
%TO.P,J1,B4,VBUS*%
%TO.N,+5V*%
X5956000Y-9815000D03*
%TO.P,J1,B5,CC2*%
%TO.N,Net-(J1-CC2)*%
X5956000Y-10315000D03*
%TO.P,J1,B6,D+*%
%TO.N,/USB_DP*%
X5956000Y-11315000D03*
%TO.P,J1,B7,D-*%
%TO.N,/USB_DN*%
X5956000Y-12815000D03*
%TO.P,J1,B8,SBU2*%
%TO.N,unconnected-(J1-SBU2-PadB8)*%
X5956000Y-13815000D03*
%TO.P,J1,B9,VBUS*%
%TO.N,+5V*%
X5956000Y-14315000D03*
%TO.P,J1,B12,GND*%
%TO.N,GND*%
X5956000Y-15115000D03*
D13*
%TO.P,J1,S1,SHIELD*%
X1211000Y-16385000D03*
D14*
X5391000Y-16385000D03*
X5391000Y-7745000D03*
D13*
X1211000Y-7745000D03*
%TD*%
D15*
%TO.P,J4,1,Pin_1*%
%TO.N,+3V3*%
X9907000Y-22224000D03*
D16*
%TO.P,J4,2,Pin_2*%
%TO.N,+5V*%
X12447000Y-22224000D03*
%TO.P,J4,3,Pin_3*%
%TO.N,GNDD*%
X14987000Y-22224000D03*
%TO.P,J4,4,Pin_4*%
%TO.N,unconnected-(J4-Pin_4-Pad4)*%
X17527000Y-22224000D03*
%TO.P,J4,5,Pin_5*%
%TO.N,unconnected-(J4-Pin_5-Pad5)*%
X20067000Y-22224000D03*
%TO.P,J4,6,Pin_6*%
%TO.N,Net-(J4-Pin_6)*%
X22607000Y-22224000D03*
%TO.P,J4,7,Pin_7*%
%TO.N,Net-(J4-Pin_7)*%
X25147000Y-22224000D03*
%TO.P,J4,8,Pin_8*%
%TO.N,Net-(J4-Pin_8)*%
X27687000Y-22224000D03*
%TD*%
D15*
%TO.P,J3,1,Pin_1*%
%TO.N,Net-(J3-Pin_1)*%
X9907000Y-1904000D03*
D16*
%TO.P,J3,2,Pin_2*%
%TO.N,Net-(J3-Pin_2)*%
X12447000Y-1904000D03*
%TO.P,J3,3,Pin_3*%
%TO.N,Net-(J3-Pin_3)*%
X14987000Y-1904000D03*
%TO.P,J3,4,Pin_4*%
%TO.N,Net-(J3-Pin_4)*%
X17527000Y-1904000D03*
%TO.P,J3,5,Pin_5*%
%TO.N,Net-(J3-Pin_5)*%
X20067000Y-1904000D03*
%TO.P,J3,6,Pin_6*%
%TO.N,/RST*%
X22607000Y-1904000D03*
%TO.P,J3,7,Pin_7*%
%TO.N,Net-(J3-Pin_7)*%
X25147000Y-1904000D03*
%TO.P,J3,8,Pin_8*%
%TO.N,Net-(J3-Pin_8)*%
X27687000Y-1904000D03*
%TD*%
D17*
%TO.P,SW1,1,1*%
%TO.N,/RST*%
X33477000Y-6004000D03*
X26977000Y-6004000D03*
%TO.P,SW1,2,2*%
%TO.N,+5V*%
X33477000Y-10504000D03*
X26977000Y-10504000D03*
%TD*%
%TO.P,SW2,1,1*%
%TO.N,/USB_DP*%
X33477000Y-13624000D03*
X26977000Y-13624000D03*
%TO.P,SW2,2,2*%
%TO.N,Net-(R1-Pad1)*%
X33477000Y-18124000D03*
X26977000Y-18124000D03*
%TD*%
D18*
%TO.P,R1,1*%
%TO.N,Net-(R1-Pad1)*%
X16447000Y-18414000D03*
%TO.P,R1,2*%
%TO.N,Net-(R1-Pad2)*%
X14797000Y-18414000D03*
%TD*%
D19*
%TO.P,C3,1*%
%TO.N,+5V*%
X14834000Y-16636000D03*
%TO.P,C3,2*%
%TO.N,GNDD*%
X16384000Y-16636000D03*
%TD*%
D20*
%TO.P,U1,16,Pin_16*%
%TO.N,+3V3*%
X13082000Y-14604000D03*
%TO.P,U1,15,Pin_15*%
%TO.N,+5V*%
X14352000Y-14604000D03*
%TO.P,U1,14,Pin_14*%
%TO.N,GNDD*%
X15622000Y-14604000D03*
%TO.P,U1,13,Pin_13*%
%TO.N,/USB_DN*%
X16892000Y-14604000D03*
%TO.P,U1,12,Pin_12*%
%TO.N,/USB_DP*%
X18162000Y-14604000D03*
%TO.P,U1,11,Pin_11*%
%TO.N,Net-(J4-Pin_6)*%
X19432000Y-14604000D03*
%TO.P,U1,10,Pin_10*%
%TO.N,Net-(J4-Pin_7)*%
X20702000Y-14604000D03*
%TO.P,U1,9,Pin_9*%
%TO.N,Net-(J4-Pin_8)*%
X21972000Y-14604000D03*
%TO.P,U1,8,Pin_8*%
%TO.N,Net-(J3-Pin_8)*%
X21972000Y-9654000D03*
%TO.P,U1,7,Pin_7*%
%TO.N,Net-(J3-Pin_7)*%
X20702000Y-9654000D03*
%TO.P,U1,6,Pin_6*%
%TO.N,/RST*%
X19432000Y-9654000D03*
%TO.P,U1,5,Pin_5*%
%TO.N,Net-(J3-Pin_5)*%
X18162000Y-9654000D03*
%TO.P,U1,4,Pin_4*%
%TO.N,Net-(J3-Pin_4)*%
X16892000Y-9654000D03*
%TO.P,U1,3,Pin_3*%
%TO.N,Net-(J3-Pin_3)*%
X15622000Y-9654000D03*
%TO.P,U1,2,Pin_2*%
%TO.N,Net-(J3-Pin_2)*%
X14352000Y-9654000D03*
%TO.P,U1,1,Pin_1*%
%TO.N,Net-(J3-Pin_1)*%
X13082000Y-9654000D03*
%TD*%
D21*
%TO.P,C2,1*%
%TO.N,+3V3*%
X12713000Y-16891000D03*
%TO.P,C2,2*%
%TO.N,GND*%
X11163000Y-16891000D03*
%TD*%
%TO.P,C1,1*%
%TO.N,+3V3*%
X12713000Y-18415000D03*
%TO.P,C1,2*%
%TO.N,GND*%
X11163000Y-18415000D03*
%TD*%
D18*
%TO.P,R2,1*%
%TO.N,Net-(R1-Pad2)*%
X14541000Y-19939000D03*
%TO.P,R2,2*%
%TO.N,+3V3*%
X12891000Y-19939000D03*
%TD*%
D22*
%TO.P,C4,1*%
%TO.N,+5V*%
X11303000Y-13401000D03*
%TO.P,C4,2*%
%TO.N,GND*%
X11303000Y-15301000D03*
%TD*%
D23*
%TO.N,GNDD*%
X10346998Y-12215000D02*
X9436000Y-13125998D01*
X9436000Y-13125998D02*
X9436000Y-13640000D01*
X15622000Y-14604000D02*
X15622000Y-13629001D01*
X15622000Y-13629001D02*
X14207999Y-12215000D01*
X14207999Y-12215000D02*
X10346998Y-12215000D01*
D24*
%TO.N,GND*%
X9436000Y-15290000D02*
X11292000Y-15290000D01*
X11292000Y-15290000D02*
X11303000Y-15301000D01*
X7836000Y-15290000D02*
X9436000Y-15290000D01*
D23*
X7036000Y-15265000D02*
X7061000Y-15290000D01*
X7061000Y-15290000D02*
X7836000Y-15290000D01*
D25*
X7036000Y-9015000D02*
X7836000Y-9015000D01*
D23*
%TO.N,+5V*%
X11303000Y-13401000D02*
X10239000Y-14465000D01*
D26*
X10239000Y-14465000D02*
X8436000Y-14465000D01*
D25*
%TO.N,Net-(J1-CC1)*%
X5956000Y-13315000D02*
X7511000Y-13315000D01*
X7511000Y-13315000D02*
X7836000Y-13640000D01*
D23*
%TO.N,GND*%
X5391000Y-7745000D02*
X5391000Y-8150000D01*
X5391000Y-8150000D02*
X5956000Y-8715000D01*
X5391000Y-16385000D02*
X5391000Y-15980000D01*
X5391000Y-15980000D02*
X5956000Y-15415000D01*
%TO.N,+3V3*%
X9907000Y-22224000D02*
X11303000Y-20828000D01*
X13082000Y-16128000D02*
X13082000Y-14604000D01*
X11303000Y-20828000D02*
X11938000Y-20828000D01*
X11938000Y-20828000D02*
X12886000Y-19880000D01*
X12886000Y-19880000D02*
X12886000Y-16324000D01*
X12886000Y-16324000D02*
X13082000Y-16128000D01*
D25*
%TO.N,Net-(J1-CC2)*%
X5956000Y-10315000D02*
X9511000Y-10315000D01*
X9511000Y-10315000D02*
X9586000Y-10240000D01*
D26*
%TO.N,+5V*%
X8936000Y-14465000D02*
X7086000Y-14465000D01*
D25*
X5956000Y-14615000D02*
X5696000Y-14355000D01*
X5399528Y-9515000D02*
X5956000Y-9515000D01*
X5696000Y-14355000D02*
X5121000Y-14355000D01*
X5121000Y-14355000D02*
X4606000Y-13840000D01*
X4606000Y-13840000D02*
X4606000Y-10308528D01*
X4606000Y-10308528D02*
X5399528Y-9515000D01*
%TO.N,/USB_DN*%
X5956000Y-12815000D02*
X7172396Y-12815000D01*
X7172396Y-12815000D02*
X7486000Y-12501396D01*
X7486000Y-12128604D02*
X7172396Y-11815000D01*
X7486000Y-12501396D02*
X7486000Y-12128604D01*
X7172396Y-11815000D02*
X5956000Y-11815000D01*
%TO.N,/USB_DP*%
X5956000Y-11315000D02*
X5081000Y-11315000D01*
X5081000Y-11315000D02*
X5056000Y-11340000D01*
X5056000Y-11340000D02*
X5056000Y-12290000D01*
X5056000Y-12290000D02*
X5081000Y-12315000D01*
X5081000Y-12315000D02*
X5956000Y-12315000D01*
%TO.N,/USB_DN*%
X16892000Y-11810000D02*
X16596000Y-11514000D01*
X16596000Y-11514000D02*
X7609792Y-11514000D01*
X7609792Y-11514000D02*
X7308792Y-11815000D01*
X7308792Y-11815000D02*
X5956000Y-11815000D01*
%TO.N,/USB_DP*%
X18162000Y-13334000D02*
X18162000Y-11556000D01*
X18162000Y-11556000D02*
X17654000Y-11048000D01*
X17654000Y-11048000D02*
X7439396Y-11048000D01*
X7439396Y-11048000D02*
X7172396Y-11315000D01*
X7172396Y-11315000D02*
X5956000Y-11315000D01*
%TO.N,+5V*%
X7036000Y-14465000D02*
X7036000Y-14615000D01*
X7036000Y-14315000D02*
X7036000Y-14465000D01*
%TO.N,GND*%
X7036000Y-15265000D02*
X7036000Y-15415000D01*
X7036000Y-15115000D02*
X7036000Y-15265000D01*
X5956000Y-9015000D02*
X7036000Y-9015000D01*
X5956000Y-8715000D02*
X7036000Y-8715000D01*
%TO.N,+5V*%
X5956000Y-9815000D02*
X7036000Y-9815000D01*
X5956000Y-9515000D02*
X7036000Y-9515000D01*
%TO.N,unconnected-(J1-SBU1-PadA8)*%
X5956000Y-10815000D02*
X7036000Y-10815000D01*
%TO.N,GND*%
X5956000Y-15415000D02*
X7036000Y-15415000D01*
X5956000Y-15115000D02*
X7036000Y-15115000D01*
%TO.N,+5V*%
X5956000Y-14615000D02*
X7036000Y-14615000D01*
X5956000Y-14315000D02*
X7036000Y-14315000D01*
%TO.N,unconnected-(J1-SBU2-PadB8)*%
X5956000Y-13815000D02*
X7036000Y-13815000D01*
%TO.N,/USB_DP*%
X7036000Y-12315000D02*
X5956000Y-12315000D01*
%TO.N,GNDD*%
X15621000Y-17399000D02*
X15621000Y-19431000D01*
D23*
X16384000Y-16636000D02*
X15621000Y-17399000D01*
X15621000Y-19431000D02*
X15621000Y-20574000D01*
X16384000Y-16636000D02*
X15622000Y-15874000D01*
X14987000Y-21208000D02*
X14987000Y-22224000D01*
X15622000Y-15874000D02*
X15622000Y-14604000D01*
%TO.N,GND*%
X11163000Y-16891000D02*
X11163000Y-16396000D01*
X11303000Y-16256000D02*
X11303000Y-15301000D01*
%TO.N,GNDD*%
X15621000Y-20574000D02*
X15522000Y-20673000D01*
%TO.N,GND*%
X11163000Y-16396000D02*
X11303000Y-16256000D01*
%TO.N,GNDD*%
X15522000Y-20673000D02*
X14987000Y-21208000D01*
D25*
%TO.N,+5V*%
X13716000Y-20953000D02*
X13716000Y-18797000D01*
D23*
X14352000Y-17145000D02*
X13717000Y-17780000D01*
D25*
X12447000Y-22224000D02*
X12447000Y-24004000D01*
X13716000Y-18797000D02*
X13717000Y-18796000D01*
D23*
X11637000Y-13067000D02*
X11303000Y-13401000D01*
X14352000Y-13715000D02*
X13704000Y-13067000D01*
X33493000Y-10504000D02*
X35116500Y-12127500D01*
X13704000Y-13067000D02*
X11637000Y-13067000D01*
D25*
X35116500Y-18604500D02*
X35116500Y-12127500D01*
X29717000Y-24004000D02*
X35116500Y-18604500D01*
X13717000Y-20954000D02*
X13716000Y-20953000D01*
X14352000Y-14604000D02*
X14352000Y-13715000D01*
D23*
X13717000Y-17780000D02*
X13717000Y-18796000D01*
X13717000Y-20954000D02*
X12447000Y-22224000D01*
D25*
X33477000Y-10504000D02*
X33493000Y-10504000D01*
X12447000Y-24004000D02*
X29717000Y-24004000D01*
D23*
X14352000Y-14604000D02*
X14352000Y-17145000D01*
D27*
%TO.N,Net-(J3-Pin_8)*%
X21972000Y-7619000D02*
X27687000Y-1904000D01*
X21972000Y-9654000D02*
X21972000Y-7619000D01*
%TO.N,Net-(J3-Pin_7)*%
X20702000Y-9654000D02*
X20702000Y-6349000D01*
X20702000Y-6349000D02*
X25147000Y-1904000D01*
%TO.N,Net-(J3-Pin_5)*%
X20067000Y-1904000D02*
X18162000Y-3809000D01*
X18162000Y-3809000D02*
X18162000Y-9654000D01*
D25*
X18162000Y-10413000D02*
X18162000Y-9654000D01*
D27*
%TO.N,Net-(J3-Pin_4)*%
X16892000Y-9654000D02*
X16892000Y-2539000D01*
X16892000Y-2539000D02*
X17527000Y-1904000D01*
%TO.N,/RST*%
X19432000Y-9654000D02*
X19432000Y-5079000D01*
D23*
X19432000Y-9654000D02*
X19432000Y-10605000D01*
X25401000Y-8508000D02*
X25401000Y-7580000D01*
X19432000Y-10605000D02*
X20129000Y-11302000D01*
D27*
X19432000Y-5079000D02*
X22607000Y-1904000D01*
D23*
X22607000Y-11302000D02*
X25401000Y-8508000D01*
X25401000Y-7580000D02*
X26977000Y-6004000D01*
X20129000Y-11302000D02*
X22607000Y-11302000D01*
D27*
%TO.N,Net-(J3-Pin_3)*%
X15622000Y-9654000D02*
X15622000Y-2539000D01*
X15622000Y-2539000D02*
X14987000Y-1904000D01*
%TO.N,Net-(J3-Pin_2)*%
X14352000Y-9654000D02*
X14352000Y-3809000D01*
X14352000Y-3809000D02*
X12447000Y-1904000D01*
%TO.N,Net-(J3-Pin_1)*%
X13082000Y-9654000D02*
X13082000Y-6349000D01*
X10415000Y-3682000D02*
X10161000Y-3682000D01*
X10161000Y-3682000D02*
X9907000Y-3428000D01*
X9907000Y-3428000D02*
X9907000Y-1904000D01*
X13082000Y-6349000D02*
X10415000Y-3682000D01*
%TO.N,Net-(J4-Pin_8)*%
X21972000Y-15493000D02*
X21972000Y-14604000D01*
X27687000Y-22224000D02*
X27687000Y-21208000D01*
X27687000Y-21208000D02*
X21972000Y-15493000D01*
%TO.N,Net-(J4-Pin_7)*%
X25147000Y-22224000D02*
X25147000Y-20700000D01*
X25147000Y-20700000D02*
X20702000Y-16255000D01*
X20702000Y-16255000D02*
X20702000Y-14604000D01*
%TO.N,Net-(J4-Pin_6)*%
X19432000Y-19049000D02*
X19432000Y-16382000D01*
D23*
X19432000Y-16382000D02*
X19432000Y-14604000D01*
D27*
X22607000Y-22224000D02*
X19432000Y-19049000D01*
D25*
%TO.N,/USB_DP*%
X32115000Y-14986000D02*
X32004000Y-14986000D01*
D23*
X18162000Y-13334000D02*
X18162000Y-12064000D01*
D25*
X25417000Y-12064000D02*
X26977000Y-13624000D01*
D23*
X18162000Y-14604000D02*
X18162000Y-13334000D01*
D25*
X33477000Y-13624000D02*
X32115000Y-14986000D01*
D23*
X18162000Y-12064000D02*
X25417000Y-12064000D01*
%TO.N,/USB_DN*%
X16892000Y-14604000D02*
X16892000Y-11810000D01*
%TO.N,Net-(R1-Pad1)*%
X26557000Y-17704000D02*
X26977000Y-17704000D01*
D25*
X18797000Y-13334000D02*
X19305000Y-12826000D01*
X16447000Y-18414000D02*
X17527000Y-18414000D01*
X18797000Y-15874000D02*
X18797000Y-13334000D01*
X17622000Y-17049000D02*
X18797000Y-15874000D01*
X17622000Y-18319000D02*
X17622000Y-17049000D01*
D23*
X19305000Y-12826000D02*
X22607000Y-12826000D01*
X22607000Y-12826000D02*
X23115000Y-13334000D01*
X23115000Y-13334000D02*
X23115000Y-14262000D01*
D25*
X17527000Y-18414000D02*
X17622000Y-18319000D01*
X26977000Y-17704000D02*
X26977000Y-18124000D01*
D23*
X23115000Y-14262000D02*
X26557000Y-17704000D01*
%TO.N,Net-(R1-Pad2)*%
X14491000Y-19926000D02*
X14797000Y-19620000D01*
X14797000Y-19620000D02*
X14797000Y-18414000D01*
X14491000Y-19939000D02*
X14491000Y-19926000D01*
%TD*%
%TA.AperFunction,Conductor*%
%TO.N,GND*%
G36*
X5078900Y-20185D02*
G01*
X5124655Y-72989D01*
X5135545Y-115654D01*
X5145748Y-258310D01*
X5196030Y-393119D01*
X5229515Y-454442D01*
X5315739Y-569623D01*
X5315743Y-569627D01*
X5315748Y-569633D01*
X5805616Y-1059500D01*
X7405616Y-2659500D01*
X7987853Y-3241738D01*
X7987877Y-3241761D01*
X8000839Y-3254270D01*
X8007317Y-3260302D01*
X8020765Y-3272383D01*
X8141805Y-3350170D01*
X8141810Y-3350172D01*
X8141815Y-3350175D01*
X8170528Y-3363287D01*
X8204911Y-3378989D01*
X8205348Y-3379191D01*
X8205359Y-3379194D01*
X8205361Y-3379195D01*
X8205364Y-3379197D01*
X8311111Y-3410245D01*
X8369888Y-3448018D01*
X8395273Y-3503601D01*
X8397364Y-3503147D01*
X8399248Y-3511810D01*
X8449530Y-3646619D01*
X8483015Y-3707942D01*
X8569239Y-3823123D01*
X8569243Y-3823127D01*
X8569248Y-3823133D01*
X11777181Y-7031065D01*
X11810666Y-7092388D01*
X11813500Y-7118746D01*
X11813500Y-8223417D01*
X11813820Y-8241399D01*
X11814139Y-8250315D01*
X11815103Y-8268301D01*
X11815105Y-8268316D01*
X11845686Y-8408892D01*
X11845688Y-8408899D01*
X11852176Y-8426293D01*
X11870105Y-8474364D01*
X11870107Y-8474368D01*
X11912565Y-8552123D01*
X11939056Y-8600638D01*
X12028683Y-8690268D01*
X12062167Y-8751591D01*
X12065000Y-8777947D01*
X12065000Y-10298500D01*
X12045315Y-10365539D01*
X11992511Y-10411294D01*
X11941000Y-10422500D01*
X10685500Y-10422500D01*
X10618461Y-10402815D01*
X10572706Y-10350011D01*
X10561500Y-10298500D01*
X10561500Y-9983386D01*
X10555086Y-9912807D01*
X10555086Y-9912804D01*
X10504478Y-9750394D01*
X10416472Y-9604815D01*
X10416470Y-9604813D01*
X10416469Y-9604811D01*
X10313984Y-9502326D01*
X10280499Y-9441003D01*
X10285483Y-9371311D01*
X10313985Y-9326963D01*
X10416071Y-9224878D01*
X10416072Y-9224877D01*
X10504019Y-9079395D01*
X10554590Y-8917106D01*
X10561000Y-8846572D01*
X10561000Y-8840000D01*
X8611001Y-8840000D01*
X8611001Y-8846582D01*
X8617408Y-8917102D01*
X8617409Y-8917107D01*
X8667981Y-9079396D01*
X8755927Y-9224877D01*
X8858015Y-9326965D01*
X8891500Y-9388288D01*
X8886516Y-9457980D01*
X8858015Y-9502327D01*
X8755531Y-9604810D01*
X8755528Y-9604814D01*
X8740514Y-9629651D01*
X8688986Y-9676838D01*
X8634398Y-9689500D01*
X7788785Y-9689500D01*
X7721746Y-9669815D01*
X7675991Y-9617011D01*
X7665890Y-9562363D01*
X7665717Y-9562374D01*
X7665626Y-9560936D01*
X7665030Y-9557709D01*
X7665224Y-9554598D01*
X7665227Y-9554588D01*
X7655304Y-9396862D01*
X7606467Y-9246559D01*
X7521786Y-9113123D01*
X7406582Y-9004938D01*
X7406579Y-9004936D01*
X7406577Y-9004934D01*
X7268095Y-8928804D01*
X7268087Y-8928801D01*
X7115021Y-8889500D01*
X7115019Y-8889500D01*
X7106862Y-8889500D01*
X7039823Y-8869815D01*
X7033848Y-8865000D01*
X6590167Y-8865000D01*
X6582188Y-8864572D01*
X6582183Y-8864678D01*
X6578879Y-8864500D01*
X6578873Y-8864500D01*
X6578866Y-8864500D01*
X5930000Y-8864500D01*
X5862961Y-8844815D01*
X5817206Y-8792011D01*
X5806000Y-8740500D01*
X5806000Y-8689000D01*
X5825685Y-8621961D01*
X5878489Y-8576206D01*
X5930000Y-8565000D01*
X7031000Y-8565000D01*
X7031000Y-8517172D01*
X7030999Y-8517155D01*
X7024598Y-8457627D01*
X7024596Y-8457620D01*
X6980727Y-8340000D01*
X8611000Y-8340000D01*
X9336000Y-8340000D01*
X9336000Y-7690000D01*
X9836000Y-7690000D01*
X9836000Y-8340000D01*
X10560999Y-8340000D01*
X10560999Y-8333417D01*
X10554591Y-8262897D01*
X10554590Y-8262892D01*
X10504018Y-8100603D01*
X10416072Y-7955122D01*
X10295877Y-7834927D01*
X10150395Y-7746980D01*
X10150396Y-7746980D01*
X9988105Y-7696409D01*
X9988106Y-7696409D01*
X9917572Y-7690000D01*
X9836000Y-7690000D01*
X9336000Y-7690000D01*
X9335999Y-7689999D01*
X9254417Y-7690000D01*
X9183897Y-7696408D01*
X9183892Y-7696409D01*
X9021603Y-7746981D01*
X8876122Y-7834927D01*
X8755927Y-7955122D01*
X8667980Y-8100604D01*
X8617409Y-8262893D01*
X8611000Y-8333427D01*
X8611000Y-8340000D01*
X6980727Y-8340000D01*
X6974354Y-8322913D01*
X6974350Y-8322906D01*
X6897202Y-8219850D01*
X6872784Y-8154386D01*
X6883247Y-8100675D01*
X6881404Y-8099993D01*
X6883588Y-8094095D01*
X6909246Y-7995000D01*
X6107111Y-7995000D01*
X6146610Y-7970543D01*
X6214201Y-7881038D01*
X6244895Y-7773160D01*
X6234546Y-7661479D01*
X6184552Y-7561078D01*
X6112069Y-7495000D01*
X6914366Y-7495000D01*
X6914068Y-7493053D01*
X6914066Y-7493047D01*
X6843437Y-7302342D01*
X6843434Y-7302335D01*
X6735850Y-7129732D01*
X6595735Y-6982331D01*
X6595733Y-6982330D01*
X6428804Y-6866143D01*
X6241907Y-6785940D01*
X6042690Y-6745000D01*
X5641000Y-6745000D01*
X5641000Y-7445000D01*
X5141000Y-7445000D01*
X5141000Y-6745000D01*
X4790287Y-6745000D01*
X4638661Y-6760418D01*
X4444618Y-6821299D01*
X4444608Y-6821304D01*
X4266784Y-6920005D01*
X4266783Y-6920005D01*
X4112469Y-7052478D01*
X4112468Y-7052479D01*
X3987981Y-7213304D01*
X3898411Y-7395906D01*
X3872754Y-7495000D01*
X4674889Y-7495000D01*
X4635390Y-7519457D01*
X4567799Y-7608962D01*
X4537105Y-7716840D01*
X4547454Y-7828521D01*
X4597448Y-7928922D01*
X4669931Y-7995000D01*
X3867634Y-7995000D01*
X3867931Y-7996946D01*
X3867933Y-7996952D01*
X3938562Y-8187657D01*
X3938565Y-8187664D01*
X4046149Y-8360267D01*
X4186264Y-8507668D01*
X4186266Y-8507669D01*
X4353195Y-8623856D01*
X4474722Y-8676007D01*
X4528566Y-8720534D01*
X4549789Y-8787102D01*
X4531654Y-8854577D01*
X4530139Y-8856996D01*
X4521901Y-8869815D01*
X4454022Y-8975439D01*
X4454021Y-8975440D01*
X4454020Y-8975443D01*
X4415500Y-9106632D01*
X4415500Y-9243367D01*
X4454021Y-9374559D01*
X4478774Y-9413077D01*
X4498458Y-9480117D01*
X4478772Y-9547156D01*
X4462139Y-9567796D01*
X4222208Y-9807727D01*
X4209951Y-9817548D01*
X4210134Y-9817769D01*
X4204122Y-9822742D01*
X4158098Y-9871751D01*
X4155391Y-9874544D01*
X4135889Y-9894045D01*
X4135875Y-9894062D01*
X4133407Y-9897243D01*
X4125843Y-9906098D01*
X4095937Y-9937946D01*
X4095936Y-9937948D01*
X4086284Y-9955504D01*
X4075610Y-9971754D01*
X4063329Y-9987589D01*
X4063324Y-9987596D01*
X4045975Y-10027686D01*
X4040838Y-10038172D01*
X4019803Y-10076434D01*
X4014822Y-10095835D01*
X4008521Y-10114238D01*
X4000562Y-10132630D01*
X4000561Y-10132633D01*
X3993728Y-10175771D01*
X3991360Y-10187202D01*
X3980501Y-10229499D01*
X3980500Y-10229510D01*
X3980500Y-10249544D01*
X3978973Y-10268943D01*
X3975840Y-10288722D01*
X3975840Y-10288723D01*
X3979950Y-10332202D01*
X3980500Y-10343871D01*
X3980500Y-13757255D01*
X3978775Y-13772872D01*
X3979061Y-13772899D01*
X3978326Y-13780665D01*
X3980439Y-13847872D01*
X3980500Y-13851767D01*
X3980500Y-13879357D01*
X3981003Y-13883335D01*
X3981918Y-13894967D01*
X3983290Y-13938624D01*
X3983291Y-13938627D01*
X3988880Y-13957867D01*
X3992824Y-13976911D01*
X3995336Y-13996792D01*
X4011414Y-14037403D01*
X4015197Y-14048452D01*
X4027381Y-14090388D01*
X4037580Y-14107634D01*
X4046138Y-14125103D01*
X4053514Y-14143732D01*
X4079181Y-14179060D01*
X4085593Y-14188821D01*
X4107828Y-14226417D01*
X4107833Y-14226424D01*
X4121990Y-14240580D01*
X4134628Y-14255376D01*
X4146405Y-14271586D01*
X4146406Y-14271587D01*
X4180057Y-14299425D01*
X4188698Y-14307288D01*
X4454890Y-14573481D01*
X4488375Y-14634804D01*
X4483391Y-14704496D01*
X4471527Y-14728198D01*
X4454022Y-14755436D01*
X4454020Y-14755441D01*
X4415500Y-14886632D01*
X4415500Y-15023367D01*
X4454020Y-15154557D01*
X4454021Y-15154559D01*
X4454022Y-15154561D01*
X4527945Y-15269589D01*
X4527946Y-15269590D01*
X4528639Y-15270668D01*
X4548323Y-15337708D01*
X4528638Y-15404747D01*
X4475834Y-15450502D01*
X4461448Y-15456019D01*
X4444617Y-15461300D01*
X4444608Y-15461304D01*
X4266784Y-15560005D01*
X4266783Y-15560005D01*
X4112469Y-15692478D01*
X4112468Y-15692479D01*
X3987981Y-15853304D01*
X3898411Y-16035906D01*
X3872754Y-16135000D01*
X4674889Y-16135000D01*
X4635390Y-16159457D01*
X4567799Y-16248962D01*
X4537105Y-16356840D01*
X4547454Y-16468521D01*
X4597448Y-16568922D01*
X4669931Y-16635000D01*
X3867634Y-16635000D01*
X3867931Y-16636946D01*
X3867933Y-16636952D01*
X3938562Y-16827657D01*
X3938565Y-16827664D01*
X4046149Y-17000267D01*
X4186264Y-17147668D01*
X4186266Y-17147669D01*
X4353195Y-17263856D01*
X4540092Y-17344059D01*
X4739310Y-17385000D01*
X5141000Y-17385000D01*
X5141000Y-16685000D01*
X5641000Y-16685000D01*
X5641000Y-17385000D01*
X5991713Y-17385000D01*
X6143338Y-17369581D01*
X6337381Y-17308700D01*
X6337391Y-17308695D01*
X6515215Y-17209994D01*
X6515216Y-17209994D01*
X6669530Y-17077521D01*
X6669531Y-17077520D01*
X6794018Y-16916695D01*
X6883588Y-16734093D01*
X6909246Y-16635000D01*
X6107111Y-16635000D01*
X6146610Y-16610543D01*
X6214201Y-16521038D01*
X6244895Y-16413160D01*
X6234546Y-16301479D01*
X6184552Y-16201078D01*
X6112069Y-16135000D01*
X6914367Y-16135000D01*
X6920416Y-16127952D01*
X6926390Y-16083500D01*
X6971655Y-16030275D01*
X7038510Y-16009972D01*
X7105728Y-16029037D01*
X7120141Y-16040542D01*
X7120217Y-16040446D01*
X7126122Y-16045072D01*
X7271604Y-16133019D01*
X7271603Y-16133019D01*
X7433894Y-16183590D01*
X7433892Y-16183590D01*
X7504418Y-16189999D01*
X7585999Y-16189998D01*
X7586000Y-16189998D01*
X7586000Y-15540000D01*
X8086000Y-15540000D01*
X8086000Y-16189999D01*
X8167581Y-16189999D01*
X8238102Y-16183591D01*
X8238107Y-16183590D01*
X8400396Y-16133018D01*
X8545873Y-16045074D01*
X8548313Y-16042635D01*
X8550544Y-16041416D01*
X8551783Y-16040446D01*
X8551944Y-16040651D01*
X8609634Y-16009146D01*
X8679326Y-16014126D01*
X8723687Y-16042635D01*
X8726126Y-16045074D01*
X8871604Y-16133019D01*
X8871603Y-16133019D01*
X9033894Y-16183590D01*
X9033892Y-16183590D01*
X9104418Y-16189999D01*
X9185999Y-16189998D01*
X9186000Y-16189998D01*
X9186000Y-15540000D01*
X9686000Y-15540000D01*
X9686000Y-16189999D01*
X9767581Y-16189999D01*
X9838102Y-16183591D01*
X9838107Y-16183590D01*
X10000398Y-16133018D01*
X10134744Y-16051802D01*
X10202299Y-16033965D01*
X10268773Y-16055482D01*
X10286576Y-16070237D01*
X10311044Y-16094705D01*
X10344529Y-16156028D01*
X10339545Y-16225720D01*
X10328902Y-16247483D01*
X10276454Y-16332513D01*
X10276452Y-16332518D01*
X10223144Y-16493393D01*
X10213000Y-16592677D01*
X10213000Y-16641000D01*
X10913000Y-16641000D01*
X10913000Y-15997000D01*
X10932685Y-15929961D01*
X10985489Y-15884206D01*
X11037000Y-15873000D01*
X11053000Y-15873000D01*
X11053000Y-15551000D01*
X10097362Y-15551000D01*
X10059901Y-15540000D01*
X9686000Y-15540000D01*
X9186000Y-15540000D01*
X8086000Y-15540000D01*
X7586000Y-15540000D01*
X7064590Y-15540000D01*
X7023996Y-15562166D01*
X6997638Y-15565000D01*
X5930000Y-15565000D01*
X5862961Y-15545315D01*
X5817206Y-15492511D01*
X5806000Y-15441000D01*
X5806000Y-15389499D01*
X5825685Y-15322460D01*
X5878489Y-15276705D01*
X5929997Y-15265499D01*
X6578872Y-15265499D01*
X6578872Y-15265498D01*
X6582196Y-15265321D01*
X6582201Y-15265426D01*
X6590163Y-15265000D01*
X6827826Y-15265000D01*
X6867504Y-15243334D01*
X6893862Y-15240500D01*
X6965153Y-15240500D01*
X6988385Y-15242696D01*
X6989989Y-15243001D01*
X6996412Y-15244227D01*
X6996413Y-15244226D01*
X6996414Y-15244227D01*
X7051759Y-15240745D01*
X7059545Y-15240500D01*
X7075342Y-15240500D01*
X7075350Y-15240500D01*
X7091071Y-15238513D01*
X7098735Y-15237789D01*
X7154138Y-15234304D01*
X7161905Y-15231780D01*
X7184680Y-15226688D01*
X7192792Y-15225664D01*
X7244396Y-15205231D01*
X7251673Y-15202611D01*
X7270280Y-15196566D01*
X7308589Y-15190500D01*
X8351201Y-15190500D01*
X10010829Y-15190500D01*
X10036281Y-15193850D01*
X10036287Y-15193815D01*
X10038757Y-15194176D01*
X10042921Y-15194725D01*
X10043429Y-15194861D01*
X10043431Y-15194861D01*
X10043433Y-15194862D01*
X10217023Y-15220289D01*
X10391797Y-15204999D01*
X10558334Y-15149814D01*
X10641530Y-15098498D01*
X10688608Y-15069461D01*
X10753704Y-15051000D01*
X11429000Y-15051000D01*
X11496039Y-15070685D01*
X11541794Y-15123489D01*
X11553000Y-15175000D01*
X11553000Y-16220000D01*
X11533315Y-16287039D01*
X11480511Y-16332794D01*
X11429000Y-16344000D01*
X11413000Y-16344000D01*
X11413000Y-19389999D01*
X11436308Y-19389999D01*
X11436322Y-19389998D01*
X11535607Y-19379855D01*
X11696481Y-19326547D01*
X11696492Y-19326542D01*
X11840731Y-19237573D01*
X11849959Y-19228345D01*
X11911279Y-19194856D01*
X11980971Y-19199835D01*
X12025327Y-19228339D01*
X12025493Y-19228505D01*
X12058978Y-19289828D01*
X12053994Y-19359520D01*
X12050203Y-19367373D01*
X12050601Y-19367552D01*
X12047524Y-19374388D01*
X11996913Y-19536807D01*
X11990500Y-19607386D01*
X11990500Y-19662770D01*
X11970815Y-19729809D01*
X11954181Y-19750451D01*
X11663451Y-20041181D01*
X11602128Y-20074666D01*
X11575770Y-20077500D01*
X11366705Y-20077500D01*
X11348735Y-20076191D01*
X11324972Y-20072710D01*
X11278642Y-20076764D01*
X11275632Y-20077028D01*
X11264826Y-20077500D01*
X11259282Y-20077500D01*
X11228488Y-20081099D01*
X11224905Y-20081465D01*
X11150200Y-20088001D01*
X11143134Y-20089461D01*
X11143122Y-20089404D01*
X11135753Y-20091038D01*
X11135767Y-20091095D01*
X11128739Y-20092760D01*
X11058271Y-20118408D01*
X11054867Y-20119591D01*
X10983668Y-20143184D01*
X10977122Y-20146237D01*
X10977097Y-20146185D01*
X10970308Y-20149471D01*
X10970334Y-20149522D01*
X10963886Y-20152760D01*
X10901228Y-20193970D01*
X10898191Y-20195905D01*
X10834344Y-20235288D01*
X10828677Y-20239769D01*
X10828641Y-20239723D01*
X10822798Y-20244484D01*
X10822835Y-20244528D01*
X10817310Y-20249164D01*
X10765848Y-20303709D01*
X10763336Y-20306294D01*
X10232449Y-20837181D01*
X10171126Y-20870666D01*
X10144768Y-20873500D01*
X9009129Y-20873500D01*
X9009123Y-20873501D01*
X8949516Y-20879908D01*
X8814671Y-20930202D01*
X8814664Y-20930206D01*
X8699455Y-21016452D01*
X8699452Y-21016455D01*
X8613206Y-21131664D01*
X8613202Y-21131671D01*
X8562908Y-21266517D01*
X8556501Y-21326116D01*
X8556500Y-21326135D01*
X8556500Y-23121870D01*
X8556501Y-23121876D01*
X8562908Y-23181483D01*
X8613202Y-23316328D01*
X8613206Y-23316335D01*
X8699452Y-23431544D01*
X8699455Y-23431547D01*
X8814664Y-23517793D01*
X8814671Y-23517797D01*
X8949517Y-23568091D01*
X8949516Y-23568091D01*
X8956444Y-23568835D01*
X9009127Y-23574500D01*
X10673500Y-23574499D01*
X10740539Y-23594184D01*
X10786294Y-23646987D01*
X10797500Y-23698499D01*
X10797500Y-24005500D01*
X10777815Y-24072539D01*
X10725011Y-24118294D01*
X10673500Y-24129500D01*
X124500Y-24129500D01*
X57461Y-24109815D01*
X11706Y-24057011D01*
X500Y-24005500D01*
X500Y-18665000D01*
X10213001Y-18665000D01*
X10213001Y-18713322D01*
X10223144Y-18812607D01*
X10276452Y-18973481D01*
X10276457Y-18973492D01*
X10365424Y-19117728D01*
X10365427Y-19117732D01*
X10485267Y-19237572D01*
X10485271Y-19237575D01*
X10629507Y-19326542D01*
X10629518Y-19326547D01*
X10790393Y-19379855D01*
X10889683Y-19389999D01*
X10913000Y-19389998D01*
X10913000Y-18665000D01*
X10213001Y-18665000D01*
X500Y-18665000D01*
X500Y-18165000D01*
X10213000Y-18165000D01*
X10913000Y-18165000D01*
X10913000Y-17141000D01*
X10213001Y-17141000D01*
X10213001Y-17189322D01*
X10223144Y-17288607D01*
X10276452Y-17449481D01*
X10276457Y-17449492D01*
X10361831Y-17587903D01*
X10380272Y-17655295D01*
X10361831Y-17718097D01*
X10276457Y-17856507D01*
X10276452Y-17856518D01*
X10223144Y-18017393D01*
X10213000Y-18116677D01*
X10213000Y-18165000D01*
X500Y-18165000D01*
X500Y-17189031D01*
X20185Y-17121992D01*
X72989Y-17076237D01*
X142147Y-17066293D01*
X205703Y-17095318D01*
X214375Y-17103599D01*
X256268Y-17147671D01*
X423195Y-17263856D01*
X610092Y-17344059D01*
X809310Y-17385000D01*
X961000Y-17385000D01*
X961000Y-16685000D01*
X1461000Y-16685000D01*
X1461000Y-17385000D01*
X1561713Y-17385000D01*
X1713338Y-17369581D01*
X1907381Y-17308700D01*
X1907391Y-17308695D01*
X2085215Y-17209994D01*
X2085216Y-17209994D01*
X2239530Y-17077521D01*
X2239531Y-17077520D01*
X2364018Y-16916695D01*
X2453588Y-16734093D01*
X2479246Y-16635000D01*
X1677111Y-16635000D01*
X1716610Y-16610543D01*
X1784201Y-16521038D01*
X1814895Y-16413160D01*
X1804546Y-16301479D01*
X1754552Y-16201078D01*
X1682069Y-16135000D01*
X2484366Y-16135000D01*
X2484068Y-16133053D01*
X2484066Y-16133047D01*
X2413437Y-15942342D01*
X2413434Y-15942335D01*
X2305850Y-15769732D01*
X2165735Y-15622331D01*
X2165733Y-15622330D01*
X1998804Y-15506143D01*
X1811907Y-15425940D01*
X1612690Y-15385000D01*
X1461000Y-15385000D01*
X1461000Y-16085000D01*
X961000Y-16085000D01*
X961000Y-15385000D01*
X860287Y-15385000D01*
X708661Y-15400418D01*
X514618Y-15461299D01*
X514608Y-15461304D01*
X336787Y-15560003D01*
X205270Y-15672906D01*
X141581Y-15701637D01*
X72469Y-15691375D01*
X19876Y-15645377D01*
X500Y-15578819D01*
X500Y-8549031D01*
X20185Y-8481992D01*
X72989Y-8436237D01*
X142147Y-8426293D01*
X205703Y-8455318D01*
X214375Y-8463599D01*
X256268Y-8507671D01*
X423195Y-8623856D01*
X610092Y-8704059D01*
X809310Y-8745000D01*
X961000Y-8745000D01*
X961000Y-8045000D01*
X1461000Y-8045000D01*
X1461000Y-8745000D01*
X1561713Y-8745000D01*
X1713338Y-8729581D01*
X1907381Y-8668700D01*
X1907391Y-8668695D01*
X2085215Y-8569994D01*
X2085216Y-8569994D01*
X2239530Y-8437521D01*
X2239531Y-8437520D01*
X2364018Y-8276695D01*
X2453588Y-8094093D01*
X2479246Y-7995000D01*
X1677111Y-7995000D01*
X1716610Y-7970543D01*
X1784201Y-7881038D01*
X1814895Y-7773160D01*
X1804546Y-7661479D01*
X1754552Y-7561078D01*
X1682069Y-7495000D01*
X2484366Y-7495000D01*
X2484068Y-7493053D01*
X2484066Y-7493047D01*
X2413437Y-7302342D01*
X2413434Y-7302335D01*
X2305850Y-7129732D01*
X2165735Y-6982331D01*
X2165733Y-6982330D01*
X1998804Y-6866143D01*
X1811907Y-6785940D01*
X1612690Y-6745000D01*
X1461000Y-6745000D01*
X1461000Y-7445000D01*
X961000Y-7445000D01*
X961000Y-6745000D01*
X860287Y-6745000D01*
X708661Y-6760418D01*
X514618Y-6821299D01*
X514608Y-6821304D01*
X336787Y-6920003D01*
X205270Y-7032906D01*
X141581Y-7061637D01*
X72469Y-7051375D01*
X19876Y-7005377D01*
X500Y-6938819D01*
X500Y-124500D01*
X20185Y-57461D01*
X72989Y-11706D01*
X124500Y-500D01*
X5011861Y-500D01*
X5078900Y-20185D01*
G37*
%TD.AperFunction*%
%TD*%
%TA.AperFunction,Conductor*%
%TO.N,/USB_DP*%
G36*
X32211434Y-12590185D02*
G01*
X32257189Y-12642989D01*
X32267133Y-12712147D01*
X32248204Y-12762321D01*
X32153267Y-12907632D01*
X32053412Y-13135282D01*
X31992387Y-13376261D01*
X31992385Y-13376270D01*
X31971859Y-13623994D01*
X31971859Y-13624005D01*
X31992385Y-13871729D01*
X31992387Y-13871738D01*
X32053412Y-14112717D01*
X32153266Y-14340364D01*
X32253564Y-14493882D01*
X32951070Y-13796376D01*
X32953884Y-13809915D01*
X33023442Y-13944156D01*
X33126638Y-14054652D01*
X33255819Y-14133209D01*
X33307001Y-14147549D01*
X32606942Y-14847609D01*
X32653768Y-14884055D01*
X32653770Y-14884056D01*
X32872385Y-15002364D01*
X32872396Y-15002369D01*
X33107506Y-15083083D01*
X33352707Y-15124000D01*
X33601293Y-15124000D01*
X33846493Y-15083083D01*
X34081603Y-15002369D01*
X34081614Y-15002364D01*
X34304745Y-14881613D01*
X34305421Y-14882862D01*
X34366054Y-14864556D01*
X34433242Y-14883728D01*
X34479398Y-14936182D01*
X34491000Y-14988552D01*
X34491000Y-15496000D01*
X34471315Y-15563039D01*
X34418511Y-15608794D01*
X34367000Y-15620000D01*
X27103362Y-15620000D01*
X27036323Y-15600315D01*
X27015681Y-15583681D01*
X26767681Y-15335681D01*
X26734196Y-15274358D01*
X26739180Y-15204666D01*
X26781052Y-15148733D01*
X26846516Y-15124316D01*
X26855362Y-15124000D01*
X27101293Y-15124000D01*
X27346493Y-15083083D01*
X27581603Y-15002369D01*
X27581614Y-15002364D01*
X27800228Y-14884057D01*
X27800231Y-14884055D01*
X27847056Y-14847609D01*
X27148568Y-14149121D01*
X27265458Y-14098349D01*
X27382739Y-14002934D01*
X27469928Y-13879415D01*
X27500354Y-13793802D01*
X28200434Y-14493882D01*
X28300731Y-14340369D01*
X28400587Y-14112717D01*
X28461612Y-13871738D01*
X28461614Y-13871729D01*
X28482141Y-13624005D01*
X28482141Y-13623994D01*
X28461614Y-13376270D01*
X28461612Y-13376261D01*
X28400587Y-13135282D01*
X28300732Y-12907632D01*
X28205796Y-12762321D01*
X28185609Y-12695432D01*
X28204789Y-12628246D01*
X28257247Y-12582096D01*
X28309605Y-12570500D01*
X32144395Y-12570500D01*
X32211434Y-12590185D01*
G37*
%TD.AperFunction*%
%TA.AperFunction,Conductor*%
G36*
X25670677Y-11829685D02*
G01*
X25691319Y-11846319D01*
X26085504Y-12240504D01*
X26118989Y-12301827D01*
X26114005Y-12371519D01*
X26108248Y-12379361D01*
X26106942Y-12400390D01*
X26805431Y-13098878D01*
X26688542Y-13149651D01*
X26571261Y-13245066D01*
X26484072Y-13368585D01*
X26453645Y-13454197D01*
X25753564Y-12754116D01*
X25653267Y-12907632D01*
X25553412Y-13135282D01*
X25492387Y-13376261D01*
X25492385Y-13376270D01*
X25471859Y-13623994D01*
X25471859Y-13623995D01*
X25481497Y-13740319D01*
X25467415Y-13808755D01*
X25418569Y-13858714D01*
X25350468Y-13874334D01*
X25284733Y-13850656D01*
X25270239Y-13838239D01*
X24004000Y-12572000D01*
X23465729Y-12572000D01*
X23398690Y-12552315D01*
X23378050Y-12535683D01*
X23182729Y-12340361D01*
X23170949Y-12326730D01*
X23156610Y-12307470D01*
X23118651Y-12275619D01*
X23110686Y-12268318D01*
X23106780Y-12264411D01*
X23082443Y-12245168D01*
X23079647Y-12242890D01*
X23022214Y-12194698D01*
X23016180Y-12190729D01*
X23016212Y-12190680D01*
X23009853Y-12186628D01*
X23009822Y-12186679D01*
X23003675Y-12182887D01*
X22988389Y-12175759D01*
X22935952Y-12129585D01*
X22916802Y-12062391D01*
X22937020Y-11995510D01*
X22972656Y-11959781D01*
X23008801Y-11936008D01*
X23011839Y-11934074D01*
X23013091Y-11933302D01*
X23075656Y-11894712D01*
X23075659Y-11894708D01*
X23081325Y-11890229D01*
X23081362Y-11890277D01*
X23087204Y-11885518D01*
X23087164Y-11885471D01*
X23092691Y-11880832D01*
X23092696Y-11880830D01*
X23092701Y-11880825D01*
X23114323Y-11857907D01*
X23174646Y-11822652D01*
X23204518Y-11819000D01*
X25276990Y-11819000D01*
X25277000Y-11819000D01*
X25354097Y-11810710D01*
X25367352Y-11810000D01*
X25603638Y-11810000D01*
X25670677Y-11829685D01*
G37*
%TD.AperFunction*%
%TD*%
%TA.AperFunction,Conductor*%
%TO.N,Net-(R1-Pad1)*%
G36*
X22969159Y-12845685D02*
G01*
X22989801Y-12862319D01*
X23020607Y-12893125D01*
X23020625Y-12893141D01*
X23060880Y-12929299D01*
X23081479Y-12945899D01*
X23081501Y-12945916D01*
X23081513Y-12945925D01*
X23125393Y-12977567D01*
X23256270Y-13037338D01*
X23323309Y-13057023D01*
X23323313Y-13057024D01*
X23465729Y-13077500D01*
X23696138Y-13077500D01*
X23763177Y-13097185D01*
X23783819Y-13113819D01*
X26798000Y-16128000D01*
X34367018Y-16128946D01*
X34434052Y-16148638D01*
X34479801Y-16201448D01*
X34491000Y-16252945D01*
X34491000Y-16759447D01*
X34471315Y-16826486D01*
X34418511Y-16872241D01*
X34349353Y-16882185D01*
X34305207Y-16865533D01*
X34304745Y-16866387D01*
X34081614Y-16745635D01*
X34081603Y-16745630D01*
X33846493Y-16664916D01*
X33601293Y-16624000D01*
X33352707Y-16624000D01*
X33107506Y-16664916D01*
X32872396Y-16745630D01*
X32872390Y-16745632D01*
X32653761Y-16863949D01*
X32606942Y-16900388D01*
X32606942Y-16900390D01*
X33305431Y-17598878D01*
X33188542Y-17649651D01*
X33071261Y-17745066D01*
X32984072Y-17868585D01*
X32953645Y-17954197D01*
X32253564Y-17254116D01*
X32153267Y-17407632D01*
X32053412Y-17635282D01*
X31992387Y-17876261D01*
X31992385Y-17876270D01*
X31971859Y-18123994D01*
X31971859Y-18124005D01*
X31992385Y-18371729D01*
X31992387Y-18371738D01*
X32053412Y-18612717D01*
X32153266Y-18840364D01*
X32253564Y-18993882D01*
X32951070Y-18296376D01*
X32953884Y-18309915D01*
X33023442Y-18444156D01*
X33126638Y-18554652D01*
X33255819Y-18633209D01*
X33307001Y-18647549D01*
X32606942Y-19347609D01*
X32653768Y-19384055D01*
X32653770Y-19384056D01*
X32872385Y-19502364D01*
X32872399Y-19502370D01*
X33028177Y-19555849D01*
X33085193Y-19596234D01*
X33111324Y-19661034D01*
X33098273Y-19729674D01*
X33075596Y-19760811D01*
X32169228Y-20667181D01*
X32107905Y-20700666D01*
X32081547Y-20703500D01*
X29207000Y-20703500D01*
X29206991Y-20703500D01*
X29206990Y-20703501D01*
X29099549Y-20715052D01*
X29099537Y-20715054D01*
X29048027Y-20726260D01*
X28945502Y-20760383D01*
X28945496Y-20760386D01*
X28824462Y-20838171D01*
X28824451Y-20838179D01*
X28771659Y-20883923D01*
X28748020Y-20911204D01*
X28689241Y-20948978D01*
X28654308Y-20954000D01*
X28614347Y-20954000D01*
X28547308Y-20934315D01*
X28501553Y-20881511D01*
X28496838Y-20869593D01*
X28486267Y-20838220D01*
X28486266Y-20838218D01*
X28486173Y-20838063D01*
X28476026Y-20816889D01*
X28475961Y-20816712D01*
X28431959Y-20747871D01*
X28430188Y-20745016D01*
X28418902Y-20726259D01*
X28388089Y-20675046D01*
X28387955Y-20674904D01*
X28373504Y-20656419D01*
X28373400Y-20656256D01*
X28315658Y-20598514D01*
X28313316Y-20596109D01*
X28311970Y-20594688D01*
X28257129Y-20536793D01*
X28256970Y-20536685D01*
X28238877Y-20521733D01*
X27872581Y-20155437D01*
X27865201Y-20147038D01*
X27865052Y-20147164D01*
X27862050Y-20143596D01*
X27862038Y-20143583D01*
X27799648Y-20082494D01*
X27798719Y-20081575D01*
X27452513Y-19735369D01*
X27419028Y-19674046D01*
X27424012Y-19604354D01*
X27465884Y-19548421D01*
X27499932Y-19530406D01*
X27581611Y-19502366D01*
X27581614Y-19502364D01*
X27800228Y-19384057D01*
X27800231Y-19384055D01*
X27847056Y-19347609D01*
X27148568Y-18649121D01*
X27265458Y-18598349D01*
X27382739Y-18502934D01*
X27469928Y-18379415D01*
X27500354Y-18293802D01*
X28200434Y-18993882D01*
X28300731Y-18840369D01*
X28400587Y-18612717D01*
X28461612Y-18371738D01*
X28461614Y-18371729D01*
X28482141Y-18124005D01*
X28482141Y-18123994D01*
X28461614Y-17876270D01*
X28461612Y-17876261D01*
X28400587Y-17635282D01*
X28300731Y-17407630D01*
X28200434Y-17254116D01*
X27502929Y-17951622D01*
X27500116Y-17938085D01*
X27430558Y-17803844D01*
X27327362Y-17693348D01*
X27198181Y-17614791D01*
X27146997Y-17600450D01*
X27847057Y-16900390D01*
X27847056Y-16900389D01*
X27800229Y-16863943D01*
X27581614Y-16745635D01*
X27581603Y-16745630D01*
X27346493Y-16664916D01*
X27101293Y-16624000D01*
X26852707Y-16624000D01*
X26607506Y-16664916D01*
X26372396Y-16745630D01*
X26372390Y-16745632D01*
X26153761Y-16863949D01*
X26106942Y-16900388D01*
X26106942Y-16900390D01*
X26805431Y-17598878D01*
X26688542Y-17649651D01*
X26571261Y-17745066D01*
X26484072Y-17868585D01*
X26453645Y-17954197D01*
X25753564Y-17254116D01*
X25653267Y-17407632D01*
X25565035Y-17608783D01*
X25520079Y-17662269D01*
X25453343Y-17682959D01*
X25386015Y-17664284D01*
X25363798Y-17646654D01*
X22883819Y-15166675D01*
X22850334Y-15105352D01*
X22847500Y-15078994D01*
X22847500Y-14556541D01*
X22847500Y-14556535D01*
X22832073Y-14414684D01*
X22778991Y-14257143D01*
X22772500Y-14217549D01*
X22772500Y-13713313D01*
X22772499Y-13713298D01*
X22769598Y-13676432D01*
X22769597Y-13676426D01*
X22723745Y-13518606D01*
X22723744Y-13518603D01*
X22723744Y-13518602D01*
X22640081Y-13377135D01*
X22640078Y-13377132D01*
X22635298Y-13370969D01*
X22637325Y-13369396D01*
X22609834Y-13319049D01*
X22607000Y-13292691D01*
X22607000Y-12950000D01*
X22626685Y-12882961D01*
X22679489Y-12837206D01*
X22731000Y-12826000D01*
X22902120Y-12826000D01*
X22969159Y-12845685D01*
G37*
%TD.AperFunction*%
%TD*%
%TA.AperFunction,Conductor*%
%TO.N,Net-(J4-Pin_7)*%
G36*
X20895039Y-14373685D02*
G01*
X20940794Y-14426489D01*
X20952000Y-14478000D01*
X20952000Y-16076295D01*
X20952001Y-16076295D01*
X20954486Y-16076100D01*
X21112198Y-16030281D01*
X21129379Y-16020120D01*
X21197102Y-16002935D01*
X21263366Y-16025092D01*
X21280113Y-16040722D01*
X21280846Y-16039990D01*
X21285599Y-16044743D01*
X21285600Y-16044744D01*
X21343395Y-16102539D01*
X21345702Y-16104910D01*
X21401866Y-16164203D01*
X21401868Y-16164204D01*
X21401871Y-16164207D01*
X21402028Y-16164314D01*
X21420121Y-16179265D01*
X26375187Y-21134331D01*
X26408672Y-21195654D01*
X26411092Y-21232140D01*
X26406610Y-21286830D01*
X26381515Y-21352038D01*
X26325150Y-21393327D01*
X26255411Y-21397588D01*
X26194438Y-21363469D01*
X26188035Y-21356409D01*
X26185103Y-21352915D01*
X26018082Y-21185894D01*
X25824578Y-21050399D01*
X25610492Y-20950570D01*
X25610486Y-20950567D01*
X25397000Y-20893364D01*
X25397000Y-21788498D01*
X25289315Y-21739320D01*
X25182763Y-21724000D01*
X25111237Y-21724000D01*
X25004685Y-21739320D01*
X24897000Y-21788498D01*
X24897000Y-20893364D01*
X24896999Y-20893364D01*
X24683513Y-20950567D01*
X24683507Y-20950570D01*
X24469422Y-21050399D01*
X24469420Y-21050400D01*
X24275926Y-21185886D01*
X24275920Y-21185891D01*
X24108891Y-21352920D01*
X24108890Y-21352922D01*
X23978880Y-21538595D01*
X23924303Y-21582219D01*
X23854804Y-21589412D01*
X23792450Y-21557890D01*
X23775730Y-21538594D01*
X23645494Y-21352597D01*
X23478402Y-21185506D01*
X23478395Y-21185501D01*
X23463292Y-21174926D01*
X23405317Y-21134331D01*
X23284834Y-21049967D01*
X23273961Y-21044897D01*
X23190425Y-21005943D01*
X23168962Y-20993157D01*
X23163292Y-20988952D01*
X23163291Y-20988951D01*
X21975873Y-20347405D01*
X21947135Y-20325991D01*
X20343819Y-18722675D01*
X20310334Y-18661352D01*
X20307500Y-18634994D01*
X20307500Y-16334541D01*
X20307500Y-16334535D01*
X20304244Y-16304600D01*
X20303551Y-16293993D01*
X20303357Y-16285310D01*
X20300450Y-16267869D01*
X20299491Y-16260897D01*
X20293872Y-16209229D01*
X20306193Y-16140456D01*
X20353740Y-16089260D01*
X20421418Y-16071898D01*
X20443203Y-16075382D01*
X20443280Y-16074962D01*
X20449511Y-16076100D01*
X20451998Y-16076295D01*
X20452000Y-16076295D01*
X20452000Y-14478000D01*
X20471685Y-14410961D01*
X20524489Y-14365206D01*
X20576000Y-14354000D01*
X20828000Y-14354000D01*
X20895039Y-14373685D01*
G37*
%TD.AperFunction*%
%TD*%
%TA.AperFunction,Conductor*%
%TO.N,Net-(R1-Pad1)*%
G36*
X17570274Y-15923104D02*
G01*
X17602695Y-15943940D01*
X17603969Y-15942298D01*
X17610132Y-15947078D01*
X17610135Y-15947081D01*
X17751602Y-16030744D01*
X17793224Y-16042836D01*
X17909426Y-16076597D01*
X17909429Y-16076597D01*
X17909431Y-16076598D01*
X17946306Y-16079500D01*
X17946314Y-16079500D01*
X18377686Y-16079500D01*
X18377694Y-16079500D01*
X18414569Y-16076598D01*
X18415010Y-16076470D01*
X18415265Y-16076470D01*
X18420799Y-16075460D01*
X18420986Y-16076486D01*
X18484877Y-16076663D01*
X18543551Y-16114599D01*
X18572400Y-16178234D01*
X18570715Y-16222197D01*
X18556500Y-16286778D01*
X18556500Y-16310684D01*
X18555696Y-16323574D01*
X18555751Y-16323579D01*
X18555380Y-16327985D01*
X18555380Y-16327987D01*
X18556437Y-16430378D01*
X18556389Y-16430378D01*
X18556500Y-16432089D01*
X18556500Y-19008378D01*
X18556091Y-19018442D01*
X18551660Y-19072845D01*
X18562688Y-19153790D01*
X18563096Y-19157120D01*
X18571927Y-19238316D01*
X18571929Y-19238327D01*
X18571990Y-19238506D01*
X18577340Y-19261331D01*
X18577366Y-19261525D01*
X18577369Y-19261537D01*
X18605540Y-19338219D01*
X18606655Y-19341385D01*
X18632731Y-19418776D01*
X18632734Y-19418782D01*
X18632832Y-19418945D01*
X18642969Y-19440099D01*
X18643036Y-19440283D01*
X18643040Y-19440290D01*
X18687046Y-19509139D01*
X18688809Y-19511981D01*
X18713404Y-19552858D01*
X18730912Y-19581955D01*
X18731042Y-19582092D01*
X18745492Y-19600575D01*
X18745600Y-19600744D01*
X18803395Y-19658539D01*
X18805702Y-19660910D01*
X18861866Y-19720203D01*
X18861868Y-19720204D01*
X18861871Y-19720207D01*
X18862028Y-19720314D01*
X18880121Y-19735265D01*
X19839194Y-20694338D01*
X19872679Y-20755661D01*
X19867695Y-20825353D01*
X19825823Y-20881286D01*
X19783606Y-20901794D01*
X19603344Y-20950094D01*
X19603335Y-20950098D01*
X19389171Y-21049964D01*
X19389169Y-21049965D01*
X19195597Y-21185505D01*
X19028505Y-21352597D01*
X18898575Y-21538158D01*
X18843998Y-21581783D01*
X18774500Y-21588977D01*
X18712145Y-21557454D01*
X18695425Y-21538158D01*
X18565494Y-21352597D01*
X18398402Y-21185506D01*
X18398395Y-21185501D01*
X18396468Y-21184152D01*
X18359521Y-21158281D01*
X18204834Y-21049967D01*
X18204830Y-21049965D01*
X18073983Y-20988950D01*
X17990663Y-20950097D01*
X17990659Y-20950096D01*
X17990655Y-20950094D01*
X17762413Y-20888938D01*
X17762403Y-20888936D01*
X17527001Y-20868341D01*
X17526999Y-20868341D01*
X17291596Y-20888936D01*
X17291586Y-20888938D01*
X17171593Y-20921090D01*
X17101743Y-20919427D01*
X17043881Y-20880264D01*
X17016377Y-20816035D01*
X17015500Y-20801315D01*
X17015500Y-19354135D01*
X17035185Y-19287096D01*
X17075354Y-19248016D01*
X17081871Y-19244076D01*
X17202073Y-19123875D01*
X17290019Y-18978395D01*
X17340590Y-18816106D01*
X17347000Y-18745572D01*
X17347000Y-18664000D01*
X16370500Y-18664000D01*
X16303461Y-18644315D01*
X16257706Y-18591511D01*
X16246500Y-18540000D01*
X16246500Y-18288000D01*
X16266185Y-18220961D01*
X16318989Y-18175206D01*
X16370500Y-18164000D01*
X17346999Y-18164000D01*
X17346999Y-18082417D01*
X17340591Y-18011897D01*
X17340590Y-18011892D01*
X17290018Y-17849603D01*
X17202073Y-17704124D01*
X17097161Y-17599213D01*
X17063676Y-17537890D01*
X17068660Y-17468198D01*
X17097157Y-17423854D01*
X17181968Y-17339044D01*
X17271003Y-17194697D01*
X17324349Y-17033708D01*
X17334500Y-16934345D01*
X17334499Y-16337656D01*
X17333511Y-16327987D01*
X17324349Y-16238292D01*
X17312566Y-16202734D01*
X17294680Y-16148758D01*
X17292279Y-16078933D01*
X17328010Y-16018891D01*
X17349254Y-16003032D01*
X17443865Y-15947081D01*
X17443872Y-15947073D01*
X17450031Y-15942298D01*
X17451933Y-15944750D01*
X17500579Y-15918155D01*
X17570274Y-15923104D01*
G37*
%TD.AperFunction*%
%TD*%
%TA.AperFunction,Conductor*%
%TO.N,Net-(J3-Pin_2)*%
G36*
X13408539Y-20185D02*
G01*
X13454294Y-72989D01*
X13465500Y-124500D01*
X13465500Y-730914D01*
X13445815Y-797953D01*
X13393011Y-843708D01*
X13323853Y-853652D01*
X13270376Y-832489D01*
X13124578Y-730400D01*
X12910492Y-630570D01*
X12910486Y-630567D01*
X12697000Y-573364D01*
X12697000Y-1468498D01*
X12589315Y-1419320D01*
X12482763Y-1404000D01*
X12411237Y-1404000D01*
X12304685Y-1419320D01*
X12197000Y-1468498D01*
X12197000Y-573364D01*
X12196999Y-573364D01*
X11983513Y-630567D01*
X11983507Y-630570D01*
X11769422Y-730399D01*
X11769420Y-730400D01*
X11626123Y-830738D01*
X11559917Y-853065D01*
X11492150Y-836055D01*
X11444337Y-785107D01*
X11431000Y-729163D01*
X11431000Y-124500D01*
X11450685Y-57461D01*
X11503489Y-11706D01*
X11555000Y-500D01*
X13341500Y-500D01*
X13408539Y-20185D01*
G37*
%TD.AperFunction*%
%TD*%
%TA.AperFunction,Conductor*%
%TO.N,Net-(J3-Pin_3)*%
G36*
X15946039Y-20185D02*
G01*
X15991794Y-72989D01*
X16003000Y-124500D01*
X16003000Y-729164D01*
X15983315Y-796203D01*
X15930511Y-841958D01*
X15861353Y-851902D01*
X15807876Y-830739D01*
X15664578Y-730399D01*
X15450492Y-630570D01*
X15450486Y-630567D01*
X15237000Y-573364D01*
X15237000Y-1468498D01*
X15129315Y-1419320D01*
X15022763Y-1404000D01*
X14951237Y-1404000D01*
X14844685Y-1419320D01*
X14737000Y-1468498D01*
X14737000Y-573364D01*
X14736999Y-573364D01*
X14523513Y-630567D01*
X14523507Y-630570D01*
X14309422Y-730399D01*
X14309420Y-730400D01*
X14166123Y-830738D01*
X14099917Y-853065D01*
X14032150Y-836055D01*
X13984337Y-785107D01*
X13971000Y-729163D01*
X13971000Y-124500D01*
X13990685Y-57461D01*
X14043489Y-11706D01*
X14095000Y-500D01*
X15879000Y-500D01*
X15946039Y-20185D01*
G37*
%TD.AperFunction*%
%TD*%
%TA.AperFunction,Conductor*%
%TO.N,GNDD*%
G36*
X16453039Y-19196685D02*
G01*
X16498794Y-19249489D01*
X16510000Y-19301000D01*
X16510000Y-21750038D01*
X16490315Y-21817077D01*
X16437511Y-21862832D01*
X16368353Y-21872776D01*
X16304797Y-21843751D01*
X16267023Y-21784973D01*
X16266225Y-21782132D01*
X16260432Y-21760513D01*
X16260429Y-21760507D01*
X16160600Y-21546422D01*
X16160599Y-21546420D01*
X16025113Y-21352926D01*
X16025108Y-21352920D01*
X15858082Y-21185894D01*
X15664578Y-21050399D01*
X15450492Y-20950570D01*
X15450483Y-20950566D01*
X15222326Y-20889432D01*
X15222316Y-20889430D01*
X15213428Y-20888653D01*
X15148359Y-20863200D01*
X15107381Y-20806609D01*
X15103504Y-20736847D01*
X15136552Y-20677447D01*
X15240000Y-20574000D01*
X15240000Y-19886836D01*
X15247815Y-19843510D01*
X15258158Y-19815777D01*
X15261535Y-19807629D01*
X15266944Y-19795782D01*
X15282165Y-19762457D01*
X15282850Y-19757685D01*
X15289409Y-19731992D01*
X15291091Y-19727483D01*
X15294633Y-19677951D01*
X15295580Y-19669148D01*
X15297500Y-19655799D01*
X15297500Y-19642308D01*
X15297816Y-19633461D01*
X15299513Y-19609734D01*
X15301359Y-19583927D01*
X15300332Y-19579206D01*
X15297500Y-19552858D01*
X15297500Y-19301000D01*
X15317185Y-19233961D01*
X15369989Y-19188206D01*
X15421500Y-19177000D01*
X16386000Y-19177000D01*
X16453039Y-19196685D01*
G37*
%TD.AperFunction*%
%TD*%
%TA.AperFunction,Conductor*%
%TO.N,Net-(J3-Pin_7)*%
G36*
X23962160Y-2570110D02*
G01*
X23978879Y-2589405D01*
X24108890Y-2775078D01*
X24275917Y-2942105D01*
X24469421Y-3077600D01*
X24683507Y-3177429D01*
X24683516Y-3177433D01*
X24864013Y-3225796D01*
X24923673Y-3262161D01*
X24954203Y-3325007D01*
X24945909Y-3394383D01*
X24919601Y-3433252D01*
X21381653Y-6971201D01*
X21374250Y-6978026D01*
X21332641Y-7013370D01*
X21283203Y-7078405D01*
X21281135Y-7081050D01*
X21229970Y-7144701D01*
X21229968Y-7144704D01*
X21229879Y-7144885D01*
X21217529Y-7164796D01*
X21217400Y-7164964D01*
X21217400Y-7164965D01*
X21183093Y-7239117D01*
X21181644Y-7242141D01*
X21145358Y-7315308D01*
X21145354Y-7315319D01*
X21145309Y-7315503D01*
X21137527Y-7337609D01*
X21137441Y-7337794D01*
X21137435Y-7337810D01*
X21119872Y-7417595D01*
X21119107Y-7420860D01*
X21099399Y-7500111D01*
X21099394Y-7500310D01*
X21096545Y-7523575D01*
X21096500Y-7523778D01*
X21096500Y-7605462D01*
X21096455Y-7608820D01*
X21094243Y-7690472D01*
X21094278Y-7690655D01*
X21096500Y-7714023D01*
X21096500Y-8059137D01*
X21076815Y-8126176D01*
X21024011Y-8171931D01*
X20960905Y-8181004D01*
X20960795Y-8182399D01*
X20952000Y-8181703D01*
X20952000Y-9778000D01*
X20452000Y-9778000D01*
X20452000Y-8181703D01*
X20443205Y-8182399D01*
X20443014Y-8179989D01*
X20384276Y-8173792D01*
X20329785Y-8130060D01*
X20307588Y-8063810D01*
X20307500Y-8059137D01*
X20307500Y-5493005D01*
X20327185Y-5425966D01*
X20343814Y-5405329D01*
X21947137Y-3802005D01*
X21975868Y-3780596D01*
X23163290Y-3139049D01*
X23187490Y-3125096D01*
X23187489Y-3125096D01*
X23192071Y-3122455D01*
X23192151Y-3122594D01*
X23204435Y-3115523D01*
X23284830Y-3078035D01*
X23478401Y-2942495D01*
X23645495Y-2775401D01*
X23775730Y-2589405D01*
X23830307Y-2545781D01*
X23899805Y-2538587D01*
X23962160Y-2570110D01*
G37*
%TD.AperFunction*%
%TA.AperFunction,Conductor*%
G36*
X26106039Y-20185D02*
G01*
X26151794Y-72989D01*
X26163000Y-124500D01*
X26163000Y-729164D01*
X26143315Y-796203D01*
X26090511Y-841958D01*
X26021353Y-851902D01*
X25967876Y-830739D01*
X25824578Y-730399D01*
X25610492Y-630570D01*
X25610486Y-630567D01*
X25397000Y-573364D01*
X25397000Y-1468498D01*
X25289315Y-1419320D01*
X25182763Y-1404000D01*
X25111237Y-1404000D01*
X25004685Y-1419320D01*
X24897000Y-1468498D01*
X24897000Y-573364D01*
X24896999Y-573364D01*
X24683513Y-630567D01*
X24683507Y-630570D01*
X24469422Y-730399D01*
X24469420Y-730400D01*
X24326123Y-830738D01*
X24259917Y-853065D01*
X24192150Y-836055D01*
X24144337Y-785107D01*
X24131000Y-729163D01*
X24131000Y-124500D01*
X24150685Y-57461D01*
X24203489Y-11706D01*
X24255000Y-500D01*
X26039000Y-500D01*
X26106039Y-20185D01*
G37*
%TD.AperFunction*%
%TD*%
%TA.AperFunction,Conductor*%
%TO.N,/RST*%
G36*
X25447221Y-5484436D02*
G01*
X25503154Y-5526308D01*
X25527571Y-5591772D01*
X25524093Y-5631058D01*
X25492387Y-5756258D01*
X25492385Y-5756270D01*
X25471859Y-6003994D01*
X25471859Y-6004005D01*
X25492385Y-6251729D01*
X25492387Y-6251738D01*
X25553412Y-6492717D01*
X25653266Y-6720364D01*
X25753564Y-6873882D01*
X26451070Y-6176375D01*
X26453884Y-6189915D01*
X26523442Y-6324156D01*
X26626638Y-6434652D01*
X26755819Y-6513209D01*
X26807002Y-6527549D01*
X26106942Y-7227609D01*
X26153768Y-7264055D01*
X26153770Y-7264056D01*
X26372385Y-7382364D01*
X26372396Y-7382369D01*
X26607506Y-7463083D01*
X26847859Y-7503191D01*
X26910744Y-7533642D01*
X26947183Y-7593256D01*
X26945608Y-7663108D01*
X26906518Y-7721020D01*
X26842324Y-7748605D01*
X26827449Y-7749500D01*
X26467360Y-7749500D01*
X26413336Y-7752396D01*
X26413329Y-7752396D01*
X26413320Y-7752397D01*
X26413314Y-7752397D01*
X26413282Y-7752400D01*
X26386962Y-7755230D01*
X26386957Y-7755231D01*
X26333572Y-7763881D01*
X26333567Y-7763883D01*
X26198769Y-7814154D01*
X26198756Y-7814160D01*
X26137654Y-7847522D01*
X26137434Y-7847640D01*
X26137429Y-7847644D01*
X26022242Y-7933873D01*
X26022230Y-7933883D01*
X25832522Y-8123591D01*
X25832504Y-8123610D01*
X25791758Y-8169643D01*
X25791745Y-8169658D01*
X25773219Y-8193346D01*
X25738373Y-8243969D01*
X25738368Y-8243979D01*
X25682441Y-8376539D01*
X25677856Y-8394024D01*
X25677758Y-8394186D01*
X25665000Y-8443047D01*
X25664968Y-8443169D01*
X25659431Y-8464283D01*
X25660153Y-8467188D01*
X25656921Y-8490550D01*
X25642329Y-8552115D01*
X25640693Y-8559250D01*
X25639925Y-8562711D01*
X25638374Y-8569953D01*
X25637709Y-8573172D01*
X25627106Y-8603679D01*
X25625668Y-8606543D01*
X25622323Y-8613327D01*
X25621015Y-8616030D01*
X25620783Y-8616512D01*
X25619356Y-8619514D01*
X25617639Y-8623129D01*
X25616297Y-8626006D01*
X25598936Y-8653258D01*
X25596818Y-8655782D01*
X25592225Y-8661336D01*
X25590055Y-8663998D01*
X25585373Y-8669830D01*
X25581797Y-8674353D01*
X25577759Y-8679199D01*
X25571273Y-8686594D01*
X25559138Y-8698642D01*
X25556146Y-8701227D01*
X25529180Y-8726299D01*
X25332890Y-8922590D01*
X25332856Y-8922626D01*
X25296718Y-8962858D01*
X25280073Y-8983513D01*
X25248433Y-9027391D01*
X25188663Y-9158265D01*
X25168976Y-9225310D01*
X25148500Y-9367729D01*
X25148500Y-9506918D01*
X25166259Y-9639730D01*
X25183379Y-9702599D01*
X25183382Y-9702608D01*
X25235409Y-9826078D01*
X25235410Y-9826080D01*
X25325265Y-9938452D01*
X25361840Y-9972764D01*
X25397263Y-10032986D01*
X25401000Y-10063197D01*
X25401000Y-11189500D01*
X25381315Y-11256539D01*
X25328511Y-11302294D01*
X25277000Y-11313500D01*
X22731000Y-11313500D01*
X22663961Y-11293815D01*
X22618206Y-11241011D01*
X22607000Y-11189500D01*
X22607000Y-10965308D01*
X22626685Y-10898269D01*
X22635571Y-10887243D01*
X22635298Y-10887031D01*
X22640075Y-10880870D01*
X22640081Y-10880865D01*
X22723744Y-10739398D01*
X22769598Y-10581569D01*
X22772500Y-10544694D01*
X22772500Y-10036114D01*
X22783960Y-9984049D01*
X22806562Y-9935197D01*
X22847500Y-9749216D01*
X22847500Y-8033005D01*
X22867185Y-7965966D01*
X22883814Y-7945329D01*
X25316206Y-5512936D01*
X25377529Y-5479452D01*
X25447221Y-5484436D01*
G37*
%TD.AperFunction*%
%TA.AperFunction,Conductor*%
G36*
X35502539Y-20185D02*
G01*
X35548294Y-72989D01*
X35559500Y-124500D01*
X35559500Y-7625500D01*
X35539815Y-7692539D01*
X35487011Y-7738294D01*
X35435500Y-7749500D01*
X33626551Y-7749500D01*
X33559512Y-7729815D01*
X33513757Y-7677011D01*
X33503813Y-7607853D01*
X33532838Y-7544297D01*
X33591616Y-7506523D01*
X33606141Y-7503191D01*
X33846493Y-7463083D01*
X34081603Y-7382369D01*
X34081614Y-7382364D01*
X34300228Y-7264057D01*
X34300231Y-7264055D01*
X34347056Y-7227609D01*
X33648568Y-6529121D01*
X33765458Y-6478349D01*
X33882739Y-6382934D01*
X33969928Y-6259415D01*
X34000354Y-6173802D01*
X34700434Y-6873882D01*
X34800731Y-6720369D01*
X34900587Y-6492717D01*
X34961612Y-6251738D01*
X34961614Y-6251729D01*
X34982141Y-6004005D01*
X34982141Y-6003994D01*
X34961614Y-5756270D01*
X34961612Y-5756261D01*
X34900587Y-5515282D01*
X34800731Y-5287630D01*
X34700434Y-5134116D01*
X34002929Y-5831622D01*
X34000116Y-5818085D01*
X33930558Y-5683844D01*
X33827362Y-5573348D01*
X33698181Y-5494791D01*
X33646997Y-5480450D01*
X34347057Y-4780390D01*
X34347056Y-4780389D01*
X34300229Y-4743943D01*
X34081614Y-4625635D01*
X34081603Y-4625630D01*
X33846493Y-4544916D01*
X33601293Y-4504000D01*
X33352707Y-4504000D01*
X33107506Y-4544916D01*
X32872396Y-4625630D01*
X32872390Y-4625632D01*
X32653761Y-4743949D01*
X32606942Y-4780388D01*
X32606942Y-4780390D01*
X33305431Y-5478878D01*
X33188542Y-5529651D01*
X33071261Y-5625066D01*
X32984072Y-5748585D01*
X32953645Y-5834197D01*
X32253564Y-5134116D01*
X32153267Y-5287632D01*
X32053412Y-5515282D01*
X31992387Y-5756261D01*
X31992385Y-5756270D01*
X31971859Y-6003994D01*
X31971859Y-6004005D01*
X31992385Y-6251729D01*
X31992387Y-6251738D01*
X32053412Y-6492717D01*
X32153266Y-6720364D01*
X32253564Y-6873882D01*
X32951070Y-6176376D01*
X32953884Y-6189915D01*
X33023442Y-6324156D01*
X33126638Y-6434652D01*
X33255819Y-6513209D01*
X33307002Y-6527549D01*
X32606942Y-7227609D01*
X32653768Y-7264055D01*
X32653770Y-7264056D01*
X32872385Y-7382364D01*
X32872396Y-7382369D01*
X33107506Y-7463083D01*
X33347859Y-7503191D01*
X33410744Y-7533642D01*
X33447183Y-7593256D01*
X33445608Y-7663108D01*
X33406518Y-7721020D01*
X33342324Y-7748605D01*
X33327449Y-7749500D01*
X27126551Y-7749500D01*
X27059512Y-7729815D01*
X27013757Y-7677011D01*
X27003813Y-7607853D01*
X27032838Y-7544297D01*
X27091616Y-7506523D01*
X27106141Y-7503191D01*
X27346493Y-7463083D01*
X27581603Y-7382369D01*
X27581614Y-7382364D01*
X27800228Y-7264057D01*
X27800231Y-7264055D01*
X27847056Y-7227609D01*
X27148568Y-6529121D01*
X27265458Y-6478349D01*
X27382739Y-6382934D01*
X27469928Y-6259415D01*
X27500354Y-6173802D01*
X28200434Y-6873882D01*
X28300731Y-6720369D01*
X28400587Y-6492717D01*
X28461612Y-6251738D01*
X28461614Y-6251729D01*
X28482141Y-6004005D01*
X28482141Y-6003994D01*
X28461614Y-5756270D01*
X28461612Y-5756261D01*
X28400587Y-5515282D01*
X28300731Y-5287630D01*
X28200434Y-5134116D01*
X27502929Y-5831622D01*
X27500116Y-5818085D01*
X27430558Y-5683844D01*
X27327362Y-5573348D01*
X27198181Y-5494791D01*
X27146996Y-5480449D01*
X27847057Y-4780389D01*
X27800229Y-4743943D01*
X27581614Y-4625635D01*
X27581603Y-4625630D01*
X27346493Y-4544916D01*
X27101293Y-4504000D01*
X26852707Y-4504000D01*
X26602452Y-4545760D01*
X26602103Y-4543669D01*
X26541253Y-4541337D01*
X26483965Y-4501339D01*
X26457395Y-4436718D01*
X26469980Y-4367991D01*
X26493035Y-4336108D01*
X27027137Y-3802005D01*
X27055868Y-3780596D01*
X28243290Y-3139049D01*
X28267490Y-3125096D01*
X28267489Y-3125096D01*
X28272071Y-3122455D01*
X28272151Y-3122594D01*
X28284435Y-3115523D01*
X28364830Y-3078035D01*
X28558401Y-2942495D01*
X28725495Y-2775401D01*
X28861035Y-2581830D01*
X28916338Y-2463231D01*
X28941026Y-2427973D01*
X29211000Y-2158000D01*
X29211000Y-124500D01*
X29230685Y-57461D01*
X29283489Y-11706D01*
X29335000Y-500D01*
X35435500Y-500D01*
X35502539Y-20185D01*
G37*
%TD.AperFunction*%
%TD*%
%TA.AperFunction,Conductor*%
%TO.N,Net-(J3-Pin_4)*%
G36*
X18488539Y-20185D02*
G01*
X18534294Y-72989D01*
X18545500Y-124500D01*
X18545500Y-730914D01*
X18525815Y-797953D01*
X18473011Y-843708D01*
X18403853Y-853652D01*
X18350376Y-832489D01*
X18204578Y-730400D01*
X17990492Y-630570D01*
X17990486Y-630567D01*
X17777000Y-573364D01*
X17777000Y-1468498D01*
X17669315Y-1419320D01*
X17562763Y-1404000D01*
X17491237Y-1404000D01*
X17384685Y-1419320D01*
X17277000Y-1468498D01*
X17277000Y-573364D01*
X17276999Y-573364D01*
X17063513Y-630567D01*
X17063507Y-630570D01*
X16849422Y-730399D01*
X16849420Y-730400D01*
X16703623Y-832489D01*
X16637417Y-854816D01*
X16569650Y-837806D01*
X16521837Y-786858D01*
X16508500Y-730914D01*
X16508500Y-124500D01*
X16528185Y-57461D01*
X16580989Y-11706D01*
X16632500Y-500D01*
X18421500Y-500D01*
X18488539Y-20185D01*
G37*
%TD.AperFunction*%
%TD*%
%TA.AperFunction,Conductor*%
%TO.N,/USB_DP*%
G36*
X18113203Y-11319649D02*
G01*
X18119681Y-11325681D01*
X18646319Y-11852319D01*
X18679804Y-11913642D01*
X18674820Y-11983334D01*
X18632948Y-12039267D01*
X18567484Y-12063684D01*
X18558638Y-12064000D01*
X18032000Y-12064000D01*
X17964961Y-12044315D01*
X17919206Y-11991511D01*
X17908000Y-11940000D01*
X17908000Y-11413362D01*
X17927685Y-11346323D01*
X17980489Y-11300568D01*
X18049647Y-11290624D01*
X18113203Y-11319649D01*
G37*
%TD.AperFunction*%
%TD*%
%TA.AperFunction,Conductor*%
%TO.N,/RST*%
G36*
X23568539Y-20185D02*
G01*
X23614294Y-72989D01*
X23625500Y-124500D01*
X23625500Y-730914D01*
X23605815Y-797953D01*
X23553011Y-843708D01*
X23483853Y-853652D01*
X23430376Y-832489D01*
X23284578Y-730400D01*
X23070492Y-630570D01*
X23070486Y-630567D01*
X22857000Y-573364D01*
X22857000Y-1468498D01*
X22749315Y-1419320D01*
X22642763Y-1404000D01*
X22571237Y-1404000D01*
X22464685Y-1419320D01*
X22357000Y-1468498D01*
X22357000Y-573364D01*
X22356999Y-573364D01*
X22143513Y-630567D01*
X22143507Y-630570D01*
X21929422Y-730399D01*
X21929420Y-730400D01*
X21783623Y-832489D01*
X21717417Y-854816D01*
X21649650Y-837806D01*
X21601837Y-786858D01*
X21588500Y-730914D01*
X21588500Y-124500D01*
X21608185Y-57461D01*
X21660989Y-11706D01*
X21712500Y-500D01*
X23501500Y-500D01*
X23568539Y-20185D01*
G37*
%TD.AperFunction*%
%TD*%
%TA.AperFunction,Conductor*%
%TO.N,Net-(J3-Pin_1)*%
G36*
X10157000Y-3254000D02*
G01*
X10804828Y-3254000D01*
X10804844Y-3253999D01*
X10864372Y-3247598D01*
X10864379Y-3247596D01*
X10999086Y-3197354D01*
X10999093Y-3197350D01*
X11114187Y-3111190D01*
X11114190Y-3111187D01*
X11200350Y-2996093D01*
X11200355Y-2996084D01*
X11249421Y-2864530D01*
X11291291Y-2808596D01*
X11356756Y-2784178D01*
X11425029Y-2799029D01*
X11453284Y-2820180D01*
X11575599Y-2942495D01*
X11575602Y-2942497D01*
X11575603Y-2942498D01*
X11769165Y-3078032D01*
X11769167Y-3078033D01*
X11769170Y-3078035D01*
X11840272Y-3111190D01*
X11863570Y-3122054D01*
X11885038Y-3134843D01*
X11890700Y-3139043D01*
X11890708Y-3139047D01*
X11890710Y-3139049D01*
X13078125Y-3780593D01*
X13106863Y-3802007D01*
X13440181Y-4135325D01*
X13473666Y-4196648D01*
X13476500Y-4223006D01*
X13476500Y-8059137D01*
X13456815Y-8126176D01*
X13404011Y-8171931D01*
X13340905Y-8181004D01*
X13340795Y-8182399D01*
X13332000Y-8181703D01*
X13332000Y-9779000D01*
X12832000Y-9779000D01*
X12832000Y-8181703D01*
X12829503Y-8181900D01*
X12671806Y-8227716D01*
X12671803Y-8227717D01*
X12530447Y-8311314D01*
X12524278Y-8316100D01*
X12523447Y-8315028D01*
X12469358Y-8344564D01*
X12399666Y-8339580D01*
X12343733Y-8297708D01*
X12319316Y-8232244D01*
X12319000Y-8223398D01*
X12319000Y-6858000D01*
X8926681Y-3465681D01*
X8893196Y-3404358D01*
X8898180Y-3334666D01*
X8940052Y-3278733D01*
X9005516Y-3254316D01*
X9014362Y-3254000D01*
X9657000Y-3254000D01*
X9657000Y-2339501D01*
X9764685Y-2388680D01*
X9871237Y-2404000D01*
X9942763Y-2404000D01*
X10049315Y-2388680D01*
X10157000Y-2339501D01*
X10157000Y-3254000D01*
G37*
%TD.AperFunction*%
%TA.AperFunction,Conductor*%
G36*
X10484039Y-20185D02*
G01*
X10529794Y-72989D01*
X10541000Y-124500D01*
X10541000Y-430000D01*
X10521315Y-497039D01*
X10468511Y-542794D01*
X10417000Y-554000D01*
X10157000Y-554000D01*
X10157000Y-1468498D01*
X10049315Y-1419320D01*
X9942763Y-1404000D01*
X9871237Y-1404000D01*
X9764685Y-1419320D01*
X9657000Y-1468498D01*
X9657000Y-554000D01*
X9009155Y-554000D01*
X8949627Y-560401D01*
X8949620Y-560403D01*
X8814913Y-610645D01*
X8814906Y-610649D01*
X8699812Y-696809D01*
X8699809Y-696812D01*
X8613649Y-811906D01*
X8613645Y-811913D01*
X8563403Y-946620D01*
X8563401Y-946627D01*
X8557000Y-1006155D01*
X8557000Y-1654000D01*
X9473314Y-1654000D01*
X9447507Y-1694156D01*
X9407000Y-1832111D01*
X9407000Y-1975889D01*
X9447507Y-2113844D01*
X9473314Y-2154000D01*
X8557000Y-2154000D01*
X8557000Y-2796638D01*
X8537315Y-2863677D01*
X8484511Y-2909432D01*
X8415353Y-2919376D01*
X8351797Y-2890351D01*
X8345319Y-2884319D01*
X5673181Y-212181D01*
X5639696Y-150858D01*
X5644680Y-81166D01*
X5686552Y-25233D01*
X5752016Y-816D01*
X5760862Y-500D01*
X10417000Y-500D01*
X10484039Y-20185D01*
G37*
%TD.AperFunction*%
%TD*%
%TA.AperFunction,Conductor*%
%TO.N,+5V*%
G36*
X35502539Y-8274685D02*
G01*
X35548294Y-8327489D01*
X35559500Y-8379000D01*
X35559500Y-24005500D01*
X35539815Y-24072539D01*
X35487011Y-24118294D01*
X35435500Y-24129500D01*
X11427000Y-24129500D01*
X11359961Y-24109815D01*
X11314206Y-24057011D01*
X11303000Y-24005500D01*
X11303000Y-23288550D01*
X11322685Y-23221511D01*
X11375489Y-23175756D01*
X11444647Y-23165812D01*
X11508203Y-23194837D01*
X11514681Y-23200869D01*
X11575917Y-23262105D01*
X11769421Y-23397600D01*
X11983507Y-23497429D01*
X11983516Y-23497433D01*
X12197000Y-23554634D01*
X12197000Y-22659501D01*
X12304685Y-22708680D01*
X12411237Y-22724000D01*
X12482763Y-22724000D01*
X12589315Y-22708680D01*
X12697000Y-22659501D01*
X12697000Y-23554633D01*
X12910483Y-23497433D01*
X12910492Y-23497429D01*
X13124578Y-23397600D01*
X13318082Y-23262105D01*
X13485105Y-23095082D01*
X13615119Y-22909405D01*
X13669696Y-22865781D01*
X13739195Y-22858588D01*
X13801549Y-22890110D01*
X13818269Y-22909405D01*
X13948505Y-23095401D01*
X14115599Y-23262495D01*
X14212384Y-23330265D01*
X14309165Y-23398032D01*
X14309167Y-23398033D01*
X14309170Y-23398035D01*
X14523337Y-23497903D01*
X14751592Y-23559063D01*
X14939918Y-23575539D01*
X14986999Y-23579659D01*
X14987000Y-23579659D01*
X14987001Y-23579659D01*
X15026234Y-23576226D01*
X15222408Y-23559063D01*
X15450663Y-23497903D01*
X15664830Y-23398035D01*
X15858401Y-23262495D01*
X16025495Y-23095401D01*
X16155425Y-22909842D01*
X16210002Y-22866217D01*
X16279500Y-22859023D01*
X16341855Y-22890546D01*
X16358575Y-22909842D01*
X16488500Y-23095395D01*
X16488505Y-23095401D01*
X16655599Y-23262495D01*
X16752384Y-23330265D01*
X16849165Y-23398032D01*
X16849167Y-23398033D01*
X16849170Y-23398035D01*
X17063337Y-23497903D01*
X17291592Y-23559063D01*
X17479918Y-23575539D01*
X17526999Y-23579659D01*
X17527000Y-23579659D01*
X17527001Y-23579659D01*
X17566234Y-23576226D01*
X17762408Y-23559063D01*
X17990663Y-23497903D01*
X18204830Y-23398035D01*
X18398401Y-23262495D01*
X18565495Y-23095401D01*
X18695425Y-22909842D01*
X18750002Y-22866217D01*
X18819500Y-22859023D01*
X18881855Y-22890546D01*
X18898575Y-22909842D01*
X19028500Y-23095395D01*
X19028505Y-23095401D01*
X19195599Y-23262495D01*
X19292384Y-23330265D01*
X19389165Y-23398032D01*
X19389167Y-23398033D01*
X19389170Y-23398035D01*
X19603337Y-23497903D01*
X19831592Y-23559063D01*
X20019918Y-23575539D01*
X20066999Y-23579659D01*
X20067000Y-23579659D01*
X20067001Y-23579659D01*
X20106234Y-23576226D01*
X20302408Y-23559063D01*
X20530663Y-23497903D01*
X20744830Y-23398035D01*
X20938401Y-23262495D01*
X21105495Y-23095401D01*
X21235425Y-22909842D01*
X21290002Y-22866217D01*
X21359500Y-22859023D01*
X21421855Y-22890546D01*
X21438575Y-22909842D01*
X21568500Y-23095395D01*
X21568505Y-23095401D01*
X21735599Y-23262495D01*
X21832384Y-23330265D01*
X21929165Y-23398032D01*
X21929167Y-23398033D01*
X21929170Y-23398035D01*
X22143337Y-23497903D01*
X22371592Y-23559063D01*
X22559918Y-23575539D01*
X22606999Y-23579659D01*
X22607000Y-23579659D01*
X22607001Y-23579659D01*
X22646234Y-23576226D01*
X22842408Y-23559063D01*
X23070663Y-23497903D01*
X23284830Y-23398035D01*
X23478401Y-23262495D01*
X23645495Y-23095401D01*
X23775425Y-22909842D01*
X23830002Y-22866217D01*
X23899500Y-22859023D01*
X23961855Y-22890546D01*
X23978575Y-22909842D01*
X24108500Y-23095395D01*
X24108505Y-23095401D01*
X24275599Y-23262495D01*
X24372384Y-23330265D01*
X24469165Y-23398032D01*
X24469167Y-23398033D01*
X24469170Y-23398035D01*
X24683337Y-23497903D01*
X24911592Y-23559063D01*
X25099918Y-23575539D01*
X25146999Y-23579659D01*
X25147000Y-23579659D01*
X25147001Y-23579659D01*
X25186234Y-23576226D01*
X25382408Y-23559063D01*
X25610663Y-23497903D01*
X25824830Y-23398035D01*
X26018401Y-23262495D01*
X26185495Y-23095401D01*
X26315425Y-22909842D01*
X26370002Y-22866217D01*
X26439500Y-22859023D01*
X26501855Y-22890546D01*
X26518575Y-22909842D01*
X26648500Y-23095395D01*
X26648505Y-23095401D01*
X26815599Y-23262495D01*
X26912384Y-23330265D01*
X27009165Y-23398032D01*
X27009167Y-23398033D01*
X27009170Y-23398035D01*
X27223337Y-23497903D01*
X27451592Y-23559063D01*
X27639918Y-23575539D01*
X27686999Y-23579659D01*
X27687000Y-23579659D01*
X27687001Y-23579659D01*
X27726234Y-23576226D01*
X27922408Y-23559063D01*
X28150663Y-23497903D01*
X28364830Y-23398035D01*
X28558401Y-23262495D01*
X28725495Y-23095401D01*
X28861035Y-22901830D01*
X28960903Y-22687663D01*
X28992187Y-22570906D01*
X29028551Y-22511247D01*
X29071727Y-22490272D01*
X29083000Y-22479000D01*
X29083000Y-21333000D01*
X29102685Y-21265961D01*
X29155489Y-21220206D01*
X29207000Y-21209000D01*
X32385000Y-21209000D01*
X34089445Y-19504554D01*
X34118093Y-19483192D01*
X34300509Y-19384474D01*
X34496744Y-19231738D01*
X34665164Y-19048785D01*
X34669811Y-19041673D01*
X34737950Y-18937377D01*
X34801173Y-18840607D01*
X34829136Y-18776855D01*
X34855003Y-18738996D01*
X35052000Y-18542000D01*
X35052000Y-12065000D01*
X34233799Y-12065000D01*
X34166760Y-12045315D01*
X34121005Y-11992511D01*
X34111061Y-11923353D01*
X34140086Y-11859797D01*
X34174782Y-11831945D01*
X34300228Y-11764057D01*
X34300231Y-11764055D01*
X34347056Y-11727609D01*
X33648568Y-11029121D01*
X33765458Y-10978349D01*
X33882739Y-10882934D01*
X33969928Y-10759415D01*
X34000354Y-10673802D01*
X34700434Y-11373882D01*
X34800731Y-11220369D01*
X34900587Y-10992717D01*
X34961612Y-10751738D01*
X34961614Y-10751729D01*
X34982141Y-10504005D01*
X34982141Y-10503994D01*
X34961614Y-10256270D01*
X34961612Y-10256261D01*
X34900587Y-10015282D01*
X34800731Y-9787630D01*
X34700434Y-9634116D01*
X34002929Y-10331622D01*
X34000116Y-10318085D01*
X33930558Y-10183844D01*
X33827362Y-10073348D01*
X33698181Y-9994791D01*
X33646997Y-9980450D01*
X34347057Y-9280390D01*
X34347056Y-9280389D01*
X34300229Y-9243943D01*
X34081614Y-9125635D01*
X34081603Y-9125630D01*
X33846493Y-9044916D01*
X33601293Y-9004000D01*
X33352707Y-9004000D01*
X33107506Y-9044916D01*
X32872396Y-9125630D01*
X32872390Y-9125632D01*
X32653761Y-9243949D01*
X32606942Y-9280388D01*
X32606942Y-9280390D01*
X33305431Y-9978878D01*
X33188542Y-10029651D01*
X33071261Y-10125066D01*
X32984072Y-10248585D01*
X32953645Y-10334197D01*
X32253564Y-9634116D01*
X32153267Y-9787632D01*
X32053412Y-10015282D01*
X31992387Y-10256261D01*
X31992385Y-10256270D01*
X31971859Y-10503994D01*
X31971859Y-10504005D01*
X31992385Y-10751729D01*
X31992387Y-10751738D01*
X32053412Y-10992717D01*
X32153266Y-11220364D01*
X32253564Y-11373882D01*
X32951070Y-10676376D01*
X32953884Y-10689915D01*
X33023442Y-10824156D01*
X33126638Y-10934652D01*
X33255819Y-11013209D01*
X33307002Y-11027549D01*
X32606942Y-11727609D01*
X32653768Y-11764055D01*
X32653770Y-11764056D01*
X32779218Y-11831945D01*
X32828809Y-11881164D01*
X32843917Y-11949381D01*
X32819747Y-12014937D01*
X32763971Y-12057018D01*
X32720201Y-12065000D01*
X27733799Y-12065000D01*
X27666760Y-12045315D01*
X27621005Y-11992511D01*
X27611061Y-11923353D01*
X27640086Y-11859797D01*
X27674782Y-11831945D01*
X27800228Y-11764057D01*
X27800231Y-11764055D01*
X27847056Y-11727609D01*
X27148568Y-11029121D01*
X27265458Y-10978349D01*
X27382739Y-10882934D01*
X27469928Y-10759415D01*
X27500354Y-10673802D01*
X28200434Y-11373882D01*
X28300731Y-11220369D01*
X28400587Y-10992717D01*
X28461612Y-10751738D01*
X28461614Y-10751729D01*
X28482141Y-10504005D01*
X28482141Y-10503994D01*
X28461614Y-10256270D01*
X28461612Y-10256261D01*
X28400587Y-10015282D01*
X28300731Y-9787630D01*
X28200434Y-9634116D01*
X27502929Y-10331622D01*
X27500116Y-10318085D01*
X27430558Y-10183844D01*
X27327362Y-10073348D01*
X27198181Y-9994791D01*
X27146997Y-9980450D01*
X27847057Y-9280390D01*
X27847056Y-9280389D01*
X27800229Y-9243943D01*
X27581614Y-9125635D01*
X27581603Y-9125630D01*
X27346493Y-9044916D01*
X27101293Y-9004000D01*
X26852707Y-9004000D01*
X26607506Y-9044916D01*
X26372396Y-9125630D01*
X26372390Y-9125632D01*
X26153761Y-9243949D01*
X26106942Y-9280388D01*
X26106942Y-9280390D01*
X26805431Y-9978878D01*
X26688542Y-10029651D01*
X26571261Y-10125066D01*
X26484072Y-10248585D01*
X26453645Y-10334198D01*
X25740417Y-9620970D01*
X25722077Y-9617590D01*
X25671120Y-9569786D01*
X25654000Y-9506916D01*
X25654000Y-9367728D01*
X25673685Y-9300689D01*
X25690319Y-9280047D01*
X25726423Y-9243943D01*
X25886638Y-9083727D01*
X25900267Y-9071950D01*
X25919530Y-9057610D01*
X25951366Y-9019669D01*
X25958683Y-9011684D01*
X25959992Y-9010373D01*
X25962591Y-9007776D01*
X25981853Y-8983413D01*
X25984076Y-8980686D01*
X26032300Y-8923216D01*
X26032302Y-8923214D01*
X26032304Y-8923209D01*
X26036274Y-8917175D01*
X26036325Y-8917208D01*
X26040372Y-8910856D01*
X26040320Y-8910824D01*
X26044108Y-8904680D01*
X26044111Y-8904677D01*
X26075821Y-8836673D01*
X26077362Y-8833488D01*
X26111040Y-8766433D01*
X26111043Y-8766417D01*
X26113509Y-8759646D01*
X26113567Y-8759667D01*
X26116043Y-8752546D01*
X26115986Y-8752527D01*
X26118255Y-8745678D01*
X26118255Y-8745676D01*
X26118257Y-8745673D01*
X26133435Y-8672157D01*
X26134200Y-8668708D01*
X26151500Y-8595721D01*
X26151500Y-8595719D01*
X26151501Y-8595715D01*
X26152339Y-8588548D01*
X26152398Y-8588554D01*
X26153164Y-8581055D01*
X26153105Y-8581050D01*
X26153734Y-8573856D01*
X26153690Y-8572338D01*
X26153955Y-8571323D01*
X26154364Y-8566659D01*
X26155160Y-8566728D01*
X26171411Y-8504753D01*
X26189945Y-8481054D01*
X26379683Y-8291316D01*
X26441005Y-8257834D01*
X26467362Y-8255000D01*
X35435500Y-8255000D01*
X35502539Y-8274685D01*
G37*
%TD.AperFunction*%
%TA.AperFunction,Conductor*%
G36*
X14032213Y-20845883D02*
G01*
X14051392Y-20857477D01*
X14051394Y-20857478D01*
X14125757Y-20880650D01*
X14183904Y-20919386D01*
X14211879Y-20983411D01*
X14200798Y-21052397D01*
X14183615Y-21079027D01*
X14006642Y-21288644D01*
X13989174Y-21310741D01*
X13979584Y-21321519D01*
X13948504Y-21352600D01*
X13818269Y-21538595D01*
X13763692Y-21582219D01*
X13694193Y-21589412D01*
X13631839Y-21557890D01*
X13615119Y-21538594D01*
X13485113Y-21352926D01*
X13485108Y-21352920D01*
X13318082Y-21185894D01*
X13219605Y-21116939D01*
X13175980Y-21062361D01*
X13168788Y-20992863D01*
X13200310Y-20930508D01*
X13253836Y-20896980D01*
X13380606Y-20857478D01*
X13390452Y-20851525D01*
X13399787Y-20845883D01*
X13463936Y-20828000D01*
X13968064Y-20828000D01*
X14032213Y-20845883D01*
G37*
%TD.AperFunction*%
%TD*%
%TA.AperFunction,Conductor*%
%TO.N,Net-(J3-Pin_5)*%
G36*
X18882160Y-2570110D02*
G01*
X18898879Y-2589405D01*
X19028890Y-2775078D01*
X19195917Y-2942105D01*
X19389421Y-3077600D01*
X19603507Y-3177429D01*
X19603516Y-3177433D01*
X19784013Y-3225796D01*
X19843673Y-3262161D01*
X19874203Y-3325007D01*
X19865909Y-3394383D01*
X19839601Y-3433252D01*
X18841653Y-4431201D01*
X18834250Y-4438026D01*
X18792641Y-4473370D01*
X18743203Y-4538405D01*
X18741135Y-4541050D01*
X18689970Y-4604701D01*
X18689968Y-4604704D01*
X18689879Y-4604885D01*
X18677529Y-4624796D01*
X18677400Y-4624964D01*
X18677400Y-4624965D01*
X18643093Y-4699117D01*
X18641644Y-4702141D01*
X18605358Y-4775308D01*
X18605354Y-4775319D01*
X18605309Y-4775503D01*
X18597527Y-4797609D01*
X18597441Y-4797794D01*
X18597435Y-4797810D01*
X18579872Y-4877595D01*
X18579107Y-4880860D01*
X18559399Y-4960111D01*
X18559394Y-4960310D01*
X18556545Y-4983575D01*
X18556500Y-4983778D01*
X18556500Y-5065462D01*
X18556455Y-5068820D01*
X18554243Y-5150472D01*
X18554278Y-5150655D01*
X18556500Y-5174023D01*
X18556500Y-8059137D01*
X18536815Y-8126176D01*
X18484011Y-8171931D01*
X18420905Y-8181004D01*
X18420795Y-8182399D01*
X18412000Y-8181703D01*
X18412000Y-9778000D01*
X17912000Y-9778000D01*
X17912000Y-8181703D01*
X17903205Y-8182399D01*
X17903014Y-8179989D01*
X17844276Y-8173792D01*
X17789785Y-8130060D01*
X17767588Y-8063810D01*
X17767500Y-8059137D01*
X17767500Y-3612048D01*
X17787185Y-3545009D01*
X17805125Y-3523079D01*
X17949080Y-3383321D01*
X18471760Y-2875881D01*
X18512970Y-2830719D01*
X18512974Y-2830712D01*
X18515526Y-2827271D01*
X18527452Y-2813442D01*
X18565495Y-2775401D01*
X18695730Y-2589405D01*
X18750307Y-2545781D01*
X18819805Y-2538587D01*
X18882160Y-2570110D01*
G37*
%TD.AperFunction*%
%TA.AperFunction,Conductor*%
G36*
X21026039Y-20185D02*
G01*
X21071794Y-72989D01*
X21083000Y-124500D01*
X21083000Y-729164D01*
X21063315Y-796203D01*
X21010511Y-841958D01*
X20941353Y-851902D01*
X20887876Y-830739D01*
X20744578Y-730399D01*
X20530492Y-630570D01*
X20530486Y-630567D01*
X20317000Y-573364D01*
X20317000Y-1468498D01*
X20209315Y-1419320D01*
X20102763Y-1404000D01*
X20031237Y-1404000D01*
X19924685Y-1419320D01*
X19817000Y-1468498D01*
X19817000Y-573364D01*
X19816999Y-573364D01*
X19603513Y-630567D01*
X19603507Y-630570D01*
X19389422Y-730399D01*
X19389420Y-730400D01*
X19246123Y-830738D01*
X19179917Y-853065D01*
X19112150Y-836055D01*
X19064337Y-785107D01*
X19051000Y-729163D01*
X19051000Y-124500D01*
X19070685Y-57461D01*
X19123489Y-11706D01*
X19175000Y-500D01*
X20959000Y-500D01*
X21026039Y-20185D01*
G37*
%TD.AperFunction*%
%TD*%
%TA.AperFunction,Conductor*%
%TO.N,Net-(J3-Pin_8)*%
G36*
X28648539Y-20185D02*
G01*
X28694294Y-72989D01*
X28705500Y-124500D01*
X28705500Y-730914D01*
X28685815Y-797953D01*
X28633011Y-843708D01*
X28563853Y-853652D01*
X28510376Y-832489D01*
X28364578Y-730400D01*
X28150492Y-630570D01*
X28150486Y-630567D01*
X27937000Y-573364D01*
X27937000Y-1468498D01*
X27829315Y-1419320D01*
X27722763Y-1404000D01*
X27651237Y-1404000D01*
X27544685Y-1419320D01*
X27437000Y-1468498D01*
X27437000Y-573364D01*
X27436999Y-573364D01*
X27223513Y-630567D01*
X27223507Y-630570D01*
X27009422Y-730399D01*
X27009420Y-730400D01*
X26863623Y-832489D01*
X26797417Y-854816D01*
X26729650Y-837806D01*
X26681837Y-786858D01*
X26668500Y-730914D01*
X26668500Y-124500D01*
X26688185Y-57461D01*
X26740989Y-11706D01*
X26792500Y-500D01*
X28581500Y-500D01*
X28648539Y-20185D01*
G37*
%TD.AperFunction*%
%TD*%
%TA.AperFunction,Conductor*%
%TO.N,GNDD*%
G36*
X15647437Y-20901116D02*
G01*
X15837000Y-22224000D01*
X14986293Y-22224707D01*
X14858999Y-22097113D01*
X14393545Y-21630562D01*
X14390128Y-21622285D01*
X14392887Y-21614752D01*
X15293884Y-20547563D01*
X15647437Y-20901116D01*
G37*
%TD.AperFunction*%
%TD*%
%TA.AperFunction,Conductor*%
%TO.N,Net-(J3-Pin_8)*%
G36*
X27687707Y-1903293D02*
G01*
X27687999Y-1904000D01*
X28008255Y-2679550D01*
X28008246Y-2688505D01*
X28003003Y-2694310D01*
X26757754Y-3367102D01*
X26748846Y-3368019D01*
X26743919Y-3365081D01*
X26225918Y-2847080D01*
X26222491Y-2838807D01*
X26223895Y-2833250D01*
X26725957Y-1904000D01*
X26901702Y-1578719D01*
X27687707Y-1903293D01*
G37*
%TD.AperFunction*%
%TD*%
%TA.AperFunction,Conductor*%
%TO.N,Net-(J3-Pin_5)*%
G36*
X20067707Y-1903293D02*
G01*
X20392281Y-2689298D01*
X19130084Y-3371246D01*
X18599754Y-2840916D01*
X19281702Y-1578719D01*
X20067707Y-1903293D01*
G37*
%TD.AperFunction*%
%TD*%
%TA.AperFunction,Conductor*%
%TO.N,Net-(J3-Pin_4)*%
G36*
X17527998Y-1904000D02*
G01*
X18119658Y-2496644D01*
X18123078Y-2504920D01*
X18119644Y-2513190D01*
X18119528Y-2513305D01*
X17270404Y-3337670D01*
X17262254Y-3340975D01*
X16530075Y-3340975D01*
X16521802Y-3337548D01*
X16518375Y-3329275D01*
X16518447Y-3327980D01*
X16677000Y-1904000D01*
X17527000Y-1903000D01*
X17527998Y-1904000D01*
G37*
%TD.AperFunction*%
%TD*%
%TA.AperFunction,Conductor*%
%TO.N,/RST*%
G36*
X22607707Y-1903293D02*
G01*
X22607999Y-1904000D01*
X22928255Y-2679550D01*
X22928246Y-2688505D01*
X22923003Y-2694310D01*
X21677754Y-3367102D01*
X21668846Y-3368019D01*
X21663919Y-3365081D01*
X21145918Y-2847080D01*
X21142491Y-2838807D01*
X21143895Y-2833250D01*
X21645957Y-1904000D01*
X21821702Y-1578719D01*
X22607707Y-1903293D01*
G37*
%TD.AperFunction*%
%TD*%
%TA.AperFunction,Conductor*%
%TO.N,Net-(J3-Pin_3)*%
G36*
X15837000Y-1904000D02*
G01*
X15995553Y-3327980D01*
X15993063Y-3336582D01*
X15985220Y-3340903D01*
X15983925Y-3340975D01*
X15251746Y-3340975D01*
X15243596Y-3337670D01*
X14394471Y-2513305D01*
X14390922Y-2505083D01*
X14394226Y-2496760D01*
X14986002Y-1904000D01*
X14987000Y-1903000D01*
X15837000Y-1904000D01*
G37*
%TD.AperFunction*%
%TD*%
%TA.AperFunction,Conductor*%
%TO.N,Net-(J3-Pin_2)*%
G36*
X13408043Y-1904000D02*
G01*
X13910102Y-2833246D01*
X13911019Y-2842153D01*
X13908081Y-2847080D01*
X13390080Y-3365081D01*
X13381807Y-3368508D01*
X13376246Y-3367102D01*
X12130996Y-2694310D01*
X12125347Y-2687362D01*
X12125744Y-2679550D01*
X12446001Y-1904000D01*
X12446293Y-1903293D01*
X13232298Y-1578719D01*
X13408043Y-1904000D01*
G37*
%TD.AperFunction*%
%TD*%
%TA.AperFunction,Conductor*%
%TO.N,Net-(J4-Pin_8)*%
G36*
X27475218Y-20469006D02*
G01*
X27476511Y-20470543D01*
X28282380Y-21614920D01*
X28284342Y-21623657D01*
X28281097Y-21629919D01*
X27691139Y-22221265D01*
X27682870Y-22224702D01*
X27682846Y-22224702D01*
X26849687Y-22224010D01*
X26841417Y-22220576D01*
X26837997Y-22212300D01*
X26838036Y-22211354D01*
X26886202Y-21623657D01*
X26937823Y-20993783D01*
X26941210Y-20986468D01*
X27458673Y-20469005D01*
X27466945Y-20465579D01*
X27475218Y-20469006D01*
G37*
%TD.AperFunction*%
%TD*%
%TA.AperFunction,Conductor*%
%TO.N,Net-(J4-Pin_7)*%
G36*
X25932298Y-21898719D02*
G01*
X25149409Y-22224000D01*
X25148254Y-22224000D01*
X25148254Y-22223885D01*
X25147155Y-22223885D01*
X25147155Y-22224000D01*
X25146002Y-22224000D01*
X24361702Y-21898719D01*
X24757385Y-20840714D01*
X25287714Y-20310385D01*
X25932298Y-21898719D01*
G37*
%TD.AperFunction*%
%TD*%
%TA.AperFunction,Conductor*%
%TO.N,Net-(J4-Pin_6)*%
G36*
X21677750Y-20760896D02*
G01*
X22923003Y-21433689D01*
X22928652Y-21440637D01*
X22928255Y-21448449D01*
X22609562Y-22220214D01*
X22603237Y-22226553D01*
X22603214Y-22226562D01*
X21831449Y-22545255D01*
X21822494Y-22545246D01*
X21816689Y-22540003D01*
X21646339Y-22224707D01*
X21143896Y-21294751D01*
X21142980Y-21285846D01*
X21145916Y-21280921D01*
X21663920Y-20762917D01*
X21672192Y-20759491D01*
X21677750Y-20760896D01*
G37*
%TD.AperFunction*%
%TD*%
%TA.AperFunction,Conductor*%
%TO.N,GND*%
G36*
X6456000Y-15290000D02*
G01*
X6456000Y-15540000D01*
X6051671Y-15645970D01*
X5955000Y-15415000D01*
X6051671Y-15184030D01*
X6456000Y-15290000D01*
G37*
%TD.AperFunction*%
%TD*%
%TA.AperFunction,Conductor*%
%TO.N,GND*%
G36*
X6456000Y-8590000D02*
G01*
X6456000Y-8840000D01*
X6051671Y-8945970D01*
X5955000Y-8715000D01*
X6051671Y-8484030D01*
X6456000Y-8590000D01*
G37*
%TD.AperFunction*%
%TD*%
%TA.AperFunction,Conductor*%
%TO.N,GND*%
G36*
X8336000Y-15090000D02*
G01*
X8336000Y-15490000D01*
X7836000Y-15540000D01*
X7835000Y-15290000D01*
X7836000Y-15040000D01*
X8336000Y-15090000D01*
G37*
%TD.AperFunction*%
%TD*%
%TA.AperFunction,Conductor*%
%TO.N,+5V*%
G36*
X14476244Y-14107427D02*
G01*
X14479289Y-14112734D01*
X14580392Y-14498495D01*
X14579174Y-14507366D01*
X14573591Y-14512254D01*
X14356517Y-14603109D01*
X14347563Y-14603142D01*
X14347483Y-14603109D01*
X14130408Y-14512254D01*
X14124099Y-14505898D01*
X14123607Y-14498495D01*
X14224711Y-14112734D01*
X14230124Y-14105600D01*
X14236029Y-14104000D01*
X14467971Y-14104000D01*
X14476244Y-14107427D01*
G37*
%TD.AperFunction*%
%TD*%
%TA.AperFunction,Conductor*%
%TO.N,+5V*%
G36*
X14573591Y-13806745D02*
G01*
X14579900Y-13813101D01*
X14580392Y-13820504D01*
X14479289Y-14206266D01*
X14473876Y-14213400D01*
X14467971Y-14215000D01*
X14236029Y-14215000D01*
X14227756Y-14211573D01*
X14224711Y-14206266D01*
X14123607Y-13820504D01*
X14124825Y-13811633D01*
X14130406Y-13806746D01*
X14347484Y-13715889D01*
X14356437Y-13715857D01*
X14573591Y-13806745D01*
G37*
%TD.AperFunction*%
%TD*%
%TA.AperFunction,Conductor*%
%TO.N,+5V*%
G36*
X35347470Y-12223171D02*
G01*
X35241500Y-12627500D01*
X35000529Y-12627500D01*
X34992256Y-12624073D01*
X34989211Y-12618766D01*
X34888107Y-12233004D01*
X34889325Y-12224133D01*
X34894906Y-12219246D01*
X35116500Y-12126500D01*
X35347470Y-12223171D01*
G37*
%TD.AperFunction*%
%TD*%
%TA.AperFunction,Conductor*%
%TO.N,+5V*%
G36*
X13840267Y-20457626D02*
G01*
X13843304Y-20462905D01*
X13939941Y-20827999D01*
X13939941Y-20828000D01*
X13939942Y-20828000D01*
X13947970Y-20858329D01*
X13717000Y-20955000D01*
X13486030Y-20858329D01*
X13588725Y-20462958D01*
X13594121Y-20455812D01*
X13600049Y-20454199D01*
X13831994Y-20454199D01*
X13840267Y-20457626D01*
G37*
%TD.AperFunction*%
%TD*%
%TA.AperFunction,Conductor*%
%TO.N,+5V*%
G36*
X13938569Y-18887736D02*
G01*
X13944878Y-18894092D01*
X13945362Y-18901523D01*
X13843304Y-19287095D01*
X13837875Y-19294216D01*
X13831994Y-19295801D01*
X13600049Y-19295801D01*
X13591776Y-19292374D01*
X13588725Y-19287042D01*
X13488580Y-18901488D01*
X13489817Y-18892619D01*
X13495385Y-18887755D01*
X13712484Y-18796889D01*
X13721437Y-18796857D01*
X13938569Y-18887736D01*
G37*
%TD.AperFunction*%
%TD*%
%TA.AperFunction,Conductor*%
%TO.N,Net-(J3-Pin_5)*%
G36*
X18461689Y-9778000D02*
G01*
X18461688Y-9778000D01*
X18482931Y-9786860D01*
X18498132Y-9793200D01*
X18504448Y-9799547D01*
X18504618Y-9808011D01*
X18289807Y-10396313D01*
X18283751Y-10402909D01*
X18278817Y-10404000D01*
X18045183Y-10404000D01*
X18036910Y-10400573D01*
X18034193Y-10396313D01*
X17819381Y-9808011D01*
X17819762Y-9799064D01*
X17825865Y-9793201D01*
X17862311Y-9778000D01*
X18162000Y-9653000D01*
X18461689Y-9778000D01*
G37*
%TD.AperFunction*%
%TD*%
%TA.AperFunction,Conductor*%
%TO.N,/RST*%
G36*
X19793225Y-9653963D02*
G01*
X19801489Y-9657412D01*
X19804894Y-9665694D01*
X19804735Y-9667586D01*
X19683630Y-10394223D01*
X19678890Y-10401821D01*
X19672089Y-10404000D01*
X19191911Y-10404000D01*
X19183638Y-10400573D01*
X19180370Y-10394223D01*
X19059264Y-9667586D01*
X19061284Y-9658863D01*
X19068882Y-9654122D01*
X19070770Y-9653963D01*
X19432000Y-9653000D01*
X19793225Y-9653963D01*
G37*
%TD.AperFunction*%
%TD*%
%TA.AperFunction,Conductor*%
%TO.N,Net-(J4-Pin_6)*%
G36*
X19680362Y-15635427D02*
G01*
X19683630Y-15641777D01*
X19804735Y-16368413D01*
X19802715Y-16377136D01*
X19795117Y-16381877D01*
X19793225Y-16382036D01*
X19432031Y-16382999D01*
X19431969Y-16382999D01*
X19070774Y-16382036D01*
X19062510Y-16378587D01*
X19059105Y-16370305D01*
X19059264Y-16368413D01*
X19180370Y-15641777D01*
X19185111Y-15634179D01*
X19191911Y-15632000D01*
X19672089Y-15632000D01*
X19680362Y-15635427D01*
G37*
%TD.AperFunction*%
%TD*%
%TA.AperFunction,Conductor*%
%TO.N,/USB_DP*%
G36*
X25858942Y-12329165D02*
G01*
X25682165Y-12505942D01*
X25321329Y-12294970D01*
X25416293Y-12063293D01*
X25647970Y-11968329D01*
X25858942Y-12329165D01*
G37*
%TD.AperFunction*%
%TD*%
%TA.AperFunction,Conductor*%
%TO.N,/USB_DP*%
G36*
X18286244Y-12837427D02*
G01*
X18289289Y-12842734D01*
X18390392Y-13228495D01*
X18389174Y-13237366D01*
X18383591Y-13242254D01*
X18166517Y-13333109D01*
X18157563Y-13333142D01*
X18157483Y-13333109D01*
X17940408Y-13242254D01*
X17934099Y-13235898D01*
X17933607Y-13228495D01*
X18034711Y-12842734D01*
X18040124Y-12835600D01*
X18046029Y-12834000D01*
X18277971Y-12834000D01*
X18286244Y-12837427D01*
G37*
%TD.AperFunction*%
%TD*%
%TA.AperFunction,Conductor*%
%TO.N,/USB_DP*%
G36*
X18286244Y-12837427D02*
G01*
X18289289Y-12842734D01*
X18390392Y-13228495D01*
X18389174Y-13237366D01*
X18383591Y-13242254D01*
X18166517Y-13333109D01*
X18157563Y-13333142D01*
X18157483Y-13333109D01*
X17940408Y-13242254D01*
X17934099Y-13235898D01*
X17933607Y-13228495D01*
X18034711Y-12842734D01*
X18040124Y-12835600D01*
X18046029Y-12834000D01*
X18277971Y-12834000D01*
X18286244Y-12837427D01*
G37*
%TD.AperFunction*%
%TD*%
%TA.AperFunction,Conductor*%
%TO.N,/USB_DN*%
G36*
X16691950Y-11429438D02*
G01*
X16978027Y-11574151D01*
X16983863Y-11580943D01*
X16983572Y-11589028D01*
X16894564Y-11806175D01*
X16888255Y-11812531D01*
X16888175Y-11812564D01*
X16671028Y-11901572D01*
X16662074Y-11901539D01*
X16656151Y-11896027D01*
X16511438Y-11609950D01*
X16510761Y-11601021D01*
X16513603Y-11596398D01*
X16678397Y-11431604D01*
X16686669Y-11428178D01*
X16691950Y-11429438D01*
G37*
%TD.AperFunction*%
%TD*%
%TA.AperFunction,Conductor*%
%TO.N,Net-(R1-Pad1)*%
G36*
X19083434Y-12734183D02*
G01*
X19301175Y-12823435D01*
X19307531Y-12829744D01*
X19307564Y-12829824D01*
X19396815Y-13047564D01*
X19396782Y-13056518D01*
X19391894Y-13062101D01*
X19047629Y-13263385D01*
X19038758Y-13264603D01*
X19033451Y-13261558D01*
X18869441Y-13097548D01*
X18866014Y-13089275D01*
X18867612Y-13083374D01*
X19068899Y-12739103D01*
X19076032Y-12733692D01*
X19083434Y-12734183D01*
G37*
%TD.AperFunction*%
%TD*%
%TA.AperFunction,Conductor*%
%TO.N,GNDD*%
G36*
X15842591Y-17490745D02*
G01*
X15848900Y-17497101D01*
X15849392Y-17504504D01*
X15748289Y-17890266D01*
X15742876Y-17897400D01*
X15736971Y-17899000D01*
X15505029Y-17899000D01*
X15496756Y-17895573D01*
X15493711Y-17890266D01*
X15392607Y-17504504D01*
X15393825Y-17495633D01*
X15399406Y-17490746D01*
X15616484Y-17399889D01*
X15625437Y-17399857D01*
X15842591Y-17490745D01*
G37*
%TD.AperFunction*%
%TD*%
%TA.AperFunction,Conductor*%
%TO.N,GNDD*%
G36*
X15745244Y-18934427D02*
G01*
X15748289Y-18939734D01*
X15851970Y-19335329D01*
X15621000Y-19432000D01*
X15390030Y-19335329D01*
X15493711Y-18939734D01*
X15499124Y-18932600D01*
X15505029Y-18931000D01*
X15736971Y-18931000D01*
X15745244Y-18934427D01*
G37*
%TD.AperFunction*%
%TD*%
%TA.AperFunction,Conductor*%
%TO.N,GNDD*%
G36*
X11829039Y-11909185D02*
G01*
X11874794Y-11961989D01*
X11886000Y-12013500D01*
X11886000Y-12442500D01*
X11866315Y-12509539D01*
X11813511Y-12555294D01*
X11762000Y-12566500D01*
X11704143Y-12566500D01*
X11677785Y-12563666D01*
X11673074Y-12562641D01*
X11673070Y-12562641D01*
X11623539Y-12566184D01*
X11614692Y-12566500D01*
X11601200Y-12566500D01*
X11595063Y-12567382D01*
X11587840Y-12568420D01*
X11579054Y-12569365D01*
X11529516Y-12572909D01*
X11529513Y-12572910D01*
X11524986Y-12574598D01*
X11499327Y-12581146D01*
X11494550Y-12581833D01*
X11494543Y-12581835D01*
X11449365Y-12602466D01*
X11441191Y-12605851D01*
X11394675Y-12623200D01*
X11394663Y-12623207D01*
X11391237Y-12625772D01*
X11387230Y-12627266D01*
X11386888Y-12627453D01*
X11386861Y-12627403D01*
X11325771Y-12650185D01*
X11316934Y-12650500D01*
X10780129Y-12650500D01*
X10780123Y-12650501D01*
X10720516Y-12656908D01*
X10585671Y-12707202D01*
X10585664Y-12707206D01*
X10470455Y-12793452D01*
X10470452Y-12793455D01*
X10378888Y-12915769D01*
X10376170Y-12913734D01*
X10338297Y-12951540D01*
X10270010Y-12966331D01*
X10204568Y-12941856D01*
X10191286Y-12930336D01*
X10145877Y-12884927D01*
X10000395Y-12796980D01*
X10000396Y-12796980D01*
X9838105Y-12746409D01*
X9838106Y-12746409D01*
X9767572Y-12740000D01*
X9686000Y-12740000D01*
X9686000Y-13766000D01*
X9666315Y-13833039D01*
X9613511Y-13878794D01*
X9562000Y-13890000D01*
X9310000Y-13890000D01*
X9242961Y-13870315D01*
X9197206Y-13817511D01*
X9186000Y-13766000D01*
X9186000Y-12740000D01*
X9185999Y-12739999D01*
X9104417Y-12740000D01*
X9033897Y-12746408D01*
X9033892Y-12746409D01*
X8871603Y-12796981D01*
X8726122Y-12884927D01*
X8605928Y-13005121D01*
X8605925Y-13005125D01*
X8575845Y-13054883D01*
X8524317Y-13102070D01*
X8455457Y-13113908D01*
X8396096Y-13090503D01*
X8390883Y-13086655D01*
X8323882Y-13037207D01*
X8323880Y-13037206D01*
X8195700Y-12992353D01*
X8165270Y-12989500D01*
X8165266Y-12989500D01*
X7835574Y-12989500D01*
X7768535Y-12969815D01*
X7722780Y-12917011D01*
X7712836Y-12847853D01*
X7737718Y-12789341D01*
X7763269Y-12756511D01*
X7773456Y-12744977D01*
X7773456Y-12744976D01*
X7773519Y-12744914D01*
X7785630Y-12727949D01*
X7788627Y-12723930D01*
X7820809Y-12682585D01*
X7820811Y-12682577D01*
X7824547Y-12675676D01*
X7828003Y-12668603D01*
X7828010Y-12668595D01*
X7842955Y-12618391D01*
X7844483Y-12613620D01*
X7861500Y-12564056D01*
X7861500Y-12564052D01*
X7862790Y-12556320D01*
X7863768Y-12548481D01*
X7861606Y-12496203D01*
X7861500Y-12491079D01*
X7861500Y-12180408D01*
X7864139Y-12154963D01*
X7864785Y-12151879D01*
X7866367Y-12144336D01*
X7862452Y-12112926D01*
X7861500Y-12097589D01*
X7861500Y-12097493D01*
X7861500Y-12097490D01*
X7858075Y-12076973D01*
X7857341Y-12071929D01*
X7851970Y-12028836D01*
X7863212Y-11959877D01*
X7909951Y-11907943D01*
X7975018Y-11889500D01*
X11762000Y-11889500D01*
X11829039Y-11909185D01*
G37*
%TD.AperFunction*%
%TD*%
M02*
