M48
; DRILL file {KiCad 7.0.11-2.fc39} date Fri 15 Mar 2024 06:09:13 PM PDT
; FORMAT={-:-/ absolute / inch / decimal}
; #@! TF.CreationDate,2024-03-15T18:09:13-07:00
; #@! TF.GenerationSoftware,Kicad,Pcbnew,7.0.11-2.fc39
; #@! TF.FileFunction,Plated,1,2,PTH
FMAT,2
INCH
; #@! TA.AperFunction,Plated,PTH,ComponentDrill
T1C0.0236
; #@! TA.AperFunction,Plated,PTH,ComponentDrill
T2C0.0394
; #@! TA.AperFunction,Plated,PTH,ComponentDrill
T3C0.0433
%
G90
G05
T2
X0.39Y-0.075
X0.39Y-0.875
X0.49Y-0.075
X0.49Y-0.875
X0.59Y-0.075
X0.59Y-0.875
X0.69Y-0.075
X0.69Y-0.875
X0.79Y-0.075
X0.79Y-0.875
X0.89Y-0.075
X0.89Y-0.875
X0.99Y-0.075
X0.99Y-0.875
X1.09Y-0.075
X1.09Y-0.875
T3
X1.0621Y-0.2364
X1.0621Y-0.4135
X1.0621Y-0.5364
X1.0621Y-0.7135
X1.318Y-0.2364
X1.318Y-0.4135
X1.318Y-0.5364
X1.318Y-0.7135
T1
G00X0.0359Y-0.3049
M15
G01X0.0595Y-0.3049
M16
G05
G00X0.0359Y-0.6451
M15
G01X0.0595Y-0.6451
M16
G05
G00X0.1906Y-0.3049
M15
G01X0.2339Y-0.3049
M16
G05
G00X0.1906Y-0.6451
M15
G01X0.2339Y-0.6451
M16
G05
M30
