ISO-10303-21;
HEADER;
/* Generated by software containing ST-Developer
 * from STEP Tools, Inc. (www.steptools.com) 
 */

FILE_DESCRIPTION(
/* description */ (''),
/* implementation_level */ '2;1');

FILE_NAME(
/* name */ 'heat_block_als_tool.step',
/* time_stamp */ '2026-06-01T05:57:13-07:00',
/* author */ (''),
/* organization */ (''),
/* preprocessor_version */ 'ST-DEVELOPER v20.1',
/* originating_system */ 'Autodesk Translation Framework v14.24.0.0',
/* authorisation */ '');

FILE_SCHEMA (('AUTOMOTIVE_DESIGN { 1 0 10303 214 3 1 1 }'));
ENDSEC;

DATA;
#10=MECHANICAL_DESIGN_GEOMETRIC_PRESENTATION_REPRESENTATION('',(#13),#461);
#11=SHAPE_REPRESENTATION_RELATIONSHIP('SRR','None',#468,#12);
#12=ADVANCED_BREP_SHAPE_REPRESENTATION('',(#14),#460);
#13=STYLED_ITEM('',(#477),#14);
#14=MANIFOLD_SOLID_BREP('Body1',#251);
#15=PLANE('',#282);
#16=PLANE('',#283);
#17=PLANE('',#284);
#18=PLANE('',#285);
#19=PLANE('',#286);
#20=PLANE('',#287);
#21=FACE_BOUND('',#57,.T.);
#22=FACE_BOUND('',#59,.T.);
#23=FACE_BOUND('',#60,.T.);
#24=FACE_BOUND('',#63,.T.);
#25=FACE_BOUND('',#67,.T.);
#26=FACE_BOUND('',#68,.T.);
#27=FACE_BOUND('',#69,.T.);
#28=B_SPLINE_CURVE_WITH_KNOTS('',3,(#372,#373,#374,#375,#376,#377,#378,
#379,#380,#381),.UNSPECIFIED.,.F.,.F.,(4,2,2,2,4),(0.,0.0483003012339288,
0.0966006024678576,0.144843797781174,0.193086993094491),.UNSPECIFIED.);
#29=B_SPLINE_CURVE_WITH_KNOTS('',3,(#382,#383,#384,#385,#386,#387,#388,
#389,#390,#391,#392,#393,#394,#395,#396,#397,#398,#399,#400,#401,#402,#403,
#404,#405,#406,#407),.UNSPECIFIED.,.F.,.F.,(4,2,2,2,2,2,2,2,2,2,2,2,4),
(0.193086993094491,0.241330188407807,0.289573383721124,0.337873684955053,
0.386173986188982,0.434474287422911,0.48277458865684,0.531017783970157,
0.579260979283474,0.62750417459679,0.675747369910107,0.724047671144036,
0.772347972377965),.UNSPECIFIED.);
#30=CYLINDRICAL_SURFACE('',#267,1.);
#31=CYLINDRICAL_SURFACE('',#269,1.2645);
#32=CYLINDRICAL_SURFACE('',#273,1.2645);
#33=CYLINDRICAL_SURFACE('',#277,5.1);
#34=CYLINDRICAL_SURFACE('',#279,3.04999999999999);
#35=FACE_OUTER_BOUND('',#49,.T.);
#36=FACE_OUTER_BOUND('',#50,.T.);
#37=FACE_OUTER_BOUND('',#51,.T.);
#38=FACE_OUTER_BOUND('',#52,.T.);
#39=FACE_OUTER_BOUND('',#53,.T.);
#40=FACE_OUTER_BOUND('',#54,.T.);
#41=FACE_OUTER_BOUND('',#55,.T.);
#42=FACE_OUTER_BOUND('',#56,.T.);
#43=FACE_OUTER_BOUND('',#58,.T.);
#44=FACE_OUTER_BOUND('',#61,.T.);
#45=FACE_OUTER_BOUND('',#62,.T.);
#46=FACE_OUTER_BOUND('',#64,.T.);
#47=FACE_OUTER_BOUND('',#65,.T.);
#48=FACE_OUTER_BOUND('',#66,.T.);
#49=EDGE_LOOP('',(#172,#173,#174));
#50=EDGE_LOOP('',(#175,#176,#177,#178));
#51=EDGE_LOOP('',(#179,#180,#181,#182,#183));
#52=EDGE_LOOP('',(#184,#185,#186));
#53=EDGE_LOOP('',(#187,#188,#189,#190));
#54=EDGE_LOOP('',(#191,#192,#193));
#55=EDGE_LOOP('',(#194,#195,#196,#197));
#56=EDGE_LOOP('',(#198,#199,#200,#201));
#57=EDGE_LOOP('',(#202,#203));
#58=EDGE_LOOP('',(#204,#205,#206,#207));
#59=EDGE_LOOP('',(#208));
#60=EDGE_LOOP('',(#209));
#61=EDGE_LOOP('',(#210,#211,#212,#213));
#62=EDGE_LOOP('',(#214,#215,#216,#217));
#63=EDGE_LOOP('',(#218));
#64=EDGE_LOOP('',(#219,#220,#221,#222));
#65=EDGE_LOOP('',(#223,#224,#225,#226));
#66=EDGE_LOOP('',(#227,#228,#229,#230));
#67=EDGE_LOOP('',(#231));
#68=EDGE_LOOP('',(#232));
#69=EDGE_LOOP('',(#233));
#70=LINE('',#361,#90);
#71=LINE('',#365,#91);
#72=LINE('',#370,#92);
#73=LINE('',#412,#93);
#74=LINE('',#416,#94);
#75=LINE('',#421,#95);
#76=LINE('',#425,#96);
#77=LINE('',#430,#97);
#78=LINE('',#435,#98);
#79=LINE('',#437,#99);
#80=LINE('',#439,#100);
#81=LINE('',#440,#101);
#82=LINE('',#443,#102);
#83=LINE('',#445,#103);
#84=LINE('',#446,#104);
#85=LINE('',#449,#105);
#86=LINE('',#451,#106);
#87=LINE('',#452,#107);
#88=LINE('',#454,#108);
#89=LINE('',#455,#109);
#90=VECTOR('',#294,0.5);
#91=VECTOR('',#299,1.);
#92=VECTOR('',#304,1.2645);
#93=VECTOR('',#309,0.63225);
#94=VECTOR('',#314,1.2645);
#95=VECTOR('',#319,2.55);
#96=VECTOR('',#324,5.1);
#97=VECTOR('',#329,3.04999999999999);
#98=VECTOR('',#334,10.);
#99=VECTOR('',#335,10.);
#100=VECTOR('',#336,10.);
#101=VECTOR('',#337,10.);
#102=VECTOR('',#340,10.);
#103=VECTOR('',#341,10.);
#104=VECTOR('',#342,10.);
#105=VECTOR('',#345,10.);
#106=VECTOR('',#346,10.);
#107=VECTOR('',#347,10.);
#108=VECTOR('',#350,10.);
#109=VECTOR('',#351,10.);
#110=CIRCLE('',#266,1.);
#111=CIRCLE('',#268,1.);
#112=CIRCLE('',#270,1.2645);
#113=CIRCLE('',#272,1.2645);
#114=CIRCLE('',#274,1.2645);
#115=CIRCLE('',#276,5.1);
#116=CIRCLE('',#278,5.1);
#117=CIRCLE('',#280,3.04999999999999);
#118=CIRCLE('',#281,3.04999999999999);
#119=VERTEX_POINT('',#358);
#120=VERTEX_POINT('',#360);
#121=VERTEX_POINT('',#363);
#122=VERTEX_POINT('',#367);
#123=VERTEX_POINT('',#369);
#124=VERTEX_POINT('',#371);
#125=VERTEX_POINT('',#409);
#126=VERTEX_POINT('',#411);
#127=VERTEX_POINT('',#414);
#128=VERTEX_POINT('',#418);
#129=VERTEX_POINT('',#420);
#130=VERTEX_POINT('',#423);
#131=VERTEX_POINT('',#427);
#132=VERTEX_POINT('',#429);
#133=VERTEX_POINT('',#433);
#134=VERTEX_POINT('',#434);
#135=VERTEX_POINT('',#436);
#136=VERTEX_POINT('',#438);
#137=VERTEX_POINT('',#442);
#138=VERTEX_POINT('',#444);
#139=VERTEX_POINT('',#448);
#140=VERTEX_POINT('',#450);
#141=EDGE_CURVE('',#119,#119,#110,.T.);
#142=EDGE_CURVE('',#119,#120,#70,.T.);
#143=EDGE_CURVE('',#121,#121,#111,.T.);
#144=EDGE_CURVE('',#121,#119,#71,.T.);
#145=EDGE_CURVE('',#122,#122,#112,.T.);
#146=EDGE_CURVE('',#122,#123,#72,.T.);
#147=EDGE_CURVE('',#124,#123,#28,.T.);
#148=EDGE_CURVE('',#123,#124,#29,.T.);
#149=EDGE_CURVE('',#125,#125,#113,.T.);
#150=EDGE_CURVE('',#125,#126,#73,.T.);
#151=EDGE_CURVE('',#127,#127,#114,.T.);
#152=EDGE_CURVE('',#127,#125,#74,.T.);
#153=EDGE_CURVE('',#128,#128,#115,.T.);
#154=EDGE_CURVE('',#128,#129,#75,.T.);
#155=EDGE_CURVE('',#130,#130,#116,.T.);
#156=EDGE_CURVE('',#130,#128,#76,.T.);
#157=EDGE_CURVE('',#131,#131,#117,.T.);
#158=EDGE_CURVE('',#131,#132,#77,.T.);
#159=EDGE_CURVE('',#132,#132,#118,.T.);
#160=EDGE_CURVE('',#133,#134,#78,.T.);
#161=EDGE_CURVE('',#134,#135,#79,.T.);
#162=EDGE_CURVE('',#136,#135,#80,.T.);
#163=EDGE_CURVE('',#133,#136,#81,.T.);
#164=EDGE_CURVE('',#137,#133,#82,.T.);
#165=EDGE_CURVE('',#138,#136,#83,.T.);
#166=EDGE_CURVE('',#137,#138,#84,.T.);
#167=EDGE_CURVE('',#139,#137,#85,.T.);
#168=EDGE_CURVE('',#140,#138,#86,.T.);
#169=EDGE_CURVE('',#139,#140,#87,.T.);
#170=EDGE_CURVE('',#134,#139,#88,.T.);
#171=EDGE_CURVE('',#135,#140,#89,.T.);
#172=ORIENTED_EDGE('',*,*,#141,.F.);
#173=ORIENTED_EDGE('',*,*,#142,.T.);
#174=ORIENTED_EDGE('',*,*,#142,.F.);
#175=ORIENTED_EDGE('',*,*,#143,.F.);
#176=ORIENTED_EDGE('',*,*,#144,.T.);
#177=ORIENTED_EDGE('',*,*,#141,.T.);
#178=ORIENTED_EDGE('',*,*,#144,.F.);
#179=ORIENTED_EDGE('',*,*,#145,.F.);
#180=ORIENTED_EDGE('',*,*,#146,.T.);
#181=ORIENTED_EDGE('',*,*,#147,.F.);
#182=ORIENTED_EDGE('',*,*,#148,.F.);
#183=ORIENTED_EDGE('',*,*,#146,.F.);
#184=ORIENTED_EDGE('',*,*,#149,.F.);
#185=ORIENTED_EDGE('',*,*,#150,.T.);
#186=ORIENTED_EDGE('',*,*,#150,.F.);
#187=ORIENTED_EDGE('',*,*,#151,.F.);
#188=ORIENTED_EDGE('',*,*,#152,.T.);
#189=ORIENTED_EDGE('',*,*,#149,.T.);
#190=ORIENTED_EDGE('',*,*,#152,.F.);
#191=ORIENTED_EDGE('',*,*,#153,.F.);
#192=ORIENTED_EDGE('',*,*,#154,.T.);
#193=ORIENTED_EDGE('',*,*,#154,.F.);
#194=ORIENTED_EDGE('',*,*,#155,.F.);
#195=ORIENTED_EDGE('',*,*,#156,.T.);
#196=ORIENTED_EDGE('',*,*,#153,.T.);
#197=ORIENTED_EDGE('',*,*,#156,.F.);
#198=ORIENTED_EDGE('',*,*,#157,.F.);
#199=ORIENTED_EDGE('',*,*,#158,.T.);
#200=ORIENTED_EDGE('',*,*,#159,.F.);
#201=ORIENTED_EDGE('',*,*,#158,.F.);
#202=ORIENTED_EDGE('',*,*,#147,.T.);
#203=ORIENTED_EDGE('',*,*,#148,.T.);
#204=ORIENTED_EDGE('',*,*,#160,.T.);
#205=ORIENTED_EDGE('',*,*,#161,.T.);
#206=ORIENTED_EDGE('',*,*,#162,.F.);
#207=ORIENTED_EDGE('',*,*,#163,.F.);
#208=ORIENTED_EDGE('',*,*,#155,.T.);
#209=ORIENTED_EDGE('',*,*,#157,.T.);
#210=ORIENTED_EDGE('',*,*,#164,.T.);
#211=ORIENTED_EDGE('',*,*,#163,.T.);
#212=ORIENTED_EDGE('',*,*,#165,.F.);
#213=ORIENTED_EDGE('',*,*,#166,.F.);
#214=ORIENTED_EDGE('',*,*,#167,.T.);
#215=ORIENTED_EDGE('',*,*,#166,.T.);
#216=ORIENTED_EDGE('',*,*,#168,.F.);
#217=ORIENTED_EDGE('',*,*,#169,.F.);
#218=ORIENTED_EDGE('',*,*,#159,.T.);
#219=ORIENTED_EDGE('',*,*,#170,.T.);
#220=ORIENTED_EDGE('',*,*,#169,.T.);
#221=ORIENTED_EDGE('',*,*,#171,.F.);
#222=ORIENTED_EDGE('',*,*,#161,.F.);
#223=ORIENTED_EDGE('',*,*,#171,.T.);
#224=ORIENTED_EDGE('',*,*,#168,.T.);
#225=ORIENTED_EDGE('',*,*,#165,.T.);
#226=ORIENTED_EDGE('',*,*,#162,.T.);
#227=ORIENTED_EDGE('',*,*,#170,.F.);
#228=ORIENTED_EDGE('',*,*,#160,.F.);
#229=ORIENTED_EDGE('',*,*,#164,.F.);
#230=ORIENTED_EDGE('',*,*,#167,.F.);
#231=ORIENTED_EDGE('',*,*,#143,.T.);
#232=ORIENTED_EDGE('',*,*,#145,.T.);
#233=ORIENTED_EDGE('',*,*,#151,.T.);
#234=CONICAL_SURFACE('',#265,0.5,1.02974425867665);
#235=CONICAL_SURFACE('',#271,0.63225,1.02974425867665);
#236=CONICAL_SURFACE('',#275,2.55,1.02974425867665);
#237=ADVANCED_FACE('',(#35),#234,.F.);
#238=ADVANCED_FACE('',(#36),#30,.F.);
#239=ADVANCED_FACE('',(#37),#31,.F.);
#240=ADVANCED_FACE('',(#38),#235,.F.);
#241=ADVANCED_FACE('',(#39),#32,.F.);
#242=ADVANCED_FACE('',(#40),#236,.F.);
#243=ADVANCED_FACE('',(#41),#33,.F.);
#244=ADVANCED_FACE('',(#42,#21),#34,.F.);
#245=ADVANCED_FACE('',(#43,#22,#23),#15,.T.);
#246=ADVANCED_FACE('',(#44),#16,.T.);
#247=ADVANCED_FACE('',(#45,#24),#17,.T.);
#248=ADVANCED_FACE('',(#46),#18,.T.);
#249=ADVANCED_FACE('',(#47),#19,.T.);
#250=ADVANCED_FACE('',(#48,#25,#26,#27),#20,.F.);
#251=CLOSED_SHELL('',(#237,#238,#239,#240,#241,#242,#243,#244,#245,#246,
#247,#248,#249,#250));
#252=DERIVED_UNIT_ELEMENT(#254,1.);
#253=DERIVED_UNIT_ELEMENT(#463,-3.);
#254=(
MASS_UNIT()
NAMED_UNIT(*)
SI_UNIT(.KILO.,.GRAM.)
);
#255=DERIVED_UNIT((#252,#253));
#256=MEASURE_REPRESENTATION_ITEM('density measure',
POSITIVE_RATIO_MEASURE(7850.),#255);
#257=PROPERTY_DEFINITION_REPRESENTATION(#262,#259);
#258=PROPERTY_DEFINITION_REPRESENTATION(#263,#260);
#259=REPRESENTATION('material name',(#261),#460);
#260=REPRESENTATION('density',(#256),#460);
#261=DESCRIPTIVE_REPRESENTATION_ITEM('Steel','Steel');
#262=PROPERTY_DEFINITION('material property','material name',#470);
#263=PROPERTY_DEFINITION('material property','density of part',#470);
#264=AXIS2_PLACEMENT_3D('',#356,#288,#289);
#265=AXIS2_PLACEMENT_3D('',#357,#290,#291);
#266=AXIS2_PLACEMENT_3D('',#359,#292,#293);
#267=AXIS2_PLACEMENT_3D('',#362,#295,#296);
#268=AXIS2_PLACEMENT_3D('',#364,#297,#298);
#269=AXIS2_PLACEMENT_3D('',#366,#300,#301);
#270=AXIS2_PLACEMENT_3D('',#368,#302,#303);
#271=AXIS2_PLACEMENT_3D('',#408,#305,#306);
#272=AXIS2_PLACEMENT_3D('',#410,#307,#308);
#273=AXIS2_PLACEMENT_3D('',#413,#310,#311);
#274=AXIS2_PLACEMENT_3D('',#415,#312,#313);
#275=AXIS2_PLACEMENT_3D('',#417,#315,#316);
#276=AXIS2_PLACEMENT_3D('',#419,#317,#318);
#277=AXIS2_PLACEMENT_3D('',#422,#320,#321);
#278=AXIS2_PLACEMENT_3D('',#424,#322,#323);
#279=AXIS2_PLACEMENT_3D('',#426,#325,#326);
#280=AXIS2_PLACEMENT_3D('',#428,#327,#328);
#281=AXIS2_PLACEMENT_3D('',#431,#330,#331);
#282=AXIS2_PLACEMENT_3D('',#432,#332,#333);
#283=AXIS2_PLACEMENT_3D('',#441,#338,#339);
#284=AXIS2_PLACEMENT_3D('',#447,#343,#344);
#285=AXIS2_PLACEMENT_3D('',#453,#348,#349);
#286=AXIS2_PLACEMENT_3D('',#456,#352,#353);
#287=AXIS2_PLACEMENT_3D('',#457,#354,#355);
#288=DIRECTION('axis',(0.,0.,1.));
#289=DIRECTION('refdir',(1.,0.,0.));
#290=DIRECTION('center_axis',(0.,-1.,0.));
#291=DIRECTION('ref_axis',(0.,0.,-1.));
#292=DIRECTION('center_axis',(0.,1.,0.));
#293=DIRECTION('ref_axis',(0.,0.,-1.));
#294=DIRECTION('',(-1.04972719113862E-16,0.515038074910054,-0.857167300702112));
#295=DIRECTION('center_axis',(0.,1.,0.));
#296=DIRECTION('ref_axis',(0.,0.,-1.));
#297=DIRECTION('center_axis',(0.,1.,0.));
#298=DIRECTION('ref_axis',(0.,0.,-1.));
#299=DIRECTION('',(0.,1.,0.));
#300=DIRECTION('center_axis',(0.,1.,0.));
#301=DIRECTION('ref_axis',(0.,0.,-1.));
#302=DIRECTION('center_axis',(0.,1.,0.));
#303=DIRECTION('ref_axis',(0.,0.,-1.));
#304=DIRECTION('',(0.,1.,0.));
#305=DIRECTION('center_axis',(0.,-1.,0.));
#306=DIRECTION('ref_axis',(0.,0.,-1.));
#307=DIRECTION('center_axis',(0.,1.,0.));
#308=DIRECTION('ref_axis',(0.,0.,-1.));
#309=DIRECTION('',(-1.04972719113862E-16,0.515038074910054,-0.857167300702112));
#310=DIRECTION('center_axis',(0.,1.,0.));
#311=DIRECTION('ref_axis',(0.,0.,-1.));
#312=DIRECTION('center_axis',(0.,1.,0.));
#313=DIRECTION('ref_axis',(0.,0.,-1.));
#314=DIRECTION('',(0.,1.,0.));
#315=DIRECTION('center_axis',(0.,0.,1.));
#316=DIRECTION('ref_axis',(1.,0.,0.));
#317=DIRECTION('center_axis',(0.,0.,-1.));
#318=DIRECTION('ref_axis',(1.,0.,0.));
#319=DIRECTION('',(0.857167300702112,-1.04972719113862E-16,-0.515038074910054));
#320=DIRECTION('center_axis',(0.,0.,-1.));
#321=DIRECTION('ref_axis',(1.,0.,0.));
#322=DIRECTION('center_axis',(0.,0.,-1.));
#323=DIRECTION('ref_axis',(1.,0.,0.));
#324=DIRECTION('',(0.,0.,-1.));
#325=DIRECTION('center_axis',(0.,0.,-1.));
#326=DIRECTION('ref_axis',(-1.,0.,0.));
#327=DIRECTION('center_axis',(0.,0.,-1.));
#328=DIRECTION('ref_axis',(-1.,0.,0.));
#329=DIRECTION('',(0.,0.,-1.));
#330=DIRECTION('center_axis',(3.85185988877447E-33,0.,1.));
#331=DIRECTION('ref_axis',(-1.,0.,0.));
#332=DIRECTION('center_axis',(0.,0.,1.));
#333=DIRECTION('ref_axis',(1.,0.,0.));
#334=DIRECTION('',(1.,0.,0.));
#335=DIRECTION('',(0.,1.,0.));
#336=DIRECTION('',(1.,0.,0.));
#337=DIRECTION('',(0.,1.,0.));
#338=DIRECTION('center_axis',(-1.,0.,0.));
#339=DIRECTION('ref_axis',(0.,0.,1.));
#340=DIRECTION('',(0.,0.,1.));
#341=DIRECTION('',(0.,0.,1.));
#342=DIRECTION('',(0.,1.,0.));
#343=DIRECTION('center_axis',(-3.85185988877447E-33,0.,-1.));
#344=DIRECTION('ref_axis',(-1.,0.,3.85185988877447E-33));
#345=DIRECTION('',(-1.,0.,3.85185988877447E-33));
#346=DIRECTION('',(-1.,0.,3.85185988877447E-33));
#347=DIRECTION('',(0.,1.,0.));
#348=DIRECTION('center_axis',(1.,0.,0.));
#349=DIRECTION('ref_axis',(0.,0.,-1.));
#350=DIRECTION('',(0.,0.,-1.));
#351=DIRECTION('',(0.,0.,-1.));
#352=DIRECTION('center_axis',(0.,1.,0.));
#353=DIRECTION('ref_axis',(0.,0.,1.));
#354=DIRECTION('center_axis',(0.,1.,0.));
#355=DIRECTION('ref_axis',(1.,0.,0.));
#356=CARTESIAN_POINT('',(0.,0.,0.));
#357=CARTESIAN_POINT('Origin',(-11.4,3.30043030951378,40.));
#358=CARTESIAN_POINT('',(-11.4,3.,41.));
#359=CARTESIAN_POINT('Origin',(-11.4,3.,40.));
#360=CARTESIAN_POINT('',(-11.4,3.60086061902756,40.));
#361=CARTESIAN_POINT('',(-11.4,3.30043030951378,40.5));
#362=CARTESIAN_POINT('Origin',(-11.4,1.5,40.));
#363=CARTESIAN_POINT('',(-11.4,0.,41.));
#364=CARTESIAN_POINT('Origin',(-11.4,0.,40.));
#365=CARTESIAN_POINT('',(-11.4,1.5,41.));
#366=CARTESIAN_POINT('Origin',(-19.,3.,40.));
#367=CARTESIAN_POINT('',(-19.,0.,41.2645));
#368=CARTESIAN_POINT('Origin',(-19.,0.,40.));
#369=CARTESIAN_POINT('',(-19.,2.95000000000001,41.2645));
#370=CARTESIAN_POINT('',(-19.,3.,41.2645));
#371=CARTESIAN_POINT('',(-17.7355,3.22447486950668,40.));
#372=CARTESIAN_POINT('Ctrl Pts',(-17.7355,3.22447486950668,40.));
#373=CARTESIAN_POINT('Ctrl Pts',(-17.7355,3.22447486950668,40.1610010041131));
#374=CARTESIAN_POINT('Ctrl Pts',(-17.7680756147019,3.20898204508669,40.3311729573406));
#375=CARTESIAN_POINT('Ctrl Pts',(-17.8976668224274,3.15530667503142,40.642008747267));
#376=CARTESIAN_POINT('Ctrl Pts',(-17.9946037834161,3.11812195747448,40.7828768330369));
#377=CARTESIAN_POINT('Ctrl Pts',(-18.2169916235366,3.0499307664866,41.0052646731573));
#378=CARTESIAN_POINT('Ctrl Pts',(-18.3579088309588,3.01419433988791,41.1023010012735));
#379=CARTESIAN_POINT('Ctrl Pts',(-18.6689387991091,2.96393099644668,41.2319687913802));
#380=CARTESIAN_POINT('Ctrl Pts',(-18.8391893489556,2.95000000000001,41.2645));
#381=CARTESIAN_POINT('Ctrl Pts',(-19.,2.95000000000001,41.2645));
#382=CARTESIAN_POINT('Ctrl Pts',(-19.,2.95000000000001,41.2645));
#383=CARTESIAN_POINT('Ctrl Pts',(-19.1608106510444,2.95000000000001,41.2645));
#384=CARTESIAN_POINT('Ctrl Pts',(-19.3310612008909,2.96393099644668,41.2319687913802));
#385=CARTESIAN_POINT('Ctrl Pts',(-19.6420911690412,3.01419433988791,41.1023010012735));
#386=CARTESIAN_POINT('Ctrl Pts',(-19.7830083764634,3.0499307664866,41.0052646731573));
#387=CARTESIAN_POINT('Ctrl Pts',(-20.0053962165839,3.11812195747448,40.7828768330369));
#388=CARTESIAN_POINT('Ctrl Pts',(-20.1023331775726,3.15530667503143,40.642008747267));
#389=CARTESIAN_POINT('Ctrl Pts',(-20.2319243852981,3.20898204508669,40.3311729573406));
#390=CARTESIAN_POINT('Ctrl Pts',(-20.2645,3.22447486950668,40.1610010041131));
#391=CARTESIAN_POINT('Ctrl Pts',(-20.2645,3.22447486950668,39.8389989958869));
#392=CARTESIAN_POINT('Ctrl Pts',(-20.2319243852981,3.20898204508669,39.6688270426594));
#393=CARTESIAN_POINT('Ctrl Pts',(-20.1023331775726,3.15530667503143,39.357991252733));
#394=CARTESIAN_POINT('Ctrl Pts',(-20.0053962165839,3.11812195747448,39.2171231669631));
#395=CARTESIAN_POINT('Ctrl Pts',(-19.7830083764634,3.0499307664866,38.9947353268427));
#396=CARTESIAN_POINT('Ctrl Pts',(-19.6420911690412,3.01419433988791,38.8976989987265));
#397=CARTESIAN_POINT('Ctrl Pts',(-19.3310612008909,2.96393099644668,38.7680312086198));
#398=CARTESIAN_POINT('Ctrl Pts',(-19.1608106510444,2.95000000000001,38.7355));
#399=CARTESIAN_POINT('Ctrl Pts',(-18.8391893489556,2.95000000000001,38.7355));
#400=CARTESIAN_POINT('Ctrl Pts',(-18.6689387991091,2.96393099644668,38.7680312086198));
#401=CARTESIAN_POINT('Ctrl Pts',(-18.3579088309588,3.01419433988791,38.8976989987265));
#402=CARTESIAN_POINT('Ctrl Pts',(-18.2169916235366,3.0499307664866,38.9947353268427));
#403=CARTESIAN_POINT('Ctrl Pts',(-17.9946037834161,3.11812195747448,39.2171231669631));
#404=CARTESIAN_POINT('Ctrl Pts',(-17.8976668224274,3.15530667503143,39.357991252733));
#405=CARTESIAN_POINT('Ctrl Pts',(-17.7680756147019,3.20898204508669,39.6688270426594));
#406=CARTESIAN_POINT('Ctrl Pts',(-17.7355,3.22447486950668,39.8389989958869));
#407=CARTESIAN_POINT('Ctrl Pts',(-17.7355,3.22447486950668,40.));
#408=CARTESIAN_POINT('Origin',(-14.2,8.37989412638018,41.5));
#409=CARTESIAN_POINT('',(-14.2,8.,42.7645));
#410=CARTESIAN_POINT('Origin',(-14.2,8.,41.5));
#411=CARTESIAN_POINT('',(-14.2,8.75978825276035,41.5));
#412=CARTESIAN_POINT('',(-14.2,8.37989412638018,42.13225));
#413=CARTESIAN_POINT('Origin',(-14.2,4.,41.5));
#414=CARTESIAN_POINT('',(-14.2,0.,42.7645));
#415=CARTESIAN_POINT('Origin',(-14.2,0.,41.5));
#416=CARTESIAN_POINT('',(-14.2,4.,42.7645));
#417=CARTESIAN_POINT('Origin',(-7.49999999999999,7.5,3.46780542147972));
#418=CARTESIAN_POINT('',(-12.6,7.5,5.));
#419=CARTESIAN_POINT('Origin',(-7.49999999999999,7.5,5.));
#420=CARTESIAN_POINT('',(-7.49999999999999,7.5,1.93561084295943));
#421=CARTESIAN_POINT('',(-10.05,7.5,3.46780542147972));
#422=CARTESIAN_POINT('Origin',(-7.49999999999999,7.5,42.5));
#423=CARTESIAN_POINT('',(-12.6,7.5,80.));
#424=CARTESIAN_POINT('Origin',(-7.49999999999999,7.5,80.));
#425=CARTESIAN_POINT('',(-12.6,7.5,42.5));
#426=CARTESIAN_POINT('Origin',(-19.,6.,80.));
#427=CARTESIAN_POINT('',(-15.95,6.,80.));
#428=CARTESIAN_POINT('Origin',(-19.,6.,80.));
#429=CARTESIAN_POINT('',(-15.95,6.,0.));
#430=CARTESIAN_POINT('',(-15.95,6.,80.));
#431=CARTESIAN_POINT('Origin',(-19.,6.,0.));
#432=CARTESIAN_POINT('Origin',(-24.,0.,80.));
#433=CARTESIAN_POINT('',(-24.,0.,80.));
#434=CARTESIAN_POINT('',(0.,0.,80.));
#435=CARTESIAN_POINT('',(-24.,0.,80.));
#436=CARTESIAN_POINT('',(0.,15.,80.));
#437=CARTESIAN_POINT('',(0.,0.,80.));
#438=CARTESIAN_POINT('',(-24.,15.,80.));
#439=CARTESIAN_POINT('',(-24.,15.,80.));
#440=CARTESIAN_POINT('',(-24.,0.,80.));
#441=CARTESIAN_POINT('Origin',(-24.,0.,9.24446373305873E-32));
#442=CARTESIAN_POINT('',(-24.,0.,9.24446373305873E-32));
#443=CARTESIAN_POINT('',(-24.,0.,9.24446373305873E-32));
#444=CARTESIAN_POINT('',(-24.,15.,0.));
#445=CARTESIAN_POINT('',(-24.,15.,9.24446373305873E-32));
#446=CARTESIAN_POINT('',(-24.,0.,9.24446373305873E-32));
#447=CARTESIAN_POINT('Origin',(0.,0.,0.));
#448=CARTESIAN_POINT('',(0.,0.,0.));
#449=CARTESIAN_POINT('',(0.,0.,0.));
#450=CARTESIAN_POINT('',(0.,15.,0.));
#451=CARTESIAN_POINT('',(0.,15.,0.));
#452=CARTESIAN_POINT('',(0.,0.,0.));
#453=CARTESIAN_POINT('Origin',(0.,0.,80.));
#454=CARTESIAN_POINT('',(0.,0.,80.));
#455=CARTESIAN_POINT('',(0.,15.,80.));
#456=CARTESIAN_POINT('Origin',(-12.,15.,40.));
#457=CARTESIAN_POINT('Origin',(-12.,0.,40.));
#458=UNCERTAINTY_MEASURE_WITH_UNIT(LENGTH_MEASURE(0.01),#462,
'DISTANCE_ACCURACY_VALUE',
'Maximum model space distance between geometric entities at asserted c
onnectivities');
#459=UNCERTAINTY_MEASURE_WITH_UNIT(LENGTH_MEASURE(0.01),#462,
'DISTANCE_ACCURACY_VALUE',
'Maximum model space distance between geometric entities at asserted c
onnectivities');
#460=(
GEOMETRIC_REPRESENTATION_CONTEXT(3)
GLOBAL_UNCERTAINTY_ASSIGNED_CONTEXT((#458))
GLOBAL_UNIT_ASSIGNED_CONTEXT((#462,#464,#465))
REPRESENTATION_CONTEXT('','3D')
);
#461=(
GEOMETRIC_REPRESENTATION_CONTEXT(3)
GLOBAL_UNCERTAINTY_ASSIGNED_CONTEXT((#459))
GLOBAL_UNIT_ASSIGNED_CONTEXT((#462,#464,#465))
REPRESENTATION_CONTEXT('','3D')
);
#462=(
LENGTH_UNIT()
NAMED_UNIT(*)
SI_UNIT(.MILLI.,.METRE.)
);
#463=(
LENGTH_UNIT()
NAMED_UNIT(*)
SI_UNIT($,.METRE.)
);
#464=(
NAMED_UNIT(*)
PLANE_ANGLE_UNIT()
SI_UNIT($,.RADIAN.)
);
#465=(
NAMED_UNIT(*)
SI_UNIT($,.STERADIAN.)
SOLID_ANGLE_UNIT()
);
#466=SHAPE_DEFINITION_REPRESENTATION(#467,#468);
#467=PRODUCT_DEFINITION_SHAPE('',$,#470);
#468=SHAPE_REPRESENTATION('',(#264),#460);
#469=PRODUCT_DEFINITION_CONTEXT('part definition',#474,'design');
#470=PRODUCT_DEFINITION('heat_block_als_tool','heat_block_als_tool v1',
#471,#469);
#471=PRODUCT_DEFINITION_FORMATION('',$,#476);
#472=PRODUCT_RELATED_PRODUCT_CATEGORY('heat_block_als_tool v1',
'heat_block_als_tool v1',(#476));
#473=APPLICATION_PROTOCOL_DEFINITION('international standard',
'automotive_design',2009,#474);
#474=APPLICATION_CONTEXT(
'Core Data for Automotive Mechanical Design Process');
#475=PRODUCT_CONTEXT('part definition',#474,'mechanical');
#476=PRODUCT('heat_block_als_tool','heat_block_als_tool v1',$,(#475));
#477=PRESENTATION_STYLE_ASSIGNMENT((#478));
#478=SURFACE_STYLE_USAGE(.BOTH.,#479);
#479=SURFACE_SIDE_STYLE('',(#480));
#480=SURFACE_STYLE_FILL_AREA(#481);
#481=FILL_AREA_STYLE('Steel - Satin',(#482));
#482=FILL_AREA_STYLE_COLOUR('Steel - Satin',#483);
#483=COLOUR_RGB('Steel - Satin',0.627450980392157,0.627450980392157,0.627450980392157);
ENDSEC;
END-ISO-10303-21;
