%TF.GenerationSoftware,KiCad,Pcbnew,9.0.6*%
%TF.CreationDate,2025-11-24T21:34:53-08:00*%
%TF.ProjectId,rs485_adapter,72733438-355f-4616-9461-707465722e6b,A*%
%TF.SameCoordinates,Original*%
%TF.FileFunction,Copper,L1,Top*%
%TF.FilePolarity,Positive*%
%FSLAX46Y46*%
G04 Gerber Fmt 4.6, Leading zero omitted, Abs format (unit mm)*
G04 Created by KiCad (PCBNEW 9.0.6) date 2025-11-24 21:34:53*
%MOMM*%
%LPD*%
G01*
G04 APERTURE LIST*
G04 Aperture macros list*
%AMRoundRect*
0 Rectangle with rounded corners*
0 $1 Rounding radius*
0 $2 $3 $4 $5 $6 $7 $8 $9 X,Y pos of 4 corners*
0 Add a 4 corners polygon primitive as box body*
4,1,4,$2,$3,$4,$5,$6,$7,$8,$9,$2,$3,0*
0 Add four circle primitives for the rounded corners*
1,1,$1+$1,$2,$3*
1,1,$1+$1,$4,$5*
1,1,$1+$1,$6,$7*
1,1,$1+$1,$8,$9*
0 Add four rect primitives between the rounded corners*
20,1,$1+$1,$2,$3,$4,$5,0*
20,1,$1+$1,$4,$5,$6,$7,0*
20,1,$1+$1,$6,$7,$8,$9,0*
20,1,$1+$1,$8,$9,$2,$3,0*%
G04 Aperture macros list end*
%ADD10C,0.200000*%
%TA.AperFunction,NonConductor*%
%ADD11C,0.200000*%
%TD*%
%TA.AperFunction,SMDPad,CuDef*%
%ADD12R,1.000000X1.000000*%
%TD*%
%TA.AperFunction,SMDPad,CuDef*%
%ADD13RoundRect,0.225000X0.225000X0.250000X-0.225000X0.250000X-0.225000X-0.250000X0.225000X-0.250000X0*%
%TD*%
%TA.AperFunction,SMDPad,CuDef*%
%ADD14RoundRect,0.075000X-0.075000X0.737500X-0.075000X-0.737500X0.075000X-0.737500X0.075000X0.737500X0*%
%TD*%
%TA.AperFunction,SMDPad,CuDef*%
%ADD15RoundRect,0.150000X-0.825000X-0.150000X0.825000X-0.150000X0.825000X0.150000X-0.825000X0.150000X0*%
%TD*%
%TA.AperFunction,SMDPad,CuDef*%
%ADD16RoundRect,0.200000X-0.275000X0.200000X-0.275000X-0.200000X0.275000X-0.200000X0.275000X0.200000X0*%
%TD*%
%TA.AperFunction,SMDPad,CuDef*%
%ADD17RoundRect,0.200000X0.275000X-0.200000X0.275000X0.200000X-0.275000X0.200000X-0.275000X-0.200000X0*%
%TD*%
%TA.AperFunction,SMDPad,CuDef*%
%ADD18R,1.150000X0.300000*%
%TD*%
%TA.AperFunction,HeatsinkPad*%
%ADD19O,2.100000X1.000000*%
%TD*%
%TA.AperFunction,HeatsinkPad*%
%ADD20O,1.600000X1.000000*%
%TD*%
%TA.AperFunction,SMDPad,CuDef*%
%ADD21RoundRect,0.250000X-0.475000X0.250000X-0.475000X-0.250000X0.475000X-0.250000X0.475000X0.250000X0*%
%TD*%
%TA.AperFunction,SMDPad,CuDef*%
%ADD22RoundRect,0.250000X0.650000X-0.325000X0.650000X0.325000X-0.650000X0.325000X-0.650000X-0.325000X0*%
%TD*%
%TA.AperFunction,SMDPad,CuDef*%
%ADD23RoundRect,0.225000X-0.250000X0.225000X-0.250000X-0.225000X0.250000X-0.225000X0.250000X0.225000X0*%
%TD*%
%TA.AperFunction,ComponentPad*%
%ADD24C,2.600000*%
%TD*%
%TA.AperFunction,ComponentPad*%
%ADD25RoundRect,0.250000X-1.050000X1.050000X-1.050000X-1.050000X1.050000X-1.050000X1.050000X1.050000X0*%
%TD*%
%TA.AperFunction,Conductor*%
%ADD26C,0.300000*%
%TD*%
%TA.AperFunction,Conductor*%
%ADD27C,0.350000*%
%TD*%
%TA.AperFunction,Conductor*%
%ADD28C,0.400000*%
%TD*%
%TA.AperFunction,Conductor*%
%ADD29C,0.250000*%
%TD*%
%TA.AperFunction,Conductor*%
%ADD30C,0.500000*%
%TD*%
%TA.AperFunction,Conductor*%
%ADD31C,0.200000*%
%TD*%
G04 APERTURE END LIST*
%TA.AperFunction,Conductor*%
%TO.N,GND*%
G36*
X146850000Y-96105000D02*
G01*
X148935000Y-96105000D01*
X148935000Y-97355000D01*
X146850000Y-97355000D01*
X146850000Y-96105000D01*
G37*
%TD.AperFunction*%
%TA.AperFunction,Conductor*%
G36*
X146850000Y-105850000D02*
G01*
X148935000Y-105850000D01*
X148935000Y-107000000D01*
X146850000Y-107000000D01*
X146850000Y-105850000D01*
G37*
%TD.AperFunction*%
%TA.AperFunction,Conductor*%
G36*
X142950000Y-105850000D02*
G01*
X144450000Y-105850000D01*
X144450000Y-107100000D01*
X142950000Y-107100000D01*
X142950000Y-105850000D01*
G37*
%TD.AperFunction*%
%TA.AperFunction,Conductor*%
G36*
X142950000Y-96100000D02*
G01*
X144450000Y-96100000D01*
X144450000Y-97350000D01*
X142950000Y-97350000D01*
X142950000Y-96100000D01*
G37*
%TD.AperFunction*%
D10*
D11*
X142069673Y-94217219D02*
X142069673Y-95026742D01*
X142069673Y-95026742D02*
X142117292Y-95121980D01*
X142117292Y-95121980D02*
X142164911Y-95169600D01*
X142164911Y-95169600D02*
X142260149Y-95217219D01*
X142260149Y-95217219D02*
X142450625Y-95217219D01*
X142450625Y-95217219D02*
X142545863Y-95169600D01*
X142545863Y-95169600D02*
X142593482Y-95121980D01*
X142593482Y-95121980D02*
X142641101Y-95026742D01*
X142641101Y-95026742D02*
X142641101Y-94217219D01*
X143069673Y-95169600D02*
X143212530Y-95217219D01*
X143212530Y-95217219D02*
X143450625Y-95217219D01*
X143450625Y-95217219D02*
X143545863Y-95169600D01*
X143545863Y-95169600D02*
X143593482Y-95121980D01*
X143593482Y-95121980D02*
X143641101Y-95026742D01*
X143641101Y-95026742D02*
X143641101Y-94931504D01*
X143641101Y-94931504D02*
X143593482Y-94836266D01*
X143593482Y-94836266D02*
X143545863Y-94788647D01*
X143545863Y-94788647D02*
X143450625Y-94741028D01*
X143450625Y-94741028D02*
X143260149Y-94693409D01*
X143260149Y-94693409D02*
X143164911Y-94645790D01*
X143164911Y-94645790D02*
X143117292Y-94598171D01*
X143117292Y-94598171D02*
X143069673Y-94502933D01*
X143069673Y-94502933D02*
X143069673Y-94407695D01*
X143069673Y-94407695D02*
X143117292Y-94312457D01*
X143117292Y-94312457D02*
X143164911Y-94264838D01*
X143164911Y-94264838D02*
X143260149Y-94217219D01*
X143260149Y-94217219D02*
X143498244Y-94217219D01*
X143498244Y-94217219D02*
X143641101Y-94264838D01*
X144403006Y-94693409D02*
X144545863Y-94741028D01*
X144545863Y-94741028D02*
X144593482Y-94788647D01*
X144593482Y-94788647D02*
X144641101Y-94883885D01*
X144641101Y-94883885D02*
X144641101Y-95026742D01*
X144641101Y-95026742D02*
X144593482Y-95121980D01*
X144593482Y-95121980D02*
X144545863Y-95169600D01*
X144545863Y-95169600D02*
X144450625Y-95217219D01*
X144450625Y-95217219D02*
X144069673Y-95217219D01*
X144069673Y-95217219D02*
X144069673Y-94217219D01*
X144069673Y-94217219D02*
X144403006Y-94217219D01*
X144403006Y-94217219D02*
X144498244Y-94264838D01*
X144498244Y-94264838D02*
X144545863Y-94312457D01*
X144545863Y-94312457D02*
X144593482Y-94407695D01*
X144593482Y-94407695D02*
X144593482Y-94502933D01*
X144593482Y-94502933D02*
X144545863Y-94598171D01*
X144545863Y-94598171D02*
X144498244Y-94645790D01*
X144498244Y-94645790D02*
X144403006Y-94693409D01*
X144403006Y-94693409D02*
X144069673Y-94693409D01*
X145069673Y-94836266D02*
X145831578Y-94836266D01*
X146879196Y-95121980D02*
X146831577Y-95169600D01*
X146831577Y-95169600D02*
X146688720Y-95217219D01*
X146688720Y-95217219D02*
X146593482Y-95217219D01*
X146593482Y-95217219D02*
X146450625Y-95169600D01*
X146450625Y-95169600D02*
X146355387Y-95074361D01*
X146355387Y-95074361D02*
X146307768Y-94979123D01*
X146307768Y-94979123D02*
X146260149Y-94788647D01*
X146260149Y-94788647D02*
X146260149Y-94645790D01*
X146260149Y-94645790D02*
X146307768Y-94455314D01*
X146307768Y-94455314D02*
X146355387Y-94360076D01*
X146355387Y-94360076D02*
X146450625Y-94264838D01*
X146450625Y-94264838D02*
X146593482Y-94217219D01*
X146593482Y-94217219D02*
X146688720Y-94217219D01*
X146688720Y-94217219D02*
X146831577Y-94264838D01*
X146831577Y-94264838D02*
X146879196Y-94312457D01*
X147926816Y-94550552D02*
X148307768Y-94550552D01*
X148069673Y-94217219D02*
X148069673Y-95074361D01*
X148069673Y-95074361D02*
X148117292Y-95169600D01*
X148117292Y-95169600D02*
X148212530Y-95217219D01*
X148212530Y-95217219D02*
X148307768Y-95217219D01*
X148783959Y-95217219D02*
X148688721Y-95169600D01*
X148688721Y-95169600D02*
X148641102Y-95121980D01*
X148641102Y-95121980D02*
X148593483Y-95026742D01*
X148593483Y-95026742D02*
X148593483Y-94741028D01*
X148593483Y-94741028D02*
X148641102Y-94645790D01*
X148641102Y-94645790D02*
X148688721Y-94598171D01*
X148688721Y-94598171D02*
X148783959Y-94550552D01*
X148783959Y-94550552D02*
X148926816Y-94550552D01*
X148926816Y-94550552D02*
X149022054Y-94598171D01*
X149022054Y-94598171D02*
X149069673Y-94645790D01*
X149069673Y-94645790D02*
X149117292Y-94741028D01*
X149117292Y-94741028D02*
X149117292Y-95026742D01*
X149117292Y-95026742D02*
X149069673Y-95121980D01*
X149069673Y-95121980D02*
X149022054Y-95169600D01*
X149022054Y-95169600D02*
X148926816Y-95217219D01*
X148926816Y-95217219D02*
X148783959Y-95217219D01*
X150879197Y-95217219D02*
X150545864Y-94741028D01*
X150307769Y-95217219D02*
X150307769Y-94217219D01*
X150307769Y-94217219D02*
X150688721Y-94217219D01*
X150688721Y-94217219D02*
X150783959Y-94264838D01*
X150783959Y-94264838D02*
X150831578Y-94312457D01*
X150831578Y-94312457D02*
X150879197Y-94407695D01*
X150879197Y-94407695D02*
X150879197Y-94550552D01*
X150879197Y-94550552D02*
X150831578Y-94645790D01*
X150831578Y-94645790D02*
X150783959Y-94693409D01*
X150783959Y-94693409D02*
X150688721Y-94741028D01*
X150688721Y-94741028D02*
X150307769Y-94741028D01*
X151260150Y-95169600D02*
X151403007Y-95217219D01*
X151403007Y-95217219D02*
X151641102Y-95217219D01*
X151641102Y-95217219D02*
X151736340Y-95169600D01*
X151736340Y-95169600D02*
X151783959Y-95121980D01*
X151783959Y-95121980D02*
X151831578Y-95026742D01*
X151831578Y-95026742D02*
X151831578Y-94931504D01*
X151831578Y-94931504D02*
X151783959Y-94836266D01*
X151783959Y-94836266D02*
X151736340Y-94788647D01*
X151736340Y-94788647D02*
X151641102Y-94741028D01*
X151641102Y-94741028D02*
X151450626Y-94693409D01*
X151450626Y-94693409D02*
X151355388Y-94645790D01*
X151355388Y-94645790D02*
X151307769Y-94598171D01*
X151307769Y-94598171D02*
X151260150Y-94502933D01*
X151260150Y-94502933D02*
X151260150Y-94407695D01*
X151260150Y-94407695D02*
X151307769Y-94312457D01*
X151307769Y-94312457D02*
X151355388Y-94264838D01*
X151355388Y-94264838D02*
X151450626Y-94217219D01*
X151450626Y-94217219D02*
X151688721Y-94217219D01*
X151688721Y-94217219D02*
X151831578Y-94264838D01*
X152688721Y-94550552D02*
X152688721Y-95217219D01*
X152450626Y-94169600D02*
X152212531Y-94883885D01*
X152212531Y-94883885D02*
X152831578Y-94883885D01*
X153355388Y-94645790D02*
X153260150Y-94598171D01*
X153260150Y-94598171D02*
X153212531Y-94550552D01*
X153212531Y-94550552D02*
X153164912Y-94455314D01*
X153164912Y-94455314D02*
X153164912Y-94407695D01*
X153164912Y-94407695D02*
X153212531Y-94312457D01*
X153212531Y-94312457D02*
X153260150Y-94264838D01*
X153260150Y-94264838D02*
X153355388Y-94217219D01*
X153355388Y-94217219D02*
X153545864Y-94217219D01*
X153545864Y-94217219D02*
X153641102Y-94264838D01*
X153641102Y-94264838D02*
X153688721Y-94312457D01*
X153688721Y-94312457D02*
X153736340Y-94407695D01*
X153736340Y-94407695D02*
X153736340Y-94455314D01*
X153736340Y-94455314D02*
X153688721Y-94550552D01*
X153688721Y-94550552D02*
X153641102Y-94598171D01*
X153641102Y-94598171D02*
X153545864Y-94645790D01*
X153545864Y-94645790D02*
X153355388Y-94645790D01*
X153355388Y-94645790D02*
X153260150Y-94693409D01*
X153260150Y-94693409D02*
X153212531Y-94741028D01*
X153212531Y-94741028D02*
X153164912Y-94836266D01*
X153164912Y-94836266D02*
X153164912Y-95026742D01*
X153164912Y-95026742D02*
X153212531Y-95121980D01*
X153212531Y-95121980D02*
X153260150Y-95169600D01*
X153260150Y-95169600D02*
X153355388Y-95217219D01*
X153355388Y-95217219D02*
X153545864Y-95217219D01*
X153545864Y-95217219D02*
X153641102Y-95169600D01*
X153641102Y-95169600D02*
X153688721Y-95121980D01*
X153688721Y-95121980D02*
X153736340Y-95026742D01*
X153736340Y-95026742D02*
X153736340Y-94836266D01*
X153736340Y-94836266D02*
X153688721Y-94741028D01*
X153688721Y-94741028D02*
X153641102Y-94693409D01*
X153641102Y-94693409D02*
X153545864Y-94645790D01*
X154641102Y-94217219D02*
X154164912Y-94217219D01*
X154164912Y-94217219D02*
X154117293Y-94693409D01*
X154117293Y-94693409D02*
X154164912Y-94645790D01*
X154164912Y-94645790D02*
X154260150Y-94598171D01*
X154260150Y-94598171D02*
X154498245Y-94598171D01*
X154498245Y-94598171D02*
X154593483Y-94645790D01*
X154593483Y-94645790D02*
X154641102Y-94693409D01*
X154641102Y-94693409D02*
X154688721Y-94788647D01*
X154688721Y-94788647D02*
X154688721Y-95026742D01*
X154688721Y-95026742D02*
X154641102Y-95121980D01*
X154641102Y-95121980D02*
X154593483Y-95169600D01*
X154593483Y-95169600D02*
X154498245Y-95217219D01*
X154498245Y-95217219D02*
X154260150Y-95217219D01*
X154260150Y-95217219D02*
X154164912Y-95169600D01*
X154164912Y-95169600D02*
X154117293Y-95121980D01*
X156450626Y-95121980D02*
X156403007Y-95169600D01*
X156403007Y-95169600D02*
X156260150Y-95217219D01*
X156260150Y-95217219D02*
X156164912Y-95217219D01*
X156164912Y-95217219D02*
X156022055Y-95169600D01*
X156022055Y-95169600D02*
X155926817Y-95074361D01*
X155926817Y-95074361D02*
X155879198Y-94979123D01*
X155879198Y-94979123D02*
X155831579Y-94788647D01*
X155831579Y-94788647D02*
X155831579Y-94645790D01*
X155831579Y-94645790D02*
X155879198Y-94455314D01*
X155879198Y-94455314D02*
X155926817Y-94360076D01*
X155926817Y-94360076D02*
X156022055Y-94264838D01*
X156022055Y-94264838D02*
X156164912Y-94217219D01*
X156164912Y-94217219D02*
X156260150Y-94217219D01*
X156260150Y-94217219D02*
X156403007Y-94264838D01*
X156403007Y-94264838D02*
X156450626Y-94312457D01*
X157022055Y-95217219D02*
X156926817Y-95169600D01*
X156926817Y-95169600D02*
X156879198Y-95121980D01*
X156879198Y-95121980D02*
X156831579Y-95026742D01*
X156831579Y-95026742D02*
X156831579Y-94741028D01*
X156831579Y-94741028D02*
X156879198Y-94645790D01*
X156879198Y-94645790D02*
X156926817Y-94598171D01*
X156926817Y-94598171D02*
X157022055Y-94550552D01*
X157022055Y-94550552D02*
X157164912Y-94550552D01*
X157164912Y-94550552D02*
X157260150Y-94598171D01*
X157260150Y-94598171D02*
X157307769Y-94645790D01*
X157307769Y-94645790D02*
X157355388Y-94741028D01*
X157355388Y-94741028D02*
X157355388Y-95026742D01*
X157355388Y-95026742D02*
X157307769Y-95121980D01*
X157307769Y-95121980D02*
X157260150Y-95169600D01*
X157260150Y-95169600D02*
X157164912Y-95217219D01*
X157164912Y-95217219D02*
X157022055Y-95217219D01*
X157783960Y-94550552D02*
X157783960Y-95217219D01*
X157783960Y-94645790D02*
X157831579Y-94598171D01*
X157831579Y-94598171D02*
X157926817Y-94550552D01*
X157926817Y-94550552D02*
X158069674Y-94550552D01*
X158069674Y-94550552D02*
X158164912Y-94598171D01*
X158164912Y-94598171D02*
X158212531Y-94693409D01*
X158212531Y-94693409D02*
X158212531Y-95217219D01*
X158593484Y-94550552D02*
X158831579Y-95217219D01*
X158831579Y-95217219D02*
X159069674Y-94550552D01*
X159831579Y-95169600D02*
X159736341Y-95217219D01*
X159736341Y-95217219D02*
X159545865Y-95217219D01*
X159545865Y-95217219D02*
X159450627Y-95169600D01*
X159450627Y-95169600D02*
X159403008Y-95074361D01*
X159403008Y-95074361D02*
X159403008Y-94693409D01*
X159403008Y-94693409D02*
X159450627Y-94598171D01*
X159450627Y-94598171D02*
X159545865Y-94550552D01*
X159545865Y-94550552D02*
X159736341Y-94550552D01*
X159736341Y-94550552D02*
X159831579Y-94598171D01*
X159831579Y-94598171D02*
X159879198Y-94693409D01*
X159879198Y-94693409D02*
X159879198Y-94788647D01*
X159879198Y-94788647D02*
X159403008Y-94883885D01*
X160307770Y-95217219D02*
X160307770Y-94550552D01*
X160307770Y-94741028D02*
X160355389Y-94645790D01*
X160355389Y-94645790D02*
X160403008Y-94598171D01*
X160403008Y-94598171D02*
X160498246Y-94550552D01*
X160498246Y-94550552D02*
X160593484Y-94550552D01*
X160783961Y-94550552D02*
X161164913Y-94550552D01*
X160926818Y-94217219D02*
X160926818Y-95074361D01*
X160926818Y-95074361D02*
X160974437Y-95169600D01*
X160974437Y-95169600D02*
X161069675Y-95217219D01*
X161069675Y-95217219D02*
X161164913Y-95217219D01*
X161879199Y-95169600D02*
X161783961Y-95217219D01*
X161783961Y-95217219D02*
X161593485Y-95217219D01*
X161593485Y-95217219D02*
X161498247Y-95169600D01*
X161498247Y-95169600D02*
X161450628Y-95074361D01*
X161450628Y-95074361D02*
X161450628Y-94693409D01*
X161450628Y-94693409D02*
X161498247Y-94598171D01*
X161498247Y-94598171D02*
X161593485Y-94550552D01*
X161593485Y-94550552D02*
X161783961Y-94550552D01*
X161783961Y-94550552D02*
X161879199Y-94598171D01*
X161879199Y-94598171D02*
X161926818Y-94693409D01*
X161926818Y-94693409D02*
X161926818Y-94788647D01*
X161926818Y-94788647D02*
X161450628Y-94883885D01*
X162355390Y-95217219D02*
X162355390Y-94550552D01*
X162355390Y-94741028D02*
X162403009Y-94645790D01*
X162403009Y-94645790D02*
X162450628Y-94598171D01*
X162450628Y-94598171D02*
X162545866Y-94550552D01*
X162545866Y-94550552D02*
X162641104Y-94550552D01*
%TD*%
D12*
%TO.P,TP1,1,1*%
%TO.N,+5V*%
X152200000Y-99100000D03*
%TD*%
D13*
%TO.P,C3,1*%
%TO.N,+5V*%
X167225000Y-99350000D03*
%TO.P,C3,2*%
%TO.N,GND*%
X165675000Y-99350000D03*
%TD*%
D14*
%TO.P,U1,1,UD+*%
%TO.N,/USB_DP*%
X158750000Y-99387500D03*
%TO.P,U1,2,UD-*%
%TO.N,/USB_DN*%
X158250000Y-99387500D03*
%TO.P,U1,3,GND*%
%TO.N,GND*%
X157750000Y-99387500D03*
%TO.P,U1,4,~{RTS}*%
%TO.N,unconnected-(U1-~{RTS}-Pad4)*%
X157250000Y-99387500D03*
%TO.P,U1,5,~{CTS}*%
%TO.N,unconnected-(U1-~{CTS}-Pad5)*%
X156750000Y-99387500D03*
%TO.P,U1,6,TNOW*%
%TO.N,/DIR*%
X156750000Y-103612500D03*
%TO.P,U1,7,VCC*%
%TO.N,+5V*%
X157250000Y-103612500D03*
%TO.P,U1,8,TXD*%
%TO.N,/TX*%
X157750000Y-103612500D03*
%TO.P,U1,9,RXD*%
%TO.N,/RX*%
X158250000Y-103612500D03*
%TO.P,U1,10,V3*%
%TO.N,Net-(U1-V3)*%
X158750000Y-103612500D03*
%TD*%
D15*
%TO.P,U2,1,RO*%
%TO.N,/RX*%
X162405000Y-100965000D03*
%TO.P,U2,2,~{RE}*%
%TO.N,/DIR*%
X162405000Y-102235000D03*
%TO.P,U2,3,DE*%
X162405000Y-103505000D03*
%TO.P,U2,4,DI*%
%TO.N,/TX*%
X162405000Y-104775000D03*
%TO.P,U2,5,GND*%
%TO.N,GND*%
X167355000Y-104775000D03*
%TO.P,U2,6,A*%
%TO.N,Net-(J2-Pin_1)*%
X167355000Y-103505000D03*
%TO.P,U2,7,B*%
%TO.N,Net-(J2-Pin_2)*%
X167355000Y-102235000D03*
%TO.P,U2,8,VCC*%
%TO.N,+5V*%
X167355000Y-100965000D03*
%TD*%
D16*
%TO.P,R5,1*%
%TO.N,Net-(J2-Pin_2)*%
X169500000Y-105275000D03*
%TO.P,R5,2*%
%TO.N,GND*%
X169500000Y-106925000D03*
%TD*%
%TO.P,R4,1*%
%TO.N,+5V*%
X169500000Y-99275000D03*
%TO.P,R4,2*%
%TO.N,Net-(J2-Pin_1)*%
X169500000Y-100925000D03*
%TD*%
D17*
%TO.P,R3,1*%
%TO.N,Net-(J2-Pin_1)*%
X169500000Y-103925000D03*
%TO.P,R3,2*%
%TO.N,Net-(J2-Pin_2)*%
X169500000Y-102275000D03*
%TD*%
D16*
%TO.P,R2,1*%
%TO.N,Net-(J1-CC2)*%
X150368000Y-103525000D03*
%TO.P,R2,2*%
%TO.N,GND*%
X150368000Y-105175000D03*
%TD*%
D17*
%TO.P,R1,1*%
%TO.N,Net-(J1-CC1)*%
X150368000Y-99885000D03*
%TO.P,R1,2*%
%TO.N,GND*%
X150368000Y-98235000D03*
%TD*%
D18*
%TO.P,J1,A1,GND*%
%TO.N,GND*%
X148450000Y-98250000D03*
%TO.P,J1,A4,VBUS*%
%TO.N,+5V*%
X148450000Y-99050000D03*
%TO.P,J1,A5,CC1*%
%TO.N,Net-(J1-CC1)*%
X148450000Y-100350000D03*
%TO.P,J1,A6,D+*%
%TO.N,/USB_DP*%
X148450000Y-101350000D03*
%TO.P,J1,A7,D-*%
%TO.N,/USB_DN*%
X148450000Y-101850000D03*
%TO.P,J1,A8,SBU1*%
%TO.N,unconnected-(J1-SBU1-PadA8)*%
X148450000Y-102850000D03*
%TO.P,J1,A9,VBUS*%
%TO.N,+5V*%
X148450000Y-104150000D03*
%TO.P,J1,A12,GND*%
%TO.N,GND*%
X148450000Y-104950000D03*
%TO.P,J1,B1,GND*%
X148450000Y-104650000D03*
%TO.P,J1,B4,VBUS*%
%TO.N,+5V*%
X148450000Y-103850000D03*
%TO.P,J1,B5,CC2*%
%TO.N,Net-(J1-CC2)*%
X148450000Y-103350000D03*
%TO.P,J1,B6,D+*%
%TO.N,/USB_DP*%
X148450000Y-102350000D03*
%TO.P,J1,B7,D-*%
%TO.N,/USB_DN*%
X148450000Y-100850000D03*
%TO.P,J1,B8,SBU2*%
%TO.N,unconnected-(J1-SBU2-PadB8)*%
X148450000Y-99850000D03*
%TO.P,J1,B9,VBUS*%
%TO.N,+5V*%
X148450000Y-99350000D03*
%TO.P,J1,B12,GND*%
%TO.N,GND*%
X148450000Y-98550000D03*
D19*
%TO.P,J1,S1,SHIELD*%
X147885000Y-97280000D03*
D20*
X143705000Y-97280000D03*
D19*
X147885000Y-105920000D03*
D20*
X143705000Y-105920000D03*
%TD*%
D21*
%TO.P,C5,1*%
%TO.N,+5V*%
X152300000Y-102400000D03*
%TO.P,C5,2*%
%TO.N,GND*%
X152300000Y-104300000D03*
%TD*%
D22*
%TO.P,C4,2*%
%TO.N,GND*%
X154450000Y-99375000D03*
%TO.P,C4,1*%
%TO.N,+5V*%
X154450000Y-102325000D03*
%TD*%
D13*
%TO.P,C2,1*%
%TO.N,+5V*%
X155575000Y-105410000D03*
%TO.P,C2,2*%
%TO.N,GND*%
X154025000Y-105410000D03*
%TD*%
D23*
%TO.P,C1,2*%
%TO.N,GND*%
X160250000Y-105550000D03*
%TO.P,C1,1*%
%TO.N,Net-(U1-V3)*%
X160250000Y-104000000D03*
%TD*%
D24*
%TO.P,J2,3,Pin_3*%
%TO.N,GND*%
X172580000Y-106675000D03*
%TO.P,J2,2,Pin_2*%
%TO.N,Net-(J2-Pin_2)*%
X172580000Y-101595000D03*
D25*
%TO.P,J2,1,Pin_1*%
%TO.N,Net-(J2-Pin_1)*%
X172580000Y-96515000D03*
%TD*%
D26*
%TO.N,+5V*%
X152150000Y-99050000D02*
X152200000Y-99100000D01*
X149700000Y-99050000D02*
X152150000Y-99050000D01*
X149450000Y-99300000D02*
X149700000Y-99050000D01*
X149450000Y-99350000D02*
X149450000Y-99300000D01*
%TO.N,/DIR*%
X163700000Y-101914999D02*
X163700000Y-102235000D01*
X163750000Y-101864999D02*
X163700000Y-101914999D01*
X163750000Y-100622322D02*
X163750000Y-101864999D01*
X163441678Y-100314000D02*
X163750000Y-100622322D01*
X159650000Y-101950000D02*
X161286000Y-100314000D01*
X157400000Y-101950000D02*
X159650000Y-101950000D01*
X156750000Y-102600000D02*
X157400000Y-101950000D01*
X156750000Y-103612500D02*
X156750000Y-102600000D01*
X161286000Y-100314000D02*
X163441678Y-100314000D01*
X163700000Y-102235000D02*
X163700000Y-103505000D01*
X163700000Y-103505000D02*
X162405000Y-103505000D01*
X162405000Y-102235000D02*
X163700000Y-102235000D01*
D27*
%TO.N,+5V*%
X149933226Y-104350000D02*
X150802774Y-104350000D01*
D26*
X151194000Y-103958774D02*
X151194000Y-103456000D01*
X149733226Y-104150000D02*
X149933226Y-104350000D01*
X151194000Y-103456000D02*
X152250000Y-102400000D01*
X149400000Y-104150000D02*
X149733226Y-104150000D01*
X150802774Y-104350000D02*
X151194000Y-103958774D01*
%TO.N,GND*%
X149700000Y-104950000D02*
X148450000Y-104950000D01*
X149700000Y-104950000D02*
X149925000Y-105175000D01*
X149925000Y-105175000D02*
X150368000Y-105175000D01*
X149400000Y-104650000D02*
X149700000Y-104950000D01*
X148450000Y-104650000D02*
X149400000Y-104650000D01*
X165040000Y-106925000D02*
X164950000Y-106925000D01*
X167190000Y-104775000D02*
X165040000Y-106925000D01*
X164950000Y-106925000D02*
X165205000Y-106925000D01*
X167355000Y-104775000D02*
X167190000Y-104775000D01*
X165205000Y-106925000D02*
X169500000Y-106925000D01*
X161625000Y-106925000D02*
X158875000Y-106925000D01*
X153950000Y-105485000D02*
X154025000Y-105410000D01*
X154275000Y-106925000D02*
X153950000Y-106600000D01*
X159120000Y-106680000D02*
X158875000Y-106925000D01*
X158875000Y-106925000D02*
X154275000Y-106925000D01*
X153950000Y-106600000D02*
X153950000Y-105485000D01*
X161625000Y-106925000D02*
X161380000Y-106680000D01*
X165205000Y-106925000D02*
X161625000Y-106925000D01*
D28*
%TO.N,Net-(J2-Pin_1)*%
X165950000Y-102700000D02*
X165950000Y-103074999D01*
D29*
X166380001Y-103505000D02*
X167355000Y-103505000D01*
D26*
X165950000Y-101937810D02*
X165950000Y-102700000D01*
D29*
X166287810Y-101600000D02*
X165950000Y-101937810D01*
D28*
X165950000Y-103074999D02*
X166380001Y-103505000D01*
D29*
X168450000Y-101600000D02*
X166287810Y-101600000D01*
D26*
%TO.N,GND*%
X166380001Y-104775000D02*
X167355000Y-104775000D01*
X165350000Y-103744999D02*
X166380001Y-104775000D01*
X165350000Y-99675000D02*
X165350000Y-103744999D01*
X165675000Y-99350000D02*
X165350000Y-99675000D01*
D30*
%TO.N,Net-(J2-Pin_1)*%
X167355000Y-103505000D02*
X169080000Y-103505000D01*
%TO.N,+5V*%
X166275000Y-98400000D02*
X167225000Y-99350000D01*
X161658522Y-98400000D02*
X166275000Y-98400000D01*
X159454261Y-100604261D02*
X161658522Y-98400000D01*
D26*
X158609521Y-101449000D02*
X159454261Y-100604261D01*
D30*
%TO.N,GND*%
X148450000Y-97845000D02*
X147885000Y-97280000D01*
X148450000Y-98250000D02*
X148450000Y-97845000D01*
D26*
%TO.N,+5V*%
X155191479Y-103066479D02*
X155575000Y-103066479D01*
X154450000Y-102325000D02*
X155191479Y-103066479D01*
X152300000Y-102400000D02*
X154375000Y-102400000D01*
X154375000Y-102400000D02*
X154450000Y-102325000D01*
%TO.N,GND*%
X169750000Y-106675000D02*
X169500000Y-106925000D01*
X172580000Y-106675000D02*
X169750000Y-106675000D01*
D30*
%TO.N,Net-(J2-Pin_2)*%
X171900000Y-102275000D02*
X170750000Y-102275000D01*
D26*
X172580000Y-101595000D02*
X171900000Y-102275000D01*
D30*
%TO.N,Net-(J2-Pin_1)*%
X172580000Y-97845000D02*
X169500000Y-100925000D01*
D26*
X172580000Y-96515000D02*
X172580000Y-97845000D01*
%TO.N,GND*%
X161380000Y-106680000D02*
X160250000Y-105550000D01*
X160250000Y-105550000D02*
X159120000Y-106680000D01*
X169500000Y-106920000D02*
X167355000Y-104775000D01*
X169500000Y-106925000D02*
X169500000Y-106920000D01*
X153321000Y-98224000D02*
X153310000Y-98235000D01*
X155601000Y-98224000D02*
X153321000Y-98224000D01*
X157750000Y-98470466D02*
X157750000Y-99387500D01*
X157503534Y-98224000D02*
X157750000Y-98470466D01*
X155601000Y-98224000D02*
X157503534Y-98224000D01*
X154450000Y-99375000D02*
X155601000Y-98224000D01*
X153310000Y-98235000D02*
X154450000Y-99375000D01*
X150368000Y-98235000D02*
X153310000Y-98235000D01*
%TO.N,+5V*%
X169425000Y-99350000D02*
X169500000Y-99275000D01*
D30*
X167225000Y-99350000D02*
X169425000Y-99350000D01*
D26*
X167225000Y-100835000D02*
X167355000Y-100965000D01*
D30*
X167225000Y-99350000D02*
X167225000Y-100835000D01*
D26*
%TO.N,/USB_DP*%
X158300000Y-101050000D02*
X151750000Y-101050000D01*
%TO.N,/USB_DN*%
X151500000Y-100550000D02*
X158050000Y-100550000D01*
%TO.N,+5V*%
X155575000Y-103066479D02*
X156241479Y-102400000D01*
X155575000Y-105410000D02*
X155575000Y-103066479D01*
%TO.N,GND*%
X152300000Y-105373000D02*
X152300000Y-104300000D01*
X152263000Y-105410000D02*
X152300000Y-105373000D01*
X152263000Y-105410000D02*
X154025000Y-105410000D01*
X152200000Y-105473000D02*
X152263000Y-105410000D01*
%TO.N,+5V*%
X156690000Y-105410000D02*
X157250000Y-104850000D01*
X155575000Y-105410000D02*
X156690000Y-105410000D01*
D31*
X158558521Y-101500000D02*
X158609521Y-101449000D01*
X157090479Y-101551000D02*
X157141479Y-101500000D01*
X157141479Y-101500000D02*
X158558521Y-101500000D01*
D26*
X156241479Y-102400000D02*
X157090479Y-101551000D01*
%TO.N,/USB_DP*%
X158750000Y-100600000D02*
X158750000Y-99387500D01*
X158300000Y-101050000D02*
X158750000Y-100600000D01*
X151450000Y-101350000D02*
X151750000Y-101050000D01*
X149950000Y-101350000D02*
X151450000Y-101350000D01*
%TO.N,/USB_DN*%
X158250000Y-100350000D02*
X158250000Y-99387500D01*
X158050000Y-100550000D02*
X158250000Y-100350000D01*
X151200000Y-100850000D02*
X151500000Y-100550000D01*
X148450000Y-100850000D02*
X151200000Y-100850000D01*
%TO.N,/RX*%
X161343520Y-100965000D02*
X162405000Y-100965000D01*
X158400000Y-102450000D02*
X159858520Y-102450000D01*
X158250000Y-102600000D02*
X158400000Y-102450000D01*
X159858520Y-102450000D02*
X161343520Y-100965000D01*
X158250000Y-103612500D02*
X158250000Y-102600000D01*
D31*
%TO.N,+5V*%
X146736000Y-103814000D02*
X147735719Y-103814000D01*
X146700000Y-103850000D02*
X146736000Y-103814000D01*
X147735719Y-103814000D02*
X147771719Y-103850000D01*
X147735719Y-99386000D02*
X147771719Y-99350000D01*
X146736000Y-99386000D02*
X147735719Y-99386000D01*
X146700000Y-99350000D02*
X146736000Y-99386000D01*
D26*
%TO.N,Net-(J2-Pin_1)*%
X168825000Y-101600000D02*
X168450000Y-101600000D01*
X169500000Y-100925000D02*
X168825000Y-101600000D01*
D30*
%TO.N,Net-(J2-Pin_2)*%
X170750000Y-104850000D02*
X170750000Y-102275000D01*
X170325000Y-105275000D02*
X170750000Y-104850000D01*
X169500000Y-105275000D02*
X170325000Y-105275000D01*
D26*
%TO.N,GND*%
X143705000Y-105920000D02*
X143705000Y-97280000D01*
X147885000Y-97280000D02*
X143705000Y-97280000D01*
X147885000Y-105920000D02*
X143705000Y-105920000D01*
D30*
X148450000Y-105355000D02*
X147885000Y-105920000D01*
X148450000Y-104950000D02*
X148450000Y-105355000D01*
D26*
%TO.N,+5V*%
X146700000Y-99350000D02*
X146700000Y-103850000D01*
%TO.N,GND*%
X169255000Y-106680000D02*
X169500000Y-106925000D01*
D30*
%TO.N,Net-(J2-Pin_2)*%
X169500000Y-102275000D02*
X170750000Y-102275000D01*
D26*
X169460000Y-102235000D02*
X169500000Y-102275000D01*
D30*
X167355000Y-102235000D02*
X169460000Y-102235000D01*
%TO.N,Net-(J2-Pin_1)*%
X169080000Y-103505000D02*
X169500000Y-103925000D01*
D26*
%TO.N,+5V*%
X148450000Y-99050000D02*
X149700000Y-99050000D01*
X148450000Y-103850000D02*
X147771719Y-103850000D01*
X148450000Y-99350000D02*
X147771719Y-99350000D01*
%TO.N,GND*%
X150368000Y-105175000D02*
X150666000Y-105473000D01*
X150666000Y-105473000D02*
X152200000Y-105473000D01*
%TO.N,Net-(J1-CC2)*%
X150070000Y-103525000D02*
X150368000Y-103525000D01*
X148450000Y-103350000D02*
X149895000Y-103350000D01*
X149895000Y-103350000D02*
X150070000Y-103525000D01*
%TO.N,+5V*%
X157250000Y-103612500D02*
X157250000Y-104850000D01*
%TO.N,Net-(U1-V3)*%
X159076000Y-104274000D02*
X158750000Y-104274000D01*
X159350000Y-104000000D02*
X159076000Y-104274000D01*
X158750000Y-104274000D02*
X158750000Y-103612500D01*
X160250000Y-104000000D02*
X159350000Y-104000000D01*
%TO.N,/TX*%
X157750000Y-104775000D02*
X159750000Y-104775000D01*
X160750000Y-104775000D02*
X162405000Y-104775000D01*
X157750000Y-103612500D02*
X157750000Y-104775000D01*
D29*
X159750000Y-104775000D02*
X160750000Y-104775000D01*
D26*
%TO.N,unconnected-(J1-SBU1-PadA8)*%
X148450000Y-102850000D02*
X149450000Y-102850000D01*
%TO.N,+5V*%
X149450000Y-104100000D02*
X149450000Y-104149000D01*
X149400000Y-104150000D02*
X149450000Y-104100000D01*
X148450000Y-104150000D02*
X149400000Y-104150000D01*
X148450000Y-103850000D02*
X149450000Y-103850000D01*
%TO.N,GND*%
X150053000Y-98550000D02*
X150368000Y-98235000D01*
X148450000Y-98550000D02*
X150053000Y-98550000D01*
X150353000Y-98250000D02*
X150368000Y-98235000D01*
X148450000Y-98250000D02*
X150353000Y-98250000D01*
%TO.N,+5V*%
X149400000Y-99050000D02*
X149450000Y-99100000D01*
X148450000Y-99050000D02*
X149400000Y-99050000D01*
X148450000Y-99350000D02*
X149450000Y-99350000D01*
%TO.N,unconnected-(J1-SBU2-PadB8)*%
X148450000Y-99850000D02*
X149450000Y-99850000D01*
%TO.N,Net-(J1-CC1)*%
X148450000Y-100350000D02*
X149903000Y-100350000D01*
X149903000Y-100350000D02*
X150368000Y-99885000D01*
%TO.N,/USB_DN*%
X147450000Y-100850000D02*
X148450000Y-100850000D01*
X147450000Y-101850000D02*
X147450000Y-100850000D01*
X148450000Y-101850000D02*
X147450000Y-101850000D01*
X148450000Y-101850000D02*
X147700000Y-101850000D01*
X148450000Y-101850000D02*
X149450000Y-101850000D01*
%TO.N,/USB_DP*%
X149950000Y-102350000D02*
X148450000Y-102350000D01*
X149950000Y-101350000D02*
X149950000Y-102350000D01*
X148450000Y-101350000D02*
X149950000Y-101350000D01*
%TD*%
%TA.AperFunction,Conductor*%
%TO.N,GND*%
G36*
X177192539Y-93920185D02*
G01*
X177238294Y-93972989D01*
X177249500Y-94024500D01*
X177249500Y-109175500D01*
X177229815Y-109242539D01*
X177177011Y-109288294D01*
X177125500Y-109299500D01*
X141474500Y-109299500D01*
X141407461Y-109279815D01*
X141361706Y-109227011D01*
X141350500Y-109175500D01*
X141350500Y-107181582D01*
X168525001Y-107181582D01*
X168531408Y-107252102D01*
X168531409Y-107252107D01*
X168581981Y-107414396D01*
X168669927Y-107559877D01*
X168790122Y-107680072D01*
X168935604Y-107768019D01*
X168935603Y-107768019D01*
X169097894Y-107818590D01*
X169097892Y-107818590D01*
X169168418Y-107824999D01*
X169750000Y-107824999D01*
X169831581Y-107824999D01*
X169902102Y-107818591D01*
X169902107Y-107818590D01*
X170064396Y-107768018D01*
X170209877Y-107680072D01*
X170330072Y-107559877D01*
X170418019Y-107414395D01*
X170468590Y-107252106D01*
X170475000Y-107181572D01*
X170475000Y-107175000D01*
X169750000Y-107175000D01*
X169750000Y-107824999D01*
X169168418Y-107824999D01*
X169249999Y-107824998D01*
X169250000Y-107824998D01*
X169250000Y-107175000D01*
X168525001Y-107175000D01*
X168525001Y-107181582D01*
X141350500Y-107181582D01*
X141350500Y-105670000D01*
X142435138Y-105670000D01*
X143238012Y-105670000D01*
X143220795Y-105679940D01*
X143164940Y-105735795D01*
X143125444Y-105804204D01*
X143105000Y-105880504D01*
X143105000Y-105959496D01*
X143125444Y-106035796D01*
X143164940Y-106104205D01*
X143220795Y-106160060D01*
X143238012Y-106170000D01*
X142435138Y-106170000D01*
X142443430Y-106211690D01*
X142443430Y-106211692D01*
X142518807Y-106393671D01*
X142518814Y-106393684D01*
X142628248Y-106557462D01*
X142628251Y-106557466D01*
X142767533Y-106696748D01*
X142767537Y-106696751D01*
X142931315Y-106806185D01*
X142931328Y-106806192D01*
X143113306Y-106881569D01*
X143113318Y-106881572D01*
X143306504Y-106919999D01*
X143306508Y-106920000D01*
X143455000Y-106920000D01*
X143455000Y-106220000D01*
X143955000Y-106220000D01*
X143955000Y-106920000D01*
X144103492Y-106920000D01*
X144103495Y-106919999D01*
X144296681Y-106881572D01*
X144296693Y-106881569D01*
X144478671Y-106806192D01*
X144478684Y-106806185D01*
X144642462Y-106696751D01*
X144642466Y-106696748D01*
X144781748Y-106557466D01*
X144781751Y-106557462D01*
X144891185Y-106393684D01*
X144891192Y-106393671D01*
X144966569Y-106211692D01*
X144966569Y-106211690D01*
X144974862Y-106170000D01*
X144171988Y-106170000D01*
X144189205Y-106160060D01*
X144245060Y-106104205D01*
X144284556Y-106035796D01*
X144305000Y-105959496D01*
X144305000Y-105880504D01*
X144284556Y-105804204D01*
X144245060Y-105735795D01*
X144189205Y-105679940D01*
X144171988Y-105670000D01*
X144974862Y-105670000D01*
X144966569Y-105628309D01*
X144966569Y-105628307D01*
X144891192Y-105446328D01*
X144891185Y-105446315D01*
X144781751Y-105282537D01*
X144781748Y-105282533D01*
X144642466Y-105143251D01*
X144642462Y-105143248D01*
X144478684Y-105033814D01*
X144478671Y-105033807D01*
X144296693Y-104958430D01*
X144296681Y-104958427D01*
X144103495Y-104920000D01*
X143955000Y-104920000D01*
X143955000Y-105620000D01*
X143455000Y-105620000D01*
X143455000Y-104920000D01*
X143306504Y-104920000D01*
X143113318Y-104958427D01*
X143113306Y-104958430D01*
X142931328Y-105033807D01*
X142931315Y-105033814D01*
X142767537Y-105143248D01*
X142767533Y-105143251D01*
X142628251Y-105282533D01*
X142628248Y-105282537D01*
X142518814Y-105446315D01*
X142518807Y-105446328D01*
X142443430Y-105628307D01*
X142443430Y-105628309D01*
X142435138Y-105670000D01*
X141350500Y-105670000D01*
X141350500Y-99184000D01*
X145694500Y-99184000D01*
X145694500Y-103976000D01*
X145694501Y-103976009D01*
X145706052Y-104083450D01*
X145706054Y-104083462D01*
X145717260Y-104134972D01*
X145751383Y-104237497D01*
X145751386Y-104237503D01*
X145829171Y-104358537D01*
X145829179Y-104358548D01*
X145874923Y-104411340D01*
X145874926Y-104411343D01*
X145874930Y-104411347D01*
X145983664Y-104505567D01*
X145983667Y-104505568D01*
X145983668Y-104505569D01*
X146103257Y-104560185D01*
X146114541Y-104565338D01*
X146181580Y-104585023D01*
X146181584Y-104585024D01*
X146324000Y-104605500D01*
X146724998Y-104605500D01*
X146792037Y-104625185D01*
X146834582Y-104671471D01*
X146841143Y-104683861D01*
X146848719Y-104712135D01*
X146924485Y-104843365D01*
X146926867Y-104845747D01*
X146932973Y-104857277D01*
X146937962Y-104881716D01*
X146946959Y-104904983D01*
X146944831Y-104915358D01*
X146946950Y-104925735D01*
X146937933Y-104948995D01*
X146932923Y-104973428D01*
X146925525Y-104981004D01*
X146921697Y-104990881D01*
X146901535Y-105005574D01*
X146884112Y-105023420D01*
X146870845Y-105029866D01*
X146861324Y-105033809D01*
X146861315Y-105033814D01*
X146697537Y-105143248D01*
X146697533Y-105143251D01*
X146558251Y-105282533D01*
X146558248Y-105282537D01*
X146448814Y-105446315D01*
X146448807Y-105446328D01*
X146373430Y-105628307D01*
X146373430Y-105628309D01*
X146365138Y-105670000D01*
X147168012Y-105670000D01*
X147150795Y-105679940D01*
X147094940Y-105735795D01*
X147055444Y-105804204D01*
X147035000Y-105880504D01*
X147035000Y-105959496D01*
X147055444Y-106035796D01*
X147094940Y-106104205D01*
X147150795Y-106160060D01*
X147168012Y-106170000D01*
X146365138Y-106170000D01*
X146373430Y-106211690D01*
X146373430Y-106211692D01*
X146448807Y-106393671D01*
X146448814Y-106393684D01*
X146558248Y-106557462D01*
X146558251Y-106557466D01*
X146697533Y-106696748D01*
X146697537Y-106696751D01*
X146861315Y-106806185D01*
X146861328Y-106806192D01*
X147043306Y-106881569D01*
X147043318Y-106881572D01*
X147236504Y-106919999D01*
X147236508Y-106920000D01*
X147635000Y-106920000D01*
X147635000Y-106220000D01*
X148135000Y-106220000D01*
X148135000Y-106920000D01*
X148533492Y-106920000D01*
X148533495Y-106919999D01*
X148726681Y-106881572D01*
X148726693Y-106881569D01*
X148908671Y-106806192D01*
X148908684Y-106806185D01*
X149072462Y-106696751D01*
X149072466Y-106696748D01*
X149211748Y-106557466D01*
X149211751Y-106557462D01*
X149321185Y-106393684D01*
X149321192Y-106393671D01*
X149396569Y-106211692D01*
X149396569Y-106211690D01*
X149404862Y-106170000D01*
X148601988Y-106170000D01*
X148619205Y-106160060D01*
X148675060Y-106104205D01*
X148714556Y-106035796D01*
X148735000Y-105959496D01*
X148735000Y-105880504D01*
X148714556Y-105804204D01*
X148675060Y-105735795D01*
X148619205Y-105679940D01*
X148601988Y-105670000D01*
X149441000Y-105670000D01*
X149508039Y-105689685D01*
X149553794Y-105742489D01*
X149565000Y-105794000D01*
X149565000Y-105836948D01*
X149658124Y-105930073D01*
X149803604Y-106018019D01*
X149803603Y-106018019D01*
X149965894Y-106068590D01*
X149965892Y-106068590D01*
X150036418Y-106074999D01*
X150117999Y-106074998D01*
X150118000Y-106074998D01*
X150118000Y-105299000D01*
X150137685Y-105231961D01*
X150190489Y-105186206D01*
X150242000Y-105175000D01*
X150494000Y-105175000D01*
X150561039Y-105194685D01*
X150606794Y-105247489D01*
X150618000Y-105299000D01*
X150618000Y-106074999D01*
X150699581Y-106074999D01*
X150770102Y-106068591D01*
X150770107Y-106068590D01*
X150932396Y-106018018D01*
X151077877Y-105930072D01*
X151198072Y-105809877D01*
X151259464Y-105708322D01*
X153075001Y-105708322D01*
X153085144Y-105807607D01*
X153138452Y-105968481D01*
X153138457Y-105968492D01*
X153227424Y-106112728D01*
X153227427Y-106112732D01*
X153347267Y-106232572D01*
X153347271Y-106232575D01*
X153491507Y-106321542D01*
X153491518Y-106321547D01*
X153652393Y-106374855D01*
X153751683Y-106384999D01*
X153775000Y-106384998D01*
X153775000Y-105660000D01*
X153075001Y-105660000D01*
X153075001Y-105708322D01*
X151259464Y-105708322D01*
X151286018Y-105664396D01*
X151314887Y-105571756D01*
X151314889Y-105571748D01*
X151336591Y-105502101D01*
X151342999Y-105431572D01*
X151342999Y-105352107D01*
X151362683Y-105285067D01*
X151415486Y-105239311D01*
X151484645Y-105229367D01*
X151506003Y-105234399D01*
X151672302Y-105289505D01*
X151672309Y-105289506D01*
X151775019Y-105299999D01*
X152049999Y-105299999D01*
X152050000Y-105299998D01*
X152050000Y-104424000D01*
X152069685Y-104356961D01*
X152122489Y-104311206D01*
X152174000Y-104300000D01*
X152426000Y-104300000D01*
X152493039Y-104319685D01*
X152538794Y-104372489D01*
X152550000Y-104424000D01*
X152550000Y-105299999D01*
X152824972Y-105299999D01*
X152824988Y-105299998D01*
X152927693Y-105289506D01*
X152945000Y-105283770D01*
X152945113Y-105283614D01*
X152964685Y-105216961D01*
X153017489Y-105171206D01*
X153069000Y-105160000D01*
X153901000Y-105160000D01*
X153968039Y-105179685D01*
X154013794Y-105232489D01*
X154025000Y-105284000D01*
X154025000Y-105410000D01*
X154151000Y-105410000D01*
X154218039Y-105429685D01*
X154263794Y-105482489D01*
X154275000Y-105534000D01*
X154275000Y-106384999D01*
X154298308Y-106384999D01*
X154298322Y-106384998D01*
X154397607Y-106374855D01*
X154558481Y-106321547D01*
X154558492Y-106321542D01*
X154702731Y-106232573D01*
X154711959Y-106223345D01*
X154773279Y-106189856D01*
X154842971Y-106194835D01*
X154887327Y-106223339D01*
X154896955Y-106232967D01*
X154896959Y-106232970D01*
X155041294Y-106321998D01*
X155041297Y-106321999D01*
X155041303Y-106322003D01*
X155202292Y-106375349D01*
X155301655Y-106385500D01*
X155848344Y-106385499D01*
X155848352Y-106385498D01*
X155848355Y-106385498D01*
X155902760Y-106379940D01*
X155947708Y-106375349D01*
X156108697Y-106322003D01*
X156198793Y-106266430D01*
X156266183Y-106247990D01*
X156315401Y-106259175D01*
X156438373Y-106315335D01*
X156438380Y-106315338D01*
X156505419Y-106335023D01*
X156505423Y-106335024D01*
X156647839Y-106355500D01*
X156647842Y-106355500D01*
X157325990Y-106355500D01*
X157326000Y-106355500D01*
X157433456Y-106343947D01*
X157484967Y-106332741D01*
X157519197Y-106321347D01*
X157587497Y-106298616D01*
X157587501Y-106298613D01*
X157587504Y-106298613D01*
X157708543Y-106220825D01*
X157761347Y-106175070D01*
X157855567Y-106066336D01*
X157915338Y-105935459D01*
X157935023Y-105868420D01*
X157935024Y-105868416D01*
X157941507Y-105823322D01*
X159275001Y-105823322D01*
X159285144Y-105922607D01*
X159338452Y-106083481D01*
X159338457Y-106083492D01*
X159427424Y-106227728D01*
X159427427Y-106227732D01*
X159547267Y-106347572D01*
X159547271Y-106347575D01*
X159691507Y-106436542D01*
X159691518Y-106436547D01*
X159852393Y-106489855D01*
X159951683Y-106499999D01*
X160500000Y-106499999D01*
X160548308Y-106499999D01*
X160548322Y-106499998D01*
X160647607Y-106489855D01*
X160808481Y-106436547D01*
X160808492Y-106436542D01*
X160952728Y-106347575D01*
X160952732Y-106347572D01*
X161072572Y-106227732D01*
X161072575Y-106227728D01*
X161161542Y-106083492D01*
X161161547Y-106083481D01*
X161214855Y-105922606D01*
X161224999Y-105823322D01*
X161225000Y-105823309D01*
X161225000Y-105800000D01*
X160500000Y-105800000D01*
X160500000Y-106499999D01*
X159951683Y-106499999D01*
X159999999Y-106499998D01*
X160000000Y-106499998D01*
X160000000Y-105800000D01*
X159275001Y-105800000D01*
X159275001Y-105823322D01*
X157941507Y-105823322D01*
X157955500Y-105726000D01*
X157955500Y-105548870D01*
X157955506Y-105548267D01*
X157965521Y-105515370D01*
X157975185Y-105482461D01*
X157975668Y-105482041D01*
X157975856Y-105481427D01*
X158002068Y-105459166D01*
X158027989Y-105436706D01*
X158028697Y-105436551D01*
X158029113Y-105436199D01*
X158032241Y-105435780D01*
X158079500Y-105425500D01*
X159816034Y-105425500D01*
X159826775Y-105425296D01*
X159826773Y-105425097D01*
X159831187Y-105425048D01*
X159831200Y-105425049D01*
X159913278Y-105418271D01*
X159931880Y-105416388D01*
X159932747Y-105416284D01*
X159951613Y-105413659D01*
X159993168Y-105407077D01*
X159996653Y-105406526D01*
X160016048Y-105405000D01*
X160035420Y-105405000D01*
X160048929Y-105404275D01*
X160089464Y-105402102D01*
X160089472Y-105402099D01*
X160090619Y-105401925D01*
X160109366Y-105400500D01*
X160424414Y-105400500D01*
X160442059Y-105401762D01*
X160450066Y-105402912D01*
X160464582Y-105405000D01*
X160483949Y-105405000D01*
X160503344Y-105406526D01*
X160507182Y-105407133D01*
X160548384Y-105413659D01*
X160567251Y-105416284D01*
X160568118Y-105416388D01*
X160586721Y-105418271D01*
X160641790Y-105422818D01*
X160668773Y-105425047D01*
X160668782Y-105425047D01*
X160668800Y-105425049D01*
X160692457Y-105426445D01*
X160694218Y-105426255D01*
X160694612Y-105426213D01*
X160707889Y-105425500D01*
X161007994Y-105425500D01*
X161049268Y-105432570D01*
X161350588Y-105538933D01*
X161370708Y-105545564D01*
X161392357Y-105548937D01*
X161407828Y-105552375D01*
X161477431Y-105572598D01*
X161514306Y-105575500D01*
X161514314Y-105575500D01*
X163295686Y-105575500D01*
X163295694Y-105575500D01*
X163332569Y-105572598D01*
X163332571Y-105572597D01*
X163332573Y-105572597D01*
X163402159Y-105552380D01*
X163490398Y-105526744D01*
X163631865Y-105443081D01*
X163748081Y-105326865D01*
X163831744Y-105185398D01*
X163868999Y-105057168D01*
X163877597Y-105027573D01*
X163877598Y-105027567D01*
X163877800Y-105025001D01*
X165882704Y-105025001D01*
X165882899Y-105027486D01*
X165928718Y-105185198D01*
X166012314Y-105326552D01*
X166012321Y-105326561D01*
X166128438Y-105442678D01*
X166128447Y-105442685D01*
X166269803Y-105526282D01*
X166269806Y-105526283D01*
X166427504Y-105572099D01*
X166427510Y-105572100D01*
X166464350Y-105574999D01*
X166464366Y-105575000D01*
X167105000Y-105575000D01*
X167105000Y-105025000D01*
X165882705Y-105025000D01*
X165882704Y-105025001D01*
X163877800Y-105025001D01*
X163880500Y-104990694D01*
X163880500Y-104559306D01*
X163877598Y-104522431D01*
X163872698Y-104505566D01*
X163843836Y-104406224D01*
X163831744Y-104364602D01*
X163803039Y-104316065D01*
X163785857Y-104248344D01*
X163808017Y-104182081D01*
X163862483Y-104138317D01*
X163885578Y-104131329D01*
X163889744Y-104130501D01*
X164008127Y-104081465D01*
X164114669Y-104010276D01*
X164205276Y-103919669D01*
X164276465Y-103813127D01*
X164325501Y-103694744D01*
X164350500Y-103569069D01*
X164350500Y-102170931D01*
X164350500Y-102139765D01*
X164359939Y-102092312D01*
X164375501Y-102054743D01*
X164383682Y-102013614D01*
X164400500Y-101929070D01*
X164400500Y-100558250D01*
X164375502Y-100432583D01*
X164375501Y-100432582D01*
X164375501Y-100432578D01*
X164330940Y-100324998D01*
X164326466Y-100314197D01*
X164326461Y-100314188D01*
X164255277Y-100207654D01*
X164212123Y-100164500D01*
X164164669Y-100117046D01*
X163856347Y-99808723D01*
X163749805Y-99737535D01*
X163749803Y-99737534D01*
X163744740Y-99734151D01*
X163745831Y-99732517D01*
X163733059Y-99719973D01*
X163711474Y-99703814D01*
X163708506Y-99695857D01*
X163702447Y-99689906D01*
X163696478Y-99663610D01*
X163690776Y-99648322D01*
X164725001Y-99648322D01*
X164735144Y-99747607D01*
X164788452Y-99908481D01*
X164788457Y-99908492D01*
X164877424Y-100052728D01*
X164877427Y-100052732D01*
X164997267Y-100172572D01*
X164997271Y-100172575D01*
X165141507Y-100261542D01*
X165141518Y-100261547D01*
X165302393Y-100314855D01*
X165401683Y-100324999D01*
X165425000Y-100324998D01*
X165425000Y-99600000D01*
X164725001Y-99600000D01*
X164725001Y-99648322D01*
X163690776Y-99648322D01*
X163687057Y-99638350D01*
X163688862Y-99630052D01*
X163686982Y-99621769D01*
X163696178Y-99596421D01*
X163701909Y-99570077D01*
X163709334Y-99560157D01*
X163710811Y-99556088D01*
X163723053Y-99541830D01*
X164078065Y-99186819D01*
X164139388Y-99153334D01*
X164165746Y-99150500D01*
X165551000Y-99150500D01*
X165618039Y-99170185D01*
X165663794Y-99222989D01*
X165675000Y-99274500D01*
X165675000Y-99350000D01*
X165801000Y-99350000D01*
X165868039Y-99369685D01*
X165913794Y-99422489D01*
X165925000Y-99474000D01*
X165925000Y-100324999D01*
X165944358Y-100344357D01*
X165977843Y-100405680D01*
X165972859Y-100475372D01*
X165963410Y-100495157D01*
X165928256Y-100554601D01*
X165928254Y-100554606D01*
X165882402Y-100712426D01*
X165882401Y-100712432D01*
X165879500Y-100749298D01*
X165879500Y-101072355D01*
X165870855Y-101101792D01*
X165864332Y-101131783D01*
X165860576Y-101136799D01*
X165859815Y-101139394D01*
X165843181Y-101160037D01*
X165762411Y-101240806D01*
X165740630Y-101258163D01*
X165736671Y-101260646D01*
X165547750Y-101420749D01*
X165530039Y-101436486D01*
X165530026Y-101436499D01*
X165528660Y-101438196D01*
X165519782Y-101448081D01*
X165444725Y-101523139D01*
X165444721Y-101523144D01*
X165373538Y-101629676D01*
X165373533Y-101629685D01*
X165324499Y-101748065D01*
X165324497Y-101748071D01*
X165299500Y-101873738D01*
X165299500Y-102226211D01*
X165297633Y-102244822D01*
X165297919Y-102244859D01*
X165253908Y-102585390D01*
X165250367Y-102623273D01*
X165250039Y-102625521D01*
X165249500Y-102631003D01*
X165249500Y-102631007D01*
X165249500Y-103006005D01*
X165249500Y-103143993D01*
X165249500Y-103143995D01*
X165249499Y-103143995D01*
X165276418Y-103279321D01*
X165276421Y-103279331D01*
X165329222Y-103406806D01*
X165405887Y-103521544D01*
X165405888Y-103521545D01*
X165570075Y-103685731D01*
X165668090Y-103783746D01*
X165675984Y-103792858D01*
X165681444Y-103797100D01*
X165686926Y-103802582D01*
X165933454Y-104049111D01*
X165933455Y-104049112D01*
X165933458Y-104049114D01*
X165966293Y-104071054D01*
X166011098Y-104124665D01*
X166019807Y-104193990D01*
X166004135Y-104237276D01*
X165928719Y-104364799D01*
X165882899Y-104522513D01*
X165882704Y-104524998D01*
X165882705Y-104525000D01*
X167231000Y-104525000D01*
X167298039Y-104544685D01*
X167343794Y-104597489D01*
X167355000Y-104649000D01*
X167355000Y-104775000D01*
X167481000Y-104775000D01*
X167548039Y-104794685D01*
X167593794Y-104847489D01*
X167605000Y-104899000D01*
X167605000Y-105575000D01*
X168245634Y-105575000D01*
X168245649Y-105574999D01*
X168282489Y-105572100D01*
X168282492Y-105572099D01*
X168384893Y-105542349D01*
X168454763Y-105542548D01*
X168513433Y-105580490D01*
X168537874Y-105624535D01*
X168581520Y-105764602D01*
X168581521Y-105764604D01*
X168581522Y-105764606D01*
X168637952Y-105857952D01*
X168669530Y-105910188D01*
X168772015Y-106012673D01*
X168805500Y-106073996D01*
X168800516Y-106143688D01*
X168772015Y-106188035D01*
X168669928Y-106290121D01*
X168669927Y-106290122D01*
X168581980Y-106435604D01*
X168531409Y-106597893D01*
X168525000Y-106668427D01*
X168525000Y-106675000D01*
X170474999Y-106675000D01*
X170474999Y-106668417D01*
X170468591Y-106597897D01*
X170468590Y-106597892D01*
X170418018Y-106435603D01*
X170330072Y-106290122D01*
X170277131Y-106237181D01*
X170243646Y-106175858D01*
X170248630Y-106106166D01*
X170290502Y-106050233D01*
X170355966Y-106025816D01*
X170364812Y-106025500D01*
X170398920Y-106025500D01*
X170496462Y-106006096D01*
X170543913Y-105996658D01*
X170680495Y-105940084D01*
X170694042Y-105931031D01*
X170760719Y-105910154D01*
X170828099Y-105928638D01*
X170874790Y-105980617D01*
X170885966Y-106049587D01*
X170877494Y-106081586D01*
X170871870Y-106095162D01*
X170810799Y-106323085D01*
X170780000Y-106557014D01*
X170780000Y-106792985D01*
X170810799Y-107026914D01*
X170871870Y-107254837D01*
X170962160Y-107472819D01*
X170962165Y-107472828D01*
X171080144Y-107677171D01*
X171080145Y-107677172D01*
X171142721Y-107758723D01*
X171978957Y-106922487D01*
X172003978Y-106982890D01*
X172075112Y-107089351D01*
X172165649Y-107179888D01*
X172272110Y-107251022D01*
X172332511Y-107276041D01*
X171496275Y-108112277D01*
X171577827Y-108174854D01*
X171577828Y-108174855D01*
X171782171Y-108292834D01*
X171782180Y-108292839D01*
X172000163Y-108383129D01*
X172000161Y-108383129D01*
X172228085Y-108444200D01*
X172462014Y-108474999D01*
X172462029Y-108475000D01*
X172697971Y-108475000D01*
X172697985Y-108474999D01*
X172931914Y-108444200D01*
X173159837Y-108383129D01*
X173377819Y-108292839D01*
X173377828Y-108292834D01*
X173582181Y-108174850D01*
X173663723Y-108112279D01*
X173663723Y-108112276D01*
X172827487Y-107276041D01*
X172887890Y-107251022D01*
X172994351Y-107179888D01*
X173084888Y-107089351D01*
X173156022Y-106982890D01*
X173181041Y-106922488D01*
X174017276Y-107758723D01*
X174017279Y-107758723D01*
X174079850Y-107677181D01*
X174197834Y-107472828D01*
X174197839Y-107472819D01*
X174288129Y-107254837D01*
X174349200Y-107026914D01*
X174379999Y-106792985D01*
X174380000Y-106792971D01*
X174380000Y-106557028D01*
X174379999Y-106557014D01*
X174349200Y-106323085D01*
X174288129Y-106095162D01*
X174197839Y-105877180D01*
X174197834Y-105877171D01*
X174079855Y-105672828D01*
X174079854Y-105672827D01*
X174017277Y-105591275D01*
X173181041Y-106427511D01*
X173156022Y-106367110D01*
X173084888Y-106260649D01*
X172994351Y-106170112D01*
X172887890Y-106098978D01*
X172827487Y-106073957D01*
X173663723Y-105237721D01*
X173582172Y-105175145D01*
X173582171Y-105175144D01*
X173377828Y-105057165D01*
X173377819Y-105057160D01*
X173159836Y-104966870D01*
X173159838Y-104966870D01*
X172931914Y-104905799D01*
X172697985Y-104875000D01*
X172462014Y-104875000D01*
X172228085Y-104905799D01*
X172000162Y-104966870D01*
X171782180Y-105057160D01*
X171782164Y-105057168D01*
X171671020Y-105121338D01*
X171603120Y-105137811D01*
X171537093Y-105114958D01*
X171493902Y-105060037D01*
X171487261Y-104990484D01*
X171487403Y-104989758D01*
X171489145Y-104981004D01*
X171500500Y-104923918D01*
X171500500Y-103339111D01*
X171520185Y-103272072D01*
X171572989Y-103226317D01*
X171642147Y-103216373D01*
X171653602Y-103218575D01*
X171982725Y-103298070D01*
X171996130Y-103302436D01*
X171996175Y-103302305D01*
X172000007Y-103303606D01*
X172227986Y-103364693D01*
X172461989Y-103395500D01*
X172461996Y-103395500D01*
X172698004Y-103395500D01*
X172698011Y-103395500D01*
X172932014Y-103364693D01*
X173159993Y-103303606D01*
X173378049Y-103213284D01*
X173582450Y-103095273D01*
X173769699Y-102951592D01*
X173936592Y-102784699D01*
X174080273Y-102597450D01*
X174198284Y-102393049D01*
X174288606Y-102174993D01*
X174349693Y-101947014D01*
X174380500Y-101713011D01*
X174380500Y-101476989D01*
X174349693Y-101242986D01*
X174288606Y-101015007D01*
X174198284Y-100796951D01*
X174198282Y-100796948D01*
X174198280Y-100796943D01*
X174149483Y-100712426D01*
X174080273Y-100592550D01*
X173957526Y-100432583D01*
X173936593Y-100405302D01*
X173936587Y-100405295D01*
X173769704Y-100238412D01*
X173769697Y-100238406D01*
X173582454Y-100094730D01*
X173582453Y-100094729D01*
X173582450Y-100094727D01*
X173500957Y-100047677D01*
X173378056Y-99976719D01*
X173378045Y-99976714D01*
X173159993Y-99886394D01*
X173135440Y-99879815D01*
X172932014Y-99825307D01*
X172932013Y-99825306D01*
X172932010Y-99825306D01*
X172698020Y-99794501D01*
X172698017Y-99794500D01*
X172698011Y-99794500D01*
X172461989Y-99794500D01*
X172461983Y-99794500D01*
X172461979Y-99794501D01*
X172227989Y-99825306D01*
X172000003Y-99886395D01*
X171893041Y-99930700D01*
X171823572Y-99938169D01*
X171761093Y-99906893D01*
X171725441Y-99846804D01*
X171727935Y-99776979D01*
X171757906Y-99728460D01*
X172372371Y-99113995D01*
X172390038Y-99099335D01*
X172393541Y-99096937D01*
X172393548Y-99096934D01*
X173202728Y-98453912D01*
X173343031Y-98342419D01*
X173407763Y-98316122D01*
X173420177Y-98315499D01*
X173680002Y-98315499D01*
X173680008Y-98315499D01*
X173782797Y-98304999D01*
X173949334Y-98249814D01*
X174098656Y-98157712D01*
X174222712Y-98033656D01*
X174314814Y-97884334D01*
X174369999Y-97717797D01*
X174380500Y-97615009D01*
X174380499Y-95414992D01*
X174369999Y-95312203D01*
X174314814Y-95145666D01*
X174222712Y-94996344D01*
X174098656Y-94872288D01*
X173949334Y-94780186D01*
X173782797Y-94725001D01*
X173782795Y-94725000D01*
X173680010Y-94714500D01*
X171479998Y-94714500D01*
X171479981Y-94714501D01*
X171377203Y-94725000D01*
X171377200Y-94725001D01*
X171210668Y-94780185D01*
X171210663Y-94780187D01*
X171061342Y-94872289D01*
X170937289Y-94996342D01*
X170845187Y-95145663D01*
X170845186Y-95145666D01*
X170790001Y-95312203D01*
X170790001Y-95312204D01*
X170790000Y-95312204D01*
X170779500Y-95414983D01*
X170779500Y-97615001D01*
X170779501Y-97615018D01*
X170790000Y-97717796D01*
X170790001Y-97717799D01*
X170807051Y-97769254D01*
X170813069Y-97787413D01*
X170815163Y-97797550D01*
X170821012Y-97811388D01*
X170822570Y-97816088D01*
X170822574Y-97816099D01*
X170845186Y-97884334D01*
X170845187Y-97884335D01*
X170845186Y-97884335D01*
X170861397Y-97910616D01*
X170870073Y-97927431D01*
X170871191Y-97930077D01*
X170871192Y-97930079D01*
X171032653Y-98197745D01*
X171050425Y-98265316D01*
X171028843Y-98331769D01*
X171014156Y-98349474D01*
X170590585Y-98773045D01*
X170573039Y-98782625D01*
X170558406Y-98796249D01*
X170543000Y-98799028D01*
X170529262Y-98806530D01*
X170509320Y-98805103D01*
X170489647Y-98808653D01*
X170475185Y-98802662D01*
X170459570Y-98801546D01*
X170443564Y-98789564D01*
X170425096Y-98781914D01*
X170409497Y-98764061D01*
X170403637Y-98759674D01*
X170401046Y-98756082D01*
X170398819Y-98752875D01*
X170330472Y-98639815D01*
X170297277Y-98606620D01*
X170290950Y-98597507D01*
X170283281Y-98574464D01*
X170271642Y-98553149D01*
X170272361Y-98541652D01*
X170268887Y-98531212D01*
X170274355Y-98509786D01*
X170275586Y-98490126D01*
X170275300Y-98490064D01*
X170275707Y-98488191D01*
X170275874Y-98485529D01*
X170276943Y-98482496D01*
X170276949Y-98482485D01*
X170307532Y-98341893D01*
X170312516Y-98272201D01*
X170302252Y-98128690D01*
X170251970Y-97993881D01*
X170218485Y-97932558D01*
X170132261Y-97817377D01*
X170132256Y-97817372D01*
X170132251Y-97817366D01*
X169093776Y-96778892D01*
X169093770Y-96778886D01*
X169093761Y-96778877D01*
X169093737Y-96778855D01*
X169053519Y-96742728D01*
X169053507Y-96742718D01*
X169032856Y-96726076D01*
X168988974Y-96694433D01*
X168858100Y-96634663D01*
X168791055Y-96614976D01*
X168743582Y-96608150D01*
X168648638Y-96594500D01*
X162501362Y-96594500D01*
X162501360Y-96594500D01*
X162447311Y-96597397D01*
X162447310Y-96597397D01*
X162420977Y-96600229D01*
X162420950Y-96600232D01*
X162367554Y-96608885D01*
X162367552Y-96608885D01*
X162232747Y-96659166D01*
X162171422Y-96692651D01*
X162056240Y-96778876D01*
X162056228Y-96778886D01*
X159612181Y-99222934D01*
X159550858Y-99256419D01*
X159481166Y-99251435D01*
X159425233Y-99209563D01*
X159400816Y-99144099D01*
X159400500Y-99135253D01*
X159400500Y-98612286D01*
X159400499Y-98612272D01*
X159396468Y-98581654D01*
X159385687Y-98499764D01*
X159327698Y-98359767D01*
X159235451Y-98239549D01*
X159115233Y-98147302D01*
X159115229Y-98147300D01*
X159051801Y-98121027D01*
X158975236Y-98089313D01*
X158960698Y-98087399D01*
X158862727Y-98074500D01*
X158862720Y-98074500D01*
X158637280Y-98074500D01*
X158637272Y-98074500D01*
X158550393Y-98085938D01*
X158524764Y-98089313D01*
X158524762Y-98089313D01*
X158516708Y-98090374D01*
X158516316Y-98087399D01*
X158483684Y-98087399D01*
X158483292Y-98090374D01*
X158475237Y-98089313D01*
X158475236Y-98089313D01*
X158446271Y-98085499D01*
X158362727Y-98074500D01*
X158362720Y-98074500D01*
X158137280Y-98074500D01*
X158137272Y-98074500D01*
X158035265Y-98087930D01*
X158035263Y-98087930D01*
X158024764Y-98089313D01*
X157884767Y-98147302D01*
X157825486Y-98192789D01*
X157760319Y-98217984D01*
X157691874Y-98203946D01*
X157674515Y-98192790D01*
X157648512Y-98172838D01*
X157607310Y-98116410D01*
X157601120Y-98080894D01*
X157599999Y-98079911D01*
X157517270Y-98090804D01*
X157483527Y-98088593D01*
X157483293Y-98090374D01*
X157475236Y-98089313D01*
X157455451Y-98086708D01*
X157362727Y-98074500D01*
X157362720Y-98074500D01*
X157137280Y-98074500D01*
X157137272Y-98074500D01*
X157050393Y-98085938D01*
X157024764Y-98089313D01*
X157024762Y-98089313D01*
X157016708Y-98090374D01*
X157016316Y-98087399D01*
X156983684Y-98087399D01*
X156983292Y-98090374D01*
X156975237Y-98089313D01*
X156975236Y-98089313D01*
X156946271Y-98085499D01*
X156862727Y-98074500D01*
X156862720Y-98074500D01*
X156637280Y-98074500D01*
X156637272Y-98074500D01*
X156524764Y-98089313D01*
X156524763Y-98089313D01*
X156384770Y-98147300D01*
X156384767Y-98147301D01*
X156384767Y-98147302D01*
X156264549Y-98239549D01*
X156174706Y-98356635D01*
X156172300Y-98359770D01*
X156114313Y-98499763D01*
X156114313Y-98499764D01*
X156099500Y-98612272D01*
X156099500Y-99775500D01*
X156079815Y-99842539D01*
X156027011Y-99888294D01*
X155975500Y-99899500D01*
X155972038Y-99899500D01*
X155904999Y-99879815D01*
X155859244Y-99827011D01*
X155848680Y-99762895D01*
X155849999Y-99749980D01*
X155850000Y-99749973D01*
X155850000Y-99625000D01*
X154574000Y-99625000D01*
X154506961Y-99605315D01*
X154461206Y-99552511D01*
X154450000Y-99501000D01*
X154450000Y-99375000D01*
X154324000Y-99375000D01*
X154256961Y-99355315D01*
X154211206Y-99302511D01*
X154200000Y-99251000D01*
X154200000Y-99125000D01*
X154700000Y-99125000D01*
X155849999Y-99125000D01*
X155849999Y-99000028D01*
X155849998Y-99000013D01*
X155839505Y-98897302D01*
X155784358Y-98730880D01*
X155784356Y-98730875D01*
X155692315Y-98581654D01*
X155568345Y-98457684D01*
X155419124Y-98365643D01*
X155419119Y-98365641D01*
X155252697Y-98310494D01*
X155252690Y-98310493D01*
X155149986Y-98300000D01*
X154700000Y-98300000D01*
X154700000Y-99125000D01*
X154200000Y-99125000D01*
X154200000Y-98300000D01*
X153750028Y-98300000D01*
X153750012Y-98300001D01*
X153647302Y-98310494D01*
X153480880Y-98365641D01*
X153480875Y-98365643D01*
X153337770Y-98453912D01*
X153270377Y-98472352D01*
X153203714Y-98451429D01*
X153158944Y-98397787D01*
X153156491Y-98391705D01*
X153143798Y-98357673D01*
X153143793Y-98357664D01*
X153057547Y-98242455D01*
X153057544Y-98242452D01*
X152942335Y-98156206D01*
X152942328Y-98156202D01*
X152807482Y-98105908D01*
X152807483Y-98105908D01*
X152747883Y-98099501D01*
X152747881Y-98099500D01*
X152747873Y-98099500D01*
X152747864Y-98099500D01*
X151652129Y-98099500D01*
X151652123Y-98099501D01*
X151592515Y-98105909D01*
X151510331Y-98136561D01*
X151440639Y-98141545D01*
X151379317Y-98108059D01*
X151345832Y-98046736D01*
X151342999Y-98020379D01*
X151342999Y-97978417D01*
X151336591Y-97907897D01*
X151336590Y-97907892D01*
X151286018Y-97745603D01*
X151198072Y-97600122D01*
X151077877Y-97479927D01*
X150932395Y-97391980D01*
X150932396Y-97391980D01*
X150770105Y-97341409D01*
X150770106Y-97341409D01*
X150699572Y-97335000D01*
X150618000Y-97335000D01*
X150618000Y-98111000D01*
X150598315Y-98178039D01*
X150545511Y-98223794D01*
X150494000Y-98235000D01*
X150368000Y-98235000D01*
X150368000Y-98275500D01*
X150348315Y-98342539D01*
X150295511Y-98388294D01*
X150244000Y-98399500D01*
X148574000Y-98399500D01*
X148565314Y-98396949D01*
X148556353Y-98398238D01*
X148532312Y-98387259D01*
X148506961Y-98379815D01*
X148501033Y-98372974D01*
X148492797Y-98369213D01*
X148478507Y-98346978D01*
X148461206Y-98327011D01*
X148458918Y-98316496D01*
X148455023Y-98310435D01*
X148450000Y-98275500D01*
X148450000Y-98224000D01*
X148469685Y-98156961D01*
X148522489Y-98111206D01*
X148574000Y-98100000D01*
X149263000Y-98100000D01*
X149266741Y-98096258D01*
X149282685Y-98041961D01*
X149335489Y-97996206D01*
X149387000Y-97985000D01*
X150118000Y-97985000D01*
X150118000Y-97335000D01*
X150117999Y-97334999D01*
X150036417Y-97335000D01*
X149965897Y-97341408D01*
X149965892Y-97341409D01*
X149803603Y-97391981D01*
X149658124Y-97479926D01*
X149593191Y-97544859D01*
X149531867Y-97578343D01*
X149462176Y-97573358D01*
X149409657Y-97535842D01*
X149404863Y-97530000D01*
X148601988Y-97530000D01*
X148619205Y-97520060D01*
X148675060Y-97464205D01*
X148714556Y-97395796D01*
X148735000Y-97319496D01*
X148735000Y-97240504D01*
X148714556Y-97164204D01*
X148675060Y-97095795D01*
X148619205Y-97039940D01*
X148601988Y-97030000D01*
X149404862Y-97030000D01*
X149396569Y-96988309D01*
X149396569Y-96988307D01*
X149321192Y-96806328D01*
X149321185Y-96806315D01*
X149211751Y-96642537D01*
X149211748Y-96642533D01*
X149072466Y-96503251D01*
X149072462Y-96503248D01*
X148908684Y-96393814D01*
X148908671Y-96393807D01*
X148726693Y-96318430D01*
X148726681Y-96318427D01*
X148533495Y-96280000D01*
X148135000Y-96280000D01*
X148135000Y-96980000D01*
X147635000Y-96980000D01*
X147635000Y-96280000D01*
X147236504Y-96280000D01*
X147043318Y-96318427D01*
X147043306Y-96318430D01*
X146861328Y-96393807D01*
X146861315Y-96393814D01*
X146697537Y-96503248D01*
X146697533Y-96503251D01*
X146558251Y-96642533D01*
X146558248Y-96642537D01*
X146448814Y-96806315D01*
X146448807Y-96806328D01*
X146373430Y-96988307D01*
X146373430Y-96988309D01*
X146365138Y-97030000D01*
X147168012Y-97030000D01*
X147150795Y-97039940D01*
X147094940Y-97095795D01*
X147055444Y-97164204D01*
X147035000Y-97240504D01*
X147035000Y-97319496D01*
X147055444Y-97395796D01*
X147094940Y-97464205D01*
X147150795Y-97520060D01*
X147168012Y-97530000D01*
X146365138Y-97530000D01*
X146373430Y-97571690D01*
X146373430Y-97571692D01*
X146448807Y-97753671D01*
X146448814Y-97753684D01*
X146558248Y-97917462D01*
X146558251Y-97917466D01*
X146697533Y-98056748D01*
X146697537Y-98056751D01*
X146861315Y-98166185D01*
X146861328Y-98166192D01*
X146870838Y-98170131D01*
X146884291Y-98180971D01*
X146900317Y-98187440D01*
X146910935Y-98202440D01*
X146925243Y-98213970D01*
X146930699Y-98230363D01*
X146940684Y-98244469D01*
X146941506Y-98262828D01*
X146947310Y-98280264D01*
X146943049Y-98297280D01*
X146943810Y-98314269D01*
X146933328Y-98336101D01*
X146930600Y-98346997D01*
X146925712Y-98355407D01*
X146924485Y-98356635D01*
X146848719Y-98487865D01*
X146848704Y-98487920D01*
X146845866Y-98492804D01*
X146820727Y-98516637D01*
X146795474Y-98540716D01*
X146795281Y-98540762D01*
X146795162Y-98540876D01*
X146793564Y-98541179D01*
X146738655Y-98554500D01*
X146324000Y-98554500D01*
X146323991Y-98554500D01*
X146323990Y-98554501D01*
X146216549Y-98566052D01*
X146216537Y-98566054D01*
X146165027Y-98577260D01*
X146062502Y-98611383D01*
X146062496Y-98611386D01*
X145941462Y-98689171D01*
X145941451Y-98689179D01*
X145888659Y-98734923D01*
X145794433Y-98843664D01*
X145794430Y-98843668D01*
X145734664Y-98974534D01*
X145727183Y-99000013D01*
X145714977Y-99041580D01*
X145714976Y-99041584D01*
X145694500Y-99184000D01*
X141350500Y-99184000D01*
X141350500Y-97030000D01*
X142435138Y-97030000D01*
X143238012Y-97030000D01*
X143220795Y-97039940D01*
X143164940Y-97095795D01*
X143125444Y-97164204D01*
X143105000Y-97240504D01*
X143105000Y-97319496D01*
X143125444Y-97395796D01*
X143164940Y-97464205D01*
X143220795Y-97520060D01*
X143238012Y-97530000D01*
X142435138Y-97530000D01*
X142443430Y-97571690D01*
X142443430Y-97571692D01*
X142518807Y-97753671D01*
X142518814Y-97753684D01*
X142628248Y-97917462D01*
X142628251Y-97917466D01*
X142767533Y-98056748D01*
X142767537Y-98056751D01*
X142931315Y-98166185D01*
X142931328Y-98166192D01*
X143113306Y-98241569D01*
X143113318Y-98241572D01*
X143306504Y-98279999D01*
X143306508Y-98280000D01*
X143455000Y-98280000D01*
X143455000Y-97580000D01*
X143955000Y-97580000D01*
X143955000Y-98280000D01*
X144103492Y-98280000D01*
X144103495Y-98279999D01*
X144296681Y-98241572D01*
X144296693Y-98241569D01*
X144478671Y-98166192D01*
X144478684Y-98166185D01*
X144642462Y-98056751D01*
X144642466Y-98056748D01*
X144781748Y-97917466D01*
X144781751Y-97917462D01*
X144891185Y-97753684D01*
X144891192Y-97753671D01*
X144966569Y-97571692D01*
X144966569Y-97571690D01*
X144974862Y-97530000D01*
X144171988Y-97530000D01*
X144189205Y-97520060D01*
X144245060Y-97464205D01*
X144284556Y-97395796D01*
X144305000Y-97319496D01*
X144305000Y-97240504D01*
X144284556Y-97164204D01*
X144245060Y-97095795D01*
X144189205Y-97039940D01*
X144171988Y-97030000D01*
X144974862Y-97030000D01*
X144966569Y-96988309D01*
X144966569Y-96988307D01*
X144891192Y-96806328D01*
X144891185Y-96806315D01*
X144781751Y-96642537D01*
X144781748Y-96642533D01*
X144642466Y-96503251D01*
X144642462Y-96503248D01*
X144478684Y-96393814D01*
X144478671Y-96393807D01*
X144296693Y-96318430D01*
X144296681Y-96318427D01*
X144103495Y-96280000D01*
X143955000Y-96280000D01*
X143955000Y-96980000D01*
X143455000Y-96980000D01*
X143455000Y-96280000D01*
X143306504Y-96280000D01*
X143113318Y-96318427D01*
X143113306Y-96318430D01*
X142931328Y-96393807D01*
X142931315Y-96393814D01*
X142767537Y-96503248D01*
X142767533Y-96503251D01*
X142628251Y-96642533D01*
X142628248Y-96642537D01*
X142518814Y-96806315D01*
X142518807Y-96806328D01*
X142443430Y-96988307D01*
X142443430Y-96988309D01*
X142435138Y-97030000D01*
X141350500Y-97030000D01*
X141350500Y-95948578D01*
X141370185Y-95881539D01*
X141422989Y-95835784D01*
X141474500Y-95824578D01*
X163246604Y-95824578D01*
X163246604Y-94024500D01*
X163266289Y-93957461D01*
X163319093Y-93911706D01*
X163370604Y-93900500D01*
X177125500Y-93900500D01*
X177192539Y-93920185D01*
G37*
%TD.AperFunction*%
%TD*%
%TA.AperFunction,Conductor*%
%TO.N,+5V*%
G36*
X156497231Y-101720185D02*
G01*
X156542986Y-101772989D01*
X156552930Y-101842147D01*
X156523905Y-101905703D01*
X156517873Y-101912181D01*
X156244727Y-102185325D01*
X156244724Y-102185328D01*
X156197367Y-102256203D01*
X156197368Y-102256204D01*
X156173534Y-102291874D01*
X156124499Y-102410255D01*
X156124497Y-102410261D01*
X156099500Y-102535928D01*
X156099500Y-104324305D01*
X156079815Y-104391344D01*
X156027011Y-104437099D01*
X155957853Y-104447043D01*
X155949551Y-104445560D01*
X155947607Y-104445144D01*
X155848322Y-104435000D01*
X155825000Y-104435000D01*
X155825000Y-105160000D01*
X156524999Y-105160000D01*
X156524999Y-105111692D01*
X156524998Y-105111675D01*
X156519934Y-105062101D01*
X156532704Y-104993409D01*
X156580585Y-104942524D01*
X156643292Y-104925500D01*
X156862713Y-104925500D01*
X156862720Y-104925500D01*
X156975236Y-104910687D01*
X156975237Y-104910686D01*
X156981432Y-104909871D01*
X156981972Y-104909617D01*
X157017264Y-104909195D01*
X157035363Y-104911577D01*
X157099261Y-104939841D01*
X157133744Y-104987064D01*
X157173533Y-105083123D01*
X157173538Y-105083133D01*
X157244723Y-105189668D01*
X157244726Y-105189672D01*
X157335328Y-105280274D01*
X157335331Y-105280276D01*
X157394891Y-105320073D01*
X157439695Y-105373683D01*
X157450000Y-105423174D01*
X157450000Y-105726000D01*
X157430315Y-105793039D01*
X157377511Y-105838794D01*
X157326000Y-105850000D01*
X156647839Y-105850000D01*
X156580800Y-105830315D01*
X156535045Y-105777511D01*
X156524481Y-105713399D01*
X156524999Y-105708326D01*
X156525000Y-105708309D01*
X156525000Y-105660000D01*
X155699000Y-105660000D01*
X155631961Y-105640315D01*
X155586206Y-105587511D01*
X155575000Y-105536000D01*
X155575000Y-105410000D01*
X155449000Y-105410000D01*
X155381961Y-105390315D01*
X155336206Y-105337511D01*
X155325000Y-105286000D01*
X155325000Y-104434999D01*
X155301693Y-104435000D01*
X155301674Y-104435001D01*
X155202392Y-104445144D01*
X155041518Y-104498452D01*
X155041507Y-104498457D01*
X154906815Y-104581538D01*
X154890257Y-104586233D01*
X154876653Y-104594977D01*
X154841718Y-104600000D01*
X154759235Y-104600000D01*
X154694138Y-104581538D01*
X154558705Y-104498001D01*
X154558699Y-104497998D01*
X154558697Y-104497997D01*
X154524499Y-104486665D01*
X154397709Y-104444651D01*
X154298346Y-104434500D01*
X153751662Y-104434500D01*
X153751644Y-104434501D01*
X153662100Y-104443649D01*
X153593407Y-104430879D01*
X153542523Y-104382998D01*
X153525499Y-104320291D01*
X153525499Y-103999998D01*
X153525498Y-103999981D01*
X153514999Y-103897203D01*
X153514998Y-103897200D01*
X153495478Y-103838294D01*
X153459814Y-103730666D01*
X153367712Y-103581344D01*
X153291161Y-103504793D01*
X153257676Y-103443470D01*
X153262660Y-103373778D01*
X153304532Y-103317845D01*
X153369996Y-103293428D01*
X153438269Y-103308280D01*
X153443939Y-103311574D01*
X153480869Y-103334353D01*
X153480880Y-103334358D01*
X153647302Y-103389505D01*
X153647309Y-103389506D01*
X153750019Y-103399999D01*
X154199999Y-103399999D01*
X154700000Y-103399999D01*
X155149972Y-103399999D01*
X155149986Y-103399998D01*
X155252697Y-103389505D01*
X155419119Y-103334358D01*
X155419124Y-103334356D01*
X155568345Y-103242315D01*
X155692315Y-103118345D01*
X155784356Y-102969124D01*
X155784358Y-102969119D01*
X155839505Y-102802697D01*
X155839506Y-102802690D01*
X155849999Y-102699986D01*
X155850000Y-102699973D01*
X155850000Y-102575000D01*
X154700000Y-102575000D01*
X154700000Y-103399999D01*
X154199999Y-103399999D01*
X154200000Y-103399998D01*
X154200000Y-102575000D01*
X153655000Y-102575000D01*
X153618681Y-102611319D01*
X153616609Y-102609247D01*
X153582511Y-102638794D01*
X153531000Y-102650000D01*
X151075000Y-102650000D01*
X151069587Y-102655413D01*
X151008264Y-102688898D01*
X150938572Y-102683912D01*
X150933237Y-102681719D01*
X150932607Y-102681522D01*
X150932606Y-102681522D01*
X150770196Y-102630914D01*
X150741248Y-102628283D01*
X150698432Y-102624392D01*
X150633450Y-102598720D01*
X150592662Y-102541992D01*
X150588039Y-102476711D01*
X150600500Y-102414069D01*
X150600500Y-102124500D01*
X150603050Y-102115814D01*
X150601762Y-102106853D01*
X150612740Y-102082812D01*
X150620185Y-102057461D01*
X150627025Y-102051533D01*
X150630787Y-102043297D01*
X150653021Y-102029007D01*
X150672989Y-102011706D01*
X150683503Y-102009418D01*
X150689565Y-102005523D01*
X150724500Y-102000500D01*
X150951000Y-102000500D01*
X151018039Y-102020185D01*
X151063794Y-102072989D01*
X151075000Y-102124500D01*
X151075000Y-102150000D01*
X152920000Y-102150000D01*
X152956319Y-102113681D01*
X152958390Y-102115752D01*
X152992489Y-102086206D01*
X153044000Y-102075000D01*
X155849999Y-102075000D01*
X155849999Y-101950028D01*
X155849998Y-101950013D01*
X155838818Y-101840569D01*
X155840936Y-101840352D01*
X155845399Y-101780776D01*
X155887458Y-101724984D01*
X155953004Y-101700787D01*
X155961434Y-101700500D01*
X156430192Y-101700500D01*
X156497231Y-101720185D01*
G37*
%TD.AperFunction*%
%TA.AperFunction,Conductor*%
G36*
X146936797Y-99079685D02*
G01*
X146957439Y-99096319D01*
X147031635Y-99170515D01*
X147162865Y-99246281D01*
X147309234Y-99285500D01*
X147309235Y-99285500D01*
X147317084Y-99287603D01*
X147316633Y-99289282D01*
X147371487Y-99313543D01*
X147409964Y-99371864D01*
X147413260Y-99431233D01*
X147384742Y-99582237D01*
X147380909Y-99592517D01*
X147378406Y-99615788D01*
X147378404Y-99615804D01*
X147374500Y-99652122D01*
X147374500Y-100047869D01*
X147374501Y-100047878D01*
X147378578Y-100085805D01*
X147366170Y-100154564D01*
X147318559Y-100205700D01*
X147279482Y-100220674D01*
X147260258Y-100224498D01*
X147260257Y-100224498D01*
X147141875Y-100273533D01*
X147141866Y-100273538D01*
X147035331Y-100344723D01*
X147035327Y-100344726D01*
X146944726Y-100435327D01*
X146944723Y-100435331D01*
X146873538Y-100541866D01*
X146873533Y-100541875D01*
X146824499Y-100660255D01*
X146824497Y-100660261D01*
X146799500Y-100785928D01*
X146799500Y-100785931D01*
X146799500Y-101785931D01*
X146799500Y-101914069D01*
X146799500Y-101914071D01*
X146799499Y-101914071D01*
X146824497Y-102039738D01*
X146824499Y-102039744D01*
X146873533Y-102158124D01*
X146873538Y-102158133D01*
X146944723Y-102264668D01*
X146944726Y-102264672D01*
X147035327Y-102355273D01*
X147035331Y-102355276D01*
X147141866Y-102426461D01*
X147141872Y-102426464D01*
X147141873Y-102426465D01*
X147260256Y-102475501D01*
X147269433Y-102477326D01*
X147279478Y-102479325D01*
X147341389Y-102511710D01*
X147375963Y-102572425D01*
X147378577Y-102614194D01*
X147374500Y-102652120D01*
X147374500Y-103047869D01*
X147374501Y-103047878D01*
X147378679Y-103086745D01*
X147378679Y-103113250D01*
X147374500Y-103152122D01*
X147374500Y-103547869D01*
X147374501Y-103547880D01*
X147378404Y-103584190D01*
X147378406Y-103584203D01*
X147380909Y-103607483D01*
X147384744Y-103617767D01*
X147413260Y-103768766D01*
X147409971Y-103801893D01*
X147407596Y-103835110D01*
X147406533Y-103836529D01*
X147406358Y-103838294D01*
X147385676Y-103864389D01*
X147365724Y-103891043D01*
X147363996Y-103891746D01*
X147362961Y-103893053D01*
X147349433Y-103897678D01*
X147316711Y-103911005D01*
X147317084Y-103912397D01*
X147309235Y-103914500D01*
X147309234Y-103914500D01*
X147253420Y-103929454D01*
X147162863Y-103953719D01*
X147031635Y-104029485D01*
X147031632Y-104029487D01*
X146997439Y-104063681D01*
X146936116Y-104097166D01*
X146909758Y-104100000D01*
X146324000Y-104100000D01*
X146256961Y-104080315D01*
X146211206Y-104027511D01*
X146200000Y-103976000D01*
X146200000Y-99184000D01*
X146219685Y-99116961D01*
X146272489Y-99071206D01*
X146324000Y-99060000D01*
X146869758Y-99060000D01*
X146936797Y-99079685D01*
G37*
%TD.AperFunction*%
%TD*%
%TA.AperFunction,Conductor*%
%TO.N,+5V*%
G36*
X168715677Y-97119685D02*
G01*
X168736319Y-97136319D01*
X169774819Y-98174819D01*
X169808304Y-98236142D01*
X169803320Y-98305834D01*
X169774819Y-98350181D01*
X169750000Y-98375000D01*
X169750000Y-99151000D01*
X169730315Y-99218039D01*
X169677511Y-99263794D01*
X169626000Y-99275000D01*
X169500000Y-99275000D01*
X169500000Y-99401000D01*
X169480315Y-99468039D01*
X169427511Y-99513794D01*
X169376000Y-99525000D01*
X168525001Y-99525000D01*
X168525001Y-99531582D01*
X168531408Y-99602102D01*
X168531409Y-99602107D01*
X168581981Y-99764396D01*
X168669927Y-99909877D01*
X168772015Y-100011965D01*
X168776353Y-100019909D01*
X168783602Y-100025336D01*
X168792837Y-100050098D01*
X168805500Y-100073288D01*
X168804854Y-100082318D01*
X168808018Y-100090801D01*
X168802401Y-100116621D01*
X168800516Y-100142980D01*
X168794697Y-100152033D01*
X168793166Y-100159074D01*
X168772015Y-100187328D01*
X168700133Y-100259209D01*
X168638809Y-100292693D01*
X168569118Y-100287708D01*
X168549331Y-100278259D01*
X168440196Y-100213717D01*
X168440193Y-100213716D01*
X168282495Y-100167900D01*
X168282489Y-100167899D01*
X168245649Y-100165000D01*
X168175501Y-100165000D01*
X168108462Y-100145315D01*
X168062707Y-100092511D01*
X168052763Y-100023353D01*
X168069962Y-99975903D01*
X168111545Y-99908486D01*
X168111547Y-99908481D01*
X168164855Y-99747606D01*
X168174999Y-99648322D01*
X168175000Y-99648309D01*
X168175000Y-99600000D01*
X167475000Y-99600000D01*
X167475000Y-100035000D01*
X167481000Y-100035000D01*
X167548039Y-100054685D01*
X167593794Y-100107489D01*
X167605000Y-100159000D01*
X167605000Y-100841000D01*
X167585315Y-100908039D01*
X167532511Y-100953794D01*
X167481000Y-100965000D01*
X167229000Y-100965000D01*
X167161961Y-100945315D01*
X167116206Y-100892511D01*
X167105000Y-100841000D01*
X167105000Y-100455000D01*
X167099000Y-100455000D01*
X167031961Y-100435315D01*
X166986206Y-100382511D01*
X166975000Y-100331000D01*
X166975000Y-99100000D01*
X167475000Y-99100000D01*
X168174999Y-99100000D01*
X168174999Y-99051692D01*
X168174997Y-99051672D01*
X168172602Y-99028215D01*
X168171602Y-99018427D01*
X168525000Y-99018427D01*
X168525000Y-99025000D01*
X169250000Y-99025000D01*
X169250000Y-98375000D01*
X169249999Y-98374999D01*
X169168417Y-98375000D01*
X169097897Y-98381408D01*
X169097892Y-98381409D01*
X168935603Y-98431981D01*
X168790122Y-98519927D01*
X168669927Y-98640122D01*
X168581980Y-98785604D01*
X168531409Y-98947893D01*
X168525000Y-99018427D01*
X168171602Y-99018427D01*
X168164855Y-98952392D01*
X168111547Y-98791518D01*
X168111542Y-98791507D01*
X168022575Y-98647271D01*
X168022572Y-98647267D01*
X167902732Y-98527427D01*
X167902728Y-98527424D01*
X167758492Y-98438457D01*
X167758481Y-98438452D01*
X167597606Y-98385144D01*
X167498322Y-98375000D01*
X167475000Y-98375000D01*
X167475000Y-99100000D01*
X166975000Y-99100000D01*
X166975000Y-98374999D01*
X166951693Y-98375000D01*
X166951674Y-98375001D01*
X166852392Y-98385144D01*
X166691518Y-98438452D01*
X166691507Y-98438457D01*
X166547271Y-98527424D01*
X166541605Y-98531905D01*
X166540150Y-98530065D01*
X166488679Y-98558157D01*
X166418989Y-98553158D01*
X166374666Y-98524666D01*
X166200000Y-98350000D01*
X164200000Y-98350000D01*
X164199999Y-98350000D01*
X162922819Y-99627181D01*
X162861496Y-99660666D01*
X162835138Y-99663500D01*
X161221929Y-99663500D01*
X161096261Y-99688497D01*
X161096255Y-99688499D01*
X160977870Y-99737535D01*
X160871331Y-99808722D01*
X160871324Y-99808728D01*
X159416873Y-101263181D01*
X159389945Y-101277884D01*
X159364127Y-101294477D01*
X159357926Y-101295368D01*
X159355550Y-101296666D01*
X159329192Y-101299500D01*
X159269809Y-101299500D01*
X159202770Y-101279815D01*
X159157015Y-101227011D01*
X159147071Y-101157853D01*
X159176096Y-101094297D01*
X159182128Y-101087819D01*
X159255272Y-101014674D01*
X159255273Y-101014673D01*
X159255277Y-101014669D01*
X159326465Y-100908127D01*
X159375501Y-100789744D01*
X159385023Y-100741873D01*
X159400500Y-100664069D01*
X159400500Y-100200862D01*
X159420185Y-100133823D01*
X159436819Y-100113181D01*
X162413681Y-97136319D01*
X162475004Y-97102834D01*
X162501362Y-97100000D01*
X168648638Y-97100000D01*
X168715677Y-97119685D01*
G37*
%TD.AperFunction*%
%TD*%
%TA.AperFunction,Conductor*%
%TO.N,/DIR*%
G36*
X163291151Y-103217741D02*
G01*
X163672195Y-103352244D01*
X163678855Y-103358229D01*
X163680000Y-103363277D01*
X163680000Y-103646722D01*
X163676573Y-103654995D01*
X163672194Y-103657755D01*
X163291151Y-103792258D01*
X163283624Y-103792347D01*
X162644075Y-103583425D01*
X162438045Y-103516121D01*
X162431246Y-103510295D01*
X162430557Y-103501367D01*
X162436384Y-103494567D01*
X162438044Y-103493878D01*
X163283625Y-103217652D01*
X163291151Y-103217741D01*
G37*
%TD.AperFunction*%
%TD*%
%TA.AperFunction,Conductor*%
%TO.N,/DIR*%
G36*
X163291151Y-101947741D02*
G01*
X163672195Y-102082244D01*
X163678855Y-102088229D01*
X163680000Y-102093277D01*
X163680000Y-102376722D01*
X163676573Y-102384995D01*
X163672194Y-102387755D01*
X163291151Y-102522258D01*
X163283624Y-102522347D01*
X162644075Y-102313425D01*
X162438045Y-102246121D01*
X162431246Y-102240295D01*
X162430557Y-102231367D01*
X162436384Y-102224567D01*
X162438044Y-102223878D01*
X163283625Y-101947652D01*
X163291151Y-101947741D01*
G37*
%TD.AperFunction*%
%TD*%
%TA.AperFunction,Conductor*%
%TO.N,Net-(J2-Pin_1)*%
G36*
X166314444Y-103151704D02*
G01*
X167366440Y-103204399D01*
X167374531Y-103208235D01*
X167377539Y-103216669D01*
X167377521Y-103216965D01*
X167356422Y-103496242D01*
X167352381Y-103504234D01*
X167346300Y-103506959D01*
X166383908Y-103635134D01*
X166376573Y-103633703D01*
X166039777Y-103441881D01*
X166034284Y-103434808D01*
X166035400Y-103425924D01*
X166037290Y-103423445D01*
X166305619Y-103155116D01*
X166313891Y-103151690D01*
X166314444Y-103151704D01*
G37*
%TD.AperFunction*%
%TD*%
%TA.AperFunction,Conductor*%
%TO.N,Net-(J2-Pin_1)*%
G36*
X168619593Y-103253843D02*
G01*
X168627436Y-103258162D01*
X168630000Y-103265471D01*
X168630000Y-103744528D01*
X168626573Y-103752801D01*
X168619592Y-103756156D01*
X168182717Y-103804698D01*
X168177431Y-103804067D01*
X167384278Y-103515997D01*
X167377672Y-103509952D01*
X167377275Y-103501006D01*
X167383320Y-103494400D01*
X167384278Y-103494003D01*
X168177435Y-103205931D01*
X168182713Y-103205301D01*
X168619593Y-103253843D01*
G37*
%TD.AperFunction*%
%TD*%
%TA.AperFunction,Conductor*%
%TO.N,Net-(J2-Pin_2)*%
G36*
X171394922Y-101089944D02*
G01*
X172571143Y-101590233D01*
X172577415Y-101596625D01*
X172578012Y-101603416D01*
X172315739Y-102846084D01*
X172310677Y-102853471D01*
X172301875Y-102855116D01*
X172301544Y-102855041D01*
X171000000Y-102540670D01*
X170520821Y-102540670D01*
X170512548Y-102537243D01*
X170509121Y-102528970D01*
X170510827Y-102522886D01*
X170587594Y-102396789D01*
X171380351Y-101094625D01*
X171387579Y-101089342D01*
X171394922Y-101089944D01*
G37*
%TD.AperFunction*%
%TD*%
%TA.AperFunction,Conductor*%
%TO.N,Net-(J2-Pin_1)*%
G36*
X169984327Y-100100718D02*
G01*
X170324491Y-100440882D01*
X170327918Y-100449155D01*
X170326132Y-100455368D01*
X169979240Y-101008918D01*
X169971943Y-101014109D01*
X169967152Y-101014201D01*
X169505523Y-100926885D01*
X169498030Y-100921980D01*
X169496880Y-100919848D01*
X169337957Y-100533845D01*
X169337976Y-100524892D01*
X169342260Y-100519675D01*
X169969541Y-100099271D01*
X169978321Y-100097513D01*
X169984327Y-100100718D01*
G37*
%TD.AperFunction*%
%TD*%
%TA.AperFunction,Conductor*%
%TO.N,Net-(J2-Pin_1)*%
G36*
X172585537Y-96525670D02*
G01*
X172587398Y-96528479D01*
X173190267Y-97806616D01*
X173190697Y-97815560D01*
X173186964Y-97820767D01*
X172079055Y-98701176D01*
X172070446Y-98703640D01*
X172063503Y-98700289D01*
X171718337Y-98355123D01*
X171716592Y-98352893D01*
X171304037Y-97668972D01*
X171302698Y-97660118D01*
X171306254Y-97654209D01*
X172569017Y-96524748D01*
X172577467Y-96521788D01*
X172585537Y-96525670D01*
G37*
%TD.AperFunction*%
%TD*%
%TA.AperFunction,Conductor*%
%TO.N,/RX*%
G36*
X162363658Y-100956436D02*
G01*
X162371160Y-100961323D01*
X162373009Y-100970085D01*
X162368121Y-100977588D01*
X162365512Y-100978930D01*
X161582810Y-101263976D01*
X161577041Y-101264548D01*
X161302399Y-101222626D01*
X161295891Y-101219333D01*
X161096698Y-101020140D01*
X161093271Y-101011867D01*
X161096698Y-101003594D01*
X161098601Y-101002053D01*
X161432413Y-100785701D01*
X161440920Y-100784019D01*
X162363658Y-100956436D01*
G37*
%TD.AperFunction*%
%TD*%
%TA.AperFunction,Conductor*%
%TO.N,Net-(J2-Pin_1)*%
G36*
X169494476Y-100923114D02*
G01*
X169501969Y-100928019D01*
X169503121Y-100930156D01*
X169661560Y-101314982D01*
X169661541Y-101323936D01*
X169656013Y-101329881D01*
X168959319Y-101681554D01*
X168950389Y-101682223D01*
X168945774Y-101679382D01*
X168745323Y-101478931D01*
X168741896Y-101470658D01*
X168742913Y-101465887D01*
X168806314Y-101323936D01*
X169021229Y-100842755D01*
X169027731Y-100836600D01*
X169034083Y-100836032D01*
X169494476Y-100923114D01*
G37*
%TD.AperFunction*%
%TD*%
%TA.AperFunction,Conductor*%
%TO.N,Net-(J2-Pin_2)*%
G36*
X169859509Y-104894369D02*
G01*
X170181979Y-105062036D01*
X170184855Y-105064144D01*
X170524030Y-105403319D01*
X170527457Y-105411592D01*
X170524030Y-105419865D01*
X170519671Y-105422618D01*
X169858837Y-105657184D01*
X169849894Y-105656722D01*
X169846300Y-105654066D01*
X169506532Y-105283600D01*
X169503466Y-105275187D01*
X169506518Y-105267800D01*
X169692614Y-105064144D01*
X169845475Y-104896857D01*
X169853585Y-104893062D01*
X169859509Y-104894369D01*
G37*
%TD.AperFunction*%
%TD*%
%TA.AperFunction,Conductor*%
%TO.N,Net-(J2-Pin_2)*%
G36*
X169858331Y-101891973D02*
G01*
X170366218Y-102022738D01*
X170373375Y-102028119D01*
X170375000Y-102034068D01*
X170375000Y-102515931D01*
X170371573Y-102524204D01*
X170366217Y-102527261D01*
X169858337Y-102658025D01*
X169849471Y-102656770D01*
X169846795Y-102654601D01*
X169506240Y-102282902D01*
X169503179Y-102274489D01*
X169506240Y-102267097D01*
X169846795Y-101895398D01*
X169854909Y-101891615D01*
X169858331Y-101891973D01*
G37*
%TD.AperFunction*%
%TD*%
%TA.AperFunction,Conductor*%
%TO.N,Net-(J2-Pin_2)*%
G36*
X168619593Y-101983843D02*
G01*
X168627436Y-101988162D01*
X168630000Y-101995471D01*
X168630000Y-102474528D01*
X168626573Y-102482801D01*
X168619592Y-102486156D01*
X168182717Y-102534698D01*
X168177431Y-102534067D01*
X167384278Y-102245997D01*
X167377672Y-102239952D01*
X167377275Y-102231006D01*
X167383320Y-102224400D01*
X167384278Y-102224003D01*
X168177435Y-101935931D01*
X168182713Y-101935301D01*
X168619593Y-101983843D01*
G37*
%TD.AperFunction*%
%TD*%
%TA.AperFunction,Conductor*%
%TO.N,Net-(J2-Pin_2)*%
G36*
X169226312Y-101878243D02*
G01*
X169229296Y-101881227D01*
X169495695Y-102267312D01*
X169497573Y-102276068D01*
X169494678Y-102281875D01*
X169152856Y-102653708D01*
X169144735Y-102657480D01*
X169140542Y-102656889D01*
X168632999Y-102487666D01*
X168626235Y-102481799D01*
X168625000Y-102476567D01*
X168625000Y-101994749D01*
X168628427Y-101986476D01*
X168634587Y-101983242D01*
X168812135Y-101950692D01*
X168814245Y-101950500D01*
X168871145Y-101950500D01*
X168871145Y-101950499D01*
X168960288Y-101926614D01*
X168966371Y-101923101D01*
X168970094Y-101921732D01*
X169217557Y-101876364D01*
X169226312Y-101878243D01*
G37*
%TD.AperFunction*%
%TD*%
%TA.AperFunction,Conductor*%
%TO.N,Net-(J2-Pin_1)*%
G36*
X168763857Y-103259796D02*
G01*
X169594482Y-103521656D01*
X169601342Y-103527412D01*
X169602287Y-103535761D01*
X169502482Y-103919303D01*
X169497082Y-103926447D01*
X169495543Y-103927205D01*
X169033274Y-104114037D01*
X169024320Y-104113959D01*
X169019587Y-104110284D01*
X168751040Y-103758143D01*
X168748643Y-103751048D01*
X168748643Y-103270956D01*
X168752070Y-103262683D01*
X168760343Y-103259256D01*
X168763857Y-103259796D01*
G37*
%TD.AperFunction*%
%TD*%
%TA.AperFunction,Conductor*%
%TO.N,Net-(J1-CC2)*%
G36*
X150094586Y-103128255D02*
G01*
X150097033Y-103130845D01*
X150362603Y-103515729D01*
X150364481Y-103524485D01*
X150359980Y-103531744D01*
X149945691Y-103841561D01*
X149937013Y-103843771D01*
X149931496Y-103841423D01*
X149781782Y-103724852D01*
X149777669Y-103718648D01*
X149776614Y-103714713D01*
X149776613Y-103714709D01*
X149730471Y-103634791D01*
X149730467Y-103634786D01*
X149665213Y-103569532D01*
X149665208Y-103569528D01*
X149585290Y-103523386D01*
X149585286Y-103523384D01*
X149501672Y-103500980D01*
X149494567Y-103495529D01*
X149493000Y-103489679D01*
X149493000Y-103210328D01*
X149496427Y-103202055D01*
X149503246Y-103198719D01*
X150085954Y-103125880D01*
X150094586Y-103128255D01*
G37*
%TD.AperFunction*%
%TD*%
%TA.AperFunction,Conductor*%
%TO.N,Net-(U1-V3)*%
G36*
X159919790Y-103574690D02*
G01*
X160245110Y-103992112D01*
X160247493Y-104000744D01*
X160245122Y-104006482D01*
X159920494Y-104424378D01*
X159912712Y-104428809D01*
X159904877Y-104427009D01*
X159439416Y-104124411D01*
X159437520Y-104122875D01*
X159237725Y-103923080D01*
X159234298Y-103914807D01*
X159237725Y-103906534D01*
X159240751Y-103904350D01*
X159905325Y-103571420D01*
X159914253Y-103570780D01*
X159919790Y-103574690D01*
G37*
%TD.AperFunction*%
%TD*%
%TA.AperFunction,Conductor*%
%TO.N,/TX*%
G36*
X162371953Y-104763878D02*
G01*
X162378753Y-104769705D01*
X162379442Y-104778633D01*
X162373615Y-104785433D01*
X162371953Y-104786122D01*
X161526375Y-105062347D01*
X161518848Y-105062258D01*
X161137806Y-104927755D01*
X161131145Y-104921770D01*
X161130000Y-104916722D01*
X161130000Y-104633277D01*
X161133427Y-104625004D01*
X161137803Y-104622245D01*
X161518849Y-104487740D01*
X161526375Y-104487652D01*
X162371953Y-104763878D01*
G37*
%TD.AperFunction*%
%TD*%
%TA.AperFunction,Conductor*%
%TO.N,Net-(J1-CC1)*%
G36*
X149902558Y-99716555D02*
G01*
X150363398Y-99882977D01*
X150370014Y-99889009D01*
X150370659Y-99890719D01*
X150481702Y-100273366D01*
X150480717Y-100282267D01*
X150473727Y-100287863D01*
X150473336Y-100287970D01*
X149649853Y-100496313D01*
X149640992Y-100495020D01*
X149635640Y-100487840D01*
X149635283Y-100484970D01*
X149635283Y-100202905D01*
X149636642Y-100197432D01*
X149678997Y-100117411D01*
X149681054Y-100114626D01*
X149730469Y-100065212D01*
X149776614Y-99985288D01*
X149800500Y-99896144D01*
X149800500Y-99890766D01*
X149801859Y-99885293D01*
X149803086Y-99882976D01*
X149888245Y-99722086D01*
X149895144Y-99716378D01*
X149902558Y-99716555D01*
G37*
%TD.AperFunction*%
%TD*%
%TA.AperFunction,Conductor*%
%TO.N,+5V*%
G36*
X150030451Y-104204493D02*
G01*
X149934226Y-104350000D01*
X149787719Y-104447225D01*
X149669431Y-104300000D01*
X149669431Y-104000000D01*
X150030451Y-104204493D01*
G37*
%TD.AperFunction*%
%TD*%
%TA.AperFunction,Conductor*%
%TO.N,+5V*%
G36*
X151153949Y-104210957D02*
G01*
X150948281Y-104447225D01*
X150802067Y-104350707D01*
X150705549Y-104204493D01*
X150876957Y-104055283D01*
X150881342Y-104053050D01*
X150893565Y-104040826D01*
X150941817Y-103998825D01*
X151153949Y-104210957D01*
G37*
%TD.AperFunction*%
%TD*%
%TA.AperFunction,Conductor*%
%TO.N,+5V*%
G36*
X159454968Y-100603554D02*
G01*
X159593154Y-100812128D01*
X159210171Y-101060483D01*
X158998039Y-100848351D01*
X158999342Y-100846339D01*
X159030470Y-100815212D01*
X159061232Y-100761929D01*
X159076613Y-100735290D01*
X159076615Y-100735286D01*
X159078079Y-100729818D01*
X159080316Y-100721471D01*
X159246394Y-100465368D01*
X159454968Y-100603554D01*
G37*
%TD.AperFunction*%
%TD*%
%TA.AperFunction,Conductor*%
%TO.N,Net-(J2-Pin_1)*%
G36*
X166079323Y-101646946D02*
G01*
X166240863Y-101808486D01*
X166244290Y-101816759D01*
X166241516Y-101824323D01*
X166081423Y-102013235D01*
X166073460Y-102017331D01*
X166066060Y-102015441D01*
X165951302Y-101939840D01*
X165947969Y-101936507D01*
X165872368Y-101821749D01*
X165870678Y-101812955D01*
X165874573Y-101806387D01*
X166063486Y-101646292D01*
X166072013Y-101643559D01*
X166079323Y-101646946D01*
G37*
%TD.AperFunction*%
%TD*%
%TA.AperFunction,Conductor*%
%TO.N,Net-(J2-Pin_1)*%
G36*
X168418929Y-101456469D02*
G01*
X168422825Y-101463038D01*
X168450515Y-101597643D01*
X168450515Y-101602357D01*
X168422825Y-101736961D01*
X168417801Y-101744374D01*
X168410402Y-101746264D01*
X168163619Y-101725886D01*
X168155656Y-101721790D01*
X168152882Y-101714226D01*
X168152882Y-101485773D01*
X168156309Y-101477500D01*
X168163617Y-101474113D01*
X168410402Y-101453735D01*
X168418929Y-101456469D01*
G37*
%TD.AperFunction*%
%TD*%
%TA.AperFunction,Conductor*%
%TO.N,Net-(J2-Pin_1)*%
G36*
X166097988Y-102307270D02*
G01*
X166101318Y-102314043D01*
X166144762Y-102650192D01*
X166142424Y-102658837D01*
X166135498Y-102663156D01*
X165952339Y-102700522D01*
X165947661Y-102700522D01*
X165764501Y-102663156D01*
X165757080Y-102658144D01*
X165755237Y-102650193D01*
X165798682Y-102314043D01*
X165803141Y-102306278D01*
X165810285Y-102303843D01*
X166089715Y-102303843D01*
X166097988Y-102307270D01*
G37*
%TD.AperFunction*%
%TD*%
%TA.AperFunction,Conductor*%
%TO.N,Net-(J2-Pin_1)*%
G36*
X172728805Y-97353231D02*
G01*
X172731975Y-97359064D01*
X172822731Y-97784671D01*
X172821105Y-97793477D01*
X172813728Y-97798554D01*
X172813616Y-97798577D01*
X172582328Y-97845527D01*
X172577672Y-97845527D01*
X172346383Y-97798577D01*
X172338957Y-97793573D01*
X172337245Y-97784783D01*
X172337268Y-97784671D01*
X172428025Y-97359064D01*
X172433102Y-97351687D01*
X172439468Y-97349804D01*
X172720532Y-97349804D01*
X172728805Y-97353231D01*
G37*
%TD.AperFunction*%
%TD*%
%TA.AperFunction,Conductor*%
%TO.N,/TX*%
G36*
X159871697Y-104635514D02*
G01*
X159872522Y-104635613D01*
X159949505Y-104647806D01*
X159966511Y-104650500D01*
X160035418Y-104650500D01*
X160043691Y-104653927D01*
X160047118Y-104662200D01*
X160047118Y-104887800D01*
X160043691Y-104896073D01*
X160035418Y-104899500D01*
X159966511Y-104899500D01*
X159872542Y-104914382D01*
X159871675Y-104914486D01*
X159789597Y-104921264D01*
X159781070Y-104918530D01*
X159777174Y-104911962D01*
X159749484Y-104777352D01*
X159749484Y-104772647D01*
X159777175Y-104638036D01*
X159782198Y-104630625D01*
X159789596Y-104628735D01*
X159871697Y-104635514D01*
G37*
%TD.AperFunction*%
%TD*%
%TA.AperFunction,Conductor*%
%TO.N,/TX*%
G36*
X160718929Y-104631469D02*
G01*
X160722825Y-104638038D01*
X160750515Y-104772643D01*
X160750515Y-104777357D01*
X160722825Y-104911961D01*
X160717801Y-104919374D01*
X160710402Y-104921264D01*
X160628323Y-104914486D01*
X160627456Y-104914382D01*
X160533489Y-104899500D01*
X160533488Y-104899500D01*
X160464582Y-104899500D01*
X160456309Y-104896073D01*
X160452882Y-104887800D01*
X160452882Y-104662200D01*
X160456309Y-104653927D01*
X160464582Y-104650500D01*
X160533488Y-104650500D01*
X160627483Y-104635612D01*
X160628296Y-104635515D01*
X160710402Y-104628735D01*
X160718929Y-104631469D01*
G37*
%TD.AperFunction*%
%TD*%
M02*
