%TF.GenerationSoftware,KiCad,Pcbnew,9.0.6*%
%TF.CreationDate,2025-11-24T21:34:53-08:00*%
%TF.ProjectId,rs485_adapter,72733438-355f-4616-9461-707465722e6b,A*%
%TF.SameCoordinates,Original*%
%TF.FileFunction,Legend,Bot*%
%TF.FilePolarity,Positive*%
%FSLAX46Y46*%
G04 Gerber Fmt 4.6, Leading zero omitted, Abs format (unit mm)*
G04 Created by KiCad (PCBNEW 9.0.6) date 2025-11-24 21:34:53*
%MOMM*%
%LPD*%
G01*
G04 APERTURE LIST*
%ADD10C,0.200000*%
%ADD11C,0.150000*%
%ADD12C,0.120000*%
G04 APERTURE END LIST*
D10*
X166023409Y-95462530D02*
X166023409Y-96414911D01*
X166594838Y-95272054D02*
X164594838Y-95938720D01*
X164594838Y-95938720D02*
X166594838Y-96605387D01*
X165832933Y-97272054D02*
X165832933Y-98795864D01*
X165547219Y-101938721D02*
X165642457Y-102224435D01*
X165642457Y-102224435D02*
X165737695Y-102319673D01*
X165737695Y-102319673D02*
X165928171Y-102414911D01*
X165928171Y-102414911D02*
X166213885Y-102414911D01*
X166213885Y-102414911D02*
X166404361Y-102319673D01*
X166404361Y-102319673D02*
X166499600Y-102224435D01*
X166499600Y-102224435D02*
X166594838Y-102033959D01*
X166594838Y-102033959D02*
X166594838Y-101272054D01*
X166594838Y-101272054D02*
X164594838Y-101272054D01*
X164594838Y-101272054D02*
X164594838Y-101938721D01*
X164594838Y-101938721D02*
X164690076Y-102129197D01*
X164690076Y-102129197D02*
X164785314Y-102224435D01*
X164785314Y-102224435D02*
X164975790Y-102319673D01*
X164975790Y-102319673D02*
X165166266Y-102319673D01*
X165166266Y-102319673D02*
X165356742Y-102224435D01*
X165356742Y-102224435D02*
X165451980Y-102129197D01*
X165451980Y-102129197D02*
X165547219Y-101938721D01*
X165547219Y-101938721D02*
X165547219Y-101272054D01*
X165832933Y-103272054D02*
X165832933Y-104795864D01*
X166594838Y-104033959D02*
X165071028Y-104033959D01*
X166404361Y-108414911D02*
X166499600Y-108319673D01*
X166499600Y-108319673D02*
X166594838Y-108033959D01*
X166594838Y-108033959D02*
X166594838Y-107843483D01*
X166594838Y-107843483D02*
X166499600Y-107557768D01*
X166499600Y-107557768D02*
X166309123Y-107367292D01*
X166309123Y-107367292D02*
X166118647Y-107272054D01*
X166118647Y-107272054D02*
X165737695Y-107176816D01*
X165737695Y-107176816D02*
X165451980Y-107176816D01*
X165451980Y-107176816D02*
X165071028Y-107272054D01*
X165071028Y-107272054D02*
X164880552Y-107367292D01*
X164880552Y-107367292D02*
X164690076Y-107557768D01*
X164690076Y-107557768D02*
X164594838Y-107843483D01*
X164594838Y-107843483D02*
X164594838Y-108033959D01*
X164594838Y-108033959D02*
X164690076Y-108319673D01*
X164690076Y-108319673D02*
X164785314Y-108414911D01*
D11*
X165954819Y-99466666D02*
X166669104Y-99466666D01*
X166669104Y-99466666D02*
X166811961Y-99419047D01*
X166811961Y-99419047D02*
X166907200Y-99323809D01*
X166907200Y-99323809D02*
X166954819Y-99180952D01*
X166954819Y-99180952D02*
X166954819Y-99085714D01*
X166050057Y-99895238D02*
X166002438Y-99942857D01*
X166002438Y-99942857D02*
X165954819Y-100038095D01*
X165954819Y-100038095D02*
X165954819Y-100276190D01*
X165954819Y-100276190D02*
X166002438Y-100371428D01*
X166002438Y-100371428D02*
X166050057Y-100419047D01*
X166050057Y-100419047D02*
X166145295Y-100466666D01*
X166145295Y-100466666D02*
X166240533Y-100466666D01*
X166240533Y-100466666D02*
X166383390Y-100419047D01*
X166383390Y-100419047D02*
X166954819Y-99847619D01*
X166954819Y-99847619D02*
X166954819Y-100466666D01*
D12*
%TO.C,J2*%
X177910000Y-96955000D02*
X177300000Y-96515000D01*
X177910000Y-96075000D01*
X177910000Y-96955000D01*
G36*
X177910000Y-96955000D02*
G01*
X177300000Y-96515000D01*
X177910000Y-96075000D01*
X177910000Y-96955000D01*
G37*
X177300000Y-109335000D02*
X177300000Y-96815000D01*
X167260000Y-109335000D02*
X177300000Y-109335000D01*
X177300000Y-96215000D02*
X177300000Y-93855000D01*
X177300000Y-93855000D02*
X167260000Y-93855000D01*
X176680000Y-93855000D02*
X176680000Y-109335000D01*
X175180000Y-93855000D02*
X175180000Y-109335000D01*
X170280000Y-93855000D02*
X170280000Y-109335000D01*
X167260000Y-93855000D02*
X167260000Y-109335000D01*
%TD*%
M02*
