%TF.GenerationSoftware,KiCad,Pcbnew,9.0.6*%
%TF.CreationDate,2025-11-24T21:34:53-08:00*%
%TF.ProjectId,rs485_adapter,72733438-355f-4616-9461-707465722e6b,A*%
%TF.SameCoordinates,Original*%
%TF.FileFunction,Paste,Top*%
%TF.FilePolarity,Positive*%
%FSLAX46Y46*%
G04 Gerber Fmt 4.6, Leading zero omitted, Abs format (unit mm)*
G04 Created by KiCad (PCBNEW 9.0.6) date 2025-11-24 21:34:53*
%MOMM*%
%LPD*%
G01*
G04 APERTURE LIST*
G04 Aperture macros list*
%AMRoundRect*
0 Rectangle with rounded corners*
0 $1 Rounding radius*
0 $2 $3 $4 $5 $6 $7 $8 $9 X,Y pos of 4 corners*
0 Add a 4 corners polygon primitive as box body*
4,1,4,$2,$3,$4,$5,$6,$7,$8,$9,$2,$3,0*
0 Add four circle primitives for the rounded corners*
1,1,$1+$1,$2,$3*
1,1,$1+$1,$4,$5*
1,1,$1+$1,$6,$7*
1,1,$1+$1,$8,$9*
0 Add four rect primitives between the rounded corners*
20,1,$1+$1,$2,$3,$4,$5,0*
20,1,$1+$1,$4,$5,$6,$7,0*
20,1,$1+$1,$6,$7,$8,$9,0*
20,1,$1+$1,$8,$9,$2,$3,0*%
G04 Aperture macros list end*
%ADD10RoundRect,0.225000X0.225000X0.250000X-0.225000X0.250000X-0.225000X-0.250000X0.225000X-0.250000X0*%
%ADD11RoundRect,0.075000X-0.075000X0.737500X-0.075000X-0.737500X0.075000X-0.737500X0.075000X0.737500X0*%
%ADD12RoundRect,0.150000X-0.825000X-0.150000X0.825000X-0.150000X0.825000X0.150000X-0.825000X0.150000X0*%
%ADD13RoundRect,0.200000X-0.275000X0.200000X-0.275000X-0.200000X0.275000X-0.200000X0.275000X0.200000X0*%
%ADD14RoundRect,0.200000X0.275000X-0.200000X0.275000X0.200000X-0.275000X0.200000X-0.275000X-0.200000X0*%
%ADD15R,1.150000X0.300000*%
%ADD16RoundRect,0.250000X-0.475000X0.250000X-0.475000X-0.250000X0.475000X-0.250000X0.475000X0.250000X0*%
%ADD17RoundRect,0.250000X0.650000X-0.325000X0.650000X0.325000X-0.650000X0.325000X-0.650000X-0.325000X0*%
%ADD18RoundRect,0.225000X-0.250000X0.225000X-0.250000X-0.225000X0.250000X-0.225000X0.250000X0.225000X0*%
G04 APERTURE END LIST*
D10*
%TO.C,C3*%
X167225000Y-99350000D03*
X165675000Y-99350000D03*
%TD*%
D11*
%TO.C,U1*%
X158750000Y-99387500D03*
X158250000Y-99387500D03*
X157750000Y-99387500D03*
X157250000Y-99387500D03*
X156750000Y-99387500D03*
X156750000Y-103612500D03*
X157250000Y-103612500D03*
X157750000Y-103612500D03*
X158250000Y-103612500D03*
X158750000Y-103612500D03*
%TD*%
D12*
%TO.C,U2*%
X162405000Y-100965000D03*
X162405000Y-102235000D03*
X162405000Y-103505000D03*
X162405000Y-104775000D03*
X167355000Y-104775000D03*
X167355000Y-103505000D03*
X167355000Y-102235000D03*
X167355000Y-100965000D03*
%TD*%
D13*
%TO.C,R5*%
X169500000Y-105275000D03*
X169500000Y-106925000D03*
%TD*%
%TO.C,R4*%
X169500000Y-99275000D03*
X169500000Y-100925000D03*
%TD*%
D14*
%TO.C,R3*%
X169500000Y-103925000D03*
X169500000Y-102275000D03*
%TD*%
D13*
%TO.C,R2*%
X150368000Y-103525000D03*
X150368000Y-105175000D03*
%TD*%
D14*
%TO.C,R1*%
X150368000Y-99885000D03*
X150368000Y-98235000D03*
%TD*%
D15*
%TO.C,J1*%
X148450000Y-98250000D03*
X148450000Y-99050000D03*
X148450000Y-100350000D03*
X148450000Y-101350000D03*
X148450000Y-101850000D03*
X148450000Y-102850000D03*
X148450000Y-104150000D03*
X148450000Y-104950000D03*
X148450000Y-104650000D03*
X148450000Y-103850000D03*
X148450000Y-103350000D03*
X148450000Y-102350000D03*
X148450000Y-100850000D03*
X148450000Y-99850000D03*
X148450000Y-99350000D03*
X148450000Y-98550000D03*
%TD*%
D16*
%TO.C,C5*%
X152300000Y-102400000D03*
X152300000Y-104300000D03*
%TD*%
D17*
%TO.C,C4*%
X154450000Y-99375000D03*
X154450000Y-102325000D03*
%TD*%
D10*
%TO.C,C2*%
X155575000Y-105410000D03*
X154025000Y-105410000D03*
%TD*%
D18*
%TO.C,C1*%
X160250000Y-105550000D03*
X160250000Y-104000000D03*
%TD*%
M02*
