%TF.GenerationSoftware,KiCad,Pcbnew,9.0.6*%
%TF.CreationDate,2025-11-24T21:34:53-08:00*%
%TF.ProjectId,rs485_adapter,72733438-355f-4616-9461-707465722e6b,A*%
%TF.SameCoordinates,Original*%
%TF.FileFunction,Legend,Top*%
%TF.FilePolarity,Positive*%
%FSLAX46Y46*%
G04 Gerber Fmt 4.6, Leading zero omitted, Abs format (unit mm)*
G04 Created by KiCad (PCBNEW 9.0.6) date 2025-11-24 21:34:53*
%MOMM*%
%LPD*%
G01*
G04 APERTURE LIST*
%ADD10C,0.200000*%
%ADD11C,0.150000*%
%ADD12C,0.120000*%
G04 APERTURE END LIST*
D10*
X176594361Y-106288095D02*
X176689600Y-106383333D01*
X176689600Y-106383333D02*
X176784838Y-106669047D01*
X176784838Y-106669047D02*
X176784838Y-106859523D01*
X176784838Y-106859523D02*
X176689600Y-107145238D01*
X176689600Y-107145238D02*
X176499123Y-107335714D01*
X176499123Y-107335714D02*
X176308647Y-107430952D01*
X176308647Y-107430952D02*
X175927695Y-107526190D01*
X175927695Y-107526190D02*
X175641980Y-107526190D01*
X175641980Y-107526190D02*
X175261028Y-107430952D01*
X175261028Y-107430952D02*
X175070552Y-107335714D01*
X175070552Y-107335714D02*
X174880076Y-107145238D01*
X174880076Y-107145238D02*
X174784838Y-106859523D01*
X174784838Y-106859523D02*
X174784838Y-106669047D01*
X174784838Y-106669047D02*
X174880076Y-106383333D01*
X174880076Y-106383333D02*
X174975314Y-106288095D01*
X175737219Y-103240475D02*
X175832457Y-102954761D01*
X175832457Y-102954761D02*
X175927695Y-102859523D01*
X175927695Y-102859523D02*
X176118171Y-102764285D01*
X176118171Y-102764285D02*
X176403885Y-102764285D01*
X176403885Y-102764285D02*
X176594361Y-102859523D01*
X176594361Y-102859523D02*
X176689600Y-102954761D01*
X176689600Y-102954761D02*
X176784838Y-103145237D01*
X176784838Y-103145237D02*
X176784838Y-103907142D01*
X176784838Y-103907142D02*
X174784838Y-103907142D01*
X174784838Y-103907142D02*
X174784838Y-103240475D01*
X174784838Y-103240475D02*
X174880076Y-103049999D01*
X174880076Y-103049999D02*
X174975314Y-102954761D01*
X174975314Y-102954761D02*
X175165790Y-102859523D01*
X175165790Y-102859523D02*
X175356266Y-102859523D01*
X175356266Y-102859523D02*
X175546742Y-102954761D01*
X175546742Y-102954761D02*
X175641980Y-103049999D01*
X175641980Y-103049999D02*
X175737219Y-103240475D01*
X175737219Y-103240475D02*
X175737219Y-103907142D01*
X176022933Y-101907142D02*
X176022933Y-100383333D01*
X176784838Y-101145237D02*
X175261028Y-101145237D01*
X176213409Y-98002380D02*
X176213409Y-97049999D01*
X176784838Y-98192856D02*
X174784838Y-97526190D01*
X174784838Y-97526190D02*
X176784838Y-96859523D01*
X176022933Y-96192856D02*
X176022933Y-94669047D01*
D11*
X151654819Y-98211904D02*
X151654819Y-97640476D01*
X152654819Y-97926190D02*
X151654819Y-97926190D01*
X152654819Y-97307142D02*
X151654819Y-97307142D01*
X151654819Y-97307142D02*
X151654819Y-96926190D01*
X151654819Y-96926190D02*
X151702438Y-96830952D01*
X151702438Y-96830952D02*
X151750057Y-96783333D01*
X151750057Y-96783333D02*
X151845295Y-96735714D01*
X151845295Y-96735714D02*
X151988152Y-96735714D01*
X151988152Y-96735714D02*
X152083390Y-96783333D01*
X152083390Y-96783333D02*
X152131009Y-96830952D01*
X152131009Y-96830952D02*
X152178628Y-96926190D01*
X152178628Y-96926190D02*
X152178628Y-97307142D01*
X152654819Y-95783333D02*
X152654819Y-96354761D01*
X152654819Y-96069047D02*
X151654819Y-96069047D01*
X151654819Y-96069047D02*
X151797676Y-96164285D01*
X151797676Y-96164285D02*
X151892914Y-96259523D01*
X151892914Y-96259523D02*
X151940533Y-96354761D01*
X166283333Y-98459580D02*
X166235714Y-98507200D01*
X166235714Y-98507200D02*
X166092857Y-98554819D01*
X166092857Y-98554819D02*
X165997619Y-98554819D01*
X165997619Y-98554819D02*
X165854762Y-98507200D01*
X165854762Y-98507200D02*
X165759524Y-98411961D01*
X165759524Y-98411961D02*
X165711905Y-98316723D01*
X165711905Y-98316723D02*
X165664286Y-98126247D01*
X165664286Y-98126247D02*
X165664286Y-97983390D01*
X165664286Y-97983390D02*
X165711905Y-97792914D01*
X165711905Y-97792914D02*
X165759524Y-97697676D01*
X165759524Y-97697676D02*
X165854762Y-97602438D01*
X165854762Y-97602438D02*
X165997619Y-97554819D01*
X165997619Y-97554819D02*
X166092857Y-97554819D01*
X166092857Y-97554819D02*
X166235714Y-97602438D01*
X166235714Y-97602438D02*
X166283333Y-97650057D01*
X166616667Y-97554819D02*
X167235714Y-97554819D01*
X167235714Y-97554819D02*
X166902381Y-97935771D01*
X166902381Y-97935771D02*
X167045238Y-97935771D01*
X167045238Y-97935771D02*
X167140476Y-97983390D01*
X167140476Y-97983390D02*
X167188095Y-98031009D01*
X167188095Y-98031009D02*
X167235714Y-98126247D01*
X167235714Y-98126247D02*
X167235714Y-98364342D01*
X167235714Y-98364342D02*
X167188095Y-98459580D01*
X167188095Y-98459580D02*
X167140476Y-98507200D01*
X167140476Y-98507200D02*
X167045238Y-98554819D01*
X167045238Y-98554819D02*
X166759524Y-98554819D01*
X166759524Y-98554819D02*
X166664286Y-98507200D01*
X166664286Y-98507200D02*
X166616667Y-98459580D01*
X159654819Y-102261904D02*
X160464342Y-102261904D01*
X160464342Y-102261904D02*
X160559580Y-102214285D01*
X160559580Y-102214285D02*
X160607200Y-102166666D01*
X160607200Y-102166666D02*
X160654819Y-102071428D01*
X160654819Y-102071428D02*
X160654819Y-101880952D01*
X160654819Y-101880952D02*
X160607200Y-101785714D01*
X160607200Y-101785714D02*
X160559580Y-101738095D01*
X160559580Y-101738095D02*
X160464342Y-101690476D01*
X160464342Y-101690476D02*
X159654819Y-101690476D01*
X160654819Y-100690476D02*
X160654819Y-101261904D01*
X160654819Y-100976190D02*
X159654819Y-100976190D01*
X159654819Y-100976190D02*
X159797676Y-101071428D01*
X159797676Y-101071428D02*
X159892914Y-101166666D01*
X159892914Y-101166666D02*
X159940533Y-101261904D01*
X163188095Y-98924819D02*
X163188095Y-99734342D01*
X163188095Y-99734342D02*
X163235714Y-99829580D01*
X163235714Y-99829580D02*
X163283333Y-99877200D01*
X163283333Y-99877200D02*
X163378571Y-99924819D01*
X163378571Y-99924819D02*
X163569047Y-99924819D01*
X163569047Y-99924819D02*
X163664285Y-99877200D01*
X163664285Y-99877200D02*
X163711904Y-99829580D01*
X163711904Y-99829580D02*
X163759523Y-99734342D01*
X163759523Y-99734342D02*
X163759523Y-98924819D01*
X164188095Y-99020057D02*
X164235714Y-98972438D01*
X164235714Y-98972438D02*
X164330952Y-98924819D01*
X164330952Y-98924819D02*
X164569047Y-98924819D01*
X164569047Y-98924819D02*
X164664285Y-98972438D01*
X164664285Y-98972438D02*
X164711904Y-99020057D01*
X164711904Y-99020057D02*
X164759523Y-99115295D01*
X164759523Y-99115295D02*
X164759523Y-99210533D01*
X164759523Y-99210533D02*
X164711904Y-99353390D01*
X164711904Y-99353390D02*
X164140476Y-99924819D01*
X164140476Y-99924819D02*
X164759523Y-99924819D01*
X169904819Y-108516666D02*
X169428628Y-108849999D01*
X169904819Y-109088094D02*
X168904819Y-109088094D01*
X168904819Y-109088094D02*
X168904819Y-108707142D01*
X168904819Y-108707142D02*
X168952438Y-108611904D01*
X168952438Y-108611904D02*
X169000057Y-108564285D01*
X169000057Y-108564285D02*
X169095295Y-108516666D01*
X169095295Y-108516666D02*
X169238152Y-108516666D01*
X169238152Y-108516666D02*
X169333390Y-108564285D01*
X169333390Y-108564285D02*
X169381009Y-108611904D01*
X169381009Y-108611904D02*
X169428628Y-108707142D01*
X169428628Y-108707142D02*
X169428628Y-109088094D01*
X168904819Y-107611904D02*
X168904819Y-108088094D01*
X168904819Y-108088094D02*
X169381009Y-108135713D01*
X169381009Y-108135713D02*
X169333390Y-108088094D01*
X169333390Y-108088094D02*
X169285771Y-107992856D01*
X169285771Y-107992856D02*
X169285771Y-107754761D01*
X169285771Y-107754761D02*
X169333390Y-107659523D01*
X169333390Y-107659523D02*
X169381009Y-107611904D01*
X169381009Y-107611904D02*
X169476247Y-107564285D01*
X169476247Y-107564285D02*
X169714342Y-107564285D01*
X169714342Y-107564285D02*
X169809580Y-107611904D01*
X169809580Y-107611904D02*
X169857200Y-107659523D01*
X169857200Y-107659523D02*
X169904819Y-107754761D01*
X169904819Y-107754761D02*
X169904819Y-107992856D01*
X169904819Y-107992856D02*
X169857200Y-108088094D01*
X169857200Y-108088094D02*
X169809580Y-108135713D01*
X169904819Y-98016666D02*
X169428628Y-98349999D01*
X169904819Y-98588094D02*
X168904819Y-98588094D01*
X168904819Y-98588094D02*
X168904819Y-98207142D01*
X168904819Y-98207142D02*
X168952438Y-98111904D01*
X168952438Y-98111904D02*
X169000057Y-98064285D01*
X169000057Y-98064285D02*
X169095295Y-98016666D01*
X169095295Y-98016666D02*
X169238152Y-98016666D01*
X169238152Y-98016666D02*
X169333390Y-98064285D01*
X169333390Y-98064285D02*
X169381009Y-98111904D01*
X169381009Y-98111904D02*
X169428628Y-98207142D01*
X169428628Y-98207142D02*
X169428628Y-98588094D01*
X169238152Y-97159523D02*
X169904819Y-97159523D01*
X168857200Y-97397618D02*
X169571485Y-97635713D01*
X169571485Y-97635713D02*
X169571485Y-97016666D01*
X171404819Y-103766666D02*
X170928628Y-104099999D01*
X171404819Y-104338094D02*
X170404819Y-104338094D01*
X170404819Y-104338094D02*
X170404819Y-103957142D01*
X170404819Y-103957142D02*
X170452438Y-103861904D01*
X170452438Y-103861904D02*
X170500057Y-103814285D01*
X170500057Y-103814285D02*
X170595295Y-103766666D01*
X170595295Y-103766666D02*
X170738152Y-103766666D01*
X170738152Y-103766666D02*
X170833390Y-103814285D01*
X170833390Y-103814285D02*
X170881009Y-103861904D01*
X170881009Y-103861904D02*
X170928628Y-103957142D01*
X170928628Y-103957142D02*
X170928628Y-104338094D01*
X170404819Y-103433332D02*
X170404819Y-102814285D01*
X170404819Y-102814285D02*
X170785771Y-103147618D01*
X170785771Y-103147618D02*
X170785771Y-103004761D01*
X170785771Y-103004761D02*
X170833390Y-102909523D01*
X170833390Y-102909523D02*
X170881009Y-102861904D01*
X170881009Y-102861904D02*
X170976247Y-102814285D01*
X170976247Y-102814285D02*
X171214342Y-102814285D01*
X171214342Y-102814285D02*
X171309580Y-102861904D01*
X171309580Y-102861904D02*
X171357200Y-102909523D01*
X171357200Y-102909523D02*
X171404819Y-103004761D01*
X171404819Y-103004761D02*
X171404819Y-103290475D01*
X171404819Y-103290475D02*
X171357200Y-103385713D01*
X171357200Y-103385713D02*
X171309580Y-103433332D01*
X150904819Y-107016666D02*
X150428628Y-107349999D01*
X150904819Y-107588094D02*
X149904819Y-107588094D01*
X149904819Y-107588094D02*
X149904819Y-107207142D01*
X149904819Y-107207142D02*
X149952438Y-107111904D01*
X149952438Y-107111904D02*
X150000057Y-107064285D01*
X150000057Y-107064285D02*
X150095295Y-107016666D01*
X150095295Y-107016666D02*
X150238152Y-107016666D01*
X150238152Y-107016666D02*
X150333390Y-107064285D01*
X150333390Y-107064285D02*
X150381009Y-107111904D01*
X150381009Y-107111904D02*
X150428628Y-107207142D01*
X150428628Y-107207142D02*
X150428628Y-107588094D01*
X150000057Y-106635713D02*
X149952438Y-106588094D01*
X149952438Y-106588094D02*
X149904819Y-106492856D01*
X149904819Y-106492856D02*
X149904819Y-106254761D01*
X149904819Y-106254761D02*
X149952438Y-106159523D01*
X149952438Y-106159523D02*
X150000057Y-106111904D01*
X150000057Y-106111904D02*
X150095295Y-106064285D01*
X150095295Y-106064285D02*
X150190533Y-106064285D01*
X150190533Y-106064285D02*
X150333390Y-106111904D01*
X150333390Y-106111904D02*
X150904819Y-106683332D01*
X150904819Y-106683332D02*
X150904819Y-106064285D01*
X150904819Y-96516666D02*
X150428628Y-96849999D01*
X150904819Y-97088094D02*
X149904819Y-97088094D01*
X149904819Y-97088094D02*
X149904819Y-96707142D01*
X149904819Y-96707142D02*
X149952438Y-96611904D01*
X149952438Y-96611904D02*
X150000057Y-96564285D01*
X150000057Y-96564285D02*
X150095295Y-96516666D01*
X150095295Y-96516666D02*
X150238152Y-96516666D01*
X150238152Y-96516666D02*
X150333390Y-96564285D01*
X150333390Y-96564285D02*
X150381009Y-96611904D01*
X150381009Y-96611904D02*
X150428628Y-96707142D01*
X150428628Y-96707142D02*
X150428628Y-97088094D01*
X150904819Y-95564285D02*
X150904819Y-96135713D01*
X150904819Y-95849999D02*
X149904819Y-95849999D01*
X149904819Y-95849999D02*
X150047676Y-95945237D01*
X150047676Y-95945237D02*
X150142914Y-96040475D01*
X150142914Y-96040475D02*
X150190533Y-96135713D01*
X149949819Y-101933333D02*
X150664104Y-101933333D01*
X150664104Y-101933333D02*
X150806961Y-101980952D01*
X150806961Y-101980952D02*
X150902200Y-102076190D01*
X150902200Y-102076190D02*
X150949819Y-102219047D01*
X150949819Y-102219047D02*
X150949819Y-102314285D01*
X150949819Y-100933333D02*
X150949819Y-101504761D01*
X150949819Y-101219047D02*
X149949819Y-101219047D01*
X149949819Y-101219047D02*
X150092676Y-101314285D01*
X150092676Y-101314285D02*
X150187914Y-101409523D01*
X150187914Y-101409523D02*
X150235533Y-101504761D01*
X152559580Y-106266666D02*
X152607200Y-106314285D01*
X152607200Y-106314285D02*
X152654819Y-106457142D01*
X152654819Y-106457142D02*
X152654819Y-106552380D01*
X152654819Y-106552380D02*
X152607200Y-106695237D01*
X152607200Y-106695237D02*
X152511961Y-106790475D01*
X152511961Y-106790475D02*
X152416723Y-106838094D01*
X152416723Y-106838094D02*
X152226247Y-106885713D01*
X152226247Y-106885713D02*
X152083390Y-106885713D01*
X152083390Y-106885713D02*
X151892914Y-106838094D01*
X151892914Y-106838094D02*
X151797676Y-106790475D01*
X151797676Y-106790475D02*
X151702438Y-106695237D01*
X151702438Y-106695237D02*
X151654819Y-106552380D01*
X151654819Y-106552380D02*
X151654819Y-106457142D01*
X151654819Y-106457142D02*
X151702438Y-106314285D01*
X151702438Y-106314285D02*
X151750057Y-106266666D01*
X151654819Y-105361904D02*
X151654819Y-105838094D01*
X151654819Y-105838094D02*
X152131009Y-105885713D01*
X152131009Y-105885713D02*
X152083390Y-105838094D01*
X152083390Y-105838094D02*
X152035771Y-105742856D01*
X152035771Y-105742856D02*
X152035771Y-105504761D01*
X152035771Y-105504761D02*
X152083390Y-105409523D01*
X152083390Y-105409523D02*
X152131009Y-105361904D01*
X152131009Y-105361904D02*
X152226247Y-105314285D01*
X152226247Y-105314285D02*
X152464342Y-105314285D01*
X152464342Y-105314285D02*
X152559580Y-105361904D01*
X152559580Y-105361904D02*
X152607200Y-105409523D01*
X152607200Y-105409523D02*
X152654819Y-105504761D01*
X152654819Y-105504761D02*
X152654819Y-105742856D01*
X152654819Y-105742856D02*
X152607200Y-105838094D01*
X152607200Y-105838094D02*
X152559580Y-105885713D01*
X154809580Y-97766666D02*
X154857200Y-97814285D01*
X154857200Y-97814285D02*
X154904819Y-97957142D01*
X154904819Y-97957142D02*
X154904819Y-98052380D01*
X154904819Y-98052380D02*
X154857200Y-98195237D01*
X154857200Y-98195237D02*
X154761961Y-98290475D01*
X154761961Y-98290475D02*
X154666723Y-98338094D01*
X154666723Y-98338094D02*
X154476247Y-98385713D01*
X154476247Y-98385713D02*
X154333390Y-98385713D01*
X154333390Y-98385713D02*
X154142914Y-98338094D01*
X154142914Y-98338094D02*
X154047676Y-98290475D01*
X154047676Y-98290475D02*
X153952438Y-98195237D01*
X153952438Y-98195237D02*
X153904819Y-98052380D01*
X153904819Y-98052380D02*
X153904819Y-97957142D01*
X153904819Y-97957142D02*
X153952438Y-97814285D01*
X153952438Y-97814285D02*
X154000057Y-97766666D01*
X154238152Y-96909523D02*
X154904819Y-96909523D01*
X153857200Y-97147618D02*
X154571485Y-97385713D01*
X154571485Y-97385713D02*
X154571485Y-96766666D01*
X154633333Y-107199580D02*
X154585714Y-107247200D01*
X154585714Y-107247200D02*
X154442857Y-107294819D01*
X154442857Y-107294819D02*
X154347619Y-107294819D01*
X154347619Y-107294819D02*
X154204762Y-107247200D01*
X154204762Y-107247200D02*
X154109524Y-107151961D01*
X154109524Y-107151961D02*
X154061905Y-107056723D01*
X154061905Y-107056723D02*
X154014286Y-106866247D01*
X154014286Y-106866247D02*
X154014286Y-106723390D01*
X154014286Y-106723390D02*
X154061905Y-106532914D01*
X154061905Y-106532914D02*
X154109524Y-106437676D01*
X154109524Y-106437676D02*
X154204762Y-106342438D01*
X154204762Y-106342438D02*
X154347619Y-106294819D01*
X154347619Y-106294819D02*
X154442857Y-106294819D01*
X154442857Y-106294819D02*
X154585714Y-106342438D01*
X154585714Y-106342438D02*
X154633333Y-106390057D01*
X155014286Y-106390057D02*
X155061905Y-106342438D01*
X155061905Y-106342438D02*
X155157143Y-106294819D01*
X155157143Y-106294819D02*
X155395238Y-106294819D01*
X155395238Y-106294819D02*
X155490476Y-106342438D01*
X155490476Y-106342438D02*
X155538095Y-106390057D01*
X155538095Y-106390057D02*
X155585714Y-106485295D01*
X155585714Y-106485295D02*
X155585714Y-106580533D01*
X155585714Y-106580533D02*
X155538095Y-106723390D01*
X155538095Y-106723390D02*
X154966667Y-107294819D01*
X154966667Y-107294819D02*
X155585714Y-107294819D01*
X160559580Y-107266666D02*
X160607200Y-107314285D01*
X160607200Y-107314285D02*
X160654819Y-107457142D01*
X160654819Y-107457142D02*
X160654819Y-107552380D01*
X160654819Y-107552380D02*
X160607200Y-107695237D01*
X160607200Y-107695237D02*
X160511961Y-107790475D01*
X160511961Y-107790475D02*
X160416723Y-107838094D01*
X160416723Y-107838094D02*
X160226247Y-107885713D01*
X160226247Y-107885713D02*
X160083390Y-107885713D01*
X160083390Y-107885713D02*
X159892914Y-107838094D01*
X159892914Y-107838094D02*
X159797676Y-107790475D01*
X159797676Y-107790475D02*
X159702438Y-107695237D01*
X159702438Y-107695237D02*
X159654819Y-107552380D01*
X159654819Y-107552380D02*
X159654819Y-107457142D01*
X159654819Y-107457142D02*
X159702438Y-107314285D01*
X159702438Y-107314285D02*
X159750057Y-107266666D01*
X160654819Y-106314285D02*
X160654819Y-106885713D01*
X160654819Y-106599999D02*
X159654819Y-106599999D01*
X159654819Y-106599999D02*
X159797676Y-106695237D01*
X159797676Y-106695237D02*
X159892914Y-106790475D01*
X159892914Y-106790475D02*
X159940533Y-106885713D01*
D12*
%TO.C,TP1*%
X151500000Y-98400000D02*
X152900000Y-98400000D01*
X151500000Y-99800000D02*
X151500000Y-98400000D01*
X152900000Y-98400000D02*
X152900000Y-99800000D01*
X152900000Y-99800000D02*
X151500000Y-99800000D01*
%TO.C,C3*%
X166590580Y-99860000D02*
X166309420Y-99860000D01*
X166590580Y-98840000D02*
X166309420Y-98840000D01*
%TO.C,U1*%
X159360000Y-99890000D02*
X159360000Y-103110000D01*
X159185000Y-99890000D02*
X159360000Y-99890000D01*
X156140000Y-99890000D02*
X156315000Y-99890000D01*
X159360000Y-103110000D02*
X159185000Y-103110000D01*
X156315000Y-103110000D02*
X156140000Y-103110000D01*
X156140000Y-103110000D02*
X156140000Y-99890000D01*
X159520000Y-99580000D02*
X159190000Y-99340000D01*
X159520000Y-99100000D01*
X159520000Y-99580000D01*
G36*
X159520000Y-99580000D02*
G01*
X159190000Y-99340000D01*
X159520000Y-99100000D01*
X159520000Y-99580000D01*
G37*
%TO.C,U2*%
X162820000Y-100310000D02*
X166940000Y-100310000D01*
X162820000Y-100405000D02*
X162820000Y-100310000D01*
X162820000Y-105430000D02*
X162820000Y-105335000D01*
X166940000Y-100310000D02*
X166940000Y-100405000D01*
X166940000Y-105335000D02*
X166940000Y-105430000D01*
X166940000Y-105430000D02*
X162820000Y-105430000D01*
X162280000Y-100400000D02*
X162040000Y-100070000D01*
X162520000Y-100070000D01*
X162280000Y-100400000D01*
G36*
X162280000Y-100400000D02*
G01*
X162040000Y-100070000D01*
X162520000Y-100070000D01*
X162280000Y-100400000D01*
G37*
%TO.C,R5*%
X170022500Y-105862742D02*
X170022500Y-106337258D01*
X168977500Y-105862742D02*
X168977500Y-106337258D01*
%TO.C,R4*%
X170022500Y-99862742D02*
X170022500Y-100337258D01*
X168977500Y-99862742D02*
X168977500Y-100337258D01*
%TO.C,R3*%
X168977500Y-103337258D02*
X168977500Y-102862742D01*
X170022500Y-103337258D02*
X170022500Y-102862742D01*
%TO.C,R2*%
X150890500Y-104112742D02*
X150890500Y-104587258D01*
X149845500Y-104112742D02*
X149845500Y-104587258D01*
%TO.C,R1*%
X149845500Y-99297258D02*
X149845500Y-98822742D01*
X150890500Y-99297258D02*
X150890500Y-98822742D01*
%TO.C,J1*%
X146630000Y-97020000D02*
X144710000Y-97020000D01*
X140995000Y-97020000D02*
X142700000Y-97020000D01*
X144710000Y-106180000D02*
X146630000Y-106180000D01*
X142700000Y-106180000D02*
X140995000Y-106180000D01*
X140995000Y-106180000D02*
X140995000Y-97020000D01*
%TO.C,C5*%
X153035000Y-103088748D02*
X153035000Y-103611252D01*
X151565000Y-103088748D02*
X151565000Y-103611252D01*
%TO.C,C4*%
X155360000Y-101561252D02*
X155360000Y-100138748D01*
X153540000Y-101561252D02*
X153540000Y-100138748D01*
%TO.C,C2*%
X154940580Y-105920000D02*
X154659420Y-105920000D01*
X154940580Y-104900000D02*
X154659420Y-104900000D01*
%TO.C,C1*%
X159740000Y-104634420D02*
X159740000Y-104915580D01*
X160760000Y-104634420D02*
X160760000Y-104915580D01*
%TD*%
M02*
