<?xml version="1.0" standalone="no"?>
 <!DOCTYPE svg PUBLIC "-//W3C//DTD SVG 1.1//EN" 
 "http://www.w3.org/Graphics/SVG/1.1/DTD/svg11.dtd"> 
<svg
  xmlns:svg="http://www.w3.org/2000/svg"
  xmlns="http://www.w3.org/2000/svg"
  xmlns:xlink="http://www.w3.org/1999/xlink"
  version="1.1"
  width="297.0022mm" height="210.0072mm" viewBox="0.0000 0.0000 297.0022 210.0072">
<title>SVG Image created as ch422_demo-NPTH-drl_map.svg date 2023/11/15 02:00:43 </title>
  <desc>Image generated by PCBNEW </desc>
<g style="fill:#000000; fill-opacity:1.0000;stroke:#000000; stroke-opacity:1.0000;
stroke-linecap:round; stroke-linejoin:round;"
 transform="translate(0 0) scale(1 1)">
</g>
<g style="fill:#000000; fill-opacity:0.0; 
stroke:#000000; stroke-width:0.0000; stroke-opacity:1; 
stroke-linecap:round; stroke-linejoin:round;">
</g>
<g style="fill:#000000; fill-opacity:0.0; 
stroke:#000000; stroke-width:0.3000; stroke-opacity:1; 
stroke-linecap:round; stroke-linejoin:round;">
<path style="fill:#000000; fill-opacity:0.0; 
stroke:#000000; stroke-width:0.3000; stroke-opacity:1; 
stroke-linecap:round; stroke-linejoin:round;fill:none"
d="M 96.0011,24.0022
201.0011,24.0022
201.0011,102.0022
96.0011,102.0022
Z" /> 
</g>
<g style="fill:#000000; fill-opacity:0.0; 
stroke:#000000; stroke-width:0.6000; stroke-opacity:1; 
stroke-linecap:round; stroke-linejoin:round;">
</g>
<g style="fill:#000000; fill-opacity:0.0; 
stroke:#000000; stroke-width:0.2000; stroke-opacity:1; 
stroke-linecap:round; stroke-linejoin:round;">
<text x="97.8511" y="105.3522"
textLength="14.8667" font-size="2.6667" lengthAdjust="spacingAndGlyphs"
text-anchor="start" opacity="0">Drill Map:</text>
<g class="stroked-text"><desc>Drill Map:</desc>
<path d="M98.4589 105.2670
L98.4589 103.2670
" />
<path d="M98.4589 103.2670
L98.9351 103.2670
" />
<path d="M98.9351 103.2670
L99.2208 103.3622
" />
<path d="M99.2208 103.3622
L99.4112 103.5527
" />
<path d="M99.4112 103.5527
L99.5065 103.7432
" />
<path d="M99.5065 103.7432
L99.6017 104.1241
" />
<path d="M99.6017 104.1241
L99.6017 104.4099
" />
<path d="M99.6017 104.4099
L99.5065 104.7908
" />
<path d="M99.5065 104.7908
L99.4112 104.9813
" />
<path d="M99.4112 104.9813
L99.2208 105.1718
" />
<path d="M99.2208 105.1718
L98.9351 105.2670
" />
<path d="M98.9351 105.2670
L98.4589 105.2670
" />
<path d="M100.4589 105.2670
L100.4589 103.9337
" />
<path d="M100.4589 104.3146
L100.5541 104.1241
" />
<path d="M100.5541 104.1241
L100.6493 104.0289
" />
<path d="M100.6493 104.0289
L100.8398 103.9337
" />
<path d="M100.8398 103.9337
L101.0303 103.9337
" />
<path d="M101.6970 105.2670
L101.6970 103.9337
" />
<path d="M101.6970 103.2670
L101.6017 103.3622
" />
<path d="M101.6017 103.3622
L101.6970 103.4575
" />
<path d="M101.6970 103.4575
L101.7922 103.3622
" />
<path d="M101.7922 103.3622
L101.6970 103.2670
" />
<path d="M101.6970 103.2670
L101.6970 103.4575
" />
<path d="M102.9351 105.2670
L102.7446 105.1718
" />
<path d="M102.7446 105.1718
L102.6493 104.9813
" />
<path d="M102.6493 104.9813
L102.6493 103.2670
" />
<path d="M103.9827 105.2670
L103.7922 105.1718
" />
<path d="M103.7922 105.1718
L103.6970 104.9813
" />
<path d="M103.6970 104.9813
L103.6970 103.2670
" />
<path d="M106.2684 105.2670
L106.2684 103.2670
" />
<path d="M106.2684 103.2670
L106.9351 104.6956
" />
<path d="M106.9351 104.6956
L107.6017 103.2670
" />
<path d="M107.6017 103.2670
L107.6017 105.2670
" />
<path d="M109.4113 105.2670
L109.4113 104.2194
" />
<path d="M109.4113 104.2194
L109.3160 104.0289
" />
<path d="M109.3160 104.0289
L109.1255 103.9337
" />
<path d="M109.1255 103.9337
L108.7446 103.9337
" />
<path d="M108.7446 103.9337
L108.5541 104.0289
" />
<path d="M109.4113 105.1718
L109.2208 105.2670
" />
<path d="M109.2208 105.2670
L108.7446 105.2670
" />
<path d="M108.7446 105.2670
L108.5541 105.1718
" />
<path d="M108.5541 105.1718
L108.4589 104.9813
" />
<path d="M108.4589 104.9813
L108.4589 104.7908
" />
<path d="M108.4589 104.7908
L108.5541 104.6003
" />
<path d="M108.5541 104.6003
L108.7446 104.5051
" />
<path d="M108.7446 104.5051
L109.2208 104.5051
" />
<path d="M109.2208 104.5051
L109.4113 104.4099
" />
<path d="M110.3636 103.9337
L110.3636 105.9337
" />
<path d="M110.3636 104.0289
L110.5541 103.9337
" />
<path d="M110.5541 103.9337
L110.9351 103.9337
" />
<path d="M110.9351 103.9337
L111.1255 104.0289
" />
<path d="M111.1255 104.0289
L111.2208 104.1241
" />
<path d="M111.2208 104.1241
L111.3160 104.3146
" />
<path d="M111.3160 104.3146
L111.3160 104.8860
" />
<path d="M111.3160 104.8860
L111.2208 105.0765
" />
<path d="M111.2208 105.0765
L111.1255 105.1718
" />
<path d="M111.1255 105.1718
L110.9351 105.2670
" />
<path d="M110.9351 105.2670
L110.5541 105.2670
" />
<path d="M110.5541 105.2670
L110.3636 105.1718
" />
<path d="M112.1732 105.0765
L112.2684 105.1718
" />
<path d="M112.2684 105.1718
L112.1732 105.2670
" />
<path d="M112.1732 105.2670
L112.0779 105.1718
" />
<path d="M112.0779 105.1718
L112.1732 105.0765
" />
<path d="M112.1732 105.0765
L112.1732 105.2670
" />
<path d="M112.1732 104.0289
L112.2684 104.1241
" />
<path d="M112.2684 104.1241
L112.1732 104.2194
" />
<path d="M112.1732 104.2194
L112.0779 104.1241
" />
<path d="M112.0779 104.1241
L112.1732 104.0289
" />
<path d="M112.1732 104.0289
L112.1732 104.2194
" />
</g></g> 
</svg>
