%TF.GenerationSoftware,KiCad,Pcbnew,7.0.6*%
%TF.CreationDate,2023-11-15T02:00:31-08:00*%
%TF.ProjectId,ch422_demo,63683432-325f-4646-956d-6f2e6b696361,rev?*%
%TF.SameCoordinates,PX20015c0PY103b460*%
%TF.FileFunction,Copper,L2,Bot*%
%TF.FilePolarity,Positive*%
%FSLAX46Y46*%
G04 Gerber Fmt 4.6, Leading zero omitted, Abs format (unit mm)*
G04 Created by KiCad (PCBNEW 7.0.6) date 2023-11-15 02:00:31*
%MOMM*%
%LPD*%
G01*
G04 APERTURE LIST*
G04 Aperture macros list*
%AMRoundRect*
0 Rectangle with rounded corners*
0 $1 Rounding radius*
0 $2 $3 $4 $5 $6 $7 $8 $9 X,Y pos of 4 corners*
0 Add a 4 corners polygon primitive as box body*
4,1,4,$2,$3,$4,$5,$6,$7,$8,$9,$2,$3,0*
0 Add four circle primitives for the rounded corners*
1,1,$1+$1,$2,$3*
1,1,$1+$1,$4,$5*
1,1,$1+$1,$6,$7*
1,1,$1+$1,$8,$9*
0 Add four rect primitives between the rounded corners*
20,1,$1+$1,$2,$3,$4,$5,0*
20,1,$1+$1,$4,$5,$6,$7,0*
20,1,$1+$1,$6,$7,$8,$9,0*
20,1,$1+$1,$8,$9,$2,$3,0*%
G04 Aperture macros list end*
%TA.AperFunction,ComponentPad*%
%ADD10R,1.800000X1.800000*%
%TD*%
%TA.AperFunction,ComponentPad*%
%ADD11C,1.800000*%
%TD*%
%TA.AperFunction,ComponentPad*%
%ADD12R,1.600000X1.600000*%
%TD*%
%TA.AperFunction,ComponentPad*%
%ADD13O,1.600000X1.600000*%
%TD*%
%TA.AperFunction,ComponentPad*%
%ADD14R,1.700000X1.700000*%
%TD*%
%TA.AperFunction,ComponentPad*%
%ADD15O,1.700000X1.700000*%
%TD*%
%TA.AperFunction,SMDPad,CuDef*%
%ADD16RoundRect,0.200000X-0.200000X-0.275000X0.200000X-0.275000X0.200000X0.275000X-0.200000X0.275000X0*%
%TD*%
%TA.AperFunction,SMDPad,CuDef*%
%ADD17RoundRect,0.150000X-0.725000X-0.150000X0.725000X-0.150000X0.725000X0.150000X-0.725000X0.150000X0*%
%TD*%
%TA.AperFunction,SMDPad,CuDef*%
%ADD18RoundRect,0.200000X0.275000X-0.200000X0.275000X0.200000X-0.275000X0.200000X-0.275000X-0.200000X0*%
%TD*%
%TA.AperFunction,SMDPad,CuDef*%
%ADD19RoundRect,0.225000X0.250000X-0.225000X0.250000X0.225000X-0.250000X0.225000X-0.250000X-0.225000X0*%
%TD*%
%TA.AperFunction,SMDPad,CuDef*%
%ADD20RoundRect,0.250000X0.475000X-0.250000X0.475000X0.250000X-0.475000X0.250000X-0.475000X-0.250000X0*%
%TD*%
%TA.AperFunction,Conductor*%
%ADD21C,0.250000*%
%TD*%
%TA.AperFunction,Conductor*%
%ADD22C,0.500000*%
%TD*%
%TA.AperFunction,Conductor*%
%ADD23C,0.300000*%
%TD*%
%TA.AperFunction,Conductor*%
%ADD24C,1.000000*%
%TD*%
%TA.AperFunction,Conductor*%
%ADD25C,0.700000*%
%TD*%
%TA.AperFunction,Conductor*%
%ADD26C,0.600000*%
%TD*%
G04 APERTURE END LIST*
D10*
%TO.P,D2,1,K*%
%TO.N,GND*%
X17240000Y-11428000D03*
D11*
%TO.P,D2,2,A*%
%TO.N,Net-(D1-K)*%
X17240000Y-8888000D03*
%TD*%
D12*
%TO.P,J2,1,Pin_1*%
%TO.N,/SEG_L_4*%
X2000000Y-11428000D03*
D13*
%TO.P,J2,2,Pin_2*%
%TO.N,/SEG_L_3*%
X4540000Y-11428000D03*
%TO.P,J2,3,Pin_3*%
%TO.N,/SEG_L_2*%
X7080000Y-11428000D03*
%TO.P,J2,4,Pin_4*%
%TO.N,/SEG_L_6*%
X9620000Y-11428000D03*
%TO.P,J2,5,Pin_5*%
%TO.N,/SEG_L_7*%
X12160000Y-11428000D03*
%TO.P,J2,6,Pin_6*%
%TO.N,/DIG_1*%
X12160000Y-3808000D03*
%TO.P,J2,7,Pin_7*%
%TO.N,/SEG_L_0*%
X9620000Y-3808000D03*
%TO.P,J2,8,Pin_8*%
%TO.N,/SEG_L_1*%
X7080000Y-3808000D03*
%TO.P,J2,9,Pin_9*%
%TO.N,/DIG_0*%
X4540000Y-3808000D03*
%TO.P,J2,10,Pin_10*%
%TO.N,/SEG_L_5*%
X2000000Y-3808000D03*
%TD*%
D14*
%TO.P,J4,1,Pin_1*%
%TO.N,GND*%
X2000000Y-16508000D03*
D15*
%TO.P,J4,2,Pin_2*%
%TO.N,/SCL*%
X2000000Y-19048000D03*
%TO.P,J4,3,Pin_3*%
%TO.N,/SDA*%
X2000000Y-21588000D03*
%TO.P,J4,4,Pin_4*%
%TO.N,VCC*%
X2000000Y-24128000D03*
%TD*%
D12*
%TO.P,J3,1,Pin_1*%
%TO.N,/SEG_L_4*%
X22320000Y-11428000D03*
D13*
%TO.P,J3,2,Pin_2*%
%TO.N,/SEG_L_3*%
X24860000Y-11428000D03*
%TO.P,J3,3,Pin_3*%
%TO.N,/SEG_L_2*%
X27400000Y-11428000D03*
%TO.P,J3,4,Pin_4*%
%TO.N,/SEG_L_6*%
X29940000Y-11428000D03*
%TO.P,J3,5,Pin_5*%
%TO.N,/SEG_L_7*%
X32480000Y-11428000D03*
%TO.P,J3,6,Pin_6*%
%TO.N,/DIG_3*%
X32480000Y-3808000D03*
%TO.P,J3,7,Pin_7*%
%TO.N,/SEG_L_0*%
X29940000Y-3808000D03*
%TO.P,J3,8,Pin_8*%
%TO.N,/SEG_L_1*%
X27400000Y-3808000D03*
%TO.P,J3,9,Pin_9*%
%TO.N,/DIG_2*%
X24860000Y-3808000D03*
%TO.P,J3,10,Pin_10*%
%TO.N,/SEG_L_5*%
X22320000Y-3808000D03*
%TD*%
D10*
%TO.P,D1,1,K*%
%TO.N,Net-(D1-K)*%
X17240000Y-6348000D03*
D11*
%TO.P,D1,2,A*%
%TO.N,Net-(D1-A)*%
X17240000Y-3808000D03*
%TD*%
D16*
%TO.P,R7,1*%
%TO.N,/SEG_6*%
X21749000Y-21054853D03*
%TO.P,R7,2*%
%TO.N,/SEG_L_6*%
X23399000Y-21054853D03*
%TD*%
D17*
%TO.P,J1,1,Pin_1*%
%TO.N,/SEG_4*%
X14665000Y-23620000D03*
%TO.P,J1,2,Pin_2*%
%TO.N,/SEG_5*%
X14665000Y-22350000D03*
%TO.P,J1,3,Pin_3*%
%TO.N,/SEG_6*%
X14665000Y-21080000D03*
%TO.P,J1,4,Pin_4*%
%TO.N,/SEG_7*%
X14665000Y-19810000D03*
%TO.P,J1,5,Pin_5*%
%TO.N,/SCL*%
X14665000Y-18540000D03*
%TO.P,J1,6,Pin_6*%
%TO.N,/SDA*%
X14665000Y-17270000D03*
%TO.P,J1,7,Pin_7*%
%TO.N,GND*%
X14665000Y-16000000D03*
%TO.P,J1,8,Pin_8*%
%TO.N,/DIG_0*%
X14665000Y-14730000D03*
%TO.P,J1,9,Pin_9*%
%TO.N,/DIG_1*%
X19815000Y-14730000D03*
%TO.P,J1,10,Pin_10*%
%TO.N,/DIG_2*%
X19815000Y-16000000D03*
%TO.P,J1,11,Pin_11*%
%TO.N,/DIG_3*%
X19815000Y-17270000D03*
%TO.P,J1,12,Pin_12*%
%TO.N,/SEG_0*%
X19815000Y-18540000D03*
%TO.P,J1,13,Pin_13*%
%TO.N,/SEG_1*%
X19815000Y-19810000D03*
%TO.P,J1,14,Pin_14*%
%TO.N,VCC*%
X19815000Y-21080000D03*
%TO.P,J1,15,Pin_15*%
%TO.N,/SEG_2*%
X19815000Y-22350000D03*
%TO.P,J1,16,Pin_16*%
%TO.N,/SEG_3*%
X19815000Y-23620000D03*
%TD*%
D18*
%TO.P,R11,1*%
%TO.N,VCC*%
X15208000Y-5458000D03*
%TO.P,R11,2*%
%TO.N,Net-(D1-A)*%
X15208000Y-3808000D03*
%TD*%
D16*
%TO.P,R6,1*%
%TO.N,/SEG_5*%
X24797000Y-23848853D03*
%TO.P,R6,2*%
%TO.N,/SEG_L_5*%
X26447000Y-23848853D03*
%TD*%
D18*
%TO.P,R5,1*%
%TO.N,/SEG_4*%
X12541000Y-22540000D03*
%TO.P,R5,2*%
%TO.N,/SEG_L_4*%
X12541000Y-20890000D03*
%TD*%
D19*
%TO.P,C1,1*%
%TO.N,VCC*%
X9493000Y-20305853D03*
%TO.P,C1,2*%
%TO.N,GND*%
X9493000Y-18755853D03*
%TD*%
D16*
%TO.P,R2,1*%
%TO.N,/SEG_1*%
X24797000Y-19784853D03*
%TO.P,R2,2*%
%TO.N,/SEG_L_1*%
X26447000Y-19784853D03*
%TD*%
D20*
%TO.P,C2,1*%
%TO.N,VCC*%
X7715000Y-20607853D03*
%TO.P,C2,2*%
%TO.N,GND*%
X7715000Y-18707853D03*
%TD*%
D16*
%TO.P,R1,1*%
%TO.N,/SEG_0*%
X21749000Y-18514853D03*
%TO.P,R1,2*%
%TO.N,/SEG_L_0*%
X23399000Y-18514853D03*
%TD*%
%TO.P,R4,1*%
%TO.N,/SEG_3*%
X22638000Y-16762000D03*
%TO.P,R4,2*%
%TO.N,/SEG_L_3*%
X24288000Y-16762000D03*
%TD*%
%TO.P,R8,1*%
%TO.N,/SEG_7*%
X24797000Y-18260853D03*
%TO.P,R8,2*%
%TO.N,/SEG_L_7*%
X26447000Y-18260853D03*
%TD*%
D18*
%TO.P,R10,1*%
%TO.N,VCC*%
X4413000Y-23366000D03*
%TO.P,R10,2*%
%TO.N,/SCL*%
X4413000Y-21716000D03*
%TD*%
%TO.P,R9,1*%
%TO.N,VCC*%
X5937000Y-23366000D03*
%TO.P,R9,2*%
%TO.N,/SDA*%
X5937000Y-21716000D03*
%TD*%
D16*
%TO.P,R3,1*%
%TO.N,/SEG_2*%
X24797000Y-22324853D03*
%TO.P,R3,2*%
%TO.N,/SEG_L_2*%
X26447000Y-22324853D03*
%TD*%
D21*
%TO.N,/SEG_L_1*%
X7080000Y-3808000D02*
X9358800Y-1529200D01*
X9358800Y-1529200D02*
X18289996Y-1529200D01*
X20745000Y-4489693D02*
X21841307Y-5586000D01*
X18289996Y-1529200D02*
X20745000Y-3984204D01*
X21841307Y-5586000D02*
X25622000Y-5586000D01*
X25622000Y-5586000D02*
X27400000Y-3808000D01*
X20745000Y-3984204D02*
X20745000Y-4489693D01*
%TO.N,/DIG_2*%
X19815000Y-16000000D02*
X20091751Y-16000000D01*
X18465000Y-4017000D02*
X18465000Y-3300588D01*
%TO.N,/SEG_L_0*%
X20295000Y-4170600D02*
X20295000Y-4865892D01*
%TO.N,/DIG_2*%
X5810000Y-3300000D02*
X8030800Y-1079200D01*
X21050000Y-15041751D02*
X21050000Y-6602000D01*
X21050000Y-6602000D02*
X18465000Y-4017000D01*
X18465000Y-3300588D02*
X17747412Y-2583000D01*
X23590000Y-5078000D02*
X24860000Y-3808000D01*
X21195000Y-3797808D02*
X21195000Y-4273991D01*
X20091751Y-16000000D02*
X21050000Y-15041751D01*
X18476392Y-1079200D02*
X21195000Y-3797808D01*
%TO.N,/SEG_L_0*%
X27400000Y-6348000D02*
X28365000Y-5383000D01*
%TO.N,/DIG_2*%
X8030800Y-1079200D02*
X18476392Y-1079200D01*
%TO.N,/SEG_L_0*%
X9620000Y-3808000D02*
X11448800Y-1979200D01*
%TO.N,/DIG_2*%
X5810000Y-4366800D02*
X5810000Y-3300000D01*
X10890000Y-3409000D02*
X10890000Y-4316000D01*
X6521200Y-5078000D02*
X5810000Y-4366800D01*
%TO.N,/SEG_L_0*%
X18103600Y-1979200D02*
X20295000Y-4170600D01*
%TO.N,/DIG_2*%
X11716000Y-2583000D02*
X10890000Y-3409000D01*
X21999009Y-5078000D02*
X23590000Y-5078000D01*
X10128000Y-5078000D02*
X6521200Y-5078000D01*
X21195000Y-4273991D02*
X21999009Y-5078000D01*
X10890000Y-4316000D02*
X10128000Y-5078000D01*
X17747412Y-2583000D02*
X11716000Y-2583000D01*
%TO.N,/SEG_L_0*%
X11448800Y-1979200D02*
X18103600Y-1979200D01*
X20295000Y-4865892D02*
X21777108Y-6348000D01*
X21777108Y-6348000D02*
X27400000Y-6348000D01*
D22*
%TO.N,/SEG_L_6*%
X33242000Y-14222000D02*
X33242000Y-12850400D01*
X27654000Y-19810000D02*
X33242000Y-14222000D01*
D23*
X33242000Y-12698000D02*
X33242000Y-12850400D01*
D21*
X33605000Y-12335000D02*
X33242000Y-12698000D01*
X33605000Y-10394000D02*
X33605000Y-12335000D01*
X32861000Y-9650000D02*
X33605000Y-10394000D01*
%TO.N,/SEG_L_5*%
X22320000Y-3808000D02*
X19018000Y-506000D01*
X19018000Y-506000D02*
X5302000Y-506000D01*
X5302000Y-506000D02*
X2000000Y-3808000D01*
D24*
%TO.N,/DIG_1*%
X20161000Y-7491000D02*
X20161000Y-14476000D01*
D21*
X19815000Y-14704853D02*
X20043853Y-14476000D01*
X20043853Y-14476000D02*
X20161000Y-14476000D01*
%TO.N,/SEG_L_5*%
X34276927Y-16018927D02*
X34505000Y-15790853D01*
X34505000Y-15790853D02*
X34505000Y-3547000D01*
X24098000Y-2030000D02*
X22320000Y-3808000D01*
X34505000Y-3547000D02*
X32988000Y-2030000D01*
X32988000Y-2030000D02*
X24098000Y-2030000D01*
D24*
%TO.N,/SEG_L_2*%
X33115000Y-7999000D02*
X31337000Y-7999000D01*
D22*
X31337000Y-7999000D02*
X30829000Y-7999000D01*
D24*
%TO.N,/SEG_L_6*%
X32861000Y-9650000D02*
X31718000Y-9650000D01*
X31718000Y-9650000D02*
X29940000Y-11428000D01*
D21*
%TO.N,/SEG_L_2*%
X33768927Y-15002927D02*
X34055000Y-14716853D01*
X34055000Y-14716853D02*
X34055000Y-8939000D01*
X34055000Y-8939000D02*
X33115000Y-7999000D01*
D22*
X30829000Y-7999000D02*
X27400000Y-11428000D01*
%TO.N,VCC*%
X7715000Y-20607853D02*
X9191000Y-20607853D01*
X10902147Y-21715000D02*
X9493000Y-20305853D01*
D21*
X19180000Y-21715000D02*
X10902147Y-21715000D01*
X375000Y-10048604D02*
X375000Y-22503000D01*
D22*
X2762000Y-23366000D02*
X2000000Y-24128000D01*
D21*
X19815000Y-21080000D02*
X19180000Y-21715000D01*
D22*
X7715000Y-21588000D02*
X7715000Y-20607853D01*
D21*
X375000Y-22503000D02*
X2000000Y-24128000D01*
D22*
X9191000Y-20607853D02*
X9493000Y-20305853D01*
D21*
X4329604Y-6094000D02*
X375000Y-10048604D01*
D24*
X14572000Y-6094000D02*
X4329604Y-6094000D01*
D22*
X4413000Y-23366000D02*
X2762000Y-23366000D01*
D21*
X15208000Y-5458000D02*
X14572000Y-6094000D01*
D22*
X5937000Y-23366000D02*
X4413000Y-23366000D01*
X5937000Y-23366000D02*
X7715000Y-21588000D01*
%TO.N,GND*%
X14665000Y-16000000D02*
X15335000Y-16000000D01*
X4199853Y-18707853D02*
X2000000Y-16508000D01*
D21*
X7763000Y-18755853D02*
X7715000Y-18707853D01*
D22*
X9493000Y-18755853D02*
X12248853Y-16000000D01*
X7715000Y-18707853D02*
X4199853Y-18707853D01*
X17240000Y-13676604D02*
X17240000Y-11428000D01*
X17240000Y-14095000D02*
X17240000Y-13676604D01*
X15335000Y-16000000D02*
X17240000Y-14095000D01*
X9493000Y-18755853D02*
X7763000Y-18755853D01*
X12248853Y-16000000D02*
X14363102Y-16000000D01*
D21*
%TO.N,Net-(D1-K)*%
X17240000Y-8888000D02*
X17240000Y-6348000D01*
%TO.N,Net-(D1-A)*%
X17240000Y-3808000D02*
X15208000Y-3808000D01*
D22*
%TO.N,/SEG_4*%
X13621000Y-23620000D02*
X12541000Y-22540000D01*
X14665000Y-23620000D02*
X13621000Y-23620000D01*
%TO.N,/SEG_5*%
X22066000Y-23620000D02*
X24641609Y-23620000D01*
D21*
X21431000Y-22985000D02*
X21558000Y-23112000D01*
D22*
X17622396Y-22324853D02*
X18282543Y-22985000D01*
X21558000Y-23112000D02*
X22066000Y-23620000D01*
D21*
X18282543Y-22985000D02*
X21431000Y-22985000D01*
D22*
X24641609Y-23620000D02*
X24797000Y-23775391D01*
X14757000Y-22324853D02*
X17622396Y-22324853D01*
%TO.N,/SEG_6*%
X18103853Y-20445000D02*
X18510000Y-20445000D01*
X17494000Y-21054853D02*
X18103853Y-20445000D01*
D21*
X21139147Y-20445000D02*
X21749000Y-21054853D01*
D22*
X14757000Y-21054853D02*
X17494000Y-21054853D01*
D21*
X18510000Y-20445000D02*
X21139147Y-20445000D01*
D22*
%TO.N,/SEG_7*%
X14757000Y-19784853D02*
X17208469Y-19784853D01*
D21*
X18510000Y-19175000D02*
X20851947Y-19175000D01*
X23816462Y-19314853D02*
X24797000Y-18334315D01*
X20851947Y-19175000D02*
X20991800Y-19314853D01*
X20991800Y-19314853D02*
X23816462Y-19314853D01*
D22*
X17818322Y-19175000D02*
X18510000Y-19175000D01*
X17208469Y-19784853D02*
X17818322Y-19175000D01*
D25*
%TO.N,/SCL*%
X4413000Y-21716000D02*
X4413000Y-21461000D01*
D22*
X15487147Y-18514853D02*
X18256000Y-15746002D01*
D26*
X19018000Y-10158000D02*
X19018000Y-13714000D01*
D21*
X15208000Y-9650000D02*
X15716000Y-10158000D01*
D25*
X4413000Y-21461000D02*
X2000000Y-19048000D01*
D21*
X2000000Y-19048000D02*
X825000Y-17873000D01*
D22*
X15233147Y-18514853D02*
X15487147Y-18514853D01*
D21*
X825000Y-10457000D02*
X1632000Y-9650000D01*
X1632000Y-9650000D02*
X2000000Y-9650000D01*
X18510000Y-15492002D02*
X18256000Y-15746002D01*
X19018000Y-13714000D02*
X18510000Y-14222000D01*
X825000Y-17873000D02*
X825000Y-10457000D01*
X18510000Y-14222000D02*
X18510000Y-15492002D01*
X15716000Y-10158000D02*
X19018000Y-10158000D01*
D25*
X2000000Y-9650000D02*
X15208000Y-9650000D01*
D21*
%TO.N,/SDA*%
X7013982Y-19622018D02*
X8924018Y-19622018D01*
X5937000Y-20847680D02*
X5937000Y-20699000D01*
D22*
X13557000Y-17270000D02*
X14665000Y-17270000D01*
D21*
X9015183Y-19530853D02*
X11296147Y-19530853D01*
X8924018Y-19622018D02*
X9015183Y-19530853D01*
X2889000Y-22477000D02*
X2000000Y-21588000D01*
X5937000Y-21716000D02*
X5176000Y-22477000D01*
X5176000Y-22477000D02*
X2889000Y-22477000D01*
X5937000Y-20699000D02*
X7013982Y-19622018D01*
D22*
X11296147Y-19530853D02*
X13557000Y-17270000D01*
D25*
X5937000Y-21716000D02*
X5937000Y-20847680D01*
%TO.N,/DIG_1*%
X20161000Y-7491000D02*
X20161000Y-6819000D01*
D21*
X15700462Y-4533000D02*
X16245462Y-5078000D01*
X16245462Y-5078000D02*
X18420000Y-5078000D01*
X12160000Y-3808000D02*
X12885000Y-4533000D01*
X18420000Y-5078000D02*
X18973000Y-5631000D01*
X12885000Y-4533000D02*
X15700462Y-4533000D01*
D25*
X20161000Y-6819000D02*
X18973000Y-5631000D01*
D22*
%TO.N,/SEG_0*%
X19815000Y-18514853D02*
X21749000Y-18514853D01*
D21*
%TO.N,/SEG_1*%
X24098000Y-19784853D02*
X24797000Y-19784853D01*
X24072853Y-19810000D02*
X24098000Y-19784853D01*
X20770853Y-19784853D02*
X20796000Y-19810000D01*
X20796000Y-19810000D02*
X24072853Y-19810000D01*
X19815000Y-19784853D02*
X20770853Y-19784853D01*
D22*
%TO.N,/SEG_2*%
X19815000Y-22324853D02*
X24797000Y-22324853D01*
D21*
%TO.N,/SEG_L_4*%
X18510000Y-17905000D02*
X20726751Y-17905000D01*
X13157125Y-19165000D02*
X16333249Y-19165000D01*
X16333249Y-19165000D02*
X16464124Y-19034124D01*
X21558000Y-17073751D02*
X21558000Y-12190000D01*
D22*
X16464124Y-19034124D02*
X17593249Y-17905000D01*
D21*
X20726751Y-17905000D02*
X21558000Y-17073751D01*
D22*
X17593249Y-17905000D02*
X18510000Y-17905000D01*
X12541000Y-19781125D02*
X13157125Y-19165000D01*
D21*
X12541000Y-20890000D02*
X12541000Y-19781125D01*
X21558000Y-12190000D02*
X22320000Y-11428000D01*
D22*
%TO.N,/SEG_L_3*%
X24860000Y-11428000D02*
X24860000Y-16190000D01*
X24860000Y-16190000D02*
X24288000Y-16762000D01*
D25*
%TO.N,/SEG_L_2*%
X26447000Y-22324853D02*
X33768927Y-15002927D01*
D21*
%TO.N,/SEG_L_6*%
X26358147Y-21105853D02*
X27654000Y-19810000D01*
D22*
X23450000Y-21105853D02*
X26358147Y-21105853D01*
D21*
%TO.N,/SEG_L_7*%
X26447000Y-18260853D02*
X26447000Y-16951604D01*
D22*
X26447000Y-16951604D02*
X31970604Y-11428000D01*
D21*
%TO.N,/SEG_L_0*%
X23590000Y-16242538D02*
X23590000Y-10158000D01*
X23590000Y-10158000D02*
X28365000Y-5383000D01*
X28365000Y-5383000D02*
X29940000Y-3808000D01*
X23463000Y-16369538D02*
X23590000Y-16242538D01*
X23463000Y-18450853D02*
X23463000Y-16369538D01*
%TO.N,/SEG_L_1*%
X30448000Y-2538000D02*
X28670000Y-2538000D01*
X26447000Y-19784853D02*
X25622000Y-18959853D01*
X28670000Y-2538000D02*
X27400000Y-3808000D01*
X31210000Y-3300000D02*
X30448000Y-2538000D01*
X25622000Y-18959853D02*
X25622000Y-16608000D01*
X26130000Y-12290000D02*
X26130000Y-10920000D01*
D22*
X25722000Y-16508000D02*
X25722000Y-12698000D01*
D21*
X25722000Y-12698000D02*
X26130000Y-12290000D01*
X31210000Y-5840000D02*
X31210000Y-3300000D01*
X25622000Y-16608000D02*
X25722000Y-16508000D01*
X26130000Y-10920000D02*
X27273000Y-9777000D01*
D24*
X31210000Y-5840000D02*
X27273000Y-9777000D01*
D22*
%TO.N,/SEG_L_5*%
X26447000Y-23848853D02*
X34276927Y-16018927D01*
%TD*%
%TA.AperFunction,Conductor*%
%TO.N,/SEG_5*%
G36*
X18382539Y-22360185D02*
G01*
X18428294Y-22412989D01*
X18439500Y-22464500D01*
X18439500Y-22565696D01*
X18442401Y-22602567D01*
X18442402Y-22602573D01*
X18488254Y-22760393D01*
X18488255Y-22760396D01*
X18571917Y-22901862D01*
X18576702Y-22908031D01*
X18574248Y-22909933D01*
X18600844Y-22958578D01*
X18595895Y-23028273D01*
X18575074Y-23060706D01*
X18576702Y-23061969D01*
X18571917Y-23068137D01*
X18488255Y-23209603D01*
X18488254Y-23209606D01*
X18442402Y-23367426D01*
X18442401Y-23367432D01*
X18439500Y-23404304D01*
X18439500Y-23835696D01*
X18442401Y-23872567D01*
X18442402Y-23872573D01*
X18488254Y-24030393D01*
X18488255Y-24030396D01*
X18571917Y-24171862D01*
X18571923Y-24171870D01*
X18688129Y-24288076D01*
X18688133Y-24288079D01*
X18688135Y-24288081D01*
X18829602Y-24371744D01*
X18871224Y-24383836D01*
X18987426Y-24417597D01*
X18987429Y-24417597D01*
X18987431Y-24417598D01*
X18999722Y-24418565D01*
X19024304Y-24420500D01*
X19024306Y-24420500D01*
X20605696Y-24420500D01*
X20624131Y-24419049D01*
X20642569Y-24417598D01*
X20642571Y-24417597D01*
X20642573Y-24417597D01*
X20684191Y-24405505D01*
X20800398Y-24371744D01*
X20941865Y-24288081D01*
X21058081Y-24171865D01*
X21101260Y-24098853D01*
X23897001Y-24098853D01*
X23897001Y-24180435D01*
X23903408Y-24250955D01*
X23903409Y-24250960D01*
X23953981Y-24413249D01*
X24041927Y-24558730D01*
X24162122Y-24678925D01*
X24307604Y-24766872D01*
X24307603Y-24766872D01*
X24469894Y-24817443D01*
X24469893Y-24817443D01*
X24540408Y-24823851D01*
X24540426Y-24823852D01*
X24546999Y-24823851D01*
X24547000Y-24823851D01*
X24547000Y-24098853D01*
X23897001Y-24098853D01*
X21101260Y-24098853D01*
X21141744Y-24030398D01*
X21187598Y-23872569D01*
X21190500Y-23835694D01*
X21190500Y-23404306D01*
X21187598Y-23367431D01*
X21174027Y-23320719D01*
X21148818Y-23233948D01*
X21149017Y-23164079D01*
X21186959Y-23105409D01*
X21250598Y-23076565D01*
X21267894Y-23075353D01*
X23755991Y-23075353D01*
X23823030Y-23095038D01*
X23843672Y-23111672D01*
X23915818Y-23183818D01*
X23949303Y-23245141D01*
X23946523Y-23308388D01*
X23903409Y-23446749D01*
X23897000Y-23517280D01*
X23897000Y-23598853D01*
X24923000Y-23598853D01*
X24990039Y-23618538D01*
X25035794Y-23671342D01*
X25047000Y-23722853D01*
X25047000Y-24823852D01*
X25053581Y-24823852D01*
X25124102Y-24817444D01*
X25124107Y-24817443D01*
X25207109Y-24791579D01*
X25276969Y-24790427D01*
X25336362Y-24827228D01*
X25366430Y-24890296D01*
X25368000Y-24909964D01*
X25368000Y-25782000D01*
X25348315Y-25849039D01*
X25295511Y-25894794D01*
X25244000Y-25906000D01*
X15078000Y-25906000D01*
X15010961Y-25886315D01*
X14965206Y-25833511D01*
X14954000Y-25782000D01*
X14954000Y-24544500D01*
X14973685Y-24477461D01*
X15026489Y-24431706D01*
X15078000Y-24420500D01*
X15455696Y-24420500D01*
X15474131Y-24419049D01*
X15492569Y-24417598D01*
X15492571Y-24417597D01*
X15492573Y-24417597D01*
X15534191Y-24405505D01*
X15650398Y-24371744D01*
X15791865Y-24288081D01*
X15908081Y-24171865D01*
X15991744Y-24030398D01*
X16037598Y-23872569D01*
X16040500Y-23835694D01*
X16040500Y-23404306D01*
X16037598Y-23367431D01*
X16016246Y-23293939D01*
X15991745Y-23209606D01*
X15991744Y-23209603D01*
X15991744Y-23209602D01*
X15908081Y-23068135D01*
X15908078Y-23068132D01*
X15903298Y-23061969D01*
X15905635Y-23060155D01*
X15878798Y-23011050D01*
X15883756Y-22941356D01*
X15904554Y-22908998D01*
X15902903Y-22907717D01*
X15907686Y-22901550D01*
X15991282Y-22760196D01*
X15991283Y-22760193D01*
X16037099Y-22602495D01*
X16037100Y-22602489D01*
X16040000Y-22565644D01*
X16040000Y-22464500D01*
X16059685Y-22397461D01*
X16112489Y-22351706D01*
X16164000Y-22340500D01*
X18315500Y-22340500D01*
X18382539Y-22360185D01*
G37*
%TD.AperFunction*%
%TD*%
%TA.AperFunction,Conductor*%
%TO.N,/SEG_L_5*%
G36*
X34942539Y-15765685D02*
G01*
X34988294Y-15818489D01*
X34999500Y-15870000D01*
X34999500Y-25782000D01*
X34979815Y-25849039D01*
X34927011Y-25894794D01*
X34875500Y-25906000D01*
X26254000Y-25906000D01*
X26186961Y-25886315D01*
X26141206Y-25833511D01*
X26130000Y-25782000D01*
X26130000Y-24942219D01*
X26149685Y-24875180D01*
X26166312Y-24854544D01*
X26197000Y-24823851D01*
X26197000Y-24098853D01*
X26697000Y-24098853D01*
X26697000Y-24823852D01*
X26703581Y-24823852D01*
X26774102Y-24817444D01*
X26774107Y-24817443D01*
X26936396Y-24766871D01*
X27081877Y-24678925D01*
X27202072Y-24558730D01*
X27290019Y-24413248D01*
X27340590Y-24250959D01*
X27347000Y-24180425D01*
X27347000Y-24098853D01*
X26697000Y-24098853D01*
X26197000Y-24098853D01*
X26197000Y-23722853D01*
X26216685Y-23655814D01*
X26269489Y-23610059D01*
X26321000Y-23598853D01*
X27346999Y-23598853D01*
X27346999Y-23517270D01*
X27340591Y-23446750D01*
X27340590Y-23446745D01*
X27290018Y-23284456D01*
X27209635Y-23151486D01*
X27191799Y-23083932D01*
X27209634Y-23023189D01*
X27290478Y-22889459D01*
X27341086Y-22727049D01*
X27341086Y-22727041D01*
X27342366Y-22720615D01*
X27344387Y-22721017D01*
X27366475Y-22665085D01*
X27371036Y-22659564D01*
X27558509Y-22445674D01*
X27561223Y-22442776D01*
X34221681Y-15782319D01*
X34283004Y-15748834D01*
X34309362Y-15746000D01*
X34875500Y-15746000D01*
X34942539Y-15765685D01*
G37*
%TD.AperFunction*%
%TD*%
%TA.AperFunction,Conductor*%
%TO.N,/SCL*%
G36*
X3553123Y-19122491D02*
G01*
X3624123Y-19193491D01*
X3635904Y-19207123D01*
X3650241Y-19226381D01*
X3690262Y-19259964D01*
X3694250Y-19263619D01*
X3700069Y-19269438D01*
X3700073Y-19269441D01*
X3700076Y-19269444D01*
X3725812Y-19289793D01*
X3784639Y-19339155D01*
X3784640Y-19339155D01*
X3784642Y-19339157D01*
X3790671Y-19343123D01*
X3790638Y-19343172D01*
X3797000Y-19347225D01*
X3797032Y-19347174D01*
X3803172Y-19350961D01*
X3803176Y-19350964D01*
X3837985Y-19367196D01*
X3872794Y-19383428D01*
X3941418Y-19417892D01*
X3941420Y-19417893D01*
X3941422Y-19417893D01*
X3948210Y-19420364D01*
X3948189Y-19420420D01*
X3955310Y-19422896D01*
X3955329Y-19422839D01*
X3962175Y-19425107D01*
X3962180Y-19425110D01*
X3962185Y-19425111D01*
X3962188Y-19425112D01*
X4037417Y-19440645D01*
X4037418Y-19440645D01*
X4112132Y-19458353D01*
X4112135Y-19458353D01*
X4112139Y-19458354D01*
X4119306Y-19459192D01*
X4119299Y-19459251D01*
X4126797Y-19460017D01*
X4126803Y-19459958D01*
X4133992Y-19460587D01*
X4133996Y-19460586D01*
X4133997Y-19460587D01*
X4210770Y-19458353D01*
X4386502Y-19458353D01*
X4453541Y-19478038D01*
X4471110Y-19491703D01*
X4539999Y-19556000D01*
X4540000Y-19556000D01*
X4924000Y-19556000D01*
X4991039Y-19575685D01*
X5036794Y-19628489D01*
X5048000Y-19680000D01*
X5048000Y-20726461D01*
X5028315Y-20793500D01*
X4975511Y-20839255D01*
X4906353Y-20849199D01*
X4887110Y-20844847D01*
X4815101Y-20822408D01*
X4744572Y-20816000D01*
X4663000Y-20816000D01*
X4663000Y-21727500D01*
X4643315Y-21794539D01*
X4590511Y-21840294D01*
X4539000Y-21851500D01*
X4287000Y-21851500D01*
X4219961Y-21831815D01*
X4174206Y-21779011D01*
X4163000Y-21727500D01*
X4163000Y-20816000D01*
X4162999Y-20815999D01*
X4081417Y-20816000D01*
X4010897Y-20822408D01*
X4010892Y-20822409D01*
X3848603Y-20872981D01*
X3703122Y-20960927D01*
X3582928Y-21081121D01*
X3582925Y-21081125D01*
X3522526Y-21181036D01*
X3470998Y-21228223D01*
X3402138Y-21240061D01*
X3337810Y-21212791D01*
X3305578Y-21172492D01*
X3242005Y-21045770D01*
X3224847Y-21014389D01*
X3224846Y-21014388D01*
X3224842Y-21014380D01*
X3222818Y-21011353D01*
X3213512Y-20994829D01*
X3174035Y-20910171D01*
X3174034Y-20910169D01*
X3038494Y-20716597D01*
X2871402Y-20549506D01*
X2871401Y-20549505D01*
X2685405Y-20419269D01*
X2641781Y-20364692D01*
X2634588Y-20295193D01*
X2666110Y-20232839D01*
X2685405Y-20216119D01*
X2871082Y-20086105D01*
X3038105Y-19919082D01*
X3173600Y-19725578D01*
X3273429Y-19511492D01*
X3273433Y-19511483D01*
X3334567Y-19283326D01*
X3334569Y-19283315D01*
X3341914Y-19199365D01*
X3367366Y-19134296D01*
X3423957Y-19093317D01*
X3493719Y-19089439D01*
X3553123Y-19122491D01*
G37*
%TD.AperFunction*%
%TD*%
%TA.AperFunction,Conductor*%
%TO.N,/SDA*%
G36*
X6748162Y-19575685D02*
G01*
X6793917Y-19628489D01*
X6803861Y-19697647D01*
X6774836Y-19761203D01*
X6768804Y-19767681D01*
X6647289Y-19889195D01*
X6555187Y-20038516D01*
X6555185Y-20038521D01*
X6538351Y-20089323D01*
X6500001Y-20205056D01*
X6500001Y-20205057D01*
X6500000Y-20205057D01*
X6489500Y-20307836D01*
X6489500Y-20701230D01*
X6469815Y-20768269D01*
X6417011Y-20814024D01*
X6347853Y-20823968D01*
X6341314Y-20822848D01*
X6339109Y-20822409D01*
X6268572Y-20816000D01*
X6187000Y-20816000D01*
X6187000Y-21842000D01*
X6167315Y-21909039D01*
X6114511Y-21954794D01*
X6063000Y-21966000D01*
X5811000Y-21966000D01*
X5743961Y-21946315D01*
X5698206Y-21893511D01*
X5687000Y-21842000D01*
X5687000Y-20816000D01*
X5686998Y-20815999D01*
X5677500Y-20815999D01*
X5610461Y-20796314D01*
X5564706Y-20743510D01*
X5553500Y-20691999D01*
X5553500Y-19680000D01*
X5573185Y-19612961D01*
X5625989Y-19567206D01*
X5677500Y-19556000D01*
X6681123Y-19556000D01*
X6748162Y-19575685D01*
G37*
%TD.AperFunction*%
%TD*%
%TA.AperFunction,Conductor*%
%TO.N,VCC*%
G36*
X10727382Y-20160403D02*
G01*
X10880889Y-20200636D01*
X11017404Y-20236415D01*
X11062485Y-20248230D01*
X11075355Y-20251348D01*
X11083625Y-20253978D01*
X11100580Y-20260715D01*
X11274170Y-20286142D01*
X11448944Y-20270852D01*
X11458284Y-20267756D01*
X11528111Y-20265350D01*
X11588155Y-20301078D01*
X11619351Y-20363596D01*
X11615680Y-20422349D01*
X11608622Y-20445000D01*
X11571914Y-20562804D01*
X11570428Y-20579162D01*
X11565500Y-20633386D01*
X11565500Y-21146613D01*
X11571913Y-21217192D01*
X11571913Y-21217194D01*
X11571914Y-21217196D01*
X11622522Y-21379606D01*
X11710528Y-21525185D01*
X11812662Y-21627319D01*
X11846146Y-21688640D01*
X11841162Y-21758332D01*
X11812662Y-21802680D01*
X11710529Y-21904813D01*
X11622522Y-22050393D01*
X11571913Y-22212807D01*
X11565500Y-22283386D01*
X11565500Y-22796613D01*
X11571913Y-22867192D01*
X11571913Y-22867194D01*
X11571914Y-22867196D01*
X11622522Y-23029606D01*
X11667769Y-23104454D01*
X11710530Y-23175188D01*
X11830811Y-23295469D01*
X11830813Y-23295470D01*
X11830815Y-23295472D01*
X11976394Y-23383478D01*
X12138804Y-23434086D01*
X12183350Y-23438134D01*
X12241160Y-23458617D01*
X12516753Y-23643320D01*
X12707407Y-23771096D01*
X12726053Y-23786421D01*
X13045269Y-24105637D01*
X13057049Y-24119268D01*
X13071389Y-24138530D01*
X13071391Y-24138532D01*
X13111409Y-24172110D01*
X13115399Y-24175766D01*
X13121227Y-24181594D01*
X13146947Y-24201931D01*
X13205788Y-24251304D01*
X13211818Y-24255270D01*
X13211785Y-24255319D01*
X13218143Y-24259369D01*
X13218175Y-24259319D01*
X13224320Y-24263109D01*
X13224323Y-24263111D01*
X13293936Y-24295572D01*
X13362567Y-24330040D01*
X13362572Y-24330041D01*
X13369361Y-24332513D01*
X13369340Y-24332570D01*
X13376455Y-24335043D01*
X13376475Y-24334986D01*
X13383330Y-24337258D01*
X13458558Y-24352790D01*
X13533279Y-24370500D01*
X13533289Y-24370500D01*
X13540452Y-24371338D01*
X13540444Y-24371397D01*
X13547945Y-24372164D01*
X13547951Y-24372105D01*
X13555140Y-24372734D01*
X13555144Y-24372733D01*
X13555145Y-24372734D01*
X13631918Y-24370500D01*
X13657672Y-24370500D01*
X13692267Y-24375424D01*
X13837426Y-24417597D01*
X13837429Y-24417597D01*
X13837431Y-24417598D01*
X13849722Y-24418565D01*
X13874304Y-24420500D01*
X14322000Y-24420500D01*
X14389039Y-24440185D01*
X14434794Y-24492989D01*
X14446000Y-24544500D01*
X14446000Y-25782000D01*
X14426315Y-25849039D01*
X14373511Y-25894794D01*
X14322000Y-25906000D01*
X346000Y-25906000D01*
X278961Y-25886315D01*
X233206Y-25833511D01*
X222000Y-25782000D01*
X222000Y-22982000D01*
X241685Y-22914961D01*
X294489Y-22869206D01*
X346000Y-22858000D01*
X1066817Y-22858000D01*
X1133856Y-22877685D01*
X1179611Y-22930489D01*
X1189555Y-22999647D01*
X1160530Y-23063203D01*
X1137941Y-23083574D01*
X1128929Y-23089884D01*
X1128920Y-23089891D01*
X961891Y-23256920D01*
X961886Y-23256926D01*
X826400Y-23450420D01*
X826399Y-23450422D01*
X726570Y-23664507D01*
X726567Y-23664513D01*
X669364Y-23877999D01*
X669364Y-23878000D01*
X1566314Y-23878000D01*
X1540507Y-23918156D01*
X1500000Y-24056111D01*
X1500000Y-24199889D01*
X1540507Y-24337844D01*
X1566314Y-24378000D01*
X669364Y-24378000D01*
X726567Y-24591486D01*
X726570Y-24591492D01*
X826399Y-24805578D01*
X961894Y-24999082D01*
X1128917Y-25166105D01*
X1322421Y-25301600D01*
X1536507Y-25401429D01*
X1536516Y-25401433D01*
X1750000Y-25458634D01*
X1750000Y-24563501D01*
X1857685Y-24612680D01*
X1964237Y-24628000D01*
X2035763Y-24628000D01*
X2142315Y-24612680D01*
X2250000Y-24563501D01*
X2250000Y-25458633D01*
X2463483Y-25401433D01*
X2463492Y-25401429D01*
X2677578Y-25301600D01*
X2871082Y-25166105D01*
X3038105Y-24999082D01*
X3173600Y-24805578D01*
X3273429Y-24591492D01*
X3273432Y-24591486D01*
X3330636Y-24378000D01*
X2433686Y-24378000D01*
X2459493Y-24337844D01*
X2500000Y-24199889D01*
X2500000Y-24056111D01*
X2459493Y-23918156D01*
X2433686Y-23878000D01*
X3339251Y-23878000D01*
X3376080Y-23851107D01*
X3445826Y-23846950D01*
X3506747Y-23881161D01*
X3524148Y-23903645D01*
X3582927Y-24000877D01*
X3703122Y-24121072D01*
X3848604Y-24209019D01*
X3848603Y-24209019D01*
X4010894Y-24259590D01*
X4010892Y-24259590D01*
X4081418Y-24265999D01*
X4162999Y-24265998D01*
X4163000Y-24265998D01*
X4163000Y-23616000D01*
X4663000Y-23616000D01*
X4663000Y-24265999D01*
X4744581Y-24265999D01*
X4815102Y-24259591D01*
X4815107Y-24259590D01*
X4977398Y-24209018D01*
X5110848Y-24128344D01*
X5178403Y-24110507D01*
X5239149Y-24128343D01*
X5372604Y-24209019D01*
X5372603Y-24209019D01*
X5534894Y-24259590D01*
X5534892Y-24259590D01*
X5605418Y-24265999D01*
X5686999Y-24265998D01*
X5687000Y-24265998D01*
X5687000Y-23616000D01*
X6187000Y-23616000D01*
X6187000Y-24265999D01*
X6268581Y-24265999D01*
X6339102Y-24259591D01*
X6339107Y-24259590D01*
X6501396Y-24209018D01*
X6646877Y-24121072D01*
X6767072Y-24000877D01*
X6855019Y-23855395D01*
X6905590Y-23693106D01*
X6912000Y-23622572D01*
X6912000Y-23616000D01*
X6187000Y-23616000D01*
X5687000Y-23616000D01*
X4663000Y-23616000D01*
X4163000Y-23616000D01*
X3438000Y-23616000D01*
X3435560Y-23618440D01*
X3374237Y-23651925D01*
X3304545Y-23646939D01*
X3248612Y-23605067D01*
X3235498Y-23583162D01*
X3173602Y-23450426D01*
X3173599Y-23450420D01*
X3066610Y-23297623D01*
X3044283Y-23231417D01*
X3061293Y-23163650D01*
X3112241Y-23115837D01*
X3168185Y-23102500D01*
X3255844Y-23102500D01*
X3261541Y-23102762D01*
X3279882Y-23104454D01*
X3289012Y-23105017D01*
X3289014Y-23105016D01*
X3289016Y-23105017D01*
X3370922Y-23103145D01*
X3418709Y-23116000D01*
X6911999Y-23116000D01*
X6911999Y-23109417D01*
X6905591Y-23038897D01*
X6905590Y-23038892D01*
X6855018Y-22876603D01*
X6767072Y-22731122D01*
X6664984Y-22629034D01*
X6631499Y-22567711D01*
X6636483Y-22498019D01*
X6664983Y-22453673D01*
X6767472Y-22351185D01*
X6855478Y-22205606D01*
X6906086Y-22043196D01*
X6912500Y-21972616D01*
X6912500Y-21711154D01*
X6932185Y-21644115D01*
X6984989Y-21598360D01*
X7054147Y-21588416D01*
X7075507Y-21593449D01*
X7087303Y-21597358D01*
X7087309Y-21597359D01*
X7190019Y-21607852D01*
X7464999Y-21607852D01*
X7465000Y-21607851D01*
X7465000Y-20481853D01*
X7484685Y-20414814D01*
X7537489Y-20369059D01*
X7589000Y-20357853D01*
X7841000Y-20357853D01*
X7908039Y-20377538D01*
X7953794Y-20430342D01*
X7965000Y-20481853D01*
X7965000Y-21607852D01*
X8239972Y-21607852D01*
X8239986Y-21607851D01*
X8342697Y-21597358D01*
X8509119Y-21542211D01*
X8509124Y-21542209D01*
X8658345Y-21450168D01*
X8782317Y-21326196D01*
X8825195Y-21256680D01*
X8877143Y-21209955D01*
X8946105Y-21198732D01*
X8969739Y-21204070D01*
X9095394Y-21245709D01*
X9194683Y-21255852D01*
X9242999Y-21255851D01*
X9243000Y-21255851D01*
X9243000Y-20555853D01*
X9743000Y-20555853D01*
X9743000Y-21255852D01*
X9791308Y-21255852D01*
X9791322Y-21255851D01*
X9890607Y-21245708D01*
X10051481Y-21192400D01*
X10051492Y-21192395D01*
X10195728Y-21103428D01*
X10195732Y-21103425D01*
X10315572Y-20983585D01*
X10315575Y-20983581D01*
X10404542Y-20839345D01*
X10404547Y-20839334D01*
X10457855Y-20678459D01*
X10467999Y-20579175D01*
X10468000Y-20579162D01*
X10468000Y-20555853D01*
X9743000Y-20555853D01*
X9243000Y-20555853D01*
X9243000Y-20280353D01*
X9262685Y-20213314D01*
X9315489Y-20167559D01*
X9367000Y-20156353D01*
X10695946Y-20156353D01*
X10727382Y-20160403D01*
G37*
%TD.AperFunction*%
%TD*%
%TA.AperFunction,Conductor*%
%TO.N,/SEG_3*%
G36*
X22907539Y-12748184D02*
G01*
X22953294Y-12800988D01*
X22964500Y-12852499D01*
X22964500Y-15663000D01*
X22944815Y-15730039D01*
X22922774Y-15749136D01*
X22924319Y-15750681D01*
X22888000Y-15787000D01*
X22888000Y-16085510D01*
X22879294Y-16131153D01*
X22876804Y-16137442D01*
X22871822Y-16156845D01*
X22865521Y-16175248D01*
X22857562Y-16193640D01*
X22857561Y-16193644D01*
X22850271Y-16239665D01*
X22849087Y-16245384D01*
X22837499Y-16290521D01*
X22837499Y-16310557D01*
X22835973Y-16329945D01*
X22832840Y-16349730D01*
X22832840Y-16349733D01*
X22837225Y-16396121D01*
X22837500Y-16401959D01*
X22837500Y-16888000D01*
X22817815Y-16955039D01*
X22765011Y-17000794D01*
X22713500Y-17012000D01*
X22512000Y-17012000D01*
X22444961Y-16992315D01*
X22399206Y-16939511D01*
X22388000Y-16888000D01*
X22388000Y-15787000D01*
X22387999Y-15786999D01*
X22381436Y-15787000D01*
X22318717Y-15792698D01*
X22250172Y-15779159D01*
X22199827Y-15730710D01*
X22183500Y-15669209D01*
X22183500Y-12852499D01*
X22203185Y-12785460D01*
X22255989Y-12739705D01*
X22307500Y-12728499D01*
X22840500Y-12728499D01*
X22907539Y-12748184D01*
G37*
%TD.AperFunction*%
%TD*%
%TA.AperFunction,Conductor*%
%TO.N,/SEG_L_7*%
G36*
X28737862Y-11971348D02*
G01*
X28782380Y-12022722D01*
X28809432Y-12080734D01*
X28809433Y-12080735D01*
X28939954Y-12267141D01*
X29100858Y-12428045D01*
X29100861Y-12428047D01*
X29287266Y-12558568D01*
X29493504Y-12654739D01*
X29713308Y-12713635D01*
X29871820Y-12727503D01*
X29939998Y-12733468D01*
X29940000Y-12733468D01*
X29940002Y-12733468D01*
X30008180Y-12727503D01*
X30166692Y-12713635D01*
X30386496Y-12654739D01*
X30421377Y-12638473D01*
X30490451Y-12627981D01*
X30554236Y-12656499D01*
X30592476Y-12714975D01*
X30593032Y-12784842D01*
X30561462Y-12838536D01*
X26678613Y-16721386D01*
X26617290Y-16754871D01*
X26547598Y-16749887D01*
X26491665Y-16708015D01*
X26467248Y-16642551D01*
X26470274Y-16605110D01*
X26472500Y-16595721D01*
X26472500Y-12940195D01*
X26489454Y-12877609D01*
X26569338Y-12740978D01*
X26588706Y-12715884D01*
X26589615Y-12714975D01*
X26600120Y-12704471D01*
X26604379Y-12698978D01*
X26608152Y-12694561D01*
X26640062Y-12660582D01*
X26649713Y-12643024D01*
X26660379Y-12626783D01*
X26661636Y-12625162D01*
X26718271Y-12584249D01*
X26788037Y-12580449D01*
X26812028Y-12588767D01*
X26953504Y-12654739D01*
X27173308Y-12713635D01*
X27331820Y-12727503D01*
X27399998Y-12733468D01*
X27400000Y-12733468D01*
X27400002Y-12733468D01*
X27468180Y-12727503D01*
X27626692Y-12713635D01*
X27846496Y-12654739D01*
X28052734Y-12558568D01*
X28239139Y-12428047D01*
X28400047Y-12267139D01*
X28530568Y-12080734D01*
X28557618Y-12022722D01*
X28603788Y-11970286D01*
X28670981Y-11951133D01*
X28737862Y-11971348D01*
G37*
%TD.AperFunction*%
%TD*%
%TA.AperFunction,Conductor*%
%TO.N,/SCL*%
G36*
X18418498Y-14241685D02*
G01*
X18464253Y-14294489D01*
X18474197Y-14363647D01*
X18470535Y-14380595D01*
X18442402Y-14477426D01*
X18442401Y-14477432D01*
X18439500Y-14514304D01*
X18439500Y-14945696D01*
X18442401Y-14982567D01*
X18442402Y-14982573D01*
X18488254Y-15140393D01*
X18488255Y-15140396D01*
X18571917Y-15281862D01*
X18576702Y-15288031D01*
X18574256Y-15289927D01*
X18600857Y-15338642D01*
X18595873Y-15408334D01*
X18575069Y-15440703D01*
X18576702Y-15441969D01*
X18571917Y-15448137D01*
X18488255Y-15589603D01*
X18488254Y-15589606D01*
X18442402Y-15747426D01*
X18442401Y-15747432D01*
X18439500Y-15784304D01*
X18439500Y-16215696D01*
X18442401Y-16252567D01*
X18442402Y-16252573D01*
X18488254Y-16410393D01*
X18488255Y-16410396D01*
X18571917Y-16551862D01*
X18576702Y-16558031D01*
X18574256Y-16559927D01*
X18600857Y-16608642D01*
X18595873Y-16678334D01*
X18575069Y-16710703D01*
X18576702Y-16711969D01*
X18571917Y-16718137D01*
X18488255Y-16859603D01*
X18488254Y-16859606D01*
X18442402Y-17017426D01*
X18442401Y-17017432D01*
X18440608Y-17040228D01*
X18415725Y-17105516D01*
X18359494Y-17146988D01*
X18316990Y-17154500D01*
X17656954Y-17154500D01*
X17638984Y-17153191D01*
X17615221Y-17149710D01*
X17570139Y-17153655D01*
X17563182Y-17154264D01*
X17557781Y-17154500D01*
X17549536Y-17154500D01*
X17523471Y-17157546D01*
X17516954Y-17158308D01*
X17511652Y-17158771D01*
X17440450Y-17165001D01*
X17433383Y-17166461D01*
X17433371Y-17166404D01*
X17426002Y-17168038D01*
X17426016Y-17168095D01*
X17418988Y-17169760D01*
X17346812Y-17196030D01*
X17273915Y-17220185D01*
X17267372Y-17223237D01*
X17267347Y-17223184D01*
X17260557Y-17226471D01*
X17260583Y-17226523D01*
X17254129Y-17229764D01*
X17189957Y-17271971D01*
X17124596Y-17312285D01*
X17118932Y-17316765D01*
X17118896Y-17316719D01*
X17113047Y-17321484D01*
X17113084Y-17321528D01*
X17107559Y-17326164D01*
X17054847Y-17382034D01*
X16210635Y-18226244D01*
X16149312Y-18259729D01*
X16079620Y-18254745D01*
X16023687Y-18212873D01*
X16003877Y-18173156D01*
X15991282Y-18129803D01*
X15907685Y-17988447D01*
X15902900Y-17982278D01*
X15905366Y-17980364D01*
X15878802Y-17931776D01*
X15883749Y-17862082D01*
X15904856Y-17829232D01*
X15903301Y-17828026D01*
X15908077Y-17821868D01*
X15908081Y-17821865D01*
X15991744Y-17680398D01*
X16037598Y-17522569D01*
X16040500Y-17485694D01*
X16040500Y-17054306D01*
X16037598Y-17017431D01*
X15991744Y-16859602D01*
X15908081Y-16718135D01*
X15904110Y-16711420D01*
X15906097Y-16710244D01*
X15884803Y-16656012D01*
X15898481Y-16587494D01*
X15920633Y-16557366D01*
X18219680Y-14258319D01*
X18281004Y-14224834D01*
X18307362Y-14222000D01*
X18351459Y-14222000D01*
X18418498Y-14241685D01*
G37*
%TD.AperFunction*%
%TD*%
%TA.AperFunction,Conductor*%
%TO.N,/SEG_6*%
G36*
X18384029Y-19945185D02*
G01*
X18429784Y-19997989D01*
X18440608Y-20039772D01*
X18442401Y-20062567D01*
X18442402Y-20062573D01*
X18488254Y-20220393D01*
X18488255Y-20220396D01*
X18492732Y-20227966D01*
X18510000Y-20291087D01*
X18510000Y-20598911D01*
X18492734Y-20662028D01*
X18488259Y-20669594D01*
X18488254Y-20669607D01*
X18442402Y-20827426D01*
X18442401Y-20827432D01*
X18439500Y-20864304D01*
X18439500Y-20965500D01*
X18419815Y-21032539D01*
X18367011Y-21078294D01*
X18315500Y-21089500D01*
X16164000Y-21089500D01*
X16096961Y-21069815D01*
X16051206Y-21017011D01*
X16040000Y-20965500D01*
X16040000Y-20864356D01*
X16037100Y-20827510D01*
X15998297Y-20693947D01*
X15998497Y-20624078D01*
X16036440Y-20565408D01*
X16100078Y-20536565D01*
X16117374Y-20535353D01*
X17144764Y-20535353D01*
X17162734Y-20536662D01*
X17186492Y-20540142D01*
X17238537Y-20535588D01*
X17243939Y-20535353D01*
X17252173Y-20535353D01*
X17252178Y-20535353D01*
X17263796Y-20533994D01*
X17284745Y-20531546D01*
X17297497Y-20530430D01*
X17361266Y-20524852D01*
X17361274Y-20524849D01*
X17368335Y-20523392D01*
X17368347Y-20523451D01*
X17375712Y-20521818D01*
X17375698Y-20521759D01*
X17382715Y-20520094D01*
X17382724Y-20520094D01*
X17454892Y-20493827D01*
X17527803Y-20469667D01*
X17527812Y-20469660D01*
X17534351Y-20466613D01*
X17534377Y-20466669D01*
X17541159Y-20463385D01*
X17541132Y-20463331D01*
X17547575Y-20460093D01*
X17547586Y-20460090D01*
X17611752Y-20417887D01*
X17677125Y-20377565D01*
X17677131Y-20377558D01*
X17682794Y-20373082D01*
X17682831Y-20373130D01*
X17688673Y-20368371D01*
X17688633Y-20368324D01*
X17694155Y-20363689D01*
X17694165Y-20363683D01*
X17715868Y-20340678D01*
X17746856Y-20307834D01*
X18092870Y-19961819D01*
X18154193Y-19928334D01*
X18180551Y-19925500D01*
X18316990Y-19925500D01*
X18384029Y-19945185D01*
G37*
%TD.AperFunction*%
%TD*%
%TA.AperFunction,Conductor*%
%TO.N,/SEG_L_0*%
G36*
X23795203Y-12344310D02*
G01*
X23829989Y-12394177D01*
X24101489Y-13112390D01*
X24109500Y-13156236D01*
X24109500Y-15666159D01*
X24089815Y-15733198D01*
X24037011Y-15778953D01*
X23996723Y-15789649D01*
X23960804Y-15792914D01*
X23798394Y-15843522D01*
X23798391Y-15843523D01*
X23778149Y-15855760D01*
X23710594Y-15873596D01*
X23644121Y-15852078D01*
X23599833Y-15798037D01*
X23590000Y-15749643D01*
X23590000Y-12438023D01*
X23609685Y-12370984D01*
X23662489Y-12325229D01*
X23731647Y-12315285D01*
X23795203Y-12344310D01*
G37*
%TD.AperFunction*%
%TD*%
%TA.AperFunction,Conductor*%
%TO.N,/SEG_L_6*%
G36*
X33368350Y-12482080D02*
G01*
X33416163Y-12533028D01*
X33429500Y-12588972D01*
X33429500Y-14142578D01*
X33409815Y-14209617D01*
X33372283Y-14247058D01*
X33232940Y-14336125D01*
X33232932Y-14336132D01*
X29772610Y-17796454D01*
X27557374Y-19923080D01*
X27495380Y-19955307D01*
X27425805Y-19948901D01*
X27370737Y-19905898D01*
X27347661Y-19839949D01*
X27347500Y-19833628D01*
X27347500Y-19453239D01*
X27341086Y-19382660D01*
X27341086Y-19382657D01*
X27290478Y-19220247D01*
X27209927Y-19087000D01*
X27192092Y-19019449D01*
X27209927Y-18958705D01*
X27290478Y-18825459D01*
X27341086Y-18663049D01*
X27347500Y-18592469D01*
X27347500Y-17929237D01*
X27341086Y-17858657D01*
X27290478Y-17696247D01*
X27289853Y-17695213D01*
X27281240Y-17678108D01*
X27280675Y-17676733D01*
X27280671Y-17676720D01*
X27158926Y-17431396D01*
X27146000Y-17376285D01*
X27146000Y-17376284D01*
X27146000Y-17365339D01*
X27165677Y-17298302D01*
X27182309Y-17277661D01*
X31544560Y-12915409D01*
X31605881Y-12881926D01*
X31612388Y-12880691D01*
X32551043Y-12728581D01*
X32563498Y-12726394D01*
X32568800Y-12725698D01*
X32706692Y-12713635D01*
X32926496Y-12654739D01*
X33132734Y-12558568D01*
X33234378Y-12487396D01*
X33300583Y-12465070D01*
X33368350Y-12482080D01*
G37*
%TD.AperFunction*%
%TD*%
%TA.AperFunction,Conductor*%
%TO.N,GND*%
G36*
X15029275Y-10512756D02*
G01*
X15322158Y-10653639D01*
X15341288Y-10665062D01*
X15345413Y-10668058D01*
X15345414Y-10668058D01*
X15345418Y-10668062D01*
X15362976Y-10677714D01*
X15379235Y-10688395D01*
X15395064Y-10700673D01*
X15437838Y-10719182D01*
X15443056Y-10721738D01*
X15483908Y-10744197D01*
X15503316Y-10749180D01*
X15521717Y-10755480D01*
X15540104Y-10763437D01*
X15583488Y-10770308D01*
X15586119Y-10770725D01*
X15591839Y-10771909D01*
X15636981Y-10783500D01*
X15657016Y-10783500D01*
X15676415Y-10785027D01*
X15696196Y-10788160D01*
X15704326Y-10787391D01*
X15772919Y-10800675D01*
X15823443Y-10848936D01*
X15840000Y-10910840D01*
X15840000Y-11178000D01*
X16864722Y-11178000D01*
X16816375Y-11261740D01*
X16786190Y-11393992D01*
X16796327Y-11529265D01*
X16845887Y-11655541D01*
X16863797Y-11678000D01*
X15840000Y-11678000D01*
X15840000Y-12375844D01*
X15846401Y-12435372D01*
X15846403Y-12435379D01*
X15896645Y-12570086D01*
X15896649Y-12570093D01*
X15982809Y-12685187D01*
X15982812Y-12685190D01*
X16097906Y-12771350D01*
X16097913Y-12771354D01*
X16232620Y-12821596D01*
X16232627Y-12821598D01*
X16292155Y-12827999D01*
X16292172Y-12828000D01*
X16990000Y-12828000D01*
X16989999Y-11802189D01*
X17042547Y-11838016D01*
X17172173Y-11878000D01*
X17273724Y-11878000D01*
X17374138Y-11862865D01*
X17489999Y-11807068D01*
X17489999Y-12827999D01*
X17490000Y-12828000D01*
X18093500Y-12828000D01*
X18160539Y-12847685D01*
X18206294Y-12900489D01*
X18217500Y-12952000D01*
X18217500Y-13478778D01*
X18203401Y-13536204D01*
X18106296Y-13722043D01*
X18057803Y-13772344D01*
X18039746Y-13780792D01*
X18038756Y-13781161D01*
X18038734Y-13781171D01*
X17989184Y-13808228D01*
X17977425Y-13814648D01*
X17977419Y-13814652D01*
X17862239Y-13900875D01*
X17862227Y-13900886D01*
X16171966Y-15591147D01*
X16110643Y-15624632D01*
X16040951Y-15619648D01*
X15985018Y-15577776D01*
X15977553Y-15566587D01*
X15907685Y-15448447D01*
X15902900Y-15442278D01*
X15905366Y-15440364D01*
X15878802Y-15391776D01*
X15883749Y-15322082D01*
X15904856Y-15289232D01*
X15903301Y-15288026D01*
X15908077Y-15281868D01*
X15908081Y-15281865D01*
X15991744Y-15140398D01*
X16037598Y-14982569D01*
X16040500Y-14945694D01*
X16040500Y-14514306D01*
X16037598Y-14477431D01*
X16027923Y-14444131D01*
X15991745Y-14319606D01*
X15991744Y-14319603D01*
X15991744Y-14319602D01*
X15908081Y-14178135D01*
X15908079Y-14178133D01*
X15908076Y-14178129D01*
X15791870Y-14061923D01*
X15791862Y-14061917D01*
X15650396Y-13978255D01*
X15650393Y-13978254D01*
X15492573Y-13932402D01*
X15492567Y-13932401D01*
X15455696Y-13929500D01*
X15455694Y-13929500D01*
X13874306Y-13929500D01*
X13874304Y-13929500D01*
X13837432Y-13932401D01*
X13837426Y-13932402D01*
X13679606Y-13978254D01*
X13679603Y-13978255D01*
X13538137Y-14061917D01*
X13538129Y-14061923D01*
X13421923Y-14178129D01*
X13421917Y-14178137D01*
X13338255Y-14319603D01*
X13338254Y-14319606D01*
X13292402Y-14477426D01*
X13292401Y-14477432D01*
X13289500Y-14514304D01*
X13289500Y-14945696D01*
X13292401Y-14982567D01*
X13292402Y-14982573D01*
X13338254Y-15140393D01*
X13338255Y-15140396D01*
X13338256Y-15140398D01*
X13375681Y-15203681D01*
X13421917Y-15281862D01*
X13426702Y-15288031D01*
X13424369Y-15289840D01*
X13451210Y-15338995D01*
X13446226Y-15408687D01*
X13425470Y-15441021D01*
X13427097Y-15442283D01*
X13422313Y-15448449D01*
X13338718Y-15589801D01*
X13292899Y-15747513D01*
X13292704Y-15749998D01*
X13292705Y-15750000D01*
X14791000Y-15750000D01*
X14858039Y-15769685D01*
X14903794Y-15822489D01*
X14915000Y-15874000D01*
X14915000Y-16126000D01*
X14895315Y-16193039D01*
X14842511Y-16238794D01*
X14791000Y-16250000D01*
X13292705Y-16250000D01*
X13292704Y-16250001D01*
X13292899Y-16252486D01*
X13340895Y-16417690D01*
X13339513Y-16418091D01*
X13347023Y-16478969D01*
X13316729Y-16541929D01*
X13263671Y-16576568D01*
X13237664Y-16585186D01*
X13231126Y-16588235D01*
X13231101Y-16588183D01*
X13224308Y-16591471D01*
X13224334Y-16591522D01*
X13217884Y-16594761D01*
X13153716Y-16636964D01*
X13088347Y-16677285D01*
X13082677Y-16681769D01*
X13082641Y-16681723D01*
X13076798Y-16686484D01*
X13076835Y-16686528D01*
X13071310Y-16691164D01*
X13018614Y-16747017D01*
X10936723Y-18828907D01*
X10880480Y-18861175D01*
X10727379Y-18901302D01*
X10695941Y-18905353D01*
X9097926Y-18905353D01*
X9082305Y-18903628D01*
X9082278Y-18903914D01*
X9074516Y-18903179D01*
X9005355Y-18905353D01*
X8975832Y-18905353D01*
X8968961Y-18906220D01*
X8963142Y-18906678D01*
X8916557Y-18908142D01*
X8916551Y-18908143D01*
X8897309Y-18913733D01*
X8878270Y-18917676D01*
X8858400Y-18920187D01*
X8858386Y-18920190D01*
X8815066Y-18937341D01*
X8809541Y-18939233D01*
X8764796Y-18952233D01*
X8764793Y-18952234D01*
X8747549Y-18962432D01*
X8730088Y-18970986D01*
X8711454Y-18978364D01*
X8706342Y-18981176D01*
X8646598Y-18996518D01*
X8568027Y-18996518D01*
X8500988Y-18976833D01*
X8480346Y-18960199D01*
X8478000Y-18957853D01*
X6490001Y-18957853D01*
X6476967Y-18970886D01*
X6470316Y-18993539D01*
X6417512Y-19039294D01*
X6366001Y-19050500D01*
X5677500Y-19050500D01*
X5677491Y-19050500D01*
X5677490Y-19050501D01*
X5570049Y-19062052D01*
X5570037Y-19062054D01*
X5518527Y-19073260D01*
X5415999Y-19107385D01*
X5370797Y-19136434D01*
X5303757Y-19156117D01*
X5252247Y-19144911D01*
X5133465Y-19090664D01*
X5133460Y-19090662D01*
X5133459Y-19090662D01*
X5110858Y-19084025D01*
X5066425Y-19070978D01*
X5066419Y-19070976D01*
X4968249Y-19056862D01*
X4924000Y-19050500D01*
X4923998Y-19050500D01*
X4748808Y-19050500D01*
X4697295Y-19039294D01*
X4595964Y-18993016D01*
X4528927Y-18973331D01*
X4528923Y-18973330D01*
X4528920Y-18973329D01*
X4528918Y-18973329D01*
X4507154Y-18970199D01*
X4495499Y-18968524D01*
X4431944Y-18939498D01*
X4425467Y-18933467D01*
X3949853Y-18457853D01*
X6490000Y-18457853D01*
X7465000Y-18457853D01*
X7465000Y-17707853D01*
X7965000Y-17707853D01*
X7965000Y-18457853D01*
X8880638Y-18457853D01*
X8947677Y-18477538D01*
X8968319Y-18494172D01*
X8980000Y-18505853D01*
X9243000Y-18505853D01*
X9243000Y-18505852D01*
X9242999Y-17805853D01*
X9743000Y-17805853D01*
X9743000Y-18505853D01*
X10467999Y-18505853D01*
X10467999Y-18482545D01*
X10467998Y-18482530D01*
X10457855Y-18383245D01*
X10404547Y-18222371D01*
X10404542Y-18222360D01*
X10315575Y-18078124D01*
X10315572Y-18078120D01*
X10195732Y-17958280D01*
X10195728Y-17958277D01*
X10051492Y-17869310D01*
X10051481Y-17869305D01*
X9890606Y-17815997D01*
X9791322Y-17805853D01*
X9743000Y-17805853D01*
X9242999Y-17805853D01*
X9242999Y-17805852D01*
X9194693Y-17805853D01*
X9194675Y-17805854D01*
X9095392Y-17815997D01*
X8934518Y-17869305D01*
X8934513Y-17869307D01*
X8849483Y-17921755D01*
X8782090Y-17940195D01*
X8715427Y-17919272D01*
X8696704Y-17903896D01*
X8658347Y-17865538D01*
X8509124Y-17773496D01*
X8509119Y-17773494D01*
X8342697Y-17718347D01*
X8342690Y-17718346D01*
X8239986Y-17707853D01*
X7965000Y-17707853D01*
X7465000Y-17707853D01*
X7190029Y-17707853D01*
X7190012Y-17707854D01*
X7087302Y-17718347D01*
X6920880Y-17773494D01*
X6920875Y-17773496D01*
X6771654Y-17865537D01*
X6647684Y-17989507D01*
X6555643Y-18138728D01*
X6555641Y-18138733D01*
X6500494Y-18305155D01*
X6500493Y-18305162D01*
X6490000Y-18407866D01*
X6490000Y-18457853D01*
X3949853Y-18457853D01*
X3283165Y-17791165D01*
X3249680Y-17729842D01*
X3254664Y-17660150D01*
X3271582Y-17629170D01*
X3293351Y-17600091D01*
X3293354Y-17600086D01*
X3343596Y-17465379D01*
X3343598Y-17465372D01*
X3349999Y-17405844D01*
X3350000Y-17405827D01*
X3350000Y-16758000D01*
X2433686Y-16758000D01*
X2459493Y-16717844D01*
X2500000Y-16579889D01*
X2500000Y-16436111D01*
X2459493Y-16298156D01*
X2433686Y-16258000D01*
X3350000Y-16258000D01*
X3350000Y-15610172D01*
X3349999Y-15610155D01*
X3343598Y-15550627D01*
X3343596Y-15550620D01*
X3293354Y-15415913D01*
X3293350Y-15415906D01*
X3207190Y-15300812D01*
X3207187Y-15300809D01*
X3092093Y-15214649D01*
X3092086Y-15214645D01*
X2957379Y-15164403D01*
X2957372Y-15164401D01*
X2897844Y-15158000D01*
X2250000Y-15158000D01*
X2250000Y-16072498D01*
X2142315Y-16023320D01*
X2035763Y-16008000D01*
X1964237Y-16008000D01*
X1857685Y-16023320D01*
X1750000Y-16072498D01*
X1750000Y-15158000D01*
X1574500Y-15158000D01*
X1507461Y-15138315D01*
X1461706Y-15085511D01*
X1450500Y-15034000D01*
X1450500Y-12852499D01*
X1470185Y-12785460D01*
X1522989Y-12739705D01*
X1574500Y-12728499D01*
X2847871Y-12728499D01*
X2847872Y-12728499D01*
X2907483Y-12722091D01*
X3042331Y-12671796D01*
X3157546Y-12585546D01*
X3243796Y-12470331D01*
X3294091Y-12335483D01*
X3297862Y-12300401D01*
X3324599Y-12235855D01*
X3381990Y-12196006D01*
X3451816Y-12193511D01*
X3511905Y-12229163D01*
X3522726Y-12242536D01*
X3539956Y-12267143D01*
X3700858Y-12428045D01*
X3700861Y-12428047D01*
X3887266Y-12558568D01*
X4093504Y-12654739D01*
X4313308Y-12713635D01*
X4475230Y-12727801D01*
X4539998Y-12733468D01*
X4540000Y-12733468D01*
X4540002Y-12733468D01*
X4596807Y-12728498D01*
X4766692Y-12713635D01*
X4986496Y-12654739D01*
X5192734Y-12558568D01*
X5379139Y-12428047D01*
X5540047Y-12267139D01*
X5670568Y-12080734D01*
X5697618Y-12022724D01*
X5743790Y-11970285D01*
X5810983Y-11951133D01*
X5877865Y-11971348D01*
X5922382Y-12022725D01*
X5949429Y-12080728D01*
X5949432Y-12080734D01*
X6079954Y-12267141D01*
X6240858Y-12428045D01*
X6240861Y-12428047D01*
X6427266Y-12558568D01*
X6633504Y-12654739D01*
X6853308Y-12713635D01*
X7015230Y-12727801D01*
X7079998Y-12733468D01*
X7080000Y-12733468D01*
X7080002Y-12733468D01*
X7136807Y-12728498D01*
X7306692Y-12713635D01*
X7526496Y-12654739D01*
X7732734Y-12558568D01*
X7919139Y-12428047D01*
X8080047Y-12267139D01*
X8210568Y-12080734D01*
X8237618Y-12022724D01*
X8283790Y-11970285D01*
X8350983Y-11951133D01*
X8417865Y-11971348D01*
X8462382Y-12022725D01*
X8489429Y-12080728D01*
X8489432Y-12080734D01*
X8619954Y-12267141D01*
X8780858Y-12428045D01*
X8780861Y-12428047D01*
X8967266Y-12558568D01*
X9173504Y-12654739D01*
X9393308Y-12713635D01*
X9555230Y-12727801D01*
X9619998Y-12733468D01*
X9620000Y-12733468D01*
X9620002Y-12733468D01*
X9676807Y-12728498D01*
X9846692Y-12713635D01*
X10066496Y-12654739D01*
X10272734Y-12558568D01*
X10459139Y-12428047D01*
X10620047Y-12267139D01*
X10750568Y-12080734D01*
X10777618Y-12022724D01*
X10823790Y-11970285D01*
X10890983Y-11951133D01*
X10957865Y-11971348D01*
X11002382Y-12022725D01*
X11029429Y-12080728D01*
X11029432Y-12080734D01*
X11159954Y-12267141D01*
X11320858Y-12428045D01*
X11320861Y-12428047D01*
X11507266Y-12558568D01*
X11713504Y-12654739D01*
X11933308Y-12713635D01*
X12095230Y-12727801D01*
X12159998Y-12733468D01*
X12160000Y-12733468D01*
X12160002Y-12733468D01*
X12216807Y-12728498D01*
X12386692Y-12713635D01*
X12606496Y-12654739D01*
X12812734Y-12558568D01*
X12999139Y-12428047D01*
X13160047Y-12267139D01*
X13290568Y-12080734D01*
X13386739Y-11874496D01*
X13445635Y-11654692D01*
X13465468Y-11428000D01*
X13445635Y-11201308D01*
X13386739Y-10981504D01*
X13290568Y-10775266D01*
X13234802Y-10695623D01*
X13212474Y-10629416D01*
X13229486Y-10561649D01*
X13280434Y-10513837D01*
X13336377Y-10500500D01*
X14975524Y-10500500D01*
X15029275Y-10512756D01*
G37*
%TD.AperFunction*%
%TD*%
%TA.AperFunction,Conductor*%
%TO.N,/SEG_L_0*%
G36*
X28889040Y-4589685D02*
G01*
X28923577Y-4622878D01*
X28940337Y-4646815D01*
X29101186Y-4807663D01*
X29212026Y-4885275D01*
X29255651Y-4939852D01*
X29262843Y-5009350D01*
X29231321Y-5071705D01*
X29228583Y-5074530D01*
X24714659Y-9588454D01*
X24714652Y-9588462D01*
X24653466Y-9662567D01*
X24653462Y-9662572D01*
X24627164Y-9701430D01*
X24627155Y-9701445D01*
X24581114Y-9785763D01*
X24581109Y-9785775D01*
X24543872Y-9924748D01*
X24543346Y-9929145D01*
X24515835Y-9993371D01*
X24507905Y-10002093D01*
X24231352Y-10278646D01*
X24211427Y-10293939D01*
X24211699Y-10294328D01*
X24075671Y-10389575D01*
X24009465Y-10411902D01*
X24004548Y-10412000D01*
X23645577Y-10412000D01*
X23578538Y-10392315D01*
X23546311Y-10362311D01*
X23477547Y-10270455D01*
X23477544Y-10270452D01*
X23362335Y-10184206D01*
X23362328Y-10184202D01*
X23227482Y-10133908D01*
X23227483Y-10133908D01*
X23167883Y-10127501D01*
X23167881Y-10127500D01*
X23167873Y-10127500D01*
X23167865Y-10127500D01*
X21799500Y-10127500D01*
X21732461Y-10107815D01*
X21686706Y-10055011D01*
X21675500Y-10003500D01*
X21675500Y-6684738D01*
X21677224Y-6669125D01*
X21676938Y-6669098D01*
X21677671Y-6661336D01*
X21677672Y-6661333D01*
X21675499Y-6592203D01*
X21675500Y-6562650D01*
X21674629Y-6555758D01*
X21674172Y-6549946D01*
X21672709Y-6503372D01*
X21667122Y-6484144D01*
X21663174Y-6465084D01*
X21660663Y-6445204D01*
X21643513Y-6401888D01*
X21641620Y-6396361D01*
X21633935Y-6369913D01*
X21634132Y-6300043D01*
X21672071Y-6241372D01*
X21735708Y-6212526D01*
X21754486Y-6212394D01*
X21754486Y-6211500D01*
X21762288Y-6211500D01*
X21782323Y-6211500D01*
X21801721Y-6213026D01*
X21821501Y-6216159D01*
X21821502Y-6216160D01*
X21821502Y-6216159D01*
X21821503Y-6216160D01*
X21867890Y-6211775D01*
X21873729Y-6211500D01*
X25539257Y-6211500D01*
X25554877Y-6213224D01*
X25554904Y-6212939D01*
X25562660Y-6213671D01*
X25562667Y-6213673D01*
X25631814Y-6211500D01*
X25661350Y-6211500D01*
X25668228Y-6210630D01*
X25674041Y-6210172D01*
X25720627Y-6208709D01*
X25739869Y-6203117D01*
X25758912Y-6199174D01*
X25778792Y-6196664D01*
X25822122Y-6179507D01*
X25827646Y-6177617D01*
X25831396Y-6176527D01*
X25872390Y-6164618D01*
X25889629Y-6154422D01*
X25907103Y-6145862D01*
X25925727Y-6138488D01*
X25925727Y-6138487D01*
X25925732Y-6138486D01*
X25963449Y-6111082D01*
X25968305Y-6107892D01*
X26008420Y-6084170D01*
X26022589Y-6069999D01*
X26037379Y-6057368D01*
X26053587Y-6045594D01*
X26083299Y-6009676D01*
X26087212Y-6005376D01*
X26603203Y-5489385D01*
X26649265Y-5460261D01*
X27832668Y-5038651D01*
X27837423Y-5037170D01*
X27846496Y-5034739D01*
X27853079Y-5031668D01*
X27858444Y-5029467D01*
X27869796Y-5025424D01*
X27875864Y-5023100D01*
X27936876Y-4994957D01*
X27936886Y-4994949D01*
X27942457Y-4991635D01*
X27942568Y-4991822D01*
X27956866Y-4983272D01*
X28052734Y-4938568D01*
X28239139Y-4808047D01*
X28400047Y-4647139D01*
X28417035Y-4622876D01*
X28471613Y-4579251D01*
X28518611Y-4570000D01*
X28822001Y-4570000D01*
X28889040Y-4589685D01*
G37*
%TD.AperFunction*%
%TD*%
%TA.AperFunction,Conductor*%
%TO.N,/SEG_L_1*%
G36*
X31170854Y-4564463D02*
G01*
X31206269Y-4624693D01*
X31210000Y-4654883D01*
X31210000Y-6296637D01*
X31190315Y-6363676D01*
X31173681Y-6384318D01*
X27711095Y-9846903D01*
X27674427Y-9872243D01*
X26896207Y-10223499D01*
X26896208Y-10223499D01*
X26855271Y-10244263D01*
X26855266Y-10244266D01*
X26850336Y-10247382D01*
X26850155Y-10247095D01*
X26833625Y-10257160D01*
X26747269Y-10297430D01*
X26747268Y-10297430D01*
X26615671Y-10389575D01*
X26549465Y-10411902D01*
X26544548Y-10412000D01*
X25715452Y-10412000D01*
X25648413Y-10392315D01*
X25644329Y-10389575D01*
X25512734Y-10297432D01*
X25512732Y-10297431D01*
X25306497Y-10201261D01*
X25306491Y-10201259D01*
X25127691Y-10153350D01*
X25068031Y-10116985D01*
X25037502Y-10054138D01*
X25045797Y-9984762D01*
X25072099Y-9945900D01*
X29741921Y-5276078D01*
X29787976Y-5246958D01*
X30372673Y-5038648D01*
X30377408Y-5037173D01*
X30386496Y-5034739D01*
X30393058Y-5031678D01*
X30398453Y-5029464D01*
X30409796Y-5025424D01*
X30412830Y-5024262D01*
X30415862Y-5023101D01*
X30415862Y-5023100D01*
X30415864Y-5023100D01*
X30476876Y-4994957D01*
X30476886Y-4994949D01*
X30482457Y-4991635D01*
X30482568Y-4991822D01*
X30496866Y-4983272D01*
X30592734Y-4938568D01*
X30779139Y-4808047D01*
X30940047Y-4647139D01*
X30984425Y-4583759D01*
X31039001Y-4540135D01*
X31108499Y-4532941D01*
X31170854Y-4564463D01*
G37*
%TD.AperFunction*%
%TD*%
%TA.AperFunction,Conductor*%
%TO.N,/SEG_L_2*%
G36*
X32210725Y-5082225D02*
G01*
X32253308Y-5093635D01*
X32415230Y-5107801D01*
X32479998Y-5113468D01*
X32480000Y-5113468D01*
X32480002Y-5113468D01*
X32536673Y-5108509D01*
X32706692Y-5093635D01*
X32749274Y-5082225D01*
X32781368Y-5078000D01*
X33755500Y-5078000D01*
X33822539Y-5097685D01*
X33868294Y-5150489D01*
X33879500Y-5202000D01*
X33879500Y-8464137D01*
X33859815Y-8531176D01*
X33807011Y-8576931D01*
X33737853Y-8586875D01*
X33674297Y-8557850D01*
X33667819Y-8551818D01*
X33496000Y-8380000D01*
X31464000Y-8380000D01*
X31463999Y-8380000D01*
X30078724Y-9765274D01*
X30061064Y-9779931D01*
X29350468Y-10266129D01*
X29332856Y-10276171D01*
X29287264Y-10297432D01*
X29155671Y-10389575D01*
X29089465Y-10411902D01*
X29084548Y-10412000D01*
X28352281Y-10412000D01*
X28285242Y-10392315D01*
X28239487Y-10339511D01*
X28229543Y-10270353D01*
X28258568Y-10206797D01*
X28264574Y-10200346D01*
X31953340Y-6511580D01*
X32049698Y-6393407D01*
X32143909Y-6213049D01*
X32199887Y-6017418D01*
X32215337Y-5814524D01*
X32189630Y-5612672D01*
X32141759Y-5472624D01*
X32140395Y-5468065D01*
X32134054Y-5443433D01*
X32053329Y-5249692D01*
X32045715Y-5180238D01*
X32076860Y-5117694D01*
X32136874Y-5081916D01*
X32167791Y-5078000D01*
X32178632Y-5078000D01*
X32210725Y-5082225D01*
G37*
%TD.AperFunction*%
%TD*%
%TA.AperFunction,Conductor*%
%TO.N,VCC*%
G36*
X3751587Y-4843685D02*
G01*
X3755670Y-4846424D01*
X3887266Y-4938568D01*
X4093504Y-5034739D01*
X4093509Y-5034740D01*
X4093511Y-5034741D01*
X4145133Y-5048573D01*
X4313308Y-5093635D01*
X4475230Y-5107801D01*
X4539998Y-5113468D01*
X4540000Y-5113468D01*
X4540002Y-5113468D01*
X4596673Y-5108509D01*
X4766692Y-5093635D01*
X4986496Y-5034739D01*
X5192734Y-4938568D01*
X5286567Y-4872865D01*
X5352772Y-4850539D01*
X5420539Y-4867549D01*
X5445370Y-4886760D01*
X6020394Y-5461784D01*
X6030219Y-5474048D01*
X6030440Y-5473866D01*
X6035410Y-5479873D01*
X6035413Y-5479876D01*
X6035414Y-5479877D01*
X6085851Y-5527241D01*
X6106730Y-5548120D01*
X6112204Y-5552366D01*
X6116642Y-5556156D01*
X6150618Y-5588062D01*
X6150622Y-5588064D01*
X6168173Y-5597713D01*
X6184431Y-5608392D01*
X6200264Y-5620674D01*
X6222215Y-5630172D01*
X6243037Y-5639183D01*
X6248281Y-5641752D01*
X6289108Y-5664197D01*
X6308512Y-5669179D01*
X6326910Y-5675478D01*
X6345305Y-5683438D01*
X6391329Y-5690726D01*
X6397032Y-5691907D01*
X6442181Y-5703500D01*
X6462216Y-5703500D01*
X6481613Y-5705026D01*
X6501396Y-5708160D01*
X6503089Y-5708000D01*
X14233001Y-5708000D01*
X14233001Y-5714582D01*
X14239408Y-5785102D01*
X14239409Y-5785107D01*
X14289981Y-5947396D01*
X14377927Y-6092877D01*
X14498122Y-6213072D01*
X14643604Y-6301019D01*
X14643603Y-6301019D01*
X14805894Y-6351590D01*
X14805892Y-6351590D01*
X14876418Y-6357999D01*
X14957998Y-6357998D01*
X14957999Y-6357998D01*
X14958000Y-5708000D01*
X14233001Y-5708000D01*
X6503089Y-5708000D01*
X6547783Y-5703775D01*
X6553622Y-5703500D01*
X10045257Y-5703500D01*
X10060877Y-5705224D01*
X10060904Y-5704939D01*
X10068660Y-5705671D01*
X10068667Y-5705673D01*
X10137814Y-5703500D01*
X10167350Y-5703500D01*
X10174228Y-5702630D01*
X10180041Y-5702172D01*
X10226627Y-5700709D01*
X10245869Y-5695117D01*
X10264912Y-5691174D01*
X10284792Y-5688664D01*
X10328122Y-5671507D01*
X10333646Y-5669617D01*
X10337396Y-5668527D01*
X10378390Y-5656618D01*
X10395629Y-5646422D01*
X10413103Y-5637862D01*
X10431727Y-5630488D01*
X10431727Y-5630487D01*
X10431732Y-5630486D01*
X10469449Y-5603082D01*
X10474305Y-5599892D01*
X10514420Y-5576170D01*
X10528589Y-5561999D01*
X10543379Y-5549368D01*
X10559587Y-5537594D01*
X10589299Y-5501676D01*
X10593212Y-5497376D01*
X11224752Y-4865836D01*
X11286073Y-4832353D01*
X11355765Y-4837337D01*
X11383549Y-4851941D01*
X11507266Y-4938568D01*
X11713504Y-5034739D01*
X11713509Y-5034740D01*
X11713511Y-5034741D01*
X11745428Y-5043293D01*
X11933308Y-5093635D01*
X12140465Y-5111758D01*
X12146238Y-5112538D01*
X12146961Y-5112670D01*
X12151803Y-5113558D01*
X12680246Y-5133887D01*
X12701381Y-5137311D01*
X12701396Y-5137217D01*
X12709102Y-5138437D01*
X12709104Y-5138438D01*
X12755157Y-5145732D01*
X12760826Y-5146906D01*
X12805981Y-5158500D01*
X12826016Y-5158500D01*
X12845413Y-5160026D01*
X12865196Y-5163160D01*
X12911583Y-5158775D01*
X12917422Y-5158500D01*
X13320013Y-5158500D01*
X13432774Y-5162838D01*
X13437887Y-5162940D01*
X13502041Y-5160143D01*
X13502049Y-5160140D01*
X13504140Y-5159832D01*
X13522269Y-5158500D01*
X14132138Y-5158500D01*
X14199177Y-5178185D01*
X14219819Y-5194819D01*
X14233000Y-5208000D01*
X15084000Y-5208000D01*
X15458000Y-5581999D01*
X15458000Y-6357999D01*
X15539581Y-6357999D01*
X15610102Y-6351591D01*
X15610107Y-6351590D01*
X15678608Y-6330245D01*
X15748468Y-6329093D01*
X15807861Y-6365894D01*
X15837929Y-6428963D01*
X15839499Y-6448630D01*
X15839499Y-7256704D01*
X15839126Y-7263501D01*
X15839048Y-7264201D01*
X15839337Y-7273052D01*
X15839099Y-7273059D01*
X15839500Y-7277631D01*
X15839500Y-7295857D01*
X15839501Y-7295872D01*
X15845908Y-7355481D01*
X15845909Y-7355483D01*
X15861830Y-7398170D01*
X15863857Y-7404678D01*
X15864159Y-7405878D01*
X15866961Y-7414384D01*
X15888048Y-7468467D01*
X15896202Y-7490329D01*
X15940382Y-7549345D01*
X15943005Y-7553135D01*
X15950521Y-7564910D01*
X15970000Y-7631627D01*
X15970000Y-8260864D01*
X15957558Y-8314999D01*
X15955760Y-8318705D01*
X15955760Y-8318706D01*
X15952331Y-8326357D01*
X15927762Y-8392852D01*
X15926383Y-8396267D01*
X15910843Y-8431698D01*
X15853866Y-8656691D01*
X15853864Y-8656703D01*
X15840081Y-8823049D01*
X15814928Y-8888234D01*
X15758526Y-8929472D01*
X15688783Y-8933670D01*
X15652580Y-8919061D01*
X15649069Y-8916948D01*
X15481167Y-8839268D01*
X15481163Y-8839266D01*
X15300497Y-8799500D01*
X1953887Y-8799500D01*
X1953883Y-8799500D01*
X1816088Y-8814486D01*
X1640776Y-8873557D01*
X1482268Y-8968927D01*
X1482266Y-8968928D01*
X1482264Y-8968930D01*
X1463497Y-8986706D01*
X1417048Y-9030703D01*
X1411968Y-9035022D01*
X1383928Y-9056371D01*
X1383921Y-9056377D01*
X1371510Y-9068991D01*
X1334847Y-9093289D01*
X1335104Y-9093756D01*
X1329471Y-9096852D01*
X1328783Y-9097309D01*
X1328276Y-9097509D01*
X1328265Y-9097515D01*
X1290564Y-9124906D01*
X1285682Y-9128112D01*
X1245580Y-9151828D01*
X1231408Y-9166000D01*
X1216623Y-9178628D01*
X1200412Y-9190407D01*
X1170709Y-9226310D01*
X1166777Y-9230631D01*
X529727Y-9867681D01*
X468404Y-9901166D01*
X442046Y-9904000D01*
X346000Y-9904000D01*
X278961Y-9884315D01*
X233206Y-9831511D01*
X222000Y-9780000D01*
X222000Y-5199500D01*
X241685Y-5132461D01*
X294489Y-5086706D01*
X346000Y-5075500D01*
X726293Y-5075500D01*
X726294Y-5075500D01*
X800221Y-5070065D01*
X800222Y-5070064D01*
X800233Y-5070064D01*
X836100Y-5064761D01*
X836101Y-5064761D01*
X856794Y-5060130D01*
X908430Y-5048575D01*
X1038830Y-4987769D01*
X1097306Y-4949530D01*
X1141779Y-4910371D01*
X1205100Y-4880844D01*
X1274336Y-4890238D01*
X1294844Y-4901862D01*
X1347266Y-4938568D01*
X1553504Y-5034739D01*
X1553509Y-5034740D01*
X1553511Y-5034741D01*
X1605133Y-5048573D01*
X1773308Y-5093635D01*
X1935230Y-5107801D01*
X1999998Y-5113468D01*
X2000000Y-5113468D01*
X2000002Y-5113468D01*
X2056673Y-5108509D01*
X2226692Y-5093635D01*
X2446496Y-5034739D01*
X2652734Y-4938568D01*
X2784329Y-4846424D01*
X2850535Y-4824098D01*
X2855452Y-4824000D01*
X3684548Y-4824000D01*
X3751587Y-4843685D01*
G37*
%TD.AperFunction*%
%TD*%
%TA.AperFunction,Conductor*%
%TO.N,/SEG_L_5*%
G36*
X34942539Y-20185D02*
G01*
X34988294Y-72989D01*
X34999500Y-124500D01*
X34999500Y-4446000D01*
X34979815Y-4513039D01*
X34927011Y-4558794D01*
X34875500Y-4570000D01*
X33754257Y-4570000D01*
X33687218Y-4550315D01*
X33641463Y-4497511D01*
X33631519Y-4428353D01*
X33641873Y-4393598D01*
X33706739Y-4254496D01*
X33765635Y-4034692D01*
X33785468Y-3808000D01*
X33765635Y-3581308D01*
X33706739Y-3361504D01*
X33610568Y-3155266D01*
X33480047Y-2968861D01*
X33480045Y-2968858D01*
X33319141Y-2807954D01*
X33132734Y-2677432D01*
X33132732Y-2677431D01*
X32926497Y-2581261D01*
X32926488Y-2581258D01*
X32706697Y-2522366D01*
X32706693Y-2522365D01*
X32706692Y-2522365D01*
X32706691Y-2522364D01*
X32706686Y-2522364D01*
X32480002Y-2502532D01*
X32479998Y-2502532D01*
X32253313Y-2522364D01*
X32253302Y-2522366D01*
X32033511Y-2581258D01*
X32033502Y-2581261D01*
X31827270Y-2677430D01*
X31827266Y-2677432D01*
X31703553Y-2764055D01*
X31637348Y-2786382D01*
X31569581Y-2769370D01*
X31544751Y-2750160D01*
X30948803Y-2154212D01*
X30938980Y-2141950D01*
X30938759Y-2142134D01*
X30933786Y-2136123D01*
X30915159Y-2118631D01*
X30883364Y-2088773D01*
X30872919Y-2078328D01*
X30862475Y-2067883D01*
X30856986Y-2063625D01*
X30852561Y-2059847D01*
X30818582Y-2027938D01*
X30818580Y-2027936D01*
X30818577Y-2027935D01*
X30801029Y-2018288D01*
X30784763Y-2007604D01*
X30768933Y-1995325D01*
X30726168Y-1976818D01*
X30720922Y-1974248D01*
X30680093Y-1951803D01*
X30680092Y-1951802D01*
X30660693Y-1946822D01*
X30642281Y-1940518D01*
X30623898Y-1932562D01*
X30623892Y-1932560D01*
X30577874Y-1925272D01*
X30572152Y-1924087D01*
X30527021Y-1912500D01*
X30527019Y-1912500D01*
X30506984Y-1912500D01*
X30487586Y-1910973D01*
X30480162Y-1909797D01*
X30467805Y-1907840D01*
X30467804Y-1907840D01*
X30421416Y-1912225D01*
X30415578Y-1912500D01*
X28752737Y-1912500D01*
X28737120Y-1910776D01*
X28737093Y-1911062D01*
X28729331Y-1910327D01*
X28660203Y-1912500D01*
X28630650Y-1912500D01*
X28629929Y-1912590D01*
X28623757Y-1913369D01*
X28617945Y-1913826D01*
X28571373Y-1915290D01*
X28571372Y-1915290D01*
X28552129Y-1920881D01*
X28533079Y-1924825D01*
X28513211Y-1927334D01*
X28513209Y-1927335D01*
X28469884Y-1944488D01*
X28464357Y-1946380D01*
X28419610Y-1959381D01*
X28419609Y-1959382D01*
X28402367Y-1969579D01*
X28384899Y-1978137D01*
X28366269Y-1985513D01*
X28366267Y-1985514D01*
X28328576Y-2012898D01*
X28323694Y-2016105D01*
X28283579Y-2039830D01*
X28269408Y-2054000D01*
X28254623Y-2066628D01*
X28238412Y-2078407D01*
X28208709Y-2114310D01*
X28204777Y-2118631D01*
X28196796Y-2126611D01*
X28150730Y-2155738D01*
X26967334Y-2577347D01*
X26962575Y-2578829D01*
X26953506Y-2581260D01*
X26946934Y-2584324D01*
X26941546Y-2586534D01*
X26929714Y-2590750D01*
X26929706Y-2590752D01*
X26929709Y-2590752D01*
X26923238Y-2593243D01*
X26923232Y-2593245D01*
X26923234Y-2593245D01*
X26863121Y-2621042D01*
X26857574Y-2624347D01*
X26857461Y-2624158D01*
X26843133Y-2632726D01*
X26747271Y-2677428D01*
X26747264Y-2677432D01*
X26560858Y-2807954D01*
X26399954Y-2968858D01*
X26269430Y-3155268D01*
X26269430Y-3155269D01*
X26242380Y-3213276D01*
X26196207Y-3265714D01*
X26129013Y-3284865D01*
X26062132Y-3264648D01*
X26017617Y-3213273D01*
X25990568Y-3155266D01*
X25860047Y-2968861D01*
X25860045Y-2968858D01*
X25699141Y-2807954D01*
X25512734Y-2677432D01*
X25512732Y-2677431D01*
X25306497Y-2581261D01*
X25306488Y-2581258D01*
X25086697Y-2522366D01*
X25086693Y-2522365D01*
X25086692Y-2522365D01*
X25086691Y-2522364D01*
X25086686Y-2522364D01*
X24860002Y-2502532D01*
X24859998Y-2502532D01*
X24633313Y-2522364D01*
X24633302Y-2522366D01*
X24413511Y-2581258D01*
X24413502Y-2581261D01*
X24207267Y-2677431D01*
X24207265Y-2677432D01*
X24020858Y-2807954D01*
X23859954Y-2968858D01*
X23729431Y-3155266D01*
X23704676Y-3208353D01*
X23702383Y-3213273D01*
X23702106Y-3213866D01*
X23655933Y-3266305D01*
X23588739Y-3285456D01*
X23521858Y-3265240D01*
X23477342Y-3213865D01*
X23450134Y-3155517D01*
X23319657Y-2969179D01*
X23158820Y-2808342D01*
X22972482Y-2677865D01*
X22766328Y-2581734D01*
X22570000Y-2529127D01*
X22570000Y-3492314D01*
X22558045Y-3480359D01*
X22445148Y-3422835D01*
X22351481Y-3408000D01*
X22288519Y-3408000D01*
X22194852Y-3422835D01*
X22081955Y-3480359D01*
X22069999Y-3492314D01*
X22069999Y-2529127D01*
X21873672Y-2581734D01*
X21667517Y-2677865D01*
X21481183Y-2808339D01*
X21373333Y-2916189D01*
X21312010Y-2949673D01*
X21242318Y-2944689D01*
X21197971Y-2916188D01*
X18977195Y-695412D01*
X18967372Y-683150D01*
X18967151Y-683334D01*
X18962178Y-677323D01*
X18943551Y-659831D01*
X18911756Y-629973D01*
X18901311Y-619528D01*
X18890867Y-609083D01*
X18885378Y-604825D01*
X18880953Y-601047D01*
X18846974Y-569138D01*
X18846972Y-569136D01*
X18846969Y-569135D01*
X18829421Y-559488D01*
X18813155Y-548804D01*
X18797325Y-536525D01*
X18754560Y-518018D01*
X18749314Y-515448D01*
X18708485Y-493003D01*
X18708484Y-493002D01*
X18689085Y-488022D01*
X18670673Y-481718D01*
X18652290Y-473762D01*
X18652284Y-473760D01*
X18606266Y-466472D01*
X18600544Y-465287D01*
X18555413Y-453700D01*
X18555411Y-453700D01*
X18535376Y-453700D01*
X18515978Y-452173D01*
X18508554Y-450997D01*
X18496197Y-449040D01*
X18496196Y-449040D01*
X18449808Y-453425D01*
X18443970Y-453700D01*
X8113537Y-453700D01*
X8097920Y-451976D01*
X8097893Y-452262D01*
X8090131Y-451527D01*
X8021003Y-453700D01*
X7991450Y-453700D01*
X7990729Y-453790D01*
X7984557Y-454569D01*
X7978745Y-455026D01*
X7932172Y-456490D01*
X7932169Y-456491D01*
X7912926Y-462081D01*
X7893883Y-466025D01*
X7874004Y-468536D01*
X7874003Y-468537D01*
X7830678Y-485690D01*
X7825152Y-487582D01*
X7780408Y-500583D01*
X7780404Y-500585D01*
X7763165Y-510780D01*
X7745698Y-519337D01*
X7727069Y-526712D01*
X7727067Y-526713D01*
X7689364Y-554106D01*
X7684482Y-557312D01*
X7644380Y-581028D01*
X7630208Y-595200D01*
X7615423Y-607828D01*
X7599212Y-619607D01*
X7569509Y-655510D01*
X7565577Y-659831D01*
X5475248Y-2750159D01*
X5413925Y-2783644D01*
X5344233Y-2778660D01*
X5316445Y-2764054D01*
X5193352Y-2677865D01*
X5192734Y-2677432D01*
X5192730Y-2677430D01*
X4986497Y-2581261D01*
X4986488Y-2581258D01*
X4766697Y-2522366D01*
X4766693Y-2522365D01*
X4766692Y-2522365D01*
X4766691Y-2522364D01*
X4766686Y-2522364D01*
X4540002Y-2502532D01*
X4539998Y-2502532D01*
X4313313Y-2522364D01*
X4313302Y-2522366D01*
X4093511Y-2581258D01*
X4093502Y-2581261D01*
X3887267Y-2677431D01*
X3887265Y-2677432D01*
X3700858Y-2807954D01*
X3539954Y-2968858D01*
X3409433Y-3155264D01*
X3409432Y-3155266D01*
X3382382Y-3213276D01*
X3382106Y-3213867D01*
X3335933Y-3266306D01*
X3268739Y-3285457D01*
X3201858Y-3265241D01*
X3157342Y-3213865D01*
X3130135Y-3155520D01*
X3130134Y-3155518D01*
X2999657Y-2969179D01*
X2838820Y-2808342D01*
X2652482Y-2677865D01*
X2446328Y-2581734D01*
X2250000Y-2529127D01*
X2250000Y-3492313D01*
X2238045Y-3480359D01*
X2125148Y-3422835D01*
X2031481Y-3408000D01*
X1968519Y-3408000D01*
X1874852Y-3422835D01*
X1761955Y-3480359D01*
X1750000Y-3492314D01*
X1750000Y-2529127D01*
X1553671Y-2581734D01*
X1347517Y-2677865D01*
X1161179Y-2808342D01*
X1000342Y-2969179D01*
X869865Y-3155517D01*
X773734Y-3361673D01*
X773730Y-3361682D01*
X721127Y-3557999D01*
X721128Y-3558000D01*
X1684314Y-3558000D01*
X1672359Y-3569955D01*
X1614835Y-3682852D01*
X1595014Y-3808000D01*
X1614835Y-3933148D01*
X1672359Y-4046045D01*
X1684314Y-4058000D01*
X721128Y-4058000D01*
X773730Y-4254317D01*
X773734Y-4254326D01*
X838676Y-4393595D01*
X849168Y-4462673D01*
X820648Y-4526457D01*
X762172Y-4564696D01*
X726294Y-4570000D01*
X346000Y-4570000D01*
X278961Y-4550315D01*
X233206Y-4497511D01*
X222000Y-4446000D01*
X222000Y-124500D01*
X241685Y-57461D01*
X294489Y-11706D01*
X346000Y-500D01*
X34875500Y-500D01*
X34942539Y-20185D01*
G37*
%TD.AperFunction*%
%TD*%
%TA.AperFunction,Conductor*%
%TO.N,/SEG_L_1*%
G36*
X8124956Y-2591175D02*
G01*
X8128212Y-2593472D01*
X8294527Y-2759787D01*
X8297954Y-2768060D01*
X8297275Y-2771987D01*
X7823229Y-4102568D01*
X7817225Y-4109211D01*
X7808281Y-4109662D01*
X7807743Y-4109456D01*
X7083787Y-3810562D01*
X7077448Y-3804237D01*
X7077437Y-3804212D01*
X6778543Y-3080256D01*
X6778554Y-3071301D01*
X6784893Y-3064976D01*
X6785389Y-3064785D01*
X8116014Y-2590724D01*
X8124956Y-2591175D01*
G37*
%TD.AperFunction*%
%TD*%
%TA.AperFunction,Conductor*%
%TO.N,/SEG_L_1*%
G36*
X26672252Y-3506541D02*
G01*
X26688939Y-3513431D01*
X27396212Y-3805437D01*
X27402551Y-3811762D01*
X27402562Y-3811787D01*
X27701456Y-4535743D01*
X27701445Y-4544698D01*
X27695106Y-4551023D01*
X27694568Y-4551229D01*
X26363987Y-5025275D01*
X26355043Y-5024824D01*
X26351787Y-5022527D01*
X26185472Y-4856212D01*
X26182045Y-4847939D01*
X26182722Y-4844018D01*
X26656771Y-3513428D01*
X26662774Y-3506788D01*
X26671718Y-3506337D01*
X26672252Y-3506541D01*
G37*
%TD.AperFunction*%
%TD*%
%TA.AperFunction,Conductor*%
%TO.N,/SEG_L_0*%
G36*
X10664956Y-2591175D02*
G01*
X10668212Y-2593472D01*
X10834527Y-2759787D01*
X10837954Y-2768060D01*
X10837275Y-2771987D01*
X10711192Y-3125881D01*
X10708444Y-3130227D01*
X10670073Y-3168600D01*
X10669696Y-3168944D01*
X10636808Y-3196542D01*
X10636802Y-3196548D01*
X10615342Y-3233719D01*
X10615068Y-3234149D01*
X10590448Y-3269311D01*
X10590445Y-3269318D01*
X10587081Y-3281872D01*
X10585913Y-3284692D01*
X10579412Y-3295955D01*
X10571958Y-3338224D01*
X10571847Y-3338722D01*
X10560735Y-3380193D01*
X10560735Y-3380196D01*
X10562986Y-3405918D01*
X10564478Y-3422970D01*
X10564500Y-3423463D01*
X10564500Y-3535606D01*
X10563821Y-3539533D01*
X10363229Y-4102568D01*
X10357225Y-4109211D01*
X10348281Y-4109662D01*
X10347743Y-4109456D01*
X9623787Y-3810562D01*
X9617448Y-3804237D01*
X9617437Y-3804212D01*
X9318543Y-3080256D01*
X9318554Y-3071301D01*
X9324893Y-3064976D01*
X9325389Y-3064785D01*
X10656014Y-2590724D01*
X10664956Y-2591175D01*
G37*
%TD.AperFunction*%
%TD*%
%TA.AperFunction,Conductor*%
%TO.N,/SEG_L_6*%
G36*
X30724683Y-9949943D02*
G01*
X31418056Y-10643316D01*
X31421483Y-10651589D01*
X31419439Y-10658196D01*
X30513635Y-11982065D01*
X30506135Y-11986958D01*
X30497372Y-11985114D01*
X30495716Y-11983741D01*
X29939293Y-11428707D01*
X29384258Y-10872283D01*
X29380841Y-10864005D01*
X29384278Y-10855737D01*
X29385925Y-10854370D01*
X30709803Y-9948559D01*
X30718566Y-9946716D01*
X30724683Y-9949943D01*
G37*
%TD.AperFunction*%
%TD*%
%TA.AperFunction,Conductor*%
%TO.N,/SEG_L_2*%
G36*
X28646740Y-10412000D02*
G01*
X28702429Y-10467689D01*
X28705856Y-10475962D01*
X28704820Y-10480775D01*
X28143763Y-11723822D01*
X28137236Y-11729953D01*
X28128634Y-11729824D01*
X27403787Y-11430562D01*
X27397448Y-11424237D01*
X27397437Y-11424212D01*
X27098175Y-10699365D01*
X27098186Y-10690410D01*
X27104177Y-10684236D01*
X27707328Y-10412000D01*
X28354593Y-10119853D01*
X28646740Y-10412000D01*
G37*
%TD.AperFunction*%
%TD*%
%TA.AperFunction,Conductor*%
%TO.N,VCC*%
G36*
X19820153Y-21090114D02*
G01*
X19820168Y-21090150D01*
X19935288Y-21370323D01*
X19935263Y-21379278D01*
X19930092Y-21385029D01*
X19398950Y-21676300D01*
X19390048Y-21677273D01*
X19385051Y-21674314D01*
X19103111Y-21392374D01*
X19099684Y-21384101D01*
X19103111Y-21375828D01*
X19106895Y-21373297D01*
X19804865Y-21083789D01*
X19813818Y-21083785D01*
X19820153Y-21090114D01*
G37*
%TD.AperFunction*%
%TD*%
%TA.AperFunction,Conductor*%
%TO.N,Net-(D1-K)*%
G36*
X17365946Y-7091427D02*
G01*
X17368199Y-7094591D01*
X18066077Y-8532428D01*
X18066606Y-8541367D01*
X18060660Y-8548063D01*
X18060039Y-8548342D01*
X17244488Y-8887135D01*
X17235534Y-8887144D01*
X17235512Y-8887135D01*
X16419960Y-8548342D01*
X16413634Y-8542003D01*
X16413643Y-8533049D01*
X16413906Y-8532462D01*
X17111800Y-7094591D01*
X17118497Y-7088645D01*
X17122327Y-7088000D01*
X17357673Y-7088000D01*
X17365946Y-7091427D01*
G37*
%TD.AperFunction*%
%TD*%
%TA.AperFunction,Conductor*%
%TO.N,Net-(D1-K)*%
G36*
X17248269Y-6355278D02*
G01*
X17248278Y-6355287D01*
X18132329Y-7240320D01*
X18135751Y-7248595D01*
X18132917Y-7256224D01*
X17368500Y-8143935D01*
X17360505Y-8147968D01*
X17359634Y-8148000D01*
X17120366Y-8148000D01*
X17112093Y-8144573D01*
X17111500Y-8143935D01*
X16347082Y-7256224D01*
X16344280Y-7247718D01*
X16347668Y-7240322D01*
X17231722Y-6355286D01*
X17239994Y-6351856D01*
X17248269Y-6355278D01*
G37*
%TD.AperFunction*%
%TD*%
%TA.AperFunction,Conductor*%
%TO.N,Net-(D1-A)*%
G36*
X16900063Y-2987339D02*
G01*
X16900342Y-2987960D01*
X17239135Y-3803511D01*
X17239144Y-3812465D01*
X17239135Y-3812487D01*
X16900342Y-4628039D01*
X16894003Y-4634365D01*
X16885049Y-4634356D01*
X16884428Y-4634077D01*
X15446591Y-3936199D01*
X15440645Y-3929503D01*
X15440000Y-3925673D01*
X15440000Y-3690326D01*
X15443427Y-3682053D01*
X15446586Y-3679802D01*
X16884430Y-2981921D01*
X16893367Y-2981393D01*
X16900063Y-2987339D01*
G37*
%TD.AperFunction*%
%TD*%
%TA.AperFunction,Conductor*%
%TO.N,Net-(D1-A)*%
G36*
X15567419Y-3427135D02*
G01*
X16076502Y-3679775D01*
X16082388Y-3686521D01*
X16083000Y-3690254D01*
X16083000Y-3925745D01*
X16079573Y-3934018D01*
X16076501Y-3936225D01*
X15567420Y-4188863D01*
X15558486Y-4189471D01*
X15553592Y-4186287D01*
X15322459Y-3934018D01*
X15214240Y-3815902D01*
X15211179Y-3807489D01*
X15214240Y-3800097D01*
X15553593Y-3429711D01*
X15561708Y-3425927D01*
X15567419Y-3427135D01*
G37*
%TD.AperFunction*%
%TD*%
%TA.AperFunction,Conductor*%
%TO.N,/SEG_4*%
G36*
X13016917Y-22452627D02*
G01*
X13020240Y-22456081D01*
X13367132Y-23009631D01*
X13368622Y-23018461D01*
X13365491Y-23024117D01*
X13025327Y-23364281D01*
X13017054Y-23367708D01*
X13010540Y-23365727D01*
X12383262Y-22945326D01*
X12378298Y-22937874D01*
X12378957Y-22931153D01*
X12537879Y-22545154D01*
X12544197Y-22538810D01*
X12546517Y-22538115D01*
X13008153Y-22450798D01*
X13016917Y-22452627D01*
G37*
%TD.AperFunction*%
%TD*%
%TA.AperFunction,Conductor*%
%TO.N,/SEG_4*%
G36*
X13942885Y-23321195D02*
G01*
X14634117Y-23607617D01*
X14640447Y-23613949D01*
X14640446Y-23622904D01*
X14634113Y-23629235D01*
X14632718Y-23629712D01*
X13821277Y-23851232D01*
X13814657Y-23851097D01*
X13369932Y-23709964D01*
X13363083Y-23704195D01*
X13362319Y-23695273D01*
X13365196Y-23690541D01*
X13702331Y-23353406D01*
X13709089Y-23350079D01*
X13936902Y-23320403D01*
X13942885Y-23321195D01*
G37*
%TD.AperFunction*%
%TD*%
%TA.AperFunction,Conductor*%
%TO.N,/SEG_5*%
G36*
X15840000Y-22074853D02*
G01*
X15840000Y-22574853D01*
X15455544Y-22633142D01*
X14954000Y-22453735D01*
X14953999Y-22453734D01*
X14692597Y-22360229D01*
X14685962Y-22354216D01*
X14685522Y-22345272D01*
X14691535Y-22338637D01*
X14692070Y-22338400D01*
X14953999Y-22230165D01*
X14953998Y-22230165D01*
X15390000Y-22050000D01*
X15840000Y-22074853D01*
G37*
%TD.AperFunction*%
%TD*%
%TA.AperFunction,Conductor*%
%TO.N,/SEG_6*%
G36*
X21091832Y-20325423D02*
G01*
X21812142Y-20576659D01*
X21818825Y-20582619D01*
X21819859Y-20589443D01*
X21750956Y-21048478D01*
X21746339Y-21056151D01*
X21744101Y-21057449D01*
X21359965Y-21226578D01*
X21351012Y-21226775D01*
X21344542Y-21220585D01*
X21344433Y-21220330D01*
X21077165Y-20572141D01*
X21076282Y-20567681D01*
X21076282Y-20567680D01*
X21076282Y-20336468D01*
X21079708Y-20328198D01*
X21087981Y-20324771D01*
X21091832Y-20325423D01*
G37*
%TD.AperFunction*%
%TD*%
%TA.AperFunction,Conductor*%
%TO.N,/SEG_6*%
G36*
X15840000Y-20804853D02*
G01*
X15840000Y-21304853D01*
X15716000Y-21323652D01*
X15458459Y-21362699D01*
X15452764Y-21362147D01*
X14692597Y-21090229D01*
X14685962Y-21084216D01*
X14685522Y-21075272D01*
X14691535Y-21068637D01*
X14692042Y-21068412D01*
X15387544Y-20781014D01*
X15392652Y-20780146D01*
X15840000Y-20804853D01*
G37*
%TD.AperFunction*%
%TD*%
%TA.AperFunction,Conductor*%
%TO.N,/SEG_7*%
G36*
X15828946Y-19534242D02*
G01*
X15837017Y-19538120D01*
X15840000Y-19545924D01*
X15840000Y-20024792D01*
X15836573Y-20033065D01*
X15830054Y-20036360D01*
X15458459Y-20092699D01*
X15452764Y-20092147D01*
X14692597Y-19820229D01*
X14685962Y-19814216D01*
X14685522Y-19805272D01*
X14691535Y-19798637D01*
X14692042Y-19798412D01*
X15387544Y-19511014D01*
X15392652Y-19510146D01*
X15828946Y-19534242D01*
G37*
%TD.AperFunction*%
%TD*%
%TA.AperFunction,Conductor*%
%TO.N,/SEG_7*%
G36*
X24627382Y-18195512D02*
G01*
X24791880Y-18257935D01*
X24798399Y-18264074D01*
X24799123Y-18266214D01*
X24906643Y-18726715D01*
X24905187Y-18735550D01*
X24900319Y-18739919D01*
X24267985Y-19043987D01*
X24259044Y-19044484D01*
X24254642Y-19041716D01*
X24089242Y-18876316D01*
X24085815Y-18868043D01*
X24086691Y-18863600D01*
X24392673Y-18118621D01*
X24398986Y-18112271D01*
X24407646Y-18112128D01*
X24627382Y-18195512D01*
G37*
%TD.AperFunction*%
%TD*%
%TA.AperFunction,Conductor*%
%TO.N,/SCL*%
G36*
X15578100Y-18076087D02*
G01*
X15579660Y-18077397D01*
X15716000Y-18213737D01*
X15928908Y-18426645D01*
X15716000Y-18530920D01*
X15716000Y-18530919D01*
X15715999Y-18530919D01*
X15542923Y-18615688D01*
X15536760Y-18616837D01*
X14673739Y-18541531D01*
X14665795Y-18537398D01*
X14663142Y-18531295D01*
X14652947Y-18447913D01*
X14628873Y-18251017D01*
X14631272Y-18242389D01*
X14638456Y-18238075D01*
X15569360Y-18074147D01*
X15578100Y-18076087D01*
G37*
%TD.AperFunction*%
%TD*%
%TA.AperFunction,Conductor*%
%TO.N,/SDA*%
G36*
X13853671Y-17004017D02*
G01*
X14633740Y-17258850D01*
X14640539Y-17264676D01*
X14641228Y-17273604D01*
X14635401Y-17280404D01*
X14634160Y-17280946D01*
X13886424Y-17557168D01*
X13878720Y-17557308D01*
X13797116Y-17530510D01*
X13689050Y-17495022D01*
X13684427Y-17492179D01*
X13347207Y-17154959D01*
X13343780Y-17146686D01*
X13347207Y-17138413D01*
X13352469Y-17135380D01*
X13847034Y-17003833D01*
X13853671Y-17004017D01*
G37*
%TD.AperFunction*%
%TD*%
%TA.AperFunction,Conductor*%
%TO.N,/SDA*%
G36*
X2784200Y-21266881D02*
G01*
X2790176Y-21272442D01*
X3330523Y-22349524D01*
X3331765Y-22354770D01*
X3331765Y-22588771D01*
X3328338Y-22597044D01*
X3320065Y-22600471D01*
X3318635Y-22600383D01*
X2010257Y-22439263D01*
X2002465Y-22434851D01*
X1999987Y-22427667D01*
X1999009Y-21595830D01*
X2002426Y-21587554D01*
X2006233Y-21585007D01*
X2775246Y-21266877D01*
X2784200Y-21266881D01*
G37*
%TD.AperFunction*%
%TD*%
%TA.AperFunction,Conductor*%
%TO.N,/DIG_1*%
G36*
X12898869Y-3505659D02*
G01*
X12904336Y-3510310D01*
X13457945Y-4405171D01*
X13459695Y-4411327D01*
X13459695Y-4645841D01*
X13456268Y-4654114D01*
X13447995Y-4657541D01*
X13447545Y-4657532D01*
X12171235Y-4608432D01*
X12163100Y-4604690D01*
X12159985Y-4596758D01*
X12159009Y-3815831D01*
X12162426Y-3807555D01*
X12166235Y-3805007D01*
X12889915Y-3505654D01*
X12898869Y-3505659D01*
G37*
%TD.AperFunction*%
%TD*%
%TA.AperFunction,Conductor*%
%TO.N,/DIG_2*%
G36*
X24132252Y-3506541D02*
G01*
X24148939Y-3513431D01*
X24856212Y-3805437D01*
X24862551Y-3811762D01*
X24862562Y-3811787D01*
X25161456Y-4535743D01*
X25161445Y-4544698D01*
X25155106Y-4551023D01*
X25154568Y-4551229D01*
X23823987Y-5025275D01*
X23815043Y-5024824D01*
X23811787Y-5022527D01*
X23645472Y-4856212D01*
X23642045Y-4847939D01*
X23642722Y-4844018D01*
X24116771Y-3513428D01*
X24122774Y-3506788D01*
X24131718Y-3506337D01*
X24132252Y-3506541D01*
G37*
%TD.AperFunction*%
%TD*%
%TA.AperFunction,Conductor*%
%TO.N,/DIG_2*%
G36*
X20517365Y-15402434D02*
G01*
X20520851Y-15404837D01*
X20688556Y-15572542D01*
X20691983Y-15580815D01*
X20691963Y-15581499D01*
X20679880Y-15787861D01*
X20675975Y-15795920D01*
X20670887Y-15798564D01*
X19825099Y-15998156D01*
X19816260Y-15996721D01*
X19811181Y-15990048D01*
X19729533Y-15710366D01*
X19730504Y-15701466D01*
X19736596Y-15696156D01*
X20508415Y-15402176D01*
X20517365Y-15402434D01*
G37*
%TD.AperFunction*%
%TD*%
%TA.AperFunction,Conductor*%
%TO.N,/SEG_0*%
G36*
X20978946Y-18264242D02*
G01*
X20987017Y-18268120D01*
X20990000Y-18275924D01*
X20990000Y-18754792D01*
X20986573Y-18763065D01*
X20980054Y-18766360D01*
X20608459Y-18822699D01*
X20602764Y-18822147D01*
X19842597Y-18550229D01*
X19835962Y-18544216D01*
X19835522Y-18535272D01*
X19841535Y-18528637D01*
X19842042Y-18528412D01*
X20537544Y-18241014D01*
X20542652Y-18240146D01*
X20978946Y-18264242D01*
G37*
%TD.AperFunction*%
%TD*%
%TA.AperFunction,Conductor*%
%TO.N,/SEG_0*%
G36*
X21398188Y-18117937D02*
G01*
X21401740Y-18120663D01*
X21743155Y-18507106D01*
X21746065Y-18515575D01*
X21743155Y-18522600D01*
X21401740Y-18909042D01*
X21393694Y-18912973D01*
X21389254Y-18912389D01*
X21379266Y-18909042D01*
X21344251Y-18897307D01*
X20956982Y-18767527D01*
X20950227Y-18761649D01*
X20949000Y-18756433D01*
X20949000Y-18273272D01*
X20952427Y-18264999D01*
X20956982Y-18262178D01*
X21389256Y-18117316D01*
X21398188Y-18117937D01*
G37*
%TD.AperFunction*%
%TD*%
%TA.AperFunction,Conductor*%
%TO.N,/SEG_1*%
G36*
X24443664Y-19404302D02*
G01*
X24790661Y-19776587D01*
X24793795Y-19784975D01*
X24791075Y-19792072D01*
X24460833Y-20186787D01*
X24452896Y-20190933D01*
X24444352Y-20188252D01*
X24443489Y-20187453D01*
X24161241Y-19898388D01*
X23994204Y-19731350D01*
X23990777Y-19723077D01*
X23994204Y-19714804D01*
X23995643Y-19713581D01*
X24428280Y-19402776D01*
X24436997Y-19400733D01*
X24443664Y-19404302D01*
G37*
%TD.AperFunction*%
%TD*%
%TA.AperFunction,Conductor*%
%TO.N,/SEG_1*%
G36*
X20649502Y-19556463D02*
G01*
X20650745Y-19557226D01*
X20873010Y-19713607D01*
X20877805Y-19721169D01*
X20875847Y-19729907D01*
X20874551Y-19731448D01*
X20707613Y-19898385D01*
X20707612Y-19898387D01*
X20649892Y-20055643D01*
X20643824Y-20062229D01*
X20635457Y-20062791D01*
X20633636Y-20062229D01*
X19850606Y-19820503D01*
X19843712Y-19814789D01*
X19842878Y-19805873D01*
X19848592Y-19798979D01*
X19850618Y-19798140D01*
X20640589Y-19555615D01*
X20649502Y-19556463D01*
G37*
%TD.AperFunction*%
%TD*%
%TA.AperFunction,Conductor*%
%TO.N,/SEG_2*%
G36*
X20978946Y-22074242D02*
G01*
X20987017Y-22078120D01*
X20990000Y-22085924D01*
X20990000Y-22564792D01*
X20986573Y-22573065D01*
X20980054Y-22576360D01*
X20608459Y-22632699D01*
X20602764Y-22632147D01*
X19842597Y-22360229D01*
X19835962Y-22354216D01*
X19835522Y-22345272D01*
X19841535Y-22338637D01*
X19842042Y-22338412D01*
X20537544Y-22051014D01*
X20542652Y-22050146D01*
X20978946Y-22074242D01*
G37*
%TD.AperFunction*%
%TD*%
%TA.AperFunction,Conductor*%
%TO.N,/SEG_2*%
G36*
X24446188Y-21927937D02*
G01*
X24449740Y-21930663D01*
X24791155Y-22317106D01*
X24794065Y-22325575D01*
X24791155Y-22332600D01*
X24449740Y-22719042D01*
X24441694Y-22722973D01*
X24437254Y-22722389D01*
X24427266Y-22719042D01*
X24392251Y-22707307D01*
X24004982Y-22577527D01*
X23998227Y-22571649D01*
X23997000Y-22566433D01*
X23997000Y-22083272D01*
X24000427Y-22074999D01*
X24004982Y-22072178D01*
X24437256Y-21927316D01*
X24446188Y-21927937D01*
G37*
%TD.AperFunction*%
%TD*%
%TA.AperFunction,Conductor*%
%TO.N,/SEG_L_4*%
G36*
X12667729Y-20093427D02*
G01*
X12669425Y-20095575D01*
X12935850Y-20529225D01*
X12937261Y-20538068D01*
X12933628Y-20544118D01*
X12548746Y-20884155D01*
X12540277Y-20887065D01*
X12533252Y-20884155D01*
X12148370Y-20544118D01*
X12144439Y-20536072D01*
X12146148Y-20529225D01*
X12412575Y-20095575D01*
X12419826Y-20090320D01*
X12422544Y-20090000D01*
X12659456Y-20090000D01*
X12667729Y-20093427D01*
G37*
%TD.AperFunction*%
%TD*%
%TA.AperFunction,Conductor*%
%TO.N,/SEG_L_3*%
G36*
X25588646Y-11729801D02*
G01*
X25594970Y-11736139D01*
X25595099Y-11744741D01*
X25112859Y-13020437D01*
X25106728Y-13026964D01*
X25101915Y-13028000D01*
X24618085Y-13028000D01*
X24609812Y-13024573D01*
X24607141Y-13020437D01*
X24124900Y-11744739D01*
X24125180Y-11735791D01*
X24131352Y-11729801D01*
X24855512Y-11428864D01*
X24864461Y-11428854D01*
X25588646Y-11729801D01*
G37*
%TD.AperFunction*%
%TD*%
%TA.AperFunction,Conductor*%
%TO.N,/SEG_L_3*%
G36*
X25099237Y-16077030D02*
G01*
X25102664Y-16085303D01*
X25101403Y-16090587D01*
X24692673Y-16898100D01*
X24685879Y-16903934D01*
X24678263Y-16903821D01*
X24293786Y-16765087D01*
X24287167Y-16759056D01*
X24286440Y-16757050D01*
X24256086Y-16641294D01*
X24165638Y-16296355D01*
X24166854Y-16287485D01*
X24171911Y-16282832D01*
X24585502Y-16085303D01*
X24607609Y-16074745D01*
X24612651Y-16073603D01*
X25090964Y-16073603D01*
X25099237Y-16077030D01*
G37*
%TD.AperFunction*%
%TD*%
%TA.AperFunction,Conductor*%
%TO.N,/SEG_L_2*%
G36*
X26861481Y-21430725D02*
G01*
X27341045Y-21910289D01*
X27344472Y-21918562D01*
X27341571Y-21926274D01*
X26852515Y-22484246D01*
X26844484Y-22488209D01*
X26839262Y-22487353D01*
X26452156Y-22327974D01*
X26445810Y-22321655D01*
X26445114Y-22319329D01*
X26357572Y-21856499D01*
X26359401Y-21847736D01*
X26361446Y-21845450D01*
X26845591Y-21430117D01*
X26854100Y-21427332D01*
X26861481Y-21430725D01*
G37*
%TD.AperFunction*%
%TD*%
%TA.AperFunction,Conductor*%
%TO.N,/SEG_L_6*%
G36*
X23773834Y-20680519D02*
G01*
X24191762Y-20852868D01*
X24198102Y-20859189D01*
X24199000Y-20863683D01*
X24199000Y-21346798D01*
X24195573Y-21355071D01*
X24190236Y-21358124D01*
X23739341Y-21475012D01*
X23730473Y-21473770D01*
X23727230Y-21470946D01*
X23404386Y-21062924D01*
X23401940Y-21054310D01*
X23405190Y-21047490D01*
X23761008Y-20683160D01*
X23769239Y-20679637D01*
X23773834Y-20680519D01*
G37*
%TD.AperFunction*%
%TD*%
%TA.AperFunction,Conductor*%
%TO.N,/SEG_L_7*%
G36*
X26573018Y-17389280D02*
G01*
X26575225Y-17392352D01*
X26827863Y-17901432D01*
X26828471Y-17910366D01*
X26825287Y-17915260D01*
X26454904Y-18254611D01*
X26446489Y-18257673D01*
X26439096Y-18254611D01*
X26068712Y-17915260D01*
X26064927Y-17907144D01*
X26066135Y-17901433D01*
X26318774Y-17392352D01*
X26325522Y-17386465D01*
X26329255Y-17385853D01*
X26564745Y-17385853D01*
X26573018Y-17389280D01*
G37*
%TD.AperFunction*%
%TD*%
%TA.AperFunction,Conductor*%
%TO.N,/SEG_L_7*%
G36*
X31922606Y-10870713D02*
G01*
X31923693Y-10871669D01*
X32247893Y-11195060D01*
X32477265Y-11423860D01*
X32480702Y-11432128D01*
X32480702Y-11432153D01*
X32480008Y-12218052D01*
X32476574Y-12226322D01*
X32470180Y-12229591D01*
X31345217Y-12411894D01*
X31336502Y-12409835D01*
X31335072Y-12408618D01*
X31163227Y-12236772D01*
X31163226Y-12236772D01*
X30985752Y-12059298D01*
X31906192Y-10872784D01*
X31913969Y-10868349D01*
X31922606Y-10870713D01*
G37*
%TD.AperFunction*%
%TD*%
%TA.AperFunction,Conductor*%
%TO.N,/SEG_L_0*%
G36*
X29212252Y-3506541D02*
G01*
X29228939Y-3513431D01*
X29936212Y-3805437D01*
X29942551Y-3811762D01*
X29942562Y-3811787D01*
X30241456Y-4535743D01*
X30241445Y-4544698D01*
X30235106Y-4551023D01*
X30234568Y-4551229D01*
X29806132Y-4703866D01*
X29806129Y-4703868D01*
X29806128Y-4703868D01*
X28897018Y-5027758D01*
X28720242Y-4850982D01*
X29196771Y-3513428D01*
X29202774Y-3506788D01*
X29211718Y-3506337D01*
X29212252Y-3506541D01*
G37*
%TD.AperFunction*%
%TD*%
%TA.AperFunction,Conductor*%
%TO.N,/SEG_L_0*%
G36*
X23588157Y-17643280D02*
G01*
X23590843Y-17647454D01*
X23781010Y-18155922D01*
X23780698Y-18164872D01*
X23777955Y-18168648D01*
X23407193Y-18508345D01*
X23398778Y-18511407D01*
X23391080Y-18508054D01*
X23031495Y-18153952D01*
X23028004Y-18145706D01*
X23029746Y-18139475D01*
X23334571Y-17645409D01*
X23341831Y-17640168D01*
X23344528Y-17639853D01*
X23579884Y-17639853D01*
X23588157Y-17643280D01*
G37*
%TD.AperFunction*%
%TD*%
%TA.AperFunction,Conductor*%
%TO.N,/SEG_L_1*%
G36*
X25888277Y-19045092D02*
G01*
X26528828Y-19306242D01*
X26535195Y-19312538D01*
X26535907Y-19319250D01*
X26448885Y-19779329D01*
X26443980Y-19786822D01*
X26441843Y-19787974D01*
X26057316Y-19946290D01*
X26048362Y-19946271D01*
X26042267Y-19940434D01*
X25707787Y-19226368D01*
X25707382Y-19217423D01*
X25710108Y-19213135D01*
X25875590Y-19047653D01*
X25883862Y-19044227D01*
X25888277Y-19045092D01*
G37*
%TD.AperFunction*%
%TD*%
%TA.AperFunction,Conductor*%
%TO.N,/SEG_L_1*%
G36*
X28444956Y-2591175D02*
G01*
X28448212Y-2593472D01*
X28614527Y-2759787D01*
X28617954Y-2768060D01*
X28617275Y-2771987D01*
X28143229Y-4102568D01*
X28137225Y-4109211D01*
X28128281Y-4109662D01*
X28127743Y-4109456D01*
X27403787Y-3810562D01*
X27397448Y-3804237D01*
X27397437Y-3804212D01*
X27098543Y-3080256D01*
X27098554Y-3071301D01*
X27104893Y-3064976D01*
X27105389Y-3064785D01*
X28436014Y-2590724D01*
X28444956Y-2591175D01*
G37*
%TD.AperFunction*%
%TD*%
%TA.AperFunction,Conductor*%
%TO.N,VCC*%
G36*
X11402147Y-21590000D02*
G01*
X11402147Y-21840000D01*
X10997818Y-21945970D01*
X10901147Y-21715000D01*
X10997818Y-21484030D01*
X11402147Y-21590000D01*
G37*
%TD.AperFunction*%
%TD*%
%TA.AperFunction,Conductor*%
%TO.N,VCC*%
G36*
X4330311Y-6093293D02*
G01*
X4520946Y-6555940D01*
X3710886Y-6889494D01*
X3534110Y-6712718D01*
X3867664Y-5902658D01*
X4330311Y-6093293D01*
G37*
%TD.AperFunction*%
%TD*%
%TA.AperFunction,Conductor*%
%TO.N,VCC*%
G36*
X15296388Y-5546389D02*
G01*
X15033940Y-6285342D01*
X14571293Y-6094707D01*
X14380658Y-5632060D01*
X15119611Y-5369612D01*
X15296388Y-5546389D01*
G37*
%TD.AperFunction*%
%TD*%
%TA.AperFunction,Conductor*%
%TO.N,/SEG_5*%
G36*
X18782543Y-22860000D02*
G01*
X18782543Y-23110000D01*
X18378214Y-23215970D01*
X18281543Y-22985000D01*
X18378214Y-22754030D01*
X18782543Y-22860000D01*
G37*
%TD.AperFunction*%
%TD*%
%TA.AperFunction,Conductor*%
%TO.N,/SEG_6*%
G36*
X19001266Y-20317711D02*
G01*
X19008399Y-20323123D01*
X19009999Y-20329028D01*
X19009999Y-20560971D01*
X19006572Y-20569244D01*
X19001265Y-20572289D01*
X18615504Y-20673392D01*
X18606633Y-20672174D01*
X18601745Y-20666591D01*
X18561001Y-20569244D01*
X18510889Y-20449515D01*
X18510857Y-20440562D01*
X18601746Y-20223406D01*
X18608101Y-20217099D01*
X18615504Y-20216607D01*
X19001266Y-20317711D01*
G37*
%TD.AperFunction*%
%TA.AperFunction,Conductor*%
G36*
X18510000Y-20447389D02*
G01*
X18509000Y-20445000D01*
X18510000Y-20442610D01*
X18510000Y-20447389D01*
G37*
%TD.AperFunction*%
%TD*%
%TA.AperFunction,Conductor*%
%TO.N,/SEG_7*%
G36*
X19001266Y-19047711D02*
G01*
X19008399Y-19053123D01*
X19009999Y-19059028D01*
X19009999Y-19290971D01*
X19006572Y-19299244D01*
X19001265Y-19302289D01*
X18615504Y-19403392D01*
X18606633Y-19402174D01*
X18601745Y-19396591D01*
X18510889Y-19179515D01*
X18510857Y-19170563D01*
X18601746Y-18953406D01*
X18608101Y-18947099D01*
X18615504Y-18946607D01*
X19001266Y-19047711D01*
G37*
%TD.AperFunction*%
%TD*%
%TA.AperFunction,Conductor*%
%TO.N,/SCL*%
G36*
X15530104Y-9520281D02*
G01*
X15536142Y-9526007D01*
X15787765Y-10049108D01*
X15788263Y-10058049D01*
X15785494Y-10062453D01*
X15620453Y-10227494D01*
X15612180Y-10230921D01*
X15607108Y-10229765D01*
X15084007Y-9978142D01*
X15078037Y-9971467D01*
X15078258Y-9963149D01*
X15205437Y-9653806D01*
X15211748Y-9647461D01*
X15521149Y-9520258D01*
X15530104Y-9520281D01*
G37*
%TD.AperFunction*%
%TD*%
%TA.AperFunction,Conductor*%
%TO.N,/SCL*%
G36*
X1760801Y-9410768D02*
G01*
X1760853Y-9410819D01*
X1992676Y-9641710D01*
X1996120Y-9649976D01*
X1992710Y-9658256D01*
X1992676Y-9658290D01*
X1760853Y-9889180D01*
X1752573Y-9892590D01*
X1744307Y-9889146D01*
X1744257Y-9889096D01*
X1635360Y-9778415D01*
X1632000Y-9770209D01*
X1632000Y-9529790D01*
X1635359Y-9521585D01*
X1744259Y-9410902D01*
X1752502Y-9407409D01*
X1760801Y-9410768D01*
G37*
%TD.AperFunction*%
%TD*%
%TA.AperFunction,Conductor*%
%TO.N,/SCL*%
G36*
X18598387Y-15580390D02*
G01*
X18486970Y-15841673D01*
X18255293Y-15746709D01*
X18160329Y-15515032D01*
X18421612Y-15403615D01*
X18598387Y-15580390D01*
G37*
%TD.AperFunction*%
%TD*%
%TA.AperFunction,Conductor*%
%TO.N,/SCL*%
G36*
X18750707Y-13603248D02*
G01*
X19014184Y-13711436D01*
X19020536Y-13717748D01*
X19020563Y-13717815D01*
X19128751Y-13981292D01*
X19128724Y-13990247D01*
X19123346Y-13996106D01*
X18691025Y-14222000D01*
X18691028Y-14222000D01*
X18682125Y-14226652D01*
X18677473Y-14222000D01*
X18678400Y-14222000D01*
X18676048Y-14220575D01*
X18511423Y-14055950D01*
X18507996Y-14047677D01*
X18509324Y-14042264D01*
X18735894Y-13608651D01*
X18742762Y-13602907D01*
X18750707Y-13603248D01*
G37*
%TD.AperFunction*%
%TD*%
%TA.AperFunction,Conductor*%
%TO.N,/SCL*%
G36*
X18901931Y-9884823D02*
G01*
X18907308Y-9890681D01*
X18966772Y-10033000D01*
X19017115Y-10153488D01*
X19017142Y-10162443D01*
X19017115Y-10162510D01*
X18907309Y-10425317D01*
X18900957Y-10431629D01*
X18893012Y-10431970D01*
X18426199Y-10285571D01*
X18419330Y-10279825D01*
X18418000Y-10274407D01*
X18418000Y-10041592D01*
X18421427Y-10033319D01*
X18426196Y-10030429D01*
X18893013Y-9884029D01*
X18901931Y-9884823D01*
G37*
%TD.AperFunction*%
%TD*%
%TA.AperFunction,Conductor*%
%TO.N,/SDA*%
G36*
X11199513Y-19303678D02*
G01*
X11204401Y-19309261D01*
X11295256Y-19526336D01*
X11295289Y-19535290D01*
X11295256Y-19535370D01*
X11204401Y-19752444D01*
X11198045Y-19758753D01*
X11190642Y-19759245D01*
X10804881Y-19658142D01*
X10797747Y-19652729D01*
X10796147Y-19646824D01*
X10796147Y-19414881D01*
X10799574Y-19406608D01*
X10804878Y-19403564D01*
X11190642Y-19302460D01*
X11199513Y-19303678D01*
G37*
%TD.AperFunction*%
%TD*%
%TA.AperFunction,Conductor*%
%TO.N,/SDA*%
G36*
X5937707Y-21715293D02*
G01*
X6070939Y-22039358D01*
X5530414Y-22299362D01*
X5353638Y-22122586D01*
X5613642Y-21582061D01*
X5937707Y-21715293D01*
G37*
%TD.AperFunction*%
%TD*%
%TA.AperFunction,Conductor*%
%TO.N,/DIG_1*%
G36*
X18573888Y-5051233D02*
G01*
X19096992Y-5302857D01*
X19102962Y-5309532D01*
X19102741Y-5317850D01*
X18975563Y-5627191D01*
X18969248Y-5633540D01*
X18969191Y-5633563D01*
X18659850Y-5760741D01*
X18650895Y-5760718D01*
X18644857Y-5754992D01*
X18586436Y-5633540D01*
X18393233Y-5231889D01*
X18392736Y-5222950D01*
X18395503Y-5218548D01*
X18560547Y-5053504D01*
X18568819Y-5050078D01*
X18573888Y-5051233D01*
G37*
%TD.AperFunction*%
%TD*%
%TA.AperFunction,Conductor*%
%TO.N,/DIG_1*%
G36*
X20509985Y-6822427D02*
G01*
X20513107Y-6828046D01*
X20620693Y-7290010D01*
X20619232Y-7298845D01*
X20613795Y-7303465D01*
X20165497Y-7490127D01*
X20156543Y-7490144D01*
X20156503Y-7490127D01*
X19708204Y-7303465D01*
X19701883Y-7297121D01*
X19701306Y-7290012D01*
X19808893Y-6828045D01*
X19814107Y-6820766D01*
X19820288Y-6819000D01*
X20501712Y-6819000D01*
X20509985Y-6822427D01*
G37*
%TD.AperFunction*%
%TD*%
%TA.AperFunction,Conductor*%
%TO.N,/SEG_L_4*%
G36*
X19001266Y-17777711D02*
G01*
X19008399Y-17783123D01*
X19009999Y-17789028D01*
X19009999Y-18020971D01*
X19006572Y-18029244D01*
X19001265Y-18032289D01*
X18615504Y-18133392D01*
X18606633Y-18132174D01*
X18601745Y-18126591D01*
X18510889Y-17909515D01*
X18510857Y-17900563D01*
X18601746Y-17683406D01*
X18608101Y-17677099D01*
X18615504Y-17676607D01*
X19001266Y-17777711D01*
G37*
%TD.AperFunction*%
%TD*%
%TA.AperFunction,Conductor*%
%TO.N,/SEG_L_4*%
G36*
X13648392Y-19037711D02*
G01*
X13655525Y-19043123D01*
X13657125Y-19049028D01*
X13657125Y-19280971D01*
X13653698Y-19289244D01*
X13648391Y-19292289D01*
X13262629Y-19393392D01*
X13253758Y-19392174D01*
X13248870Y-19386591D01*
X13208126Y-19289244D01*
X13158014Y-19169515D01*
X13157982Y-19160562D01*
X13248871Y-18943406D01*
X13255226Y-18937099D01*
X13262629Y-18936607D01*
X13648392Y-19037711D01*
G37*
%TD.AperFunction*%
%TD*%
%TA.AperFunction,Conductor*%
%TO.N,/SEG_L_4*%
G36*
X12762591Y-19872870D02*
G01*
X12768900Y-19879226D01*
X12769392Y-19886629D01*
X12668289Y-20272391D01*
X12662876Y-20279525D01*
X12656971Y-20281125D01*
X12425029Y-20281125D01*
X12416756Y-20277698D01*
X12413711Y-20272391D01*
X12312607Y-19886629D01*
X12313825Y-19877758D01*
X12319406Y-19872871D01*
X12536484Y-19782014D01*
X12545437Y-19781982D01*
X12762591Y-19872870D01*
G37*
%TD.AperFunction*%
%TD*%
%TA.AperFunction,Conductor*%
%TO.N,/SEG_L_2*%
G36*
X33969573Y-14631550D02*
G01*
X33970651Y-14632504D01*
X34139348Y-14801201D01*
X34142775Y-14809474D01*
X34142686Y-14810911D01*
X34120194Y-14992684D01*
X34115778Y-15000473D01*
X34108607Y-15002947D01*
X33779967Y-15003610D01*
X33771687Y-15000200D01*
X33768243Y-14991935D01*
X33768906Y-14663245D01*
X33772350Y-14654980D01*
X33779167Y-14651659D01*
X33960942Y-14629166D01*
X33969573Y-14631550D01*
G37*
%TD.AperFunction*%
%TD*%
%TA.AperFunction,Conductor*%
%TO.N,/SEG_L_2*%
G36*
X33910494Y-8617718D02*
G01*
X33822106Y-8706106D01*
X33739233Y-8788978D01*
X33730960Y-8792405D01*
X33726505Y-8791524D01*
X32934479Y-8465395D01*
X32928134Y-8459076D01*
X32928115Y-8450123D01*
X32957010Y-8380000D01*
X33114293Y-7998293D01*
X33576940Y-7807658D01*
X33910494Y-8617718D01*
G37*
%TD.AperFunction*%
%TD*%
%TA.AperFunction,Conductor*%
%TO.N,/SEG_L_2*%
G36*
X31338000Y-7999000D02*
G01*
X30983447Y-8352553D01*
X30829000Y-8249000D01*
X30829000Y-7749000D01*
X30983447Y-7645447D01*
X31338000Y-7999000D01*
G37*
%TD.AperFunction*%
%TD*%
%TA.AperFunction,Conductor*%
%TO.N,/SEG_L_6*%
G36*
X33495999Y-12527735D02*
G01*
X33495999Y-12527737D01*
X33534907Y-12566644D01*
X33538334Y-12574917D01*
X33535566Y-12582474D01*
X33496000Y-12629234D01*
X33496000Y-12629235D01*
X33348066Y-12804066D01*
X33241293Y-12698707D01*
X33135934Y-12591934D01*
X33365743Y-12397480D01*
X33495999Y-12527735D01*
G37*
%TD.AperFunction*%
%TD*%
%TA.AperFunction,Conductor*%
%TO.N,/SEG_L_6*%
G36*
X33321073Y-9463133D02*
G01*
X33327394Y-9469477D01*
X33327395Y-9469479D01*
X33653524Y-10261505D01*
X33653505Y-10270460D01*
X33650978Y-10274233D01*
X33485233Y-10439978D01*
X33476960Y-10443405D01*
X33472505Y-10442524D01*
X32680479Y-10116395D01*
X32674134Y-10110076D01*
X32674115Y-10101123D01*
X32858437Y-9653795D01*
X32864755Y-9647454D01*
X33312120Y-9463116D01*
X33321073Y-9463133D01*
G37*
%TD.AperFunction*%
%TD*%
%TA.AperFunction,Conductor*%
%TO.N,/SEG_L_6*%
G36*
X27654707Y-19809293D02*
G01*
X27660691Y-19823893D01*
X27660691Y-19823894D01*
X27745815Y-20031564D01*
X27745782Y-20040518D01*
X27740894Y-20046101D01*
X27396629Y-20247384D01*
X27387758Y-20248602D01*
X27382451Y-20245557D01*
X27303598Y-20166704D01*
X27303597Y-20166704D01*
X27212058Y-20075165D01*
X27423030Y-19714329D01*
X27654707Y-19809293D01*
G37*
%TD.AperFunction*%
%TD*%
%TA.AperFunction,Conductor*%
%TO.N,/SEG_L_6*%
G36*
X26629695Y-20670294D02*
G01*
X26793705Y-20834304D01*
X26797132Y-20842577D01*
X26795532Y-20848482D01*
X26594248Y-21192747D01*
X26587114Y-21198160D01*
X26579711Y-21197668D01*
X26361971Y-21108417D01*
X26355615Y-21102108D01*
X26355582Y-21102028D01*
X26266331Y-20884288D01*
X26266364Y-20875334D01*
X26271250Y-20869752D01*
X26615520Y-20668466D01*
X26624388Y-20667249D01*
X26629695Y-20670294D01*
G37*
%TD.AperFunction*%
%TD*%
%TA.AperFunction,Conductor*%
%TO.N,/SEG_L_7*%
G36*
X26638888Y-17030917D02*
G01*
X26668591Y-17043349D01*
X26674900Y-17049705D01*
X26675392Y-17057108D01*
X26574289Y-17442870D01*
X26568876Y-17450004D01*
X26562971Y-17451604D01*
X26331029Y-17451604D01*
X26322756Y-17448177D01*
X26319711Y-17442870D01*
X26218607Y-17057108D01*
X26219825Y-17048237D01*
X26225406Y-17043349D01*
X26447000Y-16950604D01*
X26638888Y-17030917D01*
G37*
%TD.AperFunction*%
%TD*%
%TA.AperFunction,Conductor*%
%TO.N,/SEG_L_1*%
G36*
X27273707Y-9776293D02*
G01*
X27421946Y-10136052D01*
X27421947Y-10136052D01*
X27459883Y-10228119D01*
X27459866Y-10237073D01*
X27453522Y-10243394D01*
X27453520Y-10243395D01*
X27217361Y-10340637D01*
X27217360Y-10340638D01*
X27044053Y-10412000D01*
X26837766Y-10496941D01*
X26661494Y-10569524D01*
X26652539Y-10569505D01*
X26648766Y-10566978D01*
X26493789Y-10412000D01*
X26493788Y-10412000D01*
X26477506Y-10395718D01*
X26811060Y-9585658D01*
X27273707Y-9776293D01*
G37*
%TD.AperFunction*%
%TD*%
%TA.AperFunction,Conductor*%
%TO.N,/SEG_L_1*%
G36*
X31335473Y-4843427D02*
G01*
X31338000Y-4847200D01*
X31667438Y-5637855D01*
X31667457Y-5646810D01*
X31661138Y-5653155D01*
X31661135Y-5653156D01*
X31210000Y-5840999D01*
X31210000Y-5841000D01*
X30748060Y-5648658D01*
X31085000Y-4840000D01*
X31210000Y-4840000D01*
X31327200Y-4840000D01*
X31335473Y-4843427D01*
G37*
%TD.AperFunction*%
%TD*%
%TA.AperFunction,Conductor*%
%TO.N,/SEG_L_1*%
G36*
X25993548Y-12262441D02*
G01*
X26157558Y-12426451D01*
X26160985Y-12434724D01*
X26159385Y-12440629D01*
X25958101Y-12784894D01*
X25950967Y-12790307D01*
X25943564Y-12789815D01*
X25725824Y-12700564D01*
X25719468Y-12694255D01*
X25719435Y-12694175D01*
X25630184Y-12476435D01*
X25630217Y-12467481D01*
X25635103Y-12461899D01*
X25979373Y-12260613D01*
X25988241Y-12259396D01*
X25993548Y-12262441D01*
G37*
%TD.AperFunction*%
%TD*%
%TA.AperFunction,Conductor*%
%TO.N,/SEG_L_5*%
G36*
X34418556Y-15705405D02*
G01*
X34421878Y-15707733D01*
X34593389Y-15879240D01*
X34507897Y-16114598D01*
X34276220Y-16019634D01*
X34185876Y-15799228D01*
X34185909Y-15790277D01*
X34192264Y-15783968D01*
X34192684Y-15783805D01*
X34409610Y-15705009D01*
X34418556Y-15705405D01*
G37*
%TD.AperFunction*%
%TD*%
M02*
