%TF.GenerationSoftware,KiCad,Pcbnew,(6.0.4)*%
%TF.CreationDate,2022-06-04T04:29:55-07:00*%
%TF.ProjectId,pb_orangepi - hori,70625f6f-7261-46e6-9765-7069202d2068,rev?*%
%TF.SameCoordinates,PX9896800PY4d3f640*%
%TF.FileFunction,Copper,L2,Bot*%
%TF.FilePolarity,Positive*%
%FSLAX46Y46*%
G04 Gerber Fmt 4.6, Leading zero omitted, Abs format (unit mm)*
G04 Created by KiCad (PCBNEW (6.0.4)) date 2022-06-04 04:29:55*
%MOMM*%
%LPD*%
G01*
G04 APERTURE LIST*
%TA.AperFunction,ComponentPad*%
%ADD10R,1.600000X1.600000*%
%TD*%
%TA.AperFunction,ComponentPad*%
%ADD11C,1.600000*%
%TD*%
%TA.AperFunction,ComponentPad*%
%ADD12R,1.700000X1.700000*%
%TD*%
%TA.AperFunction,ComponentPad*%
%ADD13O,1.700000X1.700000*%
%TD*%
%TA.AperFunction,ViaPad*%
%ADD14C,5.000000*%
%TD*%
G04 APERTURE END LIST*
D10*
%TO.P,C1,1*%
%TO.N,+3V3*%
X6000000Y-49000000D03*
D11*
%TO.P,C1,2*%
%TO.N,GND*%
X8500000Y-49000000D03*
%TD*%
D12*
%TO.P,J1,1,Pin_1*%
%TO.N,unconnected-(J1-Pad1)*%
X14880000Y-10400000D03*
D13*
%TO.P,J1,2,Pin_2*%
%TO.N,unconnected-(J1-Pad2)*%
X17420000Y-10400000D03*
%TO.P,J1,3,Pin_3*%
%TO.N,unconnected-(J1-Pad3)*%
X14880000Y-12940000D03*
%TO.P,J1,4,Pin_4*%
%TO.N,unconnected-(J1-Pad4)*%
X17420000Y-12940000D03*
%TO.P,J1,5,Pin_5*%
%TO.N,unconnected-(J1-Pad5)*%
X14880000Y-15480000D03*
%TO.P,J1,6,Pin_6*%
%TO.N,unconnected-(J1-Pad6)*%
X17420000Y-15480000D03*
%TO.P,J1,7,Pin_7*%
%TO.N,unconnected-(J1-Pad7)*%
X14880000Y-18020000D03*
%TO.P,J1,8,Pin_8*%
%TO.N,unconnected-(J1-Pad8)*%
X17420000Y-18020000D03*
%TO.P,J1,9,Pin_9*%
%TO.N,unconnected-(J1-Pad9)*%
X14880000Y-20560000D03*
%TO.P,J1,10,Pin_10*%
%TO.N,unconnected-(J1-Pad10)*%
X17420000Y-20560000D03*
%TO.P,J1,11,Pin_11*%
%TO.N,unconnected-(J1-Pad11)*%
X14880000Y-23100000D03*
%TO.P,J1,12,Pin_12*%
%TO.N,unconnected-(J1-Pad12)*%
X17420000Y-23100000D03*
%TO.P,J1,13,Pin_13*%
%TO.N,unconnected-(J1-Pad13)*%
X14880000Y-25640000D03*
%TO.P,J1,14,Pin_14*%
%TO.N,unconnected-(J1-Pad14)*%
X17420000Y-25640000D03*
%TO.P,J1,15,Pin_15*%
%TO.N,unconnected-(J1-Pad15)*%
X14880000Y-28180000D03*
%TO.P,J1,16,Pin_16*%
%TO.N,unconnected-(J1-Pad16)*%
X17420000Y-28180000D03*
%TO.P,J1,17,Pin_17*%
%TO.N,+3V3*%
X14880000Y-30720000D03*
%TO.P,J1,18,Pin_18*%
%TO.N,unconnected-(J1-Pad18)*%
X17420000Y-30720000D03*
%TO.P,J1,19,Pin_19*%
%TO.N,/SPI0_MOSI*%
X14880000Y-33260000D03*
%TO.P,J1,20,Pin_20*%
%TO.N,unconnected-(J1-Pad20)*%
X17420000Y-33260000D03*
%TO.P,J1,21,Pin_21*%
%TO.N,/SPI0_MISO*%
X14880000Y-35800000D03*
%TO.P,J1,22,Pin_22*%
%TO.N,unconnected-(J1-Pad22)*%
X17420000Y-35800000D03*
%TO.P,J1,23,Pin_23*%
%TO.N,/SPI0_CLK*%
X14880000Y-38340000D03*
%TO.P,J1,24,Pin_24*%
%TO.N,/SPI0_CS0*%
X17420000Y-38340000D03*
%TO.P,J1,25,Pin_25*%
%TO.N,GND*%
X14880000Y-40880000D03*
%TO.P,J1,26,Pin_26*%
%TO.N,unconnected-(J1-Pad26)*%
X17420000Y-40880000D03*
%TO.P,J1,27,Pin_27*%
%TO.N,unconnected-(J1-Pad27)*%
X14880000Y-43420000D03*
%TO.P,J1,28,Pin_28*%
%TO.N,unconnected-(J1-Pad28)*%
X17420000Y-43420000D03*
%TO.P,J1,29,Pin_29*%
%TO.N,unconnected-(J1-Pad29)*%
X14880000Y-45960000D03*
%TO.P,J1,30,Pin_30*%
%TO.N,unconnected-(J1-Pad30)*%
X17420000Y-45960000D03*
%TO.P,J1,31,Pin_31*%
%TO.N,unconnected-(J1-Pad31)*%
X14880000Y-48500000D03*
%TO.P,J1,32,Pin_32*%
%TO.N,unconnected-(J1-Pad32)*%
X17420000Y-48500000D03*
%TO.P,J1,33,Pin_33*%
%TO.N,unconnected-(J1-Pad33)*%
X14880000Y-51040000D03*
%TO.P,J1,34,Pin_34*%
%TO.N,unconnected-(J1-Pad34)*%
X17420000Y-51040000D03*
%TO.P,J1,35,Pin_35*%
%TO.N,unconnected-(J1-Pad35)*%
X14880000Y-53580000D03*
%TO.P,J1,36,Pin_36*%
%TO.N,unconnected-(J1-Pad36)*%
X17420000Y-53580000D03*
%TO.P,J1,37,Pin_37*%
%TO.N,unconnected-(J1-Pad37)*%
X14880000Y-56120000D03*
%TO.P,J1,38,Pin_38*%
%TO.N,unconnected-(J1-Pad38)*%
X17420000Y-56120000D03*
%TO.P,J1,39,Pin_39*%
%TO.N,unconnected-(J1-Pad39)*%
X14880000Y-58660000D03*
%TO.P,J1,40,Pin_40*%
%TO.N,unconnected-(J1-Pad40)*%
X17420000Y-58660000D03*
%TD*%
D14*
%TO.N,*%
X15240000Y-2944000D03*
X15240000Y-66060000D03*
%TD*%
M02*
