M48
; DRILL file {KiCad (6.0.4)} date Sat Jun  4 04:03:57 2022
; FORMAT={-:-/ absolute / metric / decimal}
; #@! TF.CreationDate,2022-06-04T04:03:57-07:00
; #@! TF.GenerationSoftware,Kicad,Pcbnew,(6.0.4)
; #@! TF.FileFunction,MixedPlating,1,2
FMAT,2
METRIC
; #@! TA.AperFunction,Plated,PTH,ComponentDrill
T1C0.800
; #@! TA.AperFunction,Plated,PTH,ComponentDrill
T2C1.000
; #@! TA.AperFunction,Plated,PTH,ViaDrill
T3C3.000
%
G90
G05
T1
X6.0Y-49.0
X8.5Y-49.0
T2
X14.88Y-10.4
X14.88Y-12.94
X14.88Y-15.48
X14.88Y-18.02
X14.88Y-20.56
X14.88Y-23.1
X14.88Y-25.64
X14.88Y-28.18
X14.88Y-30.72
X14.88Y-33.26
X14.88Y-35.8
X14.88Y-38.34
X14.88Y-40.88
X14.88Y-43.42
X14.88Y-45.96
X14.88Y-48.5
X14.88Y-51.04
X14.88Y-53.58
X14.88Y-56.12
X14.88Y-58.66
X17.42Y-10.4
X17.42Y-12.94
X17.42Y-15.48
X17.42Y-18.02
X17.42Y-20.56
X17.42Y-23.1
X17.42Y-25.64
X17.42Y-28.18
X17.42Y-30.72
X17.42Y-33.26
X17.42Y-35.8
X17.42Y-38.34
X17.42Y-40.88
X17.42Y-43.42
X17.42Y-45.96
X17.42Y-48.5
X17.42Y-51.04
X17.42Y-53.58
X17.42Y-56.12
X17.42Y-58.66
T3
X15.24Y-2.944
X15.24Y-66.06
T0
M30
