%TF.GenerationSoftware,KiCad,Pcbnew,7.0.11-2.fc39*%
%TF.CreationDate,2024-04-07T19:18:12-07:00*%
%TF.ProjectId,Ultra_Light,556c7472-615f-44c6-9967-68742e6b6963,rev?*%
%TF.SameCoordinates,PX7459280PY5e69ec0*%
%TF.FileFunction,Legend,Top*%
%TF.FilePolarity,Positive*%
%FSLAX46Y46*%
G04 Gerber Fmt 4.6, Leading zero omitted, Abs format (unit mm)*
G04 Created by KiCad (PCBNEW 7.0.11-2.fc39) date 2024-04-07 19:18:12*
%MOMM*%
%LPD*%
G01*
G04 APERTURE LIST*
%ADD10C,0.150000*%
%ADD11C,0.120000*%
G04 APERTURE END LIST*
D10*
X12804819Y-9166666D02*
X12328628Y-9499999D01*
X12804819Y-9738094D02*
X11804819Y-9738094D01*
X11804819Y-9738094D02*
X11804819Y-9357142D01*
X11804819Y-9357142D02*
X11852438Y-9261904D01*
X11852438Y-9261904D02*
X11900057Y-9214285D01*
X11900057Y-9214285D02*
X11995295Y-9166666D01*
X11995295Y-9166666D02*
X12138152Y-9166666D01*
X12138152Y-9166666D02*
X12233390Y-9214285D01*
X12233390Y-9214285D02*
X12281009Y-9261904D01*
X12281009Y-9261904D02*
X12328628Y-9357142D01*
X12328628Y-9357142D02*
X12328628Y-9738094D01*
X12804819Y-8214285D02*
X12804819Y-8785713D01*
X12804819Y-8499999D02*
X11804819Y-8499999D01*
X11804819Y-8499999D02*
X11947676Y-8595237D01*
X11947676Y-8595237D02*
X12042914Y-8690475D01*
X12042914Y-8690475D02*
X12090533Y-8785713D01*
X10494819Y-4008094D02*
X9494819Y-4008094D01*
X9494819Y-4008094D02*
X9494819Y-3769999D01*
X9494819Y-3769999D02*
X9542438Y-3627142D01*
X9542438Y-3627142D02*
X9637676Y-3531904D01*
X9637676Y-3531904D02*
X9732914Y-3484285D01*
X9732914Y-3484285D02*
X9923390Y-3436666D01*
X9923390Y-3436666D02*
X10066247Y-3436666D01*
X10066247Y-3436666D02*
X10256723Y-3484285D01*
X10256723Y-3484285D02*
X10351961Y-3531904D01*
X10351961Y-3531904D02*
X10447200Y-3627142D01*
X10447200Y-3627142D02*
X10494819Y-3769999D01*
X10494819Y-3769999D02*
X10494819Y-4008094D01*
X10494819Y-2484285D02*
X10494819Y-3055713D01*
X10494819Y-2769999D02*
X9494819Y-2769999D01*
X9494819Y-2769999D02*
X9637676Y-2865237D01*
X9637676Y-2865237D02*
X9732914Y-2960475D01*
X9732914Y-2960475D02*
X9780533Y-3055713D01*
D11*
%TO.C,R1*%
X13265000Y-9227064D02*
X13265000Y-8772936D01*
X14735000Y-9227064D02*
X14735000Y-8772936D01*
%TO.C,D1*%
X16500000Y-3270000D02*
G75*
G03*
X11500000Y-3270000I-2500000J0D01*
G01*
X11500000Y-3270000D02*
G75*
G03*
X16500000Y-3270000I2500000J0D01*
G01*
X15544830Y-5830000D02*
G75*
G03*
X13999538Y-280000I-1544830J2560000D01*
G01*
X14000462Y-280001D02*
G75*
G03*
X12455170Y-5829999I-462J-2989999D01*
G01*
X12455000Y-5830000D02*
X15545000Y-5830000D01*
%TD*%
M02*
