<?xml version="1.0" standalone="no"?>
 <!DOCTYPE svg PUBLIC "-//W3C//DTD SVG 1.1//EN" 
 "http://www.w3.org/Graphics/SVG/1.1/DTD/svg11.dtd"> 
<svg
  xmlns:svg="http://www.w3.org/2000/svg"
  xmlns="http://www.w3.org/2000/svg"
  xmlns:xlink="http://www.w3.org/1999/xlink"
  version="1.1"
  width="297.0022mm" height="210.0072mm" viewBox="0.0000 0.0000 297.0022 210.0072">
<title>SVG Image created as Ultra_Light-PTH-drl_map.svg date 2024/04/04 23:00:21 </title>
  <desc>Image generated by PCBNEW </desc>
<g style="fill:#000000; fill-opacity:1.0000;stroke:#000000; stroke-opacity:1.0000;
stroke-linecap:round; stroke-linejoin:round;"
 transform="translate(0 0) scale(1 1)">
</g>
<g style="fill:#000000; fill-opacity:0.0; 
stroke:#000000; stroke-width:0.0000; stroke-opacity:1; 
stroke-linecap:round; stroke-linejoin:round;">
</g>
<g style="fill:#000000; fill-opacity:0.0; 
stroke:#000000; stroke-width:0.1500; stroke-opacity:1; 
stroke-linecap:round; stroke-linejoin:round;">
<path style="fill:#000000; fill-opacity:0.0; 
stroke:#000000; stroke-width:0.1500; stroke-opacity:1; 
stroke-linecap:round; stroke-linejoin:round;fill:none"
d="M 124.5011,45.0022
172.5011,45.0022
172.5011,81.0022
124.5011,81.0022
Z" /> 
</g>
<g style="fill:#000000; fill-opacity:0.0; 
stroke:#000000; stroke-width:0.6000; stroke-opacity:1; 
stroke-linecap:round; stroke-linejoin:round;">
</g>
<g style="fill:#000000; fill-opacity:0.0; 
stroke:#000000; stroke-width:0.3000; stroke-opacity:1; 
stroke-linecap:round; stroke-linejoin:round;">
<path d="M165.1511 49.6522
L167.8511 52.3522
" />
<path d="M167.8511 49.6522
L165.1511 52.3522
" />
<path d="M165.1511 57.2722
L167.8511 59.9722
" />
<path d="M167.8511 57.2722
L165.1511 59.9722
" />
</g>
<g style="fill:#000000; fill-opacity:0.0; 
stroke:#000000; stroke-width:0.6000; stroke-opacity:1; 
stroke-linecap:round; stroke-linejoin:round;">
</g>
<g style="fill:#000000; fill-opacity:0.0; 
stroke:#000000; stroke-width:0.2000; stroke-opacity:1; 
stroke-linecap:round; stroke-linejoin:round;">
<text x="126.4261" y="84.2772"
textLength="14.8667" font-size="2.6667" lengthAdjust="spacingAndGlyphs"
text-anchor="start" opacity="0">Drill Map:</text>
<g class="stroked-text"><desc>Drill Map:</desc>
<path d="M127.0339 84.1920
L127.0339 82.1920
" />
<path d="M127.0339 82.1920
L127.5101 82.1920
" />
<path d="M127.5101 82.1920
L127.7958 82.2872
" />
<path d="M127.7958 82.2872
L127.9862 82.4777
" />
<path d="M127.9862 82.4777
L128.0815 82.6682
" />
<path d="M128.0815 82.6682
L128.1767 83.0491
" />
<path d="M128.1767 83.0491
L128.1767 83.3349
" />
<path d="M128.1767 83.3349
L128.0815 83.7158
" />
<path d="M128.0815 83.7158
L127.9862 83.9063
" />
<path d="M127.9862 83.9063
L127.7958 84.0968
" />
<path d="M127.7958 84.0968
L127.5101 84.1920
" />
<path d="M127.5101 84.1920
L127.0339 84.1920
" />
<path d="M129.0339 84.1920
L129.0339 82.8587
" />
<path d="M129.0339 83.2396
L129.1291 83.0491
" />
<path d="M129.1291 83.0491
L129.2243 82.9539
" />
<path d="M129.2243 82.9539
L129.4148 82.8587
" />
<path d="M129.4148 82.8587
L129.6053 82.8587
" />
<path d="M130.2720 84.1920
L130.2720 82.8587
" />
<path d="M130.2720 82.1920
L130.1767 82.2872
" />
<path d="M130.1767 82.2872
L130.2720 82.3825
" />
<path d="M130.2720 82.3825
L130.3672 82.2872
" />
<path d="M130.3672 82.2872
L130.2720 82.1920
" />
<path d="M130.2720 82.1920
L130.2720 82.3825
" />
<path d="M131.5101 84.1920
L131.3196 84.0968
" />
<path d="M131.3196 84.0968
L131.2243 83.9063
" />
<path d="M131.2243 83.9063
L131.2243 82.1920
" />
<path d="M132.5577 84.1920
L132.3672 84.0968
" />
<path d="M132.3672 84.0968
L132.2720 83.9063
" />
<path d="M132.2720 83.9063
L132.2720 82.1920
" />
<path d="M134.8434 84.1920
L134.8434 82.1920
" />
<path d="M134.8434 82.1920
L135.5101 83.6206
" />
<path d="M135.5101 83.6206
L136.1767 82.1920
" />
<path d="M136.1767 82.1920
L136.1767 84.1920
" />
<path d="M137.9863 84.1920
L137.9863 83.1444
" />
<path d="M137.9863 83.1444
L137.8910 82.9539
" />
<path d="M137.8910 82.9539
L137.7005 82.8587
" />
<path d="M137.7005 82.8587
L137.3196 82.8587
" />
<path d="M137.3196 82.8587
L137.1291 82.9539
" />
<path d="M137.9863 84.0968
L137.7958 84.1920
" />
<path d="M137.7958 84.1920
L137.3196 84.1920
" />
<path d="M137.3196 84.1920
L137.1291 84.0968
" />
<path d="M137.1291 84.0968
L137.0339 83.9063
" />
<path d="M137.0339 83.9063
L137.0339 83.7158
" />
<path d="M137.0339 83.7158
L137.1291 83.5253
" />
<path d="M137.1291 83.5253
L137.3196 83.4301
" />
<path d="M137.3196 83.4301
L137.7958 83.4301
" />
<path d="M137.7958 83.4301
L137.9863 83.3349
" />
<path d="M138.9386 82.8587
L138.9386 84.8587
" />
<path d="M138.9386 82.9539
L139.1291 82.8587
" />
<path d="M139.1291 82.8587
L139.5101 82.8587
" />
<path d="M139.5101 82.8587
L139.7005 82.9539
" />
<path d="M139.7005 82.9539
L139.7958 83.0491
" />
<path d="M139.7958 83.0491
L139.8910 83.2396
" />
<path d="M139.8910 83.2396
L139.8910 83.8110
" />
<path d="M139.8910 83.8110
L139.7958 84.0015
" />
<path d="M139.7958 84.0015
L139.7005 84.0968
" />
<path d="M139.7005 84.0968
L139.5101 84.1920
" />
<path d="M139.5101 84.1920
L139.1291 84.1920
" />
<path d="M139.1291 84.1920
L138.9386 84.0968
" />
<path d="M140.7482 84.0015
L140.8434 84.0968
" />
<path d="M140.8434 84.0968
L140.7482 84.1920
" />
<path d="M140.7482 84.1920
L140.6529 84.0968
" />
<path d="M140.6529 84.0968
L140.7482 84.0015
" />
<path d="M140.7482 84.0015
L140.7482 84.1920
" />
<path d="M140.7482 82.9539
L140.8434 83.0491
" />
<path d="M140.8434 83.0491
L140.7482 83.1444
" />
<path d="M140.7482 83.1444
L140.6529 83.0491
" />
<path d="M140.6529 83.0491
L140.7482 82.9539
" />
<path d="M140.7482 82.9539
L140.7482 83.1444
" />
</g></g>
<g style="fill:#000000; fill-opacity:0.0; 
stroke:#000000; stroke-width:0.3000; stroke-opacity:1; 
stroke-linecap:round; stroke-linejoin:round;">
<path d="M122.4261 86.4772
L124.4261 88.4772
" />
<path d="M124.4261 86.4772
L122.4261 88.4772
" />
</g>
<g style="fill:#000000; fill-opacity:0.0; 
stroke:#000000; stroke-width:0.6000; stroke-opacity:1; 
stroke-linecap:round; stroke-linejoin:round;">
</g>
<g style="fill:#000000; fill-opacity:0.0; 
stroke:#000000; stroke-width:0.2000; stroke-opacity:1; 
stroke-linecap:round; stroke-linejoin:round;">
<text x="126.4261" y="88.4772"
textLength="46.8667" font-size="2.6667" lengthAdjust="spacingAndGlyphs"
text-anchor="start" opacity="0">0.900mm / 0.0354" (2 holes)</text>
<g class="stroked-text"><desc>0.900mm / 0.0354" (2 holes)</desc>
<path d="M127.4148 86.3920
L127.6053 86.3920
" />
<path d="M127.6053 86.3920
L127.7958 86.4872
" />
<path d="M127.7958 86.4872
L127.8910 86.5825
" />
<path d="M127.8910 86.5825
L127.9862 86.7730
" />
<path d="M127.9862 86.7730
L128.0815 87.1539
" />
<path d="M128.0815 87.1539
L128.0815 87.6301
" />
<path d="M128.0815 87.6301
L127.9862 88.0110
" />
<path d="M127.9862 88.0110
L127.8910 88.2015
" />
<path d="M127.8910 88.2015
L127.7958 88.2968
" />
<path d="M127.7958 88.2968
L127.6053 88.3920
" />
<path d="M127.6053 88.3920
L127.4148 88.3920
" />
<path d="M127.4148 88.3920
L127.2243 88.2968
" />
<path d="M127.2243 88.2968
L127.1291 88.2015
" />
<path d="M127.1291 88.2015
L127.0339 88.0110
" />
<path d="M127.0339 88.0110
L126.9386 87.6301
" />
<path d="M126.9386 87.6301
L126.9386 87.1539
" />
<path d="M126.9386 87.1539
L127.0339 86.7730
" />
<path d="M127.0339 86.7730
L127.1291 86.5825
" />
<path d="M127.1291 86.5825
L127.2243 86.4872
" />
<path d="M127.2243 86.4872
L127.4148 86.3920
" />
<path d="M128.9386 88.2015
L129.0339 88.2968
" />
<path d="M129.0339 88.2968
L128.9386 88.3920
" />
<path d="M128.9386 88.3920
L128.8434 88.2968
" />
<path d="M128.8434 88.2968
L128.9386 88.2015
" />
<path d="M128.9386 88.2015
L128.9386 88.3920
" />
<path d="M129.9862 88.3920
L130.3672 88.3920
" />
<path d="M130.3672 88.3920
L130.5577 88.2968
" />
<path d="M130.5577 88.2968
L130.6529 88.2015
" />
<path d="M130.6529 88.2015
L130.8434 87.9158
" />
<path d="M130.8434 87.9158
L130.9386 87.5349
" />
<path d="M130.9386 87.5349
L130.9386 86.7730
" />
<path d="M130.9386 86.7730
L130.8434 86.5825
" />
<path d="M130.8434 86.5825
L130.7482 86.4872
" />
<path d="M130.7482 86.4872
L130.5577 86.3920
" />
<path d="M130.5577 86.3920
L130.1767 86.3920
" />
<path d="M130.1767 86.3920
L129.9862 86.4872
" />
<path d="M129.9862 86.4872
L129.8910 86.5825
" />
<path d="M129.8910 86.5825
L129.7958 86.7730
" />
<path d="M129.7958 86.7730
L129.7958 87.2491
" />
<path d="M129.7958 87.2491
L129.8910 87.4396
" />
<path d="M129.8910 87.4396
L129.9862 87.5349
" />
<path d="M129.9862 87.5349
L130.1767 87.6301
" />
<path d="M130.1767 87.6301
L130.5577 87.6301
" />
<path d="M130.5577 87.6301
L130.7482 87.5349
" />
<path d="M130.7482 87.5349
L130.8434 87.4396
" />
<path d="M130.8434 87.4396
L130.9386 87.2491
" />
<path d="M132.1767 86.3920
L132.3672 86.3920
" />
<path d="M132.3672 86.3920
L132.5577 86.4872
" />
<path d="M132.5577 86.4872
L132.6529 86.5825
" />
<path d="M132.6529 86.5825
L132.7482 86.7730
" />
<path d="M132.7482 86.7730
L132.8434 87.1539
" />
<path d="M132.8434 87.1539
L132.8434 87.6301
" />
<path d="M132.8434 87.6301
L132.7482 88.0110
" />
<path d="M132.7482 88.0110
L132.6529 88.2015
" />
<path d="M132.6529 88.2015
L132.5577 88.2968
" />
<path d="M132.5577 88.2968
L132.3672 88.3920
" />
<path d="M132.3672 88.3920
L132.1767 88.3920
" />
<path d="M132.1767 88.3920
L131.9863 88.2968
" />
<path d="M131.9863 88.2968
L131.8910 88.2015
" />
<path d="M131.8910 88.2015
L131.7958 88.0110
" />
<path d="M131.7958 88.0110
L131.7005 87.6301
" />
<path d="M131.7005 87.6301
L131.7005 87.1539
" />
<path d="M131.7005 87.1539
L131.7958 86.7730
" />
<path d="M131.7958 86.7730
L131.8910 86.5825
" />
<path d="M131.8910 86.5825
L131.9863 86.4872
" />
<path d="M131.9863 86.4872
L132.1767 86.3920
" />
<path d="M134.0815 86.3920
L134.2720 86.3920
" />
<path d="M134.2720 86.3920
L134.4624 86.4872
" />
<path d="M134.4624 86.4872
L134.5577 86.5825
" />
<path d="M134.5577 86.5825
L134.6529 86.7730
" />
<path d="M134.6529 86.7730
L134.7482 87.1539
" />
<path d="M134.7482 87.1539
L134.7482 87.6301
" />
<path d="M134.7482 87.6301
L134.6529 88.0110
" />
<path d="M134.6529 88.0110
L134.5577 88.2015
" />
<path d="M134.5577 88.2015
L134.4624 88.2968
" />
<path d="M134.4624 88.2968
L134.2720 88.3920
" />
<path d="M134.2720 88.3920
L134.0815 88.3920
" />
<path d="M134.0815 88.3920
L133.8910 88.2968
" />
<path d="M133.8910 88.2968
L133.7958 88.2015
" />
<path d="M133.7958 88.2015
L133.7005 88.0110
" />
<path d="M133.7005 88.0110
L133.6053 87.6301
" />
<path d="M133.6053 87.6301
L133.6053 87.1539
" />
<path d="M133.6053 87.1539
L133.7005 86.7730
" />
<path d="M133.7005 86.7730
L133.7958 86.5825
" />
<path d="M133.7958 86.5825
L133.8910 86.4872
" />
<path d="M133.8910 86.4872
L134.0815 86.3920
" />
<path d="M135.6053 88.3920
L135.6053 87.0587
" />
<path d="M135.6053 87.2491
L135.7005 87.1539
" />
<path d="M135.7005 87.1539
L135.8910 87.0587
" />
<path d="M135.8910 87.0587
L136.1767 87.0587
" />
<path d="M136.1767 87.0587
L136.3672 87.1539
" />
<path d="M136.3672 87.1539
L136.4624 87.3444
" />
<path d="M136.4624 87.3444
L136.4624 88.3920
" />
<path d="M136.4624 87.3444
L136.5577 87.1539
" />
<path d="M136.5577 87.1539
L136.7482 87.0587
" />
<path d="M136.7482 87.0587
L137.0339 87.0587
" />
<path d="M137.0339 87.0587
L137.2243 87.1539
" />
<path d="M137.2243 87.1539
L137.3196 87.3444
" />
<path d="M137.3196 87.3444
L137.3196 88.3920
" />
<path d="M138.2720 88.3920
L138.2720 87.0587
" />
<path d="M138.2720 87.2491
L138.3672 87.1539
" />
<path d="M138.3672 87.1539
L138.5577 87.0587
" />
<path d="M138.5577 87.0587
L138.8434 87.0587
" />
<path d="M138.8434 87.0587
L139.0339 87.1539
" />
<path d="M139.0339 87.1539
L139.1291 87.3444
" />
<path d="M139.1291 87.3444
L139.1291 88.3920
" />
<path d="M139.1291 87.3444
L139.2243 87.1539
" />
<path d="M139.2243 87.1539
L139.4148 87.0587
" />
<path d="M139.4148 87.0587
L139.7005 87.0587
" />
<path d="M139.7005 87.0587
L139.8910 87.1539
" />
<path d="M139.8910 87.1539
L139.9863 87.3444
" />
<path d="M139.9863 87.3444
L139.9863 88.3920
" />
<path d="M143.8910 86.2968
L142.1767 88.8682
" />
<path d="M146.4624 86.3920
L146.6529 86.3920
" />
<path d="M146.6529 86.3920
L146.8434 86.4872
" />
<path d="M146.8434 86.4872
L146.9386 86.5825
" />
<path d="M146.9386 86.5825
L147.0339 86.7730
" />
<path d="M147.0339 86.7730
L147.1291 87.1539
" />
<path d="M147.1291 87.1539
L147.1291 87.6301
" />
<path d="M147.1291 87.6301
L147.0339 88.0110
" />
<path d="M147.0339 88.0110
L146.9386 88.2015
" />
<path d="M146.9386 88.2015
L146.8434 88.2968
" />
<path d="M146.8434 88.2968
L146.6529 88.3920
" />
<path d="M146.6529 88.3920
L146.4624 88.3920
" />
<path d="M146.4624 88.3920
L146.2720 88.2968
" />
<path d="M146.2720 88.2968
L146.1767 88.2015
" />
<path d="M146.1767 88.2015
L146.0815 88.0110
" />
<path d="M146.0815 88.0110
L145.9863 87.6301
" />
<path d="M145.9863 87.6301
L145.9863 87.1539
" />
<path d="M145.9863 87.1539
L146.0815 86.7730
" />
<path d="M146.0815 86.7730
L146.1767 86.5825
" />
<path d="M146.1767 86.5825
L146.2720 86.4872
" />
<path d="M146.2720 86.4872
L146.4624 86.3920
" />
<path d="M147.9863 88.2015
L148.0815 88.2968
" />
<path d="M148.0815 88.2968
L147.9863 88.3920
" />
<path d="M147.9863 88.3920
L147.8910 88.2968
" />
<path d="M147.8910 88.2968
L147.9863 88.2015
" />
<path d="M147.9863 88.2015
L147.9863 88.3920
" />
<path d="M149.3196 86.3920
L149.5101 86.3920
" />
<path d="M149.5101 86.3920
L149.7005 86.4872
" />
<path d="M149.7005 86.4872
L149.7958 86.5825
" />
<path d="M149.7958 86.5825
L149.8910 86.7730
" />
<path d="M149.8910 86.7730
L149.9863 87.1539
" />
<path d="M149.9863 87.1539
L149.9863 87.6301
" />
<path d="M149.9863 87.6301
L149.8910 88.0110
" />
<path d="M149.8910 88.0110
L149.7958 88.2015
" />
<path d="M149.7958 88.2015
L149.7005 88.2968
" />
<path d="M149.7005 88.2968
L149.5101 88.3920
" />
<path d="M149.5101 88.3920
L149.3196 88.3920
" />
<path d="M149.3196 88.3920
L149.1291 88.2968
" />
<path d="M149.1291 88.2968
L149.0339 88.2015
" />
<path d="M149.0339 88.2015
L148.9386 88.0110
" />
<path d="M148.9386 88.0110
L148.8434 87.6301
" />
<path d="M148.8434 87.6301
L148.8434 87.1539
" />
<path d="M148.8434 87.1539
L148.9386 86.7730
" />
<path d="M148.9386 86.7730
L149.0339 86.5825
" />
<path d="M149.0339 86.5825
L149.1291 86.4872
" />
<path d="M149.1291 86.4872
L149.3196 86.3920
" />
<path d="M150.6529 86.3920
L151.8910 86.3920
" />
<path d="M151.8910 86.3920
L151.2244 87.1539
" />
<path d="M151.2244 87.1539
L151.5101 87.1539
" />
<path d="M151.5101 87.1539
L151.7005 87.2491
" />
<path d="M151.7005 87.2491
L151.7958 87.3444
" />
<path d="M151.7958 87.3444
L151.8910 87.5349
" />
<path d="M151.8910 87.5349
L151.8910 88.0110
" />
<path d="M151.8910 88.0110
L151.7958 88.2015
" />
<path d="M151.7958 88.2015
L151.7005 88.2968
" />
<path d="M151.7005 88.2968
L151.5101 88.3920
" />
<path d="M151.5101 88.3920
L150.9386 88.3920
" />
<path d="M150.9386 88.3920
L150.7482 88.2968
" />
<path d="M150.7482 88.2968
L150.6529 88.2015
" />
<path d="M153.7005 86.3920
L152.7482 86.3920
" />
<path d="M152.7482 86.3920
L152.6529 87.3444
" />
<path d="M152.6529 87.3444
L152.7482 87.2491
" />
<path d="M152.7482 87.2491
L152.9386 87.1539
" />
<path d="M152.9386 87.1539
L153.4148 87.1539
" />
<path d="M153.4148 87.1539
L153.6053 87.2491
" />
<path d="M153.6053 87.2491
L153.7005 87.3444
" />
<path d="M153.7005 87.3444
L153.7958 87.5349
" />
<path d="M153.7958 87.5349
L153.7958 88.0110
" />
<path d="M153.7958 88.0110
L153.7005 88.2015
" />
<path d="M153.7005 88.2015
L153.6053 88.2968
" />
<path d="M153.6053 88.2968
L153.4148 88.3920
" />
<path d="M153.4148 88.3920
L152.9386 88.3920
" />
<path d="M152.9386 88.3920
L152.7482 88.2968
" />
<path d="M152.7482 88.2968
L152.6529 88.2015
" />
<path d="M155.5101 87.0587
L155.5101 88.3920
" />
<path d="M155.0339 86.2968
L154.5577 87.7253
" />
<path d="M154.5577 87.7253
L155.7958 87.7253
" />
<path d="M156.4625 86.3920
L156.4625 86.7730
" />
<path d="M157.2244 86.3920
L157.2244 86.7730
" />
<path d="M160.1767 89.1539
L160.0815 89.0587
" />
<path d="M160.0815 89.0587
L159.8910 88.7730
" />
<path d="M159.8910 88.7730
L159.7958 88.5825
" />
<path d="M159.7958 88.5825
L159.7006 88.2968
" />
<path d="M159.7006 88.2968
L159.6053 87.8206
" />
<path d="M159.6053 87.8206
L159.6053 87.4396
" />
<path d="M159.6053 87.4396
L159.7006 86.9634
" />
<path d="M159.7006 86.9634
L159.7958 86.6777
" />
<path d="M159.7958 86.6777
L159.8910 86.4872
" />
<path d="M159.8910 86.4872
L160.0815 86.2015
" />
<path d="M160.0815 86.2015
L160.1767 86.1063
" />
<path d="M160.8434 86.5825
L160.9386 86.4872
" />
<path d="M160.9386 86.4872
L161.1291 86.3920
" />
<path d="M161.1291 86.3920
L161.6053 86.3920
" />
<path d="M161.6053 86.3920
L161.7958 86.4872
" />
<path d="M161.7958 86.4872
L161.8910 86.5825
" />
<path d="M161.8910 86.5825
L161.9863 86.7730
" />
<path d="M161.9863 86.7730
L161.9863 86.9634
" />
<path d="M161.9863 86.9634
L161.8910 87.2491
" />
<path d="M161.8910 87.2491
L160.7482 88.3920
" />
<path d="M160.7482 88.3920
L161.9863 88.3920
" />
<path d="M164.3672 88.3920
L164.3672 86.3920
" />
<path d="M165.2244 88.3920
L165.2244 87.3444
" />
<path d="M165.2244 87.3444
L165.1291 87.1539
" />
<path d="M165.1291 87.1539
L164.9386 87.0587
" />
<path d="M164.9386 87.0587
L164.6529 87.0587
" />
<path d="M164.6529 87.0587
L164.4625 87.1539
" />
<path d="M164.4625 87.1539
L164.3672 87.2491
" />
<path d="M166.4625 88.3920
L166.2720 88.2968
" />
<path d="M166.2720 88.2968
L166.1767 88.2015
" />
<path d="M166.1767 88.2015
L166.0815 88.0110
" />
<path d="M166.0815 88.0110
L166.0815 87.4396
" />
<path d="M166.0815 87.4396
L166.1767 87.2491
" />
<path d="M166.1767 87.2491
L166.2720 87.1539
" />
<path d="M166.2720 87.1539
L166.4625 87.0587
" />
<path d="M166.4625 87.0587
L166.7482 87.0587
" />
<path d="M166.7482 87.0587
L166.9387 87.1539
" />
<path d="M166.9387 87.1539
L167.0339 87.2491
" />
<path d="M167.0339 87.2491
L167.1291 87.4396
" />
<path d="M167.1291 87.4396
L167.1291 88.0110
" />
<path d="M167.1291 88.0110
L167.0339 88.2015
" />
<path d="M167.0339 88.2015
L166.9387 88.2968
" />
<path d="M166.9387 88.2968
L166.7482 88.3920
" />
<path d="M166.7482 88.3920
L166.4625 88.3920
" />
<path d="M168.2720 88.3920
L168.0815 88.2968
" />
<path d="M168.0815 88.2968
L167.9863 88.1063
" />
<path d="M167.9863 88.1063
L167.9863 86.3920
" />
<path d="M169.7958 88.2968
L169.6053 88.3920
" />
<path d="M169.6053 88.3920
L169.2244 88.3920
" />
<path d="M169.2244 88.3920
L169.0339 88.2968
" />
<path d="M169.0339 88.2968
L168.9387 88.1063
" />
<path d="M168.9387 88.1063
L168.9387 87.3444
" />
<path d="M168.9387 87.3444
L169.0339 87.1539
" />
<path d="M169.0339 87.1539
L169.2244 87.0587
" />
<path d="M169.2244 87.0587
L169.6053 87.0587
" />
<path d="M169.6053 87.0587
L169.7958 87.1539
" />
<path d="M169.7958 87.1539
L169.8910 87.3444
" />
<path d="M169.8910 87.3444
L169.8910 87.5349
" />
<path d="M169.8910 87.5349
L168.9387 87.7253
" />
<path d="M170.6529 88.2968
L170.8434 88.3920
" />
<path d="M170.8434 88.3920
L171.2244 88.3920
" />
<path d="M171.2244 88.3920
L171.4148 88.2968
" />
<path d="M171.4148 88.2968
L171.5101 88.1063
" />
<path d="M171.5101 88.1063
L171.5101 88.0110
" />
<path d="M171.5101 88.0110
L171.4148 87.8206
" />
<path d="M171.4148 87.8206
L171.2244 87.7253
" />
<path d="M171.2244 87.7253
L170.9387 87.7253
" />
<path d="M170.9387 87.7253
L170.7482 87.6301
" />
<path d="M170.7482 87.6301
L170.6529 87.4396
" />
<path d="M170.6529 87.4396
L170.6529 87.3444
" />
<path d="M170.6529 87.3444
L170.7482 87.1539
" />
<path d="M170.7482 87.1539
L170.9387 87.0587
" />
<path d="M170.9387 87.0587
L171.2244 87.0587
" />
<path d="M171.2244 87.0587
L171.4148 87.1539
" />
<path d="M172.1768 89.1539
L172.2720 89.0587
" />
<path d="M172.2720 89.0587
L172.4625 88.7730
" />
<path d="M172.4625 88.7730
L172.5577 88.5825
" />
<path d="M172.5577 88.5825
L172.6529 88.2968
" />
<path d="M172.6529 88.2968
L172.7482 87.8206
" />
<path d="M172.7482 87.8206
L172.7482 87.4396
" />
<path d="M172.7482 87.4396
L172.6529 86.9634
" />
<path d="M172.6529 86.9634
L172.5577 86.6777
" />
<path d="M172.5577 86.6777
L172.4625 86.4872
" />
<path d="M172.4625 86.4872
L172.2720 86.2015
" />
<path d="M172.2720 86.2015
L172.1768 86.1063
" />
</g></g> 
</svg>
