<?xml version="1.0" standalone="no"?>
 <!DOCTYPE svg PUBLIC "-//W3C//DTD SVG 1.1//EN" 
 "http://www.w3.org/Graphics/SVG/1.1/DTD/svg11.dtd"> 
<svg
  xmlns:svg="http://www.w3.org/2000/svg"
  xmlns="http://www.w3.org/2000/svg"
  xmlns:xlink="http://www.w3.org/1999/xlink"
  version="1.1"
  width="297.0022mm" height="210.0072mm" viewBox="0.0000 0.0000 297.0022 210.0072">
<title>SVG Image created as Ultra_Light-NPTH-drl_map.svg date 2024/04/04 23:00:21 </title>
  <desc>Image generated by PCBNEW </desc>
<g style="fill:#000000; fill-opacity:1.0000;stroke:#000000; stroke-opacity:1.0000;
stroke-linecap:round; stroke-linejoin:round;"
 transform="translate(0 0) scale(1 1)">
</g>
<g style="fill:#000000; fill-opacity:0.0; 
stroke:#000000; stroke-width:0.0000; stroke-opacity:1; 
stroke-linecap:round; stroke-linejoin:round;">
</g>
<g style="fill:#000000; fill-opacity:0.0; 
stroke:#000000; stroke-width:0.1500; stroke-opacity:1; 
stroke-linecap:round; stroke-linejoin:round;">
<path style="fill:#000000; fill-opacity:0.0; 
stroke:#000000; stroke-width:0.1500; stroke-opacity:1; 
stroke-linecap:round; stroke-linejoin:round;fill:none"
d="M 124.5011,45.0022
172.5011,45.0022
172.5011,81.0022
124.5011,81.0022
Z" /> 
</g>
<g style="fill:#000000; fill-opacity:0.0; 
stroke:#000000; stroke-width:0.6000; stroke-opacity:1; 
stroke-linecap:round; stroke-linejoin:round;">
</g>
<g style="fill:#000000; fill-opacity:0.0; 
stroke:#000000; stroke-width:0.2000; stroke-opacity:1; 
stroke-linecap:round; stroke-linejoin:round;">
<text x="126.4261" y="84.2772"
textLength="14.8667" font-size="2.6667" lengthAdjust="spacingAndGlyphs"
text-anchor="start" opacity="0">Drill Map:</text>
<g class="stroked-text"><desc>Drill Map:</desc>
<path d="M127.0339 84.1920
L127.0339 82.1920
" />
<path d="M127.0339 82.1920
L127.5101 82.1920
" />
<path d="M127.5101 82.1920
L127.7958 82.2872
" />
<path d="M127.7958 82.2872
L127.9862 82.4777
" />
<path d="M127.9862 82.4777
L128.0815 82.6682
" />
<path d="M128.0815 82.6682
L128.1767 83.0491
" />
<path d="M128.1767 83.0491
L128.1767 83.3349
" />
<path d="M128.1767 83.3349
L128.0815 83.7158
" />
<path d="M128.0815 83.7158
L127.9862 83.9063
" />
<path d="M127.9862 83.9063
L127.7958 84.0968
" />
<path d="M127.7958 84.0968
L127.5101 84.1920
" />
<path d="M127.5101 84.1920
L127.0339 84.1920
" />
<path d="M129.0339 84.1920
L129.0339 82.8587
" />
<path d="M129.0339 83.2396
L129.1291 83.0491
" />
<path d="M129.1291 83.0491
L129.2243 82.9539
" />
<path d="M129.2243 82.9539
L129.4148 82.8587
" />
<path d="M129.4148 82.8587
L129.6053 82.8587
" />
<path d="M130.2720 84.1920
L130.2720 82.8587
" />
<path d="M130.2720 82.1920
L130.1767 82.2872
" />
<path d="M130.1767 82.2872
L130.2720 82.3825
" />
<path d="M130.2720 82.3825
L130.3672 82.2872
" />
<path d="M130.3672 82.2872
L130.2720 82.1920
" />
<path d="M130.2720 82.1920
L130.2720 82.3825
" />
<path d="M131.5101 84.1920
L131.3196 84.0968
" />
<path d="M131.3196 84.0968
L131.2243 83.9063
" />
<path d="M131.2243 83.9063
L131.2243 82.1920
" />
<path d="M132.5577 84.1920
L132.3672 84.0968
" />
<path d="M132.3672 84.0968
L132.2720 83.9063
" />
<path d="M132.2720 83.9063
L132.2720 82.1920
" />
<path d="M134.8434 84.1920
L134.8434 82.1920
" />
<path d="M134.8434 82.1920
L135.5101 83.6206
" />
<path d="M135.5101 83.6206
L136.1767 82.1920
" />
<path d="M136.1767 82.1920
L136.1767 84.1920
" />
<path d="M137.9863 84.1920
L137.9863 83.1444
" />
<path d="M137.9863 83.1444
L137.8910 82.9539
" />
<path d="M137.8910 82.9539
L137.7005 82.8587
" />
<path d="M137.7005 82.8587
L137.3196 82.8587
" />
<path d="M137.3196 82.8587
L137.1291 82.9539
" />
<path d="M137.9863 84.0968
L137.7958 84.1920
" />
<path d="M137.7958 84.1920
L137.3196 84.1920
" />
<path d="M137.3196 84.1920
L137.1291 84.0968
" />
<path d="M137.1291 84.0968
L137.0339 83.9063
" />
<path d="M137.0339 83.9063
L137.0339 83.7158
" />
<path d="M137.0339 83.7158
L137.1291 83.5253
" />
<path d="M137.1291 83.5253
L137.3196 83.4301
" />
<path d="M137.3196 83.4301
L137.7958 83.4301
" />
<path d="M137.7958 83.4301
L137.9863 83.3349
" />
<path d="M138.9386 82.8587
L138.9386 84.8587
" />
<path d="M138.9386 82.9539
L139.1291 82.8587
" />
<path d="M139.1291 82.8587
L139.5101 82.8587
" />
<path d="M139.5101 82.8587
L139.7005 82.9539
" />
<path d="M139.7005 82.9539
L139.7958 83.0491
" />
<path d="M139.7958 83.0491
L139.8910 83.2396
" />
<path d="M139.8910 83.2396
L139.8910 83.8110
" />
<path d="M139.8910 83.8110
L139.7958 84.0015
" />
<path d="M139.7958 84.0015
L139.7005 84.0968
" />
<path d="M139.7005 84.0968
L139.5101 84.1920
" />
<path d="M139.5101 84.1920
L139.1291 84.1920
" />
<path d="M139.1291 84.1920
L138.9386 84.0968
" />
<path d="M140.7482 84.0015
L140.8434 84.0968
" />
<path d="M140.8434 84.0968
L140.7482 84.1920
" />
<path d="M140.7482 84.1920
L140.6529 84.0968
" />
<path d="M140.6529 84.0968
L140.7482 84.0015
" />
<path d="M140.7482 84.0015
L140.7482 84.1920
" />
<path d="M140.7482 82.9539
L140.8434 83.0491
" />
<path d="M140.8434 83.0491
L140.7482 83.1444
" />
<path d="M140.7482 83.1444
L140.6529 83.0491
" />
<path d="M140.6529 83.0491
L140.7482 82.9539
" />
<path d="M140.7482 82.9539
L140.7482 83.1444
" />
</g></g> 
</svg>
