<?xml version="1.0" encoding="UTF-8" standalone="no"?>
<svg
   viewBox="0 0 815.99998 1056"
   width="8.5in"
   height="11in"
   version="1.1"
   id="svg18"
   sodipodi:docname="holes 4 front plate.svg"
   inkscape:version="1.4.2 (f4327f4, 2025-05-13)"
   xmlns:inkscape="http://www.inkscape.org/namespaces/inkscape"
   xmlns:sodipodi="http://sodipodi.sourceforge.net/DTD/sodipodi-0.dtd"
   xmlns="http://www.w3.org/2000/svg"
   xmlns:svg="http://www.w3.org/2000/svg">
  <sodipodi:namedview
     id="namedview18"
     pagecolor="#ffffff"
     bordercolor="#000000"
     borderopacity="0.25"
     inkscape:showpageshadow="2"
     inkscape:pageopacity="0.0"
     inkscape:pagecheckerboard="0"
     inkscape:deskcolor="#d1d1d1"
     inkscape:zoom="0.57638189"
     inkscape:cx="396.43855"
     inkscape:cy="561.25983"
     inkscape:window-width="1786"
     inkscape:window-height="849"
     inkscape:window-x="-8"
     inkscape:window-y="-8"
     inkscape:window-maximized="1"
     inkscape:current-layer="g18"
     inkscape:document-units="in" />
  <desc
     id="desc1">holes 4 front plate.dxf - scale = 1.000000, origin = (0.000000, 0.000000), method = manual</desc>
  <defs
     id="defs4">
    <marker
       id="DistanceX"
       orient="auto"
       refX="0"
       refY="0"
       style="overflow:visible">
      <path
         d="M 3,-3 -3,3 M 0,-5 V 5"
         style="stroke:#000000;stroke-width:0.5"
         id="path1" />
    </marker>
    <pattern
       id="Hatch"
       patternUnits="userSpaceOnUse"
       width="8"
       height="8"
       x="0"
       y="0">
      <path
         d="M8 4 l-4,4"
         stroke="#000000"
         stroke-width="0.25"
         linecap="square"
         id="path2" />
      <path
         d="M6 2 l-4,4"
         stroke="#000000"
         stroke-width="0.25"
         linecap="square"
         id="path3" />
      <path
         d="M4 0 l-4,4"
         stroke="#000000"
         stroke-width="0.25"
         linecap="square"
         id="path4" />
    </pattern>
    <symbol
       id="*MODEL_SPACE" />
    <symbol
       id="*PAPER_SPACE" />
  </defs>
  <g
     inkscape:groupmode="layer"
     inkscape:label="0"
     id="g18">
    <path
       d="m 397.2517,903.71893 a 0.25,0.25 0 0 0 0,0.5 0.25,0.25 0 0 0 0,-0.5 z"
       style="fill:none;stroke:#000000"
       id="path5" />
    <path
       d="m 397.2517,790.33313 a 0.25,0.25 0 0 0 0,0.5 0.25,0.25 0 0 0 0,-0.5 z"
       style="fill:none;stroke:#000000"
       id="path6" />
    <path
       d="m 397.2517,147.81344 a 0.25,0.25 0 0 0 0,0.5 0.25,0.25 0 0 0 0,-0.5 z"
       style="fill:none;stroke:#000000"
       id="path7" />
    <path
       d="m 397.2517,261.19927 a 0.25,0.25 0 0 0 0,0.5 0.25,0.25 0 0 0 0,-0.5 z"
       style="fill:none;stroke:#000000"
       id="path8" />
    <path
       d="M 495.14147,941.76423 V 110.26817 H 351.51942 v 831.49606 z"
       style="fill:none;stroke:#000000"
       id="path9" />
    <path
       style="fill:none;stroke:#000000"
       d="m 406.70077,903.96923 h -18.898"
       id="path11" />
    <path
       style="fill:none;stroke:#000000"
       d="m 397.25177,894.52023 v 18.898"
       id="path12" />
    <path
       style="fill:none;stroke:#000000"
       d="m 397.25177,800.03223 v -18.898"
       id="path13" />
    <path
       style="fill:none;stroke:#000000"
       d="m 406.70077,790.58323 h -18.898"
       id="path14" />
    <path
       style="fill:none;stroke:#000000"
       d="m 397.25177,252.0002 v 18.898"
       id="path15" />
    <path
       style="fill:none;stroke:#000000"
       d="m 406.70077,261.4492 h -18.898"
       id="path16" />
    <path
       style="fill:none;stroke:#000000"
       d="m 397.25177,157.5122 v -18.898"
       id="path17" />
    <path
       style="fill:none;stroke:#000000"
       d="m 406.70077,148.0632 h -18.898"
       id="path18" />
  </g>
</svg>
