999
"DXF R12 Output" (www.mydxf.blogspot.com)
 0 
SECTION
 2 
HEADER
 9 
$ACADVER
 1 
AC1009
 9 
$EXTMIN
 10 
 0 
 20 
 0 
 9 
$EXTMAX
 10 
 8.5 
 20 
 11 
 0 
ENDSEC
 0 
SECTION
 2 
ENTITIES
0
POLYLINE
8
0
62
7
70
0
10
0.000000
20
0.000000
66
1
0
VERTEX
8
0
10
138.318838
20
38.867367
70
0
0
VERTEX
8
0
10
138.384984
20
38.933513
70
0
0
VERTEX
8
0
10
138.318838
20
38.999659
70
0
0
VERTEX
8
0
10
138.252693
20
38.933513
70
0
0
VERTEX
8
0
10
138.318838
20
38.867367
70
0
0
VERTEX
8
0
10
138.318838
20
38.867367
70
0
0
SEQEND
8
0
0
POLYLINE
8
0
62
7
70
0
10
0.000000
20
0.000000
66
1
0
VERTEX
8
0
10
138.318838
20
238.867128
70
0
0
VERTEX
8
0
10
138.376122
20
238.900201
70
0
0
VERTEX
8
0
10
138.376122
20
238.966347
70
0
0
VERTEX
8
0
10
138.318838
20
238.999419
70
0
0
VERTEX
8
0
10
138.261554
20
238.966347
70
0
0
VERTEX
8
0
10
138.261554
20
238.900201
70
0
0
VERTEX
8
0
10
138.318838
20
238.867128
70
0
0
VERTEX
8
0
10
138.318838
20
238.867128
70
0
0
SEQEND
8
0
0
POLYLINE
8
0
62
7
70
0
10
0.000000
20
0.000000
66
1
0
VERTEX
8
0
10
159.118811
20
220.867150
70
0
0
VERTEX
8
0
10
159.176095
20
220.900222
70
0
0
VERTEX
8
0
10
159.176095
20
220.966368
70
0
0
VERTEX
8
0
10
159.118811
20
220.999441
70
0
0
VERTEX
8
0
10
159.061527
20
220.966368
70
0
0
VERTEX
8
0
10
159.061527
20
220.900222
70
0
0
VERTEX
8
0
10
159.118811
20
220.867150
70
0
0
VERTEX
8
0
10
159.118811
20
220.867150
70
0
0
SEQEND
8
0
0
POLYLINE
8
0
62
7
70
0
10
0.000000
20
0.000000
66
1
0
VERTEX
8
0
10
195.118768
20
256.867104
70
0
0
VERTEX
8
0
10
195.184914
20
256.933250
70
0
0
VERTEX
8
0
10
195.118768
20
256.999395
70
0
0
VERTEX
8
0
10
195.052622
20
256.933250
70
0
0
VERTEX
8
0
10
195.118768
20
256.867104
70
0
0
VERTEX
8
0
10
195.118768
20
256.867104
70
0
0
SEQEND
8
0
0
POLYLINE
8
0
62
7
70
0
10
0.000000
20
0.000000
66
1
0
VERTEX
8
0
10
177.118790
20
238.867128
70
0
0
VERTEX
8
0
10
177.176074
20
238.900201
70
0
0
VERTEX
8
0
10
177.176074
20
238.966347
70
0
0
VERTEX
8
0
10
177.118790
20
238.999419
70
0
0
VERTEX
8
0
10
177.061506
20
238.966347
70
0
0
VERTEX
8
0
10
177.061506
20
238.900201
70
0
0
VERTEX
8
0
10
177.118790
20
238.867128
70
0
0
VERTEX
8
0
10
177.118790
20
238.867128
70
0
0
SEQEND
8
0
0
POLYLINE
8
0
62
7
70
0
10
0.000000
20
0.000000
66
1
0
VERTEX
8
0
10
15.918985
20
238.867128
70
0
0
VERTEX
8
0
10
15.976269
20
238.900201
70
0
0
VERTEX
8
0
10
15.976269
20
238.966347
70
0
0
VERTEX
8
0
10
15.918985
20
238.999419
70
0
0
VERTEX
8
0
10
15.861701
20
238.966347
70
0
0
VERTEX
8
0
10
15.861701
20
238.900201
70
0
0
VERTEX
8
0
10
15.918985
20
238.867128
70
0
0
VERTEX
8
0
10
15.918985
20
238.867128
70
0
0
SEQEND
8
0
0
POLYLINE
8
0
62
7
70
0
10
0.000000
20
0.000000
66
1
0
VERTEX
8
0
10
15.918985
20
208.867165
70
0
0
VERTEX
8
0
10
15.976269
20
208.900238
70
0
0
VERTEX
8
0
10
15.976269
20
208.966384
70
0
0
VERTEX
8
0
10
15.918985
20
208.999456
70
0
0
VERTEX
8
0
10
15.861701
20
208.966384
70
0
0
VERTEX
8
0
10
15.861701
20
208.900238
70
0
0
VERTEX
8
0
10
15.918985
20
208.867165
70
0
0
VERTEX
8
0
10
15.918985
20
208.867165
70
0
0
SEQEND
8
0
0
POLYLINE
8
0
62
7
70
0
10
0.000000
20
0.000000
66
1
0
VERTEX
8
0
10
15.918985
20
68.867349
70
0
0
VERTEX
8
0
10
15.985131
20
68.933494
70
0
0
VERTEX
8
0
10
15.918985
20
68.999640
70
0
0
VERTEX
8
0
10
15.852839
20
68.933494
70
0
0
VERTEX
8
0
10
15.918985
20
68.867349
70
0
0
VERTEX
8
0
10
15.918985
20
68.867349
70
0
0
SEQEND
8
0
0
POLYLINE
8
0
62
7
70
0
10
0.000000
20
0.000000
66
1
0
VERTEX
8
0
10
15.918985
20
38.867367
70
0
0
VERTEX
8
0
10
15.985131
20
38.933513
70
0
0
VERTEX
8
0
10
15.918985
20
38.999659
70
0
0
VERTEX
8
0
10
15.852839
20
38.933513
70
0
0
VERTEX
8
0
10
15.918985
20
38.867367
70
0
0
VERTEX
8
0
10
15.918985
20
38.867367
70
0
0
SEQEND
8
0
0
POLYLINE
8
0
62
7
70
0
10
0.000000
20
0.000000
66
1
0
VERTEX
8
0
10
159.118811
20
56.867346
70
0
0
VERTEX
8
0
10
159.176095
20
56.900418
70
0
0
VERTEX
8
0
10
159.176095
20
56.966564
70
0
0
VERTEX
8
0
10
159.118811
20
56.999637
70
0
0
VERTEX
8
0
10
159.061527
20
56.966564
70
0
0
VERTEX
8
0
10
159.061527
20
56.900418
70
0
0
VERTEX
8
0
10
159.118811
20
56.867346
70
0
0
VERTEX
8
0
10
159.118811
20
56.867346
70
0
0
SEQEND
8
0
0
POLYLINE
8
0
62
7
70
0
10
0.000000
20
0.000000
66
1
0
VERTEX
8
0
10
177.118790
20
38.867367
70
0
0
VERTEX
8
0
10
177.184935
20
38.933513
70
0
0
VERTEX
8
0
10
177.118790
20
38.999659
70
0
0
VERTEX
8
0
10
177.052644
20
38.933513
70
0
0
VERTEX
8
0
10
177.118790
20
38.867367
70
0
0
VERTEX
8
0
10
177.118790
20
38.867367
70
0
0
SEQEND
8
0
0
POLYLINE
8
0
62
7
70
0
10
0.000000
20
0.000000
66
1
0
VERTEX
8
0
10
195.118768
20
20.867389
70
0
0
VERTEX
8
0
10
195.176052
20
20.900462
70
0
0
VERTEX
8
0
10
195.176052
20
20.966607
70
0
0
VERTEX
8
0
10
195.118768
20
20.999680
70
0
0
VERTEX
8
0
10
195.061484
20
20.966607
70
0
0
VERTEX
8
0
10
195.061484
20
20.900462
70
0
0
VERTEX
8
0
10
195.118768
20
20.867389
70
0
0
VERTEX
8
0
10
195.118768
20
20.867389
70
0
0
SEQEND
8
0
0
POLYLINE
8
0
62
7
70
1
10
0.000000
20
0.000000
66
1
0
VERTEX
8
0
10
-55.855927
20
7.933556
70
0
0
VERTEX
8
0
10
-55.855927
20
269.933234
70
0
0
VERTEX
8
0
10
210.093748
20
269.933234
70
0
0
VERTEX
8
0
10
210.093748
20
7.933556
70
0
0
VERTEX
8
0
10
-55.855927
20
7.933556
70
0
0
SEQEND
8
0
0
POLYLINE
8
0
62
7
70
0
10
0.000000
20
0.000000
66
1
0
VERTEX
8
0
10
-9.905163
20
269.933205
70
0
0
VERTEX
8
0
10
-9.905163
20
7.933582
70
0
0
SEQEND
8
0
0
POLYLINE
8
0
62
7
70
0
10
0.000000
20
0.000000
66
1
0
VERTEX
8
0
10
177.118790
20
222.933294
70
0
0
VERTEX
8
0
10
178.754539
20
223.016096
70
0
0
VERTEX
8
0
10
180.343025
20
223.258716
70
0
0
VERTEX
8
0
10
181.876206
20
223.653112
70
0
0
VERTEX
8
0
10
183.346043
20
224.191244
70
0
0
VERTEX
8
0
10
184.744497
20
224.865071
70
0
0
VERTEX
8
0
10
186.063526
20
225.666551
70
0
0
VERTEX
8
0
10
188.431154
20
227.620307
70
0
0
VERTEX
8
0
10
190.384606
20
229.988186
70
0
0
VERTEX
8
0
10
191.185916
20
231.307318
70
0
0
VERTEX
8
0
10
191.859563
20
232.705858
70
0
0
VERTEX
8
0
10
192.397506
20
234.175765
70
0
0
VERTEX
8
0
10
192.791705
20
235.708997
70
0
0
VERTEX
8
0
10
193.034120
20
237.297514
70
0
0
VERTEX
8
0
10
193.116712
20
238.933274
70
0
0
VERTEX
8
0
10
193.034120
20
240.569034
70
0
0
VERTEX
8
0
10
192.791705
20
242.157551
70
0
0
VERTEX
8
0
10
192.397506
20
243.690783
70
0
0
VERTEX
8
0
10
191.859563
20
245.160689
70
0
0
VERTEX
8
0
10
191.185916
20
246.559229
70
0
0
VERTEX
8
0
10
190.384606
20
247.878362
70
0
0
VERTEX
8
0
10
188.431154
20
250.246241
70
0
0
VERTEX
8
0
10
186.063526
20
252.199997
70
0
0
VERTEX
8
0
10
184.744497
20
253.001477
70
0
0
VERTEX
8
0
10
183.346043
20
253.675304
70
0
0
VERTEX
8
0
10
181.876206
20
254.213435
70
0
0
VERTEX
8
0
10
180.343025
20
254.607832
70
0
0
VERTEX
8
0
10
178.754539
20
254.850451
70
0
0
VERTEX
8
0
10
177.118790
20
254.933254
70
0
0
VERTEX
8
0
10
175.483040
20
254.850451
70
0
0
VERTEX
8
0
10
173.894555
20
254.607832
70
0
0
VERTEX
8
0
10
172.361373
20
254.213435
70
0
0
VERTEX
8
0
10
170.891536
20
253.675304
70
0
0
VERTEX
8
0
10
169.493082
20
253.001477
70
0
0
VERTEX
8
0
10
168.174053
20
252.199997
70
0
0
VERTEX
8
0
10
165.806425
20
250.246241
70
0
0
VERTEX
8
0
10
163.852973
20
247.878362
70
0
0
VERTEX
8
0
10
163.051663
20
246.559229
70
0
0
VERTEX
8
0
10
162.378017
20
245.160689
70
0
0
VERTEX
8
0
10
161.840074
20
243.690783
70
0
0
VERTEX
8
0
10
161.445875
20
242.157551
70
0
0
VERTEX
8
0
10
161.203459
20
240.569034
70
0
0
VERTEX
8
0
10
161.120867
20
238.933274
70
0
0
VERTEX
8
0
10
161.203459
20
237.297514
70
0
0
VERTEX
8
0
10
161.445875
20
235.708997
70
0
0
VERTEX
8
0
10
161.840074
20
234.175765
70
0
0
VERTEX
8
0
10
162.378017
20
232.705858
70
0
0
VERTEX
8
0
10
163.051663
20
231.307318
70
0
0
VERTEX
8
0
10
163.852973
20
229.988186
70
0
0
VERTEX
8
0
10
165.806425
20
227.620307
70
0
0
VERTEX
8
0
10
168.174053
20
225.666551
70
0
0
VERTEX
8
0
10
169.493082
20
224.865071
70
0
0
VERTEX
8
0
10
170.891536
20
224.191244
70
0
0
VERTEX
8
0
10
172.361373
20
223.653112
70
0
0
VERTEX
8
0
10
173.894555
20
223.258716
70
0
0
VERTEX
8
0
10
175.483040
20
223.016096
70
0
0
VERTEX
8
0
10
177.118790
20
222.933294
70
0
0
VERTEX
8
0
10
177.118790
20
222.933294
70
0
0
SEQEND
8
0
0
POLYLINE
8
0
62
7
70
0
10
0.000000
20
0.000000
66
1
0
VERTEX
8
0
10
177.118790
20
22.933544
70
0
0
VERTEX
8
0
10
178.754695
20
23.016150
70
0
0
VERTEX
8
0
10
180.343344
20
23.258607
70
0
0
VERTEX
8
0
10
181.876695
20
23.652872
70
0
0
VERTEX
8
0
10
183.346705
20
24.190902
70
0
0
VERTEX
8
0
10
184.745331
20
24.864656
70
0
0
VERTEX
8
0
10
186.064532
20
25.666090
70
0
0
VERTEX
8
0
10
188.432485
20
27.619830
70
0
0
VERTEX
8
0
10
190.386226
20
29.987784
70
0
0
VERTEX
8
0
10
191.187660
20
31.306985
70
0
0
VERTEX
8
0
10
191.861413
20
32.705611
70
0
0
VERTEX
8
0
10
192.399444
20
34.175621
70
0
0
VERTEX
8
0
10
192.793708
20
35.708972
70
0
0
VERTEX
8
0
10
193.036165
20
37.297621
70
0
0
VERTEX
8
0
10
193.118771
20
38.933526
70
0
0
VERTEX
8
0
10
193.036165
20
40.569431
70
0
0
VERTEX
8
0
10
192.793708
20
42.158081
70
0
0
VERTEX
8
0
10
192.399444
20
43.691431
70
0
0
VERTEX
8
0
10
191.861413
20
45.161441
70
0
0
VERTEX
8
0
10
191.187660
20
46.560068
70
0
0
VERTEX
8
0
10
190.386226
20
47.879268
70
0
0
VERTEX
8
0
10
188.432485
20
50.247222
70
0
0
VERTEX
8
0
10
186.064532
20
52.200962
70
0
0
VERTEX
8
0
10
184.745331
20
53.002397
70
0
0
VERTEX
8
0
10
183.346705
20
53.676150
70
0
0
VERTEX
8
0
10
181.876695
20
54.214181
70
0
0
VERTEX
8
0
10
180.343344
20
54.608445
70
0
0
VERTEX
8
0
10
178.754695
20
54.850902
70
0
0
VERTEX
8
0
10
177.118790
20
54.933508
70
0
0
VERTEX
8
0
10
175.482884
20
54.850902
70
0
0
VERTEX
8
0
10
173.894235
20
54.608445
70
0
0
VERTEX
8
0
10
172.360884
20
54.214181
70
0
0
VERTEX
8
0
10
170.890875
20
53.676150
70
0
0
VERTEX
8
0
10
169.492248
20
53.002397
70
0
0
VERTEX
8
0
10
168.173048
20
52.200962
70
0
0
VERTEX
8
0
10
165.805094
20
50.247222
70
0
0
VERTEX
8
0
10
163.851354
20
47.879268
70
0
0
VERTEX
8
0
10
163.049919
20
46.560068
70
0
0
VERTEX
8
0
10
162.376166
20
45.161441
70
0
0
VERTEX
8
0
10
161.838136
20
43.691431
70
0
0
VERTEX
8
0
10
161.443871
20
42.158081
70
0
0
VERTEX
8
0
10
161.201414
20
40.569431
70
0
0
VERTEX
8
0
10
161.118808
20
38.933526
70
0
0
VERTEX
8
0
10
161.201414
20
37.297621
70
0
0
VERTEX
8
0
10
161.443871
20
35.708972
70
0
0
VERTEX
8
0
10
161.838136
20
34.175621
70
0
0
VERTEX
8
0
10
162.376166
20
32.705611
70
0
0
VERTEX
8
0
10
163.049919
20
31.306985
70
0
0
VERTEX
8
0
10
163.851354
20
29.987784
70
0
0
VERTEX
8
0
10
165.805094
20
27.619830
70
0
0
VERTEX
8
0
10
168.173048
20
25.666090
70
0
0
VERTEX
8
0
10
169.492248
20
24.864656
70
0
0
VERTEX
8
0
10
170.890875
20
24.190902
70
0
0
VERTEX
8
0
10
172.360884
20
23.652872
70
0
0
VERTEX
8
0
10
173.894235
20
23.258607
70
0
0
VERTEX
8
0
10
175.482884
20
23.016150
70
0
0
VERTEX
8
0
10
177.118790
20
22.933544
70
0
0
VERTEX
8
0
10
177.118790
20
22.933544
70
0
0
SEQEND
8
0
0
POLYLINE
8
0
62
7
70
0
10
0.000000
20
0.000000
66
1
0
VERTEX
8
0
10
197.618662
20
256.933184
70
0
0
VERTEX
8
0
10
192.618837
20
256.933184
70
0
0
SEQEND
8
0
0
POLYLINE
8
0
62
7
70
0
10
0.000000
20
0.000000
66
1
0
VERTEX
8
0
10
195.118882
20
259.433228
70
0
0
VERTEX
8
0
10
195.118882
20
254.433139
70
0
0
SEQEND
8
0
0
POLYLINE
8
0
62
7
70
0
10
0.000000
20
0.000000
66
1
0
VERTEX
8
0
10
159.118925
20
223.433271
70
0
0
VERTEX
8
0
10
159.118925
20
218.433182
70
0
0
SEQEND
8
0
0
POLYLINE
8
0
62
7
70
0
10
0.000000
20
0.000000
66
1
0
VERTEX
8
0
10
161.618705
20
220.933227
70
0
0
VERTEX
8
0
10
156.618880
20
220.933227
70
0
0
SEQEND
8
0
0
POLYLINE
8
0
62
7
70
0
10
0.000000
20
0.000000
66
1
0
VERTEX
8
0
10
140.818777
20
238.933337
70
0
0
VERTEX
8
0
10
135.818952
20
238.933337
70
0
0
SEQEND
8
0
0
POLYLINE
8
0
62
7
70
0
10
0.000000
20
0.000000
66
1
0
VERTEX
8
0
10
138.318732
20
241.433382
70
0
0
VERTEX
8
0
10
138.318732
20
236.433290
70
0
0
SEQEND
8
0
0
POLYLINE
8
0
62
7
70
0
10
0.000000
20
0.000000
66
1
0
VERTEX
8
0
10
18.418448
20
238.933337
70
0
0
VERTEX
8
0
10
13.417829
20
238.933337
70
0
0
SEQEND
8
0
0
POLYLINE
8
0
62
7
70
0
10
0.000000
20
0.000000
66
1
0
VERTEX
8
0
10
15.918141
20
236.433292
70
0
0
VERTEX
8
0
10
15.918141
20
241.433382
70
0
0
SEQEND
8
0
0
POLYLINE
8
0
62
7
70
0
10
0.000000
20
0.000000
66
1
0
VERTEX
8
0
10
18.418448
20
208.933329
70
0
0
VERTEX
8
0
10
13.417829
20
208.933329
70
0
0
SEQEND
8
0
0
POLYLINE
8
0
62
7
70
0
10
0.000000
20
0.000000
66
1
0
VERTEX
8
0
10
15.918141
20
211.433374
70
0
0
VERTEX
8
0
10
15.918141
20
206.433284
70
0
0
SEQEND
8
0
0
POLYLINE
8
0
62
7
70
0
10
0.000000
20
0.000000
66
1
0
VERTEX
8
0
10
195.118882
20
18.433569
70
0
0
VERTEX
8
0
10
195.118882
20
23.433659
70
0
0
SEQEND
8
0
0
POLYLINE
8
0
62
7
70
0
10
0.000000
20
0.000000
66
1
0
VERTEX
8
0
10
161.618705
20
56.933571
70
0
0
VERTEX
8
0
10
156.618880
20
56.933571
70
0
0
SEQEND
8
0
0
POLYLINE
8
0
62
7
70
0
10
0.000000
20
0.000000
66
1
0
VERTEX
8
0
10
159.118925
20
54.433526
70
0
0
VERTEX
8
0
10
159.118925
20
59.433615
70
0
0
SEQEND
8
0
0
POLYLINE
8
0
62
7
70
0
10
0.000000
20
0.000000
66
1
0
VERTEX
8
0
10
140.818777
20
38.933460
70
0
0
VERTEX
8
0
10
135.818952
20
38.933460
70
0
0
SEQEND
8
0
0
POLYLINE
8
0
62
7
70
0
10
0.000000
20
0.000000
66
1
0
VERTEX
8
0
10
138.318732
20
36.433415
70
0
0
VERTEX
8
0
10
138.318732
20
41.433505
70
0
0
SEQEND
8
0
0
POLYLINE
8
0
62
7
70
0
10
0.000000
20
0.000000
66
1
0
VERTEX
8
0
10
18.418448
20
38.933460
70
0
0
VERTEX
8
0
10
13.417829
20
38.933460
70
0
0
SEQEND
8
0
0
POLYLINE
8
0
62
7
70
0
10
0.000000
20
0.000000
66
1
0
VERTEX
8
0
10
15.918141
20
41.433505
70
0
0
VERTEX
8
0
10
15.918141
20
36.433415
70
0
0
SEQEND
8
0
0
POLYLINE
8
0
62
7
70
0
10
0.000000
20
0.000000
66
1
0
VERTEX
8
0
10
15.918141
20
66.433423
70
0
0
VERTEX
8
0
10
15.918141
20
71.433513
70
0
0
SEQEND
8
0
0
POLYLINE
8
0
62
7
70
0
10
0.000000
20
0.000000
66
1
0
VERTEX
8
0
10
18.418448
20
68.933468
70
0
0
VERTEX
8
0
10
13.417829
20
68.933468
70
0
0
SEQEND
8
0
0
POLYLINE
8
0
62
7
70
0
10
0.000000
20
0.000000
66
1
0
VERTEX
8
0
10
197.618662
20
20.933614
70
0
0
VERTEX
8
0
10
192.618837
20
20.933614
70
0
0
SEQEND
8
0
0
POLYLINE
8
0
62
7
70
0
10
0.000000
20
0.000000
66
1
0
VERTEX
8
0
10
179.618816
20
238.933337
70
0
0
VERTEX
8
0
10
174.618726
20
238.933337
70
0
0
SEQEND
8
0
0
POLYLINE
8
0
62
7
70
0
10
0.000000
20
0.000000
66
1
0
VERTEX
8
0
10
177.118771
20
241.433382
70
0
0
VERTEX
8
0
10
177.118771
20
236.433290
70
0
0
SEQEND
8
0
0
POLYLINE
8
0
62
7
70
0
10
0.000000
20
0.000000
66
1
0
VERTEX
8
0
10
177.118771
20
36.433415
70
0
0
VERTEX
8
0
10
177.118771
20
41.433505
70
0
0
SEQEND
8
0
0
POLYLINE
8
0
62
7
70
0
10
0.000000
20
0.000000
66
1
0
VERTEX
8
0
10
179.618816
20
38.933460
70
0
0
VERTEX
8
0
10
174.618726
20
38.933460
70
0
0
SEQEND
8
0
 0 
ENDSEC
 0 
EOF