<?xml version="1.0" encoding="UTF-8" standalone="no"?>
<svg
   viewBox="0 0 797.48047 117.166"
   width="211.00005mm"
   height="31.000172mm"
   version="1.1"
   id="svg31"
   sodipodi:docname="back_panel_0.svg"
   inkscape:version="1.3 (0e150ed6c4, 2023-07-21)"
   xmlns:inkscape="http://www.inkscape.org/namespaces/inkscape"
   xmlns:sodipodi="http://sodipodi.sourceforge.net/DTD/sodipodi-0.dtd"
   xmlns="http://www.w3.org/2000/svg"
   xmlns:svg="http://www.w3.org/2000/svg">
  <sodipodi:namedview
     id="namedview31"
     pagecolor="#ffffff"
     bordercolor="#666666"
     borderopacity="1.0"
     inkscape:showpageshadow="2"
     inkscape:pageopacity="0.0"
     inkscape:pagecheckerboard="0"
     inkscape:deskcolor="#d1d1d1"
     inkscape:zoom="1.2479784"
     inkscape:cx="345.7592"
     inkscape:cy="-131.01189"
     inkscape:window-width="1876"
     inkscape:window-height="915"
     inkscape:window-x="-8"
     inkscape:window-y="-8"
     inkscape:window-maximized="1"
     inkscape:current-layer="g31"
     inkscape:document-units="mm" />
  <desc
     id="desc1">back_panel_0.dxf - scale = 1.000000, origin = (0.000000, 0.000000), method = manual</desc>
  <defs
     id="defs4">
    <marker
       id="DistanceX"
       orient="auto"
       refX="0"
       refY="0"
       style="overflow:visible">
      <path
         d="M 3,-3 -3,3 M 0,-5 V 5"
         style="stroke:#000000;stroke-width:0.5"
         id="path1" />
    </marker>
    <pattern
       id="Hatch"
       patternUnits="userSpaceOnUse"
       width="8"
       height="8"
       x="0"
       y="0">
      <path
         d="M8 4 l-4,4"
         stroke="#000000"
         stroke-width="0.25"
         linecap="square"
         id="path2" />
      <path
         d="M6 2 l-4,4"
         stroke="#000000"
         stroke-width="0.25"
         linecap="square"
         id="path3" />
      <path
         d="M4 0 l-4,4"
         stroke="#000000"
         stroke-width="0.25"
         linecap="square"
         id="path4" />
    </pattern>
    <symbol
       id="*MODEL_SPACE" />
    <symbol
       id="*PAPER_SPACE" />
  </defs>
  <g
     inkscape:groupmode="layer"
     inkscape:label="0"
     id="g31"
     transform="translate(398.74023,-988.3457)">
    <path
       d="m 27.401575,1046.9291 a 8.503937,8.503937 0 0 0 -17.007874,0 8.503937,8.503937 0 0 0 17.007874,0 z"
       style="fill:none;stroke:#ff0000;stroke-width:1.88976;stroke-dasharray:none"
       id="path11" />
    <path
       d="m -85.228346,1046.9291 a 8.503937,8.503937 0 0 0 -17.007874,0 8.503937,8.503937 0 0 0 17.007874,0 z"
       style="fill:none;stroke:#ff0000;stroke-width:1.88976;stroke-dasharray:none"
       id="path12" />
    <path
       d="m -121.51181,1046.9291 a 8.503937,8.503937 0 0 0 -17.00787,0 8.503937,8.503937 0 0 0 17.00787,0 z"
       style="fill:none;stroke:#ff0000;stroke-width:1.88976;stroke-dasharray:none"
       id="path13" />
    <path
       d="m -230.3622,1046.9291 a 8.50394,8.50394 0 0 0 -17.00788,0 8.50394,8.50394 0 0 0 17.00788,0 z"
       style="fill:none;stroke:#ff0000;stroke-width:1.88976;stroke-dasharray:none"
       id="path14" />
    <path
       d="m -194.07874,1046.9291 a 8.503937,8.503937 0 0 0 -17.00787,0 8.503937,8.503937 0 0 0 17.00787,0 z"
       style="fill:none;stroke:#ff0000;stroke-width:1.88976;stroke-dasharray:none"
       id="path15" />
    <path
       d="m -157.79528,1046.9291 a 8.503937,8.503937 0 0 0 -17.00787,0 8.503937,8.503937 0 0 0 17.00787,0 z"
       style="fill:none;stroke:#ff0000;stroke-width:1.88976;stroke-dasharray:none"
       id="path16" />
    <path
       d="m 201.63779,1046.9291 a 4.15748,4.15748 0 0 0 -8.31496,0 4.15748,4.15748 0 0 0 8.31496,0 z"
       style="fill:none;stroke:#ff0000;stroke-width:1.88976;stroke-dasharray:none"
       id="path21" />
    <path
       d="m 296.12598,1046.9291 a 4.15748,4.15748 0 0 0 -8.31496,0 4.15748,4.15748 0 0 0 8.31496,0 z"
       style="fill:none;stroke:#ff0000;stroke-width:1.88976;stroke-dasharray:none"
       id="path22" />
    <g
       id="g37"
       style="stroke:#ff0000;stroke-width:1.88976;stroke-dasharray:none">
      <path
         id="path31"
         style="fill:none;stroke:#ff0000;stroke-width:1.88976;stroke-linecap:butt;stroke-linejoin:miter;stroke-dasharray:none;stroke-opacity:1"
         d="m 280.25198,1040.128 v 13.6031 c -2e-5,8.3507 -6.76862,15.1193 -15.11805,15.1191 l -55.93693,-2e-4 v -43.84 l 55.93693,-10e-4 c 8.34943,0 15.11803,6.7675 15.11805,15.119 z"
         sodipodi:nodetypes="ccccccc" />
    </g>
  </g>
</svg>
