999
"DXF R12 Output" (www.mydxf.blogspot.com)
 0 
SECTION
 2 
HEADER
 9 
$ACADVER
 1 
AC1009
 9 
$EXTMIN
 10 
 0 
 20 
 0 
 9 
$EXTMAX
 10 
 8.5 
 20 
 11 
 0 
ENDSEC
 0 
SECTION
 2 
ENTITIES
0
LINE
8
Layer 1
10
0.793749
20
297.793749
11
-0.793749
21
296.206251
0
LINE
8
Layer 1
10
0.000000
20
298.322915
11
0.000000
21
295.677085
0
LINE
8
Layer 1
10
2.116664
20
295.941668
11
1.058332
21
294.883336
0
LINE
8
Layer 1
10
1.587498
20
296.470834
11
0.529166
21
295.412502
0
LINE
8
Layer 1
10
1.058332
20
297.000000
11
0.000000
21
295.941668
0
LINE
8
0
10
-105.499886
20
35.500530
11
-105.499886
21
4.500398
0
LINE
8
0
10
-105.499886
20
4.500398
11
105.499886
21
4.500398
0
LINE
8
0
10
105.499886
20
4.500398
11
105.499886
21
35.500530
0
LINE
8
0
10
105.499886
20
35.500530
11
-105.499886
21
35.500530
0
LINE
8
0
10
-105.499886
20
35.500530
11
-105.499886
21
35.500530
0
LINE
8
0
10
7.249991
20
20.000349
11
7.172106
21
20.587413
0
LINE
8
0
10
7.172106
20
20.587413
11
6.948548
21
21.125348
0
LINE
8
0
10
6.948548
20
21.125348
11
6.594462
21
21.587922
0
LINE
8
0
10
6.594462
20
21.587922
11
6.124992
21
21.948904
0
LINE
8
0
10
6.124992
20
21.948904
11
5.577638
21
22.174985
0
LINE
8
0
10
5.577638
20
22.174985
11
4.999994
21
22.250346
0
LINE
8
0
10
4.999994
20
22.250346
11
4.422350
21
22.174985
0
LINE
8
0
10
4.422350
20
22.174985
11
3.874995
21
21.948904
0
LINE
8
0
10
3.874995
20
21.948904
11
3.405525
21
21.587922
0
LINE
8
0
10
3.405525
20
21.587922
11
3.051439
21
21.125348
0
LINE
8
0
10
3.051439
20
21.125348
11
2.827881
21
20.587413
0
LINE
8
0
10
2.827881
20
20.587413
11
2.749997
21
20.000349
0
LINE
8
0
10
2.749997
20
20.000349
11
2.827881
21
19.413285
0
LINE
8
0
10
2.827881
20
19.413285
11
3.051439
21
18.875350
0
LINE
8
0
10
3.051439
20
18.875350
11
3.405525
21
18.412776
0
LINE
8
0
10
3.405525
20
18.412776
11
3.874995
21
18.051794
0
LINE
8
0
10
3.874995
20
18.051794
11
4.422350
21
17.825712
0
LINE
8
0
10
4.422350
20
17.825712
11
4.999994
21
17.750352
0
LINE
8
0
10
4.999994
20
17.750352
11
5.577638
21
17.825712
0
LINE
8
0
10
5.577638
20
17.825712
11
6.124992
21
18.051794
0
LINE
8
0
10
6.124992
20
18.051794
11
6.594462
21
18.412776
0
LINE
8
0
10
6.594462
20
18.412776
11
6.948548
21
18.875350
0
LINE
8
0
10
6.948548
20
18.875350
11
7.172106
21
19.413285
0
LINE
8
0
10
7.172106
20
19.413285
11
7.249991
21
20.000349
0
LINE
8
0
10
7.249991
20
20.000349
11
7.249991
21
20.000349
0
LINE
8
0
10
-22.549971
20
20.000349
11
-22.726787
21
20.876149
0
LINE
8
0
10
-22.726787
20
20.876149
11
-23.208980
21
21.591337
0
LINE
8
0
10
-23.208980
20
21.591337
11
-23.924168
21
22.073530
0
LINE
8
0
10
-23.924168
20
22.073530
11
-24.799969
21
22.250346
0
LINE
8
0
10
-24.799969
20
22.250346
11
-25.675769
21
22.073530
0
LINE
8
0
10
-25.675769
20
22.073530
11
-26.390957
21
21.591337
0
LINE
8
0
10
-26.390957
20
21.591337
11
-26.873150
21
20.876149
0
LINE
8
0
10
-26.873150
20
20.876149
11
-27.049966
21
20.000349
0
LINE
8
0
10
-27.049966
20
20.000349
11
-26.873150
21
19.124549
0
LINE
8
0
10
-26.873150
20
19.124549
11
-26.390957
21
18.409361
0
LINE
8
0
10
-26.390957
20
18.409361
11
-25.675769
21
17.927168
0
LINE
8
0
10
-25.675769
20
17.927168
11
-24.799969
21
17.750352
0
LINE
8
0
10
-24.799969
20
17.750352
11
-23.924168
21
17.927168
0
LINE
8
0
10
-23.924168
20
17.927168
11
-23.208980
21
18.409361
0
LINE
8
0
10
-23.208980
20
18.409361
11
-22.726787
21
19.124549
0
LINE
8
0
10
-22.726787
20
19.124549
11
-22.549971
21
20.000349
0
LINE
8
0
10
-22.549971
20
20.000349
11
-22.549971
21
20.000349
0
LINE
8
0
10
-32.149959
20
20.000349
11
-32.227844
21
20.587413
0
LINE
8
0
10
-32.227844
20
20.587413
11
-32.451402
21
21.125348
0
LINE
8
0
10
-32.451402
20
21.125348
11
-32.805488
21
21.587922
0
LINE
8
0
10
-32.805488
20
21.587922
11
-33.274958
21
21.948904
0
LINE
8
0
10
-33.274958
20
21.948904
11
-33.822313
21
22.174985
0
LINE
8
0
10
-33.822313
20
22.174985
11
-34.399957
21
22.250346
0
LINE
8
0
10
-34.399957
20
22.250346
11
-34.977601
21
22.174985
0
LINE
8
0
10
-34.977601
20
22.174985
11
-35.524955
21
21.948904
0
LINE
8
0
10
-35.524955
20
21.948904
11
-35.994425
21
21.587922
0
LINE
8
0
10
-35.994425
20
21.587922
11
-36.348511
21
21.125348
0
LINE
8
0
10
-36.348511
20
21.125348
11
-36.572069
21
20.587413
0
LINE
8
0
10
-36.572069
20
20.587413
11
-36.649954
21
20.000349
0
LINE
8
0
10
-36.649954
20
20.000349
11
-36.572069
21
19.413285
0
LINE
8
0
10
-36.572069
20
19.413285
11
-36.348511
21
18.875350
0
LINE
8
0
10
-36.348511
20
18.875350
11
-35.994425
21
18.412776
0
LINE
8
0
10
-35.994425
20
18.412776
11
-35.524955
21
18.051794
0
LINE
8
0
10
-35.524955
20
18.051794
11
-34.977601
21
17.825712
0
LINE
8
0
10
-34.977601
20
17.825712
11
-34.399957
21
17.750352
0
LINE
8
0
10
-34.399957
20
17.750352
11
-33.822313
21
17.825712
0
LINE
8
0
10
-33.822313
20
17.825712
11
-33.274958
21
18.051794
0
LINE
8
0
10
-33.274958
20
18.051794
11
-32.805488
21
18.412776
0
LINE
8
0
10
-32.805488
20
18.412776
11
-32.451402
21
18.875350
0
LINE
8
0
10
-32.451402
20
18.875350
11
-32.227844
21
19.413285
0
LINE
8
0
10
-32.227844
20
19.413285
11
-32.149959
21
20.000349
0
LINE
8
0
10
-32.149959
20
20.000349
11
-32.149959
21
20.000349
0
LINE
8
0
10
-60.949923
20
20.000349
11
-61.027808
21
20.587413
0
LINE
8
0
10
-61.027808
20
20.587413
11
-61.251366
21
21.125348
0
LINE
8
0
10
-61.251366
20
21.125348
11
-61.605452
21
21.587922
0
LINE
8
0
10
-61.605452
20
21.587922
11
-62.074922
21
21.948904
0
LINE
8
0
10
-62.074922
20
21.948904
11
-62.622277
21
22.174985
0
LINE
8
0
10
-62.622277
20
22.174985
11
-63.199920
21
22.250346
0
LINE
8
0
10
-63.199920
20
22.250346
11
-63.777564
21
22.174985
0
LINE
8
0
10
-63.777564
20
22.174985
11
-64.324919
21
21.948904
0
LINE
8
0
10
-64.324919
20
21.948904
11
-64.794389
21
21.587922
0
LINE
8
0
10
-64.794389
20
21.587922
11
-65.148475
21
21.125348
0
LINE
8
0
10
-65.148475
20
21.125348
11
-65.372033
21
20.587413
0
LINE
8
0
10
-65.372033
20
20.587413
11
-65.449918
21
20.000349
0
LINE
8
0
10
-65.449918
20
20.000349
11
-65.273102
21
19.124549
0
LINE
8
0
10
-65.273102
20
19.124549
11
-64.790909
21
18.409361
0
LINE
8
0
10
-64.790909
20
18.409361
11
-64.075721
21
17.927168
0
LINE
8
0
10
-64.075721
20
17.927168
11
-63.199920
21
17.750352
0
LINE
8
0
10
-63.199920
20
17.750352
11
-62.324120
21
17.927168
0
LINE
8
0
10
-62.324120
20
17.927168
11
-61.608932
21
18.409361
0
LINE
8
0
10
-61.608932
20
18.409361
11
-61.126739
21
19.124549
0
LINE
8
0
10
-61.126739
20
19.124549
11
-60.949923
21
20.000349
0
LINE
8
0
10
-60.949923
20
20.000349
11
-60.949923
21
20.000349
0
LINE
8
0
10
-51.349935
20
20.000349
11
-51.427820
21
20.587413
0
LINE
8
0
10
-51.427820
20
20.587413
11
-51.651378
21
21.125348
0
LINE
8
0
10
-51.651378
20
21.125348
11
-52.005464
21
21.587922
0
LINE
8
0
10
-52.005464
20
21.587922
11
-52.474934
21
21.948904
0
LINE
8
0
10
-52.474934
20
21.948904
11
-53.022289
21
22.174985
0
LINE
8
0
10
-53.022289
20
22.174985
11
-53.599932
21
22.250346
0
LINE
8
0
10
-53.599932
20
22.250346
11
-54.177576
21
22.174985
0
LINE
8
0
10
-54.177576
20
22.174985
11
-54.724931
21
21.948904
0
LINE
8
0
10
-54.724931
20
21.948904
11
-55.194401
21
21.587922
0
LINE
8
0
10
-55.194401
20
21.587922
11
-55.548487
21
21.125348
0
LINE
8
0
10
-55.548487
20
21.125348
11
-55.772045
21
20.587413
0
LINE
8
0
10
-55.772045
20
20.587413
11
-55.849930
21
20.000349
0
LINE
8
0
10
-55.849930
20
20.000349
11
-55.772045
21
19.413285
0
LINE
8
0
10
-55.772045
20
19.413285
11
-55.548487
21
18.875350
0
LINE
8
0
10
-55.548487
20
18.875350
11
-55.194401
21
18.412776
0
LINE
8
0
10
-55.194401
20
18.412776
11
-54.724931
21
18.051794
0
LINE
8
0
10
-54.724931
20
18.051794
11
-54.177576
21
17.825712
0
LINE
8
0
10
-54.177576
20
17.825712
11
-53.599932
21
17.750352
0
LINE
8
0
10
-53.599932
20
17.750352
11
-53.022289
21
17.825712
0
LINE
8
0
10
-53.022289
20
17.825712
11
-52.474934
21
18.051794
0
LINE
8
0
10
-52.474934
20
18.051794
11
-52.005464
21
18.412776
0
LINE
8
0
10
-52.005464
20
18.412776
11
-51.651378
21
18.875350
0
LINE
8
0
10
-51.651378
20
18.875350
11
-51.427820
21
19.413285
0
LINE
8
0
10
-51.427820
20
19.413285
11
-51.349935
21
20.000349
0
LINE
8
0
10
-51.349935
20
20.000349
11
-51.349935
21
20.000349
0
LINE
8
0
10
-41.749948
20
20.000349
11
-41.827832
21
20.587413
0
LINE
8
0
10
-41.827832
20
20.587413
11
-42.051390
21
21.125348
0
LINE
8
0
10
-42.051390
20
21.125348
11
-42.405476
21
21.587922
0
LINE
8
0
10
-42.405476
20
21.587922
11
-42.874946
21
21.948904
0
LINE
8
0
10
-42.874946
20
21.948904
11
-43.422301
21
22.174985
0
LINE
8
0
10
-43.422301
20
22.174985
11
-43.999945
21
22.250346
0
LINE
8
0
10
-43.999945
20
22.250346
11
-44.577589
21
22.174985
0
LINE
8
0
10
-44.577589
20
22.174985
11
-45.124943
21
21.948904
0
LINE
8
0
10
-45.124943
20
21.948904
11
-45.594413
21
21.587922
0
LINE
8
0
10
-45.594413
20
21.587922
11
-45.948499
21
21.125348
0
LINE
8
0
10
-45.948499
20
21.125348
11
-46.172057
21
20.587413
0
LINE
8
0
10
-46.172057
20
20.587413
11
-46.249942
21
20.000349
0
LINE
8
0
10
-46.249942
20
20.000349
11
-46.172057
21
19.413285
0
LINE
8
0
10
-46.172057
20
19.413285
11
-45.948499
21
18.875350
0
LINE
8
0
10
-45.948499
20
18.875350
11
-45.594413
21
18.412776
0
LINE
8
0
10
-45.594413
20
18.412776
11
-45.124943
21
18.051794
0
LINE
8
0
10
-45.124943
20
18.051794
11
-44.577589
21
17.825712
0
LINE
8
0
10
-44.577589
20
17.825712
11
-43.999945
21
17.750352
0
LINE
8
0
10
-43.999945
20
17.750352
11
-43.422301
21
17.825712
0
LINE
8
0
10
-43.422301
20
17.825712
11
-42.874946
21
18.051794
0
LINE
8
0
10
-42.874946
20
18.051794
11
-42.405476
21
18.412776
0
LINE
8
0
10
-42.405476
20
18.412776
11
-42.051390
21
18.875350
0
LINE
8
0
10
-42.051390
20
18.875350
11
-41.827832
21
19.413285
0
LINE
8
0
10
-41.827832
20
19.413285
11
-41.749948
21
20.000349
0
LINE
8
0
10
-41.749948
20
20.000349
11
-41.749948
21
20.000349
0
LINE
8
0
10
53.349933
20
20.000349
11
53.202561
21
20.550348
0
LINE
8
0
10
53.202561
20
20.550348
11
52.799933
21
20.952976
0
LINE
8
0
10
52.799933
20
20.952976
11
52.249934
21
21.100347
0
LINE
8
0
10
52.249934
20
21.100347
11
51.699935
21
20.952976
0
LINE
8
0
10
51.699935
20
20.952976
11
51.297308
21
20.550348
0
LINE
8
0
10
51.297308
20
20.550348
11
51.149936
21
20.000349
0
LINE
8
0
10
51.149936
20
20.000349
11
51.297308
21
19.450350
0
LINE
8
0
10
51.297308
20
19.450350
11
51.699935
21
19.047722
0
LINE
8
0
10
51.699935
20
19.047722
11
52.249934
21
18.900350
0
LINE
8
0
10
52.249934
20
18.900350
11
52.799933
21
19.047722
0
LINE
8
0
10
52.799933
20
19.047722
11
53.202561
21
19.450350
0
LINE
8
0
10
53.202561
20
19.450350
11
53.349933
21
20.000349
0
LINE
8
0
10
53.349933
20
20.000349
11
53.349933
21
20.000349
0
LINE
8
0
10
78.349901
20
20.000349
11
78.202529
21
20.550348
0
LINE
8
0
10
78.202529
20
20.550348
11
77.799902
21
20.952976
0
LINE
8
0
10
77.799902
20
20.952976
11
77.249903
21
21.100347
0
LINE
8
0
10
77.249903
20
21.100347
11
76.699903
21
20.952976
0
LINE
8
0
10
76.699903
20
20.952976
11
76.297276
21
20.550348
0
LINE
8
0
10
76.297276
20
20.550348
11
76.149904
21
20.000349
0
LINE
8
0
10
76.149904
20
20.000349
11
76.297276
21
19.450350
0
LINE
8
0
10
76.297276
20
19.450350
11
76.699903
21
19.047722
0
LINE
8
0
10
76.699903
20
19.047722
11
77.249903
21
18.900350
0
LINE
8
0
10
77.249903
20
18.900350
11
77.799902
21
19.047722
0
LINE
8
0
10
77.799902
20
19.047722
11
78.202529
21
19.450350
0
LINE
8
0
10
78.202529
20
19.450350
11
78.349901
21
20.000349
0
LINE
8
0
10
78.349901
20
20.000349
11
78.349901
21
20.000349
0
LINE
8
Layer 1
10
74.149910
20
21.799813
11
74.149910
21
18.200664
0
LINE
8
Layer 1
10
74.149910
20
18.200664
11
74.068642
21
17.394421
0
LINE
8
Layer 1
10
74.068642
20
17.394421
11
73.835568
21
16.643504
0
LINE
8
Layer 1
10
73.835568
20
16.643504
11
72.978337
21
15.371971
0
LINE
8
Layer 1
10
72.978337
20
15.371971
11
71.706898
21
14.514721
0
LINE
8
Layer 1
10
71.706898
20
14.514721
11
70.956063
21
14.281656
0
LINE
8
Layer 1
10
70.956063
20
14.281656
11
70.149931
21
14.200408
0
LINE
8
Layer 1
10
70.149931
20
14.200408
11
55.349970
21
14.200460
0
LINE
8
Layer 1
10
55.349970
20
14.200460
11
55.349970
21
25.799779
0
LINE
8
Layer 1
10
55.349970
20
25.799779
11
70.149931
21
25.800044
0
LINE
8
Layer 1
10
70.149931
20
25.800044
11
70.956063
21
25.718790
0
LINE
8
Layer 1
10
70.956063
20
25.718790
11
71.706898
21
25.485742
0
LINE
8
Layer 1
10
71.706898
20
25.485742
11
72.978337
21
24.628553
0
LINE
8
Layer 1
10
72.978337
20
24.628553
11
73.835568
21
23.357052
0
LINE
8
Layer 1
10
73.835568
20
23.357052
11
74.068642
21
22.606114
0
LINE
8
Layer 1
10
74.068642
20
22.606114
11
74.149910
21
21.799813
0
LINE
8
Layer 1
10
74.149910
20
21.799813
11
74.149910
21
21.799813
 0 
ENDSEC
 0 
EOF