999
"DXF R12 Output" (www.mydxf.blogspot.com)
 0 
SECTION
 2 
HEADER
 9 
$ACADVER
 1 
AC1009
 9 
$EXTMIN
 10 
 0 
 20 
 0 
 9 
$EXTMAX
 10 
 8.5 
 20 
 11 
 0 
ENDSEC
 0 
SECTION
 2 
ENTITIES
0
LINE
8
Layer 1
10
0.793749
20
31.793749
11
-0.793749
21
30.206251
0
LINE
8
Layer 1
10
0.000000
20
32.322915
11
0.000000
21
29.677085
0
LINE
8
Layer 1
10
2.116664
20
29.941668
11
1.058332
21
28.883336
0
LINE
8
Layer 1
10
1.587498
20
30.470834
11
0.529166
21
29.412502
0
LINE
8
Layer 1
10
1.058332
20
31.000000
11
0.000000
21
29.941668
0
LINE
8
0
10
199.999875
20
31.000329
11
0.000125
21
31.000329
0
LINE
8
0
10
0.000125
20
31.000329
11
0.000125
21
0.000371
0
LINE
8
0
10
0.000125
20
0.000371
11
199.999875
21
0.000371
0
LINE
8
0
10
199.999875
20
0.000371
11
199.999875
21
31.000329
0
LINE
8
0
10
107.249991
20
15.500358
11
107.172106
21
16.087422
0
LINE
8
0
10
107.172106
20
16.087422
11
106.948548
21
16.625357
0
LINE
8
0
10
106.948548
20
16.625357
11
106.594462
21
17.087931
0
LINE
8
0
10
106.594462
20
17.087931
11
106.124992
21
17.448913
0
LINE
8
0
10
106.124992
20
17.448913
11
105.577638
21
17.674994
0
LINE
8
0
10
105.577638
20
17.674994
11
104.999994
21
17.750355
0
LINE
8
0
10
104.999994
20
17.750355
11
104.422350
21
17.674994
0
LINE
8
0
10
104.422350
20
17.674994
11
103.874995
21
17.448913
0
LINE
8
0
10
103.874995
20
17.448913
11
103.405525
21
17.087931
0
LINE
8
0
10
103.405525
20
17.087931
11
103.051439
21
16.625357
0
LINE
8
0
10
103.051439
20
16.625357
11
102.827881
21
16.087422
0
LINE
8
0
10
102.827881
20
16.087422
11
102.749997
21
15.500358
0
LINE
8
0
10
102.749997
20
15.500358
11
102.827881
21
14.913294
0
LINE
8
0
10
102.827881
20
14.913294
11
103.051439
21
14.375359
0
LINE
8
0
10
103.051439
20
14.375359
11
103.405525
21
13.912785
0
LINE
8
0
10
103.405525
20
13.912785
11
103.874995
21
13.551803
0
LINE
8
0
10
103.874995
20
13.551803
11
104.422350
21
13.325721
0
LINE
8
0
10
104.422350
20
13.325721
11
104.999994
21
13.250361
0
LINE
8
0
10
104.999994
20
13.250361
11
105.577638
21
13.325721
0
LINE
8
0
10
105.577638
20
13.325721
11
106.124992
21
13.551803
0
LINE
8
0
10
106.124992
20
13.551803
11
106.594462
21
13.912785
0
LINE
8
0
10
106.594462
20
13.912785
11
106.948548
21
14.375359
0
LINE
8
0
10
106.948548
20
14.375359
11
107.172106
21
14.913294
0
LINE
8
0
10
107.172106
20
14.913294
11
107.249991
21
15.500358
0
LINE
8
0
10
107.249991
20
15.500358
11
107.249991
21
15.500358
0
LINE
8
0
10
77.450029
20
15.500358
11
77.273213
21
16.376158
0
LINE
8
0
10
77.273213
20
16.376158
11
76.791020
21
17.091346
0
LINE
8
0
10
76.791020
20
17.091346
11
76.075832
21
17.573539
0
LINE
8
0
10
76.075832
20
17.573539
11
75.200031
21
17.750355
0
LINE
8
0
10
75.200031
20
17.750355
11
74.324231
21
17.573539
0
LINE
8
0
10
74.324231
20
17.573539
11
73.609043
21
17.091346
0
LINE
8
0
10
73.609043
20
17.091346
11
73.126850
21
16.376158
0
LINE
8
0
10
73.126850
20
16.376158
11
72.950034
21
15.500358
0
LINE
8
0
10
72.950034
20
15.500358
11
73.126850
21
14.624558
0
LINE
8
0
10
73.126850
20
14.624558
11
73.609043
21
13.909370
0
LINE
8
0
10
73.609043
20
13.909370
11
74.324231
21
13.427177
0
LINE
8
0
10
74.324231
20
13.427177
11
75.200031
21
13.250361
0
LINE
8
0
10
75.200031
20
13.250361
11
76.075832
21
13.427177
0
LINE
8
0
10
76.075832
20
13.427177
11
76.791020
21
13.909370
0
LINE
8
0
10
76.791020
20
13.909370
11
77.273213
21
14.624558
0
LINE
8
0
10
77.273213
20
14.624558
11
77.450029
21
15.500358
0
LINE
8
0
10
77.450029
20
15.500358
11
77.450029
21
15.500358
0
LINE
8
0
10
67.850041
20
15.500358
11
67.672781
21
16.375663
0
LINE
8
0
10
67.672781
20
16.375663
11
67.190487
21
17.090349
0
LINE
8
0
10
67.190487
20
17.090349
11
66.475470
21
17.572152
0
LINE
8
0
10
66.475470
20
17.572152
11
65.600044
21
17.748812
0
LINE
8
0
10
65.600044
20
17.748812
11
64.724618
21
17.572152
0
LINE
8
0
10
64.724618
20
17.572152
11
64.009602
21
17.090349
0
LINE
8
0
10
64.009602
20
17.090349
11
63.527307
21
16.375663
0
LINE
8
0
10
63.527307
20
16.375663
11
63.350048
21
15.500358
0
LINE
8
0
10
63.350048
20
15.500358
11
63.527307
21
14.625053
0
LINE
8
0
10
63.527307
20
14.625053
11
64.009602
21
13.910367
0
LINE
8
0
10
64.009602
20
13.910367
11
64.724618
21
13.428563
0
LINE
8
0
10
64.724618
20
13.428563
11
65.600044
21
13.251904
0
LINE
8
0
10
65.600044
20
13.251904
11
66.475470
21
13.428563
0
LINE
8
0
10
66.475470
20
13.428563
11
67.190487
21
13.910367
0
LINE
8
0
10
67.190487
20
13.910367
11
67.672781
21
14.625053
0
LINE
8
0
10
67.672781
20
14.625053
11
67.850041
21
15.500358
0
LINE
8
0
10
67.850041
20
15.500358
11
67.850041
21
15.500358
0
LINE
8
0
10
39.050078
20
15.500358
11
38.873262
21
16.376159
0
LINE
8
0
10
38.873262
20
16.376159
11
38.391069
21
17.091347
0
LINE
8
0
10
38.391069
20
17.091347
11
37.675881
21
17.573540
0
LINE
8
0
10
37.675881
20
17.573540
11
36.800080
21
17.750356
0
LINE
8
0
10
36.800080
20
17.750356
11
35.924279
21
17.573540
0
LINE
8
0
10
35.924279
20
17.573540
11
35.209091
21
17.091347
0
LINE
8
0
10
35.209091
20
17.091347
11
34.726898
21
16.376159
0
LINE
8
0
10
34.726898
20
16.376159
11
34.550082
21
15.500358
0
LINE
8
0
10
34.550082
20
15.500358
11
34.726898
21
14.624557
0
LINE
8
0
10
34.726898
20
14.624557
11
35.209091
21
13.909369
0
LINE
8
0
10
35.209091
20
13.909369
11
35.924279
21
13.427176
0
LINE
8
0
10
35.924279
20
13.427176
11
36.800080
21
13.250360
0
LINE
8
0
10
36.800080
20
13.250360
11
37.675881
21
13.427176
0
LINE
8
0
10
37.675881
20
13.427176
11
38.391069
21
13.909369
0
LINE
8
0
10
38.391069
20
13.909369
11
38.873262
21
14.624557
0
LINE
8
0
10
38.873262
20
14.624557
11
39.050078
21
15.500358
0
LINE
8
0
10
39.050078
20
15.500358
11
39.050078
21
15.500358
0
LINE
8
0
10
48.650065
20
15.500358
11
48.472805
21
16.375663
0
LINE
8
0
10
48.472805
20
16.375663
11
47.990511
21
17.090349
0
LINE
8
0
10
47.990511
20
17.090349
11
47.275494
21
17.572152
0
LINE
8
0
10
47.275494
20
17.572152
11
46.400068
21
17.748812
0
LINE
8
0
10
46.400068
20
17.748812
11
45.524642
21
17.572152
0
LINE
8
0
10
45.524642
20
17.572152
11
44.809626
21
17.090349
0
LINE
8
0
10
44.809626
20
17.090349
11
44.327331
21
16.375663
0
LINE
8
0
10
44.327331
20
16.375663
11
44.150071
21
15.500358
0
LINE
8
0
10
44.150071
20
15.500358
11
44.327331
21
14.625053
0
LINE
8
0
10
44.327331
20
14.625053
11
44.809626
21
13.910367
0
LINE
8
0
10
44.809626
20
13.910367
11
45.524642
21
13.428563
0
LINE
8
0
10
45.524642
20
13.428563
11
46.400068
21
13.251904
0
LINE
8
0
10
46.400068
20
13.251904
11
47.275494
21
13.428563
0
LINE
8
0
10
47.275494
20
13.428563
11
47.990511
21
13.910367
0
LINE
8
0
10
47.990511
20
13.910367
11
48.472805
21
14.625053
0
LINE
8
0
10
48.472805
20
14.625053
11
48.650065
21
15.500358
0
LINE
8
0
10
48.650065
20
15.500358
11
48.650065
21
15.500358
0
LINE
8
0
10
58.250051
20
15.500358
11
58.072791
21
16.375663
0
LINE
8
0
10
58.072791
20
16.375663
11
57.590497
21
17.090349
0
LINE
8
0
10
57.590497
20
17.090349
11
56.875481
21
17.572152
0
LINE
8
0
10
56.875481
20
17.572152
11
56.000055
21
17.748812
0
LINE
8
0
10
56.000055
20
17.748812
11
55.124628
21
17.572152
0
LINE
8
0
10
55.124628
20
17.572152
11
54.409612
21
17.090349
0
LINE
8
0
10
54.409612
20
17.090349
11
53.927318
21
16.375663
0
LINE
8
0
10
53.927318
20
16.375663
11
53.750058
21
15.500358
0
LINE
8
0
10
53.750058
20
15.500358
11
53.927318
21
14.625053
0
LINE
8
0
10
53.927318
20
14.625053
11
54.409612
21
13.910367
0
LINE
8
0
10
54.409612
20
13.910367
11
55.124628
21
13.428563
0
LINE
8
0
10
55.124628
20
13.428563
11
56.000055
21
13.251904
0
LINE
8
0
10
56.000055
20
13.251904
11
56.875481
21
13.428563
0
LINE
8
0
10
56.875481
20
13.428563
11
57.590497
21
13.910367
0
LINE
8
0
10
57.590497
20
13.910367
11
58.072791
21
14.625053
0
LINE
8
0
10
58.072791
20
14.625053
11
58.250051
21
15.500358
0
LINE
8
0
10
58.250051
20
15.500358
11
58.250051
21
15.500358
0
LINE
8
0
10
153.349931
20
15.500358
11
153.202560
21
16.050357
0
LINE
8
0
10
153.202560
20
16.050357
11
152.799932
21
16.452985
0
LINE
8
0
10
152.799932
20
16.452985
11
152.249933
21
16.600356
0
LINE
8
0
10
152.249933
20
16.600356
11
151.699934
21
16.452985
0
LINE
8
0
10
151.699934
20
16.452985
11
151.297306
21
16.050357
0
LINE
8
0
10
151.297306
20
16.050357
11
151.149934
21
15.500358
0
LINE
8
0
10
151.149934
20
15.500358
11
151.297306
21
14.950359
0
LINE
8
0
10
151.297306
20
14.950359
11
151.699934
21
14.547731
0
LINE
8
0
10
151.699934
20
14.547731
11
152.249933
21
14.400359
0
LINE
8
0
10
152.249933
20
14.400359
11
152.799932
21
14.547731
0
LINE
8
0
10
152.799932
20
14.547731
11
153.202560
21
14.950359
0
LINE
8
0
10
153.202560
20
14.950359
11
153.349931
21
15.500358
0
LINE
8
0
10
153.349931
20
15.500358
11
153.349931
21
15.500358
0
LINE
8
0
10
178.349900
20
15.500358
11
178.202528
21
16.050357
0
LINE
8
0
10
178.202528
20
16.050357
11
177.799901
21
16.452985
0
LINE
8
0
10
177.799901
20
16.452985
11
177.249902
21
16.600356
0
LINE
8
0
10
177.249902
20
16.600356
11
176.699902
21
16.452985
0
LINE
8
0
10
176.699902
20
16.452985
11
176.297275
21
16.050357
0
LINE
8
0
10
176.297275
20
16.050357
11
176.149903
21
15.500358
0
LINE
8
0
10
176.149903
20
15.500358
11
176.297275
21
14.950359
0
LINE
8
0
10
176.297275
20
14.950359
11
176.699902
21
14.547731
0
LINE
8
0
10
176.699902
20
14.547731
11
177.249902
21
14.400359
0
LINE
8
0
10
177.249902
20
14.400359
11
177.799901
21
14.547731
0
LINE
8
0
10
177.799901
20
14.547731
11
178.202528
21
14.950359
0
LINE
8
0
10
178.202528
20
14.950359
11
178.349900
21
15.500358
0
LINE
8
0
10
178.349900
20
15.500358
11
178.349900
21
15.500358
0
LINE
8
0
10
174.349905
20
17.500341
11
174.268639
21
18.306479
0
LINE
8
0
10
174.268639
20
18.306479
11
174.035565
21
19.057319
0
LINE
8
0
10
174.035565
20
19.057319
11
173.178333
21
20.328763
0
LINE
8
0
10
173.178333
20
20.328763
11
171.906888
21
21.185994
0
LINE
8
0
10
171.906888
20
21.185994
11
171.156049
21
21.419067
0
LINE
8
0
10
171.156049
20
21.419067
11
170.349910
21
21.500333
0
LINE
8
0
10
170.349910
20
9.500356
11
171.156049
21
9.581622
0
LINE
8
0
10
171.156049
20
9.581622
11
171.906888
21
9.814695
0
LINE
8
0
10
171.906888
20
9.814695
11
173.178333
21
10.671927
0
LINE
8
0
10
173.178333
20
10.671927
11
174.035565
21
11.943371
0
LINE
8
0
10
174.035565
20
11.943371
11
174.268639
21
12.694211
0
LINE
8
0
10
174.268639
20
12.694211
11
174.349905
21
13.500349
0
LINE
8
0
10
174.349940
20
13.499872
11
174.349940
21
17.500367
0
LINE
8
0
10
170.349974
20
21.500862
11
155.149945
21
21.500862
0
LINE
8
0
10
170.349974
20
9.499377
11
155.149945
21
9.499377
0
LINE
8
0
10
155.149945
20
21.500862
11
155.149945
21
9.499377
0
LINE
8
0
10
16.097365
20
56.372301
11
14.986117
21
56.372301
0
LINE
8
0
10
14.986117
20
56.372301
11
10.943288
21
62.648210
0
LINE
8
0
10
10.943288
20
62.648210
11
10.900955
21
62.648210
0
LINE
8
0
10
10.900955
20
62.648210
11
10.953872
21
61.727461
0
LINE
8
0
10
10.953872
20
61.727461
11
10.985622
21
60.595046
0
LINE
8
0
10
10.985622
20
60.595046
11
10.985622
21
56.372301
0
LINE
8
0
10
10.985622
20
56.372301
11
10.107206
21
56.372301
0
LINE
8
0
10
10.107206
20
56.372301
11
10.107206
21
63.928792
0
LINE
8
0
10
10.107206
20
63.928792
11
11.207871
21
63.928792
0
LINE
8
0
10
11.207871
20
63.928792
11
15.240116
21
57.674049
0
LINE
8
0
10
15.240116
20
57.674049
11
15.282450
21
57.674049
0
LINE
8
0
10
15.282450
20
57.674049
11
15.250700
21
58.182049
0
LINE
8
0
10
15.250700
20
58.182049
11
15.218950
21
58.912298
0
LINE
8
0
10
15.218950
20
58.912298
11
15.208366
21
59.663714
0
LINE
8
0
10
15.208366
20
59.663714
11
15.208366
21
63.928792
0
LINE
8
0
10
15.208366
20
63.928792
11
16.097365
21
63.928792
0
LINE
8
0
10
16.097365
20
63.928792
11
16.097365
21
56.372301
0
LINE
8
0
10
22.955359
20
59.219214
11
22.775443
21
57.970382
0
LINE
8
0
10
22.775443
20
57.970382
11
22.235693
21
57.039050
0
LINE
8
0
10
22.235693
20
57.039050
11
21.399611
21
56.459613
0
LINE
8
0
10
21.399611
20
56.459613
11
20.309529
21
56.266468
0
LINE
8
0
10
20.309529
20
56.266468
11
19.597801
21
56.351134
0
LINE
8
0
10
19.597801
20
56.351134
11
18.965448
21
56.605134
0
LINE
8
0
10
18.965448
20
56.605134
11
18.444219
21
57.031113
0
LINE
8
0
10
18.444219
20
57.031113
11
18.044699
21
57.610549
0
LINE
8
0
10
18.044699
20
57.610549
11
17.790699
21
58.346090
0
LINE
8
0
10
17.790699
20
58.346090
11
17.706032
21
59.219214
0
LINE
8
0
10
17.706032
20
59.219214
11
17.880657
21
60.465400
0
LINE
8
0
10
17.880657
20
60.465400
11
18.404532
21
61.388795
0
LINE
8
0
10
18.404532
20
61.388795
11
19.243260
21
61.960294
0
LINE
8
0
10
19.243260
20
61.960294
11
20.341279
21
62.150794
0
LINE
8
0
10
20.341279
20
62.150794
11
21.060945
21
62.063481
0
LINE
8
0
10
21.060945
20
62.063481
11
21.695944
21
61.801544
0
LINE
8
0
10
21.695944
20
61.801544
11
22.222464
21
61.383503
0
LINE
8
0
10
22.222464
20
61.383503
11
22.616693
21
60.806712
0
LINE
8
0
10
22.616693
20
60.806712
11
22.870693
21
60.087046
0
LINE
8
0
10
22.870693
20
60.087046
11
22.955359
21
59.219214
0
LINE
8
0
10
22.955359
20
59.219214
11
22.955359
21
59.219214
0
LINE
8
0
10
18.669115
20
59.219214
11
18.767010
21
58.316986
0
LINE
8
0
10
18.767010
20
58.316986
11
19.060697
21
57.621133
0
LINE
8
0
10
19.060697
20
57.621133
11
19.579280
21
57.184571
0
LINE
8
0
10
19.579280
20
57.184571
11
20.330696
21
57.039050
0
LINE
8
0
10
20.330696
20
57.039050
11
21.074174
21
57.184571
0
LINE
8
0
10
21.074174
20
57.184571
11
21.590111
21
57.621133
0
LINE
8
0
10
21.590111
20
57.621133
11
21.891736
21
58.316986
0
LINE
8
0
10
21.891736
20
58.316986
11
21.992277
21
59.219214
0
LINE
8
0
10
21.992277
20
59.219214
11
21.891736
21
60.116150
0
LINE
8
0
10
21.891736
20
60.116150
11
21.590111
21
60.796129
0
LINE
8
0
10
21.590111
20
60.796129
11
21.071528
21
61.224753
0
LINE
8
0
10
21.071528
20
61.224753
11
20.320113
21
61.367628
0
LINE
8
0
10
20.320113
20
61.367628
11
19.571343
21
61.224753
0
LINE
8
0
10
19.571343
20
61.224753
11
19.060697
21
60.796129
0
LINE
8
0
10
19.060697
20
60.796129
11
18.767010
21
60.116150
0
LINE
8
0
10
18.767010
20
60.116150
11
18.669115
21
59.219214
0
LINE
8
0
10
18.669115
20
59.219214
11
18.669115
21
59.219214
0
LINE
8
0
10
26.320850
20
57.028467
11
26.754766
21
57.060217
0
LINE
8
0
10
26.754766
20
57.060217
11
27.114599
21
57.144883
0
LINE
8
0
10
27.114599
20
57.144883
11
27.114599
21
56.435801
0
LINE
8
0
10
27.114599
20
56.435801
11
26.691266
21
56.319384
0
LINE
8
0
10
26.691266
20
56.319384
11
26.162100
21
56.266468
0
LINE
8
0
10
26.162100
20
56.266468
11
25.336601
21
56.414634
0
LINE
8
0
10
25.336601
20
56.414634
11
24.733352
21
56.954384
0
LINE
8
0
10
24.733352
20
56.954384
11
24.500519
21
58.023299
0
LINE
8
0
10
24.500519
20
58.023299
11
24.500519
21
61.325295
0
LINE
8
0
10
24.500519
20
61.325295
11
23.696186
21
61.325295
0
LINE
8
0
10
23.696186
20
61.325295
11
23.696186
21
61.769794
0
LINE
8
0
10
23.696186
20
61.769794
11
24.511102
21
62.140210
0
LINE
8
0
10
24.511102
20
62.140210
11
24.881518
21
63.346709
0
LINE
8
0
10
24.881518
20
63.346709
11
25.431851
21
63.346709
0
LINE
8
0
10
25.431851
20
63.346709
11
25.431851
21
62.044961
0
LINE
8
0
10
25.431851
20
62.044961
11
27.072265
21
62.044961
0
LINE
8
0
10
27.072265
20
62.044961
11
27.072265
21
61.325295
0
LINE
8
0
10
27.072265
20
61.325295
11
25.431851
21
61.325295
0
LINE
8
0
10
25.431851
20
61.325295
11
25.431851
21
58.044466
0
LINE
8
0
10
25.431851
20
58.044466
11
25.492705
21
57.592029
0
LINE
8
0
10
25.492705
20
57.592029
11
25.675267
21
57.271883
0
LINE
8
0
10
25.675267
20
57.271883
11
26.320850
21
57.028467
0
LINE
8
0
10
26.320850
20
57.028467
11
26.320850
21
57.028467
0
LINE
8
0
10
30.437761
20
62.150794
11
31.109802
21
62.071419
0
LINE
8
0
10
31.109802
20
62.071419
11
31.686593
21
61.833294
0
LINE
8
0
10
31.686593
20
61.833294
11
32.152259
21
61.449649
0
LINE
8
0
10
32.152259
20
61.449649
11
32.490925
21
60.933712
0
LINE
8
0
10
32.490925
20
60.933712
11
32.705237
21
60.311942
0
LINE
8
0
10
32.705237
20
60.311942
11
32.776675
21
59.589630
0
LINE
8
0
10
32.776675
20
59.589630
11
32.776675
21
59.028714
0
LINE
8
0
10
32.776675
20
59.028714
11
28.892596
21
59.028714
0
LINE
8
0
10
28.892596
20
59.028714
11
29.024888
21
58.179403
0
LINE
8
0
10
29.024888
20
58.179403
11
29.379429
21
57.557633
0
LINE
8
0
10
29.379429
20
57.557633
11
29.948283
21
57.184571
0
LINE
8
0
10
29.948283
20
57.184571
11
30.702344
21
57.060217
0
LINE
8
0
10
30.702344
20
57.060217
11
31.654843
21
57.155467
0
LINE
8
0
10
31.654843
20
57.155467
11
32.522675
21
57.451800
0
LINE
8
0
10
32.522675
20
57.451800
11
32.522675
21
56.636884
0
LINE
8
0
10
32.522675
20
56.636884
11
31.665426
21
56.361718
0
LINE
8
0
10
31.665426
20
56.361718
11
30.660011
21
56.266468
0
LINE
8
0
10
30.660011
20
56.266468
11
29.895366
21
56.348489
0
LINE
8
0
10
29.895366
20
56.348489
11
29.231263
21
56.594551
0
LINE
8
0
10
29.231263
20
56.594551
11
28.683576
21
57.002009
0
LINE
8
0
10
28.683576
20
57.002009
11
28.268181
21
57.568216
0
LINE
8
0
10
28.268181
20
57.568216
11
28.014181
21
58.290528
0
LINE
8
0
10
28.014181
20
58.290528
11
27.929514
21
59.166298
0
LINE
8
0
10
27.929514
20
59.166298
11
28.006243
21
60.031484
0
LINE
8
0
10
28.006243
20
60.031484
11
28.236431
21
60.764379
0
LINE
8
0
10
28.236431
20
60.764379
11
28.614784
21
61.354399
0
LINE
8
0
10
28.614784
20
61.354399
11
29.114846
21
61.790961
0
LINE
8
0
10
29.114846
20
61.790961
11
29.731325
21
62.060836
0
LINE
8
0
10
29.731325
20
62.060836
11
30.437761
21
62.150794
0
LINE
8
0
10
30.437761
20
62.150794
11
30.437761
21
62.150794
0
LINE
8
0
10
30.427178
20
61.388795
11
29.829220
21
61.280316
0
LINE
8
0
10
29.829220
20
61.280316
11
29.368846
21
60.954879
0
LINE
8
0
10
29.368846
20
60.954879
11
29.064575
21
60.446879
0
LINE
8
0
10
29.064575
20
60.446879
11
28.913763
21
59.769547
0
LINE
8
0
10
28.913763
20
59.769547
11
31.803009
21
59.769547
0
LINE
8
0
10
31.803009
20
59.769547
11
31.713051
21
60.420421
0
LINE
8
0
10
31.713051
20
60.420421
11
31.464343
21
60.933712
0
LINE
8
0
10
31.464343
20
60.933712
11
31.041010
21
61.275024
0
LINE
8
0
10
31.041010
20
61.275024
11
30.427178
21
61.388795
0
LINE
8
0
10
30.427178
20
61.388795
11
30.427178
21
61.388795
0
LINE
8
0
10
34.078415
20
61.473461
11
34.268915
21
62.034377
0
LINE
8
0
10
34.268915
20
62.034377
11
34.723998
21
62.193127
0
LINE
8
0
10
34.723998
20
62.193127
11
35.189664
21
62.034377
0
LINE
8
0
10
35.189664
20
62.034377
11
35.390747
21
61.473461
0
LINE
8
0
10
35.390747
20
61.473461
11
35.189664
21
60.923129
0
LINE
8
0
10
35.189664
20
60.923129
11
34.723998
21
60.753796
0
LINE
8
0
10
34.723998
20
60.753796
11
34.268915
21
60.923129
0
LINE
8
0
10
34.268915
20
60.923129
11
34.078415
21
61.473461
0
LINE
8
0
10
34.078415
20
61.473461
11
34.078415
21
61.473461
0
LINE
8
0
10
34.078415
20
56.943800
11
34.268915
21
57.494133
0
LINE
8
0
10
34.268915
20
57.494133
11
34.723998
21
57.652883
0
LINE
8
0
10
34.723998
20
57.652883
11
35.189664
21
57.494133
0
LINE
8
0
10
35.189664
20
57.494133
11
35.390747
21
56.943800
0
LINE
8
0
10
35.390747
20
56.943800
11
35.189664
21
56.393468
0
LINE
8
0
10
35.189664
20
56.393468
11
34.723998
21
56.224135
0
LINE
8
0
10
34.723998
20
56.224135
11
34.268915
21
56.393468
0
LINE
8
0
10
34.268915
20
56.393468
11
34.078415
21
56.943800
0
LINE
8
0
10
34.078415
20
56.943800
11
34.078415
21
56.943800
0
LINE
8
0
10
41.698403
20
57.028467
11
42.132319
21
57.060217
0
LINE
8
0
10
42.132319
20
57.060217
11
42.492152
21
57.144883
0
LINE
8
0
10
42.492152
20
57.144883
11
42.492152
21
56.435801
0
LINE
8
0
10
42.492152
20
56.435801
11
42.068819
21
56.319384
0
LINE
8
0
10
42.068819
20
56.319384
11
41.539653
21
56.266468
0
LINE
8
0
10
41.539653
20
56.266468
11
40.714154
21
56.414634
0
LINE
8
0
10
40.714154
20
56.414634
11
40.110905
21
56.954384
0
LINE
8
0
10
40.110905
20
56.954384
11
39.878072
21
58.023299
0
LINE
8
0
10
39.878072
20
58.023299
11
39.878072
21
61.325295
0
LINE
8
0
10
39.878072
20
61.325295
11
39.073740
21
61.325295
0
LINE
8
0
10
39.073740
20
61.325295
11
39.073740
21
61.769794
0
LINE
8
0
10
39.073740
20
61.769794
11
39.888655
21
62.140210
0
LINE
8
0
10
39.888655
20
62.140210
11
40.259072
21
63.346709
0
LINE
8
0
10
40.259072
20
63.346709
11
40.809404
21
63.346709
0
LINE
8
0
10
40.809404
20
63.346709
11
40.809404
21
62.044961
0
LINE
8
0
10
40.809404
20
62.044961
11
42.449819
21
62.044961
0
LINE
8
0
10
42.449819
20
62.044961
11
42.449819
21
61.325295
0
LINE
8
0
10
42.449819
20
61.325295
11
40.809404
21
61.325295
0
LINE
8
0
10
40.809404
20
61.325295
11
40.809404
21
58.044466
0
LINE
8
0
10
40.809404
20
58.044466
11
40.870258
21
57.592029
0
LINE
8
0
10
40.870258
20
57.592029
11
41.052821
21
57.271883
0
LINE
8
0
10
41.052821
20
57.271883
11
41.698403
21
57.028467
0
LINE
8
0
10
41.698403
20
57.028467
11
41.698403
21
57.028467
0
LINE
8
0
10
44.555902
20
64.415624
11
44.555902
21
62.055544
0
LINE
8
0
10
44.555902
20
62.055544
11
44.502986
21
61.261795
0
LINE
8
0
10
44.502986
20
61.261795
11
44.566485
21
61.261795
0
LINE
8
0
10
44.566485
20
61.261795
11
45.307318
21
61.917961
0
LINE
8
0
10
45.307318
20
61.917961
11
46.333900
21
62.140210
0
LINE
8
0
10
46.333900
20
62.140210
11
47.233482
21
62.015856
0
LINE
8
0
10
47.233482
20
62.015856
11
47.879065
21
61.642794
0
LINE
8
0
10
47.879065
20
61.642794
11
48.275939
21
61.005149
0
LINE
8
0
10
48.275939
20
61.005149
11
48.408231
21
60.065880
0
LINE
8
0
10
48.408231
20
60.065880
11
48.408231
21
56.372301
0
LINE
8
0
10
48.408231
20
56.372301
11
47.487482
21
56.372301
0
LINE
8
0
10
47.487482
20
56.372301
11
47.487482
21
60.002380
0
LINE
8
0
10
47.487482
20
60.002380
11
47.408107
21
60.599676
0
LINE
8
0
10
47.408107
20
60.599676
11
47.169982
21
61.026316
0
LINE
8
0
10
47.169982
20
61.026316
11
46.773108
21
61.282300
0
LINE
8
0
10
46.773108
20
61.282300
11
46.217483
21
61.367628
0
LINE
8
0
10
46.217483
20
61.367628
11
45.413151
21
61.232691
0
LINE
8
0
10
45.413151
20
61.232691
11
44.905152
21
60.827879
0
LINE
8
0
10
44.905152
20
60.827879
11
44.643214
21
60.182296
0
LINE
8
0
10
44.643214
20
60.182296
11
44.555902
21
59.303881
0
LINE
8
0
10
44.555902
20
59.303881
11
44.555902
21
56.372301
0
LINE
8
0
10
44.555902
20
56.372301
11
43.624570
21
56.372301
0
LINE
8
0
10
43.624570
20
56.372301
11
43.624570
21
64.415624
0
LINE
8
0
10
43.624570
20
64.415624
11
44.555902
21
64.415624
0
LINE
8
0
10
50.641311
20
64.172208
11
51.011727
21
64.024041
0
LINE
8
0
10
51.011727
20
64.024041
11
51.181060
21
63.579542
0
LINE
8
0
10
51.181060
20
63.579542
11
51.011727
21
63.124459
0
LINE
8
0
10
51.011727
20
63.124459
11
50.641311
21
62.986876
0
LINE
8
0
10
50.641311
20
62.986876
11
50.249728
21
63.124459
0
LINE
8
0
10
50.249728
20
63.124459
11
50.090978
21
63.579542
0
LINE
8
0
10
50.090978
20
63.579542
11
50.249728
21
64.024041
0
LINE
8
0
10
50.249728
20
64.024041
11
50.641311
21
64.172208
0
LINE
8
0
10
50.641311
20
64.172208
11
50.641311
21
64.172208
0
LINE
8
0
10
51.096394
20
62.044961
11
51.096394
21
56.372301
0
LINE
8
0
10
51.096394
20
56.372301
11
50.165062
21
56.372301
0
LINE
8
0
10
50.165062
20
56.372301
11
50.165062
21
62.044961
0
LINE
8
0
10
50.165062
20
62.044961
11
51.096394
21
62.044961
0
LINE
8
0
10
56.589129
20
57.938632
11
56.435671
21
57.213675
0
LINE
8
0
10
56.435671
20
57.213675
11
55.975296
21
56.689801
0
LINE
8
0
10
55.975296
20
56.689801
11
55.255631
21
56.372301
0
LINE
8
0
10
55.255631
20
56.372301
11
54.324299
21
56.266468
0
LINE
8
0
10
54.324299
20
56.266468
11
53.297716
21
56.361718
0
LINE
8
0
10
53.297716
20
56.361718
11
52.546301
21
56.626301
0
LINE
8
0
10
52.546301
20
56.626301
11
52.546301
21
57.472966
0
LINE
8
0
10
52.546301
20
57.472966
11
53.361216
21
57.155467
0
LINE
8
0
10
53.361216
20
57.155467
11
54.345465
21
57.017884
0
LINE
8
0
10
54.345465
20
57.017884
11
54.956652
21
57.073446
0
LINE
8
0
10
54.956652
20
57.073446
11
55.372047
21
57.240133
0
LINE
8
0
10
55.372047
20
57.240133
11
55.610172
21
57.510008
0
LINE
8
0
10
55.610172
20
57.510008
11
55.689547
21
57.853966
0
LINE
8
0
10
55.689547
20
57.853966
11
55.573130
21
58.234965
0
LINE
8
0
10
55.573130
20
58.234965
11
55.149797
21
58.573632
0
LINE
8
0
10
55.149797
20
58.573632
11
54.292549
21
58.954631
0
LINE
8
0
10
54.292549
20
58.954631
11
53.350633
21
59.377964
0
LINE
8
0
10
53.350633
20
59.377964
11
52.747384
21
59.885963
0
LINE
8
0
10
52.747384
20
59.885963
11
52.535717
21
60.647962
0
LINE
8
0
10
52.535717
20
60.647962
11
52.681238
21
61.285607
0
LINE
8
0
10
52.681238
20
61.285607
11
53.117800
21
61.759211
0
LINE
8
0
10
53.117800
20
61.759211
11
53.800424
21
62.052898
0
LINE
8
0
10
53.800424
20
62.052898
11
54.662965
21
62.150794
0
LINE
8
0
10
54.662965
20
62.150794
11
55.626047
21
62.044961
0
LINE
8
0
10
55.626047
20
62.044961
11
56.472712
21
61.769794
0
LINE
8
0
10
56.472712
20
61.769794
11
56.155213
21
61.028962
0
LINE
8
0
10
56.155213
20
61.028962
11
55.403797
21
61.282962
0
LINE
8
0
10
55.403797
20
61.282962
11
54.599465
21
61.388795
0
LINE
8
0
10
54.599465
20
61.388795
11
53.721049
21
61.198295
0
LINE
8
0
10
53.721049
20
61.198295
11
53.498800
21
60.983983
0
LINE
8
0
10
53.498800
20
60.983983
11
53.424716
21
60.700879
0
LINE
8
0
10
53.424716
20
60.700879
11
53.562299
21
60.298713
0
LINE
8
0
10
53.562299
20
60.298713
11
54.017382
21
59.981213
0
LINE
8
0
10
54.017382
20
59.981213
11
54.885214
21
59.621380
0
LINE
8
0
10
54.885214
20
59.621380
11
55.805963
21
59.208631
0
LINE
8
0
10
55.805963
20
59.208631
11
56.388046
21
58.690048
0
LINE
8
0
10
56.388046
20
58.690048
11
56.589129
21
57.938632
0
LINE
8
0
10
56.589129
20
57.938632
11
56.589129
21
57.938632
0
LINE
8
0
10
61.192878
20
64.172208
11
61.563295
21
64.024041
0
LINE
8
0
10
61.563295
20
64.024041
11
61.732628
21
63.579542
0
LINE
8
0
10
61.732628
20
63.579542
11
61.563295
21
63.124459
0
LINE
8
0
10
61.563295
20
63.124459
11
61.192878
21
62.986876
0
LINE
8
0
10
61.192878
20
62.986876
11
60.801296
21
63.124459
0
LINE
8
0
10
60.801296
20
63.124459
11
60.642546
21
63.579542
0
LINE
8
0
10
60.642546
20
63.579542
11
60.801296
21
64.024041
0
LINE
8
0
10
60.801296
20
64.024041
11
61.192878
21
64.172208
0
LINE
8
0
10
61.192878
20
64.172208
11
61.192878
21
64.172208
0
LINE
8
0
10
61.647961
20
62.044961
11
61.647961
21
56.372301
0
LINE
8
0
10
61.647961
20
56.372301
11
60.716629
21
56.372301
0
LINE
8
0
10
60.716629
20
56.372301
11
60.716629
21
62.044961
0
LINE
8
0
10
60.716629
20
62.044961
11
61.647961
21
62.044961
0
LINE
8
0
10
67.140696
20
57.938632
11
66.987238
21
57.213675
0
LINE
8
0
10
66.987238
20
57.213675
11
66.526864
21
56.689801
0
LINE
8
0
10
66.526864
20
56.689801
11
65.807198
21
56.372301
0
LINE
8
0
10
65.807198
20
56.372301
11
64.875866
21
56.266468
0
LINE
8
0
10
64.875866
20
56.266468
11
63.849284
21
56.361718
0
LINE
8
0
10
63.849284
20
56.361718
11
63.097868
21
56.626301
0
LINE
8
0
10
63.097868
20
56.626301
11
63.097868
21
57.472966
0
LINE
8
0
10
63.097868
20
57.472966
11
63.912784
21
57.155467
0
LINE
8
0
10
63.912784
20
57.155467
11
64.897033
21
57.017884
0
LINE
8
0
10
64.897033
20
57.017884
11
65.508219
21
57.073446
0
LINE
8
0
10
65.508219
20
57.073446
11
65.923615
21
57.240133
0
LINE
8
0
10
65.923615
20
57.240133
11
66.161739
21
57.510008
0
LINE
8
0
10
66.161739
20
57.510008
11
66.241114
21
57.853966
0
LINE
8
0
10
66.241114
20
57.853966
11
66.124698
21
58.234965
0
LINE
8
0
10
66.124698
20
58.234965
11
65.701365
21
58.573632
0
LINE
8
0
10
65.701365
20
58.573632
11
64.844116
21
58.954631
0
LINE
8
0
10
64.844116
20
58.954631
11
63.902200
21
59.377964
0
LINE
8
0
10
63.902200
20
59.377964
11
63.298951
21
59.885963
0
LINE
8
0
10
63.298951
20
59.885963
11
63.087285
21
60.647962
0
LINE
8
0
10
63.087285
20
60.647962
11
63.232805
21
61.285607
0
LINE
8
0
10
63.232805
20
61.285607
11
63.669367
21
61.759211
0
LINE
8
0
10
63.669367
20
61.759211
11
64.351992
21
62.052898
0
LINE
8
0
10
64.351992
20
62.052898
11
65.214532
21
62.150794
0
LINE
8
0
10
65.214532
20
62.150794
11
66.177614
21
62.044961
0
LINE
8
0
10
66.177614
20
62.044961
11
67.024280
21
61.769794
0
LINE
8
0
10
67.024280
20
61.769794
11
66.706780
21
61.028962
0
LINE
8
0
10
66.706780
20
61.028962
11
65.955365
21
61.282962
0
LINE
8
0
10
65.955365
20
61.282962
11
65.151032
21
61.388795
0
LINE
8
0
10
65.151032
20
61.388795
11
64.272617
21
61.198295
0
LINE
8
0
10
64.272617
20
61.198295
11
64.050367
21
60.983983
0
LINE
8
0
10
64.050367
20
60.983983
11
63.976284
21
60.700879
0
LINE
8
0
10
63.976284
20
60.700879
11
64.113867
21
60.298713
0
LINE
8
0
10
64.113867
20
60.298713
11
64.568950
21
59.981213
0
LINE
8
0
10
64.568950
20
59.981213
11
65.436782
21
59.621380
0
LINE
8
0
10
65.436782
20
59.621380
11
66.357531
21
59.208631
0
LINE
8
0
10
66.357531
20
59.208631
11
66.939613
21
58.690048
0
LINE
8
0
10
66.939613
20
58.690048
11
67.140696
21
57.938632
0
LINE
8
0
10
67.140696
20
57.938632
11
67.140696
21
57.938632
0
LINE
8
0
10
73.998692
20
62.150794
11
74.890337
21
62.026440
0
LINE
8
0
10
74.890337
20
62.026440
11
75.533274
21
61.653378
0
LINE
8
0
10
75.533274
20
61.653378
11
75.922211
21
61.007795
0
LINE
8
0
10
75.922211
20
61.007795
11
76.051856
21
60.065880
0
LINE
8
0
10
76.051856
20
60.065880
11
76.051856
21
56.372301
0
LINE
8
0
10
76.051856
20
56.372301
11
75.131107
21
56.372301
0
LINE
8
0
10
75.131107
20
56.372301
11
75.131107
21
60.002380
0
LINE
8
0
10
75.131107
20
60.002380
11
75.051733
21
60.599676
0
LINE
8
0
10
75.051733
20
60.599676
11
74.813608
21
61.026316
0
LINE
8
0
10
74.813608
20
61.026316
11
74.416733
21
61.282300
0
LINE
8
0
10
74.416733
20
61.282300
11
73.861109
21
61.367628
0
LINE
8
0
10
73.861109
20
61.367628
11
73.064715
21
61.235337
0
LINE
8
0
10
73.064715
20
61.235337
11
72.559362
21
60.838462
0
LINE
8
0
10
72.559362
20
60.838462
11
72.289487
21
60.192880
0
LINE
8
0
10
72.289487
20
60.192880
11
72.199529
21
59.314464
0
LINE
8
0
10
72.199529
20
59.314464
11
72.199529
21
56.372301
0
LINE
8
0
10
72.199529
20
56.372301
11
71.268196
21
56.372301
0
LINE
8
0
10
71.268196
20
56.372301
11
71.268196
21
62.044961
0
LINE
8
0
10
71.268196
20
62.044961
11
72.019612
21
62.044961
0
LINE
8
0
10
72.019612
20
62.044961
11
72.157195
21
61.272378
0
LINE
8
0
10
72.157195
20
61.272378
11
72.210112
21
61.272378
0
LINE
8
0
10
72.210112
20
61.272378
11
72.538195
21
61.658669
0
LINE
8
0
10
72.538195
20
61.658669
11
72.972111
21
61.928544
0
LINE
8
0
10
72.972111
20
61.928544
11
73.998692
21
62.150794
0
LINE
8
0
10
73.998692
20
62.150794
11
73.998692
21
62.150794
0
LINE
8
0
10
82.740511
20
59.219214
11
82.560594
21
57.970382
0
LINE
8
0
10
82.560594
20
57.970382
11
82.020845
21
57.039050
0
LINE
8
0
10
82.020845
20
57.039050
11
81.184763
21
56.459613
0
LINE
8
0
10
81.184763
20
56.459613
11
80.094681
21
56.266468
0
LINE
8
0
10
80.094681
20
56.266468
11
79.382953
21
56.351134
0
LINE
8
0
10
79.382953
20
56.351134
11
78.750599
21
56.605134
0
LINE
8
0
10
78.750599
20
56.605134
11
78.229371
21
57.031113
0
LINE
8
0
10
78.229371
20
57.031113
11
77.829850
21
57.610549
0
LINE
8
0
10
77.829850
20
57.610549
11
77.575851
21
58.346090
0
LINE
8
0
10
77.575851
20
58.346090
11
77.491184
21
59.219214
0
LINE
8
0
10
77.491184
20
59.219214
11
77.665809
21
60.465400
0
LINE
8
0
10
77.665809
20
60.465400
11
78.189683
21
61.388795
0
LINE
8
0
10
78.189683
20
61.388795
11
79.028411
21
61.960294
0
LINE
8
0
10
79.028411
20
61.960294
11
80.126431
21
62.150794
0
LINE
8
0
10
80.126431
20
62.150794
11
80.846097
21
62.063481
0
LINE
8
0
10
80.846097
20
62.063481
11
81.481096
21
61.801544
0
LINE
8
0
10
81.481096
20
61.801544
11
82.007616
21
61.383503
0
LINE
8
0
10
82.007616
20
61.383503
11
82.401845
21
60.806712
0
LINE
8
0
10
82.401845
20
60.806712
11
82.655844
21
60.087046
0
LINE
8
0
10
82.655844
20
60.087046
11
82.740511
21
59.219214
0
LINE
8
0
10
82.740511
20
59.219214
11
82.740511
21
59.219214
0
LINE
8
0
10
78.454266
20
59.219214
11
78.552162
21
58.316986
0
LINE
8
0
10
78.552162
20
58.316986
11
78.845849
21
57.621133
0
LINE
8
0
10
78.845849
20
57.621133
11
79.364432
21
57.184571
0
LINE
8
0
10
79.364432
20
57.184571
11
80.115848
21
57.039050
0
LINE
8
0
10
80.115848
20
57.039050
11
80.859326
21
57.184571
0
LINE
8
0
10
80.859326
20
57.184571
11
81.375263
21
57.621133
0
LINE
8
0
10
81.375263
20
57.621133
11
81.676887
21
58.316986
0
LINE
8
0
10
81.676887
20
58.316986
11
81.777429
21
59.219214
0
LINE
8
0
10
81.777429
20
59.219214
11
81.676887
21
60.116150
0
LINE
8
0
10
81.676887
20
60.116150
11
81.375263
21
60.796129
0
LINE
8
0
10
81.375263
20
60.796129
11
80.856680
21
61.224753
0
LINE
8
0
10
80.856680
20
61.224753
11
80.105264
21
61.367628
0
LINE
8
0
10
80.105264
20
61.367628
11
79.356494
21
61.224753
0
LINE
8
0
10
79.356494
20
61.224753
11
78.845849
21
60.796129
0
LINE
8
0
10
78.845849
20
60.796129
11
78.552162
21
60.116150
0
LINE
8
0
10
78.552162
20
60.116150
11
78.454266
21
59.219214
0
LINE
8
0
10
78.454266
20
59.219214
11
78.454266
21
59.219214
0
LINE
8
0
10
86.106010
20
57.028467
11
86.539926
21
57.060217
0
LINE
8
0
10
86.539926
20
57.060217
11
86.899759
21
57.144883
0
LINE
8
0
10
86.899759
20
57.144883
11
86.899759
21
56.435801
0
LINE
8
0
10
86.899759
20
56.435801
11
86.476426
21
56.319384
0
LINE
8
0
10
86.476426
20
56.319384
11
85.947260
21
56.266468
0
LINE
8
0
10
85.947260
20
56.266468
11
85.121761
21
56.414634
0
LINE
8
0
10
85.121761
20
56.414634
11
84.518512
21
56.954384
0
LINE
8
0
10
84.518512
20
56.954384
11
84.285679
21
58.023299
0
LINE
8
0
10
84.285679
20
58.023299
11
84.285679
21
61.325295
0
LINE
8
0
10
84.285679
20
61.325295
11
83.481347
21
61.325295
0
LINE
8
0
10
83.481347
20
61.325295
11
83.481347
21
61.769794
0
LINE
8
0
10
83.481347
20
61.769794
11
84.296262
21
62.140210
0
LINE
8
0
10
84.296262
20
62.140210
11
84.666679
21
63.346709
0
LINE
8
0
10
84.666679
20
63.346709
11
85.217011
21
63.346709
0
LINE
8
0
10
85.217011
20
63.346709
11
85.217011
21
62.044961
0
LINE
8
0
10
85.217011
20
62.044961
11
86.857426
21
62.044961
0
LINE
8
0
10
86.857426
20
62.044961
11
86.857426
21
61.325295
0
LINE
8
0
10
86.857426
20
61.325295
11
85.217011
21
61.325295
0
LINE
8
0
10
85.217011
20
61.325295
11
85.217011
21
58.044466
0
LINE
8
0
10
85.217011
20
58.044466
11
85.277865
21
57.592029
0
LINE
8
0
10
85.277865
20
57.592029
11
85.460428
21
57.271883
0
LINE
8
0
10
85.460428
20
57.271883
11
86.106010
21
57.028467
0
LINE
8
0
10
86.106010
20
57.028467
11
86.106010
21
57.028467
0
LINE
8
0
10
92.678251
20
57.028467
11
93.112167
21
57.060217
0
LINE
8
0
10
93.112167
20
57.060217
11
93.472000
21
57.144883
0
LINE
8
0
10
93.472000
20
57.144883
11
93.472000
21
56.435801
0
LINE
8
0
10
93.472000
20
56.435801
11
93.048667
21
56.319384
0
LINE
8
0
10
93.048667
20
56.319384
11
92.519501
21
56.266468
0
LINE
8
0
10
92.519501
20
56.266468
11
91.694002
21
56.414634
0
LINE
8
0
10
91.694002
20
56.414634
11
91.090753
21
56.954384
0
LINE
8
0
10
91.090753
20
56.954384
11
90.857920
21
58.023299
0
LINE
8
0
10
90.857920
20
58.023299
11
90.857920
21
61.325295
0
LINE
8
0
10
90.857920
20
61.325295
11
90.053587
21
61.325295
0
LINE
8
0
10
90.053587
20
61.325295
11
90.053587
21
61.769794
0
LINE
8
0
10
90.053587
20
61.769794
11
90.868503
21
62.140210
0
LINE
8
0
10
90.868503
20
62.140210
11
91.238919
21
63.346709
0
LINE
8
0
10
91.238919
20
63.346709
11
91.789252
21
63.346709
0
LINE
8
0
10
91.789252
20
63.346709
11
91.789252
21
62.044961
0
LINE
8
0
10
91.789252
20
62.044961
11
93.429666
21
62.044961
0
LINE
8
0
10
93.429666
20
62.044961
11
93.429666
21
61.325295
0
LINE
8
0
10
93.429666
20
61.325295
11
91.789252
21
61.325295
0
LINE
8
0
10
91.789252
20
61.325295
11
91.789252
21
58.044466
0
LINE
8
0
10
91.789252
20
58.044466
11
91.850106
21
57.592029
0
LINE
8
0
10
91.850106
20
57.592029
11
92.032668
21
57.271883
0
LINE
8
0
10
92.032668
20
57.271883
11
92.678251
21
57.028467
0
LINE
8
0
10
92.678251
20
57.028467
11
92.678251
21
57.028467
0
LINE
8
0
10
95.535748
20
64.415624
11
95.535748
21
62.055544
0
LINE
8
0
10
95.535748
20
62.055544
11
95.482831
21
61.261795
0
LINE
8
0
10
95.482831
20
61.261795
11
95.546331
21
61.261795
0
LINE
8
0
10
95.546331
20
61.261795
11
96.287163
21
61.917961
0
LINE
8
0
10
96.287163
20
61.917961
11
97.313745
21
62.140210
0
LINE
8
0
10
97.313745
20
62.140210
11
98.213328
21
62.015856
0
LINE
8
0
10
98.213328
20
62.015856
11
98.858910
21
61.642794
0
LINE
8
0
10
98.858910
20
61.642794
11
99.255785
21
61.005149
0
LINE
8
0
10
99.255785
20
61.005149
11
99.388076
21
60.065880
0
LINE
8
0
10
99.388076
20
60.065880
11
99.388076
21
56.372301
0
LINE
8
0
10
99.388076
20
56.372301
11
98.467327
21
56.372301
0
LINE
8
0
10
98.467327
20
56.372301
11
98.467327
21
60.002380
0
LINE
8
0
10
98.467327
20
60.002380
11
98.387953
21
60.599676
0
LINE
8
0
10
98.387953
20
60.599676
11
98.149828
21
61.026316
0
LINE
8
0
10
98.149828
20
61.026316
11
97.752953
21
61.282300
0
LINE
8
0
10
97.752953
20
61.282300
11
97.197329
21
61.367628
0
LINE
8
0
10
97.197329
20
61.367628
11
96.392997
21
61.232691
0
LINE
8
0
10
96.392997
20
61.232691
11
95.884997
21
60.827879
0
LINE
8
0
10
95.884997
20
60.827879
11
95.623060
21
60.182296
0
LINE
8
0
10
95.623060
20
60.182296
11
95.535748
21
59.303881
0
LINE
8
0
10
95.535748
20
59.303881
11
95.535748
21
56.372301
0
LINE
8
0
10
95.535748
20
56.372301
11
94.604416
21
56.372301
0
LINE
8
0
10
94.604416
20
56.372301
11
94.604416
21
64.415624
0
LINE
8
0
10
94.604416
20
64.415624
11
95.535748
21
64.415624
0
LINE
8
0
10
103.335655
20
62.150794
11
104.007696
21
62.071419
0
LINE
8
0
10
104.007696
20
62.071419
11
104.584487
21
61.833294
0
LINE
8
0
10
104.584487
20
61.833294
11
105.050153
21
61.449649
0
LINE
8
0
10
105.050153
20
61.449649
11
105.388819
21
60.933712
0
LINE
8
0
10
105.388819
20
60.933712
11
105.603131
21
60.311942
0
LINE
8
0
10
105.603131
20
60.311942
11
105.674569
21
59.589630
0
LINE
8
0
10
105.674569
20
59.589630
11
105.674569
21
59.028714
0
LINE
8
0
10
105.674569
20
59.028714
11
101.790490
21
59.028714
0
LINE
8
0
10
101.790490
20
59.028714
11
101.922782
21
58.179403
0
LINE
8
0
10
101.922782
20
58.179403
11
102.277323
21
57.557633
0
LINE
8
0
10
102.277323
20
57.557633
11
102.846176
21
57.184571
0
LINE
8
0
10
102.846176
20
57.184571
11
103.600238
21
57.060217
0
LINE
8
0
10
103.600238
20
57.060217
11
104.552737
21
57.155467
0
LINE
8
0
10
104.552737
20
57.155467
11
105.420569
21
57.451800
0
LINE
8
0
10
105.420569
20
57.451800
11
105.420569
21
56.636884
0
LINE
8
0
10
105.420569
20
56.636884
11
104.563320
21
56.361718
0
LINE
8
0
10
104.563320
20
56.361718
11
103.557905
21
56.266468
0
LINE
8
0
10
103.557905
20
56.266468
11
102.793260
21
56.348489
0
LINE
8
0
10
102.793260
20
56.348489
11
102.129156
21
56.594551
0
LINE
8
0
10
102.129156
20
56.594551
11
101.581470
21
57.002009
0
LINE
8
0
10
101.581470
20
57.002009
11
101.166074
21
57.568216
0
LINE
8
0
10
101.166074
20
57.568216
11
100.912075
21
58.290528
0
LINE
8
0
10
100.912075
20
58.290528
11
100.827408
21
59.166298
0
LINE
8
0
10
100.827408
20
59.166298
11
100.904137
21
60.031484
0
LINE
8
0
10
100.904137
20
60.031484
11
101.134324
21
60.764379
0
LINE
8
0
10
101.134324
20
60.764379
11
101.512678
21
61.354399
0
LINE
8
0
10
101.512678
20
61.354399
11
102.012740
21
61.790961
0
LINE
8
0
10
102.012740
20
61.790961
11
102.629218
21
62.060836
0
LINE
8
0
10
102.629218
20
62.060836
11
103.335655
21
62.150794
0
LINE
8
0
10
103.335655
20
62.150794
11
103.335655
21
62.150794
0
LINE
8
0
10
103.325072
20
61.388795
11
102.727114
21
61.280316
0
LINE
8
0
10
102.727114
20
61.280316
11
102.266740
21
60.954879
0
LINE
8
0
10
102.266740
20
60.954879
11
101.962469
21
60.446879
0
LINE
8
0
10
101.962469
20
60.446879
11
101.811657
21
59.769547
0
LINE
8
0
10
101.811657
20
59.769547
11
104.700903
21
59.769547
0
LINE
8
0
10
104.700903
20
59.769547
11
104.610945
21
60.420421
0
LINE
8
0
10
104.610945
20
60.420421
11
104.362237
21
60.933712
0
LINE
8
0
10
104.362237
20
60.933712
11
103.938904
21
61.275024
0
LINE
8
0
10
103.938904
20
61.275024
11
103.325072
21
61.388795
0
LINE
8
0
10
103.325072
20
61.388795
11
103.325072
21
61.388795
0
LINE
8
0
10
112.511383
20
62.150794
11
112.850049
21
62.129627
0
LINE
8
0
10
112.850049
20
62.129627
11
113.178132
21
62.087294
0
LINE
8
0
10
113.178132
20
62.087294
11
113.061716
21
61.230045
0
LINE
8
0
10
113.061716
20
61.230045
11
112.754800
21
61.282962
0
LINE
8
0
10
112.754800
20
61.282962
11
112.447883
21
61.304128
0
LINE
8
0
10
112.447883
20
61.304128
11
111.632968
21
61.060712
0
LINE
8
0
10
111.632968
20
61.060712
11
111.019135
21
60.393963
0
LINE
8
0
10
111.019135
20
60.393963
11
110.796885
21
59.399131
0
LINE
8
0
10
110.796885
20
59.399131
11
110.796885
21
56.372301
0
LINE
8
0
10
110.796885
20
56.372301
11
109.865553
21
56.372301
0
LINE
8
0
10
109.865553
20
56.372301
11
109.865553
21
62.044961
0
LINE
8
0
10
109.865553
20
62.044961
11
110.627552
21
62.044961
0
LINE
8
0
10
110.627552
20
62.044961
11
110.733385
21
61.007795
0
LINE
8
0
10
110.733385
20
61.007795
11
110.775719
21
61.007795
0
LINE
8
0
10
110.775719
20
61.007795
11
111.474218
21
61.812128
0
LINE
8
0
10
111.474218
20
61.812128
11
111.955759
21
62.066127
0
LINE
8
0
10
111.955759
20
62.066127
11
112.511383
21
62.150794
0
LINE
8
0
10
112.511383
20
62.150794
11
112.511383
21
62.150794
0
LINE
8
0
10
114.712719
20
64.172208
11
115.083135
21
64.024041
0
LINE
8
0
10
115.083135
20
64.024041
11
115.252468
21
63.579542
0
LINE
8
0
10
115.252468
20
63.579542
11
115.083135
21
63.124459
0
LINE
8
0
10
115.083135
20
63.124459
11
114.712719
21
62.986876
0
LINE
8
0
10
114.712719
20
62.986876
11
114.321136
21
63.124459
0
LINE
8
0
10
114.321136
20
63.124459
11
114.162386
21
63.579542
0
LINE
8
0
10
114.162386
20
63.579542
11
114.321136
21
64.024041
0
LINE
8
0
10
114.321136
20
64.024041
11
114.712719
21
64.172208
0
LINE
8
0
10
114.712719
20
64.172208
11
114.712719
21
64.172208
0
LINE
8
0
10
115.167801
20
62.044961
11
115.167801
21
56.372301
0
LINE
8
0
10
115.167801
20
56.372301
11
114.236469
21
56.372301
0
LINE
8
0
10
114.236469
20
56.372301
11
114.236469
21
62.044961
0
LINE
8
0
10
114.236469
20
62.044961
11
115.167801
21
62.044961
0
LINE
8
0
10
118.977791
20
62.150794
11
119.983206
21
61.939127
0
LINE
8
0
10
119.983206
20
61.939127
11
120.755788
21
61.293545
0
LINE
8
0
10
120.755788
20
61.293545
11
120.808705
21
61.293545
0
LINE
8
0
10
120.808705
20
61.293545
11
120.935705
21
62.044961
0
LINE
8
0
10
120.935705
20
62.044961
11
121.676537
21
62.044961
0
LINE
8
0
10
121.676537
20
62.044961
11
121.676537
21
56.277051
0
LINE
8
0
10
121.676537
20
56.277051
11
121.520433
21
55.210782
0
LINE
8
0
10
121.520433
20
55.210782
11
121.052121
21
54.446137
0
LINE
8
0
10
121.052121
20
54.446137
11
120.266310
21
53.985762
0
LINE
8
0
10
120.266310
20
53.985762
11
119.136540
21
53.832304
0
LINE
8
0
10
119.136540
20
53.832304
11
118.001479
21
53.922262
0
LINE
8
0
10
118.001479
20
53.922262
11
117.093960
21
54.192137
0
LINE
8
0
10
117.093960
20
54.192137
11
117.093960
21
55.049386
0
LINE
8
0
10
117.093960
20
55.049386
11
118.035875
21
54.716011
0
LINE
8
0
10
118.035875
20
54.716011
11
119.189457
21
54.604887
0
LINE
8
0
10
119.189457
20
54.604887
11
119.840331
21
54.713366
0
LINE
8
0
10
119.840331
20
54.713366
11
120.332456
21
55.038803
0
LINE
8
0
10
120.332456
20
55.038803
11
120.649955
21
55.541510
0
LINE
8
0
10
120.649955
20
55.541510
11
120.755788
21
56.202968
0
LINE
8
0
10
120.755788
20
56.202968
11
120.755788
21
56.425218
0
LINE
8
0
10
120.755788
20
56.425218
11
120.766372
21
56.785051
0
LINE
8
0
10
120.766372
20
56.785051
11
120.787538
21
57.123717
0
LINE
8
0
10
120.787538
20
57.123717
11
120.745205
21
57.123717
0
LINE
8
0
10
120.745205
20
57.123717
11
120.020248
21
56.480780
0
LINE
8
0
10
120.020248
20
56.480780
11
118.988374
21
56.266468
0
LINE
8
0
10
118.988374
20
56.266468
11
118.006771
21
56.459613
0
LINE
8
0
10
118.006771
20
56.459613
11
117.263293
21
57.039050
0
LINE
8
0
10
117.263293
20
57.039050
11
116.802918
21
57.965091
0
LINE
8
0
10
116.802918
20
57.965091
11
116.649460
21
59.198047
0
LINE
8
0
10
116.649460
20
59.198047
11
116.802918
21
60.412483
0
LINE
8
0
10
116.802918
20
60.412483
11
117.263293
21
61.346461
0
LINE
8
0
10
117.263293
20
61.346461
11
118.004125
21
61.949711
0
LINE
8
0
10
118.004125
20
61.949711
11
118.977791
21
62.150794
0
LINE
8
0
10
118.977791
20
62.150794
11
118.977791
21
62.150794
0
LINE
8
0
10
119.104790
20
61.367628
11
118.475083
21
61.224753
0
LINE
8
0
10
118.475083
20
61.224753
11
118.004125
21
60.796129
0
LINE
8
0
10
118.004125
20
60.796129
11
117.710438
21
60.113505
0
LINE
8
0
10
117.710438
20
60.113505
11
117.612542
21
59.187464
0
LINE
8
0
10
117.612542
20
59.187464
11
117.707792
21
58.261424
0
LINE
8
0
10
117.707792
20
58.261424
11
117.993542
21
57.578800
0
LINE
8
0
10
117.993542
20
57.578800
11
118.467145
21
57.166050
0
LINE
8
0
10
118.467145
20
57.166050
11
119.125957
21
57.028467
0
LINE
8
0
10
119.125957
20
57.028467
11
119.866789
21
57.142238
0
LINE
8
0
10
119.866789
20
57.142238
11
120.374789
21
57.483550
0
LINE
8
0
10
120.374789
20
57.483550
11
120.668476
21
58.089445
0
LINE
8
0
10
120.668476
20
58.089445
11
120.766372
21
58.975798
0
LINE
8
0
10
120.766372
20
58.975798
11
120.766372
21
59.198047
0
LINE
8
0
10
120.766372
20
59.198047
11
120.665830
21
60.190234
0
LINE
8
0
10
120.665830
20
60.190234
11
120.364206
21
60.859629
0
LINE
8
0
10
120.364206
20
60.859629
11
119.848269
21
61.240628
0
LINE
8
0
10
119.848269
20
61.240628
11
119.104790
21
61.367628
0
LINE
8
0
10
119.104790
20
61.367628
11
119.104790
21
61.367628
0
LINE
8
0
10
124.407035
20
64.415624
11
124.407035
21
62.055544
0
LINE
8
0
10
124.407035
20
62.055544
11
124.354119
21
61.261795
0
LINE
8
0
10
124.354119
20
61.261795
11
124.417619
21
61.261795
0
LINE
8
0
10
124.417619
20
61.261795
11
125.158451
21
61.917961
0
LINE
8
0
10
125.158451
20
61.917961
11
126.185033
21
62.140210
0
LINE
8
0
10
126.185033
20
62.140210
11
127.084616
21
62.015856
0
LINE
8
0
10
127.084616
20
62.015856
11
127.730198
21
61.642794
0
LINE
8
0
10
127.730198
20
61.642794
11
128.127073
21
61.005149
0
LINE
8
0
10
128.127073
20
61.005149
11
128.259364
21
60.065880
0
LINE
8
0
10
128.259364
20
60.065880
11
128.259364
21
56.372301
0
LINE
8
0
10
128.259364
20
56.372301
11
127.338615
21
56.372301
0
LINE
8
0
10
127.338615
20
56.372301
11
127.338615
21
60.002380
0
LINE
8
0
10
127.338615
20
60.002380
11
127.259240
21
60.599676
0
LINE
8
0
10
127.259240
20
60.599676
11
127.021116
21
61.026316
0
LINE
8
0
10
127.021116
20
61.026316
11
126.624241
21
61.282300
0
LINE
8
0
10
126.624241
20
61.282300
11
126.068617
21
61.367628
0
LINE
8
0
10
126.068617
20
61.367628
11
125.264284
21
61.232691
0
LINE
8
0
10
125.264284
20
61.232691
11
124.756285
21
60.827879
0
LINE
8
0
10
124.756285
20
60.827879
11
124.494348
21
60.182296
0
LINE
8
0
10
124.494348
20
60.182296
11
124.407035
21
59.303881
0
LINE
8
0
10
124.407035
20
59.303881
11
124.407035
21
56.372301
0
LINE
8
0
10
124.407035
20
56.372301
11
123.475703
21
56.372301
0
LINE
8
0
10
123.475703
20
56.372301
11
123.475703
21
64.415624
0
LINE
8
0
10
123.475703
20
64.415624
11
124.407035
21
64.415624
0
LINE
8
0
10
131.910602
20
57.028467
11
132.344518
21
57.060217
0
LINE
8
0
10
132.344518
20
57.060217
11
132.704351
21
57.144883
0
LINE
8
0
10
132.704351
20
57.144883
11
132.704351
21
56.435801
0
LINE
8
0
10
132.704351
20
56.435801
11
132.281018
21
56.319384
0
LINE
8
0
10
132.281018
20
56.319384
11
131.751852
21
56.266468
0
LINE
8
0
10
131.751852
20
56.266468
11
130.926353
21
56.414634
0
LINE
8
0
10
130.926353
20
56.414634
11
130.323104
21
56.954384
0
LINE
8
0
10
130.323104
20
56.954384
11
130.090271
21
58.023299
0
LINE
8
0
10
130.090271
20
58.023299
11
130.090271
21
61.325295
0
LINE
8
0
10
130.090271
20
61.325295
11
129.285938
21
61.325295
0
LINE
8
0
10
129.285938
20
61.325295
11
129.285938
21
61.769794
0
LINE
8
0
10
129.285938
20
61.769794
11
130.100854
21
62.140210
0
LINE
8
0
10
130.100854
20
62.140210
11
130.471270
21
63.346709
0
LINE
8
0
10
130.471270
20
63.346709
11
131.021603
21
63.346709
0
LINE
8
0
10
131.021603
20
63.346709
11
131.021603
21
62.044961
0
LINE
8
0
10
131.021603
20
62.044961
11
132.662017
21
62.044961
0
LINE
8
0
10
132.662017
20
62.044961
11
132.662017
21
61.325295
0
LINE
8
0
10
132.662017
20
61.325295
11
131.021603
21
61.325295
0
LINE
8
0
10
131.021603
20
61.325295
11
131.021603
21
58.044466
0
LINE
8
0
10
131.021603
20
58.044466
11
131.082457
21
57.592029
0
LINE
8
0
10
131.082457
20
57.592029
11
131.265019
21
57.271883
0
LINE
8
0
10
131.265019
20
57.271883
11
131.910602
21
57.028467
0
LINE
8
0
10
131.910602
20
57.028467
11
131.910602
21
57.028467
0
LINE
8
0
10
141.223931
20
56.382884
11
140.250266
21
59.579047
0
LINE
8
0
10
140.250266
20
59.579047
11
140.006849
21
60.425713
0
LINE
8
0
10
140.006849
20
60.425713
11
139.858683
21
61.081878
0
LINE
8
0
10
139.858683
20
61.081878
11
139.816350
21
61.081878
0
LINE
8
0
10
139.816350
20
61.081878
11
139.678766
21
60.425713
0
LINE
8
0
10
139.678766
20
60.425713
11
139.435350
21
59.568464
0
LINE
8
0
10
139.435350
20
59.568464
11
138.419351
21
56.382884
0
LINE
8
0
10
138.419351
20
56.382884
11
137.361019
21
56.382884
0
LINE
8
0
10
137.361019
20
56.382884
11
135.805271
21
62.055544
0
LINE
8
0
10
135.805271
20
62.055544
11
136.768353
21
62.055544
0
LINE
8
0
10
136.768353
20
62.055544
11
137.551519
21
59.028714
0
LINE
8
0
10
137.551519
20
59.028714
11
137.773769
21
58.107966
0
LINE
8
0
10
137.773769
20
58.107966
11
137.921935
21
57.335383
0
LINE
8
0
10
137.921935
20
57.335383
11
137.964269
21
57.335383
0
LINE
8
0
10
137.964269
20
57.335383
11
138.059518
21
57.779883
0
LINE
8
0
10
138.059518
20
57.779883
11
138.197102
21
58.330215
0
LINE
8
0
10
138.197102
20
58.330215
11
138.345268
21
58.859381
0
LINE
8
0
10
138.345268
20
58.859381
11
139.350683
21
62.055544
0
LINE
8
0
10
139.350683
20
62.055544
11
140.366682
21
62.055544
0
LINE
8
0
10
140.366682
20
62.055544
11
141.340348
21
58.859381
0
LINE
8
0
10
141.340348
20
58.859381
11
141.562597
21
58.065632
0
LINE
8
0
10
141.562597
20
58.065632
11
141.721347
21
57.345966
0
LINE
8
0
10
141.721347
20
57.345966
11
141.763680
21
57.345966
0
LINE
8
0
10
141.763680
20
57.345966
11
141.901264
21
58.076216
0
LINE
8
0
10
141.901264
20
58.076216
11
142.144680
21
59.028714
0
LINE
8
0
10
142.144680
20
59.028714
11
142.938429
21
62.055544
0
LINE
8
0
10
142.938429
20
62.055544
11
143.890928
21
62.055544
0
LINE
8
0
10
143.890928
20
62.055544
11
142.314013
21
56.382884
0
LINE
8
0
10
142.314013
20
56.382884
11
141.223931
21
56.382884
0
LINE
8
0
10
145.383168
20
64.172208
11
145.753584
21
64.024041
0
LINE
8
0
10
145.753584
20
64.024041
11
145.922917
21
63.579542
0
LINE
8
0
10
145.922917
20
63.579542
11
145.753584
21
63.124459
0
LINE
8
0
10
145.753584
20
63.124459
11
145.383168
21
62.986876
0
LINE
8
0
10
145.383168
20
62.986876
11
144.991585
21
63.124459
0
LINE
8
0
10
144.991585
20
63.124459
11
144.832835
21
63.579542
0
LINE
8
0
10
144.832835
20
63.579542
11
144.991585
21
64.024041
0
LINE
8
0
10
144.991585
20
64.024041
11
145.383168
21
64.172208
0
LINE
8
0
10
145.383168
20
64.172208
11
145.383168
21
64.172208
0
LINE
8
0
10
145.838251
20
62.044961
11
145.838251
21
56.372301
0
LINE
8
0
10
145.838251
20
56.372301
11
144.906919
21
56.372301
0
LINE
8
0
10
144.906919
20
56.372301
11
144.906919
21
62.044961
0
LINE
8
0
10
144.906919
20
62.044961
11
145.838251
21
62.044961
0
LINE
8
0
10
149.648241
20
56.266468
11
148.695742
21
56.449030
0
LINE
8
0
10
148.695742
20
56.449030
11
147.954909
21
56.996717
0
LINE
8
0
10
147.954909
20
56.996717
11
147.478660
21
57.917466
0
LINE
8
0
10
147.478660
20
57.917466
11
147.319910
21
59.198047
0
LINE
8
0
10
147.319910
20
59.198047
11
147.478660
21
60.478629
0
LINE
8
0
10
147.478660
20
60.478629
11
147.954909
21
61.399378
0
LINE
8
0
10
147.954909
20
61.399378
11
148.703679
21
61.962940
0
LINE
8
0
10
148.703679
20
61.962940
11
149.658824
21
62.150794
0
LINE
8
0
10
149.658824
20
62.150794
11
150.727739
21
61.907377
0
LINE
8
0
10
150.727739
20
61.907377
11
151.415655
21
61.314711
0
LINE
8
0
10
151.415655
20
61.314711
11
151.479155
21
61.314711
0
LINE
8
0
10
151.479155
20
61.314711
11
151.436822
21
61.716878
0
LINE
8
0
10
151.436822
20
61.716878
11
151.415655
21
62.150794
0
LINE
8
0
10
151.415655
20
62.150794
11
151.415655
21
64.415624
0
LINE
8
0
10
151.415655
20
64.415624
11
152.346987
21
64.415624
0
LINE
8
0
10
152.346987
20
64.415624
11
152.346987
21
56.372301
0
LINE
8
0
10
152.346987
20
56.372301
11
151.595571
21
56.372301
0
LINE
8
0
10
151.595571
20
56.372301
11
151.457988
21
57.134300
0
LINE
8
0
10
151.457988
20
57.134300
11
151.415655
21
57.134300
0
LINE
8
0
10
151.415655
20
57.134300
11
150.738323
21
56.520468
0
LINE
8
0
10
150.738323
20
56.520468
11
150.254136
21
56.329968
0
LINE
8
0
10
150.254136
20
56.329968
11
149.648241
21
56.266468
0
LINE
8
0
10
149.648241
20
56.266468
11
149.648241
21
56.266468
0
LINE
8
0
10
149.796407
20
57.039050
11
150.561052
21
57.160758
0
LINE
8
0
10
150.561052
20
57.160758
11
151.055822
21
57.525883
0
LINE
8
0
10
151.055822
20
57.525883
11
151.333634
21
58.147653
0
LINE
8
0
10
151.333634
20
58.147653
11
151.426238
21
59.018131
0
LINE
8
0
10
151.426238
20
59.018131
11
151.426238
21
59.187464
0
LINE
8
0
10
151.426238
20
59.187464
11
151.338926
21
60.121442
0
LINE
8
0
10
151.338926
20
60.121442
11
151.076989
21
60.806712
0
LINE
8
0
10
151.076989
20
60.806712
11
150.579573
21
61.235337
0
LINE
8
0
10
150.579573
20
61.235337
11
149.785824
21
61.378211
0
LINE
8
0
10
149.785824
20
61.378211
11
149.127012
21
61.227399
0
LINE
8
0
10
149.127012
20
61.227399
11
148.653409
21
60.774962
0
LINE
8
0
10
148.653409
20
60.774962
11
148.375596
21
60.079109
0
LINE
8
0
10
148.375596
20
60.079109
11
148.282992
21
59.176881
0
LINE
8
0
10
148.282992
20
59.176881
11
148.375596
21
58.274653
0
LINE
8
0
10
148.375596
20
58.274653
11
148.653409
21
57.599966
0
LINE
8
0
10
148.653409
20
57.599966
11
149.129658
21
57.179279
0
LINE
8
0
10
149.129658
20
57.179279
11
149.796407
21
57.039050
0
LINE
8
0
10
149.796407
20
57.039050
11
149.796407
21
57.039050
0
LINE
8
0
10
156.040558
20
57.028467
11
156.474474
21
57.060217
0
LINE
8
0
10
156.474474
20
57.060217
11
156.834307
21
57.144883
0
LINE
8
0
10
156.834307
20
57.144883
11
156.834307
21
56.435801
0
LINE
8
0
10
156.834307
20
56.435801
11
156.410974
21
56.319384
0
LINE
8
0
10
156.410974
20
56.319384
11
155.881808
21
56.266468
0
LINE
8
0
10
155.881808
20
56.266468
11
155.056309
21
56.414634
0
LINE
8
0
10
155.056309
20
56.414634
11
154.453060
21
56.954384
0
LINE
8
0
10
154.453060
20
56.954384
11
154.220227
21
58.023299
0
LINE
8
0
10
154.220227
20
58.023299
11
154.220227
21
61.325295
0
LINE
8
0
10
154.220227
20
61.325295
11
153.415895
21
61.325295
0
LINE
8
0
10
153.415895
20
61.325295
11
153.415895
21
61.769794
0
LINE
8
0
10
153.415895
20
61.769794
11
154.230810
21
62.140210
0
LINE
8
0
10
154.230810
20
62.140210
11
154.601226
21
63.346709
0
LINE
8
0
10
154.601226
20
63.346709
11
155.151559
21
63.346709
0
LINE
8
0
10
155.151559
20
63.346709
11
155.151559
21
62.044961
0
LINE
8
0
10
155.151559
20
62.044961
11
156.791974
21
62.044961
0
LINE
8
0
10
156.791974
20
62.044961
11
156.791974
21
61.325295
0
LINE
8
0
10
156.791974
20
61.325295
11
155.151559
21
61.325295
0
LINE
8
0
10
155.151559
20
61.325295
11
155.151559
21
58.044466
0
LINE
8
0
10
155.151559
20
58.044466
11
155.212413
21
57.592029
0
LINE
8
0
10
155.212413
20
57.592029
11
155.394975
21
57.271883
0
LINE
8
0
10
155.394975
20
57.271883
11
156.040558
21
57.028467
0
LINE
8
0
10
156.040558
20
57.028467
11
156.040558
21
57.028467
0
LINE
8
0
10
158.898054
20
64.415624
11
158.898054
21
62.055544
0
LINE
8
0
10
158.898054
20
62.055544
11
158.845138
21
61.261795
0
LINE
8
0
10
158.845138
20
61.261795
11
158.908638
21
61.261795
0
LINE
8
0
10
158.908638
20
61.261795
11
159.649470
21
61.917961
0
LINE
8
0
10
159.649470
20
61.917961
11
160.676052
21
62.140210
0
LINE
8
0
10
160.676052
20
62.140210
11
161.575634
21
62.015856
0
LINE
8
0
10
161.575634
20
62.015856
11
162.221217
21
61.642794
0
LINE
8
0
10
162.221217
20
61.642794
11
162.618091
21
61.005149
0
LINE
8
0
10
162.618091
20
61.005149
11
162.750383
21
60.065880
0
LINE
8
0
10
162.750383
20
60.065880
11
162.750383
21
56.372301
0
LINE
8
0
10
162.750383
20
56.372301
11
161.829634
21
56.372301
0
LINE
8
0
10
161.829634
20
56.372301
11
161.829634
21
60.002380
0
LINE
8
0
10
161.829634
20
60.002380
11
161.750259
21
60.599676
0
LINE
8
0
10
161.750259
20
60.599676
11
161.512134
21
61.026316
0
LINE
8
0
10
161.512134
20
61.026316
11
161.115260
21
61.282300
0
LINE
8
0
10
161.115260
20
61.282300
11
160.559636
21
61.367628
0
LINE
8
0
10
160.559636
20
61.367628
11
159.755303
21
61.232691
0
LINE
8
0
10
159.755303
20
61.232691
11
159.247304
21
60.827879
0
LINE
8
0
10
159.247304
20
60.827879
11
158.985367
21
60.182296
0
LINE
8
0
10
158.985367
20
60.182296
11
158.898054
21
59.303881
0
LINE
8
0
10
158.898054
20
59.303881
11
158.898054
21
56.372301
0
LINE
8
0
10
158.898054
20
56.372301
11
157.966722
21
56.372301
0
LINE
8
0
10
157.966722
20
56.372301
11
157.966722
21
64.415624
0
LINE
8
0
10
157.966722
20
64.415624
11
158.898054
21
64.415624
0
LINE
8
0
10
166.369878
20
62.044961
11
167.364710
21
62.044961
0
LINE
8
0
10
167.364710
20
62.044961
11
168.592375
21
58.817048
0
LINE
8
0
10
168.592375
20
58.817048
11
168.878125
21
58.002132
0
LINE
8
0
10
168.878125
20
58.002132
11
169.068625
21
57.271883
0
LINE
8
0
10
169.068625
20
57.271883
11
169.110958
21
57.271883
0
LINE
8
0
10
169.110958
20
57.271883
11
169.312041
21
57.959799
0
LINE
8
0
10
169.312041
20
57.959799
11
169.597791
21
58.827631
0
LINE
8
0
10
169.597791
20
58.827631
11
170.751373
21
62.044961
0
LINE
8
0
10
170.751373
20
62.044961
11
171.756788
21
62.044961
0
LINE
8
0
10
171.756788
20
62.044961
11
169.312041
21
55.589135
0
LINE
8
0
10
169.312041
20
55.589135
11
168.965437
21
54.866824
0
LINE
8
0
10
168.965437
20
54.866824
11
168.539459
21
54.308554
0
LINE
8
0
10
168.539459
20
54.308554
11
167.983835
21
53.951367
0
LINE
8
0
10
167.983835
20
53.951367
11
167.248294
21
53.832304
0
LINE
8
0
10
167.248294
20
53.832304
11
166.803794
21
53.864054
0
LINE
8
0
10
166.803794
20
53.864054
11
166.475711
21
53.916971
0
LINE
8
0
10
166.475711
20
53.916971
11
166.475711
21
54.657803
0
LINE
8
0
10
166.475711
20
54.657803
11
166.750878
21
54.615470
0
LINE
8
0
10
166.750878
20
54.615470
11
167.100127
21
54.594303
0
LINE
8
0
10
167.100127
20
54.594303
11
167.539335
21
54.663095
0
LINE
8
0
10
167.539335
20
54.663095
11
167.883293
21
54.869470
0
LINE
8
0
10
167.883293
20
54.869470
11
168.359542
21
55.599719
0
LINE
8
0
10
168.359542
20
55.599719
11
168.655875
21
56.351134
0
LINE
8
0
10
168.655875
20
56.351134
11
166.369878
21
62.044961
0
LINE
8
0
10
174.847123
20
62.150794
11
175.519164
21
62.071419
0
LINE
8
0
10
175.519164
20
62.071419
11
176.095955
21
61.833294
0
LINE
8
0
10
176.095955
20
61.833294
11
176.561621
21
61.449649
0
LINE
8
0
10
176.561621
20
61.449649
11
176.900287
21
60.933712
0
LINE
8
0
10
176.900287
20
60.933712
11
177.114599
21
60.311942
0
LINE
8
0
10
177.114599
20
60.311942
11
177.186037
21
59.589630
0
LINE
8
0
10
177.186037
20
59.589630
11
177.186037
21
59.028714
0
LINE
8
0
10
177.186037
20
59.028714
11
173.301958
21
59.028714
0
LINE
8
0
10
173.301958
20
59.028714
11
173.434250
21
58.179403
0
LINE
8
0
10
173.434250
20
58.179403
11
173.788791
21
57.557633
0
LINE
8
0
10
173.788791
20
57.557633
11
174.357644
21
57.184571
0
LINE
8
0
10
174.357644
20
57.184571
11
175.111706
21
57.060217
0
LINE
8
0
10
175.111706
20
57.060217
11
176.064205
21
57.155467
0
LINE
8
0
10
176.064205
20
57.155467
11
176.932037
21
57.451800
0
LINE
8
0
10
176.932037
20
57.451800
11
176.932037
21
56.636884
0
LINE
8
0
10
176.932037
20
56.636884
11
176.074788
21
56.361718
0
LINE
8
0
10
176.074788
20
56.361718
11
175.069373
21
56.266468
0
LINE
8
0
10
175.069373
20
56.266468
11
174.304728
21
56.348489
0
LINE
8
0
10
174.304728
20
56.348489
11
173.640624
21
56.594551
0
LINE
8
0
10
173.640624
20
56.594551
11
173.092938
21
57.002009
0
LINE
8
0
10
173.092938
20
57.002009
11
172.677542
21
57.568216
0
LINE
8
0
10
172.677542
20
57.568216
11
172.423543
21
58.290528
0
LINE
8
0
10
172.423543
20
58.290528
11
172.338876
21
59.166298
0
LINE
8
0
10
172.338876
20
59.166298
11
172.415605
21
60.031484
0
LINE
8
0
10
172.415605
20
60.031484
11
172.645792
21
60.764379
0
LINE
8
0
10
172.645792
20
60.764379
11
173.024146
21
61.354399
0
LINE
8
0
10
173.024146
20
61.354399
11
173.524208
21
61.790961
0
LINE
8
0
10
173.524208
20
61.790961
11
174.140686
21
62.060836
0
LINE
8
0
10
174.140686
20
62.060836
11
174.847123
21
62.150794
0
LINE
8
0
10
174.847123
20
62.150794
11
174.847123
21
62.150794
0
LINE
8
0
10
174.836540
20
61.388795
11
174.238582
21
61.280316
0
LINE
8
0
10
174.238582
20
61.280316
11
173.778208
21
60.954879
0
LINE
8
0
10
173.778208
20
60.954879
11
173.473937
21
60.446879
0
LINE
8
0
10
173.473937
20
60.446879
11
173.323125
21
59.769547
0
LINE
8
0
10
173.323125
20
59.769547
11
176.212371
21
59.769547
0
LINE
8
0
10
176.212371
20
59.769547
11
176.122413
21
60.420421
0
LINE
8
0
10
176.122413
20
60.420421
11
175.873705
21
60.933712
0
LINE
8
0
10
175.873705
20
60.933712
11
175.450372
21
61.275024
0
LINE
8
0
10
175.450372
20
61.275024
11
174.836540
21
61.388795
0
LINE
8
0
10
174.836540
20
61.388795
11
174.836540
21
61.388795
0
LINE
8
0
10
180.519782
20
57.028467
11
180.953699
21
57.060217
0
LINE
8
0
10
180.953699
20
57.060217
11
181.313531
21
57.144883
0
LINE
8
0
10
181.313531
20
57.144883
11
181.313531
21
56.435801
0
LINE
8
0
10
181.313531
20
56.435801
11
180.890199
21
56.319384
0
LINE
8
0
10
180.890199
20
56.319384
11
180.361033
21
56.266468
0
LINE
8
0
10
180.361033
20
56.266468
11
179.535534
21
56.414634
0
LINE
8
0
10
179.535534
20
56.414634
11
178.932284
21
56.954384
0
LINE
8
0
10
178.932284
20
56.954384
11
178.699451
21
58.023299
0
LINE
8
0
10
178.699451
20
58.023299
11
178.699451
21
61.325295
0
LINE
8
0
10
178.699451
20
61.325295
11
177.895119
21
61.325295
0
LINE
8
0
10
177.895119
20
61.325295
11
177.895119
21
61.769794
0
LINE
8
0
10
177.895119
20
61.769794
11
178.710035
21
62.140210
0
LINE
8
0
10
178.710035
20
62.140210
11
179.080451
21
63.346709
0
LINE
8
0
10
179.080451
20
63.346709
11
179.630784
21
63.346709
0
LINE
8
0
10
179.630784
20
63.346709
11
179.630784
21
62.044961
0
LINE
8
0
10
179.630784
20
62.044961
11
181.271198
21
62.044961
0
LINE
8
0
10
181.271198
20
62.044961
11
181.271198
21
61.325295
0
LINE
8
0
10
181.271198
20
61.325295
11
179.630784
21
61.325295
0
LINE
8
0
10
179.630784
20
61.325295
11
179.630784
21
58.044466
0
LINE
8
0
10
179.630784
20
58.044466
11
179.691638
21
57.592029
0
LINE
8
0
10
179.691638
20
57.592029
11
179.874200
21
57.271883
0
LINE
8
0
10
179.874200
20
57.271883
11
180.519782
21
57.028467
0
LINE
8
0
10
180.519782
20
57.028467
11
180.519782
21
57.028467
 0 
ENDSEC
 0 
EOF