999
"DXF R12 Output" (www.mydxf.blogspot.com)
 0 
SECTION
 2 
HEADER
 9 
$ACADVER
 1 
AC1009
 9 
$EXTMIN
 10 
 0 
 20 
 0 
 9 
$EXTMAX
 10 
 8.5 
 20 
 11 
 0 
ENDSEC
 0 
SECTION
 2 
ENTITIES
0
LINE
8
Layer 1
10
0.793749
20
211.793749
11
-0.793749
21
210.206251
0
LINE
8
Layer 1
10
0.000000
20
212.322915
11
0.000000
21
209.677085
0
LINE
8
Layer 1
10
2.116664
20
209.941668
11
1.058332
21
208.883336
0
LINE
8
Layer 1
10
1.587498
20
210.470834
11
0.529166
21
209.412502
0
LINE
8
Layer 1
10
1.058332
20
211.000000
11
0.000000
21
209.941668
0
LINE
8
0
10
-0.263160
20
-0.262874
11
-0.263160
21
211.263450
0
LINE
8
0
10
-0.263160
20
211.263450
11
211.263160
21
211.263450
0
LINE
8
0
10
211.263160
20
211.263450
11
211.263160
21
-0.262874
0
LINE
8
0
10
211.263160
20
-0.262874
11
-0.263160
21
-0.262874
0
LINE
8
0
10
22.292930
20
99.485393
11
22.024312
21
100.487888
0
LINE
8
0
10
22.024312
20
100.487888
11
21.290435
21
101.221766
0
LINE
8
0
10
21.290435
20
101.221766
11
20.287940
21
101.490383
0
LINE
8
0
10
20.287940
20
101.490383
11
19.285445
21
101.221766
0
LINE
8
0
10
19.285445
20
101.221766
11
18.551568
21
100.487888
0
LINE
8
0
10
18.551568
20
100.487888
11
18.282950
21
99.485393
0
LINE
8
0
10
18.282950
20
99.485393
11
18.551568
21
98.482898
0
LINE
8
0
10
18.551568
20
98.482898
11
19.285445
21
97.749021
0
LINE
8
0
10
19.285445
20
97.749021
11
20.287940
21
97.480403
0
LINE
8
0
10
20.287940
20
97.480403
11
21.290435
21
97.749021
0
LINE
8
0
10
21.290435
20
97.749021
11
22.024312
21
98.482898
0
LINE
8
0
10
22.024312
20
98.482898
11
22.292930
21
99.485393
0
LINE
8
0
10
22.292930
20
99.485393
11
22.292930
21
99.485393
0
LINE
8
0
10
34.874241
20
148.858274
11
34.716679
21
149.638707
0
LINE
8
0
10
34.716679
20
149.638707
11
34.286993
21
150.276016
0
LINE
8
0
10
34.286993
20
150.276016
11
33.649683
21
150.705702
0
LINE
8
0
10
33.649683
20
150.705702
11
32.869251
21
150.863264
0
LINE
8
0
10
32.869251
20
150.863264
11
32.088818
21
150.705702
0
LINE
8
0
10
32.088818
20
150.705702
11
31.451508
21
150.276016
0
LINE
8
0
10
31.451508
20
150.276016
11
31.021823
21
149.638707
0
LINE
8
0
10
31.021823
20
149.638707
11
30.864260
21
148.858274
0
LINE
8
0
10
30.864260
20
148.858274
11
31.021823
21
148.077842
0
LINE
8
0
10
31.021823
20
148.077842
11
31.451508
21
147.440532
0
LINE
8
0
10
31.451508
20
147.440532
11
32.088818
21
147.010846
0
LINE
8
0
10
32.088818
20
147.010846
11
32.869251
21
146.853284
0
LINE
8
0
10
32.869251
20
146.853284
11
33.649683
21
147.010846
0
LINE
8
0
10
33.649683
20
147.010846
11
34.286993
21
147.440532
0
LINE
8
0
10
34.286993
20
147.440532
11
34.716679
21
148.077842
0
LINE
8
0
10
34.716679
20
148.077842
11
34.874241
21
148.858274
0
LINE
8
0
10
34.874241
20
148.858274
11
34.874241
21
148.858274
0
LINE
8
0
10
129.810499
20
148.858274
11
129.541881
21
149.860769
0
LINE
8
0
10
129.541881
20
149.860769
11
128.808004
21
150.594646
0
LINE
8
0
10
128.808004
20
150.594646
11
127.805509
21
150.863264
0
LINE
8
0
10
127.805509
20
150.863264
11
126.803015
21
150.594646
0
LINE
8
0
10
126.803015
20
150.594646
11
126.069138
21
149.860769
0
LINE
8
0
10
126.069138
20
149.860769
11
125.800520
21
148.858274
0
LINE
8
0
10
125.800520
20
148.858274
11
126.069138
21
147.855780
0
LINE
8
0
10
126.069138
20
147.855780
11
126.803015
21
147.121902
0
LINE
8
0
10
126.803015
20
147.121902
11
127.805509
21
146.853285
0
LINE
8
0
10
127.805509
20
146.853285
11
128.808004
21
147.121902
0
LINE
8
0
10
128.808004
20
147.121902
11
129.541881
21
147.855780
0
LINE
8
0
10
129.541881
20
147.855780
11
129.810499
21
148.858274
0
LINE
8
0
10
129.810499
20
148.858274
11
129.810499
21
148.858274
0
LINE
8
0
10
119.635177
20
192.717423
11
119.487437
21
193.268795
0
LINE
8
0
10
119.487437
20
193.268795
11
119.083805
21
193.672428
0
LINE
8
0
10
119.083805
20
193.672428
11
118.532433
21
193.820167
0
LINE
8
0
10
118.532433
20
193.820167
11
117.981060
21
193.672428
0
LINE
8
0
10
117.981060
20
193.672428
11
117.577428
21
193.268795
0
LINE
8
0
10
117.577428
20
193.268795
11
117.429688
21
192.717423
0
LINE
8
0
10
117.429688
20
192.717423
11
117.577428
21
192.166051
0
LINE
8
0
10
117.577428
20
192.166051
11
117.981060
21
191.762418
0
LINE
8
0
10
117.981060
20
191.762418
11
118.532433
21
191.614679
0
LINE
8
0
10
118.532433
20
191.614679
11
119.083805
21
191.762418
0
LINE
8
0
10
119.083805
20
191.762418
11
119.487437
21
192.166051
0
LINE
8
0
10
119.487437
20
192.166051
11
119.635177
21
192.717423
0
LINE
8
0
10
119.635177
20
192.717423
11
119.635177
21
192.717423
0
LINE
8
0
10
149.760145
20
104.497892
11
149.495695
21
105.135529
0
LINE
8
0
10
149.495695
20
105.135529
11
148.857900
21
105.399602
0
LINE
8
0
10
148.857900
20
105.399602
11
148.220106
21
105.135529
0
LINE
8
0
10
148.220106
20
105.135529
11
147.955655
21
104.497892
0
LINE
8
0
10
147.955655
20
104.497892
11
148.220106
21
103.860254
0
LINE
8
0
10
148.220106
20
103.860254
11
148.857900
21
103.596182
0
LINE
8
0
10
148.857900
20
103.596182
11
149.495695
21
103.860254
0
LINE
8
0
10
149.495695
20
103.860254
11
149.760145
21
104.497892
0
LINE
8
0
10
149.760145
20
104.497892
11
149.760145
21
104.497892
0
LINE
8
0
10
173.820019
20
104.497892
11
173.555568
21
105.135529
0
LINE
8
0
10
173.555568
20
105.135529
11
172.917774
21
105.399602
0
LINE
8
0
10
172.917774
20
105.399602
11
172.279979
21
105.135529
0
LINE
8
0
10
172.279979
20
105.135529
11
172.015529
21
104.497892
0
LINE
8
0
10
172.015529
20
104.497892
11
172.279979
21
103.860254
0
LINE
8
0
10
172.279979
20
103.860254
11
172.917774
21
103.596182
0
LINE
8
0
10
172.917774
20
103.596182
11
173.555568
21
103.860254
0
LINE
8
0
10
173.555568
20
103.860254
11
173.820019
21
104.497892
0
LINE
8
0
10
173.820019
20
104.497892
11
173.820019
21
104.497892
0
LINE
8
0
10
173.820019
20
190.712434
11
173.555568
21
191.350072
0
LINE
8
0
10
173.555568
20
191.350072
11
172.917774
21
191.614144
0
LINE
8
0
10
172.917774
20
191.614144
11
172.279979
21
191.350072
0
LINE
8
0
10
172.279979
20
191.350072
11
172.015529
21
190.712434
0
LINE
8
0
10
172.015529
20
190.712434
11
172.279979
21
190.074796
0
LINE
8
0
10
172.279979
20
190.074796
11
172.917774
21
189.810724
0
LINE
8
0
10
172.917774
20
189.810724
11
173.555568
21
190.074796
0
LINE
8
0
10
173.555568
20
190.074796
11
173.820019
21
190.712434
0
LINE
8
0
10
173.820019
20
190.712434
11
173.820019
21
190.712434
0
LINE
8
0
10
149.760145
20
190.712434
11
149.495695
21
191.350072
0
LINE
8
0
10
149.495695
20
191.350072
11
148.857900
21
191.614144
0
LINE
8
0
10
148.857900
20
191.614144
11
148.220106
21
191.350072
0
LINE
8
0
10
148.220106
20
191.350072
11
147.955655
21
190.712434
0
LINE
8
0
10
147.955655
20
190.712434
11
148.220106
21
190.074796
0
LINE
8
0
10
148.220106
20
190.074796
11
148.857900
21
189.810724
0
LINE
8
0
10
148.857900
20
189.810724
11
149.495695
21
190.074796
0
LINE
8
0
10
149.495695
20
190.074796
11
149.760145
21
190.712434
0
LINE
8
0
10
149.760145
20
190.712434
11
149.760145
21
190.712434
0
LINE
8
0
10
111.414719
20
25.300791
11
111.150381
21
25.938634
0
LINE
8
0
10
111.150381
20
25.938634
11
110.512474
21
26.202818
0
LINE
8
0
10
110.512474
20
26.202818
11
109.874567
21
25.938634
0
LINE
8
0
10
109.874567
20
25.938634
11
109.610229
21
25.300791
0
LINE
8
0
10
109.610229
20
25.300791
11
109.874567
21
24.662949
0
LINE
8
0
10
109.874567
20
24.662949
11
110.512474
21
24.398765
0
LINE
8
0
10
110.512474
20
24.398765
11
111.150381
21
24.662949
0
LINE
8
0
10
111.150381
20
24.662949
11
111.414719
21
25.300791
0
LINE
8
0
10
111.414719
20
25.300791
11
111.414719
21
25.300791
 0 
ENDSEC
 0 
EOF