<?xml version="1.0" encoding="UTF-8" standalone="no"?>
<svg
   viewBox="0 0 797.48001 797.48005"
   width="210.99992mm"
   height="210.99992mm"
   version="1.1"
   id="svg22"
   sodipodi:docname="bottom board.svg"
   inkscape:version="1.3 (0e150ed6c4, 2023-07-21)"
   xmlns:inkscape="http://www.inkscape.org/namespaces/inkscape"
   xmlns:sodipodi="http://sodipodi.sourceforge.net/DTD/sodipodi-0.dtd"
   xmlns="http://www.w3.org/2000/svg"
   xmlns:svg="http://www.w3.org/2000/svg">
  <sodipodi:namedview
     id="namedview22"
     pagecolor="#ffffff"
     bordercolor="#666666"
     borderopacity="1.0"
     inkscape:showpageshadow="2"
     inkscape:pageopacity="0.0"
     inkscape:pagecheckerboard="0"
     inkscape:deskcolor="#d1d1d1"
     inkscape:document-units="mm"
     inkscape:zoom="0.75107333"
     inkscape:cx="316.21413"
     inkscape:cy="515.92832"
     inkscape:window-width="1876"
     inkscape:window-height="915"
     inkscape:window-x="-8"
     inkscape:window-y="-8"
     inkscape:window-maximized="1"
     inkscape:current-layer="g22" />
  <desc
     id="desc1">bottom board.dxf - scale = 1.000000, origin = (0.000000, 0.000000), method = manual</desc>
  <defs
     id="defs4">
    <marker
       id="DistanceX"
       orient="auto"
       refX="0"
       refY="0"
       style="overflow:visible">
      <path
         d="M 3,-3 -3,3 M 0,-5 V 5"
         style="stroke:#000000;stroke-width:0.5"
         id="path1" />
    </marker>
    <pattern
       id="Hatch"
       patternUnits="userSpaceOnUse"
       width="8"
       height="8"
       x="0"
       y="0">
      <path
         d="M8 4 l-4,4"
         stroke="#000000"
         stroke-width="0.25"
         linecap="square"
         id="path2" />
      <path
         d="M6 2 l-4,4"
         stroke="#000000"
         stroke-width="0.25"
         linecap="square"
         id="path3" />
      <path
         d="M4 0 l-4,4"
         stroke="#000000"
         stroke-width="0.25"
         linecap="square"
         id="path4" />
    </pattern>
    <symbol
       id="*MODEL_SPACE" />
    <symbol
       id="*PAPER_SPACE" />
  </defs>
  <g
     inkscape:groupmode="layer"
     inkscape:label="0"
     id="g22"
     transform="translate(398.74,-723.78)">
    <path
       d="m 313.70079,1099.8431 a 7.5590555,7.5590555 0 0 0 15.11811,0 7.5590555,7.5590555 0 0 0 -15.11811,0 z"
       style="fill:none;stroke:#ff0000;stroke-width:1.88976;stroke-dasharray:none"
       id="path13" />
    <path
       d="m 266.26772,1285.9849 a 7.559055,7.559055 0 0 0 15.11811,0 7.559055,7.559055 0 0 0 -15.11811,0 z"
       style="fill:none;stroke:#ff0000;stroke-width:1.88976;stroke-dasharray:none"
       id="path14" />
    <path
       d="m -91.653543,1285.9849 a 7.559055,7.559055 0 0 0 15.11811,0 7.559055,7.559055 0 0 0 -15.11811,0 z"
       style="fill:none;stroke:#ff0000;stroke-width:1.88976;stroke-dasharray:none"
       id="path15" />
    <path
       d="m -53.291339,1451.3392 a 4.1574805,4.1574805 0 0 0 8.314961,0 4.1574805,4.1574805 0 0 0 -8.314961,0 z"
       style="fill:none;stroke:#ff0000;stroke-width:1.88976;stroke-dasharray:none"
       id="path16" />
    <path
       d="m -166.86614,1118.7408 a 3.401575,3.401575 0 0 0 6.80315,0 3.401575,3.401575 0 0 0 -6.80315,0 z"
       style="fill:none;stroke:#ff0000;stroke-width:1.88976;stroke-dasharray:none"
       id="path17" />
    <path
       d="m -257.5748,1118.7408 a 3.401575,3.401575 0 0 0 6.80315,0 3.401575,3.401575 0 0 0 -6.80315,0 z"
       style="fill:none;stroke:#ff0000;stroke-width:1.88976;stroke-dasharray:none"
       id="path18" />
    <path
       d="m -257.5748,1443.7802 a 3.401575,3.401575 0 0 0 6.80315,0 3.401575,3.401575 0 0 0 -6.80315,0 z"
       style="fill:none;stroke:#ff0000;stroke-width:1.88976;stroke-dasharray:none"
       id="path19" />
    <path
       d="m -166.86614,1443.7802 a 3.401575,3.401575 0 0 0 6.80315,0 3.401575,3.401575 0 0 0 -6.80315,0 z"
       style="fill:none;stroke:#ff0000;stroke-width:1.88976;stroke-dasharray:none"
       id="path20" />
    <path
       d="m -22.299213,820.1581 a 3.401575,3.401575 0 0 0 6.80315,0 3.401575,3.401575 0 0 0 -6.80315,0 z"
       style="fill:none;stroke:#ff0000;stroke-width:1.88976;stroke-dasharray:none"
       id="path22" />
  </g>
</svg>
