<?xml version="1.0" encoding="UTF-8" standalone="no"?>
<!-- Created with Inkscape (http://www.inkscape.org/) -->

<svg
   width="120mm"
   height="30mm"
   viewBox="0 0 120 30"
   version="1.1"
   id="svg58648"
   inkscape:version="1.3 (0e150ed6c4, 2023-07-21)"
   sodipodi:docname="keys_try2_bottom.svg"
   xmlns:inkscape="http://www.inkscape.org/namespaces/inkscape"
   xmlns:sodipodi="http://sodipodi.sourceforge.net/DTD/sodipodi-0.dtd"
   xmlns:xlink="http://www.w3.org/1999/xlink"
   xmlns="http://www.w3.org/2000/svg"
   xmlns:svg="http://www.w3.org/2000/svg">
  <sodipodi:namedview
     id="namedview58650"
     pagecolor="#ffffff"
     bordercolor="#000000"
     borderopacity="0.25"
     inkscape:showpageshadow="2"
     inkscape:pageopacity="0.0"
     inkscape:pagecheckerboard="0"
     inkscape:deskcolor="#d1d1d1"
     inkscape:document-units="mm"
     showgrid="true"
     showguides="true"
     inkscape:zoom="1.6996613"
     inkscape:cx="232.10507"
     inkscape:cy="12.061227"
     inkscape:window-width="1920"
     inkscape:window-height="1027"
     inkscape:window-x="-8"
     inkscape:window-y="-8"
     inkscape:window-maximized="1"
     inkscape:current-layer="layer1">
    <inkscape:grid
       type="xygrid"
       id="grid60584"
       units="mm"
       spacingx="0.99999999"
       spacingy="0.99999999"
       dotted="true"
       originx="0"
       originy="0"
       visible="true" />
    <sodipodi:guide
       position="0.99999999,15"
       orientation="0,-1"
       id="guide60949"
       inkscape:locked="false" />
    <sodipodi:guide
       position="60,36"
       orientation="1,0"
       id="guide60951"
       inkscape:locked="false" />
    <sodipodi:guide
       position="5,36"
       orientation="1,0"
       id="guide149091"
       inkscape:locked="false" />
    <sodipodi:guide
       position="-4,25"
       orientation="0,-1"
       id="guide149093"
       inkscape:locked="false" />
    <sodipodi:guide
       position="-3,5.0000003"
       orientation="0,-1"
       id="guide149095"
       inkscape:locked="false" />
    <sodipodi:guide
       position="115,-2.9999997"
       orientation="1,0"
       id="guide149097"
       inkscape:locked="false" />
  </sodipodi:namedview>
  <defs
     id="defs58645">
    <radialGradient
       inkscape:collect="always"
       xlink:href="#linearGradient127712"
       id="radialGradient127714"
       cx="5"
       cy="5"
       fx="5"
       fy="5"
       r="2.7499995"
       gradientUnits="userSpaceOnUse"
       gradientTransform="matrix(1.1000671,0,0,1.1000671,-0.50028428,-0.5002373)" />
    <linearGradient
       inkscape:collect="always"
       id="linearGradient127712">
      <stop
         style="stop-color:#000000;stop-opacity:1;"
         offset="0.5"
         id="stop127708" />
      <stop
         style="stop-color:#cccccc;stop-opacity:1;"
         offset="1"
         id="stop127710" />
    </linearGradient>
    <radialGradient
       inkscape:collect="always"
       xlink:href="#linearGradient127712"
       id="radialGradient127714-6"
       cx="5"
       cy="5"
       fx="5"
       fy="5"
       r="2.7499995"
       gradientUnits="userSpaceOnUse"
       gradientTransform="matrix(1.1000671,0,0,1.1000671,-0.50028441,19.499763)" />
    <radialGradient
       inkscape:collect="always"
       xlink:href="#linearGradient127712"
       id="radialGradient127714-62"
       cx="5"
       cy="5"
       fx="5"
       fy="5"
       r="2.7499995"
       gradientUnits="userSpaceOnUse"
       gradientTransform="matrix(1.1000671,0,0,1.1000671,109.49972,19.499763)" />
    <radialGradient
       inkscape:collect="always"
       xlink:href="#linearGradient127712"
       id="radialGradient127714-0"
       cx="5"
       cy="5"
       fx="5"
       fy="5"
       r="2.7499995"
       gradientUnits="userSpaceOnUse"
       gradientTransform="matrix(1.1000671,0,0,1.1000671,109.49972,-0.50023735)" />
  </defs>
  <g
     inkscape:label="Layer 1"
     inkscape:groupmode="layer"
     id="layer1">
    <rect
       style="fill:none;stroke:#ff0000;stroke-width:0.507463"
       id="rect39651-0-9-3-6-0-3-9"
       width="13.6"
       height="13.9"
       x="72.250015"
       y="8.0499992" />
    <rect
       style="fill:none;stroke:#ff0000;stroke-width:0.507463"
       id="rect39651-0-9-3-6-0-3"
       width="13.6"
       height="13.9"
       x="91.300011"
       y="8.0499992" />
    <rect
       style="fill:none;stroke:#ff0000;stroke-width:0.507463"
       id="rect39651-0-9-3-6-0-3-4"
       width="13.6"
       height="13.9"
       x="53.200001"
       y="8.0500002" />
    <rect
       style="fill:none;stroke:#ff0000;stroke-width:0.507463"
       id="rect39651-0-9-3-6-0-3-7"
       width="13.6"
       height="13.9"
       x="34.370262"
       y="8.0499992" />
    <rect
       style="fill:none;stroke:#ff0000;stroke-width:0.507463"
       id="rect39651-0-9-3-6-0-3-8"
       width="13.6"
       height="13.9"
       x="15.099998"
       y="8.0499992" />
    <rect
       style="fill:none;stroke:#ff0000;stroke-width:0.499999"
       id="rect86623"
       width="120"
       height="30.000002"
       x="0"
       y="0" />
    <path
       id="path127651"
       style="fill:url(#radialGradient127714);fill-opacity:1;stroke:none;stroke-width:0.550032"
       d="m 5.0002583,2.2500388 c -1.5189637,-6.43e-5 -2.750284,1.231256 -2.7502197,2.7502197 2.497e-4,1.5187416 1.231478,2.7497673 2.7502197,2.749703 1.5185196,-2.497e-4 2.7494533,-1.2311834 2.749703,-2.749703 6.43e-5,-1.5187417 -1.2309614,-2.74997 -2.749703,-2.7502197 z m 0,1.4298868 A 1.3200006,1.3200008 0 0 1 6.3200744,5.0002585 1.3200006,1.3200008 0 0 1 5.0002583,6.3200746 1.3200006,1.3200008 0 0 1 3.6799254,5.0002585 1.3200006,1.3200008 0 0 1 5.0002583,3.6799256 Z" />
    <ellipse
       style="fill:none;stroke:#ff0000;stroke-width:0.559999"
       id="path114802"
       cx="5"
       cy="5"
       rx="1.1200004"
       ry="1.1200005" />
    <path
       id="path127651-3"
       style="fill:url(#radialGradient127714-6);fill-opacity:1;stroke:none;stroke-width:0.550032"
       d="m 5.0002582,22.250039 c -1.5189637,-6.4e-5 -2.750284,1.231256 -2.7502197,2.75022 2.497e-4,1.518741 1.231478,2.749767 2.7502197,2.749703 1.5185196,-2.5e-4 2.7494533,-1.231184 2.749703,-2.749703 6.43e-5,-1.518742 -1.2309614,-2.74997 -2.749703,-2.75022 z m 0,1.429887 a 1.3200006,1.3200008 0 0 1 1.3198161,1.320333 1.3200006,1.3200008 0 0 1 -1.3198161,1.319816 1.3200006,1.3200008 0 0 1 -1.3203329,-1.319816 1.3200006,1.3200008 0 0 1 1.3203329,-1.320333 z" />
    <ellipse
       style="fill:none;stroke:#ff0000;stroke-width:0.559999"
       id="path114802-5"
       cx="5"
       cy="25"
       rx="1.1200004"
       ry="1.1200005" />
    <path
       id="path127651-2"
       style="fill:url(#radialGradient127714-62);fill-opacity:1;stroke:none;stroke-width:0.550032"
       d="m 115.00026,22.250039 c -1.51896,-6.4e-5 -2.75028,1.231256 -2.75022,2.75022 2.5e-4,1.518741 1.23148,2.749767 2.75022,2.749703 1.51852,-2.5e-4 2.74945,-1.231184 2.7497,-2.749703 7e-5,-1.518742 -1.23096,-2.74997 -2.7497,-2.75022 z m 0,1.429887 a 1.3200006,1.3200008 0 0 1 1.31982,1.320333 1.3200006,1.3200008 0 0 1 -1.31982,1.319816 1.3200006,1.3200008 0 0 1 -1.32033,-1.319816 1.3200006,1.3200008 0 0 1 1.32033,-1.320333 z" />
    <ellipse
       style="fill:none;stroke:#ff0000;stroke-width:0.559999"
       id="path114802-7"
       cx="115"
       cy="25"
       rx="1.1200004"
       ry="1.1200005" />
    <path
       id="path127651-6"
       style="fill:url(#radialGradient127714-0);fill-opacity:1;stroke:none;stroke-width:0.550032"
       d="m 115.00026,2.2500388 c -1.51896,-6.43e-5 -2.75028,1.231256 -2.75022,2.7502197 2.5e-4,1.5187416 1.23148,2.7497673 2.75022,2.749703 1.51852,-2.497e-4 2.74945,-1.2311834 2.7497,-2.749703 7e-5,-1.5187417 -1.23096,-2.74997 -2.7497,-2.7502197 z m 0,1.4298868 a 1.3200006,1.3200008 0 0 1 1.31982,1.3203329 1.3200006,1.3200008 0 0 1 -1.31982,1.3198161 1.3200006,1.3200008 0 0 1 -1.32033,-1.3198161 1.3200006,1.3200008 0 0 1 1.32033,-1.3203329 z" />
    <ellipse
       style="fill:none;stroke:#ff0000;stroke-width:0.559999"
       id="path114802-0"
       cx="115"
       cy="5"
       rx="1.1200004"
       ry="1.1200005" />
  </g>
</svg>
