<?xml version="1.0" encoding="UTF-8" standalone="no"?>
<svg
   viewBox="0 0 612.28345 555.59057"
   width="162mm"
   height="147mm"
   version="1.1"
   id="svg14"
   sodipodi:docname="layer_0_laser_try0.svg"
   inkscape:version="1.3.1 (91b66b0, 2023-11-16)"
   xmlns:inkscape="http://www.inkscape.org/namespaces/inkscape"
   xmlns:sodipodi="http://sodipodi.sourceforge.net/DTD/sodipodi-0.dtd"
   xmlns="http://www.w3.org/2000/svg"
   xmlns:svg="http://www.w3.org/2000/svg">
  <sodipodi:namedview
     id="namedview14"
     pagecolor="#ffffff"
     bordercolor="#000000"
     borderopacity="0.25"
     inkscape:showpageshadow="2"
     inkscape:pageopacity="0.0"
     inkscape:pagecheckerboard="0"
     inkscape:deskcolor="#d1d1d1"
     inkscape:document-units="mm"
     inkscape:zoom="1.2291507"
     inkscape:cx="369.36072"
     inkscape:cy="372.20822"
     inkscape:window-width="1920"
     inkscape:window-height="1007"
     inkscape:window-x="0"
     inkscape:window-y="0"
     inkscape:window-maximized="1"
     inkscape:current-layer="g14" />
  <desc
     id="desc1">layer_0_laser_try0.dxf - scale = 1.000000, origin = (0.000000, 0.000000), method = manual</desc>
  <defs
     id="defs4">
    <marker
       id="DistanceX"
       orient="auto"
       refX="0"
       refY="0"
       style="overflow:visible">
      <path
         d="M 3,-3 -3,3 M 0,-5 V 5"
         style="stroke:#000000;stroke-width:0.5"
         id="path1" />
    </marker>
    <pattern
       id="Hatch"
       patternUnits="userSpaceOnUse"
       width="8"
       height="8"
       x="0"
       y="0">
      <path
         d="M8 4 l-4,4"
         stroke="#000000"
         stroke-width="0.25"
         linecap="square"
         id="path2" />
      <path
         d="M6 2 l-4,4"
         stroke="#000000"
         stroke-width="0.25"
         linecap="square"
         id="path3" />
      <path
         d="M4 0 l-4,4"
         stroke="#000000"
         stroke-width="0.25"
         linecap="square"
         id="path4" />
    </pattern>
    <symbol
       id="*MODEL_SPACE" />
    <symbol
       id="*PAPER_SPACE" />
  </defs>
  <g
     inkscape:groupmode="layer"
     inkscape:label="0"
     id="g14"
     transform="translate(292.23307,-965.66929)">
    <path
       d="m 312.34016,1213.0016 a 3.401575,3.401575 0 0 0 -6.80315,0 3.401575,3.401575 0 0 0 6.80315,0 z"
       style="fill:none;stroke:#ff0000"
       id="path5" />
    <path
       d="m 153.14646,1213.0016 a 3.401575,3.401575 0 0 0 -6.80315,0 3.401575,3.401575 0 0 0 6.80315,0 z"
       style="fill:none;stroke:#ff0000"
       id="path6" />
    <path
       d="m -127.93701,1475.9055 a 3.401575,3.401575 0 0 0 -6.80315,0 3.401575,3.401575 0 0 0 6.80315,0 z"
       style="fill:none;stroke:#ff0000"
       id="path7" />
    <path
       d="m -127.93701,1086.6142 a 3.401575,3.401575 0 0 0 -6.80315,0 3.401575,3.401575 0 0 0 6.80315,0 z"
       style="fill:none;stroke:#ff0000"
       id="path8" />
    <path
       d="m -275.60315,1086.6142 a 3.401575,3.401575 0 0 0 -6.80315,0 3.401575,3.401575 0 0 0 6.80315,0 z"
       style="fill:none;stroke:#ff0000"
       id="path9" />
    <path
       d="m -90.406299,1281.2598 a 3.401575,3.401575 0 0 0 -6.80315,0 3.401575,3.401575 0 0 0 6.80315,0 z"
       style="fill:none;stroke:#ff0000"
       id="path10" />
    <path
       d="m -275.60315,1475.9055 a 3.401575,3.401575 0 0 0 -6.80315,0 3.401575,3.401575 0 0 0 6.80315,0 z"
       style="fill:none;stroke:#ff0000"
       id="path11" />
    <path
       d="m 153.14646,1451.5654 a 3.401575,3.401575 0 0 0 -6.80315,0 3.401575,3.401575 0 0 0 6.80315,0 z"
       style="fill:none;stroke:#ff0000"
       id="path12" />
    <path
       d="m 312.34016,1451.5654 a 3.401575,3.401575 0 0 0 -6.80315,0 3.401575,3.401575 0 0 0 6.80315,0 z"
       style="fill:none;stroke:#ff0000"
       id="path13" />
    <path
       id="rect14"
       style="fill:none;stroke:#ff0000"
       d="m -292.23306,1099.8425 h 147.66613 v 362.8347 h -147.66613"
       sodipodi:nodetypes="cccc" />
  </g>
</svg>
