<?xml version="1.0" encoding="UTF-8" standalone="no"?>
<svg
   viewBox="0 0 612.28343 555.59059"
   width="612.28345"
   height="555.59058"
   version="1.1"
   id="svg10"
   sodipodi:docname="layer_1_laser.svg"
   inkscape:version="1.3 (0e150ed6c4, 2023-07-21)"
   xmlns:inkscape="http://www.inkscape.org/namespaces/inkscape"
   xmlns:sodipodi="http://sodipodi.sourceforge.net/DTD/sodipodi-0.dtd"
   xmlns="http://www.w3.org/2000/svg"
   xmlns:svg="http://www.w3.org/2000/svg">
  <sodipodi:namedview
     id="namedview10"
     pagecolor="#ffffff"
     bordercolor="#666666"
     borderopacity="1.0"
     inkscape:showpageshadow="2"
     inkscape:pageopacity="0.0"
     inkscape:pagecheckerboard="0"
     inkscape:deskcolor="#d1d1d1"
     inkscape:zoom="0.64052331"
     inkscape:cx="689.28015"
     inkscape:cy="133.4846"
     inkscape:window-width="1876"
     inkscape:window-height="915"
     inkscape:window-x="-8"
     inkscape:window-y="-8"
     inkscape:window-maximized="1"
     inkscape:current-layer="g10" />
  <desc
     id="desc1">layer_1_laser.dxf - scale = 1.000000, origin = (0.000000, 0.000000), method = manual</desc>
  <defs
     id="defs4">
    <marker
       id="DistanceX"
       orient="auto"
       refX="0"
       refY="0"
       style="overflow:visible">
      <path
         d="M 3,-3 -3,3 M 0,-5 V 5"
         style="stroke:#000000;stroke-width:0.5"
         id="path1" />
    </marker>
    <pattern
       id="Hatch"
       patternUnits="userSpaceOnUse"
       width="8"
       height="8"
       x="0"
       y="0">
      <path
         d="M8 4 l-4,4"
         stroke="#000000"
         stroke-width="0.25"
         linecap="square"
         id="path2" />
      <path
         d="M6 2 l-4,4"
         stroke="#000000"
         stroke-width="0.25"
         linecap="square"
         id="path3" />
      <path
         d="M4 0 l-4,4"
         stroke="#000000"
         stroke-width="0.25"
         linecap="square"
         id="path4" />
    </pattern>
    <symbol
       id="*MODEL_SPACE" />
    <symbol
       id="*PAPER_SPACE" />
  </defs>
  <g
     inkscape:groupmode="layer"
     inkscape:label="0"
     id="g10"
     transform="translate(292.23307,-965.66929)">
    <path
       d="m -77.404724,1351.4079 a 3.401575,3.401575 0 0 0 -6.80315,0 3.401575,3.401575 0 0 0 6.80315,0 z"
       style="fill:none;stroke:#ff0000"
       id="path5" />
    <path
       d="m 112.0252,1052.3717 a 3.401575,3.401575 0 0 0 -6.80315,0 3.401575,3.401575 0 0 0 6.80315,0 z"
       style="fill:none;stroke:#ff0000"
       id="path6" />
    <path
       d="m 112.0252,1351.4079 a 3.401575,3.401575 0 0 0 -6.80315,0 3.401575,3.401575 0 0 0 6.80315,0 z"
       style="fill:none;stroke:#ff0000"
       id="path7" />
    <path
       d="m -77.404724,1052.3717 a 3.401575,3.401575 0 0 0 -6.80315,0 3.401575,3.401575 0 0 0 6.80315,0 z"
       style="fill:none;stroke:#ff0000"
       id="path8" />
    <path
       d="m -69.240945,1099.8425 v 30.2362 h -11.338583 v -30.2362 z"
       style="fill:none;stroke:#ff0000"
       id="path9" />
  </g>
</svg>
