<?xml version="1.0" encoding="UTF-8" standalone="no"?>
<svg
   viewBox="0 0 612.28343 555.59053"
   width="612.28345"
   height="555.59052"
   version="1.1"
   id="svg18"
   sodipodi:docname="layer_0_laser_layer1.svg"
   inkscape:version="1.3 (0e150ed6c4, 2023-07-21)"
   xmlns:inkscape="http://www.inkscape.org/namespaces/inkscape"
   xmlns:sodipodi="http://sodipodi.sourceforge.net/DTD/sodipodi-0.dtd"
   xmlns="http://www.w3.org/2000/svg"
   xmlns:svg="http://www.w3.org/2000/svg">
  <sodipodi:namedview
     id="namedview18"
     pagecolor="#ffffff"
     bordercolor="#666666"
     borderopacity="1.0"
     inkscape:showpageshadow="2"
     inkscape:pageopacity="0.0"
     inkscape:pagecheckerboard="0"
     inkscape:deskcolor="#d1d1d1"
     inkscape:zoom="1.0469407"
     inkscape:cx="502.89381"
     inkscape:cy="272.6993"
     inkscape:window-width="1920"
     inkscape:window-height="1027"
     inkscape:window-x="-8"
     inkscape:window-y="-8"
     inkscape:window-maximized="1"
     inkscape:current-layer="g18"
     inkscape:document-units="mm" />
  <desc
     id="desc1">layer_0_laser_layer1.dxf - scale = 1.000000, origin = (0.000000, 0.000000), method = manual</desc>
  <defs
     id="defs4">
    <marker
       id="DistanceX"
       orient="auto"
       refX="0"
       refY="0"
       style="overflow:visible">
      <path
         d="M 3,-3 -3,3 M 0,-5 V 5"
         style="stroke:#000000;stroke-width:0.5"
         id="path1" />
    </marker>
    <pattern
       id="Hatch"
       patternUnits="userSpaceOnUse"
       width="8"
       height="8"
       x="0"
       y="0">
      <path
         d="M8 4 l-4,4"
         stroke="#000000"
         stroke-width="0.25"
         linecap="square"
         id="path2" />
      <path
         d="M6 2 l-4,4"
         stroke="#000000"
         stroke-width="0.25"
         linecap="square"
         id="path3" />
      <path
         d="M4 0 l-4,4"
         stroke="#000000"
         stroke-width="0.25"
         linecap="square"
         id="path4" />
    </pattern>
    <symbol
       id="*MODEL_SPACE" />
    <symbol
       id="*PAPER_SPACE" />
  </defs>
  <g
     inkscape:groupmode="layer"
     inkscape:label="0"
     id="g18"
     transform="translate(-90.708678,-283.46457)">
    <path
       d="m 500.6778,493.94268 a 3.401575,3.401575 0 0 0 -6.80315,0 3.401575,3.401575 0 0 0 6.80315,0 z"
       style="fill:none;stroke:#ff0000"
       id="path15" />
    <path
       d="m 404.6778,311.54268 a 3.401575,3.401575 0 0 0 -6.80315,0 3.401575,3.401575 0 0 0 6.80315,0 z"
       style="fill:none;stroke:#ff0000"
       id="path16" />
    <path
       d="m 404.6778,493.94268 a 3.401575,3.401575 0 0 0 -6.80315,0 3.401575,3.401575 0 0 0 6.80315,0 z"
       style="fill:none;stroke:#ff0000"
       id="path17" />
    <path
       d="m 500.6778,311.54268 a 3.401575,3.401575 0 0 0 -6.80315,0 3.401575,3.401575 0 0 0 6.80315,0 z"
       style="fill:none;stroke:#ff0000"
       id="path18" />
  </g>
</svg>
