0
SECTION
2
HEADER
9
$INSUNITS
70
4
9
$ACADVER
1
AC1014
9
$HANDSEED
5
FFFF
0
ENDSEC
0
SECTION
2
TABLES
0
TABLE
2
VPORT
5
8
100
AcDbSymbolTable
0
ENDTAB
0
TABLE
2
LTYPE
5
5
100
AcDbSymbolTable
0
LTYPE
5
14
100
AcDbSymbolTableRecord
100
AcDbLinetypeTableRecord
2
BYBLOCK
70
0
0
LTYPE
5
15
100
AcDbSymbolTableRecord
100
AcDbLinetypeTableRecord
2
BYLAYER
70
0
0
ENDTAB
0
TABLE
2
LAYER
5
2
100
AcDbSymbolTable
70
2
0
LAYER
5
50
100
AcDbSymbolTableRecord
100
AcDbLayerTableRecord
2
0
70
0
6
CONTINUOUS
0
ENDTAB
0
TABLE
2
STYLE
5
3
100
AcDbSymbolTable
70
1
0
STYLE
5
11
100
AcDbSymbolTableRecord
100
AcDbTextStyleTableRecord
2
STANDARD
70
0
0
ENDTAB
0
TABLE
2
VIEW
5
6
100
AcDbSymbolTable
70
0
0
ENDTAB
0
TABLE
2
UCS
5
7
100
AcDbSymbolTable
70
0
0
ENDTAB
0
TABLE
2
APPID
5
9
100
AcDbSymbolTable
70
2
0
APPID
5
12
100
AcDbSymbolTableRecord
100
AcDbRegAppTableRecord
2
ACAD
70
0
0
ENDTAB
0
TABLE
2
DIMSTYLE
5
A
100
AcDbSymbolTable
70
1
0
ENDTAB
0
TABLE
2
BLOCK_RECORD
5
1
100
AcDbSymbolTable
70
1
0
BLOCK_RECORD
5
1F
100
AcDbSymbolTableRecord
100
AcDbBlockTableRecord
2
*MODEL_SPACE
0
BLOCK_RECORD
5
1B
100
AcDbSymbolTableRecord
100
AcDbBlockTableRecord
2
*PAPER_SPACE
0
ENDTAB
0
ENDSEC
0
SECTION
2
BLOCKS
0
BLOCK
5
20
100
AcDbEntity
100
AcDbBlockBegin
2
*MODEL_SPACE
0
ENDBLK
5
21
100
AcDbEntity
100
AcDbBlockEnd
0
BLOCK
5
1C
100
AcDbEntity
100
AcDbBlockBegin
2
*PAPER_SPACE
0
ENDBLK
5
1D
100
AcDbEntity
100
AcDbBlockEnd
0
ENDSEC
0
SECTION
2
ENTITIES
0
CIRCLE
5
100
100
AcDbEntity
8
0
100
AcDbCircle
10
-63.999999999999957
20
29.5
30
0
40
11.599999999999991
210
0
220
0
230
1
0
CIRCLE
5
101
100
AcDbEntity
8
0
100
AcDbCircle
10
-73.249999999999957
20
41.750000000000007
30
0
40
1.0999999999999943
210
0
220
0
230
1
0
CIRCLE
5
102
100
AcDbEntity
8
0
100
AcDbCircle
10
-54.749999999999957
20
17.249999999999996
30
0
40
1.0999999999999943
210
0
220
0
230
1
0
CIRCLE
5
103
100
AcDbEntity
8
0
100
AcDbCircle
10
-34.30000000000004
20
120
30
0
40
2.4999999999999933
210
0
220
-0
230
1
0
CIRCLE
5
104
100
AcDbEntity
8
0
100
AcDbCircle
10
-34.30000000000004
20
199.92500000000001
30
0
40
2.4999999999999933
210
0
220
-0
230
1
0
CIRCLE
5
105
100
AcDbEntity
8
0
100
AcDbCircle
10
-34.30000000000004
20
40.074999999999989
30
0
40
2.4999999999999933
210
0
220
-0
230
1
0
LWPOLYLINE
5
106
100
AcDbEntity
8
0
100
AcDbPolyline
90
4
70
1
43
0.0
10
-105.49999999999996
20
215.49999999999994
10
-105.49999999999996
20
4.4999999999999929
10
105.49999999999996
20
4.5000000000000089
10
105.49999999999997
20
215.49999999999994
0
CIRCLE
5
107
100
AcDbEntity
8
0
100
AcDbCircle
10
14.250000000000025
20
188.24999999999994
30
0
40
2.5
210
0
220
-0
230
1
0
LWPOLYLINE
5
108
100
AcDbEntity
8
0
100
AcDbPolyline
90
8
70
1
43
0.0
10
10.000000000000036
20
135.40467900272117
10
10.000000000000036
20
169.59532099727869
42
-0.19310329410970564
10
32.904679002721295
20
192.49999999999997
10
67.095320997278733
20
192.5
42
-0.19310329410970553
10
90.000000000000014
20
169.59532099727878
10
90.000000000000114
20
135.40467900272128
42
-0.193103294109706
10
67.095320997278819
20
112.49999999999997
10
32.90467900272116
20
112.49999999999999
42
-0.19310329410970462
0
CIRCLE
5
109
100
AcDbEntity
8
0
100
AcDbCircle
10
85.750000000000057
20
90.750000000000014
30
0
40
2.5
210
0
220
-0
230
1
0
CIRCLE
5
110
100
AcDbEntity
8
0
100
AcDbCircle
10
85.750000000000028
20
188.24999999999994
30
0
40
2.5
210
0
220
-0
230
1
0
CIRCLE
5
111
100
AcDbEntity
8
0
100
AcDbCircle
10
14.250000000000064
20
90.750000000000014
30
0
40
2.5
210
0
220
-0
230
1
0
CIRCLE
5
112
100
AcDbEntity
8
0
100
AcDbCircle
10
14.250000000000052
20
116.74999999999996
30
0
40
2.5
210
0
220
-0
230
1
0
CIRCLE
5
113
100
AcDbEntity
8
0
100
AcDbCircle
10
85.750000000000057
20
116.74999999999999
30
0
40
2.5
210
0
220
-0
230
1
0
LWPOLYLINE
5
114
100
AcDbEntity
8
0
100
AcDbPolyline
90
8
70
1
43
0.0
10
32.904679002721153
20
95
42
0.19310329410970462
10
10.000000000000014
20
72.095320997278804
10
10.000000000000053
20
37.904679002721252
42
0.19310329410970559
10
32.904679002721323
20
14.999999999999991
10
67.095320997278804
20
15
42
0.19310329410970545
10
90.000000000000057
20
37.904679002721238
10
90.000000000000114
20
72.095320997278705
42
0.19310329410970575
10
67.095320997278847
20
95
0
CIRCLE
5
115
100
AcDbEntity
8
0
100
AcDbCircle
10
14.250000000000057
20
19.25
30
0
40
2.5
210
0
220
-0
230
1
0
CIRCLE
5
116
100
AcDbEntity
8
0
100
AcDbCircle
10
85.750000000000057
20
19.250000000000018
30
0
40
2.5
210
0
220
-0
230
1
0
ENDSEC
0
SECTION
2
OBJECTS
0
DICTIONARY
5
C
100
AcDbDictionary
3
ACAD_GROUP
350
D
3
ACAD_MLINESTYLE
350
17
0
DICTIONARY
5
D
100
AcDbDictionary
0
DICTIONARY
5
1A
330
C
100
AcDbDictionary
0
DICTIONARY
5
17
100
AcDbDictionary
0
ENDSEC
0
EOF
