<?xml version="1.0" encoding="UTF-8" standalone="no"?>
<svg
   viewBox="0 0 201.31494 201.31494"
   width="2.0970306in"
   height="2.0970306in"
   version="1.1"
   id="svg38"
   sodipodi:docname="mdf_speaker_back.svg"
   inkscape:version="1.3 (0e150ed6c4, 2023-07-21)"
   xmlns:inkscape="http://www.inkscape.org/namespaces/inkscape"
   xmlns:sodipodi="http://sodipodi.sourceforge.net/DTD/sodipodi-0.dtd"
   xmlns="http://www.w3.org/2000/svg"
   xmlns:svg="http://www.w3.org/2000/svg">
  <sodipodi:namedview
     id="namedview40"
     pagecolor="#ffffff"
     bordercolor="#000000"
     borderopacity="0.25"
     inkscape:showpageshadow="2"
     inkscape:pageopacity="0.0"
     inkscape:pagecheckerboard="0"
     inkscape:deskcolor="#d1d1d1"
     showgrid="false"
     inkscape:zoom="2.9398149"
     inkscape:cx="168.54803"
     inkscape:cy="118.20472"
     inkscape:window-width="1920"
     inkscape:window-height="1027"
     inkscape:window-x="-8"
     inkscape:window-y="-8"
     inkscape:window-maximized="1"
     inkscape:current-layer="g36"
     inkscape:document-units="in" />
  <desc
     id="desc18">mdf_speaker_back.dxf - scale = 1.000000, origin = (0.000000, 0.000000), method = manual</desc>
  <defs
     id="defs32">
    <marker
       id="DistanceX"
       orient="auto"
       refX="0"
       refY="0"
       style="overflow:visible">
      <path
         d="M 3,-3 -3,3 M 0,-5 V 5"
         style="stroke:#000000;stroke-width:0.5"
         id="path20" />
    </marker>
    <pattern
       id="Hatch"
       patternUnits="userSpaceOnUse"
       width="8"
       height="8"
       x="0"
       y="0">
      <path
         d="M8 4 l-4,4"
         stroke="#000000"
         stroke-width="0.25"
         linecap="square"
         id="path23" />
      <path
         d="M6 2 l-4,4"
         stroke="#000000"
         stroke-width="0.25"
         linecap="square"
         id="path25" />
      <path
         d="M4 0 l-4,4"
         stroke="#000000"
         stroke-width="0.25"
         linecap="square"
         id="path27" />
    </pattern>
    <symbol
       id="*MODEL_SPACE" />
    <symbol
       id="*PAPER_SPACE" />
  </defs>
  <g
     inkscape:groupmode="layer"
     inkscape:label="0"
     id="g36"
     transform="translate(-76.625194,-81.582672)">
    <path
       d="m 90.258421,231.82141 a 71.811024,71.811024 0 0 0 -10e-7,-99.16253 100.15748,100.15748 0 0 1 37.44298,-37.442979 71.811024,71.811024 0 0 0 99.16253,-10e-7 100.15748,100.15748 0 0 1 37.44298,37.44298 71.811024,71.811024 0 0 0 0,99.16253 100.15748,100.15748 0 0 1 -37.44298,37.44298 71.811024,71.811024 0 0 0 -99.16253,0 100.15748,100.15748 0 0 1 -37.442979,-37.44298 z"
       style="fill:none;stroke:#ff0000"
       id="path34" />
  </g>
</svg>
