0
SECTION
2
HEADER
9
$INSUNITS
70
4
9
$ACADVER
1
AC1014
9
$HANDSEED
5
FFFF
0
ENDSEC
0
SECTION
2
TABLES
0
TABLE
2
VPORT
5
8
100
AcDbSymbolTable
0
ENDTAB
0
TABLE
2
LTYPE
5
5
100
AcDbSymbolTable
0
LTYPE
5
14
100
AcDbSymbolTableRecord
100
AcDbLinetypeTableRecord
2
BYBLOCK
70
0
0
LTYPE
5
15
100
AcDbSymbolTableRecord
100
AcDbLinetypeTableRecord
2
BYLAYER
70
0
0
ENDTAB
0
TABLE
2
LAYER
5
2
100
AcDbSymbolTable
70
2
0
LAYER
5
50
100
AcDbSymbolTableRecord
100
AcDbLayerTableRecord
2
0
70
0
6
CONTINUOUS
0
ENDTAB
0
TABLE
2
STYLE
5
3
100
AcDbSymbolTable
70
1
0
STYLE
5
11
100
AcDbSymbolTableRecord
100
AcDbTextStyleTableRecord
2
STANDARD
70
0
0
ENDTAB
0
TABLE
2
VIEW
5
6
100
AcDbSymbolTable
70
0
0
ENDTAB
0
TABLE
2
UCS
5
7
100
AcDbSymbolTable
70
0
0
ENDTAB
0
TABLE
2
APPID
5
9
100
AcDbSymbolTable
70
2
0
APPID
5
12
100
AcDbSymbolTableRecord
100
AcDbRegAppTableRecord
2
ACAD
70
0
0
ENDTAB
0
TABLE
2
DIMSTYLE
5
A
100
AcDbSymbolTable
70
1
0
ENDTAB
0
TABLE
2
BLOCK_RECORD
5
1
100
AcDbSymbolTable
70
1
0
BLOCK_RECORD
5
1F
100
AcDbSymbolTableRecord
100
AcDbBlockTableRecord
2
*MODEL_SPACE
0
BLOCK_RECORD
5
1B
100
AcDbSymbolTableRecord
100
AcDbBlockTableRecord
2
*PAPER_SPACE
0
ENDTAB
0
ENDSEC
0
SECTION
2
BLOCKS
0
BLOCK
5
20
100
AcDbEntity
100
AcDbBlockBegin
2
*MODEL_SPACE
0
ENDBLK
5
21
100
AcDbEntity
100
AcDbBlockEnd
0
BLOCK
5
1C
100
AcDbEntity
100
AcDbBlockBegin
2
*PAPER_SPACE
0
ENDBLK
5
1D
100
AcDbEntity
100
AcDbBlockEnd
0
ENDSEC
0
SECTION
2
ENTITIES
0
CIRCLE
5
100
100
AcDbEntity
8
0
100
AcDbCircle
10
1.0000000000000107
20
27.899999999999956
30
0
40
0.89999999999999991
210
0
220
-0
230
1
0
CIRCLE
5
101
100
AcDbEntity
8
0
100
AcDbCircle
10
85
20
27.899999999999956
30
0
40
0.89999999999999991
210
0
220
-0
230
1
0
CIRCLE
5
102
100
AcDbEntity
8
0
100
AcDbCircle
10
9.6500000000000039
20
143.89999999999998
30
0
40
0.89999999999999991
210
0
220
-0
230
1
0
CIRCLE
5
103
100
AcDbEntity
8
0
100
AcDbCircle
10
82.871320343559631
20
145.77867965644035
30
0
40
0.89999999999999991
210
0
220
-0
230
1
0
CIRCLE
5
104
100
AcDbEntity
8
0
100
AcDbCircle
10
89.25
20
170.69999999999993
30
0
40
0.89999999999999991
210
0
220
-0
230
1
0
CIRCLE
5
105
100
AcDbEntity
8
0
100
AcDbCircle
10
43.000000000000007
20
27.899999999999956
30
0
40
0.89999999999999991
210
0
220
-0
230
1
0
CIRCLE
5
106
100
AcDbEntity
8
0
100
AcDbCircle
10
9.6500000000000039
20
190.99999999999997
30
0
40
0.89999999999999958
210
0
220
0
230
1
0
CIRCLE
5
107
100
AcDbEntity
8
0
100
AcDbCircle
10
76.850000000000009
20
151.79999999999995
30
0
40
0.89999999999999858
210
0
220
0
230
1
0
CIRCLE
5
108
100
AcDbEntity
8
0
100
AcDbCircle
10
9.6500000000000039
20
151.79999999999995
30
0
40
0.89999999999999958
210
0
220
0
230
1
0
LWPOLYLINE
5
109
100
AcDbEntity
8
0
100
AcDbPolyline
90
4
70
1
43
0.0
10
72
20
154.19999999999993
10
14.000000000000012
20
154.19999999999993
10
14.000000000000012
20
184.69999999999996
10
72
20
184.69999999999996
0
CIRCLE
5
110
100
AcDbEntity
8
0
100
AcDbCircle
10
76.850000000000037
20
190.99999999999997
30
0
40
0.89999999999999858
210
0
220
0
230
1
0
CIRCLE
5
111
100
AcDbEntity
8
0
100
AcDbCircle
10
26.199999999999871
20
116.39999999999998
30
0
40
2.3999999999999999
210
0
220
-0
230
1
0
CIRCLE
5
112
100
AcDbEntity
8
0
100
AcDbCircle
10
59.79999999999994
20
116.39999999999998
30
0
40
2.3999999999999999
210
0
220
-0
230
1
0
CIRCLE
5
113
100
AcDbEntity
8
0
100
AcDbCircle
10
76.59999999999998
20
83.399999999999963
30
0
40
2.3999999999999999
210
0
220
-0
230
1
0
CIRCLE
5
114
100
AcDbEntity
8
0
100
AcDbCircle
10
9.3999999999998956
20
83.399999999999949
30
0
40
2.3999999999999999
210
0
220
-0
230
1
0
CIRCLE
5
115
100
AcDbEntity
8
0
100
AcDbCircle
10
42.999999999999936
20
83.399999999999949
30
0
40
2.3999999999999999
210
0
220
-0
230
1
0
CIRCLE
5
116
100
AcDbEntity
8
0
100
AcDbCircle
10
26.199999999999875
20
44.399999999999949
30
0
40
2.3999999999999999
210
0
220
-0
230
1
0
CIRCLE
5
117
100
AcDbEntity
8
0
100
AcDbCircle
10
59.799999999999933
20
44.399999999999949
30
0
40
2.3999999999999999
210
0
220
-0
230
1
0
CIRCLE
5
118
100
AcDbEntity
8
0
100
AcDbCircle
10
26.199999999999871
20
80.399999999999949
30
0
40
2.3999999999999999
210
0
220
-0
230
1
0
CIRCLE
5
119
100
AcDbEntity
8
0
100
AcDbCircle
10
59.79999999999994
20
80.399999999999977
30
0
40
2.3999999999999999
210
0
220
-0
230
1
0
CIRCLE
5
120
100
AcDbEntity
8
0
100
AcDbCircle
10
76.599999999999994
20
119.39999999999996
30
0
40
2.3999999999999999
210
0
220
-0
230
1
0
CIRCLE
5
121
100
AcDbEntity
8
0
100
AcDbCircle
10
42.999999999999908
20
119.39999999999996
30
0
40
2.3999999999999999
210
0
220
-0
230
1
0
CIRCLE
5
122
100
AcDbEntity
8
0
100
AcDbCircle
10
9.3999999999998654
20
119.39999999999996
30
0
40
2.3999999999999999
210
0
220
-0
230
1
0
CIRCLE
5
123
100
AcDbEntity
8
0
100
AcDbCircle
10
76.59999999999998
20
75.899999999999949
30
0
40
1.8999999999999999
210
0
220
-0
230
1
0
CIRCLE
5
124
100
AcDbEntity
8
0
100
AcDbCircle
10
42.999999999999908
20
75.899999999999949
30
0
40
1.8999999999999999
210
0
220
-0
230
1
0
CIRCLE
5
125
100
AcDbEntity
8
0
100
AcDbCircle
10
26.199999999999882
20
36.899999999999949
30
0
40
1.8999999999999999
210
0
220
-0
230
1
0
CIRCLE
5
126
100
AcDbEntity
8
0
100
AcDbCircle
10
76.59999999999998
20
111.89999999999996
30
0
40
1.8999999999999999
210
0
220
-0
230
1
0
CIRCLE
5
127
100
AcDbEntity
8
0
100
AcDbCircle
10
42.999999999999915
20
111.89999999999996
30
0
40
1.8999999999999999
210
0
220
-0
230
1
0
CIRCLE
5
128
100
AcDbEntity
8
0
100
AcDbCircle
10
9.3999999999998636
20
111.89999999999996
30
0
40
1.8999999999999999
210
0
220
-0
230
1
0
CIRCLE
5
129
100
AcDbEntity
8
0
100
AcDbCircle
10
35.875000000000099
20
143.89999999999998
30
0
40
1.8999999999999999
210
0
220
-0
230
1
0
CIRCLE
5
130
100
AcDbEntity
8
0
100
AcDbCircle
10
64.375000000000014
20
143.89999999999998
30
0
40
1.8999999999999999
210
0
220
-0
230
1
0
CIRCLE
5
131
100
AcDbEntity
8
0
100
AcDbCircle
10
84.75
20
162.07499999999996
30
0
40
1.8999999999999999
210
0
220
-0
230
1
0
CIRCLE
5
132
100
AcDbEntity
8
0
100
AcDbCircle
10
50.125000000000028
20
143.89999999999998
30
0
40
1.8999999999999999
210
0
220
-0
230
1
0
CIRCLE
5
133
100
AcDbEntity
8
0
100
AcDbCircle
10
21.625000000000021
20
143.89999999999998
30
0
40
1.8999999999999999
210
0
220
-0
230
1
0
CIRCLE
5
134
100
AcDbEntity
8
0
100
AcDbCircle
10
26.199999999999871
20
108.89999999999998
30
0
40
1.8999999999999999
210
0
220
-0
230
1
0
CIRCLE
5
135
100
AcDbEntity
8
0
100
AcDbCircle
10
59.79999999999994
20
108.89999999999998
30
0
40
1.8999999999999999
210
0
220
-0
230
1
0
CIRCLE
5
136
100
AcDbEntity
8
0
100
AcDbCircle
10
59.799999999999933
20
36.899999999999949
30
0
40
1.8999999999999999
210
0
220
-0
230
1
0
CIRCLE
5
137
100
AcDbEntity
8
0
100
AcDbCircle
10
26.199999999999871
20
72.899999999999949
30
0
40
1.8999999999999999
210
0
220
-0
230
1
0
CIRCLE
5
138
100
AcDbEntity
8
0
100
AcDbCircle
10
59.799999999999962
20
72.899999999999977
30
0
40
1.8999999999999999
210
0
220
-0
230
1
0
CIRCLE
5
139
100
AcDbEntity
8
0
100
AcDbCircle
10
9.3999999999998956
20
75.899999999999949
30
0
40
1.8999999999999999
210
0
220
-0
230
1
0
CIRCLE
5
140
100
AcDbEntity
8
0
100
AcDbCircle
10
-32.800000000000026
20
120.00000000000001
30
0
40
2.5
210
0
220
-0
230
1
0
CIRCLE
5
141
100
AcDbEntity
8
0
100
AcDbCircle
10
-32.800000000000026
20
199.92499999999993
30
0
40
2.5
210
0
220
-0
230
1
0
CIRCLE
5
142
100
AcDbEntity
8
0
100
AcDbCircle
10
-32.800000000000026
20
40.074999999999946
30
0
40
2.5
210
0
220
-0
230
1
0
CIRCLE
5
143
100
AcDbEntity
8
0
100
AcDbCircle
10
-60.999999999999943
20
170.495
30
0
40
5
210
0
220
-0
230
1
0
CIRCLE
5
144
100
AcDbEntity
8
0
100
AcDbCircle
10
-36.999999999999943
20
170.495
30
0
40
5
210
0
220
-0
230
1
0
CIRCLE
5
145
100
AcDbEntity
8
0
100
AcDbCircle
10
-66.999999999999943
20
180.88730484541327
30
0
40
5
210
0
220
-0
230
1
0
CIRCLE
5
146
100
AcDbEntity
8
0
100
AcDbCircle
10
-84.999999999999943
20
191.28
30
0
40
5
210
0
220
-0
230
1
0
CIRCLE
5
147
100
AcDbEntity
8
0
100
AcDbCircle
10
-84.999999999999943
20
170.495
30
0
40
5
210
0
220
-0
230
1
0
CIRCLE
5
148
100
AcDbEntity
8
0
100
AcDbCircle
10
-66.999999999999943
20
139.31730484541328
30
0
40
5
210
0
220
-0
230
1
0
CIRCLE
5
149
100
AcDbEntity
8
0
100
AcDbCircle
10
-66.999999999999943
20
118.53230484541328
30
0
40
5
210
0
220
-0
230
1
0
CIRCLE
5
150
100
AcDbEntity
8
0
100
AcDbCircle
10
-66.999999999999943
20
97.747304845413254
30
0
40
5
210
0
220
-0
230
1
0
CIRCLE
5
151
100
AcDbEntity
8
0
100
AcDbCircle
10
-60.999999999999943
20
108.14
30
0
40
5
210
0
220
-0
230
1
0
CIRCLE
5
152
100
AcDbEntity
8
0
100
AcDbCircle
10
-54.999999999999936
20
139.31730484541328
30
0
40
5
210
0
220
-0
230
1
0
CIRCLE
5
153
100
AcDbEntity
8
0
100
AcDbCircle
10
-48.999999999999943
20
149.71000000000001
30
0
40
5
210
0
220
-0
230
1
0
CIRCLE
5
154
100
AcDbEntity
8
0
100
AcDbCircle
10
-30.999999999999936
20
160.10230484541327
30
0
40
5
210
0
220
-0
230
1
0
CIRCLE
5
155
100
AcDbEntity
8
0
100
AcDbCircle
10
-54.999999999999936
20
160.10230484541327
30
0
40
5
210
0
220
-0
230
1
0
CIRCLE
5
156
100
AcDbEntity
8
0
100
AcDbCircle
10
-78.999999999999943
20
160.10230484541327
30
0
40
5
210
0
220
-0
230
1
0
CIRCLE
5
157
100
AcDbEntity
8
0
100
AcDbCircle
10
-78.999999999999943
20
139.31730484541328
30
0
40
5
210
0
220
-0
230
1
0
CIRCLE
5
158
100
AcDbEntity
8
0
100
AcDbCircle
10
-78.999999999999943
20
118.53230484541328
30
0
40
5
210
0
220
-0
230
1
0
CIRCLE
5
159
100
AcDbEntity
8
0
100
AcDbCircle
10
-78.999999999999943
20
97.747304845413254
30
0
40
5
210
0
220
-0
230
1
0
CIRCLE
5
160
100
AcDbEntity
8
0
100
AcDbCircle
10
-84.999999999999943
20
87.355000000000004
30
0
40
5
210
0
220
-0
230
1
0
CIRCLE
5
161
100
AcDbEntity
8
0
100
AcDbCircle
10
-84.999999999999943
20
66.569999999999993
30
0
40
5
210
0
220
-0
230
1
0
CIRCLE
5
162
100
AcDbEntity
8
0
100
AcDbCircle
10
-60.999999999999943
20
87.355000000000004
30
0
40
5
210
0
220
-0
230
1
0
CIRCLE
5
163
100
AcDbEntity
8
0
100
AcDbCircle
10
-66.999999999999943
20
76.962304845413271
30
0
40
5
210
0
220
-0
230
1
0
CIRCLE
5
164
100
AcDbEntity
8
0
100
AcDbCircle
10
-60.999999999999943
20
66.569999999999993
30
0
40
5
210
0
220
-0
230
1
0
CIRCLE
5
165
100
AcDbEntity
8
0
100
AcDbCircle
10
-48.999999999999943
20
66.569999999999993
30
0
40
5
210
0
220
-0
230
1
0
CIRCLE
5
166
100
AcDbEntity
8
0
100
AcDbCircle
10
-66.999999999999943
20
56.177304845413268
30
0
40
5
210
0
220
-0
230
1
0
CIRCLE
5
167
100
AcDbEntity
8
0
100
AcDbCircle
10
-84.999999999999943
20
45.784999999999997
30
0
40
5
210
0
220
-0
230
1
0
CIRCLE
5
168
100
AcDbEntity
8
0
100
AcDbCircle
10
-84.999999999999943
20
25
30
0
40
5
210
0
220
-0
230
1
0
CIRCLE
5
169
100
AcDbEntity
8
0
100
AcDbCircle
10
-60.999999999999943
20
45.784999999999997
30
0
40
5
210
0
220
-0
230
1
0
CIRCLE
5
170
100
AcDbEntity
8
0
100
AcDbCircle
10
-60.999999999999943
20
25
30
0
40
5
210
0
220
-0
230
1
0
CIRCLE
5
171
100
AcDbEntity
8
0
100
AcDbCircle
10
-36.999999999999943
20
25
30
0
40
5
210
0
220
-0
230
1
0
CIRCLE
5
172
100
AcDbEntity
8
0
100
AcDbCircle
10
-54.999999999999936
20
35.392304845413271
30
0
40
5
210
0
220
-0
230
1
0
CIRCLE
5
173
100
AcDbEntity
8
0
100
AcDbCircle
10
-42.999999999999936
20
56.177304845413268
30
0
40
5
210
0
220
-0
230
1
0
CIRCLE
5
174
100
AcDbEntity
8
0
100
AcDbCircle
10
-24.999999999999936
20
66.569999999999993
30
0
40
5
210
0
220
-0
230
1
0
CIRCLE
5
175
100
AcDbEntity
8
0
100
AcDbCircle
10
-48.999999999999943
20
87.355000000000004
30
0
40
5
210
0
220
-0
230
1
0
CIRCLE
5
176
100
AcDbEntity
8
0
100
AcDbCircle
10
-30.999999999999936
20
76.962304845413271
30
0
40
5
210
0
220
-0
230
1
0
CIRCLE
5
177
100
AcDbEntity
8
0
100
AcDbCircle
10
-36.999999999999943
20
87.355000000000004
30
0
40
5
210
0
220
-0
230
1
0
CIRCLE
5
178
100
AcDbEntity
8
0
100
AcDbCircle
10
-18.999999999999932
20
97.747304845413254
30
0
40
5
210
0
220
-0
230
1
0
CIRCLE
5
179
100
AcDbEntity
8
0
100
AcDbCircle
10
-42.999999999999936
20
97.747304845413254
30
0
40
5
210
0
220
-0
230
1
0
CIRCLE
5
180
100
AcDbEntity
8
0
100
AcDbCircle
10
-54.999999999999936
20
118.53230484541328
30
0
40
5
210
0
220
-0
230
1
0
CIRCLE
5
181
100
AcDbEntity
8
0
100
AcDbCircle
10
-42.999999999999936
20
139.31730484541328
30
0
40
5
210
0
220
-0
230
1
0
CIRCLE
5
182
100
AcDbEntity
8
0
100
AcDbCircle
10
-18.999999999999932
20
139.31730484541328
30
0
40
5
210
0
220
-0
230
1
0
CIRCLE
5
183
100
AcDbEntity
8
0
100
AcDbCircle
10
-18.999999999999932
20
160.10230484541327
30
0
40
5
210
0
220
-0
230
1
0
CIRCLE
5
184
100
AcDbEntity
8
0
100
AcDbCircle
10
-18.999999999999932
20
180.88730484541327
30
0
40
5
210
0
220
-0
230
1
0
CIRCLE
5
185
100
AcDbEntity
8
0
100
AcDbCircle
10
-42.999999999999936
20
180.88730484541327
30
0
40
5
210
0
220
-0
230
1
0
CIRCLE
5
186
100
AcDbEntity
8
0
100
AcDbCircle
10
-60.999999999999943
20
191.28
30
0
40
5
210
0
220
-0
230
1
0
CIRCLE
5
187
100
AcDbEntity
8
0
100
AcDbCircle
10
-48.999999999999943
20
191.28
30
0
40
5
210
0
220
-0
230
1
0
CIRCLE
5
188
100
AcDbEntity
8
0
100
AcDbCircle
10
-30.999999999999936
20
180.88730484541327
30
0
40
5
210
0
220
-0
230
1
0
CIRCLE
5
189
100
AcDbEntity
8
0
100
AcDbCircle
10
-24.999999999999936
20
170.495
30
0
40
5
210
0
220
-0
230
1
0
CIRCLE
5
190
100
AcDbEntity
8
0
100
AcDbCircle
10
-24.999999999999936
20
149.71000000000001
30
0
40
5
210
0
220
-0
230
1
0
CIRCLE
5
191
100
AcDbEntity
8
0
100
AcDbCircle
10
-30.999999999999936
20
139.31730484541328
30
0
40
5
210
0
220
-0
230
1
0
CIRCLE
5
192
100
AcDbEntity
8
0
100
AcDbCircle
10
-48.999999999999943
20
128.92500000000001
30
0
40
5
210
0
220
-0
230
1
0
CIRCLE
5
193
100
AcDbEntity
8
0
100
AcDbCircle
10
-48.999999999999943
20
108.14
30
0
40
5
210
0
220
-0
230
1
0
CIRCLE
5
194
100
AcDbEntity
8
0
100
AcDbCircle
10
-30.999999999999936
20
97.747304845413254
30
0
40
5
210
0
220
-0
230
1
0
CIRCLE
5
195
100
AcDbEntity
8
0
100
AcDbCircle
10
-24.999999999999936
20
87.355000000000004
30
0
40
5
210
0
220
-0
230
1
0
CIRCLE
5
196
100
AcDbEntity
8
0
100
AcDbCircle
10
-18.999999999999932
20
76.962304845413271
30
0
40
5
210
0
220
-0
230
1
0
CIRCLE
5
197
100
AcDbEntity
8
0
100
AcDbCircle
10
-42.999999999999936
20
76.962304845413271
30
0
40
5
210
0
220
-0
230
1
0
CIRCLE
5
198
100
AcDbEntity
8
0
100
AcDbCircle
10
-18.999999999999932
20
56.177304845413268
30
0
40
5
210
0
220
-0
230
1
0
CIRCLE
5
199
100
AcDbEntity
8
0
100
AcDbCircle
10
-30.999999999999936
20
56.177304845413268
30
0
40
5
210
0
220
-0
230
1
0
CIRCLE
5
200
100
AcDbEntity
8
0
100
AcDbCircle
10
-48.999999999999943
20
45.784999999999997
30
0
40
5
210
0
220
-0
230
1
0
CIRCLE
5
201
100
AcDbEntity
8
0
100
AcDbCircle
10
-48.999999999999943
20
25
30
0
40
5
210
0
220
-0
230
1
0
CIRCLE
5
202
100
AcDbEntity
8
0
100
AcDbCircle
10
-24.999999999999936
20
25
30
0
40
5
210
0
220
-0
230
1
0
CIRCLE
5
203
100
AcDbEntity
8
0
100
AcDbCircle
10
-66.999999999999943
20
35.392304845413271
30
0
40
5
210
0
220
-0
230
1
0
CIRCLE
5
204
100
AcDbEntity
8
0
100
AcDbCircle
10
-72.999999999999943
20
25
30
0
40
5
210
0
220
-0
230
1
0
CIRCLE
5
205
100
AcDbEntity
8
0
100
AcDbCircle
10
-78.999999999999943
20
35.392304845413271
30
0
40
5
210
0
220
-0
230
1
0
CIRCLE
5
206
100
AcDbEntity
8
0
100
AcDbCircle
10
-72.999999999999943
20
45.784999999999997
30
0
40
5
210
0
220
-0
230
1
0
CIRCLE
5
207
100
AcDbEntity
8
0
100
AcDbCircle
10
-54.999999999999936
20
56.177304845413268
30
0
40
5
210
0
220
-0
230
1
0
CIRCLE
5
208
100
AcDbEntity
8
0
100
AcDbCircle
10
-36.999999999999943
20
66.569999999999993
30
0
40
5
210
0
220
-0
230
1
0
CIRCLE
5
209
100
AcDbEntity
8
0
100
AcDbCircle
10
-54.999999999999936
20
76.962304845413271
30
0
40
5
210
0
220
-0
230
1
0
CIRCLE
5
210
100
AcDbEntity
8
0
100
AcDbCircle
10
-72.999999999999943
20
66.569999999999993
30
0
40
5
210
0
220
-0
230
1
0
CIRCLE
5
211
100
AcDbEntity
8
0
100
AcDbCircle
10
-78.999999999999943
20
56.177304845413268
30
0
40
5
210
0
220
-0
230
1
0
CIRCLE
5
212
100
AcDbEntity
8
0
100
AcDbCircle
10
-78.999999999999943
20
76.962304845413271
30
0
40
5
210
0
220
-0
230
1
0
CIRCLE
5
213
100
AcDbEntity
8
0
100
AcDbCircle
10
-72.999999999999943
20
87.355000000000004
30
0
40
5
210
0
220
-0
230
1
0
CIRCLE
5
214
100
AcDbEntity
8
0
100
AcDbCircle
10
-84.999999999999943
20
108.14
30
0
40
5
210
0
220
-0
230
1
0
CIRCLE
5
215
100
AcDbEntity
8
0
100
AcDbCircle
10
-84.999999999999943
20
128.92500000000001
30
0
40
5
210
0
220
-0
230
1
0
CIRCLE
5
216
100
AcDbEntity
8
0
100
AcDbCircle
10
-84.999999999999943
20
149.71000000000001
30
0
40
5
210
0
220
-0
230
1
0
CIRCLE
5
217
100
AcDbEntity
8
0
100
AcDbCircle
10
-66.999999999999943
20
160.10230484541327
30
0
40
5
210
0
220
-0
230
1
0
CIRCLE
5
218
100
AcDbEntity
8
0
100
AcDbCircle
10
-42.999999999999936
20
160.10230484541327
30
0
40
5
210
0
220
-0
230
1
0
CIRCLE
5
219
100
AcDbEntity
8
0
100
AcDbCircle
10
-36.999999999999943
20
149.71000000000001
30
0
40
5
210
0
220
-0
230
1
0
CIRCLE
5
220
100
AcDbEntity
8
0
100
AcDbCircle
10
-60.999999999999943
20
149.71000000000001
30
0
40
5
210
0
220
-0
230
1
0
CIRCLE
5
221
100
AcDbEntity
8
0
100
AcDbCircle
10
-60.999999999999943
20
128.92500000000001
30
0
40
5
210
0
220
-0
230
1
0
CIRCLE
5
222
100
AcDbEntity
8
0
100
AcDbCircle
10
-54.999999999999936
20
97.747304845413254
30
0
40
5
210
0
220
-0
230
1
0
CIRCLE
5
223
100
AcDbEntity
8
0
100
AcDbCircle
10
-72.999999999999943
20
108.14
30
0
40
5
210
0
220
-0
230
1
0
CIRCLE
5
224
100
AcDbEntity
8
0
100
AcDbCircle
10
-72.999999999999943
20
128.92500000000001
30
0
40
5
210
0
220
-0
230
1
0
CIRCLE
5
225
100
AcDbEntity
8
0
100
AcDbCircle
10
-72.999999999999943
20
149.71000000000001
30
0
40
5
210
0
220
-0
230
1
0
CIRCLE
5
226
100
AcDbEntity
8
0
100
AcDbCircle
10
-78.999999999999943
20
180.88730484541327
30
0
40
5
210
0
220
-0
230
1
0
CIRCLE
5
227
100
AcDbEntity
8
0
100
AcDbCircle
10
-72.999999999999943
20
191.28
30
0
40
5
210
0
220
-0
230
1
0
CIRCLE
5
228
100
AcDbEntity
8
0
100
AcDbCircle
10
-54.999999999999936
20
180.88730484541327
30
0
40
5
210
0
220
-0
230
1
0
CIRCLE
5
229
100
AcDbEntity
8
0
100
AcDbCircle
10
-48.999999999999943
20
170.495
30
0
40
5
210
0
220
-0
230
1
0
CIRCLE
5
230
100
AcDbEntity
8
0
100
AcDbCircle
10
-72.999999999999943
20
170.495
30
0
40
5
210
0
220
-0
230
1
0
LWPOLYLINE
5
231
100
AcDbEntity
8
0
100
AcDbPolyline
90
4
70
1
43
0.0
10
105.49999999999996
20
4.5000000000000089
10
105.49999999999997
20
215.49999999999994
10
-105.49999999999997
20
215.49999999999994
10
-105.49999999999996
20
4.4999999999999929
0
CIRCLE
5
232
100
AcDbEntity
8
0
100
AcDbCircle
10
43.000000000000007
20
102.89999999999998
30
0
40
0.89999999999999991
210
0
220
-0
230
1
0
CIRCLE
5
233
100
AcDbEntity
8
0
100
AcDbCircle
10
85
20
66.899999999999963
30
0
40
0.89999999999999991
210
0
220
-0
230
1
0
CIRCLE
5
234
100
AcDbEntity
8
0
100
AcDbCircle
10
0.9999999999999396
20
66.899999999999963
30
0
40
0.89999999999999991
210
0
220
-0
230
1
0
CIRCLE
5
235
100
AcDbEntity
8
0
100
AcDbCircle
10
43.000000000000007
20
66.899999999999963
30
0
40
0.89999999999999991
210
0
220
-0
230
1
0
CIRCLE
5
236
100
AcDbEntity
8
0
100
AcDbCircle
10
85
20
102.89999999999998
30
0
40
0.89999999999999991
210
0
220
-0
230
1
0
CIRCLE
5
237
100
AcDbEntity
8
0
100
AcDbCircle
10
0.9999999999998781
20
102.89999999999998
30
0
40
0.89999999999999991
210
0
220
-0
230
1
0
CIRCLE
5
238
100
AcDbEntity
8
0
100
AcDbCircle
10
82.871320343559631
20
145.77867965644035
30
0
40
0.89999999999999991
210
0
220
0
230
1
0
CIRCLE
5
239
100
AcDbEntity
8
0
100
AcDbCircle
10
89.25
20
170.69999999999993
30
0
40
0.89999999999999991
210
0
220
0
230
1
0
CIRCLE
5
240
100
AcDbEntity
8
0
100
AcDbCircle
10
9.6500000000000039
20
143.89999999999998
30
0
40
0.89999999999999991
210
0
220
0
230
1
0
CIRCLE
5
241
100
AcDbEntity
8
0
100
AcDbCircle
10
43.000000000000007
20
27.899999999999956
30
0
40
0.89999999999999991
210
0
220
0
230
1
0
CIRCLE
5
242
100
AcDbEntity
8
0
100
AcDbCircle
10
1.0000000000000107
20
27.899999999999956
30
0
40
0.89999999999999991
210
0
220
0
230
1
0
CIRCLE
5
243
100
AcDbEntity
8
0
100
AcDbCircle
10
85
20
27.899999999999956
30
0
40
0.89999999999999991
210
0
220
0
230
1
0
CIRCLE
5
244
100
AcDbEntity
8
0
100
AcDbCircle
10
84.75
20
162.07499999999996
30
0
40
1.8999999999999999
210
0
220
0
230
1
0
CIRCLE
5
245
100
AcDbEntity
8
0
100
AcDbCircle
10
64.375000000000014
20
143.89999999999998
30
0
40
1.8999999999999999
210
0
220
0
230
1
0
CIRCLE
5
246
100
AcDbEntity
8
0
100
AcDbCircle
10
50.125000000000028
20
143.89999999999998
30
0
40
1.8999999999999999
210
0
220
0
230
1
0
CIRCLE
5
247
100
AcDbEntity
8
0
100
AcDbCircle
10
21.625000000000021
20
143.89999999999998
30
0
40
1.8999999999999999
210
0
220
0
230
1
0
CIRCLE
5
248
100
AcDbEntity
8
0
100
AcDbCircle
10
35.875000000000099
20
143.89999999999998
30
0
40
1.8999999999999999
210
0
220
0
230
1
0
CIRCLE
5
249
100
AcDbEntity
8
0
100
AcDbCircle
10
59.799999999999933
20
36.899999999999949
30
0
40
1.8999999999999999
210
0
220
0
230
1
0
CIRCLE
5
250
100
AcDbEntity
8
0
100
AcDbCircle
10
59.799999999999933
20
44.399999999999949
30
0
40
2.3999999999999999
210
0
220
0
230
1
0
CIRCLE
5
251
100
AcDbEntity
8
0
100
AcDbCircle
10
26.199999999999875
20
44.399999999999949
30
0
40
2.3999999999999999
210
0
220
0
230
1
0
CIRCLE
5
252
100
AcDbEntity
8
0
100
AcDbCircle
10
26.199999999999882
20
36.899999999999949
30
0
40
1.8999999999999999
210
0
220
0
230
1
0
CIRCLE
5
253
100
AcDbEntity
8
0
100
AcDbCircle
10
26.199999999999871
20
72.899999999999949
30
0
40
1.8999999999999999
210
0
220
0
230
1
0
CIRCLE
5
254
100
AcDbEntity
8
0
100
AcDbCircle
10
26.199999999999871
20
80.399999999999949
30
0
40
2.3999999999999999
210
0
220
0
230
1
0
CIRCLE
5
255
100
AcDbEntity
8
0
100
AcDbCircle
10
9.3999999999998956
20
83.399999999999949
30
0
40
2.3999999999999999
210
0
220
0
230
1
0
CIRCLE
5
256
100
AcDbEntity
8
0
100
AcDbCircle
10
9.3999999999998956
20
75.899999999999949
30
0
40
1.8999999999999999
210
0
220
0
230
1
0
CIRCLE
5
257
100
AcDbEntity
8
0
100
AcDbCircle
10
42.999999999999936
20
83.399999999999949
30
0
40
2.3999999999999999
210
0
220
0
230
1
0
CIRCLE
5
258
100
AcDbEntity
8
0
100
AcDbCircle
10
42.999999999999908
20
75.899999999999949
30
0
40
1.8999999999999999
210
0
220
0
230
1
0
CIRCLE
5
259
100
AcDbEntity
8
0
100
AcDbCircle
10
59.799999999999962
20
72.899999999999977
30
0
40
1.8999999999999999
210
0
220
0
230
1
0
CIRCLE
5
260
100
AcDbEntity
8
0
100
AcDbCircle
10
59.79999999999994
20
80.399999999999977
30
0
40
2.3999999999999999
210
0
220
0
230
1
0
CIRCLE
5
261
100
AcDbEntity
8
0
100
AcDbCircle
10
76.59999999999998
20
83.399999999999963
30
0
40
2.3999999999999999
210
0
220
0
230
1
0
CIRCLE
5
262
100
AcDbEntity
8
0
100
AcDbCircle
10
76.59999999999998
20
75.899999999999949
30
0
40
1.8999999999999999
210
0
220
0
230
1
0
CIRCLE
5
263
100
AcDbEntity
8
0
100
AcDbCircle
10
76.599999999999994
20
119.39999999999996
30
0
40
2.3999999999999999
210
0
220
0
230
1
0
CIRCLE
5
264
100
AcDbEntity
8
0
100
AcDbCircle
10
76.59999999999998
20
111.89999999999996
30
0
40
1.8999999999999999
210
0
220
0
230
1
0
CIRCLE
5
265
100
AcDbEntity
8
0
100
AcDbCircle
10
59.79999999999994
20
116.39999999999998
30
0
40
2.3999999999999999
210
0
220
0
230
1
0
CIRCLE
5
266
100
AcDbEntity
8
0
100
AcDbCircle
10
59.79999999999994
20
108.89999999999998
30
0
40
1.8999999999999999
210
0
220
0
230
1
0
CIRCLE
5
267
100
AcDbEntity
8
0
100
AcDbCircle
10
42.999999999999915
20
111.89999999999996
30
0
40
1.8999999999999999
210
0
220
0
230
1
0
CIRCLE
5
268
100
AcDbEntity
8
0
100
AcDbCircle
10
42.999999999999908
20
119.39999999999996
30
0
40
2.3999999999999999
210
0
220
0
230
1
0
CIRCLE
5
269
100
AcDbEntity
8
0
100
AcDbCircle
10
26.199999999999871
20
116.39999999999998
30
0
40
2.3999999999999999
210
0
220
0
230
1
0
CIRCLE
5
270
100
AcDbEntity
8
0
100
AcDbCircle
10
26.199999999999871
20
108.89999999999998
30
0
40
1.8999999999999999
210
0
220
0
230
1
0
CIRCLE
5
271
100
AcDbEntity
8
0
100
AcDbCircle
10
9.3999999999998636
20
111.89999999999996
30
0
40
1.8999999999999999
210
0
220
0
230
1
0
CIRCLE
5
272
100
AcDbEntity
8
0
100
AcDbCircle
10
9.3999999999998654
20
119.39999999999996
30
0
40
2.3999999999999999
210
0
220
0
230
1
0
LWPOLYLINE
5
273
100
AcDbEntity
8
0
100
AcDbPolyline
90
6
70
1
43
0.0
10
93
20
173.19999999999993
10
80.750000000000014
20
173.19999999999993
10
80.75
20
147.89999999999998
10
-6.9999999999999964
20
147.89999999999998
10
-6.9999999999999929
20
23.199999999999953
10
93
20
23.199999999999953
0
CIRCLE
5
274
100
AcDbEntity
8
0
100
AcDbCircle
10
42.999999999999915
20
138.39999999999998
30
0
40
0.89999999999999991
210
0
220
-0
230
1
0
ENDSEC
0
SECTION
2
OBJECTS
0
DICTIONARY
5
C
100
AcDbDictionary
3
ACAD_GROUP
350
D
3
ACAD_MLINESTYLE
350
17
0
DICTIONARY
5
D
100
AcDbDictionary
0
DICTIONARY
5
1A
330
C
100
AcDbDictionary
0
DICTIONARY
5
17
100
AcDbDictionary
0
ENDSEC
0
EOF
