<?xml version="1.0" encoding="UTF-8" standalone="no"?>
<svg
   viewBox="0 0 797.48036 797.48028"
   width="211.00002mm"
   height="210.99998mm"
   version="1.1"
   id="svg179"
   sodipodi:docname="right_side_mistakecut.svg"
   inkscape:version="1.3.2 (091e20e, 2023-11-25, custom)"
   xmlns:inkscape="http://www.inkscape.org/namespaces/inkscape"
   xmlns:sodipodi="http://sodipodi.sourceforge.net/DTD/sodipodi-0.dtd"
   xmlns="http://www.w3.org/2000/svg"
   xmlns:svg="http://www.w3.org/2000/svg">
  <sodipodi:namedview
     id="namedview179"
     pagecolor="#ffffff"
     bordercolor="#666666"
     borderopacity="1.0"
     inkscape:showpageshadow="2"
     inkscape:pageopacity="0.0"
     inkscape:pagecheckerboard="0"
     inkscape:deskcolor="#d1d1d1"
     inkscape:zoom="1.5066255"
     inkscape:cx="150.9997"
     inkscape:cy="422.4673"
     inkscape:window-width="1876"
     inkscape:window-height="915"
     inkscape:window-x="-8"
     inkscape:window-y="-8"
     inkscape:window-maximized="1"
     inkscape:current-layer="g179"
     inkscape:document-units="mm" />
  <desc
     id="desc1">right_side_pcb.dxf - scale = 1.000000, origin = (0.000000, 0.000000), method = manual</desc>
  <defs
     id="defs4">
    <marker
       id="DistanceX"
       orient="auto"
       refX="0"
       refY="0"
       style="overflow:visible">
      <path
         d="M 3,-3 -3,3 M 0,-5 V 5"
         style="stroke:#000000;stroke-width:0.5"
         id="path1" />
    </marker>
    <pattern
       id="Hatch"
       patternUnits="userSpaceOnUse"
       width="8"
       height="8"
       x="0"
       y="0">
      <path
         d="M8 4 l-4,4"
         stroke="#000000"
         stroke-width="0.25"
         linecap="square"
         id="path2" />
      <path
         d="M6 2 l-4,4"
         stroke="#000000"
         stroke-width="0.25"
         linecap="square"
         id="path3" />
      <path
         d="M4 0 l-4,4"
         stroke="#000000"
         stroke-width="0.25"
         linecap="square"
         id="path4" />
    </pattern>
    <symbol
       id="*MODEL_SPACE" />
    <symbol
       id="*PAPER_SPACE" />
  </defs>
  <g
     inkscape:groupmode="layer"
     inkscape:label="0"
     id="g179"
     transform="translate(398.74016,-308.0315)">
    <path
       d="m -39.874016,400.62992 a 3.401575,3.401575 0 0 1 6.80315,0 3.401575,3.401575 0 0 1 -6.80315,0 z"
       style="fill:none;stroke:#ff0000"
       id="path11" />
    <path
       d="m -293.85827,548.7874 a 3.401575,3.401575 0 0 1 6.80315,0 3.401575,3.401575 0 0 1 -6.80315,0 z"
       style="fill:none;stroke:#ff0000"
       id="path12" />
    <path
       d="m -39.874016,548.7874 a 3.401575,3.401575 0 0 1 6.80315,0 3.401575,3.401575 0 0 1 -6.80315,0 z"
       style="fill:none;stroke:#ff0000"
       id="path13" />
    <path
       d="M -272.12598,539.71654 H -52.913386 V 424.44094 H -272.12598 Z"
       style="fill:none;stroke:#ff0000"
       id="path14" />
    <path
       d="m -293.85827,400.62992 a 3.401575,3.401575 0 0 1 6.80315,0 3.401575,3.401575 0 0 1 -6.80315,0 z"
       style="fill:none;stroke:#ff0000"
       id="path15" />
    <path
       d="m -165.92126,733.6063 a 3.401575,3.401575 0 0 1 6.80315,0 3.401575,3.401575 0 0 1 -6.80315,0 z"
       style="fill:none;stroke:#ff0000"
       id="path137" />
    <path
       d="m -324.66142,869.66929 a 3.401575,3.401575 0 0 1 6.80315,0 3.401575,3.401575 0 0 1 -6.80315,0 z"
       style="fill:none;stroke:#ff0000"
       id="path138" />
    <path
       d="m -7.181102,869.66929 a 3.401575,3.401575 0 0 1 6.803149,0 3.401575,3.401575 0 0 1 -6.803149,0 z"
       style="fill:none;stroke:#ff0000"
       id="path139" />
    <path
       d="m -165.92126,869.66929 a 3.401575,3.401575 0 0 1 6.80315,0 3.401575,3.401575 0 0 1 -6.80315,0 z"
       style="fill:none;stroke:#ff0000"
       id="path140" />
    <path
       d="m -324.66142,733.6063 a 3.401575,3.401575 0 0 1 6.80315,0 3.401575,3.401575 0 0 1 -6.80315,0 z"
       style="fill:none;stroke:#ff0000"
       id="path141" />
    <path
       d="m -7.181102,733.6063 a 3.401575,3.401575 0 0 1 6.803149,0 3.401575,3.401575 0 0 1 -6.803149,0 z"
       style="fill:none;stroke:#ff0000"
       id="path142" />
    <path
       d="m -165.92126,599.43307 a 3.401575,3.401575 0 0 1 6.80315,0 3.401575,3.401575 0 0 1 -6.80315,0 z"
       style="fill:none;stroke:#ff0000"
       id="path179" />
  </g>
</svg>
