999
"DXF R12 Output" (www.mydxf.blogspot.com)
 0 
SECTION
 2 
HEADER
 9 
$ACADVER
 1 
AC1009
 9 
$EXTMIN
 10 
 0 
 20 
 0 
 9 
$EXTMAX
 10 
 8.5 
 20 
 11 
 0 
ENDSEC
 0 
SECTION
 2 
ENTITIES
0
LINE
8
Layer 1
10
0.793749
20
211.793749
11
-0.793749
21
210.206251
0
LINE
8
Layer 1
10
0.000000
20
212.322915
11
0.000000
21
209.677085
0
LINE
8
Layer 1
10
2.116664
20
209.941668
11
1.058332
21
208.883336
0
LINE
8
Layer 1
10
1.587498
20
210.470834
11
0.529166
21
209.412502
0
LINE
8
Layer 1
10
1.058332
20
211.000000
11
0.000000
21
209.941668
0
LINE
8
0
10
140.799955
20
115.500222
11
140.713416
21
116.152516
0
LINE
8
0
10
140.713416
20
116.152516
11
140.465019
21
116.750221
0
LINE
8
0
10
140.465019
20
116.750221
11
140.071590
21
117.264192
0
LINE
8
0
10
140.071590
20
117.264192
11
139.549956
21
117.665283
0
LINE
8
0
10
139.549956
20
117.665283
11
138.941784
21
117.916486
0
LINE
8
0
10
138.941784
20
117.916486
11
138.299958
21
118.000220
0
LINE
8
0
10
138.299958
20
118.000220
11
137.658131
21
117.916486
0
LINE
8
0
10
137.658131
20
117.916486
11
137.049959
21
117.665283
0
LINE
8
0
10
137.049959
20
117.665283
11
136.528326
21
117.264192
0
LINE
8
0
10
136.528326
20
117.264192
11
136.134897
21
116.750221
0
LINE
8
0
10
136.134897
20
116.750221
11
135.886499
21
116.152516
0
LINE
8
0
10
135.886499
20
116.152516
11
135.799960
21
115.500222
0
LINE
8
0
10
135.799960
20
115.500222
11
135.886499
21
114.847929
0
LINE
8
0
10
135.886499
20
114.847929
11
136.134897
21
114.250224
0
LINE
8
0
10
136.134897
20
114.250224
11
136.528326
21
113.736253
0
LINE
8
0
10
136.528326
20
113.736253
11
137.049959
21
113.335161
0
LINE
8
0
10
137.049959
20
113.335161
11
137.658131
21
113.083959
0
LINE
8
0
10
137.658131
20
113.083959
11
138.299958
21
113.000225
0
LINE
8
0
10
138.299958
20
113.000225
11
138.941784
21
113.083959
0
LINE
8
0
10
138.941784
20
113.083959
11
139.549956
21
113.335161
0
LINE
8
0
10
139.549956
20
113.335161
11
140.071590
21
113.736253
0
LINE
8
0
10
140.071590
20
113.736253
11
140.465019
21
114.250224
0
LINE
8
0
10
140.465019
20
114.250224
11
140.713416
21
114.847929
0
LINE
8
0
10
140.713416
20
114.847929
11
140.799955
21
115.500222
0
LINE
8
0
10
140.799955
20
115.500222
11
140.799955
21
115.500222
0
LINE
8
0
10
140.799955
20
195.425122
11
140.713416
21
196.077415
0
LINE
8
0
10
140.713416
20
196.077415
11
140.465019
21
196.675120
0
LINE
8
0
10
140.465019
20
196.675120
11
140.071590
21
197.189091
0
LINE
8
0
10
140.071590
20
197.189091
11
139.549956
21
197.590183
0
LINE
8
0
10
139.549956
20
197.590183
11
138.941784
21
197.841385
0
LINE
8
0
10
138.941784
20
197.841385
11
138.299958
21
197.925119
0
LINE
8
0
10
138.299958
20
197.925119
11
137.658131
21
197.841385
0
LINE
8
0
10
137.658131
20
197.841385
11
137.049959
21
197.590183
0
LINE
8
0
10
137.049959
20
197.590183
11
136.528326
21
197.189091
0
LINE
8
0
10
136.528326
20
197.189091
11
136.134897
21
196.675120
0
LINE
8
0
10
136.134897
20
196.675120
11
135.886499
21
196.077415
0
LINE
8
0
10
135.886499
20
196.077415
11
135.799960
21
195.425122
0
LINE
8
0
10
135.799960
20
195.425122
11
135.886499
21
194.772828
0
LINE
8
0
10
135.886499
20
194.772828
11
136.134897
21
194.175123
0
LINE
8
0
10
136.134897
20
194.175123
11
136.528326
21
193.661152
0
LINE
8
0
10
136.528326
20
193.661152
11
137.049959
21
193.260061
0
LINE
8
0
10
137.049959
20
193.260061
11
137.658131
21
193.008859
0
LINE
8
0
10
137.658131
20
193.008859
11
138.299958
21
192.925125
0
LINE
8
0
10
138.299958
20
192.925125
11
138.941784
21
193.008859
0
LINE
8
0
10
138.941784
20
193.008859
11
139.549956
21
193.260061
0
LINE
8
0
10
139.549956
20
193.260061
11
140.071590
21
193.661152
0
LINE
8
0
10
140.071590
20
193.661152
11
140.465019
21
194.175123
0
LINE
8
0
10
140.465019
20
194.175123
11
140.713416
21
194.772828
0
LINE
8
0
10
140.713416
20
194.772828
11
140.799955
21
195.425122
0
LINE
8
0
10
140.799955
20
195.425122
11
140.799955
21
195.425122
0
LINE
8
0
10
140.799955
20
35.575323
11
140.713416
21
36.227617
0
LINE
8
0
10
140.713416
20
36.227617
11
140.465019
21
36.825322
0
LINE
8
0
10
140.465019
20
36.825322
11
140.071590
21
37.339293
0
LINE
8
0
10
140.071590
20
37.339293
11
139.549956
21
37.740384
0
LINE
8
0
10
139.549956
20
37.740384
11
138.941784
21
37.991586
0
LINE
8
0
10
138.941784
20
37.991586
11
138.299958
21
38.075320
0
LINE
8
0
10
138.299958
20
38.075320
11
137.658131
21
37.991586
0
LINE
8
0
10
137.658131
20
37.991586
11
137.049959
21
37.740384
0
LINE
8
0
10
137.049959
20
37.740384
11
136.528326
21
37.339293
0
LINE
8
0
10
136.528326
20
37.339293
11
136.134897
21
36.825322
0
LINE
8
0
10
136.134897
20
36.825322
11
135.886499
21
36.227617
0
LINE
8
0
10
135.886499
20
36.227617
11
135.799960
21
35.575323
0
LINE
8
0
10
135.799960
20
35.575323
11
135.886499
21
34.923030
0
LINE
8
0
10
135.886499
20
34.923030
11
136.134897
21
34.325325
0
LINE
8
0
10
136.134897
20
34.325325
11
136.528326
21
33.811353
0
LINE
8
0
10
136.528326
20
33.811353
11
137.049959
21
33.410262
0
LINE
8
0
10
137.049959
20
33.410262
11
137.658131
21
33.159060
0
LINE
8
0
10
137.658131
20
33.159060
11
138.299958
21
33.075326
0
LINE
8
0
10
138.299958
20
33.075326
11
138.941784
21
33.159060
0
LINE
8
0
10
138.941784
20
33.159060
11
139.549956
21
33.410262
0
LINE
8
0
10
139.549956
20
33.410262
11
140.071590
21
33.811353
0
LINE
8
0
10
140.071590
20
33.811353
11
140.465019
21
34.325325
0
LINE
8
0
10
140.465019
20
34.325325
11
140.713416
21
34.923030
0
LINE
8
0
10
140.713416
20
34.923030
11
140.799955
21
35.575323
0
LINE
8
0
10
140.799955
20
35.575323
11
140.799955
21
35.575323
0
LINE
8
0
10
171.499917
20
165.995160
11
171.326840
21
167.299747
0
LINE
8
0
10
171.326840
20
167.299747
11
170.830045
21
168.495158
0
LINE
8
0
10
170.830045
20
168.495158
11
170.043187
21
169.523100
0
LINE
8
0
10
170.043187
20
169.523100
11
168.999920
21
170.325282
0
LINE
8
0
10
168.999920
20
170.325282
11
167.783576
21
170.827687
0
LINE
8
0
10
167.783576
20
170.827687
11
166.499923
21
170.995155
0
LINE
8
0
10
166.499923
20
170.995155
11
165.216270
21
170.827687
0
LINE
8
0
10
165.216270
20
170.827687
11
163.999926
21
170.325282
0
LINE
8
0
10
163.999926
20
170.325282
11
162.956659
21
169.523100
0
LINE
8
0
10
162.956659
20
169.523100
11
162.169801
21
168.495158
0
LINE
8
0
10
162.169801
20
168.495158
11
161.673006
21
167.299747
0
LINE
8
0
10
161.673006
20
167.299747
11
161.499929
21
165.995160
0
LINE
8
0
10
161.499929
20
165.995160
11
161.673006
21
164.690574
0
LINE
8
0
10
161.673006
20
164.690574
11
162.169801
21
163.495163
0
LINE
8
0
10
162.169801
20
163.495163
11
162.956659
21
162.467221
0
LINE
8
0
10
162.956659
20
162.467221
11
163.999926
21
161.665038
0
LINE
8
0
10
163.999926
20
161.665038
11
165.216270
21
161.162634
0
LINE
8
0
10
165.216270
20
161.162634
11
166.499923
21
160.995166
0
LINE
8
0
10
166.499923
20
160.995166
11
167.783576
21
161.162634
0
LINE
8
0
10
167.783576
20
161.162634
11
168.999920
21
161.665038
0
LINE
8
0
10
168.999920
20
161.665038
11
170.043187
21
162.467221
0
LINE
8
0
10
170.043187
20
162.467221
11
170.830045
21
163.495163
0
LINE
8
0
10
170.830045
20
163.495163
11
171.326840
21
164.690574
0
LINE
8
0
10
171.326840
20
164.690574
11
171.499917
21
165.995160
0
LINE
8
0
10
171.499917
20
165.995160
11
171.499917
21
165.995160
0
LINE
8
0
10
147.499948
20
165.995160
11
147.398366
21
167.002834
0
LINE
8
0
10
147.398366
20
167.002834
11
147.107023
21
167.941384
0
LINE
8
0
10
147.107023
20
167.941384
11
146.646027
21
168.790705
0
LINE
8
0
10
146.646027
20
168.790705
11
146.035483
21
169.530690
0
LINE
8
0
10
146.035483
20
169.530690
11
145.295498
21
170.141234
0
LINE
8
0
10
145.295498
20
170.141234
11
144.446177
21
170.602230
0
LINE
8
0
10
144.446177
20
170.602230
11
143.507627
21
170.893572
0
LINE
8
0
10
143.507627
20
170.893572
11
142.499953
21
170.995154
0
LINE
8
0
10
142.499953
20
170.995154
11
141.492280
21
170.893572
0
LINE
8
0
10
141.492280
20
170.893572
11
140.553730
21
170.602230
0
LINE
8
0
10
140.553730
20
170.602230
11
139.704409
21
170.141234
0
LINE
8
0
10
139.704409
20
170.141234
11
138.964424
21
169.530690
0
LINE
8
0
10
138.964424
20
169.530690
11
138.353880
21
168.790705
0
LINE
8
0
10
138.353880
20
168.790705
11
137.892884
21
167.941384
0
LINE
8
0
10
137.892884
20
167.941384
11
137.601541
21
167.002834
0
LINE
8
0
10
137.601541
20
167.002834
11
137.499959
21
165.995160
0
LINE
8
0
10
137.499959
20
165.995160
11
137.601541
21
164.987487
0
LINE
8
0
10
137.601541
20
164.987487
11
137.892884
21
164.048937
0
LINE
8
0
10
137.892884
20
164.048937
11
138.353880
21
163.199616
0
LINE
8
0
10
138.353880
20
163.199616
11
138.964424
21
162.459631
0
LINE
8
0
10
138.964424
20
162.459631
11
139.704409
21
161.849087
0
LINE
8
0
10
139.704409
20
161.849087
11
140.553730
21
161.388091
0
LINE
8
0
10
140.553730
20
161.388091
11
141.492280
21
161.096749
0
LINE
8
0
10
141.492280
20
161.096749
11
142.499953
21
160.995166
0
LINE
8
0
10
142.499953
20
160.995166
11
143.507627
21
161.096749
0
LINE
8
0
10
143.507627
20
161.096749
11
144.446177
21
161.388091
0
LINE
8
0
10
144.446177
20
161.388091
11
145.295498
21
161.849087
0
LINE
8
0
10
145.295498
20
161.849087
11
146.035483
21
162.459631
0
LINE
8
0
10
146.035483
20
162.459631
11
146.646027
21
163.199616
0
LINE
8
0
10
146.646027
20
163.199616
11
147.107023
21
164.048937
0
LINE
8
0
10
147.107023
20
164.048937
11
147.398366
21
164.987487
0
LINE
8
0
10
147.398366
20
164.987487
11
147.499948
21
165.995160
0
LINE
8
0
10
147.499948
20
165.995160
11
147.499948
21
165.995160
0
LINE
8
0
10
177.499908
20
176.387451
11
177.397834
21
177.394688
0
LINE
8
0
10
177.397834
20
177.394688
11
177.106173
21
178.332770
0
LINE
8
0
10
177.106173
20
178.332770
11
176.645014
21
179.181620
0
LINE
8
0
10
176.645014
20
179.181620
11
176.034448
21
179.921160
0
LINE
8
0
10
176.034448
20
179.921160
11
175.294565
21
180.531309
0
LINE
8
0
10
175.294565
20
180.531309
11
174.445455
21
180.991989
0
LINE
8
0
10
174.445455
20
180.991989
11
173.507209
21
181.283122
0
LINE
8
0
10
173.507209
20
181.283122
11
172.499915
21
181.384628
0
LINE
8
0
10
172.499915
20
181.384628
11
171.492622
21
181.283122
0
LINE
8
0
10
171.492622
20
181.283122
11
170.554375
21
180.991989
0
LINE
8
0
10
170.554375
20
180.991989
11
169.705265
21
180.531309
0
LINE
8
0
10
169.705265
20
180.531309
11
168.965382
21
179.921160
0
LINE
8
0
10
168.965382
20
179.921160
11
168.354816
21
179.181620
0
LINE
8
0
10
168.354816
20
179.181620
11
167.893657
21
178.332770
0
LINE
8
0
10
167.893657
20
178.332770
11
167.601996
21
177.394688
0
LINE
8
0
10
167.601996
20
177.394688
11
167.499922
21
176.387451
0
LINE
8
0
10
167.499922
20
176.387451
11
167.601996
21
175.380215
0
LINE
8
0
10
167.601996
20
175.380215
11
167.893657
21
174.442133
0
LINE
8
0
10
167.893657
20
174.442133
11
168.354816
21
173.593283
0
LINE
8
0
10
168.354816
20
173.593283
11
168.965382
21
172.853743
0
LINE
8
0
10
168.965382
20
172.853743
11
169.705265
21
172.243594
0
LINE
8
0
10
169.705265
20
172.243594
11
170.554375
21
171.782914
0
LINE
8
0
10
170.554375
20
171.782914
11
171.492622
21
171.491781
0
LINE
8
0
10
171.492622
20
171.491781
11
172.499915
21
171.390275
0
LINE
8
0
10
172.499915
20
171.390275
11
173.507209
21
171.491781
0
LINE
8
0
10
173.507209
20
171.491781
11
174.445455
21
171.782914
0
LINE
8
0
10
174.445455
20
171.782914
11
175.294565
21
172.243594
0
LINE
8
0
10
175.294565
20
172.243594
11
176.034448
21
172.853743
0
LINE
8
0
10
176.034448
20
172.853743
11
176.645014
21
173.593283
0
LINE
8
0
10
176.645014
20
173.593283
11
177.106173
21
174.442133
0
LINE
8
0
10
177.106173
20
174.442133
11
177.397834
21
175.380215
0
LINE
8
0
10
177.397834
20
175.380215
11
177.499908
21
176.387451
0
LINE
8
0
10
177.499908
20
176.387451
11
177.499908
21
176.387451
0
LINE
8
0
10
195.499887
20
186.780134
11
195.397813
21
187.787370
0
LINE
8
0
10
195.397813
20
187.787370
11
195.106151
21
188.725453
0
LINE
8
0
10
195.106151
20
188.725453
11
194.644993
21
189.574303
0
LINE
8
0
10
194.644993
20
189.574303
11
194.034427
21
190.313842
0
LINE
8
0
10
194.034427
20
190.313842
11
193.294544
21
190.923991
0
LINE
8
0
10
193.294544
20
190.923991
11
192.445434
21
191.384672
0
LINE
8
0
10
192.445434
20
191.384672
11
191.507187
21
191.675804
0
LINE
8
0
10
191.507187
20
191.675804
11
190.499894
21
191.777311
0
LINE
8
0
10
190.499894
20
191.777311
11
189.492600
21
191.675804
0
LINE
8
0
10
189.492600
20
191.675804
11
188.554353
21
191.384672
0
LINE
8
0
10
188.554353
20
191.384672
11
187.705243
21
190.923991
0
LINE
8
0
10
187.705243
20
190.923991
11
186.965360
21
190.313842
0
LINE
8
0
10
186.965360
20
190.313842
11
186.354794
21
189.574303
0
LINE
8
0
10
186.354794
20
189.574303
11
185.893636
21
188.725453
0
LINE
8
0
10
185.893636
20
188.725453
11
185.601974
21
187.787370
0
LINE
8
0
10
185.601974
20
187.787370
11
185.499901
21
186.780134
0
LINE
8
0
10
185.499901
20
186.780134
11
185.601974
21
185.772898
0
LINE
8
0
10
185.601974
20
185.772898
11
185.893636
21
184.834815
0
LINE
8
0
10
185.893636
20
184.834815
11
186.354794
21
183.985965
0
LINE
8
0
10
186.354794
20
183.985965
11
186.965360
21
183.246426
0
LINE
8
0
10
186.965360
20
183.246426
11
187.705243
21
182.636277
0
LINE
8
0
10
187.705243
20
182.636277
11
188.554353
21
182.175597
0
LINE
8
0
10
188.554353
20
182.175597
11
189.492600
21
181.884464
0
LINE
8
0
10
189.492600
20
181.884464
11
190.499894
21
181.782958
0
LINE
8
0
10
190.499894
20
181.782958
11
191.507187
21
181.884464
0
LINE
8
0
10
191.507187
20
181.884464
11
192.445434
21
182.175597
0
LINE
8
0
10
192.445434
20
182.175597
11
193.294544
21
182.636277
0
LINE
8
0
10
193.294544
20
182.636277
11
194.034427
21
183.246426
0
LINE
8
0
10
194.034427
20
183.246426
11
194.644993
21
183.985965
0
LINE
8
0
10
194.644993
20
183.985965
11
195.106151
21
184.834815
0
LINE
8
0
10
195.106151
20
184.834815
11
195.397813
21
185.772898
0
LINE
8
0
10
195.397813
20
185.772898
11
195.499887
21
186.780134
0
LINE
8
0
10
195.499887
20
186.780134
11
195.499887
21
186.780134
0
LINE
8
0
10
195.499887
20
165.995160
11
195.397813
21
167.002396
0
LINE
8
0
10
195.397813
20
167.002396
11
195.106151
21
167.940479
0
LINE
8
0
10
195.106151
20
167.940479
11
194.644993
21
168.789329
0
LINE
8
0
10
194.644993
20
168.789329
11
194.034427
21
169.528868
0
LINE
8
0
10
194.034427
20
169.528868
11
193.294544
21
170.139018
0
LINE
8
0
10
193.294544
20
170.139018
11
192.445434
21
170.599698
0
LINE
8
0
10
192.445434
20
170.599698
11
191.507187
21
170.890831
0
LINE
8
0
10
191.507187
20
170.890831
11
190.499894
21
170.992337
0
LINE
8
0
10
190.499894
20
170.992337
11
189.492600
21
170.890831
0
LINE
8
0
10
189.492600
20
170.890831
11
188.554353
21
170.599698
0
LINE
8
0
10
188.554353
20
170.599698
11
187.705243
21
170.139018
0
LINE
8
0
10
187.705243
20
170.139018
11
186.965360
21
169.528868
0
LINE
8
0
10
186.965360
20
169.528868
11
186.354794
21
168.789329
0
LINE
8
0
10
186.354794
20
168.789329
11
185.893636
21
167.940479
0
LINE
8
0
10
185.893636
20
167.940479
11
185.601974
21
167.002396
0
LINE
8
0
10
185.601974
20
167.002396
11
185.499901
21
165.995160
0
LINE
8
0
10
185.499901
20
165.995160
11
185.601974
21
164.987924
0
LINE
8
0
10
185.601974
20
164.987924
11
185.893636
21
164.049842
0
LINE
8
0
10
185.893636
20
164.049842
11
186.354794
21
163.200991
0
LINE
8
0
10
186.354794
20
163.200991
11
186.965360
21
162.461452
0
LINE
8
0
10
186.965360
20
162.461452
11
187.705243
21
161.851303
0
LINE
8
0
10
187.705243
20
161.851303
11
188.554353
21
161.390623
0
LINE
8
0
10
188.554353
20
161.390623
11
189.492600
21
161.099490
0
LINE
8
0
10
189.492600
20
161.099490
11
190.499894
21
160.997984
0
LINE
8
0
10
190.499894
20
160.997984
11
191.507187
21
161.099490
0
LINE
8
0
10
191.507187
20
161.099490
11
192.445434
21
161.390623
0
LINE
8
0
10
192.445434
20
161.390623
11
193.294544
21
161.851303
0
LINE
8
0
10
193.294544
20
161.851303
11
194.034427
21
162.461452
0
LINE
8
0
10
194.034427
20
162.461452
11
194.644993
21
163.200991
0
LINE
8
0
10
194.644993
20
163.200991
11
195.106151
21
164.049842
0
LINE
8
0
10
195.106151
20
164.049842
11
195.397813
21
164.987924
0
LINE
8
0
10
195.397813
20
164.987924
11
195.499887
21
165.995160
0
LINE
8
0
10
195.499887
20
165.995160
11
195.499887
21
165.995160
0
LINE
8
0
10
177.499908
20
134.817504
11
177.397834
21
135.824740
0
LINE
8
0
10
177.397834
20
135.824740
11
177.106173
21
136.762823
0
LINE
8
0
10
177.106173
20
136.762823
11
176.645014
21
137.611673
0
LINE
8
0
10
176.645014
20
137.611673
11
176.034448
21
138.351212
0
LINE
8
0
10
176.034448
20
138.351212
11
175.294565
21
138.961361
0
LINE
8
0
10
175.294565
20
138.961361
11
174.445455
21
139.422042
0
LINE
8
0
10
174.445455
20
139.422042
11
173.507209
21
139.713174
0
LINE
8
0
10
173.507209
20
139.713174
11
172.499915
21
139.814680
0
LINE
8
0
10
172.499915
20
139.814680
11
171.492622
21
139.713174
0
LINE
8
0
10
171.492622
20
139.713174
11
170.554375
21
139.422042
0
LINE
8
0
10
170.554375
20
139.422042
11
169.705265
21
138.961361
0
LINE
8
0
10
169.705265
20
138.961361
11
168.965382
21
138.351212
0
LINE
8
0
10
168.965382
20
138.351212
11
168.354816
21
137.611673
0
LINE
8
0
10
168.354816
20
137.611673
11
167.893657
21
136.762823
0
LINE
8
0
10
167.893657
20
136.762823
11
167.601996
21
135.824740
0
LINE
8
0
10
167.601996
20
135.824740
11
167.499922
21
134.817504
0
LINE
8
0
10
167.499922
20
134.817504
11
167.601996
21
133.810268
0
LINE
8
0
10
167.601996
20
133.810268
11
167.893657
21
132.872185
0
LINE
8
0
10
167.893657
20
132.872185
11
168.354816
21
132.023335
0
LINE
8
0
10
168.354816
20
132.023335
11
168.965382
21
131.283796
0
LINE
8
0
10
168.965382
20
131.283796
11
169.705265
21
130.673647
0
LINE
8
0
10
169.705265
20
130.673647
11
170.554375
21
130.212966
0
LINE
8
0
10
170.554375
20
130.212966
11
171.492622
21
129.921834
0
LINE
8
0
10
171.492622
20
129.921834
11
172.499915
21
129.820328
0
LINE
8
0
10
172.499915
20
129.820328
11
173.507209
21
129.921834
0
LINE
8
0
10
173.507209
20
129.921834
11
174.445455
21
130.212966
0
LINE
8
0
10
174.445455
20
130.212966
11
175.294565
21
130.673647
0
LINE
8
0
10
175.294565
20
130.673647
11
176.034448
21
131.283796
0
LINE
8
0
10
176.034448
20
131.283796
11
176.645014
21
132.023335
0
LINE
8
0
10
176.645014
20
132.023335
11
177.106173
21
132.872185
0
LINE
8
0
10
177.106173
20
132.872185
11
177.397834
21
133.810268
0
LINE
8
0
10
177.397834
20
133.810268
11
177.499908
21
134.817504
0
LINE
8
0
10
177.499908
20
134.817504
11
177.499908
21
134.817504
0
LINE
8
0
10
177.499908
20
114.032530
11
177.397834
21
115.039766
0
LINE
8
0
10
177.397834
20
115.039766
11
177.106173
21
115.977849
0
LINE
8
0
10
177.106173
20
115.977849
11
176.645014
21
116.826699
0
LINE
8
0
10
176.645014
20
116.826699
11
176.034448
21
117.566238
0
LINE
8
0
10
176.034448
20
117.566238
11
175.294565
21
118.176388
0
LINE
8
0
10
175.294565
20
118.176388
11
174.445455
21
118.637068
0
LINE
8
0
10
174.445455
20
118.637068
11
173.507209
21
118.928200
0
LINE
8
0
10
173.507209
20
118.928200
11
172.499915
21
119.029707
0
LINE
8
0
10
172.499915
20
119.029707
11
171.492622
21
118.928200
0
LINE
8
0
10
171.492622
20
118.928200
11
170.554375
21
118.637068
0
LINE
8
0
10
170.554375
20
118.637068
11
169.705265
21
118.176388
0
LINE
8
0
10
169.705265
20
118.176388
11
168.965382
21
117.566238
0
LINE
8
0
10
168.965382
20
117.566238
11
168.354816
21
116.826699
0
LINE
8
0
10
168.354816
20
116.826699
11
167.893657
21
115.977849
0
LINE
8
0
10
167.893657
20
115.977849
11
167.601996
21
115.039766
0
LINE
8
0
10
167.601996
20
115.039766
11
167.499922
21
114.032530
0
LINE
8
0
10
167.499922
20
114.032530
11
167.601996
21
113.025294
0
LINE
8
0
10
167.601996
20
113.025294
11
167.893657
21
112.087212
0
LINE
8
0
10
167.893657
20
112.087212
11
168.354816
21
111.238361
0
LINE
8
0
10
168.354816
20
111.238361
11
168.965382
21
110.498822
0
LINE
8
0
10
168.965382
20
110.498822
11
169.705265
21
109.888673
0
LINE
8
0
10
169.705265
20
109.888673
11
170.554375
21
109.427993
0
LINE
8
0
10
170.554375
20
109.427993
11
171.492622
21
109.136860
0
LINE
8
0
10
171.492622
20
109.136860
11
172.499915
21
109.035354
0
LINE
8
0
10
172.499915
20
109.035354
11
173.507209
21
109.136860
0
LINE
8
0
10
173.507209
20
109.136860
11
174.445455
21
109.427993
0
LINE
8
0
10
174.445455
20
109.427993
11
175.294565
21
109.888673
0
LINE
8
0
10
175.294565
20
109.888673
11
176.034448
21
110.498822
0
LINE
8
0
10
176.034448
20
110.498822
11
176.645014
21
111.238361
0
LINE
8
0
10
176.645014
20
111.238361
11
177.106173
21
112.087212
0
LINE
8
0
10
177.106173
20
112.087212
11
177.397834
21
113.025294
0
LINE
8
0
10
177.397834
20
113.025294
11
177.499908
21
114.032530
0
LINE
8
0
10
177.499908
20
114.032530
11
177.499908
21
114.032530
0
LINE
8
0
10
177.499908
20
93.247557
11
177.397834
21
94.254793
0
LINE
8
0
10
177.397834
20
94.254793
11
177.106173
21
95.192875
0
LINE
8
0
10
177.106173
20
95.192875
11
176.645014
21
96.041726
0
LINE
8
0
10
176.645014
20
96.041726
11
176.034448
21
96.781265
0
LINE
8
0
10
176.034448
20
96.781265
11
175.294565
21
97.391414
0
LINE
8
0
10
175.294565
20
97.391414
11
174.445455
21
97.852094
0
LINE
8
0
10
174.445455
20
97.852094
11
173.507209
21
98.143227
0
LINE
8
0
10
173.507209
20
98.143227
11
172.499915
21
98.244733
0
LINE
8
0
10
172.499915
20
98.244733
11
171.492622
21
98.143227
0
LINE
8
0
10
171.492622
20
98.143227
11
170.554375
21
97.852094
0
LINE
8
0
10
170.554375
20
97.852094
11
169.705265
21
97.391414
0
LINE
8
0
10
169.705265
20
97.391414
11
168.965382
21
96.781265
0
LINE
8
0
10
168.965382
20
96.781265
11
168.354816
21
96.041726
0
LINE
8
0
10
168.354816
20
96.041726
11
167.893657
21
95.192875
0
LINE
8
0
10
167.893657
20
95.192875
11
167.601996
21
94.254793
0
LINE
8
0
10
167.601996
20
94.254793
11
167.499922
21
93.247557
0
LINE
8
0
10
167.499922
20
93.247557
11
167.601996
21
92.240320
0
LINE
8
0
10
167.601996
20
92.240320
11
167.893657
21
91.302238
0
LINE
8
0
10
167.893657
20
91.302238
11
168.354816
21
90.453388
0
LINE
8
0
10
168.354816
20
90.453388
11
168.965382
21
89.713848
0
LINE
8
0
10
168.965382
20
89.713848
11
169.705265
21
89.103699
0
LINE
8
0
10
169.705265
20
89.103699
11
170.554375
21
88.643019
0
LINE
8
0
10
170.554375
20
88.643019
11
171.492622
21
88.351886
0
LINE
8
0
10
171.492622
20
88.351886
11
172.499915
21
88.250380
0
LINE
8
0
10
172.499915
20
88.250380
11
173.507209
21
88.351886
0
LINE
8
0
10
173.507209
20
88.351886
11
174.445455
21
88.643019
0
LINE
8
0
10
174.445455
20
88.643019
11
175.294565
21
89.103699
0
LINE
8
0
10
175.294565
20
89.103699
11
176.034448
21
89.713848
0
LINE
8
0
10
176.034448
20
89.713848
11
176.645014
21
90.453388
0
LINE
8
0
10
176.645014
20
90.453388
11
177.106173
21
91.302238
0
LINE
8
0
10
177.106173
20
91.302238
11
177.397834
21
92.240320
0
LINE
8
0
10
177.397834
20
92.240320
11
177.499908
21
93.247557
0
LINE
8
0
10
177.499908
20
93.247557
11
177.499908
21
93.247557
0
LINE
8
0
10
171.499917
20
103.640239
11
171.326840
21
104.944826
0
LINE
8
0
10
171.326840
20
104.944826
11
170.830045
21
106.140236
0
LINE
8
0
10
170.830045
20
106.140236
11
170.043187
21
107.168179
0
LINE
8
0
10
170.043187
20
107.168179
11
168.999920
21
107.970361
0
LINE
8
0
10
168.999920
20
107.970361
11
167.783576
21
108.472765
0
LINE
8
0
10
167.783576
20
108.472765
11
166.499923
21
108.640233
0
LINE
8
0
10
166.499923
20
108.640233
11
165.216270
21
108.472765
0
LINE
8
0
10
165.216270
20
108.472765
11
163.999926
21
107.970361
0
LINE
8
0
10
163.999926
20
107.970361
11
162.956659
21
107.168179
0
LINE
8
0
10
162.956659
20
107.168179
11
162.169801
21
106.140236
0
LINE
8
0
10
162.169801
20
106.140236
11
161.673006
21
104.944826
0
LINE
8
0
10
161.673006
20
104.944826
11
161.499929
21
103.640239
0
LINE
8
0
10
161.499929
20
103.640239
11
161.673006
21
102.335652
0
LINE
8
0
10
161.673006
20
102.335652
11
162.169801
21
101.140242
0
LINE
8
0
10
162.169801
20
101.140242
11
162.956659
21
100.112300
0
LINE
8
0
10
162.956659
20
100.112300
11
163.999926
21
99.310117
0
LINE
8
0
10
163.999926
20
99.310117
11
165.216270
21
98.807713
0
LINE
8
0
10
165.216270
20
98.807713
11
166.499923
21
98.640245
0
LINE
8
0
10
166.499923
20
98.640245
11
167.783576
21
98.807713
0
LINE
8
0
10
167.783576
20
98.807713
11
168.999920
21
99.310117
0
LINE
8
0
10
168.999920
20
99.310117
11
170.043187
21
100.112300
0
LINE
8
0
10
170.043187
20
100.112300
11
170.830045
21
101.140242
0
LINE
8
0
10
170.830045
20
101.140242
11
171.326840
21
102.335652
0
LINE
8
0
10
171.326840
20
102.335652
11
171.499917
21
103.640239
0
LINE
8
0
10
171.499917
20
103.640239
11
171.499917
21
103.640239
0
LINE
8
0
10
165.499923
20
134.817504
11
165.397850
21
135.824740
0
LINE
8
0
10
165.397850
20
135.824740
11
165.106188
21
136.762823
0
LINE
8
0
10
165.106188
20
136.762823
11
164.645030
21
137.611673
0
LINE
8
0
10
164.645030
20
137.611673
11
164.034464
21
138.351212
0
LINE
8
0
10
164.034464
20
138.351212
11
163.294581
21
138.961361
0
LINE
8
0
10
163.294581
20
138.961361
11
162.445471
21
139.422042
0
LINE
8
0
10
162.445471
20
139.422042
11
161.507224
21
139.713174
0
LINE
8
0
10
161.507224
20
139.713174
11
160.499931
21
139.814680
0
LINE
8
0
10
160.499931
20
139.814680
11
159.492637
21
139.713174
0
LINE
8
0
10
159.492637
20
139.713174
11
158.554390
21
139.422042
0
LINE
8
0
10
158.554390
20
139.422042
11
157.705280
21
138.961361
0
LINE
8
0
10
157.705280
20
138.961361
11
156.965397
21
138.351212
0
LINE
8
0
10
156.965397
20
138.351212
11
156.354831
21
137.611673
0
LINE
8
0
10
156.354831
20
137.611673
11
155.893673
21
136.762823
0
LINE
8
0
10
155.893673
20
136.762823
11
155.602011
21
135.824740
0
LINE
8
0
10
155.602011
20
135.824740
11
155.499938
21
134.817504
0
LINE
8
0
10
155.499938
20
134.817504
11
155.602011
21
133.810268
0
LINE
8
0
10
155.602011
20
133.810268
11
155.893673
21
132.872185
0
LINE
8
0
10
155.893673
20
132.872185
11
156.354831
21
132.023335
0
LINE
8
0
10
156.354831
20
132.023335
11
156.965397
21
131.283796
0
LINE
8
0
10
156.965397
20
131.283796
11
157.705280
21
130.673647
0
LINE
8
0
10
157.705280
20
130.673647
11
158.554390
21
130.212966
0
LINE
8
0
10
158.554390
20
130.212966
11
159.492637
21
129.921834
0
LINE
8
0
10
159.492637
20
129.921834
11
160.499931
21
129.820328
0
LINE
8
0
10
160.499931
20
129.820328
11
161.507224
21
129.921834
0
LINE
8
0
10
161.507224
20
129.921834
11
162.445471
21
130.212966
0
LINE
8
0
10
162.445471
20
130.212966
11
163.294581
21
130.673647
0
LINE
8
0
10
163.294581
20
130.673647
11
164.034464
21
131.283796
0
LINE
8
0
10
164.034464
20
131.283796
11
164.645030
21
132.023335
0
LINE
8
0
10
164.645030
20
132.023335
11
165.106188
21
132.872185
0
LINE
8
0
10
165.106188
20
132.872185
11
165.397850
21
133.810268
0
LINE
8
0
10
165.397850
20
133.810268
11
165.499923
21
134.817504
0
LINE
8
0
10
165.499923
20
134.817504
11
165.499923
21
134.817504
0
LINE
8
0
10
159.499932
20
145.210187
11
159.326855
21
146.514773
0
LINE
8
0
10
159.326855
20
146.514773
11
158.830060
21
147.710184
0
LINE
8
0
10
158.830060
20
147.710184
11
158.043202
21
148.738126
0
LINE
8
0
10
158.043202
20
148.738126
11
156.999935
21
149.540309
0
LINE
8
0
10
156.999935
20
149.540309
11
155.783591
21
150.042713
0
LINE
8
0
10
155.783591
20
150.042713
11
154.499938
21
150.210181
0
LINE
8
0
10
154.499938
20
150.210181
11
153.216285
21
150.042713
0
LINE
8
0
10
153.216285
20
150.042713
11
151.999941
21
149.540309
0
LINE
8
0
10
151.999941
20
149.540309
11
150.956674
21
148.738126
0
LINE
8
0
10
150.956674
20
148.738126
11
150.169816
21
147.710184
0
LINE
8
0
10
150.169816
20
147.710184
11
149.673021
21
146.514773
0
LINE
8
0
10
149.673021
20
146.514773
11
149.499944
21
145.210187
0
LINE
8
0
10
149.499944
20
145.210187
11
149.673021
21
143.905600
0
LINE
8
0
10
149.673021
20
143.905600
11
150.169816
21
142.710190
0
LINE
8
0
10
150.169816
20
142.710190
11
150.956674
21
141.682247
0
LINE
8
0
10
150.956674
20
141.682247
11
151.999941
21
140.880065
0
LINE
8
0
10
151.999941
20
140.880065
11
153.216285
21
140.377660
0
LINE
8
0
10
153.216285
20
140.377660
11
154.499938
21
140.210192
0
LINE
8
0
10
154.499938
20
140.210192
11
155.783591
21
140.377660
0
LINE
8
0
10
155.783591
20
140.377660
11
156.999935
21
140.880065
0
LINE
8
0
10
156.999935
20
140.880065
11
158.043202
21
141.682247
0
LINE
8
0
10
158.043202
20
141.682247
11
158.830060
21
142.710190
0
LINE
8
0
10
158.830060
20
142.710190
11
159.326855
21
143.905600
0
LINE
8
0
10
159.326855
20
143.905600
11
159.499932
21
145.210187
0
LINE
8
0
10
159.499932
20
145.210187
11
159.499932
21
145.210187
0
LINE
8
0
10
141.499954
20
155.602478
11
141.398024
21
156.609842
0
LINE
8
0
10
141.398024
20
156.609842
11
141.106456
21
157.548061
0
LINE
8
0
10
141.106456
20
157.548061
11
140.645345
21
158.397049
0
LINE
8
0
10
140.645345
20
158.397049
11
140.034786
21
159.136719
0
LINE
8
0
10
140.034786
20
159.136719
11
139.294873
21
159.746984
0
LINE
8
0
10
139.294873
20
159.746984
11
138.445701
21
160.207757
0
LINE
8
0
10
138.445701
20
160.207757
11
137.507365
21
160.498951
0
LINE
8
0
10
137.507365
20
160.498951
11
136.499961
21
160.600479
0
LINE
8
0
10
136.499961
20
160.600479
11
135.492556
21
160.498951
0
LINE
8
0
10
135.492556
20
160.498951
11
134.554220
21
160.207757
0
LINE
8
0
10
134.554220
20
160.207757
11
133.705049
21
159.746984
0
LINE
8
0
10
133.705049
20
159.746984
11
132.965136
21
159.136719
0
LINE
8
0
10
132.965136
20
159.136719
11
132.354576
21
158.397049
0
LINE
8
0
10
132.354576
20
158.397049
11
131.893465
21
157.548061
0
LINE
8
0
10
131.893465
20
157.548061
11
131.601897
21
156.609842
0
LINE
8
0
10
131.601897
20
156.609842
11
131.499967
21
155.602478
0
LINE
8
0
10
131.499967
20
155.602478
11
131.601897
21
154.595114
0
LINE
8
0
10
131.601897
20
154.595114
11
131.893465
21
153.656894
0
LINE
8
0
10
131.893465
20
153.656894
11
132.354576
21
152.807906
0
LINE
8
0
10
132.354576
20
152.807906
11
132.965136
21
152.068236
0
LINE
8
0
10
132.965136
20
152.068236
11
133.705049
21
151.457971
0
LINE
8
0
10
133.705049
20
151.457971
11
134.554220
21
150.997199
0
LINE
8
0
10
134.554220
20
150.997199
11
135.492556
21
150.706005
0
LINE
8
0
10
135.492556
20
150.706005
11
136.499961
21
150.604476
0
LINE
8
0
10
136.499961
20
150.604476
11
137.507365
21
150.706005
0
LINE
8
0
10
137.507365
20
150.706005
11
138.445701
21
150.997199
0
LINE
8
0
10
138.445701
20
150.997199
11
139.294873
21
151.457971
0
LINE
8
0
10
139.294873
20
151.457971
11
140.034786
21
152.068236
0
LINE
8
0
10
140.034786
20
152.068236
11
140.645345
21
152.807906
0
LINE
8
0
10
140.645345
20
152.807906
11
141.106456
21
153.656894
0
LINE
8
0
10
141.106456
20
153.656894
11
141.398024
21
154.595114
0
LINE
8
0
10
141.398024
20
154.595114
11
141.499954
21
155.602478
0
LINE
8
0
10
141.499954
20
155.602478
11
141.499954
21
155.602478
0
LINE
8
0
10
165.499923
20
155.602478
11
165.397850
21
156.609714
0
LINE
8
0
10
165.397850
20
156.609714
11
165.106188
21
157.547796
0
LINE
8
0
10
165.106188
20
157.547796
11
164.645030
21
158.396647
0
LINE
8
0
10
164.645030
20
158.396647
11
164.034464
21
159.136186
0
LINE
8
0
10
164.034464
20
159.136186
11
163.294581
21
159.746335
0
LINE
8
0
10
163.294581
20
159.746335
11
162.445471
21
160.207015
0
LINE
8
0
10
162.445471
20
160.207015
11
161.507224
21
160.498148
0
LINE
8
0
10
161.507224
20
160.498148
11
160.499931
21
160.599654
0
LINE
8
0
10
160.499931
20
160.599654
11
159.492637
21
160.498148
0
LINE
8
0
10
159.492637
20
160.498148
11
158.554390
21
160.207015
0
LINE
8
0
10
158.554390
20
160.207015
11
157.705280
21
159.746335
0
LINE
8
0
10
157.705280
20
159.746335
11
156.965397
21
159.136186
0
LINE
8
0
10
156.965397
20
159.136186
11
156.354831
21
158.396647
0
LINE
8
0
10
156.354831
20
158.396647
11
155.893673
21
157.547796
0
LINE
8
0
10
155.893673
20
157.547796
11
155.602011
21
156.609714
0
LINE
8
0
10
155.602011
20
156.609714
11
155.499938
21
155.602478
0
LINE
8
0
10
155.499938
20
155.602478
11
155.602011
21
154.595242
0
LINE
8
0
10
155.602011
20
154.595242
11
155.893673
21
153.657159
0
LINE
8
0
10
155.893673
20
153.657159
11
156.354831
21
152.808309
0
LINE
8
0
10
156.354831
20
152.808309
11
156.965397
21
152.068770
0
LINE
8
0
10
156.965397
20
152.068770
11
157.705280
21
151.458621
0
LINE
8
0
10
157.705280
20
151.458621
11
158.554390
21
150.997940
0
LINE
8
0
10
158.554390
20
150.997940
11
159.492637
21
150.706808
0
LINE
8
0
10
159.492637
20
150.706808
11
160.499931
21
150.605301
0
LINE
8
0
10
160.499931
20
150.605301
11
161.507224
21
150.706808
0
LINE
8
0
10
161.507224
20
150.706808
11
162.445471
21
150.997940
0
LINE
8
0
10
162.445471
20
150.997940
11
163.294581
21
151.458621
0
LINE
8
0
10
163.294581
20
151.458621
11
164.034464
21
152.068770
0
LINE
8
0
10
164.034464
20
152.068770
11
164.645030
21
152.808309
0
LINE
8
0
10
164.645030
20
152.808309
11
165.106188
21
153.657159
0
LINE
8
0
10
165.106188
20
153.657159
11
165.397850
21
154.595242
0
LINE
8
0
10
165.397850
20
154.595242
11
165.499923
21
155.602478
0
LINE
8
0
10
165.499923
20
155.602478
11
165.499923
21
155.602478
0
LINE
8
0
10
189.499896
20
155.602478
11
189.326818
21
156.907065
0
LINE
8
0
10
189.326818
20
156.907065
11
188.830023
21
158.102475
0
LINE
8
0
10
188.830023
20
158.102475
11
188.043165
21
159.130417
0
LINE
8
0
10
188.043165
20
159.130417
11
186.999898
21
159.932600
0
LINE
8
0
10
186.999898
20
159.932600
11
185.783554
21
160.435004
0
LINE
8
0
10
185.783554
20
160.435004
11
184.499901
21
160.602472
0
LINE
8
0
10
184.499901
20
160.602472
11
183.216248
21
160.435004
0
LINE
8
0
10
183.216248
20
160.435004
11
181.999904
21
159.932600
0
LINE
8
0
10
181.999904
20
159.932600
11
180.956637
21
159.130417
0
LINE
8
0
10
180.956637
20
159.130417
11
180.169779
21
158.102475
0
LINE
8
0
10
180.169779
20
158.102475
11
179.672984
21
156.907065
0
LINE
8
0
10
179.672984
20
156.907065
11
179.499907
21
155.602478
0
LINE
8
0
10
179.499907
20
155.602478
11
179.672984
21
154.297891
0
LINE
8
0
10
179.672984
20
154.297891
11
180.169779
21
153.102481
0
LINE
8
0
10
180.169779
20
153.102481
11
180.956637
21
152.074538
0
LINE
8
0
10
180.956637
20
152.074538
11
181.999904
21
151.272356
0
LINE
8
0
10
181.999904
20
151.272356
11
183.216248
21
150.769952
0
LINE
8
0
10
183.216248
20
150.769952
11
184.499901
21
150.602483
0
LINE
8
0
10
184.499901
20
150.602483
11
185.783554
21
150.769952
0
LINE
8
0
10
185.783554
20
150.769952
11
186.999898
21
151.272356
0
LINE
8
0
10
186.999898
20
151.272356
11
188.043165
21
152.074538
0
LINE
8
0
10
188.043165
20
152.074538
11
188.830023
21
153.102481
0
LINE
8
0
10
188.830023
20
153.102481
11
189.326818
21
154.297891
0
LINE
8
0
10
189.326818
20
154.297891
11
189.499896
21
155.602478
0
LINE
8
0
10
189.499896
20
155.602478
11
189.499896
21
155.602478
0
LINE
8
0
10
189.499896
20
134.817504
11
189.326818
21
136.122091
0
LINE
8
0
10
189.326818
20
136.122091
11
188.830023
21
137.317501
0
LINE
8
0
10
188.830023
20
137.317501
11
188.043165
21
138.345443
0
LINE
8
0
10
188.043165
20
138.345443
11
186.999898
21
139.147626
0
LINE
8
0
10
186.999898
20
139.147626
11
185.783554
21
139.650030
0
LINE
8
0
10
185.783554
20
139.650030
11
184.499901
21
139.817498
0
LINE
8
0
10
184.499901
20
139.817498
11
183.216248
21
139.650030
0
LINE
8
0
10
183.216248
20
139.650030
11
181.999904
21
139.147626
0
LINE
8
0
10
181.999904
20
139.147626
11
180.956637
21
138.345443
0
LINE
8
0
10
180.956637
20
138.345443
11
180.169779
21
137.317501
0
LINE
8
0
10
180.169779
20
137.317501
11
179.672984
21
136.122091
0
LINE
8
0
10
179.672984
20
136.122091
11
179.499907
21
134.817504
0
LINE
8
0
10
179.499907
20
134.817504
11
179.672984
21
133.512917
0
LINE
8
0
10
179.672984
20
133.512917
11
180.169779
21
132.317507
0
LINE
8
0
10
180.169779
20
132.317507
11
180.956637
21
131.289565
0
LINE
8
0
10
180.956637
20
131.289565
11
181.999904
21
130.487382
0
LINE
8
0
10
181.999904
20
130.487382
11
183.216248
21
129.984978
0
LINE
8
0
10
183.216248
20
129.984978
11
184.499901
21
129.817510
0
LINE
8
0
10
184.499901
20
129.817510
11
185.783554
21
129.984978
0
LINE
8
0
10
185.783554
20
129.984978
11
186.999898
21
130.487382
0
LINE
8
0
10
186.999898
20
130.487382
11
188.043165
21
131.289565
0
LINE
8
0
10
188.043165
20
131.289565
11
188.830023
21
132.317507
0
LINE
8
0
10
188.830023
20
132.317507
11
189.326818
21
133.512917
0
LINE
8
0
10
189.326818
20
133.512917
11
189.499896
21
134.817504
0
LINE
8
0
10
189.499896
20
134.817504
11
189.499896
21
134.817504
0
LINE
8
0
10
189.499896
20
114.032530
11
189.326818
21
115.337117
0
LINE
8
0
10
189.326818
20
115.337117
11
188.830023
21
116.532527
0
LINE
8
0
10
188.830023
20
116.532527
11
188.043165
21
117.560470
0
LINE
8
0
10
188.043165
20
117.560470
11
186.999898
21
118.362652
0
LINE
8
0
10
186.999898
20
118.362652
11
185.783554
21
118.865057
0
LINE
8
0
10
185.783554
20
118.865057
11
184.499901
21
119.032525
0
LINE
8
0
10
184.499901
20
119.032525
11
183.216248
21
118.865057
0
LINE
8
0
10
183.216248
20
118.865057
11
181.999904
21
118.362652
0
LINE
8
0
10
181.999904
20
118.362652
11
180.956637
21
117.560470
0
LINE
8
0
10
180.956637
20
117.560470
11
180.169779
21
116.532527
0
LINE
8
0
10
180.169779
20
116.532527
11
179.672984
21
115.337117
0
LINE
8
0
10
179.672984
20
115.337117
11
179.499907
21
114.032530
0
LINE
8
0
10
179.499907
20
114.032530
11
179.672984
21
112.727944
0
LINE
8
0
10
179.672984
20
112.727944
11
180.169779
21
111.532533
0
LINE
8
0
10
180.169779
20
111.532533
11
180.956637
21
110.504591
0
LINE
8
0
10
180.956637
20
110.504591
11
181.999904
21
109.702408
0
LINE
8
0
10
181.999904
20
109.702408
11
183.216248
21
109.200004
0
LINE
8
0
10
183.216248
20
109.200004
11
184.499901
21
109.032536
0
LINE
8
0
10
184.499901
20
109.032536
11
185.783554
21
109.200004
0
LINE
8
0
10
185.783554
20
109.200004
11
186.999898
21
109.702408
0
LINE
8
0
10
186.999898
20
109.702408
11
188.043165
21
110.504591
0
LINE
8
0
10
188.043165
20
110.504591
11
188.830023
21
111.532533
0
LINE
8
0
10
188.830023
20
111.532533
11
189.326818
21
112.727944
0
LINE
8
0
10
189.326818
20
112.727944
11
189.499896
21
114.032530
0
LINE
8
0
10
189.499896
20
114.032530
11
189.499896
21
114.032530
0
LINE
8
0
10
189.499896
20
93.247557
11
189.326818
21
94.552143
0
LINE
8
0
10
189.326818
20
94.552143
11
188.830023
21
95.747554
0
LINE
8
0
10
188.830023
20
95.747554
11
188.043165
21
96.775496
0
LINE
8
0
10
188.043165
20
96.775496
11
186.999898
21
97.577679
0
LINE
8
0
10
186.999898
20
97.577679
11
185.783554
21
98.080083
0
LINE
8
0
10
185.783554
20
98.080083
11
184.499901
21
98.247551
0
LINE
8
0
10
184.499901
20
98.247551
11
183.216248
21
98.080083
0
LINE
8
0
10
183.216248
20
98.080083
11
181.999904
21
97.577679
0
LINE
8
0
10
181.999904
20
97.577679
11
180.956637
21
96.775496
0
LINE
8
0
10
180.956637
20
96.775496
11
180.169779
21
95.747554
0
LINE
8
0
10
180.169779
20
95.747554
11
179.672984
21
94.552143
0
LINE
8
0
10
179.672984
20
94.552143
11
179.499907
21
93.247557
0
LINE
8
0
10
179.499907
20
93.247557
11
179.672984
21
91.942970
0
LINE
8
0
10
179.672984
20
91.942970
11
180.169779
21
90.747559
0
LINE
8
0
10
180.169779
20
90.747559
11
180.956637
21
89.719617
0
LINE
8
0
10
180.956637
20
89.719617
11
181.999904
21
88.917434
0
LINE
8
0
10
181.999904
20
88.917434
11
183.216248
21
88.415030
0
LINE
8
0
10
183.216248
20
88.415030
11
184.499901
21
88.247562
0
LINE
8
0
10
184.499901
20
88.247562
11
185.783554
21
88.415030
0
LINE
8
0
10
185.783554
20
88.415030
11
186.999898
21
88.917434
0
LINE
8
0
10
186.999898
20
88.917434
11
188.043165
21
89.719617
0
LINE
8
0
10
188.043165
20
89.719617
11
188.830023
21
90.747559
0
LINE
8
0
10
188.830023
20
90.747559
11
189.326818
21
91.942970
0
LINE
8
0
10
189.326818
20
91.942970
11
189.499896
21
93.247557
0
LINE
8
0
10
189.499896
20
93.247557
11
189.499896
21
93.247557
0
LINE
8
0
10
195.499887
20
82.855265
11
195.397813
21
83.862502
0
LINE
8
0
10
195.397813
20
83.862502
11
195.106151
21
84.800584
0
LINE
8
0
10
195.106151
20
84.800584
11
194.644993
21
85.649434
0
LINE
8
0
10
194.644993
20
85.649434
11
194.034427
21
86.388974
0
LINE
8
0
10
194.034427
20
86.388974
11
193.294544
21
86.999123
0
LINE
8
0
10
193.294544
20
86.999123
11
192.445434
21
87.459803
0
LINE
8
0
10
192.445434
20
87.459803
11
191.507187
21
87.750936
0
LINE
8
0
10
191.507187
20
87.750936
11
190.499894
21
87.852442
0
LINE
8
0
10
190.499894
20
87.852442
11
189.492600
21
87.750936
0
LINE
8
0
10
189.492600
20
87.750936
11
188.554353
21
87.459803
0
LINE
8
0
10
188.554353
20
87.459803
11
187.705243
21
86.999123
0
LINE
8
0
10
187.705243
20
86.999123
11
186.965360
21
86.388974
0
LINE
8
0
10
186.965360
20
86.388974
11
186.354794
21
85.649434
0
LINE
8
0
10
186.354794
20
85.649434
11
185.893636
21
84.800584
0
LINE
8
0
10
185.893636
20
84.800584
11
185.601974
21
83.862502
0
LINE
8
0
10
185.601974
20
83.862502
11
185.499901
21
82.855265
0
LINE
8
0
10
185.499901
20
82.855265
11
185.601974
21
81.848029
0
LINE
8
0
10
185.601974
20
81.848029
11
185.893636
21
80.909947
0
LINE
8
0
10
185.893636
20
80.909947
11
186.354794
21
80.061097
0
LINE
8
0
10
186.354794
20
80.061097
11
186.965360
21
79.321557
0
LINE
8
0
10
186.965360
20
79.321557
11
187.705243
21
78.711408
0
LINE
8
0
10
187.705243
20
78.711408
11
188.554353
21
78.250728
0
LINE
8
0
10
188.554353
20
78.250728
11
189.492600
21
77.959595
0
LINE
8
0
10
189.492600
20
77.959595
11
190.499894
21
77.858089
0
LINE
8
0
10
190.499894
20
77.858089
11
191.507187
21
77.959595
0
LINE
8
0
10
191.507187
20
77.959595
11
192.445434
21
78.250728
0
LINE
8
0
10
192.445434
20
78.250728
11
193.294544
21
78.711408
0
LINE
8
0
10
193.294544
20
78.711408
11
194.034427
21
79.321557
0
LINE
8
0
10
194.034427
20
79.321557
11
194.644993
21
80.061097
0
LINE
8
0
10
194.644993
20
80.061097
11
195.106151
21
80.909947
0
LINE
8
0
10
195.106151
20
80.909947
11
195.397813
21
81.848029
0
LINE
8
0
10
195.397813
20
81.848029
11
195.499887
21
82.855265
0
LINE
8
0
10
195.499887
20
82.855265
11
195.499887
21
82.855265
0
LINE
8
0
10
195.499887
20
62.070292
11
195.397813
21
63.077528
0
LINE
8
0
10
195.397813
20
63.077528
11
195.106151
21
64.015610
0
LINE
8
0
10
195.106151
20
64.015610
11
194.644993
21
64.864461
0
LINE
8
0
10
194.644993
20
64.864461
11
194.034427
21
65.604000
0
LINE
8
0
10
194.034427
20
65.604000
11
193.294544
21
66.214149
0
LINE
8
0
10
193.294544
20
66.214149
11
192.445434
21
66.674829
0
LINE
8
0
10
192.445434
20
66.674829
11
191.507187
21
66.965962
0
LINE
8
0
10
191.507187
20
66.965962
11
190.499894
21
67.067468
0
LINE
8
0
10
190.499894
20
67.067468
11
189.492600
21
66.965962
0
LINE
8
0
10
189.492600
20
66.965962
11
188.554353
21
66.674829
0
LINE
8
0
10
188.554353
20
66.674829
11
187.705243
21
66.214149
0
LINE
8
0
10
187.705243
20
66.214149
11
186.965360
21
65.604000
0
LINE
8
0
10
186.965360
20
65.604000
11
186.354794
21
64.864461
0
LINE
8
0
10
186.354794
20
64.864461
11
185.893636
21
64.015610
0
LINE
8
0
10
185.893636
20
64.015610
11
185.601974
21
63.077528
0
LINE
8
0
10
185.601974
20
63.077528
11
185.499901
21
62.070292
0
LINE
8
0
10
185.499901
20
62.070292
11
185.601974
21
61.063056
0
LINE
8
0
10
185.601974
20
61.063056
11
185.893636
21
60.124973
0
LINE
8
0
10
185.893636
20
60.124973
11
186.354794
21
59.276123
0
LINE
8
0
10
186.354794
20
59.276123
11
186.965360
21
58.536584
0
LINE
8
0
10
186.965360
20
58.536584
11
187.705243
21
57.926435
0
LINE
8
0
10
187.705243
20
57.926435
11
188.554353
21
57.465754
0
LINE
8
0
10
188.554353
20
57.465754
11
189.492600
21
57.174622
0
LINE
8
0
10
189.492600
20
57.174622
11
190.499894
21
57.073115
0
LINE
8
0
10
190.499894
20
57.073115
11
191.507187
21
57.174622
0
LINE
8
0
10
191.507187
20
57.174622
11
192.445434
21
57.465754
0
LINE
8
0
10
192.445434
20
57.465754
11
193.294544
21
57.926435
0
LINE
8
0
10
193.294544
20
57.926435
11
194.034427
21
58.536584
0
LINE
8
0
10
194.034427
20
58.536584
11
194.644993
21
59.276123
0
LINE
8
0
10
194.644993
20
59.276123
11
195.106151
21
60.124973
0
LINE
8
0
10
195.106151
20
60.124973
11
195.397813
21
61.063056
0
LINE
8
0
10
195.397813
20
61.063056
11
195.499887
21
62.070292
0
LINE
8
0
10
195.499887
20
62.070292
11
195.499887
21
62.070292
0
LINE
8
0
10
171.499917
20
82.855265
11
171.326840
21
84.159852
0
LINE
8
0
10
171.326840
20
84.159852
11
170.830045
21
85.355263
0
LINE
8
0
10
170.830045
20
85.355263
11
170.043187
21
86.383205
0
LINE
8
0
10
170.043187
20
86.383205
11
168.999920
21
87.185388
0
LINE
8
0
10
168.999920
20
87.185388
11
167.783576
21
87.687792
0
LINE
8
0
10
167.783576
20
87.687792
11
166.499923
21
87.855260
0
LINE
8
0
10
166.499923
20
87.855260
11
165.216270
21
87.687792
0
LINE
8
0
10
165.216270
20
87.687792
11
163.999926
21
87.185388
0
LINE
8
0
10
163.999926
20
87.185388
11
162.956659
21
86.383205
0
LINE
8
0
10
162.956659
20
86.383205
11
162.169801
21
85.355263
0
LINE
8
0
10
162.169801
20
85.355263
11
161.673006
21
84.159852
0
LINE
8
0
10
161.673006
20
84.159852
11
161.499929
21
82.855265
0
LINE
8
0
10
161.499929
20
82.855265
11
161.673006
21
81.550679
0
LINE
8
0
10
161.673006
20
81.550679
11
162.169801
21
80.355268
0
LINE
8
0
10
162.169801
20
80.355268
11
162.956659
21
79.327326
0
LINE
8
0
10
162.956659
20
79.327326
11
163.999926
21
78.525143
0
LINE
8
0
10
163.999926
20
78.525143
11
165.216270
21
78.022739
0
LINE
8
0
10
165.216270
20
78.022739
11
166.499923
21
77.855271
0
LINE
8
0
10
166.499923
20
77.855271
11
167.783576
21
78.022739
0
LINE
8
0
10
167.783576
20
78.022739
11
168.999920
21
78.525143
0
LINE
8
0
10
168.999920
20
78.525143
11
170.043187
21
79.327326
0
LINE
8
0
10
170.043187
20
79.327326
11
170.830045
21
80.355268
0
LINE
8
0
10
170.830045
20
80.355268
11
171.326840
21
81.550679
0
LINE
8
0
10
171.326840
20
81.550679
11
171.499917
21
82.855265
0
LINE
8
0
10
171.499917
20
82.855265
11
171.499917
21
82.855265
0
LINE
8
0
10
177.499908
20
72.462583
11
177.397834
21
73.469819
0
LINE
8
0
10
177.397834
20
73.469819
11
177.106173
21
74.407901
0
LINE
8
0
10
177.106173
20
74.407901
11
176.645014
21
75.256752
0
LINE
8
0
10
176.645014
20
75.256752
11
176.034448
21
75.996291
0
LINE
8
0
10
176.034448
20
75.996291
11
175.294565
21
76.606440
0
LINE
8
0
10
175.294565
20
76.606440
11
174.445455
21
77.067120
0
LINE
8
0
10
174.445455
20
77.067120
11
173.507209
21
77.358253
0
LINE
8
0
10
173.507209
20
77.358253
11
172.499915
21
77.459759
0
LINE
8
0
10
172.499915
20
77.459759
11
171.492622
21
77.358253
0
LINE
8
0
10
171.492622
20
77.358253
11
170.554375
21
77.067120
0
LINE
8
0
10
170.554375
20
77.067120
11
169.705265
21
76.606440
0
LINE
8
0
10
169.705265
20
76.606440
11
168.965382
21
75.996291
0
LINE
8
0
10
168.965382
20
75.996291
11
168.354816
21
75.256752
0
LINE
8
0
10
168.354816
20
75.256752
11
167.893657
21
74.407901
0
LINE
8
0
10
167.893657
20
74.407901
11
167.601996
21
73.469819
0
LINE
8
0
10
167.601996
20
73.469819
11
167.499922
21
72.462583
0
LINE
8
0
10
167.499922
20
72.462583
11
167.601996
21
71.455347
0
LINE
8
0
10
167.601996
20
71.455347
11
167.893657
21
70.517264
0
LINE
8
0
10
167.893657
20
70.517264
11
168.354816
21
69.668414
0
LINE
8
0
10
168.354816
20
69.668414
11
168.965382
21
68.928875
0
LINE
8
0
10
168.965382
20
68.928875
11
169.705265
21
68.318726
0
LINE
8
0
10
169.705265
20
68.318726
11
170.554375
21
67.858045
0
LINE
8
0
10
170.554375
20
67.858045
11
171.492622
21
67.566913
0
LINE
8
0
10
171.492622
20
67.566913
11
172.499915
21
67.465406
0
LINE
8
0
10
172.499915
20
67.465406
11
173.507209
21
67.566913
0
LINE
8
0
10
173.507209
20
67.566913
11
174.445455
21
67.858045
0
LINE
8
0
10
174.445455
20
67.858045
11
175.294565
21
68.318726
0
LINE
8
0
10
175.294565
20
68.318726
11
176.034448
21
68.928875
0
LINE
8
0
10
176.034448
20
68.928875
11
176.645014
21
69.668414
0
LINE
8
0
10
176.645014
20
69.668414
11
177.106173
21
70.517264
0
LINE
8
0
10
177.106173
20
70.517264
11
177.397834
21
71.455347
0
LINE
8
0
10
177.397834
20
71.455347
11
177.499908
21
72.462583
0
LINE
8
0
10
177.499908
20
72.462583
11
177.499908
21
72.462583
0
LINE
8
0
10
171.499917
20
62.070292
11
171.326840
21
63.374879
0
LINE
8
0
10
171.326840
20
63.374879
11
170.830045
21
64.570289
0
LINE
8
0
10
170.830045
20
64.570289
11
170.043187
21
65.598231
0
LINE
8
0
10
170.043187
20
65.598231
11
168.999920
21
66.400414
0
LINE
8
0
10
168.999920
20
66.400414
11
167.783576
21
66.902818
0
LINE
8
0
10
167.783576
20
66.902818
11
166.499923
21
67.070286
0
LINE
8
0
10
166.499923
20
67.070286
11
165.216270
21
66.902818
0
LINE
8
0
10
165.216270
20
66.902818
11
163.999926
21
66.400414
0
LINE
8
0
10
163.999926
20
66.400414
11
162.956659
21
65.598231
0
LINE
8
0
10
162.956659
20
65.598231
11
162.169801
21
64.570289
0
LINE
8
0
10
162.169801
20
64.570289
11
161.673006
21
63.374879
0
LINE
8
0
10
161.673006
20
63.374879
11
161.499929
21
62.070292
0
LINE
8
0
10
161.499929
20
62.070292
11
161.673006
21
60.765705
0
LINE
8
0
10
161.673006
20
60.765705
11
162.169801
21
59.570295
0
LINE
8
0
10
162.169801
20
59.570295
11
162.956659
21
58.542352
0
LINE
8
0
10
162.956659
20
58.542352
11
163.999926
21
57.740170
0
LINE
8
0
10
163.999926
20
57.740170
11
165.216270
21
57.237766
0
LINE
8
0
10
165.216270
20
57.237766
11
166.499923
21
57.070297
0
LINE
8
0
10
166.499923
20
57.070297
11
167.783576
21
57.237766
0
LINE
8
0
10
167.783576
20
57.237766
11
168.999920
21
57.740170
0
LINE
8
0
10
168.999920
20
57.740170
11
170.043187
21
58.542352
0
LINE
8
0
10
170.043187
20
58.542352
11
170.830045
21
59.570295
0
LINE
8
0
10
170.830045
20
59.570295
11
171.326840
21
60.765705
0
LINE
8
0
10
171.326840
20
60.765705
11
171.499917
21
62.070292
0
LINE
8
0
10
171.499917
20
62.070292
11
171.499917
21
62.070292
0
LINE
8
0
10
159.499932
20
62.070292
11
159.326855
21
63.374879
0
LINE
8
0
10
159.326855
20
63.374879
11
158.830060
21
64.570289
0
LINE
8
0
10
158.830060
20
64.570289
11
158.043202
21
65.598231
0
LINE
8
0
10
158.043202
20
65.598231
11
156.999935
21
66.400414
0
LINE
8
0
10
156.999935
20
66.400414
11
155.783591
21
66.902818
0
LINE
8
0
10
155.783591
20
66.902818
11
154.499938
21
67.070286
0
LINE
8
0
10
154.499938
20
67.070286
11
153.216285
21
66.902818
0
LINE
8
0
10
153.216285
20
66.902818
11
151.999941
21
66.400414
0
LINE
8
0
10
151.999941
20
66.400414
11
150.956674
21
65.598231
0
LINE
8
0
10
150.956674
20
65.598231
11
150.169816
21
64.570289
0
LINE
8
0
10
150.169816
20
64.570289
11
149.673021
21
63.374879
0
LINE
8
0
10
149.673021
20
63.374879
11
149.499944
21
62.070292
0
LINE
8
0
10
149.499944
20
62.070292
11
149.673021
21
60.765705
0
LINE
8
0
10
149.673021
20
60.765705
11
150.169816
21
59.570295
0
LINE
8
0
10
150.169816
20
59.570295
11
150.956674
21
58.542352
0
LINE
8
0
10
150.956674
20
58.542352
11
151.999941
21
57.740170
0
LINE
8
0
10
151.999941
20
57.740170
11
153.216285
21
57.237766
0
LINE
8
0
10
153.216285
20
57.237766
11
154.499938
21
57.070297
0
LINE
8
0
10
154.499938
20
57.070297
11
155.783591
21
57.237766
0
LINE
8
0
10
155.783591
20
57.237766
11
156.999935
21
57.740170
0
LINE
8
0
10
156.999935
20
57.740170
11
158.043202
21
58.542352
0
LINE
8
0
10
158.043202
20
58.542352
11
158.830060
21
59.570295
0
LINE
8
0
10
158.830060
20
59.570295
11
159.326855
21
60.765705
0
LINE
8
0
10
159.326855
20
60.765705
11
159.499932
21
62.070292
0
LINE
8
0
10
159.499932
20
62.070292
11
159.499932
21
62.070292
0
LINE
8
0
10
177.499908
20
51.677609
11
177.397834
21
52.684845
0
LINE
8
0
10
177.397834
20
52.684845
11
177.106173
21
53.622928
0
LINE
8
0
10
177.106173
20
53.622928
11
176.645014
21
54.471778
0
LINE
8
0
10
176.645014
20
54.471778
11
176.034448
21
55.211317
0
LINE
8
0
10
176.034448
20
55.211317
11
175.294565
21
55.821466
0
LINE
8
0
10
175.294565
20
55.821466
11
174.445455
21
56.282147
0
LINE
8
0
10
174.445455
20
56.282147
11
173.507209
21
56.573279
0
LINE
8
0
10
173.507209
20
56.573279
11
172.499915
21
56.674785
0
LINE
8
0
10
172.499915
20
56.674785
11
171.492622
21
56.573279
0
LINE
8
0
10
171.492622
20
56.573279
11
170.554375
21
56.282147
0
LINE
8
0
10
170.554375
20
56.282147
11
169.705265
21
55.821466
0
LINE
8
0
10
169.705265
20
55.821466
11
168.965382
21
55.211317
0
LINE
8
0
10
168.965382
20
55.211317
11
168.354816
21
54.471778
0
LINE
8
0
10
168.354816
20
54.471778
11
167.893657
21
53.622928
0
LINE
8
0
10
167.893657
20
53.622928
11
167.601996
21
52.684845
0
LINE
8
0
10
167.601996
20
52.684845
11
167.499922
21
51.677609
0
LINE
8
0
10
167.499922
20
51.677609
11
167.601996
21
50.670373
0
LINE
8
0
10
167.601996
20
50.670373
11
167.893657
21
49.732290
0
LINE
8
0
10
167.893657
20
49.732290
11
168.354816
21
48.883440
0
LINE
8
0
10
168.354816
20
48.883440
11
168.965382
21
48.143901
0
LINE
8
0
10
168.965382
20
48.143901
11
169.705265
21
47.533752
0
LINE
8
0
10
169.705265
20
47.533752
11
170.554375
21
47.073072
0
LINE
8
0
10
170.554375
20
47.073072
11
171.492622
21
46.781939
0
LINE
8
0
10
171.492622
20
46.781939
11
172.499915
21
46.680433
0
LINE
8
0
10
172.499915
20
46.680433
11
173.507209
21
46.781939
0
LINE
8
0
10
173.507209
20
46.781939
11
174.445455
21
47.073072
0
LINE
8
0
10
174.445455
20
47.073072
11
175.294565
21
47.533752
0
LINE
8
0
10
175.294565
20
47.533752
11
176.034448
21
48.143901
0
LINE
8
0
10
176.034448
20
48.143901
11
176.645014
21
48.883440
0
LINE
8
0
10
176.645014
20
48.883440
11
177.106173
21
49.732290
0
LINE
8
0
10
177.106173
20
49.732290
11
177.397834
21
50.670373
0
LINE
8
0
10
177.397834
20
50.670373
11
177.499908
21
51.677609
0
LINE
8
0
10
177.499908
20
51.677609
11
177.499908
21
51.677609
0
LINE
8
0
10
195.499887
20
41.285315
11
195.397813
21
42.292551
0
LINE
8
0
10
195.397813
20
42.292551
11
195.106151
21
43.230634
0
LINE
8
0
10
195.106151
20
43.230634
11
194.644993
21
44.079484
0
LINE
8
0
10
194.644993
20
44.079484
11
194.034427
21
44.819023
0
LINE
8
0
10
194.034427
20
44.819023
11
193.294544
21
45.429173
0
LINE
8
0
10
193.294544
20
45.429173
11
192.445434
21
45.889853
0
LINE
8
0
10
192.445434
20
45.889853
11
191.507187
21
46.180986
0
LINE
8
0
10
191.507187
20
46.180986
11
190.499894
21
46.282492
0
LINE
8
0
10
190.499894
20
46.282492
11
189.492600
21
46.180986
0
LINE
8
0
10
189.492600
20
46.180986
11
188.554353
21
45.889853
0
LINE
8
0
10
188.554353
20
45.889853
11
187.705243
21
45.429173
0
LINE
8
0
10
187.705243
20
45.429173
11
186.965360
21
44.819023
0
LINE
8
0
10
186.965360
20
44.819023
11
186.354794
21
44.079484
0
LINE
8
0
10
186.354794
20
44.079484
11
185.893636
21
43.230634
0
LINE
8
0
10
185.893636
20
43.230634
11
185.601974
21
42.292551
0
LINE
8
0
10
185.601974
20
42.292551
11
185.499901
21
41.285315
0
LINE
8
0
10
185.499901
20
41.285315
11
185.601974
21
40.278079
0
LINE
8
0
10
185.601974
20
40.278079
11
185.893636
21
39.339997
0
LINE
8
0
10
185.893636
20
39.339997
11
186.354794
21
38.491146
0
LINE
8
0
10
186.354794
20
38.491146
11
186.965360
21
37.751607
0
LINE
8
0
10
186.965360
20
37.751607
11
187.705243
21
37.141458
0
LINE
8
0
10
187.705243
20
37.141458
11
188.554353
21
36.680778
0
LINE
8
0
10
188.554353
20
36.680778
11
189.492600
21
36.389645
0
LINE
8
0
10
189.492600
20
36.389645
11
190.499894
21
36.288139
0
LINE
8
0
10
190.499894
20
36.288139
11
191.507187
21
36.389645
0
LINE
8
0
10
191.507187
20
36.389645
11
192.445434
21
36.680778
0
LINE
8
0
10
192.445434
20
36.680778
11
193.294544
21
37.141458
0
LINE
8
0
10
193.294544
20
37.141458
11
194.034427
21
37.751607
0
LINE
8
0
10
194.034427
20
37.751607
11
194.644993
21
38.491146
0
LINE
8
0
10
194.644993
20
38.491146
11
195.106151
21
39.339997
0
LINE
8
0
10
195.106151
20
39.339997
11
195.397813
21
40.278079
0
LINE
8
0
10
195.397813
20
40.278079
11
195.499887
21
41.285315
0
LINE
8
0
10
195.499887
20
41.285315
11
195.499887
21
41.285315
0
LINE
8
0
10
195.499887
20
20.500342
11
195.397813
21
21.507578
0
LINE
8
0
10
195.397813
20
21.507578
11
195.106151
21
22.445660
0
LINE
8
0
10
195.106151
20
22.445660
11
194.644993
21
23.294511
0
LINE
8
0
10
194.644993
20
23.294511
11
194.034427
21
24.034050
0
LINE
8
0
10
194.034427
20
24.034050
11
193.294544
21
24.644199
0
LINE
8
0
10
193.294544
20
24.644199
11
192.445434
21
25.104879
0
LINE
8
0
10
192.445434
20
25.104879
11
191.507187
21
25.396012
0
LINE
8
0
10
191.507187
20
25.396012
11
190.499894
21
25.497518
0
LINE
8
0
10
190.499894
20
25.497518
11
189.492600
21
25.396012
0
LINE
8
0
10
189.492600
20
25.396012
11
188.554353
21
25.104879
0
LINE
8
0
10
188.554353
20
25.104879
11
187.705243
21
24.644199
0
LINE
8
0
10
187.705243
20
24.644199
11
186.965360
21
24.034050
0
LINE
8
0
10
186.965360
20
24.034050
11
186.354794
21
23.294511
0
LINE
8
0
10
186.354794
20
23.294511
11
185.893636
21
22.445660
0
LINE
8
0
10
185.893636
20
22.445660
11
185.601974
21
21.507578
0
LINE
8
0
10
185.601974
20
21.507578
11
185.499901
21
20.500342
0
LINE
8
0
10
185.499901
20
20.500342
11
185.601974
21
19.493106
0
LINE
8
0
10
185.601974
20
19.493106
11
185.893636
21
18.555023
0
LINE
8
0
10
185.893636
20
18.555023
11
186.354794
21
17.706173
0
LINE
8
0
10
186.354794
20
17.706173
11
186.965360
21
16.966634
0
LINE
8
0
10
186.965360
20
16.966634
11
187.705243
21
16.356484
0
LINE
8
0
10
187.705243
20
16.356484
11
188.554353
21
15.895804
0
LINE
8
0
10
188.554353
20
15.895804
11
189.492600
21
15.604671
0
LINE
8
0
10
189.492600
20
15.604671
11
190.499894
21
15.503165
0
LINE
8
0
10
190.499894
20
15.503165
11
191.507187
21
15.604671
0
LINE
8
0
10
191.507187
20
15.604671
11
192.445434
21
15.895804
0
LINE
8
0
10
192.445434
20
15.895804
11
193.294544
21
16.356484
0
LINE
8
0
10
193.294544
20
16.356484
11
194.034427
21
16.966634
0
LINE
8
0
10
194.034427
20
16.966634
11
194.644993
21
17.706173
0
LINE
8
0
10
194.644993
20
17.706173
11
195.106151
21
18.555023
0
LINE
8
0
10
195.106151
20
18.555023
11
195.397813
21
19.493106
0
LINE
8
0
10
195.397813
20
19.493106
11
195.499887
21
20.500342
0
LINE
8
0
10
195.499887
20
20.500342
11
195.499887
21
20.500342
0
LINE
8
0
10
171.499917
20
41.285315
11
171.326840
21
42.589902
0
LINE
8
0
10
171.326840
20
42.589902
11
170.830045
21
43.785313
0
LINE
8
0
10
170.830045
20
43.785313
11
170.043187
21
44.813255
0
LINE
8
0
10
170.043187
20
44.813255
11
168.999920
21
45.615437
0
LINE
8
0
10
168.999920
20
45.615437
11
167.783576
21
46.117842
0
LINE
8
0
10
167.783576
20
46.117842
11
166.499923
21
46.285310
0
LINE
8
0
10
166.499923
20
46.285310
11
165.216270
21
46.117842
0
LINE
8
0
10
165.216270
20
46.117842
11
163.999926
21
45.615437
0
LINE
8
0
10
163.999926
20
45.615437
11
162.956659
21
44.813255
0
LINE
8
0
10
162.956659
20
44.813255
11
162.169801
21
43.785313
0
LINE
8
0
10
162.169801
20
43.785313
11
161.673006
21
42.589902
0
LINE
8
0
10
161.673006
20
42.589902
11
161.499929
21
41.285315
0
LINE
8
0
10
161.499929
20
41.285315
11
161.673006
21
39.980729
0
LINE
8
0
10
161.673006
20
39.980729
11
162.169801
21
38.785318
0
LINE
8
0
10
162.169801
20
38.785318
11
162.956659
21
37.757376
0
LINE
8
0
10
162.956659
20
37.757376
11
163.999926
21
36.955193
0
LINE
8
0
10
163.999926
20
36.955193
11
165.216270
21
36.452789
0
LINE
8
0
10
165.216270
20
36.452789
11
166.499923
21
36.285321
0
LINE
8
0
10
166.499923
20
36.285321
11
167.783576
21
36.452789
0
LINE
8
0
10
167.783576
20
36.452789
11
168.999920
21
36.955193
0
LINE
8
0
10
168.999920
20
36.955193
11
170.043187
21
37.757376
0
LINE
8
0
10
170.043187
20
37.757376
11
170.830045
21
38.785318
0
LINE
8
0
10
170.830045
20
38.785318
11
171.326840
21
39.980729
0
LINE
8
0
10
171.326840
20
39.980729
11
171.499917
21
41.285315
0
LINE
8
0
10
171.499917
20
41.285315
11
171.499917
21
41.285315
0
LINE
8
0
10
171.499917
20
20.500342
11
171.326840
21
21.804928
0
LINE
8
0
10
171.326840
20
21.804928
11
170.830045
21
23.000339
0
LINE
8
0
10
170.830045
20
23.000339
11
170.043187
21
24.028281
0
LINE
8
0
10
170.043187
20
24.028281
11
168.999920
21
24.830464
0
LINE
8
0
10
168.999920
20
24.830464
11
167.783576
21
25.332868
0
LINE
8
0
10
167.783576
20
25.332868
11
166.499923
21
25.500336
0
LINE
8
0
10
166.499923
20
25.500336
11
165.216270
21
25.332868
0
LINE
8
0
10
165.216270
20
25.332868
11
163.999926
21
24.830464
0
LINE
8
0
10
163.999926
20
24.830464
11
162.956659
21
24.028281
0
LINE
8
0
10
162.956659
20
24.028281
11
162.169801
21
23.000339
0
LINE
8
0
10
162.169801
20
23.000339
11
161.673006
21
21.804928
0
LINE
8
0
10
161.673006
20
21.804928
11
161.499929
21
20.500342
0
LINE
8
0
10
161.499929
20
20.500342
11
161.673006
21
19.195755
0
LINE
8
0
10
161.673006
20
19.195755
11
162.169801
21
18.000344
0
LINE
8
0
10
162.169801
20
18.000344
11
162.956659
21
16.972402
0
LINE
8
0
10
162.956659
20
16.972402
11
163.999926
21
16.170220
0
LINE
8
0
10
163.999926
20
16.170220
11
165.216270
21
15.667815
0
LINE
8
0
10
165.216270
20
15.667815
11
166.499923
21
15.500347
0
LINE
8
0
10
166.499923
20
15.500347
11
167.783576
21
15.667815
0
LINE
8
0
10
167.783576
20
15.667815
11
168.999920
21
16.170220
0
LINE
8
0
10
168.999920
20
16.170220
11
170.043187
21
16.972402
0
LINE
8
0
10
170.043187
20
16.972402
11
170.830045
21
18.000344
0
LINE
8
0
10
170.830045
20
18.000344
11
171.326840
21
19.195755
0
LINE
8
0
10
171.326840
20
19.195755
11
171.499917
21
20.500342
0
LINE
8
0
10
171.499917
20
20.500342
11
171.499917
21
20.500342
0
LINE
8
0
10
147.499948
20
20.500342
11
147.398366
21
21.508015
0
LINE
8
0
10
147.398366
20
21.508015
11
147.107023
21
22.446565
0
LINE
8
0
10
147.107023
20
22.446565
11
146.646027
21
23.295886
0
LINE
8
0
10
146.646027
20
23.295886
11
146.035483
21
24.035871
0
LINE
8
0
10
146.035483
20
24.035871
11
145.295498
21
24.646415
0
LINE
8
0
10
145.295498
20
24.646415
11
144.446177
21
25.107411
0
LINE
8
0
10
144.446177
20
25.107411
11
143.507627
21
25.398754
0
LINE
8
0
10
143.507627
20
25.398754
11
142.499953
21
25.500336
0
LINE
8
0
10
142.499953
20
25.500336
11
141.492280
21
25.398754
0
LINE
8
0
10
141.492280
20
25.398754
11
140.553730
21
25.107411
0
LINE
8
0
10
140.553730
20
25.107411
11
139.704409
21
24.646415
0
LINE
8
0
10
139.704409
20
24.646415
11
138.964424
21
24.035871
0
LINE
8
0
10
138.964424
20
24.035871
11
138.353880
21
23.295886
0
LINE
8
0
10
138.353880
20
23.295886
11
137.892884
21
22.446565
0
LINE
8
0
10
137.892884
20
22.446565
11
137.601541
21
21.508015
0
LINE
8
0
10
137.601541
20
21.508015
11
137.499959
21
20.500342
0
LINE
8
0
10
137.499959
20
20.500342
11
137.601541
21
19.492668
0
LINE
8
0
10
137.601541
20
19.492668
11
137.892884
21
18.554118
0
LINE
8
0
10
137.892884
20
18.554118
11
138.353880
21
17.704797
0
LINE
8
0
10
138.353880
20
17.704797
11
138.964424
21
16.964812
0
LINE
8
0
10
138.964424
20
16.964812
11
139.704409
21
16.354268
0
LINE
8
0
10
139.704409
20
16.354268
11
140.553730
21
15.893272
0
LINE
8
0
10
140.553730
20
15.893272
11
141.492280
21
15.601930
0
LINE
8
0
10
141.492280
20
15.601930
11
142.499953
21
15.500348
0
LINE
8
0
10
142.499953
20
15.500348
11
143.507627
21
15.601930
0
LINE
8
0
10
143.507627
20
15.601930
11
144.446177
21
15.893272
0
LINE
8
0
10
144.446177
20
15.893272
11
145.295498
21
16.354268
0
LINE
8
0
10
145.295498
20
16.354268
11
146.035483
21
16.964812
0
LINE
8
0
10
146.035483
20
16.964812
11
146.646027
21
17.704797
0
LINE
8
0
10
146.646027
20
17.704797
11
147.107023
21
18.554118
0
LINE
8
0
10
147.107023
20
18.554118
11
147.398366
21
19.492668
0
LINE
8
0
10
147.398366
20
19.492668
11
147.499948
21
20.500342
0
LINE
8
0
10
147.499948
20
20.500342
11
147.499948
21
20.500342
0
LINE
8
0
10
165.499923
20
30.892635
11
165.397850
21
31.899871
0
LINE
8
0
10
165.397850
20
31.899871
11
165.106188
21
32.837954
0
LINE
8
0
10
165.106188
20
32.837954
11
164.645030
21
33.686804
0
LINE
8
0
10
164.645030
20
33.686804
11
164.034464
21
34.426343
0
LINE
8
0
10
164.034464
20
34.426343
11
163.294581
21
35.036493
0
LINE
8
0
10
163.294581
20
35.036493
11
162.445471
21
35.497173
0
LINE
8
0
10
162.445471
20
35.497173
11
161.507224
21
35.788306
0
LINE
8
0
10
161.507224
20
35.788306
11
160.499931
21
35.889812
0
LINE
8
0
10
160.499931
20
35.889812
11
159.492637
21
35.788306
0
LINE
8
0
10
159.492637
20
35.788306
11
158.554390
21
35.497173
0
LINE
8
0
10
158.554390
20
35.497173
11
157.705280
21
35.036493
0
LINE
8
0
10
157.705280
20
35.036493
11
156.965397
21
34.426343
0
LINE
8
0
10
156.965397
20
34.426343
11
156.354831
21
33.686804
0
LINE
8
0
10
156.354831
20
33.686804
11
155.893673
21
32.837954
0
LINE
8
0
10
155.893673
20
32.837954
11
155.602011
21
31.899871
0
LINE
8
0
10
155.602011
20
31.899871
11
155.499938
21
30.892635
0
LINE
8
0
10
155.499938
20
30.892635
11
155.602011
21
29.885399
0
LINE
8
0
10
155.602011
20
29.885399
11
155.893673
21
28.947317
0
LINE
8
0
10
155.893673
20
28.947317
11
156.354831
21
28.098466
0
LINE
8
0
10
156.354831
20
28.098466
11
156.965397
21
27.358927
0
LINE
8
0
10
156.965397
20
27.358927
11
157.705280
21
26.748778
0
LINE
8
0
10
157.705280
20
26.748778
11
158.554390
21
26.288098
0
LINE
8
0
10
158.554390
20
26.288098
11
159.492637
21
25.996965
0
LINE
8
0
10
159.492637
20
25.996965
11
160.499931
21
25.895459
0
LINE
8
0
10
160.499931
20
25.895459
11
161.507224
21
25.996965
0
LINE
8
0
10
161.507224
20
25.996965
11
162.445471
21
26.288098
0
LINE
8
0
10
162.445471
20
26.288098
11
163.294581
21
26.748778
0
LINE
8
0
10
163.294581
20
26.748778
11
164.034464
21
27.358927
0
LINE
8
0
10
164.034464
20
27.358927
11
164.645030
21
28.098466
0
LINE
8
0
10
164.645030
20
28.098466
11
165.106188
21
28.947317
0
LINE
8
0
10
165.106188
20
28.947317
11
165.397850
21
29.885399
0
LINE
8
0
10
165.397850
20
29.885399
11
165.499923
21
30.892635
0
LINE
8
0
10
165.499923
20
30.892635
11
165.499923
21
30.892635
0
LINE
8
0
10
153.499939
20
51.677609
11
153.397865
21
52.684845
0
LINE
8
0
10
153.397865
20
52.684845
11
153.106204
21
53.622928
0
LINE
8
0
10
153.106204
20
53.622928
11
152.645045
21
54.471778
0
LINE
8
0
10
152.645045
20
54.471778
11
152.034479
21
55.211317
0
LINE
8
0
10
152.034479
20
55.211317
11
151.294596
21
55.821466
0
LINE
8
0
10
151.294596
20
55.821466
11
150.445486
21
56.282147
0
LINE
8
0
10
150.445486
20
56.282147
11
149.507239
21
56.573279
0
LINE
8
0
10
149.507239
20
56.573279
11
148.499946
21
56.674785
0
LINE
8
0
10
148.499946
20
56.674785
11
147.492652
21
56.573279
0
LINE
8
0
10
147.492652
20
56.573279
11
146.554406
21
56.282147
0
LINE
8
0
10
146.554406
20
56.282147
11
145.705296
21
55.821466
0
LINE
8
0
10
145.705296
20
55.821466
11
144.965413
21
55.211317
0
LINE
8
0
10
144.965413
20
55.211317
11
144.354847
21
54.471778
0
LINE
8
0
10
144.354847
20
54.471778
11
143.893688
21
53.622928
0
LINE
8
0
10
143.893688
20
53.622928
11
143.602027
21
52.684845
0
LINE
8
0
10
143.602027
20
52.684845
11
143.499953
21
51.677609
0
LINE
8
0
10
143.499953
20
51.677609
11
143.602027
21
50.670373
0
LINE
8
0
10
143.602027
20
50.670373
11
143.893688
21
49.732290
0
LINE
8
0
10
143.893688
20
49.732290
11
144.354847
21
48.883440
0
LINE
8
0
10
144.354847
20
48.883440
11
144.965413
21
48.143901
0
LINE
8
0
10
144.965413
20
48.143901
11
145.705296
21
47.533752
0
LINE
8
0
10
145.705296
20
47.533752
11
146.554406
21
47.073072
0
LINE
8
0
10
146.554406
20
47.073072
11
147.492652
21
46.781939
0
LINE
8
0
10
147.492652
20
46.781939
11
148.499946
21
46.680433
0
LINE
8
0
10
148.499946
20
46.680433
11
149.507239
21
46.781939
0
LINE
8
0
10
149.507239
20
46.781939
11
150.445486
21
47.073072
0
LINE
8
0
10
150.445486
20
47.073072
11
151.294596
21
47.533752
0
LINE
8
0
10
151.294596
20
47.533752
11
152.034479
21
48.143901
0
LINE
8
0
10
152.034479
20
48.143901
11
152.645045
21
48.883440
0
LINE
8
0
10
152.645045
20
48.883440
11
153.106204
21
49.732290
0
LINE
8
0
10
153.106204
20
49.732290
11
153.397865
21
50.670373
0
LINE
8
0
10
153.397865
20
50.670373
11
153.499939
21
51.677609
0
LINE
8
0
10
153.499939
20
51.677609
11
153.499939
21
51.677609
0
LINE
8
0
10
135.499963
20
62.070292
11
135.326886
21
63.374878
0
LINE
8
0
10
135.326886
20
63.374878
11
134.830091
21
64.570289
0
LINE
8
0
10
134.830091
20
64.570289
11
134.043233
21
65.598231
0
LINE
8
0
10
134.043233
20
65.598231
11
132.999966
21
66.400414
0
LINE
8
0
10
132.999966
20
66.400414
11
131.783622
21
66.902818
0
LINE
8
0
10
131.783622
20
66.902818
11
130.499969
21
67.070286
0
LINE
8
0
10
130.499969
20
67.070286
11
129.216316
21
66.902818
0
LINE
8
0
10
129.216316
20
66.902818
11
127.999972
21
66.400414
0
LINE
8
0
10
127.999972
20
66.400414
11
126.956705
21
65.598231
0
LINE
8
0
10
126.956705
20
65.598231
11
126.169847
21
64.570289
0
LINE
8
0
10
126.169847
20
64.570289
11
125.673052
21
63.374878
0
LINE
8
0
10
125.673052
20
63.374878
11
125.499975
21
62.070292
0
LINE
8
0
10
125.499975
20
62.070292
11
125.673052
21
60.765705
0
LINE
8
0
10
125.673052
20
60.765705
11
126.169847
21
59.570295
0
LINE
8
0
10
126.169847
20
59.570295
11
126.956705
21
58.542352
0
LINE
8
0
10
126.956705
20
58.542352
11
127.999972
21
57.740170
0
LINE
8
0
10
127.999972
20
57.740170
11
129.216316
21
57.237766
0
LINE
8
0
10
129.216316
20
57.237766
11
130.499969
21
57.070298
0
LINE
8
0
10
130.499969
20
57.070298
11
131.783622
21
57.237766
0
LINE
8
0
10
131.783622
20
57.237766
11
132.999966
21
57.740170
0
LINE
8
0
10
132.999966
20
57.740170
11
134.043233
21
58.542352
0
LINE
8
0
10
134.043233
20
58.542352
11
134.830091
21
59.570295
0
LINE
8
0
10
134.830091
20
59.570295
11
135.326886
21
60.765705
0
LINE
8
0
10
135.326886
20
60.765705
11
135.499963
21
62.070292
0
LINE
8
0
10
135.499963
20
62.070292
11
135.499963
21
62.070292
0
LINE
8
0
10
159.499932
20
82.855265
11
159.326855
21
84.159852
0
LINE
8
0
10
159.326855
20
84.159852
11
158.830060
21
85.355263
0
LINE
8
0
10
158.830060
20
85.355263
11
158.043202
21
86.383205
0
LINE
8
0
10
158.043202
20
86.383205
11
156.999935
21
87.185388
0
LINE
8
0
10
156.999935
20
87.185388
11
155.783591
21
87.687792
0
LINE
8
0
10
155.783591
20
87.687792
11
154.499938
21
87.855260
0
LINE
8
0
10
154.499938
20
87.855260
11
153.216285
21
87.687792
0
LINE
8
0
10
153.216285
20
87.687792
11
151.999941
21
87.185388
0
LINE
8
0
10
151.999941
20
87.185388
11
150.956674
21
86.383205
0
LINE
8
0
10
150.956674
20
86.383205
11
150.169816
21
85.355263
0
LINE
8
0
10
150.169816
20
85.355263
11
149.673021
21
84.159852
0
LINE
8
0
10
149.673021
20
84.159852
11
149.499944
21
82.855265
0
LINE
8
0
10
149.499944
20
82.855265
11
149.673021
21
81.550679
0
LINE
8
0
10
149.673021
20
81.550679
11
150.169816
21
80.355268
0
LINE
8
0
10
150.169816
20
80.355268
11
150.956674
21
79.327326
0
LINE
8
0
10
150.956674
20
79.327326
11
151.999941
21
78.525143
0
LINE
8
0
10
151.999941
20
78.525143
11
153.216285
21
78.022739
0
LINE
8
0
10
153.216285
20
78.022739
11
154.499938
21
77.855271
0
LINE
8
0
10
154.499938
20
77.855271
11
155.783591
21
78.022739
0
LINE
8
0
10
155.783591
20
78.022739
11
156.999935
21
78.525143
0
LINE
8
0
10
156.999935
20
78.525143
11
158.043202
21
79.327326
0
LINE
8
0
10
158.043202
20
79.327326
11
158.830060
21
80.355268
0
LINE
8
0
10
158.830060
20
80.355268
11
159.326855
21
81.550679
0
LINE
8
0
10
159.326855
20
81.550679
11
159.499932
21
82.855265
0
LINE
8
0
10
159.499932
20
82.855265
11
159.499932
21
82.855265
0
LINE
8
0
10
141.499954
20
72.462583
11
141.398024
21
73.469947
0
LINE
8
0
10
141.398024
20
73.469947
11
141.106456
21
74.408166
0
LINE
8
0
10
141.106456
20
74.408166
11
140.645345
21
75.257155
0
LINE
8
0
10
140.645345
20
75.257155
11
140.034786
21
75.996824
0
LINE
8
0
10
140.034786
20
75.996824
11
139.294873
21
76.607089
0
LINE
8
0
10
139.294873
20
76.607089
11
138.445701
21
77.067862
0
LINE
8
0
10
138.445701
20
77.067862
11
137.507365
21
77.359056
0
LINE
8
0
10
137.507365
20
77.359056
11
136.499961
21
77.460584
0
LINE
8
0
10
136.499961
20
77.460584
11
135.492556
21
77.359056
0
LINE
8
0
10
135.492556
20
77.359056
11
134.554220
21
77.067862
0
LINE
8
0
10
134.554220
20
77.067862
11
133.705049
21
76.607089
0
LINE
8
0
10
133.705049
20
76.607089
11
132.965136
21
75.996824
0
LINE
8
0
10
132.965136
20
75.996824
11
132.354576
21
75.257155
0
LINE
8
0
10
132.354576
20
75.257155
11
131.893465
21
74.408166
0
LINE
8
0
10
131.893465
20
74.408166
11
131.601897
21
73.469947
0
LINE
8
0
10
131.601897
20
73.469947
11
131.499967
21
72.462583
0
LINE
8
0
10
131.499967
20
72.462583
11
131.601897
21
71.455219
0
LINE
8
0
10
131.601897
20
71.455219
11
131.893465
21
70.516999
0
LINE
8
0
10
131.893465
20
70.516999
11
132.354576
21
69.668011
0
LINE
8
0
10
132.354576
20
69.668011
11
132.965136
21
68.928341
0
LINE
8
0
10
132.965136
20
68.928341
11
133.705049
21
68.318076
0
LINE
8
0
10
133.705049
20
68.318076
11
134.554220
21
67.857304
0
LINE
8
0
10
134.554220
20
67.857304
11
135.492556
21
67.566110
0
LINE
8
0
10
135.492556
20
67.566110
11
136.499961
21
67.464581
0
LINE
8
0
10
136.499961
20
67.464581
11
137.507365
21
67.566110
0
LINE
8
0
10
137.507365
20
67.566110
11
138.445701
21
67.857304
0
LINE
8
0
10
138.445701
20
67.857304
11
139.294873
21
68.318076
0
LINE
8
0
10
139.294873
20
68.318076
11
140.034786
21
68.928341
0
LINE
8
0
10
140.034786
20
68.928341
11
140.645345
21
69.668011
0
LINE
8
0
10
140.645345
20
69.668011
11
141.106456
21
70.516999
0
LINE
8
0
10
141.106456
20
70.516999
11
141.398024
21
71.455219
0
LINE
8
0
10
141.398024
20
71.455219
11
141.499954
21
72.462583
0
LINE
8
0
10
141.499954
20
72.462583
11
141.499954
21
72.462583
0
LINE
8
0
10
147.499948
20
82.855265
11
147.398366
21
83.862939
0
LINE
8
0
10
147.398366
20
83.862939
11
147.107023
21
84.801489
0
LINE
8
0
10
147.107023
20
84.801489
11
146.646027
21
85.650810
0
LINE
8
0
10
146.646027
20
85.650810
11
146.035483
21
86.390795
0
LINE
8
0
10
146.035483
20
86.390795
11
145.295498
21
87.001339
0
LINE
8
0
10
145.295498
20
87.001339
11
144.446177
21
87.462335
0
LINE
8
0
10
144.446177
20
87.462335
11
143.507627
21
87.753677
0
LINE
8
0
10
143.507627
20
87.753677
11
142.499953
21
87.855259
0
LINE
8
0
10
142.499953
20
87.855259
11
141.492280
21
87.753677
0
LINE
8
0
10
141.492280
20
87.753677
11
140.553730
21
87.462335
0
LINE
8
0
10
140.553730
20
87.462335
11
139.704409
21
87.001339
0
LINE
8
0
10
139.704409
20
87.001339
11
138.964424
21
86.390795
0
LINE
8
0
10
138.964424
20
86.390795
11
138.353880
21
85.650810
0
LINE
8
0
10
138.353880
20
85.650810
11
137.892884
21
84.801489
0
LINE
8
0
10
137.892884
20
84.801489
11
137.601541
21
83.862939
0
LINE
8
0
10
137.601541
20
83.862939
11
137.499959
21
82.855265
0
LINE
8
0
10
137.499959
20
82.855265
11
137.601541
21
81.847592
0
LINE
8
0
10
137.601541
20
81.847592
11
137.892884
21
80.909042
0
LINE
8
0
10
137.892884
20
80.909042
11
138.353880
21
80.059721
0
LINE
8
0
10
138.353880
20
80.059721
11
138.964424
21
79.319736
0
LINE
8
0
10
138.964424
20
79.319736
11
139.704409
21
78.709192
0
LINE
8
0
10
139.704409
20
78.709192
11
140.553730
21
78.248196
0
LINE
8
0
10
140.553730
20
78.248196
11
141.492280
21
77.956854
0
LINE
8
0
10
141.492280
20
77.956854
11
142.499953
21
77.855271
0
LINE
8
0
10
142.499953
20
77.855271
11
143.507627
21
77.956854
0
LINE
8
0
10
143.507627
20
77.956854
11
144.446177
21
78.248196
0
LINE
8
0
10
144.446177
20
78.248196
11
145.295498
21
78.709192
0
LINE
8
0
10
145.295498
20
78.709192
11
146.035483
21
79.319736
0
LINE
8
0
10
146.035483
20
79.319736
11
146.646027
21
80.059721
0
LINE
8
0
10
146.646027
20
80.059721
11
147.107023
21
80.909042
0
LINE
8
0
10
147.107023
20
80.909042
11
147.398366
21
81.847592
0
LINE
8
0
10
147.398366
20
81.847592
11
147.499948
21
82.855265
0
LINE
8
0
10
147.499948
20
82.855265
11
147.499948
21
82.855265
0
LINE
8
0
10
129.499970
20
93.247557
11
129.398187
21
94.255051
0
LINE
8
0
10
129.398187
20
94.255051
11
129.106714
21
95.193411
0
LINE
8
0
10
129.106714
20
95.193411
11
128.645652
21
96.042539
0
LINE
8
0
10
128.645652
20
96.042539
11
128.035099
21
96.782342
0
LINE
8
0
10
128.035099
20
96.782342
11
127.295155
21
97.392725
0
LINE
8
0
10
127.295155
20
97.392725
11
126.445920
21
97.853592
0
LINE
8
0
10
126.445920
20
97.853592
11
125.507494
21
98.144849
0
LINE
8
0
10
125.507494
20
98.144849
11
124.499976
21
98.246400
0
LINE
8
0
10
124.499976
20
98.246400
11
123.492458
21
98.144849
0
LINE
8
0
10
123.492458
20
98.144849
11
122.554032
21
97.853592
0
LINE
8
0
10
122.554032
20
97.853592
11
121.704797
21
97.392725
0
LINE
8
0
10
121.704797
20
97.392725
11
120.964853
21
96.782342
0
LINE
8
0
10
120.964853
20
96.782342
11
120.354300
21
96.042539
0
LINE
8
0
10
120.354300
20
96.042539
11
119.893238
21
95.193411
0
LINE
8
0
10
119.893238
20
95.193411
11
119.601765
21
94.255051
0
LINE
8
0
10
119.601765
20
94.255051
11
119.499982
21
93.247557
0
LINE
8
0
10
119.499982
20
93.247557
11
119.601765
21
92.240062
0
LINE
8
0
10
119.601765
20
92.240062
11
119.893238
21
91.301703
0
LINE
8
0
10
119.893238
20
91.301703
11
120.354300
21
90.452574
0
LINE
8
0
10
120.354300
20
90.452574
11
120.964853
21
89.712771
0
LINE
8
0
10
120.964853
20
89.712771
11
121.704797
21
89.102388
0
LINE
8
0
10
121.704797
20
89.102388
11
122.554032
21
88.641521
0
LINE
8
0
10
122.554032
20
88.641521
11
123.492458
21
88.350264
0
LINE
8
0
10
123.492458
20
88.350264
11
124.499976
21
88.248713
0
LINE
8
0
10
124.499976
20
88.248713
11
125.507494
21
88.350264
0
LINE
8
0
10
125.507494
20
88.350264
11
126.445920
21
88.641521
0
LINE
8
0
10
126.445920
20
88.641521
11
127.295155
21
89.102388
0
LINE
8
0
10
127.295155
20
89.102388
11
128.035099
21
89.712771
0
LINE
8
0
10
128.035099
20
89.712771
11
128.645652
21
90.452574
0
LINE
8
0
10
128.645652
20
90.452574
11
129.106714
21
91.301703
0
LINE
8
0
10
129.106714
20
91.301703
11
129.398187
21
92.240062
0
LINE
8
0
10
129.398187
20
92.240062
11
129.499970
21
93.247557
0
LINE
8
0
10
129.499970
20
93.247557
11
129.499970
21
93.247557
0
LINE
8
0
10
153.499939
20
93.247557
11
153.397865
21
94.254793
0
LINE
8
0
10
153.397865
20
94.254793
11
153.106204
21
95.192875
0
LINE
8
0
10
153.106204
20
95.192875
11
152.645045
21
96.041726
0
LINE
8
0
10
152.645045
20
96.041726
11
152.034479
21
96.781265
0
LINE
8
0
10
152.034479
20
96.781265
11
151.294596
21
97.391414
0
LINE
8
0
10
151.294596
20
97.391414
11
150.445486
21
97.852094
0
LINE
8
0
10
150.445486
20
97.852094
11
149.507239
21
98.143227
0
LINE
8
0
10
149.507239
20
98.143227
11
148.499946
21
98.244733
0
LINE
8
0
10
148.499946
20
98.244733
11
147.492652
21
98.143227
0
LINE
8
0
10
147.492652
20
98.143227
11
146.554406
21
97.852094
0
LINE
8
0
10
146.554406
20
97.852094
11
145.705296
21
97.391414
0
LINE
8
0
10
145.705296
20
97.391414
11
144.965413
21
96.781265
0
LINE
8
0
10
144.965413
20
96.781265
11
144.354847
21
96.041726
0
LINE
8
0
10
144.354847
20
96.041726
11
143.893688
21
95.192875
0
LINE
8
0
10
143.893688
20
95.192875
11
143.602027
21
94.254793
0
LINE
8
0
10
143.602027
20
94.254793
11
143.499953
21
93.247557
0
LINE
8
0
10
143.499953
20
93.247557
11
143.602027
21
92.240320
0
LINE
8
0
10
143.602027
20
92.240320
11
143.893688
21
91.302238
0
LINE
8
0
10
143.893688
20
91.302238
11
144.354847
21
90.453388
0
LINE
8
0
10
144.354847
20
90.453388
11
144.965413
21
89.713848
0
LINE
8
0
10
144.965413
20
89.713848
11
145.705296
21
89.103699
0
LINE
8
0
10
145.705296
20
89.103699
11
146.554406
21
88.643019
0
LINE
8
0
10
146.554406
20
88.643019
11
147.492652
21
88.351886
0
LINE
8
0
10
147.492652
20
88.351886
11
148.499946
21
88.250380
0
LINE
8
0
10
148.499946
20
88.250380
11
149.507239
21
88.351886
0
LINE
8
0
10
149.507239
20
88.351886
11
150.445486
21
88.643019
0
LINE
8
0
10
150.445486
20
88.643019
11
151.294596
21
89.103699
0
LINE
8
0
10
151.294596
20
89.103699
11
152.034479
21
89.713848
0
LINE
8
0
10
152.034479
20
89.713848
11
152.645045
21
90.453388
0
LINE
8
0
10
152.645045
20
90.453388
11
153.106204
21
91.302238
0
LINE
8
0
10
153.106204
20
91.302238
11
153.397865
21
92.240320
0
LINE
8
0
10
153.397865
20
92.240320
11
153.499939
21
93.247557
0
LINE
8
0
10
153.499939
20
93.247557
11
153.499939
21
93.247557
0
LINE
8
0
10
165.499923
20
114.032530
11
165.397850
21
115.039766
0
LINE
8
0
10
165.397850
20
115.039766
11
165.106188
21
115.977849
0
LINE
8
0
10
165.106188
20
115.977849
11
164.645030
21
116.826699
0
LINE
8
0
10
164.645030
20
116.826699
11
164.034464
21
117.566238
0
LINE
8
0
10
164.034464
20
117.566238
11
163.294581
21
118.176388
0
LINE
8
0
10
163.294581
20
118.176388
11
162.445471
21
118.637068
0
LINE
8
0
10
162.445471
20
118.637068
11
161.507224
21
118.928200
0
LINE
8
0
10
161.507224
20
118.928200
11
160.499931
21
119.029707
0
LINE
8
0
10
160.499931
20
119.029707
11
159.492637
21
118.928200
0
LINE
8
0
10
159.492637
20
118.928200
11
158.554390
21
118.637068
0
LINE
8
0
10
158.554390
20
118.637068
11
157.705280
21
118.176388
0
LINE
8
0
10
157.705280
20
118.176388
11
156.965397
21
117.566238
0
LINE
8
0
10
156.965397
20
117.566238
11
156.354831
21
116.826699
0
LINE
8
0
10
156.354831
20
116.826699
11
155.893673
21
115.977849
0
LINE
8
0
10
155.893673
20
115.977849
11
155.602011
21
115.039766
0
LINE
8
0
10
155.602011
20
115.039766
11
155.499938
21
114.032530
0
LINE
8
0
10
155.499938
20
114.032530
11
155.602011
21
113.025294
0
LINE
8
0
10
155.602011
20
113.025294
11
155.893673
21
112.087212
0
LINE
8
0
10
155.893673
20
112.087212
11
156.354831
21
111.238361
0
LINE
8
0
10
156.354831
20
111.238361
11
156.965397
21
110.498822
0
LINE
8
0
10
156.965397
20
110.498822
11
157.705280
21
109.888673
0
LINE
8
0
10
157.705280
20
109.888673
11
158.554390
21
109.427993
0
LINE
8
0
10
158.554390
20
109.427993
11
159.492637
21
109.136860
0
LINE
8
0
10
159.492637
20
109.136860
11
160.499931
21
109.035354
0
LINE
8
0
10
160.499931
20
109.035354
11
161.507224
21
109.136860
0
LINE
8
0
10
161.507224
20
109.136860
11
162.445471
21
109.427993
0
LINE
8
0
10
162.445471
20
109.427993
11
163.294581
21
109.888673
0
LINE
8
0
10
163.294581
20
109.888673
11
164.034464
21
110.498822
0
LINE
8
0
10
164.034464
20
110.498822
11
164.645030
21
111.238361
0
LINE
8
0
10
164.645030
20
111.238361
11
165.106188
21
112.087212
0
LINE
8
0
10
165.106188
20
112.087212
11
165.397850
21
113.025294
0
LINE
8
0
10
165.397850
20
113.025294
11
165.499923
21
114.032530
0
LINE
8
0
10
165.499923
20
114.032530
11
165.499923
21
114.032530
0
LINE
8
0
10
153.499939
20
134.817504
11
153.397865
21
135.824740
0
LINE
8
0
10
153.397865
20
135.824740
11
153.106204
21
136.762823
0
LINE
8
0
10
153.106204
20
136.762823
11
152.645045
21
137.611673
0
LINE
8
0
10
152.645045
20
137.611673
11
152.034479
21
138.351212
0
LINE
8
0
10
152.034479
20
138.351212
11
151.294596
21
138.961361
0
LINE
8
0
10
151.294596
20
138.961361
11
150.445486
21
139.422042
0
LINE
8
0
10
150.445486
20
139.422042
11
149.507239
21
139.713174
0
LINE
8
0
10
149.507239
20
139.713174
11
148.499946
21
139.814680
0
LINE
8
0
10
148.499946
20
139.814680
11
147.492652
21
139.713174
0
LINE
8
0
10
147.492652
20
139.713174
11
146.554406
21
139.422042
0
LINE
8
0
10
146.554406
20
139.422042
11
145.705296
21
138.961361
0
LINE
8
0
10
145.705296
20
138.961361
11
144.965413
21
138.351212
0
LINE
8
0
10
144.965413
20
138.351212
11
144.354847
21
137.611673
0
LINE
8
0
10
144.354847
20
137.611673
11
143.893688
21
136.762823
0
LINE
8
0
10
143.893688
20
136.762823
11
143.602027
21
135.824740
0
LINE
8
0
10
143.602027
20
135.824740
11
143.499953
21
134.817504
0
LINE
8
0
10
143.499953
20
134.817504
11
143.602027
21
133.810268
0
LINE
8
0
10
143.602027
20
133.810268
11
143.893688
21
132.872185
0
LINE
8
0
10
143.893688
20
132.872185
11
144.354847
21
132.023335
0
LINE
8
0
10
144.354847
20
132.023335
11
144.965413
21
131.283796
0
LINE
8
0
10
144.965413
20
131.283796
11
145.705296
21
130.673647
0
LINE
8
0
10
145.705296
20
130.673647
11
146.554406
21
130.212966
0
LINE
8
0
10
146.554406
20
130.212966
11
147.492652
21
129.921834
0
LINE
8
0
10
147.492652
20
129.921834
11
148.499946
21
129.820328
0
LINE
8
0
10
148.499946
20
129.820328
11
149.507239
21
129.921834
0
LINE
8
0
10
149.507239
20
129.921834
11
150.445486
21
130.212966
0
LINE
8
0
10
150.445486
20
130.212966
11
151.294596
21
130.673647
0
LINE
8
0
10
151.294596
20
130.673647
11
152.034479
21
131.283796
0
LINE
8
0
10
152.034479
20
131.283796
11
152.645045
21
132.023335
0
LINE
8
0
10
152.645045
20
132.023335
11
153.106204
21
132.872185
0
LINE
8
0
10
153.106204
20
132.872185
11
153.397865
21
133.810268
0
LINE
8
0
10
153.397865
20
133.810268
11
153.499939
21
134.817504
0
LINE
8
0
10
153.499939
20
134.817504
11
153.499939
21
134.817504
0
LINE
8
0
10
129.499970
20
134.817504
11
129.398187
21
135.824999
0
LINE
8
0
10
129.398187
20
135.824999
11
129.106714
21
136.763358
0
LINE
8
0
10
129.106714
20
136.763358
11
128.645652
21
137.612487
0
LINE
8
0
10
128.645652
20
137.612487
11
128.035099
21
138.352290
0
LINE
8
0
10
128.035099
20
138.352290
11
127.295155
21
138.962673
0
LINE
8
0
10
127.295155
20
138.962673
11
126.445920
21
139.423540
0
LINE
8
0
10
126.445920
20
139.423540
11
125.507494
21
139.714796
0
LINE
8
0
10
125.507494
20
139.714796
11
124.499976
21
139.816348
0
LINE
8
0
10
124.499976
20
139.816348
11
123.492458
21
139.714796
0
LINE
8
0
10
123.492458
20
139.714796
11
122.554032
21
139.423540
0
LINE
8
0
10
122.554032
20
139.423540
11
121.704797
21
138.962673
0
LINE
8
0
10
121.704797
20
138.962673
11
120.964853
21
138.352290
0
LINE
8
0
10
120.964853
20
138.352290
11
120.354300
21
137.612487
0
LINE
8
0
10
120.354300
20
137.612487
11
119.893238
21
136.763358
0
LINE
8
0
10
119.893238
20
136.763358
11
119.601765
21
135.824999
0
LINE
8
0
10
119.601765
20
135.824999
11
119.499982
21
134.817504
0
LINE
8
0
10
119.499982
20
134.817504
11
119.601765
21
133.810009
0
LINE
8
0
10
119.601765
20
133.810009
11
119.893238
21
132.871650
0
LINE
8
0
10
119.893238
20
132.871650
11
120.354300
21
132.022521
0
LINE
8
0
10
120.354300
20
132.022521
11
120.964853
21
131.282718
0
LINE
8
0
10
120.964853
20
131.282718
11
121.704797
21
130.672335
0
LINE
8
0
10
121.704797
20
130.672335
11
122.554032
21
130.211468
0
LINE
8
0
10
122.554032
20
130.211468
11
123.492458
21
129.920212
0
LINE
8
0
10
123.492458
20
129.920212
11
124.499976
21
129.818660
0
LINE
8
0
10
124.499976
20
129.818660
11
125.507494
21
129.920212
0
LINE
8
0
10
125.507494
20
129.920212
11
126.445920
21
130.211468
0
LINE
8
0
10
126.445920
20
130.211468
11
127.295155
21
130.672335
0
LINE
8
0
10
127.295155
20
130.672335
11
128.035099
21
131.282718
0
LINE
8
0
10
128.035099
20
131.282718
11
128.645652
21
132.022521
0
LINE
8
0
10
128.645652
20
132.022521
11
129.106714
21
132.871650
0
LINE
8
0
10
129.106714
20
132.871650
11
129.398187
21
133.810009
0
LINE
8
0
10
129.398187
20
133.810009
11
129.499970
21
134.817504
0
LINE
8
0
10
129.499970
20
134.817504
11
129.499970
21
134.817504
0
LINE
8
0
10
129.499970
20
155.602478
11
129.398187
21
156.609972
0
LINE
8
0
10
129.398187
20
156.609972
11
129.106714
21
157.548332
0
LINE
8
0
10
129.106714
20
157.548332
11
128.645652
21
158.397460
0
LINE
8
0
10
128.645652
20
158.397460
11
128.035099
21
159.137264
0
LINE
8
0
10
128.035099
20
159.137264
11
127.295155
21
159.747646
0
LINE
8
0
10
127.295155
20
159.747646
11
126.445920
21
160.208514
0
LINE
8
0
10
126.445920
20
160.208514
11
125.507494
21
160.499770
0
LINE
8
0
10
125.507494
20
160.499770
11
124.499976
21
160.601321
0
LINE
8
0
10
124.499976
20
160.601321
11
123.492458
21
160.499770
0
LINE
8
0
10
123.492458
20
160.499770
11
122.554032
21
160.208514
0
LINE
8
0
10
122.554032
20
160.208514
11
121.704797
21
159.747646
0
LINE
8
0
10
121.704797
20
159.747646
11
120.964853
21
159.137264
0
LINE
8
0
10
120.964853
20
159.137264
11
120.354300
21
158.397460
0
LINE
8
0
10
120.354300
20
158.397460
11
119.893238
21
157.548332
0
LINE
8
0
10
119.893238
20
157.548332
11
119.601765
21
156.609972
0
LINE
8
0
10
119.601765
20
156.609972
11
119.499982
21
155.602478
0
LINE
8
0
10
119.499982
20
155.602478
11
119.601765
21
154.594983
0
LINE
8
0
10
119.601765
20
154.594983
11
119.893238
21
153.656624
0
LINE
8
0
10
119.893238
20
153.656624
11
120.354300
21
152.807495
0
LINE
8
0
10
120.354300
20
152.807495
11
120.964853
21
152.067692
0
LINE
8
0
10
120.964853
20
152.067692
11
121.704797
21
151.457309
0
LINE
8
0
10
121.704797
20
151.457309
11
122.554032
21
150.996442
0
LINE
8
0
10
122.554032
20
150.996442
11
123.492458
21
150.705185
0
LINE
8
0
10
123.492458
20
150.705185
11
124.499976
21
150.603634
0
LINE
8
0
10
124.499976
20
150.603634
11
125.507494
21
150.705185
0
LINE
8
0
10
125.507494
20
150.705185
11
126.445920
21
150.996442
0
LINE
8
0
10
126.445920
20
150.996442
11
127.295155
21
151.457309
0
LINE
8
0
10
127.295155
20
151.457309
11
128.035099
21
152.067692
0
LINE
8
0
10
128.035099
20
152.067692
11
128.645652
21
152.807495
0
LINE
8
0
10
128.645652
20
152.807495
11
129.106714
21
153.656624
0
LINE
8
0
10
129.106714
20
153.656624
11
129.398187
21
154.594983
0
LINE
8
0
10
129.398187
20
154.594983
11
129.499970
21
155.602478
0
LINE
8
0
10
129.499970
20
155.602478
11
129.499970
21
155.602478
0
LINE
8
0
10
129.499970
20
176.387451
11
129.398187
21
177.394946
0
LINE
8
0
10
129.398187
20
177.394946
11
129.106714
21
178.333305
0
LINE
8
0
10
129.106714
20
178.333305
11
128.645652
21
179.182434
0
LINE
8
0
10
128.645652
20
179.182434
11
128.035099
21
179.922237
0
LINE
8
0
10
128.035099
20
179.922237
11
127.295155
21
180.532620
0
LINE
8
0
10
127.295155
20
180.532620
11
126.445920
21
180.993487
0
LINE
8
0
10
126.445920
20
180.993487
11
125.507494
21
181.284744
0
LINE
8
0
10
125.507494
20
181.284744
11
124.499976
21
181.386295
0
LINE
8
0
10
124.499976
20
181.386295
11
123.492458
21
181.284744
0
LINE
8
0
10
123.492458
20
181.284744
11
122.554032
21
180.993487
0
LINE
8
0
10
122.554032
20
180.993487
11
121.704797
21
180.532620
0
LINE
8
0
10
121.704797
20
180.532620
11
120.964853
21
179.922237
0
LINE
8
0
10
120.964853
20
179.922237
11
120.354300
21
179.182434
0
LINE
8
0
10
120.354300
20
179.182434
11
119.893238
21
178.333305
0
LINE
8
0
10
119.893238
20
178.333305
11
119.601765
21
177.394946
0
LINE
8
0
10
119.601765
20
177.394946
11
119.499982
21
176.387451
0
LINE
8
0
10
119.499982
20
176.387451
11
119.601765
21
175.379957
0
LINE
8
0
10
119.601765
20
175.379957
11
119.893238
21
174.441597
0
LINE
8
0
10
119.893238
20
174.441597
11
120.354300
21
173.592469
0
LINE
8
0
10
120.354300
20
173.592469
11
120.964853
21
172.852666
0
LINE
8
0
10
120.964853
20
172.852666
11
121.704797
21
172.242283
0
LINE
8
0
10
121.704797
20
172.242283
11
122.554032
21
171.781416
0
LINE
8
0
10
122.554032
20
171.781416
11
123.492458
21
171.490159
0
LINE
8
0
10
123.492458
20
171.490159
11
124.499976
21
171.388608
0
LINE
8
0
10
124.499976
20
171.388608
11
125.507494
21
171.490159
0
LINE
8
0
10
125.507494
20
171.490159
11
126.445920
21
171.781416
0
LINE
8
0
10
126.445920
20
171.781416
11
127.295155
21
172.242283
0
LINE
8
0
10
127.295155
20
172.242283
11
128.035099
21
172.852666
0
LINE
8
0
10
128.035099
20
172.852666
11
128.645652
21
173.592469
0
LINE
8
0
10
128.645652
20
173.592469
11
129.106714
21
174.441597
0
LINE
8
0
10
129.106714
20
174.441597
11
129.398187
21
175.379957
0
LINE
8
0
10
129.398187
20
175.379957
11
129.499970
21
176.387451
0
LINE
8
0
10
129.499970
20
176.387451
11
129.499970
21
176.387451
0
LINE
8
0
10
153.499939
20
176.387451
11
153.397865
21
177.394688
0
LINE
8
0
10
153.397865
20
177.394688
11
153.106204
21
178.332770
0
LINE
8
0
10
153.106204
20
178.332770
11
152.645045
21
179.181620
0
LINE
8
0
10
152.645045
20
179.181620
11
152.034479
21
179.921160
0
LINE
8
0
10
152.034479
20
179.921160
11
151.294596
21
180.531309
0
LINE
8
0
10
151.294596
20
180.531309
11
150.445486
21
180.991989
0
LINE
8
0
10
150.445486
20
180.991989
11
149.507239
21
181.283122
0
LINE
8
0
10
149.507239
20
181.283122
11
148.499946
21
181.384628
0
LINE
8
0
10
148.499946
20
181.384628
11
147.492652
21
181.283122
0
LINE
8
0
10
147.492652
20
181.283122
11
146.554406
21
180.991989
0
LINE
8
0
10
146.554406
20
180.991989
11
145.705296
21
180.531309
0
LINE
8
0
10
145.705296
20
180.531309
11
144.965413
21
179.921160
0
LINE
8
0
10
144.965413
20
179.921160
11
144.354847
21
179.181620
0
LINE
8
0
10
144.354847
20
179.181620
11
143.893688
21
178.332770
0
LINE
8
0
10
143.893688
20
178.332770
11
143.602027
21
177.394688
0
LINE
8
0
10
143.602027
20
177.394688
11
143.499953
21
176.387451
0
LINE
8
0
10
143.499953
20
176.387451
11
143.602027
21
175.380215
0
LINE
8
0
10
143.602027
20
175.380215
11
143.893688
21
174.442133
0
LINE
8
0
10
143.893688
20
174.442133
11
144.354847
21
173.593283
0
LINE
8
0
10
144.354847
20
173.593283
11
144.965413
21
172.853743
0
LINE
8
0
10
144.965413
20
172.853743
11
145.705296
21
172.243594
0
LINE
8
0
10
145.705296
20
172.243594
11
146.554406
21
171.782914
0
LINE
8
0
10
146.554406
20
171.782914
11
147.492652
21
171.491781
0
LINE
8
0
10
147.492652
20
171.491781
11
148.499946
21
171.390275
0
LINE
8
0
10
148.499946
20
171.390275
11
149.507239
21
171.491781
0
LINE
8
0
10
149.507239
20
171.491781
11
150.445486
21
171.782914
0
LINE
8
0
10
150.445486
20
171.782914
11
151.294596
21
172.243594
0
LINE
8
0
10
151.294596
20
172.243594
11
152.034479
21
172.853743
0
LINE
8
0
10
152.034479
20
172.853743
11
152.645045
21
173.593283
0
LINE
8
0
10
152.645045
20
173.593283
11
153.106204
21
174.442133
0
LINE
8
0
10
153.106204
20
174.442133
11
153.397865
21
175.380215
0
LINE
8
0
10
153.397865
20
175.380215
11
153.499939
21
176.387451
0
LINE
8
0
10
153.499939
20
176.387451
11
153.499939
21
176.387451
0
LINE
8
0
10
171.499917
20
186.780134
11
171.326840
21
188.084721
0
LINE
8
0
10
171.326840
20
188.084721
11
170.830045
21
189.280131
0
LINE
8
0
10
170.830045
20
189.280131
11
170.043187
21
190.308074
0
LINE
8
0
10
170.043187
20
190.308074
11
168.999920
21
191.110256
0
LINE
8
0
10
168.999920
20
191.110256
11
167.783576
21
191.612660
0
LINE
8
0
10
167.783576
20
191.612660
11
166.499923
21
191.780128
0
LINE
8
0
10
166.499923
20
191.780128
11
165.216270
21
191.612660
0
LINE
8
0
10
165.216270
20
191.612660
11
163.999926
21
191.110256
0
LINE
8
0
10
163.999926
20
191.110256
11
162.956659
21
190.308074
0
LINE
8
0
10
162.956659
20
190.308074
11
162.169801
21
189.280131
0
LINE
8
0
10
162.169801
20
189.280131
11
161.673006
21
188.084721
0
LINE
8
0
10
161.673006
20
188.084721
11
161.499929
21
186.780134
0
LINE
8
0
10
161.499929
20
186.780134
11
161.673006
21
185.475547
0
LINE
8
0
10
161.673006
20
185.475547
11
162.169801
21
184.280137
0
LINE
8
0
10
162.169801
20
184.280137
11
162.956659
21
183.252195
0
LINE
8
0
10
162.956659
20
183.252195
11
163.999926
21
182.450012
0
LINE
8
0
10
163.999926
20
182.450012
11
165.216270
21
181.947608
0
LINE
8
0
10
165.216270
20
181.947608
11
166.499923
21
181.780140
0
LINE
8
0
10
166.499923
20
181.780140
11
167.783576
21
181.947608
0
LINE
8
0
10
167.783576
20
181.947608
11
168.999920
21
182.450012
0
LINE
8
0
10
168.999920
20
182.450012
11
170.043187
21
183.252195
0
LINE
8
0
10
170.043187
20
183.252195
11
170.830045
21
184.280137
0
LINE
8
0
10
170.830045
20
184.280137
11
171.326840
21
185.475547
0
LINE
8
0
10
171.326840
20
185.475547
11
171.499917
21
186.780134
0
LINE
8
0
10
171.499917
20
186.780134
11
171.499917
21
186.780134
0
LINE
8
0
10
159.499932
20
186.780134
11
159.326855
21
188.084721
0
LINE
8
0
10
159.326855
20
188.084721
11
158.830060
21
189.280131
0
LINE
8
0
10
158.830060
20
189.280131
11
158.043202
21
190.308074
0
LINE
8
0
10
158.043202
20
190.308074
11
156.999935
21
191.110256
0
LINE
8
0
10
156.999935
20
191.110256
11
155.783591
21
191.612660
0
LINE
8
0
10
155.783591
20
191.612660
11
154.499938
21
191.780128
0
LINE
8
0
10
154.499938
20
191.780128
11
153.216285
21
191.612660
0
LINE
8
0
10
153.216285
20
191.612660
11
151.999941
21
191.110256
0
LINE
8
0
10
151.999941
20
191.110256
11
150.956674
21
190.308074
0
LINE
8
0
10
150.956674
20
190.308074
11
150.169816
21
189.280131
0
LINE
8
0
10
150.169816
20
189.280131
11
149.673021
21
188.084721
0
LINE
8
0
10
149.673021
20
188.084721
11
149.499944
21
186.780134
0
LINE
8
0
10
149.499944
20
186.780134
11
149.673021
21
185.475547
0
LINE
8
0
10
149.673021
20
185.475547
11
150.169816
21
184.280137
0
LINE
8
0
10
150.169816
20
184.280137
11
150.956674
21
183.252195
0
LINE
8
0
10
150.956674
20
183.252195
11
151.999941
21
182.450012
0
LINE
8
0
10
151.999941
20
182.450012
11
153.216285
21
181.947608
0
LINE
8
0
10
153.216285
20
181.947608
11
154.499938
21
181.780140
0
LINE
8
0
10
154.499938
20
181.780140
11
155.783591
21
181.947608
0
LINE
8
0
10
155.783591
20
181.947608
11
156.999935
21
182.450012
0
LINE
8
0
10
156.999935
20
182.450012
11
158.043202
21
183.252195
0
LINE
8
0
10
158.043202
20
183.252195
11
158.830060
21
184.280137
0
LINE
8
0
10
158.830060
20
184.280137
11
159.326855
21
185.475547
0
LINE
8
0
10
159.326855
20
185.475547
11
159.499932
21
186.780134
0
LINE
8
0
10
159.499932
20
186.780134
11
159.499932
21
186.780134
0
LINE
8
0
10
141.499954
20
176.387451
11
141.398024
21
177.394816
0
LINE
8
0
10
141.398024
20
177.394816
11
141.106456
21
178.333035
0
LINE
8
0
10
141.106456
20
178.333035
11
140.645345
21
179.182023
0
LINE
8
0
10
140.645345
20
179.182023
11
140.034786
21
179.921693
0
LINE
8
0
10
140.034786
20
179.921693
11
139.294873
21
180.531958
0
LINE
8
0
10
139.294873
20
180.531958
11
138.445701
21
180.992731
0
LINE
8
0
10
138.445701
20
180.992731
11
137.507365
21
181.283925
0
LINE
8
0
10
137.507365
20
181.283925
11
136.499961
21
181.385453
0
LINE
8
0
10
136.499961
20
181.385453
11
135.492556
21
181.283925
0
LINE
8
0
10
135.492556
20
181.283925
11
134.554220
21
180.992731
0
LINE
8
0
10
134.554220
20
180.992731
11
133.705049
21
180.531958
0
LINE
8
0
10
133.705049
20
180.531958
11
132.965136
21
179.921693
0
LINE
8
0
10
132.965136
20
179.921693
11
132.354576
21
179.182023
0
LINE
8
0
10
132.354576
20
179.182023
11
131.893465
21
178.333035
0
LINE
8
0
10
131.893465
20
178.333035
11
131.601897
21
177.394816
0
LINE
8
0
10
131.601897
20
177.394816
11
131.499967
21
176.387451
0
LINE
8
0
10
131.499967
20
176.387451
11
131.601897
21
175.380087
0
LINE
8
0
10
131.601897
20
175.380087
11
131.893465
21
174.441868
0
LINE
8
0
10
131.893465
20
174.441868
11
132.354576
21
173.592880
0
LINE
8
0
10
132.354576
20
173.592880
11
132.965136
21
172.853210
0
LINE
8
0
10
132.965136
20
172.853210
11
133.705049
21
172.242945
0
LINE
8
0
10
133.705049
20
172.242945
11
134.554220
21
171.782172
0
LINE
8
0
10
134.554220
20
171.782172
11
135.492556
21
171.490978
0
LINE
8
0
10
135.492556
20
171.490978
11
136.499961
21
171.389450
0
LINE
8
0
10
136.499961
20
171.389450
11
137.507365
21
171.490978
0
LINE
8
0
10
137.507365
20
171.490978
11
138.445701
21
171.782172
0
LINE
8
0
10
138.445701
20
171.782172
11
139.294873
21
172.242945
0
LINE
8
0
10
139.294873
20
172.242945
11
140.034786
21
172.853210
0
LINE
8
0
10
140.034786
20
172.853210
11
140.645345
21
173.592880
0
LINE
8
0
10
140.645345
20
173.592880
11
141.106456
21
174.441868
0
LINE
8
0
10
141.106456
20
174.441868
11
141.398024
21
175.380087
0
LINE
8
0
10
141.398024
20
175.380087
11
141.499954
21
176.387451
0
LINE
8
0
10
141.499954
20
176.387451
11
141.499954
21
176.387451
0
LINE
8
0
10
135.499963
20
165.995160
11
135.326886
21
167.299747
0
LINE
8
0
10
135.326886
20
167.299747
11
134.830091
21
168.495157
0
LINE
8
0
10
134.830091
20
168.495157
11
134.043233
21
169.523100
0
LINE
8
0
10
134.043233
20
169.523100
11
132.999966
21
170.325282
0
LINE
8
0
10
132.999966
20
170.325282
11
131.783622
21
170.827686
0
LINE
8
0
10
131.783622
20
170.827686
11
130.499969
21
170.995154
0
LINE
8
0
10
130.499969
20
170.995154
11
129.216316
21
170.827686
0
LINE
8
0
10
129.216316
20
170.827686
11
127.999972
21
170.325282
0
LINE
8
0
10
127.999972
20
170.325282
11
126.956705
21
169.523100
0
LINE
8
0
10
126.956705
20
169.523100
11
126.169847
21
168.495157
0
LINE
8
0
10
126.169847
20
168.495157
11
125.673052
21
167.299747
0
LINE
8
0
10
125.673052
20
167.299747
11
125.499975
21
165.995160
0
LINE
8
0
10
125.499975
20
165.995160
11
125.673052
21
164.690574
0
LINE
8
0
10
125.673052
20
164.690574
11
126.169847
21
163.495163
0
LINE
8
0
10
126.169847
20
163.495163
11
126.956705
21
162.467221
0
LINE
8
0
10
126.956705
20
162.467221
11
127.999972
21
161.665039
0
LINE
8
0
10
127.999972
20
161.665039
11
129.216316
21
161.162634
0
LINE
8
0
10
129.216316
20
161.162634
11
130.499969
21
160.995166
0
LINE
8
0
10
130.499969
20
160.995166
11
131.783622
21
161.162634
0
LINE
8
0
10
131.783622
20
161.162634
11
132.999966
21
161.665039
0
LINE
8
0
10
132.999966
20
161.665039
11
134.043233
21
162.467221
0
LINE
8
0
10
134.043233
20
162.467221
11
134.830091
21
163.495163
0
LINE
8
0
10
134.830091
20
163.495163
11
135.326886
21
164.690574
0
LINE
8
0
10
135.326886
20
164.690574
11
135.499963
21
165.995160
0
LINE
8
0
10
135.499963
20
165.995160
11
135.499963
21
165.995160
0
LINE
8
0
10
135.499963
20
145.210187
11
135.326886
21
146.514773
0
LINE
8
0
10
135.326886
20
146.514773
11
134.830091
21
147.710184
0
LINE
8
0
10
134.830091
20
147.710184
11
134.043233
21
148.738126
0
LINE
8
0
10
134.043233
20
148.738126
11
132.999966
21
149.540309
0
LINE
8
0
10
132.999966
20
149.540309
11
131.783622
21
150.042713
0
LINE
8
0
10
131.783622
20
150.042713
11
130.499969
21
150.210181
0
LINE
8
0
10
130.499969
20
150.210181
11
129.216316
21
150.042713
0
LINE
8
0
10
129.216316
20
150.042713
11
127.999972
21
149.540309
0
LINE
8
0
10
127.999972
20
149.540309
11
126.956705
21
148.738126
0
LINE
8
0
10
126.956705
20
148.738126
11
126.169847
21
147.710184
0
LINE
8
0
10
126.169847
20
147.710184
11
125.673052
21
146.514773
0
LINE
8
0
10
125.673052
20
146.514773
11
125.499975
21
145.210187
0
LINE
8
0
10
125.499975
20
145.210187
11
125.673052
21
143.905600
0
LINE
8
0
10
125.673052
20
143.905600
11
126.169847
21
142.710190
0
LINE
8
0
10
126.169847
20
142.710190
11
126.956705
21
141.682247
0
LINE
8
0
10
126.956705
20
141.682247
11
127.999972
21
140.880065
0
LINE
8
0
10
127.999972
20
140.880065
11
129.216316
21
140.377661
0
LINE
8
0
10
129.216316
20
140.377661
11
130.499969
21
140.210193
0
LINE
8
0
10
130.499969
20
140.210193
11
131.783622
21
140.377661
0
LINE
8
0
10
131.783622
20
140.377661
11
132.999966
21
140.880065
0
LINE
8
0
10
132.999966
20
140.880065
11
134.043233
21
141.682247
0
LINE
8
0
10
134.043233
20
141.682247
11
134.830091
21
142.710190
0
LINE
8
0
10
134.830091
20
142.710190
11
135.326886
21
143.905600
0
LINE
8
0
10
135.326886
20
143.905600
11
135.499963
21
145.210187
0
LINE
8
0
10
135.499963
20
145.210187
11
135.499963
21
145.210187
0
LINE
8
0
10
141.499954
20
134.817504
11
141.398024
21
135.824868
0
LINE
8
0
10
141.398024
20
135.824868
11
141.106456
21
136.763088
0
LINE
8
0
10
141.106456
20
136.763088
11
140.645345
21
137.612076
0
LINE
8
0
10
140.645345
20
137.612076
11
140.034786
21
138.351746
0
LINE
8
0
10
140.034786
20
138.351746
11
139.294873
21
138.962010
0
LINE
8
0
10
139.294873
20
138.962010
11
138.445701
21
139.422783
0
LINE
8
0
10
138.445701
20
139.422783
11
137.507365
21
139.713977
0
LINE
8
0
10
137.507365
20
139.713977
11
136.499961
21
139.815506
0
LINE
8
0
10
136.499961
20
139.815506
11
135.492556
21
139.713977
0
LINE
8
0
10
135.492556
20
139.713977
11
134.554220
21
139.422783
0
LINE
8
0
10
134.554220
20
139.422783
11
133.705049
21
138.962010
0
LINE
8
0
10
133.705049
20
138.962010
11
132.965136
21
138.351746
0
LINE
8
0
10
132.965136
20
138.351746
11
132.354576
21
137.612076
0
LINE
8
0
10
132.354576
20
137.612076
11
131.893465
21
136.763088
0
LINE
8
0
10
131.893465
20
136.763088
11
131.601897
21
135.824868
0
LINE
8
0
10
131.601897
20
135.824868
11
131.499967
21
134.817504
0
LINE
8
0
10
131.499967
20
134.817504
11
131.601897
21
133.810140
0
LINE
8
0
10
131.601897
20
133.810140
11
131.893465
21
132.871920
0
LINE
8
0
10
131.893465
20
132.871920
11
132.354576
21
132.022932
0
LINE
8
0
10
132.354576
20
132.022932
11
132.965136
21
131.283262
0
LINE
8
0
10
132.965136
20
131.283262
11
133.705049
21
130.672998
0
LINE
8
0
10
133.705049
20
130.672998
11
134.554220
21
130.212225
0
LINE
8
0
10
134.554220
20
130.212225
11
135.492556
21
129.921031
0
LINE
8
0
10
135.492556
20
129.921031
11
136.499961
21
129.819502
0
LINE
8
0
10
136.499961
20
129.819502
11
137.507365
21
129.921031
0
LINE
8
0
10
137.507365
20
129.921031
11
138.445701
21
130.212225
0
LINE
8
0
10
138.445701
20
130.212225
11
139.294873
21
130.672998
0
LINE
8
0
10
139.294873
20
130.672998
11
140.034786
21
131.283262
0
LINE
8
0
10
140.034786
20
131.283262
11
140.645345
21
132.022932
0
LINE
8
0
10
140.645345
20
132.022932
11
141.106456
21
132.871920
0
LINE
8
0
10
141.106456
20
132.871920
11
141.398024
21
133.810140
0
LINE
8
0
10
141.398024
20
133.810140
11
141.499954
21
134.817504
0
LINE
8
0
10
141.499954
20
134.817504
11
141.499954
21
134.817504
0
LINE
8
0
10
159.499932
20
124.425213
11
159.326855
21
125.729800
0
LINE
8
0
10
159.326855
20
125.729800
11
158.830060
21
126.925210
0
LINE
8
0
10
158.830060
20
126.925210
11
158.043202
21
127.953152
0
LINE
8
0
10
158.043202
20
127.953152
11
156.999935
21
128.755335
0
LINE
8
0
10
156.999935
20
128.755335
11
155.783591
21
129.257739
0
LINE
8
0
10
155.783591
20
129.257739
11
154.499938
21
129.425207
0
LINE
8
0
10
154.499938
20
129.425207
11
153.216285
21
129.257739
0
LINE
8
0
10
153.216285
20
129.257739
11
151.999941
21
128.755335
0
LINE
8
0
10
151.999941
20
128.755335
11
150.956674
21
127.953152
0
LINE
8
0
10
150.956674
20
127.953152
11
150.169816
21
126.925210
0
LINE
8
0
10
150.169816
20
126.925210
11
149.673021
21
125.729800
0
LINE
8
0
10
149.673021
20
125.729800
11
149.499944
21
124.425213
0
LINE
8
0
10
149.499944
20
124.425213
11
149.673021
21
123.120626
0
LINE
8
0
10
149.673021
20
123.120626
11
150.169816
21
121.925216
0
LINE
8
0
10
150.169816
20
121.925216
11
150.956674
21
120.897273
0
LINE
8
0
10
150.956674
20
120.897273
11
151.999941
21
120.095091
0
LINE
8
0
10
151.999941
20
120.095091
11
153.216285
21
119.592687
0
LINE
8
0
10
153.216285
20
119.592687
11
154.499938
21
119.425219
0
LINE
8
0
10
154.499938
20
119.425219
11
155.783591
21
119.592687
0
LINE
8
0
10
155.783591
20
119.592687
11
156.999935
21
120.095091
0
LINE
8
0
10
156.999935
20
120.095091
11
158.043202
21
120.897273
0
LINE
8
0
10
158.043202
20
120.897273
11
158.830060
21
121.925216
0
LINE
8
0
10
158.830060
20
121.925216
11
159.326855
21
123.120626
0
LINE
8
0
10
159.326855
20
123.120626
11
159.499932
21
124.425213
0
LINE
8
0
10
159.499932
20
124.425213
11
159.499932
21
124.425213
0
LINE
8
0
10
159.499932
20
103.640239
11
159.326855
21
104.944826
0
LINE
8
0
10
159.326855
20
104.944826
11
158.830060
21
106.140236
0
LINE
8
0
10
158.830060
20
106.140236
11
158.043202
21
107.168179
0
LINE
8
0
10
158.043202
20
107.168179
11
156.999935
21
107.970361
0
LINE
8
0
10
156.999935
20
107.970361
11
155.783591
21
108.472765
0
LINE
8
0
10
155.783591
20
108.472765
11
154.499938
21
108.640233
0
LINE
8
0
10
154.499938
20
108.640233
11
153.216285
21
108.472765
0
LINE
8
0
10
153.216285
20
108.472765
11
151.999941
21
107.970361
0
LINE
8
0
10
151.999941
20
107.970361
11
150.956674
21
107.168179
0
LINE
8
0
10
150.956674
20
107.168179
11
150.169816
21
106.140236
0
LINE
8
0
10
150.169816
20
106.140236
11
149.673021
21
104.944826
0
LINE
8
0
10
149.673021
20
104.944826
11
149.499944
21
103.640239
0
LINE
8
0
10
149.499944
20
103.640239
11
149.673021
21
102.335652
0
LINE
8
0
10
149.673021
20
102.335652
11
150.169816
21
101.140242
0
LINE
8
0
10
150.169816
20
101.140242
11
150.956674
21
100.112300
0
LINE
8
0
10
150.956674
20
100.112300
11
151.999941
21
99.310117
0
LINE
8
0
10
151.999941
20
99.310117
11
153.216285
21
98.807713
0
LINE
8
0
10
153.216285
20
98.807713
11
154.499938
21
98.640245
0
LINE
8
0
10
154.499938
20
98.640245
11
155.783591
21
98.807713
0
LINE
8
0
10
155.783591
20
98.807713
11
156.999935
21
99.310117
0
LINE
8
0
10
156.999935
20
99.310117
11
158.043202
21
100.112300
0
LINE
8
0
10
158.043202
20
100.112300
11
158.830060
21
101.140242
0
LINE
8
0
10
158.830060
20
101.140242
11
159.326855
21
102.335652
0
LINE
8
0
10
159.326855
20
102.335652
11
159.499932
21
103.640239
0
LINE
8
0
10
159.499932
20
103.640239
11
159.499932
21
103.640239
0
LINE
8
0
10
141.499954
20
93.247557
11
141.398024
21
94.254921
0
LINE
8
0
10
141.398024
20
94.254921
11
141.106456
21
95.193140
0
LINE
8
0
10
141.106456
20
95.193140
11
140.645345
21
96.042128
0
LINE
8
0
10
140.645345
20
96.042128
11
140.034786
21
96.781798
0
LINE
8
0
10
140.034786
20
96.781798
11
139.294873
21
97.392063
0
LINE
8
0
10
139.294873
20
97.392063
11
138.445701
21
97.852836
0
LINE
8
0
10
138.445701
20
97.852836
11
137.507365
21
98.144030
0
LINE
8
0
10
137.507365
20
98.144030
11
136.499961
21
98.245558
0
LINE
8
0
10
136.499961
20
98.245558
11
135.492556
21
98.144030
0
LINE
8
0
10
135.492556
20
98.144030
11
134.554220
21
97.852836
0
LINE
8
0
10
134.554220
20
97.852836
11
133.705049
21
97.392063
0
LINE
8
0
10
133.705049
20
97.392063
11
132.965136
21
96.781798
0
LINE
8
0
10
132.965136
20
96.781798
11
132.354576
21
96.042128
0
LINE
8
0
10
132.354576
20
96.042128
11
131.893465
21
95.193140
0
LINE
8
0
10
131.893465
20
95.193140
11
131.601897
21
94.254921
0
LINE
8
0
10
131.601897
20
94.254921
11
131.499967
21
93.247557
0
LINE
8
0
10
131.499967
20
93.247557
11
131.601897
21
92.240192
0
LINE
8
0
10
131.601897
20
92.240192
11
131.893465
21
91.301973
0
LINE
8
0
10
131.893465
20
91.301973
11
132.354576
21
90.452985
0
LINE
8
0
10
132.354576
20
90.452985
11
132.965136
21
89.713315
0
LINE
8
0
10
132.965136
20
89.713315
11
133.705049
21
89.103050
0
LINE
8
0
10
133.705049
20
89.103050
11
134.554220
21
88.642277
0
LINE
8
0
10
134.554220
20
88.642277
11
135.492556
21
88.351083
0
LINE
8
0
10
135.492556
20
88.351083
11
136.499961
21
88.249555
0
LINE
8
0
10
136.499961
20
88.249555
11
137.507365
21
88.351083
0
LINE
8
0
10
137.507365
20
88.351083
11
138.445701
21
88.642277
0
LINE
8
0
10
138.445701
20
88.642277
11
139.294873
21
89.103050
0
LINE
8
0
10
139.294873
20
89.103050
11
140.034786
21
89.713315
0
LINE
8
0
10
140.034786
20
89.713315
11
140.645345
21
90.452985
0
LINE
8
0
10
140.645345
20
90.452985
11
141.106456
21
91.301973
0
LINE
8
0
10
141.106456
20
91.301973
11
141.398024
21
92.240192
0
LINE
8
0
10
141.398024
20
92.240192
11
141.499954
21
93.247557
0
LINE
8
0
10
141.499954
20
93.247557
11
141.499954
21
93.247557
0
LINE
8
0
10
135.499963
20
82.855265
11
135.326886
21
84.159852
0
LINE
8
0
10
135.326886
20
84.159852
11
134.830091
21
85.355262
0
LINE
8
0
10
134.830091
20
85.355262
11
134.043233
21
86.383205
0
LINE
8
0
10
134.043233
20
86.383205
11
132.999966
21
87.185387
0
LINE
8
0
10
132.999966
20
87.185387
11
131.783622
21
87.687791
0
LINE
8
0
10
131.783622
20
87.687791
11
130.499969
21
87.855259
0
LINE
8
0
10
130.499969
20
87.855259
11
129.216316
21
87.687791
0
LINE
8
0
10
129.216316
20
87.687791
11
127.999972
21
87.185387
0
LINE
8
0
10
127.999972
20
87.185387
11
126.956705
21
86.383205
0
LINE
8
0
10
126.956705
20
86.383205
11
126.169847
21
85.355262
0
LINE
8
0
10
126.169847
20
85.355262
11
125.673052
21
84.159852
0
LINE
8
0
10
125.673052
20
84.159852
11
125.499975
21
82.855265
0
LINE
8
0
10
125.499975
20
82.855265
11
125.673052
21
81.550679
0
LINE
8
0
10
125.673052
20
81.550679
11
126.169847
21
80.355268
0
LINE
8
0
10
126.169847
20
80.355268
11
126.956705
21
79.327326
0
LINE
8
0
10
126.956705
20
79.327326
11
127.999972
21
78.525144
0
LINE
8
0
10
127.999972
20
78.525144
11
129.216316
21
78.022739
0
LINE
8
0
10
129.216316
20
78.022739
11
130.499969
21
77.855271
0
LINE
8
0
10
130.499969
20
77.855271
11
131.783622
21
78.022739
0
LINE
8
0
10
131.783622
20
78.022739
11
132.999966
21
78.525144
0
LINE
8
0
10
132.999966
20
78.525144
11
134.043233
21
79.327326
0
LINE
8
0
10
134.043233
20
79.327326
11
134.830091
21
80.355268
0
LINE
8
0
10
134.830091
20
80.355268
11
135.326886
21
81.550679
0
LINE
8
0
10
135.326886
20
81.550679
11
135.499963
21
82.855265
0
LINE
8
0
10
135.499963
20
82.855265
11
135.499963
21
82.855265
0
LINE
8
0
10
129.499970
20
72.462583
11
129.398187
21
73.470078
0
LINE
8
0
10
129.398187
20
73.470078
11
129.106714
21
74.408437
0
LINE
8
0
10
129.106714
20
74.408437
11
128.645652
21
75.257566
0
LINE
8
0
10
128.645652
20
75.257566
11
128.035099
21
75.997369
0
LINE
8
0
10
128.035099
20
75.997369
11
127.295155
21
76.607751
0
LINE
8
0
10
127.295155
20
76.607751
11
126.445920
21
77.068619
0
LINE
8
0
10
126.445920
20
77.068619
11
125.507494
21
77.359875
0
LINE
8
0
10
125.507494
20
77.359875
11
124.499976
21
77.461426
0
LINE
8
0
10
124.499976
20
77.461426
11
123.492458
21
77.359875
0
LINE
8
0
10
123.492458
20
77.359875
11
122.554032
21
77.068619
0
LINE
8
0
10
122.554032
20
77.068619
11
121.704797
21
76.607751
0
LINE
8
0
10
121.704797
20
76.607751
11
120.964853
21
75.997369
0
LINE
8
0
10
120.964853
20
75.997369
11
120.354300
21
75.257566
0
LINE
8
0
10
120.354300
20
75.257566
11
119.893238
21
74.408437
0
LINE
8
0
10
119.893238
20
74.408437
11
119.601765
21
73.470078
0
LINE
8
0
10
119.601765
20
73.470078
11
119.499982
21
72.462583
0
LINE
8
0
10
119.499982
20
72.462583
11
119.601765
21
71.455088
0
LINE
8
0
10
119.601765
20
71.455088
11
119.893238
21
70.516729
0
LINE
8
0
10
119.893238
20
70.516729
11
120.354300
21
69.667600
0
LINE
8
0
10
120.354300
20
69.667600
11
120.964853
21
68.927797
0
LINE
8
0
10
120.964853
20
68.927797
11
121.704797
21
68.317414
0
LINE
8
0
10
121.704797
20
68.317414
11
122.554032
21
67.856547
0
LINE
8
0
10
122.554032
20
67.856547
11
123.492458
21
67.565290
0
LINE
8
0
10
123.492458
20
67.565290
11
124.499976
21
67.463739
0
LINE
8
0
10
124.499976
20
67.463739
11
125.507494
21
67.565290
0
LINE
8
0
10
125.507494
20
67.565290
11
126.445920
21
67.856547
0
LINE
8
0
10
126.445920
20
67.856547
11
127.295155
21
68.317414
0
LINE
8
0
10
127.295155
20
68.317414
11
128.035099
21
68.927797
0
LINE
8
0
10
128.035099
20
68.927797
11
128.645652
21
69.667600
0
LINE
8
0
10
128.645652
20
69.667600
11
129.106714
21
70.516729
0
LINE
8
0
10
129.106714
20
70.516729
11
129.398187
21
71.455088
0
LINE
8
0
10
129.398187
20
71.455088
11
129.499970
21
72.462583
0
LINE
8
0
10
129.499970
20
72.462583
11
129.499970
21
72.462583
0
LINE
8
0
10
153.499939
20
72.462583
11
153.397865
21
73.469819
0
LINE
8
0
10
153.397865
20
73.469819
11
153.106204
21
74.407901
0
LINE
8
0
10
153.106204
20
74.407901
11
152.645045
21
75.256752
0
LINE
8
0
10
152.645045
20
75.256752
11
152.034479
21
75.996291
0
LINE
8
0
10
152.034479
20
75.996291
11
151.294596
21
76.606440
0
LINE
8
0
10
151.294596
20
76.606440
11
150.445486
21
77.067120
0
LINE
8
0
10
150.445486
20
77.067120
11
149.507239
21
77.358253
0
LINE
8
0
10
149.507239
20
77.358253
11
148.499946
21
77.459759
0
LINE
8
0
10
148.499946
20
77.459759
11
147.492652
21
77.358253
0
LINE
8
0
10
147.492652
20
77.358253
11
146.554406
21
77.067120
0
LINE
8
0
10
146.554406
20
77.067120
11
145.705296
21
76.606440
0
LINE
8
0
10
145.705296
20
76.606440
11
144.965413
21
75.996291
0
LINE
8
0
10
144.965413
20
75.996291
11
144.354847
21
75.256752
0
LINE
8
0
10
144.354847
20
75.256752
11
143.893688
21
74.407901
0
LINE
8
0
10
143.893688
20
74.407901
11
143.602027
21
73.469819
0
LINE
8
0
10
143.602027
20
73.469819
11
143.499953
21
72.462583
0
LINE
8
0
10
143.499953
20
72.462583
11
143.602027
21
71.455347
0
LINE
8
0
10
143.602027
20
71.455347
11
143.893688
21
70.517264
0
LINE
8
0
10
143.893688
20
70.517264
11
144.354847
21
69.668414
0
LINE
8
0
10
144.354847
20
69.668414
11
144.965413
21
68.928875
0
LINE
8
0
10
144.965413
20
68.928875
11
145.705296
21
68.318726
0
LINE
8
0
10
145.705296
20
68.318726
11
146.554406
21
67.858045
0
LINE
8
0
10
146.554406
20
67.858045
11
147.492652
21
67.566913
0
LINE
8
0
10
147.492652
20
67.566913
11
148.499946
21
67.465406
0
LINE
8
0
10
148.499946
20
67.465406
11
149.507239
21
67.566913
0
LINE
8
0
10
149.507239
20
67.566913
11
150.445486
21
67.858045
0
LINE
8
0
10
150.445486
20
67.858045
11
151.294596
21
68.318726
0
LINE
8
0
10
151.294596
20
68.318726
11
152.034479
21
68.928875
0
LINE
8
0
10
152.034479
20
68.928875
11
152.645045
21
69.668414
0
LINE
8
0
10
152.645045
20
69.668414
11
153.106204
21
70.517264
0
LINE
8
0
10
153.106204
20
70.517264
11
153.397865
21
71.455347
0
LINE
8
0
10
153.397865
20
71.455347
11
153.499939
21
72.462583
0
LINE
8
0
10
153.499939
20
72.462583
11
153.499939
21
72.462583
0
LINE
8
0
10
129.499970
20
51.677609
11
129.398187
21
52.685104
0
LINE
8
0
10
129.398187
20
52.685104
11
129.106714
21
53.623463
0
LINE
8
0
10
129.106714
20
53.623463
11
128.645652
21
54.472592
0
LINE
8
0
10
128.645652
20
54.472592
11
128.035099
21
55.212395
0
LINE
8
0
10
128.035099
20
55.212395
11
127.295155
21
55.822778
0
LINE
8
0
10
127.295155
20
55.822778
11
126.445920
21
56.283645
0
LINE
8
0
10
126.445920
20
56.283645
11
125.507494
21
56.574902
0
LINE
8
0
10
125.507494
20
56.574902
11
124.499976
21
56.676453
0
LINE
8
0
10
124.499976
20
56.676453
11
123.492458
21
56.574902
0
LINE
8
0
10
123.492458
20
56.574902
11
122.554032
21
56.283645
0
LINE
8
0
10
122.554032
20
56.283645
11
121.704797
21
55.822778
0
LINE
8
0
10
121.704797
20
55.822778
11
120.964853
21
55.212395
0
LINE
8
0
10
120.964853
20
55.212395
11
120.354300
21
54.472592
0
LINE
8
0
10
120.354300
20
54.472592
11
119.893238
21
53.623463
0
LINE
8
0
10
119.893238
20
53.623463
11
119.601765
21
52.685104
0
LINE
8
0
10
119.601765
20
52.685104
11
119.499982
21
51.677609
0
LINE
8
0
10
119.499982
20
51.677609
11
119.601765
21
50.670114
0
LINE
8
0
10
119.601765
20
50.670114
11
119.893238
21
49.731755
0
LINE
8
0
10
119.893238
20
49.731755
11
120.354300
21
48.882626
0
LINE
8
0
10
120.354300
20
48.882626
11
120.964853
21
48.142823
0
LINE
8
0
10
120.964853
20
48.142823
11
121.704797
21
47.532440
0
LINE
8
0
10
121.704797
20
47.532440
11
122.554032
21
47.071573
0
LINE
8
0
10
122.554032
20
47.071573
11
123.492458
21
46.780317
0
LINE
8
0
10
123.492458
20
46.780317
11
124.499976
21
46.678766
0
LINE
8
0
10
124.499976
20
46.678766
11
125.507494
21
46.780317
0
LINE
8
0
10
125.507494
20
46.780317
11
126.445920
21
47.071573
0
LINE
8
0
10
126.445920
20
47.071573
11
127.295155
21
47.532440
0
LINE
8
0
10
127.295155
20
47.532440
11
128.035099
21
48.142823
0
LINE
8
0
10
128.035099
20
48.142823
11
128.645652
21
48.882626
0
LINE
8
0
10
128.645652
20
48.882626
11
129.106714
21
49.731755
0
LINE
8
0
10
129.106714
20
49.731755
11
129.398187
21
50.670114
0
LINE
8
0
10
129.398187
20
50.670114
11
129.499970
21
51.677609
0
LINE
8
0
10
129.499970
20
51.677609
11
129.499970
21
51.677609
0
LINE
8
0
10
141.499954
20
51.677609
11
141.398024
21
52.684973
0
LINE
8
0
10
141.398024
20
52.684973
11
141.106456
21
53.623193
0
LINE
8
0
10
141.106456
20
53.623193
11
140.645345
21
54.472181
0
LINE
8
0
10
140.645345
20
54.472181
11
140.034786
21
55.211851
0
LINE
8
0
10
140.034786
20
55.211851
11
139.294873
21
55.822115
0
LINE
8
0
10
139.294873
20
55.822115
11
138.445701
21
56.282888
0
LINE
8
0
10
138.445701
20
56.282888
11
137.507365
21
56.574082
0
LINE
8
0
10
137.507365
20
56.574082
11
136.499961
21
56.675611
0
LINE
8
0
10
136.499961
20
56.675611
11
135.492556
21
56.574082
0
LINE
8
0
10
135.492556
20
56.574082
11
134.554220
21
56.282888
0
LINE
8
0
10
134.554220
20
56.282888
11
133.705049
21
55.822115
0
LINE
8
0
10
133.705049
20
55.822115
11
132.965136
21
55.211851
0
LINE
8
0
10
132.965136
20
55.211851
11
132.354576
21
54.472181
0
LINE
8
0
10
132.354576
20
54.472181
11
131.893465
21
53.623193
0
LINE
8
0
10
131.893465
20
53.623193
11
131.601897
21
52.684973
0
LINE
8
0
10
131.601897
20
52.684973
11
131.499967
21
51.677609
0
LINE
8
0
10
131.499967
20
51.677609
11
131.601897
21
50.670245
0
LINE
8
0
10
131.601897
20
50.670245
11
131.893465
21
49.732025
0
LINE
8
0
10
131.893465
20
49.732025
11
132.354576
21
48.883037
0
LINE
8
0
10
132.354576
20
48.883037
11
132.965136
21
48.143367
0
LINE
8
0
10
132.965136
20
48.143367
11
133.705049
21
47.533103
0
LINE
8
0
10
133.705049
20
47.533103
11
134.554220
21
47.072330
0
LINE
8
0
10
134.554220
20
47.072330
11
135.492556
21
46.781136
0
LINE
8
0
10
135.492556
20
46.781136
11
136.499961
21
46.679608
0
LINE
8
0
10
136.499961
20
46.679608
11
137.507365
21
46.781136
0
LINE
8
0
10
137.507365
20
46.781136
11
138.445701
21
47.072330
0
LINE
8
0
10
138.445701
20
47.072330
11
139.294873
21
47.533103
0
LINE
8
0
10
139.294873
20
47.533103
11
140.034786
21
48.143367
0
LINE
8
0
10
140.034786
20
48.143367
11
140.645345
21
48.883037
0
LINE
8
0
10
140.645345
20
48.883037
11
141.106456
21
49.732025
0
LINE
8
0
10
141.106456
20
49.732025
11
141.398024
21
50.670245
0
LINE
8
0
10
141.398024
20
50.670245
11
141.499954
21
51.677609
0
LINE
8
0
10
141.499954
20
51.677609
11
141.499954
21
51.677609
0
LINE
8
0
10
159.499932
20
41.285315
11
159.326855
21
42.589902
0
LINE
8
0
10
159.326855
20
42.589902
11
158.830060
21
43.785313
0
LINE
8
0
10
158.830060
20
43.785313
11
158.043202
21
44.813255
0
LINE
8
0
10
158.043202
20
44.813255
11
156.999935
21
45.615437
0
LINE
8
0
10
156.999935
20
45.615437
11
155.783591
21
46.117842
0
LINE
8
0
10
155.783591
20
46.117842
11
154.499938
21
46.285310
0
LINE
8
0
10
154.499938
20
46.285310
11
153.216285
21
46.117842
0
LINE
8
0
10
153.216285
20
46.117842
11
151.999941
21
45.615437
0
LINE
8
0
10
151.999941
20
45.615437
11
150.956674
21
44.813255
0
LINE
8
0
10
150.956674
20
44.813255
11
150.169816
21
43.785313
0
LINE
8
0
10
150.169816
20
43.785313
11
149.673021
21
42.589902
0
LINE
8
0
10
149.673021
20
42.589902
11
149.499944
21
41.285315
0
LINE
8
0
10
149.499944
20
41.285315
11
149.673021
21
39.980729
0
LINE
8
0
10
149.673021
20
39.980729
11
150.169816
21
38.785318
0
LINE
8
0
10
150.169816
20
38.785318
11
150.956674
21
37.757376
0
LINE
8
0
10
150.956674
20
37.757376
11
151.999941
21
36.955193
0
LINE
8
0
10
151.999941
20
36.955193
11
153.216285
21
36.452789
0
LINE
8
0
10
153.216285
20
36.452789
11
154.499938
21
36.285321
0
LINE
8
0
10
154.499938
20
36.285321
11
155.783591
21
36.452789
0
LINE
8
0
10
155.783591
20
36.452789
11
156.999935
21
36.955193
0
LINE
8
0
10
156.999935
20
36.955193
11
158.043202
21
37.757376
0
LINE
8
0
10
158.043202
20
37.757376
11
158.830060
21
38.785318
0
LINE
8
0
10
158.830060
20
38.785318
11
159.326855
21
39.980729
0
LINE
8
0
10
159.326855
20
39.980729
11
159.499932
21
41.285315
0
LINE
8
0
10
159.499932
20
41.285315
11
159.499932
21
41.285315
0
LINE
8
0
10
159.499932
20
20.500342
11
159.326855
21
21.804928
0
LINE
8
0
10
159.326855
20
21.804928
11
158.830060
21
23.000339
0
LINE
8
0
10
158.830060
20
23.000339
11
158.043202
21
24.028281
0
LINE
8
0
10
158.043202
20
24.028281
11
156.999935
21
24.830464
0
LINE
8
0
10
156.999935
20
24.830464
11
155.783591
21
25.332868
0
LINE
8
0
10
155.783591
20
25.332868
11
154.499938
21
25.500336
0
LINE
8
0
10
154.499938
20
25.500336
11
153.216285
21
25.332868
0
LINE
8
0
10
153.216285
20
25.332868
11
151.999941
21
24.830464
0
LINE
8
0
10
151.999941
20
24.830464
11
150.956674
21
24.028281
0
LINE
8
0
10
150.956674
20
24.028281
11
150.169816
21
23.000339
0
LINE
8
0
10
150.169816
20
23.000339
11
149.673021
21
21.804928
0
LINE
8
0
10
149.673021
20
21.804928
11
149.499944
21
20.500342
0
LINE
8
0
10
149.499944
20
20.500342
11
149.673021
21
19.195755
0
LINE
8
0
10
149.673021
20
19.195755
11
150.169816
21
18.000344
0
LINE
8
0
10
150.169816
20
18.000344
11
150.956674
21
16.972402
0
LINE
8
0
10
150.956674
20
16.972402
11
151.999941
21
16.170220
0
LINE
8
0
10
151.999941
20
16.170220
11
153.216285
21
15.667815
0
LINE
8
0
10
153.216285
20
15.667815
11
154.499938
21
15.500347
0
LINE
8
0
10
154.499938
20
15.500347
11
155.783591
21
15.667815
0
LINE
8
0
10
155.783591
20
15.667815
11
156.999935
21
16.170220
0
LINE
8
0
10
156.999935
20
16.170220
11
158.043202
21
16.972402
0
LINE
8
0
10
158.043202
20
16.972402
11
158.830060
21
18.000344
0
LINE
8
0
10
158.830060
20
18.000344
11
159.326855
21
19.195755
0
LINE
8
0
10
159.326855
20
19.195755
11
159.499932
21
20.500342
0
LINE
8
0
10
159.499932
20
20.500342
11
159.499932
21
20.500342
0
LINE
8
0
10
135.499963
20
20.500342
11
135.326886
21
21.804928
0
LINE
8
0
10
135.326886
20
21.804928
11
134.830091
21
23.000339
0
LINE
8
0
10
134.830091
20
23.000339
11
134.043233
21
24.028281
0
LINE
8
0
10
134.043233
20
24.028281
11
132.999966
21
24.830463
0
LINE
8
0
10
132.999966
20
24.830463
11
131.783622
21
25.332868
0
LINE
8
0
10
131.783622
20
25.332868
11
130.499969
21
25.500336
0
LINE
8
0
10
130.499969
20
25.500336
11
129.216316
21
25.332868
0
LINE
8
0
10
129.216316
20
25.332868
11
127.999972
21
24.830463
0
LINE
8
0
10
127.999972
20
24.830463
11
126.956705
21
24.028281
0
LINE
8
0
10
126.956705
20
24.028281
11
126.169847
21
23.000339
0
LINE
8
0
10
126.169847
20
23.000339
11
125.673052
21
21.804928
0
LINE
8
0
10
125.673052
20
21.804928
11
125.499975
21
20.500342
0
LINE
8
0
10
125.499975
20
20.500342
11
125.673052
21
19.195755
0
LINE
8
0
10
125.673052
20
19.195755
11
126.169847
21
18.000345
0
LINE
8
0
10
126.169847
20
18.000345
11
126.956705
21
16.972402
0
LINE
8
0
10
126.956705
20
16.972402
11
127.999972
21
16.170220
0
LINE
8
0
10
127.999972
20
16.170220
11
129.216316
21
15.667816
0
LINE
8
0
10
129.216316
20
15.667816
11
130.499969
21
15.500348
0
LINE
8
0
10
130.499969
20
15.500348
11
131.783622
21
15.667816
0
LINE
8
0
10
131.783622
20
15.667816
11
132.999966
21
16.170220
0
LINE
8
0
10
132.999966
20
16.170220
11
134.043233
21
16.972402
0
LINE
8
0
10
134.043233
20
16.972402
11
134.830091
21
18.000345
0
LINE
8
0
10
134.830091
20
18.000345
11
135.326886
21
19.195755
0
LINE
8
0
10
135.326886
20
19.195755
11
135.499963
21
20.500342
0
LINE
8
0
10
135.499963
20
20.500342
11
135.499963
21
20.500342
0
LINE
8
0
10
177.499908
20
30.892635
11
177.397834
21
31.899871
0
LINE
8
0
10
177.397834
20
31.899871
11
177.106173
21
32.837954
0
LINE
8
0
10
177.106173
20
32.837954
11
176.645014
21
33.686804
0
LINE
8
0
10
176.645014
20
33.686804
11
176.034448
21
34.426343
0
LINE
8
0
10
176.034448
20
34.426343
11
175.294565
21
35.036493
0
LINE
8
0
10
175.294565
20
35.036493
11
174.445455
21
35.497173
0
LINE
8
0
10
174.445455
20
35.497173
11
173.507209
21
35.788306
0
LINE
8
0
10
173.507209
20
35.788306
11
172.499915
21
35.889812
0
LINE
8
0
10
172.499915
20
35.889812
11
171.492622
21
35.788306
0
LINE
8
0
10
171.492622
20
35.788306
11
170.554375
21
35.497173
0
LINE
8
0
10
170.554375
20
35.497173
11
169.705265
21
35.036493
0
LINE
8
0
10
169.705265
20
35.036493
11
168.965382
21
34.426343
0
LINE
8
0
10
168.965382
20
34.426343
11
168.354816
21
33.686804
0
LINE
8
0
10
168.354816
20
33.686804
11
167.893657
21
32.837954
0
LINE
8
0
10
167.893657
20
32.837954
11
167.601996
21
31.899871
0
LINE
8
0
10
167.601996
20
31.899871
11
167.499922
21
30.892635
0
LINE
8
0
10
167.499922
20
30.892635
11
167.601996
21
29.885399
0
LINE
8
0
10
167.601996
20
29.885399
11
167.893657
21
28.947317
0
LINE
8
0
10
167.893657
20
28.947317
11
168.354816
21
28.098466
0
LINE
8
0
10
168.354816
20
28.098466
11
168.965382
21
27.358927
0
LINE
8
0
10
168.965382
20
27.358927
11
169.705265
21
26.748778
0
LINE
8
0
10
169.705265
20
26.748778
11
170.554375
21
26.288098
0
LINE
8
0
10
170.554375
20
26.288098
11
171.492622
21
25.996965
0
LINE
8
0
10
171.492622
20
25.996965
11
172.499915
21
25.895459
0
LINE
8
0
10
172.499915
20
25.895459
11
173.507209
21
25.996965
0
LINE
8
0
10
173.507209
20
25.996965
11
174.445455
21
26.288098
0
LINE
8
0
10
174.445455
20
26.288098
11
175.294565
21
26.748778
0
LINE
8
0
10
175.294565
20
26.748778
11
176.034448
21
27.358927
0
LINE
8
0
10
176.034448
20
27.358927
11
176.645014
21
28.098466
0
LINE
8
0
10
176.645014
20
28.098466
11
177.106173
21
28.947317
0
LINE
8
0
10
177.106173
20
28.947317
11
177.397834
21
29.885399
0
LINE
8
0
10
177.397834
20
29.885399
11
177.499908
21
30.892635
0
LINE
8
0
10
177.499908
20
30.892635
11
177.499908
21
30.892635
0
LINE
8
0
10
183.499902
20
20.500342
11
183.326825
21
21.804928
0
LINE
8
0
10
183.326825
20
21.804928
11
182.830030
21
23.000339
0
LINE
8
0
10
182.830030
20
23.000339
11
182.043171
21
24.028281
0
LINE
8
0
10
182.043171
20
24.028281
11
180.999905
21
24.830464
0
LINE
8
0
10
180.999905
20
24.830464
11
179.783561
21
25.332868
0
LINE
8
0
10
179.783561
20
25.332868
11
178.499908
21
25.500336
0
LINE
8
0
10
178.499908
20
25.500336
11
177.216254
21
25.332868
0
LINE
8
0
10
177.216254
20
25.332868
11
175.999910
21
24.830464
0
LINE
8
0
10
175.999910
20
24.830464
11
174.956644
21
24.028281
0
LINE
8
0
10
174.956644
20
24.028281
11
174.169785
21
23.000339
0
LINE
8
0
10
174.169785
20
23.000339
11
173.672990
21
21.804928
0
LINE
8
0
10
173.672990
20
21.804928
11
173.499913
21
20.500342
0
LINE
8
0
10
173.499913
20
20.500342
11
173.672990
21
19.195755
0
LINE
8
0
10
173.672990
20
19.195755
11
174.169785
21
18.000344
0
LINE
8
0
10
174.169785
20
18.000344
11
174.956644
21
16.972402
0
LINE
8
0
10
174.956644
20
16.972402
11
175.999910
21
16.170220
0
LINE
8
0
10
175.999910
20
16.170220
11
177.216254
21
15.667815
0
LINE
8
0
10
177.216254
20
15.667815
11
178.499908
21
15.500347
0
LINE
8
0
10
178.499908
20
15.500347
11
179.783561
21
15.667815
0
LINE
8
0
10
179.783561
20
15.667815
11
180.999905
21
16.170220
0
LINE
8
0
10
180.999905
20
16.170220
11
182.043171
21
16.972402
0
LINE
8
0
10
182.043171
20
16.972402
11
182.830030
21
18.000344
0
LINE
8
0
10
182.830030
20
18.000344
11
183.326825
21
19.195755
0
LINE
8
0
10
183.326825
20
19.195755
11
183.499902
21
20.500342
0
LINE
8
0
10
183.499902
20
20.500342
11
183.499902
21
20.500342
0
LINE
8
0
10
189.499896
20
30.892635
11
189.326818
21
32.197222
0
LINE
8
0
10
189.326818
20
32.197222
11
188.830023
21
33.392632
0
LINE
8
0
10
188.830023
20
33.392632
11
188.043165
21
34.420575
0
LINE
8
0
10
188.043165
20
34.420575
11
186.999898
21
35.222757
0
LINE
8
0
10
186.999898
20
35.222757
11
185.783554
21
35.725162
0
LINE
8
0
10
185.783554
20
35.725162
11
184.499901
21
35.892630
0
LINE
8
0
10
184.499901
20
35.892630
11
183.216248
21
35.725162
0
LINE
8
0
10
183.216248
20
35.725162
11
181.999904
21
35.222757
0
LINE
8
0
10
181.999904
20
35.222757
11
180.956637
21
34.420575
0
LINE
8
0
10
180.956637
20
34.420575
11
180.169779
21
33.392632
0
LINE
8
0
10
180.169779
20
33.392632
11
179.672984
21
32.197222
0
LINE
8
0
10
179.672984
20
32.197222
11
179.499907
21
30.892635
0
LINE
8
0
10
179.499907
20
30.892635
11
179.672984
21
29.588049
0
LINE
8
0
10
179.672984
20
29.588049
11
180.169779
21
28.392638
0
LINE
8
0
10
180.169779
20
28.392638
11
180.956637
21
27.364696
0
LINE
8
0
10
180.956637
20
27.364696
11
181.999904
21
26.562513
0
LINE
8
0
10
181.999904
20
26.562513
11
183.216248
21
26.060109
0
LINE
8
0
10
183.216248
20
26.060109
11
184.499901
21
25.892641
0
LINE
8
0
10
184.499901
20
25.892641
11
185.783554
21
26.060109
0
LINE
8
0
10
185.783554
20
26.060109
11
186.999898
21
26.562513
0
LINE
8
0
10
186.999898
20
26.562513
11
188.043165
21
27.364696
0
LINE
8
0
10
188.043165
20
27.364696
11
188.830023
21
28.392638
0
LINE
8
0
10
188.830023
20
28.392638
11
189.326818
21
29.588049
0
LINE
8
0
10
189.326818
20
29.588049
11
189.499896
21
30.892635
0
LINE
8
0
10
189.499896
20
30.892635
11
189.499896
21
30.892635
0
LINE
8
0
10
183.499902
20
41.285315
11
183.326825
21
42.589902
0
LINE
8
0
10
183.326825
20
42.589902
11
182.830030
21
43.785313
0
LINE
8
0
10
182.830030
20
43.785313
11
182.043171
21
44.813255
0
LINE
8
0
10
182.043171
20
44.813255
11
180.999905
21
45.615437
0
LINE
8
0
10
180.999905
20
45.615437
11
179.783561
21
46.117842
0
LINE
8
0
10
179.783561
20
46.117842
11
178.499908
21
46.285310
0
LINE
8
0
10
178.499908
20
46.285310
11
177.216254
21
46.117842
0
LINE
8
0
10
177.216254
20
46.117842
11
175.999910
21
45.615437
0
LINE
8
0
10
175.999910
20
45.615437
11
174.956644
21
44.813255
0
LINE
8
0
10
174.956644
20
44.813255
11
174.169785
21
43.785313
0
LINE
8
0
10
174.169785
20
43.785313
11
173.672990
21
42.589902
0
LINE
8
0
10
173.672990
20
42.589902
11
173.499913
21
41.285315
0
LINE
8
0
10
173.499913
20
41.285315
11
173.672990
21
39.980729
0
LINE
8
0
10
173.672990
20
39.980729
11
174.169785
21
38.785318
0
LINE
8
0
10
174.169785
20
38.785318
11
174.956644
21
37.757376
0
LINE
8
0
10
174.956644
20
37.757376
11
175.999910
21
36.955193
0
LINE
8
0
10
175.999910
20
36.955193
11
177.216254
21
36.452789
0
LINE
8
0
10
177.216254
20
36.452789
11
178.499908
21
36.285321
0
LINE
8
0
10
178.499908
20
36.285321
11
179.783561
21
36.452789
0
LINE
8
0
10
179.783561
20
36.452789
11
180.999905
21
36.955193
0
LINE
8
0
10
180.999905
20
36.955193
11
182.043171
21
37.757376
0
LINE
8
0
10
182.043171
20
37.757376
11
182.830030
21
38.785318
0
LINE
8
0
10
182.830030
20
38.785318
11
183.326825
21
39.980729
0
LINE
8
0
10
183.326825
20
39.980729
11
183.499902
21
41.285315
0
LINE
8
0
10
183.499902
20
41.285315
11
183.499902
21
41.285315
0
LINE
8
0
10
165.499923
20
51.677609
11
165.397850
21
52.684845
0
LINE
8
0
10
165.397850
20
52.684845
11
165.106188
21
53.622928
0
LINE
8
0
10
165.106188
20
53.622928
11
164.645030
21
54.471778
0
LINE
8
0
10
164.645030
20
54.471778
11
164.034464
21
55.211317
0
LINE
8
0
10
164.034464
20
55.211317
11
163.294581
21
55.821466
0
LINE
8
0
10
163.294581
20
55.821466
11
162.445471
21
56.282147
0
LINE
8
0
10
162.445471
20
56.282147
11
161.507224
21
56.573279
0
LINE
8
0
10
161.507224
20
56.573279
11
160.499931
21
56.674785
0
LINE
8
0
10
160.499931
20
56.674785
11
159.492637
21
56.573279
0
LINE
8
0
10
159.492637
20
56.573279
11
158.554390
21
56.282147
0
LINE
8
0
10
158.554390
20
56.282147
11
157.705280
21
55.821466
0
LINE
8
0
10
157.705280
20
55.821466
11
156.965397
21
55.211317
0
LINE
8
0
10
156.965397
20
55.211317
11
156.354831
21
54.471778
0
LINE
8
0
10
156.354831
20
54.471778
11
155.893673
21
53.622928
0
LINE
8
0
10
155.893673
20
53.622928
11
155.602011
21
52.684845
0
LINE
8
0
10
155.602011
20
52.684845
11
155.499938
21
51.677609
0
LINE
8
0
10
155.499938
20
51.677609
11
155.602011
21
50.670373
0
LINE
8
0
10
155.602011
20
50.670373
11
155.893673
21
49.732290
0
LINE
8
0
10
155.893673
20
49.732290
11
156.354831
21
48.883440
0
LINE
8
0
10
156.354831
20
48.883440
11
156.965397
21
48.143901
0
LINE
8
0
10
156.965397
20
48.143901
11
157.705280
21
47.533752
0
LINE
8
0
10
157.705280
20
47.533752
11
158.554390
21
47.073072
0
LINE
8
0
10
158.554390
20
47.073072
11
159.492637
21
46.781939
0
LINE
8
0
10
159.492637
20
46.781939
11
160.499931
21
46.680433
0
LINE
8
0
10
160.499931
20
46.680433
11
161.507224
21
46.781939
0
LINE
8
0
10
161.507224
20
46.781939
11
162.445471
21
47.073072
0
LINE
8
0
10
162.445471
20
47.073072
11
163.294581
21
47.533752
0
LINE
8
0
10
163.294581
20
47.533752
11
164.034464
21
48.143901
0
LINE
8
0
10
164.034464
20
48.143901
11
164.645030
21
48.883440
0
LINE
8
0
10
164.645030
20
48.883440
11
165.106188
21
49.732290
0
LINE
8
0
10
165.106188
20
49.732290
11
165.397850
21
50.670373
0
LINE
8
0
10
165.397850
20
50.670373
11
165.499923
21
51.677609
0
LINE
8
0
10
165.499923
20
51.677609
11
165.499923
21
51.677609
0
LINE
8
0
10
147.499948
20
62.070292
11
147.398366
21
63.077965
0
LINE
8
0
10
147.398366
20
63.077965
11
147.107023
21
64.016515
0
LINE
8
0
10
147.107023
20
64.016515
11
146.646027
21
64.865836
0
LINE
8
0
10
146.646027
20
64.865836
11
146.035483
21
65.605821
0
LINE
8
0
10
146.035483
20
65.605821
11
145.295498
21
66.216365
0
LINE
8
0
10
145.295498
20
66.216365
11
144.446177
21
66.677361
0
LINE
8
0
10
144.446177
20
66.677361
11
143.507627
21
66.968704
0
LINE
8
0
10
143.507627
20
66.968704
11
142.499953
21
67.070286
0
LINE
8
0
10
142.499953
20
67.070286
11
141.492280
21
66.968704
0
LINE
8
0
10
141.492280
20
66.968704
11
140.553730
21
66.677361
0
LINE
8
0
10
140.553730
20
66.677361
11
139.704409
21
66.216365
0
LINE
8
0
10
139.704409
20
66.216365
11
138.964424
21
65.605821
0
LINE
8
0
10
138.964424
20
65.605821
11
138.353880
21
64.865836
0
LINE
8
0
10
138.353880
20
64.865836
11
137.892884
21
64.016515
0
LINE
8
0
10
137.892884
20
64.016515
11
137.601541
21
63.077965
0
LINE
8
0
10
137.601541
20
63.077965
11
137.499959
21
62.070292
0
LINE
8
0
10
137.499959
20
62.070292
11
137.601541
21
61.062619
0
LINE
8
0
10
137.601541
20
61.062619
11
137.892884
21
60.124068
0
LINE
8
0
10
137.892884
20
60.124068
11
138.353880
21
59.274748
0
LINE
8
0
10
138.353880
20
59.274748
11
138.964424
21
58.534762
0
LINE
8
0
10
138.964424
20
58.534762
11
139.704409
21
57.924218
0
LINE
8
0
10
139.704409
20
57.924218
11
140.553730
21
57.463222
0
LINE
8
0
10
140.553730
20
57.463222
11
141.492280
21
57.171880
0
LINE
8
0
10
141.492280
20
57.171880
11
142.499953
21
57.070298
0
LINE
8
0
10
142.499953
20
57.070298
11
143.507627
21
57.171880
0
LINE
8
0
10
143.507627
20
57.171880
11
144.446177
21
57.463222
0
LINE
8
0
10
144.446177
20
57.463222
11
145.295498
21
57.924218
0
LINE
8
0
10
145.295498
20
57.924218
11
146.035483
21
58.534762
0
LINE
8
0
10
146.035483
20
58.534762
11
146.646027
21
59.274748
0
LINE
8
0
10
146.646027
20
59.274748
11
147.107023
21
60.124068
0
LINE
8
0
10
147.107023
20
60.124068
11
147.398366
21
61.062619
0
LINE
8
0
10
147.398366
20
61.062619
11
147.499948
21
62.070292
0
LINE
8
0
10
147.499948
20
62.070292
11
147.499948
21
62.070292
0
LINE
8
0
10
165.499923
20
72.462583
11
165.397850
21
73.469819
0
LINE
8
0
10
165.397850
20
73.469819
11
165.106188
21
74.407901
0
LINE
8
0
10
165.106188
20
74.407901
11
164.645030
21
75.256752
0
LINE
8
0
10
164.645030
20
75.256752
11
164.034464
21
75.996291
0
LINE
8
0
10
164.034464
20
75.996291
11
163.294581
21
76.606440
0
LINE
8
0
10
163.294581
20
76.606440
11
162.445471
21
77.067120
0
LINE
8
0
10
162.445471
20
77.067120
11
161.507224
21
77.358253
0
LINE
8
0
10
161.507224
20
77.358253
11
160.499931
21
77.459759
0
LINE
8
0
10
160.499931
20
77.459759
11
159.492637
21
77.358253
0
LINE
8
0
10
159.492637
20
77.358253
11
158.554390
21
77.067120
0
LINE
8
0
10
158.554390
20
77.067120
11
157.705280
21
76.606440
0
LINE
8
0
10
157.705280
20
76.606440
11
156.965397
21
75.996291
0
LINE
8
0
10
156.965397
20
75.996291
11
156.354831
21
75.256752
0
LINE
8
0
10
156.354831
20
75.256752
11
155.893673
21
74.407901
0
LINE
8
0
10
155.893673
20
74.407901
11
155.602011
21
73.469819
0
LINE
8
0
10
155.602011
20
73.469819
11
155.499938
21
72.462583
0
LINE
8
0
10
155.499938
20
72.462583
11
155.602011
21
71.455347
0
LINE
8
0
10
155.602011
20
71.455347
11
155.893673
21
70.517264
0
LINE
8
0
10
155.893673
20
70.517264
11
156.354831
21
69.668414
0
LINE
8
0
10
156.354831
20
69.668414
11
156.965397
21
68.928875
0
LINE
8
0
10
156.965397
20
68.928875
11
157.705280
21
68.318726
0
LINE
8
0
10
157.705280
20
68.318726
11
158.554390
21
67.858045
0
LINE
8
0
10
158.554390
20
67.858045
11
159.492637
21
67.566913
0
LINE
8
0
10
159.492637
20
67.566913
11
160.499931
21
67.465406
0
LINE
8
0
10
160.499931
20
67.465406
11
161.507224
21
67.566913
0
LINE
8
0
10
161.507224
20
67.566913
11
162.445471
21
67.858045
0
LINE
8
0
10
162.445471
20
67.858045
11
163.294581
21
68.318726
0
LINE
8
0
10
163.294581
20
68.318726
11
164.034464
21
68.928875
0
LINE
8
0
10
164.034464
20
68.928875
11
164.645030
21
69.668414
0
LINE
8
0
10
164.645030
20
69.668414
11
165.106188
21
70.517264
0
LINE
8
0
10
165.106188
20
70.517264
11
165.397850
21
71.455347
0
LINE
8
0
10
165.397850
20
71.455347
11
165.499923
21
72.462583
0
LINE
8
0
10
165.499923
20
72.462583
11
165.499923
21
72.462583
0
LINE
8
0
10
183.499902
20
62.070292
11
183.326825
21
63.374879
0
LINE
8
0
10
183.326825
20
63.374879
11
182.830030
21
64.570289
0
LINE
8
0
10
182.830030
20
64.570289
11
182.043171
21
65.598231
0
LINE
8
0
10
182.043171
20
65.598231
11
180.999905
21
66.400414
0
LINE
8
0
10
180.999905
20
66.400414
11
179.783561
21
66.902818
0
LINE
8
0
10
179.783561
20
66.902818
11
178.499908
21
67.070286
0
LINE
8
0
10
178.499908
20
67.070286
11
177.216254
21
66.902818
0
LINE
8
0
10
177.216254
20
66.902818
11
175.999910
21
66.400414
0
LINE
8
0
10
175.999910
20
66.400414
11
174.956644
21
65.598231
0
LINE
8
0
10
174.956644
20
65.598231
11
174.169785
21
64.570289
0
LINE
8
0
10
174.169785
20
64.570289
11
173.672990
21
63.374879
0
LINE
8
0
10
173.672990
20
63.374879
11
173.499913
21
62.070292
0
LINE
8
0
10
173.499913
20
62.070292
11
173.672990
21
60.765705
0
LINE
8
0
10
173.672990
20
60.765705
11
174.169785
21
59.570295
0
LINE
8
0
10
174.169785
20
59.570295
11
174.956644
21
58.542352
0
LINE
8
0
10
174.956644
20
58.542352
11
175.999910
21
57.740170
0
LINE
8
0
10
175.999910
20
57.740170
11
177.216254
21
57.237766
0
LINE
8
0
10
177.216254
20
57.237766
11
178.499908
21
57.070297
0
LINE
8
0
10
178.499908
20
57.070297
11
179.783561
21
57.237766
0
LINE
8
0
10
179.783561
20
57.237766
11
180.999905
21
57.740170
0
LINE
8
0
10
180.999905
20
57.740170
11
182.043171
21
58.542352
0
LINE
8
0
10
182.043171
20
58.542352
11
182.830030
21
59.570295
0
LINE
8
0
10
182.830030
20
59.570295
11
183.326825
21
60.765705
0
LINE
8
0
10
183.326825
20
60.765705
11
183.499902
21
62.070292
0
LINE
8
0
10
183.499902
20
62.070292
11
183.499902
21
62.070292
0
LINE
8
0
10
189.499896
20
51.677609
11
189.326818
21
52.982196
0
LINE
8
0
10
189.326818
20
52.982196
11
188.830023
21
54.177606
0
LINE
8
0
10
188.830023
20
54.177606
11
188.043165
21
55.205549
0
LINE
8
0
10
188.043165
20
55.205549
11
186.999898
21
56.007731
0
LINE
8
0
10
186.999898
20
56.007731
11
185.783554
21
56.510135
0
LINE
8
0
10
185.783554
20
56.510135
11
184.499901
21
56.677603
0
LINE
8
0
10
184.499901
20
56.677603
11
183.216248
21
56.510135
0
LINE
8
0
10
183.216248
20
56.510135
11
181.999904
21
56.007731
0
LINE
8
0
10
181.999904
20
56.007731
11
180.956637
21
55.205549
0
LINE
8
0
10
180.956637
20
55.205549
11
180.169779
21
54.177606
0
LINE
8
0
10
180.169779
20
54.177606
11
179.672984
21
52.982196
0
LINE
8
0
10
179.672984
20
52.982196
11
179.499907
21
51.677609
0
LINE
8
0
10
179.499907
20
51.677609
11
179.672984
21
50.373022
0
LINE
8
0
10
179.672984
20
50.373022
11
180.169779
21
49.177612
0
LINE
8
0
10
180.169779
20
49.177612
11
180.956637
21
48.149670
0
LINE
8
0
10
180.956637
20
48.149670
11
181.999904
21
47.347487
0
LINE
8
0
10
181.999904
20
47.347487
11
183.216248
21
46.845083
0
LINE
8
0
10
183.216248
20
46.845083
11
184.499901
21
46.677615
0
LINE
8
0
10
184.499901
20
46.677615
11
185.783554
21
46.845083
0
LINE
8
0
10
185.783554
20
46.845083
11
186.999898
21
47.347487
0
LINE
8
0
10
186.999898
20
47.347487
11
188.043165
21
48.149670
0
LINE
8
0
10
188.043165
20
48.149670
11
188.830023
21
49.177612
0
LINE
8
0
10
188.830023
20
49.177612
11
189.326818
21
50.373022
0
LINE
8
0
10
189.326818
20
50.373022
11
189.499896
21
51.677609
0
LINE
8
0
10
189.499896
20
51.677609
11
189.499896
21
51.677609
0
LINE
8
0
10
189.499896
20
72.462583
11
189.326818
21
73.767170
0
LINE
8
0
10
189.326818
20
73.767170
11
188.830023
21
74.962580
0
LINE
8
0
10
188.830023
20
74.962580
11
188.043165
21
75.990522
0
LINE
8
0
10
188.043165
20
75.990522
11
186.999898
21
76.792705
0
LINE
8
0
10
186.999898
20
76.792705
11
185.783554
21
77.295109
0
LINE
8
0
10
185.783554
20
77.295109
11
184.499901
21
77.462577
0
LINE
8
0
10
184.499901
20
77.462577
11
183.216248
21
77.295109
0
LINE
8
0
10
183.216248
20
77.295109
11
181.999904
21
76.792705
0
LINE
8
0
10
181.999904
20
76.792705
11
180.956637
21
75.990522
0
LINE
8
0
10
180.956637
20
75.990522
11
180.169779
21
74.962580
0
LINE
8
0
10
180.169779
20
74.962580
11
179.672984
21
73.767170
0
LINE
8
0
10
179.672984
20
73.767170
11
179.499907
21
72.462583
0
LINE
8
0
10
179.499907
20
72.462583
11
179.672984
21
71.157996
0
LINE
8
0
10
179.672984
20
71.157996
11
180.169779
21
69.962586
0
LINE
8
0
10
180.169779
20
69.962586
11
180.956637
21
68.934643
0
LINE
8
0
10
180.956637
20
68.934643
11
181.999904
21
68.132461
0
LINE
8
0
10
181.999904
20
68.132461
11
183.216248
21
67.630057
0
LINE
8
0
10
183.216248
20
67.630057
11
184.499901
21
67.462589
0
LINE
8
0
10
184.499901
20
67.462589
11
185.783554
21
67.630057
0
LINE
8
0
10
185.783554
20
67.630057
11
186.999898
21
68.132461
0
LINE
8
0
10
186.999898
20
68.132461
11
188.043165
21
68.934643
0
LINE
8
0
10
188.043165
20
68.934643
11
188.830023
21
69.962586
0
LINE
8
0
10
188.830023
20
69.962586
11
189.326818
21
71.157996
0
LINE
8
0
10
189.326818
20
71.157996
11
189.499896
21
72.462583
0
LINE
8
0
10
189.499896
20
72.462583
11
189.499896
21
72.462583
0
LINE
8
0
10
183.499902
20
82.855265
11
183.326825
21
84.159852
0
LINE
8
0
10
183.326825
20
84.159852
11
182.830030
21
85.355263
0
LINE
8
0
10
182.830030
20
85.355263
11
182.043171
21
86.383205
0
LINE
8
0
10
182.043171
20
86.383205
11
180.999905
21
87.185388
0
LINE
8
0
10
180.999905
20
87.185388
11
179.783561
21
87.687792
0
LINE
8
0
10
179.783561
20
87.687792
11
178.499908
21
87.855260
0
LINE
8
0
10
178.499908
20
87.855260
11
177.216254
21
87.687792
0
LINE
8
0
10
177.216254
20
87.687792
11
175.999910
21
87.185388
0
LINE
8
0
10
175.999910
20
87.185388
11
174.956644
21
86.383205
0
LINE
8
0
10
174.956644
20
86.383205
11
174.169785
21
85.355263
0
LINE
8
0
10
174.169785
20
85.355263
11
173.672990
21
84.159852
0
LINE
8
0
10
173.672990
20
84.159852
11
173.499913
21
82.855265
0
LINE
8
0
10
173.499913
20
82.855265
11
173.672990
21
81.550679
0
LINE
8
0
10
173.672990
20
81.550679
11
174.169785
21
80.355268
0
LINE
8
0
10
174.169785
20
80.355268
11
174.956644
21
79.327326
0
LINE
8
0
10
174.956644
20
79.327326
11
175.999910
21
78.525143
0
LINE
8
0
10
175.999910
20
78.525143
11
177.216254
21
78.022739
0
LINE
8
0
10
177.216254
20
78.022739
11
178.499908
21
77.855271
0
LINE
8
0
10
178.499908
20
77.855271
11
179.783561
21
78.022739
0
LINE
8
0
10
179.783561
20
78.022739
11
180.999905
21
78.525143
0
LINE
8
0
10
180.999905
20
78.525143
11
182.043171
21
79.327326
0
LINE
8
0
10
182.043171
20
79.327326
11
182.830030
21
80.355268
0
LINE
8
0
10
182.830030
20
80.355268
11
183.326825
21
81.550679
0
LINE
8
0
10
183.326825
20
81.550679
11
183.499902
21
82.855265
0
LINE
8
0
10
183.499902
20
82.855265
11
183.499902
21
82.855265
0
LINE
8
0
10
195.499887
20
103.640239
11
195.397813
21
104.647475
0
LINE
8
0
10
195.397813
20
104.647475
11
195.106151
21
105.585558
0
LINE
8
0
10
195.106151
20
105.585558
11
194.644993
21
106.434408
0
LINE
8
0
10
194.644993
20
106.434408
11
194.034427
21
107.173947
0
LINE
8
0
10
194.034427
20
107.173947
11
193.294544
21
107.784096
0
LINE
8
0
10
193.294544
20
107.784096
11
192.445434
21
108.244777
0
LINE
8
0
10
192.445434
20
108.244777
11
191.507187
21
108.535909
0
LINE
8
0
10
191.507187
20
108.535909
11
190.499894
21
108.637416
0
LINE
8
0
10
190.499894
20
108.637416
11
189.492600
21
108.535909
0
LINE
8
0
10
189.492600
20
108.535909
11
188.554353
21
108.244777
0
LINE
8
0
10
188.554353
20
108.244777
11
187.705243
21
107.784096
0
LINE
8
0
10
187.705243
20
107.784096
11
186.965360
21
107.173947
0
LINE
8
0
10
186.965360
20
107.173947
11
186.354794
21
106.434408
0
LINE
8
0
10
186.354794
20
106.434408
11
185.893636
21
105.585558
0
LINE
8
0
10
185.893636
20
105.585558
11
185.601974
21
104.647475
0
LINE
8
0
10
185.601974
20
104.647475
11
185.499901
21
103.640239
0
LINE
8
0
10
185.499901
20
103.640239
11
185.601974
21
102.633003
0
LINE
8
0
10
185.601974
20
102.633003
11
185.893636
21
101.694921
0
LINE
8
0
10
185.893636
20
101.694921
11
186.354794
21
100.846070
0
LINE
8
0
10
186.354794
20
100.846070
11
186.965360
21
100.106531
0
LINE
8
0
10
186.965360
20
100.106531
11
187.705243
21
99.496382
0
LINE
8
0
10
187.705243
20
99.496382
11
188.554353
21
99.035702
0
LINE
8
0
10
188.554353
20
99.035702
11
189.492600
21
98.744569
0
LINE
8
0
10
189.492600
20
98.744569
11
190.499894
21
98.643063
0
LINE
8
0
10
190.499894
20
98.643063
11
191.507187
21
98.744569
0
LINE
8
0
10
191.507187
20
98.744569
11
192.445434
21
99.035702
0
LINE
8
0
10
192.445434
20
99.035702
11
193.294544
21
99.496382
0
LINE
8
0
10
193.294544
20
99.496382
11
194.034427
21
100.106531
0
LINE
8
0
10
194.034427
20
100.106531
11
194.644993
21
100.846070
0
LINE
8
0
10
194.644993
20
100.846070
11
195.106151
21
101.694921
0
LINE
8
0
10
195.106151
20
101.694921
11
195.397813
21
102.633003
0
LINE
8
0
10
195.397813
20
102.633003
11
195.499887
21
103.640239
0
LINE
8
0
10
195.499887
20
103.640239
11
195.499887
21
103.640239
0
LINE
8
0
10
195.499887
20
124.425213
11
195.397813
21
125.432449
0
LINE
8
0
10
195.397813
20
125.432449
11
195.106151
21
126.370532
0
LINE
8
0
10
195.106151
20
126.370532
11
194.644993
21
127.219382
0
LINE
8
0
10
194.644993
20
127.219382
11
194.034427
21
127.958921
0
LINE
8
0
10
194.034427
20
127.958921
11
193.294544
21
128.569070
0
LINE
8
0
10
193.294544
20
128.569070
11
192.445434
21
129.029750
0
LINE
8
0
10
192.445434
20
129.029750
11
191.507187
21
129.320883
0
LINE
8
0
10
191.507187
20
129.320883
11
190.499894
21
129.422389
0
LINE
8
0
10
190.499894
20
129.422389
11
189.492600
21
129.320883
0
LINE
8
0
10
189.492600
20
129.320883
11
188.554353
21
129.029750
0
LINE
8
0
10
188.554353
20
129.029750
11
187.705243
21
128.569070
0
LINE
8
0
10
187.705243
20
128.569070
11
186.965360
21
127.958921
0
LINE
8
0
10
186.965360
20
127.958921
11
186.354794
21
127.219382
0
LINE
8
0
10
186.354794
20
127.219382
11
185.893636
21
126.370532
0
LINE
8
0
10
185.893636
20
126.370532
11
185.601974
21
125.432449
0
LINE
8
0
10
185.601974
20
125.432449
11
185.499901
21
124.425213
0
LINE
8
0
10
185.499901
20
124.425213
11
185.601974
21
123.417977
0
LINE
8
0
10
185.601974
20
123.417977
11
185.893636
21
122.479894
0
LINE
8
0
10
185.893636
20
122.479894
11
186.354794
21
121.631044
0
LINE
8
0
10
186.354794
20
121.631044
11
186.965360
21
120.891505
0
LINE
8
0
10
186.965360
20
120.891505
11
187.705243
21
120.281356
0
LINE
8
0
10
187.705243
20
120.281356
11
188.554353
21
119.820675
0
LINE
8
0
10
188.554353
20
119.820675
11
189.492600
21
119.529543
0
LINE
8
0
10
189.492600
20
119.529543
11
190.499894
21
119.428037
0
LINE
8
0
10
190.499894
20
119.428037
11
191.507187
21
119.529543
0
LINE
8
0
10
191.507187
20
119.529543
11
192.445434
21
119.820675
0
LINE
8
0
10
192.445434
20
119.820675
11
193.294544
21
120.281356
0
LINE
8
0
10
193.294544
20
120.281356
11
194.034427
21
120.891505
0
LINE
8
0
10
194.034427
20
120.891505
11
194.644993
21
121.631044
0
LINE
8
0
10
194.644993
20
121.631044
11
195.106151
21
122.479894
0
LINE
8
0
10
195.106151
20
122.479894
11
195.397813
21
123.417977
0
LINE
8
0
10
195.397813
20
123.417977
11
195.499887
21
124.425213
0
LINE
8
0
10
195.499887
20
124.425213
11
195.499887
21
124.425213
0
LINE
8
0
10
195.499887
20
145.210187
11
195.397813
21
146.217423
0
LINE
8
0
10
195.397813
20
146.217423
11
195.106151
21
147.155505
0
LINE
8
0
10
195.106151
20
147.155505
11
194.644993
21
148.004356
0
LINE
8
0
10
194.644993
20
148.004356
11
194.034427
21
148.743895
0
LINE
8
0
10
194.034427
20
148.743895
11
193.294544
21
149.354044
0
LINE
8
0
10
193.294544
20
149.354044
11
192.445434
21
149.814724
0
LINE
8
0
10
192.445434
20
149.814724
11
191.507187
21
150.105857
0
LINE
8
0
10
191.507187
20
150.105857
11
190.499894
21
150.207363
0
LINE
8
0
10
190.499894
20
150.207363
11
189.492600
21
150.105857
0
LINE
8
0
10
189.492600
20
150.105857
11
188.554353
21
149.814724
0
LINE
8
0
10
188.554353
20
149.814724
11
187.705243
21
149.354044
0
LINE
8
0
10
187.705243
20
149.354044
11
186.965360
21
148.743895
0
LINE
8
0
10
186.965360
20
148.743895
11
186.354794
21
148.004356
0
LINE
8
0
10
186.354794
20
148.004356
11
185.893636
21
147.155505
0
LINE
8
0
10
185.893636
20
147.155505
11
185.601974
21
146.217423
0
LINE
8
0
10
185.601974
20
146.217423
11
185.499901
21
145.210187
0
LINE
8
0
10
185.499901
20
145.210187
11
185.601974
21
144.202951
0
LINE
8
0
10
185.601974
20
144.202951
11
185.893636
21
143.264868
0
LINE
8
0
10
185.893636
20
143.264868
11
186.354794
21
142.416018
0
LINE
8
0
10
186.354794
20
142.416018
11
186.965360
21
141.676479
0
LINE
8
0
10
186.965360
20
141.676479
11
187.705243
21
141.066329
0
LINE
8
0
10
187.705243
20
141.066329
11
188.554353
21
140.605649
0
LINE
8
0
10
188.554353
20
140.605649
11
189.492600
21
140.314516
0
LINE
8
0
10
189.492600
20
140.314516
11
190.499894
21
140.213010
0
LINE
8
0
10
190.499894
20
140.213010
11
191.507187
21
140.314516
0
LINE
8
0
10
191.507187
20
140.314516
11
192.445434
21
140.605649
0
LINE
8
0
10
192.445434
20
140.605649
11
193.294544
21
141.066329
0
LINE
8
0
10
193.294544
20
141.066329
11
194.034427
21
141.676479
0
LINE
8
0
10
194.034427
20
141.676479
11
194.644993
21
142.416018
0
LINE
8
0
10
194.644993
20
142.416018
11
195.106151
21
143.264868
0
LINE
8
0
10
195.106151
20
143.264868
11
195.397813
21
144.202951
0
LINE
8
0
10
195.397813
20
144.202951
11
195.499887
21
145.210187
0
LINE
8
0
10
195.499887
20
145.210187
11
195.499887
21
145.210187
0
LINE
8
0
10
177.499908
20
155.602478
11
177.397834
21
156.609714
0
LINE
8
0
10
177.397834
20
156.609714
11
177.106173
21
157.547796
0
LINE
8
0
10
177.106173
20
157.547796
11
176.645014
21
158.396647
0
LINE
8
0
10
176.645014
20
158.396647
11
176.034448
21
159.136186
0
LINE
8
0
10
176.034448
20
159.136186
11
175.294565
21
159.746335
0
LINE
8
0
10
175.294565
20
159.746335
11
174.445455
21
160.207015
0
LINE
8
0
10
174.445455
20
160.207015
11
173.507209
21
160.498148
0
LINE
8
0
10
173.507209
20
160.498148
11
172.499915
21
160.599654
0
LINE
8
0
10
172.499915
20
160.599654
11
171.492622
21
160.498148
0
LINE
8
0
10
171.492622
20
160.498148
11
170.554375
21
160.207015
0
LINE
8
0
10
170.554375
20
160.207015
11
169.705265
21
159.746335
0
LINE
8
0
10
169.705265
20
159.746335
11
168.965382
21
159.136186
0
LINE
8
0
10
168.965382
20
159.136186
11
168.354816
21
158.396647
0
LINE
8
0
10
168.354816
20
158.396647
11
167.893657
21
157.547796
0
LINE
8
0
10
167.893657
20
157.547796
11
167.601996
21
156.609714
0
LINE
8
0
10
167.601996
20
156.609714
11
167.499922
21
155.602478
0
LINE
8
0
10
167.499922
20
155.602478
11
167.601996
21
154.595242
0
LINE
8
0
10
167.601996
20
154.595242
11
167.893657
21
153.657159
0
LINE
8
0
10
167.893657
20
153.657159
11
168.354816
21
152.808309
0
LINE
8
0
10
168.354816
20
152.808309
11
168.965382
21
152.068770
0
LINE
8
0
10
168.965382
20
152.068770
11
169.705265
21
151.458621
0
LINE
8
0
10
169.705265
20
151.458621
11
170.554375
21
150.997940
0
LINE
8
0
10
170.554375
20
150.997940
11
171.492622
21
150.706808
0
LINE
8
0
10
171.492622
20
150.706808
11
172.499915
21
150.605301
0
LINE
8
0
10
172.499915
20
150.605301
11
173.507209
21
150.706808
0
LINE
8
0
10
173.507209
20
150.706808
11
174.445455
21
150.997940
0
LINE
8
0
10
174.445455
20
150.997940
11
175.294565
21
151.458621
0
LINE
8
0
10
175.294565
20
151.458621
11
176.034448
21
152.068770
0
LINE
8
0
10
176.034448
20
152.068770
11
176.645014
21
152.808309
0
LINE
8
0
10
176.645014
20
152.808309
11
177.106173
21
153.657159
0
LINE
8
0
10
177.106173
20
153.657159
11
177.397834
21
154.595242
0
LINE
8
0
10
177.397834
20
154.595242
11
177.499908
21
155.602478
0
LINE
8
0
10
177.499908
20
155.602478
11
177.499908
21
155.602478
0
LINE
8
0
10
153.499939
20
155.602478
11
153.397865
21
156.609714
0
LINE
8
0
10
153.397865
20
156.609714
11
153.106204
21
157.547796
0
LINE
8
0
10
153.106204
20
157.547796
11
152.645045
21
158.396647
0
LINE
8
0
10
152.645045
20
158.396647
11
152.034479
21
159.136186
0
LINE
8
0
10
152.034479
20
159.136186
11
151.294596
21
159.746335
0
LINE
8
0
10
151.294596
20
159.746335
11
150.445486
21
160.207015
0
LINE
8
0
10
150.445486
20
160.207015
11
149.507239
21
160.498148
0
LINE
8
0
10
149.507239
20
160.498148
11
148.499946
21
160.599654
0
LINE
8
0
10
148.499946
20
160.599654
11
147.492652
21
160.498148
0
LINE
8
0
10
147.492652
20
160.498148
11
146.554406
21
160.207015
0
LINE
8
0
10
146.554406
20
160.207015
11
145.705296
21
159.746335
0
LINE
8
0
10
145.705296
20
159.746335
11
144.965413
21
159.136186
0
LINE
8
0
10
144.965413
20
159.136186
11
144.354847
21
158.396647
0
LINE
8
0
10
144.354847
20
158.396647
11
143.893688
21
157.547796
0
LINE
8
0
10
143.893688
20
157.547796
11
143.602027
21
156.609714
0
LINE
8
0
10
143.602027
20
156.609714
11
143.499953
21
155.602478
0
LINE
8
0
10
143.499953
20
155.602478
11
143.602027
21
154.595242
0
LINE
8
0
10
143.602027
20
154.595242
11
143.893688
21
153.657159
0
LINE
8
0
10
143.893688
20
153.657159
11
144.354847
21
152.808309
0
LINE
8
0
10
144.354847
20
152.808309
11
144.965413
21
152.068770
0
LINE
8
0
10
144.965413
20
152.068770
11
145.705296
21
151.458621
0
LINE
8
0
10
145.705296
20
151.458621
11
146.554406
21
150.997940
0
LINE
8
0
10
146.554406
20
150.997940
11
147.492652
21
150.706808
0
LINE
8
0
10
147.492652
20
150.706808
11
148.499946
21
150.605301
0
LINE
8
0
10
148.499946
20
150.605301
11
149.507239
21
150.706808
0
LINE
8
0
10
149.507239
20
150.706808
11
150.445486
21
150.997940
0
LINE
8
0
10
150.445486
20
150.997940
11
151.294596
21
151.458621
0
LINE
8
0
10
151.294596
20
151.458621
11
152.034479
21
152.068770
0
LINE
8
0
10
152.034479
20
152.068770
11
152.645045
21
152.808309
0
LINE
8
0
10
152.645045
20
152.808309
11
153.106204
21
153.657159
0
LINE
8
0
10
153.106204
20
153.657159
11
153.397865
21
154.595242
0
LINE
8
0
10
153.397865
20
154.595242
11
153.499939
21
155.602478
0
LINE
8
0
10
153.499939
20
155.602478
11
153.499939
21
155.602478
0
LINE
8
0
10
147.499948
20
145.210187
11
147.398366
21
146.217860
0
LINE
8
0
10
147.398366
20
146.217860
11
147.107023
21
147.156410
0
LINE
8
0
10
147.107023
20
147.156410
11
146.646027
21
148.005731
0
LINE
8
0
10
146.646027
20
148.005731
11
146.035483
21
148.745716
0
LINE
8
0
10
146.035483
20
148.745716
11
145.295498
21
149.356260
0
LINE
8
0
10
145.295498
20
149.356260
11
144.446177
21
149.817256
0
LINE
8
0
10
144.446177
20
149.817256
11
143.507627
21
150.108599
0
LINE
8
0
10
143.507627
20
150.108599
11
142.499953
21
150.210181
0
LINE
8
0
10
142.499953
20
150.210181
11
141.492280
21
150.108599
0
LINE
8
0
10
141.492280
20
150.108599
11
140.553730
21
149.817256
0
LINE
8
0
10
140.553730
20
149.817256
11
139.704409
21
149.356260
0
LINE
8
0
10
139.704409
20
149.356260
11
138.964424
21
148.745716
0
LINE
8
0
10
138.964424
20
148.745716
11
138.353880
21
148.005731
0
LINE
8
0
10
138.353880
20
148.005731
11
137.892884
21
147.156410
0
LINE
8
0
10
137.892884
20
147.156410
11
137.601541
21
146.217860
0
LINE
8
0
10
137.601541
20
146.217860
11
137.499959
21
145.210187
0
LINE
8
0
10
137.499959
20
145.210187
11
137.601541
21
144.202513
0
LINE
8
0
10
137.601541
20
144.202513
11
137.892884
21
143.263963
0
LINE
8
0
10
137.892884
20
143.263963
11
138.353880
21
142.414642
0
LINE
8
0
10
138.353880
20
142.414642
11
138.964424
21
141.674657
0
LINE
8
0
10
138.964424
20
141.674657
11
139.704409
21
141.064113
0
LINE
8
0
10
139.704409
20
141.064113
11
140.553730
21
140.603117
0
LINE
8
0
10
140.553730
20
140.603117
11
141.492280
21
140.311775
0
LINE
8
0
10
141.492280
20
140.311775
11
142.499953
21
140.210193
0
LINE
8
0
10
142.499953
20
140.210193
11
143.507627
21
140.311775
0
LINE
8
0
10
143.507627
20
140.311775
11
144.446177
21
140.603117
0
LINE
8
0
10
144.446177
20
140.603117
11
145.295498
21
141.064113
0
LINE
8
0
10
145.295498
20
141.064113
11
146.035483
21
141.674657
0
LINE
8
0
10
146.035483
20
141.674657
11
146.646027
21
142.414642
0
LINE
8
0
10
146.646027
20
142.414642
11
147.107023
21
143.263963
0
LINE
8
0
10
147.107023
20
143.263963
11
147.398366
21
144.202513
0
LINE
8
0
10
147.398366
20
144.202513
11
147.499948
21
145.210187
0
LINE
8
0
10
147.499948
20
145.210187
11
147.499948
21
145.210187
0
LINE
8
0
10
171.499917
20
145.210187
11
171.326840
21
146.514773
0
LINE
8
0
10
171.326840
20
146.514773
11
170.830045
21
147.710184
0
LINE
8
0
10
170.830045
20
147.710184
11
170.043187
21
148.738126
0
LINE
8
0
10
170.043187
20
148.738126
11
168.999920
21
149.540309
0
LINE
8
0
10
168.999920
20
149.540309
11
167.783576
21
150.042713
0
LINE
8
0
10
167.783576
20
150.042713
11
166.499923
21
150.210181
0
LINE
8
0
10
166.499923
20
150.210181
11
165.216270
21
150.042713
0
LINE
8
0
10
165.216270
20
150.042713
11
163.999926
21
149.540309
0
LINE
8
0
10
163.999926
20
149.540309
11
162.956659
21
148.738126
0
LINE
8
0
10
162.956659
20
148.738126
11
162.169801
21
147.710184
0
LINE
8
0
10
162.169801
20
147.710184
11
161.673006
21
146.514773
0
LINE
8
0
10
161.673006
20
146.514773
11
161.499929
21
145.210187
0
LINE
8
0
10
161.499929
20
145.210187
11
161.673006
21
143.905600
0
LINE
8
0
10
161.673006
20
143.905600
11
162.169801
21
142.710190
0
LINE
8
0
10
162.169801
20
142.710190
11
162.956659
21
141.682247
0
LINE
8
0
10
162.956659
20
141.682247
11
163.999926
21
140.880065
0
LINE
8
0
10
163.999926
20
140.880065
11
165.216270
21
140.377660
0
LINE
8
0
10
165.216270
20
140.377660
11
166.499923
21
140.210192
0
LINE
8
0
10
166.499923
20
140.210192
11
167.783576
21
140.377660
0
LINE
8
0
10
167.783576
20
140.377660
11
168.999920
21
140.880065
0
LINE
8
0
10
168.999920
20
140.880065
11
170.043187
21
141.682247
0
LINE
8
0
10
170.043187
20
141.682247
11
170.830045
21
142.710190
0
LINE
8
0
10
170.830045
20
142.710190
11
171.326840
21
143.905600
0
LINE
8
0
10
171.326840
20
143.905600
11
171.499917
21
145.210187
0
LINE
8
0
10
171.499917
20
145.210187
11
171.499917
21
145.210187
0
LINE
8
0
10
171.499917
20
124.425213
11
171.326840
21
125.729800
0
LINE
8
0
10
171.326840
20
125.729800
11
170.830045
21
126.925210
0
LINE
8
0
10
170.830045
20
126.925210
11
170.043187
21
127.953152
0
LINE
8
0
10
170.043187
20
127.953152
11
168.999920
21
128.755335
0
LINE
8
0
10
168.999920
20
128.755335
11
167.783576
21
129.257739
0
LINE
8
0
10
167.783576
20
129.257739
11
166.499923
21
129.425207
0
LINE
8
0
10
166.499923
20
129.425207
11
165.216270
21
129.257739
0
LINE
8
0
10
165.216270
20
129.257739
11
163.999926
21
128.755335
0
LINE
8
0
10
163.999926
20
128.755335
11
162.956659
21
127.953152
0
LINE
8
0
10
162.956659
20
127.953152
11
162.169801
21
126.925210
0
LINE
8
0
10
162.169801
20
126.925210
11
161.673006
21
125.729800
0
LINE
8
0
10
161.673006
20
125.729800
11
161.499929
21
124.425213
0
LINE
8
0
10
161.499929
20
124.425213
11
161.673006
21
123.120626
0
LINE
8
0
10
161.673006
20
123.120626
11
162.169801
21
121.925216
0
LINE
8
0
10
162.169801
20
121.925216
11
162.956659
21
120.897273
0
LINE
8
0
10
162.956659
20
120.897273
11
163.999926
21
120.095091
0
LINE
8
0
10
163.999926
20
120.095091
11
165.216270
21
119.592687
0
LINE
8
0
10
165.216270
20
119.592687
11
166.499923
21
119.425219
0
LINE
8
0
10
166.499923
20
119.425219
11
167.783576
21
119.592687
0
LINE
8
0
10
167.783576
20
119.592687
11
168.999920
21
120.095091
0
LINE
8
0
10
168.999920
20
120.095091
11
170.043187
21
120.897273
0
LINE
8
0
10
170.043187
20
120.897273
11
170.830045
21
121.925216
0
LINE
8
0
10
170.830045
20
121.925216
11
171.326840
21
123.120626
0
LINE
8
0
10
171.326840
20
123.120626
11
171.499917
21
124.425213
0
LINE
8
0
10
171.499917
20
124.425213
11
171.499917
21
124.425213
0
LINE
8
0
10
165.499923
20
93.247557
11
165.397850
21
94.254793
0
LINE
8
0
10
165.397850
20
94.254793
11
165.106188
21
95.192875
0
LINE
8
0
10
165.106188
20
95.192875
11
164.645030
21
96.041726
0
LINE
8
0
10
164.645030
20
96.041726
11
164.034464
21
96.781265
0
LINE
8
0
10
164.034464
20
96.781265
11
163.294581
21
97.391414
0
LINE
8
0
10
163.294581
20
97.391414
11
162.445471
21
97.852094
0
LINE
8
0
10
162.445471
20
97.852094
11
161.507224
21
98.143227
0
LINE
8
0
10
161.507224
20
98.143227
11
160.499931
21
98.244733
0
LINE
8
0
10
160.499931
20
98.244733
11
159.492637
21
98.143227
0
LINE
8
0
10
159.492637
20
98.143227
11
158.554390
21
97.852094
0
LINE
8
0
10
158.554390
20
97.852094
11
157.705280
21
97.391414
0
LINE
8
0
10
157.705280
20
97.391414
11
156.965397
21
96.781265
0
LINE
8
0
10
156.965397
20
96.781265
11
156.354831
21
96.041726
0
LINE
8
0
10
156.354831
20
96.041726
11
155.893673
21
95.192875
0
LINE
8
0
10
155.893673
20
95.192875
11
155.602011
21
94.254793
0
LINE
8
0
10
155.602011
20
94.254793
11
155.499938
21
93.247557
0
LINE
8
0
10
155.499938
20
93.247557
11
155.602011
21
92.240320
0
LINE
8
0
10
155.602011
20
92.240320
11
155.893673
21
91.302238
0
LINE
8
0
10
155.893673
20
91.302238
11
156.354831
21
90.453388
0
LINE
8
0
10
156.354831
20
90.453388
11
156.965397
21
89.713848
0
LINE
8
0
10
156.965397
20
89.713848
11
157.705280
21
89.103699
0
LINE
8
0
10
157.705280
20
89.103699
11
158.554390
21
88.643019
0
LINE
8
0
10
158.554390
20
88.643019
11
159.492637
21
88.351886
0
LINE
8
0
10
159.492637
20
88.351886
11
160.499931
21
88.250380
0
LINE
8
0
10
160.499931
20
88.250380
11
161.507224
21
88.351886
0
LINE
8
0
10
161.507224
20
88.351886
11
162.445471
21
88.643019
0
LINE
8
0
10
162.445471
20
88.643019
11
163.294581
21
89.103699
0
LINE
8
0
10
163.294581
20
89.103699
11
164.034464
21
89.713848
0
LINE
8
0
10
164.034464
20
89.713848
11
164.645030
21
90.453388
0
LINE
8
0
10
164.645030
20
90.453388
11
165.106188
21
91.302238
0
LINE
8
0
10
165.106188
20
91.302238
11
165.397850
21
92.240320
0
LINE
8
0
10
165.397850
20
92.240320
11
165.499923
21
93.247557
0
LINE
8
0
10
165.499923
20
93.247557
11
165.499923
21
93.247557
0
LINE
8
0
10
183.499902
20
103.640239
11
183.326825
21
104.944826
0
LINE
8
0
10
183.326825
20
104.944826
11
182.830030
21
106.140236
0
LINE
8
0
10
182.830030
20
106.140236
11
182.043171
21
107.168179
0
LINE
8
0
10
182.043171
20
107.168179
11
180.999905
21
107.970361
0
LINE
8
0
10
180.999905
20
107.970361
11
179.783561
21
108.472765
0
LINE
8
0
10
179.783561
20
108.472765
11
178.499908
21
108.640233
0
LINE
8
0
10
178.499908
20
108.640233
11
177.216254
21
108.472765
0
LINE
8
0
10
177.216254
20
108.472765
11
175.999910
21
107.970361
0
LINE
8
0
10
175.999910
20
107.970361
11
174.956644
21
107.168179
0
LINE
8
0
10
174.956644
20
107.168179
11
174.169785
21
106.140236
0
LINE
8
0
10
174.169785
20
106.140236
11
173.672990
21
104.944826
0
LINE
8
0
10
173.672990
20
104.944826
11
173.499913
21
103.640239
0
LINE
8
0
10
173.499913
20
103.640239
11
173.672990
21
102.335652
0
LINE
8
0
10
173.672990
20
102.335652
11
174.169785
21
101.140242
0
LINE
8
0
10
174.169785
20
101.140242
11
174.956644
21
100.112300
0
LINE
8
0
10
174.956644
20
100.112300
11
175.999910
21
99.310117
0
LINE
8
0
10
175.999910
20
99.310117
11
177.216254
21
98.807713
0
LINE
8
0
10
177.216254
20
98.807713
11
178.499908
21
98.640245
0
LINE
8
0
10
178.499908
20
98.640245
11
179.783561
21
98.807713
0
LINE
8
0
10
179.783561
20
98.807713
11
180.999905
21
99.310117
0
LINE
8
0
10
180.999905
20
99.310117
11
182.043171
21
100.112300
0
LINE
8
0
10
182.043171
20
100.112300
11
182.830030
21
101.140242
0
LINE
8
0
10
182.830030
20
101.140242
11
183.326825
21
102.335652
0
LINE
8
0
10
183.326825
20
102.335652
11
183.499902
21
103.640239
0
LINE
8
0
10
183.499902
20
103.640239
11
183.499902
21
103.640239
0
LINE
8
0
10
183.499902
20
124.425213
11
183.326825
21
125.729800
0
LINE
8
0
10
183.326825
20
125.729800
11
182.830030
21
126.925210
0
LINE
8
0
10
182.830030
20
126.925210
11
182.043171
21
127.953152
0
LINE
8
0
10
182.043171
20
127.953152
11
180.999905
21
128.755335
0
LINE
8
0
10
180.999905
20
128.755335
11
179.783561
21
129.257739
0
LINE
8
0
10
179.783561
20
129.257739
11
178.499908
21
129.425207
0
LINE
8
0
10
178.499908
20
129.425207
11
177.216254
21
129.257739
0
LINE
8
0
10
177.216254
20
129.257739
11
175.999910
21
128.755335
0
LINE
8
0
10
175.999910
20
128.755335
11
174.956644
21
127.953152
0
LINE
8
0
10
174.956644
20
127.953152
11
174.169785
21
126.925210
0
LINE
8
0
10
174.169785
20
126.925210
11
173.672990
21
125.729800
0
LINE
8
0
10
173.672990
20
125.729800
11
173.499913
21
124.425213
0
LINE
8
0
10
173.499913
20
124.425213
11
173.672990
21
123.120626
0
LINE
8
0
10
173.672990
20
123.120626
11
174.169785
21
121.925216
0
LINE
8
0
10
174.169785
20
121.925216
11
174.956644
21
120.897273
0
LINE
8
0
10
174.956644
20
120.897273
11
175.999910
21
120.095091
0
LINE
8
0
10
175.999910
20
120.095091
11
177.216254
21
119.592687
0
LINE
8
0
10
177.216254
20
119.592687
11
178.499908
21
119.425219
0
LINE
8
0
10
178.499908
20
119.425219
11
179.783561
21
119.592687
0
LINE
8
0
10
179.783561
20
119.592687
11
180.999905
21
120.095091
0
LINE
8
0
10
180.999905
20
120.095091
11
182.043171
21
120.897273
0
LINE
8
0
10
182.043171
20
120.897273
11
182.830030
21
121.925216
0
LINE
8
0
10
182.830030
20
121.925216
11
183.326825
21
123.120626
0
LINE
8
0
10
183.326825
20
123.120626
11
183.499902
21
124.425213
0
LINE
8
0
10
183.499902
20
124.425213
11
183.499902
21
124.425213
0
LINE
8
0
10
183.499902
20
145.210187
11
183.326825
21
146.514773
0
LINE
8
0
10
183.326825
20
146.514773
11
182.830030
21
147.710184
0
LINE
8
0
10
182.830030
20
147.710184
11
182.043171
21
148.738126
0
LINE
8
0
10
182.043171
20
148.738126
11
180.999905
21
149.540309
0
LINE
8
0
10
180.999905
20
149.540309
11
179.783561
21
150.042713
0
LINE
8
0
10
179.783561
20
150.042713
11
178.499908
21
150.210181
0
LINE
8
0
10
178.499908
20
150.210181
11
177.216254
21
150.042713
0
LINE
8
0
10
177.216254
20
150.042713
11
175.999910
21
149.540309
0
LINE
8
0
10
175.999910
20
149.540309
11
174.956644
21
148.738126
0
LINE
8
0
10
174.956644
20
148.738126
11
174.169785
21
147.710184
0
LINE
8
0
10
174.169785
20
147.710184
11
173.672990
21
146.514773
0
LINE
8
0
10
173.672990
20
146.514773
11
173.499913
21
145.210187
0
LINE
8
0
10
173.499913
20
145.210187
11
173.672990
21
143.905600
0
LINE
8
0
10
173.672990
20
143.905600
11
174.169785
21
142.710190
0
LINE
8
0
10
174.169785
20
142.710190
11
174.956644
21
141.682247
0
LINE
8
0
10
174.956644
20
141.682247
11
175.999910
21
140.880065
0
LINE
8
0
10
175.999910
20
140.880065
11
177.216254
21
140.377660
0
LINE
8
0
10
177.216254
20
140.377660
11
178.499908
21
140.210192
0
LINE
8
0
10
178.499908
20
140.210192
11
179.783561
21
140.377660
0
LINE
8
0
10
179.783561
20
140.377660
11
180.999905
21
140.880065
0
LINE
8
0
10
180.999905
20
140.880065
11
182.043171
21
141.682247
0
LINE
8
0
10
182.043171
20
141.682247
11
182.830030
21
142.710190
0
LINE
8
0
10
182.830030
20
142.710190
11
183.326825
21
143.905600
0
LINE
8
0
10
183.326825
20
143.905600
11
183.499902
21
145.210187
0
LINE
8
0
10
183.499902
20
145.210187
11
183.499902
21
145.210187
0
LINE
8
0
10
189.499896
20
176.387451
11
189.326818
21
177.692038
0
LINE
8
0
10
189.326818
20
177.692038
11
188.830023
21
178.887449
0
LINE
8
0
10
188.830023
20
178.887449
11
188.043165
21
179.915391
0
LINE
8
0
10
188.043165
20
179.915391
11
186.999898
21
180.717574
0
LINE
8
0
10
186.999898
20
180.717574
11
185.783554
21
181.219978
0
LINE
8
0
10
185.783554
20
181.219978
11
184.499901
21
181.387446
0
LINE
8
0
10
184.499901
20
181.387446
11
183.216248
21
181.219978
0
LINE
8
0
10
183.216248
20
181.219978
11
181.999904
21
180.717574
0
LINE
8
0
10
181.999904
20
180.717574
11
180.956637
21
179.915391
0
LINE
8
0
10
180.956637
20
179.915391
11
180.169779
21
178.887449
0
LINE
8
0
10
180.169779
20
178.887449
11
179.672984
21
177.692038
0
LINE
8
0
10
179.672984
20
177.692038
11
179.499907
21
176.387451
0
LINE
8
0
10
179.499907
20
176.387451
11
179.672984
21
175.082865
0
LINE
8
0
10
179.672984
20
175.082865
11
180.169779
21
173.887454
0
LINE
8
0
10
180.169779
20
173.887454
11
180.956637
21
172.859512
0
LINE
8
0
10
180.956637
20
172.859512
11
181.999904
21
172.057329
0
LINE
8
0
10
181.999904
20
172.057329
11
183.216248
21
171.554925
0
LINE
8
0
10
183.216248
20
171.554925
11
184.499901
21
171.387457
0
LINE
8
0
10
184.499901
20
171.387457
11
185.783554
21
171.554925
0
LINE
8
0
10
185.783554
20
171.554925
11
186.999898
21
172.057329
0
LINE
8
0
10
186.999898
20
172.057329
11
188.043165
21
172.859512
0
LINE
8
0
10
188.043165
20
172.859512
11
188.830023
21
173.887454
0
LINE
8
0
10
188.830023
20
173.887454
11
189.326818
21
175.082865
0
LINE
8
0
10
189.326818
20
175.082865
11
189.499896
21
176.387451
0
LINE
8
0
10
189.499896
20
176.387451
11
189.499896
21
176.387451
0
LINE
8
0
10
183.499902
20
186.780134
11
183.326825
21
188.084721
0
LINE
8
0
10
183.326825
20
188.084721
11
182.830030
21
189.280131
0
LINE
8
0
10
182.830030
20
189.280131
11
182.043171
21
190.308074
0
LINE
8
0
10
182.043171
20
190.308074
11
180.999905
21
191.110256
0
LINE
8
0
10
180.999905
20
191.110256
11
179.783561
21
191.612660
0
LINE
8
0
10
179.783561
20
191.612660
11
178.499908
21
191.780128
0
LINE
8
0
10
178.499908
20
191.780128
11
177.216254
21
191.612660
0
LINE
8
0
10
177.216254
20
191.612660
11
175.999910
21
191.110256
0
LINE
8
0
10
175.999910
20
191.110256
11
174.956644
21
190.308074
0
LINE
8
0
10
174.956644
20
190.308074
11
174.169785
21
189.280131
0
LINE
8
0
10
174.169785
20
189.280131
11
173.672990
21
188.084721
0
LINE
8
0
10
173.672990
20
188.084721
11
173.499913
21
186.780134
0
LINE
8
0
10
173.499913
20
186.780134
11
173.672990
21
185.475547
0
LINE
8
0
10
173.672990
20
185.475547
11
174.169785
21
184.280137
0
LINE
8
0
10
174.169785
20
184.280137
11
174.956644
21
183.252195
0
LINE
8
0
10
174.956644
20
183.252195
11
175.999910
21
182.450012
0
LINE
8
0
10
175.999910
20
182.450012
11
177.216254
21
181.947608
0
LINE
8
0
10
177.216254
20
181.947608
11
178.499908
21
181.780140
0
LINE
8
0
10
178.499908
20
181.780140
11
179.783561
21
181.947608
0
LINE
8
0
10
179.783561
20
181.947608
11
180.999905
21
182.450012
0
LINE
8
0
10
180.999905
20
182.450012
11
182.043171
21
183.252195
0
LINE
8
0
10
182.043171
20
183.252195
11
182.830030
21
184.280137
0
LINE
8
0
10
182.830030
20
184.280137
11
183.326825
21
185.475547
0
LINE
8
0
10
183.326825
20
185.475547
11
183.499902
21
186.780134
0
LINE
8
0
10
183.499902
20
186.780134
11
183.499902
21
186.780134
0
LINE
8
0
10
165.499923
20
176.387451
11
165.397850
21
177.394688
0
LINE
8
0
10
165.397850
20
177.394688
11
165.106188
21
178.332770
0
LINE
8
0
10
165.106188
20
178.332770
11
164.645030
21
179.181620
0
LINE
8
0
10
164.645030
20
179.181620
11
164.034464
21
179.921160
0
LINE
8
0
10
164.034464
20
179.921160
11
163.294581
21
180.531309
0
LINE
8
0
10
163.294581
20
180.531309
11
162.445471
21
180.991989
0
LINE
8
0
10
162.445471
20
180.991989
11
161.507224
21
181.283122
0
LINE
8
0
10
161.507224
20
181.283122
11
160.499931
21
181.384628
0
LINE
8
0
10
160.499931
20
181.384628
11
159.492637
21
181.283122
0
LINE
8
0
10
159.492637
20
181.283122
11
158.554390
21
180.991989
0
LINE
8
0
10
158.554390
20
180.991989
11
157.705280
21
180.531309
0
LINE
8
0
10
157.705280
20
180.531309
11
156.965397
21
179.921160
0
LINE
8
0
10
156.965397
20
179.921160
11
156.354831
21
179.181620
0
LINE
8
0
10
156.354831
20
179.181620
11
155.893673
21
178.332770
0
LINE
8
0
10
155.893673
20
178.332770
11
155.602011
21
177.394688
0
LINE
8
0
10
155.602011
20
177.394688
11
155.499938
21
176.387451
0
LINE
8
0
10
155.499938
20
176.387451
11
155.602011
21
175.380215
0
LINE
8
0
10
155.602011
20
175.380215
11
155.893673
21
174.442133
0
LINE
8
0
10
155.893673
20
174.442133
11
156.354831
21
173.593283
0
LINE
8
0
10
156.354831
20
173.593283
11
156.965397
21
172.853743
0
LINE
8
0
10
156.965397
20
172.853743
11
157.705280
21
172.243594
0
LINE
8
0
10
157.705280
20
172.243594
11
158.554390
21
171.782914
0
LINE
8
0
10
158.554390
20
171.782914
11
159.492637
21
171.491781
0
LINE
8
0
10
159.492637
20
171.491781
11
160.499931
21
171.390275
0
LINE
8
0
10
160.499931
20
171.390275
11
161.507224
21
171.491781
0
LINE
8
0
10
161.507224
20
171.491781
11
162.445471
21
171.782914
0
LINE
8
0
10
162.445471
20
171.782914
11
163.294581
21
172.243594
0
LINE
8
0
10
163.294581
20
172.243594
11
164.034464
21
172.853743
0
LINE
8
0
10
164.034464
20
172.853743
11
164.645030
21
173.593283
0
LINE
8
0
10
164.645030
20
173.593283
11
165.106188
21
174.442133
0
LINE
8
0
10
165.106188
20
174.442133
11
165.397850
21
175.380215
0
LINE
8
0
10
165.397850
20
175.380215
11
165.499923
21
176.387451
0
LINE
8
0
10
165.499923
20
176.387451
11
165.499923
21
176.387451
0
LINE
8
0
10
159.499932
20
165.995160
11
159.326855
21
167.299747
0
LINE
8
0
10
159.326855
20
167.299747
11
158.830060
21
168.495158
0
LINE
8
0
10
158.830060
20
168.495158
11
158.043202
21
169.523100
0
LINE
8
0
10
158.043202
20
169.523100
11
156.999935
21
170.325282
0
LINE
8
0
10
156.999935
20
170.325282
11
155.783591
21
170.827687
0
LINE
8
0
10
155.783591
20
170.827687
11
154.499938
21
170.995155
0
LINE
8
0
10
154.499938
20
170.995155
11
153.216285
21
170.827687
0
LINE
8
0
10
153.216285
20
170.827687
11
151.999941
21
170.325282
0
LINE
8
0
10
151.999941
20
170.325282
11
150.956674
21
169.523100
0
LINE
8
0
10
150.956674
20
169.523100
11
150.169816
21
168.495158
0
LINE
8
0
10
150.169816
20
168.495158
11
149.673021
21
167.299747
0
LINE
8
0
10
149.673021
20
167.299747
11
149.499944
21
165.995160
0
LINE
8
0
10
149.499944
20
165.995160
11
149.673021
21
164.690574
0
LINE
8
0
10
149.673021
20
164.690574
11
150.169816
21
163.495163
0
LINE
8
0
10
150.169816
20
163.495163
11
150.956674
21
162.467221
0
LINE
8
0
10
150.956674
20
162.467221
11
151.999941
21
161.665038
0
LINE
8
0
10
151.999941
20
161.665038
11
153.216285
21
161.162634
0
LINE
8
0
10
153.216285
20
161.162634
11
154.499938
21
160.995166
0
LINE
8
0
10
154.499938
20
160.995166
11
155.783591
21
161.162634
0
LINE
8
0
10
155.783591
20
161.162634
11
156.999935
21
161.665038
0
LINE
8
0
10
156.999935
20
161.665038
11
158.043202
21
162.467221
0
LINE
8
0
10
158.043202
20
162.467221
11
158.830060
21
163.495163
0
LINE
8
0
10
158.830060
20
163.495163
11
159.326855
21
164.690574
0
LINE
8
0
10
159.326855
20
164.690574
11
159.499932
21
165.995160
0
LINE
8
0
10
159.499932
20
165.995160
11
159.499932
21
165.995160
0
LINE
8
0
10
183.499902
20
165.995160
11
183.326825
21
167.299747
0
LINE
8
0
10
183.326825
20
167.299747
11
182.830030
21
168.495158
0
LINE
8
0
10
182.830030
20
168.495158
11
182.043171
21
169.523100
0
LINE
8
0
10
182.043171
20
169.523100
11
180.999905
21
170.325282
0
LINE
8
0
10
180.999905
20
170.325282
11
179.783561
21
170.827687
0
LINE
8
0
10
179.783561
20
170.827687
11
178.499908
21
170.995155
0
LINE
8
0
10
178.499908
20
170.995155
11
177.216254
21
170.827687
0
LINE
8
0
10
177.216254
20
170.827687
11
175.999910
21
170.325282
0
LINE
8
0
10
175.999910
20
170.325282
11
174.956644
21
169.523100
0
LINE
8
0
10
174.956644
20
169.523100
11
174.169785
21
168.495158
0
LINE
8
0
10
174.169785
20
168.495158
11
173.672990
21
167.299747
0
LINE
8
0
10
173.672990
20
167.299747
11
173.499913
21
165.995160
0
LINE
8
0
10
173.499913
20
165.995160
11
173.672990
21
164.690574
0
LINE
8
0
10
173.672990
20
164.690574
11
174.169785
21
163.495163
0
LINE
8
0
10
174.169785
20
163.495163
11
174.956644
21
162.467221
0
LINE
8
0
10
174.956644
20
162.467221
11
175.999910
21
161.665038
0
LINE
8
0
10
175.999910
20
161.665038
11
177.216254
21
161.162634
0
LINE
8
0
10
177.216254
20
161.162634
11
178.499908
21
160.995166
0
LINE
8
0
10
178.499908
20
160.995166
11
179.783561
21
161.162634
0
LINE
8
0
10
179.783561
20
161.162634
11
180.999905
21
161.665038
0
LINE
8
0
10
180.999905
20
161.665038
11
182.043171
21
162.467221
0
LINE
8
0
10
182.043171
20
162.467221
11
182.830030
21
163.495163
0
LINE
8
0
10
182.830030
20
163.495163
11
183.326825
21
164.690574
0
LINE
8
0
10
183.326825
20
164.690574
11
183.499902
21
165.995160
0
LINE
8
0
10
183.499902
20
165.995160
11
183.499902
21
165.995160
 0 
ENDSEC
 0 
EOF