<?xml version="1.0" encoding="UTF-8" standalone="no"?>
<svg
   viewBox="0 0 797.4803 797.48034"
   width="211mm"
   height="211mm"
   version="1.1"
   id="svg96"
   sodipodi:docname="right_panel_laser_try0.svg"
   inkscape:version="1.3.1 (91b66b0, 2023-11-16)"
   xmlns:inkscape="http://www.inkscape.org/namespaces/inkscape"
   xmlns:sodipodi="http://sodipodi.sourceforge.net/DTD/sodipodi-0.dtd"
   xmlns="http://www.w3.org/2000/svg"
   xmlns:svg="http://www.w3.org/2000/svg">
  <sodipodi:namedview
     id="namedview96"
     pagecolor="#ffffff"
     bordercolor="#000000"
     borderopacity="0.25"
     inkscape:showpageshadow="2"
     inkscape:pageopacity="0.0"
     inkscape:pagecheckerboard="0"
     inkscape:deskcolor="#d1d1d1"
     inkscape:document-units="mm"
     inkscape:zoom="0.942471"
     inkscape:cx="300.27449"
     inkscape:cy="374.01681"
     inkscape:window-width="1920"
     inkscape:window-height="1007"
     inkscape:window-x="0"
     inkscape:window-y="0"
     inkscape:window-maximized="1"
     inkscape:current-layer="g96" />
  <desc
     id="desc1">right_panel_laser_try0.dxf - scale = 1.000000, origin = (0.000000, 0.000000), method = manual</desc>
  <defs
     id="defs4">
    <marker
       id="DistanceX"
       orient="auto"
       refX="0"
       refY="0"
       style="overflow:visible">
      <path
         d="M 3,-3 -3,3 M 0,-5 V 5"
         style="stroke:#000000;stroke-width:0.5"
         id="path1" />
    </marker>
    <pattern
       id="Hatch"
       patternUnits="userSpaceOnUse"
       width="8"
       height="8"
       x="0"
       y="0">
      <path
         d="M8 4 l-4,4"
         stroke="#000000"
         stroke-width="0.25"
         linecap="square"
         id="path2" />
      <path
         d="M6 2 l-4,4"
         stroke="#000000"
         stroke-width="0.25"
         linecap="square"
         id="path3" />
      <path
         d="M4 0 l-4,4"
         stroke="#000000"
         stroke-width="0.25"
         linecap="square"
         id="path4" />
    </pattern>
    <symbol
       id="*MODEL_SPACE" />
    <symbol
       id="*PAPER_SPACE" />
  </defs>
  <g
     inkscape:groupmode="layer"
     inkscape:label="0"
     id="g96"
     transform="translate(398.74016,-308.0315)">
    <path
       d="m 133.41732,668.97638 a 9.44882,9.44882 0 0 0 -18.89764,0 9.44882,9.44882 0 0 0 18.89764,0 z"
       style="fill:none;stroke:#ff0000"
       id="path5" />
    <path
       d="m 133.41732,366.89764 a 9.44882,9.44882 0 0 0 -18.89764,0 9.44882,9.44882 0 0 0 18.89764,0 z"
       style="fill:none;stroke:#ff0000"
       id="path6" />
    <path
       d="m 133.41732,971.05512 a 9.44882,9.44882 0 0 0 -18.89764,0 9.44882,9.44882 0 0 0 18.89764,0 z"
       style="fill:none;stroke:#ff0000"
       id="path7" />
    <path
       d="m 249.44882,478.12913 a 18.89764,18.89764 0 0 0 -37.79528,0 18.89764,18.89764 0 0 0 37.79528,0 z"
       style="fill:none;stroke:#ff0000"
       id="path8" />
    <path
       d="m 158.74016,478.12913 a 18.89764,18.89764 0 0 0 -37.79528,0 18.89764,18.89764 0 0 0 37.79528,0 z"
       style="fill:none;stroke:#ff0000"
       id="path9" />
    <path
       d="m 272.12598,438.85113 a 18.897638,18.897638 0 0 0 -37.79527,0 18.897638,18.897638 0 0 0 37.79527,0 z"
       style="fill:none;stroke:#ff0000"
       id="path10" />
    <path
       d="m 340.15748,399.57165 a 18.897638,18.897638 0 0 0 -37.79527,0 18.897638,18.897638 0 0 0 37.79527,0 z"
       style="fill:none;stroke:#ff0000"
       id="path11" />
    <path
       d="m 340.15748,478.12913 a 18.897638,18.897638 0 0 0 -37.79527,0 18.897638,18.897638 0 0 0 37.79527,0 z"
       style="fill:none;stroke:#ff0000"
       id="path12" />
    <path
       d="m 272.12598,595.96609 a 18.897638,18.897638 0 0 0 -37.79527,0 18.897638,18.897638 0 0 0 37.79527,0 z"
       style="fill:none;stroke:#ff0000"
       id="path13" />
    <path
       d="m 272.12598,674.52357 a 18.897638,18.897638 0 0 0 -37.79527,0 18.897638,18.897638 0 0 0 37.79527,0 z"
       style="fill:none;stroke:#ff0000"
       id="path14" />
    <path
       d="m 272.12598,753.08105 a 18.897638,18.897638 0 0 0 -37.79527,0 18.897638,18.897638 0 0 0 37.79527,0 z"
       style="fill:none;stroke:#ff0000"
       id="path15" />
    <path
       d="m 249.44882,713.80157 a 18.89764,18.89764 0 0 0 -37.79528,0 18.89764,18.89764 0 0 0 37.79528,0 z"
       style="fill:none;stroke:#ff0000"
       id="path16" />
    <path
       d="m 226.77165,595.96609 a 18.897638,18.897638 0 0 0 -37.79527,0 18.897638,18.897638 0 0 0 37.79527,0 z"
       style="fill:none;stroke:#ff0000"
       id="path17" />
    <path
       d="m 204.09449,556.68661 a 18.89764,18.89764 0 0 0 -37.79528,0 18.89764,18.89764 0 0 0 37.79528,0 z"
       style="fill:none;stroke:#ff0000"
       id="path18" />
    <path
       d="m 136.06299,517.40861 a 18.897638,18.897638 0 0 0 -37.795273,0 18.897638,18.897638 0 0 0 37.795273,0 z"
       style="fill:none;stroke:#ff0000"
       id="path19" />
    <path
       d="m 226.77165,517.40861 a 18.897638,18.897638 0 0 0 -37.79527,0 18.897638,18.897638 0 0 0 37.79527,0 z"
       style="fill:none;stroke:#ff0000"
       id="path20" />
    <path
       d="m 317.48032,517.40861 a 18.89764,18.89764 0 0 0 -37.79528,0 18.89764,18.89764 0 0 0 37.79528,0 z"
       style="fill:none;stroke:#ff0000"
       id="path21" />
    <path
       d="m 317.48032,595.96609 a 18.89764,18.89764 0 0 0 -37.79528,0 18.89764,18.89764 0 0 0 37.79528,0 z"
       style="fill:none;stroke:#ff0000"
       id="path22" />
    <path
       d="m 317.48032,674.52357 a 18.89764,18.89764 0 0 0 -37.79528,0 18.89764,18.89764 0 0 0 37.79528,0 z"
       style="fill:none;stroke:#ff0000"
       id="path23" />
    <path
       d="m 317.48032,753.08105 a 18.89764,18.89764 0 0 0 -37.79528,0 18.89764,18.89764 0 0 0 37.79528,0 z"
       style="fill:none;stroke:#ff0000"
       id="path24" />
    <path
       d="m 340.15748,792.35905 a 18.897638,18.897638 0 0 0 -37.79527,0 18.897638,18.897638 0 0 0 37.79527,0 z"
       style="fill:none;stroke:#ff0000"
       id="path25" />
    <path
       d="m 340.15748,870.91653 a 18.897638,18.897638 0 0 0 -37.79527,0 18.897638,18.897638 0 0 0 37.79527,0 z"
       style="fill:none;stroke:#ff0000"
       id="path26" />
    <path
       d="m 249.44882,792.35905 a 18.89764,18.89764 0 0 0 -37.79528,0 18.89764,18.89764 0 0 0 37.79528,0 z"
       style="fill:none;stroke:#ff0000"
       id="path27" />
    <path
       d="m 272.12598,831.63853 a 18.897638,18.897638 0 0 0 -37.79527,0 18.897638,18.897638 0 0 0 37.79527,0 z"
       style="fill:none;stroke:#ff0000"
       id="path28" />
    <path
       d="m 249.44882,870.91653 a 18.89764,18.89764 0 0 0 -37.79528,0 18.89764,18.89764 0 0 0 37.79528,0 z"
       style="fill:none;stroke:#ff0000"
       id="path29" />
    <path
       d="m 204.09449,870.91653 a 18.89764,18.89764 0 0 0 -37.79528,0 18.89764,18.89764 0 0 0 37.79528,0 z"
       style="fill:none;stroke:#ff0000"
       id="path30" />
    <path
       d="m 272.12598,910.19601 a 18.897638,18.897638 0 0 0 -37.79527,0 18.897638,18.897638 0 0 0 37.79527,0 z"
       style="fill:none;stroke:#ff0000"
       id="path31" />
    <path
       d="m 340.15748,949.47402 a 18.897638,18.897638 0 0 0 -37.79527,0 18.897638,18.897638 0 0 0 37.79527,0 z"
       style="fill:none;stroke:#ff0000"
       id="path32" />
    <path
       d="m 340.15748,1028.0315 a 18.897638,18.897638 0 0 0 -37.79527,0 18.897638,18.897638 0 0 0 37.79527,0 z"
       style="fill:none;stroke:#ff0000"
       id="path33" />
    <path
       d="m 249.44882,949.47402 a 18.89764,18.89764 0 0 0 -37.79528,0 18.89764,18.89764 0 0 0 37.79528,0 z"
       style="fill:none;stroke:#ff0000"
       id="path34" />
    <path
       d="m 249.44882,1028.0315 a 18.89764,18.89764 0 0 0 -37.79528,0 18.89764,18.89764 0 0 0 37.79528,0 z"
       style="fill:none;stroke:#ff0000"
       id="path35" />
    <path
       d="m 158.74016,1028.0315 a 18.89764,18.89764 0 0 0 -37.79528,0 18.89764,18.89764 0 0 0 37.79528,0 z"
       style="fill:none;stroke:#ff0000"
       id="path36" />
    <path
       d="m 226.77165,988.75349 a 18.897638,18.897638 0 0 0 -37.79527,0 18.897638,18.897638 0 0 0 37.79527,0 z"
       style="fill:none;stroke:#ff0000"
       id="path37" />
    <path
       d="m 181.41732,910.19601 a 18.897638,18.897638 0 0 0 -37.79527,0 18.897638,18.897638 0 0 0 37.79527,0 z"
       style="fill:none;stroke:#ff0000"
       id="path38" />
    <path
       d="m 113.38583,870.91653 a 18.897639,18.897639 0 0 0 -37.795279,0 18.897639,18.897639 0 0 0 37.795279,0 z"
       style="fill:none;stroke:#ff0000"
       id="path39" />
    <path
       d="m 204.09449,792.35905 a 18.89764,18.89764 0 0 0 -37.79528,0 18.89764,18.89764 0 0 0 37.79528,0 z"
       style="fill:none;stroke:#ff0000"
       id="path40" />
    <path
       d="m 136.06299,831.63853 a 18.897638,18.897638 0 0 0 -37.795273,0 18.897638,18.897638 0 0 0 37.795273,0 z"
       style="fill:none;stroke:#ff0000"
       id="path41" />
    <path
       d="m 158.74016,792.35905 a 18.89764,18.89764 0 0 0 -37.79528,0 18.89764,18.89764 0 0 0 37.79528,0 z"
       style="fill:none;stroke:#ff0000"
       id="path42" />
    <path
       d="m 90.708661,753.08105 a 18.897638,18.897638 0 0 0 -37.795275,0 18.897638,18.897638 0 0 0 37.795275,0 z"
       style="fill:none;stroke:#ff0000"
       id="path43" />
    <path
       d="m 181.41732,753.08105 a 18.897638,18.897638 0 0 0 -37.79527,0 18.897638,18.897638 0 0 0 37.79527,0 z"
       style="fill:none;stroke:#ff0000"
       id="path44" />
    <path
       d="m 226.77165,674.52357 a 18.897638,18.897638 0 0 0 -37.79527,0 18.897638,18.897638 0 0 0 37.79527,0 z"
       style="fill:none;stroke:#ff0000"
       id="path45" />
    <path
       d="m 181.41732,595.96609 a 18.897638,18.897638 0 0 0 -37.79527,0 18.897638,18.897638 0 0 0 37.79527,0 z"
       style="fill:none;stroke:#ff0000"
       id="path46" />
    <path
       d="m 90.708661,595.96609 a 18.897638,18.897638 0 0 0 -37.795275,0 18.897638,18.897638 0 0 0 37.795275,0 z"
       style="fill:none;stroke:#ff0000"
       id="path47" />
    <path
       d="m 90.708661,517.40861 a 18.897638,18.897638 0 0 0 -37.795275,0 18.897638,18.897638 0 0 0 37.795275,0 z"
       style="fill:none;stroke:#ff0000"
       id="path48" />
    <path
       d="m 90.708661,438.85113 a 18.897638,18.897638 0 0 0 -37.795275,0 18.897638,18.897638 0 0 0 37.795275,0 z"
       style="fill:none;stroke:#ff0000"
       id="path49" />
    <path
       d="m 181.41732,438.85113 a 18.897638,18.897638 0 0 0 -37.79527,0 18.897638,18.897638 0 0 0 37.79527,0 z"
       style="fill:none;stroke:#ff0000"
       id="path50" />
    <path
       d="m 249.44882,399.57165 a 18.89764,18.89764 0 0 0 -37.79528,0 18.89764,18.89764 0 0 0 37.79528,0 z"
       style="fill:none;stroke:#ff0000"
       id="path51" />
    <path
       d="m 204.09449,399.57165 a 18.89764,18.89764 0 0 0 -37.79528,0 18.89764,18.89764 0 0 0 37.79528,0 z"
       style="fill:none;stroke:#ff0000"
       id="path52" />
    <path
       d="m 136.06299,438.85113 a 18.897638,18.897638 0 0 0 -37.795273,0 18.897638,18.897638 0 0 0 37.795273,0 z"
       style="fill:none;stroke:#ff0000"
       id="path53" />
    <path
       d="m 113.38583,478.12913 a 18.897639,18.897639 0 0 0 -37.795279,0 18.897639,18.897639 0 0 0 37.795279,0 z"
       style="fill:none;stroke:#ff0000"
       id="path54" />
    <path
       d="m 113.38583,556.68661 a 18.897639,18.897639 0 0 0 -37.795279,0 18.897639,18.897639 0 0 0 37.795279,0 z"
       style="fill:none;stroke:#ff0000"
       id="path55" />
    <path
       d="m 136.06299,595.96609 a 18.897638,18.897638 0 0 0 -37.795273,0 18.897638,18.897638 0 0 0 37.795273,0 z"
       style="fill:none;stroke:#ff0000"
       id="path56" />
    <path
       d="m 204.09449,635.24409 a 18.89764,18.89764 0 0 0 -37.79528,0 18.89764,18.89764 0 0 0 37.79528,0 z"
       style="fill:none;stroke:#ff0000"
       id="path57" />
    <path
       d="m 204.09449,713.80157 a 18.89764,18.89764 0 0 0 -37.79528,0 18.89764,18.89764 0 0 0 37.79528,0 z"
       style="fill:none;stroke:#ff0000"
       id="path58" />
    <path
       d="m 136.06299,753.08105 a 18.897638,18.897638 0 0 0 -37.795273,0 18.897638,18.897638 0 0 0 37.795273,0 z"
       style="fill:none;stroke:#ff0000"
       id="path59" />
    <path
       d="m 113.38583,792.35905 a 18.897639,18.897639 0 0 0 -37.795279,0 18.897639,18.897639 0 0 0 37.795279,0 z"
       style="fill:none;stroke:#ff0000"
       id="path60" />
    <path
       d="m 90.708661,831.63853 a 18.897638,18.897638 0 0 0 -37.795275,0 18.897638,18.897638 0 0 0 37.795275,0 z"
       style="fill:none;stroke:#ff0000"
       id="path61" />
    <path
       d="m 181.41732,831.63853 a 18.897638,18.897638 0 0 0 -37.79527,0 18.897638,18.897638 0 0 0 37.79527,0 z"
       style="fill:none;stroke:#ff0000"
       id="path62" />
    <path
       d="m 90.708661,910.19601 a 18.897638,18.897638 0 0 0 -37.795275,0 18.897638,18.897638 0 0 0 37.795275,0 z"
       style="fill:none;stroke:#ff0000"
       id="path63" />
    <path
       d="m 136.06299,910.19601 a 18.897638,18.897638 0 0 0 -37.795273,0 18.897638,18.897638 0 0 0 37.795273,0 z"
       style="fill:none;stroke:#ff0000"
       id="path64" />
    <path
       d="m 204.09449,949.47402 a 18.89764,18.89764 0 0 0 -37.79528,0 18.89764,18.89764 0 0 0 37.79528,0 z"
       style="fill:none;stroke:#ff0000"
       id="path65" />
    <path
       d="m 204.09449,1028.0315 a 18.89764,18.89764 0 0 0 -37.79528,0 18.89764,18.89764 0 0 0 37.79528,0 z"
       style="fill:none;stroke:#ff0000"
       id="path66" />
    <path
       d="m 113.38583,1028.0315 a 18.897639,18.897639 0 0 0 -37.795279,0 18.897639,18.897639 0 0 0 37.795279,0 z"
       style="fill:none;stroke:#ff0000"
       id="path67" />
    <path
       d="m 272.12598,988.75349 a 18.897638,18.897638 0 0 0 -37.79527,0 18.897638,18.897638 0 0 0 37.79527,0 z"
       style="fill:none;stroke:#ff0000"
       id="path68" />
    <path
       d="m 294.80315,1028.0315 a 18.89764,18.89764 0 0 0 -37.79528,0 18.89764,18.89764 0 0 0 37.79528,0 z"
       style="fill:none;stroke:#ff0000"
       id="path69" />
    <path
       d="m 317.48032,988.75349 a 18.89764,18.89764 0 0 0 -37.79528,0 18.89764,18.89764 0 0 0 37.79528,0 z"
       style="fill:none;stroke:#ff0000"
       id="path70" />
    <path
       d="m 294.80315,949.47402 a 18.89764,18.89764 0 0 0 -37.79528,0 18.89764,18.89764 0 0 0 37.79528,0 z"
       style="fill:none;stroke:#ff0000"
       id="path71" />
    <path
       d="m 226.77165,910.19601 a 18.897638,18.897638 0 0 0 -37.79527,0 18.897638,18.897638 0 0 0 37.79527,0 z"
       style="fill:none;stroke:#ff0000"
       id="path72" />
    <path
       d="m 158.74016,870.91653 a 18.89764,18.89764 0 0 0 -37.79528,0 18.89764,18.89764 0 0 0 37.79528,0 z"
       style="fill:none;stroke:#ff0000"
       id="path73" />
    <path
       d="m 226.77165,831.63853 a 18.897638,18.897638 0 0 0 -37.79527,0 18.897638,18.897638 0 0 0 37.79527,0 z"
       style="fill:none;stroke:#ff0000"
       id="path74" />
    <path
       d="m 294.80315,870.91653 a 18.89764,18.89764 0 0 0 -37.79528,0 18.89764,18.89764 0 0 0 37.79528,0 z"
       style="fill:none;stroke:#ff0000"
       id="path75" />
    <path
       d="m 317.48032,910.19601 a 18.89764,18.89764 0 0 0 -37.79528,0 18.89764,18.89764 0 0 0 37.79528,0 z"
       style="fill:none;stroke:#ff0000"
       id="path76" />
    <path
       d="m 317.48032,831.63853 a 18.89764,18.89764 0 0 0 -37.79528,0 18.89764,18.89764 0 0 0 37.79528,0 z"
       style="fill:none;stroke:#ff0000"
       id="path77" />
    <path
       d="m 294.80315,792.35905 a 18.89764,18.89764 0 0 0 -37.79528,0 18.89764,18.89764 0 0 0 37.79528,0 z"
       style="fill:none;stroke:#ff0000"
       id="path78" />
    <path
       d="m 340.15748,713.80157 a 18.897638,18.897638 0 0 0 -37.79527,0 18.897638,18.897638 0 0 0 37.79527,0 z"
       style="fill:none;stroke:#ff0000"
       id="path79" />
    <path
       d="m 340.15748,635.24409 a 18.897638,18.897638 0 0 0 -37.79527,0 18.897638,18.897638 0 0 0 37.79527,0 z"
       style="fill:none;stroke:#ff0000"
       id="path80" />
    <path
       d="m 340.15748,556.68661 a 18.897638,18.897638 0 0 0 -37.79527,0 18.897638,18.897638 0 0 0 37.79527,0 z"
       style="fill:none;stroke:#ff0000"
       id="path81" />
    <path
       d="m 272.12598,517.40861 a 18.897638,18.897638 0 0 0 -37.79527,0 18.897638,18.897638 0 0 0 37.79527,0 z"
       style="fill:none;stroke:#ff0000"
       id="path82" />
    <path
       d="m 181.41732,517.40861 a 18.897638,18.897638 0 0 0 -37.79527,0 18.897638,18.897638 0 0 0 37.79527,0 z"
       style="fill:none;stroke:#ff0000"
       id="path83" />
    <path
       d="m 158.74016,556.68661 a 18.89764,18.89764 0 0 0 -37.79528,0 18.89764,18.89764 0 0 0 37.79528,0 z"
       style="fill:none;stroke:#ff0000"
       id="path84" />
    <path
       d="m 249.44882,556.68661 a 18.89764,18.89764 0 0 0 -37.79528,0 18.89764,18.89764 0 0 0 37.79528,0 z"
       style="fill:none;stroke:#ff0000"
       id="path85" />
    <path
       d="m 249.44882,635.24409 a 18.89764,18.89764 0 0 0 -37.79528,0 18.89764,18.89764 0 0 0 37.79528,0 z"
       style="fill:none;stroke:#ff0000"
       id="path86" />
    <path
       d="m 226.77165,753.08105 a 18.897638,18.897638 0 0 0 -37.79527,0 18.897638,18.897638 0 0 0 37.79527,0 z"
       style="fill:none;stroke:#ff0000"
       id="path87" />
    <path
       d="m 294.80315,713.80157 a 18.89764,18.89764 0 0 0 -37.79528,0 18.89764,18.89764 0 0 0 37.79528,0 z"
       style="fill:none;stroke:#ff0000"
       id="path88" />
    <path
       d="m 294.80315,635.24409 a 18.89764,18.89764 0 0 0 -37.79528,0 18.89764,18.89764 0 0 0 37.79528,0 z"
       style="fill:none;stroke:#ff0000"
       id="path89" />
    <path
       d="m 294.80315,556.68661 a 18.89764,18.89764 0 0 0 -37.79528,0 18.89764,18.89764 0 0 0 37.79528,0 z"
       style="fill:none;stroke:#ff0000"
       id="path90" />
    <path
       d="m 317.48032,438.85113 a 18.89764,18.89764 0 0 0 -37.79528,0 18.89764,18.89764 0 0 0 37.79528,0 z"
       style="fill:none;stroke:#ff0000"
       id="path91" />
    <path
       d="m 294.80315,399.57165 a 18.89764,18.89764 0 0 0 -37.79528,0 18.89764,18.89764 0 0 0 37.79528,0 z"
       style="fill:none;stroke:#ff0000"
       id="path92" />
    <path
       d="m 226.77165,438.85113 a 18.897638,18.897638 0 0 0 -37.79527,0 18.897638,18.897638 0 0 0 37.79527,0 z"
       style="fill:none;stroke:#ff0000"
       id="path93" />
    <path
       d="m 204.09449,478.12913 a 18.89764,18.89764 0 0 0 -37.79528,0 18.89764,18.89764 0 0 0 37.79528,0 z"
       style="fill:none;stroke:#ff0000"
       id="path94" />
    <path
       d="m 294.80315,478.12913 a 18.89764,18.89764 0 0 0 -37.79528,0 18.89764,18.89764 0 0 0 37.79528,0 z"
       style="fill:none;stroke:#ff0000"
       id="path95" />
  </g>
</svg>
