<?xml version="1.0" encoding="UTF-8" standalone="no"?>
<svg
   viewBox="0 0 797.48036 797.48028"
   width="211.00002mm"
   height="210.99998mm"
   version="1.1"
   id="svg179"
   sodipodi:docname="right_side_pcb.svg"
   inkscape:version="1.3.2 (091e20e, 2023-11-25, custom)"
   xmlns:inkscape="http://www.inkscape.org/namespaces/inkscape"
   xmlns:sodipodi="http://sodipodi.sourceforge.net/DTD/sodipodi-0.dtd"
   xmlns="http://www.w3.org/2000/svg"
   xmlns:svg="http://www.w3.org/2000/svg">
  <sodipodi:namedview
     id="namedview179"
     pagecolor="#ffffff"
     bordercolor="#666666"
     borderopacity="1.0"
     inkscape:showpageshadow="2"
     inkscape:pageopacity="0.0"
     inkscape:pagecheckerboard="0"
     inkscape:deskcolor="#d1d1d1"
     inkscape:zoom="0.64052331"
     inkscape:cx="795.44334"
     inkscape:cy="469.14764"
     inkscape:window-width="1876"
     inkscape:window-height="915"
     inkscape:window-x="-8"
     inkscape:window-y="-8"
     inkscape:window-maximized="1"
     inkscape:current-layer="g179"
     inkscape:document-units="mm" />
  <desc
     id="desc1">right_side_pcb.dxf - scale = 1.000000, origin = (0.000000, 0.000000), method = manual</desc>
  <defs
     id="defs4">
    <marker
       id="DistanceX"
       orient="auto"
       refX="0"
       refY="0"
       style="overflow:visible">
      <path
         d="M 3,-3 -3,3 M 0,-5 V 5"
         style="stroke:#000000;stroke-width:0.5"
         id="path1" />
    </marker>
    <pattern
       id="Hatch"
       patternUnits="userSpaceOnUse"
       width="8"
       height="8"
       x="0"
       y="0">
      <path
         d="M8 4 l-4,4"
         stroke="#000000"
         stroke-width="0.25"
         linecap="square"
         id="path2" />
      <path
         d="M6 2 l-4,4"
         stroke="#000000"
         stroke-width="0.25"
         linecap="square"
         id="path3" />
      <path
         d="M4 0 l-4,4"
         stroke="#000000"
         stroke-width="0.25"
         linecap="square"
         id="path4" />
    </pattern>
    <symbol
       id="*MODEL_SPACE" />
    <symbol
       id="*PAPER_SPACE" />
  </defs>
  <g
     inkscape:groupmode="layer"
     inkscape:label="0"
     id="g179"
     transform="translate(398.74016,-308.0315)">
    <path
       d="m -7.181102,1017.0709 a 3.401575,3.401575 0 0 1 6.803149,0 3.401575,3.401575 0 0 1 -6.803149,0 z"
       style="fill:none;stroke:#ff0000"
       id="path5" />
    <path
       d="m -324.66142,1017.0709 a 3.401575,3.401575 0 0 1 6.80315,0 3.401575,3.401575 0 0 1 -6.80315,0 z"
       style="fill:none;stroke:#ff0000"
       id="path6" />
    <path
       d="m -39.874016,578.64567 a 3.401575,3.401575 0 0 1 6.80315,0 3.401575,3.401575 0 0 1 -6.80315,0 z"
       style="fill:none;stroke:#ff0000"
       id="path7" />
    <path
       d="m -316.61601,571.54515 a 3.401575,3.401575 0 0 1 6.80315,0 3.401575,3.401575 0 0 1 -6.80315,0 z"
       style="fill:none;stroke:#ff0000"
       id="path8" />
    <path
       d="m -340.72441,477.35433 a 3.401575,3.401575 0 0 1 6.80315,0 3.401575,3.401575 0 0 1 -6.80315,0 z"
       style="fill:none;stroke:#ff0000"
       id="path9" />
    <path
       d="m -165.92126,1017.0709 a 3.401575,3.401575 0 0 1 6.80315,0 3.401575,3.401575 0 0 1 -6.80315,0 z"
       style="fill:none;stroke:#ff0000"
       id="path10" />
    <path
       d="m -39.874016,400.62992 a 3.401575,3.401575 0 0 1 6.80315,0 3.401575,3.401575 0 0 1 -6.80315,0 z"
       style="fill:none;stroke:#ff0000"
       id="path11" />
    <path
       d="m -293.85827,548.7874 a 3.401575,3.401575 0 0 1 6.80315,0 3.401575,3.401575 0 0 1 -6.80315,0 z"
       style="fill:none;stroke:#ff0000"
       id="path12" />
    <path
       d="m -39.874016,548.7874 a 3.401575,3.401575 0 0 1 6.80315,0 3.401575,3.401575 0 0 1 -6.80315,0 z"
       style="fill:none;stroke:#ff0000"
       id="path13" />
    <path
       d="M -272.12598,539.71654 H -52.913386 V 424.44094 H -272.12598 Z"
       style="fill:none;stroke:#ff0000"
       id="path14" />
    <path
       d="m -293.85827,400.62992 a 3.401575,3.401575 0 0 1 6.80315,0 3.401575,3.401575 0 0 1 -6.80315,0 z"
       style="fill:none;stroke:#ff0000"
       id="path15" />
    <path
       d="m -108.09449,682.58268 a 9.070867,9.070867 0 0 1 18.141734,0 9.070867,9.070867 0 0 1 -18.141734,0 z"
       style="fill:none;stroke:#ff0000"
       id="path16" />
    <path
       d="m -235.08661,682.58268 a 9.070866,9.070866 0 0 1 18.14173,0 9.070866,9.070866 0 0 1 -18.14173,0 z"
       style="fill:none;stroke:#ff0000"
       id="path17" />
    <path
       d="m -298.58268,807.30709 a 9.07087,9.07087 0 0 1 18.14174,0 9.07087,9.07087 0 0 1 -18.14174,0 z"
       style="fill:none;stroke:#ff0000"
       id="path18" />
    <path
       d="m -44.598425,807.30709 a 9.070866,9.070866 0 0 1 18.141732,0 9.070866,9.070866 0 0 1 -18.141732,0 z"
       style="fill:none;stroke:#ff0000"
       id="path19" />
    <path
       d="m -171.59055,807.30709 a 9.070866,9.070866 0 0 1 18.14173,0 9.070866,9.070866 0 0 1 -18.14173,0 z"
       style="fill:none;stroke:#ff0000"
       id="path20" />
    <path
       d="m -108.09449,954.70866 a 9.070867,9.070867 0 0 1 18.141734,0 9.070867,9.070867 0 0 1 -18.141734,0 z"
       style="fill:none;stroke:#ff0000"
       id="path21" />
    <path
       d="m -235.08661,954.70866 a 9.070866,9.070866 0 0 1 18.14173,0 9.070866,9.070866 0 0 1 -18.14173,0 z"
       style="fill:none;stroke:#ff0000"
       id="path22" />
    <path
       d="m -108.09449,818.64567 a 9.070867,9.070867 0 0 1 18.141734,0 9.070867,9.070867 0 0 1 -18.141734,0 z"
       style="fill:none;stroke:#ff0000"
       id="path23" />
    <path
       d="m -235.08661,818.64567 a 9.070866,9.070866 0 0 1 18.14173,0 9.070866,9.070866 0 0 1 -18.14173,0 z"
       style="fill:none;stroke:#ff0000"
       id="path24" />
    <path
       d="m -298.58268,671.24409 a 9.07087,9.07087 0 0 1 18.14174,0 9.07087,9.07087 0 0 1 -18.14174,0 z"
       style="fill:none;stroke:#ff0000"
       id="path25" />
    <path
       d="m -171.59055,671.24409 a 9.070866,9.070866 0 0 1 18.14173,0 9.070866,9.070866 0 0 1 -18.14173,0 z"
       style="fill:none;stroke:#ff0000"
       id="path26" />
    <path
       d="m -44.598425,671.24409 a 9.070866,9.070866 0 0 1 18.141732,0 9.070866,9.070866 0 0 1 -18.141732,0 z"
       style="fill:none;stroke:#ff0000"
       id="path27" />
    <path
       d="m -296.69291,835.65354 a 7.181102,7.181102 0 0 1 14.3622,0 7.181102,7.181102 0 0 1 -14.3622,0 z"
       style="fill:none;stroke:#ff0000"
       id="path28" />
    <path
       d="m -169.70079,835.65354 a 7.181105,7.181105 0 0 1 14.36221,0 7.181105,7.181105 0 0 1 -14.36221,0 z"
       style="fill:none;stroke:#ff0000"
       id="path29" />
    <path
       d="m -106.20472,983.05512 a 7.181102,7.181102 0 0 1 14.3622,0 7.181102,7.181102 0 0 1 -14.3622,0 z"
       style="fill:none;stroke:#ff0000"
       id="path30" />
    <path
       d="m -296.69291,699.59055 a 7.181102,7.181102 0 0 1 14.3622,0 7.181102,7.181102 0 0 1 -14.3622,0 z"
       style="fill:none;stroke:#ff0000"
       id="path31" />
    <path
       d="m -169.70079,699.59055 a 7.181105,7.181105 0 0 1 14.36221,0 7.181105,7.181105 0 0 1 -14.36221,0 z"
       style="fill:none;stroke:#ff0000"
       id="path32" />
    <path
       d="m -42.708661,699.59055 a 7.181102,7.181102 0 0 1 14.362204,0 7.181102,7.181102 0 0 1 -14.362204,0 z"
       style="fill:none;stroke:#ff0000"
       id="path33" />
    <path
       d="m -142.77165,578.64567 a 7.1811025,7.1811025 0 0 1 14.3622,0 7.1811025,7.1811025 0 0 1 -14.3622,0 z"
       style="fill:none;stroke:#ff0000"
       id="path34" />
    <path
       d="m -250.48819,578.64567 a 7.181105,7.181105 0 0 1 14.36221,0 7.181105,7.181105 0 0 1 -14.36221,0 z"
       style="fill:none;stroke:#ff0000"
       id="path35" />
    <path
       d="m -327.49606,509.95276 a 7.1811025,7.1811025 0 0 1 14.3622,0 7.1811025,7.1811025 0 0 1 -14.3622,0 z"
       style="fill:none;stroke:#ff0000"
       id="path36" />
    <path
       d="m -196.62992,578.64567 a 7.181102,7.181102 0 0 1 14.3622,0 7.181102,7.181102 0 0 1 -14.3622,0 z"
       style="fill:none;stroke:#ff0000"
       id="path37" />
    <path
       d="m -88.913386,578.64567 a 7.1811025,7.1811025 0 0 1 14.362205,0 7.1811025,7.1811025 0 0 1 -14.362205,0 z"
       style="fill:none;stroke:#ff0000"
       id="path38" />
    <path
       d="m -106.20472,710.92913 a 7.181102,7.181102 0 0 1 14.3622,0 7.181102,7.181102 0 0 1 -14.3622,0 z"
       style="fill:none;stroke:#ff0000"
       id="path39" />
    <path
       d="m -233.19685,710.92913 a 7.181102,7.181102 0 0 1 14.3622,0 7.181102,7.181102 0 0 1 -14.3622,0 z"
       style="fill:none;stroke:#ff0000"
       id="path40" />
    <path
       d="m -233.19685,983.05512 a 7.181102,7.181102 0 0 1 14.3622,0 7.181102,7.181102 0 0 1 -14.3622,0 z"
       style="fill:none;stroke:#ff0000"
       id="path41" />
    <path
       d="m -106.20472,846.99213 a 7.181102,7.181102 0 0 1 14.3622,0 7.181102,7.181102 0 0 1 -14.3622,0 z"
       style="fill:none;stroke:#ff0000"
       id="path42" />
    <path
       d="m -233.19685,846.99213 a 7.181102,7.181102 0 0 1 14.3622,0 7.181102,7.181102 0 0 1 -14.3622,0 z"
       style="fill:none;stroke:#ff0000"
       id="path43" />
    <path
       d="m -42.708661,835.65354 a 7.181102,7.181102 0 0 1 14.362204,0 7.181102,7.181102 0 0 1 -14.362204,0 z"
       style="fill:none;stroke:#ff0000"
       id="path44" />
    <path
       d="m -165.92126,733.6063 a 3.401575,3.401575 0 0 1 6.80315,0 3.401575,3.401575 0 0 1 -6.80315,0 z"
       style="fill:none;stroke:#ff0000"
       id="path137" />
    <path
       d="m -324.66142,869.66929 a 3.401575,3.401575 0 0 1 6.80315,0 3.401575,3.401575 0 0 1 -6.80315,0 z"
       style="fill:none;stroke:#ff0000"
       id="path138" />
    <path
       d="m -7.181102,869.66929 a 3.401575,3.401575 0 0 1 6.803149,0 3.401575,3.401575 0 0 1 -6.803149,0 z"
       style="fill:none;stroke:#ff0000"
       id="path139" />
    <path
       d="m -165.92126,869.66929 a 3.401575,3.401575 0 0 1 6.80315,0 3.401575,3.401575 0 0 1 -6.80315,0 z"
       style="fill:none;stroke:#ff0000"
       id="path140" />
    <path
       d="m -324.66142,733.6063 a 3.401575,3.401575 0 0 1 6.80315,0 3.401575,3.401575 0 0 1 -6.80315,0 z"
       style="fill:none;stroke:#ff0000"
       id="path141" />
    <path
       d="m -7.181102,733.6063 a 3.401575,3.401575 0 0 1 6.803149,0 3.401575,3.401575 0 0 1 -6.803149,0 z"
       style="fill:none;stroke:#ff0000"
       id="path142" />
    <path
       d="m -316.61601,571.54515 a 3.401575,3.401575 0 0 1 6.80315,0 3.401575,3.401575 0 0 1 -6.80315,0 z"
       style="fill:none;stroke:#ff0000"
       id="path143" />
    <path
       d="m -340.72441,477.35433 a 3.401575,3.401575 0 0 1 6.80315,0 3.401575,3.401575 0 0 1 -6.80315,0 z"
       style="fill:none;stroke:#ff0000"
       id="path144" />
    <path
       d="m -39.874016,578.64567 a 3.401575,3.401575 0 0 1 6.80315,0 3.401575,3.401575 0 0 1 -6.80315,0 z"
       style="fill:none;stroke:#ff0000"
       id="path145" />
    <path
       d="m -165.92126,1017.0709 a 3.401575,3.401575 0 0 1 6.80315,0 3.401575,3.401575 0 0 1 -6.80315,0 z"
       style="fill:none;stroke:#ff0000"
       id="path146" />
    <path
       d="m -7.181102,1017.0709 a 3.401575,3.401575 0 0 1 6.803149,0 3.401575,3.401575 0 0 1 -6.803149,0 z"
       style="fill:none;stroke:#ff0000"
       id="path147" />
    <path
       d="m -324.66142,1017.0709 a 3.401575,3.401575 0 0 1 6.80315,0 3.401575,3.401575 0 0 1 -6.80315,0 z"
       style="fill:none;stroke:#ff0000"
       id="path148" />
    <path
       d="m -327.49606,509.95276 a 7.1811025,7.1811025 0 0 1 14.3622,0 7.1811025,7.1811025 0 0 1 -14.3622,0 z"
       style="fill:none;stroke:#ff0000"
       id="path149" />
    <path
       d="m -250.48819,578.64567 a 7.181105,7.181105 0 0 1 14.36221,0 7.181105,7.181105 0 0 1 -14.36221,0 z"
       style="fill:none;stroke:#ff0000"
       id="path150" />
    <path
       d="m -196.62992,578.64567 a 7.181102,7.181102 0 0 1 14.3622,0 7.181102,7.181102 0 0 1 -14.3622,0 z"
       style="fill:none;stroke:#ff0000"
       id="path151" />
    <path
       d="m -88.913386,578.64567 a 7.1811025,7.1811025 0 0 1 14.362205,0 7.1811025,7.1811025 0 0 1 -14.362205,0 z"
       style="fill:none;stroke:#ff0000"
       id="path152" />
    <path
       d="m -142.77165,578.64567 a 7.1811025,7.1811025 0 0 1 14.3622,0 7.1811025,7.1811025 0 0 1 -14.3622,0 z"
       style="fill:none;stroke:#ff0000"
       id="path153" />
    <path
       d="m -233.19685,983.05512 a 7.181102,7.181102 0 0 1 14.3622,0 7.181102,7.181102 0 0 1 -14.3622,0 z"
       style="fill:none;stroke:#ff0000"
       id="path154" />
    <path
       d="m -235.08661,954.70866 a 9.070866,9.070866 0 0 1 18.14173,0 9.070866,9.070866 0 0 1 -18.14173,0 z"
       style="fill:none;stroke:#ff0000"
       id="path155" />
    <path
       d="m -108.09449,954.70866 a 9.070867,9.070867 0 0 1 18.141734,0 9.070867,9.070867 0 0 1 -18.141734,0 z"
       style="fill:none;stroke:#ff0000"
       id="path156" />
    <path
       d="m -106.20472,983.05512 a 7.181102,7.181102 0 0 1 14.3622,0 7.181102,7.181102 0 0 1 -14.3622,0 z"
       style="fill:none;stroke:#ff0000"
       id="path157" />
    <path
       d="m -106.20472,846.99213 a 7.181102,7.181102 0 0 1 14.3622,0 7.181102,7.181102 0 0 1 -14.3622,0 z"
       style="fill:none;stroke:#ff0000"
       id="path158" />
    <path
       d="m -108.09449,818.64567 a 9.070867,9.070867 0 0 1 18.141734,0 9.070867,9.070867 0 0 1 -18.141734,0 z"
       style="fill:none;stroke:#ff0000"
       id="path159" />
    <path
       d="m -44.598425,807.30709 a 9.070866,9.070866 0 0 1 18.141732,0 9.070866,9.070866 0 0 1 -18.141732,0 z"
       style="fill:none;stroke:#ff0000"
       id="path160" />
    <path
       d="m -42.708661,835.65354 a 7.181102,7.181102 0 0 1 14.362204,0 7.181102,7.181102 0 0 1 -14.362204,0 z"
       style="fill:none;stroke:#ff0000"
       id="path161" />
    <path
       d="m -171.59055,807.30709 a 9.070866,9.070866 0 0 1 18.14173,0 9.070866,9.070866 0 0 1 -18.14173,0 z"
       style="fill:none;stroke:#ff0000"
       id="path162" />
    <path
       d="m -169.70079,835.65354 a 7.181105,7.181105 0 0 1 14.36221,0 7.181105,7.181105 0 0 1 -14.36221,0 z"
       style="fill:none;stroke:#ff0000"
       id="path163" />
    <path
       d="m -233.19685,846.99213 a 7.181102,7.181102 0 0 1 14.3622,0 7.181102,7.181102 0 0 1 -14.3622,0 z"
       style="fill:none;stroke:#ff0000"
       id="path164" />
    <path
       d="m -235.08661,818.64567 a 9.070866,9.070866 0 0 1 18.14173,0 9.070866,9.070866 0 0 1 -18.14173,0 z"
       style="fill:none;stroke:#ff0000"
       id="path165" />
    <path
       d="m -298.58268,807.30709 a 9.07087,9.07087 0 0 1 18.14174,0 9.07087,9.07087 0 0 1 -18.14174,0 z"
       style="fill:none;stroke:#ff0000"
       id="path166" />
    <path
       d="m -296.69291,835.65354 a 7.181102,7.181102 0 0 1 14.3622,0 7.181102,7.181102 0 0 1 -14.3622,0 z"
       style="fill:none;stroke:#ff0000"
       id="path167" />
    <path
       d="m -298.58268,671.24409 a 9.07087,9.07087 0 0 1 18.14174,0 9.07087,9.07087 0 0 1 -18.14174,0 z"
       style="fill:none;stroke:#ff0000"
       id="path168" />
    <path
       d="m -296.69291,699.59055 a 7.181102,7.181102 0 0 1 14.3622,0 7.181102,7.181102 0 0 1 -14.3622,0 z"
       style="fill:none;stroke:#ff0000"
       id="path169" />
    <path
       d="m -235.08661,682.58268 a 9.070866,9.070866 0 0 1 18.14173,0 9.070866,9.070866 0 0 1 -18.14173,0 z"
       style="fill:none;stroke:#ff0000"
       id="path170" />
    <path
       d="m -233.19685,710.92913 a 7.181102,7.181102 0 0 1 14.3622,0 7.181102,7.181102 0 0 1 -14.3622,0 z"
       style="fill:none;stroke:#ff0000"
       id="path171" />
    <path
       d="m -169.70079,699.59055 a 7.181105,7.181105 0 0 1 14.36221,0 7.181105,7.181105 0 0 1 -14.36221,0 z"
       style="fill:none;stroke:#ff0000"
       id="path172" />
    <path
       d="m -171.59055,671.24409 a 9.070866,9.070866 0 0 1 18.14173,0 9.070866,9.070866 0 0 1 -18.14173,0 z"
       style="fill:none;stroke:#ff0000"
       id="path173" />
    <path
       d="m -108.09449,682.58268 a 9.070867,9.070867 0 0 1 18.141734,0 9.070867,9.070867 0 0 1 -18.141734,0 z"
       style="fill:none;stroke:#ff0000"
       id="path174" />
    <path
       d="m -106.20472,710.92913 a 7.181102,7.181102 0 0 1 14.3622,0 7.181102,7.181102 0 0 1 -14.3622,0 z"
       style="fill:none;stroke:#ff0000"
       id="path175" />
    <path
       d="m -42.708661,699.59055 a 7.181102,7.181102 0 0 1 14.362204,0 7.181102,7.181102 0 0 1 -14.362204,0 z"
       style="fill:none;stroke:#ff0000"
       id="path176" />
    <path
       d="m -44.598425,671.24409 a 9.070866,9.070866 0 0 1 18.141732,0 9.070866,9.070866 0 0 1 -18.141732,0 z"
       style="fill:none;stroke:#ff0000"
       id="path177" />
    <path
       d="m -165.92126,599.43307 a 3.401575,3.401575 0 0 1 6.80315,0 3.401575,3.401575 0 0 1 -6.80315,0 z"
       style="fill:none;stroke:#ff0000"
       id="path179" />
  </g>
</svg>
