0
SECTION
2
HEADER
9
$INSUNITS
70
4
9
$ACADVER
1
AC1014
9
$HANDSEED
5
FFFF
0
ENDSEC
0
SECTION
2
TABLES
0
TABLE
2
VPORT
5
8
100
AcDbSymbolTable
0
ENDTAB
0
TABLE
2
LTYPE
5
5
100
AcDbSymbolTable
0
LTYPE
5
14
100
AcDbSymbolTableRecord
100
AcDbLinetypeTableRecord
2
BYBLOCK
70
0
0
LTYPE
5
15
100
AcDbSymbolTableRecord
100
AcDbLinetypeTableRecord
2
BYLAYER
70
0
0
ENDTAB
0
TABLE
2
LAYER
5
2
100
AcDbSymbolTable
70
2
0
LAYER
5
50
100
AcDbSymbolTableRecord
100
AcDbLayerTableRecord
2
0
70
0
6
CONTINUOUS
0
ENDTAB
0
TABLE
2
STYLE
5
3
100
AcDbSymbolTable
70
1
0
STYLE
5
11
100
AcDbSymbolTableRecord
100
AcDbTextStyleTableRecord
2
STANDARD
70
0
0
ENDTAB
0
TABLE
2
VIEW
5
6
100
AcDbSymbolTable
70
0
0
ENDTAB
0
TABLE
2
UCS
5
7
100
AcDbSymbolTable
70
0
0
ENDTAB
0
TABLE
2
APPID
5
9
100
AcDbSymbolTable
70
2
0
APPID
5
12
100
AcDbSymbolTableRecord
100
AcDbRegAppTableRecord
2
ACAD
70
0
0
ENDTAB
0
TABLE
2
DIMSTYLE
5
A
100
AcDbSymbolTable
70
1
0
ENDTAB
0
TABLE
2
BLOCK_RECORD
5
1
100
AcDbSymbolTable
70
1
0
BLOCK_RECORD
5
1F
100
AcDbSymbolTableRecord
100
AcDbBlockTableRecord
2
*MODEL_SPACE
0
BLOCK_RECORD
5
1B
100
AcDbSymbolTableRecord
100
AcDbBlockTableRecord
2
*PAPER_SPACE
0
ENDTAB
0
ENDSEC
0
SECTION
2
BLOCKS
0
BLOCK
5
20
100
AcDbEntity
100
AcDbBlockBegin
2
*MODEL_SPACE
0
ENDBLK
5
21
100
AcDbEntity
100
AcDbBlockEnd
0
BLOCK
5
1C
100
AcDbEntity
100
AcDbBlockBegin
2
*PAPER_SPACE
0
ENDBLK
5
1D
100
AcDbEntity
100
AcDbBlockEnd
0
ENDSEC
0
SECTION
2
ENTITIES
0
LWPOLYLINE
5
100
100
AcDbEntity
8
0
100
AcDbPolyline
90
4
70
1
43
0.0
10
-120.00000000000001
20
10
10
120.00000000000001
20
10
10
120.00000000000001
20
-10
10
-120.00000000000001
20
-10
0
LINE
5
101
100
AcDbEntity
8
0
100
AcDbLine
10
-120.00000000000001
20
10
30
0
11
120.00000000000001
21
-10
31
0
0
LINE
5
102
100
AcDbEntity
8
0
100
AcDbLine
10
120.00000000000001
20
10
30
0
11
-120.00000000000001
21
-10
31
0
0
LINE
5
103
100
AcDbEntity
8
0
100
AcDbLine
10
120.00000000000001
20
10
30
0
11
120.00000000000006
21
230
31
0
0
LINE
5
104
100
AcDbEntity
8
0
100
AcDbLine
10
120.00000000000006
20
230
30
0
11
-120.00000000000001
21
230
31
0
0
LINE
5
105
100
AcDbEntity
8
0
100
AcDbLine
10
-120.00000000000001
20
230
30
0
11
-120.00000000000001
21
10
31
0
0
LWPOLYLINE
5
106
100
AcDbEntity
8
0
100
AcDbPolyline
90
12
70
1
43
0.0
10
-105.49999999999996
20
215.49999999999994
10
105.49999999999997
20
215.49999999999994
10
105.49999999999997
20
209.99999999999994
10
99.999999999999972
20
209.99999999999994
10
-99.999999999999972
20
209.99999999999994
10
-99.999999999999972
20
10
10
99.999999999999972
20
10
10
99.999999999999972
20
209.99999999999994
10
99.999999999999972
20
215.49999999999994
10
105.49999999999997
20
215.49999999999994
10
105.49999999999996
20
4.5000000000000089
10
-105.49999999999996
20
4.4999999999999902
0
LWPOLYLINE
5
107
100
AcDbEntity
8
0
100
AcDbPolyline
90
4
70
1
43
0.0
10
-105.49999999999996
20
215.49999999999994
10
-120.00000000000001
20
215.49999999999994
10
-120.00000000000001
20
230
10
-105.49999999999996
20
230
0
LWPOLYLINE
5
108
100
AcDbEntity
8
0
100
AcDbPolyline
90
12
70
1
43
0.0
10
10.000000000000055
20
95
10
90.000000000000057
20
95
10
85.750000000000057
20
95.000000000000014
10
85.750000000000057
20
90.750000000000014
10
90.000000000000057
20
90.750000000000014
10
90.000000000000057
20
95
10
90.000000000000057
20
14.99999999999995
10
85.750000000000057
20
15.000000000000018
10
85.750000000000057
20
19.250000000000018
10
90.000000000000057
20
19.250000000000018
10
90.000000000000057
20
14.99999999999995
10
10.000000000000055
20
15.000000000000009
0
LWPOLYLINE
5
109
100
AcDbEntity
8
0
100
AcDbPolyline
90
12
70
1
43
0.0
10
10.000000000000053
20
192.50000000000003
10
90.000000000000057
20
192.50000000000003
10
85.750000000000043
20
192.50000000000003
10
85.750000000000043
20
188.25000000000003
10
90.000000000000057
20
188.25000000000003
10
90.000000000000057
20
192.50000000000003
10
90.000000000000057
20
112.5
10
85.750000000000057
20
112.5
10
85.750000000000057
20
116.75
10
90.000000000000057
20
116.75
10
90.000000000000057
20
112.5
10
10.000000000000053
20
112.5
0
LINE
5
110
100
AcDbEntity
8
0
100
AcDbLine
10
90.000000000000057
20
192.50000000000003
30
0
11
90.000000000000071
21
210.00000000000003
31
0
0
LINE
5
111
100
AcDbEntity
8
0
100
AcDbLine
10
90.000000000000057
20
95
30
0
11
90.000000000000057
21
112.5
31
0
0
LWPOLYLINE
5
112
100
AcDbEntity
8
0
100
AcDbPolyline
90
4
70
1
43
0.0
10
10.000000000000055
20
95
10
14.25000000000006
20
95.000000000000014
10
14.250000000000064
20
90.750000000000014
10
10.000000000000064
20
90.750000000000028
0
LWPOLYLINE
5
113
100
AcDbEntity
8
0
100
AcDbPolyline
90
4
70
1
43
0.0
10
10.000000000000055
20
15.000000000000009
10
14.250000000000057
20
15
10
14.250000000000057
20
19.25
10
10.000000000000055
20
19.25
0
LWPOLYLINE
5
114
100
AcDbEntity
8
0
100
AcDbPolyline
90
4
70
1
43
0.0
10
10.000000000000053
20
192.50000000000003
10
14.250000000000053
20
192.50000000000003
10
14.250000000000053
20
188.25000000000003
10
10.000000000000053
20
188.25000000000003
0
LWPOLYLINE
5
115
100
AcDbEntity
8
0
100
AcDbPolyline
90
4
70
1
43
0.0
10
10.000000000000053
20
112.5
10
14.250000000000053
20
112.5
10
14.250000000000053
20
116.75
10
10.000000000000053
20
116.75
0
LINE
5
116
100
AcDbEntity
8
0
100
AcDbLine
10
90.000000000000057
20
14.99999999999995
30
0
11
90.000000000000028
21
9.9999999999999574
31
0
0
LINE
5
117
100
AcDbEntity
8
0
100
AcDbLine
10
14.250000000000057
20
19.25
30
0
11
85.750000000000057
21
90.750000000000014
31
0
0
CIRCLE
5
118
100
AcDbEntity
8
0
100
AcDbCircle
10
50.000000000000057
20
55.000000000000007
30
0
40
46.600000000000001
210
0
220
0
230
1
0
LWPOLYLINE
5
119
100
AcDbEntity
8
0
100
AcDbPolyline
90
3
70
1
43
0.0
10
55.714285714285765
20
51.700855604630725
10
50.000000000000057
20
61.5982887907386
10
44.285714285714334
20
51.700855604630718
0
LINE
5
120
100
AcDbEntity
8
0
100
AcDbLine
10
50.000000000000057
20
61.5982887907386
30
0
11
30.715513041938859
21
95
31
0
0
LINE
5
121
100
AcDbEntity
8
0
100
AcDbLine
10
55.714285714285765
20
51.700855604630725
30
0
11
76.903534577108914
21
14.999999999999961
31
0
0
LINE
5
122
100
AcDbEntity
8
0
100
AcDbLine
10
44.285714285714334
20
51.700855604630718
30
0
11
10.000000000000055
21
51.700855604630718
31
0
0
LINE
5
123
100
AcDbEntity
8
0
100
AcDbLine
10
55.714285714285765
20
51.700855604630725
30
0
11
90.000000000000057
21
51.700855604630725
31
0
0
LINE
5
124
100
AcDbEntity
8
0
100
AcDbLine
10
42.144513041938851
20
95
30
0
11
90.000000000000057
21
12.111865167688174
31
0
0
LINE
5
125
100
AcDbEntity
8
0
100
AcDbLine
10
53.573513041938639
20
95
30
0
11
90.000000000000057
21
31.907473847392911
31
0
0
LINE
5
126
100
AcDbEntity
8
0
100
AcDbLine
10
90.001285714285757
20
51.700855604630725
30
0
11
65.002513041938826
21
95
31
0
0
LINE
5
127
100
AcDbEntity
8
0
100
AcDbLine
10
90.000000000000057
20
71.498691206802292
30
0
11
76.431513041938828
21
95
31
0
0
LINE
5
128
100
AcDbEntity
8
0
100
AcDbLine
10
19.286941613367429
20
95
30
0
11
65.474963148537469
21
14.999999999999966
31
0
0
LINE
5
129
100
AcDbEntity
8
0
100
AcDbLine
10
54.045963148537467
20
14.999999999999975
30
0
11
10.000000000000055
21
91.289846041573256
31
0
0
LINE
5
130
100
AcDbEntity
8
0
100
AcDbLine
10
42.616963148537444
20
14.999999999999984
30
0
11
10.000000000000055
21
71.494237361868556
31
0
0
LINE
5
131
100
AcDbEntity
8
0
100
AcDbLine
10
9.9987142857143319
20
51.700855604630718
30
0
11
31.187963148537442
21
14.999999999999993
31
0
0
LINE
5
132
100
AcDbEntity
8
0
100
AcDbLine
10
44.285714285714334
20
51.700855604630718
30
0
11
23.096465422891129
21
15
31
0
0
LINE
5
133
100
AcDbEntity
8
0
100
AcDbLine
10
50.000000000000057
20
61.5982887907386
30
0
11
69.284486958061308
21
95
31
0
0
LINE
5
134
100
AcDbEntity
8
0
100
AcDbLine
10
57.855486958061384
20
95
30
0
11
11.667465422891123
21
15.000000000000007
31
0
0
LINE
5
135
100
AcDbEntity
8
0
100
AcDbLine
10
10.000000000000055
20
31.907473847393007
30
0
11
46.426486958061389
21
95
31
0
0
LINE
5
136
100
AcDbEntity
8
0
100
AcDbLine
10
9.9987142857143319
20
51.700855604630718
30
0
11
34.997486958061359
21
95
31
0
0
LINE
5
137
100
AcDbEntity
8
0
100
AcDbLine
10
34.525036851462545
20
14.999999999999991
30
0
11
80.713058386632767
21
95
31
0
0
LINE
5
138
100
AcDbEntity
8
0
100
AcDbLine
10
45.954036851462547
20
14.999999999999982
30
0
11
90.000000000000057
21
91.289846041573355
31
0
0
LINE
5
139
100
AcDbEntity
8
0
100
AcDbLine
10
57.383036851465299
20
14.999999999999975
30
0
11
90.000000000000057
21
71.4942373618711
31
0
0
LINE
5
140
100
AcDbEntity
8
0
100
AcDbLine
10
90.001285714285757
20
51.700855604630725
30
0
11
68.812036851462508
21
14.999999999999966
31
0
0
LINE
5
141
100
AcDbEntity
8
0
100
AcDbLine
10
10.000000000000055
20
61.598659944483728
30
0
11
90.000000000000057
21
61.598659944483714
31
0
0
LINE
5
142
100
AcDbEntity
8
0
100
AcDbLine
10
90.000000000000057
20
71.498691206802292
30
0
11
10.000000000000055
21
71.494237361868556
31
0
0
LINE
5
143
100
AcDbEntity
8
0
100
AcDbLine
10
90.000000000000057
20
81.394268624187731
30
0
11
10.000000000000055
21
81.394268624187731
31
0
0
LINE
5
144
100
AcDbEntity
8
0
100
AcDbLine
10
10.000000000000055
20
71.494237361868556
30
0
11
23.571058386632714
21
95
31
0
0
LINE
5
145
100
AcDbEntity
8
0
100
AcDbLine
10
10.000000000000055
20
31.905618078670557
30
0
11
90.000000000000057
21
31.905618078670553
31
0
0
LINE
5
146
100
AcDbEntity
8
0
100
AcDbLine
10
10.000000000000055
20
22.007813738818207
30
0
11
90.000000000000057
21
22.007813738818204
31
0
0
LINE
5
147
100
AcDbEntity
8
0
100
AcDbLine
10
10.000000000000055
20
41.803422418522885
30
0
11
90.000000000000057
21
41.803422418522878
31
0
0
CIRCLE
5
148
100
AcDbEntity
8
0
100
AcDbCircle
10
32.856500000000104
20
91.291701810295578
30
0
40
4.75
210
0
220
0
230
1
0
CIRCLE
5
149
100
AcDbEntity
8
0
100
AcDbCircle
10
44.285500000000113
20
91.291701810295535
30
0
40
4.75
210
0
220
0
230
1
0
CIRCLE
5
150
100
AcDbEntity
8
0
100
AcDbCircle
10
55.714500000000015
20
91.291701810295379
30
0
40
4.75
210
0
220
0
230
1
0
CIRCLE
5
151
100
AcDbEntity
8
0
100
AcDbCircle
10
67.143500000000074
20
91.291701810295621
30
0
40
4.75
210
0
220
0
230
1
0
CIRCLE
5
152
100
AcDbEntity
8
0
100
AcDbCircle
10
72.857785714285782
20
81.394268624187731
30
0
40
4.75
210
0
220
0
230
1
0
CIRCLE
5
153
100
AcDbEntity
8
0
100
AcDbCircle
10
84.286785714285784
20
81.394268624187731
30
0
40
4.75
210
0
220
0
230
1
0
CIRCLE
5
154
100
AcDbEntity
8
0
100
AcDbCircle
10
61.428785714285638
20
81.394268624187731
30
0
40
4.75
210
0
220
0
230
1
0
CIRCLE
5
155
100
AcDbEntity
8
0
100
AcDbCircle
10
50.000000000000057
20
81.394268624187731
30
0
40
4.75
210
0
220
0
230
1
0
CIRCLE
5
156
100
AcDbEntity
8
0
100
AcDbCircle
10
38.571214285714397
20
81.394268624187731
30
0
40
4.75
210
0
220
0
230
1
0
CIRCLE
5
157
100
AcDbEntity
8
0
100
AcDbCircle
10
27.142214285714374
20
81.394268624187731
30
0
40
4.75
210
0
220
0
230
1
0
CIRCLE
5
158
100
AcDbEntity
8
0
100
AcDbCircle
10
15.713214285714372
20
81.394268624187731
30
0
40
4.75
210
0
220
0
230
1
0
CIRCLE
5
159
100
AcDbEntity
8
0
100
AcDbCircle
10
10.000000000000055
20
71.494237361868556
30
0
40
4.75
210
0
220
0
230
1
0
CIRCLE
5
160
100
AcDbEntity
8
0
100
AcDbCircle
10
21.427714285714362
20
71.496464284335389
30
0
40
4.75
210
0
220
0
230
1
0
CIRCLE
5
161
100
AcDbEntity
8
0
100
AcDbCircle
10
32.857265302186768
20
71.495509895809377
30
0
40
4.75
210
0
220
0
230
1
0
CIRCLE
5
162
100
AcDbEntity
8
0
100
AcDbCircle
10
44.285530606341027
20
71.496146142328456
30
0
40
4.75
210
0
220
0
230
1
0
CIRCLE
5
163
100
AcDbEntity
8
0
100
AcDbCircle
10
55.714897978863661
20
71.496782450203057
30
0
40
4.75
210
0
220
0
230
1
0
CIRCLE
5
164
100
AcDbEntity
8
0
100
AcDbCircle
10
67.142734697813211
20
71.497418672861471
30
0
40
4.75
210
0
220
0
230
1
0
CIRCLE
5
165
100
AcDbEntity
8
0
100
AcDbCircle
10
78.57320413870444
20
71.498055042091579
30
0
40
4.75
210
0
220
0
230
1
0
CIRCLE
5
166
100
AcDbEntity
8
0
100
AcDbCircle
10
90.000000000000057
20
71.498691206802292
30
0
40
4.75
210
0
220
0
230
1
0
CIRCLE
5
167
100
AcDbEntity
8
0
100
AcDbCircle
10
44.285714285714334
20
51.700855604630718
30
0
40
4.75
210
0
220
0
230
1
0
CIRCLE
5
168
100
AcDbEntity
8
0
100
AcDbCircle
10
50.000000000000057
20
61.5982887907386
30
0
40
4.75
210
0
220
0
230
1
0
CIRCLE
5
169
100
AcDbEntity
8
0
100
AcDbCircle
10
55.714285714285765
20
51.700855604630725
30
0
40
4.75
210
0
220
0
230
1
0
CIRCLE
5
170
100
AcDbEntity
8
0
100
AcDbCircle
10
61.428571428571459
20
41.803422418522878
30
0
40
4.75
210
0
220
0
230
1
0
CIRCLE
5
171
100
AcDbEntity
8
0
100
AcDbCircle
10
67.143071428571446
20
31.905618078670557
30
0
40
4.75
210
0
220
0
230
1
0
CIRCLE
5
172
100
AcDbEntity
8
0
100
AcDbCircle
10
72.857785714285725
20
22.00744258507374
30
0
40
4.75
210
0
220
0
230
1
0
CIRCLE
5
173
100
AcDbEntity
8
0
100
AcDbCircle
10
38.571214285713964
20
61.598659944483728
30
0
40
4.75
210
0
220
0
230
1
0
CIRCLE
5
174
100
AcDbEntity
8
0
100
AcDbCircle
10
27.142214285714736
20
61.598659944483728
30
0
40
4.75
210
0
220
0
230
1
0
CIRCLE
5
175
100
AcDbEntity
8
0
100
AcDbCircle
10
15.71321428571396
20
61.598659944483728
30
0
40
4.75
210
0
220
0
230
1
0
CIRCLE
5
176
100
AcDbEntity
8
0
100
AcDbCircle
10
61.428785714285766
20
61.598659944483067
30
0
40
4.75
210
0
220
0
230
1
0
CIRCLE
5
177
100
AcDbEntity
8
0
100
AcDbCircle
10
72.857785714286081
20
61.598659944483714
30
0
40
4.75
210
0
220
0
230
1
0
CIRCLE
5
178
100
AcDbEntity
8
0
100
AcDbCircle
10
84.286785714285401
20
61.598659944483714
30
0
40
4.75
210
0
220
0
230
1
0
CIRCLE
5
179
100
AcDbEntity
8
0
100
AcDbCircle
10
90.001285714285757
20
51.700855604630725
30
0
40
4.75
210
0
220
0
230
1
0
CIRCLE
5
180
100
AcDbEntity
8
0
100
AcDbCircle
10
78.572285714285769
20
51.700855604630725
30
0
40
4.75
210
0
220
0
230
1
0
CIRCLE
5
181
100
AcDbEntity
8
0
100
AcDbCircle
10
67.143285714285767
20
51.700855604630725
30
0
40
4.75
210
0
220
0
230
1
0
CIRCLE
5
182
100
AcDbEntity
8
0
100
AcDbCircle
10
32.856714285714332
20
51.700855604630718
30
0
40
4.75
210
0
220
0
230
1
0
CIRCLE
5
183
100
AcDbEntity
8
0
100
AcDbCircle
10
21.42771428571433
20
51.700855604630718
30
0
40
4.75
210
0
220
0
230
1
0
CIRCLE
5
184
100
AcDbEntity
8
0
100
AcDbCircle
10
9.9987142857143319
20
51.700855604630718
30
0
40
4.75
210
0
220
0
230
1
0
CIRCLE
5
185
100
AcDbEntity
8
0
100
AcDbCircle
10
15.713000000000017
20
41.803422418522885
30
0
40
4.75
210
0
220
0
230
1
0
CIRCLE
5
186
100
AcDbEntity
8
0
100
AcDbCircle
10
27.142000000000017
20
41.803422418522885
30
0
40
4.75
210
0
220
0
230
1
0
CIRCLE
5
187
100
AcDbEntity
8
0
100
AcDbCircle
10
38.571428571428619
20
41.803422418522885
30
0
40
4.75
210
0
220
0
230
1
0
CIRCLE
5
188
100
AcDbEntity
8
0
100
AcDbCircle
10
50.000000000000028
20
41.803422418522878
30
0
40
4.75
210
0
220
0
230
1
0
CIRCLE
5
189
100
AcDbEntity
8
0
100
AcDbCircle
10
72.858000000000786
20
41.803422418522885
30
0
40
4.75
210
0
220
0
230
1
0
CIRCLE
5
190
100
AcDbEntity
8
0
100
AcDbCircle
10
84.287000000000035
20
41.803422418522878
30
0
40
4.75
210
0
220
0
230
1
0
CIRCLE
5
191
100
AcDbEntity
8
0
100
AcDbCircle
10
90.000000000000057
20
31.905618078670553
30
0
40
4.75
210
0
220
0
230
1
0
CIRCLE
5
192
100
AcDbEntity
8
0
100
AcDbCircle
10
78.572500000000019
20
31.905618078670553
30
0
40
4.75
210
0
220
0
230
1
0
CIRCLE
5
193
100
AcDbEntity
8
0
100
AcDbCircle
10
55.714500000000001
20
31.905618078670553
30
0
40
4.75
210
0
220
0
230
1
0
CIRCLE
5
194
100
AcDbEntity
8
0
100
AcDbCircle
10
44.285500000000027
20
31.905618078670557
30
0
40
4.75
210
0
220
0
230
1
0
CIRCLE
5
195
100
AcDbEntity
8
0
100
AcDbCircle
10
32.856500000000004
20
31.905618078670557
30
0
40
4.75
210
0
220
0
230
1
0
CIRCLE
5
196
100
AcDbEntity
8
0
100
AcDbCircle
10
21.427499999999998
20
31.905618078670557
30
0
40
4.75
210
0
220
0
230
1
0
CIRCLE
5
197
100
AcDbEntity
8
0
100
AcDbCircle
10
10.000000000000055
20
31.905618078670557
30
0
40
4.75
210
0
220
0
230
1
0
CIRCLE
5
198
100
AcDbEntity
8
0
100
AcDbCircle
10
27.141999999999989
20
22.007813738818207
30
0
40
4.75
210
0
220
0
230
1
0
CIRCLE
5
199
100
AcDbEntity
8
0
100
AcDbCircle
10
38.571000000000005
20
22.007813738818189
30
0
40
4.75
210
0
220
0
230
1
0
CIRCLE
5
200
100
AcDbEntity
8
0
100
AcDbCircle
10
50
20
22.007813738818204
30
0
40
4.75
210
0
220
0
230
1
0
CIRCLE
5
201
100
AcDbEntity
8
0
100
AcDbCircle
10
61.429000000000002
20
22.007813738818207
30
0
40
4.75
210
0
220
0
230
1
0
CIRCLE
5
202
100
AcDbEntity
8
0
100
AcDbCircle
10
14.250000000000064
20
90.750000000000014
30
0
40
2.5000000000000004
210
0
220
0
230
1
0
CIRCLE
5
203
100
AcDbEntity
8
0
100
AcDbCircle
10
85.750000000000057
20
90.750000000000014
30
0
40
2.5000000000000004
210
0
220
0
230
1
0
CIRCLE
5
204
100
AcDbEntity
8
0
100
AcDbCircle
10
14.250000000000057
20
19.25
30
0
40
2.5000000000000004
210
0
220
0
230
1
0
CIRCLE
5
205
100
AcDbEntity
8
0
100
AcDbCircle
10
85.750000000000057
20
19.250000000000018
30
0
40
2.5000000000000004
210
0
220
0
230
1
0
ENDSEC
0
SECTION
2
OBJECTS
0
DICTIONARY
5
C
100
AcDbDictionary
3
ACAD_GROUP
350
D
3
ACAD_MLINESTYLE
350
17
0
DICTIONARY
5
D
100
AcDbDictionary
0
DICTIONARY
5
1A
330
C
100
AcDbDictionary
0
DICTIONARY
5
17
100
AcDbDictionary
0
ENDSEC
0
EOF
