M48
; DRILL file {KiCad (6.0.4)} date Mon Apr 18 03:55:04 2022
; FORMAT={-:-/ absolute / metric / decimal}
; #@! TF.CreationDate,2022-04-18T03:55:04-07:00
; #@! TF.GenerationSoftware,Kicad,Pcbnew,(6.0.4)
; #@! TF.FileFunction,MixedPlating,1,2
FMAT,2
METRIC
; #@! TA.AperFunction,Plated,PTH,ComponentDrill
T1C0.800
; #@! TA.AperFunction,Plated,PTH,ComponentDrill
T2C0.914
; #@! TA.AperFunction,Plated,PTH,ComponentDrill
T3C1.000
%
G90
G05
T1
X3.89Y-5.994
X3.89Y-8.534
X3.89Y-11.074
X3.89Y-13.614
X3.89Y-16.154
X3.89Y-18.694
X3.89Y-21.234
X3.89Y-23.774
X11.51Y-5.994
X11.51Y-8.534
X11.51Y-11.074
X11.51Y-13.614
X11.51Y-16.154
X11.51Y-18.694
X11.51Y-21.234
X11.51Y-23.774
X26.725Y-11.078
X26.725Y-13.618
X26.725Y-16.158
X26.725Y-18.698
X26.725Y-21.238
X26.725Y-23.778
X26.725Y-26.318
X26.725Y-28.858
X34.345Y-11.078
X34.345Y-13.618
X34.345Y-16.158
X34.345Y-18.698
X34.345Y-21.238
X34.345Y-23.778
X34.345Y-26.318
X34.345Y-28.858
X37.136Y-6.248
X40.636Y-6.248
T2
X15.066Y-5.994
X15.066Y-8.534
X15.066Y-11.074
X15.066Y-13.614
X15.066Y-16.154
X15.066Y-18.694
X15.066Y-21.234
X15.066Y-23.774
X15.066Y-26.314
X15.066Y-28.854
X22.686Y-5.994
X22.686Y-8.534
X22.686Y-11.074
X22.686Y-13.614
X22.686Y-16.154
X22.686Y-18.694
X22.686Y-21.234
X22.686Y-23.774
X22.686Y-26.314
X22.686Y-28.854
T3
X38.18Y-16.154
X38.18Y-18.694
X38.18Y-21.234
X38.18Y-23.774
X38.18Y-26.314
X38.18Y-28.905
T0
M30
