%TF.GenerationSoftware,KiCad,Pcbnew,(6.0.4)*%
%TF.CreationDate,2022-04-18T03:55:02-07:00*%
%TF.ProjectId,led_bar,6c65645f-6261-4722-9e6b-696361645f70,rev?*%
%TF.SameCoordinates,PX7de29c8PY459e508*%
%TF.FileFunction,Copper,L2,Bot*%
%TF.FilePolarity,Positive*%
%FSLAX46Y46*%
G04 Gerber Fmt 4.6, Leading zero omitted, Abs format (unit mm)*
G04 Created by KiCad (PCBNEW (6.0.4)) date 2022-04-18 03:55:02*
%MOMM*%
%LPD*%
G01*
G04 APERTURE LIST*
G04 Aperture macros list*
%AMRoundRect*
0 Rectangle with rounded corners*
0 $1 Rounding radius*
0 $2 $3 $4 $5 $6 $7 $8 $9 X,Y pos of 4 corners*
0 Add a 4 corners polygon primitive as box body*
4,1,4,$2,$3,$4,$5,$6,$7,$8,$9,$2,$3,0*
0 Add four circle primitives for the rounded corners*
1,1,$1+$1,$2,$3*
1,1,$1+$1,$4,$5*
1,1,$1+$1,$6,$7*
1,1,$1+$1,$8,$9*
0 Add four rect primitives between the rounded corners*
20,1,$1+$1,$2,$3,$4,$5,0*
20,1,$1+$1,$4,$5,$6,$7,0*
20,1,$1+$1,$6,$7,$8,$9,0*
20,1,$1+$1,$8,$9,$2,$3,0*%
G04 Aperture macros list end*
%TA.AperFunction,ComponentPad*%
%ADD10R,1.700000X1.700000*%
%TD*%
%TA.AperFunction,ComponentPad*%
%ADD11O,1.700000X1.700000*%
%TD*%
%TA.AperFunction,ComponentPad*%
%ADD12R,2.032000X2.032000*%
%TD*%
%TA.AperFunction,ComponentPad*%
%ADD13C,2.032000*%
%TD*%
%TA.AperFunction,ComponentPad*%
%ADD14R,1.600000X1.600000*%
%TD*%
%TA.AperFunction,ComponentPad*%
%ADD15O,1.600000X1.600000*%
%TD*%
%TA.AperFunction,SMDPad,CuDef*%
%ADD16RoundRect,0.250000X-0.250000X-0.475000X0.250000X-0.475000X0.250000X0.475000X-0.250000X0.475000X0*%
%TD*%
%TA.AperFunction,ComponentPad*%
%ADD17C,1.600000*%
%TD*%
%TA.AperFunction,Conductor*%
%ADD18C,0.500000*%
%TD*%
%TA.AperFunction,Conductor*%
%ADD19C,1.500000*%
%TD*%
%TA.AperFunction,Conductor*%
%ADD20C,1.000000*%
%TD*%
%TA.AperFunction,Conductor*%
%ADD21C,0.400000*%
%TD*%
G04 APERTURE END LIST*
D10*
%TO.P,J2,1,Pin_1*%
%TO.N,Net-(J2-Pad1)*%
X38180000Y-28904800D03*
%TD*%
D11*
%TO.P,J1,5,Pin_5*%
%TO.N,GND*%
X38180000Y-26314000D03*
%TO.P,J1,4,Pin_4*%
%TO.N,Net-(J1-Pad4)*%
X38180000Y-23774000D03*
%TO.P,J1,3,Pin_3*%
%TO.N,Net-(J1-Pad3)*%
X38180000Y-21234000D03*
%TO.P,J1,2,Pin_2*%
%TO.N,Net-(J1-Pad2)*%
X38180000Y-18694000D03*
D10*
%TO.P,J1,1,Pin_1*%
%TO.N,VCC*%
X38180000Y-16154000D03*
%TD*%
D12*
%TO.P,BAR1,1,A*%
%TO.N,Net-(BAR1-Pad1)*%
X15065800Y-5993800D03*
D13*
%TO.P,BAR1,2,A*%
%TO.N,Net-(BAR1-Pad2)*%
X15065800Y-8533800D03*
%TO.P,BAR1,3,A*%
%TO.N,Net-(BAR1-Pad3)*%
X15065800Y-11073800D03*
%TO.P,BAR1,4,A*%
%TO.N,Net-(BAR1-Pad4)*%
X15065800Y-13613800D03*
%TO.P,BAR1,5,A*%
%TO.N,Net-(BAR1-Pad5)*%
X15065800Y-16153800D03*
%TO.P,BAR1,6,A*%
%TO.N,Net-(BAR1-Pad6)*%
X15065800Y-18693800D03*
%TO.P,BAR1,7,A*%
%TO.N,Net-(BAR1-Pad7)*%
X15065800Y-21233800D03*
%TO.P,BAR1,8,A*%
%TO.N,Net-(BAR1-Pad8)*%
X15065800Y-23773800D03*
%TO.P,BAR1,9,A*%
%TO.N,unconnected-(BAR1-Pad9)*%
X15065800Y-26313800D03*
%TO.P,BAR1,10,A*%
%TO.N,unconnected-(BAR1-Pad10)*%
X15065800Y-28853800D03*
%TO.P,BAR1,11,K*%
%TO.N,unconnected-(BAR1-Pad11)*%
X22685800Y-28853800D03*
%TO.P,BAR1,12,K*%
%TO.N,unconnected-(BAR1-Pad12)*%
X22685800Y-26313800D03*
%TO.P,BAR1,13,K*%
%TO.N,Net-(BAR1-Pad13)*%
X22685800Y-23773800D03*
%TO.P,BAR1,14,K*%
%TO.N,Net-(BAR1-Pad14)*%
X22685800Y-21233800D03*
%TO.P,BAR1,15,K*%
%TO.N,Net-(BAR1-Pad15)*%
X22685800Y-18693800D03*
%TO.P,BAR1,16,K*%
%TO.N,Net-(BAR1-Pad16)*%
X22685800Y-16153800D03*
%TO.P,BAR1,17,K*%
%TO.N,Net-(BAR1-Pad17)*%
X22685800Y-13613800D03*
%TO.P,BAR1,18,K*%
%TO.N,Net-(BAR1-Pad18)*%
X22685800Y-11073800D03*
%TO.P,BAR1,19,K*%
%TO.N,Net-(BAR1-Pad19)*%
X22685800Y-8533800D03*
%TO.P,BAR1,20,K*%
%TO.N,Net-(BAR1-Pad20)*%
X22685800Y-5993800D03*
%TD*%
D14*
%TO.P,RN1,1,R1.1*%
%TO.N,VCC*%
X3889800Y-5993800D03*
D15*
%TO.P,RN1,2,R2.1*%
X3889800Y-8533800D03*
%TO.P,RN1,3,R3.1*%
X3889800Y-11073800D03*
%TO.P,RN1,4,R4.1*%
X3889800Y-13613800D03*
%TO.P,RN1,5,R5.1*%
X3889800Y-16153800D03*
%TO.P,RN1,6,R6.1*%
X3889800Y-18693800D03*
%TO.P,RN1,7,R7.1*%
X3889800Y-21233800D03*
%TO.P,RN1,8,R8.1*%
X3889800Y-23773800D03*
%TO.P,RN1,9,R8.2*%
%TO.N,Net-(BAR1-Pad8)*%
X11509800Y-23773800D03*
%TO.P,RN1,10,R7.2*%
%TO.N,Net-(BAR1-Pad7)*%
X11509800Y-21233800D03*
%TO.P,RN1,11,R6.2*%
%TO.N,Net-(BAR1-Pad6)*%
X11509800Y-18693800D03*
%TO.P,RN1,12,R5.2*%
%TO.N,Net-(BAR1-Pad5)*%
X11509800Y-16153800D03*
%TO.P,RN1,13,R4.2*%
%TO.N,Net-(BAR1-Pad4)*%
X11509800Y-13613800D03*
%TO.P,RN1,14,R3.2*%
%TO.N,Net-(BAR1-Pad3)*%
X11509800Y-11073800D03*
%TO.P,RN1,15,R2.2*%
%TO.N,Net-(BAR1-Pad2)*%
X11509800Y-8533800D03*
%TO.P,RN1,16,R1.2*%
%TO.N,Net-(BAR1-Pad1)*%
X11509800Y-5993800D03*
%TD*%
D16*
%TO.P,C2,1*%
%TO.N,VCC*%
X37992000Y-11836000D03*
%TO.P,C2,2*%
%TO.N,GND*%
X39892000Y-11836000D03*
%TD*%
D14*
%TO.P,C1,1*%
%TO.N,VCC*%
X37135898Y-6248000D03*
D17*
%TO.P,C1,2*%
%TO.N,GND*%
X40635898Y-6248000D03*
%TD*%
D14*
%TO.P,U1,1,QB*%
%TO.N,Net-(BAR1-Pad19)*%
X26725000Y-11078000D03*
D15*
%TO.P,U1,2,QC*%
%TO.N,Net-(BAR1-Pad18)*%
X26725000Y-13618000D03*
%TO.P,U1,3,QD*%
%TO.N,Net-(BAR1-Pad17)*%
X26725000Y-16158000D03*
%TO.P,U1,4,QE*%
%TO.N,Net-(BAR1-Pad16)*%
X26725000Y-18698000D03*
%TO.P,U1,5,QF*%
%TO.N,Net-(BAR1-Pad15)*%
X26725000Y-21238000D03*
%TO.P,U1,6,QG*%
%TO.N,Net-(BAR1-Pad14)*%
X26725000Y-23778000D03*
%TO.P,U1,7,QH*%
%TO.N,Net-(BAR1-Pad13)*%
X26725000Y-26318000D03*
%TO.P,U1,8,GND*%
%TO.N,GND*%
X26725000Y-28858000D03*
%TO.P,U1,9,QH'*%
%TO.N,Net-(J2-Pad1)*%
X34345000Y-28858000D03*
%TO.P,U1,10,~{SRCLR}*%
%TO.N,GND*%
X34345000Y-26318000D03*
%TO.P,U1,11,SRCLK*%
%TO.N,Net-(J1-Pad4)*%
X34345000Y-23778000D03*
%TO.P,U1,12,RCLK*%
%TO.N,Net-(J1-Pad3)*%
X34345000Y-21238000D03*
%TO.P,U1,13,~{OE}*%
%TO.N,GND*%
X34345000Y-18698000D03*
%TO.P,U1,14,SER*%
%TO.N,Net-(J1-Pad2)*%
X34345000Y-16158000D03*
%TO.P,U1,15,QA*%
%TO.N,Net-(BAR1-Pad20)*%
X34345000Y-13618000D03*
%TO.P,U1,16,VCC*%
%TO.N,VCC*%
X34345000Y-11078000D03*
%TD*%
D18*
%TO.N,Net-(J2-Pad1)*%
X38133200Y-28858000D02*
X38180000Y-28904800D01*
D19*
X34345000Y-28858000D02*
X38133200Y-28858000D01*
D18*
%TO.N,Net-(BAR1-Pad1)*%
X15065800Y-5993800D02*
X11509800Y-5993800D01*
%TO.N,Net-(BAR1-Pad2)*%
X11509800Y-8533800D02*
X15065800Y-8533800D01*
%TO.N,Net-(BAR1-Pad3)*%
X15065800Y-11073800D02*
X11509800Y-11073800D01*
%TO.N,Net-(BAR1-Pad4)*%
X11509800Y-13613800D02*
X15065800Y-13613800D01*
%TO.N,Net-(BAR1-Pad5)*%
X15065800Y-16153800D02*
X11509800Y-16153800D01*
%TO.N,Net-(BAR1-Pad6)*%
X15065800Y-18693800D02*
X11509800Y-18693800D01*
%TO.N,Net-(BAR1-Pad7)*%
X11509800Y-21233800D02*
X15065800Y-21233800D01*
%TO.N,Net-(BAR1-Pad8)*%
X15065800Y-23773800D02*
X11509800Y-23773800D01*
%TO.N,GND*%
X34349000Y-26314000D02*
X34345000Y-26318000D01*
X33358000Y-26318000D02*
X32338000Y-25298000D01*
X33104000Y-18698000D02*
X34345000Y-18698000D01*
X38180000Y-26314000D02*
X34349000Y-26314000D01*
X40593000Y-11836000D02*
X40635898Y-11878898D01*
X40635898Y-25636102D02*
X40635898Y-11878898D01*
X34345000Y-26318000D02*
X33358000Y-26318000D01*
X39958000Y-26314000D02*
X40635898Y-25636102D01*
X32338000Y-25298000D02*
X32338000Y-19456000D01*
X32338000Y-19456000D02*
X33100000Y-18694000D01*
X26725000Y-28858000D02*
X28778000Y-28858000D01*
X28778000Y-28858000D02*
X32338000Y-25298000D01*
X39892000Y-11836000D02*
X40593000Y-11836000D01*
X33100000Y-18694000D02*
X33104000Y-18698000D01*
X40635898Y-11878898D02*
X40635898Y-6248000D01*
X38180000Y-26314000D02*
X39958000Y-26314000D01*
%TO.N,VCC*%
X38180000Y-16154000D02*
X38180000Y-14913000D01*
X3889800Y-5993800D02*
X3889800Y-8533800D01*
X3889800Y-21233800D02*
X3889800Y-18693800D01*
X37992000Y-11897000D02*
X37992000Y-11836000D01*
X33071898Y-2184000D02*
X37135898Y-6248000D01*
X38180000Y-14913000D02*
X36578000Y-13311000D01*
X3889800Y-5993800D02*
X3889800Y-3708200D01*
X3889800Y-16153800D02*
X3889800Y-13613800D01*
X3889800Y-23773800D02*
X3889800Y-21233800D01*
X34345000Y-11078000D02*
X34345000Y-9038898D01*
X34345000Y-9038898D02*
X37135898Y-6248000D01*
X3889800Y-18693800D02*
X3889800Y-16153800D01*
X3889800Y-11073800D02*
X3889800Y-13613800D01*
X3889800Y-3708200D02*
X5414000Y-2184000D01*
X5414000Y-2184000D02*
X33071898Y-2184000D01*
X36578000Y-13311000D02*
X37992000Y-11897000D01*
X36578000Y-13311000D02*
X34345000Y-11078000D01*
X3889800Y-8533800D02*
X3889800Y-11073800D01*
%TO.N,Net-(J1-Pad2)*%
X38180000Y-18694000D02*
X37418000Y-18694000D01*
X34882000Y-16158000D02*
X34345000Y-16158000D01*
D20*
X37418000Y-18694000D02*
X34882000Y-16158000D01*
D19*
%TO.N,Net-(J1-Pad3)*%
X34345000Y-21238000D02*
X38176000Y-21238000D01*
D21*
X38176000Y-21238000D02*
X38180000Y-21234000D01*
D18*
%TO.N,Net-(J1-Pad4)*%
X34349000Y-23774000D02*
X34345000Y-23778000D01*
D19*
X38180000Y-23774000D02*
X34349000Y-23774000D01*
D20*
%TO.N,Net-(BAR1-Pad13)*%
X22685800Y-23773800D02*
X26725000Y-26318000D01*
%TO.N,Net-(BAR1-Pad14)*%
X26725000Y-23778000D02*
X22685800Y-21233800D01*
%TO.N,Net-(BAR1-Pad15)*%
X22685800Y-18693800D02*
X26725000Y-21238000D01*
%TO.N,Net-(BAR1-Pad16)*%
X22685800Y-16153800D02*
X26725000Y-18698000D01*
%TO.N,Net-(BAR1-Pad17)*%
X26725000Y-16158000D02*
X22685800Y-13613800D01*
%TO.N,Net-(BAR1-Pad18)*%
X26725000Y-13618000D02*
X22685800Y-11073800D01*
%TO.N,Net-(BAR1-Pad19)*%
X26725000Y-11078000D02*
X22685800Y-8533800D01*
D18*
%TO.N,Net-(BAR1-Pad20)*%
X33104000Y-13618000D02*
X25479800Y-5993800D01*
X25479800Y-5993800D02*
X22685800Y-5993800D01*
X34345000Y-13618000D02*
X33104000Y-13618000D01*
%TD*%
%TA.AperFunction,Conductor*%
%TO.N,Net-(BAR1-Pad5)*%
G36*
X15036136Y-15223581D02*
G01*
X15085534Y-15274575D01*
X15100000Y-15333194D01*
X15100000Y-16966806D01*
X15079998Y-17034927D01*
X15026342Y-17081420D01*
X14967012Y-17092612D01*
X11619010Y-16906612D01*
X11552104Y-16882862D01*
X11508659Y-16826710D01*
X11500000Y-16780806D01*
X11500000Y-15519194D01*
X11520002Y-15451073D01*
X11573658Y-15404580D01*
X11619010Y-15393388D01*
X14967012Y-15207388D01*
X15036136Y-15223581D01*
G37*
%TD.AperFunction*%
%TD*%
%TA.AperFunction,Conductor*%
%TO.N,Net-(BAR1-Pad2)*%
G36*
X15036136Y-7623581D02*
G01*
X15085534Y-7674575D01*
X15100000Y-7733194D01*
X15100000Y-9366806D01*
X15079998Y-9434927D01*
X15026342Y-9481420D01*
X14967012Y-9492612D01*
X11619010Y-9306612D01*
X11552104Y-9282862D01*
X11508659Y-9226710D01*
X11500000Y-9180806D01*
X11500000Y-7919194D01*
X11520002Y-7851073D01*
X11573658Y-7804580D01*
X11619010Y-7793388D01*
X14967012Y-7607388D01*
X15036136Y-7623581D01*
G37*
%TD.AperFunction*%
%TD*%
%TA.AperFunction,Conductor*%
%TO.N,Net-(BAR1-Pad7)*%
G36*
X15036136Y-20323581D02*
G01*
X15085534Y-20374575D01*
X15100000Y-20433194D01*
X15100000Y-22066806D01*
X15079998Y-22134927D01*
X15026342Y-22181420D01*
X14967012Y-22192612D01*
X11619010Y-22006612D01*
X11552104Y-21982862D01*
X11508659Y-21926710D01*
X11500000Y-21880806D01*
X11500000Y-20619194D01*
X11520002Y-20551073D01*
X11573658Y-20504580D01*
X11619010Y-20493388D01*
X14967012Y-20307388D01*
X15036136Y-20323581D01*
G37*
%TD.AperFunction*%
%TD*%
%TA.AperFunction,Conductor*%
%TO.N,Net-(BAR1-Pad6)*%
G36*
X15036136Y-17723581D02*
G01*
X15085534Y-17774575D01*
X15100000Y-17833194D01*
X15100000Y-19566806D01*
X15079998Y-19634927D01*
X15026342Y-19681420D01*
X14967012Y-19692612D01*
X11619010Y-19506612D01*
X11552104Y-19482862D01*
X11508659Y-19426710D01*
X11500000Y-19380806D01*
X11500000Y-18019194D01*
X11520002Y-17951073D01*
X11573658Y-17904580D01*
X11619010Y-17893388D01*
X14967012Y-17707388D01*
X15036136Y-17723581D01*
G37*
%TD.AperFunction*%
%TD*%
%TA.AperFunction,Conductor*%
%TO.N,Net-(BAR1-Pad4)*%
G36*
X15033083Y-12625648D02*
G01*
X15083871Y-12675257D01*
X15100000Y-12736937D01*
X15100000Y-14466806D01*
X15079998Y-14534927D01*
X15026342Y-14581420D01*
X14967012Y-14592612D01*
X11619010Y-14406612D01*
X11552104Y-14382862D01*
X11508659Y-14326710D01*
X11500000Y-14280806D01*
X11500000Y-13015937D01*
X11520002Y-12947816D01*
X11573658Y-12901323D01*
X11615536Y-12890372D01*
X14963536Y-12611372D01*
X15033083Y-12625648D01*
G37*
%TD.AperFunction*%
%TD*%
%TA.AperFunction,Conductor*%
%TO.N,Net-(BAR1-Pad1)*%
G36*
X14033790Y-5025155D02*
G01*
X14084262Y-5075086D01*
X14100000Y-5136065D01*
X14100000Y-6863935D01*
X14079998Y-6932056D01*
X14026342Y-6978549D01*
X13964336Y-6989564D01*
X11616336Y-6808949D01*
X11549950Y-6783781D01*
X11507710Y-6726718D01*
X11500000Y-6683320D01*
X11500000Y-5316680D01*
X11520002Y-5248559D01*
X11573658Y-5202066D01*
X11616336Y-5191051D01*
X13964336Y-5010436D01*
X14033790Y-5025155D01*
G37*
%TD.AperFunction*%
%TD*%
%TA.AperFunction,Conductor*%
%TO.N,GND*%
G36*
X44433621Y-528502D02*
G01*
X44480114Y-582158D01*
X44491500Y-634500D01*
X44491500Y-33365500D01*
X44471498Y-33433621D01*
X44417842Y-33480114D01*
X44365500Y-33491500D01*
X9626000Y-33491500D01*
X9557879Y-33471498D01*
X9511386Y-33417842D01*
X9500000Y-33365500D01*
X9500000Y-5626000D01*
X9520002Y-5557879D01*
X9573658Y-5511386D01*
X9626000Y-5500000D01*
X10123248Y-5500000D01*
X10191369Y-5520002D01*
X10237862Y-5573658D01*
X10247966Y-5643932D01*
X10244955Y-5658611D01*
X10217919Y-5759512D01*
X10216257Y-5765713D01*
X10196302Y-5993800D01*
X10216257Y-6221887D01*
X10217681Y-6227200D01*
X10217681Y-6227202D01*
X10222460Y-6245035D01*
X10275516Y-6443043D01*
X10277839Y-6448024D01*
X10277839Y-6448025D01*
X10369951Y-6645562D01*
X10369954Y-6645567D01*
X10372277Y-6650549D01*
X10503602Y-6838100D01*
X10665500Y-6999998D01*
X10670008Y-7003155D01*
X10670011Y-7003157D01*
X10743361Y-7054517D01*
X10853051Y-7131323D01*
X10858033Y-7133646D01*
X10858038Y-7133649D01*
X10892257Y-7149605D01*
X10945542Y-7196522D01*
X10965003Y-7264799D01*
X10944461Y-7332759D01*
X10892257Y-7377995D01*
X10858038Y-7393951D01*
X10858033Y-7393954D01*
X10853051Y-7396277D01*
X10761870Y-7460123D01*
X10670011Y-7524443D01*
X10670008Y-7524445D01*
X10665500Y-7527602D01*
X10503602Y-7689500D01*
X10372277Y-7877051D01*
X10369954Y-7882033D01*
X10369951Y-7882038D01*
X10284142Y-8066059D01*
X10275516Y-8084557D01*
X10274094Y-8089865D01*
X10274093Y-8089867D01*
X10217681Y-8300398D01*
X10216257Y-8305713D01*
X10196302Y-8533800D01*
X10216257Y-8761887D01*
X10217681Y-8767200D01*
X10217681Y-8767202D01*
X10272293Y-8971013D01*
X10275516Y-8983043D01*
X10277839Y-8988024D01*
X10277839Y-8988025D01*
X10369951Y-9185562D01*
X10369954Y-9185567D01*
X10372277Y-9190549D01*
X10503602Y-9378100D01*
X10665500Y-9539998D01*
X10670008Y-9543155D01*
X10670011Y-9543157D01*
X10748189Y-9597898D01*
X10853051Y-9671323D01*
X10858033Y-9673646D01*
X10858038Y-9673649D01*
X10892257Y-9689605D01*
X10945542Y-9736522D01*
X10965003Y-9804799D01*
X10944461Y-9872759D01*
X10892257Y-9917995D01*
X10858038Y-9933951D01*
X10858033Y-9933954D01*
X10853051Y-9936277D01*
X10748189Y-10009702D01*
X10670011Y-10064443D01*
X10670008Y-10064445D01*
X10665500Y-10067602D01*
X10503602Y-10229500D01*
X10372277Y-10417051D01*
X10369954Y-10422033D01*
X10369951Y-10422038D01*
X10277839Y-10619575D01*
X10275516Y-10624557D01*
X10274094Y-10629865D01*
X10274093Y-10629867D01*
X10217681Y-10840398D01*
X10216257Y-10845713D01*
X10196302Y-11073800D01*
X10216257Y-11301887D01*
X10217681Y-11307200D01*
X10217681Y-11307202D01*
X10219241Y-11313022D01*
X10275516Y-11523043D01*
X10277839Y-11528024D01*
X10277839Y-11528025D01*
X10369951Y-11725562D01*
X10369954Y-11725567D01*
X10372277Y-11730549D01*
X10503602Y-11918100D01*
X10665500Y-12079998D01*
X10670008Y-12083155D01*
X10670011Y-12083157D01*
X10705655Y-12108115D01*
X10853051Y-12211323D01*
X10858033Y-12213646D01*
X10858038Y-12213649D01*
X10892257Y-12229605D01*
X10945542Y-12276522D01*
X10965003Y-12344799D01*
X10944461Y-12412759D01*
X10892257Y-12457995D01*
X10858038Y-12473951D01*
X10858033Y-12473954D01*
X10853051Y-12476277D01*
X10748189Y-12549702D01*
X10670011Y-12604443D01*
X10670008Y-12604445D01*
X10665500Y-12607602D01*
X10503602Y-12769500D01*
X10500445Y-12774008D01*
X10500443Y-12774011D01*
X10489828Y-12789171D01*
X10372277Y-12957051D01*
X10369954Y-12962033D01*
X10369951Y-12962038D01*
X10284142Y-13146059D01*
X10275516Y-13164557D01*
X10274094Y-13169865D01*
X10274093Y-13169867D01*
X10217681Y-13380398D01*
X10216257Y-13385713D01*
X10196302Y-13613800D01*
X10216257Y-13841887D01*
X10217681Y-13847200D01*
X10217681Y-13847202D01*
X10219241Y-13853022D01*
X10275516Y-14063043D01*
X10277839Y-14068024D01*
X10277839Y-14068025D01*
X10369951Y-14265562D01*
X10369954Y-14265567D01*
X10372277Y-14270549D01*
X10503602Y-14458100D01*
X10665500Y-14619998D01*
X10670008Y-14623155D01*
X10670011Y-14623157D01*
X10732109Y-14666638D01*
X10853051Y-14751323D01*
X10858033Y-14753646D01*
X10858038Y-14753649D01*
X10892257Y-14769605D01*
X10945542Y-14816522D01*
X10965003Y-14884799D01*
X10944461Y-14952759D01*
X10892257Y-14997995D01*
X10858038Y-15013951D01*
X10858033Y-15013954D01*
X10853051Y-15016277D01*
X10748189Y-15089702D01*
X10670011Y-15144443D01*
X10670008Y-15144445D01*
X10665500Y-15147602D01*
X10503602Y-15309500D01*
X10500445Y-15314008D01*
X10500443Y-15314011D01*
X10497502Y-15318211D01*
X10372277Y-15497051D01*
X10369954Y-15502033D01*
X10369951Y-15502038D01*
X10284142Y-15686059D01*
X10275516Y-15704557D01*
X10274094Y-15709865D01*
X10274093Y-15709867D01*
X10217681Y-15920398D01*
X10216257Y-15925713D01*
X10196302Y-16153800D01*
X10216257Y-16381887D01*
X10217681Y-16387200D01*
X10217681Y-16387202D01*
X10219241Y-16393022D01*
X10275516Y-16603043D01*
X10277839Y-16608024D01*
X10277839Y-16608025D01*
X10369951Y-16805562D01*
X10369954Y-16805567D01*
X10372277Y-16810549D01*
X10503602Y-16998100D01*
X10665500Y-17159998D01*
X10670008Y-17163155D01*
X10670011Y-17163157D01*
X10748189Y-17217898D01*
X10853051Y-17291323D01*
X10858033Y-17293646D01*
X10858038Y-17293649D01*
X10892257Y-17309605D01*
X10945542Y-17356522D01*
X10965003Y-17424799D01*
X10944461Y-17492759D01*
X10892257Y-17537995D01*
X10858038Y-17553951D01*
X10858033Y-17553954D01*
X10853051Y-17556277D01*
X10748189Y-17629702D01*
X10670011Y-17684443D01*
X10670008Y-17684445D01*
X10665500Y-17687602D01*
X10503602Y-17849500D01*
X10372277Y-18037051D01*
X10369954Y-18042033D01*
X10369951Y-18042038D01*
X10284142Y-18226059D01*
X10275516Y-18244557D01*
X10274094Y-18249865D01*
X10274093Y-18249867D01*
X10217681Y-18460398D01*
X10216257Y-18465713D01*
X10196302Y-18693800D01*
X10216257Y-18921887D01*
X10217681Y-18927200D01*
X10217681Y-18927202D01*
X10219241Y-18933022D01*
X10275516Y-19143043D01*
X10277839Y-19148024D01*
X10277839Y-19148025D01*
X10369951Y-19345562D01*
X10369954Y-19345567D01*
X10372277Y-19350549D01*
X10398535Y-19388049D01*
X10473151Y-19494611D01*
X10503602Y-19538100D01*
X10665500Y-19699998D01*
X10670008Y-19703155D01*
X10670011Y-19703157D01*
X10715735Y-19735173D01*
X10853051Y-19831323D01*
X10858033Y-19833646D01*
X10858038Y-19833649D01*
X10892257Y-19849605D01*
X10945542Y-19896522D01*
X10965003Y-19964799D01*
X10944461Y-20032759D01*
X10892257Y-20077995D01*
X10858038Y-20093951D01*
X10858033Y-20093954D01*
X10853051Y-20096277D01*
X10748189Y-20169702D01*
X10670011Y-20224443D01*
X10670008Y-20224445D01*
X10665500Y-20227602D01*
X10503602Y-20389500D01*
X10372277Y-20577051D01*
X10369954Y-20582033D01*
X10369951Y-20582038D01*
X10284142Y-20766059D01*
X10275516Y-20784557D01*
X10274094Y-20789865D01*
X10274093Y-20789867D01*
X10217681Y-21000398D01*
X10216257Y-21005713D01*
X10196302Y-21233800D01*
X10216257Y-21461887D01*
X10217681Y-21467200D01*
X10217681Y-21467202D01*
X10219241Y-21473022D01*
X10275516Y-21683043D01*
X10277839Y-21688024D01*
X10277839Y-21688025D01*
X10369951Y-21885562D01*
X10369954Y-21885567D01*
X10372277Y-21890549D01*
X10503602Y-22078100D01*
X10665500Y-22239998D01*
X10670008Y-22243155D01*
X10670011Y-22243157D01*
X10715735Y-22275173D01*
X10853051Y-22371323D01*
X10858033Y-22373646D01*
X10858038Y-22373649D01*
X10892257Y-22389605D01*
X10945542Y-22436522D01*
X10965003Y-22504799D01*
X10944461Y-22572759D01*
X10892257Y-22617995D01*
X10858038Y-22633951D01*
X10858033Y-22633954D01*
X10853051Y-22636277D01*
X10748189Y-22709702D01*
X10670011Y-22764443D01*
X10670008Y-22764445D01*
X10665500Y-22767602D01*
X10503602Y-22929500D01*
X10372277Y-23117051D01*
X10369954Y-23122033D01*
X10369951Y-23122038D01*
X10284142Y-23306059D01*
X10275516Y-23324557D01*
X10274094Y-23329865D01*
X10274093Y-23329867D01*
X10217681Y-23540398D01*
X10216257Y-23545713D01*
X10196302Y-23773800D01*
X10216257Y-24001887D01*
X10217681Y-24007200D01*
X10217681Y-24007202D01*
X10219241Y-24013022D01*
X10275516Y-24223043D01*
X10277839Y-24228024D01*
X10277839Y-24228025D01*
X10369951Y-24425562D01*
X10369954Y-24425567D01*
X10372277Y-24430549D01*
X10503602Y-24618100D01*
X10665500Y-24779998D01*
X10670008Y-24783155D01*
X10670011Y-24783157D01*
X10715735Y-24815173D01*
X10853051Y-24911323D01*
X10858033Y-24913646D01*
X10858038Y-24913649D01*
X11055575Y-25005761D01*
X11060557Y-25008084D01*
X11065865Y-25009506D01*
X11065867Y-25009507D01*
X11276398Y-25065919D01*
X11276400Y-25065919D01*
X11281713Y-25067343D01*
X11509800Y-25087298D01*
X11737887Y-25067343D01*
X11750022Y-25064092D01*
X11808463Y-25048433D01*
X11851537Y-25044575D01*
X12945679Y-25135753D01*
X13747547Y-25202575D01*
X13813771Y-25228165D01*
X13855648Y-25285497D01*
X13859881Y-25356367D01*
X13834424Y-25406934D01*
X13834765Y-25407182D01*
X13833246Y-25409273D01*
X13832896Y-25409968D01*
X13828640Y-25414951D01*
X13703260Y-25619551D01*
X13701367Y-25624121D01*
X13701366Y-25624123D01*
X13679778Y-25676242D01*
X13611431Y-25841247D01*
X13604498Y-25870124D01*
X13556568Y-26069765D01*
X13556567Y-26069771D01*
X13555413Y-26074578D01*
X13536586Y-26313800D01*
X13555413Y-26553022D01*
X13556567Y-26557829D01*
X13556568Y-26557835D01*
X13563321Y-26585962D01*
X13611431Y-26786353D01*
X13613324Y-26790924D01*
X13613325Y-26790926D01*
X13672089Y-26932794D01*
X13703260Y-27008049D01*
X13828640Y-27212649D01*
X13984482Y-27395118D01*
X14093223Y-27487991D01*
X14132030Y-27547439D01*
X14132538Y-27618434D01*
X14093223Y-27679609D01*
X13984482Y-27772482D01*
X13981269Y-27776244D01*
X13837580Y-27944484D01*
X13828640Y-27954951D01*
X13703260Y-28159551D01*
X13701367Y-28164121D01*
X13701366Y-28164123D01*
X13683818Y-28206489D01*
X13611431Y-28381247D01*
X13603552Y-28414067D01*
X13556568Y-28609765D01*
X13556567Y-28609771D01*
X13555413Y-28614578D01*
X13536586Y-28853800D01*
X13555413Y-29093022D01*
X13556567Y-29097829D01*
X13556568Y-29097835D01*
X13564170Y-29129497D01*
X13611431Y-29326353D01*
X13703260Y-29548049D01*
X13828640Y-29752649D01*
X13831857Y-29756416D01*
X13831858Y-29756417D01*
X13920254Y-29859916D01*
X13984482Y-29935118D01*
X14166951Y-30090960D01*
X14371551Y-30216340D01*
X14376121Y-30218233D01*
X14376123Y-30218234D01*
X14470674Y-30257398D01*
X14593247Y-30308169D01*
X14674837Y-30327757D01*
X14821765Y-30363032D01*
X14821771Y-30363033D01*
X14826578Y-30364187D01*
X15065800Y-30383014D01*
X15305022Y-30364187D01*
X15309829Y-30363033D01*
X15309835Y-30363032D01*
X15456763Y-30327757D01*
X15538353Y-30308169D01*
X15660926Y-30257398D01*
X15755477Y-30218234D01*
X15755479Y-30218233D01*
X15760049Y-30216340D01*
X15964649Y-30090960D01*
X16147118Y-29935118D01*
X16211346Y-29859916D01*
X16299742Y-29756417D01*
X16299743Y-29756416D01*
X16302960Y-29752649D01*
X16428340Y-29548049D01*
X16520169Y-29326353D01*
X16567430Y-29129497D01*
X16575032Y-29097835D01*
X16575033Y-29097829D01*
X16576187Y-29093022D01*
X16595014Y-28853800D01*
X16576187Y-28614578D01*
X16575033Y-28609771D01*
X16575032Y-28609765D01*
X16528048Y-28414067D01*
X16520169Y-28381247D01*
X16447782Y-28206489D01*
X16430234Y-28164123D01*
X16430233Y-28164121D01*
X16428340Y-28159551D01*
X16302960Y-27954951D01*
X16294021Y-27944484D01*
X16150331Y-27776244D01*
X16147118Y-27772482D01*
X16038377Y-27679609D01*
X15999570Y-27620161D01*
X15999062Y-27549166D01*
X16038377Y-27487991D01*
X16147118Y-27395118D01*
X16302960Y-27212649D01*
X16428340Y-27008049D01*
X16459512Y-26932794D01*
X16518275Y-26790926D01*
X16518276Y-26790924D01*
X16520169Y-26786353D01*
X16568279Y-26585962D01*
X16575032Y-26557835D01*
X16575033Y-26557829D01*
X16576187Y-26553022D01*
X16595014Y-26313800D01*
X16576187Y-26074578D01*
X16575033Y-26069771D01*
X16575032Y-26069765D01*
X16527102Y-25870124D01*
X16520169Y-25841247D01*
X16451822Y-25676242D01*
X16430234Y-25624123D01*
X16430233Y-25624121D01*
X16428340Y-25619551D01*
X16302960Y-25414951D01*
X16218192Y-25315699D01*
X16150331Y-25236244D01*
X16147118Y-25232482D01*
X16038377Y-25139609D01*
X15999570Y-25080161D01*
X15999062Y-25009166D01*
X16038377Y-24947991D01*
X16147118Y-24855118D01*
X16302960Y-24672649D01*
X16428340Y-24468049D01*
X16520169Y-24246353D01*
X16564412Y-24062069D01*
X16575032Y-24017835D01*
X16575033Y-24017829D01*
X16576187Y-24013022D01*
X16595014Y-23773800D01*
X16576187Y-23534578D01*
X16575033Y-23529771D01*
X16575032Y-23529765D01*
X16527040Y-23329867D01*
X16520169Y-23301247D01*
X16449170Y-23129840D01*
X16430234Y-23084123D01*
X16430233Y-23084121D01*
X16428340Y-23079551D01*
X16302960Y-22874951D01*
X16218192Y-22775699D01*
X16150331Y-22696244D01*
X16147118Y-22692482D01*
X16038377Y-22599609D01*
X15999570Y-22540161D01*
X15999062Y-22469166D01*
X16038377Y-22407991D01*
X16147118Y-22315118D01*
X16302960Y-22132649D01*
X16428340Y-21928049D01*
X16520169Y-21706353D01*
X16564412Y-21522069D01*
X16575032Y-21477835D01*
X16575033Y-21477829D01*
X16576187Y-21473022D01*
X16595014Y-21233800D01*
X16576187Y-20994578D01*
X16575033Y-20989771D01*
X16575032Y-20989765D01*
X16527040Y-20789867D01*
X16520169Y-20761247D01*
X16449170Y-20589840D01*
X16430234Y-20544123D01*
X16430233Y-20544121D01*
X16428340Y-20539551D01*
X16302960Y-20334951D01*
X16218192Y-20235699D01*
X16150331Y-20156244D01*
X16147118Y-20152482D01*
X16038377Y-20059609D01*
X15999570Y-20000161D01*
X15999062Y-19929166D01*
X16038377Y-19867991D01*
X16147118Y-19775118D01*
X16302960Y-19592649D01*
X16428340Y-19388049D01*
X16520169Y-19166353D01*
X16564412Y-18982069D01*
X16575032Y-18937835D01*
X16575033Y-18937829D01*
X16576187Y-18933022D01*
X16595014Y-18693800D01*
X16576187Y-18454578D01*
X16575033Y-18449771D01*
X16575032Y-18449765D01*
X16527040Y-18249867D01*
X16520169Y-18221247D01*
X16518275Y-18216674D01*
X16430234Y-18004123D01*
X16430233Y-18004121D01*
X16428340Y-17999551D01*
X16302960Y-17794951D01*
X16218192Y-17695699D01*
X16150331Y-17616244D01*
X16147118Y-17612482D01*
X16038377Y-17519609D01*
X15999570Y-17460161D01*
X15999062Y-17389166D01*
X16038377Y-17327991D01*
X16147118Y-17235118D01*
X16302960Y-17052649D01*
X16428340Y-16848049D01*
X16520169Y-16626353D01*
X16539757Y-16544763D01*
X16575032Y-16397835D01*
X16575033Y-16397829D01*
X16576187Y-16393022D01*
X16595014Y-16153800D01*
X16576187Y-15914578D01*
X16575033Y-15909771D01*
X16575032Y-15909765D01*
X16527040Y-15709867D01*
X16520169Y-15681247D01*
X16518275Y-15676674D01*
X16430234Y-15464123D01*
X16430233Y-15464121D01*
X16428340Y-15459551D01*
X16302960Y-15254951D01*
X16275192Y-15222438D01*
X16150331Y-15076244D01*
X16147118Y-15072482D01*
X16038377Y-14979609D01*
X15999570Y-14920161D01*
X15999062Y-14849166D01*
X16038377Y-14787991D01*
X16147118Y-14695118D01*
X16302960Y-14512649D01*
X16428340Y-14308049D01*
X16448482Y-14259423D01*
X16518275Y-14090926D01*
X16518276Y-14090924D01*
X16520169Y-14086353D01*
X16539757Y-14004763D01*
X16575032Y-13857835D01*
X16575033Y-13857829D01*
X16576187Y-13853022D01*
X16595014Y-13613800D01*
X16576187Y-13374578D01*
X16575033Y-13369771D01*
X16575032Y-13369765D01*
X16527040Y-13169867D01*
X16520169Y-13141247D01*
X16490243Y-13068999D01*
X16430234Y-12924123D01*
X16430233Y-12924121D01*
X16428340Y-12919551D01*
X16302960Y-12714951D01*
X16218192Y-12615699D01*
X16150331Y-12536244D01*
X16147118Y-12532482D01*
X16038377Y-12439609D01*
X15999570Y-12380161D01*
X15999062Y-12309166D01*
X16038377Y-12247991D01*
X16147118Y-12155118D01*
X16302960Y-11972649D01*
X16428340Y-11768049D01*
X16511016Y-11568452D01*
X16518275Y-11550926D01*
X16518276Y-11550924D01*
X16520169Y-11546353D01*
X16544336Y-11445691D01*
X16575032Y-11317835D01*
X16575033Y-11317829D01*
X16576187Y-11313022D01*
X16595014Y-11073800D01*
X16576187Y-10834578D01*
X16575033Y-10829771D01*
X16575032Y-10829765D01*
X16536543Y-10669450D01*
X16520169Y-10601247D01*
X16518275Y-10596674D01*
X16430234Y-10384123D01*
X16430233Y-10384121D01*
X16428340Y-10379551D01*
X16302960Y-10174951D01*
X16296754Y-10167684D01*
X16150331Y-9996244D01*
X16147118Y-9992482D01*
X16038377Y-9899609D01*
X15999570Y-9840161D01*
X15999062Y-9769166D01*
X16038377Y-9707991D01*
X16147118Y-9615118D01*
X16302960Y-9432649D01*
X16428340Y-9228049D01*
X16520169Y-9006353D01*
X16573139Y-8785719D01*
X16575032Y-8777835D01*
X16575033Y-8777829D01*
X16576187Y-8773022D01*
X16595014Y-8533800D01*
X16576187Y-8294578D01*
X16575033Y-8289771D01*
X16575032Y-8289765D01*
X16521324Y-8066059D01*
X16520169Y-8061247D01*
X16428340Y-7839551D01*
X16302960Y-7634951D01*
X16302170Y-7634026D01*
X16278664Y-7568135D01*
X16294748Y-7498985D01*
X16328893Y-7460124D01*
X16445061Y-7373061D01*
X16532415Y-7256505D01*
X16583545Y-7120116D01*
X16590300Y-7057934D01*
X16590300Y-5626000D01*
X16610302Y-5557879D01*
X16663958Y-5511386D01*
X16716300Y-5500000D01*
X21076701Y-5500000D01*
X21144822Y-5520002D01*
X21191315Y-5573658D01*
X21201419Y-5643932D01*
X21199220Y-5655414D01*
X21176568Y-5749765D01*
X21176567Y-5749771D01*
X21175413Y-5754578D01*
X21156586Y-5993800D01*
X21175413Y-6233022D01*
X21176567Y-6237829D01*
X21176568Y-6237835D01*
X21211843Y-6384763D01*
X21231431Y-6466353D01*
X21233324Y-6470924D01*
X21233325Y-6470926D01*
X21293744Y-6616790D01*
X21323260Y-6688049D01*
X21448640Y-6892649D01*
X21604482Y-7075118D01*
X21713223Y-7167991D01*
X21752030Y-7227439D01*
X21752538Y-7298434D01*
X21713223Y-7359609D01*
X21604482Y-7452482D01*
X21448640Y-7634951D01*
X21323260Y-7839551D01*
X21231431Y-8061247D01*
X21230276Y-8066059D01*
X21176568Y-8289765D01*
X21176567Y-8289771D01*
X21175413Y-8294578D01*
X21156586Y-8533800D01*
X21175413Y-8773022D01*
X21176567Y-8777829D01*
X21176568Y-8777835D01*
X21178461Y-8785719D01*
X21231431Y-9006353D01*
X21323260Y-9228049D01*
X21448640Y-9432649D01*
X21604482Y-9615118D01*
X21713223Y-9707991D01*
X21752030Y-9767439D01*
X21752538Y-9838434D01*
X21713223Y-9899609D01*
X21604482Y-9992482D01*
X21601269Y-9996244D01*
X21454847Y-10167684D01*
X21448640Y-10174951D01*
X21323260Y-10379551D01*
X21321367Y-10384121D01*
X21321366Y-10384123D01*
X21233325Y-10596674D01*
X21231431Y-10601247D01*
X21215057Y-10669450D01*
X21176568Y-10829765D01*
X21176567Y-10829771D01*
X21175413Y-10834578D01*
X21156586Y-11073800D01*
X21175413Y-11313022D01*
X21176567Y-11317829D01*
X21176568Y-11317835D01*
X21207264Y-11445691D01*
X21231431Y-11546353D01*
X21233324Y-11550924D01*
X21233325Y-11550926D01*
X21240585Y-11568452D01*
X21323260Y-11768049D01*
X21448640Y-11972649D01*
X21604482Y-12155118D01*
X21713223Y-12247991D01*
X21752030Y-12307439D01*
X21752538Y-12378434D01*
X21713223Y-12439609D01*
X21604482Y-12532482D01*
X21601269Y-12536244D01*
X21533409Y-12615699D01*
X21448640Y-12714951D01*
X21323260Y-12919551D01*
X21321367Y-12924121D01*
X21321366Y-12924123D01*
X21261357Y-13068999D01*
X21231431Y-13141247D01*
X21224560Y-13169867D01*
X21176568Y-13369765D01*
X21176567Y-13369771D01*
X21175413Y-13374578D01*
X21156586Y-13613800D01*
X21175413Y-13853022D01*
X21176567Y-13857829D01*
X21176568Y-13857835D01*
X21211843Y-14004763D01*
X21231431Y-14086353D01*
X21233324Y-14090924D01*
X21233325Y-14090926D01*
X21303119Y-14259423D01*
X21323260Y-14308049D01*
X21448640Y-14512649D01*
X21604482Y-14695118D01*
X21713223Y-14787991D01*
X21752030Y-14847439D01*
X21752538Y-14918434D01*
X21713223Y-14979609D01*
X21604482Y-15072482D01*
X21601269Y-15076244D01*
X21476409Y-15222438D01*
X21448640Y-15254951D01*
X21323260Y-15459551D01*
X21321367Y-15464121D01*
X21321366Y-15464123D01*
X21233325Y-15676674D01*
X21231431Y-15681247D01*
X21224560Y-15709867D01*
X21176568Y-15909765D01*
X21176567Y-15909771D01*
X21175413Y-15914578D01*
X21156586Y-16153800D01*
X21175413Y-16393022D01*
X21176567Y-16397829D01*
X21176568Y-16397835D01*
X21211843Y-16544763D01*
X21231431Y-16626353D01*
X21323260Y-16848049D01*
X21448640Y-17052649D01*
X21604482Y-17235118D01*
X21713223Y-17327991D01*
X21752030Y-17387439D01*
X21752538Y-17458434D01*
X21713223Y-17519609D01*
X21604482Y-17612482D01*
X21601269Y-17616244D01*
X21533409Y-17695699D01*
X21448640Y-17794951D01*
X21323260Y-17999551D01*
X21321367Y-18004121D01*
X21321366Y-18004123D01*
X21233325Y-18216674D01*
X21231431Y-18221247D01*
X21224560Y-18249867D01*
X21176568Y-18449765D01*
X21176567Y-18449771D01*
X21175413Y-18454578D01*
X21156586Y-18693800D01*
X21175413Y-18933022D01*
X21176567Y-18937829D01*
X21176568Y-18937835D01*
X21187188Y-18982069D01*
X21231431Y-19166353D01*
X21323260Y-19388049D01*
X21448640Y-19592649D01*
X21604482Y-19775118D01*
X21713223Y-19867991D01*
X21752030Y-19927439D01*
X21752538Y-19998434D01*
X21713223Y-20059609D01*
X21604482Y-20152482D01*
X21601269Y-20156244D01*
X21533409Y-20235699D01*
X21448640Y-20334951D01*
X21323260Y-20539551D01*
X21321367Y-20544121D01*
X21321366Y-20544123D01*
X21302430Y-20589840D01*
X21231431Y-20761247D01*
X21224560Y-20789867D01*
X21176568Y-20989765D01*
X21176567Y-20989771D01*
X21175413Y-20994578D01*
X21156586Y-21233800D01*
X21175413Y-21473022D01*
X21176567Y-21477829D01*
X21176568Y-21477835D01*
X21187188Y-21522069D01*
X21231431Y-21706353D01*
X21323260Y-21928049D01*
X21448640Y-22132649D01*
X21604482Y-22315118D01*
X21713223Y-22407991D01*
X21752030Y-22467439D01*
X21752538Y-22538434D01*
X21713223Y-22599609D01*
X21604482Y-22692482D01*
X21601269Y-22696244D01*
X21533409Y-22775699D01*
X21448640Y-22874951D01*
X21323260Y-23079551D01*
X21321367Y-23084121D01*
X21321366Y-23084123D01*
X21302430Y-23129840D01*
X21231431Y-23301247D01*
X21224560Y-23329867D01*
X21176568Y-23529765D01*
X21176567Y-23529771D01*
X21175413Y-23534578D01*
X21156586Y-23773800D01*
X21175413Y-24013022D01*
X21176567Y-24017829D01*
X21176568Y-24017835D01*
X21187188Y-24062069D01*
X21231431Y-24246353D01*
X21323260Y-24468049D01*
X21448640Y-24672649D01*
X21604482Y-24855118D01*
X21713223Y-24947991D01*
X21752030Y-25007439D01*
X21752538Y-25078434D01*
X21713223Y-25139609D01*
X21604482Y-25232482D01*
X21601269Y-25236244D01*
X21533409Y-25315699D01*
X21448640Y-25414951D01*
X21323260Y-25619551D01*
X21321367Y-25624121D01*
X21321366Y-25624123D01*
X21299778Y-25676242D01*
X21231431Y-25841247D01*
X21224498Y-25870124D01*
X21176568Y-26069765D01*
X21176567Y-26069771D01*
X21175413Y-26074578D01*
X21156586Y-26313800D01*
X21175413Y-26553022D01*
X21176567Y-26557829D01*
X21176568Y-26557835D01*
X21183321Y-26585962D01*
X21231431Y-26786353D01*
X21233324Y-26790924D01*
X21233325Y-26790926D01*
X21292089Y-26932794D01*
X21323260Y-27008049D01*
X21448640Y-27212649D01*
X21604482Y-27395118D01*
X21713223Y-27487991D01*
X21752030Y-27547439D01*
X21752538Y-27618434D01*
X21713223Y-27679609D01*
X21604482Y-27772482D01*
X21601269Y-27776244D01*
X21457580Y-27944484D01*
X21448640Y-27954951D01*
X21323260Y-28159551D01*
X21321367Y-28164121D01*
X21321366Y-28164123D01*
X21303818Y-28206489D01*
X21231431Y-28381247D01*
X21223552Y-28414067D01*
X21176568Y-28609765D01*
X21176567Y-28609771D01*
X21175413Y-28614578D01*
X21156586Y-28853800D01*
X21175413Y-29093022D01*
X21176567Y-29097829D01*
X21176568Y-29097835D01*
X21184170Y-29129497D01*
X21231431Y-29326353D01*
X21323260Y-29548049D01*
X21448640Y-29752649D01*
X21451857Y-29756416D01*
X21451858Y-29756417D01*
X21540254Y-29859916D01*
X21604482Y-29935118D01*
X21786951Y-30090960D01*
X21991551Y-30216340D01*
X21996121Y-30218233D01*
X21996123Y-30218234D01*
X22090674Y-30257398D01*
X22213247Y-30308169D01*
X22294837Y-30327757D01*
X22441765Y-30363032D01*
X22441771Y-30363033D01*
X22446578Y-30364187D01*
X22685800Y-30383014D01*
X22925022Y-30364187D01*
X22929829Y-30363033D01*
X22929835Y-30363032D01*
X23076763Y-30327757D01*
X23158353Y-30308169D01*
X23280926Y-30257398D01*
X23375477Y-30218234D01*
X23375479Y-30218233D01*
X23380049Y-30216340D01*
X23584649Y-30090960D01*
X23767118Y-29935118D01*
X23831346Y-29859916D01*
X23919742Y-29756417D01*
X23919743Y-29756416D01*
X23922960Y-29752649D01*
X24048340Y-29548049D01*
X24140169Y-29326353D01*
X24187430Y-29129497D01*
X24188624Y-29124522D01*
X25442273Y-29124522D01*
X25489764Y-29301761D01*
X25493510Y-29312053D01*
X25585586Y-29509511D01*
X25591069Y-29519007D01*
X25716028Y-29697467D01*
X25723084Y-29705875D01*
X25877125Y-29859916D01*
X25885533Y-29866972D01*
X26063993Y-29991931D01*
X26073489Y-29997414D01*
X26270947Y-30089490D01*
X26281239Y-30093236D01*
X26453503Y-30139394D01*
X26467599Y-30139058D01*
X26471000Y-30131116D01*
X26471000Y-30125967D01*
X26979000Y-30125967D01*
X26982973Y-30139498D01*
X26991522Y-30140727D01*
X27168761Y-30093236D01*
X27179053Y-30089490D01*
X27376511Y-29997414D01*
X27386007Y-29991931D01*
X27564467Y-29866972D01*
X27572875Y-29859916D01*
X27726916Y-29705875D01*
X27733972Y-29697467D01*
X27858931Y-29519007D01*
X27864414Y-29509511D01*
X27956490Y-29312053D01*
X27960236Y-29301761D01*
X28006394Y-29129497D01*
X28006058Y-29115401D01*
X27998116Y-29112000D01*
X26997115Y-29112000D01*
X26981876Y-29116475D01*
X26980671Y-29117865D01*
X26979000Y-29125548D01*
X26979000Y-30125967D01*
X26471000Y-30125967D01*
X26471000Y-29130115D01*
X26466525Y-29114876D01*
X26465135Y-29113671D01*
X26457452Y-29112000D01*
X25457033Y-29112000D01*
X25443502Y-29115973D01*
X25442273Y-29124522D01*
X24188624Y-29124522D01*
X24195032Y-29097835D01*
X24195033Y-29097829D01*
X24196187Y-29093022D01*
X24214683Y-28858000D01*
X33031502Y-28858000D01*
X33051457Y-29086087D01*
X33052881Y-29091400D01*
X33052881Y-29091402D01*
X33062031Y-29125548D01*
X33110716Y-29307243D01*
X33113039Y-29312224D01*
X33113039Y-29312225D01*
X33205151Y-29509762D01*
X33205154Y-29509767D01*
X33207477Y-29514749D01*
X33338802Y-29702300D01*
X33500700Y-29864198D01*
X33505208Y-29867355D01*
X33505211Y-29867357D01*
X33583389Y-29922098D01*
X33688251Y-29995523D01*
X33693233Y-29997846D01*
X33693238Y-29997849D01*
X33889765Y-30089490D01*
X33895757Y-30092284D01*
X33901065Y-30093706D01*
X33901067Y-30093707D01*
X34111598Y-30150119D01*
X34111600Y-30150119D01*
X34116913Y-30151543D01*
X34345000Y-30171498D01*
X34573087Y-30151543D01*
X34687848Y-30120793D01*
X34720457Y-30116500D01*
X36922681Y-30116500D01*
X36990802Y-30136502D01*
X36998242Y-30141671D01*
X37083295Y-30205415D01*
X37219684Y-30256545D01*
X37281866Y-30263300D01*
X39078134Y-30263300D01*
X39140316Y-30256545D01*
X39276705Y-30205415D01*
X39393261Y-30118061D01*
X39480615Y-30001505D01*
X39531745Y-29865116D01*
X39538500Y-29802934D01*
X39538500Y-28006666D01*
X39531745Y-27944484D01*
X39480615Y-27808095D01*
X39393261Y-27691539D01*
X39276705Y-27604185D01*
X39140316Y-27553055D01*
X39133242Y-27552287D01*
X39071896Y-27517241D01*
X39039076Y-27454286D01*
X39045502Y-27383581D01*
X39073749Y-27340625D01*
X39214057Y-27200805D01*
X39220730Y-27192965D01*
X39345003Y-27020020D01*
X39350313Y-27011183D01*
X39444670Y-26820267D01*
X39448469Y-26810672D01*
X39510377Y-26606910D01*
X39512555Y-26596837D01*
X39513986Y-26585962D01*
X39511775Y-26571778D01*
X39498617Y-26568000D01*
X36863225Y-26568000D01*
X36849694Y-26571973D01*
X36848257Y-26581966D01*
X36878565Y-26716446D01*
X36881645Y-26726275D01*
X36961770Y-26923603D01*
X36966413Y-26932794D01*
X37077694Y-27114388D01*
X37083777Y-27122699D01*
X37223213Y-27283667D01*
X37230580Y-27290883D01*
X37280465Y-27332298D01*
X37320100Y-27391201D01*
X37321598Y-27462182D01*
X37284483Y-27522704D01*
X37229125Y-27551825D01*
X37227542Y-27552201D01*
X37219684Y-27553055D01*
X37212285Y-27555829D01*
X37212284Y-27555829D01*
X37117180Y-27591482D01*
X37072951Y-27599500D01*
X35194877Y-27599500D01*
X35126756Y-27579498D01*
X35080263Y-27525842D01*
X35070159Y-27455568D01*
X35099653Y-27390988D01*
X35122607Y-27370287D01*
X35184462Y-27326976D01*
X35192875Y-27319916D01*
X35346916Y-27165875D01*
X35353972Y-27157467D01*
X35478931Y-26979007D01*
X35484414Y-26969511D01*
X35576490Y-26772053D01*
X35580236Y-26761761D01*
X35626394Y-26589497D01*
X35626058Y-26575401D01*
X35618116Y-26572000D01*
X33077033Y-26572000D01*
X33063502Y-26575973D01*
X33062273Y-26584522D01*
X33109764Y-26761761D01*
X33113510Y-26772053D01*
X33205586Y-26969511D01*
X33211069Y-26979007D01*
X33336028Y-27157467D01*
X33343084Y-27165875D01*
X33497125Y-27319916D01*
X33505533Y-27326972D01*
X33683993Y-27451931D01*
X33693489Y-27457414D01*
X33728049Y-27473529D01*
X33781334Y-27520446D01*
X33800795Y-27588723D01*
X33780253Y-27656683D01*
X33728049Y-27701919D01*
X33693238Y-27718151D01*
X33693233Y-27718154D01*
X33688251Y-27720477D01*
X33608608Y-27776244D01*
X33505211Y-27848643D01*
X33505208Y-27848645D01*
X33500700Y-27851802D01*
X33338802Y-28013700D01*
X33207477Y-28201251D01*
X33205154Y-28206233D01*
X33205151Y-28206238D01*
X33205034Y-28206489D01*
X33110716Y-28408757D01*
X33051457Y-28629913D01*
X33031502Y-28858000D01*
X24214683Y-28858000D01*
X24215014Y-28853800D01*
X24196187Y-28614578D01*
X24195033Y-28609771D01*
X24195032Y-28609765D01*
X24148048Y-28414067D01*
X24140169Y-28381247D01*
X24067782Y-28206489D01*
X24050234Y-28164123D01*
X24050233Y-28164121D01*
X24048340Y-28159551D01*
X23922960Y-27954951D01*
X23914021Y-27944484D01*
X23770331Y-27776244D01*
X23767118Y-27772482D01*
X23658377Y-27679609D01*
X23619570Y-27620161D01*
X23619062Y-27549166D01*
X23658377Y-27487991D01*
X23767118Y-27395118D01*
X23922960Y-27212649D01*
X24048340Y-27008049D01*
X24079512Y-26932794D01*
X24138275Y-26790926D01*
X24138276Y-26790924D01*
X24140169Y-26786353D01*
X24188279Y-26585962D01*
X24195032Y-26557835D01*
X24195033Y-26557829D01*
X24196187Y-26553022D01*
X24215014Y-26313800D01*
X24202843Y-26159153D01*
X24217439Y-26089674D01*
X24267282Y-26039114D01*
X24336546Y-26023528D01*
X24395608Y-26042655D01*
X24832749Y-26318000D01*
X25438447Y-26699515D01*
X25485426Y-26752744D01*
X25489394Y-26762311D01*
X25490716Y-26767243D01*
X25493039Y-26772225D01*
X25493040Y-26772227D01*
X25585151Y-26969762D01*
X25585154Y-26969767D01*
X25587477Y-26974749D01*
X25613751Y-27012272D01*
X25685254Y-27114388D01*
X25718802Y-27162300D01*
X25880700Y-27324198D01*
X25885208Y-27327355D01*
X25885211Y-27327357D01*
X25892268Y-27332298D01*
X26068251Y-27455523D01*
X26073233Y-27457846D01*
X26073238Y-27457849D01*
X26108049Y-27474081D01*
X26161334Y-27520998D01*
X26180795Y-27589275D01*
X26160253Y-27657235D01*
X26108049Y-27702471D01*
X26073489Y-27718586D01*
X26063993Y-27724069D01*
X25885533Y-27849028D01*
X25877125Y-27856084D01*
X25723084Y-28010125D01*
X25716028Y-28018533D01*
X25591069Y-28196993D01*
X25585586Y-28206489D01*
X25493510Y-28403947D01*
X25489764Y-28414239D01*
X25443606Y-28586503D01*
X25443942Y-28600599D01*
X25451884Y-28604000D01*
X27992967Y-28604000D01*
X28006498Y-28600027D01*
X28007727Y-28591478D01*
X27960236Y-28414239D01*
X27956490Y-28403947D01*
X27864414Y-28206489D01*
X27858931Y-28196993D01*
X27733972Y-28018533D01*
X27726916Y-28010125D01*
X27572875Y-27856084D01*
X27564467Y-27849028D01*
X27386007Y-27724069D01*
X27376511Y-27718586D01*
X27341951Y-27702471D01*
X27288666Y-27655554D01*
X27269205Y-27587277D01*
X27289747Y-27519317D01*
X27341951Y-27474081D01*
X27376762Y-27457849D01*
X27376767Y-27457846D01*
X27381749Y-27455523D01*
X27557732Y-27332298D01*
X27564789Y-27327357D01*
X27564792Y-27327355D01*
X27569300Y-27324198D01*
X27731198Y-27162300D01*
X27764747Y-27114388D01*
X27836249Y-27012272D01*
X27862523Y-26974749D01*
X27864846Y-26969767D01*
X27864849Y-26969762D01*
X27956961Y-26772225D01*
X27956961Y-26772224D01*
X27959284Y-26767243D01*
X27970262Y-26726275D01*
X28017119Y-26551402D01*
X28017119Y-26551400D01*
X28018543Y-26546087D01*
X28038498Y-26318000D01*
X28018543Y-26089913D01*
X28008244Y-26051478D01*
X27960707Y-25874067D01*
X27960706Y-25874065D01*
X27959284Y-25868757D01*
X27944324Y-25836674D01*
X27864849Y-25666238D01*
X27864846Y-25666233D01*
X27862523Y-25661251D01*
X27731198Y-25473700D01*
X27569300Y-25311802D01*
X27564792Y-25308645D01*
X27564789Y-25308643D01*
X27461392Y-25236244D01*
X27381749Y-25180477D01*
X27376767Y-25178154D01*
X27376762Y-25178151D01*
X27342543Y-25162195D01*
X27289258Y-25115278D01*
X27269797Y-25047001D01*
X27290339Y-24979041D01*
X27342543Y-24933805D01*
X27376762Y-24917849D01*
X27376767Y-24917846D01*
X27381749Y-24915523D01*
X27525063Y-24815173D01*
X27564789Y-24787357D01*
X27564792Y-24787355D01*
X27569300Y-24784198D01*
X27731198Y-24622300D01*
X27862523Y-24434749D01*
X27864846Y-24429767D01*
X27864849Y-24429762D01*
X27956961Y-24232225D01*
X27956961Y-24232224D01*
X27959284Y-24227243D01*
X28018543Y-24006087D01*
X28038498Y-23778000D01*
X28018543Y-23549913D01*
X28017119Y-23544598D01*
X27960707Y-23334067D01*
X27960706Y-23334065D01*
X27959284Y-23328757D01*
X27956961Y-23323775D01*
X27864849Y-23126238D01*
X27864846Y-23126233D01*
X27862523Y-23121251D01*
X27731198Y-22933700D01*
X27569300Y-22771802D01*
X27564792Y-22768645D01*
X27564789Y-22768643D01*
X27461392Y-22696244D01*
X27381749Y-22640477D01*
X27376767Y-22638154D01*
X27376762Y-22638151D01*
X27342543Y-22622195D01*
X27289258Y-22575278D01*
X27269797Y-22507001D01*
X27290339Y-22439041D01*
X27342543Y-22393805D01*
X27376762Y-22377849D01*
X27376767Y-22377846D01*
X27381749Y-22375523D01*
X27525063Y-22275173D01*
X27564789Y-22247357D01*
X27564792Y-22247355D01*
X27569300Y-22244198D01*
X27731198Y-22082300D01*
X27862523Y-21894749D01*
X27864846Y-21889767D01*
X27864849Y-21889762D01*
X27956961Y-21692225D01*
X27956961Y-21692224D01*
X27959284Y-21687243D01*
X28018543Y-21466087D01*
X28038498Y-21238000D01*
X28018543Y-21009913D01*
X28017119Y-21004598D01*
X27960707Y-20794067D01*
X27960706Y-20794065D01*
X27959284Y-20788757D01*
X27956961Y-20783775D01*
X27864849Y-20586238D01*
X27864846Y-20586233D01*
X27862523Y-20581251D01*
X27731198Y-20393700D01*
X27569300Y-20231802D01*
X27564792Y-20228645D01*
X27564789Y-20228643D01*
X27461392Y-20156244D01*
X27381749Y-20100477D01*
X27376767Y-20098154D01*
X27376762Y-20098151D01*
X27342543Y-20082195D01*
X27289258Y-20035278D01*
X27269797Y-19967001D01*
X27290339Y-19899041D01*
X27342543Y-19853805D01*
X27376762Y-19837849D01*
X27376767Y-19837846D01*
X27381749Y-19835523D01*
X27525063Y-19735173D01*
X27564789Y-19707357D01*
X27564792Y-19707355D01*
X27569300Y-19704198D01*
X27731198Y-19542300D01*
X27735538Y-19536103D01*
X27801213Y-19442309D01*
X27862523Y-19354749D01*
X27864846Y-19349767D01*
X27864849Y-19349762D01*
X27956961Y-19152225D01*
X27956961Y-19152224D01*
X27959284Y-19147243D01*
X28014651Y-18940614D01*
X28017119Y-18931402D01*
X28017119Y-18931400D01*
X28018543Y-18926087D01*
X28038498Y-18698000D01*
X28018543Y-18469913D01*
X28016959Y-18464002D01*
X27960707Y-18254067D01*
X27960706Y-18254065D01*
X27959284Y-18248757D01*
X27956961Y-18243775D01*
X27864849Y-18046238D01*
X27864846Y-18046233D01*
X27862523Y-18041251D01*
X27731198Y-17853700D01*
X27569300Y-17691802D01*
X27564792Y-17688645D01*
X27564789Y-17688643D01*
X27461392Y-17616244D01*
X27381749Y-17560477D01*
X27376767Y-17558154D01*
X27376762Y-17558151D01*
X27342543Y-17542195D01*
X27289258Y-17495278D01*
X27269797Y-17427001D01*
X27290339Y-17359041D01*
X27342543Y-17313805D01*
X27376762Y-17297849D01*
X27376767Y-17297846D01*
X27381749Y-17295523D01*
X27486611Y-17222098D01*
X27564789Y-17167357D01*
X27564792Y-17167355D01*
X27569300Y-17164198D01*
X27731198Y-17002300D01*
X27862523Y-16814749D01*
X27864846Y-16809767D01*
X27864849Y-16809762D01*
X27956961Y-16612225D01*
X27956961Y-16612224D01*
X27959284Y-16607243D01*
X28018543Y-16386087D01*
X28038498Y-16158000D01*
X28018543Y-15929913D01*
X28017119Y-15924598D01*
X27960707Y-15714067D01*
X27960706Y-15714065D01*
X27959284Y-15708757D01*
X27956961Y-15703775D01*
X27864849Y-15506238D01*
X27864846Y-15506233D01*
X27862523Y-15501251D01*
X27731198Y-15313700D01*
X27569300Y-15151802D01*
X27564792Y-15148645D01*
X27564789Y-15148643D01*
X27461392Y-15076244D01*
X27381749Y-15020477D01*
X27376767Y-15018154D01*
X27376762Y-15018151D01*
X27342543Y-15002195D01*
X27289258Y-14955278D01*
X27269797Y-14887001D01*
X27290339Y-14819041D01*
X27342543Y-14773805D01*
X27376762Y-14757849D01*
X27376767Y-14757846D01*
X27381749Y-14755523D01*
X27508690Y-14666638D01*
X27564789Y-14627357D01*
X27564792Y-14627355D01*
X27569300Y-14624198D01*
X27731198Y-14462300D01*
X27749953Y-14435516D01*
X27818967Y-14336953D01*
X27862523Y-14274749D01*
X27864846Y-14269767D01*
X27864849Y-14269762D01*
X27956961Y-14072225D01*
X27956961Y-14072224D01*
X27959284Y-14067243D01*
X28005921Y-13893195D01*
X28017119Y-13851402D01*
X28017119Y-13851400D01*
X28018543Y-13846087D01*
X28038498Y-13618000D01*
X28018543Y-13389913D01*
X28017119Y-13384598D01*
X27960707Y-13174067D01*
X27960706Y-13174065D01*
X27959284Y-13168757D01*
X27956961Y-13163775D01*
X27864849Y-12966238D01*
X27864846Y-12966233D01*
X27862523Y-12961251D01*
X27742031Y-12789171D01*
X27734357Y-12778211D01*
X27734355Y-12778208D01*
X27731198Y-12773700D01*
X27569300Y-12611802D01*
X27564789Y-12608643D01*
X27560576Y-12605108D01*
X27561527Y-12603974D01*
X27521529Y-12553929D01*
X27514224Y-12483310D01*
X27546258Y-12419951D01*
X27607462Y-12383970D01*
X27624517Y-12380918D01*
X27635316Y-12379745D01*
X27771705Y-12328615D01*
X27888261Y-12241261D01*
X27975615Y-12124705D01*
X28026745Y-11988316D01*
X28033500Y-11926134D01*
X28033500Y-10229866D01*
X28026745Y-10167684D01*
X27975615Y-10031295D01*
X27888261Y-9914739D01*
X27771705Y-9827385D01*
X27635316Y-9776255D01*
X27573134Y-9769500D01*
X26576236Y-9769500D01*
X26509083Y-9750113D01*
X24997257Y-8797848D01*
X24239212Y-8320373D01*
X24192232Y-8267143D01*
X24183846Y-8243174D01*
X24141324Y-8066059D01*
X24140169Y-8061247D01*
X24048340Y-7839551D01*
X23922960Y-7634951D01*
X23767118Y-7452482D01*
X23658377Y-7359609D01*
X23619570Y-7300161D01*
X23619062Y-7229166D01*
X23658377Y-7167991D01*
X23767118Y-7075118D01*
X23922960Y-6892649D01*
X23972099Y-6812462D01*
X24024744Y-6764834D01*
X24079529Y-6752300D01*
X25113429Y-6752300D01*
X25181550Y-6772302D01*
X25202524Y-6789205D01*
X32520230Y-14106911D01*
X32532616Y-14121323D01*
X32541149Y-14132918D01*
X32541154Y-14132923D01*
X32545492Y-14138818D01*
X32551070Y-14143557D01*
X32551073Y-14143560D01*
X32585768Y-14173035D01*
X32593284Y-14179965D01*
X32598979Y-14185660D01*
X32601861Y-14187940D01*
X32621251Y-14203281D01*
X32624655Y-14206072D01*
X32674703Y-14248591D01*
X32680285Y-14253333D01*
X32686801Y-14256661D01*
X32691850Y-14260028D01*
X32696979Y-14263195D01*
X32702716Y-14267734D01*
X32768893Y-14298663D01*
X32772775Y-14300561D01*
X32787439Y-14308049D01*
X32811834Y-14320506D01*
X32843627Y-14343627D01*
X32963095Y-14463095D01*
X32997121Y-14525407D01*
X33000000Y-14552190D01*
X33000000Y-18000000D01*
X33029484Y-18000000D01*
X33097605Y-18020002D01*
X33144098Y-18073658D01*
X33154202Y-18143932D01*
X33143679Y-18179250D01*
X33113510Y-18243947D01*
X33109764Y-18254239D01*
X33063606Y-18426503D01*
X33063942Y-18440599D01*
X33071884Y-18444000D01*
X34473000Y-18444000D01*
X34541121Y-18464002D01*
X34587614Y-18517658D01*
X34599000Y-18570000D01*
X34599000Y-18826000D01*
X34578998Y-18894121D01*
X34525342Y-18940614D01*
X34473000Y-18952000D01*
X33077033Y-18952000D01*
X33063502Y-18955973D01*
X33062273Y-18964522D01*
X33109764Y-19141761D01*
X33113510Y-19152053D01*
X33192175Y-19320750D01*
X33202836Y-19390942D01*
X33173856Y-19455754D01*
X33114436Y-19494611D01*
X33077980Y-19500000D01*
X33000000Y-19500000D01*
X33000000Y-25500000D01*
X33085441Y-25500000D01*
X33153562Y-25520002D01*
X33200055Y-25573658D01*
X33210159Y-25643932D01*
X33199636Y-25679250D01*
X33113510Y-25863947D01*
X33109764Y-25874239D01*
X33063606Y-26046503D01*
X33063942Y-26060599D01*
X33071884Y-26064000D01*
X35612967Y-26064000D01*
X35626498Y-26060027D01*
X35627727Y-26051478D01*
X35580236Y-25874239D01*
X35576490Y-25863947D01*
X35490364Y-25679250D01*
X35479703Y-25609058D01*
X35508683Y-25544246D01*
X35568103Y-25505389D01*
X35604559Y-25500000D01*
X36863195Y-25500000D01*
X36931316Y-25520002D01*
X36977809Y-25573658D01*
X36987913Y-25643932D01*
X36977483Y-25679050D01*
X36903339Y-25838783D01*
X36899775Y-25848470D01*
X36844389Y-26048183D01*
X36845912Y-26056607D01*
X36858292Y-26060000D01*
X39498344Y-26060000D01*
X39511875Y-26056027D01*
X39513180Y-26046947D01*
X39471214Y-25879875D01*
X39467894Y-25870124D01*
X39383593Y-25676242D01*
X39374774Y-25605795D01*
X39405440Y-25541764D01*
X39465857Y-25504476D01*
X39499143Y-25500000D01*
X40500000Y-25500000D01*
X40500000Y-15500000D01*
X39513302Y-13526604D01*
X39500000Y-13470255D01*
X39500000Y-13195000D01*
X39520002Y-13126879D01*
X39573658Y-13080386D01*
X39602504Y-13074111D01*
X39602502Y-13074104D01*
X39635124Y-13064525D01*
X39636329Y-13063135D01*
X39638000Y-13055452D01*
X39638000Y-13050884D01*
X40146000Y-13050884D01*
X40150475Y-13066123D01*
X40151865Y-13067328D01*
X40159548Y-13068999D01*
X40189095Y-13068999D01*
X40195614Y-13068662D01*
X40291206Y-13058743D01*
X40304600Y-13055851D01*
X40458784Y-13004412D01*
X40471962Y-12998239D01*
X40609807Y-12912937D01*
X40621208Y-12903901D01*
X40735739Y-12789171D01*
X40744751Y-12777760D01*
X40829816Y-12639757D01*
X40835963Y-12626576D01*
X40887138Y-12472290D01*
X40890005Y-12458914D01*
X40899672Y-12364562D01*
X40900000Y-12358146D01*
X40900000Y-12108115D01*
X40895525Y-12092876D01*
X40894135Y-12091671D01*
X40886452Y-12090000D01*
X40164115Y-12090000D01*
X40148876Y-12094475D01*
X40147671Y-12095865D01*
X40146000Y-12103548D01*
X40146000Y-13050884D01*
X39638000Y-13050884D01*
X39638000Y-11563885D01*
X40146000Y-11563885D01*
X40150475Y-11579124D01*
X40151865Y-11580329D01*
X40159548Y-11582000D01*
X40881884Y-11582000D01*
X40897123Y-11577525D01*
X40898328Y-11576135D01*
X40899999Y-11568452D01*
X40899999Y-11313905D01*
X40899662Y-11307386D01*
X40889743Y-11211794D01*
X40886851Y-11198400D01*
X40835412Y-11044216D01*
X40829239Y-11031038D01*
X40743937Y-10893193D01*
X40734901Y-10881792D01*
X40620171Y-10767261D01*
X40608760Y-10758249D01*
X40470757Y-10673184D01*
X40457576Y-10667037D01*
X40303290Y-10615862D01*
X40289914Y-10612995D01*
X40195562Y-10603328D01*
X40189145Y-10603000D01*
X40164115Y-10603000D01*
X40148876Y-10607475D01*
X40147671Y-10608865D01*
X40146000Y-10616548D01*
X40146000Y-11563885D01*
X39638000Y-11563885D01*
X39638000Y-10621116D01*
X39633525Y-10605877D01*
X39632135Y-10604672D01*
X39611217Y-10600122D01*
X39611516Y-10598748D01*
X39557879Y-10582999D01*
X39511386Y-10529343D01*
X39500000Y-10477001D01*
X39500000Y-7334062D01*
X39914391Y-7334062D01*
X39923687Y-7346077D01*
X39974892Y-7381931D01*
X39984387Y-7387414D01*
X40181845Y-7479490D01*
X40192137Y-7483236D01*
X40402586Y-7539625D01*
X40413379Y-7541528D01*
X40630423Y-7560517D01*
X40641373Y-7560517D01*
X40858417Y-7541528D01*
X40869210Y-7539625D01*
X41079659Y-7483236D01*
X41089951Y-7479490D01*
X41287409Y-7387414D01*
X41296904Y-7381931D01*
X41348946Y-7345491D01*
X41357322Y-7335012D01*
X41350254Y-7321566D01*
X40648710Y-6620022D01*
X40634766Y-6612408D01*
X40632933Y-6612539D01*
X40626318Y-6616790D01*
X39920821Y-7322287D01*
X39914391Y-7334062D01*
X39500000Y-7334062D01*
X39500000Y-7071236D01*
X39520002Y-7003115D01*
X39549236Y-6976326D01*
X39548799Y-6975889D01*
X40263876Y-6260812D01*
X40270254Y-6249132D01*
X41000306Y-6249132D01*
X41000437Y-6250965D01*
X41004688Y-6257580D01*
X41710185Y-6963077D01*
X41721960Y-6969507D01*
X41733975Y-6960211D01*
X41769829Y-6909006D01*
X41775312Y-6899511D01*
X41867388Y-6702053D01*
X41871134Y-6691761D01*
X41927523Y-6481312D01*
X41929426Y-6470519D01*
X41948415Y-6253475D01*
X41948415Y-6242525D01*
X41929426Y-6025481D01*
X41927523Y-6014688D01*
X41871134Y-5804239D01*
X41867388Y-5793947D01*
X41775312Y-5596489D01*
X41769829Y-5586994D01*
X41733389Y-5534952D01*
X41722910Y-5526576D01*
X41709464Y-5533644D01*
X41007920Y-6235188D01*
X41000306Y-6249132D01*
X40270254Y-6249132D01*
X40271490Y-6246868D01*
X40271359Y-6245035D01*
X40267108Y-6238420D01*
X39548799Y-5520111D01*
X39549708Y-5519202D01*
X39515411Y-5484904D01*
X39500000Y-5424521D01*
X39500000Y-5160988D01*
X39914474Y-5160988D01*
X39921542Y-5174434D01*
X40623086Y-5875978D01*
X40637030Y-5883592D01*
X40638863Y-5883461D01*
X40645478Y-5879210D01*
X41350975Y-5173713D01*
X41357405Y-5161938D01*
X41348109Y-5149923D01*
X41296904Y-5114069D01*
X41287409Y-5108586D01*
X41089951Y-5016510D01*
X41079659Y-5012764D01*
X40869210Y-4956375D01*
X40858417Y-4954472D01*
X40641373Y-4935483D01*
X40630423Y-4935483D01*
X40413379Y-4954472D01*
X40402586Y-4956375D01*
X40192137Y-5012764D01*
X40181845Y-5016510D01*
X39984387Y-5108586D01*
X39974892Y-5114069D01*
X39922850Y-5150509D01*
X39914474Y-5160988D01*
X39500000Y-5160988D01*
X39500000Y-634500D01*
X39520002Y-566379D01*
X39573658Y-519886D01*
X39626000Y-508500D01*
X44365500Y-508500D01*
X44433621Y-528502D01*
G37*
%TD.AperFunction*%
%TD*%
%TA.AperFunction,Conductor*%
%TO.N,Net-(BAR1-Pad8)*%
G36*
X15036136Y-22823581D02*
G01*
X15085534Y-22874575D01*
X15100000Y-22933194D01*
X15100000Y-24663063D01*
X15079998Y-24731184D01*
X15026342Y-24777677D01*
X14963536Y-24788628D01*
X11615536Y-24509628D01*
X11549312Y-24484038D01*
X11507435Y-24426706D01*
X11500000Y-24384063D01*
X11500000Y-23119194D01*
X11520002Y-23051073D01*
X11573658Y-23004580D01*
X11619010Y-22993388D01*
X14967012Y-22807388D01*
X15036136Y-22823581D01*
G37*
%TD.AperFunction*%
%TD*%
%TA.AperFunction,Conductor*%
%TO.N,Net-(BAR1-Pad3)*%
G36*
X15036136Y-10123581D02*
G01*
X15085534Y-10174575D01*
X15100000Y-10233194D01*
X15100000Y-11831166D01*
X15079998Y-11899287D01*
X15026342Y-11945780D01*
X14968301Y-11957037D01*
X11620301Y-11805447D01*
X11553155Y-11782384D01*
X11509136Y-11726681D01*
X11500000Y-11679576D01*
X11500000Y-10419194D01*
X11520002Y-10351073D01*
X11573658Y-10304580D01*
X11619010Y-10293388D01*
X14967012Y-10107388D01*
X15036136Y-10123581D01*
G37*
%TD.AperFunction*%
%TD*%
%TA.AperFunction,Conductor*%
%TO.N,VCC*%
G36*
X38442121Y-528502D02*
G01*
X38488614Y-582158D01*
X38500000Y-634500D01*
X38500000Y-4983995D01*
X38479998Y-5052116D01*
X38426342Y-5098609D01*
X38356068Y-5108713D01*
X38298435Y-5084821D01*
X38189547Y-5003214D01*
X38173952Y-4994676D01*
X38053504Y-4949522D01*
X38038249Y-4945895D01*
X37987384Y-4940369D01*
X37980570Y-4940000D01*
X37408013Y-4940000D01*
X37392774Y-4944475D01*
X37391569Y-4945865D01*
X37389898Y-4953548D01*
X37389898Y-7537884D01*
X37394373Y-7553123D01*
X37395763Y-7554328D01*
X37403446Y-7555999D01*
X37980567Y-7555999D01*
X37987388Y-7555629D01*
X38038250Y-7550105D01*
X38053502Y-7546479D01*
X38173952Y-7501324D01*
X38189547Y-7492786D01*
X38298435Y-7411179D01*
X38364942Y-7386331D01*
X38434324Y-7401384D01*
X38484554Y-7451558D01*
X38500000Y-7512005D01*
X38500000Y-10484704D01*
X38479998Y-10552825D01*
X38426342Y-10599318D01*
X38361159Y-10610048D01*
X38295565Y-10603328D01*
X38289145Y-10603000D01*
X38264115Y-10603000D01*
X38248876Y-10607475D01*
X38247671Y-10608865D01*
X38246000Y-10616548D01*
X38246000Y-13050884D01*
X38250475Y-13066123D01*
X38251865Y-13067328D01*
X38259548Y-13068999D01*
X38289095Y-13068999D01*
X38295614Y-13068662D01*
X38360997Y-13061878D01*
X38430818Y-13074743D01*
X38482600Y-13123314D01*
X38500000Y-13187205D01*
X38500000Y-13500000D01*
X38781693Y-14063385D01*
X39056825Y-14613651D01*
X39069399Y-14683525D01*
X39042200Y-14749105D01*
X38983864Y-14789570D01*
X38944127Y-14796000D01*
X38452115Y-14796000D01*
X38436876Y-14800475D01*
X38435671Y-14801865D01*
X38434000Y-14809548D01*
X38434000Y-16282000D01*
X38413998Y-16350121D01*
X38360342Y-16396614D01*
X38308000Y-16408000D01*
X36840116Y-16408000D01*
X36824877Y-16412475D01*
X36807949Y-16432011D01*
X36793495Y-16458480D01*
X36731182Y-16492504D01*
X36660366Y-16487438D01*
X36601871Y-16442619D01*
X36201347Y-15881885D01*
X36822000Y-15881885D01*
X36826475Y-15897124D01*
X36827865Y-15898329D01*
X36835548Y-15900000D01*
X37907885Y-15900000D01*
X37923124Y-15895525D01*
X37924329Y-15894135D01*
X37926000Y-15886452D01*
X37926000Y-14814116D01*
X37921525Y-14798877D01*
X37920135Y-14797672D01*
X37912452Y-14796001D01*
X37285331Y-14796001D01*
X37278510Y-14796371D01*
X37227648Y-14801895D01*
X37212396Y-14805521D01*
X37091946Y-14850676D01*
X37076351Y-14859214D01*
X36974276Y-14935715D01*
X36961715Y-14948276D01*
X36885214Y-15050351D01*
X36876676Y-15065946D01*
X36831522Y-15186394D01*
X36827895Y-15201649D01*
X36822369Y-15252514D01*
X36822000Y-15259328D01*
X36822000Y-15881885D01*
X36201347Y-15881885D01*
X35751796Y-15252514D01*
X35317664Y-14644729D01*
X35294346Y-14577672D01*
X35310983Y-14508652D01*
X35331099Y-14482399D01*
X35351198Y-14462300D01*
X35482523Y-14274749D01*
X35484846Y-14269767D01*
X35484849Y-14269762D01*
X35576961Y-14072225D01*
X35576961Y-14072224D01*
X35579284Y-14067243D01*
X35631154Y-13873665D01*
X35637119Y-13851402D01*
X35637119Y-13851400D01*
X35638543Y-13846087D01*
X35658498Y-13618000D01*
X35638543Y-13389913D01*
X35630474Y-13359800D01*
X35580707Y-13174067D01*
X35580706Y-13174065D01*
X35579284Y-13168757D01*
X35532767Y-13069000D01*
X35484849Y-12966238D01*
X35484846Y-12966233D01*
X35482523Y-12961251D01*
X35359354Y-12785348D01*
X35354357Y-12778211D01*
X35354355Y-12778208D01*
X35351198Y-12773700D01*
X35189300Y-12611802D01*
X35184792Y-12608645D01*
X35184789Y-12608643D01*
X35093486Y-12544712D01*
X35001749Y-12480477D01*
X34996767Y-12478154D01*
X34996762Y-12478151D01*
X34961951Y-12461919D01*
X34908666Y-12415002D01*
X34892446Y-12358095D01*
X36984001Y-12358095D01*
X36984338Y-12364614D01*
X36994257Y-12460206D01*
X36997149Y-12473600D01*
X37048588Y-12627784D01*
X37054761Y-12640962D01*
X37140063Y-12778807D01*
X37149099Y-12790208D01*
X37263829Y-12904739D01*
X37275240Y-12913751D01*
X37413243Y-12998816D01*
X37426424Y-13004963D01*
X37580710Y-13056138D01*
X37594086Y-13059005D01*
X37688438Y-13068672D01*
X37694854Y-13069000D01*
X37719885Y-13069000D01*
X37735124Y-13064525D01*
X37736329Y-13063135D01*
X37738000Y-13055452D01*
X37738000Y-12108115D01*
X37733525Y-12092876D01*
X37732135Y-12091671D01*
X37724452Y-12090000D01*
X37002116Y-12090000D01*
X36986877Y-12094475D01*
X36985672Y-12095865D01*
X36984001Y-12103548D01*
X36984001Y-12358095D01*
X34892446Y-12358095D01*
X34889205Y-12346725D01*
X34909747Y-12278765D01*
X34961951Y-12233529D01*
X34996511Y-12217414D01*
X35006007Y-12211931D01*
X35184467Y-12086972D01*
X35192875Y-12079916D01*
X35346916Y-11925875D01*
X35353972Y-11917467D01*
X35478931Y-11739007D01*
X35484414Y-11729511D01*
X35561647Y-11563885D01*
X36984000Y-11563885D01*
X36988475Y-11579124D01*
X36989865Y-11580329D01*
X36997548Y-11582000D01*
X37719885Y-11582000D01*
X37735124Y-11577525D01*
X37736329Y-11576135D01*
X37738000Y-11568452D01*
X37738000Y-10621116D01*
X37733525Y-10605877D01*
X37732135Y-10604672D01*
X37724452Y-10603001D01*
X37694905Y-10603001D01*
X37688386Y-10603338D01*
X37592794Y-10613257D01*
X37579400Y-10616149D01*
X37425216Y-10667588D01*
X37412038Y-10673761D01*
X37274193Y-10759063D01*
X37262792Y-10768099D01*
X37148261Y-10882829D01*
X37139249Y-10894240D01*
X37054184Y-11032243D01*
X37048037Y-11045424D01*
X36996862Y-11199710D01*
X36993995Y-11213086D01*
X36984328Y-11307438D01*
X36984000Y-11313855D01*
X36984000Y-11563885D01*
X35561647Y-11563885D01*
X35576490Y-11532053D01*
X35580236Y-11521761D01*
X35626394Y-11349497D01*
X35626058Y-11335401D01*
X35618116Y-11332000D01*
X33077033Y-11332000D01*
X33063502Y-11335973D01*
X33062273Y-11344522D01*
X33109764Y-11521761D01*
X33113510Y-11532053D01*
X33205586Y-11729511D01*
X33211069Y-11739007D01*
X33336028Y-11917467D01*
X33343084Y-11925875D01*
X33497125Y-12079916D01*
X33505533Y-12086972D01*
X33683993Y-12211931D01*
X33693489Y-12217414D01*
X33728049Y-12233529D01*
X33781334Y-12280446D01*
X33800795Y-12348723D01*
X33780253Y-12416683D01*
X33728049Y-12461919D01*
X33693238Y-12478151D01*
X33693233Y-12478154D01*
X33688251Y-12480477D01*
X33596514Y-12544712D01*
X33505211Y-12608643D01*
X33505208Y-12608645D01*
X33500700Y-12611802D01*
X33424684Y-12687818D01*
X33362376Y-12721841D01*
X33291560Y-12716777D01*
X33246497Y-12687816D01*
X31365184Y-10806503D01*
X33063606Y-10806503D01*
X33063942Y-10820599D01*
X33071884Y-10824000D01*
X34072885Y-10824000D01*
X34088124Y-10819525D01*
X34089329Y-10818135D01*
X34091000Y-10810452D01*
X34091000Y-10805885D01*
X34599000Y-10805885D01*
X34603475Y-10821124D01*
X34604865Y-10822329D01*
X34612548Y-10824000D01*
X35612967Y-10824000D01*
X35626498Y-10820027D01*
X35627727Y-10811478D01*
X35580236Y-10634239D01*
X35576490Y-10623947D01*
X35484414Y-10426489D01*
X35478931Y-10416993D01*
X35353972Y-10238533D01*
X35346916Y-10230125D01*
X35192875Y-10076084D01*
X35184467Y-10069028D01*
X35006007Y-9944069D01*
X34996511Y-9938586D01*
X34799053Y-9846510D01*
X34788761Y-9842764D01*
X34616497Y-9796606D01*
X34602401Y-9796942D01*
X34599000Y-9804884D01*
X34599000Y-10805885D01*
X34091000Y-10805885D01*
X34091000Y-9810033D01*
X34087027Y-9796502D01*
X34078478Y-9795273D01*
X33901239Y-9842764D01*
X33890947Y-9846510D01*
X33693489Y-9938586D01*
X33683993Y-9944069D01*
X33505533Y-10069028D01*
X33497125Y-10076084D01*
X33343084Y-10230125D01*
X33336028Y-10238533D01*
X33211069Y-10416993D01*
X33205586Y-10426489D01*
X33113510Y-10623947D01*
X33109764Y-10634239D01*
X33063606Y-10806503D01*
X31365184Y-10806503D01*
X27651350Y-7092669D01*
X35827899Y-7092669D01*
X35828269Y-7099490D01*
X35833793Y-7150352D01*
X35837419Y-7165604D01*
X35882574Y-7286054D01*
X35891112Y-7301649D01*
X35967613Y-7403724D01*
X35980174Y-7416285D01*
X36082249Y-7492786D01*
X36097844Y-7501324D01*
X36218292Y-7546478D01*
X36233547Y-7550105D01*
X36284412Y-7555631D01*
X36291226Y-7556000D01*
X36863783Y-7556000D01*
X36879022Y-7551525D01*
X36880227Y-7550135D01*
X36881898Y-7542452D01*
X36881898Y-6520115D01*
X36877423Y-6504876D01*
X36876033Y-6503671D01*
X36868350Y-6502000D01*
X35846014Y-6502000D01*
X35830775Y-6506475D01*
X35829570Y-6507865D01*
X35827899Y-6515548D01*
X35827899Y-7092669D01*
X27651350Y-7092669D01*
X26534566Y-5975885D01*
X35827898Y-5975885D01*
X35832373Y-5991124D01*
X35833763Y-5992329D01*
X35841446Y-5994000D01*
X36863783Y-5994000D01*
X36879022Y-5989525D01*
X36880227Y-5988135D01*
X36881898Y-5980452D01*
X36881898Y-4958116D01*
X36877423Y-4942877D01*
X36876033Y-4941672D01*
X36868350Y-4940001D01*
X36291229Y-4940001D01*
X36284408Y-4940371D01*
X36233546Y-4945895D01*
X36218294Y-4949521D01*
X36097844Y-4994676D01*
X36082249Y-5003214D01*
X35980174Y-5079715D01*
X35967613Y-5092276D01*
X35891112Y-5194351D01*
X35882574Y-5209946D01*
X35837420Y-5330394D01*
X35833793Y-5345649D01*
X35828267Y-5396514D01*
X35827898Y-5403328D01*
X35827898Y-5975885D01*
X26534566Y-5975885D01*
X26063570Y-5504889D01*
X26051184Y-5490477D01*
X26042651Y-5478882D01*
X26042646Y-5478877D01*
X26038308Y-5472982D01*
X26032730Y-5468243D01*
X26032727Y-5468240D01*
X25998032Y-5438765D01*
X25990516Y-5431835D01*
X25984821Y-5426140D01*
X25978680Y-5421282D01*
X25962549Y-5408519D01*
X25959145Y-5405728D01*
X25909097Y-5363209D01*
X25909095Y-5363208D01*
X25903515Y-5358467D01*
X25896999Y-5355139D01*
X25891950Y-5351772D01*
X25886821Y-5348605D01*
X25881084Y-5344066D01*
X25814925Y-5313145D01*
X25811025Y-5311239D01*
X25745992Y-5278031D01*
X25738884Y-5276292D01*
X25733241Y-5274193D01*
X25727478Y-5272276D01*
X25720850Y-5269178D01*
X25649383Y-5254313D01*
X25645099Y-5253343D01*
X25574190Y-5235992D01*
X25568588Y-5235644D01*
X25568585Y-5235644D01*
X25563036Y-5235300D01*
X25563038Y-5235264D01*
X25559045Y-5235025D01*
X25554853Y-5234651D01*
X25547685Y-5233160D01*
X25481475Y-5234951D01*
X25470279Y-5235254D01*
X25466872Y-5235300D01*
X25326358Y-5235300D01*
X25258237Y-5215298D01*
X25239702Y-5200770D01*
X24513152Y-4512459D01*
X24513150Y-4512458D01*
X24500000Y-4500000D01*
X23009027Y-4500000D01*
X22979613Y-4496519D01*
X22929835Y-4484568D01*
X22929829Y-4484567D01*
X22925022Y-4483413D01*
X22685800Y-4464586D01*
X22446578Y-4483413D01*
X22441771Y-4484567D01*
X22441765Y-4484568D01*
X22391987Y-4496519D01*
X22362573Y-4500000D01*
X16278831Y-4500000D01*
X16234601Y-4491982D01*
X16210708Y-4483025D01*
X16192116Y-4476055D01*
X16129934Y-4469300D01*
X14001666Y-4469300D01*
X13939484Y-4476055D01*
X13920892Y-4483025D01*
X13896999Y-4491982D01*
X13852769Y-4500000D01*
X8500000Y-4500000D01*
X8500000Y-33365500D01*
X8479998Y-33433621D01*
X8426342Y-33480114D01*
X8374000Y-33491500D01*
X634500Y-33491500D01*
X566379Y-33471498D01*
X519886Y-33417842D01*
X508500Y-33365500D01*
X508500Y-24040322D01*
X2607073Y-24040322D01*
X2654564Y-24217561D01*
X2658310Y-24227853D01*
X2750386Y-24425311D01*
X2755869Y-24434807D01*
X2880828Y-24613267D01*
X2887884Y-24621675D01*
X3041925Y-24775716D01*
X3050333Y-24782772D01*
X3228793Y-24907731D01*
X3238289Y-24913214D01*
X3435747Y-25005290D01*
X3446039Y-25009036D01*
X3618303Y-25055194D01*
X3632399Y-25054858D01*
X3635800Y-25046916D01*
X3635800Y-25041767D01*
X4143800Y-25041767D01*
X4147773Y-25055298D01*
X4156322Y-25056527D01*
X4333561Y-25009036D01*
X4343853Y-25005290D01*
X4541311Y-24913214D01*
X4550807Y-24907731D01*
X4729267Y-24782772D01*
X4737675Y-24775716D01*
X4891716Y-24621675D01*
X4898772Y-24613267D01*
X5023731Y-24434807D01*
X5029214Y-24425311D01*
X5121290Y-24227853D01*
X5125036Y-24217561D01*
X5171194Y-24045297D01*
X5170858Y-24031201D01*
X5162916Y-24027800D01*
X4161915Y-24027800D01*
X4146676Y-24032275D01*
X4145471Y-24033665D01*
X4143800Y-24041348D01*
X4143800Y-25041767D01*
X3635800Y-25041767D01*
X3635800Y-24045915D01*
X3631325Y-24030676D01*
X3629935Y-24029471D01*
X3622252Y-24027800D01*
X2621833Y-24027800D01*
X2608302Y-24031773D01*
X2607073Y-24040322D01*
X508500Y-24040322D01*
X508500Y-21500322D01*
X2607073Y-21500322D01*
X2654564Y-21677561D01*
X2658310Y-21687853D01*
X2750386Y-21885311D01*
X2755869Y-21894807D01*
X2880828Y-22073267D01*
X2887884Y-22081675D01*
X3041925Y-22235716D01*
X3050333Y-22242772D01*
X3228793Y-22367731D01*
X3238289Y-22373214D01*
X3273441Y-22389605D01*
X3326726Y-22436522D01*
X3346187Y-22504799D01*
X3325645Y-22572759D01*
X3273441Y-22617995D01*
X3238289Y-22634386D01*
X3228793Y-22639869D01*
X3050333Y-22764828D01*
X3041925Y-22771884D01*
X2887884Y-22925925D01*
X2880828Y-22934333D01*
X2755869Y-23112793D01*
X2750386Y-23122289D01*
X2658310Y-23319747D01*
X2654564Y-23330039D01*
X2608406Y-23502303D01*
X2608742Y-23516399D01*
X2616684Y-23519800D01*
X3617685Y-23519800D01*
X3632924Y-23515325D01*
X3634129Y-23513935D01*
X3635800Y-23506252D01*
X3635800Y-23501685D01*
X4143800Y-23501685D01*
X4148275Y-23516924D01*
X4149665Y-23518129D01*
X4157348Y-23519800D01*
X5157767Y-23519800D01*
X5171298Y-23515827D01*
X5172527Y-23507278D01*
X5125036Y-23330039D01*
X5121290Y-23319747D01*
X5029214Y-23122289D01*
X5023731Y-23112793D01*
X4898772Y-22934333D01*
X4891716Y-22925925D01*
X4737675Y-22771884D01*
X4729267Y-22764828D01*
X4550807Y-22639869D01*
X4541311Y-22634386D01*
X4506159Y-22617995D01*
X4452874Y-22571078D01*
X4433413Y-22502801D01*
X4453955Y-22434841D01*
X4506159Y-22389605D01*
X4541311Y-22373214D01*
X4550807Y-22367731D01*
X4729267Y-22242772D01*
X4737675Y-22235716D01*
X4891716Y-22081675D01*
X4898772Y-22073267D01*
X5023731Y-21894807D01*
X5029214Y-21885311D01*
X5121290Y-21687853D01*
X5125036Y-21677561D01*
X5171194Y-21505297D01*
X5170858Y-21491201D01*
X5162916Y-21487800D01*
X4161915Y-21487800D01*
X4146676Y-21492275D01*
X4145471Y-21493665D01*
X4143800Y-21501348D01*
X4143800Y-23501685D01*
X3635800Y-23501685D01*
X3635800Y-21505915D01*
X3631325Y-21490676D01*
X3629935Y-21489471D01*
X3622252Y-21487800D01*
X2621833Y-21487800D01*
X2608302Y-21491773D01*
X2607073Y-21500322D01*
X508500Y-21500322D01*
X508500Y-18960322D01*
X2607073Y-18960322D01*
X2654564Y-19137561D01*
X2658310Y-19147853D01*
X2750386Y-19345311D01*
X2755869Y-19354807D01*
X2880828Y-19533267D01*
X2887884Y-19541675D01*
X3041925Y-19695716D01*
X3050333Y-19702772D01*
X3228793Y-19827731D01*
X3238289Y-19833214D01*
X3273441Y-19849605D01*
X3326726Y-19896522D01*
X3346187Y-19964799D01*
X3325645Y-20032759D01*
X3273441Y-20077995D01*
X3238289Y-20094386D01*
X3228793Y-20099869D01*
X3050333Y-20224828D01*
X3041925Y-20231884D01*
X2887884Y-20385925D01*
X2880828Y-20394333D01*
X2755869Y-20572793D01*
X2750386Y-20582289D01*
X2658310Y-20779747D01*
X2654564Y-20790039D01*
X2608406Y-20962303D01*
X2608742Y-20976399D01*
X2616684Y-20979800D01*
X3617685Y-20979800D01*
X3632924Y-20975325D01*
X3634129Y-20973935D01*
X3635800Y-20966252D01*
X3635800Y-20961685D01*
X4143800Y-20961685D01*
X4148275Y-20976924D01*
X4149665Y-20978129D01*
X4157348Y-20979800D01*
X5157767Y-20979800D01*
X5171298Y-20975827D01*
X5172527Y-20967278D01*
X5125036Y-20790039D01*
X5121290Y-20779747D01*
X5029214Y-20582289D01*
X5023731Y-20572793D01*
X4898772Y-20394333D01*
X4891716Y-20385925D01*
X4737675Y-20231884D01*
X4729267Y-20224828D01*
X4550807Y-20099869D01*
X4541311Y-20094386D01*
X4506159Y-20077995D01*
X4452874Y-20031078D01*
X4433413Y-19962801D01*
X4453955Y-19894841D01*
X4506159Y-19849605D01*
X4541311Y-19833214D01*
X4550807Y-19827731D01*
X4729267Y-19702772D01*
X4737675Y-19695716D01*
X4891716Y-19541675D01*
X4898772Y-19533267D01*
X5023731Y-19354807D01*
X5029214Y-19345311D01*
X5121290Y-19147853D01*
X5125036Y-19137561D01*
X5171194Y-18965297D01*
X5170858Y-18951201D01*
X5162916Y-18947800D01*
X4161915Y-18947800D01*
X4146676Y-18952275D01*
X4145471Y-18953665D01*
X4143800Y-18961348D01*
X4143800Y-20961685D01*
X3635800Y-20961685D01*
X3635800Y-18965915D01*
X3631325Y-18950676D01*
X3629935Y-18949471D01*
X3622252Y-18947800D01*
X2621833Y-18947800D01*
X2608302Y-18951773D01*
X2607073Y-18960322D01*
X508500Y-18960322D01*
X508500Y-16420322D01*
X2607073Y-16420322D01*
X2654564Y-16597561D01*
X2658310Y-16607853D01*
X2750386Y-16805311D01*
X2755869Y-16814807D01*
X2880828Y-16993267D01*
X2887884Y-17001675D01*
X3041925Y-17155716D01*
X3050333Y-17162772D01*
X3228793Y-17287731D01*
X3238289Y-17293214D01*
X3273441Y-17309605D01*
X3326726Y-17356522D01*
X3346187Y-17424799D01*
X3325645Y-17492759D01*
X3273441Y-17537995D01*
X3238289Y-17554386D01*
X3228793Y-17559869D01*
X3050333Y-17684828D01*
X3041925Y-17691884D01*
X2887884Y-17845925D01*
X2880828Y-17854333D01*
X2755869Y-18032793D01*
X2750386Y-18042289D01*
X2658310Y-18239747D01*
X2654564Y-18250039D01*
X2608406Y-18422303D01*
X2608742Y-18436399D01*
X2616684Y-18439800D01*
X3617685Y-18439800D01*
X3632924Y-18435325D01*
X3634129Y-18433935D01*
X3635800Y-18426252D01*
X3635800Y-18421685D01*
X4143800Y-18421685D01*
X4148275Y-18436924D01*
X4149665Y-18438129D01*
X4157348Y-18439800D01*
X5157767Y-18439800D01*
X5171298Y-18435827D01*
X5172527Y-18427278D01*
X5125036Y-18250039D01*
X5121290Y-18239747D01*
X5029214Y-18042289D01*
X5023731Y-18032793D01*
X4898772Y-17854333D01*
X4891716Y-17845925D01*
X4737675Y-17691884D01*
X4729267Y-17684828D01*
X4550807Y-17559869D01*
X4541311Y-17554386D01*
X4506159Y-17537995D01*
X4452874Y-17491078D01*
X4433413Y-17422801D01*
X4453955Y-17354841D01*
X4506159Y-17309605D01*
X4541311Y-17293214D01*
X4550807Y-17287731D01*
X4729267Y-17162772D01*
X4737675Y-17155716D01*
X4891716Y-17001675D01*
X4898772Y-16993267D01*
X5023731Y-16814807D01*
X5029214Y-16805311D01*
X5121290Y-16607853D01*
X5125036Y-16597561D01*
X5171194Y-16425297D01*
X5170858Y-16411201D01*
X5162916Y-16407800D01*
X4161915Y-16407800D01*
X4146676Y-16412275D01*
X4145471Y-16413665D01*
X4143800Y-16421348D01*
X4143800Y-18421685D01*
X3635800Y-18421685D01*
X3635800Y-16425915D01*
X3631325Y-16410676D01*
X3629935Y-16409471D01*
X3622252Y-16407800D01*
X2621833Y-16407800D01*
X2608302Y-16411773D01*
X2607073Y-16420322D01*
X508500Y-16420322D01*
X508500Y-13880322D01*
X2607073Y-13880322D01*
X2654564Y-14057561D01*
X2658310Y-14067853D01*
X2750386Y-14265311D01*
X2755869Y-14274807D01*
X2880828Y-14453267D01*
X2887884Y-14461675D01*
X3041925Y-14615716D01*
X3050333Y-14622772D01*
X3228793Y-14747731D01*
X3238289Y-14753214D01*
X3273441Y-14769605D01*
X3326726Y-14816522D01*
X3346187Y-14884799D01*
X3325645Y-14952759D01*
X3273441Y-14997995D01*
X3238289Y-15014386D01*
X3228793Y-15019869D01*
X3050333Y-15144828D01*
X3041925Y-15151884D01*
X2887884Y-15305925D01*
X2880828Y-15314333D01*
X2755869Y-15492793D01*
X2750386Y-15502289D01*
X2658310Y-15699747D01*
X2654564Y-15710039D01*
X2608406Y-15882303D01*
X2608742Y-15896399D01*
X2616684Y-15899800D01*
X3617685Y-15899800D01*
X3632924Y-15895325D01*
X3634129Y-15893935D01*
X3635800Y-15886252D01*
X3635800Y-15881685D01*
X4143800Y-15881685D01*
X4148275Y-15896924D01*
X4149665Y-15898129D01*
X4157348Y-15899800D01*
X5157767Y-15899800D01*
X5171298Y-15895827D01*
X5172527Y-15887278D01*
X5125036Y-15710039D01*
X5121290Y-15699747D01*
X5029214Y-15502289D01*
X5023731Y-15492793D01*
X4898772Y-15314333D01*
X4891716Y-15305925D01*
X4737675Y-15151884D01*
X4729267Y-15144828D01*
X4550807Y-15019869D01*
X4541311Y-15014386D01*
X4506159Y-14997995D01*
X4452874Y-14951078D01*
X4433413Y-14882801D01*
X4453955Y-14814841D01*
X4506159Y-14769605D01*
X4541311Y-14753214D01*
X4550807Y-14747731D01*
X4729267Y-14622772D01*
X4737675Y-14615716D01*
X4891716Y-14461675D01*
X4898772Y-14453267D01*
X5023731Y-14274807D01*
X5029214Y-14265311D01*
X5121290Y-14067853D01*
X5125036Y-14057561D01*
X5171194Y-13885297D01*
X5170858Y-13871201D01*
X5162916Y-13867800D01*
X4161915Y-13867800D01*
X4146676Y-13872275D01*
X4145471Y-13873665D01*
X4143800Y-13881348D01*
X4143800Y-15881685D01*
X3635800Y-15881685D01*
X3635800Y-13885915D01*
X3631325Y-13870676D01*
X3629935Y-13869471D01*
X3622252Y-13867800D01*
X2621833Y-13867800D01*
X2608302Y-13871773D01*
X2607073Y-13880322D01*
X508500Y-13880322D01*
X508500Y-11340322D01*
X2607073Y-11340322D01*
X2654564Y-11517561D01*
X2658310Y-11527853D01*
X2750386Y-11725311D01*
X2755869Y-11734807D01*
X2880828Y-11913267D01*
X2887884Y-11921675D01*
X3041925Y-12075716D01*
X3050333Y-12082772D01*
X3228793Y-12207731D01*
X3238289Y-12213214D01*
X3273441Y-12229605D01*
X3326726Y-12276522D01*
X3346187Y-12344799D01*
X3325645Y-12412759D01*
X3273441Y-12457995D01*
X3238289Y-12474386D01*
X3228793Y-12479869D01*
X3050333Y-12604828D01*
X3041925Y-12611884D01*
X2887884Y-12765925D01*
X2880828Y-12774333D01*
X2755869Y-12952793D01*
X2750386Y-12962289D01*
X2658310Y-13159747D01*
X2654564Y-13170039D01*
X2608406Y-13342303D01*
X2608742Y-13356399D01*
X2616684Y-13359800D01*
X3617685Y-13359800D01*
X3632924Y-13355325D01*
X3634129Y-13353935D01*
X3635800Y-13346252D01*
X3635800Y-13341685D01*
X4143800Y-13341685D01*
X4148275Y-13356924D01*
X4149665Y-13358129D01*
X4157348Y-13359800D01*
X5157767Y-13359800D01*
X5171298Y-13355827D01*
X5172527Y-13347278D01*
X5125036Y-13170039D01*
X5121290Y-13159747D01*
X5029214Y-12962289D01*
X5023731Y-12952793D01*
X4898772Y-12774333D01*
X4891716Y-12765925D01*
X4737675Y-12611884D01*
X4729267Y-12604828D01*
X4550807Y-12479869D01*
X4541311Y-12474386D01*
X4506159Y-12457995D01*
X4452874Y-12411078D01*
X4433413Y-12342801D01*
X4453955Y-12274841D01*
X4506159Y-12229605D01*
X4541311Y-12213214D01*
X4550807Y-12207731D01*
X4729267Y-12082772D01*
X4737675Y-12075716D01*
X4891716Y-11921675D01*
X4898772Y-11913267D01*
X5023731Y-11734807D01*
X5029214Y-11725311D01*
X5121290Y-11527853D01*
X5125036Y-11517561D01*
X5171194Y-11345297D01*
X5170858Y-11331201D01*
X5162916Y-11327800D01*
X4161915Y-11327800D01*
X4146676Y-11332275D01*
X4145471Y-11333665D01*
X4143800Y-11341348D01*
X4143800Y-13341685D01*
X3635800Y-13341685D01*
X3635800Y-11345915D01*
X3631325Y-11330676D01*
X3629935Y-11329471D01*
X3622252Y-11327800D01*
X2621833Y-11327800D01*
X2608302Y-11331773D01*
X2607073Y-11340322D01*
X508500Y-11340322D01*
X508500Y-8800322D01*
X2607073Y-8800322D01*
X2654564Y-8977561D01*
X2658310Y-8987853D01*
X2750386Y-9185311D01*
X2755869Y-9194807D01*
X2880828Y-9373267D01*
X2887884Y-9381675D01*
X3041925Y-9535716D01*
X3050333Y-9542772D01*
X3228793Y-9667731D01*
X3238289Y-9673214D01*
X3273441Y-9689605D01*
X3326726Y-9736522D01*
X3346187Y-9804799D01*
X3325645Y-9872759D01*
X3273441Y-9917995D01*
X3238289Y-9934386D01*
X3228793Y-9939869D01*
X3050333Y-10064828D01*
X3041925Y-10071884D01*
X2887887Y-10225922D01*
X2880828Y-10234333D01*
X2755869Y-10412793D01*
X2750386Y-10422289D01*
X2658310Y-10619747D01*
X2654564Y-10630039D01*
X2608406Y-10802303D01*
X2608742Y-10816399D01*
X2616684Y-10819800D01*
X3617685Y-10819800D01*
X3632924Y-10815325D01*
X3634129Y-10813935D01*
X3635800Y-10806252D01*
X3635800Y-10801685D01*
X4143800Y-10801685D01*
X4148275Y-10816924D01*
X4149665Y-10818129D01*
X4157348Y-10819800D01*
X5157767Y-10819800D01*
X5171298Y-10815827D01*
X5172527Y-10807278D01*
X5125036Y-10630039D01*
X5121290Y-10619747D01*
X5029214Y-10422289D01*
X5023731Y-10412793D01*
X4898772Y-10234333D01*
X4891713Y-10225922D01*
X4737675Y-10071884D01*
X4729267Y-10064828D01*
X4550807Y-9939869D01*
X4541311Y-9934386D01*
X4506159Y-9917995D01*
X4452874Y-9871078D01*
X4433413Y-9802801D01*
X4453955Y-9734841D01*
X4506159Y-9689605D01*
X4541311Y-9673214D01*
X4550807Y-9667731D01*
X4729267Y-9542772D01*
X4737675Y-9535716D01*
X4891716Y-9381675D01*
X4898772Y-9373267D01*
X5023731Y-9194807D01*
X5029214Y-9185311D01*
X5121290Y-8987853D01*
X5125036Y-8977561D01*
X5171194Y-8805297D01*
X5170858Y-8791201D01*
X5162916Y-8787800D01*
X4161915Y-8787800D01*
X4146676Y-8792275D01*
X4145471Y-8793665D01*
X4143800Y-8801348D01*
X4143800Y-10801685D01*
X3635800Y-10801685D01*
X3635800Y-8805915D01*
X3631325Y-8790676D01*
X3629935Y-8789471D01*
X3622252Y-8787800D01*
X2621833Y-8787800D01*
X2608302Y-8791773D01*
X2607073Y-8800322D01*
X508500Y-8800322D01*
X508500Y-6838469D01*
X2581801Y-6838469D01*
X2582171Y-6845290D01*
X2587695Y-6896152D01*
X2591321Y-6911404D01*
X2636476Y-7031854D01*
X2645014Y-7047449D01*
X2721515Y-7149524D01*
X2734076Y-7162085D01*
X2836151Y-7238586D01*
X2851746Y-7247124D01*
X2972194Y-7292278D01*
X2987443Y-7295904D01*
X2991651Y-7296361D01*
X2994710Y-7297632D01*
X2995131Y-7297732D01*
X2995115Y-7297800D01*
X3057214Y-7323601D01*
X3097643Y-7381963D01*
X3100101Y-7452917D01*
X3063808Y-7513936D01*
X3050400Y-7524772D01*
X3041925Y-7531884D01*
X2887884Y-7685925D01*
X2880828Y-7694333D01*
X2755869Y-7872793D01*
X2750386Y-7882289D01*
X2658310Y-8079747D01*
X2654564Y-8090039D01*
X2608406Y-8262303D01*
X2608742Y-8276399D01*
X2616684Y-8279800D01*
X3617685Y-8279800D01*
X3632924Y-8275325D01*
X3634129Y-8273935D01*
X3635800Y-8266252D01*
X3635800Y-8261685D01*
X4143800Y-8261685D01*
X4148275Y-8276924D01*
X4149665Y-8278129D01*
X4157348Y-8279800D01*
X5157767Y-8279800D01*
X5171298Y-8275827D01*
X5172527Y-8267278D01*
X5125036Y-8090039D01*
X5121290Y-8079747D01*
X5029214Y-7882289D01*
X5023731Y-7872793D01*
X4898772Y-7694333D01*
X4891716Y-7685925D01*
X4737675Y-7531884D01*
X4725054Y-7521293D01*
X4725768Y-7520443D01*
X4684952Y-7469378D01*
X4677644Y-7398759D01*
X4709677Y-7335399D01*
X4770879Y-7299415D01*
X4787945Y-7296362D01*
X4792153Y-7295905D01*
X4807404Y-7292279D01*
X4927854Y-7247124D01*
X4943449Y-7238586D01*
X5045524Y-7162085D01*
X5058085Y-7149524D01*
X5134586Y-7047449D01*
X5143124Y-7031854D01*
X5188278Y-6911406D01*
X5191905Y-6896151D01*
X5197431Y-6845286D01*
X5197800Y-6838472D01*
X5197800Y-6265915D01*
X5193325Y-6250676D01*
X5191935Y-6249471D01*
X5184252Y-6247800D01*
X4161915Y-6247800D01*
X4146676Y-6252275D01*
X4145471Y-6253665D01*
X4143800Y-6261348D01*
X4143800Y-8261685D01*
X3635800Y-8261685D01*
X3635800Y-6265915D01*
X3631325Y-6250676D01*
X3629935Y-6249471D01*
X3622252Y-6247800D01*
X2599916Y-6247800D01*
X2584677Y-6252275D01*
X2583472Y-6253665D01*
X2581801Y-6261348D01*
X2581801Y-6838469D01*
X508500Y-6838469D01*
X508500Y-5721685D01*
X2581800Y-5721685D01*
X2586275Y-5736924D01*
X2587665Y-5738129D01*
X2595348Y-5739800D01*
X3617685Y-5739800D01*
X3632924Y-5735325D01*
X3634129Y-5733935D01*
X3635800Y-5726252D01*
X3635800Y-5721685D01*
X4143800Y-5721685D01*
X4148275Y-5736924D01*
X4149665Y-5738129D01*
X4157348Y-5739800D01*
X5179684Y-5739800D01*
X5194923Y-5735325D01*
X5196128Y-5733935D01*
X5197799Y-5726252D01*
X5197799Y-5149131D01*
X5197429Y-5142310D01*
X5191905Y-5091448D01*
X5188279Y-5076196D01*
X5143124Y-4955746D01*
X5134586Y-4940151D01*
X5058085Y-4838076D01*
X5045524Y-4825515D01*
X4943449Y-4749014D01*
X4927854Y-4740476D01*
X4807406Y-4695322D01*
X4792151Y-4691695D01*
X4741286Y-4686169D01*
X4734472Y-4685800D01*
X4161915Y-4685800D01*
X4146676Y-4690275D01*
X4145471Y-4691665D01*
X4143800Y-4699348D01*
X4143800Y-5721685D01*
X3635800Y-5721685D01*
X3635800Y-4703916D01*
X3631325Y-4688677D01*
X3629935Y-4687472D01*
X3622252Y-4685801D01*
X3045131Y-4685801D01*
X3038310Y-4686171D01*
X2987448Y-4691695D01*
X2972196Y-4695321D01*
X2851746Y-4740476D01*
X2836151Y-4749014D01*
X2734076Y-4825515D01*
X2721515Y-4838076D01*
X2645014Y-4940151D01*
X2636476Y-4955746D01*
X2591322Y-5076194D01*
X2587695Y-5091449D01*
X2582169Y-5142314D01*
X2581800Y-5149128D01*
X2581800Y-5721685D01*
X508500Y-5721685D01*
X508500Y-634500D01*
X528502Y-566379D01*
X582158Y-519886D01*
X634500Y-508500D01*
X38374000Y-508500D01*
X38442121Y-528502D01*
G37*
%TD.AperFunction*%
%TD*%
M02*
