<?xml version="1.0" standalone="no"?>
 <!DOCTYPE svg PUBLIC "-//W3C//DTD SVG 1.1//EN" 
 "http://www.w3.org/Graphics/SVG/1.1/DTD/svg11.dtd"> 
<svg
  xmlns:svg="http://www.w3.org/2000/svg"
  xmlns="http://www.w3.org/2000/svg"
  xmlns:xlink="http://www.w3.org/1999/xlink"
  version="1.1"
  width="297.0022mm" height="210.0072mm" viewBox="0.0000 0.0000 297.0022 210.0072">
<title>SVG Image created as ch552g_bob-PTH-drl_map.svg date 2023/12/31 02:56:57 </title>
  <desc>Image generated by PCBNEW </desc>
<g style="fill:#000000; fill-opacity:1.0000;stroke:#000000; stroke-opacity:1.0000;
stroke-linecap:round; stroke-linejoin:round;"
 transform="translate(0 0) scale(1 1)">
</g>
<g style="fill:#000000; fill-opacity:0.0; 
stroke:#000000; stroke-width:0.0000; stroke-opacity:1; 
stroke-linecap:round; stroke-linejoin:round;">
</g>
<g style="fill:#000000; fill-opacity:0.0; 
stroke:#000000; stroke-width:0.3000; stroke-opacity:1; 
stroke-linecap:round; stroke-linejoin:round;">
<path style="fill:#000000; fill-opacity:0.0; 
stroke:#000000; stroke-width:0.3000; stroke-opacity:1; 
stroke-linecap:round; stroke-linejoin:round;fill:none"
d="M 95.1611,26.8072
201.8411,26.8072
201.8411,99.1972
95.1611,99.1972
Z" /> 
</g>
<g style="fill:#000000; fill-opacity:0.0; 
stroke:#000000; stroke-width:0.6000; stroke-opacity:1; 
stroke-linecap:round; stroke-linejoin:round;">
</g>
<g style="fill:#000000; fill-opacity:0.0; 
stroke:#000000; stroke-width:0.3000; stroke-opacity:1; 
stroke-linecap:round; stroke-linejoin:round;">
<path d="M122.2361 31.0222
L125.2361 34.0222
" />
<path d="M125.2361 31.0222
L122.2361 34.0222
" />
<path d="M122.2361 91.9822
L125.2361 94.9822
" />
<path d="M125.2361 91.9822
L122.2361 94.9822
" />
<path d="M129.8561 31.0222
L132.8561 34.0222
" />
<path d="M132.8561 31.0222
L129.8561 34.0222
" />
<path d="M129.8561 91.9822
L132.8561 94.9822
" />
<path d="M132.8561 91.9822
L129.8561 94.9822
" />
<path d="M137.4761 31.0222
L140.4761 34.0222
" />
<path d="M140.4761 31.0222
L137.4761 34.0222
" />
<path d="M137.4761 91.9822
L140.4761 94.9822
" />
<path d="M140.4761 91.9822
L137.4761 94.9822
" />
<path d="M145.0961 31.0222
L148.0961 34.0222
" />
<path d="M148.0961 31.0222
L145.0961 34.0222
" />
<path d="M145.0961 91.9822
L148.0961 94.9822
" />
<path d="M148.0961 91.9822
L145.0961 94.9822
" />
<path d="M152.7161 31.0222
L155.7161 34.0222
" />
<path d="M155.7161 31.0222
L152.7161 34.0222
" />
<path d="M152.7161 91.9822
L155.7161 94.9822
" />
<path d="M155.7161 91.9822
L152.7161 94.9822
" />
<path d="M160.3361 31.0222
L163.3361 34.0222
" />
<path d="M163.3361 31.0222
L160.3361 34.0222
" />
<path d="M160.3361 91.9822
L163.3361 94.9822
" />
<path d="M163.3361 91.9822
L160.3361 94.9822
" />
<path d="M167.9561 31.0222
L170.9561 34.0222
" />
<path d="M170.9561 31.0222
L167.9561 34.0222
" />
<path d="M167.9561 91.9822
L170.9561 94.9822
" />
<path d="M170.9561 91.9822
L167.9561 94.9822
" />
<path d="M175.5761 31.0222
L178.5761 34.0222
" />
<path d="M178.5761 31.0222
L175.5761 34.0222
" />
<path d="M175.5761 91.9822
L178.5761 94.9822
" />
<path d="M178.5761 91.9822
L175.5761 94.9822
" />
</g>
<g style="fill:#000000; fill-opacity:0.0; 
stroke:#000000; stroke-width:0.3300; stroke-opacity:1; 
stroke-linecap:round; stroke-linejoin:round;">
<circle cx="174.9461" cy="44.8222" r="1.6500" /> 
<circle cx="174.9461" cy="58.3222" r="1.6500" /> 
<circle cx="174.9461" cy="67.6822" r="1.6500" /> 
<circle cx="174.9461" cy="81.1822" r="1.6500" /> 
<circle cx="194.4461" cy="44.8222" r="1.6500" /> 
<circle cx="194.4461" cy="58.3222" r="1.6500" /> 
<circle cx="194.4461" cy="67.6822" r="1.6500" /> 
<circle cx="194.4461" cy="81.1822" r="1.6500" /> 
</g>
<g style="fill:#000000; fill-opacity:0.0; 
stroke:#000000; stroke-width:0.6000; stroke-opacity:1; 
stroke-linecap:round; stroke-linejoin:round;">
</g>
<g style="fill:#000000; fill-opacity:0.0; 
stroke:#000000; stroke-width:0.2000; stroke-opacity:1; 
stroke-linecap:round; stroke-linejoin:round;">
<text x="97.0111" y="102.5472"
textLength="14.8667" font-size="2.6667" lengthAdjust="spacingAndGlyphs"
text-anchor="start" opacity="0">Drill Map:</text>
<g class="stroked-text"><desc>Drill Map:</desc>
<path d="M97.6189 102.4620
L97.6189 100.4620
" />
<path d="M97.6189 100.4620
L98.0951 100.4620
" />
<path d="M98.0951 100.4620
L98.3808 100.5572
" />
<path d="M98.3808 100.5572
L98.5712 100.7477
" />
<path d="M98.5712 100.7477
L98.6665 100.9382
" />
<path d="M98.6665 100.9382
L98.7617 101.3191
" />
<path d="M98.7617 101.3191
L98.7617 101.6049
" />
<path d="M98.7617 101.6049
L98.6665 101.9858
" />
<path d="M98.6665 101.9858
L98.5712 102.1763
" />
<path d="M98.5712 102.1763
L98.3808 102.3668
" />
<path d="M98.3808 102.3668
L98.0951 102.4620
" />
<path d="M98.0951 102.4620
L97.6189 102.4620
" />
<path d="M99.6189 102.4620
L99.6189 101.1287
" />
<path d="M99.6189 101.5096
L99.7141 101.3191
" />
<path d="M99.7141 101.3191
L99.8093 101.2239
" />
<path d="M99.8093 101.2239
L99.9998 101.1287
" />
<path d="M99.9998 101.1287
L100.1903 101.1287
" />
<path d="M100.8570 102.4620
L100.8570 101.1287
" />
<path d="M100.8570 100.4620
L100.7617 100.5572
" />
<path d="M100.7617 100.5572
L100.8570 100.6525
" />
<path d="M100.8570 100.6525
L100.9522 100.5572
" />
<path d="M100.9522 100.5572
L100.8570 100.4620
" />
<path d="M100.8570 100.4620
L100.8570 100.6525
" />
<path d="M102.0951 102.4620
L101.9046 102.3668
" />
<path d="M101.9046 102.3668
L101.8093 102.1763
" />
<path d="M101.8093 102.1763
L101.8093 100.4620
" />
<path d="M103.1427 102.4620
L102.9522 102.3668
" />
<path d="M102.9522 102.3668
L102.8570 102.1763
" />
<path d="M102.8570 102.1763
L102.8570 100.4620
" />
<path d="M105.4284 102.4620
L105.4284 100.4620
" />
<path d="M105.4284 100.4620
L106.0951 101.8906
" />
<path d="M106.0951 101.8906
L106.7617 100.4620
" />
<path d="M106.7617 100.4620
L106.7617 102.4620
" />
<path d="M108.5713 102.4620
L108.5713 101.4144
" />
<path d="M108.5713 101.4144
L108.4760 101.2239
" />
<path d="M108.4760 101.2239
L108.2855 101.1287
" />
<path d="M108.2855 101.1287
L107.9046 101.1287
" />
<path d="M107.9046 101.1287
L107.7141 101.2239
" />
<path d="M108.5713 102.3668
L108.3808 102.4620
" />
<path d="M108.3808 102.4620
L107.9046 102.4620
" />
<path d="M107.9046 102.4620
L107.7141 102.3668
" />
<path d="M107.7141 102.3668
L107.6189 102.1763
" />
<path d="M107.6189 102.1763
L107.6189 101.9858
" />
<path d="M107.6189 101.9858
L107.7141 101.7953
" />
<path d="M107.7141 101.7953
L107.9046 101.7001
" />
<path d="M107.9046 101.7001
L108.3808 101.7001
" />
<path d="M108.3808 101.7001
L108.5713 101.6049
" />
<path d="M109.5236 101.1287
L109.5236 103.1287
" />
<path d="M109.5236 101.2239
L109.7141 101.1287
" />
<path d="M109.7141 101.1287
L110.0951 101.1287
" />
<path d="M110.0951 101.1287
L110.2855 101.2239
" />
<path d="M110.2855 101.2239
L110.3808 101.3191
" />
<path d="M110.3808 101.3191
L110.4760 101.5096
" />
<path d="M110.4760 101.5096
L110.4760 102.0810
" />
<path d="M110.4760 102.0810
L110.3808 102.2715
" />
<path d="M110.3808 102.2715
L110.2855 102.3668
" />
<path d="M110.2855 102.3668
L110.0951 102.4620
" />
<path d="M110.0951 102.4620
L109.7141 102.4620
" />
<path d="M109.7141 102.4620
L109.5236 102.3668
" />
<path d="M111.3332 102.2715
L111.4284 102.3668
" />
<path d="M111.4284 102.3668
L111.3332 102.4620
" />
<path d="M111.3332 102.4620
L111.2379 102.3668
" />
<path d="M111.2379 102.3668
L111.3332 102.2715
" />
<path d="M111.3332 102.2715
L111.3332 102.4620
" />
<path d="M111.3332 101.2239
L111.4284 101.3191
" />
<path d="M111.4284 101.3191
L111.3332 101.4144
" />
<path d="M111.3332 101.4144
L111.2379 101.3191
" />
<path d="M111.2379 101.3191
L111.3332 101.2239
" />
<path d="M111.3332 101.2239
L111.3332 101.4144
" />
</g></g>
<g style="fill:#000000; fill-opacity:0.0; 
stroke:#000000; stroke-width:0.3000; stroke-opacity:1; 
stroke-linecap:round; stroke-linejoin:round;">
<path d="M93.0111 104.7472
L95.0111 106.7472
" />
<path d="M95.0111 104.7472
L93.0111 106.7472
" />
</g>
<g style="fill:#000000; fill-opacity:0.0; 
stroke:#000000; stroke-width:0.6000; stroke-opacity:1; 
stroke-linecap:round; stroke-linejoin:round;">
</g>
<g style="fill:#000000; fill-opacity:0.0; 
stroke:#000000; stroke-width:0.2000; stroke-opacity:1; 
stroke-linecap:round; stroke-linejoin:round;">
<text x="97.0111" y="106.7472"
textLength="48.7715" font-size="2.6667" lengthAdjust="spacingAndGlyphs"
text-anchor="start" opacity="0">1.000mm / 0.0394" (16 holes)</text>
<g class="stroked-text"><desc>1.000mm / 0.0394" (16 holes)</desc>
<path d="M98.6665 106.6620
L97.5236 106.6620
" />
<path d="M98.0951 106.6620
L98.0951 104.6620
" />
<path d="M98.0951 104.6620
L97.9046 104.9477
" />
<path d="M97.9046 104.9477
L97.7141 105.1382
" />
<path d="M97.7141 105.1382
L97.5236 105.2334
" />
<path d="M99.5236 106.4715
L99.6189 106.5668
" />
<path d="M99.6189 106.5668
L99.5236 106.6620
" />
<path d="M99.5236 106.6620
L99.4284 106.5668
" />
<path d="M99.4284 106.5668
L99.5236 106.4715
" />
<path d="M99.5236 106.4715
L99.5236 106.6620
" />
<path d="M100.8570 104.6620
L101.0474 104.6620
" />
<path d="M101.0474 104.6620
L101.2379 104.7572
" />
<path d="M101.2379 104.7572
L101.3332 104.8525
" />
<path d="M101.3332 104.8525
L101.4284 105.0430
" />
<path d="M101.4284 105.0430
L101.5236 105.4239
" />
<path d="M101.5236 105.4239
L101.5236 105.9001
" />
<path d="M101.5236 105.9001
L101.4284 106.2810
" />
<path d="M101.4284 106.2810
L101.3332 106.4715
" />
<path d="M101.3332 106.4715
L101.2379 106.5668
" />
<path d="M101.2379 106.5668
L101.0474 106.6620
" />
<path d="M101.0474 106.6620
L100.8570 106.6620
" />
<path d="M100.8570 106.6620
L100.6665 106.5668
" />
<path d="M100.6665 106.5668
L100.5712 106.4715
" />
<path d="M100.5712 106.4715
L100.4760 106.2810
" />
<path d="M100.4760 106.2810
L100.3808 105.9001
" />
<path d="M100.3808 105.9001
L100.3808 105.4239
" />
<path d="M100.3808 105.4239
L100.4760 105.0430
" />
<path d="M100.4760 105.0430
L100.5712 104.8525
" />
<path d="M100.5712 104.8525
L100.6665 104.7572
" />
<path d="M100.6665 104.7572
L100.8570 104.6620
" />
<path d="M102.7617 104.6620
L102.9522 104.6620
" />
<path d="M102.9522 104.6620
L103.1427 104.7572
" />
<path d="M103.1427 104.7572
L103.2379 104.8525
" />
<path d="M103.2379 104.8525
L103.3332 105.0430
" />
<path d="M103.3332 105.0430
L103.4284 105.4239
" />
<path d="M103.4284 105.4239
L103.4284 105.9001
" />
<path d="M103.4284 105.9001
L103.3332 106.2810
" />
<path d="M103.3332 106.2810
L103.2379 106.4715
" />
<path d="M103.2379 106.4715
L103.1427 106.5668
" />
<path d="M103.1427 106.5668
L102.9522 106.6620
" />
<path d="M102.9522 106.6620
L102.7617 106.6620
" />
<path d="M102.7617 106.6620
L102.5713 106.5668
" />
<path d="M102.5713 106.5668
L102.4760 106.4715
" />
<path d="M102.4760 106.4715
L102.3808 106.2810
" />
<path d="M102.3808 106.2810
L102.2855 105.9001
" />
<path d="M102.2855 105.9001
L102.2855 105.4239
" />
<path d="M102.2855 105.4239
L102.3808 105.0430
" />
<path d="M102.3808 105.0430
L102.4760 104.8525
" />
<path d="M102.4760 104.8525
L102.5713 104.7572
" />
<path d="M102.5713 104.7572
L102.7617 104.6620
" />
<path d="M104.6665 104.6620
L104.8570 104.6620
" />
<path d="M104.8570 104.6620
L105.0474 104.7572
" />
<path d="M105.0474 104.7572
L105.1427 104.8525
" />
<path d="M105.1427 104.8525
L105.2379 105.0430
" />
<path d="M105.2379 105.0430
L105.3332 105.4239
" />
<path d="M105.3332 105.4239
L105.3332 105.9001
" />
<path d="M105.3332 105.9001
L105.2379 106.2810
" />
<path d="M105.2379 106.2810
L105.1427 106.4715
" />
<path d="M105.1427 106.4715
L105.0474 106.5668
" />
<path d="M105.0474 106.5668
L104.8570 106.6620
" />
<path d="M104.8570 106.6620
L104.6665 106.6620
" />
<path d="M104.6665 106.6620
L104.4760 106.5668
" />
<path d="M104.4760 106.5668
L104.3808 106.4715
" />
<path d="M104.3808 106.4715
L104.2855 106.2810
" />
<path d="M104.2855 106.2810
L104.1903 105.9001
" />
<path d="M104.1903 105.9001
L104.1903 105.4239
" />
<path d="M104.1903 105.4239
L104.2855 105.0430
" />
<path d="M104.2855 105.0430
L104.3808 104.8525
" />
<path d="M104.3808 104.8525
L104.4760 104.7572
" />
<path d="M104.4760 104.7572
L104.6665 104.6620
" />
<path d="M106.1903 106.6620
L106.1903 105.3287
" />
<path d="M106.1903 105.5191
L106.2855 105.4239
" />
<path d="M106.2855 105.4239
L106.4760 105.3287
" />
<path d="M106.4760 105.3287
L106.7617 105.3287
" />
<path d="M106.7617 105.3287
L106.9522 105.4239
" />
<path d="M106.9522 105.4239
L107.0474 105.6144
" />
<path d="M107.0474 105.6144
L107.0474 106.6620
" />
<path d="M107.0474 105.6144
L107.1427 105.4239
" />
<path d="M107.1427 105.4239
L107.3332 105.3287
" />
<path d="M107.3332 105.3287
L107.6189 105.3287
" />
<path d="M107.6189 105.3287
L107.8093 105.4239
" />
<path d="M107.8093 105.4239
L107.9046 105.6144
" />
<path d="M107.9046 105.6144
L107.9046 106.6620
" />
<path d="M108.8570 106.6620
L108.8570 105.3287
" />
<path d="M108.8570 105.5191
L108.9522 105.4239
" />
<path d="M108.9522 105.4239
L109.1427 105.3287
" />
<path d="M109.1427 105.3287
L109.4284 105.3287
" />
<path d="M109.4284 105.3287
L109.6189 105.4239
" />
<path d="M109.6189 105.4239
L109.7141 105.6144
" />
<path d="M109.7141 105.6144
L109.7141 106.6620
" />
<path d="M109.7141 105.6144
L109.8093 105.4239
" />
<path d="M109.8093 105.4239
L109.9998 105.3287
" />
<path d="M109.9998 105.3287
L110.2855 105.3287
" />
<path d="M110.2855 105.3287
L110.4760 105.4239
" />
<path d="M110.4760 105.4239
L110.5713 105.6144
" />
<path d="M110.5713 105.6144
L110.5713 106.6620
" />
<path d="M114.4760 104.5668
L112.7617 107.1382
" />
<path d="M117.0474 104.6620
L117.2379 104.6620
" />
<path d="M117.2379 104.6620
L117.4284 104.7572
" />
<path d="M117.4284 104.7572
L117.5236 104.8525
" />
<path d="M117.5236 104.8525
L117.6189 105.0430
" />
<path d="M117.6189 105.0430
L117.7141 105.4239
" />
<path d="M117.7141 105.4239
L117.7141 105.9001
" />
<path d="M117.7141 105.9001
L117.6189 106.2810
" />
<path d="M117.6189 106.2810
L117.5236 106.4715
" />
<path d="M117.5236 106.4715
L117.4284 106.5668
" />
<path d="M117.4284 106.5668
L117.2379 106.6620
" />
<path d="M117.2379 106.6620
L117.0474 106.6620
" />
<path d="M117.0474 106.6620
L116.8570 106.5668
" />
<path d="M116.8570 106.5668
L116.7617 106.4715
" />
<path d="M116.7617 106.4715
L116.6665 106.2810
" />
<path d="M116.6665 106.2810
L116.5713 105.9001
" />
<path d="M116.5713 105.9001
L116.5713 105.4239
" />
<path d="M116.5713 105.4239
L116.6665 105.0430
" />
<path d="M116.6665 105.0430
L116.7617 104.8525
" />
<path d="M116.7617 104.8525
L116.8570 104.7572
" />
<path d="M116.8570 104.7572
L117.0474 104.6620
" />
<path d="M118.5713 106.4715
L118.6665 106.5668
" />
<path d="M118.6665 106.5668
L118.5713 106.6620
" />
<path d="M118.5713 106.6620
L118.4760 106.5668
" />
<path d="M118.4760 106.5668
L118.5713 106.4715
" />
<path d="M118.5713 106.4715
L118.5713 106.6620
" />
<path d="M119.9046 104.6620
L120.0951 104.6620
" />
<path d="M120.0951 104.6620
L120.2855 104.7572
" />
<path d="M120.2855 104.7572
L120.3808 104.8525
" />
<path d="M120.3808 104.8525
L120.4760 105.0430
" />
<path d="M120.4760 105.0430
L120.5713 105.4239
" />
<path d="M120.5713 105.4239
L120.5713 105.9001
" />
<path d="M120.5713 105.9001
L120.4760 106.2810
" />
<path d="M120.4760 106.2810
L120.3808 106.4715
" />
<path d="M120.3808 106.4715
L120.2855 106.5668
" />
<path d="M120.2855 106.5668
L120.0951 106.6620
" />
<path d="M120.0951 106.6620
L119.9046 106.6620
" />
<path d="M119.9046 106.6620
L119.7141 106.5668
" />
<path d="M119.7141 106.5668
L119.6189 106.4715
" />
<path d="M119.6189 106.4715
L119.5236 106.2810
" />
<path d="M119.5236 106.2810
L119.4284 105.9001
" />
<path d="M119.4284 105.9001
L119.4284 105.4239
" />
<path d="M119.4284 105.4239
L119.5236 105.0430
" />
<path d="M119.5236 105.0430
L119.6189 104.8525
" />
<path d="M119.6189 104.8525
L119.7141 104.7572
" />
<path d="M119.7141 104.7572
L119.9046 104.6620
" />
<path d="M121.2379 104.6620
L122.4760 104.6620
" />
<path d="M122.4760 104.6620
L121.8094 105.4239
" />
<path d="M121.8094 105.4239
L122.0951 105.4239
" />
<path d="M122.0951 105.4239
L122.2855 105.5191
" />
<path d="M122.2855 105.5191
L122.3808 105.6144
" />
<path d="M122.3808 105.6144
L122.4760 105.8049
" />
<path d="M122.4760 105.8049
L122.4760 106.2810
" />
<path d="M122.4760 106.2810
L122.3808 106.4715
" />
<path d="M122.3808 106.4715
L122.2855 106.5668
" />
<path d="M122.2855 106.5668
L122.0951 106.6620
" />
<path d="M122.0951 106.6620
L121.5236 106.6620
" />
<path d="M121.5236 106.6620
L121.3332 106.5668
" />
<path d="M121.3332 106.5668
L121.2379 106.4715
" />
<path d="M123.4284 106.6620
L123.8094 106.6620
" />
<path d="M123.8094 106.6620
L123.9998 106.5668
" />
<path d="M123.9998 106.5668
L124.0951 106.4715
" />
<path d="M124.0951 106.4715
L124.2855 106.1858
" />
<path d="M124.2855 106.1858
L124.3808 105.8049
" />
<path d="M124.3808 105.8049
L124.3808 105.0430
" />
<path d="M124.3808 105.0430
L124.2855 104.8525
" />
<path d="M124.2855 104.8525
L124.1903 104.7572
" />
<path d="M124.1903 104.7572
L123.9998 104.6620
" />
<path d="M123.9998 104.6620
L123.6189 104.6620
" />
<path d="M123.6189 104.6620
L123.4284 104.7572
" />
<path d="M123.4284 104.7572
L123.3332 104.8525
" />
<path d="M123.3332 104.8525
L123.2379 105.0430
" />
<path d="M123.2379 105.0430
L123.2379 105.5191
" />
<path d="M123.2379 105.5191
L123.3332 105.7096
" />
<path d="M123.3332 105.7096
L123.4284 105.8049
" />
<path d="M123.4284 105.8049
L123.6189 105.9001
" />
<path d="M123.6189 105.9001
L123.9998 105.9001
" />
<path d="M123.9998 105.9001
L124.1903 105.8049
" />
<path d="M124.1903 105.8049
L124.2855 105.7096
" />
<path d="M124.2855 105.7096
L124.3808 105.5191
" />
<path d="M126.0951 105.3287
L126.0951 106.6620
" />
<path d="M125.6189 104.5668
L125.1427 105.9953
" />
<path d="M125.1427 105.9953
L126.3808 105.9953
" />
<path d="M127.0475 104.6620
L127.0475 105.0430
" />
<path d="M127.8094 104.6620
L127.8094 105.0430
" />
<path d="M130.7617 107.4239
L130.6665 107.3287
" />
<path d="M130.6665 107.3287
L130.4760 107.0430
" />
<path d="M130.4760 107.0430
L130.3808 106.8525
" />
<path d="M130.3808 106.8525
L130.2856 106.5668
" />
<path d="M130.2856 106.5668
L130.1903 106.0906
" />
<path d="M130.1903 106.0906
L130.1903 105.7096
" />
<path d="M130.1903 105.7096
L130.2856 105.2334
" />
<path d="M130.2856 105.2334
L130.3808 104.9477
" />
<path d="M130.3808 104.9477
L130.4760 104.7572
" />
<path d="M130.4760 104.7572
L130.6665 104.4715
" />
<path d="M130.6665 104.4715
L130.7617 104.3763
" />
<path d="M132.5713 106.6620
L131.4284 106.6620
" />
<path d="M131.9998 106.6620
L131.9998 104.6620
" />
<path d="M131.9998 104.6620
L131.8094 104.9477
" />
<path d="M131.8094 104.9477
L131.6189 105.1382
" />
<path d="M131.6189 105.1382
L131.4284 105.2334
" />
<path d="M134.2856 104.6620
L133.9046 104.6620
" />
<path d="M133.9046 104.6620
L133.7141 104.7572
" />
<path d="M133.7141 104.7572
L133.6189 104.8525
" />
<path d="M133.6189 104.8525
L133.4284 105.1382
" />
<path d="M133.4284 105.1382
L133.3332 105.5191
" />
<path d="M133.3332 105.5191
L133.3332 106.2810
" />
<path d="M133.3332 106.2810
L133.4284 106.4715
" />
<path d="M133.4284 106.4715
L133.5236 106.5668
" />
<path d="M133.5236 106.5668
L133.7141 106.6620
" />
<path d="M133.7141 106.6620
L134.0951 106.6620
" />
<path d="M134.0951 106.6620
L134.2856 106.5668
" />
<path d="M134.2856 106.5668
L134.3808 106.4715
" />
<path d="M134.3808 106.4715
L134.4760 106.2810
" />
<path d="M134.4760 106.2810
L134.4760 105.8049
" />
<path d="M134.4760 105.8049
L134.3808 105.6144
" />
<path d="M134.3808 105.6144
L134.2856 105.5191
" />
<path d="M134.2856 105.5191
L134.0951 105.4239
" />
<path d="M134.0951 105.4239
L133.7141 105.4239
" />
<path d="M133.7141 105.4239
L133.5236 105.5191
" />
<path d="M133.5236 105.5191
L133.4284 105.6144
" />
<path d="M133.4284 105.6144
L133.3332 105.8049
" />
<path d="M136.8570 106.6620
L136.8570 104.6620
" />
<path d="M137.7141 106.6620
L137.7141 105.6144
" />
<path d="M137.7141 105.6144
L137.6189 105.4239
" />
<path d="M137.6189 105.4239
L137.4284 105.3287
" />
<path d="M137.4284 105.3287
L137.1427 105.3287
" />
<path d="M137.1427 105.3287
L136.9522 105.4239
" />
<path d="M136.9522 105.4239
L136.8570 105.5191
" />
<path d="M138.9522 106.6620
L138.7617 106.5668
" />
<path d="M138.7617 106.5668
L138.6665 106.4715
" />
<path d="M138.6665 106.4715
L138.5713 106.2810
" />
<path d="M138.5713 106.2810
L138.5713 105.7096
" />
<path d="M138.5713 105.7096
L138.6665 105.5191
" />
<path d="M138.6665 105.5191
L138.7617 105.4239
" />
<path d="M138.7617 105.4239
L138.9522 105.3287
" />
<path d="M138.9522 105.3287
L139.2379 105.3287
" />
<path d="M139.2379 105.3287
L139.4284 105.4239
" />
<path d="M139.4284 105.4239
L139.5237 105.5191
" />
<path d="M139.5237 105.5191
L139.6189 105.7096
" />
<path d="M139.6189 105.7096
L139.6189 106.2810
" />
<path d="M139.6189 106.2810
L139.5237 106.4715
" />
<path d="M139.5237 106.4715
L139.4284 106.5668
" />
<path d="M139.4284 106.5668
L139.2379 106.6620
" />
<path d="M139.2379 106.6620
L138.9522 106.6620
" />
<path d="M140.7617 106.6620
L140.5713 106.5668
" />
<path d="M140.5713 106.5668
L140.4760 106.3763
" />
<path d="M140.4760 106.3763
L140.4760 104.6620
" />
<path d="M142.2856 106.5668
L142.0951 106.6620
" />
<path d="M142.0951 106.6620
L141.7141 106.6620
" />
<path d="M141.7141 106.6620
L141.5237 106.5668
" />
<path d="M141.5237 106.5668
L141.4284 106.3763
" />
<path d="M141.4284 106.3763
L141.4284 105.6144
" />
<path d="M141.4284 105.6144
L141.5237 105.4239
" />
<path d="M141.5237 105.4239
L141.7141 105.3287
" />
<path d="M141.7141 105.3287
L142.0951 105.3287
" />
<path d="M142.0951 105.3287
L142.2856 105.4239
" />
<path d="M142.2856 105.4239
L142.3808 105.6144
" />
<path d="M142.3808 105.6144
L142.3808 105.8049
" />
<path d="M142.3808 105.8049
L141.4284 105.9953
" />
<path d="M143.1427 106.5668
L143.3332 106.6620
" />
<path d="M143.3332 106.6620
L143.7141 106.6620
" />
<path d="M143.7141 106.6620
L143.9046 106.5668
" />
<path d="M143.9046 106.5668
L143.9998 106.3763
" />
<path d="M143.9998 106.3763
L143.9998 106.2810
" />
<path d="M143.9998 106.2810
L143.9046 106.0906
" />
<path d="M143.9046 106.0906
L143.7141 105.9953
" />
<path d="M143.7141 105.9953
L143.4284 105.9953
" />
<path d="M143.4284 105.9953
L143.2379 105.9001
" />
<path d="M143.2379 105.9001
L143.1427 105.7096
" />
<path d="M143.1427 105.7096
L143.1427 105.6144
" />
<path d="M143.1427 105.6144
L143.2379 105.4239
" />
<path d="M143.2379 105.4239
L143.4284 105.3287
" />
<path d="M143.4284 105.3287
L143.7141 105.3287
" />
<path d="M143.7141 105.3287
L143.9046 105.4239
" />
<path d="M144.6665 107.4239
L144.7618 107.3287
" />
<path d="M144.7618 107.3287
L144.9522 107.0430
" />
<path d="M144.9522 107.0430
L145.0475 106.8525
" />
<path d="M145.0475 106.8525
L145.1427 106.5668
" />
<path d="M145.1427 106.5668
L145.2379 106.0906
" />
<path d="M145.2379 106.0906
L145.2379 105.7096
" />
<path d="M145.2379 105.7096
L145.1427 105.2334
" />
<path d="M145.1427 105.2334
L145.0475 104.9477
" />
<path d="M145.0475 104.9477
L144.9522 104.7572
" />
<path d="M144.9522 104.7572
L144.7618 104.4715
" />
<path d="M144.7618 104.4715
L144.6665 104.3763
" />
</g></g>
<g style="fill:#000000; fill-opacity:0.0; 
stroke:#000000; stroke-width:0.3000; stroke-opacity:1; 
stroke-linecap:round; stroke-linejoin:round;">
<circle cx="94.0111" cy="108.9472" r="1.0000" /> 
</g>
<g style="fill:#000000; fill-opacity:0.0; 
stroke:#000000; stroke-width:0.6000; stroke-opacity:1; 
stroke-linecap:round; stroke-linejoin:round;">
</g>
<g style="fill:#000000; fill-opacity:0.0; 
stroke:#000000; stroke-width:0.2000; stroke-opacity:1; 
stroke-linecap:round; stroke-linejoin:round;">
<text x="97.0111" y="109.9472"
textLength="46.8667" font-size="2.6667" lengthAdjust="spacingAndGlyphs"
text-anchor="start" opacity="0">1.100mm / 0.0433" (8 holes)</text>
<g class="stroked-text"><desc>1.100mm / 0.0433" (8 holes)</desc>
<path d="M98.6665 109.8620
L97.5236 109.8620
" />
<path d="M98.0951 109.8620
L98.0951 107.8620
" />
<path d="M98.0951 107.8620
L97.9046 108.1477
" />
<path d="M97.9046 108.1477
L97.7141 108.3382
" />
<path d="M97.7141 108.3382
L97.5236 108.4334
" />
<path d="M99.5236 109.6715
L99.6189 109.7668
" />
<path d="M99.6189 109.7668
L99.5236 109.8620
" />
<path d="M99.5236 109.8620
L99.4284 109.7668
" />
<path d="M99.4284 109.7668
L99.5236 109.6715
" />
<path d="M99.5236 109.6715
L99.5236 109.8620
" />
<path d="M101.5236 109.8620
L100.3808 109.8620
" />
<path d="M100.9522 109.8620
L100.9522 107.8620
" />
<path d="M100.9522 107.8620
L100.7617 108.1477
" />
<path d="M100.7617 108.1477
L100.5712 108.3382
" />
<path d="M100.5712 108.3382
L100.3808 108.4334
" />
<path d="M102.7617 107.8620
L102.9522 107.8620
" />
<path d="M102.9522 107.8620
L103.1427 107.9572
" />
<path d="M103.1427 107.9572
L103.2379 108.0525
" />
<path d="M103.2379 108.0525
L103.3332 108.2430
" />
<path d="M103.3332 108.2430
L103.4284 108.6239
" />
<path d="M103.4284 108.6239
L103.4284 109.1001
" />
<path d="M103.4284 109.1001
L103.3332 109.4810
" />
<path d="M103.3332 109.4810
L103.2379 109.6715
" />
<path d="M103.2379 109.6715
L103.1427 109.7668
" />
<path d="M103.1427 109.7668
L102.9522 109.8620
" />
<path d="M102.9522 109.8620
L102.7617 109.8620
" />
<path d="M102.7617 109.8620
L102.5713 109.7668
" />
<path d="M102.5713 109.7668
L102.4760 109.6715
" />
<path d="M102.4760 109.6715
L102.3808 109.4810
" />
<path d="M102.3808 109.4810
L102.2855 109.1001
" />
<path d="M102.2855 109.1001
L102.2855 108.6239
" />
<path d="M102.2855 108.6239
L102.3808 108.2430
" />
<path d="M102.3808 108.2430
L102.4760 108.0525
" />
<path d="M102.4760 108.0525
L102.5713 107.9572
" />
<path d="M102.5713 107.9572
L102.7617 107.8620
" />
<path d="M104.6665 107.8620
L104.8570 107.8620
" />
<path d="M104.8570 107.8620
L105.0474 107.9572
" />
<path d="M105.0474 107.9572
L105.1427 108.0525
" />
<path d="M105.1427 108.0525
L105.2379 108.2430
" />
<path d="M105.2379 108.2430
L105.3332 108.6239
" />
<path d="M105.3332 108.6239
L105.3332 109.1001
" />
<path d="M105.3332 109.1001
L105.2379 109.4810
" />
<path d="M105.2379 109.4810
L105.1427 109.6715
" />
<path d="M105.1427 109.6715
L105.0474 109.7668
" />
<path d="M105.0474 109.7668
L104.8570 109.8620
" />
<path d="M104.8570 109.8620
L104.6665 109.8620
" />
<path d="M104.6665 109.8620
L104.4760 109.7668
" />
<path d="M104.4760 109.7668
L104.3808 109.6715
" />
<path d="M104.3808 109.6715
L104.2855 109.4810
" />
<path d="M104.2855 109.4810
L104.1903 109.1001
" />
<path d="M104.1903 109.1001
L104.1903 108.6239
" />
<path d="M104.1903 108.6239
L104.2855 108.2430
" />
<path d="M104.2855 108.2430
L104.3808 108.0525
" />
<path d="M104.3808 108.0525
L104.4760 107.9572
" />
<path d="M104.4760 107.9572
L104.6665 107.8620
" />
<path d="M106.1903 109.8620
L106.1903 108.5287
" />
<path d="M106.1903 108.7191
L106.2855 108.6239
" />
<path d="M106.2855 108.6239
L106.4760 108.5287
" />
<path d="M106.4760 108.5287
L106.7617 108.5287
" />
<path d="M106.7617 108.5287
L106.9522 108.6239
" />
<path d="M106.9522 108.6239
L107.0474 108.8144
" />
<path d="M107.0474 108.8144
L107.0474 109.8620
" />
<path d="M107.0474 108.8144
L107.1427 108.6239
" />
<path d="M107.1427 108.6239
L107.3332 108.5287
" />
<path d="M107.3332 108.5287
L107.6189 108.5287
" />
<path d="M107.6189 108.5287
L107.8093 108.6239
" />
<path d="M107.8093 108.6239
L107.9046 108.8144
" />
<path d="M107.9046 108.8144
L107.9046 109.8620
" />
<path d="M108.8570 109.8620
L108.8570 108.5287
" />
<path d="M108.8570 108.7191
L108.9522 108.6239
" />
<path d="M108.9522 108.6239
L109.1427 108.5287
" />
<path d="M109.1427 108.5287
L109.4284 108.5287
" />
<path d="M109.4284 108.5287
L109.6189 108.6239
" />
<path d="M109.6189 108.6239
L109.7141 108.8144
" />
<path d="M109.7141 108.8144
L109.7141 109.8620
" />
<path d="M109.7141 108.8144
L109.8093 108.6239
" />
<path d="M109.8093 108.6239
L109.9998 108.5287
" />
<path d="M109.9998 108.5287
L110.2855 108.5287
" />
<path d="M110.2855 108.5287
L110.4760 108.6239
" />
<path d="M110.4760 108.6239
L110.5713 108.8144
" />
<path d="M110.5713 108.8144
L110.5713 109.8620
" />
<path d="M114.4760 107.7668
L112.7617 110.3382
" />
<path d="M117.0474 107.8620
L117.2379 107.8620
" />
<path d="M117.2379 107.8620
L117.4284 107.9572
" />
<path d="M117.4284 107.9572
L117.5236 108.0525
" />
<path d="M117.5236 108.0525
L117.6189 108.2430
" />
<path d="M117.6189 108.2430
L117.7141 108.6239
" />
<path d="M117.7141 108.6239
L117.7141 109.1001
" />
<path d="M117.7141 109.1001
L117.6189 109.4810
" />
<path d="M117.6189 109.4810
L117.5236 109.6715
" />
<path d="M117.5236 109.6715
L117.4284 109.7668
" />
<path d="M117.4284 109.7668
L117.2379 109.8620
" />
<path d="M117.2379 109.8620
L117.0474 109.8620
" />
<path d="M117.0474 109.8620
L116.8570 109.7668
" />
<path d="M116.8570 109.7668
L116.7617 109.6715
" />
<path d="M116.7617 109.6715
L116.6665 109.4810
" />
<path d="M116.6665 109.4810
L116.5713 109.1001
" />
<path d="M116.5713 109.1001
L116.5713 108.6239
" />
<path d="M116.5713 108.6239
L116.6665 108.2430
" />
<path d="M116.6665 108.2430
L116.7617 108.0525
" />
<path d="M116.7617 108.0525
L116.8570 107.9572
" />
<path d="M116.8570 107.9572
L117.0474 107.8620
" />
<path d="M118.5713 109.6715
L118.6665 109.7668
" />
<path d="M118.6665 109.7668
L118.5713 109.8620
" />
<path d="M118.5713 109.8620
L118.4760 109.7668
" />
<path d="M118.4760 109.7668
L118.5713 109.6715
" />
<path d="M118.5713 109.6715
L118.5713 109.8620
" />
<path d="M119.9046 107.8620
L120.0951 107.8620
" />
<path d="M120.0951 107.8620
L120.2855 107.9572
" />
<path d="M120.2855 107.9572
L120.3808 108.0525
" />
<path d="M120.3808 108.0525
L120.4760 108.2430
" />
<path d="M120.4760 108.2430
L120.5713 108.6239
" />
<path d="M120.5713 108.6239
L120.5713 109.1001
" />
<path d="M120.5713 109.1001
L120.4760 109.4810
" />
<path d="M120.4760 109.4810
L120.3808 109.6715
" />
<path d="M120.3808 109.6715
L120.2855 109.7668
" />
<path d="M120.2855 109.7668
L120.0951 109.8620
" />
<path d="M120.0951 109.8620
L119.9046 109.8620
" />
<path d="M119.9046 109.8620
L119.7141 109.7668
" />
<path d="M119.7141 109.7668
L119.6189 109.6715
" />
<path d="M119.6189 109.6715
L119.5236 109.4810
" />
<path d="M119.5236 109.4810
L119.4284 109.1001
" />
<path d="M119.4284 109.1001
L119.4284 108.6239
" />
<path d="M119.4284 108.6239
L119.5236 108.2430
" />
<path d="M119.5236 108.2430
L119.6189 108.0525
" />
<path d="M119.6189 108.0525
L119.7141 107.9572
" />
<path d="M119.7141 107.9572
L119.9046 107.8620
" />
<path d="M122.2855 108.5287
L122.2855 109.8620
" />
<path d="M121.8094 107.7668
L121.3332 109.1953
" />
<path d="M121.3332 109.1953
L122.5713 109.1953
" />
<path d="M123.1427 107.8620
L124.3808 107.8620
" />
<path d="M124.3808 107.8620
L123.7141 108.6239
" />
<path d="M123.7141 108.6239
L123.9998 108.6239
" />
<path d="M123.9998 108.6239
L124.1903 108.7191
" />
<path d="M124.1903 108.7191
L124.2855 108.8144
" />
<path d="M124.2855 108.8144
L124.3808 109.0049
" />
<path d="M124.3808 109.0049
L124.3808 109.4810
" />
<path d="M124.3808 109.4810
L124.2855 109.6715
" />
<path d="M124.2855 109.6715
L124.1903 109.7668
" />
<path d="M124.1903 109.7668
L123.9998 109.8620
" />
<path d="M123.9998 109.8620
L123.4284 109.8620
" />
<path d="M123.4284 109.8620
L123.2379 109.7668
" />
<path d="M123.2379 109.7668
L123.1427 109.6715
" />
<path d="M125.0475 107.8620
L126.2855 107.8620
" />
<path d="M126.2855 107.8620
L125.6189 108.6239
" />
<path d="M125.6189 108.6239
L125.9046 108.6239
" />
<path d="M125.9046 108.6239
L126.0951 108.7191
" />
<path d="M126.0951 108.7191
L126.1903 108.8144
" />
<path d="M126.1903 108.8144
L126.2855 109.0049
" />
<path d="M126.2855 109.0049
L126.2855 109.4810
" />
<path d="M126.2855 109.4810
L126.1903 109.6715
" />
<path d="M126.1903 109.6715
L126.0951 109.7668
" />
<path d="M126.0951 109.7668
L125.9046 109.8620
" />
<path d="M125.9046 109.8620
L125.3332 109.8620
" />
<path d="M125.3332 109.8620
L125.1427 109.7668
" />
<path d="M125.1427 109.7668
L125.0475 109.6715
" />
<path d="M127.0475 107.8620
L127.0475 108.2430
" />
<path d="M127.8094 107.8620
L127.8094 108.2430
" />
<path d="M130.7617 110.6239
L130.6665 110.5287
" />
<path d="M130.6665 110.5287
L130.4760 110.2430
" />
<path d="M130.4760 110.2430
L130.3808 110.0525
" />
<path d="M130.3808 110.0525
L130.2856 109.7668
" />
<path d="M130.2856 109.7668
L130.1903 109.2906
" />
<path d="M130.1903 109.2906
L130.1903 108.9096
" />
<path d="M130.1903 108.9096
L130.2856 108.4334
" />
<path d="M130.2856 108.4334
L130.3808 108.1477
" />
<path d="M130.3808 108.1477
L130.4760 107.9572
" />
<path d="M130.4760 107.9572
L130.6665 107.6715
" />
<path d="M130.6665 107.6715
L130.7617 107.5763
" />
<path d="M131.8094 108.7191
L131.6189 108.6239
" />
<path d="M131.6189 108.6239
L131.5236 108.5287
" />
<path d="M131.5236 108.5287
L131.4284 108.3382
" />
<path d="M131.4284 108.3382
L131.4284 108.2430
" />
<path d="M131.4284 108.2430
L131.5236 108.0525
" />
<path d="M131.5236 108.0525
L131.6189 107.9572
" />
<path d="M131.6189 107.9572
L131.8094 107.8620
" />
<path d="M131.8094 107.8620
L132.1903 107.8620
" />
<path d="M132.1903 107.8620
L132.3808 107.9572
" />
<path d="M132.3808 107.9572
L132.4760 108.0525
" />
<path d="M132.4760 108.0525
L132.5713 108.2430
" />
<path d="M132.5713 108.2430
L132.5713 108.3382
" />
<path d="M132.5713 108.3382
L132.4760 108.5287
" />
<path d="M132.4760 108.5287
L132.3808 108.6239
" />
<path d="M132.3808 108.6239
L132.1903 108.7191
" />
<path d="M132.1903 108.7191
L131.8094 108.7191
" />
<path d="M131.8094 108.7191
L131.6189 108.8144
" />
<path d="M131.6189 108.8144
L131.5236 108.9096
" />
<path d="M131.5236 108.9096
L131.4284 109.1001
" />
<path d="M131.4284 109.1001
L131.4284 109.4810
" />
<path d="M131.4284 109.4810
L131.5236 109.6715
" />
<path d="M131.5236 109.6715
L131.6189 109.7668
" />
<path d="M131.6189 109.7668
L131.8094 109.8620
" />
<path d="M131.8094 109.8620
L132.1903 109.8620
" />
<path d="M132.1903 109.8620
L132.3808 109.7668
" />
<path d="M132.3808 109.7668
L132.4760 109.6715
" />
<path d="M132.4760 109.6715
L132.5713 109.4810
" />
<path d="M132.5713 109.4810
L132.5713 109.1001
" />
<path d="M132.5713 109.1001
L132.4760 108.9096
" />
<path d="M132.4760 108.9096
L132.3808 108.8144
" />
<path d="M132.3808 108.8144
L132.1903 108.7191
" />
<path d="M134.9522 109.8620
L134.9522 107.8620
" />
<path d="M135.8094 109.8620
L135.8094 108.8144
" />
<path d="M135.8094 108.8144
L135.7141 108.6239
" />
<path d="M135.7141 108.6239
L135.5237 108.5287
" />
<path d="M135.5237 108.5287
L135.2379 108.5287
" />
<path d="M135.2379 108.5287
L135.0475 108.6239
" />
<path d="M135.0475 108.6239
L134.9522 108.7191
" />
<path d="M137.0475 109.8620
L136.8570 109.7668
" />
<path d="M136.8570 109.7668
L136.7617 109.6715
" />
<path d="M136.7617 109.6715
L136.6665 109.4810
" />
<path d="M136.6665 109.4810
L136.6665 108.9096
" />
<path d="M136.6665 108.9096
L136.7617 108.7191
" />
<path d="M136.7617 108.7191
L136.8570 108.6239
" />
<path d="M136.8570 108.6239
L137.0475 108.5287
" />
<path d="M137.0475 108.5287
L137.3332 108.5287
" />
<path d="M137.3332 108.5287
L137.5237 108.6239
" />
<path d="M137.5237 108.6239
L137.6189 108.7191
" />
<path d="M137.6189 108.7191
L137.7141 108.9096
" />
<path d="M137.7141 108.9096
L137.7141 109.4810
" />
<path d="M137.7141 109.4810
L137.6189 109.6715
" />
<path d="M137.6189 109.6715
L137.5237 109.7668
" />
<path d="M137.5237 109.7668
L137.3332 109.8620
" />
<path d="M137.3332 109.8620
L137.0475 109.8620
" />
<path d="M138.8570 109.8620
L138.6665 109.7668
" />
<path d="M138.6665 109.7668
L138.5713 109.5763
" />
<path d="M138.5713 109.5763
L138.5713 107.8620
" />
<path d="M140.3808 109.7668
L140.1903 109.8620
" />
<path d="M140.1903 109.8620
L139.8094 109.8620
" />
<path d="M139.8094 109.8620
L139.6189 109.7668
" />
<path d="M139.6189 109.7668
L139.5237 109.5763
" />
<path d="M139.5237 109.5763
L139.5237 108.8144
" />
<path d="M139.5237 108.8144
L139.6189 108.6239
" />
<path d="M139.6189 108.6239
L139.8094 108.5287
" />
<path d="M139.8094 108.5287
L140.1903 108.5287
" />
<path d="M140.1903 108.5287
L140.3808 108.6239
" />
<path d="M140.3808 108.6239
L140.4760 108.8144
" />
<path d="M140.4760 108.8144
L140.4760 109.0049
" />
<path d="M140.4760 109.0049
L139.5237 109.1953
" />
<path d="M141.2379 109.7668
L141.4284 109.8620
" />
<path d="M141.4284 109.8620
L141.8094 109.8620
" />
<path d="M141.8094 109.8620
L141.9998 109.7668
" />
<path d="M141.9998 109.7668
L142.0951 109.5763
" />
<path d="M142.0951 109.5763
L142.0951 109.4810
" />
<path d="M142.0951 109.4810
L141.9998 109.2906
" />
<path d="M141.9998 109.2906
L141.8094 109.1953
" />
<path d="M141.8094 109.1953
L141.5237 109.1953
" />
<path d="M141.5237 109.1953
L141.3332 109.1001
" />
<path d="M141.3332 109.1001
L141.2379 108.9096
" />
<path d="M141.2379 108.9096
L141.2379 108.8144
" />
<path d="M141.2379 108.8144
L141.3332 108.6239
" />
<path d="M141.3332 108.6239
L141.5237 108.5287
" />
<path d="M141.5237 108.5287
L141.8094 108.5287
" />
<path d="M141.8094 108.5287
L141.9998 108.6239
" />
<path d="M142.7618 110.6239
L142.8570 110.5287
" />
<path d="M142.8570 110.5287
L143.0475 110.2430
" />
<path d="M143.0475 110.2430
L143.1427 110.0525
" />
<path d="M143.1427 110.0525
L143.2379 109.7668
" />
<path d="M143.2379 109.7668
L143.3332 109.2906
" />
<path d="M143.3332 109.2906
L143.3332 108.9096
" />
<path d="M143.3332 108.9096
L143.2379 108.4334
" />
<path d="M143.2379 108.4334
L143.1427 108.1477
" />
<path d="M143.1427 108.1477
L143.0475 107.9572
" />
<path d="M143.0475 107.9572
L142.8570 107.6715
" />
<path d="M142.8570 107.6715
L142.7618 107.5763
" />
</g></g> 
</svg>
