<?xml version="1.0" standalone="no"?>
 <!DOCTYPE svg PUBLIC "-//W3C//DTD SVG 1.1//EN" 
 "http://www.w3.org/Graphics/SVG/1.1/DTD/svg11.dtd"> 
<svg
  xmlns:svg="http://www.w3.org/2000/svg"
  xmlns="http://www.w3.org/2000/svg"
  xmlns:xlink="http://www.w3.org/1999/xlink"
  version="1.1"
  width="297.0022mm" height="210.0072mm" viewBox="0.0000 0.0000 297.0022 210.0072">
<title>SVG Image created as ch552g_bob-NPTH-drl_map.svg date 2023/12/31 02:56:57 </title>
  <desc>Image generated by PCBNEW </desc>
<g style="fill:#000000; fill-opacity:1.0000;stroke:#000000; stroke-opacity:1.0000;
stroke-linecap:round; stroke-linejoin:round;"
 transform="translate(0 0) scale(1 1)">
</g>
<g style="fill:#000000; fill-opacity:0.0; 
stroke:#000000; stroke-width:0.0000; stroke-opacity:1; 
stroke-linecap:round; stroke-linejoin:round;">
</g>
<g style="fill:#000000; fill-opacity:0.0; 
stroke:#000000; stroke-width:0.3000; stroke-opacity:1; 
stroke-linecap:round; stroke-linejoin:round;">
<path style="fill:#000000; fill-opacity:0.0; 
stroke:#000000; stroke-width:0.3000; stroke-opacity:1; 
stroke-linecap:round; stroke-linejoin:round;fill:none"
d="M 95.1611,26.8072
201.8411,26.8072
201.8411,99.1972
95.1611,99.1972
Z" /> 
</g>
<g style="fill:#000000; fill-opacity:0.0; 
stroke:#000000; stroke-width:0.6000; stroke-opacity:1; 
stroke-linecap:round; stroke-linejoin:round;">
</g>
<g style="fill:#000000; fill-opacity:0.0; 
stroke:#000000; stroke-width:0.2000; stroke-opacity:1; 
stroke-linecap:round; stroke-linejoin:round;">
<text x="97.0111" y="102.5472"
textLength="14.8667" font-size="2.6667" lengthAdjust="spacingAndGlyphs"
text-anchor="start" opacity="0">Drill Map:</text>
<g class="stroked-text"><desc>Drill Map:</desc>
<path d="M97.6189 102.4620
L97.6189 100.4620
" />
<path d="M97.6189 100.4620
L98.0951 100.4620
" />
<path d="M98.0951 100.4620
L98.3808 100.5572
" />
<path d="M98.3808 100.5572
L98.5712 100.7477
" />
<path d="M98.5712 100.7477
L98.6665 100.9382
" />
<path d="M98.6665 100.9382
L98.7617 101.3191
" />
<path d="M98.7617 101.3191
L98.7617 101.6049
" />
<path d="M98.7617 101.6049
L98.6665 101.9858
" />
<path d="M98.6665 101.9858
L98.5712 102.1763
" />
<path d="M98.5712 102.1763
L98.3808 102.3668
" />
<path d="M98.3808 102.3668
L98.0951 102.4620
" />
<path d="M98.0951 102.4620
L97.6189 102.4620
" />
<path d="M99.6189 102.4620
L99.6189 101.1287
" />
<path d="M99.6189 101.5096
L99.7141 101.3191
" />
<path d="M99.7141 101.3191
L99.8093 101.2239
" />
<path d="M99.8093 101.2239
L99.9998 101.1287
" />
<path d="M99.9998 101.1287
L100.1903 101.1287
" />
<path d="M100.8570 102.4620
L100.8570 101.1287
" />
<path d="M100.8570 100.4620
L100.7617 100.5572
" />
<path d="M100.7617 100.5572
L100.8570 100.6525
" />
<path d="M100.8570 100.6525
L100.9522 100.5572
" />
<path d="M100.9522 100.5572
L100.8570 100.4620
" />
<path d="M100.8570 100.4620
L100.8570 100.6525
" />
<path d="M102.0951 102.4620
L101.9046 102.3668
" />
<path d="M101.9046 102.3668
L101.8093 102.1763
" />
<path d="M101.8093 102.1763
L101.8093 100.4620
" />
<path d="M103.1427 102.4620
L102.9522 102.3668
" />
<path d="M102.9522 102.3668
L102.8570 102.1763
" />
<path d="M102.8570 102.1763
L102.8570 100.4620
" />
<path d="M105.4284 102.4620
L105.4284 100.4620
" />
<path d="M105.4284 100.4620
L106.0951 101.8906
" />
<path d="M106.0951 101.8906
L106.7617 100.4620
" />
<path d="M106.7617 100.4620
L106.7617 102.4620
" />
<path d="M108.5713 102.4620
L108.5713 101.4144
" />
<path d="M108.5713 101.4144
L108.4760 101.2239
" />
<path d="M108.4760 101.2239
L108.2855 101.1287
" />
<path d="M108.2855 101.1287
L107.9046 101.1287
" />
<path d="M107.9046 101.1287
L107.7141 101.2239
" />
<path d="M108.5713 102.3668
L108.3808 102.4620
" />
<path d="M108.3808 102.4620
L107.9046 102.4620
" />
<path d="M107.9046 102.4620
L107.7141 102.3668
" />
<path d="M107.7141 102.3668
L107.6189 102.1763
" />
<path d="M107.6189 102.1763
L107.6189 101.9858
" />
<path d="M107.6189 101.9858
L107.7141 101.7953
" />
<path d="M107.7141 101.7953
L107.9046 101.7001
" />
<path d="M107.9046 101.7001
L108.3808 101.7001
" />
<path d="M108.3808 101.7001
L108.5713 101.6049
" />
<path d="M109.5236 101.1287
L109.5236 103.1287
" />
<path d="M109.5236 101.2239
L109.7141 101.1287
" />
<path d="M109.7141 101.1287
L110.0951 101.1287
" />
<path d="M110.0951 101.1287
L110.2855 101.2239
" />
<path d="M110.2855 101.2239
L110.3808 101.3191
" />
<path d="M110.3808 101.3191
L110.4760 101.5096
" />
<path d="M110.4760 101.5096
L110.4760 102.0810
" />
<path d="M110.4760 102.0810
L110.3808 102.2715
" />
<path d="M110.3808 102.2715
L110.2855 102.3668
" />
<path d="M110.2855 102.3668
L110.0951 102.4620
" />
<path d="M110.0951 102.4620
L109.7141 102.4620
" />
<path d="M109.7141 102.4620
L109.5236 102.3668
" />
<path d="M111.3332 102.2715
L111.4284 102.3668
" />
<path d="M111.4284 102.3668
L111.3332 102.4620
" />
<path d="M111.3332 102.4620
L111.2379 102.3668
" />
<path d="M111.2379 102.3668
L111.3332 102.2715
" />
<path d="M111.3332 102.2715
L111.3332 102.4620
" />
<path d="M111.3332 101.2239
L111.4284 101.3191
" />
<path d="M111.4284 101.3191
L111.3332 101.4144
" />
<path d="M111.3332 101.4144
L111.2379 101.3191
" />
<path d="M111.2379 101.3191
L111.3332 101.2239
" />
<path d="M111.3332 101.2239
L111.3332 101.4144
" />
</g></g> 
</svg>
