%TF.GenerationSoftware,KiCad,Pcbnew,7.0.9-rc2*%
%TF.CreationDate,2024-02-17T00:19:55-08:00*%
%TF.ProjectId,ch552g_bob,63683535-3267-45f6-926f-622e6b696361,rev?*%
%TF.SameCoordinates,PX791ddc0PY5563218*%
%TF.FileFunction,Legend,Top*%
%TF.FilePolarity,Positive*%
%FSLAX46Y46*%
G04 Gerber Fmt 4.6, Leading zero omitted, Abs format (unit mm)*
G04 Created by KiCad (PCBNEW 7.0.9-rc2) date 2024-02-17 00:19:55*
%MOMM*%
%LPD*%
G01*
G04 APERTURE LIST*
%ADD10C,0.150000*%
%ADD11C,0.120000*%
G04 APERTURE END LIST*
D10*
X7031819Y-22557333D02*
X7746104Y-22557333D01*
X7746104Y-22557333D02*
X7888961Y-22604952D01*
X7888961Y-22604952D02*
X7984200Y-22700190D01*
X7984200Y-22700190D02*
X8031819Y-22843047D01*
X8031819Y-22843047D02*
X8031819Y-22938285D01*
X7365152Y-21652571D02*
X8031819Y-21652571D01*
X6984200Y-21890666D02*
X7698485Y-22128761D01*
X7698485Y-22128761D02*
X7698485Y-21509714D01*
X7031819Y-2237333D02*
X7746104Y-2237333D01*
X7746104Y-2237333D02*
X7888961Y-2284952D01*
X7888961Y-2284952D02*
X7984200Y-2380190D01*
X7984200Y-2380190D02*
X8031819Y-2523047D01*
X8031819Y-2523047D02*
X8031819Y-2618285D01*
X7031819Y-1856380D02*
X7031819Y-1237333D01*
X7031819Y-1237333D02*
X7412771Y-1570666D01*
X7412771Y-1570666D02*
X7412771Y-1427809D01*
X7412771Y-1427809D02*
X7460390Y-1332571D01*
X7460390Y-1332571D02*
X7508009Y-1284952D01*
X7508009Y-1284952D02*
X7603247Y-1237333D01*
X7603247Y-1237333D02*
X7841342Y-1237333D01*
X7841342Y-1237333D02*
X7936580Y-1284952D01*
X7936580Y-1284952D02*
X7984200Y-1332571D01*
X7984200Y-1332571D02*
X8031819Y-1427809D01*
X8031819Y-1427809D02*
X8031819Y-1713523D01*
X8031819Y-1713523D02*
X7984200Y-1808761D01*
X7984200Y-1808761D02*
X7936580Y-1856380D01*
D11*
%TO.C,J4*%
X8577000Y-23554000D02*
X8577000Y-22224000D01*
X9907000Y-23554000D02*
X8577000Y-23554000D01*
X11177000Y-23554000D02*
X29017000Y-23554000D01*
X11177000Y-23554000D02*
X11177000Y-20894000D01*
X29017000Y-23554000D02*
X29017000Y-20894000D01*
X11177000Y-20894000D02*
X29017000Y-20894000D01*
%TO.C,J3*%
X8577000Y-3234000D02*
X8577000Y-1904000D01*
X9907000Y-3234000D02*
X8577000Y-3234000D01*
X11177000Y-3234000D02*
X29017000Y-3234000D01*
X11177000Y-3234000D02*
X11177000Y-574000D01*
X29017000Y-3234000D02*
X29017000Y-574000D01*
X11177000Y-574000D02*
X29017000Y-574000D01*
%TD*%
M02*
