%TF.GenerationSoftware,KiCad,Pcbnew,7.0.9-rc2*%
%TF.CreationDate,2024-02-17T00:19:54-08:00*%
%TF.ProjectId,ch552g_bob,63683535-3267-45f6-926f-622e6b696361,rev?*%
%TF.SameCoordinates,PX791ddc0PY5563218*%
%TF.FileFunction,Copper,L2,Bot*%
%TF.FilePolarity,Positive*%
%FSLAX46Y46*%
G04 Gerber Fmt 4.6, Leading zero omitted, Abs format (unit mm)*
G04 Created by KiCad (PCBNEW 7.0.9-rc2) date 2024-02-17 00:19:54*
%MOMM*%
%LPD*%
G01*
G04 APERTURE LIST*
G04 Aperture macros list*
%AMRoundRect*
0 Rectangle with rounded corners*
0 $1 Rounding radius*
0 $2 $3 $4 $5 $6 $7 $8 $9 X,Y pos of 4 corners*
0 Add a 4 corners polygon primitive as box body*
4,1,4,$2,$3,$4,$5,$6,$7,$8,$9,$2,$3,0*
0 Add four circle primitives for the rounded corners*
1,1,$1+$1,$2,$3*
1,1,$1+$1,$4,$5*
1,1,$1+$1,$6,$7*
1,1,$1+$1,$8,$9*
0 Add four rect primitives between the rounded corners*
20,1,$1+$1,$2,$3,$4,$5,0*
20,1,$1+$1,$4,$5,$6,$7,0*
20,1,$1+$1,$6,$7,$8,$9,0*
20,1,$1+$1,$8,$9,$2,$3,0*%
G04 Aperture macros list end*
%TA.AperFunction,ComponentPad*%
%ADD10R,1.700000X1.700000*%
%TD*%
%TA.AperFunction,ComponentPad*%
%ADD11O,1.700000X1.700000*%
%TD*%
%TA.AperFunction,ComponentPad*%
%ADD12C,2.000000*%
%TD*%
%TA.AperFunction,SMDPad,CuDef*%
%ADD13RoundRect,0.200000X0.200000X0.275000X-0.200000X0.275000X-0.200000X-0.275000X0.200000X-0.275000X0*%
%TD*%
%TA.AperFunction,SMDPad,CuDef*%
%ADD14RoundRect,0.225000X-0.225000X-0.250000X0.225000X-0.250000X0.225000X0.250000X-0.225000X0.250000X0*%
%TD*%
%TA.AperFunction,SMDPad,CuDef*%
%ADD15RoundRect,0.150000X-0.150000X0.825000X-0.150000X-0.825000X0.150000X-0.825000X0.150000X0.825000X0*%
%TD*%
%TA.AperFunction,SMDPad,CuDef*%
%ADD16RoundRect,0.225000X0.225000X0.250000X-0.225000X0.250000X-0.225000X-0.250000X0.225000X-0.250000X0*%
%TD*%
%TA.AperFunction,SMDPad,CuDef*%
%ADD17RoundRect,0.250000X-0.475000X0.250000X-0.475000X-0.250000X0.475000X-0.250000X0.475000X0.250000X0*%
%TD*%
%TA.AperFunction,SMDPad,CuDef*%
%ADD18RoundRect,0.250000X1.500000X-0.250000X1.500000X0.250000X-1.500000X0.250000X-1.500000X-0.250000X0*%
%TD*%
%TA.AperFunction,SMDPad,CuDef*%
%ADD19RoundRect,0.250001X1.449999X-0.499999X1.449999X0.499999X-1.449999X0.499999X-1.449999X-0.499999X0*%
%TD*%
%TA.AperFunction,Conductor*%
%ADD20C,0.500000*%
%TD*%
%TA.AperFunction,Conductor*%
%ADD21C,0.250000*%
%TD*%
%TA.AperFunction,Conductor*%
%ADD22C,0.750000*%
%TD*%
G04 APERTURE END LIST*
D10*
%TO.P,J4,1,Pin_1*%
%TO.N,+3V3*%
X9907000Y-22224000D03*
D11*
%TO.P,J4,2,Pin_2*%
%TO.N,+5V*%
X12447000Y-22224000D03*
%TO.P,J4,3,Pin_3*%
%TO.N,GND*%
X14987000Y-22224000D03*
%TO.P,J4,4,Pin_4*%
%TO.N,unconnected-(J4-Pin_4-Pad4)*%
X17527000Y-22224000D03*
%TO.P,J4,5,Pin_5*%
%TO.N,unconnected-(J4-Pin_5-Pad5)*%
X20067000Y-22224000D03*
%TO.P,J4,6,Pin_6*%
%TO.N,Net-(J4-Pin_6)*%
X22607000Y-22224000D03*
%TO.P,J4,7,Pin_7*%
%TO.N,Net-(J4-Pin_7)*%
X25147000Y-22224000D03*
%TO.P,J4,8,Pin_8*%
%TO.N,Net-(J4-Pin_8)*%
X27687000Y-22224000D03*
%TD*%
D10*
%TO.P,J3,1,Pin_1*%
%TO.N,Net-(J3-Pin_1)*%
X9907000Y-1904000D03*
D11*
%TO.P,J3,2,Pin_2*%
%TO.N,Net-(J3-Pin_2)*%
X12447000Y-1904000D03*
%TO.P,J3,3,Pin_3*%
%TO.N,Net-(J3-Pin_3)*%
X14987000Y-1904000D03*
%TO.P,J3,4,Pin_4*%
%TO.N,Net-(J3-Pin_4)*%
X17527000Y-1904000D03*
%TO.P,J3,5,Pin_5*%
%TO.N,Net-(J3-Pin_5)*%
X20067000Y-1904000D03*
%TO.P,J3,6,Pin_6*%
%TO.N,/RST*%
X22607000Y-1904000D03*
%TO.P,J3,7,Pin_7*%
%TO.N,Net-(J3-Pin_7)*%
X25147000Y-1904000D03*
%TO.P,J3,8,Pin_8*%
%TO.N,Net-(J3-Pin_8)*%
X27687000Y-1904000D03*
%TD*%
D12*
%TO.P,SW1,1,1*%
%TO.N,/RST*%
X33477000Y-6004000D03*
X26977000Y-6004000D03*
%TO.P,SW1,2,2*%
%TO.N,+5V*%
X33477000Y-10504000D03*
X26977000Y-10504000D03*
%TD*%
%TO.P,SW2,1,1*%
%TO.N,/USB_DP*%
X33477000Y-13624000D03*
X26977000Y-13624000D03*
%TO.P,SW2,2,2*%
%TO.N,Net-(R1-Pad1)*%
X33477000Y-18124000D03*
X26977000Y-18124000D03*
%TD*%
D13*
%TO.P,R1,1*%
%TO.N,Net-(R1-Pad1)*%
X16447000Y-18414000D03*
%TO.P,R1,2*%
%TO.N,Net-(R1-Pad2)*%
X14797000Y-18414000D03*
%TD*%
D14*
%TO.P,C3,1*%
%TO.N,+5V*%
X14834000Y-16636000D03*
%TO.P,C3,2*%
%TO.N,GND*%
X16384000Y-16636000D03*
%TD*%
D15*
%TO.P,U1,1,Pin_1*%
%TO.N,Net-(J3-Pin_1)*%
X13082000Y-9654000D03*
%TO.P,U1,2,Pin_2*%
%TO.N,Net-(J3-Pin_2)*%
X14352000Y-9654000D03*
%TO.P,U1,3,Pin_3*%
%TO.N,Net-(J3-Pin_3)*%
X15622000Y-9654000D03*
%TO.P,U1,4,Pin_4*%
%TO.N,Net-(J3-Pin_4)*%
X16892000Y-9654000D03*
%TO.P,U1,5,Pin_5*%
%TO.N,Net-(J3-Pin_5)*%
X18162000Y-9654000D03*
%TO.P,U1,6,Pin_6*%
%TO.N,/RST*%
X19432000Y-9654000D03*
%TO.P,U1,7,Pin_7*%
%TO.N,Net-(J3-Pin_7)*%
X20702000Y-9654000D03*
%TO.P,U1,8,Pin_8*%
%TO.N,Net-(J3-Pin_8)*%
X21972000Y-9654000D03*
%TO.P,U1,9,Pin_9*%
%TO.N,Net-(J4-Pin_8)*%
X21972000Y-14604000D03*
%TO.P,U1,10,Pin_10*%
%TO.N,Net-(J4-Pin_7)*%
X20702000Y-14604000D03*
%TO.P,U1,11,Pin_11*%
%TO.N,Net-(J4-Pin_6)*%
X19432000Y-14604000D03*
%TO.P,U1,12,Pin_12*%
%TO.N,/USB_DP*%
X18162000Y-14604000D03*
%TO.P,U1,13,Pin_13*%
%TO.N,/USB_DN*%
X16892000Y-14604000D03*
%TO.P,U1,14,Pin_14*%
%TO.N,GND*%
X15622000Y-14604000D03*
%TO.P,U1,15,Pin_15*%
%TO.N,+5V*%
X14352000Y-14604000D03*
%TO.P,U1,16,Pin_16*%
%TO.N,+3V3*%
X13082000Y-14604000D03*
%TD*%
D16*
%TO.P,C2,1*%
%TO.N,+3V3*%
X12713000Y-16891000D03*
%TO.P,C2,2*%
%TO.N,GND*%
X11163000Y-16891000D03*
%TD*%
%TO.P,C1,1*%
%TO.N,+3V3*%
X12713000Y-18415000D03*
%TO.P,C1,2*%
%TO.N,GND*%
X11163000Y-18415000D03*
%TD*%
D13*
%TO.P,R2,1*%
%TO.N,Net-(R1-Pad2)*%
X14541000Y-19939000D03*
%TO.P,R2,2*%
%TO.N,+3V3*%
X12891000Y-19939000D03*
%TD*%
D17*
%TO.P,C4,1*%
%TO.N,+5V*%
X11303000Y-13401000D03*
%TO.P,C4,2*%
%TO.N,GND*%
X11303000Y-15301000D03*
%TD*%
D18*
%TO.P,J2,1,Pin_1*%
%TO.N,GND*%
X8057000Y-16065000D03*
%TO.P,J2,2,Pin_2*%
%TO.N,+5V*%
X8057000Y-14065000D03*
%TO.P,J2,3,Pin_3*%
%TO.N,GND*%
X8057000Y-12065000D03*
%TO.P,J2,4,Pin_4*%
%TO.N,/USB_DP*%
X8057000Y-10065000D03*
%TO.P,J2,5,Pin_5*%
%TO.N,/USB_DN*%
X8057000Y-8065000D03*
D19*
%TO.P,J2,MP,MountPin*%
%TO.N,GND*%
X2307000Y-18415000D03*
X2307000Y-5715000D03*
%TD*%
D20*
%TO.N,+3V3*%
X11303000Y-20828000D02*
X9907000Y-22224000D01*
X11938000Y-20828000D02*
X11303000Y-20828000D01*
X12955000Y-16255000D02*
X12955000Y-17751000D01*
X13082000Y-14604000D02*
X13082000Y-16128000D01*
D21*
X12955000Y-17751000D02*
X12927000Y-17779000D01*
D20*
X13082000Y-16128000D02*
X12955000Y-16255000D01*
X12955000Y-19811000D02*
X11938000Y-20828000D01*
D21*
X12927000Y-17779000D02*
X12955000Y-17807000D01*
D20*
X12955000Y-17807000D02*
X12955000Y-19811000D01*
%TO.N,GND*%
X10195998Y-12064000D02*
X8439000Y-12064000D01*
X15622000Y-14604000D02*
X15622000Y-13629001D01*
D21*
X15621000Y-17399000D02*
X15621000Y-19431000D01*
D20*
X16384000Y-16636000D02*
X15621000Y-17399000D01*
X15621000Y-19431000D02*
X15621000Y-20574000D01*
X8057000Y-16065000D02*
X11112000Y-16065000D01*
X14271999Y-12279000D02*
X12447000Y-12279000D01*
X15622000Y-13629001D02*
X14271999Y-12279000D01*
X12447000Y-12279000D02*
X12322001Y-12154001D01*
X16384000Y-16636000D02*
X15622000Y-15874000D01*
X10285999Y-12154001D02*
X10195998Y-12064000D01*
D22*
X6985000Y-12065000D02*
X9564000Y-12065000D01*
D20*
X14987000Y-21208000D02*
X14987000Y-22224000D01*
X15622000Y-15874000D02*
X15622000Y-14604000D01*
D21*
X6985000Y-12065000D02*
X4445000Y-12065000D01*
D20*
X12322001Y-12154001D02*
X10285999Y-12154001D01*
X11163000Y-16891000D02*
X11163000Y-16396000D01*
X11303000Y-16256000D02*
X11303000Y-15301000D01*
X15621000Y-20574000D02*
X15522000Y-20673000D01*
X11163000Y-16396000D02*
X11303000Y-16256000D01*
X11112000Y-16065000D02*
X11303000Y-16256000D01*
X15522000Y-20673000D02*
X14987000Y-21208000D01*
D21*
%TO.N,+5V*%
X13716000Y-20953000D02*
X13716000Y-18797000D01*
D20*
X14352000Y-17145000D02*
X13717000Y-17780000D01*
D21*
X12447000Y-22224000D02*
X12447000Y-24004000D01*
D20*
X9938000Y-14065000D02*
X8057000Y-14065000D01*
X10602000Y-13401000D02*
X9938000Y-14065000D01*
D21*
X13716000Y-18797000D02*
X13717000Y-18796000D01*
D20*
X11637000Y-13067000D02*
X11303000Y-13401000D01*
X14352000Y-13715000D02*
X13704000Y-13067000D01*
X6985000Y-14065000D02*
X9303000Y-14065000D01*
X33493000Y-10504000D02*
X35116500Y-12127500D01*
X13704000Y-13067000D02*
X11637000Y-13067000D01*
D21*
X35116500Y-18604500D02*
X35116500Y-12127500D01*
X29717000Y-24004000D02*
X35116500Y-18604500D01*
X13717000Y-20954000D02*
X13716000Y-20953000D01*
X14352000Y-14604000D02*
X14352000Y-13715000D01*
D20*
X13717000Y-17780000D02*
X13717000Y-18796000D01*
X13717000Y-20954000D02*
X12447000Y-22224000D01*
D21*
X33477000Y-10504000D02*
X33493000Y-10504000D01*
X12447000Y-24004000D02*
X29717000Y-24004000D01*
D20*
X14352000Y-14604000D02*
X14352000Y-17145000D01*
X11303000Y-13401000D02*
X10602000Y-13401000D01*
D22*
%TO.N,Net-(J3-Pin_8)*%
X21972000Y-7619000D02*
X27687000Y-1904000D01*
X21972000Y-9654000D02*
X21972000Y-7619000D01*
%TO.N,Net-(J3-Pin_7)*%
X20702000Y-9654000D02*
X20702000Y-6349000D01*
X20702000Y-6349000D02*
X25147000Y-1904000D01*
%TO.N,Net-(J3-Pin_5)*%
X20067000Y-1904000D02*
X18162000Y-3809000D01*
X18162000Y-3809000D02*
X18162000Y-9654000D01*
D21*
X18162000Y-10413000D02*
X18162000Y-9654000D01*
D22*
%TO.N,Net-(J3-Pin_4)*%
X16892000Y-9654000D02*
X16892000Y-2539000D01*
X16892000Y-2539000D02*
X17527000Y-1904000D01*
%TO.N,/RST*%
X19432000Y-9654000D02*
X19432000Y-5079000D01*
D20*
X19432000Y-9654000D02*
X19432000Y-10605000D01*
X25401000Y-8508000D02*
X25401000Y-7580000D01*
X19432000Y-10605000D02*
X20129000Y-11302000D01*
D22*
X19432000Y-5079000D02*
X22607000Y-1904000D01*
D20*
X22607000Y-11302000D02*
X25401000Y-8508000D01*
X25401000Y-7580000D02*
X26977000Y-6004000D01*
X20129000Y-11302000D02*
X22607000Y-11302000D01*
D22*
%TO.N,Net-(J3-Pin_3)*%
X15622000Y-9654000D02*
X15622000Y-2539000D01*
X15622000Y-2539000D02*
X14987000Y-1904000D01*
%TO.N,Net-(J3-Pin_2)*%
X14352000Y-9654000D02*
X14352000Y-3809000D01*
X14352000Y-3809000D02*
X12447000Y-1904000D01*
%TO.N,Net-(J3-Pin_1)*%
X13082000Y-9654000D02*
X13082000Y-6349000D01*
X10415000Y-3682000D02*
X10161000Y-3682000D01*
X10161000Y-3682000D02*
X9907000Y-3428000D01*
X9907000Y-3428000D02*
X9907000Y-1904000D01*
X13082000Y-6349000D02*
X10415000Y-3682000D01*
%TO.N,Net-(J4-Pin_8)*%
X21972000Y-15493000D02*
X21972000Y-14604000D01*
X27687000Y-22224000D02*
X27687000Y-21208000D01*
X27687000Y-21208000D02*
X21972000Y-15493000D01*
%TO.N,Net-(J4-Pin_7)*%
X25147000Y-22224000D02*
X25147000Y-20700000D01*
X25147000Y-20700000D02*
X20702000Y-16255000D01*
X20702000Y-16255000D02*
X20702000Y-14604000D01*
%TO.N,Net-(J4-Pin_6)*%
X19432000Y-19049000D02*
X19432000Y-16382000D01*
D20*
X19432000Y-16382000D02*
X19432000Y-14604000D01*
D22*
X22607000Y-22224000D02*
X19432000Y-19049000D01*
D21*
%TO.N,/USB_DP*%
X32115000Y-14986000D02*
X32004000Y-14986000D01*
D20*
X18162000Y-13334000D02*
X18162000Y-12064000D01*
X6045000Y-10065000D02*
X7795000Y-10065000D01*
D21*
X12825092Y-11048000D02*
X12193000Y-10415908D01*
D20*
X12193000Y-9016000D02*
X10161000Y-6984000D01*
X10160000Y-6985000D02*
X6223000Y-6985000D01*
D21*
X25417000Y-12064000D02*
X26977000Y-13624000D01*
D20*
X5461000Y-7747000D02*
X5461000Y-9481000D01*
X18162000Y-14604000D02*
X18162000Y-13334000D01*
X5461000Y-9481000D02*
X6045000Y-10065000D01*
D21*
X12193000Y-10415908D02*
X12193000Y-9016000D01*
X17654000Y-11048000D02*
X12825092Y-11048000D01*
X33477000Y-13624000D02*
X32115000Y-14986000D01*
D20*
X18162000Y-12064000D02*
X25417000Y-12064000D01*
X10161000Y-6984000D02*
X10160000Y-6985000D01*
X6223000Y-6985000D02*
X5461000Y-7747000D01*
D21*
X18162000Y-13334000D02*
X18162000Y-11556000D01*
X18162000Y-11556000D02*
X17654000Y-11048000D01*
D20*
%TO.N,/USB_DN*%
X11558000Y-9905000D02*
X9717000Y-8064000D01*
D21*
X11558000Y-10668396D02*
X11558000Y-9905000D01*
X9335000Y-8065000D02*
X6985000Y-8065000D01*
X12403604Y-11514000D02*
X11558000Y-10668396D01*
D20*
X16892000Y-14604000D02*
X16892000Y-11810000D01*
D21*
X16596000Y-11514000D02*
X12403604Y-11514000D01*
X16892000Y-11810000D02*
X16596000Y-11514000D01*
D20*
%TO.N,Net-(R1-Pad1)*%
X26557000Y-17704000D02*
X26977000Y-17704000D01*
D21*
X18797000Y-13334000D02*
X19305000Y-12826000D01*
X16447000Y-18414000D02*
X17527000Y-18414000D01*
X18797000Y-15874000D02*
X18797000Y-13334000D01*
X17622000Y-17049000D02*
X18797000Y-15874000D01*
X17622000Y-18319000D02*
X17622000Y-17049000D01*
D20*
X19305000Y-12826000D02*
X22607000Y-12826000D01*
X22607000Y-12826000D02*
X23115000Y-13334000D01*
X23115000Y-13334000D02*
X23115000Y-14262000D01*
D21*
X17527000Y-18414000D02*
X17622000Y-18319000D01*
X26977000Y-17704000D02*
X26977000Y-18124000D01*
D20*
X23115000Y-14262000D02*
X26557000Y-17704000D01*
%TO.N,Net-(R1-Pad2)*%
X14491000Y-19926000D02*
X14797000Y-19620000D01*
X14797000Y-19620000D02*
X14797000Y-18414000D01*
X14491000Y-19939000D02*
X14491000Y-19926000D01*
%TD*%
%TA.AperFunction,Conductor*%
%TO.N,/RST*%
G36*
X19793225Y-9653963D02*
G01*
X19801489Y-9657412D01*
X19804894Y-9665694D01*
X19804735Y-9667586D01*
X19683630Y-10394223D01*
X19678890Y-10401821D01*
X19672089Y-10404000D01*
X19191911Y-10404000D01*
X19183638Y-10400573D01*
X19180370Y-10394223D01*
X19059264Y-9667586D01*
X19061284Y-9658863D01*
X19068882Y-9654122D01*
X19070770Y-9653963D01*
X19432000Y-9653000D01*
X19793225Y-9653963D01*
G37*
%TD.AperFunction*%
%TD*%
%TA.AperFunction,Conductor*%
%TO.N,GND*%
G36*
X15842591Y-17490745D02*
G01*
X15848900Y-17497101D01*
X15849392Y-17504504D01*
X15748289Y-17890266D01*
X15742876Y-17897400D01*
X15736971Y-17899000D01*
X15505029Y-17899000D01*
X15496756Y-17895573D01*
X15493711Y-17890266D01*
X15392607Y-17504504D01*
X15393825Y-17495633D01*
X15399406Y-17490746D01*
X15616484Y-17399889D01*
X15625437Y-17399857D01*
X15842591Y-17490745D01*
G37*
%TD.AperFunction*%
%TD*%
%TA.AperFunction,Conductor*%
%TO.N,GND*%
G36*
X5078900Y-20185D02*
G01*
X5124655Y-72989D01*
X5135545Y-115654D01*
X5145748Y-258310D01*
X5196030Y-393119D01*
X5229515Y-454442D01*
X5315739Y-569623D01*
X5315743Y-569627D01*
X5315748Y-569633D01*
X5805616Y-1059500D01*
X7405615Y-2659500D01*
X7994244Y-3248130D01*
X8005515Y-3258624D01*
X8007317Y-3260302D01*
X8020765Y-3272383D01*
X8141805Y-3350170D01*
X8141810Y-3350172D01*
X8141815Y-3350175D01*
X8161195Y-3359025D01*
X8205361Y-3379195D01*
X8205364Y-3379197D01*
X8311111Y-3410245D01*
X8369888Y-3448018D01*
X8395273Y-3503601D01*
X8397364Y-3503147D01*
X8399248Y-3511810D01*
X8449530Y-3646619D01*
X8483015Y-3707942D01*
X8569239Y-3823123D01*
X8569243Y-3823127D01*
X8569248Y-3823133D01*
X11777181Y-7031065D01*
X11810666Y-7092388D01*
X11813500Y-7118746D01*
X11813500Y-7275770D01*
X11793815Y-7342809D01*
X11741011Y-7388564D01*
X11671853Y-7398508D01*
X11608297Y-7369483D01*
X11601819Y-7363451D01*
X10729903Y-6491535D01*
X10718119Y-6477900D01*
X10709610Y-6466470D01*
X10698677Y-6457296D01*
X10685756Y-6444745D01*
X10663327Y-6419542D01*
X10663324Y-6419539D01*
X10630798Y-6396765D01*
X10610815Y-6382772D01*
X10607933Y-6380626D01*
X10597053Y-6372023D01*
X10575214Y-6353698D01*
X10575207Y-6353692D01*
X10569517Y-6349950D01*
X10565133Y-6346784D01*
X10557673Y-6340886D01*
X10547507Y-6336145D01*
X10528800Y-6325344D01*
X10519613Y-6318911D01*
X10460065Y-6295255D01*
X10456757Y-6293828D01*
X10446216Y-6288913D01*
X10418429Y-6274958D01*
X10411237Y-6272341D01*
X10406236Y-6270269D01*
X10398676Y-6266743D01*
X10391222Y-6265204D01*
X10387681Y-6264473D01*
X10366986Y-6258277D01*
X10356565Y-6254137D01*
X10293174Y-6244851D01*
X10289627Y-6244226D01*
X10282916Y-6242841D01*
X10247718Y-6234499D01*
X10238416Y-6233412D01*
X10233090Y-6232553D01*
X10226856Y-6231266D01*
X10226854Y-6231266D01*
X10215634Y-6231592D01*
X10194068Y-6230335D01*
X10182980Y-6228711D01*
X10182972Y-6228710D01*
X10126443Y-6233656D01*
X10119499Y-6234264D01*
X10114098Y-6234500D01*
X6286705Y-6234500D01*
X6268735Y-6233191D01*
X6244972Y-6229710D01*
X6199533Y-6233686D01*
X6192931Y-6234264D01*
X6187530Y-6234500D01*
X6179289Y-6234500D01*
X6157579Y-6237037D01*
X6146724Y-6238306D01*
X6131419Y-6239645D01*
X6070199Y-6245001D01*
X6063132Y-6246460D01*
X6063120Y-6246404D01*
X6055763Y-6248035D01*
X6055777Y-6248092D01*
X6048743Y-6249759D01*
X5976575Y-6276025D01*
X5903675Y-6300181D01*
X5897126Y-6303236D01*
X5897101Y-6303183D01*
X5890308Y-6306471D01*
X5890334Y-6306523D01*
X5883880Y-6309764D01*
X5819708Y-6351971D01*
X5754347Y-6392285D01*
X5748683Y-6396765D01*
X5748647Y-6396719D01*
X5742798Y-6401484D01*
X5742835Y-6401528D01*
X5737310Y-6406164D01*
X5684598Y-6462034D01*
X4975358Y-7171272D01*
X4961729Y-7183051D01*
X4942468Y-7197390D01*
X4908898Y-7237397D01*
X4905253Y-7241376D01*
X4899409Y-7247222D01*
X4879059Y-7272959D01*
X4829695Y-7331789D01*
X4825729Y-7337819D01*
X4825682Y-7337788D01*
X4821630Y-7344147D01*
X4821679Y-7344177D01*
X4817889Y-7350321D01*
X4785424Y-7419941D01*
X4750960Y-7488566D01*
X4748488Y-7495357D01*
X4748432Y-7495336D01*
X4745960Y-7502450D01*
X4746015Y-7502469D01*
X4743742Y-7509327D01*
X4735975Y-7546946D01*
X4728207Y-7584565D01*
X4715001Y-7640284D01*
X4710498Y-7659286D01*
X4709661Y-7666454D01*
X4709601Y-7666447D01*
X4708835Y-7673945D01*
X4708895Y-7673951D01*
X4708265Y-7681140D01*
X4710500Y-7757916D01*
X4710500Y-9417294D01*
X4709191Y-9435263D01*
X4705710Y-9459025D01*
X4710264Y-9511064D01*
X4710500Y-9516470D01*
X4710500Y-9524709D01*
X4714306Y-9557274D01*
X4721000Y-9633791D01*
X4722461Y-9640867D01*
X4722403Y-9640878D01*
X4724034Y-9648237D01*
X4724092Y-9648224D01*
X4725757Y-9655250D01*
X4752025Y-9727424D01*
X4776185Y-9800331D01*
X4779236Y-9806874D01*
X4779182Y-9806898D01*
X4782470Y-9813688D01*
X4782521Y-9813663D01*
X4785761Y-9820113D01*
X4785762Y-9820114D01*
X4785763Y-9820117D01*
X4789685Y-9826080D01*
X4827965Y-9884283D01*
X4868287Y-9949655D01*
X4872766Y-9955319D01*
X4872719Y-9955356D01*
X4877482Y-9961202D01*
X4877528Y-9961164D01*
X4882173Y-9966700D01*
X4938017Y-10019385D01*
X5469270Y-10550638D01*
X5481051Y-10564270D01*
X5495388Y-10583528D01*
X5535409Y-10617111D01*
X5539397Y-10620766D01*
X5545216Y-10626585D01*
X5545220Y-10626588D01*
X5545223Y-10626591D01*
X5570959Y-10646940D01*
X5629786Y-10696302D01*
X5629787Y-10696302D01*
X5629789Y-10696304D01*
X5635818Y-10700270D01*
X5635785Y-10700319D01*
X5642147Y-10704372D01*
X5642179Y-10704321D01*
X5648319Y-10708108D01*
X5648323Y-10708111D01*
X5683132Y-10724343D01*
X5717941Y-10740575D01*
X5743068Y-10753194D01*
X5786567Y-10775040D01*
X5786569Y-10775040D01*
X5793357Y-10777511D01*
X5793336Y-10777567D01*
X5800455Y-10780042D01*
X5800474Y-10779986D01*
X5807329Y-10782258D01*
X5882562Y-10797791D01*
X5957273Y-10815499D01*
X5957276Y-10815499D01*
X5957279Y-10815500D01*
X5957282Y-10815500D01*
X5958462Y-10815638D01*
X5959221Y-10815960D01*
X5964306Y-10817166D01*
X5964100Y-10818034D01*
X6022763Y-10842970D01*
X6031751Y-10851119D01*
X6088344Y-10907712D01*
X6172718Y-10959754D01*
X6219443Y-11011702D01*
X6230666Y-11080664D01*
X6202822Y-11144747D01*
X6172720Y-11170831D01*
X6088656Y-11222682D01*
X5964684Y-11346654D01*
X5872643Y-11495875D01*
X5872641Y-11495880D01*
X5817494Y-11662302D01*
X5817493Y-11662309D01*
X5807000Y-11765013D01*
X5807000Y-11815000D01*
X10306999Y-11815000D01*
X10306999Y-11765028D01*
X10306998Y-11765013D01*
X10296505Y-11662302D01*
X10241358Y-11495880D01*
X10241356Y-11495875D01*
X10149315Y-11346654D01*
X10025344Y-11222683D01*
X10025340Y-11222680D01*
X9941280Y-11170831D01*
X9894555Y-11118883D01*
X9883334Y-11049921D01*
X9911177Y-10985839D01*
X9941278Y-10959756D01*
X10025656Y-10907712D01*
X10149712Y-10783656D01*
X10241814Y-10634334D01*
X10296999Y-10467797D01*
X10307500Y-10365009D01*
X10307499Y-10015227D01*
X10327183Y-9948190D01*
X10379987Y-9902435D01*
X10449146Y-9892491D01*
X10512701Y-9921516D01*
X10519180Y-9927548D01*
X10856054Y-10264421D01*
X10888322Y-10320664D01*
X10915013Y-10422500D01*
X10928337Y-10473340D01*
X10928449Y-10473765D01*
X10932500Y-10505203D01*
X10932500Y-10585651D01*
X10930775Y-10601268D01*
X10931061Y-10601295D01*
X10930326Y-10609061D01*
X10932500Y-10678210D01*
X10932500Y-10707739D01*
X10932501Y-10707756D01*
X10933368Y-10714627D01*
X10933826Y-10720446D01*
X10935290Y-10767020D01*
X10935291Y-10767023D01*
X10940880Y-10786263D01*
X10944824Y-10805307D01*
X10947336Y-10825188D01*
X10954376Y-10842970D01*
X10964490Y-10868515D01*
X10966382Y-10874043D01*
X10979381Y-10918784D01*
X10989580Y-10936030D01*
X10998136Y-10953496D01*
X11005514Y-10972128D01*
X11032898Y-11009819D01*
X11036106Y-11014703D01*
X11059827Y-11054812D01*
X11059833Y-11054820D01*
X11073990Y-11068976D01*
X11086627Y-11083771D01*
X11098406Y-11099983D01*
X11121252Y-11118883D01*
X11134309Y-11129684D01*
X11138620Y-11133606D01*
X11577450Y-11572436D01*
X11902798Y-11897784D01*
X11912623Y-11910048D01*
X11912844Y-11909866D01*
X11917814Y-11915873D01*
X11917817Y-11915876D01*
X11917818Y-11915877D01*
X11968255Y-11963241D01*
X11989134Y-11984120D01*
X11994608Y-11988366D01*
X11999046Y-11992156D01*
X12033022Y-12024062D01*
X12033026Y-12024064D01*
X12050577Y-12033713D01*
X12066835Y-12044392D01*
X12082668Y-12056674D01*
X12105344Y-12066486D01*
X12125442Y-12075183D01*
X12130677Y-12077747D01*
X12141760Y-12083840D01*
X12191022Y-12133388D01*
X12205677Y-12201703D01*
X12181071Y-12267097D01*
X12125017Y-12308806D01*
X12082019Y-12316500D01*
X11700705Y-12316500D01*
X11682735Y-12315191D01*
X11658972Y-12311710D01*
X11613890Y-12315655D01*
X11606933Y-12316264D01*
X11601532Y-12316500D01*
X11593288Y-12316500D01*
X11560707Y-12320308D01*
X11484199Y-12327001D01*
X11477133Y-12328461D01*
X11477121Y-12328404D01*
X11469754Y-12330038D01*
X11469768Y-12330094D01*
X11462751Y-12331756D01*
X11390573Y-12358026D01*
X11317662Y-12382187D01*
X11311119Y-12385238D01*
X11311094Y-12385185D01*
X11296381Y-12392309D01*
X11294448Y-12393013D01*
X11252014Y-12400500D01*
X10777998Y-12400500D01*
X10777980Y-12400501D01*
X10675203Y-12411000D01*
X10675200Y-12411001D01*
X10508668Y-12466185D01*
X10508663Y-12466188D01*
X10496080Y-12473949D01*
X10428687Y-12492387D01*
X10362024Y-12471462D01*
X10317256Y-12417819D01*
X10308255Y-12368136D01*
X10307000Y-12368136D01*
X10307000Y-12315000D01*
X5807001Y-12315000D01*
X5807001Y-12364986D01*
X5817494Y-12467697D01*
X5872641Y-12634119D01*
X5872643Y-12634124D01*
X5964684Y-12783345D01*
X6088654Y-12907315D01*
X6172719Y-12959167D01*
X6219443Y-13011115D01*
X6230666Y-13080078D01*
X6202822Y-13144160D01*
X6172719Y-13170244D01*
X6088347Y-13222285D01*
X6088343Y-13222288D01*
X5964289Y-13346342D01*
X5872187Y-13495663D01*
X5872186Y-13495666D01*
X5817001Y-13662203D01*
X5817001Y-13662204D01*
X5817000Y-13662204D01*
X5806500Y-13764983D01*
X5806500Y-14365001D01*
X5806501Y-14365019D01*
X5817000Y-14467796D01*
X5817001Y-14467799D01*
X5872185Y-14634331D01*
X5872187Y-14634336D01*
X5964289Y-14783657D01*
X6088344Y-14907712D01*
X6172718Y-14959754D01*
X6219443Y-15011702D01*
X6230666Y-15080664D01*
X6202822Y-15144747D01*
X6172720Y-15170831D01*
X6088656Y-15222682D01*
X5964684Y-15346654D01*
X5872643Y-15495875D01*
X5872641Y-15495880D01*
X5817494Y-15662302D01*
X5817493Y-15662309D01*
X5807000Y-15765013D01*
X5807000Y-15815000D01*
X8183000Y-15815000D01*
X8250039Y-15834685D01*
X8295794Y-15887489D01*
X8307000Y-15939000D01*
X8307000Y-17064999D01*
X9606972Y-17064999D01*
X9606986Y-17064998D01*
X9709697Y-17054505D01*
X9876119Y-16999358D01*
X9876130Y-16999353D01*
X10023903Y-16908205D01*
X10091295Y-16889764D01*
X10157958Y-16910686D01*
X10202728Y-16964328D01*
X10213000Y-17013742D01*
X10213000Y-17189306D01*
X10213001Y-17189323D01*
X10223144Y-17288607D01*
X10276452Y-17449481D01*
X10276457Y-17449492D01*
X10361831Y-17587903D01*
X10380272Y-17655295D01*
X10361831Y-17718097D01*
X10276457Y-17856507D01*
X10276452Y-17856518D01*
X10223144Y-18017393D01*
X10213000Y-18116677D01*
X10213000Y-18165000D01*
X10913000Y-18165000D01*
X10913000Y-16000000D01*
X10932685Y-15932961D01*
X10985489Y-15887206D01*
X11037000Y-15876000D01*
X11053000Y-15876000D01*
X11053000Y-15175000D01*
X11072685Y-15107961D01*
X11125489Y-15062206D01*
X11177000Y-15051000D01*
X11429000Y-15051000D01*
X11496039Y-15070685D01*
X11541794Y-15123489D01*
X11553000Y-15175000D01*
X11553000Y-16217000D01*
X11533315Y-16284039D01*
X11480511Y-16329794D01*
X11429000Y-16341000D01*
X11413000Y-16341000D01*
X11413000Y-19389999D01*
X11436308Y-19389999D01*
X11436322Y-19389998D01*
X11535607Y-19379855D01*
X11696481Y-19326547D01*
X11696492Y-19326542D01*
X11840731Y-19237573D01*
X11849959Y-19228345D01*
X11911279Y-19194856D01*
X11980971Y-19199835D01*
X12025327Y-19228339D01*
X12025493Y-19228505D01*
X12058978Y-19289828D01*
X12053994Y-19359520D01*
X12050203Y-19367373D01*
X12050601Y-19367552D01*
X12047524Y-19374388D01*
X11996913Y-19536807D01*
X11990500Y-19607386D01*
X11990500Y-19662770D01*
X11970815Y-19729809D01*
X11954181Y-19750451D01*
X11663451Y-20041181D01*
X11602128Y-20074666D01*
X11575770Y-20077500D01*
X11366705Y-20077500D01*
X11348735Y-20076191D01*
X11324972Y-20072710D01*
X11279890Y-20076655D01*
X11272933Y-20077264D01*
X11267532Y-20077500D01*
X11259287Y-20077500D01*
X11233222Y-20080546D01*
X11226705Y-20081308D01*
X11221403Y-20081771D01*
X11150201Y-20088001D01*
X11143134Y-20089461D01*
X11143122Y-20089404D01*
X11135753Y-20091038D01*
X11135767Y-20091095D01*
X11128739Y-20092760D01*
X11073536Y-20112852D01*
X11056563Y-20119030D01*
X10983666Y-20143186D01*
X10983664Y-20143186D01*
X10983661Y-20143188D01*
X10977122Y-20146237D01*
X10977097Y-20146185D01*
X10970308Y-20149471D01*
X10970334Y-20149522D01*
X10963884Y-20152761D01*
X10899716Y-20194964D01*
X10834347Y-20235285D01*
X10828677Y-20239769D01*
X10828641Y-20239723D01*
X10822798Y-20244484D01*
X10822835Y-20244528D01*
X10817310Y-20249164D01*
X10817304Y-20249169D01*
X10817304Y-20249170D01*
X10764614Y-20305017D01*
X10232449Y-20837181D01*
X10171126Y-20870666D01*
X10144768Y-20873500D01*
X9009129Y-20873500D01*
X9009123Y-20873501D01*
X8949516Y-20879908D01*
X8814671Y-20930202D01*
X8814664Y-20930206D01*
X8699455Y-21016452D01*
X8699452Y-21016455D01*
X8613206Y-21131664D01*
X8613202Y-21131671D01*
X8562908Y-21266517D01*
X8556501Y-21326116D01*
X8556500Y-21326135D01*
X8556500Y-23121870D01*
X8556501Y-23121876D01*
X8562908Y-23181483D01*
X8613202Y-23316328D01*
X8613206Y-23316335D01*
X8699452Y-23431544D01*
X8699455Y-23431547D01*
X8814664Y-23517793D01*
X8814671Y-23517797D01*
X8949517Y-23568091D01*
X8949516Y-23568091D01*
X8956444Y-23568835D01*
X9009127Y-23574500D01*
X10673500Y-23574499D01*
X10740539Y-23594184D01*
X10786294Y-23646987D01*
X10797500Y-23698499D01*
X10797500Y-24005500D01*
X10777815Y-24072539D01*
X10725011Y-24118294D01*
X10673500Y-24129500D01*
X124500Y-24129500D01*
X57461Y-24109815D01*
X11706Y-24057011D01*
X500Y-24005500D01*
X500Y-19392272D01*
X20185Y-19325233D01*
X72989Y-19279478D01*
X142147Y-19269534D01*
X205703Y-19298559D01*
X230039Y-19327175D01*
X264684Y-19383344D01*
X388655Y-19507315D01*
X537876Y-19599356D01*
X537881Y-19599358D01*
X704303Y-19654505D01*
X704310Y-19654506D01*
X807014Y-19664999D01*
X807027Y-19665000D01*
X2057000Y-19665000D01*
X2057000Y-18665000D01*
X2557000Y-18665000D01*
X2557000Y-19665000D01*
X3806973Y-19665000D01*
X3806985Y-19664999D01*
X3909689Y-19654506D01*
X3909696Y-19654505D01*
X4076118Y-19599358D01*
X4076123Y-19599356D01*
X4225344Y-19507315D01*
X4349315Y-19383344D01*
X4441356Y-19234123D01*
X4441358Y-19234118D01*
X4496505Y-19067696D01*
X4496506Y-19067689D01*
X4506999Y-18964985D01*
X4507000Y-18964972D01*
X4507000Y-18665000D01*
X10213001Y-18665000D01*
X10213001Y-18713322D01*
X10223144Y-18812607D01*
X10276452Y-18973481D01*
X10276457Y-18973492D01*
X10365424Y-19117728D01*
X10365427Y-19117732D01*
X10485267Y-19237572D01*
X10485271Y-19237575D01*
X10629507Y-19326542D01*
X10629518Y-19326547D01*
X10790393Y-19379855D01*
X10889683Y-19389999D01*
X10913000Y-19389998D01*
X10913000Y-18665000D01*
X10213001Y-18665000D01*
X4507000Y-18665000D01*
X2557000Y-18665000D01*
X2057000Y-18665000D01*
X2057000Y-17165000D01*
X2557000Y-17165000D01*
X2557000Y-18165000D01*
X4507000Y-18165000D01*
X4507000Y-17865027D01*
X4506999Y-17865014D01*
X4496506Y-17762310D01*
X4496505Y-17762303D01*
X4441358Y-17595881D01*
X4441356Y-17595876D01*
X4349315Y-17446655D01*
X4225344Y-17322684D01*
X4076123Y-17230643D01*
X4076118Y-17230641D01*
X3909696Y-17175494D01*
X3909689Y-17175493D01*
X3806985Y-17165000D01*
X2557000Y-17165000D01*
X2057000Y-17165000D01*
X807014Y-17165000D01*
X704310Y-17175493D01*
X704303Y-17175494D01*
X537881Y-17230641D01*
X537876Y-17230643D01*
X388655Y-17322684D01*
X264683Y-17446656D01*
X264680Y-17446660D01*
X230038Y-17502824D01*
X178090Y-17549549D01*
X109128Y-17560770D01*
X45046Y-17532927D01*
X6190Y-17474858D01*
X500Y-17437727D01*
X500Y-16315000D01*
X5807001Y-16315000D01*
X5807001Y-16364986D01*
X5817494Y-16467697D01*
X5872641Y-16634119D01*
X5872643Y-16634124D01*
X5964684Y-16783345D01*
X6088654Y-16907315D01*
X6237875Y-16999356D01*
X6237880Y-16999358D01*
X6404302Y-17054505D01*
X6404309Y-17054506D01*
X6507019Y-17064999D01*
X7806999Y-17064999D01*
X7807000Y-17064998D01*
X7807000Y-16315000D01*
X5807001Y-16315000D01*
X500Y-16315000D01*
X500Y-6692272D01*
X20185Y-6625233D01*
X72989Y-6579478D01*
X142147Y-6569534D01*
X205703Y-6598559D01*
X230039Y-6627175D01*
X264684Y-6683344D01*
X388655Y-6807315D01*
X537876Y-6899356D01*
X537881Y-6899358D01*
X704303Y-6954505D01*
X704310Y-6954506D01*
X807014Y-6964999D01*
X807027Y-6965000D01*
X2057000Y-6965000D01*
X2057000Y-5965000D01*
X2557000Y-5965000D01*
X2557000Y-6965000D01*
X3806973Y-6965000D01*
X3806985Y-6964999D01*
X3909689Y-6954506D01*
X3909696Y-6954505D01*
X4076118Y-6899358D01*
X4076123Y-6899356D01*
X4225344Y-6807315D01*
X4349315Y-6683344D01*
X4441356Y-6534123D01*
X4441358Y-6534118D01*
X4496505Y-6367696D01*
X4496506Y-6367689D01*
X4506999Y-6264985D01*
X4507000Y-6264972D01*
X4507000Y-5965000D01*
X2557000Y-5965000D01*
X2057000Y-5965000D01*
X2057000Y-4465000D01*
X2557000Y-4465000D01*
X2557000Y-5465000D01*
X4507000Y-5465000D01*
X4507000Y-5165027D01*
X4506999Y-5165014D01*
X4496506Y-5062310D01*
X4496505Y-5062303D01*
X4441358Y-4895881D01*
X4441356Y-4895876D01*
X4349315Y-4746655D01*
X4225344Y-4622684D01*
X4076123Y-4530643D01*
X4076118Y-4530641D01*
X3909696Y-4475494D01*
X3909689Y-4475493D01*
X3806985Y-4465000D01*
X2557000Y-4465000D01*
X2057000Y-4465000D01*
X807014Y-4465000D01*
X704310Y-4475493D01*
X704303Y-4475494D01*
X537881Y-4530641D01*
X537876Y-4530643D01*
X388655Y-4622684D01*
X264683Y-4746656D01*
X264680Y-4746660D01*
X230038Y-4802824D01*
X178090Y-4849549D01*
X109128Y-4860770D01*
X45046Y-4832927D01*
X6190Y-4774858D01*
X500Y-4737727D01*
X500Y-124500D01*
X20185Y-57461D01*
X72989Y-11706D01*
X124500Y-500D01*
X5011861Y-500D01*
X5078900Y-20185D01*
G37*
%TD.AperFunction*%
%TA.AperFunction,Conductor*%
G36*
X15818039Y-12159185D02*
G01*
X15863794Y-12211989D01*
X15875000Y-12263500D01*
X15875000Y-13074677D01*
X15872000Y-13084893D01*
X15872000Y-14730000D01*
X15852315Y-14797039D01*
X15799511Y-14842794D01*
X15748000Y-14854000D01*
X15496000Y-14854000D01*
X15428961Y-14834315D01*
X15383206Y-14781511D01*
X15372000Y-14730000D01*
X15372000Y-13131703D01*
X15369503Y-13131900D01*
X15211806Y-13177716D01*
X15211803Y-13177717D01*
X15083634Y-13253516D01*
X15015910Y-13270699D01*
X14949647Y-13248539D01*
X14932832Y-13234465D01*
X14279729Y-12581361D01*
X14267949Y-12567730D01*
X14254767Y-12550024D01*
X14253612Y-12548472D01*
X14232001Y-12530338D01*
X14213587Y-12514886D01*
X14209612Y-12511244D01*
X14206690Y-12508322D01*
X14203780Y-12505411D01*
X14178040Y-12485059D01*
X14119209Y-12435694D01*
X14113180Y-12431729D01*
X14113212Y-12431680D01*
X14106853Y-12427628D01*
X14106822Y-12427679D01*
X14100680Y-12423891D01*
X14100678Y-12423890D01*
X14100677Y-12423889D01*
X14061474Y-12405608D01*
X14031058Y-12391424D01*
X13996982Y-12374311D01*
X13945907Y-12326634D01*
X13928717Y-12258912D01*
X13950868Y-12192647D01*
X14005329Y-12148877D01*
X14052632Y-12139500D01*
X15751000Y-12139500D01*
X15818039Y-12159185D01*
G37*
%TD.AperFunction*%
%TD*%
%TA.AperFunction,Conductor*%
%TO.N,Net-(J3-Pin_5)*%
G36*
X19291449Y-1582744D02*
G01*
X20063215Y-1901438D01*
X20069552Y-1907761D01*
X20069562Y-1907785D01*
X20388255Y-2679550D01*
X20388246Y-2688505D01*
X20383003Y-2694310D01*
X19137754Y-3367102D01*
X19128846Y-3368019D01*
X19123919Y-3365081D01*
X18605918Y-2847080D01*
X18602491Y-2838807D01*
X18603895Y-2833250D01*
X19276690Y-1587994D01*
X19283637Y-1582347D01*
X19291449Y-1582744D01*
G37*
%TD.AperFunction*%
%TD*%
%TA.AperFunction,Conductor*%
%TO.N,Net-(J4-Pin_7)*%
G36*
X25932298Y-21898719D02*
G01*
X25149409Y-22224000D01*
X25148254Y-22224000D01*
X25148254Y-22223885D01*
X25147155Y-22223885D01*
X25147155Y-22224000D01*
X25146002Y-22224000D01*
X24361702Y-21898719D01*
X24757385Y-20840714D01*
X25287714Y-20310385D01*
X25932298Y-21898719D01*
G37*
%TD.AperFunction*%
%TD*%
%TA.AperFunction,Conductor*%
%TO.N,/USB_DP*%
G36*
X32211434Y-12590185D02*
G01*
X32257189Y-12642989D01*
X32267133Y-12712147D01*
X32248204Y-12762321D01*
X32153267Y-12907632D01*
X32053412Y-13135282D01*
X31992387Y-13376261D01*
X31992385Y-13376270D01*
X31971859Y-13623994D01*
X31971859Y-13624005D01*
X31992385Y-13871729D01*
X31992387Y-13871738D01*
X32053412Y-14112717D01*
X32153266Y-14340364D01*
X32253564Y-14493882D01*
X32951070Y-13796376D01*
X32953884Y-13809915D01*
X33023442Y-13944156D01*
X33126638Y-14054652D01*
X33255819Y-14133209D01*
X33307001Y-14147549D01*
X32606942Y-14847609D01*
X32653768Y-14884055D01*
X32653770Y-14884056D01*
X32872385Y-15002364D01*
X32872396Y-15002369D01*
X33107506Y-15083083D01*
X33352707Y-15124000D01*
X33601293Y-15124000D01*
X33846493Y-15083083D01*
X34081603Y-15002369D01*
X34081614Y-15002364D01*
X34304745Y-14881613D01*
X34305421Y-14882862D01*
X34366054Y-14864556D01*
X34433242Y-14883728D01*
X34479398Y-14936182D01*
X34491000Y-14988552D01*
X34491000Y-15496000D01*
X34471315Y-15563039D01*
X34418511Y-15608794D01*
X34367000Y-15620000D01*
X27103362Y-15620000D01*
X27036323Y-15600315D01*
X27015681Y-15583681D01*
X26767681Y-15335681D01*
X26734196Y-15274358D01*
X26739180Y-15204666D01*
X26781052Y-15148733D01*
X26846516Y-15124316D01*
X26855362Y-15124000D01*
X27101293Y-15124000D01*
X27346493Y-15083083D01*
X27581603Y-15002369D01*
X27581614Y-15002364D01*
X27800228Y-14884057D01*
X27800231Y-14884055D01*
X27847056Y-14847609D01*
X27148568Y-14149121D01*
X27265458Y-14098349D01*
X27382739Y-14002934D01*
X27469928Y-13879415D01*
X27500354Y-13793802D01*
X28200434Y-14493882D01*
X28300731Y-14340369D01*
X28400587Y-14112717D01*
X28461612Y-13871738D01*
X28461614Y-13871729D01*
X28482141Y-13624005D01*
X28482141Y-13623994D01*
X28461614Y-13376270D01*
X28461612Y-13376261D01*
X28400587Y-13135282D01*
X28300732Y-12907632D01*
X28205796Y-12762321D01*
X28185609Y-12695432D01*
X28204789Y-12628246D01*
X28257247Y-12582096D01*
X28309605Y-12570500D01*
X32144395Y-12570500D01*
X32211434Y-12590185D01*
G37*
%TD.AperFunction*%
%TA.AperFunction,Conductor*%
G36*
X25670677Y-11829685D02*
G01*
X25691319Y-11846319D01*
X26085504Y-12240504D01*
X26118989Y-12301827D01*
X26114005Y-12371519D01*
X26108248Y-12379361D01*
X26106942Y-12400390D01*
X26805431Y-13098878D01*
X26688542Y-13149651D01*
X26571261Y-13245066D01*
X26484072Y-13368585D01*
X26453645Y-13454197D01*
X25753564Y-12754116D01*
X25653267Y-12907632D01*
X25553412Y-13135282D01*
X25492387Y-13376261D01*
X25492385Y-13376270D01*
X25471859Y-13623994D01*
X25471859Y-13623995D01*
X25481497Y-13740319D01*
X25467415Y-13808755D01*
X25418569Y-13858714D01*
X25350468Y-13874334D01*
X25284733Y-13850656D01*
X25270239Y-13838239D01*
X24004000Y-12572000D01*
X23465729Y-12572000D01*
X23398690Y-12552315D01*
X23378050Y-12535683D01*
X23182729Y-12340361D01*
X23170949Y-12326730D01*
X23163216Y-12316344D01*
X23156612Y-12307472D01*
X23149885Y-12301827D01*
X23116587Y-12273886D01*
X23112612Y-12270244D01*
X23109690Y-12267322D01*
X23106780Y-12264411D01*
X23081040Y-12244059D01*
X23022209Y-12194694D01*
X23016180Y-12190729D01*
X23016212Y-12190680D01*
X23009853Y-12186628D01*
X23009822Y-12186679D01*
X23003675Y-12182887D01*
X22988389Y-12175759D01*
X22935952Y-12129585D01*
X22916802Y-12062391D01*
X22937020Y-11995510D01*
X22972659Y-11959779D01*
X23010283Y-11935034D01*
X23075656Y-11894712D01*
X23075662Y-11894705D01*
X23081325Y-11890229D01*
X23081362Y-11890277D01*
X23087204Y-11885518D01*
X23087164Y-11885471D01*
X23092691Y-11880832D01*
X23092696Y-11880830D01*
X23092701Y-11880825D01*
X23114323Y-11857907D01*
X23174646Y-11822652D01*
X23204518Y-11819000D01*
X25276990Y-11819000D01*
X25277000Y-11819000D01*
X25357399Y-11810355D01*
X25364031Y-11810000D01*
X25603638Y-11810000D01*
X25670677Y-11829685D01*
G37*
%TD.AperFunction*%
%TD*%
%TA.AperFunction,Conductor*%
%TO.N,Net-(R1-Pad1)*%
G36*
X22969159Y-12845685D02*
G01*
X22989801Y-12862319D01*
X23030182Y-12902700D01*
X23050329Y-12920797D01*
X23081513Y-12945925D01*
X23125393Y-12977567D01*
X23256270Y-13037338D01*
X23299042Y-13049897D01*
X23323304Y-13057022D01*
X23323309Y-13057023D01*
X23323313Y-13057024D01*
X23465729Y-13077500D01*
X23696138Y-13077500D01*
X23763177Y-13097185D01*
X23783819Y-13113819D01*
X26798000Y-16128000D01*
X34367018Y-16128946D01*
X34434052Y-16148638D01*
X34479801Y-16201448D01*
X34491000Y-16252945D01*
X34491000Y-16759447D01*
X34471315Y-16826486D01*
X34418511Y-16872241D01*
X34349353Y-16882185D01*
X34305207Y-16865533D01*
X34304745Y-16866387D01*
X34081614Y-16745635D01*
X34081603Y-16745630D01*
X33846493Y-16664916D01*
X33601293Y-16624000D01*
X33352707Y-16624000D01*
X33107506Y-16664916D01*
X32872396Y-16745630D01*
X32872390Y-16745632D01*
X32653761Y-16863949D01*
X32606942Y-16900388D01*
X32606942Y-16900390D01*
X33305431Y-17598878D01*
X33188542Y-17649651D01*
X33071261Y-17745066D01*
X32984072Y-17868585D01*
X32953645Y-17954197D01*
X32253564Y-17254116D01*
X32153267Y-17407632D01*
X32053412Y-17635282D01*
X31992387Y-17876261D01*
X31992385Y-17876270D01*
X31971859Y-18123994D01*
X31971859Y-18124005D01*
X31992385Y-18371729D01*
X31992387Y-18371738D01*
X32053412Y-18612717D01*
X32153266Y-18840364D01*
X32253564Y-18993882D01*
X32951070Y-18296376D01*
X32953884Y-18309915D01*
X33023442Y-18444156D01*
X33126638Y-18554652D01*
X33255819Y-18633209D01*
X33307001Y-18647549D01*
X32606942Y-19347609D01*
X32653768Y-19384055D01*
X32653770Y-19384056D01*
X32872385Y-19502364D01*
X32872399Y-19502370D01*
X33028177Y-19555849D01*
X33085193Y-19596234D01*
X33111324Y-19661034D01*
X33098273Y-19729674D01*
X33075596Y-19760811D01*
X32169228Y-20667181D01*
X32107905Y-20700666D01*
X32081547Y-20703500D01*
X29207000Y-20703500D01*
X29206991Y-20703500D01*
X29206990Y-20703501D01*
X29099549Y-20715052D01*
X29099537Y-20715054D01*
X29048027Y-20726260D01*
X28945502Y-20760383D01*
X28945496Y-20760386D01*
X28824462Y-20838171D01*
X28824451Y-20838179D01*
X28771659Y-20883923D01*
X28748020Y-20911204D01*
X28689241Y-20948978D01*
X28654308Y-20954000D01*
X28614347Y-20954000D01*
X28547308Y-20934315D01*
X28501553Y-20881511D01*
X28496838Y-20869593D01*
X28486267Y-20838220D01*
X28486266Y-20838218D01*
X28486173Y-20838063D01*
X28476026Y-20816889D01*
X28475961Y-20816712D01*
X28431059Y-20746463D01*
X28405209Y-20703500D01*
X28388090Y-20675047D01*
X28387957Y-20674907D01*
X28373504Y-20656419D01*
X28373400Y-20656256D01*
X28314447Y-20597303D01*
X28257129Y-20536793D01*
X28256970Y-20536685D01*
X28238877Y-20521733D01*
X28058211Y-20341067D01*
X27870868Y-20153724D01*
X27867273Y-20149805D01*
X27862047Y-20143592D01*
X27799217Y-20082073D01*
X27452513Y-19735369D01*
X27419028Y-19674046D01*
X27424012Y-19604354D01*
X27465884Y-19548421D01*
X27499932Y-19530406D01*
X27581611Y-19502366D01*
X27581614Y-19502364D01*
X27800228Y-19384057D01*
X27800231Y-19384055D01*
X27847056Y-19347609D01*
X27148568Y-18649121D01*
X27265458Y-18598349D01*
X27382739Y-18502934D01*
X27469928Y-18379415D01*
X27500354Y-18293802D01*
X28200434Y-18993882D01*
X28300731Y-18840369D01*
X28400587Y-18612717D01*
X28461612Y-18371738D01*
X28461614Y-18371729D01*
X28482141Y-18124005D01*
X28482141Y-18123994D01*
X28461614Y-17876270D01*
X28461612Y-17876261D01*
X28400587Y-17635282D01*
X28300731Y-17407630D01*
X28200434Y-17254116D01*
X27502929Y-17951622D01*
X27500116Y-17938085D01*
X27430558Y-17803844D01*
X27327362Y-17693348D01*
X27198181Y-17614791D01*
X27146997Y-17600450D01*
X27847057Y-16900390D01*
X27847056Y-16900389D01*
X27800229Y-16863943D01*
X27581614Y-16745635D01*
X27581603Y-16745630D01*
X27346493Y-16664916D01*
X27101293Y-16624000D01*
X26852707Y-16624000D01*
X26607506Y-16664916D01*
X26372396Y-16745630D01*
X26372390Y-16745632D01*
X26153761Y-16863949D01*
X26106942Y-16900388D01*
X26106942Y-16900390D01*
X26805431Y-17598878D01*
X26688542Y-17649651D01*
X26571261Y-17745066D01*
X26484072Y-17868585D01*
X26453645Y-17954197D01*
X25753564Y-17254116D01*
X25653267Y-17407632D01*
X25565035Y-17608783D01*
X25520079Y-17662269D01*
X25453343Y-17682959D01*
X25386015Y-17664284D01*
X25363798Y-17646654D01*
X22883819Y-15166675D01*
X22850334Y-15105352D01*
X22847500Y-15078994D01*
X22847500Y-14556541D01*
X22847500Y-14556535D01*
X22832073Y-14414684D01*
X22778991Y-14257143D01*
X22772500Y-14217549D01*
X22772500Y-13713304D01*
X22769598Y-13676432D01*
X22769597Y-13676426D01*
X22723745Y-13518606D01*
X22723744Y-13518603D01*
X22723744Y-13518602D01*
X22640081Y-13377135D01*
X22640078Y-13377132D01*
X22635298Y-13370969D01*
X22637325Y-13369396D01*
X22609834Y-13319049D01*
X22607000Y-13292691D01*
X22607000Y-12950000D01*
X22626685Y-12882961D01*
X22679489Y-12837206D01*
X22731000Y-12826000D01*
X22902120Y-12826000D01*
X22969159Y-12845685D01*
G37*
%TD.AperFunction*%
%TD*%
%TA.AperFunction,Conductor*%
%TO.N,Net-(J4-Pin_7)*%
G36*
X20895039Y-14373685D02*
G01*
X20940794Y-14426489D01*
X20952000Y-14478000D01*
X20952000Y-16076295D01*
X20952001Y-16076295D01*
X20954486Y-16076100D01*
X21112198Y-16030281D01*
X21129379Y-16020120D01*
X21197102Y-16002935D01*
X21263366Y-16025092D01*
X21280113Y-16040723D01*
X21280846Y-16039991D01*
X21312754Y-16071898D01*
X21344552Y-16103696D01*
X21401871Y-16164207D01*
X21402028Y-16164314D01*
X21420121Y-16179265D01*
X26375187Y-21134331D01*
X26408672Y-21195654D01*
X26411092Y-21232140D01*
X26406610Y-21286830D01*
X26381515Y-21352038D01*
X26325150Y-21393327D01*
X26255411Y-21397588D01*
X26194438Y-21363469D01*
X26188035Y-21356409D01*
X26185103Y-21352915D01*
X26018082Y-21185894D01*
X25824578Y-21050399D01*
X25610492Y-20950570D01*
X25610486Y-20950567D01*
X25397000Y-20893364D01*
X25397000Y-21788498D01*
X25289315Y-21739320D01*
X25182763Y-21724000D01*
X25111237Y-21724000D01*
X25004685Y-21739320D01*
X24897000Y-21788498D01*
X24897000Y-20893364D01*
X24896999Y-20893364D01*
X24683513Y-20950567D01*
X24683507Y-20950570D01*
X24469422Y-21050399D01*
X24469420Y-21050400D01*
X24275926Y-21185886D01*
X24275920Y-21185891D01*
X24108891Y-21352920D01*
X24108890Y-21352922D01*
X23978880Y-21538595D01*
X23924303Y-21582219D01*
X23854804Y-21589412D01*
X23792450Y-21557890D01*
X23775730Y-21538594D01*
X23645494Y-21352597D01*
X23478402Y-21185506D01*
X23478395Y-21185501D01*
X23463292Y-21174926D01*
X23405317Y-21134331D01*
X23284834Y-21049967D01*
X23273961Y-21044897D01*
X23190425Y-21005943D01*
X23168962Y-20993157D01*
X23163292Y-20988952D01*
X23163291Y-20988951D01*
X21975873Y-20347405D01*
X21947135Y-20325991D01*
X20343819Y-18722675D01*
X20310334Y-18661352D01*
X20307500Y-18634994D01*
X20307500Y-16334541D01*
X20307500Y-16334535D01*
X20303957Y-16301959D01*
X20303610Y-16296675D01*
X20303357Y-16285310D01*
X20300162Y-16266139D01*
X20299684Y-16262672D01*
X20293872Y-16209229D01*
X20306193Y-16140456D01*
X20353740Y-16089260D01*
X20421418Y-16071898D01*
X20443203Y-16075382D01*
X20443280Y-16074962D01*
X20449511Y-16076100D01*
X20451998Y-16076295D01*
X20452000Y-16076295D01*
X20452000Y-14478000D01*
X20471685Y-14410961D01*
X20524489Y-14365206D01*
X20576000Y-14354000D01*
X20828000Y-14354000D01*
X20895039Y-14373685D01*
G37*
%TD.AperFunction*%
%TD*%
%TA.AperFunction,Conductor*%
%TO.N,/USB_DP*%
G36*
X18286244Y-12837427D02*
G01*
X18289289Y-12842734D01*
X18390392Y-13228495D01*
X18389174Y-13237366D01*
X18383591Y-13242254D01*
X18166517Y-13333109D01*
X18157563Y-13333142D01*
X18157483Y-13333109D01*
X17940408Y-13242254D01*
X17934099Y-13235898D01*
X17933607Y-13228495D01*
X18034711Y-12842734D01*
X18040124Y-12835600D01*
X18046029Y-12834000D01*
X18277971Y-12834000D01*
X18286244Y-12837427D01*
G37*
%TD.AperFunction*%
%TD*%
%TA.AperFunction,Conductor*%
%TO.N,Net-(R1-Pad1)*%
G36*
X17570274Y-15923104D02*
G01*
X17602695Y-15943940D01*
X17603969Y-15942298D01*
X17610132Y-15947078D01*
X17610135Y-15947081D01*
X17751602Y-16030744D01*
X17793224Y-16042836D01*
X17909426Y-16076597D01*
X17909429Y-16076597D01*
X17909431Y-16076598D01*
X17921722Y-16077565D01*
X17946304Y-16079500D01*
X17946306Y-16079500D01*
X18377696Y-16079500D01*
X18389985Y-16078532D01*
X18414569Y-16076598D01*
X18415010Y-16076470D01*
X18415265Y-16076470D01*
X18420799Y-16075460D01*
X18420986Y-16076486D01*
X18484877Y-16076663D01*
X18543551Y-16114599D01*
X18572400Y-16178234D01*
X18570715Y-16222197D01*
X18556500Y-16286778D01*
X18556500Y-16312053D01*
X18556282Y-16317244D01*
X18555381Y-16327973D01*
X18555381Y-16327984D01*
X18555381Y-16327987D01*
X18556396Y-16426486D01*
X18556500Y-16428082D01*
X18556500Y-19010897D01*
X18556295Y-19015931D01*
X18551660Y-19072843D01*
X18562914Y-19155441D01*
X18571927Y-19238316D01*
X18571929Y-19238327D01*
X18571990Y-19238506D01*
X18577340Y-19261331D01*
X18577366Y-19261525D01*
X18577369Y-19261536D01*
X18606119Y-19339794D01*
X18632730Y-19418774D01*
X18632734Y-19418782D01*
X18632832Y-19418945D01*
X18642969Y-19440099D01*
X18643036Y-19440283D01*
X18643038Y-19440286D01*
X18643039Y-19440288D01*
X18687940Y-19510536D01*
X18730911Y-19581954D01*
X18731042Y-19582092D01*
X18745495Y-19600579D01*
X18745602Y-19600747D01*
X18804552Y-19659696D01*
X18811348Y-19666871D01*
X18861871Y-19720207D01*
X18862028Y-19720314D01*
X18880121Y-19735265D01*
X19839194Y-20694338D01*
X19872679Y-20755661D01*
X19867695Y-20825353D01*
X19825823Y-20881286D01*
X19783606Y-20901794D01*
X19603344Y-20950094D01*
X19603335Y-20950098D01*
X19389171Y-21049964D01*
X19389169Y-21049965D01*
X19195597Y-21185505D01*
X19028505Y-21352597D01*
X18898575Y-21538158D01*
X18843998Y-21581783D01*
X18774500Y-21588977D01*
X18712145Y-21557454D01*
X18695425Y-21538158D01*
X18565494Y-21352597D01*
X18398402Y-21185506D01*
X18398395Y-21185501D01*
X18396468Y-21184152D01*
X18359521Y-21158281D01*
X18204834Y-21049967D01*
X18204830Y-21049965D01*
X18087950Y-20995463D01*
X17990663Y-20950097D01*
X17990659Y-20950096D01*
X17990655Y-20950094D01*
X17762413Y-20888938D01*
X17762403Y-20888936D01*
X17527001Y-20868341D01*
X17526999Y-20868341D01*
X17291596Y-20888936D01*
X17291586Y-20888938D01*
X17171593Y-20921090D01*
X17101743Y-20919427D01*
X17043881Y-20880264D01*
X17016377Y-20816035D01*
X17015500Y-20801315D01*
X17015500Y-19354135D01*
X17035185Y-19287096D01*
X17075354Y-19248016D01*
X17081871Y-19244076D01*
X17202073Y-19123875D01*
X17290019Y-18978395D01*
X17340590Y-18816106D01*
X17347000Y-18745572D01*
X17347000Y-18664000D01*
X16370500Y-18664000D01*
X16303461Y-18644315D01*
X16257706Y-18591511D01*
X16246500Y-18540000D01*
X16246500Y-18288000D01*
X16266185Y-18220961D01*
X16318989Y-18175206D01*
X16370500Y-18164000D01*
X17346999Y-18164000D01*
X17346999Y-18082417D01*
X17340591Y-18011897D01*
X17340590Y-18011892D01*
X17290018Y-17849603D01*
X17202073Y-17704124D01*
X17097161Y-17599213D01*
X17063676Y-17537890D01*
X17068660Y-17468198D01*
X17097157Y-17423854D01*
X17181968Y-17339044D01*
X17271003Y-17194697D01*
X17324349Y-17033708D01*
X17334500Y-16934345D01*
X17334499Y-16337656D01*
X17333511Y-16327987D01*
X17324349Y-16238292D01*
X17312566Y-16202734D01*
X17294680Y-16148758D01*
X17292279Y-16078933D01*
X17328010Y-16018891D01*
X17349254Y-16003032D01*
X17443865Y-15947081D01*
X17443872Y-15947073D01*
X17450031Y-15942298D01*
X17451933Y-15944750D01*
X17500579Y-15918155D01*
X17570274Y-15923104D01*
G37*
%TD.AperFunction*%
%TD*%
%TA.AperFunction,Conductor*%
%TO.N,Net-(J3-Pin_2)*%
G36*
X13408539Y-20185D02*
G01*
X13454294Y-72989D01*
X13465500Y-124500D01*
X13465500Y-730914D01*
X13445815Y-797953D01*
X13393011Y-843708D01*
X13323853Y-853652D01*
X13270376Y-832489D01*
X13124578Y-730400D01*
X12910492Y-630570D01*
X12910486Y-630567D01*
X12697000Y-573364D01*
X12697000Y-1468498D01*
X12589315Y-1419320D01*
X12482763Y-1404000D01*
X12411237Y-1404000D01*
X12304685Y-1419320D01*
X12197000Y-1468498D01*
X12197000Y-573364D01*
X12196999Y-573364D01*
X11983513Y-630567D01*
X11983507Y-630570D01*
X11769422Y-730399D01*
X11769420Y-730400D01*
X11626123Y-830738D01*
X11559917Y-853065D01*
X11492150Y-836055D01*
X11444337Y-785107D01*
X11431000Y-729163D01*
X11431000Y-124500D01*
X11450685Y-57461D01*
X11503489Y-11706D01*
X11555000Y-500D01*
X13341500Y-500D01*
X13408539Y-20185D01*
G37*
%TD.AperFunction*%
%TD*%
%TA.AperFunction,Conductor*%
%TO.N,+5V*%
G36*
X13938569Y-18887736D02*
G01*
X13944878Y-18894092D01*
X13945362Y-18901523D01*
X13843304Y-19287095D01*
X13837875Y-19294216D01*
X13831994Y-19295801D01*
X13600049Y-19295801D01*
X13591776Y-19292374D01*
X13588725Y-19287042D01*
X13488580Y-18901488D01*
X13489817Y-18892619D01*
X13495385Y-18887755D01*
X13712484Y-18796889D01*
X13721437Y-18796857D01*
X13938569Y-18887736D01*
G37*
%TD.AperFunction*%
%TD*%
%TA.AperFunction,Conductor*%
%TO.N,+5V*%
G36*
X14476244Y-14107427D02*
G01*
X14479289Y-14112734D01*
X14580392Y-14498495D01*
X14579174Y-14507366D01*
X14573591Y-14512254D01*
X14356517Y-14603109D01*
X14347563Y-14603142D01*
X14347483Y-14603109D01*
X14130408Y-14512254D01*
X14124099Y-14505898D01*
X14123607Y-14498495D01*
X14224711Y-14112734D01*
X14230124Y-14105600D01*
X14236029Y-14104000D01*
X14467971Y-14104000D01*
X14476244Y-14107427D01*
G37*
%TD.AperFunction*%
%TD*%
%TA.AperFunction,Conductor*%
%TO.N,Net-(R1-Pad1)*%
G36*
X19083434Y-12734183D02*
G01*
X19301175Y-12823435D01*
X19307531Y-12829744D01*
X19307564Y-12829824D01*
X19396815Y-13047564D01*
X19396782Y-13056518D01*
X19391894Y-13062101D01*
X19047629Y-13263385D01*
X19038758Y-13264603D01*
X19033451Y-13261558D01*
X18869441Y-13097548D01*
X18866014Y-13089275D01*
X18867612Y-13083374D01*
X19068899Y-12739103D01*
X19076032Y-12733692D01*
X19083434Y-12734183D01*
G37*
%TD.AperFunction*%
%TD*%
%TA.AperFunction,Conductor*%
%TO.N,/USB_DP*%
G36*
X25858942Y-12329165D02*
G01*
X25682165Y-12505942D01*
X25321329Y-12294970D01*
X25416293Y-12063293D01*
X25647970Y-11968329D01*
X25858942Y-12329165D01*
G37*
%TD.AperFunction*%
%TD*%
%TA.AperFunction,Conductor*%
%TO.N,/USB_DN*%
G36*
X16691950Y-11429438D02*
G01*
X16978027Y-11574151D01*
X16983863Y-11580943D01*
X16983572Y-11589028D01*
X16894564Y-11806175D01*
X16888255Y-11812531D01*
X16888175Y-11812564D01*
X16671028Y-11901572D01*
X16662074Y-11901539D01*
X16656151Y-11896027D01*
X16511438Y-11609950D01*
X16510761Y-11601021D01*
X16513603Y-11596398D01*
X16678397Y-11431604D01*
X16686669Y-11428178D01*
X16691950Y-11429438D01*
G37*
%TD.AperFunction*%
%TD*%
%TA.AperFunction,Conductor*%
%TO.N,Net-(J3-Pin_3)*%
G36*
X15946039Y-20185D02*
G01*
X15991794Y-72989D01*
X16003000Y-124500D01*
X16003000Y-729164D01*
X15983315Y-796203D01*
X15930511Y-841958D01*
X15861353Y-851902D01*
X15807876Y-830739D01*
X15664578Y-730399D01*
X15450492Y-630570D01*
X15450486Y-630567D01*
X15237000Y-573364D01*
X15237000Y-1468498D01*
X15129315Y-1419320D01*
X15022763Y-1404000D01*
X14951237Y-1404000D01*
X14844685Y-1419320D01*
X14737000Y-1468498D01*
X14737000Y-573364D01*
X14736999Y-573364D01*
X14523513Y-630567D01*
X14523507Y-630570D01*
X14309422Y-730399D01*
X14309420Y-730400D01*
X14166123Y-830738D01*
X14099917Y-853065D01*
X14032150Y-836055D01*
X13984337Y-785107D01*
X13971000Y-729163D01*
X13971000Y-124500D01*
X13990685Y-57461D01*
X14043489Y-11706D01*
X14095000Y-500D01*
X15879000Y-500D01*
X15946039Y-20185D01*
G37*
%TD.AperFunction*%
%TD*%
%TA.AperFunction,Conductor*%
%TO.N,GND*%
G36*
X16453039Y-19196685D02*
G01*
X16498794Y-19249489D01*
X16510000Y-19301000D01*
X16510000Y-21750038D01*
X16490315Y-21817077D01*
X16437511Y-21862832D01*
X16368353Y-21872776D01*
X16304797Y-21843751D01*
X16267023Y-21784973D01*
X16266225Y-21782132D01*
X16260432Y-21760513D01*
X16260429Y-21760507D01*
X16160600Y-21546422D01*
X16160599Y-21546420D01*
X16025113Y-21352926D01*
X16025108Y-21352920D01*
X15858082Y-21185894D01*
X15664578Y-21050399D01*
X15450492Y-20950570D01*
X15450483Y-20950566D01*
X15222326Y-20889432D01*
X15222316Y-20889430D01*
X15213428Y-20888653D01*
X15148359Y-20863200D01*
X15107381Y-20806609D01*
X15103504Y-20736847D01*
X15136552Y-20677447D01*
X15240000Y-20574000D01*
X15240000Y-19886836D01*
X15247815Y-19843510D01*
X15258922Y-19813728D01*
X15260608Y-19809656D01*
X15282165Y-19762457D01*
X15282850Y-19757685D01*
X15289409Y-19731992D01*
X15291091Y-19727483D01*
X15294791Y-19675740D01*
X15295265Y-19671340D01*
X15297500Y-19655799D01*
X15297500Y-19640094D01*
X15297658Y-19635669D01*
X15299513Y-19609734D01*
X15301359Y-19583927D01*
X15300332Y-19579206D01*
X15297500Y-19552858D01*
X15297500Y-19301000D01*
X15317185Y-19233961D01*
X15369989Y-19188206D01*
X15421500Y-19177000D01*
X16386000Y-19177000D01*
X16453039Y-19196685D01*
G37*
%TD.AperFunction*%
%TD*%
%TA.AperFunction,Conductor*%
%TO.N,GND*%
G36*
X15745244Y-18934427D02*
G01*
X15748289Y-18939734D01*
X15851970Y-19335329D01*
X15621000Y-19432000D01*
X15390030Y-19335329D01*
X15493711Y-18939734D01*
X15499124Y-18932600D01*
X15505029Y-18931000D01*
X15736971Y-18931000D01*
X15745244Y-18934427D01*
G37*
%TD.AperFunction*%
%TD*%
%TA.AperFunction,Conductor*%
%TO.N,Net-(J3-Pin_7)*%
G36*
X23962160Y-2570110D02*
G01*
X23978879Y-2589405D01*
X24108890Y-2775078D01*
X24275917Y-2942105D01*
X24469421Y-3077600D01*
X24683507Y-3177429D01*
X24683516Y-3177433D01*
X24864013Y-3225796D01*
X24923673Y-3262161D01*
X24954203Y-3325007D01*
X24945909Y-3394383D01*
X24919601Y-3433252D01*
X21379873Y-6972982D01*
X21376170Y-6976396D01*
X21332641Y-7013370D01*
X21282191Y-7079737D01*
X21229970Y-7144701D01*
X21229968Y-7144704D01*
X21229879Y-7144885D01*
X21217529Y-7164796D01*
X21217400Y-7164964D01*
X21217397Y-7164970D01*
X21196605Y-7209913D01*
X21182389Y-7240640D01*
X21170569Y-7264474D01*
X21145359Y-7315305D01*
X21145354Y-7315319D01*
X21145309Y-7315503D01*
X21137527Y-7337609D01*
X21137441Y-7337794D01*
X21137438Y-7337803D01*
X21119514Y-7419229D01*
X21099399Y-7500113D01*
X21099394Y-7500310D01*
X21096545Y-7523575D01*
X21096500Y-7523778D01*
X21096500Y-7607160D01*
X21094243Y-7690473D01*
X21094278Y-7690655D01*
X21096500Y-7714023D01*
X21096500Y-8059137D01*
X21076815Y-8126176D01*
X21024011Y-8171931D01*
X20960905Y-8181004D01*
X20960795Y-8182399D01*
X20952000Y-8181703D01*
X20952000Y-9778000D01*
X20452000Y-9778000D01*
X20452000Y-8181703D01*
X20443205Y-8182399D01*
X20443014Y-8179989D01*
X20384276Y-8173792D01*
X20329785Y-8130060D01*
X20307588Y-8063810D01*
X20307500Y-8059137D01*
X20307500Y-5493005D01*
X20327185Y-5425966D01*
X20343814Y-5405329D01*
X21947137Y-3802005D01*
X21975868Y-3780596D01*
X23163290Y-3139049D01*
X23187490Y-3125096D01*
X23187489Y-3125096D01*
X23192071Y-3122455D01*
X23192151Y-3122594D01*
X23204435Y-3115523D01*
X23284830Y-3078035D01*
X23478401Y-2942495D01*
X23645495Y-2775401D01*
X23775730Y-2589405D01*
X23830307Y-2545781D01*
X23899805Y-2538587D01*
X23962160Y-2570110D01*
G37*
%TD.AperFunction*%
%TA.AperFunction,Conductor*%
G36*
X26106039Y-20185D02*
G01*
X26151794Y-72989D01*
X26163000Y-124500D01*
X26163000Y-729164D01*
X26143315Y-796203D01*
X26090511Y-841958D01*
X26021353Y-851902D01*
X25967876Y-830739D01*
X25824578Y-730399D01*
X25610492Y-630570D01*
X25610486Y-630567D01*
X25397000Y-573364D01*
X25397000Y-1468498D01*
X25289315Y-1419320D01*
X25182763Y-1404000D01*
X25111237Y-1404000D01*
X25004685Y-1419320D01*
X24897000Y-1468498D01*
X24897000Y-573364D01*
X24896999Y-573364D01*
X24683513Y-630567D01*
X24683507Y-630570D01*
X24469422Y-730399D01*
X24469420Y-730400D01*
X24326123Y-830738D01*
X24259917Y-853065D01*
X24192150Y-836055D01*
X24144337Y-785107D01*
X24131000Y-729163D01*
X24131000Y-124500D01*
X24150685Y-57461D01*
X24203489Y-11706D01*
X24255000Y-500D01*
X26039000Y-500D01*
X26106039Y-20185D01*
G37*
%TD.AperFunction*%
%TD*%
%TA.AperFunction,Conductor*%
%TO.N,+5V*%
G36*
X35347470Y-12223171D02*
G01*
X35241500Y-12627500D01*
X35000529Y-12627500D01*
X34992256Y-12624073D01*
X34989211Y-12618766D01*
X34888107Y-12233004D01*
X34889325Y-12224133D01*
X34894906Y-12219246D01*
X35116500Y-12126500D01*
X35347470Y-12223171D01*
G37*
%TD.AperFunction*%
%TD*%
%TA.AperFunction,Conductor*%
%TO.N,Net-(J4-Pin_6)*%
G36*
X19680362Y-15635427D02*
G01*
X19683630Y-15641777D01*
X19804735Y-16368413D01*
X19802715Y-16377136D01*
X19795117Y-16381877D01*
X19793225Y-16382036D01*
X19432000Y-16383000D01*
X19070774Y-16382036D01*
X19062510Y-16378587D01*
X19059105Y-16370305D01*
X19059264Y-16368413D01*
X19180370Y-15641777D01*
X19185111Y-15634179D01*
X19191911Y-15632000D01*
X19672089Y-15632000D01*
X19680362Y-15635427D01*
G37*
%TD.AperFunction*%
%TD*%
%TA.AperFunction,Conductor*%
%TO.N,Net-(J4-Pin_8)*%
G36*
X27475218Y-20469006D02*
G01*
X27476511Y-20470543D01*
X28282380Y-21614920D01*
X28284342Y-21623657D01*
X28281097Y-21629919D01*
X27691139Y-22221265D01*
X27682870Y-22224702D01*
X27682846Y-22224702D01*
X26849687Y-22224010D01*
X26841417Y-22220576D01*
X26837997Y-22212300D01*
X26838036Y-22211354D01*
X26886202Y-21623657D01*
X26937823Y-20993783D01*
X26941210Y-20986468D01*
X27458673Y-20469005D01*
X27466945Y-20465579D01*
X27475218Y-20469006D01*
G37*
%TD.AperFunction*%
%TD*%
%TA.AperFunction,Conductor*%
%TO.N,/RST*%
G36*
X25447221Y-5484436D02*
G01*
X25503154Y-5526308D01*
X25527571Y-5591772D01*
X25524093Y-5631058D01*
X25492387Y-5756258D01*
X25492385Y-5756270D01*
X25471859Y-6003994D01*
X25471859Y-6004005D01*
X25492385Y-6251729D01*
X25492387Y-6251738D01*
X25553412Y-6492717D01*
X25653266Y-6720364D01*
X25753564Y-6873882D01*
X26451070Y-6176375D01*
X26453884Y-6189915D01*
X26523442Y-6324156D01*
X26626638Y-6434652D01*
X26755819Y-6513209D01*
X26807002Y-6527549D01*
X26106942Y-7227609D01*
X26153768Y-7264055D01*
X26153770Y-7264056D01*
X26372385Y-7382364D01*
X26372396Y-7382369D01*
X26607506Y-7463083D01*
X26847859Y-7503191D01*
X26910744Y-7533642D01*
X26947183Y-7593256D01*
X26945608Y-7663108D01*
X26906518Y-7721020D01*
X26842324Y-7748605D01*
X26827449Y-7749500D01*
X26453822Y-7749500D01*
X26426782Y-7750950D01*
X26396218Y-7754235D01*
X26386962Y-7755231D01*
X26333571Y-7763882D01*
X26333567Y-7763883D01*
X26198769Y-7814154D01*
X26198757Y-7814160D01*
X26157721Y-7836565D01*
X26137436Y-7847642D01*
X26137428Y-7847645D01*
X26137421Y-7847649D01*
X26022242Y-7933873D01*
X26022230Y-7933883D01*
X25821622Y-8134491D01*
X25821623Y-8134491D01*
X25801230Y-8157530D01*
X25801229Y-8157531D01*
X25786193Y-8176757D01*
X25773221Y-8193345D01*
X25773220Y-8193347D01*
X25773220Y-8193346D01*
X25738373Y-8243969D01*
X25738368Y-8243979D01*
X25682441Y-8376539D01*
X25677856Y-8394024D01*
X25677758Y-8394186D01*
X25664984Y-8443108D01*
X25659430Y-8464288D01*
X25660153Y-8467199D01*
X25656922Y-8490550D01*
X25640221Y-8561017D01*
X25637716Y-8573145D01*
X25627091Y-8603713D01*
X25621542Y-8614763D01*
X25616308Y-8625985D01*
X25598924Y-8653271D01*
X25590966Y-8662757D01*
X25581948Y-8674162D01*
X25579019Y-8677600D01*
X25572992Y-8684176D01*
X25571755Y-8685649D01*
X25557861Y-8699745D01*
X25549171Y-8707256D01*
X25535698Y-8719781D01*
X25323295Y-8932186D01*
X25305208Y-8952323D01*
X25305208Y-8952322D01*
X25280081Y-8983504D01*
X25280080Y-8983505D01*
X25248433Y-9027391D01*
X25188663Y-9158265D01*
X25168978Y-9225303D01*
X25168976Y-9225308D01*
X25148500Y-9367729D01*
X25148500Y-9506918D01*
X25166259Y-9639730D01*
X25183379Y-9702599D01*
X25183382Y-9702608D01*
X25235409Y-9826078D01*
X25235410Y-9826080D01*
X25325265Y-9938452D01*
X25361840Y-9972764D01*
X25397263Y-10032986D01*
X25401000Y-10063197D01*
X25401000Y-11189500D01*
X25381315Y-11256539D01*
X25328511Y-11302294D01*
X25277000Y-11313500D01*
X22731000Y-11313500D01*
X22663961Y-11293815D01*
X22618206Y-11241011D01*
X22607000Y-11189500D01*
X22607000Y-10965308D01*
X22626685Y-10898269D01*
X22635571Y-10887243D01*
X22635298Y-10887031D01*
X22640075Y-10880870D01*
X22640081Y-10880865D01*
X22723744Y-10739398D01*
X22769598Y-10581569D01*
X22772500Y-10544694D01*
X22772500Y-10036114D01*
X22783960Y-9984049D01*
X22806562Y-9935197D01*
X22847500Y-9749216D01*
X22847500Y-8033005D01*
X22867185Y-7965966D01*
X22883814Y-7945329D01*
X25316206Y-5512936D01*
X25377529Y-5479452D01*
X25447221Y-5484436D01*
G37*
%TD.AperFunction*%
%TA.AperFunction,Conductor*%
G36*
X35502539Y-20185D02*
G01*
X35548294Y-72989D01*
X35559500Y-124500D01*
X35559500Y-7625500D01*
X35539815Y-7692539D01*
X35487011Y-7738294D01*
X35435500Y-7749500D01*
X33626551Y-7749500D01*
X33559512Y-7729815D01*
X33513757Y-7677011D01*
X33503813Y-7607853D01*
X33532838Y-7544297D01*
X33591616Y-7506523D01*
X33606141Y-7503191D01*
X33846493Y-7463083D01*
X34081603Y-7382369D01*
X34081614Y-7382364D01*
X34300228Y-7264057D01*
X34300231Y-7264055D01*
X34347056Y-7227609D01*
X33648568Y-6529121D01*
X33765458Y-6478349D01*
X33882739Y-6382934D01*
X33969928Y-6259415D01*
X34000354Y-6173802D01*
X34700434Y-6873882D01*
X34800731Y-6720369D01*
X34900587Y-6492717D01*
X34961612Y-6251738D01*
X34961614Y-6251729D01*
X34982141Y-6004005D01*
X34982141Y-6003994D01*
X34961614Y-5756270D01*
X34961612Y-5756261D01*
X34900587Y-5515282D01*
X34800731Y-5287630D01*
X34700434Y-5134116D01*
X34002929Y-5831622D01*
X34000116Y-5818085D01*
X33930558Y-5683844D01*
X33827362Y-5573348D01*
X33698181Y-5494791D01*
X33646997Y-5480450D01*
X34347057Y-4780390D01*
X34347056Y-4780389D01*
X34300229Y-4743943D01*
X34081614Y-4625635D01*
X34081603Y-4625630D01*
X33846493Y-4544916D01*
X33601293Y-4504000D01*
X33352707Y-4504000D01*
X33107506Y-4544916D01*
X32872396Y-4625630D01*
X32872390Y-4625632D01*
X32653761Y-4743949D01*
X32606942Y-4780388D01*
X32606942Y-4780390D01*
X33305431Y-5478878D01*
X33188542Y-5529651D01*
X33071261Y-5625066D01*
X32984072Y-5748585D01*
X32953645Y-5834197D01*
X32253564Y-5134116D01*
X32153267Y-5287632D01*
X32053412Y-5515282D01*
X31992387Y-5756261D01*
X31992385Y-5756270D01*
X31971859Y-6003994D01*
X31971859Y-6004005D01*
X31992385Y-6251729D01*
X31992387Y-6251738D01*
X32053412Y-6492717D01*
X32153266Y-6720364D01*
X32253564Y-6873882D01*
X32951070Y-6176376D01*
X32953884Y-6189915D01*
X33023442Y-6324156D01*
X33126638Y-6434652D01*
X33255819Y-6513209D01*
X33307002Y-6527549D01*
X32606942Y-7227609D01*
X32653768Y-7264055D01*
X32653770Y-7264056D01*
X32872385Y-7382364D01*
X32872396Y-7382369D01*
X33107506Y-7463083D01*
X33347859Y-7503191D01*
X33410744Y-7533642D01*
X33447183Y-7593256D01*
X33445608Y-7663108D01*
X33406518Y-7721020D01*
X33342324Y-7748605D01*
X33327449Y-7749500D01*
X27126551Y-7749500D01*
X27059512Y-7729815D01*
X27013757Y-7677011D01*
X27003813Y-7607853D01*
X27032838Y-7544297D01*
X27091616Y-7506523D01*
X27106141Y-7503191D01*
X27346493Y-7463083D01*
X27581603Y-7382369D01*
X27581614Y-7382364D01*
X27800228Y-7264057D01*
X27800231Y-7264055D01*
X27847056Y-7227609D01*
X27148568Y-6529121D01*
X27265458Y-6478349D01*
X27382739Y-6382934D01*
X27469928Y-6259415D01*
X27500354Y-6173802D01*
X28200434Y-6873882D01*
X28300731Y-6720369D01*
X28400587Y-6492717D01*
X28461612Y-6251738D01*
X28461614Y-6251729D01*
X28482141Y-6004005D01*
X28482141Y-6003994D01*
X28461614Y-5756270D01*
X28461612Y-5756261D01*
X28400587Y-5515282D01*
X28300731Y-5287630D01*
X28200434Y-5134116D01*
X27502929Y-5831622D01*
X27500116Y-5818085D01*
X27430558Y-5683844D01*
X27327362Y-5573348D01*
X27198181Y-5494791D01*
X27146996Y-5480449D01*
X27847057Y-4780389D01*
X27800229Y-4743943D01*
X27581614Y-4625635D01*
X27581603Y-4625630D01*
X27346493Y-4544916D01*
X27101293Y-4504000D01*
X26852707Y-4504000D01*
X26602452Y-4545760D01*
X26602103Y-4543669D01*
X26541253Y-4541337D01*
X26483965Y-4501339D01*
X26457395Y-4436718D01*
X26469980Y-4367991D01*
X26493035Y-4336108D01*
X27027137Y-3802005D01*
X27055868Y-3780596D01*
X28243290Y-3139049D01*
X28267490Y-3125096D01*
X28267489Y-3125096D01*
X28272071Y-3122455D01*
X28272151Y-3122594D01*
X28284435Y-3115523D01*
X28364830Y-3078035D01*
X28558401Y-2942495D01*
X28725495Y-2775401D01*
X28861035Y-2581830D01*
X28916338Y-2463231D01*
X28941026Y-2427973D01*
X29211000Y-2158000D01*
X29211000Y-124500D01*
X29230685Y-57461D01*
X29283489Y-11706D01*
X29335000Y-500D01*
X35435500Y-500D01*
X35502539Y-20185D01*
G37*
%TD.AperFunction*%
%TD*%
%TA.AperFunction,Conductor*%
%TO.N,Net-(J3-Pin_8)*%
G36*
X27687707Y-1903293D02*
G01*
X27687999Y-1904000D01*
X28008255Y-2679550D01*
X28008246Y-2688505D01*
X28003003Y-2694310D01*
X26757754Y-3367102D01*
X26748846Y-3368019D01*
X26743919Y-3365081D01*
X26225918Y-2847080D01*
X26222491Y-2838807D01*
X26223895Y-2833250D01*
X26725957Y-1904000D01*
X26901702Y-1578719D01*
X27687707Y-1903293D01*
G37*
%TD.AperFunction*%
%TD*%
%TA.AperFunction,Conductor*%
%TO.N,Net-(J3-Pin_5)*%
G36*
X18498132Y-9793200D02*
G01*
X18504448Y-9799547D01*
X18504618Y-9808011D01*
X18289807Y-10396313D01*
X18283751Y-10402909D01*
X18278817Y-10404000D01*
X18045183Y-10404000D01*
X18036910Y-10400573D01*
X18034193Y-10396313D01*
X17819381Y-9808011D01*
X17819762Y-9799064D01*
X17825865Y-9793201D01*
X18157497Y-9654877D01*
X18166449Y-9654856D01*
X18498132Y-9793200D01*
G37*
%TD.AperFunction*%
%TD*%
%TA.AperFunction,Conductor*%
%TO.N,/RST*%
G36*
X22607707Y-1903293D02*
G01*
X22607999Y-1904000D01*
X22928255Y-2679550D01*
X22928246Y-2688505D01*
X22923003Y-2694310D01*
X21677754Y-3367102D01*
X21668846Y-3368019D01*
X21663919Y-3365081D01*
X21145918Y-2847080D01*
X21142491Y-2838807D01*
X21143895Y-2833250D01*
X21645957Y-1904000D01*
X21821702Y-1578719D01*
X22607707Y-1903293D01*
G37*
%TD.AperFunction*%
%TD*%
%TA.AperFunction,Conductor*%
%TO.N,Net-(J3-Pin_4)*%
G36*
X18488539Y-20185D02*
G01*
X18534294Y-72989D01*
X18545500Y-124500D01*
X18545500Y-730914D01*
X18525815Y-797953D01*
X18473011Y-843708D01*
X18403853Y-853652D01*
X18350376Y-832489D01*
X18204578Y-730400D01*
X17990492Y-630570D01*
X17990486Y-630567D01*
X17777000Y-573364D01*
X17777000Y-1468498D01*
X17669315Y-1419320D01*
X17562763Y-1404000D01*
X17491237Y-1404000D01*
X17384685Y-1419320D01*
X17277000Y-1468498D01*
X17277000Y-573364D01*
X17276999Y-573364D01*
X17063513Y-630567D01*
X17063507Y-630570D01*
X16849422Y-730399D01*
X16849420Y-730400D01*
X16703623Y-832489D01*
X16637417Y-854816D01*
X16569650Y-837806D01*
X16521837Y-786858D01*
X16508500Y-730914D01*
X16508500Y-124500D01*
X16528185Y-57461D01*
X16580989Y-11706D01*
X16632500Y-500D01*
X18421500Y-500D01*
X18488539Y-20185D01*
G37*
%TD.AperFunction*%
%TD*%
%TA.AperFunction,Conductor*%
%TO.N,Net-(J3-Pin_3)*%
G36*
X15837000Y-1904000D02*
G01*
X15995553Y-3327980D01*
X15993063Y-3336582D01*
X15985220Y-3340903D01*
X15983925Y-3340975D01*
X15251746Y-3340975D01*
X15243596Y-3337670D01*
X14394471Y-2513305D01*
X14390922Y-2505083D01*
X14394226Y-2496760D01*
X14986002Y-1904000D01*
X14987000Y-1903000D01*
X15837000Y-1904000D01*
G37*
%TD.AperFunction*%
%TD*%
%TA.AperFunction,Conductor*%
%TO.N,+5V*%
G36*
X14573591Y-13806745D02*
G01*
X14579900Y-13813101D01*
X14580392Y-13820504D01*
X14479289Y-14206266D01*
X14473876Y-14213400D01*
X14467971Y-14215000D01*
X14236029Y-14215000D01*
X14227756Y-14211573D01*
X14224711Y-14206266D01*
X14123607Y-13820504D01*
X14124825Y-13811633D01*
X14130406Y-13806746D01*
X14347484Y-13715889D01*
X14356437Y-13715857D01*
X14573591Y-13806745D01*
G37*
%TD.AperFunction*%
%TD*%
%TA.AperFunction,Conductor*%
%TO.N,+5V*%
G36*
X13840267Y-20457626D02*
G01*
X13843304Y-20462905D01*
X13939941Y-20827999D01*
X13939941Y-20828000D01*
X13939942Y-20828000D01*
X13947970Y-20858329D01*
X13717000Y-20955000D01*
X13486030Y-20858329D01*
X13588725Y-20462958D01*
X13594121Y-20455812D01*
X13600049Y-20454199D01*
X13831994Y-20454199D01*
X13840267Y-20457626D01*
G37*
%TD.AperFunction*%
%TD*%
%TA.AperFunction,Conductor*%
%TO.N,/USB_DP*%
G36*
X18113203Y-11319649D02*
G01*
X18119681Y-11325681D01*
X18646319Y-11852319D01*
X18679804Y-11913642D01*
X18674820Y-11983334D01*
X18632948Y-12039267D01*
X18567484Y-12063684D01*
X18558638Y-12064000D01*
X18032000Y-12064000D01*
X17964961Y-12044315D01*
X17919206Y-11991511D01*
X17908000Y-11940000D01*
X17908000Y-11413362D01*
X17927685Y-11346323D01*
X17980489Y-11300568D01*
X18049647Y-11290624D01*
X18113203Y-11319649D01*
G37*
%TD.AperFunction*%
%TD*%
%TA.AperFunction,Conductor*%
%TO.N,/RST*%
G36*
X23568539Y-20185D02*
G01*
X23614294Y-72989D01*
X23625500Y-124500D01*
X23625500Y-730914D01*
X23605815Y-797953D01*
X23553011Y-843708D01*
X23483853Y-853652D01*
X23430376Y-832489D01*
X23284578Y-730400D01*
X23070492Y-630570D01*
X23070486Y-630567D01*
X22857000Y-573364D01*
X22857000Y-1468498D01*
X22749315Y-1419320D01*
X22642763Y-1404000D01*
X22571237Y-1404000D01*
X22464685Y-1419320D01*
X22357000Y-1468498D01*
X22357000Y-573364D01*
X22356999Y-573364D01*
X22143513Y-630567D01*
X22143507Y-630570D01*
X21929422Y-730399D01*
X21929420Y-730400D01*
X21735926Y-865886D01*
X21735920Y-865891D01*
X21568891Y-1032920D01*
X21568890Y-1032922D01*
X21438880Y-1218595D01*
X21384303Y-1262219D01*
X21314804Y-1269412D01*
X21252450Y-1237890D01*
X21235730Y-1218594D01*
X21105494Y-1032597D01*
X21083000Y-1010103D01*
X21083000Y-500D01*
X23501500Y-500D01*
X23568539Y-20185D01*
G37*
%TD.AperFunction*%
%TD*%
%TA.AperFunction,Conductor*%
%TO.N,/USB_DP*%
G36*
X18286244Y-12837427D02*
G01*
X18289289Y-12842734D01*
X18390392Y-13228495D01*
X18389174Y-13237366D01*
X18383591Y-13242254D01*
X18166517Y-13333109D01*
X18157563Y-13333142D01*
X18157483Y-13333109D01*
X17940408Y-13242254D01*
X17934099Y-13235898D01*
X17933607Y-13228495D01*
X18034711Y-12842734D01*
X18040124Y-12835600D01*
X18046029Y-12834000D01*
X18277971Y-12834000D01*
X18286244Y-12837427D01*
G37*
%TD.AperFunction*%
%TD*%
%TA.AperFunction,Conductor*%
%TO.N,Net-(J3-Pin_1)*%
G36*
X10157000Y-3254000D02*
G01*
X10804828Y-3254000D01*
X10804844Y-3253999D01*
X10864372Y-3247598D01*
X10864379Y-3247596D01*
X10999086Y-3197354D01*
X10999093Y-3197350D01*
X11114187Y-3111190D01*
X11114190Y-3111187D01*
X11200350Y-2996093D01*
X11200355Y-2996084D01*
X11249421Y-2864530D01*
X11291291Y-2808596D01*
X11356756Y-2784178D01*
X11425029Y-2799029D01*
X11453284Y-2820180D01*
X11575599Y-2942495D01*
X11575602Y-2942497D01*
X11575603Y-2942498D01*
X11769165Y-3078032D01*
X11769167Y-3078033D01*
X11769170Y-3078035D01*
X11840272Y-3111190D01*
X11863570Y-3122054D01*
X11885038Y-3134843D01*
X11890700Y-3139043D01*
X11890708Y-3139047D01*
X11890710Y-3139049D01*
X13078125Y-3780593D01*
X13106863Y-3802007D01*
X13440181Y-4135325D01*
X13473666Y-4196648D01*
X13476500Y-4223006D01*
X13476500Y-8059137D01*
X13456815Y-8126176D01*
X13404011Y-8171931D01*
X13340905Y-8181004D01*
X13340795Y-8182399D01*
X13332000Y-8181703D01*
X13332000Y-9779000D01*
X12832000Y-9779000D01*
X12832000Y-9564689D01*
X12836051Y-9533252D01*
X12910376Y-9249666D01*
X12911004Y-9247068D01*
X12913496Y-9236787D01*
X12916124Y-9228524D01*
X12922862Y-9211567D01*
X12948289Y-9037977D01*
X12944950Y-8999814D01*
X12932999Y-8863204D01*
X12932999Y-8863203D01*
X12877814Y-8696666D01*
X12850461Y-8652319D01*
X12832000Y-8587223D01*
X12832000Y-8181703D01*
X12829504Y-8181900D01*
X12671806Y-8227716D01*
X12671801Y-8227718D01*
X12625320Y-8255206D01*
X12557596Y-8272386D01*
X12491334Y-8250225D01*
X12474521Y-8236153D01*
X12355319Y-8116951D01*
X12321834Y-8055628D01*
X12319000Y-8029270D01*
X12319000Y-6858000D01*
X8926681Y-3465681D01*
X8893196Y-3404358D01*
X8898180Y-3334666D01*
X8940052Y-3278733D01*
X9005516Y-3254316D01*
X9014362Y-3254000D01*
X9657000Y-3254000D01*
X9657000Y-2339501D01*
X9764685Y-2388680D01*
X9871237Y-2404000D01*
X9942763Y-2404000D01*
X10049315Y-2388680D01*
X10157000Y-2339501D01*
X10157000Y-3254000D01*
G37*
%TD.AperFunction*%
%TA.AperFunction,Conductor*%
G36*
X10484039Y-20185D02*
G01*
X10529794Y-72989D01*
X10541000Y-124500D01*
X10541000Y-430000D01*
X10521315Y-497039D01*
X10468511Y-542794D01*
X10417000Y-554000D01*
X10157000Y-554000D01*
X10157000Y-1468498D01*
X10049315Y-1419320D01*
X9942763Y-1404000D01*
X9871237Y-1404000D01*
X9764685Y-1419320D01*
X9657000Y-1468498D01*
X9657000Y-554000D01*
X9009155Y-554000D01*
X8949627Y-560401D01*
X8949620Y-560403D01*
X8814913Y-610645D01*
X8814906Y-610649D01*
X8699812Y-696809D01*
X8699809Y-696812D01*
X8613649Y-811906D01*
X8613645Y-811913D01*
X8563403Y-946620D01*
X8563401Y-946627D01*
X8557000Y-1006155D01*
X8557000Y-1654000D01*
X9473314Y-1654000D01*
X9447507Y-1694156D01*
X9407000Y-1832111D01*
X9407000Y-1975889D01*
X9447507Y-2113844D01*
X9473314Y-2154000D01*
X8557000Y-2154000D01*
X8557000Y-2796638D01*
X8537315Y-2863677D01*
X8484511Y-2909432D01*
X8415353Y-2919376D01*
X8351797Y-2890351D01*
X8345319Y-2884319D01*
X5673181Y-212181D01*
X5639696Y-150858D01*
X5644680Y-81166D01*
X5686552Y-25233D01*
X5752016Y-816D01*
X5760862Y-500D01*
X10417000Y-500D01*
X10484039Y-20185D01*
G37*
%TD.AperFunction*%
%TD*%
%TA.AperFunction,Conductor*%
%TO.N,GND*%
G36*
X6986000Y-12065000D02*
G01*
X6841494Y-12411455D01*
X6235000Y-12190000D01*
X6235000Y-11940000D01*
X6841494Y-11718545D01*
X6986000Y-12065000D01*
G37*
%TD.AperFunction*%
%TD*%
%TA.AperFunction,Conductor*%
%TO.N,+5V*%
G36*
X35502539Y-8274685D02*
G01*
X35548294Y-8327489D01*
X35559500Y-8379000D01*
X35559500Y-24005500D01*
X35539815Y-24072539D01*
X35487011Y-24118294D01*
X35435500Y-24129500D01*
X11427000Y-24129500D01*
X11359961Y-24109815D01*
X11314206Y-24057011D01*
X11303000Y-24005500D01*
X11303000Y-23288550D01*
X11322685Y-23221511D01*
X11375489Y-23175756D01*
X11444647Y-23165812D01*
X11508203Y-23194837D01*
X11514681Y-23200869D01*
X11575917Y-23262105D01*
X11769421Y-23397600D01*
X11983507Y-23497429D01*
X11983516Y-23497433D01*
X12197000Y-23554634D01*
X12197000Y-22659501D01*
X12304685Y-22708680D01*
X12411237Y-22724000D01*
X12482763Y-22724000D01*
X12589315Y-22708680D01*
X12697000Y-22659501D01*
X12697000Y-23554633D01*
X12910483Y-23497433D01*
X12910492Y-23497429D01*
X13124578Y-23397600D01*
X13318082Y-23262105D01*
X13485105Y-23095082D01*
X13615119Y-22909405D01*
X13669696Y-22865781D01*
X13739195Y-22858588D01*
X13801549Y-22890110D01*
X13818269Y-22909405D01*
X13948505Y-23095401D01*
X14115599Y-23262495D01*
X14212384Y-23330265D01*
X14309165Y-23398032D01*
X14309167Y-23398033D01*
X14309170Y-23398035D01*
X14523337Y-23497903D01*
X14751592Y-23559063D01*
X14939918Y-23575539D01*
X14986999Y-23579659D01*
X14987000Y-23579659D01*
X14987001Y-23579659D01*
X15026234Y-23576226D01*
X15222408Y-23559063D01*
X15450663Y-23497903D01*
X15664830Y-23398035D01*
X15858401Y-23262495D01*
X16025495Y-23095401D01*
X16155425Y-22909842D01*
X16210002Y-22866217D01*
X16279500Y-22859023D01*
X16341855Y-22890546D01*
X16358575Y-22909842D01*
X16488500Y-23095395D01*
X16488505Y-23095401D01*
X16655599Y-23262495D01*
X16752384Y-23330265D01*
X16849165Y-23398032D01*
X16849167Y-23398033D01*
X16849170Y-23398035D01*
X17063337Y-23497903D01*
X17291592Y-23559063D01*
X17479918Y-23575539D01*
X17526999Y-23579659D01*
X17527000Y-23579659D01*
X17527001Y-23579659D01*
X17566234Y-23576226D01*
X17762408Y-23559063D01*
X17990663Y-23497903D01*
X18204830Y-23398035D01*
X18398401Y-23262495D01*
X18565495Y-23095401D01*
X18695425Y-22909842D01*
X18750002Y-22866217D01*
X18819500Y-22859023D01*
X18881855Y-22890546D01*
X18898575Y-22909842D01*
X19028500Y-23095395D01*
X19028505Y-23095401D01*
X19195599Y-23262495D01*
X19292384Y-23330265D01*
X19389165Y-23398032D01*
X19389167Y-23398033D01*
X19389170Y-23398035D01*
X19603337Y-23497903D01*
X19831592Y-23559063D01*
X20019918Y-23575539D01*
X20066999Y-23579659D01*
X20067000Y-23579659D01*
X20067001Y-23579659D01*
X20106234Y-23576226D01*
X20302408Y-23559063D01*
X20530663Y-23497903D01*
X20744830Y-23398035D01*
X20938401Y-23262495D01*
X21105495Y-23095401D01*
X21235425Y-22909842D01*
X21290002Y-22866217D01*
X21359500Y-22859023D01*
X21421855Y-22890546D01*
X21438575Y-22909842D01*
X21568500Y-23095395D01*
X21568505Y-23095401D01*
X21735599Y-23262495D01*
X21832384Y-23330265D01*
X21929165Y-23398032D01*
X21929167Y-23398033D01*
X21929170Y-23398035D01*
X22143337Y-23497903D01*
X22371592Y-23559063D01*
X22559918Y-23575539D01*
X22606999Y-23579659D01*
X22607000Y-23579659D01*
X22607001Y-23579659D01*
X22646234Y-23576226D01*
X22842408Y-23559063D01*
X23070663Y-23497903D01*
X23284830Y-23398035D01*
X23478401Y-23262495D01*
X23645495Y-23095401D01*
X23775425Y-22909842D01*
X23830002Y-22866217D01*
X23899500Y-22859023D01*
X23961855Y-22890546D01*
X23978575Y-22909842D01*
X24108500Y-23095395D01*
X24108505Y-23095401D01*
X24275599Y-23262495D01*
X24372384Y-23330265D01*
X24469165Y-23398032D01*
X24469167Y-23398033D01*
X24469170Y-23398035D01*
X24683337Y-23497903D01*
X24911592Y-23559063D01*
X25099918Y-23575539D01*
X25146999Y-23579659D01*
X25147000Y-23579659D01*
X25147001Y-23579659D01*
X25186234Y-23576226D01*
X25382408Y-23559063D01*
X25610663Y-23497903D01*
X25824830Y-23398035D01*
X26018401Y-23262495D01*
X26185495Y-23095401D01*
X26315425Y-22909842D01*
X26370002Y-22866217D01*
X26439500Y-22859023D01*
X26501855Y-22890546D01*
X26518575Y-22909842D01*
X26648500Y-23095395D01*
X26648505Y-23095401D01*
X26815599Y-23262495D01*
X26912384Y-23330265D01*
X27009165Y-23398032D01*
X27009167Y-23398033D01*
X27009170Y-23398035D01*
X27223337Y-23497903D01*
X27451592Y-23559063D01*
X27639918Y-23575539D01*
X27686999Y-23579659D01*
X27687000Y-23579659D01*
X27687001Y-23579659D01*
X27726234Y-23576226D01*
X27922408Y-23559063D01*
X28150663Y-23497903D01*
X28364830Y-23398035D01*
X28558401Y-23262495D01*
X28725495Y-23095401D01*
X28861035Y-22901830D01*
X28960903Y-22687663D01*
X28992187Y-22570906D01*
X29028551Y-22511247D01*
X29071727Y-22490272D01*
X29083000Y-22479000D01*
X29083000Y-21333000D01*
X29102685Y-21265961D01*
X29155489Y-21220206D01*
X29207000Y-21209000D01*
X32385000Y-21209000D01*
X34089445Y-19504554D01*
X34118093Y-19483192D01*
X34300509Y-19384474D01*
X34496744Y-19231738D01*
X34665164Y-19048785D01*
X34669811Y-19041673D01*
X34737950Y-18937377D01*
X34801173Y-18840607D01*
X34829136Y-18776855D01*
X34855003Y-18738996D01*
X35052000Y-18542000D01*
X35052000Y-12065000D01*
X34233799Y-12065000D01*
X34166760Y-12045315D01*
X34121005Y-11992511D01*
X34111061Y-11923353D01*
X34140086Y-11859797D01*
X34174782Y-11831945D01*
X34300228Y-11764057D01*
X34300231Y-11764055D01*
X34347056Y-11727609D01*
X33648568Y-11029121D01*
X33765458Y-10978349D01*
X33882739Y-10882934D01*
X33969928Y-10759415D01*
X34000354Y-10673802D01*
X34700434Y-11373882D01*
X34800731Y-11220369D01*
X34900587Y-10992717D01*
X34961612Y-10751738D01*
X34961614Y-10751729D01*
X34982141Y-10504005D01*
X34982141Y-10503994D01*
X34961614Y-10256270D01*
X34961612Y-10256261D01*
X34900587Y-10015282D01*
X34800731Y-9787630D01*
X34700434Y-9634116D01*
X34002929Y-10331622D01*
X34000116Y-10318085D01*
X33930558Y-10183844D01*
X33827362Y-10073348D01*
X33698181Y-9994791D01*
X33646997Y-9980450D01*
X34347057Y-9280390D01*
X34347056Y-9280389D01*
X34300229Y-9243943D01*
X34081614Y-9125635D01*
X34081603Y-9125630D01*
X33846493Y-9044916D01*
X33601293Y-9004000D01*
X33352707Y-9004000D01*
X33107506Y-9044916D01*
X32872396Y-9125630D01*
X32872390Y-9125632D01*
X32653761Y-9243949D01*
X32606942Y-9280388D01*
X32606942Y-9280390D01*
X33305431Y-9978878D01*
X33188542Y-10029651D01*
X33071261Y-10125066D01*
X32984072Y-10248585D01*
X32953645Y-10334197D01*
X32253564Y-9634116D01*
X32153267Y-9787632D01*
X32053412Y-10015282D01*
X31992387Y-10256261D01*
X31992385Y-10256270D01*
X31971859Y-10503994D01*
X31971859Y-10504005D01*
X31992385Y-10751729D01*
X31992387Y-10751738D01*
X32053412Y-10992717D01*
X32153266Y-11220364D01*
X32253564Y-11373882D01*
X32951070Y-10676376D01*
X32953884Y-10689915D01*
X33023442Y-10824156D01*
X33126638Y-10934652D01*
X33255819Y-11013209D01*
X33307002Y-11027549D01*
X32606942Y-11727609D01*
X32653768Y-11764055D01*
X32653770Y-11764056D01*
X32779218Y-11831945D01*
X32828809Y-11881164D01*
X32843917Y-11949381D01*
X32819747Y-12014937D01*
X32763971Y-12057018D01*
X32720201Y-12065000D01*
X27733799Y-12065000D01*
X27666760Y-12045315D01*
X27621005Y-11992511D01*
X27611061Y-11923353D01*
X27640086Y-11859797D01*
X27674782Y-11831945D01*
X27800228Y-11764057D01*
X27800231Y-11764055D01*
X27847056Y-11727609D01*
X27148568Y-11029121D01*
X27265458Y-10978349D01*
X27382739Y-10882934D01*
X27469928Y-10759415D01*
X27500354Y-10673802D01*
X28200434Y-11373882D01*
X28300731Y-11220369D01*
X28400587Y-10992717D01*
X28461612Y-10751738D01*
X28461614Y-10751729D01*
X28482141Y-10504005D01*
X28482141Y-10503994D01*
X28461614Y-10256270D01*
X28461612Y-10256261D01*
X28400587Y-10015282D01*
X28300731Y-9787630D01*
X28200434Y-9634116D01*
X27502929Y-10331622D01*
X27500116Y-10318085D01*
X27430558Y-10183844D01*
X27327362Y-10073348D01*
X27198181Y-9994791D01*
X27146997Y-9980450D01*
X27847057Y-9280390D01*
X27847056Y-9280389D01*
X27800229Y-9243943D01*
X27581614Y-9125635D01*
X27581603Y-9125630D01*
X27346493Y-9044916D01*
X27101293Y-9004000D01*
X26852707Y-9004000D01*
X26607506Y-9044916D01*
X26372396Y-9125630D01*
X26372390Y-9125632D01*
X26153761Y-9243949D01*
X26106942Y-9280388D01*
X26106942Y-9280390D01*
X26805431Y-9978878D01*
X26688542Y-10029651D01*
X26571261Y-10125066D01*
X26484072Y-10248585D01*
X26453645Y-10334198D01*
X25740417Y-9620970D01*
X25722077Y-9617590D01*
X25671120Y-9569786D01*
X25654000Y-9506916D01*
X25654000Y-9367728D01*
X25673685Y-9300689D01*
X25690319Y-9280047D01*
X25726423Y-9243943D01*
X25886638Y-9083727D01*
X25900267Y-9071950D01*
X25919530Y-9057610D01*
X25919532Y-9057606D01*
X25919534Y-9057606D01*
X25937663Y-9035999D01*
X25953113Y-9017585D01*
X25956767Y-9013599D01*
X25962591Y-9007776D01*
X25982930Y-8982052D01*
X26032302Y-8923214D01*
X26032306Y-8923205D01*
X26036274Y-8917175D01*
X26036325Y-8917208D01*
X26040372Y-8910856D01*
X26040320Y-8910824D01*
X26044112Y-8904675D01*
X26076575Y-8835058D01*
X26111036Y-8766440D01*
X26111040Y-8766433D01*
X26111042Y-8766421D01*
X26113509Y-8759646D01*
X26113567Y-8759667D01*
X26116043Y-8752546D01*
X26115986Y-8752527D01*
X26118255Y-8745680D01*
X26118256Y-8745675D01*
X26118257Y-8745673D01*
X26133791Y-8670437D01*
X26151500Y-8595721D01*
X26151500Y-8595719D01*
X26152339Y-8588548D01*
X26152398Y-8588554D01*
X26153164Y-8581055D01*
X26153105Y-8581050D01*
X26153734Y-8573856D01*
X26153690Y-8572338D01*
X26153955Y-8571323D01*
X26154364Y-8566659D01*
X26155160Y-8566728D01*
X26171411Y-8504753D01*
X26189945Y-8481054D01*
X26379683Y-8291316D01*
X26441005Y-8257834D01*
X26467362Y-8255000D01*
X35435500Y-8255000D01*
X35502539Y-8274685D01*
G37*
%TD.AperFunction*%
%TA.AperFunction,Conductor*%
G36*
X14032213Y-20845883D02*
G01*
X14051392Y-20857477D01*
X14051394Y-20857478D01*
X14171168Y-20894800D01*
X14229314Y-20933536D01*
X14257289Y-20997562D01*
X14255718Y-21038245D01*
X14255136Y-21041064D01*
X14254207Y-21045565D01*
X14253395Y-21048989D01*
X14252897Y-21051090D01*
X14218272Y-21111777D01*
X14203370Y-21124046D01*
X14115595Y-21185507D01*
X13948508Y-21352594D01*
X13818269Y-21538595D01*
X13763692Y-21582219D01*
X13694193Y-21589412D01*
X13631839Y-21557890D01*
X13615119Y-21538594D01*
X13485113Y-21352926D01*
X13485108Y-21352920D01*
X13318082Y-21185894D01*
X13219605Y-21116939D01*
X13175980Y-21062361D01*
X13168788Y-20992863D01*
X13200310Y-20930508D01*
X13253836Y-20896980D01*
X13380606Y-20857478D01*
X13390452Y-20851525D01*
X13399787Y-20845883D01*
X13463936Y-20828000D01*
X13968064Y-20828000D01*
X14032213Y-20845883D01*
G37*
%TD.AperFunction*%
%TD*%
%TA.AperFunction,Conductor*%
%TO.N,/USB_DN*%
G36*
X11779591Y-9996745D02*
G01*
X11785900Y-10003101D01*
X11786392Y-10010504D01*
X11685289Y-10396266D01*
X11679876Y-10403400D01*
X11673971Y-10405000D01*
X11442029Y-10405000D01*
X11433756Y-10401573D01*
X11430711Y-10396266D01*
X11329607Y-10010504D01*
X11330825Y-10001633D01*
X11336406Y-9996746D01*
X11553484Y-9905889D01*
X11562437Y-9905857D01*
X11779591Y-9996745D01*
G37*
%TD.AperFunction*%
%TD*%
%TA.AperFunction,Conductor*%
%TO.N,Net-(J3-Pin_2)*%
G36*
X13408043Y-1904000D02*
G01*
X13910102Y-2833246D01*
X13911019Y-2842153D01*
X13908081Y-2847080D01*
X13390080Y-3365081D01*
X13381807Y-3368508D01*
X13376246Y-3367102D01*
X12130996Y-2694310D01*
X12125347Y-2687362D01*
X12125744Y-2679550D01*
X12446001Y-1904000D01*
X12446293Y-1903293D01*
X13232298Y-1578719D01*
X13408043Y-1904000D01*
G37*
%TD.AperFunction*%
%TD*%
%TA.AperFunction,Conductor*%
%TO.N,/USB_DP*%
G36*
X12414591Y-9107745D02*
G01*
X12420900Y-9114101D01*
X12421392Y-9121504D01*
X12320289Y-9507266D01*
X12314876Y-9514400D01*
X12308971Y-9516000D01*
X12077029Y-9516000D01*
X12068756Y-9512573D01*
X12065711Y-9507266D01*
X11964607Y-9121504D01*
X11965825Y-9112633D01*
X11971406Y-9107746D01*
X12188484Y-9016889D01*
X12197437Y-9016857D01*
X12414591Y-9107745D01*
G37*
%TD.AperFunction*%
%TD*%
%TA.AperFunction,Conductor*%
%TO.N,/RST*%
G36*
X20533499Y-3269953D02*
G01*
X20575121Y-3326072D01*
X20579796Y-3395785D01*
X20546429Y-3456570D01*
X19249181Y-4753819D01*
X19187858Y-4787304D01*
X19118166Y-4782320D01*
X19062233Y-4740448D01*
X19037816Y-4674984D01*
X19037500Y-4666138D01*
X19037500Y-4223005D01*
X19057185Y-4155966D01*
X19073815Y-4135328D01*
X19407138Y-3802004D01*
X19435868Y-3780596D01*
X20399807Y-3259793D01*
X20468144Y-3245245D01*
X20533499Y-3269953D01*
G37*
%TD.AperFunction*%
%TA.AperFunction,Conductor*%
G36*
X21083000Y-1010103D02*
G01*
X20938402Y-865506D01*
X20938395Y-865501D01*
X20744834Y-729967D01*
X20744830Y-729965D01*
X20741800Y-728552D01*
X20530663Y-630097D01*
X20530659Y-630096D01*
X20530655Y-630094D01*
X20302413Y-568938D01*
X20302403Y-568936D01*
X20067001Y-548341D01*
X20066999Y-548341D01*
X19831596Y-568936D01*
X19831586Y-568938D01*
X19603344Y-630094D01*
X19603335Y-630098D01*
X19389171Y-729964D01*
X19389169Y-729965D01*
X19246123Y-830127D01*
X19179917Y-852454D01*
X19112150Y-835444D01*
X19064337Y-784495D01*
X19051000Y-728552D01*
X19051000Y-124500D01*
X19070685Y-57461D01*
X19123489Y-11706D01*
X19175000Y-500D01*
X21083000Y-500D01*
X21083000Y-1010103D01*
G37*
%TD.AperFunction*%
%TD*%
%TA.AperFunction,Conductor*%
%TO.N,Net-(J3-Pin_4)*%
G36*
X17527998Y-1904000D02*
G01*
X18119658Y-2496644D01*
X18123078Y-2504920D01*
X18119644Y-2513190D01*
X18119528Y-2513305D01*
X17270404Y-3337670D01*
X17262254Y-3340975D01*
X16530075Y-3340975D01*
X16521802Y-3337548D01*
X16518375Y-3329275D01*
X16518447Y-3327980D01*
X16677000Y-1904000D01*
X17527000Y-1903000D01*
X17527998Y-1904000D01*
G37*
%TD.AperFunction*%
%TD*%
%TA.AperFunction,Conductor*%
%TO.N,Net-(J4-Pin_6)*%
G36*
X21677750Y-20760896D02*
G01*
X22923003Y-21433689D01*
X22928652Y-21440637D01*
X22928255Y-21448449D01*
X22609562Y-22220214D01*
X22603237Y-22226553D01*
X22603214Y-22226562D01*
X21831449Y-22545255D01*
X21822494Y-22545246D01*
X21816689Y-22540003D01*
X21646339Y-22224707D01*
X21143896Y-21294751D01*
X21142980Y-21285846D01*
X21145916Y-21280921D01*
X21663920Y-20762917D01*
X21672192Y-20759491D01*
X21677750Y-20760896D01*
G37*
%TD.AperFunction*%
%TD*%
%TA.AperFunction,Conductor*%
%TO.N,Net-(J3-Pin_8)*%
G36*
X28648539Y-20185D02*
G01*
X28694294Y-72989D01*
X28705500Y-124500D01*
X28705500Y-730914D01*
X28685815Y-797953D01*
X28633011Y-843708D01*
X28563853Y-853652D01*
X28510376Y-832489D01*
X28364578Y-730400D01*
X28150492Y-630570D01*
X28150486Y-630567D01*
X27937000Y-573364D01*
X27937000Y-1468498D01*
X27829315Y-1419320D01*
X27722763Y-1404000D01*
X27651237Y-1404000D01*
X27544685Y-1419320D01*
X27437000Y-1468498D01*
X27437000Y-573364D01*
X27436999Y-573364D01*
X27223513Y-630567D01*
X27223507Y-630570D01*
X27009422Y-730399D01*
X27009420Y-730400D01*
X26863623Y-832489D01*
X26797417Y-854816D01*
X26729650Y-837806D01*
X26681837Y-786858D01*
X26668500Y-730914D01*
X26668500Y-124500D01*
X26688185Y-57461D01*
X26740989Y-11706D01*
X26792500Y-500D01*
X28581500Y-500D01*
X28648539Y-20185D01*
G37*
%TD.AperFunction*%
%TD*%
M02*
