%TF.GenerationSoftware,KiCad,Pcbnew,7.0.7*%
%TF.CreationDate,2023-12-16T19:35:10-08:00*%
%TF.ProjectId,laser_crosshair_pwm_gen_board,6c617365-725f-4637-926f-737368616972,rev?*%
%TF.SameCoordinates,PX791ddc0PY6d01460*%
%TF.FileFunction,Legend,Top*%
%TF.FilePolarity,Positive*%
%FSLAX46Y46*%
G04 Gerber Fmt 4.6, Leading zero omitted, Abs format (unit mm)*
G04 Created by KiCad (PCBNEW 7.0.7) date 2023-12-16 19:35:10*
%MOMM*%
%LPD*%
G01*
G04 APERTURE LIST*
%ADD10C,0.150000*%
%ADD11C,0.120000*%
G04 APERTURE END LIST*
D10*
X8913333Y-5374819D02*
X8580000Y-4898628D01*
X8341905Y-5374819D02*
X8341905Y-4374819D01*
X8341905Y-4374819D02*
X8722857Y-4374819D01*
X8722857Y-4374819D02*
X8818095Y-4422438D01*
X8818095Y-4422438D02*
X8865714Y-4470057D01*
X8865714Y-4470057D02*
X8913333Y-4565295D01*
X8913333Y-4565295D02*
X8913333Y-4708152D01*
X8913333Y-4708152D02*
X8865714Y-4803390D01*
X8865714Y-4803390D02*
X8818095Y-4851009D01*
X8818095Y-4851009D02*
X8722857Y-4898628D01*
X8722857Y-4898628D02*
X8341905Y-4898628D01*
X9770476Y-4708152D02*
X9770476Y-5374819D01*
X9532381Y-4327200D02*
X9294286Y-5041485D01*
X9294286Y-5041485D02*
X9913333Y-5041485D01*
X5358333Y-5374819D02*
X5025000Y-4898628D01*
X4786905Y-5374819D02*
X4786905Y-4374819D01*
X4786905Y-4374819D02*
X5167857Y-4374819D01*
X5167857Y-4374819D02*
X5263095Y-4422438D01*
X5263095Y-4422438D02*
X5310714Y-4470057D01*
X5310714Y-4470057D02*
X5358333Y-4565295D01*
X5358333Y-4565295D02*
X5358333Y-4708152D01*
X5358333Y-4708152D02*
X5310714Y-4803390D01*
X5310714Y-4803390D02*
X5263095Y-4851009D01*
X5263095Y-4851009D02*
X5167857Y-4898628D01*
X5167857Y-4898628D02*
X4786905Y-4898628D01*
X5691667Y-4374819D02*
X6310714Y-4374819D01*
X6310714Y-4374819D02*
X5977381Y-4755771D01*
X5977381Y-4755771D02*
X6120238Y-4755771D01*
X6120238Y-4755771D02*
X6215476Y-4803390D01*
X6215476Y-4803390D02*
X6263095Y-4851009D01*
X6263095Y-4851009D02*
X6310714Y-4946247D01*
X6310714Y-4946247D02*
X6310714Y-5184342D01*
X6310714Y-5184342D02*
X6263095Y-5279580D01*
X6263095Y-5279580D02*
X6215476Y-5327200D01*
X6215476Y-5327200D02*
X6120238Y-5374819D01*
X6120238Y-5374819D02*
X5834524Y-5374819D01*
X5834524Y-5374819D02*
X5739286Y-5327200D01*
X5739286Y-5327200D02*
X5691667Y-5279580D01*
X7773333Y-10109580D02*
X7725714Y-10157200D01*
X7725714Y-10157200D02*
X7582857Y-10204819D01*
X7582857Y-10204819D02*
X7487619Y-10204819D01*
X7487619Y-10204819D02*
X7344762Y-10157200D01*
X7344762Y-10157200D02*
X7249524Y-10061961D01*
X7249524Y-10061961D02*
X7201905Y-9966723D01*
X7201905Y-9966723D02*
X7154286Y-9776247D01*
X7154286Y-9776247D02*
X7154286Y-9633390D01*
X7154286Y-9633390D02*
X7201905Y-9442914D01*
X7201905Y-9442914D02*
X7249524Y-9347676D01*
X7249524Y-9347676D02*
X7344762Y-9252438D01*
X7344762Y-9252438D02*
X7487619Y-9204819D01*
X7487619Y-9204819D02*
X7582857Y-9204819D01*
X7582857Y-9204819D02*
X7725714Y-9252438D01*
X7725714Y-9252438D02*
X7773333Y-9300057D01*
X8630476Y-9538152D02*
X8630476Y-10204819D01*
X8392381Y-9157200D02*
X8154286Y-9871485D01*
X8154286Y-9871485D02*
X8773333Y-9871485D01*
X14909580Y-5246666D02*
X14957200Y-5294285D01*
X14957200Y-5294285D02*
X15004819Y-5437142D01*
X15004819Y-5437142D02*
X15004819Y-5532380D01*
X15004819Y-5532380D02*
X14957200Y-5675237D01*
X14957200Y-5675237D02*
X14861961Y-5770475D01*
X14861961Y-5770475D02*
X14766723Y-5818094D01*
X14766723Y-5818094D02*
X14576247Y-5865713D01*
X14576247Y-5865713D02*
X14433390Y-5865713D01*
X14433390Y-5865713D02*
X14242914Y-5818094D01*
X14242914Y-5818094D02*
X14147676Y-5770475D01*
X14147676Y-5770475D02*
X14052438Y-5675237D01*
X14052438Y-5675237D02*
X14004819Y-5532380D01*
X14004819Y-5532380D02*
X14004819Y-5437142D01*
X14004819Y-5437142D02*
X14052438Y-5294285D01*
X14052438Y-5294285D02*
X14100057Y-5246666D01*
X14004819Y-4913332D02*
X14004819Y-4294285D01*
X14004819Y-4294285D02*
X14385771Y-4627618D01*
X14385771Y-4627618D02*
X14385771Y-4484761D01*
X14385771Y-4484761D02*
X14433390Y-4389523D01*
X14433390Y-4389523D02*
X14481009Y-4341904D01*
X14481009Y-4341904D02*
X14576247Y-4294285D01*
X14576247Y-4294285D02*
X14814342Y-4294285D01*
X14814342Y-4294285D02*
X14909580Y-4341904D01*
X14909580Y-4341904D02*
X14957200Y-4389523D01*
X14957200Y-4389523D02*
X15004819Y-4484761D01*
X15004819Y-4484761D02*
X15004819Y-4770475D01*
X15004819Y-4770475D02*
X14957200Y-4865713D01*
X14957200Y-4865713D02*
X14909580Y-4913332D01*
X4024333Y-10109580D02*
X3976714Y-10157200D01*
X3976714Y-10157200D02*
X3833857Y-10204819D01*
X3833857Y-10204819D02*
X3738619Y-10204819D01*
X3738619Y-10204819D02*
X3595762Y-10157200D01*
X3595762Y-10157200D02*
X3500524Y-10061961D01*
X3500524Y-10061961D02*
X3452905Y-9966723D01*
X3452905Y-9966723D02*
X3405286Y-9776247D01*
X3405286Y-9776247D02*
X3405286Y-9633390D01*
X3405286Y-9633390D02*
X3452905Y-9442914D01*
X3452905Y-9442914D02*
X3500524Y-9347676D01*
X3500524Y-9347676D02*
X3595762Y-9252438D01*
X3595762Y-9252438D02*
X3738619Y-9204819D01*
X3738619Y-9204819D02*
X3833857Y-9204819D01*
X3833857Y-9204819D02*
X3976714Y-9252438D01*
X3976714Y-9252438D02*
X4024333Y-9300057D01*
X4929095Y-9204819D02*
X4452905Y-9204819D01*
X4452905Y-9204819D02*
X4405286Y-9681009D01*
X4405286Y-9681009D02*
X4452905Y-9633390D01*
X4452905Y-9633390D02*
X4548143Y-9585771D01*
X4548143Y-9585771D02*
X4786238Y-9585771D01*
X4786238Y-9585771D02*
X4881476Y-9633390D01*
X4881476Y-9633390D02*
X4929095Y-9681009D01*
X4929095Y-9681009D02*
X4976714Y-9776247D01*
X4976714Y-9776247D02*
X4976714Y-10014342D01*
X4976714Y-10014342D02*
X4929095Y-10109580D01*
X4929095Y-10109580D02*
X4881476Y-10157200D01*
X4881476Y-10157200D02*
X4786238Y-10204819D01*
X4786238Y-10204819D02*
X4548143Y-10204819D01*
X4548143Y-10204819D02*
X4452905Y-10157200D01*
X4452905Y-10157200D02*
X4405286Y-10109580D01*
D11*
%TO.C,R4*%
X8842742Y-5827500D02*
X9317258Y-5827500D01*
X8842742Y-6872500D02*
X9317258Y-6872500D01*
%TO.C,R3*%
X5287742Y-5827500D02*
X5762258Y-5827500D01*
X5287742Y-6872500D02*
X5762258Y-6872500D01*
%TO.C,C4*%
X7678748Y-10695000D02*
X8201252Y-10695000D01*
X7678748Y-12165000D02*
X8201252Y-12165000D01*
%TO.C,C3*%
X13610000Y-4368748D02*
X13610000Y-5791252D01*
X11790000Y-4368748D02*
X11790000Y-5791252D01*
%TO.C,C5*%
X3929748Y-10695000D02*
X4452252Y-10695000D01*
X3929748Y-12165000D02*
X4452252Y-12165000D01*
%TD*%
M02*
