<?xml version="1.0" standalone="no"?>
 <!DOCTYPE svg PUBLIC "-//W3C//DTD SVG 1.1//EN" 
 "http://www.w3.org/Graphics/SVG/1.1/DTD/svg11.dtd"> 
<svg
  xmlns:svg="http://www.w3.org/2000/svg"
  xmlns="http://www.w3.org/2000/svg"
  xmlns:xlink="http://www.w3.org/1999/xlink"
  version="1.1"
  width="297.0022mm" height="210.0072mm" viewBox="0.0000 0.0000 297.0022 210.0072">
<title>SVG Image created as laser_crosshair_pwm_gen_board-PTH-drl_map.svg date 2023/12/16 19:35:21 </title>
  <desc>Image generated by PCBNEW </desc>
<g style="fill:#000000; fill-opacity:1.0000;stroke:#000000; stroke-opacity:1.0000;
stroke-linecap:round; stroke-linejoin:round;"
 transform="translate(0 0) scale(1 1)">
</g>
<g style="fill:#000000; fill-opacity:0.0; 
stroke:#000000; stroke-width:0.0000; stroke-opacity:1; 
stroke-linecap:round; stroke-linejoin:round;">
</g>
<g style="fill:#000000; fill-opacity:0.0; 
stroke:#000000; stroke-width:0.3000; stroke-opacity:1; 
stroke-linecap:round; stroke-linejoin:round;">
<path style="fill:#000000; fill-opacity:0.0; 
stroke:#000000; stroke-width:0.3000; stroke-opacity:1; 
stroke-linecap:round; stroke-linejoin:round;fill:none"
d="M 125.6411,42.0472
171.3611,42.0472
171.3611,83.9572
125.6411,83.9572
Z" /> 
</g>
<g style="fill:#000000; fill-opacity:0.0; 
stroke:#000000; stroke-width:0.6000; stroke-opacity:1; 
stroke-linecap:round; stroke-linejoin:round;">
</g>
<g style="fill:#000000; fill-opacity:0.0; 
stroke:#000000; stroke-width:0.3000; stroke-opacity:1; 
stroke-linecap:round; stroke-linejoin:round;">
<path d="M135.5711 67.2172
L138.5711 70.2172
" />
<path d="M138.5711 67.2172
L135.5711 70.2172
" />
<path d="M143.1911 67.2172
L146.1911 70.2172
" />
<path d="M146.1911 67.2172
L143.1911 70.2172
" />
<path d="M150.8111 67.2172
L153.8111 70.2172
" />
<path d="M153.8111 67.2172
L150.8111 70.2172
" />
</g>
<g style="fill:#000000; fill-opacity:0.0; 
stroke:#000000; stroke-width:0.3300; stroke-opacity:1; 
stroke-linecap:round; stroke-linejoin:round;">
<circle cx="135.1661" cy="53.4772" r="1.6500" /> 
<circle cx="142.7861" cy="53.4772" r="1.6500" /> 
<circle cx="150.4061" cy="53.4772" r="1.6500" /> 
</g>
<g style="fill:#000000; fill-opacity:0.0; 
stroke:#000000; stroke-width:0.6000; stroke-opacity:1; 
stroke-linecap:round; stroke-linejoin:round;">
</g>
<g style="fill:#000000; fill-opacity:0.0; 
stroke:#000000; stroke-width:0.2000; stroke-opacity:1; 
stroke-linecap:round; stroke-linejoin:round;">
<text x="127.4911" y="87.3072"
textLength="14.8667" font-size="2.6667" lengthAdjust="spacingAndGlyphs"
text-anchor="start" opacity="0">Drill Map:</text>
<g class="stroked-text"><desc>Drill Map:</desc>
<path d="M128.0989 87.2220
L128.0989 85.2220
" />
<path d="M128.0989 85.2220
L128.5751 85.2220
" />
<path d="M128.5751 85.2220
L128.8608 85.3172
" />
<path d="M128.8608 85.3172
L129.0512 85.5077
" />
<path d="M129.0512 85.5077
L129.1465 85.6982
" />
<path d="M129.1465 85.6982
L129.2417 86.0791
" />
<path d="M129.2417 86.0791
L129.2417 86.3649
" />
<path d="M129.2417 86.3649
L129.1465 86.7458
" />
<path d="M129.1465 86.7458
L129.0512 86.9363
" />
<path d="M129.0512 86.9363
L128.8608 87.1268
" />
<path d="M128.8608 87.1268
L128.5751 87.2220
" />
<path d="M128.5751 87.2220
L128.0989 87.2220
" />
<path d="M130.0989 87.2220
L130.0989 85.8887
" />
<path d="M130.0989 86.2696
L130.1941 86.0791
" />
<path d="M130.1941 86.0791
L130.2893 85.9839
" />
<path d="M130.2893 85.9839
L130.4798 85.8887
" />
<path d="M130.4798 85.8887
L130.6703 85.8887
" />
<path d="M131.3370 87.2220
L131.3370 85.8887
" />
<path d="M131.3370 85.2220
L131.2417 85.3172
" />
<path d="M131.2417 85.3172
L131.3370 85.4125
" />
<path d="M131.3370 85.4125
L131.4322 85.3172
" />
<path d="M131.4322 85.3172
L131.3370 85.2220
" />
<path d="M131.3370 85.2220
L131.3370 85.4125
" />
<path d="M132.5751 87.2220
L132.3846 87.1268
" />
<path d="M132.3846 87.1268
L132.2893 86.9363
" />
<path d="M132.2893 86.9363
L132.2893 85.2220
" />
<path d="M133.6227 87.2220
L133.4322 87.1268
" />
<path d="M133.4322 87.1268
L133.3370 86.9363
" />
<path d="M133.3370 86.9363
L133.3370 85.2220
" />
<path d="M135.9084 87.2220
L135.9084 85.2220
" />
<path d="M135.9084 85.2220
L136.5751 86.6506
" />
<path d="M136.5751 86.6506
L137.2417 85.2220
" />
<path d="M137.2417 85.2220
L137.2417 87.2220
" />
<path d="M139.0513 87.2220
L139.0513 86.1744
" />
<path d="M139.0513 86.1744
L138.9560 85.9839
" />
<path d="M138.9560 85.9839
L138.7655 85.8887
" />
<path d="M138.7655 85.8887
L138.3846 85.8887
" />
<path d="M138.3846 85.8887
L138.1941 85.9839
" />
<path d="M139.0513 87.1268
L138.8608 87.2220
" />
<path d="M138.8608 87.2220
L138.3846 87.2220
" />
<path d="M138.3846 87.2220
L138.1941 87.1268
" />
<path d="M138.1941 87.1268
L138.0989 86.9363
" />
<path d="M138.0989 86.9363
L138.0989 86.7458
" />
<path d="M138.0989 86.7458
L138.1941 86.5553
" />
<path d="M138.1941 86.5553
L138.3846 86.4601
" />
<path d="M138.3846 86.4601
L138.8608 86.4601
" />
<path d="M138.8608 86.4601
L139.0513 86.3649
" />
<path d="M140.0036 85.8887
L140.0036 87.8887
" />
<path d="M140.0036 85.9839
L140.1941 85.8887
" />
<path d="M140.1941 85.8887
L140.5751 85.8887
" />
<path d="M140.5751 85.8887
L140.7655 85.9839
" />
<path d="M140.7655 85.9839
L140.8608 86.0791
" />
<path d="M140.8608 86.0791
L140.9560 86.2696
" />
<path d="M140.9560 86.2696
L140.9560 86.8410
" />
<path d="M140.9560 86.8410
L140.8608 87.0315
" />
<path d="M140.8608 87.0315
L140.7655 87.1268
" />
<path d="M140.7655 87.1268
L140.5751 87.2220
" />
<path d="M140.5751 87.2220
L140.1941 87.2220
" />
<path d="M140.1941 87.2220
L140.0036 87.1268
" />
<path d="M141.8132 87.0315
L141.9084 87.1268
" />
<path d="M141.9084 87.1268
L141.8132 87.2220
" />
<path d="M141.8132 87.2220
L141.7179 87.1268
" />
<path d="M141.7179 87.1268
L141.8132 87.0315
" />
<path d="M141.8132 87.0315
L141.8132 87.2220
" />
<path d="M141.8132 85.9839
L141.9084 86.0791
" />
<path d="M141.9084 86.0791
L141.8132 86.1744
" />
<path d="M141.8132 86.1744
L141.7179 86.0791
" />
<path d="M141.7179 86.0791
L141.8132 85.9839
" />
<path d="M141.8132 85.9839
L141.8132 86.1744
" />
</g></g>
<g style="fill:#000000; fill-opacity:0.0; 
stroke:#000000; stroke-width:0.2000; stroke-opacity:1; 
stroke-linecap:round; stroke-linejoin:round;">
<path d="M123.4911 89.5072
L125.4911 91.5072
" />
<path d="M125.4911 89.5072
L123.4911 91.5072
" />
</g>
<g style="fill:#000000; fill-opacity:0.0; 
stroke:#000000; stroke-width:0.6000; stroke-opacity:1; 
stroke-linecap:round; stroke-linejoin:round;">
</g>
<g style="fill:#000000; fill-opacity:0.0; 
stroke:#000000; stroke-width:0.2000; stroke-opacity:1; 
stroke-linecap:round; stroke-linejoin:round;">
<text x="127.4911" y="91.5072"
textLength="46.8667" font-size="2.6667" lengthAdjust="spacingAndGlyphs"
text-anchor="start" opacity="0">1.000mm / 0.0394" (3 holes)</text>
<g class="stroked-text"><desc>1.000mm / 0.0394" (3 holes)</desc>
<path d="M129.1465 91.4220
L128.0036 91.4220
" />
<path d="M128.5751 91.4220
L128.5751 89.4220
" />
<path d="M128.5751 89.4220
L128.3846 89.7077
" />
<path d="M128.3846 89.7077
L128.1941 89.8982
" />
<path d="M128.1941 89.8982
L128.0036 89.9934
" />
<path d="M130.0036 91.2315
L130.0989 91.3268
" />
<path d="M130.0989 91.3268
L130.0036 91.4220
" />
<path d="M130.0036 91.4220
L129.9084 91.3268
" />
<path d="M129.9084 91.3268
L130.0036 91.2315
" />
<path d="M130.0036 91.2315
L130.0036 91.4220
" />
<path d="M131.3370 89.4220
L131.5274 89.4220
" />
<path d="M131.5274 89.4220
L131.7179 89.5172
" />
<path d="M131.7179 89.5172
L131.8132 89.6125
" />
<path d="M131.8132 89.6125
L131.9084 89.8030
" />
<path d="M131.9084 89.8030
L132.0036 90.1839
" />
<path d="M132.0036 90.1839
L132.0036 90.6601
" />
<path d="M132.0036 90.6601
L131.9084 91.0410
" />
<path d="M131.9084 91.0410
L131.8132 91.2315
" />
<path d="M131.8132 91.2315
L131.7179 91.3268
" />
<path d="M131.7179 91.3268
L131.5274 91.4220
" />
<path d="M131.5274 91.4220
L131.3370 91.4220
" />
<path d="M131.3370 91.4220
L131.1465 91.3268
" />
<path d="M131.1465 91.3268
L131.0512 91.2315
" />
<path d="M131.0512 91.2315
L130.9560 91.0410
" />
<path d="M130.9560 91.0410
L130.8608 90.6601
" />
<path d="M130.8608 90.6601
L130.8608 90.1839
" />
<path d="M130.8608 90.1839
L130.9560 89.8030
" />
<path d="M130.9560 89.8030
L131.0512 89.6125
" />
<path d="M131.0512 89.6125
L131.1465 89.5172
" />
<path d="M131.1465 89.5172
L131.3370 89.4220
" />
<path d="M133.2417 89.4220
L133.4322 89.4220
" />
<path d="M133.4322 89.4220
L133.6227 89.5172
" />
<path d="M133.6227 89.5172
L133.7179 89.6125
" />
<path d="M133.7179 89.6125
L133.8132 89.8030
" />
<path d="M133.8132 89.8030
L133.9084 90.1839
" />
<path d="M133.9084 90.1839
L133.9084 90.6601
" />
<path d="M133.9084 90.6601
L133.8132 91.0410
" />
<path d="M133.8132 91.0410
L133.7179 91.2315
" />
<path d="M133.7179 91.2315
L133.6227 91.3268
" />
<path d="M133.6227 91.3268
L133.4322 91.4220
" />
<path d="M133.4322 91.4220
L133.2417 91.4220
" />
<path d="M133.2417 91.4220
L133.0513 91.3268
" />
<path d="M133.0513 91.3268
L132.9560 91.2315
" />
<path d="M132.9560 91.2315
L132.8608 91.0410
" />
<path d="M132.8608 91.0410
L132.7655 90.6601
" />
<path d="M132.7655 90.6601
L132.7655 90.1839
" />
<path d="M132.7655 90.1839
L132.8608 89.8030
" />
<path d="M132.8608 89.8030
L132.9560 89.6125
" />
<path d="M132.9560 89.6125
L133.0513 89.5172
" />
<path d="M133.0513 89.5172
L133.2417 89.4220
" />
<path d="M135.1465 89.4220
L135.3370 89.4220
" />
<path d="M135.3370 89.4220
L135.5274 89.5172
" />
<path d="M135.5274 89.5172
L135.6227 89.6125
" />
<path d="M135.6227 89.6125
L135.7179 89.8030
" />
<path d="M135.7179 89.8030
L135.8132 90.1839
" />
<path d="M135.8132 90.1839
L135.8132 90.6601
" />
<path d="M135.8132 90.6601
L135.7179 91.0410
" />
<path d="M135.7179 91.0410
L135.6227 91.2315
" />
<path d="M135.6227 91.2315
L135.5274 91.3268
" />
<path d="M135.5274 91.3268
L135.3370 91.4220
" />
<path d="M135.3370 91.4220
L135.1465 91.4220
" />
<path d="M135.1465 91.4220
L134.9560 91.3268
" />
<path d="M134.9560 91.3268
L134.8608 91.2315
" />
<path d="M134.8608 91.2315
L134.7655 91.0410
" />
<path d="M134.7655 91.0410
L134.6703 90.6601
" />
<path d="M134.6703 90.6601
L134.6703 90.1839
" />
<path d="M134.6703 90.1839
L134.7655 89.8030
" />
<path d="M134.7655 89.8030
L134.8608 89.6125
" />
<path d="M134.8608 89.6125
L134.9560 89.5172
" />
<path d="M134.9560 89.5172
L135.1465 89.4220
" />
<path d="M136.6703 91.4220
L136.6703 90.0887
" />
<path d="M136.6703 90.2791
L136.7655 90.1839
" />
<path d="M136.7655 90.1839
L136.9560 90.0887
" />
<path d="M136.9560 90.0887
L137.2417 90.0887
" />
<path d="M137.2417 90.0887
L137.4322 90.1839
" />
<path d="M137.4322 90.1839
L137.5274 90.3744
" />
<path d="M137.5274 90.3744
L137.5274 91.4220
" />
<path d="M137.5274 90.3744
L137.6227 90.1839
" />
<path d="M137.6227 90.1839
L137.8132 90.0887
" />
<path d="M137.8132 90.0887
L138.0989 90.0887
" />
<path d="M138.0989 90.0887
L138.2893 90.1839
" />
<path d="M138.2893 90.1839
L138.3846 90.3744
" />
<path d="M138.3846 90.3744
L138.3846 91.4220
" />
<path d="M139.3370 91.4220
L139.3370 90.0887
" />
<path d="M139.3370 90.2791
L139.4322 90.1839
" />
<path d="M139.4322 90.1839
L139.6227 90.0887
" />
<path d="M139.6227 90.0887
L139.9084 90.0887
" />
<path d="M139.9084 90.0887
L140.0989 90.1839
" />
<path d="M140.0989 90.1839
L140.1941 90.3744
" />
<path d="M140.1941 90.3744
L140.1941 91.4220
" />
<path d="M140.1941 90.3744
L140.2893 90.1839
" />
<path d="M140.2893 90.1839
L140.4798 90.0887
" />
<path d="M140.4798 90.0887
L140.7655 90.0887
" />
<path d="M140.7655 90.0887
L140.9560 90.1839
" />
<path d="M140.9560 90.1839
L141.0513 90.3744
" />
<path d="M141.0513 90.3744
L141.0513 91.4220
" />
<path d="M144.9560 89.3268
L143.2417 91.8982
" />
<path d="M147.5274 89.4220
L147.7179 89.4220
" />
<path d="M147.7179 89.4220
L147.9084 89.5172
" />
<path d="M147.9084 89.5172
L148.0036 89.6125
" />
<path d="M148.0036 89.6125
L148.0989 89.8030
" />
<path d="M148.0989 89.8030
L148.1941 90.1839
" />
<path d="M148.1941 90.1839
L148.1941 90.6601
" />
<path d="M148.1941 90.6601
L148.0989 91.0410
" />
<path d="M148.0989 91.0410
L148.0036 91.2315
" />
<path d="M148.0036 91.2315
L147.9084 91.3268
" />
<path d="M147.9084 91.3268
L147.7179 91.4220
" />
<path d="M147.7179 91.4220
L147.5274 91.4220
" />
<path d="M147.5274 91.4220
L147.3370 91.3268
" />
<path d="M147.3370 91.3268
L147.2417 91.2315
" />
<path d="M147.2417 91.2315
L147.1465 91.0410
" />
<path d="M147.1465 91.0410
L147.0513 90.6601
" />
<path d="M147.0513 90.6601
L147.0513 90.1839
" />
<path d="M147.0513 90.1839
L147.1465 89.8030
" />
<path d="M147.1465 89.8030
L147.2417 89.6125
" />
<path d="M147.2417 89.6125
L147.3370 89.5172
" />
<path d="M147.3370 89.5172
L147.5274 89.4220
" />
<path d="M149.0513 91.2315
L149.1465 91.3268
" />
<path d="M149.1465 91.3268
L149.0513 91.4220
" />
<path d="M149.0513 91.4220
L148.9560 91.3268
" />
<path d="M148.9560 91.3268
L149.0513 91.2315
" />
<path d="M149.0513 91.2315
L149.0513 91.4220
" />
<path d="M150.3846 89.4220
L150.5751 89.4220
" />
<path d="M150.5751 89.4220
L150.7655 89.5172
" />
<path d="M150.7655 89.5172
L150.8608 89.6125
" />
<path d="M150.8608 89.6125
L150.9560 89.8030
" />
<path d="M150.9560 89.8030
L151.0513 90.1839
" />
<path d="M151.0513 90.1839
L151.0513 90.6601
" />
<path d="M151.0513 90.6601
L150.9560 91.0410
" />
<path d="M150.9560 91.0410
L150.8608 91.2315
" />
<path d="M150.8608 91.2315
L150.7655 91.3268
" />
<path d="M150.7655 91.3268
L150.5751 91.4220
" />
<path d="M150.5751 91.4220
L150.3846 91.4220
" />
<path d="M150.3846 91.4220
L150.1941 91.3268
" />
<path d="M150.1941 91.3268
L150.0989 91.2315
" />
<path d="M150.0989 91.2315
L150.0036 91.0410
" />
<path d="M150.0036 91.0410
L149.9084 90.6601
" />
<path d="M149.9084 90.6601
L149.9084 90.1839
" />
<path d="M149.9084 90.1839
L150.0036 89.8030
" />
<path d="M150.0036 89.8030
L150.0989 89.6125
" />
<path d="M150.0989 89.6125
L150.1941 89.5172
" />
<path d="M150.1941 89.5172
L150.3846 89.4220
" />
<path d="M151.7179 89.4220
L152.9560 89.4220
" />
<path d="M152.9560 89.4220
L152.2894 90.1839
" />
<path d="M152.2894 90.1839
L152.5751 90.1839
" />
<path d="M152.5751 90.1839
L152.7655 90.2791
" />
<path d="M152.7655 90.2791
L152.8608 90.3744
" />
<path d="M152.8608 90.3744
L152.9560 90.5649
" />
<path d="M152.9560 90.5649
L152.9560 91.0410
" />
<path d="M152.9560 91.0410
L152.8608 91.2315
" />
<path d="M152.8608 91.2315
L152.7655 91.3268
" />
<path d="M152.7655 91.3268
L152.5751 91.4220
" />
<path d="M152.5751 91.4220
L152.0036 91.4220
" />
<path d="M152.0036 91.4220
L151.8132 91.3268
" />
<path d="M151.8132 91.3268
L151.7179 91.2315
" />
<path d="M153.9084 91.4220
L154.2894 91.4220
" />
<path d="M154.2894 91.4220
L154.4798 91.3268
" />
<path d="M154.4798 91.3268
L154.5751 91.2315
" />
<path d="M154.5751 91.2315
L154.7655 90.9458
" />
<path d="M154.7655 90.9458
L154.8608 90.5649
" />
<path d="M154.8608 90.5649
L154.8608 89.8030
" />
<path d="M154.8608 89.8030
L154.7655 89.6125
" />
<path d="M154.7655 89.6125
L154.6703 89.5172
" />
<path d="M154.6703 89.5172
L154.4798 89.4220
" />
<path d="M154.4798 89.4220
L154.0989 89.4220
" />
<path d="M154.0989 89.4220
L153.9084 89.5172
" />
<path d="M153.9084 89.5172
L153.8132 89.6125
" />
<path d="M153.8132 89.6125
L153.7179 89.8030
" />
<path d="M153.7179 89.8030
L153.7179 90.2791
" />
<path d="M153.7179 90.2791
L153.8132 90.4696
" />
<path d="M153.8132 90.4696
L153.9084 90.5649
" />
<path d="M153.9084 90.5649
L154.0989 90.6601
" />
<path d="M154.0989 90.6601
L154.4798 90.6601
" />
<path d="M154.4798 90.6601
L154.6703 90.5649
" />
<path d="M154.6703 90.5649
L154.7655 90.4696
" />
<path d="M154.7655 90.4696
L154.8608 90.2791
" />
<path d="M156.5751 90.0887
L156.5751 91.4220
" />
<path d="M156.0989 89.3268
L155.6227 90.7553
" />
<path d="M155.6227 90.7553
L156.8608 90.7553
" />
<path d="M157.5275 89.4220
L157.5275 89.8030
" />
<path d="M158.2894 89.4220
L158.2894 89.8030
" />
<path d="M161.2417 92.1839
L161.1465 92.0887
" />
<path d="M161.1465 92.0887
L160.9560 91.8030
" />
<path d="M160.9560 91.8030
L160.8608 91.6125
" />
<path d="M160.8608 91.6125
L160.7656 91.3268
" />
<path d="M160.7656 91.3268
L160.6703 90.8506
" />
<path d="M160.6703 90.8506
L160.6703 90.4696
" />
<path d="M160.6703 90.4696
L160.7656 89.9934
" />
<path d="M160.7656 89.9934
L160.8608 89.7077
" />
<path d="M160.8608 89.7077
L160.9560 89.5172
" />
<path d="M160.9560 89.5172
L161.1465 89.2315
" />
<path d="M161.1465 89.2315
L161.2417 89.1363
" />
<path d="M161.8132 89.4220
L163.0513 89.4220
" />
<path d="M163.0513 89.4220
L162.3846 90.1839
" />
<path d="M162.3846 90.1839
L162.6703 90.1839
" />
<path d="M162.6703 90.1839
L162.8608 90.2791
" />
<path d="M162.8608 90.2791
L162.9560 90.3744
" />
<path d="M162.9560 90.3744
L163.0513 90.5649
" />
<path d="M163.0513 90.5649
L163.0513 91.0410
" />
<path d="M163.0513 91.0410
L162.9560 91.2315
" />
<path d="M162.9560 91.2315
L162.8608 91.3268
" />
<path d="M162.8608 91.3268
L162.6703 91.4220
" />
<path d="M162.6703 91.4220
L162.0989 91.4220
" />
<path d="M162.0989 91.4220
L161.9084 91.3268
" />
<path d="M161.9084 91.3268
L161.8132 91.2315
" />
<path d="M165.4322 91.4220
L165.4322 89.4220
" />
<path d="M166.2894 91.4220
L166.2894 90.3744
" />
<path d="M166.2894 90.3744
L166.1941 90.1839
" />
<path d="M166.1941 90.1839
L166.0036 90.0887
" />
<path d="M166.0036 90.0887
L165.7179 90.0887
" />
<path d="M165.7179 90.0887
L165.5275 90.1839
" />
<path d="M165.5275 90.1839
L165.4322 90.2791
" />
<path d="M167.5275 91.4220
L167.3370 91.3268
" />
<path d="M167.3370 91.3268
L167.2417 91.2315
" />
<path d="M167.2417 91.2315
L167.1465 91.0410
" />
<path d="M167.1465 91.0410
L167.1465 90.4696
" />
<path d="M167.1465 90.4696
L167.2417 90.2791
" />
<path d="M167.2417 90.2791
L167.3370 90.1839
" />
<path d="M167.3370 90.1839
L167.5275 90.0887
" />
<path d="M167.5275 90.0887
L167.8132 90.0887
" />
<path d="M167.8132 90.0887
L168.0037 90.1839
" />
<path d="M168.0037 90.1839
L168.0989 90.2791
" />
<path d="M168.0989 90.2791
L168.1941 90.4696
" />
<path d="M168.1941 90.4696
L168.1941 91.0410
" />
<path d="M168.1941 91.0410
L168.0989 91.2315
" />
<path d="M168.0989 91.2315
L168.0037 91.3268
" />
<path d="M168.0037 91.3268
L167.8132 91.4220
" />
<path d="M167.8132 91.4220
L167.5275 91.4220
" />
<path d="M169.3370 91.4220
L169.1465 91.3268
" />
<path d="M169.1465 91.3268
L169.0513 91.1363
" />
<path d="M169.0513 91.1363
L169.0513 89.4220
" />
<path d="M170.8608 91.3268
L170.6703 91.4220
" />
<path d="M170.6703 91.4220
L170.2894 91.4220
" />
<path d="M170.2894 91.4220
L170.0989 91.3268
" />
<path d="M170.0989 91.3268
L170.0037 91.1363
" />
<path d="M170.0037 91.1363
L170.0037 90.3744
" />
<path d="M170.0037 90.3744
L170.0989 90.1839
" />
<path d="M170.0989 90.1839
L170.2894 90.0887
" />
<path d="M170.2894 90.0887
L170.6703 90.0887
" />
<path d="M170.6703 90.0887
L170.8608 90.1839
" />
<path d="M170.8608 90.1839
L170.9560 90.3744
" />
<path d="M170.9560 90.3744
L170.9560 90.5649
" />
<path d="M170.9560 90.5649
L170.0037 90.7553
" />
<path d="M171.7179 91.3268
L171.9084 91.4220
" />
<path d="M171.9084 91.4220
L172.2894 91.4220
" />
<path d="M172.2894 91.4220
L172.4798 91.3268
" />
<path d="M172.4798 91.3268
L172.5751 91.1363
" />
<path d="M172.5751 91.1363
L172.5751 91.0410
" />
<path d="M172.5751 91.0410
L172.4798 90.8506
" />
<path d="M172.4798 90.8506
L172.2894 90.7553
" />
<path d="M172.2894 90.7553
L172.0037 90.7553
" />
<path d="M172.0037 90.7553
L171.8132 90.6601
" />
<path d="M171.8132 90.6601
L171.7179 90.4696
" />
<path d="M171.7179 90.4696
L171.7179 90.3744
" />
<path d="M171.7179 90.3744
L171.8132 90.1839
" />
<path d="M171.8132 90.1839
L172.0037 90.0887
" />
<path d="M172.0037 90.0887
L172.2894 90.0887
" />
<path d="M172.2894 90.0887
L172.4798 90.1839
" />
<path d="M173.2418 92.1839
L173.3370 92.0887
" />
<path d="M173.3370 92.0887
L173.5275 91.8030
" />
<path d="M173.5275 91.8030
L173.6227 91.6125
" />
<path d="M173.6227 91.6125
L173.7179 91.3268
" />
<path d="M173.7179 91.3268
L173.8132 90.8506
" />
<path d="M173.8132 90.8506
L173.8132 90.4696
" />
<path d="M173.8132 90.4696
L173.7179 89.9934
" />
<path d="M173.7179 89.9934
L173.6227 89.7077
" />
<path d="M173.6227 89.7077
L173.5275 89.5172
" />
<path d="M173.5275 89.5172
L173.3370 89.2315
" />
<path d="M173.3370 89.2315
L173.2418 89.1363
" />
</g></g>
<g style="fill:#000000; fill-opacity:0.0; 
stroke:#000000; stroke-width:0.2000; stroke-opacity:1; 
stroke-linecap:round; stroke-linejoin:round;">
<circle cx="124.4911" cy="93.7072" r="1.0000" /> 
</g>
<g style="fill:#000000; fill-opacity:0.0; 
stroke:#000000; stroke-width:0.6000; stroke-opacity:1; 
stroke-linecap:round; stroke-linejoin:round;">
</g>
<g style="fill:#000000; fill-opacity:0.0; 
stroke:#000000; stroke-width:0.2000; stroke-opacity:1; 
stroke-linecap:round; stroke-linejoin:round;">
<text x="127.4911" y="94.7072"
textLength="46.8667" font-size="2.6667" lengthAdjust="spacingAndGlyphs"
text-anchor="start" opacity="0">1.100mm / 0.0433" (3 holes)</text>
<g class="stroked-text"><desc>1.100mm / 0.0433" (3 holes)</desc>
<path d="M129.1465 94.6220
L128.0036 94.6220
" />
<path d="M128.5751 94.6220
L128.5751 92.6220
" />
<path d="M128.5751 92.6220
L128.3846 92.9077
" />
<path d="M128.3846 92.9077
L128.1941 93.0982
" />
<path d="M128.1941 93.0982
L128.0036 93.1934
" />
<path d="M130.0036 94.4315
L130.0989 94.5268
" />
<path d="M130.0989 94.5268
L130.0036 94.6220
" />
<path d="M130.0036 94.6220
L129.9084 94.5268
" />
<path d="M129.9084 94.5268
L130.0036 94.4315
" />
<path d="M130.0036 94.4315
L130.0036 94.6220
" />
<path d="M132.0036 94.6220
L130.8608 94.6220
" />
<path d="M131.4322 94.6220
L131.4322 92.6220
" />
<path d="M131.4322 92.6220
L131.2417 92.9077
" />
<path d="M131.2417 92.9077
L131.0512 93.0982
" />
<path d="M131.0512 93.0982
L130.8608 93.1934
" />
<path d="M133.2417 92.6220
L133.4322 92.6220
" />
<path d="M133.4322 92.6220
L133.6227 92.7172
" />
<path d="M133.6227 92.7172
L133.7179 92.8125
" />
<path d="M133.7179 92.8125
L133.8132 93.0030
" />
<path d="M133.8132 93.0030
L133.9084 93.3839
" />
<path d="M133.9084 93.3839
L133.9084 93.8601
" />
<path d="M133.9084 93.8601
L133.8132 94.2410
" />
<path d="M133.8132 94.2410
L133.7179 94.4315
" />
<path d="M133.7179 94.4315
L133.6227 94.5268
" />
<path d="M133.6227 94.5268
L133.4322 94.6220
" />
<path d="M133.4322 94.6220
L133.2417 94.6220
" />
<path d="M133.2417 94.6220
L133.0513 94.5268
" />
<path d="M133.0513 94.5268
L132.9560 94.4315
" />
<path d="M132.9560 94.4315
L132.8608 94.2410
" />
<path d="M132.8608 94.2410
L132.7655 93.8601
" />
<path d="M132.7655 93.8601
L132.7655 93.3839
" />
<path d="M132.7655 93.3839
L132.8608 93.0030
" />
<path d="M132.8608 93.0030
L132.9560 92.8125
" />
<path d="M132.9560 92.8125
L133.0513 92.7172
" />
<path d="M133.0513 92.7172
L133.2417 92.6220
" />
<path d="M135.1465 92.6220
L135.3370 92.6220
" />
<path d="M135.3370 92.6220
L135.5274 92.7172
" />
<path d="M135.5274 92.7172
L135.6227 92.8125
" />
<path d="M135.6227 92.8125
L135.7179 93.0030
" />
<path d="M135.7179 93.0030
L135.8132 93.3839
" />
<path d="M135.8132 93.3839
L135.8132 93.8601
" />
<path d="M135.8132 93.8601
L135.7179 94.2410
" />
<path d="M135.7179 94.2410
L135.6227 94.4315
" />
<path d="M135.6227 94.4315
L135.5274 94.5268
" />
<path d="M135.5274 94.5268
L135.3370 94.6220
" />
<path d="M135.3370 94.6220
L135.1465 94.6220
" />
<path d="M135.1465 94.6220
L134.9560 94.5268
" />
<path d="M134.9560 94.5268
L134.8608 94.4315
" />
<path d="M134.8608 94.4315
L134.7655 94.2410
" />
<path d="M134.7655 94.2410
L134.6703 93.8601
" />
<path d="M134.6703 93.8601
L134.6703 93.3839
" />
<path d="M134.6703 93.3839
L134.7655 93.0030
" />
<path d="M134.7655 93.0030
L134.8608 92.8125
" />
<path d="M134.8608 92.8125
L134.9560 92.7172
" />
<path d="M134.9560 92.7172
L135.1465 92.6220
" />
<path d="M136.6703 94.6220
L136.6703 93.2887
" />
<path d="M136.6703 93.4791
L136.7655 93.3839
" />
<path d="M136.7655 93.3839
L136.9560 93.2887
" />
<path d="M136.9560 93.2887
L137.2417 93.2887
" />
<path d="M137.2417 93.2887
L137.4322 93.3839
" />
<path d="M137.4322 93.3839
L137.5274 93.5744
" />
<path d="M137.5274 93.5744
L137.5274 94.6220
" />
<path d="M137.5274 93.5744
L137.6227 93.3839
" />
<path d="M137.6227 93.3839
L137.8132 93.2887
" />
<path d="M137.8132 93.2887
L138.0989 93.2887
" />
<path d="M138.0989 93.2887
L138.2893 93.3839
" />
<path d="M138.2893 93.3839
L138.3846 93.5744
" />
<path d="M138.3846 93.5744
L138.3846 94.6220
" />
<path d="M139.3370 94.6220
L139.3370 93.2887
" />
<path d="M139.3370 93.4791
L139.4322 93.3839
" />
<path d="M139.4322 93.3839
L139.6227 93.2887
" />
<path d="M139.6227 93.2887
L139.9084 93.2887
" />
<path d="M139.9084 93.2887
L140.0989 93.3839
" />
<path d="M140.0989 93.3839
L140.1941 93.5744
" />
<path d="M140.1941 93.5744
L140.1941 94.6220
" />
<path d="M140.1941 93.5744
L140.2893 93.3839
" />
<path d="M140.2893 93.3839
L140.4798 93.2887
" />
<path d="M140.4798 93.2887
L140.7655 93.2887
" />
<path d="M140.7655 93.2887
L140.9560 93.3839
" />
<path d="M140.9560 93.3839
L141.0513 93.5744
" />
<path d="M141.0513 93.5744
L141.0513 94.6220
" />
<path d="M144.9560 92.5268
L143.2417 95.0982
" />
<path d="M147.5274 92.6220
L147.7179 92.6220
" />
<path d="M147.7179 92.6220
L147.9084 92.7172
" />
<path d="M147.9084 92.7172
L148.0036 92.8125
" />
<path d="M148.0036 92.8125
L148.0989 93.0030
" />
<path d="M148.0989 93.0030
L148.1941 93.3839
" />
<path d="M148.1941 93.3839
L148.1941 93.8601
" />
<path d="M148.1941 93.8601
L148.0989 94.2410
" />
<path d="M148.0989 94.2410
L148.0036 94.4315
" />
<path d="M148.0036 94.4315
L147.9084 94.5268
" />
<path d="M147.9084 94.5268
L147.7179 94.6220
" />
<path d="M147.7179 94.6220
L147.5274 94.6220
" />
<path d="M147.5274 94.6220
L147.3370 94.5268
" />
<path d="M147.3370 94.5268
L147.2417 94.4315
" />
<path d="M147.2417 94.4315
L147.1465 94.2410
" />
<path d="M147.1465 94.2410
L147.0513 93.8601
" />
<path d="M147.0513 93.8601
L147.0513 93.3839
" />
<path d="M147.0513 93.3839
L147.1465 93.0030
" />
<path d="M147.1465 93.0030
L147.2417 92.8125
" />
<path d="M147.2417 92.8125
L147.3370 92.7172
" />
<path d="M147.3370 92.7172
L147.5274 92.6220
" />
<path d="M149.0513 94.4315
L149.1465 94.5268
" />
<path d="M149.1465 94.5268
L149.0513 94.6220
" />
<path d="M149.0513 94.6220
L148.9560 94.5268
" />
<path d="M148.9560 94.5268
L149.0513 94.4315
" />
<path d="M149.0513 94.4315
L149.0513 94.6220
" />
<path d="M150.3846 92.6220
L150.5751 92.6220
" />
<path d="M150.5751 92.6220
L150.7655 92.7172
" />
<path d="M150.7655 92.7172
L150.8608 92.8125
" />
<path d="M150.8608 92.8125
L150.9560 93.0030
" />
<path d="M150.9560 93.0030
L151.0513 93.3839
" />
<path d="M151.0513 93.3839
L151.0513 93.8601
" />
<path d="M151.0513 93.8601
L150.9560 94.2410
" />
<path d="M150.9560 94.2410
L150.8608 94.4315
" />
<path d="M150.8608 94.4315
L150.7655 94.5268
" />
<path d="M150.7655 94.5268
L150.5751 94.6220
" />
<path d="M150.5751 94.6220
L150.3846 94.6220
" />
<path d="M150.3846 94.6220
L150.1941 94.5268
" />
<path d="M150.1941 94.5268
L150.0989 94.4315
" />
<path d="M150.0989 94.4315
L150.0036 94.2410
" />
<path d="M150.0036 94.2410
L149.9084 93.8601
" />
<path d="M149.9084 93.8601
L149.9084 93.3839
" />
<path d="M149.9084 93.3839
L150.0036 93.0030
" />
<path d="M150.0036 93.0030
L150.0989 92.8125
" />
<path d="M150.0989 92.8125
L150.1941 92.7172
" />
<path d="M150.1941 92.7172
L150.3846 92.6220
" />
<path d="M152.7655 93.2887
L152.7655 94.6220
" />
<path d="M152.2894 92.5268
L151.8132 93.9553
" />
<path d="M151.8132 93.9553
L153.0513 93.9553
" />
<path d="M153.6227 92.6220
L154.8608 92.6220
" />
<path d="M154.8608 92.6220
L154.1941 93.3839
" />
<path d="M154.1941 93.3839
L154.4798 93.3839
" />
<path d="M154.4798 93.3839
L154.6703 93.4791
" />
<path d="M154.6703 93.4791
L154.7655 93.5744
" />
<path d="M154.7655 93.5744
L154.8608 93.7649
" />
<path d="M154.8608 93.7649
L154.8608 94.2410
" />
<path d="M154.8608 94.2410
L154.7655 94.4315
" />
<path d="M154.7655 94.4315
L154.6703 94.5268
" />
<path d="M154.6703 94.5268
L154.4798 94.6220
" />
<path d="M154.4798 94.6220
L153.9084 94.6220
" />
<path d="M153.9084 94.6220
L153.7179 94.5268
" />
<path d="M153.7179 94.5268
L153.6227 94.4315
" />
<path d="M155.5275 92.6220
L156.7655 92.6220
" />
<path d="M156.7655 92.6220
L156.0989 93.3839
" />
<path d="M156.0989 93.3839
L156.3846 93.3839
" />
<path d="M156.3846 93.3839
L156.5751 93.4791
" />
<path d="M156.5751 93.4791
L156.6703 93.5744
" />
<path d="M156.6703 93.5744
L156.7655 93.7649
" />
<path d="M156.7655 93.7649
L156.7655 94.2410
" />
<path d="M156.7655 94.2410
L156.6703 94.4315
" />
<path d="M156.6703 94.4315
L156.5751 94.5268
" />
<path d="M156.5751 94.5268
L156.3846 94.6220
" />
<path d="M156.3846 94.6220
L155.8132 94.6220
" />
<path d="M155.8132 94.6220
L155.6227 94.5268
" />
<path d="M155.6227 94.5268
L155.5275 94.4315
" />
<path d="M157.5275 92.6220
L157.5275 93.0030
" />
<path d="M158.2894 92.6220
L158.2894 93.0030
" />
<path d="M161.2417 95.3839
L161.1465 95.2887
" />
<path d="M161.1465 95.2887
L160.9560 95.0030
" />
<path d="M160.9560 95.0030
L160.8608 94.8125
" />
<path d="M160.8608 94.8125
L160.7656 94.5268
" />
<path d="M160.7656 94.5268
L160.6703 94.0506
" />
<path d="M160.6703 94.0506
L160.6703 93.6696
" />
<path d="M160.6703 93.6696
L160.7656 93.1934
" />
<path d="M160.7656 93.1934
L160.8608 92.9077
" />
<path d="M160.8608 92.9077
L160.9560 92.7172
" />
<path d="M160.9560 92.7172
L161.1465 92.4315
" />
<path d="M161.1465 92.4315
L161.2417 92.3363
" />
<path d="M161.8132 92.6220
L163.0513 92.6220
" />
<path d="M163.0513 92.6220
L162.3846 93.3839
" />
<path d="M162.3846 93.3839
L162.6703 93.3839
" />
<path d="M162.6703 93.3839
L162.8608 93.4791
" />
<path d="M162.8608 93.4791
L162.9560 93.5744
" />
<path d="M162.9560 93.5744
L163.0513 93.7649
" />
<path d="M163.0513 93.7649
L163.0513 94.2410
" />
<path d="M163.0513 94.2410
L162.9560 94.4315
" />
<path d="M162.9560 94.4315
L162.8608 94.5268
" />
<path d="M162.8608 94.5268
L162.6703 94.6220
" />
<path d="M162.6703 94.6220
L162.0989 94.6220
" />
<path d="M162.0989 94.6220
L161.9084 94.5268
" />
<path d="M161.9084 94.5268
L161.8132 94.4315
" />
<path d="M165.4322 94.6220
L165.4322 92.6220
" />
<path d="M166.2894 94.6220
L166.2894 93.5744
" />
<path d="M166.2894 93.5744
L166.1941 93.3839
" />
<path d="M166.1941 93.3839
L166.0036 93.2887
" />
<path d="M166.0036 93.2887
L165.7179 93.2887
" />
<path d="M165.7179 93.2887
L165.5275 93.3839
" />
<path d="M165.5275 93.3839
L165.4322 93.4791
" />
<path d="M167.5275 94.6220
L167.3370 94.5268
" />
<path d="M167.3370 94.5268
L167.2417 94.4315
" />
<path d="M167.2417 94.4315
L167.1465 94.2410
" />
<path d="M167.1465 94.2410
L167.1465 93.6696
" />
<path d="M167.1465 93.6696
L167.2417 93.4791
" />
<path d="M167.2417 93.4791
L167.3370 93.3839
" />
<path d="M167.3370 93.3839
L167.5275 93.2887
" />
<path d="M167.5275 93.2887
L167.8132 93.2887
" />
<path d="M167.8132 93.2887
L168.0037 93.3839
" />
<path d="M168.0037 93.3839
L168.0989 93.4791
" />
<path d="M168.0989 93.4791
L168.1941 93.6696
" />
<path d="M168.1941 93.6696
L168.1941 94.2410
" />
<path d="M168.1941 94.2410
L168.0989 94.4315
" />
<path d="M168.0989 94.4315
L168.0037 94.5268
" />
<path d="M168.0037 94.5268
L167.8132 94.6220
" />
<path d="M167.8132 94.6220
L167.5275 94.6220
" />
<path d="M169.3370 94.6220
L169.1465 94.5268
" />
<path d="M169.1465 94.5268
L169.0513 94.3363
" />
<path d="M169.0513 94.3363
L169.0513 92.6220
" />
<path d="M170.8608 94.5268
L170.6703 94.6220
" />
<path d="M170.6703 94.6220
L170.2894 94.6220
" />
<path d="M170.2894 94.6220
L170.0989 94.5268
" />
<path d="M170.0989 94.5268
L170.0037 94.3363
" />
<path d="M170.0037 94.3363
L170.0037 93.5744
" />
<path d="M170.0037 93.5744
L170.0989 93.3839
" />
<path d="M170.0989 93.3839
L170.2894 93.2887
" />
<path d="M170.2894 93.2887
L170.6703 93.2887
" />
<path d="M170.6703 93.2887
L170.8608 93.3839
" />
<path d="M170.8608 93.3839
L170.9560 93.5744
" />
<path d="M170.9560 93.5744
L170.9560 93.7649
" />
<path d="M170.9560 93.7649
L170.0037 93.9553
" />
<path d="M171.7179 94.5268
L171.9084 94.6220
" />
<path d="M171.9084 94.6220
L172.2894 94.6220
" />
<path d="M172.2894 94.6220
L172.4798 94.5268
" />
<path d="M172.4798 94.5268
L172.5751 94.3363
" />
<path d="M172.5751 94.3363
L172.5751 94.2410
" />
<path d="M172.5751 94.2410
L172.4798 94.0506
" />
<path d="M172.4798 94.0506
L172.2894 93.9553
" />
<path d="M172.2894 93.9553
L172.0037 93.9553
" />
<path d="M172.0037 93.9553
L171.8132 93.8601
" />
<path d="M171.8132 93.8601
L171.7179 93.6696
" />
<path d="M171.7179 93.6696
L171.7179 93.5744
" />
<path d="M171.7179 93.5744
L171.8132 93.3839
" />
<path d="M171.8132 93.3839
L172.0037 93.2887
" />
<path d="M172.0037 93.2887
L172.2894 93.2887
" />
<path d="M172.2894 93.2887
L172.4798 93.3839
" />
<path d="M173.2418 95.3839
L173.3370 95.2887
" />
<path d="M173.3370 95.2887
L173.5275 95.0030
" />
<path d="M173.5275 95.0030
L173.6227 94.8125
" />
<path d="M173.6227 94.8125
L173.7179 94.5268
" />
<path d="M173.7179 94.5268
L173.8132 94.0506
" />
<path d="M173.8132 94.0506
L173.8132 93.6696
" />
<path d="M173.8132 93.6696
L173.7179 93.1934
" />
<path d="M173.7179 93.1934
L173.6227 92.9077
" />
<path d="M173.6227 92.9077
L173.5275 92.7172
" />
<path d="M173.5275 92.7172
L173.3370 92.4315
" />
<path d="M173.3370 92.4315
L173.2418 92.3363
" />
</g></g> 
</svg>
