%TF.GenerationSoftware,KiCad,Pcbnew,7.0.7*%
%TF.CreationDate,2023-12-16T19:35:09-08:00*%
%TF.ProjectId,laser_crosshair_pwm_gen_board,6c617365-725f-4637-926f-737368616972,rev?*%
%TF.SameCoordinates,PX791ddc0PY6d01460*%
%TF.FileFunction,Copper,L1,Top*%
%TF.FilePolarity,Positive*%
%FSLAX46Y46*%
G04 Gerber Fmt 4.6, Leading zero omitted, Abs format (unit mm)*
G04 Created by KiCad (PCBNEW 7.0.7) date 2023-12-16 19:35:10*
%MOMM*%
%LPD*%
G01*
G04 APERTURE LIST*
G04 Aperture macros list*
%AMRoundRect*
0 Rectangle with rounded corners*
0 $1 Rounding radius*
0 $2 $3 $4 $5 $6 $7 $8 $9 X,Y pos of 4 corners*
0 Add a 4 corners polygon primitive as box body*
4,1,4,$2,$3,$4,$5,$6,$7,$8,$9,$2,$3,0*
0 Add four circle primitives for the rounded corners*
1,1,$1+$1,$2,$3*
1,1,$1+$1,$4,$5*
1,1,$1+$1,$6,$7*
1,1,$1+$1,$8,$9*
0 Add four rect primitives between the rounded corners*
20,1,$1+$1,$2,$3,$4,$5,0*
20,1,$1+$1,$4,$5,$6,$7,0*
20,1,$1+$1,$6,$7,$8,$9,0*
20,1,$1+$1,$8,$9,$2,$3,0*%
G04 Aperture macros list end*
%TA.AperFunction,SMDPad,CuDef*%
%ADD10RoundRect,0.200000X-0.200000X-0.275000X0.200000X-0.275000X0.200000X0.275000X-0.200000X0.275000X0*%
%TD*%
%TA.AperFunction,SMDPad,CuDef*%
%ADD11RoundRect,0.250000X-0.250000X-0.475000X0.250000X-0.475000X0.250000X0.475000X-0.250000X0.475000X0*%
%TD*%
%TA.AperFunction,SMDPad,CuDef*%
%ADD12RoundRect,0.250000X-0.650000X0.325000X-0.650000X-0.325000X0.650000X-0.325000X0.650000X0.325000X0*%
%TD*%
%TA.AperFunction,ComponentPad*%
%ADD13R,1.905000X2.000000*%
%TD*%
%TA.AperFunction,ComponentPad*%
%ADD14O,1.905000X2.000000*%
%TD*%
%TA.AperFunction,ComponentPad*%
%ADD15R,1.700000X1.700000*%
%TD*%
%TA.AperFunction,ComponentPad*%
%ADD16O,1.700000X1.700000*%
%TD*%
%TA.AperFunction,Conductor*%
%ADD17C,0.500000*%
%TD*%
G04 APERTURE END LIST*
D10*
%TO.P,R4,1*%
%TO.N,Net-(U1-ADJ)*%
X8255000Y-6350000D03*
%TO.P,R4,2*%
%TO.N,GND*%
X9905000Y-6350000D03*
%TD*%
%TO.P,R3,1*%
%TO.N,Net-(J1-Pin_2)*%
X4700000Y-6350000D03*
%TO.P,R3,2*%
%TO.N,Net-(U1-ADJ)*%
X6350000Y-6350000D03*
%TD*%
D11*
%TO.P,C4,1*%
%TO.N,Net-(J1-Pin_2)*%
X6990000Y-11430000D03*
%TO.P,C4,2*%
%TO.N,GND*%
X8890000Y-11430000D03*
%TD*%
D12*
%TO.P,C3,1*%
%TO.N,Net-(U1-ADJ)*%
X12700000Y-3605000D03*
%TO.P,C3,2*%
%TO.N,GND*%
X12700000Y-6555000D03*
%TD*%
D11*
%TO.P,C5,1*%
%TO.N,+5V*%
X3241000Y-11430000D03*
%TO.P,C5,2*%
%TO.N,GND*%
X5141000Y-11430000D03*
%TD*%
D13*
%TO.P,U1,1,ADJ*%
%TO.N,Net-(U1-ADJ)*%
X8255000Y-3810000D03*
D14*
%TO.P,U1,2,VO*%
%TO.N,Net-(J1-Pin_2)*%
X5715000Y-3810000D03*
%TO.P,U1,3,VI*%
%TO.N,+5V*%
X3175000Y-3810000D03*
%TD*%
D15*
%TO.P,J1,1,Pin_1*%
%TO.N,GND*%
X8890000Y-8890000D03*
D16*
%TO.P,J1,2,Pin_2*%
%TO.N,Net-(J1-Pin_2)*%
X6350000Y-8890000D03*
%TO.P,J1,3,Pin_3*%
%TO.N,+5V*%
X3810000Y-8890000D03*
%TD*%
D17*
%TO.N,GND*%
X8890000Y-8382000D02*
X8890000Y-8890000D01*
X9905000Y-6350000D02*
X9905000Y-7367000D01*
X9905000Y-7367000D02*
X8890000Y-8382000D01*
X8890000Y-12192000D02*
X8890000Y-11430000D01*
X7874000Y-13208000D02*
X8890000Y-12192000D01*
X5141000Y-12253000D02*
X6096000Y-13208000D01*
X5141000Y-11430000D02*
X5141000Y-12253000D01*
X6096000Y-13208000D02*
X7874000Y-13208000D01*
X8890000Y-8890000D02*
X8890000Y-11430000D01*
%TO.N,Net-(J1-Pin_2)*%
X6350000Y-9906000D02*
X6350000Y-8890000D01*
X6990000Y-10546000D02*
X6350000Y-9906000D01*
X6990000Y-11430000D02*
X6990000Y-10546000D01*
%TO.N,Net-(U1-ADJ)*%
X8460000Y-3605000D02*
X8255000Y-3810000D01*
X12700000Y-3605000D02*
X8460000Y-3605000D01*
%TO.N,+5V*%
X3241000Y-9459000D02*
X3810000Y-8890000D01*
X3241000Y-11430000D02*
X3241000Y-9459000D01*
X3175000Y-8255000D02*
X3175000Y-3810000D01*
X3810000Y-8890000D02*
X3175000Y-8255000D01*
%TO.N,Net-(J1-Pin_2)*%
X4700000Y-7240000D02*
X4700000Y-6350000D01*
X6350000Y-8890000D02*
X4700000Y-7240000D01*
X5715000Y-4445000D02*
X5715000Y-3810000D01*
X4700000Y-5460000D02*
X5715000Y-4445000D01*
X4700000Y-6350000D02*
X4700000Y-5460000D01*
%TO.N,Net-(U1-ADJ)*%
X6350000Y-6350000D02*
X8255000Y-6350000D01*
X8255000Y-6350000D02*
X8255000Y-3810000D01*
%TO.N,GND*%
X10795000Y-6350000D02*
X9905000Y-6350000D01*
X11000000Y-6555000D02*
X10795000Y-6350000D01*
X12700000Y-6555000D02*
X11000000Y-6555000D01*
%TD*%
%TA.AperFunction,Conductor*%
%TO.N,Net-(U1-ADJ)*%
G36*
X8433210Y-4360545D02*
G01*
X8485729Y-4406627D01*
X8505000Y-4473018D01*
X8505000Y-6476000D01*
X8485315Y-6543039D01*
X8432511Y-6588794D01*
X8381000Y-6600000D01*
X8129000Y-6600000D01*
X8061961Y-6580315D01*
X8016206Y-6527511D01*
X8005000Y-6476000D01*
X8005000Y-4474652D01*
X8024685Y-4407613D01*
X8077489Y-4361858D01*
X8146647Y-4351914D01*
X8162447Y-4355248D01*
X8179404Y-4360000D01*
X8179406Y-4360000D01*
X8292622Y-4360000D01*
X8364116Y-4350173D01*
X8433210Y-4360545D01*
G37*
%TD.AperFunction*%
%TA.AperFunction,Conductor*%
G36*
X15182539Y-20185D02*
G01*
X15228294Y-72989D01*
X15239500Y-124500D01*
X15239500Y-4577500D01*
X15219815Y-4644539D01*
X15167011Y-4690294D01*
X15115500Y-4701500D01*
X13938523Y-4701500D01*
X13871484Y-4681815D01*
X13825729Y-4629011D01*
X13815785Y-4559853D01*
X13844810Y-4496297D01*
X13850842Y-4489819D01*
X13942315Y-4398345D01*
X14034356Y-4249124D01*
X14034358Y-4249119D01*
X14089505Y-4082697D01*
X14089506Y-4082690D01*
X14099999Y-3979986D01*
X14100000Y-3979973D01*
X14100000Y-3855000D01*
X11300001Y-3855000D01*
X11300001Y-3979986D01*
X11310494Y-4082697D01*
X11365641Y-4249119D01*
X11365643Y-4249124D01*
X11457684Y-4398345D01*
X11549158Y-4489819D01*
X11582643Y-4551142D01*
X11577659Y-4620834D01*
X11535787Y-4676767D01*
X11470323Y-4701184D01*
X11461477Y-4701500D01*
X10467043Y-4701500D01*
X10456878Y-4702297D01*
X10388244Y-4707679D01*
X10388237Y-4707680D01*
X10388238Y-4707680D01*
X10350050Y-4713707D01*
X10306703Y-4724075D01*
X10273179Y-4732095D01*
X10143987Y-4795438D01*
X10086273Y-4834808D01*
X9980158Y-4931983D01*
X9922404Y-5027521D01*
X9870876Y-5074709D01*
X9802016Y-5086547D01*
X9737688Y-5059278D01*
X9698314Y-5001559D01*
X9696396Y-4931716D01*
X9700106Y-4920034D01*
X9701098Y-4917374D01*
X9701098Y-4917372D01*
X9707499Y-4857844D01*
X9707500Y-4857827D01*
X9707500Y-4060000D01*
X8921956Y-4060000D01*
X8854917Y-4040315D01*
X8809162Y-3987511D01*
X8798245Y-3927537D01*
X8803207Y-3855000D01*
X8808877Y-3772114D01*
X8795809Y-3709227D01*
X8801443Y-3639586D01*
X8843834Y-3584045D01*
X8909523Y-3560239D01*
X8917216Y-3560000D01*
X9707500Y-3560000D01*
X9707500Y-3355000D01*
X11300000Y-3355000D01*
X12450000Y-3355000D01*
X12450000Y-2530000D01*
X12950000Y-2530000D01*
X12950000Y-3355000D01*
X14099999Y-3355000D01*
X14099999Y-3230028D01*
X14099998Y-3230013D01*
X14089505Y-3127302D01*
X14034358Y-2960880D01*
X14034356Y-2960875D01*
X13942315Y-2811654D01*
X13818345Y-2687684D01*
X13669124Y-2595643D01*
X13669119Y-2595641D01*
X13502697Y-2540494D01*
X13502690Y-2540493D01*
X13399986Y-2530000D01*
X12950000Y-2530000D01*
X12450000Y-2530000D01*
X12000028Y-2530000D01*
X12000012Y-2530001D01*
X11897302Y-2540494D01*
X11730880Y-2595641D01*
X11730875Y-2595643D01*
X11581654Y-2687684D01*
X11457684Y-2811654D01*
X11365643Y-2960875D01*
X11365641Y-2960880D01*
X11310494Y-3127302D01*
X11310493Y-3127309D01*
X11300000Y-3230013D01*
X11300000Y-3355000D01*
X9707500Y-3355000D01*
X9707500Y-2762172D01*
X9707499Y-2762155D01*
X9701098Y-2702627D01*
X9701096Y-2702620D01*
X9650854Y-2567913D01*
X9650850Y-2567906D01*
X9564690Y-2452812D01*
X9564687Y-2452809D01*
X9449593Y-2366649D01*
X9449586Y-2366645D01*
X9314879Y-2316403D01*
X9314872Y-2316401D01*
X9255344Y-2310000D01*
X8505000Y-2310000D01*
X8505000Y-3145347D01*
X8485315Y-3212386D01*
X8432511Y-3258141D01*
X8363353Y-3268085D01*
X8347547Y-3264749D01*
X8330598Y-3260000D01*
X8330596Y-3260000D01*
X8217378Y-3260000D01*
X8217376Y-3260000D01*
X8145884Y-3269826D01*
X8076789Y-3259453D01*
X8024270Y-3213371D01*
X8005000Y-3146981D01*
X8005000Y-2310000D01*
X7487499Y-2310000D01*
X7420460Y-2290315D01*
X7374705Y-2237511D01*
X7363499Y-2186000D01*
X7363500Y-124500D01*
X7383185Y-57460D01*
X7435989Y-11706D01*
X7487500Y-500D01*
X15115500Y-500D01*
X15182539Y-20185D01*
G37*
%TD.AperFunction*%
%TD*%
%TA.AperFunction,Conductor*%
%TO.N,Net-(J1-Pin_2)*%
G36*
X4740744Y-4939816D02*
G01*
X4917838Y-5077654D01*
X4917840Y-5077655D01*
X5039752Y-5143630D01*
X5089343Y-5192849D01*
X5104451Y-5261066D01*
X5080281Y-5326622D01*
X5024505Y-5368703D01*
X4969514Y-5376176D01*
X4956572Y-5375000D01*
X4950000Y-5375000D01*
X4950000Y-7324999D01*
X4956581Y-7324999D01*
X5027102Y-7318591D01*
X5027107Y-7318590D01*
X5189396Y-7268018D01*
X5334877Y-7180072D01*
X5334878Y-7180071D01*
X5436963Y-7077985D01*
X5498286Y-7044499D01*
X5567977Y-7049483D01*
X5612326Y-7077984D01*
X5714811Y-7180469D01*
X5714813Y-7180470D01*
X5714815Y-7180472D01*
X5860394Y-7268478D01*
X6022804Y-7319086D01*
X6022808Y-7319086D01*
X6029068Y-7321037D01*
X6028356Y-7323318D01*
X6080614Y-7350642D01*
X6082209Y-7352209D01*
X6097478Y-7367478D01*
X6130963Y-7428801D01*
X6125979Y-7498493D01*
X6084107Y-7554426D01*
X6041891Y-7574934D01*
X5886514Y-7616567D01*
X5886507Y-7616570D01*
X5672422Y-7716399D01*
X5672420Y-7716400D01*
X5478926Y-7851886D01*
X5478920Y-7851891D01*
X5311891Y-8018920D01*
X5308530Y-8023721D01*
X5253952Y-8067345D01*
X5184453Y-8074536D01*
X5122099Y-8043012D01*
X5119276Y-8040276D01*
X4529537Y-7450537D01*
X4504977Y-7415562D01*
X4489886Y-7383422D01*
X4487156Y-7376576D01*
X4468554Y-7320442D01*
X4468554Y-7320441D01*
X4464327Y-7308827D01*
X4457320Y-7277224D01*
X4456242Y-7264896D01*
X4454551Y-7250434D01*
X4454192Y-7245939D01*
X4453802Y-7236991D01*
X4453641Y-7235158D01*
X4453496Y-7215317D01*
X4454332Y-7203854D01*
X4455000Y-7185485D01*
X4455000Y-7102977D01*
X4450573Y-7070608D01*
X4450000Y-7062197D01*
X4450000Y-5637803D01*
X4450573Y-5629391D01*
X4455000Y-5597021D01*
X4455000Y-5463562D01*
X4454611Y-5450205D01*
X4455918Y-5428277D01*
X4456357Y-5425329D01*
X4456360Y-5425318D01*
X4467159Y-5281844D01*
X4462575Y-5214228D01*
X4462538Y-5213120D01*
X4462434Y-5212139D01*
X4462434Y-5212135D01*
X4462434Y-5212134D01*
X4458028Y-5191512D01*
X4463270Y-5121843D01*
X4476111Y-5096832D01*
X4561409Y-4968885D01*
X4614974Y-4924026D01*
X4684290Y-4915246D01*
X4740744Y-4939816D01*
G37*
%TD.AperFunction*%
%TA.AperFunction,Conductor*%
G36*
X5893210Y-4360545D02*
G01*
X5945729Y-4406627D01*
X5965000Y-4473018D01*
X5965000Y-5286637D01*
X5945315Y-5353676D01*
X5928680Y-5374320D01*
X5896615Y-5406384D01*
X5866520Y-5427158D01*
X5866813Y-5427642D01*
X5860395Y-5431521D01*
X5860394Y-5431522D01*
X5829489Y-5450205D01*
X5714811Y-5519530D01*
X5714810Y-5519531D01*
X5612327Y-5622015D01*
X5551004Y-5655500D01*
X5481312Y-5650516D01*
X5436965Y-5622015D01*
X5334877Y-5519927D01*
X5310341Y-5505095D01*
X5263154Y-5453568D01*
X5251315Y-5384708D01*
X5278583Y-5320379D01*
X5336302Y-5281005D01*
X5394900Y-5276669D01*
X5465000Y-5288366D01*
X5465000Y-4474652D01*
X5484685Y-4407613D01*
X5537489Y-4361858D01*
X5606647Y-4351914D01*
X5622447Y-4355248D01*
X5639404Y-4360000D01*
X5639406Y-4360000D01*
X5752622Y-4360000D01*
X5824116Y-4350173D01*
X5893210Y-4360545D01*
G37*
%TD.AperFunction*%
%TA.AperFunction,Conductor*%
G36*
X6801039Y-20185D02*
G01*
X6846794Y-72989D01*
X6858000Y-124500D01*
X6857999Y-2547186D01*
X6850177Y-2590530D01*
X6847086Y-2598815D01*
X6805209Y-2654745D01*
X6739743Y-2679156D01*
X6671471Y-2664298D01*
X6654745Y-2653324D01*
X6512162Y-2542346D01*
X6512159Y-2542344D01*
X6300468Y-2427784D01*
X6300454Y-2427778D01*
X6072791Y-2349619D01*
X5965000Y-2331633D01*
X5965000Y-3145347D01*
X5945315Y-3212386D01*
X5892511Y-3258141D01*
X5823353Y-3268085D01*
X5807547Y-3264749D01*
X5790598Y-3260000D01*
X5790596Y-3260000D01*
X5677378Y-3260000D01*
X5677376Y-3260000D01*
X5605884Y-3269826D01*
X5536789Y-3259453D01*
X5484270Y-3213371D01*
X5465000Y-3146981D01*
X5465000Y-2331633D01*
X5464999Y-2331633D01*
X5357208Y-2349619D01*
X5129545Y-2427778D01*
X5129531Y-2427784D01*
X5006517Y-2494355D01*
X4938188Y-2508950D01*
X4872816Y-2484287D01*
X4831156Y-2428196D01*
X4823500Y-2385300D01*
X4823500Y-124500D01*
X4843185Y-57461D01*
X4895989Y-11706D01*
X4947500Y-500D01*
X6734000Y-500D01*
X6801039Y-20185D01*
G37*
%TD.AperFunction*%
%TD*%
%TA.AperFunction,Conductor*%
%TO.N,+5V*%
G36*
X4261039Y-20185D02*
G01*
X4306794Y-72989D01*
X4318000Y-124500D01*
X4318000Y-2557876D01*
X4298315Y-2624915D01*
X4245511Y-2670670D01*
X4176353Y-2680614D01*
X4117838Y-2655730D01*
X3972161Y-2542345D01*
X3972159Y-2542344D01*
X3760468Y-2427784D01*
X3760454Y-2427778D01*
X3532791Y-2349619D01*
X3425000Y-2331633D01*
X3425000Y-3145347D01*
X3405315Y-3212386D01*
X3352511Y-3258141D01*
X3283353Y-3268085D01*
X3267547Y-3264749D01*
X3250598Y-3260000D01*
X3250596Y-3260000D01*
X3137378Y-3260000D01*
X3137376Y-3260000D01*
X3065884Y-3269826D01*
X2996789Y-3259453D01*
X2944270Y-3213371D01*
X2925000Y-3146981D01*
X2925000Y-2331633D01*
X2924999Y-2331633D01*
X2817208Y-2349619D01*
X2589545Y-2427778D01*
X2589531Y-2427784D01*
X2377840Y-2542344D01*
X2377831Y-2542350D01*
X2187883Y-2690193D01*
X2187873Y-2690202D01*
X2024851Y-2867289D01*
X2024843Y-2867300D01*
X1893186Y-3068815D01*
X1796491Y-3289259D01*
X1737400Y-3522604D01*
X1737400Y-3522605D01*
X1734302Y-3560000D01*
X2508044Y-3560000D01*
X2575083Y-3579685D01*
X2620838Y-3632489D01*
X2631755Y-3692463D01*
X2631441Y-3697045D01*
X2631441Y-3697047D01*
X2621123Y-3847886D01*
X2634191Y-3910772D01*
X2628557Y-3980414D01*
X2586166Y-4035955D01*
X2520477Y-4059761D01*
X2512784Y-4060000D01*
X1734303Y-4060000D01*
X1737400Y-4097394D01*
X1737400Y-4097395D01*
X1796491Y-4330740D01*
X1893186Y-4551184D01*
X2024843Y-4752699D01*
X2024851Y-4752710D01*
X2187873Y-4929797D01*
X2187883Y-4929806D01*
X2377831Y-5077649D01*
X2377840Y-5077655D01*
X2589531Y-5192215D01*
X2589545Y-5192221D01*
X2817207Y-5270379D01*
X2924999Y-5288365D01*
X2924999Y-4474652D01*
X2944683Y-4407613D01*
X2997487Y-4361858D01*
X3066646Y-4351914D01*
X3082453Y-4355250D01*
X3099404Y-4360000D01*
X3099406Y-4360000D01*
X3212622Y-4360000D01*
X3284116Y-4350173D01*
X3353210Y-4360545D01*
X3405729Y-4406627D01*
X3425000Y-4473018D01*
X3425000Y-5288365D01*
X3532792Y-5270379D01*
X3760454Y-5192221D01*
X3760468Y-5192215D01*
X3782727Y-5180169D01*
X3851055Y-5165571D01*
X3916428Y-5190231D01*
X3958091Y-5246320D01*
X3962816Y-5316029D01*
X3962407Y-5317815D01*
X3949499Y-5372281D01*
X3948661Y-5379454D01*
X3948601Y-5379447D01*
X3947835Y-5386945D01*
X3947895Y-5386951D01*
X3947265Y-5394140D01*
X3949500Y-5470916D01*
X3949500Y-5597023D01*
X3931617Y-5661173D01*
X3856522Y-5785393D01*
X3805913Y-5947807D01*
X3799500Y-6018386D01*
X3799500Y-6681613D01*
X3805913Y-6752192D01*
X3805913Y-6752194D01*
X3805914Y-6752196D01*
X3856522Y-6914606D01*
X3931617Y-7038829D01*
X3949500Y-7102976D01*
X3949500Y-7176294D01*
X3948191Y-7194263D01*
X3944710Y-7218025D01*
X3949264Y-7270064D01*
X3949500Y-7275470D01*
X3949500Y-7283709D01*
X3953306Y-7316274D01*
X3960000Y-7392791D01*
X3961461Y-7399867D01*
X3961403Y-7399878D01*
X3963034Y-7407237D01*
X3963092Y-7407224D01*
X3964757Y-7414250D01*
X3991025Y-7486424D01*
X4015185Y-7559331D01*
X4018236Y-7565874D01*
X4018182Y-7565898D01*
X4021471Y-7572691D01*
X4021523Y-7572666D01*
X4024764Y-7579120D01*
X4039600Y-7601677D01*
X4059992Y-7668505D01*
X4059999Y-7669815D01*
X4059999Y-8277698D01*
X4040314Y-8344737D01*
X3987510Y-8390492D01*
X3918353Y-8400436D01*
X3845764Y-8390000D01*
X3845763Y-8390000D01*
X3774237Y-8390000D01*
X3774233Y-8390000D01*
X3701645Y-8400436D01*
X3632487Y-8390492D01*
X3579684Y-8344736D01*
X3560000Y-8277698D01*
X3560000Y-7559364D01*
X3559999Y-7559364D01*
X3346513Y-7616567D01*
X3346507Y-7616570D01*
X3132422Y-7716399D01*
X3132420Y-7716400D01*
X2938926Y-7851886D01*
X2938920Y-7851891D01*
X2771891Y-8018920D01*
X2771886Y-8018926D01*
X2636400Y-8212420D01*
X2636399Y-8212422D01*
X2536570Y-8426507D01*
X2536567Y-8426513D01*
X2479364Y-8639999D01*
X2479364Y-8640000D01*
X3196653Y-8640000D01*
X3263692Y-8659685D01*
X3309447Y-8712489D01*
X3319391Y-8781647D01*
X3315631Y-8798933D01*
X3310000Y-8818111D01*
X3310000Y-8961888D01*
X3315631Y-8981067D01*
X3315630Y-9050936D01*
X3277855Y-9109714D01*
X3214299Y-9138738D01*
X3196653Y-9140000D01*
X2479364Y-9140000D01*
X2536567Y-9353486D01*
X2536570Y-9353492D01*
X2636399Y-9567578D01*
X2771894Y-9761082D01*
X2938917Y-9928105D01*
X3012209Y-9979425D01*
X3055833Y-10034002D01*
X3063026Y-10103501D01*
X3031504Y-10165855D01*
X2971274Y-10201269D01*
X2944159Y-10204624D01*
X2944171Y-10204841D01*
X2941176Y-10204993D01*
X2941124Y-10205000D01*
X2941047Y-10205000D01*
X2941012Y-10205001D01*
X2838302Y-10215494D01*
X2671880Y-10270641D01*
X2671875Y-10270643D01*
X2522654Y-10362684D01*
X2398684Y-10486654D01*
X2306643Y-10635875D01*
X2306641Y-10635880D01*
X2251494Y-10802302D01*
X2251493Y-10802309D01*
X2241000Y-10905013D01*
X2241000Y-11180000D01*
X3367000Y-11180000D01*
X3434039Y-11199685D01*
X3479794Y-11252489D01*
X3491000Y-11304000D01*
X3491000Y-12654999D01*
X3540972Y-12654999D01*
X3540986Y-12654998D01*
X3643696Y-12644505D01*
X3649493Y-12642585D01*
X3719321Y-12640181D01*
X3779364Y-12675911D01*
X3810558Y-12738431D01*
X3812500Y-12760290D01*
X3812500Y-13845500D01*
X3792815Y-13912539D01*
X3740011Y-13958294D01*
X3688500Y-13969500D01*
X124500Y-13969500D01*
X57461Y-13949815D01*
X11706Y-13897011D01*
X500Y-13845500D01*
X500Y-11680000D01*
X2241001Y-11680000D01*
X2241001Y-11954986D01*
X2251494Y-12057697D01*
X2306641Y-12224119D01*
X2306643Y-12224124D01*
X2398684Y-12373345D01*
X2522654Y-12497315D01*
X2671875Y-12589356D01*
X2671880Y-12589358D01*
X2838302Y-12644505D01*
X2838309Y-12644506D01*
X2941019Y-12654999D01*
X2990999Y-12654998D01*
X2991000Y-12654998D01*
X2991000Y-11680000D01*
X2241001Y-11680000D01*
X500Y-11680000D01*
X500Y-124500D01*
X20185Y-57461D01*
X72989Y-11706D01*
X124500Y-500D01*
X4194000Y-500D01*
X4261039Y-20185D01*
G37*
%TD.AperFunction*%
%TD*%
%TA.AperFunction,Conductor*%
%TO.N,GND*%
G36*
X15182539Y-5226685D02*
G01*
X15228294Y-5279489D01*
X15239500Y-5331000D01*
X15239500Y-13845500D01*
X15219815Y-13912539D01*
X15167011Y-13958294D01*
X15115500Y-13969500D01*
X4442000Y-13969500D01*
X4374961Y-13949815D01*
X4329206Y-13897011D01*
X4318000Y-13845500D01*
X4318000Y-13845499D01*
X4318000Y-12654934D01*
X4337684Y-12587899D01*
X4390487Y-12542144D01*
X4459646Y-12532200D01*
X4507096Y-12549400D01*
X4571869Y-12589353D01*
X4571880Y-12589358D01*
X4738302Y-12644505D01*
X4738309Y-12644506D01*
X4841019Y-12654999D01*
X4890999Y-12654998D01*
X4891000Y-12654998D01*
X4891000Y-11304000D01*
X4910685Y-11236961D01*
X4963489Y-11191206D01*
X5015000Y-11180000D01*
X5267000Y-11180000D01*
X5334039Y-11199685D01*
X5379794Y-11252489D01*
X5391000Y-11304000D01*
X5391000Y-12654999D01*
X5440972Y-12654999D01*
X5440986Y-12654998D01*
X5543697Y-12644505D01*
X5710119Y-12589358D01*
X5710124Y-12589356D01*
X5859342Y-12497317D01*
X5977464Y-12379195D01*
X6038787Y-12345710D01*
X6108479Y-12350694D01*
X6152827Y-12379195D01*
X6271344Y-12497712D01*
X6420666Y-12589814D01*
X6587203Y-12644999D01*
X6689991Y-12655500D01*
X7290008Y-12655499D01*
X7290016Y-12655498D01*
X7290019Y-12655498D01*
X7346302Y-12649748D01*
X7392797Y-12644999D01*
X7559334Y-12589814D01*
X7708656Y-12497712D01*
X7832712Y-12373656D01*
X7832715Y-12373650D01*
X7837193Y-12367989D01*
X7839279Y-12369638D01*
X7882043Y-12331177D01*
X7935631Y-12319000D01*
X7944957Y-12319000D01*
X8011996Y-12338685D01*
X8041652Y-12368902D01*
X8043202Y-12367677D01*
X8047683Y-12373344D01*
X8171654Y-12497315D01*
X8320875Y-12589356D01*
X8320880Y-12589358D01*
X8487302Y-12644505D01*
X8487309Y-12644506D01*
X8590019Y-12654999D01*
X8639999Y-12654998D01*
X8640000Y-12654998D01*
X8640000Y-11680000D01*
X9140000Y-11680000D01*
X9140000Y-12654999D01*
X9189972Y-12654999D01*
X9189986Y-12654998D01*
X9292697Y-12644505D01*
X9459119Y-12589358D01*
X9459124Y-12589356D01*
X9608345Y-12497315D01*
X9732315Y-12373345D01*
X9824356Y-12224124D01*
X9824358Y-12224119D01*
X9879505Y-12057697D01*
X9879506Y-12057690D01*
X9889999Y-11954986D01*
X9890000Y-11954973D01*
X9890000Y-11680000D01*
X9140000Y-11680000D01*
X8640000Y-11680000D01*
X8640000Y-9502301D01*
X8659685Y-9435262D01*
X8712489Y-9389507D01*
X8781647Y-9379563D01*
X8854237Y-9390000D01*
X8854238Y-9390000D01*
X8925762Y-9390000D01*
X8925763Y-9390000D01*
X8998353Y-9379563D01*
X9067512Y-9389507D01*
X9120315Y-9435262D01*
X9140000Y-9502301D01*
X9140000Y-11180000D01*
X9889999Y-11180000D01*
X9889999Y-10905028D01*
X9889998Y-10905013D01*
X9879505Y-10802302D01*
X9824358Y-10635880D01*
X9824356Y-10635875D01*
X9732315Y-10486654D01*
X9697342Y-10451681D01*
X9663857Y-10390358D01*
X9668841Y-10320666D01*
X9710713Y-10264733D01*
X9776177Y-10240316D01*
X9785023Y-10240000D01*
X9787828Y-10240000D01*
X9787844Y-10239999D01*
X9847372Y-10233598D01*
X9847379Y-10233596D01*
X9982086Y-10183354D01*
X9982093Y-10183350D01*
X10097187Y-10097190D01*
X10097190Y-10097187D01*
X10183350Y-9982093D01*
X10183354Y-9982086D01*
X10233596Y-9847379D01*
X10233598Y-9847372D01*
X10239999Y-9787844D01*
X10240000Y-9787827D01*
X10240000Y-9140000D01*
X9503347Y-9140000D01*
X9436308Y-9120315D01*
X9390553Y-9067511D01*
X9380609Y-8998353D01*
X9384369Y-8981067D01*
X9390000Y-8961888D01*
X9390000Y-8818111D01*
X9384369Y-8798933D01*
X9384370Y-8729064D01*
X9422145Y-8670286D01*
X9485701Y-8641262D01*
X9503347Y-8640000D01*
X10240000Y-8640000D01*
X10240000Y-7992172D01*
X10239999Y-7992155D01*
X10233598Y-7932627D01*
X10233596Y-7932620D01*
X10183354Y-7797913D01*
X10183350Y-7797906D01*
X10097190Y-7682812D01*
X10097187Y-7682809D01*
X9982093Y-7596649D01*
X9982086Y-7596645D01*
X9847379Y-7546403D01*
X9847372Y-7546401D01*
X9787844Y-7540000D01*
X9739362Y-7540000D01*
X9672323Y-7520315D01*
X9626568Y-7467511D01*
X9616624Y-7398353D01*
X9645649Y-7334797D01*
X9651674Y-7328325D01*
X9655000Y-7324998D01*
X9655000Y-6600000D01*
X10155000Y-6600000D01*
X10155000Y-7324999D01*
X10161581Y-7324999D01*
X10232102Y-7318591D01*
X10232107Y-7318590D01*
X10394396Y-7268018D01*
X10539877Y-7180072D01*
X10660072Y-7059877D01*
X10748019Y-6914395D01*
X10782108Y-6805000D01*
X11300001Y-6805000D01*
X11300001Y-6929986D01*
X11310494Y-7032697D01*
X11365641Y-7199119D01*
X11365643Y-7199124D01*
X11457684Y-7348345D01*
X11581654Y-7472315D01*
X11730875Y-7564356D01*
X11730880Y-7564358D01*
X11897302Y-7619505D01*
X11897309Y-7619506D01*
X12000019Y-7629999D01*
X12449999Y-7629999D01*
X12450000Y-7629998D01*
X12450000Y-6805000D01*
X12950000Y-6805000D01*
X12950000Y-7629999D01*
X13399972Y-7629999D01*
X13399986Y-7629998D01*
X13502697Y-7619505D01*
X13669119Y-7564358D01*
X13669124Y-7564356D01*
X13818345Y-7472315D01*
X13942315Y-7348345D01*
X14034356Y-7199124D01*
X14034358Y-7199119D01*
X14089505Y-7032697D01*
X14089506Y-7032690D01*
X14099999Y-6929986D01*
X14100000Y-6929973D01*
X14100000Y-6805000D01*
X12950000Y-6805000D01*
X12450000Y-6805000D01*
X11300001Y-6805000D01*
X10782108Y-6805000D01*
X10798590Y-6752106D01*
X10805000Y-6681572D01*
X10805000Y-6600000D01*
X10155000Y-6600000D01*
X9655000Y-6600000D01*
X9655000Y-6305000D01*
X11300000Y-6305000D01*
X12450000Y-6305000D01*
X12450000Y-5480000D01*
X12950000Y-5480000D01*
X12950000Y-6305000D01*
X14099999Y-6305000D01*
X14099999Y-6180028D01*
X14099998Y-6180013D01*
X14089505Y-6077302D01*
X14034358Y-5910880D01*
X14034356Y-5910875D01*
X13942315Y-5761654D01*
X13818345Y-5637684D01*
X13669124Y-5545643D01*
X13669119Y-5545641D01*
X13502697Y-5490494D01*
X13502690Y-5490493D01*
X13399986Y-5480000D01*
X12950000Y-5480000D01*
X12450000Y-5480000D01*
X12000028Y-5480000D01*
X12000012Y-5480001D01*
X11897302Y-5490494D01*
X11730880Y-5545641D01*
X11730875Y-5545643D01*
X11581654Y-5637684D01*
X11457684Y-5761654D01*
X11365643Y-5910875D01*
X11365641Y-5910880D01*
X11310494Y-6077302D01*
X11310493Y-6077309D01*
X11300000Y-6180013D01*
X11300000Y-6305000D01*
X9655000Y-6305000D01*
X9655000Y-6224000D01*
X9674685Y-6156961D01*
X9727489Y-6111206D01*
X9779000Y-6100000D01*
X10804999Y-6100000D01*
X10804999Y-6018417D01*
X10798591Y-5947897D01*
X10798590Y-5947892D01*
X10748018Y-5785603D01*
X10660072Y-5640122D01*
X10539877Y-5519927D01*
X10402893Y-5437117D01*
X10355705Y-5385589D01*
X10343867Y-5316729D01*
X10371136Y-5252401D01*
X10428855Y-5213027D01*
X10467043Y-5207000D01*
X15115500Y-5207000D01*
X15182539Y-5226685D01*
G37*
%TD.AperFunction*%
%TD*%
M02*
