<?xml version="1.0" standalone="no"?>
 <!DOCTYPE svg PUBLIC "-//W3C//DTD SVG 1.1//EN" 
 "http://www.w3.org/Graphics/SVG/1.1/DTD/svg11.dtd"> 
<svg
  xmlns:svg="http://www.w3.org/2000/svg"
  xmlns="http://www.w3.org/2000/svg"
  xmlns:xlink="http://www.w3.org/1999/xlink"
  version="1.1"
  width="297.0022mm" height="210.0072mm" viewBox="0.0000 0.0000 297.0022 210.0072">
<title>SVG Image created as laser_crosshair_pwm_gen_board-NPTH-drl_map.svg date 2023/12/16 19:35:21 </title>
  <desc>Image generated by PCBNEW </desc>
<g style="fill:#000000; fill-opacity:1.0000;stroke:#000000; stroke-opacity:1.0000;
stroke-linecap:round; stroke-linejoin:round;"
 transform="translate(0 0) scale(1 1)">
</g>
<g style="fill:#000000; fill-opacity:0.0; 
stroke:#000000; stroke-width:0.0000; stroke-opacity:1; 
stroke-linecap:round; stroke-linejoin:round;">
</g>
<g style="fill:#000000; fill-opacity:0.0; 
stroke:#000000; stroke-width:0.3000; stroke-opacity:1; 
stroke-linecap:round; stroke-linejoin:round;">
<path style="fill:#000000; fill-opacity:0.0; 
stroke:#000000; stroke-width:0.3000; stroke-opacity:1; 
stroke-linecap:round; stroke-linejoin:round;fill:none"
d="M 125.6411,42.0472
171.3611,42.0472
171.3611,83.9572
125.6411,83.9572
Z" /> 
</g>
<g style="fill:#000000; fill-opacity:0.0; 
stroke:#000000; stroke-width:0.6000; stroke-opacity:1; 
stroke-linecap:round; stroke-linejoin:round;">
</g>
<g style="fill:#000000; fill-opacity:0.0; 
stroke:#000000; stroke-width:0.2000; stroke-opacity:1; 
stroke-linecap:round; stroke-linejoin:round;">
<text x="127.4911" y="87.3072"
textLength="14.8667" font-size="2.6667" lengthAdjust="spacingAndGlyphs"
text-anchor="start" opacity="0">Drill Map:</text>
<g class="stroked-text"><desc>Drill Map:</desc>
<path d="M128.0989 87.2220
L128.0989 85.2220
" />
<path d="M128.0989 85.2220
L128.5751 85.2220
" />
<path d="M128.5751 85.2220
L128.8608 85.3172
" />
<path d="M128.8608 85.3172
L129.0512 85.5077
" />
<path d="M129.0512 85.5077
L129.1465 85.6982
" />
<path d="M129.1465 85.6982
L129.2417 86.0791
" />
<path d="M129.2417 86.0791
L129.2417 86.3649
" />
<path d="M129.2417 86.3649
L129.1465 86.7458
" />
<path d="M129.1465 86.7458
L129.0512 86.9363
" />
<path d="M129.0512 86.9363
L128.8608 87.1268
" />
<path d="M128.8608 87.1268
L128.5751 87.2220
" />
<path d="M128.5751 87.2220
L128.0989 87.2220
" />
<path d="M130.0989 87.2220
L130.0989 85.8887
" />
<path d="M130.0989 86.2696
L130.1941 86.0791
" />
<path d="M130.1941 86.0791
L130.2893 85.9839
" />
<path d="M130.2893 85.9839
L130.4798 85.8887
" />
<path d="M130.4798 85.8887
L130.6703 85.8887
" />
<path d="M131.3370 87.2220
L131.3370 85.8887
" />
<path d="M131.3370 85.2220
L131.2417 85.3172
" />
<path d="M131.2417 85.3172
L131.3370 85.4125
" />
<path d="M131.3370 85.4125
L131.4322 85.3172
" />
<path d="M131.4322 85.3172
L131.3370 85.2220
" />
<path d="M131.3370 85.2220
L131.3370 85.4125
" />
<path d="M132.5751 87.2220
L132.3846 87.1268
" />
<path d="M132.3846 87.1268
L132.2893 86.9363
" />
<path d="M132.2893 86.9363
L132.2893 85.2220
" />
<path d="M133.6227 87.2220
L133.4322 87.1268
" />
<path d="M133.4322 87.1268
L133.3370 86.9363
" />
<path d="M133.3370 86.9363
L133.3370 85.2220
" />
<path d="M135.9084 87.2220
L135.9084 85.2220
" />
<path d="M135.9084 85.2220
L136.5751 86.6506
" />
<path d="M136.5751 86.6506
L137.2417 85.2220
" />
<path d="M137.2417 85.2220
L137.2417 87.2220
" />
<path d="M139.0513 87.2220
L139.0513 86.1744
" />
<path d="M139.0513 86.1744
L138.9560 85.9839
" />
<path d="M138.9560 85.9839
L138.7655 85.8887
" />
<path d="M138.7655 85.8887
L138.3846 85.8887
" />
<path d="M138.3846 85.8887
L138.1941 85.9839
" />
<path d="M139.0513 87.1268
L138.8608 87.2220
" />
<path d="M138.8608 87.2220
L138.3846 87.2220
" />
<path d="M138.3846 87.2220
L138.1941 87.1268
" />
<path d="M138.1941 87.1268
L138.0989 86.9363
" />
<path d="M138.0989 86.9363
L138.0989 86.7458
" />
<path d="M138.0989 86.7458
L138.1941 86.5553
" />
<path d="M138.1941 86.5553
L138.3846 86.4601
" />
<path d="M138.3846 86.4601
L138.8608 86.4601
" />
<path d="M138.8608 86.4601
L139.0513 86.3649
" />
<path d="M140.0036 85.8887
L140.0036 87.8887
" />
<path d="M140.0036 85.9839
L140.1941 85.8887
" />
<path d="M140.1941 85.8887
L140.5751 85.8887
" />
<path d="M140.5751 85.8887
L140.7655 85.9839
" />
<path d="M140.7655 85.9839
L140.8608 86.0791
" />
<path d="M140.8608 86.0791
L140.9560 86.2696
" />
<path d="M140.9560 86.2696
L140.9560 86.8410
" />
<path d="M140.9560 86.8410
L140.8608 87.0315
" />
<path d="M140.8608 87.0315
L140.7655 87.1268
" />
<path d="M140.7655 87.1268
L140.5751 87.2220
" />
<path d="M140.5751 87.2220
L140.1941 87.2220
" />
<path d="M140.1941 87.2220
L140.0036 87.1268
" />
<path d="M141.8132 87.0315
L141.9084 87.1268
" />
<path d="M141.9084 87.1268
L141.8132 87.2220
" />
<path d="M141.8132 87.2220
L141.7179 87.1268
" />
<path d="M141.7179 87.1268
L141.8132 87.0315
" />
<path d="M141.8132 87.0315
L141.8132 87.2220
" />
<path d="M141.8132 85.9839
L141.9084 86.0791
" />
<path d="M141.9084 86.0791
L141.8132 86.1744
" />
<path d="M141.8132 86.1744
L141.7179 86.0791
" />
<path d="M141.7179 86.0791
L141.8132 85.9839
" />
<path d="M141.8132 85.9839
L141.8132 86.1744
" />
</g></g> 
</svg>
