M48
; DRILL file {KiCad 9.0.7-1.fc43} date 2026-03-12T23:33:34-0700
; FORMAT={-:-/ absolute / metric / decimal}
; #@! TF.CreationDate,2026-03-12T23:33:34-07:00
; #@! TF.GenerationSoftware,Kicad,Pcbnew,9.0.7-1.fc43
; #@! TF.FileFunction,Plated,1,2,PTH
FMAT,2
METRIC
; #@! TA.AperFunction,Plated,PTH,ViaDrill
T1C0.300
%
G90
G05
T1
X0.8Y-0.8
X4.25Y-1.0
X5.0Y-1.0
X5.25Y-5.75
X5.5Y-7.0
X5.75Y-1.0
X6.75Y-6.5
X7.1Y-7.05
X7.45Y-6.5
X10.226Y-3.272
X13.75Y-1.75
X14.45Y-1.75
X16.5Y-6.5
X17.2Y-6.5
X17.75Y-7.0
X26.4Y-7.2
X26.5Y-0.8
X28.5Y-0.8
X28.6Y-7.2
X31.0Y-0.8
X31.1Y-7.2
X32.3Y-3.5
X32.35Y-5.5
X33.0Y-3.5
X33.0Y-5.5
X33.0Y-7.0
X35.0Y-6.95
X37.25Y-7.2
X40.0Y-1.0
X40.0Y-3.25
X48.75Y-2.5
X53.0Y-1.0
X59.0Y-1.0
M30
