%TF.GenerationSoftware,KiCad,Pcbnew,9.0.7-1.fc43*%
%TF.CreationDate,2026-03-12T23:33:10-07:00*%
%TF.ProjectId,als_board,616c735f-626f-4617-9264-2e6b69636164,A0*%
%TF.SameCoordinates,PX5f5e100PY6052340*%
%TF.FileFunction,Copper,L1,Top*%
%TF.FilePolarity,Positive*%
%FSLAX46Y46*%
G04 Gerber Fmt 4.6, Leading zero omitted, Abs format (unit mm)*
G04 Created by KiCad (PCBNEW 9.0.7-1.fc43) date 2026-03-12 23:33:10*
%MOMM*%
%LPD*%
G01*
G04 APERTURE LIST*
G04 Aperture macros list*
%AMRoundRect*
0 Rectangle with rounded corners*
0 $1 Rounding radius*
0 $2 $3 $4 $5 $6 $7 $8 $9 X,Y pos of 4 corners*
0 Add a 4 corners polygon primitive as box body*
4,1,4,$2,$3,$4,$5,$6,$7,$8,$9,$2,$3,0*
0 Add four circle primitives for the rounded corners*
1,1,$1+$1,$2,$3*
1,1,$1+$1,$4,$5*
1,1,$1+$1,$6,$7*
1,1,$1+$1,$8,$9*
0 Add four rect primitives between the rounded corners*
20,1,$1+$1,$2,$3,$4,$5,0*
20,1,$1+$1,$4,$5,$6,$7,0*
20,1,$1+$1,$6,$7,$8,$9,0*
20,1,$1+$1,$8,$9,$2,$3,0*%
G04 Aperture macros list end*
%TA.AperFunction,SMDPad,CuDef*%
%ADD10RoundRect,0.200000X-0.275000X0.200000X-0.275000X-0.200000X0.275000X-0.200000X0.275000X0.200000X0*%
%TD*%
%TA.AperFunction,SMDPad,CuDef*%
%ADD11RoundRect,0.200000X0.275000X-0.200000X0.275000X0.200000X-0.275000X0.200000X-0.275000X-0.200000X0*%
%TD*%
%TA.AperFunction,SMDPad,CuDef*%
%ADD12RoundRect,0.250000X0.475000X-0.250000X0.475000X0.250000X-0.475000X0.250000X-0.475000X-0.250000X0*%
%TD*%
%TA.AperFunction,SMDPad,CuDef*%
%ADD13R,2.580000X1.000000*%
%TD*%
%TA.AperFunction,SMDPad,CuDef*%
%ADD14RoundRect,0.137500X-0.612500X-0.137500X0.612500X-0.137500X0.612500X0.137500X-0.612500X0.137500X0*%
%TD*%
%TA.AperFunction,SMDPad,CuDef*%
%ADD15RoundRect,0.200000X0.200000X0.275000X-0.200000X0.275000X-0.200000X-0.275000X0.200000X-0.275000X0*%
%TD*%
%TA.AperFunction,SMDPad,CuDef*%
%ADD16RoundRect,0.150000X0.825000X0.150000X-0.825000X0.150000X-0.825000X-0.150000X0.825000X-0.150000X0*%
%TD*%
%TA.AperFunction,SMDPad,CuDef*%
%ADD17RoundRect,0.225000X0.225000X0.250000X-0.225000X0.250000X-0.225000X-0.250000X0.225000X-0.250000X0*%
%TD*%
%TA.AperFunction,SMDPad,CuDef*%
%ADD18RoundRect,0.225000X0.250000X-0.225000X0.250000X0.225000X-0.250000X0.225000X-0.250000X-0.225000X0*%
%TD*%
%TA.AperFunction,ViaPad*%
%ADD19C,0.600000*%
%TD*%
%TA.AperFunction,Conductor*%
%ADD20C,0.500000*%
%TD*%
%TA.AperFunction,Conductor*%
%ADD21C,0.200000*%
%TD*%
%TA.AperFunction,Conductor*%
%ADD22C,0.400000*%
%TD*%
%TA.AperFunction,Conductor*%
%ADD23C,0.800000*%
%TD*%
%TA.AperFunction,Conductor*%
%ADD24C,0.250000*%
%TD*%
G04 APERTURE END LIST*
D10*
%TO.P,R2,1*%
%TO.N,Net-(U3-PD6{slash}PA1)*%
X22500000Y-3675000D03*
%TO.P,R2,2*%
%TO.N,Net-(U4-RO)*%
X22500000Y-5325000D03*
%TD*%
D11*
%TO.P,R7,1*%
%TO.N,+3V3*%
X49250000Y-6825000D03*
%TO.P,R7,2*%
%TO.N,/SDA*%
X49250000Y-5175000D03*
%TD*%
D12*
%TO.P,J3,1,Pin_1*%
%TO.N,GND*%
X45000000Y-4000000D03*
%TO.P,J3,2,Pin_2*%
%TO.N,Net-(J3-Pin_2)*%
X45000000Y-2100000D03*
%TD*%
D13*
%TO.P,J1,1,Pin_1*%
%TO.N,GND*%
X2915000Y-3000000D03*
%TO.P,J1,2,Pin_2*%
%TO.N,Net-(J1-Pin_2)*%
X7085000Y-3000000D03*
%TO.P,J1,3,Pin_3*%
%TO.N,Net-(J1-Pin_3)*%
X2915000Y-5000000D03*
%TO.P,J1,4,Pin_4*%
%TO.N,+12V*%
X7085000Y-5000000D03*
%TD*%
D10*
%TO.P,R3,1*%
%TO.N,Net-(J1-Pin_3)*%
X12500000Y-3925000D03*
%TO.P,R3,2*%
%TO.N,Net-(J1-Pin_2)*%
X12500000Y-5575000D03*
%TD*%
D14*
%TO.P,U3,1,UTX_2*%
%TO.N,Net-(U3-PD6{slash}PA1)*%
X37350000Y-2095000D03*
%TO.P,U3,2,VSS*%
%TO.N,GND*%
X37350000Y-3365000D03*
%TO.P,U3,3,PA2*%
%TO.N,Net-(U3-PA2)*%
X37350000Y-4635000D03*
%TO.P,U3,4,VDD*%
%TO.N,+3V3*%
X37350000Y-5905000D03*
%TO.P,U3,5,SDA*%
%TO.N,/SDA*%
X42650000Y-5905000D03*
%TO.P,U3,6,SCL*%
%TO.N,/SCL*%
X42650000Y-4635000D03*
%TO.P,U3,7,PC4*%
%TO.N,unconnected-(U3-PC4-Pad7)*%
X42650000Y-3365000D03*
%TO.P,U3,8,SWIO*%
%TO.N,Net-(J3-Pin_2)*%
X42650000Y-2095000D03*
%TD*%
D11*
%TO.P,R6,1*%
%TO.N,+3V3*%
X47750000Y-6825000D03*
%TO.P,R6,2*%
%TO.N,/SCL*%
X47750000Y-5175000D03*
%TD*%
D13*
%TO.P,J2,1,Pin_1*%
%TO.N,GND*%
X52915000Y-3000000D03*
%TO.P,J2,2,Pin_2*%
%TO.N,/SCL*%
X57085000Y-3000000D03*
%TO.P,J2,3,Pin_3*%
%TO.N,/SDA*%
X52915000Y-5000000D03*
%TO.P,J2,4,Pin_4*%
%TO.N,+3V3*%
X57085000Y-5000000D03*
%TD*%
D15*
%TO.P,R4,1*%
%TO.N,+5V*%
X12575000Y-2500000D03*
%TO.P,R4,2*%
%TO.N,Net-(J1-Pin_3)*%
X10925000Y-2500000D03*
%TD*%
D16*
%TO.P,U4,1,RO*%
%TO.N,Net-(U4-RO)*%
X19450000Y-6405000D03*
%TO.P,U4,2,~{RE}*%
%TO.N,Net-(U3-PA2)*%
X19450000Y-5135000D03*
%TO.P,U4,3,DE*%
X19450000Y-3865000D03*
%TO.P,U4,4,DI*%
%TO.N,Net-(U3-PD6{slash}PA1)*%
X19450000Y-2595000D03*
%TO.P,U4,5,GND*%
%TO.N,GND*%
X14500000Y-2595000D03*
%TO.P,U4,6,A*%
%TO.N,Net-(J1-Pin_3)*%
X14500000Y-3865000D03*
%TO.P,U4,7,B*%
%TO.N,Net-(J1-Pin_2)*%
X14500000Y-5135000D03*
%TO.P,U4,8,VCC*%
%TO.N,+5V*%
X14500000Y-6405000D03*
%TD*%
D17*
%TO.P,C6,2*%
%TO.N,GND*%
X10975000Y-1000000D03*
%TO.P,C6,1*%
%TO.N,+5V*%
X12525000Y-1000000D03*
%TD*%
D18*
%TO.P,C5,1*%
%TO.N,+3V3*%
X35000000Y-5525000D03*
%TO.P,C5,2*%
%TO.N,GND*%
X35000000Y-3975000D03*
%TD*%
D11*
%TO.P,R5,1*%
%TO.N,Net-(J1-Pin_2)*%
X11000000Y-5575000D03*
%TO.P,R5,2*%
%TO.N,GND*%
X11000000Y-3925000D03*
%TD*%
D19*
%TO.N,+3V3*%
X35000000Y-6950000D03*
X37250000Y-7200000D03*
%TO.N,GND*%
X26500000Y-800000D03*
X31000000Y-800000D03*
%TO.N,+12V*%
X5250000Y-5750000D03*
%TO.N,GND*%
X800000Y-800000D03*
%TO.N,+3V3*%
X26400000Y-7200000D03*
%TO.N,+12V*%
X5500000Y-7000000D03*
%TO.N,+5V*%
X17750000Y-7000000D03*
%TO.N,GND*%
X48750000Y-2500000D03*
X40000000Y-3250000D03*
X59000000Y-1000000D03*
X53000000Y-1000000D03*
X40000000Y-1000000D03*
X28500000Y-800000D03*
%TO.N,+3V3*%
X33000000Y-7000000D03*
X28600000Y-7200000D03*
X31100000Y-7200000D03*
%TO.N,GND*%
X33000000Y-3500000D03*
X32299997Y-3500000D03*
X5750000Y-1000000D03*
X13750000Y-1750000D03*
X10226032Y-3271520D03*
X14450003Y-1750000D03*
X5000000Y-1000000D03*
X4250000Y-1000000D03*
%TO.N,+3V3*%
X33000000Y-5500000D03*
X32350000Y-5500000D03*
%TO.N,+5V*%
X16500000Y-6500000D03*
X17200003Y-6500000D03*
%TO.N,+12V*%
X7100000Y-7050000D03*
X6750000Y-6500000D03*
X7450000Y-6500000D03*
%TD*%
D20*
%TO.N,+3V3*%
X37350000Y-5905000D02*
X39905000Y-5905000D01*
X39905000Y-5905000D02*
X41000000Y-7000000D01*
X41000000Y-7000000D02*
X54250000Y-7000000D01*
X55000000Y-6250000D02*
X55000000Y-5000000D01*
X54250000Y-7000000D02*
X55000000Y-6250000D01*
X55000000Y-5000000D02*
X57085000Y-5000000D01*
%TO.N,GND*%
X37350000Y-3365000D02*
X36385000Y-3365000D01*
X36385000Y-3365000D02*
X35750000Y-4000000D01*
X35750000Y-4000000D02*
X35025000Y-4000000D01*
D21*
%TO.N,Net-(U3-PA2)*%
X35800000Y-4750000D02*
X34250000Y-4750000D01*
D22*
X37118000Y-4635000D02*
X35800000Y-4750000D01*
D20*
%TO.N,GND*%
X2915000Y-3000000D02*
X2915000Y-1585000D01*
X2915000Y-1585000D02*
X3500000Y-1000000D01*
X3500000Y-1000000D02*
X4915000Y-1000000D01*
X14450003Y-1750000D02*
X14250000Y-1950003D01*
X14250000Y-1950003D02*
X14250000Y-2345000D01*
X14450003Y-1750000D02*
X13750000Y-1750000D01*
%TO.N,+5V*%
X16500000Y-6500000D02*
X17200003Y-6500000D01*
%TO.N,+3V3*%
X33000000Y-5500000D02*
X32350000Y-5500000D01*
%TO.N,GND*%
X33000000Y-3500000D02*
X32299997Y-3500000D01*
X41500000Y-4000000D02*
X41375000Y-4000000D01*
X41375000Y-4000000D02*
X40740000Y-3365000D01*
X40740000Y-3365000D02*
X37350000Y-3365000D01*
%TO.N,+5V*%
X16250000Y-6250000D02*
X16250000Y-2000000D01*
X16250000Y-2000000D02*
X15250000Y-1000000D01*
X15250000Y-1000000D02*
X12525000Y-1000000D01*
%TO.N,Net-(J1-Pin_3)*%
X12500000Y-3925000D02*
X12560000Y-3865000D01*
X12560000Y-3865000D02*
X14380000Y-3865000D01*
X14380000Y-3865000D02*
X14440000Y-3925000D01*
%TO.N,GND*%
X11000000Y-3925000D02*
X10925000Y-3925000D01*
X10925000Y-3925000D02*
X10250000Y-3250000D01*
%TO.N,Net-(J1-Pin_2)*%
X10850000Y-5575000D02*
X10075000Y-5575000D01*
X10075000Y-5575000D02*
X9000000Y-4500000D01*
X9000000Y-4500000D02*
X9000000Y-3500000D01*
X9000000Y-3500000D02*
X8500000Y-3000000D01*
X8500000Y-3000000D02*
X7085000Y-3000000D01*
D22*
X14500000Y-5135000D02*
X13365000Y-5135000D01*
X13365000Y-5135000D02*
X12925000Y-5575000D01*
D21*
X12925000Y-5575000D02*
X12500000Y-5575000D01*
%TO.N,Net-(U3-PA2)*%
X23500000Y-4500000D02*
X21750000Y-4500000D01*
D20*
%TO.N,GND*%
X5750000Y-1000000D02*
X10725000Y-1000000D01*
X34975000Y-4000000D02*
X34000000Y-4000000D01*
X48000000Y-3000000D02*
X47000000Y-4000000D01*
D21*
X4915000Y-1000000D02*
X5000000Y-1000000D01*
D20*
X52915000Y-3000000D02*
X48000000Y-3000000D01*
X5000000Y-1000000D02*
X5750000Y-1000000D01*
X33500000Y-3500000D02*
X33000000Y-3500000D01*
D21*
X35025000Y-4000000D02*
X35000000Y-3975000D01*
D20*
X47000000Y-4000000D02*
X43750000Y-4000000D01*
D21*
X35000000Y-3975000D02*
X34975000Y-4000000D01*
X14250000Y-2345000D02*
X14500000Y-2595000D01*
D20*
X34000000Y-4000000D02*
X33500000Y-3500000D01*
D21*
X43750000Y-4000000D02*
X41500000Y-4000000D01*
%TO.N,+3V3*%
X35000000Y-5525000D02*
X34975000Y-5550000D01*
X33000000Y-5500000D02*
X32750000Y-5500000D01*
D20*
X33500000Y-5500000D02*
X33000000Y-5500000D01*
D21*
X35025000Y-5550000D02*
X35000000Y-5525000D01*
D20*
X36050000Y-5550000D02*
X35025000Y-5550000D01*
X36405000Y-5905000D02*
X36050000Y-5550000D01*
X34975000Y-5550000D02*
X33550000Y-5550000D01*
X37350000Y-5905000D02*
X36405000Y-5905000D01*
X33550000Y-5550000D02*
X33500000Y-5500000D01*
%TO.N,+5V*%
X16250000Y-6250000D02*
X16500000Y-6500000D01*
D21*
X12575000Y-1050000D02*
X12525000Y-1000000D01*
D20*
X12575000Y-2500000D02*
X12575000Y-1050000D01*
D21*
X16500000Y-6500000D02*
X16405000Y-6405000D01*
D20*
X15905000Y-6405000D02*
X16250000Y-6060000D01*
X16250000Y-6000000D02*
X16250000Y-6250000D01*
X14000000Y-6405000D02*
X15905000Y-6405000D01*
X16250000Y-6060000D02*
X16250000Y-6000000D01*
D23*
%TO.N,+12V*%
X7085000Y-6665000D02*
X7085000Y-5000000D01*
D20*
X6750000Y-6500000D02*
X7000000Y-6750000D01*
X7000000Y-6750000D02*
X7085000Y-6665000D01*
%TO.N,Net-(J1-Pin_3)*%
X2915000Y-5000000D02*
X4295000Y-5000000D01*
X10000000Y-2500000D02*
X9500000Y-2000000D01*
X5000000Y-2500000D02*
X5500000Y-2000000D01*
X5000000Y-4295000D02*
X5000000Y-2500000D01*
D21*
X14440000Y-3925000D02*
X14500000Y-3865000D01*
D20*
X4295000Y-5000000D02*
X5000000Y-4295000D01*
X10925000Y-2500000D02*
X10000000Y-2500000D01*
D21*
X10925000Y-2500000D02*
X11075000Y-2500000D01*
D20*
X9500000Y-2000000D02*
X8750000Y-2000000D01*
X11075000Y-2500000D02*
X12500000Y-3925000D01*
X5500000Y-2000000D02*
X8742100Y-2000000D01*
%TO.N,Net-(J1-Pin_2)*%
X12500000Y-5575000D02*
X11000000Y-5575000D01*
%TO.N,/SDA*%
X50575000Y-5175000D02*
X50750000Y-5000000D01*
X42745000Y-6000000D02*
X47000000Y-6000000D01*
D22*
X47000000Y-6000000D02*
X48500000Y-6000000D01*
D20*
X49325000Y-5175000D02*
X50575000Y-5175000D01*
D21*
X42650000Y-5905000D02*
X42745000Y-6000000D01*
D20*
X48500000Y-6000000D02*
X49325000Y-5175000D01*
X50750000Y-5000000D02*
X52915000Y-5000000D01*
D22*
%TO.N,/SCL*%
X43925000Y-5175000D02*
X44310000Y-5175000D01*
D20*
X55500000Y-3000000D02*
X57085000Y-3000000D01*
D22*
X43385000Y-4635000D02*
X43925000Y-5175000D01*
D20*
X49000000Y-4000000D02*
X54500000Y-4000000D01*
X44310000Y-5175000D02*
X47825000Y-5175000D01*
X47825000Y-5175000D02*
X49000000Y-4000000D01*
D22*
X42650000Y-4635000D02*
X43385000Y-4635000D01*
D20*
X54500000Y-4000000D02*
X55500000Y-3000000D01*
%TO.N,Net-(J3-Pin_2)*%
X42650000Y-2095000D02*
X44955000Y-2095000D01*
D21*
X44955000Y-2095000D02*
X45000000Y-2050000D01*
D20*
%TO.N,Net-(U3-PD6{slash}PA1)*%
X20920000Y-2595000D02*
X18950000Y-2595000D01*
X22000000Y-3675000D02*
X20920000Y-2595000D01*
X31905000Y-2095000D02*
X30325000Y-3675000D01*
X37350000Y-2095000D02*
X31905000Y-2095000D01*
X30325000Y-3675000D02*
X22000000Y-3675000D01*
%TO.N,Net-(U4-RO)*%
X22000000Y-5325000D02*
X20920000Y-6405000D01*
X20920000Y-6405000D02*
X18950000Y-6405000D01*
%TO.N,Net-(U3-PA2)*%
X34250000Y-4750000D02*
X23750000Y-4750000D01*
X23750000Y-4750000D02*
X23500000Y-4500000D01*
D21*
X37350000Y-4635000D02*
X37234000Y-4751000D01*
D24*
X37234000Y-4751000D02*
X37233000Y-4750000D01*
D22*
X20500000Y-4500000D02*
X19865000Y-5135000D01*
X20500000Y-4500000D02*
X19865000Y-3865000D01*
D21*
X19865000Y-5135000D02*
X18950000Y-5135000D01*
X37233000Y-4750000D02*
X37118000Y-4635000D01*
D20*
X21750000Y-4500000D02*
X20500000Y-4500000D01*
D21*
X19865000Y-3865000D02*
X18950000Y-3865000D01*
%TD*%
%TA.AperFunction,Conductor*%
%TO.N,GND*%
G36*
X9975279Y-520185D02*
G01*
X10021034Y-572989D01*
X10031598Y-637103D01*
X10025000Y-701677D01*
X10025000Y-750000D01*
X10851000Y-750000D01*
X10918039Y-769685D01*
X10963794Y-822489D01*
X10975000Y-874000D01*
X10975000Y-1126000D01*
X10955315Y-1193039D01*
X10902511Y-1238794D01*
X10851000Y-1250000D01*
X10025001Y-1250000D01*
X10012342Y-1262658D01*
X10005316Y-1286587D01*
X9952512Y-1332342D01*
X9883354Y-1342286D01*
X9853549Y-1334109D01*
X9718917Y-1278343D01*
X9718907Y-1278340D01*
X9573920Y-1249500D01*
X9573918Y-1249500D01*
X8816018Y-1249500D01*
X5426082Y-1249500D01*
X5426080Y-1249500D01*
X5281092Y-1278340D01*
X5281086Y-1278342D01*
X5144508Y-1334914D01*
X5144496Y-1334921D01*
X5095269Y-1367813D01*
X5021588Y-1417044D01*
X5021580Y-1417050D01*
X4456019Y-1982611D01*
X4394696Y-2016096D01*
X4325005Y-2011112D01*
X4312380Y-2006403D01*
X4312372Y-2006401D01*
X4252844Y-2000000D01*
X3165000Y-2000000D01*
X3165000Y-2876000D01*
X3145315Y-2943039D01*
X3092511Y-2988794D01*
X3041000Y-3000000D01*
X2915000Y-3000000D01*
X2915000Y-3126000D01*
X2895315Y-3193039D01*
X2842511Y-3238794D01*
X2791000Y-3250000D01*
X1125000Y-3250000D01*
X1125000Y-3547844D01*
X1131401Y-3607372D01*
X1131403Y-3607379D01*
X1181645Y-3742086D01*
X1181649Y-3742093D01*
X1267809Y-3857186D01*
X1325561Y-3900420D01*
X1367432Y-3956354D01*
X1372416Y-4026046D01*
X1338931Y-4087369D01*
X1325563Y-4098952D01*
X1267454Y-4142453D01*
X1267452Y-4142455D01*
X1181206Y-4257664D01*
X1181202Y-4257671D01*
X1130908Y-4392517D01*
X1124501Y-4452116D01*
X1124500Y-4452135D01*
X1124500Y-5547870D01*
X1124501Y-5547876D01*
X1130908Y-5607483D01*
X1181202Y-5742328D01*
X1181206Y-5742335D01*
X1267452Y-5857544D01*
X1267455Y-5857547D01*
X1382664Y-5943793D01*
X1382671Y-5943797D01*
X1517517Y-5994091D01*
X1517516Y-5994091D01*
X1524444Y-5994835D01*
X1577127Y-6000500D01*
X4252872Y-6000499D01*
X4312483Y-5994091D01*
X4332667Y-5986563D01*
X4402358Y-5981579D01*
X4463681Y-6015064D01*
X4497166Y-6076387D01*
X4500000Y-6102745D01*
X4500000Y-7375500D01*
X4480315Y-7442539D01*
X4427511Y-7488294D01*
X4376000Y-7499500D01*
X624500Y-7499500D01*
X557461Y-7479815D01*
X511706Y-7427011D01*
X500500Y-7375500D01*
X500500Y-2452155D01*
X1125000Y-2452155D01*
X1125000Y-2750000D01*
X2665000Y-2750000D01*
X2665000Y-2000000D01*
X1577155Y-2000000D01*
X1517627Y-2006401D01*
X1517620Y-2006403D01*
X1382913Y-2056645D01*
X1382906Y-2056649D01*
X1267812Y-2142809D01*
X1267809Y-2142812D01*
X1181649Y-2257906D01*
X1181645Y-2257913D01*
X1131403Y-2392620D01*
X1131401Y-2392627D01*
X1125000Y-2452155D01*
X500500Y-2452155D01*
X500500Y-624500D01*
X520185Y-557461D01*
X572989Y-511706D01*
X624500Y-500500D01*
X9908240Y-500500D01*
X9975279Y-520185D01*
G37*
%TD.AperFunction*%
%TD*%
%TA.AperFunction,Conductor*%
%TO.N,+12V*%
G36*
X7278039Y-5019685D02*
G01*
X7323794Y-5072489D01*
X7335000Y-5124000D01*
X7335000Y-6000000D01*
X8422828Y-6000000D01*
X8422844Y-5999999D01*
X8482372Y-5993598D01*
X8482379Y-5993596D01*
X8617086Y-5943354D01*
X8617093Y-5943350D01*
X8732187Y-5857190D01*
X8732190Y-5857187D01*
X8818350Y-5742093D01*
X8818355Y-5742084D01*
X8849364Y-5658943D01*
X8891234Y-5603009D01*
X8956698Y-5578591D01*
X9024971Y-5593442D01*
X9053225Y-5614592D01*
X9492049Y-6053416D01*
X9596584Y-6157951D01*
X9596587Y-6157953D01*
X9596588Y-6157954D01*
X9719494Y-6240077D01*
X9719498Y-6240079D01*
X9719505Y-6240084D01*
X9758717Y-6256326D01*
X9856088Y-6296659D01*
X9957320Y-6316795D01*
X9994002Y-6324091D01*
X10001081Y-6325500D01*
X10001082Y-6325500D01*
X10001083Y-6325500D01*
X10025844Y-6325500D01*
X10056760Y-6329415D01*
X10515621Y-6447559D01*
X10539095Y-6451786D01*
X10553997Y-6455435D01*
X10597804Y-6469086D01*
X10668384Y-6475500D01*
X10668387Y-6475500D01*
X11331613Y-6475500D01*
X11331616Y-6475500D01*
X11402196Y-6469086D01*
X11452725Y-6453339D01*
X11476094Y-6448466D01*
X11484378Y-6447559D01*
X11719083Y-6387129D01*
X11780915Y-6387129D01*
X12015621Y-6447559D01*
X12039095Y-6451786D01*
X12053997Y-6455435D01*
X12097804Y-6469086D01*
X12168384Y-6475500D01*
X12168387Y-6475500D01*
X12831612Y-6475500D01*
X12831616Y-6475500D01*
X12864778Y-6472486D01*
X12933323Y-6486022D01*
X12983669Y-6534468D01*
X13000000Y-6595977D01*
X13000000Y-7375500D01*
X12980315Y-7442539D01*
X12927511Y-7488294D01*
X12876000Y-7499500D01*
X5124000Y-7499500D01*
X5056961Y-7479815D01*
X5011206Y-7427011D01*
X5000000Y-7375500D01*
X5000000Y-5407729D01*
X5008644Y-5378289D01*
X5015167Y-5348304D01*
X5018922Y-5343286D01*
X5019685Y-5340690D01*
X5036312Y-5320054D01*
X5065354Y-5291012D01*
X5075023Y-5282481D01*
X5074990Y-5282442D01*
X5076916Y-5280811D01*
X5076930Y-5280798D01*
X5076956Y-5280779D01*
X5078438Y-5279525D01*
X5082268Y-5275601D01*
X5143182Y-5241380D01*
X5212929Y-5245523D01*
X5269364Y-5286717D01*
X5294568Y-5351882D01*
X5295000Y-5362219D01*
X5295000Y-5547844D01*
X5301401Y-5607372D01*
X5301403Y-5607379D01*
X5351645Y-5742086D01*
X5351649Y-5742093D01*
X5437809Y-5857187D01*
X5437812Y-5857190D01*
X5552906Y-5943350D01*
X5552913Y-5943354D01*
X5687620Y-5993596D01*
X5687627Y-5993598D01*
X5747155Y-5999999D01*
X5747172Y-6000000D01*
X6835000Y-6000000D01*
X6835000Y-5124000D01*
X6854685Y-5056961D01*
X6907489Y-5011206D01*
X6959000Y-5000000D01*
X7211000Y-5000000D01*
X7278039Y-5019685D01*
G37*
%TD.AperFunction*%
%TD*%
%TA.AperFunction,Conductor*%
%TO.N,+5V*%
G36*
X25193039Y-520185D02*
G01*
X25238794Y-572989D01*
X25250000Y-624500D01*
X25250000Y-2800500D01*
X25230315Y-2867539D01*
X25177511Y-2913294D01*
X25126000Y-2924500D01*
X23252977Y-2924500D01*
X23188828Y-2906617D01*
X23064606Y-2831522D01*
X22902196Y-2780914D01*
X22902194Y-2780913D01*
X22902192Y-2780913D01*
X22852778Y-2776423D01*
X22831616Y-2774500D01*
X22212229Y-2774500D01*
X22145190Y-2754815D01*
X22124548Y-2738181D01*
X21398421Y-2012052D01*
X21398414Y-2012046D01*
X21324729Y-1962812D01*
X21324729Y-1962813D01*
X21275491Y-1929913D01*
X21138917Y-1873343D01*
X21138907Y-1873340D01*
X20993920Y-1844500D01*
X20993918Y-1844500D01*
X20798048Y-1844500D01*
X20774893Y-1841549D01*
X20774767Y-1842236D01*
X20770416Y-1841434D01*
X20387240Y-1798860D01*
X20387234Y-1798859D01*
X20379701Y-1798021D01*
X20377569Y-1797402D01*
X20365753Y-1796471D01*
X20363762Y-1796250D01*
X20333544Y-1792893D01*
X20333536Y-1792893D01*
X20275668Y-1793128D01*
X20217792Y-1793364D01*
X20217791Y-1793364D01*
X20215611Y-1793625D01*
X20200908Y-1794500D01*
X18559298Y-1794500D01*
X18522432Y-1797401D01*
X18522426Y-1797402D01*
X18364606Y-1843254D01*
X18364603Y-1843255D01*
X18223137Y-1926917D01*
X18223129Y-1926923D01*
X18106923Y-2043129D01*
X18106917Y-2043137D01*
X18023255Y-2184603D01*
X18023254Y-2184606D01*
X17977402Y-2342426D01*
X17977401Y-2342432D01*
X17974500Y-2379298D01*
X17974500Y-2810701D01*
X17977401Y-2847567D01*
X17977402Y-2847573D01*
X18023254Y-3005393D01*
X18023255Y-3005396D01*
X18023256Y-3005398D01*
X18036518Y-3027823D01*
X18106917Y-3146862D01*
X18111702Y-3153031D01*
X18109256Y-3154927D01*
X18135857Y-3203642D01*
X18130873Y-3273334D01*
X18110069Y-3305703D01*
X18111702Y-3306969D01*
X18106917Y-3313137D01*
X18023255Y-3454603D01*
X18023254Y-3454606D01*
X17977402Y-3612426D01*
X17977401Y-3612432D01*
X17974500Y-3649298D01*
X17974500Y-4080701D01*
X17977401Y-4117567D01*
X17977402Y-4117573D01*
X18023254Y-4275393D01*
X18023255Y-4275396D01*
X18106917Y-4416862D01*
X18111702Y-4423031D01*
X18109256Y-4424927D01*
X18135857Y-4473642D01*
X18130873Y-4543334D01*
X18110069Y-4575703D01*
X18111702Y-4576969D01*
X18106917Y-4583137D01*
X18023255Y-4724603D01*
X18023254Y-4724606D01*
X17977402Y-4882426D01*
X17977401Y-4882432D01*
X17974500Y-4919298D01*
X17974500Y-5350701D01*
X17977401Y-5387567D01*
X17977402Y-5387573D01*
X18023254Y-5545393D01*
X18023255Y-5545396D01*
X18106917Y-5686862D01*
X18111702Y-5693031D01*
X18109256Y-5694927D01*
X18135857Y-5743642D01*
X18130873Y-5813334D01*
X18110069Y-5845703D01*
X18111702Y-5846969D01*
X18106917Y-5853137D01*
X18023255Y-5994603D01*
X18023254Y-5994606D01*
X17977402Y-6152426D01*
X17977401Y-6152432D01*
X17974500Y-6189298D01*
X17974500Y-6620701D01*
X17977401Y-6657567D01*
X17977402Y-6657573D01*
X18023254Y-6815393D01*
X18023255Y-6815396D01*
X18106917Y-6956862D01*
X18106923Y-6956870D01*
X18223129Y-7073076D01*
X18223133Y-7073079D01*
X18223135Y-7073081D01*
X18364602Y-7156744D01*
X18406224Y-7168836D01*
X18522426Y-7202597D01*
X18522429Y-7202597D01*
X18522431Y-7202598D01*
X18559306Y-7205500D01*
X20210400Y-7205500D01*
X20212514Y-7206003D01*
X20217800Y-7206634D01*
X20333541Y-7207106D01*
X20365721Y-7203530D01*
X20375938Y-7202726D01*
X20377559Y-7202599D01*
X20377561Y-7202598D01*
X20377569Y-7202598D01*
X20377576Y-7202595D01*
X20378649Y-7202400D01*
X20387238Y-7201139D01*
X20770416Y-7158564D01*
X20784323Y-7156653D01*
X20801197Y-7155500D01*
X20993920Y-7155500D01*
X21091462Y-7136096D01*
X21138913Y-7126658D01*
X21275495Y-7070084D01*
X21324729Y-7037186D01*
X21398416Y-6987952D01*
X22124547Y-6261818D01*
X22185870Y-6228334D01*
X22212228Y-6225500D01*
X22831613Y-6225500D01*
X22831616Y-6225500D01*
X22902196Y-6219086D01*
X23064606Y-6168478D01*
X23210185Y-6080472D01*
X23330472Y-5960185D01*
X23418478Y-5814606D01*
X23469086Y-5652196D01*
X23473825Y-5600037D01*
X23499495Y-5535057D01*
X23556223Y-5494268D01*
X23621507Y-5489644D01*
X23660356Y-5497371D01*
X23676081Y-5500500D01*
X25126000Y-5500500D01*
X25193039Y-5520185D01*
X25238794Y-5572989D01*
X25250000Y-5624500D01*
X25250000Y-7375500D01*
X25230315Y-7442539D01*
X25177511Y-7488294D01*
X25126000Y-7499500D01*
X13624000Y-7499500D01*
X13615314Y-7496949D01*
X13606353Y-7498238D01*
X13582312Y-7487259D01*
X13556961Y-7479815D01*
X13551033Y-7472974D01*
X13542797Y-7469213D01*
X13528507Y-7446978D01*
X13511206Y-7427011D01*
X13508918Y-7416496D01*
X13505023Y-7410435D01*
X13500000Y-7375500D01*
X13500000Y-7329000D01*
X13519685Y-7261961D01*
X13572489Y-7216206D01*
X13624000Y-7205000D01*
X14250000Y-7205000D01*
X14750000Y-7205000D01*
X15390634Y-7205000D01*
X15390649Y-7204999D01*
X15427489Y-7202100D01*
X15427495Y-7202099D01*
X15585193Y-7156283D01*
X15585196Y-7156282D01*
X15726552Y-7072685D01*
X15726561Y-7072678D01*
X15842678Y-6956561D01*
X15842685Y-6956552D01*
X15926281Y-6815198D01*
X15972100Y-6657486D01*
X15972295Y-6655001D01*
X15972295Y-6655000D01*
X14750000Y-6655000D01*
X14750000Y-7205000D01*
X14250000Y-7205000D01*
X14250000Y-6529000D01*
X14269685Y-6461961D01*
X14322489Y-6416206D01*
X14374000Y-6405000D01*
X14500000Y-6405000D01*
X14500000Y-6279000D01*
X14519685Y-6211961D01*
X14572489Y-6166206D01*
X14624000Y-6155000D01*
X15972295Y-6155000D01*
X15972295Y-6154998D01*
X15972100Y-6152513D01*
X15926281Y-5994801D01*
X15842685Y-5853447D01*
X15837900Y-5847278D01*
X15840366Y-5845364D01*
X15813802Y-5796776D01*
X15818749Y-5727082D01*
X15839856Y-5694232D01*
X15838301Y-5693026D01*
X15843077Y-5686868D01*
X15843081Y-5686865D01*
X15926744Y-5545398D01*
X15972598Y-5387569D01*
X15975500Y-5350694D01*
X15975500Y-4919306D01*
X15972598Y-4882431D01*
X15955767Y-4824500D01*
X15926745Y-4724606D01*
X15926744Y-4724603D01*
X15926744Y-4724602D01*
X15843081Y-4583135D01*
X15843078Y-4583132D01*
X15838298Y-4576969D01*
X15840750Y-4575066D01*
X15814155Y-4526421D01*
X15819104Y-4456726D01*
X15839940Y-4424304D01*
X15838298Y-4423031D01*
X15843075Y-4416870D01*
X15843081Y-4416865D01*
X15926744Y-4275398D01*
X15972598Y-4117569D01*
X15975500Y-4080694D01*
X15975500Y-3649306D01*
X15972598Y-3612431D01*
X15926744Y-3454602D01*
X15843081Y-3313135D01*
X15843078Y-3313132D01*
X15838298Y-3306969D01*
X15840750Y-3305066D01*
X15814155Y-3256421D01*
X15819104Y-3186726D01*
X15839940Y-3154304D01*
X15838298Y-3153031D01*
X15843075Y-3146870D01*
X15843081Y-3146865D01*
X15926744Y-3005398D01*
X15972598Y-2847569D01*
X15975500Y-2810694D01*
X15975500Y-2379306D01*
X15972598Y-2342431D01*
X15926744Y-2184602D01*
X15843081Y-2043135D01*
X15843079Y-2043133D01*
X15843076Y-2043129D01*
X15726870Y-1926923D01*
X15726862Y-1926917D01*
X15648681Y-1880681D01*
X15585398Y-1843256D01*
X15585397Y-1843255D01*
X15585396Y-1843255D01*
X15585393Y-1843254D01*
X15427573Y-1797402D01*
X15427567Y-1797401D01*
X15390701Y-1794500D01*
X15390694Y-1794500D01*
X15374503Y-1794500D01*
X15307464Y-1774815D01*
X15261709Y-1722011D01*
X15251946Y-1677134D01*
X15251100Y-1677218D01*
X15250503Y-1671163D01*
X15250503Y-1671158D01*
X15219740Y-1516503D01*
X15219738Y-1516498D01*
X15159400Y-1370827D01*
X15159393Y-1370814D01*
X15071792Y-1239711D01*
X15071789Y-1239707D01*
X14960295Y-1128213D01*
X14960291Y-1128210D01*
X14829188Y-1040609D01*
X14829175Y-1040602D01*
X14683504Y-980264D01*
X14683492Y-980261D01*
X14528848Y-949500D01*
X14528845Y-949500D01*
X14371161Y-949500D01*
X14371155Y-949500D01*
X14366563Y-950414D01*
X14352267Y-952401D01*
X14343686Y-953087D01*
X14339507Y-952835D01*
X14110056Y-971781D01*
X14109889Y-971795D01*
X14109764Y-971769D01*
X14089795Y-971769D01*
X13860500Y-952835D01*
X13848014Y-952108D01*
X13831042Y-949937D01*
X13828848Y-949500D01*
X13828842Y-949500D01*
X13671158Y-949500D01*
X13623189Y-959041D01*
X13604250Y-957345D01*
X13585533Y-960690D01*
X13570169Y-954295D01*
X13553597Y-952812D01*
X13538582Y-941148D01*
X13521027Y-933841D01*
X13511560Y-920155D01*
X13498420Y-909948D01*
X13492094Y-892016D01*
X13481278Y-876380D01*
X13476818Y-848711D01*
X13475177Y-844058D01*
X13475071Y-841636D01*
X13467832Y-628713D01*
X13475523Y-598790D01*
X13481172Y-568408D01*
X13484146Y-565246D01*
X13485227Y-561044D01*
X13507874Y-540030D01*
X13529053Y-517524D01*
X13533405Y-516342D01*
X13536446Y-513521D01*
X13557947Y-509679D01*
X13591760Y-500500D01*
X25126000Y-500500D01*
X25193039Y-520185D01*
G37*
%TD.AperFunction*%
%TA.AperFunction,Conductor*%
G36*
X12718039Y-1019685D02*
G01*
X12763794Y-1072489D01*
X12775000Y-1124000D01*
X12775000Y-1395000D01*
X12788681Y-1408681D01*
X12822166Y-1470004D01*
X12825000Y-1496362D01*
X12825000Y-2376000D01*
X12805315Y-2443039D01*
X12752511Y-2488794D01*
X12701000Y-2500000D01*
X12449000Y-2500000D01*
X12381961Y-2480315D01*
X12336206Y-2427511D01*
X12325000Y-2376000D01*
X12325000Y-2105000D01*
X12311319Y-2091319D01*
X12277834Y-2029996D01*
X12275000Y-2003638D01*
X12275000Y-1124000D01*
X12294685Y-1056961D01*
X12347489Y-1011206D01*
X12399000Y-1000000D01*
X12651000Y-1000000D01*
X12718039Y-1019685D01*
G37*
%TD.AperFunction*%
%TD*%
%TA.AperFunction,Conductor*%
%TO.N,+3V3*%
G36*
X55171184Y-4492950D02*
G01*
X55238192Y-4512733D01*
X55283870Y-4565604D01*
X55295000Y-4616950D01*
X55295000Y-4750000D01*
X58875000Y-4750000D01*
X58875000Y-4629500D01*
X58894685Y-4562461D01*
X58947489Y-4516706D01*
X58999000Y-4505500D01*
X59375500Y-4505500D01*
X59442539Y-4525185D01*
X59488294Y-4577989D01*
X59499500Y-4629500D01*
X59499500Y-7375500D01*
X59479815Y-7442539D01*
X59427011Y-7488294D01*
X59375500Y-7499500D01*
X50275978Y-7499500D01*
X50208939Y-7479815D01*
X50163184Y-7427011D01*
X50153240Y-7357853D01*
X50166134Y-7321775D01*
X50164940Y-7321238D01*
X50168019Y-7314396D01*
X50218590Y-7152106D01*
X50225000Y-7081572D01*
X50225000Y-7075000D01*
X46775001Y-7075000D01*
X46775001Y-7081582D01*
X46781408Y-7152102D01*
X46781409Y-7152107D01*
X46831981Y-7314398D01*
X46835060Y-7321238D01*
X46832995Y-7322167D01*
X46847975Y-7378911D01*
X46826454Y-7445384D01*
X46772411Y-7489669D01*
X46724022Y-7499500D01*
X25874000Y-7499500D01*
X25806961Y-7479815D01*
X25761206Y-7427011D01*
X25750000Y-7375500D01*
X25750000Y-5798322D01*
X34025001Y-5798322D01*
X34035144Y-5897607D01*
X34088452Y-6058481D01*
X34088457Y-6058492D01*
X34177424Y-6202728D01*
X34177427Y-6202732D01*
X34297267Y-6322572D01*
X34297271Y-6322575D01*
X34441507Y-6411542D01*
X34441518Y-6411547D01*
X34602393Y-6464855D01*
X34701683Y-6474999D01*
X34749999Y-6474998D01*
X34750000Y-6474998D01*
X34750000Y-5775000D01*
X34025001Y-5775000D01*
X34025001Y-5798322D01*
X25750000Y-5798322D01*
X25750000Y-5624500D01*
X25769685Y-5557461D01*
X25822489Y-5511706D01*
X25874000Y-5500500D01*
X34323920Y-5500500D01*
X34365186Y-5492291D01*
X34468913Y-5471658D01*
X34468921Y-5471654D01*
X34470183Y-5471272D01*
X34476143Y-5469071D01*
X34765336Y-5375013D01*
X34765345Y-5375008D01*
X34765361Y-5375004D01*
X34767630Y-5374167D01*
X34767647Y-5374214D01*
X34774245Y-5371798D01*
X34778541Y-5370428D01*
X34781926Y-5369616D01*
X34822430Y-5356442D01*
X34822709Y-5356354D01*
X34823555Y-5356334D01*
X34860359Y-5350500D01*
X34876000Y-5350500D01*
X34890637Y-5354798D01*
X34892561Y-5354754D01*
X34894480Y-5355926D01*
X34943039Y-5370185D01*
X34988794Y-5422989D01*
X35000000Y-5474500D01*
X35000000Y-5525000D01*
X35126000Y-5525000D01*
X35193039Y-5544685D01*
X35238794Y-5597489D01*
X35250000Y-5649000D01*
X35250000Y-6474999D01*
X35298308Y-6474999D01*
X35298322Y-6474998D01*
X35397607Y-6464855D01*
X35558481Y-6411547D01*
X35558492Y-6411542D01*
X35702728Y-6322575D01*
X35702732Y-6322572D01*
X35822571Y-6202733D01*
X35878225Y-6112505D01*
X35930173Y-6065781D01*
X35999136Y-6054558D01*
X36063218Y-6082402D01*
X36102074Y-6140471D01*
X36102840Y-6143007D01*
X36147779Y-6297689D01*
X36147780Y-6297692D01*
X36229770Y-6436331D01*
X36229776Y-6436339D01*
X36343660Y-6550223D01*
X36343668Y-6550229D01*
X36482307Y-6632219D01*
X36482310Y-6632220D01*
X36636975Y-6677155D01*
X36636981Y-6677156D01*
X36673116Y-6679999D01*
X37099999Y-6679999D01*
X37600000Y-6679999D01*
X38026872Y-6679999D01*
X38026893Y-6679998D01*
X38063021Y-6677155D01*
X38217689Y-6632220D01*
X38217692Y-6632219D01*
X38356331Y-6550229D01*
X38356339Y-6550223D01*
X38470223Y-6436339D01*
X38470229Y-6436331D01*
X38552218Y-6297695D01*
X38552218Y-6297694D01*
X38593674Y-6155000D01*
X37600000Y-6155000D01*
X37600000Y-6679999D01*
X37099999Y-6679999D01*
X37100000Y-6679998D01*
X37100000Y-6029000D01*
X37119685Y-5961961D01*
X37172489Y-5916206D01*
X37224000Y-5905000D01*
X37350000Y-5905000D01*
X37350000Y-5779000D01*
X37369685Y-5711961D01*
X37422489Y-5666206D01*
X37474000Y-5655000D01*
X38593674Y-5655000D01*
X38552218Y-5512305D01*
X38552218Y-5512304D01*
X38470229Y-5373668D01*
X38470223Y-5373661D01*
X38454598Y-5358036D01*
X38421111Y-5296714D01*
X38426094Y-5227022D01*
X38454596Y-5182672D01*
X38470626Y-5166643D01*
X38552681Y-5027894D01*
X38597654Y-4873098D01*
X38600500Y-4836935D01*
X38600499Y-4629499D01*
X38620183Y-4562461D01*
X38672987Y-4516706D01*
X38724499Y-4505500D01*
X40767771Y-4505500D01*
X40792171Y-4512664D01*
X40817403Y-4515866D01*
X40828234Y-4523254D01*
X40834810Y-4525185D01*
X40847407Y-4534452D01*
X40851588Y-4537955D01*
X40896585Y-4582952D01*
X40933987Y-4607943D01*
X41019505Y-4665084D01*
X41068536Y-4685393D01*
X41068537Y-4685394D01*
X41068538Y-4685394D01*
X41156088Y-4721659D01*
X41270371Y-4744391D01*
X41301082Y-4750500D01*
X41301083Y-4750500D01*
X41301086Y-4750500D01*
X41302096Y-4750701D01*
X41329672Y-4765127D01*
X41364004Y-4783086D01*
X41398578Y-4843802D01*
X41401519Y-4862588D01*
X41402346Y-4873099D01*
X41447317Y-5027889D01*
X41447320Y-5027896D01*
X41529369Y-5166636D01*
X41529378Y-5166648D01*
X41545049Y-5182319D01*
X41578534Y-5243642D01*
X41573550Y-5313334D01*
X41545049Y-5357681D01*
X41529378Y-5373351D01*
X41529369Y-5373363D01*
X41447320Y-5512103D01*
X41447317Y-5512110D01*
X41402346Y-5666897D01*
X41402345Y-5666903D01*
X41399500Y-5703057D01*
X41399500Y-6106922D01*
X41399501Y-6106947D01*
X41402346Y-6143098D01*
X41447317Y-6297889D01*
X41447320Y-6297896D01*
X41529369Y-6436636D01*
X41529378Y-6436648D01*
X41643351Y-6550621D01*
X41643355Y-6550624D01*
X41643357Y-6550626D01*
X41643360Y-6550627D01*
X41643363Y-6550630D01*
X41684605Y-6575020D01*
X41782106Y-6632681D01*
X41822928Y-6644541D01*
X41936897Y-6677653D01*
X41936900Y-6677653D01*
X41936902Y-6677654D01*
X41973065Y-6680500D01*
X42402055Y-6680499D01*
X42449507Y-6689938D01*
X42526082Y-6721656D01*
X42526087Y-6721658D01*
X42526091Y-6721658D01*
X42526092Y-6721659D01*
X42671079Y-6750500D01*
X42671082Y-6750500D01*
X47073912Y-6750500D01*
X47073918Y-6750500D01*
X47079969Y-6749295D01*
X47105803Y-6747298D01*
X47105800Y-6747189D01*
X47108102Y-6747121D01*
X47109379Y-6747022D01*
X47110227Y-6747058D01*
X47232901Y-6734638D01*
X47535566Y-6703997D01*
X47535582Y-6703994D01*
X47535591Y-6703994D01*
X47554534Y-6701532D01*
X47570509Y-6700500D01*
X47935172Y-6700500D01*
X47959985Y-6703538D01*
X47960039Y-6703234D01*
X47964402Y-6703992D01*
X47964409Y-6703994D01*
X48389772Y-6747058D01*
X48411976Y-6748664D01*
X48424087Y-6750303D01*
X48426080Y-6750499D01*
X48426083Y-6750500D01*
X48426086Y-6750500D01*
X48573919Y-6750500D01*
X48671461Y-6731096D01*
X48718912Y-6721658D01*
X48855494Y-6665084D01*
X48959042Y-6595896D01*
X49025719Y-6575020D01*
X49027931Y-6575000D01*
X50224999Y-6575000D01*
X50224999Y-6568417D01*
X50218591Y-6497897D01*
X50218590Y-6497892D01*
X50168018Y-6335603D01*
X50080072Y-6190122D01*
X50049519Y-6159569D01*
X50046314Y-6153699D01*
X50040811Y-6149896D01*
X50029776Y-6123413D01*
X50016034Y-6098246D01*
X50016510Y-6091576D01*
X50013938Y-6085401D01*
X50018972Y-6057160D01*
X50021018Y-6028554D01*
X50025026Y-6023199D01*
X50026200Y-6016615D01*
X50045701Y-5995580D01*
X50062890Y-5972621D01*
X50070273Y-5969078D01*
X50073704Y-5965379D01*
X50106280Y-5951805D01*
X50173962Y-5934378D01*
X50193239Y-5929416D01*
X50224156Y-5925500D01*
X50648920Y-5925500D01*
X50751976Y-5905000D01*
X50793913Y-5896658D01*
X50930495Y-5840084D01*
X50975173Y-5810231D01*
X51041848Y-5789353D01*
X51099515Y-5802423D01*
X51394304Y-5949818D01*
X51404868Y-5954948D01*
X51405373Y-5955186D01*
X51467286Y-5979525D01*
X51480068Y-5981665D01*
X51487571Y-5982921D01*
X51517517Y-5994091D01*
X51577127Y-6000500D01*
X51592539Y-6000499D01*
X51598486Y-6001494D01*
X51602709Y-6002202D01*
X51602711Y-6002203D01*
X51602718Y-6002203D01*
X51609191Y-6003288D01*
X51618144Y-6003495D01*
X51672194Y-6001852D01*
X51672197Y-6001851D01*
X51672201Y-6001851D01*
X51674737Y-6001524D01*
X51690644Y-6000499D01*
X54252871Y-6000499D01*
X54252872Y-6000499D01*
X54312483Y-5994091D01*
X54447331Y-5943796D01*
X54562546Y-5857546D01*
X54648796Y-5742331D01*
X54699091Y-5607483D01*
X54705500Y-5547873D01*
X54705500Y-5547844D01*
X55295000Y-5547844D01*
X55301401Y-5607372D01*
X55301403Y-5607379D01*
X55351645Y-5742086D01*
X55351649Y-5742093D01*
X55437809Y-5857187D01*
X55437812Y-5857190D01*
X55552906Y-5943350D01*
X55552913Y-5943354D01*
X55687620Y-5993596D01*
X55687627Y-5993598D01*
X55747155Y-5999999D01*
X55747172Y-6000000D01*
X56835000Y-6000000D01*
X57335000Y-6000000D01*
X58422828Y-6000000D01*
X58422844Y-5999999D01*
X58482372Y-5993598D01*
X58482379Y-5993596D01*
X58617086Y-5943354D01*
X58617093Y-5943350D01*
X58732187Y-5857190D01*
X58732190Y-5857187D01*
X58818350Y-5742093D01*
X58818354Y-5742086D01*
X58868596Y-5607379D01*
X58868598Y-5607372D01*
X58874999Y-5547844D01*
X58875000Y-5547827D01*
X58875000Y-5250000D01*
X57335000Y-5250000D01*
X57335000Y-6000000D01*
X56835000Y-6000000D01*
X56835000Y-5250000D01*
X55295000Y-5250000D01*
X55295000Y-5547844D01*
X54705500Y-5547844D01*
X54705499Y-5105495D01*
X54705499Y-4810068D01*
X54709537Y-4796313D01*
X54708717Y-4782001D01*
X54719184Y-4763459D01*
X54725183Y-4743029D01*
X54736670Y-4732484D01*
X54743065Y-4721157D01*
X54764058Y-4707343D01*
X54771615Y-4700407D01*
X54776708Y-4697718D01*
X54855495Y-4665084D01*
X54913945Y-4626029D01*
X54978416Y-4582952D01*
X55032173Y-4529195D01*
X55093496Y-4495709D01*
X55120028Y-4492875D01*
X55171184Y-4492950D01*
G37*
%TD.AperFunction*%
%TD*%
%TA.AperFunction,Conductor*%
%TO.N,GND*%
G36*
X34473316Y-2865185D02*
G01*
X34519071Y-2917989D01*
X34529015Y-2987147D01*
X34499990Y-3050703D01*
X34448040Y-3085363D01*
X34448059Y-3085403D01*
X34447804Y-3085521D01*
X34445280Y-3087206D01*
X34441520Y-3088451D01*
X34441507Y-3088457D01*
X34297271Y-3177424D01*
X34297267Y-3177427D01*
X34177427Y-3297267D01*
X34177424Y-3297271D01*
X34088457Y-3441507D01*
X34088452Y-3441518D01*
X34035144Y-3602393D01*
X34025000Y-3701677D01*
X34025000Y-3725000D01*
X34876000Y-3725000D01*
X34943039Y-3744685D01*
X34988794Y-3797489D01*
X35000000Y-3849000D01*
X35000000Y-4000000D01*
X34326434Y-4000000D01*
X34323920Y-3999500D01*
X34323918Y-3999500D01*
X31361230Y-3999500D01*
X31294191Y-3979815D01*
X31248436Y-3927011D01*
X31238492Y-3857853D01*
X31267517Y-3794297D01*
X31273549Y-3787819D01*
X32179548Y-2881819D01*
X32240871Y-2848334D01*
X32267229Y-2845500D01*
X34406277Y-2845500D01*
X34473316Y-2865185D01*
G37*
%TD.AperFunction*%
%TA.AperFunction,Conductor*%
G36*
X59442539Y-520185D02*
G01*
X59488294Y-572989D01*
X59499500Y-624500D01*
X59499500Y-3876000D01*
X59479815Y-3943039D01*
X59427011Y-3988794D01*
X59375500Y-4000000D01*
X58873627Y-4000000D01*
X58806588Y-3980315D01*
X58760833Y-3927511D01*
X58750889Y-3858353D01*
X58774361Y-3801688D01*
X58818796Y-3742331D01*
X58869091Y-3607483D01*
X58875500Y-3547873D01*
X58875499Y-2452128D01*
X58869091Y-2392517D01*
X58866232Y-2384852D01*
X58818797Y-2257671D01*
X58818793Y-2257664D01*
X58732547Y-2142455D01*
X58732544Y-2142452D01*
X58617335Y-2056206D01*
X58617328Y-2056202D01*
X58482482Y-2005908D01*
X58482483Y-2005908D01*
X58422883Y-1999501D01*
X58422881Y-1999500D01*
X58422873Y-1999500D01*
X58422864Y-1999500D01*
X55747129Y-1999500D01*
X55747123Y-1999501D01*
X55687516Y-2005908D01*
X55552671Y-2056202D01*
X55552664Y-2056206D01*
X55437455Y-2142452D01*
X55373762Y-2227534D01*
X55317828Y-2269404D01*
X55298691Y-2274839D01*
X55281089Y-2278340D01*
X55281083Y-2278342D01*
X55236197Y-2296934D01*
X55236198Y-2296935D01*
X55144505Y-2334915D01*
X55075664Y-2380913D01*
X55062411Y-2389769D01*
X55021585Y-2417048D01*
X54913252Y-2525380D01*
X54910748Y-2527629D01*
X54882125Y-2541315D01*
X54854265Y-2556528D01*
X54850825Y-2556282D01*
X54847714Y-2557770D01*
X54816222Y-2553807D01*
X54784573Y-2551544D01*
X54781812Y-2549477D01*
X54778391Y-2549047D01*
X54754042Y-2528688D01*
X54728640Y-2509672D01*
X54727336Y-2506358D01*
X54724789Y-2504229D01*
X54718152Y-2483018D01*
X54704617Y-2448617D01*
X54698596Y-2392619D01*
X54648354Y-2257913D01*
X54648350Y-2257906D01*
X54562190Y-2142812D01*
X54562187Y-2142809D01*
X54447093Y-2056649D01*
X54447086Y-2056645D01*
X54312379Y-2006403D01*
X54312372Y-2006401D01*
X54252844Y-2000000D01*
X53165000Y-2000000D01*
X53165000Y-2876000D01*
X53145315Y-2943039D01*
X53092511Y-2988794D01*
X53041000Y-3000000D01*
X52915000Y-3000000D01*
X52915000Y-3125500D01*
X52895315Y-3192539D01*
X52842511Y-3238294D01*
X52791000Y-3249500D01*
X48926080Y-3249500D01*
X48781092Y-3278340D01*
X48781086Y-3278342D01*
X48644508Y-3334914D01*
X48644496Y-3334921D01*
X48595270Y-3367811D01*
X48595271Y-3367812D01*
X48521581Y-3417049D01*
X47988240Y-3950390D01*
X47963899Y-3969311D01*
X47941530Y-3982602D01*
X47878190Y-4000000D01*
X45000000Y-4000000D01*
X45000000Y-3874000D01*
X45019685Y-3806961D01*
X45072489Y-3761206D01*
X45124000Y-3750000D01*
X46224999Y-3750000D01*
X46224999Y-3700028D01*
X46224998Y-3700013D01*
X46214505Y-3597302D01*
X46159358Y-3430880D01*
X46159356Y-3430875D01*
X46067315Y-3281654D01*
X45943344Y-3157683D01*
X45943341Y-3157681D01*
X45940339Y-3155829D01*
X45938713Y-3154021D01*
X45937677Y-3153202D01*
X45937817Y-3153024D01*
X45893617Y-3103880D01*
X45882397Y-3034917D01*
X45910243Y-2970836D01*
X45940344Y-2944754D01*
X45943656Y-2942712D01*
X46067712Y-2818656D01*
X46159814Y-2669334D01*
X46214999Y-2502797D01*
X46220172Y-2452155D01*
X51125000Y-2452155D01*
X51125000Y-2750000D01*
X52665000Y-2750000D01*
X52665000Y-2000000D01*
X51577155Y-2000000D01*
X51517627Y-2006401D01*
X51517620Y-2006403D01*
X51382913Y-2056645D01*
X51382906Y-2056649D01*
X51267812Y-2142809D01*
X51267809Y-2142812D01*
X51181649Y-2257906D01*
X51181645Y-2257913D01*
X51131403Y-2392620D01*
X51131401Y-2392627D01*
X51125000Y-2452155D01*
X46220172Y-2452155D01*
X46220175Y-2452129D01*
X46221798Y-2436248D01*
X46221798Y-2436247D01*
X46225499Y-2400018D01*
X46225500Y-2400009D01*
X46225499Y-1799992D01*
X46214999Y-1697203D01*
X46159814Y-1530666D01*
X46067712Y-1381344D01*
X45943656Y-1257288D01*
X45794334Y-1165186D01*
X45627797Y-1110001D01*
X45627795Y-1110000D01*
X45525010Y-1099500D01*
X44474998Y-1099500D01*
X44474980Y-1099501D01*
X44372203Y-1110000D01*
X44372196Y-1110002D01*
X44297608Y-1134718D01*
X44281993Y-1138786D01*
X44258056Y-1143383D01*
X43695357Y-1337708D01*
X43691581Y-1338341D01*
X43689815Y-1339477D01*
X43654880Y-1344500D01*
X43456999Y-1344500D01*
X43422404Y-1339576D01*
X43399999Y-1333067D01*
X43363099Y-1322346D01*
X43363096Y-1322345D01*
X43326935Y-1319500D01*
X41973077Y-1319500D01*
X41973052Y-1319501D01*
X41936901Y-1322346D01*
X41782110Y-1367317D01*
X41782103Y-1367320D01*
X41643363Y-1449369D01*
X41643351Y-1449378D01*
X41529378Y-1563351D01*
X41529369Y-1563363D01*
X41447320Y-1702103D01*
X41447317Y-1702110D01*
X41402346Y-1856897D01*
X41402345Y-1856903D01*
X41399500Y-1893057D01*
X41399500Y-2296922D01*
X41399501Y-2296935D01*
X41402346Y-2333098D01*
X41447317Y-2487889D01*
X41447320Y-2487896D01*
X41529369Y-2626636D01*
X41529378Y-2626648D01*
X41545049Y-2642319D01*
X41578534Y-2703642D01*
X41573550Y-2773334D01*
X41545049Y-2817681D01*
X41529378Y-2833351D01*
X41529369Y-2833363D01*
X41447320Y-2972103D01*
X41447317Y-2972110D01*
X41402346Y-3126897D01*
X41402345Y-3126903D01*
X41399500Y-3163057D01*
X41399500Y-3566922D01*
X41399501Y-3566947D01*
X41402346Y-3603098D01*
X41447317Y-3757889D01*
X41447318Y-3757892D01*
X41447319Y-3757894D01*
X41473218Y-3801688D01*
X41479837Y-3812879D01*
X41497020Y-3880603D01*
X41474860Y-3946866D01*
X41420394Y-3990629D01*
X41373105Y-4000000D01*
X38626315Y-4000000D01*
X38559276Y-3980315D01*
X38513521Y-3927511D01*
X38503577Y-3858353D01*
X38519583Y-3812880D01*
X38552216Y-3757698D01*
X38552218Y-3757694D01*
X38593674Y-3615000D01*
X36058575Y-3615000D01*
X35991536Y-3595315D01*
X35945781Y-3542511D01*
X35940869Y-3530004D01*
X35911547Y-3441518D01*
X35911542Y-3441507D01*
X35822575Y-3297271D01*
X35822572Y-3297267D01*
X35702732Y-3177427D01*
X35702728Y-3177424D01*
X35558492Y-3088457D01*
X35558479Y-3088451D01*
X35554720Y-3087206D01*
X35552476Y-3085652D01*
X35551941Y-3085403D01*
X35551983Y-3085311D01*
X35497275Y-3047434D01*
X35470451Y-2982919D01*
X35482765Y-2914143D01*
X35530308Y-2862942D01*
X35593723Y-2845500D01*
X36019469Y-2845500D01*
X36086508Y-2865185D01*
X36132263Y-2917989D01*
X36142207Y-2987147D01*
X36138546Y-3004094D01*
X36106325Y-3114999D01*
X36106325Y-3115000D01*
X38593674Y-3115000D01*
X38552218Y-2972305D01*
X38552218Y-2972304D01*
X38470229Y-2833668D01*
X38470223Y-2833661D01*
X38454598Y-2818036D01*
X38421111Y-2756714D01*
X38426094Y-2687022D01*
X38454596Y-2642672D01*
X38470626Y-2626643D01*
X38552681Y-2487894D01*
X38597654Y-2333098D01*
X38600500Y-2296935D01*
X38600499Y-1893066D01*
X38597654Y-1856902D01*
X38552681Y-1702106D01*
X38470626Y-1563357D01*
X38470624Y-1563355D01*
X38470621Y-1563351D01*
X38356648Y-1449378D01*
X38356636Y-1449369D01*
X38217896Y-1367320D01*
X38217889Y-1367317D01*
X38063102Y-1322346D01*
X38063096Y-1322345D01*
X38026935Y-1319500D01*
X36673077Y-1319500D01*
X36673052Y-1319501D01*
X36636901Y-1322346D01*
X36577596Y-1339576D01*
X36543001Y-1344500D01*
X31831080Y-1344500D01*
X31686092Y-1373340D01*
X31686082Y-1373343D01*
X31549511Y-1429912D01*
X31549498Y-1429919D01*
X31426584Y-1512048D01*
X31426580Y-1512051D01*
X30050451Y-2888181D01*
X29989128Y-2921666D01*
X29962770Y-2924500D01*
X25874000Y-2924500D01*
X25806961Y-2904815D01*
X25761206Y-2852011D01*
X25750000Y-2800500D01*
X25750000Y-624500D01*
X25769685Y-557461D01*
X25822489Y-511706D01*
X25874000Y-500500D01*
X59375500Y-500500D01*
X59442539Y-520185D01*
G37*
%TD.AperFunction*%
%TD*%
%TA.AperFunction,Conductor*%
%TO.N,Net-(U3-PA2)*%
G36*
X36638809Y-4408681D02*
G01*
X37321774Y-4625631D01*
X37328622Y-4631402D01*
X37329383Y-4640324D01*
X37323612Y-4647172D01*
X37323019Y-4647458D01*
X36739877Y-4908933D01*
X36734892Y-4909955D01*
X36353967Y-4903521D01*
X36345753Y-4899955D01*
X36342509Y-4892841D01*
X36309486Y-4514363D01*
X36312181Y-4505825D01*
X36317801Y-4502135D01*
X36631934Y-4408619D01*
X36638809Y-4408681D01*
G37*
%TD.AperFunction*%
%TD*%
%TA.AperFunction,Conductor*%
%TO.N,GND*%
G36*
X5001000Y-1000000D02*
G01*
X4941473Y-1294236D01*
X4405764Y-1250000D01*
X4405764Y-750000D01*
X4941473Y-705764D01*
X5001000Y-1000000D01*
G37*
%TD.AperFunction*%
%TD*%
%TA.AperFunction,Conductor*%
%TO.N,GND*%
G36*
X4244236Y-1001340D02*
G01*
X4244236Y-1250000D01*
X3955764Y-1058527D01*
X4244236Y-750000D01*
X4244236Y-1001340D01*
G37*
%TD.AperFunction*%
%TD*%
%TA.AperFunction,Conductor*%
%TO.N,GND*%
G36*
X14502006Y-1998427D02*
G01*
X14503472Y-2000216D01*
X14695402Y-2288526D01*
X14697134Y-2297312D01*
X14695412Y-2301479D01*
X14506491Y-2586215D01*
X14499062Y-2591214D01*
X14490273Y-2589495D01*
X14490238Y-2589472D01*
X14054079Y-2297813D01*
X14049107Y-2290365D01*
X14049049Y-2290051D01*
X14002264Y-2008618D01*
X14004288Y-1999896D01*
X14011887Y-1995158D01*
X14013806Y-1995000D01*
X14493733Y-1995000D01*
X14502006Y-1998427D01*
G37*
%TD.AperFunction*%
%TD*%
%TA.AperFunction,Conductor*%
%TO.N,GND*%
G36*
X14447686Y-1748547D02*
G01*
X14451964Y-1750318D01*
X14573037Y-1831702D01*
X14690419Y-1910605D01*
X14695373Y-1918064D01*
X14694053Y-1926115D01*
X14503367Y-2260209D01*
X14496290Y-2265695D01*
X14493206Y-2266109D01*
X14015293Y-2266109D01*
X14007020Y-2262682D01*
X14003593Y-2254409D01*
X14004001Y-2251348D01*
X14092162Y-1926115D01*
X14152918Y-1701982D01*
X14158389Y-1694896D01*
X14166452Y-1693562D01*
X14447686Y-1748547D01*
G37*
%TD.AperFunction*%
%TD*%
%TA.AperFunction,Conductor*%
%TO.N,GND*%
G36*
X14333499Y-1499113D02*
G01*
X14341462Y-1503209D01*
X14344236Y-1510773D01*
X14344236Y-1989226D01*
X14340809Y-1997499D01*
X14333499Y-2000886D01*
X13818895Y-2043379D01*
X13810368Y-2040645D01*
X13806464Y-2034039D01*
X13749469Y-1752320D01*
X13749469Y-1747680D01*
X13799578Y-1500000D01*
X13806464Y-1465959D01*
X13811464Y-1458531D01*
X13818894Y-1456620D01*
X14333499Y-1499113D01*
G37*
%TD.AperFunction*%
%TD*%
%TA.AperFunction,Conductor*%
%TO.N,GND*%
G36*
X14389634Y-1459354D02*
G01*
X14393538Y-1465960D01*
X14450533Y-1747680D01*
X14450533Y-1752320D01*
X14393538Y-2034039D01*
X14388538Y-2041468D01*
X14381107Y-2043379D01*
X13866504Y-2000886D01*
X13858541Y-1996790D01*
X13855767Y-1989226D01*
X13855767Y-1510773D01*
X13859194Y-1502500D01*
X13866502Y-1499113D01*
X14381107Y-1456620D01*
X14389634Y-1459354D01*
G37*
%TD.AperFunction*%
%TD*%
%TA.AperFunction,Conductor*%
%TO.N,+5V*%
G36*
X17094236Y-6250000D02*
G01*
X17094236Y-6750000D01*
X16558527Y-6794236D01*
X16499000Y-6500000D01*
X16558527Y-6205764D01*
X17094236Y-6250000D01*
G37*
%TD.AperFunction*%
%TD*%
%TA.AperFunction,Conductor*%
%TO.N,+5V*%
G36*
X17201003Y-6500000D02*
G01*
X17141476Y-6794236D01*
X16605767Y-6750000D01*
X16605767Y-6250000D01*
X17141476Y-6205764D01*
X17201003Y-6500000D01*
G37*
%TD.AperFunction*%
%TD*%
%TA.AperFunction,Conductor*%
%TO.N,+3V3*%
G36*
X32944236Y-5250000D02*
G01*
X32944236Y-5750000D01*
X32408527Y-5794236D01*
X32349000Y-5500000D01*
X32408527Y-5205764D01*
X32944236Y-5250000D01*
G37*
%TD.AperFunction*%
%TD*%
%TA.AperFunction,Conductor*%
%TO.N,+3V3*%
G36*
X33001000Y-5500000D02*
G01*
X32941473Y-5794236D01*
X32405764Y-5750000D01*
X32405764Y-5250000D01*
X32941473Y-5205764D01*
X33001000Y-5500000D01*
G37*
%TD.AperFunction*%
%TD*%
%TA.AperFunction,Conductor*%
%TO.N,GND*%
G36*
X33001000Y-3500000D02*
G01*
X32941473Y-3794236D01*
X32405764Y-3750000D01*
X32405764Y-3250000D01*
X32941473Y-3205764D01*
X33001000Y-3500000D01*
G37*
%TD.AperFunction*%
%TD*%
%TA.AperFunction,Conductor*%
%TO.N,GND*%
G36*
X32894233Y-3250000D02*
G01*
X32894233Y-3750000D01*
X32358524Y-3794236D01*
X32298997Y-3500000D01*
X32358524Y-3205764D01*
X32894233Y-3250000D01*
G37*
%TD.AperFunction*%
%TD*%
%TA.AperFunction,Conductor*%
%TO.N,GND*%
G36*
X40029156Y-3294862D02*
G01*
X40029156Y-3615000D01*
X39833329Y-3499441D01*
X39999000Y-3250000D01*
X40029156Y-3294862D01*
G37*
%TD.AperFunction*%
%TA.AperFunction,Conductor*%
G36*
X40121797Y-3390106D02*
G01*
X40126504Y-3394155D01*
X40131860Y-3402123D01*
X40166609Y-3499269D01*
X40166569Y-3499289D01*
X40109010Y-3413660D01*
X40105778Y-3404623D01*
X40106218Y-3395679D01*
X40112853Y-3389666D01*
X40121797Y-3390106D01*
G37*
%TD.AperFunction*%
%TA.AperFunction,Conductor*%
G36*
X40052566Y-3284158D02*
G01*
X40054556Y-3290685D01*
X40054556Y-3332649D01*
X40029156Y-3294862D01*
X40029156Y-3249332D01*
X40052566Y-3284158D01*
G37*
%TD.AperFunction*%
%TA.AperFunction,Conductor*%
G36*
X40054556Y-3186008D02*
G01*
X40054556Y-3193977D01*
X40051129Y-3202250D01*
X40042856Y-3205677D01*
X40034583Y-3202250D01*
X40031840Y-3197918D01*
X40029156Y-3190414D01*
X40029156Y-3115351D01*
X40029274Y-3115331D01*
X40054556Y-3186008D01*
G37*
%TD.AperFunction*%
%TD*%
%TA.AperFunction,Conductor*%
%TO.N,Net-(J1-Pin_3)*%
G36*
X13365036Y-3613505D02*
G01*
X13372709Y-3618122D01*
X13375000Y-3625076D01*
X13375000Y-4106810D01*
X13371573Y-4115083D01*
X13367305Y-4117803D01*
X12871962Y-4298287D01*
X12863016Y-4297900D01*
X12859575Y-4295456D01*
X12505706Y-3931890D01*
X12502392Y-3923572D01*
X12504461Y-3917085D01*
X12770855Y-3531006D01*
X12778372Y-3526145D01*
X12782213Y-3526082D01*
X13365036Y-3613505D01*
G37*
%TD.AperFunction*%
%TD*%
%TA.AperFunction,Conductor*%
%TO.N,Net-(J1-Pin_3)*%
G36*
X13677565Y-3565931D02*
G01*
X14281470Y-3785267D01*
X14470721Y-3854003D01*
X14477327Y-3860048D01*
X14477724Y-3868994D01*
X14471679Y-3875600D01*
X14470721Y-3875997D01*
X13677568Y-4164067D01*
X13672282Y-4164698D01*
X13235408Y-4116156D01*
X13227564Y-4111837D01*
X13225000Y-4104528D01*
X13225000Y-3625471D01*
X13228427Y-3617198D01*
X13235406Y-3613843D01*
X13672286Y-3565301D01*
X13677565Y-3565931D01*
G37*
%TD.AperFunction*%
%TD*%
%TA.AperFunction,Conductor*%
%TO.N,GND*%
G36*
X10485330Y-3128605D02*
G01*
X10853039Y-3347076D01*
X11144057Y-3519982D01*
X11149419Y-3527154D01*
X11149022Y-3534186D01*
X11002913Y-3919882D01*
X10996778Y-3926404D01*
X10994642Y-3927128D01*
X10532622Y-4035420D01*
X10523785Y-4033972D01*
X10520441Y-4030844D01*
X10129741Y-3485581D01*
X10127708Y-3476860D01*
X10130977Y-3470495D01*
X10471082Y-3130390D01*
X10479354Y-3126964D01*
X10485330Y-3128605D01*
G37*
%TD.AperFunction*%
%TD*%
%TA.AperFunction,Conductor*%
%TO.N,GND*%
G36*
X10482238Y-3111926D02*
G01*
X10837835Y-3483917D01*
X10841075Y-3492266D01*
X10837651Y-3500275D01*
X10499363Y-3838563D01*
X10491090Y-3841990D01*
X10484068Y-3839648D01*
X10068191Y-3527587D01*
X10063630Y-3519881D01*
X10065463Y-3511762D01*
X10224017Y-3272783D01*
X10227295Y-3269505D01*
X10467314Y-3110261D01*
X10476101Y-3108543D01*
X10482238Y-3111926D01*
G37*
%TD.AperFunction*%
%TD*%
%TA.AperFunction,Conductor*%
%TO.N,Net-(J1-Pin_2)*%
G36*
X10650528Y-5193229D02*
G01*
X10653203Y-5195397D01*
X10769874Y-5322738D01*
X10993758Y-5567096D01*
X10996820Y-5575511D01*
X10993758Y-5582904D01*
X10653206Y-5954599D01*
X10645090Y-5958384D01*
X10641662Y-5958025D01*
X10133783Y-5827261D01*
X10126625Y-5821880D01*
X10125000Y-5815931D01*
X10125000Y-5334068D01*
X10128427Y-5325795D01*
X10133780Y-5322739D01*
X10641664Y-5191974D01*
X10650528Y-5193229D01*
G37*
%TD.AperFunction*%
%TD*%
%TA.AperFunction,Conductor*%
%TO.N,Net-(J1-Pin_2)*%
G36*
X8378791Y-2699865D02*
G01*
X8379247Y-2700164D01*
X8930383Y-3080414D01*
X8935247Y-3087932D01*
X8933369Y-3096687D01*
X8932012Y-3098316D01*
X8590588Y-3439740D01*
X8585387Y-3442757D01*
X8378714Y-3498989D01*
X8371410Y-3498607D01*
X7119558Y-3012973D01*
X7113085Y-3006786D01*
X7112882Y-2997833D01*
X7119069Y-2991360D01*
X7121118Y-2990674D01*
X8369956Y-2698414D01*
X8378791Y-2699865D01*
G37*
%TD.AperFunction*%
%TD*%
%TA.AperFunction,Conductor*%
%TO.N,Net-(J1-Pin_2)*%
G36*
X14294296Y-5085751D02*
G01*
X14460149Y-5124755D01*
X14467418Y-5129985D01*
X14468860Y-5138822D01*
X14463630Y-5146091D01*
X14461113Y-5147263D01*
X13620684Y-5422570D01*
X13614428Y-5422855D01*
X13410705Y-5376167D01*
X13405046Y-5373036D01*
X13136780Y-5104770D01*
X13133353Y-5096497D01*
X13136780Y-5088224D01*
X13140420Y-5085754D01*
X13544467Y-4911771D01*
X13551766Y-4911129D01*
X14294296Y-5085751D01*
G37*
%TD.AperFunction*%
%TD*%
%TA.AperFunction,Conductor*%
%TO.N,Net-(J1-Pin_2)*%
G36*
X13119453Y-5103860D02*
G01*
X13120372Y-5104687D01*
X13390914Y-5375229D01*
X13394341Y-5383502D01*
X13390914Y-5391775D01*
X13390838Y-5391851D01*
X12974702Y-5800416D01*
X12966398Y-5803767D01*
X12961348Y-5802569D01*
X12504440Y-5578234D01*
X12498524Y-5571512D01*
X12498137Y-5570090D01*
X12459759Y-5383579D01*
X12419440Y-5187630D01*
X12421129Y-5178837D01*
X12428542Y-5173813D01*
X12429651Y-5173640D01*
X13110866Y-5101325D01*
X13119453Y-5103860D01*
G37*
%TD.AperFunction*%
%TD*%
%TA.AperFunction,Conductor*%
%TO.N,GND*%
G36*
X6344236Y-750000D02*
G01*
X6344236Y-1250000D01*
X5808527Y-1294236D01*
X5749000Y-1000000D01*
X5808527Y-705764D01*
X6344236Y-750000D01*
G37*
%TD.AperFunction*%
%TD*%
%TA.AperFunction,Conductor*%
%TO.N,GND*%
G36*
X5751000Y-1000000D02*
G01*
X5691473Y-1294236D01*
X5155764Y-1250000D01*
X5155764Y-750000D01*
X5691473Y-705764D01*
X5751000Y-1000000D01*
G37*
%TD.AperFunction*%
%TD*%
%TA.AperFunction,Conductor*%
%TO.N,GND*%
G36*
X5594236Y-750000D02*
G01*
X5594236Y-1250000D01*
X5058527Y-1294236D01*
X4999000Y-1000000D01*
X5058527Y-705764D01*
X5594236Y-750000D01*
G37*
%TD.AperFunction*%
%TD*%
%TA.AperFunction,Conductor*%
%TO.N,GND*%
G36*
X33743411Y-3389859D02*
G01*
X33389859Y-3743411D01*
X33058527Y-3794236D01*
X32999293Y-3499293D01*
X33058527Y-3205764D01*
X33743411Y-3389859D01*
G37*
%TD.AperFunction*%
%TD*%
%TA.AperFunction,Conductor*%
%TO.N,+3V3*%
G36*
X33726776Y-5373223D02*
G01*
X33373223Y-5726776D01*
X33058527Y-5794236D01*
X32999293Y-5499293D01*
X33058527Y-5205764D01*
X33726776Y-5373223D01*
G37*
%TD.AperFunction*%
%TD*%
%TA.AperFunction,Conductor*%
%TO.N,+5V*%
G36*
X16749441Y-6333329D02*
G01*
X16500000Y-6501000D01*
X16205764Y-6558527D01*
X16000000Y-6009318D01*
X16500000Y-6009318D01*
X16749441Y-6333329D01*
G37*
%TD.AperFunction*%
%TD*%
%TA.AperFunction,Conductor*%
%TO.N,+12V*%
G36*
X6908224Y-6488224D02*
G01*
X7261776Y-6841776D01*
X6691473Y-6794236D01*
X6749293Y-6500707D01*
X6999441Y-6333329D01*
X6908224Y-6488224D01*
G37*
%TD.AperFunction*%
%TD*%
%TA.AperFunction,Conductor*%
%TO.N,Net-(J1-Pin_3)*%
G36*
X4404421Y-4532700D02*
G01*
X4410800Y-4535973D01*
X4751914Y-4877087D01*
X4755341Y-4885360D01*
X4751914Y-4893633D01*
X4750432Y-4894887D01*
X4209227Y-5280671D01*
X4200501Y-5282683D01*
X4199930Y-5282573D01*
X2952184Y-5009014D01*
X2944837Y-5003894D01*
X2943261Y-4995079D01*
X2948381Y-4987732D01*
X2950454Y-4986678D01*
X4202025Y-4501153D01*
X4208147Y-4500516D01*
X4404421Y-4532700D01*
G37*
%TD.AperFunction*%
%TD*%
%TA.AperFunction,Conductor*%
%TO.N,Net-(J1-Pin_3)*%
G36*
X10574188Y-2103084D02*
G01*
X10577740Y-2105810D01*
X10919155Y-2492253D01*
X10922065Y-2500722D01*
X10919155Y-2507747D01*
X10577740Y-2894189D01*
X10575685Y-2895192D01*
X10574186Y-2896916D01*
X10571823Y-2897079D01*
X10569694Y-2898120D01*
X10565253Y-2897535D01*
X10559750Y-2895690D01*
X10555196Y-2892870D01*
X10533347Y-2871021D01*
X10533342Y-2871017D01*
X10419220Y-2805128D01*
X10419216Y-2805126D01*
X10291926Y-2771020D01*
X10291924Y-2771020D01*
X10189635Y-2771020D01*
X10185917Y-2770414D01*
X10132982Y-2752674D01*
X10126227Y-2746795D01*
X10125000Y-2741580D01*
X10125000Y-2258419D01*
X10128427Y-2250146D01*
X10132982Y-2247325D01*
X10565256Y-2102463D01*
X10574188Y-2103084D01*
G37*
%TD.AperFunction*%
%TD*%
%TA.AperFunction,Conductor*%
%TO.N,Net-(J1-Pin_3)*%
G36*
X12030459Y-3099272D02*
G01*
X12548612Y-3446538D01*
X12657737Y-3519673D01*
X12662701Y-3527125D01*
X12662042Y-3533846D01*
X12503121Y-3919843D01*
X12496802Y-3926189D01*
X12494476Y-3926885D01*
X12032847Y-4014200D01*
X12024082Y-4012371D01*
X12020759Y-4008917D01*
X11673867Y-3455368D01*
X11672377Y-3446538D01*
X11675506Y-3440884D01*
X12015673Y-3100717D01*
X12023945Y-3097291D01*
X12030459Y-3099272D01*
G37*
%TD.AperFunction*%
%TD*%
%TA.AperFunction,Conductor*%
%TO.N,Net-(J1-Pin_3)*%
G36*
X11330862Y-2311672D02*
G01*
X11777777Y-2847857D01*
X11780442Y-2856406D01*
X11777063Y-2863621D01*
X11436667Y-3204017D01*
X11428394Y-3207444D01*
X11423785Y-3206498D01*
X10891422Y-2978329D01*
X10885168Y-2971920D01*
X10884373Y-2966579D01*
X10894516Y-2847857D01*
X10923727Y-2505914D01*
X10927846Y-2497964D01*
X10930266Y-2496391D01*
X11316766Y-2308638D01*
X11325702Y-2308106D01*
X11330862Y-2311672D01*
G37*
%TD.AperFunction*%
%TD*%
%TA.AperFunction,Conductor*%
%TO.N,Net-(J1-Pin_2)*%
G36*
X12150528Y-5193229D02*
G01*
X12153203Y-5195397D01*
X12269874Y-5322738D01*
X12493758Y-5567096D01*
X12496820Y-5575511D01*
X12493758Y-5582904D01*
X12153206Y-5954599D01*
X12145090Y-5958384D01*
X12141662Y-5958025D01*
X11633783Y-5827261D01*
X11626625Y-5821880D01*
X11625000Y-5815931D01*
X11625000Y-5334068D01*
X11628427Y-5325795D01*
X11633780Y-5322739D01*
X12141664Y-5191974D01*
X12150528Y-5193229D01*
G37*
%TD.AperFunction*%
%TD*%
%TA.AperFunction,Conductor*%
%TO.N,Net-(J1-Pin_2)*%
G36*
X11358331Y-5191973D02*
G01*
X11866218Y-5322738D01*
X11873375Y-5328119D01*
X11875000Y-5334068D01*
X11875000Y-5815931D01*
X11871573Y-5824204D01*
X11866217Y-5827261D01*
X11358337Y-5958025D01*
X11349471Y-5956770D01*
X11346795Y-5954601D01*
X11006240Y-5582902D01*
X11003179Y-5574489D01*
X11006240Y-5567097D01*
X11346795Y-5195398D01*
X11354909Y-5191615D01*
X11358331Y-5191973D01*
G37*
%TD.AperFunction*%
%TD*%
%TA.AperFunction,Conductor*%
%TO.N,/SDA*%
G36*
X49608331Y-4791973D02*
G01*
X50116218Y-4922738D01*
X50123375Y-4928119D01*
X50125000Y-4934068D01*
X50125000Y-5415931D01*
X50121573Y-5424204D01*
X50116217Y-5427261D01*
X49608337Y-5558025D01*
X49599471Y-5556770D01*
X49596795Y-5554601D01*
X49256240Y-5182902D01*
X49253179Y-5174489D01*
X49256240Y-5167097D01*
X49596795Y-4795398D01*
X49604909Y-4791615D01*
X49608331Y-4791973D01*
G37*
%TD.AperFunction*%
%TD*%
%TA.AperFunction,Conductor*%
%TO.N,/SDA*%
G36*
X49244295Y-5173391D02*
G01*
X49252009Y-5177936D01*
X49253347Y-5180204D01*
X49425888Y-5566467D01*
X49426133Y-5575419D01*
X49422220Y-5580603D01*
X48835345Y-6020243D01*
X48826669Y-6022460D01*
X48820057Y-6019152D01*
X48479803Y-5678898D01*
X48476376Y-5670625D01*
X48477749Y-5665127D01*
X48771150Y-5114596D01*
X48778065Y-5108908D01*
X48783104Y-5108514D01*
X49244295Y-5173391D01*
G37*
%TD.AperFunction*%
%TD*%
%TA.AperFunction,Conductor*%
%TO.N,/SDA*%
G36*
X51629794Y-4501856D02*
G01*
X52705510Y-4918478D01*
X52887830Y-4989090D01*
X52894307Y-4995273D01*
X52894514Y-5004226D01*
X52888331Y-5010703D01*
X52887830Y-5010910D01*
X51629828Y-5498130D01*
X51620875Y-5497923D01*
X51620370Y-5497685D01*
X51131468Y-5253234D01*
X51125600Y-5246469D01*
X51125000Y-5242769D01*
X51125000Y-4757231D01*
X51128427Y-4748958D01*
X51131468Y-4746766D01*
X51620372Y-4502313D01*
X51629302Y-4501679D01*
X51629794Y-4501856D01*
G37*
%TD.AperFunction*%
%TD*%
%TA.AperFunction,Conductor*%
%TO.N,/SCL*%
G36*
X55799877Y-2607644D02*
G01*
X57053333Y-2989432D01*
X57060249Y-2995120D01*
X57061116Y-3004033D01*
X57055428Y-3010949D01*
X57054156Y-3011532D01*
X55800716Y-3497782D01*
X55791763Y-3497579D01*
X55789926Y-3496563D01*
X55532737Y-3322355D01*
X55531030Y-3320944D01*
X55188968Y-2978882D01*
X55185541Y-2970609D01*
X55188968Y-2962336D01*
X55191312Y-2960523D01*
X55790578Y-2608754D01*
X55799445Y-2607522D01*
X55799877Y-2607644D01*
G37*
%TD.AperFunction*%
%TD*%
%TA.AperFunction,Conductor*%
%TO.N,/SCL*%
G36*
X43403469Y-4521394D02*
G01*
X43722165Y-4695541D01*
X43727781Y-4702514D01*
X43726821Y-4711417D01*
X43724827Y-4714080D01*
X43456910Y-4981997D01*
X43448637Y-4985424D01*
X43447573Y-4985376D01*
X42633996Y-4911071D01*
X42626069Y-4906905D01*
X42623408Y-4898355D01*
X42623416Y-4898278D01*
X42648406Y-4643340D01*
X42652622Y-4635443D01*
X42658277Y-4632919D01*
X43396093Y-4520096D01*
X43403469Y-4521394D01*
G37*
%TD.AperFunction*%
%TD*%
%TA.AperFunction,Conductor*%
%TO.N,/SCL*%
G36*
X47400528Y-4793229D02*
G01*
X47403203Y-4795397D01*
X47519874Y-4922738D01*
X47743758Y-5167096D01*
X47746820Y-5175511D01*
X47743758Y-5182904D01*
X47403206Y-5554599D01*
X47395090Y-5558384D01*
X47391662Y-5558025D01*
X46883783Y-5427261D01*
X46876625Y-5421880D01*
X46875000Y-5415931D01*
X46875000Y-4934068D01*
X46878427Y-4925795D01*
X46883780Y-4922739D01*
X47391664Y-4791974D01*
X47400528Y-4793229D01*
G37*
%TD.AperFunction*%
%TD*%
%TA.AperFunction,Conductor*%
%TO.N,/SCL*%
G36*
X48278918Y-4380391D02*
G01*
X48619020Y-4720493D01*
X48622447Y-4728766D01*
X48620258Y-4735581D01*
X48229558Y-5280844D01*
X48221953Y-5285573D01*
X48217377Y-5285420D01*
X47755357Y-5177128D01*
X47748084Y-5171904D01*
X47747086Y-5169882D01*
X47600978Y-4784184D01*
X47601252Y-4775235D01*
X47605941Y-4769984D01*
X48264669Y-4378604D01*
X48273532Y-4377326D01*
X48278918Y-4380391D01*
G37*
%TD.AperFunction*%
%TD*%
%TA.AperFunction,Conductor*%
%TO.N,Net-(J3-Pin_2)*%
G36*
X44431994Y-1621734D02*
G01*
X44434407Y-1623302D01*
X44990358Y-2091047D01*
X44994483Y-2098996D01*
X44991779Y-2107532D01*
X44990358Y-2108953D01*
X44434487Y-2576629D01*
X44425951Y-2579333D01*
X44422986Y-2578682D01*
X43782731Y-2347788D01*
X43776111Y-2341758D01*
X43775000Y-2336782D01*
X43775000Y-1853337D01*
X43778427Y-1845064D01*
X43782879Y-1842278D01*
X44423056Y-1621196D01*
X44431994Y-1621734D01*
G37*
%TD.AperFunction*%
%TD*%
%TA.AperFunction,Conductor*%
%TO.N,Net-(U3-PD6{slash}PA1)*%
G36*
X20714593Y-2343843D02*
G01*
X20722436Y-2348162D01*
X20725000Y-2355471D01*
X20725000Y-2834528D01*
X20721573Y-2842801D01*
X20714592Y-2846156D01*
X20277717Y-2894698D01*
X20272431Y-2894067D01*
X19479278Y-2605997D01*
X19472672Y-2599952D01*
X19472275Y-2591006D01*
X19478320Y-2584400D01*
X19479278Y-2584003D01*
X20272435Y-2295931D01*
X20277713Y-2295301D01*
X20714593Y-2343843D01*
G37*
%TD.AperFunction*%
%TD*%
%TA.AperFunction,Conductor*%
%TO.N,Net-(U4-RO)*%
G36*
X20714593Y-6153843D02*
G01*
X20722436Y-6158162D01*
X20725000Y-6165471D01*
X20725000Y-6644528D01*
X20721573Y-6652801D01*
X20714592Y-6656156D01*
X20277717Y-6704698D01*
X20272431Y-6704067D01*
X19479278Y-6415997D01*
X19472672Y-6409952D01*
X19472275Y-6401006D01*
X19478320Y-6394400D01*
X19479278Y-6394003D01*
X20272435Y-6105931D01*
X20277713Y-6105301D01*
X20714593Y-6153843D01*
G37*
%TD.AperFunction*%
%TD*%
%TA.AperFunction,Conductor*%
%TO.N,Net-(U3-PA2)*%
G36*
X20237460Y-4484433D02*
G01*
X20241216Y-4486953D01*
X20512255Y-4757992D01*
X20515682Y-4766265D01*
X20514159Y-4772037D01*
X20419432Y-4939063D01*
X20412370Y-4944569D01*
X20411532Y-4944767D01*
X19460186Y-5133545D01*
X19451404Y-5131794D01*
X19446568Y-5124941D01*
X19375673Y-4844842D01*
X19376965Y-4835984D01*
X19382574Y-4831149D01*
X20228505Y-4484400D01*
X20237460Y-4484433D01*
G37*
%TD.AperFunction*%
%TD*%
%TA.AperFunction,Conductor*%
%TO.N,Net-(U3-PA2)*%
G36*
X20411533Y-4055233D02*
G01*
X20418980Y-4060203D01*
X20419432Y-4060936D01*
X20514159Y-4227962D01*
X20515260Y-4236849D01*
X20512255Y-4242007D01*
X20241216Y-4513046D01*
X20232943Y-4516473D01*
X20228505Y-4515599D01*
X19382577Y-4168851D01*
X19376222Y-4162542D01*
X19375673Y-4155157D01*
X19446568Y-3875056D01*
X19451919Y-3867880D01*
X19460184Y-3866454D01*
X20411533Y-4055233D01*
G37*
%TD.AperFunction*%
%TD*%
%TA.AperFunction,Conductor*%
%TO.N,GND*%
G36*
X43751000Y-4000000D02*
G01*
X43703836Y-4232340D01*
X43698832Y-4239766D01*
X43690042Y-4241478D01*
X43688751Y-4241138D01*
X43262885Y-4102628D01*
X43256078Y-4096811D01*
X43254804Y-4091502D01*
X43254804Y-4000000D01*
X43254804Y-3900000D01*
X43701227Y-3754804D01*
X43751000Y-4000000D01*
G37*
%TD.AperFunction*%
%TD*%
%TA.AperFunction,Conductor*%
%TO.N,GND*%
G36*
X41995196Y-3900000D02*
G01*
X41995196Y-4000000D01*
X41995196Y-4091502D01*
X41991769Y-4099775D01*
X41987115Y-4102628D01*
X41561248Y-4241138D01*
X41552320Y-4240438D01*
X41546503Y-4233631D01*
X41546163Y-4232340D01*
X41519253Y-4099775D01*
X41499000Y-4000000D01*
X41548773Y-3754804D01*
X41995196Y-3900000D01*
G37*
%TD.AperFunction*%
%TD*%
%TA.AperFunction,Conductor*%
%TO.N,/SDA*%
G36*
X47484675Y-5798934D02*
G01*
X47492560Y-5803176D01*
X47495196Y-5810574D01*
X47495196Y-6189425D01*
X47491769Y-6197698D01*
X47484674Y-6201065D01*
X47059310Y-6244129D01*
X47050734Y-6241553D01*
X47046666Y-6234817D01*
X47039815Y-6201065D01*
X46999472Y-6002325D01*
X46999472Y-5997674D01*
X47046666Y-5765181D01*
X47051670Y-5757756D01*
X47059307Y-5755870D01*
X47484675Y-5798934D01*
G37*
%TD.AperFunction*%
%TD*%
%TA.AperFunction,Conductor*%
%TO.N,/SDA*%
G36*
X48449265Y-5758446D02*
G01*
X48453333Y-5765182D01*
X48500527Y-5997672D01*
X48500527Y-6002328D01*
X48453333Y-6234817D01*
X48448329Y-6242243D01*
X48440689Y-6244129D01*
X48015326Y-6201065D01*
X48007440Y-6196823D01*
X48004804Y-6189425D01*
X48004804Y-5810574D01*
X48008231Y-5802301D01*
X48015323Y-5798934D01*
X48440691Y-5755870D01*
X48449265Y-5758446D01*
G37*
%TD.AperFunction*%
%TD*%
%TA.AperFunction,Conductor*%
%TO.N,/SCL*%
G36*
X44259291Y-4933429D02*
G01*
X44263306Y-4940138D01*
X44310240Y-5173390D01*
X44310238Y-5178019D01*
X44263834Y-5407309D01*
X44258834Y-5414738D01*
X44250045Y-5416456D01*
X44248729Y-5416108D01*
X43723766Y-5244422D01*
X43716968Y-5238594D01*
X43716283Y-5229665D01*
X43719128Y-5225031D01*
X43985524Y-4958635D01*
X43992690Y-4955261D01*
X44250734Y-4930798D01*
X44259291Y-4933429D01*
G37*
%TD.AperFunction*%
%TD*%
%TA.AperFunction,Conductor*%
%TO.N,Net-(U3-PA2)*%
G36*
X35757843Y-4558236D02*
G01*
X35763303Y-4565334D01*
X35763469Y-4566037D01*
X35800522Y-4747661D01*
X35800522Y-4752339D01*
X35763469Y-4933962D01*
X35758457Y-4941383D01*
X35749666Y-4943087D01*
X35748963Y-4942921D01*
X35412501Y-4852331D01*
X35405403Y-4846871D01*
X35403843Y-4841033D01*
X35403843Y-4658966D01*
X35407270Y-4650693D01*
X35412498Y-4647669D01*
X35748965Y-4557078D01*
X35757843Y-4558236D01*
G37*
%TD.AperFunction*%
%TD*%
%TA.AperFunction,Conductor*%
%TO.N,Net-(U3-PA2)*%
G36*
X34311241Y-4508859D02*
G01*
X34608979Y-4605696D01*
X34616874Y-4609719D01*
X34625593Y-4611099D01*
X34737116Y-4647372D01*
X34743922Y-4653188D01*
X34745196Y-4658497D01*
X34745196Y-4841502D01*
X34741769Y-4849775D01*
X34737115Y-4852628D01*
X34626471Y-4888613D01*
X34625584Y-4888901D01*
X34616874Y-4890281D01*
X34608986Y-4894300D01*
X34608104Y-4894587D01*
X34311248Y-4991138D01*
X34302320Y-4990438D01*
X34296503Y-4983631D01*
X34296163Y-4982340D01*
X34277137Y-4888613D01*
X34249472Y-4752325D01*
X34249472Y-4747674D01*
X34296163Y-4517657D01*
X34301167Y-4510233D01*
X34309957Y-4508521D01*
X34311241Y-4508859D01*
G37*
%TD.AperFunction*%
%TD*%
%TA.AperFunction,Conductor*%
%TO.N,Net-(U3-PA2)*%
G36*
X23447679Y-4259561D02*
G01*
X23453496Y-4266368D01*
X23453836Y-4267659D01*
X23500527Y-4497672D01*
X23500527Y-4502328D01*
X23453836Y-4732340D01*
X23448832Y-4739766D01*
X23440042Y-4741478D01*
X23438751Y-4741138D01*
X23012885Y-4602628D01*
X23006078Y-4596811D01*
X23004804Y-4591502D01*
X23004804Y-4408497D01*
X23008231Y-4400224D01*
X23012882Y-4397372D01*
X23438752Y-4258861D01*
X23447679Y-4259561D01*
G37*
%TD.AperFunction*%
%TD*%
%TA.AperFunction,Conductor*%
%TO.N,Net-(U3-PA2)*%
G36*
X21811241Y-4258859D02*
G01*
X22237116Y-4397372D01*
X22243922Y-4403188D01*
X22245196Y-4408497D01*
X22245196Y-4591502D01*
X22241769Y-4599775D01*
X22237115Y-4602628D01*
X21811248Y-4741138D01*
X21802320Y-4740438D01*
X21796503Y-4733631D01*
X21796163Y-4732340D01*
X21749472Y-4502325D01*
X21749472Y-4497674D01*
X21796163Y-4267657D01*
X21801167Y-4260233D01*
X21809957Y-4258521D01*
X21811241Y-4258859D01*
G37*
%TD.AperFunction*%
%TD*%
%TA.AperFunction,Conductor*%
%TO.N,Net-(U3-PA2)*%
G36*
X20300960Y-4366955D02*
G01*
X20398552Y-4431613D01*
X20498726Y-4497981D01*
X20502018Y-4501273D01*
X20633043Y-4699037D01*
X20634755Y-4707826D01*
X20630687Y-4714563D01*
X20299458Y-4984891D01*
X20290882Y-4987467D01*
X20283787Y-4984100D01*
X20015899Y-4716212D01*
X20012472Y-4707939D01*
X20015106Y-4700544D01*
X20285437Y-4369311D01*
X20293322Y-4365070D01*
X20300960Y-4366955D01*
G37*
%TD.AperFunction*%
%TD*%
%TA.AperFunction,Conductor*%
%TO.N,Net-(U3-PA2)*%
G36*
X20299456Y-4015107D02*
G01*
X20547930Y-4217895D01*
X20630687Y-4285436D01*
X20634929Y-4293322D01*
X20633043Y-4300962D01*
X20502018Y-4498726D01*
X20498726Y-4502018D01*
X20300962Y-4633043D01*
X20292173Y-4634755D01*
X20285436Y-4630687D01*
X20177738Y-4498726D01*
X20015107Y-4299456D01*
X20012532Y-4290882D01*
X20015898Y-4283788D01*
X20283788Y-4015898D01*
X20292060Y-4012472D01*
X20299456Y-4015107D01*
G37*
%TD.AperFunction*%
%TD*%
M02*
