%TF.GenerationSoftware,KiCad,Pcbnew,9.0.7-1.fc43*%
%TF.CreationDate,2026-03-12T23:33:13-07:00*%
%TF.ProjectId,als_board,616c735f-626f-4617-9264-2e6b69636164,A0*%
%TF.SameCoordinates,PX5f5e100PY6052340*%
%TF.FileFunction,Soldermask,Top*%
%TF.FilePolarity,Negative*%
%FSLAX46Y46*%
G04 Gerber Fmt 4.6, Leading zero omitted, Abs format (unit mm)*
G04 Created by KiCad (PCBNEW 9.0.7-1.fc43) date 2026-03-12 23:33:13*
%MOMM*%
%LPD*%
G01*
G04 APERTURE LIST*
G04 Aperture macros list*
%AMRoundRect*
0 Rectangle with rounded corners*
0 $1 Rounding radius*
0 $2 $3 $4 $5 $6 $7 $8 $9 X,Y pos of 4 corners*
0 Add a 4 corners polygon primitive as box body*
4,1,4,$2,$3,$4,$5,$6,$7,$8,$9,$2,$3,0*
0 Add four circle primitives for the rounded corners*
1,1,$1+$1,$2,$3*
1,1,$1+$1,$4,$5*
1,1,$1+$1,$6,$7*
1,1,$1+$1,$8,$9*
0 Add four rect primitives between the rounded corners*
20,1,$1+$1,$2,$3,$4,$5,0*
20,1,$1+$1,$4,$5,$6,$7,0*
20,1,$1+$1,$6,$7,$8,$9,0*
20,1,$1+$1,$8,$9,$2,$3,0*%
G04 Aperture macros list end*
%ADD10RoundRect,0.200000X-0.275000X0.200000X-0.275000X-0.200000X0.275000X-0.200000X0.275000X0.200000X0*%
%ADD11RoundRect,0.200000X0.275000X-0.200000X0.275000X0.200000X-0.275000X0.200000X-0.275000X-0.200000X0*%
%ADD12RoundRect,0.250000X0.475000X-0.250000X0.475000X0.250000X-0.475000X0.250000X-0.475000X-0.250000X0*%
%ADD13R,2.580000X1.000000*%
%ADD14RoundRect,0.137500X-0.612500X-0.137500X0.612500X-0.137500X0.612500X0.137500X-0.612500X0.137500X0*%
%ADD15RoundRect,0.200000X0.200000X0.275000X-0.200000X0.275000X-0.200000X-0.275000X0.200000X-0.275000X0*%
%ADD16RoundRect,0.150000X0.825000X0.150000X-0.825000X0.150000X-0.825000X-0.150000X0.825000X-0.150000X0*%
%ADD17RoundRect,0.225000X0.225000X0.250000X-0.225000X0.250000X-0.225000X-0.250000X0.225000X-0.250000X0*%
%ADD18RoundRect,0.225000X0.250000X-0.225000X0.250000X0.225000X-0.250000X0.225000X-0.250000X-0.225000X0*%
G04 APERTURE END LIST*
D10*
%TO.C,R2*%
X22500000Y-3675000D03*
X22500000Y-5325000D03*
%TD*%
D11*
%TO.C,R7*%
X49250000Y-6825000D03*
X49250000Y-5175000D03*
%TD*%
D12*
%TO.C,J3*%
X45000000Y-4000000D03*
X45000000Y-2100000D03*
%TD*%
D13*
%TO.C,J1*%
X2915000Y-3000000D03*
X7085000Y-3000000D03*
X2915000Y-5000000D03*
X7085000Y-5000000D03*
%TD*%
D10*
%TO.C,R3*%
X12500000Y-3925000D03*
X12500000Y-5575000D03*
%TD*%
D14*
%TO.C,U3*%
X37350000Y-2095000D03*
X37350000Y-3365000D03*
X37350000Y-4635000D03*
X37350000Y-5905000D03*
X42650000Y-5905000D03*
X42650000Y-4635000D03*
X42650000Y-3365000D03*
X42650000Y-2095000D03*
%TD*%
D11*
%TO.C,R6*%
X47750000Y-6825000D03*
X47750000Y-5175000D03*
%TD*%
D13*
%TO.C,J2*%
X52915000Y-3000000D03*
X57085000Y-3000000D03*
X52915000Y-5000000D03*
X57085000Y-5000000D03*
%TD*%
D15*
%TO.C,R4*%
X12575000Y-2500000D03*
X10925000Y-2500000D03*
%TD*%
D16*
%TO.C,U4*%
X19450000Y-6405000D03*
X19450000Y-5135000D03*
X19450000Y-3865000D03*
X19450000Y-2595000D03*
X14500000Y-2595000D03*
X14500000Y-3865000D03*
X14500000Y-5135000D03*
X14500000Y-6405000D03*
%TD*%
D17*
%TO.C,C6*%
X10975000Y-1000000D03*
X12525000Y-1000000D03*
%TD*%
D18*
%TO.C,C5*%
X35000000Y-5525000D03*
X35000000Y-3975000D03*
%TD*%
D11*
%TO.C,R5*%
X11000000Y-5575000D03*
X11000000Y-3925000D03*
%TD*%
M02*
