%TF.GenerationSoftware,KiCad,Pcbnew,9.0.7-1.fc43*%
%TF.CreationDate,2026-03-12T23:33:12-07:00*%
%TF.ProjectId,als_board,616c735f-626f-4617-9264-2e6b69636164,A0*%
%TF.SameCoordinates,PX5f5e100PY6052340*%
%TF.FileFunction,Legend,Top*%
%TF.FilePolarity,Positive*%
%FSLAX46Y46*%
G04 Gerber Fmt 4.6, Leading zero omitted, Abs format (unit mm)*
G04 Created by KiCad (PCBNEW 9.0.7-1.fc43) date 2026-03-12 23:33:12*
%MOMM*%
%LPD*%
G01*
G04 APERTURE LIST*
%ADD10C,0.150000*%
%ADD11C,0.120000*%
%ADD12C,0.000000*%
G04 APERTURE END LIST*
D10*
X24384819Y-4666666D02*
X23908628Y-4999999D01*
X24384819Y-5238094D02*
X23384819Y-5238094D01*
X23384819Y-5238094D02*
X23384819Y-4857142D01*
X23384819Y-4857142D02*
X23432438Y-4761904D01*
X23432438Y-4761904D02*
X23480057Y-4714285D01*
X23480057Y-4714285D02*
X23575295Y-4666666D01*
X23575295Y-4666666D02*
X23718152Y-4666666D01*
X23718152Y-4666666D02*
X23813390Y-4714285D01*
X23813390Y-4714285D02*
X23861009Y-4761904D01*
X23861009Y-4761904D02*
X23908628Y-4857142D01*
X23908628Y-4857142D02*
X23908628Y-5238094D01*
X23480057Y-4285713D02*
X23432438Y-4238094D01*
X23432438Y-4238094D02*
X23384819Y-4142856D01*
X23384819Y-4142856D02*
X23384819Y-3904761D01*
X23384819Y-3904761D02*
X23432438Y-3809523D01*
X23432438Y-3809523D02*
X23480057Y-3761904D01*
X23480057Y-3761904D02*
X23575295Y-3714285D01*
X23575295Y-3714285D02*
X23670533Y-3714285D01*
X23670533Y-3714285D02*
X23813390Y-3761904D01*
X23813390Y-3761904D02*
X24384819Y-4333332D01*
X24384819Y-4333332D02*
X24384819Y-3714285D01*
X49704819Y-3916666D02*
X49228628Y-4249999D01*
X49704819Y-4488094D02*
X48704819Y-4488094D01*
X48704819Y-4488094D02*
X48704819Y-4107142D01*
X48704819Y-4107142D02*
X48752438Y-4011904D01*
X48752438Y-4011904D02*
X48800057Y-3964285D01*
X48800057Y-3964285D02*
X48895295Y-3916666D01*
X48895295Y-3916666D02*
X49038152Y-3916666D01*
X49038152Y-3916666D02*
X49133390Y-3964285D01*
X49133390Y-3964285D02*
X49181009Y-4011904D01*
X49181009Y-4011904D02*
X49228628Y-4107142D01*
X49228628Y-4107142D02*
X49228628Y-4488094D01*
X48704819Y-3583332D02*
X48704819Y-2916666D01*
X48704819Y-2916666D02*
X49704819Y-3345237D01*
X44454819Y-5833333D02*
X45169104Y-5833333D01*
X45169104Y-5833333D02*
X45311961Y-5880952D01*
X45311961Y-5880952D02*
X45407200Y-5976190D01*
X45407200Y-5976190D02*
X45454819Y-6119047D01*
X45454819Y-6119047D02*
X45454819Y-6214285D01*
X44454819Y-5452380D02*
X44454819Y-4833333D01*
X44454819Y-4833333D02*
X44835771Y-5166666D01*
X44835771Y-5166666D02*
X44835771Y-5023809D01*
X44835771Y-5023809D02*
X44883390Y-4928571D01*
X44883390Y-4928571D02*
X44931009Y-4880952D01*
X44931009Y-4880952D02*
X45026247Y-4833333D01*
X45026247Y-4833333D02*
X45264342Y-4833333D01*
X45264342Y-4833333D02*
X45359580Y-4880952D01*
X45359580Y-4880952D02*
X45407200Y-4928571D01*
X45407200Y-4928571D02*
X45454819Y-5023809D01*
X45454819Y-5023809D02*
X45454819Y-5309523D01*
X45454819Y-5309523D02*
X45407200Y-5404761D01*
X45407200Y-5404761D02*
X45359580Y-5452380D01*
X4666666Y-344819D02*
X4666666Y-1059104D01*
X4666666Y-1059104D02*
X4619047Y-1201961D01*
X4619047Y-1201961D02*
X4523809Y-1297200D01*
X4523809Y-1297200D02*
X4380952Y-1344819D01*
X4380952Y-1344819D02*
X4285714Y-1344819D01*
X5666666Y-1344819D02*
X5095238Y-1344819D01*
X5380952Y-1344819D02*
X5380952Y-344819D01*
X5380952Y-344819D02*
X5285714Y-487676D01*
X5285714Y-487676D02*
X5190476Y-582914D01*
X5190476Y-582914D02*
X5095238Y-630533D01*
D11*
X12863855Y-6883332D02*
X12482902Y-7149999D01*
X12863855Y-7340475D02*
X12063855Y-7340475D01*
X12063855Y-7340475D02*
X12063855Y-7035713D01*
X12063855Y-7035713D02*
X12101950Y-6959523D01*
X12101950Y-6959523D02*
X12140045Y-6921428D01*
X12140045Y-6921428D02*
X12216236Y-6883332D01*
X12216236Y-6883332D02*
X12330521Y-6883332D01*
X12330521Y-6883332D02*
X12406712Y-6921428D01*
X12406712Y-6921428D02*
X12444807Y-6959523D01*
X12444807Y-6959523D02*
X12482902Y-7035713D01*
X12482902Y-7035713D02*
X12482902Y-7340475D01*
X12063855Y-6616666D02*
X12063855Y-6121428D01*
X12063855Y-6121428D02*
X12368617Y-6388094D01*
X12368617Y-6388094D02*
X12368617Y-6273809D01*
X12368617Y-6273809D02*
X12406712Y-6197618D01*
X12406712Y-6197618D02*
X12444807Y-6159523D01*
X12444807Y-6159523D02*
X12520998Y-6121428D01*
X12520998Y-6121428D02*
X12711474Y-6121428D01*
X12711474Y-6121428D02*
X12787664Y-6159523D01*
X12787664Y-6159523D02*
X12825760Y-6197618D01*
X12825760Y-6197618D02*
X12863855Y-6273809D01*
X12863855Y-6273809D02*
X12863855Y-6502380D01*
X12863855Y-6502380D02*
X12825760Y-6578571D01*
X12825760Y-6578571D02*
X12787664Y-6616666D01*
D10*
X42238095Y-454819D02*
X42238095Y-1264342D01*
X42238095Y-1264342D02*
X42285714Y-1359580D01*
X42285714Y-1359580D02*
X42333333Y-1407200D01*
X42333333Y-1407200D02*
X42428571Y-1454819D01*
X42428571Y-1454819D02*
X42619047Y-1454819D01*
X42619047Y-1454819D02*
X42714285Y-1407200D01*
X42714285Y-1407200D02*
X42761904Y-1359580D01*
X42761904Y-1359580D02*
X42809523Y-1264342D01*
X42809523Y-1264342D02*
X42809523Y-454819D01*
X43190476Y-454819D02*
X43809523Y-454819D01*
X43809523Y-454819D02*
X43476190Y-835771D01*
X43476190Y-835771D02*
X43619047Y-835771D01*
X43619047Y-835771D02*
X43714285Y-883390D01*
X43714285Y-883390D02*
X43761904Y-931009D01*
X43761904Y-931009D02*
X43809523Y-1026247D01*
X43809523Y-1026247D02*
X43809523Y-1264342D01*
X43809523Y-1264342D02*
X43761904Y-1359580D01*
X43761904Y-1359580D02*
X43714285Y-1407200D01*
X43714285Y-1407200D02*
X43619047Y-1454819D01*
X43619047Y-1454819D02*
X43333333Y-1454819D01*
X43333333Y-1454819D02*
X43238095Y-1407200D01*
X43238095Y-1407200D02*
X43190476Y-1359580D01*
X48204819Y-3916666D02*
X47728628Y-4249999D01*
X48204819Y-4488094D02*
X47204819Y-4488094D01*
X47204819Y-4488094D02*
X47204819Y-4107142D01*
X47204819Y-4107142D02*
X47252438Y-4011904D01*
X47252438Y-4011904D02*
X47300057Y-3964285D01*
X47300057Y-3964285D02*
X47395295Y-3916666D01*
X47395295Y-3916666D02*
X47538152Y-3916666D01*
X47538152Y-3916666D02*
X47633390Y-3964285D01*
X47633390Y-3964285D02*
X47681009Y-4011904D01*
X47681009Y-4011904D02*
X47728628Y-4107142D01*
X47728628Y-4107142D02*
X47728628Y-4488094D01*
X47204819Y-3059523D02*
X47204819Y-3249999D01*
X47204819Y-3249999D02*
X47252438Y-3345237D01*
X47252438Y-3345237D02*
X47300057Y-3392856D01*
X47300057Y-3392856D02*
X47442914Y-3488094D01*
X47442914Y-3488094D02*
X47633390Y-3535713D01*
X47633390Y-3535713D02*
X48014342Y-3535713D01*
X48014342Y-3535713D02*
X48109580Y-3488094D01*
X48109580Y-3488094D02*
X48157200Y-3440475D01*
X48157200Y-3440475D02*
X48204819Y-3345237D01*
X48204819Y-3345237D02*
X48204819Y-3154761D01*
X48204819Y-3154761D02*
X48157200Y-3059523D01*
X48157200Y-3059523D02*
X48109580Y-3011904D01*
X48109580Y-3011904D02*
X48014342Y-2964285D01*
X48014342Y-2964285D02*
X47776247Y-2964285D01*
X47776247Y-2964285D02*
X47681009Y-3011904D01*
X47681009Y-3011904D02*
X47633390Y-3059523D01*
X47633390Y-3059523D02*
X47585771Y-3154761D01*
X47585771Y-3154761D02*
X47585771Y-3345237D01*
X47585771Y-3345237D02*
X47633390Y-3440475D01*
X47633390Y-3440475D02*
X47681009Y-3488094D01*
X47681009Y-3488094D02*
X47776247Y-3535713D01*
X54666666Y-344819D02*
X54666666Y-1059104D01*
X54666666Y-1059104D02*
X54619047Y-1201961D01*
X54619047Y-1201961D02*
X54523809Y-1297200D01*
X54523809Y-1297200D02*
X54380952Y-1344819D01*
X54380952Y-1344819D02*
X54285714Y-1344819D01*
X55095238Y-440057D02*
X55142857Y-392438D01*
X55142857Y-392438D02*
X55238095Y-344819D01*
X55238095Y-344819D02*
X55476190Y-344819D01*
X55476190Y-344819D02*
X55571428Y-392438D01*
X55571428Y-392438D02*
X55619047Y-440057D01*
X55619047Y-440057D02*
X55666666Y-535295D01*
X55666666Y-535295D02*
X55666666Y-630533D01*
X55666666Y-630533D02*
X55619047Y-773390D01*
X55619047Y-773390D02*
X55047619Y-1344819D01*
X55047619Y-1344819D02*
X55666666Y-1344819D01*
X9083333Y-2954819D02*
X8750000Y-2478628D01*
X8511905Y-2954819D02*
X8511905Y-1954819D01*
X8511905Y-1954819D02*
X8892857Y-1954819D01*
X8892857Y-1954819D02*
X8988095Y-2002438D01*
X8988095Y-2002438D02*
X9035714Y-2050057D01*
X9035714Y-2050057D02*
X9083333Y-2145295D01*
X9083333Y-2145295D02*
X9083333Y-2288152D01*
X9083333Y-2288152D02*
X9035714Y-2383390D01*
X9035714Y-2383390D02*
X8988095Y-2431009D01*
X8988095Y-2431009D02*
X8892857Y-2478628D01*
X8892857Y-2478628D02*
X8511905Y-2478628D01*
X9940476Y-2288152D02*
X9940476Y-2954819D01*
X9702381Y-1907200D02*
X9464286Y-2621485D01*
X9464286Y-2621485D02*
X10083333Y-2621485D01*
X16213095Y-454819D02*
X16213095Y-1264342D01*
X16213095Y-1264342D02*
X16260714Y-1359580D01*
X16260714Y-1359580D02*
X16308333Y-1407200D01*
X16308333Y-1407200D02*
X16403571Y-1454819D01*
X16403571Y-1454819D02*
X16594047Y-1454819D01*
X16594047Y-1454819D02*
X16689285Y-1407200D01*
X16689285Y-1407200D02*
X16736904Y-1359580D01*
X16736904Y-1359580D02*
X16784523Y-1264342D01*
X16784523Y-1264342D02*
X16784523Y-454819D01*
X17689285Y-788152D02*
X17689285Y-1454819D01*
X17451190Y-407200D02*
X17213095Y-1121485D01*
X17213095Y-1121485D02*
X17832142Y-1121485D01*
X9083333Y-1359580D02*
X9035714Y-1407200D01*
X9035714Y-1407200D02*
X8892857Y-1454819D01*
X8892857Y-1454819D02*
X8797619Y-1454819D01*
X8797619Y-1454819D02*
X8654762Y-1407200D01*
X8654762Y-1407200D02*
X8559524Y-1311961D01*
X8559524Y-1311961D02*
X8511905Y-1216723D01*
X8511905Y-1216723D02*
X8464286Y-1026247D01*
X8464286Y-1026247D02*
X8464286Y-883390D01*
X8464286Y-883390D02*
X8511905Y-692914D01*
X8511905Y-692914D02*
X8559524Y-597676D01*
X8559524Y-597676D02*
X8654762Y-502438D01*
X8654762Y-502438D02*
X8797619Y-454819D01*
X8797619Y-454819D02*
X8892857Y-454819D01*
X8892857Y-454819D02*
X9035714Y-502438D01*
X9035714Y-502438D02*
X9083333Y-550057D01*
X9940476Y-454819D02*
X9750000Y-454819D01*
X9750000Y-454819D02*
X9654762Y-502438D01*
X9654762Y-502438D02*
X9607143Y-550057D01*
X9607143Y-550057D02*
X9511905Y-692914D01*
X9511905Y-692914D02*
X9464286Y-883390D01*
X9464286Y-883390D02*
X9464286Y-1264342D01*
X9464286Y-1264342D02*
X9511905Y-1359580D01*
X9511905Y-1359580D02*
X9559524Y-1407200D01*
X9559524Y-1407200D02*
X9654762Y-1454819D01*
X9654762Y-1454819D02*
X9845238Y-1454819D01*
X9845238Y-1454819D02*
X9940476Y-1407200D01*
X9940476Y-1407200D02*
X9988095Y-1359580D01*
X9988095Y-1359580D02*
X10035714Y-1264342D01*
X10035714Y-1264342D02*
X10035714Y-1026247D01*
X10035714Y-1026247D02*
X9988095Y-931009D01*
X9988095Y-931009D02*
X9940476Y-883390D01*
X9940476Y-883390D02*
X9845238Y-835771D01*
X9845238Y-835771D02*
X9654762Y-835771D01*
X9654762Y-835771D02*
X9559524Y-883390D01*
X9559524Y-883390D02*
X9511905Y-931009D01*
X9511905Y-931009D02*
X9464286Y-1026247D01*
X33929580Y-4916666D02*
X33977200Y-4964285D01*
X33977200Y-4964285D02*
X34024819Y-5107142D01*
X34024819Y-5107142D02*
X34024819Y-5202380D01*
X34024819Y-5202380D02*
X33977200Y-5345237D01*
X33977200Y-5345237D02*
X33881961Y-5440475D01*
X33881961Y-5440475D02*
X33786723Y-5488094D01*
X33786723Y-5488094D02*
X33596247Y-5535713D01*
X33596247Y-5535713D02*
X33453390Y-5535713D01*
X33453390Y-5535713D02*
X33262914Y-5488094D01*
X33262914Y-5488094D02*
X33167676Y-5440475D01*
X33167676Y-5440475D02*
X33072438Y-5345237D01*
X33072438Y-5345237D02*
X33024819Y-5202380D01*
X33024819Y-5202380D02*
X33024819Y-5107142D01*
X33024819Y-5107142D02*
X33072438Y-4964285D01*
X33072438Y-4964285D02*
X33120057Y-4916666D01*
X33024819Y-4011904D02*
X33024819Y-4488094D01*
X33024819Y-4488094D02*
X33501009Y-4535713D01*
X33501009Y-4535713D02*
X33453390Y-4488094D01*
X33453390Y-4488094D02*
X33405771Y-4392856D01*
X33405771Y-4392856D02*
X33405771Y-4154761D01*
X33405771Y-4154761D02*
X33453390Y-4059523D01*
X33453390Y-4059523D02*
X33501009Y-4011904D01*
X33501009Y-4011904D02*
X33596247Y-3964285D01*
X33596247Y-3964285D02*
X33834342Y-3964285D01*
X33834342Y-3964285D02*
X33929580Y-4011904D01*
X33929580Y-4011904D02*
X33977200Y-4059523D01*
X33977200Y-4059523D02*
X34024819Y-4154761D01*
X34024819Y-4154761D02*
X34024819Y-4392856D01*
X34024819Y-4392856D02*
X33977200Y-4488094D01*
X33977200Y-4488094D02*
X33929580Y-4535713D01*
D11*
X11363855Y-6883332D02*
X10982902Y-7149999D01*
X11363855Y-7340475D02*
X10563855Y-7340475D01*
X10563855Y-7340475D02*
X10563855Y-7035713D01*
X10563855Y-7035713D02*
X10601950Y-6959523D01*
X10601950Y-6959523D02*
X10640045Y-6921428D01*
X10640045Y-6921428D02*
X10716236Y-6883332D01*
X10716236Y-6883332D02*
X10830521Y-6883332D01*
X10830521Y-6883332D02*
X10906712Y-6921428D01*
X10906712Y-6921428D02*
X10944807Y-6959523D01*
X10944807Y-6959523D02*
X10982902Y-7035713D01*
X10982902Y-7035713D02*
X10982902Y-7340475D01*
X10563855Y-6159523D02*
X10563855Y-6540475D01*
X10563855Y-6540475D02*
X10944807Y-6578571D01*
X10944807Y-6578571D02*
X10906712Y-6540475D01*
X10906712Y-6540475D02*
X10868617Y-6464285D01*
X10868617Y-6464285D02*
X10868617Y-6273809D01*
X10868617Y-6273809D02*
X10906712Y-6197618D01*
X10906712Y-6197618D02*
X10944807Y-6159523D01*
X10944807Y-6159523D02*
X11020998Y-6121428D01*
X11020998Y-6121428D02*
X11211474Y-6121428D01*
X11211474Y-6121428D02*
X11287664Y-6159523D01*
X11287664Y-6159523D02*
X11325760Y-6197618D01*
X11325760Y-6197618D02*
X11363855Y-6273809D01*
X11363855Y-6273809D02*
X11363855Y-6464285D01*
X11363855Y-6464285D02*
X11325760Y-6540475D01*
X11325760Y-6540475D02*
X11287664Y-6578571D01*
D12*
%TO.C,G\u002A\u002A\u002A*%
G36*
X26339576Y-999409D02*
G01*
X27179741Y-999409D01*
X27179741Y-1839574D01*
X27179741Y-2679739D01*
X26339576Y-2679739D01*
X25499410Y-2679739D01*
X25499410Y-1839574D01*
X25499410Y-1239456D01*
X25739457Y-1239456D01*
X25739457Y-1839574D01*
X25739457Y-2439692D01*
X26339576Y-2439692D01*
X26939694Y-2439692D01*
X26939694Y-1839574D01*
X26939694Y-1239456D01*
X26339576Y-1239456D01*
X25739457Y-1239456D01*
X25499410Y-1239456D01*
X25499410Y-999409D01*
X26339576Y-999409D01*
G37*
G36*
X25739457Y-3159834D02*
G01*
X25739457Y-3399881D01*
X25619434Y-3399881D01*
X25499410Y-3399881D01*
X25499410Y-3159834D01*
X25499410Y-2919787D01*
X25619434Y-2919787D01*
X25739457Y-2919787D01*
X25739457Y-3159834D01*
G37*
G36*
X26819670Y-2919787D02*
G01*
X26939694Y-2919787D01*
X26939694Y-3159834D01*
X26939694Y-3399881D01*
X26819670Y-3399881D01*
X26699646Y-3399881D01*
X26699646Y-3519905D01*
X26699646Y-3639928D01*
X26819670Y-3639928D01*
X26939694Y-3639928D01*
X26939694Y-3519905D01*
X26939694Y-3399881D01*
X27179741Y-3399881D01*
X27419788Y-3399881D01*
X27419788Y-3519905D01*
X27419788Y-3639928D01*
X27299765Y-3639928D01*
X27179741Y-3639928D01*
X27179741Y-3879976D01*
X27179741Y-4120023D01*
X27299765Y-4120023D01*
X27419788Y-4120023D01*
X27419788Y-3999999D01*
X27419788Y-3879976D01*
X27659835Y-3879976D01*
X27779859Y-3879976D01*
X27899883Y-3879976D01*
X27899883Y-3999999D01*
X27899883Y-4120023D01*
X28019906Y-4120023D01*
X28139930Y-4120023D01*
X28139930Y-3999999D01*
X28139930Y-3879976D01*
X28259954Y-3879976D01*
X28379977Y-3879976D01*
X28379977Y-3759952D01*
X28379977Y-3639928D01*
X28500001Y-3639928D01*
X28620024Y-3639928D01*
X28620024Y-3759952D01*
X28620024Y-3879976D01*
X28500001Y-3879976D01*
X28379977Y-3879976D01*
X28379977Y-3999999D01*
X28379977Y-4120023D01*
X28500001Y-4120023D01*
X28620024Y-4120023D01*
X28620024Y-4240046D01*
X28620024Y-4360070D01*
X28379977Y-4360070D01*
X28139930Y-4360070D01*
X28139930Y-4600117D01*
X28139930Y-4840165D01*
X28259954Y-4840165D01*
X28379977Y-4840165D01*
X28379977Y-4720141D01*
X28379977Y-4600117D01*
X28500001Y-4600117D01*
X28620024Y-4600117D01*
X28620024Y-4840165D01*
X28620024Y-5080212D01*
X28860072Y-5080212D01*
X29100119Y-5080212D01*
X29100119Y-4960188D01*
X29100119Y-4840165D01*
X29220143Y-4840165D01*
X29340166Y-4840165D01*
X29340166Y-4720141D01*
X29340166Y-4600117D01*
X29220143Y-4600117D01*
X29100119Y-4600117D01*
X29100119Y-4720141D01*
X29100119Y-4840165D01*
X28980095Y-4840165D01*
X28860072Y-4840165D01*
X28860072Y-4720141D01*
X28860072Y-4600117D01*
X28740048Y-4600117D01*
X28620024Y-4600117D01*
X28620024Y-4480094D01*
X28620024Y-4360070D01*
X28740048Y-4360070D01*
X28860072Y-4360070D01*
X28860072Y-4480094D01*
X28860072Y-4600117D01*
X28980095Y-4600117D01*
X29100119Y-4600117D01*
X29100119Y-4360070D01*
X29100119Y-4120023D01*
X28980095Y-4120023D01*
X28860072Y-4120023D01*
X28860072Y-3999999D01*
X28860072Y-3879976D01*
X28980095Y-3879976D01*
X29100119Y-3879976D01*
X29100119Y-3759952D01*
X29100119Y-3639928D01*
X29220143Y-3639928D01*
X29340166Y-3639928D01*
X29340166Y-3879976D01*
X29340166Y-4120023D01*
X29460190Y-4120023D01*
X29580213Y-4120023D01*
X29580213Y-3999999D01*
X29580213Y-3879976D01*
X30060308Y-3879976D01*
X30420379Y-3879976D01*
X30540402Y-3879976D01*
X30540402Y-3639928D01*
X30540402Y-3399881D01*
X30300355Y-3399881D01*
X30060308Y-3399881D01*
X30060308Y-3519905D01*
X30060308Y-3639928D01*
X29820261Y-3639928D01*
X29580213Y-3639928D01*
X29580213Y-3279857D01*
X29820261Y-3279857D01*
X29820261Y-3399881D01*
X29940284Y-3399881D01*
X30060308Y-3399881D01*
X30060308Y-3279857D01*
X30060308Y-3159834D01*
X29940284Y-3159834D01*
X29820261Y-3159834D01*
X29820261Y-3279857D01*
X29580213Y-3279857D01*
X29580213Y-2919787D01*
X30300355Y-2919787D01*
X31020497Y-2919787D01*
X31020497Y-3039810D01*
X31020497Y-3159834D01*
X30900473Y-3159834D01*
X30780450Y-3159834D01*
X30780450Y-3519905D01*
X30780450Y-3879976D01*
X30660426Y-3879976D01*
X30540402Y-3879976D01*
X30540402Y-3999999D01*
X30540402Y-4120023D01*
X30420379Y-4120023D01*
X30300355Y-4120023D01*
X30300355Y-4240046D01*
X30300355Y-4360070D01*
X30180332Y-4360070D01*
X30060308Y-4360070D01*
X30060308Y-4240046D01*
X30060308Y-4120023D01*
X29820261Y-4120023D01*
X29580213Y-4120023D01*
X29580213Y-4360070D01*
X29580213Y-4600117D01*
X29700237Y-4600117D01*
X29820261Y-4600117D01*
X29820261Y-4720141D01*
X29820261Y-4840165D01*
X29940284Y-4840165D01*
X30060308Y-4840165D01*
X30060308Y-4720141D01*
X30060308Y-4600117D01*
X30180332Y-4600117D01*
X30300355Y-4600117D01*
X30300355Y-4720141D01*
X30300355Y-4840165D01*
X30420379Y-4840165D01*
X30540402Y-4840165D01*
X30540402Y-4720141D01*
X30540402Y-4600117D01*
X30420379Y-4600117D01*
X30300355Y-4600117D01*
X30300355Y-4480094D01*
X30300355Y-4360070D01*
X30420379Y-4360070D01*
X30540402Y-4360070D01*
X30540402Y-4240046D01*
X30780450Y-4240046D01*
X30780450Y-4360070D01*
X30900473Y-4360070D01*
X31020497Y-4360070D01*
X31020497Y-4240046D01*
X31020497Y-4120023D01*
X30900473Y-4120023D01*
X30780450Y-4120023D01*
X30780450Y-4240046D01*
X30540402Y-4240046D01*
X30540402Y-4120023D01*
X30660426Y-4120023D01*
X30780450Y-4120023D01*
X30780450Y-3999999D01*
X30780450Y-3879976D01*
X31020497Y-3879976D01*
X31260544Y-3879976D01*
X31260544Y-3759952D01*
X31260544Y-3639928D01*
X31380568Y-3639928D01*
X31500591Y-3639928D01*
X31500591Y-3759952D01*
X31500591Y-3879976D01*
X31380568Y-3879976D01*
X31260544Y-3879976D01*
X31260544Y-3999999D01*
X31260544Y-4120023D01*
X31380568Y-4120023D01*
X31500591Y-4120023D01*
X31500591Y-4240046D01*
X31500591Y-4360070D01*
X31380568Y-4360070D01*
X31260544Y-4360070D01*
X31260544Y-4600117D01*
X31260544Y-4840165D01*
X31140521Y-4840165D01*
X31020497Y-4840165D01*
X31020497Y-4960188D01*
X31020497Y-5080212D01*
X30420379Y-5080212D01*
X29820261Y-5080212D01*
X29820261Y-4960188D01*
X29820261Y-4840165D01*
X29580213Y-4840165D01*
X29340166Y-4840165D01*
X29340166Y-4960188D01*
X29340166Y-5080212D01*
X29220143Y-5080212D01*
X29100119Y-5080212D01*
X29100119Y-5320259D01*
X29100119Y-5560306D01*
X29220143Y-5560306D01*
X29340166Y-5560306D01*
X29340166Y-5440283D01*
X29340166Y-5320259D01*
X29460190Y-5320259D01*
X29580213Y-5320259D01*
X29580213Y-5920377D01*
X29580213Y-6520495D01*
X29460190Y-6520495D01*
X29340166Y-6520495D01*
X29340166Y-6160424D01*
X29340166Y-5800354D01*
X29100119Y-5800354D01*
X28860072Y-5800354D01*
X28860072Y-5560306D01*
X28860072Y-5320259D01*
X28740048Y-5320259D01*
X28620024Y-5320259D01*
X28620024Y-5440283D01*
X28620024Y-5560306D01*
X28500001Y-5560306D01*
X28379977Y-5560306D01*
X28379977Y-5320259D01*
X28379977Y-5080212D01*
X28259954Y-5080212D01*
X28139930Y-5080212D01*
X28139930Y-5200235D01*
X28139930Y-5320259D01*
X28019906Y-5320259D01*
X27899883Y-5320259D01*
X27899883Y-5200235D01*
X27899883Y-5080212D01*
X27779859Y-5080212D01*
X27659835Y-5080212D01*
X27659835Y-5200235D01*
X27659835Y-5320259D01*
X27779859Y-5320259D01*
X27899883Y-5320259D01*
X27899883Y-5440283D01*
X27899883Y-5560306D01*
X28139930Y-5560306D01*
X28379977Y-5560306D01*
X28379977Y-5680330D01*
X28379977Y-5800354D01*
X28139930Y-5800354D01*
X27899883Y-5800354D01*
X27899883Y-5920377D01*
X27899883Y-6040401D01*
X28139930Y-6040401D01*
X28379977Y-6040401D01*
X28379977Y-6160424D01*
X28379977Y-6280448D01*
X28019906Y-6280448D01*
X27659835Y-6280448D01*
X27659835Y-6400472D01*
X27659835Y-6520495D01*
X27419788Y-6520495D01*
X27179741Y-6520495D01*
X27179741Y-6760543D01*
X27179741Y-7000590D01*
X26939694Y-7000590D01*
X26699646Y-7000590D01*
X26699646Y-6880566D01*
X26699646Y-6760543D01*
X26819670Y-6760543D01*
X26939694Y-6760543D01*
X26939694Y-6520495D01*
X26939694Y-6280448D01*
X26819670Y-6280448D01*
X26699646Y-6280448D01*
X26699646Y-6400472D01*
X26699646Y-6520495D01*
X26579623Y-6520495D01*
X26459599Y-6520495D01*
X26459599Y-6760543D01*
X26459599Y-7000590D01*
X25979505Y-7000590D01*
X25499410Y-7000590D01*
X25499410Y-6280448D01*
X25739457Y-6280448D01*
X25739457Y-6520495D01*
X25739457Y-6760543D01*
X25979505Y-6760543D01*
X26219552Y-6760543D01*
X26219552Y-6640519D01*
X26219552Y-6520495D01*
X26099528Y-6520495D01*
X25979505Y-6520495D01*
X25979505Y-6400472D01*
X25979505Y-6280448D01*
X26219552Y-6280448D01*
X26459599Y-6280448D01*
X26459599Y-6160424D01*
X27419788Y-6160424D01*
X27419788Y-6280448D01*
X27539812Y-6280448D01*
X27659835Y-6280448D01*
X27659835Y-6160424D01*
X27659835Y-6040401D01*
X27539812Y-6040401D01*
X27419788Y-6040401D01*
X27419788Y-6160424D01*
X26459599Y-6160424D01*
X26459599Y-6040401D01*
X26339576Y-6040401D01*
X26219552Y-6040401D01*
X26219552Y-5920377D01*
X26219552Y-5800354D01*
X26339576Y-5800354D01*
X26459599Y-5800354D01*
X26459599Y-5680330D01*
X26459599Y-5560306D01*
X26339576Y-5560306D01*
X26219552Y-5560306D01*
X26219552Y-5680330D01*
X26219552Y-5800354D01*
X26099528Y-5800354D01*
X25979505Y-5800354D01*
X25979505Y-6040401D01*
X25979505Y-6280448D01*
X25859481Y-6280448D01*
X25739457Y-6280448D01*
X25499410Y-6280448D01*
X25499410Y-6040401D01*
X25499410Y-5080212D01*
X25619434Y-5080212D01*
X25739457Y-5080212D01*
X25739457Y-5200235D01*
X25739457Y-5320259D01*
X25859481Y-5320259D01*
X25979505Y-5320259D01*
X25979505Y-5440283D01*
X25979505Y-5560306D01*
X26099528Y-5560306D01*
X26219552Y-5560306D01*
X26219552Y-5200235D01*
X26219552Y-5080212D01*
X26699646Y-5080212D01*
X26699646Y-5440283D01*
X26699646Y-5800354D01*
X27059717Y-5800354D01*
X27419788Y-5800354D01*
X27419788Y-5440283D01*
X27419788Y-5080212D01*
X27059717Y-5080212D01*
X26699646Y-5080212D01*
X26219552Y-5080212D01*
X26219552Y-4840165D01*
X26099528Y-4840165D01*
X25979505Y-4840165D01*
X25979505Y-4960188D01*
X25979505Y-5080212D01*
X25859481Y-5080212D01*
X25739457Y-5080212D01*
X25739457Y-4840165D01*
X25739457Y-4600117D01*
X25979505Y-4600117D01*
X26219552Y-4600117D01*
X26699646Y-4600117D01*
X26699646Y-4720141D01*
X26699646Y-4840165D01*
X26939694Y-4840165D01*
X27059717Y-4840165D01*
X27179741Y-4840165D01*
X27179741Y-4720141D01*
X27179741Y-4600117D01*
X27299765Y-4600117D01*
X27419788Y-4600117D01*
X27419788Y-4720141D01*
X27419788Y-4840165D01*
X27659835Y-4840165D01*
X27899883Y-4840165D01*
X27899883Y-4480094D01*
X27899883Y-4120023D01*
X27779859Y-4120023D01*
X27659835Y-4120023D01*
X27659835Y-4360070D01*
X27659835Y-4600117D01*
X27539812Y-4600117D01*
X27419788Y-4600117D01*
X27419788Y-4480094D01*
X27419788Y-4360070D01*
X27299765Y-4360070D01*
X27179741Y-4360070D01*
X27179741Y-4480094D01*
X27179741Y-4600117D01*
X26939694Y-4600117D01*
X26699646Y-4600117D01*
X26219552Y-4600117D01*
X26219552Y-4480094D01*
X26219552Y-4360070D01*
X26099528Y-4360070D01*
X25979505Y-4360070D01*
X25979505Y-4240046D01*
X25979505Y-4120023D01*
X26099528Y-4120023D01*
X26219552Y-4120023D01*
X26219552Y-4240046D01*
X26219552Y-4360070D01*
X26339576Y-4360070D01*
X26459599Y-4360070D01*
X26459599Y-4240046D01*
X26459599Y-4120023D01*
X26339576Y-4120023D01*
X26219552Y-4120023D01*
X26219552Y-3999999D01*
X26219552Y-3879976D01*
X26339576Y-3879976D01*
X26459599Y-3879976D01*
X26699646Y-3879976D01*
X26699646Y-4120023D01*
X26699646Y-4360070D01*
X26819670Y-4360070D01*
X26939694Y-4360070D01*
X26939694Y-4120023D01*
X26939694Y-3879976D01*
X26819670Y-3879976D01*
X26699646Y-3879976D01*
X26459599Y-3879976D01*
X26459599Y-3519905D01*
X26459599Y-3159834D01*
X26339576Y-3159834D01*
X26219552Y-3159834D01*
X26219552Y-3279857D01*
X26219552Y-3399881D01*
X26099528Y-3399881D01*
X25979505Y-3399881D01*
X25979505Y-3159834D01*
X25979505Y-2919787D01*
X26459599Y-2919787D01*
X26819670Y-2919787D01*
G37*
G36*
X28500001Y-6280448D02*
G01*
X28620024Y-6280448D01*
X28620024Y-6520495D01*
X28620024Y-6760543D01*
X28740048Y-6760543D01*
X28860072Y-6760543D01*
X28860072Y-6640519D01*
X28860072Y-6520495D01*
X29100119Y-6520495D01*
X29340166Y-6520495D01*
X29340166Y-6640519D01*
X29340166Y-6760543D01*
X29220143Y-6760543D01*
X29100119Y-6760543D01*
X29100119Y-6880566D01*
X29100119Y-7000590D01*
X28740048Y-7000590D01*
X28379977Y-7000590D01*
X28379977Y-6880566D01*
X28379977Y-6760543D01*
X28259954Y-6760543D01*
X28139930Y-6760543D01*
X28139930Y-6880566D01*
X28139930Y-7000590D01*
X27899883Y-7000590D01*
X27659835Y-7000590D01*
X27659835Y-6880566D01*
X27659835Y-6760543D01*
X27779859Y-6760543D01*
X27899883Y-6760543D01*
X27899883Y-6640519D01*
X27899883Y-6520495D01*
X28139930Y-6520495D01*
X28379977Y-6520495D01*
X28379977Y-6400472D01*
X28379977Y-6280448D01*
X28500001Y-6280448D01*
G37*
G36*
X31380568Y-4840165D02*
G01*
X31500591Y-4840165D01*
X31500591Y-4960188D01*
X31500591Y-5080212D01*
X31380568Y-5080212D01*
X31260544Y-5080212D01*
X31260544Y-4960188D01*
X31260544Y-4840165D01*
X31380568Y-4840165D01*
G37*
G36*
X25979505Y-3759952D02*
G01*
X25979505Y-3879976D01*
X25859481Y-3879976D01*
X25739457Y-3879976D01*
X25739457Y-4240046D01*
X25739457Y-4600117D01*
X25619434Y-4600117D01*
X25499410Y-4600117D01*
X25499410Y-4240046D01*
X25499410Y-3879976D01*
X25619434Y-3879976D01*
X25739457Y-3879976D01*
X25739457Y-3759952D01*
X25739457Y-3639928D01*
X25859481Y-3639928D01*
X25979505Y-3639928D01*
X25979505Y-3759952D01*
G37*
G36*
X31500591Y-3279857D02*
G01*
X31500591Y-3399881D01*
X31380568Y-3399881D01*
X31260544Y-3399881D01*
X31260544Y-3519905D01*
X31260544Y-3639928D01*
X31140521Y-3639928D01*
X31020497Y-3639928D01*
X31020497Y-3519905D01*
X31020497Y-3399881D01*
X31140521Y-3399881D01*
X31260544Y-3399881D01*
X31260544Y-3279857D01*
X31260544Y-3159834D01*
X31380568Y-3159834D01*
X31500591Y-3159834D01*
X31500591Y-3279857D01*
G37*
G36*
X27779859Y-2679739D02*
G01*
X27899883Y-2679739D01*
X27899883Y-2799763D01*
X27899883Y-2919787D01*
X28019906Y-2919787D01*
X28139930Y-2919787D01*
X28139930Y-3159834D01*
X28139930Y-3399881D01*
X28019906Y-3399881D01*
X27899883Y-3399881D01*
X27899883Y-3519905D01*
X27899883Y-3639928D01*
X27779859Y-3639928D01*
X27659835Y-3639928D01*
X27659835Y-3399881D01*
X27659835Y-3159834D01*
X27419788Y-3159834D01*
X27179741Y-3159834D01*
X27179741Y-3039810D01*
X27179741Y-2919787D01*
X27419788Y-2919787D01*
X27659835Y-2919787D01*
X27659835Y-2799763D01*
X27659835Y-2679739D01*
X27779859Y-2679739D01*
G37*
G36*
X27779859Y-1719550D02*
G01*
X27899883Y-1719550D01*
X27899883Y-1839574D01*
X27899883Y-1959598D01*
X27779859Y-1959598D01*
X27659835Y-1959598D01*
X27659835Y-2319668D01*
X27659835Y-2679739D01*
X27539812Y-2679739D01*
X27419788Y-2679739D01*
X27419788Y-2319668D01*
X27419788Y-1959598D01*
X27539812Y-1959598D01*
X27659835Y-1959598D01*
X27659835Y-1839574D01*
X27659835Y-1719550D01*
X27779859Y-1719550D01*
G37*
G36*
X27659835Y-1599527D02*
G01*
X27659835Y-1719550D01*
X27539812Y-1719550D01*
X27419788Y-1719550D01*
X27419788Y-1599527D01*
X27419788Y-1479503D01*
X27539812Y-1479503D01*
X27659835Y-1479503D01*
X27659835Y-1599527D01*
G37*
G36*
X28379977Y-1119432D02*
G01*
X28379977Y-1239456D01*
X28860072Y-1239456D01*
X29340166Y-1239456D01*
X29340166Y-1119432D01*
X29340166Y-999409D01*
X29460190Y-999409D01*
X29580213Y-999409D01*
X29580213Y-1119432D01*
X29580213Y-1239456D01*
X29460190Y-1239456D01*
X29340166Y-1239456D01*
X29340166Y-1359479D01*
X29340166Y-1479503D01*
X29460190Y-1479503D01*
X29580213Y-1479503D01*
X29580213Y-2079621D01*
X29580213Y-2679739D01*
X29460190Y-2679739D01*
X29340166Y-2679739D01*
X29340166Y-2559716D01*
X29340166Y-2439692D01*
X29220143Y-2439692D01*
X29100119Y-2439692D01*
X29100119Y-2319668D01*
X29100119Y-2199645D01*
X29220143Y-2199645D01*
X29340166Y-2199645D01*
X29340166Y-2079621D01*
X29340166Y-1959598D01*
X29100119Y-1959598D01*
X28860072Y-1959598D01*
X28860072Y-2079621D01*
X28860072Y-2199645D01*
X28740048Y-2199645D01*
X28620024Y-2199645D01*
X28620024Y-2079621D01*
X28620024Y-1959598D01*
X28500001Y-1959598D01*
X28379977Y-1959598D01*
X28379977Y-1839574D01*
X28379977Y-1719550D01*
X28620024Y-1719550D01*
X28860072Y-1719550D01*
X28860072Y-1599527D01*
X28860072Y-1479503D01*
X28620024Y-1479503D01*
X28379977Y-1479503D01*
X28379977Y-1599527D01*
X28379977Y-1719550D01*
X28139930Y-1719550D01*
X27899883Y-1719550D01*
X27899883Y-1599527D01*
X27899883Y-1479503D01*
X28019906Y-1479503D01*
X28139930Y-1479503D01*
X28139930Y-1359479D01*
X28139930Y-1239456D01*
X27779859Y-1239456D01*
X27419788Y-1239456D01*
X27419788Y-1119432D01*
X27419788Y-999409D01*
X27899883Y-999409D01*
X28379977Y-999409D01*
X28379977Y-1119432D01*
G37*
G36*
X28620024Y-2559716D02*
G01*
X28620024Y-2919787D01*
X28379977Y-2919787D01*
X28139930Y-2919787D01*
X28139930Y-2799763D01*
X28139930Y-2679739D01*
X28259954Y-2679739D01*
X28379977Y-2679739D01*
X28379977Y-2559716D01*
X28379977Y-2439692D01*
X28259954Y-2439692D01*
X28139930Y-2439692D01*
X28139930Y-2319668D01*
X28139930Y-2199645D01*
X28379977Y-2199645D01*
X28620024Y-2199645D01*
X28620024Y-2559716D01*
G37*
G36*
X29100119Y-2559716D02*
G01*
X29100119Y-2679739D01*
X28980095Y-2679739D01*
X28860072Y-2679739D01*
X28860072Y-2559716D01*
X28860072Y-2439692D01*
X28980095Y-2439692D01*
X29100119Y-2439692D01*
X29100119Y-2559716D01*
G37*
G36*
X29100119Y-3279857D02*
G01*
X29100119Y-3399881D01*
X28980095Y-3399881D01*
X28860072Y-3399881D01*
X28860072Y-3279857D01*
X28860072Y-3159834D01*
X28980095Y-3159834D01*
X29100119Y-3159834D01*
X29100119Y-3279857D01*
G37*
G36*
X30660426Y-999409D02*
G01*
X31500591Y-999409D01*
X31500591Y-1839574D01*
X31500591Y-2679739D01*
X30660426Y-2679739D01*
X29820261Y-2679739D01*
X29820261Y-1839574D01*
X29820261Y-1239456D01*
X30060308Y-1239456D01*
X30060308Y-1839574D01*
X30060308Y-2439692D01*
X30660426Y-2439692D01*
X31260544Y-2439692D01*
X31260544Y-1839574D01*
X31260544Y-1239456D01*
X30660426Y-1239456D01*
X30060308Y-1239456D01*
X29820261Y-1239456D01*
X29820261Y-999409D01*
X30660426Y-999409D01*
G37*
G36*
X30660426Y-5320259D02*
G01*
X31500591Y-5320259D01*
X31500591Y-6160424D01*
X31500591Y-7000590D01*
X30660426Y-7000590D01*
X29820261Y-7000590D01*
X29820261Y-6160424D01*
X29820261Y-5560306D01*
X30060308Y-5560306D01*
X30060308Y-6160424D01*
X30060308Y-6760543D01*
X30660426Y-6760543D01*
X31260544Y-6760543D01*
X31260544Y-6160424D01*
X31260544Y-5560306D01*
X30660426Y-5560306D01*
X30060308Y-5560306D01*
X29820261Y-5560306D01*
X29820261Y-5320259D01*
X30660426Y-5320259D01*
G37*
G36*
X26699646Y-1839574D02*
G01*
X26699646Y-2199645D01*
X26339576Y-2199645D01*
X25979505Y-2199645D01*
X25979505Y-1839574D01*
X25979505Y-1479503D01*
X26339576Y-1479503D01*
X26699646Y-1479503D01*
X26699646Y-1839574D01*
G37*
G36*
X27179741Y-5440283D02*
G01*
X27179741Y-5560306D01*
X27059717Y-5560306D01*
X26939694Y-5560306D01*
X26939694Y-5440283D01*
X26939694Y-5320259D01*
X27059717Y-5320259D01*
X27179741Y-5320259D01*
X27179741Y-5440283D01*
G37*
G36*
X28620024Y-5920377D02*
G01*
X28620024Y-6040401D01*
X28500001Y-6040401D01*
X28379977Y-6040401D01*
X28379977Y-5920377D01*
X28379977Y-5800354D01*
X28500001Y-5800354D01*
X28620024Y-5800354D01*
X28620024Y-5920377D01*
G37*
G36*
X29100119Y-6160424D02*
G01*
X29100119Y-6280448D01*
X28980095Y-6280448D01*
X28860072Y-6280448D01*
X28860072Y-6160424D01*
X28860072Y-6040401D01*
X28980095Y-6040401D01*
X29100119Y-6040401D01*
X29100119Y-6160424D01*
G37*
G36*
X30060308Y-4480094D02*
G01*
X30060308Y-4600117D01*
X29940284Y-4600117D01*
X29820261Y-4600117D01*
X29820261Y-4480094D01*
X29820261Y-4360070D01*
X29940284Y-4360070D01*
X30060308Y-4360070D01*
X30060308Y-4480094D01*
G37*
G36*
X28139930Y-2559716D02*
G01*
X28139930Y-2679739D01*
X28019906Y-2679739D01*
X27899883Y-2679739D01*
X27899883Y-2559716D01*
X27899883Y-2439692D01*
X28019906Y-2439692D01*
X28139930Y-2439692D01*
X28139930Y-2559716D01*
G37*
G36*
X31020497Y-1839574D02*
G01*
X31020497Y-2199645D01*
X30660426Y-2199645D01*
X30300355Y-2199645D01*
X30300355Y-1839574D01*
X30300355Y-1479503D01*
X30660426Y-1479503D01*
X31020497Y-1479503D01*
X31020497Y-1839574D01*
G37*
G36*
X31020497Y-6160424D02*
G01*
X31020497Y-6520495D01*
X30660426Y-6520495D01*
X30300355Y-6520495D01*
X30300355Y-6160424D01*
X30300355Y-5800354D01*
X30660426Y-5800354D01*
X31020497Y-5800354D01*
X31020497Y-6160424D01*
G37*
D11*
%TO.C,R2*%
X21977500Y-4262742D02*
X21977500Y-4737258D01*
X23022500Y-4262742D02*
X23022500Y-4737258D01*
%TO.C,R7*%
X48727500Y-6237258D02*
X48727500Y-5762742D01*
X49772500Y-6237258D02*
X49772500Y-5762742D01*
%TO.C,J3*%
X44265000Y-3311252D02*
X44265000Y-2788748D01*
X45735000Y-3311252D02*
X45735000Y-2788748D01*
%TO.C,J1*%
X1685000Y-2190000D02*
X2890000Y-2190000D01*
X2890000Y-1890000D02*
X2890000Y-2190000D01*
X2890000Y-1890000D02*
X7110000Y-1890000D01*
X2890000Y-3810000D02*
X2890000Y-4190000D01*
X2890000Y-5810000D02*
X2890000Y-6110000D01*
X2890000Y-6110000D02*
X7110000Y-6110000D01*
X7110000Y-1890000D02*
X7110000Y-2190000D01*
X7110000Y-3810000D02*
X7110000Y-4190000D01*
X7110000Y-5810000D02*
X7110000Y-6110000D01*
%TO.C,R3*%
X11977500Y-4512742D02*
X11977500Y-4987258D01*
X13022500Y-4512742D02*
X13022500Y-4987258D01*
%TO.C,U3*%
X37940000Y-1440000D02*
X42060000Y-1440000D01*
X37940000Y-1560000D02*
X37940000Y-1440000D01*
X37940000Y-6560000D02*
X37940000Y-6440000D01*
X42060000Y-1440000D02*
X42060000Y-1560000D01*
X42060000Y-6440000D02*
X42060000Y-6560000D01*
X42060000Y-6560000D02*
X37940000Y-6560000D01*
X37340000Y-1550000D02*
X37100000Y-1220000D01*
X37580000Y-1220000D01*
X37340000Y-1550000D01*
G36*
X37340000Y-1550000D02*
G01*
X37100000Y-1220000D01*
X37580000Y-1220000D01*
X37340000Y-1550000D01*
G37*
%TO.C,R6*%
X47227500Y-6237258D02*
X47227500Y-5762742D01*
X48272500Y-6237258D02*
X48272500Y-5762742D01*
%TO.C,J2*%
X51685000Y-2190000D02*
X52890000Y-2190000D01*
X52890000Y-1890000D02*
X52890000Y-2190000D01*
X52890000Y-1890000D02*
X57110000Y-1890000D01*
X52890000Y-3810000D02*
X52890000Y-4190000D01*
X52890000Y-5810000D02*
X52890000Y-6110000D01*
X52890000Y-6110000D02*
X57110000Y-6110000D01*
X57110000Y-1890000D02*
X57110000Y-2190000D01*
X57110000Y-3810000D02*
X57110000Y-4190000D01*
X57110000Y-5810000D02*
X57110000Y-6110000D01*
%TO.C,R4*%
X11987258Y-1977500D02*
X11512742Y-1977500D01*
X11987258Y-3022500D02*
X11512742Y-3022500D01*
%TO.C,U4*%
X14915000Y-1940000D02*
X19035000Y-1940000D01*
X14915000Y-2035000D02*
X14915000Y-1940000D01*
X14915000Y-7060000D02*
X14915000Y-6965000D01*
X19035000Y-1940000D02*
X19035000Y-2035000D01*
X19035000Y-6965000D02*
X19035000Y-7060000D01*
X19035000Y-7060000D02*
X14915000Y-7060000D01*
X19815000Y-7300000D02*
X19335000Y-7300000D01*
X19575000Y-6970000D01*
X19815000Y-7300000D01*
G36*
X19815000Y-7300000D02*
G01*
X19335000Y-7300000D01*
X19575000Y-6970000D01*
X19815000Y-7300000D01*
G37*
%TO.C,C6*%
X11890580Y-1510000D02*
X11609420Y-1510000D01*
X11890580Y-490000D02*
X11609420Y-490000D01*
%TO.C,C5*%
X34490000Y-4890580D02*
X34490000Y-4609420D01*
X35510000Y-4890580D02*
X35510000Y-4609420D01*
%TO.C,R5*%
X10477500Y-4987258D02*
X10477500Y-4512742D01*
X11522500Y-4987258D02*
X11522500Y-4512742D01*
%TD*%
M02*
