<?xml version="1.0" encoding="UTF-8" standalone="no"?>
<svg
   viewBox="0 0 793.7007874015749 1122.5196850393702"
   width="793.7007874015749"
   height="1122.5196850393702"
   version="1.1"
   id="svg15"
   sodipodi:docname="2_42_oled_screen_2.svg"
   inkscape:version="1.3.2 (091e20e, 2023-11-25, custom)"
   xmlns:inkscape="http://www.inkscape.org/namespaces/inkscape"
   xmlns:sodipodi="http://sodipodi.sourceforge.net/DTD/sodipodi-0.dtd"
   xmlns="http://www.w3.org/2000/svg"
   xmlns:svg="http://www.w3.org/2000/svg">
  <sodipodi:namedview
     id="namedview15"
     pagecolor="#ffffff"
     bordercolor="#666666"
     borderopacity="1.0"
     inkscape:showpageshadow="2"
     inkscape:pageopacity="0.0"
     inkscape:pagecheckerboard="0"
     inkscape:deskcolor="#d1d1d1"
     inkscape:zoom="2.0938813"
     inkscape:cx="398.78096"
     inkscape:cy="599.60418"
     inkscape:window-width="1920"
     inkscape:window-height="1027"
     inkscape:window-x="-8"
     inkscape:window-y="-8"
     inkscape:window-maximized="1"
     inkscape:current-layer="g15" />
  <desc
     id="desc1">losc_isolator_board_test_2.dxf - scale = 1.000000, origin = (0.000000, 0.000000), method = manual</desc>
  <defs
     id="defs4">
    <marker
       id="DistanceX"
       orient="auto"
       refX="0.0"
       refY="0.0"
       style="overflow:visible">
      <path
         d="M 3,-3 L -3,3 M 0,-5 L  0,5"
         style="stroke:#000000; stroke-width:0.5"
         id="path1" />
    </marker>
    <pattern
       id="Hatch"
       patternUnits="userSpaceOnUse"
       width="8"
       height="8"
       x="0"
       y="0">
      <path
         d="M8 4 l-4,4"
         stroke="#000000"
         stroke-width="0.25"
         linecap="square"
         id="path2" />
      <path
         d="M6 2 l-4,4"
         stroke="#000000"
         stroke-width="0.25"
         linecap="square"
         id="path3" />
      <path
         d="M4 0 l-4,4"
         stroke="#000000"
         stroke-width="0.25"
         linecap="square"
         id="path4" />
    </pattern>
    <symbol
       id="*MODEL_SPACE" />
    <symbol
       id="*PAPER_SPACE" />
  </defs>
  <g
     inkscape:groupmode="layer"
     inkscape:label="0"
     id="g15">
    <path
       d="M 262.67717,479.99998 H 531.02363 V 642.51967 H 262.67717 Z"
       style="fill:none;stroke:#000000"
       id="path5" />
    <path
       d="M 523.84253,487.18109 V 635.33857 H 269.85828 V 487.18109 Z"
       style="fill:none;stroke:#000000"
       id="path6" />
    <path
       d="M 513.25985,637.22833 H 278.55119 V 490.58266 h 234.70866 z"
       style="fill:none;stroke:#000000"
       id="path7" />
    <path
       d="M 503.62206,609.63778 V 498.14172 H 288.18899 v 111.49606 z"
       style="fill:none;stroke:#000000"
       id="path8" />
    <path
       d="m 270.23623,590.05983 a 1.889764,1.889764 0 0 0 -3.77953,0 1.889764,1.889764 0 0 0 3.77953,0 z"
       style="fill:none;stroke:#000000"
       id="path9" />
    <path
       d="m 270.23623,580.45983 a 1.889764,1.889764 0 0 0 -3.77953,0 1.889764,1.889764 0 0 0 3.77953,0 z"
       style="fill:none;stroke:#000000"
       id="path10" />
    <path
       d="m 270.23623,570.85983 a 1.889764,1.889764 0 0 0 -3.77953,0 1.889764,1.889764 0 0 0 3.77953,0 z"
       style="fill:none;stroke:#000000"
       id="path11" />
    <path
       d="m 270.23623,561.25983 a 1.889764,1.889764 0 0 0 -3.77953,0 1.889764,1.889764 0 0 0 3.77953,0 z"
       style="fill:none;stroke:#000000"
       id="path12" />
    <path
       d="m 270.23623,551.65983 a 1.889764,1.889764 0 0 0 -3.77953,0 1.889764,1.889764 0 0 0 3.77953,0 z"
       style="fill:none;stroke:#000000"
       id="path13" />
    <path
       d="m 270.23623,542.05983 a 1.889764,1.889764 0 0 0 -3.77953,0 1.889764,1.889764 0 0 0 3.77953,0 z"
       style="fill:none;stroke:#000000"
       id="path14" />
    <path
       d="m 270.23623,532.45983 a 1.889764,1.889764 0 0 0 -3.77953,0 1.889764,1.889764 0 0 0 3.77953,0 z"
       style="fill:none;stroke:#000000"
       id="path15" />
  </g>
</svg>
