<?xml version="1.0" encoding="UTF-8" standalone="no"?>
<svg
   viewBox="0 0 815.99998 1056"
   width="8.5in"
   height="11in"
   version="1.1"
   id="svg15"
   sodipodi:docname="2_42_oled_screen.svg"
   inkscape:version="1.3.2 (091e20e, 2023-11-25, custom)"
   xmlns:inkscape="http://www.inkscape.org/namespaces/inkscape"
   xmlns:sodipodi="http://sodipodi.sourceforge.net/DTD/sodipodi-0.dtd"
   xmlns="http://www.w3.org/2000/svg"
   xmlns:svg="http://www.w3.org/2000/svg">
  <sodipodi:namedview
     id="namedview15"
     pagecolor="#ffffff"
     bordercolor="#666666"
     borderopacity="1.0"
     inkscape:showpageshadow="2"
     inkscape:pageopacity="0.0"
     inkscape:pagecheckerboard="0"
     inkscape:deskcolor="#d1d1d1"
     inkscape:document-units="mm"
     inkscape:zoom="1.0469407"
     inkscape:cx="317.11444"
     inkscape:cy="434.12202"
     inkscape:window-width="1920"
     inkscape:window-height="1027"
     inkscape:window-x="-8"
     inkscape:window-y="-8"
     inkscape:window-maximized="1"
     inkscape:current-layer="g15" />
  <desc
     id="desc1">2_42_oled_screen.dxf - scale = 1.000000, origin = (0.000000, 0.000000), method = manual</desc>
  <defs
     id="defs4">
    <marker
       id="DistanceX"
       orient="auto"
       refX="0"
       refY="0"
       style="overflow:visible">
      <path
         d="M 3,-3 -3,3 M 0,-5 V 5"
         style="stroke:#000000;stroke-width:0.5"
         id="path1" />
    </marker>
    <pattern
       id="Hatch"
       patternUnits="userSpaceOnUse"
       width="8"
       height="8"
       x="0"
       y="0">
      <path
         d="M8 4 l-4,4"
         stroke="#000000"
         stroke-width="0.25"
         linecap="square"
         id="path2" />
      <path
         d="M6 2 l-4,4"
         stroke="#000000"
         stroke-width="0.25"
         linecap="square"
         id="path3" />
      <path
         d="M4 0 l-4,4"
         stroke="#000000"
         stroke-width="0.25"
         linecap="square"
         id="path4" />
    </pattern>
    <symbol
       id="*MODEL_SPACE" />
    <symbol
       id="*PAPER_SPACE" />
  </defs>
  <g
     inkscape:groupmode="layer"
     inkscape:label="0"
     id="g15">
    <path
       d="M 271.937,446.74015 H 544.06298 V 609.25983 H 271.937 Z"
       style="fill:none;stroke:#000000"
       id="path5" />
    <path
       d="M 536.50392,454.29921 V 601.70078 H 279.49606 V 454.29921 Z"
       style="fill:none;stroke:#000000"
       id="path6" />
    <path
       d="M 525.35433,603.9685 H 290.64566 V 457.32283 h 234.70867 z"
       style="fill:none;stroke:#000000"
       id="path7" />
    <path
       d="M 515.71653,576.37795 V 464.88188 H 300.28346 v 111.49607 z"
       style="fill:none;stroke:#000000"
       id="path8" />
    <path
       d="m 283.42676,556.79999 a 1.889764,1.889764 0 0 0 -3.77952,0 1.889764,1.889764 0 0 0 3.77952,0 z"
       style="fill:none;stroke:#000000"
       id="path9" />
    <path
       d="m 283.42676,547.19999 a 1.889764,1.889764 0 0 0 -3.77952,0 1.889764,1.889764 0 0 0 3.77952,0 z"
       style="fill:none;stroke:#000000"
       id="path10" />
    <path
       d="m 283.42676,537.59999 a 1.889764,1.889764 0 0 0 -3.77952,0 1.889764,1.889764 0 0 0 3.77952,0 z"
       style="fill:none;stroke:#000000"
       id="path11" />
    <path
       d="m 283.42676,527.99999 a 1.889764,1.889764 0 0 0 -3.77952,0 1.889764,1.889764 0 0 0 3.77952,0 z"
       style="fill:none;stroke:#000000"
       id="path12" />
    <path
       d="m 283.42676,518.39999 a 1.889764,1.889764 0 0 0 -3.77952,0 1.889764,1.889764 0 0 0 3.77952,0 z"
       style="fill:none;stroke:#000000"
       id="path13" />
    <path
       d="m 283.42676,508.79999 a 1.889764,1.889764 0 0 0 -3.77952,0 1.889764,1.889764 0 0 0 3.77952,0 z"
       style="fill:none;stroke:#000000"
       id="path14" />
    <path
       d="m 283.42676,499.19999 a 1.889764,1.889764 0 0 0 -3.77952,0 1.889764,1.889764 0 0 0 3.77952,0 z"
       style="fill:none;stroke:#000000"
       id="path15" />
  </g>
</svg>
