%TF.GenerationSoftware,KiCad,Pcbnew,(6.0.4)*%
%TF.CreationDate,2022-06-04T04:29:55-07:00*%
%TF.ProjectId,pb_orangepi - hori,70625f6f-7261-46e6-9765-7069202d2068,rev?*%
%TF.SameCoordinates,PX9896800PY4d3f640*%
%TF.FileFunction,Copper,L1,Top*%
%TF.FilePolarity,Positive*%
%FSLAX46Y46*%
G04 Gerber Fmt 4.6, Leading zero omitted, Abs format (unit mm)*
G04 Created by KiCad (PCBNEW (6.0.4)) date 2022-06-04 04:29:55*
%MOMM*%
%LPD*%
G01*
G04 APERTURE LIST*
G04 Aperture macros list*
%AMRoundRect*
0 Rectangle with rounded corners*
0 $1 Rounding radius*
0 $2 $3 $4 $5 $6 $7 $8 $9 X,Y pos of 4 corners*
0 Add a 4 corners polygon primitive as box body*
4,1,4,$2,$3,$4,$5,$6,$7,$8,$9,$2,$3,0*
0 Add four circle primitives for the rounded corners*
1,1,$1+$1,$2,$3*
1,1,$1+$1,$4,$5*
1,1,$1+$1,$6,$7*
1,1,$1+$1,$8,$9*
0 Add four rect primitives between the rounded corners*
20,1,$1+$1,$2,$3,$4,$5,0*
20,1,$1+$1,$4,$5,$6,$7,0*
20,1,$1+$1,$6,$7,$8,$9,0*
20,1,$1+$1,$8,$9,$2,$3,0*%
G04 Aperture macros list end*
%TA.AperFunction,SMDPad,CuDef*%
%ADD10RoundRect,0.250000X0.262500X0.450000X-0.262500X0.450000X-0.262500X-0.450000X0.262500X-0.450000X0*%
%TD*%
%TA.AperFunction,SMDPad,CuDef*%
%ADD11R,0.650000X1.700000*%
%TD*%
%TA.AperFunction,ComponentPad*%
%ADD12R,1.600000X1.600000*%
%TD*%
%TA.AperFunction,ComponentPad*%
%ADD13C,1.600000*%
%TD*%
%TA.AperFunction,ComponentPad*%
%ADD14R,1.700000X1.700000*%
%TD*%
%TA.AperFunction,ComponentPad*%
%ADD15O,1.700000X1.700000*%
%TD*%
%TA.AperFunction,ViaPad*%
%ADD16C,5.000000*%
%TD*%
%TA.AperFunction,Conductor*%
%ADD17C,0.500000*%
%TD*%
%TA.AperFunction,Conductor*%
%ADD18C,0.300000*%
%TD*%
%TA.AperFunction,Conductor*%
%ADD19C,0.250000*%
%TD*%
G04 APERTURE END LIST*
D10*
%TO.P,R1,1*%
%TO.N,+3V3*%
X5912500Y-43000000D03*
%TO.P,R1,2*%
%TO.N,/SPI0_CS0*%
X4087500Y-43000000D03*
%TD*%
D11*
%TO.P,U1,1,S#*%
%TO.N,/SPI0_CS0*%
X4095000Y-39650000D03*
%TO.P,U1,2,DQ1*%
%TO.N,/SPI0_MISO*%
X5365000Y-39650000D03*
%TO.P,U1,3,W#/VPP*%
%TO.N,+3V3*%
X6635000Y-39650000D03*
%TO.P,U1,4,VSS*%
%TO.N,GND*%
X7905000Y-39650000D03*
%TO.P,U1,5,DQ0*%
%TO.N,/SPI0_MOSI*%
X7905000Y-32350000D03*
%TO.P,U1,6,C*%
%TO.N,/SPI0_CLK*%
X6635000Y-32350000D03*
%TO.P,U1,7,HOLD#*%
%TO.N,+3V3*%
X5365000Y-32350000D03*
%TO.P,U1,8,VCC*%
X4095000Y-32350000D03*
%TD*%
D12*
%TO.P,C1,1*%
%TO.N,+3V3*%
X6000000Y-49000000D03*
D13*
%TO.P,C1,2*%
%TO.N,GND*%
X8500000Y-49000000D03*
%TD*%
D14*
%TO.P,J1,1,Pin_1*%
%TO.N,unconnected-(J1-Pad1)*%
X14880000Y-10400000D03*
D15*
%TO.P,J1,2,Pin_2*%
%TO.N,unconnected-(J1-Pad2)*%
X17420000Y-10400000D03*
%TO.P,J1,3,Pin_3*%
%TO.N,unconnected-(J1-Pad3)*%
X14880000Y-12940000D03*
%TO.P,J1,4,Pin_4*%
%TO.N,unconnected-(J1-Pad4)*%
X17420000Y-12940000D03*
%TO.P,J1,5,Pin_5*%
%TO.N,unconnected-(J1-Pad5)*%
X14880000Y-15480000D03*
%TO.P,J1,6,Pin_6*%
%TO.N,unconnected-(J1-Pad6)*%
X17420000Y-15480000D03*
%TO.P,J1,7,Pin_7*%
%TO.N,unconnected-(J1-Pad7)*%
X14880000Y-18020000D03*
%TO.P,J1,8,Pin_8*%
%TO.N,unconnected-(J1-Pad8)*%
X17420000Y-18020000D03*
%TO.P,J1,9,Pin_9*%
%TO.N,unconnected-(J1-Pad9)*%
X14880000Y-20560000D03*
%TO.P,J1,10,Pin_10*%
%TO.N,unconnected-(J1-Pad10)*%
X17420000Y-20560000D03*
%TO.P,J1,11,Pin_11*%
%TO.N,unconnected-(J1-Pad11)*%
X14880000Y-23100000D03*
%TO.P,J1,12,Pin_12*%
%TO.N,unconnected-(J1-Pad12)*%
X17420000Y-23100000D03*
%TO.P,J1,13,Pin_13*%
%TO.N,unconnected-(J1-Pad13)*%
X14880000Y-25640000D03*
%TO.P,J1,14,Pin_14*%
%TO.N,unconnected-(J1-Pad14)*%
X17420000Y-25640000D03*
%TO.P,J1,15,Pin_15*%
%TO.N,unconnected-(J1-Pad15)*%
X14880000Y-28180000D03*
%TO.P,J1,16,Pin_16*%
%TO.N,unconnected-(J1-Pad16)*%
X17420000Y-28180000D03*
%TO.P,J1,17,Pin_17*%
%TO.N,+3V3*%
X14880000Y-30720000D03*
%TO.P,J1,18,Pin_18*%
%TO.N,unconnected-(J1-Pad18)*%
X17420000Y-30720000D03*
%TO.P,J1,19,Pin_19*%
%TO.N,/SPI0_MOSI*%
X14880000Y-33260000D03*
%TO.P,J1,20,Pin_20*%
%TO.N,unconnected-(J1-Pad20)*%
X17420000Y-33260000D03*
%TO.P,J1,21,Pin_21*%
%TO.N,/SPI0_MISO*%
X14880000Y-35800000D03*
%TO.P,J1,22,Pin_22*%
%TO.N,unconnected-(J1-Pad22)*%
X17420000Y-35800000D03*
%TO.P,J1,23,Pin_23*%
%TO.N,/SPI0_CLK*%
X14880000Y-38340000D03*
%TO.P,J1,24,Pin_24*%
%TO.N,/SPI0_CS0*%
X17420000Y-38340000D03*
%TO.P,J1,25,Pin_25*%
%TO.N,GND*%
X14880000Y-40880000D03*
%TO.P,J1,26,Pin_26*%
%TO.N,unconnected-(J1-Pad26)*%
X17420000Y-40880000D03*
%TO.P,J1,27,Pin_27*%
%TO.N,unconnected-(J1-Pad27)*%
X14880000Y-43420000D03*
%TO.P,J1,28,Pin_28*%
%TO.N,unconnected-(J1-Pad28)*%
X17420000Y-43420000D03*
%TO.P,J1,29,Pin_29*%
%TO.N,unconnected-(J1-Pad29)*%
X14880000Y-45960000D03*
%TO.P,J1,30,Pin_30*%
%TO.N,unconnected-(J1-Pad30)*%
X17420000Y-45960000D03*
%TO.P,J1,31,Pin_31*%
%TO.N,unconnected-(J1-Pad31)*%
X14880000Y-48500000D03*
%TO.P,J1,32,Pin_32*%
%TO.N,unconnected-(J1-Pad32)*%
X17420000Y-48500000D03*
%TO.P,J1,33,Pin_33*%
%TO.N,unconnected-(J1-Pad33)*%
X14880000Y-51040000D03*
%TO.P,J1,34,Pin_34*%
%TO.N,unconnected-(J1-Pad34)*%
X17420000Y-51040000D03*
%TO.P,J1,35,Pin_35*%
%TO.N,unconnected-(J1-Pad35)*%
X14880000Y-53580000D03*
%TO.P,J1,36,Pin_36*%
%TO.N,unconnected-(J1-Pad36)*%
X17420000Y-53580000D03*
%TO.P,J1,37,Pin_37*%
%TO.N,unconnected-(J1-Pad37)*%
X14880000Y-56120000D03*
%TO.P,J1,38,Pin_38*%
%TO.N,unconnected-(J1-Pad38)*%
X17420000Y-56120000D03*
%TO.P,J1,39,Pin_39*%
%TO.N,unconnected-(J1-Pad39)*%
X14880000Y-58660000D03*
%TO.P,J1,40,Pin_40*%
%TO.N,unconnected-(J1-Pad40)*%
X17420000Y-58660000D03*
%TD*%
D16*
%TO.N,*%
X15240000Y-2944000D03*
X15240000Y-66060000D03*
%TD*%
D17*
%TO.N,+3V3*%
X5222500Y-31222500D02*
X4095000Y-32350000D01*
D18*
X16129511Y-38870489D02*
X16129511Y-37822435D01*
D17*
X14030000Y-29870000D02*
X6575000Y-29870000D01*
D18*
X16902435Y-37049511D02*
X17950489Y-37049511D01*
D17*
X14880000Y-30720000D02*
X14030000Y-29870000D01*
X5365000Y-32350000D02*
X5365000Y-31365000D01*
D18*
X17927076Y-32000000D02*
X16932924Y-32000000D01*
X6635000Y-38745978D02*
X7380978Y-38000000D01*
D17*
X5912500Y-43000000D02*
X6635000Y-42277500D01*
D18*
X6635000Y-39650000D02*
X6635000Y-38745978D01*
D17*
X5912500Y-43000000D02*
X6000000Y-43087500D01*
D18*
X19000000Y-33072924D02*
X17927076Y-32000000D01*
X19000000Y-36000000D02*
X19000000Y-33072924D01*
X15410489Y-39589511D02*
X16129511Y-38870489D01*
X16129511Y-37822435D02*
X16902435Y-37049511D01*
X16932924Y-32000000D02*
X15652924Y-30720000D01*
D17*
X5365000Y-31365000D02*
X5222500Y-31222500D01*
D18*
X15652924Y-30720000D02*
X14880000Y-30720000D01*
X14362435Y-39589511D02*
X15410489Y-39589511D01*
D17*
X6635000Y-42277500D02*
X6635000Y-41365000D01*
D18*
X12772924Y-38000000D02*
X14362435Y-39589511D01*
D17*
X6635000Y-41365000D02*
X6635000Y-39650000D01*
X6000000Y-43087500D02*
X6000000Y-49000000D01*
D18*
X17950489Y-37049511D02*
X19000000Y-36000000D01*
X7380978Y-38000000D02*
X12772924Y-38000000D01*
D17*
X6575000Y-29870000D02*
X5222500Y-31222500D01*
%TO.N,GND*%
X8500000Y-41500000D02*
X9120000Y-40880000D01*
X8500000Y-49000000D02*
X8500000Y-41500000D01*
X9120000Y-40880000D02*
X9135000Y-40880000D01*
X9135000Y-40880000D02*
X7905000Y-39650000D01*
X14880000Y-40880000D02*
X9135000Y-40880000D01*
%TO.N,/SPI0_MOSI*%
X14880000Y-33260000D02*
X8815000Y-33260000D01*
X8815000Y-33260000D02*
X7905000Y-32350000D01*
%TO.N,/SPI0_MISO*%
X14880000Y-35800000D02*
X7865000Y-35800000D01*
X7865000Y-35800000D02*
X5365000Y-38300000D01*
X5365000Y-38300000D02*
X5365000Y-39650000D01*
D18*
%TO.N,/SPI0_CLK*%
X16129511Y-32742435D02*
X15387076Y-32000000D01*
X14880000Y-37567076D02*
X16129511Y-36317565D01*
X7180489Y-31100489D02*
X6635000Y-31645978D01*
X6635000Y-31645978D02*
X6635000Y-32350000D01*
X15387076Y-32000000D02*
X9529022Y-32000000D01*
X16129511Y-36317565D02*
X16129511Y-32742435D01*
X14880000Y-38340000D02*
X14880000Y-37567076D01*
X9529022Y-32000000D02*
X8629511Y-31100489D01*
X8629511Y-31100489D02*
X7180489Y-31100489D01*
%TO.N,/SPI0_CS0*%
X14403413Y-42129511D02*
X9699511Y-46833413D01*
X8996855Y-50199511D02*
X4800489Y-50199511D01*
D19*
X4087500Y-43000000D02*
X4095000Y-42992500D01*
D18*
X16129511Y-41397565D02*
X15397565Y-42129511D01*
X17420000Y-38340000D02*
X17420000Y-39071946D01*
X4800489Y-50199511D02*
X4087500Y-49486522D01*
X15397565Y-42129511D02*
X14403413Y-42129511D01*
X16129511Y-40362435D02*
X16129511Y-41397565D01*
X4087500Y-49486522D02*
X4087500Y-43000000D01*
X9699511Y-46833413D02*
X9699511Y-49496855D01*
X9699511Y-49496855D02*
X8996855Y-50199511D01*
X17420000Y-39071946D02*
X16129511Y-40362435D01*
D19*
X4095000Y-42992500D02*
X4095000Y-39650000D01*
%TD*%
M02*
