%TF.GenerationSoftware,KiCad,Pcbnew,8.0.3*%
%TF.CreationDate,2024-07-13T19:46:09-07:00*%
%TF.ProjectId,Ultra_Light_II,556c7472-615f-44c6-9967-68745f49492e,rev?*%
%TF.SameCoordinates,PX87782d0PY5923d30*%
%TF.FileFunction,Copper,L1,Top*%
%TF.FilePolarity,Positive*%
%FSLAX46Y46*%
G04 Gerber Fmt 4.6, Leading zero omitted, Abs format (unit mm)*
G04 Created by KiCad (PCBNEW 8.0.3) date 2024-07-13 19:46:09*
%MOMM*%
%LPD*%
G01*
G04 APERTURE LIST*
G04 Aperture macros list*
%AMRoundRect*
0 Rectangle with rounded corners*
0 $1 Rounding radius*
0 $2 $3 $4 $5 $6 $7 $8 $9 X,Y pos of 4 corners*
0 Add a 4 corners polygon primitive as box body*
4,1,4,$2,$3,$4,$5,$6,$7,$8,$9,$2,$3,0*
0 Add four circle primitives for the rounded corners*
1,1,$1+$1,$2,$3*
1,1,$1+$1,$4,$5*
1,1,$1+$1,$6,$7*
1,1,$1+$1,$8,$9*
0 Add four rect primitives between the rounded corners*
20,1,$1+$1,$2,$3,$4,$5,0*
20,1,$1+$1,$4,$5,$6,$7,0*
20,1,$1+$1,$6,$7,$8,$9,0*
20,1,$1+$1,$8,$9,$2,$3,0*%
G04 Aperture macros list end*
%TA.AperFunction,SMDPad,CuDef*%
%ADD10RoundRect,0.135000X-0.185000X0.135000X-0.185000X-0.135000X0.185000X-0.135000X0.185000X0.135000X0*%
%TD*%
%TA.AperFunction,ComponentPad*%
%ADD11R,1.800000X1.800000*%
%TD*%
%TA.AperFunction,ComponentPad*%
%ADD12C,1.800000*%
%TD*%
%TA.AperFunction,ConnectorPad*%
%ADD13R,8.000000X1.900000*%
%TD*%
%TA.AperFunction,ConnectorPad*%
%ADD14R,7.500000X2.000000*%
%TD*%
%TA.AperFunction,Conductor*%
%ADD15C,1.500000*%
%TD*%
%TA.AperFunction,Conductor*%
%ADD16C,0.500000*%
%TD*%
G04 APERTURE END LIST*
D10*
%TO.P,R1,1*%
%TO.N,Net-(D1-K)*%
X14950000Y-8020000D03*
%TO.P,R1,2*%
%TO.N,GND*%
X14950000Y-9040000D03*
%TD*%
D11*
%TO.P,D1,1,K*%
%TO.N,Net-(D1-K)*%
X14950000Y-4570000D03*
D12*
%TO.P,D1,2,A*%
%TO.N,+5V*%
X14950000Y-2030000D03*
%TD*%
D13*
%TO.P,J1,1,VBUS*%
%TO.N,+5V*%
X4900000Y-2220000D03*
D14*
%TO.P,J1,2,D-*%
%TO.N,unconnected-(J1-D--Pad2)*%
X5150000Y-4730000D03*
%TO.P,J1,3,D+*%
%TO.N,unconnected-(J1-D+-Pad3)*%
X5150000Y-7330000D03*
D13*
%TO.P,J1,4,GND*%
%TO.N,GND*%
X4900000Y-9840000D03*
%TD*%
D15*
%TO.N,+5V*%
X9620000Y-1880000D02*
X14800000Y-1880000D01*
X4900000Y-2220000D02*
X9280000Y-2220000D01*
X14800000Y-1880000D02*
X14950000Y-2030000D01*
X9280000Y-2220000D02*
X9620000Y-1880000D01*
%TO.N,Net-(D1-K)*%
X14950000Y-5950000D02*
X15000000Y-6000000D01*
D16*
X14950000Y-8020000D02*
X14950000Y-5950000D01*
D15*
X14950000Y-4570000D02*
X14950000Y-5950000D01*
%TO.N,GND*%
X9340000Y-9840000D02*
X9500000Y-10000000D01*
X9500000Y-10000000D02*
X9680000Y-10180000D01*
X13320000Y-10180000D02*
X13500000Y-10000000D01*
D16*
X14460000Y-9040000D02*
X13500000Y-10000000D01*
D15*
X9680000Y-10180000D02*
X13320000Y-10180000D01*
D16*
X14950000Y-9040000D02*
X14460000Y-9040000D01*
D15*
X4900000Y-9840000D02*
X9340000Y-9840000D01*
%TD*%
%TA.AperFunction,Conductor*%
%TO.N,+5V*%
G36*
X14417548Y-520185D02*
G01*
X14463303Y-572989D01*
X14473247Y-642147D01*
X14444222Y-705703D01*
X14390773Y-741781D01*
X14385703Y-743521D01*
X14385697Y-743523D01*
X14181650Y-853949D01*
X14151200Y-877647D01*
X14861415Y-1587861D01*
X14776306Y-1610667D01*
X14673694Y-1669910D01*
X14589910Y-1753694D01*
X14530667Y-1856306D01*
X14507861Y-1941415D01*
X13798811Y-1232365D01*
X13714516Y-1361390D01*
X13621317Y-1573864D01*
X13564361Y-1798781D01*
X13545202Y-2029994D01*
X13545202Y-2030005D01*
X13564361Y-2261218D01*
X13621317Y-2486135D01*
X13714515Y-2698606D01*
X13786102Y-2808178D01*
X13806289Y-2875068D01*
X13787109Y-2942253D01*
X13734651Y-2988404D01*
X13682293Y-3000000D01*
X12000000Y-3000000D01*
X12000000Y-3376000D01*
X11980315Y-3443039D01*
X11927511Y-3488794D01*
X11876000Y-3500000D01*
X11513939Y-3500000D01*
X11446900Y-3480315D01*
X11401145Y-3427511D01*
X11392322Y-3400192D01*
X11371419Y-3295113D01*
X11365894Y-3267334D01*
X11325371Y-3169501D01*
X11298016Y-3103459D01*
X11298009Y-3103446D01*
X11199464Y-2955965D01*
X11199461Y-2955961D01*
X11074038Y-2830538D01*
X11074034Y-2830535D01*
X10926553Y-2731990D01*
X10926540Y-2731983D01*
X10762667Y-2664106D01*
X10762658Y-2664103D01*
X10588694Y-2629500D01*
X10588691Y-2629500D01*
X10411309Y-2629500D01*
X10411306Y-2629500D01*
X10237341Y-2664103D01*
X10237332Y-2664106D01*
X10073459Y-2731983D01*
X10073446Y-2731990D01*
X9925965Y-2830535D01*
X9925961Y-2830538D01*
X9800538Y-2955961D01*
X9800535Y-2955965D01*
X9701990Y-3103446D01*
X9701983Y-3103459D01*
X9638561Y-3256578D01*
X9594721Y-3310982D01*
X9528427Y-3333047D01*
X9460727Y-3315768D01*
X9413116Y-3264631D01*
X9400000Y-3209126D01*
X9400000Y-2470000D01*
X9000000Y-2470000D01*
X9000000Y-1970000D01*
X9400000Y-1970000D01*
X9400000Y-1222172D01*
X9399999Y-1222155D01*
X9393598Y-1162627D01*
X9393596Y-1162620D01*
X9343354Y-1027913D01*
X9343350Y-1027906D01*
X9251875Y-905712D01*
X9253759Y-904301D01*
X9226384Y-854168D01*
X9231368Y-784476D01*
X9259863Y-740136D01*
X9463183Y-536816D01*
X9524505Y-503334D01*
X9550862Y-500500D01*
X14350509Y-500500D01*
X14417548Y-520185D01*
G37*
%TD.AperFunction*%
%TA.AperFunction,Conductor*%
G36*
X17942539Y-520185D02*
G01*
X17988294Y-572989D01*
X17999500Y-624500D01*
X17999500Y-2876000D01*
X17979815Y-2943039D01*
X17927011Y-2988794D01*
X17875500Y-3000000D01*
X16217707Y-3000000D01*
X16150668Y-2980315D01*
X16104913Y-2927511D01*
X16094969Y-2858353D01*
X16113898Y-2808178D01*
X16185484Y-2698606D01*
X16278682Y-2486135D01*
X16335638Y-2261218D01*
X16354798Y-2030005D01*
X16354798Y-2029994D01*
X16335638Y-1798781D01*
X16278682Y-1573864D01*
X16185484Y-1361393D01*
X16101186Y-1232365D01*
X15392137Y-1941413D01*
X15369333Y-1856306D01*
X15310090Y-1753694D01*
X15226306Y-1669910D01*
X15123694Y-1610667D01*
X15038584Y-1587861D01*
X15748797Y-877647D01*
X15748797Y-877645D01*
X15718360Y-853955D01*
X15718354Y-853951D01*
X15514302Y-743523D01*
X15514296Y-743521D01*
X15509227Y-741781D01*
X15452212Y-701395D01*
X15426082Y-636595D01*
X15439134Y-567955D01*
X15487223Y-517268D01*
X15549491Y-500500D01*
X17875500Y-500500D01*
X17942539Y-520185D01*
G37*
%TD.AperFunction*%
%TD*%
%TA.AperFunction,Conductor*%
%TO.N,Net-(D1-K)*%
G36*
X13493039Y-3519685D02*
G01*
X13538794Y-3572489D01*
X13550000Y-3624000D01*
X13550000Y-4320000D01*
X14574722Y-4320000D01*
X14530667Y-4396306D01*
X14500000Y-4510756D01*
X14500000Y-4629244D01*
X14530667Y-4743694D01*
X14574722Y-4820000D01*
X13550000Y-4820000D01*
X13550000Y-5517844D01*
X13556401Y-5577372D01*
X13556403Y-5577379D01*
X13606645Y-5712086D01*
X13606649Y-5712093D01*
X13692809Y-5827187D01*
X13692812Y-5827190D01*
X13807906Y-5913350D01*
X13807913Y-5913354D01*
X13942620Y-5963596D01*
X13942627Y-5963598D01*
X14002155Y-5969999D01*
X14002172Y-5970000D01*
X14700000Y-5970000D01*
X14700000Y-4945277D01*
X14776306Y-4989333D01*
X14890756Y-5020000D01*
X15009244Y-5020000D01*
X15123694Y-4989333D01*
X15200000Y-4945277D01*
X15200000Y-5970000D01*
X15897828Y-5970000D01*
X15897844Y-5969999D01*
X15957372Y-5963598D01*
X15957379Y-5963596D01*
X16092086Y-5913354D01*
X16092093Y-5913350D01*
X16207187Y-5827190D01*
X16207190Y-5827187D01*
X16293350Y-5712093D01*
X16293354Y-5712086D01*
X16343596Y-5577379D01*
X16343598Y-5577372D01*
X16349999Y-5517844D01*
X16350000Y-5517827D01*
X16350000Y-4820000D01*
X15325278Y-4820000D01*
X15369333Y-4743694D01*
X15400000Y-4629244D01*
X15400000Y-4510756D01*
X15369333Y-4396306D01*
X15325278Y-4320000D01*
X16350000Y-4320000D01*
X16350000Y-3624000D01*
X16369685Y-3556961D01*
X16422489Y-3511206D01*
X16474000Y-3500000D01*
X17875500Y-3500000D01*
X17942539Y-3519685D01*
X17988294Y-3572489D01*
X17999500Y-3624000D01*
X17999500Y-7876000D01*
X17979815Y-7943039D01*
X17927011Y-7988794D01*
X17875500Y-8000000D01*
X15894000Y-8000000D01*
X15826961Y-7980315D01*
X15781206Y-7927511D01*
X15770000Y-7876000D01*
X15770000Y-7820879D01*
X15769999Y-7820864D01*
X15767167Y-7784876D01*
X15767166Y-7784870D01*
X15722407Y-7630811D01*
X15722406Y-7630808D01*
X15640738Y-7492714D01*
X15640731Y-7492705D01*
X15527294Y-7379268D01*
X15527285Y-7379261D01*
X15389191Y-7297593D01*
X15389188Y-7297592D01*
X15235130Y-7252834D01*
X15200000Y-7250068D01*
X15200000Y-8000000D01*
X14700000Y-8000000D01*
X14700000Y-7250068D01*
X14699999Y-7250068D01*
X14664869Y-7252834D01*
X14664868Y-7252834D01*
X14510811Y-7297592D01*
X14510808Y-7297593D01*
X14372714Y-7379261D01*
X14372705Y-7379268D01*
X14259268Y-7492705D01*
X14259261Y-7492714D01*
X14177593Y-7630808D01*
X14177592Y-7630811D01*
X14132833Y-7784870D01*
X14132832Y-7784876D01*
X14130000Y-7820864D01*
X14130000Y-7876000D01*
X14110315Y-7943039D01*
X14057511Y-7988794D01*
X14006000Y-8000000D01*
X12624000Y-8000000D01*
X12556961Y-7980315D01*
X12511206Y-7927511D01*
X12500000Y-7876000D01*
X12500000Y-7500000D01*
X9524500Y-7500000D01*
X9457461Y-7480315D01*
X9411706Y-7427511D01*
X9400500Y-7376000D01*
X9400499Y-6282129D01*
X9400498Y-6282123D01*
X9394091Y-6222518D01*
X9394091Y-6222517D01*
X9343796Y-6087669D01*
X9343794Y-6087666D01*
X9340696Y-6079360D01*
X9342426Y-6078714D01*
X9329902Y-6021163D01*
X9341691Y-5981011D01*
X9340696Y-5980640D01*
X9343794Y-5972333D01*
X9343796Y-5972331D01*
X9394091Y-5837483D01*
X9400500Y-5777873D01*
X9400499Y-4123999D01*
X9420184Y-4056961D01*
X9472987Y-4011206D01*
X9524499Y-4000000D01*
X9664743Y-4000000D01*
X9731782Y-4019685D01*
X9767843Y-4055107D01*
X9791359Y-4090301D01*
X9800537Y-4104037D01*
X9925961Y-4229461D01*
X9925965Y-4229464D01*
X10073446Y-4328009D01*
X10073459Y-4328016D01*
X10196363Y-4378923D01*
X10237334Y-4395894D01*
X10237336Y-4395894D01*
X10237341Y-4395896D01*
X10411304Y-4430499D01*
X10411307Y-4430500D01*
X10411309Y-4430500D01*
X10588693Y-4430500D01*
X10588694Y-4430499D01*
X10646682Y-4418964D01*
X10762658Y-4395896D01*
X10762661Y-4395894D01*
X10762666Y-4395894D01*
X10926547Y-4328013D01*
X11074035Y-4229464D01*
X11199464Y-4104035D01*
X11232155Y-4055108D01*
X11285766Y-4010305D01*
X11335257Y-4000000D01*
X12500000Y-4000000D01*
X12500000Y-3624000D01*
X12519685Y-3556961D01*
X12572489Y-3511206D01*
X12624000Y-3500000D01*
X13426000Y-3500000D01*
X13493039Y-3519685D01*
G37*
%TD.AperFunction*%
%TD*%
%TA.AperFunction,Conductor*%
%TO.N,GND*%
G36*
X9605203Y-8757160D02*
G01*
X9638561Y-8803421D01*
X9701983Y-8956541D01*
X9701990Y-8956553D01*
X9800535Y-9104034D01*
X9800538Y-9104038D01*
X9925961Y-9229461D01*
X9925965Y-9229464D01*
X10073446Y-9328009D01*
X10073459Y-9328016D01*
X10196363Y-9378923D01*
X10237334Y-9395894D01*
X10237336Y-9395894D01*
X10237341Y-9395896D01*
X10411304Y-9430499D01*
X10411307Y-9430500D01*
X10411309Y-9430500D01*
X10588693Y-9430500D01*
X10588694Y-9430499D01*
X10646682Y-9418964D01*
X10762658Y-9395896D01*
X10762661Y-9395894D01*
X10762666Y-9395894D01*
X10926547Y-9328013D01*
X10983437Y-9290000D01*
X14137156Y-9290000D01*
X14177595Y-9429194D01*
X14259261Y-9567285D01*
X14259268Y-9567294D01*
X14372705Y-9680731D01*
X14372714Y-9680738D01*
X14510808Y-9762406D01*
X14510811Y-9762407D01*
X14664871Y-9807166D01*
X14664877Y-9807167D01*
X14700000Y-9809931D01*
X14700000Y-9809930D01*
X15200000Y-9809930D01*
X15235122Y-9807167D01*
X15235128Y-9807166D01*
X15389188Y-9762407D01*
X15389191Y-9762406D01*
X15527285Y-9680738D01*
X15527294Y-9680731D01*
X15640731Y-9567294D01*
X15640738Y-9567285D01*
X15722404Y-9429194D01*
X15762844Y-9290000D01*
X15200000Y-9290000D01*
X15200000Y-9809930D01*
X14700000Y-9809930D01*
X14700000Y-9290000D01*
X14137156Y-9290000D01*
X10983437Y-9290000D01*
X11074035Y-9229464D01*
X11199464Y-9104035D01*
X11277570Y-8987140D01*
X11331181Y-8942337D01*
X11400505Y-8933630D01*
X11463533Y-8963784D01*
X11468352Y-8968352D01*
X11500000Y-9000000D01*
X17875500Y-9000000D01*
X17942539Y-9019685D01*
X17988294Y-9072489D01*
X17999500Y-9124000D01*
X17999500Y-11425500D01*
X17979815Y-11492539D01*
X17927011Y-11538294D01*
X17875500Y-11549500D01*
X9600862Y-11549500D01*
X9533823Y-11529815D01*
X9513181Y-11513181D01*
X9286073Y-11286073D01*
X9252588Y-11224750D01*
X9257572Y-11155058D01*
X9274488Y-11124081D01*
X9343350Y-11032093D01*
X9343354Y-11032086D01*
X9393596Y-10897379D01*
X9393598Y-10897372D01*
X9399999Y-10837844D01*
X9400000Y-10837827D01*
X9400000Y-10090000D01*
X9000000Y-10090000D01*
X9000000Y-9590000D01*
X9400000Y-9590000D01*
X9400000Y-8850873D01*
X9419685Y-8783834D01*
X9472489Y-8738079D01*
X9541647Y-8728135D01*
X9605203Y-8757160D01*
G37*
%TD.AperFunction*%
%TD*%
M02*
