<?xml version="1.0" standalone="no"?>
 <!DOCTYPE svg PUBLIC "-//W3C//DTD SVG 1.1//EN" 
 "http://www.w3.org/Graphics/SVG/1.1/DTD/svg11.dtd"> 
<svg
  xmlns:svg="http://www.w3.org/2000/svg"
  xmlns="http://www.w3.org/2000/svg"
  xmlns:xlink="http://www.w3.org/1999/xlink"
  version="1.1"
  width="297.0022mm" height="210.0072mm" viewBox="0.0000 0.0000 297.0022 210.0072">
<title>SVG Image created as SAL-FP_Keyboard-PTH-drl_map.svg date 2023/10/13 04:00:30 </title>
  <desc>Image generated by PCBNEW </desc>
<g style="fill:#000000; fill-opacity:1.0000;stroke:#000000; stroke-opacity:1.0000;
stroke-linecap:round; stroke-linejoin:round;"
 transform="translate(0 0) scale(1 1)">
</g>
<g style="fill:#000000; fill-opacity:0.0; 
stroke:#000000; stroke-width:0.0000; stroke-opacity:1; 
stroke-linecap:round; stroke-linejoin:round;">
</g>
<g style="fill:#000000; fill-opacity:0.0; 
stroke:#000000; stroke-width:0.2562; stroke-opacity:1; 
stroke-linecap:round; stroke-linejoin:round;">
<circle cx="50.8713" cy="61.3750" r="5.1249" /> 
<circle cx="99.6862" cy="61.3750" r="5.1249" /> 
<circle cx="148.5011" cy="61.3750" r="5.1249" /> 
<circle cx="197.3160" cy="61.3750" r="5.1249" /> 
<circle cx="246.1309" cy="61.3750" r="5.1249" /> 
<path style="fill:#000000; fill-opacity:0.0; 
stroke:#000000; stroke-width:0.2562; stroke-opacity:1; 
stroke-linecap:round; stroke-linejoin:round;fill:none"
d="M 10.1281,22.9381
286.8741,22.9381
286.8741,103.0663
10.1281,103.0663
Z" /> 
</g>
<g style="fill:#000000; fill-opacity:0.0; 
stroke:#000000; stroke-width:0.5125; stroke-opacity:1; 
stroke-linecap:round; stroke-linejoin:round;">
</g>
<g style="fill:#000000; fill-opacity:0.0; 
stroke:#000000; stroke-width:0.2562; stroke-opacity:1; 
stroke-linecap:round; stroke-linejoin:round;">
<path d="M46.3357 47.0765
L48.8982 49.6389
" />
<path d="M48.8982 47.0765
L46.3357 49.6389
" />
<path d="M52.8444 47.0765
L55.4068 49.6389
" />
<path d="M55.4068 47.0765
L52.8444 49.6389
" />
<path d="M95.1506 47.0765
L97.7131 49.6389
" />
<path d="M97.7131 47.0765
L95.1506 49.6389
" />
<path d="M101.6593 47.0765
L104.2217 49.6389
" />
<path d="M104.2217 47.0765
L101.6593 49.6389
" />
<path d="M143.9655 47.0765
L146.5280 49.6389
" />
<path d="M146.5280 47.0765
L143.9655 49.6389
" />
<path d="M150.4742 47.0765
L153.0367 49.6389
" />
<path d="M153.0367 47.0765
L150.4742 49.6389
" />
<path d="M192.7805 47.0765
L195.3429 49.6389
" />
<path d="M195.3429 47.0765
L192.7805 49.6389
" />
<path d="M199.2891 47.0765
L201.8516 49.6389
" />
<path d="M201.8516 47.0765
L199.2891 49.6389
" />
<path d="M241.5954 47.0765
L244.1578 49.6389
" />
<path d="M244.1578 47.0765
L241.5954 49.6389
" />
<path d="M248.1040 47.0765
L250.6665 49.6389
" />
<path d="M250.6665 47.0765
L248.1040 49.6389
" />
</g>
<g style="fill:#000000; fill-opacity:0.0; 
stroke:#000000; stroke-width:0.3844; stroke-opacity:1; 
stroke-linecap:round; stroke-linejoin:round;">
<circle cx="44.3626" cy="74.3923" r="1.9218" /> 
<circle cx="60.6343" cy="67.8837" r="1.9218" /> 
<circle cx="93.1775" cy="74.3923" r="1.9218" /> 
<circle cx="109.4492" cy="67.8837" r="1.9218" /> 
<circle cx="141.9924" cy="74.3923" r="1.9218" /> 
<circle cx="158.2641" cy="67.8837" r="1.9218" /> 
<circle cx="190.8074" cy="74.3923" r="1.9218" /> 
<circle cx="207.0790" cy="67.8837" r="1.9218" /> 
<circle cx="239.6223" cy="74.3923" r="1.9218" /> 
<circle cx="255.8939" cy="67.8837" r="1.9218" /> 
</g>
<g style="fill:#000000; fill-opacity:0.0; 
stroke:#000000; stroke-width:0.5125; stroke-opacity:1; 
stroke-linecap:round; stroke-linejoin:round;">
</g>
<g style="fill:#000000; fill-opacity:0.0; 
stroke:#000000; stroke-width:0.2000; stroke-opacity:1; 
stroke-linecap:round; stroke-linejoin:round;">
<text x="12.0000" y="106.3944"
textLength="14.8667" font-size="2.6667" lengthAdjust="spacingAndGlyphs"
text-anchor="start" opacity="0">Drill Map:</text>
<g class="stroked-text"><desc>Drill Map:</desc>
<path d="M12.6078 106.3092
L12.6078 104.3092
" />
<path d="M12.6078 104.3092
L13.0840 104.3092
" />
<path d="M13.0840 104.3092
L13.3697 104.4045
" />
<path d="M13.3697 104.4045
L13.5601 104.5949
" />
<path d="M13.5601 104.5949
L13.6554 104.7854
" />
<path d="M13.6554 104.7854
L13.7506 105.1664
" />
<path d="M13.7506 105.1664
L13.7506 105.4521
" />
<path d="M13.7506 105.4521
L13.6554 105.8330
" />
<path d="M13.6554 105.8330
L13.5601 106.0235
" />
<path d="M13.5601 106.0235
L13.3697 106.2140
" />
<path d="M13.3697 106.2140
L13.0840 106.3092
" />
<path d="M13.0840 106.3092
L12.6078 106.3092
" />
<path d="M14.6078 106.3092
L14.6078 104.9759
" />
<path d="M14.6078 105.3568
L14.7030 105.1664
" />
<path d="M14.7030 105.1664
L14.7982 105.0711
" />
<path d="M14.7982 105.0711
L14.9887 104.9759
" />
<path d="M14.9887 104.9759
L15.1792 104.9759
" />
<path d="M15.8459 106.3092
L15.8459 104.9759
" />
<path d="M15.8459 104.3092
L15.7506 104.4045
" />
<path d="M15.7506 104.4045
L15.8459 104.4997
" />
<path d="M15.8459 104.4997
L15.9411 104.4045
" />
<path d="M15.9411 104.4045
L15.8459 104.3092
" />
<path d="M15.8459 104.3092
L15.8459 104.4997
" />
<path d="M17.0840 106.3092
L16.8935 106.2140
" />
<path d="M16.8935 106.2140
L16.7982 106.0235
" />
<path d="M16.7982 106.0235
L16.7982 104.3092
" />
<path d="M18.1316 106.3092
L17.9411 106.2140
" />
<path d="M17.9411 106.2140
L17.8459 106.0235
" />
<path d="M17.8459 106.0235
L17.8459 104.3092
" />
<path d="M20.4173 106.3092
L20.4173 104.3092
" />
<path d="M20.4173 104.3092
L21.0840 105.7378
" />
<path d="M21.0840 105.7378
L21.7506 104.3092
" />
<path d="M21.7506 104.3092
L21.7506 106.3092
" />
<path d="M23.5601 106.3092
L23.5601 105.2616
" />
<path d="M23.5601 105.2616
L23.4649 105.0711
" />
<path d="M23.4649 105.0711
L23.2744 104.9759
" />
<path d="M23.2744 104.9759
L22.8935 104.9759
" />
<path d="M22.8935 104.9759
L22.7030 105.0711
" />
<path d="M23.5601 106.2140
L23.3697 106.3092
" />
<path d="M23.3697 106.3092
L22.8935 106.3092
" />
<path d="M22.8935 106.3092
L22.7030 106.2140
" />
<path d="M22.7030 106.2140
L22.6078 106.0235
" />
<path d="M22.6078 106.0235
L22.6078 105.8330
" />
<path d="M22.6078 105.8330
L22.7030 105.6426
" />
<path d="M22.7030 105.6426
L22.8935 105.5473
" />
<path d="M22.8935 105.5473
L23.3697 105.5473
" />
<path d="M23.3697 105.5473
L23.5601 105.4521
" />
<path d="M24.5125 104.9759
L24.5125 106.9759
" />
<path d="M24.5125 105.0711
L24.7030 104.9759
" />
<path d="M24.7030 104.9759
L25.0840 104.9759
" />
<path d="M25.0840 104.9759
L25.2744 105.0711
" />
<path d="M25.2744 105.0711
L25.3697 105.1664
" />
<path d="M25.3697 105.1664
L25.4649 105.3568
" />
<path d="M25.4649 105.3568
L25.4649 105.9283
" />
<path d="M25.4649 105.9283
L25.3697 106.1187
" />
<path d="M25.3697 106.1187
L25.2744 106.2140
" />
<path d="M25.2744 106.2140
L25.0840 106.3092
" />
<path d="M25.0840 106.3092
L24.7030 106.3092
" />
<path d="M24.7030 106.3092
L24.5125 106.2140
" />
<path d="M26.3221 106.1187
L26.4173 106.2140
" />
<path d="M26.4173 106.2140
L26.3221 106.3092
" />
<path d="M26.3221 106.3092
L26.2268 106.2140
" />
<path d="M26.2268 106.2140
L26.3221 106.1187
" />
<path d="M26.3221 106.1187
L26.3221 106.3092
" />
<path d="M26.3221 105.0711
L26.4173 105.1664
" />
<path d="M26.4173 105.1664
L26.3221 105.2616
" />
<path d="M26.3221 105.2616
L26.2268 105.1664
" />
<path d="M26.2268 105.1664
L26.3221 105.0711
" />
<path d="M26.3221 105.0711
L26.3221 105.2616
" />
</g></g>
<g style="fill:#000000; fill-opacity:0.0; 
stroke:#000000; stroke-width:0.2000; stroke-opacity:1; 
stroke-linecap:round; stroke-linejoin:round;">
<path d="M8.0000 108.5944
L10.0000 110.5944
" />
<path d="M10.0000 108.5944
L8.0000 110.5944
" />
</g>
<g style="fill:#000000; fill-opacity:0.0; 
stroke:#000000; stroke-width:0.5125; stroke-opacity:1; 
stroke-linecap:round; stroke-linejoin:round;">
</g>
<g style="fill:#000000; fill-opacity:0.0; 
stroke:#000000; stroke-width:0.2000; stroke-opacity:1; 
stroke-linecap:round; stroke-linejoin:round;">
<text x="12.0000" y="110.5944"
textLength="48.7714" font-size="2.6667" lengthAdjust="spacingAndGlyphs"
text-anchor="start" opacity="0">1.000mm / 0.0394" (10 holes)</text>
<g class="stroked-text"><desc>1.000mm / 0.0394" (10 holes)</desc>
<path d="M13.6554 110.5092
L12.5125 110.5092
" />
<path d="M13.0840 110.5092
L13.0840 108.5092
" />
<path d="M13.0840 108.5092
L12.8935 108.7949
" />
<path d="M12.8935 108.7949
L12.7030 108.9854
" />
<path d="M12.7030 108.9854
L12.5125 109.0807
" />
<path d="M14.5125 110.3187
L14.6078 110.4140
" />
<path d="M14.6078 110.4140
L14.5125 110.5092
" />
<path d="M14.5125 110.5092
L14.4173 110.4140
" />
<path d="M14.4173 110.4140
L14.5125 110.3187
" />
<path d="M14.5125 110.3187
L14.5125 110.5092
" />
<path d="M15.8459 108.5092
L16.0363 108.5092
" />
<path d="M16.0363 108.5092
L16.2268 108.6045
" />
<path d="M16.2268 108.6045
L16.3220 108.6997
" />
<path d="M16.3220 108.6997
L16.4173 108.8902
" />
<path d="M16.4173 108.8902
L16.5125 109.2711
" />
<path d="M16.5125 109.2711
L16.5125 109.7473
" />
<path d="M16.5125 109.7473
L16.4173 110.1283
" />
<path d="M16.4173 110.1283
L16.3220 110.3187
" />
<path d="M16.3220 110.3187
L16.2268 110.4140
" />
<path d="M16.2268 110.4140
L16.0363 110.5092
" />
<path d="M16.0363 110.5092
L15.8459 110.5092
" />
<path d="M15.8459 110.5092
L15.6554 110.4140
" />
<path d="M15.6554 110.4140
L15.5601 110.3187
" />
<path d="M15.5601 110.3187
L15.4649 110.1283
" />
<path d="M15.4649 110.1283
L15.3697 109.7473
" />
<path d="M15.3697 109.7473
L15.3697 109.2711
" />
<path d="M15.3697 109.2711
L15.4649 108.8902
" />
<path d="M15.4649 108.8902
L15.5601 108.6997
" />
<path d="M15.5601 108.6997
L15.6554 108.6045
" />
<path d="M15.6554 108.6045
L15.8459 108.5092
" />
<path d="M17.7506 108.5092
L17.9411 108.5092
" />
<path d="M17.9411 108.5092
L18.1316 108.6045
" />
<path d="M18.1316 108.6045
L18.2268 108.6997
" />
<path d="M18.2268 108.6997
L18.3220 108.8902
" />
<path d="M18.3220 108.8902
L18.4173 109.2711
" />
<path d="M18.4173 109.2711
L18.4173 109.7473
" />
<path d="M18.4173 109.7473
L18.3220 110.1283
" />
<path d="M18.3220 110.1283
L18.2268 110.3187
" />
<path d="M18.2268 110.3187
L18.1316 110.4140
" />
<path d="M18.1316 110.4140
L17.9411 110.5092
" />
<path d="M17.9411 110.5092
L17.7506 110.5092
" />
<path d="M17.7506 110.5092
L17.5601 110.4140
" />
<path d="M17.5601 110.4140
L17.4649 110.3187
" />
<path d="M17.4649 110.3187
L17.3697 110.1283
" />
<path d="M17.3697 110.1283
L17.2744 109.7473
" />
<path d="M17.2744 109.7473
L17.2744 109.2711
" />
<path d="M17.2744 109.2711
L17.3697 108.8902
" />
<path d="M17.3697 108.8902
L17.4649 108.6997
" />
<path d="M17.4649 108.6997
L17.5601 108.6045
" />
<path d="M17.5601 108.6045
L17.7506 108.5092
" />
<path d="M19.6554 108.5092
L19.8459 108.5092
" />
<path d="M19.8459 108.5092
L20.0363 108.6045
" />
<path d="M20.0363 108.6045
L20.1316 108.6997
" />
<path d="M20.1316 108.6997
L20.2268 108.8902
" />
<path d="M20.2268 108.8902
L20.3220 109.2711
" />
<path d="M20.3220 109.2711
L20.3220 109.7473
" />
<path d="M20.3220 109.7473
L20.2268 110.1283
" />
<path d="M20.2268 110.1283
L20.1316 110.3187
" />
<path d="M20.1316 110.3187
L20.0363 110.4140
" />
<path d="M20.0363 110.4140
L19.8459 110.5092
" />
<path d="M19.8459 110.5092
L19.6554 110.5092
" />
<path d="M19.6554 110.5092
L19.4649 110.4140
" />
<path d="M19.4649 110.4140
L19.3697 110.3187
" />
<path d="M19.3697 110.3187
L19.2744 110.1283
" />
<path d="M19.2744 110.1283
L19.1792 109.7473
" />
<path d="M19.1792 109.7473
L19.1792 109.2711
" />
<path d="M19.1792 109.2711
L19.2744 108.8902
" />
<path d="M19.2744 108.8902
L19.3697 108.6997
" />
<path d="M19.3697 108.6997
L19.4649 108.6045
" />
<path d="M19.4649 108.6045
L19.6554 108.5092
" />
<path d="M21.1792 110.5092
L21.1792 109.1759
" />
<path d="M21.1792 109.3664
L21.2744 109.2711
" />
<path d="M21.2744 109.2711
L21.4649 109.1759
" />
<path d="M21.4649 109.1759
L21.7506 109.1759
" />
<path d="M21.7506 109.1759
L21.9411 109.2711
" />
<path d="M21.9411 109.2711
L22.0363 109.4616
" />
<path d="M22.0363 109.4616
L22.0363 110.5092
" />
<path d="M22.0363 109.4616
L22.1316 109.2711
" />
<path d="M22.1316 109.2711
L22.3220 109.1759
" />
<path d="M22.3220 109.1759
L22.6078 109.1759
" />
<path d="M22.6078 109.1759
L22.7982 109.2711
" />
<path d="M22.7982 109.2711
L22.8935 109.4616
" />
<path d="M22.8935 109.4616
L22.8935 110.5092
" />
<path d="M23.8459 110.5092
L23.8459 109.1759
" />
<path d="M23.8459 109.3664
L23.9411 109.2711
" />
<path d="M23.9411 109.2711
L24.1316 109.1759
" />
<path d="M24.1316 109.1759
L24.4173 109.1759
" />
<path d="M24.4173 109.1759
L24.6078 109.2711
" />
<path d="M24.6078 109.2711
L24.7030 109.4616
" />
<path d="M24.7030 109.4616
L24.7030 110.5092
" />
<path d="M24.7030 109.4616
L24.7982 109.2711
" />
<path d="M24.7982 109.2711
L24.9887 109.1759
" />
<path d="M24.9887 109.1759
L25.2744 109.1759
" />
<path d="M25.2744 109.1759
L25.4649 109.2711
" />
<path d="M25.4649 109.2711
L25.5601 109.4616
" />
<path d="M25.5601 109.4616
L25.5601 110.5092
" />
<path d="M29.4649 108.4140
L27.7506 110.9854
" />
<path d="M32.0363 108.5092
L32.2268 108.5092
" />
<path d="M32.2268 108.5092
L32.4173 108.6045
" />
<path d="M32.4173 108.6045
L32.5125 108.6997
" />
<path d="M32.5125 108.6997
L32.6078 108.8902
" />
<path d="M32.6078 108.8902
L32.7030 109.2711
" />
<path d="M32.7030 109.2711
L32.7030 109.7473
" />
<path d="M32.7030 109.7473
L32.6078 110.1283
" />
<path d="M32.6078 110.1283
L32.5125 110.3187
" />
<path d="M32.5125 110.3187
L32.4173 110.4140
" />
<path d="M32.4173 110.4140
L32.2268 110.5092
" />
<path d="M32.2268 110.5092
L32.0363 110.5092
" />
<path d="M32.0363 110.5092
L31.8459 110.4140
" />
<path d="M31.8459 110.4140
L31.7506 110.3187
" />
<path d="M31.7506 110.3187
L31.6554 110.1283
" />
<path d="M31.6554 110.1283
L31.5601 109.7473
" />
<path d="M31.5601 109.7473
L31.5601 109.2711
" />
<path d="M31.5601 109.2711
L31.6554 108.8902
" />
<path d="M31.6554 108.8902
L31.7506 108.6997
" />
<path d="M31.7506 108.6997
L31.8459 108.6045
" />
<path d="M31.8459 108.6045
L32.0363 108.5092
" />
<path d="M33.5601 110.3187
L33.6554 110.4140
" />
<path d="M33.6554 110.4140
L33.5601 110.5092
" />
<path d="M33.5601 110.5092
L33.4649 110.4140
" />
<path d="M33.4649 110.4140
L33.5601 110.3187
" />
<path d="M33.5601 110.3187
L33.5601 110.5092
" />
<path d="M34.8935 108.5092
L35.0839 108.5092
" />
<path d="M35.0839 108.5092
L35.2744 108.6045
" />
<path d="M35.2744 108.6045
L35.3697 108.6997
" />
<path d="M35.3697 108.6997
L35.4649 108.8902
" />
<path d="M35.4649 108.8902
L35.5601 109.2711
" />
<path d="M35.5601 109.2711
L35.5601 109.7473
" />
<path d="M35.5601 109.7473
L35.4649 110.1283
" />
<path d="M35.4649 110.1283
L35.3697 110.3187
" />
<path d="M35.3697 110.3187
L35.2744 110.4140
" />
<path d="M35.2744 110.4140
L35.0839 110.5092
" />
<path d="M35.0839 110.5092
L34.8935 110.5092
" />
<path d="M34.8935 110.5092
L34.7030 110.4140
" />
<path d="M34.7030 110.4140
L34.6078 110.3187
" />
<path d="M34.6078 110.3187
L34.5125 110.1283
" />
<path d="M34.5125 110.1283
L34.4173 109.7473
" />
<path d="M34.4173 109.7473
L34.4173 109.2711
" />
<path d="M34.4173 109.2711
L34.5125 108.8902
" />
<path d="M34.5125 108.8902
L34.6078 108.6997
" />
<path d="M34.6078 108.6997
L34.7030 108.6045
" />
<path d="M34.7030 108.6045
L34.8935 108.5092
" />
<path d="M36.2268 108.5092
L37.4649 108.5092
" />
<path d="M37.4649 108.5092
L36.7982 109.2711
" />
<path d="M36.7982 109.2711
L37.0839 109.2711
" />
<path d="M37.0839 109.2711
L37.2744 109.3664
" />
<path d="M37.2744 109.3664
L37.3697 109.4616
" />
<path d="M37.3697 109.4616
L37.4649 109.6521
" />
<path d="M37.4649 109.6521
L37.4649 110.1283
" />
<path d="M37.4649 110.1283
L37.3697 110.3187
" />
<path d="M37.3697 110.3187
L37.2744 110.4140
" />
<path d="M37.2744 110.4140
L37.0839 110.5092
" />
<path d="M37.0839 110.5092
L36.5125 110.5092
" />
<path d="M36.5125 110.5092
L36.3220 110.4140
" />
<path d="M36.3220 110.4140
L36.2268 110.3187
" />
<path d="M38.4173 110.5092
L38.7982 110.5092
" />
<path d="M38.7982 110.5092
L38.9887 110.4140
" />
<path d="M38.9887 110.4140
L39.0839 110.3187
" />
<path d="M39.0839 110.3187
L39.2744 110.0330
" />
<path d="M39.2744 110.0330
L39.3697 109.6521
" />
<path d="M39.3697 109.6521
L39.3697 108.8902
" />
<path d="M39.3697 108.8902
L39.2744 108.6997
" />
<path d="M39.2744 108.6997
L39.1792 108.6045
" />
<path d="M39.1792 108.6045
L38.9887 108.5092
" />
<path d="M38.9887 108.5092
L38.6077 108.5092
" />
<path d="M38.6077 108.5092
L38.4173 108.6045
" />
<path d="M38.4173 108.6045
L38.3220 108.6997
" />
<path d="M38.3220 108.6997
L38.2268 108.8902
" />
<path d="M38.2268 108.8902
L38.2268 109.3664
" />
<path d="M38.2268 109.3664
L38.3220 109.5568
" />
<path d="M38.3220 109.5568
L38.4173 109.6521
" />
<path d="M38.4173 109.6521
L38.6077 109.7473
" />
<path d="M38.6077 109.7473
L38.9887 109.7473
" />
<path d="M38.9887 109.7473
L39.1792 109.6521
" />
<path d="M39.1792 109.6521
L39.2744 109.5568
" />
<path d="M39.2744 109.5568
L39.3697 109.3664
" />
<path d="M41.0839 109.1759
L41.0839 110.5092
" />
<path d="M40.6077 108.4140
L40.1316 109.8426
" />
<path d="M40.1316 109.8426
L41.3697 109.8426
" />
<path d="M42.0363 108.5092
L42.0363 108.8902
" />
<path d="M42.7982 108.5092
L42.7982 108.8902
" />
<path d="M45.7506 111.2711
L45.6554 111.1759
" />
<path d="M45.6554 111.1759
L45.4649 110.8902
" />
<path d="M45.4649 110.8902
L45.3697 110.6997
" />
<path d="M45.3697 110.6997
L45.2744 110.4140
" />
<path d="M45.2744 110.4140
L45.1792 109.9378
" />
<path d="M45.1792 109.9378
L45.1792 109.5568
" />
<path d="M45.1792 109.5568
L45.2744 109.0807
" />
<path d="M45.2744 109.0807
L45.3697 108.7949
" />
<path d="M45.3697 108.7949
L45.4649 108.6045
" />
<path d="M45.4649 108.6045
L45.6554 108.3187
" />
<path d="M45.6554 108.3187
L45.7506 108.2235
" />
<path d="M47.5601 110.5092
L46.4173 110.5092
" />
<path d="M46.9887 110.5092
L46.9887 108.5092
" />
<path d="M46.9887 108.5092
L46.7982 108.7949
" />
<path d="M46.7982 108.7949
L46.6077 108.9854
" />
<path d="M46.6077 108.9854
L46.4173 109.0807
" />
<path d="M48.7982 108.5092
L48.9887 108.5092
" />
<path d="M48.9887 108.5092
L49.1792 108.6045
" />
<path d="M49.1792 108.6045
L49.2744 108.6997
" />
<path d="M49.2744 108.6997
L49.3697 108.8902
" />
<path d="M49.3697 108.8902
L49.4649 109.2711
" />
<path d="M49.4649 109.2711
L49.4649 109.7473
" />
<path d="M49.4649 109.7473
L49.3697 110.1283
" />
<path d="M49.3697 110.1283
L49.2744 110.3187
" />
<path d="M49.2744 110.3187
L49.1792 110.4140
" />
<path d="M49.1792 110.4140
L48.9887 110.5092
" />
<path d="M48.9887 110.5092
L48.7982 110.5092
" />
<path d="M48.7982 110.5092
L48.6077 110.4140
" />
<path d="M48.6077 110.4140
L48.5125 110.3187
" />
<path d="M48.5125 110.3187
L48.4173 110.1283
" />
<path d="M48.4173 110.1283
L48.3220 109.7473
" />
<path d="M48.3220 109.7473
L48.3220 109.2711
" />
<path d="M48.3220 109.2711
L48.4173 108.8902
" />
<path d="M48.4173 108.8902
L48.5125 108.6997
" />
<path d="M48.5125 108.6997
L48.6077 108.6045
" />
<path d="M48.6077 108.6045
L48.7982 108.5092
" />
<path d="M51.8458 110.5092
L51.8458 108.5092
" />
<path d="M52.7030 110.5092
L52.7030 109.4616
" />
<path d="M52.7030 109.4616
L52.6077 109.2711
" />
<path d="M52.6077 109.2711
L52.4173 109.1759
" />
<path d="M52.4173 109.1759
L52.1316 109.1759
" />
<path d="M52.1316 109.1759
L51.9411 109.2711
" />
<path d="M51.9411 109.2711
L51.8458 109.3664
" />
<path d="M53.9411 110.5092
L53.7506 110.4140
" />
<path d="M53.7506 110.4140
L53.6554 110.3187
" />
<path d="M53.6554 110.3187
L53.5601 110.1283
" />
<path d="M53.5601 110.1283
L53.5601 109.5568
" />
<path d="M53.5601 109.5568
L53.6554 109.3664
" />
<path d="M53.6554 109.3664
L53.7506 109.2711
" />
<path d="M53.7506 109.2711
L53.9411 109.1759
" />
<path d="M53.9411 109.1759
L54.2268 109.1759
" />
<path d="M54.2268 109.1759
L54.4173 109.2711
" />
<path d="M54.4173 109.2711
L54.5125 109.3664
" />
<path d="M54.5125 109.3664
L54.6077 109.5568
" />
<path d="M54.6077 109.5568
L54.6077 110.1283
" />
<path d="M54.6077 110.1283
L54.5125 110.3187
" />
<path d="M54.5125 110.3187
L54.4173 110.4140
" />
<path d="M54.4173 110.4140
L54.2268 110.5092
" />
<path d="M54.2268 110.5092
L53.9411 110.5092
" />
<path d="M55.7506 110.5092
L55.5601 110.4140
" />
<path d="M55.5601 110.4140
L55.4649 110.2235
" />
<path d="M55.4649 110.2235
L55.4649 108.5092
" />
<path d="M57.2744 110.4140
L57.0839 110.5092
" />
<path d="M57.0839 110.5092
L56.7030 110.5092
" />
<path d="M56.7030 110.5092
L56.5125 110.4140
" />
<path d="M56.5125 110.4140
L56.4173 110.2235
" />
<path d="M56.4173 110.2235
L56.4173 109.4616
" />
<path d="M56.4173 109.4616
L56.5125 109.2711
" />
<path d="M56.5125 109.2711
L56.7030 109.1759
" />
<path d="M56.7030 109.1759
L57.0839 109.1759
" />
<path d="M57.0839 109.1759
L57.2744 109.2711
" />
<path d="M57.2744 109.2711
L57.3696 109.4616
" />
<path d="M57.3696 109.4616
L57.3696 109.6521
" />
<path d="M57.3696 109.6521
L56.4173 109.8426
" />
<path d="M58.1316 110.4140
L58.3220 110.5092
" />
<path d="M58.3220 110.5092
L58.7030 110.5092
" />
<path d="M58.7030 110.5092
L58.8935 110.4140
" />
<path d="M58.8935 110.4140
L58.9887 110.2235
" />
<path d="M58.9887 110.2235
L58.9887 110.1283
" />
<path d="M58.9887 110.1283
L58.8935 109.9378
" />
<path d="M58.8935 109.9378
L58.7030 109.8426
" />
<path d="M58.7030 109.8426
L58.4173 109.8426
" />
<path d="M58.4173 109.8426
L58.2268 109.7473
" />
<path d="M58.2268 109.7473
L58.1316 109.5568
" />
<path d="M58.1316 109.5568
L58.1316 109.4616
" />
<path d="M58.1316 109.4616
L58.2268 109.2711
" />
<path d="M58.2268 109.2711
L58.4173 109.1759
" />
<path d="M58.4173 109.1759
L58.7030 109.1759
" />
<path d="M58.7030 109.1759
L58.8935 109.2711
" />
<path d="M59.6554 111.2711
L59.7506 111.1759
" />
<path d="M59.7506 111.1759
L59.9411 110.8902
" />
<path d="M59.9411 110.8902
L60.0363 110.6997
" />
<path d="M60.0363 110.6997
L60.1316 110.4140
" />
<path d="M60.1316 110.4140
L60.2268 109.9378
" />
<path d="M60.2268 109.9378
L60.2268 109.5568
" />
<path d="M60.2268 109.5568
L60.1316 109.0807
" />
<path d="M60.1316 109.0807
L60.0363 108.7949
" />
<path d="M60.0363 108.7949
L59.9411 108.6045
" />
<path d="M59.9411 108.6045
L59.7506 108.3187
" />
<path d="M59.7506 108.3187
L59.6554 108.2235
" />
</g></g>
<g style="fill:#000000; fill-opacity:0.0; 
stroke:#000000; stroke-width:0.2000; stroke-opacity:1; 
stroke-linecap:round; stroke-linejoin:round;">
<circle cx="9.0000" cy="112.7944" r="1.0000" /> 
</g>
<g style="fill:#000000; fill-opacity:0.0; 
stroke:#000000; stroke-width:0.5125; stroke-opacity:1; 
stroke-linecap:round; stroke-linejoin:round;">
</g>
<g style="fill:#000000; fill-opacity:0.0; 
stroke:#000000; stroke-width:0.2000; stroke-opacity:1; 
stroke-linecap:round; stroke-linejoin:round;">
<text x="12.0000" y="113.7944"
textLength="48.7714" font-size="2.6667" lengthAdjust="spacingAndGlyphs"
text-anchor="start" opacity="0">1.500mm / 0.0591" (10 holes)</text>
<g class="stroked-text"><desc>1.500mm / 0.0591" (10 holes)</desc>
<path d="M13.6554 113.7092
L12.5125 113.7092
" />
<path d="M13.0840 113.7092
L13.0840 111.7092
" />
<path d="M13.0840 111.7092
L12.8935 111.9949
" />
<path d="M12.8935 111.9949
L12.7030 112.1854
" />
<path d="M12.7030 112.1854
L12.5125 112.2806
" />
<path d="M14.5125 113.5187
L14.6078 113.6140
" />
<path d="M14.6078 113.6140
L14.5125 113.7092
" />
<path d="M14.5125 113.7092
L14.4173 113.6140
" />
<path d="M14.4173 113.6140
L14.5125 113.5187
" />
<path d="M14.5125 113.5187
L14.5125 113.7092
" />
<path d="M16.4173 111.7092
L15.4649 111.7092
" />
<path d="M15.4649 111.7092
L15.3697 112.6616
" />
<path d="M15.3697 112.6616
L15.4649 112.5664
" />
<path d="M15.4649 112.5664
L15.6554 112.4711
" />
<path d="M15.6554 112.4711
L16.1316 112.4711
" />
<path d="M16.1316 112.4711
L16.3220 112.5664
" />
<path d="M16.3220 112.5664
L16.4173 112.6616
" />
<path d="M16.4173 112.6616
L16.5125 112.8521
" />
<path d="M16.5125 112.8521
L16.5125 113.3283
" />
<path d="M16.5125 113.3283
L16.4173 113.5187
" />
<path d="M16.4173 113.5187
L16.3220 113.6140
" />
<path d="M16.3220 113.6140
L16.1316 113.7092
" />
<path d="M16.1316 113.7092
L15.6554 113.7092
" />
<path d="M15.6554 113.7092
L15.4649 113.6140
" />
<path d="M15.4649 113.6140
L15.3697 113.5187
" />
<path d="M17.7506 111.7092
L17.9411 111.7092
" />
<path d="M17.9411 111.7092
L18.1316 111.8045
" />
<path d="M18.1316 111.8045
L18.2268 111.8997
" />
<path d="M18.2268 111.8997
L18.3220 112.0902
" />
<path d="M18.3220 112.0902
L18.4173 112.4711
" />
<path d="M18.4173 112.4711
L18.4173 112.9473
" />
<path d="M18.4173 112.9473
L18.3220 113.3283
" />
<path d="M18.3220 113.3283
L18.2268 113.5187
" />
<path d="M18.2268 113.5187
L18.1316 113.6140
" />
<path d="M18.1316 113.6140
L17.9411 113.7092
" />
<path d="M17.9411 113.7092
L17.7506 113.7092
" />
<path d="M17.7506 113.7092
L17.5601 113.6140
" />
<path d="M17.5601 113.6140
L17.4649 113.5187
" />
<path d="M17.4649 113.5187
L17.3697 113.3283
" />
<path d="M17.3697 113.3283
L17.2744 112.9473
" />
<path d="M17.2744 112.9473
L17.2744 112.4711
" />
<path d="M17.2744 112.4711
L17.3697 112.0902
" />
<path d="M17.3697 112.0902
L17.4649 111.8997
" />
<path d="M17.4649 111.8997
L17.5601 111.8045
" />
<path d="M17.5601 111.8045
L17.7506 111.7092
" />
<path d="M19.6554 111.7092
L19.8459 111.7092
" />
<path d="M19.8459 111.7092
L20.0363 111.8045
" />
<path d="M20.0363 111.8045
L20.1316 111.8997
" />
<path d="M20.1316 111.8997
L20.2268 112.0902
" />
<path d="M20.2268 112.0902
L20.3220 112.4711
" />
<path d="M20.3220 112.4711
L20.3220 112.9473
" />
<path d="M20.3220 112.9473
L20.2268 113.3283
" />
<path d="M20.2268 113.3283
L20.1316 113.5187
" />
<path d="M20.1316 113.5187
L20.0363 113.6140
" />
<path d="M20.0363 113.6140
L19.8459 113.7092
" />
<path d="M19.8459 113.7092
L19.6554 113.7092
" />
<path d="M19.6554 113.7092
L19.4649 113.6140
" />
<path d="M19.4649 113.6140
L19.3697 113.5187
" />
<path d="M19.3697 113.5187
L19.2744 113.3283
" />
<path d="M19.2744 113.3283
L19.1792 112.9473
" />
<path d="M19.1792 112.9473
L19.1792 112.4711
" />
<path d="M19.1792 112.4711
L19.2744 112.0902
" />
<path d="M19.2744 112.0902
L19.3697 111.8997
" />
<path d="M19.3697 111.8997
L19.4649 111.8045
" />
<path d="M19.4649 111.8045
L19.6554 111.7092
" />
<path d="M21.1792 113.7092
L21.1792 112.3759
" />
<path d="M21.1792 112.5664
L21.2744 112.4711
" />
<path d="M21.2744 112.4711
L21.4649 112.3759
" />
<path d="M21.4649 112.3759
L21.7506 112.3759
" />
<path d="M21.7506 112.3759
L21.9411 112.4711
" />
<path d="M21.9411 112.4711
L22.0363 112.6616
" />
<path d="M22.0363 112.6616
L22.0363 113.7092
" />
<path d="M22.0363 112.6616
L22.1316 112.4711
" />
<path d="M22.1316 112.4711
L22.3220 112.3759
" />
<path d="M22.3220 112.3759
L22.6078 112.3759
" />
<path d="M22.6078 112.3759
L22.7982 112.4711
" />
<path d="M22.7982 112.4711
L22.8935 112.6616
" />
<path d="M22.8935 112.6616
L22.8935 113.7092
" />
<path d="M23.8459 113.7092
L23.8459 112.3759
" />
<path d="M23.8459 112.5664
L23.9411 112.4711
" />
<path d="M23.9411 112.4711
L24.1316 112.3759
" />
<path d="M24.1316 112.3759
L24.4173 112.3759
" />
<path d="M24.4173 112.3759
L24.6078 112.4711
" />
<path d="M24.6078 112.4711
L24.7030 112.6616
" />
<path d="M24.7030 112.6616
L24.7030 113.7092
" />
<path d="M24.7030 112.6616
L24.7982 112.4711
" />
<path d="M24.7982 112.4711
L24.9887 112.3759
" />
<path d="M24.9887 112.3759
L25.2744 112.3759
" />
<path d="M25.2744 112.3759
L25.4649 112.4711
" />
<path d="M25.4649 112.4711
L25.5601 112.6616
" />
<path d="M25.5601 112.6616
L25.5601 113.7092
" />
<path d="M29.4649 111.6140
L27.7506 114.1854
" />
<path d="M32.0363 111.7092
L32.2268 111.7092
" />
<path d="M32.2268 111.7092
L32.4173 111.8045
" />
<path d="M32.4173 111.8045
L32.5125 111.8997
" />
<path d="M32.5125 111.8997
L32.6078 112.0902
" />
<path d="M32.6078 112.0902
L32.7030 112.4711
" />
<path d="M32.7030 112.4711
L32.7030 112.9473
" />
<path d="M32.7030 112.9473
L32.6078 113.3283
" />
<path d="M32.6078 113.3283
L32.5125 113.5187
" />
<path d="M32.5125 113.5187
L32.4173 113.6140
" />
<path d="M32.4173 113.6140
L32.2268 113.7092
" />
<path d="M32.2268 113.7092
L32.0363 113.7092
" />
<path d="M32.0363 113.7092
L31.8459 113.6140
" />
<path d="M31.8459 113.6140
L31.7506 113.5187
" />
<path d="M31.7506 113.5187
L31.6554 113.3283
" />
<path d="M31.6554 113.3283
L31.5601 112.9473
" />
<path d="M31.5601 112.9473
L31.5601 112.4711
" />
<path d="M31.5601 112.4711
L31.6554 112.0902
" />
<path d="M31.6554 112.0902
L31.7506 111.8997
" />
<path d="M31.7506 111.8997
L31.8459 111.8045
" />
<path d="M31.8459 111.8045
L32.0363 111.7092
" />
<path d="M33.5601 113.5187
L33.6554 113.6140
" />
<path d="M33.6554 113.6140
L33.5601 113.7092
" />
<path d="M33.5601 113.7092
L33.4649 113.6140
" />
<path d="M33.4649 113.6140
L33.5601 113.5187
" />
<path d="M33.5601 113.5187
L33.5601 113.7092
" />
<path d="M34.8935 111.7092
L35.0839 111.7092
" />
<path d="M35.0839 111.7092
L35.2744 111.8045
" />
<path d="M35.2744 111.8045
L35.3697 111.8997
" />
<path d="M35.3697 111.8997
L35.4649 112.0902
" />
<path d="M35.4649 112.0902
L35.5601 112.4711
" />
<path d="M35.5601 112.4711
L35.5601 112.9473
" />
<path d="M35.5601 112.9473
L35.4649 113.3283
" />
<path d="M35.4649 113.3283
L35.3697 113.5187
" />
<path d="M35.3697 113.5187
L35.2744 113.6140
" />
<path d="M35.2744 113.6140
L35.0839 113.7092
" />
<path d="M35.0839 113.7092
L34.8935 113.7092
" />
<path d="M34.8935 113.7092
L34.7030 113.6140
" />
<path d="M34.7030 113.6140
L34.6078 113.5187
" />
<path d="M34.6078 113.5187
L34.5125 113.3283
" />
<path d="M34.5125 113.3283
L34.4173 112.9473
" />
<path d="M34.4173 112.9473
L34.4173 112.4711
" />
<path d="M34.4173 112.4711
L34.5125 112.0902
" />
<path d="M34.5125 112.0902
L34.6078 111.8997
" />
<path d="M34.6078 111.8997
L34.7030 111.8045
" />
<path d="M34.7030 111.8045
L34.8935 111.7092
" />
<path d="M37.3697 111.7092
L36.4173 111.7092
" />
<path d="M36.4173 111.7092
L36.3220 112.6616
" />
<path d="M36.3220 112.6616
L36.4173 112.5664
" />
<path d="M36.4173 112.5664
L36.6078 112.4711
" />
<path d="M36.6078 112.4711
L37.0839 112.4711
" />
<path d="M37.0839 112.4711
L37.2744 112.5664
" />
<path d="M37.2744 112.5664
L37.3697 112.6616
" />
<path d="M37.3697 112.6616
L37.4649 112.8521
" />
<path d="M37.4649 112.8521
L37.4649 113.3283
" />
<path d="M37.4649 113.3283
L37.3697 113.5187
" />
<path d="M37.3697 113.5187
L37.2744 113.6140
" />
<path d="M37.2744 113.6140
L37.0839 113.7092
" />
<path d="M37.0839 113.7092
L36.6078 113.7092
" />
<path d="M36.6078 113.7092
L36.4173 113.6140
" />
<path d="M36.4173 113.6140
L36.3220 113.5187
" />
<path d="M38.4173 113.7092
L38.7982 113.7092
" />
<path d="M38.7982 113.7092
L38.9887 113.6140
" />
<path d="M38.9887 113.6140
L39.0839 113.5187
" />
<path d="M39.0839 113.5187
L39.2744 113.2330
" />
<path d="M39.2744 113.2330
L39.3697 112.8521
" />
<path d="M39.3697 112.8521
L39.3697 112.0902
" />
<path d="M39.3697 112.0902
L39.2744 111.8997
" />
<path d="M39.2744 111.8997
L39.1792 111.8045
" />
<path d="M39.1792 111.8045
L38.9887 111.7092
" />
<path d="M38.9887 111.7092
L38.6077 111.7092
" />
<path d="M38.6077 111.7092
L38.4173 111.8045
" />
<path d="M38.4173 111.8045
L38.3220 111.8997
" />
<path d="M38.3220 111.8997
L38.2268 112.0902
" />
<path d="M38.2268 112.0902
L38.2268 112.5664
" />
<path d="M38.2268 112.5664
L38.3220 112.7568
" />
<path d="M38.3220 112.7568
L38.4173 112.8521
" />
<path d="M38.4173 112.8521
L38.6077 112.9473
" />
<path d="M38.6077 112.9473
L38.9887 112.9473
" />
<path d="M38.9887 112.9473
L39.1792 112.8521
" />
<path d="M39.1792 112.8521
L39.2744 112.7568
" />
<path d="M39.2744 112.7568
L39.3697 112.5664
" />
<path d="M41.2744 113.7092
L40.1316 113.7092
" />
<path d="M40.7030 113.7092
L40.7030 111.7092
" />
<path d="M40.7030 111.7092
L40.5125 111.9949
" />
<path d="M40.5125 111.9949
L40.3220 112.1854
" />
<path d="M40.3220 112.1854
L40.1316 112.2806
" />
<path d="M42.0363 111.7092
L42.0363 112.0902
" />
<path d="M42.7982 111.7092
L42.7982 112.0902
" />
<path d="M45.7506 114.4711
L45.6554 114.3759
" />
<path d="M45.6554 114.3759
L45.4649 114.0902
" />
<path d="M45.4649 114.0902
L45.3697 113.8997
" />
<path d="M45.3697 113.8997
L45.2744 113.6140
" />
<path d="M45.2744 113.6140
L45.1792 113.1378
" />
<path d="M45.1792 113.1378
L45.1792 112.7568
" />
<path d="M45.1792 112.7568
L45.2744 112.2806
" />
<path d="M45.2744 112.2806
L45.3697 111.9949
" />
<path d="M45.3697 111.9949
L45.4649 111.8045
" />
<path d="M45.4649 111.8045
L45.6554 111.5187
" />
<path d="M45.6554 111.5187
L45.7506 111.4235
" />
<path d="M47.5601 113.7092
L46.4173 113.7092
" />
<path d="M46.9887 113.7092
L46.9887 111.7092
" />
<path d="M46.9887 111.7092
L46.7982 111.9949
" />
<path d="M46.7982 111.9949
L46.6077 112.1854
" />
<path d="M46.6077 112.1854
L46.4173 112.2806
" />
<path d="M48.7982 111.7092
L48.9887 111.7092
" />
<path d="M48.9887 111.7092
L49.1792 111.8045
" />
<path d="M49.1792 111.8045
L49.2744 111.8997
" />
<path d="M49.2744 111.8997
L49.3697 112.0902
" />
<path d="M49.3697 112.0902
L49.4649 112.4711
" />
<path d="M49.4649 112.4711
L49.4649 112.9473
" />
<path d="M49.4649 112.9473
L49.3697 113.3283
" />
<path d="M49.3697 113.3283
L49.2744 113.5187
" />
<path d="M49.2744 113.5187
L49.1792 113.6140
" />
<path d="M49.1792 113.6140
L48.9887 113.7092
" />
<path d="M48.9887 113.7092
L48.7982 113.7092
" />
<path d="M48.7982 113.7092
L48.6077 113.6140
" />
<path d="M48.6077 113.6140
L48.5125 113.5187
" />
<path d="M48.5125 113.5187
L48.4173 113.3283
" />
<path d="M48.4173 113.3283
L48.3220 112.9473
" />
<path d="M48.3220 112.9473
L48.3220 112.4711
" />
<path d="M48.3220 112.4711
L48.4173 112.0902
" />
<path d="M48.4173 112.0902
L48.5125 111.8997
" />
<path d="M48.5125 111.8997
L48.6077 111.8045
" />
<path d="M48.6077 111.8045
L48.7982 111.7092
" />
<path d="M51.8458 113.7092
L51.8458 111.7092
" />
<path d="M52.7030 113.7092
L52.7030 112.6616
" />
<path d="M52.7030 112.6616
L52.6077 112.4711
" />
<path d="M52.6077 112.4711
L52.4173 112.3759
" />
<path d="M52.4173 112.3759
L52.1316 112.3759
" />
<path d="M52.1316 112.3759
L51.9411 112.4711
" />
<path d="M51.9411 112.4711
L51.8458 112.5664
" />
<path d="M53.9411 113.7092
L53.7506 113.6140
" />
<path d="M53.7506 113.6140
L53.6554 113.5187
" />
<path d="M53.6554 113.5187
L53.5601 113.3283
" />
<path d="M53.5601 113.3283
L53.5601 112.7568
" />
<path d="M53.5601 112.7568
L53.6554 112.5664
" />
<path d="M53.6554 112.5664
L53.7506 112.4711
" />
<path d="M53.7506 112.4711
L53.9411 112.3759
" />
<path d="M53.9411 112.3759
L54.2268 112.3759
" />
<path d="M54.2268 112.3759
L54.4173 112.4711
" />
<path d="M54.4173 112.4711
L54.5125 112.5664
" />
<path d="M54.5125 112.5664
L54.6077 112.7568
" />
<path d="M54.6077 112.7568
L54.6077 113.3283
" />
<path d="M54.6077 113.3283
L54.5125 113.5187
" />
<path d="M54.5125 113.5187
L54.4173 113.6140
" />
<path d="M54.4173 113.6140
L54.2268 113.7092
" />
<path d="M54.2268 113.7092
L53.9411 113.7092
" />
<path d="M55.7506 113.7092
L55.5601 113.6140
" />
<path d="M55.5601 113.6140
L55.4649 113.4235
" />
<path d="M55.4649 113.4235
L55.4649 111.7092
" />
<path d="M57.2744 113.6140
L57.0839 113.7092
" />
<path d="M57.0839 113.7092
L56.7030 113.7092
" />
<path d="M56.7030 113.7092
L56.5125 113.6140
" />
<path d="M56.5125 113.6140
L56.4173 113.4235
" />
<path d="M56.4173 113.4235
L56.4173 112.6616
" />
<path d="M56.4173 112.6616
L56.5125 112.4711
" />
<path d="M56.5125 112.4711
L56.7030 112.3759
" />
<path d="M56.7030 112.3759
L57.0839 112.3759
" />
<path d="M57.0839 112.3759
L57.2744 112.4711
" />
<path d="M57.2744 112.4711
L57.3696 112.6616
" />
<path d="M57.3696 112.6616
L57.3696 112.8521
" />
<path d="M57.3696 112.8521
L56.4173 113.0426
" />
<path d="M58.1316 113.6140
L58.3220 113.7092
" />
<path d="M58.3220 113.7092
L58.7030 113.7092
" />
<path d="M58.7030 113.7092
L58.8935 113.6140
" />
<path d="M58.8935 113.6140
L58.9887 113.4235
" />
<path d="M58.9887 113.4235
L58.9887 113.3283
" />
<path d="M58.9887 113.3283
L58.8935 113.1378
" />
<path d="M58.8935 113.1378
L58.7030 113.0426
" />
<path d="M58.7030 113.0426
L58.4173 113.0426
" />
<path d="M58.4173 113.0426
L58.2268 112.9473
" />
<path d="M58.2268 112.9473
L58.1316 112.7568
" />
<path d="M58.1316 112.7568
L58.1316 112.6616
" />
<path d="M58.1316 112.6616
L58.2268 112.4711
" />
<path d="M58.2268 112.4711
L58.4173 112.3759
" />
<path d="M58.4173 112.3759
L58.7030 112.3759
" />
<path d="M58.7030 112.3759
L58.8935 112.4711
" />
<path d="M59.6554 114.4711
L59.7506 114.3759
" />
<path d="M59.7506 114.3759
L59.9411 114.0902
" />
<path d="M59.9411 114.0902
L60.0363 113.8997
" />
<path d="M60.0363 113.8997
L60.1316 113.6140
" />
<path d="M60.1316 113.6140
L60.2268 113.1378
" />
<path d="M60.2268 113.1378
L60.2268 112.7568
" />
<path d="M60.2268 112.7568
L60.1316 112.2806
" />
<path d="M60.1316 112.2806
L60.0363 111.9949
" />
<path d="M60.0363 111.9949
L59.9411 111.8045
" />
<path d="M59.9411 111.8045
L59.7506 111.5187
" />
<path d="M59.7506 111.5187
L59.6554 111.4235
" />
</g></g> 
</svg>
