<?xml version="1.0" standalone="no"?>
 <!DOCTYPE svg PUBLIC "-//W3C//DTD SVG 1.1//EN" 
 "http://www.w3.org/Graphics/SVG/1.1/DTD/svg11.dtd"> 
<svg
  xmlns:svg="http://www.w3.org/2000/svg"
  xmlns="http://www.w3.org/2000/svg"
  xmlns:xlink="http://www.w3.org/1999/xlink"
  version="1.1"
  width="297.0022mm" height="210.0072mm" viewBox="0.0000 0.0000 297.0022 210.0072">
<title>SVG Image created as SAL-FP_Keyboard-NPTH-drl_map.svg date 2023/10/13 04:00:30 </title>
  <desc>Image generated by PCBNEW </desc>
<g style="fill:#000000; fill-opacity:1.0000;stroke:#000000; stroke-opacity:1.0000;
stroke-linecap:round; stroke-linejoin:round;"
 transform="translate(0 0) scale(1 1)">
</g>
<g style="fill:#000000; fill-opacity:0.0; 
stroke:#000000; stroke-width:0.0000; stroke-opacity:1; 
stroke-linecap:round; stroke-linejoin:round;">
</g>
<g style="fill:#000000; fill-opacity:0.0; 
stroke:#000000; stroke-width:0.2562; stroke-opacity:1; 
stroke-linecap:round; stroke-linejoin:round;">
<circle cx="50.8713" cy="61.3750" r="5.1249" /> 
<circle cx="99.6862" cy="61.3750" r="5.1249" /> 
<circle cx="148.5011" cy="61.3750" r="5.1249" /> 
<circle cx="197.3160" cy="61.3750" r="5.1249" /> 
<circle cx="246.1309" cy="61.3750" r="5.1249" /> 
<path style="fill:#000000; fill-opacity:0.0; 
stroke:#000000; stroke-width:0.2562; stroke-opacity:1; 
stroke-linecap:round; stroke-linejoin:round;fill:none"
d="M 10.1281,22.9381
286.8741,22.9381
286.8741,103.0663
10.1281,103.0663
Z" /> 
</g>
<g style="fill:#000000; fill-opacity:0.0; 
stroke:#000000; stroke-width:0.5125; stroke-opacity:1; 
stroke-linecap:round; stroke-linejoin:round;">
</g>
<g style="fill:#000000; fill-opacity:0.0; 
stroke:#000000; stroke-width:0.2691; stroke-opacity:1; 
stroke-linecap:round; stroke-linejoin:round;">
<path d="M72.3063 33.9951
L74.9969 36.6857
" />
<path d="M74.9969 33.9951
L72.3063 36.6857
" />
<path d="M72.3063 86.0643
L74.9969 88.7549
" />
<path d="M74.9969 86.0643
L72.3063 88.7549
" />
<path d="M78.8149 33.9951
L81.5055 36.6857
" />
<path d="M81.5055 33.9951
L78.8149 36.6857
" />
<path d="M78.8149 86.0643
L81.5055 88.7549
" />
<path d="M81.5055 86.0643
L78.8149 88.7549
" />
<path d="M85.3236 33.9951
L88.0142 36.6857
" />
<path d="M88.0142 33.9951
L85.3236 36.6857
" />
<path d="M85.3236 86.0643
L88.0142 88.7549
" />
<path d="M88.0142 86.0643
L85.3236 88.7549
" />
<path d="M91.8322 33.9951
L94.5228 36.6857
" />
<path d="M94.5228 33.9951
L91.8322 36.6857
" />
<path d="M91.8322 86.0643
L94.5228 88.7549
" />
<path d="M94.5228 86.0643
L91.8322 88.7549
" />
<path d="M98.3409 33.9951
L101.0315 36.6857
" />
<path d="M101.0315 33.9951
L98.3409 36.6857
" />
<path d="M98.3409 86.0643
L101.0315 88.7549
" />
<path d="M101.0315 86.0643
L98.3409 88.7549
" />
<path d="M104.8496 33.9951
L107.5401 36.6857
" />
<path d="M107.5401 33.9951
L104.8496 36.6857
" />
<path d="M104.8496 86.0643
L107.5401 88.7549
" />
<path d="M107.5401 86.0643
L104.8496 88.7549
" />
<path d="M111.3582 33.9951
L114.0488 36.6857
" />
<path d="M114.0488 33.9951
L111.3582 36.6857
" />
<path d="M111.3582 86.0643
L114.0488 88.7549
" />
<path d="M114.0488 86.0643
L111.3582 88.7549
" />
<path d="M117.8669 33.9951
L120.5574 36.6857
" />
<path d="M120.5574 33.9951
L117.8669 36.6857
" />
<path d="M117.8669 86.0643
L120.5574 88.7549
" />
<path d="M120.5574 86.0643
L117.8669 88.7549
" />
<path d="M124.3755 33.9951
L127.0661 36.6857
" />
<path d="M127.0661 33.9951
L124.3755 36.6857
" />
<path d="M124.3755 86.0643
L127.0661 88.7549
" />
<path d="M127.0661 86.0643
L124.3755 88.7549
" />
<path d="M130.8842 33.9951
L133.5748 36.6857
" />
<path d="M133.5748 33.9951
L130.8842 36.6857
" />
<path d="M130.8842 86.0643
L133.5748 88.7549
" />
<path d="M133.5748 86.0643
L130.8842 88.7549
" />
<path d="M137.3928 33.9951
L140.0834 36.6857
" />
<path d="M140.0834 33.9951
L137.3928 36.6857
" />
<path d="M137.3928 86.0643
L140.0834 88.7549
" />
<path d="M140.0834 86.0643
L137.3928 88.7549
" />
<path d="M143.9015 33.9951
L146.5921 36.6857
" />
<path d="M146.5921 33.9951
L143.9015 36.6857
" />
<path d="M143.9015 86.0643
L146.5921 88.7549
" />
<path d="M146.5921 86.0643
L143.9015 88.7549
" />
</g>
<g style="fill:#000000; fill-opacity:0.0; 
stroke:#000000; stroke-width:0.4356; stroke-opacity:1; 
stroke-linecap:round; stroke-linejoin:round;">
<circle cx="37.8540" cy="61.3750" r="2.1781" /> 
<circle cx="63.8886" cy="61.3750" r="2.1781" /> 
<circle cx="86.6689" cy="61.3750" r="2.1781" /> 
<circle cx="112.7035" cy="61.3750" r="2.1781" /> 
<circle cx="135.4838" cy="61.3750" r="2.1781" /> 
<circle cx="161.5184" cy="61.3750" r="2.1781" /> 
<circle cx="184.2987" cy="61.3750" r="2.1781" /> 
<circle cx="210.3333" cy="61.3750" r="2.1781" /> 
<circle cx="233.1136" cy="61.3750" r="2.1781" /> 
<circle cx="259.1482" cy="61.3750" r="2.1781" /> 
</g>
<g style="fill:#000000; fill-opacity:0.0; 
stroke:#000000; stroke-width:1.0250; stroke-opacity:1; 
stroke-linecap:round; stroke-linejoin:round;">
<path d="M50.8713 56.2501
L50.8713 66.4999
" />
<path d="M45.7464 61.3750
L55.9962 61.3750
" />
<path d="M99.6862 56.2501
L99.6862 66.4999
" />
<path d="M94.5613 61.3750
L104.8111 61.3750
" />
<path d="M148.5011 56.2501
L148.5011 66.4999
" />
<path d="M143.3762 61.3750
L153.6260 61.3750
" />
<path d="M197.3160 56.2501
L197.3160 66.4999
" />
<path d="M192.1911 61.3750
L202.4409 61.3750
" />
<path d="M246.1309 56.2501
L246.1309 66.4999
" />
<path d="M241.0060 61.3750
L251.2558 61.3750
" />
</g>
<g style="fill:#000000; fill-opacity:0.0; 
stroke:#000000; stroke-width:0.5125; stroke-opacity:1; 
stroke-linecap:round; stroke-linejoin:round;">
</g>
<g style="fill:#000000; fill-opacity:0.0; 
stroke:#000000; stroke-width:0.2000; stroke-opacity:1; 
stroke-linecap:round; stroke-linejoin:round;">
<text x="12.0000" y="106.3944"
textLength="14.8667" font-size="2.6667" lengthAdjust="spacingAndGlyphs"
text-anchor="start" opacity="0">Drill Map:</text>
<g class="stroked-text"><desc>Drill Map:</desc>
<path d="M12.6078 106.3092
L12.6078 104.3092
" />
<path d="M12.6078 104.3092
L13.0840 104.3092
" />
<path d="M13.0840 104.3092
L13.3697 104.4045
" />
<path d="M13.3697 104.4045
L13.5601 104.5949
" />
<path d="M13.5601 104.5949
L13.6554 104.7854
" />
<path d="M13.6554 104.7854
L13.7506 105.1664
" />
<path d="M13.7506 105.1664
L13.7506 105.4521
" />
<path d="M13.7506 105.4521
L13.6554 105.8330
" />
<path d="M13.6554 105.8330
L13.5601 106.0235
" />
<path d="M13.5601 106.0235
L13.3697 106.2140
" />
<path d="M13.3697 106.2140
L13.0840 106.3092
" />
<path d="M13.0840 106.3092
L12.6078 106.3092
" />
<path d="M14.6078 106.3092
L14.6078 104.9759
" />
<path d="M14.6078 105.3568
L14.7030 105.1664
" />
<path d="M14.7030 105.1664
L14.7982 105.0711
" />
<path d="M14.7982 105.0711
L14.9887 104.9759
" />
<path d="M14.9887 104.9759
L15.1792 104.9759
" />
<path d="M15.8459 106.3092
L15.8459 104.9759
" />
<path d="M15.8459 104.3092
L15.7506 104.4045
" />
<path d="M15.7506 104.4045
L15.8459 104.4997
" />
<path d="M15.8459 104.4997
L15.9411 104.4045
" />
<path d="M15.9411 104.4045
L15.8459 104.3092
" />
<path d="M15.8459 104.3092
L15.8459 104.4997
" />
<path d="M17.0840 106.3092
L16.8935 106.2140
" />
<path d="M16.8935 106.2140
L16.7982 106.0235
" />
<path d="M16.7982 106.0235
L16.7982 104.3092
" />
<path d="M18.1316 106.3092
L17.9411 106.2140
" />
<path d="M17.9411 106.2140
L17.8459 106.0235
" />
<path d="M17.8459 106.0235
L17.8459 104.3092
" />
<path d="M20.4173 106.3092
L20.4173 104.3092
" />
<path d="M20.4173 104.3092
L21.0840 105.7378
" />
<path d="M21.0840 105.7378
L21.7506 104.3092
" />
<path d="M21.7506 104.3092
L21.7506 106.3092
" />
<path d="M23.5601 106.3092
L23.5601 105.2616
" />
<path d="M23.5601 105.2616
L23.4649 105.0711
" />
<path d="M23.4649 105.0711
L23.2744 104.9759
" />
<path d="M23.2744 104.9759
L22.8935 104.9759
" />
<path d="M22.8935 104.9759
L22.7030 105.0711
" />
<path d="M23.5601 106.2140
L23.3697 106.3092
" />
<path d="M23.3697 106.3092
L22.8935 106.3092
" />
<path d="M22.8935 106.3092
L22.7030 106.2140
" />
<path d="M22.7030 106.2140
L22.6078 106.0235
" />
<path d="M22.6078 106.0235
L22.6078 105.8330
" />
<path d="M22.6078 105.8330
L22.7030 105.6426
" />
<path d="M22.7030 105.6426
L22.8935 105.5473
" />
<path d="M22.8935 105.5473
L23.3697 105.5473
" />
<path d="M23.3697 105.5473
L23.5601 105.4521
" />
<path d="M24.5125 104.9759
L24.5125 106.9759
" />
<path d="M24.5125 105.0711
L24.7030 104.9759
" />
<path d="M24.7030 104.9759
L25.0840 104.9759
" />
<path d="M25.0840 104.9759
L25.2744 105.0711
" />
<path d="M25.2744 105.0711
L25.3697 105.1664
" />
<path d="M25.3697 105.1664
L25.4649 105.3568
" />
<path d="M25.4649 105.3568
L25.4649 105.9283
" />
<path d="M25.4649 105.9283
L25.3697 106.1187
" />
<path d="M25.3697 106.1187
L25.2744 106.2140
" />
<path d="M25.2744 106.2140
L25.0840 106.3092
" />
<path d="M25.0840 106.3092
L24.7030 106.3092
" />
<path d="M24.7030 106.3092
L24.5125 106.2140
" />
<path d="M26.3221 106.1187
L26.4173 106.2140
" />
<path d="M26.4173 106.2140
L26.3221 106.3092
" />
<path d="M26.3221 106.3092
L26.2268 106.2140
" />
<path d="M26.2268 106.2140
L26.3221 106.1187
" />
<path d="M26.3221 106.1187
L26.3221 106.3092
" />
<path d="M26.3221 105.0711
L26.4173 105.1664
" />
<path d="M26.4173 105.1664
L26.3221 105.2616
" />
<path d="M26.3221 105.2616
L26.2268 105.1664
" />
<path d="M26.2268 105.1664
L26.3221 105.0711
" />
<path d="M26.3221 105.0711
L26.3221 105.2616
" />
</g></g>
<g style="fill:#000000; fill-opacity:0.0; 
stroke:#000000; stroke-width:0.2000; stroke-opacity:1; 
stroke-linecap:round; stroke-linejoin:round;">
<path d="M8.0000 108.5944
L10.0000 110.5944
" />
<path d="M10.0000 108.5944
L8.0000 110.5944
" />
</g>
<g style="fill:#000000; fill-opacity:0.0; 
stroke:#000000; stroke-width:0.5125; stroke-opacity:1; 
stroke-linecap:round; stroke-linejoin:round;">
</g>
<g style="fill:#000000; fill-opacity:0.0; 
stroke:#000000; stroke-width:0.2000; stroke-opacity:1; 
stroke-linecap:round; stroke-linejoin:round;">
<text x="12.0000" y="110.5944"
textLength="68.5809" font-size="2.6667" lengthAdjust="spacingAndGlyphs"
text-anchor="start" opacity="0">1.050mm / 0.0413" (24 holes) (not plated)</text>
<g class="stroked-text"><desc>1.050mm / 0.0413" (24 holes) (not plated)</desc>
<path d="M13.6554 110.5092
L12.5125 110.5092
" />
<path d="M13.0840 110.5092
L13.0840 108.5092
" />
<path d="M13.0840 108.5092
L12.8935 108.7949
" />
<path d="M12.8935 108.7949
L12.7030 108.9854
" />
<path d="M12.7030 108.9854
L12.5125 109.0807
" />
<path d="M14.5125 110.3187
L14.6078 110.4140
" />
<path d="M14.6078 110.4140
L14.5125 110.5092
" />
<path d="M14.5125 110.5092
L14.4173 110.4140
" />
<path d="M14.4173 110.4140
L14.5125 110.3187
" />
<path d="M14.5125 110.3187
L14.5125 110.5092
" />
<path d="M15.8459 108.5092
L16.0363 108.5092
" />
<path d="M16.0363 108.5092
L16.2268 108.6045
" />
<path d="M16.2268 108.6045
L16.3220 108.6997
" />
<path d="M16.3220 108.6997
L16.4173 108.8902
" />
<path d="M16.4173 108.8902
L16.5125 109.2711
" />
<path d="M16.5125 109.2711
L16.5125 109.7473
" />
<path d="M16.5125 109.7473
L16.4173 110.1283
" />
<path d="M16.4173 110.1283
L16.3220 110.3187
" />
<path d="M16.3220 110.3187
L16.2268 110.4140
" />
<path d="M16.2268 110.4140
L16.0363 110.5092
" />
<path d="M16.0363 110.5092
L15.8459 110.5092
" />
<path d="M15.8459 110.5092
L15.6554 110.4140
" />
<path d="M15.6554 110.4140
L15.5601 110.3187
" />
<path d="M15.5601 110.3187
L15.4649 110.1283
" />
<path d="M15.4649 110.1283
L15.3697 109.7473
" />
<path d="M15.3697 109.7473
L15.3697 109.2711
" />
<path d="M15.3697 109.2711
L15.4649 108.8902
" />
<path d="M15.4649 108.8902
L15.5601 108.6997
" />
<path d="M15.5601 108.6997
L15.6554 108.6045
" />
<path d="M15.6554 108.6045
L15.8459 108.5092
" />
<path d="M18.3220 108.5092
L17.3697 108.5092
" />
<path d="M17.3697 108.5092
L17.2744 109.4616
" />
<path d="M17.2744 109.4616
L17.3697 109.3664
" />
<path d="M17.3697 109.3664
L17.5601 109.2711
" />
<path d="M17.5601 109.2711
L18.0363 109.2711
" />
<path d="M18.0363 109.2711
L18.2268 109.3664
" />
<path d="M18.2268 109.3664
L18.3220 109.4616
" />
<path d="M18.3220 109.4616
L18.4173 109.6521
" />
<path d="M18.4173 109.6521
L18.4173 110.1283
" />
<path d="M18.4173 110.1283
L18.3220 110.3187
" />
<path d="M18.3220 110.3187
L18.2268 110.4140
" />
<path d="M18.2268 110.4140
L18.0363 110.5092
" />
<path d="M18.0363 110.5092
L17.5601 110.5092
" />
<path d="M17.5601 110.5092
L17.3697 110.4140
" />
<path d="M17.3697 110.4140
L17.2744 110.3187
" />
<path d="M19.6554 108.5092
L19.8459 108.5092
" />
<path d="M19.8459 108.5092
L20.0363 108.6045
" />
<path d="M20.0363 108.6045
L20.1316 108.6997
" />
<path d="M20.1316 108.6997
L20.2268 108.8902
" />
<path d="M20.2268 108.8902
L20.3220 109.2711
" />
<path d="M20.3220 109.2711
L20.3220 109.7473
" />
<path d="M20.3220 109.7473
L20.2268 110.1283
" />
<path d="M20.2268 110.1283
L20.1316 110.3187
" />
<path d="M20.1316 110.3187
L20.0363 110.4140
" />
<path d="M20.0363 110.4140
L19.8459 110.5092
" />
<path d="M19.8459 110.5092
L19.6554 110.5092
" />
<path d="M19.6554 110.5092
L19.4649 110.4140
" />
<path d="M19.4649 110.4140
L19.3697 110.3187
" />
<path d="M19.3697 110.3187
L19.2744 110.1283
" />
<path d="M19.2744 110.1283
L19.1792 109.7473
" />
<path d="M19.1792 109.7473
L19.1792 109.2711
" />
<path d="M19.1792 109.2711
L19.2744 108.8902
" />
<path d="M19.2744 108.8902
L19.3697 108.6997
" />
<path d="M19.3697 108.6997
L19.4649 108.6045
" />
<path d="M19.4649 108.6045
L19.6554 108.5092
" />
<path d="M21.1792 110.5092
L21.1792 109.1759
" />
<path d="M21.1792 109.3664
L21.2744 109.2711
" />
<path d="M21.2744 109.2711
L21.4649 109.1759
" />
<path d="M21.4649 109.1759
L21.7506 109.1759
" />
<path d="M21.7506 109.1759
L21.9411 109.2711
" />
<path d="M21.9411 109.2711
L22.0363 109.4616
" />
<path d="M22.0363 109.4616
L22.0363 110.5092
" />
<path d="M22.0363 109.4616
L22.1316 109.2711
" />
<path d="M22.1316 109.2711
L22.3220 109.1759
" />
<path d="M22.3220 109.1759
L22.6078 109.1759
" />
<path d="M22.6078 109.1759
L22.7982 109.2711
" />
<path d="M22.7982 109.2711
L22.8935 109.4616
" />
<path d="M22.8935 109.4616
L22.8935 110.5092
" />
<path d="M23.8459 110.5092
L23.8459 109.1759
" />
<path d="M23.8459 109.3664
L23.9411 109.2711
" />
<path d="M23.9411 109.2711
L24.1316 109.1759
" />
<path d="M24.1316 109.1759
L24.4173 109.1759
" />
<path d="M24.4173 109.1759
L24.6078 109.2711
" />
<path d="M24.6078 109.2711
L24.7030 109.4616
" />
<path d="M24.7030 109.4616
L24.7030 110.5092
" />
<path d="M24.7030 109.4616
L24.7982 109.2711
" />
<path d="M24.7982 109.2711
L24.9887 109.1759
" />
<path d="M24.9887 109.1759
L25.2744 109.1759
" />
<path d="M25.2744 109.1759
L25.4649 109.2711
" />
<path d="M25.4649 109.2711
L25.5601 109.4616
" />
<path d="M25.5601 109.4616
L25.5601 110.5092
" />
<path d="M29.4649 108.4140
L27.7506 110.9854
" />
<path d="M32.0363 108.5092
L32.2268 108.5092
" />
<path d="M32.2268 108.5092
L32.4173 108.6045
" />
<path d="M32.4173 108.6045
L32.5125 108.6997
" />
<path d="M32.5125 108.6997
L32.6078 108.8902
" />
<path d="M32.6078 108.8902
L32.7030 109.2711
" />
<path d="M32.7030 109.2711
L32.7030 109.7473
" />
<path d="M32.7030 109.7473
L32.6078 110.1283
" />
<path d="M32.6078 110.1283
L32.5125 110.3187
" />
<path d="M32.5125 110.3187
L32.4173 110.4140
" />
<path d="M32.4173 110.4140
L32.2268 110.5092
" />
<path d="M32.2268 110.5092
L32.0363 110.5092
" />
<path d="M32.0363 110.5092
L31.8459 110.4140
" />
<path d="M31.8459 110.4140
L31.7506 110.3187
" />
<path d="M31.7506 110.3187
L31.6554 110.1283
" />
<path d="M31.6554 110.1283
L31.5601 109.7473
" />
<path d="M31.5601 109.7473
L31.5601 109.2711
" />
<path d="M31.5601 109.2711
L31.6554 108.8902
" />
<path d="M31.6554 108.8902
L31.7506 108.6997
" />
<path d="M31.7506 108.6997
L31.8459 108.6045
" />
<path d="M31.8459 108.6045
L32.0363 108.5092
" />
<path d="M33.5601 110.3187
L33.6554 110.4140
" />
<path d="M33.6554 110.4140
L33.5601 110.5092
" />
<path d="M33.5601 110.5092
L33.4649 110.4140
" />
<path d="M33.4649 110.4140
L33.5601 110.3187
" />
<path d="M33.5601 110.3187
L33.5601 110.5092
" />
<path d="M34.8935 108.5092
L35.0839 108.5092
" />
<path d="M35.0839 108.5092
L35.2744 108.6045
" />
<path d="M35.2744 108.6045
L35.3697 108.6997
" />
<path d="M35.3697 108.6997
L35.4649 108.8902
" />
<path d="M35.4649 108.8902
L35.5601 109.2711
" />
<path d="M35.5601 109.2711
L35.5601 109.7473
" />
<path d="M35.5601 109.7473
L35.4649 110.1283
" />
<path d="M35.4649 110.1283
L35.3697 110.3187
" />
<path d="M35.3697 110.3187
L35.2744 110.4140
" />
<path d="M35.2744 110.4140
L35.0839 110.5092
" />
<path d="M35.0839 110.5092
L34.8935 110.5092
" />
<path d="M34.8935 110.5092
L34.7030 110.4140
" />
<path d="M34.7030 110.4140
L34.6078 110.3187
" />
<path d="M34.6078 110.3187
L34.5125 110.1283
" />
<path d="M34.5125 110.1283
L34.4173 109.7473
" />
<path d="M34.4173 109.7473
L34.4173 109.2711
" />
<path d="M34.4173 109.2711
L34.5125 108.8902
" />
<path d="M34.5125 108.8902
L34.6078 108.6997
" />
<path d="M34.6078 108.6997
L34.7030 108.6045
" />
<path d="M34.7030 108.6045
L34.8935 108.5092
" />
<path d="M37.2744 109.1759
L37.2744 110.5092
" />
<path d="M36.7982 108.4140
L36.3220 109.8426
" />
<path d="M36.3220 109.8426
L37.5601 109.8426
" />
<path d="M39.3697 110.5092
L38.2268 110.5092
" />
<path d="M38.7982 110.5092
L38.7982 108.5092
" />
<path d="M38.7982 108.5092
L38.6077 108.7949
" />
<path d="M38.6077 108.7949
L38.4173 108.9854
" />
<path d="M38.4173 108.9854
L38.2268 109.0807
" />
<path d="M40.0363 108.5092
L41.2744 108.5092
" />
<path d="M41.2744 108.5092
L40.6077 109.2711
" />
<path d="M40.6077 109.2711
L40.8935 109.2711
" />
<path d="M40.8935 109.2711
L41.0839 109.3664
" />
<path d="M41.0839 109.3664
L41.1792 109.4616
" />
<path d="M41.1792 109.4616
L41.2744 109.6521
" />
<path d="M41.2744 109.6521
L41.2744 110.1283
" />
<path d="M41.2744 110.1283
L41.1792 110.3187
" />
<path d="M41.1792 110.3187
L41.0839 110.4140
" />
<path d="M41.0839 110.4140
L40.8935 110.5092
" />
<path d="M40.8935 110.5092
L40.3220 110.5092
" />
<path d="M40.3220 110.5092
L40.1316 110.4140
" />
<path d="M40.1316 110.4140
L40.0363 110.3187
" />
<path d="M42.0363 108.5092
L42.0363 108.8902
" />
<path d="M42.7982 108.5092
L42.7982 108.8902
" />
<path d="M45.7506 111.2711
L45.6554 111.1759
" />
<path d="M45.6554 111.1759
L45.4649 110.8902
" />
<path d="M45.4649 110.8902
L45.3697 110.6997
" />
<path d="M45.3697 110.6997
L45.2744 110.4140
" />
<path d="M45.2744 110.4140
L45.1792 109.9378
" />
<path d="M45.1792 109.9378
L45.1792 109.5568
" />
<path d="M45.1792 109.5568
L45.2744 109.0807
" />
<path d="M45.2744 109.0807
L45.3697 108.7949
" />
<path d="M45.3697 108.7949
L45.4649 108.6045
" />
<path d="M45.4649 108.6045
L45.6554 108.3187
" />
<path d="M45.6554 108.3187
L45.7506 108.2235
" />
<path d="M46.4173 108.6997
L46.5125 108.6045
" />
<path d="M46.5125 108.6045
L46.7030 108.5092
" />
<path d="M46.7030 108.5092
L47.1792 108.5092
" />
<path d="M47.1792 108.5092
L47.3697 108.6045
" />
<path d="M47.3697 108.6045
L47.4649 108.6997
" />
<path d="M47.4649 108.6997
L47.5601 108.8902
" />
<path d="M47.5601 108.8902
L47.5601 109.0807
" />
<path d="M47.5601 109.0807
L47.4649 109.3664
" />
<path d="M47.4649 109.3664
L46.3220 110.5092
" />
<path d="M46.3220 110.5092
L47.5601 110.5092
" />
<path d="M49.2744 109.1759
L49.2744 110.5092
" />
<path d="M48.7982 108.4140
L48.3220 109.8426
" />
<path d="M48.3220 109.8426
L49.5601 109.8426
" />
<path d="M51.8458 110.5092
L51.8458 108.5092
" />
<path d="M52.7030 110.5092
L52.7030 109.4616
" />
<path d="M52.7030 109.4616
L52.6077 109.2711
" />
<path d="M52.6077 109.2711
L52.4173 109.1759
" />
<path d="M52.4173 109.1759
L52.1316 109.1759
" />
<path d="M52.1316 109.1759
L51.9411 109.2711
" />
<path d="M51.9411 109.2711
L51.8458 109.3664
" />
<path d="M53.9411 110.5092
L53.7506 110.4140
" />
<path d="M53.7506 110.4140
L53.6554 110.3187
" />
<path d="M53.6554 110.3187
L53.5601 110.1283
" />
<path d="M53.5601 110.1283
L53.5601 109.5568
" />
<path d="M53.5601 109.5568
L53.6554 109.3664
" />
<path d="M53.6554 109.3664
L53.7506 109.2711
" />
<path d="M53.7506 109.2711
L53.9411 109.1759
" />
<path d="M53.9411 109.1759
L54.2268 109.1759
" />
<path d="M54.2268 109.1759
L54.4173 109.2711
" />
<path d="M54.4173 109.2711
L54.5125 109.3664
" />
<path d="M54.5125 109.3664
L54.6077 109.5568
" />
<path d="M54.6077 109.5568
L54.6077 110.1283
" />
<path d="M54.6077 110.1283
L54.5125 110.3187
" />
<path d="M54.5125 110.3187
L54.4173 110.4140
" />
<path d="M54.4173 110.4140
L54.2268 110.5092
" />
<path d="M54.2268 110.5092
L53.9411 110.5092
" />
<path d="M55.7506 110.5092
L55.5601 110.4140
" />
<path d="M55.5601 110.4140
L55.4649 110.2235
" />
<path d="M55.4649 110.2235
L55.4649 108.5092
" />
<path d="M57.2744 110.4140
L57.0839 110.5092
" />
<path d="M57.0839 110.5092
L56.7030 110.5092
" />
<path d="M56.7030 110.5092
L56.5125 110.4140
" />
<path d="M56.5125 110.4140
L56.4173 110.2235
" />
<path d="M56.4173 110.2235
L56.4173 109.4616
" />
<path d="M56.4173 109.4616
L56.5125 109.2711
" />
<path d="M56.5125 109.2711
L56.7030 109.1759
" />
<path d="M56.7030 109.1759
L57.0839 109.1759
" />
<path d="M57.0839 109.1759
L57.2744 109.2711
" />
<path d="M57.2744 109.2711
L57.3696 109.4616
" />
<path d="M57.3696 109.4616
L57.3696 109.6521
" />
<path d="M57.3696 109.6521
L56.4173 109.8426
" />
<path d="M58.1316 110.4140
L58.3220 110.5092
" />
<path d="M58.3220 110.5092
L58.7030 110.5092
" />
<path d="M58.7030 110.5092
L58.8935 110.4140
" />
<path d="M58.8935 110.4140
L58.9887 110.2235
" />
<path d="M58.9887 110.2235
L58.9887 110.1283
" />
<path d="M58.9887 110.1283
L58.8935 109.9378
" />
<path d="M58.8935 109.9378
L58.7030 109.8426
" />
<path d="M58.7030 109.8426
L58.4173 109.8426
" />
<path d="M58.4173 109.8426
L58.2268 109.7473
" />
<path d="M58.2268 109.7473
L58.1316 109.5568
" />
<path d="M58.1316 109.5568
L58.1316 109.4616
" />
<path d="M58.1316 109.4616
L58.2268 109.2711
" />
<path d="M58.2268 109.2711
L58.4173 109.1759
" />
<path d="M58.4173 109.1759
L58.7030 109.1759
" />
<path d="M58.7030 109.1759
L58.8935 109.2711
" />
<path d="M59.6554 111.2711
L59.7506 111.1759
" />
<path d="M59.7506 111.1759
L59.9411 110.8902
" />
<path d="M59.9411 110.8902
L60.0363 110.6997
" />
<path d="M60.0363 110.6997
L60.1316 110.4140
" />
<path d="M60.1316 110.4140
L60.2268 109.9378
" />
<path d="M60.2268 109.9378
L60.2268 109.5568
" />
<path d="M60.2268 109.5568
L60.1316 109.0807
" />
<path d="M60.1316 109.0807
L60.0363 108.7949
" />
<path d="M60.0363 108.7949
L59.9411 108.6045
" />
<path d="M59.9411 108.6045
L59.7506 108.3187
" />
<path d="M59.7506 108.3187
L59.6554 108.2235
" />
<path d="M63.2744 111.2711
L63.1792 111.1759
" />
<path d="M63.1792 111.1759
L62.9887 110.8902
" />
<path d="M62.9887 110.8902
L62.8935 110.6997
" />
<path d="M62.8935 110.6997
L62.7982 110.4140
" />
<path d="M62.7982 110.4140
L62.7030 109.9378
" />
<path d="M62.7030 109.9378
L62.7030 109.5568
" />
<path d="M62.7030 109.5568
L62.7982 109.0807
" />
<path d="M62.7982 109.0807
L62.8935 108.7949
" />
<path d="M62.8935 108.7949
L62.9887 108.6045
" />
<path d="M62.9887 108.6045
L63.1792 108.3187
" />
<path d="M63.1792 108.3187
L63.2744 108.2235
" />
<path d="M64.0363 109.1759
L64.0363 110.5092
" />
<path d="M64.0363 109.3664
L64.1316 109.2711
" />
<path d="M64.1316 109.2711
L64.3220 109.1759
" />
<path d="M64.3220 109.1759
L64.6077 109.1759
" />
<path d="M64.6077 109.1759
L64.7982 109.2711
" />
<path d="M64.7982 109.2711
L64.8935 109.4616
" />
<path d="M64.8935 109.4616
L64.8935 110.5092
" />
<path d="M66.1316 110.5092
L65.9411 110.4140
" />
<path d="M65.9411 110.4140
L65.8458 110.3187
" />
<path d="M65.8458 110.3187
L65.7506 110.1283
" />
<path d="M65.7506 110.1283
L65.7506 109.5568
" />
<path d="M65.7506 109.5568
L65.8458 109.3664
" />
<path d="M65.8458 109.3664
L65.9411 109.2711
" />
<path d="M65.9411 109.2711
L66.1316 109.1759
" />
<path d="M66.1316 109.1759
L66.4173 109.1759
" />
<path d="M66.4173 109.1759
L66.6077 109.2711
" />
<path d="M66.6077 109.2711
L66.7030 109.3664
" />
<path d="M66.7030 109.3664
L66.7982 109.5568
" />
<path d="M66.7982 109.5568
L66.7982 110.1283
" />
<path d="M66.7982 110.1283
L66.7030 110.3187
" />
<path d="M66.7030 110.3187
L66.6077 110.4140
" />
<path d="M66.6077 110.4140
L66.4173 110.5092
" />
<path d="M66.4173 110.5092
L66.1316 110.5092
" />
<path d="M67.3697 109.1759
L68.1316 109.1759
" />
<path d="M67.6554 108.5092
L67.6554 110.2235
" />
<path d="M67.6554 110.2235
L67.7506 110.4140
" />
<path d="M67.7506 110.4140
L67.9411 110.5092
" />
<path d="M67.9411 110.5092
L68.1316 110.5092
" />
<path d="M70.3220 109.1759
L70.3220 111.1759
" />
<path d="M70.3220 109.2711
L70.5125 109.1759
" />
<path d="M70.5125 109.1759
L70.8935 109.1759
" />
<path d="M70.8935 109.1759
L71.0839 109.2711
" />
<path d="M71.0839 109.2711
L71.1792 109.3664
" />
<path d="M71.1792 109.3664
L71.2744 109.5568
" />
<path d="M71.2744 109.5568
L71.2744 110.1283
" />
<path d="M71.2744 110.1283
L71.1792 110.3187
" />
<path d="M71.1792 110.3187
L71.0839 110.4140
" />
<path d="M71.0839 110.4140
L70.8935 110.5092
" />
<path d="M70.8935 110.5092
L70.5125 110.5092
" />
<path d="M70.5125 110.5092
L70.3220 110.4140
" />
<path d="M72.4173 110.5092
L72.2268 110.4140
" />
<path d="M72.2268 110.4140
L72.1316 110.2235
" />
<path d="M72.1316 110.2235
L72.1316 108.5092
" />
<path d="M74.0363 110.5092
L74.0363 109.4616
" />
<path d="M74.0363 109.4616
L73.9411 109.2711
" />
<path d="M73.9411 109.2711
L73.7506 109.1759
" />
<path d="M73.7506 109.1759
L73.3696 109.1759
" />
<path d="M73.3696 109.1759
L73.1792 109.2711
" />
<path d="M74.0363 110.4140
L73.8458 110.5092
" />
<path d="M73.8458 110.5092
L73.3696 110.5092
" />
<path d="M73.3696 110.5092
L73.1792 110.4140
" />
<path d="M73.1792 110.4140
L73.0839 110.2235
" />
<path d="M73.0839 110.2235
L73.0839 110.0330
" />
<path d="M73.0839 110.0330
L73.1792 109.8426
" />
<path d="M73.1792 109.8426
L73.3696 109.7473
" />
<path d="M73.3696 109.7473
L73.8458 109.7473
" />
<path d="M73.8458 109.7473
L74.0363 109.6521
" />
<path d="M74.7030 109.1759
L75.4649 109.1759
" />
<path d="M74.9887 108.5092
L74.9887 110.2235
" />
<path d="M74.9887 110.2235
L75.0839 110.4140
" />
<path d="M75.0839 110.4140
L75.2744 110.5092
" />
<path d="M75.2744 110.5092
L75.4649 110.5092
" />
<path d="M76.8935 110.4140
L76.7030 110.5092
" />
<path d="M76.7030 110.5092
L76.3220 110.5092
" />
<path d="M76.3220 110.5092
L76.1316 110.4140
" />
<path d="M76.1316 110.4140
L76.0363 110.2235
" />
<path d="M76.0363 110.2235
L76.0363 109.4616
" />
<path d="M76.0363 109.4616
L76.1316 109.2711
" />
<path d="M76.1316 109.2711
L76.3220 109.1759
" />
<path d="M76.3220 109.1759
L76.7030 109.1759
" />
<path d="M76.7030 109.1759
L76.8935 109.2711
" />
<path d="M76.8935 109.2711
L76.9887 109.4616
" />
<path d="M76.9887 109.4616
L76.9887 109.6521
" />
<path d="M76.9887 109.6521
L76.0363 109.8426
" />
<path d="M78.7030 110.5092
L78.7030 108.5092
" />
<path d="M78.7030 110.4140
L78.5125 110.5092
" />
<path d="M78.5125 110.5092
L78.1316 110.5092
" />
<path d="M78.1316 110.5092
L77.9411 110.4140
" />
<path d="M77.9411 110.4140
L77.8458 110.3187
" />
<path d="M77.8458 110.3187
L77.7506 110.1283
" />
<path d="M77.7506 110.1283
L77.7506 109.5568
" />
<path d="M77.7506 109.5568
L77.8458 109.3664
" />
<path d="M77.8458 109.3664
L77.9411 109.2711
" />
<path d="M77.9411 109.2711
L78.1316 109.1759
" />
<path d="M78.1316 109.1759
L78.5125 109.1759
" />
<path d="M78.5125 109.1759
L78.7030 109.2711
" />
<path d="M79.4649 111.2711
L79.5601 111.1759
" />
<path d="M79.5601 111.1759
L79.7506 110.8902
" />
<path d="M79.7506 110.8902
L79.8458 110.6997
" />
<path d="M79.8458 110.6997
L79.9411 110.4140
" />
<path d="M79.9411 110.4140
L80.0363 109.9378
" />
<path d="M80.0363 109.9378
L80.0363 109.5568
" />
<path d="M80.0363 109.5568
L79.9411 109.0807
" />
<path d="M79.9411 109.0807
L79.8458 108.7949
" />
<path d="M79.8458 108.7949
L79.7506 108.6045
" />
<path d="M79.7506 108.6045
L79.5601 108.3187
" />
<path d="M79.5601 108.3187
L79.4649 108.2235
" />
</g></g>
<g style="fill:#000000; fill-opacity:0.0; 
stroke:#000000; stroke-width:0.2000; stroke-opacity:1; 
stroke-linecap:round; stroke-linejoin:round;">
<circle cx="9.0000" cy="112.7944" r="1.0000" /> 
</g>
<g style="fill:#000000; fill-opacity:0.0; 
stroke:#000000; stroke-width:0.5125; stroke-opacity:1; 
stroke-linecap:round; stroke-linejoin:round;">
</g>
<g style="fill:#000000; fill-opacity:0.0; 
stroke:#000000; stroke-width:0.2000; stroke-opacity:1; 
stroke-linecap:round; stroke-linejoin:round;">
<text x="12.0000" y="113.7944"
textLength="68.5809" font-size="2.6667" lengthAdjust="spacingAndGlyphs"
text-anchor="start" opacity="0">1.700mm / 0.0669" (10 holes) (not plated)</text>
<g class="stroked-text"><desc>1.700mm / 0.0669" (10 holes) (not plated)</desc>
<path d="M13.6554 113.7092
L12.5125 113.7092
" />
<path d="M13.0840 113.7092
L13.0840 111.7092
" />
<path d="M13.0840 111.7092
L12.8935 111.9949
" />
<path d="M12.8935 111.9949
L12.7030 112.1854
" />
<path d="M12.7030 112.1854
L12.5125 112.2806
" />
<path d="M14.5125 113.5187
L14.6078 113.6140
" />
<path d="M14.6078 113.6140
L14.5125 113.7092
" />
<path d="M14.5125 113.7092
L14.4173 113.6140
" />
<path d="M14.4173 113.6140
L14.5125 113.5187
" />
<path d="M14.5125 113.5187
L14.5125 113.7092
" />
<path d="M15.2744 111.7092
L16.6078 111.7092
" />
<path d="M16.6078 111.7092
L15.7506 113.7092
" />
<path d="M17.7506 111.7092
L17.9411 111.7092
" />
<path d="M17.9411 111.7092
L18.1316 111.8045
" />
<path d="M18.1316 111.8045
L18.2268 111.8997
" />
<path d="M18.2268 111.8997
L18.3220 112.0902
" />
<path d="M18.3220 112.0902
L18.4173 112.4711
" />
<path d="M18.4173 112.4711
L18.4173 112.9473
" />
<path d="M18.4173 112.9473
L18.3220 113.3283
" />
<path d="M18.3220 113.3283
L18.2268 113.5187
" />
<path d="M18.2268 113.5187
L18.1316 113.6140
" />
<path d="M18.1316 113.6140
L17.9411 113.7092
" />
<path d="M17.9411 113.7092
L17.7506 113.7092
" />
<path d="M17.7506 113.7092
L17.5601 113.6140
" />
<path d="M17.5601 113.6140
L17.4649 113.5187
" />
<path d="M17.4649 113.5187
L17.3697 113.3283
" />
<path d="M17.3697 113.3283
L17.2744 112.9473
" />
<path d="M17.2744 112.9473
L17.2744 112.4711
" />
<path d="M17.2744 112.4711
L17.3697 112.0902
" />
<path d="M17.3697 112.0902
L17.4649 111.8997
" />
<path d="M17.4649 111.8997
L17.5601 111.8045
" />
<path d="M17.5601 111.8045
L17.7506 111.7092
" />
<path d="M19.6554 111.7092
L19.8459 111.7092
" />
<path d="M19.8459 111.7092
L20.0363 111.8045
" />
<path d="M20.0363 111.8045
L20.1316 111.8997
" />
<path d="M20.1316 111.8997
L20.2268 112.0902
" />
<path d="M20.2268 112.0902
L20.3220 112.4711
" />
<path d="M20.3220 112.4711
L20.3220 112.9473
" />
<path d="M20.3220 112.9473
L20.2268 113.3283
" />
<path d="M20.2268 113.3283
L20.1316 113.5187
" />
<path d="M20.1316 113.5187
L20.0363 113.6140
" />
<path d="M20.0363 113.6140
L19.8459 113.7092
" />
<path d="M19.8459 113.7092
L19.6554 113.7092
" />
<path d="M19.6554 113.7092
L19.4649 113.6140
" />
<path d="M19.4649 113.6140
L19.3697 113.5187
" />
<path d="M19.3697 113.5187
L19.2744 113.3283
" />
<path d="M19.2744 113.3283
L19.1792 112.9473
" />
<path d="M19.1792 112.9473
L19.1792 112.4711
" />
<path d="M19.1792 112.4711
L19.2744 112.0902
" />
<path d="M19.2744 112.0902
L19.3697 111.8997
" />
<path d="M19.3697 111.8997
L19.4649 111.8045
" />
<path d="M19.4649 111.8045
L19.6554 111.7092
" />
<path d="M21.1792 113.7092
L21.1792 112.3759
" />
<path d="M21.1792 112.5664
L21.2744 112.4711
" />
<path d="M21.2744 112.4711
L21.4649 112.3759
" />
<path d="M21.4649 112.3759
L21.7506 112.3759
" />
<path d="M21.7506 112.3759
L21.9411 112.4711
" />
<path d="M21.9411 112.4711
L22.0363 112.6616
" />
<path d="M22.0363 112.6616
L22.0363 113.7092
" />
<path d="M22.0363 112.6616
L22.1316 112.4711
" />
<path d="M22.1316 112.4711
L22.3220 112.3759
" />
<path d="M22.3220 112.3759
L22.6078 112.3759
" />
<path d="M22.6078 112.3759
L22.7982 112.4711
" />
<path d="M22.7982 112.4711
L22.8935 112.6616
" />
<path d="M22.8935 112.6616
L22.8935 113.7092
" />
<path d="M23.8459 113.7092
L23.8459 112.3759
" />
<path d="M23.8459 112.5664
L23.9411 112.4711
" />
<path d="M23.9411 112.4711
L24.1316 112.3759
" />
<path d="M24.1316 112.3759
L24.4173 112.3759
" />
<path d="M24.4173 112.3759
L24.6078 112.4711
" />
<path d="M24.6078 112.4711
L24.7030 112.6616
" />
<path d="M24.7030 112.6616
L24.7030 113.7092
" />
<path d="M24.7030 112.6616
L24.7982 112.4711
" />
<path d="M24.7982 112.4711
L24.9887 112.3759
" />
<path d="M24.9887 112.3759
L25.2744 112.3759
" />
<path d="M25.2744 112.3759
L25.4649 112.4711
" />
<path d="M25.4649 112.4711
L25.5601 112.6616
" />
<path d="M25.5601 112.6616
L25.5601 113.7092
" />
<path d="M29.4649 111.6140
L27.7506 114.1854
" />
<path d="M32.0363 111.7092
L32.2268 111.7092
" />
<path d="M32.2268 111.7092
L32.4173 111.8045
" />
<path d="M32.4173 111.8045
L32.5125 111.8997
" />
<path d="M32.5125 111.8997
L32.6078 112.0902
" />
<path d="M32.6078 112.0902
L32.7030 112.4711
" />
<path d="M32.7030 112.4711
L32.7030 112.9473
" />
<path d="M32.7030 112.9473
L32.6078 113.3283
" />
<path d="M32.6078 113.3283
L32.5125 113.5187
" />
<path d="M32.5125 113.5187
L32.4173 113.6140
" />
<path d="M32.4173 113.6140
L32.2268 113.7092
" />
<path d="M32.2268 113.7092
L32.0363 113.7092
" />
<path d="M32.0363 113.7092
L31.8459 113.6140
" />
<path d="M31.8459 113.6140
L31.7506 113.5187
" />
<path d="M31.7506 113.5187
L31.6554 113.3283
" />
<path d="M31.6554 113.3283
L31.5601 112.9473
" />
<path d="M31.5601 112.9473
L31.5601 112.4711
" />
<path d="M31.5601 112.4711
L31.6554 112.0902
" />
<path d="M31.6554 112.0902
L31.7506 111.8997
" />
<path d="M31.7506 111.8997
L31.8459 111.8045
" />
<path d="M31.8459 111.8045
L32.0363 111.7092
" />
<path d="M33.5601 113.5187
L33.6554 113.6140
" />
<path d="M33.6554 113.6140
L33.5601 113.7092
" />
<path d="M33.5601 113.7092
L33.4649 113.6140
" />
<path d="M33.4649 113.6140
L33.5601 113.5187
" />
<path d="M33.5601 113.5187
L33.5601 113.7092
" />
<path d="M34.8935 111.7092
L35.0839 111.7092
" />
<path d="M35.0839 111.7092
L35.2744 111.8045
" />
<path d="M35.2744 111.8045
L35.3697 111.8997
" />
<path d="M35.3697 111.8997
L35.4649 112.0902
" />
<path d="M35.4649 112.0902
L35.5601 112.4711
" />
<path d="M35.5601 112.4711
L35.5601 112.9473
" />
<path d="M35.5601 112.9473
L35.4649 113.3283
" />
<path d="M35.4649 113.3283
L35.3697 113.5187
" />
<path d="M35.3697 113.5187
L35.2744 113.6140
" />
<path d="M35.2744 113.6140
L35.0839 113.7092
" />
<path d="M35.0839 113.7092
L34.8935 113.7092
" />
<path d="M34.8935 113.7092
L34.7030 113.6140
" />
<path d="M34.7030 113.6140
L34.6078 113.5187
" />
<path d="M34.6078 113.5187
L34.5125 113.3283
" />
<path d="M34.5125 113.3283
L34.4173 112.9473
" />
<path d="M34.4173 112.9473
L34.4173 112.4711
" />
<path d="M34.4173 112.4711
L34.5125 112.0902
" />
<path d="M34.5125 112.0902
L34.6078 111.8997
" />
<path d="M34.6078 111.8997
L34.7030 111.8045
" />
<path d="M34.7030 111.8045
L34.8935 111.7092
" />
<path d="M37.2744 111.7092
L36.8935 111.7092
" />
<path d="M36.8935 111.7092
L36.7030 111.8045
" />
<path d="M36.7030 111.8045
L36.6078 111.8997
" />
<path d="M36.6078 111.8997
L36.4173 112.1854
" />
<path d="M36.4173 112.1854
L36.3220 112.5664
" />
<path d="M36.3220 112.5664
L36.3220 113.3283
" />
<path d="M36.3220 113.3283
L36.4173 113.5187
" />
<path d="M36.4173 113.5187
L36.5125 113.6140
" />
<path d="M36.5125 113.6140
L36.7030 113.7092
" />
<path d="M36.7030 113.7092
L37.0839 113.7092
" />
<path d="M37.0839 113.7092
L37.2744 113.6140
" />
<path d="M37.2744 113.6140
L37.3697 113.5187
" />
<path d="M37.3697 113.5187
L37.4649 113.3283
" />
<path d="M37.4649 113.3283
L37.4649 112.8521
" />
<path d="M37.4649 112.8521
L37.3697 112.6616
" />
<path d="M37.3697 112.6616
L37.2744 112.5664
" />
<path d="M37.2744 112.5664
L37.0839 112.4711
" />
<path d="M37.0839 112.4711
L36.7030 112.4711
" />
<path d="M36.7030 112.4711
L36.5125 112.5664
" />
<path d="M36.5125 112.5664
L36.4173 112.6616
" />
<path d="M36.4173 112.6616
L36.3220 112.8521
" />
<path d="M39.1792 111.7092
L38.7982 111.7092
" />
<path d="M38.7982 111.7092
L38.6077 111.8045
" />
<path d="M38.6077 111.8045
L38.5125 111.8997
" />
<path d="M38.5125 111.8997
L38.3220 112.1854
" />
<path d="M38.3220 112.1854
L38.2268 112.5664
" />
<path d="M38.2268 112.5664
L38.2268 113.3283
" />
<path d="M38.2268 113.3283
L38.3220 113.5187
" />
<path d="M38.3220 113.5187
L38.4173 113.6140
" />
<path d="M38.4173 113.6140
L38.6077 113.7092
" />
<path d="M38.6077 113.7092
L38.9887 113.7092
" />
<path d="M38.9887 113.7092
L39.1792 113.6140
" />
<path d="M39.1792 113.6140
L39.2744 113.5187
" />
<path d="M39.2744 113.5187
L39.3697 113.3283
" />
<path d="M39.3697 113.3283
L39.3697 112.8521
" />
<path d="M39.3697 112.8521
L39.2744 112.6616
" />
<path d="M39.2744 112.6616
L39.1792 112.5664
" />
<path d="M39.1792 112.5664
L38.9887 112.4711
" />
<path d="M38.9887 112.4711
L38.6077 112.4711
" />
<path d="M38.6077 112.4711
L38.4173 112.5664
" />
<path d="M38.4173 112.5664
L38.3220 112.6616
" />
<path d="M38.3220 112.6616
L38.2268 112.8521
" />
<path d="M40.3220 113.7092
L40.7030 113.7092
" />
<path d="M40.7030 113.7092
L40.8935 113.6140
" />
<path d="M40.8935 113.6140
L40.9887 113.5187
" />
<path d="M40.9887 113.5187
L41.1792 113.2330
" />
<path d="M41.1792 113.2330
L41.2744 112.8521
" />
<path d="M41.2744 112.8521
L41.2744 112.0902
" />
<path d="M41.2744 112.0902
L41.1792 111.8997
" />
<path d="M41.1792 111.8997
L41.0839 111.8045
" />
<path d="M41.0839 111.8045
L40.8935 111.7092
" />
<path d="M40.8935 111.7092
L40.5125 111.7092
" />
<path d="M40.5125 111.7092
L40.3220 111.8045
" />
<path d="M40.3220 111.8045
L40.2268 111.8997
" />
<path d="M40.2268 111.8997
L40.1316 112.0902
" />
<path d="M40.1316 112.0902
L40.1316 112.5664
" />
<path d="M40.1316 112.5664
L40.2268 112.7568
" />
<path d="M40.2268 112.7568
L40.3220 112.8521
" />
<path d="M40.3220 112.8521
L40.5125 112.9473
" />
<path d="M40.5125 112.9473
L40.8935 112.9473
" />
<path d="M40.8935 112.9473
L41.0839 112.8521
" />
<path d="M41.0839 112.8521
L41.1792 112.7568
" />
<path d="M41.1792 112.7568
L41.2744 112.5664
" />
<path d="M42.0363 111.7092
L42.0363 112.0902
" />
<path d="M42.7982 111.7092
L42.7982 112.0902
" />
<path d="M45.7506 114.4711
L45.6554 114.3759
" />
<path d="M45.6554 114.3759
L45.4649 114.0902
" />
<path d="M45.4649 114.0902
L45.3697 113.8997
" />
<path d="M45.3697 113.8997
L45.2744 113.6140
" />
<path d="M45.2744 113.6140
L45.1792 113.1378
" />
<path d="M45.1792 113.1378
L45.1792 112.7568
" />
<path d="M45.1792 112.7568
L45.2744 112.2806
" />
<path d="M45.2744 112.2806
L45.3697 111.9949
" />
<path d="M45.3697 111.9949
L45.4649 111.8045
" />
<path d="M45.4649 111.8045
L45.6554 111.5187
" />
<path d="M45.6554 111.5187
L45.7506 111.4235
" />
<path d="M47.5601 113.7092
L46.4173 113.7092
" />
<path d="M46.9887 113.7092
L46.9887 111.7092
" />
<path d="M46.9887 111.7092
L46.7982 111.9949
" />
<path d="M46.7982 111.9949
L46.6077 112.1854
" />
<path d="M46.6077 112.1854
L46.4173 112.2806
" />
<path d="M48.7982 111.7092
L48.9887 111.7092
" />
<path d="M48.9887 111.7092
L49.1792 111.8045
" />
<path d="M49.1792 111.8045
L49.2744 111.8997
" />
<path d="M49.2744 111.8997
L49.3697 112.0902
" />
<path d="M49.3697 112.0902
L49.4649 112.4711
" />
<path d="M49.4649 112.4711
L49.4649 112.9473
" />
<path d="M49.4649 112.9473
L49.3697 113.3283
" />
<path d="M49.3697 113.3283
L49.2744 113.5187
" />
<path d="M49.2744 113.5187
L49.1792 113.6140
" />
<path d="M49.1792 113.6140
L48.9887 113.7092
" />
<path d="M48.9887 113.7092
L48.7982 113.7092
" />
<path d="M48.7982 113.7092
L48.6077 113.6140
" />
<path d="M48.6077 113.6140
L48.5125 113.5187
" />
<path d="M48.5125 113.5187
L48.4173 113.3283
" />
<path d="M48.4173 113.3283
L48.3220 112.9473
" />
<path d="M48.3220 112.9473
L48.3220 112.4711
" />
<path d="M48.3220 112.4711
L48.4173 112.0902
" />
<path d="M48.4173 112.0902
L48.5125 111.8997
" />
<path d="M48.5125 111.8997
L48.6077 111.8045
" />
<path d="M48.6077 111.8045
L48.7982 111.7092
" />
<path d="M51.8458 113.7092
L51.8458 111.7092
" />
<path d="M52.7030 113.7092
L52.7030 112.6616
" />
<path d="M52.7030 112.6616
L52.6077 112.4711
" />
<path d="M52.6077 112.4711
L52.4173 112.3759
" />
<path d="M52.4173 112.3759
L52.1316 112.3759
" />
<path d="M52.1316 112.3759
L51.9411 112.4711
" />
<path d="M51.9411 112.4711
L51.8458 112.5664
" />
<path d="M53.9411 113.7092
L53.7506 113.6140
" />
<path d="M53.7506 113.6140
L53.6554 113.5187
" />
<path d="M53.6554 113.5187
L53.5601 113.3283
" />
<path d="M53.5601 113.3283
L53.5601 112.7568
" />
<path d="M53.5601 112.7568
L53.6554 112.5664
" />
<path d="M53.6554 112.5664
L53.7506 112.4711
" />
<path d="M53.7506 112.4711
L53.9411 112.3759
" />
<path d="M53.9411 112.3759
L54.2268 112.3759
" />
<path d="M54.2268 112.3759
L54.4173 112.4711
" />
<path d="M54.4173 112.4711
L54.5125 112.5664
" />
<path d="M54.5125 112.5664
L54.6077 112.7568
" />
<path d="M54.6077 112.7568
L54.6077 113.3283
" />
<path d="M54.6077 113.3283
L54.5125 113.5187
" />
<path d="M54.5125 113.5187
L54.4173 113.6140
" />
<path d="M54.4173 113.6140
L54.2268 113.7092
" />
<path d="M54.2268 113.7092
L53.9411 113.7092
" />
<path d="M55.7506 113.7092
L55.5601 113.6140
" />
<path d="M55.5601 113.6140
L55.4649 113.4235
" />
<path d="M55.4649 113.4235
L55.4649 111.7092
" />
<path d="M57.2744 113.6140
L57.0839 113.7092
" />
<path d="M57.0839 113.7092
L56.7030 113.7092
" />
<path d="M56.7030 113.7092
L56.5125 113.6140
" />
<path d="M56.5125 113.6140
L56.4173 113.4235
" />
<path d="M56.4173 113.4235
L56.4173 112.6616
" />
<path d="M56.4173 112.6616
L56.5125 112.4711
" />
<path d="M56.5125 112.4711
L56.7030 112.3759
" />
<path d="M56.7030 112.3759
L57.0839 112.3759
" />
<path d="M57.0839 112.3759
L57.2744 112.4711
" />
<path d="M57.2744 112.4711
L57.3696 112.6616
" />
<path d="M57.3696 112.6616
L57.3696 112.8521
" />
<path d="M57.3696 112.8521
L56.4173 113.0426
" />
<path d="M58.1316 113.6140
L58.3220 113.7092
" />
<path d="M58.3220 113.7092
L58.7030 113.7092
" />
<path d="M58.7030 113.7092
L58.8935 113.6140
" />
<path d="M58.8935 113.6140
L58.9887 113.4235
" />
<path d="M58.9887 113.4235
L58.9887 113.3283
" />
<path d="M58.9887 113.3283
L58.8935 113.1378
" />
<path d="M58.8935 113.1378
L58.7030 113.0426
" />
<path d="M58.7030 113.0426
L58.4173 113.0426
" />
<path d="M58.4173 113.0426
L58.2268 112.9473
" />
<path d="M58.2268 112.9473
L58.1316 112.7568
" />
<path d="M58.1316 112.7568
L58.1316 112.6616
" />
<path d="M58.1316 112.6616
L58.2268 112.4711
" />
<path d="M58.2268 112.4711
L58.4173 112.3759
" />
<path d="M58.4173 112.3759
L58.7030 112.3759
" />
<path d="M58.7030 112.3759
L58.8935 112.4711
" />
<path d="M59.6554 114.4711
L59.7506 114.3759
" />
<path d="M59.7506 114.3759
L59.9411 114.0902
" />
<path d="M59.9411 114.0902
L60.0363 113.8997
" />
<path d="M60.0363 113.8997
L60.1316 113.6140
" />
<path d="M60.1316 113.6140
L60.2268 113.1378
" />
<path d="M60.2268 113.1378
L60.2268 112.7568
" />
<path d="M60.2268 112.7568
L60.1316 112.2806
" />
<path d="M60.1316 112.2806
L60.0363 111.9949
" />
<path d="M60.0363 111.9949
L59.9411 111.8045
" />
<path d="M59.9411 111.8045
L59.7506 111.5187
" />
<path d="M59.7506 111.5187
L59.6554 111.4235
" />
<path d="M63.2744 114.4711
L63.1792 114.3759
" />
<path d="M63.1792 114.3759
L62.9887 114.0902
" />
<path d="M62.9887 114.0902
L62.8935 113.8997
" />
<path d="M62.8935 113.8997
L62.7982 113.6140
" />
<path d="M62.7982 113.6140
L62.7030 113.1378
" />
<path d="M62.7030 113.1378
L62.7030 112.7568
" />
<path d="M62.7030 112.7568
L62.7982 112.2806
" />
<path d="M62.7982 112.2806
L62.8935 111.9949
" />
<path d="M62.8935 111.9949
L62.9887 111.8045
" />
<path d="M62.9887 111.8045
L63.1792 111.5187
" />
<path d="M63.1792 111.5187
L63.2744 111.4235
" />
<path d="M64.0363 112.3759
L64.0363 113.7092
" />
<path d="M64.0363 112.5664
L64.1316 112.4711
" />
<path d="M64.1316 112.4711
L64.3220 112.3759
" />
<path d="M64.3220 112.3759
L64.6077 112.3759
" />
<path d="M64.6077 112.3759
L64.7982 112.4711
" />
<path d="M64.7982 112.4711
L64.8935 112.6616
" />
<path d="M64.8935 112.6616
L64.8935 113.7092
" />
<path d="M66.1316 113.7092
L65.9411 113.6140
" />
<path d="M65.9411 113.6140
L65.8458 113.5187
" />
<path d="M65.8458 113.5187
L65.7506 113.3283
" />
<path d="M65.7506 113.3283
L65.7506 112.7568
" />
<path d="M65.7506 112.7568
L65.8458 112.5664
" />
<path d="M65.8458 112.5664
L65.9411 112.4711
" />
<path d="M65.9411 112.4711
L66.1316 112.3759
" />
<path d="M66.1316 112.3759
L66.4173 112.3759
" />
<path d="M66.4173 112.3759
L66.6077 112.4711
" />
<path d="M66.6077 112.4711
L66.7030 112.5664
" />
<path d="M66.7030 112.5664
L66.7982 112.7568
" />
<path d="M66.7982 112.7568
L66.7982 113.3283
" />
<path d="M66.7982 113.3283
L66.7030 113.5187
" />
<path d="M66.7030 113.5187
L66.6077 113.6140
" />
<path d="M66.6077 113.6140
L66.4173 113.7092
" />
<path d="M66.4173 113.7092
L66.1316 113.7092
" />
<path d="M67.3697 112.3759
L68.1316 112.3759
" />
<path d="M67.6554 111.7092
L67.6554 113.4235
" />
<path d="M67.6554 113.4235
L67.7506 113.6140
" />
<path d="M67.7506 113.6140
L67.9411 113.7092
" />
<path d="M67.9411 113.7092
L68.1316 113.7092
" />
<path d="M70.3220 112.3759
L70.3220 114.3759
" />
<path d="M70.3220 112.4711
L70.5125 112.3759
" />
<path d="M70.5125 112.3759
L70.8935 112.3759
" />
<path d="M70.8935 112.3759
L71.0839 112.4711
" />
<path d="M71.0839 112.4711
L71.1792 112.5664
" />
<path d="M71.1792 112.5664
L71.2744 112.7568
" />
<path d="M71.2744 112.7568
L71.2744 113.3283
" />
<path d="M71.2744 113.3283
L71.1792 113.5187
" />
<path d="M71.1792 113.5187
L71.0839 113.6140
" />
<path d="M71.0839 113.6140
L70.8935 113.7092
" />
<path d="M70.8935 113.7092
L70.5125 113.7092
" />
<path d="M70.5125 113.7092
L70.3220 113.6140
" />
<path d="M72.4173 113.7092
L72.2268 113.6140
" />
<path d="M72.2268 113.6140
L72.1316 113.4235
" />
<path d="M72.1316 113.4235
L72.1316 111.7092
" />
<path d="M74.0363 113.7092
L74.0363 112.6616
" />
<path d="M74.0363 112.6616
L73.9411 112.4711
" />
<path d="M73.9411 112.4711
L73.7506 112.3759
" />
<path d="M73.7506 112.3759
L73.3696 112.3759
" />
<path d="M73.3696 112.3759
L73.1792 112.4711
" />
<path d="M74.0363 113.6140
L73.8458 113.7092
" />
<path d="M73.8458 113.7092
L73.3696 113.7092
" />
<path d="M73.3696 113.7092
L73.1792 113.6140
" />
<path d="M73.1792 113.6140
L73.0839 113.4235
" />
<path d="M73.0839 113.4235
L73.0839 113.2330
" />
<path d="M73.0839 113.2330
L73.1792 113.0426
" />
<path d="M73.1792 113.0426
L73.3696 112.9473
" />
<path d="M73.3696 112.9473
L73.8458 112.9473
" />
<path d="M73.8458 112.9473
L74.0363 112.8521
" />
<path d="M74.7030 112.3759
L75.4649 112.3759
" />
<path d="M74.9887 111.7092
L74.9887 113.4235
" />
<path d="M74.9887 113.4235
L75.0839 113.6140
" />
<path d="M75.0839 113.6140
L75.2744 113.7092
" />
<path d="M75.2744 113.7092
L75.4649 113.7092
" />
<path d="M76.8935 113.6140
L76.7030 113.7092
" />
<path d="M76.7030 113.7092
L76.3220 113.7092
" />
<path d="M76.3220 113.7092
L76.1316 113.6140
" />
<path d="M76.1316 113.6140
L76.0363 113.4235
" />
<path d="M76.0363 113.4235
L76.0363 112.6616
" />
<path d="M76.0363 112.6616
L76.1316 112.4711
" />
<path d="M76.1316 112.4711
L76.3220 112.3759
" />
<path d="M76.3220 112.3759
L76.7030 112.3759
" />
<path d="M76.7030 112.3759
L76.8935 112.4711
" />
<path d="M76.8935 112.4711
L76.9887 112.6616
" />
<path d="M76.9887 112.6616
L76.9887 112.8521
" />
<path d="M76.9887 112.8521
L76.0363 113.0426
" />
<path d="M78.7030 113.7092
L78.7030 111.7092
" />
<path d="M78.7030 113.6140
L78.5125 113.7092
" />
<path d="M78.5125 113.7092
L78.1316 113.7092
" />
<path d="M78.1316 113.7092
L77.9411 113.6140
" />
<path d="M77.9411 113.6140
L77.8458 113.5187
" />
<path d="M77.8458 113.5187
L77.7506 113.3283
" />
<path d="M77.7506 113.3283
L77.7506 112.7568
" />
<path d="M77.7506 112.7568
L77.8458 112.5664
" />
<path d="M77.8458 112.5664
L77.9411 112.4711
" />
<path d="M77.9411 112.4711
L78.1316 112.3759
" />
<path d="M78.1316 112.3759
L78.5125 112.3759
" />
<path d="M78.5125 112.3759
L78.7030 112.4711
" />
<path d="M79.4649 114.4711
L79.5601 114.3759
" />
<path d="M79.5601 114.3759
L79.7506 114.0902
" />
<path d="M79.7506 114.0902
L79.8458 113.8997
" />
<path d="M79.8458 113.8997
L79.9411 113.6140
" />
<path d="M79.9411 113.6140
L80.0363 113.1378
" />
<path d="M80.0363 113.1378
L80.0363 112.7568
" />
<path d="M80.0363 112.7568
L79.9411 112.2806
" />
<path d="M79.9411 112.2806
L79.8458 111.9949
" />
<path d="M79.8458 111.9949
L79.7506 111.8045
" />
<path d="M79.7506 111.8045
L79.5601 111.5187
" />
<path d="M79.5601 111.5187
L79.4649 111.4235
" />
</g></g>
<g style="fill:#000000; fill-opacity:0.0; 
stroke:#000000; stroke-width:0.2000; stroke-opacity:1; 
stroke-linecap:round; stroke-linejoin:round;">
<path d="M9.0000 114.9944
L9.0000 116.9944
" />
<path d="M8.0000 115.9944
L10.0000 115.9944
" />
</g>
<g style="fill:#000000; fill-opacity:0.0; 
stroke:#000000; stroke-width:0.5125; stroke-opacity:1; 
stroke-linecap:round; stroke-linejoin:round;">
</g>
<g style="fill:#000000; fill-opacity:0.0; 
stroke:#000000; stroke-width:0.2000; stroke-opacity:1; 
stroke-linecap:round; stroke-linejoin:round;">
<text x="12.0000" y="116.9944"
textLength="66.6762" font-size="2.6667" lengthAdjust="spacingAndGlyphs"
text-anchor="start" opacity="0">4.000mm / 0.1575" (5 holes) (not plated)</text>
<g class="stroked-text"><desc>4.000mm / 0.1575" (5 holes) (not plated)</desc>
<path d="M13.4649 115.5759
L13.4649 116.9092
" />
<path d="M12.9887 114.8140
L12.5125 116.2426
" />
<path d="M12.5125 116.2426
L13.7506 116.2426
" />
<path d="M14.5125 116.7187
L14.6078 116.8140
" />
<path d="M14.6078 116.8140
L14.5125 116.9092
" />
<path d="M14.5125 116.9092
L14.4173 116.8140
" />
<path d="M14.4173 116.8140
L14.5125 116.7187
" />
<path d="M14.5125 116.7187
L14.5125 116.9092
" />
<path d="M15.8459 114.9092
L16.0363 114.9092
" />
<path d="M16.0363 114.9092
L16.2268 115.0045
" />
<path d="M16.2268 115.0045
L16.3220 115.0997
" />
<path d="M16.3220 115.0997
L16.4173 115.2902
" />
<path d="M16.4173 115.2902
L16.5125 115.6711
" />
<path d="M16.5125 115.6711
L16.5125 116.1473
" />
<path d="M16.5125 116.1473
L16.4173 116.5283
" />
<path d="M16.4173 116.5283
L16.3220 116.7187
" />
<path d="M16.3220 116.7187
L16.2268 116.8140
" />
<path d="M16.2268 116.8140
L16.0363 116.9092
" />
<path d="M16.0363 116.9092
L15.8459 116.9092
" />
<path d="M15.8459 116.9092
L15.6554 116.8140
" />
<path d="M15.6554 116.8140
L15.5601 116.7187
" />
<path d="M15.5601 116.7187
L15.4649 116.5283
" />
<path d="M15.4649 116.5283
L15.3697 116.1473
" />
<path d="M15.3697 116.1473
L15.3697 115.6711
" />
<path d="M15.3697 115.6711
L15.4649 115.2902
" />
<path d="M15.4649 115.2902
L15.5601 115.0997
" />
<path d="M15.5601 115.0997
L15.6554 115.0045
" />
<path d="M15.6554 115.0045
L15.8459 114.9092
" />
<path d="M17.7506 114.9092
L17.9411 114.9092
" />
<path d="M17.9411 114.9092
L18.1316 115.0045
" />
<path d="M18.1316 115.0045
L18.2268 115.0997
" />
<path d="M18.2268 115.0997
L18.3220 115.2902
" />
<path d="M18.3220 115.2902
L18.4173 115.6711
" />
<path d="M18.4173 115.6711
L18.4173 116.1473
" />
<path d="M18.4173 116.1473
L18.3220 116.5283
" />
<path d="M18.3220 116.5283
L18.2268 116.7187
" />
<path d="M18.2268 116.7187
L18.1316 116.8140
" />
<path d="M18.1316 116.8140
L17.9411 116.9092
" />
<path d="M17.9411 116.9092
L17.7506 116.9092
" />
<path d="M17.7506 116.9092
L17.5601 116.8140
" />
<path d="M17.5601 116.8140
L17.4649 116.7187
" />
<path d="M17.4649 116.7187
L17.3697 116.5283
" />
<path d="M17.3697 116.5283
L17.2744 116.1473
" />
<path d="M17.2744 116.1473
L17.2744 115.6711
" />
<path d="M17.2744 115.6711
L17.3697 115.2902
" />
<path d="M17.3697 115.2902
L17.4649 115.0997
" />
<path d="M17.4649 115.0997
L17.5601 115.0045
" />
<path d="M17.5601 115.0045
L17.7506 114.9092
" />
<path d="M19.6554 114.9092
L19.8459 114.9092
" />
<path d="M19.8459 114.9092
L20.0363 115.0045
" />
<path d="M20.0363 115.0045
L20.1316 115.0997
" />
<path d="M20.1316 115.0997
L20.2268 115.2902
" />
<path d="M20.2268 115.2902
L20.3220 115.6711
" />
<path d="M20.3220 115.6711
L20.3220 116.1473
" />
<path d="M20.3220 116.1473
L20.2268 116.5283
" />
<path d="M20.2268 116.5283
L20.1316 116.7187
" />
<path d="M20.1316 116.7187
L20.0363 116.8140
" />
<path d="M20.0363 116.8140
L19.8459 116.9092
" />
<path d="M19.8459 116.9092
L19.6554 116.9092
" />
<path d="M19.6554 116.9092
L19.4649 116.8140
" />
<path d="M19.4649 116.8140
L19.3697 116.7187
" />
<path d="M19.3697 116.7187
L19.2744 116.5283
" />
<path d="M19.2744 116.5283
L19.1792 116.1473
" />
<path d="M19.1792 116.1473
L19.1792 115.6711
" />
<path d="M19.1792 115.6711
L19.2744 115.2902
" />
<path d="M19.2744 115.2902
L19.3697 115.0997
" />
<path d="M19.3697 115.0997
L19.4649 115.0045
" />
<path d="M19.4649 115.0045
L19.6554 114.9092
" />
<path d="M21.1792 116.9092
L21.1792 115.5759
" />
<path d="M21.1792 115.7664
L21.2744 115.6711
" />
<path d="M21.2744 115.6711
L21.4649 115.5759
" />
<path d="M21.4649 115.5759
L21.7506 115.5759
" />
<path d="M21.7506 115.5759
L21.9411 115.6711
" />
<path d="M21.9411 115.6711
L22.0363 115.8616
" />
<path d="M22.0363 115.8616
L22.0363 116.9092
" />
<path d="M22.0363 115.8616
L22.1316 115.6711
" />
<path d="M22.1316 115.6711
L22.3220 115.5759
" />
<path d="M22.3220 115.5759
L22.6078 115.5759
" />
<path d="M22.6078 115.5759
L22.7982 115.6711
" />
<path d="M22.7982 115.6711
L22.8935 115.8616
" />
<path d="M22.8935 115.8616
L22.8935 116.9092
" />
<path d="M23.8459 116.9092
L23.8459 115.5759
" />
<path d="M23.8459 115.7664
L23.9411 115.6711
" />
<path d="M23.9411 115.6711
L24.1316 115.5759
" />
<path d="M24.1316 115.5759
L24.4173 115.5759
" />
<path d="M24.4173 115.5759
L24.6078 115.6711
" />
<path d="M24.6078 115.6711
L24.7030 115.8616
" />
<path d="M24.7030 115.8616
L24.7030 116.9092
" />
<path d="M24.7030 115.8616
L24.7982 115.6711
" />
<path d="M24.7982 115.6711
L24.9887 115.5759
" />
<path d="M24.9887 115.5759
L25.2744 115.5759
" />
<path d="M25.2744 115.5759
L25.4649 115.6711
" />
<path d="M25.4649 115.6711
L25.5601 115.8616
" />
<path d="M25.5601 115.8616
L25.5601 116.9092
" />
<path d="M29.4649 114.8140
L27.7506 117.3854
" />
<path d="M32.0363 114.9092
L32.2268 114.9092
" />
<path d="M32.2268 114.9092
L32.4173 115.0045
" />
<path d="M32.4173 115.0045
L32.5125 115.0997
" />
<path d="M32.5125 115.0997
L32.6078 115.2902
" />
<path d="M32.6078 115.2902
L32.7030 115.6711
" />
<path d="M32.7030 115.6711
L32.7030 116.1473
" />
<path d="M32.7030 116.1473
L32.6078 116.5283
" />
<path d="M32.6078 116.5283
L32.5125 116.7187
" />
<path d="M32.5125 116.7187
L32.4173 116.8140
" />
<path d="M32.4173 116.8140
L32.2268 116.9092
" />
<path d="M32.2268 116.9092
L32.0363 116.9092
" />
<path d="M32.0363 116.9092
L31.8459 116.8140
" />
<path d="M31.8459 116.8140
L31.7506 116.7187
" />
<path d="M31.7506 116.7187
L31.6554 116.5283
" />
<path d="M31.6554 116.5283
L31.5601 116.1473
" />
<path d="M31.5601 116.1473
L31.5601 115.6711
" />
<path d="M31.5601 115.6711
L31.6554 115.2902
" />
<path d="M31.6554 115.2902
L31.7506 115.0997
" />
<path d="M31.7506 115.0997
L31.8459 115.0045
" />
<path d="M31.8459 115.0045
L32.0363 114.9092
" />
<path d="M33.5601 116.7187
L33.6554 116.8140
" />
<path d="M33.6554 116.8140
L33.5601 116.9092
" />
<path d="M33.5601 116.9092
L33.4649 116.8140
" />
<path d="M33.4649 116.8140
L33.5601 116.7187
" />
<path d="M33.5601 116.7187
L33.5601 116.9092
" />
<path d="M35.5601 116.9092
L34.4173 116.9092
" />
<path d="M34.9887 116.9092
L34.9887 114.9092
" />
<path d="M34.9887 114.9092
L34.7982 115.1949
" />
<path d="M34.7982 115.1949
L34.6078 115.3854
" />
<path d="M34.6078 115.3854
L34.4173 115.4806
" />
<path d="M37.3697 114.9092
L36.4173 114.9092
" />
<path d="M36.4173 114.9092
L36.3220 115.8616
" />
<path d="M36.3220 115.8616
L36.4173 115.7664
" />
<path d="M36.4173 115.7664
L36.6078 115.6711
" />
<path d="M36.6078 115.6711
L37.0839 115.6711
" />
<path d="M37.0839 115.6711
L37.2744 115.7664
" />
<path d="M37.2744 115.7664
L37.3697 115.8616
" />
<path d="M37.3697 115.8616
L37.4649 116.0521
" />
<path d="M37.4649 116.0521
L37.4649 116.5283
" />
<path d="M37.4649 116.5283
L37.3697 116.7187
" />
<path d="M37.3697 116.7187
L37.2744 116.8140
" />
<path d="M37.2744 116.8140
L37.0839 116.9092
" />
<path d="M37.0839 116.9092
L36.6078 116.9092
" />
<path d="M36.6078 116.9092
L36.4173 116.8140
" />
<path d="M36.4173 116.8140
L36.3220 116.7187
" />
<path d="M38.1316 114.9092
L39.4649 114.9092
" />
<path d="M39.4649 114.9092
L38.6077 116.9092
" />
<path d="M41.1792 114.9092
L40.2268 114.9092
" />
<path d="M40.2268 114.9092
L40.1316 115.8616
" />
<path d="M40.1316 115.8616
L40.2268 115.7664
" />
<path d="M40.2268 115.7664
L40.4173 115.6711
" />
<path d="M40.4173 115.6711
L40.8935 115.6711
" />
<path d="M40.8935 115.6711
L41.0839 115.7664
" />
<path d="M41.0839 115.7664
L41.1792 115.8616
" />
<path d="M41.1792 115.8616
L41.2744 116.0521
" />
<path d="M41.2744 116.0521
L41.2744 116.5283
" />
<path d="M41.2744 116.5283
L41.1792 116.7187
" />
<path d="M41.1792 116.7187
L41.0839 116.8140
" />
<path d="M41.0839 116.8140
L40.8935 116.9092
" />
<path d="M40.8935 116.9092
L40.4173 116.9092
" />
<path d="M40.4173 116.9092
L40.2268 116.8140
" />
<path d="M40.2268 116.8140
L40.1316 116.7187
" />
<path d="M42.0363 114.9092
L42.0363 115.2902
" />
<path d="M42.7982 114.9092
L42.7982 115.2902
" />
<path d="M45.7506 117.6711
L45.6554 117.5759
" />
<path d="M45.6554 117.5759
L45.4649 117.2902
" />
<path d="M45.4649 117.2902
L45.3697 117.0997
" />
<path d="M45.3697 117.0997
L45.2744 116.8140
" />
<path d="M45.2744 116.8140
L45.1792 116.3378
" />
<path d="M45.1792 116.3378
L45.1792 115.9568
" />
<path d="M45.1792 115.9568
L45.2744 115.4806
" />
<path d="M45.2744 115.4806
L45.3697 115.1949
" />
<path d="M45.3697 115.1949
L45.4649 115.0045
" />
<path d="M45.4649 115.0045
L45.6554 114.7187
" />
<path d="M45.6554 114.7187
L45.7506 114.6235
" />
<path d="M47.4649 114.9092
L46.5125 114.9092
" />
<path d="M46.5125 114.9092
L46.4173 115.8616
" />
<path d="M46.4173 115.8616
L46.5125 115.7664
" />
<path d="M46.5125 115.7664
L46.7030 115.6711
" />
<path d="M46.7030 115.6711
L47.1792 115.6711
" />
<path d="M47.1792 115.6711
L47.3697 115.7664
" />
<path d="M47.3697 115.7664
L47.4649 115.8616
" />
<path d="M47.4649 115.8616
L47.5601 116.0521
" />
<path d="M47.5601 116.0521
L47.5601 116.5283
" />
<path d="M47.5601 116.5283
L47.4649 116.7187
" />
<path d="M47.4649 116.7187
L47.3697 116.8140
" />
<path d="M47.3697 116.8140
L47.1792 116.9092
" />
<path d="M47.1792 116.9092
L46.7030 116.9092
" />
<path d="M46.7030 116.9092
L46.5125 116.8140
" />
<path d="M46.5125 116.8140
L46.4173 116.7187
" />
<path d="M49.9411 116.9092
L49.9411 114.9092
" />
<path d="M50.7982 116.9092
L50.7982 115.8616
" />
<path d="M50.7982 115.8616
L50.7030 115.6711
" />
<path d="M50.7030 115.6711
L50.5125 115.5759
" />
<path d="M50.5125 115.5759
L50.2268 115.5759
" />
<path d="M50.2268 115.5759
L50.0363 115.6711
" />
<path d="M50.0363 115.6711
L49.9411 115.7664
" />
<path d="M52.0363 116.9092
L51.8458 116.8140
" />
<path d="M51.8458 116.8140
L51.7506 116.7187
" />
<path d="M51.7506 116.7187
L51.6554 116.5283
" />
<path d="M51.6554 116.5283
L51.6554 115.9568
" />
<path d="M51.6554 115.9568
L51.7506 115.7664
" />
<path d="M51.7506 115.7664
L51.8458 115.6711
" />
<path d="M51.8458 115.6711
L52.0363 115.5759
" />
<path d="M52.0363 115.5759
L52.3220 115.5759
" />
<path d="M52.3220 115.5759
L52.5125 115.6711
" />
<path d="M52.5125 115.6711
L52.6077 115.7664
" />
<path d="M52.6077 115.7664
L52.7030 115.9568
" />
<path d="M52.7030 115.9568
L52.7030 116.5283
" />
<path d="M52.7030 116.5283
L52.6077 116.7187
" />
<path d="M52.6077 116.7187
L52.5125 116.8140
" />
<path d="M52.5125 116.8140
L52.3220 116.9092
" />
<path d="M52.3220 116.9092
L52.0363 116.9092
" />
<path d="M53.8458 116.9092
L53.6554 116.8140
" />
<path d="M53.6554 116.8140
L53.5601 116.6235
" />
<path d="M53.5601 116.6235
L53.5601 114.9092
" />
<path d="M55.3697 116.8140
L55.1792 116.9092
" />
<path d="M55.1792 116.9092
L54.7982 116.9092
" />
<path d="M54.7982 116.9092
L54.6077 116.8140
" />
<path d="M54.6077 116.8140
L54.5125 116.6235
" />
<path d="M54.5125 116.6235
L54.5125 115.8616
" />
<path d="M54.5125 115.8616
L54.6077 115.6711
" />
<path d="M54.6077 115.6711
L54.7982 115.5759
" />
<path d="M54.7982 115.5759
L55.1792 115.5759
" />
<path d="M55.1792 115.5759
L55.3697 115.6711
" />
<path d="M55.3697 115.6711
L55.4649 115.8616
" />
<path d="M55.4649 115.8616
L55.4649 116.0521
" />
<path d="M55.4649 116.0521
L54.5125 116.2426
" />
<path d="M56.2268 116.8140
L56.4173 116.9092
" />
<path d="M56.4173 116.9092
L56.7982 116.9092
" />
<path d="M56.7982 116.9092
L56.9887 116.8140
" />
<path d="M56.9887 116.8140
L57.0839 116.6235
" />
<path d="M57.0839 116.6235
L57.0839 116.5283
" />
<path d="M57.0839 116.5283
L56.9887 116.3378
" />
<path d="M56.9887 116.3378
L56.7982 116.2426
" />
<path d="M56.7982 116.2426
L56.5125 116.2426
" />
<path d="M56.5125 116.2426
L56.3220 116.1473
" />
<path d="M56.3220 116.1473
L56.2268 115.9568
" />
<path d="M56.2268 115.9568
L56.2268 115.8616
" />
<path d="M56.2268 115.8616
L56.3220 115.6711
" />
<path d="M56.3220 115.6711
L56.5125 115.5759
" />
<path d="M56.5125 115.5759
L56.7982 115.5759
" />
<path d="M56.7982 115.5759
L56.9887 115.6711
" />
<path d="M57.7506 117.6711
L57.8458 117.5759
" />
<path d="M57.8458 117.5759
L58.0363 117.2902
" />
<path d="M58.0363 117.2902
L58.1316 117.0997
" />
<path d="M58.1316 117.0997
L58.2268 116.8140
" />
<path d="M58.2268 116.8140
L58.3220 116.3378
" />
<path d="M58.3220 116.3378
L58.3220 115.9568
" />
<path d="M58.3220 115.9568
L58.2268 115.4806
" />
<path d="M58.2268 115.4806
L58.1316 115.1949
" />
<path d="M58.1316 115.1949
L58.0363 115.0045
" />
<path d="M58.0363 115.0045
L57.8458 114.7187
" />
<path d="M57.8458 114.7187
L57.7506 114.6235
" />
<path d="M61.3697 117.6711
L61.2744 117.5759
" />
<path d="M61.2744 117.5759
L61.0839 117.2902
" />
<path d="M61.0839 117.2902
L60.9887 117.0997
" />
<path d="M60.9887 117.0997
L60.8935 116.8140
" />
<path d="M60.8935 116.8140
L60.7982 116.3378
" />
<path d="M60.7982 116.3378
L60.7982 115.9568
" />
<path d="M60.7982 115.9568
L60.8935 115.4806
" />
<path d="M60.8935 115.4806
L60.9887 115.1949
" />
<path d="M60.9887 115.1949
L61.0839 115.0045
" />
<path d="M61.0839 115.0045
L61.2744 114.7187
" />
<path d="M61.2744 114.7187
L61.3697 114.6235
" />
<path d="M62.1316 115.5759
L62.1316 116.9092
" />
<path d="M62.1316 115.7664
L62.2268 115.6711
" />
<path d="M62.2268 115.6711
L62.4173 115.5759
" />
<path d="M62.4173 115.5759
L62.7030 115.5759
" />
<path d="M62.7030 115.5759
L62.8935 115.6711
" />
<path d="M62.8935 115.6711
L62.9887 115.8616
" />
<path d="M62.9887 115.8616
L62.9887 116.9092
" />
<path d="M64.2268 116.9092
L64.0363 116.8140
" />
<path d="M64.0363 116.8140
L63.9411 116.7187
" />
<path d="M63.9411 116.7187
L63.8458 116.5283
" />
<path d="M63.8458 116.5283
L63.8458 115.9568
" />
<path d="M63.8458 115.9568
L63.9411 115.7664
" />
<path d="M63.9411 115.7664
L64.0363 115.6711
" />
<path d="M64.0363 115.6711
L64.2268 115.5759
" />
<path d="M64.2268 115.5759
L64.5125 115.5759
" />
<path d="M64.5125 115.5759
L64.7030 115.6711
" />
<path d="M64.7030 115.6711
L64.7982 115.7664
" />
<path d="M64.7982 115.7664
L64.8935 115.9568
" />
<path d="M64.8935 115.9568
L64.8935 116.5283
" />
<path d="M64.8935 116.5283
L64.7982 116.7187
" />
<path d="M64.7982 116.7187
L64.7030 116.8140
" />
<path d="M64.7030 116.8140
L64.5125 116.9092
" />
<path d="M64.5125 116.9092
L64.2268 116.9092
" />
<path d="M65.4649 115.5759
L66.2268 115.5759
" />
<path d="M65.7506 114.9092
L65.7506 116.6235
" />
<path d="M65.7506 116.6235
L65.8458 116.8140
" />
<path d="M65.8458 116.8140
L66.0363 116.9092
" />
<path d="M66.0363 116.9092
L66.2268 116.9092
" />
<path d="M68.4173 115.5759
L68.4173 117.5759
" />
<path d="M68.4173 115.6711
L68.6077 115.5759
" />
<path d="M68.6077 115.5759
L68.9887 115.5759
" />
<path d="M68.9887 115.5759
L69.1792 115.6711
" />
<path d="M69.1792 115.6711
L69.2744 115.7664
" />
<path d="M69.2744 115.7664
L69.3697 115.9568
" />
<path d="M69.3697 115.9568
L69.3697 116.5283
" />
<path d="M69.3697 116.5283
L69.2744 116.7187
" />
<path d="M69.2744 116.7187
L69.1792 116.8140
" />
<path d="M69.1792 116.8140
L68.9887 116.9092
" />
<path d="M68.9887 116.9092
L68.6077 116.9092
" />
<path d="M68.6077 116.9092
L68.4173 116.8140
" />
<path d="M70.5125 116.9092
L70.3220 116.8140
" />
<path d="M70.3220 116.8140
L70.2268 116.6235
" />
<path d="M70.2268 116.6235
L70.2268 114.9092
" />
<path d="M72.1316 116.9092
L72.1316 115.8616
" />
<path d="M72.1316 115.8616
L72.0363 115.6711
" />
<path d="M72.0363 115.6711
L71.8458 115.5759
" />
<path d="M71.8458 115.5759
L71.4649 115.5759
" />
<path d="M71.4649 115.5759
L71.2744 115.6711
" />
<path d="M72.1316 116.8140
L71.9411 116.9092
" />
<path d="M71.9411 116.9092
L71.4649 116.9092
" />
<path d="M71.4649 116.9092
L71.2744 116.8140
" />
<path d="M71.2744 116.8140
L71.1792 116.6235
" />
<path d="M71.1792 116.6235
L71.1792 116.4330
" />
<path d="M71.1792 116.4330
L71.2744 116.2426
" />
<path d="M71.2744 116.2426
L71.4649 116.1473
" />
<path d="M71.4649 116.1473
L71.9411 116.1473
" />
<path d="M71.9411 116.1473
L72.1316 116.0521
" />
<path d="M72.7982 115.5759
L73.5601 115.5759
" />
<path d="M73.0839 114.9092
L73.0839 116.6235
" />
<path d="M73.0839 116.6235
L73.1792 116.8140
" />
<path d="M73.1792 116.8140
L73.3696 116.9092
" />
<path d="M73.3696 116.9092
L73.5601 116.9092
" />
<path d="M74.9887 116.8140
L74.7982 116.9092
" />
<path d="M74.7982 116.9092
L74.4173 116.9092
" />
<path d="M74.4173 116.9092
L74.2268 116.8140
" />
<path d="M74.2268 116.8140
L74.1316 116.6235
" />
<path d="M74.1316 116.6235
L74.1316 115.8616
" />
<path d="M74.1316 115.8616
L74.2268 115.6711
" />
<path d="M74.2268 115.6711
L74.4173 115.5759
" />
<path d="M74.4173 115.5759
L74.7982 115.5759
" />
<path d="M74.7982 115.5759
L74.9887 115.6711
" />
<path d="M74.9887 115.6711
L75.0839 115.8616
" />
<path d="M75.0839 115.8616
L75.0839 116.0521
" />
<path d="M75.0839 116.0521
L74.1316 116.2426
" />
<path d="M76.7982 116.9092
L76.7982 114.9092
" />
<path d="M76.7982 116.8140
L76.6077 116.9092
" />
<path d="M76.6077 116.9092
L76.2268 116.9092
" />
<path d="M76.2268 116.9092
L76.0363 116.8140
" />
<path d="M76.0363 116.8140
L75.9411 116.7187
" />
<path d="M75.9411 116.7187
L75.8458 116.5283
" />
<path d="M75.8458 116.5283
L75.8458 115.9568
" />
<path d="M75.8458 115.9568
L75.9411 115.7664
" />
<path d="M75.9411 115.7664
L76.0363 115.6711
" />
<path d="M76.0363 115.6711
L76.2268 115.5759
" />
<path d="M76.2268 115.5759
L76.6077 115.5759
" />
<path d="M76.6077 115.5759
L76.7982 115.6711
" />
<path d="M77.5601 117.6711
L77.6554 117.5759
" />
<path d="M77.6554 117.5759
L77.8458 117.2902
" />
<path d="M77.8458 117.2902
L77.9411 117.0997
" />
<path d="M77.9411 117.0997
L78.0363 116.8140
" />
<path d="M78.0363 116.8140
L78.1316 116.3378
" />
<path d="M78.1316 116.3378
L78.1316 115.9568
" />
<path d="M78.1316 115.9568
L78.0363 115.4806
" />
<path d="M78.0363 115.4806
L77.9411 115.1949
" />
<path d="M77.9411 115.1949
L77.8458 115.0045
" />
<path d="M77.8458 115.0045
L77.6554 114.7187
" />
<path d="M77.6554 114.7187
L77.5601 114.6235
" />
</g></g> 
</svg>
