M48
; DRILL file {KiCad 7.0.6} date Fri Oct 13 04:00:29 2023
; FORMAT={-:-/ absolute / inch / decimal}
; #@! TF.CreationDate,2023-10-13T04:00:29-07:00
; #@! TF.GenerationSoftware,Kicad,Pcbnew,7.0.6
; #@! TF.FileFunction,NonPlated,1,2,NPTH
FMAT,2
INCH
; #@! TA.AperFunction,NonPlated,NPTH,ComponentDrill
T1C0.0413
; #@! TA.AperFunction,NonPlated,NPTH,ComponentDrill
T2C0.0669
; #@! TA.AperFunction,NonPlated,NPTH,ComponentDrill
T3C0.1575
%
G90
G05
T1
X-3.276Y-0.1906
X-3.276Y-0.9906
X-3.176Y-0.1906
X-3.176Y-0.9906
X-3.076Y-0.1906
X-3.076Y-0.9906
X-2.976Y-0.1906
X-2.976Y-0.9906
X-2.876Y-0.1906
X-2.876Y-0.9906
X-2.776Y-0.1906
X-2.776Y-0.9906
X-2.676Y-0.1906
X-2.676Y-0.9906
X-2.576Y-0.1906
X-2.576Y-0.9906
X-2.476Y-0.1906
X-2.476Y-0.9906
X-2.376Y-0.1906
X-2.376Y-0.9906
X-2.276Y-0.1906
X-2.276Y-0.9906
X-2.176Y-0.1906
X-2.176Y-0.9906
T2
X-3.826Y-0.5906
X-3.426Y-0.5906
X-3.076Y-0.5906
X-2.676Y-0.5906
X-2.326Y-0.5906
X-1.926Y-0.5906
X-1.576Y-0.5906
X-1.176Y-0.5906
X-0.826Y-0.5906
X-0.426Y-0.5906
T3
X-3.626Y-0.5906
X-2.876Y-0.5906
X-2.126Y-0.5906
X-1.376Y-0.5906
X-0.626Y-0.5906
T0
M30
