%TF.GenerationSoftware,KiCad,Pcbnew,9.0.1*%
%TF.CreationDate,2025-07-06T22:17:40-07:00*%
%TF.ProjectId,pcb,7063622e-6b69-4636-9164-5f7063625858,rev?*%
%TF.SameCoordinates,Original*%
%TF.FileFunction,Soldermask,Bot*%
%TF.FilePolarity,Negative*%
%FSLAX46Y46*%
G04 Gerber Fmt 4.6, Leading zero omitted, Abs format (unit mm)*
G04 Created by KiCad (PCBNEW 9.0.1) date 2025-07-06 22:17:40*
%MOMM*%
%LPD*%
G01*
G04 APERTURE LIST*
G04 Aperture macros list*
%AMRoundRect*
0 Rectangle with rounded corners*
0 $1 Rounding radius*
0 $2 $3 $4 $5 $6 $7 $8 $9 X,Y pos of 4 corners*
0 Add a 4 corners polygon primitive as box body*
4,1,4,$2,$3,$4,$5,$6,$7,$8,$9,$2,$3,0*
0 Add four circle primitives for the rounded corners*
1,1,$1+$1,$2,$3*
1,1,$1+$1,$4,$5*
1,1,$1+$1,$6,$7*
1,1,$1+$1,$8,$9*
0 Add four rect primitives between the rounded corners*
20,1,$1+$1,$2,$3,$4,$5,0*
20,1,$1+$1,$4,$5,$6,$7,0*
20,1,$1+$1,$6,$7,$8,$9,0*
20,1,$1+$1,$8,$9,$2,$3,0*%
G04 Aperture macros list end*
%ADD10C,1.500000*%
%ADD11RoundRect,0.225000X0.525000X-0.525000X0.525000X0.525000X-0.525000X0.525000X-0.525000X-0.525000X0*%
%ADD12RoundRect,0.250000X-0.250000X-0.475000X0.250000X-0.475000X0.250000X0.475000X-0.250000X0.475000X0*%
%ADD13RoundRect,0.225000X-0.225000X-0.250000X0.225000X-0.250000X0.225000X0.250000X-0.225000X0.250000X0*%
%ADD14C,2.700000*%
%ADD15C,3.100000*%
%ADD16C,4.500000*%
%ADD17R,1.700000X1.700000*%
%ADD18C,1.700000*%
%ADD19RoundRect,0.200000X-0.200000X-0.275000X0.200000X-0.275000X0.200000X0.275000X-0.200000X0.275000X0*%
%ADD20RoundRect,0.200000X0.275000X-0.200000X0.275000X0.200000X-0.275000X0.200000X-0.275000X-0.200000X0*%
%ADD21RoundRect,0.200000X0.200000X0.275000X-0.200000X0.275000X-0.200000X-0.275000X0.200000X-0.275000X0*%
%ADD22RoundRect,0.243750X-0.243750X-0.456250X0.243750X-0.456250X0.243750X0.456250X-0.243750X0.456250X0*%
%ADD23RoundRect,0.243750X0.243750X0.456250X-0.243750X0.456250X-0.243750X-0.456250X0.243750X-0.456250X0*%
%ADD24RoundRect,0.150000X-0.850000X-0.150000X0.850000X-0.150000X0.850000X0.150000X-0.850000X0.150000X0*%
G04 APERTURE END LIST*
D10*
%TO.C,U3*%
X147790000Y-82590000D03*
X150330000Y-82590000D03*
X152870000Y-82590000D03*
X155410000Y-82590000D03*
X157950000Y-82590000D03*
X157950000Y-90210000D03*
X155410000Y-90210000D03*
X152870000Y-90210000D03*
X150330000Y-90210000D03*
D11*
X147790000Y-90210000D03*
%TD*%
D12*
%TO.C,C2*%
X138204000Y-98592000D03*
X140104000Y-98592000D03*
%TD*%
D13*
%TO.C,C1*%
X139929000Y-100370000D03*
X138379000Y-100370000D03*
%TD*%
D14*
%TO.C,H2*%
X150250000Y-118500000D03*
%TD*%
D15*
%TO.C,H3*%
X156800000Y-94500000D03*
D16*
X156800000Y-94500000D03*
%TD*%
D11*
%TO.C,U2*%
X132550000Y-90210000D03*
D10*
X135090000Y-90210000D03*
X137630000Y-90210000D03*
X140170000Y-90210000D03*
X142710000Y-90210000D03*
X142710000Y-82590000D03*
X140170000Y-82590000D03*
X137630000Y-82590000D03*
X135090000Y-82590000D03*
X132550000Y-82590000D03*
%TD*%
D17*
%TO.C,J1*%
X133480000Y-96260000D03*
D18*
X133480000Y-98800000D03*
X136020000Y-96260000D03*
X136020000Y-98800000D03*
%TD*%
D15*
%TO.C,H4*%
X132800000Y-118000000D03*
D16*
X132800000Y-118000000D03*
%TD*%
D14*
%TO.C,H1*%
X133700000Y-86100000D03*
%TD*%
D19*
%TO.C,R7*%
X138710000Y-108371000D03*
X140360000Y-108371000D03*
%TD*%
D20*
%TO.C,R4*%
X150330000Y-113260000D03*
X150330000Y-111610000D03*
%TD*%
D21*
%TO.C,R8*%
X154965000Y-108879000D03*
X153315000Y-108879000D03*
%TD*%
D22*
%TO.C,D4*%
X150027500Y-103291000D03*
X151902500Y-103291000D03*
%TD*%
D19*
%TO.C,R10*%
X138202000Y-104180000D03*
X139852000Y-104180000D03*
%TD*%
D21*
%TO.C,R9*%
X154965000Y-103545000D03*
X153315000Y-103545000D03*
%TD*%
D19*
%TO.C,R5*%
X138710000Y-111419000D03*
X140360000Y-111419000D03*
%TD*%
D23*
%TO.C,D1*%
X140472500Y-106593000D03*
X138597500Y-106593000D03*
%TD*%
D22*
%TO.C,D2*%
X150027500Y-101386000D03*
X151902500Y-101386000D03*
%TD*%
D24*
%TO.C,U1*%
X142750000Y-111165000D03*
X142750000Y-109895000D03*
X142750000Y-108625000D03*
X142750000Y-107355000D03*
X142750000Y-106085000D03*
X142750000Y-104815000D03*
X142750000Y-103545000D03*
X142750000Y-102275000D03*
X147750000Y-102275000D03*
X147750000Y-103545000D03*
X147750000Y-104815000D03*
X147750000Y-106085000D03*
X147750000Y-107355000D03*
X147750000Y-108625000D03*
X147750000Y-109895000D03*
X147750000Y-111165000D03*
%TD*%
D21*
%TO.C,R2*%
X154965000Y-107355000D03*
X153315000Y-107355000D03*
%TD*%
%TO.C,R3*%
X151790000Y-109895000D03*
X150140000Y-109895000D03*
%TD*%
D19*
%TO.C,R6*%
X138710000Y-109895000D03*
X140360000Y-109895000D03*
%TD*%
D21*
%TO.C,R1*%
X154965000Y-105831000D03*
X153315000Y-105831000D03*
%TD*%
D22*
%TO.C,D3*%
X150027500Y-105450000D03*
X151902500Y-105450000D03*
%TD*%
M02*
