%TF.GenerationSoftware,KiCad,Pcbnew,9.0.1*%
%TF.CreationDate,2025-07-06T22:17:40-07:00*%
%TF.ProjectId,pcb,7063622e-6b69-4636-9164-5f7063625858,rev?*%
%TF.SameCoordinates,Original*%
%TF.FileFunction,Legend,Bot*%
%TF.FilePolarity,Positive*%
%FSLAX46Y46*%
G04 Gerber Fmt 4.6, Leading zero omitted, Abs format (unit mm)*
G04 Created by KiCad (PCBNEW 9.0.1) date 2025-07-06 22:17:40*
%MOMM*%
%LPD*%
G01*
G04 APERTURE LIST*
%ADD10C,0.150000*%
%ADD11C,0.120000*%
G04 APERTURE END LIST*
D10*
X139320666Y-97300580D02*
X139368285Y-97348200D01*
X139368285Y-97348200D02*
X139511142Y-97395819D01*
X139511142Y-97395819D02*
X139606380Y-97395819D01*
X139606380Y-97395819D02*
X139749237Y-97348200D01*
X139749237Y-97348200D02*
X139844475Y-97252961D01*
X139844475Y-97252961D02*
X139892094Y-97157723D01*
X139892094Y-97157723D02*
X139939713Y-96967247D01*
X139939713Y-96967247D02*
X139939713Y-96824390D01*
X139939713Y-96824390D02*
X139892094Y-96633914D01*
X139892094Y-96633914D02*
X139844475Y-96538676D01*
X139844475Y-96538676D02*
X139749237Y-96443438D01*
X139749237Y-96443438D02*
X139606380Y-96395819D01*
X139606380Y-96395819D02*
X139511142Y-96395819D01*
X139511142Y-96395819D02*
X139368285Y-96443438D01*
X139368285Y-96443438D02*
X139320666Y-96491057D01*
X138939713Y-96491057D02*
X138892094Y-96443438D01*
X138892094Y-96443438D02*
X138796856Y-96395819D01*
X138796856Y-96395819D02*
X138558761Y-96395819D01*
X138558761Y-96395819D02*
X138463523Y-96443438D01*
X138463523Y-96443438D02*
X138415904Y-96491057D01*
X138415904Y-96491057D02*
X138368285Y-96586295D01*
X138368285Y-96586295D02*
X138368285Y-96681533D01*
X138368285Y-96681533D02*
X138415904Y-96824390D01*
X138415904Y-96824390D02*
X138987332Y-97395819D01*
X138987332Y-97395819D02*
X138368285Y-97395819D01*
X139320666Y-102159580D02*
X139368285Y-102207200D01*
X139368285Y-102207200D02*
X139511142Y-102254819D01*
X139511142Y-102254819D02*
X139606380Y-102254819D01*
X139606380Y-102254819D02*
X139749237Y-102207200D01*
X139749237Y-102207200D02*
X139844475Y-102111961D01*
X139844475Y-102111961D02*
X139892094Y-102016723D01*
X139892094Y-102016723D02*
X139939713Y-101826247D01*
X139939713Y-101826247D02*
X139939713Y-101683390D01*
X139939713Y-101683390D02*
X139892094Y-101492914D01*
X139892094Y-101492914D02*
X139844475Y-101397676D01*
X139844475Y-101397676D02*
X139749237Y-101302438D01*
X139749237Y-101302438D02*
X139606380Y-101254819D01*
X139606380Y-101254819D02*
X139511142Y-101254819D01*
X139511142Y-101254819D02*
X139368285Y-101302438D01*
X139368285Y-101302438D02*
X139320666Y-101350057D01*
X138368285Y-102254819D02*
X138939713Y-102254819D01*
X138653999Y-102254819D02*
X138653999Y-101254819D01*
X138653999Y-101254819D02*
X138749237Y-101397676D01*
X138749237Y-101397676D02*
X138844475Y-101492914D01*
X138844475Y-101492914D02*
X138939713Y-101540533D01*
X138010904Y-84949819D02*
X138010904Y-83949819D01*
X138010904Y-84426009D02*
X137439476Y-84426009D01*
X137439476Y-84949819D02*
X137439476Y-83949819D01*
X136439476Y-84949819D02*
X137010904Y-84949819D01*
X136725190Y-84949819D02*
X136725190Y-83949819D01*
X136725190Y-83949819D02*
X136820428Y-84092676D01*
X136820428Y-84092676D02*
X136915666Y-84187914D01*
X136915666Y-84187914D02*
X137010904Y-84235533D01*
X137034666Y-108825819D02*
X137367999Y-108349628D01*
X137606094Y-108825819D02*
X137606094Y-107825819D01*
X137606094Y-107825819D02*
X137225142Y-107825819D01*
X137225142Y-107825819D02*
X137129904Y-107873438D01*
X137129904Y-107873438D02*
X137082285Y-107921057D01*
X137082285Y-107921057D02*
X137034666Y-108016295D01*
X137034666Y-108016295D02*
X137034666Y-108159152D01*
X137034666Y-108159152D02*
X137082285Y-108254390D01*
X137082285Y-108254390D02*
X137129904Y-108302009D01*
X137129904Y-108302009D02*
X137225142Y-108349628D01*
X137225142Y-108349628D02*
X137606094Y-108349628D01*
X136701332Y-107825819D02*
X136034666Y-107825819D01*
X136034666Y-107825819D02*
X136463237Y-108825819D01*
X152214819Y-112268333D02*
X151738628Y-111935000D01*
X152214819Y-111696905D02*
X151214819Y-111696905D01*
X151214819Y-111696905D02*
X151214819Y-112077857D01*
X151214819Y-112077857D02*
X151262438Y-112173095D01*
X151262438Y-112173095D02*
X151310057Y-112220714D01*
X151310057Y-112220714D02*
X151405295Y-112268333D01*
X151405295Y-112268333D02*
X151548152Y-112268333D01*
X151548152Y-112268333D02*
X151643390Y-112220714D01*
X151643390Y-112220714D02*
X151691009Y-112173095D01*
X151691009Y-112173095D02*
X151738628Y-112077857D01*
X151738628Y-112077857D02*
X151738628Y-111696905D01*
X151548152Y-113125476D02*
X152214819Y-113125476D01*
X151167200Y-112887381D02*
X151881485Y-112649286D01*
X151881485Y-112649286D02*
X151881485Y-113268333D01*
X157354666Y-109333819D02*
X157687999Y-108857628D01*
X157926094Y-109333819D02*
X157926094Y-108333819D01*
X157926094Y-108333819D02*
X157545142Y-108333819D01*
X157545142Y-108333819D02*
X157449904Y-108381438D01*
X157449904Y-108381438D02*
X157402285Y-108429057D01*
X157402285Y-108429057D02*
X157354666Y-108524295D01*
X157354666Y-108524295D02*
X157354666Y-108667152D01*
X157354666Y-108667152D02*
X157402285Y-108762390D01*
X157402285Y-108762390D02*
X157449904Y-108810009D01*
X157449904Y-108810009D02*
X157545142Y-108857628D01*
X157545142Y-108857628D02*
X157926094Y-108857628D01*
X156783237Y-108762390D02*
X156878475Y-108714771D01*
X156878475Y-108714771D02*
X156926094Y-108667152D01*
X156926094Y-108667152D02*
X156973713Y-108571914D01*
X156973713Y-108571914D02*
X156973713Y-108524295D01*
X156973713Y-108524295D02*
X156926094Y-108429057D01*
X156926094Y-108429057D02*
X156878475Y-108381438D01*
X156878475Y-108381438D02*
X156783237Y-108333819D01*
X156783237Y-108333819D02*
X156592761Y-108333819D01*
X156592761Y-108333819D02*
X156497523Y-108381438D01*
X156497523Y-108381438D02*
X156449904Y-108429057D01*
X156449904Y-108429057D02*
X156402285Y-108524295D01*
X156402285Y-108524295D02*
X156402285Y-108571914D01*
X156402285Y-108571914D02*
X156449904Y-108667152D01*
X156449904Y-108667152D02*
X156497523Y-108714771D01*
X156497523Y-108714771D02*
X156592761Y-108762390D01*
X156592761Y-108762390D02*
X156783237Y-108762390D01*
X156783237Y-108762390D02*
X156878475Y-108810009D01*
X156878475Y-108810009D02*
X156926094Y-108857628D01*
X156926094Y-108857628D02*
X156973713Y-108952866D01*
X156973713Y-108952866D02*
X156973713Y-109143342D01*
X156973713Y-109143342D02*
X156926094Y-109238580D01*
X156926094Y-109238580D02*
X156878475Y-109286200D01*
X156878475Y-109286200D02*
X156783237Y-109333819D01*
X156783237Y-109333819D02*
X156592761Y-109333819D01*
X156592761Y-109333819D02*
X156497523Y-109286200D01*
X156497523Y-109286200D02*
X156449904Y-109238580D01*
X156449904Y-109238580D02*
X156402285Y-109143342D01*
X156402285Y-109143342D02*
X156402285Y-108952866D01*
X156402285Y-108952866D02*
X156449904Y-108857628D01*
X156449904Y-108857628D02*
X156497523Y-108810009D01*
X156497523Y-108810009D02*
X156592761Y-108762390D01*
X154370094Y-102602819D02*
X154370094Y-101602819D01*
X154370094Y-101602819D02*
X154131999Y-101602819D01*
X154131999Y-101602819D02*
X153989142Y-101650438D01*
X153989142Y-101650438D02*
X153893904Y-101745676D01*
X153893904Y-101745676D02*
X153846285Y-101840914D01*
X153846285Y-101840914D02*
X153798666Y-102031390D01*
X153798666Y-102031390D02*
X153798666Y-102174247D01*
X153798666Y-102174247D02*
X153846285Y-102364723D01*
X153846285Y-102364723D02*
X153893904Y-102459961D01*
X153893904Y-102459961D02*
X153989142Y-102555200D01*
X153989142Y-102555200D02*
X154131999Y-102602819D01*
X154131999Y-102602819D02*
X154370094Y-102602819D01*
X152941523Y-101936152D02*
X152941523Y-102602819D01*
X153179618Y-101555200D02*
X153417713Y-102269485D01*
X153417713Y-102269485D02*
X152798666Y-102269485D01*
X136748857Y-103872819D02*
X137082190Y-103396628D01*
X137320285Y-103872819D02*
X137320285Y-102872819D01*
X137320285Y-102872819D02*
X136939333Y-102872819D01*
X136939333Y-102872819D02*
X136844095Y-102920438D01*
X136844095Y-102920438D02*
X136796476Y-102968057D01*
X136796476Y-102968057D02*
X136748857Y-103063295D01*
X136748857Y-103063295D02*
X136748857Y-103206152D01*
X136748857Y-103206152D02*
X136796476Y-103301390D01*
X136796476Y-103301390D02*
X136844095Y-103349009D01*
X136844095Y-103349009D02*
X136939333Y-103396628D01*
X136939333Y-103396628D02*
X137320285Y-103396628D01*
X135796476Y-103872819D02*
X136367904Y-103872819D01*
X136082190Y-103872819D02*
X136082190Y-102872819D01*
X136082190Y-102872819D02*
X136177428Y-103015676D01*
X136177428Y-103015676D02*
X136272666Y-103110914D01*
X136272666Y-103110914D02*
X136367904Y-103158533D01*
X135177428Y-102872819D02*
X135082190Y-102872819D01*
X135082190Y-102872819D02*
X134986952Y-102920438D01*
X134986952Y-102920438D02*
X134939333Y-102968057D01*
X134939333Y-102968057D02*
X134891714Y-103063295D01*
X134891714Y-103063295D02*
X134844095Y-103253771D01*
X134844095Y-103253771D02*
X134844095Y-103491866D01*
X134844095Y-103491866D02*
X134891714Y-103682342D01*
X134891714Y-103682342D02*
X134939333Y-103777580D01*
X134939333Y-103777580D02*
X134986952Y-103825200D01*
X134986952Y-103825200D02*
X135082190Y-103872819D01*
X135082190Y-103872819D02*
X135177428Y-103872819D01*
X135177428Y-103872819D02*
X135272666Y-103825200D01*
X135272666Y-103825200D02*
X135320285Y-103777580D01*
X135320285Y-103777580D02*
X135367904Y-103682342D01*
X135367904Y-103682342D02*
X135415523Y-103491866D01*
X135415523Y-103491866D02*
X135415523Y-103253771D01*
X135415523Y-103253771D02*
X135367904Y-103063295D01*
X135367904Y-103063295D02*
X135320285Y-102968057D01*
X135320285Y-102968057D02*
X135272666Y-102920438D01*
X135272666Y-102920438D02*
X135177428Y-102872819D01*
X156719666Y-103999819D02*
X157052999Y-103523628D01*
X157291094Y-103999819D02*
X157291094Y-102999819D01*
X157291094Y-102999819D02*
X156910142Y-102999819D01*
X156910142Y-102999819D02*
X156814904Y-103047438D01*
X156814904Y-103047438D02*
X156767285Y-103095057D01*
X156767285Y-103095057D02*
X156719666Y-103190295D01*
X156719666Y-103190295D02*
X156719666Y-103333152D01*
X156719666Y-103333152D02*
X156767285Y-103428390D01*
X156767285Y-103428390D02*
X156814904Y-103476009D01*
X156814904Y-103476009D02*
X156910142Y-103523628D01*
X156910142Y-103523628D02*
X157291094Y-103523628D01*
X156243475Y-103999819D02*
X156052999Y-103999819D01*
X156052999Y-103999819D02*
X155957761Y-103952200D01*
X155957761Y-103952200D02*
X155910142Y-103904580D01*
X155910142Y-103904580D02*
X155814904Y-103761723D01*
X155814904Y-103761723D02*
X155767285Y-103571247D01*
X155767285Y-103571247D02*
X155767285Y-103190295D01*
X155767285Y-103190295D02*
X155814904Y-103095057D01*
X155814904Y-103095057D02*
X155862523Y-103047438D01*
X155862523Y-103047438D02*
X155957761Y-102999819D01*
X155957761Y-102999819D02*
X156148237Y-102999819D01*
X156148237Y-102999819D02*
X156243475Y-103047438D01*
X156243475Y-103047438D02*
X156291094Y-103095057D01*
X156291094Y-103095057D02*
X156338713Y-103190295D01*
X156338713Y-103190295D02*
X156338713Y-103428390D01*
X156338713Y-103428390D02*
X156291094Y-103523628D01*
X156291094Y-103523628D02*
X156243475Y-103571247D01*
X156243475Y-103571247D02*
X156148237Y-103618866D01*
X156148237Y-103618866D02*
X155957761Y-103618866D01*
X155957761Y-103618866D02*
X155862523Y-103571247D01*
X155862523Y-103571247D02*
X155814904Y-103523628D01*
X155814904Y-103523628D02*
X155767285Y-103428390D01*
X137161666Y-112000819D02*
X137494999Y-111524628D01*
X137733094Y-112000819D02*
X137733094Y-111000819D01*
X137733094Y-111000819D02*
X137352142Y-111000819D01*
X137352142Y-111000819D02*
X137256904Y-111048438D01*
X137256904Y-111048438D02*
X137209285Y-111096057D01*
X137209285Y-111096057D02*
X137161666Y-111191295D01*
X137161666Y-111191295D02*
X137161666Y-111334152D01*
X137161666Y-111334152D02*
X137209285Y-111429390D01*
X137209285Y-111429390D02*
X137256904Y-111477009D01*
X137256904Y-111477009D02*
X137352142Y-111524628D01*
X137352142Y-111524628D02*
X137733094Y-111524628D01*
X136256904Y-111000819D02*
X136733094Y-111000819D01*
X136733094Y-111000819D02*
X136780713Y-111477009D01*
X136780713Y-111477009D02*
X136733094Y-111429390D01*
X136733094Y-111429390D02*
X136637856Y-111381771D01*
X136637856Y-111381771D02*
X136399761Y-111381771D01*
X136399761Y-111381771D02*
X136304523Y-111429390D01*
X136304523Y-111429390D02*
X136256904Y-111477009D01*
X136256904Y-111477009D02*
X136209285Y-111572247D01*
X136209285Y-111572247D02*
X136209285Y-111810342D01*
X136209285Y-111810342D02*
X136256904Y-111905580D01*
X136256904Y-111905580D02*
X136304523Y-111953200D01*
X136304523Y-111953200D02*
X136399761Y-112000819D01*
X136399761Y-112000819D02*
X136637856Y-112000819D01*
X136637856Y-112000819D02*
X136733094Y-111953200D01*
X136733094Y-111953200D02*
X136780713Y-111905580D01*
X137733094Y-107047819D02*
X137733094Y-106047819D01*
X137733094Y-106047819D02*
X137494999Y-106047819D01*
X137494999Y-106047819D02*
X137352142Y-106095438D01*
X137352142Y-106095438D02*
X137256904Y-106190676D01*
X137256904Y-106190676D02*
X137209285Y-106285914D01*
X137209285Y-106285914D02*
X137161666Y-106476390D01*
X137161666Y-106476390D02*
X137161666Y-106619247D01*
X137161666Y-106619247D02*
X137209285Y-106809723D01*
X137209285Y-106809723D02*
X137256904Y-106904961D01*
X137256904Y-106904961D02*
X137352142Y-107000200D01*
X137352142Y-107000200D02*
X137494999Y-107047819D01*
X137494999Y-107047819D02*
X137733094Y-107047819D01*
X136209285Y-107047819D02*
X136780713Y-107047819D01*
X136494999Y-107047819D02*
X136494999Y-106047819D01*
X136494999Y-106047819D02*
X136590237Y-106190676D01*
X136590237Y-106190676D02*
X136685475Y-106285914D01*
X136685475Y-106285914D02*
X136780713Y-106333533D01*
X154370094Y-101205819D02*
X154370094Y-100205819D01*
X154370094Y-100205819D02*
X154131999Y-100205819D01*
X154131999Y-100205819D02*
X153989142Y-100253438D01*
X153989142Y-100253438D02*
X153893904Y-100348676D01*
X153893904Y-100348676D02*
X153846285Y-100443914D01*
X153846285Y-100443914D02*
X153798666Y-100634390D01*
X153798666Y-100634390D02*
X153798666Y-100777247D01*
X153798666Y-100777247D02*
X153846285Y-100967723D01*
X153846285Y-100967723D02*
X153893904Y-101062961D01*
X153893904Y-101062961D02*
X153989142Y-101158200D01*
X153989142Y-101158200D02*
X154131999Y-101205819D01*
X154131999Y-101205819D02*
X154370094Y-101205819D01*
X153417713Y-100301057D02*
X153370094Y-100253438D01*
X153370094Y-100253438D02*
X153274856Y-100205819D01*
X153274856Y-100205819D02*
X153036761Y-100205819D01*
X153036761Y-100205819D02*
X152941523Y-100253438D01*
X152941523Y-100253438D02*
X152893904Y-100301057D01*
X152893904Y-100301057D02*
X152846285Y-100396295D01*
X152846285Y-100396295D02*
X152846285Y-100491533D01*
X152846285Y-100491533D02*
X152893904Y-100634390D01*
X152893904Y-100634390D02*
X153465332Y-101205819D01*
X153465332Y-101205819D02*
X152846285Y-101205819D01*
X146011904Y-112074819D02*
X146011904Y-112884342D01*
X146011904Y-112884342D02*
X145964285Y-112979580D01*
X145964285Y-112979580D02*
X145916666Y-113027200D01*
X145916666Y-113027200D02*
X145821428Y-113074819D01*
X145821428Y-113074819D02*
X145630952Y-113074819D01*
X145630952Y-113074819D02*
X145535714Y-113027200D01*
X145535714Y-113027200D02*
X145488095Y-112979580D01*
X145488095Y-112979580D02*
X145440476Y-112884342D01*
X145440476Y-112884342D02*
X145440476Y-112074819D01*
X144440476Y-113074819D02*
X145011904Y-113074819D01*
X144726190Y-113074819D02*
X144726190Y-112074819D01*
X144726190Y-112074819D02*
X144821428Y-112217676D01*
X144821428Y-112217676D02*
X144916666Y-112312914D01*
X144916666Y-112312914D02*
X145011904Y-112360533D01*
X156719666Y-107809819D02*
X157052999Y-107333628D01*
X157291094Y-107809819D02*
X157291094Y-106809819D01*
X157291094Y-106809819D02*
X156910142Y-106809819D01*
X156910142Y-106809819D02*
X156814904Y-106857438D01*
X156814904Y-106857438D02*
X156767285Y-106905057D01*
X156767285Y-106905057D02*
X156719666Y-107000295D01*
X156719666Y-107000295D02*
X156719666Y-107143152D01*
X156719666Y-107143152D02*
X156767285Y-107238390D01*
X156767285Y-107238390D02*
X156814904Y-107286009D01*
X156814904Y-107286009D02*
X156910142Y-107333628D01*
X156910142Y-107333628D02*
X157291094Y-107333628D01*
X156338713Y-106905057D02*
X156291094Y-106857438D01*
X156291094Y-106857438D02*
X156195856Y-106809819D01*
X156195856Y-106809819D02*
X155957761Y-106809819D01*
X155957761Y-106809819D02*
X155862523Y-106857438D01*
X155862523Y-106857438D02*
X155814904Y-106905057D01*
X155814904Y-106905057D02*
X155767285Y-107000295D01*
X155767285Y-107000295D02*
X155767285Y-107095533D01*
X155767285Y-107095533D02*
X155814904Y-107238390D01*
X155814904Y-107238390D02*
X156386332Y-107809819D01*
X156386332Y-107809819D02*
X155767285Y-107809819D01*
X151131666Y-108919819D02*
X151464999Y-108443628D01*
X151703094Y-108919819D02*
X151703094Y-107919819D01*
X151703094Y-107919819D02*
X151322142Y-107919819D01*
X151322142Y-107919819D02*
X151226904Y-107967438D01*
X151226904Y-107967438D02*
X151179285Y-108015057D01*
X151179285Y-108015057D02*
X151131666Y-108110295D01*
X151131666Y-108110295D02*
X151131666Y-108253152D01*
X151131666Y-108253152D02*
X151179285Y-108348390D01*
X151179285Y-108348390D02*
X151226904Y-108396009D01*
X151226904Y-108396009D02*
X151322142Y-108443628D01*
X151322142Y-108443628D02*
X151703094Y-108443628D01*
X150798332Y-107919819D02*
X150179285Y-107919819D01*
X150179285Y-107919819D02*
X150512618Y-108300771D01*
X150512618Y-108300771D02*
X150369761Y-108300771D01*
X150369761Y-108300771D02*
X150274523Y-108348390D01*
X150274523Y-108348390D02*
X150226904Y-108396009D01*
X150226904Y-108396009D02*
X150179285Y-108491247D01*
X150179285Y-108491247D02*
X150179285Y-108729342D01*
X150179285Y-108729342D02*
X150226904Y-108824580D01*
X150226904Y-108824580D02*
X150274523Y-108872200D01*
X150274523Y-108872200D02*
X150369761Y-108919819D01*
X150369761Y-108919819D02*
X150655475Y-108919819D01*
X150655475Y-108919819D02*
X150750713Y-108872200D01*
X150750713Y-108872200D02*
X150798332Y-108824580D01*
X137161666Y-110349819D02*
X137494999Y-109873628D01*
X137733094Y-110349819D02*
X137733094Y-109349819D01*
X137733094Y-109349819D02*
X137352142Y-109349819D01*
X137352142Y-109349819D02*
X137256904Y-109397438D01*
X137256904Y-109397438D02*
X137209285Y-109445057D01*
X137209285Y-109445057D02*
X137161666Y-109540295D01*
X137161666Y-109540295D02*
X137161666Y-109683152D01*
X137161666Y-109683152D02*
X137209285Y-109778390D01*
X137209285Y-109778390D02*
X137256904Y-109826009D01*
X137256904Y-109826009D02*
X137352142Y-109873628D01*
X137352142Y-109873628D02*
X137733094Y-109873628D01*
X136304523Y-109349819D02*
X136494999Y-109349819D01*
X136494999Y-109349819D02*
X136590237Y-109397438D01*
X136590237Y-109397438D02*
X136637856Y-109445057D01*
X136637856Y-109445057D02*
X136733094Y-109587914D01*
X136733094Y-109587914D02*
X136780713Y-109778390D01*
X136780713Y-109778390D02*
X136780713Y-110159342D01*
X136780713Y-110159342D02*
X136733094Y-110254580D01*
X136733094Y-110254580D02*
X136685475Y-110302200D01*
X136685475Y-110302200D02*
X136590237Y-110349819D01*
X136590237Y-110349819D02*
X136399761Y-110349819D01*
X136399761Y-110349819D02*
X136304523Y-110302200D01*
X136304523Y-110302200D02*
X136256904Y-110254580D01*
X136256904Y-110254580D02*
X136209285Y-110159342D01*
X136209285Y-110159342D02*
X136209285Y-109921247D01*
X136209285Y-109921247D02*
X136256904Y-109826009D01*
X136256904Y-109826009D02*
X136304523Y-109778390D01*
X136304523Y-109778390D02*
X136399761Y-109730771D01*
X136399761Y-109730771D02*
X136590237Y-109730771D01*
X136590237Y-109730771D02*
X136685475Y-109778390D01*
X136685475Y-109778390D02*
X136733094Y-109826009D01*
X136733094Y-109826009D02*
X136780713Y-109921247D01*
X156719666Y-106285819D02*
X157052999Y-105809628D01*
X157291094Y-106285819D02*
X157291094Y-105285819D01*
X157291094Y-105285819D02*
X156910142Y-105285819D01*
X156910142Y-105285819D02*
X156814904Y-105333438D01*
X156814904Y-105333438D02*
X156767285Y-105381057D01*
X156767285Y-105381057D02*
X156719666Y-105476295D01*
X156719666Y-105476295D02*
X156719666Y-105619152D01*
X156719666Y-105619152D02*
X156767285Y-105714390D01*
X156767285Y-105714390D02*
X156814904Y-105762009D01*
X156814904Y-105762009D02*
X156910142Y-105809628D01*
X156910142Y-105809628D02*
X157291094Y-105809628D01*
X155767285Y-106285819D02*
X156338713Y-106285819D01*
X156052999Y-106285819D02*
X156052999Y-105285819D01*
X156052999Y-105285819D02*
X156148237Y-105428676D01*
X156148237Y-105428676D02*
X156243475Y-105523914D01*
X156243475Y-105523914D02*
X156338713Y-105571533D01*
X151703094Y-107554819D02*
X151703094Y-106554819D01*
X151703094Y-106554819D02*
X151464999Y-106554819D01*
X151464999Y-106554819D02*
X151322142Y-106602438D01*
X151322142Y-106602438D02*
X151226904Y-106697676D01*
X151226904Y-106697676D02*
X151179285Y-106792914D01*
X151179285Y-106792914D02*
X151131666Y-106983390D01*
X151131666Y-106983390D02*
X151131666Y-107126247D01*
X151131666Y-107126247D02*
X151179285Y-107316723D01*
X151179285Y-107316723D02*
X151226904Y-107411961D01*
X151226904Y-107411961D02*
X151322142Y-107507200D01*
X151322142Y-107507200D02*
X151464999Y-107554819D01*
X151464999Y-107554819D02*
X151703094Y-107554819D01*
X150798332Y-106554819D02*
X150179285Y-106554819D01*
X150179285Y-106554819D02*
X150512618Y-106935771D01*
X150512618Y-106935771D02*
X150369761Y-106935771D01*
X150369761Y-106935771D02*
X150274523Y-106983390D01*
X150274523Y-106983390D02*
X150226904Y-107031009D01*
X150226904Y-107031009D02*
X150179285Y-107126247D01*
X150179285Y-107126247D02*
X150179285Y-107364342D01*
X150179285Y-107364342D02*
X150226904Y-107459580D01*
X150226904Y-107459580D02*
X150274523Y-107507200D01*
X150274523Y-107507200D02*
X150369761Y-107554819D01*
X150369761Y-107554819D02*
X150655475Y-107554819D01*
X150655475Y-107554819D02*
X150750713Y-107507200D01*
X150750713Y-107507200D02*
X150798332Y-107459580D01*
D11*
%TO.C,C2*%
X138892748Y-99327000D02*
X139415252Y-99327000D01*
X138892748Y-97857000D02*
X139415252Y-97857000D01*
%TO.C,C1*%
X139013420Y-99860000D02*
X139294580Y-99860000D01*
X139013420Y-100880000D02*
X139294580Y-100880000D01*
%TO.C,R7*%
X139297742Y-107848500D02*
X139772258Y-107848500D01*
X139297742Y-108893500D02*
X139772258Y-108893500D01*
%TO.C,R4*%
X149807500Y-112672258D02*
X149807500Y-112197742D01*
X150852500Y-112672258D02*
X150852500Y-112197742D01*
%TO.C,R8*%
X154377258Y-108356500D02*
X153902742Y-108356500D01*
X154377258Y-109401500D02*
X153902742Y-109401500D01*
%TO.C,D4*%
X149280000Y-102331000D02*
X151965000Y-102331000D01*
X149280000Y-104251000D02*
X149280000Y-102331000D01*
X151965000Y-104251000D02*
X149280000Y-104251000D01*
%TO.C,R10*%
X138789742Y-103657500D02*
X139264258Y-103657500D01*
X138789742Y-104702500D02*
X139264258Y-104702500D01*
%TO.C,R9*%
X154377258Y-103022500D02*
X153902742Y-103022500D01*
X154377258Y-104067500D02*
X153902742Y-104067500D01*
%TO.C,R5*%
X139297742Y-110896500D02*
X139772258Y-110896500D01*
X139297742Y-111941500D02*
X139772258Y-111941500D01*
%TO.C,D1*%
X138535000Y-105633000D02*
X141220000Y-105633000D01*
X141220000Y-105633000D02*
X141220000Y-107553000D01*
X141220000Y-107553000D02*
X138535000Y-107553000D01*
%TO.C,D2*%
X149280000Y-100426000D02*
X151965000Y-100426000D01*
X149280000Y-102346000D02*
X149280000Y-100426000D01*
X151965000Y-102346000D02*
X149280000Y-102346000D01*
%TO.C,U1*%
X145250000Y-101660000D02*
X143300000Y-101660000D01*
X145250000Y-101660000D02*
X147200000Y-101660000D01*
X145250000Y-111780000D02*
X143300000Y-111780000D01*
X145250000Y-111780000D02*
X147200000Y-111780000D01*
X142765000Y-112055000D02*
X142285000Y-112055000D01*
X142525000Y-111725000D01*
X142765000Y-112055000D01*
G36*
X142765000Y-112055000D02*
G01*
X142285000Y-112055000D01*
X142525000Y-111725000D01*
X142765000Y-112055000D01*
G37*
%TO.C,R2*%
X154377258Y-106832500D02*
X153902742Y-106832500D01*
X154377258Y-107877500D02*
X153902742Y-107877500D01*
%TO.C,R3*%
X151202258Y-109372500D02*
X150727742Y-109372500D01*
X151202258Y-110417500D02*
X150727742Y-110417500D01*
%TO.C,R6*%
X139297742Y-109372500D02*
X139772258Y-109372500D01*
X139297742Y-110417500D02*
X139772258Y-110417500D01*
%TO.C,R1*%
X154377258Y-105308500D02*
X153902742Y-105308500D01*
X154377258Y-106353500D02*
X153902742Y-106353500D01*
%TO.C,D3*%
X149280000Y-104490000D02*
X151965000Y-104490000D01*
X149280000Y-106410000D02*
X149280000Y-104490000D01*
X151965000Y-106410000D02*
X149280000Y-106410000D01*
%TD*%
M02*
