M48
; DRILL file {KiCad 9.0.1} date 2025-07-06T22:17:43-0700
; FORMAT={-:-/ absolute / metric / decimal}
; #@! TF.CreationDate,2025-07-06T22:17:43-07:00
; #@! TF.GenerationSoftware,Kicad,Pcbnew,9.0.1
; #@! TF.FileFunction,Plated,1,2,PTH
FMAT,2
METRIC
; #@! TA.AperFunction,Plated,PTH,ViaDrill
T1C0.300
; #@! TA.AperFunction,Plated,PTH,ViaDrill
T2C0.400
; #@! TA.AperFunction,Plated,PTH,ComponentDrill
T3C0.600
; #@! TA.AperFunction,Plated,PTH,ComponentDrill
T4C1.000
; #@! TA.AperFunction,Plated,PTH,ComponentDrill
T5C2.700
%
G90
G05
T1
X139.789Y-105.323
X154.267Y-104.688
T2
X131.25Y-113.02
X131.25Y-114.544
X131.725Y-101.195
X136.096Y-119.624
X136.868Y-104.307
X137.503Y-110.612
X137.62Y-119.624
X139.144Y-119.624
X140.668Y-119.624
X151.092Y-114.086
X156.045Y-108.498
X156.426Y-109.895
T3
X132.55Y-82.59
X132.55Y-90.21
X135.09Y-82.59
X135.09Y-90.21
X137.63Y-82.59
X137.63Y-90.21
X140.17Y-82.59
X140.17Y-90.21
X142.71Y-82.59
X142.71Y-90.21
X147.79Y-82.59
X147.79Y-90.21
X150.33Y-82.59
X150.33Y-90.21
X152.87Y-82.59
X152.87Y-90.21
X155.41Y-82.59
X155.41Y-90.21
X157.95Y-82.59
X157.95Y-90.21
T4
X133.48Y-96.26
X133.48Y-98.8
X136.02Y-96.26
X136.02Y-98.8
T5
X132.8Y-118.0
X156.8Y-94.5
M30
