%TF.GenerationSoftware,KiCad,Pcbnew,9.0.1*%
%TF.CreationDate,2025-07-06T22:17:40-07:00*%
%TF.ProjectId,pcb,7063622e-6b69-4636-9164-5f7063625858,rev?*%
%TF.SameCoordinates,Original*%
%TF.FileFunction,Soldermask,Top*%
%TF.FilePolarity,Negative*%
%FSLAX46Y46*%
G04 Gerber Fmt 4.6, Leading zero omitted, Abs format (unit mm)*
G04 Created by KiCad (PCBNEW 9.0.1) date 2025-07-06 22:17:40*
%MOMM*%
%LPD*%
G01*
G04 APERTURE LIST*
G04 Aperture macros list*
%AMRoundRect*
0 Rectangle with rounded corners*
0 $1 Rounding radius*
0 $2 $3 $4 $5 $6 $7 $8 $9 X,Y pos of 4 corners*
0 Add a 4 corners polygon primitive as box body*
4,1,4,$2,$3,$4,$5,$6,$7,$8,$9,$2,$3,0*
0 Add four circle primitives for the rounded corners*
1,1,$1+$1,$2,$3*
1,1,$1+$1,$4,$5*
1,1,$1+$1,$6,$7*
1,1,$1+$1,$8,$9*
0 Add four rect primitives between the rounded corners*
20,1,$1+$1,$2,$3,$4,$5,0*
20,1,$1+$1,$4,$5,$6,$7,0*
20,1,$1+$1,$6,$7,$8,$9,0*
20,1,$1+$1,$8,$9,$2,$3,0*%
G04 Aperture macros list end*
%ADD10C,1.500000*%
%ADD11RoundRect,0.225000X0.525000X-0.525000X0.525000X0.525000X-0.525000X0.525000X-0.525000X-0.525000X0*%
%ADD12R,1.050000X0.650000*%
%ADD13C,2.700000*%
%ADD14C,3.100000*%
%ADD15C,4.500000*%
%ADD16R,0.650000X1.050000*%
%ADD17R,1.700000X1.700000*%
%ADD18C,1.700000*%
G04 APERTURE END LIST*
D10*
%TO.C,U3*%
X147790000Y-82590000D03*
X150330000Y-82590000D03*
X152870000Y-82590000D03*
X155410000Y-82590000D03*
X157950000Y-82590000D03*
X157950000Y-90210000D03*
X155410000Y-90210000D03*
X152870000Y-90210000D03*
X150330000Y-90210000D03*
D11*
X147790000Y-90210000D03*
%TD*%
D12*
%TO.C,SW1*%
X141875000Y-96425000D03*
X146025000Y-96425000D03*
X141875000Y-98575000D03*
X146025000Y-98575000D03*
%TD*%
D13*
%TO.C,H2*%
X150250000Y-118500000D03*
%TD*%
D12*
%TO.C,SW5*%
X155225000Y-107775000D03*
X151075000Y-107775000D03*
X155225000Y-105625000D03*
X151075000Y-105625000D03*
%TD*%
%TO.C,SW4*%
X132675000Y-105625000D03*
X136825000Y-105625000D03*
X132675000Y-107775000D03*
X136825000Y-107775000D03*
%TD*%
D14*
%TO.C,H3*%
X156800000Y-94500000D03*
D15*
X156800000Y-94500000D03*
%TD*%
D16*
%TO.C,SW6*%
X155425000Y-118450000D03*
X155425000Y-114300000D03*
X157575000Y-118450000D03*
X157575000Y-114300000D03*
%TD*%
D11*
%TO.C,U2*%
X132550000Y-90210000D03*
D10*
X135090000Y-90210000D03*
X137630000Y-90210000D03*
X140170000Y-90210000D03*
X142710000Y-90210000D03*
X142710000Y-82590000D03*
X140170000Y-82590000D03*
X137630000Y-82590000D03*
X135090000Y-82590000D03*
X132550000Y-82590000D03*
%TD*%
D12*
%TO.C,SW2*%
X146025000Y-107775000D03*
X141875000Y-107775000D03*
X146025000Y-105625000D03*
X141875000Y-105625000D03*
%TD*%
D17*
%TO.C,J1*%
X133480000Y-96260000D03*
D18*
X133480000Y-98800000D03*
X136020000Y-96260000D03*
X136020000Y-98800000D03*
%TD*%
D12*
%TO.C,SW3*%
X141875000Y-114835000D03*
X146025000Y-114835000D03*
X141875000Y-116985000D03*
X146025000Y-116985000D03*
%TD*%
D14*
%TO.C,H4*%
X132800000Y-118000000D03*
D15*
X132800000Y-118000000D03*
%TD*%
D13*
%TO.C,H1*%
X133700000Y-86100000D03*
%TD*%
M02*
