%TF.GenerationSoftware,KiCad,Pcbnew,9.0.1*%
%TF.CreationDate,2025-07-06T22:17:40-07:00*%
%TF.ProjectId,pcb,7063622e-6b69-4636-9164-5f7063625858,rev?*%
%TF.SameCoordinates,Original*%
%TF.FileFunction,Legend,Top*%
%TF.FilePolarity,Positive*%
%FSLAX46Y46*%
G04 Gerber Fmt 4.6, Leading zero omitted, Abs format (unit mm)*
G04 Created by KiCad (PCBNEW 9.0.1) date 2025-07-06 22:17:40*
%MOMM*%
%LPD*%
G01*
G04 APERTURE LIST*
%ADD10C,0.150000*%
%ADD11C,0.120000*%
%ADD12C,0.100000*%
G04 APERTURE END LIST*
D10*
X150965095Y-91950819D02*
X150965095Y-92760342D01*
X150965095Y-92760342D02*
X151012714Y-92855580D01*
X151012714Y-92855580D02*
X151060333Y-92903200D01*
X151060333Y-92903200D02*
X151155571Y-92950819D01*
X151155571Y-92950819D02*
X151346047Y-92950819D01*
X151346047Y-92950819D02*
X151441285Y-92903200D01*
X151441285Y-92903200D02*
X151488904Y-92855580D01*
X151488904Y-92855580D02*
X151536523Y-92760342D01*
X151536523Y-92760342D02*
X151536523Y-91950819D01*
X151917476Y-91950819D02*
X152536523Y-91950819D01*
X152536523Y-91950819D02*
X152203190Y-92331771D01*
X152203190Y-92331771D02*
X152346047Y-92331771D01*
X152346047Y-92331771D02*
X152441285Y-92379390D01*
X152441285Y-92379390D02*
X152488904Y-92427009D01*
X152488904Y-92427009D02*
X152536523Y-92522247D01*
X152536523Y-92522247D02*
X152536523Y-92760342D01*
X152536523Y-92760342D02*
X152488904Y-92855580D01*
X152488904Y-92855580D02*
X152441285Y-92903200D01*
X152441285Y-92903200D02*
X152346047Y-92950819D01*
X152346047Y-92950819D02*
X152060333Y-92950819D01*
X152060333Y-92950819D02*
X151965095Y-92903200D01*
X151965095Y-92903200D02*
X151917476Y-92855580D01*
X142616667Y-95307200D02*
X142759524Y-95354819D01*
X142759524Y-95354819D02*
X142997619Y-95354819D01*
X142997619Y-95354819D02*
X143092857Y-95307200D01*
X143092857Y-95307200D02*
X143140476Y-95259580D01*
X143140476Y-95259580D02*
X143188095Y-95164342D01*
X143188095Y-95164342D02*
X143188095Y-95069104D01*
X143188095Y-95069104D02*
X143140476Y-94973866D01*
X143140476Y-94973866D02*
X143092857Y-94926247D01*
X143092857Y-94926247D02*
X142997619Y-94878628D01*
X142997619Y-94878628D02*
X142807143Y-94831009D01*
X142807143Y-94831009D02*
X142711905Y-94783390D01*
X142711905Y-94783390D02*
X142664286Y-94735771D01*
X142664286Y-94735771D02*
X142616667Y-94640533D01*
X142616667Y-94640533D02*
X142616667Y-94545295D01*
X142616667Y-94545295D02*
X142664286Y-94450057D01*
X142664286Y-94450057D02*
X142711905Y-94402438D01*
X142711905Y-94402438D02*
X142807143Y-94354819D01*
X142807143Y-94354819D02*
X143045238Y-94354819D01*
X143045238Y-94354819D02*
X143188095Y-94402438D01*
X143521429Y-94354819D02*
X143759524Y-95354819D01*
X143759524Y-95354819D02*
X143950000Y-94640533D01*
X143950000Y-94640533D02*
X144140476Y-95354819D01*
X144140476Y-95354819D02*
X144378572Y-94354819D01*
X145283333Y-95354819D02*
X144711905Y-95354819D01*
X144997619Y-95354819D02*
X144997619Y-94354819D01*
X144997619Y-94354819D02*
X144902381Y-94497676D01*
X144902381Y-94497676D02*
X144807143Y-94592914D01*
X144807143Y-94592914D02*
X144711905Y-94640533D01*
X149488095Y-115704819D02*
X149488095Y-114704819D01*
X149488095Y-115181009D02*
X150059523Y-115181009D01*
X150059523Y-115704819D02*
X150059523Y-114704819D01*
X150488095Y-114800057D02*
X150535714Y-114752438D01*
X150535714Y-114752438D02*
X150630952Y-114704819D01*
X150630952Y-114704819D02*
X150869047Y-114704819D01*
X150869047Y-114704819D02*
X150964285Y-114752438D01*
X150964285Y-114752438D02*
X151011904Y-114800057D01*
X151011904Y-114800057D02*
X151059523Y-114895295D01*
X151059523Y-114895295D02*
X151059523Y-114990533D01*
X151059523Y-114990533D02*
X151011904Y-115133390D01*
X151011904Y-115133390D02*
X150440476Y-115704819D01*
X150440476Y-115704819D02*
X151059523Y-115704819D01*
X151816667Y-104587200D02*
X151959524Y-104634819D01*
X151959524Y-104634819D02*
X152197619Y-104634819D01*
X152197619Y-104634819D02*
X152292857Y-104587200D01*
X152292857Y-104587200D02*
X152340476Y-104539580D01*
X152340476Y-104539580D02*
X152388095Y-104444342D01*
X152388095Y-104444342D02*
X152388095Y-104349104D01*
X152388095Y-104349104D02*
X152340476Y-104253866D01*
X152340476Y-104253866D02*
X152292857Y-104206247D01*
X152292857Y-104206247D02*
X152197619Y-104158628D01*
X152197619Y-104158628D02*
X152007143Y-104111009D01*
X152007143Y-104111009D02*
X151911905Y-104063390D01*
X151911905Y-104063390D02*
X151864286Y-104015771D01*
X151864286Y-104015771D02*
X151816667Y-103920533D01*
X151816667Y-103920533D02*
X151816667Y-103825295D01*
X151816667Y-103825295D02*
X151864286Y-103730057D01*
X151864286Y-103730057D02*
X151911905Y-103682438D01*
X151911905Y-103682438D02*
X152007143Y-103634819D01*
X152007143Y-103634819D02*
X152245238Y-103634819D01*
X152245238Y-103634819D02*
X152388095Y-103682438D01*
X152721429Y-103634819D02*
X152959524Y-104634819D01*
X152959524Y-104634819D02*
X153150000Y-103920533D01*
X153150000Y-103920533D02*
X153340476Y-104634819D01*
X153340476Y-104634819D02*
X153578572Y-103634819D01*
X154435714Y-103634819D02*
X153959524Y-103634819D01*
X153959524Y-103634819D02*
X153911905Y-104111009D01*
X153911905Y-104111009D02*
X153959524Y-104063390D01*
X153959524Y-104063390D02*
X154054762Y-104015771D01*
X154054762Y-104015771D02*
X154292857Y-104015771D01*
X154292857Y-104015771D02*
X154388095Y-104063390D01*
X154388095Y-104063390D02*
X154435714Y-104111009D01*
X154435714Y-104111009D02*
X154483333Y-104206247D01*
X154483333Y-104206247D02*
X154483333Y-104444342D01*
X154483333Y-104444342D02*
X154435714Y-104539580D01*
X154435714Y-104539580D02*
X154388095Y-104587200D01*
X154388095Y-104587200D02*
X154292857Y-104634819D01*
X154292857Y-104634819D02*
X154054762Y-104634819D01*
X154054762Y-104634819D02*
X153959524Y-104587200D01*
X153959524Y-104587200D02*
X153911905Y-104539580D01*
X133416667Y-104507200D02*
X133559524Y-104554819D01*
X133559524Y-104554819D02*
X133797619Y-104554819D01*
X133797619Y-104554819D02*
X133892857Y-104507200D01*
X133892857Y-104507200D02*
X133940476Y-104459580D01*
X133940476Y-104459580D02*
X133988095Y-104364342D01*
X133988095Y-104364342D02*
X133988095Y-104269104D01*
X133988095Y-104269104D02*
X133940476Y-104173866D01*
X133940476Y-104173866D02*
X133892857Y-104126247D01*
X133892857Y-104126247D02*
X133797619Y-104078628D01*
X133797619Y-104078628D02*
X133607143Y-104031009D01*
X133607143Y-104031009D02*
X133511905Y-103983390D01*
X133511905Y-103983390D02*
X133464286Y-103935771D01*
X133464286Y-103935771D02*
X133416667Y-103840533D01*
X133416667Y-103840533D02*
X133416667Y-103745295D01*
X133416667Y-103745295D02*
X133464286Y-103650057D01*
X133464286Y-103650057D02*
X133511905Y-103602438D01*
X133511905Y-103602438D02*
X133607143Y-103554819D01*
X133607143Y-103554819D02*
X133845238Y-103554819D01*
X133845238Y-103554819D02*
X133988095Y-103602438D01*
X134321429Y-103554819D02*
X134559524Y-104554819D01*
X134559524Y-104554819D02*
X134750000Y-103840533D01*
X134750000Y-103840533D02*
X134940476Y-104554819D01*
X134940476Y-104554819D02*
X135178572Y-103554819D01*
X135988095Y-103888152D02*
X135988095Y-104554819D01*
X135750000Y-103507200D02*
X135511905Y-104221485D01*
X135511905Y-104221485D02*
X136130952Y-104221485D01*
X156038095Y-98411819D02*
X156038095Y-97411819D01*
X156038095Y-97888009D02*
X156609523Y-97888009D01*
X156609523Y-98411819D02*
X156609523Y-97411819D01*
X156990476Y-97411819D02*
X157609523Y-97411819D01*
X157609523Y-97411819D02*
X157276190Y-97792771D01*
X157276190Y-97792771D02*
X157419047Y-97792771D01*
X157419047Y-97792771D02*
X157514285Y-97840390D01*
X157514285Y-97840390D02*
X157561904Y-97888009D01*
X157561904Y-97888009D02*
X157609523Y-97983247D01*
X157609523Y-97983247D02*
X157609523Y-98221342D01*
X157609523Y-98221342D02*
X157561904Y-98316580D01*
X157561904Y-98316580D02*
X157514285Y-98364200D01*
X157514285Y-98364200D02*
X157419047Y-98411819D01*
X157419047Y-98411819D02*
X157133333Y-98411819D01*
X157133333Y-98411819D02*
X157038095Y-98364200D01*
X157038095Y-98364200D02*
X156990476Y-98316580D01*
X154307200Y-117708332D02*
X154354819Y-117565475D01*
X154354819Y-117565475D02*
X154354819Y-117327380D01*
X154354819Y-117327380D02*
X154307200Y-117232142D01*
X154307200Y-117232142D02*
X154259580Y-117184523D01*
X154259580Y-117184523D02*
X154164342Y-117136904D01*
X154164342Y-117136904D02*
X154069104Y-117136904D01*
X154069104Y-117136904D02*
X153973866Y-117184523D01*
X153973866Y-117184523D02*
X153926247Y-117232142D01*
X153926247Y-117232142D02*
X153878628Y-117327380D01*
X153878628Y-117327380D02*
X153831009Y-117517856D01*
X153831009Y-117517856D02*
X153783390Y-117613094D01*
X153783390Y-117613094D02*
X153735771Y-117660713D01*
X153735771Y-117660713D02*
X153640533Y-117708332D01*
X153640533Y-117708332D02*
X153545295Y-117708332D01*
X153545295Y-117708332D02*
X153450057Y-117660713D01*
X153450057Y-117660713D02*
X153402438Y-117613094D01*
X153402438Y-117613094D02*
X153354819Y-117517856D01*
X153354819Y-117517856D02*
X153354819Y-117279761D01*
X153354819Y-117279761D02*
X153402438Y-117136904D01*
X153354819Y-116803570D02*
X154354819Y-116565475D01*
X154354819Y-116565475D02*
X153640533Y-116374999D01*
X153640533Y-116374999D02*
X154354819Y-116184523D01*
X154354819Y-116184523D02*
X153354819Y-115946428D01*
X153354819Y-115136904D02*
X153354819Y-115327380D01*
X153354819Y-115327380D02*
X153402438Y-115422618D01*
X153402438Y-115422618D02*
X153450057Y-115470237D01*
X153450057Y-115470237D02*
X153592914Y-115565475D01*
X153592914Y-115565475D02*
X153783390Y-115613094D01*
X153783390Y-115613094D02*
X154164342Y-115613094D01*
X154164342Y-115613094D02*
X154259580Y-115565475D01*
X154259580Y-115565475D02*
X154307200Y-115517856D01*
X154307200Y-115517856D02*
X154354819Y-115422618D01*
X154354819Y-115422618D02*
X154354819Y-115232142D01*
X154354819Y-115232142D02*
X154307200Y-115136904D01*
X154307200Y-115136904D02*
X154259580Y-115089285D01*
X154259580Y-115089285D02*
X154164342Y-115041666D01*
X154164342Y-115041666D02*
X153926247Y-115041666D01*
X153926247Y-115041666D02*
X153831009Y-115089285D01*
X153831009Y-115089285D02*
X153783390Y-115136904D01*
X153783390Y-115136904D02*
X153735771Y-115232142D01*
X153735771Y-115232142D02*
X153735771Y-115422618D01*
X153735771Y-115422618D02*
X153783390Y-115517856D01*
X153783390Y-115517856D02*
X153831009Y-115565475D01*
X153831009Y-115565475D02*
X153926247Y-115613094D01*
X137503095Y-92077819D02*
X137503095Y-92887342D01*
X137503095Y-92887342D02*
X137550714Y-92982580D01*
X137550714Y-92982580D02*
X137598333Y-93030200D01*
X137598333Y-93030200D02*
X137693571Y-93077819D01*
X137693571Y-93077819D02*
X137884047Y-93077819D01*
X137884047Y-93077819D02*
X137979285Y-93030200D01*
X137979285Y-93030200D02*
X138026904Y-92982580D01*
X138026904Y-92982580D02*
X138074523Y-92887342D01*
X138074523Y-92887342D02*
X138074523Y-92077819D01*
X138503095Y-92173057D02*
X138550714Y-92125438D01*
X138550714Y-92125438D02*
X138645952Y-92077819D01*
X138645952Y-92077819D02*
X138884047Y-92077819D01*
X138884047Y-92077819D02*
X138979285Y-92125438D01*
X138979285Y-92125438D02*
X139026904Y-92173057D01*
X139026904Y-92173057D02*
X139074523Y-92268295D01*
X139074523Y-92268295D02*
X139074523Y-92363533D01*
X139074523Y-92363533D02*
X139026904Y-92506390D01*
X139026904Y-92506390D02*
X138455476Y-93077819D01*
X138455476Y-93077819D02*
X139074523Y-93077819D01*
X142616667Y-104587200D02*
X142759524Y-104634819D01*
X142759524Y-104634819D02*
X142997619Y-104634819D01*
X142997619Y-104634819D02*
X143092857Y-104587200D01*
X143092857Y-104587200D02*
X143140476Y-104539580D01*
X143140476Y-104539580D02*
X143188095Y-104444342D01*
X143188095Y-104444342D02*
X143188095Y-104349104D01*
X143188095Y-104349104D02*
X143140476Y-104253866D01*
X143140476Y-104253866D02*
X143092857Y-104206247D01*
X143092857Y-104206247D02*
X142997619Y-104158628D01*
X142997619Y-104158628D02*
X142807143Y-104111009D01*
X142807143Y-104111009D02*
X142711905Y-104063390D01*
X142711905Y-104063390D02*
X142664286Y-104015771D01*
X142664286Y-104015771D02*
X142616667Y-103920533D01*
X142616667Y-103920533D02*
X142616667Y-103825295D01*
X142616667Y-103825295D02*
X142664286Y-103730057D01*
X142664286Y-103730057D02*
X142711905Y-103682438D01*
X142711905Y-103682438D02*
X142807143Y-103634819D01*
X142807143Y-103634819D02*
X143045238Y-103634819D01*
X143045238Y-103634819D02*
X143188095Y-103682438D01*
X143521429Y-103634819D02*
X143759524Y-104634819D01*
X143759524Y-104634819D02*
X143950000Y-103920533D01*
X143950000Y-103920533D02*
X144140476Y-104634819D01*
X144140476Y-104634819D02*
X144378572Y-103634819D01*
X144711905Y-103730057D02*
X144759524Y-103682438D01*
X144759524Y-103682438D02*
X144854762Y-103634819D01*
X144854762Y-103634819D02*
X145092857Y-103634819D01*
X145092857Y-103634819D02*
X145188095Y-103682438D01*
X145188095Y-103682438D02*
X145235714Y-103730057D01*
X145235714Y-103730057D02*
X145283333Y-103825295D01*
X145283333Y-103825295D02*
X145283333Y-103920533D01*
X145283333Y-103920533D02*
X145235714Y-104063390D01*
X145235714Y-104063390D02*
X144664286Y-104634819D01*
X144664286Y-104634819D02*
X145283333Y-104634819D01*
X130353819Y-97863333D02*
X131068104Y-97863333D01*
X131068104Y-97863333D02*
X131210961Y-97910952D01*
X131210961Y-97910952D02*
X131306200Y-98006190D01*
X131306200Y-98006190D02*
X131353819Y-98149047D01*
X131353819Y-98149047D02*
X131353819Y-98244285D01*
X131353819Y-96863333D02*
X131353819Y-97434761D01*
X131353819Y-97149047D02*
X130353819Y-97149047D01*
X130353819Y-97149047D02*
X130496676Y-97244285D01*
X130496676Y-97244285D02*
X130591914Y-97339523D01*
X130591914Y-97339523D02*
X130639533Y-97434761D01*
X142616667Y-113717200D02*
X142759524Y-113764819D01*
X142759524Y-113764819D02*
X142997619Y-113764819D01*
X142997619Y-113764819D02*
X143092857Y-113717200D01*
X143092857Y-113717200D02*
X143140476Y-113669580D01*
X143140476Y-113669580D02*
X143188095Y-113574342D01*
X143188095Y-113574342D02*
X143188095Y-113479104D01*
X143188095Y-113479104D02*
X143140476Y-113383866D01*
X143140476Y-113383866D02*
X143092857Y-113336247D01*
X143092857Y-113336247D02*
X142997619Y-113288628D01*
X142997619Y-113288628D02*
X142807143Y-113241009D01*
X142807143Y-113241009D02*
X142711905Y-113193390D01*
X142711905Y-113193390D02*
X142664286Y-113145771D01*
X142664286Y-113145771D02*
X142616667Y-113050533D01*
X142616667Y-113050533D02*
X142616667Y-112955295D01*
X142616667Y-112955295D02*
X142664286Y-112860057D01*
X142664286Y-112860057D02*
X142711905Y-112812438D01*
X142711905Y-112812438D02*
X142807143Y-112764819D01*
X142807143Y-112764819D02*
X143045238Y-112764819D01*
X143045238Y-112764819D02*
X143188095Y-112812438D01*
X143521429Y-112764819D02*
X143759524Y-113764819D01*
X143759524Y-113764819D02*
X143950000Y-113050533D01*
X143950000Y-113050533D02*
X144140476Y-113764819D01*
X144140476Y-113764819D02*
X144378572Y-112764819D01*
X144664286Y-112764819D02*
X145283333Y-112764819D01*
X145283333Y-112764819D02*
X144950000Y-113145771D01*
X144950000Y-113145771D02*
X145092857Y-113145771D01*
X145092857Y-113145771D02*
X145188095Y-113193390D01*
X145188095Y-113193390D02*
X145235714Y-113241009D01*
X145235714Y-113241009D02*
X145283333Y-113336247D01*
X145283333Y-113336247D02*
X145283333Y-113574342D01*
X145283333Y-113574342D02*
X145235714Y-113669580D01*
X145235714Y-113669580D02*
X145188095Y-113717200D01*
X145188095Y-113717200D02*
X145092857Y-113764819D01*
X145092857Y-113764819D02*
X144807143Y-113764819D01*
X144807143Y-113764819D02*
X144711905Y-113717200D01*
X144711905Y-113717200D02*
X144664286Y-113669580D01*
X132038095Y-115204819D02*
X132038095Y-114204819D01*
X132038095Y-114681009D02*
X132609523Y-114681009D01*
X132609523Y-115204819D02*
X132609523Y-114204819D01*
X133514285Y-114538152D02*
X133514285Y-115204819D01*
X133276190Y-114157200D02*
X133038095Y-114871485D01*
X133038095Y-114871485D02*
X133657142Y-114871485D01*
%TO.C,U3*%
D11*
X145220000Y-91550000D02*
X160520000Y-91550000D01*
X160520000Y-81250000D01*
X145220000Y-81250000D01*
X145220000Y-91550000D01*
D12*
X147070000Y-91900000D02*
X148570000Y-91900000D01*
D11*
%TO.C,SW1*%
X141750000Y-95800000D02*
X141750000Y-95920000D01*
X141750000Y-96930000D02*
X141750000Y-98070000D01*
X141750000Y-99080000D02*
X141750000Y-99200000D01*
X141750000Y-99200000D02*
X146150000Y-99200000D01*
X146150000Y-95800000D02*
X141750000Y-95800000D01*
X146150000Y-95920000D02*
X146150000Y-95800000D01*
X146150000Y-98070000D02*
X146150000Y-96930000D01*
X146150000Y-99200000D02*
X146150000Y-99080000D01*
%TO.C,SW5*%
X150950000Y-105000000D02*
X150950000Y-105120000D01*
X150950000Y-106130000D02*
X150950000Y-107270000D01*
X150950000Y-108280000D02*
X150950000Y-108400000D01*
X150950000Y-108400000D02*
X155350000Y-108400000D01*
X155350000Y-105000000D02*
X150950000Y-105000000D01*
X155350000Y-105120000D02*
X155350000Y-105000000D01*
X155350000Y-107270000D02*
X155350000Y-106130000D01*
X155350000Y-108400000D02*
X155350000Y-108280000D01*
%TO.C,SW4*%
X132550000Y-105000000D02*
X132550000Y-105120000D01*
X132550000Y-106130000D02*
X132550000Y-107270000D01*
X132550000Y-108280000D02*
X132550000Y-108400000D01*
X132550000Y-108400000D02*
X136950000Y-108400000D01*
X136950000Y-105000000D02*
X132550000Y-105000000D01*
X136950000Y-105120000D02*
X136950000Y-105000000D01*
X136950000Y-107270000D02*
X136950000Y-106130000D01*
X136950000Y-108400000D02*
X136950000Y-108280000D01*
%TO.C,SW6*%
X154800000Y-114175000D02*
X154800000Y-118575000D01*
X154800000Y-118575000D02*
X154920000Y-118575000D01*
X154920000Y-114175000D02*
X154800000Y-114175000D01*
X155930000Y-118575000D02*
X157070000Y-118575000D01*
X157070000Y-114175000D02*
X155930000Y-114175000D01*
X158080000Y-118575000D02*
X158200000Y-118575000D01*
X158200000Y-114175000D02*
X158080000Y-114175000D01*
X158200000Y-118575000D02*
X158200000Y-114175000D01*
D12*
%TO.C,U2*%
X131830000Y-91900000D02*
X133330000Y-91900000D01*
D11*
X129980000Y-91550000D02*
X145280000Y-91550000D01*
X145280000Y-81250000D01*
X129980000Y-81250000D01*
X129980000Y-91550000D01*
%TO.C,SW2*%
X141750000Y-105000000D02*
X141750000Y-105120000D01*
X141750000Y-106130000D02*
X141750000Y-107270000D01*
X141750000Y-108280000D02*
X141750000Y-108400000D01*
X141750000Y-108400000D02*
X146150000Y-108400000D01*
X146150000Y-105000000D02*
X141750000Y-105000000D01*
X146150000Y-105120000D02*
X146150000Y-105000000D01*
X146150000Y-107270000D02*
X146150000Y-106130000D01*
X146150000Y-108400000D02*
X146150000Y-108280000D01*
%TO.C,J1*%
X132150000Y-94930000D02*
X133480000Y-94930000D01*
X132150000Y-96260000D02*
X132150000Y-94930000D01*
X132150000Y-97530000D02*
X134750000Y-97530000D01*
X132150000Y-100130000D02*
X132150000Y-97530000D01*
X132150000Y-100130000D02*
X137350000Y-100130000D01*
X134750000Y-94930000D02*
X137350000Y-94930000D01*
X134750000Y-97530000D02*
X134750000Y-94930000D01*
X137350000Y-100130000D02*
X137350000Y-94930000D01*
%TO.C,SW3*%
X141750000Y-114210000D02*
X141750000Y-114330000D01*
X141750000Y-115340000D02*
X141750000Y-116480000D01*
X141750000Y-117490000D02*
X141750000Y-117610000D01*
X141750000Y-117610000D02*
X146150000Y-117610000D01*
X146150000Y-114210000D02*
X141750000Y-114210000D01*
X146150000Y-114330000D02*
X146150000Y-114210000D01*
X146150000Y-116480000D02*
X146150000Y-115340000D01*
X146150000Y-117610000D02*
X146150000Y-117490000D01*
%TD*%
M02*
