%TF.GenerationSoftware,KiCad,Pcbnew,9.0.1*%
%TF.CreationDate,2025-07-06T22:17:39-07:00*%
%TF.ProjectId,pcb,7063622e-6b69-4636-9164-5f7063625858,rev?*%
%TF.SameCoordinates,Original*%
%TF.FileFunction,Copper,L1,Top*%
%TF.FilePolarity,Positive*%
%FSLAX46Y46*%
G04 Gerber Fmt 4.6, Leading zero omitted, Abs format (unit mm)*
G04 Created by KiCad (PCBNEW 9.0.1) date 2025-07-06 22:17:39*
%MOMM*%
%LPD*%
G01*
G04 APERTURE LIST*
G04 Aperture macros list*
%AMRoundRect*
0 Rectangle with rounded corners*
0 $1 Rounding radius*
0 $2 $3 $4 $5 $6 $7 $8 $9 X,Y pos of 4 corners*
0 Add a 4 corners polygon primitive as box body*
4,1,4,$2,$3,$4,$5,$6,$7,$8,$9,$2,$3,0*
0 Add four circle primitives for the rounded corners*
1,1,$1+$1,$2,$3*
1,1,$1+$1,$4,$5*
1,1,$1+$1,$6,$7*
1,1,$1+$1,$8,$9*
0 Add four rect primitives between the rounded corners*
20,1,$1+$1,$2,$3,$4,$5,0*
20,1,$1+$1,$4,$5,$6,$7,0*
20,1,$1+$1,$6,$7,$8,$9,0*
20,1,$1+$1,$8,$9,$2,$3,0*%
G04 Aperture macros list end*
%TA.AperFunction,ComponentPad*%
%ADD10C,1.500000*%
%TD*%
%TA.AperFunction,ComponentPad*%
%ADD11RoundRect,0.225000X0.525000X-0.525000X0.525000X0.525000X-0.525000X0.525000X-0.525000X-0.525000X0*%
%TD*%
%TA.AperFunction,SMDPad,CuDef*%
%ADD12R,1.050000X0.650000*%
%TD*%
%TA.AperFunction,ComponentPad*%
%ADD13C,3.100000*%
%TD*%
%TA.AperFunction,ConnectorPad*%
%ADD14C,4.500000*%
%TD*%
%TA.AperFunction,SMDPad,CuDef*%
%ADD15R,0.650000X1.050000*%
%TD*%
%TA.AperFunction,ComponentPad*%
%ADD16R,1.700000X1.700000*%
%TD*%
%TA.AperFunction,ComponentPad*%
%ADD17C,1.700000*%
%TD*%
%TA.AperFunction,ViaPad*%
%ADD18C,0.700000*%
%TD*%
%TA.AperFunction,ViaPad*%
%ADD19C,0.600000*%
%TD*%
%TA.AperFunction,Conductor*%
%ADD20C,0.200000*%
%TD*%
%TA.AperFunction,Conductor*%
%ADD21C,0.500000*%
%TD*%
%TA.AperFunction,Conductor*%
%ADD22C,0.300000*%
%TD*%
%TA.AperFunction,Conductor*%
%ADD23C,0.400000*%
%TD*%
%TA.AperFunction,Conductor*%
%ADD24C,1.000000*%
%TD*%
G04 APERTURE END LIST*
D10*
%TO.P,U3,10,CA_D1*%
%TO.N,Net-(D4-A)*%
X147790000Y-82590000D03*
%TO.P,U3,9,g*%
%TO.N,/SEG6*%
X150330000Y-82590000D03*
%TO.P,U3,8,f*%
%TO.N,/SEG5*%
X152870000Y-82590000D03*
%TO.P,U3,7,a*%
%TO.N,/SEG0*%
X155410000Y-82590000D03*
%TO.P,U3,6,b*%
%TO.N,/SEG1*%
X157950000Y-82590000D03*
%TO.P,U3,5,CA_D2*%
%TO.N,Net-(D3-A)*%
X157950000Y-90210000D03*
%TO.P,U3,4,c*%
%TO.N,/SEG2*%
X155410000Y-90210000D03*
%TO.P,U3,3,e*%
%TO.N,/SEG4*%
X152870000Y-90210000D03*
%TO.P,U3,2,DP*%
%TO.N,/SEG7*%
X150330000Y-90210000D03*
D11*
%TO.P,U3,1,d*%
%TO.N,/SEG3*%
X147790000Y-90210000D03*
%TD*%
D12*
%TO.P,SW1,1,1*%
%TO.N,/SEG3*%
X141875000Y-96425000D03*
X146025000Y-96425000D03*
%TO.P,SW1,2,2*%
%TO.N,Net-(R10-Pad1)*%
X141875000Y-98575000D03*
X146025000Y-98575000D03*
%TD*%
%TO.P,SW5,1,1*%
%TO.N,/SEG7*%
X155225000Y-107775000D03*
X151075000Y-107775000D03*
%TO.P,SW5,2,2*%
%TO.N,Net-(R9-Pad1)*%
X155225000Y-105625000D03*
X151075000Y-105625000D03*
%TD*%
%TO.P,SW4,1,1*%
%TO.N,/SEG6*%
X132675000Y-105625000D03*
X136825000Y-105625000D03*
%TO.P,SW4,2,2*%
%TO.N,Net-(R9-Pad1)*%
X132675000Y-107775000D03*
X136825000Y-107775000D03*
%TD*%
D13*
%TO.P,H3,1,1*%
%TO.N,GND*%
X156800000Y-94500000D03*
D14*
X156800000Y-94500000D03*
%TD*%
D15*
%TO.P,SW6,1,1*%
%TO.N,/SEG3*%
X155425000Y-118450000D03*
X155425000Y-114300000D03*
%TO.P,SW6,2,2*%
%TO.N,Net-(R9-Pad1)*%
X157575000Y-118450000D03*
X157575000Y-114300000D03*
%TD*%
D11*
%TO.P,U2,1,d*%
%TO.N,/SEG3*%
X132550000Y-90210000D03*
D10*
%TO.P,U2,2,DP*%
%TO.N,/SEG7*%
X135090000Y-90210000D03*
%TO.P,U2,3,e*%
%TO.N,/SEG4*%
X137630000Y-90210000D03*
%TO.P,U2,4,c*%
%TO.N,/SEG2*%
X140170000Y-90210000D03*
%TO.P,U2,5,CA_D2*%
%TO.N,Net-(D2-A)*%
X142710000Y-90210000D03*
%TO.P,U2,6,b*%
%TO.N,/SEG1*%
X142710000Y-82590000D03*
%TO.P,U2,7,a*%
%TO.N,/SEG0*%
X140170000Y-82590000D03*
%TO.P,U2,8,f*%
%TO.N,/SEG5*%
X137630000Y-82590000D03*
%TO.P,U2,9,g*%
%TO.N,/SEG6*%
X135090000Y-82590000D03*
%TO.P,U2,10,CA_D1*%
%TO.N,Net-(D1-A)*%
X132550000Y-82590000D03*
%TD*%
D12*
%TO.P,SW2,1,1*%
%TO.N,/SEG4*%
X146025000Y-107775000D03*
X141875000Y-107775000D03*
%TO.P,SW2,2,2*%
%TO.N,Net-(R10-Pad1)*%
X146025000Y-105625000D03*
X141875000Y-105625000D03*
%TD*%
D16*
%TO.P,J1,1,Pin_1*%
%TO.N,GND*%
X133480000Y-96260000D03*
D17*
%TO.P,J1,2,Pin_2*%
%TO.N,/SCL*%
X133480000Y-98800000D03*
%TO.P,J1,3,Pin_3*%
%TO.N,/SDA*%
X136020000Y-96260000D03*
%TO.P,J1,4,Pin_4*%
%TO.N,+5V*%
X136020000Y-98800000D03*
%TD*%
D12*
%TO.P,SW3,1,1*%
%TO.N,/SEG4*%
X141875000Y-114835000D03*
X146025000Y-114835000D03*
%TO.P,SW3,2,2*%
%TO.N,Net-(R9-Pad1)*%
X141875000Y-116985000D03*
X146025000Y-116985000D03*
%TD*%
D13*
%TO.P,H4,1,1*%
%TO.N,GND*%
X132800000Y-118000000D03*
D14*
X132800000Y-118000000D03*
%TD*%
D18*
%TO.N,GND*%
X131250000Y-113020000D03*
X131250000Y-114544000D03*
X140668000Y-119624000D03*
X139144000Y-119624000D03*
X137620000Y-119624000D03*
X136096000Y-119624000D03*
%TO.N,Net-(D1-A)*%
X131724500Y-101195500D03*
%TO.N,/SEG2*%
X156426000Y-109895000D03*
%TO.N,/SEG3*%
X151092000Y-114086000D03*
%TO.N,/SEG4*%
X137503000Y-110612000D03*
%TO.N,/SEG6*%
X136868000Y-104307000D03*
%TO.N,/SEG7*%
X156045000Y-108498000D03*
D19*
%TO.N,Net-(R9-Pad1)*%
X154267000Y-104688000D03*
%TO.N,Net-(R10-Pad1)*%
X139789000Y-105323000D03*
%TD*%
D20*
%TO.N,GND*%
X131250000Y-113020000D02*
X131250000Y-114544000D01*
X131250000Y-114544000D02*
X131250000Y-116450000D01*
%TO.N,/SEG6*%
X131099000Y-92315000D02*
X131280000Y-92496000D01*
%TO.N,/SEG4*%
X131499000Y-91318000D02*
X131788000Y-91607000D01*
D21*
%TO.N,/SEG3*%
X147790000Y-90210000D02*
X146266000Y-90210000D01*
X146266000Y-90210000D02*
X143726000Y-92750000D01*
X143726000Y-92750000D02*
X135563343Y-92750000D01*
X135563343Y-92750000D02*
X133023343Y-90210000D01*
%TO.N,/SEG7*%
X135090000Y-90210000D02*
X136868000Y-91988000D01*
X136868000Y-91988000D02*
X143218000Y-91988000D01*
X143218000Y-91988000D02*
X146647000Y-88559000D01*
X146647000Y-88559000D02*
X148679000Y-88559000D01*
X148679000Y-88559000D02*
X150330000Y-90210000D01*
D22*
%TO.N,/SEG4*%
X137630000Y-90210000D02*
X138773000Y-91353000D01*
X138773000Y-91353000D02*
X140932000Y-91353000D01*
X140932000Y-91353000D02*
X141440000Y-90845000D01*
D20*
X137630000Y-90210000D02*
X136360000Y-88940000D01*
X136360000Y-88940000D02*
X132019890Y-88940000D01*
X132019890Y-88940000D02*
X131499000Y-89460890D01*
X131499000Y-89460890D02*
X131499000Y-91318000D01*
D23*
X131788000Y-91607000D02*
X133693000Y-93512000D01*
D20*
%TO.N,Net-(R9-Pad1)*%
X146025000Y-116985000D02*
X146225000Y-116985000D01*
D21*
X146750000Y-116460000D02*
X151561000Y-116460000D01*
X146225000Y-116985000D02*
X146750000Y-116460000D01*
X151561000Y-116460000D02*
X154775000Y-119674000D01*
X154775000Y-119674000D02*
X156351000Y-119674000D01*
X156351000Y-119674000D02*
X157575000Y-118450000D01*
D20*
%TO.N,/SEG6*%
X135090000Y-82590000D02*
X134455000Y-82590000D01*
X136825000Y-104350000D02*
X136868000Y-104307000D01*
D21*
X133058000Y-94274000D02*
X136227445Y-94274000D01*
D20*
X134455000Y-82590000D02*
X131099000Y-85946000D01*
X131099000Y-85946000D02*
X131099000Y-92315000D01*
D21*
X136227445Y-94274000D02*
X137571000Y-95617555D01*
X137571000Y-95617555D02*
X137571000Y-103604000D01*
X137571000Y-103604000D02*
X136868000Y-104307000D01*
X131280000Y-92496000D02*
X133058000Y-94274000D01*
X136825000Y-105625000D02*
X136825000Y-104350000D01*
%TO.N,/SEG4*%
X138646000Y-107863000D02*
X138646000Y-108371000D01*
X138646000Y-108371000D02*
X137503000Y-109514000D01*
X137503000Y-109514000D02*
X137503000Y-110612000D01*
D20*
X141875000Y-114835000D02*
X141675000Y-114835000D01*
X137503000Y-110663000D02*
X137503000Y-110612000D01*
D21*
X141675000Y-114835000D02*
X137503000Y-110663000D01*
D20*
%TO.N,Net-(D1-A)*%
X131724500Y-101195500D02*
X130699000Y-100170000D01*
X130699000Y-100170000D02*
X130699000Y-84441000D01*
X130699000Y-84441000D02*
X132550000Y-82590000D01*
%TO.N,GND*%
X133480000Y-96260000D02*
X131915000Y-97825000D01*
X131915000Y-97825000D02*
X131915000Y-99735000D01*
X131915000Y-99735000D02*
X132423000Y-100243000D01*
X132423000Y-100243000D02*
X132423000Y-104112000D01*
X132423000Y-104112000D02*
X131250000Y-105285000D01*
X131250000Y-105285000D02*
X131250000Y-113020000D01*
X131250000Y-116450000D02*
X132800000Y-118000000D01*
D21*
%TO.N,/SEG2*%
X157061000Y-109260000D02*
X157188000Y-109133000D01*
X153505000Y-99984950D02*
X153505000Y-92115000D01*
X157188000Y-109133000D02*
X157188000Y-103667950D01*
X157188000Y-103667950D02*
X153505000Y-99984950D01*
X153505000Y-92115000D02*
X155410000Y-90210000D01*
D22*
%TO.N,/SEG5*%
X150965000Y-80685000D02*
X139535000Y-80685000D01*
%TO.N,/SEG4*%
X141440000Y-89829000D02*
X142329000Y-88940000D01*
D21*
%TO.N,/SEG2*%
X140170000Y-90210000D02*
X140170000Y-89829000D01*
X140170000Y-89829000D02*
X144107000Y-85892000D01*
X144107000Y-85892000D02*
X151092000Y-85892000D01*
X151092000Y-85892000D02*
X155410000Y-90210000D01*
D20*
%TO.N,/SEG6*%
X135090000Y-82590000D02*
X136360000Y-83860000D01*
X136360000Y-83860000D02*
X140678000Y-83860000D01*
X140678000Y-83860000D02*
X141440000Y-83098000D01*
X141440000Y-83098000D02*
X141440000Y-81955000D01*
D23*
X141440000Y-81955000D02*
X142075000Y-81320000D01*
X142075000Y-81320000D02*
X149060000Y-81320000D01*
X149060000Y-81320000D02*
X150330000Y-82590000D01*
D22*
%TO.N,/SEG5*%
X152870000Y-82590000D02*
X150965000Y-80685000D01*
X139535000Y-80685000D02*
X137630000Y-82590000D01*
D21*
%TO.N,/SEG4*%
X141875000Y-107775000D02*
X138734000Y-107775000D01*
D20*
X138734000Y-107775000D02*
X138646000Y-107863000D01*
D21*
X138646000Y-95544000D02*
X138646000Y-107863000D01*
D23*
X133693000Y-93512000D02*
X136614000Y-93512000D01*
X136614000Y-93512000D02*
X138646000Y-95544000D01*
D20*
%TO.N,/SEG3*%
X133023343Y-90210000D02*
X132550000Y-90210000D01*
D23*
%TO.N,/SEG4*%
X141440000Y-90845000D02*
X141440000Y-89829000D01*
D21*
X142329000Y-88940000D02*
X144107000Y-87162000D01*
X144107000Y-87162000D02*
X149822000Y-87162000D01*
X149822000Y-87162000D02*
X152870000Y-90210000D01*
%TO.N,/SEG1*%
X142710000Y-82590000D02*
X144615000Y-84495000D01*
X144615000Y-84495000D02*
X156045000Y-84495000D01*
X156045000Y-84495000D02*
X157950000Y-82590000D01*
%TO.N,Net-(R10-Pad1)*%
X141875000Y-105625000D02*
X141875000Y-98575000D01*
X140091000Y-105625000D02*
X139789000Y-105323000D01*
X141875000Y-105625000D02*
X140091000Y-105625000D01*
D20*
%TO.N,GND*%
X159899000Y-118741000D02*
X159899000Y-97599000D01*
X135109000Y-120309000D02*
X158331000Y-120309000D01*
X132800000Y-118000000D02*
X135109000Y-120309000D01*
X159899000Y-97599000D02*
X156800000Y-94500000D01*
X158331000Y-120309000D02*
X159899000Y-118741000D01*
D21*
%TO.N,/SEG2*%
X156426000Y-109895000D02*
X157061000Y-109260000D01*
%TO.N,/SEG3*%
X151306000Y-114300000D02*
X151092000Y-114086000D01*
X155425000Y-118450000D02*
X155425000Y-114300000D01*
X141875000Y-96425000D02*
X146025000Y-96425000D01*
X146025000Y-96425000D02*
X147655000Y-96425000D01*
X155425000Y-114300000D02*
X151306000Y-114300000D01*
D24*
X147790000Y-90210000D02*
X147790000Y-96560000D01*
X147790000Y-96560000D02*
X147790000Y-110784000D01*
D21*
X147790000Y-110784000D02*
X151092000Y-114086000D01*
D20*
X147655000Y-96425000D02*
X147790000Y-96560000D01*
D21*
%TO.N,/SEG4*%
X146025000Y-107775000D02*
X141875000Y-107775000D01*
X141875000Y-114835000D02*
X146025000Y-114835000D01*
%TO.N,/SEG6*%
X132675000Y-105625000D02*
X136825000Y-105625000D01*
D20*
%TO.N,/SEG7*%
X155225000Y-107775000D02*
X155425000Y-107775000D01*
X156045000Y-108395000D02*
X156045000Y-108498000D01*
D21*
X156426000Y-104815000D02*
X156426000Y-108117000D01*
X156426000Y-108117000D02*
X156045000Y-108498000D01*
X155425000Y-107775000D02*
X156045000Y-108395000D01*
X150330000Y-90210000D02*
X150330000Y-98719000D01*
X151075000Y-107775000D02*
X155225000Y-107775000D01*
X150330000Y-98719000D02*
X156426000Y-104815000D01*
%TO.N,Net-(R9-Pad1)*%
X134781000Y-109819000D02*
X136825000Y-107775000D01*
X151075000Y-105625000D02*
X149695000Y-107005000D01*
D20*
X157575000Y-113838000D02*
X157575000Y-114300000D01*
D21*
X157575000Y-118450000D02*
X157575000Y-114300000D01*
D20*
X132675000Y-107775000D02*
X132675000Y-107785000D01*
D21*
X150884000Y-111084000D02*
X154821000Y-111084000D01*
X149695000Y-107005000D02*
X149695000Y-109895000D01*
X154288000Y-104688000D02*
X155225000Y-105625000D01*
X141875000Y-116985000D02*
X134709000Y-109819000D01*
X154821000Y-111084000D02*
X157575000Y-113838000D01*
D20*
X134709000Y-109819000D02*
X134781000Y-109819000D01*
D21*
X149695000Y-109895000D02*
X150884000Y-111084000D01*
D20*
X154267000Y-104688000D02*
X154288000Y-104688000D01*
D21*
X132675000Y-107785000D02*
X134709000Y-109819000D01*
X155225000Y-105625000D02*
X151075000Y-105625000D01*
X146025000Y-116985000D02*
X141875000Y-116985000D01*
%TO.N,Net-(R10-Pad1)*%
X141875000Y-105625000D02*
X146025000Y-105625000D01*
X141875000Y-98575000D02*
X146025000Y-98575000D01*
%TD*%
%TA.AperFunction,Conductor*%
%TO.N,GND*%
G36*
X131770278Y-118879466D02*
G01*
X131920534Y-119029722D01*
X132038281Y-119115270D01*
X131039845Y-120113706D01*
X131206142Y-120246323D01*
X131206144Y-120246324D01*
X131244629Y-120270506D01*
X131290920Y-120322841D01*
X131301568Y-120391894D01*
X131273193Y-120455743D01*
X131214803Y-120494115D01*
X131178657Y-120499500D01*
X130624500Y-120499500D01*
X130557461Y-120479815D01*
X130511706Y-120427011D01*
X130500500Y-120375500D01*
X130500500Y-119880878D01*
X130520185Y-119813839D01*
X130572989Y-119768084D01*
X130631453Y-119757073D01*
X130686293Y-119760152D01*
X131684728Y-118761716D01*
X131770278Y-118879466D01*
G37*
%TD.AperFunction*%
%TA.AperFunction,Conductor*%
G36*
X130705703Y-101026384D02*
G01*
X130712181Y-101032416D01*
X130717001Y-101037236D01*
X130742834Y-101075012D01*
X130935250Y-101512686D01*
X130935260Y-101512709D01*
X130936241Y-101514939D01*
X130970797Y-101598363D01*
X130982379Y-101615696D01*
X130984410Y-101619823D01*
X130985375Y-101621587D01*
X130985585Y-101621896D01*
X130985586Y-101621898D01*
X131040789Y-101703122D01*
X131041334Y-101703930D01*
X131063875Y-101737663D01*
X131063878Y-101737667D01*
X131182337Y-101856126D01*
X131240973Y-101895305D01*
X131321637Y-101949203D01*
X131476418Y-102013316D01*
X131640728Y-102045999D01*
X131640732Y-102046000D01*
X131640733Y-102046000D01*
X131808268Y-102046000D01*
X131808269Y-102045999D01*
X131972582Y-102013316D01*
X132127363Y-101949203D01*
X132266662Y-101856126D01*
X132266665Y-101856123D01*
X132306319Y-101816470D01*
X132367642Y-101782985D01*
X132437334Y-101787969D01*
X132493267Y-101829841D01*
X132517684Y-101895305D01*
X132518000Y-101904151D01*
X132518000Y-104027051D01*
X132518001Y-104027086D01*
X132518001Y-104099986D01*
X132498316Y-104167025D01*
X132481682Y-104187667D01*
X132438480Y-104230869D01*
X132425957Y-104243847D01*
X132419945Y-104250304D01*
X132407851Y-104263767D01*
X132330066Y-104384804D01*
X132330056Y-104384822D01*
X132301298Y-104447796D01*
X132301045Y-104448345D01*
X132260505Y-104586418D01*
X132260505Y-104675500D01*
X132240820Y-104742539D01*
X132188016Y-104788294D01*
X132136508Y-104799500D01*
X132102131Y-104799500D01*
X132102123Y-104799501D01*
X132042516Y-104805908D01*
X131907671Y-104856202D01*
X131907664Y-104856206D01*
X131792455Y-104942452D01*
X131792452Y-104942455D01*
X131706206Y-105057664D01*
X131706202Y-105057671D01*
X131655910Y-105192513D01*
X131655909Y-105192517D01*
X131649500Y-105252127D01*
X131649500Y-105252134D01*
X131649500Y-105252135D01*
X131649500Y-105997870D01*
X131649501Y-105997876D01*
X131655908Y-106057482D01*
X131657676Y-106064960D01*
X131661000Y-106093479D01*
X131661000Y-107252066D01*
X131665536Y-107260374D01*
X131660554Y-107330059D01*
X131655910Y-107342510D01*
X131655909Y-107342516D01*
X131655909Y-107342517D01*
X131649500Y-107402127D01*
X131649500Y-107402134D01*
X131649500Y-107402135D01*
X131649500Y-108147870D01*
X131649501Y-108147876D01*
X131655908Y-108207483D01*
X131706202Y-108342328D01*
X131706206Y-108342335D01*
X131775358Y-108434709D01*
X131792454Y-108457546D01*
X131870113Y-108515681D01*
X131888958Y-108540856D01*
X131909246Y-108564884D01*
X131910325Y-108569399D01*
X131911983Y-108571614D01*
X131918755Y-108598873D01*
X131919500Y-108604571D01*
X131919500Y-108606000D01*
X131931051Y-108713447D01*
X131936889Y-108740285D01*
X131936890Y-108740290D01*
X131987171Y-108875098D01*
X132073396Y-108990280D01*
X132073400Y-108990284D01*
X132073405Y-108990290D01*
X140280853Y-117197738D01*
X140280877Y-117197761D01*
X140293839Y-117210270D01*
X140300317Y-117216302D01*
X140313765Y-117228383D01*
X140434805Y-117306170D01*
X140434810Y-117306172D01*
X140434815Y-117306175D01*
X140463528Y-117319287D01*
X140497938Y-117335002D01*
X140498349Y-117335191D01*
X140498358Y-117335193D01*
X140498361Y-117335195D01*
X140498364Y-117335197D01*
X140636417Y-117375731D01*
X140754239Y-117375730D01*
X140821279Y-117395414D01*
X140867034Y-117448218D01*
X140870422Y-117456396D01*
X140906203Y-117552330D01*
X140906206Y-117552335D01*
X140975358Y-117644709D01*
X140992454Y-117667546D01*
X141070113Y-117725681D01*
X141089247Y-117751242D01*
X141109638Y-117775784D01*
X141110561Y-117779714D01*
X141111983Y-117781614D01*
X141118878Y-117809847D01*
X141119500Y-117814917D01*
X141119500Y-117816000D01*
X141131051Y-117923447D01*
X141134109Y-117937505D01*
X141134110Y-117937510D01*
X141134750Y-117939227D01*
X141134751Y-117939230D01*
X141163754Y-118016988D01*
X141183876Y-118070938D01*
X141184392Y-118072320D01*
X141192927Y-118083721D01*
X141270616Y-118187500D01*
X141270620Y-118187504D01*
X141270625Y-118187510D01*
X141880853Y-118797737D01*
X142443239Y-119360123D01*
X142443255Y-119360137D01*
X142443262Y-119360144D01*
X142483480Y-119396271D01*
X142483492Y-119396281D01*
X142483500Y-119396288D01*
X142498778Y-119408600D01*
X142504143Y-119412923D01*
X142526084Y-119428744D01*
X142548026Y-119444567D01*
X142678903Y-119504338D01*
X142745942Y-119524023D01*
X142745946Y-119524024D01*
X142888362Y-119544500D01*
X142888365Y-119544500D01*
X148571600Y-119544500D01*
X148583958Y-119543970D01*
X148614866Y-119542645D01*
X148636015Y-119540828D01*
X148678960Y-119535277D01*
X148815797Y-119490811D01*
X148851605Y-119473204D01*
X148920451Y-119461287D01*
X148984811Y-119488482D01*
X149006636Y-119511590D01*
X149029207Y-119542656D01*
X149029208Y-119542657D01*
X149029209Y-119542658D01*
X149207345Y-119720794D01*
X149207350Y-119720798D01*
X149335411Y-119813839D01*
X149411155Y-119868870D01*
X149554184Y-119941747D01*
X149635616Y-119983239D01*
X149635618Y-119983239D01*
X149635621Y-119983241D01*
X149875215Y-120061090D01*
X150124038Y-120100500D01*
X150124039Y-120100500D01*
X150375961Y-120100500D01*
X150375962Y-120100500D01*
X150624785Y-120061090D01*
X150864379Y-119983241D01*
X151088845Y-119868870D01*
X151292656Y-119720793D01*
X151470793Y-119542656D01*
X151493923Y-119510819D01*
X151549249Y-119468155D01*
X151618862Y-119462174D01*
X151645749Y-119470909D01*
X151718945Y-119504338D01*
X151785984Y-119524023D01*
X151785988Y-119524024D01*
X151928404Y-119544500D01*
X153532771Y-119544500D01*
X153599810Y-119564185D01*
X153620452Y-119580819D01*
X154192048Y-120152415D01*
X154192049Y-120152416D01*
X154296584Y-120256951D01*
X154327821Y-120277823D01*
X154334993Y-120284454D01*
X154348113Y-120306394D01*
X154364506Y-120326009D01*
X154365745Y-120335879D01*
X154370853Y-120344420D01*
X154370028Y-120369974D01*
X154373214Y-120395334D01*
X154368920Y-120404307D01*
X154368600Y-120414253D01*
X154354091Y-120435304D01*
X154343060Y-120458362D01*
X154334596Y-120463590D01*
X154328950Y-120471783D01*
X154305365Y-120481647D01*
X154283617Y-120495082D01*
X154268318Y-120497142D01*
X154264491Y-120498743D01*
X154261007Y-120498126D01*
X154250811Y-120499500D01*
X134421343Y-120499500D01*
X134354304Y-120479815D01*
X134308549Y-120427011D01*
X134298605Y-120357853D01*
X134327630Y-120294297D01*
X134355371Y-120270506D01*
X134393851Y-120246326D01*
X134560153Y-120113706D01*
X133561717Y-119115270D01*
X133679466Y-119029722D01*
X133829722Y-118879466D01*
X133915270Y-118761717D01*
X134913706Y-119760153D01*
X135046326Y-119593851D01*
X135210658Y-119332320D01*
X135344671Y-119054039D01*
X135446685Y-118762499D01*
X135515416Y-118461367D01*
X135515418Y-118461355D01*
X135549999Y-118154441D01*
X135550000Y-118154439D01*
X135550000Y-117845560D01*
X135549999Y-117845558D01*
X135515418Y-117538644D01*
X135515416Y-117538632D01*
X135446685Y-117237500D01*
X135344671Y-116945960D01*
X135210658Y-116667679D01*
X135046324Y-116406144D01*
X135046323Y-116406142D01*
X134913706Y-116239845D01*
X133915270Y-117238281D01*
X133829722Y-117120534D01*
X133679466Y-116970278D01*
X133561716Y-116884728D01*
X134560152Y-115886293D01*
X134393845Y-115753669D01*
X134132320Y-115589341D01*
X133854039Y-115455328D01*
X133562498Y-115353314D01*
X133562500Y-115353314D01*
X133261367Y-115284583D01*
X133261355Y-115284581D01*
X132954441Y-115250000D01*
X132645558Y-115250000D01*
X132338644Y-115284581D01*
X132338632Y-115284583D01*
X132037500Y-115353314D01*
X131745960Y-115455328D01*
X131467679Y-115589341D01*
X131206144Y-115753675D01*
X131206140Y-115753678D01*
X131039845Y-115886292D01*
X132038282Y-116884729D01*
X131920534Y-116970278D01*
X131770278Y-117120534D01*
X131684729Y-117238282D01*
X130686292Y-116239845D01*
X130631452Y-116242925D01*
X130619252Y-116240075D01*
X130606853Y-116241858D01*
X130585873Y-116232276D01*
X130563414Y-116227030D01*
X130554692Y-116218037D01*
X130543297Y-116212833D01*
X130530827Y-116193429D01*
X130514771Y-116176874D01*
X130511387Y-116163179D01*
X130505523Y-116154055D01*
X130500500Y-116119120D01*
X130500500Y-101120097D01*
X130520185Y-101053058D01*
X130572989Y-101007303D01*
X130642147Y-100997359D01*
X130705703Y-101026384D01*
G37*
%TD.AperFunction*%
%TA.AperFunction,Conductor*%
G36*
X159942539Y-85528185D02*
G01*
X159988294Y-85580989D01*
X159999500Y-85632500D01*
X159999500Y-120375500D01*
X159979815Y-120442539D01*
X159927011Y-120488294D01*
X159875500Y-120499500D01*
X156875190Y-120499500D01*
X156846616Y-120491109D01*
X156817422Y-120485222D01*
X156813453Y-120481371D01*
X156808151Y-120479815D01*
X156788654Y-120457315D01*
X156767273Y-120436573D01*
X156766015Y-120431188D01*
X156762396Y-120427011D01*
X156758157Y-120397534D01*
X156751386Y-120368533D01*
X156753238Y-120363325D01*
X156752452Y-120357853D01*
X156764823Y-120330762D01*
X156774806Y-120302705D01*
X156779857Y-120297844D01*
X156781477Y-120294297D01*
X156799381Y-120277373D01*
X156802762Y-120274760D01*
X156829416Y-120256952D01*
X156841651Y-120244716D01*
X156847921Y-120239873D01*
X156873381Y-120229933D01*
X156897372Y-120216834D01*
X156910574Y-120215414D01*
X156913007Y-120214465D01*
X156915231Y-120214913D01*
X156923730Y-120214000D01*
X157098537Y-120214000D01*
X157098540Y-120214000D01*
X157223555Y-120198297D01*
X157266208Y-120187410D01*
X157282971Y-120183132D01*
X157282972Y-120183131D01*
X157282982Y-120183129D01*
X157400232Y-120136996D01*
X157515413Y-120050771D01*
X157564818Y-120001365D01*
X157651038Y-119886187D01*
X157695089Y-119768084D01*
X157701320Y-119751380D01*
X157701320Y-119751377D01*
X157716172Y-119683106D01*
X157716172Y-119683103D01*
X157716408Y-119680912D01*
X157716488Y-119678684D01*
X157722784Y-119590653D01*
X157747201Y-119525189D01*
X157803134Y-119483317D01*
X157846468Y-119475499D01*
X157947871Y-119475499D01*
X157947872Y-119475499D01*
X158007483Y-119469091D01*
X158081254Y-119441575D01*
X158150944Y-119436590D01*
X158184010Y-119448922D01*
X158304015Y-119514449D01*
X158444607Y-119545032D01*
X158505576Y-119549392D01*
X158514297Y-119550016D01*
X158514299Y-119550016D01*
X158514300Y-119550016D01*
X158523878Y-119549330D01*
X158657810Y-119539752D01*
X158792619Y-119489470D01*
X158853942Y-119455985D01*
X158969123Y-119369761D01*
X159541123Y-118797761D01*
X159577288Y-118757500D01*
X159593922Y-118736858D01*
X159625567Y-118692974D01*
X159685338Y-118562097D01*
X159705023Y-118495058D01*
X159705024Y-118495054D01*
X159725500Y-118352638D01*
X159725500Y-111035000D01*
X159713947Y-110927544D01*
X159702741Y-110876033D01*
X159702637Y-110875722D01*
X159668616Y-110773502D01*
X159668613Y-110773496D01*
X159590828Y-110652462D01*
X159590825Y-110652457D01*
X159590820Y-110652451D01*
X159545076Y-110599659D01*
X159545072Y-110599656D01*
X159545070Y-110599653D01*
X159436336Y-110505433D01*
X159436333Y-110505431D01*
X159436331Y-110505430D01*
X159305465Y-110445664D01*
X159305460Y-110445662D01*
X159305459Y-110445662D01*
X159238420Y-110425977D01*
X159238422Y-110425977D01*
X159238417Y-110425976D01*
X159190944Y-110419150D01*
X159096000Y-110405500D01*
X159095998Y-110405500D01*
X157358061Y-110405500D01*
X157291022Y-110385815D01*
X157245267Y-110333011D01*
X157235323Y-110263853D01*
X157258398Y-110207722D01*
X157353065Y-110079840D01*
X157491647Y-109892637D01*
X157503617Y-109878748D01*
X157529206Y-109853160D01*
X157529211Y-109853156D01*
X157539414Y-109842952D01*
X157539416Y-109842952D01*
X157770951Y-109611416D01*
X157778521Y-109600087D01*
X157853084Y-109488495D01*
X157909658Y-109351913D01*
X157938500Y-109206918D01*
X157938500Y-103594032D01*
X157929244Y-103547500D01*
X157909659Y-103449038D01*
X157855408Y-103318067D01*
X157853764Y-103313472D01*
X157770954Y-103189538D01*
X157770953Y-103189537D01*
X157770951Y-103189534D01*
X157666416Y-103084999D01*
X154291819Y-99710401D01*
X154258334Y-99649078D01*
X154255500Y-99622720D01*
X154255500Y-96049726D01*
X154275185Y-95982687D01*
X154327989Y-95936932D01*
X154397147Y-95926988D01*
X154460703Y-95956013D01*
X154484494Y-95983754D01*
X154553669Y-96093845D01*
X154686293Y-96260152D01*
X155684728Y-95261716D01*
X155770278Y-95379466D01*
X155920534Y-95529722D01*
X156038281Y-95615270D01*
X155039845Y-96613706D01*
X155206142Y-96746323D01*
X155206144Y-96746324D01*
X155467679Y-96910658D01*
X155745960Y-97044671D01*
X156037501Y-97146685D01*
X156037499Y-97146685D01*
X156338632Y-97215416D01*
X156338644Y-97215418D01*
X156645558Y-97249999D01*
X156645560Y-97250000D01*
X156954440Y-97250000D01*
X156954441Y-97249999D01*
X157261355Y-97215418D01*
X157261367Y-97215416D01*
X157562499Y-97146685D01*
X157854039Y-97044671D01*
X158132320Y-96910658D01*
X158393851Y-96746326D01*
X158560153Y-96613706D01*
X157561717Y-95615270D01*
X157679466Y-95529722D01*
X157829722Y-95379466D01*
X157915270Y-95261717D01*
X158913706Y-96260153D01*
X159046326Y-96093851D01*
X159210658Y-95832320D01*
X159344671Y-95554039D01*
X159446685Y-95262499D01*
X159515416Y-94961367D01*
X159515418Y-94961355D01*
X159549999Y-94654441D01*
X159550000Y-94654439D01*
X159550000Y-94345560D01*
X159549999Y-94345558D01*
X159515418Y-94038644D01*
X159515416Y-94038632D01*
X159446685Y-93737500D01*
X159344671Y-93445960D01*
X159210658Y-93167679D01*
X159046324Y-92906144D01*
X159046323Y-92906142D01*
X158913706Y-92739845D01*
X157915270Y-93738281D01*
X157829722Y-93620534D01*
X157679466Y-93470278D01*
X157561716Y-93384728D01*
X158560152Y-92386293D01*
X158393845Y-92253669D01*
X158132320Y-92089341D01*
X157854039Y-91955328D01*
X157562498Y-91853314D01*
X157562500Y-91853314D01*
X157261367Y-91784583D01*
X157261355Y-91784581D01*
X156954441Y-91750000D01*
X156645558Y-91750000D01*
X156338644Y-91784581D01*
X156338632Y-91784583D01*
X156037500Y-91853314D01*
X155745960Y-91955328D01*
X155467679Y-92089341D01*
X155206144Y-92253675D01*
X155206140Y-92253678D01*
X155039845Y-92386292D01*
X156038282Y-93384729D01*
X155920534Y-93470278D01*
X155770278Y-93620534D01*
X155684729Y-93738282D01*
X154686292Y-92739845D01*
X154553678Y-92906140D01*
X154553666Y-92906157D01*
X154484493Y-93016245D01*
X154432159Y-93062536D01*
X154363105Y-93073184D01*
X154299257Y-93044809D01*
X154260885Y-92986419D01*
X154255500Y-92950273D01*
X154255500Y-92477229D01*
X154264144Y-92447788D01*
X154270668Y-92417802D01*
X154274422Y-92412786D01*
X154275185Y-92410190D01*
X154291815Y-92389552D01*
X155188596Y-91492770D01*
X155249917Y-91459287D01*
X155295673Y-91457980D01*
X155311583Y-91460500D01*
X155311584Y-91460500D01*
X155508422Y-91460500D01*
X155702826Y-91429709D01*
X155890025Y-91368884D01*
X156065405Y-91279524D01*
X156224646Y-91163828D01*
X156363828Y-91024646D01*
X156479524Y-90865405D01*
X156568884Y-90690025D01*
X156569515Y-90688787D01*
X156617489Y-90637990D01*
X156685310Y-90621195D01*
X156751445Y-90643732D01*
X156790485Y-90688787D01*
X156880474Y-90865403D01*
X156915234Y-90913246D01*
X156996172Y-91024646D01*
X157135354Y-91163828D01*
X157294595Y-91279524D01*
X157377455Y-91321743D01*
X157469970Y-91368882D01*
X157469972Y-91368882D01*
X157469975Y-91368884D01*
X157570317Y-91401487D01*
X157657173Y-91429709D01*
X157851578Y-91460500D01*
X157851583Y-91460500D01*
X158048422Y-91460500D01*
X158242826Y-91429709D01*
X158430025Y-91368884D01*
X158605405Y-91279524D01*
X158764646Y-91163828D01*
X158903828Y-91024646D01*
X159019524Y-90865405D01*
X159108884Y-90690025D01*
X159169709Y-90502826D01*
X159191860Y-90362971D01*
X159200500Y-90308422D01*
X159200500Y-90111577D01*
X159169709Y-89917173D01*
X159108882Y-89729970D01*
X159041716Y-89598150D01*
X159019524Y-89554595D01*
X158903828Y-89395354D01*
X158764646Y-89256172D01*
X158605405Y-89140476D01*
X158430029Y-89051117D01*
X158242826Y-88990290D01*
X158048422Y-88959500D01*
X158048417Y-88959500D01*
X157851583Y-88959500D01*
X157851578Y-88959500D01*
X157657173Y-88990290D01*
X157469970Y-89051117D01*
X157294594Y-89140476D01*
X157203741Y-89206485D01*
X157135354Y-89256172D01*
X157135352Y-89256174D01*
X157135351Y-89256174D01*
X156996171Y-89395354D01*
X156953080Y-89454664D01*
X156897750Y-89497329D01*
X156828136Y-89503307D01*
X156766342Y-89470700D01*
X156731985Y-89409861D01*
X156735975Y-89340105D01*
X156739970Y-89330264D01*
X156764334Y-89276915D01*
X156764334Y-89276914D01*
X156764338Y-89276906D01*
X156784023Y-89209867D01*
X156784024Y-89209863D01*
X156804500Y-89067447D01*
X156804500Y-85635000D01*
X156804500Y-85632500D01*
X156824185Y-85565461D01*
X156876989Y-85519706D01*
X156928500Y-85508500D01*
X159875500Y-85508500D01*
X159942539Y-85528185D01*
G37*
%TD.AperFunction*%
%TA.AperFunction,Conductor*%
G36*
X131504703Y-93782517D02*
G01*
X131511181Y-93788549D01*
X132470975Y-94748343D01*
X132504460Y-94809666D01*
X132499476Y-94879358D01*
X132457604Y-94935291D01*
X132426628Y-94952206D01*
X132387912Y-94966646D01*
X132387906Y-94966649D01*
X132272812Y-95052809D01*
X132272809Y-95052812D01*
X132186649Y-95167906D01*
X132186645Y-95167913D01*
X132136403Y-95302620D01*
X132136401Y-95302627D01*
X132130000Y-95362155D01*
X132130000Y-96010000D01*
X133046988Y-96010000D01*
X133014075Y-96067007D01*
X132980000Y-96194174D01*
X132980000Y-96325826D01*
X133014075Y-96452993D01*
X133046988Y-96510000D01*
X132130000Y-96510000D01*
X132130000Y-97157844D01*
X132136401Y-97217372D01*
X132136403Y-97217379D01*
X132186645Y-97352086D01*
X132186649Y-97352093D01*
X132272809Y-97467187D01*
X132272812Y-97467190D01*
X132387906Y-97553350D01*
X132387913Y-97553354D01*
X132519470Y-97602422D01*
X132575404Y-97644293D01*
X132599821Y-97709758D01*
X132584969Y-97778031D01*
X132563819Y-97806285D01*
X132449889Y-97920215D01*
X132324951Y-98092179D01*
X132228444Y-98281585D01*
X132162753Y-98483760D01*
X132129500Y-98693713D01*
X132129500Y-98906286D01*
X132162753Y-99116239D01*
X132228444Y-99318414D01*
X132324951Y-99507820D01*
X132449890Y-99679786D01*
X132449896Y-99679792D01*
X132600208Y-99830104D01*
X132647550Y-99864500D01*
X132673833Y-99883595D01*
X132716499Y-99938925D01*
X132722478Y-100008538D01*
X132694660Y-100065117D01*
X132617935Y-100153660D01*
X132617930Y-100153668D01*
X132558164Y-100284534D01*
X132538476Y-100351582D01*
X132517999Y-100494007D01*
X132517864Y-100495894D01*
X132517642Y-100496486D01*
X132517370Y-100498384D01*
X132516957Y-100498324D01*
X132493437Y-100561355D01*
X132437498Y-100603218D01*
X132367805Y-100608192D01*
X132306500Y-100574711D01*
X132266662Y-100534873D01*
X132127360Y-100441795D01*
X132045139Y-100407737D01*
X132042688Y-100406691D01*
X131604013Y-100213835D01*
X131566237Y-100188002D01*
X131335819Y-99957584D01*
X131302334Y-99896261D01*
X131299500Y-99869903D01*
X131299500Y-93876230D01*
X131319185Y-93809191D01*
X131371989Y-93763436D01*
X131441147Y-93753492D01*
X131504703Y-93782517D01*
G37*
%TD.AperFunction*%
%TD*%
%TA.AperFunction,Conductor*%
%TO.N,/SEG6*%
G36*
X137676334Y-99283180D02*
G01*
X137732267Y-99325052D01*
X137756684Y-99390516D01*
X137757000Y-99399362D01*
X137757000Y-104739561D01*
X137737315Y-104806600D01*
X137684511Y-104852355D01*
X137615353Y-104862299D01*
X137589667Y-104855743D01*
X137457379Y-104806403D01*
X137457372Y-104806401D01*
X137397844Y-104800000D01*
X137075000Y-104800000D01*
X137075000Y-105501000D01*
X137055315Y-105568039D01*
X137002511Y-105613794D01*
X136951000Y-105625000D01*
X136825000Y-105625000D01*
X136825000Y-105751000D01*
X136805315Y-105818039D01*
X136752511Y-105863794D01*
X136701000Y-105875000D01*
X135800000Y-105875000D01*
X135800000Y-105997844D01*
X135806401Y-106057372D01*
X135806403Y-106057379D01*
X135849030Y-106171667D01*
X135854014Y-106241358D01*
X135820529Y-106302681D01*
X135759206Y-106336166D01*
X135732848Y-106339000D01*
X133767152Y-106339000D01*
X133700113Y-106319315D01*
X133654358Y-106266511D01*
X133644414Y-106197353D01*
X133650970Y-106171667D01*
X133693596Y-106057379D01*
X133693598Y-106057372D01*
X133699999Y-105997844D01*
X133700000Y-105997827D01*
X133700000Y-105875000D01*
X132799000Y-105875000D01*
X132731961Y-105855315D01*
X132686206Y-105802511D01*
X132675000Y-105751000D01*
X132675000Y-105499000D01*
X132694685Y-105431961D01*
X132747489Y-105386206D01*
X132799000Y-105375000D01*
X133700000Y-105375000D01*
X133700000Y-105252172D01*
X133699999Y-105252155D01*
X135800000Y-105252155D01*
X135800000Y-105375000D01*
X136575000Y-105375000D01*
X136575000Y-104800000D01*
X136252155Y-104800000D01*
X136192627Y-104806401D01*
X136192620Y-104806403D01*
X136057913Y-104856645D01*
X136057906Y-104856649D01*
X135942812Y-104942809D01*
X135942809Y-104942812D01*
X135856649Y-105057906D01*
X135856645Y-105057913D01*
X135806403Y-105192620D01*
X135806401Y-105192627D01*
X135800000Y-105252155D01*
X133699999Y-105252155D01*
X133693598Y-105192627D01*
X133693596Y-105192620D01*
X133643354Y-105057913D01*
X133643350Y-105057906D01*
X133557190Y-104942812D01*
X133557187Y-104942809D01*
X133442093Y-104856649D01*
X133442086Y-104856645D01*
X133307379Y-104806403D01*
X133307372Y-104806401D01*
X133247844Y-104800000D01*
X132883598Y-104800000D01*
X132816559Y-104780315D01*
X132770804Y-104727511D01*
X132760860Y-104658353D01*
X132789885Y-104594797D01*
X132795917Y-104588319D01*
X132804232Y-104580003D01*
X132903520Y-104480716D01*
X132982577Y-104343784D01*
X133023501Y-104191057D01*
X133023501Y-104032942D01*
X133023501Y-104025347D01*
X133023500Y-104025329D01*
X133023500Y-100494000D01*
X133043185Y-100426961D01*
X133095989Y-100381206D01*
X133147500Y-100370000D01*
X136487000Y-100370000D01*
X137545319Y-99311681D01*
X137606642Y-99278196D01*
X137676334Y-99283180D01*
G37*
%TD.AperFunction*%
%TD*%
%TA.AperFunction,Conductor*%
%TO.N,/SEG1*%
G36*
X159942539Y-80520185D02*
G01*
X159988294Y-80572989D01*
X159999500Y-80624500D01*
X159999500Y-84879000D01*
X159979815Y-84946039D01*
X159927011Y-84991794D01*
X159875500Y-85003000D01*
X142199000Y-85003000D01*
X142131961Y-84983315D01*
X142086206Y-84930511D01*
X142075000Y-84879000D01*
X142075000Y-83868674D01*
X142094685Y-83801635D01*
X142147489Y-83755880D01*
X142216647Y-83745936D01*
X142237319Y-83750743D01*
X142417296Y-83809221D01*
X142611618Y-83840000D01*
X142808382Y-83840000D01*
X143002705Y-83809221D01*
X143189835Y-83748418D01*
X143365143Y-83659095D01*
X143400125Y-83633678D01*
X143400126Y-83633678D01*
X142651302Y-82884854D01*
X142670504Y-82890000D01*
X142749496Y-82890000D01*
X142825796Y-82869556D01*
X142894205Y-82830060D01*
X142950060Y-82774205D01*
X142989556Y-82705796D01*
X143010000Y-82629496D01*
X143010000Y-82550504D01*
X143004854Y-82531302D01*
X143753678Y-83280126D01*
X143753678Y-83280125D01*
X143779095Y-83245143D01*
X143868418Y-83069835D01*
X143929221Y-82882705D01*
X143960000Y-82688382D01*
X143960000Y-82491617D01*
X143929221Y-82297294D01*
X143892026Y-82182818D01*
X143890031Y-82112977D01*
X143926111Y-82053144D01*
X143988812Y-82022316D01*
X144009957Y-82020500D01*
X146489517Y-82020500D01*
X146556556Y-82040185D01*
X146602311Y-82092989D01*
X146612255Y-82162147D01*
X146607449Y-82182812D01*
X146596005Y-82218034D01*
X146570290Y-82297173D01*
X146539500Y-82491577D01*
X146539500Y-82688422D01*
X146570290Y-82882826D01*
X146631117Y-83070029D01*
X146712411Y-83229576D01*
X146720476Y-83245405D01*
X146836172Y-83404646D01*
X146975354Y-83543828D01*
X147134595Y-83659524D01*
X147217455Y-83701743D01*
X147309970Y-83748882D01*
X147309972Y-83748882D01*
X147309975Y-83748884D01*
X147410317Y-83781487D01*
X147497173Y-83809709D01*
X147691578Y-83840500D01*
X147691583Y-83840500D01*
X147888422Y-83840500D01*
X148082826Y-83809709D01*
X148107675Y-83801635D01*
X148270025Y-83748884D01*
X148445405Y-83659524D01*
X148604646Y-83543828D01*
X148743828Y-83404646D01*
X148859524Y-83245405D01*
X148948884Y-83070025D01*
X148949515Y-83068787D01*
X148997489Y-83017990D01*
X149065310Y-83001195D01*
X149131445Y-83023732D01*
X149170485Y-83068787D01*
X149260474Y-83245403D01*
X149285702Y-83280126D01*
X149305470Y-83307334D01*
X149313562Y-83319272D01*
X149315245Y-83320788D01*
X149320286Y-83327726D01*
X149320287Y-83327729D01*
X149371670Y-83398450D01*
X149376172Y-83404646D01*
X149515354Y-83543828D01*
X149674595Y-83659524D01*
X149757455Y-83701743D01*
X149849970Y-83748882D01*
X149849972Y-83748882D01*
X149849975Y-83748884D01*
X149950317Y-83781487D01*
X150037173Y-83809709D01*
X150231578Y-83840500D01*
X150231583Y-83840500D01*
X150428422Y-83840500D01*
X150622826Y-83809709D01*
X150647675Y-83801635D01*
X150810025Y-83748884D01*
X150985405Y-83659524D01*
X151144646Y-83543828D01*
X151283828Y-83404646D01*
X151375682Y-83278219D01*
X151431012Y-83235555D01*
X151500626Y-83229576D01*
X151562421Y-83262182D01*
X151596778Y-83323021D01*
X151600000Y-83351106D01*
X151600000Y-83606000D01*
X152100635Y-83606000D01*
X152167674Y-83625685D01*
X152173520Y-83629682D01*
X152210713Y-83656703D01*
X152214595Y-83659524D01*
X152326347Y-83716464D01*
X152389970Y-83748882D01*
X152389972Y-83748882D01*
X152389975Y-83748884D01*
X152490317Y-83781487D01*
X152577173Y-83809709D01*
X152771578Y-83840500D01*
X152771583Y-83840500D01*
X152968422Y-83840500D01*
X153162826Y-83809709D01*
X153187675Y-83801635D01*
X153350025Y-83748884D01*
X153525405Y-83659524D01*
X153544996Y-83645290D01*
X153566480Y-83629682D01*
X153632286Y-83606202D01*
X153639365Y-83606000D01*
X154394000Y-83606000D01*
X154408479Y-83591520D01*
X154413685Y-83573792D01*
X154466489Y-83528037D01*
X154535647Y-83518093D01*
X154590106Y-83542761D01*
X154591413Y-83540964D01*
X154595351Y-83543825D01*
X154595354Y-83543828D01*
X154754595Y-83659524D01*
X154837455Y-83701743D01*
X154929970Y-83748882D01*
X154929972Y-83748882D01*
X154929975Y-83748884D01*
X155030317Y-83781487D01*
X155117173Y-83809709D01*
X155311578Y-83840500D01*
X155311583Y-83840500D01*
X155508422Y-83840500D01*
X155702826Y-83809709D01*
X155727675Y-83801635D01*
X155890025Y-83748884D01*
X156065405Y-83659524D01*
X156100980Y-83633677D01*
X157259873Y-83633677D01*
X157259873Y-83633678D01*
X157294858Y-83659096D01*
X157470164Y-83748418D01*
X157657294Y-83809221D01*
X157851618Y-83840000D01*
X158048382Y-83840000D01*
X158242705Y-83809221D01*
X158429835Y-83748418D01*
X158605143Y-83659095D01*
X158640125Y-83633678D01*
X158640126Y-83633678D01*
X157950001Y-82943553D01*
X157950000Y-82943553D01*
X157259873Y-83633677D01*
X156100980Y-83633677D01*
X156224646Y-83543828D01*
X156363828Y-83404646D01*
X156479524Y-83245405D01*
X156568884Y-83070025D01*
X156568884Y-83070022D01*
X156569795Y-83068236D01*
X156617769Y-83017440D01*
X156685590Y-83000644D01*
X156751725Y-83023181D01*
X156790765Y-83068235D01*
X156880905Y-83245145D01*
X156906319Y-83280125D01*
X156906320Y-83280125D01*
X157596446Y-82590000D01*
X157596446Y-82589999D01*
X157556951Y-82550504D01*
X157650000Y-82550504D01*
X157650000Y-82629496D01*
X157670444Y-82705796D01*
X157709940Y-82774205D01*
X157765795Y-82830060D01*
X157834204Y-82869556D01*
X157910504Y-82890000D01*
X157989496Y-82890000D01*
X158065796Y-82869556D01*
X158134205Y-82830060D01*
X158190060Y-82774205D01*
X158229556Y-82705796D01*
X158250000Y-82629496D01*
X158250000Y-82589999D01*
X158303553Y-82589999D01*
X158303553Y-82590001D01*
X158993678Y-83280126D01*
X158993678Y-83280125D01*
X159019095Y-83245143D01*
X159108418Y-83069835D01*
X159169221Y-82882705D01*
X159200000Y-82688382D01*
X159200000Y-82491617D01*
X159169221Y-82297294D01*
X159108418Y-82110164D01*
X159019096Y-81934858D01*
X158993678Y-81899873D01*
X158993677Y-81899873D01*
X158303553Y-82589999D01*
X158250000Y-82589999D01*
X158250000Y-82550504D01*
X158229556Y-82474204D01*
X158190060Y-82405795D01*
X158134205Y-82349940D01*
X158065796Y-82310444D01*
X157989496Y-82290000D01*
X157910504Y-82290000D01*
X157834204Y-82310444D01*
X157765795Y-82349940D01*
X157709940Y-82405795D01*
X157670444Y-82474204D01*
X157650000Y-82550504D01*
X157556951Y-82550504D01*
X156906320Y-81899872D01*
X156906320Y-81899873D01*
X156880902Y-81934859D01*
X156790765Y-82111764D01*
X156742790Y-82162560D01*
X156674969Y-82179355D01*
X156608835Y-82156818D01*
X156569795Y-82111763D01*
X156479525Y-81934596D01*
X156444222Y-81886006D01*
X156363828Y-81775354D01*
X156224646Y-81636172D01*
X156100976Y-81546320D01*
X157259872Y-81546320D01*
X157950000Y-82236446D01*
X157950001Y-82236446D01*
X158640125Y-81546320D01*
X158640125Y-81546319D01*
X158605145Y-81520905D01*
X158429835Y-81431581D01*
X158242705Y-81370778D01*
X158048382Y-81340000D01*
X157851618Y-81340000D01*
X157657294Y-81370778D01*
X157470161Y-81431582D01*
X157294863Y-81520899D01*
X157294859Y-81520902D01*
X157259873Y-81546320D01*
X157259872Y-81546320D01*
X156100976Y-81546320D01*
X156065405Y-81520476D01*
X155890029Y-81431117D01*
X155702826Y-81370290D01*
X155508422Y-81339500D01*
X155508417Y-81339500D01*
X155311583Y-81339500D01*
X155311578Y-81339500D01*
X155117173Y-81370290D01*
X154929970Y-81431117D01*
X154754594Y-81520476D01*
X154670304Y-81581716D01*
X154595354Y-81636172D01*
X154595351Y-81636174D01*
X154591413Y-81639036D01*
X154590105Y-81637236D01*
X154534757Y-81662031D01*
X154465672Y-81651586D01*
X154413201Y-81605449D01*
X154394000Y-81539168D01*
X154394000Y-80624500D01*
X154413685Y-80557461D01*
X154466489Y-80511706D01*
X154518000Y-80500500D01*
X159875500Y-80500500D01*
X159942539Y-80520185D01*
G37*
%TD.AperFunction*%
%TD*%
%TA.AperFunction,Conductor*%
%TO.N,/SEG5*%
G36*
X153829039Y-80520185D02*
G01*
X153874794Y-80572989D01*
X153886000Y-80624500D01*
X153886000Y-81927551D01*
X153164855Y-82648696D01*
X153170000Y-82629496D01*
X153170000Y-82550504D01*
X153149556Y-82474204D01*
X153110060Y-82405795D01*
X153054205Y-82349940D01*
X152985796Y-82310444D01*
X152909496Y-82290000D01*
X152830504Y-82290000D01*
X152754204Y-82310444D01*
X152685795Y-82349940D01*
X152629940Y-82405795D01*
X152590444Y-82474204D01*
X152570000Y-82550504D01*
X152570000Y-82629496D01*
X152575145Y-82648697D01*
X151814788Y-81888340D01*
X151789483Y-81883024D01*
X151760453Y-81861453D01*
X151445320Y-81546320D01*
X152179872Y-81546320D01*
X152870000Y-82236446D01*
X152870001Y-82236446D01*
X153560125Y-81546320D01*
X153560125Y-81546319D01*
X153525145Y-81520905D01*
X153349835Y-81431581D01*
X153162705Y-81370778D01*
X152968382Y-81340000D01*
X152771618Y-81340000D01*
X152577294Y-81370778D01*
X152390161Y-81431582D01*
X152214863Y-81520899D01*
X152214859Y-81520902D01*
X152179873Y-81546320D01*
X152179872Y-81546320D01*
X151445320Y-81546320D01*
X150711000Y-80812000D01*
X149594020Y-80812000D01*
X149526981Y-80792315D01*
X149522981Y-80789634D01*
X149514045Y-80783388D01*
X149506543Y-80775886D01*
X149433208Y-80726886D01*
X149432133Y-80726134D01*
X149411076Y-80699835D01*
X149389476Y-80673990D01*
X149389307Y-80672647D01*
X149388463Y-80671593D01*
X149384967Y-80638095D01*
X149380769Y-80604665D01*
X149381352Y-80603445D01*
X149381212Y-80602101D01*
X149396388Y-80572017D01*
X149410923Y-80541638D01*
X149412072Y-80540927D01*
X149412682Y-80539720D01*
X149441710Y-80522619D01*
X149470366Y-80504918D01*
X149472172Y-80504674D01*
X149472883Y-80504256D01*
X149474744Y-80504328D01*
X149503172Y-80500500D01*
X153762000Y-80500500D01*
X153829039Y-80520185D01*
G37*
%TD.AperFunction*%
%TA.AperFunction,Conductor*%
G36*
X141698867Y-80520185D02*
G01*
X141744622Y-80572989D01*
X141754566Y-80642147D01*
X141725541Y-80705703D01*
X141700718Y-80727602D01*
X141628461Y-80775882D01*
X141628453Y-80775888D01*
X140927837Y-81476504D01*
X140866514Y-81509989D01*
X140796822Y-81505005D01*
X140783862Y-81499308D01*
X140650032Y-81431118D01*
X140462826Y-81370290D01*
X140268422Y-81339500D01*
X140268417Y-81339500D01*
X140071583Y-81339500D01*
X140071578Y-81339500D01*
X139877173Y-81370290D01*
X139689970Y-81431117D01*
X139514594Y-81520476D01*
X139447735Y-81569053D01*
X139355354Y-81636172D01*
X139355352Y-81636174D01*
X139355351Y-81636174D01*
X139216174Y-81775351D01*
X139216174Y-81775352D01*
X139216172Y-81775354D01*
X139166485Y-81843741D01*
X139100476Y-81934594D01*
X139010204Y-82111764D01*
X138962229Y-82162560D01*
X138894408Y-82179355D01*
X138828274Y-82156818D01*
X138789234Y-82111764D01*
X138699096Y-81934858D01*
X138673678Y-81899873D01*
X138673677Y-81899873D01*
X138364551Y-82209000D01*
X137657447Y-82209000D01*
X138320125Y-81546320D01*
X138320125Y-81546319D01*
X138285145Y-81520905D01*
X138109835Y-81431581D01*
X137922705Y-81370778D01*
X137728382Y-81340000D01*
X137531618Y-81340000D01*
X137337294Y-81370778D01*
X137150161Y-81431582D01*
X136974863Y-81520899D01*
X136974859Y-81520902D01*
X136939873Y-81546320D01*
X136939872Y-81546320D01*
X137602554Y-82209000D01*
X136895446Y-82209000D01*
X136614000Y-81927553D01*
X136614000Y-80624500D01*
X136633685Y-80557461D01*
X136686489Y-80511706D01*
X136738000Y-80500500D01*
X141631828Y-80500500D01*
X141698867Y-80520185D01*
G37*
%TD.AperFunction*%
%TD*%
%TA.AperFunction,Conductor*%
%TO.N,Net-(D1-A)*%
G36*
X136049039Y-80520185D02*
G01*
X136094794Y-80572989D01*
X136106000Y-80624500D01*
X136106000Y-81539168D01*
X136086315Y-81606207D01*
X136033511Y-81651962D01*
X135964353Y-81661906D01*
X135909874Y-81637264D01*
X135908587Y-81639036D01*
X135904648Y-81636174D01*
X135904646Y-81636172D01*
X135745405Y-81520476D01*
X135570029Y-81431117D01*
X135382826Y-81370290D01*
X135188422Y-81339500D01*
X135188417Y-81339500D01*
X134991583Y-81339500D01*
X134991578Y-81339500D01*
X134797173Y-81370290D01*
X134609970Y-81431117D01*
X134434594Y-81520476D01*
X134343741Y-81586485D01*
X134275354Y-81636172D01*
X134275352Y-81636174D01*
X134275351Y-81636174D01*
X134136171Y-81775354D01*
X134136164Y-81775362D01*
X134078270Y-81855046D01*
X134066693Y-81868770D01*
X134051479Y-81884357D01*
X133900699Y-82090935D01*
X133845276Y-82133480D01*
X133775649Y-82139306D01*
X133713926Y-82106565D01*
X133690056Y-82074125D01*
X133619096Y-81934858D01*
X133593678Y-81899873D01*
X133593677Y-81899873D01*
X132844854Y-82648698D01*
X132850000Y-82629496D01*
X132850000Y-82550504D01*
X132829556Y-82474204D01*
X132790060Y-82405795D01*
X132734205Y-82349940D01*
X132665796Y-82310444D01*
X132589496Y-82290000D01*
X132510504Y-82290000D01*
X132434204Y-82310444D01*
X132365795Y-82349940D01*
X132309940Y-82405795D01*
X132270444Y-82474204D01*
X132250000Y-82550504D01*
X132250000Y-82629496D01*
X132270444Y-82705796D01*
X132309940Y-82774205D01*
X132365795Y-82830060D01*
X132434204Y-82869556D01*
X132510504Y-82890000D01*
X132589496Y-82890000D01*
X132608698Y-82884854D01*
X131859873Y-83633677D01*
X131859873Y-83633678D01*
X131894858Y-83659096D01*
X132070164Y-83748418D01*
X132132387Y-83768636D01*
X132190062Y-83808073D01*
X132217261Y-83872432D01*
X132205347Y-83941278D01*
X132181750Y-83974248D01*
X130712181Y-85443818D01*
X130650858Y-85477303D01*
X130581166Y-85472319D01*
X130525233Y-85430447D01*
X130500816Y-85364983D01*
X130500500Y-85356137D01*
X130500500Y-82491617D01*
X131300000Y-82491617D01*
X131300000Y-82688382D01*
X131330778Y-82882705D01*
X131391581Y-83069835D01*
X131480905Y-83245145D01*
X131506319Y-83280125D01*
X131506320Y-83280125D01*
X132196446Y-82590000D01*
X132196446Y-82589999D01*
X131506320Y-81899872D01*
X131506320Y-81899873D01*
X131480902Y-81934859D01*
X131480899Y-81934863D01*
X131391582Y-82110161D01*
X131330778Y-82297294D01*
X131300000Y-82491617D01*
X130500500Y-82491617D01*
X130500500Y-81546320D01*
X131859872Y-81546320D01*
X132550000Y-82236446D01*
X132550001Y-82236446D01*
X133240125Y-81546320D01*
X133240125Y-81546319D01*
X133205145Y-81520905D01*
X133029835Y-81431581D01*
X132842705Y-81370778D01*
X132648382Y-81340000D01*
X132451618Y-81340000D01*
X132257294Y-81370778D01*
X132070161Y-81431582D01*
X131894863Y-81520899D01*
X131894859Y-81520902D01*
X131859873Y-81546320D01*
X131859872Y-81546320D01*
X130500500Y-81546320D01*
X130500500Y-80624500D01*
X130520185Y-80557461D01*
X130572989Y-80511706D01*
X130624500Y-80500500D01*
X135982000Y-80500500D01*
X136049039Y-80520185D01*
G37*
%TD.AperFunction*%
%TD*%
%TA.AperFunction,Conductor*%
%TO.N,/SEG4*%
G36*
X150472677Y-86927685D02*
G01*
X150493319Y-86944319D01*
X152408874Y-88859874D01*
X152442359Y-88921197D01*
X152437375Y-88990889D01*
X152395503Y-89046822D01*
X152377487Y-89058040D01*
X152214863Y-89140899D01*
X152214859Y-89140902D01*
X152179873Y-89166320D01*
X152179872Y-89166320D01*
X152489000Y-89475447D01*
X152489000Y-90182552D01*
X151826320Y-89519872D01*
X151826320Y-89519873D01*
X151800902Y-89554859D01*
X151710765Y-89731764D01*
X151662790Y-89782560D01*
X151594969Y-89799355D01*
X151528835Y-89776818D01*
X151489795Y-89731763D01*
X151399525Y-89554596D01*
X151342019Y-89475447D01*
X151283828Y-89395354D01*
X151144646Y-89256172D01*
X150985405Y-89140476D01*
X150810028Y-89051117D01*
X150810016Y-89051112D01*
X150769447Y-89037929D01*
X150755227Y-89032318D01*
X149906462Y-88635260D01*
X149901303Y-88632698D01*
X149883327Y-88623247D01*
X149822000Y-88559000D01*
X149761122Y-88559000D01*
X149734028Y-88544756D01*
X149730030Y-88540882D01*
X149724691Y-88539315D01*
X149704049Y-88522681D01*
X149157421Y-87976052D01*
X149157414Y-87976046D01*
X149083729Y-87926812D01*
X149083729Y-87926813D01*
X149034491Y-87893913D01*
X148897917Y-87837343D01*
X148897907Y-87837340D01*
X148752920Y-87808500D01*
X148752918Y-87808500D01*
X146720917Y-87808500D01*
X146573082Y-87808500D01*
X146573080Y-87808500D01*
X146428092Y-87837340D01*
X146428082Y-87837343D01*
X146291511Y-87893912D01*
X146291498Y-87893919D01*
X146168584Y-87976048D01*
X146168580Y-87976051D01*
X144142503Y-90002128D01*
X144081180Y-90035613D01*
X144011488Y-90030629D01*
X143955555Y-89988757D01*
X143932349Y-89933845D01*
X143929709Y-89917174D01*
X143868884Y-89729975D01*
X143868882Y-89729972D01*
X143868882Y-89729970D01*
X143821743Y-89637455D01*
X143779524Y-89554595D01*
X143663828Y-89395354D01*
X143524646Y-89256172D01*
X143365405Y-89140476D01*
X143190029Y-89051117D01*
X143002826Y-88990290D01*
X142808422Y-88959500D01*
X142808417Y-88959500D01*
X142611583Y-88959500D01*
X142608861Y-88959500D01*
X142541822Y-88939815D01*
X142496067Y-88887011D01*
X142486123Y-88817853D01*
X142515148Y-88754297D01*
X142521166Y-88747833D01*
X144324681Y-86944319D01*
X144386004Y-86910834D01*
X144412362Y-86908000D01*
X150405638Y-86908000D01*
X150472677Y-86927685D01*
G37*
%TD.AperFunction*%
%TD*%
%TA.AperFunction,Conductor*%
%TO.N,/SEG2*%
G36*
X156242039Y-85530685D02*
G01*
X156287794Y-85583489D01*
X156299000Y-85635000D01*
X156299000Y-89067447D01*
X156279315Y-89134486D01*
X156226511Y-89180241D01*
X156157353Y-89190185D01*
X156102115Y-89167765D01*
X156065146Y-89140906D01*
X155889835Y-89051581D01*
X155702705Y-88990778D01*
X155508382Y-88960000D01*
X155311618Y-88960000D01*
X155117294Y-88990778D01*
X154930161Y-89051582D01*
X154754863Y-89140899D01*
X154754859Y-89140902D01*
X154719873Y-89166320D01*
X154719872Y-89166320D01*
X155468697Y-89915145D01*
X155449496Y-89910000D01*
X155370504Y-89910000D01*
X155294204Y-89930444D01*
X155225795Y-89969940D01*
X155169940Y-90025795D01*
X155130444Y-90094204D01*
X155110000Y-90170504D01*
X155110000Y-90249496D01*
X155115145Y-90268697D01*
X154366320Y-89519872D01*
X154366320Y-89519873D01*
X154340902Y-89554859D01*
X154250765Y-89731764D01*
X154202790Y-89782560D01*
X154134969Y-89799355D01*
X154068835Y-89776818D01*
X154029795Y-89731763D01*
X153939525Y-89554596D01*
X153914296Y-89519872D01*
X153823828Y-89395354D01*
X153684646Y-89256172D01*
X153525405Y-89140476D01*
X153382077Y-89067447D01*
X153350028Y-89051117D01*
X153350016Y-89051112D01*
X153309447Y-89037929D01*
X153295227Y-89032318D01*
X153188877Y-88982567D01*
X153153395Y-88957585D01*
X152909362Y-88711625D01*
X152889097Y-88682304D01*
X152888148Y-88682823D01*
X152852546Y-88617623D01*
X152852542Y-88617617D01*
X152852540Y-88617613D01*
X152766316Y-88502432D01*
X152766311Y-88502427D01*
X152766306Y-88502421D01*
X150850776Y-86586892D01*
X150850761Y-86586877D01*
X150842048Y-86579050D01*
X150810519Y-86550728D01*
X150810507Y-86550718D01*
X150789856Y-86534076D01*
X150745974Y-86502433D01*
X150714462Y-86488041D01*
X150677952Y-86462584D01*
X150615858Y-86400000D01*
X144107000Y-86400000D01*
X144106999Y-86400000D01*
X144102025Y-86402061D01*
X144101965Y-86402076D01*
X144101942Y-86402095D01*
X144101713Y-86402140D01*
X144067738Y-86410799D01*
X144061172Y-86411500D01*
X144033082Y-86411500D01*
X144006005Y-86416886D01*
X144000535Y-86417974D01*
X144000526Y-86417975D01*
X143888094Y-86440339D01*
X143888087Y-86440341D01*
X143823323Y-86467168D01*
X143751509Y-86496914D01*
X143751496Y-86496921D01*
X143702269Y-86529813D01*
X143628588Y-86579044D01*
X143628580Y-86579050D01*
X141746050Y-88461580D01*
X141719513Y-88501296D01*
X141709793Y-88513987D01*
X141690578Y-88535979D01*
X141690570Y-88535991D01*
X141471716Y-88873480D01*
X141455358Y-88893694D01*
X141315049Y-89034003D01*
X141300566Y-89045848D01*
X141300741Y-89046075D01*
X141080205Y-89216130D01*
X141015096Y-89241478D01*
X140946618Y-89227602D01*
X140931600Y-89218250D01*
X140825147Y-89140906D01*
X140649835Y-89051581D01*
X140462705Y-88990778D01*
X140462707Y-88990778D01*
X140406551Y-88981884D01*
X140343417Y-88951954D01*
X140306486Y-88892642D01*
X140307484Y-88822780D01*
X140338267Y-88771732D01*
X142075000Y-87035000D01*
X142075000Y-85635000D01*
X142094685Y-85567961D01*
X142147489Y-85522206D01*
X142199000Y-85511000D01*
X156175000Y-85511000D01*
X156242039Y-85530685D01*
G37*
%TD.AperFunction*%
%TD*%
%TA.AperFunction,Conductor*%
%TO.N,/SEG4*%
G36*
X132241755Y-86800685D02*
G01*
X132285201Y-86848705D01*
X132331132Y-86938848D01*
X132479201Y-87142649D01*
X132479205Y-87142654D01*
X132657345Y-87320794D01*
X132657350Y-87320798D01*
X132835117Y-87449952D01*
X132861155Y-87468870D01*
X133004184Y-87541747D01*
X133085616Y-87583239D01*
X133085618Y-87583239D01*
X133085621Y-87583241D01*
X133325215Y-87661090D01*
X133574038Y-87700500D01*
X133574039Y-87700500D01*
X133825961Y-87700500D01*
X133825962Y-87700500D01*
X134074785Y-87661090D01*
X134314379Y-87583241D01*
X134538845Y-87468870D01*
X134742656Y-87320793D01*
X134920793Y-87142656D01*
X135068870Y-86938845D01*
X135114799Y-86848705D01*
X135162774Y-86797909D01*
X135225284Y-86781000D01*
X141267638Y-86781000D01*
X141334677Y-86800685D01*
X141380432Y-86853489D01*
X141390376Y-86922647D01*
X141361351Y-86986203D01*
X141355319Y-86992681D01*
X138900000Y-89447999D01*
X138900000Y-89449744D01*
X138880315Y-89516783D01*
X138827511Y-89562538D01*
X138758353Y-89572482D01*
X138694797Y-89543457D01*
X138675682Y-89522630D01*
X138673679Y-89519873D01*
X138673677Y-89519873D01*
X137983553Y-90209999D01*
X137983553Y-90210001D01*
X138673678Y-90900126D01*
X138673678Y-90900125D01*
X138675682Y-90897369D01*
X138731013Y-90854704D01*
X138800626Y-90848725D01*
X138862421Y-90881331D01*
X138896778Y-90942170D01*
X138900000Y-90970255D01*
X138900000Y-91113500D01*
X138880315Y-91180539D01*
X138827511Y-91226294D01*
X138776000Y-91237500D01*
X138355309Y-91237500D01*
X138288270Y-91217815D01*
X138267628Y-91201181D01*
X137571300Y-90504854D01*
X137590504Y-90510000D01*
X137669496Y-90510000D01*
X137745796Y-90489556D01*
X137814205Y-90450060D01*
X137870060Y-90394205D01*
X137909556Y-90325796D01*
X137930000Y-90249496D01*
X137930000Y-90170504D01*
X137909556Y-90094204D01*
X137870060Y-90025795D01*
X137814205Y-89969940D01*
X137745796Y-89930444D01*
X137669496Y-89910000D01*
X137590504Y-89910000D01*
X137514204Y-89930444D01*
X137445795Y-89969940D01*
X137389940Y-90025795D01*
X137350444Y-90094204D01*
X137330000Y-90170504D01*
X137330000Y-90249496D01*
X137335145Y-90268699D01*
X136586320Y-89519872D01*
X136586320Y-89519873D01*
X136560902Y-89554859D01*
X136470765Y-89731764D01*
X136422790Y-89782560D01*
X136354969Y-89799355D01*
X136288835Y-89776818D01*
X136249795Y-89731763D01*
X136159530Y-89554606D01*
X136159528Y-89554603D01*
X136159524Y-89554595D01*
X136128333Y-89511665D01*
X136106818Y-89480473D01*
X136103499Y-89477483D01*
X136043828Y-89395354D01*
X135904646Y-89256172D01*
X135780976Y-89166320D01*
X136939872Y-89166320D01*
X137630000Y-89856446D01*
X137630001Y-89856446D01*
X138320125Y-89166320D01*
X138320125Y-89166319D01*
X138285145Y-89140905D01*
X138109835Y-89051581D01*
X137922705Y-88990778D01*
X137728382Y-88960000D01*
X137531618Y-88960000D01*
X137337294Y-88990778D01*
X137150161Y-89051582D01*
X136974863Y-89140899D01*
X136974859Y-89140902D01*
X136939873Y-89166320D01*
X136939872Y-89166320D01*
X135780976Y-89166320D01*
X135745405Y-89140476D01*
X135570029Y-89051117D01*
X135382826Y-88990290D01*
X135188422Y-88959500D01*
X135188417Y-88959500D01*
X134991583Y-88959500D01*
X134991578Y-88959500D01*
X134797173Y-88990290D01*
X134609970Y-89051117D01*
X134434594Y-89140476D01*
X134343741Y-89206485D01*
X134275354Y-89256172D01*
X134275352Y-89256174D01*
X134275351Y-89256174D01*
X134136174Y-89395351D01*
X134136174Y-89395352D01*
X134136172Y-89395354D01*
X134101413Y-89443195D01*
X134020474Y-89554596D01*
X134019300Y-89556902D01*
X134018621Y-89557620D01*
X134017931Y-89558747D01*
X134017694Y-89558601D01*
X133971321Y-89607694D01*
X133903498Y-89624483D01*
X133837365Y-89601939D01*
X133793919Y-89547220D01*
X133791114Y-89539601D01*
X133790349Y-89537292D01*
X133737003Y-89376303D01*
X133736999Y-89376297D01*
X133736998Y-89376294D01*
X133647970Y-89231959D01*
X133647967Y-89231955D01*
X133528044Y-89112032D01*
X133528040Y-89112029D01*
X133383705Y-89023001D01*
X133383699Y-89022998D01*
X133383697Y-89022997D01*
X133286466Y-88990778D01*
X133222709Y-88969651D01*
X133123346Y-88959500D01*
X131976662Y-88959500D01*
X131976644Y-88959501D01*
X131877292Y-88969650D01*
X131877289Y-88969651D01*
X131862499Y-88974552D01*
X131792671Y-88976950D01*
X131732630Y-88941216D01*
X131701440Y-88878695D01*
X131699500Y-88856844D01*
X131699500Y-86905000D01*
X131719185Y-86837961D01*
X131771989Y-86792206D01*
X131823500Y-86781000D01*
X132174716Y-86781000D01*
X132241755Y-86800685D01*
G37*
%TD.AperFunction*%
%TD*%
%TA.AperFunction,Conductor*%
%TO.N,/SEG7*%
G36*
X150030000Y-90170504D02*
G01*
X150030000Y-90249496D01*
X150050444Y-90325796D01*
X150089940Y-90394205D01*
X150145795Y-90450060D01*
X150214204Y-90489556D01*
X150290504Y-90510000D01*
X150369496Y-90510000D01*
X150388696Y-90504855D01*
X149639873Y-91253677D01*
X149639873Y-91253678D01*
X149674858Y-91279096D01*
X149850164Y-91368418D01*
X150037294Y-91429221D01*
X150231618Y-91460000D01*
X150428382Y-91460000D01*
X150622705Y-91429221D01*
X150809835Y-91368418D01*
X150985144Y-91279095D01*
X151065662Y-91220594D01*
X151131468Y-91197113D01*
X151199522Y-91212938D01*
X151226230Y-91233230D01*
X152706681Y-92713681D01*
X152740166Y-92775004D01*
X152743000Y-92801362D01*
X152743000Y-101259000D01*
X154817319Y-103333319D01*
X154850804Y-103394642D01*
X154845820Y-103464334D01*
X154803948Y-103520267D01*
X154738484Y-103544684D01*
X154729638Y-103545000D01*
X149057000Y-103545000D01*
X148989961Y-103525315D01*
X148944206Y-103472511D01*
X148933000Y-103421000D01*
X148933000Y-91266238D01*
X148937048Y-91234813D01*
X148942779Y-91212938D01*
X149009988Y-90956395D01*
X149012758Y-90940233D01*
X149017270Y-90922176D01*
X149024577Y-90900125D01*
X149030349Y-90882708D01*
X149030349Y-90882704D01*
X149031335Y-90879730D01*
X149071107Y-90822285D01*
X149135623Y-90795461D01*
X149204399Y-90807776D01*
X149255599Y-90855318D01*
X149259523Y-90862433D01*
X149260903Y-90865141D01*
X149286319Y-90900125D01*
X149286320Y-90900125D01*
X150035145Y-90151300D01*
X150030000Y-90170504D01*
G37*
%TD.AperFunction*%
%TA.AperFunction,Conductor*%
G36*
X149138203Y-89145649D02*
G01*
X149144681Y-89151681D01*
X149306769Y-89313769D01*
X149322635Y-89342826D01*
X149339388Y-89371387D01*
X149339307Y-89373358D01*
X149340254Y-89375092D01*
X149337892Y-89408117D01*
X149336545Y-89441198D01*
X149335359Y-89443537D01*
X149335270Y-89444784D01*
X149325551Y-89462886D01*
X149320588Y-89472680D01*
X149250541Y-89572495D01*
X149229778Y-89589056D01*
X149211541Y-89608362D01*
X149202888Y-89610503D01*
X149195919Y-89616063D01*
X149169497Y-89618769D01*
X149143718Y-89625151D01*
X149135280Y-89622274D01*
X149126413Y-89623183D01*
X149102722Y-89611175D01*
X149077585Y-89602606D01*
X149072042Y-89595625D01*
X149064091Y-89591595D01*
X149044626Y-89561095D01*
X149034139Y-89547887D01*
X149033755Y-89544062D01*
X149031335Y-89540269D01*
X149024480Y-89519581D01*
X148977003Y-89376303D01*
X148976256Y-89375092D01*
X148951461Y-89334892D01*
X148946765Y-89318334D01*
X148938023Y-89304731D01*
X148933000Y-89269796D01*
X148933000Y-89239362D01*
X148952685Y-89172323D01*
X149005489Y-89126568D01*
X149074647Y-89116624D01*
X149138203Y-89145649D01*
G37*
%TD.AperFunction*%
%TD*%
%TA.AperFunction,Conductor*%
%TO.N,/SEG3*%
G36*
X148313677Y-110803685D02*
G01*
X148334319Y-110820319D01*
X151219000Y-113705000D01*
X154476000Y-113705000D01*
X154543039Y-113724685D01*
X154588794Y-113777489D01*
X154600000Y-113829000D01*
X154600000Y-114050000D01*
X155301000Y-114050000D01*
X155368039Y-114069685D01*
X155413794Y-114122489D01*
X155425000Y-114174000D01*
X155425000Y-114300000D01*
X155551000Y-114300000D01*
X155618039Y-114319685D01*
X155663794Y-114372489D01*
X155675000Y-114424000D01*
X155675000Y-115325000D01*
X155797828Y-115325000D01*
X155797844Y-115324999D01*
X155857372Y-115318598D01*
X155857379Y-115318596D01*
X155992086Y-115268354D01*
X155992089Y-115268352D01*
X156100688Y-115187055D01*
X156166153Y-115162637D01*
X156234426Y-115177488D01*
X156283832Y-115226893D01*
X156299000Y-115286321D01*
X156299000Y-117463678D01*
X156279315Y-117530717D01*
X156226511Y-117576472D01*
X156157353Y-117586416D01*
X156100689Y-117562945D01*
X155992088Y-117481647D01*
X155992086Y-117481645D01*
X155857379Y-117431403D01*
X155857372Y-117431401D01*
X155797844Y-117425000D01*
X155675000Y-117425000D01*
X155675000Y-118326000D01*
X155655315Y-118393039D01*
X155602511Y-118438794D01*
X155551000Y-118450000D01*
X155299000Y-118450000D01*
X155231961Y-118430315D01*
X155186206Y-118377511D01*
X155175000Y-118326000D01*
X155175000Y-117425000D01*
X155052159Y-117425000D01*
X155039250Y-117426388D01*
X154970491Y-117413979D01*
X154919355Y-117366367D01*
X154902000Y-117303098D01*
X154902000Y-115446901D01*
X154921685Y-115379862D01*
X154974489Y-115334107D01*
X155039257Y-115323612D01*
X155052158Y-115324999D01*
X155052172Y-115325000D01*
X155175000Y-115325000D01*
X155175000Y-114550000D01*
X154600000Y-114550000D01*
X154600000Y-114872844D01*
X154606401Y-114932372D01*
X154606403Y-114932379D01*
X154656645Y-115067086D01*
X154656647Y-115067089D01*
X154724470Y-115157688D01*
X154748888Y-115223153D01*
X154734037Y-115291426D01*
X154684632Y-115340832D01*
X154625204Y-115356000D01*
X147406000Y-115356000D01*
X147338961Y-115336315D01*
X147293206Y-115283511D01*
X147282000Y-115232000D01*
X147282000Y-110908000D01*
X147301685Y-110840961D01*
X147354489Y-110795206D01*
X147406000Y-110784000D01*
X148246638Y-110784000D01*
X148313677Y-110803685D01*
G37*
%TD.AperFunction*%
%TD*%
%TA.AperFunction,Conductor*%
%TO.N,Net-(R9-Pad1)*%
G36*
X156885203Y-119325027D02*
G01*
X156891681Y-119331059D01*
X156892812Y-119332190D01*
X157007906Y-119418350D01*
X157007913Y-119418354D01*
X157141873Y-119468318D01*
X157197807Y-119510189D01*
X157222224Y-119575653D01*
X157207372Y-119643926D01*
X157157967Y-119693332D01*
X157098540Y-119708500D01*
X156804000Y-119708500D01*
X156736961Y-119688815D01*
X156691206Y-119636011D01*
X156680000Y-119584500D01*
X156680000Y-119418740D01*
X156699685Y-119351701D01*
X156752489Y-119305946D01*
X156821647Y-119296002D01*
X156885203Y-119325027D01*
G37*
%TD.AperFunction*%
%TA.AperFunction,Conductor*%
G36*
X154409677Y-104072685D02*
G01*
X154430319Y-104089319D01*
X154929319Y-104588319D01*
X154962804Y-104649642D01*
X154957820Y-104719334D01*
X154915948Y-104775267D01*
X154850484Y-104799684D01*
X154841638Y-104800000D01*
X154652155Y-104800000D01*
X154592627Y-104806401D01*
X154592620Y-104806403D01*
X154457913Y-104856645D01*
X154457906Y-104856649D01*
X154342812Y-104942809D01*
X154342809Y-104942812D01*
X154256649Y-105057906D01*
X154256645Y-105057913D01*
X154206403Y-105192620D01*
X154206401Y-105192627D01*
X154200000Y-105252155D01*
X154200000Y-105375000D01*
X155101000Y-105375000D01*
X155168039Y-105394685D01*
X155213794Y-105447489D01*
X155225000Y-105499000D01*
X155225000Y-105625000D01*
X155351000Y-105625000D01*
X155418039Y-105644685D01*
X155463794Y-105697489D01*
X155475000Y-105749000D01*
X155475000Y-106450000D01*
X155540000Y-106450000D01*
X155548685Y-106452550D01*
X155557647Y-106451262D01*
X155581687Y-106462240D01*
X155607039Y-106469685D01*
X155612966Y-106476525D01*
X155621203Y-106480287D01*
X155635492Y-106502521D01*
X155652794Y-106522489D01*
X155655081Y-106533003D01*
X155658977Y-106539065D01*
X155664000Y-106574000D01*
X155664000Y-106576487D01*
X155644315Y-106643526D01*
X155591511Y-106689281D01*
X155540488Y-106700486D01*
X150584254Y-106719999D01*
X150583766Y-106720000D01*
X149822000Y-106720000D01*
X149822000Y-109768000D01*
X150965000Y-110911000D01*
X159096000Y-110911000D01*
X159163039Y-110930685D01*
X159208794Y-110983489D01*
X159220000Y-111035000D01*
X159220000Y-118352638D01*
X159200315Y-118419677D01*
X159183681Y-118440319D01*
X158611681Y-119012319D01*
X158550358Y-119045804D01*
X158480666Y-119040820D01*
X158424733Y-118998948D01*
X158400316Y-118933484D01*
X158400000Y-118924638D01*
X158400000Y-118700000D01*
X157699000Y-118700000D01*
X157631961Y-118680315D01*
X157586206Y-118627511D01*
X157575000Y-118576000D01*
X157575000Y-118450000D01*
X157449000Y-118450000D01*
X157381961Y-118430315D01*
X157336206Y-118377511D01*
X157325000Y-118326000D01*
X157325000Y-118200000D01*
X157825000Y-118200000D01*
X158400000Y-118200000D01*
X158400000Y-117877172D01*
X158399999Y-117877155D01*
X158393598Y-117817627D01*
X158393596Y-117817620D01*
X158343354Y-117682913D01*
X158343350Y-117682906D01*
X158257190Y-117567812D01*
X158257187Y-117567809D01*
X158142093Y-117481649D01*
X158142086Y-117481645D01*
X158007379Y-117431403D01*
X158007372Y-117431401D01*
X157947844Y-117425000D01*
X157825000Y-117425000D01*
X157825000Y-118200000D01*
X157325000Y-118200000D01*
X157325000Y-117425000D01*
X157202155Y-117425000D01*
X157142627Y-117431401D01*
X157142620Y-117431403D01*
X157007913Y-117481645D01*
X157007904Y-117481650D01*
X157002806Y-117485467D01*
X156937341Y-117509881D01*
X156869069Y-117495027D01*
X156819665Y-117445619D01*
X156804500Y-117386197D01*
X156804500Y-115363802D01*
X156824185Y-115296763D01*
X156876989Y-115251008D01*
X156946147Y-115241064D01*
X157002811Y-115264536D01*
X157007906Y-115268350D01*
X157007913Y-115268354D01*
X157142620Y-115318596D01*
X157142627Y-115318598D01*
X157202155Y-115324999D01*
X157202172Y-115325000D01*
X157325000Y-115325000D01*
X157825000Y-115325000D01*
X157947828Y-115325000D01*
X157947844Y-115324999D01*
X158007372Y-115318598D01*
X158007379Y-115318596D01*
X158142086Y-115268354D01*
X158142093Y-115268350D01*
X158257187Y-115182190D01*
X158257190Y-115182187D01*
X158343350Y-115067093D01*
X158343354Y-115067086D01*
X158393596Y-114932379D01*
X158393598Y-114932372D01*
X158399999Y-114872844D01*
X158400000Y-114872827D01*
X158400000Y-114550000D01*
X157825000Y-114550000D01*
X157825000Y-115325000D01*
X157325000Y-115325000D01*
X157325000Y-114050000D01*
X157825000Y-114050000D01*
X158400000Y-114050000D01*
X158400000Y-113727172D01*
X158399999Y-113727155D01*
X158393598Y-113667627D01*
X158393596Y-113667620D01*
X158343354Y-113532913D01*
X158343350Y-113532906D01*
X158257190Y-113417812D01*
X158257187Y-113417809D01*
X158142093Y-113331649D01*
X158142086Y-113331645D01*
X158007379Y-113281403D01*
X158007372Y-113281401D01*
X157947844Y-113275000D01*
X157825000Y-113275000D01*
X157825000Y-114050000D01*
X157325000Y-114050000D01*
X157325000Y-113275000D01*
X157202155Y-113275000D01*
X157142627Y-113281401D01*
X157142620Y-113281403D01*
X157007913Y-113331645D01*
X157007906Y-113331649D01*
X156892812Y-113417809D01*
X156891681Y-113418941D01*
X156890276Y-113419707D01*
X156885712Y-113423125D01*
X156885220Y-113422468D01*
X156830358Y-113452426D01*
X156760666Y-113447442D01*
X156704733Y-113405570D01*
X156680316Y-113340106D01*
X156680000Y-113331260D01*
X156680000Y-113197000D01*
X151778362Y-113197000D01*
X151711323Y-113177315D01*
X151690681Y-113160681D01*
X148969319Y-110439319D01*
X148935834Y-110377996D01*
X148933000Y-110351638D01*
X148933000Y-105997844D01*
X150050000Y-105997844D01*
X150056401Y-106057372D01*
X150056403Y-106057379D01*
X150106645Y-106192086D01*
X150106649Y-106192093D01*
X150192809Y-106307187D01*
X150192812Y-106307190D01*
X150307906Y-106393350D01*
X150307913Y-106393354D01*
X150442620Y-106443596D01*
X150442627Y-106443598D01*
X150502155Y-106449999D01*
X150502172Y-106450000D01*
X150825000Y-106450000D01*
X151325000Y-106450000D01*
X151647828Y-106450000D01*
X151647844Y-106449999D01*
X151707372Y-106443598D01*
X151707379Y-106443596D01*
X151842086Y-106393354D01*
X151842093Y-106393350D01*
X151957187Y-106307190D01*
X151957190Y-106307187D01*
X152043350Y-106192093D01*
X152043354Y-106192086D01*
X152093596Y-106057379D01*
X152093598Y-106057372D01*
X152099999Y-105997844D01*
X154200000Y-105997844D01*
X154206401Y-106057372D01*
X154206403Y-106057379D01*
X154256645Y-106192086D01*
X154256649Y-106192093D01*
X154342809Y-106307187D01*
X154342812Y-106307190D01*
X154457906Y-106393350D01*
X154457913Y-106393354D01*
X154592620Y-106443596D01*
X154592627Y-106443598D01*
X154652155Y-106449999D01*
X154652172Y-106450000D01*
X154975000Y-106450000D01*
X154975000Y-105875000D01*
X154200000Y-105875000D01*
X154200000Y-105997844D01*
X152099999Y-105997844D01*
X152100000Y-105997827D01*
X152100000Y-105875000D01*
X151325000Y-105875000D01*
X151325000Y-106450000D01*
X150825000Y-106450000D01*
X150825000Y-105875000D01*
X150050000Y-105875000D01*
X150050000Y-105997844D01*
X148933000Y-105997844D01*
X148933000Y-105252155D01*
X150050000Y-105252155D01*
X150050000Y-105375000D01*
X150825000Y-105375000D01*
X151325000Y-105375000D01*
X152100000Y-105375000D01*
X152100000Y-105252172D01*
X152099999Y-105252155D01*
X152093598Y-105192627D01*
X152093596Y-105192620D01*
X152043354Y-105057913D01*
X152043350Y-105057906D01*
X151957190Y-104942812D01*
X151957187Y-104942809D01*
X151842093Y-104856649D01*
X151842086Y-104856645D01*
X151707379Y-104806403D01*
X151707372Y-104806401D01*
X151647844Y-104800000D01*
X151325000Y-104800000D01*
X151325000Y-105375000D01*
X150825000Y-105375000D01*
X150825000Y-104800000D01*
X150502155Y-104800000D01*
X150442627Y-104806401D01*
X150442620Y-104806403D01*
X150307913Y-104856645D01*
X150307906Y-104856649D01*
X150192812Y-104942809D01*
X150192809Y-104942812D01*
X150106649Y-105057906D01*
X150106645Y-105057913D01*
X150056403Y-105192620D01*
X150056401Y-105192627D01*
X150050000Y-105252155D01*
X148933000Y-105252155D01*
X148933000Y-104177000D01*
X148952685Y-104109961D01*
X149005489Y-104064206D01*
X149057000Y-104053000D01*
X154342638Y-104053000D01*
X154409677Y-104072685D01*
G37*
%TD.AperFunction*%
%TD*%
%TA.AperFunction,Conductor*%
%TO.N,/SEG7*%
G36*
X154149056Y-107231152D02*
G01*
X154195019Y-107283776D01*
X154205718Y-107348986D01*
X154200000Y-107402171D01*
X154200000Y-107525000D01*
X155101000Y-107525000D01*
X155168039Y-107544685D01*
X155213794Y-107597489D01*
X155225000Y-107649000D01*
X155225000Y-107775000D01*
X155351000Y-107775000D01*
X155418039Y-107794685D01*
X155463794Y-107847489D01*
X155475000Y-107899000D01*
X155475000Y-108600000D01*
X155797828Y-108600000D01*
X155797844Y-108599999D01*
X155857372Y-108593598D01*
X155857379Y-108593596D01*
X155992086Y-108543354D01*
X155992093Y-108543350D01*
X156107187Y-108457190D01*
X156107190Y-108457187D01*
X156198669Y-108334989D01*
X156199777Y-108335819D01*
X156242570Y-108293025D01*
X156310843Y-108278171D01*
X156376308Y-108302586D01*
X156418181Y-108358518D01*
X156426000Y-108401855D01*
X156426000Y-108768612D01*
X156406315Y-108835651D01*
X156375779Y-108868275D01*
X155939719Y-109191082D01*
X155903142Y-109220545D01*
X155902913Y-109220261D01*
X155893128Y-109228165D01*
X155883841Y-109234370D01*
X155883833Y-109234377D01*
X155765373Y-109352837D01*
X155672295Y-109492139D01*
X155608184Y-109646917D01*
X155608182Y-109646923D01*
X155603132Y-109672313D01*
X155570746Y-109734224D01*
X155569196Y-109735802D01*
X155005660Y-110299338D01*
X154944337Y-110332823D01*
X154901070Y-110333211D01*
X154900983Y-110334097D01*
X154894921Y-110333500D01*
X154894918Y-110333500D01*
X151246230Y-110333500D01*
X151179191Y-110313815D01*
X151158549Y-110297181D01*
X150481819Y-109620451D01*
X150448334Y-109559128D01*
X150445500Y-109532770D01*
X150445500Y-108724000D01*
X150465185Y-108656961D01*
X150517989Y-108611206D01*
X150569500Y-108600000D01*
X150825000Y-108600000D01*
X151325000Y-108600000D01*
X151647828Y-108600000D01*
X151647844Y-108599999D01*
X151707372Y-108593598D01*
X151707379Y-108593596D01*
X151842086Y-108543354D01*
X151842093Y-108543350D01*
X151957187Y-108457190D01*
X151957190Y-108457187D01*
X152043350Y-108342093D01*
X152043354Y-108342086D01*
X152093596Y-108207379D01*
X152093598Y-108207372D01*
X152099999Y-108147844D01*
X154200000Y-108147844D01*
X154206401Y-108207372D01*
X154206403Y-108207379D01*
X154256645Y-108342086D01*
X154256649Y-108342093D01*
X154342809Y-108457187D01*
X154342812Y-108457190D01*
X154457906Y-108543350D01*
X154457913Y-108543354D01*
X154592620Y-108593596D01*
X154592627Y-108593598D01*
X154652155Y-108599999D01*
X154652172Y-108600000D01*
X154975000Y-108600000D01*
X154975000Y-108025000D01*
X154200000Y-108025000D01*
X154200000Y-108147844D01*
X152099999Y-108147844D01*
X152100000Y-108147827D01*
X152100000Y-108025000D01*
X151325000Y-108025000D01*
X151325000Y-108600000D01*
X150825000Y-108600000D01*
X150825000Y-107899000D01*
X150844685Y-107831961D01*
X150897489Y-107786206D01*
X150949000Y-107775000D01*
X151075000Y-107775000D01*
X151075000Y-107649000D01*
X151094685Y-107581961D01*
X151147489Y-107536206D01*
X151199000Y-107525000D01*
X152100000Y-107525000D01*
X152100000Y-107402172D01*
X152099999Y-107402158D01*
X152095071Y-107356326D01*
X152107475Y-107287566D01*
X152155085Y-107236428D01*
X152217867Y-107219071D01*
X154081940Y-107211732D01*
X154149056Y-107231152D01*
G37*
%TD.AperFunction*%
%TD*%
%TA.AperFunction,Conductor*%
%TO.N,Net-(R9-Pad1)*%
G36*
X145253818Y-116010685D02*
G01*
X145299573Y-116063489D01*
X145309517Y-116132647D01*
X145280492Y-116196203D01*
X145261091Y-116214266D01*
X145142809Y-116302812D01*
X145056649Y-116417906D01*
X145056645Y-116417913D01*
X145006403Y-116552620D01*
X145006401Y-116552627D01*
X145000000Y-116612155D01*
X145000000Y-116735000D01*
X147050000Y-116735000D01*
X147050000Y-116612172D01*
X147049999Y-116612155D01*
X147043598Y-116552627D01*
X147043596Y-116552620D01*
X146993354Y-116417913D01*
X146993350Y-116417906D01*
X146907190Y-116302812D01*
X146788909Y-116214266D01*
X146747039Y-116158332D01*
X146742055Y-116088641D01*
X146775541Y-116027318D01*
X146836864Y-115993833D01*
X146863221Y-115991000D01*
X154270000Y-115991000D01*
X154337039Y-116010685D01*
X154382794Y-116063489D01*
X154394000Y-116115000D01*
X154394000Y-118915000D01*
X154374315Y-118982039D01*
X154321511Y-119027794D01*
X154270000Y-119039000D01*
X151928404Y-119039000D01*
X151861365Y-119019315D01*
X151815610Y-118966511D01*
X151805666Y-118897353D01*
X151810470Y-118876690D01*
X151811090Y-118874785D01*
X151850500Y-118625962D01*
X151850500Y-118374038D01*
X151811090Y-118125215D01*
X151733241Y-117885621D01*
X151733239Y-117885618D01*
X151733239Y-117885616D01*
X151681433Y-117783942D01*
X151618870Y-117661155D01*
X151501849Y-117500089D01*
X151470798Y-117457350D01*
X151470794Y-117457345D01*
X151292654Y-117279205D01*
X151292649Y-117279201D01*
X151088848Y-117131132D01*
X151088847Y-117131131D01*
X151088845Y-117131130D01*
X151018747Y-117095413D01*
X150864383Y-117016760D01*
X150624785Y-116938910D01*
X150375962Y-116899500D01*
X150124038Y-116899500D01*
X149999626Y-116919205D01*
X149875214Y-116938910D01*
X149635616Y-117016760D01*
X149411151Y-117131132D01*
X149207350Y-117279201D01*
X149207345Y-117279205D01*
X149029205Y-117457345D01*
X149029201Y-117457350D01*
X148881132Y-117661151D01*
X148766760Y-117885616D01*
X148688910Y-118125214D01*
X148649500Y-118374038D01*
X148649500Y-118625961D01*
X148688908Y-118874777D01*
X148688909Y-118874781D01*
X148688910Y-118874785D01*
X148689526Y-118876681D01*
X148689547Y-118877441D01*
X148690047Y-118879520D01*
X148689610Y-118879624D01*
X148691523Y-118946519D01*
X148655445Y-119006353D01*
X148592745Y-119037183D01*
X148571596Y-119039000D01*
X142888362Y-119039000D01*
X142821323Y-119019315D01*
X142800681Y-119002681D01*
X141738000Y-117940000D01*
X141628058Y-117830058D01*
X141625000Y-117816000D01*
X141625000Y-117810000D01*
X142125000Y-117810000D01*
X142447828Y-117810000D01*
X142447844Y-117809999D01*
X142507372Y-117803598D01*
X142507379Y-117803596D01*
X142642086Y-117753354D01*
X142642093Y-117753350D01*
X142757187Y-117667190D01*
X142757190Y-117667187D01*
X142843350Y-117552093D01*
X142843354Y-117552086D01*
X142893596Y-117417379D01*
X142893598Y-117417372D01*
X142899999Y-117357844D01*
X145000000Y-117357844D01*
X145006401Y-117417372D01*
X145006403Y-117417379D01*
X145056645Y-117552086D01*
X145056649Y-117552093D01*
X145142809Y-117667187D01*
X145142812Y-117667190D01*
X145257906Y-117753350D01*
X145257913Y-117753354D01*
X145392620Y-117803596D01*
X145392627Y-117803598D01*
X145452155Y-117809999D01*
X145452172Y-117810000D01*
X145775000Y-117810000D01*
X146275000Y-117810000D01*
X146597828Y-117810000D01*
X146597844Y-117809999D01*
X146657372Y-117803598D01*
X146657379Y-117803596D01*
X146792086Y-117753354D01*
X146792093Y-117753350D01*
X146907187Y-117667190D01*
X146907190Y-117667187D01*
X146993350Y-117552093D01*
X146993354Y-117552086D01*
X147043596Y-117417379D01*
X147043598Y-117417372D01*
X147049999Y-117357844D01*
X147050000Y-117357827D01*
X147050000Y-117235000D01*
X146275000Y-117235000D01*
X146275000Y-117810000D01*
X145775000Y-117810000D01*
X145775000Y-117235000D01*
X145000000Y-117235000D01*
X145000000Y-117357844D01*
X142899999Y-117357844D01*
X142900000Y-117357827D01*
X142900000Y-117235000D01*
X142125000Y-117235000D01*
X142125000Y-117810000D01*
X141625000Y-117810000D01*
X141625000Y-117109000D01*
X141644685Y-117041961D01*
X141697489Y-116996206D01*
X141749000Y-116985000D01*
X141875000Y-116985000D01*
X141875000Y-116859000D01*
X141894685Y-116791961D01*
X141947489Y-116746206D01*
X141999000Y-116735000D01*
X142900000Y-116735000D01*
X142900000Y-116612172D01*
X142899999Y-116612155D01*
X142893598Y-116552627D01*
X142893596Y-116552620D01*
X142843354Y-116417913D01*
X142843350Y-116417906D01*
X142757190Y-116302812D01*
X142638909Y-116214266D01*
X142597039Y-116158332D01*
X142592055Y-116088641D01*
X142625541Y-116027318D01*
X142686864Y-115993833D01*
X142713221Y-115991000D01*
X145186779Y-115991000D01*
X145253818Y-116010685D01*
G37*
%TD.AperFunction*%
%TA.AperFunction,Conductor*%
G36*
X135784968Y-107120685D02*
G01*
X135830723Y-107173489D01*
X135840667Y-107242647D01*
X135834111Y-107268334D01*
X135806402Y-107342623D01*
X135806401Y-107342627D01*
X135800000Y-107402155D01*
X135800000Y-107525000D01*
X136701000Y-107525000D01*
X136768039Y-107544685D01*
X136813794Y-107597489D01*
X136825000Y-107649000D01*
X136825000Y-107775000D01*
X136951000Y-107775000D01*
X137018039Y-107794685D01*
X137063794Y-107847489D01*
X137075000Y-107899000D01*
X137075000Y-108291000D01*
X136868000Y-108498000D01*
X136868000Y-108730000D01*
X136868000Y-109075865D01*
X136848315Y-109142904D01*
X136847104Y-109144753D01*
X136837920Y-109158498D01*
X136837914Y-109158508D01*
X136781342Y-109295086D01*
X136781340Y-109295092D01*
X136752500Y-109440079D01*
X136752500Y-109838508D01*
X136751142Y-109856807D01*
X136685186Y-110298751D01*
X136661401Y-110458121D01*
X136656372Y-110504798D01*
X136656011Y-110504759D01*
X136654680Y-110517268D01*
X136652500Y-110528229D01*
X136652500Y-110695771D01*
X136685182Y-110860074D01*
X136685184Y-110860082D01*
X136749295Y-111014860D01*
X136845758Y-111159227D01*
X136843846Y-111160504D01*
X136867163Y-111215376D01*
X136868000Y-111229755D01*
X136868000Y-111546000D01*
X141285199Y-115963199D01*
X141318684Y-116024522D01*
X141313700Y-116094214D01*
X141271828Y-116150147D01*
X141240852Y-116167062D01*
X141107911Y-116216646D01*
X141107906Y-116216649D01*
X140992812Y-116302809D01*
X140992809Y-116302812D01*
X140906649Y-116417906D01*
X140906645Y-116417913D01*
X140856403Y-116552620D01*
X140856401Y-116552627D01*
X140850000Y-116612155D01*
X140850000Y-116752638D01*
X140830315Y-116819677D01*
X140777511Y-116865432D01*
X140708353Y-116875376D01*
X140644797Y-116846351D01*
X140638319Y-116840319D01*
X132528000Y-108730000D01*
X132430838Y-108632838D01*
X132425000Y-108606000D01*
X132425000Y-108600000D01*
X132925000Y-108600000D01*
X133247828Y-108600000D01*
X133247844Y-108599999D01*
X133307372Y-108593598D01*
X133307379Y-108593596D01*
X133442086Y-108543354D01*
X133442093Y-108543350D01*
X133557187Y-108457190D01*
X133557190Y-108457187D01*
X133643350Y-108342093D01*
X133643354Y-108342086D01*
X133693596Y-108207379D01*
X133693598Y-108207372D01*
X133699999Y-108147844D01*
X135800000Y-108147844D01*
X135806401Y-108207372D01*
X135806403Y-108207379D01*
X135856645Y-108342086D01*
X135856649Y-108342093D01*
X135942809Y-108457187D01*
X135942812Y-108457190D01*
X136057906Y-108543350D01*
X136057913Y-108543354D01*
X136192620Y-108593596D01*
X136192627Y-108593598D01*
X136252155Y-108599999D01*
X136252172Y-108600000D01*
X136575000Y-108600000D01*
X136575000Y-108025000D01*
X135800000Y-108025000D01*
X135800000Y-108147844D01*
X133699999Y-108147844D01*
X133700000Y-108147827D01*
X133700000Y-108025000D01*
X132925000Y-108025000D01*
X132925000Y-108600000D01*
X132425000Y-108600000D01*
X132425000Y-107899000D01*
X132444685Y-107831961D01*
X132497489Y-107786206D01*
X132549000Y-107775000D01*
X132675000Y-107775000D01*
X132675000Y-107649000D01*
X132694685Y-107581961D01*
X132747489Y-107536206D01*
X132799000Y-107525000D01*
X133700000Y-107525000D01*
X133700000Y-107402172D01*
X133699999Y-107402155D01*
X133693598Y-107342627D01*
X133693597Y-107342623D01*
X133665889Y-107268334D01*
X133660905Y-107198642D01*
X133694390Y-107137319D01*
X133755713Y-107103834D01*
X133782071Y-107101000D01*
X135717929Y-107101000D01*
X135784968Y-107120685D01*
G37*
%TD.AperFunction*%
%TD*%
%TA.AperFunction,Conductor*%
%TO.N,/SEG3*%
G36*
X146483040Y-90229685D02*
G01*
X146528795Y-90282489D01*
X146540001Y-90334000D01*
X146540001Y-90783322D01*
X146550144Y-90882608D01*
X146603330Y-91043116D01*
X146603331Y-91043116D01*
X147436448Y-90210000D01*
X147490000Y-90210000D01*
X147490000Y-90249496D01*
X147510444Y-90325796D01*
X147536000Y-90370060D01*
X147536000Y-90817549D01*
X146956882Y-91396667D01*
X147117392Y-91449855D01*
X147117399Y-91449856D01*
X147216683Y-91459999D01*
X147411999Y-91459999D01*
X147479039Y-91479683D01*
X147524794Y-91532487D01*
X147536000Y-91583999D01*
X147536000Y-97071000D01*
X147516315Y-97138039D01*
X147463511Y-97183794D01*
X147412000Y-97195000D01*
X147089176Y-97195000D01*
X147022137Y-97175315D01*
X146976382Y-97122511D01*
X146966438Y-97053353D01*
X146989911Y-96996687D01*
X146993352Y-96992090D01*
X146993354Y-96992086D01*
X147043596Y-96857379D01*
X147043598Y-96857372D01*
X147049999Y-96797844D01*
X147050000Y-96797827D01*
X147050000Y-96675000D01*
X145000000Y-96675000D01*
X145000000Y-96797844D01*
X145006401Y-96857372D01*
X145006403Y-96857379D01*
X145056645Y-96992086D01*
X145056647Y-96992090D01*
X145060089Y-96996687D01*
X145084508Y-97062151D01*
X145069658Y-97130424D01*
X145020254Y-97179831D01*
X144960824Y-97195000D01*
X142939176Y-97195000D01*
X142872137Y-97175315D01*
X142826382Y-97122511D01*
X142816438Y-97053353D01*
X142839911Y-96996687D01*
X142843352Y-96992090D01*
X142843354Y-96992086D01*
X142893596Y-96857379D01*
X142893598Y-96857372D01*
X142899999Y-96797844D01*
X142900000Y-96797827D01*
X142900000Y-96675000D01*
X140850000Y-96675000D01*
X140850000Y-96797844D01*
X140856401Y-96857372D01*
X140856403Y-96857379D01*
X140906645Y-96992086D01*
X140906647Y-96992090D01*
X140910089Y-96996687D01*
X140934508Y-97062151D01*
X140919658Y-97130424D01*
X140870254Y-97179831D01*
X140810824Y-97195000D01*
X139532000Y-97195000D01*
X139464961Y-97175315D01*
X139419206Y-97122511D01*
X139408000Y-97071000D01*
X139408000Y-96052155D01*
X140850000Y-96052155D01*
X140850000Y-96175000D01*
X141625000Y-96175000D01*
X142125000Y-96175000D01*
X142900000Y-96175000D01*
X142900000Y-96052172D01*
X142899999Y-96052155D01*
X145000000Y-96052155D01*
X145000000Y-96175000D01*
X145775000Y-96175000D01*
X146275000Y-96175000D01*
X147050000Y-96175000D01*
X147050000Y-96052172D01*
X147049999Y-96052155D01*
X147043598Y-95992627D01*
X147043596Y-95992620D01*
X146993354Y-95857913D01*
X146993350Y-95857906D01*
X146907190Y-95742812D01*
X146907187Y-95742809D01*
X146792093Y-95656649D01*
X146792086Y-95656645D01*
X146657379Y-95606403D01*
X146657372Y-95606401D01*
X146597844Y-95600000D01*
X146275000Y-95600000D01*
X146275000Y-96175000D01*
X145775000Y-96175000D01*
X145775000Y-95600000D01*
X145452155Y-95600000D01*
X145392627Y-95606401D01*
X145392620Y-95606403D01*
X145257913Y-95656645D01*
X145257906Y-95656649D01*
X145142812Y-95742809D01*
X145142809Y-95742812D01*
X145056649Y-95857906D01*
X145056645Y-95857913D01*
X145006403Y-95992620D01*
X145006401Y-95992627D01*
X145000000Y-96052155D01*
X142899999Y-96052155D01*
X142893598Y-95992627D01*
X142893596Y-95992620D01*
X142843354Y-95857913D01*
X142843350Y-95857906D01*
X142757190Y-95742812D01*
X142757187Y-95742809D01*
X142642093Y-95656649D01*
X142642086Y-95656645D01*
X142507379Y-95606403D01*
X142507372Y-95606401D01*
X142447844Y-95600000D01*
X142125000Y-95600000D01*
X142125000Y-96175000D01*
X141625000Y-96175000D01*
X141625000Y-95600000D01*
X141302155Y-95600000D01*
X141242627Y-95606401D01*
X141242620Y-95606403D01*
X141107913Y-95656645D01*
X141107906Y-95656649D01*
X140992812Y-95742809D01*
X140992809Y-95742812D01*
X140906649Y-95857906D01*
X140906645Y-95857913D01*
X140856403Y-95992620D01*
X140856401Y-95992627D01*
X140850000Y-96052155D01*
X139408000Y-96052155D01*
X139408000Y-95417000D01*
X139407061Y-95416061D01*
X139373576Y-95354738D01*
X139373142Y-95352657D01*
X139367658Y-95325087D01*
X139328229Y-95229896D01*
X139311087Y-95188511D01*
X139311080Y-95188498D01*
X139228951Y-95065584D01*
X139228948Y-95065580D01*
X139124417Y-94961049D01*
X139119287Y-94957622D01*
X139099601Y-94940764D01*
X139099528Y-94940843D01*
X139097896Y-94939304D01*
X139096897Y-94938449D01*
X139096308Y-94937808D01*
X138765077Y-94667479D01*
X138765070Y-94667473D01*
X138749943Y-94655825D01*
X138737916Y-94645259D01*
X137056236Y-92963578D01*
X137057682Y-92962131D01*
X137023610Y-92912120D01*
X137021732Y-92842276D01*
X137057913Y-92782503D01*
X137120665Y-92751781D01*
X137141605Y-92750000D01*
X143726000Y-92750000D01*
X146229681Y-90246319D01*
X146256608Y-90231615D01*
X146282427Y-90215023D01*
X146288627Y-90214131D01*
X146291004Y-90212834D01*
X146317362Y-90210000D01*
X146416001Y-90210000D01*
X146483040Y-90229685D01*
G37*
%TD.AperFunction*%
%TD*%
%TA.AperFunction,Conductor*%
%TO.N,Net-(R10-Pad1)*%
G36*
X140954220Y-97722685D02*
G01*
X140999975Y-97775489D01*
X141009919Y-97844647D01*
X140986448Y-97901311D01*
X140906646Y-98007911D01*
X140906645Y-98007913D01*
X140856403Y-98142620D01*
X140856401Y-98142627D01*
X140850000Y-98202155D01*
X140850000Y-98325000D01*
X142900000Y-98325000D01*
X142900000Y-98202172D01*
X142899999Y-98202155D01*
X142893598Y-98142627D01*
X142893596Y-98142620D01*
X142843354Y-98007913D01*
X142843353Y-98007911D01*
X142763552Y-97901311D01*
X142739135Y-97835847D01*
X142753986Y-97767574D01*
X142803391Y-97718168D01*
X142862819Y-97703000D01*
X145037181Y-97703000D01*
X145104220Y-97722685D01*
X145149975Y-97775489D01*
X145159919Y-97844647D01*
X145136448Y-97901311D01*
X145056646Y-98007911D01*
X145056645Y-98007913D01*
X145006403Y-98142620D01*
X145006401Y-98142627D01*
X145000000Y-98202155D01*
X145000000Y-98325000D01*
X145901000Y-98325000D01*
X145968039Y-98344685D01*
X146013794Y-98397489D01*
X146025000Y-98449000D01*
X146025000Y-98575000D01*
X146151000Y-98575000D01*
X146218039Y-98594685D01*
X146263794Y-98647489D01*
X146275000Y-98699000D01*
X146275000Y-99400000D01*
X146597828Y-99400000D01*
X146597839Y-99399999D01*
X146636742Y-99395816D01*
X146705502Y-99408220D01*
X146756640Y-99455829D01*
X146774000Y-99519105D01*
X146774000Y-104680894D01*
X146754315Y-104747933D01*
X146701511Y-104793688D01*
X146636745Y-104804184D01*
X146597828Y-104800000D01*
X146275000Y-104800000D01*
X146275000Y-105501000D01*
X146255315Y-105568039D01*
X146202511Y-105613794D01*
X146151000Y-105625000D01*
X146025000Y-105625000D01*
X146025000Y-105751000D01*
X146005315Y-105818039D01*
X145952511Y-105863794D01*
X145901000Y-105875000D01*
X145000000Y-105875000D01*
X145000000Y-105997844D01*
X145006401Y-106057372D01*
X145006403Y-106057379D01*
X145056645Y-106192086D01*
X145056647Y-106192089D01*
X145113241Y-106267688D01*
X145137659Y-106333152D01*
X145122808Y-106401426D01*
X145073403Y-106450831D01*
X145013975Y-106466000D01*
X142886025Y-106466000D01*
X142818986Y-106446315D01*
X142773231Y-106393511D01*
X142763287Y-106324353D01*
X142786759Y-106267688D01*
X142843352Y-106192089D01*
X142843354Y-106192086D01*
X142893596Y-106057379D01*
X142893598Y-106057372D01*
X142899999Y-105997844D01*
X142900000Y-105997827D01*
X142900000Y-105875000D01*
X140850000Y-105875000D01*
X140850000Y-105997844D01*
X140856401Y-106057372D01*
X140856403Y-106057379D01*
X140906645Y-106192086D01*
X140906647Y-106192089D01*
X140963241Y-106267688D01*
X140987659Y-106333152D01*
X140972808Y-106401426D01*
X140923403Y-106450831D01*
X140863975Y-106466000D01*
X139532000Y-106466000D01*
X139464961Y-106446315D01*
X139419206Y-106393511D01*
X139408000Y-106342000D01*
X139408000Y-105252155D01*
X140850000Y-105252155D01*
X140850000Y-105375000D01*
X141625000Y-105375000D01*
X142125000Y-105375000D01*
X142900000Y-105375000D01*
X142900000Y-105252172D01*
X142899999Y-105252155D01*
X145000000Y-105252155D01*
X145000000Y-105375000D01*
X145775000Y-105375000D01*
X145775000Y-104800000D01*
X145452155Y-104800000D01*
X145392627Y-104806401D01*
X145392620Y-104806403D01*
X145257913Y-104856645D01*
X145257906Y-104856649D01*
X145142812Y-104942809D01*
X145142809Y-104942812D01*
X145056649Y-105057906D01*
X145056645Y-105057913D01*
X145006403Y-105192620D01*
X145006401Y-105192627D01*
X145000000Y-105252155D01*
X142899999Y-105252155D01*
X142893598Y-105192627D01*
X142893596Y-105192620D01*
X142843354Y-105057913D01*
X142843350Y-105057906D01*
X142757190Y-104942812D01*
X142757187Y-104942809D01*
X142642093Y-104856649D01*
X142642086Y-104856645D01*
X142507379Y-104806403D01*
X142507372Y-104806401D01*
X142447844Y-104800000D01*
X142125000Y-104800000D01*
X142125000Y-105375000D01*
X141625000Y-105375000D01*
X141625000Y-104800000D01*
X141302155Y-104800000D01*
X141242627Y-104806401D01*
X141242620Y-104806403D01*
X141107913Y-104856645D01*
X141107906Y-104856649D01*
X140992812Y-104942809D01*
X140992809Y-104942812D01*
X140906649Y-105057906D01*
X140906645Y-105057913D01*
X140856403Y-105192620D01*
X140856401Y-105192627D01*
X140850000Y-105252155D01*
X139408000Y-105252155D01*
X139408000Y-98947844D01*
X140850000Y-98947844D01*
X140856401Y-99007372D01*
X140856403Y-99007379D01*
X140906645Y-99142086D01*
X140906649Y-99142093D01*
X140992809Y-99257187D01*
X140992812Y-99257190D01*
X141107906Y-99343350D01*
X141107913Y-99343354D01*
X141242620Y-99393596D01*
X141242627Y-99393598D01*
X141302155Y-99399999D01*
X141302172Y-99400000D01*
X141625000Y-99400000D01*
X142125000Y-99400000D01*
X142447828Y-99400000D01*
X142447844Y-99399999D01*
X142507372Y-99393598D01*
X142507379Y-99393596D01*
X142642086Y-99343354D01*
X142642093Y-99343350D01*
X142757187Y-99257190D01*
X142757190Y-99257187D01*
X142843350Y-99142093D01*
X142843354Y-99142086D01*
X142893596Y-99007379D01*
X142893598Y-99007372D01*
X142899999Y-98947844D01*
X145000000Y-98947844D01*
X145006401Y-99007372D01*
X145006403Y-99007379D01*
X145056645Y-99142086D01*
X145056649Y-99142093D01*
X145142809Y-99257187D01*
X145142812Y-99257190D01*
X145257906Y-99343350D01*
X145257913Y-99343354D01*
X145392620Y-99393596D01*
X145392627Y-99393598D01*
X145452155Y-99399999D01*
X145452172Y-99400000D01*
X145775000Y-99400000D01*
X145775000Y-98825000D01*
X145000000Y-98825000D01*
X145000000Y-98947844D01*
X142899999Y-98947844D01*
X142900000Y-98947827D01*
X142900000Y-98825000D01*
X142125000Y-98825000D01*
X142125000Y-99400000D01*
X141625000Y-99400000D01*
X141625000Y-98825000D01*
X140850000Y-98825000D01*
X140850000Y-98947844D01*
X139408000Y-98947844D01*
X139408000Y-97827000D01*
X139427685Y-97759961D01*
X139480489Y-97714206D01*
X139532000Y-97703000D01*
X140887181Y-97703000D01*
X140954220Y-97722685D01*
G37*
%TD.AperFunction*%
%TD*%
%TA.AperFunction,Conductor*%
%TO.N,/SEG4*%
G36*
X140901069Y-106993685D02*
G01*
X140946824Y-107046489D01*
X140956768Y-107115647D01*
X140933297Y-107172311D01*
X140906647Y-107207910D01*
X140906645Y-107207913D01*
X140856403Y-107342620D01*
X140856401Y-107342627D01*
X140850000Y-107402155D01*
X140850000Y-107525000D01*
X142900000Y-107525000D01*
X142900000Y-107402172D01*
X142899999Y-107402155D01*
X142893598Y-107342627D01*
X142893596Y-107342620D01*
X142843354Y-107207913D01*
X142843352Y-107207910D01*
X142816703Y-107172311D01*
X142792286Y-107106846D01*
X142807138Y-107038573D01*
X142856543Y-106989168D01*
X142915970Y-106974000D01*
X144984030Y-106974000D01*
X145051069Y-106993685D01*
X145096824Y-107046489D01*
X145106768Y-107115647D01*
X145083297Y-107172311D01*
X145056647Y-107207910D01*
X145056645Y-107207913D01*
X145006403Y-107342620D01*
X145006401Y-107342627D01*
X145000000Y-107402155D01*
X145000000Y-107525000D01*
X145901000Y-107525000D01*
X145968039Y-107544685D01*
X146013794Y-107597489D01*
X146025000Y-107649000D01*
X146025000Y-107775000D01*
X146151000Y-107775000D01*
X146218039Y-107794685D01*
X146263794Y-107847489D01*
X146275000Y-107899000D01*
X146275000Y-108600000D01*
X146597828Y-108600000D01*
X146597839Y-108599999D01*
X146636742Y-108595816D01*
X146705502Y-108608220D01*
X146756640Y-108655829D01*
X146774000Y-108719105D01*
X146774000Y-113890894D01*
X146754315Y-113957933D01*
X146701511Y-114003688D01*
X146636745Y-114014184D01*
X146597828Y-114010000D01*
X146275000Y-114010000D01*
X146275000Y-114711000D01*
X146255315Y-114778039D01*
X146202511Y-114823794D01*
X146151000Y-114835000D01*
X146025000Y-114835000D01*
X146025000Y-114961000D01*
X146005315Y-115028039D01*
X145952511Y-115073794D01*
X145901000Y-115085000D01*
X145000000Y-115085000D01*
X145000000Y-115207844D01*
X145006401Y-115267372D01*
X145006403Y-115267380D01*
X145024413Y-115315667D01*
X145029397Y-115385359D01*
X144995912Y-115446682D01*
X144934588Y-115480166D01*
X144908231Y-115483000D01*
X142991769Y-115483000D01*
X142924730Y-115463315D01*
X142878975Y-115410511D01*
X142869031Y-115341353D01*
X142875587Y-115315667D01*
X142893596Y-115267380D01*
X142893598Y-115267372D01*
X142899999Y-115207844D01*
X142900000Y-115207827D01*
X142900000Y-115085000D01*
X142185000Y-115085000D01*
X141685000Y-114585000D01*
X142125000Y-114585000D01*
X142900000Y-114585000D01*
X142900000Y-114462172D01*
X142899999Y-114462155D01*
X145000000Y-114462155D01*
X145000000Y-114585000D01*
X145775000Y-114585000D01*
X145775000Y-114010000D01*
X145452155Y-114010000D01*
X145392627Y-114016401D01*
X145392620Y-114016403D01*
X145257913Y-114066645D01*
X145257906Y-114066649D01*
X145142812Y-114152809D01*
X145142809Y-114152812D01*
X145056649Y-114267906D01*
X145056645Y-114267913D01*
X145006403Y-114402620D01*
X145006401Y-114402627D01*
X145000000Y-114462155D01*
X142899999Y-114462155D01*
X142893598Y-114402627D01*
X142893596Y-114402620D01*
X142843354Y-114267913D01*
X142843350Y-114267906D01*
X142757190Y-114152812D01*
X142757187Y-114152809D01*
X142642093Y-114066649D01*
X142642086Y-114066645D01*
X142507379Y-114016403D01*
X142507372Y-114016401D01*
X142447844Y-114010000D01*
X142125000Y-114010000D01*
X142125000Y-114585000D01*
X141685000Y-114585000D01*
X141625000Y-114525000D01*
X141625000Y-114010000D01*
X141302155Y-114010000D01*
X141242625Y-114016401D01*
X141225351Y-114022844D01*
X141155659Y-114027825D01*
X141094341Y-113994341D01*
X137793319Y-110693319D01*
X137759834Y-110631996D01*
X137757000Y-110605638D01*
X137757000Y-108432755D01*
X137776685Y-108365716D01*
X137781735Y-108358442D01*
X137793795Y-108342332D01*
X137793796Y-108342331D01*
X137844091Y-108207483D01*
X137850500Y-108147873D01*
X137850500Y-108147844D01*
X140850000Y-108147844D01*
X140856401Y-108207372D01*
X140856403Y-108207379D01*
X140906645Y-108342086D01*
X140906649Y-108342093D01*
X140992809Y-108457187D01*
X140992812Y-108457190D01*
X141107906Y-108543350D01*
X141107913Y-108543354D01*
X141242620Y-108593596D01*
X141242627Y-108593598D01*
X141302155Y-108599999D01*
X141302172Y-108600000D01*
X141625000Y-108600000D01*
X142125000Y-108600000D01*
X142447828Y-108600000D01*
X142447844Y-108599999D01*
X142507372Y-108593598D01*
X142507379Y-108593596D01*
X142642086Y-108543354D01*
X142642093Y-108543350D01*
X142757187Y-108457190D01*
X142757190Y-108457187D01*
X142843350Y-108342093D01*
X142843354Y-108342086D01*
X142893596Y-108207379D01*
X142893598Y-108207372D01*
X142899999Y-108147844D01*
X145000000Y-108147844D01*
X145006401Y-108207372D01*
X145006403Y-108207379D01*
X145056645Y-108342086D01*
X145056649Y-108342093D01*
X145142809Y-108457187D01*
X145142812Y-108457190D01*
X145257906Y-108543350D01*
X145257913Y-108543354D01*
X145392620Y-108593596D01*
X145392627Y-108593598D01*
X145452155Y-108599999D01*
X145452172Y-108600000D01*
X145775000Y-108600000D01*
X145775000Y-108025000D01*
X145000000Y-108025000D01*
X145000000Y-108147844D01*
X142899999Y-108147844D01*
X142900000Y-108147827D01*
X142900000Y-108025000D01*
X142125000Y-108025000D01*
X142125000Y-108600000D01*
X141625000Y-108600000D01*
X141625000Y-108025000D01*
X140850000Y-108025000D01*
X140850000Y-108147844D01*
X137850500Y-108147844D01*
X137850499Y-107775000D01*
X137850499Y-107402129D01*
X137850498Y-107402123D01*
X137844091Y-107342516D01*
X137793797Y-107207671D01*
X137793796Y-107207669D01*
X137781732Y-107191553D01*
X137773994Y-107170807D01*
X137762023Y-107152179D01*
X137758871Y-107130257D01*
X137757316Y-107126088D01*
X137757000Y-107117244D01*
X137757000Y-107098000D01*
X137776685Y-107030961D01*
X137829489Y-106985206D01*
X137881000Y-106974000D01*
X140834030Y-106974000D01*
X140901069Y-106993685D01*
G37*
%TD.AperFunction*%
%TD*%
%TA.AperFunction,Conductor*%
%TO.N,/SEG6*%
G36*
X134849940Y-82774205D02*
G01*
X134905795Y-82830060D01*
X134974204Y-82869556D01*
X135050504Y-82890000D01*
X135129496Y-82890000D01*
X135205796Y-82869556D01*
X135274205Y-82830060D01*
X135330060Y-82774205D01*
X135363087Y-82717000D01*
X135570553Y-82717000D01*
X136133678Y-83280126D01*
X136133678Y-83280125D01*
X136159097Y-83245141D01*
X136249234Y-83068236D01*
X136297208Y-83017439D01*
X136365029Y-83000644D01*
X136431164Y-83023181D01*
X136470204Y-83068235D01*
X136471115Y-83070024D01*
X136471116Y-83070025D01*
X136560476Y-83245405D01*
X136676172Y-83404646D01*
X136815354Y-83543828D01*
X136974595Y-83659524D01*
X137057455Y-83701743D01*
X137149970Y-83748882D01*
X137149972Y-83748882D01*
X137149975Y-83748884D01*
X137250317Y-83781487D01*
X137337173Y-83809709D01*
X137531578Y-83840500D01*
X137531583Y-83840500D01*
X137728422Y-83840500D01*
X137922826Y-83809709D01*
X137924328Y-83809221D01*
X138110025Y-83748884D01*
X138285405Y-83659524D01*
X138444646Y-83543828D01*
X138583828Y-83404646D01*
X138699524Y-83245405D01*
X138788884Y-83070025D01*
X138789515Y-83068787D01*
X138837489Y-83017990D01*
X138905310Y-83001195D01*
X138971445Y-83023732D01*
X139010485Y-83068787D01*
X139100474Y-83245403D01*
X139125702Y-83280125D01*
X139216172Y-83404646D01*
X139355354Y-83543828D01*
X139514595Y-83659524D01*
X139597455Y-83701743D01*
X139689970Y-83748882D01*
X139689972Y-83748882D01*
X139689975Y-83748884D01*
X139790317Y-83781487D01*
X139877173Y-83809709D01*
X140071578Y-83840500D01*
X140071583Y-83840500D01*
X140268422Y-83840500D01*
X140462826Y-83809709D01*
X140464328Y-83809221D01*
X140650025Y-83748884D01*
X140825405Y-83659524D01*
X140984646Y-83543828D01*
X141123828Y-83404646D01*
X141239524Y-83245405D01*
X141328884Y-83070025D01*
X141329515Y-83068787D01*
X141338160Y-83059633D01*
X141342896Y-83047965D01*
X141361695Y-83034712D01*
X141377489Y-83017990D01*
X141389712Y-83014963D01*
X141400003Y-83007709D01*
X141422982Y-83006724D01*
X141445310Y-83001195D01*
X141457227Y-83005256D01*
X141469809Y-83004717D01*
X141489674Y-83016313D01*
X141511445Y-83023732D01*
X141520718Y-83034434D01*
X141530150Y-83039940D01*
X141550485Y-83068787D01*
X141553485Y-83074675D01*
X141567000Y-83130969D01*
X141567000Y-86149000D01*
X141547315Y-86216039D01*
X141494511Y-86261794D01*
X141443000Y-86273000D01*
X135424500Y-86273000D01*
X135357461Y-86253315D01*
X135311706Y-86200511D01*
X135300500Y-86149000D01*
X135300500Y-85974038D01*
X135292553Y-85923861D01*
X135261090Y-85725215D01*
X135183241Y-85485621D01*
X135183239Y-85485618D01*
X135183239Y-85485616D01*
X135141747Y-85404184D01*
X135068870Y-85261155D01*
X134981936Y-85141500D01*
X134920798Y-85057350D01*
X134920794Y-85057345D01*
X134742654Y-84879205D01*
X134742649Y-84879201D01*
X134538848Y-84731132D01*
X134538847Y-84731131D01*
X134538845Y-84731130D01*
X134457603Y-84689735D01*
X134314383Y-84616760D01*
X134074785Y-84538910D01*
X133825962Y-84499500D01*
X133574038Y-84499500D01*
X133449626Y-84519205D01*
X133325214Y-84538910D01*
X133085616Y-84616760D01*
X132861151Y-84731132D01*
X132657350Y-84879201D01*
X132657345Y-84879205D01*
X132479205Y-85057345D01*
X132479201Y-85057350D01*
X132331132Y-85261151D01*
X132216760Y-85485616D01*
X132138910Y-85725214D01*
X132099500Y-85974038D01*
X132099500Y-86149000D01*
X132079815Y-86216039D01*
X132027011Y-86261794D01*
X131975500Y-86273000D01*
X131423500Y-86273000D01*
X131356461Y-86253315D01*
X131310706Y-86200511D01*
X131299500Y-86149000D01*
X131299500Y-85923861D01*
X131319185Y-85856822D01*
X131335814Y-85836185D01*
X133538322Y-83633677D01*
X134399873Y-83633677D01*
X134399873Y-83633678D01*
X134434858Y-83659096D01*
X134610164Y-83748418D01*
X134797294Y-83809221D01*
X134991618Y-83840000D01*
X135188382Y-83840000D01*
X135382705Y-83809221D01*
X135569835Y-83748418D01*
X135745143Y-83659095D01*
X135780125Y-83633678D01*
X135780126Y-83633678D01*
X135090001Y-82943553D01*
X135090000Y-82943553D01*
X134399873Y-83633677D01*
X133538322Y-83633677D01*
X133878669Y-83293330D01*
X133939988Y-83259848D01*
X134009680Y-83264832D01*
X134028204Y-83278699D01*
X134046320Y-83280125D01*
X134609446Y-82717000D01*
X134816913Y-82717000D01*
X134849940Y-82774205D01*
G37*
%TD.AperFunction*%
%TD*%
%TA.AperFunction,Conductor*%
%TO.N,/SEG3*%
G36*
X147185039Y-89484482D02*
G01*
X147784735Y-90202499D01*
X147787408Y-90211045D01*
X147784735Y-90217499D01*
X147536000Y-90515310D01*
X147536000Y-90515311D01*
X147178896Y-90942873D01*
X146290000Y-90460000D01*
X146290000Y-89966959D01*
X146293427Y-89958686D01*
X146296115Y-89956678D01*
X147170476Y-89481700D01*
X147179380Y-89480763D01*
X147185039Y-89484482D01*
G37*
%TD.AperFunction*%
%TD*%
%TA.AperFunction,Conductor*%
%TO.N,/SEG3*%
G36*
X133305982Y-89804818D02*
G01*
X133583041Y-90213967D01*
X134001688Y-90832209D01*
X134003489Y-90840981D01*
X134000273Y-90847042D01*
X133657864Y-91189451D01*
X133649591Y-91192878D01*
X133647551Y-91192699D01*
X132346507Y-90962265D01*
X132338958Y-90957448D01*
X132337026Y-90948704D01*
X132337301Y-90947515D01*
X132547951Y-90213965D01*
X132553527Y-90206961D01*
X133290653Y-89801129D01*
X133299552Y-89800142D01*
X133305982Y-89804818D01*
G37*
%TD.AperFunction*%
%TD*%
%TA.AperFunction,Conductor*%
%TO.N,/SEG7*%
G36*
X135718505Y-89804114D02*
G01*
X135719366Y-89805643D01*
X136313770Y-91076262D01*
X136314171Y-91085208D01*
X136311445Y-91089493D01*
X135969493Y-91431445D01*
X135961220Y-91434872D01*
X135956263Y-91433770D01*
X134685642Y-90839365D01*
X134679602Y-90832756D01*
X134680003Y-90823810D01*
X134680858Y-90822291D01*
X135087995Y-90211240D01*
X135091240Y-90207995D01*
X135702283Y-89800863D01*
X135711066Y-89799129D01*
X135718505Y-89804114D01*
G37*
%TD.AperFunction*%
%TD*%
%TA.AperFunction,Conductor*%
%TO.N,/SEG7*%
G36*
X149463733Y-88986228D02*
G01*
X150734357Y-89580634D01*
X150740397Y-89587243D01*
X150739996Y-89596189D01*
X150739135Y-89597718D01*
X150332006Y-90208756D01*
X150328756Y-90212006D01*
X150254489Y-90261488D01*
X150254489Y-90261489D01*
X149706398Y-90626678D01*
X149102754Y-89336307D01*
X149450507Y-88988553D01*
X149458779Y-88985127D01*
X149463733Y-88986228D01*
G37*
%TD.AperFunction*%
%TD*%
%TA.AperFunction,Conductor*%
%TO.N,/SEG6*%
G36*
X134475726Y-82179537D02*
G01*
X135084186Y-82584948D01*
X135089171Y-82592387D01*
X135089172Y-82596976D01*
X135065205Y-82716999D01*
X135065206Y-82717000D01*
X134943682Y-83325589D01*
X133894792Y-83291629D01*
X133760452Y-83157289D01*
X133757025Y-83149016D01*
X133759274Y-83142120D01*
X134459789Y-82182375D01*
X134467434Y-82177714D01*
X134475726Y-82179537D01*
G37*
%TD.AperFunction*%
%TD*%
%TA.AperFunction,Conductor*%
%TO.N,/SEG6*%
G36*
X137534996Y-103993558D02*
G01*
X137159014Y-104501450D01*
X136867293Y-104307707D01*
X136673550Y-104015986D01*
X137181442Y-103640004D01*
X137534996Y-103993558D01*
G37*
%TD.AperFunction*%
%TD*%
%TA.AperFunction,Conductor*%
%TO.N,/SEG6*%
G36*
X137211275Y-104375282D02*
G01*
X137075000Y-105000275D01*
X136575000Y-105000275D01*
X136524725Y-104375282D01*
X136868000Y-104306000D01*
X137211275Y-104375282D01*
G37*
%TD.AperFunction*%
%TD*%
%TA.AperFunction,Conductor*%
%TO.N,/SEG4*%
G36*
X137751189Y-109922152D02*
G01*
X137754488Y-109928698D01*
X137757000Y-109945526D01*
X137846275Y-110543718D01*
X137757000Y-110561736D01*
X137756999Y-110561735D01*
X137505314Y-110612532D01*
X137500684Y-110612532D01*
X137170623Y-110545917D01*
X137163192Y-110540921D01*
X137161366Y-110532721D01*
X137251512Y-109928698D01*
X137256123Y-109921021D01*
X137263084Y-109918725D01*
X137742916Y-109918725D01*
X137751189Y-109922152D01*
G37*
%TD.AperFunction*%
%TD*%
%TA.AperFunction,Conductor*%
%TO.N,/SEG4*%
G36*
X141981369Y-114510000D02*
G01*
X141890403Y-114790403D01*
X141890402Y-114790403D01*
X141878243Y-114827886D01*
X141872431Y-114834698D01*
X141867489Y-114835970D01*
X141354970Y-114852403D01*
X141346591Y-114849243D01*
X141346436Y-114849095D01*
X140951915Y-114465238D01*
X140948375Y-114457012D01*
X140951688Y-114448693D01*
X141296967Y-114103414D01*
X141981369Y-114510000D01*
G37*
%TD.AperFunction*%
%TD*%
%TA.AperFunction,Conductor*%
%TO.N,/SEG4*%
G36*
X138144496Y-110950942D02*
G01*
X138097719Y-110997719D01*
X137798492Y-111296945D01*
X137790219Y-111300372D01*
X137782734Y-111297665D01*
X137316621Y-110909731D01*
X137312455Y-110901805D01*
X137314359Y-110894266D01*
X137500989Y-110613255D01*
X137504255Y-110609989D01*
X137794014Y-110417550D01*
X138144496Y-110950942D01*
G37*
%TD.AperFunction*%
%TD*%
%TA.AperFunction,Conductor*%
%TO.N,Net-(D1-A)*%
G36*
X131312312Y-100637788D02*
G01*
X131906217Y-100898888D01*
X131912411Y-100905355D01*
X131912219Y-100914308D01*
X131911254Y-100916072D01*
X131726513Y-101194240D01*
X131723240Y-101197513D01*
X131445072Y-101382254D01*
X131436284Y-101383977D01*
X131428853Y-101378981D01*
X131427888Y-101377217D01*
X131347445Y-101194240D01*
X131166788Y-100783313D01*
X131166597Y-100774363D01*
X131169225Y-100770336D01*
X131299335Y-100640226D01*
X131307607Y-100636800D01*
X131312312Y-100637788D01*
G37*
%TD.AperFunction*%
%TD*%
%TA.AperFunction,Conductor*%
%TO.N,/SEG6*%
G36*
X135824342Y-82447422D02*
G01*
X135828900Y-82453353D01*
X135919178Y-82717000D01*
X136211180Y-83569759D01*
X136069759Y-83711180D01*
X134943682Y-83325589D01*
X135087773Y-82596978D01*
X135092739Y-82589529D01*
X135096976Y-82587773D01*
X135815561Y-82445665D01*
X135824342Y-82447422D01*
G37*
%TD.AperFunction*%
%TD*%
%TA.AperFunction,Conductor*%
%TO.N,/SEG6*%
G36*
X149428232Y-81401230D02*
G01*
X150733754Y-81960858D01*
X150740008Y-81967268D01*
X150739898Y-81976222D01*
X150738881Y-81978099D01*
X150332006Y-82588756D01*
X150328756Y-82592006D01*
X149718099Y-82998881D01*
X149709314Y-83000616D01*
X149701875Y-82995631D01*
X149700858Y-82993754D01*
X149141230Y-81688232D01*
X149141120Y-81679278D01*
X149143709Y-81675351D01*
X149415350Y-81403710D01*
X149423622Y-81400284D01*
X149428232Y-81401230D01*
G37*
%TD.AperFunction*%
%TD*%
%TA.AperFunction,Conductor*%
%TO.N,/SEG5*%
G36*
X138786536Y-81645596D02*
G01*
X138569099Y-82209000D01*
X138369128Y-82727145D01*
X138362953Y-82733629D01*
X138355943Y-82734410D01*
X137636980Y-82592227D01*
X137629529Y-82587260D01*
X137627773Y-82583021D01*
X137553806Y-82209000D01*
X137483682Y-81854411D01*
X138574404Y-81433464D01*
X138786536Y-81645596D01*
G37*
%TD.AperFunction*%
%TD*%
%TA.AperFunction,Conductor*%
%TO.N,/SEG4*%
G36*
X152489000Y-89213239D02*
G01*
X153274357Y-89580634D01*
X153280397Y-89587243D01*
X153279996Y-89596189D01*
X153279135Y-89597718D01*
X152872006Y-90208756D01*
X152868756Y-90212006D01*
X152489000Y-90465034D01*
X152246398Y-90626678D01*
X151642754Y-89336307D01*
X151996307Y-88982754D01*
X152489000Y-89213239D01*
G37*
%TD.AperFunction*%
%TD*%
%TA.AperFunction,Conductor*%
%TO.N,Net-(R10-Pad1)*%
G36*
X140258143Y-105375000D02*
G01*
X140258143Y-105875000D01*
X139622329Y-105572441D01*
X139788000Y-105323000D01*
X139955671Y-105073559D01*
X140258143Y-105375000D01*
G37*
%TD.AperFunction*%
%TD*%
%TA.AperFunction,Conductor*%
%TO.N,/SEG2*%
G36*
X156746572Y-109235134D02*
G01*
X157085865Y-109574427D01*
X157089292Y-109582700D01*
X157086996Y-109589661D01*
X156723629Y-110080513D01*
X156715952Y-110085124D01*
X156707752Y-110083298D01*
X156427259Y-109897013D01*
X156423987Y-109893741D01*
X156237701Y-109613247D01*
X156235978Y-109604459D01*
X156240484Y-109597371D01*
X156731338Y-109234002D01*
X156740026Y-109231835D01*
X156746572Y-109235134D01*
G37*
%TD.AperFunction*%
%TD*%
%TA.AperFunction,Conductor*%
%TO.N,/SEG3*%
G36*
X151713464Y-114050000D02*
G01*
X151713464Y-114550000D01*
X151023718Y-114429275D01*
X151091000Y-114086000D01*
X151286450Y-113794986D01*
X151713464Y-114050000D01*
G37*
%TD.AperFunction*%
%TD*%
%TA.AperFunction,Conductor*%
%TO.N,/SEG3*%
G36*
X147797499Y-90215264D02*
G01*
X148517172Y-90816343D01*
X148521325Y-90824277D01*
X148520990Y-90828288D01*
X148292288Y-91701265D01*
X148286876Y-91708400D01*
X148280970Y-91710000D01*
X147290000Y-91710000D01*
X147057127Y-90821104D01*
X147782500Y-90215263D01*
X147791045Y-90212591D01*
X147797499Y-90215264D01*
G37*
%TD.AperFunction*%
%TD*%
%TA.AperFunction,Conductor*%
%TO.N,/SEG3*%
G36*
X151286450Y-113794986D02*
G01*
X151092707Y-114086707D01*
X150800986Y-114280450D01*
X150425004Y-113772558D01*
X150778558Y-113419004D01*
X151286450Y-113794986D01*
G37*
%TD.AperFunction*%
%TD*%
%TA.AperFunction,Conductor*%
%TO.N,/SEG4*%
G36*
X142725000Y-114585000D02*
G01*
X142725000Y-115085000D01*
X142400000Y-115160000D01*
X142033631Y-114933631D01*
X142033629Y-114933630D01*
X142033626Y-114933627D01*
X141890108Y-114844952D01*
X141884871Y-114837688D01*
X141886305Y-114828849D01*
X141890104Y-114825049D01*
X142400000Y-114510000D01*
X142725000Y-114585000D01*
G37*
%TD.AperFunction*%
%TD*%
%TA.AperFunction,Conductor*%
%TO.N,/SEG7*%
G36*
X156665916Y-107965967D02*
G01*
X156669343Y-107974240D01*
X156668249Y-107979180D01*
X156566300Y-108198054D01*
X156336014Y-108692450D01*
X156045000Y-108499000D01*
X155850550Y-108206986D01*
X156176000Y-107962540D01*
X156426000Y-107962540D01*
X156657643Y-107962540D01*
X156665916Y-107965967D01*
G37*
%TD.AperFunction*%
%TD*%
%TA.AperFunction,Conductor*%
%TO.N,/SEG7*%
G36*
X156239450Y-108206986D02*
G01*
X156045707Y-108498707D01*
X155753986Y-108692450D01*
X155430837Y-108134391D01*
X155784391Y-107780837D01*
X156239450Y-108206986D01*
G37*
%TD.AperFunction*%
%TD*%
%TA.AperFunction,Conductor*%
%TO.N,/SEG7*%
G36*
X151052252Y-90353647D02*
G01*
X151059690Y-90358631D01*
X151061425Y-90367416D01*
X151060952Y-90369106D01*
X150874990Y-90881991D01*
X150580000Y-91695589D01*
X150080000Y-91695589D01*
X149594411Y-90356318D01*
X150327703Y-90209460D01*
X150332297Y-90209460D01*
X151052252Y-90353647D01*
G37*
%TD.AperFunction*%
%TD*%
%TA.AperFunction,Conductor*%
%TO.N,Net-(R9-Pad1)*%
G36*
X154874464Y-104920911D02*
G01*
X154520911Y-105274464D01*
X154100329Y-104937441D01*
X154266293Y-104687293D01*
X154516441Y-104521329D01*
X154874464Y-104920911D01*
G37*
%TD.AperFunction*%
%TD*%
%TA.AperFunction,Conductor*%
%TO.N,/SEG3*%
G36*
X148211564Y-110516389D02*
G01*
X148211960Y-110517027D01*
X148667090Y-111307536D01*
X148313536Y-111661090D01*
X147512215Y-111199735D01*
X147788823Y-110784000D01*
X147788824Y-110784000D01*
X147789726Y-110783516D01*
X147791250Y-110781990D01*
X148195344Y-110513128D01*
X148204128Y-110511399D01*
X148211564Y-110516389D01*
G37*
%TD.AperFunction*%
%TD*%
%TA.AperFunction,Conductor*%
%TO.N,/SEG4*%
G36*
X131586354Y-91260636D02*
G01*
X131813206Y-91391245D01*
X131888328Y-91434496D01*
X131893788Y-91441594D01*
X131892630Y-91450474D01*
X131892250Y-91451088D01*
X131790023Y-91605715D01*
X131786715Y-91609023D01*
X131632088Y-91711250D01*
X131623297Y-91712954D01*
X131615876Y-91707942D01*
X131615496Y-91707328D01*
X131441636Y-91405354D01*
X131440479Y-91396476D01*
X131443502Y-91391247D01*
X131572246Y-91262503D01*
X131580518Y-91259077D01*
X131586354Y-91260636D01*
G37*
%TD.AperFunction*%
%TD*%
%TA.AperFunction,Conductor*%
%TO.N,/SEG4*%
G36*
X141621331Y-89450081D02*
G01*
X141720125Y-89548875D01*
X141826191Y-89654941D01*
X141606294Y-89940114D01*
X141440000Y-89830174D01*
X141440000Y-89830173D01*
X141439493Y-89829231D01*
X141437974Y-89827712D01*
X141334884Y-89671779D01*
X141333180Y-89662988D01*
X141337497Y-89656065D01*
X141605915Y-89449088D01*
X141614558Y-89446751D01*
X141621331Y-89450081D01*
G37*
%TD.AperFunction*%
%TD*%
%TA.AperFunction,Conductor*%
%TO.N,/SEG4*%
G36*
X142130886Y-88807568D02*
G01*
X142329707Y-88939293D01*
X142467893Y-89147867D01*
X142084910Y-89396222D01*
X141879473Y-89190785D01*
X141876046Y-89182512D01*
X141877929Y-89176146D01*
X141881693Y-89170342D01*
X142114705Y-88811019D01*
X142122081Y-88805943D01*
X142130886Y-88807568D01*
G37*
%TD.AperFunction*%
%TD*%
%TA.AperFunction,Conductor*%
%TO.N,/SEG4*%
G36*
X141282778Y-90739883D02*
G01*
X141410550Y-90824356D01*
X141439997Y-90843824D01*
X141440707Y-90844293D01*
X141551114Y-91011294D01*
X141265941Y-91231191D01*
X141061081Y-91026331D01*
X141057654Y-91018058D01*
X141060088Y-91010915D01*
X141267065Y-90742498D01*
X141274827Y-90738041D01*
X141282778Y-90739883D01*
G37*
%TD.AperFunction*%
%TD*%
%TA.AperFunction,Conductor*%
%TO.N,/SEG4*%
G36*
X138445456Y-95059107D02*
G01*
X138693930Y-95261895D01*
X138776687Y-95329436D01*
X138780929Y-95337322D01*
X138779043Y-95344962D01*
X138648018Y-95542726D01*
X138644726Y-95546018D01*
X138446962Y-95677043D01*
X138438173Y-95678755D01*
X138431436Y-95674687D01*
X138323738Y-95542726D01*
X138161107Y-95343456D01*
X138158532Y-95334882D01*
X138161898Y-95327788D01*
X138429788Y-95059898D01*
X138438060Y-95056472D01*
X138445456Y-95059107D01*
G37*
%TD.AperFunction*%
%TD*%
%TA.AperFunction,Conductor*%
%TO.N,/SEG6*%
G36*
X131202401Y-92079060D02*
G01*
X131411878Y-92281358D01*
X131415448Y-92289570D01*
X131413493Y-92296253D01*
X131282706Y-92492929D01*
X131275271Y-92497920D01*
X131275201Y-92497934D01*
X131047707Y-92542258D01*
X131038931Y-92540477D01*
X131033985Y-92533012D01*
X131033803Y-92531665D01*
X131015831Y-92296253D01*
X130999961Y-92088366D01*
X131002748Y-92079857D01*
X131010736Y-92075810D01*
X131011627Y-92075776D01*
X131194273Y-92075776D01*
X131202401Y-92079060D01*
G37*
%TD.AperFunction*%
%TD*%
%TA.AperFunction,Conductor*%
%TO.N,/SEG6*%
G36*
X141623962Y-81991530D02*
G01*
X141631383Y-81996542D01*
X141633087Y-82005333D01*
X141632921Y-82006036D01*
X141542331Y-82342499D01*
X141536871Y-82349597D01*
X141531033Y-82351157D01*
X141348967Y-82351157D01*
X141340694Y-82347730D01*
X141337669Y-82342499D01*
X141326939Y-82302648D01*
X141247078Y-82006034D01*
X141248236Y-81997156D01*
X141255334Y-81991696D01*
X141256027Y-81991532D01*
X141437662Y-81954477D01*
X141442338Y-81954477D01*
X141623962Y-81991530D01*
G37*
%TD.AperFunction*%
%TD*%
%TA.AperFunction,Conductor*%
%TO.N,/SEG3*%
G36*
X148211564Y-110516389D02*
G01*
X148211960Y-110517027D01*
X148667090Y-111307536D01*
X148313536Y-111661090D01*
X147512215Y-111199735D01*
X147788823Y-110784000D01*
X147788824Y-110784000D01*
X147789726Y-110783516D01*
X147791250Y-110781990D01*
X148195344Y-110513128D01*
X148204128Y-110511399D01*
X148211564Y-110516389D01*
G37*
%TD.AperFunction*%
%TD*%
%TA.AperFunction,Conductor*%
%TO.N,/SEG4*%
G36*
X131586354Y-91260636D02*
G01*
X131813206Y-91391245D01*
X131888328Y-91434496D01*
X131893788Y-91441594D01*
X131892630Y-91450474D01*
X131892250Y-91451088D01*
X131790023Y-91605715D01*
X131786715Y-91609023D01*
X131632088Y-91711250D01*
X131623297Y-91712954D01*
X131615876Y-91707942D01*
X131615496Y-91707328D01*
X131441636Y-91405354D01*
X131440479Y-91396476D01*
X131443502Y-91391247D01*
X131572246Y-91262503D01*
X131580518Y-91259077D01*
X131586354Y-91260636D01*
G37*
%TD.AperFunction*%
%TD*%
%TA.AperFunction,Conductor*%
%TO.N,/SEG4*%
G36*
X141621331Y-89450081D02*
G01*
X141720125Y-89548875D01*
X141826191Y-89654941D01*
X141606294Y-89940114D01*
X141440000Y-89830174D01*
X141440000Y-89830173D01*
X141439493Y-89829231D01*
X141437974Y-89827712D01*
X141334884Y-89671779D01*
X141333180Y-89662988D01*
X141337497Y-89656065D01*
X141605915Y-89449088D01*
X141614558Y-89446751D01*
X141621331Y-89450081D01*
G37*
%TD.AperFunction*%
%TD*%
%TA.AperFunction,Conductor*%
%TO.N,/SEG4*%
G36*
X142130886Y-88807568D02*
G01*
X142329707Y-88939293D01*
X142467893Y-89147867D01*
X142084910Y-89396222D01*
X141879473Y-89190785D01*
X141876046Y-89182512D01*
X141877929Y-89176146D01*
X141881693Y-89170342D01*
X142114705Y-88811019D01*
X142122081Y-88805943D01*
X142130886Y-88807568D01*
G37*
%TD.AperFunction*%
%TD*%
%TA.AperFunction,Conductor*%
%TO.N,/SEG4*%
G36*
X141282778Y-90739883D02*
G01*
X141410550Y-90824356D01*
X141439997Y-90843824D01*
X141440707Y-90844293D01*
X141551114Y-91011294D01*
X141265941Y-91231191D01*
X141061081Y-91026331D01*
X141057654Y-91018058D01*
X141060088Y-91010915D01*
X141267065Y-90742498D01*
X141274827Y-90738041D01*
X141282778Y-90739883D01*
G37*
%TD.AperFunction*%
%TD*%
%TA.AperFunction,Conductor*%
%TO.N,/SEG4*%
G36*
X138445456Y-95059107D02*
G01*
X138693930Y-95261895D01*
X138776687Y-95329436D01*
X138780929Y-95337322D01*
X138779043Y-95344962D01*
X138648018Y-95542726D01*
X138644726Y-95546018D01*
X138446962Y-95677043D01*
X138438173Y-95678755D01*
X138431436Y-95674687D01*
X138323738Y-95542726D01*
X138161107Y-95343456D01*
X138158532Y-95334882D01*
X138161898Y-95327788D01*
X138429788Y-95059898D01*
X138438060Y-95056472D01*
X138445456Y-95059107D01*
G37*
%TD.AperFunction*%
%TD*%
%TA.AperFunction,Conductor*%
%TO.N,/SEG6*%
G36*
X131202401Y-92079060D02*
G01*
X131411878Y-92281358D01*
X131415448Y-92289570D01*
X131413493Y-92296253D01*
X131282706Y-92492929D01*
X131275271Y-92497920D01*
X131275201Y-92497934D01*
X131047707Y-92542258D01*
X131038931Y-92540477D01*
X131033985Y-92533012D01*
X131033803Y-92531665D01*
X131015831Y-92296253D01*
X130999961Y-92088366D01*
X131002748Y-92079857D01*
X131010736Y-92075810D01*
X131011627Y-92075776D01*
X131194273Y-92075776D01*
X131202401Y-92079060D01*
G37*
%TD.AperFunction*%
%TD*%
%TA.AperFunction,Conductor*%
%TO.N,/SEG6*%
G36*
X141623962Y-81991530D02*
G01*
X141631383Y-81996542D01*
X141633087Y-82005333D01*
X141632921Y-82006036D01*
X141542331Y-82342499D01*
X141536871Y-82349597D01*
X141531033Y-82351157D01*
X141348967Y-82351157D01*
X141340694Y-82347730D01*
X141337669Y-82342499D01*
X141326939Y-82302648D01*
X141247078Y-82006034D01*
X141248236Y-81997156D01*
X141255334Y-81991696D01*
X141256027Y-81991532D01*
X141437662Y-81954477D01*
X141442338Y-81954477D01*
X141623962Y-81991530D01*
G37*
%TD.AperFunction*%
%TD*%
%TA.AperFunction,Conductor*%
%TO.N,/SEG3*%
G36*
X148211564Y-110516389D02*
G01*
X148211960Y-110517027D01*
X148667090Y-111307536D01*
X148313536Y-111661090D01*
X147512215Y-111199735D01*
X147788823Y-110784000D01*
X147788824Y-110784000D01*
X147789726Y-110783516D01*
X147791250Y-110781990D01*
X148195344Y-110513128D01*
X148204128Y-110511399D01*
X148211564Y-110516389D01*
G37*
%TD.AperFunction*%
%TD*%
%TA.AperFunction,Conductor*%
%TO.N,/SEG4*%
G36*
X131586354Y-91260636D02*
G01*
X131813206Y-91391245D01*
X131888328Y-91434496D01*
X131893788Y-91441594D01*
X131892630Y-91450474D01*
X131892250Y-91451088D01*
X131790023Y-91605715D01*
X131786715Y-91609023D01*
X131632088Y-91711250D01*
X131623297Y-91712954D01*
X131615876Y-91707942D01*
X131615496Y-91707328D01*
X131441636Y-91405354D01*
X131440479Y-91396476D01*
X131443502Y-91391247D01*
X131572246Y-91262503D01*
X131580518Y-91259077D01*
X131586354Y-91260636D01*
G37*
%TD.AperFunction*%
%TD*%
%TA.AperFunction,Conductor*%
%TO.N,/SEG4*%
G36*
X141621331Y-89450081D02*
G01*
X141720125Y-89548875D01*
X141826191Y-89654941D01*
X141606294Y-89940114D01*
X141440000Y-89830174D01*
X141440000Y-89830173D01*
X141439493Y-89829231D01*
X141437974Y-89827712D01*
X141334884Y-89671779D01*
X141333180Y-89662988D01*
X141337497Y-89656065D01*
X141605915Y-89449088D01*
X141614558Y-89446751D01*
X141621331Y-89450081D01*
G37*
%TD.AperFunction*%
%TD*%
%TA.AperFunction,Conductor*%
%TO.N,/SEG4*%
G36*
X142130886Y-88807568D02*
G01*
X142329707Y-88939293D01*
X142467893Y-89147867D01*
X142084910Y-89396222D01*
X141879473Y-89190785D01*
X141876046Y-89182512D01*
X141877929Y-89176146D01*
X141881693Y-89170342D01*
X142114705Y-88811019D01*
X142122081Y-88805943D01*
X142130886Y-88807568D01*
G37*
%TD.AperFunction*%
%TD*%
%TA.AperFunction,Conductor*%
%TO.N,/SEG4*%
G36*
X141282778Y-90739883D02*
G01*
X141410550Y-90824356D01*
X141439997Y-90843824D01*
X141440707Y-90844293D01*
X141551114Y-91011294D01*
X141265941Y-91231191D01*
X141061081Y-91026331D01*
X141057654Y-91018058D01*
X141060088Y-91010915D01*
X141267065Y-90742498D01*
X141274827Y-90738041D01*
X141282778Y-90739883D01*
G37*
%TD.AperFunction*%
%TD*%
%TA.AperFunction,Conductor*%
%TO.N,/SEG4*%
G36*
X138445456Y-95059107D02*
G01*
X138693930Y-95261895D01*
X138776687Y-95329436D01*
X138780929Y-95337322D01*
X138779043Y-95344962D01*
X138648018Y-95542726D01*
X138644726Y-95546018D01*
X138446962Y-95677043D01*
X138438173Y-95678755D01*
X138431436Y-95674687D01*
X138323738Y-95542726D01*
X138161107Y-95343456D01*
X138158532Y-95334882D01*
X138161898Y-95327788D01*
X138429788Y-95059898D01*
X138438060Y-95056472D01*
X138445456Y-95059107D01*
G37*
%TD.AperFunction*%
%TD*%
%TA.AperFunction,Conductor*%
%TO.N,/SEG6*%
G36*
X131202401Y-92079060D02*
G01*
X131411878Y-92281358D01*
X131415448Y-92289570D01*
X131413493Y-92296253D01*
X131282706Y-92492929D01*
X131275271Y-92497920D01*
X131275201Y-92497934D01*
X131047707Y-92542258D01*
X131038931Y-92540477D01*
X131033985Y-92533012D01*
X131033803Y-92531665D01*
X131015831Y-92296253D01*
X130999961Y-92088366D01*
X131002748Y-92079857D01*
X131010736Y-92075810D01*
X131011627Y-92075776D01*
X131194273Y-92075776D01*
X131202401Y-92079060D01*
G37*
%TD.AperFunction*%
%TD*%
%TA.AperFunction,Conductor*%
%TO.N,/SEG6*%
G36*
X141623962Y-81991530D02*
G01*
X141631383Y-81996542D01*
X141633087Y-82005333D01*
X141632921Y-82006036D01*
X141542331Y-82342499D01*
X141536871Y-82349597D01*
X141531033Y-82351157D01*
X141348967Y-82351157D01*
X141340694Y-82347730D01*
X141337669Y-82342499D01*
X141326939Y-82302648D01*
X141247078Y-82006034D01*
X141248236Y-81997156D01*
X141255334Y-81991696D01*
X141256027Y-81991532D01*
X141437662Y-81954477D01*
X141442338Y-81954477D01*
X141623962Y-81991530D01*
G37*
%TD.AperFunction*%
%TD*%
M02*
