%TF.GenerationSoftware,KiCad,Pcbnew,9.0.7-1.fc43*%
%TF.CreationDate,2026-02-06T20:22:46-08:00*%
%TF.ProjectId,inverter_board,696e7665-7274-4657-925f-626f6172642e,A0*%
%TF.SameCoordinates,PX81390e0PY9540020*%
%TF.FileFunction,Soldermask,Top*%
%TF.FilePolarity,Negative*%
%FSLAX46Y46*%
G04 Gerber Fmt 4.6, Leading zero omitted, Abs format (unit mm)*
G04 Created by KiCad (PCBNEW 9.0.7-1.fc43) date 2026-02-06 20:22:46*
%MOMM*%
%LPD*%
G01*
G04 APERTURE LIST*
G04 Aperture macros list*
%AMRoundRect*
0 Rectangle with rounded corners*
0 $1 Rounding radius*
0 $2 $3 $4 $5 $6 $7 $8 $9 X,Y pos of 4 corners*
0 Add a 4 corners polygon primitive as box body*
4,1,4,$2,$3,$4,$5,$6,$7,$8,$9,$2,$3,0*
0 Add four circle primitives for the rounded corners*
1,1,$1+$1,$2,$3*
1,1,$1+$1,$4,$5*
1,1,$1+$1,$6,$7*
1,1,$1+$1,$8,$9*
0 Add four rect primitives between the rounded corners*
20,1,$1+$1,$2,$3,$4,$5,0*
20,1,$1+$1,$4,$5,$6,$7,0*
20,1,$1+$1,$6,$7,$8,$9,0*
20,1,$1+$1,$8,$9,$2,$3,0*%
G04 Aperture macros list end*
%ADD10RoundRect,0.225000X0.225000X0.250000X-0.225000X0.250000X-0.225000X-0.250000X0.225000X-0.250000X0*%
%ADD11RoundRect,0.250000X-0.900000X1.000000X-0.900000X-1.000000X0.900000X-1.000000X0.900000X1.000000X0*%
%ADD12RoundRect,0.250000X0.650000X-0.325000X0.650000X0.325000X-0.650000X0.325000X-0.650000X-0.325000X0*%
%ADD13RoundRect,0.250000X-0.262500X-0.450000X0.262500X-0.450000X0.262500X0.450000X-0.262500X0.450000X0*%
%ADD14RoundRect,0.200000X-0.200000X-0.275000X0.200000X-0.275000X0.200000X0.275000X-0.200000X0.275000X0*%
%ADD15RoundRect,0.225000X-0.250000X0.225000X-0.250000X-0.225000X0.250000X-0.225000X0.250000X0.225000X0*%
%ADD16RoundRect,0.225000X0.250000X-0.225000X0.250000X0.225000X-0.250000X0.225000X-0.250000X-0.225000X0*%
%ADD17RoundRect,0.250000X-0.475000X0.250000X-0.475000X-0.250000X0.475000X-0.250000X0.475000X0.250000X0*%
%ADD18RoundRect,0.200000X0.200000X0.275000X-0.200000X0.275000X-0.200000X-0.275000X0.200000X-0.275000X0*%
%ADD19RoundRect,0.250000X-0.250000X-0.475000X0.250000X-0.475000X0.250000X0.475000X-0.250000X0.475000X0*%
%ADD20RoundRect,0.150000X0.150000X-0.825000X0.150000X0.825000X-0.150000X0.825000X-0.150000X-0.825000X0*%
%ADD21RoundRect,0.150000X-0.150000X0.825000X-0.150000X-0.825000X0.150000X-0.825000X0.150000X0.825000X0*%
%ADD22RoundRect,0.137500X0.612500X0.137500X-0.612500X0.137500X-0.612500X-0.137500X0.612500X-0.137500X0*%
%ADD23RoundRect,0.150000X-0.587500X-0.150000X0.587500X-0.150000X0.587500X0.150000X-0.587500X0.150000X0*%
%ADD24RoundRect,0.250000X0.475000X-0.250000X0.475000X0.250000X-0.475000X0.250000X-0.475000X-0.250000X0*%
%ADD25RoundRect,0.250000X1.050000X1.050000X-1.050000X1.050000X-1.050000X-1.050000X1.050000X-1.050000X0*%
%ADD26C,2.600000*%
%ADD27C,2.300000*%
%ADD28R,1.520000X1.520000*%
%ADD29C,1.520000*%
%ADD30RoundRect,0.240000X-0.560000X-0.560000X0.560000X-0.560000X0.560000X0.560000X-0.560000X0.560000X0*%
%ADD31C,1.600000*%
G04 APERTURE END LIST*
D10*
%TO.C,C2*%
X-38826000Y29500000D03*
X-40376000Y29500000D03*
%TD*%
D11*
%TO.C,D2*%
X-34601000Y30256000D03*
X-34601000Y25956000D03*
%TD*%
D12*
%TO.C,C9*%
X-16000000Y1120000D03*
X-16000000Y4070000D03*
%TD*%
D13*
%TO.C,J4*%
X-22412500Y6095000D03*
X-20587500Y6095000D03*
%TD*%
D14*
%TO.C,R5*%
X-26101000Y15500000D03*
X-24451000Y15500000D03*
%TD*%
D15*
%TO.C,C1*%
X-36188500Y22275000D03*
X-36188500Y20725000D03*
%TD*%
D16*
%TO.C,C7*%
X-25601000Y26225000D03*
X-25601000Y27775000D03*
%TD*%
D17*
%TO.C,C3*%
X-40101000Y27450000D03*
X-40101000Y25550000D03*
%TD*%
D18*
%TO.C,R6*%
X-17175000Y13595000D03*
X-18825000Y13595000D03*
%TD*%
D19*
%TO.C,C14*%
X-29450000Y3595000D03*
X-27550000Y3595000D03*
%TD*%
D14*
%TO.C,R4*%
X-23926000Y25000000D03*
X-22276000Y25000000D03*
%TD*%
%TO.C,R8*%
X-27426000Y33775000D03*
X-25776000Y33775000D03*
%TD*%
%TO.C,R7*%
X-31426000Y33775000D03*
X-29776000Y33775000D03*
%TD*%
D10*
%TO.C,C13*%
X-15225000Y6095000D03*
X-16775000Y6095000D03*
%TD*%
D20*
%TO.C,U3*%
X-18481000Y17905000D03*
X-17211000Y17905000D03*
X-15941000Y17905000D03*
X-14671000Y17905000D03*
X-14671000Y22855000D03*
X-15941000Y22855000D03*
X-17211000Y22855000D03*
X-18481000Y22855000D03*
%TD*%
D16*
%TO.C,C5*%
X-20276000Y22225000D03*
X-20276000Y23775000D03*
%TD*%
D14*
%TO.C,R2*%
X-17601000Y25000000D03*
X-15951000Y25000000D03*
%TD*%
D21*
%TO.C,U4*%
X-6371000Y22855000D03*
X-7641000Y22855000D03*
X-8911000Y22855000D03*
X-10181000Y22855000D03*
X-10181000Y17905000D03*
X-8911000Y17905000D03*
X-7641000Y17905000D03*
X-6371000Y17905000D03*
%TD*%
D14*
%TO.C,R10*%
X-29325000Y1595000D03*
X-27675000Y1595000D03*
%TD*%
D17*
%TO.C,C8*%
X-34188500Y21950000D03*
X-34188500Y20050000D03*
%TD*%
D16*
%TO.C,C4*%
X-4776000Y17224000D03*
X-4776000Y18774000D03*
%TD*%
D14*
%TO.C,R3*%
X-19101000Y15500000D03*
X-17451000Y15500000D03*
%TD*%
%TO.C,R9*%
X-22426000Y33775000D03*
X-20776000Y33775000D03*
%TD*%
D20*
%TO.C,U5*%
X-31006000Y24025000D03*
X-29736000Y24025000D03*
X-28466000Y24025000D03*
X-27196000Y24025000D03*
X-27196000Y28975000D03*
X-28466000Y28975000D03*
X-29736000Y28975000D03*
X-31006000Y28975000D03*
%TD*%
D22*
%TO.C,U1*%
X-16850000Y8190000D03*
X-16850000Y9460000D03*
X-16850000Y10730000D03*
X-16850000Y12000000D03*
X-22150000Y12000000D03*
X-22150000Y10730000D03*
X-22150000Y9460000D03*
X-22150000Y8190000D03*
%TD*%
D20*
%TO.C,U2*%
X-25636000Y17905000D03*
X-24366000Y17905000D03*
X-23096000Y17905000D03*
X-21826000Y17905000D03*
X-21826000Y22855000D03*
X-23096000Y22855000D03*
X-24366000Y22855000D03*
X-25636000Y22855000D03*
%TD*%
D16*
%TO.C,C6*%
X-12776000Y22225000D03*
X-12776000Y23775000D03*
%TD*%
D12*
%TO.C,C12*%
X-23000000Y1120000D03*
X-23000000Y4070000D03*
%TD*%
D23*
%TO.C,U6*%
X-20437500Y3045000D03*
X-20437500Y1145000D03*
X-18562500Y2095000D03*
%TD*%
D24*
%TO.C,C10*%
X-13500000Y1645000D03*
X-13500000Y3545000D03*
%TD*%
%TO.C,C11*%
X-25500000Y1645000D03*
X-25500000Y3545000D03*
%TD*%
D14*
%TO.C,R1*%
X-9426000Y25000000D03*
X-7776000Y25000000D03*
%TD*%
D25*
%TO.C,J3*%
X-19021000Y31775000D03*
D26*
X-24101000Y31775000D03*
X-29181000Y31775000D03*
%TD*%
D27*
%TO.C,J2*%
X-6880000Y15050000D03*
X-6880000Y3050000D03*
D28*
X-11720000Y6500000D03*
D29*
X-9180000Y7520000D03*
X-11720000Y8540000D03*
X-9180000Y9560000D03*
X-11720000Y10580000D03*
X-9180000Y11600000D03*
%TD*%
D30*
%TO.C,B1*%
X-38139000Y20200000D03*
D31*
X-38139000Y22740000D03*
X-38139000Y25280000D03*
X-38139000Y27820000D03*
%TD*%
D27*
%TO.C,J1*%
X-35800000Y3000000D03*
X-35800000Y15000000D03*
D28*
X-30960000Y11550000D03*
D29*
X-33500000Y10530000D03*
X-30960000Y9510000D03*
X-33500000Y8490000D03*
X-30960000Y7470000D03*
X-33500000Y6450000D03*
%TD*%
M02*
