%TF.GenerationSoftware,KiCad,Pcbnew,9.0.7-1.fc43*%
%TF.CreationDate,2026-02-06T20:22:46-08:00*%
%TF.ProjectId,inverter_board,696e7665-7274-4657-925f-626f6172642e,A0*%
%TF.SameCoordinates,PX81390e0PY9540020*%
%TF.FileFunction,Legend,Bot*%
%TF.FilePolarity,Positive*%
%FSLAX46Y46*%
G04 Gerber Fmt 4.6, Leading zero omitted, Abs format (unit mm)*
G04 Created by KiCad (PCBNEW 9.0.7-1.fc43) date 2026-02-06 20:22:46*
%MOMM*%
%LPD*%
G01*
G04 APERTURE LIST*
%ADD10C,0.100000*%
%ADD11C,0.150000*%
%ADD12C,0.120000*%
G04 APERTURE END LIST*
D10*
X-28857143Y24760158D02*
X-28142857Y24760158D01*
X-29000000Y25188729D02*
X-28500000Y23688729D01*
X-28500000Y23688729D02*
X-28000000Y25188729D01*
X-27500001Y24617300D02*
X-26357143Y24617300D01*
X-24000001Y24403015D02*
X-23785715Y24474443D01*
X-23785715Y24474443D02*
X-23714286Y24545872D01*
X-23714286Y24545872D02*
X-23642858Y24688729D01*
X-23642858Y24688729D02*
X-23642858Y24903015D01*
X-23642858Y24903015D02*
X-23714286Y25045872D01*
X-23714286Y25045872D02*
X-23785715Y25117300D01*
X-23785715Y25117300D02*
X-23928572Y25188729D01*
X-23928572Y25188729D02*
X-24500001Y25188729D01*
X-24500001Y25188729D02*
X-24500001Y23688729D01*
X-24500001Y23688729D02*
X-24000001Y23688729D01*
X-24000001Y23688729D02*
X-23857143Y23760158D01*
X-23857143Y23760158D02*
X-23785715Y23831586D01*
X-23785715Y23831586D02*
X-23714286Y23974443D01*
X-23714286Y23974443D02*
X-23714286Y24117300D01*
X-23714286Y24117300D02*
X-23785715Y24260158D01*
X-23785715Y24260158D02*
X-23857143Y24331586D01*
X-23857143Y24331586D02*
X-24000001Y24403015D01*
X-24000001Y24403015D02*
X-24500001Y24403015D01*
X-23000001Y24617300D02*
X-21857143Y24617300D01*
X-22428572Y25188729D02*
X-22428572Y24045872D01*
X-19142858Y25045872D02*
X-19214286Y25117300D01*
X-19214286Y25117300D02*
X-19428572Y25188729D01*
X-19428572Y25188729D02*
X-19571429Y25188729D01*
X-19571429Y25188729D02*
X-19785715Y25117300D01*
X-19785715Y25117300D02*
X-19928572Y24974443D01*
X-19928572Y24974443D02*
X-20000001Y24831586D01*
X-20000001Y24831586D02*
X-20071429Y24545872D01*
X-20071429Y24545872D02*
X-20071429Y24331586D01*
X-20071429Y24331586D02*
X-20000001Y24045872D01*
X-20000001Y24045872D02*
X-19928572Y23903015D01*
X-19928572Y23903015D02*
X-19785715Y23760158D01*
X-19785715Y23760158D02*
X-19571429Y23688729D01*
X-19571429Y23688729D02*
X-19428572Y23688729D01*
X-19428572Y23688729D02*
X-19214286Y23760158D01*
X-19214286Y23760158D02*
X-19142858Y23831586D01*
D11*
X-14667667Y37451181D02*
X-14667667Y36736896D01*
X-14667667Y36736896D02*
X-14620048Y36594039D01*
X-14620048Y36594039D02*
X-14524810Y36498800D01*
X-14524810Y36498800D02*
X-14381953Y36451181D01*
X-14381953Y36451181D02*
X-14286715Y36451181D01*
X-15048620Y37451181D02*
X-15667667Y37451181D01*
X-15667667Y37451181D02*
X-15334334Y37070229D01*
X-15334334Y37070229D02*
X-15477191Y37070229D01*
X-15477191Y37070229D02*
X-15572429Y37022610D01*
X-15572429Y37022610D02*
X-15620048Y36974991D01*
X-15620048Y36974991D02*
X-15667667Y36879753D01*
X-15667667Y36879753D02*
X-15667667Y36641658D01*
X-15667667Y36641658D02*
X-15620048Y36546420D01*
X-15620048Y36546420D02*
X-15572429Y36498800D01*
X-15572429Y36498800D02*
X-15477191Y36451181D01*
X-15477191Y36451181D02*
X-15191477Y36451181D01*
X-15191477Y36451181D02*
X-15096239Y36498800D01*
X-15096239Y36498800D02*
X-15048620Y36546420D01*
X-15440181Y13818334D02*
X-14725896Y13818334D01*
X-14725896Y13818334D02*
X-14583039Y13865953D01*
X-14583039Y13865953D02*
X-14487800Y13961191D01*
X-14487800Y13961191D02*
X-14440181Y14104048D01*
X-14440181Y14104048D02*
X-14440181Y14199286D01*
X-15344943Y13389762D02*
X-15392562Y13342143D01*
X-15392562Y13342143D02*
X-15440181Y13246905D01*
X-15440181Y13246905D02*
X-15440181Y13008810D01*
X-15440181Y13008810D02*
X-15392562Y12913572D01*
X-15392562Y12913572D02*
X-15344943Y12865953D01*
X-15344943Y12865953D02*
X-15249705Y12818334D01*
X-15249705Y12818334D02*
X-15154467Y12818334D01*
X-15154467Y12818334D02*
X-15011610Y12865953D01*
X-15011610Y12865953D02*
X-14440181Y13437381D01*
X-14440181Y13437381D02*
X-14440181Y12818334D01*
X-31532010Y19001239D02*
X-31579629Y19144096D01*
X-31579629Y19144096D02*
X-31627248Y19191715D01*
X-31627248Y19191715D02*
X-31722486Y19239334D01*
X-31722486Y19239334D02*
X-31865343Y19239334D01*
X-31865343Y19239334D02*
X-31960581Y19191715D01*
X-31960581Y19191715D02*
X-32008200Y19144096D01*
X-32008200Y19144096D02*
X-32055820Y19048858D01*
X-32055820Y19048858D02*
X-32055820Y18667906D01*
X-32055820Y18667906D02*
X-31055820Y18667906D01*
X-31055820Y18667906D02*
X-31055820Y19001239D01*
X-31055820Y19001239D02*
X-31103439Y19096477D01*
X-31103439Y19096477D02*
X-31151058Y19144096D01*
X-31151058Y19144096D02*
X-31246296Y19191715D01*
X-31246296Y19191715D02*
X-31341534Y19191715D01*
X-31341534Y19191715D02*
X-31436772Y19144096D01*
X-31436772Y19144096D02*
X-31484391Y19096477D01*
X-31484391Y19096477D02*
X-31532010Y19001239D01*
X-31532010Y19001239D02*
X-31532010Y18667906D01*
X-32055820Y20191715D02*
X-32055820Y19620287D01*
X-32055820Y19906001D02*
X-31055820Y19906001D01*
X-31055820Y19906001D02*
X-31198677Y19810763D01*
X-31198677Y19810763D02*
X-31293915Y19715525D01*
X-31293915Y19715525D02*
X-31341534Y19620287D01*
X-28330181Y4898334D02*
X-27615896Y4898334D01*
X-27615896Y4898334D02*
X-27473039Y4945953D01*
X-27473039Y4945953D02*
X-27377800Y5041191D01*
X-27377800Y5041191D02*
X-27330181Y5184048D01*
X-27330181Y5184048D02*
X-27330181Y5279286D01*
X-27330181Y3898334D02*
X-27330181Y4469762D01*
X-27330181Y4184048D02*
X-28330181Y4184048D01*
X-28330181Y4184048D02*
X-28187324Y4279286D01*
X-28187324Y4279286D02*
X-28092086Y4374524D01*
X-28092086Y4374524D02*
X-28044467Y4469762D01*
D12*
%TO.C,J3*%
X-31841000Y37795000D02*
X-31841000Y26355000D01*
X-31841000Y26355000D02*
X-19321000Y26355000D01*
X-18721000Y26355000D02*
X-16361000Y26355000D01*
X-16361000Y37795000D02*
X-31841000Y37795000D01*
X-16361000Y35675000D02*
X-31841000Y35675000D01*
X-16361000Y29475000D02*
X-31841000Y29475000D01*
X-16361000Y26975000D02*
X-31841000Y26975000D01*
X-16361000Y26355000D02*
X-16361000Y37795000D01*
X-18581000Y25745000D02*
X-19461000Y25745000D01*
X-19021000Y26355000D01*
X-18581000Y25745000D01*
G36*
X-18581000Y25745000D02*
G01*
X-19461000Y25745000D01*
X-19021000Y26355000D01*
X-18581000Y25745000D01*
G37*
%TO.C,J2*%
X-13990000Y15260000D02*
X-13990000Y2840000D01*
X-13990000Y15260000D02*
X-8250000Y15260000D01*
X-13990000Y2840000D02*
X-8250000Y2840000D01*
X-12220000Y2180000D02*
X-11720000Y2680000D01*
X-12220000Y2180000D02*
X-11220000Y2180000D01*
X-11720000Y2680000D02*
X-11220000Y2180000D01*
X-5500000Y15260000D02*
X-770000Y15260000D01*
X-5500000Y2840000D02*
X-770000Y2840000D01*
X-770000Y15260000D02*
X-770000Y2840000D01*
D11*
%TO.C,B1*%
X-39663000Y19692000D02*
X-39663000Y20708000D01*
X-32539000Y18000000D02*
X-39239000Y18000000D01*
X-39239000Y30000000D01*
X-32539000Y30000000D01*
X-32539000Y18000000D01*
D12*
%TO.C,J1*%
X-41910000Y2790000D02*
X-41910000Y15210000D01*
X-37180000Y15210000D02*
X-41910000Y15210000D01*
X-37180000Y2790000D02*
X-41910000Y2790000D01*
X-30960000Y15370000D02*
X-31460000Y15870000D01*
X-30460000Y15870000D02*
X-31460000Y15870000D01*
X-30460000Y15870000D02*
X-30960000Y15370000D01*
X-28690000Y15210000D02*
X-34430000Y15210000D01*
X-28690000Y2790000D02*
X-34430000Y2790000D01*
X-28690000Y2790000D02*
X-28690000Y15210000D01*
%TD*%
M02*
