%TF.GenerationSoftware,KiCad,Pcbnew,6.0.11+dfsg-1~bpo11+1*%
%TF.CreationDate,2023-04-27T18:18:44-07:00*%
%TF.ProjectId,J-link_BOB,4a2d6c69-6e6b-45f4-924f-422e6b696361,A1*%
%TF.SameCoordinates,PX7b64228PY605e690*%
%TF.FileFunction,Legend,Top*%
%TF.FilePolarity,Positive*%
%FSLAX46Y46*%
G04 Gerber Fmt 4.6, Leading zero omitted, Abs format (unit mm)*
G04 Created by KiCad (PCBNEW 6.0.11+dfsg-1~bpo11+1) date 2023-04-27 18:18:44*
%MOMM*%
%LPD*%
G01*
G04 APERTURE LIST*
%ADD10C,0.180000*%
%ADD11C,0.635000*%
%ADD12C,0.150000*%
%ADD13C,0.120000*%
G04 APERTURE END LIST*
D10*
X8802857Y-13739761D02*
X8945714Y-13787380D01*
X9183809Y-13787380D01*
X9279047Y-13739761D01*
X9326666Y-13692142D01*
X9374285Y-13596904D01*
X9374285Y-13501666D01*
X9326666Y-13406428D01*
X9279047Y-13358809D01*
X9183809Y-13311190D01*
X8993333Y-13263571D01*
X8898095Y-13215952D01*
X8850476Y-13168333D01*
X8802857Y-13073095D01*
X8802857Y-12977857D01*
X8850476Y-12882619D01*
X8898095Y-12835000D01*
X8993333Y-12787380D01*
X9231428Y-12787380D01*
X9374285Y-12835000D01*
X9707619Y-12787380D02*
X9945714Y-13787380D01*
X10136190Y-13073095D01*
X10326666Y-13787380D01*
X10564761Y-12787380D01*
X11517142Y-13692142D02*
X11469523Y-13739761D01*
X11326666Y-13787380D01*
X11231428Y-13787380D01*
X11088571Y-13739761D01*
X10993333Y-13644523D01*
X10945714Y-13549285D01*
X10898095Y-13358809D01*
X10898095Y-13215952D01*
X10945714Y-13025476D01*
X10993333Y-12930238D01*
X11088571Y-12835000D01*
X11231428Y-12787380D01*
X11326666Y-12787380D01*
X11469523Y-12835000D01*
X11517142Y-12882619D01*
X8802857Y-11199761D02*
X8945714Y-11247380D01*
X9183809Y-11247380D01*
X9279047Y-11199761D01*
X9326666Y-11152142D01*
X9374285Y-11056904D01*
X9374285Y-10961666D01*
X9326666Y-10866428D01*
X9279047Y-10818809D01*
X9183809Y-10771190D01*
X8993333Y-10723571D01*
X8898095Y-10675952D01*
X8850476Y-10628333D01*
X8802857Y-10533095D01*
X8802857Y-10437857D01*
X8850476Y-10342619D01*
X8898095Y-10295000D01*
X8993333Y-10247380D01*
X9231428Y-10247380D01*
X9374285Y-10295000D01*
X9707619Y-10247380D02*
X9945714Y-11247380D01*
X10136190Y-10533095D01*
X10326666Y-11247380D01*
X10564761Y-10247380D01*
X10945714Y-11247380D02*
X10945714Y-10247380D01*
X11183809Y-10247380D01*
X11326666Y-10295000D01*
X11421904Y-10390238D01*
X11469523Y-10485476D01*
X11517142Y-10675952D01*
X11517142Y-10818809D01*
X11469523Y-11009285D01*
X11421904Y-11104523D01*
X11326666Y-11199761D01*
X11183809Y-11247380D01*
X10945714Y-11247380D01*
X9398095Y-7755000D02*
X9302857Y-7707380D01*
X9160000Y-7707380D01*
X9017142Y-7755000D01*
X8921904Y-7850238D01*
X8874285Y-7945476D01*
X8826666Y-8135952D01*
X8826666Y-8278809D01*
X8874285Y-8469285D01*
X8921904Y-8564523D01*
X9017142Y-8659761D01*
X9160000Y-8707380D01*
X9255238Y-8707380D01*
X9398095Y-8659761D01*
X9445714Y-8612142D01*
X9445714Y-8278809D01*
X9255238Y-8278809D01*
X9874285Y-8707380D02*
X9874285Y-7707380D01*
X10445714Y-8707380D01*
X10445714Y-7707380D01*
X10921904Y-8707380D02*
X10921904Y-7707380D01*
X11160000Y-7707380D01*
X11302857Y-7755000D01*
X11398095Y-7850238D01*
X11445714Y-7945476D01*
X11493333Y-8135952D01*
X11493333Y-8278809D01*
X11445714Y-8469285D01*
X11398095Y-8564523D01*
X11302857Y-8659761D01*
X11160000Y-8707380D01*
X10921904Y-8707380D01*
X8826666Y-5167380D02*
X9160000Y-6167380D01*
X9493333Y-5167380D01*
X10398095Y-6072142D02*
X10350476Y-6119761D01*
X10207619Y-6167380D01*
X10112380Y-6167380D01*
X9969523Y-6119761D01*
X9874285Y-6024523D01*
X9826666Y-5929285D01*
X9779047Y-5738809D01*
X9779047Y-5595952D01*
X9826666Y-5405476D01*
X9874285Y-5310238D01*
X9969523Y-5215000D01*
X10112380Y-5167380D01*
X10207619Y-5167380D01*
X10350476Y-5215000D01*
X10398095Y-5262619D01*
X11398095Y-6072142D02*
X11350476Y-6119761D01*
X11207619Y-6167380D01*
X11112380Y-6167380D01*
X10969523Y-6119761D01*
X10874285Y-6024523D01*
X10826666Y-5929285D01*
X10779047Y-5738809D01*
X10779047Y-5595952D01*
X10826666Y-5405476D01*
X10874285Y-5310238D01*
X10969523Y-5215000D01*
X11112380Y-5167380D01*
X11207619Y-5167380D01*
X11350476Y-5215000D01*
X11398095Y-5262619D01*
X8642857Y-2170000D02*
X9642857Y-2170000D01*
X9452380Y-3452380D02*
X9119047Y-2976190D01*
X8880952Y-3452380D02*
X8880952Y-2452380D01*
X9261904Y-2452380D01*
X9357142Y-2500000D01*
X9404761Y-2547619D01*
X9452380Y-2642857D01*
X9452380Y-2785714D01*
X9404761Y-2880952D01*
X9357142Y-2928571D01*
X9261904Y-2976190D01*
X8880952Y-2976190D01*
X9642857Y-2170000D02*
X10595238Y-2170000D01*
X9833333Y-3404761D02*
X9976190Y-3452380D01*
X10214285Y-3452380D01*
X10309523Y-3404761D01*
X10357142Y-3357142D01*
X10404761Y-3261904D01*
X10404761Y-3166666D01*
X10357142Y-3071428D01*
X10309523Y-3023809D01*
X10214285Y-2976190D01*
X10023809Y-2928571D01*
X9928571Y-2880952D01*
X9880952Y-2833333D01*
X9833333Y-2738095D01*
X9833333Y-2642857D01*
X9880952Y-2547619D01*
X9928571Y-2500000D01*
X10023809Y-2452380D01*
X10261904Y-2452380D01*
X10404761Y-2500000D01*
X10595238Y-2170000D02*
X11357142Y-2170000D01*
X10690476Y-2452380D02*
X11261904Y-2452380D01*
X10976190Y-3452380D02*
X10976190Y-2452380D01*
D11*
X381000Y-381000D02*
X16256000Y-381000D01*
X19304000Y-381000D02*
X20066000Y-381000D01*
D12*
X3611619Y-13182619D02*
X3611619Y-12725476D01*
X3611619Y-12954047D02*
X4611619Y-12954047D01*
X4468761Y-12877857D01*
X4373523Y-12801666D01*
X4325904Y-12725476D01*
X3611619Y-13563571D02*
X3611619Y-13715952D01*
X3659238Y-13792142D01*
X3706857Y-13830238D01*
X3849714Y-13906428D01*
X4040190Y-13944523D01*
X4421142Y-13944523D01*
X4516380Y-13906428D01*
X4564000Y-13868333D01*
X4611619Y-13792142D01*
X4611619Y-13639761D01*
X4564000Y-13563571D01*
X4516380Y-13525476D01*
X4421142Y-13487380D01*
X4183047Y-13487380D01*
X4087809Y-13525476D01*
X4040190Y-13563571D01*
X3992571Y-13639761D01*
X3992571Y-13792142D01*
X4040190Y-13868333D01*
X4087809Y-13906428D01*
X4183047Y-13944523D01*
X3611619Y-2133571D02*
X3611619Y-1676428D01*
X3611619Y-1905000D02*
X4611619Y-1905000D01*
X4468761Y-1828809D01*
X4373523Y-1752619D01*
X4325904Y-1676428D01*
%TO.C,J30*%
X16910476Y-468380D02*
X16910476Y-1182666D01*
X16862857Y-1325523D01*
X16767619Y-1420761D01*
X16624761Y-1468380D01*
X16529523Y-1468380D01*
X17291428Y-468380D02*
X17910476Y-468380D01*
X17577142Y-849333D01*
X17720000Y-849333D01*
X17815238Y-896952D01*
X17862857Y-944571D01*
X17910476Y-1039809D01*
X17910476Y-1277904D01*
X17862857Y-1373142D01*
X17815238Y-1420761D01*
X17720000Y-1468380D01*
X17434285Y-1468380D01*
X17339047Y-1420761D01*
X17291428Y-1373142D01*
X18529523Y-468380D02*
X18624761Y-468380D01*
X18720000Y-516000D01*
X18767619Y-563619D01*
X18815238Y-658857D01*
X18862857Y-849333D01*
X18862857Y-1087428D01*
X18815238Y-1277904D01*
X18767619Y-1373142D01*
X18720000Y-1420761D01*
X18624761Y-1468380D01*
X18529523Y-1468380D01*
X18434285Y-1420761D01*
X18386666Y-1373142D01*
X18339047Y-1277904D01*
X18291428Y-1087428D01*
X18291428Y-849333D01*
X18339047Y-658857D01*
X18386666Y-563619D01*
X18434285Y-516000D01*
X18529523Y-468380D01*
D13*
X14377929Y-8635000D02*
X14775000Y-8635000D01*
X14377929Y-7875000D02*
X14775000Y-7875000D01*
X14377929Y-10415000D02*
X14775000Y-10415000D01*
X17435000Y-3215000D02*
X23435000Y-3215000D01*
X12065000Y-1905000D02*
X13335000Y-1905000D01*
X14775000Y-6985000D02*
X17435000Y-6985000D01*
X17435000Y-7875000D02*
X23435000Y-7875000D01*
X23435000Y-13715000D02*
X17435000Y-13715000D01*
X14775000Y-4445000D02*
X17435000Y-4445000D01*
X14377929Y-13715000D02*
X14775000Y-13715000D01*
X17435000Y-2795000D02*
X23435000Y-2795000D01*
X17435000Y-2855000D02*
X23435000Y-2855000D01*
X17435000Y-10415000D02*
X23435000Y-10415000D01*
X14377929Y-12955000D02*
X14775000Y-12955000D01*
X14775000Y-12065000D02*
X17435000Y-12065000D01*
X14377929Y-5335000D02*
X14775000Y-5335000D01*
X23435000Y-2795000D02*
X23435000Y-3555000D01*
X23435000Y-10415000D02*
X23435000Y-11175000D01*
X14775000Y-1845000D02*
X14775000Y-14665000D01*
X17435000Y-3455000D02*
X23435000Y-3455000D01*
X14377929Y-6095000D02*
X14775000Y-6095000D01*
X23435000Y-5335000D02*
X23435000Y-6095000D01*
X17435000Y-2975000D02*
X23435000Y-2975000D01*
X17435000Y-5335000D02*
X23435000Y-5335000D01*
X23435000Y-12955000D02*
X23435000Y-13715000D01*
X23435000Y-3555000D02*
X17435000Y-3555000D01*
X12065000Y-3175000D02*
X12065000Y-1905000D01*
X14445000Y-3555000D02*
X14775000Y-3555000D01*
X23435000Y-8635000D02*
X17435000Y-8635000D01*
X23435000Y-6095000D02*
X17435000Y-6095000D01*
X14775000Y-9525000D02*
X17435000Y-9525000D01*
X17435000Y-3095000D02*
X23435000Y-3095000D01*
X23435000Y-7875000D02*
X23435000Y-8635000D01*
X17435000Y-12955000D02*
X23435000Y-12955000D01*
X23435000Y-11175000D02*
X17435000Y-11175000D01*
X14377929Y-11175000D02*
X14775000Y-11175000D01*
X17435000Y-1845000D02*
X14775000Y-1845000D01*
X14445000Y-2795000D02*
X14775000Y-2795000D01*
X17435000Y-14665000D02*
X17435000Y-1845000D01*
X14775000Y-14665000D02*
X17435000Y-14665000D01*
X17435000Y-3335000D02*
X23435000Y-3335000D01*
%TD*%
M02*
