%TF.GenerationSoftware,KiCad,Pcbnew,6.0.11+dfsg-1~bpo11+1*%
%TF.CreationDate,2023-04-27T18:18:44-07:00*%
%TF.ProjectId,J-link_BOB,4a2d6c69-6e6b-45f4-924f-422e6b696361,A1*%
%TF.SameCoordinates,PX7b64228PY605e690*%
%TF.FileFunction,Copper,L1,Top*%
%TF.FilePolarity,Positive*%
%FSLAX46Y46*%
G04 Gerber Fmt 4.6, Leading zero omitted, Abs format (unit mm)*
G04 Created by KiCad (PCBNEW 6.0.11+dfsg-1~bpo11+1) date 2023-04-27 18:18:44*
%MOMM*%
%LPD*%
G01*
G04 APERTURE LIST*
%TA.AperFunction,SMDPad,CuDef*%
%ADD10R,2.500000X0.650000*%
%TD*%
%TA.AperFunction,ComponentPad*%
%ADD11R,1.700000X1.700000*%
%TD*%
%TA.AperFunction,ComponentPad*%
%ADD12O,1.700000X1.700000*%
%TD*%
%TA.AperFunction,ViaPad*%
%ADD13C,0.800000*%
%TD*%
%TA.AperFunction,Conductor*%
%ADD14C,0.508000*%
%TD*%
%TA.AperFunction,Conductor*%
%ADD15C,0.250000*%
%TD*%
G04 APERTURE END LIST*
D10*
%TO.P,J13,1,Pin_1*%
%TO.N,unconnected-(J13-Pad1)*%
X1905000Y-9842500D03*
%TD*%
%TO.P,J19,1,Pin_1*%
%TO.N,GND*%
X1905000Y-13652500D03*
%TD*%
%TO.P,J17,1,Pin_1*%
%TO.N,GND*%
X1905000Y-12382500D03*
%TD*%
%TO.P,J15,1,Pin_1*%
%TO.N,GND*%
X1905000Y-11112500D03*
%TD*%
%TO.P,J9,1,Pin_1*%
%TO.N,GND*%
X1905000Y-7302500D03*
%TD*%
%TO.P,J3,1,Pin_1*%
%TO.N,GND*%
X1905000Y-3492500D03*
%TD*%
D11*
%TO.P,J30,1,Pin_1*%
%TO.N,/~{RESET}*%
X13335000Y-3175000D03*
D12*
%TO.P,J30,2,Pin_2*%
%TO.N,/VTARGET*%
X13335000Y-5715000D03*
%TO.P,J30,3,Pin_3*%
%TO.N,GND*%
X13335000Y-8255000D03*
%TO.P,J30,4,Pin_4*%
%TO.N,/SWDIO*%
X13335000Y-10795000D03*
%TO.P,J30,5,Pin_5*%
%TO.N,/SWCLK*%
X13335000Y-13335000D03*
%TD*%
D10*
%TO.P,J7,1,Pin_1*%
%TO.N,unconnected-(J7-Pad1)*%
X1905000Y-6032500D03*
%TD*%
%TO.P,J1,1,Pin_1*%
%TO.N,/VTARGET*%
X1905000Y-2222500D03*
%TD*%
%TO.P,J5,1,Pin_1*%
%TO.N,GND*%
X1905000Y-4762500D03*
%TD*%
%TO.P,J11,1,Pin_1*%
%TO.N,unconnected-(J11-Pad1)*%
X1905000Y-8572500D03*
%TD*%
D13*
%TO.N,GND*%
X18415000Y-4445000D03*
X11176000Y-1524000D03*
X5080000Y-15240000D03*
X11430000Y-6985000D03*
X9525000Y-8255000D03*
X8255000Y-3810000D03*
X18415000Y-12065000D03*
X8255000Y-10795000D03*
X4318000Y-5969000D03*
%TO.N,/~{RESET}*%
X5080000Y-7937500D03*
X10160000Y-5080000D03*
%TD*%
D14*
%TO.N,/VTARGET*%
X12700000Y-5715000D02*
X9207500Y-2222500D01*
D15*
X13335000Y-5715000D02*
X12700000Y-5715000D01*
D14*
X9207500Y-2222500D02*
X1905000Y-2222500D01*
%TO.N,GND*%
X1905000Y-11112500D02*
X6032500Y-11112500D01*
X6032500Y-11112500D02*
X8890000Y-8255000D01*
X9525000Y-8255000D02*
X13335000Y-8255000D01*
X8890000Y-8255000D02*
X9525000Y-8255000D01*
%TO.N,/~{RESET}*%
X7302500Y-7937500D02*
X10160000Y-5080000D01*
X5080000Y-7937500D02*
X7302500Y-7937500D01*
%TD*%
%TA.AperFunction,Conductor*%
%TO.N,/~{RESET}*%
G36*
X10297595Y-4942082D02*
G01*
X10301183Y-4950744D01*
X10291426Y-5449854D01*
X10287838Y-5458058D01*
X10283767Y-5460606D01*
X10231029Y-5480006D01*
X10231021Y-5480009D01*
X10230891Y-5480057D01*
X10177145Y-5502699D01*
X10177016Y-5502763D01*
X10177004Y-5502768D01*
X10128490Y-5526680D01*
X10128324Y-5526762D01*
X10082720Y-5553238D01*
X10038624Y-5583115D01*
X10038488Y-5583220D01*
X10038480Y-5583226D01*
X9994449Y-5617293D01*
X9994329Y-5617386D01*
X9994217Y-5617482D01*
X9994200Y-5617496D01*
X9948227Y-5656954D01*
X9948126Y-5657041D01*
X9898308Y-5703071D01*
X9843166Y-5756466D01*
X9843115Y-5756517D01*
X9789265Y-5810001D01*
X9780980Y-5813400D01*
X9772747Y-5809973D01*
X9430027Y-5467253D01*
X9426600Y-5458980D01*
X9429999Y-5450735D01*
X9483482Y-5396884D01*
X9483533Y-5396833D01*
X9536928Y-5341691D01*
X9582958Y-5291873D01*
X9583045Y-5291772D01*
X9622503Y-5245799D01*
X9622517Y-5245782D01*
X9622613Y-5245670D01*
X9656884Y-5201375D01*
X9686761Y-5157279D01*
X9713237Y-5111675D01*
X9737300Y-5062854D01*
X9759942Y-5009108D01*
X9779394Y-4956232D01*
X9785467Y-4949651D01*
X9790146Y-4948574D01*
X10289256Y-4938817D01*
X10297595Y-4942082D01*
G37*
%TD.AperFunction*%
%TD*%
%TA.AperFunction,Conductor*%
%TO.N,GND*%
G36*
X19933621Y-528502D02*
G01*
X19980114Y-582158D01*
X19991500Y-634500D01*
X19991500Y-15865500D01*
X19971498Y-15933621D01*
X19917842Y-15980114D01*
X19865500Y-15991500D01*
X634500Y-15991500D01*
X566379Y-15971498D01*
X519886Y-15917842D01*
X508500Y-15865500D01*
X508500Y-14611500D01*
X528502Y-14543379D01*
X582158Y-14496886D01*
X634500Y-14485500D01*
X1632885Y-14485500D01*
X1648124Y-14481025D01*
X1649329Y-14479635D01*
X1651000Y-14471952D01*
X1651000Y-14467384D01*
X2159000Y-14467384D01*
X2163475Y-14482623D01*
X2164865Y-14483828D01*
X2172548Y-14485499D01*
X3199669Y-14485499D01*
X3206490Y-14485129D01*
X3257352Y-14479605D01*
X3272604Y-14475979D01*
X3393054Y-14430824D01*
X3408649Y-14422286D01*
X3510724Y-14345785D01*
X3523285Y-14333224D01*
X3599786Y-14231149D01*
X3608324Y-14215554D01*
X3653478Y-14095106D01*
X3657105Y-14079851D01*
X3662631Y-14028986D01*
X3663000Y-14022172D01*
X3663000Y-13924615D01*
X3658525Y-13909376D01*
X3657135Y-13908171D01*
X3649452Y-13906500D01*
X2177115Y-13906500D01*
X2161876Y-13910975D01*
X2160671Y-13912365D01*
X2159000Y-13920048D01*
X2159000Y-14467384D01*
X1651000Y-14467384D01*
X1651000Y-13380385D01*
X2159000Y-13380385D01*
X2163475Y-13395624D01*
X2164865Y-13396829D01*
X2172548Y-13398500D01*
X3644884Y-13398500D01*
X3660123Y-13394025D01*
X3661328Y-13392635D01*
X3662999Y-13384952D01*
X3662999Y-13301695D01*
X11972251Y-13301695D01*
X11972548Y-13306848D01*
X11972548Y-13306851D01*
X11978011Y-13401590D01*
X11985110Y-13524715D01*
X11986247Y-13529761D01*
X11986248Y-13529767D01*
X12006119Y-13617939D01*
X12034222Y-13742639D01*
X12072461Y-13836811D01*
X12100759Y-13906500D01*
X12118266Y-13949616D01*
X12234987Y-14140088D01*
X12381250Y-14308938D01*
X12553126Y-14451632D01*
X12746000Y-14564338D01*
X12954692Y-14644030D01*
X12959760Y-14645061D01*
X12959763Y-14645062D01*
X13067017Y-14666883D01*
X13173597Y-14688567D01*
X13178772Y-14688757D01*
X13178774Y-14688757D01*
X13391673Y-14696564D01*
X13391677Y-14696564D01*
X13396837Y-14696753D01*
X13401957Y-14696097D01*
X13401959Y-14696097D01*
X13613288Y-14669025D01*
X13613289Y-14669025D01*
X13618416Y-14668368D01*
X13623366Y-14666883D01*
X13827429Y-14605661D01*
X13827434Y-14605659D01*
X13832384Y-14604174D01*
X14032994Y-14505896D01*
X14214860Y-14376173D01*
X14245355Y-14345785D01*
X14296209Y-14295107D01*
X14373096Y-14218489D01*
X14432594Y-14135689D01*
X14500435Y-14041277D01*
X14503453Y-14037077D01*
X14510820Y-14022172D01*
X14600136Y-13841453D01*
X14600137Y-13841451D01*
X14602430Y-13836811D01*
X14667370Y-13623069D01*
X14696529Y-13401590D01*
X14698156Y-13335000D01*
X14679852Y-13112361D01*
X14625431Y-12895702D01*
X14536354Y-12690840D01*
X14415014Y-12503277D01*
X14264670Y-12338051D01*
X14260619Y-12334852D01*
X14260615Y-12334848D01*
X14093414Y-12202800D01*
X14093410Y-12202798D01*
X14089359Y-12199598D01*
X14048053Y-12176796D01*
X13998084Y-12126364D01*
X13983312Y-12056921D01*
X14008428Y-11990516D01*
X14035780Y-11963909D01*
X14079603Y-11932650D01*
X14214860Y-11836173D01*
X14373096Y-11678489D01*
X14432594Y-11595689D01*
X14500435Y-11501277D01*
X14503453Y-11497077D01*
X14510820Y-11482172D01*
X14600136Y-11301453D01*
X14600137Y-11301451D01*
X14602430Y-11296811D01*
X14667370Y-11083069D01*
X14696529Y-10861590D01*
X14698156Y-10795000D01*
X14679852Y-10572361D01*
X14625431Y-10355702D01*
X14536354Y-10150840D01*
X14415014Y-9963277D01*
X14264670Y-9798051D01*
X14260619Y-9794852D01*
X14260615Y-9794848D01*
X14093414Y-9662800D01*
X14093410Y-9662798D01*
X14089359Y-9659598D01*
X14047569Y-9636529D01*
X13997598Y-9586097D01*
X13982826Y-9516654D01*
X14007942Y-9450248D01*
X14035294Y-9423641D01*
X14210328Y-9298792D01*
X14218200Y-9292139D01*
X14369052Y-9141812D01*
X14375730Y-9133965D01*
X14500003Y-8961020D01*
X14505313Y-8952183D01*
X14599670Y-8761267D01*
X14603469Y-8751672D01*
X14665377Y-8547910D01*
X14667555Y-8537837D01*
X14668986Y-8526962D01*
X14666775Y-8512778D01*
X14653617Y-8509000D01*
X12018225Y-8509000D01*
X12004694Y-8512973D01*
X12003257Y-8522966D01*
X12033565Y-8657446D01*
X12036645Y-8667275D01*
X12116770Y-8864603D01*
X12121413Y-8873794D01*
X12232694Y-9055388D01*
X12238777Y-9063699D01*
X12378213Y-9224667D01*
X12385580Y-9231883D01*
X12549434Y-9367916D01*
X12557881Y-9373831D01*
X12626969Y-9414203D01*
X12675693Y-9465842D01*
X12688764Y-9535625D01*
X12662033Y-9601396D01*
X12621584Y-9634752D01*
X12608607Y-9641507D01*
X12604474Y-9644610D01*
X12604471Y-9644612D01*
X12580247Y-9662800D01*
X12429965Y-9775635D01*
X12275629Y-9937138D01*
X12149743Y-10121680D01*
X12055688Y-10324305D01*
X11995989Y-10539570D01*
X11972251Y-10761695D01*
X11972548Y-10766848D01*
X11972548Y-10766851D01*
X11978011Y-10861590D01*
X11985110Y-10984715D01*
X11986247Y-10989761D01*
X11986248Y-10989767D01*
X12006119Y-11077939D01*
X12034222Y-11202639D01*
X12072461Y-11296811D01*
X12100759Y-11366500D01*
X12118266Y-11409616D01*
X12234987Y-11600088D01*
X12381250Y-11768938D01*
X12553126Y-11911632D01*
X12601494Y-11939896D01*
X12626445Y-11954476D01*
X12675169Y-12006114D01*
X12688240Y-12075897D01*
X12661509Y-12141669D01*
X12621055Y-12175027D01*
X12608607Y-12181507D01*
X12604474Y-12184610D01*
X12604471Y-12184612D01*
X12580247Y-12202800D01*
X12429965Y-12315635D01*
X12275629Y-12477138D01*
X12149743Y-12661680D01*
X12134003Y-12695590D01*
X12080965Y-12809851D01*
X12055688Y-12864305D01*
X11995989Y-13079570D01*
X11972251Y-13301695D01*
X3662999Y-13301695D01*
X3662999Y-13282831D01*
X3662629Y-13276010D01*
X3657105Y-13225148D01*
X3653479Y-13209896D01*
X3608323Y-13089442D01*
X3602063Y-13078009D01*
X3586894Y-13008652D01*
X3602063Y-12956991D01*
X3608323Y-12945558D01*
X3653478Y-12825106D01*
X3657105Y-12809851D01*
X3662631Y-12758986D01*
X3663000Y-12752172D01*
X3663000Y-12654615D01*
X3658525Y-12639376D01*
X3657135Y-12638171D01*
X3649452Y-12636500D01*
X2177115Y-12636500D01*
X2161876Y-12640975D01*
X2160671Y-12642365D01*
X2159000Y-12650048D01*
X2159000Y-13380385D01*
X1651000Y-13380385D01*
X1651000Y-12110385D01*
X2159000Y-12110385D01*
X2163475Y-12125624D01*
X2164865Y-12126829D01*
X2172548Y-12128500D01*
X3644884Y-12128500D01*
X3660123Y-12124025D01*
X3661328Y-12122635D01*
X3662999Y-12114952D01*
X3662999Y-12012831D01*
X3662629Y-12006010D01*
X3657105Y-11955148D01*
X3653479Y-11939896D01*
X3608323Y-11819442D01*
X3602063Y-11808009D01*
X3586894Y-11738652D01*
X3602063Y-11686991D01*
X3608323Y-11675558D01*
X3653478Y-11555106D01*
X3657105Y-11539851D01*
X3662631Y-11488986D01*
X3663000Y-11482172D01*
X3663000Y-11384615D01*
X3658525Y-11369376D01*
X3657135Y-11368171D01*
X3649452Y-11366500D01*
X2177115Y-11366500D01*
X2161876Y-11370975D01*
X2160671Y-11372365D01*
X2159000Y-11380048D01*
X2159000Y-12110385D01*
X1651000Y-12110385D01*
X1651000Y-10984500D01*
X1671002Y-10916379D01*
X1724658Y-10869886D01*
X1777000Y-10858500D01*
X3644884Y-10858500D01*
X3660123Y-10854025D01*
X3661328Y-10852635D01*
X3662999Y-10844952D01*
X3662999Y-10742831D01*
X3662629Y-10736010D01*
X3657105Y-10685148D01*
X3653479Y-10669896D01*
X3608323Y-10549442D01*
X3602351Y-10538535D01*
X3587182Y-10469178D01*
X3601847Y-10419232D01*
X3605615Y-10414205D01*
X3656745Y-10277816D01*
X3663500Y-10215634D01*
X3663500Y-9469366D01*
X3656745Y-9407184D01*
X3605615Y-9270795D01*
X3602273Y-9266336D01*
X3587470Y-9198652D01*
X3602067Y-9148939D01*
X3605615Y-9144205D01*
X3656745Y-9007816D01*
X3663500Y-8945634D01*
X3663500Y-8199366D01*
X3656745Y-8137184D01*
X3605615Y-8000795D01*
X3602029Y-7996010D01*
X3587182Y-7928126D01*
X3602351Y-7876465D01*
X3608323Y-7865558D01*
X3653478Y-7745106D01*
X3657105Y-7729851D01*
X3662631Y-7678986D01*
X3663000Y-7672172D01*
X3663000Y-7574615D01*
X3658525Y-7559376D01*
X3657135Y-7558171D01*
X3649452Y-7556500D01*
X1777000Y-7556500D01*
X1708879Y-7536498D01*
X1662386Y-7482842D01*
X1651000Y-7430500D01*
X1651000Y-7174500D01*
X1671002Y-7106379D01*
X1724658Y-7059886D01*
X1777000Y-7048500D01*
X3644884Y-7048500D01*
X3660123Y-7044025D01*
X3661328Y-7042635D01*
X3662999Y-7034952D01*
X3662999Y-6932831D01*
X3662629Y-6926010D01*
X3657105Y-6875148D01*
X3653479Y-6859896D01*
X3608323Y-6739442D01*
X3602351Y-6728535D01*
X3587182Y-6659178D01*
X3601847Y-6609232D01*
X3605615Y-6604205D01*
X3609332Y-6594292D01*
X3653971Y-6475215D01*
X3656745Y-6467816D01*
X3663500Y-6405634D01*
X3663500Y-5659366D01*
X3656745Y-5597184D01*
X3639024Y-5549914D01*
X3608766Y-5469199D01*
X3608764Y-5469196D01*
X3605615Y-5460795D01*
X3602029Y-5456010D01*
X3587182Y-5388126D01*
X3602351Y-5336465D01*
X3608323Y-5325558D01*
X3653478Y-5205106D01*
X3657105Y-5189851D01*
X3662631Y-5138986D01*
X3663000Y-5132172D01*
X3663000Y-5034615D01*
X3658525Y-5019376D01*
X3657135Y-5018171D01*
X3649452Y-5016500D01*
X1777000Y-5016500D01*
X1708879Y-4996498D01*
X1662386Y-4942842D01*
X1651000Y-4890500D01*
X1651000Y-4490385D01*
X2159000Y-4490385D01*
X2163475Y-4505624D01*
X2164865Y-4506829D01*
X2172548Y-4508500D01*
X3644884Y-4508500D01*
X3660123Y-4504025D01*
X3661328Y-4502635D01*
X3662999Y-4494952D01*
X3662999Y-4392831D01*
X3662629Y-4386010D01*
X3657105Y-4335148D01*
X3653479Y-4319896D01*
X3608323Y-4199442D01*
X3602063Y-4188009D01*
X3586894Y-4118652D01*
X3602063Y-4066991D01*
X3608323Y-4055558D01*
X3653478Y-3935106D01*
X3657105Y-3919851D01*
X3662631Y-3868986D01*
X3663000Y-3862172D01*
X3663000Y-3764615D01*
X3658525Y-3749376D01*
X3657135Y-3748171D01*
X3649452Y-3746500D01*
X2177115Y-3746500D01*
X2161876Y-3750975D01*
X2160671Y-3752365D01*
X2159000Y-3760048D01*
X2159000Y-4490385D01*
X1651000Y-4490385D01*
X1651000Y-3364500D01*
X1671002Y-3296379D01*
X1724658Y-3249886D01*
X1777000Y-3238500D01*
X3644884Y-3238500D01*
X3660123Y-3234025D01*
X3661328Y-3232635D01*
X3662999Y-3224952D01*
X3662999Y-3122819D01*
X3662728Y-3117820D01*
X3679013Y-3048717D01*
X3730074Y-2999388D01*
X3788543Y-2985000D01*
X8839472Y-2985000D01*
X8907593Y-3005002D01*
X8928567Y-3021905D01*
X9914249Y-4007587D01*
X9948275Y-4069899D01*
X9943210Y-4140714D01*
X9900663Y-4197550D01*
X9876402Y-4211789D01*
X9709281Y-4286195D01*
X9709274Y-4286199D01*
X9703248Y-4288882D01*
X9548747Y-4401134D01*
X9544326Y-4406044D01*
X9544325Y-4406045D01*
X9456104Y-4504025D01*
X9420960Y-4543056D01*
X9325473Y-4708444D01*
X9313792Y-4744394D01*
X9304820Y-4765337D01*
X9297470Y-4778942D01*
X9295917Y-4783164D01*
X9295911Y-4783177D01*
X9283114Y-4817964D01*
X9280986Y-4823363D01*
X9271420Y-4846069D01*
X9268338Y-4852819D01*
X9262272Y-4865126D01*
X9258219Y-4872687D01*
X9253838Y-4880232D01*
X9249188Y-4887637D01*
X9243072Y-4896664D01*
X9238416Y-4903090D01*
X9226422Y-4918593D01*
X9222378Y-4923555D01*
X9200917Y-4948560D01*
X9197848Y-4952006D01*
X9164841Y-4987729D01*
X9162866Y-4989817D01*
X9119487Y-5034615D01*
X9117423Y-5036747D01*
X9116315Y-5037877D01*
X9065658Y-5088882D01*
X9029627Y-5129201D01*
X9027985Y-5131980D01*
X9017811Y-5143852D01*
X7023567Y-7138095D01*
X6961255Y-7172121D01*
X6934472Y-7175000D01*
X5903524Y-7175000D01*
X5885166Y-7173655D01*
X5860097Y-7169963D01*
X5788242Y-7169717D01*
X5786682Y-7169702D01*
X5721321Y-7168650D01*
X5718415Y-7168570D01*
X5694881Y-7167639D01*
X5669811Y-7166648D01*
X5665211Y-7166381D01*
X5632394Y-7163879D01*
X5626027Y-7163231D01*
X5606541Y-7160745D01*
X5598718Y-7159495D01*
X5588042Y-7157443D01*
X5579510Y-7155494D01*
X5571070Y-7153254D01*
X5562871Y-7150777D01*
X5549848Y-7146353D01*
X5542890Y-7143757D01*
X5520065Y-7134464D01*
X5514741Y-7132151D01*
X5479968Y-7116082D01*
X5477019Y-7114719D01*
X5433214Y-7099735D01*
X5422752Y-7095625D01*
X5368328Y-7071395D01*
X5368327Y-7071395D01*
X5362288Y-7068706D01*
X5320660Y-7059858D01*
X5181944Y-7030372D01*
X5181939Y-7030372D01*
X5175487Y-7029000D01*
X4984513Y-7029000D01*
X4978061Y-7030372D01*
X4978056Y-7030372D01*
X4893394Y-7048368D01*
X4797712Y-7068706D01*
X4791682Y-7071391D01*
X4791681Y-7071391D01*
X4629278Y-7143697D01*
X4629276Y-7143698D01*
X4623248Y-7146382D01*
X4617907Y-7150262D01*
X4617906Y-7150263D01*
X4592597Y-7168651D01*
X4468747Y-7258634D01*
X4340960Y-7400556D01*
X4325158Y-7427926D01*
X4250926Y-7556500D01*
X4245473Y-7565944D01*
X4186458Y-7747572D01*
X4185768Y-7754133D01*
X4185768Y-7754135D01*
X4182054Y-7789470D01*
X4166496Y-7937500D01*
X4186458Y-8127428D01*
X4245473Y-8309056D01*
X4340960Y-8474444D01*
X4345378Y-8479351D01*
X4345379Y-8479352D01*
X4383000Y-8521134D01*
X4468747Y-8616366D01*
X4562664Y-8684601D01*
X4591150Y-8705297D01*
X4623248Y-8728618D01*
X4629276Y-8731302D01*
X4629278Y-8731303D01*
X4791681Y-8803609D01*
X4797712Y-8806294D01*
X4891113Y-8826147D01*
X4978056Y-8844628D01*
X4978061Y-8844628D01*
X4984513Y-8846000D01*
X5175487Y-8846000D01*
X5181939Y-8844628D01*
X5181944Y-8844628D01*
X5268887Y-8826147D01*
X5362288Y-8806294D01*
X5435065Y-8773892D01*
X5450256Y-8768269D01*
X5477026Y-8760278D01*
X5481109Y-8758391D01*
X5481112Y-8758390D01*
X5495648Y-8751672D01*
X5514768Y-8742836D01*
X5520049Y-8740542D01*
X5542890Y-8731242D01*
X5549848Y-8728646D01*
X5562866Y-8724224D01*
X5571070Y-8721745D01*
X5579510Y-8719505D01*
X5588042Y-8717556D01*
X5598718Y-8715504D01*
X5606542Y-8714254D01*
X5626029Y-8711768D01*
X5632395Y-8711120D01*
X5665209Y-8708618D01*
X5669808Y-8708351D01*
X5693618Y-8707409D01*
X5718403Y-8706429D01*
X5721308Y-8706349D01*
X5786587Y-8705297D01*
X5788158Y-8705282D01*
X5805917Y-8705222D01*
X5858420Y-8705043D01*
X5858432Y-8705043D01*
X5860091Y-8705037D01*
X5914141Y-8701999D01*
X5917248Y-8701200D01*
X5932815Y-8700000D01*
X7235124Y-8700000D01*
X7254074Y-8701433D01*
X7268473Y-8703624D01*
X7268479Y-8703624D01*
X7275708Y-8704724D01*
X7283000Y-8704131D01*
X7283003Y-8704131D01*
X7328683Y-8700415D01*
X7338898Y-8700000D01*
X7347025Y-8700000D01*
X7350661Y-8699576D01*
X7350663Y-8699576D01*
X7354115Y-8699173D01*
X7375424Y-8696689D01*
X7379744Y-8696262D01*
X7452926Y-8690309D01*
X7459888Y-8688053D01*
X7465876Y-8686857D01*
X7471833Y-8685449D01*
X7479107Y-8684601D01*
X7485989Y-8682103D01*
X7485993Y-8682102D01*
X7548107Y-8659555D01*
X7552211Y-8658145D01*
X7622075Y-8635513D01*
X7628338Y-8631713D01*
X7633880Y-8629175D01*
X7639356Y-8626433D01*
X7646241Y-8623934D01*
X7707632Y-8583685D01*
X7711300Y-8581370D01*
X7774081Y-8543273D01*
X7778286Y-8539559D01*
X7778289Y-8539557D01*
X7782505Y-8535833D01*
X7782531Y-8535862D01*
X7785462Y-8533262D01*
X7788816Y-8530458D01*
X7794935Y-8526446D01*
X7848489Y-8469913D01*
X7850866Y-8467472D01*
X10116852Y-6201486D01*
X10130782Y-6189456D01*
X10147511Y-6177022D01*
X10147515Y-6177018D01*
X10151124Y-6174336D01*
X10154317Y-6171165D01*
X10154326Y-6171157D01*
X10202074Y-6123733D01*
X10203214Y-6122614D01*
X10250153Y-6077161D01*
X10252296Y-6075134D01*
X10287994Y-6042150D01*
X10291441Y-6039081D01*
X10316445Y-6017621D01*
X10321406Y-6013577D01*
X10336909Y-6001583D01*
X10343335Y-5996927D01*
X10352362Y-5990811D01*
X10359767Y-5986161D01*
X10367312Y-5981780D01*
X10374874Y-5977727D01*
X10387150Y-5971676D01*
X10393940Y-5968575D01*
X10397608Y-5967030D01*
X10416657Y-5959005D01*
X10422021Y-5956890D01*
X10461049Y-5942533D01*
X10479913Y-5933284D01*
X10505344Y-5920815D01*
X10509565Y-5918841D01*
X10610722Y-5873803D01*
X10610724Y-5873802D01*
X10616752Y-5871118D01*
X10771253Y-5758866D01*
X10800806Y-5726044D01*
X10894621Y-5621852D01*
X10894622Y-5621851D01*
X10899040Y-5616944D01*
X10957314Y-5516010D01*
X10991223Y-5457279D01*
X10991224Y-5457278D01*
X10994527Y-5451556D01*
X11020181Y-5372603D01*
X11060254Y-5313999D01*
X11125650Y-5286362D01*
X11195607Y-5298469D01*
X11229108Y-5322446D01*
X11333642Y-5426980D01*
X11346819Y-5442479D01*
X11359459Y-5460044D01*
X11362581Y-5463286D01*
X11362582Y-5463287D01*
X11385748Y-5487342D01*
X11484404Y-5589785D01*
X11493906Y-5599652D01*
X11497444Y-5603482D01*
X11602398Y-5721933D01*
X11605873Y-5726029D01*
X11632542Y-5758866D01*
X11690186Y-5829843D01*
X11693134Y-5833618D01*
X11766074Y-5930795D01*
X11767894Y-5933284D01*
X11838619Y-6032607D01*
X11838867Y-6032957D01*
X11911735Y-6136250D01*
X11917312Y-6144001D01*
X11995057Y-6249967D01*
X12000432Y-6257161D01*
X12000693Y-6257504D01*
X12006802Y-6265372D01*
X12095182Y-6376959D01*
X12103005Y-6386594D01*
X12103352Y-6387011D01*
X12110727Y-6395677D01*
X12216407Y-6517099D01*
X12224333Y-6525995D01*
X12224706Y-6526404D01*
X12233160Y-6535452D01*
X12233430Y-6535734D01*
X12354429Y-6662150D01*
X12354434Y-6662155D01*
X12357057Y-6664895D01*
X12359992Y-6667302D01*
X12359998Y-6667307D01*
X12360369Y-6667611D01*
X12361202Y-6668422D01*
X12362782Y-6669885D01*
X12362746Y-6669924D01*
X12375709Y-6682542D01*
X12377862Y-6685028D01*
X12377869Y-6685035D01*
X12381250Y-6688938D01*
X12553126Y-6831632D01*
X12600380Y-6859245D01*
X12626955Y-6874774D01*
X12675679Y-6926412D01*
X12688750Y-6996195D01*
X12662019Y-7061967D01*
X12621562Y-7095327D01*
X12613457Y-7099546D01*
X12604738Y-7105036D01*
X12434433Y-7232905D01*
X12426726Y-7239748D01*
X12279590Y-7393717D01*
X12273104Y-7401727D01*
X12153098Y-7577649D01*
X12148000Y-7586623D01*
X12058338Y-7779783D01*
X12054775Y-7789470D01*
X11999389Y-7989183D01*
X12000912Y-7997607D01*
X12013292Y-8001000D01*
X14653344Y-8001000D01*
X14666875Y-7997027D01*
X14668180Y-7987947D01*
X14626214Y-7820875D01*
X14622894Y-7811124D01*
X14537972Y-7615814D01*
X14533105Y-7606739D01*
X14417426Y-7427926D01*
X14411136Y-7419757D01*
X14267806Y-7262240D01*
X14260273Y-7255215D01*
X14093139Y-7123222D01*
X14084556Y-7117520D01*
X14047602Y-7097120D01*
X13997631Y-7046687D01*
X13982859Y-6977245D01*
X14007975Y-6910839D01*
X14035327Y-6884232D01*
X14069445Y-6859896D01*
X14214860Y-6756173D01*
X14373096Y-6598489D01*
X14418393Y-6535452D01*
X14500435Y-6421277D01*
X14503453Y-6417077D01*
X14509109Y-6405634D01*
X14600136Y-6221453D01*
X14600137Y-6221451D01*
X14602430Y-6216811D01*
X14644859Y-6077161D01*
X14665865Y-6008023D01*
X14665865Y-6008021D01*
X14667370Y-6003069D01*
X14696529Y-5781590D01*
X14696611Y-5778240D01*
X14698074Y-5718365D01*
X14698074Y-5718361D01*
X14698156Y-5715000D01*
X14679852Y-5492361D01*
X14625431Y-5275702D01*
X14536354Y-5070840D01*
X14458378Y-4950307D01*
X14417822Y-4887617D01*
X14417820Y-4887614D01*
X14415014Y-4883277D01*
X14387317Y-4852838D01*
X14267798Y-4721488D01*
X14236746Y-4657642D01*
X14245141Y-4587143D01*
X14290317Y-4532375D01*
X14316761Y-4518706D01*
X14423297Y-4478767D01*
X14431705Y-4475615D01*
X14548261Y-4388261D01*
X14635615Y-4271705D01*
X14686745Y-4135316D01*
X14693500Y-4073134D01*
X14693500Y-2276866D01*
X14686745Y-2214684D01*
X14635615Y-2078295D01*
X14548261Y-1961739D01*
X14431705Y-1874385D01*
X14295316Y-1823255D01*
X14233134Y-1816500D01*
X12436866Y-1816500D01*
X12374684Y-1823255D01*
X12238295Y-1874385D01*
X12121739Y-1961739D01*
X12034385Y-2078295D01*
X11983255Y-2214684D01*
X11976500Y-2276866D01*
X11976500Y-3608972D01*
X11956498Y-3677093D01*
X11902842Y-3723586D01*
X11832568Y-3733690D01*
X11767988Y-3704196D01*
X11761405Y-3698067D01*
X9794310Y-1730972D01*
X9781923Y-1716559D01*
X9773295Y-1704835D01*
X9768954Y-1698936D01*
X9728445Y-1664521D01*
X9720929Y-1657591D01*
X9715185Y-1651847D01*
X9712311Y-1649573D01*
X9712304Y-1649567D01*
X9692789Y-1634128D01*
X9689385Y-1631337D01*
X9639028Y-1588555D01*
X9639024Y-1588552D01*
X9633449Y-1583816D01*
X9626932Y-1580488D01*
X9621868Y-1577111D01*
X9616644Y-1573884D01*
X9610900Y-1569340D01*
X9584609Y-1557052D01*
X9544418Y-1538268D01*
X9540467Y-1536337D01*
X9481617Y-1506287D01*
X9475096Y-1502957D01*
X9467981Y-1501216D01*
X9462235Y-1499079D01*
X9456452Y-1497155D01*
X9449821Y-1494056D01*
X9377943Y-1479106D01*
X9373671Y-1478139D01*
X9302388Y-1460696D01*
X9296789Y-1460349D01*
X9296785Y-1460348D01*
X9291170Y-1460000D01*
X9291172Y-1459961D01*
X9287271Y-1459728D01*
X9282912Y-1459339D01*
X9275744Y-1457848D01*
X9268427Y-1458046D01*
X9197923Y-1459954D01*
X9194514Y-1460000D01*
X3455245Y-1460000D01*
X3401904Y-1446354D01*
X3401705Y-1446885D01*
X3396819Y-1445053D01*
X3396816Y-1445052D01*
X3265316Y-1395755D01*
X3203134Y-1389000D01*
X634500Y-1389000D01*
X566379Y-1368998D01*
X519886Y-1315342D01*
X508500Y-1263000D01*
X508500Y-634500D01*
X528502Y-566379D01*
X582158Y-519886D01*
X634500Y-508500D01*
X19865500Y-508500D01*
X19933621Y-528502D01*
G37*
%TD.AperFunction*%
%TD*%
%TA.AperFunction,Conductor*%
%TO.N,/VTARGET*%
G36*
X2053752Y-1932967D02*
G01*
X2083590Y-1945456D01*
X2083595Y-1945458D01*
X2083875Y-1945575D01*
X2084162Y-1945660D01*
X2084170Y-1945663D01*
X2121807Y-1956831D01*
X2121813Y-1956832D01*
X2122081Y-1956912D01*
X2138873Y-1960156D01*
X2161767Y-1964580D01*
X2161776Y-1964581D01*
X2162002Y-1964625D01*
X2204359Y-1969324D01*
X2249873Y-1971621D01*
X2299263Y-1972129D01*
X2353250Y-1971459D01*
X2353258Y-1971459D01*
X2412524Y-1970224D01*
X2412555Y-1970223D01*
X2477800Y-1969034D01*
X2477927Y-1969032D01*
X2538214Y-1968587D01*
X2546512Y-1971953D01*
X2550000Y-1980287D01*
X2550000Y-2464713D01*
X2546573Y-2472986D01*
X2538213Y-2476413D01*
X2514618Y-2476238D01*
X2477926Y-2475967D01*
X2477800Y-2475965D01*
X2412555Y-2474776D01*
X2412524Y-2474775D01*
X2353258Y-2473540D01*
X2353250Y-2473540D01*
X2299263Y-2472870D01*
X2249873Y-2473378D01*
X2204359Y-2475675D01*
X2162002Y-2480374D01*
X2161776Y-2480418D01*
X2161767Y-2480419D01*
X2138873Y-2484843D01*
X2122081Y-2488087D01*
X2121813Y-2488167D01*
X2121807Y-2488168D01*
X2084168Y-2499337D01*
X2083875Y-2499424D01*
X2083598Y-2499540D01*
X2083595Y-2499541D01*
X2053752Y-2512033D01*
X2044797Y-2512066D01*
X2041126Y-2509674D01*
X1751269Y-2230933D01*
X1747681Y-2222729D01*
X1751269Y-2214067D01*
X2041125Y-1935327D01*
X2049464Y-1932062D01*
X2053752Y-1932967D01*
G37*
%TD.AperFunction*%
%TD*%
%TA.AperFunction,Conductor*%
%TO.N,/VTARGET*%
G36*
X12088827Y-4743805D02*
G01*
X12190950Y-4835868D01*
X12190958Y-4835874D01*
X12191225Y-4836115D01*
X12191527Y-4836324D01*
X12294898Y-4907953D01*
X12294901Y-4907955D01*
X12295281Y-4908218D01*
X12344782Y-4931940D01*
X12371469Y-4944729D01*
X12394919Y-4955967D01*
X12395420Y-4956104D01*
X12395422Y-4956105D01*
X12425148Y-4964251D01*
X12492315Y-4982658D01*
X12492825Y-4982705D01*
X12492826Y-4982705D01*
X12589217Y-4991546D01*
X12589220Y-4991546D01*
X12589645Y-4991585D01*
X12619579Y-4989916D01*
X12688784Y-4986059D01*
X12688790Y-4986058D01*
X12689083Y-4986042D01*
X12739852Y-4977859D01*
X12792628Y-4969352D01*
X12792643Y-4969349D01*
X12792805Y-4969323D01*
X12792971Y-4969286D01*
X12792981Y-4969284D01*
X12902961Y-4944729D01*
X12902959Y-4944729D01*
X12902988Y-4944723D01*
X13021777Y-4915543D01*
X13021879Y-4915519D01*
X13143391Y-4886950D01*
X13152229Y-4888392D01*
X13155908Y-4892009D01*
X13741403Y-5802275D01*
X13742997Y-5811087D01*
X13737892Y-5818444D01*
X13736758Y-5819087D01*
X13693914Y-5840319D01*
X12741662Y-6312223D01*
X12732729Y-6312826D01*
X12728016Y-6309830D01*
X12604119Y-6180387D01*
X12603746Y-6179978D01*
X12498066Y-6058556D01*
X12497719Y-6058139D01*
X12409339Y-5946552D01*
X12409078Y-5946209D01*
X12389107Y-5918989D01*
X12331333Y-5840243D01*
X12257649Y-5735794D01*
X12181566Y-5628946D01*
X12096490Y-5515600D01*
X12064191Y-5475830D01*
X11995908Y-5391754D01*
X11995895Y-5391739D01*
X11995827Y-5391655D01*
X11872984Y-5253014D01*
X11872880Y-5252906D01*
X11729331Y-5103846D01*
X11726060Y-5095510D01*
X11729485Y-5087457D01*
X12072720Y-4744222D01*
X12080993Y-4740795D01*
X12088827Y-4743805D01*
G37*
%TD.AperFunction*%
%TD*%
%TA.AperFunction,Conductor*%
%TO.N,/~{RESET}*%
G36*
X5261610Y-7580853D02*
G01*
X5312755Y-7604488D01*
X5312878Y-7604538D01*
X5312887Y-7604542D01*
X5366590Y-7626408D01*
X5366598Y-7626411D01*
X5366770Y-7626481D01*
X5389085Y-7634061D01*
X5418112Y-7643922D01*
X5418118Y-7643924D01*
X5418307Y-7643988D01*
X5469275Y-7657514D01*
X5521582Y-7667568D01*
X5521755Y-7667590D01*
X5521767Y-7667592D01*
X5562739Y-7672819D01*
X5577137Y-7674656D01*
X5637848Y-7679286D01*
X5637940Y-7679290D01*
X5637946Y-7679290D01*
X5705563Y-7681963D01*
X5705582Y-7681963D01*
X5705623Y-7681965D01*
X5741183Y-7682537D01*
X5782341Y-7683200D01*
X5782371Y-7683200D01*
X5858340Y-7683460D01*
X5866601Y-7686915D01*
X5870000Y-7695160D01*
X5870000Y-8179840D01*
X5866573Y-8188113D01*
X5858341Y-8191540D01*
X5782371Y-8191799D01*
X5782341Y-8191799D01*
X5741183Y-8192462D01*
X5705623Y-8193034D01*
X5705582Y-8193036D01*
X5705563Y-8193036D01*
X5637946Y-8195709D01*
X5637940Y-8195709D01*
X5637848Y-8195713D01*
X5577137Y-8200343D01*
X5562739Y-8202180D01*
X5521767Y-8207407D01*
X5521755Y-8207409D01*
X5521582Y-8207431D01*
X5469275Y-8217485D01*
X5418307Y-8231011D01*
X5418118Y-8231075D01*
X5418112Y-8231077D01*
X5389085Y-8240938D01*
X5366770Y-8248518D01*
X5366598Y-8248588D01*
X5366590Y-8248591D01*
X5312887Y-8270457D01*
X5312878Y-8270461D01*
X5312755Y-8270511D01*
X5261610Y-8294147D01*
X5252664Y-8294507D01*
X5248593Y-8291959D01*
X5185163Y-8230961D01*
X4888769Y-7945933D01*
X4885181Y-7937729D01*
X4888769Y-7929067D01*
X5145727Y-7681963D01*
X5248593Y-7583041D01*
X5256932Y-7579776D01*
X5261610Y-7580853D01*
G37*
%TD.AperFunction*%
%TD*%
M02*
