%TF.GenerationSoftware,KiCad,Pcbnew,6.0.11+dfsg-1~bpo11+1*%
%TF.CreationDate,2023-04-15T18:18:33-07:00*%
%TF.ProjectId,J-link_BOB,4a2d6c69-6e6b-45f4-924f-422e6b696361,A0*%
%TF.SameCoordinates,PX79b8e38PY4eb9cf0*%
%TF.FileFunction,Copper,L2,Bot*%
%TF.FilePolarity,Positive*%
%FSLAX46Y46*%
G04 Gerber Fmt 4.6, Leading zero omitted, Abs format (unit mm)*
G04 Created by KiCad (PCBNEW 6.0.11+dfsg-1~bpo11+1) date 2023-04-15 18:18:33*
%MOMM*%
%LPD*%
G01*
G04 APERTURE LIST*
%TA.AperFunction,ComponentPad*%
%ADD10R,1.700000X1.700000*%
%TD*%
%TA.AperFunction,ComponentPad*%
%ADD11O,1.700000X1.700000*%
%TD*%
%TA.AperFunction,SMDPad,CuDef*%
%ADD12R,2.500000X0.650000*%
%TD*%
%TA.AperFunction,ViaPad*%
%ADD13C,0.800000*%
%TD*%
%TA.AperFunction,Conductor*%
%ADD14C,0.508000*%
%TD*%
G04 APERTURE END LIST*
D10*
%TO.P,J30,1,Pin_1*%
%TO.N,/~{RESET}*%
X13335000Y-3175000D03*
D11*
%TO.P,J30,2,Pin_2*%
%TO.N,/VTARGET*%
X13335000Y-5715000D03*
%TO.P,J30,3,Pin_3*%
%TO.N,GND*%
X13335000Y-8255000D03*
%TO.P,J30,4,Pin_4*%
%TO.N,/SWDIO*%
X13335000Y-10795000D03*
%TO.P,J30,5,Pin_5*%
%TO.N,/SWCLK*%
X13335000Y-13335000D03*
%TD*%
D12*
%TO.P,J16,1,Pin_1*%
%TO.N,unconnected-(J16-Pad1)*%
X1905000Y-11430000D03*
%TD*%
%TO.P,J8,1,Pin_1*%
%TO.N,unconnected-(J8-Pad1)*%
X1905000Y-6350000D03*
%TD*%
%TO.P,J2,1,Pin_1*%
%TO.N,/SWDIO*%
X1905000Y-2540000D03*
%TD*%
%TO.P,J6,1,Pin_1*%
%TO.N,unconnected-(J6-Pad1)*%
X1905000Y-5080000D03*
%TD*%
%TO.P,J20,1,Pin_1*%
%TO.N,unconnected-(J20-Pad1)*%
X1905000Y-13970000D03*
%TD*%
%TO.P,J4,1,Pin_1*%
%TO.N,/SWCLK*%
X1905000Y-3810000D03*
%TD*%
%TO.P,J10,1,Pin_1*%
%TO.N,/~{RESET}*%
X1905000Y-7620000D03*
%TD*%
%TO.P,J18,1,Pin_1*%
%TO.N,unconnected-(J18-Pad1)*%
X1905000Y-12700000D03*
%TD*%
%TO.P,J12,1,Pin_1*%
%TO.N,unconnected-(J12-Pad1)*%
X1905000Y-8890000D03*
%TD*%
%TO.P,J14,1,Pin_1*%
%TO.N,unconnected-(J14-Pad1)*%
X1905000Y-10160000D03*
%TD*%
D13*
%TO.N,GND*%
X18415000Y-4445000D03*
X11176000Y-1524000D03*
X5080000Y-15240000D03*
X11430000Y-6985000D03*
X9525000Y-8255000D03*
X8255000Y-3810000D03*
X18415000Y-12065000D03*
X8255000Y-10795000D03*
%TO.N,/~{RESET}*%
X5080000Y-7620000D03*
X10160000Y-5080000D03*
%TD*%
D14*
%TO.N,/SWDIO*%
X1905000Y-2540000D02*
X5080000Y-2540000D01*
X5080000Y-2540000D02*
X13335000Y-10795000D01*
%TO.N,/SWCLK*%
X3810000Y-3810000D02*
X13335000Y-13335000D01*
X1905000Y-3810000D02*
X3810000Y-3810000D01*
%TO.N,/~{RESET}*%
X5080000Y-7620000D02*
X1905000Y-7620000D01*
X13335000Y-3175000D02*
X12065000Y-3175000D01*
X12065000Y-3175000D02*
X10160000Y-5080000D01*
%TD*%
%TA.AperFunction,Conductor*%
%TO.N,/SWDIO*%
G36*
X2053752Y-2250467D02*
G01*
X2083590Y-2262956D01*
X2083595Y-2262958D01*
X2083875Y-2263075D01*
X2084162Y-2263160D01*
X2084170Y-2263163D01*
X2121807Y-2274331D01*
X2121813Y-2274332D01*
X2122081Y-2274412D01*
X2138873Y-2277656D01*
X2161767Y-2282080D01*
X2161776Y-2282081D01*
X2162002Y-2282125D01*
X2204359Y-2286824D01*
X2249873Y-2289121D01*
X2299263Y-2289629D01*
X2353250Y-2288959D01*
X2353258Y-2288959D01*
X2412524Y-2287724D01*
X2412555Y-2287723D01*
X2477800Y-2286534D01*
X2477927Y-2286532D01*
X2538214Y-2286087D01*
X2546512Y-2289453D01*
X2550000Y-2297787D01*
X2550000Y-2782213D01*
X2546573Y-2790486D01*
X2538213Y-2793913D01*
X2514618Y-2793738D01*
X2477926Y-2793467D01*
X2477800Y-2793465D01*
X2412555Y-2792276D01*
X2412524Y-2792275D01*
X2353258Y-2791040D01*
X2353250Y-2791040D01*
X2299263Y-2790370D01*
X2249873Y-2790878D01*
X2204359Y-2793175D01*
X2162002Y-2797874D01*
X2161776Y-2797918D01*
X2161767Y-2797919D01*
X2138873Y-2802343D01*
X2122081Y-2805587D01*
X2121813Y-2805667D01*
X2121807Y-2805668D01*
X2084168Y-2816837D01*
X2083875Y-2816924D01*
X2083598Y-2817040D01*
X2083595Y-2817041D01*
X2053752Y-2829533D01*
X2044797Y-2829566D01*
X2041126Y-2827174D01*
X1751269Y-2548433D01*
X1747681Y-2540229D01*
X1751269Y-2531567D01*
X2041125Y-2252827D01*
X2049464Y-2249562D01*
X2053752Y-2250467D01*
G37*
%TD.AperFunction*%
%TD*%
%TA.AperFunction,Conductor*%
%TO.N,/SWDIO*%
G36*
X12327857Y-9428059D02*
G01*
X12461933Y-9552584D01*
X12591305Y-9652835D01*
X12711500Y-9726867D01*
X12826303Y-9780406D01*
X12826585Y-9780503D01*
X12826591Y-9780505D01*
X12848057Y-9787858D01*
X12939501Y-9819182D01*
X13054880Y-9848922D01*
X13117500Y-9862561D01*
X13176203Y-9875348D01*
X13176228Y-9875353D01*
X13307157Y-9904166D01*
X13307541Y-9904258D01*
X13451673Y-9941125D01*
X13452280Y-9941298D01*
X13605921Y-9989555D01*
X13612787Y-9995303D01*
X13614113Y-10000488D01*
X13635282Y-11083355D01*
X13632017Y-11091694D01*
X13623355Y-11095282D01*
X12540488Y-11074113D01*
X12532284Y-11070525D01*
X12529555Y-11065921D01*
X12481298Y-10912280D01*
X12481125Y-10911673D01*
X12444258Y-10767541D01*
X12444166Y-10767157D01*
X12415353Y-10636228D01*
X12415348Y-10636203D01*
X12388942Y-10514974D01*
X12388922Y-10514880D01*
X12359182Y-10399501D01*
X12320406Y-10286303D01*
X12266867Y-10171500D01*
X12192835Y-10051305D01*
X12092584Y-9921933D01*
X11968059Y-9787857D01*
X11964940Y-9779464D01*
X11968359Y-9771623D01*
X12311623Y-9428359D01*
X12319896Y-9424932D01*
X12327857Y-9428059D01*
G37*
%TD.AperFunction*%
%TD*%
%TA.AperFunction,Conductor*%
%TO.N,/SWCLK*%
G36*
X12327857Y-11968059D02*
G01*
X12461933Y-12092584D01*
X12591305Y-12192835D01*
X12711500Y-12266867D01*
X12826303Y-12320406D01*
X12826585Y-12320503D01*
X12826591Y-12320505D01*
X12848057Y-12327858D01*
X12939501Y-12359182D01*
X13054880Y-12388922D01*
X13117500Y-12402561D01*
X13176203Y-12415348D01*
X13176228Y-12415353D01*
X13307157Y-12444166D01*
X13307541Y-12444258D01*
X13451673Y-12481125D01*
X13452280Y-12481298D01*
X13605921Y-12529555D01*
X13612787Y-12535303D01*
X13614113Y-12540488D01*
X13635282Y-13623355D01*
X13632017Y-13631694D01*
X13623355Y-13635282D01*
X12540488Y-13614113D01*
X12532284Y-13610525D01*
X12529555Y-13605921D01*
X12481298Y-13452280D01*
X12481125Y-13451673D01*
X12444258Y-13307541D01*
X12444166Y-13307157D01*
X12415353Y-13176228D01*
X12415348Y-13176203D01*
X12388942Y-13054974D01*
X12388922Y-13054880D01*
X12359182Y-12939501D01*
X12320406Y-12826303D01*
X12266867Y-12711500D01*
X12192835Y-12591305D01*
X12092584Y-12461933D01*
X11968059Y-12327857D01*
X11964940Y-12319464D01*
X11968359Y-12311623D01*
X12311623Y-11968359D01*
X12319896Y-11964932D01*
X12327857Y-11968059D01*
G37*
%TD.AperFunction*%
%TD*%
%TA.AperFunction,Conductor*%
%TO.N,/SWCLK*%
G36*
X2053752Y-3520467D02*
G01*
X2083590Y-3532956D01*
X2083595Y-3532958D01*
X2083875Y-3533075D01*
X2084162Y-3533160D01*
X2084170Y-3533163D01*
X2121807Y-3544331D01*
X2121813Y-3544332D01*
X2122081Y-3544412D01*
X2138873Y-3547656D01*
X2161767Y-3552080D01*
X2161776Y-3552081D01*
X2162002Y-3552125D01*
X2204359Y-3556824D01*
X2249873Y-3559121D01*
X2299263Y-3559629D01*
X2353250Y-3558959D01*
X2353258Y-3558959D01*
X2412524Y-3557724D01*
X2412555Y-3557723D01*
X2477800Y-3556534D01*
X2477927Y-3556532D01*
X2538214Y-3556087D01*
X2546512Y-3559453D01*
X2550000Y-3567787D01*
X2550000Y-4052213D01*
X2546573Y-4060486D01*
X2538213Y-4063913D01*
X2514618Y-4063738D01*
X2477926Y-4063467D01*
X2477800Y-4063465D01*
X2412555Y-4062276D01*
X2412524Y-4062275D01*
X2353258Y-4061040D01*
X2353250Y-4061040D01*
X2299263Y-4060370D01*
X2249873Y-4060878D01*
X2204359Y-4063175D01*
X2162002Y-4067874D01*
X2161776Y-4067918D01*
X2161767Y-4067919D01*
X2138873Y-4072343D01*
X2122081Y-4075587D01*
X2121813Y-4075667D01*
X2121807Y-4075668D01*
X2084168Y-4086837D01*
X2083875Y-4086924D01*
X2083598Y-4087040D01*
X2083595Y-4087041D01*
X2053752Y-4099533D01*
X2044797Y-4099566D01*
X2041126Y-4097174D01*
X1751269Y-3818433D01*
X1747681Y-3810229D01*
X1751269Y-3801567D01*
X2041125Y-3522827D01*
X2049464Y-3519562D01*
X2053752Y-3520467D01*
G37*
%TD.AperFunction*%
%TD*%
%TA.AperFunction,Conductor*%
%TO.N,/~{RESET}*%
G36*
X4911407Y-7265541D02*
G01*
X5014274Y-7364463D01*
X5271231Y-7611567D01*
X5274819Y-7619771D01*
X5271231Y-7628433D01*
X4974837Y-7913461D01*
X4911407Y-7974459D01*
X4903068Y-7977724D01*
X4898390Y-7976647D01*
X4847244Y-7953011D01*
X4847121Y-7952961D01*
X4847112Y-7952957D01*
X4793409Y-7931091D01*
X4793401Y-7931088D01*
X4793229Y-7931018D01*
X4770914Y-7923438D01*
X4741887Y-7913577D01*
X4741881Y-7913575D01*
X4741692Y-7913511D01*
X4690724Y-7899985D01*
X4638417Y-7889931D01*
X4638244Y-7889909D01*
X4638232Y-7889907D01*
X4597260Y-7884680D01*
X4582862Y-7882843D01*
X4522151Y-7878213D01*
X4522059Y-7878209D01*
X4522053Y-7878209D01*
X4454436Y-7875536D01*
X4454417Y-7875536D01*
X4454376Y-7875534D01*
X4418816Y-7874962D01*
X4377658Y-7874299D01*
X4377628Y-7874299D01*
X4301659Y-7874040D01*
X4293399Y-7870585D01*
X4290000Y-7862340D01*
X4290000Y-7377660D01*
X4293427Y-7369387D01*
X4301660Y-7365960D01*
X4377628Y-7365700D01*
X4377658Y-7365700D01*
X4418816Y-7365037D01*
X4454376Y-7364465D01*
X4454417Y-7364463D01*
X4454436Y-7364463D01*
X4522053Y-7361790D01*
X4522059Y-7361790D01*
X4522151Y-7361786D01*
X4582862Y-7357156D01*
X4597260Y-7355319D01*
X4638232Y-7350092D01*
X4638244Y-7350090D01*
X4638417Y-7350068D01*
X4690724Y-7340014D01*
X4741692Y-7326488D01*
X4741881Y-7326424D01*
X4741887Y-7326422D01*
X4770914Y-7316561D01*
X4793229Y-7308981D01*
X4793401Y-7308911D01*
X4793409Y-7308908D01*
X4847112Y-7287042D01*
X4847121Y-7287038D01*
X4847244Y-7286988D01*
X4898389Y-7263353D01*
X4907337Y-7262993D01*
X4911407Y-7265541D01*
G37*
%TD.AperFunction*%
%TD*%
%TA.AperFunction,Conductor*%
%TO.N,/~{RESET}*%
G36*
X2053752Y-7330467D02*
G01*
X2083590Y-7342956D01*
X2083595Y-7342958D01*
X2083875Y-7343075D01*
X2084162Y-7343160D01*
X2084170Y-7343163D01*
X2121807Y-7354331D01*
X2121813Y-7354332D01*
X2122081Y-7354412D01*
X2138873Y-7357656D01*
X2161767Y-7362080D01*
X2161776Y-7362081D01*
X2162002Y-7362125D01*
X2204359Y-7366824D01*
X2249873Y-7369121D01*
X2299263Y-7369629D01*
X2353250Y-7368959D01*
X2353258Y-7368959D01*
X2412524Y-7367724D01*
X2412555Y-7367723D01*
X2477800Y-7366534D01*
X2477927Y-7366532D01*
X2538214Y-7366087D01*
X2546512Y-7369453D01*
X2550000Y-7377787D01*
X2550000Y-7862213D01*
X2546573Y-7870486D01*
X2538213Y-7873913D01*
X2514618Y-7873738D01*
X2477926Y-7873467D01*
X2477800Y-7873465D01*
X2412555Y-7872276D01*
X2412524Y-7872275D01*
X2353258Y-7871040D01*
X2353250Y-7871040D01*
X2299263Y-7870370D01*
X2249873Y-7870878D01*
X2204359Y-7873175D01*
X2162002Y-7877874D01*
X2161776Y-7877918D01*
X2161767Y-7877919D01*
X2138873Y-7882343D01*
X2122081Y-7885587D01*
X2121813Y-7885667D01*
X2121807Y-7885668D01*
X2084168Y-7896837D01*
X2083875Y-7896924D01*
X2083598Y-7897040D01*
X2083595Y-7897041D01*
X2053752Y-7909533D01*
X2044797Y-7909566D01*
X2041126Y-7907174D01*
X1751269Y-7628433D01*
X1747681Y-7620229D01*
X1751269Y-7611567D01*
X2041125Y-7332827D01*
X2049464Y-7329562D01*
X2053752Y-7330467D01*
G37*
%TD.AperFunction*%
%TD*%
%TA.AperFunction,Conductor*%
%TO.N,/~{RESET}*%
G36*
X12741342Y-2578285D02*
G01*
X13746662Y-3167187D01*
X13752068Y-3174325D01*
X13750843Y-3183196D01*
X13748859Y-3185714D01*
X13269141Y-3647036D01*
X12970754Y-3933980D01*
X12962415Y-3937245D01*
X12956921Y-3935752D01*
X12846861Y-3874024D01*
X12845964Y-3873466D01*
X12736940Y-3798653D01*
X12736517Y-3798349D01*
X12633601Y-3720767D01*
X12535327Y-3647217D01*
X12535326Y-3647216D01*
X12535200Y-3647122D01*
X12439672Y-3584132D01*
X12345172Y-3538357D01*
X12285656Y-3524622D01*
X12250744Y-3516565D01*
X12250743Y-3516565D01*
X12249855Y-3516360D01*
X12248950Y-3516437D01*
X12248948Y-3516437D01*
X12214752Y-3519349D01*
X12151875Y-3524704D01*
X12150985Y-3525097D01*
X12050106Y-3569633D01*
X12050103Y-3569635D01*
X12049389Y-3569950D01*
X12048786Y-3570442D01*
X12048782Y-3570444D01*
X11948742Y-3651984D01*
X11940164Y-3654555D01*
X11933077Y-3651188D01*
X11589995Y-3308106D01*
X11586568Y-3299833D01*
X11590377Y-3291195D01*
X11719045Y-3173665D01*
X11719951Y-3172919D01*
X11845998Y-3079089D01*
X11847001Y-3078420D01*
X11964167Y-3008695D01*
X11965093Y-3008198D01*
X12075872Y-2955107D01*
X12076487Y-2954834D01*
X12183402Y-2910952D01*
X12183509Y-2910909D01*
X12288422Y-2869061D01*
X12288565Y-2869004D01*
X12288667Y-2868958D01*
X12288689Y-2868949D01*
X12393714Y-2821823D01*
X12393721Y-2821819D01*
X12393936Y-2821723D01*
X12444372Y-2793660D01*
X12501495Y-2761876D01*
X12501501Y-2761872D01*
X12501780Y-2761717D01*
X12614366Y-2681593D01*
X12727601Y-2579683D01*
X12736043Y-2576696D01*
X12741342Y-2578285D01*
G37*
%TD.AperFunction*%
%TD*%
%TA.AperFunction,Conductor*%
%TO.N,/~{RESET}*%
G36*
X10547253Y-4350027D02*
G01*
X10889973Y-4692747D01*
X10893400Y-4701020D01*
X10890001Y-4709265D01*
X10836466Y-4763166D01*
X10783071Y-4818308D01*
X10737041Y-4868126D01*
X10736962Y-4868218D01*
X10736954Y-4868227D01*
X10697496Y-4914200D01*
X10697482Y-4914217D01*
X10697386Y-4914329D01*
X10663115Y-4958624D01*
X10633238Y-5002720D01*
X10606762Y-5048324D01*
X10582699Y-5097145D01*
X10560057Y-5150891D01*
X10560009Y-5151021D01*
X10560006Y-5151029D01*
X10540606Y-5203767D01*
X10534533Y-5210349D01*
X10529854Y-5211426D01*
X10030744Y-5221183D01*
X10022405Y-5217918D01*
X10018817Y-5209256D01*
X10028574Y-4710146D01*
X10032162Y-4701942D01*
X10036232Y-4699394D01*
X10089108Y-4679942D01*
X10142854Y-4657300D01*
X10142983Y-4657236D01*
X10142995Y-4657231D01*
X10191509Y-4633319D01*
X10191513Y-4633317D01*
X10191675Y-4633237D01*
X10237279Y-4606761D01*
X10281375Y-4576884D01*
X10281511Y-4576779D01*
X10281519Y-4576773D01*
X10325550Y-4542706D01*
X10325554Y-4542703D01*
X10325670Y-4542613D01*
X10325782Y-4542517D01*
X10325799Y-4542503D01*
X10371772Y-4503045D01*
X10371781Y-4503037D01*
X10371873Y-4502958D01*
X10421691Y-4456928D01*
X10476833Y-4403533D01*
X10501360Y-4379173D01*
X10530735Y-4349999D01*
X10539020Y-4346600D01*
X10547253Y-4350027D01*
G37*
%TD.AperFunction*%
%TD*%
%TA.AperFunction,Conductor*%
%TO.N,GND*%
G36*
X19933621Y-528502D02*
G01*
X19980114Y-582158D01*
X19991500Y-634500D01*
X19991500Y-15865500D01*
X19971498Y-15933621D01*
X19917842Y-15980114D01*
X19865500Y-15991500D01*
X634500Y-15991500D01*
X566379Y-15971498D01*
X519886Y-15917842D01*
X508500Y-15865500D01*
X508500Y-14929500D01*
X528502Y-14861379D01*
X582158Y-14814886D01*
X634500Y-14803500D01*
X3203134Y-14803500D01*
X3265316Y-14796745D01*
X3401705Y-14745615D01*
X3518261Y-14658261D01*
X3605615Y-14541705D01*
X3656745Y-14405316D01*
X3663500Y-14343134D01*
X3663500Y-13596866D01*
X3656745Y-13534684D01*
X3619362Y-13434964D01*
X3608766Y-13406699D01*
X3608764Y-13406696D01*
X3605615Y-13398295D01*
X3602273Y-13393836D01*
X3587470Y-13326152D01*
X3602067Y-13276439D01*
X3605615Y-13271705D01*
X3656745Y-13135316D01*
X3663500Y-13073134D01*
X3663500Y-12326866D01*
X3656745Y-12264684D01*
X3605615Y-12128295D01*
X3602273Y-12123836D01*
X3587470Y-12056152D01*
X3602067Y-12006439D01*
X3605615Y-12001705D01*
X3619040Y-11965896D01*
X3653971Y-11872715D01*
X3656745Y-11865316D01*
X3663500Y-11803134D01*
X3663500Y-11056866D01*
X3656745Y-10994684D01*
X3605615Y-10858295D01*
X3602273Y-10853836D01*
X3587470Y-10786152D01*
X3602067Y-10736439D01*
X3605615Y-10731705D01*
X3656745Y-10595316D01*
X3663500Y-10533134D01*
X3663500Y-9786866D01*
X3656745Y-9724684D01*
X3605615Y-9588295D01*
X3602273Y-9583836D01*
X3587470Y-9516152D01*
X3602067Y-9466439D01*
X3605615Y-9461705D01*
X3609481Y-9451395D01*
X3653971Y-9332715D01*
X3656745Y-9325316D01*
X3663500Y-9263134D01*
X3663500Y-8516866D01*
X3663300Y-8515022D01*
X3679521Y-8446210D01*
X3730584Y-8396884D01*
X3789047Y-8382500D01*
X4256473Y-8382500D01*
X4274829Y-8383844D01*
X4295457Y-8386882D01*
X4295463Y-8386882D01*
X4299908Y-8387537D01*
X4371759Y-8387782D01*
X4373319Y-8387797D01*
X4438678Y-8388849D01*
X4441584Y-8388929D01*
X4465118Y-8389860D01*
X4490188Y-8390851D01*
X4494788Y-8391118D01*
X4527605Y-8393620D01*
X4533972Y-8394268D01*
X4553458Y-8396754D01*
X4561281Y-8398004D01*
X4571957Y-8400056D01*
X4580489Y-8402005D01*
X4588929Y-8404245D01*
X4597133Y-8406724D01*
X4610151Y-8411146D01*
X4617112Y-8413743D01*
X4639891Y-8423018D01*
X4645227Y-8425336D01*
X4680020Y-8441414D01*
X4680028Y-8441417D01*
X4682977Y-8442780D01*
X4726785Y-8457765D01*
X4737250Y-8461876D01*
X4791672Y-8486105D01*
X4797712Y-8488794D01*
X4839340Y-8497642D01*
X4978056Y-8527128D01*
X4978061Y-8527128D01*
X4984513Y-8528500D01*
X5175487Y-8528500D01*
X5181939Y-8527128D01*
X5181944Y-8527128D01*
X5268888Y-8508647D01*
X5362288Y-8488794D01*
X5368328Y-8486105D01*
X5530722Y-8413803D01*
X5530724Y-8413802D01*
X5536752Y-8411118D01*
X5556344Y-8396884D01*
X5592157Y-8370864D01*
X5691253Y-8298866D01*
X5819040Y-8156944D01*
X5906881Y-8004800D01*
X5911223Y-7997279D01*
X5911224Y-7997278D01*
X5914527Y-7991556D01*
X5973542Y-7809928D01*
X5976711Y-7779783D01*
X5992814Y-7626565D01*
X5993504Y-7620000D01*
X5973542Y-7430072D01*
X5953696Y-7368993D01*
X5951668Y-7298026D01*
X5988331Y-7237228D01*
X6052043Y-7205902D01*
X6122577Y-7213995D01*
X6162624Y-7240962D01*
X11567642Y-12645980D01*
X11582132Y-12663339D01*
X11591806Y-12677308D01*
X11696911Y-12790474D01*
X11704179Y-12799036D01*
X11765918Y-12878710D01*
X11773603Y-12889808D01*
X11810225Y-12949265D01*
X11817136Y-12962091D01*
X11840645Y-13012502D01*
X11845650Y-13024918D01*
X11863330Y-13076531D01*
X11865332Y-13082375D01*
X11868143Y-13091756D01*
X11888657Y-13171341D01*
X11889758Y-13175975D01*
X11913612Y-13285489D01*
X11913848Y-13286564D01*
X11942666Y-13417518D01*
X11944798Y-13426797D01*
X11944890Y-13427181D01*
X11946775Y-13434790D01*
X11983642Y-13578922D01*
X11987290Y-13592420D01*
X11987463Y-13593027D01*
X11987568Y-13593377D01*
X11987581Y-13593422D01*
X11991045Y-13604986D01*
X11991395Y-13606153D01*
X12034116Y-13742168D01*
X12034222Y-13742639D01*
X12034407Y-13743093D01*
X12039652Y-13759794D01*
X12041133Y-13763113D01*
X12041136Y-13763121D01*
X12055845Y-13796086D01*
X12057523Y-13800024D01*
X12118266Y-13949616D01*
X12234987Y-14140088D01*
X12381250Y-14308938D01*
X12553126Y-14451632D01*
X12746000Y-14564338D01*
X12954692Y-14644030D01*
X12959760Y-14645061D01*
X12959763Y-14645062D01*
X13024639Y-14658261D01*
X13173597Y-14688567D01*
X13178772Y-14688757D01*
X13178774Y-14688757D01*
X13391673Y-14696564D01*
X13391677Y-14696564D01*
X13396837Y-14696753D01*
X13401957Y-14696097D01*
X13401959Y-14696097D01*
X13613288Y-14669025D01*
X13613289Y-14669025D01*
X13618416Y-14668368D01*
X13623366Y-14666883D01*
X13827429Y-14605661D01*
X13827434Y-14605659D01*
X13832384Y-14604174D01*
X14032994Y-14505896D01*
X14214860Y-14376173D01*
X14373096Y-14218489D01*
X14432594Y-14135689D01*
X14500435Y-14041277D01*
X14503453Y-14037077D01*
X14602430Y-13836811D01*
X14667370Y-13623069D01*
X14696529Y-13401590D01*
X14698156Y-13335000D01*
X14679852Y-13112361D01*
X14625431Y-12895702D01*
X14536354Y-12690840D01*
X14415014Y-12503277D01*
X14264670Y-12338051D01*
X14260619Y-12334852D01*
X14260615Y-12334848D01*
X14093414Y-12202800D01*
X14093410Y-12202798D01*
X14089359Y-12199598D01*
X14048053Y-12176796D01*
X13998084Y-12126364D01*
X13983312Y-12056921D01*
X14008428Y-11990516D01*
X14035780Y-11963909D01*
X14079603Y-11932650D01*
X14214860Y-11836173D01*
X14373096Y-11678489D01*
X14503453Y-11497077D01*
X14602430Y-11296811D01*
X14667370Y-11083069D01*
X14696529Y-10861590D01*
X14698156Y-10795000D01*
X14679852Y-10572361D01*
X14625431Y-10355702D01*
X14536354Y-10150840D01*
X14415014Y-9963277D01*
X14264670Y-9798051D01*
X14260619Y-9794852D01*
X14260615Y-9794848D01*
X14093414Y-9662800D01*
X14093410Y-9662798D01*
X14089359Y-9659598D01*
X14047569Y-9636529D01*
X13997598Y-9586097D01*
X13982826Y-9516654D01*
X14007942Y-9450248D01*
X14035294Y-9423641D01*
X14210328Y-9298792D01*
X14218200Y-9292139D01*
X14369052Y-9141812D01*
X14375730Y-9133965D01*
X14500003Y-8961020D01*
X14505313Y-8952183D01*
X14599670Y-8761267D01*
X14603469Y-8751672D01*
X14665377Y-8547910D01*
X14667555Y-8537837D01*
X14668986Y-8526962D01*
X14666775Y-8512778D01*
X14653617Y-8509000D01*
X13207000Y-8509000D01*
X13138879Y-8488998D01*
X13092386Y-8435342D01*
X13081000Y-8383000D01*
X13081000Y-8127000D01*
X13101002Y-8058879D01*
X13154658Y-8012386D01*
X13207000Y-8001000D01*
X14653344Y-8001000D01*
X14666875Y-7997027D01*
X14668180Y-7987947D01*
X14626214Y-7820875D01*
X14622894Y-7811124D01*
X14537972Y-7615814D01*
X14533105Y-7606739D01*
X14417426Y-7427926D01*
X14411136Y-7419757D01*
X14267806Y-7262240D01*
X14260273Y-7255215D01*
X14093139Y-7123222D01*
X14084556Y-7117520D01*
X14047602Y-7097120D01*
X13997631Y-7046687D01*
X13982859Y-6977245D01*
X14007975Y-6910839D01*
X14035327Y-6884232D01*
X14079734Y-6852557D01*
X14214860Y-6756173D01*
X14219845Y-6751206D01*
X14369435Y-6602137D01*
X14373096Y-6598489D01*
X14432594Y-6515689D01*
X14500435Y-6421277D01*
X14503453Y-6417077D01*
X14602430Y-6216811D01*
X14667370Y-6003069D01*
X14696529Y-5781590D01*
X14696678Y-5775509D01*
X14698074Y-5718365D01*
X14698074Y-5718361D01*
X14698156Y-5715000D01*
X14679852Y-5492361D01*
X14625431Y-5275702D01*
X14536354Y-5070840D01*
X14415014Y-4883277D01*
X14411532Y-4879450D01*
X14267798Y-4721488D01*
X14236746Y-4657642D01*
X14245141Y-4587143D01*
X14290317Y-4532375D01*
X14316761Y-4518706D01*
X14423297Y-4478767D01*
X14431705Y-4475615D01*
X14548261Y-4388261D01*
X14635615Y-4271705D01*
X14686745Y-4135316D01*
X14693500Y-4073134D01*
X14693500Y-2276866D01*
X14686745Y-2214684D01*
X14635615Y-2078295D01*
X14548261Y-1961739D01*
X14431705Y-1874385D01*
X14295316Y-1823255D01*
X14233134Y-1816500D01*
X12436866Y-1816500D01*
X12374684Y-1823255D01*
X12238295Y-1874385D01*
X12121739Y-1961739D01*
X12034385Y-2078295D01*
X11983255Y-2214684D01*
X11976500Y-2276866D01*
X11976500Y-2308255D01*
X11956498Y-2376376D01*
X11902842Y-2422869D01*
X11888369Y-2427830D01*
X11888394Y-2427898D01*
X11819393Y-2452945D01*
X11815289Y-2454355D01*
X11745425Y-2476987D01*
X11739162Y-2480787D01*
X11733620Y-2483325D01*
X11728144Y-2486067D01*
X11721259Y-2488566D01*
X11715135Y-2492581D01*
X11659868Y-2528815D01*
X11656200Y-2531130D01*
X11593419Y-2569227D01*
X11589214Y-2572941D01*
X11589211Y-2572943D01*
X11584995Y-2576667D01*
X11584969Y-2576638D01*
X11582038Y-2579238D01*
X11578684Y-2582042D01*
X11572565Y-2586054D01*
X11567533Y-2591366D01*
X11519012Y-2642586D01*
X11516634Y-2645028D01*
X11310153Y-2851509D01*
X11306036Y-2855445D01*
X11244059Y-2912057D01*
X11197931Y-2960032D01*
X11194466Y-2965581D01*
X11193555Y-2966751D01*
X11183261Y-2978401D01*
X10203150Y-3958512D01*
X10189218Y-3970543D01*
X10168882Y-3985658D01*
X10117887Y-4036305D01*
X10116757Y-4037413D01*
X10069817Y-4082866D01*
X10067729Y-4084841D01*
X10038786Y-4111583D01*
X10032006Y-4117848D01*
X10028560Y-4120917D01*
X10003555Y-4142378D01*
X9998593Y-4146422D01*
X9983090Y-4158416D01*
X9976664Y-4163072D01*
X9967637Y-4169188D01*
X9960232Y-4173838D01*
X9952687Y-4178219D01*
X9945134Y-4182268D01*
X9932819Y-4188338D01*
X9926069Y-4191420D01*
X9903363Y-4200986D01*
X9897964Y-4203114D01*
X9862014Y-4216339D01*
X9861999Y-4216346D01*
X9858942Y-4217470D01*
X9856021Y-4218902D01*
X9856015Y-4218905D01*
X9814700Y-4239166D01*
X9810486Y-4241137D01*
X9703248Y-4288882D01*
X9548747Y-4401134D01*
X9420960Y-4543056D01*
X9395506Y-4587143D01*
X9331453Y-4698087D01*
X9325473Y-4708444D01*
X9266458Y-4890072D01*
X9265768Y-4896633D01*
X9265768Y-4896635D01*
X9251667Y-5030799D01*
X9246496Y-5080000D01*
X9247186Y-5086565D01*
X9265090Y-5256909D01*
X9266458Y-5269928D01*
X9280759Y-5313940D01*
X9286304Y-5331006D01*
X9288332Y-5401974D01*
X9251669Y-5462772D01*
X9187957Y-5494098D01*
X9117423Y-5486005D01*
X9077376Y-5459038D01*
X5666810Y-2048472D01*
X5654423Y-2034059D01*
X5645795Y-2022335D01*
X5641454Y-2016436D01*
X5600945Y-1982021D01*
X5593429Y-1975091D01*
X5587685Y-1969347D01*
X5584811Y-1967073D01*
X5584804Y-1967067D01*
X5565289Y-1951628D01*
X5561885Y-1948837D01*
X5511528Y-1906055D01*
X5511524Y-1906052D01*
X5505949Y-1901316D01*
X5499432Y-1897988D01*
X5494368Y-1894611D01*
X5489144Y-1891384D01*
X5483400Y-1886840D01*
X5450007Y-1871233D01*
X5416918Y-1855768D01*
X5412967Y-1853837D01*
X5354117Y-1823787D01*
X5347596Y-1820457D01*
X5340481Y-1818716D01*
X5334735Y-1816579D01*
X5328952Y-1814655D01*
X5322321Y-1811556D01*
X5250443Y-1796606D01*
X5246171Y-1795639D01*
X5174888Y-1778196D01*
X5169289Y-1777849D01*
X5169285Y-1777848D01*
X5163670Y-1777500D01*
X5163672Y-1777461D01*
X5159771Y-1777228D01*
X5155412Y-1776839D01*
X5148244Y-1775348D01*
X5140927Y-1775546D01*
X5070423Y-1777454D01*
X5067014Y-1777500D01*
X3455245Y-1777500D01*
X3401904Y-1763854D01*
X3401705Y-1764385D01*
X3396819Y-1762553D01*
X3396816Y-1762552D01*
X3265316Y-1713255D01*
X3203134Y-1706500D01*
X634500Y-1706500D01*
X566379Y-1686498D01*
X519886Y-1632842D01*
X508500Y-1580500D01*
X508500Y-634500D01*
X528502Y-566379D01*
X582158Y-519886D01*
X634500Y-508500D01*
X19865500Y-508500D01*
X19933621Y-528502D01*
G37*
%TD.AperFunction*%
%TA.AperFunction,Conductor*%
G36*
X4780093Y-3322502D02*
G01*
X4801067Y-3339405D01*
X11567642Y-10105980D01*
X11582132Y-10123339D01*
X11591806Y-10137308D01*
X11696911Y-10250474D01*
X11704179Y-10259037D01*
X11744936Y-10311634D01*
X11770851Y-10377732D01*
X11756916Y-10447347D01*
X11707557Y-10498378D01*
X11638443Y-10514622D01*
X11571519Y-10490922D01*
X11556244Y-10477906D01*
X4595933Y-3517595D01*
X4561907Y-3455283D01*
X4566972Y-3384468D01*
X4609519Y-3327632D01*
X4676039Y-3302821D01*
X4685028Y-3302500D01*
X4711972Y-3302500D01*
X4780093Y-3322502D01*
G37*
%TD.AperFunction*%
%TA.AperFunction,Conductor*%
G36*
X12070841Y-4351665D02*
G01*
X12115903Y-4380626D01*
X12116358Y-4381081D01*
X12121739Y-4388261D01*
X12238295Y-4475615D01*
X12246704Y-4478767D01*
X12246705Y-4478768D01*
X12355451Y-4519535D01*
X12412216Y-4562176D01*
X12436916Y-4628738D01*
X12421709Y-4698087D01*
X12402316Y-4724568D01*
X12275629Y-4857138D01*
X12272715Y-4861410D01*
X12272714Y-4861411D01*
X12254838Y-4887617D01*
X12149743Y-5041680D01*
X12055688Y-5244305D01*
X11995989Y-5459570D01*
X11972251Y-5681695D01*
X11972548Y-5686848D01*
X11972548Y-5686851D01*
X11977821Y-5778295D01*
X11985110Y-5904715D01*
X11986247Y-5909761D01*
X11986248Y-5909767D01*
X12001370Y-5976866D01*
X12034222Y-6122639D01*
X12118266Y-6329616D01*
X12234987Y-6520088D01*
X12381250Y-6688938D01*
X12502055Y-6789232D01*
X12546645Y-6826251D01*
X12553126Y-6831632D01*
X12588348Y-6852214D01*
X12626955Y-6874774D01*
X12675679Y-6926412D01*
X12688750Y-6996195D01*
X12662019Y-7061967D01*
X12621562Y-7095327D01*
X12613457Y-7099546D01*
X12604738Y-7105036D01*
X12434433Y-7232905D01*
X12426726Y-7239748D01*
X12279590Y-7393717D01*
X12273104Y-7401727D01*
X12153098Y-7577649D01*
X12148000Y-7586623D01*
X12058338Y-7779783D01*
X12054775Y-7789470D01*
X11997864Y-7994681D01*
X11995933Y-8004800D01*
X11987948Y-8079522D01*
X11960820Y-8145131D01*
X11902528Y-8185660D01*
X11831578Y-8188239D01*
X11773566Y-8155228D01*
X9784077Y-6165739D01*
X9750051Y-6103427D01*
X9755116Y-6032612D01*
X9797663Y-5975776D01*
X9864183Y-5950965D01*
X9899366Y-5953397D01*
X9967284Y-5967833D01*
X10058056Y-5987128D01*
X10058061Y-5987128D01*
X10064513Y-5988500D01*
X10255487Y-5988500D01*
X10261939Y-5987128D01*
X10261944Y-5987128D01*
X10348887Y-5968647D01*
X10442288Y-5948794D01*
X10529945Y-5909767D01*
X10610722Y-5873803D01*
X10610724Y-5873802D01*
X10616752Y-5871118D01*
X10771253Y-5758866D01*
X10899040Y-5616944D01*
X10994527Y-5451556D01*
X11006207Y-5415608D01*
X11015181Y-5394659D01*
X11022533Y-5381049D01*
X11036890Y-5342021D01*
X11039010Y-5336645D01*
X11048575Y-5313940D01*
X11051676Y-5307150D01*
X11057727Y-5294874D01*
X11061780Y-5287312D01*
X11066161Y-5279767D01*
X11070811Y-5272362D01*
X11076927Y-5263335D01*
X11081583Y-5256909D01*
X11093577Y-5241406D01*
X11097621Y-5236444D01*
X11119082Y-5211439D01*
X11122151Y-5207993D01*
X11128416Y-5201213D01*
X11155158Y-5172270D01*
X11157133Y-5170182D01*
X11202613Y-5123214D01*
X11203664Y-5122142D01*
X11254335Y-5071125D01*
X11290373Y-5030799D01*
X11292016Y-5028020D01*
X11302181Y-5016157D01*
X11937713Y-4380625D01*
X12000025Y-4346600D01*
X12070841Y-4351665D01*
G37*
%TD.AperFunction*%
%TD*%
M02*
