%TF.GenerationSoftware,KiCad,Pcbnew,6.0.11+dfsg-1~bpo11+1*%
%TF.CreationDate,2023-04-15T17:48:56-07:00*%
%TF.ProjectId,J-link_BOB,4a2d6c69-6e6b-45f4-924f-422e6b696361,A0*%
%TF.SameCoordinates,PX79b8e38PY4eb9cf0*%
%TF.FileFunction,Drillmap*%
%TF.FilePolarity,Positive*%
%FSLAX45Y45*%
G04 Gerber Fmt 4.5, Leading zero omitted, Abs format (unit mm)*
G04 Created by KiCad (PCBNEW 6.0.11+dfsg-1~bpo11+1) date 2023-04-15 17:48:56*
%MOMM*%
%LPD*%
G01*
G04 APERTURE LIST*
%ADD10C,0.200000*%
G04 APERTURE END LIST*
D10*
X0Y0D02*
X2050000Y0D01*
X2050000Y0D02*
X2050000Y-1650000D01*
X2050000Y-1650000D02*
X0Y-1650000D01*
X0Y-1650000D02*
X0Y0D01*
X247619Y-1970476D02*
X247619Y-1770476D01*
X295238Y-1770476D01*
X323810Y-1780000D01*
X342857Y-1799048D01*
X352381Y-1818095D01*
X361905Y-1856190D01*
X361905Y-1884762D01*
X352381Y-1922857D01*
X342857Y-1941905D01*
X323810Y-1960952D01*
X295238Y-1970476D01*
X247619Y-1970476D01*
X447619Y-1970476D02*
X447619Y-1837143D01*
X447619Y-1875238D02*
X457143Y-1856190D01*
X466667Y-1846667D01*
X485714Y-1837143D01*
X504762Y-1837143D01*
X571429Y-1970476D02*
X571429Y-1837143D01*
X571429Y-1770476D02*
X561905Y-1780000D01*
X571429Y-1789524D01*
X580952Y-1780000D01*
X571429Y-1770476D01*
X571429Y-1789524D01*
X695238Y-1970476D02*
X676190Y-1960952D01*
X666667Y-1941905D01*
X666667Y-1770476D01*
X800000Y-1970476D02*
X780952Y-1960952D01*
X771428Y-1941905D01*
X771428Y-1770476D01*
X1028571Y-1970476D02*
X1028571Y-1770476D01*
X1095238Y-1913333D01*
X1161905Y-1770476D01*
X1161905Y-1970476D01*
X1342857Y-1970476D02*
X1342857Y-1865714D01*
X1333333Y-1846667D01*
X1314286Y-1837143D01*
X1276190Y-1837143D01*
X1257143Y-1846667D01*
X1342857Y-1960952D02*
X1323810Y-1970476D01*
X1276190Y-1970476D01*
X1257143Y-1960952D01*
X1247619Y-1941905D01*
X1247619Y-1922857D01*
X1257143Y-1903809D01*
X1276190Y-1894286D01*
X1323810Y-1894286D01*
X1342857Y-1884762D01*
X1438095Y-1837143D02*
X1438095Y-2037143D01*
X1438095Y-1846667D02*
X1457143Y-1837143D01*
X1495238Y-1837143D01*
X1514286Y-1846667D01*
X1523809Y-1856190D01*
X1533333Y-1875238D01*
X1533333Y-1932381D01*
X1523809Y-1951428D01*
X1514286Y-1960952D01*
X1495238Y-1970476D01*
X1457143Y-1970476D01*
X1438095Y-1960952D01*
X1619048Y-1951428D02*
X1628571Y-1960952D01*
X1619048Y-1970476D01*
X1609524Y-1960952D01*
X1619048Y-1951428D01*
X1619048Y-1970476D01*
X1619048Y-1846667D02*
X1628571Y-1856190D01*
X1619048Y-1865714D01*
X1609524Y-1856190D01*
X1619048Y-1846667D01*
X1619048Y-1865714D01*
M02*
