%TF.GenerationSoftware,KiCad,Pcbnew,6.0.11+dfsg-1~bpo11+1*%
%TF.CreationDate,2023-04-15T18:18:33-07:00*%
%TF.ProjectId,J-link_BOB,4a2d6c69-6e6b-45f4-924f-422e6b696361,A0*%
%TF.SameCoordinates,PX79b8e38PY4eb9cf0*%
%TF.FileFunction,Legend,Bot*%
%TF.FilePolarity,Positive*%
%FSLAX46Y46*%
G04 Gerber Fmt 4.6, Leading zero omitted, Abs format (unit mm)*
G04 Created by KiCad (PCBNEW 6.0.11+dfsg-1~bpo11+1) date 2023-04-15 18:18:33*
%MOMM*%
%LPD*%
G01*
G04 APERTURE LIST*
%ADD10C,0.150000*%
G04 APERTURE END LIST*
D10*
X4516380Y-2768571D02*
X4564000Y-2730476D01*
X4611619Y-2654285D01*
X4611619Y-2463809D01*
X4564000Y-2387619D01*
X4516380Y-2349523D01*
X4421142Y-2311428D01*
X4325904Y-2311428D01*
X4183047Y-2349523D01*
X3611619Y-2806666D01*
X3611619Y-2311428D01*
X4516380Y-14579523D02*
X4564000Y-14541428D01*
X4611619Y-14465238D01*
X4611619Y-14274761D01*
X4564000Y-14198571D01*
X4516380Y-14160476D01*
X4421142Y-14122380D01*
X4325904Y-14122380D01*
X4183047Y-14160476D01*
X3611619Y-14617619D01*
X3611619Y-14122380D01*
X4611619Y-13627142D02*
X4611619Y-13550952D01*
X4564000Y-13474761D01*
X4516380Y-13436666D01*
X4421142Y-13398571D01*
X4230666Y-13360476D01*
X3992571Y-13360476D01*
X3802095Y-13398571D01*
X3706857Y-13436666D01*
X3659238Y-13474761D01*
X3611619Y-13550952D01*
X3611619Y-13627142D01*
X3659238Y-13703333D01*
X3706857Y-13741428D01*
X3802095Y-13779523D01*
X3992571Y-13817619D01*
X4230666Y-13817619D01*
X4421142Y-13779523D01*
X4516380Y-13741428D01*
X4564000Y-13703333D01*
X4611619Y-13627142D01*
X15952380Y-4374047D02*
X16666666Y-4374047D01*
X16809523Y-4326428D01*
X16904761Y-4231190D01*
X16952380Y-4088333D01*
X16952380Y-3993095D01*
X16571428Y-4850238D02*
X16571428Y-5612142D01*
X16952380Y-6564523D02*
X16952380Y-6088333D01*
X15952380Y-6088333D01*
X16952380Y-6897857D02*
X16285714Y-6897857D01*
X15952380Y-6897857D02*
X16000000Y-6850238D01*
X16047619Y-6897857D01*
X16000000Y-6945476D01*
X15952380Y-6897857D01*
X16047619Y-6897857D01*
X16285714Y-7374047D02*
X16952380Y-7374047D01*
X16380952Y-7374047D02*
X16333333Y-7421666D01*
X16285714Y-7516904D01*
X16285714Y-7659761D01*
X16333333Y-7755000D01*
X16428571Y-7802619D01*
X16952380Y-7802619D01*
X16952380Y-8278809D02*
X15952380Y-8278809D01*
X16571428Y-8374047D02*
X16952380Y-8659761D01*
X16285714Y-8659761D02*
X16666666Y-8278809D01*
X17047619Y-8850238D02*
X17047619Y-9612142D01*
X16428571Y-10183571D02*
X16476190Y-10326428D01*
X16523809Y-10374047D01*
X16619047Y-10421666D01*
X16761904Y-10421666D01*
X16857142Y-10374047D01*
X16904761Y-10326428D01*
X16952380Y-10231190D01*
X16952380Y-9850238D01*
X15952380Y-9850238D01*
X15952380Y-10183571D01*
X16000000Y-10278809D01*
X16047619Y-10326428D01*
X16142857Y-10374047D01*
X16238095Y-10374047D01*
X16333333Y-10326428D01*
X16380952Y-10278809D01*
X16428571Y-10183571D01*
X16428571Y-9850238D01*
X15952380Y-11040714D02*
X15952380Y-11231190D01*
X16000000Y-11326428D01*
X16095238Y-11421666D01*
X16285714Y-11469285D01*
X16619047Y-11469285D01*
X16809523Y-11421666D01*
X16904761Y-11326428D01*
X16952380Y-11231190D01*
X16952380Y-11040714D01*
X16904761Y-10945476D01*
X16809523Y-10850238D01*
X16619047Y-10802619D01*
X16285714Y-10802619D01*
X16095238Y-10850238D01*
X16000000Y-10945476D01*
X15952380Y-11040714D01*
X16428571Y-12231190D02*
X16476190Y-12374047D01*
X16523809Y-12421666D01*
X16619047Y-12469285D01*
X16761904Y-12469285D01*
X16857142Y-12421666D01*
X16904761Y-12374047D01*
X16952380Y-12278809D01*
X16952380Y-11897857D01*
X15952380Y-11897857D01*
X15952380Y-12231190D01*
X16000000Y-12326428D01*
X16047619Y-12374047D01*
X16142857Y-12421666D01*
X16238095Y-12421666D01*
X16333333Y-12374047D01*
X16380952Y-12326428D01*
X16428571Y-12231190D01*
X16428571Y-11897857D01*
X18952380Y-5976190D02*
X18476190Y-5642857D01*
X18952380Y-5404761D02*
X17952380Y-5404761D01*
X17952380Y-5785714D01*
X18000000Y-5880952D01*
X18047619Y-5928571D01*
X18142857Y-5976190D01*
X18285714Y-5976190D01*
X18380952Y-5928571D01*
X18428571Y-5880952D01*
X18476190Y-5785714D01*
X18476190Y-5404761D01*
X18904761Y-6785714D02*
X18952380Y-6690476D01*
X18952380Y-6500000D01*
X18904761Y-6404761D01*
X18809523Y-6357142D01*
X18428571Y-6357142D01*
X18333333Y-6404761D01*
X18285714Y-6500000D01*
X18285714Y-6690476D01*
X18333333Y-6785714D01*
X18428571Y-6833333D01*
X18523809Y-6833333D01*
X18619047Y-6357142D01*
X18285714Y-7166666D02*
X18952380Y-7404761D01*
X18285714Y-7642857D01*
X18857142Y-8023809D02*
X18904761Y-8071428D01*
X18952380Y-8023809D01*
X18904761Y-7976190D01*
X18857142Y-8023809D01*
X18952380Y-8023809D01*
X18666666Y-9214285D02*
X18666666Y-9690476D01*
X18952380Y-9119047D02*
X17952380Y-9452380D01*
X18952380Y-9785714D01*
X17952380Y-10309523D02*
X17952380Y-10404761D01*
X18000000Y-10500000D01*
X18047619Y-10547619D01*
X18142857Y-10595238D01*
X18333333Y-10642857D01*
X18571428Y-10642857D01*
X18761904Y-10595238D01*
X18857142Y-10547619D01*
X18904761Y-10500000D01*
X18952380Y-10404761D01*
X18952380Y-10309523D01*
X18904761Y-10214285D01*
X18857142Y-10166666D01*
X18761904Y-10119047D01*
X18571428Y-10071428D01*
X18333333Y-10071428D01*
X18142857Y-10119047D01*
X18047619Y-10166666D01*
X18000000Y-10214285D01*
X17952380Y-10309523D01*
M02*
