%TF.GenerationSoftware,KiCad,Pcbnew,6.0.11+dfsg-1~bpo11+1*%
%TF.CreationDate,2023-04-15T18:18:33-07:00*%
%TF.ProjectId,J-link_BOB,4a2d6c69-6e6b-45f4-924f-422e6b696361,A0*%
%TF.SameCoordinates,PX79b8e38PY4eb9cf0*%
%TF.FileFunction,Copper,L1,Top*%
%TF.FilePolarity,Positive*%
%FSLAX46Y46*%
G04 Gerber Fmt 4.6, Leading zero omitted, Abs format (unit mm)*
G04 Created by KiCad (PCBNEW 6.0.11+dfsg-1~bpo11+1) date 2023-04-15 18:18:33*
%MOMM*%
%LPD*%
G01*
G04 APERTURE LIST*
%TA.AperFunction,SMDPad,CuDef*%
%ADD10R,2.500000X0.650000*%
%TD*%
%TA.AperFunction,ComponentPad*%
%ADD11R,1.700000X1.700000*%
%TD*%
%TA.AperFunction,ComponentPad*%
%ADD12O,1.700000X1.700000*%
%TD*%
%TA.AperFunction,ViaPad*%
%ADD13C,0.800000*%
%TD*%
%TA.AperFunction,Conductor*%
%ADD14C,0.250000*%
%TD*%
%TA.AperFunction,Conductor*%
%ADD15C,0.508000*%
%TD*%
G04 APERTURE END LIST*
D10*
%TO.P,J13,1,Pin_1*%
%TO.N,unconnected-(J13-Pad1)*%
X1905000Y-9525000D03*
%TD*%
%TO.P,J19,1,Pin_1*%
%TO.N,GND*%
X1905000Y-13335000D03*
%TD*%
%TO.P,J17,1,Pin_1*%
%TO.N,GND*%
X1905000Y-12065000D03*
%TD*%
%TO.P,J15,1,Pin_1*%
%TO.N,GND*%
X1905000Y-10795000D03*
%TD*%
%TO.P,J9,1,Pin_1*%
%TO.N,GND*%
X1905000Y-6985000D03*
%TD*%
%TO.P,J3,1,Pin_1*%
%TO.N,GND*%
X1905000Y-3175000D03*
%TD*%
D11*
%TO.P,J30,1,Pin_1*%
%TO.N,/~{RESET}*%
X13335000Y-3175000D03*
D12*
%TO.P,J30,2,Pin_2*%
%TO.N,/VTARGET*%
X13335000Y-5715000D03*
%TO.P,J30,3,Pin_3*%
%TO.N,GND*%
X13335000Y-8255000D03*
%TO.P,J30,4,Pin_4*%
%TO.N,/SWDIO*%
X13335000Y-10795000D03*
%TO.P,J30,5,Pin_5*%
%TO.N,/SWCLK*%
X13335000Y-13335000D03*
%TD*%
D10*
%TO.P,J7,1,Pin_1*%
%TO.N,unconnected-(J7-Pad1)*%
X1905000Y-5715000D03*
%TD*%
%TO.P,J1,1,Pin_1*%
%TO.N,/VTARGET*%
X1905000Y-1905000D03*
%TD*%
%TO.P,J5,1,Pin_1*%
%TO.N,GND*%
X1905000Y-4445000D03*
%TD*%
%TO.P,J11,1,Pin_1*%
%TO.N,unconnected-(J11-Pad1)*%
X1905000Y-8255000D03*
%TD*%
D13*
%TO.N,GND*%
X18415000Y-4445000D03*
X11176000Y-1524000D03*
X5080000Y-15240000D03*
X11430000Y-6985000D03*
X9525000Y-8255000D03*
X8255000Y-3810000D03*
X18415000Y-12065000D03*
X8255000Y-10795000D03*
%TO.N,/~{RESET}*%
X5080000Y-7620000D03*
X10160000Y-5080000D03*
%TD*%
D14*
%TO.N,/VTARGET*%
X13335000Y-5715000D02*
X12700000Y-5715000D01*
D15*
X12700000Y-5715000D02*
X8890000Y-1905000D01*
X8890000Y-1905000D02*
X1905000Y-1905000D01*
%TO.N,GND*%
X9525000Y-8255000D02*
X13335000Y-8255000D01*
X1905000Y-10795000D02*
X6350000Y-10795000D01*
X8890000Y-8255000D02*
X9525000Y-8255000D01*
X6350000Y-10795000D02*
X8890000Y-8255000D01*
%TO.N,/~{RESET}*%
X7620000Y-7620000D02*
X5080000Y-7620000D01*
X10160000Y-5080000D02*
X7620000Y-7620000D01*
%TD*%
%TA.AperFunction,Conductor*%
%TO.N,/VTARGET*%
G36*
X12088827Y-4743805D02*
G01*
X12190950Y-4835868D01*
X12190958Y-4835874D01*
X12191225Y-4836115D01*
X12191527Y-4836324D01*
X12294898Y-4907953D01*
X12294901Y-4907955D01*
X12295281Y-4908218D01*
X12344782Y-4931940D01*
X12371469Y-4944729D01*
X12394919Y-4955967D01*
X12395420Y-4956104D01*
X12395422Y-4956105D01*
X12425148Y-4964251D01*
X12492315Y-4982658D01*
X12492825Y-4982705D01*
X12492826Y-4982705D01*
X12589217Y-4991546D01*
X12589220Y-4991546D01*
X12589645Y-4991585D01*
X12619579Y-4989916D01*
X12688784Y-4986059D01*
X12688790Y-4986058D01*
X12689083Y-4986042D01*
X12739852Y-4977859D01*
X12792628Y-4969352D01*
X12792643Y-4969349D01*
X12792805Y-4969323D01*
X12792971Y-4969286D01*
X12792981Y-4969284D01*
X12902961Y-4944729D01*
X12902959Y-4944729D01*
X12902988Y-4944723D01*
X13021777Y-4915543D01*
X13021879Y-4915519D01*
X13143391Y-4886950D01*
X13152229Y-4888392D01*
X13155908Y-4892009D01*
X13741403Y-5802275D01*
X13742997Y-5811087D01*
X13737892Y-5818444D01*
X13736758Y-5819087D01*
X13693914Y-5840319D01*
X12741662Y-6312223D01*
X12732729Y-6312826D01*
X12728016Y-6309830D01*
X12604119Y-6180387D01*
X12603746Y-6179978D01*
X12498066Y-6058556D01*
X12497719Y-6058139D01*
X12409339Y-5946552D01*
X12409078Y-5946209D01*
X12389107Y-5918989D01*
X12331333Y-5840243D01*
X12257649Y-5735794D01*
X12181566Y-5628946D01*
X12096490Y-5515600D01*
X12064191Y-5475830D01*
X11995908Y-5391754D01*
X11995895Y-5391739D01*
X11995827Y-5391655D01*
X11872984Y-5253014D01*
X11872880Y-5252906D01*
X11729331Y-5103846D01*
X11726060Y-5095510D01*
X11729485Y-5087457D01*
X12072720Y-4744222D01*
X12080993Y-4740795D01*
X12088827Y-4743805D01*
G37*
%TD.AperFunction*%
%TD*%
%TA.AperFunction,Conductor*%
%TO.N,/VTARGET*%
G36*
X2053752Y-1615467D02*
G01*
X2083590Y-1627956D01*
X2083595Y-1627958D01*
X2083875Y-1628075D01*
X2084162Y-1628160D01*
X2084170Y-1628163D01*
X2121807Y-1639331D01*
X2121813Y-1639332D01*
X2122081Y-1639412D01*
X2138873Y-1642656D01*
X2161767Y-1647080D01*
X2161776Y-1647081D01*
X2162002Y-1647125D01*
X2204359Y-1651824D01*
X2249873Y-1654121D01*
X2299263Y-1654629D01*
X2353250Y-1653959D01*
X2353258Y-1653959D01*
X2412524Y-1652724D01*
X2412555Y-1652723D01*
X2477800Y-1651534D01*
X2477927Y-1651532D01*
X2538214Y-1651087D01*
X2546512Y-1654453D01*
X2550000Y-1662787D01*
X2550000Y-2147213D01*
X2546573Y-2155486D01*
X2538213Y-2158913D01*
X2514618Y-2158738D01*
X2477926Y-2158467D01*
X2477800Y-2158465D01*
X2412555Y-2157276D01*
X2412524Y-2157275D01*
X2353258Y-2156040D01*
X2353250Y-2156040D01*
X2299263Y-2155370D01*
X2249873Y-2155878D01*
X2204359Y-2158175D01*
X2162002Y-2162874D01*
X2161776Y-2162918D01*
X2161767Y-2162919D01*
X2138873Y-2167343D01*
X2122081Y-2170587D01*
X2121813Y-2170667D01*
X2121807Y-2170668D01*
X2084168Y-2181837D01*
X2083875Y-2181924D01*
X2083598Y-2182040D01*
X2083595Y-2182041D01*
X2053752Y-2194533D01*
X2044797Y-2194566D01*
X2041126Y-2192174D01*
X1751269Y-1913433D01*
X1747681Y-1905229D01*
X1751269Y-1896567D01*
X2041125Y-1617827D01*
X2049464Y-1614562D01*
X2053752Y-1615467D01*
G37*
%TD.AperFunction*%
%TD*%
%TA.AperFunction,Conductor*%
%TO.N,/~{RESET}*%
G36*
X5261610Y-7263353D02*
G01*
X5312755Y-7286988D01*
X5312878Y-7287038D01*
X5312887Y-7287042D01*
X5366590Y-7308908D01*
X5366598Y-7308911D01*
X5366770Y-7308981D01*
X5389085Y-7316561D01*
X5418112Y-7326422D01*
X5418118Y-7326424D01*
X5418307Y-7326488D01*
X5469275Y-7340014D01*
X5521582Y-7350068D01*
X5521755Y-7350090D01*
X5521767Y-7350092D01*
X5562739Y-7355319D01*
X5577137Y-7357156D01*
X5637848Y-7361786D01*
X5637940Y-7361790D01*
X5637946Y-7361790D01*
X5705563Y-7364463D01*
X5705582Y-7364463D01*
X5705623Y-7364465D01*
X5741183Y-7365037D01*
X5782341Y-7365700D01*
X5782371Y-7365700D01*
X5858340Y-7365960D01*
X5866601Y-7369415D01*
X5870000Y-7377660D01*
X5870000Y-7862340D01*
X5866573Y-7870613D01*
X5858341Y-7874040D01*
X5782371Y-7874299D01*
X5782341Y-7874299D01*
X5741183Y-7874962D01*
X5705623Y-7875534D01*
X5705582Y-7875536D01*
X5705563Y-7875536D01*
X5637946Y-7878209D01*
X5637940Y-7878209D01*
X5637848Y-7878213D01*
X5577137Y-7882843D01*
X5562739Y-7884680D01*
X5521767Y-7889907D01*
X5521755Y-7889909D01*
X5521582Y-7889931D01*
X5469275Y-7899985D01*
X5418307Y-7913511D01*
X5418118Y-7913575D01*
X5418112Y-7913577D01*
X5389085Y-7923438D01*
X5366770Y-7931018D01*
X5366598Y-7931088D01*
X5366590Y-7931091D01*
X5312887Y-7952957D01*
X5312878Y-7952961D01*
X5312755Y-7953011D01*
X5261610Y-7976647D01*
X5252664Y-7977007D01*
X5248593Y-7974459D01*
X5185163Y-7913461D01*
X4888769Y-7628433D01*
X4885181Y-7620229D01*
X4888769Y-7611567D01*
X5145727Y-7364463D01*
X5248593Y-7265541D01*
X5256932Y-7262276D01*
X5261610Y-7263353D01*
G37*
%TD.AperFunction*%
%TD*%
%TA.AperFunction,Conductor*%
%TO.N,/~{RESET}*%
G36*
X10297595Y-4942082D02*
G01*
X10301183Y-4950744D01*
X10291426Y-5449854D01*
X10287838Y-5458058D01*
X10283767Y-5460606D01*
X10231029Y-5480006D01*
X10231021Y-5480009D01*
X10230891Y-5480057D01*
X10177145Y-5502699D01*
X10177016Y-5502763D01*
X10177004Y-5502768D01*
X10128490Y-5526680D01*
X10128324Y-5526762D01*
X10082720Y-5553238D01*
X10038624Y-5583115D01*
X10038488Y-5583220D01*
X10038480Y-5583226D01*
X9994449Y-5617293D01*
X9994329Y-5617386D01*
X9994217Y-5617482D01*
X9994200Y-5617496D01*
X9948227Y-5656954D01*
X9948126Y-5657041D01*
X9898308Y-5703071D01*
X9843166Y-5756466D01*
X9843115Y-5756517D01*
X9789265Y-5810001D01*
X9780980Y-5813400D01*
X9772747Y-5809973D01*
X9430027Y-5467253D01*
X9426600Y-5458980D01*
X9429999Y-5450735D01*
X9483482Y-5396884D01*
X9483533Y-5396833D01*
X9536928Y-5341691D01*
X9582958Y-5291873D01*
X9583045Y-5291772D01*
X9622503Y-5245799D01*
X9622517Y-5245782D01*
X9622613Y-5245670D01*
X9656884Y-5201375D01*
X9686761Y-5157279D01*
X9713237Y-5111675D01*
X9737300Y-5062854D01*
X9759942Y-5009108D01*
X9779394Y-4956232D01*
X9785467Y-4949651D01*
X9790146Y-4948574D01*
X10289256Y-4938817D01*
X10297595Y-4942082D01*
G37*
%TD.AperFunction*%
%TD*%
%TA.AperFunction,Conductor*%
%TO.N,GND*%
G36*
X19933621Y-528502D02*
G01*
X19980114Y-582158D01*
X19991500Y-634500D01*
X19991500Y-15865500D01*
X19971498Y-15933621D01*
X19917842Y-15980114D01*
X19865500Y-15991500D01*
X634500Y-15991500D01*
X566379Y-15971498D01*
X519886Y-15917842D01*
X508500Y-15865500D01*
X508500Y-14294000D01*
X528502Y-14225879D01*
X582158Y-14179386D01*
X634500Y-14168000D01*
X1632885Y-14168000D01*
X1648124Y-14163525D01*
X1649329Y-14162135D01*
X1651000Y-14154452D01*
X1651000Y-14149884D01*
X2159000Y-14149884D01*
X2163475Y-14165123D01*
X2164865Y-14166328D01*
X2172548Y-14167999D01*
X3199669Y-14167999D01*
X3206490Y-14167629D01*
X3257352Y-14162105D01*
X3272604Y-14158479D01*
X3393054Y-14113324D01*
X3408649Y-14104786D01*
X3510724Y-14028285D01*
X3523285Y-14015724D01*
X3599786Y-13913649D01*
X3608324Y-13898054D01*
X3653478Y-13777606D01*
X3657105Y-13762351D01*
X3662631Y-13711486D01*
X3663000Y-13704672D01*
X3663000Y-13607115D01*
X3658525Y-13591876D01*
X3657135Y-13590671D01*
X3649452Y-13589000D01*
X2177115Y-13589000D01*
X2161876Y-13593475D01*
X2160671Y-13594865D01*
X2159000Y-13602548D01*
X2159000Y-14149884D01*
X1651000Y-14149884D01*
X1651000Y-13301695D01*
X11972251Y-13301695D01*
X11972548Y-13306848D01*
X11972548Y-13306851D01*
X11978011Y-13401590D01*
X11985110Y-13524715D01*
X11986247Y-13529761D01*
X11986248Y-13529767D01*
X12000606Y-13593475D01*
X12034222Y-13742639D01*
X12118266Y-13949616D01*
X12234987Y-14140088D01*
X12381250Y-14308938D01*
X12553126Y-14451632D01*
X12746000Y-14564338D01*
X12954692Y-14644030D01*
X12959760Y-14645061D01*
X12959763Y-14645062D01*
X13067017Y-14666883D01*
X13173597Y-14688567D01*
X13178772Y-14688757D01*
X13178774Y-14688757D01*
X13391673Y-14696564D01*
X13391677Y-14696564D01*
X13396837Y-14696753D01*
X13401957Y-14696097D01*
X13401959Y-14696097D01*
X13613288Y-14669025D01*
X13613289Y-14669025D01*
X13618416Y-14668368D01*
X13623366Y-14666883D01*
X13827429Y-14605661D01*
X13827434Y-14605659D01*
X13832384Y-14604174D01*
X14032994Y-14505896D01*
X14214860Y-14376173D01*
X14373096Y-14218489D01*
X14409643Y-14167629D01*
X14500435Y-14041277D01*
X14503453Y-14037077D01*
X14507799Y-14028285D01*
X14600136Y-13841453D01*
X14600137Y-13841451D01*
X14602430Y-13836811D01*
X14667370Y-13623069D01*
X14696529Y-13401590D01*
X14698156Y-13335000D01*
X14679852Y-13112361D01*
X14625431Y-12895702D01*
X14536354Y-12690840D01*
X14415014Y-12503277D01*
X14264670Y-12338051D01*
X14260619Y-12334852D01*
X14260615Y-12334848D01*
X14093414Y-12202800D01*
X14093410Y-12202798D01*
X14089359Y-12199598D01*
X14048053Y-12176796D01*
X13998084Y-12126364D01*
X13983312Y-12056921D01*
X14008428Y-11990516D01*
X14035780Y-11963909D01*
X14079603Y-11932650D01*
X14214860Y-11836173D01*
X14373096Y-11678489D01*
X14432594Y-11595689D01*
X14500435Y-11501277D01*
X14503453Y-11497077D01*
X14602430Y-11296811D01*
X14667370Y-11083069D01*
X14696529Y-10861590D01*
X14698156Y-10795000D01*
X14679852Y-10572361D01*
X14625431Y-10355702D01*
X14536354Y-10150840D01*
X14415014Y-9963277D01*
X14264670Y-9798051D01*
X14260619Y-9794852D01*
X14260615Y-9794848D01*
X14093414Y-9662800D01*
X14093410Y-9662798D01*
X14089359Y-9659598D01*
X14047569Y-9636529D01*
X13997598Y-9586097D01*
X13982826Y-9516654D01*
X14007942Y-9450248D01*
X14035294Y-9423641D01*
X14210328Y-9298792D01*
X14218200Y-9292139D01*
X14369052Y-9141812D01*
X14375730Y-9133965D01*
X14500003Y-8961020D01*
X14505313Y-8952183D01*
X14599670Y-8761267D01*
X14603469Y-8751672D01*
X14665377Y-8547910D01*
X14667555Y-8537837D01*
X14668986Y-8526962D01*
X14666775Y-8512778D01*
X14653617Y-8509000D01*
X12018225Y-8509000D01*
X12004694Y-8512973D01*
X12003257Y-8522966D01*
X12033565Y-8657446D01*
X12036645Y-8667275D01*
X12116770Y-8864603D01*
X12121413Y-8873794D01*
X12232694Y-9055388D01*
X12238777Y-9063699D01*
X12378213Y-9224667D01*
X12385580Y-9231883D01*
X12549434Y-9367916D01*
X12557881Y-9373831D01*
X12626969Y-9414203D01*
X12675693Y-9465842D01*
X12688764Y-9535625D01*
X12662033Y-9601396D01*
X12621584Y-9634752D01*
X12608607Y-9641507D01*
X12604474Y-9644610D01*
X12604471Y-9644612D01*
X12580247Y-9662800D01*
X12429965Y-9775635D01*
X12275629Y-9937138D01*
X12149743Y-10121680D01*
X12055688Y-10324305D01*
X11995989Y-10539570D01*
X11972251Y-10761695D01*
X11972548Y-10766848D01*
X11972548Y-10766851D01*
X11978011Y-10861590D01*
X11985110Y-10984715D01*
X11986247Y-10989761D01*
X11986248Y-10989767D01*
X12000606Y-11053475D01*
X12034222Y-11202639D01*
X12118266Y-11409616D01*
X12234987Y-11600088D01*
X12381250Y-11768938D01*
X12553126Y-11911632D01*
X12623595Y-11952811D01*
X12626445Y-11954476D01*
X12675169Y-12006114D01*
X12688240Y-12075897D01*
X12661509Y-12141669D01*
X12621055Y-12175027D01*
X12608607Y-12181507D01*
X12604474Y-12184610D01*
X12604471Y-12184612D01*
X12580247Y-12202800D01*
X12429965Y-12315635D01*
X12275629Y-12477138D01*
X12149743Y-12661680D01*
X12055688Y-12864305D01*
X11995989Y-13079570D01*
X11972251Y-13301695D01*
X1651000Y-13301695D01*
X1651000Y-13062885D01*
X2159000Y-13062885D01*
X2163475Y-13078124D01*
X2164865Y-13079329D01*
X2172548Y-13081000D01*
X3644884Y-13081000D01*
X3660123Y-13076525D01*
X3661328Y-13075135D01*
X3662999Y-13067452D01*
X3662999Y-12965331D01*
X3662629Y-12958510D01*
X3657105Y-12907648D01*
X3653479Y-12892396D01*
X3608323Y-12771942D01*
X3602063Y-12760509D01*
X3586894Y-12691152D01*
X3602063Y-12639491D01*
X3608323Y-12628058D01*
X3653478Y-12507606D01*
X3657105Y-12492351D01*
X3662631Y-12441486D01*
X3663000Y-12434672D01*
X3663000Y-12337115D01*
X3658525Y-12321876D01*
X3657135Y-12320671D01*
X3649452Y-12319000D01*
X2177115Y-12319000D01*
X2161876Y-12323475D01*
X2160671Y-12324865D01*
X2159000Y-12332548D01*
X2159000Y-13062885D01*
X1651000Y-13062885D01*
X1651000Y-11792885D01*
X2159000Y-11792885D01*
X2163475Y-11808124D01*
X2164865Y-11809329D01*
X2172548Y-11811000D01*
X3644884Y-11811000D01*
X3660123Y-11806525D01*
X3661328Y-11805135D01*
X3662999Y-11797452D01*
X3662999Y-11695331D01*
X3662629Y-11688510D01*
X3657105Y-11637648D01*
X3653479Y-11622396D01*
X3608323Y-11501942D01*
X3602063Y-11490509D01*
X3586894Y-11421152D01*
X3602063Y-11369491D01*
X3608323Y-11358058D01*
X3653478Y-11237606D01*
X3657105Y-11222351D01*
X3662631Y-11171486D01*
X3663000Y-11164672D01*
X3663000Y-11067115D01*
X3658525Y-11051876D01*
X3657135Y-11050671D01*
X3649452Y-11049000D01*
X2177115Y-11049000D01*
X2161876Y-11053475D01*
X2160671Y-11054865D01*
X2159000Y-11062548D01*
X2159000Y-11792885D01*
X1651000Y-11792885D01*
X1651000Y-10667000D01*
X1671002Y-10598879D01*
X1724658Y-10552386D01*
X1777000Y-10541000D01*
X3644884Y-10541000D01*
X3660123Y-10536525D01*
X3661328Y-10535135D01*
X3662999Y-10527452D01*
X3662999Y-10425331D01*
X3662629Y-10418510D01*
X3657105Y-10367648D01*
X3653479Y-10352396D01*
X3608323Y-10231942D01*
X3602351Y-10221035D01*
X3587182Y-10151678D01*
X3601847Y-10101732D01*
X3605615Y-10096705D01*
X3656745Y-9960316D01*
X3663500Y-9898134D01*
X3663500Y-9151866D01*
X3656745Y-9089684D01*
X3605615Y-8953295D01*
X3602273Y-8948836D01*
X3587470Y-8881152D01*
X3602067Y-8831439D01*
X3605615Y-8826705D01*
X3656745Y-8690316D01*
X3663500Y-8628134D01*
X3663500Y-7881866D01*
X3656745Y-7819684D01*
X3605615Y-7683295D01*
X3602029Y-7678510D01*
X3587182Y-7610626D01*
X3602351Y-7558965D01*
X3608323Y-7548058D01*
X3653478Y-7427606D01*
X3657105Y-7412351D01*
X3662631Y-7361486D01*
X3663000Y-7354672D01*
X3663000Y-7257115D01*
X3658525Y-7241876D01*
X3657135Y-7240671D01*
X3649452Y-7239000D01*
X1777000Y-7239000D01*
X1708879Y-7218998D01*
X1662386Y-7165342D01*
X1651000Y-7113000D01*
X1651000Y-6857000D01*
X1671002Y-6788879D01*
X1724658Y-6742386D01*
X1777000Y-6731000D01*
X3644884Y-6731000D01*
X3660123Y-6726525D01*
X3661328Y-6725135D01*
X3662999Y-6717452D01*
X3662999Y-6615331D01*
X3662629Y-6608510D01*
X3657105Y-6557648D01*
X3653479Y-6542396D01*
X3608323Y-6421942D01*
X3602351Y-6411035D01*
X3587182Y-6341678D01*
X3601847Y-6291732D01*
X3605615Y-6286705D01*
X3613613Y-6265372D01*
X3653971Y-6157715D01*
X3656745Y-6150316D01*
X3663500Y-6088134D01*
X3663500Y-5341866D01*
X3656745Y-5279684D01*
X3639024Y-5232414D01*
X3608766Y-5151699D01*
X3608764Y-5151696D01*
X3605615Y-5143295D01*
X3602029Y-5138510D01*
X3587182Y-5070626D01*
X3602351Y-5018965D01*
X3608323Y-5008058D01*
X3653478Y-4887606D01*
X3657105Y-4872351D01*
X3662631Y-4821486D01*
X3663000Y-4814672D01*
X3663000Y-4717115D01*
X3658525Y-4701876D01*
X3657135Y-4700671D01*
X3649452Y-4699000D01*
X1777000Y-4699000D01*
X1708879Y-4678998D01*
X1662386Y-4625342D01*
X1651000Y-4573000D01*
X1651000Y-4172885D01*
X2159000Y-4172885D01*
X2163475Y-4188124D01*
X2164865Y-4189329D01*
X2172548Y-4191000D01*
X3644884Y-4191000D01*
X3660123Y-4186525D01*
X3661328Y-4185135D01*
X3662999Y-4177452D01*
X3662999Y-4075331D01*
X3662629Y-4068510D01*
X3657105Y-4017648D01*
X3653479Y-4002396D01*
X3608323Y-3881942D01*
X3602063Y-3870509D01*
X3586894Y-3801152D01*
X3602063Y-3749491D01*
X3608323Y-3738058D01*
X3653478Y-3617606D01*
X3657105Y-3602351D01*
X3662631Y-3551486D01*
X3663000Y-3544672D01*
X3663000Y-3447115D01*
X3658525Y-3431876D01*
X3657135Y-3430671D01*
X3649452Y-3429000D01*
X2177115Y-3429000D01*
X2161876Y-3433475D01*
X2160671Y-3434865D01*
X2159000Y-3442548D01*
X2159000Y-4172885D01*
X1651000Y-4172885D01*
X1651000Y-3047000D01*
X1671002Y-2978879D01*
X1724658Y-2932386D01*
X1777000Y-2921000D01*
X3644884Y-2921000D01*
X3660123Y-2916525D01*
X3661328Y-2915135D01*
X3662999Y-2907452D01*
X3662999Y-2805319D01*
X3662728Y-2800320D01*
X3679013Y-2731217D01*
X3730074Y-2681888D01*
X3788543Y-2667500D01*
X8521972Y-2667500D01*
X8590093Y-2687502D01*
X8611067Y-2704405D01*
X9914249Y-4007587D01*
X9948275Y-4069899D01*
X9943210Y-4140714D01*
X9900663Y-4197550D01*
X9876402Y-4211789D01*
X9709281Y-4286195D01*
X9709274Y-4286199D01*
X9703248Y-4288882D01*
X9548747Y-4401134D01*
X9420960Y-4543056D01*
X9395506Y-4587143D01*
X9330926Y-4699000D01*
X9325473Y-4708444D01*
X9313792Y-4744394D01*
X9304820Y-4765337D01*
X9297470Y-4778942D01*
X9295917Y-4783164D01*
X9295911Y-4783177D01*
X9283114Y-4817964D01*
X9280986Y-4823363D01*
X9271420Y-4846069D01*
X9268338Y-4852819D01*
X9262272Y-4865126D01*
X9258219Y-4872687D01*
X9253838Y-4880232D01*
X9249188Y-4887637D01*
X9243072Y-4896664D01*
X9238416Y-4903090D01*
X9226422Y-4918593D01*
X9222378Y-4923555D01*
X9200917Y-4948560D01*
X9197848Y-4952006D01*
X9164841Y-4987729D01*
X9162866Y-4989817D01*
X9127114Y-5026739D01*
X9117423Y-5036747D01*
X9116315Y-5037877D01*
X9065658Y-5088882D01*
X9029627Y-5129201D01*
X9027986Y-5131977D01*
X9017813Y-5143849D01*
X7341067Y-6820595D01*
X7278755Y-6854621D01*
X7251972Y-6857500D01*
X5903524Y-6857500D01*
X5885166Y-6856155D01*
X5860097Y-6852463D01*
X5788242Y-6852217D01*
X5786682Y-6852202D01*
X5721321Y-6851150D01*
X5718415Y-6851070D01*
X5694881Y-6850139D01*
X5669811Y-6849148D01*
X5665211Y-6848881D01*
X5632394Y-6846379D01*
X5626027Y-6845731D01*
X5606541Y-6843245D01*
X5598718Y-6841995D01*
X5588042Y-6839943D01*
X5579510Y-6837994D01*
X5571070Y-6835754D01*
X5562871Y-6833277D01*
X5549848Y-6828853D01*
X5542890Y-6826257D01*
X5520065Y-6816964D01*
X5514741Y-6814651D01*
X5479968Y-6798582D01*
X5477019Y-6797219D01*
X5433214Y-6782235D01*
X5422752Y-6778125D01*
X5368328Y-6753895D01*
X5368327Y-6753895D01*
X5362288Y-6751206D01*
X5320660Y-6742358D01*
X5181944Y-6712872D01*
X5181939Y-6712872D01*
X5175487Y-6711500D01*
X4984513Y-6711500D01*
X4978061Y-6712872D01*
X4978056Y-6712872D01*
X4913826Y-6726525D01*
X4797712Y-6751206D01*
X4791682Y-6753891D01*
X4791681Y-6753891D01*
X4629278Y-6826197D01*
X4629276Y-6826198D01*
X4623248Y-6828882D01*
X4617907Y-6832762D01*
X4617906Y-6832763D01*
X4592597Y-6851151D01*
X4468747Y-6941134D01*
X4464326Y-6946044D01*
X4464325Y-6946045D01*
X4359949Y-7061967D01*
X4340960Y-7083056D01*
X4328270Y-7105036D01*
X4250494Y-7239748D01*
X4245473Y-7248444D01*
X4186458Y-7430072D01*
X4166496Y-7620000D01*
X4167186Y-7626565D01*
X4183290Y-7779783D01*
X4186458Y-7809928D01*
X4245473Y-7991556D01*
X4248776Y-7997278D01*
X4248777Y-7997279D01*
X4282686Y-8056010D01*
X4340960Y-8156944D01*
X4468747Y-8298866D01*
X4562664Y-8367101D01*
X4591150Y-8387797D01*
X4623248Y-8411118D01*
X4629276Y-8413802D01*
X4629278Y-8413803D01*
X4791681Y-8486109D01*
X4797712Y-8488794D01*
X4891113Y-8508647D01*
X4978056Y-8527128D01*
X4978061Y-8527128D01*
X4984513Y-8528500D01*
X5175487Y-8528500D01*
X5181939Y-8527128D01*
X5181944Y-8527128D01*
X5268888Y-8508647D01*
X5362288Y-8488794D01*
X5435065Y-8456392D01*
X5450256Y-8450769D01*
X5477026Y-8442778D01*
X5481109Y-8440891D01*
X5481112Y-8440890D01*
X5491795Y-8435953D01*
X5514768Y-8425336D01*
X5520049Y-8423042D01*
X5542890Y-8413742D01*
X5549848Y-8411146D01*
X5562866Y-8406724D01*
X5571070Y-8404245D01*
X5579510Y-8402005D01*
X5588042Y-8400056D01*
X5598718Y-8398004D01*
X5606542Y-8396754D01*
X5626029Y-8394268D01*
X5632395Y-8393620D01*
X5665209Y-8391118D01*
X5669808Y-8390851D01*
X5693618Y-8389909D01*
X5718403Y-8388929D01*
X5721308Y-8388849D01*
X5786587Y-8387797D01*
X5788158Y-8387782D01*
X5805917Y-8387722D01*
X5858420Y-8387543D01*
X5858432Y-8387543D01*
X5860091Y-8387537D01*
X5914141Y-8384499D01*
X5917248Y-8383700D01*
X5932815Y-8382500D01*
X7552624Y-8382500D01*
X7571574Y-8383933D01*
X7585973Y-8386124D01*
X7585979Y-8386124D01*
X7593208Y-8387224D01*
X7600500Y-8386631D01*
X7600503Y-8386631D01*
X7646183Y-8382915D01*
X7656398Y-8382500D01*
X7664525Y-8382500D01*
X7668161Y-8382076D01*
X7668163Y-8382076D01*
X7671615Y-8381673D01*
X7692924Y-8379189D01*
X7697244Y-8378762D01*
X7770426Y-8372809D01*
X7777388Y-8370553D01*
X7783376Y-8369357D01*
X7789333Y-8367949D01*
X7796607Y-8367101D01*
X7803489Y-8364603D01*
X7803493Y-8364602D01*
X7865607Y-8342055D01*
X7869711Y-8340645D01*
X7939575Y-8318013D01*
X7945838Y-8314213D01*
X7951380Y-8311675D01*
X7956856Y-8308933D01*
X7963741Y-8306434D01*
X8025132Y-8266185D01*
X8028800Y-8263870D01*
X8091581Y-8225773D01*
X8095786Y-8222059D01*
X8095789Y-8222057D01*
X8100005Y-8218333D01*
X8100031Y-8218362D01*
X8102962Y-8215762D01*
X8106316Y-8212958D01*
X8112435Y-8208946D01*
X8165989Y-8152413D01*
X8168366Y-8149972D01*
X10116852Y-6201486D01*
X10130782Y-6189456D01*
X10147511Y-6177022D01*
X10147515Y-6177018D01*
X10151124Y-6174336D01*
X10154317Y-6171165D01*
X10154326Y-6171157D01*
X10202074Y-6123733D01*
X10203214Y-6122614D01*
X10250153Y-6077161D01*
X10252296Y-6075134D01*
X10287994Y-6042150D01*
X10291441Y-6039081D01*
X10316445Y-6017621D01*
X10321406Y-6013577D01*
X10336909Y-6001583D01*
X10343335Y-5996927D01*
X10352362Y-5990811D01*
X10359767Y-5986161D01*
X10367312Y-5981780D01*
X10374874Y-5977727D01*
X10387150Y-5971676D01*
X10393940Y-5968575D01*
X10397608Y-5967030D01*
X10416657Y-5959005D01*
X10422021Y-5956890D01*
X10461049Y-5942533D01*
X10479913Y-5933284D01*
X10505344Y-5920815D01*
X10509565Y-5918841D01*
X10610722Y-5873803D01*
X10610724Y-5873802D01*
X10616752Y-5871118D01*
X10771253Y-5758866D01*
X10800806Y-5726044D01*
X10894621Y-5621852D01*
X10894622Y-5621851D01*
X10899040Y-5616944D01*
X10957314Y-5516010D01*
X10991223Y-5457279D01*
X10991224Y-5457278D01*
X10994527Y-5451556D01*
X11020181Y-5372603D01*
X11060254Y-5313999D01*
X11125650Y-5286362D01*
X11195607Y-5298469D01*
X11229108Y-5322446D01*
X11333642Y-5426980D01*
X11346819Y-5442479D01*
X11359459Y-5460044D01*
X11362581Y-5463286D01*
X11362582Y-5463287D01*
X11493906Y-5599652D01*
X11497444Y-5603482D01*
X11602398Y-5721933D01*
X11605873Y-5726029D01*
X11632542Y-5758866D01*
X11690186Y-5829843D01*
X11693134Y-5833618D01*
X11766074Y-5930795D01*
X11767894Y-5933284D01*
X11838619Y-6032607D01*
X11838867Y-6032957D01*
X11911735Y-6136250D01*
X11917312Y-6144001D01*
X11995057Y-6249967D01*
X12000432Y-6257161D01*
X12000693Y-6257504D01*
X12006802Y-6265372D01*
X12095182Y-6376959D01*
X12103005Y-6386594D01*
X12103352Y-6387011D01*
X12110727Y-6395677D01*
X12216407Y-6517099D01*
X12224333Y-6525995D01*
X12224706Y-6526404D01*
X12233160Y-6535452D01*
X12245649Y-6548500D01*
X12354429Y-6662150D01*
X12354434Y-6662155D01*
X12357057Y-6664895D01*
X12359992Y-6667302D01*
X12359998Y-6667307D01*
X12360369Y-6667611D01*
X12361202Y-6668422D01*
X12362782Y-6669885D01*
X12362746Y-6669924D01*
X12375709Y-6682542D01*
X12377862Y-6685028D01*
X12377869Y-6685035D01*
X12381250Y-6688938D01*
X12491434Y-6780414D01*
X12546645Y-6826251D01*
X12553126Y-6831632D01*
X12597394Y-6857500D01*
X12626955Y-6874774D01*
X12675679Y-6926412D01*
X12688750Y-6996195D01*
X12662019Y-7061967D01*
X12621562Y-7095327D01*
X12613457Y-7099546D01*
X12604738Y-7105036D01*
X12434433Y-7232905D01*
X12426726Y-7239748D01*
X12279590Y-7393717D01*
X12273104Y-7401727D01*
X12153098Y-7577649D01*
X12148000Y-7586623D01*
X12058338Y-7779783D01*
X12054775Y-7789470D01*
X11999389Y-7989183D01*
X12000912Y-7997607D01*
X12013292Y-8001000D01*
X14653344Y-8001000D01*
X14666875Y-7997027D01*
X14668180Y-7987947D01*
X14626214Y-7820875D01*
X14622894Y-7811124D01*
X14537972Y-7615814D01*
X14533105Y-7606739D01*
X14417426Y-7427926D01*
X14411136Y-7419757D01*
X14267806Y-7262240D01*
X14260273Y-7255215D01*
X14093139Y-7123222D01*
X14084556Y-7117520D01*
X14047602Y-7097120D01*
X13997631Y-7046687D01*
X13982859Y-6977245D01*
X14007975Y-6910839D01*
X14035327Y-6884232D01*
X14073505Y-6857000D01*
X14214860Y-6756173D01*
X14219845Y-6751206D01*
X14369435Y-6602137D01*
X14373096Y-6598489D01*
X14413871Y-6541745D01*
X14500435Y-6421277D01*
X14503453Y-6417077D01*
X14510282Y-6403261D01*
X14600136Y-6221453D01*
X14600137Y-6221451D01*
X14602430Y-6216811D01*
X14644859Y-6077161D01*
X14665865Y-6008023D01*
X14665865Y-6008021D01*
X14667370Y-6003069D01*
X14696529Y-5781590D01*
X14696611Y-5778240D01*
X14698074Y-5718365D01*
X14698074Y-5718361D01*
X14698156Y-5715000D01*
X14679852Y-5492361D01*
X14625431Y-5275702D01*
X14536354Y-5070840D01*
X14458378Y-4950307D01*
X14417822Y-4887617D01*
X14417820Y-4887614D01*
X14415014Y-4883277D01*
X14387317Y-4852838D01*
X14267798Y-4721488D01*
X14236746Y-4657642D01*
X14245141Y-4587143D01*
X14290317Y-4532375D01*
X14316761Y-4518706D01*
X14423297Y-4478767D01*
X14431705Y-4475615D01*
X14548261Y-4388261D01*
X14635615Y-4271705D01*
X14686745Y-4135316D01*
X14693500Y-4073134D01*
X14693500Y-2276866D01*
X14686745Y-2214684D01*
X14635615Y-2078295D01*
X14548261Y-1961739D01*
X14431705Y-1874385D01*
X14295316Y-1823255D01*
X14233134Y-1816500D01*
X12436866Y-1816500D01*
X12374684Y-1823255D01*
X12238295Y-1874385D01*
X12121739Y-1961739D01*
X12034385Y-2078295D01*
X11983255Y-2214684D01*
X11976500Y-2276866D01*
X11976500Y-3608972D01*
X11956498Y-3677093D01*
X11902842Y-3723586D01*
X11832568Y-3733690D01*
X11767988Y-3704196D01*
X11761405Y-3698067D01*
X9476810Y-1413472D01*
X9464423Y-1399059D01*
X9455795Y-1387335D01*
X9451454Y-1381436D01*
X9410945Y-1347021D01*
X9403429Y-1340091D01*
X9397685Y-1334347D01*
X9394811Y-1332073D01*
X9394804Y-1332067D01*
X9375289Y-1316628D01*
X9371885Y-1313837D01*
X9321528Y-1271055D01*
X9321524Y-1271052D01*
X9315949Y-1266316D01*
X9309432Y-1262988D01*
X9304368Y-1259611D01*
X9299144Y-1256384D01*
X9293400Y-1251840D01*
X9267109Y-1239552D01*
X9226918Y-1220768D01*
X9222967Y-1218837D01*
X9164117Y-1188787D01*
X9157596Y-1185457D01*
X9150481Y-1183716D01*
X9144735Y-1181579D01*
X9138952Y-1179655D01*
X9132321Y-1176556D01*
X9060443Y-1161606D01*
X9056171Y-1160639D01*
X8984888Y-1143196D01*
X8979289Y-1142849D01*
X8979285Y-1142848D01*
X8973670Y-1142500D01*
X8973672Y-1142461D01*
X8969771Y-1142228D01*
X8965412Y-1141839D01*
X8958244Y-1140348D01*
X8950927Y-1140546D01*
X8880423Y-1142454D01*
X8877014Y-1142500D01*
X3455245Y-1142500D01*
X3401904Y-1128854D01*
X3401705Y-1129385D01*
X3396819Y-1127553D01*
X3396816Y-1127552D01*
X3265316Y-1078255D01*
X3203134Y-1071500D01*
X634500Y-1071500D01*
X566379Y-1051498D01*
X519886Y-997842D01*
X508500Y-945500D01*
X508500Y-634500D01*
X528502Y-566379D01*
X582158Y-519886D01*
X634500Y-508500D01*
X19865500Y-508500D01*
X19933621Y-528502D01*
G37*
%TD.AperFunction*%
%TD*%
M02*
