%TF.GenerationSoftware,KiCad,Pcbnew,6.0.11+dfsg-1~bpo11+1*%
%TF.CreationDate,2023-04-15T17:48:56-07:00*%
%TF.ProjectId,J-link_BOB,4a2d6c69-6e6b-45f4-924f-422e6b696361,A0*%
%TF.SameCoordinates,PX79b8e38PY4eb9cf0*%
%TF.FileFunction,Drillmap*%
%TF.FilePolarity,Positive*%
%FSLAX45Y45*%
G04 Gerber Fmt 4.5, Leading zero omitted, Abs format (unit mm)*
G04 Created by KiCad (PCBNEW 6.0.11+dfsg-1~bpo11+1) date 2023-04-15 17:48:56*
%MOMM*%
%LPD*%
G01*
G04 APERTURE LIST*
%ADD10C,0.200000*%
%ADD11C,0.040000*%
%ADD12C,0.100000*%
G04 APERTURE END LIST*
D10*
X0Y0D02*
X2050000Y0D01*
X2050000Y0D02*
X2050000Y-1650000D01*
X2050000Y-1650000D02*
X0Y-1650000D01*
X0Y-1650000D02*
X0Y0D01*
D11*
X488000Y-742000D02*
X528000Y-782000D01*
X528000Y-742000D02*
X488000Y-782000D01*
X488000Y-1504000D02*
X528000Y-1544000D01*
X528000Y-1504000D02*
X488000Y-1544000D01*
X805500Y-361000D02*
X845500Y-401000D01*
X845500Y-361000D02*
X805500Y-401000D01*
X805500Y-1059500D02*
X845500Y-1099500D01*
X845500Y-1059500D02*
X805500Y-1099500D01*
X932500Y-805500D02*
X972500Y-845500D01*
X972500Y-805500D02*
X932500Y-845500D01*
X996000Y-488000D02*
X1036000Y-528000D01*
X1036000Y-488000D02*
X996000Y-528000D01*
X1097600Y-132400D02*
X1137600Y-172400D01*
X1137600Y-132400D02*
X1097600Y-172400D01*
X1123000Y-678500D02*
X1163000Y-718500D01*
X1163000Y-678500D02*
X1123000Y-718500D01*
X1821500Y-424500D02*
X1861500Y-464500D01*
X1861500Y-424500D02*
X1821500Y-464500D01*
X1821500Y-1186500D02*
X1861500Y-1226500D01*
X1861500Y-1186500D02*
X1821500Y-1226500D01*
D12*
X1383500Y-317500D02*
G75*
G03*
X1383500Y-317500I-50000J0D01*
G01*
X1383500Y-571500D02*
G75*
G03*
X1383500Y-571500I-50000J0D01*
G01*
X1383500Y-825500D02*
G75*
G03*
X1383500Y-825500I-50000J0D01*
G01*
X1383500Y-1079500D02*
G75*
G03*
X1383500Y-1079500I-50000J0D01*
G01*
X1383500Y-1333500D02*
G75*
G03*
X1383500Y-1333500I-50000J0D01*
G01*
D10*
X247619Y-1970476D02*
X247619Y-1770476D01*
X295238Y-1770476D01*
X323810Y-1780000D01*
X342857Y-1799048D01*
X352381Y-1818095D01*
X361905Y-1856190D01*
X361905Y-1884762D01*
X352381Y-1922857D01*
X342857Y-1941905D01*
X323810Y-1960952D01*
X295238Y-1970476D01*
X247619Y-1970476D01*
X447619Y-1970476D02*
X447619Y-1837143D01*
X447619Y-1875238D02*
X457143Y-1856190D01*
X466667Y-1846667D01*
X485714Y-1837143D01*
X504762Y-1837143D01*
X571429Y-1970476D02*
X571429Y-1837143D01*
X571429Y-1770476D02*
X561905Y-1780000D01*
X571429Y-1789524D01*
X580952Y-1780000D01*
X571429Y-1770476D01*
X571429Y-1789524D01*
X695238Y-1970476D02*
X676190Y-1960952D01*
X666667Y-1941905D01*
X666667Y-1770476D01*
X800000Y-1970476D02*
X780952Y-1960952D01*
X771428Y-1941905D01*
X771428Y-1770476D01*
X1028571Y-1970476D02*
X1028571Y-1770476D01*
X1095238Y-1913333D01*
X1161905Y-1770476D01*
X1161905Y-1970476D01*
X1342857Y-1970476D02*
X1342857Y-1865714D01*
X1333333Y-1846667D01*
X1314286Y-1837143D01*
X1276190Y-1837143D01*
X1257143Y-1846667D01*
X1342857Y-1960952D02*
X1323810Y-1970476D01*
X1276190Y-1970476D01*
X1257143Y-1960952D01*
X1247619Y-1941905D01*
X1247619Y-1922857D01*
X1257143Y-1903809D01*
X1276190Y-1894286D01*
X1323810Y-1894286D01*
X1342857Y-1884762D01*
X1438095Y-1837143D02*
X1438095Y-2037143D01*
X1438095Y-1846667D02*
X1457143Y-1837143D01*
X1495238Y-1837143D01*
X1514286Y-1846667D01*
X1523809Y-1856190D01*
X1533333Y-1875238D01*
X1533333Y-1932381D01*
X1523809Y-1951428D01*
X1514286Y-1960952D01*
X1495238Y-1970476D01*
X1457143Y-1970476D01*
X1438095Y-1960952D01*
X1619048Y-1951428D02*
X1628571Y-1960952D01*
X1619048Y-1970476D01*
X1609524Y-1960952D01*
X1619048Y-1951428D01*
X1619048Y-1970476D01*
X1619048Y-1846667D02*
X1628571Y-1856190D01*
X1619048Y-1865714D01*
X1609524Y-1856190D01*
X1619048Y-1846667D01*
X1619048Y-1865714D01*
D11*
X-50000Y-2280000D02*
X-10000Y-2320000D01*
X-10000Y-2280000D02*
X-50000Y-2320000D01*
D10*
X285714Y-2190476D02*
X304762Y-2190476D01*
X323810Y-2200000D01*
X333333Y-2209524D01*
X342857Y-2228571D01*
X352381Y-2266667D01*
X352381Y-2314286D01*
X342857Y-2352381D01*
X333333Y-2371429D01*
X323810Y-2380952D01*
X304762Y-2390476D01*
X285714Y-2390476D01*
X266667Y-2380952D01*
X257143Y-2371429D01*
X247619Y-2352381D01*
X238095Y-2314286D01*
X238095Y-2266667D01*
X247619Y-2228571D01*
X257143Y-2209524D01*
X266667Y-2200000D01*
X285714Y-2190476D01*
X438095Y-2371429D02*
X447619Y-2380952D01*
X438095Y-2390476D01*
X428571Y-2380952D01*
X438095Y-2371429D01*
X438095Y-2390476D01*
X619048Y-2257143D02*
X619048Y-2390476D01*
X571429Y-2180952D02*
X523809Y-2323810D01*
X647619Y-2323810D01*
X761905Y-2190476D02*
X780952Y-2190476D01*
X800000Y-2200000D01*
X809524Y-2209524D01*
X819048Y-2228571D01*
X828571Y-2266667D01*
X828571Y-2314286D01*
X819048Y-2352381D01*
X809524Y-2371429D01*
X800000Y-2380952D01*
X780952Y-2390476D01*
X761905Y-2390476D01*
X742857Y-2380952D01*
X733333Y-2371429D01*
X723809Y-2352381D01*
X714286Y-2314286D01*
X714286Y-2266667D01*
X723809Y-2228571D01*
X733333Y-2209524D01*
X742857Y-2200000D01*
X761905Y-2190476D01*
X952381Y-2190476D02*
X971428Y-2190476D01*
X990476Y-2200000D01*
X1000000Y-2209524D01*
X1009524Y-2228571D01*
X1019048Y-2266667D01*
X1019048Y-2314286D01*
X1009524Y-2352381D01*
X1000000Y-2371429D01*
X990476Y-2380952D01*
X971428Y-2390476D01*
X952381Y-2390476D01*
X933333Y-2380952D01*
X923809Y-2371429D01*
X914286Y-2352381D01*
X904762Y-2314286D01*
X904762Y-2266667D01*
X914286Y-2228571D01*
X923809Y-2209524D01*
X933333Y-2200000D01*
X952381Y-2190476D01*
X1104762Y-2390476D02*
X1104762Y-2257143D01*
X1104762Y-2276190D02*
X1114286Y-2266667D01*
X1133333Y-2257143D01*
X1161905Y-2257143D01*
X1180952Y-2266667D01*
X1190476Y-2285714D01*
X1190476Y-2390476D01*
X1190476Y-2285714D02*
X1200000Y-2266667D01*
X1219048Y-2257143D01*
X1247619Y-2257143D01*
X1266667Y-2266667D01*
X1276190Y-2285714D01*
X1276190Y-2390476D01*
X1371429Y-2390476D02*
X1371429Y-2257143D01*
X1371429Y-2276190D02*
X1380952Y-2266667D01*
X1400000Y-2257143D01*
X1428571Y-2257143D01*
X1447619Y-2266667D01*
X1457143Y-2285714D01*
X1457143Y-2390476D01*
X1457143Y-2285714D02*
X1466667Y-2266667D01*
X1485714Y-2257143D01*
X1514286Y-2257143D01*
X1533333Y-2266667D01*
X1542857Y-2285714D01*
X1542857Y-2390476D01*
X1933333Y-2180952D02*
X1761905Y-2438095D01*
X2190476Y-2190476D02*
X2209524Y-2190476D01*
X2228571Y-2200000D01*
X2238095Y-2209524D01*
X2247619Y-2228571D01*
X2257143Y-2266667D01*
X2257143Y-2314286D01*
X2247619Y-2352381D01*
X2238095Y-2371429D01*
X2228571Y-2380952D01*
X2209524Y-2390476D01*
X2190476Y-2390476D01*
X2171429Y-2380952D01*
X2161905Y-2371429D01*
X2152381Y-2352381D01*
X2142857Y-2314286D01*
X2142857Y-2266667D01*
X2152381Y-2228571D01*
X2161905Y-2209524D01*
X2171429Y-2200000D01*
X2190476Y-2190476D01*
X2342857Y-2371429D02*
X2352381Y-2380952D01*
X2342857Y-2390476D01*
X2333333Y-2380952D01*
X2342857Y-2371429D01*
X2342857Y-2390476D01*
X2476190Y-2190476D02*
X2495238Y-2190476D01*
X2514286Y-2200000D01*
X2523810Y-2209524D01*
X2533333Y-2228571D01*
X2542857Y-2266667D01*
X2542857Y-2314286D01*
X2533333Y-2352381D01*
X2523810Y-2371429D01*
X2514286Y-2380952D01*
X2495238Y-2390476D01*
X2476190Y-2390476D01*
X2457143Y-2380952D01*
X2447619Y-2371429D01*
X2438095Y-2352381D01*
X2428571Y-2314286D01*
X2428571Y-2266667D01*
X2438095Y-2228571D01*
X2447619Y-2209524D01*
X2457143Y-2200000D01*
X2476190Y-2190476D01*
X2733333Y-2390476D02*
X2619048Y-2390476D01*
X2676190Y-2390476D02*
X2676190Y-2190476D01*
X2657143Y-2219048D01*
X2638095Y-2238095D01*
X2619048Y-2247619D01*
X2914286Y-2190476D02*
X2819048Y-2190476D01*
X2809524Y-2285714D01*
X2819048Y-2276190D01*
X2838095Y-2266667D01*
X2885714Y-2266667D01*
X2904762Y-2276190D01*
X2914286Y-2285714D01*
X2923809Y-2304762D01*
X2923809Y-2352381D01*
X2914286Y-2371429D01*
X2904762Y-2380952D01*
X2885714Y-2390476D01*
X2838095Y-2390476D01*
X2819048Y-2380952D01*
X2809524Y-2371429D01*
X2990476Y-2190476D02*
X3123809Y-2190476D01*
X3038095Y-2390476D01*
X3190476Y-2190476D02*
X3190476Y-2228571D01*
X3266667Y-2190476D02*
X3266667Y-2228571D01*
X3561905Y-2466667D02*
X3552381Y-2457143D01*
X3533333Y-2428571D01*
X3523809Y-2409524D01*
X3514286Y-2380952D01*
X3504762Y-2333333D01*
X3504762Y-2295238D01*
X3514286Y-2247619D01*
X3523809Y-2219048D01*
X3533333Y-2200000D01*
X3552381Y-2171429D01*
X3561905Y-2161905D01*
X3742857Y-2390476D02*
X3628571Y-2390476D01*
X3685714Y-2390476D02*
X3685714Y-2190476D01*
X3666667Y-2219048D01*
X3647619Y-2238095D01*
X3628571Y-2247619D01*
X3866667Y-2190476D02*
X3885714Y-2190476D01*
X3904762Y-2200000D01*
X3914286Y-2209524D01*
X3923809Y-2228571D01*
X3933333Y-2266667D01*
X3933333Y-2314286D01*
X3923809Y-2352381D01*
X3914286Y-2371429D01*
X3904762Y-2380952D01*
X3885714Y-2390476D01*
X3866667Y-2390476D01*
X3847619Y-2380952D01*
X3838095Y-2371429D01*
X3828571Y-2352381D01*
X3819048Y-2314286D01*
X3819048Y-2266667D01*
X3828571Y-2228571D01*
X3838095Y-2209524D01*
X3847619Y-2200000D01*
X3866667Y-2190476D01*
X4171428Y-2390476D02*
X4171428Y-2190476D01*
X4257143Y-2390476D02*
X4257143Y-2285714D01*
X4247619Y-2266667D01*
X4228571Y-2257143D01*
X4200000Y-2257143D01*
X4180952Y-2266667D01*
X4171428Y-2276190D01*
X4380952Y-2390476D02*
X4361905Y-2380952D01*
X4352381Y-2371429D01*
X4342857Y-2352381D01*
X4342857Y-2295238D01*
X4352381Y-2276190D01*
X4361905Y-2266667D01*
X4380952Y-2257143D01*
X4409524Y-2257143D01*
X4428571Y-2266667D01*
X4438095Y-2276190D01*
X4447619Y-2295238D01*
X4447619Y-2352381D01*
X4438095Y-2371429D01*
X4428571Y-2380952D01*
X4409524Y-2390476D01*
X4380952Y-2390476D01*
X4561905Y-2390476D02*
X4542857Y-2380952D01*
X4533333Y-2361905D01*
X4533333Y-2190476D01*
X4714286Y-2380952D02*
X4695238Y-2390476D01*
X4657143Y-2390476D01*
X4638095Y-2380952D01*
X4628571Y-2361905D01*
X4628571Y-2285714D01*
X4638095Y-2266667D01*
X4657143Y-2257143D01*
X4695238Y-2257143D01*
X4714286Y-2266667D01*
X4723810Y-2285714D01*
X4723810Y-2304762D01*
X4628571Y-2323810D01*
X4800000Y-2380952D02*
X4819048Y-2390476D01*
X4857143Y-2390476D01*
X4876190Y-2380952D01*
X4885714Y-2361905D01*
X4885714Y-2352381D01*
X4876190Y-2333333D01*
X4857143Y-2323810D01*
X4828571Y-2323810D01*
X4809524Y-2314286D01*
X4800000Y-2295238D01*
X4800000Y-2285714D01*
X4809524Y-2266667D01*
X4828571Y-2257143D01*
X4857143Y-2257143D01*
X4876190Y-2266667D01*
X4952381Y-2466667D02*
X4961905Y-2457143D01*
X4980952Y-2428571D01*
X4990476Y-2409524D01*
X5000000Y-2380952D01*
X5009524Y-2333333D01*
X5009524Y-2295238D01*
X5000000Y-2247619D01*
X4990476Y-2219048D01*
X4980952Y-2200000D01*
X4961905Y-2171429D01*
X4952381Y-2161905D01*
D12*
X-10000Y-2564000D02*
G75*
G03*
X-10000Y-2564000I-50000J0D01*
G01*
D10*
X352381Y-2654476D02*
X238095Y-2654476D01*
X295238Y-2654476D02*
X295238Y-2454476D01*
X276190Y-2483048D01*
X257143Y-2502095D01*
X238095Y-2511619D01*
X438095Y-2635429D02*
X447619Y-2644952D01*
X438095Y-2654476D01*
X428571Y-2644952D01*
X438095Y-2635429D01*
X438095Y-2654476D01*
X571429Y-2454476D02*
X590476Y-2454476D01*
X609524Y-2464000D01*
X619048Y-2473524D01*
X628571Y-2492571D01*
X638095Y-2530667D01*
X638095Y-2578286D01*
X628571Y-2616381D01*
X619048Y-2635429D01*
X609524Y-2644952D01*
X590476Y-2654476D01*
X571429Y-2654476D01*
X552381Y-2644952D01*
X542857Y-2635429D01*
X533333Y-2616381D01*
X523809Y-2578286D01*
X523809Y-2530667D01*
X533333Y-2492571D01*
X542857Y-2473524D01*
X552381Y-2464000D01*
X571429Y-2454476D01*
X761905Y-2454476D02*
X780952Y-2454476D01*
X800000Y-2464000D01*
X809524Y-2473524D01*
X819048Y-2492571D01*
X828571Y-2530667D01*
X828571Y-2578286D01*
X819048Y-2616381D01*
X809524Y-2635429D01*
X800000Y-2644952D01*
X780952Y-2654476D01*
X761905Y-2654476D01*
X742857Y-2644952D01*
X733333Y-2635429D01*
X723809Y-2616381D01*
X714286Y-2578286D01*
X714286Y-2530667D01*
X723809Y-2492571D01*
X733333Y-2473524D01*
X742857Y-2464000D01*
X761905Y-2454476D01*
X952381Y-2454476D02*
X971428Y-2454476D01*
X990476Y-2464000D01*
X1000000Y-2473524D01*
X1009524Y-2492571D01*
X1019048Y-2530667D01*
X1019048Y-2578286D01*
X1009524Y-2616381D01*
X1000000Y-2635429D01*
X990476Y-2644952D01*
X971428Y-2654476D01*
X952381Y-2654476D01*
X933333Y-2644952D01*
X923809Y-2635429D01*
X914286Y-2616381D01*
X904762Y-2578286D01*
X904762Y-2530667D01*
X914286Y-2492571D01*
X923809Y-2473524D01*
X933333Y-2464000D01*
X952381Y-2454476D01*
X1104762Y-2654476D02*
X1104762Y-2521143D01*
X1104762Y-2540190D02*
X1114286Y-2530667D01*
X1133333Y-2521143D01*
X1161905Y-2521143D01*
X1180952Y-2530667D01*
X1190476Y-2549714D01*
X1190476Y-2654476D01*
X1190476Y-2549714D02*
X1200000Y-2530667D01*
X1219048Y-2521143D01*
X1247619Y-2521143D01*
X1266667Y-2530667D01*
X1276190Y-2549714D01*
X1276190Y-2654476D01*
X1371429Y-2654476D02*
X1371429Y-2521143D01*
X1371429Y-2540190D02*
X1380952Y-2530667D01*
X1400000Y-2521143D01*
X1428571Y-2521143D01*
X1447619Y-2530667D01*
X1457143Y-2549714D01*
X1457143Y-2654476D01*
X1457143Y-2549714D02*
X1466667Y-2530667D01*
X1485714Y-2521143D01*
X1514286Y-2521143D01*
X1533333Y-2530667D01*
X1542857Y-2549714D01*
X1542857Y-2654476D01*
X1933333Y-2444952D02*
X1761905Y-2702095D01*
X2190476Y-2454476D02*
X2209524Y-2454476D01*
X2228571Y-2464000D01*
X2238095Y-2473524D01*
X2247619Y-2492571D01*
X2257143Y-2530667D01*
X2257143Y-2578286D01*
X2247619Y-2616381D01*
X2238095Y-2635429D01*
X2228571Y-2644952D01*
X2209524Y-2654476D01*
X2190476Y-2654476D01*
X2171429Y-2644952D01*
X2161905Y-2635429D01*
X2152381Y-2616381D01*
X2142857Y-2578286D01*
X2142857Y-2530667D01*
X2152381Y-2492571D01*
X2161905Y-2473524D01*
X2171429Y-2464000D01*
X2190476Y-2454476D01*
X2342857Y-2635429D02*
X2352381Y-2644952D01*
X2342857Y-2654476D01*
X2333333Y-2644952D01*
X2342857Y-2635429D01*
X2342857Y-2654476D01*
X2476190Y-2454476D02*
X2495238Y-2454476D01*
X2514286Y-2464000D01*
X2523810Y-2473524D01*
X2533333Y-2492571D01*
X2542857Y-2530667D01*
X2542857Y-2578286D01*
X2533333Y-2616381D01*
X2523810Y-2635429D01*
X2514286Y-2644952D01*
X2495238Y-2654476D01*
X2476190Y-2654476D01*
X2457143Y-2644952D01*
X2447619Y-2635429D01*
X2438095Y-2616381D01*
X2428571Y-2578286D01*
X2428571Y-2530667D01*
X2438095Y-2492571D01*
X2447619Y-2473524D01*
X2457143Y-2464000D01*
X2476190Y-2454476D01*
X2609524Y-2454476D02*
X2733333Y-2454476D01*
X2666667Y-2530667D01*
X2695238Y-2530667D01*
X2714286Y-2540190D01*
X2723810Y-2549714D01*
X2733333Y-2568762D01*
X2733333Y-2616381D01*
X2723810Y-2635429D01*
X2714286Y-2644952D01*
X2695238Y-2654476D01*
X2638095Y-2654476D01*
X2619048Y-2644952D01*
X2609524Y-2635429D01*
X2828571Y-2654476D02*
X2866667Y-2654476D01*
X2885714Y-2644952D01*
X2895238Y-2635429D01*
X2914286Y-2606857D01*
X2923809Y-2568762D01*
X2923809Y-2492571D01*
X2914286Y-2473524D01*
X2904762Y-2464000D01*
X2885714Y-2454476D01*
X2847619Y-2454476D01*
X2828571Y-2464000D01*
X2819048Y-2473524D01*
X2809524Y-2492571D01*
X2809524Y-2540190D01*
X2819048Y-2559238D01*
X2828571Y-2568762D01*
X2847619Y-2578286D01*
X2885714Y-2578286D01*
X2904762Y-2568762D01*
X2914286Y-2559238D01*
X2923809Y-2540190D01*
X3095238Y-2521143D02*
X3095238Y-2654476D01*
X3047619Y-2444952D02*
X3000000Y-2587810D01*
X3123809Y-2587810D01*
X3190476Y-2454476D02*
X3190476Y-2492571D01*
X3266667Y-2454476D02*
X3266667Y-2492571D01*
X3561905Y-2730667D02*
X3552381Y-2721143D01*
X3533333Y-2692571D01*
X3523809Y-2673524D01*
X3514286Y-2644952D01*
X3504762Y-2597333D01*
X3504762Y-2559238D01*
X3514286Y-2511619D01*
X3523809Y-2483048D01*
X3533333Y-2464000D01*
X3552381Y-2435429D01*
X3561905Y-2425905D01*
X3733333Y-2454476D02*
X3638095Y-2454476D01*
X3628571Y-2549714D01*
X3638095Y-2540190D01*
X3657143Y-2530667D01*
X3704762Y-2530667D01*
X3723809Y-2540190D01*
X3733333Y-2549714D01*
X3742857Y-2568762D01*
X3742857Y-2616381D01*
X3733333Y-2635429D01*
X3723809Y-2644952D01*
X3704762Y-2654476D01*
X3657143Y-2654476D01*
X3638095Y-2644952D01*
X3628571Y-2635429D01*
X3980952Y-2654476D02*
X3980952Y-2454476D01*
X4066667Y-2654476D02*
X4066667Y-2549714D01*
X4057143Y-2530667D01*
X4038095Y-2521143D01*
X4009524Y-2521143D01*
X3990476Y-2530667D01*
X3980952Y-2540190D01*
X4190476Y-2654476D02*
X4171428Y-2644952D01*
X4161905Y-2635429D01*
X4152381Y-2616381D01*
X4152381Y-2559238D01*
X4161905Y-2540190D01*
X4171428Y-2530667D01*
X4190476Y-2521143D01*
X4219048Y-2521143D01*
X4238095Y-2530667D01*
X4247619Y-2540190D01*
X4257143Y-2559238D01*
X4257143Y-2616381D01*
X4247619Y-2635429D01*
X4238095Y-2644952D01*
X4219048Y-2654476D01*
X4190476Y-2654476D01*
X4371429Y-2654476D02*
X4352381Y-2644952D01*
X4342857Y-2625905D01*
X4342857Y-2454476D01*
X4523810Y-2644952D02*
X4504762Y-2654476D01*
X4466667Y-2654476D01*
X4447619Y-2644952D01*
X4438095Y-2625905D01*
X4438095Y-2549714D01*
X4447619Y-2530667D01*
X4466667Y-2521143D01*
X4504762Y-2521143D01*
X4523810Y-2530667D01*
X4533333Y-2549714D01*
X4533333Y-2568762D01*
X4438095Y-2587810D01*
X4609524Y-2644952D02*
X4628571Y-2654476D01*
X4666667Y-2654476D01*
X4685714Y-2644952D01*
X4695238Y-2625905D01*
X4695238Y-2616381D01*
X4685714Y-2597333D01*
X4666667Y-2587810D01*
X4638095Y-2587810D01*
X4619048Y-2578286D01*
X4609524Y-2559238D01*
X4609524Y-2549714D01*
X4619048Y-2530667D01*
X4638095Y-2521143D01*
X4666667Y-2521143D01*
X4685714Y-2530667D01*
X4761905Y-2730667D02*
X4771429Y-2721143D01*
X4790476Y-2692571D01*
X4800000Y-2673524D01*
X4809524Y-2644952D01*
X4819048Y-2597333D01*
X4819048Y-2559238D01*
X4809524Y-2511619D01*
X4800000Y-2483048D01*
X4790476Y-2464000D01*
X4771429Y-2435429D01*
X4761905Y-2425905D01*
M02*
