M48
; DRILL file {KiCad 7.0.6} date Wed Nov 15 02:00:41 2023
; FORMAT={-:-/ absolute / inch / decimal}
; #@! TF.CreationDate,2023-11-15T02:00:41-08:00
; #@! TF.GenerationSoftware,Kicad,Pcbnew,7.0.6
; #@! TF.FileFunction,Plated,1,2,PTH
FMAT,2
INCH
; #@! TA.AperFunction,Plated,PTH,ComponentDrill
T1C0.0315
; #@! TA.AperFunction,Plated,PTH,ComponentDrill
T2C0.0354
; #@! TA.AperFunction,Plated,PTH,ComponentDrill
T3C0.0394
%
G90
G05
T1
X0.0787Y-0.1499
X0.0787Y-0.4499
X0.1787Y-0.1499
X0.1787Y-0.4499
X0.2787Y-0.1499
X0.2787Y-0.4499
X0.3787Y-0.1499
X0.3787Y-0.4499
X0.4787Y-0.1499
X0.4787Y-0.4499
X0.8787Y-0.1499
X0.8787Y-0.4499
X0.9787Y-0.1499
X0.9787Y-0.4499
X1.0787Y-0.1499
X1.0787Y-0.4499
X1.1787Y-0.1499
X1.1787Y-0.4499
X1.2787Y-0.1499
X1.2787Y-0.4499
T2
X0.6787Y-0.1499
X0.6787Y-0.2499
X0.6787Y-0.3499
X0.6787Y-0.4499
T3
X0.0787Y-0.6499
X0.0787Y-0.7499
X0.0787Y-0.8499
X0.0787Y-0.9499
T0
M30
