<?xml version="1.0" standalone="no"?>
 <!DOCTYPE svg PUBLIC "-//W3C//DTD SVG 1.1//EN" 
 "http://www.w3.org/Graphics/SVG/1.1/DTD/svg11.dtd"> 
<svg
  xmlns:svg="http://www.w3.org/2000/svg"
  xmlns="http://www.w3.org/2000/svg"
  xmlns:xlink="http://www.w3.org/1999/xlink"
  version="1.1"
  width="297.0022mm" height="210.0072mm" viewBox="0.0000 0.0000 297.0022 210.0072">
<title>SVG Image created as ch422_demo-PTH-drl_map.svg date 2023/11/15 02:00:43 </title>
  <desc>Image generated by PCBNEW </desc>
<g style="fill:#000000; fill-opacity:1.0000;stroke:#000000; stroke-opacity:1.0000;
stroke-linecap:round; stroke-linejoin:round;"
 transform="translate(0 0) scale(1 1)">
</g>
<g style="fill:#000000; fill-opacity:0.0; 
stroke:#000000; stroke-width:0.0000; stroke-opacity:1; 
stroke-linecap:round; stroke-linejoin:round;">
</g>
<g style="fill:#000000; fill-opacity:0.0; 
stroke:#000000; stroke-width:0.3000; stroke-opacity:1; 
stroke-linecap:round; stroke-linejoin:round;">
<path style="fill:#000000; fill-opacity:0.0; 
stroke:#000000; stroke-width:0.3000; stroke-opacity:1; 
stroke-linecap:round; stroke-linejoin:round;fill:none"
d="M 96.0011,24.0022
201.0011,24.0022
201.0011,102.0022
96.0011,102.0022
Z" /> 
</g>
<g style="fill:#000000; fill-opacity:0.0; 
stroke:#000000; stroke-width:0.6000; stroke-opacity:1; 
stroke-linecap:round; stroke-linejoin:round;">
</g>
<g style="fill:#000000; fill-opacity:0.0; 
stroke:#000000; stroke-width:0.2400; stroke-opacity:1; 
stroke-linecap:round; stroke-linejoin:round;">
<path d="M100.8011 34.2262
L103.2011 36.6262
" />
<path d="M103.2011 34.2262
L100.8011 36.6262
" />
<path d="M100.8011 57.0862
L103.2011 59.4862
" />
<path d="M103.2011 57.0862
L100.8011 59.4862
" />
<path d="M108.4211 34.2262
L110.8211 36.6262
" />
<path d="M110.8211 34.2262
L108.4211 36.6262
" />
<path d="M108.4211 57.0862
L110.8211 59.4862
" />
<path d="M110.8211 57.0862
L108.4211 59.4862
" />
<path d="M116.0411 34.2262
L118.4411 36.6262
" />
<path d="M118.4411 34.2262
L116.0411 36.6262
" />
<path d="M116.0411 57.0862
L118.4411 59.4862
" />
<path d="M118.4411 57.0862
L116.0411 59.4862
" />
<path d="M123.6611 34.2262
L126.0611 36.6262
" />
<path d="M126.0611 34.2262
L123.6611 36.6262
" />
<path d="M123.6611 57.0862
L126.0611 59.4862
" />
<path d="M126.0611 57.0862
L123.6611 59.4862
" />
<path d="M131.2811 34.2262
L133.6811 36.6262
" />
<path d="M133.6811 34.2262
L131.2811 36.6262
" />
<path d="M131.2811 57.0862
L133.6811 59.4862
" />
<path d="M133.6811 57.0862
L131.2811 59.4862
" />
<path d="M161.7611 34.2262
L164.1611 36.6262
" />
<path d="M164.1611 34.2262
L161.7611 36.6262
" />
<path d="M161.7611 57.0862
L164.1611 59.4862
" />
<path d="M164.1611 57.0862
L161.7611 59.4862
" />
<path d="M169.3811 34.2262
L171.7811 36.6262
" />
<path d="M171.7811 34.2262
L169.3811 36.6262
" />
<path d="M169.3811 57.0862
L171.7811 59.4862
" />
<path d="M171.7811 57.0862
L169.3811 59.4862
" />
<path d="M177.0011 34.2262
L179.4011 36.6262
" />
<path d="M179.4011 34.2262
L177.0011 36.6262
" />
<path d="M177.0011 57.0862
L179.4011 59.4862
" />
<path d="M179.4011 57.0862
L177.0011 59.4862
" />
<path d="M184.6211 34.2262
L187.0211 36.6262
" />
<path d="M187.0211 34.2262
L184.6211 36.6262
" />
<path d="M184.6211 57.0862
L187.0211 59.4862
" />
<path d="M187.0211 57.0862
L184.6211 59.4862
" />
<path d="M192.2411 34.2262
L194.6411 36.6262
" />
<path d="M194.6411 34.2262
L192.2411 36.6262
" />
<path d="M192.2411 57.0862
L194.6411 59.4862
" />
<path d="M194.6411 57.0862
L192.2411 59.4862
" />
</g>
<g style="fill:#000000; fill-opacity:0.0; 
stroke:#000000; stroke-width:0.2700; stroke-opacity:1; 
stroke-linecap:round; stroke-linejoin:round;">
<circle cx="147.7211" cy="35.4262" r="1.3500" /> 
<circle cx="147.7211" cy="43.0462" r="1.3500" /> 
<circle cx="147.7211" cy="50.6662" r="1.3500" /> 
<circle cx="147.7211" cy="58.2862" r="1.3500" /> 
</g>
<g style="fill:#000000; fill-opacity:0.0; 
stroke:#000000; stroke-width:0.3000; stroke-opacity:1; 
stroke-linecap:round; stroke-linejoin:round;">
<path d="M102.0011 72.0262
L102.0011 75.0262
" />
<path d="M100.5011 73.5262
L103.5011 73.5262
" />
<path d="M102.0011 79.6462
L102.0011 82.6462
" />
<path d="M100.5011 81.1462
L103.5011 81.1462
" />
<path d="M102.0011 87.2662
L102.0011 90.2662
" />
<path d="M100.5011 88.7662
L103.5011 88.7662
" />
<path d="M102.0011 94.8862
L102.0011 97.8862
" />
<path d="M100.5011 96.3862
L103.5011 96.3862
" />
</g>
<g style="fill:#000000; fill-opacity:0.0; 
stroke:#000000; stroke-width:0.6000; stroke-opacity:1; 
stroke-linecap:round; stroke-linejoin:round;">
</g>
<g style="fill:#000000; fill-opacity:0.0; 
stroke:#000000; stroke-width:0.2000; stroke-opacity:1; 
stroke-linecap:round; stroke-linejoin:round;">
<text x="97.8511" y="105.3522"
textLength="14.8667" font-size="2.6667" lengthAdjust="spacingAndGlyphs"
text-anchor="start" opacity="0">Drill Map:</text>
<g class="stroked-text"><desc>Drill Map:</desc>
<path d="M98.4589 105.2670
L98.4589 103.2670
" />
<path d="M98.4589 103.2670
L98.9351 103.2670
" />
<path d="M98.9351 103.2670
L99.2208 103.3622
" />
<path d="M99.2208 103.3622
L99.4112 103.5527
" />
<path d="M99.4112 103.5527
L99.5065 103.7432
" />
<path d="M99.5065 103.7432
L99.6017 104.1241
" />
<path d="M99.6017 104.1241
L99.6017 104.4099
" />
<path d="M99.6017 104.4099
L99.5065 104.7908
" />
<path d="M99.5065 104.7908
L99.4112 104.9813
" />
<path d="M99.4112 104.9813
L99.2208 105.1718
" />
<path d="M99.2208 105.1718
L98.9351 105.2670
" />
<path d="M98.9351 105.2670
L98.4589 105.2670
" />
<path d="M100.4589 105.2670
L100.4589 103.9337
" />
<path d="M100.4589 104.3146
L100.5541 104.1241
" />
<path d="M100.5541 104.1241
L100.6493 104.0289
" />
<path d="M100.6493 104.0289
L100.8398 103.9337
" />
<path d="M100.8398 103.9337
L101.0303 103.9337
" />
<path d="M101.6970 105.2670
L101.6970 103.9337
" />
<path d="M101.6970 103.2670
L101.6017 103.3622
" />
<path d="M101.6017 103.3622
L101.6970 103.4575
" />
<path d="M101.6970 103.4575
L101.7922 103.3622
" />
<path d="M101.7922 103.3622
L101.6970 103.2670
" />
<path d="M101.6970 103.2670
L101.6970 103.4575
" />
<path d="M102.9351 105.2670
L102.7446 105.1718
" />
<path d="M102.7446 105.1718
L102.6493 104.9813
" />
<path d="M102.6493 104.9813
L102.6493 103.2670
" />
<path d="M103.9827 105.2670
L103.7922 105.1718
" />
<path d="M103.7922 105.1718
L103.6970 104.9813
" />
<path d="M103.6970 104.9813
L103.6970 103.2670
" />
<path d="M106.2684 105.2670
L106.2684 103.2670
" />
<path d="M106.2684 103.2670
L106.9351 104.6956
" />
<path d="M106.9351 104.6956
L107.6017 103.2670
" />
<path d="M107.6017 103.2670
L107.6017 105.2670
" />
<path d="M109.4113 105.2670
L109.4113 104.2194
" />
<path d="M109.4113 104.2194
L109.3160 104.0289
" />
<path d="M109.3160 104.0289
L109.1255 103.9337
" />
<path d="M109.1255 103.9337
L108.7446 103.9337
" />
<path d="M108.7446 103.9337
L108.5541 104.0289
" />
<path d="M109.4113 105.1718
L109.2208 105.2670
" />
<path d="M109.2208 105.2670
L108.7446 105.2670
" />
<path d="M108.7446 105.2670
L108.5541 105.1718
" />
<path d="M108.5541 105.1718
L108.4589 104.9813
" />
<path d="M108.4589 104.9813
L108.4589 104.7908
" />
<path d="M108.4589 104.7908
L108.5541 104.6003
" />
<path d="M108.5541 104.6003
L108.7446 104.5051
" />
<path d="M108.7446 104.5051
L109.2208 104.5051
" />
<path d="M109.2208 104.5051
L109.4113 104.4099
" />
<path d="M110.3636 103.9337
L110.3636 105.9337
" />
<path d="M110.3636 104.0289
L110.5541 103.9337
" />
<path d="M110.5541 103.9337
L110.9351 103.9337
" />
<path d="M110.9351 103.9337
L111.1255 104.0289
" />
<path d="M111.1255 104.0289
L111.2208 104.1241
" />
<path d="M111.2208 104.1241
L111.3160 104.3146
" />
<path d="M111.3160 104.3146
L111.3160 104.8860
" />
<path d="M111.3160 104.8860
L111.2208 105.0765
" />
<path d="M111.2208 105.0765
L111.1255 105.1718
" />
<path d="M111.1255 105.1718
L110.9351 105.2670
" />
<path d="M110.9351 105.2670
L110.5541 105.2670
" />
<path d="M110.5541 105.2670
L110.3636 105.1718
" />
<path d="M112.1732 105.0765
L112.2684 105.1718
" />
<path d="M112.2684 105.1718
L112.1732 105.2670
" />
<path d="M112.1732 105.2670
L112.0779 105.1718
" />
<path d="M112.0779 105.1718
L112.1732 105.0765
" />
<path d="M112.1732 105.0765
L112.1732 105.2670
" />
<path d="M112.1732 104.0289
L112.2684 104.1241
" />
<path d="M112.2684 104.1241
L112.1732 104.2194
" />
<path d="M112.1732 104.2194
L112.0779 104.1241
" />
<path d="M112.0779 104.1241
L112.1732 104.0289
" />
<path d="M112.1732 104.0289
L112.1732 104.2194
" />
</g></g>
<g style="fill:#000000; fill-opacity:0.0; 
stroke:#000000; stroke-width:0.2000; stroke-opacity:1; 
stroke-linecap:round; stroke-linejoin:round;">
<path d="M93.8511 107.5522
L95.8511 109.5522
" />
<path d="M95.8511 107.5522
L93.8511 109.5522
" />
</g>
<g style="fill:#000000; fill-opacity:0.0; 
stroke:#000000; stroke-width:0.6000; stroke-opacity:1; 
stroke-linecap:round; stroke-linejoin:round;">
</g>
<g style="fill:#000000; fill-opacity:0.0; 
stroke:#000000; stroke-width:0.2000; stroke-opacity:1; 
stroke-linecap:round; stroke-linejoin:round;">
<text x="97.8511" y="109.5522"
textLength="48.7715" font-size="2.6667" lengthAdjust="spacingAndGlyphs"
text-anchor="start" opacity="0">0.800mm / 0.0315" (20 holes)</text>
<g class="stroked-text"><desc>0.800mm / 0.0315" (20 holes)</desc>
<path d="M98.8398 107.4670
L99.0303 107.4670
" />
<path d="M99.0303 107.4670
L99.2208 107.5622
" />
<path d="M99.2208 107.5622
L99.3160 107.6575
" />
<path d="M99.3160 107.6575
L99.4112 107.8480
" />
<path d="M99.4112 107.8480
L99.5065 108.2289
" />
<path d="M99.5065 108.2289
L99.5065 108.7051
" />
<path d="M99.5065 108.7051
L99.4112 109.0860
" />
<path d="M99.4112 109.0860
L99.3160 109.2765
" />
<path d="M99.3160 109.2765
L99.2208 109.3718
" />
<path d="M99.2208 109.3718
L99.0303 109.4670
" />
<path d="M99.0303 109.4670
L98.8398 109.4670
" />
<path d="M98.8398 109.4670
L98.6493 109.3718
" />
<path d="M98.6493 109.3718
L98.5541 109.2765
" />
<path d="M98.5541 109.2765
L98.4589 109.0860
" />
<path d="M98.4589 109.0860
L98.3636 108.7051
" />
<path d="M98.3636 108.7051
L98.3636 108.2289
" />
<path d="M98.3636 108.2289
L98.4589 107.8480
" />
<path d="M98.4589 107.8480
L98.5541 107.6575
" />
<path d="M98.5541 107.6575
L98.6493 107.5622
" />
<path d="M98.6493 107.5622
L98.8398 107.4670
" />
<path d="M100.3636 109.2765
L100.4589 109.3718
" />
<path d="M100.4589 109.3718
L100.3636 109.4670
" />
<path d="M100.3636 109.4670
L100.2684 109.3718
" />
<path d="M100.2684 109.3718
L100.3636 109.2765
" />
<path d="M100.3636 109.2765
L100.3636 109.4670
" />
<path d="M101.6017 108.3241
L101.4112 108.2289
" />
<path d="M101.4112 108.2289
L101.3160 108.1337
" />
<path d="M101.3160 108.1337
L101.2208 107.9432
" />
<path d="M101.2208 107.9432
L101.2208 107.8480
" />
<path d="M101.2208 107.8480
L101.3160 107.6575
" />
<path d="M101.3160 107.6575
L101.4112 107.5622
" />
<path d="M101.4112 107.5622
L101.6017 107.4670
" />
<path d="M101.6017 107.4670
L101.9827 107.4670
" />
<path d="M101.9827 107.4670
L102.1732 107.5622
" />
<path d="M102.1732 107.5622
L102.2684 107.6575
" />
<path d="M102.2684 107.6575
L102.3636 107.8480
" />
<path d="M102.3636 107.8480
L102.3636 107.9432
" />
<path d="M102.3636 107.9432
L102.2684 108.1337
" />
<path d="M102.2684 108.1337
L102.1732 108.2289
" />
<path d="M102.1732 108.2289
L101.9827 108.3241
" />
<path d="M101.9827 108.3241
L101.6017 108.3241
" />
<path d="M101.6017 108.3241
L101.4112 108.4194
" />
<path d="M101.4112 108.4194
L101.3160 108.5146
" />
<path d="M101.3160 108.5146
L101.2208 108.7051
" />
<path d="M101.2208 108.7051
L101.2208 109.0860
" />
<path d="M101.2208 109.0860
L101.3160 109.2765
" />
<path d="M101.3160 109.2765
L101.4112 109.3718
" />
<path d="M101.4112 109.3718
L101.6017 109.4670
" />
<path d="M101.6017 109.4670
L101.9827 109.4670
" />
<path d="M101.9827 109.4670
L102.1732 109.3718
" />
<path d="M102.1732 109.3718
L102.2684 109.2765
" />
<path d="M102.2684 109.2765
L102.3636 109.0860
" />
<path d="M102.3636 109.0860
L102.3636 108.7051
" />
<path d="M102.3636 108.7051
L102.2684 108.5146
" />
<path d="M102.2684 108.5146
L102.1732 108.4194
" />
<path d="M102.1732 108.4194
L101.9827 108.3241
" />
<path d="M103.6017 107.4670
L103.7922 107.4670
" />
<path d="M103.7922 107.4670
L103.9827 107.5622
" />
<path d="M103.9827 107.5622
L104.0779 107.6575
" />
<path d="M104.0779 107.6575
L104.1732 107.8480
" />
<path d="M104.1732 107.8480
L104.2684 108.2289
" />
<path d="M104.2684 108.2289
L104.2684 108.7051
" />
<path d="M104.2684 108.7051
L104.1732 109.0860
" />
<path d="M104.1732 109.0860
L104.0779 109.2765
" />
<path d="M104.0779 109.2765
L103.9827 109.3718
" />
<path d="M103.9827 109.3718
L103.7922 109.4670
" />
<path d="M103.7922 109.4670
L103.6017 109.4670
" />
<path d="M103.6017 109.4670
L103.4113 109.3718
" />
<path d="M103.4113 109.3718
L103.3160 109.2765
" />
<path d="M103.3160 109.2765
L103.2208 109.0860
" />
<path d="M103.2208 109.0860
L103.1255 108.7051
" />
<path d="M103.1255 108.7051
L103.1255 108.2289
" />
<path d="M103.1255 108.2289
L103.2208 107.8480
" />
<path d="M103.2208 107.8480
L103.3160 107.6575
" />
<path d="M103.3160 107.6575
L103.4113 107.5622
" />
<path d="M103.4113 107.5622
L103.6017 107.4670
" />
<path d="M105.5065 107.4670
L105.6970 107.4670
" />
<path d="M105.6970 107.4670
L105.8874 107.5622
" />
<path d="M105.8874 107.5622
L105.9827 107.6575
" />
<path d="M105.9827 107.6575
L106.0779 107.8480
" />
<path d="M106.0779 107.8480
L106.1732 108.2289
" />
<path d="M106.1732 108.2289
L106.1732 108.7051
" />
<path d="M106.1732 108.7051
L106.0779 109.0860
" />
<path d="M106.0779 109.0860
L105.9827 109.2765
" />
<path d="M105.9827 109.2765
L105.8874 109.3718
" />
<path d="M105.8874 109.3718
L105.6970 109.4670
" />
<path d="M105.6970 109.4670
L105.5065 109.4670
" />
<path d="M105.5065 109.4670
L105.3160 109.3718
" />
<path d="M105.3160 109.3718
L105.2208 109.2765
" />
<path d="M105.2208 109.2765
L105.1255 109.0860
" />
<path d="M105.1255 109.0860
L105.0303 108.7051
" />
<path d="M105.0303 108.7051
L105.0303 108.2289
" />
<path d="M105.0303 108.2289
L105.1255 107.8480
" />
<path d="M105.1255 107.8480
L105.2208 107.6575
" />
<path d="M105.2208 107.6575
L105.3160 107.5622
" />
<path d="M105.3160 107.5622
L105.5065 107.4670
" />
<path d="M107.0303 109.4670
L107.0303 108.1337
" />
<path d="M107.0303 108.3241
L107.1255 108.2289
" />
<path d="M107.1255 108.2289
L107.3160 108.1337
" />
<path d="M107.3160 108.1337
L107.6017 108.1337
" />
<path d="M107.6017 108.1337
L107.7922 108.2289
" />
<path d="M107.7922 108.2289
L107.8874 108.4194
" />
<path d="M107.8874 108.4194
L107.8874 109.4670
" />
<path d="M107.8874 108.4194
L107.9827 108.2289
" />
<path d="M107.9827 108.2289
L108.1732 108.1337
" />
<path d="M108.1732 108.1337
L108.4589 108.1337
" />
<path d="M108.4589 108.1337
L108.6493 108.2289
" />
<path d="M108.6493 108.2289
L108.7446 108.4194
" />
<path d="M108.7446 108.4194
L108.7446 109.4670
" />
<path d="M109.6970 109.4670
L109.6970 108.1337
" />
<path d="M109.6970 108.3241
L109.7922 108.2289
" />
<path d="M109.7922 108.2289
L109.9827 108.1337
" />
<path d="M109.9827 108.1337
L110.2684 108.1337
" />
<path d="M110.2684 108.1337
L110.4589 108.2289
" />
<path d="M110.4589 108.2289
L110.5541 108.4194
" />
<path d="M110.5541 108.4194
L110.5541 109.4670
" />
<path d="M110.5541 108.4194
L110.6493 108.2289
" />
<path d="M110.6493 108.2289
L110.8398 108.1337
" />
<path d="M110.8398 108.1337
L111.1255 108.1337
" />
<path d="M111.1255 108.1337
L111.3160 108.2289
" />
<path d="M111.3160 108.2289
L111.4113 108.4194
" />
<path d="M111.4113 108.4194
L111.4113 109.4670
" />
<path d="M115.3160 107.3718
L113.6017 109.9432
" />
<path d="M117.8874 107.4670
L118.0779 107.4670
" />
<path d="M118.0779 107.4670
L118.2684 107.5622
" />
<path d="M118.2684 107.5622
L118.3636 107.6575
" />
<path d="M118.3636 107.6575
L118.4589 107.8480
" />
<path d="M118.4589 107.8480
L118.5541 108.2289
" />
<path d="M118.5541 108.2289
L118.5541 108.7051
" />
<path d="M118.5541 108.7051
L118.4589 109.0860
" />
<path d="M118.4589 109.0860
L118.3636 109.2765
" />
<path d="M118.3636 109.2765
L118.2684 109.3718
" />
<path d="M118.2684 109.3718
L118.0779 109.4670
" />
<path d="M118.0779 109.4670
L117.8874 109.4670
" />
<path d="M117.8874 109.4670
L117.6970 109.3718
" />
<path d="M117.6970 109.3718
L117.6017 109.2765
" />
<path d="M117.6017 109.2765
L117.5065 109.0860
" />
<path d="M117.5065 109.0860
L117.4113 108.7051
" />
<path d="M117.4113 108.7051
L117.4113 108.2289
" />
<path d="M117.4113 108.2289
L117.5065 107.8480
" />
<path d="M117.5065 107.8480
L117.6017 107.6575
" />
<path d="M117.6017 107.6575
L117.6970 107.5622
" />
<path d="M117.6970 107.5622
L117.8874 107.4670
" />
<path d="M119.4113 109.2765
L119.5065 109.3718
" />
<path d="M119.5065 109.3718
L119.4113 109.4670
" />
<path d="M119.4113 109.4670
L119.3160 109.3718
" />
<path d="M119.3160 109.3718
L119.4113 109.2765
" />
<path d="M119.4113 109.2765
L119.4113 109.4670
" />
<path d="M120.7446 107.4670
L120.9351 107.4670
" />
<path d="M120.9351 107.4670
L121.1255 107.5622
" />
<path d="M121.1255 107.5622
L121.2208 107.6575
" />
<path d="M121.2208 107.6575
L121.3160 107.8480
" />
<path d="M121.3160 107.8480
L121.4113 108.2289
" />
<path d="M121.4113 108.2289
L121.4113 108.7051
" />
<path d="M121.4113 108.7051
L121.3160 109.0860
" />
<path d="M121.3160 109.0860
L121.2208 109.2765
" />
<path d="M121.2208 109.2765
L121.1255 109.3718
" />
<path d="M121.1255 109.3718
L120.9351 109.4670
" />
<path d="M120.9351 109.4670
L120.7446 109.4670
" />
<path d="M120.7446 109.4670
L120.5541 109.3718
" />
<path d="M120.5541 109.3718
L120.4589 109.2765
" />
<path d="M120.4589 109.2765
L120.3636 109.0860
" />
<path d="M120.3636 109.0860
L120.2684 108.7051
" />
<path d="M120.2684 108.7051
L120.2684 108.2289
" />
<path d="M120.2684 108.2289
L120.3636 107.8480
" />
<path d="M120.3636 107.8480
L120.4589 107.6575
" />
<path d="M120.4589 107.6575
L120.5541 107.5622
" />
<path d="M120.5541 107.5622
L120.7446 107.4670
" />
<path d="M122.0779 107.4670
L123.3160 107.4670
" />
<path d="M123.3160 107.4670
L122.6494 108.2289
" />
<path d="M122.6494 108.2289
L122.9351 108.2289
" />
<path d="M122.9351 108.2289
L123.1255 108.3241
" />
<path d="M123.1255 108.3241
L123.2208 108.4194
" />
<path d="M123.2208 108.4194
L123.3160 108.6099
" />
<path d="M123.3160 108.6099
L123.3160 109.0860
" />
<path d="M123.3160 109.0860
L123.2208 109.2765
" />
<path d="M123.2208 109.2765
L123.1255 109.3718
" />
<path d="M123.1255 109.3718
L122.9351 109.4670
" />
<path d="M122.9351 109.4670
L122.3636 109.4670
" />
<path d="M122.3636 109.4670
L122.1732 109.3718
" />
<path d="M122.1732 109.3718
L122.0779 109.2765
" />
<path d="M125.2208 109.4670
L124.0779 109.4670
" />
<path d="M124.6494 109.4670
L124.6494 107.4670
" />
<path d="M124.6494 107.4670
L124.4589 107.7527
" />
<path d="M124.4589 107.7527
L124.2684 107.9432
" />
<path d="M124.2684 107.9432
L124.0779 108.0384
" />
<path d="M127.0303 107.4670
L126.0779 107.4670
" />
<path d="M126.0779 107.4670
L125.9827 108.4194
" />
<path d="M125.9827 108.4194
L126.0779 108.3241
" />
<path d="M126.0779 108.3241
L126.2684 108.2289
" />
<path d="M126.2684 108.2289
L126.7446 108.2289
" />
<path d="M126.7446 108.2289
L126.9351 108.3241
" />
<path d="M126.9351 108.3241
L127.0303 108.4194
" />
<path d="M127.0303 108.4194
L127.1255 108.6099
" />
<path d="M127.1255 108.6099
L127.1255 109.0860
" />
<path d="M127.1255 109.0860
L127.0303 109.2765
" />
<path d="M127.0303 109.2765
L126.9351 109.3718
" />
<path d="M126.9351 109.3718
L126.7446 109.4670
" />
<path d="M126.7446 109.4670
L126.2684 109.4670
" />
<path d="M126.2684 109.4670
L126.0779 109.3718
" />
<path d="M126.0779 109.3718
L125.9827 109.2765
" />
<path d="M127.8875 107.4670
L127.8875 107.8480
" />
<path d="M128.6494 107.4670
L128.6494 107.8480
" />
<path d="M131.6017 110.2289
L131.5065 110.1337
" />
<path d="M131.5065 110.1337
L131.3160 109.8480
" />
<path d="M131.3160 109.8480
L131.2208 109.6575
" />
<path d="M131.2208 109.6575
L131.1256 109.3718
" />
<path d="M131.1256 109.3718
L131.0303 108.8956
" />
<path d="M131.0303 108.8956
L131.0303 108.5146
" />
<path d="M131.0303 108.5146
L131.1256 108.0384
" />
<path d="M131.1256 108.0384
L131.2208 107.7527
" />
<path d="M131.2208 107.7527
L131.3160 107.5622
" />
<path d="M131.3160 107.5622
L131.5065 107.2765
" />
<path d="M131.5065 107.2765
L131.6017 107.1813
" />
<path d="M132.2684 107.6575
L132.3636 107.5622
" />
<path d="M132.3636 107.5622
L132.5541 107.4670
" />
<path d="M132.5541 107.4670
L133.0303 107.4670
" />
<path d="M133.0303 107.4670
L133.2208 107.5622
" />
<path d="M133.2208 107.5622
L133.3160 107.6575
" />
<path d="M133.3160 107.6575
L133.4113 107.8480
" />
<path d="M133.4113 107.8480
L133.4113 108.0384
" />
<path d="M133.4113 108.0384
L133.3160 108.3241
" />
<path d="M133.3160 108.3241
L132.1732 109.4670
" />
<path d="M132.1732 109.4670
L133.4113 109.4670
" />
<path d="M134.6494 107.4670
L134.8398 107.4670
" />
<path d="M134.8398 107.4670
L135.0303 107.5622
" />
<path d="M135.0303 107.5622
L135.1256 107.6575
" />
<path d="M135.1256 107.6575
L135.2208 107.8480
" />
<path d="M135.2208 107.8480
L135.3160 108.2289
" />
<path d="M135.3160 108.2289
L135.3160 108.7051
" />
<path d="M135.3160 108.7051
L135.2208 109.0860
" />
<path d="M135.2208 109.0860
L135.1256 109.2765
" />
<path d="M135.1256 109.2765
L135.0303 109.3718
" />
<path d="M135.0303 109.3718
L134.8398 109.4670
" />
<path d="M134.8398 109.4670
L134.6494 109.4670
" />
<path d="M134.6494 109.4670
L134.4589 109.3718
" />
<path d="M134.4589 109.3718
L134.3636 109.2765
" />
<path d="M134.3636 109.2765
L134.2684 109.0860
" />
<path d="M134.2684 109.0860
L134.1732 108.7051
" />
<path d="M134.1732 108.7051
L134.1732 108.2289
" />
<path d="M134.1732 108.2289
L134.2684 107.8480
" />
<path d="M134.2684 107.8480
L134.3636 107.6575
" />
<path d="M134.3636 107.6575
L134.4589 107.5622
" />
<path d="M134.4589 107.5622
L134.6494 107.4670
" />
<path d="M137.6970 109.4670
L137.6970 107.4670
" />
<path d="M138.5541 109.4670
L138.5541 108.4194
" />
<path d="M138.5541 108.4194
L138.4589 108.2289
" />
<path d="M138.4589 108.2289
L138.2684 108.1337
" />
<path d="M138.2684 108.1337
L137.9827 108.1337
" />
<path d="M137.9827 108.1337
L137.7922 108.2289
" />
<path d="M137.7922 108.2289
L137.6970 108.3241
" />
<path d="M139.7922 109.4670
L139.6017 109.3718
" />
<path d="M139.6017 109.3718
L139.5065 109.2765
" />
<path d="M139.5065 109.2765
L139.4113 109.0860
" />
<path d="M139.4113 109.0860
L139.4113 108.5146
" />
<path d="M139.4113 108.5146
L139.5065 108.3241
" />
<path d="M139.5065 108.3241
L139.6017 108.2289
" />
<path d="M139.6017 108.2289
L139.7922 108.1337
" />
<path d="M139.7922 108.1337
L140.0779 108.1337
" />
<path d="M140.0779 108.1337
L140.2684 108.2289
" />
<path d="M140.2684 108.2289
L140.3637 108.3241
" />
<path d="M140.3637 108.3241
L140.4589 108.5146
" />
<path d="M140.4589 108.5146
L140.4589 109.0860
" />
<path d="M140.4589 109.0860
L140.3637 109.2765
" />
<path d="M140.3637 109.2765
L140.2684 109.3718
" />
<path d="M140.2684 109.3718
L140.0779 109.4670
" />
<path d="M140.0779 109.4670
L139.7922 109.4670
" />
<path d="M141.6017 109.4670
L141.4113 109.3718
" />
<path d="M141.4113 109.3718
L141.3160 109.1813
" />
<path d="M141.3160 109.1813
L141.3160 107.4670
" />
<path d="M143.1256 109.3718
L142.9351 109.4670
" />
<path d="M142.9351 109.4670
L142.5541 109.4670
" />
<path d="M142.5541 109.4670
L142.3637 109.3718
" />
<path d="M142.3637 109.3718
L142.2684 109.1813
" />
<path d="M142.2684 109.1813
L142.2684 108.4194
" />
<path d="M142.2684 108.4194
L142.3637 108.2289
" />
<path d="M142.3637 108.2289
L142.5541 108.1337
" />
<path d="M142.5541 108.1337
L142.9351 108.1337
" />
<path d="M142.9351 108.1337
L143.1256 108.2289
" />
<path d="M143.1256 108.2289
L143.2208 108.4194
" />
<path d="M143.2208 108.4194
L143.2208 108.6099
" />
<path d="M143.2208 108.6099
L142.2684 108.8003
" />
<path d="M143.9827 109.3718
L144.1732 109.4670
" />
<path d="M144.1732 109.4670
L144.5541 109.4670
" />
<path d="M144.5541 109.4670
L144.7446 109.3718
" />
<path d="M144.7446 109.3718
L144.8398 109.1813
" />
<path d="M144.8398 109.1813
L144.8398 109.0860
" />
<path d="M144.8398 109.0860
L144.7446 108.8956
" />
<path d="M144.7446 108.8956
L144.5541 108.8003
" />
<path d="M144.5541 108.8003
L144.2684 108.8003
" />
<path d="M144.2684 108.8003
L144.0779 108.7051
" />
<path d="M144.0779 108.7051
L143.9827 108.5146
" />
<path d="M143.9827 108.5146
L143.9827 108.4194
" />
<path d="M143.9827 108.4194
L144.0779 108.2289
" />
<path d="M144.0779 108.2289
L144.2684 108.1337
" />
<path d="M144.2684 108.1337
L144.5541 108.1337
" />
<path d="M144.5541 108.1337
L144.7446 108.2289
" />
<path d="M145.5065 110.2289
L145.6018 110.1337
" />
<path d="M145.6018 110.1337
L145.7922 109.8480
" />
<path d="M145.7922 109.8480
L145.8875 109.6575
" />
<path d="M145.8875 109.6575
L145.9827 109.3718
" />
<path d="M145.9827 109.3718
L146.0779 108.8956
" />
<path d="M146.0779 108.8956
L146.0779 108.5146
" />
<path d="M146.0779 108.5146
L145.9827 108.0384
" />
<path d="M145.9827 108.0384
L145.8875 107.7527
" />
<path d="M145.8875 107.7527
L145.7922 107.5622
" />
<path d="M145.7922 107.5622
L145.6018 107.2765
" />
<path d="M145.6018 107.2765
L145.5065 107.1813
" />
</g></g>
<g style="fill:#000000; fill-opacity:0.0; 
stroke:#000000; stroke-width:0.2000; stroke-opacity:1; 
stroke-linecap:round; stroke-linejoin:round;">
<circle cx="94.8511" cy="111.7522" r="1.0000" /> 
</g>
<g style="fill:#000000; fill-opacity:0.0; 
stroke:#000000; stroke-width:0.6000; stroke-opacity:1; 
stroke-linecap:round; stroke-linejoin:round;">
</g>
<g style="fill:#000000; fill-opacity:0.0; 
stroke:#000000; stroke-width:0.2000; stroke-opacity:1; 
stroke-linecap:round; stroke-linejoin:round;">
<text x="97.8511" y="112.7522"
textLength="46.8667" font-size="2.6667" lengthAdjust="spacingAndGlyphs"
text-anchor="start" opacity="0">0.900mm / 0.0354" (4 holes)</text>
<g class="stroked-text"><desc>0.900mm / 0.0354" (4 holes)</desc>
<path d="M98.8398 110.6670
L99.0303 110.6670
" />
<path d="M99.0303 110.6670
L99.2208 110.7622
" />
<path d="M99.2208 110.7622
L99.3160 110.8575
" />
<path d="M99.3160 110.8575
L99.4112 111.0480
" />
<path d="M99.4112 111.0480
L99.5065 111.4289
" />
<path d="M99.5065 111.4289
L99.5065 111.9051
" />
<path d="M99.5065 111.9051
L99.4112 112.2860
" />
<path d="M99.4112 112.2860
L99.3160 112.4765
" />
<path d="M99.3160 112.4765
L99.2208 112.5718
" />
<path d="M99.2208 112.5718
L99.0303 112.6670
" />
<path d="M99.0303 112.6670
L98.8398 112.6670
" />
<path d="M98.8398 112.6670
L98.6493 112.5718
" />
<path d="M98.6493 112.5718
L98.5541 112.4765
" />
<path d="M98.5541 112.4765
L98.4589 112.2860
" />
<path d="M98.4589 112.2860
L98.3636 111.9051
" />
<path d="M98.3636 111.9051
L98.3636 111.4289
" />
<path d="M98.3636 111.4289
L98.4589 111.0480
" />
<path d="M98.4589 111.0480
L98.5541 110.8575
" />
<path d="M98.5541 110.8575
L98.6493 110.7622
" />
<path d="M98.6493 110.7622
L98.8398 110.6670
" />
<path d="M100.3636 112.4765
L100.4589 112.5718
" />
<path d="M100.4589 112.5718
L100.3636 112.6670
" />
<path d="M100.3636 112.6670
L100.2684 112.5718
" />
<path d="M100.2684 112.5718
L100.3636 112.4765
" />
<path d="M100.3636 112.4765
L100.3636 112.6670
" />
<path d="M101.4112 112.6670
L101.7922 112.6670
" />
<path d="M101.7922 112.6670
L101.9827 112.5718
" />
<path d="M101.9827 112.5718
L102.0779 112.4765
" />
<path d="M102.0779 112.4765
L102.2684 112.1908
" />
<path d="M102.2684 112.1908
L102.3636 111.8099
" />
<path d="M102.3636 111.8099
L102.3636 111.0480
" />
<path d="M102.3636 111.0480
L102.2684 110.8575
" />
<path d="M102.2684 110.8575
L102.1732 110.7622
" />
<path d="M102.1732 110.7622
L101.9827 110.6670
" />
<path d="M101.9827 110.6670
L101.6017 110.6670
" />
<path d="M101.6017 110.6670
L101.4112 110.7622
" />
<path d="M101.4112 110.7622
L101.3160 110.8575
" />
<path d="M101.3160 110.8575
L101.2208 111.0480
" />
<path d="M101.2208 111.0480
L101.2208 111.5241
" />
<path d="M101.2208 111.5241
L101.3160 111.7146
" />
<path d="M101.3160 111.7146
L101.4112 111.8099
" />
<path d="M101.4112 111.8099
L101.6017 111.9051
" />
<path d="M101.6017 111.9051
L101.9827 111.9051
" />
<path d="M101.9827 111.9051
L102.1732 111.8099
" />
<path d="M102.1732 111.8099
L102.2684 111.7146
" />
<path d="M102.2684 111.7146
L102.3636 111.5241
" />
<path d="M103.6017 110.6670
L103.7922 110.6670
" />
<path d="M103.7922 110.6670
L103.9827 110.7622
" />
<path d="M103.9827 110.7622
L104.0779 110.8575
" />
<path d="M104.0779 110.8575
L104.1732 111.0480
" />
<path d="M104.1732 111.0480
L104.2684 111.4289
" />
<path d="M104.2684 111.4289
L104.2684 111.9051
" />
<path d="M104.2684 111.9051
L104.1732 112.2860
" />
<path d="M104.1732 112.2860
L104.0779 112.4765
" />
<path d="M104.0779 112.4765
L103.9827 112.5718
" />
<path d="M103.9827 112.5718
L103.7922 112.6670
" />
<path d="M103.7922 112.6670
L103.6017 112.6670
" />
<path d="M103.6017 112.6670
L103.4113 112.5718
" />
<path d="M103.4113 112.5718
L103.3160 112.4765
" />
<path d="M103.3160 112.4765
L103.2208 112.2860
" />
<path d="M103.2208 112.2860
L103.1255 111.9051
" />
<path d="M103.1255 111.9051
L103.1255 111.4289
" />
<path d="M103.1255 111.4289
L103.2208 111.0480
" />
<path d="M103.2208 111.0480
L103.3160 110.8575
" />
<path d="M103.3160 110.8575
L103.4113 110.7622
" />
<path d="M103.4113 110.7622
L103.6017 110.6670
" />
<path d="M105.5065 110.6670
L105.6970 110.6670
" />
<path d="M105.6970 110.6670
L105.8874 110.7622
" />
<path d="M105.8874 110.7622
L105.9827 110.8575
" />
<path d="M105.9827 110.8575
L106.0779 111.0480
" />
<path d="M106.0779 111.0480
L106.1732 111.4289
" />
<path d="M106.1732 111.4289
L106.1732 111.9051
" />
<path d="M106.1732 111.9051
L106.0779 112.2860
" />
<path d="M106.0779 112.2860
L105.9827 112.4765
" />
<path d="M105.9827 112.4765
L105.8874 112.5718
" />
<path d="M105.8874 112.5718
L105.6970 112.6670
" />
<path d="M105.6970 112.6670
L105.5065 112.6670
" />
<path d="M105.5065 112.6670
L105.3160 112.5718
" />
<path d="M105.3160 112.5718
L105.2208 112.4765
" />
<path d="M105.2208 112.4765
L105.1255 112.2860
" />
<path d="M105.1255 112.2860
L105.0303 111.9051
" />
<path d="M105.0303 111.9051
L105.0303 111.4289
" />
<path d="M105.0303 111.4289
L105.1255 111.0480
" />
<path d="M105.1255 111.0480
L105.2208 110.8575
" />
<path d="M105.2208 110.8575
L105.3160 110.7622
" />
<path d="M105.3160 110.7622
L105.5065 110.6670
" />
<path d="M107.0303 112.6670
L107.0303 111.3337
" />
<path d="M107.0303 111.5241
L107.1255 111.4289
" />
<path d="M107.1255 111.4289
L107.3160 111.3337
" />
<path d="M107.3160 111.3337
L107.6017 111.3337
" />
<path d="M107.6017 111.3337
L107.7922 111.4289
" />
<path d="M107.7922 111.4289
L107.8874 111.6194
" />
<path d="M107.8874 111.6194
L107.8874 112.6670
" />
<path d="M107.8874 111.6194
L107.9827 111.4289
" />
<path d="M107.9827 111.4289
L108.1732 111.3337
" />
<path d="M108.1732 111.3337
L108.4589 111.3337
" />
<path d="M108.4589 111.3337
L108.6493 111.4289
" />
<path d="M108.6493 111.4289
L108.7446 111.6194
" />
<path d="M108.7446 111.6194
L108.7446 112.6670
" />
<path d="M109.6970 112.6670
L109.6970 111.3337
" />
<path d="M109.6970 111.5241
L109.7922 111.4289
" />
<path d="M109.7922 111.4289
L109.9827 111.3337
" />
<path d="M109.9827 111.3337
L110.2684 111.3337
" />
<path d="M110.2684 111.3337
L110.4589 111.4289
" />
<path d="M110.4589 111.4289
L110.5541 111.6194
" />
<path d="M110.5541 111.6194
L110.5541 112.6670
" />
<path d="M110.5541 111.6194
L110.6493 111.4289
" />
<path d="M110.6493 111.4289
L110.8398 111.3337
" />
<path d="M110.8398 111.3337
L111.1255 111.3337
" />
<path d="M111.1255 111.3337
L111.3160 111.4289
" />
<path d="M111.3160 111.4289
L111.4113 111.6194
" />
<path d="M111.4113 111.6194
L111.4113 112.6670
" />
<path d="M115.3160 110.5718
L113.6017 113.1432
" />
<path d="M117.8874 110.6670
L118.0779 110.6670
" />
<path d="M118.0779 110.6670
L118.2684 110.7622
" />
<path d="M118.2684 110.7622
L118.3636 110.8575
" />
<path d="M118.3636 110.8575
L118.4589 111.0480
" />
<path d="M118.4589 111.0480
L118.5541 111.4289
" />
<path d="M118.5541 111.4289
L118.5541 111.9051
" />
<path d="M118.5541 111.9051
L118.4589 112.2860
" />
<path d="M118.4589 112.2860
L118.3636 112.4765
" />
<path d="M118.3636 112.4765
L118.2684 112.5718
" />
<path d="M118.2684 112.5718
L118.0779 112.6670
" />
<path d="M118.0779 112.6670
L117.8874 112.6670
" />
<path d="M117.8874 112.6670
L117.6970 112.5718
" />
<path d="M117.6970 112.5718
L117.6017 112.4765
" />
<path d="M117.6017 112.4765
L117.5065 112.2860
" />
<path d="M117.5065 112.2860
L117.4113 111.9051
" />
<path d="M117.4113 111.9051
L117.4113 111.4289
" />
<path d="M117.4113 111.4289
L117.5065 111.0480
" />
<path d="M117.5065 111.0480
L117.6017 110.8575
" />
<path d="M117.6017 110.8575
L117.6970 110.7622
" />
<path d="M117.6970 110.7622
L117.8874 110.6670
" />
<path d="M119.4113 112.4765
L119.5065 112.5718
" />
<path d="M119.5065 112.5718
L119.4113 112.6670
" />
<path d="M119.4113 112.6670
L119.3160 112.5718
" />
<path d="M119.3160 112.5718
L119.4113 112.4765
" />
<path d="M119.4113 112.4765
L119.4113 112.6670
" />
<path d="M120.7446 110.6670
L120.9351 110.6670
" />
<path d="M120.9351 110.6670
L121.1255 110.7622
" />
<path d="M121.1255 110.7622
L121.2208 110.8575
" />
<path d="M121.2208 110.8575
L121.3160 111.0480
" />
<path d="M121.3160 111.0480
L121.4113 111.4289
" />
<path d="M121.4113 111.4289
L121.4113 111.9051
" />
<path d="M121.4113 111.9051
L121.3160 112.2860
" />
<path d="M121.3160 112.2860
L121.2208 112.4765
" />
<path d="M121.2208 112.4765
L121.1255 112.5718
" />
<path d="M121.1255 112.5718
L120.9351 112.6670
" />
<path d="M120.9351 112.6670
L120.7446 112.6670
" />
<path d="M120.7446 112.6670
L120.5541 112.5718
" />
<path d="M120.5541 112.5718
L120.4589 112.4765
" />
<path d="M120.4589 112.4765
L120.3636 112.2860
" />
<path d="M120.3636 112.2860
L120.2684 111.9051
" />
<path d="M120.2684 111.9051
L120.2684 111.4289
" />
<path d="M120.2684 111.4289
L120.3636 111.0480
" />
<path d="M120.3636 111.0480
L120.4589 110.8575
" />
<path d="M120.4589 110.8575
L120.5541 110.7622
" />
<path d="M120.5541 110.7622
L120.7446 110.6670
" />
<path d="M122.0779 110.6670
L123.3160 110.6670
" />
<path d="M123.3160 110.6670
L122.6494 111.4289
" />
<path d="M122.6494 111.4289
L122.9351 111.4289
" />
<path d="M122.9351 111.4289
L123.1255 111.5241
" />
<path d="M123.1255 111.5241
L123.2208 111.6194
" />
<path d="M123.2208 111.6194
L123.3160 111.8099
" />
<path d="M123.3160 111.8099
L123.3160 112.2860
" />
<path d="M123.3160 112.2860
L123.2208 112.4765
" />
<path d="M123.2208 112.4765
L123.1255 112.5718
" />
<path d="M123.1255 112.5718
L122.9351 112.6670
" />
<path d="M122.9351 112.6670
L122.3636 112.6670
" />
<path d="M122.3636 112.6670
L122.1732 112.5718
" />
<path d="M122.1732 112.5718
L122.0779 112.4765
" />
<path d="M125.1255 110.6670
L124.1732 110.6670
" />
<path d="M124.1732 110.6670
L124.0779 111.6194
" />
<path d="M124.0779 111.6194
L124.1732 111.5241
" />
<path d="M124.1732 111.5241
L124.3636 111.4289
" />
<path d="M124.3636 111.4289
L124.8398 111.4289
" />
<path d="M124.8398 111.4289
L125.0303 111.5241
" />
<path d="M125.0303 111.5241
L125.1255 111.6194
" />
<path d="M125.1255 111.6194
L125.2208 111.8099
" />
<path d="M125.2208 111.8099
L125.2208 112.2860
" />
<path d="M125.2208 112.2860
L125.1255 112.4765
" />
<path d="M125.1255 112.4765
L125.0303 112.5718
" />
<path d="M125.0303 112.5718
L124.8398 112.6670
" />
<path d="M124.8398 112.6670
L124.3636 112.6670
" />
<path d="M124.3636 112.6670
L124.1732 112.5718
" />
<path d="M124.1732 112.5718
L124.0779 112.4765
" />
<path d="M126.9351 111.3337
L126.9351 112.6670
" />
<path d="M126.4589 110.5718
L125.9827 112.0003
" />
<path d="M125.9827 112.0003
L127.2208 112.0003
" />
<path d="M127.8875 110.6670
L127.8875 111.0480
" />
<path d="M128.6494 110.6670
L128.6494 111.0480
" />
<path d="M131.6017 113.4289
L131.5065 113.3337
" />
<path d="M131.5065 113.3337
L131.3160 113.0480
" />
<path d="M131.3160 113.0480
L131.2208 112.8575
" />
<path d="M131.2208 112.8575
L131.1256 112.5718
" />
<path d="M131.1256 112.5718
L131.0303 112.0956
" />
<path d="M131.0303 112.0956
L131.0303 111.7146
" />
<path d="M131.0303 111.7146
L131.1256 111.2384
" />
<path d="M131.1256 111.2384
L131.2208 110.9527
" />
<path d="M131.2208 110.9527
L131.3160 110.7622
" />
<path d="M131.3160 110.7622
L131.5065 110.4765
" />
<path d="M131.5065 110.4765
L131.6017 110.3813
" />
<path d="M133.2208 111.3337
L133.2208 112.6670
" />
<path d="M132.7446 110.5718
L132.2684 112.0003
" />
<path d="M132.2684 112.0003
L133.5065 112.0003
" />
<path d="M135.7922 112.6670
L135.7922 110.6670
" />
<path d="M136.6494 112.6670
L136.6494 111.6194
" />
<path d="M136.6494 111.6194
L136.5541 111.4289
" />
<path d="M136.5541 111.4289
L136.3637 111.3337
" />
<path d="M136.3637 111.3337
L136.0779 111.3337
" />
<path d="M136.0779 111.3337
L135.8875 111.4289
" />
<path d="M135.8875 111.4289
L135.7922 111.5241
" />
<path d="M137.8875 112.6670
L137.6970 112.5718
" />
<path d="M137.6970 112.5718
L137.6017 112.4765
" />
<path d="M137.6017 112.4765
L137.5065 112.2860
" />
<path d="M137.5065 112.2860
L137.5065 111.7146
" />
<path d="M137.5065 111.7146
L137.6017 111.5241
" />
<path d="M137.6017 111.5241
L137.6970 111.4289
" />
<path d="M137.6970 111.4289
L137.8875 111.3337
" />
<path d="M137.8875 111.3337
L138.1732 111.3337
" />
<path d="M138.1732 111.3337
L138.3637 111.4289
" />
<path d="M138.3637 111.4289
L138.4589 111.5241
" />
<path d="M138.4589 111.5241
L138.5541 111.7146
" />
<path d="M138.5541 111.7146
L138.5541 112.2860
" />
<path d="M138.5541 112.2860
L138.4589 112.4765
" />
<path d="M138.4589 112.4765
L138.3637 112.5718
" />
<path d="M138.3637 112.5718
L138.1732 112.6670
" />
<path d="M138.1732 112.6670
L137.8875 112.6670
" />
<path d="M139.6970 112.6670
L139.5065 112.5718
" />
<path d="M139.5065 112.5718
L139.4113 112.3813
" />
<path d="M139.4113 112.3813
L139.4113 110.6670
" />
<path d="M141.2208 112.5718
L141.0303 112.6670
" />
<path d="M141.0303 112.6670
L140.6494 112.6670
" />
<path d="M140.6494 112.6670
L140.4589 112.5718
" />
<path d="M140.4589 112.5718
L140.3637 112.3813
" />
<path d="M140.3637 112.3813
L140.3637 111.6194
" />
<path d="M140.3637 111.6194
L140.4589 111.4289
" />
<path d="M140.4589 111.4289
L140.6494 111.3337
" />
<path d="M140.6494 111.3337
L141.0303 111.3337
" />
<path d="M141.0303 111.3337
L141.2208 111.4289
" />
<path d="M141.2208 111.4289
L141.3160 111.6194
" />
<path d="M141.3160 111.6194
L141.3160 111.8099
" />
<path d="M141.3160 111.8099
L140.3637 112.0003
" />
<path d="M142.0779 112.5718
L142.2684 112.6670
" />
<path d="M142.2684 112.6670
L142.6494 112.6670
" />
<path d="M142.6494 112.6670
L142.8398 112.5718
" />
<path d="M142.8398 112.5718
L142.9351 112.3813
" />
<path d="M142.9351 112.3813
L142.9351 112.2860
" />
<path d="M142.9351 112.2860
L142.8398 112.0956
" />
<path d="M142.8398 112.0956
L142.6494 112.0003
" />
<path d="M142.6494 112.0003
L142.3637 112.0003
" />
<path d="M142.3637 112.0003
L142.1732 111.9051
" />
<path d="M142.1732 111.9051
L142.0779 111.7146
" />
<path d="M142.0779 111.7146
L142.0779 111.6194
" />
<path d="M142.0779 111.6194
L142.1732 111.4289
" />
<path d="M142.1732 111.4289
L142.3637 111.3337
" />
<path d="M142.3637 111.3337
L142.6494 111.3337
" />
<path d="M142.6494 111.3337
L142.8398 111.4289
" />
<path d="M143.6018 113.4289
L143.6970 113.3337
" />
<path d="M143.6970 113.3337
L143.8875 113.0480
" />
<path d="M143.8875 113.0480
L143.9827 112.8575
" />
<path d="M143.9827 112.8575
L144.0779 112.5718
" />
<path d="M144.0779 112.5718
L144.1732 112.0956
" />
<path d="M144.1732 112.0956
L144.1732 111.7146
" />
<path d="M144.1732 111.7146
L144.0779 111.2384
" />
<path d="M144.0779 111.2384
L143.9827 110.9527
" />
<path d="M143.9827 110.9527
L143.8875 110.7622
" />
<path d="M143.8875 110.7622
L143.6970 110.4765
" />
<path d="M143.6970 110.4765
L143.6018 110.3813
" />
</g></g>
<g style="fill:#000000; fill-opacity:0.0; 
stroke:#000000; stroke-width:0.2000; stroke-opacity:1; 
stroke-linecap:round; stroke-linejoin:round;">
<path d="M94.8511 113.9522
L94.8511 115.9522
" />
<path d="M93.8511 114.9522
L95.8511 114.9522
" />
</g>
<g style="fill:#000000; fill-opacity:0.0; 
stroke:#000000; stroke-width:0.6000; stroke-opacity:1; 
stroke-linecap:round; stroke-linejoin:round;">
</g>
<g style="fill:#000000; fill-opacity:0.0; 
stroke:#000000; stroke-width:0.2000; stroke-opacity:1; 
stroke-linecap:round; stroke-linejoin:round;">
<text x="97.8511" y="115.9522"
textLength="46.8667" font-size="2.6667" lengthAdjust="spacingAndGlyphs"
text-anchor="start" opacity="0">1.000mm / 0.0394" (4 holes)</text>
<g class="stroked-text"><desc>1.000mm / 0.0394" (4 holes)</desc>
<path d="M99.5065 115.8670
L98.3636 115.8670
" />
<path d="M98.9351 115.8670
L98.9351 113.8670
" />
<path d="M98.9351 113.8670
L98.7446 114.1527
" />
<path d="M98.7446 114.1527
L98.5541 114.3432
" />
<path d="M98.5541 114.3432
L98.3636 114.4384
" />
<path d="M100.3636 115.6765
L100.4589 115.7718
" />
<path d="M100.4589 115.7718
L100.3636 115.8670
" />
<path d="M100.3636 115.8670
L100.2684 115.7718
" />
<path d="M100.2684 115.7718
L100.3636 115.6765
" />
<path d="M100.3636 115.6765
L100.3636 115.8670
" />
<path d="M101.6970 113.8670
L101.8874 113.8670
" />
<path d="M101.8874 113.8670
L102.0779 113.9622
" />
<path d="M102.0779 113.9622
L102.1732 114.0575
" />
<path d="M102.1732 114.0575
L102.2684 114.2480
" />
<path d="M102.2684 114.2480
L102.3636 114.6289
" />
<path d="M102.3636 114.6289
L102.3636 115.1051
" />
<path d="M102.3636 115.1051
L102.2684 115.4860
" />
<path d="M102.2684 115.4860
L102.1732 115.6765
" />
<path d="M102.1732 115.6765
L102.0779 115.7718
" />
<path d="M102.0779 115.7718
L101.8874 115.8670
" />
<path d="M101.8874 115.8670
L101.6970 115.8670
" />
<path d="M101.6970 115.8670
L101.5065 115.7718
" />
<path d="M101.5065 115.7718
L101.4112 115.6765
" />
<path d="M101.4112 115.6765
L101.3160 115.4860
" />
<path d="M101.3160 115.4860
L101.2208 115.1051
" />
<path d="M101.2208 115.1051
L101.2208 114.6289
" />
<path d="M101.2208 114.6289
L101.3160 114.2480
" />
<path d="M101.3160 114.2480
L101.4112 114.0575
" />
<path d="M101.4112 114.0575
L101.5065 113.9622
" />
<path d="M101.5065 113.9622
L101.6970 113.8670
" />
<path d="M103.6017 113.8670
L103.7922 113.8670
" />
<path d="M103.7922 113.8670
L103.9827 113.9622
" />
<path d="M103.9827 113.9622
L104.0779 114.0575
" />
<path d="M104.0779 114.0575
L104.1732 114.2480
" />
<path d="M104.1732 114.2480
L104.2684 114.6289
" />
<path d="M104.2684 114.6289
L104.2684 115.1051
" />
<path d="M104.2684 115.1051
L104.1732 115.4860
" />
<path d="M104.1732 115.4860
L104.0779 115.6765
" />
<path d="M104.0779 115.6765
L103.9827 115.7718
" />
<path d="M103.9827 115.7718
L103.7922 115.8670
" />
<path d="M103.7922 115.8670
L103.6017 115.8670
" />
<path d="M103.6017 115.8670
L103.4113 115.7718
" />
<path d="M103.4113 115.7718
L103.3160 115.6765
" />
<path d="M103.3160 115.6765
L103.2208 115.4860
" />
<path d="M103.2208 115.4860
L103.1255 115.1051
" />
<path d="M103.1255 115.1051
L103.1255 114.6289
" />
<path d="M103.1255 114.6289
L103.2208 114.2480
" />
<path d="M103.2208 114.2480
L103.3160 114.0575
" />
<path d="M103.3160 114.0575
L103.4113 113.9622
" />
<path d="M103.4113 113.9622
L103.6017 113.8670
" />
<path d="M105.5065 113.8670
L105.6970 113.8670
" />
<path d="M105.6970 113.8670
L105.8874 113.9622
" />
<path d="M105.8874 113.9622
L105.9827 114.0575
" />
<path d="M105.9827 114.0575
L106.0779 114.2480
" />
<path d="M106.0779 114.2480
L106.1732 114.6289
" />
<path d="M106.1732 114.6289
L106.1732 115.1051
" />
<path d="M106.1732 115.1051
L106.0779 115.4860
" />
<path d="M106.0779 115.4860
L105.9827 115.6765
" />
<path d="M105.9827 115.6765
L105.8874 115.7718
" />
<path d="M105.8874 115.7718
L105.6970 115.8670
" />
<path d="M105.6970 115.8670
L105.5065 115.8670
" />
<path d="M105.5065 115.8670
L105.3160 115.7718
" />
<path d="M105.3160 115.7718
L105.2208 115.6765
" />
<path d="M105.2208 115.6765
L105.1255 115.4860
" />
<path d="M105.1255 115.4860
L105.0303 115.1051
" />
<path d="M105.0303 115.1051
L105.0303 114.6289
" />
<path d="M105.0303 114.6289
L105.1255 114.2480
" />
<path d="M105.1255 114.2480
L105.2208 114.0575
" />
<path d="M105.2208 114.0575
L105.3160 113.9622
" />
<path d="M105.3160 113.9622
L105.5065 113.8670
" />
<path d="M107.0303 115.8670
L107.0303 114.5337
" />
<path d="M107.0303 114.7241
L107.1255 114.6289
" />
<path d="M107.1255 114.6289
L107.3160 114.5337
" />
<path d="M107.3160 114.5337
L107.6017 114.5337
" />
<path d="M107.6017 114.5337
L107.7922 114.6289
" />
<path d="M107.7922 114.6289
L107.8874 114.8194
" />
<path d="M107.8874 114.8194
L107.8874 115.8670
" />
<path d="M107.8874 114.8194
L107.9827 114.6289
" />
<path d="M107.9827 114.6289
L108.1732 114.5337
" />
<path d="M108.1732 114.5337
L108.4589 114.5337
" />
<path d="M108.4589 114.5337
L108.6493 114.6289
" />
<path d="M108.6493 114.6289
L108.7446 114.8194
" />
<path d="M108.7446 114.8194
L108.7446 115.8670
" />
<path d="M109.6970 115.8670
L109.6970 114.5337
" />
<path d="M109.6970 114.7241
L109.7922 114.6289
" />
<path d="M109.7922 114.6289
L109.9827 114.5337
" />
<path d="M109.9827 114.5337
L110.2684 114.5337
" />
<path d="M110.2684 114.5337
L110.4589 114.6289
" />
<path d="M110.4589 114.6289
L110.5541 114.8194
" />
<path d="M110.5541 114.8194
L110.5541 115.8670
" />
<path d="M110.5541 114.8194
L110.6493 114.6289
" />
<path d="M110.6493 114.6289
L110.8398 114.5337
" />
<path d="M110.8398 114.5337
L111.1255 114.5337
" />
<path d="M111.1255 114.5337
L111.3160 114.6289
" />
<path d="M111.3160 114.6289
L111.4113 114.8194
" />
<path d="M111.4113 114.8194
L111.4113 115.8670
" />
<path d="M115.3160 113.7718
L113.6017 116.3432
" />
<path d="M117.8874 113.8670
L118.0779 113.8670
" />
<path d="M118.0779 113.8670
L118.2684 113.9622
" />
<path d="M118.2684 113.9622
L118.3636 114.0575
" />
<path d="M118.3636 114.0575
L118.4589 114.2480
" />
<path d="M118.4589 114.2480
L118.5541 114.6289
" />
<path d="M118.5541 114.6289
L118.5541 115.1051
" />
<path d="M118.5541 115.1051
L118.4589 115.4860
" />
<path d="M118.4589 115.4860
L118.3636 115.6765
" />
<path d="M118.3636 115.6765
L118.2684 115.7718
" />
<path d="M118.2684 115.7718
L118.0779 115.8670
" />
<path d="M118.0779 115.8670
L117.8874 115.8670
" />
<path d="M117.8874 115.8670
L117.6970 115.7718
" />
<path d="M117.6970 115.7718
L117.6017 115.6765
" />
<path d="M117.6017 115.6765
L117.5065 115.4860
" />
<path d="M117.5065 115.4860
L117.4113 115.1051
" />
<path d="M117.4113 115.1051
L117.4113 114.6289
" />
<path d="M117.4113 114.6289
L117.5065 114.2480
" />
<path d="M117.5065 114.2480
L117.6017 114.0575
" />
<path d="M117.6017 114.0575
L117.6970 113.9622
" />
<path d="M117.6970 113.9622
L117.8874 113.8670
" />
<path d="M119.4113 115.6765
L119.5065 115.7718
" />
<path d="M119.5065 115.7718
L119.4113 115.8670
" />
<path d="M119.4113 115.8670
L119.3160 115.7718
" />
<path d="M119.3160 115.7718
L119.4113 115.6765
" />
<path d="M119.4113 115.6765
L119.4113 115.8670
" />
<path d="M120.7446 113.8670
L120.9351 113.8670
" />
<path d="M120.9351 113.8670
L121.1255 113.9622
" />
<path d="M121.1255 113.9622
L121.2208 114.0575
" />
<path d="M121.2208 114.0575
L121.3160 114.2480
" />
<path d="M121.3160 114.2480
L121.4113 114.6289
" />
<path d="M121.4113 114.6289
L121.4113 115.1051
" />
<path d="M121.4113 115.1051
L121.3160 115.4860
" />
<path d="M121.3160 115.4860
L121.2208 115.6765
" />
<path d="M121.2208 115.6765
L121.1255 115.7718
" />
<path d="M121.1255 115.7718
L120.9351 115.8670
" />
<path d="M120.9351 115.8670
L120.7446 115.8670
" />
<path d="M120.7446 115.8670
L120.5541 115.7718
" />
<path d="M120.5541 115.7718
L120.4589 115.6765
" />
<path d="M120.4589 115.6765
L120.3636 115.4860
" />
<path d="M120.3636 115.4860
L120.2684 115.1051
" />
<path d="M120.2684 115.1051
L120.2684 114.6289
" />
<path d="M120.2684 114.6289
L120.3636 114.2480
" />
<path d="M120.3636 114.2480
L120.4589 114.0575
" />
<path d="M120.4589 114.0575
L120.5541 113.9622
" />
<path d="M120.5541 113.9622
L120.7446 113.8670
" />
<path d="M122.0779 113.8670
L123.3160 113.8670
" />
<path d="M123.3160 113.8670
L122.6494 114.6289
" />
<path d="M122.6494 114.6289
L122.9351 114.6289
" />
<path d="M122.9351 114.6289
L123.1255 114.7241
" />
<path d="M123.1255 114.7241
L123.2208 114.8194
" />
<path d="M123.2208 114.8194
L123.3160 115.0099
" />
<path d="M123.3160 115.0099
L123.3160 115.4860
" />
<path d="M123.3160 115.4860
L123.2208 115.6765
" />
<path d="M123.2208 115.6765
L123.1255 115.7718
" />
<path d="M123.1255 115.7718
L122.9351 115.8670
" />
<path d="M122.9351 115.8670
L122.3636 115.8670
" />
<path d="M122.3636 115.8670
L122.1732 115.7718
" />
<path d="M122.1732 115.7718
L122.0779 115.6765
" />
<path d="M124.2684 115.8670
L124.6494 115.8670
" />
<path d="M124.6494 115.8670
L124.8398 115.7718
" />
<path d="M124.8398 115.7718
L124.9351 115.6765
" />
<path d="M124.9351 115.6765
L125.1255 115.3908
" />
<path d="M125.1255 115.3908
L125.2208 115.0099
" />
<path d="M125.2208 115.0099
L125.2208 114.2480
" />
<path d="M125.2208 114.2480
L125.1255 114.0575
" />
<path d="M125.1255 114.0575
L125.0303 113.9622
" />
<path d="M125.0303 113.9622
L124.8398 113.8670
" />
<path d="M124.8398 113.8670
L124.4589 113.8670
" />
<path d="M124.4589 113.8670
L124.2684 113.9622
" />
<path d="M124.2684 113.9622
L124.1732 114.0575
" />
<path d="M124.1732 114.0575
L124.0779 114.2480
" />
<path d="M124.0779 114.2480
L124.0779 114.7241
" />
<path d="M124.0779 114.7241
L124.1732 114.9146
" />
<path d="M124.1732 114.9146
L124.2684 115.0099
" />
<path d="M124.2684 115.0099
L124.4589 115.1051
" />
<path d="M124.4589 115.1051
L124.8398 115.1051
" />
<path d="M124.8398 115.1051
L125.0303 115.0099
" />
<path d="M125.0303 115.0099
L125.1255 114.9146
" />
<path d="M125.1255 114.9146
L125.2208 114.7241
" />
<path d="M126.9351 114.5337
L126.9351 115.8670
" />
<path d="M126.4589 113.7718
L125.9827 115.2003
" />
<path d="M125.9827 115.2003
L127.2208 115.2003
" />
<path d="M127.8875 113.8670
L127.8875 114.2480
" />
<path d="M128.6494 113.8670
L128.6494 114.2480
" />
<path d="M131.6017 116.6289
L131.5065 116.5337
" />
<path d="M131.5065 116.5337
L131.3160 116.2480
" />
<path d="M131.3160 116.2480
L131.2208 116.0575
" />
<path d="M131.2208 116.0575
L131.1256 115.7718
" />
<path d="M131.1256 115.7718
L131.0303 115.2956
" />
<path d="M131.0303 115.2956
L131.0303 114.9146
" />
<path d="M131.0303 114.9146
L131.1256 114.4384
" />
<path d="M131.1256 114.4384
L131.2208 114.1527
" />
<path d="M131.2208 114.1527
L131.3160 113.9622
" />
<path d="M131.3160 113.9622
L131.5065 113.6765
" />
<path d="M131.5065 113.6765
L131.6017 113.5813
" />
<path d="M133.2208 114.5337
L133.2208 115.8670
" />
<path d="M132.7446 113.7718
L132.2684 115.2003
" />
<path d="M132.2684 115.2003
L133.5065 115.2003
" />
<path d="M135.7922 115.8670
L135.7922 113.8670
" />
<path d="M136.6494 115.8670
L136.6494 114.8194
" />
<path d="M136.6494 114.8194
L136.5541 114.6289
" />
<path d="M136.5541 114.6289
L136.3637 114.5337
" />
<path d="M136.3637 114.5337
L136.0779 114.5337
" />
<path d="M136.0779 114.5337
L135.8875 114.6289
" />
<path d="M135.8875 114.6289
L135.7922 114.7241
" />
<path d="M137.8875 115.8670
L137.6970 115.7718
" />
<path d="M137.6970 115.7718
L137.6017 115.6765
" />
<path d="M137.6017 115.6765
L137.5065 115.4860
" />
<path d="M137.5065 115.4860
L137.5065 114.9146
" />
<path d="M137.5065 114.9146
L137.6017 114.7241
" />
<path d="M137.6017 114.7241
L137.6970 114.6289
" />
<path d="M137.6970 114.6289
L137.8875 114.5337
" />
<path d="M137.8875 114.5337
L138.1732 114.5337
" />
<path d="M138.1732 114.5337
L138.3637 114.6289
" />
<path d="M138.3637 114.6289
L138.4589 114.7241
" />
<path d="M138.4589 114.7241
L138.5541 114.9146
" />
<path d="M138.5541 114.9146
L138.5541 115.4860
" />
<path d="M138.5541 115.4860
L138.4589 115.6765
" />
<path d="M138.4589 115.6765
L138.3637 115.7718
" />
<path d="M138.3637 115.7718
L138.1732 115.8670
" />
<path d="M138.1732 115.8670
L137.8875 115.8670
" />
<path d="M139.6970 115.8670
L139.5065 115.7718
" />
<path d="M139.5065 115.7718
L139.4113 115.5813
" />
<path d="M139.4113 115.5813
L139.4113 113.8670
" />
<path d="M141.2208 115.7718
L141.0303 115.8670
" />
<path d="M141.0303 115.8670
L140.6494 115.8670
" />
<path d="M140.6494 115.8670
L140.4589 115.7718
" />
<path d="M140.4589 115.7718
L140.3637 115.5813
" />
<path d="M140.3637 115.5813
L140.3637 114.8194
" />
<path d="M140.3637 114.8194
L140.4589 114.6289
" />
<path d="M140.4589 114.6289
L140.6494 114.5337
" />
<path d="M140.6494 114.5337
L141.0303 114.5337
" />
<path d="M141.0303 114.5337
L141.2208 114.6289
" />
<path d="M141.2208 114.6289
L141.3160 114.8194
" />
<path d="M141.3160 114.8194
L141.3160 115.0099
" />
<path d="M141.3160 115.0099
L140.3637 115.2003
" />
<path d="M142.0779 115.7718
L142.2684 115.8670
" />
<path d="M142.2684 115.8670
L142.6494 115.8670
" />
<path d="M142.6494 115.8670
L142.8398 115.7718
" />
<path d="M142.8398 115.7718
L142.9351 115.5813
" />
<path d="M142.9351 115.5813
L142.9351 115.4860
" />
<path d="M142.9351 115.4860
L142.8398 115.2956
" />
<path d="M142.8398 115.2956
L142.6494 115.2003
" />
<path d="M142.6494 115.2003
L142.3637 115.2003
" />
<path d="M142.3637 115.2003
L142.1732 115.1051
" />
<path d="M142.1732 115.1051
L142.0779 114.9146
" />
<path d="M142.0779 114.9146
L142.0779 114.8194
" />
<path d="M142.0779 114.8194
L142.1732 114.6289
" />
<path d="M142.1732 114.6289
L142.3637 114.5337
" />
<path d="M142.3637 114.5337
L142.6494 114.5337
" />
<path d="M142.6494 114.5337
L142.8398 114.6289
" />
<path d="M143.6018 116.6289
L143.6970 116.5337
" />
<path d="M143.6970 116.5337
L143.8875 116.2480
" />
<path d="M143.8875 116.2480
L143.9827 116.0575
" />
<path d="M143.9827 116.0575
L144.0779 115.7718
" />
<path d="M144.0779 115.7718
L144.1732 115.2956
" />
<path d="M144.1732 115.2956
L144.1732 114.9146
" />
<path d="M144.1732 114.9146
L144.0779 114.4384
" />
<path d="M144.0779 114.4384
L143.9827 114.1527
" />
<path d="M143.9827 114.1527
L143.8875 113.9622
" />
<path d="M143.8875 113.9622
L143.6970 113.6765
" />
<path d="M143.6970 113.6765
L143.6018 113.5813
" />
</g></g> 
</svg>
