%TF.GenerationSoftware,KiCad,Pcbnew,9.0.1*%
%TF.CreationDate,2025-09-02T02:57:32-07:00*%
%TF.ProjectId,pcb,7063622e-6b69-4636-9164-5f7063625858,B0*%
%TF.SameCoordinates,PX7bfa480PY4c4b400*%
%TF.FileFunction,Soldermask,Top*%
%TF.FilePolarity,Negative*%
%FSLAX46Y46*%
G04 Gerber Fmt 4.6, Leading zero omitted, Abs format (unit mm)*
G04 Created by KiCad (PCBNEW 9.0.1) date 2025-09-02 02:57:32*
%MOMM*%
%LPD*%
G01*
G04 APERTURE LIST*
G04 Aperture macros list*
%AMRoundRect*
0 Rectangle with rounded corners*
0 $1 Rounding radius*
0 $2 $3 $4 $5 $6 $7 $8 $9 X,Y pos of 4 corners*
0 Add a 4 corners polygon primitive as box body*
4,1,4,$2,$3,$4,$5,$6,$7,$8,$9,$2,$3,0*
0 Add four circle primitives for the rounded corners*
1,1,$1+$1,$2,$3*
1,1,$1+$1,$4,$5*
1,1,$1+$1,$6,$7*
1,1,$1+$1,$8,$9*
0 Add four rect primitives between the rounded corners*
20,1,$1+$1,$2,$3,$4,$5,0*
20,1,$1+$1,$4,$5,$6,$7,0*
20,1,$1+$1,$6,$7,$8,$9,0*
20,1,$1+$1,$8,$9,$2,$3,0*%
G04 Aperture macros list end*
%ADD10RoundRect,0.225000X0.525000X-0.525000X0.525000X0.525000X-0.525000X0.525000X-0.525000X-0.525000X0*%
%ADD11C,1.500000*%
%ADD12R,1.050000X0.650000*%
%ADD13C,2.700000*%
%ADD14C,3.100000*%
%ADD15C,4.500000*%
%ADD16R,0.650000X1.050000*%
%ADD17R,1.700000X1.700000*%
%ADD18C,1.700000*%
G04 APERTURE END LIST*
D10*
%TO.C,U3*%
X17790000Y-10210000D03*
D11*
X20330000Y-10210000D03*
X22870000Y-10210000D03*
X25410000Y-10210000D03*
X27950000Y-10210000D03*
X27950000Y-2590000D03*
X25410000Y-2590000D03*
X22870000Y-2590000D03*
X20330000Y-2590000D03*
X17790000Y-2590000D03*
%TD*%
D12*
%TO.C,SW1*%
X11875000Y-16425000D03*
X16025000Y-16425000D03*
X11875000Y-18575000D03*
X16025000Y-18575000D03*
%TD*%
D13*
%TO.C,H2*%
X20250000Y-38500000D03*
%TD*%
D12*
%TO.C,SW5*%
X25225000Y-27775000D03*
X21075000Y-27775000D03*
X25225000Y-25625000D03*
X21075000Y-25625000D03*
%TD*%
%TO.C,SW4*%
X2675000Y-25625000D03*
X6825000Y-25625000D03*
X2675000Y-27775000D03*
X6825000Y-27775000D03*
%TD*%
D14*
%TO.C,H3*%
X26800000Y-14500000D03*
D15*
X26800000Y-14500000D03*
%TD*%
D16*
%TO.C,SW6*%
X25425000Y-38450000D03*
X25425000Y-34300000D03*
X27575000Y-38450000D03*
X27575000Y-34300000D03*
%TD*%
D10*
%TO.C,U2*%
X2550000Y-10210000D03*
D11*
X5090000Y-10210000D03*
X7630000Y-10210000D03*
X10170000Y-10210000D03*
X12710000Y-10210000D03*
X12710000Y-2590000D03*
X10170000Y-2590000D03*
X7630000Y-2590000D03*
X5090000Y-2590000D03*
X2550000Y-2590000D03*
%TD*%
D12*
%TO.C,SW2*%
X16025000Y-27775000D03*
X11875000Y-27775000D03*
X16025000Y-25625000D03*
X11875000Y-25625000D03*
%TD*%
%TO.C,SW3*%
X11875000Y-34835000D03*
X16025000Y-34835000D03*
X11875000Y-36985000D03*
X16025000Y-36985000D03*
%TD*%
D14*
%TO.C,H4*%
X2800000Y-38000000D03*
D15*
X2800000Y-38000000D03*
%TD*%
D17*
%TO.C,J1*%
X3480000Y-16260000D03*
D18*
X6020000Y-16260000D03*
X3480000Y-18800000D03*
X6020000Y-18800000D03*
%TD*%
D13*
%TO.C,H1*%
X3700000Y-6100000D03*
%TD*%
M02*
