M48
; DRILL file {KiCad 9.0.1} date 2025-09-02T02:57:35-0700
; FORMAT={-:-/ absolute / metric / decimal}
; #@! TF.CreationDate,2025-09-02T02:57:35-07:00
; #@! TF.GenerationSoftware,Kicad,Pcbnew,9.0.1
; #@! TF.FileFunction,Plated,1,2,PTH
FMAT,2
METRIC
; #@! TA.AperFunction,Plated,PTH,ViaDrill
T1C0.300
; #@! TA.AperFunction,Plated,PTH,ViaDrill
T2C0.400
; #@! TA.AperFunction,Plated,PTH,ComponentDrill
T3C0.600
; #@! TA.AperFunction,Plated,PTH,ComponentDrill
T4C1.000
; #@! TA.AperFunction,Plated,PTH,ComponentDrill
T5C2.700
%
G90
G05
T1
X2.042Y-14.655
X9.535Y-26.339
X9.789Y-25.323
X24.14Y-22.91
X25.918Y-28.752
X29.601Y-30.53
X29.601Y-40.055
X29.7Y-28.244
T2
X1.25Y-33.02
X1.25Y-34.544
X1.724Y-21.195
X6.096Y-39.624
X6.868Y-24.307
X7.503Y-30.612
X7.62Y-39.624
X9.144Y-39.624
X10.668Y-39.624
X21.092Y-34.086
X22.87Y-30.022
X29.474Y-1.066
T3
X2.55Y-2.59
X2.55Y-10.21
X5.09Y-2.59
X5.09Y-10.21
X7.63Y-2.59
X7.63Y-10.21
X10.17Y-2.59
X10.17Y-10.21
X12.71Y-2.59
X12.71Y-10.21
X17.79Y-2.59
X17.79Y-10.21
X20.33Y-2.59
X20.33Y-10.21
X22.87Y-2.59
X22.87Y-10.21
X25.41Y-2.59
X25.41Y-10.21
X27.95Y-2.59
X27.95Y-10.21
T4
X3.48Y-16.26
X3.48Y-18.8
X6.02Y-16.26
X6.02Y-18.8
T5
X2.8Y-38.0
X26.8Y-14.5
M30
