%TF.GenerationSoftware,KiCad,Pcbnew,9.0.1*%
%TF.CreationDate,2025-09-02T02:57:32-07:00*%
%TF.ProjectId,pcb,7063622e-6b69-4636-9164-5f7063625858,B0*%
%TF.SameCoordinates,PX7bfa480PY4c4b400*%
%TF.FileFunction,Legend,Bot*%
%TF.FilePolarity,Positive*%
%FSLAX46Y46*%
G04 Gerber Fmt 4.6, Leading zero omitted, Abs format (unit mm)*
G04 Created by KiCad (PCBNEW 9.0.1) date 2025-09-02 02:57:32*
%MOMM*%
%LPD*%
G01*
G04 APERTURE LIST*
%ADD10C,0.100000*%
%ADD11C,0.090000*%
%ADD12C,0.300000*%
%ADD13C,0.150000*%
%ADD14C,0.120000*%
G04 APERTURE END LIST*
D10*
X6283809Y-1550057D02*
X6283809Y-1397676D01*
X6321904Y-1397676D02*
X6321904Y-1550057D01*
X6360000Y-1588152D02*
X6360000Y-1359580D01*
X6398095Y-1397676D02*
X6398095Y-1550057D01*
X6436190Y-1550057D02*
X6436190Y-1397676D01*
X6283809Y-1435771D02*
X6360000Y-1359580D01*
X6360000Y-1359580D02*
X6436190Y-1435771D01*
X6283809Y-1511961D02*
X6360000Y-1588152D01*
X6360000Y-1588152D02*
X6436190Y-1511961D01*
X6283809Y-1550057D02*
X6360000Y-1588152D01*
X6360000Y-1588152D02*
X6436190Y-1550057D01*
X6436190Y-1550057D02*
X6474285Y-1473866D01*
X6474285Y-1473866D02*
X6436190Y-1397676D01*
X6436190Y-1397676D02*
X6360000Y-1359580D01*
X6360000Y-1359580D02*
X6283809Y-1397676D01*
X6283809Y-1397676D02*
X6245714Y-1473866D01*
X6245714Y-1473866D02*
X6283809Y-1550057D01*
D11*
X1444489Y-16861266D02*
X1482584Y-16937456D01*
X1482584Y-16937456D02*
X1482584Y-17051742D01*
X1482584Y-17051742D02*
X1444489Y-17166028D01*
X1444489Y-17166028D02*
X1368299Y-17242218D01*
X1368299Y-17242218D02*
X1292108Y-17280313D01*
X1292108Y-17280313D02*
X1139727Y-17318409D01*
X1139727Y-17318409D02*
X1025441Y-17318409D01*
X1025441Y-17318409D02*
X873060Y-17280313D01*
X873060Y-17280313D02*
X796870Y-17242218D01*
X796870Y-17242218D02*
X720680Y-17166028D01*
X720680Y-17166028D02*
X682584Y-17051742D01*
X682584Y-17051742D02*
X682584Y-16975551D01*
X682584Y-16975551D02*
X720680Y-16861266D01*
X720680Y-16861266D02*
X758775Y-16823170D01*
X758775Y-16823170D02*
X1025441Y-16823170D01*
X1025441Y-16823170D02*
X1025441Y-16975551D01*
X682584Y-16480313D02*
X1482584Y-16480313D01*
X1482584Y-16480313D02*
X682584Y-16023170D01*
X682584Y-16023170D02*
X1482584Y-16023170D01*
X682584Y-15642218D02*
X1482584Y-15642218D01*
X1482584Y-15642218D02*
X1482584Y-15451742D01*
X1482584Y-15451742D02*
X1444489Y-15337456D01*
X1444489Y-15337456D02*
X1368299Y-15261266D01*
X1368299Y-15261266D02*
X1292108Y-15223171D01*
X1292108Y-15223171D02*
X1139727Y-15185075D01*
X1139727Y-15185075D02*
X1025441Y-15185075D01*
X1025441Y-15185075D02*
X873060Y-15223171D01*
X873060Y-15223171D02*
X796870Y-15261266D01*
X796870Y-15261266D02*
X720680Y-15337456D01*
X720680Y-15337456D02*
X682584Y-15451742D01*
X682584Y-15451742D02*
X682584Y-15642218D01*
X8120680Y-17048409D02*
X8082584Y-16934123D01*
X8082584Y-16934123D02*
X8082584Y-16743647D01*
X8082584Y-16743647D02*
X8120680Y-16667456D01*
X8120680Y-16667456D02*
X8158775Y-16629361D01*
X8158775Y-16629361D02*
X8234965Y-16591266D01*
X8234965Y-16591266D02*
X8311156Y-16591266D01*
X8311156Y-16591266D02*
X8387346Y-16629361D01*
X8387346Y-16629361D02*
X8425441Y-16667456D01*
X8425441Y-16667456D02*
X8463537Y-16743647D01*
X8463537Y-16743647D02*
X8501632Y-16896028D01*
X8501632Y-16896028D02*
X8539727Y-16972218D01*
X8539727Y-16972218D02*
X8577822Y-17010313D01*
X8577822Y-17010313D02*
X8654013Y-17048409D01*
X8654013Y-17048409D02*
X8730203Y-17048409D01*
X8730203Y-17048409D02*
X8806394Y-17010313D01*
X8806394Y-17010313D02*
X8844489Y-16972218D01*
X8844489Y-16972218D02*
X8882584Y-16896028D01*
X8882584Y-16896028D02*
X8882584Y-16705551D01*
X8882584Y-16705551D02*
X8844489Y-16591266D01*
X8082584Y-16248408D02*
X8882584Y-16248408D01*
X8882584Y-16248408D02*
X8882584Y-16057932D01*
X8882584Y-16057932D02*
X8844489Y-15943646D01*
X8844489Y-15943646D02*
X8768299Y-15867456D01*
X8768299Y-15867456D02*
X8692108Y-15829361D01*
X8692108Y-15829361D02*
X8539727Y-15791265D01*
X8539727Y-15791265D02*
X8425441Y-15791265D01*
X8425441Y-15791265D02*
X8273060Y-15829361D01*
X8273060Y-15829361D02*
X8196870Y-15867456D01*
X8196870Y-15867456D02*
X8120680Y-15943646D01*
X8120680Y-15943646D02*
X8082584Y-16057932D01*
X8082584Y-16057932D02*
X8082584Y-16248408D01*
X8311156Y-15486504D02*
X8311156Y-15105551D01*
X8082584Y-15562694D02*
X8882584Y-15296027D01*
X8882584Y-15296027D02*
X8082584Y-15029361D01*
X4368409Y-21519320D02*
X4254123Y-21557415D01*
X4254123Y-21557415D02*
X4063647Y-21557415D01*
X4063647Y-21557415D02*
X3987456Y-21519320D01*
X3987456Y-21519320D02*
X3949361Y-21481224D01*
X3949361Y-21481224D02*
X3911266Y-21405034D01*
X3911266Y-21405034D02*
X3911266Y-21328843D01*
X3911266Y-21328843D02*
X3949361Y-21252653D01*
X3949361Y-21252653D02*
X3987456Y-21214558D01*
X3987456Y-21214558D02*
X4063647Y-21176462D01*
X4063647Y-21176462D02*
X4216028Y-21138367D01*
X4216028Y-21138367D02*
X4292218Y-21100272D01*
X4292218Y-21100272D02*
X4330313Y-21062177D01*
X4330313Y-21062177D02*
X4368409Y-20985986D01*
X4368409Y-20985986D02*
X4368409Y-20909796D01*
X4368409Y-20909796D02*
X4330313Y-20833605D01*
X4330313Y-20833605D02*
X4292218Y-20795510D01*
X4292218Y-20795510D02*
X4216028Y-20757415D01*
X4216028Y-20757415D02*
X4025551Y-20757415D01*
X4025551Y-20757415D02*
X3911266Y-20795510D01*
X3111265Y-21481224D02*
X3149361Y-21519320D01*
X3149361Y-21519320D02*
X3263646Y-21557415D01*
X3263646Y-21557415D02*
X3339837Y-21557415D01*
X3339837Y-21557415D02*
X3454123Y-21519320D01*
X3454123Y-21519320D02*
X3530313Y-21443129D01*
X3530313Y-21443129D02*
X3568408Y-21366939D01*
X3568408Y-21366939D02*
X3606504Y-21214558D01*
X3606504Y-21214558D02*
X3606504Y-21100272D01*
X3606504Y-21100272D02*
X3568408Y-20947891D01*
X3568408Y-20947891D02*
X3530313Y-20871700D01*
X3530313Y-20871700D02*
X3454123Y-20795510D01*
X3454123Y-20795510D02*
X3339837Y-20757415D01*
X3339837Y-20757415D02*
X3263646Y-20757415D01*
X3263646Y-20757415D02*
X3149361Y-20795510D01*
X3149361Y-20795510D02*
X3111265Y-20833605D01*
X2387456Y-21557415D02*
X2768408Y-21557415D01*
X2768408Y-21557415D02*
X2768408Y-20757415D01*
D12*
X24168763Y-7969257D02*
X24242572Y-7864495D01*
X24242572Y-7864495D02*
X24390191Y-7550209D01*
X24390191Y-7550209D02*
X24464001Y-7340685D01*
X24464001Y-7340685D02*
X24537810Y-7026400D01*
X24537810Y-7026400D02*
X24611620Y-6502590D01*
X24611620Y-6502590D02*
X24611620Y-6083542D01*
X24611620Y-6083542D02*
X24537810Y-5559733D01*
X24537810Y-5559733D02*
X24464001Y-5245447D01*
X24464001Y-5245447D02*
X24390191Y-5035923D01*
X24390191Y-5035923D02*
X24242572Y-4721638D01*
X24242572Y-4721638D02*
X24168763Y-4616876D01*
X22471144Y-4826400D02*
X23799715Y-7654971D01*
X19666382Y-4826400D02*
X20994953Y-7654971D01*
X18706858Y-6083542D02*
X18706858Y-6502590D01*
X18633048Y-6502590D02*
X18633048Y-6083542D01*
X18559239Y-5978780D02*
X18559239Y-6607352D01*
X18485429Y-6502590D02*
X18485429Y-6083542D01*
X18411620Y-6083542D02*
X18411620Y-6502590D01*
X18706858Y-6397828D02*
X18559239Y-6607352D01*
X18559239Y-6607352D02*
X18411620Y-6397828D01*
X18706858Y-6188304D02*
X18559239Y-5978780D01*
X18559239Y-5978780D02*
X18411620Y-6188304D01*
X18706858Y-6083542D02*
X18559239Y-5978780D01*
X18559239Y-5978780D02*
X18411620Y-6083542D01*
X18411620Y-6083542D02*
X18337810Y-6293066D01*
X18337810Y-6293066D02*
X18411620Y-6502590D01*
X18411620Y-6502590D02*
X18559239Y-6607352D01*
X18559239Y-6607352D02*
X18706858Y-6502590D01*
X18706858Y-6502590D02*
X18780667Y-6293066D01*
X18780667Y-6293066D02*
X18706858Y-6083542D01*
X16123524Y-4826400D02*
X17452095Y-7654971D01*
X15164000Y-6397828D02*
X15164000Y-6816876D01*
X15533047Y-5664495D02*
X15606857Y-5769257D01*
X15606857Y-5769257D02*
X15680666Y-5978780D01*
X15680666Y-5978780D02*
X15680666Y-6816876D01*
X15680666Y-6816876D02*
X15606857Y-7026400D01*
X15606857Y-7026400D02*
X15459238Y-7131161D01*
X15459238Y-7131161D02*
X15385428Y-7131161D01*
X15385428Y-7131161D02*
X15237809Y-7026400D01*
X15237809Y-7026400D02*
X15164000Y-6816876D01*
X15164000Y-6816876D02*
X15090190Y-7026400D01*
X15090190Y-7026400D02*
X14942571Y-7131161D01*
X14942571Y-7131161D02*
X14868762Y-7131161D01*
X14868762Y-7131161D02*
X14721143Y-7026400D01*
X14721143Y-7026400D02*
X14647333Y-6816876D01*
X14647333Y-6816876D02*
X14647333Y-5978780D01*
X14647333Y-5978780D02*
X14721143Y-5769257D01*
X14721143Y-5769257D02*
X14794952Y-5664495D01*
X12875904Y-4826400D02*
X14204475Y-7654971D01*
X11916380Y-6083542D02*
X11916380Y-6502590D01*
X11842570Y-6502590D02*
X11842570Y-6083542D01*
X11768761Y-5978780D02*
X11768761Y-6607352D01*
X11694951Y-6502590D02*
X11694951Y-6083542D01*
X11621142Y-6083542D02*
X11621142Y-6502590D01*
X11916380Y-6397828D02*
X11768761Y-6607352D01*
X11768761Y-6607352D02*
X11621142Y-6397828D01*
X11916380Y-6188304D02*
X11768761Y-5978780D01*
X11768761Y-5978780D02*
X11621142Y-6188304D01*
X11916380Y-6083542D02*
X11768761Y-5978780D01*
X11768761Y-5978780D02*
X11621142Y-6083542D01*
X11621142Y-6083542D02*
X11547332Y-6293066D01*
X11547332Y-6293066D02*
X11621142Y-6502590D01*
X11621142Y-6502590D02*
X11768761Y-6607352D01*
X11768761Y-6607352D02*
X11916380Y-6502590D01*
X11916380Y-6502590D02*
X11990189Y-6293066D01*
X11990189Y-6293066D02*
X11916380Y-6083542D01*
X9333046Y-4826400D02*
X10661617Y-7654971D01*
X6528284Y-4826400D02*
X7856855Y-7654971D01*
X6159236Y-7969257D02*
X6085426Y-7864495D01*
X6085426Y-7864495D02*
X5937807Y-7550209D01*
X5937807Y-7550209D02*
X5863998Y-7340685D01*
X5863998Y-7340685D02*
X5790188Y-7026400D01*
X5790188Y-7026400D02*
X5716379Y-6502590D01*
X5716379Y-6502590D02*
X5716379Y-6083542D01*
X5716379Y-6083542D02*
X5790188Y-5559733D01*
X5790188Y-5559733D02*
X5863998Y-5245447D01*
X5863998Y-5245447D02*
X5937807Y-5035923D01*
X5937807Y-5035923D02*
X6085426Y-4721638D01*
X6085426Y-4721638D02*
X6159236Y-4616876D01*
D11*
X6249361Y-20757415D02*
X6630313Y-20757415D01*
X6630313Y-20757415D02*
X6668409Y-21138367D01*
X6668409Y-21138367D02*
X6630313Y-21100272D01*
X6630313Y-21100272D02*
X6554123Y-21062177D01*
X6554123Y-21062177D02*
X6363647Y-21062177D01*
X6363647Y-21062177D02*
X6287456Y-21100272D01*
X6287456Y-21100272D02*
X6249361Y-21138367D01*
X6249361Y-21138367D02*
X6211266Y-21214558D01*
X6211266Y-21214558D02*
X6211266Y-21405034D01*
X6211266Y-21405034D02*
X6249361Y-21481224D01*
X6249361Y-21481224D02*
X6287456Y-21519320D01*
X6287456Y-21519320D02*
X6363647Y-21557415D01*
X6363647Y-21557415D02*
X6554123Y-21557415D01*
X6554123Y-21557415D02*
X6630313Y-21519320D01*
X6630313Y-21519320D02*
X6668409Y-21481224D01*
X5982694Y-20757415D02*
X5716027Y-21557415D01*
X5716027Y-21557415D02*
X5449361Y-20757415D01*
D13*
X7034666Y-28825819D02*
X7367999Y-28349628D01*
X7606094Y-28825819D02*
X7606094Y-27825819D01*
X7606094Y-27825819D02*
X7225142Y-27825819D01*
X7225142Y-27825819D02*
X7129904Y-27873438D01*
X7129904Y-27873438D02*
X7082285Y-27921057D01*
X7082285Y-27921057D02*
X7034666Y-28016295D01*
X7034666Y-28016295D02*
X7034666Y-28159152D01*
X7034666Y-28159152D02*
X7082285Y-28254390D01*
X7082285Y-28254390D02*
X7129904Y-28302009D01*
X7129904Y-28302009D02*
X7225142Y-28349628D01*
X7225142Y-28349628D02*
X7606094Y-28349628D01*
X6701332Y-27825819D02*
X6034666Y-27825819D01*
X6034666Y-27825819D02*
X6463237Y-28825819D01*
X22214819Y-32268333D02*
X21738628Y-31935000D01*
X22214819Y-31696905D02*
X21214819Y-31696905D01*
X21214819Y-31696905D02*
X21214819Y-32077857D01*
X21214819Y-32077857D02*
X21262438Y-32173095D01*
X21262438Y-32173095D02*
X21310057Y-32220714D01*
X21310057Y-32220714D02*
X21405295Y-32268333D01*
X21405295Y-32268333D02*
X21548152Y-32268333D01*
X21548152Y-32268333D02*
X21643390Y-32220714D01*
X21643390Y-32220714D02*
X21691009Y-32173095D01*
X21691009Y-32173095D02*
X21738628Y-32077857D01*
X21738628Y-32077857D02*
X21738628Y-31696905D01*
X21548152Y-33125476D02*
X22214819Y-33125476D01*
X21167200Y-32887381D02*
X21881485Y-32649286D01*
X21881485Y-32649286D02*
X21881485Y-33268333D01*
X27354666Y-29333819D02*
X27687999Y-28857628D01*
X27926094Y-29333819D02*
X27926094Y-28333819D01*
X27926094Y-28333819D02*
X27545142Y-28333819D01*
X27545142Y-28333819D02*
X27449904Y-28381438D01*
X27449904Y-28381438D02*
X27402285Y-28429057D01*
X27402285Y-28429057D02*
X27354666Y-28524295D01*
X27354666Y-28524295D02*
X27354666Y-28667152D01*
X27354666Y-28667152D02*
X27402285Y-28762390D01*
X27402285Y-28762390D02*
X27449904Y-28810009D01*
X27449904Y-28810009D02*
X27545142Y-28857628D01*
X27545142Y-28857628D02*
X27926094Y-28857628D01*
X26783237Y-28762390D02*
X26878475Y-28714771D01*
X26878475Y-28714771D02*
X26926094Y-28667152D01*
X26926094Y-28667152D02*
X26973713Y-28571914D01*
X26973713Y-28571914D02*
X26973713Y-28524295D01*
X26973713Y-28524295D02*
X26926094Y-28429057D01*
X26926094Y-28429057D02*
X26878475Y-28381438D01*
X26878475Y-28381438D02*
X26783237Y-28333819D01*
X26783237Y-28333819D02*
X26592761Y-28333819D01*
X26592761Y-28333819D02*
X26497523Y-28381438D01*
X26497523Y-28381438D02*
X26449904Y-28429057D01*
X26449904Y-28429057D02*
X26402285Y-28524295D01*
X26402285Y-28524295D02*
X26402285Y-28571914D01*
X26402285Y-28571914D02*
X26449904Y-28667152D01*
X26449904Y-28667152D02*
X26497523Y-28714771D01*
X26497523Y-28714771D02*
X26592761Y-28762390D01*
X26592761Y-28762390D02*
X26783237Y-28762390D01*
X26783237Y-28762390D02*
X26878475Y-28810009D01*
X26878475Y-28810009D02*
X26926094Y-28857628D01*
X26926094Y-28857628D02*
X26973713Y-28952866D01*
X26973713Y-28952866D02*
X26973713Y-29143342D01*
X26973713Y-29143342D02*
X26926094Y-29238580D01*
X26926094Y-29238580D02*
X26878475Y-29286200D01*
X26878475Y-29286200D02*
X26783237Y-29333819D01*
X26783237Y-29333819D02*
X26592761Y-29333819D01*
X26592761Y-29333819D02*
X26497523Y-29286200D01*
X26497523Y-29286200D02*
X26449904Y-29238580D01*
X26449904Y-29238580D02*
X26402285Y-29143342D01*
X26402285Y-29143342D02*
X26402285Y-28952866D01*
X26402285Y-28952866D02*
X26449904Y-28857628D01*
X26449904Y-28857628D02*
X26497523Y-28810009D01*
X26497523Y-28810009D02*
X26592761Y-28762390D01*
X24370094Y-22475819D02*
X24370094Y-21475819D01*
X24370094Y-21475819D02*
X24131999Y-21475819D01*
X24131999Y-21475819D02*
X23989142Y-21523438D01*
X23989142Y-21523438D02*
X23893904Y-21618676D01*
X23893904Y-21618676D02*
X23846285Y-21713914D01*
X23846285Y-21713914D02*
X23798666Y-21904390D01*
X23798666Y-21904390D02*
X23798666Y-22047247D01*
X23798666Y-22047247D02*
X23846285Y-22237723D01*
X23846285Y-22237723D02*
X23893904Y-22332961D01*
X23893904Y-22332961D02*
X23989142Y-22428200D01*
X23989142Y-22428200D02*
X24131999Y-22475819D01*
X24131999Y-22475819D02*
X24370094Y-22475819D01*
X22941523Y-21809152D02*
X22941523Y-22475819D01*
X23179618Y-21428200D02*
X23417713Y-22142485D01*
X23417713Y-22142485D02*
X22798666Y-22142485D01*
X6748857Y-23872819D02*
X7082190Y-23396628D01*
X7320285Y-23872819D02*
X7320285Y-22872819D01*
X7320285Y-22872819D02*
X6939333Y-22872819D01*
X6939333Y-22872819D02*
X6844095Y-22920438D01*
X6844095Y-22920438D02*
X6796476Y-22968057D01*
X6796476Y-22968057D02*
X6748857Y-23063295D01*
X6748857Y-23063295D02*
X6748857Y-23206152D01*
X6748857Y-23206152D02*
X6796476Y-23301390D01*
X6796476Y-23301390D02*
X6844095Y-23349009D01*
X6844095Y-23349009D02*
X6939333Y-23396628D01*
X6939333Y-23396628D02*
X7320285Y-23396628D01*
X5796476Y-23872819D02*
X6367904Y-23872819D01*
X6082190Y-23872819D02*
X6082190Y-22872819D01*
X6082190Y-22872819D02*
X6177428Y-23015676D01*
X6177428Y-23015676D02*
X6272666Y-23110914D01*
X6272666Y-23110914D02*
X6367904Y-23158533D01*
X5177428Y-22872819D02*
X5082190Y-22872819D01*
X5082190Y-22872819D02*
X4986952Y-22920438D01*
X4986952Y-22920438D02*
X4939333Y-22968057D01*
X4939333Y-22968057D02*
X4891714Y-23063295D01*
X4891714Y-23063295D02*
X4844095Y-23253771D01*
X4844095Y-23253771D02*
X4844095Y-23491866D01*
X4844095Y-23491866D02*
X4891714Y-23682342D01*
X4891714Y-23682342D02*
X4939333Y-23777580D01*
X4939333Y-23777580D02*
X4986952Y-23825200D01*
X4986952Y-23825200D02*
X5082190Y-23872819D01*
X5082190Y-23872819D02*
X5177428Y-23872819D01*
X5177428Y-23872819D02*
X5272666Y-23825200D01*
X5272666Y-23825200D02*
X5320285Y-23777580D01*
X5320285Y-23777580D02*
X5367904Y-23682342D01*
X5367904Y-23682342D02*
X5415523Y-23491866D01*
X5415523Y-23491866D02*
X5415523Y-23253771D01*
X5415523Y-23253771D02*
X5367904Y-23063295D01*
X5367904Y-23063295D02*
X5320285Y-22968057D01*
X5320285Y-22968057D02*
X5272666Y-22920438D01*
X5272666Y-22920438D02*
X5177428Y-22872819D01*
X26719666Y-23999819D02*
X27052999Y-23523628D01*
X27291094Y-23999819D02*
X27291094Y-22999819D01*
X27291094Y-22999819D02*
X26910142Y-22999819D01*
X26910142Y-22999819D02*
X26814904Y-23047438D01*
X26814904Y-23047438D02*
X26767285Y-23095057D01*
X26767285Y-23095057D02*
X26719666Y-23190295D01*
X26719666Y-23190295D02*
X26719666Y-23333152D01*
X26719666Y-23333152D02*
X26767285Y-23428390D01*
X26767285Y-23428390D02*
X26814904Y-23476009D01*
X26814904Y-23476009D02*
X26910142Y-23523628D01*
X26910142Y-23523628D02*
X27291094Y-23523628D01*
X26243475Y-23999819D02*
X26052999Y-23999819D01*
X26052999Y-23999819D02*
X25957761Y-23952200D01*
X25957761Y-23952200D02*
X25910142Y-23904580D01*
X25910142Y-23904580D02*
X25814904Y-23761723D01*
X25814904Y-23761723D02*
X25767285Y-23571247D01*
X25767285Y-23571247D02*
X25767285Y-23190295D01*
X25767285Y-23190295D02*
X25814904Y-23095057D01*
X25814904Y-23095057D02*
X25862523Y-23047438D01*
X25862523Y-23047438D02*
X25957761Y-22999819D01*
X25957761Y-22999819D02*
X26148237Y-22999819D01*
X26148237Y-22999819D02*
X26243475Y-23047438D01*
X26243475Y-23047438D02*
X26291094Y-23095057D01*
X26291094Y-23095057D02*
X26338713Y-23190295D01*
X26338713Y-23190295D02*
X26338713Y-23428390D01*
X26338713Y-23428390D02*
X26291094Y-23523628D01*
X26291094Y-23523628D02*
X26243475Y-23571247D01*
X26243475Y-23571247D02*
X26148237Y-23618866D01*
X26148237Y-23618866D02*
X25957761Y-23618866D01*
X25957761Y-23618866D02*
X25862523Y-23571247D01*
X25862523Y-23571247D02*
X25814904Y-23523628D01*
X25814904Y-23523628D02*
X25767285Y-23428390D01*
X9742666Y-22159580D02*
X9790285Y-22207200D01*
X9790285Y-22207200D02*
X9933142Y-22254819D01*
X9933142Y-22254819D02*
X10028380Y-22254819D01*
X10028380Y-22254819D02*
X10171237Y-22207200D01*
X10171237Y-22207200D02*
X10266475Y-22111961D01*
X10266475Y-22111961D02*
X10314094Y-22016723D01*
X10314094Y-22016723D02*
X10361713Y-21826247D01*
X10361713Y-21826247D02*
X10361713Y-21683390D01*
X10361713Y-21683390D02*
X10314094Y-21492914D01*
X10314094Y-21492914D02*
X10266475Y-21397676D01*
X10266475Y-21397676D02*
X10171237Y-21302438D01*
X10171237Y-21302438D02*
X10028380Y-21254819D01*
X10028380Y-21254819D02*
X9933142Y-21254819D01*
X9933142Y-21254819D02*
X9790285Y-21302438D01*
X9790285Y-21302438D02*
X9742666Y-21350057D01*
X8790285Y-22254819D02*
X9361713Y-22254819D01*
X9075999Y-22254819D02*
X9075999Y-21254819D01*
X9075999Y-21254819D02*
X9171237Y-21397676D01*
X9171237Y-21397676D02*
X9266475Y-21492914D01*
X9266475Y-21492914D02*
X9361713Y-21540533D01*
X7161666Y-32000819D02*
X7494999Y-31524628D01*
X7733094Y-32000819D02*
X7733094Y-31000819D01*
X7733094Y-31000819D02*
X7352142Y-31000819D01*
X7352142Y-31000819D02*
X7256904Y-31048438D01*
X7256904Y-31048438D02*
X7209285Y-31096057D01*
X7209285Y-31096057D02*
X7161666Y-31191295D01*
X7161666Y-31191295D02*
X7161666Y-31334152D01*
X7161666Y-31334152D02*
X7209285Y-31429390D01*
X7209285Y-31429390D02*
X7256904Y-31477009D01*
X7256904Y-31477009D02*
X7352142Y-31524628D01*
X7352142Y-31524628D02*
X7733094Y-31524628D01*
X6256904Y-31000819D02*
X6733094Y-31000819D01*
X6733094Y-31000819D02*
X6780713Y-31477009D01*
X6780713Y-31477009D02*
X6733094Y-31429390D01*
X6733094Y-31429390D02*
X6637856Y-31381771D01*
X6637856Y-31381771D02*
X6399761Y-31381771D01*
X6399761Y-31381771D02*
X6304523Y-31429390D01*
X6304523Y-31429390D02*
X6256904Y-31477009D01*
X6256904Y-31477009D02*
X6209285Y-31572247D01*
X6209285Y-31572247D02*
X6209285Y-31810342D01*
X6209285Y-31810342D02*
X6256904Y-31905580D01*
X6256904Y-31905580D02*
X6304523Y-31953200D01*
X6304523Y-31953200D02*
X6399761Y-32000819D01*
X6399761Y-32000819D02*
X6637856Y-32000819D01*
X6637856Y-32000819D02*
X6733094Y-31953200D01*
X6733094Y-31953200D02*
X6780713Y-31905580D01*
X7606094Y-27047819D02*
X7606094Y-26047819D01*
X7606094Y-26047819D02*
X7367999Y-26047819D01*
X7367999Y-26047819D02*
X7225142Y-26095438D01*
X7225142Y-26095438D02*
X7129904Y-26190676D01*
X7129904Y-26190676D02*
X7082285Y-26285914D01*
X7082285Y-26285914D02*
X7034666Y-26476390D01*
X7034666Y-26476390D02*
X7034666Y-26619247D01*
X7034666Y-26619247D02*
X7082285Y-26809723D01*
X7082285Y-26809723D02*
X7129904Y-26904961D01*
X7129904Y-26904961D02*
X7225142Y-27000200D01*
X7225142Y-27000200D02*
X7367999Y-27047819D01*
X7367999Y-27047819D02*
X7606094Y-27047819D01*
X6082285Y-27047819D02*
X6653713Y-27047819D01*
X6367999Y-27047819D02*
X6367999Y-26047819D01*
X6367999Y-26047819D02*
X6463237Y-26190676D01*
X6463237Y-26190676D02*
X6558475Y-26285914D01*
X6558475Y-26285914D02*
X6653713Y-26333533D01*
X24370094Y-21078819D02*
X24370094Y-20078819D01*
X24370094Y-20078819D02*
X24131999Y-20078819D01*
X24131999Y-20078819D02*
X23989142Y-20126438D01*
X23989142Y-20126438D02*
X23893904Y-20221676D01*
X23893904Y-20221676D02*
X23846285Y-20316914D01*
X23846285Y-20316914D02*
X23798666Y-20507390D01*
X23798666Y-20507390D02*
X23798666Y-20650247D01*
X23798666Y-20650247D02*
X23846285Y-20840723D01*
X23846285Y-20840723D02*
X23893904Y-20935961D01*
X23893904Y-20935961D02*
X23989142Y-21031200D01*
X23989142Y-21031200D02*
X24131999Y-21078819D01*
X24131999Y-21078819D02*
X24370094Y-21078819D01*
X23417713Y-20174057D02*
X23370094Y-20126438D01*
X23370094Y-20126438D02*
X23274856Y-20078819D01*
X23274856Y-20078819D02*
X23036761Y-20078819D01*
X23036761Y-20078819D02*
X22941523Y-20126438D01*
X22941523Y-20126438D02*
X22893904Y-20174057D01*
X22893904Y-20174057D02*
X22846285Y-20269295D01*
X22846285Y-20269295D02*
X22846285Y-20364533D01*
X22846285Y-20364533D02*
X22893904Y-20507390D01*
X22893904Y-20507390D02*
X23465332Y-21078819D01*
X23465332Y-21078819D02*
X22846285Y-21078819D01*
X16011904Y-32074819D02*
X16011904Y-32884342D01*
X16011904Y-32884342D02*
X15964285Y-32979580D01*
X15964285Y-32979580D02*
X15916666Y-33027200D01*
X15916666Y-33027200D02*
X15821428Y-33074819D01*
X15821428Y-33074819D02*
X15630952Y-33074819D01*
X15630952Y-33074819D02*
X15535714Y-33027200D01*
X15535714Y-33027200D02*
X15488095Y-32979580D01*
X15488095Y-32979580D02*
X15440476Y-32884342D01*
X15440476Y-32884342D02*
X15440476Y-32074819D01*
X14440476Y-33074819D02*
X15011904Y-33074819D01*
X14726190Y-33074819D02*
X14726190Y-32074819D01*
X14726190Y-32074819D02*
X14821428Y-32217676D01*
X14821428Y-32217676D02*
X14916666Y-32312914D01*
X14916666Y-32312914D02*
X15011904Y-32360533D01*
X26719666Y-27809819D02*
X27052999Y-27333628D01*
X27291094Y-27809819D02*
X27291094Y-26809819D01*
X27291094Y-26809819D02*
X26910142Y-26809819D01*
X26910142Y-26809819D02*
X26814904Y-26857438D01*
X26814904Y-26857438D02*
X26767285Y-26905057D01*
X26767285Y-26905057D02*
X26719666Y-27000295D01*
X26719666Y-27000295D02*
X26719666Y-27143152D01*
X26719666Y-27143152D02*
X26767285Y-27238390D01*
X26767285Y-27238390D02*
X26814904Y-27286009D01*
X26814904Y-27286009D02*
X26910142Y-27333628D01*
X26910142Y-27333628D02*
X27291094Y-27333628D01*
X26338713Y-26905057D02*
X26291094Y-26857438D01*
X26291094Y-26857438D02*
X26195856Y-26809819D01*
X26195856Y-26809819D02*
X25957761Y-26809819D01*
X25957761Y-26809819D02*
X25862523Y-26857438D01*
X25862523Y-26857438D02*
X25814904Y-26905057D01*
X25814904Y-26905057D02*
X25767285Y-27000295D01*
X25767285Y-27000295D02*
X25767285Y-27095533D01*
X25767285Y-27095533D02*
X25814904Y-27238390D01*
X25814904Y-27238390D02*
X26386332Y-27809819D01*
X26386332Y-27809819D02*
X25767285Y-27809819D01*
X5083333Y-13133819D02*
X5083333Y-13848104D01*
X5083333Y-13848104D02*
X5130952Y-13990961D01*
X5130952Y-13990961D02*
X5226190Y-14086200D01*
X5226190Y-14086200D02*
X5369047Y-14133819D01*
X5369047Y-14133819D02*
X5464285Y-14133819D01*
X4083333Y-14133819D02*
X4654761Y-14133819D01*
X4369047Y-14133819D02*
X4369047Y-13133819D01*
X4369047Y-13133819D02*
X4464285Y-13276676D01*
X4464285Y-13276676D02*
X4559523Y-13371914D01*
X4559523Y-13371914D02*
X4654761Y-13419533D01*
X21131666Y-28919819D02*
X21464999Y-28443628D01*
X21703094Y-28919819D02*
X21703094Y-27919819D01*
X21703094Y-27919819D02*
X21322142Y-27919819D01*
X21322142Y-27919819D02*
X21226904Y-27967438D01*
X21226904Y-27967438D02*
X21179285Y-28015057D01*
X21179285Y-28015057D02*
X21131666Y-28110295D01*
X21131666Y-28110295D02*
X21131666Y-28253152D01*
X21131666Y-28253152D02*
X21179285Y-28348390D01*
X21179285Y-28348390D02*
X21226904Y-28396009D01*
X21226904Y-28396009D02*
X21322142Y-28443628D01*
X21322142Y-28443628D02*
X21703094Y-28443628D01*
X20798332Y-27919819D02*
X20179285Y-27919819D01*
X20179285Y-27919819D02*
X20512618Y-28300771D01*
X20512618Y-28300771D02*
X20369761Y-28300771D01*
X20369761Y-28300771D02*
X20274523Y-28348390D01*
X20274523Y-28348390D02*
X20226904Y-28396009D01*
X20226904Y-28396009D02*
X20179285Y-28491247D01*
X20179285Y-28491247D02*
X20179285Y-28729342D01*
X20179285Y-28729342D02*
X20226904Y-28824580D01*
X20226904Y-28824580D02*
X20274523Y-28872200D01*
X20274523Y-28872200D02*
X20369761Y-28919819D01*
X20369761Y-28919819D02*
X20655475Y-28919819D01*
X20655475Y-28919819D02*
X20750713Y-28872200D01*
X20750713Y-28872200D02*
X20798332Y-28824580D01*
X7161666Y-30349819D02*
X7494999Y-29873628D01*
X7733094Y-30349819D02*
X7733094Y-29349819D01*
X7733094Y-29349819D02*
X7352142Y-29349819D01*
X7352142Y-29349819D02*
X7256904Y-29397438D01*
X7256904Y-29397438D02*
X7209285Y-29445057D01*
X7209285Y-29445057D02*
X7161666Y-29540295D01*
X7161666Y-29540295D02*
X7161666Y-29683152D01*
X7161666Y-29683152D02*
X7209285Y-29778390D01*
X7209285Y-29778390D02*
X7256904Y-29826009D01*
X7256904Y-29826009D02*
X7352142Y-29873628D01*
X7352142Y-29873628D02*
X7733094Y-29873628D01*
X6304523Y-29349819D02*
X6494999Y-29349819D01*
X6494999Y-29349819D02*
X6590237Y-29397438D01*
X6590237Y-29397438D02*
X6637856Y-29445057D01*
X6637856Y-29445057D02*
X6733094Y-29587914D01*
X6733094Y-29587914D02*
X6780713Y-29778390D01*
X6780713Y-29778390D02*
X6780713Y-30159342D01*
X6780713Y-30159342D02*
X6733094Y-30254580D01*
X6733094Y-30254580D02*
X6685475Y-30302200D01*
X6685475Y-30302200D02*
X6590237Y-30349819D01*
X6590237Y-30349819D02*
X6399761Y-30349819D01*
X6399761Y-30349819D02*
X6304523Y-30302200D01*
X6304523Y-30302200D02*
X6256904Y-30254580D01*
X6256904Y-30254580D02*
X6209285Y-30159342D01*
X6209285Y-30159342D02*
X6209285Y-29921247D01*
X6209285Y-29921247D02*
X6256904Y-29826009D01*
X6256904Y-29826009D02*
X6304523Y-29778390D01*
X6304523Y-29778390D02*
X6399761Y-29730771D01*
X6399761Y-29730771D02*
X6590237Y-29730771D01*
X6590237Y-29730771D02*
X6685475Y-29778390D01*
X6685475Y-29778390D02*
X6733094Y-29826009D01*
X6733094Y-29826009D02*
X6780713Y-29921247D01*
X26719666Y-26285819D02*
X27052999Y-25809628D01*
X27291094Y-26285819D02*
X27291094Y-25285819D01*
X27291094Y-25285819D02*
X26910142Y-25285819D01*
X26910142Y-25285819D02*
X26814904Y-25333438D01*
X26814904Y-25333438D02*
X26767285Y-25381057D01*
X26767285Y-25381057D02*
X26719666Y-25476295D01*
X26719666Y-25476295D02*
X26719666Y-25619152D01*
X26719666Y-25619152D02*
X26767285Y-25714390D01*
X26767285Y-25714390D02*
X26814904Y-25762009D01*
X26814904Y-25762009D02*
X26910142Y-25809628D01*
X26910142Y-25809628D02*
X27291094Y-25809628D01*
X25767285Y-26285819D02*
X26338713Y-26285819D01*
X26052999Y-26285819D02*
X26052999Y-25285819D01*
X26052999Y-25285819D02*
X26148237Y-25428676D01*
X26148237Y-25428676D02*
X26243475Y-25523914D01*
X26243475Y-25523914D02*
X26338713Y-25571533D01*
X21703094Y-27555819D02*
X21703094Y-26555819D01*
X21703094Y-26555819D02*
X21464999Y-26555819D01*
X21464999Y-26555819D02*
X21322142Y-26603438D01*
X21322142Y-26603438D02*
X21226904Y-26698676D01*
X21226904Y-26698676D02*
X21179285Y-26793914D01*
X21179285Y-26793914D02*
X21131666Y-26984390D01*
X21131666Y-26984390D02*
X21131666Y-27127247D01*
X21131666Y-27127247D02*
X21179285Y-27317723D01*
X21179285Y-27317723D02*
X21226904Y-27412961D01*
X21226904Y-27412961D02*
X21322142Y-27508200D01*
X21322142Y-27508200D02*
X21464999Y-27555819D01*
X21464999Y-27555819D02*
X21703094Y-27555819D01*
X20798332Y-26555819D02*
X20179285Y-26555819D01*
X20179285Y-26555819D02*
X20512618Y-26936771D01*
X20512618Y-26936771D02*
X20369761Y-26936771D01*
X20369761Y-26936771D02*
X20274523Y-26984390D01*
X20274523Y-26984390D02*
X20226904Y-27032009D01*
X20226904Y-27032009D02*
X20179285Y-27127247D01*
X20179285Y-27127247D02*
X20179285Y-27365342D01*
X20179285Y-27365342D02*
X20226904Y-27460580D01*
X20226904Y-27460580D02*
X20274523Y-27508200D01*
X20274523Y-27508200D02*
X20369761Y-27555819D01*
X20369761Y-27555819D02*
X20655475Y-27555819D01*
X20655475Y-27555819D02*
X20750713Y-27508200D01*
X20750713Y-27508200D02*
X20798332Y-27460580D01*
D14*
%TO.C,R7*%
X9297742Y-27848500D02*
X9772258Y-27848500D01*
X9297742Y-28893500D02*
X9772258Y-28893500D01*
%TO.C,R4*%
X19807500Y-32672258D02*
X19807500Y-32197742D01*
X20852500Y-32672258D02*
X20852500Y-32197742D01*
%TO.C,R8*%
X24377258Y-28356500D02*
X23902742Y-28356500D01*
X24377258Y-29401500D02*
X23902742Y-29401500D01*
%TO.C,D4*%
X19355000Y-22441000D02*
X22015000Y-22441000D01*
X19355000Y-24141000D02*
X19355000Y-22441000D01*
X19355000Y-24141000D02*
X22015000Y-24141000D01*
%TO.C,R10*%
X8789742Y-23657500D02*
X9264258Y-23657500D01*
X8789742Y-24702500D02*
X9264258Y-24702500D01*
%TO.C,R9*%
X24377258Y-23022500D02*
X23902742Y-23022500D01*
X24377258Y-24067500D02*
X23902742Y-24067500D01*
%TO.C,C1*%
X9435420Y-19860000D02*
X9716580Y-19860000D01*
X9435420Y-20880000D02*
X9716580Y-20880000D01*
%TO.C,R5*%
X9297742Y-30896500D02*
X9772258Y-30896500D01*
X9297742Y-31941500D02*
X9772258Y-31941500D01*
%TO.C,D1*%
X11145000Y-25743000D02*
X8485000Y-25743000D01*
X11145000Y-25743000D02*
X11145000Y-27443000D01*
X11145000Y-27443000D02*
X8485000Y-27443000D01*
%TO.C,D2*%
X19355000Y-20536000D02*
X22015000Y-20536000D01*
X19355000Y-22236000D02*
X19355000Y-20536000D01*
X19355000Y-22236000D02*
X22015000Y-22236000D01*
%TO.C,C2*%
X9314748Y-17857000D02*
X9837252Y-17857000D01*
X9314748Y-19327000D02*
X9837252Y-19327000D01*
%TO.C,U1*%
X15250000Y-21660000D02*
X13300000Y-21660000D01*
X15250000Y-21660000D02*
X17200000Y-21660000D01*
X15250000Y-31780000D02*
X13300000Y-31780000D01*
X15250000Y-31780000D02*
X17200000Y-31780000D01*
X12765000Y-32055000D02*
X12285000Y-32055000D01*
X12525000Y-31725000D01*
X12765000Y-32055000D01*
G36*
X12765000Y-32055000D02*
G01*
X12285000Y-32055000D01*
X12525000Y-31725000D01*
X12765000Y-32055000D01*
G37*
%TO.C,R2*%
X24377258Y-26832500D02*
X23902742Y-26832500D01*
X24377258Y-27877500D02*
X23902742Y-27877500D01*
%TO.C,J1*%
X2150000Y-14930000D02*
X2150000Y-16260000D01*
X2150000Y-17530000D02*
X2150000Y-20130000D01*
X3480000Y-14930000D02*
X2150000Y-14930000D01*
X4750000Y-14930000D02*
X4750000Y-17530000D01*
X4750000Y-17530000D02*
X2150000Y-17530000D01*
X7350000Y-14930000D02*
X4750000Y-14930000D01*
X7350000Y-14930000D02*
X7350000Y-20130000D01*
X7350000Y-20130000D02*
X2150000Y-20130000D01*
%TO.C,R3*%
X21202258Y-29372500D02*
X20727742Y-29372500D01*
X21202258Y-30417500D02*
X20727742Y-30417500D01*
%TO.C,R6*%
X9297742Y-29372500D02*
X9772258Y-29372500D01*
X9297742Y-30417500D02*
X9772258Y-30417500D01*
%TO.C,R1*%
X24377258Y-25308500D02*
X23902742Y-25308500D01*
X24377258Y-26353500D02*
X23902742Y-26353500D01*
%TO.C,D3*%
X19355000Y-24600000D02*
X22015000Y-24600000D01*
X19355000Y-26300000D02*
X19355000Y-24600000D01*
X19355000Y-26300000D02*
X22015000Y-26300000D01*
%TD*%
M02*
