%TF.GenerationSoftware,KiCad,Pcbnew,9.0.1*%
%TF.CreationDate,2025-09-02T02:57:31-07:00*%
%TF.ProjectId,pcb,7063622e-6b69-4636-9164-5f7063625858,B0*%
%TF.SameCoordinates,PX7bfa480PY4c4b400*%
%TF.FileFunction,Copper,L1,Top*%
%TF.FilePolarity,Positive*%
%FSLAX46Y46*%
G04 Gerber Fmt 4.6, Leading zero omitted, Abs format (unit mm)*
G04 Created by KiCad (PCBNEW 9.0.1) date 2025-09-02 02:57:31*
%MOMM*%
%LPD*%
G01*
G04 APERTURE LIST*
G04 Aperture macros list*
%AMRoundRect*
0 Rectangle with rounded corners*
0 $1 Rounding radius*
0 $2 $3 $4 $5 $6 $7 $8 $9 X,Y pos of 4 corners*
0 Add a 4 corners polygon primitive as box body*
4,1,4,$2,$3,$4,$5,$6,$7,$8,$9,$2,$3,0*
0 Add four circle primitives for the rounded corners*
1,1,$1+$1,$2,$3*
1,1,$1+$1,$4,$5*
1,1,$1+$1,$6,$7*
1,1,$1+$1,$8,$9*
0 Add four rect primitives between the rounded corners*
20,1,$1+$1,$2,$3,$4,$5,0*
20,1,$1+$1,$4,$5,$6,$7,0*
20,1,$1+$1,$6,$7,$8,$9,0*
20,1,$1+$1,$8,$9,$2,$3,0*%
G04 Aperture macros list end*
%TA.AperFunction,ComponentPad*%
%ADD10RoundRect,0.225000X0.525000X-0.525000X0.525000X0.525000X-0.525000X0.525000X-0.525000X-0.525000X0*%
%TD*%
%TA.AperFunction,ComponentPad*%
%ADD11C,1.500000*%
%TD*%
%TA.AperFunction,SMDPad,CuDef*%
%ADD12R,1.050000X0.650000*%
%TD*%
%TA.AperFunction,ComponentPad*%
%ADD13C,3.100000*%
%TD*%
%TA.AperFunction,ConnectorPad*%
%ADD14C,4.500000*%
%TD*%
%TA.AperFunction,SMDPad,CuDef*%
%ADD15R,0.650000X1.050000*%
%TD*%
%TA.AperFunction,ComponentPad*%
%ADD16R,1.700000X1.700000*%
%TD*%
%TA.AperFunction,ComponentPad*%
%ADD17C,1.700000*%
%TD*%
%TA.AperFunction,ViaPad*%
%ADD18C,0.600000*%
%TD*%
%TA.AperFunction,ViaPad*%
%ADD19C,0.700000*%
%TD*%
%TA.AperFunction,Conductor*%
%ADD20C,0.200000*%
%TD*%
%TA.AperFunction,Conductor*%
%ADD21C,0.500000*%
%TD*%
%TA.AperFunction,Conductor*%
%ADD22C,1.000000*%
%TD*%
G04 APERTURE END LIST*
D10*
%TO.P,U3,1,e*%
%TO.N,/SEG4*%
X17790000Y-10210000D03*
D11*
%TO.P,U3,2,d*%
%TO.N,/SEG3*%
X20330000Y-10210000D03*
%TO.P,U3,3,c*%
%TO.N,/SEG2*%
X22870000Y-10210000D03*
%TO.P,U3,4,g*%
%TO.N,/SEG6*%
X25410000Y-10210000D03*
%TO.P,U3,5,DP*%
%TO.N,/SEG7*%
X27950000Y-10210000D03*
%TO.P,U3,6,CA_D2*%
%TO.N,Net-(D3-A)*%
X27950000Y-2590000D03*
%TO.P,U3,7,a*%
%TO.N,/SEG0*%
X25410000Y-2590000D03*
%TO.P,U3,8,b*%
%TO.N,/SEG1*%
X22870000Y-2590000D03*
%TO.P,U3,9,CA_D1*%
%TO.N,Net-(D4-A)*%
X20330000Y-2590000D03*
%TO.P,U3,10,f*%
%TO.N,/SEG5*%
X17790000Y-2590000D03*
%TD*%
D12*
%TO.P,SW1,1,1*%
%TO.N,/SEG3*%
X11875000Y-16425000D03*
X16025000Y-16425000D03*
%TO.P,SW1,2,2*%
%TO.N,Net-(R10-Pad1)*%
X11875000Y-18575000D03*
X16025000Y-18575000D03*
%TD*%
%TO.P,SW5,1,1*%
%TO.N,/SEG2*%
X25225000Y-27775000D03*
X21075000Y-27775000D03*
%TO.P,SW5,2,2*%
%TO.N,Net-(R9-Pad1)*%
X25225000Y-25625000D03*
X21075000Y-25625000D03*
%TD*%
%TO.P,SW4,1,1*%
%TO.N,/SEG6*%
X2675000Y-25625000D03*
X6825000Y-25625000D03*
%TO.P,SW4,2,2*%
%TO.N,Net-(R9-Pad1)*%
X2675000Y-27775000D03*
X6825000Y-27775000D03*
%TD*%
D13*
%TO.P,H3,1,1*%
%TO.N,GND*%
X26800000Y-14500000D03*
D14*
X26800000Y-14500000D03*
%TD*%
D15*
%TO.P,SW6,1,1*%
%TO.N,/SEG3*%
X25425000Y-38450000D03*
X25425000Y-34300000D03*
%TO.P,SW6,2,2*%
%TO.N,Net-(R9-Pad1)*%
X27575000Y-38450000D03*
X27575000Y-34300000D03*
%TD*%
D10*
%TO.P,U2,1,e*%
%TO.N,/SEG4*%
X2550000Y-10210000D03*
D11*
%TO.P,U2,2,d*%
%TO.N,/SEG3*%
X5090000Y-10210000D03*
%TO.P,U2,3,c*%
%TO.N,/SEG2*%
X7630000Y-10210000D03*
%TO.P,U2,4,g*%
%TO.N,/SEG6*%
X10170000Y-10210000D03*
%TO.P,U2,5,DP*%
%TO.N,/SEG7*%
X12710000Y-10210000D03*
%TO.P,U2,6,CA_D2*%
%TO.N,Net-(D2-A)*%
X12710000Y-2590000D03*
%TO.P,U2,7,a*%
%TO.N,/SEG0*%
X10170000Y-2590000D03*
%TO.P,U2,8,b*%
%TO.N,/SEG1*%
X7630000Y-2590000D03*
%TO.P,U2,9,CA_D1*%
%TO.N,Net-(D1-A)*%
X5090000Y-2590000D03*
%TO.P,U2,10,f*%
%TO.N,/SEG5*%
X2550000Y-2590000D03*
%TD*%
D12*
%TO.P,SW2,1,1*%
%TO.N,/SEG4*%
X16025000Y-27775000D03*
X11875000Y-27775000D03*
%TO.P,SW2,2,2*%
%TO.N,Net-(R10-Pad1)*%
X16025000Y-25625000D03*
X11875000Y-25625000D03*
%TD*%
%TO.P,SW3,1,1*%
%TO.N,/SEG4*%
X11875000Y-34835000D03*
X16025000Y-34835000D03*
%TO.P,SW3,2,2*%
%TO.N,Net-(R9-Pad1)*%
X11875000Y-36985000D03*
X16025000Y-36985000D03*
%TD*%
D13*
%TO.P,H4,1,1*%
%TO.N,GND*%
X2800000Y-38000000D03*
D14*
X2800000Y-38000000D03*
%TD*%
D16*
%TO.P,J1,1,Pin_1*%
%TO.N,GND*%
X3480000Y-16260000D03*
D17*
%TO.P,J1,2,Pin_2*%
%TO.N,/SDA*%
X6020000Y-16260000D03*
%TO.P,J1,3,Pin_3*%
%TO.N,/SCL*%
X3480000Y-18800000D03*
%TO.P,J1,4,Pin_4*%
%TO.N,+5V*%
X6020000Y-18800000D03*
%TD*%
D18*
%TO.N,GND*%
X2042000Y-14655000D03*
X29601000Y-40055000D03*
X29601000Y-30530000D03*
%TO.N,/SEG6*%
X9535000Y-26339000D03*
D19*
%TO.N,/SEG2*%
X22870000Y-30022000D03*
D18*
%TO.N,Net-(D3-A)*%
X29700000Y-28244000D03*
%TO.N,/SEG7*%
X25918000Y-28752000D03*
D19*
%TO.N,/SEG1*%
X29474000Y-1066000D03*
%TO.N,Net-(D1-A)*%
X1724500Y-21195500D03*
%TO.N,GND*%
X1250000Y-33020000D03*
X7620000Y-39624000D03*
X6096000Y-39624000D03*
X1250000Y-34544000D03*
X10668000Y-39624000D03*
X9144000Y-39624000D03*
%TO.N,/SEG3*%
X21092000Y-34086000D03*
%TO.N,/SEG4*%
X7503000Y-30612000D03*
%TO.N,/SEG6*%
X6868000Y-24307000D03*
D18*
%TO.N,Net-(R9-Pad1)*%
X24140000Y-22910000D03*
%TO.N,Net-(R10-Pad1)*%
X9789000Y-25323000D03*
%TD*%
D20*
%TO.N,GND*%
X2800000Y-38000000D02*
X5199000Y-40399000D01*
X5199000Y-40399000D02*
X28241000Y-40399000D01*
X28241000Y-40399000D02*
X29474000Y-39166000D01*
X29474000Y-39166000D02*
X29474000Y-31038000D01*
X29474000Y-31038000D02*
X28712000Y-30276000D01*
%TO.N,Net-(R9-Pad1)*%
X24140000Y-24540000D02*
X24140000Y-22910000D01*
X24288000Y-24688000D02*
X24140000Y-24540000D01*
D21*
%TO.N,/SEG3*%
X5090000Y-10210000D02*
X6360000Y-8940000D01*
X11948000Y-14782000D02*
X11948000Y-16352000D01*
X11948000Y-16352000D02*
X11875000Y-16425000D01*
X6360000Y-8940000D02*
X10932000Y-8940000D01*
X10932000Y-8940000D02*
X11440000Y-9448000D01*
X11440000Y-9448000D02*
X11440000Y-14274000D01*
X11440000Y-14274000D02*
X11948000Y-14782000D01*
%TO.N,/SEG6*%
X9535000Y-26339000D02*
X8900000Y-25704000D01*
X8900000Y-25704000D02*
X8900000Y-15544000D01*
X8900000Y-15544000D02*
X10170000Y-14274000D01*
X10170000Y-14274000D02*
X10170000Y-10209998D01*
%TO.N,/SEG7*%
X25918000Y-28752000D02*
X27696000Y-26974000D01*
X26553000Y-11607000D02*
X27950000Y-10210000D01*
X27696000Y-26974000D02*
X27696000Y-19608000D01*
X27696000Y-19608000D02*
X23886000Y-15798000D01*
X23886000Y-15798000D02*
X23886000Y-13258000D01*
X23886000Y-13258000D02*
X25537000Y-11607000D01*
X25537000Y-11607000D02*
X26553000Y-11607000D01*
%TO.N,/SEG2*%
X25225000Y-27775000D02*
X26680000Y-26320000D01*
X26680000Y-26320000D02*
X26680000Y-20116000D01*
X26680000Y-20116000D02*
X22870000Y-16306000D01*
X22870000Y-16306000D02*
X22870000Y-10210000D01*
%TO.N,GND*%
X28712000Y-30276000D02*
X28712000Y-16412000D01*
D20*
X28712000Y-16412000D02*
X26800000Y-14500000D01*
D21*
%TO.N,/SEG1*%
X23594339Y-812000D02*
X22870000Y-812000D01*
X22870000Y-812000D02*
X22870000Y-2590000D01*
%TO.N,Net-(D1-A)*%
X5090000Y-2590000D02*
X3251000Y-751000D01*
X3251000Y-751000D02*
X901000Y-751000D01*
X901000Y-751000D02*
X772000Y-880000D01*
X772000Y-880000D02*
X772000Y-20287500D01*
%TO.N,/SEG4*%
X2550000Y-10210000D02*
X4582000Y-8178000D01*
X4582000Y-8178000D02*
X15758000Y-8178000D01*
X15758000Y-8178000D02*
X17790000Y-10210000D01*
%TO.N,Net-(D1-A)*%
X816500Y-20287500D02*
X1724500Y-21195500D01*
%TO.N,/SEG1*%
X23594339Y-812000D02*
X29220000Y-812000D01*
X29220000Y-812000D02*
X29474000Y-1066000D01*
%TO.N,/SEG7*%
X27950000Y-10210000D02*
X26680000Y-8940000D01*
X26680000Y-8940000D02*
X19822000Y-8940000D01*
X19822000Y-8940000D02*
X19060000Y-9702000D01*
X19060000Y-10972000D02*
X18552000Y-11480000D01*
X19060000Y-9702000D02*
X19060000Y-10972000D01*
X18552000Y-11480000D02*
X13980000Y-11480000D01*
X13980000Y-11480000D02*
X12710000Y-10210000D01*
%TO.N,/SEG4*%
X8646000Y-27863000D02*
X7884000Y-27101000D01*
X7884000Y-27101000D02*
X7884000Y-15544000D01*
X7884000Y-15544000D02*
X2550000Y-10210000D01*
%TO.N,/SEG2*%
X21075000Y-27775000D02*
X22870000Y-27775000D01*
D20*
X22870000Y-30022000D02*
X22870000Y-27775000D01*
D21*
%TO.N,Net-(D3-A)*%
X29700000Y-28244000D02*
X29700000Y-4142000D01*
X29700000Y-4142000D02*
X28148000Y-2590000D01*
D20*
X28148000Y-2590000D02*
X27950000Y-2590000D01*
D21*
%TO.N,/SEG5*%
X2550000Y-2590000D02*
X3820000Y-3860000D01*
X3820000Y-3860000D02*
X16520000Y-3860000D01*
X16520000Y-3860000D02*
X17790000Y-2590000D01*
%TO.N,/SEG1*%
X22870000Y-812000D02*
X9408000Y-812000D01*
X9408000Y-812000D02*
X7630000Y-2590000D01*
%TO.N,/SEG3*%
X17655000Y-16425000D02*
X20330000Y-13750000D01*
X20330000Y-13750000D02*
X20330000Y-10210000D01*
D20*
%TO.N,GND*%
X889000Y-36089000D02*
X2800000Y-38000000D01*
X2423000Y-24112000D02*
X1250000Y-25285000D01*
X1250000Y-25285000D02*
X1250000Y-33020000D01*
X1915000Y-16260000D02*
X1915000Y-19735000D01*
X2423000Y-20243000D02*
X2423000Y-24112000D01*
X889000Y-34905000D02*
X889000Y-36089000D01*
X3480000Y-16260000D02*
X1915000Y-16260000D01*
X1915000Y-19735000D02*
X2423000Y-20243000D01*
X1250000Y-33020000D02*
X1250000Y-34544000D01*
X1250000Y-34544000D02*
X889000Y-34905000D01*
D21*
%TO.N,/SEG6*%
X10170000Y-10210000D02*
X10170000Y-9829000D01*
D20*
%TO.N,/SEG2*%
X25225000Y-27775000D02*
X25425000Y-27775000D01*
D21*
X22870000Y-27775000D02*
X25225000Y-27775000D01*
%TO.N,/SEG3*%
X21306000Y-34300000D02*
X21092000Y-34086000D01*
X25425000Y-38450000D02*
X25425000Y-34300000D01*
X11875000Y-16425000D02*
X16025000Y-16425000D01*
X16025000Y-16425000D02*
X17655000Y-16425000D01*
X25425000Y-34300000D02*
X21306000Y-34300000D01*
D22*
X17790000Y-16560000D02*
X17790000Y-30784000D01*
D21*
X17790000Y-30784000D02*
X21092000Y-34086000D01*
D20*
%TO.N,/SEG4*%
X3023343Y-10210000D02*
X2550000Y-10210000D01*
D21*
X2550000Y-10250000D02*
X2550000Y-10210000D01*
D20*
%TO.N,/SEG3*%
X17655000Y-16425000D02*
X17790000Y-16560000D01*
%TO.N,/SEG4*%
X11875000Y-34835000D02*
X11675000Y-34835000D01*
D21*
X8646000Y-27863000D02*
X8646000Y-28371000D01*
X7503000Y-29514000D02*
X7503000Y-30612000D01*
X11875000Y-27775000D02*
X8734000Y-27775000D01*
X16025000Y-27775000D02*
X11875000Y-27775000D01*
D20*
X8734000Y-27775000D02*
X8646000Y-27863000D01*
D21*
X8646000Y-28371000D02*
X7503000Y-29514000D01*
X11875000Y-34835000D02*
X16025000Y-34835000D01*
X11675000Y-34835000D02*
X7503000Y-30663000D01*
D20*
X7503000Y-30663000D02*
X7503000Y-30612000D01*
D21*
%TO.N,/SEG6*%
X6825000Y-25625000D02*
X6825000Y-24350000D01*
X2675000Y-25625000D02*
X6825000Y-25625000D01*
D20*
%TO.N,Net-(D1-A)*%
X5090000Y-2590000D02*
X4704000Y-2590000D01*
%TO.N,/SEG6*%
X6825000Y-24350000D02*
X6868000Y-24307000D01*
D21*
%TO.N,Net-(R9-Pad1)*%
X24725000Y-39624000D02*
X21561000Y-36460000D01*
X4781000Y-29819000D02*
X6825000Y-27775000D01*
X21075000Y-25625000D02*
X19695000Y-27005000D01*
D20*
X27575000Y-33838000D02*
X27575000Y-34300000D01*
D21*
X27575000Y-38450000D02*
X27575000Y-34300000D01*
D20*
X2675000Y-27775000D02*
X2675000Y-27785000D01*
D21*
X24688000Y-24688000D02*
X25225000Y-25225000D01*
X21561000Y-36460000D02*
X17896000Y-36460000D01*
X20884000Y-31084000D02*
X24821000Y-31084000D01*
X26797000Y-39624000D02*
X24725000Y-39624000D01*
X19695000Y-27005000D02*
X19695000Y-29895000D01*
X11875000Y-36985000D02*
X4709000Y-29819000D01*
X27575000Y-38450000D02*
X27575000Y-38846000D01*
X27575000Y-38846000D02*
X26797000Y-39624000D01*
X24821000Y-31084000D02*
X27575000Y-33838000D01*
X17896000Y-36460000D02*
X17272000Y-37084000D01*
D20*
X4709000Y-29819000D02*
X4781000Y-29819000D01*
D21*
X19695000Y-29895000D02*
X20884000Y-31084000D01*
D20*
X16025000Y-36985000D02*
X17173000Y-36985000D01*
D21*
X2675000Y-27785000D02*
X4709000Y-29819000D01*
X24288000Y-24688000D02*
X24688000Y-24688000D01*
X25225000Y-25625000D02*
X21075000Y-25625000D01*
D20*
X17173000Y-36985000D02*
X17272000Y-37084000D01*
D21*
X16025000Y-36985000D02*
X11875000Y-36985000D01*
X25225000Y-25225000D02*
X25225000Y-25625000D01*
%TO.N,Net-(R10-Pad1)*%
X11875000Y-25625000D02*
X16025000Y-25625000D01*
X11875000Y-25625000D02*
X10091000Y-25625000D01*
X11875000Y-25625000D02*
X11875000Y-18575000D01*
X11875000Y-18575000D02*
X16025000Y-18575000D01*
X10091000Y-25625000D02*
X9789000Y-25323000D01*
%TD*%
%TA.AperFunction,Conductor*%
%TO.N,/SEG6*%
G36*
X7052834Y-19906680D02*
G01*
X7108767Y-19948552D01*
X7133184Y-20014016D01*
X7133500Y-20022862D01*
X7133500Y-24690138D01*
X7113815Y-24757177D01*
X7097181Y-24777819D01*
X7075000Y-24800000D01*
X7075000Y-25501000D01*
X7055315Y-25568039D01*
X7002511Y-25613794D01*
X6951000Y-25625000D01*
X6825000Y-25625000D01*
X6825000Y-25751000D01*
X6805315Y-25818039D01*
X6752511Y-25863794D01*
X6701000Y-25875000D01*
X5800000Y-25875000D01*
X5800000Y-25997844D01*
X5806401Y-26057372D01*
X5806403Y-26057379D01*
X5849030Y-26171667D01*
X5854014Y-26241358D01*
X5820529Y-26302681D01*
X5759206Y-26336166D01*
X5732848Y-26339000D01*
X3767152Y-26339000D01*
X3700113Y-26319315D01*
X3654358Y-26266511D01*
X3644414Y-26197353D01*
X3650970Y-26171667D01*
X3693596Y-26057379D01*
X3693598Y-26057372D01*
X3699999Y-25997844D01*
X3700000Y-25997827D01*
X3700000Y-25875000D01*
X2799000Y-25875000D01*
X2731961Y-25855315D01*
X2686206Y-25802511D01*
X2675000Y-25751000D01*
X2675000Y-25499000D01*
X2694685Y-25431961D01*
X2747489Y-25386206D01*
X2799000Y-25375000D01*
X3700000Y-25375000D01*
X3700000Y-25252172D01*
X3699999Y-25252155D01*
X5800000Y-25252155D01*
X5800000Y-25375000D01*
X6575000Y-25375000D01*
X6575000Y-24800000D01*
X6252155Y-24800000D01*
X6192627Y-24806401D01*
X6192620Y-24806403D01*
X6057913Y-24856645D01*
X6057906Y-24856649D01*
X5942812Y-24942809D01*
X5942809Y-24942812D01*
X5856649Y-25057906D01*
X5856645Y-25057913D01*
X5806403Y-25192620D01*
X5806401Y-25192627D01*
X5800000Y-25252155D01*
X3699999Y-25252155D01*
X3693598Y-25192627D01*
X3693596Y-25192620D01*
X3643354Y-25057913D01*
X3643350Y-25057906D01*
X3557190Y-24942812D01*
X3557187Y-24942809D01*
X3442093Y-24856649D01*
X3442086Y-24856645D01*
X3307379Y-24806403D01*
X3307372Y-24806401D01*
X3247844Y-24800000D01*
X2883598Y-24800000D01*
X2816559Y-24780315D01*
X2770804Y-24727511D01*
X2760860Y-24658353D01*
X2789885Y-24594797D01*
X2795917Y-24588319D01*
X2804232Y-24580003D01*
X2903520Y-24480716D01*
X2982577Y-24343784D01*
X3023501Y-24191057D01*
X3023501Y-24032942D01*
X3023501Y-24025347D01*
X3023500Y-24025329D01*
X3023500Y-20494000D01*
X3043185Y-20426961D01*
X3095989Y-20381206D01*
X3147500Y-20370000D01*
X6487000Y-20370000D01*
X6921819Y-19935181D01*
X6983142Y-19901696D01*
X7052834Y-19906680D01*
G37*
%TD.AperFunction*%
%TD*%
%TA.AperFunction,Conductor*%
%TO.N,GND*%
G36*
X1770278Y-38879466D02*
G01*
X1920534Y-39029722D01*
X2038281Y-39115270D01*
X1039845Y-40113706D01*
X1206142Y-40246323D01*
X1206144Y-40246324D01*
X1244629Y-40270506D01*
X1290920Y-40322841D01*
X1301568Y-40391894D01*
X1273193Y-40455743D01*
X1214803Y-40494115D01*
X1178657Y-40499500D01*
X624500Y-40499500D01*
X557461Y-40479815D01*
X511706Y-40427011D01*
X500500Y-40375500D01*
X500500Y-39880878D01*
X520185Y-39813839D01*
X572989Y-39768084D01*
X631453Y-39757073D01*
X686293Y-39760152D01*
X1684728Y-38761716D01*
X1770278Y-38879466D01*
G37*
%TD.AperFunction*%
%TA.AperFunction,Conductor*%
G36*
X705703Y-21261428D02*
G01*
X724163Y-21281363D01*
X1020579Y-21681775D01*
X1050000Y-21718306D01*
X1049720Y-21718531D01*
X1057656Y-21728357D01*
X1063874Y-21737662D01*
X1182338Y-21856126D01*
X1321637Y-21949203D01*
X1476418Y-22013316D01*
X1640728Y-22045999D01*
X1640732Y-22046000D01*
X1640733Y-22046000D01*
X1808268Y-22046000D01*
X1808269Y-22045999D01*
X1972582Y-22013316D01*
X2127363Y-21949203D01*
X2266662Y-21856126D01*
X2266665Y-21856123D01*
X2306319Y-21816470D01*
X2367642Y-21782985D01*
X2437334Y-21787969D01*
X2493267Y-21829841D01*
X2517684Y-21895305D01*
X2518000Y-21904151D01*
X2518000Y-24027051D01*
X2518001Y-24027086D01*
X2518001Y-24099986D01*
X2498316Y-24167025D01*
X2481682Y-24187667D01*
X2438480Y-24230869D01*
X2425957Y-24243847D01*
X2419945Y-24250304D01*
X2407851Y-24263767D01*
X2330066Y-24384804D01*
X2330056Y-24384822D01*
X2301298Y-24447796D01*
X2301045Y-24448345D01*
X2260505Y-24586418D01*
X2260505Y-24675500D01*
X2240820Y-24742539D01*
X2188016Y-24788294D01*
X2136508Y-24799500D01*
X2102131Y-24799500D01*
X2102123Y-24799501D01*
X2042516Y-24805908D01*
X1907671Y-24856202D01*
X1907664Y-24856206D01*
X1792455Y-24942452D01*
X1792452Y-24942455D01*
X1706206Y-25057664D01*
X1706202Y-25057671D01*
X1655910Y-25192513D01*
X1655909Y-25192517D01*
X1649500Y-25252127D01*
X1649500Y-25252134D01*
X1649500Y-25252135D01*
X1649500Y-25997870D01*
X1649501Y-25997876D01*
X1655908Y-26057482D01*
X1657676Y-26064960D01*
X1661000Y-26093479D01*
X1661000Y-27252066D01*
X1665536Y-27260374D01*
X1660554Y-27330059D01*
X1655910Y-27342510D01*
X1655909Y-27342516D01*
X1655909Y-27342517D01*
X1649500Y-27402127D01*
X1649500Y-27402134D01*
X1649500Y-27402135D01*
X1649500Y-28147870D01*
X1649501Y-28147876D01*
X1655908Y-28207483D01*
X1706202Y-28342328D01*
X1706206Y-28342335D01*
X1775358Y-28434709D01*
X1792454Y-28457546D01*
X1870113Y-28515681D01*
X1888958Y-28540856D01*
X1909246Y-28564884D01*
X1910325Y-28569399D01*
X1911983Y-28571614D01*
X1918755Y-28598873D01*
X1919500Y-28604571D01*
X1919500Y-28606000D01*
X1931051Y-28713447D01*
X1936889Y-28740285D01*
X1936890Y-28740290D01*
X1987171Y-28875098D01*
X2073396Y-28990280D01*
X2073400Y-28990284D01*
X2073405Y-28990290D01*
X10280853Y-37197738D01*
X10280877Y-37197761D01*
X10293839Y-37210270D01*
X10300317Y-37216302D01*
X10313765Y-37228383D01*
X10434805Y-37306170D01*
X10434810Y-37306172D01*
X10434815Y-37306175D01*
X10463528Y-37319287D01*
X10497938Y-37335002D01*
X10498349Y-37335191D01*
X10498358Y-37335193D01*
X10498361Y-37335195D01*
X10498364Y-37335197D01*
X10636417Y-37375731D01*
X10754239Y-37375730D01*
X10821279Y-37395414D01*
X10867034Y-37448218D01*
X10870422Y-37456396D01*
X10906203Y-37552330D01*
X10906206Y-37552335D01*
X10975358Y-37644709D01*
X10992454Y-37667546D01*
X11070113Y-37725681D01*
X11089247Y-37751242D01*
X11109638Y-37775784D01*
X11110561Y-37779714D01*
X11111983Y-37781614D01*
X11118878Y-37809847D01*
X11119500Y-37814917D01*
X11119500Y-37816000D01*
X11131051Y-37923447D01*
X11134109Y-37937505D01*
X11134110Y-37937510D01*
X11134750Y-37939227D01*
X11134751Y-37939230D01*
X11168299Y-38029174D01*
X11183876Y-38070938D01*
X11184392Y-38072320D01*
X11192927Y-38083721D01*
X11270616Y-38187500D01*
X11270620Y-38187504D01*
X11270625Y-38187510D01*
X11884127Y-38801011D01*
X12443239Y-39360123D01*
X12443255Y-39360137D01*
X12443262Y-39360144D01*
X12483480Y-39396271D01*
X12483492Y-39396281D01*
X12483500Y-39396288D01*
X12498778Y-39408600D01*
X12504143Y-39412923D01*
X12526084Y-39428744D01*
X12548026Y-39444567D01*
X12678903Y-39504338D01*
X12745942Y-39524023D01*
X12745946Y-39524024D01*
X12888362Y-39544500D01*
X12888365Y-39544500D01*
X18571600Y-39544500D01*
X18583958Y-39543970D01*
X18614866Y-39542645D01*
X18636015Y-39540828D01*
X18678960Y-39535277D01*
X18815797Y-39490811D01*
X18851605Y-39473204D01*
X18920451Y-39461287D01*
X18984811Y-39488482D01*
X19006636Y-39511590D01*
X19029207Y-39542656D01*
X19029208Y-39542657D01*
X19029209Y-39542658D01*
X19207345Y-39720794D01*
X19207350Y-39720798D01*
X19335411Y-39813839D01*
X19411155Y-39868870D01*
X19554184Y-39941747D01*
X19635616Y-39983239D01*
X19635618Y-39983239D01*
X19635621Y-39983241D01*
X19875215Y-40061090D01*
X20124038Y-40100500D01*
X20124039Y-40100500D01*
X20375961Y-40100500D01*
X20375962Y-40100500D01*
X20624785Y-40061090D01*
X20864379Y-39983241D01*
X21088845Y-39868870D01*
X21292656Y-39720793D01*
X21470793Y-39542656D01*
X21493923Y-39510819D01*
X21549249Y-39468155D01*
X21618862Y-39462174D01*
X21645749Y-39470909D01*
X21718945Y-39504338D01*
X21785984Y-39524023D01*
X21785988Y-39524024D01*
X21928404Y-39544500D01*
X23532770Y-39544500D01*
X23599809Y-39564185D01*
X23620451Y-39580819D01*
X24246586Y-40206954D01*
X24276058Y-40226645D01*
X24320270Y-40256186D01*
X24341412Y-40270313D01*
X24344537Y-40272401D01*
X24362834Y-40294297D01*
X24389338Y-40326012D01*
X24389338Y-40326014D01*
X24389339Y-40326015D01*
X24391778Y-40345442D01*
X24398044Y-40395337D01*
X24398042Y-40395339D01*
X24398043Y-40395341D01*
X24382889Y-40427011D01*
X24367888Y-40458364D01*
X24367887Y-40458364D01*
X24367886Y-40458367D01*
X24327813Y-40483117D01*
X24308444Y-40495082D01*
X24308442Y-40495082D01*
X24308441Y-40495083D01*
X24308437Y-40495082D01*
X24275641Y-40499500D01*
X4421343Y-40499500D01*
X4354304Y-40479815D01*
X4308549Y-40427011D01*
X4298605Y-40357853D01*
X4327630Y-40294297D01*
X4355371Y-40270506D01*
X4393851Y-40246326D01*
X4560153Y-40113706D01*
X3561717Y-39115270D01*
X3679466Y-39029722D01*
X3829722Y-38879466D01*
X3915270Y-38761717D01*
X4913706Y-39760153D01*
X5046326Y-39593851D01*
X5210658Y-39332320D01*
X5344671Y-39054039D01*
X5446685Y-38762499D01*
X5515416Y-38461367D01*
X5515418Y-38461355D01*
X5549999Y-38154441D01*
X5550000Y-38154439D01*
X5550000Y-37845560D01*
X5549999Y-37845558D01*
X5515418Y-37538644D01*
X5515416Y-37538632D01*
X5446685Y-37237500D01*
X5344671Y-36945960D01*
X5210658Y-36667679D01*
X5046324Y-36406144D01*
X5046323Y-36406142D01*
X4913706Y-36239845D01*
X3915270Y-37238281D01*
X3829722Y-37120534D01*
X3679466Y-36970278D01*
X3561716Y-36884728D01*
X4560152Y-35886293D01*
X4393845Y-35753669D01*
X4132320Y-35589341D01*
X3854039Y-35455328D01*
X3562498Y-35353314D01*
X3562500Y-35353314D01*
X3261367Y-35284583D01*
X3261355Y-35284581D01*
X2954441Y-35250000D01*
X2645558Y-35250000D01*
X2338644Y-35284581D01*
X2338632Y-35284583D01*
X2037500Y-35353314D01*
X1745960Y-35455328D01*
X1467679Y-35589341D01*
X1206144Y-35753675D01*
X1206140Y-35753678D01*
X1039845Y-35886292D01*
X2038282Y-36884729D01*
X1920534Y-36970278D01*
X1770278Y-37120534D01*
X1684729Y-37238282D01*
X686292Y-36239845D01*
X631452Y-36242925D01*
X619252Y-36240075D01*
X606853Y-36241858D01*
X585873Y-36232276D01*
X563414Y-36227030D01*
X554692Y-36218037D01*
X543297Y-36212833D01*
X530827Y-36193429D01*
X514771Y-36176874D01*
X511387Y-36163179D01*
X505523Y-36154055D01*
X500500Y-36119120D01*
X500500Y-21355141D01*
X520185Y-21288102D01*
X572989Y-21242347D01*
X642147Y-21232403D01*
X705703Y-21261428D01*
G37*
%TD.AperFunction*%
%TA.AperFunction,Conductor*%
G36*
X28913181Y-16259628D02*
G01*
X28946666Y-16320951D01*
X28949500Y-16347309D01*
X28949500Y-27939396D01*
X28940062Y-27986844D01*
X28930263Y-28010503D01*
X28930262Y-28010506D01*
X28930260Y-28010511D01*
X28899500Y-28165153D01*
X28899500Y-28322846D01*
X28930261Y-28477489D01*
X28930264Y-28477501D01*
X28990602Y-28623172D01*
X28990609Y-28623185D01*
X29078210Y-28754288D01*
X29078213Y-28754292D01*
X29189707Y-28865786D01*
X29189711Y-28865789D01*
X29320814Y-28953390D01*
X29320827Y-28953397D01*
X29466498Y-29013735D01*
X29466503Y-29013737D01*
X29621153Y-29044499D01*
X29621156Y-29044500D01*
X29621158Y-29044500D01*
X29778843Y-29044500D01*
X29794564Y-29041372D01*
X29851309Y-29030085D01*
X29920899Y-29036312D01*
X29976077Y-29079174D01*
X29999322Y-29145063D01*
X29999500Y-29151702D01*
X29999500Y-40375500D01*
X29979815Y-40442539D01*
X29927011Y-40488294D01*
X29875500Y-40499500D01*
X28032507Y-40499500D01*
X27965468Y-40479815D01*
X27919713Y-40427011D01*
X27909769Y-40357853D01*
X27938794Y-40294297D01*
X27989173Y-40259318D01*
X28042757Y-40239332D01*
X28104080Y-40205847D01*
X28219261Y-40119623D01*
X28294761Y-40044123D01*
X28307270Y-40031161D01*
X28313302Y-40024683D01*
X28325384Y-40011233D01*
X28347285Y-39977153D01*
X28349872Y-39979090D01*
X28363141Y-39961365D01*
X28402146Y-39900671D01*
X28421469Y-39848856D01*
X28422777Y-39846705D01*
X28422986Y-39846801D01*
X28431917Y-39827245D01*
X28432169Y-39826704D01*
X28432190Y-39826648D01*
X28432195Y-39826639D01*
X28439988Y-39800095D01*
X28442770Y-39791737D01*
X28452422Y-39765860D01*
X28457128Y-39744223D01*
X28457127Y-39744222D01*
X28458282Y-39738914D01*
X28460469Y-39730343D01*
X28472731Y-39688587D01*
X28472731Y-39668436D01*
X28492416Y-39601397D01*
X28545220Y-39555642D01*
X28587880Y-39544753D01*
X28657810Y-39539752D01*
X28792619Y-39489470D01*
X28853942Y-39455985D01*
X28969123Y-39369761D01*
X29194623Y-39144261D01*
X29230788Y-39104000D01*
X29247422Y-39083358D01*
X29279067Y-39039474D01*
X29338838Y-38908597D01*
X29358523Y-38841558D01*
X29358524Y-38841554D01*
X29379000Y-38699138D01*
X29379000Y-31338097D01*
X29376103Y-31284057D01*
X29373269Y-31257699D01*
X29364614Y-31204287D01*
X29314332Y-31069478D01*
X29280847Y-31008155D01*
X29194623Y-30892974D01*
X29194618Y-30892969D01*
X29194613Y-30892963D01*
X28991203Y-30689554D01*
X28991141Y-30689492D01*
X28987932Y-30686310D01*
X28986352Y-30684758D01*
X28983125Y-30681617D01*
X28866427Y-30597465D01*
X28866423Y-30597463D01*
X28866422Y-30597462D01*
X28804515Y-30565079D01*
X28804514Y-30565079D01*
X28803480Y-30564538D01*
X28801249Y-30563898D01*
X28800011Y-30563490D01*
X28668829Y-30517212D01*
X28645100Y-30512491D01*
X28637929Y-30510131D01*
X28636405Y-30509080D01*
X28629254Y-30506910D01*
X28549956Y-30474065D01*
X28504308Y-30455157D01*
X28500252Y-30453391D01*
X28483334Y-30445665D01*
X28483327Y-30445663D01*
X28483325Y-30445662D01*
X28416286Y-30425977D01*
X28416288Y-30425977D01*
X28416283Y-30425976D01*
X28368810Y-30419150D01*
X28273866Y-30405500D01*
X28273864Y-30405500D01*
X25532747Y-30405500D01*
X25465708Y-30385815D01*
X25419953Y-30333011D01*
X25410009Y-30263853D01*
X25439034Y-30200297D01*
X25445066Y-30193819D01*
X25533476Y-30105408D01*
X25748722Y-29890162D01*
X25816529Y-29806020D01*
X25845030Y-29761673D01*
X25893409Y-29665024D01*
X25897041Y-29648326D01*
X25930523Y-29587002D01*
X25991844Y-29553514D01*
X25994017Y-29553062D01*
X25996842Y-29552500D01*
X26151497Y-29521737D01*
X26297179Y-29461394D01*
X26428289Y-29373789D01*
X26539789Y-29262289D01*
X26627394Y-29131179D01*
X26637191Y-29107524D01*
X26664069Y-29067297D01*
X28278952Y-27452416D01*
X28334398Y-27369433D01*
X28361084Y-27329495D01*
X28403125Y-27228000D01*
X28417659Y-27192912D01*
X28443432Y-27063342D01*
X28446500Y-27047918D01*
X28446500Y-19534082D01*
X28446500Y-19534079D01*
X28431556Y-19458955D01*
X28429957Y-19450916D01*
X28417659Y-19389088D01*
X28361880Y-19254429D01*
X28361372Y-19252936D01*
X28278954Y-19129588D01*
X28278953Y-19129587D01*
X28278951Y-19129584D01*
X28174416Y-19025049D01*
X27430952Y-18281585D01*
X26611049Y-17461681D01*
X26577564Y-17400358D01*
X26582548Y-17330666D01*
X26624420Y-17274733D01*
X26689884Y-17250316D01*
X26698730Y-17250000D01*
X26954440Y-17250000D01*
X26954441Y-17249999D01*
X27261355Y-17215418D01*
X27261367Y-17215416D01*
X27562499Y-17146685D01*
X27854039Y-17044671D01*
X28132320Y-16910658D01*
X28393851Y-16746326D01*
X28560153Y-16613706D01*
X27561717Y-15615270D01*
X27679466Y-15529722D01*
X27829722Y-15379466D01*
X27915270Y-15261717D01*
X28913181Y-16259628D01*
G37*
%TD.AperFunction*%
%TA.AperFunction,Conductor*%
G36*
X1673109Y-11380149D02*
G01*
X1679233Y-11380036D01*
X1711597Y-11394100D01*
X1716303Y-11397003D01*
X1877292Y-11450349D01*
X1976655Y-11460500D01*
X2680702Y-11460499D01*
X2710148Y-11469145D01*
X2740129Y-11475667D01*
X2745142Y-11479419D01*
X2747741Y-11480183D01*
X2768383Y-11496818D01*
X2848145Y-11576580D01*
X2876645Y-11620925D01*
X2925310Y-11751399D01*
X2958795Y-11812722D01*
X3045019Y-11927903D01*
X3045023Y-11927907D01*
X3045028Y-11927913D01*
X5839095Y-14721979D01*
X5872580Y-14783302D01*
X5867596Y-14852994D01*
X5825724Y-14908927D01*
X5770813Y-14932133D01*
X5703759Y-14942753D01*
X5501585Y-15008444D01*
X5312179Y-15104951D01*
X5140215Y-15229889D01*
X5026285Y-15343819D01*
X4964962Y-15377303D01*
X4895270Y-15372319D01*
X4839337Y-15330447D01*
X4822422Y-15299470D01*
X4773354Y-15167913D01*
X4773350Y-15167906D01*
X4687190Y-15052812D01*
X4687187Y-15052809D01*
X4572093Y-14966649D01*
X4572086Y-14966645D01*
X4437379Y-14916403D01*
X4437372Y-14916401D01*
X4377844Y-14910000D01*
X3730000Y-14910000D01*
X3730000Y-15826988D01*
X3672993Y-15794075D01*
X3545826Y-15760000D01*
X3414174Y-15760000D01*
X3287007Y-15794075D01*
X3230000Y-15826988D01*
X3230000Y-14910000D01*
X2582155Y-14910000D01*
X2522627Y-14916401D01*
X2522620Y-14916403D01*
X2387913Y-14966645D01*
X2387906Y-14966649D01*
X2272812Y-15052809D01*
X2272809Y-15052812D01*
X2186649Y-15167906D01*
X2186645Y-15167913D01*
X2136403Y-15302620D01*
X2136401Y-15302627D01*
X2130000Y-15362155D01*
X2130000Y-16010000D01*
X3046988Y-16010000D01*
X3014075Y-16067007D01*
X2980000Y-16194174D01*
X2980000Y-16325826D01*
X3014075Y-16452993D01*
X3046988Y-16510000D01*
X2130000Y-16510000D01*
X2130000Y-17157844D01*
X2136401Y-17217372D01*
X2136403Y-17217379D01*
X2186645Y-17352086D01*
X2186649Y-17352093D01*
X2272809Y-17467187D01*
X2272812Y-17467190D01*
X2387906Y-17553350D01*
X2387913Y-17553354D01*
X2519470Y-17602422D01*
X2575404Y-17644293D01*
X2599821Y-17709758D01*
X2584969Y-17778031D01*
X2563819Y-17806285D01*
X2449889Y-17920215D01*
X2324951Y-18092179D01*
X2228444Y-18281585D01*
X2162753Y-18483760D01*
X2129500Y-18693713D01*
X2129500Y-18906287D01*
X2162754Y-19116243D01*
X2207168Y-19252936D01*
X2228444Y-19318414D01*
X2324951Y-19507820D01*
X2449890Y-19679786D01*
X2449896Y-19679792D01*
X2600208Y-19830104D01*
X2669944Y-19880770D01*
X2673833Y-19883595D01*
X2716499Y-19938925D01*
X2722478Y-20008538D01*
X2694660Y-20065117D01*
X2617935Y-20153660D01*
X2617930Y-20153668D01*
X2558164Y-20284534D01*
X2538476Y-20351582D01*
X2517999Y-20494008D01*
X2517864Y-20495894D01*
X2517642Y-20496486D01*
X2517370Y-20498384D01*
X2516957Y-20498324D01*
X2513299Y-20508125D01*
X2513386Y-20521179D01*
X2501321Y-20540227D01*
X2493438Y-20561355D01*
X2482985Y-20569177D01*
X2476001Y-20580205D01*
X2455553Y-20589707D01*
X2437499Y-20603219D01*
X2424477Y-20604148D01*
X2412639Y-20609650D01*
X2390299Y-20606588D01*
X2367807Y-20608194D01*
X2354764Y-20601718D01*
X2343416Y-20600163D01*
X2322269Y-20585584D01*
X2313599Y-20581279D01*
X2309930Y-20578142D01*
X2266662Y-20534874D01*
X2233075Y-20512431D01*
X2227496Y-20507661D01*
X2226537Y-20506190D01*
X2220871Y-20501566D01*
X2210780Y-20491583D01*
X2210769Y-20491574D01*
X1722147Y-20129858D01*
X1708244Y-20117876D01*
X1558819Y-19968451D01*
X1525334Y-19907128D01*
X1522500Y-19880770D01*
X1522500Y-11499638D01*
X1524725Y-11492058D01*
X1523457Y-11484260D01*
X1534430Y-11459008D01*
X1542185Y-11432599D01*
X1548154Y-11427426D01*
X1551304Y-11420179D01*
X1574187Y-11404868D01*
X1594989Y-11386844D01*
X1602807Y-11385719D01*
X1609375Y-11381326D01*
X1636900Y-11380817D01*
X1664147Y-11376900D01*
X1673109Y-11380149D01*
G37*
%TD.AperFunction*%
%TA.AperFunction,Conductor*%
G36*
X28886474Y-11164914D02*
G01*
X28935169Y-11215020D01*
X28949500Y-11272887D01*
X28949500Y-12652689D01*
X28929815Y-12719728D01*
X28913181Y-12740370D01*
X27915270Y-13738281D01*
X27829722Y-13620534D01*
X27679466Y-13470278D01*
X27561716Y-13384728D01*
X28560152Y-12386293D01*
X28393845Y-12253669D01*
X28132320Y-12089341D01*
X27854039Y-11955328D01*
X27604725Y-11868090D01*
X27603656Y-11867323D01*
X27602345Y-11867230D01*
X27575343Y-11847016D01*
X27547949Y-11827368D01*
X27547464Y-11826145D01*
X27546412Y-11825358D01*
X27534626Y-11793760D01*
X27522201Y-11762415D01*
X27522454Y-11761125D01*
X27521995Y-11759894D01*
X27529160Y-11726955D01*
X27535657Y-11693854D01*
X27536658Y-11692487D01*
X27536847Y-11691621D01*
X27557993Y-11663373D01*
X27728596Y-11492769D01*
X27789917Y-11459286D01*
X27835673Y-11457980D01*
X27851583Y-11460500D01*
X27851584Y-11460500D01*
X28048422Y-11460500D01*
X28242826Y-11429709D01*
X28272156Y-11420179D01*
X28430025Y-11368884D01*
X28605405Y-11279524D01*
X28752616Y-11172568D01*
X28818420Y-11149089D01*
X28886474Y-11164914D01*
G37*
%TD.AperFunction*%
%TA.AperFunction,Conductor*%
G36*
X7502290Y-520185D02*
G01*
X7548045Y-572989D01*
X7557989Y-642147D01*
X7528964Y-705703D01*
X7522932Y-712181D01*
X7440827Y-794285D01*
X7365379Y-890697D01*
X7365376Y-890702D01*
X7334605Y-941729D01*
X7334594Y-941750D01*
X7284545Y-1053446D01*
X7284543Y-1053454D01*
X7262036Y-1195556D01*
X7262035Y-1195564D01*
X7261037Y-1265418D01*
X7263926Y-1287779D01*
X7252993Y-1356788D01*
X7206486Y-1408931D01*
X7179272Y-1421595D01*
X7149979Y-1431114D01*
X7149972Y-1431117D01*
X6974593Y-1520477D01*
X6914605Y-1564058D01*
X6914606Y-1564059D01*
X6912574Y-1565535D01*
X6876015Y-1589895D01*
X6871295Y-1595526D01*
X6858947Y-1604498D01*
X6858945Y-1604498D01*
X6815356Y-1636169D01*
X6676171Y-1775355D01*
X6560476Y-1934594D01*
X6470485Y-2111213D01*
X6422511Y-2162009D01*
X6354690Y-2178804D01*
X6288555Y-2156267D01*
X6249515Y-2111213D01*
X6159523Y-1934594D01*
X6043828Y-1775354D01*
X5904646Y-1636172D01*
X5904642Y-1636168D01*
X5859093Y-1603076D01*
X5847113Y-1594372D01*
X5841197Y-1587416D01*
X5803697Y-1562828D01*
X5801295Y-1561083D01*
X5801294Y-1561081D01*
X5745409Y-1520478D01*
X5570026Y-1431116D01*
X5541503Y-1421848D01*
X5483828Y-1382409D01*
X5456632Y-1318050D01*
X5456140Y-1295072D01*
X5459427Y-1249112D01*
X5459427Y-1249110D01*
X5455597Y-1195560D01*
X5449163Y-1105601D01*
X5398881Y-970792D01*
X5365396Y-909469D01*
X5279172Y-794288D01*
X5279167Y-794283D01*
X5279162Y-794277D01*
X5197066Y-712181D01*
X5163581Y-650858D01*
X5168565Y-581166D01*
X5210437Y-525233D01*
X5275901Y-500816D01*
X5284747Y-500500D01*
X7435251Y-500500D01*
X7502290Y-520185D01*
G37*
%TD.AperFunction*%
%TD*%
%TA.AperFunction,Conductor*%
%TO.N,/SEG4*%
G36*
X9073907Y-26993685D02*
G01*
X9075694Y-26994855D01*
X9155821Y-27048394D01*
X9155823Y-27048395D01*
X9155827Y-27048397D01*
X9301498Y-27108735D01*
X9301503Y-27108737D01*
X9409691Y-27130257D01*
X9456153Y-27139499D01*
X9456156Y-27139500D01*
X9456158Y-27139500D01*
X9613844Y-27139500D01*
X9613845Y-27139499D01*
X9768497Y-27108737D01*
X9914179Y-27048394D01*
X9994242Y-26994897D01*
X10060918Y-26974020D01*
X10063132Y-26974000D01*
X10834030Y-26974000D01*
X10901069Y-26993685D01*
X10946824Y-27046489D01*
X10956768Y-27115647D01*
X10933297Y-27172311D01*
X10906647Y-27207910D01*
X10906645Y-27207913D01*
X10856403Y-27342620D01*
X10856401Y-27342627D01*
X10850000Y-27402155D01*
X10850000Y-27525000D01*
X12900000Y-27525000D01*
X12900000Y-27402172D01*
X12899999Y-27402155D01*
X12893598Y-27342627D01*
X12893596Y-27342620D01*
X12843354Y-27207913D01*
X12843352Y-27207910D01*
X12816703Y-27172311D01*
X12792286Y-27106846D01*
X12807138Y-27038573D01*
X12856543Y-26989168D01*
X12915970Y-26974000D01*
X14984030Y-26974000D01*
X15051069Y-26993685D01*
X15096824Y-27046489D01*
X15106768Y-27115647D01*
X15083297Y-27172311D01*
X15056647Y-27207910D01*
X15056645Y-27207913D01*
X15006403Y-27342620D01*
X15006401Y-27342627D01*
X15000000Y-27402155D01*
X15000000Y-27525000D01*
X15901000Y-27525000D01*
X15968039Y-27544685D01*
X16013794Y-27597489D01*
X16025000Y-27649000D01*
X16025000Y-27775000D01*
X16151000Y-27775000D01*
X16218039Y-27794685D01*
X16263794Y-27847489D01*
X16275000Y-27899000D01*
X16275000Y-28600000D01*
X16597828Y-28600000D01*
X16597839Y-28599999D01*
X16636742Y-28595816D01*
X16705502Y-28608220D01*
X16756640Y-28655829D01*
X16774000Y-28719105D01*
X16774000Y-33890894D01*
X16754315Y-33957933D01*
X16701511Y-34003688D01*
X16636745Y-34014184D01*
X16597828Y-34010000D01*
X16275000Y-34010000D01*
X16275000Y-34711000D01*
X16255315Y-34778039D01*
X16202511Y-34823794D01*
X16151000Y-34835000D01*
X16025000Y-34835000D01*
X16025000Y-34961000D01*
X16005315Y-35028039D01*
X15952511Y-35073794D01*
X15901000Y-35085000D01*
X15000000Y-35085000D01*
X15000000Y-35207844D01*
X15006401Y-35267372D01*
X15006403Y-35267379D01*
X15056645Y-35402086D01*
X15056649Y-35402093D01*
X15142809Y-35517187D01*
X15149082Y-35523460D01*
X15147020Y-35525521D01*
X15180069Y-35569674D01*
X15185049Y-35639366D01*
X15151560Y-35700687D01*
X15090234Y-35734168D01*
X15063884Y-35737000D01*
X12888362Y-35737000D01*
X12858921Y-35728355D01*
X12828935Y-35721832D01*
X12823919Y-35718077D01*
X12821323Y-35717315D01*
X12800681Y-35700681D01*
X12773229Y-35673229D01*
X12739744Y-35611906D01*
X12744728Y-35542214D01*
X12761644Y-35511236D01*
X12843352Y-35402089D01*
X12843354Y-35402086D01*
X12893596Y-35267379D01*
X12893598Y-35267372D01*
X12899999Y-35207844D01*
X12900000Y-35207827D01*
X12900000Y-35085000D01*
X12185000Y-35085000D01*
X11685000Y-34585000D01*
X12125000Y-34585000D01*
X12900000Y-34585000D01*
X12900000Y-34462172D01*
X12899999Y-34462155D01*
X15000000Y-34462155D01*
X15000000Y-34585000D01*
X15775000Y-34585000D01*
X15775000Y-34010000D01*
X15452155Y-34010000D01*
X15392627Y-34016401D01*
X15392620Y-34016403D01*
X15257913Y-34066645D01*
X15257906Y-34066649D01*
X15142812Y-34152809D01*
X15142809Y-34152812D01*
X15056649Y-34267906D01*
X15056645Y-34267913D01*
X15006403Y-34402620D01*
X15006401Y-34402627D01*
X15000000Y-34462155D01*
X12899999Y-34462155D01*
X12893598Y-34402627D01*
X12893596Y-34402620D01*
X12843354Y-34267913D01*
X12843350Y-34267906D01*
X12757190Y-34152812D01*
X12757187Y-34152809D01*
X12642093Y-34066649D01*
X12642086Y-34066645D01*
X12507379Y-34016403D01*
X12507372Y-34016401D01*
X12447844Y-34010000D01*
X12125000Y-34010000D01*
X12125000Y-34585000D01*
X11685000Y-34585000D01*
X11625000Y-34525000D01*
X11625000Y-34010000D01*
X11302155Y-34010000D01*
X11242625Y-34016401D01*
X11225351Y-34022844D01*
X11155659Y-34027825D01*
X11094341Y-33994341D01*
X7793319Y-30693319D01*
X7759834Y-30631996D01*
X7757000Y-30605638D01*
X7757000Y-28432755D01*
X7776685Y-28365716D01*
X7781735Y-28358442D01*
X7793795Y-28342332D01*
X7793796Y-28342331D01*
X7844091Y-28207483D01*
X7850500Y-28147873D01*
X7850500Y-28147844D01*
X10850000Y-28147844D01*
X10856401Y-28207372D01*
X10856403Y-28207379D01*
X10906645Y-28342086D01*
X10906649Y-28342093D01*
X10992809Y-28457187D01*
X10992812Y-28457190D01*
X11107906Y-28543350D01*
X11107913Y-28543354D01*
X11242620Y-28593596D01*
X11242627Y-28593598D01*
X11302155Y-28599999D01*
X11302172Y-28600000D01*
X11625000Y-28600000D01*
X12125000Y-28600000D01*
X12447828Y-28600000D01*
X12447844Y-28599999D01*
X12507372Y-28593598D01*
X12507379Y-28593596D01*
X12642086Y-28543354D01*
X12642093Y-28543350D01*
X12757187Y-28457190D01*
X12757190Y-28457187D01*
X12843350Y-28342093D01*
X12843354Y-28342086D01*
X12893596Y-28207379D01*
X12893598Y-28207372D01*
X12899999Y-28147844D01*
X15000000Y-28147844D01*
X15006401Y-28207372D01*
X15006403Y-28207379D01*
X15056645Y-28342086D01*
X15056649Y-28342093D01*
X15142809Y-28457187D01*
X15142812Y-28457190D01*
X15257906Y-28543350D01*
X15257913Y-28543354D01*
X15392620Y-28593596D01*
X15392627Y-28593598D01*
X15452155Y-28599999D01*
X15452172Y-28600000D01*
X15775000Y-28600000D01*
X15775000Y-28025000D01*
X15000000Y-28025000D01*
X15000000Y-28147844D01*
X12899999Y-28147844D01*
X12900000Y-28147827D01*
X12900000Y-28025000D01*
X12125000Y-28025000D01*
X12125000Y-28600000D01*
X11625000Y-28600000D01*
X11625000Y-28025000D01*
X10850000Y-28025000D01*
X10850000Y-28147844D01*
X7850500Y-28147844D01*
X7850499Y-27775000D01*
X7850499Y-27402129D01*
X7850498Y-27402123D01*
X7844091Y-27342516D01*
X7793797Y-27207671D01*
X7793796Y-27207669D01*
X7781732Y-27191553D01*
X7773994Y-27170807D01*
X7762023Y-27152179D01*
X7758871Y-27130257D01*
X7757316Y-27126088D01*
X7757000Y-27117244D01*
X7757000Y-27098000D01*
X7776685Y-27030961D01*
X7829489Y-26985206D01*
X7881000Y-26974000D01*
X9006868Y-26974000D01*
X9073907Y-26993685D01*
G37*
%TD.AperFunction*%
%TD*%
%TA.AperFunction,Conductor*%
%TO.N,/SEG3*%
G36*
X18313677Y-30803685D02*
G01*
X18334319Y-30820319D01*
X21219000Y-33705000D01*
X24476000Y-33705000D01*
X24543039Y-33724685D01*
X24588794Y-33777489D01*
X24600000Y-33829000D01*
X24600000Y-34050000D01*
X25301000Y-34050000D01*
X25368039Y-34069685D01*
X25413794Y-34122489D01*
X25425000Y-34174000D01*
X25425000Y-34300000D01*
X25551000Y-34300000D01*
X25618039Y-34319685D01*
X25663794Y-34372489D01*
X25675000Y-34424000D01*
X25675000Y-35325000D01*
X25797828Y-35325000D01*
X25797844Y-35324999D01*
X25857372Y-35318598D01*
X25857379Y-35318596D01*
X25992086Y-35268354D01*
X25992089Y-35268352D01*
X26100688Y-35187055D01*
X26166153Y-35162637D01*
X26234426Y-35177488D01*
X26283832Y-35226893D01*
X26299000Y-35286321D01*
X26299000Y-37463678D01*
X26279315Y-37530717D01*
X26226511Y-37576472D01*
X26157353Y-37586416D01*
X26100689Y-37562945D01*
X25992088Y-37481647D01*
X25992086Y-37481645D01*
X25857379Y-37431403D01*
X25857372Y-37431401D01*
X25797844Y-37425000D01*
X25675000Y-37425000D01*
X25675000Y-38326000D01*
X25655315Y-38393039D01*
X25602511Y-38438794D01*
X25551000Y-38450000D01*
X25299000Y-38450000D01*
X25231961Y-38430315D01*
X25186206Y-38377511D01*
X25175000Y-38326000D01*
X25175000Y-37425000D01*
X25052159Y-37425000D01*
X25039250Y-37426388D01*
X24970491Y-37413979D01*
X24919355Y-37366367D01*
X24902000Y-37303098D01*
X24902000Y-35446901D01*
X24921685Y-35379862D01*
X24974489Y-35334107D01*
X25039257Y-35323612D01*
X25052158Y-35324999D01*
X25052172Y-35325000D01*
X25175000Y-35325000D01*
X25175000Y-34550000D01*
X24600000Y-34550000D01*
X24600000Y-34872844D01*
X24606401Y-34932372D01*
X24606403Y-34932379D01*
X24656645Y-35067086D01*
X24656647Y-35067089D01*
X24724470Y-35157688D01*
X24748888Y-35223153D01*
X24734037Y-35291426D01*
X24684632Y-35340832D01*
X24625204Y-35356000D01*
X17406000Y-35356000D01*
X17338961Y-35336315D01*
X17293206Y-35283511D01*
X17282000Y-35232000D01*
X17282000Y-30908000D01*
X17301685Y-30840961D01*
X17354489Y-30795206D01*
X17406000Y-30784000D01*
X18246638Y-30784000D01*
X18313677Y-30803685D01*
G37*
%TD.AperFunction*%
%TD*%
%TA.AperFunction,Conductor*%
%TO.N,Net-(R9-Pad1)*%
G36*
X15009584Y-36264685D02*
G01*
X15055339Y-36317489D01*
X15065283Y-36386647D01*
X15058727Y-36412333D01*
X15006403Y-36552620D01*
X15006401Y-36552627D01*
X15000000Y-36612155D01*
X15000000Y-36735000D01*
X17050000Y-36735000D01*
X17050000Y-36612172D01*
X17049999Y-36612155D01*
X17043598Y-36552627D01*
X17043596Y-36552620D01*
X16991273Y-36412333D01*
X16986289Y-36342641D01*
X17019774Y-36281318D01*
X17081097Y-36247834D01*
X17107455Y-36245000D01*
X24270000Y-36245000D01*
X24337039Y-36264685D01*
X24382794Y-36317489D01*
X24394000Y-36369000D01*
X24394000Y-38915000D01*
X24374315Y-38982039D01*
X24321511Y-39027794D01*
X24270000Y-39039000D01*
X21928404Y-39039000D01*
X21861365Y-39019315D01*
X21815610Y-38966511D01*
X21805666Y-38897353D01*
X21810470Y-38876690D01*
X21811090Y-38874785D01*
X21850500Y-38625962D01*
X21850500Y-38374038D01*
X21811090Y-38125215D01*
X21733241Y-37885621D01*
X21733239Y-37885618D01*
X21733239Y-37885616D01*
X21681433Y-37783942D01*
X21618870Y-37661155D01*
X21501849Y-37500089D01*
X21470798Y-37457350D01*
X21470794Y-37457345D01*
X21292654Y-37279205D01*
X21292649Y-37279201D01*
X21088848Y-37131132D01*
X21088847Y-37131131D01*
X21088845Y-37131130D01*
X21018747Y-37095413D01*
X20864383Y-37016760D01*
X20624785Y-36938910D01*
X20375962Y-36899500D01*
X20124038Y-36899500D01*
X19999626Y-36919205D01*
X19875214Y-36938910D01*
X19635616Y-37016760D01*
X19411151Y-37131132D01*
X19207350Y-37279201D01*
X19207345Y-37279205D01*
X19029205Y-37457345D01*
X19029201Y-37457350D01*
X18881132Y-37661151D01*
X18766760Y-37885616D01*
X18688910Y-38125214D01*
X18649500Y-38374038D01*
X18649500Y-38625961D01*
X18688908Y-38874777D01*
X18688909Y-38874781D01*
X18688910Y-38874785D01*
X18689526Y-38876681D01*
X18689547Y-38877441D01*
X18690047Y-38879520D01*
X18689610Y-38879624D01*
X18691523Y-38946519D01*
X18655445Y-39006353D01*
X18592745Y-39037183D01*
X18571596Y-39039000D01*
X12888362Y-39039000D01*
X12821323Y-39019315D01*
X12800681Y-39002681D01*
X11738000Y-37940000D01*
X11628058Y-37830058D01*
X11625000Y-37816000D01*
X11625000Y-37810000D01*
X12125000Y-37810000D01*
X12447828Y-37810000D01*
X12447844Y-37809999D01*
X12507372Y-37803598D01*
X12507379Y-37803596D01*
X12642086Y-37753354D01*
X12642093Y-37753350D01*
X12757187Y-37667190D01*
X12757190Y-37667187D01*
X12843350Y-37552093D01*
X12843354Y-37552086D01*
X12893596Y-37417379D01*
X12893598Y-37417372D01*
X12899999Y-37357844D01*
X15000000Y-37357844D01*
X15006401Y-37417372D01*
X15006403Y-37417379D01*
X15056645Y-37552086D01*
X15056649Y-37552093D01*
X15142809Y-37667187D01*
X15142812Y-37667190D01*
X15257906Y-37753350D01*
X15257913Y-37753354D01*
X15392620Y-37803596D01*
X15392627Y-37803598D01*
X15452155Y-37809999D01*
X15452172Y-37810000D01*
X15775000Y-37810000D01*
X16275000Y-37810000D01*
X16597828Y-37810000D01*
X16597844Y-37809999D01*
X16657372Y-37803598D01*
X16657379Y-37803596D01*
X16792086Y-37753354D01*
X16792093Y-37753350D01*
X16907187Y-37667190D01*
X16907190Y-37667187D01*
X16993350Y-37552093D01*
X16993354Y-37552086D01*
X17043596Y-37417379D01*
X17043598Y-37417372D01*
X17049999Y-37357844D01*
X17050000Y-37357827D01*
X17050000Y-37235000D01*
X16275000Y-37235000D01*
X16275000Y-37810000D01*
X15775000Y-37810000D01*
X15775000Y-37235000D01*
X15000000Y-37235000D01*
X15000000Y-37357844D01*
X12899999Y-37357844D01*
X12900000Y-37357827D01*
X12900000Y-37235000D01*
X12125000Y-37235000D01*
X12125000Y-37810000D01*
X11625000Y-37810000D01*
X11625000Y-37109000D01*
X11644685Y-37041961D01*
X11697489Y-36996206D01*
X11749000Y-36985000D01*
X11875000Y-36985000D01*
X11875000Y-36859000D01*
X11894685Y-36791961D01*
X11947489Y-36746206D01*
X11999000Y-36735000D01*
X12900000Y-36735000D01*
X12900000Y-36612172D01*
X12899999Y-36612155D01*
X12893598Y-36552627D01*
X12893596Y-36552620D01*
X12841273Y-36412333D01*
X12836289Y-36342641D01*
X12869774Y-36281318D01*
X12931097Y-36247834D01*
X12957455Y-36245000D01*
X14942545Y-36245000D01*
X15009584Y-36264685D01*
G37*
%TD.AperFunction*%
%TA.AperFunction,Conductor*%
G36*
X5784968Y-27120685D02*
G01*
X5830723Y-27173489D01*
X5840667Y-27242647D01*
X5834111Y-27268334D01*
X5806402Y-27342623D01*
X5806401Y-27342627D01*
X5800000Y-27402155D01*
X5800000Y-27525000D01*
X6701000Y-27525000D01*
X6768039Y-27544685D01*
X6813794Y-27597489D01*
X6825000Y-27649000D01*
X6825000Y-27775000D01*
X6951000Y-27775000D01*
X7018039Y-27794685D01*
X7063794Y-27847489D01*
X7075000Y-27899000D01*
X7075000Y-28291000D01*
X6868000Y-28498000D01*
X6868000Y-28730000D01*
X6868000Y-29075865D01*
X6848315Y-29142904D01*
X6847104Y-29144753D01*
X6837920Y-29158498D01*
X6837914Y-29158508D01*
X6781342Y-29295086D01*
X6781340Y-29295092D01*
X6752500Y-29440079D01*
X6752500Y-29838508D01*
X6751142Y-29856807D01*
X6666365Y-30424863D01*
X6661401Y-30458121D01*
X6656372Y-30504798D01*
X6656011Y-30504759D01*
X6654680Y-30517268D01*
X6652500Y-30528229D01*
X6652500Y-30695771D01*
X6685182Y-30860074D01*
X6685184Y-30860082D01*
X6749295Y-31014860D01*
X6845758Y-31159227D01*
X6843846Y-31160504D01*
X6867163Y-31215376D01*
X6868000Y-31229755D01*
X6868000Y-31546000D01*
X11285199Y-35963199D01*
X11318684Y-36024522D01*
X11313700Y-36094214D01*
X11271828Y-36150147D01*
X11240852Y-36167062D01*
X11107911Y-36216646D01*
X11107906Y-36216649D01*
X10992812Y-36302809D01*
X10992809Y-36302812D01*
X10906649Y-36417906D01*
X10906645Y-36417913D01*
X10856403Y-36552620D01*
X10856401Y-36552627D01*
X10850000Y-36612155D01*
X10850000Y-36752638D01*
X10830315Y-36819677D01*
X10777511Y-36865432D01*
X10708353Y-36875376D01*
X10644797Y-36846351D01*
X10638319Y-36840319D01*
X2528000Y-28730000D01*
X2430838Y-28632838D01*
X2425000Y-28606000D01*
X2425000Y-28600000D01*
X2925000Y-28600000D01*
X3247828Y-28600000D01*
X3247844Y-28599999D01*
X3307372Y-28593598D01*
X3307379Y-28593596D01*
X3442086Y-28543354D01*
X3442093Y-28543350D01*
X3557187Y-28457190D01*
X3557190Y-28457187D01*
X3643350Y-28342093D01*
X3643354Y-28342086D01*
X3693596Y-28207379D01*
X3693598Y-28207372D01*
X3699999Y-28147844D01*
X5800000Y-28147844D01*
X5806401Y-28207372D01*
X5806403Y-28207379D01*
X5856645Y-28342086D01*
X5856649Y-28342093D01*
X5942809Y-28457187D01*
X5942812Y-28457190D01*
X6057906Y-28543350D01*
X6057913Y-28543354D01*
X6192620Y-28593596D01*
X6192627Y-28593598D01*
X6252155Y-28599999D01*
X6252172Y-28600000D01*
X6575000Y-28600000D01*
X6575000Y-28025000D01*
X5800000Y-28025000D01*
X5800000Y-28147844D01*
X3699999Y-28147844D01*
X3700000Y-28147827D01*
X3700000Y-28025000D01*
X2925000Y-28025000D01*
X2925000Y-28600000D01*
X2425000Y-28600000D01*
X2425000Y-27899000D01*
X2444685Y-27831961D01*
X2497489Y-27786206D01*
X2549000Y-27775000D01*
X2675000Y-27775000D01*
X2675000Y-27649000D01*
X2694685Y-27581961D01*
X2747489Y-27536206D01*
X2799000Y-27525000D01*
X3700000Y-27525000D01*
X3700000Y-27402172D01*
X3699999Y-27402155D01*
X3693598Y-27342627D01*
X3693597Y-27342623D01*
X3665889Y-27268334D01*
X3660905Y-27198642D01*
X3694390Y-27137319D01*
X3755713Y-27103834D01*
X3782071Y-27101000D01*
X5717929Y-27101000D01*
X5784968Y-27120685D01*
G37*
%TD.AperFunction*%
%TD*%
%TA.AperFunction,Conductor*%
%TO.N,Net-(R10-Pad1)*%
G36*
X10863207Y-17847185D02*
G01*
X10908962Y-17899989D01*
X10918906Y-17969147D01*
X10908876Y-17999276D01*
X10909746Y-17999601D01*
X10856403Y-18142620D01*
X10856401Y-18142627D01*
X10850000Y-18202155D01*
X10850000Y-18325000D01*
X12900000Y-18325000D01*
X12900000Y-18202172D01*
X12899999Y-18202155D01*
X12893598Y-18142627D01*
X12893596Y-18142620D01*
X12840254Y-17999601D01*
X12842366Y-17998813D01*
X12830147Y-17942663D01*
X12854559Y-17877197D01*
X12910490Y-17835322D01*
X12953832Y-17827500D01*
X14946168Y-17827500D01*
X15013207Y-17847185D01*
X15058962Y-17899989D01*
X15068906Y-17969147D01*
X15058876Y-17999276D01*
X15059746Y-17999601D01*
X15006403Y-18142620D01*
X15006401Y-18142627D01*
X15000000Y-18202155D01*
X15000000Y-18325000D01*
X15901000Y-18325000D01*
X15968039Y-18344685D01*
X16013794Y-18397489D01*
X16025000Y-18449000D01*
X16025000Y-18575000D01*
X16151000Y-18575000D01*
X16218039Y-18594685D01*
X16263794Y-18647489D01*
X16275000Y-18699000D01*
X16275000Y-19400000D01*
X16597828Y-19400000D01*
X16597839Y-19399999D01*
X16636742Y-19395816D01*
X16705502Y-19408220D01*
X16756640Y-19455829D01*
X16774000Y-19519105D01*
X16774000Y-24680894D01*
X16754315Y-24747933D01*
X16701511Y-24793688D01*
X16636745Y-24804184D01*
X16597828Y-24800000D01*
X16275000Y-24800000D01*
X16275000Y-25501000D01*
X16255315Y-25568039D01*
X16202511Y-25613794D01*
X16151000Y-25625000D01*
X16025000Y-25625000D01*
X16025000Y-25751000D01*
X16005315Y-25818039D01*
X15952511Y-25863794D01*
X15901000Y-25875000D01*
X15000000Y-25875000D01*
X15000000Y-25997844D01*
X15006401Y-26057372D01*
X15006403Y-26057379D01*
X15056645Y-26192086D01*
X15056647Y-26192089D01*
X15113241Y-26267688D01*
X15137659Y-26333152D01*
X15122808Y-26401426D01*
X15073403Y-26450831D01*
X15013975Y-26466000D01*
X12886025Y-26466000D01*
X12818986Y-26446315D01*
X12773231Y-26393511D01*
X12763287Y-26324353D01*
X12786759Y-26267688D01*
X12843352Y-26192089D01*
X12843354Y-26192086D01*
X12893596Y-26057379D01*
X12893598Y-26057372D01*
X12899999Y-25997844D01*
X12900000Y-25997827D01*
X12900000Y-25875000D01*
X10850000Y-25875000D01*
X10850000Y-25997844D01*
X10856401Y-26057372D01*
X10856403Y-26057379D01*
X10906645Y-26192086D01*
X10906647Y-26192089D01*
X10963241Y-26267688D01*
X10987659Y-26333152D01*
X10972808Y-26401426D01*
X10923403Y-26450831D01*
X10863975Y-26466000D01*
X10459500Y-26466000D01*
X10392461Y-26446315D01*
X10346706Y-26393511D01*
X10335500Y-26342000D01*
X10335500Y-26260155D01*
X10335499Y-26260153D01*
X10321960Y-26192089D01*
X10304737Y-26105503D01*
X10260144Y-25997844D01*
X10244397Y-25959827D01*
X10244390Y-25959814D01*
X10156789Y-25828711D01*
X10156786Y-25828707D01*
X10045292Y-25717213D01*
X10045284Y-25717207D01*
X9914181Y-25629607D01*
X9914179Y-25629606D01*
X9890521Y-25619806D01*
X9883589Y-25615174D01*
X9878549Y-25614078D01*
X9850295Y-25592927D01*
X9686819Y-25429451D01*
X9653334Y-25368128D01*
X9650500Y-25341770D01*
X9650500Y-25252155D01*
X10850000Y-25252155D01*
X10850000Y-25375000D01*
X11625000Y-25375000D01*
X12125000Y-25375000D01*
X12900000Y-25375000D01*
X12900000Y-25252172D01*
X12899999Y-25252155D01*
X15000000Y-25252155D01*
X15000000Y-25375000D01*
X15775000Y-25375000D01*
X15775000Y-24800000D01*
X15452155Y-24800000D01*
X15392627Y-24806401D01*
X15392620Y-24806403D01*
X15257913Y-24856645D01*
X15257906Y-24856649D01*
X15142812Y-24942809D01*
X15142809Y-24942812D01*
X15056649Y-25057906D01*
X15056645Y-25057913D01*
X15006403Y-25192620D01*
X15006401Y-25192627D01*
X15000000Y-25252155D01*
X12899999Y-25252155D01*
X12893598Y-25192627D01*
X12893596Y-25192620D01*
X12843354Y-25057913D01*
X12843350Y-25057906D01*
X12757190Y-24942812D01*
X12757187Y-24942809D01*
X12642093Y-24856649D01*
X12642086Y-24856645D01*
X12507379Y-24806403D01*
X12507372Y-24806401D01*
X12447844Y-24800000D01*
X12125000Y-24800000D01*
X12125000Y-25375000D01*
X11625000Y-25375000D01*
X11625000Y-24800000D01*
X11302155Y-24800000D01*
X11242627Y-24806401D01*
X11242620Y-24806403D01*
X11107913Y-24856645D01*
X11107906Y-24856649D01*
X10992812Y-24942809D01*
X10992809Y-24942812D01*
X10906649Y-25057906D01*
X10906645Y-25057913D01*
X10856403Y-25192620D01*
X10856401Y-25192627D01*
X10850000Y-25252155D01*
X9650500Y-25252155D01*
X9650500Y-18947844D01*
X10850000Y-18947844D01*
X10856401Y-19007372D01*
X10856403Y-19007379D01*
X10906645Y-19142086D01*
X10906649Y-19142093D01*
X10992809Y-19257187D01*
X10992812Y-19257190D01*
X11107906Y-19343350D01*
X11107913Y-19343354D01*
X11242620Y-19393596D01*
X11242627Y-19393598D01*
X11302155Y-19399999D01*
X11302172Y-19400000D01*
X11625000Y-19400000D01*
X12125000Y-19400000D01*
X12447828Y-19400000D01*
X12447844Y-19399999D01*
X12507372Y-19393598D01*
X12507379Y-19393596D01*
X12642086Y-19343354D01*
X12642093Y-19343350D01*
X12757187Y-19257190D01*
X12757190Y-19257187D01*
X12843350Y-19142093D01*
X12843354Y-19142086D01*
X12893596Y-19007379D01*
X12893598Y-19007372D01*
X12899999Y-18947844D01*
X15000000Y-18947844D01*
X15006401Y-19007372D01*
X15006403Y-19007379D01*
X15056645Y-19142086D01*
X15056649Y-19142093D01*
X15142809Y-19257187D01*
X15142812Y-19257190D01*
X15257906Y-19343350D01*
X15257913Y-19343354D01*
X15392620Y-19393596D01*
X15392627Y-19393598D01*
X15452155Y-19399999D01*
X15452172Y-19400000D01*
X15775000Y-19400000D01*
X15775000Y-18825000D01*
X15000000Y-18825000D01*
X15000000Y-18947844D01*
X12899999Y-18947844D01*
X12900000Y-18947827D01*
X12900000Y-18825000D01*
X12125000Y-18825000D01*
X12125000Y-19400000D01*
X11625000Y-19400000D01*
X11625000Y-18825000D01*
X10850000Y-18825000D01*
X10850000Y-18947844D01*
X9650500Y-18947844D01*
X9650500Y-17951500D01*
X9670185Y-17884461D01*
X9722989Y-17838706D01*
X9774500Y-17827500D01*
X10796168Y-17827500D01*
X10863207Y-17847185D01*
G37*
%TD.AperFunction*%
%TD*%
%TA.AperFunction,Conductor*%
%TO.N,/SEG2*%
G36*
X24251069Y-26993685D02*
G01*
X24296824Y-27046489D01*
X24306768Y-27115647D01*
X24283297Y-27172311D01*
X24256647Y-27207910D01*
X24256645Y-27207913D01*
X24206403Y-27342620D01*
X24206401Y-27342627D01*
X24200000Y-27402155D01*
X24200000Y-27525000D01*
X25101000Y-27525000D01*
X25168039Y-27544685D01*
X25213794Y-27597489D01*
X25225000Y-27649000D01*
X25225000Y-27901000D01*
X25205315Y-27968039D01*
X25152511Y-28013794D01*
X25101000Y-28025000D01*
X24200000Y-28025000D01*
X24200000Y-28147844D01*
X24206401Y-28207372D01*
X24206403Y-28207379D01*
X24256645Y-28342086D01*
X24256649Y-28342093D01*
X24342809Y-28457187D01*
X24342812Y-28457190D01*
X24457906Y-28543350D01*
X24457913Y-28543354D01*
X24592620Y-28593596D01*
X24592627Y-28593598D01*
X24652155Y-28599999D01*
X24652172Y-28600000D01*
X24993500Y-28600000D01*
X25060539Y-28619685D01*
X25106294Y-28672489D01*
X25117500Y-28724000D01*
X25117500Y-28830846D01*
X25148261Y-28985489D01*
X25148264Y-28985501D01*
X25208602Y-29131172D01*
X25208609Y-29131185D01*
X25296210Y-29262288D01*
X25296213Y-29262292D01*
X25391279Y-29357358D01*
X25424764Y-29418681D01*
X25419780Y-29488373D01*
X25391279Y-29532720D01*
X24626819Y-30297181D01*
X24565496Y-30330666D01*
X24539138Y-30333500D01*
X21246230Y-30333500D01*
X21179191Y-30313815D01*
X21158549Y-30297181D01*
X20481819Y-29620451D01*
X20448334Y-29559128D01*
X20445500Y-29532770D01*
X20445500Y-28724000D01*
X20465185Y-28656961D01*
X20517989Y-28611206D01*
X20569500Y-28600000D01*
X20825000Y-28600000D01*
X21325000Y-28600000D01*
X21647828Y-28600000D01*
X21647844Y-28599999D01*
X21707372Y-28593598D01*
X21707379Y-28593596D01*
X21842086Y-28543354D01*
X21842093Y-28543350D01*
X21957187Y-28457190D01*
X21957190Y-28457187D01*
X22043350Y-28342093D01*
X22043354Y-28342086D01*
X22093596Y-28207379D01*
X22093598Y-28207372D01*
X22099999Y-28147844D01*
X22100000Y-28147827D01*
X22100000Y-28025000D01*
X21325000Y-28025000D01*
X21325000Y-28600000D01*
X20825000Y-28600000D01*
X20825000Y-27899000D01*
X20844685Y-27831961D01*
X20897489Y-27786206D01*
X20949000Y-27775000D01*
X21075000Y-27775000D01*
X21075000Y-27649000D01*
X21094685Y-27581961D01*
X21147489Y-27536206D01*
X21199000Y-27525000D01*
X22100000Y-27525000D01*
X22100000Y-27402172D01*
X22099999Y-27402155D01*
X22093598Y-27342627D01*
X22093596Y-27342620D01*
X22043354Y-27207913D01*
X22043352Y-27207910D01*
X22016703Y-27172311D01*
X21992286Y-27106846D01*
X22007138Y-27038573D01*
X22056543Y-26989168D01*
X22115970Y-26974000D01*
X24184030Y-26974000D01*
X24251069Y-26993685D01*
G37*
%TD.AperFunction*%
%TD*%
%TA.AperFunction,Conductor*%
%TO.N,/SEG3*%
G36*
X21346000Y-10872447D02*
G01*
X21346000Y-11145613D01*
X21346000Y-22024000D01*
X21326315Y-22091039D01*
X21273511Y-22136794D01*
X21222000Y-22148000D01*
X17406000Y-22148000D01*
X17338961Y-22128315D01*
X17293206Y-22075511D01*
X17282000Y-22024000D01*
X17282000Y-17322000D01*
X16991740Y-17322000D01*
X16924701Y-17302315D01*
X16878946Y-17249511D01*
X16869002Y-17180353D01*
X16898027Y-17116797D01*
X16904059Y-17110319D01*
X16907190Y-17107187D01*
X16993350Y-16992093D01*
X16993354Y-16992086D01*
X17043596Y-16857379D01*
X17043598Y-16857372D01*
X17049999Y-16797844D01*
X17050000Y-16797827D01*
X17050000Y-16675000D01*
X15000000Y-16675000D01*
X15000000Y-16797844D01*
X15006401Y-16857372D01*
X15006403Y-16857379D01*
X15056645Y-16992086D01*
X15056649Y-16992093D01*
X15142809Y-17107187D01*
X15145941Y-17110319D01*
X15148063Y-17114205D01*
X15148125Y-17114288D01*
X15148113Y-17114296D01*
X15179426Y-17171642D01*
X15174442Y-17241334D01*
X15132570Y-17297267D01*
X15067106Y-17321684D01*
X15058260Y-17322000D01*
X12841740Y-17322000D01*
X12774701Y-17302315D01*
X12728946Y-17249511D01*
X12719002Y-17180353D01*
X12748027Y-17116797D01*
X12754059Y-17110319D01*
X12757190Y-17107187D01*
X12843350Y-16992093D01*
X12843354Y-16992086D01*
X12893596Y-16857379D01*
X12893598Y-16857372D01*
X12899999Y-16797844D01*
X12900000Y-16797827D01*
X12900000Y-16675000D01*
X10850000Y-16675000D01*
X10850000Y-16797844D01*
X10856401Y-16857372D01*
X10856403Y-16857379D01*
X10906645Y-16992086D01*
X10906649Y-16992093D01*
X10992809Y-17107187D01*
X10995941Y-17110319D01*
X10998063Y-17114205D01*
X10998125Y-17114288D01*
X10998113Y-17114296D01*
X11029426Y-17171642D01*
X11024442Y-17241334D01*
X10982570Y-17297267D01*
X10917106Y-17321684D01*
X10908260Y-17322000D01*
X9774500Y-17322000D01*
X9707461Y-17302315D01*
X9661706Y-17249511D01*
X9650500Y-17198000D01*
X9650500Y-16059773D01*
X9652737Y-16052155D01*
X10850000Y-16052155D01*
X10850000Y-16175000D01*
X11625000Y-16175000D01*
X12125000Y-16175000D01*
X12900000Y-16175000D01*
X12900000Y-16052172D01*
X12899999Y-16052155D01*
X15000000Y-16052155D01*
X15000000Y-16175000D01*
X15775000Y-16175000D01*
X16275000Y-16175000D01*
X17050000Y-16175000D01*
X17050000Y-16052172D01*
X17049999Y-16052155D01*
X17043598Y-15992627D01*
X17043596Y-15992620D01*
X16993354Y-15857913D01*
X16993350Y-15857906D01*
X16907190Y-15742812D01*
X16907187Y-15742809D01*
X16792093Y-15656649D01*
X16792086Y-15656645D01*
X16657379Y-15606403D01*
X16657372Y-15606401D01*
X16597844Y-15600000D01*
X16275000Y-15600000D01*
X16275000Y-16175000D01*
X15775000Y-16175000D01*
X15775000Y-15600000D01*
X15452155Y-15600000D01*
X15392627Y-15606401D01*
X15392620Y-15606403D01*
X15257913Y-15656645D01*
X15257906Y-15656649D01*
X15142812Y-15742809D01*
X15142809Y-15742812D01*
X15056649Y-15857906D01*
X15056645Y-15857913D01*
X15006403Y-15992620D01*
X15006401Y-15992627D01*
X15000000Y-16052155D01*
X12899999Y-16052155D01*
X12893598Y-15992627D01*
X12893596Y-15992620D01*
X12843354Y-15857913D01*
X12843350Y-15857906D01*
X12757190Y-15742812D01*
X12757187Y-15742809D01*
X12642093Y-15656649D01*
X12642086Y-15656645D01*
X12507379Y-15606403D01*
X12507372Y-15606401D01*
X12447844Y-15600000D01*
X12125000Y-15600000D01*
X12125000Y-16175000D01*
X11625000Y-16175000D01*
X11625000Y-15600000D01*
X11302155Y-15600000D01*
X11242627Y-15606401D01*
X11242620Y-15606403D01*
X11107913Y-15656645D01*
X11107906Y-15656649D01*
X10992812Y-15742809D01*
X10992809Y-15742812D01*
X10906649Y-15857906D01*
X10906645Y-15857913D01*
X10856403Y-15992620D01*
X10856401Y-15992627D01*
X10850000Y-16052155D01*
X9652737Y-16052155D01*
X9659046Y-16030665D01*
X9665325Y-16000979D01*
X9669369Y-15995509D01*
X9670185Y-15992734D01*
X9686312Y-15972602D01*
X9697108Y-15961680D01*
X9799683Y-15857906D01*
X11013202Y-14630203D01*
X11048215Y-14590880D01*
X11064341Y-14570749D01*
X11095067Y-14528009D01*
X11154838Y-14397132D01*
X11174523Y-14330093D01*
X11174524Y-14330089D01*
X11176141Y-14318838D01*
X11205161Y-14255284D01*
X11211157Y-14248842D01*
X11440000Y-14020000D01*
X11440000Y-10971106D01*
X11459685Y-10904067D01*
X11512489Y-10858312D01*
X11581647Y-10848368D01*
X11645203Y-10877393D01*
X11664316Y-10898218D01*
X11756172Y-11024646D01*
X11895354Y-11163828D01*
X12054595Y-11279524D01*
X12229975Y-11368884D01*
X12270550Y-11382067D01*
X12284767Y-11387677D01*
X13282604Y-11854471D01*
X13317741Y-11879108D01*
X13501580Y-12062948D01*
X13501584Y-12062951D01*
X13624498Y-12145080D01*
X13624511Y-12145087D01*
X13761082Y-12201656D01*
X13761087Y-12201658D01*
X13761091Y-12201658D01*
X13761092Y-12201659D01*
X13906079Y-12230500D01*
X13906082Y-12230500D01*
X18625920Y-12230500D01*
X18723462Y-12211096D01*
X18770913Y-12201658D01*
X18907495Y-12145084D01*
X18956729Y-12112186D01*
X19030416Y-12062952D01*
X19642951Y-11450416D01*
X19675235Y-11402098D01*
X19728845Y-11357294D01*
X19798170Y-11348585D01*
X19834635Y-11360506D01*
X19850162Y-11368418D01*
X20037294Y-11429221D01*
X20231618Y-11460000D01*
X20428382Y-11460000D01*
X20622705Y-11429221D01*
X20809835Y-11368418D01*
X20985143Y-11279095D01*
X21020125Y-11253678D01*
X21020126Y-11253678D01*
X20271302Y-10504854D01*
X20290504Y-10510000D01*
X20369496Y-10510000D01*
X20445796Y-10489556D01*
X20490060Y-10464000D01*
X20937553Y-10464000D01*
X21346000Y-10872447D01*
G37*
%TD.AperFunction*%
%TD*%
%TA.AperFunction,Conductor*%
%TO.N,/SEG2*%
G36*
X22754204Y-10489556D02*
G01*
X22830504Y-10510000D01*
X22909496Y-10510000D01*
X22985796Y-10489556D01*
X23030060Y-10464000D01*
X23477553Y-10464000D01*
X23913678Y-10900126D01*
X23913678Y-10900125D01*
X23939097Y-10865141D01*
X24029234Y-10688236D01*
X24077208Y-10637439D01*
X24145029Y-10620644D01*
X24211164Y-10643181D01*
X24250204Y-10688235D01*
X24251115Y-10690024D01*
X24251116Y-10690025D01*
X24340476Y-10865405D01*
X24456172Y-11024646D01*
X24595354Y-11163828D01*
X24665236Y-11214601D01*
X24707902Y-11269930D01*
X24713881Y-11339543D01*
X24681276Y-11401338D01*
X24680032Y-11402599D01*
X23303050Y-12779580D01*
X23303044Y-12779588D01*
X23253812Y-12853269D01*
X23253813Y-12853270D01*
X23218483Y-12906146D01*
X23203061Y-12924937D01*
X22870000Y-13257999D01*
X22870000Y-16306000D01*
X26643681Y-20079681D01*
X26677166Y-20141004D01*
X26680000Y-20167362D01*
X26680000Y-22024000D01*
X26660315Y-22091039D01*
X26607511Y-22136794D01*
X26556000Y-22148000D01*
X24416840Y-22148000D01*
X24379746Y-22140623D01*
X24379320Y-22142030D01*
X24373488Y-22140260D01*
X24218845Y-22109500D01*
X24218842Y-22109500D01*
X24061158Y-22109500D01*
X24061155Y-22109500D01*
X23906511Y-22140260D01*
X23900680Y-22142030D01*
X23900253Y-22140623D01*
X23863160Y-22148000D01*
X21978000Y-22148000D01*
X21910961Y-22128315D01*
X21865206Y-22075511D01*
X21854000Y-22024000D01*
X21854000Y-11253677D01*
X22179873Y-11253677D01*
X22179873Y-11253678D01*
X22214858Y-11279096D01*
X22390164Y-11368418D01*
X22577294Y-11429221D01*
X22771618Y-11460000D01*
X22968382Y-11460000D01*
X23162705Y-11429221D01*
X23349835Y-11368418D01*
X23525143Y-11279095D01*
X23560125Y-11253678D01*
X23560126Y-11253678D01*
X22870001Y-10563553D01*
X22870000Y-10563553D01*
X22179873Y-11253677D01*
X21854000Y-11253677D01*
X21854000Y-11145614D01*
X21854000Y-10872446D01*
X22262446Y-10464000D01*
X22709940Y-10464000D01*
X22754204Y-10489556D01*
G37*
%TD.AperFunction*%
%TD*%
%TA.AperFunction,Conductor*%
%TO.N,/SEG5*%
G36*
X17490000Y-2550504D02*
G01*
X17490000Y-2629496D01*
X17510444Y-2705796D01*
X17549940Y-2774205D01*
X17605795Y-2830060D01*
X17674204Y-2869556D01*
X17750504Y-2890000D01*
X17829496Y-2890000D01*
X17905796Y-2869556D01*
X17974205Y-2830060D01*
X18030060Y-2774205D01*
X18069556Y-2705796D01*
X18090000Y-2629496D01*
X18090000Y-2550504D01*
X18084854Y-2531302D01*
X18833678Y-3280126D01*
X18833678Y-3280125D01*
X18835682Y-3277369D01*
X18891013Y-3234704D01*
X18960626Y-3228725D01*
X19022421Y-3261331D01*
X19056778Y-3322170D01*
X19060000Y-3350255D01*
X19060000Y-5768000D01*
X19040315Y-5835039D01*
X18987511Y-5880794D01*
X18936000Y-5892000D01*
X5393412Y-5892000D01*
X5326373Y-5872315D01*
X5280618Y-5819511D01*
X5270939Y-5787398D01*
X5261090Y-5725214D01*
X5183239Y-5485616D01*
X5141747Y-5404184D01*
X5068870Y-5261155D01*
X5049952Y-5235117D01*
X4920798Y-5057350D01*
X4920794Y-5057345D01*
X4742654Y-4879205D01*
X4742649Y-4879201D01*
X4538848Y-4731132D01*
X4538847Y-4731131D01*
X4538845Y-4731130D01*
X4468747Y-4695413D01*
X4314383Y-4616760D01*
X4074785Y-4538910D01*
X3825962Y-4499500D01*
X3574038Y-4499500D01*
X3449626Y-4519205D01*
X3325214Y-4538910D01*
X3085616Y-4616760D01*
X2861151Y-4731132D01*
X2657350Y-4879201D01*
X2657345Y-4879205D01*
X2479205Y-5057345D01*
X2479201Y-5057350D01*
X2331132Y-5261151D01*
X2216760Y-5485616D01*
X2138909Y-5725214D01*
X2129061Y-5787398D01*
X2099132Y-5850533D01*
X2039820Y-5887464D01*
X2006588Y-5892000D01*
X1658000Y-5892000D01*
X1590961Y-5872315D01*
X1545206Y-5819511D01*
X1534000Y-5768000D01*
X1534000Y-3633677D01*
X1859873Y-3633677D01*
X1859873Y-3633678D01*
X1894858Y-3659096D01*
X2070164Y-3748418D01*
X2257294Y-3809221D01*
X2451618Y-3840000D01*
X2648382Y-3840000D01*
X2842705Y-3809221D01*
X3029835Y-3748418D01*
X3205143Y-3659095D01*
X3240125Y-3633678D01*
X3240126Y-3633678D01*
X2550001Y-2943553D01*
X2550000Y-2943553D01*
X1859873Y-3633677D01*
X1534000Y-3633677D01*
X1534000Y-3525613D01*
X1534000Y-3304883D01*
X1630873Y-3208010D01*
X1690703Y-3135899D01*
X1716541Y-3098113D01*
X1743334Y-3049865D01*
X1764057Y-3022388D01*
X2196446Y-2590000D01*
X2250000Y-2590000D01*
X2250000Y-2629496D01*
X2270444Y-2705796D01*
X2309940Y-2774205D01*
X2365795Y-2830060D01*
X2434204Y-2869556D01*
X2510504Y-2890000D01*
X2589496Y-2890000D01*
X2665796Y-2869556D01*
X2734205Y-2830060D01*
X2790060Y-2774205D01*
X2829556Y-2705796D01*
X2850000Y-2629496D01*
X2850000Y-2590000D01*
X2903553Y-2590000D01*
X3593678Y-3280126D01*
X3593678Y-3280125D01*
X3619097Y-3245141D01*
X3709234Y-3068236D01*
X3757208Y-3017439D01*
X3825029Y-3000644D01*
X3891164Y-3023181D01*
X3930204Y-3068235D01*
X3931115Y-3070024D01*
X3931116Y-3070025D01*
X3964680Y-3135899D01*
X4020477Y-3245407D01*
X4020478Y-3245409D01*
X4050780Y-3287115D01*
X4050781Y-3287116D01*
X4051687Y-3288363D01*
X4073181Y-3319526D01*
X4076500Y-3322515D01*
X4136172Y-3404646D01*
X4275354Y-3543828D01*
X4434595Y-3659524D01*
X4481231Y-3683286D01*
X4609970Y-3748882D01*
X4609972Y-3748882D01*
X4609975Y-3748884D01*
X4672686Y-3769260D01*
X4797173Y-3809709D01*
X4991578Y-3840500D01*
X4991583Y-3840500D01*
X5188422Y-3840500D01*
X5382826Y-3809709D01*
X5403092Y-3803124D01*
X5570025Y-3748884D01*
X5745405Y-3659524D01*
X5904646Y-3543828D01*
X6043828Y-3404646D01*
X6159524Y-3245405D01*
X6234573Y-3098113D01*
X6249515Y-3068787D01*
X6297489Y-3017990D01*
X6365310Y-3001195D01*
X6431445Y-3023732D01*
X6470485Y-3068787D01*
X6560474Y-3245403D01*
X6572047Y-3261331D01*
X6676172Y-3404646D01*
X6815354Y-3543828D01*
X6974595Y-3659524D01*
X7021231Y-3683286D01*
X7149970Y-3748882D01*
X7149972Y-3748882D01*
X7149975Y-3748884D01*
X7212686Y-3769260D01*
X7337173Y-3809709D01*
X7531578Y-3840500D01*
X7531583Y-3840500D01*
X7728422Y-3840500D01*
X7922826Y-3809709D01*
X7943092Y-3803124D01*
X8110025Y-3748884D01*
X8285405Y-3659524D01*
X8444646Y-3543828D01*
X8583828Y-3404646D01*
X8699524Y-3245405D01*
X8788884Y-3070025D01*
X8788885Y-3070020D01*
X8789514Y-3068787D01*
X8837488Y-3017991D01*
X8905309Y-3001195D01*
X8971444Y-3023732D01*
X9010484Y-3068786D01*
X9081419Y-3208004D01*
X9100476Y-3245405D01*
X9216172Y-3404646D01*
X9355354Y-3543828D01*
X9514595Y-3659524D01*
X9561231Y-3683286D01*
X9689970Y-3748882D01*
X9689972Y-3748882D01*
X9689975Y-3748884D01*
X9752686Y-3769260D01*
X9877173Y-3809709D01*
X10071578Y-3840500D01*
X10071583Y-3840500D01*
X10268422Y-3840500D01*
X10462826Y-3809709D01*
X10483092Y-3803124D01*
X10650025Y-3748884D01*
X10825405Y-3659524D01*
X10984646Y-3543828D01*
X11123828Y-3404646D01*
X11239524Y-3245405D01*
X11314573Y-3098113D01*
X11329515Y-3068787D01*
X11377489Y-3017990D01*
X11445310Y-3001195D01*
X11511445Y-3023732D01*
X11550485Y-3068787D01*
X11640474Y-3245403D01*
X11652047Y-3261331D01*
X11756172Y-3404646D01*
X11895354Y-3543828D01*
X12054595Y-3659524D01*
X12101231Y-3683286D01*
X12229970Y-3748882D01*
X12229972Y-3748882D01*
X12229975Y-3748884D01*
X12292686Y-3769260D01*
X12417173Y-3809709D01*
X12611578Y-3840500D01*
X12611583Y-3840500D01*
X12808422Y-3840500D01*
X13002826Y-3809709D01*
X13023092Y-3803124D01*
X13190025Y-3748884D01*
X13365405Y-3659524D01*
X13400980Y-3633677D01*
X17099873Y-3633677D01*
X17099873Y-3633678D01*
X17134858Y-3659096D01*
X17310164Y-3748418D01*
X17497294Y-3809221D01*
X17691618Y-3840000D01*
X17888382Y-3840000D01*
X18082705Y-3809221D01*
X18269835Y-3748418D01*
X18445143Y-3659095D01*
X18480125Y-3633678D01*
X18480126Y-3633678D01*
X17790001Y-2943553D01*
X17790000Y-2943553D01*
X17099873Y-3633677D01*
X13400980Y-3633677D01*
X13524646Y-3543828D01*
X13663828Y-3404646D01*
X13779524Y-3245405D01*
X13868884Y-3070025D01*
X13904279Y-2961090D01*
X13914485Y-2929681D01*
X13953923Y-2872006D01*
X14018282Y-2844808D01*
X14032416Y-2844000D01*
X16468111Y-2844000D01*
X16535150Y-2863685D01*
X16580905Y-2916489D01*
X16586042Y-2929682D01*
X16631581Y-3069835D01*
X16720905Y-3245145D01*
X16746319Y-3280125D01*
X16746320Y-3280125D01*
X17495145Y-2531300D01*
X17490000Y-2550504D01*
G37*
%TD.AperFunction*%
%TD*%
%TA.AperFunction,Conductor*%
%TO.N,/SEG1*%
G36*
X29942539Y-520185D02*
G01*
X29988294Y-572989D01*
X29999500Y-624500D01*
X29999500Y-3070138D01*
X29979815Y-3137177D01*
X29927011Y-3182932D01*
X29857853Y-3192876D01*
X29794297Y-3163851D01*
X29787819Y-3157819D01*
X29236819Y-2606819D01*
X29203334Y-2545496D01*
X29200500Y-2519138D01*
X29200500Y-2491577D01*
X29169709Y-2297173D01*
X29108882Y-2109970D01*
X29061743Y-2017455D01*
X29019524Y-1934595D01*
X28903828Y-1775354D01*
X28764646Y-1636172D01*
X28605405Y-1520476D01*
X28430029Y-1431117D01*
X28242826Y-1370290D01*
X28048422Y-1339500D01*
X28048417Y-1339500D01*
X27851583Y-1339500D01*
X27851578Y-1339500D01*
X27657173Y-1370290D01*
X27469970Y-1431117D01*
X27294594Y-1520476D01*
X27203741Y-1586485D01*
X27135354Y-1636172D01*
X27135352Y-1636174D01*
X27135351Y-1636174D01*
X26996174Y-1775351D01*
X26996174Y-1775352D01*
X26996172Y-1775354D01*
X26946485Y-1843741D01*
X26880476Y-1934594D01*
X26790485Y-2111213D01*
X26742511Y-2162009D01*
X26674690Y-2178804D01*
X26608555Y-2156267D01*
X26569515Y-2111213D01*
X26542397Y-2057992D01*
X26479524Y-1934595D01*
X26363828Y-1775354D01*
X26224646Y-1636172D01*
X26065405Y-1520476D01*
X25890029Y-1431117D01*
X25702826Y-1370290D01*
X25508422Y-1339500D01*
X25508417Y-1339500D01*
X25311583Y-1339500D01*
X25311578Y-1339500D01*
X25117173Y-1370290D01*
X24929970Y-1431117D01*
X24754594Y-1520476D01*
X24663741Y-1586485D01*
X24595354Y-1636172D01*
X24595352Y-1636174D01*
X24595351Y-1636174D01*
X24456174Y-1775351D01*
X24456174Y-1775352D01*
X24456172Y-1775354D01*
X24406485Y-1843741D01*
X24340476Y-1934594D01*
X24250204Y-2111764D01*
X24202229Y-2162560D01*
X24134408Y-2179355D01*
X24068274Y-2156818D01*
X24029234Y-2111764D01*
X23939096Y-1934858D01*
X23913678Y-1899873D01*
X23913677Y-1899873D01*
X23477551Y-2336000D01*
X23030060Y-2336000D01*
X22985796Y-2310444D01*
X22909496Y-2290000D01*
X22830504Y-2290000D01*
X22754204Y-2310444D01*
X22709940Y-2336000D01*
X22262447Y-2336000D01*
X21826320Y-1899872D01*
X21826320Y-1899873D01*
X21800902Y-1934859D01*
X21710765Y-2111764D01*
X21662790Y-2162560D01*
X21594969Y-2179355D01*
X21528835Y-2156818D01*
X21489795Y-2111763D01*
X21399525Y-1934596D01*
X21374296Y-1899872D01*
X21283828Y-1775354D01*
X21144646Y-1636172D01*
X21020976Y-1546320D01*
X22179872Y-1546320D01*
X22870000Y-2236446D01*
X22870001Y-2236446D01*
X23560125Y-1546320D01*
X23560125Y-1546319D01*
X23525145Y-1520905D01*
X23349835Y-1431581D01*
X23162705Y-1370778D01*
X22968382Y-1340000D01*
X22771618Y-1340000D01*
X22577294Y-1370778D01*
X22390161Y-1431582D01*
X22214863Y-1520899D01*
X22214859Y-1520902D01*
X22179873Y-1546320D01*
X22179872Y-1546320D01*
X21020976Y-1546320D01*
X20985405Y-1520476D01*
X20810029Y-1431117D01*
X20622826Y-1370290D01*
X20428422Y-1339500D01*
X20428417Y-1339500D01*
X20231583Y-1339500D01*
X20231578Y-1339500D01*
X20037173Y-1370290D01*
X19849970Y-1431117D01*
X19674594Y-1520476D01*
X19583741Y-1586485D01*
X19515354Y-1636172D01*
X19515352Y-1636174D01*
X19515351Y-1636174D01*
X19376174Y-1775351D01*
X19376174Y-1775352D01*
X19376172Y-1775354D01*
X19326485Y-1843741D01*
X19260476Y-1934594D01*
X19170485Y-2111213D01*
X19122511Y-2162009D01*
X19054690Y-2178804D01*
X18988555Y-2156267D01*
X18949515Y-2111213D01*
X18922397Y-2057992D01*
X18859524Y-1934595D01*
X18743828Y-1775354D01*
X18604646Y-1636172D01*
X18445405Y-1520476D01*
X18270029Y-1431117D01*
X18082826Y-1370290D01*
X17888422Y-1339500D01*
X17888417Y-1339500D01*
X17691583Y-1339500D01*
X17691578Y-1339500D01*
X17497173Y-1370290D01*
X17309970Y-1431117D01*
X17134594Y-1520476D01*
X17043741Y-1586485D01*
X16975354Y-1636172D01*
X16975352Y-1636174D01*
X16975351Y-1636174D01*
X16836174Y-1775351D01*
X16836174Y-1775352D01*
X16836172Y-1775354D01*
X16786485Y-1843741D01*
X16720476Y-1934594D01*
X16631117Y-2109970D01*
X16585515Y-2250319D01*
X16546077Y-2307994D01*
X16481718Y-2335192D01*
X16467584Y-2336000D01*
X14032416Y-2336000D01*
X13965377Y-2316315D01*
X13919622Y-2263511D01*
X13914485Y-2250319D01*
X13868882Y-2109970D01*
X13821743Y-2017455D01*
X13779524Y-1934595D01*
X13663828Y-1775354D01*
X13524646Y-1636172D01*
X13365405Y-1520476D01*
X13190029Y-1431117D01*
X13002826Y-1370290D01*
X12808422Y-1339500D01*
X12808417Y-1339500D01*
X12611583Y-1339500D01*
X12611578Y-1339500D01*
X12417173Y-1370290D01*
X12229970Y-1431117D01*
X12054594Y-1520476D01*
X11963741Y-1586485D01*
X11895354Y-1636172D01*
X11895352Y-1636174D01*
X11895351Y-1636174D01*
X11756174Y-1775351D01*
X11756174Y-1775352D01*
X11756172Y-1775354D01*
X11706485Y-1843741D01*
X11640476Y-1934594D01*
X11550485Y-2111213D01*
X11502511Y-2162009D01*
X11434690Y-2178804D01*
X11368555Y-2156267D01*
X11329515Y-2111213D01*
X11302397Y-2057992D01*
X11239524Y-1934595D01*
X11123828Y-1775354D01*
X10984646Y-1636172D01*
X10825405Y-1520476D01*
X10650029Y-1431117D01*
X10462826Y-1370290D01*
X10268422Y-1339500D01*
X10268417Y-1339500D01*
X10071583Y-1339500D01*
X10071578Y-1339500D01*
X9877173Y-1370290D01*
X9689970Y-1431117D01*
X9514594Y-1520476D01*
X9423741Y-1586485D01*
X9355354Y-1636172D01*
X9355352Y-1636174D01*
X9355351Y-1636174D01*
X9216174Y-1775351D01*
X9216174Y-1775352D01*
X9216172Y-1775354D01*
X9166485Y-1843741D01*
X9100476Y-1934594D01*
X9010204Y-2111764D01*
X8962229Y-2162560D01*
X8894408Y-2179355D01*
X8828274Y-2156818D01*
X8789234Y-2111764D01*
X8699096Y-1934858D01*
X8673678Y-1899873D01*
X8673677Y-1899873D01*
X8237551Y-2336000D01*
X7790060Y-2336000D01*
X7745796Y-2310444D01*
X7669496Y-2290000D01*
X7590504Y-2290000D01*
X7571300Y-2295145D01*
X8320125Y-1546320D01*
X8320125Y-1546319D01*
X8285145Y-1520905D01*
X8109835Y-1431581D01*
X7922705Y-1370778D01*
X7922707Y-1370778D01*
X7866551Y-1361884D01*
X7803417Y-1331954D01*
X7766486Y-1272642D01*
X7767484Y-1202780D01*
X7798267Y-1151732D01*
X8413181Y-536819D01*
X8474504Y-503334D01*
X8500862Y-500500D01*
X29875500Y-500500D01*
X29942539Y-520185D01*
G37*
%TD.AperFunction*%
%TD*%
%TA.AperFunction,Conductor*%
%TO.N,/SEG6*%
G36*
X9870000Y-10170504D02*
G01*
X9870000Y-10249496D01*
X9890444Y-10325796D01*
X9929940Y-10394205D01*
X9985795Y-10450060D01*
X10054204Y-10489556D01*
X10130504Y-10510000D01*
X10209496Y-10510000D01*
X10228696Y-10504855D01*
X9479873Y-11253677D01*
X9479873Y-11253678D01*
X9514858Y-11279096D01*
X9690164Y-11368418D01*
X9877294Y-11429221D01*
X10071618Y-11460000D01*
X10268382Y-11460000D01*
X10462705Y-11429221D01*
X10462709Y-11429220D01*
X10527180Y-11408272D01*
X10597021Y-11406275D01*
X10656855Y-11442355D01*
X10687684Y-11505055D01*
X10689500Y-11526202D01*
X10689500Y-14187673D01*
X10669815Y-14254712D01*
X10653689Y-14274843D01*
X8858189Y-16091330D01*
X8797062Y-16125171D01*
X8727342Y-16120592D01*
X8671166Y-16079046D01*
X8646369Y-16013725D01*
X8646000Y-16004160D01*
X8646000Y-10979364D01*
X8665685Y-10912325D01*
X8669683Y-10906478D01*
X8683097Y-10888014D01*
X8699524Y-10865405D01*
X8788884Y-10690025D01*
X8788884Y-10690022D01*
X8789795Y-10688236D01*
X8837769Y-10637440D01*
X8905590Y-10620644D01*
X8971725Y-10643181D01*
X9010765Y-10688235D01*
X9100905Y-10865145D01*
X9126319Y-10900125D01*
X9126320Y-10900125D01*
X9875145Y-10151300D01*
X9870000Y-10170504D01*
G37*
%TD.AperFunction*%
%TD*%
%TA.AperFunction,Conductor*%
%TO.N,/SEG4*%
G36*
X2091559Y-6419685D02*
G01*
X2137314Y-6472489D01*
X2142451Y-6485682D01*
X2216760Y-6714381D01*
X2331132Y-6938848D01*
X2479201Y-7142649D01*
X2479205Y-7142654D01*
X2657345Y-7320794D01*
X2657350Y-7320798D01*
X2835117Y-7449952D01*
X2861155Y-7468870D01*
X3004184Y-7541747D01*
X3085616Y-7583239D01*
X3085618Y-7583239D01*
X3085621Y-7583241D01*
X3325215Y-7661090D01*
X3574038Y-7700500D01*
X3574039Y-7700500D01*
X3825961Y-7700500D01*
X3825962Y-7700500D01*
X4074785Y-7661090D01*
X4314379Y-7583241D01*
X4538845Y-7468870D01*
X4742656Y-7320793D01*
X4920793Y-7142656D01*
X5068870Y-6938845D01*
X5183241Y-6714379D01*
X5257549Y-6485681D01*
X5296987Y-6428006D01*
X5361345Y-6400808D01*
X5375480Y-6400000D01*
X18936000Y-6400000D01*
X19003039Y-6419685D01*
X19048794Y-6472489D01*
X19060000Y-6524000D01*
X19060000Y-8589269D01*
X19040315Y-8656308D01*
X19023681Y-8676950D01*
X18717896Y-8982734D01*
X18656573Y-9016219D01*
X18591211Y-9012759D01*
X18462607Y-8970144D01*
X18363316Y-8960000D01*
X17216692Y-8960000D01*
X17216676Y-8960001D01*
X17117393Y-8970144D01*
X17117387Y-8970145D01*
X16956882Y-9023330D01*
X16956882Y-9023331D01*
X17848695Y-9915144D01*
X17829496Y-9910000D01*
X17750504Y-9910000D01*
X17674204Y-9930444D01*
X17605795Y-9969940D01*
X17549940Y-10025795D01*
X17510444Y-10094204D01*
X17490000Y-10170504D01*
X17490000Y-10249496D01*
X17495144Y-10268695D01*
X16603331Y-9376882D01*
X16603330Y-9376882D01*
X16550144Y-9537391D01*
X16540000Y-9636677D01*
X16540000Y-9636690D01*
X16540001Y-10605500D01*
X16520317Y-10672539D01*
X16467513Y-10718294D01*
X16416001Y-10729500D01*
X14408520Y-10729500D01*
X14341481Y-10709815D01*
X14296202Y-10658043D01*
X14141616Y-10327595D01*
X13887674Y-9784759D01*
X13882067Y-9770550D01*
X13875418Y-9750086D01*
X13868885Y-9729976D01*
X13815452Y-9625109D01*
X13779524Y-9554595D01*
X13748333Y-9511665D01*
X13726818Y-9480473D01*
X13723499Y-9477483D01*
X13663828Y-9395354D01*
X13524646Y-9256172D01*
X13365405Y-9140476D01*
X13190029Y-9051117D01*
X13002826Y-8990290D01*
X12808422Y-8959500D01*
X12808417Y-8959500D01*
X12611583Y-8959500D01*
X12611578Y-8959500D01*
X12417172Y-8990291D01*
X12417169Y-8990291D01*
X12229976Y-9051115D01*
X12229974Y-9051115D01*
X12214349Y-9059077D01*
X12186561Y-9064295D01*
X12159528Y-9072582D01*
X12152675Y-9070658D01*
X12145679Y-9071972D01*
X12119479Y-9061337D01*
X12092260Y-9053695D01*
X12086229Y-9047841D01*
X12080940Y-9045694D01*
X12065314Y-9030900D01*
X12059676Y-9024548D01*
X12022951Y-8969584D01*
X11918416Y-8865049D01*
X11913208Y-8859841D01*
X11410421Y-8357052D01*
X11410414Y-8357046D01*
X11336729Y-8307812D01*
X11336729Y-8307813D01*
X11287491Y-8274913D01*
X11150917Y-8218343D01*
X11150907Y-8218340D01*
X11005920Y-8189500D01*
X11005918Y-8189500D01*
X6433917Y-8189500D01*
X6286082Y-8189500D01*
X6286080Y-8189500D01*
X6141092Y-8218340D01*
X6141082Y-8218343D01*
X6004511Y-8274912D01*
X6004498Y-8274919D01*
X5881584Y-8357048D01*
X5881580Y-8357051D01*
X5697743Y-8540888D01*
X5662605Y-8565525D01*
X4664763Y-9032322D01*
X4650542Y-9037934D01*
X4609971Y-9051117D01*
X4434590Y-9140478D01*
X4393328Y-9170455D01*
X4393329Y-9170456D01*
X4392090Y-9171355D01*
X4360473Y-9193181D01*
X4357481Y-9196501D01*
X4348277Y-9203189D01*
X4348275Y-9203189D01*
X4275362Y-9256164D01*
X4275354Y-9256171D01*
X4136174Y-9395351D01*
X4136174Y-9395352D01*
X4136172Y-9395354D01*
X4074329Y-9480473D01*
X4020475Y-9554596D01*
X4018981Y-9557528D01*
X4018118Y-9558441D01*
X4017931Y-9558747D01*
X4017866Y-9558707D01*
X3971002Y-9608319D01*
X3903180Y-9625109D01*
X3837047Y-9602565D01*
X3793600Y-9547846D01*
X3790795Y-9540227D01*
X3736667Y-9376882D01*
X2903552Y-10209999D01*
X2903552Y-10210001D01*
X3736667Y-11043116D01*
X3790794Y-10879772D01*
X3830566Y-10822326D01*
X3895082Y-10795503D01*
X3963858Y-10807818D01*
X4015058Y-10855360D01*
X4018980Y-10862471D01*
X4020473Y-10865401D01*
X4020476Y-10865405D01*
X4136172Y-11024646D01*
X4275354Y-11163828D01*
X4434595Y-11279524D01*
X4517455Y-11321743D01*
X4609970Y-11368882D01*
X4609972Y-11368882D01*
X4609975Y-11368884D01*
X4657836Y-11384435D01*
X4797173Y-11429709D01*
X4991578Y-11460500D01*
X4991583Y-11460500D01*
X5188422Y-11460500D01*
X5382826Y-11429709D01*
X5570025Y-11368884D01*
X5745405Y-11279524D01*
X5904646Y-11163828D01*
X6043828Y-11024646D01*
X6159524Y-10865405D01*
X6248884Y-10690025D01*
X6248885Y-10690020D01*
X6249514Y-10688787D01*
X6297488Y-10637991D01*
X6365309Y-10621195D01*
X6431444Y-10643732D01*
X6470484Y-10688786D01*
X6491229Y-10729500D01*
X6560476Y-10865405D01*
X6676172Y-11024646D01*
X6815354Y-11163828D01*
X6974595Y-11279524D01*
X7057455Y-11321743D01*
X7149970Y-11368882D01*
X7149972Y-11368882D01*
X7149975Y-11368884D01*
X7197836Y-11384435D01*
X7337173Y-11429709D01*
X7531578Y-11460500D01*
X7531583Y-11460500D01*
X7728422Y-11460500D01*
X7922826Y-11429709D01*
X7975681Y-11412534D01*
X8045522Y-11410539D01*
X8105355Y-11446619D01*
X8136184Y-11509320D01*
X8138000Y-11530466D01*
X8138000Y-16006638D01*
X8118315Y-16073677D01*
X8065511Y-16119432D01*
X7996353Y-16129376D01*
X7932797Y-16100351D01*
X7926319Y-16094319D01*
X3402461Y-11570461D01*
X3368976Y-11509138D01*
X3369485Y-11454183D01*
X3383116Y-11396667D01*
X2491304Y-10504855D01*
X2510504Y-10510000D01*
X2589496Y-10510000D01*
X2665796Y-10489556D01*
X2734205Y-10450060D01*
X2790060Y-10394205D01*
X2829556Y-10325796D01*
X2850000Y-10249496D01*
X2850000Y-10170504D01*
X2829556Y-10094204D01*
X2790060Y-10025795D01*
X2734205Y-9969940D01*
X2665796Y-9930444D01*
X2589496Y-9910000D01*
X2510504Y-9910000D01*
X2491303Y-9915144D01*
X3383116Y-9023331D01*
X3383116Y-9023330D01*
X3222608Y-8970144D01*
X3123316Y-8960000D01*
X1976692Y-8960000D01*
X1976676Y-8960001D01*
X1877392Y-8970144D01*
X1716513Y-9023454D01*
X1710397Y-9026306D01*
X1641319Y-9036793D01*
X1577537Y-9008269D01*
X1539301Y-8949789D01*
X1534000Y-8913920D01*
X1534000Y-6524000D01*
X1553685Y-6456961D01*
X1606489Y-6411206D01*
X1658000Y-6400000D01*
X2024520Y-6400000D01*
X2091559Y-6419685D01*
G37*
%TD.AperFunction*%
%TD*%
%TA.AperFunction,Conductor*%
%TO.N,/SEG7*%
G36*
X26751445Y-3023732D02*
G01*
X26790485Y-3068787D01*
X26880474Y-3245403D01*
X26915234Y-3293246D01*
X26996172Y-3404646D01*
X27135354Y-3543828D01*
X27294595Y-3659524D01*
X27377455Y-3701743D01*
X27469970Y-3748882D01*
X27469972Y-3748882D01*
X27469975Y-3748884D01*
X27570317Y-3781487D01*
X27657173Y-3809709D01*
X27851578Y-3840500D01*
X27851583Y-3840500D01*
X28048422Y-3840500D01*
X28187366Y-3818492D01*
X28235254Y-3810908D01*
X28304547Y-3819862D01*
X28342333Y-3845700D01*
X28913181Y-4416548D01*
X28946666Y-4477871D01*
X28949500Y-4504229D01*
X28949500Y-9512691D01*
X28929815Y-9579730D01*
X28913181Y-9600372D01*
X28557552Y-9956000D01*
X28110060Y-9956000D01*
X28065796Y-9930444D01*
X27989496Y-9910000D01*
X27910504Y-9910000D01*
X27834204Y-9930444D01*
X27789940Y-9956000D01*
X27342447Y-9956000D01*
X26906320Y-9519872D01*
X26906320Y-9519873D01*
X26880902Y-9554859D01*
X26790765Y-9731764D01*
X26742790Y-9782560D01*
X26674969Y-9799355D01*
X26608835Y-9776818D01*
X26569795Y-9731763D01*
X26479525Y-9554596D01*
X26449079Y-9512691D01*
X26363828Y-9395354D01*
X26224646Y-9256172D01*
X26100976Y-9166320D01*
X27259872Y-9166320D01*
X27950000Y-9856446D01*
X27950001Y-9856446D01*
X28640125Y-9166320D01*
X28640125Y-9166319D01*
X28605145Y-9140905D01*
X28429835Y-9051581D01*
X28242705Y-8990778D01*
X28048382Y-8960000D01*
X27851618Y-8960000D01*
X27657294Y-8990778D01*
X27470161Y-9051582D01*
X27294863Y-9140899D01*
X27294859Y-9140902D01*
X27259873Y-9166320D01*
X27259872Y-9166320D01*
X26100976Y-9166320D01*
X26065405Y-9140476D01*
X25991705Y-9102924D01*
X25890029Y-9051117D01*
X25702826Y-8990290D01*
X25508422Y-8959500D01*
X25508417Y-8959500D01*
X25311583Y-8959500D01*
X25311578Y-8959500D01*
X25117173Y-8990290D01*
X24929970Y-9051117D01*
X24754594Y-9140476D01*
X24663741Y-9206485D01*
X24595354Y-9256172D01*
X24595352Y-9256174D01*
X24595351Y-9256174D01*
X24456174Y-9395351D01*
X24456174Y-9395352D01*
X24456172Y-9395354D01*
X24406485Y-9463741D01*
X24340476Y-9554594D01*
X24250485Y-9731213D01*
X24202511Y-9782009D01*
X24134690Y-9798804D01*
X24068555Y-9776267D01*
X24029515Y-9731213D01*
X23962848Y-9600372D01*
X23939524Y-9554595D01*
X23823828Y-9395354D01*
X23684646Y-9256172D01*
X23525405Y-9140476D01*
X23451705Y-9102924D01*
X23350029Y-9051117D01*
X23162826Y-8990290D01*
X22968422Y-8959500D01*
X22968417Y-8959500D01*
X22771583Y-8959500D01*
X22771578Y-8959500D01*
X22577173Y-8990290D01*
X22389970Y-9051117D01*
X22214594Y-9140476D01*
X22123741Y-9206485D01*
X22055354Y-9256172D01*
X22055352Y-9256174D01*
X22055351Y-9256174D01*
X21916174Y-9395351D01*
X21916174Y-9395352D01*
X21916172Y-9395354D01*
X21866485Y-9463741D01*
X21800476Y-9554594D01*
X21710485Y-9731213D01*
X21662511Y-9782009D01*
X21594690Y-9798804D01*
X21528555Y-9776267D01*
X21489515Y-9731213D01*
X21422848Y-9600372D01*
X21399524Y-9554595D01*
X21283828Y-9395354D01*
X21144646Y-9256172D01*
X20985405Y-9140476D01*
X20911705Y-9102924D01*
X20810029Y-9051117D01*
X20622826Y-8990290D01*
X20428422Y-8959500D01*
X20428417Y-8959500D01*
X20231583Y-8959500D01*
X20231578Y-8959500D01*
X20037173Y-8990290D01*
X19849968Y-9051118D01*
X19748294Y-9102924D01*
X19679625Y-9115820D01*
X19614885Y-9089543D01*
X19574628Y-9032437D01*
X19568000Y-8992439D01*
X19568000Y-3807560D01*
X19587685Y-3740521D01*
X19640489Y-3694766D01*
X19709647Y-3684822D01*
X19748290Y-3697073D01*
X19808179Y-3727588D01*
X19849970Y-3748882D01*
X19849972Y-3748882D01*
X19849975Y-3748884D01*
X19950317Y-3781487D01*
X20037173Y-3809709D01*
X20231578Y-3840500D01*
X20231583Y-3840500D01*
X20428422Y-3840500D01*
X20622826Y-3809709D01*
X20629440Y-3807560D01*
X20810025Y-3748884D01*
X20985405Y-3659524D01*
X21144646Y-3543828D01*
X21283828Y-3404646D01*
X21399524Y-3245405D01*
X21488884Y-3070025D01*
X21489515Y-3068787D01*
X21537489Y-3017990D01*
X21605310Y-3001195D01*
X21671445Y-3023732D01*
X21710485Y-3068787D01*
X21800474Y-3245403D01*
X21835234Y-3293246D01*
X21916172Y-3404646D01*
X22055354Y-3543828D01*
X22214595Y-3659524D01*
X22297455Y-3701743D01*
X22389970Y-3748882D01*
X22389972Y-3748882D01*
X22389975Y-3748884D01*
X22490317Y-3781487D01*
X22577173Y-3809709D01*
X22771578Y-3840500D01*
X22771583Y-3840500D01*
X22968422Y-3840500D01*
X23162826Y-3809709D01*
X23169440Y-3807560D01*
X23350025Y-3748884D01*
X23525405Y-3659524D01*
X23684646Y-3543828D01*
X23823828Y-3404646D01*
X23939524Y-3245405D01*
X24028884Y-3070025D01*
X24029515Y-3068787D01*
X24077489Y-3017990D01*
X24145310Y-3001195D01*
X24211445Y-3023732D01*
X24250485Y-3068787D01*
X24340474Y-3245403D01*
X24375234Y-3293246D01*
X24456172Y-3404646D01*
X24595354Y-3543828D01*
X24754595Y-3659524D01*
X24837455Y-3701743D01*
X24929970Y-3748882D01*
X24929972Y-3748882D01*
X24929975Y-3748884D01*
X25030317Y-3781487D01*
X25117173Y-3809709D01*
X25311578Y-3840500D01*
X25311583Y-3840500D01*
X25508422Y-3840500D01*
X25702826Y-3809709D01*
X25709440Y-3807560D01*
X25890025Y-3748884D01*
X26065405Y-3659524D01*
X26224646Y-3543828D01*
X26363828Y-3404646D01*
X26479524Y-3245405D01*
X26568884Y-3070025D01*
X26569515Y-3068787D01*
X26617489Y-3017990D01*
X26685310Y-3001195D01*
X26751445Y-3023732D01*
G37*
%TD.AperFunction*%
%TD*%
%TA.AperFunction,Conductor*%
%TO.N,Net-(D1-A)*%
G36*
X4286177Y-520185D02*
G01*
X4306819Y-536819D01*
X4921730Y-1151730D01*
X4955215Y-1213053D01*
X4950231Y-1282745D01*
X4908359Y-1338678D01*
X4853448Y-1361884D01*
X4797293Y-1370778D01*
X4610161Y-1431582D01*
X4434863Y-1520899D01*
X4434859Y-1520902D01*
X4399873Y-1546320D01*
X4399872Y-1546320D01*
X5148697Y-2295145D01*
X5129496Y-2290000D01*
X5050504Y-2290000D01*
X4974204Y-2310444D01*
X4929940Y-2336000D01*
X4482447Y-2336000D01*
X4046320Y-1899872D01*
X4046320Y-1899873D01*
X4020902Y-1934859D01*
X3930765Y-2111764D01*
X3882790Y-2162560D01*
X3814969Y-2179355D01*
X3748835Y-2156818D01*
X3709795Y-2111763D01*
X3619525Y-1934596D01*
X3589237Y-1892909D01*
X3588359Y-1891700D01*
X3566818Y-1860473D01*
X3563499Y-1857483D01*
X3503828Y-1775354D01*
X3364646Y-1636172D01*
X3205405Y-1520476D01*
X3030029Y-1431117D01*
X2842826Y-1370290D01*
X2648422Y-1339500D01*
X2648417Y-1339500D01*
X2451583Y-1339500D01*
X2451578Y-1339500D01*
X2257173Y-1370290D01*
X2069970Y-1431117D01*
X1894594Y-1520476D01*
X1803741Y-1586485D01*
X1735354Y-1636172D01*
X1735352Y-1636174D01*
X1735351Y-1636174D01*
X1596174Y-1775351D01*
X1596174Y-1775352D01*
X1596172Y-1775354D01*
X1546485Y-1843741D01*
X1480476Y-1934594D01*
X1391117Y-2109970D01*
X1330290Y-2297173D01*
X1299500Y-2491577D01*
X1299500Y-2688422D01*
X1308222Y-2743489D01*
X1299268Y-2812782D01*
X1273430Y-2850568D01*
X712181Y-3411818D01*
X650858Y-3445303D01*
X581167Y-3440319D01*
X525233Y-3398448D01*
X500816Y-3332983D01*
X500500Y-3324137D01*
X500500Y-624500D01*
X520185Y-557461D01*
X572989Y-511706D01*
X624500Y-500500D01*
X4219138Y-500500D01*
X4286177Y-520185D01*
G37*
%TD.AperFunction*%
%TD*%
%TA.AperFunction,Conductor*%
%TO.N,Net-(R9-Pad1)*%
G36*
X25872539Y-22675685D02*
G01*
X25918294Y-22728489D01*
X25929500Y-22780000D01*
X25929500Y-24676232D01*
X25909815Y-24743271D01*
X25857011Y-24789026D01*
X25801149Y-24799628D01*
X25801149Y-24800000D01*
X25799193Y-24800000D01*
X25798898Y-24800056D01*
X25797848Y-24800000D01*
X25475000Y-24800000D01*
X25475000Y-25501000D01*
X25455315Y-25568039D01*
X25402511Y-25613794D01*
X25351000Y-25625000D01*
X25225000Y-25625000D01*
X25225000Y-25751000D01*
X25205315Y-25818039D01*
X25152511Y-25863794D01*
X25101000Y-25875000D01*
X24200000Y-25875000D01*
X24200000Y-25997844D01*
X24206401Y-26057372D01*
X24206403Y-26057379D01*
X24256645Y-26192086D01*
X24256647Y-26192089D01*
X24295532Y-26244032D01*
X24319950Y-26309496D01*
X24305099Y-26377769D01*
X24255694Y-26427175D01*
X24196648Y-26442343D01*
X22099279Y-26448804D01*
X22032179Y-26429326D01*
X21986262Y-26376664D01*
X21976105Y-26307536D01*
X21999631Y-26250493D01*
X22043352Y-26192089D01*
X22043354Y-26192086D01*
X22093596Y-26057379D01*
X22093598Y-26057372D01*
X22099999Y-25997844D01*
X22100000Y-25997827D01*
X22100000Y-25875000D01*
X20050000Y-25875000D01*
X20050000Y-25997844D01*
X20056401Y-26057372D01*
X20056403Y-26057379D01*
X20106645Y-26192086D01*
X20106649Y-26192093D01*
X20155080Y-26256788D01*
X20179498Y-26322252D01*
X20164647Y-26390525D01*
X20115242Y-26439931D01*
X20056196Y-26455098D01*
X19822000Y-26455820D01*
X19822000Y-26455821D01*
X19822000Y-29768000D01*
X20965000Y-30911000D01*
X28273866Y-30911000D01*
X28340905Y-30930685D01*
X28342741Y-30931887D01*
X28356505Y-30941084D01*
X28356507Y-30941084D01*
X28356511Y-30941087D01*
X28493082Y-30997656D01*
X28493087Y-30997658D01*
X28570212Y-31012999D01*
X28632119Y-31045382D01*
X28633699Y-31046934D01*
X28837181Y-31250416D01*
X28870666Y-31311739D01*
X28873500Y-31338097D01*
X28873500Y-38699138D01*
X28853815Y-38766177D01*
X28837181Y-38786819D01*
X28611681Y-39012319D01*
X28550358Y-39045804D01*
X28480666Y-39040820D01*
X28424733Y-38998948D01*
X28400316Y-38933484D01*
X28400000Y-38924638D01*
X28400000Y-38700000D01*
X27825000Y-38700000D01*
X27825000Y-39475000D01*
X27849638Y-39475000D01*
X27870883Y-39481238D01*
X27892972Y-39482818D01*
X27903755Y-39490890D01*
X27916677Y-39494685D01*
X27931176Y-39511418D01*
X27948905Y-39524690D01*
X27953612Y-39537310D01*
X27962432Y-39547489D01*
X27965583Y-39569406D01*
X27973322Y-39590154D01*
X27970459Y-39603314D01*
X27972376Y-39616647D01*
X27963176Y-39636790D01*
X27958470Y-39658427D01*
X27945201Y-39676152D01*
X27943351Y-39680203D01*
X27937319Y-39686681D01*
X27861819Y-39762181D01*
X27800496Y-39795666D01*
X27774138Y-39798500D01*
X26804000Y-39798500D01*
X26736961Y-39778815D01*
X26691206Y-39726011D01*
X26680000Y-39674500D01*
X26680000Y-39418740D01*
X26699685Y-39351701D01*
X26752489Y-39305946D01*
X26821647Y-39296002D01*
X26885203Y-39325027D01*
X26891681Y-39331059D01*
X26892812Y-39332190D01*
X27007906Y-39418350D01*
X27007913Y-39418354D01*
X27142620Y-39468596D01*
X27142627Y-39468598D01*
X27202155Y-39474999D01*
X27202172Y-39475000D01*
X27325000Y-39475000D01*
X27325000Y-38200000D01*
X27825000Y-38200000D01*
X28400000Y-38200000D01*
X28400000Y-37877172D01*
X28399999Y-37877155D01*
X28393598Y-37817627D01*
X28393596Y-37817620D01*
X28343354Y-37682913D01*
X28343350Y-37682906D01*
X28257190Y-37567812D01*
X28257187Y-37567809D01*
X28142093Y-37481649D01*
X28142086Y-37481645D01*
X28007379Y-37431403D01*
X28007372Y-37431401D01*
X27947844Y-37425000D01*
X27825000Y-37425000D01*
X27825000Y-38200000D01*
X27325000Y-38200000D01*
X27325000Y-37425000D01*
X27202155Y-37425000D01*
X27142627Y-37431401D01*
X27142620Y-37431403D01*
X27007913Y-37481645D01*
X27007904Y-37481650D01*
X27002806Y-37485467D01*
X26937341Y-37509881D01*
X26869069Y-37495027D01*
X26819665Y-37445619D01*
X26804500Y-37386197D01*
X26804500Y-35363802D01*
X26824185Y-35296763D01*
X26876989Y-35251008D01*
X26946147Y-35241064D01*
X27002811Y-35264536D01*
X27007906Y-35268350D01*
X27007913Y-35268354D01*
X27142620Y-35318596D01*
X27142627Y-35318598D01*
X27202155Y-35324999D01*
X27202172Y-35325000D01*
X27325000Y-35325000D01*
X27825000Y-35325000D01*
X27947828Y-35325000D01*
X27947844Y-35324999D01*
X28007372Y-35318598D01*
X28007379Y-35318596D01*
X28142086Y-35268354D01*
X28142093Y-35268350D01*
X28257187Y-35182190D01*
X28257190Y-35182187D01*
X28343350Y-35067093D01*
X28343354Y-35067086D01*
X28393596Y-34932379D01*
X28393598Y-34932372D01*
X28399999Y-34872844D01*
X28400000Y-34872827D01*
X28400000Y-34550000D01*
X27825000Y-34550000D01*
X27825000Y-35325000D01*
X27325000Y-35325000D01*
X27325000Y-34050000D01*
X27825000Y-34050000D01*
X28400000Y-34050000D01*
X28400000Y-33727172D01*
X28399999Y-33727155D01*
X28393598Y-33667627D01*
X28393596Y-33667620D01*
X28343354Y-33532913D01*
X28343350Y-33532906D01*
X28257190Y-33417812D01*
X28257187Y-33417809D01*
X28142093Y-33331649D01*
X28142086Y-33331645D01*
X28007379Y-33281403D01*
X28007372Y-33281401D01*
X27947844Y-33275000D01*
X27825000Y-33275000D01*
X27825000Y-34050000D01*
X27325000Y-34050000D01*
X27325000Y-33275000D01*
X27202155Y-33275000D01*
X27142627Y-33281401D01*
X27142620Y-33281403D01*
X27007913Y-33331645D01*
X27007906Y-33331649D01*
X26892812Y-33417809D01*
X26891681Y-33418941D01*
X26890276Y-33419707D01*
X26885712Y-33423125D01*
X26885220Y-33422468D01*
X26830358Y-33452426D01*
X26760666Y-33447442D01*
X26704733Y-33405570D01*
X26680316Y-33340106D01*
X26680000Y-33331260D01*
X26680000Y-33197000D01*
X21778362Y-33197000D01*
X21711323Y-33177315D01*
X21690681Y-33160681D01*
X18826819Y-30296819D01*
X18793334Y-30235496D01*
X18790500Y-30209138D01*
X18790500Y-25252155D01*
X20050000Y-25252155D01*
X20050000Y-25375000D01*
X20825000Y-25375000D01*
X21325000Y-25375000D01*
X22100000Y-25375000D01*
X22100000Y-25252172D01*
X22099999Y-25252155D01*
X24200000Y-25252155D01*
X24200000Y-25375000D01*
X24975000Y-25375000D01*
X24975000Y-24800000D01*
X24652155Y-24800000D01*
X24592627Y-24806401D01*
X24592620Y-24806403D01*
X24457913Y-24856645D01*
X24457906Y-24856649D01*
X24342812Y-24942809D01*
X24342809Y-24942812D01*
X24256649Y-25057906D01*
X24256645Y-25057913D01*
X24206403Y-25192620D01*
X24206401Y-25192627D01*
X24200000Y-25252155D01*
X22099999Y-25252155D01*
X22093598Y-25192627D01*
X22093596Y-25192620D01*
X22043354Y-25057913D01*
X22043350Y-25057906D01*
X21957190Y-24942812D01*
X21957187Y-24942809D01*
X21842093Y-24856649D01*
X21842086Y-24856645D01*
X21707379Y-24806403D01*
X21707372Y-24806401D01*
X21647844Y-24800000D01*
X21325000Y-24800000D01*
X21325000Y-25375000D01*
X20825000Y-25375000D01*
X20825000Y-24800000D01*
X20502155Y-24800000D01*
X20442627Y-24806401D01*
X20442620Y-24806403D01*
X20307913Y-24856645D01*
X20307906Y-24856649D01*
X20192812Y-24942809D01*
X20192809Y-24942812D01*
X20106649Y-25057906D01*
X20106645Y-25057913D01*
X20056403Y-25192620D01*
X20056401Y-25192627D01*
X20050000Y-25252155D01*
X18790500Y-25252155D01*
X18790500Y-22780000D01*
X18810185Y-22712961D01*
X18862989Y-22667206D01*
X18914500Y-22656000D01*
X25805500Y-22656000D01*
X25872539Y-22675685D01*
G37*
%TD.AperFunction*%
%TD*%
%TA.AperFunction,Conductor*%
%TO.N,Net-(R9-Pad1)*%
G36*
X24434236Y-22968527D02*
G01*
X24240000Y-23504236D01*
X24040000Y-23504236D01*
X23845764Y-22968527D01*
X24140000Y-22909000D01*
X24434236Y-22968527D01*
G37*
%TD.AperFunction*%
%TD*%
%TA.AperFunction,Conductor*%
%TO.N,/SEG3*%
G36*
X5969493Y-8988554D02*
G01*
X6311445Y-9330506D01*
X6314872Y-9338779D01*
X6313770Y-9343737D01*
X5719366Y-10614356D01*
X5712756Y-10620397D01*
X5703810Y-10619996D01*
X5702281Y-10619135D01*
X5695108Y-10614356D01*
X5091243Y-10212006D01*
X5087993Y-10208756D01*
X4680864Y-9597718D01*
X4679129Y-9588933D01*
X4684114Y-9581494D01*
X4685630Y-9580639D01*
X5956265Y-8986228D01*
X5965208Y-8985828D01*
X5969493Y-8988554D01*
G37*
%TD.AperFunction*%
%TD*%
%TA.AperFunction,Conductor*%
%TO.N,Net-(D1-A)*%
G36*
X5506678Y-1966398D02*
G01*
X5260416Y-2336000D01*
X5092006Y-2588756D01*
X5088756Y-2592006D01*
X4477718Y-2999135D01*
X4468933Y-3000870D01*
X4461494Y-2995885D01*
X4460637Y-2994363D01*
X3862754Y-1716307D01*
X4216307Y-1362754D01*
X5506678Y-1966398D01*
G37*
%TD.AperFunction*%
%TD*%
%TA.AperFunction,Conductor*%
%TO.N,Net-(D1-A)*%
G36*
X1419161Y-20534503D02*
G01*
X1420689Y-20535634D01*
X1879020Y-20874927D01*
X1910013Y-20897870D01*
X1914624Y-20905547D01*
X1912798Y-20913747D01*
X1726513Y-21194240D01*
X1723240Y-21197513D01*
X1442747Y-21383798D01*
X1433959Y-21385521D01*
X1426870Y-21381013D01*
X1063503Y-20890161D01*
X1061335Y-20881473D01*
X1064632Y-20874929D01*
X1403928Y-20535633D01*
X1412200Y-20532207D01*
X1419161Y-20534503D01*
G37*
%TD.AperFunction*%
%TD*%
%TA.AperFunction,Conductor*%
%TO.N,/SEG7*%
G36*
X13338505Y-9804114D02*
G01*
X13339366Y-9805643D01*
X13933770Y-11076262D01*
X13934171Y-11085208D01*
X13931445Y-11089493D01*
X13589493Y-11431445D01*
X13581220Y-11434872D01*
X13576263Y-11433770D01*
X12305642Y-10839365D01*
X12299602Y-10832756D01*
X12300003Y-10823810D01*
X12300858Y-10822291D01*
X12707995Y-10211240D01*
X12711240Y-10207995D01*
X13322283Y-9800863D01*
X13331066Y-9799129D01*
X13338505Y-9804114D01*
G37*
%TD.AperFunction*%
%TD*%
%TA.AperFunction,Conductor*%
%TO.N,/SEG5*%
G36*
X3178505Y-2184114D02*
G01*
X3179365Y-2185641D01*
X3777246Y-3463693D01*
X3423693Y-3817246D01*
X2133322Y-3213602D01*
X2548822Y-2590000D01*
X2549714Y-2589522D01*
X2551240Y-2587995D01*
X3162283Y-2180863D01*
X3171066Y-2179129D01*
X3178505Y-2184114D01*
G37*
%TD.AperFunction*%
%TD*%
%TA.AperFunction,Conductor*%
%TO.N,/SEG1*%
G36*
X8857246Y-1716307D02*
G01*
X8314198Y-2877145D01*
X8259366Y-2994356D01*
X8252756Y-3000397D01*
X8243810Y-2999996D01*
X8242281Y-2999135D01*
X8235108Y-2994356D01*
X7631243Y-2592006D01*
X7627993Y-2588756D01*
X7459584Y-2336000D01*
X7213322Y-1966398D01*
X8503693Y-1362754D01*
X8857246Y-1716307D01*
G37*
%TD.AperFunction*%
%TD*%
%TA.AperFunction,Conductor*%
%TO.N,GND*%
G36*
X1593275Y-32951718D02*
G01*
X1250000Y-33021000D01*
X906725Y-32951718D01*
X1150000Y-32326725D01*
X1350000Y-32326725D01*
X1593275Y-32951718D01*
G37*
%TD.AperFunction*%
%TD*%
%TA.AperFunction,Conductor*%
%TO.N,GND*%
G36*
X1593275Y-34475718D02*
G01*
X1250000Y-34545000D01*
X906725Y-34475718D01*
X1150000Y-33850725D01*
X1350000Y-33850725D01*
X1593275Y-34475718D01*
G37*
%TD.AperFunction*%
%TD*%
%TA.AperFunction,Conductor*%
%TO.N,GND*%
G36*
X1593275Y-33088282D02*
G01*
X1350000Y-33713275D01*
X1150000Y-33713275D01*
X906725Y-33088282D01*
X1250000Y-33019000D01*
X1593275Y-33088282D01*
G37*
%TD.AperFunction*%
%TD*%
%TA.AperFunction,Conductor*%
%TO.N,GND*%
G36*
X1250000Y-34543000D02*
G01*
X1444450Y-34835014D01*
X989000Y-35087744D01*
X789000Y-35087744D01*
X906725Y-34475718D01*
X1250000Y-34543000D01*
G37*
%TD.AperFunction*%
%TD*%
%TA.AperFunction,Conductor*%
%TO.N,/SEG3*%
G36*
X21713464Y-34050000D02*
G01*
X21713464Y-34550000D01*
X21023718Y-34429275D01*
X21091000Y-34086000D01*
X21286450Y-33794986D01*
X21713464Y-34050000D01*
G37*
%TD.AperFunction*%
%TD*%
%TA.AperFunction,Conductor*%
%TO.N,/SEG3*%
G36*
X21286450Y-33794986D02*
G01*
X21092707Y-34086707D01*
X20800986Y-34280450D01*
X20425004Y-33772558D01*
X20778558Y-33419004D01*
X21286450Y-33794986D01*
G37*
%TD.AperFunction*%
%TD*%
%TA.AperFunction,Conductor*%
%TO.N,/SEG4*%
G36*
X7751189Y-29922152D02*
G01*
X7754488Y-29928698D01*
X7757000Y-29945526D01*
X7846275Y-30543718D01*
X7757000Y-30561736D01*
X7756999Y-30561735D01*
X7505314Y-30612532D01*
X7500684Y-30612532D01*
X7170623Y-30545917D01*
X7163192Y-30540921D01*
X7161366Y-30532721D01*
X7251512Y-29928698D01*
X7256123Y-29921021D01*
X7263084Y-29918725D01*
X7742916Y-29918725D01*
X7751189Y-29922152D01*
G37*
%TD.AperFunction*%
%TD*%
%TA.AperFunction,Conductor*%
%TO.N,/SEG4*%
G36*
X12725000Y-34585000D02*
G01*
X12725000Y-35085000D01*
X12400000Y-35160000D01*
X12033631Y-34933631D01*
X12033629Y-34933630D01*
X12033626Y-34933627D01*
X11890108Y-34844952D01*
X11884871Y-34837688D01*
X11886305Y-34828849D01*
X11890104Y-34825049D01*
X12400000Y-34510000D01*
X12725000Y-34585000D01*
G37*
%TD.AperFunction*%
%TD*%
%TA.AperFunction,Conductor*%
%TO.N,/SEG4*%
G36*
X11981369Y-34510000D02*
G01*
X11890403Y-34790403D01*
X11890402Y-34790403D01*
X11878243Y-34827886D01*
X11872431Y-34834698D01*
X11867489Y-34835970D01*
X11354970Y-34852403D01*
X11346591Y-34849243D01*
X11346436Y-34849095D01*
X10951915Y-34465238D01*
X10948375Y-34457012D01*
X10951688Y-34448693D01*
X11296967Y-34103414D01*
X11981369Y-34510000D01*
G37*
%TD.AperFunction*%
%TD*%
%TA.AperFunction,Conductor*%
%TO.N,/SEG4*%
G36*
X8144496Y-30950942D02*
G01*
X8097719Y-30997719D01*
X7798492Y-31296945D01*
X7790219Y-31300372D01*
X7782734Y-31297665D01*
X7316621Y-30909731D01*
X7312455Y-30901805D01*
X7314359Y-30894266D01*
X7500989Y-30613255D01*
X7504255Y-30609989D01*
X7794014Y-30417550D01*
X8144496Y-30950942D01*
G37*
%TD.AperFunction*%
%TD*%
%TA.AperFunction,Conductor*%
%TO.N,/SEG6*%
G36*
X7211275Y-24375282D02*
G01*
X7075000Y-25000275D01*
X6575000Y-25000275D01*
X6524725Y-24375282D01*
X6868000Y-24306000D01*
X7211275Y-24375282D01*
G37*
%TD.AperFunction*%
%TD*%
%TA.AperFunction,Conductor*%
%TO.N,Net-(R10-Pad1)*%
G36*
X10258143Y-25375000D02*
G01*
X10258143Y-25875000D01*
X9622329Y-25572441D01*
X9788000Y-25323000D01*
X9955671Y-25073559D01*
X10258143Y-25375000D01*
G37*
%TD.AperFunction*%
%TD*%
M02*
