<?xml version="1.0" encoding="UTF-8" standalone="no"?>
<!-- Created with Inkscape (http://www.inkscape.org/) -->

<svg
   width="166.29993mm"
   height="10mm"
   viewBox="0 0 166.29993 9.9999999"
   version="1.1"
   id="svg2806"
   xml:space="preserve"
   inkscape:version="1.4 (e7c3feb100, 2024-10-09)"
   sodipodi:docname="pir_extension.svg"
   xmlns:inkscape="http://www.inkscape.org/namespaces/inkscape"
   xmlns:sodipodi="http://sodipodi.sourceforge.net/DTD/sodipodi-0.dtd"
   xmlns="http://www.w3.org/2000/svg"
   xmlns:svg="http://www.w3.org/2000/svg"><sodipodi:namedview
     id="namedview2808"
     pagecolor="#ffffff"
     bordercolor="#666666"
     borderopacity="1.0"
     inkscape:showpageshadow="2"
     inkscape:pageopacity="0.0"
     inkscape:pagecheckerboard="0"
     inkscape:deskcolor="#d1d1d1"
     inkscape:document-units="mm"
     showgrid="false"
     inkscape:zoom="3.0182098"
     inkscape:cx="161.51959"
     inkscape:cy="81.67093"
     inkscape:window-width="1920"
     inkscape:window-height="1008"
     inkscape:window-x="0"
     inkscape:window-y="0"
     inkscape:window-maximized="1"
     inkscape:current-layer="layer1"
     showguides="true" /><defs
     id="defs2803"><marker
       id="DistanceX"
       orient="auto"
       refX="0"
       refY="0"
       style="overflow:visible"><path
         d="M 3,-3 -3,3 M 0,-5 V 5"
         style="stroke:#000000;stroke-width:0.5"
         id="path3655" /></marker><pattern
       id="Hatch"
       patternUnits="userSpaceOnUse"
       width="8"
       height="8"
       x="0"
       y="0"><path
         d="M8 4 l-4,4"
         stroke="#000000"
         stroke-width="0.25"
         linecap="square"
         id="path3658" /><path
         d="M6 2 l-4,4"
         stroke="#000000"
         stroke-width="0.25"
         linecap="square"
         id="path3660" /><path
         d="M4 0 l-4,4"
         stroke="#000000"
         stroke-width="0.25"
         linecap="square"
         id="path3662" /></pattern><symbol
       id="*MODEL_SPACE" /><symbol
       id="*PAPER_SPACE" /><inkscape:path-effect
       effect="fill_between_many"
       method="originald"
       linkedpaths="#g1,0,1"
       id="path-effect1"
       is_visible="true"
       lpeversion="0"
       join="true"
       close="true"
       autoreverse="true" /></defs><g
     inkscape:label="Layer 1"
     inkscape:groupmode="layer"
     id="layer1"
     transform="translate(133.99423)"><path
       id="path3709"
       style="fill:none;stroke:#ff0000;stroke-width:0.2"
       d="m 15.355311,0.00109 v 1.69963 c -0.01745,1.583797 -2.382399,1.583797 -2.399854,0 V 0.00109 C 2.9221335,-9.1178244e-4 -7.1111904,9e-5 -17.144514,9e-5 v 1.70016 c -0.01745,1.5823512 -2.382399,1.5823512 -2.399854,0 V 9e-5 h -30.099971 v 1.70016 c -6.53e-4,1.5995926 -2.401023,1.5995926 -2.40037,0 V 9e-5 h -30.099972 v 1.70016 c -0.01745,1.5823512 -2.382399,1.5823512 -2.399854,0 V 9e-5 h -30.099975 v 1.70016 c -0.0177,1.5821111 -2.38216,1.5821111 -2.39985,0 V 9e-5 h -16.94987 V 10 H 32.305697 V 9e-5 Z"
       sodipodi:nodetypes="ccccccccccccccccccccccccc" /></g></svg>
