<?xml version="1.0" encoding="UTF-8" standalone="no"?>
<!-- Created with Inkscape (http://www.inkscape.org/) -->

<svg
   width="166.29993mm"
   height="9.9999104mm"
   viewBox="0 0 166.29993 9.9999104"
   version="1.1"
   id="svg2806"
   xml:space="preserve"
   inkscape:version="1.4 (e7c3feb100, 2024-10-09)"
   sodipodi:docname="pir_extension_2.svg"
   xmlns:inkscape="http://www.inkscape.org/namespaces/inkscape"
   xmlns:sodipodi="http://sodipodi.sourceforge.net/DTD/sodipodi-0.dtd"
   xmlns="http://www.w3.org/2000/svg"
   xmlns:svg="http://www.w3.org/2000/svg"><sodipodi:namedview
     id="namedview2808"
     pagecolor="#ffffff"
     bordercolor="#666666"
     borderopacity="1.0"
     inkscape:showpageshadow="2"
     inkscape:pageopacity="0.0"
     inkscape:pagecheckerboard="0"
     inkscape:deskcolor="#d1d1d1"
     inkscape:document-units="mm"
     showgrid="false"
     inkscape:zoom="8"
     inkscape:cx="443.8125"
     inkscape:cy="21.1875"
     inkscape:window-width="1920"
     inkscape:window-height="1008"
     inkscape:window-x="0"
     inkscape:window-y="0"
     inkscape:window-maximized="1"
     inkscape:current-layer="layer1"
     showguides="true"><sodipodi:guide
       position="83.150076,9.2310521"
       orientation="1,0"
       id="guide1"
       inkscape:locked="false" /><sodipodi:guide
       position="50.650078,9.2310517"
       orientation="1,0"
       id="guide2"
       inkscape:locked="false" /><sodipodi:guide
       position="115.65008,9.2310517"
       orientation="1,0"
       id="guide3"
       inkscape:locked="false" /><sodipodi:guide
       position="148.15008,9.2310517"
       orientation="1,0"
       id="guide4"
       inkscape:locked="false" /><sodipodi:guide
       position="18.150071,9.2310517"
       orientation="1,0"
       id="guide5"
       inkscape:locked="false" /><sodipodi:guide
       position="117.52875,42.763201"
       orientation="0,-1"
       id="guide6"
       inkscape:locked="false" /></sodipodi:namedview><defs
     id="defs2803"><marker
       id="DistanceX"
       orient="auto"
       refX="0"
       refY="0"
       style="overflow:visible"><path
         d="M 3,-3 -3,3 M 0,-5 V 5"
         style="stroke:#000000;stroke-width:0.5"
         id="path3655" /></marker><pattern
       id="Hatch"
       patternUnits="userSpaceOnUse"
       width="8"
       height="8"
       x="0"
       y="0"><path
         d="M8 4 l-4,4"
         stroke="#000000"
         stroke-width="0.25"
         linecap="square"
         id="path3658" /><path
         d="M6 2 l-4,4"
         stroke="#000000"
         stroke-width="0.25"
         linecap="square"
         id="path3660" /><path
         d="M4 0 l-4,4"
         stroke="#000000"
         stroke-width="0.25"
         linecap="square"
         id="path3662" /></pattern><symbol
       id="*MODEL_SPACE" /><symbol
       id="*PAPER_SPACE" /></defs><g
     inkscape:label="Layer 1"
     inkscape:groupmode="layer"
     id="layer1"
     transform="translate(133.99423,-108.16108)"><path
       id="rect5"
       style="fill:none;stroke:#ff0000;stroke-width:0.2"
       d="m -133.99423,108.16108 v 9.99991 H 32.305698 v -9.99991 H 16.605882 v 2.49907 a 2.45,2.45 0 0 1 -2.44998,2.44998 2.45,2.45 0 0 1 -2.44998,-2.44998 v -2.49907 H -15.89446 V 110.64 a 2.45,2.45 0 0 1 5.16e-4,0.0202 2.45,2.45 0 0 1 -2.449979,2.44998 2.45,2.45 0 0 1 -2.44998,-2.44998 v -2.49907 h -27.600382 v 2.49907 a 2.45,2.45 0 0 1 -2.44998,2.44998 2.45,2.45 0 0 1 -2.44998,-2.44998 v -2.49907 H -80.89411 v 2.49907 a 2.45,2.45 0 0 1 -2.44998,2.44998 2.45,2.45 0 0 1 -2.44998,-2.44998 v -2.49907 h -27.59987 v 2.49907 a 2.45,2.45 0 0 1 -2.44998,2.44998 2.45,2.45 0 0 1 -2.45049,-2.44998 v -2.49907 z" /></g></svg>
