<?xml version="1.0" encoding="UTF-8" standalone="no"?>
<!-- Created with Inkscape (http://www.inkscape.org/) -->

<svg
   width="166.56473mm"
   height="45.262272mm"
   viewBox="0 0 166.56473 45.262272"
   version="1.1"
   id="svg2806"
   xml:space="preserve"
   inkscape:version="1.2.2 (732a01da63, 2022-12-09)"
   sodipodi:docname="pir mount.svg"
   xmlns:inkscape="http://www.inkscape.org/namespaces/inkscape"
   xmlns:sodipodi="http://sodipodi.sourceforge.net/DTD/sodipodi-0.dtd"
   xmlns="http://www.w3.org/2000/svg"
   xmlns:svg="http://www.w3.org/2000/svg"><sodipodi:namedview
     id="namedview2808"
     pagecolor="#ffffff"
     bordercolor="#666666"
     borderopacity="1.0"
     inkscape:showpageshadow="2"
     inkscape:pageopacity="0.0"
     inkscape:pagecheckerboard="0"
     inkscape:deskcolor="#d1d1d1"
     inkscape:document-units="mm"
     showgrid="false"
     inkscape:zoom="1.5091049"
     inkscape:cx="291.23223"
     inkscape:cy="19.216689"
     inkscape:window-width="1920"
     inkscape:window-height="1027"
     inkscape:window-x="-8"
     inkscape:window-y="-8"
     inkscape:window-maximized="1"
     inkscape:current-layer="layer1" /><defs
     id="defs2803"><marker
       id="DistanceX"
       orient="auto"
       refX="0"
       refY="0"
       style="overflow:visible"><path
         d="M 3,-3 -3,3 M 0,-5 V 5"
         style="stroke:#000000;stroke-width:0.5"
         id="path3655" /></marker><pattern
       id="Hatch"
       patternUnits="userSpaceOnUse"
       width="8"
       height="8"
       x="0"
       y="0"><path
         d="M8 4 l-4,4"
         stroke="#000000"
         stroke-width="0.25"
         linecap="square"
         id="path3658" /><path
         d="M6 2 l-4,4"
         stroke="#000000"
         stroke-width="0.25"
         linecap="square"
         id="path3660" /><path
         d="M4 0 l-4,4"
         stroke="#000000"
         stroke-width="0.25"
         linecap="square"
         id="path3662" /></pattern><symbol
       id="*MODEL_SPACE" /><symbol
       id="*PAPER_SPACE" /></defs><g
     inkscape:label="Layer 1"
     inkscape:groupmode="layer"
     id="layer1"
     transform="translate(134.12652,-108.16108)"><g
       inkscape:label="0"
       id="g3865"
       transform="matrix(0.26458333,0,0,0.26458333,-50.844156,-217.70769)"
       style="stroke:#ff0000"><path
         style="fill:none;stroke:#ff0000"
         d="M 314.268,1232.13 H -314.268"
         id="path3669" /><path
         style="fill:none;stroke:#ff0000"
         d="M -314.268,1232.13 V 1402.2"
         id="path3671" /><path
         style="fill:none;stroke:#ff0000"
         d="m -291.024,1358.74 v -90.71"
         id="path3673" /><path
         style="fill:none;stroke:#ff0000"
         d="m -291.024,1251.59 h 30.237"
         id="path3675" /><path
         style="fill:none;stroke:#ff0000"
         d="m -291.024,1268.03 v -16.44"
         id="path3677" /><path
         style="fill:none;stroke:#ff0000"
         d="m -260.787,1268.03 v -16.44"
         id="path3679" /><path
         style="fill:none;stroke:#ff0000"
         d="m -230.551,1268.03 h -30.236"
         id="path3681" /><path
         d="m -242.26772,1258.9606 a 3.401575,3.401575 0 0 0 -6.80315,0 3.401575,3.401575 0 0 0 6.80315,0 z"
         style="fill:none;stroke:#ff0000"
         id="path3683" /><path
         style="fill:none;stroke:#ff0000"
         d="m -230.551,1251.59 v 16.44"
         id="path3685" /><path
         style="fill:none;stroke:#ff0000"
         d="m -200.315,1251.59 h -30.236"
         id="path3687" /><path
         style="fill:none;stroke:#ff0000"
         d="m -200.315,1268.03 v -16.44"
         id="path3689" /><path
         style="fill:none;stroke:#ff0000"
         d="m -200.315,1268.03 v 90.71"
         id="path3691" /><path
         style="fill:none;stroke:#ff0000"
         d="m -168.189,1358.74 v -90.71"
         id="path3693" /><path
         style="fill:none;stroke:#ff0000"
         d="m -168.189,1268.03 v -16.44"
         id="path3695" /><path
         style="fill:none;stroke:#ff0000"
         d="m -168.189,1251.59 h 30.236"
         id="path3697" /><path
         style="fill:none;stroke:#ff0000"
         d="m -137.953,1268.03 v -16.44"
         id="path3699" /><path
         style="fill:none;stroke:#ff0000"
         d="m -107.717,1268.03 h -30.236"
         id="path3701" /><path
         style="fill:none;stroke:#ff0000"
         d="m -260.787,1375.18 h -30.237"
         id="path3703" /><path
         style="fill:none;stroke:#ff0000"
         d="m -291.024,1358.74 v 16.44"
         id="path3705" /><path
         style="fill:none;stroke:#ff0000"
         d="m -260.787,1375.18 v -16.44"
         id="path3707" /><path
         d="m -242.26772,1367.811 a 3.401575,3.401575 0 0 0 -6.80315,0 3.401575,3.401575 0 0 0 6.80315,0 z"
         style="fill:none;stroke:#ff0000"
         id="path3709" /><path
         style="fill:none;stroke:#ff0000"
         d="m -260.787,1358.74 h 30.236"
         id="path3711" /><path
         style="fill:none;stroke:#ff0000"
         d="m -200.315,1375.18 h -30.236"
         id="path3713" /><path
         style="fill:none;stroke:#ff0000"
         d="m -230.551,1358.74 v 16.44"
         id="path3715" /><path
         style="fill:none;stroke:#ff0000"
         d="m -200.315,1358.74 v 16.44"
         id="path3717" /><path
         style="fill:none;stroke:#ff0000"
         d="m -137.953,1375.18 h -30.236"
         id="path3719" /><path
         style="fill:none;stroke:#ff0000"
         d="m -168.189,1358.74 v 16.44"
         id="path3721" /><path
         style="fill:none;stroke:#ff0000"
         d="m -137.953,1375.18 v -16.44"
         id="path3723" /><path
         style="fill:none;stroke:#ff0000"
         d="m -137.953,1358.74 h 30.236"
         id="path3725" /><path
         d="m -119.43307,1367.811 a 3.401575,3.401575 0 0 0 -6.80315,0 3.401575,3.401575 0 0 0 6.80315,0 z"
         style="fill:none;stroke:#ff0000"
         id="path3727" /><path
         style="fill:none;stroke:#ff0000"
         d="m -107.717,1358.74 v 16.44"
         id="path3729" /><path
         style="fill:none;stroke:#ff0000"
         d="M -77.4803,1375.18 H -107.717"
         id="path3731" /><path
         style="fill:none;stroke:#ff0000"
         d="m -77.4803,1358.74 v 16.44"
         id="path3733" /><path
         style="fill:none;stroke:#ff0000"
         d="m -77.4803,1268.03 v 90.71"
         id="path3735" /><path
         style="fill:none;stroke:#ff0000"
         d="M -314.268,1402.2 H 314.268"
         id="path3737" /><path
         d="m -119.43307,1258.9606 a 3.401575,3.401575 0 0 0 -6.80315,0 3.401575,3.401575 0 0 0 6.80315,0 z"
         style="fill:none;stroke:#ff0000"
         id="path3739" /><path
         style="fill:none;stroke:#ff0000"
         d="m -107.717,1251.59 v 16.44"
         id="path3741" /><path
         style="fill:none;stroke:#ff0000"
         d="M -77.4803,1251.59 H -107.717"
         id="path3743" /><path
         style="fill:none;stroke:#ff0000"
         d="m -77.4803,1268.03 v -16.44"
         id="path3745" /><path
         style="fill:none;stroke:#ff0000"
         d="m 15.1181,1358.74 v 16.44"
         id="path3747" /><path
         style="fill:none;stroke:#ff0000"
         d="M -15.1181,1358.74 H 15.1181"
         id="path3749" /><path
         style="fill:none;stroke:#ff0000"
         d="m -15.1181,1375.18 v -16.44"
         id="path3751" /><path
         d="m 3.401575,1367.811 a 3.401575,3.401575 0 0 0 -6.80315,0 3.401575,3.401575 0 0 0 6.80315,0 z"
         style="fill:none;stroke:#ff0000"
         id="path3753" /><path
         style="fill:none;stroke:#ff0000"
         d="M 45.3543,1375.18 H 15.1181"
         id="path3755" /><path
         style="fill:none;stroke:#ff0000"
         d="M -15.1181,1375.18 H -45.3543"
         id="path3757" /><path
         style="fill:none;stroke:#ff0000"
         d="m -45.3543,1358.74 v 16.44"
         id="path3759" /><path
         style="fill:none;stroke:#ff0000"
         d="m -45.3543,1358.74 v -90.71"
         id="path3761" /><path
         style="fill:none;stroke:#ff0000"
         d="m 45.3543,1358.74 v 16.44"
         id="path3763" /><path
         style="fill:none;stroke:#ff0000"
         d="m 45.3543,1268.03 v 90.71"
         id="path3765" /><path
         style="fill:none;stroke:#ff0000"
         d="m 45.3543,1268.03 v -16.44"
         id="path3767" /><path
         style="fill:none;stroke:#ff0000"
         d="M 45.3543,1251.59 H 15.1181"
         id="path3769" /><path
         style="fill:none;stroke:#ff0000"
         d="m 15.1181,1251.59 v 16.44"
         id="path3771" /><path
         style="fill:none;stroke:#ff0000"
         d="M 15.1181,1268.03 H -15.1181"
         id="path3773" /><path
         d="m 3.401575,1258.9606 a 3.401575,3.401575 0 0 0 -6.80315,0 3.401575,3.401575 0 0 0 6.80315,0 z"
         style="fill:none;stroke:#ff0000"
         id="path3775" /><path
         style="fill:none;stroke:#ff0000"
         d="m -15.1181,1268.03 v -16.44"
         id="path3777" /><path
         style="fill:none;stroke:#ff0000"
         d="m -45.3543,1251.59 h 30.2362"
         id="path3779" /><path
         style="fill:none;stroke:#ff0000"
         d="m -45.3543,1268.03 v -16.44"
         id="path3781" /><path
         d="m 126.23622,1367.811 a 3.401575,3.401575 0 0 0 -6.80315,0 3.401575,3.401575 0 0 0 6.80315,0 z"
         style="fill:none;stroke:#ff0000"
         id="path3783" /><path
         style="fill:none;stroke:#ff0000"
         d="m 107.717,1358.74 h 30.236"
         id="path3785" /><path
         style="fill:none;stroke:#ff0000"
         d="m 107.717,1375.18 v -16.44"
         id="path3787" /><path
         style="fill:none;stroke:#ff0000"
         d="M 107.717,1375.18 H 77.4803"
         id="path3789" /><path
         style="fill:none;stroke:#ff0000"
         d="m 137.953,1358.74 v 16.44"
         id="path3791" /><path
         style="fill:none;stroke:#ff0000"
         d="M 168.189,1375.18 H 137.953"
         id="path3793" /><path
         style="fill:none;stroke:#ff0000"
         d="m 77.4803,1358.74 v 16.44"
         id="path3795" /><path
         style="fill:none;stroke:#ff0000"
         d="m 77.4803,1358.74 v -90.71"
         id="path3797" /><path
         style="fill:none;stroke:#ff0000"
         d="m 168.189,1358.74 v 16.44"
         id="path3799" /><path
         style="fill:none;stroke:#ff0000"
         d="m 168.189,1268.03 v 90.71"
         id="path3801" /><path
         style="fill:none;stroke:#ff0000"
         d="m 137.953,1251.59 v 16.44"
         id="path3803" /><path
         style="fill:none;stroke:#ff0000"
         d="M 137.953,1268.03 H 107.717"
         id="path3805" /><path
         style="fill:none;stroke:#ff0000"
         d="m 107.717,1268.03 v -16.44"
         id="path3807" /><path
         d="m 126.23622,1258.9606 a 3.401575,3.401575 0 0 0 -6.80315,0 3.401575,3.401575 0 0 0 6.80315,0 z"
         style="fill:none;stroke:#ff0000"
         id="path3809" /><path
         style="fill:none;stroke:#ff0000"
         d="M 77.4803,1251.59 H 107.717"
         id="path3811" /><path
         style="fill:none;stroke:#ff0000"
         d="M 168.189,1251.59 H 137.953"
         id="path3813" /><path
         style="fill:none;stroke:#ff0000"
         d="m 168.189,1268.03 v -16.44"
         id="path3815" /><path
         style="fill:none;stroke:#ff0000"
         d="m 77.4803,1268.03 v -16.44"
         id="path3817" /><path
         style="fill:none;stroke:#ff0000"
         d="m 291.024,1358.74 v 16.44"
         id="path3819" /><path
         style="fill:none;stroke:#ff0000"
         d="M 291.024,1375.18 H 260.787"
         id="path3821" /><path
         style="fill:none;stroke:#ff0000"
         d="m 260.787,1358.74 v 16.44"
         id="path3823" /><path
         style="fill:none;stroke:#ff0000"
         d="m 230.551,1358.74 h 30.236"
         id="path3825" /><path
         d="m 249.07087,1367.811 a 3.401575,3.401575 0 0 0 -6.80315,0 3.401575,3.401575 0 0 0 6.80315,0 z"
         style="fill:none;stroke:#ff0000"
         id="path3827" /><path
         style="fill:none;stroke:#ff0000"
         d="m 230.551,1375.18 v -16.44"
         id="path3829" /><path
         style="fill:none;stroke:#ff0000"
         d="M 230.551,1375.18 H 200.315"
         id="path3831" /><path
         style="fill:none;stroke:#ff0000"
         d="m 200.315,1358.74 v 16.44"
         id="path3833" /><path
         style="fill:none;stroke:#ff0000"
         d="m 200.315,1358.74 v -90.71"
         id="path3835" /><path
         style="fill:none;stroke:#ff0000"
         d="m 291.024,1268.03 v 90.71"
         id="path3837" /><path
         style="fill:none;stroke:#ff0000"
         d="m 230.551,1268.03 v -16.44"
         id="path3839" /><path
         style="fill:none;stroke:#ff0000"
         d="m 200.315,1251.59 h 30.236"
         id="path3841" /><path
         style="fill:none;stroke:#ff0000"
         d="m 200.315,1268.03 v -16.44"
         id="path3843" /><path
         style="fill:none;stroke:#ff0000"
         d="M 260.787,1268.03 H 230.551"
         id="path3845" /><path
         d="m 249.07087,1258.9606 a 3.401575,3.401575 0 0 0 -6.80315,0 3.401575,3.401575 0 0 0 6.80315,0 z"
         style="fill:none;stroke:#ff0000"
         id="path3847" /><path
         style="fill:none;stroke:#ff0000"
         d="m 260.787,1251.59 v 16.44"
         id="path3849" /><path
         style="fill:none;stroke:#ff0000"
         d="M 291.024,1251.59 H 260.787"
         id="path3851" /><path
         style="fill:none;stroke:#ff0000"
         d="m 291.024,1268.03 v -16.44"
         id="path3853" /><path
         style="fill:none;stroke:#ff0000"
         d="M 314.268,1402.2 V 1232.13"
         id="path3855" /><path
         d="m 66.897638,1287.874 a 5.480315,5.480315 0 0 0 -10.96063,0 5.480315,5.480315 0 0 0 10.96063,0 z"
         style="fill:none;stroke:#ff0000"
         id="path3857" /><path
         d="m 66.897638,1257.6378 a 5.480315,5.480315 0 0 0 -10.96063,0 5.480315,5.480315 0 0 0 10.96063,0 z"
         style="fill:none;stroke:#ff0000"
         id="path3859" /><path
         d="m -55.937008,1287.874 a 5.480315,5.480315 0 0 0 -10.96063,0 5.480315,5.480315 0 0 0 10.96063,0 z"
         style="fill:none;stroke:#ff0000"
         id="path3861" /><path
         d="m -55.937008,1257.6378 a 5.480315,5.480315 0 0 0 -10.96063,0 5.480315,5.480315 0 0 0 10.96063,0 z"
         style="fill:none;stroke:#ff0000"
         id="path3863" /></g></g></svg>
