<?xml version="1.0" encoding="UTF-8" standalone="no"?>
<svg
   viewBox="0 0 188.97637 188.97638"
   width="50mm"
   height="50mm"
   version="1.1"
   id="svg10"
   sodipodi:docname="bottomlayer_laser.svg"
   inkscape:version="1.3 (0e150ed6c4, 2023-07-21)"
   xmlns:inkscape="http://www.inkscape.org/namespaces/inkscape"
   xmlns:sodipodi="http://sodipodi.sourceforge.net/DTD/sodipodi-0.dtd"
   xmlns="http://www.w3.org/2000/svg"
   xmlns:svg="http://www.w3.org/2000/svg">
  <sodipodi:namedview
     id="namedview10"
     pagecolor="#ffffff"
     bordercolor="#666666"
     borderopacity="1.0"
     inkscape:showpageshadow="2"
     inkscape:pageopacity="0.0"
     inkscape:pagecheckerboard="0"
     inkscape:deskcolor="#d1d1d1"
     inkscape:document-units="mm"
     inkscape:zoom="3.036027"
     inkscape:cx="131.58644"
     inkscape:cy="58.299876"
     inkscape:window-width="1920"
     inkscape:window-height="1028"
     inkscape:window-x="-6"
     inkscape:window-y="-6"
     inkscape:window-maximized="1"
     inkscape:current-layer="g10" />
  <desc
     id="desc1">bottomlayer_laser.dxf - scale = 1.000000, origin = (0.000000, 0.000000), method = manual</desc>
  <defs
     id="defs4">
    <marker
       id="DistanceX"
       orient="auto"
       refX="0"
       refY="0"
       style="overflow:visible">
      <path
         d="M 3,-3 -3,3 M 0,-5 V 5"
         style="stroke:#000000;stroke-width:0.5"
         id="path1" />
    </marker>
    <pattern
       id="Hatch"
       patternUnits="userSpaceOnUse"
       width="8"
       height="8"
       x="0"
       y="0">
      <path
         d="M8 4 l-4,4"
         stroke="#000000"
         stroke-width="0.25"
         linecap="square"
         id="path2" />
      <path
         d="M6 2 l-4,4"
         stroke="#000000"
         stroke-width="0.25"
         linecap="square"
         id="path3" />
      <path
         d="M4 0 l-4,4"
         stroke="#000000"
         stroke-width="0.25"
         linecap="square"
         id="path4" />
    </pattern>
    <symbol
       id="*MODEL_SPACE" />
    <symbol
       id="*PAPER_SPACE" />
  </defs>
  <g
     inkscape:groupmode="layer"
     inkscape:label="0"
     id="g10"
     transform="translate(94.48819,-1028.0315)">
    <path
       d="m 60.850394,1065.8268 a 4.1574805,4.1574805 0 0 0 -8.314961,0 4.1574805,4.1574805 0 0 0 8.314961,0 z"
       style="fill:none;stroke:#000000"
       id="path5" />
    <path
       d="m -52.535433,1179.2126 a 4.1574805,4.1574805 0 0 0 -8.314961,0 4.1574805,4.1574805 0 0 0 8.314961,0 z"
       style="fill:none;stroke:#000000"
       id="path6" />
    <path
       d="m 61.606299,1179.2126 a 4.913386,4.913386 0 0 0 -9.826771,0 4.913386,4.913386 0 0 0 9.826771,0 z"
       style="fill:none;stroke:#000000"
       id="path7" />
    <path
       d="m -51.779528,1065.8268 a 4.913386,4.913386 0 0 0 -9.826771,0 4.913386,4.913386 0 0 0 9.826771,0 z"
       style="fill:none;stroke:#000000"
       id="path8" />
    <path
       d="m 10.96063,1122.5197 a 10.96063,10.96063 0 0 0 -21.92126,0 10.96063,10.96063 0 0 0 21.92126,0 z"
       style="fill:none;stroke:#000000"
       id="path9" />
    <path
       d="M 75.590551,1198.1102 V 1046.9291 H -75.590551 v 151.1811 z"
       style="fill:none;stroke:#000000"
       id="path10" />
  </g>
</svg>
