<?xml version="1.0" encoding="UTF-8" standalone="no"?>
<!-- Created with Inkscape (http://www.inkscape.org/) -->

<svg
   width="150mm"
   height="50mm"
   viewBox="0 0 150 50"
   version="1.1"
   id="svg1"
   inkscape:version="1.3 (0e150ed6c4, 2023-07-21)"
   sodipodi:docname="combined.svg"
   xmlns:inkscape="http://www.inkscape.org/namespaces/inkscape"
   xmlns:sodipodi="http://sodipodi.sourceforge.net/DTD/sodipodi-0.dtd"
   xmlns="http://www.w3.org/2000/svg"
   xmlns:svg="http://www.w3.org/2000/svg">
  <sodipodi:namedview
     id="namedview1"
     pagecolor="#ffffff"
     bordercolor="#666666"
     borderopacity="1.0"
     inkscape:showpageshadow="2"
     inkscape:pageopacity="0.0"
     inkscape:pagecheckerboard="0"
     inkscape:deskcolor="#d1d1d1"
     inkscape:document-units="mm"
     inkscape:zoom="0.75900673"
     inkscape:cx="397.22968"
     inkscape:cy="350.45802"
     inkscape:window-width="1920"
     inkscape:window-height="1028"
     inkscape:window-x="-6"
     inkscape:window-y="-6"
     inkscape:window-maximized="1"
     inkscape:current-layer="layer1"
     showguides="true"
     showgrid="true">
    <sodipodi:guide
       position="-15,24.999999"
       orientation="0,-1"
       id="guide1"
       inkscape:locked="false" />
    <inkscape:grid
       id="grid1"
       units="mm"
       originx="0"
       originy="0"
       spacingx="5"
       spacingy="5"
       empcolor="#0099e5"
       empopacity="0.30196078"
       color="#0099e5"
       opacity="0.14901961"
       empspacing="5"
       dotted="false"
       gridanglex="30"
       gridanglez="30"
       visible="true" />
    <sodipodi:guide
       position="25,55.000009"
       orientation="1,0"
       id="guide2"
       inkscape:locked="false" />
    <sodipodi:guide
       position="75,55.000006"
       orientation="1,0"
       id="guide3"
       inkscape:locked="false" />
    <sodipodi:guide
       position="125,55.000009"
       orientation="1,0"
       id="guide4"
       inkscape:locked="false" />
  </sodipodi:namedview>
  <defs
     id="defs1" />
  <g
     inkscape:label="Layer 1"
     inkscape:groupmode="layer"
     id="layer1">
    <path
       d="m 41.3,10.000011 a 1.3,1.3 0 0 0 -2.6,0 1.3,1.3 0 0 0 2.6,0 z"
       style="fill:none;stroke:#ff0000;stroke-width:0.264583"
       id="path5" />
    <path
       d="m 11.3,40.000011 a 1.3000001,1.3000001 0 0 0 -2.6000001,0 1.3000001,1.3000001 0 0 0 2.6000001,0 z"
       style="fill:none;stroke:#ff0000;stroke-width:0.264583"
       id="path6" />
    <path
       d="m 41.3,40.000011 a 1.3,1.3 0 0 0 -2.6,0 1.3,1.3 0 0 0 2.6,0 z"
       style="fill:none;stroke:#ff0000;stroke-width:0.264583"
       id="path7" />
    <path
       d="m 11.3,10.000011 a 1.3000001,1.3000001 0 0 0 -2.6000001,0 1.3000001,1.3000001 0 0 0 2.6000001,0 z"
       style="fill:none;stroke:#ff0000;stroke-width:0.264583"
       id="path8" />
    <path
       d="m 26.8,30.080011 a 1.8000001,1.8000001 0 0 0 -3.6,0 1.8000001,1.8000001 0 0 0 3.6,0 z"
       style="fill:none;stroke:#ff0000;stroke-width:0.264583"
       id="path9" />
    <path
       d="M 45,45.000001 V 5.0000006 H 4.9999999 V 45.000001 Z"
       style="fill:none;stroke:#ff0000;stroke-width:0.264583"
       id="path10" />
    <path
       d="m 91.3,10.000016 a 1.3,1.3 0 0 0 -2.6,0 1.3,1.3 0 0 0 2.6,0 z"
       style="fill:none;stroke:#ff0000;stroke-width:0.264583"
       id="path5-5" />
    <path
       d="m 61.3,40.000012 a 1.3,1.3 0 0 0 -2.6,0 1.3,1.3 0 0 0 2.6,0 z"
       style="fill:none;stroke:#ff0000;stroke-width:0.264583"
       id="path6-2" />
    <path
       d="m 91.3,40.000012 a 1.3,1.3 0 0 0 -2.6,0 1.3,1.3 0 0 0 2.6,0 z"
       style="fill:none;stroke:#ff0000;stroke-width:0.264583"
       id="path7-3" />
    <path
       d="m 61.3,10.000016 a 1.3,1.3 0 0 0 -2.6,0 1.3,1.3 0 0 0 2.6,0 z"
       style="fill:none;stroke:#ff0000;stroke-width:0.264583"
       id="path8-4" />
    <path
       d="M 82.25,32.250019 H 67.75 V 17.750006 h 14.5 z"
       style="fill:none;stroke:#ff0000;stroke-width:0.264583"
       id="path9-1" />
    <path
       d="M 55,45.000002 H 95 V 4.9999997 H 55 Z"
       style="fill:none;stroke:#ff0000;stroke-width:0.264583"
       id="path10-7" />
    <path
       d="m 141.09999,10.000005 a 1.1,1.1 0 0 0 -2.19999,0 1.1,1.1 0 0 0 2.19999,0 z"
       style="fill:none;stroke:#ff0000;stroke-width:0.264583"
       id="path5-0" />
    <path
       d="m 111.1,40.000001 a 1.1,1.1 0 0 0 -2.2,0 1.1,1.1 0 0 0 2.2,0 z"
       style="fill:none;stroke:#ff0000;stroke-width:0.264583"
       id="path6-1" />
    <path
       d="m 141.3,40.000001 a 1.3,1.3 0 0 0 -2.6,0 1.3,1.3 0 0 0 2.6,0 z"
       style="fill:none;stroke:#ff0000;stroke-width:0.264583"
       id="path7-8" />
    <path
       d="m 111.3,10.000005 a 1.3,1.3 0 0 0 -2.6,0 1.3,1.3 0 0 0 2.6,0 z"
       style="fill:none;stroke:#ff0000;stroke-width:0.264583"
       id="path8-2" />
    <path
       d="m 127.9,25.000001 a 2.9,2.9 0 0 0 -5.8,0 2.9,2.9 0 0 0 5.8,0 z"
       style="fill:none;stroke:#ff0000;stroke-width:0.264583"
       id="path9-4" />
    <path
       d="M 145,44.999991 V 4.9999889 H 105 V 44.999991 Z"
       style="fill:none;stroke:#ff0000;stroke-width:0.264583"
       id="path10-6" />
  </g>
</svg>
