999
"DXF R12 Output" (www.mydxf.blogspot.com)
 0 
SECTION
 2 
HEADER
 9 
$ACADVER
 1 
AC1009
 9 
$EXTMIN
 10 
 0 
 20 
 0 
 9 
$EXTMAX
 10 
 8.5 
 20 
 11 
 0 
ENDSEC
 0 
SECTION
 2 
ENTITIES
0
LINE
8
Layer 1
10
0.793749
20
50.793749
11
-0.793749
21
49.206251
0
LINE
8
Layer 1
10
0.000000
20
51.322915
11
0.000000
21
48.677085
0
LINE
8
Layer 1
10
2.116664
20
48.941668
11
1.058332
21
47.883336
0
LINE
8
Layer 1
10
1.587498
20
49.470834
11
0.529166
21
48.412502
0
LINE
8
Layer 1
10
1.058332
20
50.000000
11
0.000000
21
48.941668
0
LINE
8
0
10
41.299979
20
40.000348
11
41.197650
21
40.506178
0
LINE
8
0
10
41.197650
20
40.506178
11
40.919011
21
40.919206
0
LINE
8
0
10
40.919011
20
40.919206
11
40.505857
21
41.197659
0
LINE
8
0
10
40.505857
20
41.197659
11
39.999981
21
41.299760
0
LINE
8
0
10
39.999981
20
41.299760
11
39.494105
21
41.197659
0
LINE
8
0
10
39.494105
20
41.197659
11
39.080951
21
40.919206
0
LINE
8
0
10
39.080951
20
40.919206
11
38.802312
21
40.506178
0
LINE
8
0
10
38.802312
20
40.506178
11
38.699983
21
40.000348
0
LINE
8
0
10
38.699983
20
40.000348
11
38.802312
21
39.494518
0
LINE
8
0
10
38.802312
20
39.494518
11
39.080951
21
39.081489
0
LINE
8
0
10
39.080951
20
39.081489
11
39.494105
21
38.803037
0
LINE
8
0
10
39.494105
20
38.803037
11
39.999981
21
38.700936
0
LINE
8
0
10
39.999981
20
38.700936
11
40.505857
21
38.803037
0
LINE
8
0
10
40.505857
20
38.803037
11
40.919011
21
39.081489
0
LINE
8
0
10
40.919011
20
39.081489
11
41.197650
21
39.494518
0
LINE
8
0
10
41.197650
20
39.494518
11
41.299979
21
40.000348
0
LINE
8
0
10
41.299979
20
40.000348
11
41.299979
21
40.000348
0
LINE
8
0
10
11.300017
20
10.000393
11
11.197688
21
10.506222
0
LINE
8
0
10
11.197688
20
10.506222
11
10.919049
21
10.919251
0
LINE
8
0
10
10.919049
20
10.919251
11
10.505895
21
11.197704
0
LINE
8
0
10
10.505895
20
11.197704
11
10.000019
21
11.299805
0
LINE
8
0
10
10.000019
20
11.299805
11
9.494143
21
11.197704
0
LINE
8
0
10
9.494143
20
11.197704
11
9.080989
21
10.919251
0
LINE
8
0
10
9.080989
20
10.919251
11
8.802350
21
10.506222
0
LINE
8
0
10
8.802350
20
10.506222
11
8.700021
21
10.000393
0
LINE
8
0
10
8.700021
20
10.000393
11
8.802350
21
9.494563
0
LINE
8
0
10
8.802350
20
9.494563
11
9.080989
21
9.081534
0
LINE
8
0
10
9.080989
20
9.081534
11
9.494143
21
8.803082
0
LINE
8
0
10
9.494143
20
8.803082
11
10.000019
21
8.700981
0
LINE
8
0
10
10.000019
20
8.700981
11
10.505895
21
8.803082
0
LINE
8
0
10
10.505895
20
8.803082
11
10.919049
21
9.081534
0
LINE
8
0
10
10.919049
20
9.081534
11
11.197688
21
9.494563
0
LINE
8
0
10
11.197688
20
9.494563
11
11.300017
21
10.000393
0
LINE
8
0
10
11.300017
20
10.000393
11
11.300017
21
10.000393
0
LINE
8
0
10
41.299979
20
10.000393
11
41.197650
21
10.506222
0
LINE
8
0
10
41.197650
20
10.506222
11
40.919011
21
10.919251
0
LINE
8
0
10
40.919011
20
10.919251
11
40.505857
21
11.197704
0
LINE
8
0
10
40.505857
20
11.197704
11
39.999981
21
11.299805
0
LINE
8
0
10
39.999981
20
11.299805
11
39.494105
21
11.197704
0
LINE
8
0
10
39.494105
20
11.197704
11
39.080951
21
10.919251
0
LINE
8
0
10
39.080951
20
10.919251
11
38.802312
21
10.506222
0
LINE
8
0
10
38.802312
20
10.506222
11
38.699983
21
10.000393
0
LINE
8
0
10
38.699983
20
10.000393
11
38.802312
21
9.494563
0
LINE
8
0
10
38.802312
20
9.494563
11
39.080951
21
9.081534
0
LINE
8
0
10
39.080951
20
9.081534
11
39.494105
21
8.803082
0
LINE
8
0
10
39.494105
20
8.803082
11
39.999981
21
8.700981
0
LINE
8
0
10
39.999981
20
8.700981
11
40.505857
21
8.803082
0
LINE
8
0
10
40.505857
20
8.803082
11
40.919011
21
9.081534
0
LINE
8
0
10
40.919011
20
9.081534
11
41.197650
21
9.494563
0
LINE
8
0
10
41.197650
20
9.494563
11
41.299979
21
10.000393
0
LINE
8
0
10
41.299979
20
10.000393
11
41.299979
21
10.000393
0
LINE
8
0
10
11.300017
20
40.000348
11
11.197688
21
40.506178
0
LINE
8
0
10
11.197688
20
40.506178
11
10.919049
21
40.919206
0
LINE
8
0
10
10.919049
20
40.919206
11
10.505895
21
41.197659
0
LINE
8
0
10
10.505895
20
41.197659
11
10.000019
21
41.299760
0
LINE
8
0
10
10.000019
20
41.299760
11
9.494143
21
41.197659
0
LINE
8
0
10
9.494143
20
41.197659
11
9.080989
21
40.919206
0
LINE
8
0
10
9.080989
20
40.919206
11
8.802350
21
40.506178
0
LINE
8
0
10
8.802350
20
40.506178
11
8.700021
21
40.000348
0
LINE
8
0
10
8.700021
20
40.000348
11
8.802350
21
39.494518
0
LINE
8
0
10
8.802350
20
39.494518
11
9.080989
21
39.081489
0
LINE
8
0
10
9.080989
20
39.081489
11
9.494143
21
38.803037
0
LINE
8
0
10
9.494143
20
38.803037
11
10.000019
21
38.700936
0
LINE
8
0
10
10.000019
20
38.700936
11
10.505895
21
38.803037
0
LINE
8
0
10
10.505895
20
38.803037
11
10.919049
21
39.081489
0
LINE
8
0
10
10.919049
20
39.081489
11
11.197688
21
39.494518
0
LINE
8
0
10
11.197688
20
39.494518
11
11.300017
21
40.000348
0
LINE
8
0
10
11.300017
20
40.000348
11
11.300017
21
40.000348
0
LINE
8
0
10
26.799998
20
19.920377
11
26.558844
21
20.820376
0
LINE
8
0
10
26.558844
20
20.820376
11
25.899999
21
21.479220
0
LINE
8
0
10
25.899999
20
21.479220
11
25.000000
21
21.720374
0
LINE
8
0
10
25.000000
20
21.720374
11
24.100001
21
21.479220
0
LINE
8
0
10
24.100001
20
21.479220
11
23.441156
21
20.820376
0
LINE
8
0
10
23.441156
20
20.820376
11
23.200002
21
19.920377
0
LINE
8
0
10
23.200002
20
19.920377
11
23.441156
21
19.020378
0
LINE
8
0
10
23.441156
20
19.020378
11
24.100001
21
18.361533
0
LINE
8
0
10
24.100001
20
18.361533
11
25.000000
21
18.120379
0
LINE
8
0
10
25.000000
20
18.120379
11
25.899999
21
18.361533
0
LINE
8
0
10
25.899999
20
18.361533
11
26.558844
21
19.020378
0
LINE
8
0
10
26.558844
20
19.020378
11
26.799998
21
19.920377
0
LINE
8
0
10
26.799998
20
19.920377
11
26.799998
21
19.920377
0
LINE
8
0
10
44.999975
20
5.000409
11
44.999975
21
45.000358
0
LINE
8
0
10
44.999975
20
45.000358
11
5.000025
21
45.000358
0
LINE
8
0
10
5.000025
20
45.000358
11
5.000025
21
5.000409
0
LINE
8
0
10
5.000025
20
5.000409
11
44.999975
21
5.000409
 0 
ENDSEC
 0 
EOF